<?xml version="1.0" encoding="UTF-8"?>
<svg id="Outline" xmlns="http://www.w3.org/2000/svg" version="1.1" viewBox="0 0 64 64">
  <!-- Generator: Adobe Illustrator 29.5.1, SVG Export Plug-In . SVG Version: 2.1.0 Build 141)  -->
  <path d="M26.5,28.779c-.552,0-1,.448-1,1v10c0,.552.448,1,1,1s1-.448,1-1v-10c0-.552-.448-1-1-1Z"/>
  <path d="M21.5,28.779c-.552,0-1,.448-1,1v10c0,.552.448,1,1,1s1-.448,1-1v-10c0-.552-.448-1-1-1Z"/>
  <path d="M16.5,28.779c-.552,0-1,.448-1,1v10c0,.552.448,1,1,1s1-.448,1-1v-10c0-.552-.448-1-1-1Z"/>
  <path d="M31.5,28.779c-.552,0-1,.448-1,1v10c0,.552.448,1,1,1s1-.448,1-1v-10c0-.552-.448-1-1-1Z"/>
  <path d="M49.5,33.479v-2.7h1c.55,0,1-.45,1-1v-4c0-.55-.45-1-1-1h-4.18c.11-.31.18-.65.18-1v-2c0-1.57-1.21-2.84-2.74-2.97l-10.73-10.74c-1.13-1.13-3.11-1.13-4.24,0-.56.57-.87,1.32-.87,2.12s.31,1.55.87,2.12l6.48,6.47h-17.54l6.48-6.47c.56-.57.87-1.32.87-2.12s-.31-1.55-.87-2.12c-1.13-1.13-3.11-1.13-4.24,0l-10.73,10.74c-1.53.13-2.74,1.4-2.74,2.97v2c0,1.35.9,2.48,2.13,2.86l2.6,15.63c.25,1.46,1.49,2.51,2.96,2.51h19.31c0,6.62,5.38,12,12,12s12-5.38,12-12c0-5.21-3.35-9.65-8-11.3ZM49.5,26.779v2h-8v-2h8ZM47.5,30.779v2.18c-.65-.11-1.32-.18-2-.18s-1.35.07-2,.18v-2.18h4ZM30.21,10.889c-.19-.19-.29-.43-.29-.7s.1-.51.29-.7c.37-.38,1.03-.38,1.4,0l9.3,9.29h-2.82l-7.88-7.89ZM21.39,9.489c.37-.38,1.03-.38,1.4,0,.359.368.391,1.01,0,1.4l-7.88,7.89h-2.82l9.3-9.29ZM8.5,23.779v-2c0-.55.45-1,1-1h34c.55,0,1,.45,1,1v2c0,.55-.45,1-1,1H9.5c-.55,0-1-.45-1-1ZM14.19,42.779c-.48,0-.9-.36-.98-.83l-2.53-15.17h28.82v3c0,.55.45,1,1,1h1v2.7c-1.49.53-2.84,1.34-4,2.38v-6.08c0-.55-.45-1-1-1s-1,.45-1,1v8.38c-.91,1.37-1.54,2.94-1.82,4.62H14.19ZM45.5,54.779c-5.51,0-10-4.49-10-10s4.49-10,10-10,10,4.49,10,10-4.49,10-10,10Z"/>
  <path d="M46.5,41.963v-4.184c0-.552-.448-1-1-1s-1,.448-1,1v4.184c-1.161.414-2,1.514-2,2.816,0,.462.113.894.301,1.285l-2.957,2.957c-.391.391-.391,1.023,0,1.414.366.367,1.021.393,1.414,0l2.957-2.957c.391.187.824.301,1.285.301,1.654,0,3-1.346,3-3,0-1.302-.839-2.402-2-2.816ZM45.5,45.779c-.551,0-1-.449-1-1s.449-1,1-1,1,.449,1,1-.449,1-1,1Z"/>
</svg>