<?xml version="1.0" encoding="UTF-8"?>
<svg id="Outline" xmlns="http://www.w3.org/2000/svg" version="1.1" viewBox="0 0 64 64">
  <!-- Generator: Adobe Illustrator 29.3.1, SVG Export Plug-In . SVG Version: 2.1.0 Build 151)  -->
  <path d="M55.59003,33.62v-.01001l-.54004-1.60999.54004-1.60999v-.01001l1.35999-4.06c.09998-.31.04999-.64001-.14001-.90002-.19-.27002-.48999-.41998-.81-.41998h-5v-4c0-1.65002-1.34998-3-3-3H16c-1.65002,0-3,1.34998-3,3v4h-5c-.32001,0-.62.14996-.81.41998-.19.26001-.23999.59003-.14001.90002l1.35999,4.06v.01001l.54004,1.60999-.54004,1.60999v.01001l-1.35999,4.06c-.09998.31-.04999.64001.14001.89996.19.27002.48999.42004.81.42004h5v4c0,1.64996,1.34998,3,3,3h32c1.65002,0,3-1.35004,3-3v-4h5c.32001,0,.62-.15002.81-.42004.19-.25995.23999-.58997.14001-.89996l-1.35999-4.06ZM13,37h-3.60999l.65997-2h2.95001v2ZM13,33h-2.28003l.23004-.67999c.07001-.21002.07001-.42999,0-.64001l-.23004-.67999h2.28003v2ZM13,29h-2.95001l-.65997-2h3.60999v2ZM49,43c0,.54999-.45001,1-1,1H16c-.54999,0-1-.45001-1-1v-22c0-.54999.45001-1,1-1h32c.54999,0,1,.45001,1,1v22ZM51,31h2.28003l-.23004.67999c-.07001.21002-.07001.42999,0,.64001l.23004.67999h-2.28003v-2ZM51,37v-2h2.95001l.65997,2h-3.60999ZM53.95001,29h-2.95001v-2h3.60999l-.65997,2Z"/>
  <path d="M46,25c-1.10254,0-2-.89746-2-2,0-.55273-.44727-1-1-1h-22c-.55273,0-1,.44727-1,1,0,1.10254-.89746,2-2,2-.55273,0-1,.44727-1,1v12c0,.55273.44727,1,1,1,1.10254,0,2,.89746,2,2,0,.55273.44727,1,1,1h22c.55273,0,1-.44727,1-1,0-1.10254.89746-2,2-2,.55273,0,1-.44727,1-1v-12c0-.55273-.44727-1-1-1ZM45,37.12695c-1.40332.3623-2.51074,1.46973-2.87305,2.87305h-20.25391c-.3623-1.40332-1.46973-2.51074-2.87305-2.87305v-10.25391c1.40332-.3623,2.51074-1.46973,2.87305-2.87305h20.25391c.3623,1.40332,1.46973,2.51074,2.87305,2.87305v10.25391Z"/>
  <path d="M24,32h16c.55273,0,1-.44727,1-1v-4c0-.55273-.44727-1-1-1h-16c-.55273,0-1,.44727-1,1v4c0,.55273.44727,1,1,1ZM25,28h14v2h-14v-2Z"/>
  <path d="M42,34h-20c-.55273,0-1,.44727-1,1s.44727,1,1,1h20c.55273,0,1-.44727,1-1s-.44727-1-1-1Z"/>
</svg>