<?xml version="1.0" encoding="UTF-8"?>
<svg id="Outline" xmlns="http://www.w3.org/2000/svg" version="1.1" viewBox="0 0 64 64">
  <!-- Generator: Adobe Illustrator 29.5.1, SVG Export Plug-In . SVG Version: 2.1.0 Build 141)  -->
  <path d="M49.5,31.57852l-6.45001-3.52002c.59003-.71002,1.10999-1.47998,1.54004-2.29999l2.66998-.71002c.52997-.14001.83997-.67999.70996-1.20996l-2-8c-.10999-.45001-.50995-.76001-.96997-.76001h-.08002c-2.15997-4.81-7.25-8-12.91998-8s-10.76001,3.19-12.91998,8h-.08002c-.46002,0-.85999.31-.96997.76001l-2,8c-.13.52997.17999,1.06995.70996,1.20996l2.66998.71002c.43005.82001.95001,1.58997,1.54004,2.29999l-6.45001,3.52002c-2.15002,1.16998-2.96997,3.79999-1.88,5.97998.78998,1.58002,2.38,2.5,4.04999,2.5.59003,0,1.19-.12,1.77002-.37l1.85999-.78998c-.19,1.38-.29999,2.77997-.29999,4.17999,0,.41998.26001.79999.65997.94.72003.26001,1.45001.48999,2.19.70001l-1.56995,7.38995c-.42004,2.02001.78996,4.05997,2.75991,4.65001,2.20089.65921,4.56294-.75,5.04008-2.98998l1.64996-7.78003c.42004.02002.85004.03003,1.27002.03003s.84998-.01001,1.27002-.03003l1.64996,7.78002c.47422,2.23607,2.8523,3.64033,5.04004,2.99,1.96997-.59003,3.17999-2.63,2.75995-4.65002l-1.56995-7.38995c.73999-.21002,1.46997-.44,2.19-.70001.39996-.14001.65997-.52002.65997-.94,0-1.40002-.10999-2.79999-.29999-4.17999l1.85999.78998c2.14977.91306,4.75496.00018,5.82001-2.13,1.08997-2.17999.27002-4.81-1.88-5.97998ZM32,9.07852c4.54999,0,8.65997,2.35999,10.67999,6h-21.35999c2.02002-3.64001,6.13-6,10.67999-6ZM18.21002,23.3685l1.57001-6.28998h24.43994l1.57001,6.28998-13.78998,3.66998-13.78998-3.66998ZM41.72998,26.51852c-2.22998,2.82996-5.82001,4.56-9.72998,4.56s-7.5-1.73004-9.72998-4.56l9.46997,2.52997c.09003.02002.16998.03003.26001.03003s.16998-.01001.26001-.03003l9.46997-2.52997ZM17.65002,37.85849c-1.22003.52002-2.64001,0-3.24005-1.19-.60999-1.21997-.14996-2.67999,1.05005-3.33997l.03998-.02002,2.25,4.5-.09998.04999ZM19.59003,37.01852l-2.34003-4.67004,5.15997-2.81c.18005.16003.35004.31.54004.45001-.98999,2.09003-1.73999,4.29004-2.23004,6.54999l-1.12994.48004ZM27.12,53.34848c-.2401,1.12541-1.40591,1.81711-2.51001,1.49005-.97998-.29004-1.57996-1.31-1.37-2.31l1.54999-7.31c1.29004.28998,2.61005.5,3.92999.62994,0,0-1.59654,7.48389-1.59998,7.5ZM39.39001,54.83853c-1.09668.32458-2.28437-.36161-2.51001-1.49005l-1.59998-7.5c1.31995-.12994,2.63995-.33997,3.92999-.62994l1.54999,7.31c.20995.99997-.38997,2.01989-1.37,2.31ZM22.01001,42.3685c.09998-3.87,1-7.71997,2.62-11.25,2.16998,1.25,4.71002,1.96002,7.37,1.96002s5.20001-.71002,7.37-1.96002c1.62,3.53003,2.52002,7.38,2.62,11.25-6.47998,2.19-13.5,2.19-19.97998,0ZM44.40997,37.01852l-1.12994-.48004c-.49005-2.25995-1.24005-4.45996-2.23004-6.54999.19-.14001.35999-.28998.54004-.45001l5.15997,2.81-2.34003,4.67004ZM49.59003,36.66849c-.60004,1.19-2.02002,1.71002-3.24005,1.19l-.09998-.04999,2.25-4.5.03998.02002c1.20001.65997,1.66003,2.12,1.05005,3.33997Z"/>
  <path d="M33,24.07852v-4c0-.55273-.44775-1-1-1s-1,.44727-1,1v4c0,.55273.44775,1,1,1s1-.44727,1-1Z"/>
  <path d="M26,19.07852c-.55225,0-1,.44727-1,1v3c0,.55273.44775,1,1,1s1-.44727,1-1v-3c0-.55273-.44775-1-1-1Z"/>
  <path d="M38,24.07852c.55225,0,1-.44727,1-1v-3c0-.55273-.44775-1-1-1s-1,.44727-1,1v3c0,.55273.44775,1,1,1Z"/>
</svg>