<?xml version="1.0" encoding="UTF-8"?>
<svg id="Outline" xmlns="http://www.w3.org/2000/svg" version="1.1" viewBox="0 0 64 64">
  <!-- Generator: Adobe Illustrator 29.5.1, SVG Export Plug-In . SVG Version: 2.1.0 Build 141)  -->
  <path d="M37,48.967c-1.654,0-3,1.346-3,3s1.346,3,3,3,3-1.346,3-3-1.346-3-3-3ZM37,52.967c-.551,0-1-.449-1-1s.449-1,1-1,1,.449,1,1-.449,1-1,1Z"/>
  <path d="M54.37,9.137c-2.99-1.19-6.12-1.9-9.31-2.1-.54-.03-1.02.39-1.06.94-.03.55.39,1.02.94,1.06,2.75.17,5.46.75,8.06,1.72v1.88c-6.3-2.18-13.18-2.23-19.53-.11l-3.57,1.19c-6.15,2.05-12.83,1.91-18.9-.36v-1.85c6.3,2.18,13.23,2.22,19.54.11l3.56-1.19c2.21-.75,4.56-1.21,6.97-1.39.55-.04.97-.52.93-1.07s-.52-.98-1.07-.93c-2.58.19-5.09.69-7.47,1.49l-3.56,1.19c-6.32,2.12-13.29,1.92-19.53-.58-.31-.12-.66-.08-.93.1-.28.19-.44.5-.44.83v24c0,.41.25.78.63.93,3.6,1.44,7.46,2.18,11.33,2.18.8,0,1.61-.04,2.41-.11.35.64.56,1.35.6,2.09-1.15.43-1.97,1.52-1.97,2.81v3.18c-1.16.42-2,1.52-2,2.82v8c0,.55.45,1,1,1s1-.45,1-1v-8c0-.55.45-1,1-1h18c.55,0,1,.45,1,1v8c0,.55.45,1,1,1s1-.45,1-1v-8c0-1.3-.84-2.4-2-2.82v-3.18c0-1.3-.84-2.4-2-2.82v-2.02l1.37-4.1c4.16-.25,8.389.42,12.259,1.97.647.259,1.371-.237,1.371-.93V10.067c0-.41-.25-.78-.63-.93ZM11,19.507c3.19,1.1,6.55,1.67,9.92,1.67,1.03,0,2.06-.08,3.08-.18v1.99c-4.39.48-8.85-.07-13-1.62v-1.86ZM11,23.507c3.19,1.1,6.55,1.67,9.92,1.67.51,0,1.01-.03,1.51-.06l-.37.38c-.5.5-.92,1.06-1.24,1.67-3.36-.01-6.67-.62-9.82-1.79v-1.87ZM11,27.507c2.94,1.02,6,1.57,9.12,1.65-.08.43-.12.86-.12,1.31,0,.23.01.46.03.69-3.08-.09-6.11-.69-9.03-1.78v-1.87ZM11,33.387v-1.88c3.08,1.07,6.28,1.62,9.53,1.65.3.73.73,1.4,1.27,2-3.67.11-7.35-.49-10.8-1.77ZM40,30.807l-.31.93c-.01.01-.01.03-.01.04l-1.63,4.87c-.03.11-.05.21-.05.32v2h-6c-.55,0-1,.45-1,1s.45,1,1,1h7c.55,0,1,.45,1,1v3h-16v-3c0-.55.45-1,1-1h3c.55,0,1-.45,1-1s-.45-1-1-1h-2.02c-.12-1.69-.83-3.26-2.04-4.47l-.47-.47c-.95-.95-1.47-2.21-1.47-3.56,0-.66.13-1.31.37-1.9.01-.02.02-.03.02-.05.25-.59.62-1.14,1.08-1.61l.53-.53v3.59c0,.55.45,1,1,1s1-.45,1-1v-10c0-.55.45-1,1-1s1,.45,1,1v8c0,.55.45,1,1,1s1-.45,1-1v-8c0-.55.45-1,1-1s1,.45,1,1v8c0,.55.45,1,1,1s1-.45,1-1v-8c0-.55.45-1,1-1s1,.45,1,1v8c0,.55.45,1,1,1s1-.45,1-1v-5c0-.55.45-1,1-1s1,.45,1,1v7.84ZM53,32.627c-3.52-1.21-7.28-1.77-11-1.64v-1.99c3.73-.14,7.5.47,11,1.77v1.86ZM53,28.637c-3.53-1.21-7.28-1.77-11-1.64v-2c3.73-.14,7.5.47,11,1.77v1.87ZM53,24.637c-3.53-1.21-7.28-1.77-11-1.64v-.03c0-.74-.28-1.41-.73-1.94,3.98-.25,7.96.34,11.73,1.74v1.87ZM53,20.647c-4.85-1.67-10-2.09-15.05-1.22-.13-.71-.52-1.32-1.05-1.76,5.34-1.19,10.94-.81,16.1,1.11v1.87ZM53,16.627c-6.31-2.17-13.19-2.21-19.54-.1l-1.67.56c-.25-.07-.51-.12-.79-.12-.77,0-1.47.3-2,.78-.53-.48-1.23-.78-2-.78-1.3,0-2.4.84-2.82,2-4.45.52-8.98-.03-13.18-1.6v-1.86c3.21,1.11,6.56,1.66,9.92,1.66,3.25,0,6.49-.51,9.61-1.55l3.57-1.19c6.15-2.06,12.83-1.91,18.9.35v1.85Z"/>
</svg>