<?xml version="1.0" encoding="UTF-8"?>
<svg id="Outline" xmlns="http://www.w3.org/2000/svg" version="1.1" viewBox="0 0 64 64">
  <!-- Generator: Adobe Illustrator 29.3.1, SVG Export Plug-In . SVG Version: 2.1.0 Build 151)  -->
  <path d="M54,7H10c-1.65002,0-3,1.34998-3,3v44c0,1.64996,1.34998,3,3,3h44c1.65002,0,3-1.35004,3-3V10c0-1.65002-1.34998-3-3-3ZM21.71997,9h3.89001l-1.32996,4h-3.89001l1.32996-4ZM15.71997,9h3.89001l-1.32996,4h-3.89001l1.32996-4ZM9,10c0-.54999.45001-1,1-1h3.60999l-1.32996,4h-3.28003v-3ZM55,54c0,.54999-.45001,1-1,1H10c-.54999,0-1-.45001-1-1V15h46v39ZM55,13h-28.60999l1.32996-4h26.28003c.54999,0,1,.45001,1,1v3Z"/>
  <path d="M16,29c.55225,0,1-.44727,1-1v-1h2v1c0,.55273.44775,1,1,1s1-.44727,1-1v-4c0-1.6543-1.3457-3-3-3s-3,1.3457-3,3v4c0,.55273.44775,1,1,1ZM18,23c.55127,0,1,.44824,1,1v1h-2v-1c0-.55176.44873-1,1-1Z"/>
  <path d="M24,29h1c2.20557,0,4-1.79395,4-4s-1.79443-4-4-4h-1c-.55225,0-1,.44727-1,1v6c0,.55273.44775,1,1,1ZM25,23c1.10303,0,2,.89746,2,2s-.89697,2-2,2v-4Z"/>
  <path d="M30,17H14c-1.6543,0-3,1.3457-3,3v30c0,1.6543,1.3457,3,3,3h16c1.6543,0,3-1.3457,3-3v-30c0-1.6543-1.3457-3-3-3ZM14,19h16c.55127,0,1,.44824,1,1v16.58594l-5.29297-5.29297c-.39062-.39062-1.02344-.39062-1.41406,0l-4.29297,4.29297-2.29297-2.29297c-.39062-.39062-1.02344-.39062-1.41406,0l-3.29297,3.29297v-16.58594c0-.55176.44873-1,1-1ZM30,51H14c-.55127,0-1-.44824-1-1v-10.58594l4-4,2.29297,2.29297c.39062.39062,1.02344.39062,1.41406,0l4.29297-4.29297,6,6v10.58594c0,.55176-.44873,1-1,1Z"/>
  <path d="M52,17h-4c-.01001,0-.03003.01001-.03998.01001-.10004,0-.20001.01996-.30005.06-.02997.00995-.04999.00995-.06995.01996-.01001.01001-.03003.01001-.04004.02002l-7.78998,3.89001h-3.76001c-.54999,0-1,.45001-1,1v8c0,.54999.45001,1,1,1h3v5c0,.54999.45001,1,1,1h4c.54999,0,1-.45001,1-1v-2.38l2.54999,1.27002c.01001.00995.02002.00995.03003.00995.13.06.26996.10004.41998.10004h4c.54999,0,1-.45001,1-1v-16c0-.54999-.45001-1-1-1ZM39,29h-2v-6h2v6ZM43,35h-2v-3.38l2,1v2.38ZM47,32.38l-6-3v-6.76001l6-3v12.76001ZM51,33h-2v-14h2v14Z"/>
  <path d="M52,39h-16c-.55225,0-1,.44727-1,1s.44775,1,1,1h16c.55225,0,1-.44727,1-1s-.44775-1-1-1Z"/>
  <path d="M36,45h8c.55225,0,1-.44727,1-1s-.44775-1-1-1h-8c-.55225,0-1,.44727-1,1s.44775,1,1,1Z"/>
  <path d="M52,47h-16c-.55225,0-1,.44727-1,1s.44775,1,1,1h16c.55225,0,1-.44727,1-1s-.44775-1-1-1Z"/>
</svg>