<?xml version="1.0" encoding="UTF-8"?>
<svg id="Outline" xmlns="http://www.w3.org/2000/svg" version="1.1" viewBox="0 0 64 64">
  <!-- Generator: Adobe Illustrator 29.3.1, SVG Export Plug-In . SVG Version: 2.1.0 Build 151)  -->
  <path d="M54.42432,51.76394l-3.89502-.55664c-.41504-.05859-.75195-.375-.8374-.78516l-.39844-1.90552c1.39471-1.08789,2.37225-2.68713,2.63525-4.51733h.07129c.88135,0,1.71436-.38477,2.28564-1.05664s.81689-1.56055.67383-2.44043c-.10913-.66986-.46356-1.25659-.95947-1.69684v-3.80609c0-3.30859-2.69141-6-6-6h-5c-1.89697,0-3.48926,1.32715-3.89844,3.10156-1.77441.40918-3.10156,2.00195-3.10156,3.89844v2.80627c-.49591.44031-.85034,1.02728-.95947,1.69763-.14307.87891.10254,1.76758.67383,2.43945s1.4043,1.05664,2.28564,1.05664h.07129c.263,1.8302,1.24054,3.42944,2.63525,4.51733l-.39844,1.90552c-.08545.41016-.42236.72656-.8374.78516l-3.89453.55664c-1.46875.20996-2.57617,1.48633-2.57617,2.96973v1.26562c0,.55273.44775,1,1,1s1-.44727,1-1v-1.26562c0-.49414.36914-.91992.85889-.98926l3.89502-.55664c1.24463-.17871,2.25439-1.125,2.51221-2.35547l.26825-1.2829c.7674.28986,1.59802.44989,2.46564.44989s1.69824-.16003,2.46564-.44989l.26825,1.2829c.25781,1.23047,1.26758,2.17676,2.51221,2.35547l3.89551.55664c.48926.06934.8584.49512.8584.98926v1.26562c0,.55273.44775,1,1,1s1-.44727,1-1v-1.26562c0-1.4834-1.10742-2.75977-2.57568-2.96973ZM38,35.9993c0-1.10254.89697-2,2-2,.55225,0,1-.44727,1-1,0-1.10254.89697-2,2-2h5c2.20557,0,4,1.79395,4,4v3.0094c-.03613-.00122-.07056-.0094-.10693-.0094h-1.06445c-.4126-1.16406-1.5249-2-2.82861-2h-6c-1.30371,0-2.41602.83594-2.82861,2h-1.06445c-.03638,0-.0708.00818-.10693.0094v-2.0094ZM40,42.9993c0-.55273-.44775-1-1-1,0,0-1,0-1.00012,0-.62009-.00008-1.08291-.57217-.98572-1.1748.07568-.46289.55566-.8252,1.09277-.8252h1.89307c.55225,0,1-.44727,1-1,0-.55176.44873-1,1-1h6c.55127,0,1,.44824,1,1,0,.55273.44775,1,1,1h1.89307c.53697,0,1.01684.36212,1.09272.82386.09969.60669-.36804,1.17613-.98578,1.17614h-1c-.55225,0-1,.44727-1,1,0,2.75684-2.24316,5-5,5s-5-2.24316-5-5Z"/>
  <path d="M28.42432,51.76394l-3.89502-.55664c-.41504-.05859-.75195-.375-.8374-.78516l-.39844-1.90552c1.39471-1.08789,2.37225-2.68713,2.63525-4.51733h.07129c.88135,0,1.71436-.38477,2.28564-1.05664s.81689-1.56055.67383-2.44043c-.10913-.66986-.46356-1.25659-.95947-1.69684v-2.80609c0-1.89648-1.32715-3.48926-3.10156-3.89844-.40918-1.77441-2.00146-3.10156-3.89844-3.10156h-5c-3.30859,0-6,2.69141-6,6v3.80627c-.49591.44031-.85034,1.02728-.95947,1.69763-.14307.87891.10254,1.76758.67383,2.43945s1.4043,1.05664,2.28564,1.05664h.07129c.263,1.8302,1.24054,3.42944,2.63525,4.51733l-.39844,1.90552c-.08545.41016-.42236.72656-.8374.78516l-3.89453.55664c-1.46875.20996-2.57617,1.48633-2.57617,2.96973v1.26562c0,.55273.44775,1,1,1s1-.44727,1-1v-1.26562c0-.49414.36914-.91992.85889-.98926l3.89502-.55664c1.24463-.17871,2.25439-1.125,2.51221-2.35547l.26825-1.2829c.7674.28986,1.59802.44989,2.46564.44989s1.69824-.16003,2.46564-.44989l.26825,1.2829c.25781,1.23047,1.26758,2.17676,2.51221,2.35547l3.89551.55664c.48926.06934.8584.49512.8584.98926v1.26562c0,.55273.44775,1,1,1s1-.44727,1-1v-1.26562c0-1.4834-1.10742-2.75977-2.57568-2.96973ZM12,34.9993c0-2.20605,1.79443-4,4-4h5c1.10303,0,2,.89746,2,2,0,.55273.44775,1,1,1,1.10303,0,2,.89746,2,2v2.0094c-.03613-.00122-.07056-.0094-.10693-.0094h-1.06445c-.4126-1.16406-1.5249-2-2.82861-2h-6c-1.30371,0-2.41602.83594-2.82861,2h-1.06445c-.03638,0-.0708.00818-.10693.0094v-3.0094ZM14,42.9993c0-.55273-.44775-1-1-1h-1c-.62125,0-1.08357-.56891-.98584-1.1748.07568-.46289.55566-.8252,1.09277-.8252h1.89307c.55225,0,1-.44727,1-1,0-.55176.44873-1,1-1h6c.55127,0,1,.44824,1,1,0,.55273.44775,1,1,1h1.89307c.537,0,1.01689.36216,1.09273.82393.09462.57618-.34945,1.17606-.98579,1.17607h-1c-.55225,0-1,.44727-1,1,0,2.75684-2.24316,5-5,5s-5-2.24316-5-5Z"/>
  <path d="M36,9.13931v-1.14001c0-.33002-.15997-.64001-.44-.83002-.27002-.17999-.62-.21997-.92999-.09998l-4.82001,1.92999h-3.81c-.54999,0-1,.45001-1,1v6c0,.54999.45001,1,1,1h1v1c0,.54999.45001,1,1,1s1-.45001,1-1v-1h.81l4.82001,1.92999c.12.04999.23999.07001.37015.07001.54818-.00009.99985-.44847.99985-1v-1.14001c1.71997-.45001,3-2,3-3.85999s-1.28003-3.41003-3-3.85999ZM29,14.9993h-2v-4h2v4ZM34,16.51925l-3-1.19995v-4.64001l3-1.20001v7.03998ZM36,14.71927v-3.44c.59003.35004,1,.98004,1,1.72003s-.40997,1.37-1,1.71997Z"/>
  <path d="M32,25.1116c.57001,1.10938,1.37708,2.09296,2.3634,2.8877h-.3634c-.55225,0-1,.44727-1,1s.44775,1,1,1h3c.55225,0,1-.44727,1-1v-3c0-.55273-.44775-1-1-1s-1,.44727-1,1v.75037l-.19971-.14978c-1.75342-1.31543-2.80029-3.4082-2.80029-5.60059,0-.55273-.44775-1-1-1s-1,.44727-1,1c0,2.19238-1.04688,4.28516-2.7998,5.60059l-.2002.15009v-.75067c0-.55273-.44775-1-1-1s-1,.44727-1,1v3c0,.55273.44775,1,1,1h3c.55225,0,1-.44727,1-1s-.44775-1-1-1h-.36298c.98602-.79474,1.79297-1.77832,2.36298-2.8877Z"/>
</svg>