<?xml version="1.0" encoding="UTF-8"?>
<svg id="Outline" xmlns="http://www.w3.org/2000/svg" version="1.1" viewBox="0 0 64 64">
  <!-- Generator: Adobe Illustrator 29.3.1, SVG Export Plug-In . SVG Version: 2.1.0 Build 151)  -->
  <path d="M54.4248,51.76465l-3.89551-.55664c-.41504-.05859-.75195-.375-.83789-.78516l-.39862-1.90485c1.39526-1.08795,2.37311-2.68744,2.63593-4.51801h.07129c.88184,0,1.71484-.38574,2.28613-1.05762s.81641-1.56055.67383-2.43945c-.10913-.66986-.46381-1.25671-.95996-1.6969v-3.80603c0-3.30859-2.69141-6-6-6h-5c-1.89648,0-3.48926,1.32715-3.89844,3.10156-1.77441.40918-3.10156,2.00195-3.10156,3.89844v2.80603c-.49615.44019-.85083,1.02704-.95996,1.6969-.14258.87891.10254,1.76758.67383,2.43945s1.4043,1.05762,2.28613,1.05762h.07129c.26282,1.83057,1.24066,3.43005,2.63593,4.51801l-.39862,1.90485c-.08594.41016-.42285.72656-.83789.78516l-3.89551.55664c-1.46777.20996-2.5752,1.48633-2.5752,2.96973v1.26562c0,.55273.44727,1,1,1s1-.44727,1-1v-1.26562c0-.49414.36914-.91992.8584-.98926l3.89551-.55664c1.24414-.17871,2.25391-1.125,2.51172-2.35547l.26849-1.28296c.76746.28986,1.59821.44995,2.46588.44995s1.69843-.1601,2.46588-.44995l.26849,1.28296c.25781,1.23047,1.26758,2.17676,2.51172,2.35547l3.89551.55664c.48926.06934.8584.49512.8584.98926v1.26562c0,.55273.44727,1,1,1s1-.44727,1-1v-1.26562c0-1.4834-1.10742-2.75977-2.5752-2.96973ZM38,36c0-1.10254.89746-2,2-2,.55273,0,1-.44727,1-1,0-1.10254.89746-2,2-2h5c2.20605,0,4,1.79395,4,4v3.00946c-.03625-.00122-.07092-.00946-.10742-.00946h-1.06348c-.41309-1.16406-1.52539-2-2.8291-2h-6c-1.30371,0-2.41602.83594-2.8291,2h-1.06348c-.0365,0-.07117.00824-.10742.00946v-2.00946ZM40,43c0-.55273-.44727-1-1-1h-1c-.62048,0-1.0854-.56667-.98535-1.1748.0752-.46289.55469-.8252,1.09277-.8252h1.89258c.55273,0,1-.44727,1-1,0-.55176.44824-1,1-1h6c.55176,0,1,.44824,1,1,0,.55273.44727,1,1,1h1.89258c.53797,0,1.01737.36214,1.09272.82489.094.57721-.3598,1.17511-.9853,1.17511h-1c-.55273,0-1,.44727-1,1,0,2.75684-2.24316,5-5,5s-5-2.24316-5-5Z"/>
  <path d="M28.4248,51.76465l-3.89551-.55664c-.41504-.05859-.75195-.375-.83789-.78516l-.39862-1.90485c1.39526-1.08795,2.37311-2.68744,2.63593-4.51801h.07129c.88184,0,1.71484-.38574,2.28613-1.05762s.81641-1.56055.67383-2.43945c-.10913-.66986-.46381-1.25671-.95996-1.6969v-2.80603c0-1.89648-1.32715-3.48926-3.10156-3.89844-.40918-1.77441-2.00195-3.10156-3.89844-3.10156h-5c-3.30859,0-6,2.69141-6,6v3.80603c-.49615.44019-.85083,1.02704-.95996,1.6969-.14258.87891.10254,1.76758.67383,2.43945s1.4043,1.05762,2.28613,1.05762h.07129c.26282,1.83057,1.24066,3.43005,2.63593,4.51801l-.39862,1.90485c-.08594.41016-.42285.72656-.83789.78516l-3.89551.55664c-1.46777.20996-2.5752,1.48633-2.5752,2.96973v1.26562c0,.55273.44727,1,1,1s1-.44727,1-1v-1.26562c0-.49414.36914-.91992.8584-.98926l3.89551-.55664c1.24414-.17871,2.25391-1.125,2.51172-2.35547l.26849-1.28296c.76746.28986,1.59821.44995,2.46588.44995s1.69843-.1601,2.46588-.44995l.26849,1.28296c.25781,1.23047,1.26758,2.17676,2.51172,2.35547l3.89551.55664c.48926.06934.8584.49512.8584.98926v1.26562c0,.55273.44727,1,1,1s1-.44727,1-1v-1.26562c0-1.4834-1.10742-2.75977-2.5752-2.96973ZM12,35c0-2.20605,1.79395-4,4-4h5c1.10254,0,2,.89746,2,2,0,.55273.44727,1,1,1,1.10254,0,2,.89746,2,2v2.00946c-.03625-.00122-.07092-.00946-.10742-.00946h-1.06348c-.41309-1.16406-1.52539-2-2.8291-2h-6c-1.30371,0-2.41602.83594-2.8291,2h-1.06348c-.0365,0-.07117.00824-.10742.00946v-3.00946ZM14,43c0-.55273-.44727-1-1-1h-1c-.62127,0-1.08496-.56935-.98535-1.1748.0752-.46289.55469-.8252,1.09277-.8252h1.89258c.55273,0,1-.44727,1-1,0-.55176.44824-1,1-1h6c.55176,0,1,.44824,1,1,0,.55273.44727,1,1,1h1.89258c.53798,0,1.01739.36216,1.09273.82492.09904.60833-.36358,1.17508-.98531,1.17508h-1c-.55273,0-1,.44727-1,1,0,2.75684-2.24316,5-5,5s-5-2.24316-5-5Z"/>
  <path d="M32,24.66699c.56012,1.30719,1.36206,2.49194,2.37604,3.33301h-.37604c-.55273,0-1,.44727-1,1s.44727,1,1,1h3c.55273,0,1-.44727,1-1v-3c0-.55273-.44727-1-1-1s-1,.44727-1,1v.75067l-.2002-.15009c-1.75195-1.31445-2.7998-4.38867-2.7998-6.60059,0-.55273-.44727-1-1-1s-1,.44727-1,1c0,2.21191-1.04785,5.28613-2.7998,6.60059l-.2002.15009v-.75067c0-.55273-.44727-1-1-1s-1,.44727-1,1v3c0,.55273.44727,1,1,1h3c.55273,0,1-.44727,1-1s-.44727-1-1-1h-.37604c1.01398-.84106,1.81592-2.02582,2.37604-3.33301Z"/>
  <path d="M27,17h3c.55273,0,1-.44727,1-1s-.44727-1-1-1h-3c-1.6543,0-3-1.3457-3-3,0-.79492.31348-1.55078.87207-2.11816.57715-.56836,1.33301-.88184,2.12793-.88184h3c.55273,0,1-.44727,1-1s-.44727-1-1-1h-3c-1.32324,0-2.57812.51758-3.54199,1.46777-.94043.9541-1.45801,2.20898-1.45801,3.53223,0,2.75684,2.24316,5,5,5Z"/>
  <path d="M34,9h3c1.6543,0,3,1.3457,3,3,0,.79492-.31348,1.55078-.87207,2.11816-.57715.56836-1.33301.88184-2.12793.88184h-3c-.55273,0-1,.44727-1,1s.44727,1,1,1h3c1.32324,0,2.57812-.51758,3.54199-1.46777.94043-.9541,1.45801-2.20898,1.45801-3.53223,0-2.75684-2.24316-5-5-5h-3c-.55273,0-1,.44727-1,1s.44727,1,1,1Z"/>
  <path d="M36,12c0-.55273-.44727-1-1-1h-6c-.55273,0-1,.44727-1,1s.44727,1,1,1h6c.55273,0,1-.44727,1-1Z"/>
</svg>