<?xml version="1.0" encoding="UTF-8"?>
<svg id="Outline" xmlns="http://www.w3.org/2000/svg" version="1.1" viewBox="0 0 64 64">
  <!-- Generator: Adobe Illustrator 29.3.1, SVG Export Plug-In . SVG Version: 2.1.0 Build 151)  -->
  <path d="M50.10999,20.13l-.95001-10.40002c-.13995-1.56-1.41998-2.72998-2.98999-2.72998h-28.33997c-1.57001,0-2.85004,1.16998-2.98999,2.72998l-.95001,10.40002c-.59003,6.54999-.59003,13.19,0,19.73999l.95001,10.39996c.13995,1.56,1.41998,2.73004,2.98999,2.73004h.16998v3c0,.54999.45001,1,1,1h6c.54999,0,1-.45001,1-1v-3h12v3c0,.54999.45001,1,1,1h6c.54999,0,1-.45001,1-1v-3h.16998c1.57001,0,2.85004-1.17004,2.98999-2.73004l.95001-10.39996c.59003-6.54999.59003-13.19,0-19.73999ZM42.87,9l-.62,4.95001c-.65002,5.15997-5.04999,9.04999-10.25,9.04999s-9.59998-3.89001-10.25-9.04999l-.62-4.95001h21.73999ZM15.88,20.31l.95001-10.40002c.04999-.51996.47998-.90997,1-.90997h1.28998l.65002,5.20001c.76996,6.15997,6.02997,10.79999,12.22998,10.79999s11.46002-4.64001,12.22998-10.79999l.65002-5.20001h1.28998c.52002,0,.95001.39001,1,.90997l.95001,10.40002c.20001,2.21997.29999,4.45996.37,6.69H15.51001c.07001-2.23004.16998-4.47003.37-6.69ZM34,29v12c0,1.09998-.90002,2-2,2s-2-.90002-2-2v-12h4ZM24,55h-4v-2h4v2ZM44,55h-4v-2h4v2ZM48.12,39.69l-.95001,10.39996c-.04999.52002-.47998.91003-1,.91003h-28.33997c-.52002,0-.95001-.39001-1-.91003l-.95001-10.39996c-.32001-3.54999-.44-7.12-.41003-10.69h3.53003v19c0,.54999.45001,1,1,1h24c.54999,0,1-.45001,1-1v-5c0-.54999-.45001-1-1-1s-1,.45001-1,1v4h-22v-18h7v12c0,2.20996,1.78998,4,4,4s4-1.79004,4-4v-12h7v6c0,.54999.45001,1,1,1s1-.45001,1-1v-6h3.53003c.02997,3.57001-.09003,7.14001-.41003,10.69Z"/>
  <path d="M32,21c2.75684,0,5-2.24316,5-5s-2.24316-5-5-5-5,2.24316-5,5,2.24316,5,5,5ZM32,13c1.6543,0,3,1.3457,3,3s-1.3457,3-3,3-3-1.3457-3-3,1.3457-3,3-3Z"/>
  <circle cx="44" cy="39" r="1"/>
</svg>