<?xml version="1.0" encoding="UTF-8"?>
<svg id="Outline" xmlns="http://www.w3.org/2000/svg" version="1.1" viewBox="0 0 64 64">
  <!-- Generator: Adobe Illustrator 29.5.1, SVG Export Plug-In . SVG Version: 2.1.0 Build 141)  -->
  <path d="M27,37.184v-1.184c0-.553-.447-1-1-1s-1,.447-1,1v1.184c-1.161.414-2,1.514-2,2.816,0,1.654,1.346,3,3,3s3-1.346,3-3c0-1.302-.839-2.402-2-2.816ZM26,41c-.552,0-1-.448-1-1s.448-1,1-1,1,.448,1,1-.448,1-1,1Z"/>
  <path d="M13.987,26.573c-.391-.391-1.023-.391-1.414,0-3.594,3.593-5.573,8.361-5.573,13.427,0,.553.447,1,1,1s1-.447,1-1c0-4.531,1.771-8.798,4.987-12.013.391-.391.391-1.023,0-1.414Z"/>
  <path d="M38.013,26.573c-.391.391-.391,1.023,0,1.414,3.216,3.215,4.987,7.481,4.987,12.013,0,.553.447,1,1,1s1-.447,1-1c0-5.065-1.979-9.834-5.573-13.427-.391-.391-1.023-.391-1.414,0Z"/>
  <path d="M37.76,49.28c2.02-2.55,3.24-5.77,3.24-9.28,0-3.26-1.03-6.36-2.99-8.98-.33-.44-.96-.53-1.4-.2-.44.33-.53.96-.2,1.4,1.69,2.27,2.59,4.96,2.59,7.78,0,7.17-5.83,13-13,13s-13-5.83-13-13,5.83-13,13-13c2.82,0,5.51.9,7.78,2.59.44.33,1.07.24,1.4-.2.33-.44.24-1.07-.2-1.4-1.52-1.13-3.2-1.95-4.98-2.44v-2.55h1c.55,0,1-.45,1-1s-.45-1-1-1h-10c-.55,0-1,.45-1,1s.45,1,1,1h1v2.56c-6.33,1.75-11,7.56-11,14.44,0,3.51,1.22,6.73,3.24,9.28l-3.13,6.27c-.16.31-.14.68.04.98.18.29.5.47.85.47h6c.38,0,.72-.21.89-.55l1.31-2.62c1.79.75,3.75,1.17,5.8,1.17s4.01-.42,5.8-1.17l1.31,2.62c.17.34.51.55.89.55h6c.35,0,.67-.18.85-.47.18-.3.2-.67.04-.98l-3.13-6.27ZM24,23h4v2.14c-.66-.09-1.32-.14-2-.14s-1.34.06-2,.15v-2.15ZM17.38,55h-3.76l2.07-4.14c.82.79,1.74,1.48,2.73,2.06l-1.04,2.08ZM34.62,55l-1.04-2.08c.99-.58,1.91-1.27,2.73-2.06l2.07,4.14h-3.76Z"/>
  <path d="M26,29c-6.065,0-11,4.935-11,11s4.935,11,11,11,11-4.935,11-11-4.935-11-11-11ZM34,41h.941c-.193,1.733-.88,3.316-1.916,4.611l-.661-.661c-.391-.391-1.023-.391-1.414,0s-.391,1.023,0,1.414l.661.661c-1.295,1.036-2.878,1.723-4.611,1.916v-.941c0-.553-.447-1-1-1s-1,.447-1,1v.941c-1.733-.193-3.316-.88-4.611-1.916l.661-.661c.391-.391.391-1.023,0-1.414s-1.023-.391-1.414,0l-.661.661c-1.036-1.295-1.723-2.878-1.916-4.611h.941c.553,0,1-.447,1-1s-.447-1-1-1h-.941c.193-1.733.88-3.316,1.916-4.611l.661.661c.369.369,1.017.397,1.414,0,.391-.391.391-1.023,0-1.414l-.661-.661c1.295-1.036,2.878-1.723,4.611-1.916v.941c0,.553.447,1,1,1s1-.447,1-1v-.941c1.733.193,3.316.88,4.611,1.916l-.661.661c-.391.391-.391,1.023,0,1.414.368.368,1.019.395,1.414,0l.661-.661c1.036,1.295,1.723,2.878,1.916,4.611h-.941c-.553,0-1,.447-1,1s.447,1,1,1Z"/>
  <path d="M56.833,23.447c-1.199-1.809-1.833-3.903-1.833-6.058v-.39c0-.553-.447-1-1-1s-1,.447-1,1v.39c0,1.952.439,3.862,1.282,5.61h-12.564c.843-1.748,1.282-3.658,1.282-5.61v-3.39c0-1.341.52-2.595,1.47-3.536.936-.944,2.189-1.464,3.53-1.464,2.454,0,4.524,1.751,4.924,4.163.09.544.606.918,1.149.823.545-.09.914-.604.823-1.149-.56-3.382-3.46-5.837-6.896-5.837-1.879,0-3.637.73-4.944,2.05-1.325,1.313-2.056,3.071-2.056,4.95v3.39c0,2.154-.634,4.249-1.833,6.058-.204.307-.223.701-.048,1.025.174.325.513.527.881.527h3.101c.465,2.279,2.484,4,4.899,4s4.434-1.721,4.899-4h3.101c.368,0,.707-.202.881-.527.175-.324.156-.719-.048-1.025ZM48,27c-1.302,0-2.402-.839-2.816-2h5.631c-.414,1.161-1.514,2-2.816,2Z"/>
</svg>