<?xml version="1.0" encoding="UTF-8"?>
<svg id="Outline" xmlns="http://www.w3.org/2000/svg" version="1.1" viewBox="0 0 64 64">
  <!-- Generator: Adobe Illustrator 29.5.1, SVG Export Plug-In . SVG Version: 2.1.0 Build 141)  -->
  <path d="M41.001,25c-2.92,0-5.64.8-8,2.16v-2.16c0-3.21-1.25-6.22-3.51-8.49-1.5-1.5-3.34-2.54-5.33-3.08.52-.68.84-1.51.84-2.43,0-2.21-1.79-4-4-4s-4,1.79-4,4c0,.92.32,1.76.85,2.43-5.09,1.39-8.85,6.04-8.85,11.57v5.39c0,2.15-.63,4.25-1.83,6.06-.21.3-.23.7-.05,1.02.17.33.51.53.88.53h8.1c.47,2.28,2.49,4,4.9,4,1.67,0,3.15-.83,4.06-2.1-.03.37-.06.73-.06,1.1,0,8.82,7.18,16,16,16s16-7.18,16-16-7.18-16-16-16ZM21.001,9c1.1,0,2,.9,2,2s-.9,2-2,2-2-.9-2-2,.9-2,2-2ZM21.001,40c-1.3,0-2.4-.84-2.82-2h5.64c-.42,1.16-1.52,2-2.82,2ZM9.721,36c.84-1.75,1.28-3.66,1.28-5.61v-5.39c0-5.51,4.49-10,10-10,2.67,0,5.18,1.04,7.07,2.93s2.93,4.4,2.93,7.07v3.53c-2.39,1.92-4.21,4.5-5.19,7.47H9.721ZM51.571,50.15l-.67-.66c-.39-.4-1.02-.4-1.41,0-.4.39-.4,1.02,0,1.41l.66.67c-2.22,1.92-5.04,3.16-8.15,3.38v-2.95c0-.55-.45-1-1-1s-1,.45-1,1v2.95c-3.11-.22-5.93-1.46-8.15-3.38l.66-.67c.4-.39.4-1.02,0-1.41-.39-.4-1.02-.4-1.41,0l-.67.66c-1.92-2.22-3.16-5.04-3.38-8.15h2.95c.55,0,1-.45,1-1s-.45-1-1-1h-2.95c.22-3.11,1.46-5.93,3.38-8.15l.67.66c.39.384,1.026.404,1.41,0,.4-.39.4-1.02,0-1.41l-.66-.67c2.22-1.92,5.04-3.16,8.15-3.38v2.95c0,.55.45,1,1,1s1-.45,1-1v-2.95c3.11.22,5.93,1.46,8.15,3.38l-.66.67c-.4.39-.4,1.02,0,1.41.381.372,1.008.402,1.41,0l.67-.66c1.92,2.22,3.16,5.04,3.38,8.15h-2.95c-.55,0-1,.45-1,1s.45,1,1,1h2.95c-.22,3.11-1.46,5.93-3.38,8.15Z"/>
  <path d="M41.001,34c-.357,0-.72.03-1.104.092-1.039.163-2.002.557-2.846,1.135v-.591c0-.553-.447-1-1-1s-1,.447-1,1v2.829c0,.553.447,1,1,1h2.829c.553,0,1-.447,1-1,0-.536-.424-.965-.954-.991.406-.185.83-.336,1.283-.407.287-.046.539-.067.792-.067,2.602,0,4.791,2.026,4.983,4.614.039.525.478.926.996.926.024,0,.05,0,.075-.003.551-.041.964-.521.923-1.071-.27-3.626-3.334-6.466-6.978-6.466Z"/>
  <path d="M45.951,43.535h-2.829c-.553,0-1,.447-1,1,0,.536.424.965.954.991-.406.185-.83.336-1.283.407-.287.046-.539.067-.792.067-2.602,0-4.791-2.026-4.983-4.614-.041-.55-.51-.97-1.071-.923-.551.041-.964.521-.923,1.071.27,3.626,3.334,6.466,6.978,6.466.357,0,.72-.03,1.104-.092,1.039-.163,2.002-.557,2.846-1.135v.591c0,.553.447,1,1,1s1-.447,1-1v-2.829c0-.553-.447-1-1-1Z"/>
</svg>