<?xml version="1.0" encoding="UTF-8"?>
<svg id="Outline" xmlns="http://www.w3.org/2000/svg" version="1.1" viewBox="0 0 64 64">
  <!-- Generator: Adobe Illustrator 29.5.1, SVG Export Plug-In . SVG Version: 2.1.0 Build 141)  -->
  <path d="M32,38c.55,0,1-.45,1-1v-7.28c0-3.3-1.67-6.31-4.47-8.07-1.07-.67-1.97-1.62-2.58-2.72-.62-1.12-.95-2.38-.95-3.65v-7.28c0-.55-.45-1-1-1h-7c-.55,0-1,.45-1,1v6.99c0,2.72-1.48,5.24-3.89,6.58l-.22.13c-3.01,1.67-4.89,4.86-4.89,8.3v24c0,1.65,1.35,3,3,3h20c1.65,0,3-1.35,3-3v-9c0-.55-.45-1-1-1s-1,.45-1,1v6H9v-20h22v6c0,.55.45,1,1,1ZM31,53v1c0,.55-.45,1-1,1H10c-.55,0-1-.45-1-1v-1h22ZM18,9h5v2h-5v-2ZM9.07,29c.31-2.32,1.71-4.4,3.82-5.57l.22-.13c3.01-1.67,4.89-4.86,4.89-8.31v-1.99h5v2.28c0,1.6.41,3.2,1.2,4.62.78,1.4,1.91,2.59,3.27,3.45,2,1.25,3.26,3.33,3.48,5.65H9.07Z"/>
  <path d="M12,41c0,4.411,3.589,8,8,8s8-3.589,8-8-3.589-8-8-8-8,3.589-8,8ZM20,35c1.294,0,2.49.416,3.471,1.115l-8.356,8.356c-.699-.981-1.115-2.177-1.115-3.471,0-3.309,2.691-6,6-6ZM20,47c-1.294,0-2.49-.416-3.471-1.115l8.356-8.356c.699.981,1.115,2.177,1.115,3.471,0,3.309-2.691,6-6,6Z"/>
  <path d="M57,32c0-1.896-1.327-3.489-3.102-3.898-.447-1.939-2.365-3.346-4.427-3.065-.696-1.234-2.014-2.036-3.472-2.036-1.898,0-3.491,1.328-3.899,3.104-.385.091-.756.239-1.101.441-.607-.355-1.295-.546-2-.546-2.206,0-4,1.794-4,4,0,.923.316,1.8.878,2.5-.562.7-.878,1.577-.878,2.5,0,1.103.449,2.104,1.174,2.828l1.831,18.272c.051.511.481.9.995.9h14c.514,0,.944-.39.995-.9l1.721-17.181c.785-.731,1.284-1.764,1.284-2.919,0-.705-.19-1.394-.545-2,.355-.606.545-1.295.545-2ZM37.898,31.667c-.562-.373-.898-.996-.898-1.667,0-1.103.897-2,2-2,.621,0,1.066.283,1.331.521.38.342.958.342,1.338,0,.265-.238.71-.521,1.331-.521.552,0,1-.447,1-1,0-1.103.897-2,2-2,.894,0,1.683.609,1.919,1.48.075.276.264.507.519.634.256.129.553.142.818.033,1.331-.531,2.744.502,2.744,1.853,0,.553.448,1,1,1,1.103,0,2,.897,2,2,0,.485-.185.957-.521,1.331-.342.38-.342.958,0,1.338.336.374.521.846.521,1.331,0,1.103-.897,2-2,2-.621,0-1.066-.283-1.331-.521-.19-.171-.43-.257-.669-.257s-.479.086-.669.257c-.265.238-.71.521-1.331.521-.932,0-1.731-.637-1.942-1.548-.074-.317-.297-.579-.599-.701-.301-.122-.645-.089-.918.087-.164.106-.351.162-.536.162l-.134-.018c-.406-.053-.805.144-1.006.502-.361.643-1.376.639-1.734-.008-.158-.286-.445-.478-.77-.512-.327-.035-.646.092-.86.338-.391.449-.924.697-1.501.697-1.103,0-2-.897-2-2,0-.671.335-1.294.898-1.667.279-.185.447-.498.447-.833s-.168-.648-.447-.833ZM52.095,55h-12.19l-1.611-16.071c.23.041.464.071.706.071.77,0,1.517-.228,2.156-.643.519.409,1.165.643,1.844.643.86,0,1.67-.375,2.233-1.009.094-.008.188-.02.28-.036.69,1.243,2.004,2.045,3.487,2.045.705,0,1.393-.19,2-.546.607.355,1.295.546,2,.546.207,0,.405-.031.604-.061l-1.508,15.061Z"/>
  <circle cx="32" cy="41" r="1"/>
</svg>