<?xml version="1.0" encoding="UTF-8"?>
<svg id="Outline" xmlns="http://www.w3.org/2000/svg" version="1.1" viewBox="0 0 64 64">
  <!-- Generator: Adobe Illustrator 29.3.1, SVG Export Plug-In . SVG Version: 2.1.0 Build 151)  -->
  <path d="M54,7H10c-1.65002,0-3,1.34998-3,3v44c0,1.64996,1.34998,3,3,3h44c1.65002,0,3-1.35004,3-3V10c0-1.65002-1.34998-3-3-3ZM21.71997,9h3.89001l-1.32996,4h-3.89001l1.32996-4ZM15.71997,9h3.89001l-1.32996,4h-3.89001l1.32996-4ZM9,10c0-.54999.45001-1,1-1h3.60999l-1.32996,4h-3.28003v-3ZM55,54c0,.54999-.45001,1-1,1H10c-.54999,0-1-.45001-1-1V15h46v39ZM55,13h-28.60999l1.32996-4h26.28003c.54999,0,1,.45001,1,1v3Z"/>
  <path d="M23,17c-6.62,0-12,5.38-12,12s5.38,12,12,12,12-5.38,12-12-5.38-12-12-12ZM24,19.04999c2.97998.29999,5.58002,1.90997,7.20001,4.25l-7.20001,4v-8.25ZM23,39c-5.51001,0-10-4.48999-10-10,0-5.17999,3.95001-9.45001,9-9.95001v9.95001c0,.01996.01001.02997.01001.04999,0,.07001.02002.13.03998.19.01001.07001.03003.13.06.19.01001.02002.01001.03998.02002.06.03998.08002.09998.15002.15997.21997l7.03003,7.03003c-1.72003,1.40997-3.91998,2.26001-6.32001,2.26001ZM30.73999,35.32001l-6.09998-6.09003,7.53998-4.19c.53003,1.22003.82001,2.54999.82001,3.96002,0,2.39996-.84998,4.59998-2.26001,6.32001Z"/>
  <path d="M14,51h-2c-.55225,0-1,.44775-1,1s.44775,1,1,1h2c.55225,0,1-.44775,1-1s-.44775-1-1-1Z"/>
  <path d="M30,51h-12c-.55225,0-1,.44775-1,1s.44775,1,1,1h12c.55225,0,1-.44775,1-1s-.44775-1-1-1Z"/>
  <path d="M14,47h-2c-.55225,0-1,.44775-1,1s.44775,1,1,1h2c.55225,0,1-.44775,1-1s-.44775-1-1-1Z"/>
  <path d="M30,47h-12c-.55225,0-1,.44775-1,1s.44775,1,1,1h12c.55225,0,1-.44775,1-1s-.44775-1-1-1Z"/>
  <path d="M14,43h-2c-.55225,0-1,.44775-1,1s.44775,1,1,1h2c.55225,0,1-.44775,1-1s-.44775-1-1-1Z"/>
  <path d="M30,43h-12c-.55225,0-1,.44775-1,1s.44775,1,1,1h12c.55225,0,1-.44775,1-1s-.44775-1-1-1Z"/>
  <path d="M52,39h-1v-11c0-.54999-.45001-1-1-1h-4c-.54999,0-1,.45001-1,1v3h-3c-.54999,0-1,.45001-1,1v3h-3c-.54999,0-1,.45001-1,1v3h-1c-.54999,0-1,.45001-1,1s.45001,1,1,1h16c.54999,0,1-.45001,1-1s-.45001-1-1-1ZM41,39h-2v-2h2v2ZM45,39h-2v-6h2v6ZM49,39h-2v-10h2v10Z"/>
  <path d="M52,43h-18c-.55225,0-1,.44775-1,1v4c0,.55225.44775,1,1,1h18c.55225,0,1-.44775,1-1v-4c0-.55225-.44775-1-1-1ZM35,45h7v2h-7v-2ZM51,47h-7v-2h7v2Z"/>
</svg>