<?xml version="1.0" encoding="UTF-8"?>
<svg id="Outline" xmlns="http://www.w3.org/2000/svg" version="1.1" viewBox="0 0 64 64">
  <!-- Generator: Adobe Illustrator 29.5.1, SVG Export Plug-In . SVG Version: 2.1.0 Build 141)  -->
  <path d="M50,39v-23h1c0,1.65,1.35,3,3,3s3-1.35,3-3v-6c0-1.65-1.35-3-3-3s-3,1.35-3,3h-26c-.55,0-1,.45-1,1s.45,1,1,1h26v2H13v-2h4c.55,0,1-.45,1-1s-.45-1-1-1h-4c0-1.65-1.35-3-3-3s-3,1.35-3,3v6c0,1.65,1.35,3,3,3s3-1.35,3-3h1v3c0,.27.11.52.29.71l1.42,1.42-1.54,2.32c-.11.16-.17.35-.17.55v24h-1c0-1.65-1.35-3-3-3s-3,1.35-3,3v6c0,1.65,1.35,3,3,3s3-1.35,3-3h38c0,1.65,1.35,3,3,3s3-1.35,3-3v-6c0-1.65-1.35-3-3-3s-3,1.35-3,3h-1v-3c0-.2-.06-.39-.17-.55l-1.63-2.45,1.63-2.45c.11-.16.17-.35.17-.55ZM53,10c0-.55.45-1,1-1s1,.45,1,1v6c0,.55-.45,1-1,1s-1-.45-1-1v-6ZM11,16c0,.55-.45,1-1,1s-1-.45-1-1v-6c0-.55.45-1,1-1s1,.45,1,1v6ZM11,54c0,.55-.45,1-1,1s-1-.45-1-1v-6c0-.55.45-1,1-1s1,.45,1,1v6ZM53,48c0-.55.45-1,1-1s1,.45,1,1v6c0,.55-.45,1-1,1s-1-.45-1-1v-6ZM16,24.3l1.83-2.75c.27-.39.21-.92-.12-1.26l-1.71-1.7v-2.59h32v22.7l-1.83,2.75c-.23.33-.23.77,0,1.1l1.83,2.75v2.7H16v-23.7ZM51,50v2H13v-2h38Z"/>
  <path d="M24,20h16c.552,0,1-.448,1-1s-.448-1-1-1h-16c-.552,0-1,.448-1,1s.448,1,1,1Z"/>
  <path d="M43,22h-22c-.552,0-1,.448-1,1s.448,1,1,1h22c.552,0,1-.448,1-1s-.448-1-1-1Z"/>
  <path d="M32,26c-5.514,0-10,4.486-10,10s4.486,10,10,10,10-4.486,10-10-4.486-10-10-10ZM32,44c-4.411,0-8-3.589-8-8s3.589-8,8-8,8,3.589,8,8-3.589,8-8,8Z"/>
  <path d="M32,30c-3.309,0-6,2.691-6,6s2.691,6,6,6,6-2.691,6-6-2.691-6-6-6ZM32,40c-2.206,0-4-1.794-4-4s1.794-4,4-4,4,1.794,4,4-1.794,4-4,4Z"/>
  <circle cx="21" cy="11" r="1"/>
</svg>