<?xml version="1.0" encoding="UTF-8"?>
<svg id="Outline" xmlns="http://www.w3.org/2000/svg" version="1.1" viewBox="0 0 64 64">
  <!-- Generator: Adobe Illustrator 29.0.0, SVG Export Plug-In . SVG Version: 2.1.0 Build 186)  -->
  <path d="M50,15h-6.03003c.64001-.84003,1.03003-1.87,1.03003-3,0-2.76001-2.23999-5-5-5-2.40997,0-4.42999,1.71997-4.90002,4h-6.19995c-.47003-2.28003-2.49005-4-4.90002-4-2.76001,0-5,2.23999-5,5,0,1.13.39001,2.15997,1.03003,3h-6.03003c-.54999,0-1,.45001-1,1v6c0,.54999.45001,1,1,1h36c.54999,0,1-.45001,1-1v-6c0-.54999-.45001-1-1-1ZM24,9c1.65002,0,3,1.34998,3,3v3h-3c-1.65002,0-3-1.35004-3-3s1.34998-3,3-3ZM28,21h-13v-4h13v4ZM34,21h-4v-4h4v4ZM35,15h-6v-2h6v2ZM37,12c0-1.65002,1.34998-3,3-3s3,1.34998,3,3-1.34998,3-3,3h-3v-3ZM49,21h-13v-4h13v4Z"/>
  <path d="M48.73999,35.32996c-.19-.20996-.45996-.32996-.73999-.32996h-5.60999l.28998-.89001c.62-1.85999,2.35999-3.10999,4.32001-3.10999.54999,0,1-.45001,1-1s-.45001-1-1-1c-2.82001,0-5.32001,1.79999-6.21002,4.47998l-.50995,1.52002h-16.56006l-.50995-1.52002c-.89001-2.67999-3.39001-4.47998-6.21002-4.47998-.54999,0-1,.45001-1,1s.45001,1,1,1c1.96002,0,3.70001,1.25,4.32001,3.10999l.28998.89001h-5.60999c-.28003,0-.54999.12-.73999.32996-.19.21002-.28003.49005-.26001.77002l2,20c.06.51001.48999.90002,1,.90002h28c.51001,0,.94-.39001,1-.90002l2-20c.02002-.27997-.07001-.56-.26001-.77002ZM29,55h-10.09998l-1.80005-18h11.90002v18ZM33,55h-2v-18h2v18ZM45.09998,55h-10.09998v-18h11.90002l-1.80005,18Z"/>
  <path d="M24.31641,30.11133l.73486,2.20508c.13965.41895.52979.68359.94873.68359.10449,0,.21143-.0166.31592-.05176.52441-.17383.80762-.74023.63281-1.26465l-.73486-2.20508c-.89355-2.67871-3.39062-4.47852-6.21387-4.47852-.55225,0-1,.44727-1,1s.44775,1,1,1c1.96143,0,3.6958,1.25,4.31641,3.11133Z"/>
  <path d="M38,33c.41895,0,.80908-.26465.94873-.68359l.73486-2.20508c.62061-1.86133,2.35498-3.11133,4.31641-3.11133.55225,0,1-.44727,1-1s-.44775-1-1-1c-2.82324,0-5.32031,1.7998-6.21387,4.47852l-.73486,2.20508c-.1748.52441.1084,1.09082.63281,1.26465.10449.03516.21143.05176.31592.05176Z"/>
  <path d="M31,32v-6c0-.55273-.44775-1-1-1s-1,.44727-1,1v6c0,.55273.44775,1,1,1s1-.44727,1-1Z"/>
  <path d="M35,32v-6c0-.55273-.44775-1-1-1s-1,.44727-1,1v6c0,.55273.44775,1,1,1s1-.44727,1-1Z"/>
</svg>