<?xml version="1.0" encoding="UTF-8"?>
<svg id="Outline" xmlns="http://www.w3.org/2000/svg" version="1.1" viewBox="0 0 64 64">
  <!-- Generator: Adobe Illustrator 29.5.1, SVG Export Plug-In . SVG Version: 2.1.0 Build 141)  -->
  <path d="M56,20.571c0-5.24-5.301-9.73-12.33-10.446-.517-.051-.998.296-1.056.777-.058.484.321.918.846.972,6.058.616,10.627,4.355,10.627,8.697,0,4.85-5.578,8.797-12.435,8.797-1.451,0-2.907-.19-4.328-.564-.205-.055-.421-.043-.618.028l-2.706.996v-1.85c0-.296-.161-.57-.428-.734-2.767-1.685-4.354-4.118-4.354-6.673,0-4.342,4.569-8.081,10.627-8.697.525-.053.904-.488.846-.972-.058-.482-.535-.828-1.056-.777-2.164.22-4.162.801-5.895,1.649h-16c-3.165,0-5.739,2.368-5.739,5.278v31.67c0,2.911,2.574,5.278,5.739,5.278h19.13c3.165,0,5.739-2.368,5.739-5.278v-7.038c0-.486-.428-.88-.957-.88s-.957.393-.957.88v4.399H13.913v-28.151h8.213l1.633,1.502c.179.165.423.258.676.258h2.925c-.033.291-.055.584-.055.88,0,3.018,1.736,5.862,4.783,7.869v2.687c0,.292.157.564.42.729.161.1.347.151.536.151.12,0,.241-.021.355-.063l3.719-1.368c1.178.289,2.377.46,3.579.522v7.067c0,.486.428.88.957.88s.957-.393.957-.88v-7.073c7.465-.365,13.391-4.937,13.391-10.521ZM40.696,47.842v.88c0,1.941-1.716,3.519-3.826,3.519h-19.13c-2.11,0-3.826-1.578-3.826-3.519v-.88h26.783ZM24.831,17.932l-1.633-1.502c-.179-.165-.423-.258-.676-.258h-8.473c.428-1.514,1.913-2.639,3.69-2.639h13.247c-1.514,1.244-2.628,2.748-3.212,4.399h-2.942Z"/>
  <path d="M16.783,39.925c0,.486.428.88.957.88h3.826c.528,0,.957-.393.957-.88v-3.519c0-.486-.428-.88-.957-.88h-3.826c-.528,0-.957.393-.957.88v3.519ZM18.696,37.286h1.913v1.759h-1.913v-1.759Z"/>
  <path d="M30.174,39.925v-3.519c0-.486-.428-.88-.957-.88h-3.826c-.528,0-.957.393-.957.88v3.519c0,.486.428.88.957.88h3.826c.528,0,.957-.393.957-.88ZM28.261,39.045h-1.913v-1.759h1.913v1.759Z"/>
  <path d="M33.043,35.526c-.528,0-.957.393-.957.88v3.519c0,.486.428.88.957.88h3.826c.528,0,.957-.393.957-.88v-3.519c0-.486-.428-.88-.957-.88h-3.826ZM35.913,39.045h-1.913v-1.759h1.913v1.759Z"/>
  <path d="M16.783,32.887c0,.486.428.88.957.88h3.826c.528,0,.957-.393.957-.88v-3.519c0-.486-.428-.88-.957-.88h-3.826c-.528,0-.957.393-.957.88v3.519ZM18.696,30.248h1.913v1.759h-1.913v-1.759Z"/>
  <path d="M17.739,26.729h3.826c.528,0,.957-.393.957-.88v-3.519c0-.486-.428-.88-.957-.88h-3.826c-.528,0-.957.393-.957.88v3.519c0,.486.428.88.957.88ZM18.696,23.21h1.913v1.759h-1.913v-1.759Z"/>
  <path d="M25.391,33.767h3.826c.528,0,.957-.393.957-.88v-3.519c0-.486-.428-.88-.957-.88h-3.826c-.528,0-.957.393-.957.88v3.519c0,.486.428.88.957.88ZM26.348,30.248h1.913v1.759h-1.913v-1.759Z"/>
  <path d="M25.391,50.921h3.826c.528,0,.957-.393.957-.88s-.428-.88-.957-.88h-3.826c-.528,0-.957.393-.957.88s.428.88.957.88Z"/>
  <ellipse cx="27.304" cy="43.443" rx=".957" ry=".88"/>
  <ellipse cx="23.478" cy="43.443" rx=".957" ry=".88"/>
  <ellipse cx="31.13" cy="43.443" rx=".957" ry=".88"/>
  <path d="M38.783,20.571c0,1.455,1.287,2.639,2.87,2.639s2.87-1.184,2.87-2.639-1.287-2.639-2.87-2.639-2.87,1.184-2.87,2.639ZM41.652,19.691c.527,0,.957.394.957.88s-.429.88-.957.88-.957-.394-.957-.88.429-.88.957-.88Z"/>
  <path d="M31.13,20.571c0,1.455,1.287,2.639,2.87,2.639s2.87-1.184,2.87-2.639-1.287-2.639-2.87-2.639-2.87,1.184-2.87,2.639ZM34.957,20.571c0,.485-.429.88-.957.88s-.957-.394-.957-.88.429-.88.957-.88.957.394.957.88Z"/>
  <path d="M52.174,20.571c0-1.455-1.287-2.639-2.87-2.639s-2.87,1.184-2.87,2.639,1.287,2.639,2.87,2.639,2.87-1.184,2.87-2.639ZM48.348,20.571c0-.485.429-.88.957-.88s.957.394.957.88-.429.88-.957.88-.957-.394-.957-.88Z"/>
</svg>