<?xml version="1.0" encoding="UTF-8"?>
<svg id="Outline" xmlns="http://www.w3.org/2000/svg" version="1.1" viewBox="0 0 64 64">
  <!-- Generator: Adobe Illustrator 29.5.1, SVG Export Plug-In . SVG Version: 2.1.0 Build 141)  -->
  <path d="M50,31h-2v-5c0-.55-.45-1-1-1s-1,.45-1,1v5h-5c-.55,0-1,.45-1,1s.45,1,1,1h9c.55,0,1,.45,1,1v12c0,.55-.45,1-1,1H14c-.55,0-1-.45-1-1v-12c0-.55.45-1,1-1h23c.55,0,1-.45,1-1s-.45-1-1-1h-19V14c0-.55.45-1,1-1h26c.55,0,1,.45,1,1v8c0,.55.45,1,1,1s1-.45,1-1v-12c0-1.65-1.35-3-3-3h-26c-1.65,0-3,1.35-3,3v21h-2c-1.65,0-3,1.35-3,3v12c0,1.65,1.35,3,3,3h2v5c0,1.65,1.35,3,3,3h26c1.65,0,3-1.35,3-3v-5h2c1.65,0,3-1.35,3-3v-12c0-1.65-1.35-3-3-3ZM18,10c0-.55.45-1,1-1h26c.55,0,1,.45,1,1v1.18c-.31-.11-.65-.18-1-.18h-26c-.35,0-.69.07-1,.18v-1.18ZM46,54c0,.55-.45,1-1,1h-26c-.55,0-1-.45-1-1v-1.18c.31.11.65.18,1,.18h26c.35,0,.69-.07,1-.18v1.18ZM46,50c0,.55-.45,1-1,1h-26c-.55,0-1-.45-1-1v-1h28v1Z"/>
  <path d="M15,38v4c0,1.654,1.346,3,3,3s3-1.346,3-3v-4c0-1.654-1.346-3-3-3s-3,1.346-3,3ZM19,38v4c0,.551-.448,1-1,1s-1-.449-1-1v-4c0-.551.448-1,1-1s1,.449,1,1Z"/>
  <path d="M23,38v4c0,1.654,1.346,3,3,3s3-1.346,3-3v-4c0-1.654-1.346-3-3-3s-3,1.346-3,3ZM27,38v4c0,.551-.448,1-1,1s-1-.449-1-1v-4c0-.551.448-1,1-1s1,.449,1,1Z"/>
  <path d="M49,42v-4c0-1.654-1.346-3-3-3s-3,1.346-3,3v4c0,1.654,1.346,3,3,3s3-1.346,3-3ZM45,42v-4c0-.551.448-1,1-1s1,.449,1,1v4c0,.551-.448,1-1,1s-1-.449-1-1Z"/>
  <path d="M35,38v4c0,1.654,1.346,3,3,3s3-1.346,3-3v-4c0-1.654-1.346-3-3-3s-3,1.346-3,3ZM39,38v4c0,.551-.448,1-1,1s-1-.449-1-1v-4c0-.551.448-1,1-1s1,.449,1,1Z"/>
  <circle cx="32" cy="38" r="1"/>
  <circle cx="32" cy="42" r="1"/>
  <path d="M32,29c3.859,0,7-3.14,7-7s-3.141-7-7-7-7,3.14-7,7,3.141,7,7,7ZM32,17c2.757,0,5,2.243,5,5s-2.243,5-5,5-5-2.243-5-5,2.243-5,5-5Z"/>
  <path d="M40.485,15.929l-1.414-1.415c-.391-.391-1.023-.391-1.414,0-.391.39-.391,1.023,0,1.414,0,0,1.414,1.415,1.414,1.415.388.388,1.027.387,1.414,0,.391-.39.391-1.023,0-1.414Z"/>
  <path d="M26.343,14.515c-.391-.391-1.023-.391-1.414,0l-1.414,1.415c-.391.391-.391,1.024,0,1.414.368.368,1.017.397,1.414,0l1.414-1.415c.391-.391.391-1.024,0-1.414Z"/>
  <path d="M32,23c.553,0,1-.448,1-1v-2c0-.552-.447-1-1-1s-1,.448-1,1v2c0,.552.447,1,1,1Z"/>
</svg>