<?xml version="1.0" encoding="UTF-8"?>
<svg id="Outline" xmlns="http://www.w3.org/2000/svg" version="1.1" viewBox="0 0 64 64">
  <!-- Generator: Adobe Illustrator 29.5.1, SVG Export Plug-In . SVG Version: 2.1.0 Build 141)  -->
  <path d="M56.81,45.42c-.19-.27-.49-.42-.81-.42h-6.03c2.44-1.83,4.03-4.73,4.03-8,0-4.31-2.74-7.98-6.57-9.38.96-.91,1.57-2.19,1.57-3.62,0-2.41-1.72-4.43-4-4.9v-10.1h1c.55,0,1-.45,1-1s-.45-1-1-1h-4c-.55,0-1,.45-1,1s.45,1,1,1h1v10.1c-2.28.47-4,2.49-4,4.9,0,1.43.61,2.71,1.57,3.62-3.83,1.4-6.57,5.07-6.57,9.38,0,3.27,1.59,6.17,4.03,8h-12.06c2.44-1.83,4.03-4.73,4.03-8,0-4.31-2.74-7.98-6.57-9.38.96-.91,1.57-2.19,1.57-3.62,0-2.41-1.72-4.43-4-4.9v-10.1h1c.55,0,1-.45,1-1s-.45-1-1-1h-4c-.55,0-1,.45-1,1s.45,1,1,1h1v10.1c-2.28.47-4,2.49-4,4.9,0,1.43.61,2.71,1.57,3.62-3.83,1.4-6.57,5.07-6.57,9.38,0,3.27,1.59,6.17,4.03,8h-6.03c-.32,0-.62.15-.81.42-.19.26-.24.59-.14.9l2,6c.14.4.52.68.95.68h7v3c0,.55.45,1,1,1h28c.55,0,1-.45,1-1v-3h7c.43,0,.81-.28.95-.68l2-6c.1-.31.05-.64-.14-.9ZM44,21c1.65,0,3,1.35,3,3s-1.35,3-3,3-3-1.35-3-3,1.35-3,3-3ZM44,29c4.07,0,7.44,3.06,7.93,7h-1.93c-1.65,0-3,1.35-3,3,0,.55-.45,1-1,1s-1-.45-1-1c0-1.65-1.35-3-3-3h-5.93c.49-3.94,3.86-7,7.93-7ZM36.07,38h5.93c.55,0,1,.45,1,1,0,1.65,1.35,3,3,3s3-1.35,3-3c0-.55.45-1,1-1h1.93c-.49,3.94-3.86,7-7.93,7s-7.44-3.06-7.93-7ZM20,21c1.65,0,3,1.35,3,3s-1.35,3-3,3-3-1.35-3-3,1.35-3,3-3ZM20,29c4.07,0,7.44,3.06,7.93,7h-5.93c-1.65,0-3,1.35-3,3,0,.55-.45,1-1,1s-1-.45-1-1c0-1.65-1.35-3-3-3h-1.93c.49-3.94,3.86-7,7.93-7ZM12.07,38h1.93c.55,0,1,.45,1,1,0,1.65,1.35,3,3,3s3-1.35,3-3c0-.55.45-1,1-1h5.93c-.49,3.94-3.86,7-7.93,7s-7.44-3.06-7.93-7ZM53.28,51h-23.28c-.55,0-1,.45-1,1s.45,1,1,1h15v2h-26v-2h3c.55,0,1-.45,1-1s-.45-1-1-1h-11.28l-1.33-4h45.22l-1.33,4Z"/>
  <circle cx="26" cy="52" r="1"/>
</svg>