<?xml version="1.0" encoding="UTF-8"?>
<svg id="Outline" xmlns="http://www.w3.org/2000/svg" version="1.1" viewBox="0 0 64 64">
  <!-- Generator: Adobe Illustrator 29.3.1, SVG Export Plug-In . SVG Version: 2.1.0 Build 151)  -->
  <path d="M54.09814,28.21045c-2.06055-5.50879-7.39014-9.21045-13.26172-9.21045-2.65851,0-5.31885.56097-7.7572,1.62408.37585-4.43915,2.27496-8.56421,5.4613-11.75055l.1665-.1665c.39062-.39062.39062-1.02344,0-1.41406s-1.02344-.39062-1.41406,0l-.1665.1665c-1.68353,1.68353-3.02264,3.6134-4.03052,5.69489-2.19598-2.01483-5.06769-3.15436-8.09595-3.15436h-6c-.55225,0-1,.44775-1,1,0,3.04663,1.17859,5.94336,3.21411,8.14368-5.07477.71588-9.48279,4.17572-11.31226,9.06677-1.28174,3.42578-1.20166,7.16699.22607,10.53418l5.32275,12.55225c1.46875,3.46436,4.8457,5.70312,8.60205,5.70312,2.49707,0,4.84473-.97461,6.61035-2.74414l1.33691-1.33984,1.33691,1.34033c1.76562,1.76904,4.11328,2.74365,6.61035,2.74365,3.75635,0,7.1333-2.23877,8.60205-5.70361l5.32275-12.55176c1.42773-3.36719,1.50781-7.1084.22607-10.53418ZM25,12c2.76935,0,5.37744,1.14618,7.25916,3.14301-.23932.66327-.44427,1.33801-.61517,2.02484-.40979-.20386-.82916-.38843-1.25531-.55164l-4.02979-1.5498c-.51416-.19678-1.09326.05859-1.29248.57471-.19824.51562.05908,1.09375.57471,1.29248l4.03125,1.55029c.54077.20679,1.06116.46521,1.56787.74664-.06989.48547-.12854.9726-.16455,1.46558-2.20917-.98663-4.60455-1.55682-7.02081-1.6698-2.26978-1.68842-3.72296-4.24329-4.00458-7.02631h4.94971ZM52.03076,37.96387l-5.32275,12.55176c-1.15479,2.72412-3.80859,4.48438-6.76074,4.48438-1.96191,0-3.80664-.76611-5.19434-2.15625l-2.04492-2.0498c-.1875-.18848-.44238-.29395-.70801-.29395s-.52051.10547-.70801.29395l-2.04492,2.04932c-1.3877,1.39062-3.23242,2.15674-5.19434,2.15674-2.95215,0-5.60596-1.76025-6.76074-4.48389l-5.32227-12.55176c-1.22705-2.89404-1.29639-6.10889-.19482-9.05273,1.77002-4.73242,6.34717-7.91162,11.38867-7.91162,2.68896,0,5.38135.63721,7.78613,1.84229l.60205.30176c.28223.1416.61426.1416.89648,0l.60205-.30176c2.40479-1.20508,5.09717-1.84229,7.78613-1.84229,5.0415,0,9.61865,3.1792,11.38867,7.91162,1.10156,2.94385,1.03223,6.15869-.19434,9.05225Z"/>
  <path d="M40.83643,23c-2.37891,0-4.76123.56396-6.88965,1.63037l-1.94678.9751-1.94629-.9751c-2.12891-1.06641-4.51123-1.63037-6.89014-1.63037-4.21191,0-8.03613,2.65723-9.51562,6.6123-.92139,2.4624-.86328,5.15088.1626,7.57129l5.32275,12.55176c.84082,1.98291,2.77197,3.26465,4.91943,3.26465,1.42676,0,2.76855-.55713,3.77832-1.56934l4.16895-4.17822,4.16895,4.17871c1.00977,1.01172,2.35156,1.56885,3.77832,1.56885,2.14746,0,4.07861-1.28174,4.91943-3.26465l5.32227-12.55176c1.02637-2.42041,1.08447-5.10938.1626-7.57129-1.479-3.95508-5.30322-6.6123-9.51514-6.6123ZM48.34766,36.40283l-5.32178,12.55127c-.52734,1.24268-1.73584,2.0459-3.07861,2.0459-.8916,0-1.73096-.34863-2.36279-.98145l-4.87646-4.88818c-.1875-.18848-.44238-.29395-.70801-.29395s-.52051.10547-.70801.29395l-4.87695,4.88818c-.63135.63281-1.47021.98145-2.3623.98145-1.34277,0-2.55127-.80322-3.07861-2.04541l-5.32227-12.55225c-.8252-1.94629-.87158-4.10889-.13086-6.08887,1.18896-3.17822,4.26025-5.31348,7.64258-5.31348,2.06934,0,4.14209.49072,5.99414,1.41846l2.39404,1.19971c.28223.1416.61475.1416.896,0l2.39502-1.19971c1.85156-.92773,3.92432-1.41846,5.99365-1.41846,3.38232,0,6.45361,2.13525,7.64209,5.31299.74121,1.98047.69482,4.14307-.13086,6.08984Z"/>
  <path d="M28,32c-1.71045,0-3,2.14941-3,5s1.28955,5,3,5,3-2.14941,3-5-1.28955-5-3-5ZM28,40c-.24902,0-1-1.06396-1-3s.75098-3,1-3,1,1.06396,1,3-.75098,3-1,3Z"/>
  <path d="M36,32c-1.71045,0-3,2.14941-3,5s1.28955,5,3,5,3-2.14941,3-5-1.28955-5-3-5ZM36,40c-.24902,0-1-1.06396-1-3s.75098-3,1-3,1,1.06396,1,3-.75098,3-1,3Z"/>
</svg>