<?xml version="1.0" encoding="UTF-8"?>
<svg id="Outline" xmlns="http://www.w3.org/2000/svg" version="1.1" viewBox="0 0 64 64">
  <!-- Generator: Adobe Illustrator 29.5.1, SVG Export Plug-In . SVG Version: 2.1.0 Build 141)  -->
  <path d="M56.056,40.006c-.541-.067-1.049.315-1.121.862-.643,4.936-3.021,9.507-6.692,12.871-1.903,1.735-4.818,1.67-6.639-.148-.375-.375-1.039-.375-1.414,0-.907.908-2.112,1.407-3.393,1.407-1.201,0-2.354-.447-3.243-1.256-1.306-1.201-2.431-2.539-3.369-3.97.798-1.788,1.313-3.703,1.479-5.691.046-.55-.363-1.034-.914-1.08-.555-.048-1.034.363-1.08.914-.326,3.909-2.106,7.534-5.008,10.205-1.326,1.21-3.365,1.168-4.641-.101-.389-.387-1.018-.388-1.408-.002-1.245,1.23-3.37,1.27-4.641.105-4.892-4.498-6.422-11.619-3.803-17.729l.194-.468c.549-1.271,1.608-2.247,2.91-2.678,1.713-.572,3.65-.118,4.927,1.151l.4.41c.377.385,1.055.385,1.432,0l.388-.398c1.273-1.262,3.226-1.733,4.942-1.162,1.299.43,2.358,1.406,2.902,2.666l.205.491c.517,1.201.88,2.462,1.08,3.749.085.545.591.915,1.142.834.545-.085.919-.596.834-1.142-.226-1.453-.636-2.876-1.215-4.221l-.205-.491c-.54-1.252-1.439-2.295-2.554-3.022.239-.818.509-1.616.834-2.365.48-1.106,1-2.131,1.907-2.958.716-.654,1.538-1.139,2.441-1.44,2.456-.817,5.104-.193,6.917,1.628l.323.323c-.045.587-.067,1.178-.071,1.771-.474-.152-.923-.402-1.298-.778-.391-.391-1.023-.391-1.414,0s-.391,1.023,0,1.414c1.022,1.022,2.365,1.533,3.707,1.533s2.685-.511,3.707-1.533c.391-.391.391-1.023,0-1.414s-1.023-.391-1.414,0c-.373.373-.818.622-1.288.775.004-.654.042-1.304.101-1.95l.143-.143c1.265-1.273,2.959-1.975,4.771-1.975.728,0,1.45.117,2.144.349,2.151.718,3.48,2.384,4.348,4.396.994,2.316,1.563,4.774,1.69,7.306.027.535.468.95.998.95.017,0,.034,0,.051-.001.552-.027.976-.497.948-1.049-.139-2.77-.762-5.459-1.85-7.996-1.102-2.552-2.841-4.599-5.552-5.503-.898-.299-1.833-.451-2.776-.451-1.606,0-3.137.434-4.472,1.231.182-.817.423-1.617.694-2.408.477.112.969.177,1.471.177,1.705,0,3.309-.664,4.515-1.87,2.258-2.258,3.904-10.965,4.084-11.95.059-.323-.044-.655-.277-.887-.232-.232-.565-.333-.887-.277-.986.181-9.692,1.826-11.95,4.084-2.489,2.489-2.489,6.54,0,9.029.363.363.765.67,1.191.931-.435,1.248-.769,2.528-.998,3.833-2.296-1.825-5.34-2.393-8.188-1.443-1.171.391-2.233,1.016-3.162,1.864-1.063.97-1.81,2.294-2.389,3.637-.321.74-.591,1.525-.836,2.326-2.206-.629-4.66-.087-6.395,1.428-1.829-1.614-4.352-2.134-6.676-1.356-1.84.609-3.339,1.988-4.119,3.795l-.195.47c-2.949,6.88-1.224,14.909,4.293,19.981,1.806,1.655,4.712,1.824,6.694.433.92.647,1.999.972,3.08.972,1.293,0,2.589-.467,3.619-1.406,1.228-1.13,2.277-2.41,3.128-3.802.892,1.222,1.914,2.371,3.061,3.426,1.262,1.148,2.893,1.78,4.593,1.78,1.5,0,2.925-.483,4.101-1.376,1.209.917,2.654,1.379,4.102,1.379,1.641,0,3.286-.593,4.593-1.786,4.02-3.683,6.622-8.687,7.326-14.088.071-.548-.315-1.05-.862-1.121ZM41.509,18.714c-.828-.828-1.284-1.929-1.284-3.101s.456-2.272,1.284-3.101c1.194-1.195,5.939-2.505,9.445-3.244-.739,3.506-2.05,8.25-3.244,9.445-.828.828-1.93,1.284-3.101,1.284-.247,0-.489-.031-.729-.071.521-1.166,1.13-2.298,1.847-3.374.306-.459.182-1.081-.277-1.387-.46-.308-1.08-.182-1.387.277-.788,1.182-1.455,2.425-2.025,3.706-.184-.134-.366-.272-.53-.436Z"/>
  <path d="M51.139,44.072c-.511-.208-1.095.037-1.304.547-.967,2.367-2.412,4.441-4.295,6.167-.407.374-.435,1.006-.062,1.413.351.383.997.443,1.413.062,2.102-1.927,3.715-4.244,4.795-6.885.209-.511-.036-1.095-.547-1.304Z"/>
</svg>