<?xml version="1.0" encoding="UTF-8"?>
<svg id="Outline" xmlns="http://www.w3.org/2000/svg" version="1.1" viewBox="0 0 64 64">
  <!-- Generator: Adobe Illustrator 29.5.1, SVG Export Plug-In . SVG Version: 2.1.0 Build 141)  -->
  <path d="M49.142,36.919c-.55-.04-1.03.36-1.08.92-.51,6-3.24,11.55-7.69,15.62-2.18,2.01-5.53,1.94-7.63-.16-.39-.39-1.03-.39-1.42,0-2.1,2.1-5.45,2.17-7.63.16-7.51-6.87-9.86-17.78-5.85-27.14,1.11-2.6,2.79-4.28,4.97-5,2.79-.94,5.83-.22,7.91,1.87l.6.6c.39.39,1.03.39,1.42,0l.6-.6c2.09-2.09,5.12-2.81,7.92-1.87,2.2.73,3.83,2.37,4.96,5,1.05,2.44,1.68,5.02,1.87,7.67.04.55.53.97,1.07.93.55-.04.97-.52.93-1.07-.22-2.87-.9-5.67-2.03-8.32-1.36-3.14-3.43-5.2-6.17-6.11-2.24-.75-4.59-.64-6.68.19.42-2.69,1.62-5.21,3.51-7.22,1.031-1.096,1.128-2.854.16-4.02-1.14-1.373-3.311-1.399-4.52-.11-1.23,1.31-2.25,2.76-3.07,4.32-.17-.95-.48-1.92-1.03-2.77-.31-.46-.93-.59-1.39-.29-.46.31-.59.93-.29,1.39.69,1.05.86,2.45.87,3.59l-2.71-2.71c-.39-.39-1.03-.39-1.42,0-.39.39-.39,1.02,0,1.41l2.72,2.72c-1.36-.01-3.08-.25-4.13-1.31-1.46-1.45-1.37-4.19-1.23-5.47.71-.08,1.86-.14,3.01.08.55.11,1.07-.25,1.17-.79.11-.55-.25-1.07-.79-1.17-2.23-.42-4.38-.01-4.47.01-.4.08-.71.39-.79.79-.04.21-1,5.28,1.68,7.97,1.55,1.55,3.89,1.89,5.64,1.89.49,0,.93-.03,1.29-.06-.12.62-.21,1.25-.28,1.89-2.16-.96-4.63-1.11-6.96-.33-2.71.9-4.85,3.01-6.18,6.12-4.34,10.14-1.8,21.95,6.33,29.39,2.74,2.53,6.83,2.65,9.7.41,1.35,1.06,2.98,1.59,4.61,1.59,1.82,0,3.64-.66,5.09-1.99,4.81-4.41,7.77-10.43,8.33-16.94.04-.55-.36-1.03-.92-1.08ZM35.822,9.629c.409-.436,1.133-.453,1.52.02.329.402.27.985-.08,1.37-2.5,2.67-3.97,6.13-4.18,9.76-.37.27-.72.57-1.05.89-.3-.3-.63-.56-.96-.81.21-4.19,1.87-8.16,4.75-11.23Z"/>
  <path d="M25.032,34.919v2c0,.552.448,1,1,1s1-.448,1-1v-2c0-.552-.448-1-1-1s-1,.448-1,1Z"/>
  <path d="M37.032,34.919v2c0,.552.448,1,1,1s1-.448,1-1v-2c0-.552-.448-1-1-1s-1,.448-1,1Z"/>
  <path d="M34.325,39.212c-1.265,1.264-3.321,1.264-4.586,0-.391-.391-1.023-.391-1.414,0s-.391,1.023,0,1.414c1.022,1.022,2.365,1.533,3.707,1.533s2.685-.511,3.707-1.533c.391-.391.391-1.023,0-1.414s-1.023-.391-1.414,0Z"/>
</svg>