<?xml version="1.0" encoding="UTF-8"?>
<svg id="Outline" xmlns="http://www.w3.org/2000/svg" version="1.1" viewBox="0 0 48 48">
  <!-- Generator: Adobe Illustrator 29.5.1, SVG Export Plug-In . SVG Version: 2.1.0 Build 141)  -->
  <path d="M34.992,21.614l-.207-.483c-.768-1.789-2.267-3.168-4.111-3.783-1.077-.359-2.192-.429-3.263-.253.763-2.803,2.611-5.241,5.168-6.7l.92-.53c.308-.177.498-.503.501-.858s-.182-.684-.485-.866l-5-3c-.394-.236-.898-.175-1.222.15l-.34.34c-1.242,1.242-2.3,2.633-3.172,4.126-.083-.094-.157-.199-.245-.287-3.05-3.037-8.381-2.432-8.606-2.404-.457.055-.817.416-.873.873-.027.226-.633,5.557,2.406,8.607.284.284.605.542.95.781-.029.009-.058.013-.087.023-1.845.615-3.344,1.994-4.112,3.784l-.205.481c-2.952,6.887-1.225,14.916,4.299,19.979,1.028.942,2.323,1.41,3.616,1.41,1.078,0,2.156-.326,3.076-.975,2.021,1.427,4.807,1.293,6.692-.435,5.523-5.063,7.251-13.092,4.3-19.978ZM28.157,7.259l2.883,1.729c-3.112,1.985-5.237,5.24-5.836,8.88-.424.237-.831.509-1.204.84-.277-.246-.575-.457-.881-.652.431-4.053,2.193-7.858,5.038-10.798ZM15.996,9.005c1.432-.029,4.383.143,6.127,1.88.24.241.451.528.648.835-.279.623-.518,1.263-.733,1.912l-2.041-2.041c-.391-.391-1.023-.391-1.414,0s-.391,1.023,0,1.414l2.861,2.861c-.063.303-.137.603-.186.909-1.151-.24-2.449-.712-3.381-1.643-1.738-1.746-1.911-4.697-1.882-6.128ZM29.341,40.117c-1.323,1.214-3.36,1.172-4.634-.101-.391-.391-1.023-.391-1.414,0-1.272,1.272-3.309,1.315-4.634.101-4.898-4.49-6.43-11.61-3.812-17.717l.205-.481c.543-1.265,1.602-2.239,2.906-2.673.506-.168,1.022-.251,1.535-.251,1.254,0,2.474.493,3.396,1.415l.402.402c.391.391,1.023.391,1.414,0l.402-.402c1.3-1.298,3.189-1.745,4.932-1.164,1.305.435,2.363,1.409,2.905,2.672l.207.483c2.617,6.106,1.086,13.227-3.812,17.716Z"/>
</svg>