<?xml version="1.0" encoding="UTF-8"?>
<svg id="Outline" xmlns="http://www.w3.org/2000/svg" version="1.1" viewBox="0 0 64 64">
  <!-- Generator: Adobe Illustrator 29.5.1, SVG Export Plug-In . SVG Version: 2.1.0 Build 141)  -->
  <path d="M49.998,37.093c-.53-.06-1.04.32-1.11.87-.74,5.98-3.59,11.51-8.02,15.57-.39.35-.82.62-1.26.86-3.48-2-6.15-8.2-6.54-15.36-.03-.56-.52-.97-1.06-.95h-.04c-.53,0-.99.4-1.02.95-.39,7.16-3.06,13.36-6.54,15.36-.45-.24-.88-.51-1.25-.86-7.94-7.27-10.42-18.81-6.18-28.71l.33-.76c.46-1.08,1.13-2.02,1.99-2.81.86-.79,1.85-1.38,2.96-1.75.3-.1.62-.18.93-.24,4.06,1.11,7.32,7.73,7.77,15.88.03.53.47.94,1,.94h.1c.53,0,.97-.41,1-.94.45-8.14,3.7-14.75,7.76-15.88.32.07.63.13.94.24,2.22.75,4.03,2.41,4.95,4.55l.33.78c1.27,2.94,1.95,6.06,2.03,9.27.01.55.46.98,1.02.98.56-.01.99-.47.98-1.02-.09-3.48-.82-6.85-2.19-10.02l-.33-.78c-1.15-2.66-3.39-4.73-6.15-5.66-1.03-.34-2.12-.52-3.23-.52-1.37,0-2.73.29-3.98.81.27-2.35.85-4.65,1.76-6.84.6-1.45-.03-3.14-1.43-3.83-1.543-.761-3.443-.054-4.11,1.53-1.24,2.99-2,6.12-2.28,9.3.051-.577-3.959-.957-4.402-.956-2.457.009-4.983,1.033-6.788,2.686-1.05.97-1.89,2.14-2.47,3.49l-.33.77c-4.57,10.68-1.89,23.12,6.66,30.97,1.46,1.33,3.35,2.07,5.33,2.07,1.79,0,3.49-.59,4.88-1.68,1.43,1.12,3.15,1.68,4.88,1.68,1.9,0,3.81-.69,5.33-2.07,4.78-4.38,7.86-10.35,8.65-16.81.07-.55-.32-1.04-.87-1.11ZM33.258,9.523c.217-.525.862-.774,1.37-.51.46.23.67.79.47,1.27-1.16,2.81-1.83,5.78-2.02,8.82-.37.28-.74.58-1.07.91-.3-.3-.62-.56-.95-.82.18-3.32.92-6.57,2.2-9.67ZM30.658,21.493l.64.64c.39.39,1.03.39,1.42,0l.64-.64c.95-.97,2.15-1.67,3.44-2.06-2.11,2.04-3.79,5.28-4.79,9.24-.99-3.94-2.66-7.17-4.75-9.2,1.26.38,2.45,1.06,3.4,2.02ZM32.718,53.353c-.39-.39-1.03-.39-1.42,0-1.11,1.12-2.59,1.73-4.17,1.73-.08,0-.16-.02-.25-.02,2.29-2.01,4.09-5.39,5.13-9.56,1.04,4.17,2.84,7.55,5.13,9.55-1.6.07-3.21-.48-4.42-1.7Z"/>
  <path d="M23.008,37.083c0,2.851,1.29,5,3,5s3-2.149,3-5-1.29-5-3-5-3,2.149-3,5ZM27.008,37.083c0,1.936-.751,3-1,3s-1-1.064-1-3,.751-3,1-3,1,1.064,1,3Z"/>
  <path d="M35.008,37.083c0,2.851,1.29,5,3,5s3-2.149,3-5-1.29-5-3-5-3,2.149-3,5ZM39.008,37.083c0,1.936-.751,3-1,3s-1-1.064-1-3,.751-3,1-3,1,1.064,1,3Z"/>
</svg>