<?xml version="1.0" encoding="UTF-8"?>
<svg id="Outline" xmlns="http://www.w3.org/2000/svg" version="1.1" viewBox="0 0 64 64">
  <!-- Generator: Adobe Illustrator 29.5.1, SVG Export Plug-In . SVG Version: 2.1.0 Build 141)  -->
  <path d="M57,41c0-1.305-.796-2.454-2.008-3.185-.17-7.201-10.205-12.815-22.992-12.815s-22.822,5.614-22.992,12.815c-1.212.731-2.008,1.88-2.008,3.185,0,1.121.584,2.133,1.516,2.86l2.526,8.427c.127.423.516.713.958.713h40c.442,0,.831-.29.958-.713l2.526-8.427c.932-.727,1.516-1.739,1.516-2.86ZM32,27c10.787,0,19.973,4.525,20.907,10.073-.295-.044-.597-.073-.907-.073-.688,0-1.359.114-2,.342-1.462-.52-3.141-.434-4.5.202-1.527-.715-3.473-.715-5,0-1.716-.804-3.95-.683-5.5.26-1.721-1.045-4.279-1.045-6,0-1.55-.941-3.784-1.062-5.5-.26-1.527-.715-3.473-.715-5,0-1.359-.636-3.038-.722-4.5-.202-.641-.228-1.312-.342-2-.342-.311,0-.612.03-.907.073.934-5.548,10.12-10.073,20.907-10.073ZM12,39c.557,0,1.095.112,1.6.332.256.111.545.111.801,0,1.161-.505,2.567-.416,3.582.199.318.193.718.193,1.036,0,1.146-.695,2.817-.695,3.964,0,.318.193.718.193,1.036,0,1.29-.783,3.273-.645,4.331.262.374.322.928.322,1.302,0,1.176-1.008,3.522-1.008,4.698,0,.374.322.928.322,1.302,0,1.057-.906,3.041-1.045,4.331-.262.318.193.718.193,1.036,0,1.146-.695,2.817-.695,3.964,0,.318.193.718.193,1.036,0,1.014-.615,2.421-.704,3.582-.199.256.111.545.111.801,0,.505-.22,1.043-.332,1.6-.332,1.626,0,3,.916,3,2s-1.374,2-3,2c-.557,0-1.095-.112-1.6-.332-.128-.056-.264-.084-.4-.084s-.272.028-.4.084c-1.16.506-2.566.417-3.582-.199-.318-.193-.718-.193-1.036,0-1.146.695-2.817.695-3.964,0-.318-.193-.718-.193-1.036,0-1.291.781-3.274.645-4.331-.262-.374-.322-.928-.322-1.302,0-1.176,1.008-3.522,1.008-4.698,0-.374-.322-.928-.322-1.302,0-1.058.906-3.042,1.043-4.331.262-.318-.193-.718-.193-1.036,0-1.146.695-2.817.695-3.964,0-.318-.193-.718-.193-1.036,0-1.015.615-2.421.705-3.582.199-.256-.111-.545-.111-.801,0-.505.22-1.043.332-1.6.332-1.626,0-3-.916-3-2s1.374-2,3-2ZM51.256,51H12.744l-1.829-6.101c.35.062.711.101,1.085.101.688,0,1.359-.114,2-.342,1.462.52,3.141.434,4.5-.202,1.527.715,3.473.715,5,0,1.715.803,3.95.682,5.5-.26,1.721,1.045,4.279,1.045,6,0,1.551.942,3.785,1.063,5.5.26,1.527.715,3.473.715,5,0,1.359.636,3.038.722,4.5.202.641.228,1.312.342,2,.342.373,0,.734-.039,1.085-.101l-1.829,6.101Z"/>
  <path d="M32,35c.552,0,1-.447,1-1v-4c0-.553-.448-1-1-1s-1,.447-1,1v4c0,.553.448,1,1,1Z"/>
  <path d="M38.122,33.535c.195.195.451.293.707.293.874,0,1.327-1.088.707-1.707l-2.829-2.828c-.391-.391-1.023-.391-1.414,0s-.391,1.023,0,1.414l2.829,2.828Z"/>
  <path d="M25.171,33.828c.256,0,.512-.098.707-.293l2.829-2.828c.391-.391.391-1.023,0-1.414s-1.023-.391-1.414,0l-2.829,2.828c-.612.612-.159,1.707.707,1.707Z"/>
  <path d="M30.737,21.908l.431.646c.193.289.51.445.833.445.782,0,1.266-.903.831-1.555l-.431-.646c-.646-.969-.517-2.269.306-3.092,1.495-1.495,1.729-3.856.556-5.615l-.431-.646c-.307-.46-.927-.584-1.387-.277s-.583.928-.277,1.387l.431.646c.646.969.517,2.269-.306,3.092-1.495,1.495-1.729,3.856-.556,5.615Z"/>
  <path d="M25.737,21.908l.431.646c.193.289.51.445.833.445.783,0,1.267-.902.831-1.555l-.431-.646c-.646-.969-.517-2.269.306-3.092,1.495-1.495,1.729-3.856.556-5.615l-.431-.646c-.307-.46-.928-.584-1.387-.277-.459.307-.583.928-.277,1.387l.431.646c.646.969.517,2.269-.306,3.092-1.495,1.495-1.729,3.856-.556,5.615Z"/>
  <path d="M35.737,21.908l.431.646c.193.289.509.445.832.445.779,0,1.263-.908.832-1.555l-.431-.646c-.646-.969-.517-2.269.306-3.092,1.495-1.495,1.729-3.856.556-5.615l-.431-.646c-.307-.46-.927-.584-1.387-.277s-.583.928-.277,1.387l.431.646c.646.969.517,2.269-.306,3.092-1.495,1.495-1.729,3.856-.556,5.615Z"/>
</svg>