<?xml version="1.0" encoding="UTF-8"?>
<svg id="Outline" xmlns="http://www.w3.org/2000/svg" version="1.1" viewBox="0 0 64 64">
  <!-- Generator: Adobe Illustrator 29.5.1, SVG Export Plug-In . SVG Version: 2.1.0 Build 141)  -->
  <path d="M53.022,40.576c-.549.059-.947.552-.888,1.101.049.461.074.906.074,1.323,0,6.617-5.383,12-12,12s-12-5.383-12-12,5.383-12,12-12c1.958,0,3.831.46,5.567,1.367.489.257,1.094.066,1.349-.424.256-.489.066-1.094-.423-1.35-1.996-1.043-4.241-1.594-6.493-1.594-.767,0-1.515.079-2.25.198.82-1.95,1.25-4.057,1.25-6.198,0-3.94-1.416-7.659-4.006-10.579l.733-.733c.261-.261.357-.644.25-.997-.107-.353-.399-.618-.761-.69l-4.184-.837c-2.436-1.413-5.208-2.163-8.032-2.163-8.822,0-16,7.178-16,16,0,3.94,1.416,7.659,4.006,10.579l-.733.733c-.261.261-.357.644-.25.996s.398.618.759.691l4.217.847c2.414,1.407,5.176,2.153,8.001,2.153,1.271,0,2.52-.165,3.741-.459-.473,1.403-.741,2.899-.741,4.459,0,7.72,6.28,14,14,14s14-6.28,14-14c0-.488-.029-1.005-.086-1.536-.059-.549-.554-.947-1.101-.888ZM13.314,32.892c-2.648-2.639-4.106-6.151-4.106-9.892,0-7.72,6.28-14,14-14,1.346,0,2.677.2,3.956.576,0,.06.001.119.013.179l.415,2.081c-1.389-.546-2.873-.836-4.384-.836-6.617,0-12,5.383-12,12,0,3.196,1.247,6.21,3.511,8.485.188.188.442.295.708.295.251-.028.521-.105.708-.293l.098-.098.752,3.777-3.771-.759.102-.102c.188-.188.293-.442.293-.708s-.106-.52-.294-.707ZM17.829,29.165c-.072-.362-.337-.654-.69-.762-.351-.108-.735-.012-.997.25l-.677.677c-1.461-1.788-2.256-4.001-2.256-6.33,0-5.514,4.486-10,10-10,1.716,0,3.387.457,4.873,1.29l.507,2.545c.072.362.337.654.69.762.352.108.736.011.997-.25l.677-.677c1.461,1.788,2.256,4.001,2.256,6.33,0,5.514-4.486,10-10,10-1.716,0-3.387-.457-4.873-1.29l-.507-2.545ZM19.251,36.407c-.002-.054-.001-.108-.012-.162l-.415-2.081c1.389.546,2.873.836,4.384.836,6.617,0,12-5.383,12-12,0-3.196-1.247-6.21-3.511-8.485-.188-.188-.442-.295-.708-.295h-.001c-.265,0-.52.105-.707.293l-.098.098-.752-3.777,1.125.224c.01.004.022.005.032.009.006.002.011.003.017.005.025.007.051.016.077.021l2.518.504-.099.099c-.188.188-.293.442-.293.708s.106.52.294.707c2.648,2.639,4.106,6.151,4.106,9.892,0,2.419-.629,4.784-1.81,6.869-3.136,1.153-5.749,3.387-7.375,6.261-2.81,1.029-5.922,1.106-8.773.277Z"/>
  <path d="M55.916,30.293c-1.134-1.133-3.11-1.133-4.243,0l-10.465,10.465-1.464-1.465c-1.134-1.133-3.109-1.133-4.243,0-1.168,1.17-1.168,3.072,0,4.242l2.879,2.879c.78.779,1.804,1.169,2.828,1.169s2.048-.39,2.828-1.169l11.879-11.879c1.168-1.17,1.168-3.072,0-4.242ZM54.501,33.121l-11.879,11.879c-.779.779-2.049.779-2.828,0l-2.878-2.879c-.39-.39-.39-1.024,0-1.414.377-.379,1.036-.379,1.414,0l2.172,2.172c.391.391,1.023.391,1.414,0l11.172-11.172c.377-.379,1.036-.379,1.413,0,.39.39.39,1.024,0,1.414Z"/>
  <path d="M32.99,39.551c.004-.007.007-.014.011-.021.255-.535.573-1.04.951-1.508,1.521-1.92,3.802-3.021,6.256-3.021.921,0,1.816.154,2.66.46.52.188,1.092-.081,1.28-.601s-.081-1.093-.601-1.28c-1.062-.384-2.187-.579-3.34-.579-3.069,0-5.921,1.378-7.818,3.771-.471.583-.873,1.222-1.195,1.898h.001c-.017.034-.033.069-.047.103-.625,1.32-.941,2.742-.941,4.228,0,5.514,4.486,10,10,10,4.222,0,8.008-2.675,9.422-6.655.185-.521-.087-1.093-.608-1.277-.52-.185-1.092.087-1.277.607-1.131,3.186-4.161,5.325-7.538,5.325-4.411,0-8-3.589-8-8,0-1.19.253-2.327.753-3.381.01-.021.02-.044.029-.068Z"/>
</svg>