<?xml version="1.0" encoding="UTF-8"?>
<svg id="Outline" xmlns="http://www.w3.org/2000/svg" version="1.1" viewBox="0 0 64 64">
  <!-- Generator: Adobe Illustrator 29.0.0, SVG Export Plug-In . SVG Version: 2.1.0 Build 186)  -->
  <path d="M35,27c0-6.61719-5.3833-12-12-12s-12,5.38281-12,12,5.3833,12,12,12,12-5.38281,12-12ZM23,37c-5.51416,0-10-4.48633-10-10s4.48584-10,10-10,10,4.48633,10,10-4.48584,10-10,10Z"/>
  <path d="M29.70752,22.29297c-1.13379-1.13281-3.10986-1.13281-4.24268,0l-4.46484,4.46484-.46436-.46484c-1.1333-1.13281-3.10791-1.13281-4.24316,0-1.16895,1.16992-1.16895,3.07324.00049,4.24219l1.17139,1.17188c.94434.94434,2.19971,1.46484,3.53564,1.46484s2.59131-.52051,3.53564-1.46484l5.17188-5.17188c1.16846-1.16992,1.16846-3.07227,0-4.24219ZM28.29297,25.12109l-5.17139,5.17188c-1.13379,1.13281-3.10938,1.13281-4.24316,0l-1.17139-1.17188c-.38965-.38965-.38965-1.02441,0-1.41406.37793-.37695,1.03613-.37891,1.41406,0l1.17188,1.17188c.39062.39062,1.02344.39062,1.41406,0l5.17236-5.17188c.37695-.37891,1.03613-.37891,1.41309,0,.38965.38965.38965,1.02441.00049,1.41406Z"/>
  <path d="M54,40h-1v-3c0-1.65002-1.34998-3-3-3h-2.95001l.75-14.96002c.07001-1.32001-.39996-2.58002-1.32001-3.54999-.42999-.45001-.92999-.79999-1.47998-1.04999v-4.44c0-1.65002-1.34998-3-3-3H14c-1.65002,0-3,1.34998-3,3v1h-1c-1.65002,0-3,1.34998-3,3v40c0,1.64996,1.34998,3,3,3h13c.54999,0,1-.45001,1-1s-.45001-1-1-1h-13c-.54999,0-1-.45001-1-1V14c0-.54999.45001-1,1-1h28c.54999,0,1,.45001,1,1v2.15997c-.56.85004-.84998,1.84003-.79999,2.88l.75,14.96002h-2.95001c-1.65002,0-3,1.34998-3,3v3h-1c-1.65002,0-3,1.34998-3,3,0,1.29999.84003,2.39996,2,2.82001v1.17999c0,1.64996,1.34998,3,3,3h5v4c0,.54999-.45001,1-1,1h-7c-.54999,0-1,.45001-1,1s.45001,1,1,1h7c1.65002,0,3-1.35004,3-3v-1h1c1.65002,0,3-1.35004,3-3h7c1.65002,0,3-1.35004,3-3v-1.17999c1.15997-.42004,2-1.52002,2-2.82001,0-1.65002-1.34998-3-3-3ZM45.03003,16.87c.53998.56.81,1.29999.76996,2.08002l-.75,15.04999h-4.09998l-.75-15.04999c-.04004-.78003.22998-1.52002.76996-2.08002,1.07001-1.12,2.99005-1.12,4.06006,0ZM38,11H13v-1c0-.54999.45001-1,1-1h28c.54999,0,1,.45001,1,1v4c-.71002,0-1.38.15997-2,.44v-.44c0-1.65002-1.34998-3-3-3ZM35,37c0-.54999.45001-1,1-1h14c.54999,0,1,.45001,1,1v3h-16v-3ZM42,51h-1v-1h2c0,.54999-.45001,1-1,1ZM53,47c0,.54999-.45001,1-1,1h-18c-.54999,0-1-.45001-1-1v-1h20v1ZM54,44h-22c-.54999,0-1-.45001-1-1s.45001-1,1-1h22c.54999,0,1,.45001,1,1s-.45001,1-1,1Z"/>
  <circle cx="27" cy="56" r="1"/>
</svg>