<?xml version="1.0" encoding="UTF-8"?>
<svg id="Outline" xmlns="http://www.w3.org/2000/svg" version="1.1" viewBox="0 0 64 64">
  <!-- Generator: Adobe Illustrator 29.5.1, SVG Export Plug-In . SVG Version: 2.1.0 Build 141)  -->
  <circle cx="32" cy="12" r="1"/>
  <path d="M48,13h-5.18c-.42-1.16-1.52-2-2.82-2h-3.1c-.47-2.28-2.48-4-4.9-4s-4.43,1.72-4.9,4h-3.1c-1.3,0-2.4.84-2.82,2h-5.18c-1.65,0-3,1.35-3,3v38c0,1.65,1.35,3,3,3h32c1.65,0,3-1.35,3-3V16c0-1.65-1.35-3-3-3ZM17,55h-1c-.55,0-1-.45-1-1V16c0-.55.45-1,1-1h1v40ZM24,13h4c.55,0,1-.45,1-1,0-1.65,1.35-3,3-3s3,1.35,3,3c0,.55.45,1,1,1h4c.55,0,1,.45,1,1s-.45,1-1,1h-16c-.55,0-1-.45-1-1s.45-1,1-1ZM45,55h-26V15h2.18c.42,1.16,1.52,2,2.82,2h16c1.3,0,2.4-.84,2.82-2h2.18v40ZM49,54c0,.55-.45,1-1,1h-1V15h1c.55,0,1,.45,1,1v38Z"/>
  <path d="M25.173,38.616l-.546.838c-.423.65.069,1.546.838,1.546.068,0,.138-.007.206-.021l5.535-1.165c.54-.113.887-.644.772-1.185l-1.165-5.536c-.083-.396-.396-.702-.794-.776-.4-.076-.803.098-1.022.437l-.537.823c-2.538-1.845-4.279-4.528-4.931-7.621-.088-.418-.432-.734-.855-.786-.438-.051-.836.171-1.022.554-2.225,4.566-.709,10.098,3.521,12.894ZM22.649,29.594c1.144,2.44,2.945,4.521,5.259,6.03l.287.188c.223.146.493.198.753.142.141-.029.272-.089.387-.173l.48,2.282-2.282.48c.088-.396-.071-.82-.43-1.055l-.786-.514c-2.531-1.65-3.865-4.515-3.668-7.381Z"/>
  <path d="M38.827,21.384l.546-.838c.221-.339.216-.777-.013-1.11-.229-.335-.638-.501-1.031-.414l-5.535,1.165c-.54.113-.887.644-.772,1.185l1.165,5.536c.083.396.396.702.794.776.401.077.802-.098,1.022-.437l.537-.823c2.538,1.845,4.279,4.528,4.931,7.621.088.418.432.734.855.786.042.005.083.008.123.008.379,0,.73-.215.899-.562,2.225-4.566.709-10.098-3.521-12.894ZM41.351,30.406c-1.144-2.44-2.945-4.521-5.259-6.03l-.287-.188c-.164-.107-.354-.163-.547-.163-.068,0-.138.007-.206.021-.141.029-.272.089-.387.173l-.48-2.282,2.282-.48c-.088.396.071.82.43,1.055l.786.514c2.531,1.65,3.865,4.515,3.668,7.381Z"/>
  <path d="M42,43h-20c-.553,0-1,.447-1,1v4c0,.553.447,1,1,1h20c.553,0,1-.447,1-1v-4c0-.553-.447-1-1-1ZM41,47h-18v-2h18v2Z"/>
  <path d="M30,51h-8c-.553,0-1,.447-1,1s.447,1,1,1h8c.553,0,1-.447,1-1s-.447-1-1-1Z"/>
  <path d="M42,51h-8c-.553,0-1,.447-1,1s.447,1,1,1h8c.553,0,1-.447,1-1s-.447-1-1-1Z"/>
</svg>