<?xml version="1.0" encoding="UTF-8"?>
<svg id="Outline" xmlns="http://www.w3.org/2000/svg" version="1.1" viewBox="0 0 64 64">
  <!-- Generator: Adobe Illustrator 29.5.1, SVG Export Plug-In . SVG Version: 2.1.0 Build 141)  -->
  <path d="M44,28.966c-1.13,0-2.16.39-3,1.03v-4.32c0-1.43-.8-2.72-2.08-3.36-2.42-1.21-3.92-3.64-3.92-6.35,0-.43-.28-.81-.68-.95-4.08-1.35-8.56-1.35-12.64,0-.4.14-.68.52-.68.95,0,2.71-1.5,5.14-3.92,6.35-1.28.64-2.08,1.93-2.08,3.36v4.32c-.84-.64-1.87-1.03-3-1.03-2.76,0-5,2.25-5,5,0,2.54,1.9,4.64,4.4,4.96.77,1.82,2.57,3.04,4.6,3.04h.56l-2.5,6.65c-.11.31-.07.65.12.92.18.27.49.43.82.43h4c.34,0,.67-.17.85-.47,1.38-2.21,3.76-3.53,6.37-3.53h3.56c2.61,0,4.99,1.32,6.37,3.53.18.3.51.47.85.47h4c.33,0,.64-.16.82-.43.19-.27.23-.61.12-.92l-2.5-6.65h.56c2.03,0,3.82-1.21,4.59-3.03,2.48-.3,4.41-2.41,4.41-4.97,0-2.75-2.24-5-5-5ZM17,25.676c0-.67.37-1.28.98-1.58,2.87-1.43,4.74-4.22,4.99-7.38,3.27-.95,6.79-.95,10.06,0,.25,3.16,2.12,5.95,5,7.38.6.3.97.91.97,1.58v7.32c-.84-.64-1.87-1.03-3-1.03h-16c-1.13,0-2.16.39-3,1.03v-7.32ZM38.82,35.966h-21.64c.42-1.16,1.52-2,2.82-2h16c1.3,0,2.4.84,2.82,2ZM39.56,47.966h-2.02c-1.79-2.51-4.65-4-7.76-4h-3.56c-3.11,0-5.97,1.49-7.76,4h-2.02l2.25-6h18.62l2.25,6ZM44.08,36.976l-.13-.01c-.49-.04-.93.28-1.05.75-.34,1.33-1.53,2.25-2.9,2.25h-24c-1.37,0-2.56-.92-2.9-2.25-.12-.47-.56-.79-1.05-.75h-.05c-1.65,0-3-1.34-3-3,0-1.65,1.35-3,3-3s3,1.35,3,3v3c0,.56.45,1,1,1h24c.55,0,1-.44,1-1v-3c0-1.65,1.35-3,3-3s3,1.35,3,3c0,1.66-1.35,3-2.92,3.01Z"/>
  <path d="M55.992,16.872c-.062-.5-.488-.876-.992-.876h-6c-.504,0-.93.375-.992.876l-1,8c-.036.285.053.571.243.786.189.215.463.338.75.338h3v18h-2c-.552,0-1,.448-1,1v4c0,.552.448,1,1,1h6c.552,0,1-.448,1-1v-4c0-.552-.448-1-1-1h-2v-18h1v1c0,.552.448,1,1,1s1-.448,1-1v-1c.287,0,.56-.123.75-.338.19-.215.278-.501.243-.786l-1-8ZM54,47.996h-4v-2h4v2ZM49.883,17.996h4.234l.75,6h-5.734l.75-6Z"/>
</svg>