<?xml version="1.0" encoding="UTF-8"?>
<svg id="Outline" xmlns="http://www.w3.org/2000/svg" version="1.1" viewBox="0 0 64 64">
  <!-- Generator: Adobe Illustrator 29.5.1, SVG Export Plug-In . SVG Version: 2.1.0 Build 141)  -->
  <path d="M36.36035,32.64648c.18945.22461.46875.35352.7627.35352h9.75391c.48926,0,.90625-.35352.98633-.83594l2-12c.04883-.29004-.0332-.58594-.22363-.81055-.18945-.22461-.46875-.35352-.7627-.35352h-9.75391c-.48926,0-.90625.35352-.98633.83594l-2,12c-.04883.29004.0332.58594.22363.81055ZM39.96973,21h7.72656l-1.66602,10h-7.72656l1.66602-10Z"/>
  <path d="M56,35c.54999,0,1-.45001,1-1v-18c0-.54999-.45001-1-1-1h-20c-.47998,0-.89001.33997-.97998.79999l-4,20c-.01001.02997,0,.06,0,.09003,0,.03998-.02002.06995-.02002.10999v12c0,.54999.45001,1,1,1h24c.54999,0,1-.45001,1-1v-10c0-.54999-.45001-1-1-1s-1,.45001-1,1v9h-4v-10.90002l3.82001-19.09998h.17999v17c0,.54999.45001,1,1,1ZM49,47h-16v-10h16v10ZM49.17999,35h-15.96002l3.60004-18h15.96002l-3.60004,18Z"/>
  <path d="M26,33h-1v-3c0-2.76001-2.23999-5-5-5h-.56c.34998-.59003.56-1.27002.56-2v-2c0-2.21002-1.78998-4-4-4s-4,1.78998-4,4v2c0,.72998.21002,1.40997.56,2h-.56c-2.76001,0-5,2.23999-5,5v6c0,1.64996,1.34998,3,3,3,.34998,0,.69-.07001,1-.17999v9.17999c0,.54999.45001,1,1,1h8c.54999,0,1-.45001,1-1v-3c0-.54999-.45001-1-1-1s-1,.45001-1,1v2h-2v-9c0-.54999-.45001-1-1-1s-1,.45001-1,1v9h-2v-14c0-.54999-.45001-1-1-1s-1,.45001-1,1v3c0,.54999-.45001,1-1,1s-1-.45001-1-1v-6c0-1.65002,1.34998-3,3-3h8c1.65002,0,3,1.34998,3,3v4c0,.54999.45001,1,1,1h2c.54999,0,1,.45001,1,1s-.45001,1-1,1h-3c-1.09998,0-2-.90002-2-2v-2c0-.54999-.45001-1-1-1s-1,.45001-1,1v8c0,.54999.45001,1,1,1s1-.45001,1-1v-2.56c.59003.34998,1.27002.56,2,.56h3c1.65002,0,3-1.35004,3-3s-1.34998-3-3-3ZM18,23c0,1.09998-.90002,2-2,2s-2-.90002-2-2v-2c0-1.10004.90002-2,2-2s2,.89996,2,2v2Z"/>
</svg>