<?xml version="1.0" encoding="UTF-8"?>
<svg id="Outline" xmlns="http://www.w3.org/2000/svg" version="1.1" viewBox="0 0 64 64">
  <!-- Generator: Adobe Illustrator 29.0.0, SVG Export Plug-In . SVG Version: 2.1.0 Build 186)  -->
  <path d="M51.91998,45.89996c.69-1.32996,1.08002-2.82996,1.08002-3.89996,0-2.76001-2.23999-5-5-5s-5,2.23999-5,5c0,1.07001.39001,2.57001,1.08002,3.89996-1.78003.86005-3.20001,2.25-4.08002,3.96002-.88-1.71002-2.29999-3.09998-4.08002-3.96002.69-1.32996,1.08002-2.82996,1.08002-3.89996,0-2.76001-2.23999-5-5-5s-5,2.23999-5,5c0,1.07001.39001,2.57001,1.08002,3.89996-1.78003.86005-3.20001,2.25-4.08002,3.96002-.88-1.71002-2.29999-3.09998-4.08002-3.96002.69-1.32996,1.08002-2.82996,1.08002-3.89996,0-2.76001-2.23999-5-5-5s-5,2.23999-5,5c0,1.07001.39001,2.57001,1.08002,3.89996-3.08002,1.48004-5.08002,4.59003-5.08002,8.10004v2c0,.54999.45001,1,1,1h48c.54999,0,1-.45001,1-1v-2c0-3.51001-2-6.62-5.08002-8.10004ZM16,39c1.65002,0,3,1.34998,3,3,0,1.96997-1.60999,5-3,5s-3-3.03003-3-5c0-1.65002,1.34998-3,3-3ZM23,55h-14v-1c0-2.83002,1.67999-5.32001,4.23999-6.41003.76001.84003,1.69,1.41003,2.76001,1.41003s2-.57001,2.76001-1.41003c2.56,1.09003,4.23999,3.58002,4.23999,6.41003v1ZM32,39c1.65002,0,3,1.34998,3,3,0,1.96997-1.60999,5-3,5s-3-3.03003-3-5c0-1.65002,1.34998-3,3-3ZM39,55h-14v-1c0-2.83002,1.67999-5.32001,4.23999-6.41003.76001.84003,1.69,1.41003,2.76001,1.41003s2-.57001,2.76001-1.41003c2.56,1.09003,4.23999,3.58002,4.23999,6.41003v1ZM48,39c1.65002,0,3,1.34998,3,3,0,1.96997-1.60999,5-3,5s-3-3.03003-3-5c0-1.65002,1.34998-3,3-3ZM55,55h-14v-1c0-2.83002,1.67999-5.32001,4.23999-6.41003.76001.84003,1.69,1.41003,2.76001,1.41003s2-.57001,2.76001-1.41003c2.56,1.09003,4.23999,3.58002,4.23999,6.41003v1Z"/>
  <path d="M32,35c7.71973,0,14-6.28027,14-14s-6.28027-14-14-14-14,6.28027-14,14,6.28027,14,14,14ZM32,9c6.61719,0,12,5.3833,12,12s-5.38281,12-12,12-12-5.3833-12-12,5.38281-12,12-12Z"/>
  <path d="M32,31c5.51367,0,10-4.48584,10-10s-4.48633-10-10-10-10,4.48584-10,10,4.48633,10,10,10ZM32,13c4.41113,0,8,3.58887,8,8s-3.58887,8-8,8-8-3.58887-8-8,3.58887-8,8-8Z"/>
  <path d="M28.49805,25.86475c.15527.09033.32812.13525.50195.13525.1709,0,.34277-.04395.49609-.13184l7-4c.31152-.17773.50391-.50928.50391-.86816s-.19238-.69043-.50391-.86816l-7-4c-.30957-.17773-.68945-.17578-.99805.00342-.30859.17871-.49805.5083-.49805.86475v8c0,.35645.18945.68604.49805.86475ZM30,18.72314l3.98438,2.27686-3.98438,2.27686v-4.55371Z"/>
  <path d="M12.34277,32.37842c.19531.19531.45117.29297.70703.29297s.51172-.09766.70703-.29297c.39062-.39062.39062-1.02344,0-1.41406l-2.82812-2.82812c-.39062-.39062-1.02344-.39062-1.41406,0s-.39062,1.02344,0,1.41406l2.82812,2.82812Z"/>
  <path d="M8,36.20703h4c.55273,0,1-.44775,1-1s-.44727-1-1-1h-4c-.55273,0-1,.44775-1,1s.44727,1,1,1Z"/>
  <path d="M16.58594,31.62109c.55273,0,1-.44775,1-1v-4c0-.55225-.44727-1-1-1s-1,.44775-1,1v4c0,.55225.44727,1,1,1Z"/>
  <path d="M50.9502,32.67139c.25586,0,.51172-.09766.70703-.29297l2.82812-2.82812c.39062-.39062.39062-1.02344,0-1.41406s-1.02344-.39062-1.41406,0l-2.82812,2.82812c-.39062.39062-.39062,1.02344,0,1.41406.19531.19531.45117.29297.70703.29297Z"/>
  <path d="M51,35.20703c0,.55225.44727,1,1,1h4c.55273,0,1-.44775,1-1s-.44727-1-1-1h-4c-.55273,0-1,.44775-1,1Z"/>
  <path d="M47.41406,31.62109c.55273,0,1-.44775,1-1v-4c0-.55225-.44727-1-1-1s-1,.44775-1,1v4c0,.55225.44727,1,1,1Z"/>
</svg>