<?xml version="1.0" encoding="UTF-8"?>
<svg id="Outline" xmlns="http://www.w3.org/2000/svg" version="1.1" viewBox="0 0 64 64">
  <!-- Generator: Adobe Illustrator 29.5.1, SVG Export Plug-In . SVG Version: 2.1.0 Build 141)  -->
  <path d="M27.001,14c-.553,0-1,.447-1,1v2c0,.553.447,1,1,1s1-.447,1-1v-2c0-.553-.447-1-1-1Z"/>
  <path d="M37.001,18c.553,0,1-.447,1-1v-2c0-.553-.447-1-1-1s-1,.447-1,1v2c0,.553.447,1,1,1Z"/>
  <path d="M35.001,22c0-.553-.447-1-1-1h-4c-.553,0-1,.447-1,1s.447,1,1,1h4c.553,0,1-.447,1-1Z"/>
  <path d="M54.551,43.17l-5.55-3.71v-2.92l5.55-3.71c.28-.18.45-.5.45-.83s-.17-.65-.45-.83l-6-4c-.33-.23-.77-.23-1.1,0l-5.75,3.83h-4.7v-1c0-.55-.45-1-1-1h-5v-2.03c.33.01.66.03,1,.03,5.44,0,10.1-1.66,12.73-4.19.41.11.84.19,1.27.19,2.76,0,5-2.24,5-5v-5.18c1.16-.42,2-1.52,2-2.82,0-1.65-1.35-3-3-3s-3,1.35-3,3c0,1.3.84,2.4,2,2.82v1.21c-.84-.64-1.87-1.03-3-1.03-.43,0-.86.08-1.27.19-2.63-2.53-7.29-4.19-12.73-4.19s-10.1,1.66-12.73,4.19c-.41-.11-.84-.19-1.27-.19-1.13,0-2.16.39-3,1.03v-1.21c1.16-.42,2-1.52,2-2.82,0-1.65-1.35-3-3-3s-3,1.35-3,3c0,1.3.84,2.4,2,2.82v5.18c0,2.76,2.24,5,5,5,.43,0,.86-.08,1.27-.19,2.13,2.05,5.59,3.53,9.73,4.02v2.17h-5c-.55,0-1,.45-1,1v1h-9c-1.65,0-3,1.35-3,3v2.59l-.29-.3c-.39-.39-1.03-.39-1.42,0-.39.39-.39,1.03,0,1.42l1.71,1.7v2.59c0,1.65,1.35,3,3,3h3.59l-.3.29c-.39.39-.39,1.03,0,1.42.397.377,1.022.397,1.42,0l2-2c.39-.39.39-1.03,0-1.42l-2-2c-.39-.39-1.03-.39-1.42,0-.39.39-.39,1.03,0,1.42l.3.29h-3.59c-.55,0-1-.45-1-1v-2.59l1.71-1.7c.39-.39.39-1.03,0-1.42-.39-.39-1.03-.39-1.42,0l-.29.3v-2.59c0-.55.45-1,1-1h9v1c0,.55.45,1,1,1h5v6h-5c-.55,0-1,.45-1,1v4c0,.55.45,1,1,1h5v4.18c-1.16.42-2,1.52-2,2.82,0,1.65,1.35,3,3,3s3-1.35,3-3c0-1.3-.84-2.4-2-2.82v-4.18h5c.55,0,1-.45,1-1v-1h4.7l5.75,3.83c.16.11.36.17.55.17s.39-.06.55-.17l6-4c.28-.18.45-.5.45-.83s-.17-.65-.45-.83ZM50.001,9c.55,0,1,.45,1,1s-.45,1-1,1-1-.45-1-1,.45-1,1-1ZM46.171,15.02c1.57.09,2.83,1.38,2.83,2.98s-1.26,2.89-2.83,2.98c.53-.93.83-1.93.83-2.98s-.3-2.05-.83-2.98ZM14.001,11c-.55,0-1-.45-1-1s.45-1,1-1,1,.45,1,1-.45,1-1,1ZM17.831,20.98c-1.57-.09-2.83-1.38-2.83-2.98s1.26-2.89,2.83-2.98c-.53.93-.83,1.93-.83,2.98s.3,2.05.83,2.98ZM48.001,29.2l4.2,2.8-4.2,2.8-4.2-2.8,4.2-2.8ZM19.001,18c0-3.79,5.95-7,13-7s13,3.21,13,7-5.95,7-13,7-13-3.21-13-7ZM25.001,33v-2h10v2h-10ZM30.001,55c-.55,0-1-.45-1-1s.45-1,1-1,1,.45,1,1-.45,1-1,1ZM35.001,45h-10v-2h10v2ZM37.001,43v-1c0-.55-.45-1-1-1h-5v-6h5c.55,0,1-.45,1-1v-1h4.7l5.3,3.54v2.92l-5.3,3.54h-4.7ZM48.001,46.8l-4.2-2.8,4.2-2.8,4.2,2.8-4.2,2.8Z"/>
</svg>