<?xml version="1.0" encoding="UTF-8"?>
<svg id="Outline" xmlns="http://www.w3.org/2000/svg" version="1.1" viewBox="0 0 64 64">
  <!-- Generator: Adobe Illustrator 29.5.1, SVG Export Plug-In . SVG Version: 2.1.0 Build 141)  -->
  <path d="M56.55,23.171l-5.55-3.71v-5.46c0-1.65-1.35-3-3-3h-9.7l-5.75-3.83c-.33-.23-.77-.23-1.1,0l-5.75,3.83h-9.7c-1.65,0-3,1.35-3,3v5.46l-5.55,3.71c-.28.18-.45.5-.45.83v30c0,1.65,1.35,3,3,3h44c1.65,0,3-1.35,3-3v-30c0-.33-.17-.65-.45-.83ZM32,9.201l2.7,1.8h-5.4l2.7-1.8ZM15,14.001c0-.55.45-1,1-1h32c.55,0,1,.45,1,1v16.88l-17,9.76-17-9.77V14.001ZM9,24.541l4-2.67v7.85l-4-2.3v-2.88ZM49.05,55.001l-1.51-.86c-.48-.28-1.09-.11-1.36.37-.09.15-.12.32-.12.49H10c-.55,0-1-.45-1-1v-19.7l.24.13c.15.09.32.14.49.14.35,0,.69-.18.87-.51.28-.47.11-1.09-.37-1.36l-1.23-.71v-2.26l22.49,12.92c.01,0,.02.01.03.02l4.04,2.32c.03.02.06.03.1.05l17.33,9.96h-3.94ZM55,32.141l-1.23.71c-.48.27-.65.89-.37,1.36.273.459.894.65,1.36.37l.24-.13v19.4l-16.89-9.7.22-.13c.48-.27.65-.89.37-1.36-.27-.48-.88-.65-1.36-.37l-1.23.7-2.1-1.2,20.99-12.05v2.4ZM55,27.431l-4,2.3v-7.86l4,2.67v2.89Z"/>
  <path d="M37.368,48.291l-3.392-1.949c-.48-.274-1.09-.11-1.365.369-.275.479-.11,1.09.369,1.365l3.392,1.949c.445.256,1.089.11,1.365-.369.275-.479.11-1.09-.369-1.365Z"/>
  <path d="M44.152,52.189l-3.392-1.949c-.479-.275-1.09-.111-1.365.369-.275.479-.11,1.09.369,1.365l3.392,1.949c.451.259,1.087.114,1.365-.369.275-.479.11-1.09-.369-1.365Z"/>
  <path d="M23.8,40.496l-3.392-1.949c-.481-.275-1.089-.111-1.365.369-.275.479-.11,1.09.369,1.365,0,0,3.392,1.949,3.392,1.949.476.272,1.091.107,1.365-.369.275-.479.11-1.09-.369-1.365Z"/>
  <path d="M30.584,44.394l-3.392-1.949c-.48-.274-1.09-.11-1.365.369-.275.479-.11,1.09.369,1.365,0,0,3.392,1.949,3.392,1.949.476.272,1.091.106,1.365-.369.275-.479.11-1.09-.369-1.365Z"/>
  <path d="M17.017,36.599l-3.393-1.949c-.48-.275-1.091-.11-1.365.369-.275.479-.11,1.09.369,1.365,0,0,3.393,1.949,3.393,1.949.476.272,1.093.107,1.365-.369.275-.479.109-1.09-.369-1.365Z"/>
  <path d="M50.481,34.738l-3.286,1.888c-.478.275-.644.887-.369,1.365.273.474.893.639,1.365.369l3.286-1.888c.479-.275.645-.887.369-1.365-.274-.479-.886-.644-1.365-.369Z"/>
  <path d="M43.909,38.513l-3.286,1.888c-.479.275-.645.887-.369,1.365.26.452.881.646,1.365.369l3.286-1.888c.479-.275.645-.887.369-1.365-.274-.479-.886-.644-1.365-.369Z"/>
  <path d="M39,23.001h-14c-.553,0-1,.447-1,1v4c0,.553.447,1,1,1h.28l1.772,5.316c.136.408.518.684.948.684h8c.431,0,.812-.275.948-.684l1.772-5.316h.28c.553,0,1-.447,1-1v-4c0-.553-.447-1-1-1ZM26,25.001h12v2h-12v-2ZM35.279,33.001h-6.559l-1.333-4h9.225l-1.333,4Z"/>
  <path d="M25.293,20.708c.195.195.451.293.707.293.873,0,1.326-1.089.707-1.707l-.293-.293h3.586c.553,0,1-.447,1-1s-.447-1-1-1h-3.586l.293-.293c.391-.391.391-1.023,0-1.414s-1.023-.391-1.414,0l-2,2c-.391.391-.391,1.023,0,1.414l2,2Z"/>
  <path d="M34,19.001h3.586l-.293.293c-.391.391-.391,1.023,0,1.414.365.365,1.024.39,1.414,0l2-2c.391-.391.391-1.023,0-1.414l-2-2c-.391-.391-1.023-.391-1.414,0s-.391,1.023,0,1.414l.293.293h-3.586c-.553,0-1,.447-1,1s.447,1,1,1Z"/>
</svg>