<?xml version="1.0" encoding="UTF-8"?>
<svg id="Outline" xmlns="http://www.w3.org/2000/svg" version="1.1" viewBox="0 0 64 64">
  <!-- Generator: Adobe Illustrator 29.5.1, SVG Export Plug-In . SVG Version: 2.1.0 Build 141)  -->
  <path d="M32,7c-13.785,0-25,11.215-25,25s11.215,25,25,25,25-11.215,25-25S45.785,7,32,7ZM32,55c-12.683,0-23-10.317-23-23s10.317-23,23-23,23,10.317,23,23-10.317,23-23,23Z"/>
  <path d="M32,11c-4.14,0-8.142,1.206-11.566,3.483-1.151.752-2.236,1.632-3.227,2.616-.116.101-.211.229-.272.377-.154.373-.067.805.219,1.091.205.205.488.307.783.29h5.578c.553,0,1-.447,1-1s-.447-1-1-1h-2.982c.326-.246.661-.481,1.002-.704,3.103-2.063,6.722-3.153,10.466-3.153,10.477,0,19,8.523,19,19,0,3.744-1.09,7.363-3.153,10.466-.306.46-.181,1.081.279,1.387.17.113.362.167.553.167.323,0,.642-.156.834-.446,2.281-3.432,3.487-7.434,3.487-11.573,0-11.579-9.421-21-21-21Z"/>
  <path d="M46.063,45.143h-5.578c-.553,0-1,.447-1,1s.447,1,1,1h2.982c-.326.246-.661.481-1.002.704-3.103,2.063-6.722,3.153-10.466,3.153-10.477,0-19-8.523-19-19,0-3.744,1.09-7.363,3.153-10.466.306-.46.181-1.081-.279-1.387-.459-.307-1.081-.182-1.387.279-2.281,3.432-3.487,7.434-3.487,11.573,0,11.579,9.421,21,21,21,4.14,0,8.142-1.206,11.566-3.483,1.151-.752,2.236-1.632,3.227-2.616.116-.101.211-.229.272-.377.154-.373.067-.805-.219-1.091-.206-.206-.497-.315-.783-.29Z"/>
  <path d="M40.005,21h-20.01c-1.651,0-2.995,1.344-2.995,2.995v12.01c0,1.651,1.344,2.995,2.995,2.995h1.005v1c0,1.654,1.346,3,3,3h20c1.654,0,3-1.346,3-3v-12c0-1.654-1.346-3-3-3h-1v-1.005c0-1.651-1.344-2.995-2.995-2.995ZM19,36.005v-12.01c0-.549.446-.995.995-.995h20.01c.549,0,.995.446.995.995v12.01c0,.549-.446.995-.995.995h-20.01c-.549,0-.995-.446-.995-.995ZM44,27c.561,0,1,.439,1,1v12c0,.561-.439,1-1,1h-20c-.561,0-1-.439-1-1v-1h17.005c1.651,0,2.995-1.344,2.995-2.995v-9.005h1Z"/>
  <path d="M23.077,34.077c0,.553.447,1,1,1h11.846c.553,0,1-.447,1-1,0-.594.483-1.077,1.077-1.077.553,0,1-.447,1-1v-3.923c0-.553-.447-1-1-1-.594,0-1.077-.483-1.077-1.077,0-.553-.447-1-1-1h-11.846c-.553,0-1,.447-1,1,0,.594-.483,1.077-1.077,1.077-.553,0-1,.447-1,1v3.923c0,.553.447,1,1,1,.594,0,1.077.483,1.077,1.077ZM28,30.077c0-1.626.916-3,2-3s2,1.374,2,3-.916,3-2,3-2-1.374-2-3ZM37,28.91v2.257c-.894.308-1.603,1.017-1.91,1.91h-1.91c.508-.838.82-1.87.82-3,0-1.166-.334-2.226-.871-3.077h1.961c.308.894,1.017,1.603,1.91,1.91ZM23,28.91c.894-.308,1.603-1.017,1.91-1.91h1.961c-.537.851-.871,1.911-.871,3.077,0,1.13.313,2.162.82,3h-1.91c-.308-.894-1.017-1.603-1.91-1.91v-2.257Z"/>
</svg>