<?xml version="1.0" encoding="UTF-8"?>
<svg id="Outline" xmlns="http://www.w3.org/2000/svg" version="1.1" viewBox="0 0 64 64">
  <!-- Generator: Adobe Illustrator 29.5.1, SVG Export Plug-In . SVG Version: 2.1.0 Build 141)  -->
  <path d="M8,18h4c.553,0,1-.447,1-1v-4h4c.553,0,1-.447,1-1v-4c0-.553-.447-1-1-1h-9c-.553,0-1,.447-1,1v9c0,.553.447,1,1,1ZM9,9h7v2h-4c-.553,0-1,.447-1,1v4h-2v-7Z"/>
  <path d="M56,7h-9c-.553,0-1,.447-1,1v4c0,.553.447,1,1,1h4v4c0,.553.447,1,1,1h4c.553,0,1-.447,1-1v-9c0-.553-.447-1-1-1ZM55,16h-2v-4c0-.553-.447-1-1-1h-4v-2h7v7Z"/>
  <path d="M17,51h-4v-4c0-.553-.447-1-1-1h-4c-.553,0-1,.447-1,1v9c0,.553.447,1,1,1h9c.553,0,1-.447,1-1v-4c0-.553-.447-1-1-1ZM16,55h-7v-7h2v4c0,.553.447,1,1,1h4v2Z"/>
  <path d="M56,46h-4c-.553,0-1,.447-1,1v4h-4c-.553,0-1,.447-1,1v4c0,.553.447,1,1,1h9c.553,0,1-.447,1-1v-9c0-.553-.447-1-1-1ZM55,55h-7v-2h4c.553,0,1-.447,1-1v-4h2v7Z"/>
  <path d="M49,16v32c0,.55-.45,1-1,1H16c-.55,0-1-.45-1-1V16c0-.55.45-1,1-1h4c.55,0,1,.45,1,1s-.45,1-1,1h-3v30h30v-30h-23c-.55,0-1-.45-1-1s.45-1,1-1h24c.55,0,1,.45,1,1Z"/>
  <path d="M32,19c-.553,0-1,.447-1,1v1.051c-5.268.478-9.472,4.681-9.949,9.949h-1.051c-.553,0-1,.447-1,1s.447,1,1,1h1.051c.478,5.268,4.681,9.472,9.949,9.949v1.051c0,.553.447,1,1,1s1-.447,1-1v-1.051c5.268-.478,9.472-4.681,9.949-9.949h1.051c.553,0,1-.447,1-1s-.447-1-1-1h-1.05c-.164-1.808-.766-3.542-1.777-5.063-.306-.459-.926-.587-1.387-.279-.46.306-.585.927-.279,1.387.791,1.19,1.263,2.544,1.42,3.956h-.927c-.553,0-1,.447-1,1s.447,1,1,1h.941c-.463,4.165-3.776,7.478-7.941,7.941v-.941c0-.553-.447-1-1-1s-1,.447-1,1v.941c-4.165-.463-7.478-3.776-7.941-7.941h.941c.553,0,1-.447,1-1s-.447-1-1-1h-.941c.463-4.165,3.776-7.478,7.941-7.941v.941c0,.553.447,1,1,1s1-.447,1-1v-.927c1.412.157,2.766.629,3.956,1.42.463.306,1.081.18,1.387-.279.306-.46.181-1.081-.279-1.387-1.521-1.01-3.255-1.613-5.063-1.777v-1.05c0-.553-.447-1-1-1Z"/>
  <path d="M32,27c-2.757,0-5,2.243-5,5s2.243,5,5,5,5-2.243,5-5-2.243-5-5-5ZM32,35c-1.654,0-3-1.346-3-3s1.346-3,3-3,3,1.346,3,3-1.346,3-3,3Z"/>
</svg>