<?xml version="1.0" encoding="UTF-8"?>
<svg id="Outline" xmlns="http://www.w3.org/2000/svg" version="1.1" viewBox="0 0 64 64">
  <!-- Generator: Adobe Illustrator 29.3.1, SVG Export Plug-In . SVG Version: 2.1.0 Build 151)  -->
  <path d="M53.94,29.31872l-1.03998,2.98004c-3.16003,8.64001-10.73004,14.09998-19.90002,14.46997v9.22003c0,.54999-.45001,1-1,1s-1-.45001-1-1v-9.22003c-9.16998-.37-16.73999-5.82001-19.89001-14.45001l-1.04999-3c-.13-.37-.03998-.77997.25-1.04999.28003-.26996.70001-.34998,1.06-.20996l.84998.33997c2.55005,1.02002,5.34003,1.35999,8.06006.97003l.32996-.05005c-.42999-.39996-.84998-.82996-1.23999-1.27997-.37-.41998-.32001-1.04999.09003-1.40997.41998-.37006,1.04999-.33002,1.40997.08997.82001.92999,1.72998,1.76001,2.71002,2.45001.32996.23999.48999.65997.38995,1.06-.08997.39001-.41998.69-.82996.75l-2.58002.37c-2.65002.38-5.35999.15002-7.90997-.66998l.34998.97998c3.37,9.22998,11.32001,12.79999,18,13.12v-2.21997l-9.51001-5.71002c-.47998-.28998-.63-.90002-.34998-1.37.28998-.47998.89996-.63,1.37-.34998l8.48999,5.08997v-9.75l-9.62-7.70001c-.44-.33997-.51001-.96997-.16003-1.39996.35004-.42999.97003-.51001,1.40002-.16003l8.38,6.70001v-7.91998c0-.54999.45001-1,1-1s1,.45001,1,1v7.91998l8.38-6.70001c.42999-.34998,1.06-.27997,1.40002.16003.34998.42999.27997,1.06-.16003,1.39996l-9.62,7.70001v9.75l8.48999-5.08997c.47003-.28003,1.08002-.13,1.37.34998.28003.46997.13,1.08002-.34998,1.37l-9.51001,5.71002v2.21997c6.67999-.32001,14.63-3.89996,18.01001-13.14001l.33997-.95996c-2.54999.82001-5.25995,1.03998-7.90997.66998l-2.58002-.37c-.40997-.06-.73999-.35999-.82996-.75-.10004-.40002.06-.82001.38995-1.04999,3.92004-2.81,6.34003-7.28003,6.56-12.07001l-7.87.87c-.34998.03998-.69-.09998-.89996-.38l-6.21002-7.97998-6.21002,7.97998c-.20996.28003-.53998.41998-.89996.38l-7.87-.87c.03998,1,.19,1.98999.41998,2.95001.13.53998-.19,1.07996-.72998,1.20996-.54004.14001-1.08002-.19-1.21002-.72998-.33002-1.34998-.5-2.73999-.5-4.15002v-.39996c0-.28003.12-.56.33002-.75.20996-.17999.5-.27002.77997-.23999l8.44.92999,6.66003-8.54999c.38-.49005,1.19995-.49005,1.57996,0l6.66003,8.54999,8.44-.92999c.27997-.03003.56.06.77997.23999.21002.19.33002.46997.33002.75v.39996c0,4.92004-2.06,9.60004-5.60999,12.92999l.32996.05005c2.72003.38995,5.51001.04999,8.06006-.97003l.84998-.33997c.35999-.14001.77997-.06,1.06.20996.28998.27002.38.67999.25,1.04999Z"/>
  <circle cx="18" cy="23.98876" r="1"/>
</svg>