<?xml version="1.0" encoding="UTF-8"?>
<svg id="Outline" xmlns="http://www.w3.org/2000/svg" version="1.1" viewBox="0 0 64 64">
  <!-- Generator: Adobe Illustrator 29.5.1, SVG Export Plug-In . SVG Version: 2.1.0 Build 141)  -->
  <path d="M53.423,33.62c-.54-.61-.82-1.39-.78-2.19.02-.31.03-.63.03-.94,0-7.44-4.35-13.49-9.69-13.49s-9.68,6.05-9.68,13.49c0,.31,0,.63.02.94.04.81-.23,1.58-.76,2.17-.2.22-.38.45-.56.67-.18-.22-.36-.45-.55-.66-.54-.6-.82-1.38-.78-2.17.02-.32.03-.63.03-.95,0-2.63-.53-5.16-1.54-7.32-.24-.5-.83-.72-1.33-.49-.5.24-.72.83-.49,1.33.89,1.9,1.36,4.14,1.36,6.48,0,.28-.01.55-.03.84-.06,1.34.4,2.62,1.3,3.62.3.33.58.7.84,1.07-1.27,2.22-1.93,4.76-1.85,7.38.07,2.36.73,4.57,1.84,6.5-2.34,3.31-6.2,5.25-10.29,5.09-6.17-.25-11.34-5.47-11.52-11.65-.1-3.11,1-6.09,3.08-8.4.89-.99,1.34-2.27,1.28-3.63-.02-.27-.03-.54-.03-.82,0-6.34,3.45-11.49,7.69-11.49,1.51,0,2.97.67,4.25,1.93.39.39,1.02.39,1.41-.01.39-.39.39-1.02,0-1.41-.62-.61-1.27-1.1-1.95-1.49.79-2.41,2.23-4.54,4.21-6.18.2-.17.33-.41.36-.68.02-.26-.06-.53-.23-.73l-2.56-3.07c-.36-.42-.99-.48-1.41-.13-1.7,1.42-3.13,3.08-4.24,4.92-.21-1.16-.66-2.42-1.62-3.37-2.28-2.28-6.33-1.73-6.5-1.7-.44.06-.78.41-.85.84-.02.18-.58,4.23,1.7,6.51,1.51,1.51,3.79,1.78,5.22,1.78.07,0,.13-.01.2-.01-.13.4-.24.81-.35,1.22-4.2,1.47-7.33,6.77-7.33,13.07,0,.32.01.63.03.94.04.81-.23,1.58-.76,2.17-2.44,2.69-3.71,6.17-3.6,9.8.22,7.33,6.12,13.3,13.44,13.59.19.01.38.01.57.01,4.29,0,8.36-1.99,11-5.33,2.46,3.1,6.19,5.15,10.4,5.32.2.01.39.01.59.01,3.64,0,7.07-1.38,9.71-3.91,2.78-2.67,4.31-6.26,4.31-10.12,0-3.45-1.27-6.78-3.59-9.35ZM25.623,9.43l1.28,1.53c-1.85,1.75-3.23,3.9-4.04,6.29-.6-.16-1.22-.25-1.85-.25-.06,0-.12.01-.18.01.91-2.9,2.54-5.49,4.79-7.58ZM14.993,13.02c-1.08-1.09-1.21-2.96-1.18-4.01,1.05-.03,2.93.1,4.01,1.18,1.09,1.08,1.21,2.96,1.19,4.01-1.07.03-2.93-.1-4.02-1.18ZM51.313,51.65c-2.38,2.29-5.5,3.48-8.83,3.34-6.17-.25-11.34-5.48-11.52-11.65-.09-3.11,1-6.09,3.08-8.4.89-.99,1.35-2.27,1.28-3.61-.02-.28-.02-.56-.02-.84,0-6.34,3.44-11.49,7.68-11.49s7.69,5.15,7.69,11.49c0,.28-.01.56-.02.84-.07,1.33.39,2.62,1.28,3.62,1.99,2.21,3.08,5.06,3.08,8.02,0,3.31-1.31,6.39-3.7,8.68Z"/>
  <path d="M51.139,39.187c-.233-.5-.828-.717-1.329-.483-.5.233-.717.828-.483,1.329.436.934.656,1.932.656,2.967,0,3.86-3.141,7-7,7s-7-3.14-7-7,3.141-7,7-7c1.481,0,2.896.459,4.093,1.329.447.325,1.072.226,1.396-.221.325-.446.227-1.072-.221-1.396-1.539-1.12-3.361-1.711-5.269-1.711-4.963,0-9,4.038-9,9s4.037,9,9,9,9-4.038,9-9c0-1.33-.284-2.612-.844-3.813Z"/>
</svg>