<?xml version="1.0" encoding="UTF-8"?>
<svg id="Outline" xmlns="http://www.w3.org/2000/svg" version="1.1" viewBox="0 0 64 64">
  <!-- Generator: Adobe Illustrator 29.3.1, SVG Export Plug-In . SVG Version: 2.1.0 Build 151)  -->
  <path d="M32,7c-12.33643,0-22,5.70996-22,13,0,2.72266,1.38086,5.30957,4,7.50586v5.49414c0,.55273.44775,1,1,1s1-.44727,1-1v-5.96973c0-.30566-.14014-.5957-.38037-.78516-1.65137-1.30273-3.61963-3.44434-3.61963-6.24512,0-6.06543,8.97217-11,20-11s20,4.93457,20,11c0,2.80078-1.96826,4.94238-3.61963,6.24512-.24023.18945-.38037.47949-.38037.78516v26.96973c0,.55176-.44873,1-1,1h-30c-.55127,0-1-.44824-1-1v-13c0-.55273-.44775-1-1-1s-1,.44727-1,1v13c0,1.6543,1.3457,3,3,3h30c1.6543,0,3-1.3457,3-3v-26.49414c2.61914-2.19629,4-4.7832,4-7.50586,0-7.29004-9.66357-13-22-13Z"/>
  <path d="M19,53h26c.55225,0,1-.44727,1-1v-26.42969l1.1416-.90039c1.87012-1.47461,2.8584-3.08887,2.8584-4.66992,0-4.79395-8.41113-9-18-9s-18,4.20605-18,9c0,1.58105.98828,3.19531,2.85791,4.66992l1.14209.90039v26.42969c0,.55273.44775,1,1,1ZM16,20c0-2.78711,6.38135-7,16-7s16,4.21289,16,7c0,1.25879-1.31348,2.48242-2.09717,3.09961l-1.52246,1.20117c-.24023.18945-.38037.47852-.38037.78516v25.91406h-24v-25.91406c0-.30664-.14014-.5957-.38037-.78516l-1.52295-1.20117c-.7832-.61719-2.09668-1.84082-2.09668-3.09961Z"/>
  <path d="M23,49h18c.55225,0,1-.44727,1-1,0-1.4339-.30896-2.79523-.85492-4.0293.48047-.07288.85492-.46948.85492-.9707,0-1.4339-.30896-2.79523-.85492-4.0293.48047-.07288.85492-.46948.85492-.9707,0-5.51367-4.48584-10-10-10s-10,4.48633-10,10c0,.50122.37445.89783.85492.9707-.54596,1.23407-.85492,2.5954-.85492,4.0293,0,.50122.37445.89783.85492.9707-.54596,1.23407-.85492,2.5954-.85492,4.0293,0,.55273.44775,1,1,1ZM24.06201,47c.49414-3.94043,3.86572-7,7.93799-7s7.44385,3.05957,7.93799,7h-15.87598ZM32,30c4.0462,0,7.39764,3.02155,7.92511,6.92548-1.82959-2.38123-4.69696-3.92548-7.92511-3.92548s-6.09552,1.54425-7.92511,3.92548c.52747-3.90393,3.87891-6.92548,7.92511-6.92548ZM32,35c4.0462,0,7.39764,3.02155,7.92511,6.92548-1.82959-2.38123-4.69696-3.92548-7.92511-3.92548s-6.09552,1.54425-7.92511,3.92548c.52747-3.90393,3.87891-6.92548,7.92511-6.92548Z"/>
  <path d="M24.00007,25.99217c.25571.00072.51343-.09161.70696-.28513l6-6c.39062-.39062.39062-1.02344,0-1.41406s-1.02344-.39062-1.41406,0l-5.99996,5.99996c-.61349.61349-.15322,1.69682.70706,1.69924Z"/>
  <path d="M28.29299,25.70705c.38746.38744,1.02763.38639,1.41404-.00002l6-6c.39062-.39062.39062-1.02344,0-1.41406s-1.02344-.39062-1.41406,0l-6,6c-.39062.39062-.39062,1.02344.00002,1.41408Z"/>
  <path d="M33.29297,25.70703c.37051.3705,1.02022.39384,1.41406,0l6-6c.39062-.39062.39062-1.02344,0-1.41406s-1.02344-.39062-1.41406,0l-6,6c-.3906.3906-.39062,1.02336,0,1.41406Z"/>
  <circle cx="15" cy="37" r="1"/>
</svg>