<?xml version="1.0" encoding="UTF-8"?>
<svg id="Outline" xmlns="http://www.w3.org/2000/svg" version="1.1" viewBox="0 0 64 64">
  <!-- Generator: Adobe Illustrator 29.5.1, SVG Export Plug-In . SVG Version: 2.1.0 Build 141)  -->
  <path d="M44.83,29.7l.88-.44c6.97-3.48,11.29-10.48,11.29-18.26,0-.55-.45-1-1-1h-8.14l.14-1.93c.02-.28-.08-.55-.27-.75-.19-.2-.45-.32-.73-.32h-30c-.28,0-.54.12-.73.32-.19.2-.29.47-.27.75l.14,1.93h-8.14c-.55,0-1,.45-1,1,0,7.78,4.32,14.78,11.29,18.26l.88.44c1.78,2.96,4.55,5.24,7.82,6.41-.03,2.68-1.28,5.22-3.35,6.89h-.64c-1.65,0-3,1.35-3,3v5c-1.65,0-3,1.35-3,3v2c0,.55.45,1,1,1h20c.55,0,1-.45,1-1s-.45-1-1-1h-19v-1c0-.55.45-1,1-1h24c.55,0,1,.45,1,1v1h-3c-.55,0-1,.45-1,1s.45,1,1,1h4c.55,0,1-.45,1-1v-2c0-1.65-1.35-3-3-3v-5c0-1.65-1.35-3-3-3h-.64c-2.07-1.67-3.32-4.21-3.35-6.89,3.27-1.17,6.04-3.45,7.82-6.41ZM46.92,23.1l.8-11.1h7.25c-.32,6.09-3.59,11.54-8.77,14.7.37-1.14.63-2.35.72-3.6ZM9.03,12h7.25l.8,11.1c.09,1.25.35,2.46.72,3.6-5.18-3.16-8.45-8.61-8.77-14.7ZM37.52,43h-3.52c-.55,0-1,.45-1,1s.45,1,1,1h7c.55,0,1,.45,1,1v5h-20v-5c0-.55.45-1,1-1h7c.55,0,1-.45,1-1s-.45-1-1-1h-3.52c1.46-1.78,2.33-4,2.48-6.32.98.2,2,.32,3.04.32s2.06-.12,3.04-.32c.15,2.32,1.02,4.54,2.48,6.32ZM32,35c-6.77,0-12.45-5.29-12.93-12.04l-1-13.96h27.86l-1,13.96c-.48,6.75-6.16,12.04-12.93,12.04Z"/>
  <path d="M32,12c-3.309,0-6,2.691-6,6,0,2.967,2.167,5.431,5,5.91v3.09h-2c-.553,0-1,.447-1,1s.447,1,1,1h2v2c0,.553.447,1,1,1s1-.447,1-1v-2h2c.553,0,1-.447,1-1s-.447-1-1-1h-2v-3.09c2.833-.478,5-2.942,5-5.91,0-3.309-2.691-6-6-6ZM32,22c-2.206,0-4-1.794-4-4s1.794-4,4-4,4,1.794,4,4-1.794,4-4,4Z"/>
</svg>