<?xml version="1.0" encoding="UTF-8"?>
<svg id="Outline" xmlns="http://www.w3.org/2000/svg" version="1.1" viewBox="0 0 64 64">
  <!-- Generator: Adobe Illustrator 29.5.1, SVG Export Plug-In . SVG Version: 2.1.0 Build 141)  -->
  <path d="M35.22,27.36c.48-.67.78-1.48.78-2.36,0-.73-.21-1.41-.56-2h4.56c1.65,0,3-1.35,3-3v-10c0-1.65-1.35-3-3-3h-16c-1.65,0-3,1.35-3,3v10c0,1.65,1.35,3,3,3h4.56c-.35.59-.56,1.27-.56,2,0,.88.3,1.69.78,2.36-6.73,1.47-11.78,7.47-11.78,14.64,0,8.27,6.73,15,15,15s15-6.73,15-15c0-7.17-5.05-13.17-11.78-14.64ZM39,9h1c.55,0,1,.45,1,1v10c0,.55-.45,1-1,1h-1v-12ZM25,21h-1c-.55,0-1-.45-1-1v-10c0-.55.45-1,1-1h1v12ZM27,21v-12h10v12h-10ZM34,25c0,1.1-.9,2-2,2s-2-.9-2-2,.9-2,2-2,2,.9,2,2ZM32,55c-7.17,0-13-5.83-13-13s5.83-13,13-13,13,5.83,13,13-5.83,13-13,13Z"/>
  <path d="M40.877,42l1.499-2.589c.142-.246.173-.54.085-.81-.088-.27-.286-.49-.545-.605l-2.734-1.214-.31-2.976c-.029-.282-.177-.539-.407-.706-.23-.167-.521-.228-.797-.169l-2.926.625-2-2.226c-.379-.422-1.108-.422-1.487,0l-2,2.226-2.926-.625c-.276-.059-.567.002-.797.169-.229.167-.377.423-.407.706l-.31,2.976-2.734,1.214c-.259.115-.458.335-.545.605-.087.27-.057.564.085.81l1.499,2.589-1.499,2.589c-.142.246-.173.54-.085.81.088.27.286.49.545.605l2.734,1.214.31,2.976c.029.282.177.539.407.706.23.167.521.228.797.169l2.926-.625,2,2.226c.189.211.46.332.744.332s.554-.121.744-.332l2-2.226,2.926.625c.276.059.567-.002.797-.169.229-.167.377-.423.407-.706l.31-2.976,2.734-1.214c.259-.115.458-.335.545-.605.087-.27.057-.564-.085-.81l-1.499-2.589ZM38.856,42.501l1.231,2.127-2.246.997c-.327.146-.552.455-.589.811l-.254,2.444-2.403-.514c-.349-.074-.714.043-.953.31l-1.643,1.828-1.643-1.828c-.191-.213-.463-.332-.744-.332-.069,0-.14.007-.209.022l-2.403.514-.254-2.444c-.037-.356-.262-.665-.589-.811l-2.246-.997,1.231-2.127c.179-.31.179-.692,0-1.002l-1.231-2.127,2.246-.997c.327-.146.552-.455.589-.811l.254-2.444,2.403.514c.351.075.714-.043.953-.31l1.643-1.828,1.643,1.828c.238.266.603.383.953.31l2.403-.514.254,2.444c.037.356.262.665.589.811l2.246.997-1.231,2.127c-.179.31-.179.692,0,1.002Z"/>
</svg>