<?xml version="1.0" encoding="UTF-8"?>
<svg id="Outline" xmlns="http://www.w3.org/2000/svg" version="1.1" viewBox="0 0 64 64">
  <!-- Generator: Adobe Illustrator 29.3.1, SVG Export Plug-In . SVG Version: 2.1.0 Build 151)  -->
  <path d="M56.6881,21.33279l-9.77911-9.77942-.00232-.00232-4.23907-4.23926c-.28613-.28613-.71484-.37061-1.08984-.2168-.37402.15479-.61719.51953-.61719.92383v2.82861c0,1.00781-.82031,1.82812-1.8291,1.82812-2.11035,0-3.82812,1.71729-3.82812,3.82861,0,1.00781-.82031,1.82812-1.82812,1.82812-2.11133,0-3.8291,1.71729-3.8291,3.82861,0,1.0083-.82031,1.82861-1.82812,1.82861-2.11035,0-3.82812,1.71729-3.82812,3.82812,0,1.0083-.82031,1.82861-1.82812,1.82861-2.11133,0-3.8291,1.71729-3.8291,3.82861,0,1.00781-.82031,1.82812-1.82812,1.82812-2.11035,0-3.82812,1.71729-3.82812,3.82861,0,1.00781-.82031,1.82812-1.8291,1.82812h-2.82812c-.4043,0-.76953.24365-.92383.61719-.15527.37402-.06934.80371.2168,1.08984l14.02051,14.021c.1875.1875.44141.29297.70703.29297h2.8291c2.11035,0,3.82812-1.71729,3.82812-3.82861,0-1.00781.82031-1.82812,1.82812-1.82812,2.11133,0,3.8291-1.71729,3.8291-3.82861,0-1.00781.82031-1.82812,1.82812-1.82812,2.11035,0,3.82812-1.71729,3.82812-3.82861,0-1.0083.82031-1.82861,1.82812-1.82861,2.11133,0,3.8291-1.71729,3.8291-3.82812,0-1.0083.82031-1.82861,1.82812-1.82861,2.11035,0,3.82812-1.71729,3.82812-3.82861,0-1.00781.82031-1.82812,1.8291-1.82812,2.11035,0,3.82812-1.71729,3.82812-3.82861v-2.82812c0-.26514-.10547-.51953-.29297-.70703ZM10.84728,42.95975c2.11133,0,3.8291-1.71729,3.8291-3.82812,0-1.0083.82031-1.82861,1.82812-1.82861,2.11035,0,3.82812-1.71729,3.82812-3.82812,0-1.0083.82031-1.82861,1.8291-1.82861,2.11035,0,3.82812-1.71729,3.82812-3.82861,0-1.00781.82031-1.82812,1.82812-1.82812,2.11035,0,3.82812-1.71729,3.82812-3.82861,0-1.0083.82031-1.82861,1.8291-1.82861,2.11035,0,3.82812-1.71729,3.82812-3.82812,0-1.0083.82031-1.82861,1.82812-1.82861,2.11133,0,3.8291-1.71729,3.8291-3.82812v-.41455l2.24023,2.2403v2.41547c0,.48779-.19043.94678-.53711,1.29346-.34668.34619-.80566.53662-1.29297.53662-1.02051,0-1.98145.39844-2.70703,1.12354-.72461.72461-1.12305,1.68555-1.12305,2.70654,0,.48047-.19434.9541-.54688,1.31982-.45891.30805-.58004.92947-.27262,1.38746.2987.445.94436.57047,1.38785.2727.08203-.05518.15918-.12207.24805-.20752.02734-.02295.05371-.04688.07812-.07227.71289-.72656,1.10547-1.68555,1.10547-2.7002,0-.48682.19043-.94629.53613-1.29199.34766-.34717.80762-.53809,1.29395-.53809,1.02246,0,1.9834-.39893,2.70605-1.12207.72461-.72363,1.12402-1.68506,1.12402-2.70801v-.41534l3.53809,3.53821v2.41376c0,1.0083-.82031,1.82861-1.8291,1.82861-2.11035,0-3.82812,1.71729-3.82812,3.82861,0,1.00781-.82031,1.82812-1.82812,1.82812-2.11133,0-3.8291,1.71729-3.8291,3.82861,0,1.00781-.82031,1.82812-1.82812,1.82812-2.11035,0-3.82812,1.71729-3.82812,3.82861,0,1.0083-.82031,1.82861-1.8291,1.82861-2.11035,0-3.82812,1.71729-3.82812,3.82812,0,1.0083-.82031,1.82861-1.82812,1.82861-2.11133,0-3.8291,1.71729-3.8291,3.82861,0,1.00781-.82031,1.82812-1.82812,1.82812h-2.41437l-3.53894-3.53906h.41913c2.1123,0,3.83008-1.71387,3.83008-3.82031,0-.48779.19043-.94678.54297-1.29932.34082-.34717.78516-.53076,1.28613-.53076,1.01465,0,2-.41162,2.69043-1.11572.72852-.71436,1.12988-1.67822,1.12988-2.71387,0-.4873.19043-.94629.53711-1.29346.34668-.34619.80566-.53662,1.29297-.53662,1.02148,0,1.9834-.39893,2.70703-1.12354.72461-.72461,1.12305-1.68555,1.12305-2.70654,0-.4873.19043-.94629.53711-1.29346.34668-.34619.80566-.53662,1.29297-.53662,1.03613,0,2-.40137,2.70703-1.12305.17773-.17773.31934-.35156.44434-.54736.29785-.46484.16309-1.0835-.30176-1.38135-.46484-.29883-1.08496-.16357-1.38184.30225-.04688.07324-.09961.13672-.18164.21924-.33496.3418-.79199.53027-1.28613.53027-1.02246,0-1.9834.39893-2.70703,1.12305-.72461.72412-1.12305,1.68555-1.12305,2.70703,0,.48682-.19043.94629-.53711,1.29297-.34668.34619-.80566.53711-1.29297.53711-1.02246,0-1.9834.39893-2.70703,1.12305-.72461.72412-1.12305,1.68555-1.12305,2.70703,0,.49414-.18848.95068-.54395,1.2998-.33008.33691-.7959.52979-1.27637.52979-1.03418,0-1.99805.40088-2.70703,1.12354-.72363.72363-1.12207,1.68506-1.12207,2.70654,0,1.00391-.82129,1.82031-1.83008,1.82031h-2.41901l-2.2392-2.23926h.41406ZM54.98107,24.86795c0,1.0083-.82031,1.82861-1.82812,1.82861-2.11133,0-3.8291,1.71729-3.8291,3.82812,0,1.0083-.82031,1.82861-1.82812,1.82861-2.11035,0-3.82812,1.71729-3.82812,3.82861,0,1.00781-.82031,1.82812-1.8291,1.82812-2.11035,0-3.82812,1.71729-3.82812,3.82861,0,1.0083-.82031,1.82861-1.82812,1.82861-2.11035,0-3.82812,1.71729-3.82812,3.82812,0,1.0083-.82031,1.82861-1.8291,1.82861-2.11035,0-3.82812,1.71729-3.82812,3.82812,0,1.0083-.82031,1.82861-1.82812,1.82861h-2.41504l-2.24261-2.24268h.41449c2.11035,0,3.82812-1.71729,3.82812-3.82812,0-1.0083.82031-1.82861,1.8291-1.82861,2.11035,0,3.82812-1.71729,3.82812-3.82861,0-1.00781.82031-1.82812,1.82812-1.82812,2.11133,0,3.8291-1.71729,3.8291-3.82861,0-1.0083.82031-1.82861,1.82812-1.82861,2.11035,0,3.82812-1.71729,3.82812-3.82812,0-1.0083.82031-1.82861,1.8291-1.82861,2.11035,0,3.82812-1.71729,3.82812-3.82812,0-1.0083.82031-1.82861,1.82812-1.82861,2.11133,0,3.8291-1.71729,3.8291-3.82861v-.41364l2.24219,2.24225v2.41406Z"/>
  <circle cx="35.81438" cy="24.2966" r="1"/>
</svg>