<?xml version="1.0" encoding="UTF-8"?>
<svg id="Outline" xmlns="http://www.w3.org/2000/svg" version="1.1" viewBox="0 0 64 64">
  <!-- Generator: Adobe Illustrator 29.5.1, SVG Export Plug-In . SVG Version: 2.1.0 Build 141)  -->
  <path d="M32,23c-2.45459,0-4.80615.73242-6.80078,2.11914-.45361.31543-.56543.93848-.25049,1.3916.31592.45508.93896.56641,1.39209.25098,1.65771-1.15234,3.61475-1.76172,5.65918-1.76172,5.51416,0,10,4.48633,10,10s-4.48584,10-10,10-10-4.48633-10-10c0-2.04395.60889-4.00098,1.76123-5.66016.31494-.45312.20264-1.07617-.25098-1.3916-.45312-.31543-1.07617-.20312-1.3916.25098-1.38623,1.99512-2.11865,4.34668-2.11865,6.80078,0,6.61719,5.3833,12,12,12s12-5.38281,12-12-5.3833-12-12-12Z"/>
  <path d="M54,21c0-2.02051-1.21582-3.81055-3.03516-4.58398-.16846-1.39648-.93408-2.6709-2.10254-3.49121-.49219-2.26855-2.50195-3.9248-4.8623-3.9248-1.09619,0-2.15039.36426-3.00586,1.01172-1.25635-1.68262-3.59131-2.4707-5.65527-1.71484-.91162-.83203-2.09229-1.29688-3.33887-1.29688s-2.42725.46484-3.33887,1.29688c-2.06689-.75586-4.3999.03223-5.65527,1.71484-.85547-.64746-1.90967-1.01172-3.00586-1.01172-2.36035,0-4.37012,1.65625-4.8623,3.9248-1.16846.82031-1.93408,2.09473-2.10254,3.49121-1.81934.77344-3.03516,2.56348-3.03516,4.58398,0,1.73035.90179,3.29651,2.3139,4.19525-1.47748,2.95441-2.3139,6.2829-2.3139,9.80475,0,12.13086,9.86914,22,22,22,5.10889,0,10.0835-1.78613,14.00732-5.0293.42578-.35156.48535-.98145.13379-1.40723-.35254-.42578-.98291-.4873-1.4082-.13379-3.56592,2.94727-8.08789,4.57031-12.73291,4.57031-11.02783,0-20-8.97168-20-20s8.97217-20,20-20,20,8.97168,20,20c0,4.64453-1.62305,9.16699-4.5708,12.7334-.35156.42578-.29199,1.05566.13379,1.40723.42578.35254,1.05615.29199,1.4082-.13379,3.24268-3.92383,5.02881-8.89844,5.02881-14.00684,0-3.52179-.83643-6.85034-2.3139-9.80475,1.41211-.89874,2.3139-2.4649,2.3139-4.19525ZM32,13c-7.89685,0-14.83234,4.1842-18.71375,10.45001-.78845-.54614-1.28625-1.4527-1.28625-2.45001,0-1.36426.92773-2.55273,2.25635-2.8916.44336-.1123.75342-.51172.75342-.96875,0-.06348-.00439-.12109-.00977-.13965,0-1.08203.57617-2.05371,1.54199-2.59961.27832-.15723.46436-.4375.50098-.75488.17432-1.50879,1.4458-2.64551,2.95703-2.64551.96045,0,1.86768.46777,2.42627,1.25098.21582.30273.58154.46289.95264.40918.36963-.05176.6792-.30469.80371-.65625.5874-1.65625,2.56689-2.53613,4.23975-1.625.42627.23145.9541.12305,1.25781-.25293.57373-.71582,1.41895-1.12598,2.31982-1.12598s1.74609.41016,2.31982,1.12598c.30371.37598.83203.48438,1.25781.25293,1.67285-.91016,3.65283-.03027,4.23975,1.625.12451.35156.43408.60449.80371.65625.37012.05371.73682-.10645.95264-.40918.55859-.7832,1.46582-1.25098,2.42627-1.25098,1.51123,0,2.78271,1.13672,2.95703,2.64551.03662.31738.22266.59766.50098.75488.96582.5459,1.54199,1.51758,1.54297,2.56152-.00391.03613-.01074.1416-.01074.17773,0,.45703.31006.85645.75342.96875,1.32861.33887,2.25635,1.52734,2.25635,2.8916,0,.99731-.4978,1.90387-1.28625,2.45001-3.88141-6.26581-10.81689-10.45001-18.71375-10.45001Z"/>
  <circle cx="24" cy="20" r="1"/>
  <circle cx="19" cy="28" r="1"/>
  <circle cx="15" cy="36" r="1"/>
  <circle cx="20" cy="44" r="1"/>
  <circle cx="25" cy="50" r="1"/>
  <circle cx="33" cy="52" r="1"/>
  <circle cx="41" cy="48" r="1"/>
  <circle cx="32" cy="20" r="1"/>
  <circle cx="36" cy="18" r="1"/>
  <circle cx="41" cy="23" r="1"/>
  <circle cx="48" cy="28" r="1"/>
  <circle cx="47" cy="36" r="1"/>
  <circle cx="47" cy="43" r="1"/>
</svg>