<?xml version="1.0" encoding="UTF-8"?>
<svg id="Outline" xmlns="http://www.w3.org/2000/svg" version="1.1" viewBox="0 0 64 64">
  <!-- Generator: Adobe Illustrator 29.3.1, SVG Export Plug-In . SVG Version: 2.1.0 Build 151)  -->
  <path d="M43,32c0-6.06543-4.93457-11-11-11-1.4209,0-2.80371.27051-4.10938.80469-.51074.20898-.75586.79297-.54688,1.30469.21094.51172.79688.75488,1.30469.54688,1.06348-.43555,2.19141-.65625,3.35156-.65625,4.96289,0,9,4.03711,9,9s-4.03711,9-9,9-9-4.03711-9-9c0-1.16016.2207-2.28809.65625-3.35156.20898-.51172-.03613-1.0957-.54688-1.30469-.50781-.20801-1.0957.03516-1.30469.54688-.53418,1.30566-.80469,2.68848-.80469,4.10938,0,6.06543,4.93457,11,11,11s11-4.93457,11-11Z"/>
  <path d="M48.21484,12.97852c-1.36328-1.16211-3.27735-1.47168-4.99805-.80176l-.94489.36737c-1.7262-.91248-3.53784-1.58203-5.43359-2.00201l1.88922-.75598c.39941-.16016.65137-.55664.62695-.98535s-.31934-.79395-.73438-.9082c-2.16309-.5918-4.39062-.89258-6.62012-.89258-7.32617,0-14.25879,3.20215-19.02148,8.78516-1.16309,1.36426-1.4707,3.2793-.80176,4.99805l.36737.94495c-.91241,1.7262-1.58203,3.53802-2.00201,5.43365l-.75598-1.88934c-.15918-.39941-.56738-.64746-.98535-.62695-.42871.02441-.79395.31934-.9082.73438-.5918,2.16309-.89258,4.39062-.89258,6.62012,0,7.32617,3.20215,14.25879,8.78516,19.02148,1.36426,1.16309,3.2793,1.47168,4.99805.80176l.94495-.36737c1.72565.91211,3.53693,1.58154,5.43475,2.00153l-1.89044.75647c-.39941.16016-.65137.55664-.62695.98535s.31934.79395.73438.9082c2.16309.5918,4.39062.89258,6.62012.89258,7.32617,0,14.25879-3.20215,19.02148-8.78516,1.16309-1.36426,1.4707-3.2793.80176-4.99805l-.36743-.94476c.91254-1.72638,1.58228-3.53839,2.0022-5.4342l.75586,1.88971c.15918.39844.5293.64258.98535.62695.42871-.02441.79395-.31934.9082-.73438.5918-2.16309.89258-4.39062.89258-6.62012,0-7.32617-3.20215-14.25879-8.78516-19.02148ZM39.71417,13.5387l-5.98859,2.32849c-.39844.15234-.8252.10352-1.17383-.13477-.35059-.24023-.55176-.62109-.55176-1.0459,0-.25098.07324-.49414.21289-.70312.47839-.71783,1.05811-1.34839,1.71796-1.88,2.00183.18488,3.93884.66272,5.78333,1.4353ZM13.53857,24.28613l2.27295,5.84668c.16309.41797.1416.86914-.05664,1.23828-.12012.22168-.35547.50586-.80078.60059-.33691.07422-.68359.00684-.9707-.18457-.71783-.47839-1.34839-1.05811-1.88-1.71796.18488-2.00171.6626-3.93866,1.43518-5.78302ZM24.28595,50.46136l5.84589-2.27289c.41895-.16406.87109-.1416,1.23926.05664.22168.11914.50488.35547.60059.80273.07129.33301.00391.68555-.18457.96875-.47839.71783-1.05811,1.34839-1.71796,1.88-2.00177-.18488-3.93878-.6626-5.7832-1.43524ZM50.46118,39.71448l-2.27369-5.84631c-.1621-.41895-.14159-.87012.05762-1.23926.11914-.22168.35547-.50488.80273-.60059.33398-.07031.68652-.00488.96875.18457.71783.47839,1.34845,1.05804,1.88,1.71783-.18488,2.00195-.66266,3.93915-1.43542,5.78375ZM54.81738,34.88281c-.80273-1.7627-2.07129-3.25391-3.69141-4.33398-.73047-.4873-1.63965-.66309-2.49707-.47559-.93066.19824-1.69141.76855-2.14355,1.60547-.47852.88574-.53711,1.94727-.16211,2.91406h.00098l3.63574,9.34863c.40137,1.03223.22461,2.17285-.45996,2.97559-4.38184,5.13672-10.76074,8.08301-17.5,8.08301-.96387,0-1.92676-.06055-2.88379-.18262,1.76367-.80273,3.25488-2.07129,4.33496-3.69141.48632-.72949.66016-1.63965.47559-2.49707-.19824-.93066-.76855-1.69141-1.60547-2.14355-.88574-.47754-1.94727-.53809-2.91406-.16113l-9.34863,3.63574c-1.03223.40137-2.17383.22461-2.97559-.45996-5.13672-4.38184-8.08301-10.76074-8.08301-17.5,0-.96387.06055-1.92676.18262-2.88379.80273,1.76367,2.07129,3.25488,3.69141,4.33496.72852.48535,1.63672.66016,2.49707.47656.93164-.19922,1.69238-.77051,2.14453-1.6084.47754-.88574.53516-1.94727.15918-2.91211l-3.63477-9.34863c-.40137-1.03223-.22461-2.17285.45996-2.97559,4.38184-5.13672,10.76074-8.08301,17.5-8.08301.96387,0,1.92676.06055,2.88379.18262-1.76367.80273-3.25488,2.07129-4.33496,3.69141-.35938.53809-.54883,1.16504-.54883,1.8125,0,1.0791.53223,2.08691,1.42285,2.69629.88964.60938,2.02246.73926,3.02734.34766l9.49121-3.69043c1.03125-.40234,2.17285-.22461,2.97559.45996,5.13672,4.38184,8.08301,10.76074,8.08301,17.5,0,.96289-.06055,1.92676-.18262,2.88281Z"/>
  <path d="M38.00007,20.99573c.10612.00208.21301-.01304.31634-.04749l3-1c.52344-.17383.80664-.74023.63184-1.26465-.1748-.52344-.73535-.80762-1.26465-.63184l-2.99996.99999c-1.04266.34755-.76728,1.92279.31643,1.94398Z"/>
  <path d="M47.44727,21.10547l-2-1c-.49414-.24512-1.09473-.04688-1.3418.44727s-.04688,1.09473.44727,1.3418l2,1c.14347.07125.29573.10543.44604.10547,1.02972.00026,1.37435-1.43159.44849-1.89453Z"/>
  <path d="M46.55273,25.10547l-2,1c-.49409.24705-.6943.84754-.44734,1.34165.23121.46261.85181.69077,1.34187.44741l2-1c.49414-.24707.69434-.84766.44727-1.3418-.24707-.49512-.84766-.69238-1.3418-.44727Z"/>
  <path d="M43.10547,39.55273c-.24707.49414-.04688,1.09473.44727,1.3418l1.99997.99999c.46039.2302,1.09549.04403,1.34183-.44725.24707-.49414.04688-1.09473-.44727-1.3418l-2-1c-.49414-.24609-1.09375-.04688-1.3418.44727Z"/>
  <path d="M45.68359,44.05176l-3,1c-.52338.17381-.80658.7401-.6319,1.26447.17227.51713.75008.80356,1.26471.63202l3-1c.52344-.17383.80664-.74023.63184-1.26465-.1748-.52344-.73633-.80762-1.26465-.63184Z"/>
  <path d="M39.55273,44.10547l-2,1c-.49409.24704-.69429.84753-.44734,1.34164.22484.44987.86212.68567,1.34188.44742l2-1c.49414-.24707.69434-.84766.44727-1.3418-.24805-.49414-.84863-.69238-1.3418-.44727Z"/>
  <path d="M37.70703,48.29297c-.39062-.39062-1.02344-.39062-1.41406,0s-.39062,1.02344,0,1.41406l1.99998,1.99998c.36536.36536,1.02495.38915,1.41408.00002.39062-.39062.39062-1.02344,0-1.41406l-2-2Z"/>
  <path d="M23.00087,15.99743c.15109.00088.30392-.03215.44639-.1029l2-1c.49414-.24707.69434-.84766.44727-1.3418s-.84766-.69336-1.3418-.44727l-1.99999,1c-.89488.44744-.60617,1.88579.44813,1.89197Z"/>
  <path d="M20,20c.55273,0,1-.44727,1-1v-2c0-.55273-.44727-1-1-1s-1,.44727-1,1v2c0,.55273.44727,1,1,1Z"/>
  <path d="M24.05176,19.31641c.17109.51323.75379.80211,1.26465.63183l3-1c.52344-.17383.80664-.74023.63184-1.26465-.1748-.52344-.73535-.80859-1.26465-.63184l-3,1c-.52336.1738-.80656.74008-.63184,1.26465Z"/>
  <path d="M19.05176,25.31641c.17199.51596.7506.80318,1.26465.63184.52344-.17383.80664-.74023.63184-1.26465l-1-3c-.17383-.52344-.7373-.80859-1.26465-.63184-.52344.17383-.80664.74023-.63184,1.26465,0,0,.99832,2.99497,1,3Z"/>
  <path d="M15.94824,38.31641c.1748-.52441-.1084-1.09082-.63184-1.26465l-3-1c-.52832-.17578-1.08984.1084-1.26465.63184-.1748.52441.1084,1.09082.63184,1.26465l2.99998.99999c.49301.16434,1.08827-.10265,1.26467-.63183Z"/>
  <path d="M19.29297,38.70703c.19526.19526.45102.29291.70681.29297.87263.00019,1.32519-1.08909.70725-1.70703l-2-2c-.39062-.39062-1.02344-.39062-1.41406,0s-.39062,1.02344,0,1.41406l2,2Z"/>
  <path d="M17.31641,40.05176c-.5293-.17676-1.08984.1084-1.26465.63184l-1,3c-.1748.52441.1084,1.09082.63205,1.26472.51729.1723,1.0913-.11252,1.26443-.63191l1-3c.1748-.52441-.1084-1.09082-.63184-1.26465Z"/>
  <path d="M23.31641,44.05176l-3-1c-.52832-.17578-1.08984.1084-1.26465.63184-.1748.52441.1084,1.09082.63184,1.26465,0,0,3,1,3.00001,1,.51862.17287,1.09223-.11462,1.26464-.63184.1748-.52441-.1084-1.09082-.63184-1.26465Z"/>
  <path d="M24.2218,24.2218c-.3905.3905-.3905,1.02368,0,1.41425.39056.3905,1.02374.3905,1.41425,0,.3905-.39056.3905-1.02374,0-1.41425s-1.02368-.3905-1.41425,0Z"/>
</svg>