<?xml version="1.0" encoding="UTF-8"?>
<svg id="Outline" xmlns="http://www.w3.org/2000/svg" version="1.1" viewBox="0 0 64 64">
  <!-- Generator: Adobe Illustrator 29.5.1, SVG Export Plug-In . SVG Version: 2.1.0 Build 141)  -->
  <path d="M52.73,28.32c-.01-.01-.02-.01-.03-.02l.01-.01-1.71-1.7v-11.59h-.01c0-.13-.01-.26-.07-.38-.15-.38-.52-.62-.92-.62h-8.46c-1.29-4.16-5.11-7-9.54-7-2.68,0-5.19,1.04-7.06,2.93-1.14,1.13-1.97,2.53-2.46,4.07h-8.48c-.4,0-.77.24-.92.62-.06.12-.07.25-.07.38h-.01v11.59l-1.71,1.7.01.01c-.01.01-.02.01-.03.02-.19.2-.29.48-.27.75l2,27c.04.53.48.93,1,.93h36c.52,0,.96-.4,1-.93l2-27c.02-.27-.08-.55-.27-.75ZM49.59,28h-4.59v-4.59l4.59,4.59ZM49,24.59l-3.59-3.59,3.59-3.59v7.18ZM26.35,11.34c1.5-1.51,3.51-2.34,5.65-2.34,3.27,0,6.21,2.04,7.42,5h-14.83c.41-.99,1-1.9,1.76-2.66ZM47.59,16l-4.3,4.29c-.19.2-.29.45-.29.71v7h-1.05c-.5-5.05-4.77-9-9.95-9s-9.45,3.95-9.95,9h-1.05v-7c0-.26-.1-.51-.29-.71l-4.3-4.29h31.18ZM39.93,28h-15.86c.49-3.94,3.86-7,7.93-7s7.44,3.06,7.93,7ZM15,17.41l3.59,3.59-3.59,3.59v-7.18ZM19,23.41v4.59h-4.59l4.59-4.59ZM49.07,55H14.93l-1.85-25h8.92v3h-1c-.55,0-1,.45-1,1s.45,1,1,1h4c.55,0,1-.45,1-1s-.45-1-1-1h-1v-3h16v3h-1c-.55,0-1,.45-1,1s.45,1,1,1h4c.55,0,1-.45,1-1s-.45-1-1-1h-1v-3h8.92l-1.85,25Z"/>
  <path d="M32,38.009c-2.14-1.517-5.133-1.318-7.05.598-2.139,2.139-2.139,5.619,0,7.758l6.343,6.343c.195.195.451.293.707.293s.512-.098.707-.293l6.343-6.343c2.139-2.139,2.139-5.619,0-7.758-1.916-1.916-4.908-2.113-7.05-.598ZM37.636,44.95l-5.636,5.636-5.636-5.636c-1.359-1.359-1.359-3.57,0-4.93.68-.679,1.571-1.019,2.464-1.019s1.785.34,2.465,1.019c.391.391,1.023.391,1.414,0,1.359-1.357,3.569-1.357,4.929,0,1.359,1.359,1.359,3.57,0,4.93Z"/>
</svg>