<?xml version="1.0" encoding="UTF-8"?>
<svg id="Outline" xmlns="http://www.w3.org/2000/svg" version="1.1" viewBox="0 0 64 64">
  <!-- Generator: Adobe Illustrator 29.3.1, SVG Export Plug-In . SVG Version: 2.1.0 Build 151)  -->
  <path d="M56,43h-5c-.55273,0-1,.44727-1,1s.44727,1,1,1h3.6123l-2.19336,6.58105c-.68164,2.04492-2.58789,3.41895-4.74316,3.41895h-31.35156c-2.15527,0-4.06152-1.37402-4.74316-3.41895l-2.19336-6.58105h37.6123c.55273,0,1-.44727,1-1s-.44727-1-1-1H8c-.32129,0-.62305.1543-.81152.41504-.1875.26074-.23926.59668-.13672.90137l2.63281,7.89746c.95312,2.8623,3.62207,4.78613,6.63965,4.78613h31.35156c3.01758,0,5.68652-1.92383,6.63965-4.78613l2.63281-7.89746c.10254-.30469.05078-.64062-.13672-.90137-.18848-.26074-.49023-.41504-.81152-.41504Z"/>
  <path d="M10,41h6c.55273,0,1-.44727,1-1s-.44727-1-1-1h-6c-.55176,0-1-.44824-1-1s.44824-1,1-1h44c.55176,0,1,.44824,1,1s-.44824,1-1,1H20c-.55273,0-1,.44727-1,1s.44727,1,1,1h34c1.6543,0,3-1.3457,3-3,0-1.30963-.84869-2.414-2.02087-2.82227-.39581-11.18762-8.81464-20.36426-19.66846-21.9361.43457-.63989.68933-1.41132.68933-2.24164,0-2.20605-1.79395-4-4-4s-4,1.79395-4,4c0,.83032.25476,1.60175.68933,2.24164-10.85382,1.57184-19.27264,10.74854-19.66846,21.93616-1.17218.40826-2.02087,1.51257-2.02087,2.8222,0,1.6543,1.3457,3,3,3ZM30,11c0-1.10254.89746-2,2-2s2,.89746,2,2-.89746,2-2,2-2-.89746-2-2ZM32,15c11.24414,0,20.45312,8.88281,20.97656,20H11.02344c.52344-11.11719,9.73242-20,20.97656-20Z"/>
  <path d="M32,17c-8.78516,0-16.57715,6.21484-18.52637,14.77832-.12305.53809.21386,1.07422.75293,1.19629.07422.01758.14941.02539.22266.02539.45605,0,.86816-.31445.97363-.77832,1.74512-7.66113,8.7168-13.22168,16.57715-13.22168.55273,0,1-.44727,1-1s-.44727-1-1-1Z"/>
</svg>