<?xml version="1.0" encoding="UTF-8"?>
<svg id="Outline" xmlns="http://www.w3.org/2000/svg" version="1.1" viewBox="0 0 64 64">
  <!-- Generator: Adobe Illustrator 29.5.1, SVG Export Plug-In . SVG Version: 2.1.0 Build 141)  -->
  <path d="M56.97,39.86c0-.03.01-.07,0-.1l-5-20c-.11-.45-.51-.76-.97-.76h-2v-8.68c0-.05-.02-.1-.03-.15-.15-1.67-1.47-2.99-3.14-3.14-.05-.01-.1-.03-.15-.03h-27.68c-1.65,0-3,1.35-3,3v9h-2c-.46,0-.86.31-.97.76l-5,20c-.01.03,0,.07,0,.1-.01.05-.03.09-.03.14v16c0,.55.45,1,1,1h48c.55,0,1-.45,1-1v-16c0-.05-.02-.09-.03-.14ZM42.38,9l-.94,1.89-11.36-1.89h12.3ZM17,10c0-.54.43-.97.96-.99l23.88,3.98c.43.07.86-.15,1.05-.54l1.32-2.64c.25-.5.76-.81,1.32-.81.81,0,1.47.66,1.47,1.47v20.53h-30V10ZM13.78,21h1.22v10h-1c-.55,0-1,.45-1,1s.45,1,1,1h36c.55,0,1-.45,1-1s-.45-1-1-1h-1v-10h1.22l4.5,18H9.28l4.5-18ZM47,41v5c0,.55-.45,1-1,1h-28c-.55,0-1-.45-1-1v-5h30ZM55,55H9v-14h6v5c0,1.65,1.35,3,3,3h28c1.65,0,3-1.35,3-3v-5h6v14Z"/>
  <path d="M40,21h4c.552,0,1-.448,1-1v-4c0-.552-.448-1-1-1h-4c-.552,0-1,.448-1,1v4c0,.552.448,1,1,1ZM41,17h2v2h-2v-2Z"/>
  <path d="M40,29h4c.552,0,1-.448,1-1v-4c0-.552-.448-1-1-1h-4c-.552,0-1,.448-1,1v4c0,.552.448,1,1,1ZM41,25h2v2h-2v-2Z"/>
  <path d="M20,17h16c.552,0,1-.448,1-1s-.448-1-1-1h-16c-.552,0-1,.448-1,1s.448,1,1,1Z"/>
  <path d="M36,19h-10c-.552,0-1,.448-1,1s.448,1,1,1h10c.552,0,1-.448,1-1s-.448-1-1-1Z"/>
  <path d="M20,25h16c.552,0,1-.448,1-1s-.448-1-1-1h-16c-.552,0-1,.448-1,1s.448,1,1,1Z"/>
  <path d="M36,27h-10c-.552,0-1,.448-1,1s.448,1,1,1h10c.552,0,1-.448,1-1s-.448-1-1-1Z"/>
</svg>