<?xml version="1.0" encoding="UTF-8"?>
<svg id="Outline" xmlns="http://www.w3.org/2000/svg" version="1.1" viewBox="0 0 64 64">
  <!-- Generator: Adobe Illustrator 29.5.1, SVG Export Plug-In . SVG Version: 2.1.0 Build 141)  -->
  <path d="M54.785,46.301l-.454.465c-2.417,2.467-3.748,5.747-3.748,9.234,0,.553.448,1,1,1s1-.447,1-1c0-2.961,1.128-5.744,3.177-7.836l.455-.465c.386-.395.379-1.028-.016-1.414-.395-.386-1.027-.379-1.414.016Z"/>
  <path d="M53.277,42.699c.386-.395.379-1.028-.016-1.414-.395-.386-1.027-.379-1.414.016l-.454.465c-2.417,2.467-3.748,5.747-3.748,9.234,0,.553.448,1,1,1s1-.447,1-1c0-2.961,1.128-5.744,3.177-7.836l.455-.465Z"/>
  <path d="M46.149,47.103c-.496-.247-1.095-.039-1.338.457l-.207.423c-1.213,2.478-1.854,5.25-1.854,8.018,0,.553.448,1,1,1s1-.447,1-1c0-2.465.57-4.934,1.649-7.138l.207-.422c.243-.496.039-1.095-.458-1.338Z"/>
  <path d="M42.231,43.102c-.496-.243-1.095-.036-1.338.459l-.207.422c-1.212,2.478-1.853,5.25-1.853,8.018,0,.553.448,1,1,1s1-.447,1-1c0-2.465.57-4.934,1.649-7.139l.207-.422c.243-.496.038-1.095-.458-1.338Z"/>
  <path d="M23.106,43.561c-.242-.496-.841-.703-1.338-.459-.496.243-.701.842-.458,1.338l.206.422c1.08,2.205,1.65,4.674,1.65,7.139,0,.553.448,1,1,1s1-.447,1-1c0-2.768-.641-5.54-1.854-8.018l-.207-.422Z"/>
  <path d="M9.215,46.301c-.387-.396-1.021-.402-1.414-.016-.395.386-.402,1.02-.016,1.414l.455.465c2.048,2.092,3.176,4.875,3.176,7.836,0,.553.448,1,1,1s1-.447,1-1c0-3.487-1.331-6.768-3.747-9.234l-.455-.465Z"/>
  <path d="M12.152,41.301c-.387-.396-1.021-.402-1.414-.016-.395.386-.402,1.02-.016,1.414l.455.465c2.048,2.092,3.176,4.875,3.176,7.836,0,.553.448,1,1,1s1-.447,1-1c0-3.487-1.331-6.768-3.747-9.234l-.455-.465Z"/>
  <path d="M19.189,47.56c-.244-.496-.842-.701-1.338-.457-.496.243-.701.842-.458,1.338l.207.421c1.08,2.205,1.65,4.674,1.65,7.139,0,.553.448,1,1,1s1-.447,1-1c0-2.768-.641-5.54-1.854-8.019l-.207-.422Z"/>
  <path d="M51.583,22c.552,0,1-.447,1-1v-2c0-.553-.448-1-1-1s-1,.447-1,1v2c0,.553.448,1,1,1Z"/>
  <path d="M49.625,24c.552,0,1-.447,1-1s-.448-1-1-1h-1.958c-.552,0-1,.447-1,1s.448,1,1,1h1.958Z"/>
  <path d="M52.583,27v-2c0-.553-.448-1-1-1s-1,.447-1,1v2c0,.553.448,1,1,1s1-.447,1-1Z"/>
  <path d="M53.542,24h1.958c.552,0,1-.447,1-1s-.448-1-1-1h-1.958c-.552,0-1,.447-1,1s.448,1,1,1Z"/>
  <path d="M12.417,22c.552,0,1-.447,1-1v-2c0-.553-.448-1-1-1s-1,.447-1,1v2c0,.553.448,1,1,1Z"/>
  <path d="M16.333,22h-1.958c-.552,0-1,.447-1,1s.448,1,1,1h1.958c.552,0,1-.447,1-1s-.448-1-1-1Z"/>
  <path d="M12.417,24c-.552,0-1,.447-1,1v2c0,.553.448,1,1,1s1-.447,1-1v-2c0-.553-.448-1-1-1Z"/>
  <path d="M8.5,24h1.958c.552,0,1-.447,1-1s-.448-1-1-1h-1.958c-.552,0-1,.447-1,1s.448,1,1,1Z"/>
  <path d="M50.087,38.777c.482.132,1.048-.047,1.215-.674.44-1.647.089-3.437-.939-4.787-.656-.86-.879-2.003-.597-3.058.143-.533-.175-1.081-.708-1.224-.533-.146-1.081.175-1.224.708-.44,1.647-.089,3.437.939,4.785.656.861.879,2.004.597,3.059-.164.616.235,1.059.717,1.191Z"/>
  <path d="M43.452,31.544c-1.019,1.357-1.356,3.149-.905,4.793.289,1.053.074,2.197-.576,3.062-.332.442-.242,1.069.2,1.4.42.314,1.064.249,1.4-.199,1.018-1.356,1.356-3.148.905-4.793-.289-1.053-.074-2.197.576-3.062.332-.442.242-1.069-.2-1.4-.441-.331-1.068-.242-1.4.199Z"/>
  <path d="M19.524,35.808c-.451,1.645-.113,3.437.905,4.793.196.262.496.399.801.399.81,0,1.284-.953.799-1.601-.649-.865-.865-2.01-.576-3.062.452-1.644.114-3.436-.905-4.793-.331-.441-.957-.53-1.4-.199-.442.331-.531.958-.2,1.4.65.865.865,2.01.576,3.062Z"/>
  <path d="M12.697,38.103c.12.447.524.742.966.742.646,0,1.134-.63.967-1.258-.282-1.055-.059-2.198.597-3.059,1.028-1.35,1.379-3.139.939-4.786-.143-.533-.691-.854-1.224-.708-.534.143-.851.69-.708,1.224.282,1.055.059,2.197-.597,3.059-1.028,1.35-1.379,3.139-.939,4.786Z"/>
  <path d="M24.906,17c.38,0,.743-.218.911-.586,1.401-3.081,4.791-3.414,6.184-3.414.552,0,1-.447,1-1s-.448-1-1-1c-1.389,0-6.069.331-8.004,4.586-.229.503-.006,1.096.496,1.324.134.062.275.09.414.09Z"/>
  <path d="M35.722,36.175c5.351-2.4,9.028-9.681,9.028-16.325,0-7.686-5.124-12.85-12.75-12.85-6.524,0-11.303,3.759-12.472,9.811-.104.542.25,1.066.792,1.171.544.106,1.067-.249,1.172-.792.976-5.052,5.002-8.189,10.508-8.189,6.53,0,10.75,4.259,10.75,10.85,0,6.115-3.578,13.094-8.513,14.771-.023.006-.046,0-.069.008-.019.006-.031.021-.05.028-.683.219-1.39.343-2.118.343-4.224,0-8.364-4.235-10.067-10.301-.15-.531-.701-.844-1.233-.692-.532.149-.842.701-.692,1.233,1.239,4.411,4.205,9.07,8.275,10.922l-1.149,3.529c-.099.305-.047.638.142.897.188.259.489.412.809.412h2.642l-.076.312c-.442,1.803-.318,3.669.358,5.397.587,1.496.635,3.163.136,4.692l-.094.286c-.172.525.114,1.09.639,1.262.509.168,1.105-.116,1.262-.639l.094-.287c.643-1.971.581-4.117-.174-6.044-.525-1.342-.622-2.791-.278-4.192l.193-.788h3.132c.32,0,.621-.153.809-.412.188-.26.241-.593.142-.897l-1.145-3.516ZM29.461,39l.719-2.207c.59.126,1.195.207,1.82.207.622,0,1.225-.088,1.818-.213l.721,2.213h-5.078Z"/>
  <circle cx="20.5" cy="21" r="1"/>
</svg>