<?xml version="1.0" encoding="UTF-8"?>
<svg id="Outline" xmlns="http://www.w3.org/2000/svg" version="1.1" viewBox="0 0 64 64">
  <!-- Generator: Adobe Illustrator 29.5.1, SVG Export Plug-In . SVG Version: 2.1.0 Build 141)  -->
  <path d="M54,29c0-12.131-9.869-22-22-22S10,16.869,10,29c0,10.706,7.688,19.645,17.833,21.599l-.802,3.155c-.076.299-.01.616.18.86.189.243.481.386.79.386h3v1c0,.553.448,1,1,1s1-.447,1-1v-1h3c.309,0,.6-.143.79-.386.189-.244.256-.562.18-.86l-.802-3.155c10.144-1.954,17.833-10.893,17.833-21.599ZM29.286,53l.536-2.109c.717.071,1.443.109,2.178.109s1.461-.038,2.178-.109l.536,2.109h-5.428ZM32,49c-11.028,0-20-8.972-20-20s8.972-20,20-20,20,8.972,20,20-8.972,20-20,20Z"/>
  <path d="M49.497,31.358c-.19-.228-.471-.358-.767-.358H15.28c-.296,0-.576.131-.767.357-.19.227-.27.526-.218.817,1.524,8.59,8.97,14.825,17.705,14.825s16.18-6.234,17.714-14.824c.052-.291-.028-.591-.218-.817ZM32,45c-7.359,0-13.689-4.979-15.482-12h30.972c-1.802,7.021-8.135,12-15.49,12Z"/>
  <path d="M34.58,27.814c3.241-2.307,7.599-2.307,10.84,0,.176.125.378.185.579.186.942,0,1.354-1.264.582-1.814-3.936-2.803-9.225-2.803-13.16,0-.45.32-.555.944-.234,1.395.319.448.945.554,1.395.234Z"/>
  <path d="M40,20.229c2.818,0,5.51,1.346,7.2,3.6.196.263.496.4.801.4.809,0,1.285-.953.799-1.6-2.066-2.756-5.355-4.4-8.8-4.4-.552,0-1,.447-1,1s.448,1,1,1Z"/>
  <path d="M17.42,26.186c-.45.32-.555.944-.234,1.395.32.448.945.554,1.395.234,3.241-2.307,7.599-2.307,10.84,0,.176.125.378.185.579.186.953,0,1.358-1.261.581-1.814-3.936-2.803-9.225-2.803-13.16,0Z"/>
  <path d="M15.999,24.229c.304,0,.604-.138.801-.4,1.69-2.254,4.382-3.6,7.2-3.6.552,0,1-.447,1-1s-.448-1-1-1c-3.444,0-6.734,1.644-8.799,4.4-.483.644-.003,1.6.798,1.6Z"/>
</svg>