<?xml version="1.0" encoding="UTF-8"?>
<svg id="Outline" xmlns="http://www.w3.org/2000/svg" version="1.1" viewBox="0 0 64 64">
  <!-- Generator: Adobe Illustrator 29.0.0, SVG Export Plug-In . SVG Version: 2.1.0 Build 186)  -->
  <path d="M17.30653,40.96595c-.00083-.02601-.00262-.05168-.00535-.0763l-.35205-3.16895c-.36096-3.24768-.3938-6.53296-.13708-9.79199h3.35541c2.10101,1.94122,4.77399,2.92383,7.45404,2.92383,2.81641,0,5.6333-1.07227,7.77783-3.2168.39062-.39062.39062-1.02344,0-1.41406-4.18536-4.18585-10.92316-4.27368-15.23187-.29297h-3.17938l.31311-2.81836c.00724-.06517.00745-.16294-.00146-.23438l-.12305-.9834c-.01306-.10443-.02155-.20923-.03394-.31372l2.60095-2.60095c5.86249-.23151,10.56384-5.05969,10.56384-10.97791,0-.55273-.44775-1-1-1-5.91821,0-10.7464,4.70135-10.97791,10.56384l-1.42676,1.42676c-.24646-3.61774-.11896-7.25507.39441-10.849.04102-.28711-.04443-.57812-.23438-.79688s-.46533-.34473-.75537-.34473h-8c-.29004,0-.56543.12598-.75537.34473s-.27539.50977-.23438.79688c.65088,4.55664.69141,9.18359.12061,13.75098,0,0-.12305.9834-.12305.98345-.00927.07438-.00974.15978-.00146.23432l.35205,3.16895c.42188,3.7959.42188,7.64551,0,11.44141l-.35205,3.16895c-.00757.0681-.00765.1613.00146.23438l.12305.9834c.5708,4.56738.53027,9.19434-.12061,13.75098-.04102.28711.04443.57812.23438.79688s.46533.34473.75537.34473h8c.29004,0,.56543-.12598.75537-.34473s.27539-.50977.23438-.79688c-.65088-4.55664-.69141-9.18359-.12061-13.75098,0,0,.12305-.9834.12307-.98358.00623-.05017.00849-.10477.00679-.1579ZM28.24503,9.0625c-.48584,4.11523-3.75928,7.38965-7.875,7.875.48584-4.11523,3.75928-7.38965,7.875-7.875ZM9.65323,26.05859l-.22858-2.05859h5.76575l-.22858,2.05859c-.43848,3.94238-.43848,7.94043,0,11.88281l.22858,2.05859h-5.76575l.22858-2.05859c.43848-3.94238.43848-7.94043,0-11.88281ZM33.18985,26.92871c-3.25342,2.56543-7.88281,2.56738-11.13721,0,3.25439-2.56641,7.88379-2.56641,11.13721,0ZM15.1669,9c-.52216,4.31555-.51593,8.68237.01215,13h-5.74304c.52808-4.31763.5343-8.68445.01215-13h5.71875ZM9.44815,55c.52216-4.31555.51593-8.68237-.01215-13h5.74304c-.52808,4.31763-.5343,8.68445-.01215,13h-5.71875Z"/>
  <path d="M55.8223,51.89001c-.32001-.33002-.71002-.56006-1.13-.71002v-5.17999c0-.35004-.17999-.67004-.46997-.85004-.30005-.19-.67004-.19995-.98004-.03998l-.42999.21002c-.76001.38-1.65997.44995-2.46997.17999-1.06-.35999-2.24005-.35999-3.30005,0-.81.26996-1.70996.20001-2.46997-.17999l-.42999-.21002c-.31-.15997-.67999-.14001-.98004.03998-.28998.17999-.46997.5-.46997.85004v4.51996l-3.63-1.44995c-.12-.05005-.23999-.07001-.37-.07001h-16c-2.21002,0-4,1.78998-4,4,0,1.07001.41998,2.07001,1.16998,2.82996.76001.75,1.76001,1.17004,2.83002,1.17004h3c.54999,0,1-.45001,1-1s-.45001-1-1-1h-3c-.53003,0-1.03003-.21002-1.40997-.59003-.38-.38-.59003-.88-.59003-1.40997,0-1.10004.90002-2,2-2h15.81l4.82001,1.92999c.12.04999.23999.07001.37.07001h9.99997c.53823,0,1.00003.46389,1.00003,1,0,.54999-.45001,1-1,1h-20c-.54999,0-1,.45001-1,1s.45001,1,1,1h20c1.65002,0,3-1.35004,3-3,0-.81-.32001-1.57001-.87-2.10999ZM52.69229,51h-8v-3.51001c.97998.25,2.02002.22998,2.97998-.09998.66003-.21002,1.38-.22003,2.04004.00995.95996.31,2.01001.35004,2.97998.09003v3.51001Z"/>
  <circle cx="29.69229" cy="56" r="1"/>
</svg>