<?xml version="1.0" encoding="UTF-8"?>
<svg id="Outline" xmlns="http://www.w3.org/2000/svg" version="1.1" viewBox="0 0 48 48">
  <!-- Generator: Adobe Illustrator 29.5.1, SVG Export Plug-In . SVG Version: 2.1.0 Build 141)  -->
  <path d="M42.45,21.11l-2-1c-.14-.07-.29-.11-.45-.11h-3.3c-.02-.13-.04-.26-.06-.39,1.91-1.71,2.32-5.14.88-8.36-.98-2.18-2.67-3.91-4.52-4.61-1.25-.48-2.48-.47-3.57.02-.02.01-.04.02-.05.03-1.65-1.08-3.47-1.69-5.38-1.69s-3.73.61-5.37,1.69c-.02-.01-.04-.02-.06-.03-1.09-.49-2.32-.5-3.57-.02-1.85.7-3.54,2.43-4.52,4.61-1.44,3.22-1.03,6.65.88,8.36-.02.13-.04.26-.06.39h-3.3c-.16,0-.31.04-.45.11l-2,1c-.34.17-.55.51-.55.89v4c0,.38.21.72.55.89l2,1c.14.07.29.11.45.11h3.3c.02.13.04.26.06.39-1.91,1.71-2.32,5.14-.88,8.36.98,2.18,2.67,3.91,4.52,4.61.61.24,1.23.35,1.82.35.61,0,1.2-.12,1.75-.37.02-.01.04-.02.05-.03,1.65,1.08,3.47,1.69,5.38,1.69s3.73-.61,5.37-1.69c.02.01.04.02.06.03.55.25,1.14.37,1.75.37.6,0,1.21-.11,1.82-.35,1.85-.7,3.54-2.43,4.52-4.61,1.44-3.22,1.03-6.65-.88-8.36.02-.13.04-.26.06-.39h3.3c.16,0,.31-.04.45-.11l2-1c.34-.17.55-.51.55-.89v-4c0-.38-.21-.72-.55-.89ZM32.29,8.51c1.37.52,2.64,1.85,3.41,3.56.78,1.76.88,3.6.38,4.9-.97-3.57-2.63-6.57-4.74-8.68.36.03.69.12.95.22ZM24,7c5.03,0,9.49,5.52,10.68,13h-.68c-.55,0-1,.45-1,1h-.2c-.85-6.8-4.61-12-8.8-12s-7.95,5.2-8.8,12h-.2c0-.55-.45-1-1-1h-.68c1.19-7.48,5.65-13,10.68-13ZM15,25v-2h18v2H15ZM30.79,27c-.83,6.03-4.07,10-6.79,10s-5.96-3.97-6.79-10h13.58ZM17.21,21c.83-6.03,4.07-10,6.79-10s5.96,3.97,6.79,10h-13.58ZM12.3,12.07c.77-1.71,2.04-3.04,3.41-3.56.26-.1.59-.19.95-.21-2.11,2.1-3.77,5.1-4.74,8.67-.5-1.3-.4-3.14.38-4.9ZM8.24,26l-1.24-.62v-2.76l1.24-.62h4.76v4h-4.76ZM15.71,39.49c-1.37-.52-2.64-1.85-3.41-3.56-.78-1.76-.88-3.6-.38-4.9.97,3.57,2.63,6.57,4.74,8.68-.36-.03-.69-.12-.95-.22ZM24,41c-5.03,0-9.49-5.52-10.68-13h.68c.55,0,1-.45,1-1h.2c.85,6.8,4.61,12,8.8,12s7.95-5.2,8.8-12h.2c0,.55.45,1,1,1h.68c-1.19,7.48-5.65,13-10.68,13ZM35.7,35.93c-.77,1.71-2.04,3.04-3.41,3.56-.26.1-.59.19-.95.21,2.11-2.1,3.77-5.1,4.74-8.67.5,1.3.4,3.14-.38,4.9ZM41,25.38l-1.24.62h-4.76v-4h4.76l1.24.62v2.76Z"/>
</svg>