<?xml version="1.0" encoding="UTF-8"?>
<svg id="Outline" xmlns="http://www.w3.org/2000/svg" version="1.1" viewBox="0 0 64 64">
  <!-- Generator: Adobe Illustrator 29.5.1, SVG Export Plug-In . SVG Version: 2.1.0 Build 141)  -->
  <path d="M32,7c-13.78516,0-25,11.21484-25,25,0,5.7998,2.04199,11.46338,5.74951,15.94727.35254.42578.98193.48486,1.40771.1333s.48535-.98193.1333-1.40771c-3.41162-4.12598-5.29053-9.33691-5.29053-14.67285,0-12.68213,10.31787-23,23-23s23,10.31787,23,23-10.31787,23-23,23c-5.50879,0-10.8418-1.9873-15.01611-5.59619-.41797-.3623-1.04932-.31641-1.41016.10254-.36133.41748-.31543,1.04932.10254,1.41016,4.5376,3.92285,10.33447,6.0835,16.32373,6.0835,13.78516,0,25-11.21484,25-25S45.78516,7,32,7Z"/>
  <path d="M32,11c-11.57959,0-21,9.42041-21,21s9.42041,21,21,21,21-9.42041,21-21c0-4.92383-1.7417-9.7124-4.90381-13.48242-.35449-.42334-.98486-.47949-1.40869-.12354-.42334.35498-.47852.98535-.12354,1.40869,2.86035,3.41064,4.43604,7.74268,4.43604,12.19727,0,10.47656-8.52344,19-19,19s-19-8.52344-19-19,8.52344-19,19-19c4.30078,0,8.50342,1.47363,11.8335,4.14941.43018.34668,1.06055.27783,1.40576-.15283.34619-.43066.27783-1.06006-.15283-1.40576-3.68408-2.96045-8.33154-4.59082-13.08643-4.59082Z"/>
  <path d="M47.92383,39.38281c.15479-.37402.06934-.80371-.2168-1.08984l-10.60986-10.60986c-.39062-.39062-1.02344-.39062-1.41406,0l-4.36322,4.36285-1.59723-1.59723c2.51123-1.06421,4.27734-3.55408,4.27734-6.44873,0-3.85986-3.14014-7-7-7s-7,3.14014-7,7c0,1.27533.34827,2.46832.94659,3.49921l-6.28351,6.284c-.39062.39062-.39062,1.02344,0,1.41406l14.13965,14.13965c.19531.19531.45117.29297.70703.29297s.51172-.09766.70703-.29297l8.49023-8.48975c.1875-.1875.29297-.44189.29297-.70703,0-.04852-.02094-.09265-.02789-.14014h8.02789c.4043,0,.76904-.24365.92383-.61719ZM27,19c2.75684,0,5,2.24316,5,5s-2.24316,5-5,5-5-2.24316-5-5,2.24316-5,5-5ZM29.50977,47.21582l-12.72559-12.72559,5.41187-5.41229c1.255,1.18787,2.94366,1.92206,4.80396,1.92206.14325,0,.2832-.01294.42432-.02148l8.72821,8.72821.00061.00061.4328.4328-7.07617,7.07568ZM37.27393,38l-4.53998-4.53998,3.65619-3.65582,8.1958,8.1958h-7.31201Z"/>
</svg>