<?xml version="1.0" encoding="UTF-8"?>
<svg id="Outline" xmlns="http://www.w3.org/2000/svg" version="1.1" viewBox="0 0 64 64">
  <!-- Generator: Adobe Illustrator 29.3.1, SVG Export Plug-In . SVG Version: 2.1.0 Build 151)  -->
  <path d="M49,12c0-.55225-.44775-1-1-1H16c-.55225,0-1,.44775-1,1,0,1.6543-1.3457,3-3,3-.55225,0-1,.44775-1,1v10c0,.55225.44775,1,1,1,1.6543,0,3,1.3457,3,3,0,.55225.44775,1,1,1h32c.55225,0,1-.44775,1-1,0-1.6543,1.3457-3,3-3,.55225,0,1-.44775,1-1v-10c0-.55225-.44775-1-1-1-1.6543,0-3-1.3457-3-3ZM37,21c0,4.33643-2.28955,8-5,8s-5-3.66357-5-8,2.28955-8,5-8,5,3.66357,5,8ZM13,25.10059v-8.20117c1.95605-.39844,3.50098-1.94336,3.89941-3.89941h10.86462c-1.68658,1.80963-2.76404,4.68848-2.76404,8s1.07745,6.19037,2.76404,8h-10.86462c-.39844-1.95605-1.94336-3.50098-3.89941-3.89941ZM51,25.10059c-1.95605.39844-3.50098,1.94336-3.89941,3.89941h-10.86462c1.68658-1.80963,2.76404-4.68848,2.76404-8s-1.07745-6.19037-2.76404-8h10.86462c.39844,1.95605,1.94336,3.50098,3.89941,3.89941v8.20117Z"/>
  <path d="M19,18c-1.6543,0-3,1.3457-3,3s1.3457,3,3,3,3-1.3457,3-3-1.3457-3-3-3ZM19,22c-.55127,0-1-.44873-1-1s.44873-1,1-1,1,.44873,1,1-.44873,1-1,1Z"/>
  <path d="M45,18c-1.6543,0-3,1.3457-3,3s1.3457,3,3,3,3-1.3457,3-3-1.3457-3-3-3ZM45,22c-.55127,0-1-.44873-1-1s.44873-1,1-1,1,.44873,1,1-.44873,1-1,1Z"/>
  <path d="M56,19c.54999,0,1-.45001,1-1v-8c0-1.65002-1.34998-3-3-3H10c-1.65002,0-3,1.34998-3,3v44c0,1.64996,1.34998,3,3,3h44c1.65002,0,3-1.35004,3-3V22c0-.54999-.45001-1-1-1s-1,.45001-1,1v11H9V10c0-.54999.45001-1,1-1h44c.54999,0,1,.45001,1,1v8c0,.54999.45001,1,1,1ZM55,54c0,.54999-.45001,1-1,1H10c-.54999,0-1-.45001-1-1v-8h2v2c0,.54999.45001,1,1,1,1.65002,0,3,1.34998,3,3,0,.54999.45001,1,1,1h32c.54999,0,1-.45001,1-1,0-1.65002,1.34998-3,3-3,.54999,0,1-.45001,1-1v-2h2v8ZM32,51c-2.02002,0-3.85999-2.04004-4.62-5h9.23999c-.76001,2.95996-2.59998,5-4.62,5ZM38.67999,46h12.32001v1.09998c-1.96002.40002-3.5,1.94-3.90002,3.90002h-10.88c1.14001-1.23004,2.02002-2.95001,2.46002-5ZM27.78003,51h-10.88c-.40002-1.96002-1.94-3.5-3.90002-3.90002v-1.09998h12.32001c.44,2.04999,1.32001,3.76996,2.46002,5ZM51,35v1.09998c-1.96002.40002-3.5,1.94-3.90002,3.90002h-10.88c1.14001-1.23004,2.02002-2.95001,2.46002-5h12.32001ZM36.62,35c-.76001,2.95996-2.59998,5-4.62,5s-3.85999-2.04004-4.62-5h9.23999ZM11,35v2c0,.54999.45001,1,1,1,1.65002,0,3,1.34998,3,3,0,.54999.45001,1,1,1h4c.54999,0,1-.45001,1-1s-.45001-1-1-1h-3.09998c-.40002-1.96002-1.94-3.5-3.90002-3.90002v-1.09998h12.32001c.44,2.04999,1.32001,3.76996,2.46002,5h-3.78003c-.54999,0-1,.45001-1,1s.45001,1,1,1h24c.54999,0,1-.45001,1-1,0-1.65002,1.34998-3,3-3,.54999,0,1-.45001,1-1v-2h2v9H9v-9h2Z"/>
</svg>