<?xml version="1.0" encoding="UTF-8"?>
<svg id="Outline" xmlns="http://www.w3.org/2000/svg" version="1.1" viewBox="0 0 64 64">
  <!-- Generator: Adobe Illustrator 29.5.1, SVG Export Plug-In . SVG Version: 2.1.0 Build 141)  -->
  <path d="M53,27v-2h1c.55,0,1-.45,1-1v-3h1c.55,0,1-.45,1-1v-4c0-.3-.14-.59-.38-.78l-10-8c-.17-.14-.39-.22-.62-.22h-5c-.55,0-1,.45-1,1s.45,1,1,1h4.65l9.35,7.48v2.52h-14.06c-.5-4.49-4.32-8-8.94-8s-8.44,3.51-8.94,8h-14.06v-2.52l9.35-7.48h18.65c.55,0,1-.45,1-1s-.45-1-1-1h-19c-.23,0-.45.08-.62.22L7.38,15.22c-.24.19-.38.48-.38.78v4c0,.55.45,1,1,1h1v3c0,.55.45,1,1,1h1v2c0,1.1.9,2,2,2v8c-1.1,0-2,.9-2,2v2c-1.1,0-2,.9-2,2v2c-1.1,0-2,.9-2,2v2c0,1.1.9,2,2,2h5c.55,0,1-.45,1-1s-.45-1-1-1h-5v-2h13c0,.68.07,1.35.2,2h-4.2c-.55,0-1,.45-1,1s.45,1,1,1h4.84c1.55,3.53,5.07,6,9.16,6s7.61-2.47,9.16-6h13.84c1.1,0,2-.9,2-2v-2c0-1.1-.9-2-2-2v-2c0-1.1-.9-2-2-2v-2c0-1.1-.9-2-2-2v-8c1.1,0,2-.9,2-2ZM40.94,21h12.06v2h-12.53c.23-.64.39-1.31.47-2ZM32,13c3.86,0,7,3.14,7,7s-3.14,7-7,7-7-3.14-7-7,3.14-7,7-7ZM11,23v-2h12.06c.08.69.24,1.36.47,2h-12.53ZM13,27v-2h6v2h-6ZM17,29v8h-2v-8h2ZM13,39h6v2h-6v-2ZM22.2,45h-11.2v-2h11.84c-.28.64-.5,1.3-.64,2ZM32,55c-4.41,0-8-3.59-8-8s3.59-8,8-8,8,3.59,8,8-3.59,8-8,8ZM39.98,41c-1.83-2.42-4.72-4-7.98-4s-6.15,1.58-7.98,4h-3.02v-2c0-1.1-.9-2-2-2v-8c1.1,0,2-.9,2-2v-2h3.52c1.62,2.41,4.37,4,7.48,4s5.86-1.59,7.48-4h3.52v2c0,1.1.9,2,2,2v8c-1.1,0-2,.9-2,2v2h-3.02ZM51,39v2h-6v-2h6ZM47,37v-8h2v8h-2ZM55,47v2h-13.2c.13-.65.2-1.32.2-2h13ZM53,43v2h-11.2c-.14-.7-.36-1.36-.64-2h11.84ZM45,27v-2h6v2h-6Z"/>
  <path d="M32,23c-.551,0-1-.449-1-1s-.448-1-1-1-1,.448-1,1c0,1.302.839,2.402,2,2.816v.184c0,.552.448,1,1,1s1-.448,1-1v-.184c1.161-.414,2-1.514,2-2.816,0-1.654-1.346-3-3-3-.551,0-1-.449-1-1s.449-1,1-1,1,.449,1,1,.448,1,1,1,1-.448,1-1c0-1.302-.839-2.402-2-2.816v-.184c0-.552-.448-1-1-1s-1,.448-1,1v.184c-1.161.414-2,1.514-2,2.816,0,1.654,1.346,3,3,3,.551,0,1,.449,1,1s-.449,1-1,1Z"/>
  <path d="M29,48c.256,0,.512-.098.707-.293.391-.391.391-1.023,0-1.414l-.293-.293h6.586c.552,0,1-.448,1-1s-.448-1-1-1h-6.586l.293-.293c.391-.391.391-1.023,0-1.414s-1.023-.391-1.414,0l-2,2c-.391.391-.391,1.023,0,1.414l2,2c.195.195.451.293.707.293Z"/>
  <path d="M37.707,49.293l-2-2c-.391-.391-1.023-.391-1.414,0s-.391,1.023,0,1.414l.293.293h-6.586c-.552,0-1,.448-1,1s.448,1,1,1h6.586l-.293.293c-.391.391-.391,1.023,0,1.414.195.195.451.293.707.293s.512-.098.707-.293l2-2c.391-.391.391-1.023,0-1.414Z"/>
</svg>