<?xml version="1.0" encoding="UTF-8"?>
<svg id="Outline" xmlns="http://www.w3.org/2000/svg" version="1.1" viewBox="0 0 64 64">
  <!-- Generator: Adobe Illustrator 29.5.1, SVG Export Plug-In . SVG Version: 2.1.0 Build 141)  -->
  <path d="M56.76,14.354l-6-7c-.27-.32-.72-.43-1.11-.29-.39.15-.65.52-.65.94v2h-11c-1.65,0-3,1.35-3,3v3h-15c-1.65,0-3,1.35-3,3v25h-2v-2c0-.42-.26-.79-.65-.94-.4-.14-.84-.03-1.11.29l-6,7c-.32.37-.32.93,0,1.3l6,7c.595.694,1.76.261,1.76-.65v-2h11c1.65,0,3-1.35,3-3v-3h15c1.65,0,3-1.35,3-3v-25h2v2c0,.42.26.79.65.94.359.138.849.026,1.11-.29l6-7c.32-.37.32-.93,0-1.3ZM27,51.004c0,.55-.45,1-1,1h-12c-.55,0-1,.45-1,1v.3l-3.68-4.3,3.68-4.3v.3c0,.55.45,1,1,1h3.18c.42,1.16,1.52,2,2.82,2h7v3ZM45,45.004c0,.55-.45,1-1,1h-24c-.55,0-1-.45-1-1v-26c0-.55.45-1,1-1h24c.55,0,1,.45,1,1v26ZM51,19.304v-.3c0-.55-.45-1-1-1h-3.18c-.42-1.16-1.52-2-2.82-2h-7v-3c0-.55.45-1,1-1h12c.55,0,1-.45,1-1v-.3l3.68,4.3-3.68,4.3Z"/>
  <path d="M42,38.004h-1v-8h1c.42,0,.8-.27.94-.67.14-.4.02-.85-.32-1.11l-10-8c-.36-.29-.88-.29-1.24,0l-10,8c-.34.26-.46.71-.32,1.11.14.4.52.67.94.67h1v8h-1c-.55,0-1,.45-1,1v4c0,.55.45,1,1,1h20c.55,0,1-.45,1-1v-4c0-.55-.45-1-1-1ZM32,22.284l7.15,5.72h-14.3l7.15-5.72ZM39,30.004v8h-2v-8h2ZM35,30.004v8h-6v-8h6ZM27,30.004v8h-2v-8h2ZM41,42.004h-18v-2h18v2Z"/>
</svg>