<?xml version="1.0" encoding="UTF-8"?>
<svg id="Outline" xmlns="http://www.w3.org/2000/svg" version="1.1" viewBox="0 0 64 64">
  <!-- Generator: Adobe Illustrator 29.3.1, SVG Export Plug-In . SVG Version: 2.1.0 Build 151)  -->
  <path d="M32,19c1.6543,0,3-1.3457,3-3s-1.3457-3-3-3-3,1.3457-3,3,1.3457,3,3,3ZM32,15c.55176,0,1,.44873,1,1s-.44824,1-1,1-1-.44873-1-1,.44824-1,1-1Z"/>
  <path d="M54,29v-2.28003c.59003-.34998,1-.97998,1-1.71997v-2h1c.54999,0,1-.45001,1-1v-4c0-.40002-.23999-.77002-.62-.92004l-24-10c-.23999-.10999-.52002-.10999-.76001,0L7.62,17.07996c-.38.15002-.62.52002-.62.92004v4c0,.54999.45001,1,1,1h1v2c0,.73999.40997,1.37,1,1.71997v2.28003c0,.81.47998,1.5,1.16998,1.82001,1.06,4.04999,1.06,8.31,0,12.35999-.69.32001-1.16998,1.01001-1.16998,1.82001v2h-1c-1.09998,0-2,.89996-2,2v2c0,1.09998.90002,2,2,2h15.02002c1.82996,2.41998,4.71997,4,7.97998,4s6.15002-1.58002,7.97998-4h6.02002c.54999,0,1-.45001,1-1s-.45001-1-1-1h-4.84003c.28003-.64001.5-1.29999.64001-2h13.20001v2h-5c-.54999,0-1,.45001-1,1s.45001,1,1,1h5c1.09998,0,2-.90002,2-2v-2c0-1.10004-.90002-2-2-2h-1v-2c0-.81-.47998-1.5-1.16998-1.82001-1.06-4.04999-1.06-8.31,0-12.35999.69-.32001,1.16998-1.01001,1.16998-1.82001ZM9,51v-2h13.20001c.14001.70001.35999,1.35999.64001,2h-13.84003ZM16.71002,43h-3.42004c.92004-3.95001.92004-8.04999,0-12h3.42004c-.92004,3.95001-.92004,8.04999,0,12ZM12,29v-2h6v2h-6ZM18,45v2h-6v-2h6ZM22,47h-2v-2c0-.81-.47998-1.5-1.16998-1.82001-1.06-4.04999-1.06-8.31,0-12.35999.69-.32001,1.16998-1.01001,1.16998-1.82001v-2h7v2c0,.81.47998,1.5,1.16998,1.82001.53003,2,.81,4.07001.81,6.17999,0,.15997-.01001.32001-.01001.46997-4.03998,1.29004-6.96997,5.07001-6.96997,9.53003ZM24.07001,48h1.96002c.12,2.14001.63995,4.06,1.41998,5.57001-1.82001-1.26001-3.09003-3.27002-3.38-5.57001ZM26.03003,46h-1.96002c.28998-2.29999,1.56-4.31,3.38-5.57001-.78003,1.51001-1.29999,3.42999-1.41998,5.57001ZM31,54.70001c-1.42999-.82001-2.73999-3.32001-2.96002-6.70001h2.96002v6.70001ZM31,46h-2.96002c.22003-3.38,1.53003-5.88,2.96002-6.70001v6.70001ZM30.97998,37.04999v-.04999c0-2.03003-.22998-4.04999-.69-6h3.42004c-.46002,1.95001-.69,3.96997-.69,6v.04999c-.33002-.03003-.67999-.04999-1.02002-.04999s-.69.01996-1.02002.04999ZM29,29v-2h6v2h-6ZM33,54.70001v-6.70001h2.96002c-.22003,3.38-1.53003,5.88-2.96002,6.70001ZM33,46v-6.70001c1.42999.82001,2.73999,3.32001,2.96002,6.70001h-2.96002ZM36.54999,53.57001c.78003-1.51001,1.29999-3.42999,1.41998-5.57001h1.96002c-.28998,2.29999-1.56,4.31-3.38,5.57001ZM37.96997,46c-.12-2.14001-.63995-4.06-1.41998-5.57001,1.82001,1.26001,3.09003,3.27002,3.38,5.57001h-1.96002ZM45.16998,43.17999c-.69.32001-1.16998,1.01001-1.16998,1.82001v2h-2c0-4.46002-2.92999-8.23999-6.96997-9.53003,0-.14996-.01001-.31-.01001-.46997,0-2.10999.27997-4.17999.81-6.17999.69-.32001,1.16998-1.01001,1.16998-1.82001v-2h7v2c0,.81.47998,1.5,1.16998,1.82001,1.06,4.04999,1.06,8.31,0,12.35999ZM52,47h-6v-2h6v2ZM47.28998,31h3.42004c-.92004,3.95001-.92004,8.04999,0,12h-3.42004c.92004-3.95001.92004-8.04999,0-12ZM52,29h-6v-2h6v2ZM11,25v-2h6c.54999,0,1-.45001,1-1s-.45001-1-1-1h-8v-2.33002l23-9.59003,23,9.59003v2.33002H21c-.54999,0-1,.45001-1,1s.45001,1,1,1h32v2H11Z"/>
</svg>