<?xml version="1.0" encoding="UTF-8"?>
<svg id="Outline" xmlns="http://www.w3.org/2000/svg" version="1.1" viewBox="0 0 64 64">
  <!-- Generator: Adobe Illustrator 29.5.1, SVG Export Plug-In . SVG Version: 2.1.0 Build 141)  -->
  <path d="M56,17c.55,0,1-.45,1-1v-2c0-1.65-1.35-3-3-3H10c-1.65,0-3,1.35-3,3v32c0,1.65,1.35,3,3,3h3v3c0,.55.45,1,1,1h6c.38,0,.73-.21.89-.55l1.73-3.45h18.76l1.73,3.45c.16.34.51.55.89.55h6c.55,0,1-.45,1-1v-3h3c1.65,0,3-1.35,3-3v-26c0-.55-.45-1-1-1s-1,.45-1,1v26c0,.55-.45,1-1,1H10c-.55,0-1-.45-1-1V14c0-.55.45-1,1-1h44c.55,0,1,.45,1,1v2c0,.55.45,1,1,1ZM49,49v2h-4.38l-1-2h5.38ZM15,49h5.38l-1,2h-4.38v-2Z"/>
  <path d="M14,45h38c.552,0,1-.447,1-1v-28c0-.553-.448-1-1-1h-4c-.552,0-1,.447-1,1s.448,1,1,1h3v26H15v-2.184c1.161-.414,2-1.514,2-2.816v-4c0-1.302-.839-2.402-2-2.816v-2.369c1.161-.414,2-1.514,2-2.816v-4c0-1.302-.839-2.402-2-2.816v-2.184h29c.552,0,1-.447,1-1s-.448-1-1-1H14c-.552,0-1,.447-1,1v3.184c-1.161.414-2,1.514-2,2.816v4c0,1.302.839,2.402,2,2.816v2.369c-1.161.414-2,1.514-2,2.816v4c0,1.302.839,2.402,2,2.816v3.184c0,.553.448,1,1,1ZM13,22c0-.552.449-1,1-1s1,.448,1,1v4c0,.552-.449,1-1,1s-1-.448-1-1v-4ZM13,34c0-.552.449-1,1-1s1,.448,1,1v4c0,.552-.449,1-1,1s-1-.448-1-1v-4Z"/>
  <path d="M31,30c0,4.963,4.038,9,9,9s9-4.037,9-9-4.038-9-9-9-9,4.037-9,9ZM43.536,26.465c.373.372,1.019.396,1.415,0l.648-.649c.686.915,1.151,2.001,1.322,3.184h-.92c-.552,0-1,.447-1,1s.448,1,1,1h.92c-.17,1.183-.636,2.269-1.322,3.184l-.648-.649c-.391-.391-1.024-.391-1.415,0-.391.39-.391,1.023,0,1.414l.649.649c-.915.686-2.001,1.151-3.184,1.322v-.92c0-.553-.448-1-1-1s-1,.447-1,1v.92c-1.183-.17-2.269-.636-3.184-1.322l.649-.649c.39-.391.39-1.024,0-1.414-.391-.391-1.024-.391-1.415,0l-.648.649c-.686-.915-1.151-2.001-1.322-3.184h.92c.552,0,1-.447,1-1s-.448-1-1-1h-.92c.17-1.183.636-2.269,1.322-3.184,0,0,.648.649.648.649.387.387,1.028.386,1.415,0,.391-.39.391-1.023,0-1.414l-.649-.649c.915-.686,2.001-1.151,3.184-1.322v.92c0,.553.448,1,1,1s1-.447,1-1v-.92c1.183.17,2.269.636,3.184,1.322l-.649.649c-.39.391-.39,1.024,0,1.414Z"/>
  <path d="M40,27c-1.654,0-3,1.346-3,3s1.346,3,3,3,3-1.346,3-3-1.346-3-3-3ZM40,31c-.551,0-1-.448-1-1s.449-1,1-1,1,.448,1,1-.449,1-1,1Z"/>
  <circle cx="20" cy="24" r="1"/>
  <circle cx="24" cy="24" r="1"/>
  <circle cx="28" cy="24" r="1"/>
  <circle cx="20" cy="28" r="1"/>
  <circle cx="24" cy="28" r="1"/>
  <circle cx="28" cy="28" r="1"/>
  <circle cx="20" cy="32" r="1"/>
  <circle cx="24" cy="32" r="1"/>
  <circle cx="28" cy="32" r="1"/>
  <circle cx="20" cy="36" r="1"/>
  <circle cx="24" cy="36" r="1"/>
  <circle cx="28" cy="36" r="1"/>
</svg>