<?xml version="1.0" encoding="UTF-8"?>
<svg id="Outline" xmlns="http://www.w3.org/2000/svg" version="1.1" viewBox="0 0 64 64">
  <!-- Generator: Adobe Illustrator 29.3.1, SVG Export Plug-In . SVG Version: 2.1.0 Build 151)  -->
  <path d="M51,55h-1v-2c0-1.10004-.90002-2-2-2v-16c0-.54999-.45001-1-1-1s-1,.45001-1,1v16h-28V19h28v8c0,.54999.45001,1,1,1s1-.45001,1-1v-8c1.09998,0,2-.90002,2-2v-2c0-1.10004-.90002-2-2-2h-9.08002c-.48999-3.39001-3.39996-6-6.91998-6s-6.42999,2.60999-6.91998,6h-9.08002c-1.09998,0-2,.89996-2,2v2c0,1.09998.90002,2,2,2v32c-1.09998,0-2,.89996-2,2v2h-1c-.54999,0-1,.45001-1,1s.45001,1,1,1h38c.54999,0,1-.45001,1-1s-.45001-1-1-1ZM32,9c2.41998,0,4.42999,1.71997,4.90002,4h-9.80005c.47003-2.28003,2.48004-4,4.90002-4ZM16,15h32v2H16v-2ZM48,55H16v-2h32v2Z"/>
  <path d="M30,31c.55273,0,1-.44775,1-1v-6c0-1.6543-1.3457-3-3-3s-3,1.3457-3,3v6c0,.55225.44727,1,1,1s1-.44775,1-1v-2h2v2c0,.55225.44727,1,1,1ZM27,26v-2c0-.55127.44824-1,1-1s1,.44873,1,1v2h-2Z"/>
  <path d="M36,31c1.6543,0,3-1.3457,3-3v-4c0-1.6543-1.3457-3-3-3h-2c-.55273,0-1,.44775-1,1v8c0,.55225.44727,1,1,1h2ZM35,23h1c.55176,0,1,.44873,1,1v4c0,.55127-.44824,1-1,1h-1v-6Z"/>
  <path d="M44,34c0-.55225-.44727-1-1-1h-22c-.55273,0-1,.44775-1,1s.44727,1,1,1h22c.55273,0,1-.44775,1-1Z"/>
  <path d="M41,39c.55273,0,1-.44775,1-1s-.44727-1-1-1h-18c-.55273,0-1,.44775-1,1s.44727,1,1,1h18Z"/>
  <path d="M21,42v6c0,.55225.44727,1,1,1h20c.55273,0,1-.44775,1-1v-6c0-.55225-.44727-1-1-1h-20c-.55273,0-1,.44775-1,1ZM23,43h18v4h-18v-4Z"/>
  <circle cx="47" cy="31" r="1"/>
</svg>