<?xml version="1.0" encoding="UTF-8"?>
<svg id="Outline" xmlns="http://www.w3.org/2000/svg" version="1.1" viewBox="0 0 64 64">
  <!-- Generator: Adobe Illustrator 29.5.1, SVG Export Plug-In . SVG Version: 2.1.0 Build 141)  -->
  <path d="M53,7c-1.2,0-2.266.542-3,1.382-.734-.84-1.8-1.382-3-1.382h-30c-1.2,0-2.266.542-3,1.382-.734-.84-1.8-1.382-3-1.382-2.206,0-4,1.794-4,4s1.794,4,4,4c1.2,0,2.266-.542,3-1.382.734.84,1.8,1.382,3,1.382h1v2h-4c-1.654,0-3,1.346-3,3v7c0,.553.448,1,1,1s1-.447,1-1v-7c0-.552.449-1,1-1h4v2h-1c-.552,0-1,.447-1,1s.448,1,1,1h4c.552,0,1-.447,1-1s-.448-1-1-1h-1v-2h24v2h-1c-.552,0-1,.447-1,1s.448,1,1,1h4c.552,0,1-.447,1-1s-.448-1-1-1h-1v-2h4c.551,0,1,.448,1,1v20c0,.553.448,1,1,1s1-.447,1-1v-20c0-1.654-1.346-3-3-3h-4v-2h1c1.2,0,2.266-.542,3-1.382.734.84,1.8,1.382,3,1.382,2.206,0,4-1.794,4-4s-1.794-4-4-4ZM44,9v4h-24v-4h24ZM11,13c-1.103,0-2-.897-2-2s.897-2,2-2,2,.897,2,2-.897,2-2,2ZM17,13c-1.103,0-2-.897-2-2s.897-2,2-2h1v4h-1ZM44,17h-24v-2h24v2ZM47,13h-1v-4h1c1.103,0,2,.897,2,2s-.897,2-2,2ZM53,13c-1.103,0-2-.897-2-2s.897-2,2-2,2,.897,2,2-.897,2-2,2Z"/>
  <path d="M52,43c-.552,0-1,.447-1,1v10c0,.552-.449,1-1,1H14c-.551,0-1-.448-1-1v-23c0-.553-.448-1-1-1s-1,.447-1,1v23c0,1.654,1.346,3,3,3h36c1.654,0,3-1.346,3-3v-10c0-.553-.448-1-1-1Z"/>
  <path d="M32,51c.256,0,.512-.098.707-.293l11.78-11.78c3.638-3.638,3.638-9.557,0-13.194-3.411-3.411-8.827-3.625-12.487-.639-3.661-2.986-9.077-2.772-12.487.639-3.638,3.638-3.638,9.557,0,13.194l11.78,11.78c.195.195.451.293.707.293ZM32,48.586l-1.586-1.586h3.172l-1.586,1.586ZM22.414,39h19.172l-2,2h-15.172l-2-2ZM37.586,43l-2,2h-7.172l-2-2h11.172ZM18.907,31h26.186c.121.66.152,1.333.092,2h-26.369c-.061-.667-.029-1.34.092-2ZM26.11,25.003c1.877,0,3.754.715,5.183,2.144.391.391,1.023.391,1.414,0,2.858-2.857,7.508-2.857,10.366,0,.558.558,1.003,1.186,1.343,1.854h-24.833c.34-.668.785-1.295,1.343-1.854,1.429-1.429,3.306-2.144,5.183-2.144ZM19.288,35h25.424c-.277.711-.668,1.387-1.175,2h-23.073c-.507-.613-.898-1.289-1.175-2Z"/>
</svg>