<?xml version="1.0" encoding="UTF-8"?>
<svg id="Outline" xmlns="http://www.w3.org/2000/svg" version="1.1" viewBox="0 0 64 64">
  <!-- Generator: Adobe Illustrator 29.3.1, SVG Export Plug-In . SVG Version: 2.1.0 Build 151)  -->
  <path d="M46,36c-.56,0-1.07001.15997-1.52002.42999l-7.67999-6.39001c.12-.33002.20001-.66998.20001-1.03998,0-.90002-.40002-1.69-1.03003-2.23999l1.91003-4.77002c.03998,0,.08002.01001.12.01001,1.65002,0,3-1.35004,3-3s-1.34998-3-3-3-3,1.34998-3,3c0,.89996.40002,1.69,1.03003,2.23999l-1.91003,4.77002c-.03998,0-.08002-.01001-.12-.01001-1.65002,0-3,1.34998-3,3s1.34998,3,3,3c.56,0,1.07001-.16003,1.52002-.42999l7.67999,6.38995c-.12.33002-.20001.67004-.20001,1.04004,0,.57996.16998,1.12.46002,1.57001l-4.48004,5.60999c-.31-.10999-.63995-.17999-.97998-.17999-1.65002,0-3,1.34998-3,3s1.34998,3,3,3,3-1.35004,3-3c0-.58002-.16998-1.12-.46002-1.57001l4.48004-5.60999c.31.10999.63995.17999.97998.17999,1.65002,0,3-1.35004,3-3s-1.34998-3-3-3ZM38,18c.54999,0,1,.45001,1,1s-.45001,1-1,1c-.13,0-.25-.03003-.35999-.07001l-.01001-.01001h-.03003c-.34998-.15997-.59998-.51001-.59998-.91998,0-.54999.45001-1,1-1ZM34,30c-.54999,0-1-.45001-1-1s.45001-1,1-1c.13,0,.25.02997.35999.07001l.01001.00995h.03003c.34998.16003.59998.51001.59998.92004,0,.54999-.45001,1-1,1ZM38,50c-.54999,0-1-.45001-1-1s.45001-1,1-1,1,.45001,1,1-.45001,1-1,1ZM46,40c-.54999,0-1-.45001-1-1s.45001-1,1-1,1,.45001,1,1-.45001,1-1,1Z"/>
  <path d="M56,55H9v-2h21c.54999,0,1-.45001,1-1v-6c0-.54999-.45001-1-1-1H9v-2h29c.54999,0,1-.45001,1-1v-6c0-.54999-.45001-1-1-1H9v-2h17c.54999,0,1-.45001,1-1v-6c0-.54999-.45001-1-1-1H9v-2h21c.54999,0,1-.45001,1-1v-6c0-.54999-.45001-1-1-1h-7c-.54999,0-1,.45001-1,1s.45001,1,1,1h6v4H9v-4h6c.54999,0,1-.45001,1-1s-.45001-1-1-1h-6v-7c0-.54999-.45001-1-1-1s-1,.45001-1,1v48c0,.54999.45001,1,1,1h48c.54999,0,1-.45001,1-1s-.45001-1-1-1ZM9,27h16v4H9v-4ZM9,37h28v4H9v-4ZM9,47h20v4H9v-4Z"/>
  <circle cx="19" cy="16" r="1"/>
</svg>