<?xml version="1.0" encoding="UTF-8"?>
<svg id="Outline" xmlns="http://www.w3.org/2000/svg" version="1.1" viewBox="0 0 64 64">
  <!-- Generator: Adobe Illustrator 29.5.1, SVG Export Plug-In . SVG Version: 2.1.0 Build 141)  -->
  <path d="M56,51h-8v-13c0-.55-.45-1-1-1s-1,.45-1,1v13h-4v-18h4v1c0,.55.45,1,1,1s1-.45,1-1v-2c0-.55-.45-1-1-1h-6c-.55,0-1,.45-1,1v19h-4v-13c0-.55-.45-1-1-1h-6c-.55,0-1,.45-1,1v13h-4v-7c0-.55-.45-1-1-1h-6c-.55,0-1,.45-1,1v7h-3V8c0-.55-.45-1-1-1h-4c-.55,0-1,.45-1,1v48c0,.55.45,1,1,1h38c.55,0,1-.45,1-1s-.45-1-1-1H9V9h2v43c0,.55.45,1,1,1h43v2h-5c-.55,0-1,.45-1,1s.45,1,1,1h6c.55,0,1-.45,1-1v-4c0-.55-.45-1-1-1ZM22,51h-4v-6h4v6ZM34,51h-4v-12h4v12Z"/>
  <path d="M16.685,37.499l-.277,2.386c-.042.358.113.712.405.925.293.212.676.248,1.005.1l2.182-1.001,2.182,1.001c.133.061.275.091.417.091.592,0,1.061-.526.993-1.115l-.277-2.386,1.626-1.766c.245-.266.327-.644.215-.986-.112-.344-.4-.601-.754-.672l-2.354-.473-1.177-2.093c-.354-.631-1.389-.631-1.743,0l-1.177,2.093-2.354.473c-.354.071-.642.328-.754.672-.111.343-.029.721.215.986l1.626,1.766ZM18.795,35.473c.285-.058.531-.236.674-.49l.531-.943.531.943c.143.254.389.433.674.49l1.062.213-.733.796c-.197.215-.291.504-.257.793l.125,1.075-.984-.451c-.132-.061-.275-.091-.417-.091s-.285.03-.417.091l-.984.451.125-1.075c.034-.289-.061-.578-.257-.793l-.733-.796,1.062-.213Z"/>
  <path d="M28.685,31.499l-.277,2.386c-.042.358.113.712.405.925.293.212.676.248,1.005.1l2.182-1.001,2.182,1.001c.133.061.275.091.417.091.59,0,1.062-.527.993-1.115l-.277-2.386,1.626-1.766c.245-.266.327-.644.215-.986-.112-.344-.4-.601-.754-.672l-2.354-.473-1.177-2.093c-.354-.631-1.389-.631-1.743,0l-1.177,2.093-2.354.473c-.354.071-.642.328-.754.672-.111.343-.029.721.215.986l1.626,1.766ZM30.795,29.473c.285-.058.531-.236.674-.49l.531-.943.531.943c.143.254.389.433.674.49l1.062.213-.733.796c-.197.215-.291.504-.257.793l.125,1.075-.984-.451c-.132-.061-.275-.091-.417-.091s-.285.03-.417.091l-.984.451.125-1.075c.034-.289-.061-.578-.257-.793l-.733-.796,1.062-.213Z"/>
  <path d="M40.685,25.499l-.277,2.386c-.042.358.113.712.405.925.292.212.676.249,1.005.1l2.182-1.001,2.182,1.001c.133.06.275.091.417.091.59,0,1.062-.532.994-1.115l-.277-2.386,1.626-1.766c.245-.266.327-.644.215-.986-.112-.344-.4-.601-.754-.672l-2.354-.473-1.177-2.093c-.354-.631-1.389-.631-1.743,0l-1.177,2.093-2.354.473c-.354.071-.642.328-.754.672-.111.343-.029.721.215.986l1.626,1.766ZM42.795,23.473c.285-.058.531-.236.674-.49l.531-.943.531.943c.143.254.389.433.674.49l1.062.213-.733.796c-.197.215-.291.504-.257.793l.125,1.075-.984-.451c-.132-.061-.275-.091-.417-.091s-.285.03-.417.091l-.984.451.125-1.075c.034-.289-.061-.578-.257-.793l-.733-.796,1.062-.213Z"/>
  <path d="M18.707,24.707l.293-.293v3.586c0,.553.448,1,1,1s1-.447,1-1v-3.586l.293.293c.195.195.451.293.707.293.874,0,1.322-1.093.707-1.707l-2-2c-.391-.391-1.023-.391-1.414,0l-2,2c-.391.391-.391,1.023,0,1.414s1.023.391,1.414,0Z"/>
  <path d="M30.707,18.707l.293-.293v3.586c0,.553.448,1,1,1s1-.447,1-1v-3.586l.293.293c.195.195.451.293.707.293.875,0,1.325-1.089.707-1.707l-2-2c-.391-.391-1.023-.391-1.414,0l-2,2c-.391.391-.391,1.023,0,1.414s1.023.391,1.414,0Z"/>
  <path d="M42.707,12.707l.293-.293v3.586c0,.553.448,1,1,1s1-.447,1-1v-3.586l.293.293c.195.195.451.293.707.293.876,0,1.323-1.092.707-1.707l-2-2c-.391-.391-1.023-.391-1.414,0l-2,2c-.391.391-.391,1.023,0,1.414s1.023.391,1.414,0Z"/>
</svg>