<?xml version="1.0" encoding="UTF-8"?>
<svg id="Outline" xmlns="http://www.w3.org/2000/svg" version="1.1" viewBox="0 0 64 64">
  <!-- Generator: Adobe Illustrator 29.5.1, SVG Export Plug-In . SVG Version: 2.1.0 Build 141)  -->
  <path d="M56,22h-2.7l1.55-2.47c.19-.31.2-.7.03-1.01-.18-.32-.52-.52-.88-.52h-10c-.36,0-.7.2-.88.52-.17.31-.16.7.03,1.01l1.55,2.47h-3.7v-7c0-.55-.45-1-1-1h-6c-.55,0-1,.45-1,1v7h-2v-7c0-.55-.45-1-1-1h-6c-.55,0-1,.45-1,1v7h-3.7l1.55-2.47c.19-.31.2-.7.03-1.01-.18-.32-.52-.52-.88-.52h-10c-.36,0-.7.2-.88.52-.17.31-.16.7.03,1.01l1.55,2.47h-2.7c-.55,0-1,.45-1,1v4c0,.55.45,1,1,1h2v21c0,.55.45,1,1,1h42c.55,0,1-.45,1-1v-8c0-.55-.45-1-1-1s-1,.45-1,1v7h-2.48c-1.62-2.34-2.52-5.15-2.52-8v-4h2c.55,0,1-.45,1-1v-4c0-.55-.45-1-1-1h-12c-.55,0-1,.45-1,1v4c0,.55.45,1,1,1h2v4c0,2.85-.9,5.66-2.52,8h-8.96c-1.62-2.34-2.52-5.15-2.52-8v-4h2c.55,0,1-.45,1-1v-4c0-.55-.45-1-1-1h-12c-.55,0-1,.45-1,1v4c0,.55.45,1,1,1h2v4c0,2.85-.9,5.66-2.52,8h-2.48v-20h26c.55,0,1-.45,1-1s-.45-1-1-1H9v-2h46v2h-13c-.55,0-1,.45-1,1s.45,1,1,1h10v9c0,.55.45,1,1,1s1-.45,1-1v-9h2c.55,0,1-.45,1-1v-4c0-.55-.45-1-1-1ZM38,34v-2h10v2h-10ZM45.14,42h-4.28c.08-.66.14-1.33.14-2v-4h4v4c0,.67.06,1.34.14,2ZM40.48,44h5.04c.36,1.4.92,2.75,1.64,4h-8.32c.72-1.25,1.28-2.6,1.64-4ZM16,34v-2h10v2h-10ZM23.14,42h-4.28c.08-.66.14-1.33.14-2v-4h4v4c0,.67.06,1.34.14,2ZM18.48,44h5.04c.36,1.4.92,2.75,1.64,4h-8.32c.72-1.25,1.28-2.6,1.64-4ZM16.95,22h-3.9l-1.25-2h6.4l-1.25,2ZM29,22h-4v-6h4v6ZM39,22h-4v-6h4v6ZM50.95,22h-3.9l-1.25-2h6.4l-1.25,2Z"/>
</svg>