<?xml version="1.0" encoding="UTF-8"?>
<svg id="Outline" xmlns="http://www.w3.org/2000/svg" version="1.1" viewBox="0 0 64 64">
  <!-- Generator: Adobe Illustrator 29.3.1, SVG Export Plug-In . SVG Version: 2.1.0 Build 151)  -->
  <path d="M33.34998,20.01996c-.82996-.75-1.75-1.39996-2.77997-1.90997-.35999-.17999-.78998-.13-1.10004.13-.31.27002-.41998.69-.28998,1.08002l.23999.73999c-12.87.60999-22.41998,5.64001-22.41998,11.94,0,13.78998,11.21002,25,25,25s25-11.21002,25-25c0-6.53003-10.14001-11.64001-23.65002-11.98004ZM55,32c0,1.81-1.17999,3.52997-3.21997,5.01996l-.58002-10.45996c2.39996,1.57001,3.79999,3.45001,3.79999,5.44ZM49.13,25.39001l.71997,12.82996c-1.14996.62-2.46997,1.17999-3.90997,1.67004l-.89001-16.08002c1.5.45996,2.87.98999,4.08002,1.58002ZM43.01001,23.26001l.95996,17.22998c-1.25995.33997-2.59998.63-4,.85999l-.21997-4.38c1.28003-1.42999,2-3.29999,2-5.46997,0-1.5-.34998-3.08002-1-4.54004-.16998-.38-.52002-.63-.96002-.59998-.20996.01001-.39996.09003-.56.21002l-.19995-4.07001c1.38995.19,2.71997.45001,3.97998.76001ZM37.01001,22.25l.27002,5.39001c-.21002-1.76001-.80005-3.47003-1.74005-4.99005-.10999-.19-.23999-.37-.37-.54999.62.04004,1.23999.09003,1.84003.15002ZM26.98999,22.25c.89001-.09003,1.79999-.16003,2.72003-.20001-.09003.70001-.40002,1.34998-.91003,1.85999-.90997.91003-1.45001,2.10004-1.53998,3.37-.17999-.14996-.34003-.31-.5-.47998l.22998-4.54999ZM27.15997,29.57001l.64001.32001c.31.15997.67999.13995.97003-.04004.29999-.17999.47998-.5.47998-.84998v-1.35004c0-.88.34003-1.69995.96002-2.32001,1-1,1.54999-2.31995,1.54999-3.73999,0-.10999-.01001-.21997-.01001-.32996.38.33997.75.69995,1.08002,1.07996.01996.03003.03998.05005.07001.08002.34998.40997.66998.84003.94,1.27002,1,1.63995,1.53998,3.51001,1.53998,5.41998v1.14001c0,.54999.44,1,1,1,.94,0,1.84998-.29004,2.59998-.84003.22003-.15997.42999-.33002.61005-.52997.10999.54999.15997,1.08997.15997,1.62,0,4.79999-4.16998,6.5-7.75,6.5s-7.75-1.70001-7.75-6.5c0-1.20001.27002-2.45001.78003-3.64001.56995.71002,1.29999,1.29999,2.12994,1.71002ZM37.97998,41.64001c-1.59998.18994-3.26996.31-4.97998.34998v-2.03003c1.85999-.13,3.48999-.63,4.83002-1.41998l.14996,3.10004ZM31,39.95996v2.03003c-1.71002-.03998-3.38-.16003-4.97998-.34998l.14996-3.10004c1.34003.78998,2.97003,1.28998,4.83002,1.41998ZM20.98999,23.26001c1.26001-.31,2.59003-.57001,3.97998-.77002l-.10999,2.33997c-.28998.04004-.56.20001-.71997.46002-1.22003,1.91003-1.89001,4.10999-1.89001,6.21002,0,2.16998.71997,4.03998,2,5.46997l-.21997,4.38c-1.40002-.22998-2.74005-.52002-4-.85999l.95996-17.22998ZM14.87,25.39996c1.21002-.58997,2.58002-1.12,4.08002-1.57996l-.89001,16.07001c-1.44-.49005-2.76001-1.05005-3.90997-1.67004l.71997-12.82001ZM12.79999,26.57001l-.58002,10.44995c-2.03998-1.48999-3.21997-3.20996-3.21997-5.01996,0-1.98004,1.40002-3.85004,3.79999-5.42999ZM32,55c-10.79999,0-19.88-7.48004-22.34003-17.53003,4.08002,3.91003,12.45001,6.53003,22.34003,6.53003s18.26001-2.62,22.34003-6.53003c-2.46002,10.04999-11.54004,17.53003-22.34003,17.53003Z"/>
  <path d="M10,13h2v3c0,.55273.44727,1,1,1h4c.55273,0,1-.44727,1-1v-3h2v3c0,.55273.44727,1,1,1h4c.55273,0,1-.44727,1-1v-3h2.10107c.46466,2.2793,2.4845,4,4.89893,4s4.43427-1.7207,4.89893-4h2.10107v3c0,.55273.44727,1,1,1h4c.55273,0,1-.44727,1-1v-3h8c.55273,0,1-.44727,1-1s-.44727-1-1-1h-8v-3c0-.55273-.44727-1-1-1h-4c-.55273,0-1,.44727-1,1v3h-2.10107c-.46466-2.2793-2.4845-4-4.89893-4s-4.43427,1.7207-4.89893,4h-2.10107v-3c0-.55273-.44727-1-1-1h-4c-.55273,0-1,.44727-1,1v3h-2v-3c0-.55273-.44727-1-1-1h-4c-.55273,0-1,.44727-1,1v3h-2c-.55273,0-1,.44727-1,1s.44727,1,1,1ZM42,9h2v6h-2v-6ZM33,9c1.6543,0,3,1.3457,3,3s-1.3457,3-3,3-3-1.3457-3-3,1.3457-3,3-3ZM22,9h2v6h-2v-6ZM14,9h2v6h-2v-6Z"/>
</svg>