<?xml version="1.0" encoding="UTF-8"?>
<svg id="Outline" xmlns="http://www.w3.org/2000/svg" version="1.1" viewBox="0 0 64 64">
  <!-- Generator: Adobe Illustrator 29.5.1, SVG Export Plug-In . SVG Version: 2.1.0 Build 141)  -->
  <path d="M14,11h-2c-.553,0-1,.447-1,1v2c0,.553.447,1,1,1s1-.447,1-1v-1h1c.553,0,1-.447,1-1s-.447-1-1-1Z"/>
  <path d="M39,12c0-.553-.447-1-1-1h-2c-.553,0-1,.447-1,1s.447,1,1,1h1v1c0,.553.447,1,1,1s1-.447,1-1v-2Z"/>
  <path d="M11,26c0,.553.447,1,1,1h2c.553,0,1-.447,1-1s-.447-1-1-1h-1v-1c0-.553-.447-1-1-1s-1,.447-1,1v2Z"/>
  <path d="M38,23c-.553,0-1,.447-1,1v1h-1c-.553,0-1,.447-1,1s.447,1,1,1h2c.553,0,1-.447,1-1v-2c0-.553-.447-1-1-1Z"/>
  <path d="M26,15v-3c0-.553-.447-1-1-1s-1,.447-1,1v3c0,.553.447,1,1,1s1-.447,1-1Z"/>
  <path d="M22,15v-3c0-.553-.447-1-1-1s-1,.447-1,1v3c0,.553.447,1,1,1s1-.447,1-1Z"/>
  <path d="M18,15v-3c0-.553-.447-1-1-1s-1,.447-1,1v3c0,.553.447,1,1,1s1-.447,1-1Z"/>
  <path d="M30,15v-3c0-.553-.447-1-1-1s-1,.447-1,1v3c0,.553.447,1,1,1s1-.447,1-1Z"/>
  <path d="M34,15v-3c0-.553-.447-1-1-1s-1,.447-1,1v3c0,.553.447,1,1,1s1-.447,1-1Z"/>
  <path d="M24,23v3c0,.553.447,1,1,1s1-.447,1-1v-3c0-.553-.447-1-1-1s-1,.447-1,1Z"/>
  <path d="M20,23v3c0,.553.447,1,1,1s1-.447,1-1v-3c0-.553-.447-1-1-1s-1,.447-1,1Z"/>
  <path d="M16,23v3c0,.553.447,1,1,1s1-.447,1-1v-3c0-.553-.447-1-1-1s-1,.447-1,1Z"/>
  <path d="M28,23v3c0,.553.447,1,1,1s1-.447,1-1v-3c0-.553-.447-1-1-1s-1,.447-1,1Z"/>
  <path d="M32,23v3c0,.553.447,1,1,1s1-.447,1-1v-3c0-.553-.447-1-1-1s-1,.447-1,1Z"/>
  <path d="M14,17c0-.553-.447-1-1-1s-1,.447-1,1v4c0,.553.447,1,1,1s1-.447,1-1v-1h22v1c0,.553.447,1,1,1s1-.447,1-1v-4c0-.553-.447-1-1-1s-1,.447-1,1v1H14v-1Z"/>
  <path d="M38,35c.547,0,1-.45,1-1v-3h1c1.654,0,3-1.346,3-3V10c0-1.654-1.346-3-3-3H10c-1.654,0-3,1.346-3,3v10c0,.553.447,1,1,1s1-.447,1-1v-10c0-.552.448-1,1-1h30c.552,0,1,.448,1,1v18c0,.552-.448,1-1,1h-2c-.553,0-1,.447-1,1v2.276l-5.504-3.145c-.151-.086-.322-.132-.496-.132H10c-.552,0-1-.448-1-1v-4c0-.553-.447-1-1-1s-1,.447-1,1v4c0,1.654,1.346,3,3,3h20.734l6.77,3.868c.153.088.325.132.496.132Z"/>
  <path d="M54,37h-9c-.55,0-1,.45-1,1s.45,1,1,1h4v5.61l-4.68-1.56c-.21-.07-.43-.07-.64,0l-4.68,1.56v-5.61h2c.55,0,1-.45,1-1s-.45-1-1-1h-7c-1.65,0-3,1.35-3,3v14c0,1.65,1.35,3,3,3h20c1.65,0,3-1.35,3-3v-14c0-1.65-1.35-3-3-3ZM55,54c0,.55-.45,1-1,1h-20c-.55,0-1-.45-1-1v-14c0-.55.45-1,1-1h3v7c0,.32.15.62.42.81.26.19.59.24.9.14l5.68-1.9,5.68,1.9c.11.03.21.05.319.05.542,0,1.001-.461,1.001-1v-7h3c.55,0,1,.45,1,1v14Z"/>
</svg>