<?xml version="1.0" encoding="UTF-8"?>
<svg id="Outline" xmlns="http://www.w3.org/2000/svg" version="1.1" viewBox="0 0 64 64">
  <!-- Generator: Adobe Illustrator 29.3.1, SVG Export Plug-In . SVG Version: 2.1.0 Build 151)  -->
  <path d="M52.81401,38.35029l-7.97998-1.32001-.74005-3.52002c1.55005-1.44,2.60004-3.40002,2.84003-5.60999h.06c.88,0,1.71002-.39001,2.28998-1.06.57001-.67004.81-1.56.67004-2.44-.11005-.67004-.46002-1.25-.96002-1.69v-2.66998c0-1.68005-.83002-3.23004-2.22998-4.16003l-.03003-.02002c.28003-.14996.57001-.25995.87-.32996l2.63-.66003c.45001-.10999.77002-.51996.76001-.97998-.01001-.47003-.33002-.87-.78003-.97003l-6.73999-1.48999c-1.62-.35999-3.26996-.42999-4.91998-.19l-.5.07001c-2.51001.35999-4.90997,1.42999-6.85999,3.04999-.79004-.91998-1.94-1.45996-3.20001-1.45996-.46002,0-.85999.31-.96997.76001-.69,2.75995-.76001,5.69-.20001,8.47998l.12.60999c-.47003.44-.79999,1.01001-.91003,1.65002-.13995.88.10004,1.76996.67004,2.44.57996.66998,1.40997,1.06,2.28998,1.06h.06c.23999,2.20996,1.28998,4.16998,2.84003,5.60999l-.74005,3.52002-7.97998,1.32001c-2.41998.39996-4.17999,2.47998-4.17999,4.94v8.60999c0,.54999.45001,1,1,1h12c.54999,0,1-.45001,1-1s-.45001-1-1-1h-5v-2.76001l1.62-3.23999h1.38v2c-.54999,0-1,.45001-1,1s.45001,1,1,1h2c.54999,0,1-.45001,1-1s-.45001-1-1-1v-2h12v2c-.54999,0-1,.45001-1,1s.45001,1,1,1h2c.54999,0,1-.45001,1-1s-.45001-1-1-1v-2h1.38l1.62,3.23999v2.76001h-9c-.54999,0-1,.45001-1,1s.45001,1,1,1h16c.54999,0,1-.45001,1-1v-8.60999c0-2.46002-1.76001-4.54004-4.17999-4.94ZM29.994,42.90028h-2c-.38,0-.71997.20996-.89001.54999l-2,4c-.07001.14001-.10999.28998-.10999.45001v3h-4v-7.60999c0-1.48004,1.04999-2.72003,2.5-2.96002l6.5-1.08002v3.65002ZM28.76402,15.0403c.52997.18994.96997.56995,1.22998,1.09998l.10999.21002c.14001.27997.41003.48999.73004.53998.31995.04999.63995-.06.87-.28003,1.77997-1.78998,4.13995-2.95996,6.63-3.31995l.5-.07001c1.40997-.20001,2.81995-.15002,4.20996.15997l2.89001.64001c-.60999.29999-1.16998.69-1.65002,1.16998-.20996.21002-.31.51001-.28998.81.03003.29999.20001.57001.45001.72998l1.20996.81006c.84003.56,1.34003,1.5,1.34003,2.5v1.87c-.03998,0-.07001-.01001-.10999-.01001h-.89001c-.54999,0-1-.45001-1-1v-1c0-.32001-.15002-.62-.41998-.81-.26001-.19-.59003-.23999-.90002-.14001-3.65997,1.21997-7.70001,1.21997-11.35999,0-.31-.09998-.64001-.04999-.90002.14001-.26996.19-.41998.48999-.41998.81v1c0,.54999-.45001,1-1,1h-.89001c-.09998,0-.19.01996-.28998.01996l-.03003-.16998c-.44-2.20001-.44995-4.51001-.01996-6.70996ZM30.994,26.90028c0-.54999-.45001-1-1-1h-.99999c-.6152,0-1.09061-.5661-.99-1.17004.08002-.46997.56-.82996,1.09998-.82996h.89001c1.53998,0,2.82001-1.17004,2.97998-2.67004,3.28003.85004,6.76001.85004,10.04004,0,.15997,1.5,1.44,2.67004,2.97998,2.67004h.89001c.53984,0,1.01972.35981,1.09992.82961.09791.57358-.37457,1.17039-.98993,1.17039h-1c-.54999,0-1,.45001-1,1,0,3.85999-3.14001,7-7,7s-7-3.14001-7-7ZM42.89403,37.50026c-2.94,1.94-6.86005,1.94-9.80005,0l.58002-2.71997c1.28003.70996,2.75,1.12,4.32001,1.12s3.03998-.41003,4.32001-1.12l.58002,2.71997ZM43.994,42.90028h-12v-3.73004c1.79999,1.19,3.90002,1.78003,6,1.78003s4.20001-.59003,6-1.78003v3.73004ZM54.994,50.90028h-4v-3c0-.16003-.03998-.31-.10999-.45001l-2-4c-.17004-.34003-.51001-.54999-.89001-.54999h-2v-3.65002l6.5,1.08002c1.45001.23999,2.5,1.47998,2.5,2.96002v7.60999Z"/>
  <path d="M24.51646,31.07802c.31836-1.9082-.14941-3.60059-1.31543-4.7666-1.44275-1.44275-3.69507-1.74115-5.93372-1.01276-.27686-.39435-.57959-.77789-.92664-1.12494-2.5332-2.53516-6.18262-3.01074-8.13379-1.06055-1.9502,1.95117-1.47461,5.60059,1.05957,8.13281.47308.47449.98138.87195,1.51459,1.1983-.39362,1.93207-.00958,3.79303,1.24225,5.04486.92773.92773,2.1875,1.41309,3.625,1.41309.36914,0,.75098-.03223,1.1416-.09766,1.78516-.29785,3.56641-1.25977,5.0166-2.70996s2.41309-3.23145,2.70996-5.0166ZM19.57408,26.90712c.59705,0,1.14252.133,1.60895.38544l-.85406,1.28448c-.82617,1.24414-1.9873,2.20996-3.36133,2.79395-1.72241.7392-3.1507,1.95862-4.19263,3.5083-.47388-1.65479.28284-3.98523,2.05688-5.75928,1.43066-1.43066,3.23047-2.21289,4.74219-2.21289ZM14.92662,25.58778c.17706.17706.3363.36871.48993.56232-.45557.27167-.90021.58527-1.3266.94379-.34937-.16003-.70978-.29108-1.08716-.3645-.85254-.17285-1.59668-.69629-2.04004-1.43262l-.70422-1.17737c1.26776-.54413,3.21429.01379,4.66809,1.46838ZM10.6815,29.8329c-1.17804-1.17743-1.7605-2.67578-1.65656-3.87933l.22296.3725c.72516,1.20404,1.93121,2.05511,3.32037,2.35083-.45203.57965-.82684,1.18732-1.12274,1.80804-.26276-.19165-.51892-.40649-.76404-.65204ZM14.06694,36.53395l.13214-.21765c.83984-1.39453,2.07031-2.46875,3.55469-3.10645,1.73145-.73633,3.19824-1.95508,4.24121-3.52539l.48285-.7262c.1463.53027.17566,1.13361.06598,1.79163-.22949,1.37695-.99316,2.77246-2.15137,3.93066-1.98474,1.98218-4.67645,2.71759-6.3255,1.85339Z"/>
  <circle cx="35.994" cy="51.90028" r="1"/>
</svg>