<?xml version="1.0" encoding="UTF-8"?>
<svg id="Outline" xmlns="http://www.w3.org/2000/svg" version="1.1" viewBox="0 0 64 64">
  <!-- Generator: Adobe Illustrator 29.5.1, SVG Export Plug-In . SVG Version: 2.1.0 Build 141)  -->
  <path d="M57,29.992c0-.55-.45-1-1-1h-24c-.55,0-1,.45-1,1s.45,1,1,1h22.98c-.25,5.46-2.48,10.57-6.36,14.48l-.88-6.48h2.26c.55,0,1-.45,1-1v-4c0-.55-.45-1-1-1h-12c-.55,0-1,.45-1,1v4c0,.55.45,1,1,1h3.69l1.43,10.52c-3.11,1.62-6.59,2.48-10.12,2.48h-2c-3.53,0-7.01-.86-10.12-2.48l1.43-10.52h3.69c.55,0,1-.45,1-1v-4c0-.55-.45-1-1-1h-12c-.55,0-1,.45-1,1v4c0,.55.45,1,1,1h2.26l-.88,6.47c-3.84-3.86-6.11-9-6.36-14.47h14.98c.55,0,1-.45,1-1s-.45-1-1-1H8c-.55,0-1,.45-1,1,0,6.87,2.93,13.36,8.05,17.91l-.79,5.74c-.19,1.63.97,3.12,2.6,3.34,1.578.213,3.164-.987,3.35-2.6l.38-2.77c3.23,1.56,6.8,2.38,10.41,2.38h2c3.61,0,7.18-.82,10.41-2.38l.37,2.76c.214,1.597,1.75,2.827,3.36,2.61,1.63-.22,2.79-1.71,2.59-3.35l-.78-5.72c.33-.3.67-.6,1.02-.95,4.53-4.54,7.03-10.56,7.03-16.97ZM39,36.992v-2h2.19l.24,2h-2.43ZM22.81,34.992h2.19v2h-2.43l.24-2ZM15,36.992v-2h1.77l-.24,2h-1.53ZM20.45,37.862s-1.65,12.09-1.65,12.11l-.323,2.348c-.116.845.029,2.879-1.367,2.672-.54-.07-.93-.57-.86-1.09l2.15-15.79.38-3.12h2.01l-.34,2.87ZM49,34.992v2h-1.53l-.24-2h1.77ZM46.89,54.992c-.542.07-1.062-.339-1.12-.88,0,0-.57-4.14-.57-4.16l-1.65-12.08-.34-2.88h2l.39,3.13,2.15,15.76c.07.54-.32,1.04-.86,1.11Z"/>
  <path d="M15,26.992c1.201,0,2.266-.542,3-1.382.734.84,1.799,1.382,3,1.382.766,0,1.476-.227,2.084-.602.154.354.505.602.916.602h4c.411,0,.762-.248.916-.602.609.375,1.318.602,2.084.602,1.201,0,2.266-.542,3-1.382.734.84,1.799,1.382,3,1.382,1.859,0,3.411-1.279,3.858-3h11.142c.553,0,1-.447,1-1s-.447-1-1-1h-11.142c-.447-1.721-1.999-3-3.858-3-1.201,0-2.266.542-3,1.382-.734-.84-1.799-1.382-3-1.382-.766,0-1.475.227-2.084.602-.154-.354-.505-.602-.916-.602h-4c-.411,0-.762.248-.916.602-.609-.375-1.318-.602-2.084-.602-1.201,0-2.266.542-3,1.382-.734-.84-1.799-1.382-3-1.382-2.206,0-4,1.794-4,4s1.794,4,4,4ZM37,20.992c1.103,0,2,.897,2,2s-.897,2-2,2-2-.897-2-2,.897-2,2-2ZM31,20.992c1.103,0,2,.897,2,2s-.897,2-2,2-2-.897-2-2,.897-2,2-2ZM25,20.992h2v4h-2v-4ZM21,20.992c1.103,0,2,.897,2,2s-.897,2-2,2-2-.897-2-2,.897-2,2-2ZM15,20.992c1.103,0,2,.897,2,2s-.897,2-2,2-2-.897-2-2,.897-2,2-2Z"/>
  <path d="M25.105,15.545c-.247.494-.047,1.095.447,1.342.489.245,1.097.042,1.342-.447.767-1.532.767-3.362,0-4.895-.486-.973-.486-2.133,0-3.105.247-.494.047-1.095-.447-1.342-.494-.245-1.094-.047-1.342.447-.767,1.532-.767,3.362,0,4.895.486.973.486,2.133,0,3.105Z"/>
  <path d="M21.105,15.545c-.247.494-.047,1.095.447,1.342.489.243,1.097.043,1.342-.447.767-1.532.767-3.362,0-4.895-.486-.973-.486-2.133,0-3.105.247-.494.047-1.095-.447-1.342-.493-.245-1.094-.047-1.342.447-.767,1.532-.767,3.362,0,4.895.486.973.486,2.133,0,3.105Z"/>
  <path d="M29.105,15.545c-.247.494-.047,1.095.447,1.342.468.234,1.093.05,1.342-.447.767-1.532.767-3.362,0-4.895-.486-.973-.486-2.133,0-3.105.247-.494.047-1.095-.447-1.342-.494-.245-1.094-.047-1.342.447-.767,1.532-.767,3.362,0,4.895.486.973.486,2.133,0,3.105Z"/>
  <circle cx="28" cy="29.992" r="1"/>
</svg>