<?xml version="1.0" encoding="UTF-8"?>
<svg id="Outline" xmlns="http://www.w3.org/2000/svg" version="1.1" viewBox="0 0 64 64">
  <!-- Generator: Adobe Illustrator 29.3.1, SVG Export Plug-In . SVG Version: 2.1.0 Build 151)  -->
  <path d="M49.9884,28.22931c.61584-.5498,1.0116-1.3407,1.0116-2.22931v-2c0-1.30194-.8385-2.40161-2-2.81573v-3.18427c0-.55225-.44727-1-1-1h-2.55634c.34448-.59076.55634-1.26825.55634-2,0-1.85834-1.27948-3.41083-3-3.85803v-3.14197c0-.55225-.44727-1-1-1s-1,.44775-1,1v3.14197c-1.72052.4472-3,1.99969-3,3.85803,0,.73175.21185,1.40924.55634,2h-2.55634c-.55273,0-1,.44775-1,1v3.18427c-1.1615.41412-2,1.51379-2,2.81573v2c0,.88861.39575,1.6795,1.0116,2.22931.06561,2.29712,1.10156,4.35095,2.71466,5.77069h-.72626c-1.6543,0-3,1.3457-3,3v2c0,1.6543,1.3457,3,3,3v3c0,.55225.44727,1,1,1h4v5h-3c-.55273,0-1,.44775-1,1v4c0,.55225.44727,1,1,1h8c.55273,0,1-.44775,1-1v-4c0-.55225-.44727-1-1-1h-3v-5h4c.55273,0,1-.44775,1-1v-3c1.6543,0,3-1.3457,3-3v-2c0-1.6543-1.3457-3-3-3h-.72626c1.6131-1.41974,2.64905-3.47357,2.71466-5.77069ZM45,55h-6v-2h6v2ZM40,15c0-1.10303.89746-2,2-2s2,.89697,2,2-.89746,2-2,2-2-.89697-2-2ZM37,19h10v2h-10v-2ZM35,24c0-.55127.44824-1,1-1h12c.55176,0,1,.44873,1,1v2c0,.55127-.44824,1-1,1h-12c-.55176,0-1-.44873-1-1v-2ZM43.7218,29c-.34705.59491-.98505,1-1.7218,1s-1.37476-.40509-1.7218-1h3.4436ZM46,44h-8v-2h8v2ZM48,36c.55176,0,1,.44873,1,1v2c0,.55127-.44824,1-1,1h-12c-.55176,0-1-.44873-1-1v-2c0-.55127.44824-1,1-1h12ZM36.09033,29h2.0517c.44714,1.72028,1.99927,3,3.85797,3s3.41083-1.27972,3.85797-3h2.0517c-.47833,2.83313-2.94244,5-5.90967,5s-5.43134-2.16687-5.90967-5Z"/>
  <path d="M29.98999,28.22998c.60999-.54999,1.01001-1.33997,1.01001-2.22998v-2c0-1.29999-.84003-2.40002-2-2.82001v-3.17999c0-.54999-.45001-1-1-1h-2.56c.34998-.59003.56-1.27002.56-2,0-1.85999-1.28003-3.41003-3-3.85999v-3.14001c0-.54999-.45001-1-1-1s-1,.45001-1,1v3.14001c-1.71997.44995-3,2-3,3.85999,0,.72998.21002,1.40997.56,2h-2.56c-.54999,0-1,.45001-1,1v3.17999c-1.15997.41998-2,1.52002-2,2.82001v2c0,.89001.40002,1.67999,1.01001,2.22998.07001,2.29999,1.09998,4.34998,2.71997,5.77002h-.72998c-1.65002,0-3,1.34998-3,3v2c0,1.64996,1.34998,3,3,3v3c0,.54999.45001,1,1,1h4v5h-3c-.54999,0-1,.45001-1,1v4c0,.54999.45001,1,1,1h8c.54999,0,1-.45001,1-1v-4c0-.54999-.45001-1-1-1h-3v-5h4c.54999,0,1-.45001,1-1v-3c1.65002,0,3-1.35004,3-3v-2c0-1.65002-1.34998-3-3-3h-.72998c1.62-1.42004,2.64996-3.47003,2.71997-5.77002ZM22,13c1.09998,0,2,.89996,2,2,0,1.09998-.90002,2-2,2s-2-.90002-2-2c0-1.10004.90002-2,2-2ZM17,19h10v2h-10v-2ZM15,26v-2c0-.54999.45001-1,1-1h12c.54999,0,1,.45001,1,1v2c0,.54999-.45001,1-1,1h-12c-.54999,0-1-.45001-1-1ZM23.71997,29c-.34998.58997-.97998,1-1.71997,1s-1.37-.41003-1.71997-1h3.43994ZM25,53v2h-6v-2h6ZM26,44h-8v-2h8v2ZM28,36c.54999,0,1,.45001,1,1v2c0,.54999-.45001,1-1,1h-12c-.54999,0-1-.45001-1-1v-2c0-.54999.45001-1,1-1h12ZM22,34c-2.96997,0-5.42999-2.17004-5.90997-5h2.04999c.45001,1.71997,2,3,3.85999,3s3.40997-1.28003,3.85999-3h2.04999c-.47998,2.82996-2.94,5-5.90997,5Z"/>
</svg>