<?xml version="1.0" encoding="UTF-8"?>
<svg id="Outline" xmlns="http://www.w3.org/2000/svg" version="1.1" viewBox="0 0 64 64">
  <!-- Generator: Adobe Illustrator 29.5.1, SVG Export Plug-In . SVG Version: 2.1.0 Build 141)  -->
  <path d="M56.81,33.421c-.19-.27-.49-.42-.81-.42h-9.95c.63-1.53.95-3.2.95-5,0-2.33-.53-4.76-1.55-7.03-.16-.37-.55-.61-.96-.59-.41.02-.77.29-.9.68l-.28.83c-.31.92-.88,1.7-1.66,2.25-.5.36-1.06.62-1.65.75v-.71c0-3.54-.98-7.01-2.85-10.03-.53-.86-1.15-1.7-1.85-2.5-.02-.03-.05-.05-.08-.08-1.6-1.84-3.54-3.34-5.77-4.46-.36-.19-.8-.13-1.1.13-.31.27-.43.69-.3,1.08l.66,1.98c.2.58.3,1.21.3,1.85,0,1.56-.61,3.03-1.71,4.13-1.48,1.49-2.3,3.46-2.3,5.56v.52c-1.5-.86-2.66-2.2-3.3-3.81-.14-.35-.46-.59-.84-.63-.37-.03-.73.15-.93.46-1.89,2.96-2.93,6.38-2.93,9.62,0,1.8.32,3.47.95,5h-9.95c-.32,0-.62.15-.81.42-.19.26-.24.59-.14.9l3,9c.14.4.52.68.95.68h4v7.18c-1.16.42-2,1.52-2,2.82,0,1.65,1.35,3,3,3s3-1.35,3-3c0-1.3-.84-2.4-2-2.82v-1.18h30v1.18c-1.16.42-2,1.52-2,2.82,0,1.65,1.35,3,3,3s3-1.35,3-3c0-1.3-.84-2.4-2-2.82v-7.18h4c.43,0,.81-.28.95-.68l3-9c.1-.31.05-.64-.14-.9ZM20.73,21.011c.94,1.43,2.24,2.59,3.79,3.36l1.03.52c.31.16.68.14.97-.04.3-.18.48-.5.48-.85v-2.16c0-1.56.61-3.04,1.72-4.14,1.48-1.48,2.29-3.45,2.29-5.55,0-.66-.08-1.31-.24-1.92,1.12.78,2.13,1.7,3.01,2.73.03.03.06.06.09.09.6.69,1.13,1.41,1.58,2.14,1.67,2.72,2.55,5.82,2.55,8.99v1.82c0,.55.45,1,1,1,1.39,0,2.71-.43,3.82-1.23.65-.46,1.2-1.03,1.63-1.69.36,1.31.55,2.63.55,3.92,0,1.85-.41,3.52-1.18,5h-23.64c-.77-1.48-1.18-3.15-1.18-5,0-2.32.61-4.75,1.73-6.99ZM40,35.001v2h-16v-2h16ZM16,55.001c-.55,0-1-.45-1-1s.45-1,1-1,1,.45,1,1-.45,1-1,1ZM48,55.001c-.55,0-1-.45-1-1s.45-1,1-1,1,.45,1,1-.45,1-1,1ZM52.28,42.001h-20.28c-.55,0-1,.45-1,1s.45,1,1,1h15v4h-30v-4h7c.55,0,1-.45,1-1s-.45-1-1-1h-12.28l-2.33-7h12.61v3c0,.55.45,1,1,1h18c.55,0,1-.45,1-1v-3h12.61l-2.33,7Z"/>
  <circle cx="28" cy="43.001" r="1"/>
</svg>