<?xml version="1.0" encoding="UTF-8"?>
<svg id="Outline" xmlns="http://www.w3.org/2000/svg" version="1.1" viewBox="0 0 64 64">
  <!-- Generator: Adobe Illustrator 29.5.1, SVG Export Plug-In . SVG Version: 2.1.0 Build 141)  -->
  <path d="M56.915,23.615c-.596-4.864-4.566-8.867-9.44-9.517-1.291-.173-2.571-.108-3.825.168-2.124-4.297-6.541-7.266-11.649-7.266s-9.526,2.97-11.649,7.266c-1.254-.276-2.536-.341-3.824-.168-4.875.649-8.846,4.652-9.441,9.518-.35,2.854.396,5.68,2.097,7.956,2.498,3.343,3.818,7.587,3.818,12.275v7.152c0,3.939,9.559,6,19,6s19-2.061,19-6v-7.152c0-4.688,1.32-8.933,3.818-12.275,1.701-2.276,2.446-5.103,2.097-7.957ZM53.217,30.375c-2.759,3.69-4.217,8.35-4.217,13.473v4.277c-2.763-1.743-7.972-2.683-12.947-2.993-.57-.027-1.026.386-1.061.936-.034.552.385,1.026.936,1.061,8.417.524,13.072,2.623,13.072,3.872,0,1.357-6,4-17,4s-17-2.643-17-4c0-1.249,4.655-3.348,13.072-3.872.551-.034.97-.509.936-1.061-.034-.55-.491-.96-1.061-.936-4.975.31-10.184,1.25-12.947,2.993v-4.277c0-5.123-1.458-9.782-4.217-13.473-1.391-1.862-2-4.176-1.714-6.516.487-3.976,3.734-7.247,7.722-7.778.94-.125,1.875-.101,2.793.064-.379,1.219-.584,2.513-.584,3.855,0,1.432.227,2.816.675,4.116.18.521.748.798,1.271.619.521-.18.799-.749.619-1.271-.375-1.089-.565-2.254-.565-3.464,0-6.065,4.935-11,11-11s11,4.935,11,11c0,1.21-.19,2.375-.565,3.464-.18.522.098,1.092.619,1.272.518.177,1.093-.1,1.271-.619.448-1.3.675-2.685.675-4.116,0-1.342-.205-2.636-.584-3.855.918-.164,1.854-.189,2.794-.064,3.986.531,7.233,3.803,7.721,7.777.286,2.341-.323,4.654-1.714,6.517Z"/>
  <path d="M32,13c3.859,0,7,3.141,7,7,0,.553.447,1,1,1s1-.447,1-1c0-4.963-4.037-9-9-9-.553,0-1,.447-1,1s.447,1,1,1Z"/>
  <path d="M37.581,21.574c-.284-.355-.775-.474-1.188-.288-.416.186-.653.628-.579,1.077l.181,1.089c.129.771.022,1.555-.287,2.252-.745-1.747-.862-3.707-.306-5.562l.557-1.855c.114-.382-.009-.796-.314-1.053-.305-.256-.735-.309-1.091-.129l-1.345.672c-3.221,1.61-5.567,4.537-6.439,8.028-.305,1.215-.421,2.453-.349,3.694-.601-1.057-.838-2.307-.633-3.537.075-.449-.163-.892-.579-1.077-.413-.185-.902-.068-1.188.288l-.317.396c-1.483,1.855-2.301,4.191-2.301,6.577v.101c0,5.234,3.635,9.683,8.644,10.577.643.115,1.288.172,1.928.172,2.491,0,4.904-.858,6.825-2.467,2.416-2.021,3.801-4.985,3.801-8.132,0-2.936-1.01-5.813-2.842-8.104l-2.176-2.721ZM37.515,38.996c-1.96,1.642-4.553,2.319-7.118,1.86-4.053-.725-6.995-4.345-6.995-8.608v-.101c0-1.103.215-2.191.623-3.202.408,1.37,1.211,2.617,2.34,3.557l.796.664c.318.266.767.309,1.128.105.361-.201.562-.604.503-1.015l-.287-2.006c-.189-1.327-.121-2.659.204-3.96.664-2.654,2.345-4.919,4.666-6.323-.72,2.803-.221,5.765,1.394,8.186.166.249.436.411.733.44.307.027.595-.076.806-.288.85-.85,1.41-1.928,1.633-3.08l.255.319c1.551,1.937,2.404,4.371,2.404,6.854,0,2.553-1.124,4.957-3.084,6.598Z"/>
  <circle cx="32" cy="46" r="1"/>
</svg>