<?xml version="1.0" encoding="UTF-8"?>
<svg id="Outline" xmlns="http://www.w3.org/2000/svg" version="1.1" viewBox="0 0 48 48">
  <!-- Generator: Adobe Illustrator 29.5.1, SVG Export Plug-In . SVG Version: 2.1.0 Build 141)  -->
  <path d="M42,36.5h-6.615c-3.445,0-6.814-.649-10.014-1.928-3.436-1.375-7.055-2.072-10.756-2.072H6c-.553,0-1,.448-1,1s.447,1,1,1h8.615c3.445,0,6.814.649,10.014,1.928,3.436,1.375,7.055,2.072,10.756,2.072h6.615c.553,0,1-.448,1-1s-.447-1-1-1Z"/>
  <path d="M12,29.8c.173.121.356.22.54.317,1.723.907,3.856.803,5.46-.317,1.795,1.253,4.205,1.253,6,0,1.795,1.253,4.205,1.253,6,0-.037.026,2.257.893,2.556.918,1.202.099,2.452-.226,3.444-.918.897.626,1.948.94,3,.94,1.343,0,2.685-.511,3.707-1.533.391-.39.391-1.023,0-1.414s-1.023-.391-1.414,0c-1.264,1.264-3.322,1.264-4.586,0-.239-.239-.566-.314-.876-.26-.931-5.742-5.831-10.033-11.831-10.033s-10.9,4.291-11.831,10.033c-.31-.054-.637.021-.876.26-1.264,1.264-3.322,1.264-4.586,0-.391-.391-1.023-.391-1.414,0s-.391,1.024,0,1.414c1.824,1.823,4.664,2.02,6.707.593ZM24,19.5c5.249,0,9.49,3.939,9.951,9.084-1.111.34-2.367.086-3.244-.791-.391-.391-1.023-.391-1.414,0-1.264,1.264-3.322,1.264-4.586,0-.391-.391-1.023-.391-1.414,0-1.264,1.264-3.322,1.264-4.586,0-.391-.391-1.023-.391-1.414,0-.877.877-2.133,1.131-3.244.791.46-5.144,4.701-9.084,9.951-9.084Z"/>
  <path d="M24,15.5c.553,0,1-.448,1-1v-4c0-.552-.447-1-1-1s-1,.448-1,1v4c0,.552.447,1,1,1Z"/>
  <path d="M17.336,16.024c.159.385.532.618.924.618.701,0,1.193-.734.924-1.383l-1.53-3.695c-.211-.511-.798-.75-1.307-.541-.51.211-.752.796-.541,1.307l1.53,3.695Z"/>
  <path d="M12.687,19.601c.369.369,1.017.397,1.414,0,.391-.39.391-1.023,0-1.414l-2.828-2.829c-.391-.391-1.023-.391-1.414,0-.391.39-.391,1.023,0,1.414,0,0,2.825,2.826,2.828,2.829Z"/>
  <path d="M6.063,23.153s3.695,1.531,3.695,1.531c.504.209,1.097-.034,1.307-.541.211-.51-.031-1.095-.541-1.307l-3.695-1.531c-.508-.211-1.096.031-1.307.541s.031,1.095.541,1.307Z"/>
  <path d="M29.378,16.517c.458.199,1.037.107,1.286-.493l1.53-3.695c.211-.51-.031-1.095-.541-1.307-.508-.21-1.096.03-1.307.541l-1.53,3.695c-.235.567.103,1.059.562,1.259Z"/>
  <path d="M34.607,19.891c.257,0,.513-.097.707-.291l2.828-2.829c.391-.391.391-1.024,0-1.414-.391-.391-1.023-.391-1.414,0l-2.828,2.829c-.617.617-.163,1.705.707,1.705Z"/>
  <path d="M36.935,24.143c.21.507.803.75,1.307.541l3.695-1.531c.51-.211.752-.796.541-1.307s-.798-.751-1.307-.541l-3.695,1.531c-.51.211-.752.796-.541,1.307Z"/>
</svg>