<?xml version="1.0" encoding="UTF-8"?>
<svg id="Outline" xmlns="http://www.w3.org/2000/svg" version="1.1" viewBox="0 0 64 64">
  <!-- Generator: Adobe Illustrator 29.3.1, SVG Export Plug-In . SVG Version: 2.1.0 Build 151)  -->
  <path d="M32,7c-13.78516,0-25,11.21484-25,25s11.21484,25,25,25,25-11.21484,25-25S45.78516,7,32,7ZM54.73059,35.51971l-.02844-.07001c-1.77429-4.36163-5.29596-7.64026-9.71759-9.14435.00446-.10199.01544-.20227.01544-.30536,0-1.5697-.5257-3.01538-1.40167-4.18427l5.34778-5.34778c3.75665,4.09528,6.05389,9.54987,6.05389,15.53204,0,1.19659-.09241,2.37195-.26941,3.51971ZM38,31c-2.75684,0-5-2.24316-5-5s2.24316-5,5-5,5,2.24316,5,5-2.24316,5-5,5ZM42.18427,20.40167c-.93024-.69714-2.03656-1.16724-3.24164-1.33057-.28314-3.73083-2.23193-7.13831-5.37134-9.24103l-1.22638-.82135c5.84637.08679,11.17108,2.36121,15.18713,6.04517l-5.34778,5.34778ZM29.03229,9.19794l3.42572,2.29425c2.58868,1.73346,4.21228,4.52759,4.4856,7.59631-2.38831.36407-4.38226,1.93378-5.33606,4.07227-5.27332-1.36237-10.85223-1.56976-16.20422-.5675l-4.76282.89252c3.039-7.59644,10.01355-13.203,18.39178-14.28784ZM9.89563,25.6604l5.87683-1.10132c5.04645-.94659,10.31458-.75403,15.29431.52655-.03943.30005-.06677.60376-.06677.91437,0,2.09143.92682,3.96625,2.38568,5.25006-3.57965,5.16559-8.83844,8.88812-14.94135,10.49554l-6.39117,1.68317c-1.93823-3.36963-3.05316-7.27032-3.05316-11.42877,0-2.19904.31665-4.32422.89563-6.3396ZM13.18158,45.1994l5.77252-1.5202c6.58441-1.73364,12.27356-5.7428,16.12445-11.32642.89056.41132,1.87793.64722,2.92145.64722.26819,0,.53174-.01855.79218-.0481,1.40271,5.69818,1.73309,11.53406.9549,17.36499l-.46576,3.495c-2.28998.76648-4.73663,1.18811-7.28131,1.18811-7.77332,0-14.65308-3.87982-18.81842-9.8006ZM41.41003,52.97876l.31946-2.39722c.81287-6.0896.46637-12.18445-1.00299-18.1347,1.81354-.76996,3.23151-2.28674,3.88184-4.1593,3.74536,1.35791,6.72296,4.18439,8.2403,7.91559l1.09412,2.69214c-1.979,6.28394-6.59009,11.40729-12.53271,14.0835Z"/>
  <path d="M38,23c-1.6543,0-3,1.3457-3,3s1.3457,3,3,3,3-1.3457,3-3-1.3457-3-3-3ZM38,27c-.55176,0-1-.44873-1-1s.44824-1,1-1,1,.44873,1,1-.44824,1-1,1Z"/>
</svg>