<?xml version="1.0" encoding="UTF-8"?>
<svg id="Outline" xmlns="http://www.w3.org/2000/svg" version="1.1" viewBox="0 0 64 64">
  <!-- Generator: Adobe Illustrator 29.5.1, SVG Export Plug-In . SVG Version: 2.1.0 Build 141)  -->
  <path d="M56.78,15.171c-.06-.54-.57-.94-1.1-.87l-3.95.45c-.18.02-.36.04-.54.06l2.7-3.79c.16-.21.22-.48.18-.74-.05-.27-.19-.5-.41-.65l-3.26-2.33c-.21-.16-.48-.22-.74-.18-.27.05-.5.19-.65.41l-5.69,7.96c-2.1.15-4.23.24-6.33.3-.55.01-.98.47-.97,1.03.01.54.46.97,1,.97h.03c2.28-.06,4.6-.17,6.88-.33.3-.02.57-.18.74-.42l5.38-7.53,1.63,1.16-3.4,4.77c-.23.32-.25.74-.05,1.08.2.34.58.54.97.49.39-.04.78-.08,1.17-.11.53-.05,1.07-.1,1.59-.17l2.95-.33.23,1.98-2.94.35c-14.38,1.65-29.15,1.53-43.32-.34l.27-1.98c7.86,1.03,15.88,1.51,23.88,1.45.55,0,.99-.46.99-1.01s-.45-.99-1-.99h-.01c-8.23.07-16.5-.46-24.58-1.56-.27-.04-.53.03-.75.19-.21.16-.35.4-.38.67l-.54,3.96c-.07.54.31,1.05.85,1.12,3.11.43,6.25.75,9.41,1.01v2.64h-4c-1.65,0-3,1.35-3,3,0,.35.07.69.18,1h-.18c-.81,0-1.57.32-2.11.87-.57.56-.89,1.32-.89,2.13,0,.77.3,1.47.78,2-.5.55-.78,1.25-.78,2,0,.77.3,1.47.78,2-.5.55-.78,1.25-.78,2,0,1.65,1.35,3,3,3h.18c-.11.32-.18.65-.18,1,0,1.65,1.35,3,3,3h3.22c.5.88.78,1.91.78,3,0,1.65,1.35,3,3,3s3-1.35,3-3c0-1.09.28-2.12.78-3h3.22c.81,0,1.57-.32,2.11-.87.57-.56.89-1.32.89-2.13,0-.35-.07-.69-.18-1h.18c.81,0,1.57-.32,2.11-.87.57-.56.89-1.32.89-2.13,0-.77-.3-1.47-.78-2,.5-.55.78-1.25.78-2,0-.77-.3-1.47-.78-2,.5-.55.78-1.25.78-2,0-1.65-1.35-3-3-3h-.18c.11-.31.18-.65.18-1,0-1.65-1.35-3-3-3h-4v-2.24c2.94.14,5.89.24,8.84.24,6.85,0,13.77-.4,20.57-1.18l3.94-.46c.54-.06.94-.56.87-1.11l-.46-3.97ZM19.02,21.421c.67.05,1.33.08,2,.12v2.35h-2v-2.47ZM9.33,30.181c.18-.19.42-.29.69-.29h5.11c-.59.57-1.07,1.25-1.42,2h-3.69c-.55,0-1-.45-1-1,0-.27.1-.51.31-.71ZM9.33,34.181c.18-.19.42-.29.69-.29h3.08c-.05.33-.08.66-.08,1s.03.67.08,1h-3.08c-.55,0-1-.45-1-1,0-.27.1-.51.31-.71ZM10.02,39.891c-.55,0-1-.45-1-1,0-.27.1-.51.31-.71.18-.19.42-.29.69-.29h3.7c.07.16.15.31.24.47-.37.46-.65.98-.8,1.53h-3.14ZM13.02,43.891c-.55,0-1-.45-1-1,0-.27.1-.51.31-.71.18-.19.42-.29.69-.29h.14c.2.73.63,1.41,1.24,2h-1.38ZM23.93,42.721c-.54.41-1,.91-1.4,1.46-.03.03-.05.07-.07.1-.92,1.3-1.44,2.91-1.44,4.61,0,.55-.45,1-1,1s-1-.45-1-1c0-1.7-.52-3.31-1.44-4.61-.02-.03-.04-.07-.07-.1-.4-.55-.86-1.05-1.4-1.46-.7-.53-1.09-1.18-1.09-1.83,0-.58.3-1.13.81-1.6.03-.02.04-.05.06-.06.91-.8,2.44-1.34,4.13-1.34s3.22.54,4.13,1.34c.02.01.03.04.06.06.51.47.81,1.02.81,1.6,0,.65-.39,1.3-1.09,1.83ZM24.76,36.491c-.01.01-.01.02-.01.02-.07.18-.15.35-.23.52-1.21-.71-2.77-1.14-4.5-1.14s-3.29.43-4.5,1.14c-.08-.17-.16-.34-.23-.52,0,0,0-.01-.01-.02-.17-.51-.26-1.05-.26-1.6,0-2.76,2.24-5,5-5s5,2.24,5,5c0,.55-.09,1.09-.26,1.6ZM27.71,43.601c-.18.19-.42.29-.69.29h-1.38c.61-.59,1.04-1.27,1.24-2h.14c.55,0,1,.45,1,1,0,.27-.1.51-.31.71ZM30.71,39.601c-.18.19-.42.29-.69.29h-3.14c-.15-.55-.43-1.07-.8-1.53.09-.16.17-.31.24-.47h3.7c.55,0,1,.45,1,1,0,.27-.1.51-.31.71ZM30.71,35.601c-.18.19-.42.29-.69.29h-3.08c.05-.33.08-.66.08-1s-.03-.67-.08-1h3.08c.55,0,1,.45,1,1,0,.27-.1.51-.31.71ZM30.02,29.891c.55,0,1,.45,1,1,0,.27-.1.51-.31.71-.18.19-.42.29-.69.29h-3.69c-.35-.75-.83-1.43-1.42-2h5.11ZM27.02,25.891c.55,0,1,.45,1,1s-.45,1-1,1h-14c-.55,0-1-.45-1-1s.45-1,1-1h14Z"/>
  <path d="M55.642,42.1c-1.792-1.792-4.326-2.654-6.814-2.369-.219-.718-.628-1.346-1.178-1.83.808-1.449,2.102-2.534,3.687-3.061.523-.175.807-.741.632-1.265-.175-.524-.735-.809-1.265-.633-2.083.694-3.783,2.128-4.832,4.045-.275-.06-.559-.096-.852-.096s-.577.036-.852.096c-1.049-1.916-2.748-3.35-4.832-4.045-.529-.176-1.091.108-1.265.633-.175.524.108,1.09.632,1.265,1.584.528,2.879,1.612,3.686,3.061-.55.484-.959,1.113-1.178,1.83-2.486-.284-5.021.576-6.812,2.366l-.085.084c-.188.188-.295.443-.295.709s.106.521.295.709l.083.083c1.566,1.566,3.7,2.423,5.875,2.423.106,0,.212-.015.318-.019-.379.942-.57,1.879-.57,2.805,0,4.308,4.205,7.647,4.384,7.788.181.142.398.212.616.212s.437-.071.617-.213c.093-.073,2.284-1.81,3.53-4.345.243-.496.039-1.095-.456-1.339-.5-.245-1.096-.039-1.339.456-.669,1.361-1.698,2.477-2.353,3.104-1.033-.99-3-3.198-3-5.663,0-1.527.778-2.965,1.535-4h2.932c.596.813,1.244,1.935,1.458,3.171.094.544.614.908,1.156.814.544-.094.909-.612.814-1.156-.095-.545-.273-1.091-.491-1.636.115.005.229.021.343.021,2.173,0,4.308-.856,5.872-2.421l.085-.084c.188-.188.295-.443.295-.709s-.106-.521-.295-.709l-.083-.083ZM47.02,40.891c0,1.103-.897,2-2,2s-2-.897-2-2,.897-2,2-2,2,.897,2,2ZM41.778,43.921c-1.814.454-3.744.061-5.238-1.03,1.31-.958,2.958-1.378,4.574-1.157.15.695.488,1.315.948,1.824-.091.121-.185.241-.27.362-.005.001-.009,0-.013,0ZM48.262,43.921c-.011-.003-.021,0-.031-.002-.084-.119-.166-.237-.256-.356.462-.51.801-1.132.952-1.828,1.614-.219,3.262.198,4.574,1.156-1.491,1.089-3.421,1.483-5.238,1.03Z"/>
</svg>