<?xml version="1.0" encoding="UTF-8"?>
<svg id="Outline" xmlns="http://www.w3.org/2000/svg" version="1.1" viewBox="0 0 64 64">
  <!-- Generator: Adobe Illustrator 29.5.1, SVG Export Plug-In . SVG Version: 2.1.0 Build 141)  -->
  <path d="M29,55h-11.329c-2.833-7.037-4.239-14.432-4.181-21.992.004-.553-.44-1.004-.992-1.008h-.008c-.549,0-.996.442-1,.992-.061,8.052,1.482,15.922,4.586,23.392.155.373.52.616.923.616h12c.552,0,1-.447,1-1s-.448-1-1-1Z"/>
  <path d="M43,27c-.24,0-.47.01-.7.03l-.09-2.19c2.17-.55,3.79-2.5,3.79-4.84,0-1.09-.36-2.14-1.02-3,.66-.86,1.02-1.91,1.02-3,0-2.76-2.24-5-5-5-.62,0-1.23.11-1.79.33-.9-1.43-2.48-2.33-4.21-2.33-1.57,0-3.04.75-3.98,2h-.02c-.83,0-1.63.21-2.35.6-.94-1.01-2.26-1.6-3.65-1.6-.83,0-1.63.21-2.35.6-.94-1.01-2.26-1.6-3.65-1.6-2.56,0-4.68,1.93-4.97,4.42-1.64.7-2.79,2.22-3,4-1.81.77-3.03,2.56-3.03,4.58,0,2.34,1.62,4.29,3.79,4.84l-.17,4.12c-.02.55.41,1.02.96,1.04h.04c.53,0,.98-.42,1-.96l.17-4.11c.6-.1,1.18-.3,1.71-.62.16.1.33.18.5.26v5.43c0,.81.32,1.57.87,2.11,1.12,1.15,3.15,1.13,4.24.02.57-.56.89-1.32.89-2.13,0-.27.1-.51.31-.71.18-.19.42-.29.69-.29.55,0,1,.45,1,1v4c0,.81.32,1.57.87,2.11.56.57,1.32.89,2.13.89,1.65,0,3-1.35,3-3v-8.1c1.33-.28,2.49-1.08,3.21-2.23,1.32.51,2.88.42,4.14-.27.76.81,1.77,1.34,2.86,1.52l.25,6.13c.03.8.05,1.61.05,2.41,0,7.42-1.41,14.66-4.18,21.54h-3.33c-.55,0-1,.45-1,1s.45,1,1,1h4c.4,0,.77-.24.92-.62.54-1.28,1.01-2.59,1.45-3.9,1.17.34,2.38.52,3.63.52,7.17,0,13-5.83,13-13s-5.83-13-13-13ZM42.51,33.46c0-.14-.01-.29-.01-.44.17-.01.33-.02.5-.02,3.86,0,7,3.14,7,7s-3.14,7-7,7c-.68,0-1.35-.1-1.99-.29.98-4.33,1.5-8.76,1.5-13.25ZM38.44,21.53c-.15-.25-.4-.43-.69-.48s-.59.03-.81.23c-.4.33-1.05.72-1.94.72-.61,0-1.18-.18-1.67-.51-.26-.18-.59-.23-.88-.13-.3.1-.53.33-.64.62-.41,1.21-1.54,2.02-2.81,2.02-.55,0-1,.45-1,1v9c0,.55-.45,1-1,1-.27,0-.51-.1-.71-.31-.19-.18-.29-.42-.29-.69v-4c0-1.65-1.35-3-3-3-.81,0-1.57.32-2.11.87-.57.56-.89,1.32-.89,2.13,0,.27-.1.51-.31.71-.36.37-1,.39-1.4-.02-.19-.18-.29-.42-.29-.69v-6.13c0-.45-.3-.85-.74-.96-.4-.11-.79-.32-1.14-.59-.36-.29-.88-.29-1.24,0-.39.31-1.04.68-1.88.68-1.65,0-3-1.35-3-3,0-1.36.93-2.55,2.26-2.89.44-.11.75-.51.75-.97,0-.06,0-.12-.01-.14,0-1.36.93-2.55,2.26-2.89.44-.11.75-.51.75-.97,0-.06,0-.12-.01-.14,0-1.65,1.35-3,3-3,1.06,0,2.02.55,2.56,1.47.15.25.4.43.69.48.29.05.59-.04.81-.23.4-.33,1.05-.72,1.94-.72,1.06,0,2.02.55,2.56,1.47.15.25.4.43.69.48.29.05.59-.04.81-.23.4-.33,1.05-.72,1.94-.72.09,0,.17.01.26.02l.16.02c.4.05.79-.15.98-.5.53-.95,1.53-1.54,2.6-1.54,1.27,0,2.4.81,2.81,2.02.11.29.34.52.64.62.29.1.62.05.88-.13.49-.33,1.06-.51,1.67-.51,1.65,0,3,1.35,3,3,0,.85-.38,1.67-1.04,2.25-.21.19-.34.46-.34.75s.13.56.34.75c.66.58,1.04,1.4,1.04,2.25,0,1.65-1.35,3-3,3-1.06,0-2.02-.55-2.56-1.47ZM43,51c-1.04,0-2.05-.14-3.01-.42.2-.64.37-1.28.54-1.93.8.23,1.62.35,2.47.35,4.96,0,9-4.04,9-9s-4.04-9-9-9c-.18,0-.36.01-.54.03v-.06l-.08-1.93c.21-.01.41-.04.62-.04,6.07,0,11,4.93,11,11s-4.93,11-11,11Z"/>
</svg>