<?xml version="1.0" encoding="UTF-8"?>
<svg id="Outline" xmlns="http://www.w3.org/2000/svg" version="1.1" viewBox="0 0 64 64">
  <!-- Generator: Adobe Illustrator 29.5.1, SVG Export Plug-In . SVG Version: 2.1.0 Build 141)  -->
  <path d="M43,37h-4v-1c0-1.3-.84-2.4-2-2.82v-1.18c0-1.65-1.35-3-3-3h-1v-2.13c1.75-.41,3.12-1.88,3.33-3.74l1.25-11.3c.14-1.23-.26-2.46-1.08-3.38-.83-.92-2.01-1.45-3.25-1.45h-2.5c-1.24,0-2.42.53-3.25,1.45-.82.92-1.22,2.15-1.08,3.38l1.25,11.3c.21,1.86,1.58,3.33,3.33,3.74v2.13h-1c-1.65,0-3,1.35-3,3v1.18c-1.16.42-2,1.52-2,2.82v1h-8v-1c0-1.65-1.35-3-3-3h-1v-2c0-1.65-1.35-3-3-3h-2c-.55,0-1,.45-1,1v26c0,.55.45,1,1,1h2c1.65,0,3-1.35,3-3v-2h1c1.65,0,3-1.35,3-3v-1h6c.55,0,1-.45,1-1s-.45-1-1-1h-6v-6h26c.55,0,1-.45,1-1s-.45-1-1-1ZM11,53c0,.55-.45,1-1,1h-1v-24h1c.55,0,1,.45,1,1v22ZM15,48c0,.55-.45,1-1,1h-1v-14h1c.55,0,1,.45,1,1v12ZM29.66,22.91l-1.25-11.3c-.08-.67.13-1.32.58-1.83.46-.5,1.08-.78,1.76-.78h2.5c.68,0,1.3.28,1.76.78.45.51.66,1.16.58,1.83l-1.25,11.3c-.13,1.19-1.14,2.09-2.34,2.09s-2.21-.9-2.34-2.09ZM29,32c0-.55.45-1,1-1h4c.55,0,1,.45,1,1v1h-6v-1ZM37,37h-10v-1c0-.55.45-1,1-1h8c.55,0,1,.45,1,1v1Z"/>
  <path d="M50,37h-3c-.553,0-1,.448-1,1s.447,1,1,1h3c2.757,0,5,2.243,5,5v11h-6v-9c0-.552-.447-1-1-1h-21c-.553,0-1,.448-1,1s.447,1,1,1h20v9c0,.552.447,1,1,1h8c.553,0,1-.448,1-1v-12c0-3.86-3.141-7-7-7Z"/>
</svg>