<?xml version="1.0" encoding="UTF-8"?>
<svg id="Outline" xmlns="http://www.w3.org/2000/svg" version="1.1" viewBox="0 0 64 64">
  <!-- Generator: Adobe Illustrator 29.5.1, SVG Export Plug-In . SVG Version: 2.1.0 Build 141)  -->
  <path d="M45.5,32h-3v-2.13c.72-.19,1.51-.59,2.38-1.38,1.03-.94,1.62-2.22,1.62-3.49,0-1.64-.79-3.12-2.1-4.05.16-.78.12-1.57-.11-2.35-.5-1.72-1.87-3.05-3.57-3.45-1.82-.44-3.66.14-4.87,1.45-1-.55-2.16-.73-3.3-.5-.93-1.31-2.42-2.1-4.05-2.1-.56,0-1.12.1-1.66.3-.91-.84-2.09-1.3-3.34-1.3-2.44,0-4.48,1.76-4.92,4.08-2.32.44-4.08,2.48-4.08,4.92,0,.14.01.27.02.41-.91.4-1.7,1.06-2.24,1.91-.73,1.15-.96,2.52-.64,3.87.36,1.53,1.45,2.78,2.86,3.39v5.42c0,.55.45,1,1,1s1-.45,1-1v-5.01c1.32,0,2.57-.52,3.5-1.44.93.92,2.18,1.45,3.5,1.45s2.58-.54,3.5-1.45c.69.68,1.56,1.15,2.5,1.35v3.1c0,1.65,1.35,3,3,3v8c0,1.65,1.35,3,3,3,.81,0,1.57-.32,2.11-.87.57-.56.89-1.32.89-2.13v-10c0-1.65-1.35-3-3-3v-.1c.33.06.66.1,1,.1,1.61,0,3.08-.79,4-2.03v20.03h-24v-6c0-.55-.45-1-1-1s-1,.45-1,1v6c-1.65,0-3,1.35-3,3s1.35,3,3,3h28c1.65,0,3-1.35,3-3s-1.35-3-3-3v-1h3c3.86,0,7-3.14,7-7v-4c0-3.86-3.14-7-7-7ZM36.5,36v10c0,.27-.1.51-.31.71-.18.19-.42.29-.69.29-.55,0-1-.45-1-1v-8.78c.61-.55,1-1.34,1-2.22.55,0,1,.45,1,1ZM43.5,54c0,.55-.45,1-1,1H14.5c-.55,0-1-.45-1-1s.45-1,1-1h28c.55,0,1,.45,1,1ZM40.68,27.87c-.26-.08-.55-.04-.79.1-.23.15-.4.38-.46.65-.29,1.38-1.52,2.38-2.93,2.38-.53,0-1.03-.14-1.5-.41-.31-.17-.69-.17-1,0-.31.18-.5.51-.5.87v3.54c0,.55-.45,1-1,1s-1-.45-1-1v-4c0-.55-.45-1-1-1-1.08,0-2.09-.61-2.62-1.58-.18-.32-.51-.52-.88-.52s-.7.2-.88.52c-.53.97-1.54,1.58-2.62,1.58s-2.09-.61-2.62-1.58c-.35-.64-1.41-.64-1.76,0-.67,1.22-1.98,1.81-3.34,1.5-1.06-.25-1.94-1.12-2.19-2.18-.2-.82-.06-1.66.38-2.34.43-.68,1.12-1.17,1.91-1.33.27-.06.5-.23.65-.46.14-.24.18-.53.1-.8-.09-.31-.13-.57-.13-.81,0-1.65,1.35-3,3-3,.55,0,1-.45,1-1,0-1.65,1.35-3,3-3,.9,0,1.75.41,2.32,1.13.3.37.83.48,1.26.25,1.56-.85,3.39-.17,4.11,1.33.23.46.77.68,1.26.49.35-.13.7-.2,1.05-.2.89,0,1.54.39,1.94.72.22.19.52.28.81.23.29-.05.54-.23.69-.48.68-1.16,1.98-1.7,3.31-1.38.99.24,1.83,1.05,2.12,2.07.19.65.17,1.26-.07,1.89-.19.49.03,1.03.49,1.26,1.06.51,1.71,1.54,1.71,2.69,0,.71-.35,1.45-.97,2.01-1.29,1.17-2.11,1.07-2.85.86ZM42.5,47.9v-13.8c2.28.47,4,2.48,4,4.9v4c0,2.42-1.72,4.43-4,4.9ZM50.5,43c0,2.42-1.73,4.44-4.01,4.9,1.24-1.26,2.01-2.99,2.01-4.9v-4c0-1.91-.77-3.64-2.01-4.9,2.28.46,4.01,2.48,4.01,4.9v4Z"/>
  <path d="M42.501,14c.105,0,.212-.017.315-.051.029-.01,2.873-.949,4.684-.949,1.654,0,3-1.346,3-3s-1.346-3-3-3c-2.381,0-5.085,4.198-5.857,5.485-.215.359-.185.813.077,1.14.193.241.483.375.781.375ZM47.5,9c.551,0,1,.448,1,1s-.449,1-1,1c-.817,0-1.767.147-2.636.331,1.025-1.307,2.083-2.331,2.636-2.331Z"/>
  <path d="M32.501,14c.105,0,.212-.017.315-.051.029-.01,2.873-.949,4.684-.949,1.654,0,3-1.346,3-3s-1.346-3-3-3c-2.381,0-5.085,4.198-5.857,5.485-.215.359-.185.813.077,1.14.193.241.483.375.781.375ZM37.5,9c.551,0,1,.448,1,1s-.449,1-1,1c-.817,0-1.767.147-2.636.331,1.025-1.307,2.083-2.331,2.636-2.331Z"/>
  <path d="M24.5,46v-10c0-1.654-1.346-3-3-3s-3,1.346-3,3v10c0,1.654,1.346,3,3,3s3-1.346,3-3ZM20.5,46v-10c0-.552.449-1,1-1s1,.448,1,1v10c0,.552-.449,1-1,1s-1-.448-1-1Z"/>
  <circle cx="15.5" cy="41" r="1"/>
</svg>