<?xml version="1.0" encoding="UTF-8"?>
<svg id="Outline" xmlns="http://www.w3.org/2000/svg" version="1.1" viewBox="0 0 64 64">
  <!-- Generator: Adobe Illustrator 29.0.0, SVG Export Plug-In . SVG Version: 2.1.0 Build 186)  -->
  <path d="M55.97162,49.85919c-.00488-.034.00659-.06769-.00189-.10138l-2.96973-11.87891v-4.69855l1.16406-.19403c.48242-.08008.83594-.49707.83594-.98633V10c0-1.6543-1.3457-3-3-3h-16c-.55273,0-1,.44727-1,1s.44727,1,1,1h16c.55176,0,1,.44824,1,1v7.50488l-20.17871,15.37402-21.82129-7.58984v-15.28906c0-.55176.44824-1,1-1h16c.55273,0,1-.44727,1-1s-.44727-1-1-1H12c-1.6543,0-3,1.3457-3,3v16c0,.42578.26953.80469.67188.94434l1.32812.46198v10.4726l-2.96973,11.87891c-.00848.03369.00299.0675-.00189.1015-.00702.04791-.02838.09076-.02838.14069,0,3.85938,3.14062,7,7,7h34c3.85938,0,7-3.14062,7-7,0-.04993-.0213-.09283-.02838-.14081ZM48.34277,31.92871l-4.74512-4.74512,9.40234-7.16376v11.13348l-4.65723.77539ZM32.67188,34.94434c.10645.03711.21777.05566.32812.05566.21582,0,.42969-.07031.60645-.2041l8.38605-6.38934,5.30048,5.30048c.18945.18945.44434.29297.70703.29297.05469,0,.10938-.00488.16406-.01367l2.83594-.47266v3.48633H13v-8.89807l19.67188,6.84241ZM12.78125,39h38.4375l2.5,10H10.28125l2.5-10ZM49,55H15c-2.41504,0-4.43457-1.7207-4.89941-4h43.79883c-.46484,2.2793-2.48438,4-4.89941,4Z"/>
  <path d="M49.84668,41.75781c-.11133-.44531-.51074-.75781-.96973-.75781H15.12305c-.45898,0-.8584.3125-.96973.75781l-1,4c-.0752.29883-.00781.61523.18164.85742.18945.24316.48047.38477.78809.38477h35.75391c.30762,0,.59863-.1416.78809-.38477.18945-.24219.25684-.55859.18164-.85742l-1-4ZM15.4043,45l.5-2h32.19141l.5,2H15.4043Z"/>
  <path d="M27.64001,12.94l-3-1.73004c-.31-.17999-.69-.17999-1,0l-2.64001,1.52002-2.64001-1.52002c-.31-.17999-.69-.17999-1,0l-3,1.73004c-.31.17999-.5.51001-.5.85999v3.46997c0,.35004.19.69.5.86005l2.5,1.44995v2.69c0,.35004.19.69.5.86005l3,1.73999c.15002.08997.33002.13.5.13.17004,0,.34003-.04004.5-.13l3-1.73999c.31-.17004.5-.51001.5-.86005v-2.52997l2.78003-1.60999c.31-.17004.5-.51001.5-.86005v-3.46997c0-.34998-.19-.67999-.5-.85999ZM17.85999,17.79999c-.01996,0-.03998.01001-.06.01001l-1.94-1.12v-2.31l2-1.15002,2,1.15002v2.31l-1.95001,1.12c-.01996,0-.02997-.01001-.04999-.01001ZM22.85999,21.69l-2,1.15997-2-1.15997v-2.11005l2.14001-1.23999,1.85999,1.07001v2.28003ZM26.14001,16.69l-1.97003,1.13995-2.02997-1.16998v-2.27997l2-1.15002,2,1.15002v2.31Z"/>
  <circle cx="32" cy="8" r="1"/>
</svg>