<?xml version="1.0" encoding="UTF-8"?>
<svg id="Outline" xmlns="http://www.w3.org/2000/svg" version="1.1" viewBox="0 0 64 64">
  <!-- Generator: Adobe Illustrator 29.5.1, SVG Export Plug-In . SVG Version: 2.1.0 Build 141)  -->
  <path d="M54.239,9.35c-.39-.39-1.02-.39-1.42,0l-11.9,11.91c-.39.39-1.03.39-1.42,0s-.39-1.02,0-1.41l5.66-5.66c.29-.28.37-.71.22-1.09-.16-.37-.52-.61-.93-.61h-10.48c-.8,0-1.56.31-2.12.87l-5.78,5.78c-.39.39-1.03.39-1.42,0-.39-.39-.39-1.02,0-1.41l6.92-6.91,5.24-1.88c.52-.18.79-.76.6-1.28-.18-.52-.76-.79-1.28-.6l-5.45,1.95c-.14.05-.27.13-.37.23l-7.07,7.07c-1.17,1.17-1.17,3.08,0,4.25,1.17,1.17,3.07,1.17,4.24,0l2.77-2.78-1.15,2.06c-.8,1.45-.28,3.28,1.16,4.09,1.4.787,3.281.265,4.08-1.16l4.61-8.25c.01-.01.01-.02.01-.03h3.08l-3.95,3.95c-1.17,1.16-1.17,3.07,0,4.24,1.128,1.128,3.082,1.158,4.24,0l11.91-11.91c.39-.39.39-1.02,0-1.42ZM32.599,21.79c-.27.49-.88.66-1.36.39-.49-.27-.66-.88-.39-1.36l3.54-6.33h2.29l-4.08,7.3Z"/>
  <path d="M46.469,51h-12v-2h11c1.65,0,3-1.35,3-3,0-1.32-.86-2.43-2.04-2.83-.44-8.99-7.87-16.17-16.96-16.17s-16.52,7.18-16.96,16.17c-1.18.4-2.04,1.51-2.04,2.83,0,1.65,1.35,3,3,3h11v2h-12c-1.65,0-3,1.35-3,3v2c0,.55.45,1,1,1h38c.55,0,1-.45,1-1v-2c0-1.65-1.35-3-3-3ZM29.469,29c7.94,0,14.45,6.19,14.97,14H14.499c.52-7.81,7.03-14,14.97-14ZM13.469,47c-.55,0-1-.45-1-1s.45-1,1-1h32c.55,0,1,.45,1,1s-.45,1-1,1H13.469ZM32.469,49v2h-6v-2h6ZM47.469,55H11.469v-1c0-.55.45-1,1-1h34c.55,0,1,.45,1,1v1Z"/>
  <path d="M11.189,29.466c.285,0,.569-.12.763-.348,2.4-2.824,5.475-5.048,8.893-6.431.512-.208.759-.791.552-1.302-.208-.512-.788-.758-1.302-.552-3.716,1.503-7.058,3.921-9.667,6.99-.542.637-.071,1.646.761,1.643Z"/>
  <path d="M20.018,25.248c-1.901.961-3.642,2.204-5.176,3.696-.627.61-.177,1.717.697,1.717.251,0,.503-.094.697-.283,1.388-1.35,2.964-2.475,4.684-3.344.493-.25.69-.851.441-1.344-.25-.493-.852-.69-1.344-.441Z"/>
</svg>