<?xml version="1.0" encoding="UTF-8"?>
<svg id="Outline" xmlns="http://www.w3.org/2000/svg" version="1.1" viewBox="0 0 48 48">
  <!-- Generator: Adobe Illustrator 29.0.0, SVG Export Plug-In . SVG Version: 2.1.0 Build 186)  -->
  <path d="M42,40h-2.15997l-.93005-5.17999c-.07996-.47003-.5-.82001-.97998-.82001h-1.92999v-2h1c.54999,0,1-.45001,1-1s-.45001-1-1-1h-1v-1c0-.54999-.45001-1-1-1s-1,.45001-1,1v1H14v-2c0-5.51001,4.48999-10,10-10,4.46002,0,8.40997,2.98999,9.62,7.26996.15002.53003.70001.84003,1.22998.69.53003-.14996.84003-.69995.69-1.22998-1.34998-4.82001-5.60999-8.27002-10.53998-8.69v-2.03998h2c.54999,0,1-.45001,1-1s-.45001-1-1-1h-6c-.54999,0-1,.45001-1,1s.45001,1,1,1h2v2.04999c-6.15002.51001-11,5.66998-11,11.95001v2h-1c-.54999,0-1,.45001-1,1s.45001,1,1,1h1v2h-1.92999c-.47998,0-.90002.34998-.97998.82001l-.93005,5.17999h-2.15997c-.54999,0-1,.45001-1,1s.45001,1,1,1h8c.54999,0,1-.45001,1-1s-.45001-1-1-1h-3.81l.71997-4h26.18005l.71997,4h-19.81c-.54999,0-1,.45001-1,1s.45001,1,1,1h24c.54999,0,1-.45001,1-1s-.45001-1-1-1ZM34,34H14v-2h20v2Z"/>
  <path d="M24,20c-.55225,0-1,.44727-1,1s.44775,1,1,1c2.96436,0,5.51758,2.21094,5.93896,5.14258.07178.49805.49902.85742.98828.85742.04736,0,.0957-.00293.14355-.00977.54688-.0791.92627-.58594.84766-1.13281-.56152-3.90918-3.96582-6.85742-7.91846-6.85742Z"/>
  <path d="M24,10c.55225,0,1-.44727,1-1v-2c0-.55273-.44775-1-1-1s-1,.44727-1,1v2c0,.55273.44775,1,1,1Z"/>
  <path d="M10.56445,14.97949c.37256.37282,1.02904.38551,1.41455,0,.39062-.38965.39062-1.02344.00049-1.41406l-1.41406-1.41504c-.39062-.39062-1.02393-.39062-1.41455,0-.39062.38965-.39062,1.02344-.00049,1.41406,0,0,1.41178,1.41275,1.41406,1.41504Z"/>
  <path d="M36.72809,15.2629c.25758.00058.5163-.09224.70746-.2834l1.41406-1.41504c.39014-.39062.39014-1.02441-.00049-1.41406-.39062-.39062-1.02393-.39062-1.41455,0l-1.41405,1.41503c-.61792.61835-.15806,1.69553.70757,1.69747Z"/>
</svg>