<?xml version="1.0" encoding="UTF-8"?>
<svg id="Outline" xmlns="http://www.w3.org/2000/svg" version="1.1" viewBox="0 0 64 64">
  <!-- Generator: Adobe Illustrator 29.5.1, SVG Export Plug-In . SVG Version: 2.1.0 Build 141)  -->
  <path d="M56,7h-31c-.55,0-1,.45-1,1s.45,1,1,1h30v2H9v-2h8c.55,0,1-.45,1-1s-.45-1-1-1h-9c-.55,0-1,.45-1,1v8c0,.55.45,1,1,1h48c.55,0,1-.45,1-1v-8c0-.55-.45-1-1-1ZM55,15H9v-2h46v2Z"/>
  <path d="M54,19H10c-1.65,0-3,1.35-3,3v32c0,1.65,1.35,3,3,3h44c1.65,0,3-1.35,3-3V22c0-1.65-1.35-3-3-3ZM55,54c0,.55-.45,1-1,1H10c-.55,0-1-.45-1-1V22c0-.55.45-1,1-1h44c.55,0,1,.45,1,1v32Z"/>
  <path d="M32,23H12c-.552,0-1,.448-1,1v28c0,.552.448,1,1,1h20c.552,0,1-.448,1-1v-28c0-.552-.448-1-1-1ZM31,51H13v-26h18v26Z"/>
  <path d="M52,23h-16c-.552,0-1,.448-1,1v12c0,.552.448,1,1,1h16c.552,0,1-.448,1-1v-12c0-.552-.448-1-1-1ZM51,35h-14v-10h14v10Z"/>
  <path d="M52,39h-16c-.552,0-1,.448-1,1v12c0,.552.448,1,1,1h16c.552,0,1-.448,1-1v-12c0-.552-.448-1-1-1ZM51,51h-14v-10h14v10Z"/>
  <path d="M18,49c.679,0,1.325-.233,1.844-.642,1.278.83,3.033.83,4.312,0,.519.409,1.166.642,1.844.642,1.654,0,3-1.346,3-3,0-.679-.233-1.325-.642-1.844.415-.639.642-1.386.642-2.156,0-.705-.19-1.393-.545-2,.355-.607.545-1.295.545-2s-.19-1.393-.545-2c.355-.607.545-1.295.545-2,0-.77-.227-1.517-.642-2.156.409-.519.642-1.166.642-1.844,0-1.654-1.346-3-3-3-.679,0-1.325.233-1.844.642-1.278-.83-3.033-.83-4.312,0-.519-.409-1.166-.642-1.844-.642-1.654,0-3,1.346-3,3,0,.679.233,1.325.642,1.844-.415.639-.642,1.386-.642,2.156,0,.705.19,1.393.545,2-.355.607-.545,1.295-.545,2s.19,1.393.545,2c-.355.607-.545,1.295-.545,2,0,.77.227,1.517.642,2.156-.409.519-.642,1.166-.642,1.844,0,1.654,1.346,3,3,3ZM17.697,43.501c-.45-.391-.697-.924-.697-1.501,0-.621.284-1.066.521-1.331.342-.38.342-.958,0-1.338-.238-.265-.521-.71-.521-1.331s.284-1.066.521-1.331c.342-.38.342-.958,0-1.338-.238-.265-.521-.71-.521-1.331,0-.577.248-1.11.697-1.501.247-.214.373-.536.338-.86-.034-.325-.226-.612-.512-.77-.328-.181-.523-.505-.523-.869,0-.551.449-1,1-1,.363,0,.688.196.869.523.158.286.445.478.77.512.327.035.646-.091.86-.338.782-.899,2.22-.899,3.002,0,.214.247.536.373.86.338.325-.034.612-.226.77-.512.181-.328.505-.523.869-.523.551,0,1,.449,1,1,0,.363-.196.688-.523.869-.286.158-.478.445-.512.77-.035.325.091.646.338.86.45.391.697.924.697,1.501,0,.621-.284,1.066-.521,1.331-.342.38-.342.958,0,1.338.238.265.521.71.521,1.331s-.284,1.066-.521,1.331c-.342.38-.342.958,0,1.338.238.265.521.71.521,1.331,0,.577-.248,1.11-.697,1.501-.247.214-.373.536-.338.86.034.325.226.612.512.77.328.181.523.505.523.869,0,.551-.449,1-1,1-.363,0-.688-.196-.869-.523-.158-.286-.445-.478-.77-.512-.036-.004-.071-.006-.106-.006-.288,0-.563.124-.754.344-.782.899-2.22.899-3.002,0-.214-.247-.533-.373-.86-.338-.325.034-.612.226-.77.512-.181.328-.505.523-.869.523-.551,0-1-.449-1-1,0-.363.196-.688.523-.869.286-.158.478-.445.512-.77.035-.325-.091-.646-.338-.86Z"/>
  <circle cx="23" cy="33" r="1"/>
  <circle cx="20" cy="35" r="1"/>
  <circle cx="24" cy="37" r="1"/>
  <circle cx="20" cy="39" r="1"/>
  <path d="M41,34c.555,0,1.062-.206,1.504-.542.446.34.953.542,1.496.542.547,0,1.057-.204,1.502-.544.446.341.954.544,1.498.544,1.682,0,3-1.757,3-4s-1.318-4-3-4c-.545,0-1.053.203-1.5.545-.447-.342-.955-.545-1.5-.545s-1.05.202-1.496.542c-.441-.336-.949-.542-1.504-.542-1.682,0-3,1.757-3,4s1.318,4,3,4ZM46.667,28.151c.112-.096.227-.151.333-.151.398,0,1,.798,1,2s-.602,2-1,2c-.106,0-.222-.056-.335-.153.217-.555.335-1.179.335-1.847,0-.673-.119-1.301-.333-1.849ZM44.648,28.554c.227.369.352.882.352,1.446s-.125,1.078-.368,1.474c-.28.49-.646.608-.969.358.209-.548.337-1.164.337-1.832s-.129-1.287-.339-1.836c.319-.255.682-.142.987.39ZM41,28c.408,0,1,.779,1,2s-.592,2-1,2-1-.779-1-2,.592-2,1-2Z"/>
  <path d="M42,49c.771,0,1.468-.301,2-.78.532.48,1.229.78,2,.78,1.654,0,3-1.346,3-3s-1.346-3-3-3c-.771,0-1.468.301-2,.78-.532-.48-1.229-.78-2-.78-1.654,0-3,1.346-3,3s1.346,3,3,3ZM46,45c.551,0,1,.449,1,1s-.449,1-1,1-1-.449-1-1,.449-1,1-1ZM42,45c.551,0,1,.449,1,1s-.449,1-1,1-1-.449-1-1,.449-1,1-1Z"/>
  <circle cx="21" cy="8" r="1"/>
</svg>