<?xml version="1.0" encoding="UTF-8"?>
<svg id="Outline" xmlns="http://www.w3.org/2000/svg" version="1.1" viewBox="0 0 64 64">
  <!-- Generator: Adobe Illustrator 29.0.0, SVG Export Plug-In . SVG Version: 2.1.0 Build 186)  -->
  <path d="M10.32471,16.32103c.01318,0,.02637-.00049.03955-.00098l33.98877-1.33545c.27051-.01025.52441-.12988.70508-.33105s.27197-.4668.25342-.73682l-.41211-5.98584c-.01855-.26953-.14551-.52002-.35205-.69482-.20605-.17432-.47363-.25635-.74365-.23145l-33.85107,3.33057c-.53809.05273-.93652.52393-.89941,1.06348l.27441,3.99121c.03613.52588.47412.93115.99707.93115ZM42.9751,9.09594l.27051,3.93066-31.98926,1.25732-.14111-2.05371,31.85986-3.13428Z"/>
  <path d="M44.49023,16.98119l-33.85156,3.33057c-.53809.05273-.93652.52441-.89941,1.06396l.2749,3.99072c.03613.52588.47412.93115.99707.93115.01318,0,.02637-.00049.03955-.00098l33.98828-1.33545c.27051-.01025.52441-.12988.70508-.33105s.27197-.4668.25342-.73682l-.41162-5.98584c-.01855-.26953-.14551-.52002-.35156-.69482-.20654-.1748-.47656-.25879-.74414-.23145ZM11.94287,24.26049l-.1416-2.05371,31.86035-3.13428.27002,3.93066-31.98877,1.25732Z"/>
  <path d="M57,31.99974v22c0,1.64996-1.34998,3-3,3H10c-1.65002,0-3-1.35004-3-3v-22c0-1.65002,1.34998-3,3-3h7c.54999,0,1,.45001,1,1s-.45001,1-1,1h-7c-.54999,0-1,.45001-1,1v22c0,.54999.45001,1,1,1h44c.54999,0,1-.45001,1-1v-22c0-.54999-.45001-1-1-1h-29c-.54999,0-1-.45001-1-1s.45001-1,1-1h29c1.65002,0,3,1.34998,3,3Z"/>
  <path d="M11,33.99974v18c0,.55225.44775,1,1,1h18c.55225,0,1-.44775,1-1v-18c0-.55225-.44775-1-1-1H12c-.55225,0-1,.44775-1,1ZM13,34.99974h16v16H13v-16Z"/>
  <path d="M52,52.99974c.55225,0,1-.44775,1-1v-18c0-.55225-.44775-1-1-1h-18c-.55225,0-1,.44775-1,1v18c0,.55225.44775,1,1,1h18ZM35,34.99974h16v16h-16v-16Z"/>
  <path d="M23,38.99974c-.71436,0-1.40405.19623-2.00958.55121-.58862-.34119-1.26251-.55121-1.99042-.55121-2.20557,0-4,1.79443-4,4s1.79443,4,4,4c.72791,0,1.40179-.21002,1.99042-.55121.60553.35498,1.29523.55121,2.00958.55121,2.20557,0,4-1.79443,4-4s-1.79443-4-4-4ZM17,42.99974c0-1.10303.89697-2,2-2s2,.89697,2,2-.89697,2-2,2-2-.89697-2-2ZM23,44.99974c-.17657,0-.34796-.03107-.51508-.07611.31805-.57349.51508-1.22296.51508-1.92389s-.19702-1.3504-.51508-1.92389c.16711-.04504.3385-.07611.51508-.07611,1.10303,0,2,.89697,2,2s-.89697,2-2,2Z"/>
  <path d="M46,35.99974h-6c-1.6543,0-3,1.3457-3,3s1.3457,3,3,3h6c1.6543,0,3-1.3457,3-3s-1.3457-3-3-3ZM46,39.99974h-6c-.55127,0-1-.44873-1-1s.44873-1,1-1h6c.55127,0,1,.44873,1,1s-.44873,1-1,1Z"/>
  <path d="M46,43.99974h-6c-1.6543,0-3,1.3457-3,3s1.3457,3,3,3h6c1.6543,0,3-1.3457,3-3s-1.3457-3-3-3ZM46,47.99974h-6c-.55127,0-1-.44873-1-1s.44873-1,1-1h6c.55127,0,1,.44873,1,1s-.44873,1-1,1Z"/>
  <circle cx="21" cy="29.99974" r="1"/>
</svg>