<?xml version="1.0" encoding="UTF-8"?>
<svg id="Outline" xmlns="http://www.w3.org/2000/svg" version="1.1" viewBox="0 0 64 64">
  <!-- Generator: Adobe Illustrator 29.5.1, SVG Export Plug-In . SVG Version: 2.1.0 Build 141)  -->
  <path d="M56,17c.553,0,1-.448,1-1v-2c0-1.654-1.346-3-3-3H10c-1.654,0-3,1.346-3,3v36c0,1.654,1.346,3,3,3h44c1.654,0,3-1.346,3-3v-30c0-.552-.447-1-1-1s-1,.448-1,1v30c0,.551-.448,1-1,1H10c-.552,0-1-.449-1-1V14c0-.551.448-1,1-1h44c.552,0,1,.449,1,1v2c0,.552.447,1,1,1Z"/>
  <path d="M52,15h-11c-.55,0-1,.45-1,1s.45,1,1,1h10v14h-16v-14h2c.55,0,1-.45,1-1s-.45-1-1-1H12c-.55,0-1,.45-1,1v32c0,.55.45,1,1,1h40c.55,0,1-.45,1-1V16c0-.55-.45-1-1-1ZM13,17h20v14H13v-14ZM31,47H13v-14h18v14ZM51,47h-18v-14h18v14Z"/>
  <path d="M19,29c.728,0,1.401-.262,1.99-.688.606.44,1.292.688,2.01.688.74,0,1.417-.257,2.006-.678.602.432,1.282.678,1.994.678,2.243,0,4-2.196,4-5s-1.757-5-4-5c-.712,0-1.392.246-1.994.678-.589-.421-1.266-.678-2.006-.678-.718,0-1.404.249-2.01.688-.588-.426-1.262-.688-1.99-.688-2.206,0-4,2.243-4,5s1.794,5,4,5ZM29,24c0,1.626-.916,3-2,3-.256,0-.477-.086-.67-.195.424-.795.67-1.757.67-2.805s-.246-2.01-.67-2.805c.193-.11.414-.195.67-.195,1.084,0,2,1.374,2,3ZM25,24c0,1.626-.916,3-2,3-.263,0-.49-.089-.686-.203.433-.799.686-1.762.686-2.797s-.253-1.998-.686-2.797c.196-.114.423-.203.686-.203,1.084,0,2,1.374,2,3ZM19,21c1.084,0,2,1.374,2,3s-.916,3-2,3-2-1.374-2-3,.916-3,2-3Z"/>
  <path d="M40,19c-1.654,0-3,1.346-3,3s1.346,3,3,3,3-1.346,3-3-1.346-3-3-3ZM40,23c-.552,0-1-.449-1-1s.448-1,1-1,1,.449,1,1-.448,1-1,1Z"/>
  <path d="M46,29c1.654,0,3-1.346,3-3s-1.346-3-3-3-3,1.346-3,3,1.346,3,3,3ZM46,25c.552,0,1,.449,1,1s-.448,1-1,1-1-.449-1-1,.448-1,1-1Z"/>
  <path d="M20,35c-2.757,0-5,2.243-5,5s2.243,5,5,5c2.24,0,9-1.773,9-5s-6.76-5-9-5ZM19,42c-1.103,0-2-.897-2-2s.897-2,2-2,2,.897,2,2-.897,2-2,2ZM21.901,42.738c.677-.717,1.099-1.677,1.099-2.738s-.422-2.021-1.099-2.738c2.342.545,5.099,1.832,5.099,2.738s-2.758,2.193-5.099,2.738Z"/>
  <path d="M38,45h8c1.654,0,3-1.346,3-3,0-.771-.301-1.468-.78-2,.48-.532.78-1.229.78-2,0-1.654-1.346-3-3-3h-8c-1.654,0-3,1.346-3,3,0,.771.301,1.468.78,2-.48.532-.78,1.229-.78,2,0,1.654,1.346,3,3,3ZM46,43h-8c-.552,0-1-.449-1-1s.448-1,1-1h8c.552,0,1,.449,1,1s-.448,1-1,1ZM38,37h8c.552,0,1,.449,1,1s-.448,1-1,1h-8c-.552,0-1-.449-1-1s.448-1,1-1Z"/>
</svg>