<?xml version="1.0" encoding="UTF-8"?>
<svg id="Outline" xmlns="http://www.w3.org/2000/svg" version="1.1" viewBox="0 0 64 64">
  <!-- Generator: Adobe Illustrator 29.5.1, SVG Export Plug-In . SVG Version: 2.1.0 Build 141)  -->
  <path d="M34,32.999c.552,0,1-.447,1-1s-.448-1-1-1h-4c-.552,0-1,.447-1,1v8c0,.553.448,1,1,1s1-.447,1-1v-3h3c.552,0,1-.447,1-1s-.448-1-1-1h-3v-2h3Z"/>
  <path d="M42,32.999c.552,0,1-.447,1-1s-.448-1-1-1h-4c-.552,0-1,.447-1,1v8c0,.553.448,1,1,1s1-.447,1-1v-3h3c.552,0,1-.447,1-1s-.448-1-1-1h-3v-2h3Z"/>
  <path d="M56,38.999c-.55,0-1,.45-1,1s-.45,1-1,1h-7v-10h7c.55,0,1,.45,1,1s.45,1,1,1,1-.45,1-1c0-1.65-1.35-3-3-3h-7.18c-.42-1.16-1.52-2-2.82-2h-9.59l1.92-1.92c1.39-1.39,1.39-3.65,0-5.04-1.17-1.17-2.96-1.35-4.33-.54-1.37-.81-3.16-.63-4.33.54-1.39,1.39-1.39,3.65,0,5.04l1.92,1.92h-9.59c-1.3,0-2.4.84-2.82,2h-7.18c-1.65,0-3,1.35-3,3v8c0,1.65,1.35,3,3,3h7.18c.42,1.16,1.52,2,2.82,2h24c1.3,0,2.4-.84,2.82-2h7.18c1.65,0,3-1.35,3-3,0-.55-.45-1-1-1ZM17,40.999h-7c-.55,0-1-.45-1-1v-8c0-.55.45-1,1-1h7v10ZM29.08,23.669c-.61-.61-.61-1.6,0-2.21.31-.31.71-.46,1.11-.46s.8.15,1.1.46c.39.39,1.03.39,1.42,0,.61-.61,1.6-.61,2.21,0s.61,1.6,0,2.21l-2.92,2.92-2.92-2.92ZM45,41.999c0,.55-.45,1-1,1h-24c-.55,0-1-.45-1-1v-12c0-.55.45-1,1-1h24c.55,0,1,.45,1,1v12Z"/>
  <path d="M27,33.999c0-1.65-1.35-3-3-3h-2c-.55,0-1,.45-1,1v8c0,.55.45,1,1,1h2c1.65,0,3-1.35,3-3,0-.77-.3-1.47-.78-2,.48-.53.78-1.23.78-2ZM24,38.999h-1v-2h1c.55,0,1,.45,1,1s-.45,1-1,1ZM24,34.999h-1v-2h1c.55,0,1,.45,1,1s-.45,1-1,1Z"/>
  <circle cx="56" cy="35.999" r="1"/>
</svg>