<?xml version="1.0" encoding="UTF-8"?>
<svg id="Outline" xmlns="http://www.w3.org/2000/svg" version="1.1" viewBox="0 0 64 64">
  <!-- Generator: Adobe Illustrator 29.5.1, SVG Export Plug-In . SVG Version: 2.1.0 Build 141)  -->
  <path d="M56.03689,33.00342c-.55664-.04834-1.03418.36475-1.0791.91504-.42816,5.22467-2.63751,9.94464-5.9906,13.59039l-9.23328-9.23364c.93207-1.16394,1.61511-2.54224,1.9397-4.0672.11426-.54004-.23047-1.07129-.77051-1.18604-.53809-.11621-1.07129.229-1.18652.77002-.76465,3.59717-3.99121,6.20801-7.67188,6.20801-4.32324,0-7.83984-3.51709-7.83984-7.83984,0-2.89844,1.58691-5.54932,4.14258-6.91895.46484-.24902.65625-.81592.4375-1.2959-.10645-.23291-.16016-.44336-.16016-.62549,0-1.25732,1.56641-2.31982,3.41992-2.31982s3.41992,1.0625,3.41992,2.31982c0,.18213-.05371.39258-.16016.62549-.21875.47998-.02637,1.04785.43848,1.29639,1.94531,1.03955,3.36719,2.86279,3.90234,5.00098.13281.53467.67676.86133,1.21191.72754.53613-.13428.8623-.67725.72754-1.21289-.36157-1.44562-1.05133-2.77191-1.98712-3.89618l9.36957-9.37c3.35309,3.64575,5.56244,8.36572,5.9906,13.59039.04492.55078.52344.96436,1.0791.91504.5498-.04492.95996-.52783.91504-1.07812-1.05371-12.85156-11.99414-22.91846-24.90723-22.91846-13.78516,0-25,11.21484-25,25s11.21484,25,25,25c12.91309,0,23.85352-10.06689,24.90723-22.91846.04492-.55029-.36523-1.0332-.91504-1.07812ZM47.55459,15.07556l-9.38153,9.38196c-.24548-.1958-.50031-.38092-.76508-.55322.03711-.19727.05664-.39258.05664-.58447,0-2.42236-2.38086-4.31982-5.41992-4.31982s-5.41992,1.89746-5.41992,4.31982c0,.19189.01953.38721.05664.58496-.26526.17242-.51105.36682-.75604.56177l-9.41248-9.4129c4.09521-3.75647,9.54962-6.05365,15.5318-6.05365,5.92224,0,11.39191,2.30292,15.50989,6.07556ZM15.09878,16.46771l9.39929,9.39972c-1.44946,1.73962-2.29321,3.94611-2.29321,6.29272,0,2.31244.80701,4.43695,2.14716,6.11847l-9.25323,9.25366c-3.75677-4.09528-6.05408-9.54999-6.05408-15.53229s2.2973-11.43701,6.05408-15.53229ZM16.51291,48.94635l9.23401-9.2345c1.70789,1.4267,3.9035,2.28815,6.29779,2.28815,2.3584,0,4.565-.85785,6.29095-2.29492l9.21893,9.21936c-4.11798,3.77264-9.58765,6.07556-15.50989,6.07556-5.98218,0-11.43658-2.29718-15.5318-6.05365Z"/>
  <path d="M32.0447,28c-2.75684,0-5,2.24316-5,5s2.24316,5,5,5,5-2.24316,5-5-2.24316-5-5-5ZM32.0447,36c-1.6543,0-3-1.3457-3-3s1.3457-3,3-3,3,1.3457,3,3-1.3457,3-3,3Z"/>
  <path d="M22.33767,18.53564c.39062.39062,1.02344.39062,1.41406,0,.69141-.69141,1.89453-.69141,2.58594,0,.19531.19531.45117.29297.70703.29297.89624,0,1.30212-1.11163.70691-1.70715-1.44531-1.44617-3.96869-1.44617-5.41394.00012-.39062.39062-.39062,1.02393,0,1.41406Z"/>
  <path d="M26.75174,14.53564c.69141-.69141,1.89453-.69141,2.58594,0,.19531.19531.45117.29297.70703.29297.85498,0,1.30945-1.10437.70679-1.70728-1.44537-1.44604-3.96857-1.44598-5.41382.00024-.39062.39062-.39062,1.02393,0,1.41406.39062.39062,1.02344.39062,1.41406,0Z"/>
  <path d="M32.75174,17.53564c.69141-.69141,1.89453-.69141,2.58594,0,.19531.19531.45117.29297.70703.29297.87,0,1.32373-1.09015.70667-1.70746-1.44537-1.44586-3.96851-1.44574-5.4137.00043-.39062.39062-.39062,1.02393,0,1.41406.39062.39062,1.02344.39062,1.41406,0Z"/>
  <path d="M34.75174,13.53564c.69141-.69141,1.89453-.69141,2.58594,0,.19531.19531.45117.29297.70703.29297.87,0,1.32367-1.09021.70667-1.7074-1.44537-1.44592-3.96851-1.4458-5.4137.00037-.39062.39062-.39062,1.02393,0,1.41406.39062.39062,1.02344.39062,1.41406,0Z"/>
  <path d="M38.33767,17.53564c.39062.39062,1.02344.39062,1.41406,0,.69141-.69141,1.89453-.69141,2.58594,0,.19385.19385.45038.29089.70691.29089.86041.00012,1.31421-1.0976.70697-1.70514-1.44531-1.44611-3.96863-1.44604-5.41388.00018-.39062.39062-.39062,1.02393,0,1.41406Z"/>
  <path d="M17.16629,41.70703c.39062.39062,1.02393.39062,1.41406,0,.39062-.39062.39062-1.02344,0-1.41406-.69141-.69141-.69141-1.89453,0-2.58594.19531-.19531.29297-.45117.29297-.70703,0-.8963-1.11163-1.30212-1.70715-.70697-1.44617,1.44537-1.44611,3.96869.00012,5.414Z"/>
  <path d="M14.87332,34c0-.85498-1.10437-1.30945-1.70728-.70679-1.44604,1.44531-1.44598,3.96857.00024,5.41382.39062.39062,1.02393.39062,1.41406,0,.39062-.39062.39062-1.02344,0-1.41406-.69141-.69141-.69141-1.89453,0-2.58594.19531-.19531.29297-.45117.29297-.70703Z"/>
  <path d="M17.58035,32.70703c.39062-.39062.39062-1.02344,0-1.41406-.69141-.69141-.69141-1.89453,0-2.58594.19531-.19531.29297-.45117.29297-.70703,0-.87-1.09009-1.32373-1.7074-.70667-1.44592,1.44537-1.4458,3.96851.00037,5.4137.39062.39062,1.02393.39062,1.41406,0Z"/>
  <path d="M13.58035,30.70703c.39062-.39062.39062-1.02344,0-1.41406-.69141-.69141-.69141-1.89453,0-2.58594.19531-.19531.29297-.45117.29297-.70703,0-.87006-1.09015-1.32367-1.7074-.70667-1.44592,1.44537-1.4458,3.96851.00037,5.4137.39062.39062,1.02393.39062,1.41406,0Z"/>
  <path d="M17.58035,25.70703c.39062-.39062.39062-1.02344,0-1.41406-.69141-.69141-.69141-1.89453,0-2.58594.19385-.19391.29089-.45038.29095-.70691.00012-.86041-1.09766-1.31421-1.7052-.70697-1.44611,1.44531-1.44604,3.96863.00018,5.41388.39062.39062,1.02393.39062,1.41406,0Z"/>
  <path d="M41.75174,45.46436c-.39062-.39062-1.02344-.39062-1.41406,0-.69141.69141-1.89453.69141-2.58594,0-.19531-.19531-.45117-.29297-.70703-.29297-.89624,0-1.30212,1.11157-.70691,1.70709,1.44531,1.44623,3.96869,1.44617,5.41394-.00006.39062-.39062.39062-1.02393,0-1.41406Z"/>
  <path d="M37.33767,49.46436c-.69141.69141-1.89453.69141-2.58594,0-.19531-.19531-.45117-.29297-.70703-.29297-.85498,0-1.30945,1.10431-.70679,1.70728,1.44537,1.44604,3.96857,1.44592,5.41382-.00024.39062-.39062.39062-1.02393,0-1.41406-.39062-.39062-1.02344-.39062-1.41406,0Z"/>
  <path d="M31.33767,46.46436c-.69141.69141-1.89453.69141-2.58594,0-.19531-.19531-.45117-.29297-.70703-.29297-.87,0-1.32373,1.09009-.70667,1.7074,1.44537,1.44592,3.96851,1.4458,5.4137-.00037.39062-.39062.39062-1.02393,0-1.41406-.39062-.39062-1.02344-.39062-1.41406,0Z"/>
  <path d="M29.33767,50.46436c-.69141.69141-1.89453.69141-2.58594,0-.19531-.19531-.45117-.29297-.70703-.29297-.87,0-1.32367,1.09015-.70667,1.7074,1.44537,1.44592,3.96851,1.4458,5.4137-.00037.39062-.39062.39062-1.02393,0-1.41406-.39062-.39062-1.02344-.39062-1.41406,0Z"/>
  <path d="M25.75174,46.46436c-.39062-.39062-1.02344-.39062-1.41406,0-.69141.69141-1.89453.69141-2.58594,0-.19385-.19391-.45038-.29089-.70691-.29095-.86041-.00012-1.31421,1.09766-.70697,1.7052,1.44531,1.44611,3.96863,1.44604,5.41388-.00018.39062-.39062.39062-1.02393,0-1.41406Z"/>
  <path d="M45.21609,27c0,.89624,1.11163,1.30206,1.70715.70691,1.44617-1.44531,1.44611-3.96869-.00012-5.41394-.39062-.39062-1.02393-.39062-1.41406,0-.39062.39062-.39062,1.02344,0,1.41406.69141.69141.69141,1.89453,0,2.58594-.19531.19531-.29297.45117-.29297.70703Z"/>
  <path d="M49.21609,30c0,.85498,1.10437,1.30939,1.70728.70679,1.44604-1.44537,1.44598-3.96863-.00024-5.41382-.39062-.39062-1.02393-.39062-1.41406,0-.39062.39062-.39062,1.02344,0,1.41406.69141.69141.69141,1.89453,0,2.58594-.19531.19531-.29297.45117-.29297.70703Z"/>
  <path d="M47.92312,31.29297c-.39062-.39062-1.02393-.39062-1.41406,0-.39062.39062-.39062,1.02344,0,1.41406.69141.69141.69141,1.89453,0,2.58594-.19531.19531-.29297.45117-.29297.70703,0,.87,1.09009,1.32373,1.7074.7066,1.44592-1.44537,1.4458-3.96844-.00037-5.41364Z"/>
  <path d="M50.21609,38c0,.87,1.09015,1.32367,1.7074.70667,1.44592-1.44537,1.4458-3.96851-.00037-5.4137-.39062-.39062-1.02393-.39062-1.41406,0-.39062.39062-.39062,1.02344,0,1.41406.69141.69141.69141,1.89453,0,2.58594-.19531.19531-.29297.45117-.29297.70703Z"/>
  <path d="M46.21811,42.99988c-.00012.86041,1.09766,1.31421,1.7052.70697,1.44611-1.44537,1.44604-3.96863-.00018-5.41388-.39062-.39062-1.02393-.39062-1.41406,0-.39062.39062-.39062,1.02344,0,1.41406.69141.69141.69141,1.89453,0,2.58594-.19385.19385-.29089.45038-.29095.70691Z"/>
</svg>