<?xml version="1.0" encoding="UTF-8"?>
<svg id="Outline" xmlns="http://www.w3.org/2000/svg" version="1.1" viewBox="0 0 64 64">
  <!-- Generator: Adobe Illustrator 29.3.1, SVG Export Plug-In . SVG Version: 2.1.0 Build 151)  -->
  <path d="M48,30.50031c-1.15002,0-2.23999.21997-3.25.62l-3.75-6.87v-2.21002l1.91998-1.27997c.67999-.46002,1.08002-1.21002,1.08002-2.02002,0-1.20001-.90002-2.23999-2.08002-2.41003l-5.77997-.81995c-.54999-.08002-1.04999.29999-1.13.84998s.29999,1.04999.84998,1.13l5.77002.83002c.21002.01996.37.20996.37.41998,0,.14001-.07001.27002-.19.34998l-2.35999,1.58002c-.28003.17999-.45001.5-.45001.83002v2h-11v-2h1c.54999,0,1-.45001,1-1s-.45001-1-1-1h-4c-.54999,0-1,.45001-1,1s.45001,1,1,1h1v2.64001l-5.97998,7.31995c-1.21002-.60999-2.58002-.95996-4.02002-.95996-.84003,0-1.67999.12-2.48999.34998-.53003.15002-.84003.70001-.69,1.22998.14996.53003.70001.84003,1.22998.69.64001-.17999,1.29004-.26996,1.95001-.26996.96002,0,1.88.20001,2.71002.54999l-1.36005,1.65997c-.42999-.12-.88-.20996-1.34998-.20996-2.76001,0-5,2.23999-5,5s2.23999,5,5,5,5-2.23999,5-5c0-1.54999-.72998-2.92004-1.84003-3.84003l1.28003-1.57001c1.56,1.29004,2.56,3.23999,2.56,5.41003,0,3.85999-3.14001,7-7,7s-7-3.14001-7-7c0-.66003.09003-1.31.27002-1.95001.14996-.53003-.15002-1.08002-.69-1.22998-.53003-.15002-1.08002.14996-1.23004.69-.22998.79999-.34998,1.63995-.34998,2.48999,0,4.95996,4.03998,9,9,9,4.62,0,8.44-3.51001,8.94-8h4.23999c.31.84998.97003,1.51001,1.82001,1.82001v2.17999h-1c-.54999,0-1,.45001-1,1s.45001,1,1,1h4c.54999,0,1-.45001,1-1s-.45001-1-1-1h-1v-2.17999c1.15997-.42004,2-1.52002,2-2.82001,0-.78003-.29999-1.48004-.78998-2.01001l5.79999-10.88,2.95996,5.42999c-2.38995,1.62-3.96997,4.35999-3.96997,7.46002,0,4.95996,4.03998,9,9,9s9-4.04004,9-9-4.03998-9-9-9ZM16,42.50031c-1.65002,0-3-1.35004-3-3s1.34998-3,3-3,3,1.34998,3,3-1.34998,3-3,3ZM29.17999,38.50031h-4.23999c-.26001-2.39001-1.47003-4.5-3.22998-5.95001l4.90997-6.01001,3.53998,10.60999c-.44.34003-.77997.81-.97998,1.35004ZM32,40.50031c-.54999,0-1-.45001-1-1s.45001-1,1-1,1,.45001,1,1-.45001,1-1,1ZM32.44,36.54029c-.12-.01001-.25-.02997-.38-.02997l-3.66998-11.01001h9.94l-5.89001,11.03998ZM48,46.50031c-3.85999,0-7-3.14001-7-7,0-2.34003,1.15997-4.42004,2.94-5.69l.96997,1.78998c-1.14996.91003-1.90997,2.31-1.90997,3.90002,0,2.76001,2.23999,5,5,5s5-2.23999,5-5-2.23999-5-5-5c-.45001,0-.88.07996-1.29999.19l-.98004-1.79999c.71002-.25,1.48004-.39001,2.28003-.39001,3.85999,0,7,3.14001,7,7s-3.14001,7-7,7ZM45,39.50031c0-1.65002,1.34998-3,3-3s3,1.34998,3,3-1.34998,3-3,3-3-1.35004-3-3Z"/>
  <path d="M11.05023,34.55055c.39056-.3905.39056-1.02368,0-1.41418-.3905-.39056-1.02368-.39056-1.41418,0-.3905.3905-.3905,1.02368,0,1.41418s1.02368.3905,1.41418,0Z"/>
</svg>