<?xml version="1.0" encoding="UTF-8"?>
<svg id="Outline" xmlns="http://www.w3.org/2000/svg" version="1.1" viewBox="0 0 64 64">
  <!-- Generator: Adobe Illustrator 29.5.1, SVG Export Plug-In . SVG Version: 2.1.0 Build 141)  -->
  <path d="M38,11H13c-1.654,0-3,1.346-3,3v27c0,.197.059.391.168.555l1.832,2.748v9.697c0,1.654,1.346,3,3,3h21c1.654,0,3-1.346,3-3v-9.697l1.832-2.748c.109-.164.168-.357.168-.555V14c0-1.654-1.346-3-3-3ZM39,40.697l-1.832,2.748c-.109.164-.168.357-.168.555v10c0,.552-.449,1-1,1H15c-.551,0-1-.448-1-1v-10c0-.197-.059-.391-.168-.555l-1.832-2.748V14c0-.552.449-1,1-1h25c.551,0,1,.448,1,1v26.697Z"/>
  <path d="M24,25v6c0,.553.448,1,1,1s1-.447,1-1v-6c0-.553-.448-1-1-1s-1,.447-1,1Z"/>
  <path d="M22.008,18.668c.961-.443,1.968-.668,2.992-.668,3.86,0,7,3.141,7,7v6c0,1.097-.266,2.193-.77,3.173-.252.491-.059,1.094.433,1.347.46.237,1.092.064,1.347-.433.648-1.261.99-2.674.99-4.087v-6c0-4.963-4.038-9-9-9-1.315,0-2.603.286-3.829.852-.502.231-.721.825-.49,1.327.231.5.826.721,1.327.489Z"/>
  <path d="M17.7,19.753c-1.112,1.535-1.7,3.35-1.7,5.247v1c0,.553.448,1,1,1s1-.447,1-1v-1c0-1.474.456-2.882,1.319-4.073.324-.447.225-1.072-.223-1.396-.448-.326-1.073-.225-1.396.223Z"/>
  <path d="M17,29c-.552,0-1,.447-1,1v1c0,4.963,4.038,9,9,9,1.795,0,3.531-.533,5.021-1.542.457-.31.577-.932.267-1.389-.31-.458-.931-.577-1.389-.268-1.157.784-2.505,1.198-3.899,1.198-3.86,0-7-3.141-7-7v-1c0-.553-.448-1-1-1Z"/>
  <path d="M25,36c2.757,0,5-2.243,5-5v-1c0-.553-.448-1-1-1s-1,.447-1,1v1c0,1.654-1.346,3-3,3s-3-1.346-3-3v-6c0-1.654,1.346-3,3-3,.795,0,1.551.313,2.118.872.569.577.882,1.333.882,2.128v1c0,.553.448,1,1,1s1-.447,1-1v-1c0-1.323-.518-2.578-1.468-3.542-.954-.94-2.208-1.458-3.532-1.458-2.757,0-5,2.243-5,5v6c0,2.757,2.243,5,5,5Z"/>
  <path d="M20,43h-2c-.552,0-1,.447-1,1s.448,1,1,1h2c.552,0,1-.447,1-1s-.448-1-1-1Z"/>
  <path d="M26,43h-2c-.552,0-1,.447-1,1s.448,1,1,1h2c.552,0,1-.447,1-1s-.448-1-1-1Z"/>
  <path d="M32,43h-2c-.552,0-1,.447-1,1s.448,1,1,1h2c.552,0,1-.447,1-1s-.448-1-1-1Z"/>
  <path d="M20,47h-2c-.552,0-1,.447-1,1s.448,1,1,1h2c.552,0,1-.447,1-1s-.448-1-1-1Z"/>
  <path d="M26,47h-2c-.552,0-1,.447-1,1s.448,1,1,1h2c.552,0,1-.447,1-1s-.448-1-1-1Z"/>
  <path d="M32,47h-2c-.552,0-1,.447-1,1s.448,1,1,1h2c.552,0,1-.447,1-1s-.448-1-1-1Z"/>
  <path d="M20,51h-2c-.552,0-1,.447-1,1s.448,1,1,1h2c.552,0,1-.447,1-1s-.448-1-1-1Z"/>
  <path d="M26,51h-2c-.552,0-1,.447-1,1s.448,1,1,1h2c.552,0,1-.447,1-1s-.448-1-1-1Z"/>
  <path d="M32,51h-2c-.552,0-1,.447-1,1s.448,1,1,1h2c.552,0,1-.447,1-1s-.448-1-1-1Z"/>
  <path d="M43,7c-.552,0-1,.447-1,1s.448,1,1,1c4.962,0,9,4.037,9,9,0,.553.448,1,1,1s1-.447,1-1c0-6.065-4.935-11-11-11Z"/>
  <path d="M43,11c-.552,0-1,.447-1,1s.448,1,1,1c2.757,0,5,2.243,5,5,0,.553.448,1,1,1s1-.447,1-1c0-3.859-3.14-7-7-7Z"/>
  <path d="M43,15c-.552,0-1,.447-1,1s.448,1,1,1,1,.448,1,1,.448,1,1,1,1-.447,1-1c0-1.654-1.346-3-3-3Z"/>
  <path d="M15,20c.552,0,1-.447,1-1v-2h2c.552,0,1-.447,1-1s-.448-1-1-1h-3c-.552,0-1,.447-1,1v3c0,.553.448,1,1,1Z"/>
  <path d="M35,15h-3c-.552,0-1,.447-1,1s.448,1,1,1h2v2c0,.553.448,1,1,1s1-.447,1-1v-3c0-.553-.448-1-1-1Z"/>
  <path d="M19,40c0-.553-.448-1-1-1h-2v-2c0-.553-.448-1-1-1s-1,.447-1,1v3c0,.553.448,1,1,1h3c.552,0,1-.447,1-1Z"/>
  <path d="M35,36c-.552,0-1,.447-1,1v2h-2c-.552,0-1,.447-1,1s.448,1,1,1h3c.552,0,1-.447,1-1v-3c0-.553-.448-1-1-1Z"/>
</svg>