<?xml version="1.0" encoding="UTF-8"?>
<svg id="Outline" xmlns="http://www.w3.org/2000/svg" version="1.1" viewBox="0 0 64 64">
  <!-- Generator: Adobe Illustrator 29.5.1, SVG Export Plug-In . SVG Version: 2.1.0 Build 141)  -->
  <path d="M44.632,32.2l-3.72-2.79c-.59-3.08-3.29-5.41-6.54-5.41-1.78,0-3.45.69-4.7,1.95-1.7,1.7-2.64,3.96-2.64,6.36v1.69H8.032c-.55,0-1,.45-1,1,0,2.45,1.77,4.48,4.09,4.91.14.77.47,1.46.92,2.07-.01,0-.01.01-.01.02v.5c0,8,6.5,14.5,14.5,14.5s14.5-6.5,14.5-14.5v-6l3.6-2.7c.25-.19.4-.49.4-.8s-.15-.61-.4-.8ZM13.202,40h9.83c.55,0,1-.45,1-1s-.45-1-1-1h-11c-1.3,0-2.42-.84-2.83-2h18.83c2.76,0,5,2.24,5,5s-2.24,5-5,5h-8c-1.3,0-2.42-.84-2.83-2h10.83c.55,0,1-.45,1-1s-.45-1-1-1h-12c-1.3,0-2.42-.84-2.83-2ZM39.032,42.5c0,6.89-5.61,12.5-12.5,12.5-6.52,0-11.88-5.02-12.44-11.39.32.14.67.23,1.03.3.43,2.32,2.46,4.09,4.91,4.09h8c3.86,0,7-3.14,7-7,0-3.52-2.61-6.43-6-6.92v-1.77c0-1.87.73-3.62,2.05-4.95.88-.88,2.05-1.36,3.29-1.36,2.57,0,4.66,2.09,4.66,4.66v11.84ZM41.032,34v-2l1.33,1-1.33,1Z"/>
  <circle cx="35.032" cy="30" r="1"/>
  <path d="M54.801,9.17c-1.398-1.399-3.259-2.17-5.238-2.17-1.661,0-3.239.543-4.53,1.546-1.291-1.003-2.869-1.546-4.53-1.546-.127,0-.252.012-.378.018-.032-.003-.059-.018-.091-.018h-14c-.553,0-1,.447-1,1s.447,1,1,1h9.419c-.062.058-.127.11-.187.17-1.595,1.594-2.304,3.741-2.138,5.83h-7.093c-.553,0-1,.447-1,1s.447,1,1,1h7.538c.359.965.919,1.871,1.693,2.646l9.062,9.062c.195.195.451.293.707.293s.512-.098.707-.293l9.062-9.062c2.889-2.888,2.889-7.588,0-10.476ZM53.387,18.231l-8.354,8.354-8.354-8.354c-2.108-2.108-2.108-5.539,0-7.647,1.021-1.021,2.379-1.584,3.824-1.584s2.802.562,3.823,1.584c.375.375,1.039.375,1.414,0,1.021-1.021,2.379-1.584,3.823-1.584s2.803.562,3.824,1.584c2.108,2.108,2.108,5.539,0,7.647Z"/>
  <path d="M22.032,13h8c.553,0,1-.447,1-1s-.447-1-1-1h-8c-.553,0-1,.447-1,1s.447,1,1,1Z"/>
  <path d="M24.032,21h8c.553,0,1-.447,1-1s-.447-1-1-1h-8c-.553,0-1,.447-1,1s.447,1,1,1Z"/>
</svg>