<?xml version="1.0" encoding="UTF-8"?>
<svg id="Outline" xmlns="http://www.w3.org/2000/svg" version="1.1" viewBox="0 0 64 64">
  <!-- Generator: Adobe Illustrator 29.5.1, SVG Export Plug-In . SVG Version: 2.1.0 Build 141)  -->
  <path d="M56.78,45.78c-.06-.54-.57-.93-1.1-.87l-3.95.45c-.18.02-.36.04-.54.06l2.7-3.79c.16-.21.22-.48.18-.74-.05-.27-.19-.5-.41-.65l-3.26-2.33c-.21-.16-.48-.22-.74-.18-.27.05-.5.19-.65.41l-5.69,7.96c-3.42.23-6.87.35-10.3.37v-4.47c.96-.31,1.89-.74,2.75-1.3,2.87-1.84,4.89-4.67,5.7-7.96.13-.54-.2-1.08-.73-1.21-.54-.13-1.08.2-1.21.73-.69,2.8-2.4,5.2-4.84,6.76-1.6,1.03-3.46,1.58-5.38,1.58-.39,0-.78-.03-1.17-.08-.04,0-.08-.02-.14-.02-1.59-.2-3.08-.79-4.39-1.7,1.83-1.09,3.36-2.67,4.41-4.61,2.53-4.71,1.7-10.41-2.08-14.19l-.16-.16c.22-.58.45-1.16.68-1.78,1.01-2.73,3.65-4.56,6.56-4.56,3.81,0,6.92,3.06,7,6.84-.43,1.33-.65,2.74-.65,4.18,0,.8.06,1.54.18,2.26l.15.91c.05.3.09.6.11.9.06.55.55.96,1.09.91.55-.06.96-.54.91-1.09-.04-.34-.08-.68-.13-1.03l-.16-.93c-.08-.51-.12-1.04-.14-1.6l4.15-2.49c.28-.17.47-.47.49-.79.02-.33-.12-.65-.38-.85l-4.2-3.36c-1.28-3.42-4.56-5.86-8.42-5.86-3.74,0-7.13,2.36-8.44,5.86-1.14,3.09-2.19,5.63-3.6,8.01l-9.82,16.62c-.385.652.107,1.51.86,1.51.34,0,.67-.18.86-.49l1.48-2.51h3.08c1.44,0,2.83-.28,4.13-.76,1.58,1.34,3.44,2.25,5.45,2.64v4.03c-1.65-.04-3.3-.11-4.94-.2-.55-.03-1.03.39-1.06.94-.03.56.39,1.03.94,1.06,3.32.19,6.67.27,10.02.26.01,0,.03.01.04.01s.02-.01.04-.01c3.95,0,7.92-.13,11.87-.4.3-.02.57-.18.74-.42l5.38-7.53,1.63,1.16-3.4,4.77c-.23.32-.25.74-.05,1.08.2.34.58.54.97.49.39-.04.78-.08,1.17-.11.53-.05,1.07-.1,1.59-.17l2.95-.33.23,1.98-2.94.35c-14.38,1.65-29.15,1.53-43.32-.34l.27-1.98c2.95.39,5.91.69,8.79.92.56.04,1.04-.37,1.08-.92.04-.55-.37-1.03-.92-1.08-3.18-.24-6.43-.59-9.68-1.03-.26-.04-.52.03-.74.19-.21.16-.35.4-.38.67l-.54,3.96c-.07.54.31,1.05.85,1.12,7.95,1.09,16.11,1.65,24.25,1.65,6.85,0,13.77-.4,20.57-1.18l3.94-.46c.54-.06.94-.56.87-1.11l-.46-3.97ZM41.97,20.82c.03-.1.05-.21.05-.32,0-.04-.01-.08-.01-.13l1.26,1.01-1.71,1.03c.1-.54.23-1.07.41-1.59ZM17.44,38.5h-1.89l7.15-12.11c.85-1.43,1.57-2.92,2.25-4.51,2.78,3.13,3.32,7.62,1.31,11.36-1.75,3.24-5.13,5.26-8.82,5.26ZM31.02,46.46c-.67,0-1.33-.01-2-.02v-3.85c.1,0,.19.01.29.01.58,0,1.15-.04,1.71-.12v3.98Z"/>
  <circle cx="36.02" cy="19.5" r="1"/>
</svg>