<?xml version="1.0" encoding="UTF-8"?>
<svg id="Outline" xmlns="http://www.w3.org/2000/svg" version="1.1" viewBox="0 0 64 64">
  <!-- Generator: Adobe Illustrator 29.5.1, SVG Export Plug-In . SVG Version: 2.1.0 Build 141)  -->
  <path d="M54,11h-5v-3c0-.55-.45-1-1-1h-4c-.55,0-1,.45-1,1v3h-22v-3c0-.55-.45-1-1-1h-4c-.55,0-1,.45-1,1v3h-5c-1.65,0-3,1.35-3,3v40c0,1.65,1.35,3,3,3h44c1.65,0,3-1.35,3-3V14c0-1.65-1.35-3-3-3ZM45,9h2v6h-2v-6ZM17,9h2v6h-2v-6ZM30.56,55l14.86-1.92.96,1.92h-15.82ZM51,53.53c0,.81-.66,1.47-1.47,1.47-.56,0-1.07-.31-1.32-.81l-1.32-2.64c-.19-.38-.59-.6-1.02-.54l-30.93,3.99h-.94c-.55,0-1-.45-1-1v-20c0-.55-.45-1-1-1s-1,.45-1,1v20c0,.35.07.69.18,1h-1.18c-.55,0-1-.45-1-1V21h2v5c0,.55.45,1,1,1s1-.45,1-1v-5h38v32.53ZM55,54c0,.55-.45,1-1,1h-1.34c.21-.45.34-.94.34-1.47V21h2v33ZM55,19H9v-5c0-.55.45-1,1-1h5v2h-3c-.55,0-1,.45-1,1s.45,1,1,1h12c.55,0,1-.45,1-1s-.45-1-1-1h-3v-2h22v2h-3c-.55,0-1,.45-1,1s.45,1,1,1h12c.55,0,1-.45,1-1s-.45-1-1-1h-3v-2h5c.55,0,1,.45,1,1v5Z"/>
  <path d="M44,40v-1.81c0-.84-.36-1.65-.98-2.22-.3-.27-.65-.47-1.02-.6v-1.14c0-.85-.36-1.66-1-2.23-.63-.57-1.49-.84-2.33-.75l-5.67.63v-1.06c1.16-.42,2-1.52,2-2.82,0-1.28-1.52-3.62-2.18-4.57-.37-.54-1.27-.54-1.64,0-.66.95-2.18,3.29-2.18,4.57,0,1.3.84,2.4,2,2.82v1.29l-6.33.7c-1.52.17-2.67,1.45-2.67,2.98v1.22c-1.18.41-2,1.51-2,2.82v.17c-1.65,0-3,1.35-3,3s1.35,3,3,3h.38l1.73,3.45c.17.34.51.55.89.55h18c.38,0,.72-.21.89-.55l1.73-3.45h.38c1.65,0,3-1.35,3-3s-1.35-3-3-3ZM32,25.85c.58.97.99,1.85,1,2.15,0,.55-.45,1-1,1s-1-.45-1-1c.01-.31.42-1.18,1-2.15ZM24,35.79c0-.51.38-.94.89-.99l14-1.56c.28-.03.56.06.78.25.21.19.33.46.33.74v1.04l-16,1.45v-.93ZM22,39.83c0-.52.39-.95.91-1l18-1.64c.29-.02.55.07.76.26.21.19.33.46.33.74v1.81h-20v-.17ZM40.38,48h-16.76l-1-2h18.76l-1,2ZM44,44h-24c-.55,0-1-.45-1-1s.45-1,1-1h24c.55,0,1,.45,1,1s-.45,1-1,1Z"/>
  <circle cx="12" cy="30" r="1"/>
</svg>