<?xml version="1.0" encoding="UTF-8"?>
<svg id="Outline" xmlns="http://www.w3.org/2000/svg" version="1.1" viewBox="0 0 64 64">
  <!-- Generator: Adobe Illustrator 29.0.0, SVG Export Plug-In . SVG Version: 2.1.0 Build 186)  -->
  <path d="M56,45h-4v-6h1c.54999,0,1-.45001,1-1v-6c0-.54999-.45001-1-1-1h-6.65997l2.39996-8h.26001c.54999,0,1-.45001,1-1v-6c0-.54999-.45001-1-1-1h-5.03003c.64001-.84003,1.03003-1.87,1.03003-3,0-2.76001-2.23999-5-5-5-2.40997,0-4.42999,1.71997-4.90002,4h-6.19995c-.47003-2.28003-2.49005-4-4.90002-4-2.76001,0-5,2.23999-5,5,0,1.13.39001,2.15997,1.03003,3h-5.03003c-.54999,0-1,.45001-1,1v6c0,.54999.45001,1,1,1h.26001l2.39996,8h-6.65997c-.54999,0-1,.45001-1,1v6c0,.54999.45001,1,1,1h1v6h-4c-.54999,0-1,.45001-1,1v4c0,.54999.45001,1,1,1h1v5c0,.54999.45001,1,1,1h44c.54999,0,1-.45001,1-1v-5h1c.54999,0,1-.45001,1-1v-4c0-.54999-.45001-1-1-1ZM52,33v4h-14v-4h14ZM27,47h10v2h-10v-2ZM14,45v-6h14v6h-14ZM28,37v-4h8v4h-8ZM34,39v6h-4v-6h4ZM36,45v-6h14v6h-14ZM44.26001,31h-11.26001v-8h13.65997l-2.39996,8ZM31,21v-4h2v4h-2ZM37,12c0-1.65002,1.34998-3,3-3s3,1.34998,3,3-1.34998,3-3,3h-3v-3ZM48,17v4h-13v-4h13ZM29,13h6v2h-6v-2ZM24,9c1.65002,0,3,1.34998,3,3v3h-3c-1.65002,0-3-1.35004-3-3s1.34998-3,3-3ZM16,17h13v4h-13v-4ZM17.34003,23h13.65997v8h-11.26001l-2.39996-8ZM12,33h14v4h-14v-4ZM9,49v-2h16v2H9ZM28,55H11v-4h17v4ZM34,55h-4v-4h4v4ZM53,55h-17v-4h17v4ZM55,49h-16v-2h16v2Z"/>
</svg>