<?xml version="1.0" encoding="UTF-8"?>
<svg id="Outline" xmlns="http://www.w3.org/2000/svg" version="1.1" viewBox="0 0 64 64">
  <!-- Generator: Adobe Illustrator 29.5.1, SVG Export Plug-In . SVG Version: 2.1.0 Build 141)  -->
  <path d="M54.04,25.261c-.96-1.44-2.72-2.12-4.39-1.7l-.5.12,3.82-15.44c.09-.34-.02-.7-.26-.95-.25-.25-.61-.35-.96-.26l-16.71,4.25c-1-.18-2.02-.28-3.04-.28-7.94,0-14.61,5.48-16.47,12.85l-1.18-.29c-1.67-.42-3.43.26-4.39,1.7-.67,1-.86,2.23-.53,3.39,1.1,3.84,4.02,6.89,7.81,8.15l.3.1c.89,1.43,1.97,2.71,3.22,3.82-.77.56-1.52,1.16-2.2,1.84-3.58,3.6-5.56,8.37-5.56,13.44,0,.55.45,1,1,1h36c.55,0,1-.45,1-1,0-5.07-1.98-9.84-5.56-13.44-.68-.68-1.43-1.28-2.2-1.84,1.25-1.11,2.33-2.39,3.22-3.82l.31-.1c3.78-1.26,6.7-4.31,7.8-8.15.33-1.16.14-2.39-.53-3.39ZM50.63,9.381l-3.85,15.55c0,.01,0,.02-.01.03l-.36,1.48-13.4-12.59,17.62-4.47ZM11.35,28.101c-.16-.59-.07-1.22.27-1.73.49-.74,1.4-1.09,2.25-.87l1.29.32c-.1.72-.16,1.44-.16,2.18,0,2.16.42,4.23,1.16,6.13-2.31-1.29-4.06-3.43-4.81-6.03ZM44.02,43.981c2.98,2.98,4.71,6.86,4.95,11.02H15.03c.24-4.16,1.97-8.04,4.95-11.02.74-.75,1.56-1.39,2.41-1.97.2.14.41.26.61.39v1.6c0,4.96,4.04,9,9,9s9-4.04,9-9v-1.6c.2-.13.41-.25.61-.39.85.58,1.67,1.22,2.41,1.97ZM25,44.001v-.53c2.14.98,4.5,1.53,7,1.53s4.86-.55,7-1.53v.53c0,3.86-3.14,7-7,7s-7-3.14-7-7ZM32,43.001c-8.27,0-15-6.73-15-15,0-7.6,5.69-13.88,13.02-14.85-.06.33.04.68.3.91l15.97,15c.17.17.41.26.64.27-.67,7.65-7.11,13.67-14.93,13.67ZM52.65,28.101c-.75,2.6-2.5,4.74-4.81,6.03.74-1.9,1.16-3.97,1.16-6.13,0-.73-.06-1.45-.16-2.18l1.29-.32c.86-.22,1.76.13,2.25.87.34.51.43,1.14.27,1.73Z"/>
  <path d="M27,25.001c0-.552-.448-1-1-1s-1,.448-1,1v4c0,.552.448,1,1,1s1-.448,1-1v-4Z"/>
  <path d="M38,24.001c-.552,0-1,.448-1,1v4c0,.552.448,1,1,1s1-.448,1-1v-4c0-.552-.448-1-1-1Z"/>
  <path d="M35.293,34.294c-1.815,1.815-4.771,1.815-6.586,0-.391-.391-1.023-.391-1.414,0s-.391,1.023,0,1.414c1.298,1.298,3.002,1.947,4.707,1.947s3.409-.649,4.707-1.947c.391-.391.391-1.023,0-1.414s-1.023-.391-1.414,0Z"/>
  <path d="M30,49.001h4c.552,0,1-.448,1-1s-.448-1-1-1h-4c-.552,0-1,.448-1,1s.448,1,1,1Z"/>
</svg>