<?xml version="1.0" encoding="UTF-8"?>
<svg id="Outline" xmlns="http://www.w3.org/2000/svg" version="1.1" viewBox="0 0 64 64">
  <!-- Generator: Adobe Illustrator 29.5.1, SVG Export Plug-In . SVG Version: 2.1.0 Build 141)  -->
  <path d="M52,40.897v-2.09c1.16-.42,2-1.52,2-2.82v-11c0-4.65-9.15-7.3-18-7.87v-3.13c0-.55-.45-1-1-1h-.18c.11-.31.18-.65.18-1,0-1.28-1.52-3.62-2.18-4.57-.37-.54-1.27-.54-1.64,0-.66.95-2.18,3.29-2.18,4.57,0,.35.07.69.18,1h-.18c-.55,0-1,.45-1,1v3.13c-8.85.57-18,3.22-18,7.87v7c0,1.3.84,2.4,2,2.82v6.09c-3.26,1.7-5,3.8-5,6.09,0,2.62,2.35,5.07,6.61,6.87.512.197,1.092-.012,1.31-.53.22-.51-.02-1.09-.53-1.31-3.43-1.45-5.39-3.28-5.39-5.03,0-1.29,1.06-2.61,3-3.8v.8c0,4.41,8.97,8,20,8,3.26,0,6.36-.3,9.21-.9.54-.11.88-.64.77-1.18-.11-.55-.64-.89-1.19-.78-2.71.57-5.67.86-8.79.86-10.99,0-18-3.55-18-6v-4c0,1.65,1.35,3,3,3s3-1.35,3-3v-1c0-.55.45-1,1-1s1,.45,1,1v1c0,1.65,1.35,3,3,3s3-1.35,3-3v-1c0-.55.45-1,1-1h1c.55,0,1,.45,1,1v2c0,1.65,1.35,3,3,3h1c1.65,0,3-1.35,3-3v-2c0-.55.45-1,1-1s1,.45,1,1v3c0,1.65,1.35,3,3,3s3-1.35,3-3v-7c0-.55.45-1,1-1s1,.45,1,1v1c0,1.3.84,2.4,2,2.82v5.18c0,1.06-1.65,2.73-5.34,4.07-.52.19-.79.76-.6,1.28.15.41.53.66.94.66.11,0,.23-.02.34-.06,4.23-1.53,6.66-3.7,6.66-5.95v-.8c1.94,1.19,3,2.51,3,3.8,0,3.78-9.45,8-23,8-4.98,0-9.73-.58-13.74-1.67-.53-.14-1.08.17-1.22.71-.15.53.17,1.08.7,1.22,4.18,1.14,9.11,1.74,14.26,1.74,14.02,0,25-4.39,25-10,0-2.29-1.74-4.39-5-6.09ZM32,9.837c.58.97.99,1.85,1,2.15,0,.55-.45,1-1,1s-1-.45-1-1c.01-.31.42-1.18,1-2.15ZM30,14.987h4v9.43c-1.26.64-2.74.64-4,0v-9.43ZM28,19.128v5.86c0,.33.17.65.45.83,1.07.72,2.31,1.08,3.55,1.08s2.48-.36,3.55-1.08c.28-.18.45-.5.45-.83v-5.86c9.91.64,16,3.49,16,5.86,0,2.83-8.55,6-20,6s-20-3.17-20-6c0-2.37,6.09-5.22,16-5.86ZM51,36.987c-.55,0-1-.45-1-1v-1c0-1.65-1.35-3-3-3s-3,1.35-3,3v7c0,.55-.45,1-1,1s-1-.45-1-1v-3c0-1.65-1.35-3-3-3s-3,1.35-3,3v2c0,.55-.45,1-1,1h-1c-.55,0-1-.45-1-1v-2c0-1.65-1.35-3-3-3h-1c-1.65,0-3,1.35-3,3v1c0,.55-.45,1-1,1s-1-.45-1-1v-1c0-1.65-1.35-3-3-3s-3,1.35-3,3v1c0,.55-.45,1-1,1s-1-.45-1-1v-4c0-1.65-1.35-3-3-3-.55,0-1-.45-1-1v-3.51c3.72,2.95,12.04,4.51,20,4.51s16.28-1.56,20-4.51v7.51c0,.55-.45,1-1,1Z"/>
</svg>