<?xml version="1.0" encoding="UTF-8"?>
<svg id="Outline" xmlns="http://www.w3.org/2000/svg" version="1.1" viewBox="0 0 48 48">
  <!-- Generator: Adobe Illustrator 29.5.1, SVG Export Plug-In . SVG Version: 2.1.0 Build 141)  -->
  <path d="M34.999,13h-2v-1c0-1.65-1.35-3-3-3h-5v-3c0-.55-.45-1-1-1h-4c-.55,0-1,.45-1,1v3h-5c-1.65,0-3,1.35-3,3v1h-2c-.4,0-.77.24-.92.62-.16.37-.07.8.21,1.09l2.76,2.76,1.81,13.54c-1.59.08-2.86,1.38-2.86,2.99v6c0,1.65,1.35,3,3,3h18c1.65,0,3-1.35,3-3v-6c0-1.61-1.28-2.93-2.88-2.99l.22-2.01h3.66c2.76,0,5-2.24,5-5v-6c0-2.76-2.24-5-5-5ZM20.999,7h2v2h-2v-2ZM12.999,12c0-.55.45-1,1-1h16c.55,0,1,.45,1,1v1H12.999v-1ZM12.709,16.29l-1.3-1.29h19.47l-.38,3.45-.58.19c-2.43.81-5.2.61-7.47-.53-2.78-1.39-6.06-1.63-9.01-.65l-.35.12-.1-.71c-.03-.22-.13-.42-.28-.58ZM30.259,20.62l-1.16,10.38h-14.22l-1.52-11.4.72-.24c2.44-.81,5.17-.62,7.47.53,1.62.82,3.45,1.25,5.29,1.25,1.16,0,2.31-.18,3.42-.52ZM31.999,34v6c0,.55-.45,1-1,1H12.999c-.55,0-1-.45-1-1v-6c0-.55.45-1,1-1h18c.55,0,1,.45,1,1ZM32.449,19h1.55v4h-1.99l.44-4ZM37.999,24c0,1.65-1.35,3-3,3h-3.44l.22-2h3.22c.55,0,1-.45,1-1v-6c0-.55-.45-1-1-1h-2.33l.23-2h2.1c1.65,0,3,1.35,3,3v6Z"/>
  <path d="M28.999,35h-14c-.553,0-1,.448-1,1s.447,1,1,1h10v1c0,.552.447,1,1,1s1-.448,1-1v-1h2c.553,0,1-.448,1-1s-.447-1-1-1Z"/>
</svg>