<?xml version="1.0" encoding="UTF-8"?>
<svg id="Outline" xmlns="http://www.w3.org/2000/svg" version="1.1" viewBox="0 0 64 64">
  <!-- Generator: Adobe Illustrator 29.5.1, SVG Export Plug-In . SVG Version: 2.1.0 Build 141)  -->
  <path d="M20.999,46v6c0,.553.448,1,1,1h20c.552,0,1-.447,1-1v-6c0-.553-.448-1-1-1h-20c-.552,0-1,.447-1,1ZM22.999,47h18v4h-18v-4Z"/>
  <path d="M49.999,18h-4.26l.25-1.87c0-.02-.01-.04,0-.06,0-.02.01-.04.01-.07v-2c0-1.65-1.35-3-3-3h-5v-1c0-1.65-1.35-3-3-3h-6c-1.65,0-3,1.35-3,3v1h-5c-1.65,0-3,1.35-3,3v1h-4c-.39,0-.75.23-.91.58-.16.36-.1.77.15,1.07l5.75,6.71,1.78,13.05c.19,1.36,1.29,2.4,2.63,2.56l-1.02,2.03h-2.38c-1.65,0-3,1.35-3,3v10c0,1.65,1.35,3,3,3h24c1.65,0,3-1.35,3-3v-10c0-1.65-1.35-3-3-3h-2.38l-1.02-2.03c1.34-.16,2.44-1.2,2.63-2.56l.06-.45c4.32-.45,7.71-4.11,7.71-8.55v-8.41c0-.55-.45-1-1-1ZM16.169,17h1.96l.37,2.71-2.33-2.71ZM27.999,10c0-.55.45-1,1-1h6c.55,0,1,.45,1,1v1h-8v-1ZM19.999,14c0-.55.45-1,1-1h22c.55,0,1,.45,1,1v1h-24v-1ZM43.999,43c.55,0,1,.45,1,1v10c0,.55-.45,1-1,1h-24c-.55,0-1-.45-1-1v-10c0-.55.45-1,1-1h24ZM24.619,41l1-2h12.76l1,2h-14.76ZM41.249,36.13c-.07.5-.5.87-1,.87h-16.5c-.5,0-.93-.37-1-.86l-1.77-13.01c.03-.17,0-.34-.07-.51l-.76-5.62h23.7l-2.6,19.13ZM48.999,27.41c0,3.24-2.35,5.93-5.43,6.48l1.89-13.89h3.54v7.41Z"/>
</svg>