<?xml version="1.0" encoding="UTF-8"?>
<svg id="Outline" xmlns="http://www.w3.org/2000/svg" version="1.1" viewBox="0 0 48 48">
  <!-- Generator: Adobe Illustrator 29.5.1, SVG Export Plug-In . SVG Version: 2.1.0 Build 141)  -->
  <path d="M34.999,13h-2v-1c0-1.65-1.35-3-3-3h-5v-3c0-.55-.45-1-1-1h-4c-.55,0-1,.45-1,1v3h-5c-1.65,0-3,1.35-3,3v1h-2c-.4,0-.77.24-.92.62-.16.37-.07.8.21,1.09l2.76,2.76,1.81,13.54c-1.59.08-2.86,1.38-2.86,2.99v6c0,1.65,1.35,3,3,3h18c1.65,0,3-1.35,3-3v-6c0-1.61-1.28-2.93-2.88-2.99l.22-2.01h3.66c2.76,0,5-2.24,5-5v-6c0-2.76-2.24-5-5-5ZM20.999,7h2v2h-2v-2ZM12.999,12c0-.55.45-1,1-1h16c.55,0,1,.45,1,1v1H12.999v-1ZM22.999,15v9h-2v-9h2ZM12.709,16.29l-1.3-1.29h7.59v10c0,.55.45,1,1,1h4c.55,0,1-.45,1-1v-10h5.88l-1.78,16h-14.22l-1.89-14.13c-.03-.22-.13-.42-.28-.58ZM17.539,41h-4.54c-.55,0-1-.45-1-1v-6c0-.55.45-1,1-1h4.54c-.95,1.06-1.54,2.46-1.54,4s.59,2.94,1.54,4ZM21.999,41c-2.21,0-4-1.79-4-4,0-1.86,1.28-3.41,3-3.86v3.86c0,.55.45,1,1,1s1-.45,1-1v-3.86c1.72.45,3,2,3,3.86,0,2.21-1.79,4-4,4ZM31.999,34v6c0,.55-.45,1-1,1h-4.54c.95-1.06,1.54-2.46,1.54-4s-.59-2.94-1.54-4h4.54c.55,0,1,.45,1,1ZM32.449,19h1.55v4h-1.99l.44-4ZM37.999,24c0,1.65-1.35,3-3,3h-3.44l.22-2h3.22c.55,0,1-.45,1-1v-6c0-.55-.45-1-1-1h-2.33l.23-2h2.1c1.65,0,3,1.35,3,3v6Z"/>
</svg>