<?xml version="1.0" encoding="UTF-8"?>
<svg id="Outline" xmlns="http://www.w3.org/2000/svg" version="1.1" viewBox="0 0 64 64">
  <!-- Generator: Adobe Illustrator 29.5.1, SVG Export Plug-In . SVG Version: 2.1.0 Build 141)  -->
  <path d="M54,11h-3v-1c0-1.65-1.35-3-3-3s-3,1.35-3,3v1h-10v-1c0-1.65-1.35-3-3-3s-3,1.35-3,3v1h-10v-1c0-1.65-1.35-3-3-3s-3,1.35-3,3v1h-3c-1.65,0-3,1.35-3,3v4c0,1.65,1.35,3,3,3v33c0,1.65,1.34,3,3,3h37.75c.89,0,1.71-.36,2.3-.95.59-.59.95-1.41.95-2.3V21c1.65,0,3-1.35,3-3v-4c0-1.65-1.35-3-3-3ZM47,10c0-.55.45-1,1-1s1,.45,1,1v1h-2v-1ZM31,10c0-.55.45-1,1-1s1,.45,1,1v1h-2v-1ZM15,10c0-.55.45-1,1-1s1,.45,1,1v1h-2v-1ZM21.62,55l24.65-5.8,1.33,5.34c.04.16.1.31.16.46h-26.14ZM52,53.75c0,.69-.56,1.25-1.25,1.25-.57,0-1.07-.39-1.21-.94l-1.57-6.3c-.13-.53-.67-.86-1.2-.73l-33.83,7.96c-.52-.04-.94-.46-.94-.99V21h40v32.75ZM55,18c0,.55-.45,1-1,1H10c-.55,0-1-.45-1-1v-4c0-.55.45-1,1-1h7v1c0,.55-.45,1-1,1s-1,.45-1,1,.45,1,1,1c1.65,0,3-1.35,3-3v-1h14v1c0,.55-.45,1-1,1s-1,.45-1,1,.45,1,1,1c1.65,0,3-1.35,3-3v-1h14v1c0,.55-.45,1-1,1s-1,.45-1,1,.45,1,1,1c1.65,0,3-1.35,3-3v-1h3c.55,0,1,.45,1,1v4Z"/>
  <path d="M32,48c6.617,0,12-5.383,12-12s-5.383-12-12-12-12,5.383-12,12,5.383,12,12,12ZM32,26c5.514,0,10,4.486,10,10s-4.486,10-10,10-10-4.486-10-10,4.486-10,10-10Z"/>
  <path d="M37.45,40.035c.189.189.444.293.707.293.048,0,.096-.003.144-.01.312-.045.585-.235.735-.513.631-1.162.964-2.478.964-3.805,0-4.411-3.589-8-8-8-1.327,0-2.643.333-3.805.964-.277.15-.467.423-.513.735-.045.312.06.627.283.851l9.485,9.485ZM32,30c3.309,0,6,2.691,6,6,0,.525-.069,1.048-.205,1.552l-7.348-7.348c.504-.135,1.027-.205,1.552-.205Z"/>
  <path d="M32,44c1.327,0,2.643-.333,3.805-.964.277-.15.467-.423.513-.735.045-.312-.06-.627-.283-.851l-9.485-9.485c-.223-.224-.541-.327-.851-.283-.312.045-.585.235-.735.513-.631,1.162-.964,2.478-.964,3.805,0,4.411,3.589,8,8,8ZM26.205,34.448l7.348,7.348c-.504.135-1.027.205-1.552.205-3.309,0-6-2.691-6-6,0-.525.069-1.048.205-1.552Z"/>
</svg>