<?xml version="1.0" encoding="UTF-8"?>
<svg id="Outline" xmlns="http://www.w3.org/2000/svg" version="1.1" viewBox="0 0 64 64">
  <!-- Generator: Adobe Illustrator 29.5.1, SVG Export Plug-In . SVG Version: 2.1.0 Build 141)  -->
  <path d="M46,35c-1.56,0-3.03998.32996-4.38.90997-.72998-.76996-1.67999-1.31-2.71997-1.48999l-.48004-.09003c.37-.70996.58002-1.50995.58002-2.32996,0-.62-.10999-1.23004-.33002-1.79004,1.42999-.89996,2.33002-2.47998,2.33002-4.20996,0-1.39001-.59003-2.71002-1.59998-3.65002.38995-.71997.59998-1.52002.59998-2.34998,0-2.42999-1.73999-4.46002-4.03998-4.91003-.21002-2.04999-1.11005-3.96997-2.60004-5.45996-1.70001-1.70001-3.95996-2.63-6.35999-2.63h-4c-4.65997,0-8.5,3.54999-8.95001,8.08997-.96997.19-1.85999.66003-2.58997,1.38-.94.95001-1.46002,2.21002-1.46002,3.53003,0,.82996.21002,1.63.59998,2.34998-1.00995.94-1.59998,2.26001-1.59998,3.65002,0,1.72998.90002,3.31,2.33002,4.20996-.22003.56-.33002,1.17004-.33002,1.79004,0,.82996.21002,1.62.58002,2.32996l-.48004.09003c-2.38.42999-4.09998,2.5-4.09998,4.91998v4.66003c0,.54999.45001,1,1,1h27.04999c-.02997.32996-.04999.65997-.04999,1,0,6.07001,4.92999,11,11,11s11-4.92999,11-11-4.92999-11-11-11ZM11,26c0-1.04004.56-2.02002,1.46997-2.56.25-.15002.43005-.40002.48004-.69.04999-.29004-.04004-.59003-.23004-.81-.32996-.40002-.71997-1.04999-.71997-1.94,0-.79004.31-1.54999.87-2.12.58002-.57001,1.33002-.88,2.13-.88.54999,0,1-.45001,1-1,0-3.85999,3.14001-7,7-7h4c1.85999,0,3.62.72998,4.95001,2.03998,1.32001,1.34003,2.04999,3.10004,2.04999,4.96002,0,.54999.45001,1,1,1,1.65002,0,3,1.34998,3,3,0,.89001-.39001,1.53998-.71997,1.94-.19.21997-.28003.51996-.23004.81.04999.28998.23004.53998.48004.69.90997.53998,1.46997,1.51996,1.46997,2.56,0,1.26996-.81,2.39996-2.02002,2.81-.28998.10999-.51996.33997-.62.64001-.09998.28998-.04999.62.13.87994.33002.49005.51001,1.06006.51001,1.67004,0,.71997-.27002,1.39996-.72998,1.94l-4.42999-.79999-.75-3.59003c1.78998-1.70001,2.90997-4.13,2.90997-6.82001v-3.72998c0-.54999-.45001-1-1-1-1.40997,0-2.65997-.85004-3.19-2.16003l-.88-2.20996c-.14001-.35004-.46997-.60004-.84998-.63-.39001-.02002-.73999.15997-.94.48999-1.67004,2.77997-4.72003,4.51001-7.97003,4.51001h-.16998c-1.65002,0-3,1.34998-3,3v2c0,2.47998,1.03998,4.87,2.84003,6.57001.01996.00995.03998.02997.06.03998l-.74005,3.53003-4.42999.79999c-.45996-.54004-.72998-1.22003-.72998-1.94,0-.60999.17999-1.17999.51001-1.67004.17999-.25995.22998-.58997.13-.87994-.10004-.30005-.33002-.53003-.62-.64001-1.21002-.41003-2.02002-1.54004-2.02002-2.81ZM25.46002,29.98999c-1.96002.12-3.82001-.53998-5.25-1.88-1.42004-1.34003-2.21002-3.15002-2.21002-5.10999v-2c0-.54999.45001-1,1-1h.16998c3.31,0,6.45001-1.48004,8.57001-3.95001l.22003.53998c.69995,1.75,2.22998,2.98004,4.03998,3.32001v2.82001c0,3.83002-2.87,7.02002-6.53998,7.26001ZM9,43v-3.66003c0-1.44995,1.03003-2.69,2.46002-2.95996l2.92999-.53003,2.60999,3.47998v1.67004c0,.34998.17999.67999.48999.85999l1.90002,1.14001h-10.39001ZM19,40.42999v-1.42999c0-.22003-.07001-.42999-.20001-.60004l-2.20996-2.94995,1.77997-.32001,2.59998,6.48999-1.96997-1.19ZM26.32001,43h-2.64001l-1.59998-4h5.83997l-1.59998,4ZM21.28003,37l-1.24005-3.09003.64001-3.01996c1.31.71997,2.78003,1.10999,4.31,1.10999.20001,0,.40002-.01001.60004-.02002,1.34998-.08997,2.60999-.48999,3.72998-1.12l.64001,3.04999-1.24005,3.09003h-7.43994ZM31.63,35.13l1.77997.32001-2.20996,2.94995c-.13.17004-.20001.38-.20001.60004v1.42999l-1.96997,1.19,2.59998-6.48999ZM30.60999,43l1.90002-1.14001c.31-.17999.48999-.51001.48999-.85999v-1.67004l2.60999-3.47998,2.92999.53003c.45001.08997.87.27997,1.24005.56-2.09003,1.42999-3.65002,3.57001-4.35004,6.06h-4.82001ZM46,55c-4.96002,0-9-4.04004-9-9s4.03998-9,9-9,9,4.03998,9,9-4.03998,9-9,9Z"/>
  <path d="M49.56641,40.42285c-.05469-.31934-.26123-.59277-.5542-.7334-.95605-.45703-1.96924-.68945-3.01221-.68945-3.85986,0-7,3.14062-7,7,0,1.04395.23193,2.05762.68945,3.0127.14014.29199.41357.49805.7334.55273.05615.00977.1123.01465.16846.01465.2627,0,.51807-.10352.70703-.29297l7.98926-7.98828c.22949-.22949.3335-.55566.27881-.87598ZM41.05078,46.70605c-.03369-.23242-.05078-.46875-.05078-.70605,0-2.75684,2.24316-5,5-5,.23779,0,.47363.0166.70703.05078l-5.65625,5.65527Z"/>
  <path d="M52.31055,42.9873c-.14014-.29199-.41357-.49805-.7334-.55273-.31836-.05371-.646.04883-.87549.27832l-7.98926,7.98828c-.22949.22949-.3335.55566-.27881.87598.05469.31934.26123.59277.5542.7334.95605.45703,1.96924.68945,3.01221.68945,3.85986,0,7-3.14062,7-7,0-1.04395-.23193-2.05762-.68945-3.0127ZM46,51c-.23779,0-.47363-.0166-.70703-.05078l5.65625-5.65527c.03369.23242.05078.46875.05078.70605,0,2.75684-2.24316,5-5,5Z"/>
</svg>