<?xml version="1.0" encoding="UTF-8"?>
<svg id="Outline" xmlns="http://www.w3.org/2000/svg" version="1.1" viewBox="0 0 64 64">
  <!-- Generator: Adobe Illustrator 29.5.1, SVG Export Plug-In . SVG Version: 2.1.0 Build 141)  -->
  <path d="M54.508,46.88922c-1.63763-2.81616-2.508-6.01575-2.508-9.27594v-2.39972c.09717-.08783.19958-.16901.28564-.2702.57129-.67188.81689-1.56055.67383-2.44043-.10913-.66986-.46356-1.25659-.95947-1.69684v-.80609c0-4.65326-2.90894-8.63141-7-10.23602v-2.76398c0-.55273-.44775-1-1-1s-1,.44727-1,1v2.1911c-.6496-.12-1.31622-.1911-2-.1911-6.06543,0-11,4.93457-11,11v.80627c-.49591.44031-.85034,1.02728-.95947,1.69763-.14307.87891.10254,1.76758.67383,2.43945.01801.02124.04132.03601.05988.05664H10c-.55127,0-1-.44824-1-1V13h34c0,.55273.44775,1,1,1s1-.44727,1-1v-3c0-1.6543-1.3457-3-3-3H10c-1.6543,0-3,1.3457-3,3v24c0,1.6543,1.3457,3,3,3h20v.61328c0,3.26013-.87036,6.45966-2.50793,9.27576-1.51373.87415-2.49207,2.48663-2.49207,4.32092v4.79004c0,.55273.44775,1,1,1h8c.55225,0,1-.44727,1-1s-.44775-1-1-1h-7v-3.79004c0-1.41797.96582-2.62402,2.34619-2.93359l5.38916-1.1933c1.85413,1.30853,4.05701,1.97162,6.26465,1.97162s4.41046-.66302,6.26471-1.97162l5.38666,1.19232c1.38281.31055,2.34863,1.5166,2.34863,2.93457v3.79004h-17c-.55225,0-1,.44727-1,1s.44775,1,1,1h18c.55225,0,1-.44727,1-1v-4.79004c0-1.8338-.97778-3.44598-2.492-4.32074ZM19.38184,9l-1,2h-3.76367l1-2h3.76367ZM43,10v1h-22.38184l1-2h20.38184c.55127,0,1,.44824,1,1ZM10,9h3.38184l-1,2h-3.38184v-1c0-.55176.44873-1,1-1ZM51.82867,46.0448l-3.98248-.88171-.74731-3.55603c1.55054-1.43237,2.60077-3.39886,2.84595-5.60706h.05518v1.61328c0,2.91724.63324,5.78894,1.82867,8.43152ZM34.15381,45.16309l-3.98267.88208c1.19556-2.6427,1.82886-5.51453,1.82886-8.43188v-1.61328h.05518c.24518,2.20819,1.29541,4.17468,2.84595,5.60706l-.74731,3.55603ZM34,35c0-.55273-.44775-1-1-1h-1c-.29395,0-.57178-.12891-.76221-.35254-.19336-.22754-.27246-.51953-.22363-.82227.07568-.46289.55566-.8252,1.09277-.8252h2.06201c3.73389,0,7.4043-.94922,10.66602-2.75098l1.11914,1.11914c1.05176,1.05273,2.45068,1.63184,3.93896,1.63184.53711,0,1.01709.3623,1.09277.82422.04883.30371-.03027.5957-.22363.82324-.19043.22363-.46826.35254-.76221.35254h-1c-.55225,0-1,.44727-1,1,0,3.85938-3.14014,7-7,7s-7-3.14062-7-7ZM32,30c0-4.96289,4.0376-9,9-9s9,4.03711,9,9v.0094c-.03613-.00122-.07056-.0094-.10693-.0094-.95361,0-1.8501-.37109-2.52441-1.0459l-1.66162-1.66113c-.32373-.3252-.82666-.38574-1.22168-.15039-3.11572,1.86914-6.68359,2.85742-10.31641,2.85742h-2.06201c-.03638,0-.0708.00818-.10693.0094v-.0094ZM36.10486,45.60461l.57202-2.72266c1.28491.70764,2.75549,1.11804,4.32312,1.11804s3.03821-.4104,4.32312-1.11804l.57202,2.72266c-2.93176,1.93762-6.85852,1.93762-9.79028,0Z"/>
  <path d="M22,24c.55225,0,1-.44727,1-1,0-1.31073-.64221-2.46545-1.61896-3.19543.38287-.50372.61896-1.12445.61896-1.80457,0-1.6543-1.3457-3-3-3s-3,1.3457-3,3c0,.68011.23608,1.30084.61896,1.80457-.97675.72998-1.61896,1.8847-1.61896,3.19543,0,.55273.44775,1,1,1s1-.44727,1-1c0-1.10254.89697-2,2-2s2,.89746,2,2c0,.55273.44775,1,1,1ZM18,18c0-.55176.44873-1,1-1s1,.44824,1,1-.44873,1-1,1-1-.44824-1-1Z"/>
  <path d="M12,25c-.55225,0-1,.44727-1,1v6c0,.55273.44775,1,1,1s1-.44727,1-1v-6c0-.55273-.44775-1-1-1Z"/>
  <path d="M18,25c-1.6543,0-3,1.3457-3,3v2c0,1.6543,1.3457,3,3,3s3-1.3457,3-3v-2c0-1.6543-1.3457-3-3-3ZM19,30c0,.55176-.44873,1-1,1s-1-.44824-1-1v-2c0-.55176.44873-1,1-1s1,.44824,1,1v2Z"/>
  <path d="M27.70703,25.29297c-.39062-.39062-1.02344-.39062-1.41406,0l-1.29297,1.29297v-.58594c0-.55273-.44775-1-1-1s-1,.44727-1,1v6c0,.55273.44775,1,1,1s1-.44727,1-1v-.58594l1.29297,1.29297c.19523.19523.45097.29289.70672.29297.87539.00027,1.32741-1.08695.70734-1.70703l-2.29297-2.29297,2.29297-2.29297c.39062-.39062.39062-1.02344,0-1.41406Z"/>
</svg>