<?xml version="1.0" encoding="UTF-8"?>
<svg id="Outline" xmlns="http://www.w3.org/2000/svg" version="1.1" viewBox="0 0 64 64">
  <!-- Generator: Adobe Illustrator 29.5.1, SVG Export Plug-In . SVG Version: 2.1.0 Build 141)  -->
  <path d="M57,26c0-2.45-1.77-4.48-4.09-4.91-.38-2.03-1.97-3.62-4-4-.43-2.32-2.46-4.09-4.91-4.09-1.64,0-3.09.81-4,2.03-.91-1.22-2.36-2.03-4-2.03s-3.09.81-4,2.03c-.91-1.22-2.36-2.03-4-2.03s-3.09.81-4,2.03c-.91-1.22-2.36-2.03-4-2.03-2.45,0-4.48,1.77-4.91,4.09-2.03.38-3.62,1.97-4,4-2.32.43-4.09,2.46-4.09,4.91,0,.48.08.95.21,1.41-.12.17-.21.37-.21.59,0,10,7.25,18.7,17,20.59v1.41c0,.55.45,1,1,1h5c.55,0,1-.45,1-1s-.45-1-1-1h-4v-1.25c0-.5-.36-.92-.85-.99-8.88-1.34-15.65-8.88-16.12-17.76h32.97c.55,0,1-.45,1-1s-.45-1-1-1h-.8c-.12-.32-.2-.65-.2-1,0-1.65,1.35-3,3-3s3,1.35,3,3c0,.35-.08.68-.2,1h-.8c-.55,0-1,.45-1,1s.45,1,1,1h8.97c-.47,8.88-7.24,16.42-16.12,17.76-.49.07-.85.49-.85.99v1.25h-4c-.55,0-1,.45-1,1s.45,1,1,1h5c.55,0,1-.45,1-1v-1.41c9.75-1.89,17-10.59,17-20.59,0-.22-.09-.42-.21-.59.13-.46.21-.93.21-1.41ZM36,15c1.35,0,2.49.91,2.86,2.14-1.17.28-2.17.96-2.86,1.89-.69-.93-1.69-1.61-2.86-1.89.37-1.23,1.51-2.14,2.86-2.14ZM28,15c1.35,0,2.49.91,2.86,2.14-1.17.28-2.17.96-2.86,1.89-.69-.93-1.69-1.61-2.86-1.89.37-1.23,1.51-2.14,2.86-2.14ZM20,15c1.35,0,2.49.91,2.86,2.14-1.17.28-2.17.96-2.86,1.89-.69-.93-1.69-1.61-2.86-1.89.37-1.23,1.51-2.14,2.86-2.14ZM14.8,27h-5.6c-.12-.32-.2-.65-.2-1,0-1.65,1.35-3,3-3s3,1.35,3,3c0,.35-.08.68-.2,1ZM16,23.03c-.69-.93-1.69-1.61-2.86-1.89.37-1.23,1.51-2.14,2.86-2.14s2.49.91,2.86,2.14c-1.17.28-2.17.96-2.86,1.89ZM22.8,27h-5.6c-.12-.32-.2-.65-.2-1,0-1.65,1.35-3,3-3s3,1.35,3,3c0,.35-.08.68-.2,1ZM24,23.03c-.69-.93-1.69-1.61-2.86-1.89.37-1.23,1.51-2.14,2.86-2.14s2.49.91,2.86,2.14c-1.17.28-2.17.96-2.86,1.89ZM30.8,27h-5.6c-.12-.32-.2-.65-.2-1,0-1.65,1.35-3,3-3s3,1.35,3,3c0,.35-.08.68-.2,1ZM32,23.03c-.69-.93-1.69-1.61-2.86-1.89.37-1.23,1.51-2.14,2.86-2.14s2.49.91,2.86,2.14c-1.17.28-2.17.96-2.86,1.89ZM38.8,27h-5.6c-.12-.32-.2-.65-.2-1,0-1.65,1.35-3,3-3s3,1.35,3,3c0,.35-.08.68-.2,1ZM40,23.03c-.69-.93-1.69-1.61-2.86-1.89.37-1.23,1.51-2.14,2.86-2.14s2.49.91,2.86,2.14c-1.17.28-2.17.96-2.86,1.89ZM44,19.03c-.69-.93-1.69-1.61-2.86-1.89.37-1.23,1.51-2.14,2.86-2.14s2.49.91,2.86,2.14c-1.17.28-2.17.96-2.86,1.89ZM48,23.03c-.69-.93-1.69-1.61-2.86-1.89.37-1.23,1.51-2.14,2.86-2.14s2.49.91,2.86,2.14c-1.17.28-2.17.96-2.86,1.89ZM54.8,27h-5.6c-.12-.32-.2-.65-.2-1,0-1.65,1.35-3,3-3s3,1.35,3,3c0,.35-.08.68-.2,1Z"/>
</svg>