<?xml version="1.0" encoding="UTF-8"?>
<svg id="Outline" xmlns="http://www.w3.org/2000/svg" version="1.1" viewBox="0 0 64 64">
  <!-- Generator: Adobe Illustrator 29.5.1, SVG Export Plug-In . SVG Version: 2.1.0 Build 141)  -->
  <path d="M49.831,12.27c-.08-.4-.39-.71-.79-.79-.18-.03-4.49-.85-6.79,1.46-.24.24-.45.51-.62.79-.18-.28-.38-.55-.63-.79-2.3-2.31-6.61-1.49-6.79-1.46-.4.08-.71.39-.79.79-.03.18-.83,4.41,1.4,6.73h-2.82v-11c0-.55-.45-1-1-1h-4c-.55,0-1,.45-1,1v4c0,.55.45,1,1,1s1-.45,1-1v-3h2v10h-2v-3c0-.55-.45-1-1-1s-1,.45-1,1v3h-4c-.55,0-1,.45-1,1s.45,1,1,1h19.91l-.25,3.06-.85.24c-3.79,1.08-7.76,1-11.49-.25-4.12-1.37-8.5-1.47-12.68-.27l-.31.09-.24-2.87h1.91c.55,0,1-.45,1-1s-.45-1-1-1h-3c-.28,0-.55.12-.74.32-.19.21-.28.48-.26.76l2.85,34.17c.12,1.54,1.44,2.75,2.99,2.75h18.32c1.55,0,2.87-1.21,2.99-2.75l2.8-33.57c1.43-.05,3.21-.4,4.43-1.62,2.3-2.3,1.49-6.61,1.45-6.79ZM40.591,18.65c-1.23.11-3.26.05-4.3-1-1.05-1.05-1.11-3.07-1-4.3,1.23-.11,3.25-.05,4.3,1,1.05,1.05,1.11,3.07,1,4.3ZM39.151,54.09c-.04.51-.47.91-.99.91h-18.32c-.52,0-.95-.4-.99-.91l-.1-1.17c.2.04.41.08.62.08h19.26c.21,0,.42-.04.62-.08l-.1,1.17ZM39.441,50.66c-.2.21-.49.34-.81.34h-19.26c-.32,0-.61-.13-.81-.34l-2.06-24.76.69-.2c3.79-1.08,7.76-1,11.49.25,2.21.73,4.49,1.1,6.78,1.1,1.98,0,3.96-.27,5.9-.83l.12-.03-2.04,24.47ZM46.961,17.65c-1.04,1.05-3.07,1.11-4.29,1-.12-1.23-.05-3.25.99-4.3,1.05-1.05,3.07-1.11,4.3-1,.11,1.23.05,3.25-1,4.3Z"/>
  <path d="M24.001,43c-1.654,0-3,1.346-3,3s1.346,3,3,3,3-1.346,3-3-1.346-3-3-3ZM24.001,47c-.551,0-1-.448-1-1s.449-1,1-1,1,.448,1,1-.449,1-1,1Z"/>
  <path d="M34.001,43c-1.654,0-3,1.346-3,3s1.346,3,3,3,3-1.346,3-3-1.346-3-3-3ZM34.001,47c-.551,0-1-.448-1-1s.449-1,1-1,1,.448,1,1-.449,1-1,1Z"/>
  <path d="M29.001,43c1.654,0,3-1.346,3-3s-1.346-3-3-3-3,1.346-3,3,1.346,3,3,3ZM29.001,39c.551,0,1,.448,1,1s-.449,1-1,1-1-.448-1-1,.449-1,1-1Z"/>
  <path d="M22.001,39c1.654,0,3-1.346,3-3s-1.346-3-3-3-3,1.346-3,3,1.346,3,3,3ZM22.001,35c.551,0,1,.448,1,1s-.449,1-1,1-1-.448-1-1,.449-1,1-1Z"/>
  <path d="M36.001,39c1.654,0,3-1.346,3-3s-1.346-3-3-3-3,1.346-3,3,1.346,3,3,3ZM36.001,35c.551,0,1,.448,1,1s-.449,1-1,1-1-.448-1-1,.449-1,1-1Z"/>
</svg>