<?xml version="1.0" encoding="UTF-8"?>
<svg id="Outline" xmlns="http://www.w3.org/2000/svg" version="1.1" viewBox="0 0 48 48">
  <!-- Generator: Adobe Illustrator 29.5.1, SVG Export Plug-In . SVG Version: 2.1.0 Build 141)  -->
  <path d="M40,23h-1.97c-.26-1.61-.71-3.2-1.36-4.71l-.24-.57c-.87-2.05-2.58-3.62-4.7-4.32-1.21-.4-2.48-.47-3.7-.27.14-1.74,1.06-3.32,2.52-4.3.3-.2.47-.54.45-.89-.02-.36-.23-.67-.55-.83l-4-2c-.31-.16-.67-.14-.96.03l-.37.22c-1.03.62-1.91,1.41-2.66,2.32-.16-.22-.31-.45-.5-.64-2.69-2.69-7.76-1.73-7.97-1.69-.4.08-.71.39-.79.79-.04.21-.98,5.21,1.64,7.9-1.45.84-2.6,2.12-3.27,3.68l-.24.57c-.65,1.51-1.1,3.1-1.36,4.71h-1.97c-1.65,0-3,1.35-3,3v4c0,1.65,1.35,3,3,3h2.81c1.1,3.22,2.98,6.12,5.49,8.41,1.12,1.02,2.58,1.59,4.1,1.59,1.31,0,2.56-.41,3.6-1.18,1.07.79,2.33,1.18,3.6,1.18,1.46,0,2.93-.53,4.09-1.59,2.52-2.29,4.4-5.19,5.5-8.41h2.81c1.65,0,3-1.35,3-3v-4c0-1.65-1.35-3-3-3ZM26.04,7.14l2.15,1.07c-1.39,1.43-2.19,3.36-2.19,5.4v.14c-.73.33-1.41.76-2,1.31-.59-.55-1.25-.98-1.96-1.31.21-2.69,1.69-5.18,4-6.61ZM15.07,7.22c1.28-.14,4.02-.22,5.47,1.24.28.28.5.64.7,1.04-.6,1.12-1,2.35-1.16,3.63-1-.18-2.05-.16-3.07.08-.27-.15-.5-.32-.7-.52-1.46-1.45-1.38-4.19-1.24-5.47ZM13.17,19.07l.24-.57c.65-1.51,1.92-2.68,3.49-3.2,2.09-.7,4.36-.16,5.92,1.4l.47.47c.39.39,1.03.39,1.42,0l.47-.47c1.51-1.52,3.82-2.09,5.93-1.4,1.56.52,2.83,1.69,3.48,3.2l.24.57c.54,1.27.93,2.59,1.18,3.93H11.99c.25-1.34.64-2.66,1.18-3.93ZM30.34,39.93c-1.61,1.48-4.08,1.42-5.63-.13-.19-.18-.44-.29-.71-.29s-.52.11-.71.29c-.77.77-1.8,1.2-2.89,1.2-1.02,0-1.99-.38-2.75-1.07-2.09-1.91-3.7-4.29-4.72-6.93h22.14c-1.02,2.64-2.63,5.02-4.73,6.93ZM36.03,31h-5.03v-1c0-.55-.45-1-1-1s-1,.45-1,1v1h-2v-1c0-.55-.45-1-1-1s-1,.45-1,1v1h-2v-1c0-.55-.45-1-1-1s-1,.45-1,1v1h-2v-1c0-.55-.45-1-1-1s-1,.45-1,1v1h-2v-1c0-.55-.45-1-1-1s-1,.45-1,1v1h-2v-1c0-.55-.45-1-1-1s-1,.45-1,1v1h-1c-.55,0-1-.45-1-1v-4c0-.55.45-1,1-1h28.03c-.64.84-1.03,1.87-1.03,3s.39,2.16,1.03,3ZM41,30c0,.55-.45,1-1,1-1.65,0-3-1.35-3-3s1.35-3,3-3c.55,0,1,.45,1,1v4Z"/>
</svg>