<?xml version="1.0" encoding="UTF-8"?>
<svg id="Outline" xmlns="http://www.w3.org/2000/svg" version="1.1" viewBox="0 0 64 64">
  <!-- Generator: Adobe Illustrator 29.5.1, SVG Export Plug-In . SVG Version: 2.1.0 Build 141)  -->
  <path d="M24,31.016c-.543,0-.982.44-.982.982v6c0,.561-.457,1.018-1.018,1.018s-1.018-.457-1.018-1.018v-6c0-.542-.439-.982-.982-.982s-.982.44-.982.982v6c0,1.645,1.338,2.982,2.982,2.982s2.982-1.338,2.982-2.982v-6c0-.542-.439-.982-.982-.982Z"/>
  <path d="M29.018,36.231v3.768c0,.542.439.982.982.982s.982-.44.982-.982v-3.768l1.896-3.793c.242-.485.046-1.076-.439-1.318-.484-.241-1.076-.045-1.318.439l-1.121,2.242-1.121-2.242c-.242-.485-.835-.682-1.318-.439-.485.243-.682.833-.439,1.318l1.896,3.793Z"/>
  <path d="M14,44.981c.561,0,1.018.457,1.018,1.018,0,.542.439.982.982.982s.982-.44.982-.982c0-1.645-1.338-2.982-2.982-2.982s-2.982,1.338-2.982,2.982v4c0,1.645,1.338,2.982,2.982,2.982s2.982-1.338,2.982-2.982v-1c0-.542-.439-.982-.982-.982h-1c-.543,0-.982.44-.982.982s.439.982.982.982l.018.018c0,.561-.457,1.018-1.018,1.018s-1.018-.457-1.018-1.018v-4c0-.561.457-1.018,1.018-1.018Z"/>
  <path d="M24,44.981c.543,0,.982-.44.982-.982s-.439-.982-.982-.982h-4c-.543,0-.982.44-.982.982v8c0,.542.439.982.982.982h4c.543,0,.982-.44.982-.982s-.439-.982-.982-.982h-3.018v-2.035h3.018c.543,0,.982-.44.982-.982s-.439-.982-.982-.982h-3.018v-2.035h3.018Z"/>
  <path d="M32,43.016h-4c-.543,0-.982.44-.982.982s.439.982.982.982h1.018v7.018c0,.542.439.982.982.982s.982-.44.982-.982v-7.018h1.018c.543,0,.982-.44.982-.982s-.439-.982-.982-.982Z"/>
  <path d="M44,47.016h-1.018v-15.018c0-.542-.439-.982-.982-.982h-6c-.543,0-.982.44-.982.982v4c0,.542.439.982.982.982h1.018v10.035h-1.018c-.543,0-.982.44-.982.982v4c0,.542.439.982.982.982h8c.543,0,.982-.44.982-.982v-4c0-.542-.439-.982-.982-.982ZM43.018,51.016h-6.035v-2.035h1.018c.543,0,.982-.44.982-.982v-12c0-.542-.439-.982-.982-.982h-1.018v-2.035h4.035v15.018c0,.542.439.982.982.982h1.018v2.035Z"/>
  <path d="M55.84,15.529l-.57-1.32c-.19-.44-.65-.68-1.12-.59-.47.1-.8.51-.8.98,0,.99-.49,1.87-1.28,2.4-.21-3.83-2.39-7.32-5.83-9.17l-1.32-.71c-.37-.2-.84-.14-1.15.15-.31.29-.41.75-.23,1.14l.94,2.12c.66,1.48.58,3.22-.21,4.64-.56,1.02-.87,2.14-.9,3.28-.79-1.31-1.22-2.83-1.22-4.4,0-.43-.28-.82-.69-.95-.42-.13-.87.01-1.12.37l-.98,1.37c-1.28,1.79-1.96,3.91-1.96,6.11,0,2.27.72,4.36,1.95,6.05H10c-1.65,0-3,1.35-3,3v24c0,1.65,1.35,3,3,3h36c1.65,0,3-1.35,3-3v-23.17c1.75-.33,3.4-1.13,4.74-2.33,2.07-1.86,3.26-4.52,3.26-7.3,0-1.96-.39-3.87-1.16-5.67ZM47,53.999c0,.55-.45,1-1,1H10c-.55,0-1-.45-1-1v-24c0-.55.45-1,1-1h31.31c1.36,1.05,3,1.75,4.8,1.94.3.03.59.04.89.05v23.01ZM52.41,27.009c-1.67,1.5-3.84,2.19-6.09,1.94-3.88-.42-6.92-3.93-6.92-8,0-1.48.38-2.92,1.1-4.19.54,2.05,1.7,3.9,3.34,5.31l.51.44c.33.29.82.32,1.19.08s.54-.69.42-1.11l-.39-1.38c-.38-1.34-.22-2.75.45-3.96.97-1.74,1.16-3.83.56-5.71,2.4,1.87,3.73,4.84,3.47,7.94-.02.3.12.6.34.81.23.21.56.3.87.25,1.32-.22,2.43-.95,3.17-1.96.38,1.2.57,2.45.57,3.73,0,2.21-.95,4.33-2.59,5.81Z"/>
  <path d="M16.98,33.999c0-1.64-1.34-2.98-2.98-2.98h-2c-.54,0-.98.44-.98.98v8c0,.54.44.98.98.98h2c1.64,0,2.98-1.34,2.98-2.98,0-.77-.3-1.47-.78-2,.48-.53.78-1.23.78-2ZM14,39.019h-1.02v-2.04h1.02c.56,0,1.02.46,1.02,1.02s-.46,1.02-1.02,1.02ZM14,35.019h-1.02v-2.04h1.02c.56,0,1.02.46,1.02,1.02s-.46,1.02-1.02,1.02Z"/>
</svg>