<?xml version="1.0" encoding="UTF-8"?>
<svg id="Outline" xmlns="http://www.w3.org/2000/svg" version="1.1" viewBox="0 0 64 64">
  <!-- Generator: Adobe Illustrator 29.5.1, SVG Export Plug-In . SVG Version: 2.1.0 Build 141)  -->
  <path d="M26,34.982c1.645,0,2.982-1.338,2.982-2.982v-6c0-.543-.44-.982-.982-.982s-.982.439-.982.982v6c0,.561-.457,1.018-1.018,1.018s-1.018-.457-1.018-1.018v-6c0-.543-.44-.982-.982-.982s-.982.439-.982.982v6c0,1.645,1.338,2.982,2.982,2.982Z"/>
  <path d="M33.018,30.232v3.768c0,.543.44.982.982.982s.982-.439.982-.982v-3.768l1.896-3.793c.243-.485.046-1.075-.439-1.318-.486-.241-1.076-.045-1.318.439l-1.121,2.242-1.121-2.242c-.244-.485-.832-.683-1.318-.439-.485.243-.682.833-.439,1.318l1.896,3.793Z"/>
  <path d="M18,46.982c1.645,0,2.982-1.338,2.982-2.982v-1c0-.543-.44-.982-.982-.982h-1c-.542,0-.982.439-.982.982s.44.982.982.982l.018.018c0,.561-.457,1.018-1.018,1.018s-1.018-.457-1.018-1.018v-4c0-.561.457-1.018,1.018-1.018s1.018.457,1.018,1.018c0,.543.44.982.982.982s.982-.439.982-.982c0-1.645-1.338-2.982-2.982-2.982s-2.982,1.338-2.982,2.982v4c0,1.645,1.338,2.982,2.982,2.982Z"/>
  <path d="M24,46.982h4c.542,0,.982-.439.982-.982s-.44-.982-.982-.982h-3.018v-2.035h3.018c.542,0,.982-.439.982-.982s-.44-.982-.982-.982h-3.018v-2.035h3.018c.542,0,.982-.439.982-.982s-.44-.982-.982-.982h-4c-.542,0-.982.439-.982.982v8c0,.543.44.982.982.982Z"/>
  <path d="M32,38.982h1.018v7.018c0,.543.44.982.982.982s.982-.439.982-.982v-7.018h1.018c.542,0,.982-.439.982-.982s-.44-.982-.982-.982h-4c-.542,0-.982.439-.982.982s.44.982.982.982Z"/>
  <path d="M40,46.982h8c.542,0,.982-.439.982-.982v-4c0-.543-.44-.982-.982-.982h-1.018v-15.018c0-.543-.44-.982-.982-.982h-6c-.542,0-.982.439-.982.982v4c0,.543.44.982.982.982h1.018v10.035h-1.018c-.542,0-.982.439-.982.982v4c0,.543.44.982.982.982ZM40.982,42.982h1.018c.542,0,.982-.439.982-.982v-12c0-.543-.44-.982-.982-.982h-1.018v-2.035h4.035v15.018c0,.543.44.982.982.982h1.018v2.035h-6.035v-2.035Z"/>
  <path d="M50,11.02h-3.02v-3.02c0-.54-.44-.98-.98-.98h-4c-.54,0-.98.44-.98.98v3.02h-18.04v-3.02c0-.54-.44-.98-.98-.98h-4c-.54,0-.98.44-.98.98v3.02h-3.02c-1.64,0-2.98,1.34-2.98,2.98v40c0,1.64,1.34,2.98,2.98,2.98h36c1.64,0,2.98-1.34,2.98-2.98V14c0-1.64-1.34-2.98-2.98-2.98ZM42.98,8.98h2.04v6.04h-2.04v-6.04ZM18.98,8.98h2.04v6.04h-2.04v-6.04ZM51.02,54c0,.56-.46,1.02-1.02,1.02H14c-.56,0-1.02-.46-1.02-1.02v-1.02h38.04v1.02ZM51.02,51.02H12.98v-30.04h38.04v30.04ZM51.02,19.02H12.98v-5.02c0-.56.46-1.02,1.02-1.02h3.02v3.02c0,.54.44.98.98.98h4c.54,0,.98-.44.98-.98v-3.02h18.04v3.02c0,.54.44.98.98.98h4c.54,0,.98-.44.98-.98v-3.02h3.02c.56,0,1.02.46,1.02,1.02v5.02Z"/>
  <path d="M20.98,28c0-1.64-1.34-2.98-2.98-2.98h-2c-.54,0-.98.44-.98.98v8c0,.54.44.98.98.98h2c1.64,0,2.98-1.34,2.98-2.98,0-.77-.3-1.47-.78-2,.48-.53.78-1.23.78-2ZM18,33.02h-1.02v-2.04h1.02c.56,0,1.02.46,1.02,1.02s-.46,1.02-1.02,1.02ZM18,29.02h-1.02v-2.04h1.02c.56,0,1.02.46,1.02,1.02s-.46,1.02-1.02,1.02Z"/>
</svg>