<?xml version="1.0" encoding="UTF-8"?>
<svg id="Outline" xmlns="http://www.w3.org/2000/svg" version="1.1" viewBox="0 0 64 64">
  <!-- Generator: Adobe Illustrator 29.5.1, SVG Export Plug-In . SVG Version: 2.1.0 Build 141)  -->
  <path d="M47.939,31.658c-2.505-6.89-2.697-14.543-.541-21.552l.558-1.812c.093-.303.037-.633-.151-.888-.188-.256-.487-.406-.805-.406h-30c-.439,0-.827.286-.956.706l-.558,1.812c-2.283,7.422-2.079,15.527.574,22.823,2.505,6.89,2.697,14.543.541,21.552,0,0-.558,1.812-.558,1.813-.25.811.678,1.571,1.427,1.177l14.529-7.749,14.529,7.749c.263.14.575.154.852.042.276-.114.487-.346.575-.631l.558-1.812c2.283-7.422,2.079-15.527-.574-22.823ZM46.602,53.894l-.201.653-13.93-7.43c-.147-.078-.309-.117-.471-.117s-.323.039-.471.117l-12.865,6.862c2.122-7.284,1.869-15.189-.725-22.321-2.505-6.89-2.697-14.543-.541-21.552l.34-1.106h27.908l-.16.519c-2.283,7.422-2.079,15.527.574,22.823,2.505,6.89,2.697,14.543.541,21.552Z"/>
  <path d="M31,23.365c-2.65-2.002-6.45-1.798-8.862.616-2.639,2.639-2.639,6.932,0,9.57l8.155,8.155c.195.195.451.293.707.293s.512-.098.707-.293l8.155-8.155c2.639-2.639,2.639-6.932,0-9.57-2.415-2.414-6.213-2.618-8.862-.616ZM38.448,32.138l-7.448,7.448-7.448-7.448c-1.858-1.858-1.858-4.884,0-6.742.929-.929,2.149-1.394,3.37-1.394s2.441.465,3.371,1.394c.391.391,1.023.391,1.414,0,1.859-1.857,4.884-1.857,6.741,0s1.858,4.884,0,6.742Z"/>
</svg>