<?xml version="1.0" encoding="UTF-8"?>
<svg id="Outline" xmlns="http://www.w3.org/2000/svg" version="1.1" viewBox="0 0 64 64">
  <!-- Generator: Adobe Illustrator 29.5.1, SVG Export Plug-In . SVG Version: 2.1.0 Build 141)  -->
  <path d="M57,56c0,.55-.45,1-1,1h-12c-.55,0-1-.45-1-1s.45-1,1-1h7.38l-1.07-2.14-10.7-2.68c-2.56-.64-5.23.31-6.81,2.42-.19.25-.49.4-.8.4-.32,0-.61-.15-.8-.4-1.6-2.14-4.24-3.09-6.76-2.5l-11.62,2.73-.54,2.17h23.72c.55,0,1,.45,1,1s-.45,1-1,1H8c-.55,0-1-.45-1-1s.45-1,1-1h2.22l.81-3.24c.09-.37.38-.65.74-.73l12.21-2.88c2.92-.68,5.96.22,8.03,2.32,2.09-2.09,5.15-2.96,8.08-2.23l11.15,2.79c.29.07.52.26.65.52l1.73,3.45h2.38c.55,0,1,.45,1,1Z"/>
  <path d="M31,42v2c0,.552.448,1,1,1s1-.448,1-1v-2c0-.552-.448-1-1-1s-1,.448-1,1Z"/>
  <path d="M25.636,43.636c-.391.391-.391,1.023,0,1.414l1.414,1.414c.195.195.451.293.707.293.871,0,1.321-1.094.707-1.707l-1.414-1.414c-.391-.391-1.023-.391-1.414,0Z"/>
  <path d="M36.95,43.636l-1.414,1.414c-.391.391-.391,1.023,0,1.414.373.373,1.02.394,1.414,0l1.414-1.414c.391-.391.391-1.023,0-1.414s-1.023-.391-1.414,0Z"/>
  <path d="M32,39c8.822,0,16-7.178,16-16s-7.178-16-16-16-16,7.178-16,16,7.178,16,16,16ZM21.218,31.919c1.279-.574,2.839-1.028,4.563-1.354.539,2.406,1.336,4.417,2.319,5.871-2.727-.793-5.115-2.385-6.882-4.517ZM27,23c0-1.916.147-3.69.395-5.296,1.48.187,3.025.296,4.605.296s3.125-.109,4.605-.296c.248,1.606.395,3.38.395,5.296s-.147,3.69-.395,5.296c-1.48-.187-3.025-.296-4.605-.296s-3.125.109-4.605.296c-.248-1.606-.395-3.38-.395-5.296ZM32,9c1.58,0,3.276,2.575,4.231,6.74-1.356.164-2.774.26-4.231.26s-2.876-.096-4.231-.26c.955-4.164,2.651-6.74,4.231-6.74ZM32,30c1.457,0,2.876.096,4.231.26-.955,4.164-2.651,6.74-4.231,6.74s-3.276-2.575-4.231-6.74c1.356-.164,2.774-.26,4.231-.26ZM35.9,36.436c.984-1.454,1.78-3.465,2.319-5.871,1.724.326,3.284.78,4.563,1.354-1.767,2.132-4.156,3.724-6.882,4.517ZM43.944,30.266c-1.489-.712-3.321-1.273-5.362-1.66.267-1.732.418-3.61.418-5.606s-.151-3.874-.418-5.606c2.041-.387,3.873-.949,5.362-1.66,1.296,2.121,2.056,4.604,2.056,7.266s-.761,5.145-2.056,7.266ZM42.782,14.081c-1.279.574-2.839,1.028-4.563,1.354-.539-2.406-1.336-4.417-2.319-5.871,2.727.793,5.115,2.385,6.882,4.517ZM28.1,9.564c-.984,1.454-1.78,3.465-2.319,5.871-1.724-.326-3.284-.78-4.563-1.354,1.767-2.132,4.156-3.724,6.882-4.517ZM20.056,15.734c1.489.712,3.321,1.273,5.362,1.66-.267,1.732-.418,3.61-.418,5.606s.151,3.874.418,5.606c-2.041.387-3.873.949-5.362,1.66-1.296-2.121-2.056-4.604-2.056-7.266s.761-5.145,2.056-7.266Z"/>
  <circle cx="40" cy="56" r="1"/>
</svg>