<?xml version="1.0" encoding="UTF-8"?>
<svg id="Outline" xmlns="http://www.w3.org/2000/svg" version="1.1" viewBox="0 0 64 64">
  <!-- Generator: Adobe Illustrator 29.5.1, SVG Export Plug-In . SVG Version: 2.1.0 Build 141)  -->
  <path d="M45,35c.55,0,1-.45,1-1v-10c0-.25-.09-.49-.26-.67l-8-8.89c.76-.55,1.26-1.43,1.26-2.44v-2c0-1.65-1.35-3-3-3h-8c-1.65,0-3,1.35-3,3v2c0,1.01.5,1.89,1.26,2.44l-8,8.89c-.17.18-.26.42-.26.67v30c0,1.65,1.35,3,3,3h22c1.65,0,3-1.35,3-3v-12c0-.55-.45-1-1-1s-1,.45-1,1v3.9c-3.05,2.6-7.39,4.1-12,4.1s-8.95-1.5-12-4.1v-15.8c3.05-2.6,7.39-4.1,12-4.1s8.95,1.5,12,4.1v3.9c0,.55.45,1,1,1ZM32,52c4.47,0,8.72-1.29,12-3.58v5.58c0,.55-.45,1-1,1h-22c-.55,0-1-.45-1-1v-5.58c3.28,2.29,7.53,3.58,12,3.58ZM27,10c0-.55.45-1,1-1h8c.55,0,1,.45,1,1v2c0,.55-.45,1-1,1h-8c-.55,0-1-.45-1-1v-2ZM32,24c-4.47,0-8.72,1.29-12,3.58v-3.2l8.45-9.38h7.1l8.45,9.38v3.2c-3.28-2.29-7.53-3.58-12-3.58Z"/>
  <path d="M40.851,40.66c.473,0,.893-.336.982-.817.112-.605.167-1.208.167-1.843,0-5.514-4.486-10-10-10-1.17,0-2.318.202-3.409.6-.963.347-1.853.857-2.662,1.48v-.565c0-.553-.448-1-1-1s-1,.447-1,1v2.828c0,.553.448,1,1,1h2.829c.552,0,1-.447,1-1s-.448-1-1-1h-.166c.526-.35,1.085-.648,1.682-.863.874-.318,1.792-.479,2.728-.479,4.411,0,8,3.589,8,8,0,.511-.043.994-.133,1.478-.101.543.258,1.065.801,1.166.062.012.123.017.183.017Z"/>
  <path d="M39.071,47.485c.552,0,1-.447,1-1v-2.828c0-.553-.448-1-1-1h-2.829c-.552,0-1,.447-1,1s.448,1,1,1h.166c-.526.35-1.085.648-1.682.863-.874.318-1.792.479-2.728.479-4.411,0-8-3.589-8-8,0-.511.043-.994.133-1.478.101-.543-.258-1.065-.801-1.166-.544-.105-1.065.258-1.166.801-.112.605-.167,1.208-.167,1.843,0,5.514,4.486,10,10,10,1.17,0,2.318-.202,3.409-.6.963-.347,1.853-.857,2.662-1.48v.565c0,.553.448,1,1,1Z"/>
  <circle cx="45" cy="38" r="1"/>
</svg>