<?xml version="1.0" encoding="UTF-8"?>
<svg id="Outline" xmlns="http://www.w3.org/2000/svg" version="1.1" viewBox="0 0 64 64">
  <!-- Generator: Adobe Illustrator 29.5.1, SVG Export Plug-In . SVG Version: 2.1.0 Build 141)  -->
  <path d="M46,26c0-1.91-.76-4.13-2.26-6.58-.28-.47-.9-.62-1.37-.33-.47.28-.62.9-.33,1.37,1.3,2.13,1.96,4,1.96,5.54,0,5.51-3.58,9.6-9,10.7v-2.17c.81-.33,1.51-.89,1.99-1.79,1.94-2,3.01-4.62,3.01-7.42v-5.32c0-.55-.45-1-1-1h-.5c-1.5,0-3.01.31-4.41.87-.63-.54-1.33-.87-2.09-.87s-1.46.33-2.09.87c-1.4-.56-2.91-.87-4.41-.87h-.5c-.55,0-1,.45-1,1v5.32c0,2.8,1.07,5.42,3.01,7.42.48.9,1.18,1.46,1.99,1.79v2.17c-5.42-1.1-9-5.19-9-10.7,0-5.95,9.44-14.49,12-16.69,1.41,1.21,4.91,4.35,7.77,7.93.34.44.97.51,1.4.16.44-.34.51-.97.16-1.4-3.79-4.75-8.5-8.61-8.7-8.77-.37-.3-.89-.31-1.26-.01-.55.45-13.37,10.98-13.37,18.78v5.1c0,6.14,2.21,11.93,6.24,16.48-.12.09-.24.18-.35.29-.57.56-.89,1.32-.89,2.13,0,1.22.74,2.27,1.78,2.74l-.75,3.02c-.13.53.19,1.08.73,1.21.08.02.16.03.24.03.45,0,.86-.3.97-.76l.81-3.24h3.22c.55,0,1-.45,1-1s-.45-1-1-1h-4c-.55,0-1-.45-1-1,0-.27.1-.51.31-.71.18-.19.42-.29.69-.29h12c.55,0,1,.45,1,1,0,.27-.1.51-.31.71-.18.19-.42.29-.69.29h-4c-.55,0-1,.45-1,1s.45,1,1,1h3.22l.81,3.24c.11.46.52.76.97.76.08,0,.16-.01.24-.03.54-.13.86-.68.73-1.21l-.75-3.02c.33-.15.63-.35.89-.61.57-.56.89-1.32.89-2.13,0-1-.49-1.87-1.24-2.42,4.03-4.55,6.24-10.34,6.24-16.48v-5.1ZM38,21.01v4.31c0,.93-.15,1.83-.43,2.68-.24-2.22-1-4.71-2.12-6.51.83-.26,1.69-.43,2.55-.48ZM26.43,28c-.28-.85-.43-1.75-.43-2.68v-4.31c.86.05,1.72.22,2.55.48-1.12,1.8-1.88,4.29-2.12,6.51ZM28.33,29.55c0-3.76,2.06-8.55,3.67-8.55s3.67,4.79,3.67,8.55c0,2.93-1.19,3.45-3.67,3.45s-3.67-.52-3.67-3.45ZM33,34.96v2c-.33.02-.66.04-1,.04s-.67-.02-1-.04v-2c.33.03.67.04,1,.04s.67-.01,1-.04ZM37.56,47h-11.12c-3.68-3.8-5.89-8.66-6.34-13.88,2.4,3.61,6.69,5.88,11.9,5.88s9.5-2.27,11.9-5.88c-.45,5.22-2.66,10.08-6.34,13.88Z"/>
</svg>