<?xml version="1.0" encoding="UTF-8"?>
<svg id="Outline" xmlns="http://www.w3.org/2000/svg" version="1.1" viewBox="0 0 64 64">
  <!-- Generator: Adobe Illustrator 29.5.1, SVG Export Plug-In . SVG Version: 2.1.0 Build 141)  -->
  <path d="M55,25.4c-.58-2.64.05-5.36,1.73-7.47.45-.55.56-1.28.31-1.95-.24-.66-.81-1.14-1.51-1.26-6.27-1.14-12.81-.78-18.92,1.05l-.14.04c-.81-1.66-2.5-2.81-4.47-2.81s-3.66,1.15-4.47,2.81l-.14-.04c-6.11-1.83-12.65-2.2-18.92-1.05-.7.12-1.27.6-1.51,1.26-.25.67-.14,1.4.31,1.95,1.68,2.11,2.31,4.83,1.73,7.47l-.83,3.69c-.69.85-1.03,1.96-.87,3.08.2,1.4,1.1,2.57,2.41,3.11.5.2,1.02.31,1.53.31.84,0,1.67-.28,2.38-.8,2.56-1.92,5.39-3.41,8.42-4.41l5.78-1.93c-.68,2.01-2.03,3.71-3.87,4.81l-1.63.98c-3.28,1.97-5.32,5.57-5.32,9.4v2.36c0,.38.22.73.57.9.34.17.75.12,1.05-.12l3.55-2.84c.5,2.71,2,5.19,4.23,6.86.18.13.389.2.599.2.55,0,1.001-.453,1.001-1v-5.09c0-2.29.81-4.51,2.27-6.27.71-.86,1.29-1.81,1.73-2.82.44,1.01,1.02,1.96,1.73,2.82,1.46,1.76,2.27,3.98,2.27,6.27v5.09c0,.38.21.73.55.89.324.185.757.121,1.05-.09,2.23-1.67,3.73-4.15,4.23-6.86l3.55,2.84c.29.24.71.29,1.05.12.35-.17.57-.52.57-.9v-2.36c0-3.83-2.04-7.43-5.32-9.4l-1.63-.98c-1.82-1.09-3.16-2.75-3.85-4.73l5.77,1.87c3.04.99,5.88,2.45,8.45,4.35.7.51,1.52.78,2.35.78.53,0,1.06-.11,1.56-.32,1.31-.56,2.2-1.73,2.39-3.13.15-1.13-.21-2.25-.92-3.09l-.8-3.59ZM8.83,16.68c5.96-1.08,12.18-.73,17.99,1.01l.21.06c-.01.09-.03.16-.03.25v.82l-4.84-.81c-.54-.09-1.06.28-1.15.83-.09.54.28,1.06.83,1.15l3.08.51-3.08.51c-.55.09-.92.61-.83,1.15.08.49.51.84.99.84.05,0,.11,0,.16-.01l4.84-.81v1.82h-2.05c-4.99,0-9.92,1.2-14.36,3.46l.36-1.63c.72-3.23-.06-6.56-2.12-9.15ZM21.4,28.48c-3.23,1.08-6.25,2.66-8.98,4.71-.57.42-1.29.51-1.94.24-.65-.27-1.1-.85-1.2-1.54-.12-.81.28-1.62,1-2.01l.26-.15c4.4-2.44,9.38-3.73,14.41-3.73h2.47c.07.14.15.27.22.4l-6.24,2.08ZM31,31.09c0,2.29-.81,4.51-2.27,6.27-1.76,2.11-2.73,4.79-2.73,7.55v2.74c-1.28-1.58-2-3.58-2-5.65,0-.38-.22-.73-.57-.9-.35-.17-.75-.12-1.05.12l-3.38,2.7v-.28c0-3.13,1.67-6.07,4.35-7.68l1.63-.98c2.43-1.46,4.15-3.75,4.91-6.47.35.17.72.31,1.11.39v2.19ZM29,24v-6c0-1.65,1.35-3,3-3s3,1.35,3,3v6c0,1.65-1.35,3-3,3s-3-1.35-3-3ZM39.02,34.98l1.63.98c2.68,1.61,4.35,4.55,4.35,7.68v.28l-3.38-2.7c-.3-.24-.71-.29-1.05-.12-.35.17-.57.52-.57.9,0,2.07-.72,4.07-2,5.65v-2.74c0-2.76-.97-5.44-2.73-7.55-1.46-1.76-2.27-3.98-2.27-6.27v-2.19c.39-.08.76-.22,1.11-.39.76,2.72,2.48,5.01,4.91,6.47ZM37.18,17.69c5.81-1.74,12.03-2.09,17.99-1.01-2.06,2.59-2.84,5.92-2.12,9.15l.35,1.57c-4.46-2.22-9.44-3.38-14.39-3.35l-2.02.02c0-.03.01-.05.01-.07v-1.82l4.84.81c.05.01.11.01.16.01.48,0,.91-.35.99-.84.09-.54-.28-1.06-.83-1.15l-3.08-.51,3.08-.51c.55-.09.92-.61.83-1.15-.09-.55-.61-.92-1.15-.83l-4.84.81v-.82c0-.09-.02-.16-.03-.25l.21-.06ZM53.55,33.36c-.65.28-1.37.19-1.94-.22-2.75-2.03-5.78-3.59-9.03-4.64l-6.26-2.03c.08-.13.15-.26.22-.4l2.48-.02c5.03-.03,10.02,1.21,14.44,3.62l.27.14c.71.39,1.12,1.19,1.01,2-.1.7-.54,1.28-1.19,1.55Z"/>
</svg>