<?xml version="1.0" encoding="UTF-8"?>
<svg id="Outline" xmlns="http://www.w3.org/2000/svg" version="1.1" viewBox="0 0 64 64">
  <!-- Generator: Adobe Illustrator 29.3.1, SVG Export Plug-In . SVG Version: 2.1.0 Build 151)  -->
  <path d="M56.4151,25.76874c.37958-1.87939.5849-3.80853.5849-5.76874,0-5.19629-12.88086-8-25-8S7,14.80371,7,20c0,1.96021.20532,3.88934.5849,5.76874.00409.0141.00464.02881.0094.04272,1.51227,7.42987,5.8811,14.04053,12.33148,18.34088l2.07422,1.38281v3.46484c0,1.6543,1.3457,3,3,3h2c.55273,0,1-.44775,1-1s-.44727-1-1-1h-2c-.55176,0-1-.44873-1-1v-3h16v3c0,.55127-.44824,1-1,1h-8c-.55273,0-1,.44775-1,1s.44727,1,1,1h8c1.6543,0,3-1.3457,3-3v-3.46484l2.07422-1.38281c6.45038-4.30035,10.81921-10.91101,12.33148-18.34088.00476-.01392.00531-.02863.0094-.04272ZM52.97534,30.25287c-3.89343,2.28064-12.05457,3.74713-20.97534,3.74713s-17.08191-1.46649-20.97534-3.74713c-.28766-.70227-.55298-1.41394-.78101-2.14032,4.25037,2.38654,12.32458,3.88745,21.75635,3.88745s17.50604-1.50092,21.75635-3.88745c-.22803.72632-.49335,1.43805-.78101,2.14032ZM9.61267,23.71429c.10193.09973.22375.16907.35364.2168,4.50403,2.6629,13.45667,4.06891,22.03369,4.06891s17.52966-1.40601,22.03369-4.06891c.12988-.04773.25171-.117.35364-.21674.13306-.08527.26581-.17059.38977-.2583-.06799.53064-.14966,1.05823-.24835,1.58112-2.05872,2.43286-10.51514,4.96283-22.52875,4.96283-12.00488,0-20.46088-2.52643-22.52759-4.95752-.09912-.52466-.18127-1.05396-.24951-1.58649.12396.08771.25665.17303.38977.2583ZM32,14c14.25,0,23,3.49463,23,6,0,.57391-.4801,1.19971-1.35931,1.82355-3.9765-2.16101-11.38135-3.60437-19.61725-3.79327-.00879-.00049-.01562-.00049-.02344-.00049-.54199,0-.9873.43262-1,.97705-.0127.55225.4248,1.01025.97656,1.02246,7.16248.16455,13.60614,1.27667,17.5094,2.96735-3.8147,1.63672-10.57465,3.00336-19.48596,3.00336s-15.67126-1.36664-19.48596-3.00336c3.90326-1.69067,10.34692-2.8028,17.5094-2.96735.55176-.01221.98926-.47021.97656-1.02246-.0127-.54443-.45801-.97705-1-.97705-.00781,0-.01465,0-.02344.00049-8.2359.1889-15.64075,1.63226-19.61725,3.79327-.87921-.62384-1.35931-1.24963-1.35931-1.82355,0-2.50537,8.75-6,23-6ZM42.96484,42.48828l-2.26758,1.51172h-17.39453l-2.26758-1.51172c-3.64868-2.43262-6.57715-5.66272-8.63605-9.37097,4.60956,1.80688,11.7475,2.88269,19.60089,2.88269s14.99133-1.07581,19.60089-2.88269c-2.0589,3.70825-4.98737,6.93835-8.63605,9.37097Z"/>
</svg>