<?xml version="1.0" encoding="UTF-8"?>
<svg id="Outline" xmlns="http://www.w3.org/2000/svg" version="1.1" viewBox="0 0 64 64">
  <!-- Generator: Adobe Illustrator 29.3.1, SVG Export Plug-In . SVG Version: 2.1.0 Build 151)  -->
  <path d="M50,46.5h-8.21002c8.92999-3.82001,15.21002-12.69,15.21002-23,0-6.73004-10.97998-12-25-12S7,16.76996,7,23.5c0,10.31,6.28003,19.17999,15.21002,23h-8.21002c-1.65002,0-3,1.34998-3,3v2c0,.54999.45001,1,1,1h40c.54999,0,1-.45001,1-1v-2c0-1.65002-1.34998-3-3-3ZM9,23.5c0-5.42004,10.53003-10,23-10s23,4.57996,23,10c0,.67999-.16998,1.34998-.47998,2-2.04004-4.56-10.52002-10-22.52002-10s-20.47998,5.44-22.52002,10c-.31-.65002-.47998-1.32001-.47998-2ZM53,27.5c-1.82001,1.75-4.76001,3.25-8.40002,4.31-3.64996,1.07001-7.98999,1.69-12.59998,1.69-9.21997,0-17.37-2.5-21-6,0-2.90002,7.35999-10,21-10s21,7.09998,21,10ZM9.65997,28.96997c4.08002,3.91003,12.45001,6.53003,22.34003,6.53003s18.26001-2.62,22.34003-6.53003c-2.46002,10.04999-11.54004,17.53003-22.34003,17.53003s-19.88-7.48004-22.34003-17.53003ZM51,50.5H13v-1c0-.54999.45001-1,1-1h36c.54999,0,1,.45001,1,1v1Z"/>
</svg>