<?xml version="1.0" encoding="UTF-8"?>
<svg id="Outline" xmlns="http://www.w3.org/2000/svg" version="1.1" viewBox="0 0 64 64">
  <!-- Generator: Adobe Illustrator 29.5.1, SVG Export Plug-In . SVG Version: 2.1.0 Build 141)  -->
  <path d="M56.56,34.722l-3.81-2.65,3.81-2.65c.28-.19.44-.52.43-.86-.01-.34-.2-.65-.5-.82l-5.94-3.45,2.9-5.08.86.5c.733.426,1.703-.277,1.46-1.14l-2.99-10.91c-.14-.53-.69-.84-1.23-.7l-10.91,2.99c-.39.11-.68.44-.73.84-.05.4.15.8.5,1l.87.49-2.85,5.01-.95-.55c-.33-.2-.75-.18-1.07.04l-4.41,3.07-4.41-3.07c-.31-.22-.75-.24-1.08-.05l-.94.55-2.85-5,.87-.49c.35-.2.55-.6.5-1-.05-.4-.34-.73-.73-.84l-10.91-2.99c-.54-.14-1.09.17-1.23.7l-2.99,10.91c-.11.39.03.81.35,1.06.299.234.75.26,1.11.08l.86-.5,2.9,5.08-5.94,3.45c-.3.17-.49.48-.5.82-.01.34.15.67.43.86l3.81,2.65-3.81,2.65c-.28.19-.44.52-.43.86.01.34.2.65.5.82l4.5,2.61c0,.02-.01.04-.01.06v6c0,.36.19.69.5.87l19,11c.02.01.05.01.07.03.03.01.06.02.09.03.11.04.22.07.34.07s.23-.03.34-.07c.03-.01.06-.02.09-.03.02-.02.05-.02.07-.03l19-11c.31-.18.5-.51.5-.87v-6c0-.02-.01-.04-.01-.06l4.5-2.61c.3-.17.49-.48.5-.82.01-.34-.15-.67-.43-.86ZM54.13,28.682l-3.18,2.21-3.15-1.83c.07-.1.14-.19.2-.29l1.56-2.74,4.57,2.65ZM51.12,9.152c.697,2.54,1.393,5.08,2.09,7.62-3.237-1.844-6.473-3.687-9.71-5.53l7.62-2.09ZM37.58,22.832l2.08-3.67,3.36-5.89,8.69,4.95-3.38,5.93q0,.01-.01.01v.01l-2.05,3.61c-.28.48-.89.65-1.37.37l-6.95-3.96c-.48-.27-.65-.88-.37-1.36ZM43.04,29.402l-1.48,2.6c-.13.24-.35.4-.61.47-.25.07-.52.04-.76-.09l-3.47-1.98c-.48-.28-.65-.89-.38-1.37l1.49-2.6,1.31.74,3.9,2.23ZM37.03,18.792l.41.24-1.6,2.81c-.05.08-.07.16-.11.24l-1.87-1.09,3.17-2.2ZM26.96,18.782l3.18,2.21-1.87,1.09c-.04-.08-.06-.16-.11-.24l-1.6-2.82.4-.24ZM27.28,30.402l-3.47,1.98c-.16.08-.32.13-.49.13-.09,0-.18-.02-.27-.04-.26-.07-.48-.23-.61-.47l-1.48-2.6,3.9-2.23,1.31-.74,1.49,2.6c.27.48.1,1.09-.38,1.37ZM12.88,9.152l7.62,2.09-9.71,5.53,2.09-7.62ZM12.29,18.222l8.69-4.95,3.34,5.86v.02l.02.02,2.08,3.66c.28.48.11,1.09-.37,1.36l-6.95,3.96c-.48.28-1.09.11-1.36-.37l-2.06-3.61v-.01q-.01,0-.01-.01l-3.38-5.93ZM9.87,28.682l4.57-2.65,1.56,2.74c.06.1.13.19.2.29l-3.15,1.83-3.18-2.21ZM9.87,35.462l3.18-2.21,17.09,9.9-3.17,2.21-17.1-9.9ZM31,54.342l-17-9.85v-4.33l12.52,7.24c.15.09.33.14.5.14.2,0,.4-.06.57-.18l3.41-2.37v9.35ZM32,41.912l-17-9.84,3.18-1.84c.14.02.29.06.43.06.17,0,.34-.04.51-.07l1.58,2.77c.4.7,1.05,1.2,1.82,1.41.26.07.53.11.8.11.51,0,1.02-.13,1.48-.4l.99-.56,1.38,2.07c.19.29.51.45.83.45.784,0,1.263-.899.83-1.55l-1.3-1.96.74-.42c1.44-.82,1.94-2.66,1.12-4.1l-1.57-2.76c.24-.29.42-.61.55-.95l3.63-2.1,3.63,2.1c.13.34.31.66.55.95l-1.57,2.76c-.82,1.44-.32,3.28,1.12,4.1l.74.42-1.3,1.96c-.31.46-.18,1.08.28,1.38.449.317,1.08.17,1.38-.28l1.38-2.07.99.56c.46.27.97.4,1.48.4.27,0,.54-.04.8-.11.77-.21,1.42-.71,1.82-1.41l1.58-2.77c.17.03.34.07.51.07.14,0,.29-.04.43-.06l3.18,1.84-17,9.84ZM50,44.492l-17,9.85v-9.35l3.41,2.37c.14.1.3.16.47.17.04.01.07.01.11.01.13,0,.26-.03.37-.07.04-.02.09-.04.13-.07l12.51-7.24v4.33ZM37.03,45.362l-3.17-2.21,17.09-9.9,3.18,2.21-17.1,9.9Z"/>
</svg>