<?xml version="1.0" encoding="UTF-8"?>
<svg id="Outline" xmlns="http://www.w3.org/2000/svg" version="1.1" viewBox="0 0 64 64">
  <!-- Generator: Adobe Illustrator 29.5.1, SVG Export Plug-In . SVG Version: 2.1.0 Build 141)  -->
  <path d="M56,35c.55,0,1-.45,1-1v-8c0-.11-.03-.21-.06-.31l.01-.01-6-18c-.14-.4-.52-.68-.95-.68H14c-.43,0-.81.28-.95.68l-6,18,.01.01c-.03.1-.06.2-.06.31v30c0,.55.45,1,1,1h48c.55,0,1-.45,1-1v-14c0-.55-.45-1-1-1s-1,.45-1,1v13H9v-28h46v7c0,.55.45,1,1,1ZM31,25H9.39l5.33-16h16.28v16ZM33,25V9h16.28l5.33,16h-21.61Z"/>
  <path d="M11,52c0,.552.448,1,1,1h14c.552,0,1-.448,1-1v-6c0-.552-.448-1-1-1h-14c-.552,0-1,.448-1,1v6ZM13,47h12v4h-12v-4Z"/>
  <path d="M12,43h8c.552,0,1-.448,1-1s-.448-1-1-1h-8c-.552,0-1,.448-1,1s.448,1,1,1Z"/>
  <path d="M12,39h4c.552,0,1-.448,1-1s-.448-1-1-1h-4c-.552,0-1,.448-1,1s.448,1,1,1Z"/>
  <circle cx="56" cy="38" r="1"/>
</svg>