<?xml version="1.0" encoding="UTF-8"?>
<svg id="Outline" xmlns="http://www.w3.org/2000/svg" version="1.1" viewBox="0 0 64 64">
  <!-- Generator: Adobe Illustrator 29.0.0, SVG Export Plug-In . SVG Version: 2.1.0 Build 186)  -->
  <path d="M56,48.91998h-13.42999c-.03998-.04999-.07001-.09998-.10999-.15002l-7.19-8.23999c-.95001-1.09998-2.55005-1.34998-3.80005-.60999l-3.15997,1.89001c-.76001.45001-1.64001.56-2.48999.32001-.57001-.17004-1.06-.48004-1.45001-.91003l5.95001-4.21997h12.44c.52997,0,1.03998.20996,1.40997.57996l2.25,2.23004c.75.75,1.75,1.16998,2.82001,1.16998h6.76001c.54999,0,1-.45001,1-1,0-.56-.45001-1-1-1h-6.76001c-.52997,0-1.02997-.21002-1.40997-.58997l-2.25-2.23004c-.75-.75-1.76001-1.15997-2.82001-1.15997h-3.37c4.73999-4.62,9.60999-10.79999,9.60999-16.75,0-6.20001-4.65002-11.25-10.37-11.25-2.45001,0-4.77002.90997-6.63,2.58997-1.85999-1.67999-4.17999-2.58997-6.63-2.58997-5.71997,0-10.37,5.04999-10.37,11.25,0,5.95001,4.87,12.13,9.60999,16.75h-3.60999c-.85999,0-1.71002.27997-2.40002.78998l-2.39996,1.78998c-.34003.26001-.77002.40002-1.20001.40002h-7c-.54999,0-1,.45001-1,1,0,.56.45001,1,1,1h7c.85999,0,1.71002-.27997,2.40002-.78998l2.39996-1.79004c.35004-.25995.76001-.39996,1.20001-.39996h5.85999l-4.44,3.14996c-.39996.29004-.53998.83002-.31,1.27002.64001,1.27002,1.79004,2.22998,3.15002,2.63,1.35999.39001,2.84998.20001,4.07001-.52002l3.15997-1.88995c.41998-.25.96002-.16003,1.28003.19995l7.19,8.25c.38.44.35999,1.08002-.07001,1.5-.48999.48999-1.29004.48999-1.78003.01001l-6.39996-6.37c-.40002-.39001-1.03003-.39001-1.42004.01001-.38995.39001-.38995,1.02002,0,1.40997l4.58002,4.55005h.01001c.35999.44995.32001,1.07996-.09003,1.48999-.26996.26996-.57996.32001-.78998.32001s-.52002-.05005-.79999-.33002l-6.48999-6.45001c-.40002-.39001-1.03003-.39001-1.42004,0-.38995.39001-.38995,1.02002,0,1.41003l4.58002,4.54999q0,.01001.01001.01001c.35999.44.32001,1.07996-.09003,1.47998-.26996.27002-.57996.33002-.78998.33002s-.52002-.06-.79999-.33002l-6.48999-6.46002c-.40002-.39001-1.03003-.39001-1.42004,0-.38995.40002-.38995,1.03003,0,1.42004l4.58002,4.54999h.01001c.35999.44.32001,1.07996-.09003,1.47998-.26996.27002-.57996.33002-.78998.33002s-.52002-.06-.78998-.33002l-4.63-4.59003c-.73999-.73999-1.77002-1.15997-2.82001-1.15997h-8.76001c-.54999,0-1,.44-1,1,0,.54999.45001,1,1,1h8.76001c.52997,0,1.03998.21002,1.40997.58002l4.62,4.58997c.59003.59003,1.38.91003,2.21002.91003s1.62-.32001,2.21002-.91003c.27997-.27997.48999-.59998.64996-.94.58002.55005,1.33002.86005,2.14001.86005.83002,0,1.62-.33002,2.21002-.91003.27997-.27997.48999-.59998.64996-.95001.58002.55005,1.33002.86005,2.14001.86005.83002,0,1.62-.32001,2.21002-.91003.27997-.27997.5-.59998.64996-.95001.62.53003,1.37.81,2.14001.81.83002,0,1.66998-.31995,2.29999-.94995.59003-.58002.89001-1.33002.91998-2.09003h12.78003c.54999,0,1-.45001,1-1,0-.56-.45001-1-1-1ZM17,18.25c0-5.10004,3.75-9.25,8.37-9.25,2.21002,0,4.31.95001,5.89001,2.67999.38.40997,1.09998.40997,1.47998,0,1.58002-1.72998,3.67999-2.67999,5.89001-2.67999,4.62,0,8.37,4.14996,8.37,9.25,0,6.16998-6.46997,13.03998-10.53003,16.75h-8.93994c-4.06006-3.71002-10.53003-10.58002-10.53003-16.75Z"/>
  <path d="M31,25c0-.55273-.44727-1-1-1h-4c-1.6543,0-3-1.3457-3-3s1.3457-3,3-3h4c.55273,0,1-.44727,1-1s-.44727-1-1-1h-4c-2.75684,0-5,2.24316-5,5s2.24316,5,5,5h4c.55273,0,1-.44727,1-1Z"/>
  <path d="M34,18h4c1.6543,0,3,1.3457,3,3s-1.3457,3-3,3h-4c-.55273,0-1,.44727-1,1s.44727,1,1,1h4c2.75684,0,5-2.24316,5-5s-2.24316-5-5-5h-4c-.55273,0-1,.44727-1,1s.44727,1,1,1Z"/>
  <path d="M25,21c0,.55273.44727,1,1,1h12c.55273,0,1-.44727,1-1s-.44727-1-1-1h-12c-.55273,0-1,.44727-1,1Z"/>
</svg>