<?xml version="1.0" encoding="UTF-8"?>
<svg id="Outline" xmlns="http://www.w3.org/2000/svg" version="1.1" viewBox="0 0 64 64">
  <!-- Generator: Adobe Illustrator 29.5.1, SVG Export Plug-In . SVG Version: 2.1.0 Build 141)  -->
  <path d="M32,7c-12.336,0-22,5.271-22,12,0,2.53,1.38,4.922,4,6.942v28.058c0,1.654,1.346,3,3,3h30c1.654,0,3-1.346,3-3v-15c0-.553-.448-1-1-1s-1,.447-1,1v15c0,.552-.449,1-1,1h-30c-.551,0-1-.448-1-1v-28.56c0-.321-.154-.623-.415-.811-1.635-1.181-3.585-3.114-3.585-5.63,0-5.421,9.159-10,20-10s20,4.579,20,10c0,2.516-1.95,4.449-3.585,5.63-.261.188-.415.489-.415.811v5.56c0,.553.448,1,1,1s1-.447,1-1v-5.058c2.62-2.021,4-4.412,4-6.942,0-6.729-9.664-12-22-12Z"/>
  <path d="M32,49c4.411,0,8-3.589,8-8s-3.589-8-8-8-8,3.589-8,8,3.589,8,8,8ZM32,35c3.309,0,6,2.691,6,6s-2.691,6-6,6-6-2.691-6-6,2.691-6,6-6Z"/>
  <path d="M18,41c0,6.617,6.28,12,14,12s14-5.383,14-12c0-2.439-.847-4.786-2.451-6.787-1.06-1.323-1.596-2.885-1.552-4.518l.003-.195c0-4.687-4.486-8.5-10-8.5s-10,3.813-10,8.5l.003.197c.044,1.631-.493,3.192-1.552,4.516-1.604,2.001-2.451,4.348-2.451,6.787ZM22.012,35.463c1.359-1.697,2.047-3.71,1.99-5.818l-.002-.145c0-3.584,3.589-6.5,8-6.5s8,2.916,8,6.5l-.002.143c-.057,2.11.631,4.123,1.99,5.82h0c1.316,1.643,2.011,3.558,2.011,5.537,0,5.514-5.383,10-12,10s-12-4.486-12-10c0-1.979.695-3.895,2.012-5.537Z"/>
  <circle cx="49" cy="35" r="1"/>
</svg>