<?xml version="1.0" encoding="UTF-8"?>
<svg id="Outline" xmlns="http://www.w3.org/2000/svg" version="1.1" viewBox="0 0 64 64">
  <!-- Generator: Adobe Illustrator 29.5.1, SVG Export Plug-In . SVG Version: 2.1.0 Build 141)  -->
  <path d="M42.999,28.71c0-8.822-7.178-16-16-16s-16,7.178-16,16,7.178,16,16,16,16-7.178,16-16ZM36.898,37.195c-.391-.391-1.023-.391-1.414,0s-.391,1.023,0,1.414l.669.669c-2.22,1.926-5.047,3.16-8.154,3.381v-2.949c0-.553-.447-1-1-1s-1,.447-1,1v2.949c-3.108-.221-5.934-1.455-8.154-3.381l.669-.669c.391-.391.391-1.023,0-1.414s-1.023-.391-1.414,0l-.669.669c-1.926-2.22-3.16-5.047-3.381-8.154h2.949c.553,0,1-.447,1-1s-.447-1-1-1h-2.949c.221-3.108,1.455-5.934,3.381-8.154l.669.669c.372.372,1.029.385,1.414,0,.391-.391.391-1.023,0-1.414l-.669-.669c2.22-1.926,5.047-3.16,8.154-3.381v2.949c0,.553.447,1,1,1s1-.447,1-1v-2.949c3.108.221,5.934,1.455,8.154,3.381l-.669.669c-.391.391-.391,1.023,0,1.414.377.377,1.023.391,1.414,0l.669-.669c1.926,2.22,3.16,5.047,3.381,8.154h-2.949c-.553,0-1,.447-1,1s.447,1,1,1h2.949c-.221,3.108-1.455,5.934-3.381,8.154l-.669-.669Z"/>
  <path d="M26.999,21.71c-.357,0-.72.03-1.104.092-1.039.163-2.002.557-2.846,1.135v-.591c0-.553-.447-1-1-1s-1,.447-1,1v2.829c0,.553.447,1,1,1h2.829c.553,0,1-.447,1-1,0-.536-.424-.965-.954-.991.406-.185.83-.336,1.283-.407.287-.046.539-.067.792-.067,2.602,0,4.791,2.026,4.983,4.614.039.525.478.926.996.926.024,0,.05,0,.075-.003.551-.041.964-.521.923-1.071-.27-3.626-3.334-6.466-6.978-6.466Z"/>
  <path d="M31.949,31.245h-2.829c-.553,0-1,.447-1,1,0,.536.424.965.954.991-.406.185-.83.336-1.283.407-.287.046-.539.067-.792.067-2.602,0-4.791-2.026-4.983-4.614-.041-.55-.507-.967-1.071-.923-.551.041-.964.521-.923,1.071.27,3.626,3.334,6.466,6.978,6.466.357,0,.72-.03,1.104-.092,1.039-.163,2.002-.557,2.846-1.135v.591c0,.553.447,1,1,1s1-.447,1-1v-2.829c0-.553-.447-1-1-1Z"/>
  <path d="M55.999,42.71h-3.132l.123-.858c.041-.287-.045-.578-.234-.797-.19-.219-.466-.345-.756-.345h-9.016c2.596-3.446,4.016-7.629,4.016-12,0-6.887-3.494-13.206-9.35-16.907-.626-.392-.894-1.127-.651-1.79.04-.109.061-.235.061-.353,0-.42-.263-.796-.657-.939l-3.76-1.37c-.25-.09-.524-.079-.766.033-.24.112-.427.315-.518.565-.215.593-.762.991-1.359.991-.064,0-.124-.007-.202-.02-1.904-.283-3.692-.283-5.595,0-.669.098-1.322-.311-1.563-.973-.09-.249-.276-.452-.517-.564-.241-.113-.516-.124-.766-.033l-3.76,1.37c-.395.144-.657.529-.657.949,0,.117.021.233.061.343.242.663-.025,1.398-.655,1.792-6.531,4.126-10.064,11.469-9.22,19.165,1.013,9.186,8.411,16.593,17.594,17.614.756.083,1.509.125,2.259.125,3.757,0,7.41-1.04,10.581-3.013l.744,5.206c.473,3.312,3.352,5.809,6.697,5.809,2.414,0,4.579-1.304,5.779-3.271l.302-.151c3.651-1.825,5.919-5.496,5.919-9.578,0-.553-.447-1-1-1ZM24.939,46.596c-8.26-.918-14.916-7.582-15.826-15.845-.761-6.93,2.419-13.541,8.296-17.253,1.138-.711,1.753-1.937,1.676-3.19l2.152-.785c.745,1.006,1.992,1.568,3.259,1.377,1.707-.256,3.313-.254,4.991-.002,1.268.205,2.529-.36,3.274-1.374l2.151.784c-.078,1.254.537,2.479,1.672,3.188,5.269,3.33,8.414,9.018,8.414,15.214,0,4.46-1.642,8.699-4.61,12h-2.39c-.29,0-.565.126-.756.345-.189.219-.275.51-.234.797l.234,1.638c-3.571,2.48-7.912,3.591-12.303,3.106ZM44.999,54.71c-2.356,0-4.385-1.759-4.717-4.092l-1.13-7.908h11.693l-1.13,7.908c-.073.51-.239.985-.459,1.428-.099.11-.169.239-.21.379-.848,1.372-2.357,2.286-4.047,2.286ZM51.757,50.476l.824-5.766h2.362c-.26,2.289-1.412,4.341-3.185,5.766Z"/>
</svg>