<?xml version="1.0" encoding="UTF-8"?>
<svg id="Outline" xmlns="http://www.w3.org/2000/svg" version="1.1" viewBox="0 0 64 64">
  <!-- Generator: Adobe Illustrator 29.3.1, SVG Export Plug-In . SVG Version: 2.1.0 Build 151)  -->
  <path d="M32,7c-12.33691,0-22,5.70996-22,13,0,2.72266,1.38086,5.30957,4,7.50586v26.49414c0,1.6543,1.3457,3,3,3h30c1.6543,0,3-1.3457,3-3v-13c0-.55273-.44727-1-1-1s-1,.44727-1,1v13c0,.55176-.44824,1-1,1h-30c-.55176,0-1-.44824-1-1v-26.96973c0-.30566-.14062-.5957-.38086-.78516-1.65039-1.30273-3.61914-3.44434-3.61914-6.24512,0-6.06543,8.97168-11,20-11s20,4.93457,20,11c0,2.80078-1.96875,4.94238-3.61914,6.24512-.24023.18945-.38086.47949-.38086.78516v5.96973c0,.55273.44727,1,1,1s1-.44727,1-1v-5.49414c2.61914-2.19629,4-4.7832,4-7.50586,0-7.29004-9.66309-13-22-13Z"/>
  <path d="M40.59003,34.51001c.47998-1.14001.52997-2.44.09998-3.64001-.10999-.29999-.25-.59003-.40997-.85999.32996-.48004.56995-1.02002.72998-1.59003.23999-.96997.19-1.97998-.15002-2.92999-.69-1.89001-2.45996-3.16998-4.40997-3.28998-.03003-.13-.07001-.26001-.12-.38-.83002-2.27002-3.14001-3.58002-5.44-3.24005-.01001-.02997-.02002-.06-.03003-.08997-.94-2.59003-3.82001-3.92999-6.40997-3-1.26001.46002-2.26001,1.38-2.83002,2.58997-.56,1.21002-.62,2.57001-.15997,3.82001.00995.03003.01996.06.03998.10004-1.97998,1.21997-2.90997,3.70001-2.09003,5.97998.05005.13.10004.25.16003.37-1.41998,1.35004-1.95001,3.45001-1.27002,5.34003.48004,1.32996,1.51001,2.37,2.79004,2.89996-1.32001,1.56-2.09003,3.42004-2.09003,5.41003,0,4.94,2.78998,5.26996,7.40997,5.82001.41003.03998.84003.08997,1.29004.14996.29999.25.96997,1.04999,1.41998,1.59003,1.53003,1.81,2.13,2.44,2.88,2.44,7.16998,0,13-4.48999,13-10,0-2.98004-1.71002-5.66003-4.40997-7.48999ZM20.17999,33.01001c-.47998-1.32001.03998-2.82001,1.22003-3.56.23999-.15002.39996-.39001.44995-.67004.05005-.27997-.00995-.56-.17999-.77997-.14996-.20001-.27997-.44-.38-.71002-.56-1.53998.24005-3.26001,1.76001-3.83997.29999-.05005.56-.24005.70001-.51001.17999-.33002.15997-.73004-.04999-1.03003-.16003-.22998-.27002-.45001-.35999-.69-.28003-.76001-.24005-1.57001.09998-2.29999.33002-.71997.94-1.27002,1.69-1.54999,1.56-.56,3.27997.25,3.84998,1.81.09003.21997.14001.46997.16003.72998.02997.33002.27997.59003.57996.76001.26001.14001.61005.13.90002.02002,1.54999-.54004,3.26001.26001,3.83002,1.82001.08997.23999.14996.5.16998.79999.03003.27997.16003.52997.38.70001.21002.16998.48999.25.76001.20996,1.38-.17999,2.73999.63,3.21997,1.95001.20001.57001.23999,1.17999.09003,1.73999-.13.52002-.40002.98999-.76001,1.35999-.37.37006-.39001.96002-.04999,1.35004.25.28998.42999.58997.54999.92999.22998.64001.22003,1.32001.01001,1.95001-1.79999-.85999-3.90002-1.39001-6.15002-1.47003l.98004-2.10999c.22998-.5.00995-1.09003-.49005-1.33002-.5-.22998-1.08997-.01001-1.32996.48999l-.77002,1.66003-1.08002-2.98999,1.61005-3.46002c.23999-.5.01996-1.09998-.48004-1.33002-.5-.22998-1.08997-.01996-1.32996.48004l-.77002,1.64996-.88-2.41998c-.19-.52002-.76001-.78998-1.28003-.59998-.51996.19-.78998.75995-.59998,1.27997l.89001,2.44-1.67004-.77997c-.5-.23004-1.08997-.01001-1.32996.48999-.23004.5-.01001,1.08997.48999,1.32001l3.46997,1.62,1.09003,2.97998-1.66998-.77002c-.5-.22998-1.10004-.00995-1.33002.49005s-.01001,1.08997.48999,1.32996l.53003.23999c-1.67999.52002-3.20001,1.29004-4.45001,2.27002-.03003-.01001-.04999-.02002-.07001-.02002-1.14001-.10999-2.12-.88-2.51001-1.94995ZM32.21002,50c-.34003-.29004-1.09003-1.17999-1.56-1.73004-1.38-1.63995-1.88-2.17999-2.53003-2.25995-.52002-.07001-1.01001-.13-1.46997-.18005-4.76001-.56-5.65002-.75995-5.65002-3.82996,0-4.12,4.31-7.52002,9.82001-7.95001h.02002c.01996,0,.02997-.01001.04999-.01001.37-.02997.73999-.03998,1.10999-.03998,6.07001,0,11,3.58997,11,8,0,4.35999-4.82001,7.91998-10.78998,8Z"/>
  <path d="M35,47c2.75684,0,5-2.24316,5-5s-2.24316-5-5-5-5,2.24316-5,5,2.24316,5,5,5ZM35,39c1.6543,0,3,1.3457,3,3s-1.3457,3-3,3-3-1.3457-3-3,1.3457-3,3-3Z"/>
  <circle cx="49" cy="37" r="1"/>
</svg>