<?xml version="1.0" encoding="UTF-8"?>
<svg id="Outline" xmlns="http://www.w3.org/2000/svg" version="1.1" viewBox="0 0 64 64">
  <!-- Generator: Adobe Illustrator 29.5.1, SVG Export Plug-In . SVG Version: 2.1.0 Build 141)  -->
  <path d="M26,9.5c-10.65,0-19,3.95-19,9,0,2.1,1.38,4.03,4,5.61v27.39c0,1.65,1.35,3,3,3h24c1.65,0,3-1.35,3-3v-20c0-.55-.45-1-1-1s-1,.45-1,1v16c0,.55-.45,1-1,1H14c-.55,0-1-.45-1-1v-23.97c0-.36-.2-.7-.52-.88-2.24-1.24-3.48-2.71-3.48-4.15,0-3.38,6.83-7,17-7s17,3.62,17,7c0,1.44-1.24,2.91-3.48,4.15-.32.18-.52.52-.52.88v3.97c0,.55.45,1,1,1s1-.45,1-1v-3.39c2.62-1.58,4-3.51,4-5.61,0-5.05-8.35-9-19-9ZM13,50.32c.31.11.65.18,1,.18h24c.35,0,.69-.07,1-.18v1.18c0,.55-.45,1-1,1H14c-.55,0-1-.45-1-1v-1.18Z"/>
  <path d="M35.518,20.294c-.319.176-.518.512-.518.876v12.33c0,.552.447,1,1,1s1-.448,1-1v-11.739l1.553-.855c.025-.014.051-.03.075-.046.854-.495,1.358-1.377,1.352-2.37-.006-1.007-.56-1.93-1.449-2.412-1.452-.775-5.58-2.578-12.53-2.578s-11.078,1.803-12.536,2.581c-.884.479-1.438,1.402-1.443,2.409-.007.993.498,1.875,1.352,2.37.024.017.05.032.075.046l1.553.855v23.739c0,.552.447,1,1,1h20c.553,0,1-.448,1-1v-8c0-.552-.447-1-1-1s-1,.448-1,1v7h-18v-23.33c0-.364-.198-.7-.518-.876l-2.036-1.122c-.02-.012-.039-.023-.06-.034h0c-.334-.188-.368-.507-.367-.636,0-.282.149-.53.391-.66,1.319-.704,5.09-2.342,11.589-2.342s10.27,1.638,11.583,2.339c.247.133.396.381.396.663,0,.128-.033.447-.367.634h0c-.021.013-.04.024-.06.036l-2.036,1.122Z"/>
  <path d="M22,17.5c-1.654,0-3,1.346-3,3s1.346,3,3,3,3-1.346,3-3-1.346-3-3-3ZM22,21.5c-.552,0-1-.449-1-1s.448-1,1-1,1,.449,1,1-.448,1-1,1Z"/>
  <path d="M22,25.5c-1.654,0-3,1.346-3,3s1.346,3,3,3,3-1.346,3-3-1.346-3-3-3ZM22,29.5c-.552,0-1-.449-1-1s.448-1,1-1,1,.449,1,1-.448,1-1,1Z"/>
  <path d="M52,39.5c2.76,0,5-2.24,5-5v-2c0-.55-.45-1-1-1h-2c-1.13,0-2.16.39-3,1.03v-1.03c0-.55-.45-1-1-1s-1,.45-1,1v1.03c-.84-.64-1.87-1.03-3-1.03h-2c-.55,0-1,.45-1,1v2c0,2.76,2.24,5,5,5h1v4.03c-.84-.64-1.87-1.03-3-1.03h-2c-.55,0-1,.45-1,1v2c0,2.76,2.24,5,5,5h1v3c0,.55.45,1,1,1s1-.45,1-1v-3h1c2.76,0,5-2.24,5-5v-2c0-.55-.45-1-1-1h-2c-1.13,0-2.16.39-3,1.03v-4.03h1ZM51,36.5c0-1.65,1.35-3,3-3h1v1c0,1.65-1.35,3-3,3h-1v-1ZM49,48.5h-1c-1.65,0-3-1.35-3-3v-1h1c1.65,0,3,1.35,3,3v1ZM49,37.5h-1c-1.65,0-3-1.35-3-3v-1h1c1.65,0,3,1.35,3,3v1ZM54,44.5h1v1c0,1.65-1.35,3-3,3h-1v-1c0-1.65,1.35-3,3-3Z"/>
</svg>