<?xml version="1.0" encoding="UTF-8"?>
<svg id="Outline" xmlns="http://www.w3.org/2000/svg" version="1.1" viewBox="0 0 64 64">
  <!-- Generator: Adobe Illustrator 29.5.1, SVG Export Plug-In . SVG Version: 2.1.0 Build 141)  -->
  <path d="M52,22c2.76,0,5-2.24,5-5v-2c0-.55-.45-1-1-1h-2c-1.13,0-2.16.39-3,1.03v-1.03c0-.55-.45-1-1-1s-1,.45-1,1v1.03c-.84-.64-1.87-1.03-3-1.03h-2c-.55,0-1,.45-1,1v2c0,2.76,2.24,5,5,5h1v4.03c-.84-.64-1.87-1.03-3-1.03h-2c-.55,0-1,.45-1,1v2c0,2.76,2.24,5,5,5h1v2.49c-.21-.1-.43-.21-.67-.32-1.81-.82-3.85-1.51-6.08-2.02-2.27-.55-4.69-.9-7.18-1.05h-.07v-2.1h1c2.76,0,5-2.24,5-5v-2c0-.55-.45-1-1-1h-2c-1.13,0-2.16.39-3,1.03v-4.03h1c2.76,0,5-2.24,5-5v-2c0-.55-.45-1-1-1h-2c-1.13,0-2.16.39-3,1.03v-1.03c0-.55-.45-1-1-1s-1,.45-1,1v1.03c-.84-.64-1.87-1.03-3-1.03h-2c-.55,0-1,.45-1,1v2c0,2.76,2.24,5,5,5h1v4.03c-.84-.64-1.87-1.03-3-1.03h-2c-.55,0-1,.45-1,1v2c0,2.76,2.24,5,5,5h1v2.02c-.85-.02-1.72-.02-2.56,0-.52.02-1.02.05-1.5.08-12.71.81-21.94,6.33-21.94,13.14,0,7.29,10.08,8.5,20.98,8.72.57.02,1.01-.43,1.02-.98s-.43-1.01-.98-1.02c-13.33-.27-19.02-2.28-19.02-6.72,0-2.86,2.37-5.55,6.2-7.58.31,3.65,1.21,9.34,3.8,9.34,3.24,0,3.84-8.83,3.96-12.07,1.6-.34,3.3-.59,5.06-.74.08,3.41.62,12.81,3.98,12.81,1.55,0,2.65-1.9,3.35-5.82.1-.55-.26-1.07-.8-1.16-.55-.1-1.07.26-1.16.8-.5,2.73-1.11,3.82-1.39,4.12-.73-.69-1.88-4.59-1.99-10.89.31-.4,3.11-.04,3.6-.02.13,0,.25.01.38.02-.02.97-.06,1.94-.13,2.88-.04.55.38,1.03.93,1.07.54.04,1.03-.38,1.07-.93.07-.94.1-1.91.12-2.89,1.74.15,3.44.4,5.06.75.11,3.24.72,12.07,3.96,12.07,2.6,0,3.49-5.72,3.8-9.37,3.96,2.09,6.2,4.82,6.2,7.61,0,5.94-11.05,6.76-23,6.76-.55,0-1,.45-1,1s.45,1,1,1c12.1,0,25-.68,25-8.76,0-3.22-2.16-6.28-6-8.65v-3.59h1c2.76,0,5-2.24,5-5v-2c0-.55-.45-1-1-1h-2c-1.13,0-2.16.39-3,1.03v-4.03h1ZM51,19c0-1.65,1.35-3,3-3h1v1c0,1.65-1.35,3-3,3h-1v-1ZM35,16c0-1.65,1.35-3,3-3h1v1c0,1.65-1.35,3-3,3h-1v-1ZM35,27c0-1.65,1.35-3,3-3h1v1c0,1.65-1.35,3-3,3h-1v-1ZM19,44.94c-.51-.51-1.51-2.98-1.86-8.19,1.17-.5,2.44-.94,3.8-1.32-.24,5.72-1.32,8.91-1.94,9.51ZM33,28h-1c-1.65,0-3-1.35-3-3v-1h1c1.65,0,3,1.35,3,3v1ZM33,17h-1c-1.65,0-3-1.35-3-3v-1h1c1.65,0,3,1.35,3,3v1ZM45,44.94c-.62-.6-1.7-3.8-1.94-9.52,1.36.37,2.63.81,3.81,1.3-.36,5.23-1.36,7.71-1.87,8.22ZM49,31h-1c-1.65,0-3-1.35-3-3v-1h1c1.65,0,3,1.35,3,3v1ZM49,20h-1c-1.65,0-3-1.35-3-3v-1h1c1.65,0,3,1.35,3,3v1ZM54,27h1v1c0,1.65-1.35,3-3,3h-1v-1c0-1.65,1.35-3,3-3Z"/>
</svg>