<?xml version="1.0" encoding="UTF-8"?>
<svg id="Outline" xmlns="http://www.w3.org/2000/svg" version="1.1" viewBox="0 0 64 64">
  <!-- Generator: Adobe Illustrator 29.5.1, SVG Export Plug-In . SVG Version: 2.1.0 Build 141)  -->
  <path d="M57,41.501v-6c0-.55-.45-1-1-1h-4c-.55,0-1,.45-1,1v3h-3.03c.64-.84,1.03-1.87,1.03-3,0-.55-.45-1-1-1h-2.56c.35-.59.56-1.27.56-2,0-1.07-.42-2.07-1.17-2.83-.07-.06-.14-.11-.21-.17.84-.73,1.38-1.8,1.38-3,0-1.07-.42-2.07-1.17-2.83-.76-.75-1.76-1.17-2.83-1.17h-4.56c.35-.59.56-1.27.56-2,0-1.84-1.26-3.38-2.96-3.84.15-1.31.73-2.51,1.67-3.45.39-.39.39-1.03,0-1.42-.39-.39-1.03-.39-1.42,0-1.31,1.32-2.1,3.01-2.26,4.84-.36.09-.7.24-1.02.42-.61-.35-1.3-.55-2.01-.55-2.21,0-4,1.79-4,4,0,.73.21,1.41.56,2h-4.56c-2.21,0-4,1.79-4,4,0,1.07.42,2.07,1.17,2.83.07.06.14.11.21.17-.84.73-1.38,1.8-1.38,3,0,.72.2,1.4.55,2h-2.55c-.27,0-.52.11-.71.29-.18.19-.29.44-.29.71,0,1.09.37,2.13,1.03,3h-3.03v-3c0-.55-.45-1-1-1h-4c-.55,0-1,.45-1,1v6c0,1.51,1.12,2.75,2.57,2.96l-2.51,6.69c-.11.31-.07.65.12.92.18.27.49.43.82.43h4c.31,0,.61-.15.8-.4l5.7-7.6h4.5c.55,0,1-.45,1-1s-.45-1-1-1h-13c-.55,0-1-.45-1-1v-5h2v3c0,.55.45,1,1,1h25c.55,0,1-.45,1-1s-.45-1-1-1h-17c-.8,0-1.55-.31-2.12-.87-.32-.33-.56-.71-.71-1.13h29.66c-.41,1.16-1.53,2-2.83,2h-3c-.55,0-1,.45-1,1s.45,1,1,1h11c.55,0,1-.45,1-1v-3h2v5c0,.55-.45,1-1,1h-27c-.55,0-1,.45-1,1s.45,1,1,1h18.5l5.7,7.6c.19.25.49.4.8.4h4c.33,0,.64-.16.82-.43.19-.27.23-.61.12-.92l-2.51-6.69c1.45-.21,2.57-1.45,2.57-2.96ZM11.69,44.501h4.31l-4.5,6h-2.06l2.25-6ZM34,18.501c1.1,0,2,.9,2,2s-.9,2-2,2-2-.9-2-2,.9-2,2-2ZM30,18.501c.18,0,.35.03.52.08-.32.57-.52,1.22-.52,1.92s.2,1.35.52,1.92c-.17.05-.34.08-.52.08-1.1,0-2-.9-2-2s.9-2,2-2ZM25,24.501h10v5c0,.55-.45,1-1,1s-1-.45-1-1c0-1.65-1.35-3-3-3s-3,1.35-3,3c0,.55-.45,1-1,1s-1-.45-1-1v-5ZM22,24.501h1v4h-1c-.53,0-1.03-.21-1.41-.59-.38-.38-.59-.88-.59-1.41,0-1.1.9-2,2-2ZM42,34.501h-20c-.53,0-1.03-.21-1.41-.59-.38-.38-.59-.88-.59-1.41,0-1.1.9-2,2-2h1.18c.42,1.16,1.52,2,2.82,2,1.65,0,3-1.35,3-3,0-.55.45-1,1-1s1,.45,1,1c0,1.65,1.35,3,3,3,1.3,0,2.4-.84,2.82-2h5.18c.53,0,1.03.21,1.41.59.38.38.59.88.59,1.41,0,1.1-.9,2-2,2ZM42,28.501h-5v-4h5c.53,0,1.03.21,1.41.59.38.38.59.88.59,1.41,0,1.1-.9,2-2,2ZM54.56,50.501h-2.06l-4.5-6h4.31l2.25,6Z"/>
</svg>