<?xml version="1.0" encoding="UTF-8"?>
<svg id="Outline" xmlns="http://www.w3.org/2000/svg" version="1.1" viewBox="0 0 64 64">
  <!-- Generator: Adobe Illustrator 29.3.1, SVG Export Plug-In . SVG Version: 2.1.0 Build 151)  -->
  <path d="M56,44.53205h-7.03003c.54004-.71002.88-1.56.98004-2.5l5.33002-4.57001c1.08997-.92999,1.71997-2.29999,1.71997-3.72998,0-1.56-.71002-2.99005-1.96002-3.93005-1.23999-.94-2.81-1.22998-4.31-.79999l-.72998.20001v-3.66998c0-.54999-.45001-1-1-1h-1.46997l3.78998-6.54999c.27002-.46002.40997-.97003.40997-1.51001,0-1.07001-.57001-2.06-1.48999-2.59003-.69-.40997-1.5-.52002-2.27997-.31-.78003.20001-1.42999.70001-1.83002,1.40002l-5.52002,9.56h-3.60999c-.54999,0-1,.45001-1,1s.45001,1,1,1h11v2h-22v-2h3c.54999,0,1-.45001,1-1s-.45001-1-1-1h-4c-.54999,0-1,.45001-1,1v8.19c-1.51001-.73999-3.21997-1.19-5-1.19-5.91998,0-11,4.95001-11,9,0,1.31.5,2.27997,1.34003,3h-1.34003c-.54999,0-1,.45001-1,1v3c0,.51001.38.94.89001.98999l9,1c.03998.01001.07001.01001.10999.01001h30c.03998,0,.07001,0,.10999-.01001l9-1c.51001-.04999.89001-.47998.89001-.98999v-3c0-.54999-.45001-1-1-1ZM50,31.28205l1.28003-.35999c.88995-.26001,1.81995-.08002,2.56.47998.73999.54999,1.15997,1.39996,1.15997,2.33002,0,.84998-.37,1.65997-1.02002,2.20996l-3.97998,3.41998v-8.07996ZM42.91998,24.53205l4.95001-8.55999c.27421-.47419.88598-.64833,1.35975-.3602.43359.26369.65451.88919.36028,1.36019l-4.37006,7.56h-2.29999ZM26,30.53205h15v2.45996l-2.54999,1.71002c-.28003.17999-.45001.5-.45001.83002v4c0,.54999.45001,1,1,1h6c.54999,0,1-.45001,1-1v-4c0-.33002-.16998-.65002-.45001-.83002l-2.54999-1.71002v-2.45996h5v11c0,1.64996-1.34998,3-3,3h-16c-.09998,0-.21002-.02002-.31-.03003.82001-.70996,1.31-1.66998,1.31-2.96997,0-2.26001-1.58002-4.79004-4-6.60004v-4.39996ZM42,34.73206l2,1.33997v2.46002h-4v-2.46002l2-1.33997ZM15.78003,35.13203c.58997,1.65002.67999,3.45001.25,5.16003-.13.52997.18994,1.06994.72998,1.20996.50313.13045,1.0796-.18472,1.20996-.72998.51001-2.03003.41003-4.16003-.25-6.14001.42004-.06.85004-.09998,1.28003-.09998.95001,0,1.85999.15997,2.71997.41998.63,1.70001.75,3.58002.31006,5.34003-.13.53998.18994,1.07996.73008,1.20998.53229.13312,1.07856-.19787,1.20987-.73.38-1.53998.41003-3.16003.12006-4.71002,2.35999,1.48004,3.90997,3.76001,3.90997,5.47003,0,2.07996-2.78003,3-9,3s-9-.92004-9-3c0-2.13,2.40997-5.13,5.78003-6.40002ZM55,47.63203l-8.06.90002h-29.88l-8.06-.90002v-1.09998h46v1.09998Z"/>
  <circle cx="33" cy="25.53205" r="1"/>
</svg>