<?xml version="1.0" encoding="UTF-8"?>
<svg id="Outline" xmlns="http://www.w3.org/2000/svg" version="1.1" viewBox="0 0 64 64">
  <!-- Generator: Adobe Illustrator 29.5.1, SVG Export Plug-In . SVG Version: 2.1.0 Build 141)  -->
  <path d="M52,32h-2.67c-2.83,0-5.64-.28-8.37-.83l-3.42-.68c-1.8-.36-3.65.2-4.94,1.49-.22.23-.42.47-.6.72-.18-.25-.38-.49-.6-.72-1.29-1.29-3.18-1.86-4.94-1.49l-3.42.68c-2.73.55-5.54.83-8.37.83h-2.67c-.55,0-1,.45-1,1v23c0,.55.45,1,1,1h30c.55,0,1-.45,1-1s-.45-1-1-1h-9v-.15c0-.91.37-1.81,1.02-2.45.82-.82,1.98-1.18,3.13-.95l3.41.68c2.88.58,5.83.87,8.77.87h1.67v2h-5c-.55,0-1,.45-1,1s.45,1,1,1h6c.55,0,1-.45,1-1v-23c0-.55-.45-1-1-1ZM31,55H13v-2h1.67c2.94,0,5.89-.29,8.77-.87l3.41-.68c1.14-.23,2.31.13,3.13.95.65.64,1.02,1.54,1.02,2.45v.15ZM31,50.63c-1.26-1.04-2.92-1.47-4.54-1.14l-3.42.68c-2.74.55-5.56.83-8.37.83h-1.67v-17h1.67c2.96,0,5.91-.29,8.77-.87l3.41-.68c1.14-.23,2.32.13,3.13.95.65.64,1.02,1.54,1.02,2.45v14.78ZM51,51h-1.67c-2.81,0-5.63-.28-8.37-.83l-3.42-.68c-1.62-.33-3.28.1-4.54,1.14v-14.78c0-.91.37-1.81,1.02-2.45.81-.82,1.99-1.18,3.13-.95l3.41.68c2.86.58,5.81.87,8.77.87h1.67v17Z"/>
  <path d="M16.142,37.99l1.952-.279c3.237-.462,6.504-.372,9.71.27.066.014.132.02.197.02.467,0,.885-.328.979-.804.108-.542-.243-1.068-.784-1.177-3.428-.687-6.92-.783-10.386-.289l-1.952.279c-.547.078-.927.585-.849,1.132s.583.922,1.132.849Z"/>
  <path d="M16.142,42.99l1.952-.279c3.237-.463,6.504-.372,9.71.27.066.014.132.02.197.02.467,0,.885-.328.979-.804.108-.542-.243-1.068-.784-1.177-3.428-.687-6.92-.783-10.386-.289l-1.952.279c-.547.078-.927.585-.849,1.132s.583.924,1.132.849Z"/>
  <path d="M16.142,47.99l1.952-.279c3.237-.463,6.504-.372,9.71.27.066.014.132.02.197.02.467,0,.885-.328.979-.804.108-.542-.243-1.068-.784-1.177-3.428-.687-6.92-.783-10.386-.289l-1.952.279c-.547.078-.927.585-.849,1.132.078.546.583.926,1.132.849Z"/>
  <path d="M48.142,36.01l-1.952-.279c-3.464-.492-6.958-.396-10.386.289-.541.108-.893.635-.784,1.177.095.476.513.804.979.804.064,0,.131-.006.197-.02,3.205-.642,6.472-.731,9.71-.27l1.952.279c.553.078,1.054-.302,1.132-.849s-.302-1.054-.849-1.132Z"/>
  <path d="M48.142,41.01l-1.952-.279c-3.464-.491-6.958-.397-10.386.289-.541.108-.893.635-.784,1.177.095.476.513.804.979.804.064,0,.131-.006.197-.02,3.205-.642,6.472-.732,9.71-.27l1.952.279c.553.079,1.054-.302,1.132-.849s-.302-1.054-.849-1.132Z"/>
  <path d="M48.142,46.01l-1.952-.279c-3.464-.492-6.958-.397-10.386.289-.541.108-.893.635-.784,1.177.095.476.513.804.979.804.064,0,.131-.006.197-.02,3.205-.642,6.472-.732,9.71-.27l1.952.279c.553.081,1.054-.302,1.132-.849s-.302-1.054-.849-1.132Z"/>
  <path d="M31.143,24.515c.181.301.506.485.857.485s.677-.185.857-.485l1.8-3c.284-.474.131-1.088-.343-1.372-.475-.285-1.088-.131-1.372.343l-.942,1.571-4.233-7.057h1.233c.553,0,1-.447,1-1v-5h4v5c0,.553.447,1,1,1h1.234l-.892,1.485c-.284.474-.131,1.088.343,1.372.475.285,1.088.13,1.372-.343l1.8-3c.186-.31.19-.694.013-1.008s-.51-.507-.87-.507h-2v-5c0-.553-.447-1-1-1h-6c-.553,0-1,.447-1,1v5h-2c-.36,0-.692.193-.87.507-.178.314-.173.699.013,1.008l6,10Z"/>
  <path d="M24,29h16c1.654,0,3-1.346,3-3v-2c0-.553-.447-1-1-1s-1,.447-1,1v2c0,.552-.448,1-1,1h-16c-.552,0-1-.448-1-1v-2c0-.553-.447-1-1-1s-1,.447-1,1v2c0,1.654,1.346,3,3,3Z"/>
</svg>