<?xml version="1.0" encoding="UTF-8"?>
<svg id="Outline" xmlns="http://www.w3.org/2000/svg" version="1.1" viewBox="0 0 64 64">
  <!-- Generator: Adobe Illustrator 29.5.1, SVG Export Plug-In . SVG Version: 2.1.0 Build 141)  -->
  <path d="M57,21c0-.58-.08-1.15-.24-1.7-.15-.53-.71-.83-1.24-.68-.53.15-.83.71-.68,1.24.11.37.16.75.16,1.14,0,1.11-.46,2.15-1.29,2.93-.34.31-.42.81-.2,1.21.32.6.49,1.22.49,1.86,0,2.21-1.79,4-3.91,4.01-.34-.06-.74.07-.96.34-.19.23-.27.53-.21.82.05.31.08.58.08.83,0,2.21-1.79,4-4,4-1.76,0-3.29-1.14-3.8-2.84-.09-.28-.29-.51-.56-.63-.27-.11-.58-.11-.85.03-1.43.71-2.97.53-4.19-.38-.36-.27-.84-.27-1.2,0-.72.54-1.55.82-2.4.82-1.55,0-2.93-.88-3.6-2.29-.16-.35-.51-.57-.9-.57s-.74.22-.9.57c-.87,1.84-2.97,2.8-5.02,2.02-.45-.17-.95-.01-1.2.39-.75,1.18-2.01,1.88-3.38,1.88-2.21,0-4-1.79-4-3.91,0-.05.01-.14.01-.19,0-.48-.34-.89-.8-.98-1.86-.37-3.21-2.02-3.21-3.92,0-2.21,1.79-4,4-4,.25,0,.52.03.83.08.29.06.59-.02.82-.21.23-.19.36-.47.36-.77,0-.06-.01-.1-.01-.1,0-1.27.59-2.43,1.62-3.2.21-.16.35-.39.39-.66.04-.26-.03-.53-.19-.74-.54-.71-.82-1.54-.82-2.4,0-2.21,1.79-4,4-4,1.92,0,3.58,1.38,3.93,3.28.06.35.3.63.63.76.32.12.69.06.97-.15.53-.42,1.09-.69,1.68-.81.46-.09.8-.5.8-.98,0-.05-.01-.1-.01-.1,0-2.21,1.79-4,4-4,1.66,0,3.17,1.06,3.74,2.63.11.31.38.55.7.63.32.08.66,0,.91-.23.74-.66,1.68-1.03,2.65-1.03,2.21,0,4,1.79,4,4,0,.05-.01.1-.01.15-.01.08-.02.16-.03.24-.02.35.14.69.44.89.29.2.67.23.98.08,1.3-.61,2.89-.42,4.08.52.22.17.51.24.78.2.22-.04.5-.08.76-.08.62,0,1.22.14,1.78.42.5.24,1.09.04,1.34-.46.24-.49.04-1.09-.46-1.34-.84-.41-1.73-.62-2.66-.62-.23,0-.46.02-.66.04-1.3-.89-2.91-1.22-4.41-.94-.43-2.88-2.93-5.1-5.93-5.1-1.04,0-2.05.28-2.95.79-1.08-1.71-2.98-2.79-5.05-2.79-3.08,0-5.63,2.34-5.96,5.34-.19.06-.38.14-.56.23-.95-2.13-3.07-3.57-5.48-3.57-3.31,0-6,2.69-6,6,0,.98.25,1.94.71,2.81-.86.88-1.43,1.98-1.63,3.19h-.08c-3.31,0-6,2.69-6,6,0,2.58,1.66,4.85,4.04,5.67.33,2.99,2.88,5.33,5.96,5.33.03,0,.07-.01.1-.01l3.49,4.08c.2.23.48.35.76.35.23,0,.46-.08.65-.24.42-.36.47-.99.11-1.41l-2.78-3.25c.87-.37,1.65-.94,2.27-1.69,1.25.3,2.5.17,3.63-.29,0,0,4.537,6.615,4.54,6.62.545.794,1.82.382,1.82-.57v-5.61c.14.01.27.02.41.02,1.06,0,2.08-.28,3-.82.19.11.39.21.59.3v5.11c0,.865,1.095,1.325,1.71.71l3.77-3.78c.52.45,1.11.81,1.76,1.06l-1.99,1.99c-3.38,3.39-5.25,7.89-5.25,12.68v1.75h-7.61c-.1-2.34-.57-4.64-1.38-6.85-.52-1.41-1.2-2.77-2-4.06-.29-.47-.91-.61-1.38-.32-.47.3-.61.91-.32,1.38.74,1.17,1.35,2.42,1.82,3.7.85,2.29,1.28,4.7,1.28,7.15,0,.55.45,1,1,1h9.59c.55,0,1-.45,1-1v-2.75c0-4.25,1.66-8.25,4.67-11.26l3-3c3.19-.14,5.74-2.77,5.74-5.99v-.08c2.83-.48,5-2.95,5-5.92,0-.73-.14-1.45-.42-2.15.92-1.08,1.42-2.43,1.42-3.85ZM29.59,38.37l-2.65-3.87c.2-.17.39-.36.56-.55.58.66,1.29,1.18,2.09,1.53v2.89ZM37.59,38.17v-2.19c.7.04,1.41-.02,2.1-.23.03.07.08.13.12.2l-2.22,2.22Z"/>
</svg>