<?xml version="1.0" encoding="UTF-8"?>
<svg id="Outline" xmlns="http://www.w3.org/2000/svg" version="1.1" viewBox="0 0 64 64">
  <!-- Generator: Adobe Illustrator 29.5.1, SVG Export Plug-In . SVG Version: 2.1.0 Build 141)  -->
  <path d="M48,25h-5.18c-.42-1.16-1.52-2-2.82-2v-3c0-1.65-1.35-3-3-3h-7v-9c0-.55-.45-1-1-1h-4c-.55,0-1,.45-1,1v9h-7c-1.65,0-3,1.35-3,3v3c-1.65,0-3,1.35-3,3v28c0,1.65,1.35,3,3,3h26c1.3,0,2.4-.84,2.82-2h5.18c2.76,0,5-2.24,5-5v-20c0-2.76-2.24-5-5-5ZM26,9h2v8h-2v-8ZM41,54c0,.55-.45,1-1,1H14c-.55,0-1-.45-1-1v-28c0-.55.45-1,1-1h4c.55,0,1-.45,1-1s-.45-1-1-1h-2v-3c0-.55.45-1,1-1h20c.55,0,1,.45,1,1v3h-16c-.55,0-1,.45-1,1s.45,1,1,1h18c.55,0,1,.45,1,1v28ZM43,31h4v18h-4v-18ZM51,50c0,1.65-1.35,3-3,3h-5v-2h5c.55,0,1-.45,1-1v-20c0-.55-.45-1-1-1h-5v-2h5c1.65,0,3,1.35,3,3v20Z"/>
</svg>