<?xml version="1.0" encoding="UTF-8"?>
<svg id="Outline" xmlns="http://www.w3.org/2000/svg" version="1.1" viewBox="0 0 64 64">
  <!-- Generator: Adobe Illustrator 29.5.1, SVG Export Plug-In . SVG Version: 2.1.0 Build 141)  -->
  <path d="M32,7c-14.019,0-25,5.71-25,13,0,2.897,1.727,5.607,5,7.864v26.136c0,1.654,1.346,3,3,3h34c1.654,0,3-1.346,3-3v-20c0-.553-.447-1-1-1s-1,.447-1,1v20c0,.552-.448,1-1,1H15c-.552,0-1-.448-1-1v-26.67c0-.339-.172-.654-.456-.839-2.073-1.345-4.544-3.562-4.544-6.491,0-5.963,10.532-11,23-11s23,5.037,23,11c0,2.929-2.471,5.146-4.544,6.491-.284.185-.456.5-.456.839v2.67c0,.553.447,1,1,1s1-.447,1-1v-2.136c3.273-2.257,5-4.967,5-7.864,0-7.29-10.981-13-25-13Z"/>
  <path d="M32,11c-12.38,0-21,4.74-21,9,0,1.59,1.29,3.29,3.63,4.81l1.37.89v26.3c0,.55.45,1,1,1h30c.55,0,1-.45,1-1v-26.3l1.37-.89c2.34-1.52,3.63-3.22,3.63-4.81,0-4.26-8.62-9-21-9ZM48.28,23.13l-1.82,1.18c-.29.19-.46.5-.46.84v25.85h-28v-25.85c0-.34-.17-.65-.46-.84l-1.82-1.18c-2.01-1.3-2.72-2.5-2.72-3.13,0-2.47,7.21-7,19-7s19,4.53,19,7c0,.63-.71,1.83-2.72,3.13Z"/>
  <path d="M44,38c0-3.49-1.53-6.75-4.07-9h3.07c.55,0,1-.45,1-1,0-6.62-5.38-12-12-12s-12,5.38-12,12c0,.55.45,1,1,1h3.07c-2.54,2.25-4.07,5.51-4.07,9,0,.55.45,1,1,1h3.07c-2.54,2.25-4.07,5.51-4.07,9,0,.55.45,1,1,1h22c.55,0,1-.45,1-1,0-3.49-1.53-6.75-4.07-9h3.07c.55,0,1-.45,1-1ZM22.05,27c.5-5.05,4.77-9,9.95-9s9.45,3.95,9.95,9h-19.9ZM34,37c-.55,0-1,.45-1,1s.45,1,1,1h2.34c3.14,1.51,5.26,4.56,5.61,8h-19.9c.35-3.44,2.47-6.49,5.61-8h2.34c.55,0,1-.45,1-1s-.45-1-1-1h-7.95c.35-3.44,2.47-6.49,5.61-8h8.68c3.14,1.51,5.26,4.56,5.61,8h-7.95Z"/>
  <circle cx="26" cy="44" r="1"/>
  <circle cx="29" cy="41" r="1"/>
  <circle cx="38" cy="44" r="1"/>
  <circle cx="35" cy="41" r="1"/>
  <circle cx="32" cy="44" r="1"/>
  <circle cx="26" cy="34" r="1"/>
  <circle cx="29" cy="31" r="1"/>
  <circle cx="38" cy="34" r="1"/>
  <circle cx="35" cy="31" r="1"/>
  <circle cx="32" cy="34" r="1"/>
  <circle cx="26" cy="24" r="1"/>
  <circle cx="29" cy="21" r="1"/>
  <circle cx="38" cy="24" r="1"/>
  <circle cx="35" cy="21" r="1"/>
  <circle cx="32" cy="24" r="1"/>
</svg>