<?xml version="1.0" encoding="UTF-8"?>
<svg id="Outline" xmlns="http://www.w3.org/2000/svg" version="1.1" viewBox="0 0 64 64">
  <!-- Generator: Adobe Illustrator 29.5.1, SVG Export Plug-In . SVG Version: 2.1.0 Build 141)  -->
  <g>
    <path d="M32,7c-14.019,0-25,5.71-25,13,0,2.897,1.726,5.608,5,7.864v4.136c0,.552.448,1,1,1s1-.448,1-1v-4.67c0-.339-.171-.655-.456-.839-2.073-1.345-4.544-3.562-4.544-6.491,0-5.962,10.533-11,23-11s23,5.038,23,11c0,2.929-2.471,5.146-4.544,6.491-.284.184-.456.5-.456.839v26.67c0,.551-.449,1-1,1H15c-.551,0-1-.449-1-1v-14c0-.552-.448-1-1-1s-1,.448-1,1v14c0,1.654,1.346,3,3,3h34c1.654,0,3-1.346,3-3v-26.136c3.274-2.256,5-4.967,5-7.864,0-7.29-10.981-13-25-13Z"/>
    <path d="M17,53h30c.552,0,1-.448,1-1v-26.305l1.37-.886c2.341-1.516,3.63-3.224,3.63-4.809,0-4.257-8.625-9-21-9s-21,4.743-21,9c0,1.585,1.289,3.293,3.63,4.809l1.37.886v26.305c0,.552.448,1,1,1ZM15.717,23.13c-2.006-1.299-2.717-2.498-2.717-3.13,0-2.468,7.213-7,19-7s19,4.532,19,7c0,.632-.711,1.832-2.717,3.13l-1.826,1.182c-.285.184-.457.5-.457.839v25.849h-28v-25.849c0-.339-.172-.655-.457-.839l-1.826-1.182Z"/>
    <path d="M22.036,43.472c-.024.175-.036.352-.036.528,0,2.206,1.794,4,4,4,.398,0,.789-.061,1.169-.181,1.226,1.242,3.294,1.534,4.831.636.607.355,1.295.545,2,.545,1.079,0,2.089-.43,2.831-1.181.38.121.771.181,1.169.181,2.206,0,4-1.794,4-4,0-.177-.012-.353-.036-.528,1.234-.696,2.036-2.014,2.036-3.472,0-.923-.316-1.8-.878-2.5.562-.7.878-1.577.878-2.5s-.316-1.8-.878-2.5c.562-.7.878-1.577.878-2.5s-.316-1.8-.878-2.5c.562-.7.878-1.577.878-2.5,0-1.458-.802-2.775-2.036-3.472.024-.175.036-.352.036-.528,0-2.206-1.794-4-4-4-.177,0-.353.012-.528.036-.696-1.234-2.014-2.036-3.472-2.036-.705,0-1.393.19-2,.545-.607-.355-1.295-.545-2-.545-1.458,0-2.775.802-3.472,2.036-.175-.024-.352-.036-.528-.036-2.206,0-4,1.794-4,4,0,.177.012.353.036.528-1.234.696-2.036,2.014-2.036,3.472,0,.923.316,1.8.878,2.5-.562.7-.878,1.577-.878,2.5s.316,1.8.878,2.5c-.562.7-.878,1.577-.878,2.5s.316,1.8.878,2.5c-.562.7-.878,1.577-.878,2.5,0,1.458.802,2.775,2.036,3.472ZM22.898,36.667c-.562-.373-.898-.996-.898-1.667s.335-1.294.898-1.667c.279-.186.447-.498.447-.833s-.168-.648-.447-.833c-.562-.373-.898-.996-.898-1.667s.335-1.294.898-1.667c.279-.186.447-.498.447-.833s-.168-.648-.447-.833c-.562-.373-.898-.996-.898-1.667,0-.894.609-1.683,1.481-1.919.275-.075.506-.264.634-.519.127-.256.14-.554.033-.818-.098-.245-.148-.495-.148-.744,0-1.352,1.414-2.384,2.744-1.852.265.107.563.095.818-.033.255-.127.444-.358.519-.634.236-.872,1.025-1.481,1.919-1.481.621,0,1.066.284,1.331.521.38.343.958.343,1.338,0,.265-.238.71-.521,1.331-.521.894,0,1.683.609,1.919,1.481.075.275.264.506.519.634.256.128.554.14.818.033,1.33-.533,2.743.5,2.744,1.852,0,.249-.05.499-.148.744-.106.265-.094.562.033.818.127.255.358.444.634.519.872.236,1.481,1.025,1.481,1.919,0,.671-.335,1.294-.898,1.667-.279.186-.447.498-.447.833s.168.648.447.833c.562.373.898.996.898,1.667s-.335,1.294-.898,1.667c-.279.186-.447.498-.447.833s.168.648.447.833c.562.373.898.996.898,1.667s-.335,1.294-.898,1.667c-.279.186-.447.498-.447.833s.168.648.447.833c.562.373.898.996.898,1.667,0,.894-.609,1.683-1.481,1.919-.275.075-.506.264-.634.519-.127.256-.14.554-.033.818.098.245.148.495.148.744,0,1.103-.897,2-2,2-.333,0-.661-.091-.977-.27-.467-.263-1.053-.116-1.338.335-.371.585-1.001.935-1.685.935-.621,0-1.066-.284-1.331-.521-.19-.171-.43-.257-.669-.257s-.479.085-.669.257c-.265.238-.71.521-1.331.521-.684,0-1.314-.35-1.685-.935-.286-.451-.873-.598-1.338-.335-.316.179-.645.27-.977.27-1.103,0-2-.897-2-2,0-.249.05-.499.148-.744.106-.265.094-.562-.033-.818-.127-.255-.358-.444-.634-.519-.872-.236-1.481-1.025-1.481-1.919,0-.671.335-1.294.898-1.667.279-.186.447-.498.447-.833s-.168-.648-.447-.833Z"/>
    <path d="M26.898,38.109c-.398.079-.71.39-.789.789-.058.295-.523,2.93.981,4.436.898.898,2.198,1.094,3.164,1.094.652,0,1.152-.089,1.271-.113.398-.079.71-.39.789-.789.058-.295.523-2.93-.981-4.436-1.504-1.504-4.139-1.04-4.436-.981ZM28.505,41.919c-.435-.435-.521-1.273-.502-1.917.638-.022,1.481.068,1.917.502.435.435.521,1.273.502,1.917-.64.019-1.482-.068-1.917-.502Z"/>
    <path d="M32.898,33.685c-.398.079-.71.39-.789.789-.058.295-.523,2.93.981,4.436.898.898,2.198,1.094,3.164,1.094.652,0,1.152-.089,1.271-.113.398-.079.71-.39.789-.789.058-.295.523-2.93-.981-4.436-1.504-1.504-4.139-1.039-4.436-.981ZM34.505,37.495c-.435-.435-.521-1.273-.502-1.917.638-.017,1.481.068,1.917.502.435.435.521,1.273.502,1.917-.641.018-1.482-.068-1.917-.502Z"/>
    <path d="M37.831,32.428c.652,0,1.152-.089,1.271-.113.398-.079.71-.39.789-.789.058-.295.523-2.93-.981-4.436-1.505-1.504-4.139-1.039-4.436-.981-.398.079-.71.39-.789.789-.058.295-.523,2.93.981,4.436.898.898,2.198,1.094,3.164,1.094ZM37.495,28.505c.435.435.521,1.273.502,1.917-.642.019-1.482-.068-1.917-.502-.435-.435-.521-1.273-.502-1.917.643-.021,1.481.067,1.917.502Z"/>
    <path d="M28.831,34.428c.652,0,1.152-.089,1.271-.113.398-.079.71-.39.789-.789.058-.295.523-2.93-.981-4.436-1.505-1.504-4.14-1.039-4.436-.981-.398.079-.71.39-.789.789-.058.295-.523,2.93.981,4.436.898.898,2.198,1.094,3.164,1.094ZM28.495,30.505c.435.435.521,1.273.502,1.917-.644.015-1.483-.068-1.917-.502-.435-.435-.521-1.273-.502-1.917.64-.02,1.482.067,1.917.502Z"/>
    <path d="M30.831,27.428c.652,0,1.152-.089,1.271-.113.398-.079.71-.39.789-.789.058-.295.523-2.93-.981-4.436-1.505-1.504-4.14-1.039-4.436-.981-.398.079-.71.39-.789.789-.058.295-.523,2.93.981,4.436.898.898,2.198,1.094,3.164,1.094ZM30.495,23.505c.435.435.521,1.273.502,1.917-.642.02-1.482-.068-1.917-.502-.435-.435-.521-1.273-.502-1.917.642-.02,1.481.067,1.917.502Z"/>
  </g>
  <circle cx="32" cy="32" r="1"/>
</svg>