<?xml version="1.0" encoding="UTF-8"?>
<svg id="Outline" xmlns="http://www.w3.org/2000/svg" version="1.1" viewBox="0 0 64 64">
  <!-- Generator: Adobe Illustrator 29.5.1, SVG Export Plug-In . SVG Version: 2.1.0 Build 141)  -->
  <path d="M40,25h-16c-1.654,0-3,1.346-3,3v1h-1c-.552,0-1,.447-1,1v4c0,.553.448,1,1,1h1.153l2.861,17.164c.08.482.498.836.986.836h14c.489,0,.906-.354.986-.836l2.861-17.164h1.153c.552,0,1-.447,1-1v-4c0-.553-.448-1-1-1h-1v-1c0-1.654-1.346-3-3-3ZM23,28c0-.552.449-1,1-1h16c.551,0,1,.448,1,1v1h-18v-1ZM38.153,51h-12.306l-2.667-16h17.639l-2.667,16ZM43,33h-22v-2h22v2Z"/>
  <path d="M50,38c.55,0,1-.45,1-1v-13c0-1.65-1.35-3-3-3v-7c0-.27-.11-.52-.29-.71l-6-6c-.19-.19-.45-.28-.71-.28v-.01h-18v.01c-.26,0-.52.09-.71.28l-6,6c-.18.19-.29.44-.29.71v7c-1.65,0-3,1.35-3,3v30c0,1.65,1.35,3,3,3h32c1.65,0,3-1.35,3-3v-13c0-.55-.45-1-1-1s-1,.45-1,1v13c0,.55-.45,1-1,1H16c-.55,0-1-.45-1-1v-30c0-.55.45-1,1-1h32c.55,0,1,.45,1,1v13c0,.55.45,1,1,1ZM22,21h-4v-6.59l4-4v10.59ZM40,13h-10c-.55,0-1,.45-1,1s.45,1,1,1h10v6h-16v-6h2c.55,0,1-.45,1-1s-.45-1-1-1h-2v-4h16v4ZM46,21h-4v-10.59l4,4v6.59Z"/>
</svg>