<?xml version="1.0" encoding="UTF-8"?>
<svg id="Outline" xmlns="http://www.w3.org/2000/svg" version="1.1" viewBox="0 0 64 64">
  <!-- Generator: Adobe Illustrator 29.5.1, SVG Export Plug-In . SVG Version: 2.1.0 Build 141)  -->
  <path d="M56,25h-1.72l.69-2.76c.07-.3.01-.61-.18-.86-.19-.24-.48-.38-.79-.38h-1.14c-.45-1.72-2-3-3.86-3s-3.41,1.28-3.86,3h-1.14c-.31,0-.6.14-.79.38-.19.25-.25.56-.18.86l.69,2.76h-2.72v-3c0-.55-.45-1-1-1h-1.08c-.44-3.06-2.86-5.48-5.92-5.92v-1.08c0-.55-.45-1-1-1s-1,.45-1,1v1.08c-3.06.44-5.48,2.86-5.92,5.92h-1.08c-.55,0-1,.45-1,1v3h-2.72l.69-2.76c.07-.3.01-.61-.18-.86-.19-.24-.48-.38-.79-.38h-1.14c-.45-1.72-2-3-3.86-3s-3.41,1.28-3.86,3h-1.14c-.31,0-.6.14-.79.38-.19.25-.25.56-.18.86l.69,2.76h-1.72c-.55,0-1,.45-1,1v4c0,.55.45,1,1,1h2v19c0,.55.45,1,1,1h4c.55,0,1-.45,1-1v-3h5.18c.42,1.16,1.52,2,2.82,2h16c1.3,0,2.4-.84,2.82-2h5.18v3c0,.55.45,1,1,1h4c.55,0,1-.45,1-1v-7c0-.55-.45-1-1-1s-1,.45-1,1v6h-2v-18h2v4c0,.55.45,1,1,1s1-.45,1-1v-4h2c.55,0,1-.45,1-1v-4c0-.55-.45-1-1-1ZM15,20c.74,0,1.37.41,1.72,1h-3.44c.35-.59.98-1,1.72-1ZM18.72,23l-.5,2h-6.44l-.5-2h7.44ZM14,49h-2v-18h2v18ZM21,45h-5v-2h5v2ZM21,41h-5v-10h5v10ZM21,29h-12v-2h12v2ZM32,17c2.41,0,4.43,1.72,4.9,4h-9.8c.47-2.28,2.49-4,4.9-4ZM25,47h-1c-.55,0-1-.45-1-1v-19h2v20ZM25,23h14v2h-14v-2ZM37,47h-10v-20h10v20ZM41,46c0,.55-.45,1-1,1h-1v-20h2v19ZM49,20c.74,0,1.37.41,1.72,1h-3.44c.35-.59.98-1,1.72-1ZM52.72,23l-.5,2h-6.44l-.5-2h7.44ZM48,45h-5v-2h5v2ZM48,41h-5v-10h5v10ZM55,29h-12v-2h12v2Z"/>
  <circle cx="53" cy="39" r="1"/>
</svg>