<?xml version="1.0" encoding="UTF-8"?>
<svg id="Outline" xmlns="http://www.w3.org/2000/svg" version="1.1" viewBox="0 0 64 64">
  <!-- Generator: Adobe Illustrator 29.5.1, SVG Export Plug-In . SVG Version: 2.1.0 Build 141)  -->
  <path d="M38,27h-1v-3c0-.54999-.45001-1-1-1h-6c-.54999,0-1,.45001-1,1v3h-2v-3c0-.54999-.45001-1-1-1h-6c-.54999,0-1,.45001-1,1v3h-2v-3c0-.54999-.45001-1-1-1h-6c-.54999,0-1,.45001-1,1v3h-1c-.54999,0-1,.45001-1,1v10c0,.54999.45001,1,1,1h30c.54999,0,1-.45001,1-1v-10c0-.54999-.45001-1-1-1ZM31,25h4v2h-4v-2ZM21,25h4v2h-4v-2ZM11,25h4v2h-4v-2ZM37,37H9v-8h28v8Z"/>
  <path d="M56,45h-1v-3c0-.54999-.45001-1-1-1h-6c-.54999,0-1,.45001-1,1v3h-2v-3c0-.54999-.45001-1-1-1h-6c-.54999,0-1,.45001-1,1v3h-2v-3c0-.54999-.45001-1-1-1h-6c-.54999,0-1,.45001-1,1v3h-1c-.54999,0-1,.45001-1,1v10c0,.54999.45001,1,1,1h30c.54999,0,1-.45001,1-1v-10c0-.54999-.45001-1-1-1ZM49,43h4v2h-4v-2ZM39,43h4v2h-4v-2ZM29,43h4v2h-4v-2ZM55,55h-28v-8h28v8Z"/>
  <path d="M56,11h-1v-3c0-.54999-.45001-1-1-1h-6c-.54999,0-1,.45001-1,1v3h-2v-3c0-.54999-.45001-1-1-1h-6c-.54999,0-1,.45001-1,1v3h-2c-.54999,0-1,.45001-1,1v8c0,.54999.45001,1,1,1h21c.54999,0,1-.45001,1-1v-8c0-.54999-.45001-1-1-1ZM49,9h4v2h-4v-2ZM39,9h4v2h-4v-2ZM55,19h-19v-6h19v6Z"/>
</svg>