<?xml version="1.0" encoding="UTF-8"?>
<svg id="Outline" xmlns="http://www.w3.org/2000/svg" version="1.1" viewBox="0 0 64 64">
  <!-- Generator: Adobe Illustrator 29.5.1, SVG Export Plug-In . SVG Version: 2.1.0 Build 141)  -->
  <path d="M56.52969,38.96997c-.02002-.54999-.52002-.98999-1.03003-.96997-.54999.01996-.97998.47998-.96997,1.02997l.43994,15.97003h-3.93994l.93994-34h2.06006l.38995,14.02997c.02002.54999.48999,1.01001,1.03003.97003.54999-.02002.97998-.48004.96997-1.03003l-.41998-15c-.02002-.53998-.46002-.96997-1-.96997h-1.67999c-4.51001-7.41003-12.62-12-21.32001-12-13.78998,0-25,11.20996-25,25s11.21002,25,25,25c2.38,0,4.72998-.35004,7-1.02002,0,.27002.09998.53003.28003.72003.18994.19.44995.29999.71997.29999h6c.27002,0,.53003-.10999.71997-.29999.19-.20001.29004-.46002.28003-.73004l-.10999-3.90997c.78998-.59003,1.54999-1.22003,2.26996-1.91003l-.15997,5.82001c-.01001.27002.09003.53003.28003.73004.18994.19.44995.29999.71997.29999h6c.27002,0,.53003-.10999.71997-.29999.19-.20001.29004-.46002.28003-.73004l-.46997-17ZM39.99966,19.96997l-.70001,25.14001c-2.21997,1.22998-4.72998,1.89001-7.29999,1.89001v-.04004c3.47998-.25995,6-1.87,6-3.95996,0-2.28003-3.01001-4-7-4s-7,1.71997-7,4v.03998c-.64001.04999-1.26001.14001-1.83002.28003-.90997-.80005-1.72998-1.69-2.41998-2.67004.15002-.17999.25-.39996.25-.64996v-2h5c.54999,0,1-.45001,1-1v-4h5c.54999,0,1-.45001,1-1v-4h5c.54999,0,1-.45001,1-1v-3c0-.54999-.45001-1-1-1s-1,.45001-1,1v2h-4v-12h4v6c0,.54999.45001,1,1,1s1-.45001,1-1v-1.75c.76001.32996,1.48999.73999,2.19,1.20001-.10999.14996-.17999.31995-.19.51996ZM25.99966,43c0-.82001,1.95001-2,5-2s5,1.17999,5,2-1.95001,2-5,2-5-1.17999-5-2ZM29.99966,47c0,.82001-1.95001,2-5,2s-5-1.17999-5-2c0-.81,1.90002-1.97003,4.89001-1.98999,1.02997,1.04999,2.85999,1.77997,5.09998,1.94995,0,.01001.01001.03003.01001.04004ZM23.99966,24v12h-4v-12h4ZM20.82967,22c.92999-1.03003,2-1.92999,3.16998-2.67004v2.67004h-3.16998ZM25.99966,31v-12h4v12h-4ZM41.02969,55l.00995-.32001v-.01001l.92999-33.66998h2.06006l.93994,34h-3.93994ZM46.19967,27.16998c.51996,1.53998.79999,3.16998.79999,4.83002,0,1.38-.19,2.73999-.54999,4.03998l-.25-8.87ZM49.99966,19.96997l-.76001,27.22003c-.75.84998-1.56,1.64996-2.41998,2.37l-.23999-8.81c1.57996-2.64001,2.41998-5.65002,2.41998-8.75,0-3.42999-1.02002-6.72003-2.92999-9.54004l-.07001-2.48999c-.02002-.53998-.46002-.96997-1-.96997h-2.06c-1.48999-1.25-3.14001-2.21002-4.94-2.89001v-3.10999c0-.54999-.45001-1-1-1h-6c-.54999,0-1,.45001-1,1v2.12c-5.88.70001-11.03998,4.47998-13.47998,9.88h-3.52002c-.54999,0-1,.45001-1,1v14c0,.54999.45001,1,1,1h4.59998c.71002,1.13,1.53003,2.17999,2.47003,3.10999-1.28998.71997-2.07001,1.72998-2.07001,2.89001,0,2.27997,3.01001,4,7,4,2.72998,0,4.98999-.79999,6.15997-2.04004.28003.02002.56.04004.84003.04004,2.52002,0,4.97998-.56,7.23999-1.62l-.17999,6.5c-2.27997.72998-4.65002,1.12-7.06,1.12-12.67999,0-23-10.32001-23-23S19.31966,9,31.99966,9c7.59003,0,14.70001,3.79999,18.96002,10.01001-.52002.01996-.94.44-.96002.95996ZM17.99966,27v12h-4v-12h4Z"/>
</svg>