<?xml version="1.0" encoding="UTF-8"?>
<svg id="Outline" xmlns="http://www.w3.org/2000/svg" version="1.1" viewBox="0 0 64 64">
  <!-- Generator: Adobe Illustrator 29.3.1, SVG Export Plug-In . SVG Version: 2.1.0 Build 151)  -->
  <path d="M39.32001,24.47998c-.82001-1.33997-1.84003-2.64001-3.03998-3.83997-2.39001-2.39001-5.19-4.09003-7.90002-4.81006-2.89001-.75995-5.35999-.31-6.94,1.28003-.78656.77667-1.29468,1.77197-1.50635,2.93549-.03516.04712-.07098.09387-.09772.1474l-5.58789,11.17529-6.95508,6.95459c-.1875.1875-.29297.44189-.29297.70703s.10547.51953.29297.70703l9.90039,9.90039c.1875.1875.44141.29297.70703.29297s.51953-.10547.70703-.29297l.70728-.7074,2.12085,2.12048c.19531.19531.45117.29297.70703.29297s.51172-.09766.70703-.29297l.70721-.70728,6.3631,6.36401c.1875.1875.44141.29297.70703.29297s.51953-.10547.70703-.29297l4.24316-4.24268c.26074-.26074.35742-.64404.25-.99658-.10645-.35303-.39941-.61865-.76074-.69092-2.11914-.42383-4.0459-1.45508-5.57422-2.98291l-1.69336-1.69336.70703-.70703c.39062-.39062.39062-1.02344,0-1.41406l-1.8468-1.84711,10.06848-5.03815c.0387-.01935.06165-.05701.09705-.08081.00824-.00146.01721-.00189.02539-.00342,1.17004-.22003,2.18005-.73004,2.97003-1.52002,1.58002-1.58002,2.03998-4.04999,1.27002-6.94-.35004-1.34998-.96002-2.72998-1.77002-4.07001ZM12.24225,41.85797l2.82904-2.82867,2.82812,2.82861-2.82843,2.8288-2.82874-2.82874ZM16.48505,46.10077l3.53546-3.53583c.39062-.39062.39062-1.02344,0-1.41406l-4.24219-4.24268c-.1875-.1875-.44141-.29297-.70703-.29297s-.51953.10547-.70703.29297l-3.53607,3.53571-1.41412-1.41412,5.65625-5.65576,1.45312,1.45312c.19531.19531.45117.29297.70703.29297s.51172-.09766.70702-.29297c.39063-.39062.39063-1.02344,0-1.41406l-1.65038-1.65039,3.86438-7.72833c.00214.00854.00848.01709.00848.02563.48004,1.83002,1.42004,3.70001,2.72003,5.45996.62.84003,1.32001,1.66003,2.08997,2.44.77002.78003,1.59003,1.48004,2.44,2.09003,1.76001,1.31,3.64001,2.23999,5.46002,2.71997.00732,0,.01459.00446.02191.00732l-7.72491,3.86578-1.58008-1.58008c-.39062-.39062-1.02344-.39062-1.41406,0s-.39062,1.02344,0,1.41406l1.38281,1.38281-5.65527,5.65625-1.41534-1.41534ZM26.77002,27.33008c.16998.65985.51001,1.27991,1.02997,1.79993.51001.51001,1.13.85999,1.79004,1.02997l-1.72003,1.72003c-.51001-.41003-1.01001-.86005-1.48999-1.34003s-.92993-.97992-1.32996-1.48993l1.71997-1.71997ZM29.21033,24.88977c.77997-.77966,2.0498-.77966,2.82965.00024.78003.77997.78003,2.04999,0,2.82996-.77997.78003-2.04999.77002-2.82996,0-.77991-.77985-.77991-2.04968-.00024-2.82965l.00055-.00055ZM22.14258,48.9292l-1.41388-1.41357,4.24243-4.24304,1.41364,1.41394-4.24219,4.24268ZM28.07812,49.20801c1.38281,1.38281,3.04199,2.42236,4.86816,3.05859l-2.31934,2.31934-5.65613-5.65704,1.414-1.41418,1.6933,1.6933ZM38.40997,34.07996c-1.06995,1.06006-2.84998,1.33002-5.02997.75-1.28003-.32996-2.59003-.92999-3.85999-1.75995l3.94-3.94c.04999-.05005.08997-.10004.13-.15002,1.42999-1.57001,1.37994-4-.13-5.51001-1.56-1.56-4.10004-1.56-5.66003,0-.00336.00336-.00555.00751-.00891.01093l-3.9303,3.9303c-.00024-.00043-.00055-.00079-.00079-.00122-.82996-1.26996-1.42999-2.58002-1.76996-3.85999-.57001-2.17999-.30005-3.97003.75995-5.03003.69-.69,1.70001-1.04999,2.93005-1.04999.63995,0,1.33997.10004,2.08997.29999,2.37.62006,4.85999,2.15002,7,4.29004s3.66998,4.63,4.28998,7c.57001,2.17999.31,3.95996-.75,5.01996Z"/>
  <path d="M45,7c-6.84082,0-12,2.57959-12,6,0,2.4668,2.65918,4.52686,7,5.4751v1.5249c0,.34662.17963.66835.47446.8505.29072.1796.66825.19526.9728.04403l3.79102-1.89551c6.72168-.05908,11.76172-2.61816,11.76172-5.99902,0-3.42041-5.15918-6-12-6ZM45,17c-.15527,0-.30859.03613-.44727.10547l-2.55273,1.27637v-.72803c0-.48486-.34766-.8999-.8252-.98438-3.57812-.63623-6.1748-2.17969-6.1748-3.66943,0-1.88818,4.27637-4,10-4s10,2.11182,10,4-4.27637,4-10,4Z"/>
  <circle cx="45" cy="13" r="1"/>
  <circle cx="41" cy="13" r="1"/>
  <circle cx="49" cy="13" r="1"/>
  <circle cx="20" cy="37" r="1"/>
</svg>