<?xml version="1.0" encoding="UTF-8"?>
<svg id="Outline" xmlns="http://www.w3.org/2000/svg" version="1.1" viewBox="0 0 64 64">
  <!-- Generator: Adobe Illustrator 29.3.1, SVG Export Plug-In . SVG Version: 2.1.0 Build 151)  -->
  <path d="M49,23h-7v-13c0-1.65002-1.34998-3-3-3H15c-1.65002,0-3,1.34998-3,3v14c0,.54999.45001,1,1,1s1-.45001,1-1v-10c0-.54999.45001-1,1-1h24c.54999,0,1,.45001,1,1v9h-11c-1.65002,0-3,1.34998-3,3,0,0,0,22,0,22.00009.00008.86124,1.09726,1.32263,1.71002.70987l3.69995-3.70996h8.59003v5c0,.54999-.45001,1-1,1H15c-.54999,0-1-.45001-1-1v-18c0-.54999-.45001-1-1-1s-1,.45001-1,1v22c0,1.64996,1.34998,3,3,3h24c1.65002,0,3-1.35004,3-3v-9h7c1.65002,0,3-1.35004,3-3v-16c0-1.65002-1.34998-3-3-3ZM40,54c0,.54999-.45001,1-1,1H15c-.54999,0-1-.45001-1-1v-1.17999c.31.10999.65002.17999,1,.17999h24c.34998,0,.69-.07001,1-.17999v1.17999ZM39,11H15c-.34998,0-.69.07001-1,.17999v-1.17999c0-.54999.45001-1,1-1h24c.54999,0,1,.45001,1,1v1.17999c-.31-.10999-.65002-.17999-1-.17999ZM50,42c0,.54999-.45001,1-1,1h-18c-.27002,0-.52002.10999-.71002.28998l-2.28998,2.29999v-19.58997c0-.54999.45001-1,1-1h20c.54999,0,1,.45001,1,1v16Z"/>
  <path d="M48,32c0-2.75684-2.24316-5-5-5h-8c-2.75684,0-5,2.24316-5,5,0,.55273.44727,1,1,1h.18427c-.11206.31433-.18427.64764-.18427,1s.07227.68567.18433,1h-.18433c-.55273,0-1,.44727-1,1,0,2.75684,2.24316,5,5,5h8c2.75684,0,5-2.24316,5-5,0-.55273-.44727-1-1-1h-.18427c.11206-.31433.18427-.64764.18427-1s-.0722-.68567-.18427-1h.18427c.55273,0,1-.44727,1-1ZM35,29h8c1.30371,0,2.41602.83594,2.8291,2h-13.6582c.41309-1.16406,1.52539-2,2.8291-2ZM43,39h-8c-1.30371,0-2.41602-.83594-2.8291-2h13.6582c-.41309,1.16406-1.52539,2-2.8291,2ZM45,34c0,.55176-.44824,1-1,1h-10c-.55176,0-1-.44824-1-1s.44824-1,1-1h10c.55176,0,1,.44824,1,1Z"/>
  <path d="M21,29c.32812,0,.63574-.16113.82324-.43164.69727-1.00977,4.17676-6.16895,4.17676-8.56836,0-2.75684-2.24316-5-5-5s-5,2.24316-5,5c0,2.39941,3.47949,7.55859,4.17676,8.56836.1875.27051.49512.43164.82324.43164ZM21,17c1.6543,0,3,1.3457,3,3,0,1.0918-1.56055,3.94238-3,6.19141-1.43945-2.24902-3-5.09961-3-6.19141,0-1.6543,1.3457-3,3-3Z"/>
  <circle cx="21" cy="20" r="1"/>
  <path d="M16,46c0,1.6543,1.3457,3,3,3h5c.55273,0,1-.44727,1-1s-.44727-1-1-1h-5c-.55176,0-1-.44824-1-1v-6c0-.55176.44824-1,1-1,1.6543,0,3-1.3457,3-3v-4c0-.55273-.44727-1-1-1s-1,.44727-1,1v4c0,.55176-.44824,1-1,1-1.6543,0-3,1.3457-3,3v6Z"/>
  <circle cx="13" cy="28" r="1"/>
</svg>