<?xml version="1.0" encoding="UTF-8"?>
<svg id="Outline" xmlns="http://www.w3.org/2000/svg" version="1.1" viewBox="0 0 64 64">
  <!-- Generator: Adobe Illustrator 29.5.1, SVG Export Plug-In . SVG Version: 2.1.0 Build 141)  -->
  <path d="M32,15c.55225,0,1-.44775,1-1v-2c0-.55225-.44775-1-1-1s-1,.44775-1,1v2c0,.55225.44775,1,1,1Z"/>
  <path d="M36.70709,14.12115c.38775.38769,1.0267.38724,1.414-.00006.39062-.39062.39062-1.02344,0-1.41406l-1.41406-1.41406c-.39062-.39062-1.02344-.39062-1.41406,0s-.39062,1.02344,0,1.41406c0,0,1.41406,1.41406,1.41412,1.41412Z"/>
  <path d="M26.58594,14.41406c.25586,0,.51172-.09766.70703-.29297l1.41406-1.41406c.39062-.39062.39062-1.02344,0-1.41406s-1.02344-.39062-1.41406,0l-1.41405,1.41405c-.61153.61153-.15718,1.70705.70702,1.70705Z"/>
  <path d="M56,49h-7.10999c1.29999-1.27002,2.10999-3.04004,2.10999-5v-4c0-.54999-.45001-1-1-1h-1v-4.56c.33002-.19.64001-.41003.90997-.69.76001-.79999,1.15002-1.85004,1.09003-2.96002-.03003-.58997-.21997-1.15997-.51001-1.67999.94-.71997,1.51001-1.83002,1.51001-3.10999,0-1.27002-.48999-2.42999-1.28003-3.31.17004-.17999.28003-.42004.28003-.69,0-8.27002-6.72998-15-15-15h-8c-8.27002,0-15,6.72998-15,15,0,.54999.45001,1,1,1h1.03998c-.63995.84998-1.03998,1.90997-1.03998,3.08997,0,.65002.16998,1.28003.47998,1.84003-.04999.02997-.09998.03998-.14996.08002-.91003.81995-1.39001,1.97998-1.33002,3.20996.08002,1.33002.87,2.5,2,3.17004v4.60999h-1c-.54999,0-1,.45001-1,1v4c0,1.95996.81,3.72998,2.10999,5h-7.10999c-.54999,0-1,.45001-1,1,0,3.85999,3.14001,7,7,7h36c3.85999,0,7-3.14001,7-7,0-.54999-.45001-1-1-1ZM50,26.08997c0,.60004-.28998,1.14001-.78998,1.48004-.5.33997-1.11005.40997-1.67004.17999-.44995-.17999-.92999-.27002-1.40997-.27002-.58002,0-1.16998.14001-1.70001.40002l-1.63.82001c-.5.25-1.09998.25-1.59998,0l-1.63-.82001c-.97003-.48004-2.10004-.53003-3.10999-.13l-2.79004,1.12c-.42999.16998-.90997.16998-1.33997,0l-2.79004-1.12c-.45996-.17999-.92999-.27002-1.40997-.27002-.59003,0-1.16998.14001-1.70001.40002l-1.63.82001c-.5.25-1.09998.25-1.59998,0l-1.63-.82001c-.97003-.48004-2.10004-.53003-3.10999-.13-.56.22998-1.17004.15997-1.67004-.17999-.5-.34003-.78998-.88-.78998-1.57001,0-1.65002,1.34998-3,3-3h28c1.65002,0,3,1.34998,3,3.08997ZM28,9h8c6.83002,0,12.45001,5.29999,12.96002,12H15.03998c.51001-6.70001,6.13-12,12.96002-12ZM15.66998,29.51001c.06-.06.10004-.13.14001-.20001,1.02002.63,2.28003.75,3.40002.29999.46997-.19,1.00995-.16998,1.46997.06l1.62.81c1.07001.53998,2.33002.53998,3.40002,0l1.62-.81c.46002-.22998,1-.25,1.46997-.06l2.80005,1.12c.44995.17999.92999.27002,1.40997.27002s.96002-.09003,1.40997-.27002l2.80005-1.12c.46997-.19,1.00995-.16998,1.46997.06l1.62.81c1.07001.53998,2.33002.53998,3.40002,0l1.62-.81c.46002-.22998,1-.25,1.46997-.06.59003.22998,1.21002.32001,1.82001.25.23004.31.37.65997.39001,1.03003.03003.56-.15997,1.07996-.53998,1.47998-.39001.40997-.90002.63-1.46002.63h-17c-1.65002,0-3,1.34998-3,3v3.89001c0,.53998-.35999,1.01996-.82001,1.08997-.31.04999-.59998-.02002-.83002-.21997-.21997-.19-.34998-.47003-.34998-.76001v-4c0-1.65002-1.34998-3-3-3h-4.83002c-1.13995,0-2.10999-.85004-2.16998-1.89001-.03003-.60999.21002-1.20001.66998-1.59998ZM29,39v-3c0-.54999.45001-1,1-1h17v4h-18ZM42.29999,41l-4.29999,3.67999-4.29999-3.67999h8.59998ZM23,36v3h-6v-4h5c.54999,0,1,.45001,1,1ZM15,44v-3h8.19c.16998.48999.46002.94.87,1.28998.54999.46002,1.22998.71002,1.94007.71002,1.26077-.00004,2.36049-.83206,2.79992-2h1.83002l6.71997,5.76001c.19.15997.42004.23999.65002.23999s.46002-.08002.65002-.23999l6.71997-5.76001h3.63v3c0,2.76001-2.23999,5-5,5h-24c-2.76001,0-5-2.23999-5-5ZM50,55H14c-2.40997,0-4.44-1.72003-4.90002-4h45.80005c-.46002,2.27997-2.49005,4-4.90002,4Z"/>
</svg>