<?xml version="1.0" encoding="UTF-8"?>
<svg id="Outline" xmlns="http://www.w3.org/2000/svg" version="1.1" viewBox="0 0 48 48">
  <!-- Generator: Adobe Illustrator 29.5.1, SVG Export Plug-In . SVG Version: 2.1.0 Build 141)  -->
  <path d="M39,35h-.18c.11-.32.18-.65.18-1,0-.77-.3-1.47-.78-2,.5-.55.78-1.25.78-2,0-.77-.3-1.47-.78-2,.48-.53.78-1.23.78-2,0-1.07-.56-2-1.4-2.53.25-.44.4-.93.4-1.47,0-.35-.07-.69-.18-1h1.18c.55,0,1-.45,1-1,0-8.27-6.73-15-15-15h-2c-8.27,0-15,6.73-15,15,0,.55.45,1,1,1h1.18c-.11.31-.18.65-.18,1,0,.54.15,1.03.4,1.47-.84.53-1.4,1.46-1.4,2.53s.56,2,1.4,2.53c-.25.44-.4.94-.4,1.47,0,.77.3,1.47.78,2-.5.55-.78,1.25-.78,2,0,.35.07.69.18,1h-1.18c-.55,0-1,.45-1,1v2c0,2.76,2.24,5,5,5h22c2.76,0,5-2.24,5-5v-2c0-.55-.45-1-1-1ZM10.04,19c.51-6.7,6.13-12,12.96-12h2c6.83,0,12.45,5.3,12.96,12H10.04ZM36.69,30.71c-.18.19-.42.29-.69.29h-9v-1c0-.55.45-1,1-1h8c.55,0,1,.45,1,1,0,.27-.1.51-.31.71ZM37,34c0,.27-.1.51-.31.71-.18.19-.42.29-.69.29h-9.18c.11-.31.18-.65.18-1v-1h9c.55,0,1,.45,1,1ZM36,27h-8c-1.65,0-3,1.35-3,3v4c0,.55-.45,1-1,1s-1-.45-1-1v-4c0-1.65-1.35-3-3-3s-3,1.35-3,3c0,.55-.45,1-1,1s-1-.45-1-1c0-1.4-.97-2.57-2.27-2.9-.24-.06-.48-.1-.73-.1-.55,0-1-.45-1-1s.45-1,1-1h24c.55,0,1,.45,1,1s-.45,1-1,1ZM12.31,33.29c.18-.19.42-.29.69-.29h8v1c0,.35.07.69.18,1h-8.18c-.55,0-1-.45-1-1,0-.27.1-.51.31-.71ZM12,30c0-.27.1-.51.3-.7.05-.05.11-.1.19-.15.3.17.51.48.51.85,0,.35.07.69.18,1h-.18c-.55,0-1-.45-1-1ZM18.82,31c.11-.31.18-.65.18-1,0-.55.45-1,1-1s1,.45,1,1v1h-2.18ZM12,22c0-.55.45-1,1-1h22c.55,0,1,.45,1,1s-.45,1-1,1H13c-.55,0-1-.45-1-1ZM38,38c0,1.65-1.35,3-3,3H13c-1.65,0-3-1.35-3-3v-1h28v1Z"/>
  <path d="M24,14c.552,0,1-.448,1-1v-2c0-.552-.448-1-1-1s-1,.448-1,1v2c0,.552.448,1,1,1Z"/>
  <path d="M27.091,12.239c.198.236.481.357.766.357.833,0,1.302-1.005.766-1.643l-1.286-1.532c-.354-.424-.986-.477-1.409-.124-.423.355-.479.986-.124,1.409l1.286,1.532Z"/>
  <path d="M20.143,12.594c.286,0,.57-.121.767-.355l1.286-1.532c.355-.423.3-1.054-.124-1.409-.422-.354-1.053-.3-1.409.124l-1.286,1.532c-.534.636-.059,1.642.766,1.641Z"/>
</svg>