<?xml version="1.0" encoding="UTF-8"?>
<svg id="Outline" xmlns="http://www.w3.org/2000/svg" version="1.1" viewBox="0 0 64 64">
  <!-- Generator: Adobe Illustrator 29.5.1, SVG Export Plug-In . SVG Version: 2.1.0 Build 141)  -->
  <path d="M56,40h-10.18c.11-.31.18-.65.18-1v-2.58c.17-.07.34-.13.5-.23.94-.58,1.5-1.59,1.5-2.69v-.34c0-1.1-.57-2.07-1.43-2.64.27-.45.43-.96.43-1.52,0-.76-.29-1.46-.78-2,.48-.53.78-1.23.78-2,0-.81-.32-1.57-.87-2.11-.04-.04-.09-.07-.13-.1v-3.79c0-3.86-3.14-7-7-7h-10c-.55,0-1,.45-1,1s.45,1,1,1h10c2.76,0,5,2.24,5,5v3h-24v-3c0-2.76,2.24-5,5-5,.55,0,1-.45,1-1s-.45-1-1-1c-3.86,0-7,3.14-7,7v3.78c-.61.55-1,1.34-1,2.22,0,.76.29,1.46.78,2-.48.53-.78,1.23-.78,2,0,.55.16,1.07.43,1.52-.86.57-1.43,1.54-1.43,2.64v.64c0,1.06.52,2.03,1.39,2.62.19.13.4.23.61.32v2.26c0,.35.07.69.18,1h-10.18c-.55,0-1,.45-1,1v2c0,1.65,1.35,3,3,3h.28l1.77,5.32c.14.4.52.68.95.68h38c.43,0,.81-.28.95-.68l1.77-5.32h.28c1.65,0,3-1.35,3-3v-2c0-.55-.45-1-1-1ZM38.5,24h5.5c.27,0,.51.1.71.31.19.18.29.42.29.69,0,.55-.45,1-1,1h-7l1.5-2ZM45,29c0,.55-.45,1-1,1h-10l1.5-2h8.5c.27,0,.51.1.71.31.19.18.29.42.29.69ZM36,24l-4,5.33-4-5.33h8ZM20,24h5.5l1.5,2h-7c-.27,0-.51-.1-.71-.31-.19-.18-.29-.42-.29-.69,0-.55.45-1,1-1ZM20,28h8.5l1.5,2h-10c-.27,0-.51-.1-.71-.31-.19-.18-.29-.42-.29-.69,0-.55.45-1,1-1ZM18,33.8v-.64c0-.64.52-1.16,1.16-1.16h25.68c.64,0,1.16.52,1.16,1.16v.34c0,.41-.2.77-.55.99-.35.22-.76.24-1.13.05-.81-.4-1.76-.44-2.59-.11l-3.37,1.35c-.25.1-.54.11-.8.02l-4.49-1.5c-.33-.11-.66-.16-1-.16-.4,0-.8.08-1.18.23l-3.46,1.38c-.28.11-.58.11-.86,0l-3.4-1.36c-.75-.3-1.59-.3-2.34,0l-1.23.49c-.37.15-.76.11-1.09-.11-.32-.22-.51-.57-.51-.97ZM50.28,50H13.72l-1.33-4h39.22l-1.33,4ZM55,43c0,.55-.45,1-1,1H10c-.55,0-1-.45-1-1v-1h27c.55,0,1-.45,1-1s-.45-1-1-1h-15c-.55,0-1-.45-1-1v-2.17c.11-.03.23-.04.34-.09l1.23-.49c.28-.11.58-.11.86,0l3.4,1.36c.75.3,1.59.3,2.35,0l3.46-1.39c.25-.1.53-.11.8-.02l4.49,1.5c.33.11.66.16,1,.16.4,0,.8-.08,1.18-.23l3.36-1.34c.31-.12.66-.11.95.04.19.09.38.15.58.2v2.47c0,.55-.45,1-1,1h-3c-.55,0-1,.45-1,1s.45,1,1,1h15v1Z"/>
</svg>