<?xml version="1.0" encoding="UTF-8"?>
<svg id="Outline" xmlns="http://www.w3.org/2000/svg" version="1.1" viewBox="0 0 64 64">
  <!-- Generator: Adobe Illustrator 29.5.1, SVG Export Plug-In . SVG Version: 2.1.0 Build 141)  -->
  <path d="M56.13,45.891c-.37-.37-.82-.62-1.31-.76.11-.36.18-.74.18-1.13.55,0,1-.45,1-1v-4c0-3.86-3.14-7-7-7h-3c-.55,0-1,.45-1,1s.45,1,1,1h3c2.76,0,5,2.24,5,5v3h-24v-3c0-2.76,2.24-5,5-5h3c.55,0,1-.45,1-1s-.45-1-1-1h-3c-.11,0-.21.01-.32.02l.31-1.86c.04-.29-.04-.58-.23-.81-.19-.22-.47-.35-.76-.35h-2v-8c0-.31-.15-.61-.4-.8l-4-3c-.3-.23-.71-.26-1.05-.09-.34.17-.55.51-.55.89v1l-2-1.5v-7.5c0-.31-.14-.6-.38-.79-.25-.19-.56-.26-.86-.18l-4,1c-.45.11-.76.51-.76.97v2.38l-2,1v-4.38c0-.55-.45-1-1-1h-4c-.55,0-1,.45-1,1v19h-2c-.3,0-.59.14-.78.37-.19.23-.26.54-.2.83l5,24c.1.47.51.8.98.8h17c.28,0,.52-.12.7-.31.4.19.83.31,1.3.31h20c1.65,0,3-1.35,3-3v-1.18c1.16-.42,2-1.52,2-2.82,0-.81-.32-1.57-.87-2.11ZM53,44.001c0,1.1-.9,2-2,2s-2-.9-2-2h4ZM47,44.001c0,1.1-.9,2-2,2s-2-.9-2-2h4ZM41,44.001c0,1.1-.9,2-2,2s-2-.9-2-2h4ZM35,44.001c0,1.1-.9,2-2,2s-2-.9-2-2h4ZM28,20.001l2,1.5v7.5h-2v-9ZM24,20.001l2,1.5v7.5h-2v-9ZM20,11.781l2-.5v17.72h-2V11.781ZM16,16.621l2-1v13.38h-2v-12.38ZM12,11.001h2v18h-2V11.001ZM29.15,53.001h-15.34l-4.58-22h23.59l-.24,1.44c-2.67.99-4.58,3.55-4.58,6.56v4c0,.55.45,1,1,1,0,.39.07.77.18,1.13-1.25.36-2.18,1.5-2.18,2.87,0,.81.32,1.57.87,2.11.32.33.71.56,1.13.71v1.18c0,.33.07.64.16.93l-.01.07ZM53,52.001c0,.55-.45,1-1,1h-20c-.55,0-1-.45-1-1v-1h22v1ZM54,49.001h-24c-.27,0-.51-.1-.71-.31-.19-.18-.29-.42-.29-.69,0-.55.45-1,1-1h.38c.71.61,1.61,1,2.62,1,1.2,0,2.27-.54,3-1.38.73.84,1.8,1.38,3,1.38s2.27-.54,3-1.38c.73.84,1.8,1.38,3,1.38s2.27-.54,3-1.38c.73.84,1.8,1.38,3,1.38,1.01,0,1.91-.39,2.62-1h.38c.27,0,.51.1.71.31.19.18.29.42.29.69,0,.55-.45,1-1,1Z"/>
  <circle cx="42" cy="33.001" r="1"/>
</svg>