<?xml version="1.0" encoding="UTF-8"?>
<svg id="Outline" xmlns="http://www.w3.org/2000/svg" version="1.1" viewBox="0 0 64 64">
  <!-- Generator: Adobe Illustrator 29.5.1, SVG Export Plug-In . SVG Version: 2.1.0 Build 141)  -->
  <path d="M56,28.499h-.85l1.84-12.86c.04-.29-.04-.58-.23-.8-.19-.21-.47-.34-.76-.34h-3.33l.32-2.89c.04-.28-.05-.57-.24-.78-.19-.21-.47-.33-.75-.33h-4c-.51,0-.94.38-.99.89l-1.9,17.11h-1.11v-13c0-.55-.45-1-1-1h-3v-3c0-.38-.21-.72-.55-.89l-4-2c-.31-.16-.68-.14-.98.04-.29.18-.47.5-.47.85v3.38l-3.45,1.73c-.34.17-.55.51-.55.89v13c-.29,0-.57.13-.76.35-.19.23-.27.52-.23.81l.31,1.86c-.11-.01-.21-.02-.32-.02h-14c-3.86,0-7,3.14-7,7v4c0,.55.45,1,1,1v2.18c-.42.15-.8.38-1.11.69-.57.56-.89,1.32-.89,2.13,0,1.3.84,2.4,2,2.82v1.18c0,1.65,1.35,3,3,3h20c.47,0,.9-.12,1.3-.31.18.19.42.31.7.31h7c.55,0,1-.45,1-1s-.45-1-1-1h-6.15l-.01-.07c.09-.29.16-.6.16-.93v-1.18c.42-.15.8-.38,1.11-.69.57-.56.89-1.32.89-2.13,0-1.3-.84-2.4-2-2.82v-2.18c.55,0,1-.45,1-1v-4c0-3.01-1.91-5.57-4.58-6.56l-.24-1.44h23.6l-4.6,23h-5.18c-.55,0-1,.45-1,1s.45,1,1,1h6c.48,0,.89-.34.98-.8l5-25c.06-.3-.02-.6-.21-.83-.19-.24-.47-.37-.77-.37ZM33,52.499c0,.55-.45,1-1,1H12c-.55,0-1-.45-1-1v-1h22v1ZM35,48.499c0,.27-.1.51-.31.71-.18.19-.42.29-.69.29H10c-.55,0-1-.45-1-1,0-.27.1-.51.31-.71.18-.19.42-.29.69-.29h24c.55,0,1,.45,1,1ZM34,38.499v3h-4c-.55,0-1,.45-1,1s.45,1,1,1h3v2H11v-2h15c.55,0,1-.45,1-1s-.45-1-1-1H10v-3c0-2.76,2.24-5,5-5h14c2.76,0,5,2.24,5,5ZM34,28.499h-2v-12.38l2-1v13.38ZM38,28.499h-2V11.119l2,1v16.38ZM42,28.499h-2v-12h2v12ZM49.1,28.499h-1.98l1.78-16h1.98l-1.78,16ZM53.13,28.499h-1.98l1.72-12h1.98l-1.72,12Z"/>
</svg>