<?xml version="1.0" encoding="UTF-8"?>
<svg id="Outline" xmlns="http://www.w3.org/2000/svg" version="1.1" viewBox="0 0 64 64">
  <!-- Generator: Adobe Illustrator 29.5.1, SVG Export Plug-In . SVG Version: 2.1.0 Build 141)  -->
  <path d="M55.8414,41.13c.09998-.36005.15997-.73999.15997-1.13,0-.77002-.22998-1.48004-.59998-2.08002.34998-.15997.59998-.51001.59998-.91998,0-7.17004-5.83002-13-13-13h-6c-2.17999,0-4.23999.54999-6.03998,1.5l.03998-.40002c.02002-.27997-.07001-.56-.26001-.77002-.19-.20996-.45996-.32996-.73999-.32996h-9.04999l-4.48999-15.28003c-.13-.42999-.52002-.71997-.96002-.71997h-7.5c-.54999,0-1,.45001-1,1v4c0,.54999.45001,1,1,1h3.75l2.94,10h-6.69c-.28003,0-.54999.12-.73999.32996-.19.21002-.28003.49005-.26001.77002l3,30c.06.51001.48999.90002,1,.90002h16c.37,0,.67999-.20001.85999-.5.65002.31,1.37.5,2.14001.5h20c2.76001,0,5-2.23999,5-5v-.98999c.28003-.10004.56-.23004.81-.42004.76001-.57001,1.19-1.44995,1.19-2.39996v-3.69c0-.94-.42999-1.79999-1.15997-2.37ZM37.00137,26h6c5.72998,0,10.45001,4.39996,10.96002,10h-27.92004c.51001-5.60004,5.23004-10,10.96002-10ZM54.00137,40c0,.16998-.03003.33997-.07001.5-.25.01001-.5.03998-.75.10999l-3.71002,1.06c-.23999.07001-.48999.04999-.71997-.07001l-2.5-1.25c-.77002-.38-1.65997-.41998-2.46002-.09998l-3.41998,1.37c-.23999.09998-.5.09998-.73999,0l-3.52002-1.41003c-.70996-.27997-1.51001-.27997-2.21997,0l-3.58002,1.44c-.21997.08002-.46997.09003-.69.02002l-2.66998-.90002c-.28003-.08997-.56-.12994-.84003-.13995-.07001-.20001-.10999-.41003-.10999-.63,0-.53003.21002-1.03003.59003-1.41003.37994-.38.87994-.58997,1.40997-.58997h24c1.09998,0,2,.89996,2,2ZM13.46139,12.71997c-.13-.42999-.52002-.71997-.96002-.71997h-3.5v-2h5.75l4.10999,14h-2.07996l-3.32001-11.28003ZM11.91134,54l-2.79999-28h19.79004l-.10004.91998c-2.91998,2.39001-4.79999,6.02002-4.79999,10.08002,0,.40997.25.76001.59998.90997-.38.63-.59998,1.34003-.59998,2.09003,0,.41998.07001.83997.20001,1.22998-.76001.57001-1.20001,1.44-1.20001,2.39001v3.45001c0,.97998.45001,1.85999,1.25,2.42999.22998.16998.48999.28998.75.39001v1.10999c0,1.13.39001,2.15997,1.03003,3h-14.12006ZM53.00137,51c0,1.64996-1.34998,3-3,3h-20c-1.65002,0-3-1.35004-3-3v-1.10004l2.62-.87c.22998-.07996.47003-.07001.69.02002l3.58002,1.42999c.35999.14001.72998.21002,1.10999.21002s.75-.07001,1.10999-.21002l3.52002-1.40997c.23999-.09003.5-.09003.73999,0l3.41998,1.37c.80005.32001,1.69.27997,2.46002-.10004l2.5-1.25c.22998-.10999.47998-.13995.71997-.07001l3.53003,1.01001v.97003ZM55.00137,47.19c0,.32001-.14001.60999-.40002.79999-.25.19-.56995.25-.88.16998l-3.69995-1.06c-.72003-.20996-1.48999-.14001-2.16003.20001l-2.5,1.25c-.26001.13-.56.14001-.82001.02997l-3.42999-1.37c-.70996-.27997-1.51001-.27997-2.21997,0l-3.52002,1.41003c-.23999.09998-.5.09998-.73999,0l-3.58002-1.42999c-.34998-.14001-.72998-.21002-1.10999-.21002-.32001,0-.64001.04999-.95001.15002l-2.66998.88995c-.31.10004-.64001.05005-.90002-.13995-.26996-.19-.41998-.48004-.41998-.81v-3.45001c0-.32001.15002-.62.41998-.81.26001-.19.59003-.23999.90002-.14001l2.66998.89001c.66998.22998,1.40002.20996,2.06-.06l3.58002-1.42999c.23999-.09003.5-.09003.73999,0l3.52002,1.40997c.70996.28003,1.51001.28003,2.21997,0l3.42999-1.37c.26001-.10999.56-.09998.82001.03003l2.5,1.25c.67004.33997,1.44.40997,2.16003.19995l3.69995-1.04999c.31006-.08997.63-.02997.88.16003.26001.19.40002.47998.40002.79999v3.69Z"/>
</svg>