<?xml version="1.0" encoding="UTF-8"?>
<svg id="Outline" xmlns="http://www.w3.org/2000/svg" version="1.1" viewBox="0 0 64 64">
  <!-- Generator: Adobe Illustrator 29.5.1, SVG Export Plug-In . SVG Version: 2.1.0 Build 141)  -->
  <path d="M56.88,46.53c-.17-.33-.51-.53-.88-.53h-10.03c.64-.84,1.03-1.87,1.03-3v-.99c.28-.11.56-.24.81-.43.76-.57,1.19-1.44,1.19-2.39v-3.69c0-.94-.43-1.8-1.16-2.37.1-.36.16-.74.16-1.13,0-1.2-.54-2.27-1.38-3,.07-.06.14-.11.21-.17.75-.76,1.17-1.76,1.17-2.83,0-.77-.23-1.48-.6-2.08.35-.16.6-.51.6-.92,0-7.17-5.83-13-13-13h-6c-7.17,0-13,5.83-13,13,0,.41.25.76.6.91-.38.63-.6,1.34-.6,2.09,0,1.2.54,2.27,1.38,3-.07.06-.14.11-.21.17-.75.76-1.17,1.76-1.17,2.83,0,.42.07.84.2,1.23-.75.57-1.2,1.45-1.2,2.39v3.45c0,.98.45,1.87,1.25,2.44.23.16.49.28.75.38v1.11c0,1.13.39,2.16,1.03,3h-10.03c-.37,0-.71.2-.88.53-.18.32-.16.72.05,1.02l4,6c.18.28.5.45.83.45h40c.33,0,.65-.17.83-.45l4-6c.21-.3.23-.7.05-1.02ZM29,12h6c5.73,0,10.45,4.4,10.96,10h-27.92c.51-5.6,5.23-10,10.96-10ZM18.59,24.59c.38-.38.88-.59,1.41-.59h24c1.1,0,2,.9,2,2,0,.53-.21,1.03-.59,1.41-.38.38-.88.59-1.41.59h-14c-1.65,0-3,1.35-3,3v4c0,.55-.45,1-1,1s-1-.45-1-1v-4c0-1.65-1.35-3-3-3h-2c-1.1,0-2-.9-2-2,0-.53.21-1.03.59-1.41ZM46,32c0,.17-.03.34-.07.5-.25.01-.5.04-.76.11l-3.7,1.06c-.23.07-.5.04-.72-.06l-2.5-1.25c-.75-.39-1.65-.43-2.45-.11l-3.44,1.37c-.22.09-.5.09-.73,0l-2.63-1.06v-1.56c0-.55.45-1,1-1h14c1.1,0,2,.9,2,2ZM18.59,30.59c.38-.38.88-.59,1.41-.59h2c.55,0,1,.45,1,1v2.36l-.7.28c-.21.09-.45.1-.68.02l-2.67-.89c-.28-.09-.56-.13-.85-.14-.06-.2-.1-.41-.1-.63,0-.53.21-1.03.59-1.41ZM17.42,39.88c-.27-.19-.42-.48-.42-.81v-3.45c0-.32.15-.62.42-.81.1-.08.22-.13.34-.16.02,0,.04-.01.06-.01.16-.03.33-.03.49.03l2.67.89c.69.23,1.42.2,2.07-.06.24,1.42,1.47,2.5,2.95,2.5,1.65,0,3-1.35,3-3v-.28l1.88.76c.71.28,1.53.28,2.23,0l3.43-1.37c.27-.11.56-.1.81.03l2.51,1.26c.68.33,1.45.4,2.17.19l3.69-1.06c.31-.08.63-.02.88.17s.4.48.4.8v3.69c0,.32-.15.61-.4.8s-.57.25-.87.17l-3.7-1.06c-.72-.21-1.49-.14-2.18.2l-2.5,1.25c-.25.13-.54.14-.81.03l-3.43-1.37c-.7-.28-1.52-.28-2.22,0l-3.53,1.41c-.22.09-.5.09-.73,0l-3.57-1.43c-.66-.26-1.39-.29-2.08-.06l-2.67.89c-.3.1-.63.05-.89-.14ZM45,42.03v.97c0,1.65-1.35,3-3,3h-20c-1.65,0-3-1.35-3-3v-1.1l2.62-.87c.22-.08.47-.07.69.02l3.57,1.43c.36.14.74.21,1.12.21s.76-.07,1.11-.21l3.52-1.41c.23-.09.51-.1.74,0l3.43,1.37c.8.32,1.7.28,2.45-.11l2.49-1.24c.23-.11.5-.14.73-.07l3.53,1.01ZM51.46,52H12.54l-2.67-4h44.26l-2.67,4Z"/>
</svg>