<?xml version="1.0" encoding="UTF-8"?>
<svg id="Outline" xmlns="http://www.w3.org/2000/svg" version="1.1" viewBox="0 0 64 64">
  <!-- Generator: Adobe Illustrator 29.5.1, SVG Export Plug-In . SVG Version: 2.1.0 Build 141)  -->
  <path d="M56,23h-3v-9c0-3.86-3.14-7-7-7h-28c-3.86,0-7,3.14-7,7v9h-3c-.55,0-1,.45-1,1v8c0,.55.45,1,1,1h3v15c0,1.65,1.35,3,3,3v5c0,.55.45,1,1,1h6c.55,0,1-.45,1-1v-5h20v5c0,.55.45,1,1,1h6c.55,0,1-.45,1-1v-5c1.65,0,3-1.35,3-3v-15h3c.55,0,1-.45,1-1v-8c0-.55-.45-1-1-1ZM11,31h-2v-6h2v6ZM20,55h-4v-4h4v4ZM48,55h-4v-4h4v4ZM51,48c0,.55-.45,1-1,1H14c-.55,0-1-.45-1-1v-9h38v9ZM51,37h-7.59l-6.41-6.41v-2.59c0-.55-.45-1-1-1s-1,.45-1,1v6c0,.55.45,1,1,1s1-.45,1-1v-.59l3.59,3.59h-7.59v-20h18v20ZM51,15h-26c-.55,0-1,.45-1,1s.45,1,1,1h6v20h-7.59l3.59-3.59v.59c0,.55.45,1,1,1s1-.45,1-1v-6c0-.55-.45-1-1-1s-1,.45-1,1v2.59l-6.41,6.41h-7.59v-20h4c.55,0,1-.45,1-1s-.45-1-1-1h-4v-1c0-2.76,2.24-5,5-5h28c2.76,0,5,2.24,5,5v1ZM55,31h-2v-6h2v6Z"/>
  <path d="M29,13h6c.553,0,1-.447,1-1s-.447-1-1-1h-6c-.553,0-1,.447-1,1s.447,1,1,1Z"/>
  <circle cx="39" cy="12" r="1"/>
  <circle cx="25" cy="12" r="1"/>
  <path d="M18,41c-1.654,0-3,1.346-3,3s1.346,3,3,3,3-1.346,3-3-1.346-3-3-3ZM18,45c-.552,0-1-.448-1-1s.448-1,1-1,1,.448,1,1-.448,1-1,1Z"/>
  <path d="M46,41c-1.654,0-3,1.346-3,3s1.346,3,3,3,3-1.346,3-3-1.346-3-3-3ZM46,45c-.552,0-1-.448-1-1s.448-1,1-1,1,.448,1,1-.448,1-1,1Z"/>
  <path d="M40,41h-16c-.553,0-1,.447-1,1v4c0,.553.447,1,1,1h16c.553,0,1-.447,1-1v-4c0-.553-.447-1-1-1ZM39,45h-14v-2h14v2Z"/>
  <circle cx="21" cy="16" r="1"/>
</svg>