<?xml version="1.0" encoding="UTF-8"?>
<svg id="Outline" xmlns="http://www.w3.org/2000/svg" version="1.1" viewBox="0 0 64 64">
  <!-- Generator: Adobe Illustrator 29.0.0, SVG Export Plug-In . SVG Version: 2.1.0 Build 186)  -->
  <path d="M54,39h-2v-3c0-.54999-.45001-1-1-1h-8c-.54999,0-1,.45001-1,1v3h-1.57001c-.47998-.27002-.98999-.48004-1.52997-.58002l-1.91003-.34998c.01001-.10004.01001-.20001-.02002-.30005-.07996-.35999-.35999-.64996-.72998-.73999l-4-1c-.20996-.04999-.41998-.01996-.62.06l-.52002-2.47998c1.55005-1.44,2.60004-3.40002,2.84003-5.60999h.06c.88,0,1.71002-.38,2.28998-1.06.57001-.67004.81-1.56.67004-2.44-.11005-.67004-.46002-1.25-.96002-1.69v-4.81c0-2.21002-1.78998-4-4-4h-1.13c-.44-1.72003-2.01001-3-3.87-3h-7c-3.31,0-6,2.69-6,6v5.81c-.5.44-.84998,1.01996-.96002,1.69-.13995.88.10004,1.76996.67004,2.44.57996.67999,1.40997,1.06,2.28998,1.06h.06c.23999,2.20996,1.28998,4.16998,2.84003,5.60999l-.52002,2.47998c-.20001-.07996-.41003-.10999-.62-.06l-4,1c-.37.09003-.65002.38-.72998.73999-.03003.10004-.03003.20001-.02002.30005l-1.91003.34998c-2.38.42999-4.09998,2.5-4.09998,4.91998v8.66003c0,.54999.45001,1,1,1h5c.54999,0,1-.45001,1-1s-.45001-1-1-1h-4v-7.66003c0-1.44995,1.03003-2.69,2.46002-2.95996l3.13-.56,5.75995,4.94c.19.15997.42004.23999.65002.23999.19,0,.39001-.06.56-.17999l.39001,1.17999-1.66998,5h-3.28003c-.54999,0-1,.45001-1,1s.45001,1,1,1h37c1.65002,0,3-1.53003,3-3.40002v-7.20001c0-1.87-1.34998-3.39996-3-3.39996ZM32.15002,38.07001l1.72998.42999-4.91998,4.21997-2.14001-1.60999,5.33002-3.03998ZM25,39.84998l-4.78998-2.73999.46997-2.22998c1.28003.70996,2.75,1.12,4.32001,1.12s3.03998-.41003,4.32001-1.12l.46997,2.22998-4.78998,2.73999ZM26.75,43.57001l-.46997,1.42999h-2.56006l-.46997-1.42999,1.75-1.32001,1.75,1.32001ZM16,17c0-2.21002,1.78998-4,4-4h7c1.09998,0,2,.89996,2,2,0,.54999.45001,1,1,1h2c1.09998,0,2,.89996,2,2v4.01001c-.03998,0-.07001-.01001-.10999-.01001h-1.22003c-.89996-1.82001-2.76001-3-4.82996-3h-5.68005c-2.06995,0-3.92999,1.17999-4.82996,3h-1.22003c-.03998,0-.07001.01001-.10999.01001v-5.01001ZM18,27c0-.54999-.45001-1-1-1h-1c-.28998,0-.57001-.13-.76001-.35004-.20001-.22998-.27002-.51996-.22998-.82001.08002-.46997.56-.82996,1.09998-.82996h1.89001c.42999,0,.81-.28003.95001-.67999.45996-1.39001,1.75-2.32001,3.20996-2.32001h5.68005c1.45996,0,2.75.92999,3.20996,2.32001.14001.39996.52002.67999.95001.67999h1.89001c.53998,0,1.01996.35999,1.09998.82001.04004.31-.02997.59998-.22998.82996-.19.22003-.47003.35004-.76001.35004h-1c-.54999,0-1,.45001-1,1,0,3.85999-3.14001,7-7,7s-7-3.14001-7-7ZM21.03998,42.71997l-4.91998-4.21997,1.72998-.42999,5.33002,3.03998-2.14001,1.60999ZM22.39001,51l1.32996-4h2.56006l1.32996,4h-5.21997ZM37.27002,51h-7.55005l-1.66998-5,.39001-1.17999c.16998.12.37.17999.56.17999.22998,0,.46002-.08002.65002-.23999l5.75995-4.94,2.30005.40997c-.44.59003-.71002,1.34003-.71002,2.16998v7.20001c0,.5.09998.97003.27002,1.40002ZM44,37h6v2h-6v-2ZM55,44c0,.54999-.45001,1-1,1h-4c-.54999,0-1,.45001-1,1s.45001,1,1,1h4c.34998,0,.69-.07001,1-.17999v2.77997c0,.76001-.46002,1.40002-1,1.40002h-14c-.53998,0-1-.64001-1-1.40002v-2.77997c.31.10999.65002.17999,1,.17999h6c.54999,0,1-.45001,1-1s-.45001-1-1-1h-6c-.54999,0-1-.45001-1-1v-1.60004c0-.75995.46002-1.39996,1-1.39996h14c.53998,0,1,.64001,1,1.39996v1.60004Z"/>
</svg>