<?xml version="1.0" encoding="UTF-8"?>
<svg id="Outline" xmlns="http://www.w3.org/2000/svg" version="1.1" viewBox="0 0 64 64">
  <!-- Generator: Adobe Illustrator 29.5.1, SVG Export Plug-In . SVG Version: 2.1.0 Build 141)  -->
  <path d="M48.18,44.99l-8.34-1.52-.91-4.31c1.86-1.69,3.1-4.03,3.36-6.66h.21c.17,0,.34-.03.5-.05v2.55c0,.55.45,1,1,1s1-.45,1-1v-3.65c.51-.59.83-1.35.83-2.18,0-1.01-.45-1.9-1.16-2.51v-.99c0-1.76-.35-3.46-1.04-5.05-.22-.51-.81-.74-1.32-.52-.51.22-.74.81-.52,1.32.59,1.33.88,2.76.88,4.25v.18c-.06,0-.11-.02-.17-.02h-3.5c-1.67,0-3.28-.38-4.77-1.13-1.48-.73-2.78-1.82-3.76-3.13-.19-.25-.49-.4-.8-.4-.32,0-.61.15-.8.4l-1.4,1.86c-1.13,1.51-2.92,2.4-4.8,2.4h-1.17c-.06,0-.11.02-.17.02v-.18c0-5.88,4.79-10.67,10.67-10.67,2.86,0,5.54,1.11,7.54,3.13.07.06.13.12.19.19.36.41.99.46,1.41.09.41-.36.46-.99.09-1.41-.08-.09-.18-.19-.27-.29-.63-.63-1.32-1.18-2.05-1.66.06-.34.09-.69.09-1.05,0-3.86-3.14-7-7-7s-7,3.14-7,7c0,.36.04.72.09,1.06-3.46,2.27-5.76,6.17-5.76,10.61v.99c-.71.61-1.16,1.5-1.16,2.51,0,.83.32,1.59.83,2.18v3.65c0,.55.45,1,1,1s1-.45,1-1v-2.55c.16.02.33.05.5.05h.21c.26,2.63,1.5,4.97,3.36,6.66l-.91,4.31-8.34,1.52c-2.69.48-4.65,2.83-4.65,5.57v5.44c0,.55.45,1,1,1h31.83c.55,0,1-.45,1-1s-.45-1-1-1h-4.7l3.25-2.17c.42-.28.57-.83.34-1.28l-.71-1.43,2.93-3.66,2.71.49c1.75.32,3.01,1.83,3.01,3.61v4.44h-2.83c-.55,0-1,.45-1,1s.45,1,1,1h3.83c.55,0,1-.45,1-1v-5.44c0-2.74-1.96-5.09-4.65-5.57ZM27,14c0-2.76,2.24-5,5-5s5,2.24,5,5v.03c-1.56-.67-3.25-1.03-5-1.03-1.77,0-3.46.37-5,1.03v-.03ZM23.67,31.5c0-.55-.45-1-1-1h-1.17c-.74,0-1.33-.6-1.33-1.33,0-.74.59-1.34,1.33-1.34h1.17c2.5,0,4.9-1.19,6.4-3.2l.64-.85c1.03,1.11,2.27,2.04,3.63,2.71,1.77.89,3.67,1.34,5.66,1.34h3.5c.74,0,1.33.6,1.33,1.34,0,.73-.59,1.33-1.33,1.33h-1.17c-.55,0-1,.45-1,1,0,4.59-3.73,8.33-8.33,8.33s-8.33-3.74-8.33-8.33ZM37.94,44.13l-.07.27-5.87,2.51-5.87-2.51-.07-.27.78-3.69c1.52.88,3.28,1.39,5.16,1.39s3.64-.51,5.16-1.39l.78,3.69ZM13.17,55v-4.44c0-1.78,1.26-3.29,3.01-3.61l2.71-.49,2.93,3.66-.71,1.43c-.23.45-.08,1,.34,1.28l3.25,2.17h-11.53ZM23.29,51.66l.6-1.21c.18-.35.13-.77-.11-1.07l-2.66-3.33,3.03-.55c.07.11.16.21.27.29l1.98,7.94-3.11-2.07ZM27.3,49.07l-.56-2.24,3.51,1.51-1.45,1.44-1.35-.67c-.05-.03-.1-.03-.15-.04ZM35.22,55h-6.44l-.85-3.42.62.31c.14.08.3.11.45.11.26,0,.52-.1.71-.29l2.29-2.3,2.29,2.3c.19.19.45.29.71.29.15,0,.31-.03.45-.11l.62-.31-.85,3.42ZM36.7,49.07c-.05.01-.1.01-.15.04l-1.35.67-1.45-1.44,3.51-1.51-.56,2.24ZM40.22,49.38c-.24.3-.29.72-.11,1.07l.6,1.21-3.11,2.07,1.98-7.94c.11-.08.2-.18.27-.29l3.03.55-2.66,3.33Z"/>
</svg>