<?xml version="1.0" encoding="UTF-8"?>
<svg id="Outline" xmlns="http://www.w3.org/2000/svg" version="1.1" viewBox="0 0 64 64">
  <!-- Generator: Adobe Illustrator 29.3.1, SVG Export Plug-In . SVG Version: 2.1.0 Build 151)  -->
  <path d="M56.69099,40.43943c-.62-2.87-2.22998-5.26996-4.38995-6.92999l2.56995-10.45001c.40002-1.58997-.57996-3.21997-2.19-3.63L9.951,8.92942c-.53998-.12994-1.08002.19-1.20996.73004l-1.67004,6.79999c-.07996.32001,0,.65997.23004.90997.21997.24005.54999.36005.87994.31l3.24005-.44995c1.03998-.15002,2.10999.15997,2.91998.84998,1.35999,1.16003,3.21002,1.60999,4.96002,1.22003l.15997-.04004c.95001-.20996,1.96997-.03998,2.79999.48004l.88.56,2.75,3.35999-2.5,10.19c-.06.26001-.02002.52997.10999.76001.14001.22998.36005.38995.62.44995,3.59003.88,7.24005,1.64001,10.88,2.29004-.29999.25-.62.48999-.97998.67999l-4.26001,2.27002c-3.08002,1.63995-4.71997,5.17999-3.98999,8.58997.78003,3.62,4,6.21002,7.69,6.21002h.15997l11.65002-.23004c3.58002-.06995,6.90002-1.71997,9.10999-4.51996,2.22003-2.79999,3.06-6.42004,2.31-9.91003ZM29.86103,15.87943l22.33997,5.48999c.53003.14001.85999.68005.72998,1.21002l-2.40997,9.78998c-2.38-1.22998-5.17999-1.67999-7.98999-1.06995l-.85004.17999c-1.06995.22998-2.06.69-2.90997,1.31-4.16998-.67004-8.34998-1.51001-12.45001-2.5l3.54004-14.41003ZM23.17103,17.95945c-.88-.52002-1.87-.78998-2.88-.78998-.42999,0-.85004.04999-1.27002.13995l-.15997.04004c-1.14001.25-2.34003-.04004-3.23004-.79004-1.23999-1.06-2.88-1.53998-4.48999-1.31l-1.77997.25,1.07996-4.38995,13.60004,3.33997-.87,3.51001ZM24.91102,19.29948l1.07001-4.37006,1.94.47003-1.42999,5.83002-1.58002-1.92999ZM25.57099,33.34946l.28003-1.12c3.69.88995,7.45001,1.65997,11.20001,2.29999-.23004.32001-.44.65997-.63,1.02997-3.62-.62-7.26001-1.34998-10.85004-2.20996ZM52.81098,49.10947c-1.83997,2.32996-4.59998,3.69995-7.57996,3.75995l-11.65002.23004c-2.79999.06-5.26001-1.89001-5.84998-4.63-.55005-2.54999.66998-5.17999,2.96997-6.40002l4.26001-2.27997c1.14001-.61005,2.08002-1.48999,2.78998-2.56.02002-.04004.05005-.08002.07001-.12.13-.22003.28003-.43005.39001-.66003.78003-1.54999,2.19-2.64996,3.89001-3.01001l.84998-.19c.70001-.14996,1.40002-.21997,2.09003-.21997,4.57001,0,8.69,3.19,9.69,7.83002.63,2.90997-.07001,5.90997-1.92004,8.25Z"/>
  <path d="M43.18171,35.5355l-.50781.10937c-1.04668.22544-3.06462,1.47237-2.78125,2.79004l.26172,1.21631c.80225,3.72949,3.17529,6.93066,6.51025,8.78223,0,0,2.11914,1.17676,2.11917,1.17678.3455.19279.77576.16084,1.0903-.07765.5498-.41797,1.03223-.88672,1.43311-1.39355,1.78564-2.25635,2.20752-5.2085,1.12891-7.89746-1.41113-3.51416-5.38965-5.53906-9.25439-4.70605ZM49.73884,46.8978c-.17334.21924-.36914.43018-.58447.63086l-1.51904-.84326c-2.83057-1.57227-4.84473-4.28906-5.52588-7.45508l-.18262-.84961c.24512-.38672.6709-.67383,1.16797-.78076l.50781-.10938c2.92578-.62598,5.9248.87402,6.97705,3.49609.80859,2.01465.49414,4.22461-.84082,5.91113Z"/>
  <path d="M44.10652,49.30064c-2.83105-1.57227-4.84521-4.28955-5.54053-7.52246-.07129-.32812-.30273-.59814-.61523-.71924-.31348-.12158-.6665-.07812-.93945.11572-.37158.26318-.71484.47803-1.04932.65625l-4.15137,2.21582c-1.29492.69092-2.11914,1.97559-2.15137,3.35303-.02539,1.0752.37451,2.08203,1.12549,2.83594.72363.72607,1.71777,1.13867,2.73828,1.13867.02539,0,.05029,0,.07568-.00049l10.04248-.19922c.45166-.00928.84131-.32031.95068-.75879.10889-.43896-.08984-.896-.48535-1.11523ZM33.55866,49.37388c-.47803.01514-.99854-.18994-1.35693-.5498-.36279-.36377-.55566-.85303-.54346-1.37744.01562-.65723.43457-1.28369,1.09375-1.63525l4.15137-2.21582c.02295-.01221.0459-.0249.06885-.03711.70703,2.18408,1.96729,4.13721,3.64502,5.67578l-7.05859.13965Z"/>
</svg>