<?xml version="1.0" encoding="UTF-8"?>
<svg id="Outline" xmlns="http://www.w3.org/2000/svg" version="1.1" viewBox="0 0 64 64">
  <!-- Generator: Adobe Illustrator 29.3.1, SVG Export Plug-In . SVG Version: 2.1.0 Build 151)  -->
  <path d="M24.18066,49c.05273,0,.10547-.00049.15723-.00146l11.65625-.23145c3.57227-.07129,6.89258-1.71875,9.10938-4.52051,2.21777-2.80127,3.05859-6.41162,2.30664-9.9043-1.38184-6.4248-7.73145-10.52734-14.16016-9.14551l-.85352.18408c-2.29199.49316-4.20605,1.97852-5.25098,4.07471-.5293,1.06006-1.36133,1.91455-2.40527,2.47168l-4.25977,2.27344c-3.08105,1.64404-4.71875,5.17627-3.98438,8.58984.77832,3.62061,3.99512,6.20947,7.68457,6.20947ZM21.42188,35.96533l4.25977-2.27344c1.41211-.75342,2.53711-1.90918,3.25293-3.34326.77344-1.55029,2.1875-2.64795,3.88281-3.0127l.85352-.18408c.70117-.15039,1.39941-.22266,2.08789-.22266,4.57227,0,8.69629,3.1875,9.69629,7.83398.625,2.90674-.07422,5.91064-1.91992,8.24219-1.84473,2.33154-4.60742,3.70264-7.58008,3.76172l-11.65625.23145c-.04004.00098-.07812.00146-.11719.00146-2.75098-.00049-5.15039-1.93018-5.73047-4.62939v-.00049c-.54785-2.54541.67383-5.1792,2.9707-6.40479Z"/>
  <path d="M30.87402,33.55176c.80176,3.72852,3.1748,6.92969,6.50977,8.78223l2.11914,1.17676c.34867.19362.77107.16456,1.08984-.07715.54883-.41602,1.03125-.88525,1.43457-1.39404,1.78613-2.25635,2.20801-5.2085,1.12793-7.89746-1.41016-3.51562-5.38965-5.53906-9.25293-4.70605l-.50878.10937c-.88974.19127-1.83859.76464-2.39717,1.4842-.62922.81056-.31847,1.61078-.12237,2.52215ZM33.81348,31.50049l.50879-.10938c2.9248-.62598,5.9248.87402,6.97754,3.49609.80859,2.01465.49414,4.22412-.84082,5.91064-.17383.22021-.37012.43115-.58496.63135l-1.51953-.84326c-2.83105-1.57275-4.84473-4.28955-5.52539-7.45508l-.18262-.84961c.24512-.38672.6709-.67383,1.16699-.78076Z"/>
  <path d="M24.24316,45.2749c.02539,0,.05078,0,.0752-.00049l10.04199-.19922c.45214-.00928.8418-.32031.95117-.75879.1084-.43896-.08984-.896-.48535-1.11523-2.83008-1.57178-4.84473-4.28906-5.53906-7.51562-.06934-.32959-.2998-.60205-.61328-.7251-.31543-.12256-.66797-.0791-.94336.11475-.37109.26318-.71484.47803-1.04883.65625l-4.15137,2.21582c-1.29492.69092-2.11914,1.97607-2.15137,3.35254-.02539,1.0752.37402,2.08203,1.125,2.83594.72363.72656,1.71875,1.13916,2.73926,1.13916ZM23.47168,39.71191l4.15137-2.21582c.02344-.01221.0459-.0249.06934-.03711.70703,2.18408,1.96777,4.13721,3.64453,5.67578l-7.05762.13965c-.53809.0249-1-.19043-1.3584-.5498-.3623-.36377-.55469-.85303-.54199-1.37793.01465-.65674.43359-1.2832,1.09277-1.63477Z"/>
  <path d="M56,13c.54999,0,1-.45001,1-1v-4c0-.54999-.45001-1-1-1H8c-.54999,0-1,.45001-1,1v4c0,.54999.45001,1,1,1h3v4h-1c-1.65002,0-3,1.34998-3,3v34c0,1.64996,1.34998,3,3,3h44c1.65002,0,3-1.35004,3-3V20c0-1.65002-1.34998-3-3-3h-1v-4h3ZM54,19c.54999,0,1,.45001,1,1v34c0,.54999-.45001,1-1,1H10c-.54999,0-1-.45001-1-1V20c0-.54999.45001-1,1-1h44ZM13,17v-4h4v4h-4ZM19,17v-4h26v4h-26ZM47,17v-4h4v4h-4ZM9,11v-2h46v2H9Z"/>
  <path d="M12,21c-.55273,0-1,.44775-1,1v30c0,.55225.44727,1,1,1h40c.55273,0,1-.44775,1-1v-30c0-.55225-.44727-1-1-1H12ZM51,51H13v-28h38v28Z"/>
</svg>