<?xml version="1.0" encoding="UTF-8"?>
<svg id="Outline" xmlns="http://www.w3.org/2000/svg" version="1.1" viewBox="0 0 64 64">
  <!-- Generator: Adobe Illustrator 29.5.1, SVG Export Plug-In . SVG Version: 2.1.0 Build 141)  -->
  <path d="M27,13.5c0-1.38-1.12-2.5-2.5-2.5h-2.5c-.55,0-1,.45-1,1v6c0,.55.45,1,1,1h2.5c1.38,0,2.5-1.12,2.5-2.5,0-.56-.2-1.08-.51-1.5.31-.42.51-.94.51-1.5ZM24.5,17h-1.5v-1h1.5c.28,0,.5.22.5.5s-.22.5-.5.5ZM24.5,14h-1.5v-1h1.5c.28,0,.5.22.5.5s-.22.5-.5.5Z"/>
  <path d="M35,16v-4c0-.552-.448-1-1-1s-1,.448-1,1v4c0,.551-.449,1-1,1s-1-.449-1-1v-4c0-.552-.448-1-1-1s-1,.448-1,1v4c0,1.654,1.346,3,3,3s3-1.346,3-3Z"/>
  <path d="M40,19c.552,0,1-.448,1-1v-2.697l1.832-2.748c.306-.459.182-1.081-.277-1.387-.46-.308-1.081-.183-1.387.277l-1.168,1.752-1.168-1.752c-.308-.46-.928-.585-1.387-.277-.459.306-.583.927-.277,1.387l1.832,2.748v2.697c0,.552.448,1,1,1Z"/>
  <path d="M24,22v2.697l-2.168-3.252c-.244-.366-.701-.531-1.122-.402-.422.127-.71.517-.71.957v6c0,.552.448,1,1,1s1-.448,1-1v-2.697l2.168,3.252c.539.808,1.832.411,1.832-.555v-6c0-.552-.448-1-1-1s-1,.448-1,1Z"/>
  <path d="M28,24v2c0,1.654,1.346,3,3,3s3-1.346,3-3v-2c0-1.654-1.346-3-3-3s-3,1.346-3,3ZM32,24v2c0,.551-.449,1-1,1s-1-.449-1-1v-2c0-.551.449-1,1-1s1,.449,1,1Z"/>
  <path d="M36.014,22.165l1,6c.062.369.324.673.681.788.355.114.748.019,1.012-.245l1.293-1.293,1.293,1.293c.548.548,1.559.265,1.693-.542l1-6c.091-.545-.277-1.06-.822-1.151-.546-.09-1.06.278-1.151.822l-.681,4.083-.626-.626c-.391-.391-1.023-.391-1.414,0l-.626.626-.681-4.083c-.091-.544-.602-.915-1.151-.822-.544.091-.913.606-.822,1.151Z"/>
  <path d="M50,31h-2.18c.11-.31.18-.65.18-1v-10c0-.55-.45-1-1-1s-1,.45-1,1v10c0,.55-.45,1-1,1h-26c-.55,0-1-.45-1-1V10c0-.55.45-1,1-1h26c.55,0,1,.45,1,1v6c0,.55.45,1,1,1s1-.45,1-1v-6c0-1.65-1.35-3-3-3h-26c-1.65,0-3,1.35-3,3v20c0,.35.07.69.18,1h-2.18c-1.65,0-3,1.35-3,3,0,1.34.9,2.47,2.12,2.85l2.89,19.3c.07.49.49.85.99.85h18c.55,0,1-.45,1-1s-.45-1-1-1h-17.14l-2.7-18h33.68l-2.7,18h-7.14c-.55,0-1,.45-1,1s.45,1,1,1h8c.5,0,.92-.36.99-.85l2.89-19.3c1.22-.38,2.12-1.51,2.12-2.85,0-1.65-1.35-3-3-3ZM50,35H14c-.55,0-1-.45-1-1s.45-1,1-1h36c.55,0,1,.45,1,1s-.45,1-1,1Z"/>
  <path d="M31,40v12c0,.552.448,1,1,1s1-.448,1-1v-12c0-.552-.448-1-1-1s-1,.448-1,1Z"/>
  <path d="M27,40v12c0,.552.448,1,1,1s1-.448,1-1v-12c0-.552-.448-1-1-1s-1,.448-1,1Z"/>
  <path d="M23,40v12c0,.552.448,1,1,1s1-.448,1-1v-12c0-.552-.448-1-1-1s-1,.448-1,1Z"/>
  <path d="M19,40v12c0,.552.448,1,1,1s1-.448,1-1v-12c0-.552-.448-1-1-1s-1,.448-1,1Z"/>
  <path d="M36,39c-.552,0-1,.448-1,1v12c0,.552.448,1,1,1s1-.448,1-1v-12c0-.552-.448-1-1-1Z"/>
  <path d="M41,52v-12c0-.552-.448-1-1-1s-1,.448-1,1v12c0,.552.448,1,1,1s1-.448,1-1Z"/>
  <path d="M45,52v-12c0-.552-.448-1-1-1s-1,.448-1,1v12c0,.552.448,1,1,1s1-.448,1-1Z"/>
</svg>