<?xml version="1.0" encoding="UTF-8"?>
<svg id="Outline" xmlns="http://www.w3.org/2000/svg" version="1.1" viewBox="0 0 64 64">
  <!-- Generator: Adobe Illustrator 29.5.1, SVG Export Plug-In . SVG Version: 2.1.0 Build 141)  -->
  <path d="M56,51h-2v-11c0-.55-.45-1-1-1s-1,.45-1,1v1.53c-1.27,1.01-3.12.94-4.29-.24-.39-.39-1.03-.39-1.42,0-1.26,1.27-3.32,1.27-4.58,0-.39-.39-1.03-.39-1.42,0-1.26,1.27-3.32,1.27-4.58,0-.39-.39-1.03-.39-1.42,0-1.26,1.27-3.32,1.27-4.58,0-.39-.39-1.03-.39-1.42,0-1.26,1.27-3.32,1.27-4.58,0-.39-.39-1.03-.39-1.42,0-1.26,1.27-3.32,1.27-4.58,0-.39-.39-1.03-.39-1.42,0-1.17,1.18-3.02,1.25-4.29.24v-6.53h1c.55,0,1,.45,1,1,0,1.65,1.35,3,3,3s3-1.35,3-3c0-.55.45-1,1-1h2c.55,0,1,.45,1,1v1c0,1.65,1.35,3,3,3s3-1.35,3-3v-1c0-.55.45-1,1-1s1,.45,1,1c0,1.65,1.35,3,3,3s3-1.35,3-3v-5h13c.55,0,1,.45,1,1s.45,1,1,1,1-.45,1-1c0-1.65-1.35-3-3-3v-3c0-1.65-1.35-3-3-3h-1v-2.09c2.83-.48,5-2.94,5-5.91,0-3.13-4.81-7.3-5.35-7.76-.38-.32-.92-.32-1.3,0-.54.46-5.35,4.63-5.35,7.76,0,2.97,2.17,5.43,5,5.91v2.09h-1c-1.65,0-3,1.35-3,3v3h-4v-3c0-1.65-1.35-3-3-3h-1v-2.09c2.83-.48,5-2.94,5-5.91,0-3.13-4.81-7.3-5.35-7.76-.38-.32-.92-.32-1.3,0-.54.46-5.35,4.63-5.35,7.76,0,2.97,2.17,5.43,5,5.91v2.09h-1c-1.65,0-3,1.35-3,3v3h-4v-3c0-1.65-1.35-3-3-3h-1v-2.09c2.83-.48,5-2.94,5-5.91,0-3.13-4.81-7.3-5.35-7.76-.38-.32-.92-.32-1.3,0-.54.46-5.35,4.63-5.35,7.76,0,2.97,2.17,5.43,5,5.91v2.09h-1c-1.65,0-3,1.35-3,3v3c-1.65,0-3,1.35-3,3v19h-2c-.55,0-1,.45-1,1v4c0,.55.45,1,1,1h48c.55,0,1-.45,1-1v-4c0-.55-.45-1-1-1ZM46,19c-.55,0-1-.45-1-1,.01-.31.42-1.18,1-2.15.58.97.99,1.85,1,2.15,0,.55-.45,1-1,1ZM43.04,17.67c-.64-.71-1.04-1.64-1.04-2.67,0-1.48,2.24-4.04,4-5.66,1.76,1.62,4,4.18,4,5.66,0,1.03-.4,1.96-1.04,2.67-.21-1.32-1.53-3.37-2.14-4.24-.37-.54-1.27-.54-1.64,0-.61.87-1.93,2.92-2.14,4.24ZM43,26c0-.55.45-1,1-1h4c.55,0,1,.45,1,1v3h-6v-3ZM32,19c-.55,0-1-.45-1-1,.01-.31.42-1.18,1-2.15.58.97.99,1.85,1,2.15,0,.55-.45,1-1,1ZM29.04,17.67c-.64-.71-1.04-1.64-1.04-2.67,0-1.48,2.24-4.04,4-5.66,1.76,1.62,4,4.18,4,5.66,0,1.03-.4,1.96-1.04,2.67-.21-1.32-1.53-3.37-2.14-4.24-.37-.54-1.27-.54-1.64,0-.61.87-1.93,2.92-2.14,4.24ZM29,26c0-.55.45-1,1-1h4c.55,0,1,.45,1,1v3h-6v-3ZM18,19c-.55,0-1-.45-1-1,.01-.31.42-1.18,1-2.15.58.97.99,1.85,1,2.15,0,.55-.45,1-1,1ZM15.04,17.67c-.64-.71-1.04-1.64-1.04-2.67,0-1.48,2.24-4.04,4-5.66,1.76,1.62,4,4.18,4,5.66,0,1.03-.4,1.96-1.04,2.67-.21-1.32-1.53-3.37-2.14-4.24-.37-.54-1.27-.54-1.64,0-.61.87-1.93,2.92-2.14,4.24ZM15,26c0-.55.45-1,1-1h4c.55,0,1,.45,1,1v3h-6v-3ZM12,32c0-.55.45-1,1-1h23v5c0,.55-.45,1-1,1s-1-.45-1-1c0-1.65-1.35-3-3-3s-3,1.35-3,3v1c0,.55-.45,1-1,1s-1-.45-1-1v-1c0-1.65-1.35-3-3-3h-2c-1.65,0-3,1.35-3,3,0,.55-.45,1-1,1s-1-.45-1-1c0-1.65-1.35-3-3-3h-1v-1ZM12,43.83c1.63.67,3.52.5,5-.53,1.79,1.25,4.21,1.25,6,0,1.79,1.25,4.21,1.25,6,0,1.79,1.25,4.21,1.25,6,0,1.79,1.25,4.21,1.25,6,0,1.79,1.25,4.21,1.25,6,0,.9.63,1.95.94,3,.94.68,0,1.36-.13,2-.4v2.69c-1.27,1.01-3.12.94-4.29-.24-.39-.39-1.03-.39-1.42,0-1.26,1.27-3.32,1.27-4.58,0-.39-.39-1.03-.39-1.42,0-1.26,1.27-3.32,1.27-4.58,0-.39-.39-1.03-.39-1.42,0-1.26,1.27-3.32,1.27-4.58,0-.39-.39-1.03-.39-1.42,0-1.26,1.27-3.32,1.27-4.58,0-.39-.39-1.03-.39-1.42,0-1.26,1.27-3.32,1.27-4.58,0-.39-.39-1.03-.39-1.42,0-1.17,1.18-3.02,1.25-4.29.24v-2.7ZM12,48.83c1.63.67,3.52.5,5-.53,1.79,1.25,4.21,1.25,6,0,1.79,1.25,4.21,1.25,6,0,1.79,1.25,4.21,1.25,6,0,1.79,1.25,4.21,1.25,6,0,1.79,1.25,4.21,1.25,6,0,.9.63,1.95.94,3,.94.68,0,1.36-.13,2-.4v2.16H12v-2.17ZM55,55H9v-2h46v2Z"/>
  <circle cx="53" cy="36" r="1"/>
</svg>