<?xml version="1.0" encoding="UTF-8"?>
<svg id="Outline" xmlns="http://www.w3.org/2000/svg" version="1.1" viewBox="0 0 64 64">
  <!-- Generator: Adobe Illustrator 29.5.1, SVG Export Plug-In . SVG Version: 2.1.0 Build 141)  -->
  <path d="M56,47h-1v-19c0-4.58-1.96-8.9-5.38-11.94-1.32-5.2-6.02-9.06-11.62-9.06-6.48,0-11.76,5.16-11.98,11.59l-16.48,8.52.01.01c-.32.17-.55.49-.55.88v19h-1c-.55,0-1,.45-1,1,0,2.41,1.72,4.43,4,4.9v3.1c0,.55.45,1,1,1h40c.55,0,1-.45,1-1v-3.1c2.28-.47,4-2.49,4-4.9,0-.55-.45-1-1-1ZM38,9c1.82,0,3.53.5,5,1.35v3.65c0,.55-.45,1-1,1s-1-.45-1-1c0-1.65-1.35-3-3-3s-3,1.35-3,3v2c0,.55-.45,1-1,1s-1-.45-1-1c0-1.65-1.34-2.99-2.98-3,1.82-2.42,4.72-4,7.98-4ZM26.14,20.78c.06.44.16.88.27,1.32-.48-.23-1.06-.03-1.3.45-.25.5-.05,1.1.44,1.34.47.24.96.35,1.44.35,1.19,0,2.34-.66,2.9-1.79.25-.5.05-1.1-.44-1.34-.41-.21-.88-.09-1.17.22-.19-.76-.28-1.54-.28-2.33,0-1.42.3-2.77.84-4h1.16c.55,0,1,.45,1,1,0,1.65,1.35,3,3,3s3-1.35,3-3v-2c0-.55.45-1,1-1s1,.45,1,1c0,1.65,1.35,3,3,3s3-1.35,3-3v-2.13c1.85,1.82,3,4.34,3,7.13,0,.77-.12,1.54-.3,2.31-.29-.3-.75-.4-1.15-.2-.49.24-.69.84-.44,1.34.56,1.13,1.71,1.79,2.9,1.79.48,0,.97-.11,1.44-.35.49-.24.69-.84.44-1.34-.24-.48-.82-.68-1.31-.45.24-.91.38-1.83.41-2.75,1.72,2.19,2.75,4.84,2.96,7.65h-8.95c-.55,0-1,.45-1,1s.45,1,1,1h9v4h-19v-4h6c.55,0,1-.45,1-1s-.45-1-1-1H14.11l12.03-6.22ZM23,31c-1.65,0-3,1.35-3,3v2c0,.55-.45,1-1,1s-1-.45-1-1v-7h14v5c0,.55-.45,1-1,1-1.65,0-3,1.35-3,3v4c0,.55-.45,1-1,1s-1-.45-1-1v-8c0-1.65-1.35-3-3-3ZM11,29h5v4h-5v-4ZM11,35h5v1c0,1.65,1.35,3,3,3s3-1.35,3-3v-2c0-.55.45-1,1-1s1,.45,1,1v7h-13v-6ZM11,43h13.18c.42,1.16,1.52,2,2.82,2s2.4-.84,2.82-2h5.18c.55,0,1-.45,1-1s-.45-1-1-1h-5v-3c0-.55.45-1,1-1,1.3,0,2.4-.84,2.82-2h19.18v6h-14c-.55,0-1,.45-1,1s.45,1,1,1h14v4H11v-4ZM51,55H13v-2h38v2ZM52,51H12c-1.3,0-2.42-.84-2.83-2h45.66c-.41,1.16-1.53,2-2.83,2Z"/>
</svg>