<?xml version="1.0" encoding="UTF-8"?>
<svg id="Outline" xmlns="http://www.w3.org/2000/svg" version="1.1" viewBox="0 0 64 64">
  <!-- Generator: Adobe Illustrator 29.3.1, SVG Export Plug-In . SVG Version: 2.1.0 Build 151)  -->
  <path d="M55,51v-6c0-1.10254-.89697-2-2-2v-18.18427c1.1615-.41412,2-1.51379,2-2.81573v-2c0-1.6543-1.3457-3-3-3h-4.12433l1.76154-3.97266c.58252-1.31445.46484-2.7627-.32324-3.97461-.83643-1.28516-2.2832-2.05273-3.87012-2.05273h-.8877c-1.58691,0-3.03369.76758-3.87012,2.05273-.78809,1.21191-.90576,2.66016-.32324,3.97461l1.76154,3.97266h-7.25519l1.76807-3.9873c.58252-1.31445.46484-2.7627-.32324-3.97461-.83643-1.28516-2.2832-2.05273-3.87012-2.05273h-.8877c-1.58691,0-3.03369.76758-3.87012,2.05273-.78809,1.21191-.90576,2.66016-.32324,3.97461l1.76807,3.9873h-7.25519l1.76154-3.97266c.58252-1.31445.46484-2.7627-.32324-3.97461-.83643-1.28516-2.2832-2.05273-3.87012-2.05273h-.8877c-1.58691,0-3.03369.76758-3.87012,2.05273-.78809,1.21191-.90576,2.66016-.32324,3.97461l1.76154,3.97266h-4.12433c-1.6543,0-3,1.3457-3,3v2c0,1.30194.8385,2.40155,2,2.81567v18.18433c-1.10303,0-2,.89746-2,2v6c-1.10303,0-2,.89746-2,2v2c0,1.10254.89697,2,2,2h46c1.10303,0,2-.89746,2-2v-2c0-1.10254-.89697-2-2-2ZM18,25c.55127,0,1,.44824,1,1v6c0,1.6543,1.3457,3,3,3s3-1.3457,3-3v-6c0-.55176.44873-1,1-1h1c.55127,0,1,.44824,1,1v4c0,1.6543,1.3457,3,3,3s3-1.3457,3-3v-4c0-.55176.44873-1,1-1h16v13.00012l-.3999-.29993c-1.53125-1.14844-3.66895-1.14844-5.2002,0-.82422.61719-1.97559.61719-2.7998,0-1.53125-1.14844-3.66895-1.14844-5.2002,0-.82422.61719-1.97559.61719-2.7998,0-1.53125-1.14844-3.66895-1.14844-5.2002,0-.82422.61719-1.97559.61719-2.7998,0-1.53125-1.14844-3.66895-1.14844-5.2002,0-.82422.61719-1.97559.61719-2.7998,0-1.53125-1.14844-3.66895-1.14844-5.2002,0l-.3999.29993v-13.00012h5ZM44.06982,16.4541l-1.87891-4.2373c-.30322-.68457-.24072-1.43945.17139-2.07324.46582-.71582,1.28613-1.14355,2.19385-1.14355h.8877c.90771,0,1.72803.42773,2.19385,1.14355.41211.63379.47461,1.38867.17139,2.07324l-1.87891,4.2373c-.13544.30463-.45911.50964-.82288.5459h-.2146c-.36377-.03625-.68744-.24127-.82288-.5459ZM31.06982,16.43945l-1.87891-4.2373c-.30322-.68457-.24072-1.43945.17139-2.07324.46582-.71582,1.28613-1.14355,2.19385-1.14355h.8877c.90771,0,1.72803.42773,2.19385,1.14355.41211.63379.47461,1.38867.17139,2.07324l-1.87891,4.2373c-.14893.33496-.52246.56055-.93018.56055s-.78125-.22559-.93018-.56055ZM18.06982,16.4541l-1.87891-4.2373c-.30322-.68457-.24072-1.43945.17139-2.07324.46582-.71582,1.28613-1.14355,2.19385-1.14355h.8877c.90771,0,1.72803.42773,2.19385,1.14355.41211.63379.47461,1.38867.17139,2.07324l-1.87891,4.2373c-.13544.30463-.45911.50964-.82288.5459h-.2146c-.36377-.03625-.68744-.24127-.82288-.5459ZM11,20c0-.55176.44873-1,1-1h40c.55127,0,1,.44824,1,1v2c0,.55176-.44873,1-1,1h-17c-1.6543,0-3,1.3457-3,3v4c0,.55176-.44873,1-1,1s-1-.44824-1-1v-4c0-1.6543-1.3457-3-3-3h-1c-1.6543,0-3,1.3457-3,3v6c0,.55176-.44873,1-1,1s-1-.44824-1-1v-6c0-1.6543-1.3457-3-3-3h-6c-.55127,0-1-.44824-1-1v-2ZM13,40.49988l1.6001-1.20007c.82422-.61719,1.97559-.61719,2.7998,0,1.53125,1.14844,3.66895,1.14844,5.2002,0,.82422-.61719,1.97559-.61719,2.7998,0,1.53125,1.14844,3.66895,1.14844,5.2002,0,.82422-.61719,1.97559-.61719,2.7998,0,1.53125,1.14844,3.66895,1.14844,5.2002,0,.82422-.61719,1.97559-.61719,2.7998,0,1.53125,1.14844,3.66895,1.14844,5.2002,0,.82324-.61719,1.97461-.61719,2.7998,0l1.6001,1.20007v2.50012H13v-2.50012ZM11,45h42v6H11v-6ZM9,55v-2h46l.00146,2H9Z"/>
</svg>