<?xml version="1.0" encoding="UTF-8"?>
<svg id="Outline" xmlns="http://www.w3.org/2000/svg" version="1.1" viewBox="0 0 64 64">
  <!-- Generator: Adobe Illustrator 29.3.1, SVG Export Plug-In . SVG Version: 2.1.0 Build 151)  -->
  <path d="M53,40.09998v-4.09998c0-.33002-.15997-.63-.42999-.82001s-.60999-.22998-.91998-.12l-6.65002,2.5v-6.56c0-.54999-.45001-1-1-1s-1,.45001-1,1v7h-2v-17h2v2c0,.54999.45001,1,1,1s1-.45001,1-1v-9c0-1.65002-1.34998-3-3-3h-3v-1c0-1.65002-1.34998-3-3-3s-3,1.34998-3,3v1h-4v-1c0-1.65002-1.34998-3-3-3s-3,1.34998-3,3v1h-4v-1c0-1.65002-1.34998-3-3-3s-3,1.34998-3,3v1h-3c-1.65002,0-3,1.34998-3,3v27.95996c0,1.65002,1.34998,3,3,3h25v6.04004c0,.54999.45001,1,1,1h1v2c0,1.64996,1.34998,3,3,3s3-1.35004,3-3v-2h.82001l7.83002,2.94c.10998.03998.22997.06.34996.06.54254,0,1.00002-.4532,1.00002-1v-4.10004c2.28003-.46997,4-2.48999,4-4.89996s-1.71997-4.42999-4-4.90002ZM35,10c0-.54999.45001-1,1-1s1,.45001,1,1v1h-2v-1ZM25,10c0-.54999.45001-1,1-1s1,.45001,1,1v1h-2v-1ZM15,10c0-.54999.45001-1,1-1s1,.45001,1,1v1h-2v-1ZM9,14c0-.54999.45001-1,1-1h3v1c0,1.64996,1.34998,3,3,3,0,.54999.45001,1,1,1s1-.45001,1-1v-2c0-.54999-.45001-1-1-1s-1,.45001-1,1c-.54999,0-1-.45001-1-1v-1h8v1c0,1.64996,1.34998,3,3,3,0,.54999.45001,1,1,1s1-.45001,1-1v-2c0-.54999-.45001-1-1-1s-1,.45001-1,1c-.54999,0-1-.45001-1-1v-1h8v1c0,1.64996,1.34998,3,3,3,0,.54999.45001,1,1,1s1-.45001,1-1v-2c0-.54999-.45001-1-1-1s-1,.45001-1,1c-.54999,0-1-.45001-1-1v-1h7c.54999,0,1,.45001,1,1v5H9v-5ZM35,42.95996H10c-.54999,0-1-.44995-1-1v-20.95996h2v19c0,.54999.45001,1,1,1h23v1.95996ZM36,38c-.54999,0-1,.45001-1,1H13v-18h26v17h-3ZM41,54c0,.54999-.45001,1-1,1s-1-.45001-1-1v-2h2v2ZM43,50h-6v-10h6v10ZM51,52.56l-6-2.25v-10.62l6-2.25v15.12ZM53,47.82001v-5.64001c1.15997.41998,2,1.52002,2,2.82001s-.84003,2.39996-2,2.82001Z"/>
  <path d="M16,29h4c.55225,0,1-.44727,1-1v-4c0-.55273-.44775-1-1-1h-4c-.55225,0-1,.44727-1,1v4c0,.55273.44775,1,1,1ZM17,25h2v2h-2v-2Z"/>
  <path d="M24,29h4c.55225,0,1-.44727,1-1v-4c0-.55273-.44775-1-1-1h-4c-.55225,0-1,.44727-1,1v4c0,.55273.44775,1,1,1ZM25,25h2v2h-2v-2Z"/>
  <path d="M32,29h4c.55225,0,1-.44727,1-1v-4c0-.55273-.44775-1-1-1h-4c-.55225,0-1,.44727-1,1v4c0,.55273.44775,1,1,1ZM33,25h2v2h-2v-2Z"/>
  <path d="M16,37h4c.55225,0,1-.44727,1-1v-4c0-.55273-.44775-1-1-1h-4c-.55225,0-1,.44727-1,1v4c0,.55273.44775,1,1,1ZM17,33h2v2h-2v-2Z"/>
  <path d="M24,37h4c.55225,0,1-.44727,1-1v-4c0-.55273-.44775-1-1-1h-4c-.55225,0-1,.44727-1,1v4c0,.55273.44775,1,1,1ZM25,33h2v2h-2v-2Z"/>
  <path d="M32,37h4c.55225,0,1-.44727,1-1v-4c0-.55273-.44775-1-1-1h-4c-.55225,0-1,.44727-1,1v4c0,.55273.44775,1,1,1ZM33,33h2v2h-2v-2Z"/>
  <circle cx="44" cy="27" r="1"/>
</svg>