<?xml version="1.0" encoding="UTF-8"?>
<svg id="Outline" xmlns="http://www.w3.org/2000/svg" version="1.1" viewBox="0 0 64 64">
  <!-- Generator: Adobe Illustrator 29.5.1, SVG Export Plug-In . SVG Version: 2.1.0 Build 141)  -->
  <path d="M24,22h-2c-.553,0-1,.447-1,1s.447,1,1,1h2c1.654,0,3-1.346,3-3s-1.346-3-3-3c-.552,0-1-.448-1-1s.448-1,1-1h2c.553,0,1-.447,1-1s-.447-1-1-1h-2c-1.654,0-3,1.346-3,3s1.346,3,3,3c.552,0,1,.448,1,1s-.448,1-1,1Z"/>
  <path d="M30,24h4c.553,0,1-.447,1-1s-.447-1-1-1h-3v-2h3c.553,0,1-.447,1-1s-.447-1-1-1h-3v-2h3c.553,0,1-.447,1-1s-.447-1-1-1h-4c-.553,0-1,.447-1,1v8c0,.553.447,1,1,1Z"/>
  <path d="M38,24c.553,0,1-.447,1-1v-3h1c1.654,0,3-1.346,3-3s-1.346-3-3-3h-2c-.553,0-1,.447-1,1v8c0,.553.447,1,1,1ZM39,16h1c.552,0,1,.448,1,1s-.448,1-1,1h-1v-2Z"/>
  <path d="M54,10h-4v-2c0-.55-.45-1-1-1s-1,.45-1,1v2H16v-2c0-.55-.45-1-1-1s-1,.45-1,1v2h-4c-1.65,0-3,1.35-3,3v41c0,1.65,1.35,3,3,3h44c1.65,0,3-1.35,3-3V13c0-1.65-1.35-3-3-3ZM49,18c.55,0,1-.45,1-1v-.72c.59.35,1,.98,1,1.72,0,1.1-.9,2-2,2s-2-.9-2-2c0-.74.41-1.37,1-1.72v.72c0,.55.45,1,1,1ZM15,18c.55,0,1-.45,1-1v-.72c.59.35,1,.98,1,1.72,0,1.1-.9,2-2,2s-2-.9-2-2c0-.74.41-1.37,1-1.72v.72c0,.55.45,1,1,1ZM55,54c0,.55-.45,1-1,1H10c-.55,0-1-.45-1-1v-1h41.03c1.94-.01,3.7-.82,4.97-2.11v3.11ZM51.36,47.36c1.14.17,2.32.17,3.46-.03-.46,1.69-1.8,3.03-3.49,3.49.2-1.14.21-2.32.03-3.46ZM55,45.22c-1.54.37-3.18.33-4.68-.17-.36-.12-.76-.03-1.03.24-.26.27-.36.67-.24,1.03.5,1.5.57,3.14.2,4.68H9v-23h46v17.22ZM55,26H9v-13c0-.55.45-1,1-1h4v2.14c-1.72.45-3,2-3,3.86,0,2.21,1.79,4,4,4s4-1.79,4-4c0-1.86-1.28-3.41-3-3.86v-2.14h32v2.14c-1.72.45-3,2-3,3.86,0,2.21,1.79,4,4,4s4-1.79,4-4c0-1.86-1.28-3.41-3-3.86v-2.14h4c.55,0,1,.45,1,1v13Z"/>
  <path d="M36,37c.553,0,1-.447,1-1s-.447-1-1-1h-3c-.459,0-.858.312-.97.758l-1,4c-.075.299-.008.615.182.857.189.243.48.385.788.385h2c.552,0,1,.448,1,1s-.448,1-1,1h-2c-.553,0-1,.447-1,1s.447,1,1,1h2c1.654,0,3-1.346,3-3s-1.346-3-3-3h-.719l.5-2h2.219Z"/>
  <path d="M28,35c-.553,0-1,.447-1,1v8c0,.553.447,1,1,1s1-.447,1-1v-8c0-.553-.447-1-1-1Z"/>
  <path d="M32,30c-5.514,0-10,4.486-10,10s4.486,10,10,10,10-4.486,10-10-4.486-10-10-10ZM32,48c-4.411,0-8-3.589-8-8s3.589-8,8-8,8,3.589,8,8-3.589,8-8,8Z"/>
</svg>