<?xml version="1.0" encoding="UTF-8"?>
<svg id="Outline" xmlns="http://www.w3.org/2000/svg" version="1.1" viewBox="0 0 64 64">
  <!-- Generator: Adobe Illustrator 29.5.1, SVG Export Plug-In . SVG Version: 2.1.0 Build 141)  -->
  <path d="M54,34c.55,0,1-.45,1-1V14c0-1.65-1.35-3-3-3h-3c0-2.21-1.79-4-4-4s-4,1.79-4,4h-14c0-2.21-1.79-4-4-4s-4,1.79-4,4h-3c-1.65,0-3,1.35-3,3v33h-3c-.55,0-1,.45-1,1,0,2.41,1.72,4.43,4,4.9v1.1c0,1.65,1.35,3,3,3h36c1.65,0,3-1.35,3-3v-17c0-.55-.45-1-1-1s-1,.45-1,1v17c0,.55-.45,1-1,1H16c-.55,0-1-.45-1-1v-1h31c2.76,0,5-2.24,5-5v-21c0-.55-.45-1-1-1s-1,.45-1,1v21c0,1.65-1.35,3-3,3-.79,0-1.55-.31-2.12-.87-.57-.58-.88-1.34-.88-2.13,0-.55-.45-1-1-1H15v-26h34v2c0,.55.45,1,1,1s1-.45,1-1v-2h2v12c0,.55.45,1,1,1ZM41.1,49c.15.72.45,1.4.9,2H14c-1.3,0-2.42-.84-2.83-2h29.93ZM45,9c1.1,0,2,.9,2,2h-4c0-1.1.9-2,2-2ZM23,9c1.1,0,2,.9,2,2h-4c0-1.1.9-2,2-2ZM15,19v-5c0-.55.45-1,1-1h3c0,2.21,1.79,4,4,4,0,.55.45,1,1,1s1-.45,1-1v-2c0-.55-.45-1-1-1s-1,.45-1,1c-1.1,0-2-.9-2-2h20c0,2.21,1.79,4,4,4,0,.55.45,1,1,1s1-.45,1-1v-2c0-.55-.45-1-1-1s-1,.45-1,1c-1.1,0-2-.9-2-2h9c.55,0,1,.45,1,1v5H15Z"/>
  <path d="M32,24.546c-1.291-1.003-2.869-1.546-4.53-1.546-1.979,0-3.84.771-5.238,2.17-2.889,2.888-2.889,7.588,0,10.476l9.062,9.062c.195.195.451.293.707.293s.512-.098.707-.293l9.062-9.062c2.889-2.888,2.889-7.588,0-10.476-1.398-1.399-3.259-2.17-5.238-2.17-1.661,0-3.239.543-4.53,1.546ZM40.354,34.231l-8.354,8.354-8.354-8.354c-2.108-2.108-2.108-5.539,0-7.647,1.021-1.021,2.379-1.584,3.824-1.584s2.802.562,3.823,1.584c.375.375,1.039.375,1.414,0,1.021-1.021,2.379-1.584,3.823-1.584s2.803.562,3.824,1.584c2.108,2.108,2.108,5.539,0,7.647Z"/>
</svg>