<?xml version="1.0" encoding="UTF-8"?>
<svg id="Outline" xmlns="http://www.w3.org/2000/svg" version="1.1" viewBox="0 0 64 64">
  <!-- Generator: Adobe Illustrator 29.5.1, SVG Export Plug-In . SVG Version: 2.1.0 Build 141)  -->
  <path d="M56,24c.55,0,1-.45,1-1v-13c0-1.65-1.35-3-3-3H10c-1.65,0-3,1.35-3,3v44c0,1.65,1.35,3,3,3h44c1.65,0,3-1.35,3-3v-27c0-.55-.45-1-1-1s-1,.45-1,1v27c0,.55-.45,1-1,1H10c-.55,0-1-.45-1-1V21h32c.55,0,1-.45,1-1s-.45-1-1-1H9v-6h28.59l3.7,3.71c.19.18.44.29.71.29h13v2h-10c-.55,0-1,.45-1,1s.45,1,1,1h10v2c0,.55.45,1,1,1ZM42.41,15l-3.7-3.71c-.19-.18-.44-.29-.71-.29H9v-1c0-.55.45-1,1-1h44c.55,0,1,.45,1,1v5h-12.59Z"/>
  <path d="M52,11h-2c-.553,0-1,.448-1,1s.447,1,1,1h2c.553,0,1-.448,1-1s-.447-1-1-1Z"/>
  <path d="M46,11h-2c-.553,0-1,.448-1,1s.447,1,1,1h2c.553,0,1-.448,1-1s-.447-1-1-1Z"/>
  <path d="M12,15c-.553,0-1,.448-1,1s.447,1,1,1h2c.553,0,1-.448,1-1s-.447-1-1-1h-2Z"/>
  <path d="M18,15c-.553,0-1,.448-1,1s.447,1,1,1h2c.553,0,1-.448,1-1s-.447-1-1-1h-2Z"/>
  <path d="M24,15c-.553,0-1,.448-1,1s.447,1,1,1h2c.553,0,1-.448,1-1s-.447-1-1-1h-2Z"/>
  <path d="M32,37h-2c-.553,0-1,.448-1,1s.447,1,1,1h1v5c0,.552.447,1,1,1s1-.448,1-1v-6c0-.552-.447-1-1-1Z"/>
  <path d="M32,33c-4.411,0-8,3.589-8,8s3.589,8,8,8,8-3.589,8-8-3.589-8-8-8ZM32,47c-3.309,0-6-2.691-6-6s2.691-6,6-6,6,2.691,6,6-2.691,6-6,6Z"/>
  <path d="M20,23c-.553,0-1,.448-1,1v1h-1c-1.654,0-3,1.346-3,3v22c0,1.654,1.346,3,3,3h28c1.654,0,3-1.346,3-3v-22c0-1.654-1.346-3-3-3h-1v-1c0-.552-.447-1-1-1s-1,.448-1,1v1h-10v-1c0-.552-.447-1-1-1s-1,.448-1,1v1h-10v-1c0-.552-.447-1-1-1ZM46,51h-28c-.552,0-1-.449-1-1v-19h30v19c0,.551-.448,1-1,1ZM47,28v1h-30v-1c0-.551.448-1,1-1h28c.552,0,1,.449,1,1Z"/>
</svg>