<?xml version="1.0" encoding="UTF-8"?>
<svg id="Outline" xmlns="http://www.w3.org/2000/svg" version="1.1" viewBox="0 0 64 64">
  <!-- Generator: Adobe Illustrator 29.5.1, SVG Export Plug-In . SVG Version: 2.1.0 Build 141)  -->
  <path d="M56,35c.55,0,1-.45,1-1V12c0-1.65-1.35-3-3-3h-4v-1c0-.55-.45-1-1-1s-1,.45-1,1v1h-9v-1c0-.55-.45-1-1-1s-1,.45-1,1v1h-10v-1c0-.55-.45-1-1-1s-1,.45-1,1v1h-9v-1c0-.55-.45-1-1-1s-1,.45-1,1v1h-4c-1.65,0-3,1.35-3,3v42c0,1.65,1.35,3,3,3h44c1.65,0,3-1.35,3-3v-16c0-.55-.45-1-1-1s-1,.45-1,1v12c0,.55-.45,1-1,1H10c-.55,0-1-.45-1-1v-28h32c.55,0,1-.45,1-1s-.45-1-1-1H9v-8c0-.55.45-1,1-1h4v1.18c-1.16.42-2,1.52-2,2.82,0,1.65,1.35,3,3,3s3-1.35,3-3c0-1.3-.84-2.4-2-2.82v-1.18h9v1.18c-1.16.42-2,1.52-2,2.82,0,1.65,1.35,3,3,3s3-1.35,3-3c0-1.3-.84-2.4-2-2.82v-1.18h10v1.18c-1.16.42-2,1.52-2,2.82,0,1.65,1.35,3,3,3s3-1.35,3-3c0-1.3-.84-2.4-2-2.82v-1.18h9v1.18c-1.16.42-2,1.52-2,2.82,0,1.65,1.35,3,3,3s3-1.35,3-3c0-1.3-.84-2.4-2-2.82v-1.18h4c.55,0,1,.45,1,1v8h-10c-.55,0-1,.45-1,1s.45,1,1,1h10v12c0,.55.45,1,1,1ZM10,53h44c.35,0,.69-.07,1-.18v1.18c0,.55-.45,1-1,1H10c-.55,0-1-.45-1-1v-1.18c.31.11.65.18,1,.18ZM15,16c-.55,0-1-.45-1-1s.45-1,1-1,1,.45,1,1-.45,1-1,1ZM26,16c-.55,0-1-.45-1-1s.45-1,1-1,1,.45,1,1-.45,1-1,1ZM38,16c-.55,0-1-.45-1-1s.45-1,1-1,1,.45,1,1-.45,1-1,1ZM49,16c-.55,0-1-.45-1-1s.45-1,1-1,1,.45,1,1-.45,1-1,1Z"/>
  <path d="M22,48c2.757,0,5-2.243,5-5s-2.243-5-5-5c-.553,0-1,.448-1,1v8c0,.552.447,1,1,1ZM23,40.171c1.164.413,2,1.525,2,2.829s-.836,2.416-2,2.829v-5.657Z"/>
  <path d="M34,48c.553,0,1-.448,1-1v-6c0-1.654-1.346-3-3-3s-3,1.346-3,3v6c0,.552.447,1,1,1s1-.448,1-1v-2h2v2c0,.552.447,1,1,1ZM31,43v-2c0-.551.448-1,1-1s1,.449,1,1v2h-2Z"/>
  <path d="M40,48c.553,0,1-.448,1-1v-3.764l1.895-3.789c.247-.494.047-1.095-.447-1.342-.494-.247-1.094-.047-1.342.447l-1.105,2.211-1.105-2.211c-.247-.494-.848-.694-1.342-.447-.494.247-.694.848-.447,1.342l1.895,3.789v3.764c0,.552.447,1,1,1Z"/>
  <path d="M18,25h-2c-.55,0-1,.45-1,1v8c0,.55.45,1,1,1s1-.45,1-1v-3h1c1.65,0,3-1.35,3-3s-1.35-3-3-3ZM18,29h-1v-2h1c.55,0,1,.45,1,1s-.45,1-1,1Z"/>
  <path d="M28.71,33.29l-2.33-2.33c1.47-.19,2.62-1.43,2.62-2.96,0-1.65-1.35-3-3-3h-2c-.55,0-1,.45-1,1v8c0,.55.45,1,1,1s1-.45,1-1v-1.59l2.29,2.3c.2.19.45.29.709.29.873,0,1.328-1.093.711-1.71ZM25,29v-2h1c.55,0,1,.45,1,1s-.45,1-1,1h-1Z"/>
  <path d="M33,34v-8c0-.552-.447-1-1-1s-1,.448-1,1v8c0,.552.447,1,1,1s1-.448,1-1Z"/>
  <path d="M41,30c0-2.757-2.243-5-5-5-.553,0-1,.448-1,1v8c0,.552.447,1,1,1,2.757,0,5-2.243,5-5ZM37,32.829v-5.657c1.164.413,2,1.525,2,2.829s-.836,2.416-2,2.829Z"/>
  <path d="M48,27c.553,0,1-.448,1-1s-.447-1-1-1h-4c-.553,0-1,.448-1,1v8c0,.552.447,1,1,1h4c.553,0,1-.448,1-1s-.447-1-1-1h-3v-2h3c.553,0,1-.448,1-1s-.447-1-1-1h-3v-2h3Z"/>
</svg>