<?xml version="1.0" encoding="UTF-8"?>
<svg id="Outline" xmlns="http://www.w3.org/2000/svg" version="1.1" viewBox="0 0 64 64">
  <!-- Generator: Adobe Illustrator 29.5.1, SVG Export Plug-In . SVG Version: 2.1.0 Build 141)  -->
  <path d="M46,33.05v-2.05h1c.55,0,1-.45,1-1s-.45-1-1-1h-4c-.55,0-1,.45-1,1s.45,1,1,1h1v2.05c-1.04.09-2.05.31-3,.65V12c0-1.65-1.35-3-3-3h-1v-1c0-.55-.45-1-1-1s-1,.45-1,1v1h-10v-1c0-.55-.45-1-1-1s-1,.45-1,1v1h-10v-1c0-.55-.45-1-1-1s-1,.45-1,1v1h-1c-1.65,0-3,1.35-3,3v8c0,.55.45,1,1,1s1-.45,1-1v-3h30v17.62c-1.1.64-2.08,1.44-2.92,2.38H10c-.55,0-1-.45-1-1v-8c0-.55-.45-1-1-1s-1,.45-1,1v8c0,1.65,1.35,3,3,3h24.62c-1.02,1.77-1.62,3.81-1.62,6,0,6.62,5.38,12,12,12s12-5.38,12-12c0-6.28-4.85-11.44-11-11.95ZM9,15v-3c0-.55.45-1,1-1h1v1c0,.55.45,1,1,1s1-.45,1-1v-1h10v1c0,.55.45,1,1,1s1-.45,1-1v-1h10v1c0,.55.45,1,1,1s1-.45,1-1v-1h1c.55,0,1,.45,1,1v3H9ZM45,55c-5.51,0-10-4.49-10-10s4.49-10,10-10,10,4.49,10,10-4.49,10-10,10Z"/>
  <path d="M46,42.184v-4.184c0-.552-.447-1-1-1s-1,.448-1,1v4.184c-1.161.414-2,1.514-2,2.816,0,1.654,1.346,3,3,3s3-1.346,3-3c0-1.302-.839-2.402-2-2.816ZM45,46c-.552,0-1-.449-1-1s.448-1,1-1,1,.449,1,1-.448,1-1,1Z"/>
  <path d="M25,30v-6c0-.552-.447-1-1-1h-2c-.553,0-1,.448-1,1s.447,1,1,1h1v5c0,.552.447,1,1,1s1-.448,1-1Z"/>
  <path d="M32,27c0-4.411-3.589-8-8-8s-8,3.589-8,8,3.589,8,8,8,8-3.589,8-8ZM18,27c0-3.309,2.691-6,6-6s6,2.691,6,6-2.691,6-6,6-6-2.691-6-6Z"/>
  <circle cx="8" cy="24" r="1"/>
</svg>