<?xml version="1.0" encoding="UTF-8"?>
<svg id="Outline" xmlns="http://www.w3.org/2000/svg" version="1.1" viewBox="0 0 64 64">
  <!-- Generator: Adobe Illustrator 29.5.1, SVG Export Plug-In . SVG Version: 2.1.0 Build 141)  -->
  <path d="M54,11h-3v-1c0-1.654-1.346-3-3-3s-3,1.346-3,3v1h-2v-1c0-1.654-1.346-3-3-3s-3,1.346-3,3v1h-10v-1c0-1.654-1.346-3-3-3s-3,1.346-3,3v1h-2v-1c0-1.654-1.346-3-3-3s-3,1.346-3,3v1h-3c-1.654,0-3,1.346-3,3v40c0,1.654,1.346,3,3,3h44c1.654,0,3-1.346,3-3V14c0-1.654-1.346-3-3-3ZM47,10c0-.552.448-1,1-1s1,.448,1,1v4c0,.552-.448,1-1,1s-1-.448-1-1v-4ZM39,10c0-.552.448-1,1-1s1,.448,1,1v4c0,.552-.448,1-1,1s-1-.448-1-1v-4ZM23,10c0-.552.448-1,1-1s1,.448,1,1v4c0,.552-.448,1-1,1s-1-.448-1-1v-4ZM15,10c0-.552.448-1,1-1s1,.448,1,1v4c0,.552-.448,1-1,1s-1-.448-1-1v-4ZM55,54c0,.552-.448,1-1,1H10c-.552,0-1-.448-1-1V14c0-.552.448-1,1-1h3v1c0,1.654,1.346,3,3,3s3-1.346,3-3v-1h2v1c0,1.654,1.346,3,3,3s3-1.346,3-3v-1h10v1c0,1.654,1.346,3,3,3s3-1.346,3-3v-1h2v1c0,1.654,1.346,3,3,3s3-1.346,3-3v-1h3c.552,0,1,.448,1,1v40Z"/>
  <path d="M52,19H12c-.553,0-1,.447-1,1s.447,1,1,1h40c.553,0,1-.447,1-1s-.447-1-1-1Z"/>
  <path d="M32,23c-8.271,0-15,6.729-15,15s6.729,15,15,15,15-6.729,15-15-6.729-15-15-15ZM32,51c-7.168,0-13-5.832-13-13s5.832-13,13-13,13,5.832,13,13-5.832,13-13,13Z"/>
  <path d="M32,41c1.654,0,3-1.346,3-3,0-1.302-.839-2.402-2-2.816v-7.184c0-.553-.447-1-1-1s-1,.447-1,1v.058c-1.2.121-2.376.451-3.444.987-3.427,1.701-5.556,5.133-5.556,8.955,0,1.108.177,2.184.522,3.19.384,1.134.983,2.197,1.744,3.129l-.045.045c-.391.391-.391,1.023,0,1.414.387.387,1.028.386,1.414,0l5.079-5.079c.391.187.824.301,1.285.301ZM32,39c-.552,0-1-.448-1-1s.448-1,1-1,1,.448,1,1-.448,1-1,1ZM24.415,40.545c-.275-.802-.415-1.658-.415-2.545,0-3.058,1.703-5.803,4.447-7.165.795-.398,1.664-.655,2.553-.768v5.117c-1.161.414-2,1.514-2,2.816,0,.462.113.894.301,1.285l-3.613,3.613c-.55-.708-.985-1.506-1.272-2.354Z"/>
  <path d="M36.444,29.045c-.494-.246-1.094-.045-1.34.451-.246.494-.044,1.095.451,1.34,2.741,1.361,4.444,4.106,4.444,7.164,0,4.411-3.589,8-8,8-.887,0-1.743-.14-2.545-.415-.522-.181-1.091.099-1.271.62-.18.522.098,1.091.62,1.271,1.012.348,2.087.524,3.195.524,5.514,0,10-4.486,10-10,0-3.822-2.129-7.254-5.556-8.955Z"/>
</svg>