<?xml version="1.0" encoding="UTF-8"?>
<svg id="Outline" xmlns="http://www.w3.org/2000/svg" version="1.1" viewBox="0 0 64 64">
  <!-- Generator: Adobe Illustrator 29.5.1, SVG Export Plug-In . SVG Version: 2.1.0 Build 141)  -->
  <path d="M54,9h-5v-1c0-.55-.45-1-1-1s-1,.45-1,1v1h-14v-1c0-.55-.45-1-1-1s-1,.45-1,1v1h-14v-1c0-.55-.45-1-1-1s-1,.45-1,1v1h-5c-1.65,0-3,1.35-3,3v42c0,1.65,1.35,3,3,3h44c1.65,0,3-1.35,3-3V12c0-1.65-1.35-3-3-3ZM48,14c.55,0,1,.45,1,1s-.45,1-1,1-1-.45-1-1,.45-1,1-1ZM32,14c.55,0,1,.45,1,1s-.45,1-1,1-1-.45-1-1,.45-1,1-1ZM16,14c.55,0,1,.45,1,1s-.45,1-1,1-1-.45-1-1,.45-1,1-1ZM55,54c0,.55-.45,1-1,1H10c-.55,0-1-.45-1-1v-1.18c.31.11.65.18,1,.18h44c.35,0,.69-.07,1-.18v1.18ZM55,50c0,.55-.45,1-1,1h-19.86c.77-5.8,3.4-11.18,7.51-15.33.41.2.86.33,1.35.33,1.65,0,3-1.35,3-3s-1.35-3-3-3-3,1.35-3,3c0,.43.09.84.26,1.21-4.51,4.53-7.37,10.44-8.15,16.79h-.22c-.78-6.35-3.64-12.26-8.15-16.79.17-.37.26-.78.26-1.21,0-1.65-1.35-3-3-3s-3,1.35-3,3,1.35,3,3,3c.49,0,.94-.13,1.35-.33,4.11,4.15,6.74,9.53,7.51,15.33H10c-.55,0-1-.45-1-1v-28h46v28ZM42,33c0-.55.45-1,1-1s1,.45,1,1-.45,1-1,1-1-.45-1-1ZM22,33c0,.55-.45,1-1,1s-1-.45-1-1,.45-1,1-1,1,.45,1,1ZM55,20H9v-8c0-.55.45-1,1-1h5v1.18c-1.16.42-2,1.52-2,2.82,0,1.65,1.35,3,3,3s3-1.35,3-3c0-1.3-.84-2.4-2-2.82v-1.18h14v1.18c-1.16.42-2,1.52-2,2.82,0,1.65,1.35,3,3,3s3-1.35,3-3c0-1.3-.84-2.4-2-2.82v-1.18h14v1.18c-1.16.42-2,1.52-2,2.82,0,1.65,1.35,3,3,3s3-1.35,3-3c0-1.3-.84-2.4-2-2.82v-1.18h5c.55,0,1,.45,1,1v8Z"/>
  <path d="M43,24c-.553,0-1,.448-1,1v2c0,.552.447,1,1,1s1-.448,1-1v-2c0-.552-.447-1-1-1Z"/>
  <path d="M38.05,26.636c-.391-.39-1.023-.39-1.414,0s-.391,1.024,0,1.415l1.415,1.414c.195.195.451.292.707.292.871,0,1.32-1.095.707-1.708l-1.415-1.414Z"/>
  <path d="M37,32h-2c-.553,0-1,.448-1,1s.447,1,1,1h2c.553,0,1-.448,1-1s-.447-1-1-1Z"/>
  <path d="M43,42c.553,0,1-.448,1-1v-2c0-.552-.447-1-1-1s-1,.448-1,1v2c0,.552.447,1,1,1Z"/>
  <path d="M47.95,39.364c.371.371,1.03.384,1.414,0,.391-.391.391-1.024,0-1.415l-1.415-1.414c-.391-.39-1.023-.39-1.414,0s-.391,1.024,0,1.415c0,0,1.41,1.409,1.415,1.414Z"/>
  <path d="M48,33c0,.552.447,1,1,1h2c.553,0,1-.448,1-1s-.447-1-1-1h-2c-.553,0-1,.448-1,1Z"/>
  <path d="M47.242,29.757c.256,0,.512-.098.707-.292l1.415-1.414c.391-.391.391-1.024,0-1.415s-1.023-.39-1.414,0l-1.415,1.414c-.614.614-.16,1.708.707,1.708Z"/>
  <path d="M21,24c-.553,0-1,.448-1,1v2c0,.552.447,1,1,1s1-.448,1-1v-2c0-.552-.447-1-1-1Z"/>
  <path d="M27.364,26.636c-.391-.391-1.023-.39-1.414,0l-1.415,1.414c-.391.391-.391,1.024,0,1.415.373.373,1.02.393,1.414,0l1.415-1.414c.391-.391.391-1.024,0-1.415Z"/>
  <path d="M29,32h-2c-.553,0-1,.448-1,1s.447,1,1,1h2c.553,0,1-.448,1-1s-.447-1-1-1Z"/>
  <path d="M21,42c.553,0,1-.448,1-1v-2c0-.552-.447-1-1-1s-1,.448-1,1v2c0,.552.447,1,1,1Z"/>
  <path d="M16.051,36.535l-1.415,1.414c-.391.391-.391,1.024,0,1.415.387.387,1.028.386,1.414,0l1.415-1.414c.391-.391.391-1.024,0-1.415s-1.023-.39-1.414,0Z"/>
  <path d="M16,33c0-.552-.447-1-1-1h-2c-.553,0-1,.448-1,1s.447,1,1,1h2c.553,0,1-.448,1-1Z"/>
  <path d="M16.05,26.636c-.391-.39-1.023-.39-1.414,0s-.391,1.024,0,1.415l1.415,1.414c.372.372,1.021.392,1.414,0,.391-.391.391-1.024,0-1.415l-1.415-1.414Z"/>
</svg>