<?xml version="1.0" encoding="UTF-8"?>
<svg id="Outline" xmlns="http://www.w3.org/2000/svg" version="1.1" viewBox="0 0 64 64">
  <!-- Generator: Adobe Illustrator 29.5.1, SVG Export Plug-In . SVG Version: 2.1.0 Build 141)  -->
  <path d="M32,7c-13.785,0-25,11.215-25,25s11.215,25,25,25,25-11.215,25-25S45.785,7,32,7ZM32,55c-12.683,0-23-10.317-23-23s10.317-23,23-23,23,10.317,23,23-10.317,23-23,23Z"/>
  <path d="M32,11c-11.579,0-21,9.421-21,21s9.421,21,21,21,21-9.421,21-21-9.421-21-21-21ZM32,51c-10.477,0-19-8.523-19-19s8.523-19,19-19,19,8.523,19,19-8.523,19-19,19Z"/>
  <path d="M44,21h-24c-1.654,0-3,1.346-3,3v6c0,.553.447,1,1,1h6c.553,0,1-.447,1-1v-3h14v3c0,.553.447,1,1,1h6c.553,0,1-.447,1-1v-6c0-1.654-1.346-3-3-3ZM45,29h-4v-3c0-.553-.447-1-1-1h-16c-.553,0-1,.447-1,1v3h-4v-5c0-.552.448-1,1-1h24c.552,0,1,.448,1,1v5Z"/>
  <path d="M43,35c-2.086,0-3.962-1.159-4.895-3.025l-1.211-2.422c-.17-.339-.516-.553-.895-.553h-8c-.379,0-.725.214-.895.553l-1.211,2.422c-.933,1.866-2.809,3.025-4.895,3.025-.553,0-1,.447-1,1v8c0,.553.447,1,1,1h22c.553,0,1-.447,1-1v-8c0-.553-.447-1-1-1ZM42,43h-20v-6.065c2.437-.324,4.561-1.819,5.684-4.065l.935-1.869h6.764l.935,1.869c1.123,2.246,3.246,3.741,5.684,4.065v6.065Z"/>
  <path d="M32,33c-2.206,0-4,1.794-4,4s1.794,4,4,4,4-1.794,4-4-1.794-4-4-4ZM32,39c-1.103,0-2-.897-2-2s.897-2,2-2,2,.897,2,2-.897,2-2,2Z"/>
</svg>