<?xml version="1.0" encoding="UTF-8"?>
<svg id="Outline" xmlns="http://www.w3.org/2000/svg" version="1.1" viewBox="0 0 64 64">
  <!-- Generator: Adobe Illustrator 29.3.1, SVG Export Plug-In . SVG Version: 2.1.0 Build 151)  -->
  <path d="M38.39185,36.14795c-.39062-.39062-1.02344-.39062-1.41406,0-2.81738,2.81641-7.3999,2.81543-10.21826-.00293l-2.90771-2.90723c-2.81641-2.81641-2.81641-7.39941,0-10.21582.39062-.39062.39062-1.02344,0-1.41406l-2.5-2.5c-.39062-.39062-1.02344-.39062-1.41406,0s-.39062,1.02344,0,1.41406l1.83105,1.83105c-2.91162,3.61816-2.68896,8.94141.6665,12.29688l2.9126,2.91211c3.35693,3.35645,8.67969,3.58008,12.29883.66895l8.78223,8.78223c-2.92529,2.58789-6.64648,4.00195-10.58398,4.00195-3.34229,0-6.5542-1.03223-9.28955-2.98438-2.8125-2.00586-5.46777-4.25781-7.89502-6.69531-2.43408-2.42383-4.68555-5.0791-6.69141-7.8916-1.95215-2.73438-2.98389-5.94629-2.98389-9.28906,0-3.9375,1.41406-7.6582,4.00146-10.58398l1.30127,1.30078c.39062.39062,1.02344.39062,1.41406,0s.39062-1.02344,0-1.41406l-2.02979-2.0293c-.39062-.39062-1.02344-.39062-1.41406,0-3.40039,3.40039-5.27295,7.91992-5.27295,12.72656,0,3.76172,1.16064,7.37598,3.35596,10.45117,2.07031,2.90332,4.39453,5.64453,6.90527,8.14453,2.50293,2.51367,5.24463,4.83789,8.14746,6.9082,3.07568,2.19629,6.68994,3.35645,10.45117,3.35645,4.80664,0,9.32666-1.87305,12.72705-5.27344.1875-.1875.29297-.44141.29297-.70703s-.10547-.51953-.29297-.70703l-10.18018-10.17969Z"/>
  <path d="M53.68677,20.20752c-2.07861-2.07812-4.84082-3.22266-7.77734-3.22266s-5.69824,1.14453-7.77686,3.22266c-.39062.39062-.39062,1.02344,0,1.41406s1.02344.39062,1.41406,0c1.70068-1.7002,3.96045-2.63672,6.36279-2.63672s4.6626.93652,6.36328,2.63672c.19525.19525.45099.29291.70679.29297.87329.00018,1.32312-1.09119.70728-1.70703Z"/>
  <path d="M45.90942,20.98486c-1.87842,0-3.63623.73047-4.9502,2.05566-.38867.39258-.38574,1.02539.00635,1.41406.39209.3877,1.02441.38574,1.41455-.00586.93506-.94434,2.18848-1.46387,3.5293-1.46387s2.59473.51953,3.52979,1.46387c.1958.19727.45306.2959.71039.2959.86987,0,1.32428-1.08508.71051-1.7041-1.31396-1.3252-3.07227-2.05566-4.95068-2.05566Z"/>
  <path d="M43.78296,25.87744c-.38525.39648-.37646,1.0293.01953,1.41406.39502.38574,1.02979.37598,1.41406-.01953.36084-.37207,1.02637-.37012,1.38623,0,.19568.20105.45581.30261.71637.30273.86749.00031,1.31885-1.07812.71722-1.69727-1.11914-1.14941-3.13428-1.15137-4.25342,0Z"/>
  <path d="M45.59399,10.98486c-6.29785,0-11.42139,5.12305-11.42139,11.4209v11.5791c0,.4043.24365.76953.61725.92383.37134.15497.80511.06781,1.08978-.2168,0-.00006,3.03223-3.03223,3.03223-3.03223,1.93994,1.40332,4.27979,2.16699,6.68213,2.16699,6.29736,0,11.4209-5.12305,11.4209-11.4209s-5.12354-11.4209-11.4209-11.4209ZM45.59399,31.82666c-2.23633,0-4.40674-.80273-6.1123-2.26074-.18799-.16113-.41895-.24023-.6499-.24023-.25635,0-.5127.09863-.70703.29297l-1.95215,1.95215v-9.16504c0-5.19434,4.22656-9.4209,9.42139-9.4209s9.4209,4.22656,9.4209,9.4209-4.22607,9.4209-9.4209,9.4209Z"/>
  <circle cx="17.81921" cy="16.98486" r="1"/>
</svg>