<?xml version="1.0" encoding="UTF-8"?>
<svg id="Outline" xmlns="http://www.w3.org/2000/svg" version="1.1" viewBox="0 0 64 64">
  <!-- Generator: Adobe Illustrator 29.5.1, SVG Export Plug-In . SVG Version: 2.1.0 Build 141)  -->
  <path d="M48,43c-.553,0-1,.447-1,1v12c0,.553.447,1,1,1s1-.447,1-1v-12c0-.553-.447-1-1-1Z"/>
  <path d="M47.24,30.75c-.89-.89-2.02-1.46-3.24-1.66v-7.09c0-.55-.45-1-1-1s-1,.45-1,1v21h-2.14v-1.8c0-1.34-1-2.49-2.33-2.69l-1.77-.25,2.61-1.05c.31-.12.54-.39.61-.72s-.04-.67-.27-.91c-.91-.9-1.42-2.16-1.42-3.43v-.76c.07-.07.14-.13.21-.2.51-.61.74-1.42.61-2.21-.1-.61-.42-1.14-.87-1.54.01-.19.05-.38.05-.58,0-4.34-3.53-7.86-7.86-7.86s-7.86,3.52-7.86,7.86c0,.2.03.39.05.58-.45.4-.77.93-.87,1.54-.13.8.09,1.6.61,2.21.06.07.14.13.21.2v.76c0,1.27-.52,2.53-1.42,3.43-.24.24-.34.58-.27.91s.29.6.61.72l2.61,1.05-1.77.25c-1.33.19-2.33,1.35-2.33,2.69v1.8h-2V14c0-.55.45-1,1-1h23c.55,0,1,.45,1,1v4c0,.55.45,1,1,1s1-.45,1-1v-8c0-1.65-1.35-3-3-3h-23c-1.65,0-3,1.35-3,3v36c0,1.65,1.35,3,3,3h11.98l6.25,7.63c.341.416.989.506,1.4.14.43-.35.49-.98.14-1.4l-7.59-9.28c-.47-.59-.43-1.42.1-1.95.48-.49,1.29-.56,1.84-.19l5.66,3.77c1.35.9,3.09.9,4.43,0,1.15-.76,1.83-2.03,1.83-3.44-.03-3.23-.04-10.38-.04-13.16.69.18,1.32.54,1.83,1.04.75.77,1.17,1.77,1.17,2.84v5c0,.55.45,1,1,1s1-.45,1-1v-5c0-1.6-.62-3.1-1.76-4.25ZM17,10c0-.55.45-1,1-1h23c.55,0,1,.45,1,1v1.18c-.31-.11-.65-.18-1-.18h-23c-.35,0-.69.07-1,.18v-1.18ZM33.49,37.01l-.23-1.09c1-.8,1.72-1.9,2.07-3.16.1,1.11.45,2.17,1.05,3.1l-2.89,1.15ZM29.43,21c3.18,0,5.77,2.55,5.85,5.71h-2.76c-1.6,0-3.09-.79-3.97-2.12-.38-.56-1.3-.56-1.67,0l-.34.51c-.66.99-1.77,1.59-2.96,1.61.08-3.16,2.67-5.71,5.85-5.71ZM22.72,29.3c.06-.33.41-.59.8-.59,1.65,0,3.19-.71,4.25-1.93,1.26,1.23,2.95,1.93,4.75,1.93h2.82c.39,0,.74.26.79.591.074.432-.264.839-.7.839h-.86c-.55,0-1,.45-1,1,0,2.29-1.86,4.15-4.14,4.15s-4.14-1.86-4.14-4.15c0-.55-.45-1-1-1h-.86c-.459,0-.771-.4-.71-.84ZM22.48,35.86c.6-.93.95-1.99,1.05-3.1.34,1.26,1.07,2.36,2.06,3.16l-.23,1.09-2.88-1.15ZM18,47c-.55,0-1-.45-1-1v-1h10.86c-.04.69.15,1.39.54,2h-10.4ZM33.23,42.29c-1.32-.88-3.22-.71-4.37.43-.08.09-.15.19-.23.28h-7.63v-1.8c0-.35.26-.66.61-.71l3.34-.47c1.13-.16,2.04-1.02,2.27-2.13l.2-.95c.63.22,1.3.35,2.01.35.7,0,1.37-.13,2-.35l.2.94c.24,1.12,1.15,1.98,2.28,2.14l3.33.47c.35.05.62.36.62.71v1.8h-3.56l-1.07-.71ZM41.1,46.06c-.66.44-1.54.44-2.21,0l-1.58-1.06h4.6c-.15.42-.42.8-.81,1.06Z"/>
</svg>