<?xml version="1.0" encoding="UTF-8"?>
<svg id="Outline" xmlns="http://www.w3.org/2000/svg" version="1.1" viewBox="0 0 64 64">
  <!-- Generator: Adobe Illustrator 29.5.1, SVG Export Plug-In . SVG Version: 2.1.0 Build 141)  -->
  <path d="M54,19h-12.28l-1.77-5.32c-.14-.4-.52-.68-.95-.68h-14c-.43,0-.81.28-.95.68l-1.77,5.32h-4.28v-1c0-1.65-1.35-3-3-3h-2c-1.65,0-3,1.35-3,3v1c-1.65,0-3,1.35-3,3v26c0,1.65,1.35,3,3,3h44c1.65,0,3-1.35,3-3v-26c0-1.65-1.35-3-3-3ZM12,18c0-.55.45-1,1-1h2c.55,0,1,.45,1,1v1h-4v-1ZM9,29h13.64c-1.65,1.72-2.84,3.88-3.35,6.3-.4-.19-.83-.3-1.29-.3-1.65,0-3,1.35-3,3s1.35,3,3,3c.46,0,.89-.11,1.29-.3.33,1.55.94,3,1.77,4.3h-12.06v-16ZM19,38c0,.55-.45,1-1,1s-1-.45-1-1,.45-1,1-1,1,.45,1,1ZM10,49c-.55,0-1-.45-1-1v-1h13.64c.74.76,1.56,1.43,2.46,2h-15.1ZM21,38c0-6.07,4.93-11,11-11s11,4.93,11,11-4.93,11-11,11-11-4.93-11-11ZM55,48c0,.55-.45,1-1,1h-15.1c.9-.57,1.72-1.24,2.46-2h13.64v1ZM55,45h-12.06c1.3-2.02,2.06-4.42,2.06-7,0-3.49-1.39-6.66-3.64-9h13.64v16ZM55,27h-16.1c-2.01-1.26-4.37-2-6.9-2s-4.89.74-6.9,2H9v-5c0-.55.45-1,1-1h13c.43,0,.81-.28.95-.68l1.77-5.32h12.56l1.77,5.32c.14.4.52.68.95.68h13c.55,0,1,.45,1,1v5Z"/>
  <path d="M28,23h8c.553,0,1-.448,1-1v-4c0-.552-.447-1-1-1h-8c-.553,0-1,.448-1,1v4c0,.552.447,1,1,1ZM29,19h6v2h-6v-2Z"/>
  <path d="M32,47c4.963,0,9-4.038,9-9s-4.037-9-9-9-9,4.038-9,9,4.037,9,9,9ZM32,31c3.859,0,7,3.14,7,7s-3.141,7-7,7-7-3.14-7-7,3.141-7,7-7Z"/>
  <path d="M12,25h2c.553,0,1-.448,1-1s-.447-1-1-1h-2c-.553,0-1,.448-1,1s.447,1,1,1Z"/>
  <path d="M18,25h2c.553,0,1-.448,1-1s-.447-1-1-1h-2c-.553,0-1,.448-1,1s.447,1,1,1Z"/>
  <path d="M52,31h-4c-.553,0-1,.448-1,1v4c0,.552.447,1,1,1h4c.553,0,1-.448,1-1v-4c0-.552-.447-1-1-1ZM51,35h-2v-2h2v2Z"/>
</svg>