<?xml version="1.0" encoding="UTF-8"?>
<svg id="Outline" xmlns="http://www.w3.org/2000/svg" version="1.1" viewBox="0 0 64 64">
  <!-- Generator: Adobe Illustrator 29.5.1, SVG Export Plug-In . SVG Version: 2.1.0 Build 141)  -->
  <path d="M52,7h-24c-1.65,0-3,1.35-3,3v19.18l-3.41.68c-.61.12-1.2.33-1.76.6l-2.72,1.37c-1.9.95-3.25,2.67-3.71,4.74l-.69,3.13c-.35,1.56-1.51,2.84-3.03,3.35-.52.18-.8.74-.63,1.27.14.42.53.68.95.68.1,0,.21-.02.32-.05,2.18-.73,3.84-2.57,4.34-4.82l.7-3.13c.32-1.47,1.29-2.71,2.64-3.38l2.73-1.37c.4-.19.82-.34,1.25-.43l3.02-.6v4.3l-4.62,3.7c-.24.19-.38.48-.38.78v8c0,.39.23.75.59.91.35.16.77.1,1.07-.16l5.94-5.2c.76-.66,1.91-.62,2.63.09.75.75.75,1.97,0,2.72l-7.18,7.18c-.94.94-2.2,1.46-3.54,1.46h-9.51c-.55,0-1,.45-1,1s.45,1,1,1h9.51c1.88,0,3.63-.73,4.95-2.05l.58-.57c.19,1.47,1.43,2.62,2.96,2.62h24c1.65,0,3-1.35,3-3V10c0-1.65-1.35-3-3-3ZM25,43.17l-3,2.63v-5.32l3-2.4v5.09ZM33,9h14v1c0,.55-.45,1-1,1h-12c-.55,0-1-.45-1-1v-1ZM37.18,55h-9.18c-.55,0-1-.45-1-1v-1.18c.32.11.65.18,1,.18h9.18c-.11.31-.18.65-.18,1s.07.69.18,1ZM40,55c-.55,0-1-.45-1-1s.45-1,1-1,1,.45,1,1-.45,1-1,1ZM53,54c0,.55-.45,1-1,1h-9.18c.11-.31.18-.65.18-1s-.07-.69-.18-1h9.18c.35,0,.69-.07,1-.18v1.18ZM53,50c0,.55-.45,1-1,1h-23.59l3.23-3.23c1.53-1.53,1.53-4.01,0-5.54-1.25-1.25-3.15-1.48-4.64-.67V10c0-.55.45-1,1-1h3v1c0,1.65,1.35,3,3,3h12c1.65,0,3-1.35,3-3v-1h3c.55,0,1,.45,1,1v40Z"/>
  <path d="M51,38v-10c0-1.654-1.346-3-3-3h-2.382l-1.724-3.447c-.169-.339-.516-.553-.895-.553h-6c-.379,0-.725.214-.895.553l-1.724,3.447h-2.382c-1.654,0-3,1.346-3,3v10c0,1.654,1.346,3,3,3h16c1.654,0,3-1.346,3-3ZM31,38v-10c0-.552.449-1,1-1h3c.379,0,.725-.214.895-.553l1.724-3.447h4.764l1.724,3.447c.169.339.516.553.895.553h3c.551,0,1,.448,1,1v10c0,.552-.449,1-1,1h-16c-.551,0-1-.448-1-1Z"/>
  <path d="M40,27c-2.757,0-5,2.243-5,5s2.243,5,5,5,5-2.243,5-5-2.243-5-5-5ZM40,35c-1.654,0-3-1.346-3-3s1.346-3,3-3,3,1.346,3,3-1.346,3-3,3Z"/>
  <path d="M40,19c.552,0,1-.447,1-1v-2c0-.553-.448-1-1-1s-1,.447-1,1v2c0,.553.448,1,1,1Z"/>
  <path d="M36.464,19.879c.195.195.451.293.707.293.875,0,1.324-1.09.707-1.707l-1.414-1.414c-.391-.391-1.023-.391-1.414,0s-.391,1.023,0,1.414l1.414,1.414Z"/>
  <path d="M42.828,20.165c.256,0,.514-.093.707-.286l1.414-1.414c.391-.391.391-1.023,0-1.414s-1.023-.391-1.414,0l-1.414,1.414c-.61.61-.152,1.699.707,1.701Z"/>
</svg>