<?xml version="1.0" encoding="UTF-8"?>
<svg id="Outline" xmlns="http://www.w3.org/2000/svg" version="1.1" viewBox="0 0 64 64">
  <!-- Generator: Adobe Illustrator 29.5.1, SVG Export Plug-In . SVG Version: 2.1.0 Build 141)  -->
  <path d="M54,17.005h-12.28l-1.77-5.32c-.14-.4-.52-.68-.95-.68h-8c-.55,0-1,.45-1,1s.45,1,1,1h7.28l1.33,4h-15.22l1.33-4h1.28c.55,0,1-.45,1-1s-.45-1-1-1h-2c-.43,0-.81.28-.95.68l-1.77,5.32h-4.28c-.55,0-1,.45-1,1s.45,1,1,1h36c.55,0,1,.45,1,1v5h-14.52c-2.02-2.44-5.07-4-8.48-4s-6.46,1.56-8.48,4h-14.52v-5c0-.55.45-1,1-1h4c.55,0,1-.45,1-1s-.45-1-1-1h-4c-1.65,0-3,1.35-3,3v30c0,.49.35.91.84.99,8.01,1.33,16.09,2,24.16,2s16.15-.67,24.16-2c.49-.08.84-.5.84-.99v-30c0-1.65-1.35-3-3-3ZM32,23.005c4.96,0,9,4.04,9,9s-4.04,9-9,9-9-4.04-9-9,4.04-9,9-9ZM55,49.155c-15.27,2.45-30.73,2.45-46,0v-2.15h46v2.15ZM55,45.005H9v-18h13.21c-.77,1.5-1.21,3.2-1.21,5,0,6.07,4.93,11,11,11s11-4.93,11-11c0-1.8-.44-3.5-1.21-5h13.21v18Z"/>
  <path d="M32,39.005c3.859,0,7-3.14,7-7s-3.141-7-7-7-7,3.14-7,7,3.141,7,7,7ZM32,27.005c2.757,0,5,2.243,5,5s-2.243,5-5,5-5-2.243-5-5,2.243-5,5-5Z"/>
  <path d="M14,21.005h-2c-.553,0-1,.448-1,1s.447,1,1,1h2c.553,0,1-.448,1-1s-.447-1-1-1Z"/>
  <path d="M20,23.005c.553,0,1-.448,1-1s-.447-1-1-1h-2c-.553,0-1,.448-1,1s.447,1,1,1h2Z"/>
  <path d="M52,23.005c.553,0,1-.448,1-1s-.447-1-1-1h-2c-.553,0-1,.448-1,1s.447,1,1,1h2Z"/>
  <path d="M46,23.005c.553,0,1-.448,1-1s-.447-1-1-1h-2c-.553,0-1,.448-1,1s.447,1,1,1h2Z"/>
</svg>