<?xml version="1.0" encoding="UTF-8"?>
<svg id="Outline" xmlns="http://www.w3.org/2000/svg" version="1.1" viewBox="0 0 64 64">
  <!-- Generator: Adobe Illustrator 29.0.0, SVG Export Plug-In . SVG Version: 2.1.0 Build 186)  -->
  <path d="M56.89612,35.95001c.12994-.41003-.01001-.87006-.36005-1.12006-1.97998-1.43994-3.42999-3.42999-4.17999-5.75-.13-.40997-.51996-.68994-.95001-.68994-.79999,0-1.57996-.09003-2.34998-.25v-5.14001c0-.54999-.45001-1-1-1s-1,.45001-1,1v4.53998c-.84998-.34998-1.65997-.79999-2.40997-1.34998-.35004-.25-.83002-.25-1.18005,0-1.97998,1.44-4.31,2.20001-6.75995,2.20001-.43005,0-.82001.27997-.95001.68994-.75,2.32001-2.20001,4.31006-4.17999,5.75-.35004.25-.48999.71002-.36005,1.12006.76001,2.31995.76001,4.77997,0,7.09998-.12994.40997.01001.87.36005,1.12,1.97998,1.44,3.42999,3.42999,4.17999,5.75.13.40997.51996.69.95001.69,2.44995,0,4.77997.76001,6.75995,2.20001.18005.13.38.19.59003.19s.40997-.06.59003-.19c.75-.54999,1.56-1,2.40997-1.35004v2.54004c0,.54999-.45001,1-1,1h-28c-.54999,0-1-.45001-1-1V12c0-1.13-.39001-2.16003-1.03003-3h28.03003c1.65002,0,3,1.34998,3,3v3c0,.54999.45001,1,1,1s1-.45001,1-1v-3c0-2.76001-2.23999-5-5-5H12.05609c-2.76001,0-5,2.23999-5,5v8c0,.54999.45001,1,1,1h7v33c0,1.64996,1.34998,3,3,3h28c1.65002,0,3-1.35004,3-3v-3.14001c.77002-.15997,1.54999-.25,2.34998-.25.43005,0,.82001-.28003.95001-.69.75-2.32001,2.20001-4.31,4.17999-5.75.35004-.25.48999-.71002.36005-1.12-.76001-2.32001-.76001-4.78003,0-7.09998ZM15.05609,19h-6v-7c0-1.65002,1.34998-3,3-3s3,1.34998,3,3v7ZM54.78607,42.98999c-1.83997,1.48999-3.25,3.41998-4.09998,5.64001-2.37.12-4.64001.85999-6.63,2.15997-1.98999-1.29999-4.26001-2.03998-6.63-2.15997-.84998-2.22003-2.26001-4.15002-4.09998-5.64001.60999-2.29999.60999-4.67999,0-6.97998,1.83997-1.49005,3.25-3.42004,4.09998-5.64001,2.37-.12,4.64001-.85999,6.63-2.16003,1.98999,1.30005,4.26001,2.04004,6.63,2.16003.84998,2.21997,2.26001,4.14996,4.09998,5.64001-.60999,2.29999-.60999,4.67999,0,6.97998Z"/>
  <path d="M45.05609,16v-4c0-.55273-.44727-1-1-1h-24c-.55273,0-1,.44727-1,1v4c0,.55273.44727,1,1,1h24c.55273,0,1-.44727,1-1ZM43.05609,15h-22v-2h22v2Z"/>
  <path d="M20.05609,25h4c.55273,0,1-.44727,1-1v-4c0-.55273-.44727-1-1-1h-4c-.55273,0-1,.44727-1,1v4c0,.55273.44727,1,1,1ZM21.05609,21h2v2h-2v-2Z"/>
  <path d="M42.05609,20c0,.54999-.45001,1-1,1h-13c-.54999,0-1-.45001-1-1s.45001-1,1-1h13c.54999,0,1,.45001,1,1Z"/>
  <path d="M38.05609,24c0,.54999-.45001,1-1,1h-9c-.54999,0-1-.45001-1-1s.45001-1,1-1h9c.54999,0,1,.45001,1,1Z"/>
  <path d="M33.05609,28c0-.55273-.44727-1-1-1h-12c-.55273,0-1,.44727-1,1s.44727,1,1,1h12c.55273,0,1-.44727,1-1Z"/>
  <path d="M20.05609,31c-.55273,0-1,.44727-1,1s.44727,1,1,1h8c.55273,0,1-.44727,1-1s-.44727-1-1-1h-8Z"/>
  <path d="M49.71332,33.84277c-1.16992-1.16992-3.07227-1.16992-4.24219,0l-1.41504,1.41504-1.41504-1.41504c-1.16992-1.16992-3.07227-1.16992-4.24219,0s-1.16992,3.07227,0,4.24219l1.41504,1.41504-1.41504,1.41504c-1.16992,1.16992-1.16992,3.07227,0,4.24219s3.07227,1.16992,4.24219,0l1.41504-1.41504,1.41504,1.41504c1.13449,1.13449,3.08803,1.15416,4.24219,0,1.16992-1.16992,1.16992-3.07227,0-4.24219l-1.41504-1.41504,1.41504-1.41504c1.16992-1.16992,1.16992-3.07227,0-4.24219ZM48.29925,36.6709l-2.12207,2.12207c-.39062.39062-.39062,1.02344,0,1.41406l2.12207,2.12207c.38965.38965.38965,1.02441,0,1.41406-.39062.39062-1.02344.39062-1.41406,0l-2.12207-2.12207c-.19531-.19531-.45117-.29297-.70703-.29297s-.51172.09766-.70703.29297l-2.12207,2.12207c-.39062.39062-1.02344.39062-1.41406,0-.38965-.38965-.38965-1.02441,0-1.41406l2.12207-2.12207c.39062-.39062.39062-1.02344,0-1.41406l-2.12207-2.12207c-.38965-.38965-.38965-1.02441,0-1.41406.39062-.39062,1.02344-.39062,1.41406,0l2.12207,2.12207c.39062.39062,1.02344.39062,1.41406,0l2.12207-2.12207c.39062-.39062,1.02344-.39062,1.41406,0,.38965.38965.38965,1.02441,0,1.41406Z"/>
  <circle cx="48.05609" cy="19" r="1"/>
</svg>