<?xml version="1.0" encoding="UTF-8"?>
<svg id="Outline" xmlns="http://www.w3.org/2000/svg" version="1.1" viewBox="0 0 64 64">
  <!-- Generator: Adobe Illustrator 29.5.1, SVG Export Plug-In . SVG Version: 2.1.0 Build 141)  -->
  <path d="M52.69,35.63c-1-2.51-1.22-5.22-.63-7.86,0-1.229.868-2.452.65-3.7-.22-1.28-1.38-2.25-3.29-2.74-1.63-.41-3.69-.44-5.79-.09-2.99.51-5.4,1.65-6.68,3.03-.52-.47-1.2-.76-1.95-.78v-5.49c0-2.76,2.24-5,5-5s5,2.24,5,5c0,.55.45,1,1,1h4c.55,0,1-.45,1-1,0-6.07-4.93-11-11-11s-11,4.93-11,11v5.49c-.75.02-1.43.31-1.95.78-1.28-1.38-3.69-2.52-6.68-3.03-2.1-.35-4.16-.32-5.79.09-1.91.49-3.07,1.46-3.29,2.74-.189,1.102.409,2.62.65,3.7.59,2.64.37,5.35-.63,7.86-.13.31-.09.66.1.93.18.27.49.44.83.44h5.43c3.22,0,6.39-.99,9.04-2.8.54.68,1.36,1.13,2.29,1.15v20.65c0,.55.45,1,1,1h4c.55,0,1-.45,1-1v-9c0-.55-.45-1-1-1s-1,.45-1,1v8h-2v-19.65h2v3.65c0,.55.45,1,1,1s1-.45,1-1v-3.65c.93-.02,1.75-.47,2.29-1.15,2.65,1.81,5.82,2.8,9.04,2.8h5.43c.34,0,.65-.17.83-.44.19-.27.23-.62.1-.93ZM15.07,23.27c.71-.18,1.56-.27,2.46-.27.8,0,1.66.07,2.51.22,3.84.64,6.16,2.44,6.01,3.34-.07.42-.78.87-1.81,1.12-1.34.35-3.15.37-4.96.06-3.85-.65-6.17-2.44-6.02-3.34.07-.42.78-.87,1.81-1.13ZM26.06,32.21c-2.42,1.8-5.38,2.79-8.39,2.79h-4.03c.67-2.26.8-4.63.39-6.96,1.3.75,2.98,1.35,4.92,1.67.96.17,1.92.25,2.83.25,1.07,0,2.08-.11,2.96-.34.49-.12.93-.28,1.32-.47v3.06ZM31,18c0-4.96,4.04-9,9-9,4.62,0,8.45,3.51,8.94,8h-2.01c-.49-3.39-3.41-6-6.93-6-3.86,0-7,3.14-7,7v5.49h-2v-5.49ZM35.94,32.35c0,.55-.45,1-1,1h-5.88c-.55,0-1-.45-1-1v-5.86c0-.55.45-1,1-1h5.88c.55,0,1,.45,1,1v5.86ZM46.33,35c-3.01,0-5.97-.99-8.39-2.79v-3.06c.39.19.83.35,1.32.47.88.23,1.89.34,2.96.34.91,0,1.87-.08,2.83-.25,1.94-.32,3.62-.92,4.92-1.67-.41,2.33-.28,4.7.39,6.96h-4.03ZM44.72,27.74c-1.81.3-3.62.28-4.96-.06-1.03-.25-1.74-.7-1.81-1.12-.15-.9,2.17-2.7,6.01-3.34.85-.15,1.71-.22,2.51-.22.9,0,1.75.09,2.46.27,1.03.26,1.74.71,1.81,1.13.15.9-2.17,2.69-6.02,3.34Z"/>
  <circle cx="34" cy="43" r="1"/>
</svg>