<?xml version="1.0" encoding="UTF-8"?>
<svg id="Outline" xmlns="http://www.w3.org/2000/svg" version="1.1" viewBox="0 0 64 64">
  <!-- Generator: Adobe Illustrator 29.5.1, SVG Export Plug-In . SVG Version: 2.1.0 Build 141)  -->
  <path d="M38.72,41.07c-2.119.617-4.381.93-6.721.93-6.586,0-12.252-2.501-14.703-6.062-.026-.037-.045-.08-.075-.113-.784-1.179-1.222-2.47-1.222-3.825,0-3.113,2.402-6.103,6.426-7.995.5-.235.714-.831.479-1.331-.236-.5-.831-.714-1.331-.479-2.292,1.079-4.132,2.494-5.427,4.107-2.625-.95-5.095-2.263-7.336-3.943l-.213-.159c-.348-.261-.828-.267-1.184-.01-.354.256-.502.712-.363,1.127l.859,2.579c.626,1.879.355,3.901-.743,5.55-.224.336-.224.773,0,1.109,1.099,1.648,1.369,3.671.743,5.55l-.859,2.579c-.139.415.009.871.363,1.127.354.255.837.251,1.184-.01l.214-.16c2.244-1.682,4.717-2.996,7.347-3.947,3.047,3.752,9.004,6.307,15.84,6.307,2.529,0,4.979-.34,7.279-1.01.53-.154.835-.709.681-1.239s-.71-.837-1.239-.681ZM9.885,38.491c.658-2.19.399-4.511-.714-6.491,1.113-1.98,1.372-4.302.714-6.491,1.624,1.002,3.342,1.837,5.13,2.515-.659,1.261-1.015,2.603-1.015,3.976,0,1.393.376,2.725,1.033,3.969-1.794.68-3.518,1.517-5.148,2.522Z"/>
  <path d="M56.088,38.104c-.626-1.879-.355-3.901.743-5.55.224-.336.224-.773,0-1.109-1.099-1.648-1.369-3.671-.743-5.55l.859-2.579c.139-.415-.009-.871-.363-1.127-.354-.257-.834-.251-1.184.01l-.214.16c-2.244,1.682-4.717,2.996-7.347,3.947-3.047-3.752-9.004-6.307-15.84-6.307-2.146,0-4.245.249-6.239.739-.536.132-.863.673-.731,1.21.133.536.671.868,1.21.731,1.837-.451,3.775-.681,5.761-.681,6.586,0,12.252,2.501,14.703,6.063.026.037.044.079.075.112.784,1.179,1.222,2.471,1.222,3.825,0,2.86-1.997,5.596-5.48,7.503-.865.473-.547,1.877.481,1.877.162,0,.327-.039.479-.123,1.819-.996,3.274-2.214,4.361-3.563,2.63.951,5.103,2.265,7.347,3.948l.213.159c.74.554,1.86-.18,1.547-1.117l-.859-2.579ZM54.113,38.491c-1.622-1-3.337-1.834-5.121-2.512.657-1.26,1.007-2.601,1.007-3.979,0-1.393-.376-2.725-1.033-3.969,1.794-.68,3.518-1.517,5.148-2.522-.658,2.19-.399,4.511.714,6.491-1.113,1.98-1.372,4.302-.714,6.491Z"/>
  <path d="M35.999,33v-1c0-.553-.447-1-1-1h-6c-.553,0-1,.447-1,1v1c0,2.206,1.794,4,4,4s4-1.794,4-4ZM29.999,33h4c0,1.103-.897,2-2,2s-2-.897-2-2Z"/>
  <path d="M24.999,31c.553,0,1-.447,1-1v-2c0-.553-.447-1-1-1s-1,.447-1,1v2c0,.553.447,1,1,1Z"/>
  <path d="M38.999,27c-.553,0-1,.447-1,1v2c0,.553.447,1,1,1s1-.447,1-1v-2c0-.553-.447-1-1-1Z"/>
</svg>