<?xml version="1.0" encoding="UTF-8"?>
<svg id="Outline" xmlns="http://www.w3.org/2000/svg" version="1.1" viewBox="0 0 64 64">
  <!-- Generator: Adobe Illustrator 29.5.1, SVG Export Plug-In . SVG Version: 2.1.0 Build 141)  -->
  <path d="M52.907,26.303c-5.461-5.459-14.344-5.459-19.805,0l-24.75,24.75c-.188.188-.293.442-.293.708s.105.52.294.707l4.25,4.24c.195.194.45.292.706.292s.512-.098.707-.293l12.431-12.43c.391-.391.391-1.023,0-1.414s-1.023-.391-1.414,0l-1.315,1.314-3.775-1.888,4.873-4.873,3.776,1.887-.729.729c-.391.391-.391,1.023,0,1.414s1.023.391,1.414,0l9.489-9.49c1.132-1.132,2.639-1.755,4.243-1.755s3.111.623,4.241,1.754c2.336,2.345,2.337,6.152.002,8.487l-3.54,3.54c-.188.188-.293.441-.293.707s.105.52.293.707l4.24,4.239c.391.391,1.023.391,1.414,0l3.54-3.54c5.457-5.457,5.457-14.336,0-19.794ZM51.493,27.717c1.209,1.209,2.098,2.615,2.682,4.115l-14.365-7.185c4.029-1.106,8.524-.089,11.683,3.071ZM13.309,54.587l-2.834-2.828,1.614-1.614,3.774,1.888-2.555,2.554ZM22.228,45.669l-4.874,4.873-3.775-1.888,4.873-4.873,3.775,1.888ZM26.307,35.926l4.166-4.166,3.774,1.888-4.165,4.166-3.775-1.887ZM37.353,30.543l-1.614,1.614-3.774-1.888,2.552-2.552c.849-.849,1.797-1.539,2.804-2.079l5.177,2.59c-1.945.122-3.757.928-5.145,2.316ZM48.66,47.516l-2.826-2.825,2.833-2.833c.221-.221.421-.453.611-.692l3.622,1.811c-.411.599-.875,1.174-1.407,1.706l-2.833,2.833ZM53.885,41.233l-3.573-1.787c1.081-2.445.884-5.325-.602-7.612l5.144,2.573c.345,2.301.022,4.678-.969,6.826Z"/>
  <path d="M19,31c6.729,0,12-3.185,12-7.25,0-.794-.224-1.492-.62-2.085.385-.543.62-1.183.62-1.865v-.8c0-.872-.38-1.651-.976-2.2.764-.828.976-1.78.976-2.55,0-4.065-5.271-7.25-12-7.25s-12,3.185-12,7.25c0,.77.212,1.722.976,2.55-.596.549-.976,1.328-.976,2.2v.8c0,.68.234,1.32.621,1.864-.397.593-.621,1.292-.621,2.086,0,4.065,5.271,7.25,12,7.25ZM19,29c-5.421,0-10-2.404-10-5.25,0-.339.067-.613.193-.851,1.4.614,3.055.598,4.41-.078.874-.445,1.919-.447,2.822.015l.271.126c.725.368,1.52.552,2.311.552.783,0,1.562-.18,2.266-.537l.324-.152c.887-.443,1.915-.444,2.808,0,1.386.687,3.005.7,4.403.076.125.237.192.511.192.849,0,2.846-4.579,5.25-10,5.25ZM19,9c5.421,0,10,2.404,10,5.25,0,.576-.16,1.228-1.226,1.75h-11.774c-.553,0-1,.447-1,1s.447,1,1,1h12c.552,0,1,.448,1,1v.8c0,.415-.21.805-.552,1.036-.938.621-2.146.698-3.151.199-1.447-.723-3.17-.711-4.57-.012l-.33.155c-.874.444-1.92.446-2.822-.015l-.271-.126c-1.441-.733-3.164-.734-4.6-.003-.961.481-2.223.412-3.143-.193-.351-.237-.561-.627-.561-1.042v-.8c0-.552.448-1,1-1h2c.553,0,1-.447,1-1s-.447-1-1-1h-1.774c-1.065-.522-1.226-1.174-1.226-1.75,0-2.846,4.579-5.25,10-5.25Z"/>
</svg>