<?xml version="1.0" encoding="UTF-8"?>
<svg id="Outline" xmlns="http://www.w3.org/2000/svg" version="1.1" viewBox="0 0 64 64">
  <!-- Generator: Adobe Illustrator 29.3.1, SVG Export Plug-In . SVG Version: 2.1.0 Build 151)  -->
  <path d="M49.09619,13.50879l-.62469,2.33203-2.4715,1.42694v-2.8537l1.70703-1.70703c.39062-.39062.39062-1.02344,0-1.41406s-1.02344-.39062-1.41406,0l-1.29297,1.29297-1.29297-1.29297c-.39062-.39062-1.02344-.39062-1.41406,0s-.39062,1.02344,0,1.41406l1.70703,1.70703v2.8537l-2.4715-1.42694-.62469-2.33203c-.14258-.53418-.68799-.85254-1.22461-.70703-.5332.14258-.8501.69141-.70703,1.22461l.47314,1.7666-1.76611.47363c-.53366.14257-.85007.69135-.70705,1.22453.14061.52421.7011.84909,1.22463.70711l2.3316-.62506,2.47131,1.42682-2.47131,1.42682-2.3316-.62506c-.53369-.14355-1.08154.17383-1.22461.70703s.17334,1.08203.70703,1.22461l1.76611.47363-.47314,1.7666c-.14307.5332.17383,1.08203.70718,1.22465.52538.14159,1.08414-.18086,1.22446-.70707l.62469-2.33203,2.4715-1.42694v2.8537l-1.70703,1.70703c-.39062.39062-.39062,1.02344,0,1.41406s1.02344.39062,1.41406,0l1.29297-1.29297,1.29297,1.29297c.19526.19526.45103.29291.70682.29297.8728.00018,1.3218-1.09247.70724-1.70703l-1.70703-1.70703v-2.8537l2.4715,1.42694.62469,2.332c.33541,1.25209,2.26616.72916,1.93165-.51755l-.47314-1.7666,1.76611-.47363c.53369-.14258.8501-.69141.70703-1.22461-.14307-.53418-.69238-.85254-1.22461-.70703l-2.3316.62506-2.47131-1.42682,2.47131-1.42682s2.3316.62506,2.33163.62507c.52109.14129,1.08543-.18678,1.22458-.70704.14307-.5332-.17334-1.08203-.70703-1.22461l-1.76611-.47363.47314-1.7666c.14307-.5332-.17383-1.08203-.70703-1.22461-.5376-.14551-1.08203.17383-1.22461.70703Z"/>
  <path d="M55.87598,13.92578c-.23438-.5-.82861-.71191-1.32959-.48242-.5.23438-.71582.83008-.48193,1.33008.62061,1.32715.93555,2.74902.93555,4.22656,0,5.51367-4.48584,10-10,10s-10-4.48633-10-10,4.48584-10,10-10c1.37793,0,2.69775.26855,3.92334.79785.50586.21875,1.0957-.01367,1.31445-.52148.21924-.50684-.01416-1.0957-.52148-1.31445-1.47705-.63867-3.06396-.96191-4.71631-.96191-4.6355,0-8.65753,2.64655-10.6554,6.50403-2.93011-4.24615-7.88092-6.74683-13.10388-6.48352-7.98535.39355-14.24072,7.15332-14.24072,15.38965v2.58984c0,1.32324.51758,2.57812,1.46777,3.54199.95361.94043,2.20801,1.45801,3.53223,1.45801,2.75684,0,5-2.24316,5-5v-3c0-1.43555.62012-2.80469,1.70117-3.75586,1.09521-.96289,2.50195-1.39258,3.96045-1.20215,2.47314.31934,4.33838,2.54102,4.33838,5.16797v29.79004c0,2.75684,2.24316,5,5,5s5-2.24316,5-5v-24.08105c2.12567,1.90863,4.92511,3.08105,8,3.08105,6.6167,0,12-5.38281,12-12,0-1.77246-.37793-3.47949-1.12402-5.07422ZM35,48.87659c-.8407.71527-1.88452,1.12341-3,1.12341s-2.1593-.40814-3-1.12341v-3.59344c.91931.46552,1.93958.71686,3,.71686s2.08069-.25134,3-.71686v3.59344ZM35,30.87659c-.8407.71527-1.88452,1.12341-3,1.12341s-2.1593-.40814-3-1.12341v-3.59344c.91931.46552,1.93958.71686,3,.71686s2.08069-.25134,3-.71686v3.59344ZM35,42.87659c-.8407.71527-1.88452,1.12341-3,1.12341s-2.1593-.40814-3-1.12341v-3.59344c.91931.46552,1.93958.71686,3,.71686s2.08069-.25134,3-.71686v3.59344ZM35,36.87659c-.8407.71527-1.88452,1.12341-3,1.12341s-2.1593-.40814-3-1.12341v-3.59344c.91931.46552,1.93958.71686,3,.71686s2.08069-.25134,3-.71686v3.59344ZM22.91748,15.05762c-2.00879-.25293-4.02734.35645-5.53711,1.68555-1.5127,1.33105-2.38037,3.24707-2.38037,5.25684v3c0,1.6543-1.3457,3-3,3-.79541,0-1.55127-.31348-2.11768-.87207-.56885-.57715-.88232-1.33301-.88232-2.12793v-2.58984c0-7.16895,5.41992-13.05176,12.34033-13.3916,5.02118-.26611,9.71338,2.42108,12.09387,6.8288-.27478,1.00647-.4342,2.06018-.4342,3.15265,0,2.23865.62744,4.32855,1.69904,6.12402-.78436.56226-1.71521.87598-2.69904.87598-1.11548,0-2.1593-.40814-3-1.12341v-2.66663c0-3.62891-2.61475-6.70312-6.08252-7.15234ZM32,55c-1.6543,0-3-1.3457-3-3v-.71686c.91931.46552,1.93958.71686,3,.71686s2.08069-.25134,3-.71686v.71686c0,1.6543-1.3457,3-3,3Z"/>
  <path d="M53.34985,11.81146c.3905-.39056.3905-1.02368,0-1.41425-.39056-.3905-1.02368-.3905-1.41425,0-.3905.39056-.3905,1.02368,0,1.41425.39056.3905,1.02368.3905,1.41425,0Z"/>
</svg>