<?xml version="1.0" encoding="UTF-8"?>
<svg id="Outline" xmlns="http://www.w3.org/2000/svg" version="1.1" viewBox="0 0 64 64">
  <!-- Generator: Adobe Illustrator 29.5.1, SVG Export Plug-In . SVG Version: 2.1.0 Build 141)  -->
  <path d="M56.759,44.349l-2.086-2.435,2.168-3.374c.198-.308.212-.699.037-1.02-.176-.321-.512-.521-.878-.521-3.807,0-7.123,1.712-8.812,4.224-.427-.974-1.012-1.906-1.765-2.771-.363-.418-.996-.459-1.41-.098-.417.363-.461.995-.098,1.411,1.363,1.566,2.084,3.375,2.084,5.233,0,3.456-2.468,6.507-6.21,8.304l-1.377-3.215c-.801-1.869-.605-3.996.522-5.688,1.378-2.067,1.718-4.605.932-6.964l-.272-.815c.513.238,1.014.493,1.484.781.473.288,1.087.14,1.375-.331.288-.471.14-1.087-.332-1.375-2.843-1.739-6.438-2.697-10.121-2.697-7.068,0-13.07,3.459-15.181,8.235-1.686-2.518-5.006-4.235-8.819-4.235-.366,0-.702.2-.878.521-.175.321-.161.712.037,1.02l2.168,3.374-2.086,2.435c-.321.375-.321.927,0,1.302l2.086,2.435-2.168,3.374c-.198.308-.212.699-.037,1.02.176.321.512.521.878.521,3.813,0,7.132-1.718,8.819-4.235,2.111,4.775,8.111,8.233,15.176,8.235.001,0,.003,0,.004,0s.003,0,.005,0c7.066-.001,13.067-3.459,15.178-8.235,1.686,2.518,5.006,4.235,8.819,4.235.366,0,.702-.2.878-.521.175-.321.161-.712-.037-1.02l-2.168-3.374,2.086-2.435c.321-.375.321-.927,0-1.302ZM37.97,38.07c.589,1.768.334,3.671-.699,5.222-1.505,2.257-1.765,5.093-.696,7.585l1.357,3.168c-1.589.534-3.336.857-5.181.928l-.956-3.405c-.632-2.248-.326-4.699.839-6.723,1.392-2.417,1.788-5.237,1.117-7.943l-.461-1.857c1.344.09,2.654.325,3.899.683l.781,2.343ZM26.775,54.27l-1.363-3.181c-.801-1.869-.605-3.996.522-5.688,1.378-2.067,1.718-4.605.932-6.964l-.824-2.473c1.589-.537,3.337-.863,5.183-.936l.584,2.355c.546,2.201.224,4.497-.908,6.463-1.433,2.488-1.809,5.5-1.032,8.262l.799,2.843c-1.364-.093-2.669-.328-3.892-.681ZM9.947,50.82l1.465-2.28c.239-.372.206-.856-.082-1.191l-2.013-2.349,2.013-2.349c.288-.335.321-.82.082-1.191l-1.465-2.28c3.474.654,6.053,3.015,6.053,5.82s-2.579,5.167-6.053,5.82ZM18,45c0-3.448,2.455-6.493,6.182-8.292l.787,2.362c.589,1.768.334,3.671-.699,5.222-1.505,2.257-1.765,5.093-.696,7.585l.606,1.413c-3.726-1.799-6.18-4.844-6.18-8.291ZM52.67,47.349c-.288.335-.321.82-.082,1.191l1.465,2.28c-3.474-.654-6.053-3.015-6.053-5.82s2.579-5.167,6.053-5.82l-1.465,2.28c-.239.372-.206.856.082,1.191l2.013,2.349-2.013,2.349Z"/>
  <path d="M7.241,19.651l2.086,2.435-2.168,3.374c-.198.308-.212.699-.037,1.02.176.321.512.521.878.521,3.813,0,7.132-1.718,8.819-4.235,2.111,4.775,8.111,8.233,15.176,8.235.001,0,.003,0,.004,0s.003,0,.005,0c7.066-.001,13.067-3.459,15.178-8.235,1.686,2.518,5.006,4.235,8.819,4.235.366,0,.702-.2.878-.521.175-.321.161-.712-.037-1.02l-2.168-3.374,2.086-2.435c.321-.375.321-.927,0-1.302l-2.086-2.435,2.168-3.374c.198-.308.212-.699.037-1.02-.176-.321-.512-.521-.878-.521-3.804,0-7.118,1.709-8.808,4.217-.319-.729-.731-1.434-1.23-2.105-.33-.443-.956-.535-1.399-.204-.442.33-.534.957-.204,1.399,1.089,1.461,1.642,3.041,1.642,4.692,0,3.456-2.468,6.507-6.21,8.304l-1.377-3.215c-.801-1.869-.605-3.996.522-5.688,1.378-2.067,1.718-4.605.932-6.964l-.278-.833c.735.342,1.431.736,2.075,1.18.458.314,1.079.198,1.391-.256.313-.455.199-1.078-.256-1.391-2.937-2.022-6.771-3.136-10.798-3.136-7.068,0-13.07,3.459-15.181,8.235-1.686-2.518-5.006-4.235-8.819-4.235-.366,0-.702.2-.878.521-.175.321-.161.712.037,1.02l2.168,3.374-2.086,2.435c-.321.375-.321.927,0,1.302ZM54.053,13.179l-1.465,2.28c-.239.372-.206.856.082,1.191l2.013,2.349-2.013,2.349c-.288.335-.321.82-.082,1.191l1.465,2.28c-3.474-.654-6.053-3.015-6.053-5.82s2.579-5.167,6.053-5.82ZM25.412,25.089c-.801-1.869-.605-3.996.522-5.688,1.378-2.067,1.718-4.605.932-6.964l-.824-2.473c1.589-.537,3.337-.863,5.183-.936l.584,2.355c.546,2.201.224,4.497-.908,6.463-1.433,2.488-1.809,5.5-1.032,8.262l.799,2.843c-1.364-.093-2.669-.328-3.892-.681l-1.363-3.181ZM37.97,12.07c.589,1.768.334,3.671-.699,5.222-1.505,2.257-1.765,5.093-.696,7.585l1.357,3.168c-1.589.534-3.336.857-5.181.928l-.956-3.405c-.632-2.248-.326-4.699.839-6.723,1.392-2.417,1.788-5.237,1.117-7.943l-.461-1.857c1.348.088,2.657.313,3.894.667l.786,2.359ZM24.182,10.708l.787,2.362c.589,1.768.334,3.671-.699,5.222-1.505,2.257-1.765,5.093-.696,7.585l.606,1.413c-3.726-1.799-6.18-4.844-6.18-8.291s2.455-6.493,6.182-8.292ZM11.33,16.651c.288-.335.321-.82.082-1.191l-1.465-2.28c3.474.654,6.053,3.015,6.053,5.82s-2.579,5.167-6.053,5.82l1.465-2.28c.239-.372.206-.856-.082-1.191l-2.013-2.349,2.013-2.349Z"/>
</svg>