<?xml version="1.0" encoding="UTF-8"?>
<svg id="Outline" xmlns="http://www.w3.org/2000/svg" version="1.1" viewBox="0 0 64 64">
  <!-- Generator: Adobe Illustrator 29.5.1, SVG Export Plug-In . SVG Version: 2.1.0 Build 141)  -->
  <path d="M13.001,31.007c0-9.925,8.075-18,18-18,4.608,0,8.985,1.736,12.323,4.887.402.379,1.035.361,1.414-.041.379-.402.361-1.035-.041-1.414-3.711-3.503-8.575-5.433-13.696-5.433-11.028,0-20,8.972-20,20,0,5.121,1.93,9.985,5.433,13.696.352.373,1.012.421,1.414.041.401-.379.42-1.012.041-1.414-3.151-3.338-4.887-7.715-4.887-12.323Z"/>
  <path d="M47.453,19.638c-.314-.454-.939-.568-1.391-.252-.454.314-.567.938-.252,1.391,2.088,3.014,3.192,6.551,3.192,10.23,0,9.925-8.075,18-18,18-3.679,0-7.217-1.104-10.23-3.192-.452-.314-1.077-.201-1.391.252-.315.454-.202,1.077.252,1.391,3.35,2.321,7.281,3.548,11.369,3.548,11.028,0,20-8.972,20-20,0-4.088-1.227-8.02-3.548-11.369Z"/>
  <path d="M56.121,51.887l-6.17-6.18c3.16-4.06,5.05-9.16,5.05-14.7,0-13.23-10.77-24-24-24S7.001,17.777,7.001,31.007s10.77,24,24,24c5.54,0,10.64-1.89,14.7-5.05l6.18,6.17c1.131,1.129,3.079,1.181,4.24,0,1.17-1.17,1.17-3.07,0-4.24ZM31.001,53.007c-12.13,0-22-9.87-22-22S18.871,9.007,31.001,9.007s22,9.87,22,22-9.87,22-22,22ZM54.711,54.717c-.39.39-1.03.39-1.42,0l-6.05-6.06c.49-.45.96-.92,1.41-1.41l6.06,6.05c.39.39.39,1.03,0,1.42Z"/>
  <path d="M46.781,28.337c-.09-.48-.5-.83-.99-.83s-.91.35-.99.83c-1.07,6.43-6.38,11.17-12.8,11.63v-3.96h1c2.76,0,5-2.24,5-5v-2c0-.55-.45-1-1-1h-2c-1.13,0-2.16.39-3,1.03v-4.03h.58c1.82,0,3.42-1.16,3.99-2.88.24-.69.28-1.43.14-2.15l-.83-4.17c-.08-.36-.34-.65-.69-.76-.36-.1-.74-.01-1,.25l-3.29,3.3-3.3-3.3c-.26-.26-.64-.35-.99-.25-.36.11-.62.4-.69.76l-.84,4.17c-.14.71-.1,1.46.14,2.15.57,1.72,2.17,2.88,3.99,2.88h.79v4.03c-.84-.64-1.87-1.03-3-1.03h-2c-.55,0-1,.45-1,1v2c0,2.76,2.24,5,5,5h1v3.96c-6.42-.46-11.73-5.2-12.8-11.63-.08-.48-.5-.83-.99-.83s-.9.35-.99.83c-.14.86-.22,1.76-.22,2.67,0,8.82,7.18,16,16,16s16-7.18,16-16c0-.91-.08-1.81-.22-2.67ZM35.001,30.007h1v1c0,1.65-1.35,3-3,3h-1v-1c0-1.65,1.35-3,3-3ZM29.211,23.007c-.95,0-1.8-.61-2.1-1.51-.12-.36-.14-.75-.07-1.13l.47-2.33,2.68,2.68c.39.39,1.02.39,1.41,0l2.68-2.68.47,2.33c.07.38.05.77-.07,1.13-.3.9-1.14,1.51-2.1,1.51h-3.37ZM29.001,34.007c-1.65,0-3-1.35-3-3v-1h1c1.65,0,3,1.35,3,3v1h-1ZM31.001,45.007c-6.5,0-11.97-4.45-13.55-10.46,2.85,4.54,7.89,7.46,13.55,7.46s10.7-2.92,13.55-7.46c-1.58,6.01-7.05,10.46-13.55,10.46Z"/>
</svg>