<?xml version="1.0" encoding="UTF-8"?>
<svg id="Outline" xmlns="http://www.w3.org/2000/svg" version="1.1" viewBox="0 0 64 64">
  <!-- Generator: Adobe Illustrator 29.0.0, SVG Export Plug-In . SVG Version: 2.1.0 Build 186)  -->
  <path d="M56,46.99989h-13.35999c.76996-.62,1.42999-1.37,1.95996-2.20001,4.63-3.32001,7.40002-8.70001,7.40002-14.40002v-.39996c0-.54999-.45001-1-1-1h-5v-1c0-.54999-.45001-1-1-1h-1.58002c-1.77997-2.97003-7.51996-5-14.41998-5s-12.64001,2.02997-14.41998,5h-1.58002c-.54999,0-1,.45001-1,1v12c0,2.82996,1.31,5.34998,3.35999,7h-7.35999c-.54999,0-1,.45001-1,1v2c0,.46997.33002.88.79999.97998l9.29004,1.94c.42999,2.32001,2.46997,4.08002,4.90997,4.08002h19c2.45001,0,4.48999-1.78003,4.90997-4.10999l10.27002-1.91003c.47998-.08002.82001-.5.82001-.97998v-2c0-.54999-.45001-1-1-1ZM46,39.99989v-9h3.98999c-.14001,3.69-1.59998,7.20001-4.03998,9.90997.02997-.29999.04999-.59998.04999-.90997ZM29,23.99989c5.48999,0,9.78003,1.37,11.77002,3h-23.54004c1.98999-1.63,6.28003-3,11.77002-3ZM14,39.99989v-11h30v11c0,3.85999-3.14001,7-7,7h-16c-3.85999,0-7-3.14001-7-7ZM41,54.99989h-19c-1.29999,0-2.41998-.84003-2.83002-2h24.66003c-.41003,1.15997-1.53003,2-2.83002,2ZM55,49.16988l-9.89001,1.83002h-27.40997l-8.70001-1.81v-.19h46v.16998Z"/>
  <path d="M29,30.99989c-2.80371,0-5,3.0752-5,7s2.19629,7,5,7,5-3.0752,5-7-2.19629-7-5-7ZM26,37.99989c0-1.76318.5863-3.33569,1.44055-4.22827-.28162,1.58301-.05505,3.23651.66492,4.67554.5459,1.0918.71484,2.35156.47461,3.54883l-.17999.89801c-1.35022-.47821-2.40009-2.52539-2.40009-4.8941ZM30.55945,42.22816c.28162-1.58301.05505-3.23651-.66492-4.67554-.5459-1.0918-.71484-2.35156-.47461-3.54883l.17999-.89801c1.35022.47821,2.40009,2.52539,2.40009,4.8941,0,1.76318-.5863,3.33569-1.44055,4.22827Z"/>
  <path d="M33.85059,20.68349c.19238.20605.45801.31641.72955.31641.54659-.00003.99994-.45348.99994-1v-2.4873c0-.63379.30273-1.23926.80957-1.62012.93457-.7002,1.51758-1.76953,1.60059-2.93457.08301-1.16406-.34375-2.30566-1.16895-3.13086l-2.53418-2.53418c-.28613-.28613-.71484-.37109-1.08984-.2168-.37402.1543-.61719.51953-.61719.92383v2.56152c0,.6123-.27246,1.18457-.80078,1.61523-.86328.70215-1.40137,1.74121-1.47559,2.85156-.0752,1.10938.31836,2.21094,1.0791,3.02148l2.46777,2.63379ZM33.09668,13.68349c.94238-.76855,1.4834-1.90625,1.4834-3.12207v-.14746l.82715.82715c.41504.41504.62988.98926.58789,1.5752s-.33496,1.12402-.80469,1.47656c-.99707.74707-1.59668,1.93262-1.61035,3.17773l-.73828-.78809c-.3877-.41406-.58105-.9541-.54297-1.52051s.30176-1.07617.79785-1.47852Z"/>
  <path d="M23.85059,20.68349c.19237.20604.45797.31639.72945.31641.54485.00002,1.00004-.45408,1.00004-1v-2.4873c0-.63379.30273-1.23926.80957-1.62012.93457-.7002,1.51758-1.76953,1.60059-2.93457.08301-1.16406-.34375-2.30566-1.16895-3.13086l-2.53418-2.53418c-.28613-.28613-.71582-.37109-1.08984-.2168s-.61719.51953-.61719.92383v2.56152c0,.6123-.27246,1.18457-.80078,1.61523-.86328.70215-1.40137,1.74121-1.47559,2.85156-.0752,1.10938.31836,2.21094,1.0791,3.02148l2.46777,2.63379ZM23.09668,13.68349c.94238-.76855,1.4834-1.90625,1.4834-3.12207v-.14746l.82715.82715c.41504.41504.62988.98926.58789,1.5752s-.33496,1.12402-.80469,1.47656c-.99707.74707-1.59668,1.93262-1.61035,3.17773l-.73828-.78809c-.3877-.41406-.58105-.9541-.54297-1.52051s.30176-1.07617.79785-1.47852Z"/>
</svg>