<?xml version="1.0" encoding="UTF-8"?>
<svg id="Outline" xmlns="http://www.w3.org/2000/svg" version="1.1" viewBox="0 0 64 64">
  <!-- Generator: Adobe Illustrator 29.5.1, SVG Export Plug-In . SVG Version: 2.1.0 Build 141)  -->
  <path d="M23,26h-1.026c.635-.838,1.026-1.87,1.026-3,0-1.641-.806-3.088-2.031-4,1.225-.912,2.031-2.359,2.031-4,0-2.414-1.721-4.434-4-4.899v-2.101c0-.552-.447-1-1-1s-1,.448-1,1v2.101c-2.279.465-4,2.484-4,4.899,0,1.641.806,3.088,2.031,4-1.225.912-2.031,2.359-2.031,4,0,1.13.391,2.162,1.026,3h-1.026c-.553,0-1,.448-1,1v6c0,.552.447,1,1,1h1.026c-.635.838-1.026,1.87-1.026,3,0,1.641.806,3.088,2.031,4-1.225.912-2.031,2.359-2.031,4,0,2.414,1.721,4.434,4,4.899v6.101c0,.552.447,1,1,1s1-.448,1-1v-6.101c2.279-.465,4-2.484,4-4.899,0-1.641-.806-3.088-2.031-4,1.225-.912,2.031-2.359,2.031-4,0-1.13-.391-2.162-1.026-3h1.026c.553,0,1-.448,1-1v-6c0-.552-.447-1-1-1ZM15,15c0-1.654,1.346-3,3-3s3,1.346,3,3-1.346,3-3,3-3-1.346-3-3ZM15,23c0-1.654,1.346-3,3-3s3,1.346,3,3-1.346,3-3,3-3-1.346-3-3ZM21,45c0,1.654-1.346,3-3,3s-3-1.346-3-3,1.346-3,3-3,3,1.346,3,3ZM21,37c0,1.654-1.346,3-3,3s-3-1.346-3-3,1.346-3,3-3,3,1.346,3,3ZM22,32h-8v-4h8v4Z"/>
  <path d="M37,26h-1.026c.635-.838,1.026-1.87,1.026-3,0-1.641-.806-3.088-2.031-4,1.225-.912,2.031-2.359,2.031-4,0-2.414-1.721-4.434-4-4.899v-2.101c0-.552-.447-1-1-1s-1,.448-1,1v2.101c-2.279.465-4,2.484-4,4.899,0,1.641.806,3.088,2.031,4-1.225.912-2.031,2.359-2.031,4,0,1.13.391,2.162,1.026,3h-1.026c-.553,0-1,.448-1,1v6c0,.552.447,1,1,1h1.026c-.635.838-1.026,1.87-1.026,3,0,1.641.806,3.088,2.031,4-1.225.912-2.031,2.359-2.031,4,0,2.414,1.721,4.434,4,4.899v6.101c0,.552.447,1,1,1s1-.448,1-1v-6.101c2.279-.465,4-2.484,4-4.899,0-1.641-.806-3.088-2.031-4,1.225-.912,2.031-2.359,2.031-4,0-1.13-.391-2.162-1.026-3h1.026c.553,0,1-.448,1-1v-6c0-.552-.447-1-1-1ZM29,15c0-1.654,1.346-3,3-3s3,1.346,3,3-1.346,3-3,3-3-1.346-3-3ZM29,23c0-1.654,1.346-3,3-3s3,1.346,3,3-1.346,3-3,3-3-1.346-3-3ZM35,45c0,1.654-1.346,3-3,3s-3-1.346-3-3,1.346-3,3-3,3,1.346,3,3ZM35,37c0,1.654-1.346,3-3,3s-3-1.346-3-3,1.346-3,3-3,3,1.346,3,3ZM36,32h-8v-4h8v4Z"/>
  <path d="M51,26h-1.03c.64-.84,1.03-1.87,1.03-3,0-1.64-.81-3.09-2.03-4,1.22-.91,2.03-2.36,2.03-4,0-2.41-1.72-4.43-4-4.9v-2.1c0-.55-.45-1-1-1s-1,.45-1,1v2.23c-.27.19-.44.51-.42.86.04.55.51.98,1.07.93.12-.01.23-.02.35-.02,1.65,0,3,1.35,3,3s-1.35,3-3,3c-.98,0-1.86-.45-2.43-1.24-.32-.45-.94-.55-1.39-.23s-.56.94-.23,1.39c.3.42.66.78,1.07,1.09-1.22.91-2.02,2.35-2.02,3.99,0,1.13.39,2.16,1.03,3h-1.03c-.55,0-1,.45-1,1v6c0,.55.45,1,1,1h1.03c-.64.84-1.03,1.87-1.03,3,0,1.64.81,3.09,2.03,4-1.22.91-2.03,2.36-2.03,4,0,2.41,1.72,4.43,4,4.9v6.1c0,.55.45,1,1,1s1-.45,1-1v-6.1c2.28-.47,4-2.49,4-4.9,0-1.64-.81-3.09-2.03-4,1.22-.91,2.03-2.36,2.03-4,0-1.13-.39-2.16-1.03-3h1.03c.55,0,1-.45,1-1v-6c0-.55-.45-1-1-1ZM46,20c1.65,0,3,1.35,3,3s-1.35,3-3,3-3-1.35-3-3,1.35-3,3-3ZM49,45c0,1.65-1.35,3-3,3s-3-1.35-3-3,1.35-3,3-3,3,1.35,3,3ZM46,40c-1.65,0-3-1.35-3-3s1.35-3,3-3,3,1.35,3,3-1.35,3-3,3ZM50,32h-8v-4h8v4Z"/>
  <path d="M41.939,14.287c.505.225,1.096-.002,1.32-.507.225-.505-.002-1.096-.507-1.32-.505-.225-1.096.002-1.32.507-.225.505.002,1.096.507,1.32Z"/>
</svg>