<?xml version="1.0" encoding="UTF-8"?>
<svg id="Outline" xmlns="http://www.w3.org/2000/svg" version="1.1" viewBox="0 0 64 64">
  <!-- Generator: Adobe Illustrator 29.3.1, SVG Export Plug-In . SVG Version: 2.1.0 Build 151)  -->
  <circle cx="17.9849" cy="49" r="1"/>
  <circle cx="45.9849" cy="49" r="1"/>
  <path d="M56.99491,40.89996c-.01001-1.33997-.53003-2.58997-1.47998-3.52997-.95001-.94-2.17004-1.47998-3.54004-1.45001l-9.58002.03998-5.67999-5.77997c-.82996-.71002-2.13-1.19-3.22998-1.19h-.02002c-.01001,0-1.5.01001-3.44.02002-.00995,0-.02997-.01001-.03998-.01001s-.03003.01001-.03998.01001c-3.56.00995-8.52002.02997-8.52002.02997-1.20001.01001-2.34998.44-3.32001,1.28003l-5.56,5.75995-2.58002.01001c-1.64996.01001-2.98999,1.36005-2.97998,3.01001l.01001,1.87c0,.01001-.01001.02002-.01001.03003v4c0,.03998.02002.07001.02002.10999l.01001,1.98999c.00995,1.65002,1.34998,2.98999,3,2.98999h.00995l3.08002-.01001c.5,2.24005,2.48999,3.92004,4.88,3.92004,2.40997,0,4.42999-1.72003,4.90002-4h2.09998c.54999,0,1-.45001,1-1s-.45001-1-1-1h-2.09998c-.47003-2.28003-2.49005-4-4.90002-4-2.44,0-4.46997,1.76001-4.90997,4.07996l-3.05005.01001h-.00995c-.55005,0-1-.44-1-.98999v-1.09998h2.96997c.54999,0,1-.45001,1-1,0-2.41003-1.71997-4.42999-4-4.90002v-1c0-.56.44-1.01001.98999-1.01001l3-.01001c.27002,0,.53003-.10999.72003-.31l2.27997-2.35999,2.29999,2.29999c.19.18005.44.29004.71002.29004l32.98999-.08002c.76001-.02002,1.56.29999,2.13.87.34998.34003.58002.76001.72998,1.21002h-.84998c-1.65002,0-3,1.34998-3,3s1.34998,3,3,3h1.03003v.89996c0,.27002-.10004.52002-.29004.71002s-.44.29999-.70996.29999l-3.15002.01001c-.5-2.23999-2.48999-3.91998-4.88-3.91998-2.40997,0-4.42999,1.71997-4.90002,4h-8.09998c-.54999,0-1,.45001-1,1s.45001,1,1,1h8.09998c.47003,2.27997,2.49005,4,4.90002,4,2.44,0,4.46997-1.76001,4.90997-4.08002l3.13-.01001c.80005-.01001,1.55005-.32001,2.12-.89001.57001-.56995.88-1.32996.87006-2.12l-.02002-6ZM17.9849,46c1.65002,0,3,1.34998,3,3s-1.34998,3-3,3c-1.59003,0-2.89001-1.25-2.97998-2.82001,0-.03998.01996-.07001.01996-.10999,0-.05005-.01996-.10004-.02997-.15002.03998-1.62,1.35999-2.91998,2.98999-2.91998ZM10.81491,44h-1.81l-.01001-1.82001c.84998.29999,1.52002.96997,1.82001,1.82001ZM19.39487,36l-2.02997-2.03003,2.12-2.20001c.17999-.14996.37-.26996.58002-.37994l1.52997,4.60999h-2.20001ZM28.9849,36h-5.28003l-1.64996-4.96002c1.27997,0,4.31-.02002,6.92999-.02997v4.98999ZM30.9849,36v-5c1.44,0,2.46002-.01001,2.47998-.01001h.01001c.64001,0,1.47003.31,1.88.65002l4.28003,4.35999h-8.65002ZM54.9849,44h-1c-.54999,0-1-.45001-1-1s.45001-1,1-1h1v2ZM45.9849,52c-1.65002,0-3-1.35004-3-3s1.34998-3,3-3,3,1.34998,3,3-1.34998,3-3,3Z"/>
  <path d="M39.9849,45c0-.55225-.44727-1-1-1h-14c-.55273,0-1,.44775-1,1s.44727,1,1,1h14c.55273,0,1-.44775,1-1Z"/>
  <path d="M52.9849,19c0-2.75684-2.24316-5-5-5s-5,2.24316-5,5,2.24316,5,5,5,5-2.24316,5-5ZM44.9849,19c0-1.6543,1.3457-3,3-3s3,1.3457,3,3-1.3457,3-3,3-3-1.3457-3-3Z"/>
  <path d="M47.9849,34c.29688,0,.57715-.13135.76758-.35889.84277-1.00928,8.23242-9.99414,8.23242-14.64111,0-4.9624-4.03711-9-9-9s-9,4.0376-9,9c0,4.64697,7.38965,13.63184,8.23242,14.64111.19043.22754.4707.35889.76758.35889ZM47.9849,12c3.85938,0,7,3.14014,7,7,0,2.98193-4.51172,9.27979-7,12.41406-2.48828-3.13428-7-9.43213-7-12.41406,0-3.85986,3.14062-7,7-7Z"/>
  <circle cx="28.9849" cy="49" r="1"/>
</svg>