<?xml version="1.0" encoding="UTF-8"?>
<svg id="Outline" xmlns="http://www.w3.org/2000/svg" version="1.1" viewBox="0 0 64 64">
  <!-- Generator: Adobe Illustrator 29.5.1, SVG Export Plug-In . SVG Version: 2.1.0 Build 141)  -->
  <path d="M52,42c2.757,0,5-2.243,5-5v-2c0-.553-.447-1-1-1h-2c-1.13,0-2.162.391-3,1.026v-1.026c0-.553-.447-1-1-1s-1,.447-1,1v1.026c-.838-.635-1.87-1.026-3-1.026h-2c-.553,0-1,.447-1,1v2c0,2.757,2.243,5,5,5h1v4.026c-.838-.635-1.87-1.026-3-1.026h-2c-.553,0-1,.447-1,1v2c0,2.757,2.243,5,5,5h1v3c0,.553.447,1,1,1s1-.447,1-1v-3h1c2.757,0,5-2.243,5-5v-2c0-.553-.447-1-1-1h-2c-1.13,0-2.162.391-3,1.026v-4.026h1ZM54,36h1v1c0,1.654-1.346,3-3,3h-1v-1c0-1.654,1.346-3,3-3ZM45,37v-1h1c1.654,0,3,1.346,3,3v1h-1c-1.654,0-3-1.346-3-3ZM45,48v-1h1c1.654,0,3,1.346,3,3v1h-1c-1.654,0-3-1.346-3-3ZM54,47h1v1c0,1.654-1.346,3-3,3h-1v-1c0-1.654,1.346-3,3-3Z"/>
  <path d="M40.27,49.33l.05-.21c1.73-7.22,2.13-14.63,1.19-22.03.11-.09.22-.16.32-.26.75-.76,1.17-1.76,1.17-2.83,0-1.5-.83-2.79-2.05-3.47.02-.18.05-.35.05-.53,0-.11-.01-.23-.02-.35.65-.73,1.02-1.67,1.02-2.65,0-2.21-1.79-4-4-4-.49,0-.97.09-1.41.26-.66-1.34-2.03-2.26-3.59-2.26-.92,0-1.8.32-2.5.88-.7-.56-1.58-.88-2.5-.88,0-2.21-1.79-4-4-4-1.92,0-3.52,1.35-3.91,3.15-1.37-.39-2.92.02-3.92,1.03-.38-.12-.77-.18-1.17-.18-2.21,0-4,1.79-4,4,0,.49.09.97.26,1.41-1.34.66-2.26,2.03-2.26,3.59,0,.18.03.35.05.53-.31.17-.61.38-.88.64-.75.76-1.17,1.76-1.17,2.83,0,1.26.59,2.36,1.5,3.1-.94,7.37-.55,14.78,1.18,22.01l.05.21-1.27,1.27c-1.44,1.44-1.54,3.7-.24,5.14.68.75,1.61,1.18,2.62,1.21h.1c.96,0,1.9-.39,2.59-1.07l1.47-1.48h20l1.38,1.38c1.43,1.42,3.69,1.53,5.13.23.75-.68,1.18-1.61,1.21-2.62.02-.99-.37-1.97-1.07-2.68l-1.38-1.37ZM9,24c0-.53.21-1.03.59-1.41.38-.38.88-.59,1.41-.59h4c.55,0,1-.45,1-1s-.45-1-1-1h-4c0-1.04.82-1.91,1.87-1.98.38-.03.72-.27.86-.63.14-.36.06-.77-.2-1.05-.34-.37-.53-.85-.53-1.34,0-1.44,1.61-2.51,2.98-1.73.46.27,1.05.12,1.34-.34.66-1.04,2.24-1.22,3.12-.31.32.34.83.4,1.23.17.39-.23.58-.71.45-1.15-.09-.28-.12-.46-.12-.64,0-1.1.9-2,2-2s2,.9,2,2c0,.29-.07.59-.21.87-.2.39-.12.85.18,1.16.31.3.77.38,1.16.18.92-.46,2-.12,2.54.69.37.56,1.29.56,1.66,0,.38-.56,1-.9,1.67-.9,1.04,0,1.91.82,1.98,1.87.03.38.27.72.63.86s.77.07,1.05-.2c.37-.34.85-.53,1.34-.53,1.1,0,2,.9,2,2,0,.59-.27,1.15-.73,1.53-.29.24-.42.62-.34.99.05.19.07.35.07.48h-16c-.55,0-1,.45-1,1s.45,1,1,1h16c1.1,0,2,.9,2,2,0,.53-.21,1.03-.59,1.41-.38.38-.88.59-1.41.59H11c-1.1,0-2-.9-2-2ZM40.17,54.52c-.64.57-1.71.5-2.38-.17l-1.66-1.67c-.19-.18-.44-.29-.71-.29H14.59c-.27,0-.52.11-.71.29l-1.77,1.77c-.32.33-.79.48-1.22.49-.45-.01-.87-.21-1.18-.55-.58-.64-.5-1.71.17-2.38l1.66-1.66c.24-.25.34-.6.27-.93l-.18-.76c-1.63-6.82-2.03-13.78-1.21-20.72.19.03.38.06.58.06h28c.2,0,.4-.03.59-.06.81,6.96.41,13.93-1.21,20.72l-.18.75c-.08.34.02.69.26.94l1.77,1.77c.33.32.5.75.49,1.21-.01.46-.21.88-.55,1.19Z"/>
  <path d="M25,30c-5.514,0-10,4.486-10,10s4.486,10,10,10,10-4.486,10-10-4.486-10-10-10ZM25,48c-4.411,0-8-3.589-8-8s3.589-8,8-8,8,3.589,8,8-3.589,8-8,8Z"/>
  <circle cx="19" cy="21" r="1"/>
</svg>