<?xml version="1.0" encoding="UTF-8"?>
<svg id="Outline" xmlns="http://www.w3.org/2000/svg" version="1.1" viewBox="0 0 48 48">
  <!-- Generator: Adobe Illustrator 29.5.1, SVG Export Plug-In . SVG Version: 2.1.0 Build 141)  -->
  <path d="M20,16c1.682,0,3-1.757,3-4s-1.318-4-3-4-3,1.757-3,4,1.318,4,3,4ZM20,10c.408,0,1,.779,1,2s-.592,2-1,2-1-.779-1-2,.592-2,1-2Z"/>
  <path d="M27,13c1.682,0,3-1.757,3-4s-1.318-4-3-4-3,1.757-3,4,1.318,4,3,4ZM27,7c.408,0,1,.779,1,2s-.592,2-1,2-1-.779-1-2,.592-2,1-2Z"/>
  <path d="M34,14c1.682,0,3-1.757,3-4s-1.318-4-3-4-3,1.757-3,4,1.318,4,3,4ZM34,8c.408,0,1,.779,1,2s-.592,2-1,2-1-.779-1-2,.592-2,1-2Z"/>
  <path d="M40,11c-1.682,0-3,1.757-3,4s1.318,4,3,4,3-1.757,3-4-1.318-4-3-4ZM40,17c-.408,0-1-.779-1-2s.592-2,1-2,1,.779,1,2-.592,2-1,2Z"/>
  <path d="M38.5,21.14c-.1-.07-.22-.1-.33-.12-1.56-3.64-5.12-6.02-9.17-6.02-3.48,0-7.22,1.89-9.09,4.6-1.26,1.81-1.56,3.86-.85,5.75.34.91.66,1.87,1,2.98-4.3.85-8.17,3.3-10.76,6.92l-.11.17c-.09.13-.14.27-.17.42-1.54.82-2.76,2.21-3.34,3.95l-.63,1.89c-.17.53.11,1.09.63,1.27.527.143,1.09-.093,1.27-.63l.63-1.9c.47-1.4,1.51-2.47,2.81-3.02l5.97,3.58c2.2,1.32,4.72,2.02,7.29,2.02,7.08,0,12.97-5.08,14.02-12.08l1.32-8.77c.06-.41-.13-.81-.49-1.01ZM21.55,20.74c1.5-2.17,4.63-3.74,7.45-3.74,3.3,0,6.18,1.99,7.38,4.99l-3.57,2.78c-2.68,2.08-6.02,3.23-9.41,3.23-.45,0-.9.02-1.34.06-.38-1.28-.74-2.38-1.12-3.41-.61-1.62-.01-3.02.61-3.91ZM35.69,30.63c-.9,6.01-5.96,10.37-12.04,10.37-2.21,0-4.37-.6-6.27-1.74l-3.77-2.26h.94c5.68,0,11.37-1.34,16.46-3.88l.44-.23c.49-.24.69-.84.44-1.34-.24-.49-.84-.69-1.34-.44l-.44.22c-4.81,2.4-10.19,3.67-15.56,3.67h-2.23c-.07,0-.15.02-.23.02,2.89-3.16,6.98-5.02,11.31-5.02,3.83,0,7.61-1.3,10.63-3.65l2.61-2.03-.95,6.31Z"/>
</svg>