<?xml version="1.0" encoding="UTF-8"?>
<svg id="Outline" xmlns="http://www.w3.org/2000/svg" version="1.1" viewBox="0 0 48 48">
  <!-- Generator: Adobe Illustrator 29.5.1, SVG Export Plug-In . SVG Version: 2.1.0 Build 141)  -->
  <path d="M42.528,17.15c-.35-.217-.798-.197-1.128.05l-1.548,1.162c.148-1.784-.36-3.6-1.515-5.043l-1.556-1.944c-.243-.303-.64-.44-1.017-.347-.377.092-.668.395-.744.775l-.143.712c-.522,2.611-1.793,4.986-3.676,6.87l-.615.614h-1.758c-1.773,0-3.456.586-4.829,1.665-1.373-1.079-3.056-1.665-4.829-1.665h-1.758l-.615-.614c-1.883-1.884-3.154-4.259-3.676-6.87l-.143-.712c-.076-.381-.367-.684-.744-.775-.379-.094-.774.044-1.017.347l-1.556,1.944c-1.155,1.443-1.663,3.258-1.515,5.043l-1.549-1.162c-.329-.247-.777-.267-1.128-.05-.351.218-.531.629-.455,1.034l1.956,10.43c.694,3.7,3.93,6.386,7.694,6.386h4.504c1.557,0,3.021.606,4.122,1.707.195.195.451.293.707.293s.512-.098.707-.293c1.101-1.101,2.565-1.707,4.122-1.707h4.504c3.765,0,7-2.686,7.694-6.386l1.956-10.43c.076-.405-.104-.816-.455-1.034ZM36.511,14.238l.264.331c1.166,1.456,1.425,3.439.719,5.148-.571.182-1.169.283-1.77.283h-2.403c1.464-1.68,2.564-3.628,3.19-5.762ZM11.225,14.569l.265-.331c.626,2.135,1.726,4.082,3.19,5.762h-2.403c-.602,0-1.199-.101-1.77-.283-.706-1.709-.447-3.691.719-5.148ZM39.062,28.245c-.517,2.755-2.926,4.755-5.729,4.755h-4.504c-1.773,0-3.456.586-4.829,1.665-1.373-1.079-3.056-1.665-4.829-1.665h-4.504c-2.803,0-5.212-2-5.729-4.755l-1.482-7.902.123.092c.512.384,1.081.68,1.67.927.076.044.157.081.244.104.888.338,1.829.535,2.783.535h6.895c1.557,0,3.021.606,4.122,1.707.391.391,1.023.391,1.414,0,1.101-1.101,2.565-1.707,4.122-1.707h6.895c.952,0,1.891-.196,2.778-.533.094-.025.183-.062.264-.112.583-.246,1.147-.54,1.655-.921l.123-.092-1.482,7.902Z"/>
  <path d="M18.394,24.446c-2.625-1.875-6.533-.657-6.698-.604-.421.135-.704.53-.695.973.004.174.119,4.266,2.744,6.141,1.131.808,2.5,1.041,3.705,1.041,1.592,0,2.898-.407,2.993-.438.421-.135.704-.53.695-.973-.004-.174-.119-4.266-2.744-6.141ZM14.907,29.329c-1.25-.893-1.682-2.717-1.831-3.766,1.042-.2,2.906-.381,4.155.51,1.249.893,1.682,2.716,1.831,3.766-1.041.201-2.907.383-4.155-.51Z"/>
  <path d="M36.305,23.843c-.166-.054-4.074-1.271-6.699.604-2.625,1.875-2.739,5.967-2.743,6.141-.009.442.274.838.695.973.094.03,1.4.438,2.993.438,1.205,0,2.575-.233,3.706-1.041,2.625-1.875,2.74-5.967,2.744-6.141.009-.442-.274-.838-.695-.973ZM33.094,29.329c-1.249.893-3.114.711-4.155.51.148-1.05.582-2.873,1.83-3.766,1.248-.892,3.111-.71,4.153-.511-.151,1.052-.588,2.881-1.828,3.767Z"/>
</svg>