<?xml version="1.0" encoding="UTF-8"?>
<svg id="Outline" xmlns="http://www.w3.org/2000/svg" version="1.1" viewBox="0 0 64 64">
  <!-- Generator: Adobe Illustrator 29.5.1, SVG Export Plug-In . SVG Version: 2.1.0 Build 141)  -->
  <path d="M56.678,51.04l-4.243-4.242c-.237-.236-.573-.339-.903-.273l-3.011.602-7.107-7.107h1.829c.552,0,1-.447,1-1s-.448-1-1-1h-4.243c-.552,0-1,.447-1,1v4.242c0,.553.448,1,1,1s1-.447,1-1v-1.828l7.107,7.107-.602,3.01c-.066.328.037.667.273.903l4.243,4.243c.534.534,1.529.284,1.688-.511l.341-1.703.092.093c.195.195.452.293.708.293s.512-.098.707-.293c.391-.39.391-1.023,0-1.414l-.094-.094,1.704-.341c.361-.072.654-.338.761-.69.107-.354.011-.736-.25-.997ZM48.571,51.418l.471-2.356,2.357-.471,2.543,2.542-1.704.341c-.04.008-.075.028-.113.041-.035.012-.069.022-.104.037-.218.1-.39.271-.489.489-.016.035-.026.069-.038.105-.013.038-.032.072-.04.112l-.341,1.704-2.543-2.544Z"/>
  <path d="M25,38.02h-4.243c-.552,0-1,.447-1,1s.448,1,1,1h1.829l-7.107,7.107-3.011-.602c-.329-.064-.667.037-.903.273l-4.243,4.242c-.261.261-.357.644-.25.997.107.353.399.618.761.69l1.704.341-.094.094c-.39.391-.39,1.024,0,1.414.195.195.451.293.707.293s.512-.098.708-.293l.092-.093.341,1.703c.153.764,1.138,1.061,1.688.511l4.243-4.243c.236-.236.339-.575.273-.903l-.602-3.01,7.107-7.107v1.828c0,.553.448,1,1,1s1-.447,1-1v-4.242c0-.553-.448-1-1-1ZM12.886,53.962l-.341-1.704c-.008-.04-.028-.074-.04-.112-.012-.036-.022-.07-.038-.105-.1-.217-.272-.389-.489-.489-.034-.016-.068-.026-.104-.037-.038-.013-.073-.033-.113-.041l-1.704-.341,2.543-2.542,2.357.471.471,2.356-2.543,2.544Z"/>
  <path d="M32,7.02c-5.46,0-10.07,2.96-12.02,7.73-.2.51.04,1.1.55,1.31.52.21,1.1-.04,1.31-.55,1.63-4,5.52-6.49,10.16-6.49,6.37,0,11,4.59,11,10.92,0,6.97-5.14,13.08-11,13.08-4.88,0-9.48-4.4-10.7-10.22-.11-.55-.65-.89-1.19-.78-.54.12-.88.65-.77,1.19,1.1,5.24,4.49,9.37,8.66,11.02v3.79c0,.55.45,1,1,1h1.78l-.25,1.27c-.37,1.85-.11,3.8.73,5.48,1,2.01.91,4.35-.24,6.28l-.88,1.46c-.28.47-.13,1.08.35,1.37.478.269,1.084.129,1.37-.35l.87-1.46c1.51-2.51,1.63-5.57.32-8.19-.65-1.29-.85-2.78-.56-4.19l.33-1.67h2.18c.55,0,1-.45,1-1v-3.8c5.1-2.06,9-7.85,9-14.28,0-7.49-5.47-12.92-13-12.92ZM34,37.02h-4v-2.2c.66.13,1.32.2,2,.2s1.34-.09,2-.22v2.22Z"/>
  <path d="M29,21.02c0,1.654,1.346,3,3,3s3-1.346,3-3-1.346-3-3-3-3,1.346-3,3ZM33,21.02c0,.552-.449,1-1,1s-1-.448-1-1,.449-1,1-1,1,.448,1,1Z"/>
  <path d="M32,12.02c-.552,0-1,.447-1,1v1.08c-3.059.441-5.479,2.861-5.92,5.92h-1.08c-.552,0-1,.447-1,1s.448,1,1,1h1.08c.441,3.059,2.861,5.479,5.92,5.92v1.08c0,.553.448,1,1,1s1-.447,1-1v-1.08c3.059-.441,5.479-2.861,5.92-5.92h1.08c.552,0,1-.447,1-1s-.448-1-1-1h-1.08c-.441-3.059-2.861-5.479-5.92-5.92v-1.08c0-.553-.448-1-1-1ZM37,21.02c0,2.757-2.243,5-5,5s-5-2.243-5-5,2.243-5,5-5,5,2.243,5,5Z"/>
  <circle cx="20" cy="19.02" r="1"/>
</svg>