<?xml version="1.0" encoding="UTF-8"?>
<svg id="Outline" xmlns="http://www.w3.org/2000/svg" version="1.1" viewBox="0 0 64 64">
  <!-- Generator: Adobe Illustrator 29.5.1, SVG Export Plug-In . SVG Version: 2.1.0 Build 141)  -->
  <path d="M56.979,18.799c-.067-.329-.296-.603-.608-.727l-1.227-.491c-2.154-.86-4.557-.437-6.301.974-.636-1.238-1.364-2.41-2.18-3.51l3.623-1.087c.459-.138.756-.582.708-1.058-.048-.477-.427-.853-.905-.896l-6.791-.617c-3.323-2.864-7.219-4.387-11.3-4.387s-7.977,1.523-11.3,4.387l-6.791.617c-.478.043-.856.419-.905.896-.048.477.249.92.708,1.058l3.623,1.087c-.817,1.099-1.544,2.272-2.18,3.51-1.744-1.412-4.148-1.836-6.301-.974l-1.227.491c-.312.125-.541.398-.608.727-.068.33.035.67.272.908,1.822,1.823,3.053,4.122,3.559,6.649l1.151,5.753c.048,13.735,8.999,24.89,19.998,24.89,4.89,0,9.582-2.216,13.213-6.24.37-.41.337-1.042-.073-1.413-.411-.371-1.043-.337-1.413.073-3.246,3.598-7.411,5.58-11.728,5.58-8.826,0-16.183-8.161-17.706-18.886l5.208,3.605c2,1.384,4.303,2.078,6.609,2.077,2.031,0,4.063-.538,5.889-1.615,3.9,2.301,8.736,2.142,12.499-.462l5.211-3.607c-.34,2.398-.979,4.702-1.918,6.884-.054.125-.082.259-.082.396v.01c0,.552.448.995,1,.995.423,0,.786-.266.931-.639,1.282-2.987,2.037-6.183,2.272-9.524,0-.004,0-.009,0-.013.049-.697.081-1.398.083-2.106l1.151-5.756c.505-2.527,1.736-4.827,3.559-6.649.238-.238.34-.579.272-.908ZM44.708,13.544c-.009.003-.017.005-.026.008l-1.516.454c-2.275.683-4.275,2.092-5.685,3.994h-2.386c.233-1.211.888-2.305,1.873-3.093,1.51-1.209,3.4-1.78,5.332-1.603l.609.055s.001,0,.002,0c0,0,0,0,0,0l1.85.168-.052.016ZM21.701,13.304c1.934-.174,3.821.394,5.332,1.603.985.788,1.639,1.882,1.873,3.093h-2.386c-1.41-1.902-3.41-3.311-5.686-3.994l-1.514-.454c-.009-.003-.018-.005-.027-.008l-.052-.016,2.461-.224ZM9.707,19.396c1.602-.591,3.392-.164,4.567,1.041-.677,1.615-1.201,3.318-1.577,5.086-.522-2.255-1.53-4.348-2.99-6.128ZM43.36,38.074c-3.263,2.26-7.503,2.295-10.806.094-.336-.224-.773-.224-1.109,0-3.302,2.201-7.543,2.163-10.805-.094l-6.597-4.567c-.025-.499-.043-1-.043-1.507,0-6.129,1.965-12.032,5.383-16.341l.876.263c2.005.602,3.749,1.892,4.909,3.633.186.278.498.445.832.445h4c.552,0,1-.448,1-1,0-2.212-.991-4.273-2.718-5.655-1.263-1.011-2.739-1.662-4.298-1.929,2.472-1.584,5.199-2.416,8.016-2.416s5.545.832,8.016,2.416c-1.559.268-3.035.918-4.298,1.929-1.728,1.381-2.718,3.443-2.718,5.655,0,.552.448,1,1,1h4c.334,0,.646-.167.832-.445,1.161-1.741,2.904-3.031,4.909-3.633l.876-.263c3.418,4.309,5.383,10.212,5.383,16.341,0,.505-.014,1.006-.039,1.504l-6.601,4.57ZM51.304,25.524c-.376-1.768-.9-3.471-1.577-5.086,1.175-1.205,2.964-1.632,4.567-1.042-1.46,1.78-2.468,3.872-2.99,6.128Z"/>
  <path d="M17.952,22.009c-.509.028-.915.435-.943.943-.013.237-.281,5.847,3.12,9.248,2.884,2.885,7.356,3.13,8.793,3.13.258,0,.418-.008.454-.01.509-.028.915-.435.943-.943.013-.237.281-5.847-3.12-9.248-3.402-3.401-9.009-3.134-9.248-3.12ZM21.543,30.786c-2.02-2.02-2.444-5.19-2.524-6.767,1.577.081,4.748.505,6.767,2.524s2.444,5.193,2.525,6.77c-1.574-.078-4.738-.497-6.768-2.527Z"/>
  <path d="M46.991,22.952c-.028-.509-.435-.915-.943-.943-.236-.012-5.846-.28-9.248,3.12-3.401,3.401-3.133,9.01-3.12,9.248.028.509.435.915.943.943.036.002.196.01.454.01,1.438,0,5.91-.246,8.793-3.13,3.401-3.401,3.133-9.01,3.12-9.248ZM42.457,30.786c-2.021,2.021-5.193,2.444-6.77,2.525.078-1.574.497-4.738,2.527-6.768,2.02-2.02,5.19-2.444,6.767-2.524-.081,1.577-.505,4.747-2.524,6.767Z"/>
  <path d="M27,44c-.552,0-1,.448-1,1v1c0,3.309,2.691,6,6,6s6-2.691,6-6v-1c0-.552-.448-1-1-1h-10ZM32,50c-2.206,0-4-1.794-4-4h8c0,2.206-1.794,4-4,4Z"/>
  <circle cx="47" cy="47" r="1"/>
</svg>