<?xml version="1.0" encoding="UTF-8"?>
<svg id="Outline" xmlns="http://www.w3.org/2000/svg" version="1.1" viewBox="0 0 64 64">
  <!-- Generator: Adobe Illustrator 29.5.1, SVG Export Plug-In . SVG Version: 2.1.0 Build 141)  -->
  <path d="M56.47,25.12c-.32-.18-.72-.16-1.02.05l-1.36.9c-2.4,1.6-5.29,2.12-8.07,1.49.07-2.29.72-4.52,1.9-6.48l.94-1.57c.22-.37.18-.84-.11-1.17-.28-.32-.75-.43-1.14-.26l-2.14.92c-2.74,1.17-5.06,3.12-6.71,5.56.35-1.25.81-2.46,1.38-3.61l2.75-5.5c.2-.39.12-.85-.18-1.16-.31-.3-.77-.38-1.16-.18l-.88.44c-3.58,1.79-6.55,4.47-8.67,7.82-2.12-3.35-5.09-6.03-8.67-7.82l-.88-.44c-.39-.2-.85-.12-1.16.18-.3.31-.38.77-.18,1.16l2.75,5.5c.57,1.15,1.03,2.36,1.38,3.61-1.65-2.44-3.97-4.39-6.71-5.56l-2.14-.92c-.39-.17-.86-.06-1.14.26-.29.33-.33.8-.11,1.17l.94,1.57c1.18,1.96,1.83,4.19,1.9,6.48-2.78.63-5.67.11-8.07-1.49l-1.36-.9c-.3-.21-.7-.23-1.02-.05-.33.17-.53.51-.53.88v10.19c0,3.34,1.21,6.57,3.42,9.09,2.62,3,6.41,4.72,10.4,4.72h5.18c1.51,0,3-.5,4.2-1.4l1.8-1.35,1.8,1.35c1.2.9,2.69,1.4,4.2,1.4h5.18c3.99,0,7.78-1.72,10.4-4.72,2.21-2.52,3.42-5.75,3.42-9.09v-10.19c0-.37-.2-.71-.53-.88ZM45.61,21.13c-.91,1.84-1.42,3.84-1.55,5.88-1.42-.35-2.86-.45-4.27-.3,1.33-2.41,3.36-4.36,5.82-5.58ZM24.32,17.41c2.87,1.84,5.19,4.37,6.8,7.42.34.65,1.42.65,1.76,0,1.61-3.05,3.93-5.58,6.8-7.42l-1.32,2.64c-.86,1.72-1.5,3.57-1.89,5.49l-.43,2.17c-1.37.61-2.64,1.47-3.74,2.58l-.3.3-.3-.3c-1.1-1.11-2.37-1.97-3.74-2.58l-.43-2.17c-.39-1.92-1.03-3.77-1.89-5.49l-1.32-2.64ZM24.21,26.71c-1.41-.15-2.85-.05-4.27.3-.13-2.04-.64-4.04-1.55-5.88,2.46,1.22,4.49,3.17,5.82,5.58ZM55,36.19c0,2.86-1.04,5.62-2.92,7.77-2.25,2.57-5.49,4.04-8.9,4.04h-5.18c-1.08,0-2.14-.35-3-1l-2.4-1.8c-.18-.13-.39-.2-.6-.2s-.42.07-.6.2l-2.4,1.8c-.86.65-1.92,1-3,1h-5.18c-3.41,0-6.65-1.47-8.9-4.04-1.88-2.15-2.92-4.91-2.92-7.77v-8.32c3.17,2.03,7.03,2.51,10.62,1.31,3.77-1.26,7.86-.29,10.67,2.52l1,1.01c.39.39,1.03.39,1.42,0l1-1.01c2.81-2.81,6.9-3.78,10.67-2.52,3.59,1.2,7.44.72,10.62-1.31v8.32Z"/>
  <path d="M16,32h-3c-.553,0-1,.448-1,1v2c0,6.065,4.935,11,11,11h3c.553,0,1-.448,1-1v-2c0-6.065-4.935-11-11-11ZM25,44h-2c-4.963,0-9-4.038-9-9v-1h2c4.963,0,9,4.038,9,9v1Z"/>
  <path d="M37,43v2c0,.552.447,1,1,1h3c6.065,0,11-4.935,11-11v-2c0-.552-.447-1-1-1h-3c-6.065,0-11,4.935-11,11ZM50,35c0,4.962-4.037,9-9,9h-2v-1c0-4.962,4.037-9,9-9h2v1Z"/>
  <path d="M24.047,32.977c.424.303,1.068.225,1.395-.233.321-.449.217-1.074-.232-1.395l-1.628-1.163c-.448-.32-1.073-.217-1.395.233-.321.449-.217,1.074.232,1.395,0,0,1.625,1.161,1.628,1.163Z"/>
  <path d="M30.371,36.524c-.695-1.006-1.486-1.957-2.353-2.824-.391-.392-1.025-.391-1.414,0-.392.39-.392,1.023-.002,1.414.782.783,1.496,1.64,2.124,2.548.295.427.935.57,1.391.254.454-.314.568-.937.254-1.391Z"/>
  <path d="M33.142,39.227c-.401-.182-.858-.077-1.142.227-.285-.303-.741-.408-1.142-.227-.504.228-.727.821-.499,1.324.259.571.491,1.165.692,1.766.136.408.518.684.948.684s.812-.275.948-.684c.201-.601.434-1.195.692-1.766.228-.503.005-1.096-.499-1.324Z"/>
  <path d="M37.395,33.701c-.389-.391-1.023-.391-1.414,0-.865.867-1.657,1.817-2.353,2.825-.314.454-.2,1.077.254,1.391.429.296,1.073.208,1.391-.254.629-.909,1.343-1.766,2.124-2.548.39-.391.39-1.024-.002-1.414Z"/>
  <path d="M39.373,33.157c.201.002.404-.055.58-.181l1.628-1.163c.449-.321.554-.946.232-1.395-.32-.45-.946-.554-1.395-.233l-1.628,1.163c-.764.546-.348,1.8.582,1.809Z"/>
</svg>