<?xml version="1.0" encoding="UTF-8"?>
<svg id="Outline" xmlns="http://www.w3.org/2000/svg" version="1.1" viewBox="0 0 64 64">
  <!-- Generator: Adobe Illustrator 29.5.1, SVG Export Plug-In . SVG Version: 2.1.0 Build 141)  -->
  <path d="M52.715,19.85c1.33-2.21,1.5-4.35.33-5.53-1.17-1.17-3.32-1-5.53.33-.6-2.49-2-4.13-3.67-4.14-2.28.01-4,3.02-3.99,7.01,0,.61.06,1.22.14,1.8-3.05-1.34-6.7-.68-12.09,4.59-.93-2.25-2.35-3.48-4.07-4.15.48-.35.94-.74,1.38-1.17,2.82-2.82,3.74-6.16,2.12-7.79-1.18-1.17-3.32-1-5.52.34-.61-2.5-2.01-4.14-3.67-4.14s-3.06,1.64-3.67,4.14c-2.2-1.34-4.34-1.51-5.53-.33-1.61,1.62-.69,4.96,2.13,7.78.44.43.9.82,1.38,1.17-3.17,1.23-5.31,4.36-5.31,12.24,0,1.72.1,3.44.29,5.11.06.55.56.95,1.1.88.55-.06.95-.55.88-1.1-.14-1.27-.21-2.58-.24-3.89h5.97c.55,0,1-.45,1-1s-.45-1-1-1h-5.99c.04-1.57.18-2.89.39-4h10.6c.55,0,1-.45,1-1s-.45-1-1-1h-10.05c1.02-2.73,2.8-3.6,4.92-3.87.15.01.3,0,.44-.05.85-.08,1.76-.08,2.69-.08s1.83,0,2.68.08c.11.04.23.07.35.07.04,0,.07-.02.11-.02,2.12.27,3.89,1.14,4.91,3.87h-2.05c-.55,0-1,.45-1,1s.45,1,1,1h2.6c.21,1.11.35,2.43.39,4h-7.99c-.55,0-1,.45-1,1s.45,1,1,1h7.99c-.04,1.68-.18,3.36-.39,5h-7.6c-.55,0-1,.45-1,1s.45,1,1,1h7.29c-1.45,8.25-4.89,15-8.29,15-2.12,0-4.36-2.72-6.08-7h3.08c.55,0,1-.45,1-1s-.45-1-1-1h-3.81c-.52-1.59-.97-3.33-1.33-5.19-.1-.54-.62-.89-1.17-.79-.54.1-.9.63-.79,1.17,1.39,7.29,4.88,15.81,10.1,15.81,2.71,0,5.13-2.46,7-6.19,1.48-.35,3.08-.91,4.79-1.7.5-.23.72-.83.49-1.33-.23-.5-.83-.72-1.33-.49-1.01.47-1.98.85-2.9,1.15,1.85-4.71,2.95-10.74,2.95-16.44,0-2.05-.15-3.77-.42-5.22l3.81,3.81c.369.369,1.023.377,1.42,0,.39-.39.39-1.03,0-1.42l-4.24-4.23c1.14-1.08,2.17-1.92,3.11-2.56,0,0,7.489,7.499,7.49,7.5.382.382,1.037.383,1.42,0,.39-.39.39-1.03,0-1.42l-7.11-7.1c2.65-1.21,4.52-.57,6.21.74.11.12.23.22.37.29.65.54,1.29,1.18,1.94,1.83.65.65,1.29,1.29,1.84,1.95.06.14.16.26.29.36,1.3,1.69,1.94,3.56.74,6.22l-1.46-1.46c-.39-.39-1.02-.39-1.41,0s-.39,1.03,0,1.42l1.84,1.84c-.64.93-1.48,1.96-2.56,3.1l-5.64-5.65c-.39-.39-1.03-.39-1.42,0-.39.39-.39,1.02,0,1.41l5.63,5.64c-1.19,1.14-2.46,2.24-3.8,3.27l-5.36-5.37c-.39-.39-1.03-.39-1.42,0-.39.39-.39,1.02,0,1.41l5.15,5.15c-.94.66-1.89,1.29-2.86,1.87-.48.28-.63.9-.35,1.37.19.32.52.49.86.49.18,0,.35-.05.51-.14,3.39-2.02,6.65-4.56,9.42-7.32,5.58-5.58,6.28-9.31,4.89-12.42.6.08,1.21.14,1.84.15,3.98,0,6.97-1.71,6.98-4,0-1.66-1.64-3.06-4.14-3.66ZM21.015,19.13c-.92-.1-1.88-.13-2.87-.13s-1.95.03-2.87.13c-.93-.41-1.91-1.09-2.78-1.96-2.17-2.15-2.71-4.37-2.14-4.95.46-.46,2.22-.21,4.2,1.44.28.24.68.3,1.02.15.34-.14.58-.46.62-.83.24-2.56,1.3-3.98,1.95-3.98s1.71,1.42,1.95,3.98c.04.37.28.69.62.83.34.15.73.09,1.02-.15,1.98-1.65,3.74-1.9,4.19-1.45.58.59.04,2.81-2.13,4.96-.87.87-1.85,1.55-2.78,1.96ZM49.875,25.51h-.03c-1.23,0-2.4-.21-3.35-.59-.57-.71-1.23-1.42-1.93-2.12s-1.4-1.36-2.12-1.93c-.38-.95-.59-2.12-.59-3.35-.01-3.06,1.18-5.01,1.99-5.01.65,0,1.72,1.42,1.95,3.98.04.37.27.69.62.83.34.15.73.09,1.02-.15,1.98-1.64,3.74-1.89,4.2-1.43.45.45.2,2.21-1.44,4.2-.24.28-.3.67-.15,1.02.14.34.46.58.83.61,2.56.23,3.98,1.3,3.98,1.94,0,.82-1.94,2-4.98,2Z"/>
</svg>