<?xml version="1.0" encoding="UTF-8"?>
<svg id="Outline" xmlns="http://www.w3.org/2000/svg" version="1.1" viewBox="0 0 64 64">
  <!-- Generator: Adobe Illustrator 29.5.1, SVG Export Plug-In . SVG Version: 2.1.0 Build 141)  -->
  <path d="M56.425,39.172l-6-4c-.16-.11-.35-.17-.55-.17h-1.12l-1.68-13.35c-.18-1.51-1.46-2.65-2.98-2.65h-3.22c0-3.37-1.43-6.6-3.93-8.87-2.53-2.31-5.8-3.4-9.22-3.08-5.98.57-10.67,5.78-10.83,11.95h-3.24c-1.52,0-2.8,1.14-2.98,2.65l-3.53,28c-.1.85.17,1.7.73,2.34.57.64,1.39,1.01,2.25,1.01h28.75v3c0,.55.45,1,1,1h16c.55,0,1-.45,1-1v-16c0-.33-.17-.65-.45-.83ZM40.875,27.002v-.64c.63.72,1,1.65,1,2.64,0,2.21-1.79,4-4,4s-4-1.79-4-4c0-.99.37-1.92,1-2.64v.64c0,1.65,1.35,3,3,3s3-1.35,3-3ZM18.875,19.322c0-5.28,3.97-9.8,9.03-10.27,2.85-.27,5.59.64,7.69,2.56,2.09,1.89,3.28,4.59,3.28,7.39v8c0,.55-.45,1-1,1s-1-.45-1-1v-7.76c0-4.15-2.99-7.66-6.95-8.17-.34-.05-.69-.07-1.03-.07-1.94,0-3.83.7-5.3,1.99-1.73,1.52-2.72,3.71-2.72,6.01v8c0,.55-.45,1-1,1s-1-.45-1-1v-7.68ZM34.855,19.002h-11.98c0-1.72.74-3.36,2.04-4.51,1.32-1.15,3-1.67,4.75-1.44,2.89.37,5.07,2.91,5.19,5.95ZM19.875,30.002c1.65,0,3-1.35,3-3v-.64c.63.72,1,1.65,1,2.64,0,2.21-1.79,4-4,4s-4-1.79-4-4c0-.99.37-1.92,1-2.64v.64c0,1.65,1.35,3,3,3ZM39.325,39.172c-.28.18-.45.5-.45.83v11H10.125c-.29,0-.56-.12-.75-.34-.19-.21-.28-.49-.25-.76l3.53-28.01c.06-.51.49-.89,1-.89h3.22v2.81c-1.84,1.08-3,3.04-3,5.19,0,3.31,2.69,6,6,6s6-2.69,6-6c0-2.15-1.16-4.11-3-5.19v-2.81h12v2.81c-1.84,1.08-3,3.04-3,5.19,0,3.31,2.69,6,6,6s6-2.69,6-6c0-2.15-1.16-4.11-3-5.19v-2.81h3.22c.51,0,.94.38,1,.9l1.65,13.1h-.87c-.2,0-.39.06-.55.17l-6,4ZM54.875,55.002h-14v-14.46l5.3-3.54h3.4l5.3,3.54v14.46Z"/>
  <path d="M42.875,42.002v10c0,.552.447,1,1,1h8c.553,0,1-.448,1-1v-10c0-.552-.447-1-1-1h-8c-.553,0-1,.448-1,1ZM44.875,43.002h6v8h-6v-8Z"/>
  <path d="M27.875,38.002c0-1.654-1.346-3-3-3s-3,1.346-3,3,1.346,3,3,3,3-1.346,3-3ZM23.875,38.002c0-.551.448-1,1-1s1,.449,1,1-.448,1-1,1-1-.449-1-1Z"/>
  <path d="M32.875,43.002c-1.654,0-3,1.346-3,3s1.346,3,3,3,3-1.346,3-3-1.346-3-3-3ZM32.875,47.002c-.552,0-1-.449-1-1s.448-1,1-1,1,.449,1,1-.448,1-1,1Z"/>
  <path d="M33.582,37.295c-.391-.391-1.023-.391-1.414,0l-8,8c-.391.391-.391,1.023,0,1.414.388.388,1.026.388,1.414,0l8-8c.391-.391.391-1.023,0-1.414Z"/>
</svg>