<?xml version="1.0" encoding="UTF-8"?>
<svg id="Outline" xmlns="http://www.w3.org/2000/svg" version="1.1" viewBox="0 0 64 64">
  <!-- Generator: Adobe Illustrator 29.5.1, SVG Export Plug-In . SVG Version: 2.1.0 Build 141)  -->
  <path d="M56.55,23.171l-5.55-3.71v-5.46c0-1.65-1.35-3-3-3h-9.7l-5.75-3.83c-.33-.23-.77-.23-1.1,0l-5.75,3.83h-9.7c-1.65,0-3,1.35-3,3v5.46l-5.55,3.71c-.28.18-.45.5-.45.83v30c0,1.65,1.35,3,3,3h44c1.65,0,3-1.35,3-3v-30c0-.33-.17-.65-.45-.83ZM32,9.201l2.7,1.8h-5.4l2.7-1.8ZM15,14.001c0-.55.45-1,1-1h32c.55,0,1,.45,1,1v16.88l-17,9.76-17-9.77V14.001ZM9,24.541l4-2.67v7.85l-4-2.3v-2.88ZM49.05,55.001l-1.51-.86c-.48-.28-1.09-.11-1.36.37-.09.15-.12.32-.12.49H10c-.55,0-1-.45-1-1v-19.7l.24.13c.15.09.32.14.49.14.35,0,.69-.18.87-.51.28-.47.11-1.09-.37-1.36l-1.23-.71v-2.26l22.49,12.92c.01,0,.02.01.03.02l4.04,2.32c.03.02.06.03.09.05l17.34,9.96h-3.94ZM55,32.141l-1.23.71c-.48.27-.65.89-.37,1.36.271.454.869.665,1.36.37l.24-.13v19.4l-16.89-9.7.22-.13c.48-.27.65-.89.37-1.36-.27-.48-.88-.65-1.36-.37l-1.23.7-2.1-1.2,20.99-12.05v2.4ZM55,27.431l-4,2.3v-7.86l4,2.67v2.89Z"/>
  <path d="M44.152,52.189l-3.392-1.949c-.479-.276-1.091-.11-1.365.369-.275.479-.11,1.09.369,1.365l3.392,1.949c.453.261,1.091.109,1.365-.369.275-.479.11-1.09-.369-1.365Z"/>
  <path d="M23.8,40.496l-3.392-1.949c-.481-.276-1.091-.11-1.365.369-.275.479-.11,1.09.369,1.365l3.392,1.949c.449.258,1.092.107,1.365-.369.275-.479.11-1.09-.369-1.365Z"/>
  <path d="M30.584,44.394l-3.392-1.949c-.48-.277-1.091-.11-1.365.369-.275.479-.11,1.09.369,1.365l3.392,1.949c.453.26,1.092.108,1.365-.369.275-.479.11-1.09-.369-1.365Z"/>
  <path d="M37.368,48.291l-3.392-1.949c-.48-.276-1.092-.11-1.365.369-.275.479-.11,1.09.369,1.365l3.392,1.949c.457.262,1.088.115,1.365-.369.275-.479.11-1.09-.369-1.365Z"/>
  <path d="M17.017,36.598l-3.393-1.949c-.48-.277-1.091-.11-1.365.369-.275.479-.109,1.09.369,1.365,0,0,3.393,1.949,3.393,1.949.474.272,1.093.105,1.365-.369.275-.479.109-1.09-.369-1.365Z"/>
  <path d="M50.481,34.738l-3.286,1.888c-.478.275-.645.886-.369,1.365.256.446.894.64,1.365.369l3.286-1.888c.479-.275.645-.886.369-1.365-.274-.479-.886-.646-1.365-.369Z"/>
  <path d="M43.909,38.512l-3.286,1.888c-.478.275-.645.886-.369,1.365.272.474.891.641,1.365.369l3.286-1.888c.479-.275.645-.886.369-1.365-.274-.479-.886-.646-1.365-.369Z"/>
  <path d="M39,20.921c-.04-.52-.48-.92-1-.92h-2v-.57c0-2.44-1.79-4.43-4-4.43s-4,1.99-4,4.43v.57h-2c-.52,0-.96.4-1,.92l-1,13c-.02.28.08.56.27.76s.45.32.73.32h14c.28,0,.54-.12.73-.32s.29-.48.27-.76l-1-13ZM30,19.431c0-1.34.9-2.43,2-2.43s2,1.09,2,2.43v.57h-4v-.57ZM26.08,33.001l.85-11h1.07v2c0,.55.45,1,1,1s1-.45,1-1v-2h4v2c0,.55.45,1,1,1s1-.45,1-1v-2h1.07l.85,11h-11.84Z"/>
</svg>