<?xml version="1.0" encoding="UTF-8"?>
<svg id="Outline" xmlns="http://www.w3.org/2000/svg" version="1.1" viewBox="0 0 64 64">
  <!-- Generator: Adobe Illustrator 29.5.1, SVG Export Plug-In . SVG Version: 2.1.0 Build 141)  -->
  <path d="M37,19.5h-4c-.552,0-1,.447-1,1v2c-3.86,0-7,3.141-7,7s3.14,7,7,7h6c.551,0,1,.448,1,1s-.449,1-1,1h-10c-.552,0-1,.447-1,1v4c0,.553.448,1,1,1h4v2c0,.553.448,1,1,1h4c.552,0,1-.447,1-1v-2c3.86,0,7-3.141,7-7s-3.14-7-7-7h-6c-.551,0-1-.448-1-1s.449-1,1-1h10c.552,0,1-.447,1-1v-4c0-.553-.448-1-1-1h-4v-2c0-.553-.448-1-1-1ZM41,24.5v2h-9c-1.654,0-3,1.346-3,3s1.346,3,3,3h6c2.757,0,5,2.243,5,5s-2.243,5-5,5h-1c-.552,0-1,.447-1,1v2h-2v-2c0-.553-.448-1-1-1h-4v-2h9c1.654,0,3-1.346,3-3s-1.346-3-3-3h-6c-2.757,0-5-2.243-5-5s2.243-5,5-5h1c.552,0,1-.447,1-1v-2h2v2c0,.553.448,1,1,1h4Z"/>
  <path d="M35,11.5H15v-2c0-.388-.225-.741-.576-.905-.352-.164-.767-.11-1.064.137l-6,5c-.228.19-.36.472-.36.769s.132.578.36.769l6,5c.298.248.713.301,1.064.137.351-.164.576-.518.576-.905v-2h20c8.822,0,16,7.178,16,16s-7.178,16-16,16-16-7.178-16-16c0-.553-.448-1-1-1h-4c-.552,0-1,.447-1,1,0,12.131,9.869,22,22,22s22-9.869,22-22-9.869-22-22-22ZM35,53.5c-10.693,0-19.453-8.435-19.975-19h2.002c.521,9.462,8.383,17,17.973,17,9.925,0,18-8.075,18-18s-8.075-18-18-18H14c-.552,0-1,.447-1,1v.865l-3.438-2.865,3.438-2.865v.865c0,.553.448,1,1,1h21c11.028,0,20,8.972,20,20s-8.972,20-20,20Z"/>
</svg>