<?xml version="1.0" encoding="UTF-8"?>
<svg id="Outline" xmlns="http://www.w3.org/2000/svg" version="1.1" viewBox="0 0 64 64">
  <!-- Generator: Adobe Illustrator 29.5.1, SVG Export Plug-In . SVG Version: 2.1.0 Build 141)  -->
  <path d="M29,30.22585c0,.85205.47363,1.61865,1.23584,2.00049l2.6333,1.31592c.07959.04004.13086.12305.13086.21191,0,.12988-.10596.23584-.23584.23584h-2.76416c-.55225,0-1,.44775-1,1s.44775,1,1,1h1v1c0,.55225.44775,1,1,1s1-.44775,1-1v-1.02386c1.12091-.11969,2-1.05981,2-2.21198,0-.85205-.47363-1.61865-1.23584-2.00049l-2.6333-1.31592c-.07959-.04004-.13086-.12305-.13086-.21191,0-.12988.10596-.23584.23584-.23584h2.76416c.55225,0,1-.44775,1-1s-.44775-1-1-1h-1v-1c0-.55225-.44775-1-1-1s-1,.44775-1,1v1.02386c-1.12091.11969-2,1.05981-2,2.21198Z"/>
  <path d="M52.78003,12.37002l-4-5c-.38-.48004-1.18005-.48004-1.56006,0l-4,5c-.23999.29999-.28998.70996-.12,1.04999.17004.34998.52002.57001.90002.57001h1v4h-19c-.54999,0-1,.45001-1,1s.45001,1,1,1h23v23c0,.54999-.45001,1-1,1H15v-23c0-.54999.45001-1,1-1h6c.54999,0,1-.45001,1-1s-.45001-1-1-1h-6c-1.65002,0-3,1.34998-3,3v29h-1c-.38,0-.72998.21997-.90002.57001-.16998.33997-.12.75.12,1.04999l4,5c.19.23999.48004.38.78003.38s.59003-.14001.78003-.38l4-5c.23999-.29999.28998-.71002.12-1.04999-.17004-.35004-.52002-.57001-.90002-.57001h-1v-4h29c1.65002,0,3-1.35004,3-3V13.99001h1c.38,0,.72998-.22003.90002-.57001.16998-.34003.12-.75-.12-1.04999ZM16,54.38998l-1.91998-2.39996c.51001-.04004.91998-.47003.91998-1v-5h2v5c0,.52997.40997.95996.91998,1l-1.91998,2.39996ZM49,12.99001v5h-2v-5c0-.53003-.40997-.96002-.91998-1l1.91998-2.40002,1.91998,2.40002c-.51001.03998-.91998.46997-.91998,1Z"/>
  <path d="M46,32.99001c.55225,0,1-.44775,1-1v-6c0-.55225-.44775-1-1-1-1.10303,0-2-.89697-2-2,0-.55225-.44775-1-1-1h-22c-.55225,0-1,.44775-1,1,0,1.10303-.89697,2-2,2-.55225,0-1,.44775-1,1v12c0,.55225.44775,1,1,1,1.10303,0,2,.89697,2,2,0,.55225.44775,1,1,1h22c.55225,0,1-.44775,1-1,0-1.10303.89697-2,2-2,.55225,0,1-.44775,1-1v-2c0-.55225-.44775-1-1-1s-1,.44775-1,1v1.12646c-1.40381.36279-2.51074,1.46973-2.87354,2.87354h-5.8905c1.68658-1.80963,2.76404-4.68848,2.76404-8s-1.07745-6.19037-2.76404-8h5.8905c.36279,1.40381,1.46973,2.51074,2.87354,2.87354v5.12646c0,.55225.44775,1,1,1ZM19,37.11648v-10.25293c1.40381-.36279,2.51074-1.46973,2.87354-2.87354h5.8905c-1.68658,1.80963-2.76404,4.68848-2.76404,8s1.07745,6.19037,2.76404,8h-5.8905c-.36279-1.40381-1.46973-2.51074-2.87354-2.87354ZM37,31.99001c0,4.33643-2.28955,8-5,8s-5-3.66357-5-8,2.28955-8,5-8,5,3.66357,5,8Z"/>
  <circle cx="42" cy="31.99001" r="1"/>
  <circle cx="22" cy="31.99001" r="1"/>
</svg>