<?xml version="1.0" encoding="UTF-8"?>
<svg id="Outline" xmlns="http://www.w3.org/2000/svg" version="1.1" viewBox="0 0 64 64">
  <!-- Generator: Adobe Illustrator 29.5.1, SVG Export Plug-In . SVG Version: 2.1.0 Build 141)  -->
  <path d="M21,47h-4c-.552,0-1,.447-1,1v4c0,.553.448,1,1,1h4c.552,0,1-.447,1-1v-4c0-.553-.448-1-1-1ZM20,51h-2v-2h2v2Z"/>
  <path d="M25,53h4c.552,0,1-.447,1-1v-4c0-.553-.448-1-1-1h-4c-.552,0-1,.447-1,1v4c0,.553.448,1,1,1ZM26,49h2v2h-2v-2Z"/>
  <path d="M55,24c.55,0,1-.45,1-1v-5c0-1.65-1.35-3-3-3h-7v-5c0-1.65-1.35-3-3-3H11c-1.65,0-3,1.35-3,3v19.17c0,.8.31,1.56.88,2.13l2.82,2.82c.19.19.3.44.3.71v19.17c0,1.65,1.35,3,3,3h6c.55,0,1-.45,1-1s-.45-1-1-1h-6c-.55,0-1-.45-1-1v-19.17c0-.8-.31-1.56-.88-2.13l-2.82-2.82c-.19-.19-.3-.44-.3-.71V10c0-.55.45-1,1-1h32c.55,0,1,.45,1,1v5h-2v-2c0-1.1-.9-2-2-2H14c-1.1,0-2,.9-2,2v14c0,1.1.9,2,2,2h6v2h-3c-.55,0-1,.45-1,1v4c0,.55.45,1,1,1h3v1c0,.35.07.69.18,1h-3.18c-.55,0-1,.45-1,1v4c0,.55.45,1,1,1h4c.55,0,1-.45,1-1v-3.18c.31.11.65.18,1,.18h1v3c0,.55.45,1,1,1h4c.55,0,1-.45,1-1v-3h2v11c0,.55.45,1,1,1h4c.55,0,1-.45,1-1v-11h2v13c0,.55-.45,1-1,1h-14c-.55,0-1,.45-1,1s.45,1,1,1h14c1.65,0,3-1.35,3-3v-13h11c1.65,0,3-1.35,3-3v-11c0-.55-.45-1-1-1s-1,.45-1,1v11c0,.55-.45,1-1,1h-30c-.55,0-1-.45-1-1v-20c0-.55.45-1,1-1h30c.55,0,1,.45,1,1v5c0,.55.45,1,1,1ZM20,35h-2v-2h2v2ZM20,43h-2v-2h2v2ZM34,41h2v10h-2v-10ZM26,41h2v2h-2v-2ZM40,15h-17c-1.65,0-3,1.35-3,3v9h-6v-14h26v2Z"/>
  <path d="M38,26v-4c0-1.654-1.346-3-3-3h-8c-1.654,0-3,1.346-3,3v4c0,1.654,1.346,3,3,3h8c1.654,0,3-1.346,3-3ZM35,27h-5v-2h6v1c0,.552-.449,1-1,1ZM36,22v1h-6v-2h5c.551,0,1,.448,1,1ZM26,26v-4c0-.552.449-1,1-1h1v6h-1c-.551,0-1-.448-1-1Z"/>
  <path d="M24,34v2c0,.553.448,1,1,1s1-.447,1-1v-2c0-.553-.448-1-1-1s-1,.447-1,1Z"/>
  <path d="M28,34v2c0,.553.448,1,1,1s1-.447,1-1v-2c0-.553-.448-1-1-1s-1,.447-1,1Z"/>
  <path d="M32,34v2c0,.553.448,1,1,1s1-.447,1-1v-2c0-.553-.448-1-1-1s-1,.447-1,1Z"/>
  <path d="M46,31c-1.103,0-2,.897-2,2v2c0,1.103.897,2,2,2h4c1.103,0,2-.897,2-2v-2c0-1.103-.897-2-2-2h-4ZM46,35v-2h4v2s-4,0-4,0Z"/>
</svg>