<?xml version="1.0" encoding="UTF-8"?>
<svg id="Outline" xmlns="http://www.w3.org/2000/svg" version="1.1" viewBox="0 0 64 64">
  <!-- Generator: Adobe Illustrator 29.5.1, SVG Export Plug-In . SVG Version: 2.1.0 Build 141)  -->
  <path d="M56.134,19.366l-8.51-8.5c-1.16-1.15-3.06-1.15-4.23,0l-5.38,5.39-8.39-8.39c-1.16-1.15-3.06-1.15-4.23,0l-14.15,14.15c-.57.57-.88,1.33-.87,2.13,0,.38.07.74.2,1.08-2.06.62-3.57,2.51-3.57,4.77v22c0,2.76,2.24,5,5,5h28c1.65,0,3-1.35,3-3v-2c2.21,0,4-1.79,4-4v-8c0-1.98-1.45-3.61-3.33-3.93l12.46-12.47c1.15-1.16,1.15-3.06,0-4.23ZM12.664,23.436l14.14-14.15c.39-.38,1.03-.38,1.41,0l8.39,8.38-7.36,7.35c-.57.57-.88,1.33-.87,2.13,0,.12.02.24.03.36l-5.49,5.49h-2.1l-8.16-8.16c-.18-.18-.28-.43-.28-.69-.01-.27.1-.52.29-.71ZM29.364,29.366l3.63,3.63h-7.26l3.63-3.63ZM11.994,26.996l6,6h-5.99c-.8,0-1.55-.31-2.12-.87-.57-.58-.88-1.33-.88-2.13,0-1.65,1.34-2.99,2.99-3ZM41.004,53.996c0,.55-.45,1-1,1H12.004c-1.65,0-3-1.35-3-3v-18.03c.87.66,1.91,1.03,3,1.03h28c.55,0,1,.45,1,1v6h-5c-1.65,0-3,1.35-3,3v4c0,1.65,1.35,3,3,3h5v2ZM45.004,47.996c0,1.1-.9,2-2,2h-7c-.55,0-1-.45-1-1v-4c0-.55.45-1,1-1h7c.73,0,1.41-.21,2-.56v4.56ZM45.004,39.996c0,1.1-.9,2-2,2v-4c1.1,0,2,.9,2,2ZM54.714,22.186l-12.19,12.2c-.53-.84-1.46-1.39-2.52-1.39h-4.19l-5.16-5.16c-.18-.18-.28-.43-.28-.69-.01-.27.1-.52.29-.71l14.14-14.15c.39-.38,1.03-.38,1.41,0l8.5,8.49c.38.39.38,1.03,0,1.41Z"/>
  <path d="M50.466,19.362l-2.774-2.774c-.188-.188-.442-.293-.707-.293s-.52.105-.707.293c-.42.42-1.104.42-1.523,0-.391-.391-1.023-.391-1.414,0l-8.376,8.376c-.391.39-.391,1.023,0,1.414.42.42.42,1.104,0,1.523-.188.188-.293.442-.293.707s.105.52.293.707l2.774,2.774c.391.391,1.023.391,1.414,0,.419-.419,1.103-.42,1.523,0,.195.195.451.293.707.293s.512-.098.707-.293l8.376-8.376c.391-.391.391-1.023,0-1.414-.42-.42-.42-1.103,0-1.523.391-.391.391-1.023,0-1.414ZM44.865,26.486l-.003.003c-.769.763-2.385.44-3.534-.709-1.149-1.15-1.473-2.769-.707-3.536.282-.282.68-.416,1.127-.416.768,0,1.682.396,2.409,1.123,1.149,1.15,1.473,2.767.708,3.534ZM41.264,30.087c-.849-.415-1.852-.414-2.701,0l-1.596-1.596c.414-.85.414-1.852,0-2.701l1.387-1.387c.222.982.735,1.967,1.56,2.792.798.798,1.748,1.31,2.699,1.544l-1.348,1.348ZM48.463,22.888l-1.351,1.351c-.234-.952-.742-1.903-1.541-2.702-.824-.824-1.81-1.338-2.791-1.56l1.387-1.387c.85.414,1.852.414,2.701,0l1.596,1.596c-.414.85-.414,1.852,0,2.701Z"/>
  <path d="M16.964,24.902c-.188.188-.293.442-.293.707s.105.52.293.707l2.774,2.774c.391.391,1.023.391,1.414,0,.419-.419,1.103-.42,1.523,0,.195.195.451.293.707.293s.512-.098.707-.293l8.376-8.376c.391-.391.391-1.023,0-1.414-.42-.42-.42-1.103,0-1.523.391-.391.391-1.023,0-1.414l-2.774-2.774c-.188-.188-.442-.293-.707-.293s-.52.105-.707.293c-.42.42-1.104.42-1.523,0-.391-.391-1.023-.391-1.414,0l-8.376,8.376c-.391.39-.391,1.023,0,1.414.42.42.42,1.104,0,1.523ZM23.328,22.78c-1.149-1.15-1.473-2.769-.707-3.536.282-.282.68-.416,1.127-.416.768,0,1.682.396,2.409,1.123,1.149,1.15,1.473,2.767.708,3.534l-.003.003c-.768.763-2.385.44-3.534-.709ZM26.166,15.591c.85.414,1.852.414,2.701,0l1.596,1.596c-.414.85-.414,1.852,0,2.701l-1.351,1.351c-.234-.952-.742-1.903-1.541-2.702-.824-.824-1.81-1.337-2.792-1.56l1.387-1.387ZM18.968,22.79l1.387-1.387c.222.982.735,1.967,1.56,2.792.798.798,1.748,1.31,2.699,1.544l-1.348,1.348c-.849-.414-1.852-.414-2.701,0l-1.596-1.596c.414-.85.414-1.852,0-2.701Z"/>
  <path d="M42.004,45.996h-4c-.552,0-1,.448-1,1s.448,1,1,1h4c.552,0,1-.448,1-1s-.448-1-1-1Z"/>
</svg>