<?xml version="1.0" encoding="UTF-8"?>
<svg id="Outline" xmlns="http://www.w3.org/2000/svg" version="1.1" viewBox="0 0 64 64">
  <!-- Generator: Adobe Illustrator 29.0.0, SVG Export Plug-In . SVG Version: 2.1.0 Build 186)  -->
  <path d="M56.98999,43.96997c0-.08997-.01001-.19-.03998-.28998l-3.95001-11.84003v-11.83997c0-.54999-.45001-1-1-1h-7v-2h4c.54999,0,1-.45001,1-1v-8c0-.54999-.45001-1-1-1h-14c-.54999,0-1,.45001-1,1v8c0,.54999.45001,1,1,1h4v2h-8v-8c0-2.21002-1.78998-4-4-4h-12c-2.21002,0-4,1.78998-4,4v3c0,.54999.45001,1,1,1h5v4h-5c-.54999,0-1,.45001-1,1v11.83997l-3.95001,11.84003c-.02997.09998-.03998.20001-.03998.28998,0,.01001-.01001.02002-.01001.03003v12c0,.54999.45001,1,1,1h48c.54999,0,1-.45001,1-1v-12c0-.01001-.01001-.02002-.01001-.03003ZM36,15v-6h12v6h-12ZM43,17v2h-2v-2h2ZM27,9c1.09998,0,2,.89996,2,2v16h-10V11c0-.73004-.21002-1.41003-.56-2h8.56ZM13,13v-2c0-1.10004.90002-2,2-2s2,.89996,2,2v2h-4ZM13,21h4v6h-1c-.54999,0-1,.45001-1,1s.45001,1,1,1h16c.54999,0,1-.45001,1-1s-.45001-1-1-1h-1v-6h20v10H13v-10ZM55,55H9v-10h10c.54999,0,1-.45001,1-1s-.45001-1-1-1h-9.60999l3.32996-10h38.56006l3.32996,10h-27.60999c-.54999,0-1,.45001-1,1s.45001,1,1,1h28v10Z"/>
  <path d="M11,48v4c0,.55225.44727,1,1,1h40c.55273,0,1-.44775,1-1v-4c0-.55225-.44727-1-1-1H12c-.55273,0-1,.44775-1,1ZM13,49h38v2H13v-2Z"/>
  <path d="M15,39h-2c-.55273,0-1,.44775-1,1s.44727,1,1,1h2c.55273,0,1-.44775,1-1s-.44727-1-1-1Z"/>
  <path d="M22,40c0-.55225-.44727-1-1-1h-2c-.55273,0-1,.44775-1,1s.44727,1,1,1h2c.55273,0,1-.44775,1-1Z"/>
  <path d="M24,40c0,.55225.44727,1,1,1h2c.55273,0,1-.44775,1-1s-.44727-1-1-1h-2c-.55273,0-1,.44775-1,1Z"/>
  <path d="M48,40c0,.55225.44727,1,1,1h2c.55273,0,1-.44775,1-1s-.44727-1-1-1h-2c-.55273,0-1,.44775-1,1Z"/>
  <path d="M42,40c0,.55225.44727,1,1,1h2c.55273,0,1-.44775,1-1s-.44727-1-1-1h-2c-.55273,0-1,.44775-1,1Z"/>
  <path d="M36,40c0,.55225.44727,1,1,1h2c.55273,0,1-.44775,1-1s-.44727-1-1-1h-2c-.55273,0-1,.44775-1,1Z"/>
  <path d="M30,40c0,.55225.44727,1,1,1h2c.55273,0,1-.44775,1-1s-.44727-1-1-1h-2c-.55273,0-1,.44775-1,1Z"/>
  <path d="M19,36c0-.55225-.44727-1-1-1h-2c-.55273,0-1,.44775-1,1s.44727,1,1,1h2c.55273,0,1-.44775,1-1Z"/>
  <path d="M22,37h2c.55273,0,1-.44775,1-1s-.44727-1-1-1h-2c-.55273,0-1,.44775-1,1s.44727,1,1,1Z"/>
  <path d="M40,37h2c.55273,0,1-.44775,1-1s-.44727-1-1-1h-2c-.55273,0-1,.44775-1,1s.44727,1,1,1Z"/>
  <path d="M46,37h2c.55273,0,1-.44775,1-1s-.44727-1-1-1h-2c-.55273,0-1,.44775-1,1s.44727,1,1,1Z"/>
  <path d="M34,37h2c.55273,0,1-.44775,1-1s-.44727-1-1-1h-2c-.55273,0-1,.44775-1,1s.44727,1,1,1Z"/>
  <path d="M28,37h2c.55273,0,1-.44775,1-1s-.44727-1-1-1h-2c-.55273,0-1,.44775-1,1s.44727,1,1,1Z"/>
  <path d="M48,23h-12c-.55273,0-1,.44775-1,1v4c0,.55225.44727,1,1,1h12c.55273,0,1-.44775,1-1v-4c0-.55225-.44727-1-1-1ZM47,27h-10v-2h10v2Z"/>
  <circle cx="23" cy="44" r="1"/>
</svg>