<?xml version="1.0" encoding="UTF-8"?>
<svg id="Outline" xmlns="http://www.w3.org/2000/svg" version="1.1" viewBox="0 0 64 64">
  <!-- Generator: Adobe Illustrator 29.5.1, SVG Export Plug-In . SVG Version: 2.1.0 Build 141)  -->
  <path d="M56,20c.54999,0,1-.45001,1-1v-11c0-.54999-.45001-1-1-1h-4c-.54999,0-1,.45001-1,1v23.58997l-8,8-5.28998-5.29999c-.39001-.39001-1.03003-.39001-1.42004,0l-9.28998,9.29999-4.28998-4.29999c-.39001-.39001-1.03003-.39001-1.42004,0l-11.69995,11.71002h-1.59003c-.54999,0-1,.45001-1,1v4c0,.54999.45001,1,1,1h48c.54999,0,1-.45001,1-1V23c0-.54999-.45001-1-1-1s-1,.45001-1,1v32H9v-2h43c.54999,0,1-.45001,1-1V9h2v10c0,.54999.45001,1,1,1ZM51,51H12.40997l9.59003-9.59003,4.28998,4.29999c.39001.39001,1.03003.39001,1.42004,0l9.28998-9.29999,5.28998,5.29999c.39001.39001,1.03003.39001,1.42004,0l7.28998-7.29999v16.59003Z"/>
  <path d="M10.70312,45.11719c.19531.19531.45117.29297.70703.29297s.51172-.09766.70654-.29297l9.88281-9.87305,4.29346,4.29297c.37598.37598,1.04053.375,1.41455,0l10.70312-10.71289.88232.88281c.26758.26758.6626.36328,1.02344.24121.35938-.11914.62012-.43164.67334-.80664l1-7c.04492-.31152-.06006-.62598-.28271-.84863-.22266-.22168-.53564-.32715-.84863-.2832l-7,1c-.375.05371-.6875.31445-.80713.67383s-.02637.75586.2417,1.02344l.88135.88184-2.38037,2.37305c-.39111.38965-.39209,1.02246-.00195,1.41406s1.02295.3916,1.41406.00195l3.08984-3.08008c.18799-.1875.29395-.44141.29395-.70703s-.10498-.52051-.29297-.70801l-.17578-.17578,3.7002-.52832-.52832,3.7002-.17578-.17578c-.375-.375-1.03955-.37402-1.41455,0l-10.70312,10.71289-4.29248-4.29297c-.39062-.39062-1.02393-.39062-1.41357,0l-9.88281,9.87305-1.40674-1.40625,11.99658-12.00586,4.29248,4.29297c.39062.39062,1.02344.39062,1.41406,0l2.66992-2.66992c.39062-.39062.39062-1.02344,0-1.41406s-1.02344-.39062-1.41406,0l-1.96289,1.96289-4.29297-4.29297c-.375-.37402-1.03906-.37402-1.41455,0l-13.41016,13.41992c-.39014.39062-.39014,1.02344.00049,1.41406l2.82031,2.82031Z"/>
</svg>