<?xml version="1.0" encoding="UTF-8"?>
<svg id="Outline" xmlns="http://www.w3.org/2000/svg" version="1.1" viewBox="0 0 64 64">
  <!-- Generator: Adobe Illustrator 29.5.1, SVG Export Plug-In . SVG Version: 2.1.0 Build 141)  -->
  <path d="M55,33.001v-5c0-.55-.45-1-1-1h-4c-.55,0-1,.45-1,1v1h-2v-1c0-.55-.45-1-1-1h-1v-2c0-.55-.45-1-1-1s-1,.45-1,1v2h-1c-.55,0-1,.45-1,1v1h-2v-1c0-.55-.45-1-1-1h-1v-1c0-2.76-2.24-5-5-5s-5,2.24-5,5v1h-1c-.55,0-1,.45-1,1v1h-2v-1c0-.55-.45-1-1-1h-1v-8h22v2c0,.55.45,1,1,1s1-.45,1-1v-3c0-.31-.15-.57-.37-.76l.01-.01-12-10c-.37-.31-.91-.31-1.28,0l-12,10,.01.01c-.22.19-.37.45-.37.76v9h-1c-.55,0-1,.45-1,1v1h-2v-1c0-.55-.45-1-1-1h-4c-.55,0-1,.45-1,1v5c-.55,0-1,.45-1,1v6c0,.55.45,1,1,1h.12l1.89,15.12c.06.5.49.88.99.88h40c.5,0,.93-.38.99-.88l.75-6c.07-.54-.32-1.04-.87-1.11-.55-.07-1.04.32-1.11.87l-.64,5.12h-4.24l-1.75-14h7.74l-.61,4.88c-.07.54.32,1.04.87,1.11.54.07,1.04-.32,1.11-.87l.64-5.12h.12c.55,0,1-.45,1-1v-6c0-.55-.45-1-1-1ZM32,9.301l9.24,7.7h-18.48l9.24-7.7ZM29,26.001c0-1.65,1.35-3,3-3s3,1.35,3,3v1h-1c-.55,0-1,.45-1,1v1h-2v-1c0-.55-.45-1-1-1h-1v-1ZM11,29.001h2v1c0,.55.45,1,1,1h4c.55,0,1-.45,1-1v-1h2v1c0,.55.45,1,1,1h4c.55,0,1-.45,1-1v-1h2v1c0,.55.45,1,1,1h4c.55,0,1-.45,1-1v-1h2v1c0,.55.45,1,1,1h4c.55,0,1-.45,1-1v-1h2v1c0,.55.45,1,1,1h4c.55,0,1-.45,1-1v-1h2v4h-2c-.55,0-1,.45-1,1v1h-2v-1c0-.55-.45-1-1-1h-4c-.55,0-1,.45-1,1v1h-3c-.55,0-1,.45-1,1v2h-2v-2c0-.55-.45-1-1-1h-6c-.55,0-1,.45-1,1v2h-2v-2c0-.55-.45-1-1-1h-3v-1c0-.55-.45-1-1-1h-4c-.55,0-1,.45-1,1v1h-2v-1c0-.55-.45-1-1-1h-2v-4ZM10,39.001v-4h2v1c0,.55.45,1,1,1h4c.55,0,1-.45,1-1v-1h2v4h-10ZM17.12,55.001h-4.24l-1.75-14h7.74l-1.75,14ZM37,55.001h-10v-6c0-2.76,2.24-5,5-5s5,2.24,5,5v6ZM39,55.001v-6c0-3.86-3.14-7-7-7s-7,3.14-7,7v6h-5.87l1.75-14h.12c.55,0,1-.45,1-1v-3h2v2c0,.55.45,1,1,1h4c.55,0,1-.45,1-1v-2h4v2c0,.55.45,1,1,1h4c.55,0,1-.45,1-1v-2h2v3c0,.55.45,1,1,1h.12l1.75,14h-5.87ZM54,39.001h-10v-4h2v1c0,.55.45,1,1,1h4c.55,0,1-.45,1-1v-1h2v4Z"/>
</svg>