<?xml version="1.0" encoding="UTF-8"?>
<svg id="Outline" xmlns="http://www.w3.org/2000/svg" version="1.1" viewBox="0 0 64 64">
  <!-- Generator: Adobe Illustrator 29.5.1, SVG Export Plug-In . SVG Version: 2.1.0 Build 141)  -->
  <path d="M56,55h-5v-6h1c.38,0,.73-.21.89-.55.17-.34.14-.75-.09-1.05l-.6-.8c-1.42-1.89-2.2-4.24-2.2-6.6,0-.55-.45-1-1-1h-3v-4h2c.38,0,.73-.21.89-.55.17-.34.14-.75-.09-1.05l-.6-.8c-1.42-1.89-2.2-4.24-2.2-6.6,0-.55-.45-1-1-1h-2v-4h2c.47,0,.88-.33.98-.79.1-.46-.14-.93-.57-1.12l-3.83-1.71c-3.2-1.42-6.08-3.38-8.58-5.82v-3.56c0-.55-.45-1-1-1s-1,.45-1,1v3.56c-2.5,2.44-5.38,4.4-8.58,5.82l-3.83,1.71c-.43.19-.67.66-.57,1.12.1.46.51.79.98.79h2v4h-2c-.55,0-1,.45-1,1,0,2.36-.78,4.71-2.2,6.6l-.6.8c-.23.3-.26.71-.09,1.05.16.34.51.55.89.55h2v4h-3c-.55,0-1,.45-1,1,0,2.36-.78,4.71-2.2,6.6l-.6.8c-.23.3-.26.71-.09,1.05.16.34.51.55.89.55h1v6h-5c-.55,0-1,.45-1,1s.45,1,1,1h48c.55,0,1-.45,1-1s-.45-1-1-1ZM32,13.39c2.45,2.31,5.24,4.19,8.3,5.61h-16.6c3.06-1.42,5.85-3.3,8.3-5.61ZM23,21h18v4h-18v-4ZM17.95,33c1.15-1.8,1.84-3.87,2.01-6h24.08c.17,2.13.86,4.2,2.01,6h-28.1ZM44,35v4h-24v-4h24ZM25,55h-6v-2h6v2ZM37,55h-10v-2h10v2ZM45,55h-6v-2h6v2ZM49,55h-2v-3c0-.55-.45-1-1-1h-28c-.55,0-1,.45-1,1v3h-2v-6h34v6ZM13.95,47c1.15-1.8,1.84-3.87,2.01-6h32.08c.17,2.13.86,4.2,2.01,6H13.95Z"/>
</svg>