<?xml version="1.0" encoding="UTF-8"?>
<svg id="Outline" xmlns="http://www.w3.org/2000/svg" version="1.1" viewBox="0 0 64 64">
  <!-- Generator: Adobe Illustrator 29.5.1, SVG Export Plug-In . SVG Version: 2.1.0 Build 141)  -->
  <path d="M50.34,33.745c.74-1.79,1.16-3.71,1.16-5.71,0-3.67-1.35-7.06-3.62-9.84.08-.13.16-.25.22-.38,2.3-4.3-.52-10.08-.64-10.33-.2-.38-.61-.6-1.03-.54-.26.03-6.21.89-8.66,4.82-1.83-.49-3.76-.76-5.77-.76s-3.94.27-5.77.76c-2.47-3.93-8.4-4.79-8.66-4.82-.42-.06-.84.16-1.03.54-.12.25-2.94,6.03-.64,10.33.06.13.14.25.22.38-2.27,2.78-3.62,6.17-3.62,9.84,0,2,.42,3.92,1.16,5.71-4.18,3.34-6.66,8.44-6.66,13.8v8.52c0,.55.45,1,1,1h10c.55,0,1-.45,1-1s-.45-1-1-1h-3v-18.72c2.52,3.93,6.78,6.88,11.85,8.1l4.15,4.98v5.64h-5c-.55,0-1,.45-1,1s.45,1,1,1h30c.55,0,1-.45,1-1v-8.52c0-5.36-2.48-10.46-6.66-13.8ZM13,55.065h-4v-7.52c0-3.87,1.46-7.57,4-10.42v17.94ZM45.96,9.065c.59,1.45,1.72,4.94.49,7.57-1.86-1.79-4.13-3.24-6.69-4.22,1.63-2.12,4.77-3.04,6.2-3.35ZM18.04,9.065c1.43.31,4.56,1.22,6.2,3.35-2.56.98-4.83,2.43-6.69,4.22-1.22-2.62-.09-6.11.49-7.57ZM29.88,44.955c.7.07,1.4.11,2.12.11s1.42-.04,2.12-.11l-2.12,2.55-2.12-2.55ZM49,55.065h-16v-5.64l4.15-4.98c5.07-1.22,9.33-4.17,11.85-8.1v18.72ZM32,43.065c-9.65,0-17.5-6.74-17.5-15.03s7.85-15.03,17.5-15.03,17.5,6.74,17.5,15.03-7.85,15.03-17.5,15.03ZM55,55.065h-4v-17.94c2.54,2.85,4,6.55,4,10.42v7.52Z"/>
  <path d="M27,22.065c0-1.654-1.346-3-3-3s-3,1.346-3,3,1.346,3,3,3,3-1.346,3-3ZM24,23.065c-.551,0-1-.448-1-1s.449-1,1-1,1,.448,1,1-.449,1-1,1Z"/>
  <path d="M40,25.065c1.654,0,3-1.346,3-3s-1.346-3-3-3-3,1.346-3,3,1.346,3,3,3ZM40,21.065c.551,0,1,.448,1,1s-.449,1-1,1-1-.448-1-1,.449-1,1-1Z"/>
  <path d="M38,33.065c0-.188-.018-.371-.029-.557l.736-.736c.391-.391.391-1.023,0-1.414s-1.024-.391-1.414,0l-1.171,1.172c-.346.345-.805.535-1.293.535-.794,0-1.464-.511-1.716-1.219,1.104-.443,1.888-1.52,1.888-2.781,0-1.654-1.346-3-3-3s-3,1.346-3,3c0,1.261.784,2.338,1.888,2.781-.252.708-.923,1.219-1.716,1.219-.488,0-.948-.19-1.293-.535l-1.171-1.172c-.391-.391-1.023-.391-1.414,0s-.391,1.023,0,1.414l.736.736c-.011.186-.029.369-.029.557,0,4.411,2.691,8,6,8s6-3.589,6-8ZM32,27.065c.551,0,1,.448,1,1s-.449,1-1,1-1-.448-1-1,.449-1,1-1ZM28.043,33.877c.363.112.738.187,1.128.187,1.125,0,2.128-.496,2.829-1.271.701.775,1.704,1.271,2.829,1.271.39,0,.766-.075,1.128-.187-.274,2.883-1.972,5.187-3.957,5.187s-3.683-2.304-3.957-5.187Z"/>
  <circle cx="22" cy="56.065" r="1"/>
</svg>