<?xml version="1.0" encoding="UTF-8"?>
<svg id="Outline" xmlns="http://www.w3.org/2000/svg" version="1.1" viewBox="0 0 64 64">
  <!-- Generator: Adobe Illustrator 29.5.1, SVG Export Plug-In . SVG Version: 2.1.0 Build 141)  -->
  <path d="M56.582,7.178c-.327-.221-.755-.229-1.09-.021l-15.555,9.709c-2.475-.992-5.149-1.535-7.937-1.535s-5.462.543-7.937,1.535L8.508,7.157c-.336-.208-.763-.2-1.09.021-.328.222-.494.616-.424,1.005l3.971,22.055c-1.26,3.089-1.965,6.502-1.965,10.093,0,5.681,1.7,11.024,4.917,15.454,1.009,1.389,3.115,1.596,4.396.474,1.17-1.024,1.357-2.757.437-4.03-2.453-3.393-3.749-7.507-3.749-11.897,0-10.477,7.626-19,17-19s17,8.523,17,19c0,4.391-1.296,8.505-3.749,11.897-.921,1.273-.733,3.006.436,4.03,1.3,1.139,3.376.932,4.396-.473,3.217-4.431,4.917-9.774,4.917-15.455,0-3.591-.705-7.004-1.965-10.093l3.971-22.055c.07-.389-.096-.783-.424-1.005ZM9.362,10.049l12.54,7.827c-.765.408-1.505.864-2.219,1.359l-6.13-4.062c-.352-.231-.812-.22-1.152.033-.338.254-.48.692-.355,1.097l2.435,7.859c-.744.95-1.424,1.96-2.032,3.025l-3.085-17.137ZM16.02,22.376l-1.235-3.987,3.212,2.129c-.691.579-1.351,1.199-1.977,1.858ZM48.464,54.612c-.159.219-.398.357-.674.388-.285.035-.57-.057-.785-.245h0c-.388-.34-.444-.922-.132-1.354,2.7-3.735,4.128-8.255,4.128-13.069,0-11.579-8.523-21-19-21s-19,9.421-19,21c0,4.814,1.428,9.334,4.128,13.069.312.432.256,1.014-.133,1.354-.215.188-.502.279-.785.245-.275-.03-.515-.169-.674-.389-2.968-4.086-4.536-9.023-4.536-14.279,0-12.683,9.421-23,21-23s21,10.317,21,23c0,5.256-1.568,10.193-4.536,14.28ZM47.98,22.376c-.626-.659-1.286-1.279-1.977-1.858l3.212-2.129-1.235,3.987ZM51.552,27.186c-.608-1.064-1.288-2.074-2.032-3.025l2.435-7.859c.125-.404-.018-.843-.355-1.097-.341-.254-.801-.266-1.152-.033l-6.13,4.062c-.715-.495-1.454-.951-2.219-1.359l12.54-7.827-3.085,17.137Z"/>
</svg>