<?xml version="1.0" encoding="UTF-8"?>
<svg id="Outline" xmlns="http://www.w3.org/2000/svg" version="1.1" viewBox="0 0 64 64">
  <!-- Generator: Adobe Illustrator 29.5.1, SVG Export Plug-In . SVG Version: 2.1.0 Build 141)  -->
  <path d="M57,15.969c0-.38-.21-.72-.55-.89-1.53-.77-3.36-.77-4.9,0-.97.48-2.13.48-3.1,0-.31-.16-.68-.14-.98.04-.29.18-.47.5-.47.85v6c0,.38.21.73.55.9.77.38,1.61.57,2.45.57s1.68-.19,2.45-.57c.79-.4,1.71-.46,2.55-.2v5.51c-.69-.25-1.47-.25-2.2.06l-5.25,2.26h-.27c.34-.59.55-1.27.55-2v-2c0-2.21-1.79-4-4-4s-4,1.79-4,4v2c0,.73.21,1.41.56,2h-.28l-5.25-2.26c-.93-.4-2.02-.26-2.85.28-.49-.33-1.07-.52-1.69-.52-.41,0-.81.08-1.19.24l-5.24,2.26h-.28c.35-.59.56-1.27.56-2v-2c0-2.21-1.8-4-4-4s-4,1.79-4,4v2c0,.73.21,1.41.55,2h-.27l-5.26-2.26c-.72-.31-1.5-.31-2.19-.06v-5.51c.84-.26,1.76-.2,2.55.2.77.38,1.61.57,2.45.57s1.68-.19,2.45-.57c.34-.17.55-.52.55-.9v-6c0-.35-.18-.67-.47-.85-.3-.18-.67-.2-.98-.04-.97.48-2.13.48-3.1,0-1.54-.77-3.36-.77-4.9,0-.34.17-.55.51-.55.89v14.529c0,.171,0,.34,0,.511,0,1.19.7,2.27,1.78,2.74l6.39,2.84v11.91c0,.55.45,1,1,1h8c.55,0,1-.45,1-1v-5c0-.55-.45-1-1-1s-1,.45-1,1v4h-2v-5c0-.55-.45-1-1-1-.56,0-1,.45-1,1v5h-2v-11.56c0-.4-.23-.75-.59-.91l-6.99-3.11c-.36-.15-.59-.51-.59-.91,0-.15.04-.31.1-.45.25-.48.82-.69,1.3-.48l5.44,2.34c.13.05.26.08.4.08h7.86c.14,0,.27-.03.4-.08l5.42-2.34c.48-.2,1.07.01,1.3.47.258.517.027,1.142-.49,1.38l-6.97,3.1c-.36.16-.59.51-.59.91v3.56c0,.55.45,1,1,1s1-.45,1-1v-2.91l6.37-2.83c.17-.08.33-.17.48-.28.14.1.28.2.43.27l6.38,2.84v2.91c0,.55.45,1,1,1s1-.45,1-1v-3.56c0-.4-.23-.75-.59-.91l-6.97-3.1c-.03-.02-.05-.04-.08-.05.17-.57.17-1.17.01-1.73.26-.15.6-.19.87-.07l5.43,2.34c.13.05.26.08.4.08h7.86c.14,0,.27-.03.4-.08l5.43-2.34c.49-.21,1.07,0,1.3.46.229.525.061,1.152-.49,1.39l-6.98,3.1c-.36.16-.59.51-.59.91v11.56h-2v-5c0-.55-.44-1-1-1-.55,0-1,.45-1,1v5h-2v-4c0-.55-.45-1-1-1s-1,.45-1,1v5c0,.55.45,1,1,1h8c.55,0,1-.45,1-1v-11.91l6.38-2.84c1.09-.47,1.79-1.55,1.79-2.74,0-.173,0-.341,0-.51v-14.53ZM9,16.649c.84-.25,1.76-.18,2.55.22,1.07.53,2.29.7,3.45.48v3.95c-.84.25-1.76.17-2.55-.22-.77-.39-1.61-.58-2.45-.58-.33,0-.67.03-1,.09v-3.94ZM22.17,28.499c0,1.1-.9,2-2,2-1.11,0-2-.9-2-2v-2c0-1.1.89-2,2-2,1.1,0,2,.9,2,2v2ZM45.83,28.499c0,1.1-.89,2-2,2-1.1,0-2-.9-2-2v-2c0-1.1.9-2,2-2,1.11,0,2,.9,2,2v2ZM55,20.589c-1.16-.21-2.37-.05-3.45.49-.79.39-1.71.47-2.55.22v-3.95c1.16.21,2.38.05,3.45-.48.79-.4,1.71-.47,2.55-.22v3.94Z"/>
</svg>