<?xml version="1.0" encoding="UTF-8"?>
<svg id="Outline" xmlns="http://www.w3.org/2000/svg" version="1.1" viewBox="0 0 64 64">
  <!-- Generator: Adobe Illustrator 29.3.1, SVG Export Plug-In . SVG Version: 2.1.0 Build 151)  -->
  <path d="M55.33105,29.92383c-.52051-.19238-1.09375.07031-1.28711.58594-1.20801,3.23047-3.54492,6.49023-6.04395,6.49023-3.00323,0-6.11017-5.02679-6.84058-9.36829,1.89899-2.43097,3.44293-5.17432,3.76971-7.8999.95575-.47058,2.00403-.73181,3.07086-.73181,2.88672,0,5.43848,1.73047,6.5,4.4082.15527.39258.53223.63184.92969.63184.12305,0,.24805-.02246.36816-.07031.51367-.2041.76464-.78516.56152-1.29785-1.36621-3.44531-4.64746-5.67188-8.35938-5.67188-1.05328,0-2.09119.20343-3.07526.56372-.5127-4.25995-3.87964-7.56372-7.95404-7.56372-1.82812,0-3.56055.6543-4.9707,1.8623-1.41016-1.20801-3.14258-1.8623-4.9707-1.8623-4.0744,0-7.44135,3.30377-7.95404,7.56372-.98407-.36029-2.02197-.56372-3.07526-.56372-4.96289,0-9,4.03711-9,9,0,3.43665,2.10339,9.0611,5.39789,11.63507l-.90961,2.73505c-.20215.60742-.09863,1.28125.27637,1.80078.375.51855.98145.8291,1.62207.8291h1.61328v5h-2c-.55273,0-1,.44727-1,1s.44727,1,1,1h2v3c0,.55273.44727,1,1,1s1-.44727,1-1v-3h2c.55273,0,1-.44727,1-1s-.44727-1-1-1h-2v-5h1.61328c.64062,0,1.24707-.31055,1.62207-.8291.375-.51953.47852-1.19336.27637-1.80176l-.91418-2.74792c2.3045-1.80072,4.03864-5.07709,4.86169-8.07056,1.40289,1.54883,2.85461,2.89984,4.07037,3.95026l-1.12726,3.94928c-.17383.60938-.05469,1.24902.32617,1.75391.38184.50586.96387.7959,1.59668.7959h1.6748v9.00012l-1.2002-1.59973c-.33105-.44336-.95801-.53223-1.39941-.2002-.44238.33105-.53223.95801-.2002,1.39941l3,4c.18848.25195.48535.40039.7998.40039s.61133-.14844.7998-.40039l3-4c.33203-.44141.24219-1.06836-.2002-1.39941-.44141-.33105-1.06836-.24316-1.39941.2002l-1.2002,1.59973v-9.00012h1.6748c.63281,0,1.21484-.29004,1.59668-.7959.38086-.50488.5-1.14453.32617-1.75293l-1.12732-3.95026c1.21576-1.05042,2.66754-2.40143,4.07043-3.95026.82306,2.99347,2.55725,6.26984,4.86176,8.07056l-.91425,2.7489c-.20215.60742-.09863,1.28125.27637,1.80078.375.51855.98145.8291,1.62207.8291h1.61328v5h-2c-.55273,0-1,.44727-1,1s.44727,1,1,1h2v3c0,.55273.44727,1,1,1s1-.44727,1-1v-3h2c.55273,0,1-.44727,1-1s-.44727-1-1-1h-2v-5h1.61328c.64062,0,1.24707-.31055,1.62207-.8291.375-.51953.47852-1.19336.27637-1.80176l-.90747-2.72778c1.92291-1.49744,3.40979-4.0141,4.31274-6.43042.19336-.51758-.06934-1.09375-.58594-1.28711ZM18.61328,41h-5.22656l.78162-2.34961c.58588.22192,1.19666.34961,1.83167.34961.63361,0,1.24371-.13031,1.83032-.35358l.78296,2.35358ZM16,37c-3.60938,0-7-6.8623-7-11,0-3.85938,3.14062-7,7-7,1.06683,0,2.11511.26123,3.07086.73181.32678,2.72559,1.87073,5.46893,3.76971,7.8999-.73041,4.34149-3.83734,9.36829-6.84058,9.36829ZM34.6748,38h-5.34863l.88617-3.10516c.66772.52863,1.11456.85358,1.20367.91766.1748.125.37988.1875.58398.1875s.40918-.0625.58398-.1875c.08917-.06409.53613-.3891,1.20398-.91785l.88684,3.10535ZM32,33.74805c-2.35254-1.81543-11-8.90625-11-15.05859,0-3.68848,2.70508-6.68945,6.0293-6.68945,1.59375,0,3.09668.68457,4.23242,1.92676.37891.41406,1.09766.41406,1.47656,0,1.13574-1.24219,2.63867-1.92676,4.23242-1.92676,3.32422,0,6.0293,3.00098,6.0293,6.68945,0,2.41766-1.33539,4.98029-3.09937,7.31073-2.72491,3.59991-6.4726,6.64581-7.90063,7.74786ZM50.61328,41h-5.22656l.78296-2.35358c.58661.22327,1.19672.35358,1.83032.35358.63861,0,1.24915-.12744,1.83276-.34619l.78052,2.34619Z"/>
  <circle cx="56" cy="27" r="1"/>
</svg>