<?xml version="1.0" encoding="UTF-8"?>
<svg id="Outline" xmlns="http://www.w3.org/2000/svg" version="1.1" viewBox="0 0 64 64">
  <!-- Generator: Adobe Illustrator 29.5.1, SVG Export Plug-In . SVG Version: 2.1.0 Build 141)  -->
  <path d="M57,30.48444c0-.54999-.45001-1-1-1h-.10999c.06-.33002.10999-.66003.10999-1,0-2.45001-1.77002-4.48004-4.09003-4.91003-.42999-2.32001-2.45996-4.08997-4.90997-4.08997-2.76001,0-5,2.23999-5,5,0,.14001.02002.27997.03003.40997-.43005.19-.82001.45001-1.18005.75.09003-.38.15002-.76001.15002-1.15997,0-2.76001-2.23999-5-5-5-2.56,0-4.65002,1.94-4.94,4.41998-.37.15997-.72998.34998-1.06.59998-.85999-.65997-1.90997-1.01996-3-1.01996-.31,0-.62.03998-.91998.09998l-11.04995-13.95992c-1.00326-1.26746-2.9665-1.47277-4.23008-.4901-1.28998,1.04004-1.5,2.92999-.46997,4.21002l9.04999,11.42999c-.5.16998-.97003.41003-1.39001.72003-.91998-1.24005-2.39001-2.01001-3.98999-2.01001-2.76001,0-5,2.23999-5,5,0,.33997.04999.66998.10999,1h-1.10999c-.54999,0-1,.45001-1,1v3c0,.29999.01001.58997.02002.89001,0,.03998-.02002.06995-.02002.10999,0,.04999.02002.09998.03003.14996.59998,11.60004,10.21997,20.85004,21.96997,20.85004h6c11.75,0,21.37-9.25,21.96997-20.85004.01001-.04999.03003-.09998.03003-.14996,0-.04004-.02002-.07001-.02002-.10999.01001-.30005.02002-.59003.02002-.89001v-3ZM47,21.48444c1.34998,0,2.47998.89996,2.85999,2.14001-1.14001.26996-2.14996.92999-2.84998,1.87-.85999-.65002-1.91003-1.01001-3.01001-1.01001,0-1.65002,1.34998-3,3-3ZM36,21.48444c1.65002,0,3,1.34998,3,3,0,.37-.07001.72998-.20001,1.07001-.58002-.10004-1.15997-.09003-1.75.02997-.89001-1.27002-2.31-2.02997-3.87-2.08997.41003-1.17004,1.51001-2.01001,2.82001-2.01001ZM11.89001,12.09442c-.34003-.41998-.27002-1.04999.15997-1.39001.42999-.33997,1.08002-.26001,1.41003.16003l10.69995,13.51996c-.28998.20001-.56.44-.81.70001-.48999-.27002-1.02997-.42999-1.58997-.52002l-9.87-12.46997ZM55,33.48444H19c-.54999,0-1,.45001-1,1s.45001,1,1,1h35.90002c-1.01001,10.08997-9.55005,18-19.90002,18h-6c-10.34998,0-18.89001-7.91003-19.90002-18h5.90002c.54999,0,1-.45001,1-1s-.45001-1-1-1h-6v-2h26c.54999,0,1-.45001,1-1s-.45001-1-1-1H11.20001c-.12-.32001-.20001-.65002-.20001-1,0-1.65002,1.34998-3,3-3,1.26001,0,2.39001.81,2.82001,2,.12.35999.42999.60999.79999.65997s.73999-.10999.95001-.40997c.56-.78003,1.46997-1.25,2.42999-1.25.89001,0,1.53998.39001,1.94.71997.21997.19.52002.28003.81.23004.28998-.05005.53998-.23004.69-.48004.53998-.91998,1.5-1.46997,2.56-1.46997.84998,0,1.66998.38,2.25,1.03998.37.42999,1.13.42999,1.5,0,.38-.42999.85999-.72998,1.39001-.89001.01996-.00995.03998,0,.07001,0,.07001-.01996.13-.06.19995-.08997.19-.04004.39001-.06.59003-.06,1.15002,0,2.17999.64996,2.69,1.70996.22998.46002.77002.68005,1.26001.49005.34998-.13.70001-.20001,1.04999-.20001.89001,0,1.53998.39001,1.94.71997.21997.20001.52002.28003.81.23004.28998-.05005.53998-.23004.69-.48004.53998-.91998,1.5-1.46997,2.56-1.46997.96002,0,1.87.46997,2.42999,1.25.21002.29999.58002.45996.95001.40997s.67999-.29999.79999-.65997c.42999-1.19,1.56-2,2.82001-2,1.65002,0,3,1.34998,3,3,0,.34998-.08002.67999-.20001,1h-14.79999c-.54999,0-1,.45001-1,1s.45001,1,1,1h16v2Z"/>
</svg>