<?xml version="1.0" encoding="UTF-8"?>
<svg id="Outline" xmlns="http://www.w3.org/2000/svg" version="1.1" viewBox="0 0 64 64">
  <!-- Generator: Adobe Illustrator 29.3.1, SVG Export Plug-In . SVG Version: 2.1.0 Build 151)  -->
  <path d="M54,7H10c-1.65002,0-3,1.34998-3,3v28c0,1.64996,1.34998,3,3,3h28.35999l.56,6.13c-1.96997.42999-3.48999,2.02997-3.82996,4.02997-1.21002.39001-2.09003,1.51001-2.09003,2.84003v2c0,.54999.45001,1,1,1h18c.54999,0,1-.45001,1-1v-2c0-1.33002-.88-2.45001-2.09003-2.84003-.33997-2-1.85999-3.59998-3.82996-4.02997l.56-6.13h6.35999c1.65002,0,3-1.35004,3-3V10c0-1.65002-1.34998-3-3-3ZM50,53c.54999,0,1,.45001,1,1v1h-16v-1c0-.54999.45001-1,1-1h14ZM48.83002,51h-11.66003c.41003-1.16003,1.53003-2,2.83002-2h6c1.29999,0,2.41998.83997,2.83002,2ZM40.54999,43l-1.09997-12.10997c-.18711-2.05996,1.48374-3.88996,3.54987-3.89003,2.07406-.00007,3.7337,1.83018,3.5501,3.89001l-1.09998,12.10999h-4.90002ZM45.27002,45l-.17999,2h-4.18005l-.17999-2h4.54004ZM47.10999,26.81c-1.04999-1.15002-2.54999-1.81-4.10999-1.81s-3.06.65997-4.10999,1.81c-1.04999,1.14996-1.57001,2.70996-1.42999,4.26001l.34998,3.92999H15.87c-.35999-1.40002-1.46997-2.51001-2.87-2.87V15.87c1.40002-.35999,2.51001-1.47003,2.87-2.87h32.26001c.35999,1.39996,1.46997,2.51001,2.87,2.87v16.26001c-1.32001.33997-2.37,1.33997-2.78998,2.62l.32996-3.67999c.14001-1.55005-.38-3.11005-1.42999-4.26001ZM55,38c0,.54999-.45001,1-1,1h-6.17999l.17999-2h1c.54999,0,1-.45001,1-1,0-1.10004.90002-2,2-2,.54999,0,1-.45001,1-1V15c0-.54999-.45001-1-1-1-1.09998,0-2-.90002-2-2,0-.54999-.45001-1-1-1H15c-.54999,0-1,.45001-1,1,0,1.09998-.90002,2-2,2-.54999,0-1,.45001-1,1v18c0,.54999.45001,1,1,1,1.09998,0,2,.89996,2,2,0,.54999.45001,1,1,1h23l.17999,2H10c-.54999,0-1-.45001-1-1V10c0-.54999.45001-1,1-1h44c.54999,0,1,.45001,1,1v28Z"/>
  <path d="M46,15h-28c-.55225,0-1,.44775-1,1v4c0,.55225.44775,1,1,1h28c.55225,0,1-.44775,1-1v-4c0-.55225-.44775-1-1-1ZM45,19h-26v-2h26v2Z"/>
</svg>