<?xml version="1.0" encoding="UTF-8"?>
<svg id="Outline" xmlns="http://www.w3.org/2000/svg" version="1.1" viewBox="0 0 64 64">
  <!-- Generator: Adobe Illustrator 29.5.1, SVG Export Plug-In . SVG Version: 2.1.0 Build 141)  -->
  <path d="M21.474,34.831c.295.182.661.198.973.044l3.553-1.776,3.553,1.776c.142.07.294.105.447.105.547,0,1-.452,1-1v-7.111c1.235-1.263,2-2.988,2-4.889,0-3.86-3.141-7-7-7s-7,3.14-7,7c0,1.902.765,3.627,2,4.889v7.111c0,.347.18.668.475.851ZM26.446,31.086c-.281-.141-.613-.141-.895,0l-2.553,1.276v-4.067c.911.435,1.926.685,3,.685s2.089-.251,3-.685v4.067l-2.553-1.276ZM25.999,16.98c2.757,0,5,2.243,5,5s-2.243,5-5,5-5-2.243-5-5,2.243-5,5-5Z"/>
  <path d="M25.999,24.98c1.654,0,3-1.346,3-3s-1.346-3-3-3-3,1.346-3,3,1.346,3,3,3ZM25.999,20.98c.552,0,1,.449,1,1s-.448,1-1,1-1-.449-1-1,.448-1,1-1Z"/>
  <path d="M36.999,37.98c0-.552-.447-1-1-1H15.999c-.553,0-1,.448-1,1s.447,1,1,1h20c.553,0,1-.448,1-1Z"/>
  <path d="M34.999,41.98c0-.552-.447-1-1-1h-16c-.553,0-1,.448-1,1s.447,1,1,1h16c.553,0,1-.448,1-1Z"/>
  <path d="M19.999,44.98c-.553,0-1,.448-1,1s.447,1,1,1h12c.553,0,1-.448,1-1s-.447-1-1-1h-12Z"/>
  <path d="M56.224,29.609c-.82-1.298-2.185-2.14-3.741-2.308-1.818-.2-3.651.67-4.652,2.21-.657,1.012-.933,2.161-.797,3.322.268,2.303.118,4.222-.457,5.869l-1.039,2.975-.538-.188V9.98c0-1.654-1.346-3-3-3H9.999c-1.654,0-3,1.346-3,3v23c0,.552.447,1,1,1s1-.448,1-1V9.98c0-.551.448-1,1-1h32c.552,0,1,.449,1,1v30.894c-.715-.081-1.419.105-2,.492v-16.386c0-.552-.447-1-1-1s-1,.448-1,1v19.033c-.29.045-.577.119-.85.25-.722.348-1.265.957-1.529,1.713l-1.319,3.776c-.065.187-.054.376-.011.556-.079.22-.143.444-.19.672h-18.201c-.398-1.956-1.943-3.501-3.899-3.899v-30.201c1.956-.398,3.501-1.943,3.899-3.899h18.201c.398,1.956,1.943,3.501,3.899,3.899v4.101c0,.552.447,1,1,1s1-.448,1-1v-5c0-.552-.447-1-1-1-1.654,0-3-1.346-3-3,0-.552-.447-1-1-1H15.999c-.553,0-1,.448-1,1,0,1.654-1.346,3-3,3-.553,0-1,.448-1,1v32c0,.552.447,1,1,1,1.654,0,3,1.346,3,3,0,.552.447,1,1,1h20c.553,0,1-.448,1-1,0-.189.031-.371.066-.552l5.934,2.074v.479c0,.551-.448,1-1,1H9.999c-.552,0-1-.449-1-1v-17c0-.552-.447-1-1-1s-1,.448-1,1v17c0,1.654,1.346,3,3,3h32c1.581,0,2.867-1.234,2.979-2.787l7.93,2.771c.107.038.219.056.33.056.149,0,.298-.033.435-.099.238-.115.422-.321.51-.571l1.319-3.776c.264-.756.218-1.571-.13-2.292-.197-.409-.485-.751-.829-1.027l.39-1.116c.264-.757.218-1.571-.13-2.292-.349-.722-.957-1.265-1.713-1.529l-1.888-.66,1.16-3.321c.538-1.54,1.546-2.991,3.082-4.438.58-.548,1.009-1.209,1.274-1.966h0c.506-1.449.325-3.024-.495-4.323ZM53.612,51.914l-.989,2.832-15.104-5.278.99-2.832c.088-.252.269-.455.51-.571.238-.116.511-.132.764-.043l13.216,4.618c.253.088.455.27.571.51.116.241.132.512.043.764ZM53.001,46.714c.116.241.132.512.043.764l-.33.944-11.328-3.958.33-.944c.182-.521.756-.793,1.273-.614l9.44,3.298c.253.088.455.27.571.51ZM54.83,33.272c-.157.452-.413.846-.758,1.171-1.774,1.671-2.951,3.383-3.599,5.233l-1.16,3.321-.455-.159-1.434-.501,1.04-2.975c.677-1.938.858-4.149.555-6.76-.081-.692.088-1.384.488-2,.585-.9,1.691-1.434,2.76-1.312.961.104,1.765.597,2.265,1.388.493.779.602,1.725.298,2.594Z"/>
</svg>