<?xml version="1.0" encoding="UTF-8"?>
<svg id="Outline" xmlns="http://www.w3.org/2000/svg" version="1.1" viewBox="0 0 64 64">
  <!-- Generator: Adobe Illustrator 29.3.1, SVG Export Plug-In . SVG Version: 2.1.0 Build 151)  -->
  <path d="M43.44531,36.16797l-2.31787,1.54541-.42041-.42041c-.39062-.39062-1.02344-.39062-1.41406,0s-.39062,1.02344,0,1.41406l1,1c.19336.19336.44922.29297.70752.29297.19189,0,.38525-.05518.5542-.16797l3-2c.45947-.30615.5835-.92725.27734-1.38672s-.92822-.58496-1.38672-.27734Z"/>
  <path d="M42,31c-3.85986,0-7,3.14014-7,7s3.14014,7,7,7,7-3.14014,7-7-3.14014-7-7-7ZM42,43c-2.75684,0-5-2.24316-5-5s2.24316-5,5-5,5,2.24316,5,5-2.24316,5-5,5Z"/>
  <path d="M54,7H10c-1.6543,0-3,1.3457-3,3v28c0,1.6543,1.3457,3,3,3h21.84918c.01617.11121.04388.22058.04388.3335,0,1.54297.83057,2.98096,2.16699,3.75244.354.20459.64941.5.85352.854.02606.04517.05884.0849.08643.12891v9.93115c0,.32129.1543.62354.41553.81104.26123.18799.59619.23779.90088.1377l5.68359-1.89453,5.68359,1.89453c.10352.03418.20996.05127.31646.05127.54418-.00003.99994-.45212.99994-1v-9.93176c.0274-.04376.06-.08337.08594-.1283.20459-.354.5-.64941.854-.85352,1.33643-.77197,2.16699-2.20996,2.16699-3.75293,0-.11292.02771-.22229.04388-.3335h1.84918c1.6543,0,3-1.3457,3-3V10c0-1.6543-1.3457-3-3-3ZM51,31.78955c-.30316-.34076-.65491-.6416-1.06006-.87549-.354-.20459-.64941-.5-.85352-.854-.77197-1.33643-2.20996-2.16699-3.75293-2.16699-.40918,0-.8125-.10791-1.16699-.31201-1.33594-.77246-2.99707-.77197-4.33301-.00049-.354.20459-.75781.3125-1.16699.3125-1.54297,0-2.98096.83057-3.75244,2.16699-.20459.354-.5.64941-.854.85352-1.33643.77197-2.16699,2.20996-2.16699,3.75293,0,.11292-.02771.22229-.04388.3335h-15.97565c-.36279-1.40381-1.46973-2.51074-2.87354-2.87354V15.87354c1.40381-.36279,2.51074-1.46973,2.87354-2.87354h32.25293c.36279,1.40381,1.46973,2.51074,2.87354,2.87354v15.91602ZM42.31641,53.05127c-.20605-.06836-.42676-.06836-.63281,0l-4.68359,1.56152v-6.84137c.52081.21771,1.08618.33551,1.6665.33551.40918,0,.81299.10791,1.16699.31201.66797.38623,1.41748.5791,2.1665.5791s1.49854-.19287,2.1665-.57861c.354-.20459.75781-.3125,1.16699-.3125.58038,0,1.14569-.1178,1.6665-.33551v6.84137l-4.68359-1.56152ZM48.93994,43.35449c-.65771.37939-1.20605.92773-1.58594,1.58545-.41553.71973-1.18994,1.16699-2.02051,1.16699-.75977,0-1.50928.20068-2.16699.58057-.71973.41504-1.61328.41553-2.33301-.00049-.65771-.37939-1.40723-.58008-2.16699-.58008-.83057,0-1.60498-.44727-2.021-1.16699-.37939-.65771-.92773-1.20605-1.58545-1.58594-.71973-.41553-1.16699-1.18994-1.16699-2.02051,0-.75977-.20068-1.50928-.58057-2.16699-.41553-.71973-.41553-1.61328.00049-2.33301.37939-.65771.58008-1.40723.58008-2.16699,0-.83057.44727-1.60498,1.16699-2.021.65771-.37939,1.20605-.92773,1.58594-1.58545.41553-.71973,1.18994-1.16699,2.02051-1.16699.75977,0,1.50928-.20068,2.16699-.58057.35986-.20752.76318-.31152,1.1665-.31152s.80664.104,1.1665.31152v.00049c.65771.37939,1.40723.58008,2.16699.58008.83057,0,1.60498.44727,2.021,1.16699.37939.65771.92773,1.20605,1.58545,1.58594.71973.41553,1.16699,1.18994,1.16699,2.02051,0,.75977.20068,1.50928.58057,2.16699.41553.71973.41553,1.61328-.00049,2.33301-.37939.65771-.58008,1.40723-.58008,2.16699,0,.83057-.44727,1.60498-1.16699,2.021ZM55,38c0,.55127-.44873,1-1,1h-1.12451c.25092-1.06165.10272-2.19849-.45605-3.1665-.20459-.354-.3125-.75781-.3125-1.16699,0-.22876-.02374-.4538-.0592-.67615.52881-.02631.95227-.45502.95227-.99036V15c0-.55225-.44775-1-1-1-1.10303,0-2-.89697-2-2,0-.55225-.44775-1-1-1H15c-.55225,0-1,.44775-1,1,0,1.10303-.89697,2-2,2-.55225,0-1,.44775-1,1v18c0,.55225.44775,1,1,1,1.10303,0,2,.89697,2,2,0,.55225.44775,1,1,1h16.12451c-.15546.65759-.15546,1.34241-.00018,2H10c-.55127,0-1-.44873-1-1V10c0-.55127.44873-1,1-1h44c.55127,0,1,.44873,1,1v28Z"/>
  <path d="M28,31h-.17432c-.74463,0-1.41455-.41406-1.74756-1.08008l-.18359-.36719c-.12842-.25635-.36084-.4458-.6377-.51904-.27783-.07275-.57178-.02441-.81152.13428l-1.97461,1.31641-1.54199-3.85596c-.15186-.37939-.52002-.62842-.92871-.62842s-.77637.24902-.92871.62842l-1.25684,3.14307c-.29883.74658-1.01074,1.22852-1.81445,1.22852-.55225,0-1,.44775-1,1s.44775,1,1,1c1.62598,0,3.06689-.97559,3.6709-2.48535l.3291-.82227,1.07129,2.6792c.1123.27979.34424.49414.63232.5835.09668.03027.19678.04492.29639.04492.19531,0,.38867-.05713.55469-.16797l2.11084-1.40723c.73828.98584,1.896,1.5752,3.16016,1.5752h.17432c.55225,0,1-.44775,1-1s-.44775-1-1-1Z"/>
  <path d="M46,15h-28c-.55225,0-1,.44775-1,1v4c0,.55225.44775,1,1,1h28c.55225,0,1-.44775,1-1v-4c0-.55225-.44775-1-1-1ZM45,19h-26v-2h26v2Z"/>
</svg>