<?xml version="1.0" encoding="UTF-8"?>
<svg id="Outline" xmlns="http://www.w3.org/2000/svg" version="1.1" viewBox="0 0 64 64">
  <!-- Generator: Adobe Illustrator 29.3.1, SVG Export Plug-In . SVG Version: 2.1.0 Build 151)  -->
  <path d="M54,6.93425H10c-1.6543,0-3,1.3457-3,3v30c0,1.6543,1.3457,3,3,3h11.927l-6.77466,6.78369c-.24414.24512-.34473.59961-.26465.93701.0791.3374.32812.60889.65723.71826l3.76367,1.25195,1.25195,3.76463c.22562.67843,1.14997.8958,1.65626.39211l8.03107-8.02173c.5672.11243,1.1524.17407,1.75214.17407s1.18494-.06165,1.75214-.17407l8.03105,8.02172c.48983.48927,1.4136.33807,1.65626-.39208l1.25195-3.76465,3.76367-1.25195c.3291-.10938.57812-.38086.65723-.71826.08008-.3374-.02051-.69189-.26465-.93701l-6.77466-6.78369h11.927c1.6543,0,3-1.3457,3-3V9.93425c0-1.6543-1.3457-3-3-3ZM32,30.93425c-3.90973,0-7.23553,2.51025-8.47491,6h-7.65204c-.3623-1.40381-1.46973-2.51074-2.87305-2.87354V15.80779c1.40332-.36279,2.51074-1.46973,2.87305-2.87354h32.25391c.3623,1.40381,1.46973,2.51074,2.87305,2.87354v18.25293c-1.40332.36279-2.51074,1.46973-2.87305,2.87354h-7.65204c-1.23938-3.48975-4.56519-6-8.47491-6ZM21.94824,54.22332l-.89941-2.70459c-.09961-.29932-.33496-.53418-.63379-.6333l-2.7041-.89941,6.17548-6.18292c.88818,1.8548,2.38934,3.35614,4.2442,4.24451l-6.18237,6.17572ZM25,39.93425c0-3.85986,3.14062-7,7-7s7,3.14014,7,7-3.14062,7-7,7-7-3.14014-7-7ZM43.58496,50.88543c-.29883.09912-.53418.33398-.63379.6333l-.89941,2.70459-6.18237-6.17572c1.8548-.88837,3.35608-2.38971,4.24426-4.24451l6.17542,6.18292-2.7041.89941ZM55,39.93425c0,.55127-.44824,1-1,1h-13.05902c.03656-.3288.05902-.66162.05902-1s-.02246-.6712-.05902-1h8.05902c.55273,0,1-.44775,1-1,0-1.10303.89746-2,2-2,.55273,0,1-.44775,1-1V14.93425c0-.55225-.44727-1-1-1-1.10254,0-2-.89697-2-2,0-.55225-.44727-1-1-1H15c-.55273,0-1,.44775-1,1,0,1.10303-.89746,2-2,2-.55273,0-1,.44775-1,1v20c0,.55225.44727,1,1,1,1.10254,0,2,.89697,2,2,0,.55225.44727,1,1,1h8.05902c-.03656.3288-.05902.66162-.05902,1s.02246.6712.05902,1h-13.05902c-.55176,0-1-.44873-1-1V9.93425c0-.55127.44824-1,1-1h44c.55176,0,1,.44873,1,1v30Z"/>
  <path d="M46,14.93425h-28c-.55273,0-1,.44775-1,1v4c0,.55225.44727,1,1,1h28c.55273,0,1-.44775,1-1v-4c0-.55225-.44727-1-1-1ZM45,18.93425h-26v-2h26v2Z"/>
  <path d="M46,22.93425h-28c-.55273,0-1,.44775-1,1v4c0,.55225.44727,1,1,1h28c.55273,0,1-.44775,1-1v-4c0-.55225-.44727-1-1-1ZM45,26.93425h-26v-2h26v2Z"/>
  <path d="M32,34.93425c-2.75684,0-5,2.24316-5,5s2.24316,5,5,5,5-2.24316,5-5-2.24316-5-5-5ZM32,42.93425c-1.6543,0-3-1.3457-3-3s1.3457-3,3-3,3,1.3457,3,3-1.3457,3-3,3Z"/>
</svg>