<?xml version="1.0" encoding="UTF-8"?>
<svg id="Outline" xmlns="http://www.w3.org/2000/svg" version="1.1" viewBox="0 0 64 64">
  <!-- Generator: Adobe Illustrator 29.5.1, SVG Export Plug-In . SVG Version: 2.1.0 Build 141)  -->
  <path d="M56,40h-4.61l3.56-10.68c.1-.31.05-.64-.14-.9-.19-.27-.49-.42-.81-.42h-7c-.55,0-1,.45-1,1s.45,1,1,1h5.61l-3.33,10H14.72l-3.33-10h27.61c.55,0,1-.45,1-1s-.45-1-1-1h-11.99c-4.06-3.67-9.01-6.27-14.37-7.53-.8-.18-1.65-.03-2.34.43-.69.46-1.16,1.19-1.3,2-.26,1.55.73,3.05,2.25,3.41,1.7.4,3.34.98,4.91,1.69h-6.16c-.32,0-.62.15-.81.42-.19.26-.24.59-.14.9l3.56,10.68h-4.61c-.55,0-1,.45-1,1v4c0,.55.45,1,1,1h2.38l1.73,3.45c.17.34.51.55.89.55h38c.38,0,.72-.21.89-.55l1.73-3.45h2.38c.55,0,1-.45,1-1v-4c0-.55-.45-1-1-1ZM11.71,24.36c-.5-.12-.82-.61-.74-1.12.05-.28.21-.52.44-.68.23-.15.51-.2.77-.14,4.27,1,8.27,2.92,11.71,5.58h-3.51c-2.67-1.68-5.58-2.91-8.67-3.64ZM50.38,48H13.62l-1-2h38.76l-1,2ZM55,44H9v-2h46v2Z"/>
  <path d="M31.599,23.8l-.431.646c-.307.459-.182,1.08.277,1.386.457.305,1.083.179,1.387-.278l.431-.646c1.173-1.759.939-4.121-.556-5.616-.823-.823-.952-2.124-.306-3.092l.431-.646c.307-.459.182-1.08-.277-1.386-.462-.308-1.082-.183-1.387.278l-.431.646c-1.173,1.759-.939,4.121.556,5.616.823.823.952,2.124.306,3.092Z"/>
  <path d="M26.599,23.8l-.431.646c-.307.459-.182,1.08.277,1.386.452.301,1.085.176,1.387-.278l.431-.646c1.173-1.759.939-4.121-.556-5.616-.823-.823-.952-2.124-.306-3.092l.431-.646c.307-.459.182-1.08-.277-1.386-.462-.308-1.082-.183-1.387.278l-.431.646c-1.173,1.759-.939,4.121.556,5.616.823.823.952,2.124.306,3.092Z"/>
  <path d="M36.599,23.8l-.431.646c-.307.459-.182,1.08.277,1.386.442.295,1.081.182,1.387-.278l.431-.646c1.173-1.759.939-4.121-.556-5.616-.823-.823-.952-2.124-.306-3.092l.431-.646c.307-.459.182-1.08-.277-1.386-.462-.308-1.081-.183-1.387.278l-.431.646c-1.173,1.759-.939,4.121.556,5.616.823.823.952,2.124.306,3.092Z"/>
  <circle cx="43" cy="29" r="1"/>
</svg>