<?xml version="1.0" encoding="UTF-8"?>
<svg id="Outline" xmlns="http://www.w3.org/2000/svg" version="1.1" viewBox="0 0 64 64">
  <!-- Generator: Adobe Illustrator 29.5.1, SVG Export Plug-In . SVG Version: 2.1.0 Build 141)  -->
  <path d="M32,7c-8.58,0-16.45,4.32-21.06,11.55-.3.47-.16,1.09.3,1.38.47.3,1.09.16,1.38-.3.51-.8,1.06-1.55,1.65-2.27.23,1.48.66,3.23,1.47,4.03.75.76,1.56.97,2.38.83-1.43,2.01-2.42,4.35-2.85,6.88-.48-.68-1.21-1.1-2.27-1.1-1.14,0-2.68.93-3.89,1.81.11-1.06.27-2.12.52-3.16.13-.53-.2-1.07-.74-1.2-.53-.13-1.07.2-1.2.74-.46,1.9-.69,3.85-.69,5.81,0,13.79,11.21,25,25,25s25-11.21,25-25S45.79,7,32,7ZM49.73,17.36c2.85,3.46,4.72,7.75,5.16,12.46-1.2-.88-2.75-1.82-3.89-1.82-1.06,0-1.79.42-2.27,1.1-.43-2.53-1.42-4.87-2.85-6.88.82.14,1.63-.07,2.38-.83.81-.8,1.24-2.55,1.47-4.03ZM54.45,32c-1.32,1.06-2.81,2-3.45,2-1.1,0-2-.9-2-2s.9-2,2-2c.64,0,2.13.94,3.45,2ZM46.85,19.98c-.78.78-2.05.78-2.83,0-.78-.78-.78-2.05,0-2.83.45-.45,2.17-.84,3.86-1.03-.19,1.69-.58,3.41-1.03,3.86ZM46.64,14.27c-1.48.23-3.23.66-4.03,1.47-.76.75-.97,1.56-.83,2.38-2.01-1.43-4.35-2.42-6.88-2.85.68-.48,1.1-1.21,1.1-2.27,0-1.14-.94-2.69-1.82-3.89,4.71.44,9,2.31,12.46,5.16ZM32,9.55c1.06,1.32,2,2.81,2,3.45,0,1.1-.9,2-2,2s-2-.9-2-2c0-.64.94-2.13,2-3.45ZM29.81,9.11c-.88,1.21-1.81,2.75-1.81,3.89,0,1.06.42,1.79,1.1,2.27-2.53.43-4.87,1.42-6.88,2.85.14-.82-.07-1.63-.83-2.38-.81-.81-2.57-1.24-4.05-1.47,3.51-2.92,7.84-4.72,12.47-5.16ZM17.15,19.98c-.45-.45-.84-2.17-1.03-3.86,1.69.19,3.41.58,3.86,1.03.78.78.78,2.05,0,2.83-.78.78-2.05.78-2.83,0ZM32,17c8.27,0,15,6.73,15,15s-6.73,15-15,15-15-6.73-15-15,6.73-15,15-15ZM13,30c1.1,0,2,.9,2,2s-.9,2-2,2c-.64,0-2.13-.94-3.45-2,1.32-1.06,2.81-2,3.45-2ZM14.27,46.64c-2.85-3.46-4.72-7.75-5.16-12.46,1.2.88,2.75,1.82,3.89,1.82,1.06,0,1.79-.42,2.27-1.1.43,2.53,1.42,4.87,2.85,6.88-.82-.14-1.63.07-2.38.83-.81.8-1.24,2.55-1.47,4.03ZM17.15,44.02c.78-.78,2.05-.78,2.83,0s.78,2.05,0,2.83c-.45.45-2.17.84-3.86,1.03.19-1.69.58-3.41,1.03-3.86ZM17.36,49.73c1.48-.23,3.23-.66,4.03-1.47.76-.75.97-1.56.83-2.38,2.01,1.43,4.35,2.42,6.88,2.85-.68.48-1.1,1.21-1.1,2.27,0,1.14.94,2.69,1.82,3.89-4.71-.44-9-2.31-12.46-5.16ZM32,54.45c-1.06-1.32-2-2.81-2-3.45,0-1.1.9-2,2-2s2,.9,2,2c0,.64-.94,2.13-2,3.45ZM34.18,54.89c.88-1.2,1.82-2.75,1.82-3.89,0-1.06-.42-1.79-1.1-2.27,2.53-.43,4.87-1.42,6.88-2.85-.14.82.07,1.63.83,2.38.8.81,2.55,1.24,4.03,1.47-3.46,2.85-7.75,4.72-12.46,5.16ZM44.02,46.85c-.78-.78-.78-2.05,0-2.83s2.05-.78,2.83,0c.45.45.84,2.17,1.03,3.86-1.69-.19-3.41-.58-3.86-1.03ZM49.73,46.64c-.23-1.48-.66-3.23-1.47-4.03-.75-.76-1.56-.97-2.38-.83,1.43-2.01,2.42-4.35,2.85-6.88.48.68,1.21,1.1,2.27,1.1,1.14,0,2.69-.94,3.89-1.82-.44,4.71-2.31,9-5.16,12.46Z"/>
  <path d="M22.705,39.908c.421,2.159,2.458,3.653,4.646,3.376.651-.077,1.298.132,1.777.577.805.75,1.838,1.125,2.872,1.125s2.066-.375,2.872-1.125c.479-.446,1.129-.653,1.778-.577,2.184.271,4.225-1.216,4.646-3.376.125-.643.526-1.193,1.099-1.512,1.924-1.067,2.704-3.467,1.775-5.462-.276-.594-.276-1.275,0-1.869.93-1.995.15-4.395-1.775-5.463-.572-.317-.973-.868-1.098-1.511-.42-2.159-2.456-3.652-4.646-3.376-.649.079-1.298-.131-1.777-.577-1.61-1.5-4.133-1.5-5.743,0-.48.446-1.132.652-1.778.577-2.185-.279-4.225,1.216-4.646,3.376-.125.643-.526,1.193-1.099,1.512-1.924,1.067-2.704,3.467-1.775,5.462.276.594.276,1.275,0,1.869-.93,1.995-.15,4.395,1.775,5.463.572.317.973.868,1.098,1.511ZM21.644,30.222c-.488-1.048-.079-2.309.932-2.869,1.09-.604,1.853-1.653,2.091-2.878.222-1.134,1.299-1.909,2.44-1.774,1.241.157,2.471-.249,3.384-1.099.846-.787,2.171-.787,3.017,0,.913.851,2.146,1.255,3.383,1.099,1.144-.133,2.22.641,2.441,1.774.239,1.225,1.001,2.273,2.091,2.877,1.011.562,1.42,1.822.932,2.87-.526,1.13-.526,2.427,0,3.557.488,1.048.079,2.309-.932,2.869-1.09.604-1.853,1.653-2.091,2.878-.221,1.135-1.295,1.915-2.44,1.774-1.241-.154-2.471.249-3.384,1.099-.846.786-2.171.787-3.017,0-.786-.732-1.81-1.131-2.869-1.131-.171,0-.343.011-.515.032-1.143.138-2.219-.64-2.441-1.774-.239-1.225-1.001-2.273-2.091-2.877-1.011-.562-1.42-1.822-.932-2.87.526-1.13.526-2.427,0-3.557Z"/>
  <path d="M28,35c.361,0,.718-.022,1.065-.065-.043.348-.065.704-.065,1.065,0,2.851,1.29,5,3,5s3-2.149,3-5c0-.361-.022-.718-.065-1.065.348.043.705.065,1.065.065,2.851,0,5-1.29,5-3s-2.149-3-5-3c-.361,0-.718.022-1.065.065.043-.348.065-.704.065-1.065,0-2.851-1.29-5-3-5s-3,2.149-3,5c0,.361.022.718.065,1.065-.348-.043-.705-.065-1.065-.065-2.851,0-5,1.29-5,3s2.149,3,5,3ZM28,31c.749,0,1.46.121,2.059.35.366.14.784.053,1.063-.228.279-.278.368-.695.227-1.063-.229-.6-.35-1.312-.35-2.059,0-1.936.751-3,1-3s1,1.064,1,3c0,.747-.121,1.459-.35,2.059-.141.368-.052.785.227,1.063.279.28.697.367,1.063.228.599-.229,1.311-.35,2.059-.35,1.936,0,3,.751,3,1s-1.064,1-3,1c-.749,0-1.46-.121-2.059-.35-.366-.139-.785-.052-1.063.228-.279.278-.368.695-.227,1.063.229.6.35,1.312.35,2.059,0,1.936-.751,3-1,3s-1-1.064-1-3c0-.747.121-1.459.35-2.059.141-.368.052-.785-.227-1.063-.191-.191-.447-.293-.707-.293-.12,0-.241.021-.356.065-.599.229-1.311.35-2.059.35-1.936,0-3-.751-3-1s1.064-1,3-1Z"/>
  <path d="M9.517,23.543c.508.216,1.095-.021,1.311-.53.216-.508-.021-1.095-.53-1.311-.508-.216-1.095.021-1.311.53-.216.508.021,1.095.53,1.311Z"/>
</svg>