<?xml version="1.0" encoding="UTF-8"?>
<svg id="Outline" xmlns="http://www.w3.org/2000/svg" version="1.1" viewBox="0 0 64 64">
  <!-- Generator: Adobe Illustrator 29.5.1, SVG Export Plug-In . SVG Version: 2.1.0 Build 141)  -->
  <path d="M44.08,33.69c-1.93-1.38-3.08-3.62-3.08-5.99v-1.7c0-.53-.41-.95-.93-.99.25-1.85,1.18-3.53,2.66-4.72,1.49-1.18,1.76-3.31.62-4.83-.58-.76-1.41-1.25-2.36-1.37s-1.88.14-2.63.74l-1.36,1.09v-5.92c0-1.65-1.35-3-3-3s-3,1.35-3,3v3.48l-3.51-1.5c-1.66-.71-3.59-.01-4.4,1.61-.79,1.58-.26,3.48,1.24,4.42l1.82,1.14c2.17,1.36,3.79,3.46,4.56,5.85h-.71c-.55,0-1,.45-1,1v1.7c0,2.37-1.15,4.61-3.08,5.99-2.46,1.75-3.92,4.6-3.92,7.61v12.7c0,1.65,1.35,3,3,3h20c1.65,0,3-1.35,3-3v-12.7c0-3.01-1.46-5.86-3.92-7.61ZM27.21,17.45l-1.82-1.13c-.62-.39-.84-1.18-.51-1.84.33-.67,1.13-.96,1.82-.66l3.51,1.5c.62.27,1.33.2,1.89-.17s.9-.99.9-1.67v-3.48c0-.55.45-1,1-1s1,.45,1,1v5.92c0,.78.43,1.47,1.13,1.8.7.34,1.51.25,2.12-.24l1.36-1.09c.32-.25.72-.36,1.13-.31.4.05.76.26,1.01.58.49.65.37,1.56-.27,2.07-1.95,1.56-3.16,3.81-3.42,6.27h-5.28c-.84-3.11-2.83-5.83-5.57-7.55ZM46,54c0,.55-.45,1-1,1h-20c-.55,0-1-.45-1-1v-1h19c.55,0,1-.45,1-1v-10c0-.55-.45-1-1-1h-5c-.55,0-1,.45-1,1s.45,1,1,1h4v8h-18v-8h6c.55,0,1-.45,1-1s-.45-1-1-1h-5.98c.09-2.26,1.21-4.37,3.06-5.69,2.46-1.75,3.92-4.6,3.92-7.61v-.7h8v.7c0,3.01,1.46,5.86,3.92,7.61,1.93,1.38,3.08,3.62,3.08,5.99v12.7Z"/>
  <path d="M16,17c.552,0,1-.448,1-1v-2c0-.552-.448-1-1-1s-1,.448-1,1v2c0,.552.448,1,1,1Z"/>
  <path d="M14,17h-2c-.552,0-1,.448-1,1s.448,1,1,1h2c.552,0,1-.448,1-1s-.448-1-1-1Z"/>
  <path d="M17,22v-2c0-.552-.448-1-1-1s-1,.448-1,1v2c0,.552.448,1,1,1s1-.448,1-1Z"/>
  <path d="M18,19h2c.552,0,1-.448,1-1s-.448-1-1-1h-2c-.552,0-1,.448-1,1s.448,1,1,1Z"/>
  <path d="M20,25v2c0,.552.448,1,1,1s1-.448,1-1v-2c0-.552-.448-1-1-1s-1,.448-1,1Z"/>
  <path d="M19,28h-2c-.552,0-1,.448-1,1s.448,1,1,1h2c.552,0,1-.448,1-1s-.448-1-1-1Z"/>
  <path d="M22,31c0-.552-.448-1-1-1s-1,.448-1,1v2c0,.552.448,1,1,1s1-.448,1-1v-2Z"/>
  <path d="M23,30h2c.552,0,1-.448,1-1s-.448-1-1-1h-2c-.552,0-1,.448-1,1s.448,1,1,1Z"/>
  <path d="M48,25c.552,0,1-.448,1-1v-2c0-.552-.448-1-1-1s-1,.448-1,1v2c0,.552.448,1,1,1Z"/>
  <path d="M43,26c0,.552.448,1,1,1h2c.552,0,1-.448,1-1s-.448-1-1-1h-2c-.552,0-1,.448-1,1Z"/>
  <path d="M48,27c-.552,0-1,.448-1,1v2c0,.552.448,1,1,1s1-.448,1-1v-2c0-.552-.448-1-1-1Z"/>
  <path d="M52,25h-2c-.552,0-1,.448-1,1s.448,1,1,1h2c.552,0,1-.448,1-1s-.448-1-1-1Z"/>
  <circle cx="34" cy="42" r="1"/>
</svg>