<?xml version="1.0" encoding="UTF-8"?>
<svg id="Outline" xmlns="http://www.w3.org/2000/svg" version="1.1" viewBox="0 0 64 64">
  <!-- Generator: Adobe Illustrator 29.5.1, SVG Export Plug-In . SVG Version: 2.1.0 Build 141)  -->
  <path d="M52,50c-1.066,0-2.074-.416-2.829-1.163-.755-.764-1.171-1.771-1.171-2.837v-6.494c5.167-1.672,9-7.532,9-14.506,0-4.026-1.25-7.8-3.52-10.626-.19-.236-.477-.374-.78-.374h-15.4c-.303,0-.59.138-.78.374-2.27,2.826-3.52,6.6-3.52,10.626,0,6.975,3.833,12.835,9,14.506v6.494c0,2.206-1.794,4-4,4-.552,0-1,.447-1,1v4c0,.553.448,1,1,1h14c.552,0,1-.447,1-1v-4c0-.553-.448-1-1-1ZM37.791,16h14.418c.938,1.264,1.65,2.734,2.123,4.328l-1.361.169c-2.766.335-5.266.152-7.728-.467-2.784-.697-5.628-.868-8.456-.513l-.887.11c.464-1.323,1.092-2.552,1.891-3.628ZM35,25c0-1.128.119-2.227.33-3.286l1.705-.212c2.582-.324,5.179-.168,7.721.468,1.82.458,3.706.69,5.604.69.914,0,1.872-.06,2.854-.178l1.564-.195c.143.882.223,1.788.223,2.713,0,7.168-4.486,13-10,13s-10-5.832-10-13ZM51,54h-12v-2.083c2.834-.478,5-2.949,5-5.917v-6.063c.331.034.662.063,1,.063s.669-.029,1-.063v6.063c0,1.596.621,3.103,1.757,4.251.898.889,2.025,1.463,3.243,1.666v2.083Z"/>
  <path d="M31,25c0-4.026-1.25-7.8-3.52-10.626-.19-.236-.477-.374-.78-.374h-5.7c-.552,0-1,.447-1,1s.448,1,1,1h5.209c.799,1.076,1.427,2.305,1.891,3.628l-.885-.11c-2.829-.356-5.674-.185-8.459.513-2.459.619-4.97.798-7.722.468l-1.365-.17c.472-1.594,1.184-3.063,2.123-4.328h1.209c.552,0,1-.447,1-1s-.448-1-1-1h-1.7c-.303,0-.59.138-.78.374-2.27,2.826-3.52,6.6-3.52,10.626,0,6.975,3.833,12.835,9,14.506v6.494c0,1.065-.416,2.073-1.163,2.829-.763.755-1.771,1.171-2.837,1.171-.552,0-1,.447-1,1v4c0,.553.448,1,1,1h14c.552,0,1-.447,1-1v-4c0-.553-.448-1-1-1-2.206,0-4-1.794-4-4v-6.494c5.167-1.672,9-7.532,9-14.506ZM9,25c0-.925.08-1.831.223-2.712l1.568.196c.977.117,1.936.177,2.849.177,1.898,0,3.784-.232,5.603-.69,2.542-.636,5.14-.793,7.724-.468l1.703.212c.212,1.06.33,2.159.33,3.286,0,7.168-4.486,13-10,13s-10-5.832-10-13ZM25,51.917v2.083h-12v-2.083c1.219-.203,2.346-.778,3.251-1.674,1.128-1.141,1.749-2.647,1.749-4.243v-6.063c.331.034.662.063,1,.063s.669-.029,1-.063v6.063c0,2.968,2.166,5.439,5,5.917Z"/>
  <path d="M48,34.828c.256,0,.512-.098.707-.293l2.829-2.828c.188-.188.293-.441.293-.707s-.105-.52-.293-.707l-2.829-2.828c-.391-.391-1.023-.391-1.414,0l-2.829,2.828c-.188.188-.293.441-.293.707s.105.52.293.707l2.829,2.828c.195.195.451.293.707.293ZM48,29.586l1.414,1.414-1.414,1.414-1.414-1.414,1.414-1.414Z"/>
  <path d="M44.364,26.293l-2.828-2.828c-.391-.391-1.023-.391-1.414,0l-2.829,2.828c-.188.188-.293.441-.293.707s.105.52.293.707l2.829,2.828c.195.195.451.293.707.293s.512-.098.707-.293l2.828-2.828c.391-.391.391-1.023,0-1.414ZM40.829,28.414l-1.414-1.414,1.414-1.414,1.414,1.414-1.414,1.414Z"/>
  <path d="M19,29c0-.553-.448-1-1-1h-4c-.552,0-1,.447-1,1v4c0,.553.448,1,1,1h4c.552,0,1-.447,1-1v-4ZM17,32h-2v-2h2v2Z"/>
  <path d="M23.122,30.707c.195.195.451.293.707.293s.512-.098.707-.293l2.828-2.828c.391-.391.391-1.023,0-1.414l-2.828-2.829c-.188-.188-.442-.293-.707-.293s-.52.105-.707.293l-2.829,2.829c-.188.188-.293.442-.293.707s.105.52.293.707l2.829,2.828ZM23.829,25.757l1.414,1.415-1.414,1.414-1.415-1.414,1.415-1.415Z"/>
  <path d="M33,9c0-.553-.448-1-1-1s-1,.447-1,1v2c0,.553.448,1,1,1s1-.447,1-1v-2Z"/>
  <path d="M28.464,12.879c.365.365,1.014.4,1.414,0,.391-.391.391-1.023,0-1.414l-1.414-1.414c-.391-.391-1.023-.391-1.414,0s-.391,1.023,0,1.414l1.414,1.414Z"/>
  <path d="M34.829,13.162c.255,0,.514-.09.707-.283l1.414-1.414c.391-.391.391-1.023,0-1.414s-1.023-.391-1.414,0l-1.414,1.414c-.391.391-.391,1.023,0,1.414.184.184.444.283.707.284Z"/>
  <circle cx="17" cy="15" r="1"/>
</svg>