<?xml version="1.0" encoding="UTF-8"?>
<svg id="Outline" xmlns="http://www.w3.org/2000/svg" version="1.1" viewBox="0 0 64 64">
  <!-- Generator: Adobe Illustrator 29.5.1, SVG Export Plug-In . SVG Version: 2.1.0 Build 141)  -->
  <path d="M56,39h-13v-4.53c3.49-1.23,6-4.56,6-8.47v-2c0-.55-.45-1-1-1h-13v-4.53c3.49-1.23,6-4.56,6-8.47v-2c0-.55-.45-1-1-1h-16c-.55,0-1,.45-1,1v2c0,3.91,2.51,7.24,6,8.47v4.53h-2c-.55,0-1,.45-1,1s.45,1,1,1h4v1c0,3.86-3.14,7-7,7s-7-3.14-7-7v-1h2c.55,0,1-.45,1-1s-.45-1-1-1h-3c-.55,0-1,.45-1,1v2c0,3.91,2.51,7.24,6,8.47v4.53h-13c-.55,0-1,.45-1,1v2c0,3.91,2.51,7.24,6,8.47v4.53h-2c-.55,0-1,.45-1,1s.45,1,1,1h10c.55,0,1-.45,1-1s-.45-1-1-1h-2v-4.53c2.17-.77,3.96-2.34,5-4.37,1.04,2.03,2.83,3.6,5,4.37v4.53h-2c-.55,0-1,.45-1,1s.45,1,1,1h10c.55,0,1-.45,1-1s-.45-1-1-1h-2v-4.53c2.17-.77,3.96-2.34,5-4.37,1.04,2.03,2.83,3.6,5,4.37v4.53h-2c-.55,0-1,.45-1,1s.45,1,1,1h10c.55,0,1-.45,1-1s-.45-1-1-1h-2v-4.53c3.49-1.23,6-4.56,6-8.47v-2c0-.55-.45-1-1-1ZM47,25v1c0,3.86-3.14,7-7,7s-7-3.14-7-7v-1h14ZM31,23v-4.06c.33.04.66.06,1,.06s.67-.02,1-.06v4.06h-2ZM25,10v-1h14v1c0,3.86-3.14,7-7,7s-7-3.14-7-7ZM27,34.47c2.17-.77,3.96-2.34,5-4.37,1.04,2.03,2.83,3.6,5,4.37v4.53h-10v-4.53ZM17,55h-2v-4.06c.33.04.66.06,1,.06s.67-.02,1-.06v4.06ZM23,42c0,3.86-3.14,7-7,7s-7-3.14-7-7v-1h14v1ZM23,39v-4.06c.33.04.66.06,1,.06s.67-.02,1-.06v4.06h-2ZM33,55h-2v-4.06c.33.04.66.06,1,.06s.67-.02,1-.06v4.06ZM39,42c0,3.86-3.14,7-7,7s-7-3.14-7-7v-1h14v1ZM39,39v-4.06c.33.04.66.06,1,.06s.67-.02,1-.06v4.06h-2ZM49,55h-2v-4.06c.33.04.66.06,1,.06s.67-.02,1-.06v4.06ZM55,42c0,3.86-3.14,7-7,7s-7-3.14-7-7v-1h14v1Z"/>
  <path d="M52,12c.553,0,1-.447,1-1v-2c0-.553-.447-1-1-1s-1,.447-1,1v2c0,.553.447,1,1,1Z"/>
  <path d="M48,14h2c.553,0,1-.447,1-1s-.447-1-1-1h-2c-.553,0-1,.447-1,1s.447,1,1,1Z"/>
  <path d="M52,14c-.553,0-1,.447-1,1v2c0,.553.447,1,1,1s1-.447,1-1v-2c0-.553-.447-1-1-1Z"/>
  <path d="M54,14h2c.553,0,1-.447,1-1s-.447-1-1-1h-2c-.553,0-1,.447-1,1s.447,1,1,1Z"/>
  <path d="M48.293,15.293l-.586.586c-1.085,1.085-1.707,2.587-1.707,4.121,0,.553.447,1,1,1s1-.447,1-1c0-1.008.408-1.994,1.121-2.707l.586-.586c.391-.391.391-1.023,0-1.414s-1.023-.391-1.414,0Z"/>
  <path d="M42,21c.553,0,1-.447,1-1,0-2.312.9-4.486,2.535-6.121l.172-.172c.391-.391.391-1.023,0-1.414s-1.023-.391-1.414,0l-.172.172c-2.013,2.013-3.121,4.688-3.121,7.535,0,.553.447,1,1,1Z"/>
  <path d="M12,12c.553,0,1-.447,1-1v-2c0-.553-.447-1-1-1s-1,.447-1,1v2c0,.553.447,1,1,1Z"/>
  <path d="M14,14h2c.553,0,1-.447,1-1s-.447-1-1-1h-2c-.553,0-1,.447-1,1s.447,1,1,1Z"/>
  <path d="M12,14c-.553,0-1,.447-1,1v2c0,.553.447,1,1,1s1-.447,1-1v-2c0-.553-.447-1-1-1Z"/>
  <path d="M8,14h2c.553,0,1-.447,1-1s-.447-1-1-1h-2c-.553,0-1,.447-1,1s.447,1,1,1Z"/>
  <path d="M15.707,15.293c-.391-.391-1.023-.391-1.414,0s-.391,1.023,0,1.414l.586.586c.713.713,1.121,1.699,1.121,2.707,0,.553.447,1,1,1s1-.447,1-1c0-1.534-.622-3.036-1.707-4.121l-.586-.586Z"/>
  <path d="M18.465,13.879c1.635,1.635,2.535,3.809,2.535,6.121,0,.553.447,1,1,1s1-.447,1-1c0-2.847-1.108-5.522-3.121-7.535l-.172-.172c-.391-.391-1.023-.391-1.414,0s-.391,1.023,0,1.414l.172.172Z"/>
  <circle cx="23" cy="24" r="1"/>
</svg>