<?xml version="1.0" encoding="UTF-8"?>
<svg id="Outline" xmlns="http://www.w3.org/2000/svg" version="1.1" viewBox="0 0 64 64">
  <!-- Generator: Adobe Illustrator 29.5.1, SVG Export Plug-In . SVG Version: 2.1.0 Build 141)  -->
  <path d="M52.84998,38.46997c-.17999-.28998-.5-.46997-.84998-.46997h-5v-2c0-1.65002-1.34998-3-3-3h-2c-.54999,0-1,.45001-1,1s.45001,1,1,1h2c.54999,0,1,.45001,1,1v4c0,.54999-.45001,1-1,1h-24c-.54999,0-1-.45001-1-1v-4c0-.54999.45001-1,1-1h18c.54999,0,1-.45001,1-1s-.45001-1-1-1h-3v-2.35999c2-.48004,3.83002-1.41003,5.34998-2.69l.17004-.04004c8.38995-1.79999,14.47998-9.33002,14.47998-17.90997,0-.54999-.45001-1-1-1h-9v-1c0-.54999-.45001-1-1-1h-24c-.54999,0-1,.45001-1,1v1h-9c-.54999,0-1,.45001-1,1,0,8.57996,6.09003,16.10999,14.47998,17.90997l.17004.04004c1.51996,1.27997,3.34998,2.20996,5.34998,2.69v2.35999h-9c-1.65002,0-3,1.34998-3,3v2h-5c-.34998,0-.66998.17999-.84998.46997-.18005.29999-.20001.67004-.04004.98004l1.77002,3.54999-1.77002,3.54999c-.15997.31-.14001.67999.04004.97998.17999.29004.5.47003.84998.47003h8c1.65002,0,3-1.35004,3-3v-2h6v2h-3c-.54999,0-1,.45001-1,1v3h-2c-.42999,0-.81.27997-.95001.67999l-2,6c-.09998.31-.04999.64001.14001.89996.19.27002.48999.42004.81.42004h22c.32001,0,.62-.15002.81-.42004.19-.25995.23999-.58997.14001-.89996l-2-6c-.14001-.40002-.52002-.67999-.95001-.67999h-2v-3c0-.54999-.45001-1-1-1h-3v-2h6v2c0,1.64996,1.34998,3,3,3h8c.34998,0,.66998-.17999.84998-.47003.18005-.29999.20001-.66998.04004-.97998l-1.77002-3.54999,1.77002-3.54999c.15997-.31.14001-.68005-.04004-.98004ZM33,33h-2v-2.04999c.33002.01996.65997.04999,1,.04999s.66998-.03003,1-.04999v2.04999ZM11.03003,11h7.96997v7c0,2.60999.78003,5.03998,2.10999,7.07996-5.69-2.35999-9.69-7.82996-10.07996-14.07996ZM21,18v-9h22v5c0,.54999.45001,1,1,1s1-.45001,1-1v-3h7.96997c-.38995,6.25-4.38995,11.71997-10.07996,14.07996,1.32996-2.03998,2.10999-4.46997,2.10999-7.07996,0-.54999-.45001-1-1-1s-1,.45001-1,1c0,6.07001-4.92999,11-11,11s-11-4.92999-11-11ZM21,45c0,.54999-.45001,1-1,1h-6.38l1.27002-2.54999c.14996-.28003.14996-.62006,0-.90002l-1.27002-2.54999h3.38c0,1.64996,1.34998,3,3,3h1v2ZM31,43h2v2h-2v-2ZM40.28003,51l1.32996,4h-19.21997l1.32996-4h16.56006ZM37,47v2h-10v-2h10ZM49.10999,43.45001l1.27002,2.54999h-6.38c-.54999,0-1-.45001-1-1v-2h1c1.65002,0,3-1.35004,3-3h3.38l-1.27002,2.54999c-.14996.27997-.14996.62,0,.90002Z"/>
</svg>