<?xml version="1.0" encoding="UTF-8"?>
<svg id="Outline" xmlns="http://www.w3.org/2000/svg" version="1.1" viewBox="0 0 64 64">
  <!-- Generator: Adobe Illustrator 29.0.0, SVG Export Plug-In . SVG Version: 2.1.0 Build 186)  -->
  <path d="M51.92035,45.90302c.69409-1.33752,1.07965-2.83594,1.07965-3.90302,0-2.75684-2.24316-5-5-5s-5,2.24316-5,5c0,1.06708.38556,2.56549,1.07965,3.90302-1.77954.85394-3.19965,2.25043-4.07965,3.9574-.88-1.70697-2.30011-3.10345-4.07965-3.9574.69409-1.33752,1.07965-2.83594,1.07965-3.90302,0-2.75684-2.24316-5-5-5s-5,2.24316-5,5c0,1.06708.38556,2.56549,1.07965,3.90302-1.77954.85394-3.19965,2.25043-4.07965,3.9574-.88-1.70697-2.30011-3.10345-4.07965-3.9574.69409-1.33752,1.07965-2.83594,1.07965-3.90302,0-2.75684-2.24316-5-5-5s-5,2.24316-5,5c0,1.06708.38556,2.56549,1.07965,3.90302-3.08044,1.47815-5.07965,4.5907-5.07965,8.09698v2c0,.55273.44727,1,1,1h48c.55273,0,1-.44727,1-1v-2c0-3.50629-1.99921-6.61884-5.07965-8.09698ZM48,39c1.6543,0,3,1.3457,3,3,0,1.97461-1.60938,5-3,5s-3-3.02539-3-5c0-1.6543,1.3457-3,3-3ZM32,39c1.6543,0,3,1.3457,3,3,0,1.97461-1.60938,5-3,5s-3-3.02539-3-5c0-1.6543,1.3457-3,3-3ZM16,39c1.6543,0,3,1.3457,3,3,0,1.97461-1.60938,5-3,5s-3-3.02539-3-5c0-1.6543,1.3457-3,3-3ZM9,54c0-2.8316,1.68481-5.31873,4.23706-6.40863.76221.83734,1.69269,1.40863,2.76294,1.40863s2.00073-.57129,2.76294-1.40863c2.55225,1.0899,4.23706,3.57703,4.23706,6.40863v1h-14v-1ZM25,54c0-2.8316,1.68481-5.31873,4.23706-6.40863.76221.83734,1.69269,1.40863,2.76294,1.40863s2.00073-.57129,2.76294-1.40863c2.55225,1.0899,4.23706,3.57703,4.23706,6.40863v1h-14v-1ZM55,55h-14v-1c0-2.8316,1.68481-5.31873,4.23706-6.40863.76221.83734,1.69269,1.40863,2.76294,1.40863s2.00073-.57129,2.76294-1.40863c2.55225,1.0899,4.23706,3.57703,4.23706,6.40863v1Z"/>
  <path d="M33,20c0-.55273-.44727-1-1-1-7.16797,0-13,5.83203-13,13,0,.55273.44727,1,1,1s1-.44727,1-1c0-6.06543,4.93457-11,11-11,.55273,0,1-.44727,1-1Z"/>
  <path d="M8,33h8c.55273,0,1-.44727,1-1,0-8.27148,6.72852-15,15-15s15,6.72852,15,15c0,.55273.44727,1,1,1h8c.55273,0,1-.44727,1-1,0-13.78516-11.21484-25-25-25S7,18.21484,7,32c0,.55273.44727,1,1,1ZM33,9.02472c3.4577.1488,6.71991,1.06305,9.62067,2.57977l-3.00732,5.2085c-2.01019-1.0119-4.24768-1.62555-6.61334-1.76416v-6.02411ZM31,15.04883c-2.36566.13861-4.60315.75226-6.61334,1.76416l-3.00732-5.2085c2.90076-1.51672,6.16296-2.43097,9.62067-2.57977v6.02411ZM48.9707,31c-.13806-2.36761-.77478-4.59949-1.78748-6.61115l5.21271-3.00977c1.51685,2.90094,2.4339,6.1629,2.58258,9.62091h-6.00781ZM51.39209,19.64886l-5.21564,3.01147c-1.27032-1.92163-2.90948-3.57642-4.83112-4.84662l3.00464-5.20386c2.8269,1.80695,5.23523,4.2121,7.04211,7.039ZM19.65002,12.60986l3.00464,5.20386c-1.92163,1.2702-3.56079,2.92499-4.83112,4.84662l-5.21564-3.01147c1.80688-2.8269,4.21521-5.23206,7.04211-7.039ZM11.60406,21.37909l5.21271,3.00977c-1.0127,2.01166-1.64941,4.24353-1.78748,6.61115h-6.00781c.14868-3.45801,1.06573-6.71997,2.58258-9.62091Z"/>
  <path d="M40.70703,22.29297c-.39062-.39062-1.02344-.39062-1.41406,0l-5.27368,5.27368c-.59491-.35126-1.2796-.56665-2.01929-.56665-2.20605,0-4,1.79395-4,4s1.79395,4,4,4,4-1.79395,4-4c0-.73969-.21539-1.42438-.56665-2.01929l5.27368-5.27368c.39062-.39062.39062-1.02344,0-1.41406ZM32,33c-1.10254,0-2-.89746-2-2s.89746-2,2-2,2,.89746,2,2-.89746,2-2,2Z"/>
</svg>