<?xml version="1.0" encoding="UTF-8"?>
<svg id="Outline" xmlns="http://www.w3.org/2000/svg" version="1.1" viewBox="0 0 64 64">
  <!-- Generator: Adobe Illustrator 29.5.1, SVG Export Plug-In . SVG Version: 2.1.0 Build 141)  -->
  <path d="M55.653,48.68c-.18-.44-.18-.92,0-1.36l.77-1.94c.64-1.6.13-3.44-1.25-4.48l-1.51-1.13c-.66-.5-1.48-.77-2.3-.77h-1.85c-1.76,0-3.29,1.19-3.72,2.9l-.05.21c-.16.66-.67,1.17-1.33,1.33l-1.11.28v-13.1c0-4.98-.96-9.82-2.84-14.41,1.83-2.06,2.84-4.68,2.84-7.45v-.76c0-.55-.45-1-1-1H8.303c-.55,0-1,.45-1,1v.76c0,2.77,1.01,5.39,2.84,7.45-.89,2.18-1.59,4.44-2.06,6.75-.52,2.53-.78,5.1-.78,7.66v10.38c0,.55.45,1,1,1s1-.45,1-1v-10.38c0-2.42.25-4.87.74-7.26.44-2.17,1.09-4.31,1.93-6.36h26.66c1.77,4.34,2.67,8.92,2.67,13.62v12.76l-.02-.01c-.92-.46-1.95-.53-2.93-.21-.23.08-.46.19-.68.31,1.04-2.23,1.63-4.77,1.63-7.47,0-8.82-6.28-16-14-16s-14,7.18-14,16,6.28,16,14,16c4.15,0,7.88-2.09,10.45-5.38-.04.8.17,1.61.63,2.3l.32.48c.32.48.39,1.06.2,1.62-.46,1.39-.1,2.89.93,3.92l.06.06H9.303v-6c0-.55-.45-1-1-1s-1,.45-1,1v7c0,.55.45,1,1,1h42.22c.69,0,1.37-.19,1.97-.55l2.26-1.35c1.62-.98,2.29-2.96,1.58-4.71l-.68-1.71ZM11.743,15c-1.52-1.65-2.38-3.75-2.44-6h32c-.06,2.25-.92,4.35-2.44,6H11.743ZM25.303,50c-6.62,0-12-6.28-12-14s5.38-14,12-14,12,6.28,12,14-5.38,14-12,14ZM53.793,49.42l.69,1.71c.33.84.01,1.79-.76,2.25l-2.26,1.36c-.29.17-.61.26-.94.26h-9.05c-.49,0-.95-.19-1.29-.54l-.94-.93c-.49-.49-.66-1.21-.43-1.9.38-1.13.21-2.35-.45-3.34l-.32-.48c-.36-.54-.4-1.25-.11-1.83.22-.44.59-.77,1.06-.92.19-.06.38-.09.58-.09.28,0,.56.06.81.19l.54.27c.81.4,1.75.51,2.64.29l1.34-.34c1.37-.34,2.44-1.41,2.78-2.79l.05-.2c.21-.82.94-1.39,1.78-1.39h1.85c.39,0,.78.13,1.09.37l1.52,1.13c.66.49.9,1.38.6,2.14l-.78,1.94c-.37.92-.37,1.92,0,2.84Z"/>
  <path d="M31.897,30.142l-1.813-2.267c-.286-.356-.773-.473-1.189-.288-.415.186-.653.629-.578,1.078l.151.906c.077.464.047.934-.079,1.375-.461-1.313-.5-2.748-.091-4.113l.464-1.546c.114-.382-.009-.796-.314-1.053s-.735-.305-1.091-.129l-1.121.561c-2.726,1.362-4.714,3.841-5.453,6.799-.191.763-.295,1.537-.311,2.314-.232-.67-.301-1.396-.181-2.116.075-.448-.162-.891-.577-1.076-.415-.188-.903-.068-1.188.285l-.267.333c-1.26,1.575-1.954,3.559-1.954,5.668,0,4.442,3.087,8.218,7.341,8.979.546.098,1.093.146,1.637.146,2.114,0,4.162-.729,5.793-2.094,2.051-1.717,3.228-4.233,3.228-6.905,0-2.482-.854-4.917-2.405-6.856ZM29.792,42.37c-1.596,1.334-3.705,1.883-5.795,1.513-3.298-.59-5.692-3.538-5.692-7.093,0-.74.119-1.472.347-2.168.38.994,1.009,1.892,1.849,2.592l.663.553c.319.265.767.306,1.128.104s.562-.604.503-1.015l-.238-1.671c-.155-1.084-.1-2.173.166-3.236.51-2.037,1.752-3.793,3.473-4.949-.468,2.261-.018,4.611,1.277,6.554.166.249.436.411.733.44.307.029.595-.076.806-.288.646-.647,1.099-1.448,1.328-2.311,1.267,1.585,1.964,3.574,1.964,5.603,0,2.078-.915,4.036-2.511,5.372Z"/>
  <circle cx="8.303" cy="45" r="1"/>
</svg>