<?xml version="1.0" encoding="UTF-8"?>
<svg id="Outline" xmlns="http://www.w3.org/2000/svg" version="1.1" viewBox="0 0 64 64">
  <!-- Generator: Adobe Illustrator 29.5.1, SVG Export Plug-In . SVG Version: 2.1.0 Build 141)  -->
  <path d="M52,7h-24c-1.65,0-3,1.35-3,3v19.18l-3.41.68c-.61.12-1.2.33-1.76.6l-2.72,1.37c-1.9.95-3.25,2.67-3.71,4.74l-.69,3.13c-.35,1.56-1.51,2.84-3.03,3.35-.52.18-.8.74-.63,1.27.14.42.53.68.95.68.1,0,.21-.02.32-.05,2.18-.73,3.84-2.57,4.34-4.82l.7-3.13c.32-1.47,1.29-2.71,2.64-3.38l2.73-1.37c.4-.2.82-.34,1.25-.43l3.02-.6v4.3l-4.62,3.7c-.24.19-.38.48-.38.78v8c0,.39.23.75.59.91.35.16.77.1,1.07-.16l5.94-5.2c.76-.66,1.91-.62,2.63.09.75.75.75,1.97,0,2.72l-4.94,4.93-2.24,2.25c-.94.94-2.2,1.46-3.54,1.46h-9.51c-.55,0-1,.45-1,1s.45,1,1,1h9.51c1.87,0,3.63-.73,4.95-2.05l.58-.57c.19,1.47,1.43,2.62,2.96,2.62h24c1.65,0,3-1.35,3-3V10c0-1.65-1.35-3-3-3ZM25,43.17l-3,2.63v-5.32l3-2.4v5.09ZM33,9h14v1c0,.55-.45,1-1,1h-12c-.55,0-1-.45-1-1v-1ZM37.18,55h-9.18c-.55,0-1-.45-1-1v-1.18c.32.11.65.18,1,.18h9.18c-.11.31-.18.65-.18,1s.07.69.18,1ZM40,55c-.55,0-1-.45-1-1s.45-1,1-1,1,.45,1,1-.45,1-1,1ZM53,54c0,.55-.45,1-1,1h-9.18c.11-.31.18-.65.18-1s-.07-.69-.18-1h9.18c.35,0,.69-.07,1-.18v1.18ZM53,50c0,.55-.45,1-1,1h-23.59l3.23-3.23c.16-.15.29-.33.42-.5.52.45,1.19.73,1.94.73h12c1.65,0,3-1.35,3-3v-22c0-1.65-1.35-3-3-3v-1c0-1.65-1.35-3-3-3h-6c-1.65,0-3,1.35-3,3v1c-1.65,0-3,1.35-3,3v18.72c-1.2-.78-2.74-.84-4-.16V10c0-.55.45-1,1-1h3v1c0,1.65,1.35,3,3,3h12c1.65,0,3-1.35,3-3v-1h3c.55,0,1,.45,1,1v40ZM46,22c.55,0,1,.45,1,1v22c0,.55-.45,1-1,1h-12c-.55,0-1-.45-1-1v-22c0-.55.45-1,1-1h12ZM36,20v-1c0-.55.45-1,1-1h6c.55,0,1,.45,1,1v1h-8Z"/>
  <path d="M36,36h1.333v7c0,.995,1.411,1.386,1.889.458l5.667-11c.16-.31.146-.681-.035-.979-.182-.298-.505-.479-.854-.479h-1.55l1.196-5.798c.061-.294-.014-.601-.204-.834-.19-.233-.475-.368-.775-.368h-4.444c-.469,0-.875.326-.976.783l-2.222,10c-.066.296.006.606.196.842.19.237.477.375.78.375ZM39.024,26h2.415l-1.196,5.798c-.061.294.014.601.204.834.19.233.475.368.775.368h1.138l-3.026,5.875v-3.875c0-.552-.448-1-1-1h-1.087l1.778-8Z"/>
</svg>