<?xml version="1.0" encoding="UTF-8"?>
<svg id="Outline" xmlns="http://www.w3.org/2000/svg" version="1.1" viewBox="0 0 64 64">
  <!-- Generator: Adobe Illustrator 29.5.1, SVG Export Plug-In . SVG Version: 2.1.0 Build 141)  -->
  <path d="M12,20h18c.552,0,1-.448,1-1s-.448-1-1-1H12c-.552,0-1,.448-1,1s.448,1,1,1Z"/>
  <path d="M12,24h18c.552,0,1-.448,1-1s-.448-1-1-1H12c-.552,0-1,.448-1,1s.448,1,1,1Z"/>
  <path d="M31,27c0-.552-.448-1-1-1H12c-.552,0-1,.448-1,1s.448,1,1,1h18c.552,0,1-.448,1-1Z"/>
  <path d="M54,30h-19v-12.78c.609-.549,1-1.337,1-2.22,0-1.654-1.346-3-3-3-1.302,0-2.402.839-2.816,2H10c-1.654,0-3,1.346-3,3v14c0,1.654,1.346,3,3,3h1v1c0,.647.667,1.163,1.316.949l5.846-1.949h10.838v13c0,1.654,1.346,3,3,3h13.838l5.846,1.949c.103.034.21.051.316.051.521,0,1-.443,1-1v-1h1c1.654,0,3-1.346,3-3v-14c0-1.654-1.346-3-3-3ZM33,14c.551,0,1,.449,1,1s-.449,1-1,1-1-.449-1-1,.449-1,1-1ZM18,32c-.107,0-.214.017-.316.051l-4.684,1.562v-2.613c0-.552-.448-1-1-1s-1,.448-1,1v1h-1c-.551,0-1-.449-1-1v-14c0-.551.449-1,1-1h20.184c.414,1.161,1.514,2,2.816,2v13c0,.551-.449,1-1,1h-14ZM55,47c0,.551-.449,1-1,1h-1v-1c0-.552-.448-1-1-1s-1,.448-1,1v2.613l-4.684-1.562c-.102-.034-.209-.051-.316-.051h-14c-.551,0-1-.449-1-1v-13h1c1.302,0,2.402-.839,2.816-2h19.184c.551,0,1,.449,1,1v14Z"/>
  <path d="M52,34h-18c-.552,0-1,.448-1,1s.448,1,1,1h18c.552,0,1-.448,1-1s-.448-1-1-1Z"/>
  <path d="M52,38h-18c-.552,0-1,.448-1,1s.448,1,1,1h18c.552,0,1-.448,1-1s-.448-1-1-1Z"/>
  <path d="M52,42h-18c-.552,0-1,.448-1,1s.448,1,1,1h18c.552,0,1-.448,1-1s-.448-1-1-1Z"/>
</svg>