<?xml version="1.0" encoding="UTF-8"?>
<svg id="Outline" xmlns="http://www.w3.org/2000/svg" version="1.1" viewBox="0 0 64 64">
  <!-- Generator: Adobe Illustrator 29.3.1, SVG Export Plug-In . SVG Version: 2.1.0 Build 151)  -->
  <path d="M21.88892,25c1.6543,0,3-1.3457,3-3s-1.3457-3-3-3-3,1.3457-3,3,1.3457,3,3,3ZM21.88892,21c.55127,0,1,.44873,1,1s-.44873,1-1,1-1-.44873-1-1,.44873-1,1-1Z"/>
  <path d="M10.88892,22c0,1.6543,1.3457,3,3,3s3-1.3457,3-3-1.3457-3-3-3-3,1.3457-3,3ZM14.88892,22c0,.55127-.44873,1-1,1s-1-.44873-1-1,.44873-1,1-1,1,.44873,1,1Z"/>
  <path d="M32.88892,22c0-1.6543-1.3457-3-3-3s-3,1.3457-3,3,1.3457,3,3,3,3-1.3457,3-3ZM28.88892,22c0-.55127.44873-1,1-1s1,.44873,1,1-.44873,1-1,1-1-.44873-1-1Z"/>
  <path d="M36.88892,22c0-3.85986-3.14014-7-7-7h-5c-.55225,0-1,.44775-1,1s.44775,1,1,1h5c2.75684,0,5,2.24316,5,5s-2.24316,5-5,5H13.88892c-.49658,0-.98242-.07227-1.44531-.21533-.35303-.10889-.74023-.01465-1.00195.24854l-2.55273,2.55273v-7.58594c0-2.75684,2.24316-5,5-5h3c.55225,0,1-.44775,1-1s-.44775-1-1-1h-3c-3.85986,0-7,3.14014-7,7v10c0,.4043.24365.76898.61713.92377.34772.14417.79987.0733,1.0899-.21674l3.85645-3.85596c.46875.09912.94971.14893,1.43652.14893h16c3.85986,0,7-3.14014,7-7Z"/>
  <path d="M56.81812,47.29297l-3.23389-3.23389c1.49219-2.0459,2.30469-4.51904,2.30469-7.05908,0-6.6167-5.3833-12-12-12s-12,5.3833-12,12,5.3833,12,12,12h12.22217c.4043,0,.76904-.24365.92383-.61719.15479-.37402.06934-.80371-.2168-1.08984ZM43.88892,47c-5.51416,0-10-4.48584-10-10s4.48584-10,10-10,10,4.48584,10,10c0,2.37354-.85254,4.67725-2.40039,6.48779-.33887.39697-.31592.98779.05322,1.35693l2.15527,2.15527h-9.80811Z"/>
  <path d="M47.88892,34c-1.6543,0-3,1.3457-3,3s1.3457,3,3,3,3-1.3457,3-3-1.3457-3-3-3ZM47.88892,38c-.55127,0-1-.44873-1-1s.44873-1,1-1,1,.44873,1,1-.44873,1-1,1Z"/>
  <path d="M39.88892,34c-1.6543,0-3,1.3457-3,3s1.3457,3,3,3,3-1.3457,3-3-1.3457-3-3-3ZM39.88892,38c-.55127,0-1-.44873-1-1s.44873-1,1-1,1,.44873,1,1-.44873,1-1,1Z"/>
  <circle cx="20.88892" cy="16" r="1"/>
</svg>