<?xml version="1.0" encoding="UTF-8"?>
<svg id="Outline" xmlns="http://www.w3.org/2000/svg" version="1.1" viewBox="0 0 64 64">
  <!-- Generator: Adobe Illustrator 29.5.1, SVG Export Plug-In . SVG Version: 2.1.0 Build 141)  -->
  <path d="M28.424,49.765l-3.895-.557c-.415-.059-.752-.375-.837-.785l-.398-1.906c1.395-1.088,2.372-2.687,2.635-4.517h.071c.881,0,1.714-.385,2.286-1.057s.817-1.561.674-2.44c-.109-.67-.464-1.257-.959-1.697v-3.806c0-3.309-2.691-6-6-6h-1c-.552,0-1,.447-1,1s.448,1,1,1h1c2.206,0,4,1.794,4,4v3.009c-.036-.001-.071-.009-.107-.009h-.275l-.724-1.447c-.128-.257-.36-.445-.638-.52-.275-.073-.572-.023-.811.135l-.647.431c-.968.646-2.269.516-3.091-.306-.391-.391-1.023-.391-1.414,0-.823.822-2.123.952-3.092.306l-.646-.431c-.238-.159-.535-.209-.811-.135-.277.074-.509.263-.638.52l-.724,1.447h-.275c-.036,0-.071.008-.107.009v-2.009c0-.532.208-1.034.587-1.413s.88-.587,1.413-.587c.552,0,1-.447,1-1,0-1.103.897-2,2-2,.552,0,1-.447,1-1s-.448-1-1-1c-1.896,0-3.489,1.327-3.898,3.101-.725.166-1.39.533-1.929,1.072-.756.756-1.173,1.761-1.173,2.827v2.806c-.496.44-.85,1.027-.959,1.698-.143.879.103,1.768.674,2.439s1.404,1.057,2.286,1.057h.071c.263,1.83,1.241,3.429,2.635,4.517l-.398,1.906c-.085.41-.422.727-.837.785l-3.895.557c-1.469.21-2.576,1.486-2.576,2.97v3.266c0,.553.448,1,1,1s1-.447,1-1v-3.266c0-.494.369-.92.859-.989l3.895-.557c1.245-.179,2.254-1.125,2.512-2.355l.268-1.283c.767.29,1.598.45,2.466.45s1.698-.16,2.466-.45l.268,1.283c.258,1.23,1.268,2.177,2.512,2.355l3.896.557c.489.069.858.495.858.989v3.266c0,.553.448,1,1,1s1-.447,1-1v-3.266c0-1.483-1.107-2.76-2.576-2.97ZM14,41c0-.553-.448-1-1-1,0,0-.998,0-1,0-.621,0-1.083-.569-.986-1.175.076-.463.556-.825,1.093-.825h.893c.379,0,.725-.214.895-.553l.5-1c1.452.811,3.236.729,4.605-.165,1.369.894,3.152.975,4.606.165l.5,1c.169.339.516.553.895.553h.893c.537,0,1.017.362,1.093.824.096.583-.389,1.176-.986,1.176h-1c-.552,0-1,.447-1,1,0,2.757-2.243,5-5,5s-5-2.243-5-5Z"/>
  <path d="M32,12.495c-1.366-.809-3.16-.623-4.332.549-1.389,1.389-1.389,3.649,0,5.038l3.625,3.625c.188.188.442.293.707.293s.52-.105.707-.293l3.625-3.625c1.389-1.389,1.389-3.649,0-5.038-1.171-1.172-2.965-1.357-4.332-.549ZM34.917,16.668l-2.917,2.918-2.917-2.918c-.609-.609-.609-1.601,0-2.21.305-.305.705-.457,1.105-.457s.8.152,1.105.457c.391.391,1.023.391,1.414,0,.61-.61,1.602-.608,2.21,0,.609.609.609,1.601,0,2.21Z"/>
  <path d="M42,17c0-5.514-4.486-10-10-10s-10,4.486-10,10v8c0,.363.197.697.514.874.316.175.705.168,1.014-.024l1.99-1.234c1.808,1.543,4.081,2.385,6.483,2.385,5.514,0,10-4.486,10-10ZM32,25c-2.137,0-4.146-.832-5.657-2.343-.193-.193-.449-.293-.708-.293-.181,0-.364.049-.527.15l-1.109.688v-6.203c0-4.411,3.589-8,8-8s8,3.589,8,8-3.589,8-8,8Z"/>
  <path d="M47,28.495c-1.366-.808-3.16-.622-4.332.549-1.389,1.389-1.389,3.649,0,5.038l3.625,3.625c.188.188.442.293.707.293s.52-.105.707-.293l3.625-3.625c1.389-1.389,1.389-3.649,0-5.038-1.172-1.171-2.965-1.356-4.332-.549ZM49.917,30.458c.609.609.609,1.601,0,2.21l-2.917,2.918-2.917-2.918c-.609-.609-.609-1.601,0-2.21.305-.305.705-.457,1.105-.457s.8.152,1.105.457c.391.391,1.023.391,1.414,0,.61-.61,1.602-.608,2.21,0Z"/>
  <path d="M56,36c-.552,0-1,.447-1,1v2.202l-1.113-.691c-.395-.244-.908-.185-1.237.145-1.502,1.512-3.509,2.345-5.65,2.345-4.411,0-8-3.589-8-8s3.589-8,8-8,8,3.589,8,8c0,.553.448,1,1,1s1-.447,1-1c0-5.514-4.486-10-10-10s-10,4.486-10,10,4.486,10,10,10c2.408,0,4.68-.843,6.48-2.388l1.992,1.237c.308.19.695.199,1.013.024.317-.177.514-.511.514-.874v-4c0-.553-.448-1-1-1Z"/>
</svg>