<?xml version="1.0" encoding="UTF-8"?>
<svg id="Outline" xmlns="http://www.w3.org/2000/svg" version="1.1" viewBox="0 0 64 64">
  <!-- Generator: Adobe Illustrator 29.5.1, SVG Export Plug-In . SVG Version: 2.1.0 Build 141)  -->
  <path d="M12.275,37.037c-.301-.086-.626-.026-.877.163-.25.189-.397.484-.397.798,0,8.271,6.729,15,15,15s15-6.729,15-15c0-.314-.147-.609-.397-.798-.251-.189-.577-.25-.877-.163-8.98,2.565-18.471,2.565-27.451,0ZM20.349,49.695c1.314-1.038,3.416-1.697,5.652-1.697s4.338.659,5.652,1.697c-1.711.83-3.626,1.303-5.652,1.303s-3.941-.473-5.652-1.303ZM33.471,48.616c-1.644-1.633-4.403-2.618-7.471-2.618s-5.827.985-7.471,2.618c-2.997-2.115-5.071-5.455-5.462-9.293,8.49,2.183,17.375,2.183,25.865,0-.39,3.838-2.465,7.178-5.462,9.293Z"/>
  <path d="M14.707,32.362c1.816-1.815,4.77-1.815,6.586,0,.195.195.451.293.706.293.865,0,1.321-1.094.708-1.707-2.596-2.596-6.818-2.596-9.414,0-.391.391-.391,1.023,0,1.414s1.023.391,1.414,0Z"/>
  <path d="M29.293,30.948c-.391.391-.391,1.023,0,1.414s1.023.391,1.414,0c1.816-1.815,4.77-1.815,6.586,0,.195.195.451.293.706.293.879,0,1.326-1.089.708-1.707-2.596-2.596-6.818-2.596-9.414,0Z"/>
  <path d="M56.707,41.291c-1.636-1.637-2.537-3.814-2.537-6.133v-.473c2.198-3.43,3.144-7.405,2.735-11.515-.83-8.474-7.587-15.235-16.065-16.078-8.502-.849-16.356,4.329-18.948,12.361-7.901,1.737-13.979,8.409-14.797,16.617-.427,4.342.577,8.542,2.905,12.166v.522c0,2.432-.986,4.812-2.707,6.533-.286.286-.372.716-.217,1.09.154.374.52.617.924.617h3.61c2.193,0,4.367-.66,6.188-1.868,2.577,1.24,5.33,1.868,8.192,1.868.652,0,1.351-.039,2.076-.116,8.153-.871,14.75-6.935,16.475-14.782.752-.241,1.492-.519,2.202-.859,1.72,1.137,3.772,1.757,5.847,1.757h3.41c.404,0,.77-.244.924-.617.155-.374.069-.804-.217-1.09ZM52.59,40.998c-1.881,0-3.665-.594-5.158-1.719-.309-.233-.724-.266-1.066-.086-.472.248-.959.471-1.458.668.002-.021.006-.04.008-.061.465-5.016-1.013-9.908-4.16-13.773-.347-.427-.979-.493-1.407-.144-.428.349-.492.979-.144,1.407,2.814,3.458,4.136,7.835,3.719,12.326-.74,7.999-7.078,14.424-15.069,15.278-.654.069-1.281.104-1.864.104-2.741,0-5.372-.645-7.819-1.917-.34-.178-.754-.144-1.061.087-1.573,1.18-3.526,1.83-5.5,1.83h-1.507c1.221-1.836,1.896-4.021,1.896-6.24v-.82c0-.197-.059-.39-.167-.554-2.189-3.293-3.14-7.138-2.748-11.117.747-7.497,6.397-13.575,13.683-14.967.011-.001.02-.004.031-.005.48-.091.967-.162,1.46-.211,3.115-.309,6.233.228,9.023,1.549.496.236,1.095.023,1.331-.476.237-.499.024-1.096-.476-1.332-3.095-1.466-6.55-2.063-10.002-1.736,2.602-6.577,9.291-10.726,16.506-10.005,7.532.749,13.535,6.755,14.273,14.284.372,3.75-.52,7.37-2.578,10.468-.108.164-.167.356-.167.553v.77c0,2.107.605,4.12,1.733,5.84h-1.313Z"/>
  <circle cx="37" cy="23.998" r="1"/>
</svg>