<?xml version="1.0" encoding="UTF-8"?>
<svg id="Outline" xmlns="http://www.w3.org/2000/svg" version="1.1" viewBox="0 0 64 64">
  <!-- Generator: Adobe Illustrator 29.5.1, SVG Export Plug-In . SVG Version: 2.1.0 Build 141)  -->
  <path d="M17,39.001c0-1.654-1.346-3-3-3s-3,1.346-3,3c0,.553.447,1,1,1s1-.447,1-1,.448-1,1-1,1,.448,1,1c0,1.008-.408,1.994-1.121,2.707l-2.586,2.586c-.286.286-.372.716-.217,1.09.154.374.52.617.924.617h4c.553,0,1-.447,1-1s-.447-1-1-1h-1.586l.879-.879c1.085-1.085,1.707-2.587,1.707-4.121Z"/>
  <path d="M30.242,36.031c-.538-.138-1.079.191-1.212.728l-2,8c-.135.535.191,1.078.727,1.212.51.127,1.078-.187,1.212-.728l2-8c.135-.535-.191-1.078-.728-1.212Z"/>
  <path d="M38,36.001h-4c-.553,0-1,.447-1,1s.447,1,1,1h2.719l-1.688,6.758c-.135.535.191,1.078.728,1.212.529.134,1.079-.198,1.212-.728l2-8c.075-.299.008-.615-.182-.857-.189-.243-.48-.385-.788-.385Z"/>
  <path d="M40,32.001H10c-1.65,0-3,1.35-3,3v16c0,.35.18.67.47.85.299.187.666.195.98.04l3.79-1.89h27.76c1.65,0,3-1.35,3-3v-12c0-1.65-1.35-3-3-3ZM41,47.001c0,.55-.45,1-1,1H12c-.16,0-.31.04-.45.11l-2.55,1.27v-14.38c0-.55.45-1,1-1h30c.55,0,1,.45,1,1v12Z"/>
  <path d="M25,37.001v8c0,.55-.45,1-1,1s-1-.45-1-1v-3h-3c-.55,0-1-.45-1-1v-4c0-.55.45-1,1-1s1,.45,1,1v3h2v-3c0-.55.45-1,1-1s1,.45,1,1Z"/>
  <path d="M54,12.001h-28c-1.654,0-3,1.346-3,3v12c0,1.654,1.346,3,3,3h25.764l3.789,1.895c.142.07.294.105.447.105.544,0,1-.459,1-1V15.001c0-1.654-1.346-3-3-3ZM55,29.382l-2.553-1.276c-.139-.069-.292-.105-.447-.105h-26c-.552,0-1-.448-1-1v-12c0-.552.448-1,1-1h28c.552,0,1,.448,1,1v14.382Z"/>
  <path d="M32,24.001h-3v-7c0-.553-.447-1-1-1s-1,.447-1,1v8c0,.553.447,1,1,1h4c.553,0,1-.447,1-1s-.447-1-1-1Z"/>
  <path d="M36,16.001c-.553,0-1,.447-1,1v8c0,.553.447,1,1,1s1-.447,1-1v-8c0-.553-.447-1-1-1Z"/>
  <path d="M44.242,16.031c-.537-.137-1.079.191-1.212.728l-1.03,4.119-1.03-4.119c-.134-.536-.679-.863-1.212-.728-.536.134-.862.677-.728,1.212l2,8c.111.445.511.758.97.758s.858-.312.97-.758l2-8c.135-.535-.191-1.078-.728-1.212Z"/>
  <path d="M52,18.001c.553,0,1-.447,1-1s-.447-1-1-1h-4c-.553,0-1,.447-1,1v8c0,.553.447,1,1,1h4c.553,0,1-.447,1-1s-.447-1-1-1h-3v-2h3c.553,0,1-.447,1-1s-.447-1-1-1h-3v-2h3Z"/>
</svg>