<?xml version="1.0" encoding="UTF-8"?>
<svg id="Outline" xmlns="http://www.w3.org/2000/svg" version="1.1" viewBox="0 0 64 64">
  <!-- Generator: Adobe Illustrator 29.5.1, SVG Export Plug-In . SVG Version: 2.1.0 Build 141)  -->
  <path d="M50.782,17.49c-2.9-3.13-7-4.75-11.28-4.46v-3.03c0-1.65-1.35-3-3-3H12.502c-1.65,0-3,1.35-3,3v44c0,1.65,1.35,3,3,3h24c1.65,0,3-1.35,3-3v-13.03c.33.02.65.03.98.03.61,0,1.22-.04,1.84-.11,6.17-.78,11.12-5.62,12.02-11.76.63-4.27-.67-8.51-3.56-11.64ZM11.502,10c0-.55.45-1,1-1h24c.55,0,1,.45,1,1v1.18c-.31-.11-.65-.18-1-.18H12.502c-.35,0-.69.07-1,.18v-1.18ZM37.502,54c0,.55-.45,1-1,1H12.502c-.55,0-1-.45-1-1v-1.18c.31.11.65.18,1,.18h24c.35,0,.69-.07,1-.18v1.18ZM37.502,50c0,.55-.45,1-1,1H12.502c-.55,0-1-.45-1-1V14c0-.55.45-1,1-1h24c.32,0,.59.16.77.39-6.19,1.49-10.77,7.21-10.77,13.92v12.69c0,.4.24.77.62.92.37.16.8.07,1.09-.21l1.48-1.48c.89-.9,2.3-1.04,3.42-.34,1.37.86,2.85,1.45,4.39,1.79v9.32ZM52.362,28.83c-.77,5.26-5.01,9.4-10.29,10.07-2.81.36-5.54-.24-7.91-1.71-.8-.5-1.69-.74-2.58-.74-1.11,0-2.21.39-3.08,1.15v-10.29c0-6.45,4.89-11.85,11.14-12.28,3.67-.25,7.19,1.14,9.67,3.82s3.59,6.32,3.05,9.98Z"/>
  <path d="M40.502,20.187c-2.396-1.761-5.791-1.558-7.957.607-2.388,2.389-2.388,6.275,0,8.663l7.25,7.25c.195.195.451.293.707.293s.512-.098.707-.293l7.25-7.25c2.388-2.388,2.388-6.274,0-8.663-2.165-2.166-5.562-2.369-7.957-.607ZM47.045,28.043l-6.542,6.542-6.542-6.542c-1.608-1.608-1.608-4.226,0-5.835.805-.804,1.861-1.207,2.918-1.207s2.113.402,2.917,1.207c.391.391,1.023.391,1.414,0,1.609-1.607,4.227-1.609,5.835,0s1.608,4.227,0,5.835Z"/>
  <path d="M18.502,43h-4c-.552,0-1,.448-1,1v4c0,.552.448,1,1,1h4c.552,0,1-.448,1-1v-4c0-.552-.448-1-1-1ZM17.502,47h-2v-2h2v2Z"/>
  <path d="M26.502,43h-4c-.552,0-1,.448-1,1v4c0,.552.448,1,1,1h4c.552,0,1-.448,1-1v-4c0-.552-.448-1-1-1ZM25.502,47h-2v-2h2v2Z"/>
  <path d="M29.502,44v4c0,.552.448,1,1,1h4c.552,0,1-.448,1-1v-4c0-.552-.448-1-1-1h-4c-.552,0-1,.448-1,1ZM31.502,45h2v2h-2v-2Z"/>
</svg>