<?xml version="1.0" encoding="UTF-8"?>
<svg id="Outline" xmlns="http://www.w3.org/2000/svg" version="1.1" viewBox="0 0 64 64">
  <!-- Generator: Adobe Illustrator 29.3.1, SVG Export Plug-In . SVG Version: 2.1.0 Build 151)  -->
  <path d="M57,40.99989v-18c0-.54999-.45001-1-1-1H18.56l-.95001-4.94c-.45996-2.35004-2.51996-4.06-4.90997-4.06h-4.70001c-.54999,0-1,.45001-1,1s.45001,1,1,1h4.70001c1.42999,0,2.66998,1.01996,2.94,2.42999l1.10999,5.73999v.03998l3.92999,20.43998c.3119,1.62218,1.81714,2.35006,3.32001,2.35006h30c.54999,0,1,.45001,1,1s-.45001,1-1,1h-28c-2.21002,0-4,1.78998-4,4s1.78998,4,4,4,4-1.79004,4-4c0-.73004-.21002-1.41003-.56-2h17.12c-.34998.58997-.56,1.26996-.56,2,0,2.20996,1.78998,4,4,4s4-1.79004,4-4c0-.73004-.21002-1.41003-.56-2h.56c1.65002,0,3-1.35004,3-3s-1.34998-3-3-3h-14.14001l16.26001-2.01001c.5-.06.88-.48999.88-.98999ZM26,53.99989c-1.09998,0-2-.90002-2-2,0-1.10004.90002-2,2-2s2,.89996,2,2c0,1.09998-.90002,2-2,2ZM50,53.99989c-1.09998,0-2-.90002-2-2,0-1.10004.90002-2,2-2s2,.89996,2,2c0,1.09998-.90002,2-2,2ZM55,40.11989l-31.45001,3.88c-.45001-.02002-.82001-.34003-.91998-.76001l-.21002-1.09003,32.58002-4.01996v1.98999ZM55,36.11989l-32.95001,4.07001-3.10999-16.19h36.06v12.12Z"/>
  <path d="M29,16.99989h10v2c0,.40425.24311.76896.61706.92377.34439.14258.79291.08032,1.08998-.21674l5-5c.39062-.39062.39062-1.02344,0-1.41406l-5-5c-.28613-.28613-.71484-.37109-1.08984-.2168-.37402.15479-.61719.51953-.61719.92383v2h-10c-.55273,0-1,.44775-1,1v4c0,.55225.44727,1,1,1ZM30,12.99989h10c.55273,0,1-.44775,1-1v-.58594l2.58594,2.58594-2.58594,2.58594v-.58594c0-.55225-.44727-1-1-1h-10v-2Z"/>
</svg>