<?xml version="1.0" encoding="UTF-8"?>
<svg id="Outline" xmlns="http://www.w3.org/2000/svg" version="1.1" viewBox="0 0 64 64">
  <!-- Generator: Adobe Illustrator 29.5.1, SVG Export Plug-In . SVG Version: 2.1.0 Build 141)  -->
  <path d="M22.445,22.168l-2.318,1.545-.42-.42c-.391-.391-1.023-.391-1.414,0s-.391,1.023,0,1.414l1,1c.193.193.449.293.707.293.192,0,.386-.055.555-.168l3-2c.46-.307.584-.927.277-1.387s-.926-.584-1.387-.277Z"/>
  <path d="M16,29h6.34c.553,0,1-.447,1-1s-.447-1-1-1h-5.34v-6h2c.553,0,1-.447,1-1s-.447-1-1-1h-3c-.553,0-1,.447-1,1v8c0,.553.447,1,1,1Z"/>
  <path d="M28,21h12c.553,0,1-.447,1-1s-.447-1-1-1h-12c-.553,0-1,.447-1,1s.447,1,1,1Z"/>
  <path d="M28,25h7c.553,0,1-.447,1-1s-.447-1-1-1h-7c-.553,0-1,.447-1,1s.447,1,1,1Z"/>
  <path d="M28,29h16c.553,0,1-.447,1-1s-.447-1-1-1h-16c-.553,0-1,.447-1,1s.447,1,1,1Z"/>
  <path d="M22.445,34.168l-2.318,1.545-.42-.42c-.391-.391-1.023-.391-1.414,0s-.391,1.023,0,1.414l1,1c.193.193.449.293.707.293.192,0,.386-.055.555-.168l3-2c.46-.307.584-.927.277-1.387s-.926-.584-1.387-.277Z"/>
  <path d="M22.34,39h-5.34v-6h2c.553,0,1-.447,1-1s-.447-1-1-1h-3c-.553,0-1,.447-1,1v8c0,.553.447,1,1,1h6.34c.553,0,1-.447,1-1s-.447-1-1-1Z"/>
  <path d="M28,33h12c.553,0,1-.447,1-1s-.447-1-1-1h-12c-.553,0-1,.447-1,1s.447,1,1,1Z"/>
  <path d="M28,37h7c.553,0,1-.447,1-1s-.447-1-1-1h-7c-.553,0-1,.447-1,1s.447,1,1,1Z"/>
  <path d="M49,37.2V14c0-1.65-1.35-3-3-3h-1v-1c0-1.61-1.28-2.91-2.87-2.99h-.06c-.02,0-.05-.01-.07-.01H11c-.13,0-.26.03-.37.07-2.06.36-3.63,2.14-3.63,4.3v38.63c0,1.65,1.35,3,3,3h1v1c0,1.65,1.35,3,3,3h32c.12,0,.23-.02.34-.03.22.01.44.03.66.03,5.51,0,10-4.49,10-10,0-4.83-3.44-8.87-8-9.8ZM42.09,9.02c.51.05.91.46.91.98v1h-7.35l6.44-1.98ZM35.35,9l-18.64,5.73-1.1-4.42c-.12-.48-.32-.92-.57-1.31h20.31ZM11,14v37h-1c-.55,0-1-.45-1-1V11.37c0-1.31,1.06-2.37,2.37-2.37,1.09,0,2.03.74,2.3,1.79l.06.24c-1.53.14-2.73,1.41-2.73,2.97ZM14,55c-.55,0-1-.45-1-1V14c0-.55.45-1,1-1h.22l.81,3.24c.07.27.24.5.48.63.15.09.32.13.49.13.1,0,.2-.01.29-.04l12.86-3.96h16.85c.55,0,1,.45,1,1v23c-2.24,0-4.3.75-5.97,2h-13.03c-.55,0-1,.45-1,1s.45,1,1,1h11.02c-1.26,1.67-2.02,3.75-2.02,6,0,3.27,1.59,6.17,4.03,8H14ZM47,55c-4.41,0-8-3.59-8-8s3.59-8,8-8,8,3.59,8,8-3.59,8-8,8Z"/>
  <path d="M48,44.184v-2.184c0-.553-.447-1-1-1s-1,.447-1,1v2.184c-1.161.414-2,1.514-2,2.816,0,.187.022.368.055.545l-1.885,1.089c-.478.276-.643.888-.366,1.366.272.471.897.637,1.366.366l1.894-1.094c.524.447,1.195.727,1.936.727,1.654,0,3-1.346,3-3,0-1.302-.839-2.402-2-2.816ZM47,48c-.552,0-1-.448-1-1s.448-1,1-1,1,.448,1,1-.448,1-1,1Z"/>
</svg>