<?xml version="1.0" encoding="UTF-8"?>
<svg id="Outline" xmlns="http://www.w3.org/2000/svg" version="1.1" viewBox="0 0 64 64">
  <!-- Generator: Adobe Illustrator 29.0.0, SVG Export Plug-In . SVG Version: 2.1.0 Build 186)  -->
  <path d="M56.4727,14.32996c-3.97003,2.70001-7.78003,5.69-11.39001,8.90002v1.53003c0,.54999-.45001,1-1,1-.46002,0-.83002-.32001-.95001-.74005-.77997.73004-1.57001,1.46002-2.33997,2.21002-4.80005,4.73999-9.22003,9.96002-13.12,15.52002l-.94,1.32996c-.19.26001-.5.42004-.82001.42004h-.02002c-.33002-.01001-.64001-.17999-.82001-.45001l-.72998-1.12c-3.26001-5.01001-7.69-9.29999-12.78003-12.41003-.26001-.15997-.44-.42999-.46997-.72998-.04004-.31.07001-.60999.27997-.83002l4.48004-4.47998c.32001-.31.79999-.38,1.19-.16998l8.63995,4.70001,2.33002-2.66003c.35999-.41998.98999-.45996,1.41003-.08997.40997.35999.45996.98999.08997,1.40997l-2.84998,3.26001c-.31.34998-.82001.44-1.23004.21997l-8.69-4.71997-3.06995,3.06c4.85999,3.17999,9.07996,7.38,12.26996,12.22998l.09003-.13c3.96997-5.64996,8.46997-10.95996,13.35999-15.77997,1.28003-1.27002,2.59998-2.48999,3.94-3.70001.04999-.04999.10999-.09998.16998-.14001,2.95001-2.64996,6.04004-5.14996,9.23999-7.46997h-6.70996c-5.17999,2.62-9.84003,6.06-13.87,10.22998-.38.39001-1.02002.40002-1.41003.02002-.39996-.38-.40997-1.02002-.02997-1.42004,2.98999-3.08997,6.32996-5.78998,9.95001-8.07996-.22003-.17999-.36005-.44-.36005-.75,0-.54999.44-1,1-1h.77002c.40002,0,.78003.08997,1.14001.22998.70001-.39001,1.39996-.76001,2.12-1.12.14001-.07001.28998-.10999.45001-.10999h10.12c.44,0,.82996.28998.95996.70996.13.41003-.02997.87-.39996,1.12Z"/>
  <path d="M8.08268,45.38965c.55273,0,1-.44727,1-1v-3.88965c0-.55273-.44727-1-1-1s-1,.44727-1,1v3.88965c0,.55273.44727,1,1,1Z"/>
  <path d="M8.08268,37.60938c.55273,0,1-.44727,1-1v-3.88965c0-.55273-.44727-1-1-1s-1,.44727-1,1v3.88965c0,.55273.44727,1,1,1Z"/>
  <path d="M8.08268,22.0498c.55273,0,1-.44727,1-1v-3.89062c0-.55273-.44727-1-1-1s-1,.44727-1,1v3.89062c0,.55273.44727,1,1,1Z"/>
  <path d="M10.17253,15.5h3.89062c.55273,0,1-.44727,1-1s-.44727-1-1-1h-3.89062c-.55273,0-1,.44727-1,1s.44727,1,1,1Z"/>
  <path d="M8.08268,29.8291c.55273,0,1-.44727,1-1v-3.88965c0-.55273-.44727-1-1-1s-1,.44727-1,1v3.88965c0,.55273.44727,1,1,1Z"/>
  <path d="M33.51335,15.5h3.88965c.55273,0,1-.44727,1-1s-.44727-1-1-1h-3.88965c-.55273,0-1,.44727-1,1s.44727,1,1,1Z"/>
  <path d="M17.9528,15.5h3.89062c.55273,0,1-.44727,1-1s-.44727-1-1-1h-3.89062c-.55273,0-1,.44727-1,1s.44727,1,1,1Z"/>
  <path d="M25.73307,15.5h3.88965c.55273,0,1-.44727,1-1s-.44727-1-1-1h-3.88965c-.55273,0-1,.44727-1,1s.44727,1,1,1Z"/>
  <path d="M44.08268,35.43066c-.55273,0-1,.44727-1,1v3.88965c0,.55273.44727,1,1,1s1-.44727,1-1v-3.88965c0-.55273-.44727-1-1-1Z"/>
  <path d="M44.08268,43.21094c-.55273,0-1,.44727-1,1v3.88965c0,.55273.44727,1,1,1s1-.44727,1-1v-3.88965c0-.55273-.44727-1-1-1Z"/>
  <path d="M10.61198,49.5h-.5293c-.55176,0-1-.44824-1-1v-.21973c0-.55273-.44727-1-1-1s-1,.44727-1,1v.21973c0,1.6543,1.3457,3,3,3h.5293c.55273,0,1-.44727,1-1s-.44727-1-1-1Z"/>
  <path d="M44.08268,27.65039c-.55273,0-1,.44727-1,1v3.88965c0,.55273.44727,1,1,1s1-.44727,1-1v-3.88965c0-.55273-.44727-1-1-1Z"/>
  <path d="M41.7321,49.5h-3.88965c-.55273,0-1,.44727-1,1s.44727,1,1,1h3.88965c.55273,0,1-.44727,1-1s-.44727-1-1-1Z"/>
  <path d="M18.39225,49.5h-3.89062c-.55273,0-1,.44727-1,1s.44727,1,1,1h3.89062c.55273,0,1-.44727,1-1s-.44727-1-1-1Z"/>
  <path d="M26.17253,49.5h-3.89062c-.55273,0-1,.44727-1,1s.44727,1,1,1h3.89062c.55273,0,1-.44727,1-1s-.44727-1-1-1Z"/>
  <path d="M33.9528,49.5h-3.89062c-.55273,0-1,.44727-1,1s.44727,1,1,1h3.89062c.55273,0,1-.44727,1-1s-.44727-1-1-1Z"/>
</svg>