<?xml version="1.0" encoding="UTF-8"?>
<svg id="Outline" xmlns="http://www.w3.org/2000/svg" version="1.1" viewBox="0 0 64 64">
  <!-- Generator: Adobe Illustrator 29.5.1, SVG Export Plug-In . SVG Version: 2.1.0 Build 141)  -->
  <path d="M48,14h-5c0-1.65-1.35-3-3-3h-1v-1c0-1.65-1.35-3-3-3h-8c-1.65,0-3,1.35-3,3v1h-1c-1.65,0-3,1.35-3,3h-5c-1.65,0-3,1.35-3,3v37c0,1.65,1.35,3,3,3h32c1.65,0,3-1.35,3-3V17c0-1.65-1.35-3-3-3ZM27,10c0-.55.45-1,1-1h8c.55,0,1,.45,1,1v1h-10v-1ZM23,14c0-.55.45-1,1-1h16c.55,0,1,.45,1,1v2c0,.55-.45,1-1,1h-16c-.55,0-1-.45-1-1v-2ZM17,55h-1c-.55,0-1-.45-1-1V17c0-.55.45-1,1-1h1v39ZM45,55h-26V16h2c0,1.65,1.35,3,3,3h16c1.65,0,3-1.35,3-3h2v39ZM49,54c0,.55-.45,1-1,1h-1V16h1c.55,0,1,.45,1,1v37Z"/>
  <path d="M23.293,26.707c.195.195.451.293.707.293s.512-.098.707-.293l4-4c.391-.391.391-1.023,0-1.414s-1.023-.391-1.414,0l-3.293,3.293-1.293-1.293c-.391-.391-1.023-.391-1.414,0s-.391,1.023,0,1.414l2,2Z"/>
  <path d="M42,25h-10c-.553,0-1,.448-1,1s.447,1,1,1h10c.553,0,1-.448,1-1s-.447-1-1-1Z"/>
  <path d="M32,23h6c.553,0,1-.448,1-1s-.447-1-1-1h-6c-.553,0-1,.448-1,1s.447,1,1,1Z"/>
  <path d="M23.293,34.707c.195.195.451.293.707.293s.512-.098.707-.293l4-4c.391-.391.391-1.023,0-1.414s-1.023-.391-1.414,0l-3.293,3.293-1.293-1.293c-.391-.391-1.023-.391-1.414,0s-.391,1.023,0,1.414l2,2Z"/>
  <path d="M42,33h-10c-.553,0-1,.448-1,1s.447,1,1,1h10c.553,0,1-.448,1-1s-.447-1-1-1Z"/>
  <path d="M32,31h6c.553,0,1-.448,1-1s-.447-1-1-1h-6c-.553,0-1,.448-1,1s.447,1,1,1Z"/>
  <path d="M23.293,42.707c.195.195.451.293.707.293s.512-.098.707-.293l4-4c.391-.391.391-1.023,0-1.414s-1.023-.391-1.414,0l-3.293,3.293-1.293-1.293c-.391-.391-1.023-.391-1.414,0s-.391,1.023,0,1.414l2,2Z"/>
  <path d="M42,41h-10c-.553,0-1,.448-1,1s.447,1,1,1h10c.553,0,1-.448,1-1s-.447-1-1-1Z"/>
  <path d="M32,39h6c.553,0,1-.448,1-1s-.447-1-1-1h-6c-.553,0-1,.448-1,1s.447,1,1,1Z"/>
  <path d="M42,45h-20c-.553,0-1,.448-1,1v6c0,.552.447,1,1,1h20c.553,0,1-.448,1-1v-6c0-.552-.447-1-1-1ZM41,51h-18v-4h18v4Z"/>
</svg>