<?xml version="1.0" encoding="UTF-8"?>
<svg id="Outline" xmlns="http://www.w3.org/2000/svg" version="1.1" viewBox="0 0 64 64">
  <!-- Generator: Adobe Illustrator 29.5.1, SVG Export Plug-In . SVG Version: 2.1.0 Build 141)  -->
  <path d="M32,13h2c.553,0,1-.448,1-1s-.447-1-1-1h-2c-.553,0-1,.448-1,1s.447,1,1,1Z"/>
  <path d="M22,13h2c.553,0,1-.448,1-1s-.447-1-1-1h-2c-.553,0-1,.448-1,1s.447,1,1,1Z"/>
  <circle cx="28" cy="12" r="1"/>
  <path d="M23.832,22.445c-.307-.46-.926-.584-1.387-.277l-2.318,1.545-.42-.42c-.391-.391-1.023-.391-1.414,0s-.391,1.023,0,1.414l1,1c.193.193.449.293.707.293.192,0,.386-.055.555-.168l3-2c.46-.306.584-.927.277-1.387Z"/>
  <path d="M22.34,27h-5.34v-6h2c.553,0,1-.448,1-1s-.447-1-1-1h-3c-.553,0-1,.448-1,1v8c0,.552.447,1,1,1h6.34c.553,0,1-.448,1-1s-.447-1-1-1Z"/>
  <path d="M19,33c.553,0,1-.448,1-1s-.447-1-1-1h-3c-.553,0-1,.448-1,1v8c0,.552.447,1,1,1h6.34c.553,0,1-.448,1-1s-.447-1-1-1h-5.34v-6h2Z"/>
  <path d="M28,21h8c.553,0,1-.448,1-1s-.447-1-1-1h-8c-.553,0-1,.448-1,1s.447,1,1,1Z"/>
  <path d="M40,23h-12c-.553,0-1,.448-1,1s.447,1,1,1h12c.553,0,1-.448,1-1s-.447-1-1-1Z"/>
  <path d="M40,27h-12c-.553,0-1,.448-1,1s.447,1,1,1h12c.553,0,1-.448,1-1s-.447-1-1-1Z"/>
  <path d="M28,33h8c.553,0,1-.448,1-1s-.447-1-1-1h-8c-.553,0-1,.448-1,1s.447,1,1,1Z"/>
  <path d="M28,37h12c.553,0,1-.448,1-1s-.447-1-1-1h-12c-.553,0-1,.448-1,1s.447,1,1,1Z"/>
  <path d="M46.236,45h2.764c.553,0,1-.448,1-1s-.447-1-1-1h-1v-1c0-.552-.447-1-1-1s-1,.448-1,1v1.024c-1.121.12-2,1.06-2,2.212,0,.853.474,1.619,1.236,2l2.633,1.316c.081.04.131.121.131.211,0,.13-.106.236-.236.236h-2.764c-.553,0-1,.448-1,1s.447,1,1,1h1v1c0,.552.447,1,1,1s1-.448,1-1v-1.024c1.121-.12,2-1.06,2-2.212,0-.853-.474-1.619-1.236-2l-2.633-1.316c-.081-.04-.131-.121-.131-.211,0-.13.106-.236.236-.236Z"/>
  <path d="M49,37.2v-15.2c0-.55-.45-1-1-1s-1,.45-1,1v15c-.68,0-1.35.07-2,.2v-7.2c0-.55-.45-1-1-1s-1,.45-1,1v7.84c-.84.37-1.63.85-2.33,1.43-.18-.17-.41-.27-.67-.27h-12c-.55,0-1,.45-1,1s.45,1,1,1h11.02c-1.26,1.67-2.02,3.75-2.02,6,0,3.27,1.59,6.17,4.03,8H13V13h4v1c0,1.65,1.35,3,3,3h16c1.65,0,3-1.35,3-3v-1h4v13c0,.55.45,1,1,1s1-.45,1-1v-14c0-.55-.45-1-1-1h-5v-2h7c.55,0,1,.45,1,1v8c0,.55.45,1,1,1s1-.45,1-1v-8c0-1.65-1.35-3-3-3H10c-1.65,0-3,1.35-3,3v44c0,1.65,1.35,3,3,3h36c.12,0,.23-.02.35-.03.21.01.43.03.65.03,5.51,0,10-4.49,10-10,0-4.83-3.44-8.87-8-9.8ZM19,9h18v5c0,.55-.45,1-1,1h-16c-.55,0-1-.45-1-1v-5ZM11,12v43h-1c-.55,0-1-.45-1-1V10c0-.55.45-1,1-1h7v2h-5c-.55,0-1,.45-1,1ZM47,55c-4.41,0-8-3.59-8-8s3.59-8,8-8,8,3.59,8,8-3.59,8-8,8Z"/>
</svg>