<?xml version="1.0" encoding="UTF-8"?>
<svg id="Outline" xmlns="http://www.w3.org/2000/svg" version="1.1" viewBox="0 0 64 64">
  <!-- Generator: Adobe Illustrator 29.5.1, SVG Export Plug-In . SVG Version: 2.1.0 Build 141)  -->
  <path d="M55.593,35.955c-2.048-.211-3.593-1.911-3.593-3.955s1.544-3.744,3.593-3.955c.282-.029.538-.177.705-.405s.229-.518.171-.795c-2.41-11.499-12.701-19.845-24.469-19.845-5.24,0-10.254,1.604-14.501,4.637-.45.32-.554.945-.233,1.395s.945.554,1.395.232c3.906-2.789,8.518-4.264,13.339-4.264,10.489,0,19.703,7.205,22.283,17.272-1.058.313-1.973.914-2.692,1.694-1.871-9.101-9.944-15.966-19.591-15.966s-17.72,6.865-19.591,15.966c-.719-.78-1.634-1.381-2.692-1.694.701-2.743,1.892-5.3,3.546-7.61.322-.449.218-1.073-.231-1.396-.449-.321-1.074-.217-1.395.231-2.013,2.812-3.395,5.956-4.106,9.347-.059.277.004.565.171.795.167.229.423.376.705.405,2.048.211,3.593,1.911,3.593,3.955s-1.544,3.744-3.593,3.955c-.282.029-.538.177-.705.405s-.229.518-.171.795c2.41,11.499,12.701,19.845,24.469,19.845s22.059-8.346,24.469-19.845c.058-.277-.004-.566-.171-.795s-.423-.376-.705-.405ZM45.396,43.981l-.667-.667c-.391-.391-1.023-.391-1.414,0s-.391,1.023,0,1.414l.667.667c-2.953,2.644-6.773,4.321-10.981,4.554v-.949c0-.553-.448-1-1-1s-1,.447-1,1v.949c-4.209-.233-8.029-1.91-10.981-4.554l.667-.667c.391-.391.391-1.023,0-1.414s-1.023-.391-1.414,0l-.667.667c-2.644-2.953-4.321-6.773-4.554-10.981h.949c.552,0,1-.447,1-1s-.448-1-1-1h-.949c.233-4.208,1.91-8.028,4.554-10.981l.667.667c.372.372,1.021.393,1.414,0,.391-.391.391-1.023,0-1.414l-.667-.667c2.953-2.644,6.773-4.321,10.981-4.554v.949c0,.553.448,1,1,1s1-.447,1-1v-.949c4.209.233,8.029,1.91,10.981,4.554l-.667.667c-.391.391-.391,1.023,0,1.414.363.363,1.031.384,1.414,0l.667-.667c2.644,2.953,4.321,6.773,4.554,10.981h-.949c-.552,0-1,.447-1,1s.448,1,1,1h.949c-.233,4.208-1.91,8.028-4.554,10.981ZM32,55c-10.489,0-19.703-7.205-22.283-17.272,1.058-.313,1.973-.914,2.692-1.694,1.871,9.101,9.944,15.966,19.591,15.966s17.72-6.865,19.591-15.966c.719.78,1.634,1.381,2.692,1.694-2.58,10.067-11.793,17.272-22.283,17.272Z"/>
  <path d="M32,35c1.654,0,3-1.346,3-3,0-1.302-.839-2.402-2-2.816v-10.184c0-.553-.448-1-1-1s-1,.447-1,1v10.184c-1.161.414-2,1.514-2,2.816,0,1.654,1.346,3,3,3ZM32,31c.551,0,1,.448,1,1s-.449,1-1,1-1-.448-1-1,.449-1,1-1Z"/>
  <path d="M38,38h-5v-1c0-.369-.203-.708-.528-.882-.325-.175-.72-.154-1.026.05l-6,4c-.278.186-.445.498-.445.832s.167.646.445.832l6,4c.167.111.361.168.555.168.548,0,1-.453,1-1v-1h5c.552,0,1-.447,1-1v-4c0-.553-.448-1-1-1ZM37,42h-5c-.552,0-1,.447-1,1v.132l-3.197-2.132,3.197-2.132v.132c0,.553.448,1,1,1h5v2Z"/>
  <path d="M15.737,15.737c.391-.391.391-1.024,0-1.414s-1.024-.391-1.414,0c-.391.391-.391,1.024,0,1.414.391.391,1.024.391,1.414,0Z"/>
</svg>