<?xml version="1.0" encoding="UTF-8"?>
<svg id="Outline" xmlns="http://www.w3.org/2000/svg" version="1.1" viewBox="0 0 64 64">
  <!-- Generator: Adobe Illustrator 29.0.0, SVG Export Plug-In . SVG Version: 2.1.0 Build 186)  -->
  <path d="M56.66876,16.32996c-6.19,4.23004-12,9.01001-17.26996,14.21002-5.30005,5.23999-10.16003,10.97998-14.44,17.07001l-1.03003,1.46997c-.19.26001-.5.42004-.83997.42004-.33002-.01001-.63-.17004-.82001-.45001l-.81-1.22998c-1.67999-2.58002-3.63-4.98004-5.80005-7.14001-.38995-.39001-.38995-1.02002,0-1.41998.39001-.39001,1.02002-.39001,1.42004,0,1.78998,1.78998,3.44,3.73999,4.91998,5.81v-10.58002l-9-4.89001-3.52002,3.51001c1.63,1.06,3.16003,2.19,4.58002,3.39001.41994.34994.47002.97984.1101,1.39982-.33214.38757-.98371.49033-1.40008.12013-1.65002-1.37994-3.46002-2.69-5.40002-3.87994-.26001-.16003-.44-.43005-.46997-.73004-.04004-.31.06995-.60999.27997-.83002l4.92999-4.92999c.32001-.31.79999-.38,1.19-.16998l9.58002,5.21002,3.5-4.03003c1.39001-1.59998,2.88-3.14001,4.44-4.57001.40997-.37,1.03998-.33997,1.41998.06.37.41003.34003,1.04004-.06,1.42004-1.51001,1.38-2.95001,2.85999-4.28998,4.40997l-3.90002,4.47998c0,.01001.01001.03003.01001.04004v11.03998c4.17999-5.83997,8.88-11.37,14-16.41998,4.59998-4.54999,9.62-8.78003,14.95001-12.62h-7.73999c-3.56,1.79999-6.92999,3.97998-10.04004,6.48999-.42999.33997-1.06.27997-1.40997-.15002-.34003-.42999-.28003-1.06.14996-1.40997,3.28003-2.65002,6.85004-4.95001,10.61005-6.82001.13995-.07001.28998-.10999.44995-.10999h11.14001c.44,0,.83002.28998.96002.70001.12.41998-.03003.87994-.40002,1.12994Z"/>
</svg>