<?xml version="1.0" encoding="UTF-8"?>
<svg id="Outline" xmlns="http://www.w3.org/2000/svg" version="1.1" viewBox="0 0 48 48">
  <!-- Generator: Adobe Illustrator 29.0.0, SVG Export Plug-In . SVG Version: 2.1.0 Build 186)  -->
  <path d="M35.00088,37h-6c-.55273,0-1,.44775-1,1s.44727,1,1,1h3.18427c-.11206.31433-.18427.64764-.18427,1,0,1.6543,1.3457,3,3,3s3-1.3457,3-3-1.3457-3-3-3ZM35.00088,41c-.55176,0-1-.44873-1-1s.44824-1,1-1,1,.44873,1,1-.44824,1-1,1Z"/>
  <path d="M42.79086,17.38c-.19-.23999-.47998-.38-.78998-.38h-9.10999c1.29999-1.27002,2.10999-3.04004,2.10999-5,0-3.85999-3.14001-7-7-7s-7,3.14001-7,7c0,1.95996.81,3.72998,2.10999,5h-5.10999c-.54999,0-1,.45001-1,1s.45001,1,1,1h1.16998l1.13,6h-3.51996l-3.56006-14.23999c-.10999-.45001-.50995-.76001-.96997-.76001h-6.25c-.54999,0-1,.45001-1,1s.45001,1,1,1h5.46997l5.26001,21.02997c-.03203-.12806-1.12407.3129-1.2223.36806-.92464.51927-1.50768,1.54877-1.50768,2.60197,0,1.38.95001,2.53998,2.21997,2.88-.13995.34998-.21997.72998-.21997,1.12,0,1.64996,1.34998,3,3,3s3-1.35004,3-3c0-.35004-.07001-.69-.17999-1h3.17999c.54999,0,1-.45001,1-1s-.45001-1-1-1h-8c-.54991,0-.99988-.44989-1-.99977-.00012-.53834.46423-1.00023,1-1.00023h21c.46002,0,.85999-.31.96997-.76001l4-16c.07001-.29999.01001-.60999-.17999-.85999ZM19.00088,39c.54999,0,1,.45001,1,1s-.45001,1-1,1-1-.45001-1-1,.45001-1,1-1ZM18.78091,33l-1.5-6h3.38995l1.13,6h-3.01996ZM27.00088,33h-3.16998l-1.13-6h4.29999v6ZM27.00088,25h-4.66998l-1.13-6h5.79999v6ZM23.00088,12c0-2.76001,2.23999-5,5-5s5,2.23999,5,5-2.23999,5-5,5-5-2.23999-5-5ZM32.17086,33h-3.16998v-6h4.29999l-1.13,6ZM29.00088,25v-6h5.79999l-1.13,6h-4.66998ZM37.22085,33h-3.01996l1.13-6h3.38995l-1.5,6ZM39.22085,25h-3.51996l1.13-6h3.88995l-1.5,6Z"/>
  <path d="M29.44619,10.16797l-2.31836,1.54541-.41992-.42041c-.39062-.39062-1.02344-.39062-1.41406,0s-.39062,1.02344,0,1.41406l1,1c.19336.19336.44922.29297.70703.29297.19238,0,.38574-.05518.55469-.16797l3-2c.45996-.30615.58398-.92725.27734-1.38672-.30566-.45996-.92676-.58447-1.38672-.27734Z"/>
</svg>