<?xml version="1.0" encoding="UTF-8"?>
<svg id="Outline" xmlns="http://www.w3.org/2000/svg" version="1.1" viewBox="0 0 64 64">
  <!-- Generator: Adobe Illustrator 29.5.1, SVG Export Plug-In . SVG Version: 2.1.0 Build 141)  -->
  <path d="M25,43h-15c-.552,0-1-.448-1-1v-14c0-.553-.447-1-1-1s-1,.447-1,1v14c0,1.654,1.346,3,3,3h15c.553,0,1-.447,1-1s-.447-1-1-1Z"/>
  <path d="M54,7H10c-1.65,0-3,1.35-3,3v14c0,.55.45,1,1,1s1-.45,1-1v-14c0-.55.45-1,1-1h44c.55,0,1,.45,1,1v32c0,.55-.45,1-1,1h-1v-19c0-.33-.16-.63-.43-.82s-.61-.23-.92-.12c-5.17,1.94-8.65,6.96-8.65,12.48v7.46h-14c-.55,0-1,.45-1,1s.45,1,1,1h14v1c0,.55.45,1,1,1h3v7c0,1.65,1.35,3,3,3s3-1.35,3-3v-9h1c1.65,0,3-1.35,3-3V10c0-1.65-1.35-3-3-3ZM51,54c0,.55-.45,1-1,1s-1-.45-1-1v-7h2v7ZM51,45h-6v-9.46c0-4.19,2.36-8.04,6-9.99v19.45Z"/>
  <path d="M17,38V14c0-1.654-1.346-3-3-3s-3,1.346-3,3v24c0,1.654,1.346,3,3,3s3-1.346,3-3ZM13,38V14c0-.552.448-1,1-1s1,.448,1,1v24c0,.552-.448,1-1,1s-1-.448-1-1Z"/>
  <path d="M25,23c.045,0,.089-.006.133-.007.012,0,.022.007.034.007h21.833c3.309,0,6-2.691,6-6s-2.691-6-6-6h-22c-3.309,0-6,2.691-6,6s2.691,6,6,6ZM51,17c0,2.206-1.794,4-4,4h-17.54c.954-1.063,1.54-2.462,1.54-4s-.586-2.937-1.54-4h17.54c2.206,0,4,1.794,4,4ZM25,13c2.206,0,4,1.794,4,4s-1.794,4-4,4-4-1.794-4-4,1.794-4,4-4Z"/>
  <path d="M25,37c.874,0,1.724-.196,2.498-.554.763.352,1.608.554,2.502.554.874,0,1.724-.196,2.498-.554.763.352,1.608.554,2.502.554,3.309,0,6-2.691,6-6s-2.691-6-6-6c-.894,0-1.739.202-2.502.554-.774-.357-1.624-.554-2.498-.554-.894,0-1.739.202-2.502.554-.774-.357-1.624-.554-2.498-.554-3.309,0-6,2.691-6,6s2.691,6,6,6ZM39,31c0,2.206-1.794,4-4,4s-4-1.794-4-4,1.794-4,4-4,4,1.794,4,4ZM30.51,27.033c-.937,1.059-1.51,2.445-1.51,3.967s.574,2.908,1.51,3.967c-.168.021-.339.033-.51.033-2.206,0-4-1.794-4-4s1.794-4,4-4c.172,0,.342.012.51.033ZM25,27c.172,0,.342.012.51.033-.937,1.059-1.51,2.445-1.51,3.967s.574,2.908,1.51,3.967c-.168.021-.339.033-.51.033-2.206,0-4-1.794-4-4s1.794-4,4-4Z"/>
</svg>