<?xml version="1.0" encoding="UTF-8"?>
<svg id="Outline" xmlns="http://www.w3.org/2000/svg" version="1.1" viewBox="0 0 64 64">
  <!-- Generator: Adobe Illustrator 29.5.1, SVG Export Plug-In . SVG Version: 2.1.0 Build 141)  -->
  <path d="M49.68,15.32c-4.74-4.72-11.01-7.32-17.68-7.32-.27,0-.52.11-.71.29,0,0-23.993,23.993-24,24-.16.16-.255.422-.28.65,0,.02-.01.04-.01.06v4c0,.55.45,1,1,1,1.65,0,3,1.35,3,3s-1.35,3-3,3c-.55,0-1,.45-1,1v10c0,.55.45,1,1,1h5.55c.36,0,.69-.19.87-.5.17-.31.17-.69,0-1-.28-.48-.42-.98-.42-1.5,0-1.65,1.35-3,3-3s3,1.35,3,3c0,.52-.14,1.02-.42,1.5-.17.31-.17.69,0,1,.18.31.51.5.87.5h9.55c.55,0,1-.45,1-1s-.45-1-1-1h-8.11c.07-.33.11-.67.11-1,0-2.76-2.24-5-5-5s-5,2.24-5,5c0,.33.04.67.11,1h-3.11v-8.1c2.28-.46,4-2.49,4-4.9s-1.72-4.44-4-4.9v-2.1h15c0,2.76,2.24,5,5,5s5-2.24,5-5h9c.55,0,1-.45,1-1s-.45-1-1-1H10.41l14.98-14.97c.71.61,1.62.97,2.61.97,2.21,0,4-1.79,4-4,0-.99-.36-1.9-.97-2.61l1.38-1.39c1.23.02,2.44.17,3.63.38-.02.2-.04.41-.04.62,0,3.31,2.69,6,6,6,1.7,0,3.27-.71,4.39-1.93.65.52,1.28,1.07,1.87,1.67,4.11,4.11,6.47,9.5,6.72,15.26h-7.98c-.55,0-1,.45-1,1s.45,1,1,1h8v20h-21c-.55,0-1,.45-1,1s.45,1,1,1h22c.55,0,1-.45,1-1v-22c0-6.67-2.6-12.94-7.32-17.68ZM32,34c0,1.65-1.35,3-3,3s-3-1.35-3-3h6ZM28,16c-.44,0-.85-.15-1.18-.4l2.78-2.78c.25.33.4.74.4,1.18,0,1.1-.9,2-2,2ZM42,15c-2.21,0-4-1.79-4-4,0-.06.01-.12.01-.18,2.4.65,4.69,1.66,6.76,3.05-.73.72-1.71,1.13-2.77,1.13Z"/>
  <path d="M27,52c2.206,0,4-1.794,4-4s-1.794-4-4-4-4,1.794-4,4,1.794,4,4,4ZM27,46c1.103,0,2,.897,2,2s-.897,2-2,2-2-.897-2-2,.897-2,2-2Z"/>
  <path d="M19,36c-2.206,0-4,1.794-4,4s1.794,4,4,4,4-1.794,4-4-1.794-4-4-4ZM19,42c-1.103,0-2-.897-2-2s.897-2,2-2,2,.897,2,2-.897,2-2,2Z"/>
  <path d="M34,49c0,1.654,1.346,3,3,3s3-1.346,3-3-1.346-3-3-3-3,1.346-3,3ZM38,49c0,.551-.449,1-1,1s-1-.449-1-1,.449-1,1-1,1,.449,1,1Z"/>
  <path d="M53,39c0-1.654-1.346-3-3-3s-3,1.346-3,3,1.346,3,3,3,3-1.346,3-3ZM49,39c0-.551.449-1,1-1s1,.449,1,1-.449,1-1,1-1-.449-1-1Z"/>
  <path d="M43,38c0-1.654-1.346-3-3-3s-3,1.346-3,3,1.346,3,3,3,3-1.346,3-3ZM39,38c0-.551.449-1,1-1s1,.449,1,1-.449,1-1,1-1-.449-1-1Z"/>
  <path d="M49,30c1.654,0,3-1.346,3-3s-1.346-3-3-3-3,1.346-3,3,1.346,3,3,3ZM49,26c.551,0,1,.449,1,1s-.449,1-1,1-1-.449-1-1,.449-1,1-1Z"/>
  <path d="M42,19c-1.654,0-3,1.346-3,3s1.346,3,3,3,3-1.346,3-3-1.346-3-3-3ZM42,23c-.551,0-1-.449-1-1s.449-1,1-1,1,.449,1,1-.449,1-1,1Z"/>
  <path d="M28,26c0,2.206,1.794,4,4,4s4-1.794,4-4-1.794-4-4-4-4,1.794-4,4ZM34,26c0,1.103-.897,2-2,2s-2-.897-2-2,.897-2,2-2,2,.897,2,2Z"/>
  <path d="M19,27c0,1.654,1.346,3,3,3s3-1.346,3-3-1.346-3-3-3-3,1.346-3,3ZM23,27c0,.551-.449,1-1,1s-1-.449-1-1,.449-1,1-1,1,.449,1,1Z"/>
</svg>