<?xml version="1.0" encoding="UTF-8"?>
<svg id="Outline" xmlns="http://www.w3.org/2000/svg" version="1.1" viewBox="0 0 64 64">
  <!-- Generator: Adobe Illustrator 29.5.1, SVG Export Plug-In . SVG Version: 2.1.0 Build 141)  -->
  <path d="M56.8,45.4c-.19-.25-.48-.4-.8-.4h-8c0-2.21,1.79-4,4-4,.25,0,.52.03.82.08.29.06.59-.02.82-.21.23-.19.36-.47.36-.77v-8.24c0-.31-.14-.6-.38-.79-.25-.19-.56-.26-.86-.18-.31.08-.54.11-.76.11-1.65,0-3-1.35-3-3s1.35-3,3-3c.22,0,.45.03.76.11.3.08.61.01.86-.18.24-.19.38-.48.38-.79v-4.14c0-.55-.45-1-1-1h-7c-.55,0-1,.45-1,1s.45,1,1,1h6v2c-2.76,0-5,2.24-5,5s2.24,5,5,5v6c-3.31,0-6,2.69-6,6h-9c-.55,0-1,.45-1,1s.45,1,1,1h17.66l-2.4,8H11.74l-2.4-8h23.66c.55,0,1-.45,1-1s-.45-1-1-1H12v-2c2.76,0,5-2.24,5-5s-2.24-5-5-5v-12h2c0,2.76,2.24,5,5,5s5-2.24,5-5h18c.55,0,1-.45,1-1s-.45-1-1-1h-9v-2h7c.55,0,1-.45,1-1v-6c0-.55-.45-1-1-1h-7v-1c0-.55-.45-1-1-1s-1,.45-1,1v11h-8.14c-.31,0-.6.14-.79.38-.19.25-.25.56-.18.86.08.31.11.54.11.76,0,1.65-1.35,3-3,3s-3-1.35-3-3c0-.22.03-.45.11-.76.07-.3.01-.61-.18-.86-.19-.24-.48-.38-.79-.38h-4.14c-.55,0-1,.45-1,1v14.14c0,.31.14.6.38.79.25.19.56.25.86.18.31-.08.54-.11.76-.11,1.65,0,3,1.35,3,3s-1.35,3-3,3c-.22,0-.45-.03-.76-.11-.29-.08-.61-.01-.86.18-.24.19-.38.48-.38.79v3.14h-2c-.32,0-.61.15-.8.4-.19.26-.25.58-.16.89l3,10c.13.42.52.71.96.71h42c.44,0,.83-.29.96-.71l3-10c.09-.31.03-.63-.16-.89ZM33,11h6v4h-6v-4Z"/>
  <path d="M22,28c-2.206,0-4,1.794-4,4s1.794,4,4,4,4-1.794,4-4-1.794-4-4-4ZM22,34c-1.103,0-2-.897-2-2s.897-2,2-2,2,.897,2,2-.897,2-2,2Z"/>
  <path d="M29,43c1.654,0,3-1.346,3-3s-1.346-3-3-3-3,1.346-3,3,1.346,3,3,3ZM29,39c.552,0,1,.448,1,1s-.448,1-1,1-1-.448-1-1,.448-1,1-1Z"/>
  <path d="M37,39c1.654,0,3-1.346,3-3s-1.346-3-3-3-3,1.346-3,3,1.346,3,3,3ZM37,35c.552,0,1,.448,1,1s-.448,1-1,1-1-.448-1-1,.448-1,1-1Z"/>
  <path d="M36,28c0-1.654-1.346-3-3-3s-3,1.346-3,3,1.346,3,3,3,3-1.346,3-3ZM32,28c0-.552.448-1,1-1s1,.448,1,1-.448,1-1,1-1-.448-1-1Z"/>
</svg>