<?xml version="1.0" encoding="UTF-8"?>
<svg id="Outline" xmlns="http://www.w3.org/2000/svg" version="1.1" viewBox="0 0 64 64">
  <!-- Generator: Adobe Illustrator 29.5.1, SVG Export Plug-In . SVG Version: 2.1.0 Build 141)  -->
  <path d="M56,37c.552,0,1-.447,1-1v-4c0-13.785-11.215-25-25-25-.265,0-.52.105-.707.293L7.293,31.293c-.188.188-.293.441-.293.707v3.13c0,.037.021.069.025.106.065.587.67,1.017,1.246.857.222-.062.46-.093.729-.093,1.654,0,3,1.346,3,3s-1.345,3-2.999,3c-.718,0-1.865-.282-1.976.764-.004.037-.025.069-.025.106v11.13c0,1.654,1.346,3,3,3h7c.552,0,1-.447,1-1s-.448-1-1-1h-7c-.551,0-1-.448-1-1v-10c2.757,0,5-2.243,5-5s-2.243-5-5-5v-1h11v5c0,1.654,1.346,3,3,3s3-1.346,3-3v-5h2v3c0,1.654,1.346,3,3,3s3-1.346,3-3v-3h2v7c0,1.654,1.346,3,3,3s3-1.346,3-3v-7h13v2.101c-2.279.465-4,2.484-4,4.899s1.721,4.435,4,4.899v2.101c0,.553.448,1,1,1s1-.447,1-1v-3c0-.553-.448-1-1-1-1.654,0-3-1.346-3-3s1.346-3,3-3ZM32.411,9.004c12.16.214,22.044,9.912,22.564,21.996h-2.026c-.527-11.113-9.707-20-20.949-20h-1.586l1.996-1.996ZM26,31v-1c0-.552.449-1,1-1s1,.448,1,1v1h-2ZM34,31v-4c0-.552.449-1,1-1s1,.448,1,1v4h-2ZM44,27h-1c-1.654,0-3,1.346-3,3v10c0,.552-.449,1-1,1s-1-.448-1-1v-13c0-1.654-1.346-3-3-3s-3,1.346-3,3v9c0,.552-.449,1-1,1s-1-.448-1-1v-6c0-1.654-1.346-3-3-3s-3,1.346-3,3v8c0,.552-.449,1-1,1s-1-.448-1-1v-8c0-1.654-1.346-3-3-3h-2c-.552,0-1,.447-1,1s.448,1,1,1h2c.551,0,1,.448,1,1v1h-9.586L28.414,13h3.586c10.139,0,18.424,7.989,18.949,18h-8.949v-1c0-.552.449-1,1-1h1c.552,0,1-.447,1-1s-.448-1-1-1Z"/>
  <path d="M56,50c-.552,0-1,.447-1,1v3c0,.552-.449,1-1,1H21c-.552,0-1,.447-1,1s.448,1,1,1h33c1.654,0,3-1.346,3-3v-3c0-.553-.448-1-1-1Z"/>
  <path d="M49,49c0-2.206-1.794-4-4-4s-4,1.794-4,4,1.794,4,4,4,4-1.794,4-4ZM43,49c0-1.103.897-2,2-2s2,.897,2,2-.897,2-2,2-2-.897-2-2Z"/>
  <path d="M34,47c0-2.757-2.243-5-5-5s-5,2.243-5,5,2.243,5,5,5,5-2.243,5-5ZM26,47c0-1.654,1.346-3,3-3s3,1.346,3,3-1.346,3-3,3-3-1.346-3-3Z"/>
  <path d="M11,49c0,2.206,1.794,4,4,4s4-1.794,4-4-1.794-4-4-4-4,1.794-4,4ZM17,49c0,1.103-.897,2-2,2s-2-.897-2-2,.897-2,2-2,2,.897,2,2Z"/>
</svg>