<?xml version="1.0" encoding="UTF-8"?>
<svg id="Outline" xmlns="http://www.w3.org/2000/svg" version="1.1" viewBox="0 0 64 64">
  <!-- Generator: Adobe Illustrator 29.3.1, SVG Export Plug-In . SVG Version: 2.1.0 Build 151)  -->
  <path d="M56,44c.55273,0,1-.44775,1-1v-9c0-.41479-.08484-.81006-.23773-1.16974,1.27167-9.78979-3.04901-19.61731-11.08746-25.11249l-.29199-.19434c-1.03906-.70898-2.37988-.69629-3.41309.03223L8.5498,31.35547c-.01599.01141-.01581.03528-.02783.04987-.90424.51727-1.52197,1.48029-1.52197,2.59467v4c0,.55225.44727,1,1,1,1.6543,0,3,1.3457,3,3s-1.3457,3-3,3c-.55273,0-1,.44775-1,1v8c0,1.6543,1.3457,3,3,3h23c.55273,0,1-.44775,1-1,0-2.20557,1.79395-4,4-4s4,1.79443,4,4c0,.55225.44727,1,1,1h11c1.6543,0,3-1.3457,3-3v-5c0-.55225-.44727-1-1-1-1.10254,0-2-.89697-2-2s.89746-2,2-2ZM52.12958,17.91821c1.47577,2.79431,2.40527,5.87848,2.72473,9.06708-2.68811-.07916-4.85431-2.27832-4.85431-4.98529,0-1.64221.81708-3.1557,2.12958-4.08179ZM43.12598,9.1875c.34375-.24219.78809-.24561,1.13965-.00537l.29004.19336c2.65485,1.815,4.8609,4.15173,6.55859,6.81079-1.91858,1.2854-3.11426,3.4577-3.11426,5.81372,0,3.85175,3.12775,6.9856,6.97595,6.99878.01263.71893.00391,1.43988-.04755,2.16321-.29413-.09662-.60236-.16199-.92841-.16199H12.49646l8.25543-5.87903c1.16711,2.3327,3.56573,3.87903,6.24811,3.87903,3.85938,0,7-3.14014,7-7,0-1.85089-.73761-3.59241-2.00549-4.88531l11.13147-7.92719ZM27,33c0,2.20557-1.79395,4-4,4s-4-1.79443-4-4h8ZM30.34375,18.29022c1.04535.93872,1.65625,2.28064,1.65625,3.70978,0,2.75684-2.24316,5-5,5-2.02356,0-3.82166-1.23096-4.59473-3.05646l7.93848-5.65332ZM55,49.87354v4.12646c0,.55127-.44824,1-1,1h-10.08301c-.47754-2.83398-2.94922-5-5.91699-5s-5.43945,2.16602-5.91699,5H10c-.55176,0-1-.44873-1-1v-7.10059c2.2793-.46436,4-2.48486,4-4.89941s-1.7207-4.43506-4-4.89941v-3.10059c0-.55127.44824-1,1-1h7c0,3.30859,2.69141,6,6,6s6-2.69141,6-6h25c.55176,0,1,.44873,1,1v8.12646c-1.72363.44531-3,2.01318-3,3.87354s1.27637,3.42822,3,3.87354Z"/>
  <path d="M18,43c-2.75684,0-5,2.24316-5,5s2.24316,5,5,5,5-2.24316,5-5-2.24316-5-5-5ZM18,51c-1.6543,0-3-1.3457-3-3s1.3457-3,3-3,3,1.3457,3,3-1.3457,3-3,3Z"/>
  <path d="M47,35c-1.6543,0-3,1.3457-3,3s1.3457,3,3,3,3-1.3457,3-3-1.3457-3-3-3ZM47,39c-.55176,0-1-.44873-1-1s.44824-1,1-1,1,.44873,1,1-.44824,1-1,1Z"/>
  <path d="M34,41c-1.6543,0-3,1.3457-3,3s1.3457,3,3,3,3-1.3457,3-3-1.3457-3-3-3ZM34,45c-.55176,0-1-.44873-1-1s.44824-1,1-1,1,.44873,1,1-.44824,1-1,1Z"/>
  <path d="M41,21c1.6543,0,3-1.3457,3-3s-1.3457-3-3-3-3,1.3457-3,3,1.3457,3,3,3ZM41,17c.55176,0,1,.44873,1,1s-.44824,1-1,1-1-.44873-1-1,.44824-1,1-1Z"/>
</svg>