<?xml version="1.0" encoding="UTF-8"?>
<svg id="Outline" xmlns="http://www.w3.org/2000/svg" version="1.1" viewBox="0 0 64 64">
  <!-- Generator: Adobe Illustrator 29.5.1, SVG Export Plug-In . SVG Version: 2.1.0 Build 141)  -->
  <path d="M56.586,33.446c-.643-2.754-1.973-5.19-3.79-7.02.129-.397.204-.815.204-1.242,0-1.896-1.327-3.489-3.102-3.898-.409-1.774-2.001-3.102-3.898-3.102-1.081,0-2.091.431-2.832,1.181-.379-.12-.77-.181-1.168-.181-2.206,0-4,1.794-4,4,0,.177.012.354.036.529-1.234.692-2.036,2.01-2.036,3.471,0,1.046.412,2.034,1.121,2.772-.862,2.478-.991,5.305-.336,8.112.945,4.051,3.424,7.472,6.631,9.149,2.072,1.082,3.595,3.14,4.18,5.644l.41,1.757-.974.227c-.538.125-.872.663-.746,1.201.122.524.678.866,1.201.746l7.79-1.818c.538-.125.872-.663.747-1.201-.125-.537-.663-.871-1.201-.746l-.974.227-.41-1.758c-.584-2.503-.128-5.021,1.25-6.909,2.134-2.925,2.843-7.089,1.897-11.141ZM39.477,25.27c.277-.073.509-.262.637-.518s.141-.555.035-.82c-.1-.251-.149-.495-.149-.749,0-1.438,1.608-2.51,2.977-1.729.464.262,1.055.114,1.34-.337.368-.585.998-.934,1.684-.934,1.103,0,2,.897,2,2,0,.553.448,1,1,1,1.103,0,2,.897,2,2,0,.009-.003.016-.003.025-.061.003-.122-.013-.183.001l-12.498,2.916c-.023.005-.039.023-.061.029-.162-.294-.256-.625-.256-.972,0-.896.607-1.683,1.477-1.913ZM53.073,43.407c-1.722,2.358-2.299,5.473-1.582,8.544l.41,1.757-1.947.454-.41-1.757c-.717-3.071-2.612-5.608-5.2-6.961-2.698-1.412-4.796-4.339-5.611-7.832-.627-2.69-.442-5.387.519-7.651l11.537-2.691c1.863,1.605,3.223,3.941,3.851,6.632.815,3.492.23,7.046-1.565,9.506Z"/>
  <path d="M25.964,23.712c.024-.176.036-.353.036-.529,0-2.206-1.794-4-4-4-.398,0-.789.061-1.168.181-.741-.75-1.751-1.181-2.832-1.181-1.897,0-3.489,1.327-3.898,3.102-1.774.409-3.102,2.002-3.102,3.898,0,.427.074.844.203,1.241-1.816,1.826-3.145,4.262-3.787,7.021-.95,4.046-.241,8.21,1.896,11.137,1.38,1.895,1.837,4.414,1.254,6.913l-.413,1.759-.976-.228c-.54-.125-1.076.208-1.201.746-.125.538.208,1.076.747,1.201,0,0,7.79,1.818,7.79,1.818.533.122,1.077-.212,1.201-.746.125-.538-.208-1.076-.746-1.201l-.976-.228.412-1.757c.583-2.506,2.106-4.562,4.177-5.64,2.227-1.158,4.146-3.193,5.404-5.732.245-.495.043-1.095-.452-1.34-.496-.246-1.095-.042-1.34.451-1.071,2.162-2.682,3.883-4.536,4.848-2.59,1.348-4.486,3.885-5.202,6.958l-.412,1.757-1.942-.455.412-1.757c.715-3.066.137-6.182-1.586-8.547-1.797-2.463-2.382-6.015-1.563-9.503.627-2.697,1.986-5.033,3.848-6.631l11.54,2.695c.434,1.026.71,2.158.823,3.371.051.55.527.955,1.088.903.55-.052.954-.539.903-1.089-.105-1.125-.34-2.192-.686-3.195.709-.738,1.121-1.726,1.121-2.772,0-1.461-.802-2.778-2.036-3.471ZM15,23.183c.552,0,1-.447,1-1,0-1.103.897-2,2-2,.686,0,1.315.349,1.684.934.284.451.874.599,1.34.337,1.368-.78,2.976.29,2.977,1.729,0,.254-.049.498-.149.749-.106.266-.093.564.035.82s.36.444.637.518c.869.23,1.477,1.018,1.477,1.913,0,.347-.094.679-.257.973-.02-.006-.035-.022-.056-.027l-12.5-2.92c-.061-.014-.122.002-.184,0,0-.009-.003-.017-.003-.026,0-1.103.897-2,2-2Z"/>
  <path d="M52.083,11.183c.552,0,1-.447,1-1v-2c0-.553-.448-1-1-1s-1,.447-1,1v2c0,.553.448,1,1,1Z"/>
  <path d="M48.167,13.183h1.958c.552,0,1-.447,1-1s-.448-1-1-1h-1.958c-.552,0-1,.447-1,1s.448,1,1,1Z"/>
  <path d="M52.083,13.183c-.552,0-1,.447-1,1v2c0,.553.448,1,1,1s1-.447,1-1v-2c0-.553-.448-1-1-1Z"/>
  <path d="M54.042,13.183h1.958c.552,0,1-.447,1-1s-.448-1-1-1h-1.958c-.552,0-1,.447-1,1s.448,1,1,1Z"/>
  <path d="M37.917,13.183c.552,0,1-.447,1-1v-2c0-.553-.448-1-1-1s-1,.447-1,1v2c0,.553.448,1,1,1Z"/>
  <path d="M36.958,14.183c0-.553-.448-1-1-1h-1.958c-.552,0-1,.447-1,1s.448,1,1,1h1.958c.552,0,1-.447,1-1Z"/>
  <path d="M37.917,15.183c-.552,0-1,.447-1,1v2c0,.553.448,1,1,1s1-.447,1-1v-2c0-.553-.448-1-1-1Z"/>
  <path d="M39.875,15.183h1.958c.552,0,1-.447,1-1s-.448-1-1-1h-1.958c-.552,0-1,.447-1,1s.448,1,1,1Z"/>
  <path d="M11.917,11.183c.552,0,1-.447,1-1v-2c0-.553-.448-1-1-1s-1,.447-1,1v2c0,.553.448,1,1,1Z"/>
  <path d="M13.875,13.183h1.958c.552,0,1-.447,1-1s-.448-1-1-1h-1.958c-.552,0-1,.447-1,1s.448,1,1,1Z"/>
  <path d="M11.917,13.183c-.552,0-1,.447-1,1v2c0,.553.448,1,1,1s1-.447,1-1v-2c0-.553-.448-1-1-1Z"/>
  <path d="M8,13.183h1.958c.552,0,1-.447,1-1s-.448-1-1-1h-1.958c-.552,0-1,.447-1,1s.448,1,1,1Z"/>
  <path d="M26.083,13.183c.552,0,1-.447,1-1v-2c0-.553-.448-1-1-1s-1,.447-1,1v2c0,.553.448,1,1,1Z"/>
  <path d="M30,13.183h-1.958c-.552,0-1,.447-1,1s.448,1,1,1h1.958c.552,0,1-.447,1-1s-.448-1-1-1Z"/>
  <path d="M25.083,16.183v2c0,.553.448,1,1,1s1-.447,1-1v-2c0-.553-.448-1-1-1s-1,.447-1,1Z"/>
  <path d="M22.167,15.183h1.958c.552,0,1-.447,1-1s-.448-1-1-1h-1.958c-.552,0-1,.447-1,1s.448,1,1,1Z"/>
  <circle cx="26.307" cy="37.237" r="1"/>
</svg>