<?xml version="1.0" encoding="UTF-8"?>
<svg id="Outline" xmlns="http://www.w3.org/2000/svg" version="1.1" viewBox="0 0 64 64">
  <!-- Generator: Adobe Illustrator 29.0.0, SVG Export Plug-In . SVG Version: 2.1.0 Build 186)  -->
  <path d="M46,14c-.79773,0-1.58661.08704-2.3559.25513-2.12604-4.29095-6.53998-7.25513-11.6441-7.25513-5.10504,0-9.51965,2.96521-11.6452,7.25739-.77344-.1698-1.56213-.25739-2.3548-.25739-6.06543,0-11,4.93457-11,11,0,4.14795,2.33398,7.92285,6,9.79443v16.20557c0,3.93896,9.55859,6,19,6s19-2.06104,19-6v-6c0-.55225-.44727-1-1-1s-1,.44775-1,1v3.17737c-3.28619-2.09143-10.16406-3.17737-17-3.17737s-13.71381,1.08594-17,3.17737v-14.01526c0-.39746-.23535-.75684-.59961-.91602-3.28027-1.43457-5.40039-4.67139-5.40039-8.24609,0-4.9624,4.03711-9,9-9,.53137,0,1.05829.06268,1.58081.15631-.37689,1.21533-.58081,2.50604-.58081,3.84369,0,1.43213.22656,2.81689.6748,4.11572.17969.52295.74805.79883,1.27148.61963.52148-.17969.79883-.74902.61914-1.271-.375-1.08887-.56543-2.25439-.56543-3.46436,0-6.06543,4.93457-11,11-11s11,4.93457,11,11c0,1.20996-.19043,2.37549-.56543,3.46436-.17969.52197.09766,1.09131.61922,1.27102.51608.17663,1.09338-.10202,1.27141-.61965.44824-1.29883.6748-2.68359.6748-4.11572,0-1.3385-.2041-2.63019-.58148-3.84619.51984-.09222,1.0462-.15381,1.58148-.15381,4.96289,0,9,4.0376,9,9,0,3.57666-2.11914,6.8125-5.39941,8.24365-.36523.15918-.60059.51904-.60059.9165v2.83984c0,.55225.44727,1,1,1s1-.44775,1-1v-2.20703c3.66602-1.86865,6-5.64307,6-9.79297,0-6.06543-4.93457-11-11-11ZM32,47c11,0,17,2.64258,17,4s-6,4-17,4-17-2.64258-17-4,6-4,17-4Z"/>
  <path d="M39,20c0,.55225.44727,1,1,1s1-.44775,1-1c0-4.9624-4.03711-9-9-9-.55273,0-1,.44775-1,1s.44727,1,1,1c3.85938,0,7,3.14014,7,7Z"/>
  <path d="M18.04395,34.29395c.16309.52686.71875.82471,1.25.66162,8.3125-2.55762,17.09961-2.55762,25.41216.00002.52159.16166,1.08902-.14041,1.24995-.66164.16211-.52783-.13379-1.0874-.66211-1.24951-8.69727-2.67676-17.89062-2.67676-26.58789,0-.52832.16211-.82422.72168-.66211,1.24951Z"/>
  <circle cx="50" cy="41" r="1"/>
</svg>