<?xml version="1.0" encoding="UTF-8"?>
<svg id="Outline" xmlns="http://www.w3.org/2000/svg" version="1.1" viewBox="0 0 64 64">
  <!-- Generator: Adobe Illustrator 29.5.1, SVG Export Plug-In . SVG Version: 2.1.0 Build 141)  -->
  <path d="M40,51h-.38l1.27-2.55c.03-.05.04-.11.06-.16.01-.02.01-.04.02-.05.03-.13.03-.25.01-.38,0-.01.01-.03,0-.04l-1.64-9c-.09-.54-.61-.9-1.16-.8-.54.1-.9.62-.8,1.16l1.42,7.82h-13.6l2.98-16.42c.16-.83.24-1.7.24-2.58,0-1.7-.31-3.41-.9-5h8.96c-.9,2.42-1.13,5.01-.66,7.58l.84,4.6c.1.54.62.9,1.16.8s.9-.62.8-1.16l-.84-4.6c-.48-2.66-.1-5.35,1.11-7.77.16-.31.14-.68-.04-.98-.18-.29-.5-.47-.85-.47h-.95c.19-2.02.93-3.98,2.15-5.6l.6-.8c.23-.3.26-.71.09-1.05-.16-.34-.51-.55-.89-.55h-6v-2h1c.55,0,1-.45,1-1s-.45-1-1-1h-1v-1c0-.55-.45-1-1-1s-1,.45-1,1v1h-1c-.55,0-1,.45-1,1s.45,1,1,1h1v2h-6c-.38,0-.73.21-.89.55-.17.34-.14.75.09,1.05l.6.8c1.22,1.62,1.96,3.58,2.15,5.6h-.95c-.35,0-.67.18-.85.48-.18.29-.2.66-.04.97.86,1.71,1.31,3.63,1.31,5.55,0,.75-.07,1.5-.2,2.22l-3.2,17.6c-.01.01,0,.03,0,.04-.02.13-.02.25.01.38.01.01.01.03.02.05.02.05.03.11.06.16l1.27,2.55h-.38c-1.65,0-3,1.35-3,3v2c0,.55.45,1,1,1h20c.55,0,1-.45,1-1v-2c0-1.65-1.35-3-3-3ZM37.05,15c-1.15,1.8-1.84,3.87-2.01,6h-6.08c-.17-2.13-.86-4.2-2.01-6h10.1ZM41,55h-18v-1c0-.55.45-1,1-1h6c.55,0,1-.45,1-1s-.45-1-1-1h-3.38l-1-2h12.76l-1,2h-3.38c-.55,0-1,.45-1,1s.45,1,1,1h6c.55,0,1,.45,1,1v1Z"/>
</svg>