<?xml version="1.0" encoding="UTF-8"?>
<svg id="Outline" xmlns="http://www.w3.org/2000/svg" version="1.1" viewBox="0 0 64 64">
  <!-- Generator: Adobe Illustrator 29.5.1, SVG Export Plug-In . SVG Version: 2.1.0 Build 141)  -->
  <path d="M56.82,36.43c-.19-.27-.49-.43-.82-.43h-3c-.55,0-1,.45-1,1s.45,1,1,1h1.56l-2.25,6H11.69l-2.25-6h12.56v3c0,.55.45,1,1,1h18c.55,0,1-.45,1-1v-3h3c.55,0,1-.45,1-1s-.45-1-1-1H8c-.33,0-.63.16-.82.43s-.23.61-.12.92l3,8c.15.39.52.65.94.65h4v5.18c-1.16.42-2,1.52-2,2.82,0,1.65,1.35,3,3,3s3-1.35,3-3c0-1.3-.84-2.4-2-2.82v-1.18h30v1.18c-1.16.42-2,1.52-2,2.82,0,1.65,1.35,3,3,3s3-1.35,3-3c0-1.3-.84-2.4-2-2.82v-5.18h4c.42,0,.79-.26.94-.65l3-8c.11-.31.07-.65-.12-.92ZM24,38h16v2h-16v-2ZM16,55c-.55,0-1-.45-1-1s.45-1,1-1,1,.45,1,1-.45,1-1,1ZM17,48v-2h30v2h-30ZM48,55c-.55,0-1-.45-1-1s.45-1,1-1,1,.45,1,1-.45,1-1,1Z"/>
  <path d="M26,34c5.408,0,11.112-2.318,13.182-6h3.945c.444,1.723,2.013,3,3.873,3,2.206,0,4-1.794,4-4,0-.706-.19-1.395-.546-2,.355-.605.546-1.294.546-2,0-2.206-1.794-4-4-4-1.86,0-3.429,1.277-3.873,3h-3.945c-2.07-3.682-7.774-6-13.182-6-6.953,0-12,3.785-12,9s5.047,9,12,9ZM44,24c.553,0,1-.448,1-1,0-1.103.897-2,2-2s2,.897,2,2c0,.486-.185.958-.521,1.328-.345.381-.345.962,0,1.344.337.371.521.842.521,1.328,0,1.103-.897,2-2,2s-2-.897-2-2c0-.552-.447-1-1-1h-4.086c.056-.326.086-.659.086-1s-.03-.674-.086-1h4.086ZM26,18c6.28,0,12,3.336,12,7s-5.72,7-12,7c-5.794,0-10-2.944-10-7s4.206-7,10-7Z"/>
  <circle cx="21" cy="22" r="1"/>
  <circle cx="19" cy="25" r="1"/>
  <circle cx="24" cy="25" r="1"/>
  <path d="M31.473,12.818l-.367.735c-.247.494-.047,1.094.447,1.341.464.232,1.096.045,1.342-.448l.367-.734c.571-1.143.349-2.517-.555-3.42-.293-.293-.365-.739-.18-1.111l.367-.735c.247-.494.047-1.094-.447-1.341-.495-.247-1.096-.046-1.342.448l-.367.734c-.571,1.143-.349,2.517.555,3.42.293.293.365.739.18,1.111Z"/>
  <path d="M27.473,12.818l-.367.735c-.247.494-.047,1.094.447,1.341.467.233,1.096.046,1.342-.448l.367-.734c.571-1.143.349-2.517-.555-3.42-.293-.293-.365-.739-.18-1.111l.367-.735c.247-.494.047-1.094-.447-1.341-.494-.247-1.095-.046-1.342.448l-.367.734c-.571,1.143-.349,2.517.555,3.42.293.293.365.739.18,1.111Z"/>
  <path d="M35.473,12.818l-.367.735c-.247.494-.047,1.094.447,1.341.489.245,1.098.041,1.342-.448l.367-.734c.571-1.143.349-2.517-.555-3.42-.293-.293-.365-.739-.18-1.111l.367-.735c.247-.494.047-1.094-.447-1.341s-1.096-.046-1.342.448l-.367.734c-.571,1.143-.349,2.517.555,3.42.293.293.365.739.18,1.111Z"/>
  <circle cx="49" cy="37" r="1"/>
</svg>