<?xml version="1.0" encoding="UTF-8"?>
<svg id="Outline" xmlns="http://www.w3.org/2000/svg" version="1.1" viewBox="0 0 64 64">
  <!-- Generator: Adobe Illustrator 29.5.1, SVG Export Plug-In . SVG Version: 2.1.0 Build 141)  -->
  <path d="M32,31.005c2.082,0,4.14-.12,6.119-.357.548-.065.939-.563.874-1.112-.065-.548-.562-.935-1.112-.874-1.9.228-3.878.343-5.881.343-12.467,0-23-4.58-23-10,0-2.016,4.611-3.507,8.679-4.823,1.228-.397,2.498-.808,3.666-1.238,1.502-.552,2.61-1.209,3.681-1.846,1.891-1.123,3.524-2.093,6.974-2.093,2.397,0,6.165,1.367,9.193,2.466,1.73.628,3.365,1.221,4.577,1.507,8.023,1.902,9.23,2.69,9.23,6.027,0,3.732-5.307,7.357-13.206,9.021-.541.114-.886.644-.772,1.185s.646.888,1.185.772c9.125-1.922,14.794-6.129,14.794-10.979,0-5.201-3.302-6.203-10.77-7.973-1.099-.26-2.681-.833-4.355-1.441-3.34-1.212-7.126-2.585-9.875-2.585-3.999,0-6.03,1.207-7.995,2.373-.994.59-2.021,1.2-3.35,1.688-1.132.417-2.382.821-3.592,1.212-5.175,1.674-10.063,3.255-10.063,6.726,0,6.729,10.981,12,25,12Z"/>
  <path d="M23.781,14.38c-.345-.432-.975-.501-1.405-.156-.432.345-.501.974-.156,1.405l.876,1.096c1.873,2.341,2.904,5.282,2.904,8.28,0,.552.448,1,1,1s1-.448,1-1c0-3.451-1.187-6.834-3.343-9.529l-.876-1.096Z"/>
  <path d="M30.781,14.38c-.344-.432-.975-.501-1.405-.156-.432.345-.501.974-.156,1.405l.876,1.096c1.873,2.341,2.904,5.282,2.904,8.28,0,.552.448,1,1,1s1-.448,1-1c0-3.451-1.187-6.834-3.343-9.529l-.876-1.096Z"/>
  <path d="M42,25.005c0-3.451-1.187-6.834-3.343-9.529l-.876-1.096c-.344-.432-.975-.501-1.405-.156-.432.345-.501.974-.156,1.405l.876,1.096c1.873,2.341,2.904,5.282,2.904,8.28,0,.552.448,1,1,1s1-.448,1-1Z"/>
  <path d="M46.23,37.032c-1.099-.26-2.681-.833-4.355-1.441-3.34-1.212-7.126-2.585-9.875-2.585-3.999,0-6.03,1.207-7.995,2.373-.994.59-2.021,1.2-3.35,1.688-1.132.417-2.382.821-3.592,1.212-5.175,1.674-10.063,3.255-10.063,6.726,0,6.181,9.229,11.189,21.943,11.909.568.027,1.024-.391,1.055-.942.031-.552-.391-1.024-.942-1.055-11.247-.636-20.057-4.99-20.057-9.912,0-2.016,4.611-3.507,8.679-4.823,1.228-.397,2.498-.808,3.666-1.238,1.502-.552,2.61-1.209,3.681-1.846,1.891-1.123,3.524-2.093,6.974-2.093,2.397,0,6.165,1.367,9.193,2.466,1.73.628,3.365,1.221,4.577,1.507,8.023,1.902,9.23,2.69,9.23,6.027,0,5.281-9.877,9.762-22.019,9.99-.552.011-.992.467-.981,1.019.01.546.456.981,1,.981h.019c13.672-.257,23.981-5.412,23.981-11.99,0-5.201-3.302-6.203-10.77-7.973Z"/>
  <path d="M23.781,40.38c-.345-.432-.975-.501-1.405-.156-.432.345-.501.974-.156,1.405l.876,1.096c1.873,2.341,2.904,5.282,2.904,8.28,0,.552.448,1,1,1s1-.448,1-1c0-3.451-1.187-6.834-3.343-9.529l-.876-1.096Z"/>
  <path d="M34,52.005c.552,0,1-.448,1-1,0-3.451-1.187-6.834-3.343-9.529l-.876-1.096c-.344-.432-.975-.501-1.405-.156-.432.345-.501.974-.156,1.405l.876,1.096c1.873,2.341,2.904,5.282,2.904,8.28,0,.552.448,1,1,1Z"/>
  <path d="M40,51.005c0,.552.448,1,1,1s1-.448,1-1c0-3.451-1.187-6.834-3.343-9.529l-.876-1.096c-.344-.432-.975-.501-1.405-.156-.432.345-.501.974-.156,1.405l.876,1.096c1.873,2.341,2.904,5.282,2.904,8.28Z"/>
</svg>