<?xml version="1.0" encoding="UTF-8"?>
<svg id="Outline" xmlns="http://www.w3.org/2000/svg" version="1.1" viewBox="0 0 64 64">
  <!-- Generator: Adobe Illustrator 29.5.1, SVG Export Plug-In . SVG Version: 2.1.0 Build 141)  -->
  <circle cx="33.07" cy="40.999" r="1"/>
  <circle cx="23.07" cy="48.999" r="1"/>
  <circle cx="27.07" cy="40.999" r="1"/>
  <circle cx="39.07" cy="51.999" r="1"/>
  <circle cx="39.07" cy="45.999" r="1"/>
  <circle cx="31.07" cy="49.999" r="1"/>
  <path d="M50.46,26.999c.553,0,1-.447,1-1V9.999c0-1.11-.61-2.124-1.592-2.646-.976-.519-2.151-.46-3.062.154l-24.399,16.259c-.838.557-1.338,1.49-1.338,2.498s.5,1.941,1.337,2.497l4.401,2.933-13.757,20.64c-.617.923-.677,2.104-.154,3.081s1.536,1.585,2.646,1.585h9.53c.553,0,1-.447,1-1s-.447-1-1-1h-9.53c-.541,0-.797-.368-.881-.527-.085-.158-.25-.576.053-1.028l13.758-20.641,11.997,7.995,8.432,12.647c.3.448.135.866.05,1.025-.177.331-.506.529-.879.529h-19c-.553,0-1,.447-1,1s.447,1,1,1h19c1.107,0,2.12-.608,2.644-1.587.522-.979.464-2.158-.151-3.078l-5.77-8.654,2.009,1.339c.503.339,1.083.51,1.666.51.48,0,.962-.116,1.403-.351.979-.521,1.589-1.536,1.589-2.648v-12.53c0-.553-.447-1-1-1s-1,.447-1,1v12.53c0,.377-.197.707-.528.883-.157.083-.57.246-1.017-.055l-24.401-16.262c-.283-.188-.445-.491-.445-.832s.162-.645.446-.833l24.404-16.263c.439-.295.853-.134,1.01-.05.333.177.531.507.531.881v16c0,.553.447,1,1,1Z"/>
  <circle cx="28.465" cy="25.999" r="1"/>
  <circle cx="35.465" cy="24.999" r="1"/>
  <circle cx="43.465" cy="34.999" r="1"/>
  <circle cx="35.465" cy="30.999" r="1"/>
  <circle cx="46.465" cy="18.999" r="1"/>
  <circle cx="40.465" cy="18.999" r="1"/>
  <circle cx="44.465" cy="26.999" r="1"/>
</svg>