<?xml version="1.0" encoding="UTF-8"?>
<svg id="Outline" xmlns="http://www.w3.org/2000/svg" version="1.1" viewBox="0 0 64 64">
  <!-- Generator: Adobe Illustrator 29.5.1, SVG Export Plug-In . SVG Version: 2.1.0 Build 141)  -->
  <path d="M26,12c0-.553-.447-1-1-1h-8c-.553,0-1,.447-1,1v8c0,.553.447,1,1,1h8c.553,0,1-.447,1-1v-8ZM24,19h-6v-6h6v6Z"/>
  <path d="M29,21h8c.553,0,1-.447,1-1v-8c0-.553-.447-1-1-1h-8c-.553,0-1,.447-1,1v8c0,.553.447,1,1,1ZM30,13h6v6h-6v-6Z"/>
  <path d="M25,23h-8c-.553,0-1,.447-1,1v8c0,.553.447,1,1,1h8c.553,0,1-.447,1-1v-8c0-.553-.447-1-1-1ZM24,31h-6v-6h6v6Z"/>
  <path d="M28,32c0,.553.447,1,1,1h8c.553,0,1-.447,1-1v-8c0-.553-.447-1-1-1h-8c-.553,0-1,.447-1,1v8ZM30,25h6v6h-6v-6Z"/>
  <path d="M46,41c-.69,0-1.36.1-2,.26v-3.26c0-1.3-.84-2.4-2-2.82V10c0-1.65-1.35-3-3-3h-14c-.55,0-1,.45-1,1s.45,1,1,1h14c.55,0,1,.45,1,1v25H14V10c0-.55.45-1,1-1h2c.55,0,1-.45,1-1s-.45-1-1-1h-2c-1.65,0-3,1.35-3,3v25.18c-1.16.42-2,1.52-2,2.82v16c0,1.65,1.35,3,3,3h28c.67,0,1.32-.24,1.84-.65.97.42,2.04.65,3.16.65,4.41,0,8-3.59,8-8s-3.59-8-8-8ZM41,37c.55,0,1,.45,1,1v.25l-19.78,5.65-8.62-6.9h27.4ZM13,55c-.55,0-1-.45-1-1v-15.72l9.38,7.5c.17.14.4.22.62.22.09,0,.18-.01.27-.04l19.73-5.63v1.75c-2.39,1.39-4,3.97-4,6.92,0,2.39,1.06,4.53,2.73,6H13ZM40,49c0-3.31,2.69-6,6-6,1.29,0,2.49.42,3.47,1.11l-8.36,8.36c-.69-.98-1.11-2.18-1.11-3.47ZM46,55c-1.29,0-2.49-.42-3.47-1.11l8.36-8.36c.69.98,1.11,2.18,1.11,3.47,0,3.31-2.69,6-6,6Z"/>
  <circle cx="21" cy="8" r="1"/>
</svg>