<?xml version="1.0" encoding="UTF-8"?>
<svg id="Outline" xmlns="http://www.w3.org/2000/svg" version="1.1" viewBox="0 0 64 64">
  <!-- Generator: Adobe Illustrator 29.3.1, SVG Export Plug-In . SVG Version: 2.1.0 Build 151)  -->
  <path d="M46,30h-3.04999c.01001-.20001.01996-.40002.02997-.60004,3.73004-2.13995,6.02002-6.06,6.02002-10.39996,0-6.62-5.38-12-12-12-5.28998,0-9.90997,3.44-11.44,8.42999-1.02997.26001-2.02997.64001-2.97998,1.13-.48999.26001-.67999.85999-.42999,1.34998.25995.48999.85999.67999,1.34998.42999,1.71002-.88995,3.56-1.33997,5.5-1.33997,6.57001,0,11.91998,5.31,11.98999,11.85999v.01001c0,.04999.01001.08997.01001.13,0,6.62-5.38,12-12,12-1.02002,0-2.03003-.13-3-.39001v-5.60999c0-.54999.45001-1,1-1s1,.45001,1,1v1c0,1.64996,1.34998,3,3,3s3-1.35004,3-3v-3c0-.54999-.45001-1-1-1s-1,.45001-1,1v3c0,.54999-.45001,1-1,1s-1-.45001-1-1v-1c0-1.65002-1.34998-3-3-3s-3,1.34998-3,3v8c0,.54999-.45001,1-1,1s-1-.45001-1-1v-10c0-.54999-.45001-1-1-1s-1,.45001-1,1v3.90997c-1.91998-2.16998-3-4.95001-3-7.90997,0-1.94.45001-3.79004,1.34003-5.5.25-.48999.06-1.09003-.43005-1.35004-.48999-.25-1.08997-.06-1.34998.42999-1.02997,1.99005-1.56,4.16003-1.56,6.42004,0,4.16998,1.83002,8.02997,5,10.69v3.31c0,1.41998,1,2.60999,2.33002,2.91998.22998,1.40002.57996,2.77002,1.06,4.09003.90997,2.44,2.20001,4.66998,3.83997,6.63.19.22998.47003.35999.77002.35999h10c.29999,0,.60999-.17004.79999-.40002,3.31-3.95996,5.15002-8.98999,5.16998-14.14001l.02002-4.45996h1.01001c.48999,0,.90997-.35004.98999-.84003l1-6c.04004-.28998-.03998-.58002-.22998-.81-.19-.21997-.47003-.34998-.76001-.34998ZM29,15c-.40002,0-.79999.03998-1.19.07001,1.53998-3.64001,5.12-6.07001,9.19-6.07001,5.51001,0,10,4.48999,10,10,0,3.26001-1.56,6.23999-4.14001,8.09998-.94-6.82001-6.78998-12.09998-13.85999-12.09998ZM41.96997,42.45001c-.01996,4.54999-1.58997,9-4.44995,12.54999h-9.05005c-1.34998-1.70001-2.42999-3.60999-3.19995-5.67999-.42999-1.17999-.75-2.40002-.95001-3.64001.98999-.48999,1.67999-1.5,1.67999-2.67999v-.33002c.97998.21002,1.97998.33002,3,.33002,4.28998,0,8.14001-1.95001,10.71002-5h2.27997l-.02002,4.45001ZM44.15002,36h-3.04004c.71002-1.23004,1.23999-2.57001,1.56-4h2.15002l-.66998,4Z"/>
  <path d="M20.51471,20.51471c.3905-.3905.3905-1.02368,0-1.41425-.3905-.3905-1.02368-.3905-1.41418,0-.39056.39056-.39056,1.02374,0,1.41425.3905.3905,1.02368.3905,1.41418,0Z"/>
</svg>