<?xml version="1.0" encoding="UTF-8"?>
<svg id="Outline" xmlns="http://www.w3.org/2000/svg" version="1.1" viewBox="0 0 64 64">
  <!-- Generator: Adobe Illustrator 29.5.1, SVG Export Plug-In . SVG Version: 2.1.0 Build 141)  -->
  <path d="M32.5,8.999h11c.551,0,1,.448,1,1v10c0,.553.448,1,1,1s1-.447,1-1v-10c0-1.654-1.346-3-3-3h-11c-.552,0-1,.447-1,1s.448,1,1,1Z"/>
  <path d="M49.449,40.683l-2.949-8.846v-7.837c0-.553-.448-1-1-1s-1,.447-1,1v7.232l-2,.533v-6.765c0-.553-.448-1-1-1h-8c-.552,0-1,.447-1,1v8c0,.553.448,1,1,1h.62l-17.62,4.699V9.999c0-.552.449-1,1-1h11c.552,0,1-.447,1-1s-.448-1-1-1h-11c-1.654,0-3,1.346-3,3v46c0,.311.145.604.391.793.247.189.568.257.867.173l7.242-1.931,7.242,1.931c.169.045.347.045.516,0l7.242-1.931,7.242,1.931c.085.023.172.034.258.034.546,0,1-.451,1-1v-12.526l2.541-1.633c.385-.247.553-.724.408-1.157ZM34.5,25.999h6v6h-6v-6ZM44.5,47.999v6.698l-6.242-1.664c-.169-.045-.347-.045-.516,0l-7.242,1.931-7.242-1.931c-.169-.045-.347-.045-.516,0l-6.242,1.664v-13.042l17.534,9.229c.146.077.306.115.466.115.188,0,.376-.054.541-.159l9.459-6.081v3.24ZM34.45,48.843l-16.219-8.537,23.503-6.268-8.737,5.097c-.477.278-.638.891-.36,1.368.279.476.89.637,1.368.36l7.358-4.293-4.643,5.804c-.495.619-.017,1.625.78,1.625.293,0,.584-.129.781-.375l7.087-8.859,1.938,5.813-12.856,8.265Z"/>
  <path d="M28.5,11.999c0-.553-.448-1-1-1h-8c-.552,0-1,.447-1,1v8c0,.553.448,1,1,1h8c.552,0,1-.447,1-1v-8ZM26.5,18.999h-6v-6h6v6Z"/>
  <path d="M33.5,10.999c-.552,0-1,.447-1,1v8c0,.553.448,1,1,1h8c.552,0,1-.447,1-1v-8c0-.553-.448-1-1-1h-8ZM40.5,18.999h-6v-6h6v6Z"/>
  <path d="M27.5,23.999h-8c-.552,0-1,.447-1,1v8c0,.553.448,1,1,1h8c.552,0,1-.447,1-1v-8c0-.553-.448-1-1-1ZM26.5,31.999h-6v-6h6v6Z"/>
</svg>