<?xml version="1.0" encoding="UTF-8"?>
<svg id="Outline" xmlns="http://www.w3.org/2000/svg" version="1.1" viewBox="0 0 64 64">
  <!-- Generator: Adobe Illustrator 29.5.1, SVG Export Plug-In . SVG Version: 2.1.0 Build 141)  -->
  <path d="M14,46c-1.654,0-3,1.346-3,3s1.346,3,3,3,3-1.346,3-3-1.346-3-3-3ZM14,50c-.551,0-1-.448-1-1s.449-1,1-1,1,.448,1,1-.449,1-1,1Z"/>
  <path d="M14,38c-1.654,0-3,1.346-3,3s1.346,3,3,3,3-1.346,3-3-1.346-3-3-3ZM14,42c-.551,0-1-.448-1-1s.449-1,1-1,1,.448,1,1-.449,1-1,1Z"/>
  <path d="M14,30c-1.654,0-3,1.346-3,3s1.346,3,3,3,3-1.346,3-3-1.346-3-3-3ZM14,34c-.551,0-1-.448-1-1s.449-1,1-1,1,.448,1,1-.449,1-1,1Z"/>
  <path d="M11,25c0,1.654,1.346,3,3,3s3-1.346,3-3-1.346-3-3-3-3,1.346-3,3ZM15,25c0,.552-.449,1-1,1s-1-.448-1-1,.449-1,1-1,1,.448,1,1Z"/>
  <path d="M22,52c1.654,0,3-1.346,3-3s-1.346-3-3-3-3,1.346-3,3,1.346,3,3,3ZM22,48c.551,0,1,.448,1,1s-.449,1-1,1-1-.448-1-1,.449-1,1-1Z"/>
  <path d="M22,44c1.654,0,3-1.346,3-3s-1.346-3-3-3-3,1.346-3,3,1.346,3,3,3ZM22,40c.551,0,1,.448,1,1s-.449,1-1,1-1-.448-1-1,.449-1,1-1Z"/>
  <path d="M22,36c1.654,0,3-1.346,3-3s-1.346-3-3-3-3,1.346-3,3,1.346,3,3,3ZM22,32c.551,0,1,.448,1,1s-.449,1-1,1-1-.448-1-1,.449-1,1-1Z"/>
  <path d="M22,28c1.654,0,3-1.346,3-3s-1.346-3-3-3-3,1.346-3,3,1.346,3,3,3ZM22,24c.551,0,1,.448,1,1s-.449,1-1,1-1-.448-1-1,.449-1,1-1Z"/>
  <path d="M56,27c.55,0,1-.45,1-1v-15c0-1.65-1.35-3-3-3h-24c-1.65,0-3,1.35-3,3v7.18c-.31-.11-.65-.18-1-.18h-8c-.55,0-1,.45-1,1s.45,1,1,1h8c.55,0,1,.45,1,1v32c0,.55-.45,1-1,1H10c-.55,0-1-.45-1-1V21c0-.55.45-1,1-1h4c.55,0,1-.45,1-1s-.45-1-1-1h-4c-1.65,0-3,1.35-3,3v32c0,1.65,1.35,3,3,3h16c1.65,0,3-1.35,3-3v-1.18c.31.11.65.18,1,.18h24c1.65,0,3-1.35,3-3v-19c0-.55-.45-1-1-1s-1,.45-1,1v19c0,.55-.45,1-1,1h-8v-29c.42,0,.78-.27.93-.64,0,0,4.719,1.58,4.75,1.59.313.105.634.047.9-.14.27-.19.42-.49.42-.81v-1h2v6c0,.55.45,1,1,1ZM42,10h2v3h-2v-3ZM29,16h4v2h-4v-2ZM40,50h-10c-.55,0-1-.45-1-1v-29h4v1c0,.32.15.62.42.81.268.205.585.226.9.14l4.75-1.59c.15.37.51.64.93.64v29ZM35,19.61v-5.22l4,1.33v2.56l-4,1.33ZM40,13c-.42,0-.78.27-.93.64l-4.75-1.59c-.31-.1-.64-.05-.9.14-.27.19-.42.49-.42.81v1h-4v-3c0-.55.45-1,1-1h10v3ZM44,50h-2v-29h2v29ZM45,19h-4v-4h4v4ZM51,19.61l-4-1.33v-2.56l4-1.33v5.22ZM52.58,12.19c-.26-.19-.59-.24-.9-.14l-4.75,1.59c-.15-.37-.51-.64-.93-.64v-3h8c.55,0,1,.45,1,1v3h-2v-1c0-.32-.15-.62-.42-.81ZM53,18v-2h2v2h-2Z"/>
</svg>