<?xml version="1.0" encoding="UTF-8"?>
<svg id="Outline" xmlns="http://www.w3.org/2000/svg" version="1.1" viewBox="0 0 64 64">
  <!-- Generator: Adobe Illustrator 29.5.1, SVG Export Plug-In . SVG Version: 2.1.0 Build 141)  -->
  <path d="M54.735,27.223l-1.979.25c-.127.016-.248.056-.359.118l-4.495,2.49-3.671.084c-.505.011-.997.031-1.491.062-.552.034-.971.509-.937,1.06.033.53.473.938.997.938.021,0,.042,0,.062-.002.467-.029.934-.048,1.411-.059l3.92-.09c.162-.003.32-.046.462-.125l4.542-2.517,1.788-.226c.548-.069.937-.569.867-1.118-.068-.547-.565-.939-1.117-.867Z"/>
  <path d="M53.38,16.315c-2.35.29-4.77-.19-6.82-1.36-1.31-.75-2.71-1.28-4.17-1.58l.73-1.41c.12-.24.14-.52.06-.78-.09-.25-.27-.46-.51-.58l-3.6-1.74-3.6-1.74c-.25-.12-.53-.13-.78-.04-.26.09-.46.28-.57.53l-3.41,7.59-4.47,1.5c-2.62.89-4.19,3.6-3.64,6.31.2.94,1,1.6,1.96,1.6.24,0,.46-.04.64-.1l1.56-.53-7.4,16.48c-.08.18-.09.36-.06.54-1.11-.03-2.22.37-2.99,1.15-.38-.12-.77-.18-1.17-.18-2.21,0-4,1.79-4,4v.13c-1.72.44-3,2.01-3,3.87,0,2.21,1.79,4,4,4,.2,0,.41-.02.62-.05.11.05.24.08.38.08.989,0,1.408-1.495.59-2.04-.27-.19-.61-.23-.92-.12-1.34.51-2.67-.54-2.67-1.87,0-1.1.9-2,1.94-2,.06.01.2.02.25.02.32,0,.63-.16.81-.42.19-.26.24-.6.14-.91-.1-.26-.14-.48-.14-.69,0-1.1.9-2,2-2,.34,0,.66.09.97.26.46.27,1.06.13,1.35-.33.66-1.05,2.27-1.22,3.15-.28.23.26.59.37.93.3.34-.07.62-.31.74-.64.29-.79,1.02-1.31,1.86-1.31.67,0,1.29.34,1.67.9.37.56,1.29.56,1.66,0,.38-.56,1-.9,1.67-.9,1.1,0,2,.9,2,2,0,.84-.52,1.57-1.31,1.87-.33.13-.57.41-.63.75-.07.34.05.69.31.93.1.09.18.19.27.31.23.33.36.72.36,1.14,0,1.1-.9,2-2,2-.55,0-1,.45-1,1,0,1.1-.9,2-2,2-.55,0-1.07-.23-1.46-.65-.23-.26-.59-.37-.93-.3-.34.07-.62.31-.74.64-.29.78-1.04,1.31-1.87,1.31-.49,0-.96-.19-1.33-.52-.38-.35-.97-.35-1.35,0-.25.23-.55.39-.87.46-.54.12-.88.65-.77,1.19.12.54.65.88,1.19.77.4-.09.78-.24,1.13-.44.61.35,1.29.54,2,.54,1.22,0,2.36-.57,3.1-1.49.58.32,1.23.49,1.9.49,1.9,0,3.49-1.33,3.9-3.1,1.77-.41,3.1-2,3.1-3.9,0-.44-.08-.87-.22-1.27l7.67-3.84c.34-.16.55-.51.55-.89s-.21-.73-.55-.89l-3.3-1.66.83-3.73c.09-.41-.08-.83-.44-1.06-.35-.23-.8-.21-1.14.04l-5.81,4.36c-.19-.03-.39-.06-.59-.06-.19,0-.37.02-.55.05l3.15-6.08c.07.01.14.03.21.03.18,0,.36-.02.52-.08,2.12-.57,4.29-1,6.46-1.29.55-.07.93-.57.86-1.12-.07-.55-.57-.93-1.12-.86-2.26.29-4.52.75-6.72,1.34-.17-.53-.18-1.08-.02-1.59.29-.95,1.06-1.66,2.05-1.85l6.16-1.23c1.41-.28,2.43-1.52,2.43-2.96,0-.74-.27-1.44-.8-2.02-.83-.9-1.83-1.61-2.93-2.09l2.58-4.98c1.46.23,2.85.71,4.15,1.45,1.96,1.11,4.21,1.7,6.46,1.7.53,0,1.06-.03,1.59-.1.55-.07.94-.57.87-1.11-.07-.55-.57-.94-1.11-.87ZM34.58,38.895l-.41,1.86c-.1.45.11.91.52,1.11l2.22,1.11-3.89,1.94c.07-.3.12-.62.12-.94,0-1.19-.53-2.25-1.36-2.98l2.8-2.1ZM24.56,22.615c-.35-1.72.65-3.45,2.32-4.01l2.71-.91-1.71,3.81-3.32,1.11ZM22.81,40.235c-.28.1-.54.23-.78.38l-.45-.22,13.94-31.02,1.78.86-14.49,30ZM26.09,40.495c-.31-.18-.65-.3-1-.39l4.88-10.1c-.22.85-.2,1.75.09,2.61.02.04.04.07.06.11l-4.03,7.77ZM40.3,23.665c.18.2.27.43.27.67,0,.4-.26.89-.81,1l-3.98.78,2.13-4.1c.9.37,1.72.93,2.39,1.65ZM39.99,13.655s-.01.01-.01.02l-6.72,12.97c-.99.27-1.85.85-2.47,1.65l8.31-17.19,1.77.85-.88,1.7Z"/>
</svg>