<?xml version="1.0" encoding="UTF-8"?>
<svg id="Outline" xmlns="http://www.w3.org/2000/svg" version="1.1" viewBox="0 0 64 64">
  <!-- Generator: Adobe Illustrator 29.5.1, SVG Export Plug-In . SVG Version: 2.1.0 Build 141)  -->
  <path d="M56.89,43.535c-.16-.34-.51-.55-.89-.55H23c-.55,0-1,.45-1,1s.45,1,1,1h30.85c-1.53,1.63-3.35,2.99-5.36,4-2.62,1.31-5.56,2-8.49,2h-16c-5.25,0-10.29-2.21-13.85-6h8.85c.55,0,1-.45,1-1s-.45-1-1-1h-11c-.38,0-.73.21-.89.55-.17.34-.14.75.09,1.05,3.94,5.26,10.22,8.4,16.8,8.4v1c0,1.65,1.35,3,3,3h10c1.65,0,3-1.35,3-3v-1c3.24,0,6.49-.77,9.39-2.22,2.9-1.45,5.46-3.59,7.41-6.18.23-.3.26-.71.09-1.05ZM38,53.985c0,.55-.45,1-1,1h-10c-.55,0-1-.45-1-1v-1h12v1Z"/>
  <path d="M24.151,34.178c.194.194.451.293.707.293.236,0,.472-.083.662-.25l24.042-21.213c.207-.183.329-.442.338-.719s-.097-.543-.292-.738l-4.243-4.243c-.195-.195-.463-.299-.738-.293-.276.009-.536.132-.719.339l-21.213,24.042c-.349.396-.331.995.043,1.368l1.414,1.414ZM44.702,9.475l2.737,2.737-22.539,19.888-.085-.086,19.887-22.539Z"/>
  <path d="M29.803,39.832l1.42,1.42c.195.194.451.293.707.293.236,0,.472-.083.662-.25l9.64-8.5c.414-.365.454-.997.088-1.411-.365-.415-.997-.455-1.412-.089l-8.935,7.879-.092-.092,19.894-22.537,2.735,2.734-10.602,9.356c-.414.365-.454.998-.088,1.412.366.413.998.454,1.412.088l11.4-10.061c.207-.183.329-.443.338-.719.009-.276-.097-.543-.292-.738l-4.24-4.24c-.195-.195-.454-.326-.738-.292-.276.008-.536.13-.718.337l-21.22,24.04c-.35.396-.331.996.042,1.369Z"/>
</svg>