<?xml version="1.0" encoding="UTF-8"?>
<svg id="Outline" xmlns="http://www.w3.org/2000/svg" version="1.1" viewBox="0 0 48 48">
  <!-- Generator: Adobe Illustrator 29.5.1, SVG Export Plug-In . SVG Version: 2.1.0 Build 141)  -->
  <path d="M34,9h-2.86l-.03-1.08c-.05-1.64-1.36-2.92-3.05-2.92-1.66,0-3,1.35-3,3v1h-2.12v-1c0-1.65-1.34-3-3.05-3-1.64,0-2.95,1.28-3,2.92l-.03,1.08h-2.86c-.55,0-1,.45-1,1v4c0,.55.45,1,1,1h2.69l-.69,24.92c-.02.81.28,1.59.85,2.17.57.59,1.33.91,2.15.91h.94c1.66,0,3-1.35,3-3V15h2.12v25c0,1.65,1.34,3,3,3h.94c.82,0,1.58-.32,2.15-.91.57-.58.87-1.36.85-2.17l-.69-24.92h2.69c.55,0,1-.45,1-1v-4c0-.55-.45-1-1-1ZM16.75,13h-1.75v-2h1.8l-.05,2ZM20.94,40c0,.55-.44,1-1,1h-.94c-.27,0-.53-.11-.72-.3-.19-.2-.29-.46-.28-.73l.89-32c.01-.54.45-.97,1.05-.97.56,0,1,.45,1,1v32ZM25.06,13h-2.12v-2h2.12v2ZM29.72,40.7c-.19.19-.45.3-.72.3h-.94c-.56,0-1-.45-1-1V8c0-.55.44-1,1.05-1,.55,0,.99.43,1,.97l.89,32c.01.27-.09.53-.28.73ZM33,13h-1.75l-.05-2h1.8v2Z"/>
</svg>