<?xml version="1.0" encoding="UTF-8"?>
<svg id="Outline" xmlns="http://www.w3.org/2000/svg" version="1.1" viewBox="0 0 64 64">
  <!-- Generator: Adobe Illustrator 29.5.1, SVG Export Plug-In . SVG Version: 2.1.0 Build 141)  -->
  <path d="M56.45,25.999c.36-.61.55-1.29.55-2,0-2.21-1.79-4-4-4-.11,0-.23.01-.35.02-.5-.45-1.1-.77-1.75-.92-.45-1.94-2.37-3.35-4.43-3.06-.69-1.24-2.01-2.04-3.47-2.04-.92,0-1.8.32-2.5.88-.73-.59-1.65-.9-2.63-.88-.44-1.72-2.01-3-3.87-3-.92,0-1.8.32-2.5.88-.7-.56-1.58-.88-2.5-.88-2.21,0-4,1.79-4,4v.13c-.82.22-1.56.7-2.1,1.36-.18-.1-.38-.18-.58-.25l-2.06-8.48c-.06-.25-.22-.48-.45-.61-.23-.14-.5-.18-.76-.12l-3.89.95-3.88.94c-.26.06-.49.22-.62.45-.14.23-.18.5-.12.76l2.74,11.27c-1.34.65-2.28,2.01-2.28,3.6,0,.18.01.35.04.53-1.24.69-2.04,2.01-2.04,3.47h-1c-.55,0-1,.45-1,1v10c0,6.83,5.3,12.44,12,12.95v3.05c0,.55.45,1,1,1h24c.55,0,1-.45,1-1v-3.05c3.1-.23,5.98-1.54,8.2-3.75,2.45-2.45,3.8-5.72,3.8-9.2v-10c0-.25-.1-.46-.25-.64.16-.43.25-.89.25-1.36,0-.71-.19-1.39-.55-2ZM18.55,9.208l1.67,6.87c-.69.14-1.32.47-1.83.92l-1.78-7.32,1.94-.47ZM12.72,10.629l1.94-.47,2.36,9.66c0,.06-.02.12-.02.18,0,.18.01.35.04.53-.32.17-.61.39-.87.65-.3-.09-.61-.14-.92-.16l-2.53-10.39ZM43,54.999h-22v-2h22v2ZM55,39.999c0,2.94-1.14,5.71-3.22,7.78-2.07,2.08-4.84,3.22-7.78,3.22h-24c-6.07,0-11-4.93-11-11v-1h46v1ZM54.48,26.668c.33.37.52.84.52,1.33,0,.36-.1.7-.27,1h-5.73c-.55,0-1,.45-1,1s.45,1,1,1h6v2h-13c-.55,0-1,.45-1,1s.45,1,1,1h13v2H9v-2h29c.55,0,1-.45,1-1s-.45-1-1-1H9v-2h36c.55,0,1-.45,1-1s-.45-1-1-1H11c0-.9.61-1.68,1.48-1.91.27-.08.5-.26.63-.52.13-.26.14-.55.04-.82-.1-.25-.15-.5-.15-.75,0-1.44,1.61-2.51,2.98-1.73.46.26,1.05.12,1.33-.33.27-.43.68-.73,1.16-.85.28-.07.51-.26.64-.52.13-.25.14-.55.04-.82-.1-.25-.15-.5-.15-.75,0-1.1.9-2,2-2,.11,0,.22.02.32.03.01.01.02.01.02.01.42.07.82.28,1.11.6.24.26.59.38.93.31.34-.07.62-.3.75-.63.3-.8,1.03-1.32,1.82-1.32.05.01.19.02.24.02.33,0,.64-.16.82-.43.19-.27.23-.62.12-.92-.09-.23-.13-.45-.13-.67,0-1.1.9-2,2-2,.67,0,1.29.34,1.67.9.37.56,1.29.56,1.66,0,.38-.56,1-.9,1.67-.9,1.1,0,2,.9,2,1.95-.01.05-.02.19-.02.24,0,.33.16.64.43.82.27.19.62.23.92.12.91-.34,1.83.02,2.34.77.37.56,1.29.56,1.66,0,.38-.56,1-.9,1.67-.9.9,0,1.68.61,1.91,1.48.08.27.26.5.52.63s.55.15.82.04c1.34-.54,2.75.49,2.75,1.85,0,.55.45,1,1,1,.59,0,1.15.27,1.53.73.24.29.62.42.99.34.19-.05.35-.07.48-.07,1.1,0,2,.9,2,2,0,.49-.19.96-.52,1.33-.35.38-.35.96,0,1.34Z"/>
</svg>