<?xml version="1.0" encoding="UTF-8"?>
<svg id="Outline" xmlns="http://www.w3.org/2000/svg" version="1.1" viewBox="0 0 64 64">
  <!-- Generator: Adobe Illustrator 29.0.0, SVG Export Plug-In . SVG Version: 2.1.0 Build 186)  -->
  <path d="M56.77351,24.59846l-3.44678-4.91113c-.1543-.2207-.39062-.36914-.65625-.41211-.2627-.04785-.53711.02148-.75342.17969L13.20271,47.84846c-.43896.32227-.54004.93555-.22705,1.38086l2.29785,3.27441c.19434.27734.50391.42578.81934.42578.19141,0,.38525-.05469.55615-.16992l39.86328-26.75684c.22314-.14941.37695-.38281.42578-.64746.04932-.26367-.00977-.53711-.16455-.75684ZM46.63099,25.81227l2.10571,3.00067-9.96606,6.68958-1.8186-2.59149,9.67896-7.09875ZM16.34773,50.55354l-1.17236-1.6709,20.164-14.78882,1.77081,2.52325-20.76245,13.93646ZM50.39723,27.69838l-2.15363-3.06891,4.03284-2.95776,2.27344,3.23926-4.15265,2.78741Z"/>
  <path d="M51.19783,17.17561c.04932-.26465-.00977-.53809-.16406-.75781l-3.44971-4.91992c-.1543-.21973-.39111-.36914-.65625-.41211-.26562-.04883-.5376.02148-.75391.17969l-24.56006,18.00977c-.44531.32715-.5415.95215-.21533,1.39844.32666.44336.95215.54199,1.39795.21484l6.79529-4.98309,1.7749,2.52863-20.76599,13.93298-1.17383-1.66895,6.92969-5.0791c.44531-.32617.5415-.95215.21533-1.39746-.32666-.44531-.95264-.54297-1.39795-.21582l-7.72021,5.65918c-.43896.32227-.54004.93652-.22656,1.38184l2.30029,3.27051c.19434.27637.50391.4248.81885.4248.19141,0,.38525-.05469.55615-.16992l39.86963-26.75c.22314-.14941.37695-.38281.42578-.64648ZM31.20448,24.72279l9.67975-7.09833,2.1109,3.00745-9.96777,6.68787-1.82288-2.59698ZM44.65583,19.51765l-2.15894-3.07581,4.03589-2.95959,2.27734,3.24805-4.1543,2.78735Z"/>
  <circle cx="18.95515" cy="32.41194" r="1"/>
</svg>