<?xml version="1.0" encoding="UTF-8"?>
<svg id="Outline" xmlns="http://www.w3.org/2000/svg" version="1.1" viewBox="0 0 48 48">
  <!-- Generator: Adobe Illustrator 29.5.1, SVG Export Plug-In . SVG Version: 2.1.0 Build 141)  -->
  <path d="M40,19.999h-2.09l3.79-3.69c.19-.19.3-.44.3-.71,0-.26-.1-.52-.28-.71l-2.79-2.86c-.39-.39-1.02-.4-1.42-.02l-8.19,7.99h-2.86l9.65-9.42c.39-.39.4-1.02.02-1.42l-2.79-2.86c-.39-.39-1.02-.4-1.42-.02l-14.07,13.72h-9.85c-1.65,0-3,1.35-3,3,0,1.32.86,2.43,2.04,2.83.44,8.99,7.87,16.17,16.96,16.17s16.52-7.18,16.96-16.17c1.18-.4,2.04-1.51,2.04-2.83,0-1.65-1.35-3-3-3ZM38.19,14.139l1.4,1.43-4.55,4.43h-2.85l6-5.86ZM32.6,8.409l1.4,1.43-10.41,10.16h-2.87l11.88-11.59ZM24,39.999c-7.93,0-14.45-6.19-14.97-14h29.94c-.52,7.81-7.04,14-14.97,14ZM40,23.999H8c-.55,0-1-.45-1-1s.45-1,1-1h32c.55,0,1,.45,1,1s-.45,1-1,1Z"/>
</svg>