<?xml version="1.0" encoding="UTF-8"?>
<svg id="Outline" xmlns="http://www.w3.org/2000/svg" version="1.1" viewBox="0 0 64 64">
  <!-- Generator: Adobe Illustrator 29.5.1, SVG Export Plug-In . SVG Version: 2.1.0 Build 141)  -->
  <path d="M40.24966,11.21027l-1.42999-1.13995c-.64001-.52002-1.45001-.75-2.26001-.65002-.82001.10004-1.54999.51001-2.04999,1.16998l-9.62,12.51001c-.34003.44-.26001,1.07001.17999,1.40002.44.33997,1.07001.26001,1.39996-.17999l7.72003-10.04004,2.73999,2.62-25.97003,31.03003c-.38.45001-1.01996.51001-1.45996.15002-.44-.35004-.51001-1-.17999-1.45001l14.69-19.10999c.33997-.44.25995-1.07001-.18005-1.40002-.43994-.34003-1.06995-.26001-1.39996.17999l-14.70001,19.12c-.99998,1.32999-.77998,3.17991.50992,4.21996,1.26087,1.01665,3.18472.83759,4.25009-.41998L40.66964,15.54029c.53998-.63.78998-1.42999.71002-2.25-.09003-.82001-.48999-1.56-1.13-2.08002ZM39.13967,14.26032l-.92004,1.09998-2.79999-2.66998.66998-.88c.17999-.22998.42999-.37.71002-.40002.27997-.03998.54999.04004.77002.22003l1.42999,1.14001c.21997.17999.35999.42999.38.70996.02997.28003-.05005.56-.23999.78003Z"/>
  <path d="M56.0071,19.03364l-1.30029-1.30078c-.57422-.57422-1.33545-.88965-2.1665-.88867-.8252.00488-1.59814.33496-2.18213.93359l-30.40332,31.70312c-1.13817,1.19725-1.11475,3.10834.04292,4.2519,1.1351,1.12127,3.07512,1.18051,4.26372.04888l19.81006-18.98926c.39893-.38184.41211-1.01465.02979-1.41406-.38232-.39844-1.01514-.41113-1.41357-.0293l-19.80713,18.98633c-.42041.39844-1.06152.39551-1.46826-.0166-.40381-.39844-.40771-1.04004-.01123-1.45605l28.23248-29.43982,2.74396,2.62775-6.80017,6.52789c-.39844.38281-.41162,1.01562-.02881,1.41406.38281.39941,1.01514.41016,1.41357.0293l9.00586-8.64551c.59326-.5791.92285-1.35254.92773-2.17773.00537-.81836-.31055-1.58691-.88867-2.16504ZM54.57742,21.93891l-.75555.72534-2.80377-2.685.77759-.81085c.2041-.20996.47363-.35547.76465-.3252.27637,0,.53662.1084.73193.30371l1.30029,1.30078c.19727.19727.30518.45996.30371.73828-.00195.28711-.11719.55664-.31885.75293Z"/>
</svg>