<?xml version="1.0" encoding="UTF-8"?>
<svg id="Outline" xmlns="http://www.w3.org/2000/svg" version="1.1" viewBox="0 0 64 64">
  <!-- Generator: Adobe Illustrator 29.5.1, SVG Export Plug-In . SVG Version: 2.1.0 Build 141)  -->
  <path d="M55.959,8.041c-1.02-1.02-2.59-1.3-4.42-.8-1.64.44-3.34,1.48-4.78,2.92-.86.86-1.58,1.84-2.12,2.84h-8.64c-.55,0-1,.45-1,1s.45,1,1,1h12c.55,0,1,.45,1,1v4c0,.55-.45,1-1,1h-24c-.55,0-1-.45-1-1v-4c0-.55.45-1,1-1h4c.55,0,1-.45,1-1s-.45-1-1-1h-4c-1.65,0-3,1.35-3,3v4c0,1.65,1.35,3,3,3v10h-5c-6.62,0-12,5.38-12,12s5.38,12,12,12h14c8.27,0,15-6.73,15-15v-19c1.65,0,3-1.35,3-3v-.64c1-.54,1.98-1.26,2.84-2.12,1.44-1.44,2.48-3.14,2.92-4.78.5-1.83.22-3.4-.8-4.42ZM25.999,28.591l2.19,2.41h-2.19v-2.41ZM39.099,31.001h-6.38l3.19-3.51,3.19,3.51ZM38.169,27.001h6.52l-3.31,3.53-3.21-3.53ZM30.449,30.511l-3.19-3.51h6.39l-3.2,3.51ZM45.999,42.001c0,6.89-5.39,12.52-12.16,12.96-.55-1.25-.84-2.57-.84-3.96,0-5.51,4.49-10,10-10,1.02,0,2.03.16,3,.47v.53ZM45.999,39.391c-.98-.25-1.98-.39-3-.39-6.62,0-12,5.38-12,12,0,1.39.24,2.72.69,4h-12.69c-5.51,0-10-4.49-10-10s4.49-10,10-10h6c.55,0,1-.45,1-1v-1h20v6.39ZM45.999,31.001h-2.33l2.33-2.48v2.48ZM45.999,25.001h-20v-2h20v2ZM54.829,11.941c-.35,1.29-1.23,2.7-2.41,3.88-.44.45-.92.85-1.42,1.2v-1.02c0-1.65-1.35-3-3-3h-1.02c.35-.5.75-.98,1.2-1.42,1.18-1.18,2.59-2.06,3.88-2.41,1.1-.3,2-.2,2.48.29.49.48.59,1.38.29,2.48Z"/>
  <circle cx="31.999" cy="14.001" r="1"/>
</svg>