<?xml version="1.0" encoding="UTF-8"?>
<svg id="Outline" xmlns="http://www.w3.org/2000/svg" version="1.1" viewBox="0 0 64 64">
  <!-- Generator: Adobe Illustrator 29.3.1, SVG Export Plug-In . SVG Version: 2.1.0 Build 151)  -->
  <path d="M43.64669,36.53013l-5.21002-2.62v-8.20996c1.15997-.42004,2-1.52002,2-2.82001v-6c0-1.65002-1.34998-3-3-3h-5c-.54999,0-1,.45001-1,1s.45001,1,1,1h5c.54999,0,1,.45001,1,1v6c0,.54999-.45001,1-1,1h-20c-.54999,0-1-.45001-1-1v-6c0-.54999.45001-1,1-1h7c.54999,0,1-.45001,1-1s-.45001-1-1-1h-1.72998c.45996-2.10004-.17999-4.33002-1.71002-5.85004-.79999-.79999-1.95001-1.07001-3.02002-.71997-1.54999.52002-2.38995,2.19-1.87,3.73999.22003.65997.33002,1.34003.33002,2.03998v.97003c-1.15997.41998-2,1.52002-2,2.82001v6c0,1.29999.84003,2.39996,2,2.82001v16.02997c0,2.52002,1.37,4.85999,3.56,6.09003l13.57001,7.63995c1.62.92004,3.44,1.38,5.27002,1.38,1.13995,0,2.28998-.17999,3.39996-.54999,2.87-.95996,5.21002-3.09998,6.42999-5.88,2.28003-5.22998.07001-11.32001-5.01996-13.88ZM18.60665,9.21013c.34003-.12.72003-.02997.98004.23004,1.06995,1.08002,1.50995,2.65997,1.13995,4.14001l-.07001.29999h-2.21997v-.79004c0-.90997-.15002-1.81-.42999-2.66998-.16998-.5.09998-1.03998.59998-1.21002ZM25.04666,48.37016l-4.06-2.28998c-1.57001-.88-2.54999-2.55005-2.54999-4.35004v-5.84998c4.40997,0,8,3.58997,8,8,0,1.60999-.48999,3.16998-1.39001,4.48999ZM46.82669,49.61015c-.98004,2.26001-2.89001,4-5.23004,4.78998-2.32996.78003-4.89996.53003-7.04999-.67999l-7.76001-4.37c1.07001-1.60999,1.65002-3.51996,1.65002-5.46997,0-5.51001-4.48999-10-10-10v-8h18v8.64996c0,.38.21002.72003.54999.89001l5.76001,2.89001c4.15002,2.08997,5.94,7.04999,4.08002,11.29999Z"/>
  <circle cx="28.43667" cy="14.88017" r="1"/>
</svg>