<?xml version="1.0" encoding="UTF-8"?>
<svg id="Outline" xmlns="http://www.w3.org/2000/svg" version="1.1" viewBox="0 0 64 64">
  <!-- Generator: Adobe Illustrator 29.3.1, SVG Export Plug-In . SVG Version: 2.1.0 Build 151)  -->
  <path d="M51.59998,37.16498l-.07996-.15997.07996-.15002c.89001-1.73999,1.09003-3.69.61005-5.56.48999-.65997.78998-1.46997.78998-2.35999,0-2.21002-1.78998-4-4-4-.42999,0-.84003.08997-1.22998.20996-.25-.96997-.67999-1.87-1.28003-2.66998.32001-.60999.51001-1.29999.51001-2.02997v-9.02002c0-2.47998-2.01001-4.48999-4.48999-4.48999-1.22998,0-2.42999.51996-3.27002,1.41998l-3.32001,3.53998c-.82996-.59998-1.82996-.95996-2.91998-.95996s-2.09003.35999-2.91998.95996l-3.32001-3.54999c-.85004-.89996-2.04004-1.40997-3.27002-1.40997-1.20001,0-2.33002.46997-3.17999,1.31-.84003.84998-1.31,1.97998-1.31,3.17999v.51001c0,.54999.45001,1,1,1s1-.45001,1-1v-.51001c0-.66998.26001-1.28998.72998-1.76001.94-.95001,2.64001-.92999,3.57001.04999l3.42999,3.66003c-.08997.13995-.16998.28998-.23999.44l-4.28998-.86005c-.54999-.10999-1.07001.24005-1.17999.78003-.11005.54999.23999,1.07001.77997,1.17999l4.22003.84003c0,.06-.02002.12-.02002.17999s.02002.12.02002.17999l-4.22003.83997c-.53989.11003-.8899.62983-.78002,1.17978.10984.54977.65156.85581,1.18005.78024l4.28998-.85999c.07001.14996.15002.29999.23999.44l-3.42999,3.64996c-.46997.5-1.13.79004-1.81.79004-1.37,0-2.48999-1.12-2.48999-2.48999v-.51001c0-.54999-.45001-1-1-1s-1,.45001-1,1v.51001c0,.72998.19,1.41998.51001,2.02997-.76001,1.02002-1.27002,2.20001-1.47003,3.47998l-.01996.16003-.15002.08002c-2.01001,1.00995-3.44,2.78998-4.03998,4.92999-1.63.51001-2.83002,2.01001-2.83002,3.81,0,1.77997,1.17999,3.27997,2.79999,3.79999-.95996,3.54999.66998,7.35999,4.08002,9.09003l.14001.06995.01996.16003c.38,2.45996,1.89001,4.54999,4.05005,5.71997.38995,1.81,1.98999,3.16003,3.90997,3.16003,1.07001,0,2.03998-.42999,2.75-1.10999,1.28998.81995,2.77002,1.23999,4.25,1.23999,2.03998,0,4.08002-.78003,5.59998-2.32001l.12-.13.17004.02997c3.27997.54004,6.47998-1.01996,8.09998-3.84998.33002.08002.66003.14001,1.01001.14001,2.21002,0,4-1.79004,4-4,0-.79999-.23999-1.54004-.64001-2.16003,1.38-2.32996,1.48999-5.16998.23999-7.60999ZM42.20001,16.95496l-4.22003-.83997c0-.06.02002-.12.02002-.17999s-.02002-.12-.02002-.17999l4.22003-.84003c.53998-.10999.89001-.63.77997-1.17999-.10999-.53998-.63-.89001-1.17999-.78003l-4.28998.86005c-.07001-.15002-.15002-.30005-.23999-.44l3.42999-3.65002c.45996-.5,1.13-.78998,1.81-.78998,1.37,0,2.48999,1.12,2.48999,2.48999v9.02002c0,1.37-1.12,2.48999-2.48999,2.48999-.67999,0-1.35004-.29004-1.81-.79004l-3.42999-3.64996c.08997-.14001.16998-.29004.23999-.44,0,0,4.28998.85999,4.29006.86.53782.0769,1.07229-.21778,1.17991-.77998.11005-.55005-.23999-1.07001-.77997-1.18005ZM33,12.935c1.65002,0,3,1.34998,3,3s-1.34998,3-3,3-3-1.35004-3-3,1.34998-3,3-3ZM13,34.935c0-1.10004.90002-2,2-2s2,.89996,2,2c0,1.09998-.90002,2-2,2s-2-.90002-2-2ZM26,54.935c-1.09998,0-2-.90002-2-2,0-1.10004.90002-2,2-2s2,.89996,2,2c0,1.09998-.90002,2-2,2ZM48,48.935c-1.09998,0-2-.90002-2-2,0-1.10004.90002-2,2-2s2,.89996,2,2c0,1.09998-.90002,2-2,2ZM49.84003,43.40497c-.56-.28998-1.17004-.46997-1.84003-.46997-2.21002,0-4,1.78998-4,4,0,1.13.47998,2.14996,1.23999,2.88-1.21997,2.08997-3.59998,3.25-6.02997,2.84998l-.67004-.10999c-.32001-.04999-.63995.06-.87.27997l-.48999.5c-1.96997,1.99005-5.08002,2.26001-7.37.77002.10999-.38.19-.76001.19-1.16998,0-2.21002-1.78998-4-4-4-1.71002,0-3.15997,1.07996-3.72998,2.58997-1.20001-.90997-2.02002-2.25-2.25-3.76996l-.10004-.67999c-.04999-.32001-.25-.60004-.54999-.75l-.59998-.29004c-2.67004-1.35999-3.89001-4.44-2.92004-7.20001,1.80005-.38995,3.15002-1.98999,3.15002-3.89996,0-1.87-1.29999-3.44-3.03998-3.87.52997-1.33002,1.50995-2.42999,2.81-3.09003l.60999-.31c.28998-.15002.48999-.41998.53998-.73999l.10004-.66998c.12-.79004.40997-1.54004.82001-2.20001.75.53998,1.65997.88,2.64996.88,1.22998,0,2.41998-.51001,3.27002-1.42004l3.32001-3.53998c.82996.60004,1.82996.96002,2.91998.96002s2.09003-.35999,2.91998-.96002l3.32001,3.53998c.84003.90002,2.04004,1.42004,3.27002,1.42004.98999,0,1.89996-.33002,2.64996-.88.41003.65997.70001,1.40997.82001,2.19l.01001.08002c-.60999.69995-.98999,1.60999-.98999,2.60999,0,2.20996,1.78998,4,4,4,.51001,0,.98999-.10004,1.42999-.28003.12,1.12-.08002,2.26001-.60999,3.29004l-.31.60999c-.15002.27997-.15002.62,0,.89996l.31.62006c.87,1.69995.85999,3.65997.02002,5.32996ZM49,30.935c-1.09998,0-2-.90002-2-2,0-1.10004.90002-2,2-2s2,.89996,2,2c0,1.09998-.90002,2-2,2Z"/>
  <path d="M44.41309,40.64301c.10352-.31934.04004-.6709-.1709-.93359-1.30859-1.63379-1.30859-3.91504,0-5.54883.21094-.2627.27441-.61426.1709-.93359-.10449-.32031-.3623-.56738-.6875-.65625-2.01758-.55176-3.3584-2.39746-3.26074-4.48828.01562-.33594-.13867-.6582-.41113-.85547-.27344-.19922-.62598-.24609-.94141-.12695-1.9541.73828-4.12695.03418-5.27637-1.71484-.37109-.5625-1.30078-.5625-1.67188,0-1.15039,1.74902-3.32324,2.45312-5.27637,1.71484-.31543-.11816-.66797-.07129-.94141.12695-.27246.19727-.42676.51953-.41113.85547.09766,2.09082-1.24316,3.93652-3.26074,4.48828-.3252.08887-.58301.33594-.6875.65625-.10352.31934-.04004.6709.1709.93359,1.30859,1.63379,1.30859,3.91504,0,5.54883-.21094.2627-.27441.61426-.1709.93359.10449.32031.3623.56738.6875.65625,2.01758.55176,3.3584,2.39746,3.26074,4.48828-.01562.33594.13867.6582.41113.85547.27344.19824.625.24414.94141.12695,1.95312-.73926,4.12598-.03418,5.27637,1.71484.18555.28125.49902.4502.83594.4502s.65039-.16895.83594-.4502c1.14941-1.74902,3.32227-2.4541,5.27637-1.71484.31641.11914.66797.07227.94141-.12695.27246-.19727.42676-.51953.41113-.85547-.09766-2.09082,1.24316-3.93652,3.26074-4.48828.3252-.08887.58301-.33594.6875-.65625ZM41.96094,39.84711c-1.83496.93066-3.10352,2.67773-3.42285,4.71094-2.03418-.33105-4.08594.34277-5.53809,1.79883-1.21094-1.21387-2.83887-1.87988-4.52441-1.87988-.33594,0-.67578.02637-1.01367.08105-.31934-2.0332-1.58789-3.78027-3.42285-4.71094.9375-1.83301.9375-3.99121,0-5.82422,1.83496-.93066,3.10352-2.67773,3.42285-4.71094,2.03125.32617,4.08496-.34375,5.53809-1.79883,1.45215,1.45605,3.50586,2.12793,5.53809,1.79883.31934,2.0332,1.58789,3.78027,3.42285,4.71094-.9375,1.83301-.9375,3.99121,0,5.82422Z"/>
  <circle cx="40" cy="49.935" r="1"/>
  <circle cx="35" cy="50.935" r="1"/>
  <circle cx="20" cy="15.935" r="1"/>
</svg>