<?xml version="1.0" encoding="UTF-8"?>
<svg id="Outline" xmlns="http://www.w3.org/2000/svg" version="1.1" viewBox="0 0 64 64">
  <!-- Generator: Adobe Illustrator 29.3.1, SVG Export Plug-In . SVG Version: 2.1.0 Build 151)  -->
  <path d="M57.28917,29.06126c-.04319-.55183-.52592-.96244-1.07503-.9178-9.63758.75768-19.41923-.85152-28.28965-4.66071-.50601-.21846-1.0959.0164-1.31372.5245-.21765.50714.01736,1.09606.5245,1.31372,1.37595.59072,2.77893,1.1125,4.19359,1.60035-.00501.02138-.01923.03793-.02291.0599l-1.11465,6.65263-3.09757,3.9613-5.2822.09227c-.36653.00691-.70016.21341-.8695.53853s-.14671.71607.05772,1.02064l2.95237,4.38111-1.54349,5.0517c-.10722.35038-.0146.73127.2427.99222.25697.26287.63738.36226.98906.26077l5.07771-1.45436,4.32636,3.03001c.61203.42864,1.54454.02584,1.5729-.78308l.1874-5.27891,4.21915-3.17952c.29254-.2213.44136-.58353.38725-.94609s-.30222-.66653-.64648-.79253l-4.96365-1.80896-1.63722-4.75461,1.07576-6.42051c2.63872.81467,5.32529,1.4715,8.04892,1.92785,2.22075.37209,4.4628.61673,6.71219.74588l-.60262,3.59665c-3.42031-.07829-6.47954,2.36289-7.06104,5.83349-.63775,3.80632,1.94072,7.42274,5.74704,8.06049s7.42274-1.94072,8.06049-5.74704c.5815-3.4706-1.51495-6.77562-4.77399-7.81645l.64406-3.844c2.11896.05253,4.24132.00278,6.35675-.16442.55087-.04336.96212-.524.9178-1.07503ZM32.66786,40.43517l3.68241,1.3418-3.12994,2.35798c-.24033.18153-.38635.46204-.3972.76322l-.13919,3.9156-3.20899-2.24671c-.12403-.08712-.26317-.14311-.40861-.16748s-.29523-.01679-.44088.02515l-3.76605,1.07804,1.1447-3.74712c.08791-.28826.0413-.60105-.12674-.851l-2.19043-3.24941,3.91866-.06824c.30103-.006.58403-.14672.77031-.38385l2.41341-3.08699,1.2754,3.70505c.09881.28489.32049.51017.60313.61396ZM52.17204,41.63066c-.45556,2.71894-3.03856,4.56059-5.75749,4.10503s-4.56059-3.03856-4.10503-5.75749,3.03856-4.56059,5.75749-4.10503,4.56059,3.03856,4.10503,5.75749Z"/>
  <path d="M45.92404,42.61168c-.09134.54514.27587,1.06016.82101,1.1515,1.63155.27337,3.18113-.83146,3.4545-2.46302.09134-.54514-.27587-1.06016-.82101-1.1515s-1.06016.27587-1.1515.82101c-.09118.54417-.60733.91218-1.1515.82101-.54514-.09134-1.06016.27587-1.1515.82101Z"/>
  <path d="M13.54296,36.1723c-.54417-.09118-.91218-.60733-.82101-1.1515.09134-.54514-.27587-1.06016-.82101-1.1515s-1.06016.27587-1.1515.82101c-.27337,1.63155.83146,3.18113,2.46302,3.4545.54514.09134,1.06016-.27587,1.1515-.82101s-.27587-1.06016-.82101-1.1515Z"/>
  <path d="M15.83798,28.52632l1.43412-8.55934c.86257.57395,1.73526,1.13518,2.62781,1.66724.10976.06592.22756.10744.34699.12745.39489.06616.80652-.10944,1.02405-.47402.28249-.47449.12793-1.08855-.34656-1.37104-2.71344-1.6171-5.29313-3.44152-7.67008-5.42405l-2.34086-1.94381c-.42514-.35244-1.05566-.29471-1.4081.13044s-.29471,1.05566.13044,1.4081l2.33909,1.94253c1.11692.9315,2.28242,1.82424,3.47939,2.6835l-1.58879,9.48251c-3.42031-.07829-6.47954,2.36289-7.06104,5.83349-.63775,3.80632,1.94072,7.42274,5.74704,8.06049s7.42274-1.94072,8.06049-5.74704c.5815-3.4706-1.51495-6.77562-4.77399-7.81645ZM12.88197,40.11731c-2.71894-.45556-4.56059-3.03856-4.10503-5.75749s3.03856-4.56059,5.75749-4.10503,4.56059,3.03856,4.10503,5.75749-3.03856,4.56059-5.75749,4.10503Z"/>
  <circle cx="23.91167" cy="22.70049" r="1"/>
</svg>