<?xml version="1.0" encoding="UTF-8"?>
<svg id="Outline" xmlns="http://www.w3.org/2000/svg" version="1.1" viewBox="0 0 64 64">
  <!-- Generator: Adobe Illustrator 29.5.1, SVG Export Plug-In . SVG Version: 2.1.0 Build 141)  -->
  <path d="M48.36,25.51c-.32-.45-.95-.56-1.4-.24-.45.32-.56.95-.24,1.4.22.31.43.63.63.95-4.27-2.97-9.65-4.62-15.35-4.62s-11.07,1.65-15.33,4.61c3.17-5.16,8.85-8.61,15.33-8.61,3.26,0,6.45.88,9.23,2.55.47.28,1.08.13,1.37-.35.28-.47.13-1.08-.35-1.37-.41-.24-.82-.47-1.25-.69v-3.14c0-1.65-1.35-3-3-3h-2.56c.35-.59.56-1.27.56-2,0-2.21-1.79-4-4-4s-4,1.79-4,4c0,.73.21,1.41.56,2h-2.56c-1.65,0-3,1.35-3,3v3.16c-6.51,3.3-11,10.05-11,17.84,0,11.03,8.97,20,20,20s20-8.97,20-20c0-4.15-1.26-8.12-3.64-11.49ZM32,9c1.1,0,2,.9,2,2s-.9,2-2,2-2-.9-2-2,.9-2,2-2ZM25,16c0-.55.45-1,1-1h12c.55,0,1,.45,1,1v2.27c-2.23-.83-4.6-1.27-7-1.27-2.47,0-4.82.47-7,1.29v-2.29ZM14.76,31.84c4.2-4.35,10.46-6.84,17.24-6.84s13.05,2.49,17.24,6.84c.12.39.22.77.31,1.16H14.46c.09-.39.19-.78.3-1.16ZM32,55c-6.48,0-12.16-3.45-15.33-8.61,4.26,2.96,9.63,4.61,15.33,4.61s11.07-1.65,15.33-4.61c-3.17,5.16-8.85,8.61-15.33,8.61ZM49.24,42.16c-4.2,4.35-10.46,6.84-17.24,6.84s-13.04-2.49-17.24-6.84c-.11-.38-.21-.77-.3-1.16h35.08c-.09.39-.19.78-.3,1.16ZM14.12,39c-.08-.66-.12-1.32-.12-2s.04-1.34.12-2h35.76c.07.66.12,1.33.12,2,0,.68-.04,1.34-.12,2H14.12Z"/>
  <circle cx="45" cy="23" r="1"/>
</svg>