<?xml version="1.0" encoding="UTF-8"?>
<svg id="Outline" xmlns="http://www.w3.org/2000/svg" version="1.1" viewBox="0 0 64 64">
  <!-- Generator: Adobe Illustrator 29.3.1, SVG Export Plug-In . SVG Version: 2.1.0 Build 151)  -->
  <path d="M56.81,31.41873c-.09003-.14001-1.52002-2.09003-3.71002-3.60999,1.45001-2.27002,2.02002-4.65002,2.04004-4.76001.09998-.41998-.08002-.84998-.44-1.08002-.10004-.06-2.19-1.33997-4.81-1.91998.46997-2.63.08997-5.02002.07001-5.17999-.07001-.42999-.40002-.76001-.83002-.83002-.16003-.02002-2.54999-.39996-5.16998.07001-.58002-2.62-1.86005-4.71002-1.92999-4.81-.22003-.35999-.65002-.53998-1.07001-.44-.12.02002-2.5.59998-4.76001,2.03998-1.53003-2.19-3.48004-3.62-3.62-3.70996-.35004-.25-.81-.25-1.16003,0-.13995.08997-2.08997,1.51996-3.60999,3.70996-2.27002-1.44995-4.65002-2.01996-4.76001-2.03998-.41998-.09998-.84998.08002-1.08002.44-.06.09998-1.33997,2.19-1.91998,4.81-2.63-.46997-5.01996-.09003-5.17999-.07001-.42999.07001-.76001.40002-.83002.83002-.01996.15997-.39996,2.54999.07001,5.16998-2.62.58002-4.70996,1.85999-4.81,1.92999-.35999.22003-.53998.65002-.44,1.07001.02002.12.60004,2.5,2.04004,4.76001-2.19,1.52997-3.62,3.47998-3.71002,3.62-.25.34998-.25.81,0,1.15997.09003.14001,1.52002,2.09003,3.71002,3.61005-1.45001,2.26996-2.02002,4.64996-2.04004,4.76001-.09998.41998.08002.84998.44,1.07996.10004.06,2.19,1.34003,4.81,1.92004-.46997,2.62994-.08997,5.01996-.07001,5.17999.07001.42999.40002.76001.83002.82996.09998.01001,1.06.17004,2.40002.17004.82001,0,1.77997-.06,2.76996-.23999.58002,2.62,1.86005,4.70996,1.92999,4.81.18005.28998.5.46997.84003.46997.08002,0,.15997-.01001.22998-.02997.12-.02002,2.5-.60004,4.76001-2.04004,1.53003,2.19,3.48004,3.62,3.62,3.71002.17004.13.38.19.58002.19s.40997-.06.58002-.19c.13995-.09003,2.08997-1.52002,3.60999-3.71002,2.27002,1.45001,4.65002,2.02002,4.76001,2.04004.08002.01996.15997.02997.22998.02997.34003,0,.66003-.16998.85004-.46997.06-.10004,1.33997-2.19,1.91998-4.81,1,.17999,1.95996.23999,2.77997.23999,1.34003,0,2.30005-.16003,2.40002-.17004.42999-.06995.76001-.39996.83002-.82996.01996-.16003.39996-2.55005-.07001-5.17004,2.62-.57996,4.70996-1.85999,4.81-1.92999.35999-.21997.53998-.64996.44-1.07001-.02002-.12-.60004-2.5-2.04004-4.75995,2.19-1.53003,3.62-3.48004,3.71002-3.62006.25-.34998.25-.81,0-1.15997ZM49.37,21.98874c1.51001.32001,2.85999.92999,3.62,1.32001-.26001.81-.77997,2.19-1.62,3.48999-1.02997-.47998-2.16998-.79999-3.37-.79999-.03998,0-.07001.01001-.10999.01001-.13-.34003-.27002-.68005-.42004-1.01001.03003-.03003.06006-.04999.09003-.07001.84998-.85004,1.41998-1.88,1.81-2.94ZM48.07001,15.92874c.12,1.52002.15997,5.01001-1.60999,7.17999-1.39001-2.27002-3.31-4.17999-5.57001-5.57001,2.16998-1.77002,5.65997-1.72998,7.17999-1.60999ZM40.70001,11.00876c.39001.75995,1,2.09998,1.32001,3.60999-1.07001.39001-2.10004.96997-2.95001,1.82001-.02002.02997-.03998.06-.07001.08997-.33002-.14996-.66998-.28998-1.01001-.41998,0-.03998.01001-.07001.01001-.10999,0-1.20001-.32001-2.34003-.79999-3.37,1.29999-.84003,2.67999-1.36005,3.5-1.62ZM32,9.27872c1.15997.98004,3.69,3.42004,3.96997,6.21002-1.27997-.31-2.59998-.48999-3.96997-.48999-1.34003,0-2.66998.16998-3.96997.47998.28998-2.78998,2.81-5.21997,3.96997-6.20001ZM23.31,11.00876c.81.25995,2.19.77997,3.48999,1.62-.47998,1.02997-.79999,2.16998-.79999,3.37,0,.02997.01001.06.01001.09998-.35004.12-.69.26001-1.02002.41003-.02002-.02002-.03998-.04004-.06-.07001-.84998-.85004-1.88-1.42004-2.94-1.81.32001-1.51001.92999-2.86005,1.32001-3.62ZM14.62,21.97873c.39001,1.07001.97003,2.09998,1.82001,2.95001.02997.02002.04999.03998.08002.06-.15002.33997-.29004.66998-.42004,1.02002-.02997,0-.06995-.01001-.09998-.01001-1.20001,0-2.34003.32001-3.37.79999-.84003-1.29999-1.35999-2.67999-1.62-3.5.76001-.39001,2.09998-1,3.60999-1.32001ZM9.28003,31.99875c.97998-1.16003,3.40997-3.67999,6.19995-3.97003-.31,1.29004-.47998,2.62-.47998,3.97003,0,1.37.17999,2.69.48999,3.96997-2.78998-.27997-5.22998-2.81-6.20996-3.96997ZM14.63,42.00876c-1.51001-.32001-2.85999-.93005-3.62-1.32001.26001-.81.77997-2.19,1.62-3.48999,1.02997.47998,2.16998.79999,3.37.79999.03998,0,.07001-.01001.10999-.01001.13.33997.27002.67999.42004,1.01001-.03003.02997-.06006.04999-.09003.07001-.84998.84998-1.41998,1.88-1.81,2.94ZM15.92999,48.06876c-.12-1.52002-.15997-5.01001,1.60999-7.17999,1.39001,2.26996,3.31,4.17999,5.57001,5.56995-2.16998,1.77002-5.65997,1.73004-7.17999,1.61005ZM23.29999,52.98874c-.39001-.76001-1-2.10999-1.32001-3.62,1.07001-.39001,2.10004-.96002,2.95001-1.81.02002-.03003.03998-.06.07001-.09003.33002.15002.66998.29004,1.01001.42004,0,.03998-.01001.06995-.01001.10999,0,1.20001.32001,2.33997.79999,3.37-1.29999.83997-2.67999,1.35999-3.5,1.62ZM32,54.71872c-1.15997-.97998-3.69-3.41998-3.96997-6.20996,1.27997.31,2.59998.48999,3.96997.48999s2.69-.17999,3.96997-.48999c-.27997,2.78998-2.81,5.22998-3.96997,6.20996ZM32,46.99875c-8.27002,0-15-6.73004-15-15,0-2.70001.71997-5.34003,2.09003-7.64001.27997-.46997.12994-1.09003-.35004-1.37-.39001-.22998-.87-.15002-1.19.15002-1.77997-2.18005-1.73999-5.68005-1.62-7.21002,1.53003-.12,5.02002-.16003,7.20001,1.62-.31.31-.40002.78998-.16003,1.19.28003.46997.89001.63,1.37006.34998,2.31995-1.37,4.96997-2.08997,7.65997-2.08997,8.27002,0,15,6.72998,15,15s-6.72998,15-15,15ZM40.69,52.98874c-.81-.26001-2.19-.78003-3.48999-1.62.47998-1.03003.79999-2.16998.79999-3.37,0-.04004-.01001-.07001-.01001-.10999.34003-.13.67999-.27002,1.01001-.42004.03003.03003.04999.06.07001.09003.84998.84998,1.88,1.41998,2.94,1.81-.32001,1.51001-.92999,2.85999-1.32001,3.62ZM48.07001,48.06876c-1.52002.12-5.01001.15997-7.17999-1.61005,2.26996-1.38995,4.17999-3.31,5.57001-5.56995,1.76996,2.16998,1.72998,5.65997,1.60999,7.17999ZM49.38,42.01871c-.39001-1.06995-.97003-2.09998-1.82001-2.94995-.02997-.02002-.06-.04004-.09003-.07001.15002-.33002.29004-.67004.42004-1.01001.03998,0,.07001.01001.10999.01001,1.20001,0,2.34003-.32001,3.37-.79999.84003,1.29999,1.35999,2.67999,1.62,3.5-.76001.38995-2.09998,1-3.60999,1.31995ZM48.51001,35.96872c.31-1.27997.48999-2.59998.48999-3.96997s-.17999-2.69-.48999-3.97003c2.78998.28003,5.22998,2.81,6.20996,3.97003-.97998,1.15997-3.41998,3.69-6.20996,3.96997Z"/>
  <path d="M19.19336,31.39865c-.26709.35547-.26709.84424,0,1.2002.0835.11133,1.70105,2.23126,3.98438,3.06366-1.02838,2.21222-.67712,4.83411-.6582,4.96759.06299.43994.40869.78613.84912.84863.05762.0083.55811.07666,1.28223.07666.99933,0,2.42169-.13989,3.69904-.73474.83539,2.29517,2.94177,3.90387,3.04999,3.98474.17773.1333.38867.2002.6001.2002.21094,0,.42236-.06689.6001-.2002.11133-.0835,2.23212-1.70172,3.06421-3.9859,1.28888.59912,2.71588.73395,3.71021.73395.71143,0,1.20117-.06641,1.25684-.07422.43994-.06299.78613-.40869.84863-.84912.02002-.13757.375-2.78033-.651-4.98358,2.29144-.8371,3.89685-2.93951,3.97766-3.04767.26709-.35547.26709-.84424,0-1.2002-.0835-.11133-1.70105-2.23126-3.98438-3.06366,1.02838-2.21222.67712-4.83411.6582-4.96759-.06299-.43994-.40869-.78613-.84912-.84863-.13745-.02039-2.77478-.37415-4.97644.64783-.84045-2.28577-2.9455-3.88635-3.05676-3.96912-.35449-.26465-.8418-.26465-1.19629,0-.11151.08295-2.2243,1.68884-3.06158,3.98126-2.21301-1.03033-4.8385-.67938-4.97162-.66046-.43994.06299-.78613.40869-.84863.84912-.02002.13757-.375,2.78033.651,4.98358-2.29144.8371-3.89685,2.93951-3.97766,3.04767ZM21.31836,31.99924c.60895-.63501,1.6875-1.58203,2.91589-1.88788-.14752.60638-.23425,1.23627-.23425,1.88739,0,.65216.08704,1.28296.23499,1.8902-1.22559-.30609-2.30725-1.25238-2.91663-1.88971ZM24.44727,39.55246c-.01849-.88074.07465-2.31537.72852-3.40027.66595,1.08997,1.5827,2.00647,2.67285,2.67206-1.08472.65228-2.52356.74847-3.40137.72821ZM32,25.99875c3.30859,0,6,2.69141,6,6s-2.69141,6-6,6-6-2.69141-6-6,2.69141-6,6-6ZM32.00049,42.68039c-.63501-.60895-1.58203-1.6875-1.88788-2.91589.60638.14752,1.23627.23425,1.88739.23425.65216,0,1.28296-.08704,1.8902-.23499-.30609,1.22559-1.25238,2.30725-1.88971,2.91663ZM36.15332,38.82303c1.09009-.66595,2.00665-1.58282,2.6723-2.67316.65186,1.08337.74756,2.51904.72809,3.40161-.88495.01935-2.31622-.0744-3.40039-.72845ZM42.68164,31.99826c-.60895.63501-1.6875,1.58203-2.91589,1.88788.14752-.60638.23425-1.23627.23425-1.88739,0-.65216-.08704-1.28296-.23499-1.8902,1.22559.30609,2.30725,1.25238,2.91663,1.88971ZM39.55273,24.44504c.01849.88074-.07465,2.31537-.72852,3.40027-.66595-1.08997-1.58276-2.00653-2.67297-2.67212,1.08398-.65192,2.5213-.74762,3.40149-.72815ZM32,21.32101c.63788.60742,1.58569,1.68701,1.89209,2.91321-.60785-.14825-1.23926-.23547-1.89209-.23547s-1.28418.08722-1.89203.23547c.30652-1.22632,1.25458-2.30615,1.89203-2.91321ZM27.84674,25.17441c-1.09009.66595-2.00671,1.58289-2.67236,2.67322-.65186-1.08337-.74756-2.51904-.72809-3.40161.88788-.01935,2.31696.0744,3.40045.72839Z"/>
  <path d="M32,35.99875c2.20557,0,4-1.79443,4-4s-1.79443-4-4-4-4,1.79443-4,4,1.79443,4,4,4ZM32,29.99875c1.10303,0,2,.89697,2,2s-.89697,2-2,2-2-.89697-2-2,.89697-2,2-2Z"/>
  <path d="M21.39337,21.39212c.39056-.3905.39056-1.02368,0-1.41418-.3905-.39056-1.02368-.39056-1.41418,0-.3905.3905-.3905,1.02368,0,1.41418.3905.39056,1.02368.39056,1.41418,0Z"/>
</svg>