<?xml version="1.0" encoding="UTF-8"?>
<svg id="Outline" xmlns="http://www.w3.org/2000/svg" version="1.1" viewBox="0 0 64 64">
  <!-- Generator: Adobe Illustrator 29.5.1, SVG Export Plug-In . SVG Version: 2.1.0 Build 141)  -->
  <path d="M32,7c-13.785,0-25,11.215-25,25s11.215,25,25,25,25-11.215,25-25S45.785,7,32,7ZM32,55c-12.682,0-23-10.317-23-23s10.318-23,23-23,23,10.317,23,23-10.318,23-23,23Z"/>
  <path d="M32,11c-4.159,0-8.168,1.21-11.595,3.498-.459.308-.583.928-.276,1.388.306.458.927.581,1.387.276,3.098-2.068,6.723-3.162,10.485-3.162,4.879,0,9.32,1.864,12.688,4.898l-4.932,4.932c-4.73-4.248-11.103-5.591-15.755-3.306-.526-.374-1.168-.558-1.848-.522-.809.042-1.58.391-2.171.982-.625.625-.983,1.473-.983,2.326,0,.616.181,1.197.525,1.688-2.132,4.335-1.132,10.195,2.511,14.821-.012.061-.037.117-.037.182,0,.499.049.986.12,1.466l-4.222,4.222c-3.033-3.368-4.898-7.809-4.898-12.688,0-3.761,1.093-7.387,3.162-10.484.307-.46.183-1.081-.276-1.388-.458-.306-1.08-.183-1.387.276-2.289,3.429-3.499,7.438-3.499,11.596,0,11.579,9.42,21,21,21s21-9.421,21-21-9.42-21-21-21ZM42.606,40.851c.193.249.394.503.394.84,0,.327-.145.66-.397.912-.241.241-.546.383-.859.398-.2.009-.374-.05-.522-.136.501-1.19.779-2.496.779-3.865,0-.553-.448-1-1-1h-13.586l12.342-12.342c3.825,4.31,4.954,10.055,2.642,13.985-.312.53-.059.864.208,1.207ZM27.101,45.313l2.146-2.146c.524.348,1.116.602,1.753.732v3.031c-1.457-.183-2.793-.757-3.899-1.617ZM25.414,40h1.687c.13.637.384,1.229.732,1.753l-2.148,2.149c-.635-.816-1.109-1.759-1.391-2.782l1.12-1.12ZM39.938,40c-.183,1.458-.762,2.795-1.623,3.902l-2.148-2.149c.348-.524.602-1.116.732-1.753h3.039ZM32,42c-1.302,0-2.402-.839-2.816-2h5.631c-.414,1.161-1.514,2-2.816,2ZM33,43.899c.637-.13,1.228-.384,1.753-.732l2.146,2.146c-1.106.86-2.441,1.434-3.899,1.617v-3.031ZM21.428,23.123l-.18-.17c-.16-.159-.248-.389-.248-.644,0-.327.145-.66.397-.912.241-.241.546-.383.859-.398.274-.012.522.074.678.229l.19.2c.321.336.831.409,1.233.174,3.93-2.313,9.675-1.184,13.985,2.642l-13.756,13.756h-.628c-3.615-4.285-4.596-9.838-2.356-13.644.236-.401.164-.913-.174-1.233ZM32,51c-4.879,0-9.32-1.864-12.688-4.898l3.405-3.405c1.474,3.687,5.076,6.303,9.283,6.303,3.426,0,6.453-1.733,8.256-4.367.428.24.913.37,1.427.37.054,0,.108,0,.163-.004.809-.042,1.58-.391,2.171-.982.625-.625.983-1.473.983-2.326,0-.616-.181-1.197-.525-1.688,2.288-4.652.944-11.026-3.304-15.758l4.932-4.932c3.033,3.368,4.898,7.809,4.898,12.688,0,10.477-8.523,19-19,19Z"/>
  <path d="M18.565,18.565c.391-.391.391-1.024,0-1.414-.391-.391-1.024-.391-1.414,0-.391.391-.391,1.024,0,1.414.391.391,1.024.391,1.414,0Z"/>
</svg>