<?xml version="1.0" encoding="UTF-8"?>
<svg id="Outline" xmlns="http://www.w3.org/2000/svg" version="1.1" viewBox="0 0 64 64">
  <!-- Generator: Adobe Illustrator 29.0.0, SVG Export Plug-In . SVG Version: 2.1.0 Build 186)  -->
  <path d="M56,27h-3V10c0-1.65002-1.34998-3-3-3h-18c-1.65002,0-3,1.34998-3,3v12.62l-3.60999-1.54004c-.25-.10999-.53003-.10999-.78003,0,0,0-17,7.29004-17.00008,7.29008-.19812.09949-.32035.11465-.44403.32586-.10165.1736-.16588.39228-.16588.59408v19.41998c0,.40002.23999.76001.60999.92004l17,7.28998c.12.04999.25.08002.39001.08002s.27002-.03003.39001-.08002l17-7.28998c.37-.16003.60999-.52002.60999-.92004v-13.70996h10c2.21002,0,4-1.79004,4-4v-3c0-.54999-.45001-1-1-1ZM31,10c0-.54999.45001-1,1-1h18c.54999,0,1,.45001,1,1v17h-15c-.54999,0-1,.45001-1,1v3c0,1.09998-.90002,2-2,2s-2-.90002-2-2V10ZM24,54.47998l-15-6.42999v-17.23999l15,6.41998v17.25ZM25,35.47998l-14.46002-6.19,14.46002-6.20001,4,1.71002v6.20001c0,.90997.32001,1.73999.83002,2.40997l-4.83002,2.07001ZM41,48.04999l-15,6.42999v-17.25l5.72998-2.46002c.40002.14001.82001.23004,1.27002.23004h8v13.04999ZM55,31c0,1.09998-.90002,2-2,2h-16.56c.34998-.59003.56-1.27002.56-2v-2h18v2Z"/>
  <path d="M35.29297,16.70703c.19531.19531.45117.29297.70703.29297s.51172-.09766.70703-.29297l4-4c.39062-.39062.39062-1.02344,0-1.41406s-1.02344-.39062-1.41406,0l-3.29297,3.29297-1.29297-1.29297c-.39062-.39062-1.02344-.39062-1.41406,0s-.39062,1.02344,0,1.41406l2,2Z"/>
  <path d="M35.29297,24.70703c.19531.19531.45117.29297.70703.29297s.51172-.09766.70703-.29297l4-4c.39062-.39062.39062-1.02344,0-1.41406s-1.02344-.39062-1.41406,0l-3.29297,3.29297-1.29297-1.29297c-.39062-.39062-1.02344-.39062-1.41406,0s-.39062,1.02344,0,1.41406l2,2Z"/>
  <path d="M44,13h4c.55273,0,1-.44727,1-1s-.44727-1-1-1h-4c-.55273,0-1,.44727-1,1s.44727,1,1,1Z"/>
  <path d="M44,17h4c.55273,0,1-.44727,1-1s-.44727-1-1-1h-4c-.55273,0-1,.44727-1,1s.44727,1,1,1Z"/>
  <path d="M44,21h4c.55273,0,1-.44727,1-1s-.44727-1-1-1h-4c-.55273,0-1,.44727-1,1s.44727,1,1,1Z"/>
  <path d="M44,25h4c.55273,0,1-.44727,1-1s-.44727-1-1-1h-4c-.55273,0-1,.44727-1,1s.44727,1,1,1Z"/>
</svg>