<?xml version="1.0" encoding="UTF-8"?>
<svg id="Outline" xmlns="http://www.w3.org/2000/svg" version="1.1" viewBox="0 0 48 48">
  <!-- Generator: Adobe Illustrator 29.5.1, SVG Export Plug-In . SVG Version: 2.1.0 Build 141)  -->
  <path d="M36.598,38.184c3.917-3.483,6.402-8.543,6.402-14.184,0-4.063-1.293-7.823-3.474-10.915.81-.138,1.559-.513,2.151-1.106,1.56-1.559,1.56-4.097,0-5.657-1.56-1.56-4.097-1.56-5.657,0-.593.593-.968,1.341-1.106,2.151-3.092-2.18-6.852-3.474-10.915-3.474s-7.823,1.293-10.915,3.474c-.138-.81-.513-1.559-1.106-2.151-1.56-1.56-4.097-1.56-5.657,0-1.56,1.56-1.56,4.098,0,5.657.593.593,1.341.968,2.151,1.106-2.18,3.092-3.474,6.852-3.474,10.915,0,5.641,2.485,10.701,6.402,14.184l-3.109,3.109c-.391.391-.391,1.023,0,1.414.195.195.451.293.707.293s.512-.098.707-.293l3.265-3.265c3.113,2.23,6.915,3.558,11.028,3.558s7.915-1.328,11.028-3.558l3.265,3.265c.195.195.451.293.707.293s.512-.098.707-.293c.391-.391.391-1.023,0-1.414l-3.109-3.109ZM37.435,7.736c.39-.39.902-.584,1.414-.584s1.024.195,1.415.584c.779.78.78,2.049,0,2.829-.756.756-2.073.756-2.829,0-.378-.378-.586-.88-.586-1.414s.208-1.037.586-1.415ZM7.736,7.736c.39-.39.902-.584,1.415-.584s1.024.195,1.414.584c.378.378.586.88.586,1.415s-.208,1.036-.586,1.414c-.756.756-2.073.756-2.829,0-.78-.78-.779-2.049,0-2.829ZM7,24c0-9.374,7.626-17,17-17s17,7.626,17,17-7.626,17-17,17S7,33.374,7,24Z"/>
  <path d="M24,9c-8.271,0-15,6.729-15,15s6.729,15,15,15,15-6.729,15-15-6.729-15-15-15ZM15.553,33.862l.669-.669c.391-.391.391-1.023,0-1.414s-1.023-.391-1.414,0l-.669.669c-1.747-2.036-2.871-4.615-3.088-7.447h.949c.552,0,1-.448,1-1s-.448-1-1-1h-.949c.217-2.833,1.341-5.411,3.088-7.447,0,0,.669.669.669.669.387.387,1.028.386,1.414,0,.391-.391.391-1.023,0-1.414l-.669-.669c2.275-1.951,5.223-3.138,8.447-3.138s6.173,1.187,8.447,3.138l-.669.669c-.391.391-.391,1.023,0,1.414.385.385,1.031.383,1.414,0l.669-.669c1.747,2.036,2.871,4.615,3.088,7.447h-.949c-.552,0-1,.448-1,1s.448,1,1,1h.949c-.217,2.833-1.341,5.411-3.088,7.447l-.669-.669c-.391-.391-1.023-.391-1.414,0s-.391,1.023,0,1.414l.669.669c-2.275,1.951-5.223,3.138-8.447,3.138s-6.173-1.187-8.447-3.138Z"/>
  <path d="M25,21.184v-7.184c0-.552-.448-1-1-1s-1,.448-1,1v7.184c-.098.035-.193.072-.285.116l-3.664-3.664c-.391-.391-1.023-.391-1.414,0s-.391,1.023,0,1.414l3.664,3.664c-.187.391-.301.824-.301,1.285,0,1.302.839,2.402,2,2.816v7.184c0,.552.448,1,1,1s1-.448,1-1v-7.184c1.161-.414,2-1.514,2-2.816s-.839-2.402-2-2.816ZM24,25c-.551,0-1-.449-1-1s.449-1,1-1,1,.449,1,1-.449,1-1,1Z"/>
</svg>