<?xml version="1.0" encoding="UTF-8"?>
<svg id="Outline" xmlns="http://www.w3.org/2000/svg" version="1.1" viewBox="0 0 48 48">
  <!-- Generator: Adobe Illustrator 29.0.0, SVG Export Plug-In . SVG Version: 2.1.0 Build 186)  -->
  <path d="M42.82001,31.40997c-.71002-1.45996-2.5-2.21997-4.10999-1.62l-9.72003,3.65002c-.02997-1.90002-1.58002-3.44-3.48999-3.44h-5.38l-3.88-.97003c-.08002-.01996-.15997-.02997-.23999-.02997h-3c0-.54999-.45001-1-1-1h-6c-.54999,0-1,.45001-1,1v4c0,.54999.45001,1,1,1s1-.45001,1-1v-3h4v10h-4v-3c0-.54999-.45001-1-1-1s-1,.45001-1,1v4c0,.54999.45001,1,1,1h6c.54999,0,1-.45001,1-1h.88l6.81,1.70001c.78998.19995,1.59998.29999,2.40997.29999,1.40002,0,2.76001-.29004,4.04004-.85999,0,0,14.05795-6.24465,14.07-6.25,1.68002-.74628,2.43081-2.83829,1.60999-4.48004ZM41.07648,33.30514c-.11667.32807-.3562.6147-.68646.76487l-14.06,6.25c-1.62.70996-3.44.87-5.16003.44l-6.92999-1.73004c-.08002-.01996-.15997-.02997-.23999-.02997h-1v-8h2.88l3.88.96997c.08002.02002.15997.03003.23999.03003h5.5c.83002,0,1.5.66998,1.5,1.5,0,.82996-.66998,1.5-1.5,1.5h-5.5c-.54999,0-1,.45001-1,1s.45001,1,1,1h5.5c.98999,0,1.88-.42004,2.52002-1.08002.02997-.01001.04999,0,.07996-.01001l11.30997-4.23998c1.01713-.38131,2.03063.61135,1.66653,1.63514Z"/>
  <path d="M39.96002,21.16998c-.37-5.76001-4.5-10.51001-9.96002-11.81v-.35999c0-2.21002-1.78998-4-4-4s-4,1.78998-4,4v.35999c-5.46002,1.29999-9.59003,6.04999-9.96002,11.81-1.17999.40002-2.03998,1.51001-2.03998,2.83002,0,1.64996,1.34998,3,3,3h7c.54999,0,1-.45001,1-1s-.45001-1-1-1h-7c-.54999,0-1-.45001-1-1s.45001-1,1-1h26c.54999,0,1,.45001,1,1s-.45001,1-1,1h-15c-.54999,0-1,.45001-1,1s.45001,1,1,1h15c1.65002,0,3-1.35004,3-3,0-1.32001-.85999-2.42999-2.03998-2.83002ZM24,9c0-1.10004.90002-2,2-2s2,.89996,2,2v.04999c-.33002-.02002-.65997-.04999-1-.04999h-2c-.34003,0-.66998.02997-1,.04999v-.04999ZM14.03998,21c.51001-5.60004,5.23004-10,10.96002-10h2c5.72998,0,10.45001,4.39996,10.96002,10H14.03998Z"/>
</svg>