<?xml version="1.0" encoding="UTF-8"?>
<svg id="Outline" xmlns="http://www.w3.org/2000/svg" version="1.1" viewBox="0 0 64 64">
  <!-- Generator: Adobe Illustrator 29.5.1, SVG Export Plug-In . SVG Version: 2.1.0 Build 141)  -->
  <path d="M32,11c-5.514,0-10,4.486-10,10s4.486,10,10,10,10-4.486,10-10-4.486-10-10-10ZM32,29c-4.411,0-8-3.589-8-8s3.589-8,8-8,8,3.589,8,8-3.589,8-8,8Z"/>
  <path d="M32,15c-.552,0-1,.448-1,1v4.586l-3.247,3.247c-.6.6-.143,1.707.707,1.707.256,0,.512-.098.707-.293l3.54-3.54c.188-.188.293-.442.293-.707v-5c0-.552-.448-1-1-1Z"/>
  <path d="M56,55h-11v-15c0-.552-.448-1-1-1s-1,.448-1,1v15h-22v-21.586l1.293,1.293c.188.188.442.293.707.293h8v12.184c-1.161.414-2,1.514-2,2.816,0,1.654,1.346,3,3,3s3-1.346,3-3c0-1.302-.839-2.402-2-2.816v-12.184h8c.265,0,.52-.105.707-.293l1.293-1.293v2.586c0,.552.448,1,1,1s1-.448,1-1v-4.586l.707-.707c.188-.188.293-.442.293-.707v-13c0-.552-.448-1-1-1s-1,.448-1,1v12.586l-3.414,3.414h-17.172l-3.414-3.414V12.414l3.414-3.414h17.172l3.414,3.414v.586c0,.552.448,1,1,1s1-.448,1-1v-1c0-.265-.105-.52-.293-.707l-4-4c-.188-.188-.442-.293-.707-.293h-18c-.265,0-.52.105-.707.293l-4,4c-.188.188-.293.442-.293.707v18c0,.265.105.52.293.707l.707.707v23.586h-11c-.552,0-1,.448-1,1s.448,1,1,1h48c.552,0,1-.448,1-1s-.448-1-1-1ZM32,51c-.551,0-1-.449-1-1s.449-1,1-1,1,.449,1,1-.449,1-1,1Z"/>
</svg>