<?xml version="1.0" encoding="UTF-8"?>
<svg id="Outline" xmlns="http://www.w3.org/2000/svg" version="1.1" viewBox="0 0 64 64">
  <!-- Generator: Adobe Illustrator 29.5.1, SVG Export Plug-In . SVG Version: 2.1.0 Build 141)  -->
  <path d="M19.023,10c1.79,0,3.56.49,5.11,1.41.35.21.8.18,1.13-.07,1.95-1.53,4.29-2.34,6.76-2.34s4.81.81,6.76,2.34c.33.25.78.28,1.13.07,1.55-.92,3.32-1.41,5.11-1.41,5.21,0,9.49,3.91,9.95,9.09.05.55.54.95,1.09.91.55-.05.96-.54.91-1.09-.56-6.22-5.69-10.91-11.95-10.91-1.93,0-3.83.47-5.54,1.36-2.2-1.55-4.76-2.36-7.46-2.36s-5.26.81-7.46,2.36c-1.71-.89-3.61-1.36-5.54-1.36-6.62,0-12,5.38-12,12,0,4.99,3.07,9.28,7.41,11.08,2.12,3.83,3.01,8.32,2.52,12.72l-.82,7.2h-.11c-1.65,0-3,1.35-3,3s1.35,3,3,3h32c1.65,0,3-1.35,3-3,0-.89-.4-1.69-1.02-2.24l-.9-7.87c-.06-.55-.56-.95-1.1-.88-.55.06-.95.55-.88,1.1l.78,6.89h-29.76l.79-6.98c.48-4.16-.21-8.41-1.9-12.2.65.11,1.31.18,1.99.18,1.51,0,3.01-.3,4.41-.86-1.5,1.89-2.41,4.27-2.41,6.86,0,6.07,4.93,11,11,11s11-4.93,11-11c0-2.59-.91-4.97-2.41-6.86,1.4.56,2.9.86,4.41.86.98,0,1.95-.12,2.87-.35-.89,2.68-1.3,5.55-1.18,8.39.02.54.47.96,1,.96h.04c.56-.02.98-.49.96-1.04-.14-3.17.44-6.35,1.67-9.24,2.95-1.48,5.25-4.14,6.18-7.45.15-.53-.16-1.08-.69-1.23-.53-.15-1.08.16-1.23.69-1.21,4.28-5.16,7.27-9.62,7.27-1.79,0-3.56-.49-5.11-1.41-.35-.21-.8-.18-1.12.07-.15.12-.31.23-.47.34-1.78-1.26-3.96-2-6.3-2s-4.52.74-6.3,2c-.16-.11-.32-.22-.47-.34-.32-.25-.77-.28-1.12-.07-1.55.92-3.32,1.41-5.11,1.41-5.51,0-10-4.49-10-10s4.49-10,10-10ZM48.023,53c.55,0,1,.45,1,1s-.45,1-1,1H16.023c-.55,0-1-.45-1-1s.45-1,1-1h32ZM32.023,29c4.96,0,9,4.04,9,9s-4.04,9-9,9-9-4.04-9-9,4.04-9,9-9Z"/>
  <path d="M41.889,26.913c.472.276,1.092.112,1.368-.359,1.156-1.978,1.767-4.244,1.767-6.554s-.611-4.577-1.767-6.554c-.278-.477-.89-.637-1.368-.359-.477.278-.638.891-.359,1.368.977,1.672,1.493,3.589,1.493,5.545s-.517,3.874-1.493,5.545c-.279.477-.118,1.089.359,1.368Z"/>
  <path d="M22.157,13.087c-.479-.279-1.089-.119-1.368.359-1.156,1.978-1.767,4.244-1.767,6.554s.611,4.577,1.767,6.554c.276.472.897.634,1.368.359.47-.274.634-.896.359-1.368-.977-1.672-1.493-3.589-1.493-5.545s.517-3.874,1.493-5.545c.279-.477.118-1.089-.359-1.368Z"/>
  <path d="M27.78,43.235c.256,0,.514-.092.707-.285l2.25-2.25c.391.187.824.301,1.285.301,1.654,0,3-1.346,3-3,0-1.302-.839-2.402-2-2.816v-3.184c0-.552-.448-1-1-1s-1,.448-1,1v3.184c-1.161.414-2,1.514-2,2.816,0,.462.113.894.301,1.285l-2.25,2.25c-.605.605-.143,1.697.707,1.699ZM32.023,37c.551,0,1,.449,1,1s-.449,1-1,1-1-.449-1-1,.449-1,1-1Z"/>
</svg>