<?xml version="1.0" encoding="UTF-8"?>
<svg id="Outline" xmlns="http://www.w3.org/2000/svg" version="1.1" viewBox="0 0 64 64">
  <!-- Generator: Adobe Illustrator 29.5.1, SVG Export Plug-In . SVG Version: 2.1.0 Build 141)  -->
  <path d="M55,38.84c-.09-11.59-8.78-21.17-20-22.64v-3.2h2c.55,0,1-.45,1-1v-4c0-.55-.45-1-1-1h-10c-.55,0-1,.45-1,1v4c0,.55.45,1,1,1h2v3.2c-10.6,1.39-18.94,10.01-19.9,20.73,0,.02-.01.04-.01.06-.05.61-.08,1.23-.09,1.85-1.32,1.61-2,3.35-2,5.16,0,7.29,10.98,13,25,13s25-5.71,25-13c0-1.81-.68-3.55-2-5.16ZM28,11v-2h8v2h-8ZM33,13v3.03c-.33-.02-.66-.03-1-.03s-.67.01-1,.03v-3.03h2ZM32,18c10.9,0,19.89,8.35,20.9,19-1,5.61-10.13,10-20.9,10s-19.9-4.39-20.9-10c1.01-10.65,10-19,20.9-19ZM32,55c-12.47,0-23-5.04-23-11,0-.61.11-1.21.32-1.81,1.6,5.34,8.92,9.64,18.59,10.6.54.06,1.04-.34,1.09-.89.06-.55-.34-1.04-.89-1.1-8.7-.86-15.47-4.65-16.84-9.14,3.7,4.38,11.59,7.34,20.73,7.34s17.02-2.95,20.73-7.34c-1.37,4.49-8.14,8.28-16.84,9.14-.55.06-.95.55-.89,1.1.05.55.55.95,1.09.89,9.67-.96,16.99-5.26,18.59-10.6.21.6.32,1.2.32,1.81,0,5.96-10.53,11-23,11Z"/>
  <circle cx="32" cy="52" r="1"/>
</svg>