<?xml version="1.0" encoding="UTF-8"?>
<svg id="Outline" xmlns="http://www.w3.org/2000/svg" version="1.1" viewBox="0 0 64 64">
  <!-- Generator: Adobe Illustrator 29.0.0, SVG Export Plug-In . SVG Version: 2.1.0 Build 186)  -->
  <path d="M26.46338,25.53564c.94434.94434,2.19922,1.46436,3.53516,1.46436s2.59082-.52002,3.53516-1.46436l5.17186-5.17137c1.15278-1.15268,1.14743-3.09476.00001-4.24318-1.16895-1.16748-3.07129-1.16895-4.24219.00049l-4.46484,4.46484-.46484-.46533c-1.16892-1.16696-3.0712-1.16943-4.2421.0004-1.15881,1.15776-1.15691,3.08545-.00008,4.24227l1.17188,1.17188ZM26.70558,21.53612c.38842-.3884,1.02596-.38758,1.41405-.00047l1.17188,1.17188c.39062.39062,1.02344.39062,1.41406,0l5.17188-5.17139c.3906-.3906,1.02335-.39014,1.414-.00055.38881.38778.38917,1.02499.00006,1.41412l-5.17187,5.17187c-1.13281,1.13281-3.10938,1.13281-4.24234-.00015-.59954-.59973-2.1306-1.62646-1.17171-2.58532Z"/>
  <path d="M45.99854,37h-3c-.55273,0-1,.44775-1,1s.44727,1,1,1h.58594l-2.58594,2.58594-1.29297-1.29297c-.39062-.39062-1.02344-.39062-1.41406,0l-3,3c-.39062.39062-.39062,1.02344,0,1.41407.38847.38846,1.02688.38716,1.41405,0l2.29297-2.29297,1.29297,1.29297c.39062.39062,1.02344.39062,1.41406,0l3.29297-3.29297v.58594c0,.55225.44727,1,1,1s1-.44775,1-1v-3c0-.55225-.44727-1-1-1Z"/>
  <path d="M56.11572,51.88281l-5.52148-5.52106c.89093-1.58801,1.4043-3.41498,1.4043-5.36176,0-2.31732-.72424-4.46643-1.9527-6.24152,3.97083-.93719,6.9527-4.52777,6.9527-8.75848,0-4.9624-4.03711-9-9-9-.31152,0-.61914.01562-.9209.04688-1.33301-2.72314-3.96387-4.60059-6.9834-4.97119-1.49707-3.10303-4.61035-5.07568-8.0957-5.07568-3.84863,0-7.23242,2.43604-8.4834,6.01318-2.8291.15283-5.43359,1.64404-7.01074,4.00342-.17676-.01123-.34277-.0166-.50586-.0166-4.96289,0-9,4.0376-9,9s4.03711,9,9,9h1c.55273,0,1-.44775,1-1s-.44727-1-1-1h-1c-3.85938,0-7-3.14014-7-7s3.14062-7,7-7c.30957,0,.6123.02734.91309.06299.39258.04639.78809-.1499.98633-.49951,1.24707-2.19531,3.58105-3.56006,6.16406-3.56006h.00879c.06152.00342.12305.00635.1875.00635.45703,0,.85645-.31006.96875-.75293.79004-3.09521,3.57422-5.25684,6.77148-5.25684,2.87305,0,5.4209,1.72412,6.49219,4.39258.14453.36133.48633.60547.875.62598,2.76172.14551,5.18262,1.90674,6.16797,4.48828.1748.45703.65137.71777,1.13477.62305.4209-.08643.86914-.12988,1.33008-.12988,3.85938,0,7,3.14014,7,7,0,3.66962-2.88373,6.71552-6.50165,6.97437-1.96698-1.83893-4.59961-2.97437-7.49835-2.97437-2.91241,0-5.55664,1.14569-7.52649,3h-8.47351c-.55273,0-1,.44775-1,1s.44727,1,1,1h6.79242c-1.12952,1.72742-1.79242,3.78644-1.79242,6,0,6.06543,4.93457,11,11,11,1.94666,0,3.77356-.51331,5.36151-1.40411l5.52228,5.52228c.57031.56885,1.32129.88184,2.11621.88184s1.5459-.31299,2.11328-.87842c.57324-.56689.88965-1.32031.88965-2.12158s-.31641-1.55469-.88574-2.11719ZM31.99854,41c0-4.9624,4.03711-9,9-9s9,4.0376,9,9-4.03711,9-9,9-9-4.0376-9-9ZM54.70264,54.70215c-.38477.38379-1.02441.38281-1.40723.00098l-5.25897-5.25897c.50977-.4256.98041-.89624,1.40601-1.40601l5.26312,5.26312c.19043.18799.2959.43604.2959.69873s-.10547.51074-.29883.70215Z"/>
  <circle cx="20.99854" cy="34" r="1"/>
</svg>