<?xml version="1.0" encoding="UTF-8"?>
<svg id="Outline" xmlns="http://www.w3.org/2000/svg" version="1.1" viewBox="0 0 64 64">
  <!-- Generator: Adobe Illustrator 29.5.1, SVG Export Plug-In . SVG Version: 2.1.0 Build 141)  -->
  <path d="M56.466,17.4c-.51-.29-.81-.81-.81-1.4s.3-1.11.81-1.4c.48-.28.64-.89.36-1.37l-2-3.46c-.13-.23-.35-.4-.6-.47-.26-.07-.53-.03-.76.1-.51.29-1.12.29-1.62,0-.51-.29-.81-.81-.81-1.4,0-.55-.45-1-1-1h-4c-.55,0-1,.45-1,1,0,.59-.3,1.11-.81,1.4-.51.29-1.11.29-1.62,0-.23-.13-.5-.17-.76-.1-.25.07-.47.24-.6.47l-2,3.46c-.28.48-.12,1.09.36,1.37.19.11.34.25.46.41-1.74.47-3.22,1.64-4.07,3.24-.89-.51-1.94-.76-2.98-.67.01-.14.02-.27.02-.41,0-2.85-2.32-5.17-5.17-5.17-1.97,0-3.75,1.14-4.6,2.87-.32-.06-.63-.09-.95-.09-2.85,0-5.17,2.31-5.17,5.16,0,.33.03.64.09.96-1,.49-1.81,1.3-2.3,2.3-.32-.06-.63-.09-.96-.09-2.85,0-5.16,2.32-5.16,5.17,0,.59.1,1.17.31,1.73-1.08.97-1.7,2.35-1.7,3.82,0,1.53.66,2.95,1.8,3.92-.11.74-.19,1.48-.19,2.25v4.38l-1.45.73c-.34.16-.55.51-.55.89v6c0,.38.21.73.55.89l3.53,1.77c.3,1.34,1.49,2.34,2.92,2.34h2c1.65,0,3-1.35,3-3v-10c0-1.65-1.35-3-3-3h-1v-1c0-.34.02-.67.06-1h17.88c.04.33.06.66.06,1v1h-1c-1.65,0-3,1.35-3,3v10c0,1.65,1.35,3,3,3h2c1.43,0,2.62-1,2.92-2.34l3.53-1.77c.34-.16.55-.51.55-.89v-6c0-.38-.21-.73-.55-.89l-1.45-.73v-4.38c0-.34-.03-.67-.05-1h12.49c2.85,0,5.17-2.32,5.17-5.17s-2.32-5.16-5.17-5.16c-.13,0-.27.01-.4.02.01-.14.02-.27.02-.41,0-1.24-.46-2.38-1.22-3.28h.16c.55,0,1-.45,1-1,0-.59.3-1.11.81-1.4.5-.29,1.11-.3,1.62,0,.23.13.5.17.76.1.25-.07.47-.24.6-.47l2-3.46c.28-.48.12-1.09-.36-1.37ZM11.036,52.38l-2-1v-4.76l2-1v6.76ZM16.036,43c.55,0,1,.45,1,1v10c0,.55-.45,1-1,1h-2c-.55,0-1-.45-1-1v-10c0-.55.45-1,1-1h2ZM15.566,37c1.23-3.49,4.56-6,8.47-6s7.24,2.51,8.47,6H15.566ZM35.036,54c0,.55-.45,1-1,1h-2c-.55,0-1-.45-1-1v-10c0-.55.45-1,1-1h2c.55,0,1,.45,1,1v10ZM35.036,41.18v-1.18c0-6.07-4.93-11-11-11s-11,4.93-11,11v1.18c-.96.35-1.7,1.15-1.92,2.16l-.08.04v-3.38c0-7.17,5.83-13,13-13s13,5.83,13,13v3.38l-.08-.04c-.22-1.01-.96-1.81-1.92-2.16ZM39.036,46.62v4.76l-2,1v-6.76l2,1ZM50.096,31c.44-.22.91-.33,1.38-.33,1.75,0,3.17,1.42,3.17,3.16,0,1.75-1.42,3.17-3.17,3.17h-12.74c-1.4-6.84-7.46-12-14.7-12-6.64,0-12.27,4.33-14.24,10.32-.24-.45-.37-.96-.37-1.49,0-1.08.55-2.08,1.48-2.67.44-.28.59-.86.33-1.33-.28-.51-.42-1.02-.42-1.55,0-1.75,1.42-3.17,3.16-3.17.41,0,.79.08,1.18.24.27.11.57.09.83-.04.25-.12.44-.36.52-.63.28-1.08,1.13-1.93,2.21-2.21.27-.08.51-.27.64-.52.12-.26.13-.56.03-.83-.16-.39-.24-.77-.24-1.18,0-1.74,1.42-3.16,3.17-3.16.4,0,.8.08,1.18.23.27.1.56.09.82-.04.25-.12.44-.35.51-.63.38-1.38,1.63-2.34,3.04-2.34,1.75,0,3.17,1.42,3.17,3.17,0,.46-.11.93-.34,1.39-.19.39-.11.85.2,1.15.31.3.77.37,1.15.18,1.2-.61,2.74-.32,3.65.65.25.26.62.37.97.28.35-.09.63-.36.72-.7.37-1.32,1.29-2.36,2.47-2.91-.08.07-.15.14-.25.19-.48.28-.64.89-.36,1.37l2,3.46c.13.23.35.4.6.47.26.07.53.03.76-.1.51-.3,1.11-.29,1.62,0,.51.29.81.81.81,1.4,0,.51.39.92.88.98.13.09.28.16.45.18,1.58.23,2.73,1.54,2.73,3.12,0,.46-.12.94-.34,1.38-.2.38-.12.85.18,1.15.31.31.77.39,1.16.19ZM54.666,18.52l-1.14,1.96c-.9-.22-1.85-.1-2.68.39-.83.48-1.42,1.24-1.67,2.13h-2.28c-.25-.89-.84-1.65-1.67-2.13-.83-.49-1.78-.61-2.68-.39l-1.14-1.96c.64-.67,1.01-1.56,1.01-2.52,0-.07-.02-.14-.02-.22,0-.02.01-.03.01-.05,0-.03-.02-.05-.02-.08-.08-.83-.42-1.58-.98-2.17l1.14-1.96c.9.22,1.85.1,2.68-.39.83-.48,1.42-1.24,1.67-2.13h2.28c.25.89.84,1.65,1.67,2.13.83.49,1.78.61,2.68.39l1.14,1.96c-.64.67-1.01,1.56-1.01,2.52s.37,1.85,1.01,2.52Z"/>
  <path d="M48.036,12c-2.206,0-4,1.794-4,4s1.794,4,4,4,4-1.794,4-4-1.794-4-4-4ZM48.036,18c-1.103,0-2-.897-2-2s.897-2,2-2,2,.897,2,2-.897,2-2,2Z"/>
</svg>