<?xml version="1.0" encoding="UTF-8"?>
<svg id="Outline" xmlns="http://www.w3.org/2000/svg" version="1.1" viewBox="0 0 64 64">
  <!-- Generator: Adobe Illustrator 29.5.1, SVG Export Plug-In . SVG Version: 2.1.0 Build 141)  -->
  <path d="M55.17,27.29c.55-1.01.83-2.14.83-3.29,0-.81-.14-1.61-.41-2.35-.19-.52-.76-.79-1.28-.6s-.79.76-.6,1.28c.19.53.29,1.09.29,1.67,0,1.03-.32,2.02-.92,2.88-.29.42-.22,1,.17,1.33,1.11.95,1.75,2.33,1.75,3.79,0,2.76-2.24,5-5,5-1.63,0-3.17-.81-4.12-2.16-.17-.24-.42-.39-.71-.42-.29-.03-.57.06-.79.25-.93.86-2.13,1.33-3.38,1.33-2.71,0-4.91-2.13-4.99-4.84-.01-.35-.21-.67-.51-.84-.31-.17-.68-.17-.99,0-1.57.9-3.45.9-5.02,0-.31-.17-.68-.17-.99,0-.3.17-.5.49-.51.84-.08,2.71-2.28,4.84-4.99,4.84-1.25,0-2.45-.47-3.38-1.33-.22-.19-.5-.28-.79-.25-.29.03-.54.18-.71.42-.95,1.35-2.49,2.16-4.12,2.16-2.76,0-5-2.24-5-5,0-1.46.64-2.84,1.75-3.79.39-.33.46-.91.17-1.33-.6-.86-.92-1.85-.92-2.88,0-2.76,2.24-5,5-5,.87,0,1.7.22,2.46.65.46.26,1.05.12,1.33-.33.64-1.01,1.62-1.76,2.76-2.1.32-.1.57-.35.67-.67.62-2.04,2.47-3.47,4.61-3.54.35-.01.66-.2.84-.5.89-1.55,2.55-2.51,4.33-2.51s3.44.96,4.33,2.51c.18.3.49.49.84.5,2.14.07,3.99,1.5,4.61,3.54.1.32.35.57.67.67,1.14.34,2.12,1.09,2.76,2.1.28.45.87.59,1.34.33.52-.3,1.1-.5,1.71-.59.54-.08.92-.59.84-1.14-.08-.54-.59-.92-1.14-.84-.55.08-1.08.23-1.6.44-.75-.91-1.73-1.62-2.83-2.05-.95-2.42-3.16-4.13-5.75-4.42-1.3-1.89-3.47-3.05-5.78-3.05s-4.48,1.16-5.78,3.05c-2.59.29-4.8,2-5.75,4.42-1.1.43-2.08,1.14-2.83,2.05-.84-.35-1.72-.52-2.64-.52-3.86,0-7,3.14-7,7,0,1.15.28,2.28.83,3.29-1.17,1.28-1.83,2.95-1.83,4.71,0,3.86,3.14,7,7,7,.69,0,1.36-.11,2-.3v1.3c0,8.82,7.18,16,16,16s16-7.18,16-16v-1.3c.64.19,1.31.3,2,.3,3.86,0,7-3.14,7-7,0-1.76-.66-3.43-1.83-4.71ZM46,40c0,7.72-6.28,14-14,14s-14-6.28-14-14v-2.26c.39-.27.76-.59,1.09-.94,1.16.78,2.51,1.2,3.91,1.2,3.31,0,6.07-2.26,6.8-5.36,1.42.47,2.98.47,4.4,0,.73,3.1,3.49,5.36,6.8,5.36,1.4,0,2.75-.42,3.91-1.2.33.35.7.67,1.09.94v2.26Z"/>
  <path d="M42,42h-6c0-2.206-1.794-4-4-4s-4,1.794-4,4h-6c-.334,0-.646.167-.832.445s-.22.631-.091.939c2.212,5.313,6.397,8.615,10.923,8.615s8.711-3.302,10.923-8.615c.129-.309.095-.661-.091-.939s-.498-.445-.832-.445ZM32,40c1.103,0,2,.897,2,2s-.897,2-2,2-2-.897-2-2,.897-2,2-2ZM32,50c-3.312,0-6.443-2.264-8.425-6h4.981c.694,1.19,1.97,2,3.444,2s2.75-.81,3.444-2h4.981c-1.981,3.736-5.113,6-8.425,6Z"/>
  <circle cx="52" cy="19" r="1"/>
</svg>