<?xml version="1.0" encoding="UTF-8"?>
<svg id="Outline" xmlns="http://www.w3.org/2000/svg" version="1.1" viewBox="0 0 64 64">
  <!-- Generator: Adobe Illustrator 29.5.1, SVG Export Plug-In . SVG Version: 2.1.0 Build 141)  -->
  <path d="M56.855,27.581c.21-.31.24-.71.07-1.04-.17-.33-.52-.54-.89-.54h-10.07v-6.46c.93.06,1.85.2,2.76.43.16.04.32.04.48,0l.93-.23c1.83-.46,3.73-.39,5.51.21.11.03.21.05.32.05.35,0,.68-.18.86-.49.24-.41.16-.93-.19-1.25l-11-10c-.38-.35-.96-.35-1.34,0l-11,10c-.35.32-.43.84-.19,1.25.24.4.73.59,1.18.44,1.78-.59,3.68-.67,5.51-.21l.93.23c.16.04.32.04.48,0,.91-.23,1.83-.37,2.76-.43v6.46h-1c-.55,0-1,.45-1,1s.45,1,1,1h11.14l-2.08,2.95-1.14-.46c-2.54-1.02-5.36-.82-7.74.54-2.01,1.15-4.45,1.22-6.52.18l-.21-.1c-.1-.05-.21-.07-.31-.09l-2.14-3.02h1c.55,0,1-.45,1-1s-.45-1-1-1h-15v-6.46c.93.06,1.85.2,2.76.43.16.04.32.04.48,0l.93-.23c1.83-.46,3.73-.39,5.51.21.11.03.21.05.319.05.885,0,1.325-1.141.671-1.74l-11-10c-.38-.35-.96-.35-1.34,0l-11,10c-.35.32-.43.84-.19,1.25.24.4.73.59,1.18.44,1.78-.59,3.68-.67,5.51-.21l.93.23c.16.04.32.04.48,0,.91-.23,1.83-.37,2.76-.43v6.46H7.965c-.37,0-.72.21-.89.54-.17.33-.14.73.07,1.04l9.82,13.89v4.75c-4.22.61-7,2.48-7,4.78,0,2.85,4.3,5,10,5s10-2.15,10-5c0-2.3-2.78-4.17-7-4.78v-4.75l9.04-12.79,9.03,12.79v4.75c-4.22.62-7,2.48-7,4.78,0,2.85,4.3,5,10,5s10-2.15,10-5c0-2.3-2.77-4.17-7-4.78v-4.75l9.82-13.89ZM52.765,17.441c-1.04-.01-2.09.1-3.11.36l-.09.02-2.06-5.16,5.26,4.78ZM40.365,17.821l-.09-.02c-1.02-.26-2.07-.38-3.11-.36l5.26-4.78-2.06,5.16ZM42.575,17.681l2.39-5.99,2.39,5.99c-.79-.11-1.59-.17-2.39-.17s-1.6.06-2.39.17ZM26.765,17.441c-1.04-.01-2.09.1-3.11.36l-.09.02-2.06-5.16,5.26,4.78ZM14.365,17.821l-.09-.02c-1.02-.26-2.07-.38-3.11-.36l5.26-4.78-2.06,5.16ZM16.575,17.681l2.39-5.99,2.39,5.99c-.79-.11-1.59-.17-2.39-.17s-1.6.06-2.39.17ZM21.145,40.581c-.12.16-.18.37-.18.57v7.85c0,1.65,1.35,3,3,3,.55,0,1-.45,1-1s-.45-1-1-1-1-.45-1-1v-.75c3.11.52,5,1.76,5,2.75,0,1.22-3.12,3-8,3s-8-1.78-8-3c0-.99,1.89-2.23,5-2.75v.75c0,.55-.45,1-1,1s-1,.45-1,1,.45,1,1,1c1.65,0,3-1.35,3-3v-7.85c0-.2-.06-.41-.18-.57l-5.64-7.98.64-.25c1.97-.79,4.16-.64,6,.42,1.38.78,2.9,1.17,4.43,1.17.59,0,1.17-.07,1.75-.18l-4.82,6.82ZM27.915,31.001c-.14.01-.27.04-.4.11l-.21.1c-2.07,1.04-4.51.97-6.52-.18-2.38-1.36-5.2-1.56-7.74-.54l-1.08.43-2.07-2.92h20.14l-2.12,3ZM48.035,52.001c.55,0,1-.45,1-1s-.45-1-1-1-1-.45-1-1v-.75c3.11.51,5,1.76,5,2.75,0,1.22-3.11,3-8,3s-8-1.78-8-3c0-.99,1.89-2.23,5-2.75v.75c0,.55-.45,1-1,1s-1,.45-1,1,.45,1,1,1c1.65,0,3-1.35,3-3v-7.85c0-.21-.06-.41-.18-.58l-4.81-6.8c.55.11,1.11.17,1.67.17,1.53,0,3.06-.39,4.43-1.17,1.84-1.06,4.03-1.21,6-.42l.69.27-5.62,7.95c-.12.17-.18.37-.18.58v7.85c0,1.65,1.35,3,3,3Z"/>
  <circle cx="38.965" cy="27.001" r="1"/>
</svg>