<?xml version="1.0" encoding="UTF-8"?>
<svg id="Outline" xmlns="http://www.w3.org/2000/svg" version="1.1" viewBox="0 0 64 64">
  <!-- Generator: Adobe Illustrator 29.5.1, SVG Export Plug-In . SVG Version: 2.1.0 Build 141)  -->
  <path d="M25,42.989c-2.206,0-4,2.243-4,5s1.794,5,4,5,4-2.243,4-5-1.794-5-4-5ZM25,50.989c-1.084,0-2-1.374-2-3s.916-3,2-3,2,1.374,2,3-.916,3-2,3Z"/>
  <path d="M14.293,38.282c-.391.391-.391,1.023,0,1.414s1.023.391,1.414,0c.713-.713,1.873-.713,2.586,0,.195.195.451.293.706.293.87,0,1.32-1.095.708-1.707-1.492-1.493-3.922-1.493-5.414,0Z"/>
  <path d="M30.293,38.282c-.391.391-.391,1.023,0,1.414s1.023.391,1.414,0c.713-.713,1.873-.713,2.586,0,.195.195.451.293.707.293.875,0,1.324-1.091.708-1.707-1.492-1.493-3.922-1.493-5.414,0Z"/>
  <path d="M56,34.989h-13.47c-.14-.6-.31-1.2-.51-1.79.6-.55.98-1.33.98-2.21,0-1.46-1.06-2.68-2.45-2.94L25.81,7.409c-.37-.53-1.25-.53-1.62,0l-14.74,20.64c-1.39.26-2.45,1.48-2.45,2.94,0,.87.38,1.66.98,2.21-.64,1.85-.98,3.79-.98,5.79,0,9.93,8.08,18,18,18,6.88,0,13.06-3.86,16.1-9.94,1.43,1.06,3.11,1.71,4.9,1.89v6.05h-2c-.55,0-1,.45-1,1s.45,1,1,1h6c.55,0,1-.45,1-1s-.45-1-1-1h-2v-6.05c5.05-.5,9-4.77,9-9.95v-3c0-.55-.45-1-1-1ZM25,9.709l13.06,18.28H11.94l13.06-18.28ZM39.81,45.059h-.01c-2.47,6.03-8.28,9.93-14.8,9.93-8.82,0-16-7.18-16-16,0-1.73.29-3.41.83-5.02.06.01.11.02.17.02h30c.06,0,.11-.01.17-.02.24.74.45,1.47.58,2.2.17.91.25,1.86.25,2.82,0,2.1-.4,4.14-1.19,6.07ZM40,31.989H10c-.55,0-1-.45-1-1s.45-1,1-1h30c.55,0,1,.45,1,1s-.45,1-1,1ZM55,38.989c0,4.41-3.59,8-8,8-1.88,0-3.67-.65-5.09-1.83.07-.18.12-.37.18-.55.07-.23.15-.45.21-.68.09-.32.17-.64.24-.96.05-.22.11-.44.15-.66.06-.36.11-.72.16-1.09.02-.18.05-.37.07-.55.05-.56.08-1.12.08-1.68,0-.62-.04-1.23-.1-1.84-.01-.05-.01-.11-.01-.16h12.11v2Z"/>
</svg>