<?xml version="1.0" encoding="UTF-8"?>
<svg id="Outline" xmlns="http://www.w3.org/2000/svg" version="1.1" viewBox="0 0 64 64">
  <!-- Generator: Adobe Illustrator 29.5.1, SVG Export Plug-In . SVG Version: 2.1.0 Build 141)  -->
  <path d="M53.12,18.66c.82-.25,1.62-.64,2.26-1.28,2.3-2.31,1.49-6.61,1.45-6.8-.08-.39-.39-.71-.79-.78-.18-.04-4.49-.85-6.79,1.45-.24.24-.45.51-.62.79-.18-.28-.38-.55-.63-.79-2.3-2.3-6.61-1.49-6.79-1.45-.4.07-.71.39-.79.78-.03.18-.76,4.06,1.13,6.42h-6.55c-.55,0-1,.45-1,1s.45,1,1,1h15.96c1.54,2.22,2.63,4.67,3.3,7.24-.92.57-2.14.47-2.93-.33l-.62-.62c-.39-.39-1.03-.39-1.42,0l-.62.62c-.89.9-2.45.9-3.34,0l-.62-.62c-.39-.39-1.03-.39-1.42,0l-.62.62c-.92.92-2.42.92-3.34,0l-.62-.62c-.39-.39-1.03-.39-1.42,0l-.62.62c-.92.92-2.42.92-3.34,0l-.62-.62c-.39-.39-1.03-.39-1.42,0l-.62.62c-.92.92-2.42.92-3.34,0l-.62-.62c-.39-.39-1.03-.39-1.42,0l-.62.62c-.92.92-2.42.92-3.34,0l-.62-.62c-.39-.39-1.03-.39-1.42,0l-.62.62c-.89.9-2.45.9-3.34,0l-.62-.62c-.39-.39-1.03-.39-1.42,0l-.62.62c-.79.8-2.01.9-2.93.33.67-2.57,1.76-5.02,3.3-7.24h17.96c.55,0,1-.45,1-1s-.45-1-1-1h-2.98l-2.52-9.26c-.12-.44-.52-.74-.97-.74h-1.53c-.55,0-1,.45-1,1s.45,1,1,1h.77l2.18,8h-2.08l-1.44-5.26c-.11-.44-.51-.74-.96-.74h-4.47v-2h2c.55,0,1-.45,1-1s-.45-1-1-1h-3c-.55,0-1,.45-1,1v4c0,.55.45,1,1,1h4.71l1.09,4h-9.28c-.32,0-.62.15-.81.41-3.08,4.26-4.71,9.31-4.71,14.59,0,13.79,11.21,25,25,25s25-11.21,25-25c0-4.78-1.35-9.36-3.88-13.34ZM47.59,16.96c-.3.03-.64.04-1.01.04h-.04c-1.14-.02-2.47-.25-3.25-1.04-1.05-1.04-1.11-3.07-1-4.29,1.23-.11,3.25-.05,4.3.99,1.04,1.05,1.11,3.07,1,4.3ZM50.72,17h-.05c-.36,0-.71-.01-1-.04-.12-1.23-.05-3.25.99-4.3,1.05-1.04,3.07-1.11,4.3-.99.11,1.22.05,3.25-1,4.29-.78.79-2.11,1.02-3.24,1.04ZM32,55c-12.68,0-23-10.32-23-23,0-1.26.11-2.51.31-3.74,1.55.65,3.4.37,4.69-.85,1.63,1.54,4.37,1.54,6,0,1.68,1.59,4.32,1.59,6,0,1.68,1.59,4.32,1.59,6,0,1.68,1.59,4.32,1.59,6,0,1.68,1.59,4.32,1.59,6,0,.81.77,1.87,1.2,3,1.2s2.19-.43,3-1.2c1.29,1.22,3.14,1.5,4.69.85.2,1.23.31,2.48.31,3.74,0,12.68-10.32,23-23,23Z"/>
  <path d="M52,31c-.553,0-1,.447-1,1,0,10.477-8.523,19-19,19-.553,0-1,.447-1,1s.447,1,1,1c11.579,0,21-9.421,21-21,0-.553-.447-1-1-1Z"/>
</svg>