<?xml version="1.0" encoding="UTF-8"?>
<svg id="Outline" xmlns="http://www.w3.org/2000/svg" version="1.1" viewBox="0 0 64 64">
  <!-- Generator: Adobe Illustrator 29.3.1, SVG Export Plug-In . SVG Version: 2.1.0 Build 151)  -->
  <path d="M52.5385,39.07996l-5.59998-6.71997c-.19-.22998-.47003-.35999-.77002-.35999h-5.94v-1h1c.54999,0,1-.45001,1-1v-4c0-.54999-.45001-1-1-1h-4.5l4.46997-16.73999c.08002-.30005.01001-.62-.17999-.87s-.47998-.39001-.78998-.39001h-12c-.54999,0-1,.45001-1,1s.45001,1,1,1h10.70001l-4.27002,16h-11.71002l-5.32996-16h2.60999c.54999,0,1-.45001,1-1s-.45001-1-1-1h-4c-.32001,0-.62.14996-.81.41998-.19.26001-.23999.59003-.14001.90002l5.56,16.67999h-5.60999c-.54999,0-1,.45001-1,1v4c0,.54999.45001,1,1,1h1v3.87c-3.17999,2.70001-5,6.35999-5,10.20996,0,4.66003,2.66998,9.06006,7.14001,11.78003.15997.09003.33997.14001.51996.14001h18.68005c.17999,0,.35999-.04999.51996-.14001,4.47003-2.71997,7.14001-7.12,7.14001-11.78003,0-2.50995-.78003-4.93994-2.19-7.07996h.78003l4.09998,4.91998c.20001.23999.47998.35999.77002.35999.22998,0,.44995-.07996.63995-.22998l3.08002-2.56c.20001-.16998.33002-.41003.35999-.67999.02002-.26001-.06-.53003-.22998-.73004ZM16.2285,27h24v2h-24v-2ZM38.2285,31v3h-20v-3h20ZM37.2885,55h-18.12c-1.90997-1.21002-3.41998-2.77002-4.44-4.53003l1.01001.29004c1.56.44,3.16998.65997,4.77002.65997,1.41998,0,2.82996-.16998,4.20996-.51001,2.31-.58002,4.75-.60999,7.06-.09998l.81.17999c3.01001.66998,6.15002.52002,9.09003-.42999-1.02002,1.71997-2.51001,3.25-4.39001,4.44ZM43.2285,45.07996c0,1.03003-.16998,2.04004-.46997,3.02002l-1.55005.52002c-2.63995.88-5.46997,1.02997-8.19.41998l-.79999-.17999c-2.62-.58002-5.38-.53998-7.97998.10999-2.60999.65002-5.35999.60004-7.95001-.14001l-2.59998-.73999c-.30005-.97998-.46002-1.98999-.46002-3.01001,0-3.43994,1.72998-6.72998,4.75-9.07996h20.5c3.02002,2.34998,4.75,5.64001,4.75,9.07996ZM48.81853,40.87l-3.76001-4.51001c-.19-.22998-.47003-.35999-.77002-.35999h-2.85999c-.38-.39001-.77002-.77002-1.20001-1.13v-.87h5.46997l4.66003,5.58997-1.53998,1.28003Z"/>
  <path d="M27.40575,38.43164c-.65479.94824-2.17725,3.29004-2.17725,4.56836,0,1.6543,1.3457,3,3,3s3-1.3457,3-3c0-1.27832-1.52246-3.62012-2.17725-4.56836-.37305-.54102-1.27246-.54102-1.64551,0ZM28.2285,44c-.55127,0-.99951-.44824-1-.99902.0083-.30664.42432-1.17676,1-2.14746.57617.9707.9917,1.8418,1,2.14648,0,.55176-.44873,1-1,1Z"/>
  <circle cx="24.2285" cy="8" r="1"/>
</svg>