<?xml version="1.0" encoding="UTF-8"?>
<svg id="Outline" xmlns="http://www.w3.org/2000/svg" version="1.1" viewBox="0 0 64 64">
  <!-- Generator: Adobe Illustrator 29.3.1, SVG Export Plug-In . SVG Version: 2.1.0 Build 151)  -->
  <path d="M55.39792,23.40217c-2.7915-8.45605-8.7168-14.60449-14.74512-15.30029-.30566-.0376-.60107.06836-.81592.28076-.21582.21191-.32373.51025-.29395.81104l.0791.80127c.58057,6.45801,2.72461,12.78418,6.19922,18.29297l1.05125,1.67136c.21165.3365.02204.79449-.36473.88431-.09912.02246-.35596.05127-.57031-.19189l-.81396-.89258c-4.85205-5.42627-8.09961-12.07959-9.3916-19.24121-.06201-.34375-.29932-.63037-.62549-.75586-.32568-.12451-.69434-.07031-.97119.14307-2.29071,1.77618-3.85315,4.69244-4.53699,8.33032-2.35657-2.70386-5.29071-4.32983-8.4801-4.32983-6.67236,0-12.44727,7.09912-13.73193,16.87939-.07178.54785.31396,1.0498.86133,1.12207.54541.06494,1.0498-.31396,1.12207-.86133,1.15186-8.77295,6.09277-15.14014,11.74854-15.14014,3.25024,0,6.19836,2.06433,8.36145,5.39886.01599.02106.02704.04443.04462.06421,2.21527,3.4491,3.59393,8.24091,3.59393,13.53693,0,10.47656-5.3833,19-12,19-5.65576,0-10.59668-6.36719-11.74854-15.14014-.07227-.54834-.57568-.92773-1.12207-.86133-.54736.07227-.93311.57422-.86133,1.12207,1.28467,9.78027,7.05957,16.87939,13.73193,16.87939,6.64972,0,12.22028-6.9964,13.63983-16.33527,3.3725,4.6496,7.70062,7.33331,11.76886,7.33331.93994,0,1.8667-.14355,2.76318-.43799,6.80566-2.23584,9.5459-12.58154,6.10791-23.06348ZM48.66549,44.56526c-4.3573,1.43152-9.91852-1.9256-13.59753-8.17407.02313-.4928.05017-.98413.05017-1.4856,0-5.56616-1.46112-10.61945-3.82574-14.38135.28534-3.22607,1.29016-5.98395,2.83942-7.84277,1.55029,6.83545,4.81348,13.16895,9.50684,18.41797l.81005.88817c1.32084,1.44823,3.88953.873,4.42286-1.02294.19482-.69873.08301-1.4541-.30664-2.07129l-1.05127-1.67139c-3.21387-5.09521-5.23145-10.92285-5.8501-16.89453,4.78418,1.28418,9.52344,6.69775,11.83447,13.69971,3.09375,9.43311.92627,18.64648-4.83252,20.53809Z"/>
  <path d="M17.98141,50.58625c-.1416.4209.01123.88525.37556,1.13921.36155.25293.85395.23656,1.19866-.04058l3.72119-2.9917c2.71582-2.18359,4.37451-5.29834,4.6709-8.77051s-.81055-6.82324-3.11719-9.43555c-1.13525-1.28516-1.84473-2.86523-2.05225-4.56787l-.86768-7.13428c-.05127-.4209-.3623-.76367-.77588-.85547-.41455-.09277-.84082.08691-1.06543.44678l-4.24512,6.80713c-2.57666,4.13135-1.97949,9.42969,1.45215,12.88379,2.26807,2.2832,3.03857,5.5957,2.01074,8.64551l-1.30566,3.87354ZM18.69528,36.65803c-2.77441-2.79297-3.25684-7.07617-1.17383-10.41602l2.74561-4.40332.52588,4.32227c.25684,2.10596,1.13428,4.06006,2.53857,5.6499,1.94092,2.19873,2.87256,5.01904,2.62354,7.94189-.24951,2.92236-1.64551,5.54395-3.93115,7.38184l-1.05371.84717.2124-.63037c1.271-3.77197.31787-7.86963-2.4873-10.69336Z"/>
  <circle cx="8.11813" cy="34.90559" r="1"/>
</svg>