<?xml version="1.0" encoding="UTF-8"?>
<svg id="Outline" xmlns="http://www.w3.org/2000/svg" version="1.1" viewBox="0 0 64 64">
  <!-- Generator: Adobe Illustrator 29.3.1, SVG Export Plug-In . SVG Version: 2.1.0 Build 151)  -->
  <path d="M38.89923,44.41998l-7.06-1.27997-.74005-3.53003c1.55005-1.44,2.60004-3.40002,2.84003-5.60999h.06c.88,0,1.71997-.39001,2.28998-1.06.48004-.57001.71002-1.29999.69-2.04004.04004.01001.07001.02002.11005.02002.10999,0,.21997-.02002.32996-.06,4.61005-1.59998,5.58002-3.62,5.58002-5.03003,0-2.06995-2.03003-3.68994-5.06-4.82996-.5-6.78003-6.06-12-12.94-12s-12.44,5.21997-12.94,12c-3.02997,1.14001-5.06,2.76001-5.06,4.82996,0,1.41003.96997,3.43005,5.58002,5.03003.14996.06.28998.06.44.04999-.02002.73999.20996,1.46002.69,2.03003.57001.66998,1.40997,1.06,2.28998,1.06h.06c.23999,2.20996,1.28998,4.16998,2.84003,5.60999l-.74005,3.53003-7.06,1.27997c-2.38.42999-4.09998,2.5-4.09998,4.91998v4.66003c0,.54999.45001,1,1,1h11c.54999,0,1-.45001,1-1s-.45001-1-1-1h-6v-2h24v2h-10c-.54999,0-1,.45001-1,1s.45001,1,1,1h15c.54999,0,1-.45001,1-1v-4.66003c0-2.41998-1.71997-4.48999-4.09998-4.91998ZM11.9992,49c-.54999,0-1,.45001-1,1v3h-2v-3.66003c0-1.44995,1.03003-2.69,2.46002-2.95996l.53998-.09003v2.71002ZM15.9992,49h-2v-3.08002l2-.35999v3.44ZM24.9992,11c5.53998,0,10.06,4,10.85999,9.32001-3.19-.87-7.07996-1.32001-10.85999-1.32001s-7.66998.45001-10.85999,1.32001c.79999-5.32001,5.32001-9.32001,10.85999-9.32001ZM13.60919,29.21997c-.09998-.09998-.21997-.19-.37-.23999-2.62-.90997-4.23999-2.12-4.23999-3.15002,0-2.01996,6.09003-4.82996,16-4.82996s16,2.81,16,4.82996c0,1.03003-1.62,2.24005-4.23999,3.15002-.15002.04999-.27002.14001-.37.23999-.57001-.73999-1.48999-1.21997-2.5-1.21997h-.89001v-1.48999c.57001.13995,1.15002.27997,1.71002.44995.09998.03003.19995.04004.28998.04004.42999,0,.83002-.28003.96002-.71002.15997-.52997-.14001-1.08997-.67004-1.25-6.72998-2.02002-13.84998-2.02002-20.57996,0-.53003.16003-.83002.72003-.67004,1.25.16003.53003.72003.83002,1.25.66998.56-.16998,1.14001-.31,1.71002-.44995v1.48999h-.89001c-1.01001,0-1.92999.47998-2.5,1.21997ZM17.9992,33c0-.54999-.45001-1-1-1h-1c-.28998,0-.57001-.13-.76001-.35999-.20001-.22003-.27002-.51001-.21997-.82001.07001-.46002.54999-.82001,1.08997-.82001h1.89001c.54999,0,1-.45001,1-1v-2.91003c3.96997-.71997,8.03003-.71997,12,0v2.91003c0,.54999.45001,1,1,1h1.89001c.53998,0,1.01996.35999,1.08997.82001.05005.31-.01996.59998-.21997.82001-.19.22998-.47003.35999-.76001.35999h-1c-.54999,0-1,.45001-1,1,0,3.85999-3.14001,7-7,7s-7-3.14001-7-7ZM29.89923,43.59998c-2.94,1.94-6.86005,1.94-9.80005,0l.58002-2.71997c1.28003.70996,2.75,1.12,4.32001,1.12s3.03998-.41003,4.32001-1.12l.58002,2.71997ZM31.9992,49h-14v-3.79999l.71002-.13c1.85999,1.32001,4.07001,1.97998,6.28998,1.97998s4.42999-.65997,6.28998-1.97998l.71002.13v3.79999ZM35.9992,49h-2v-3.44l2,.35999v3.08002ZM40.9992,53h-2v-3c0-.54999-.45001-1-1-1v-2.71002l.53998.09003c1.42999.26996,2.46002,1.51001,2.46002,2.95996v3.66003Z"/>
  <path d="M55.58807,32.41113c-1.16602-1.16699-2.8623-1.63574-4.76709-1.31543-1.78467.29785-3.56592,1.25977-5.01611,2.70996-.27466.27466-.52576.56439-.76422.8606-2.47192-1.9856-5.66687-2.23431-7.44916-.45337-1.94971,1.95117-1.47412,5.59961,1.06055,8.13379,1.479,1.47949,3.32227,2.28027,5.00879,2.28027.60278,0,1.18494-.10419,1.72388-.31403.76953.44397,1.66327.68903,2.65015.68903.37012,0,.75195-.03223,1.14258-.09766,1.78467-.29785,3.56592-1.25977,5.01611-2.70996s2.4126-3.23145,2.70996-5.0166c.31787-1.90723-.14893-3.60059-1.31543-4.7666ZM51.96112,33.00684c.59711,0,1.1427.13306,1.60919.38556l-.85431,1.28436c-.82617,1.24414-1.9873,2.20996-3.36084,2.79395-1.72656.7403-3.15875,1.96387-4.20245,3.52026-.15955-.54236-.19843-1.16101-.08514-1.84058.22949-1.37695.99365-2.77246,2.15137-3.93066,1.43115-1.43066,3.23096-2.21289,4.74219-2.21289ZM43.93091,36.36469c-.28925.56317-.51831,1.14215-.67493,1.72754-.28223-.11115-.57062-.20563-.86761-.26312-.8457-.1709-1.58643-.69434-2.03271-1.43555l-.70892-1.17554c1.14948-.49011,2.85345-.0589,4.28418,1.14667ZM40.0661,40.93262c-1.18152-1.18115-1.76379-2.68536-1.65503-3.89081l.23169.38397c.73389,1.21973,1.9541,2.08105,3.35742,2.36621.36523.07007.6936.22424,1.00226.4173.03461.88495.25842,1.69727.65973,2.39929-1.15997-.0047-2.5238-.60333-3.59607-1.67596ZM54.93084,36.84961c-.22949,1.37695-.99365,2.77246-2.15137,3.93066-1.98322,1.98322-4.67615,2.71857-6.32574,1.85333l.1319-.21759c.84033-1.39453,2.0708-2.46973,3.55518-3.10645,1.73145-.73633,3.19775-1.95508,4.24072-3.52539l.48303-.72644c.14642.53033.17596,1.13373.06628,1.79187Z"/>
  <circle cx="22.9992" cy="54" r="1"/>
</svg>