<?xml version="1.0" encoding="UTF-8"?>
<svg id="Outline" xmlns="http://www.w3.org/2000/svg" version="1.1" viewBox="0 0 64 64">
  <!-- Generator: Adobe Illustrator 29.5.1, SVG Export Plug-In . SVG Version: 2.1.0 Build 141)  -->
  <path d="M31.293,15.293c-.391.391-.391,1.023,0,1.414.368.368,1.026.389,1.414,0,1.493-1.492,1.493-3.922,0-5.414-.713-.713-.713-1.873,0-2.586.391-.391.391-1.023,0-1.414s-1.023-.391-1.414,0c-1.493,1.492-1.493,3.922,0,5.414.713.713.713,1.873,0,2.586Z"/>
  <path d="M26.293,15.293c-.391.391-.391,1.023,0,1.414.387.387,1.028.386,1.414,0,1.493-1.492,1.493-3.922,0-5.414-.713-.713-.713-1.873,0-2.586.391-.391.391-1.023,0-1.414s-1.023-.391-1.414,0c-1.493,1.492-1.493,3.922,0,5.414.713.713.713,1.873,0,2.586Z"/>
  <path d="M36.293,15.293c-.391.391-.391,1.023,0,1.414.386.386,1.027.387,1.414,0,1.493-1.492,1.493-3.922,0-5.414-.713-.713-.713-1.873,0-2.586.391-.391.391-1.023,0-1.414s-1.023-.391-1.414,0c-1.493,1.492-1.493,3.922,0,5.414.713.713.713,1.873,0,2.586Z"/>
  <path d="M55,28.56v-5.56c0-.55-.45-1-1-1h-7.04c.02-.67.04-1.33.04-2,0-.55-.45-1-1-1h-17c-.55,0-1,.45-1,1s.45,1,1,1h16c-.05,4.28-.38,8.58-.98,12.79l-1.89,13.21h-5.77c.02-.02.05-.03.07-.05,1.15-1.16,1.7-2.77,1.54-4.54-.15-1.7-.95-3.35-2.25-4.65-1.3-1.3-2.95-2.1-4.65-2.26-1.76-.16-3.38.39-4.54,1.55-.53.53-.91,1.15-1.17,1.82-.97-2.24-2.93-3.79-5.2-3.86l-.18-1.22c-.6-4.21-.93-8.51-.98-12.79h2c.55,0,1-.45,1-1s-.45-1-1-1h-3c-.55,0-1,.45-1,1,0,4.7.34,9.44,1,14.07l.18,1.26c-2.42.9-4.18,3.55-4.18,6.67,0,1.96.69,3.73,1.81,5h-5.81c-.33,0-.63.16-.82.43s-.23.61-.12.92l3,8c.15.39.52.65.94.65h38c.42,0,.79-.26.94-.65l3-8c.11-.31.07-.65-.12-.92s-.49-.43-.82-.43h-9.85l.6-4.2c6.15-2.06,10.25-7.72,10.25-14.24ZM46,34.07c.48-3.32.78-6.69.91-10.07h6.09v4.56c0,5.31-3.13,9.95-7.92,11.98l.92-6.47ZM30.48,37.48c.13,0,.27,0,.41.02,1.23.11,2.45.7,3.42,1.67.96.97,1.56,2.18,1.67,3.42.06.64-.03,1.23-.23,1.76l-.14-.24c-.87-1.44-2.22-2.53-3.82-3.06-1.14-.38-2.11-1.16-2.73-2.19l-.51-.86c.55-.34,1.21-.52,1.93-.52ZM27.2,39.65l.15.24c.86,1.44,2.22,2.53,3.81,3.06,1.14.38,2.11,1.16,2.73,2.19l.52.87c-.66.4-1.47.58-2.34.49-1.24-.11-2.45-.7-3.42-1.67-1.53-1.53-2.04-3.6-1.45-5.18ZM25.72,44.12c.37.76.87,1.48,1.51,2.12.28.28.58.53.89.76h-3.93c.69-.79,1.22-1.77,1.53-2.88ZM20.51,38.07l.25-.97c1.84.44,3.24,2.47,3.24,4.9,0,2.16-1.11,3.98-2.64,4.68l.07-.27c.41-1.63.22-3.35-.54-4.86-.53-1.07-.67-2.31-.38-3.48ZM18.64,37.32l-.07.27c-.41,1.63-.22,3.35.54,4.86.53,1.07.67,2.31.38,3.48l-.25.97c-1.84-.44-3.24-2.47-3.24-4.9,0-2.16,1.11-3.98,2.64-4.68ZM47,55h-30v-2h30v2ZM52.56,49l-2.25,6h-1.31v-3c0-.55-.45-1-1-1H16c-.55,0-1,.45-1,1v3h-1.31l-2.25-6h41.12Z"/>
  <circle cx="25" cy="20" r="1"/>
</svg>