<?xml version="1.0" encoding="UTF-8"?>
<svg id="Outline" xmlns="http://www.w3.org/2000/svg" version="1.1" viewBox="0 0 64 64">
  <!-- Generator: Adobe Illustrator 29.3.1, SVG Export Plug-In . SVG Version: 2.1.0 Build 151)  -->
  <path d="M53,34c.54999,0,1-.45001,1-1v-10c1.65002,0,3-1.35004,3-3v-10c0-1.65002-1.34998-3-3-3H10c-1.65002,0-3,1.34998-3,3v10c0,1.64996,1.34998,3,3,3v26c-1.65002,0-3,1.34998-3,3v4c0,.54999.45001,1,1,1h48c.54999,0,1-.45001,1-1v-4c0-1.65002-1.34998-3-3-3v-8c0-.54999-.45001-1-1-1s-1,.45001-1,1v8h-6.15002l1.51001-10.58002c.12-.85999-.14001-1.72998-.70996-2.39001-.57001-.64996-1.39001-1.02997-2.26001-1.02997h-11.39001c-.87,0-1.70001.38-2.27002,1.02997-.57001.66003-.82001,1.53003-.69995,2.39001l1.50995,10.58002H12v-26h6v4.76001l-4.12,4.12c-.39001.38995-.39001,1.01996,0,1.40997l2.83002,2.83002c.19.20001.44995.28998.69995.28998.26001,0,.52002-.08997.71002-.28998l5.59003-5.58002c.17999-.19.28998-.45001.28998-.71002v-6.82996h6.69v3c0,.54999.45001,1,1,1h2v5c0,.54999.45001,1,1,1h8c.56,0,1-.45001,1-1v-1h5.31c.54999,0,1-.45001,1-1s-.45001-1-1-1h-5.31v-2h2c.56,0,1-.45001,1-1v-3h5.31v10c0,.54999.45001,1,1,1ZM32.25,37.33997c.19-.21997.46002-.33997.75-.33997h11.39001c.28998,0,.56.12.75.33997.20001.23004.27997.51001.23999.80005l-1.54999,10.85999h-10.27002l-1.54999-10.85999c-.04004-.29004.03998-.57001.23999-.80005ZM54,51c.54999,0,1,.45001,1,1v3H9v-3c0-.54999.45001-1,1-1h44ZM22,29.40997l-4.59003,4.59003-1.40997-1.41003,3.71002-3.70996c.17999-.19.28998-.44.28998-.71002v-5.16998h2v6.40997ZM41.69,31h-6v-4h6v4ZM44.69,25h-12v-2h12v2ZM10,21c-.54999,0-1-.45001-1-1v-10c0-.54999.45001-1,1-1h44c.54999,0,1,.45001,1,1v10c0,.54999-.45001,1-1,1H10Z"/>
  <path d="M32,11c-2.20605,0-4,1.79443-4,4s1.79395,4,4,4,4-1.79443,4-4-1.79395-4-4-4ZM32,17c-1.10254,0-2-.89697-2-2s.89746-2,2-2,2,.89697,2,2-.89746,2-2,2Z"/>
  <path d="M24,12h-12c-.55273,0-1,.44775-1,1v4c0,.55225.44727,1,1,1h12c.55273,0,1-.44775,1-1v-4c0-.55225-.44727-1-1-1ZM23,16h-10v-2h10v2Z"/>
  <path d="M53,13c0-.55225-.44727-1-1-1h-12c-.55273,0-1,.44775-1,1v4c0,.55225.44727,1,1,1h12c.55273,0,1-.44775,1-1v-4ZM51,16h-10v-2h10v2Z"/>
  <circle cx="53" cy="37" r="1"/>
</svg>