<?xml version="1.0" encoding="UTF-8"?>
<svg id="Outline" xmlns="http://www.w3.org/2000/svg" version="1.1" viewBox="0 0 64 64">
  <!-- Generator: Adobe Illustrator 29.0.0, SVG Export Plug-In . SVG Version: 2.1.0 Build 186)  -->
  <path d="M42.52155,23.80505c2.10663,3.24951,5.68182,5.85413,5.89545,6.00696.17383.12549.37891.18799.58301.18799s.40918-.0625.58301-.18799c.30371-.21729,7.41699-5.38525,7.41699-10.32666,0-3.02441-2.28809-5.48535-5.10059-5.48535-1.05273,0-2.05469.33887-2.89941.96924-.84473-.63037-1.84668-.96924-2.89941-.96924-.09424,0-.18622.00977-.27924.0152-.76794-4.01007-4.2804-7.0152-8.44147-7.0152-1.97754,0-3.85645.66992-5.37988,1.90381-1.52344-1.23389-3.40234-1.90381-5.37988-1.90381-4.16107,0-7.67352,3.00513-8.44147,7.0152-.09302-.00543-.185-.0152-.27924-.0152-1.05273,0-2.05469.33887-2.89941.96924-.84473-.63037-1.84668-.96924-2.89941-.96924-2.8125,0-5.10059,2.46094-5.10059,5.48535,0,4.94141,7.11328,10.10938,7.41699,10.32666.17383.12549.37891.18799.58301.18799s.40918-.0625.58301-.18799c.21362-.15283,3.78882-2.75745,5.89545-6.00696,3.88721,4.95935,9.70288,8.85223,9.96881,9.02844.16797.11084.36035.1665.55273.1665s.38477-.05566.55273-.1665c.26593-.17621,6.0816-4.06909,9.96881-9.02844ZM48.26172,16.98828c.37891.41406,1.09766.41406,1.47656,0,.58301-.63721,1.35059-.98828,2.16113-.98828,1.70996,0,3.10059,1.56348,3.10059,3.48535,0,2.94775-3.90527,6.61963-6,8.26221-2.09473-1.64258-6-5.31445-6-8.26221,0-1.92188,1.39062-3.48535,3.10059-3.48535.81055,0,1.57812.35107,2.16113.98828ZM15,27.74756c-2.09473-1.64258-6-5.31445-6-8.26221,0-1.92188,1.39062-3.48535,3.10059-3.48535.81055,0,1.57812.35107,2.16113.98828.37891.41406,1.09766.41406,1.47656,0,.58301-.63721,1.35059-.98828,2.16113-.98828,1.70996,0,3.10059,1.56348,3.10059,3.48535,0,2.94775-3.90527,6.61963-6,8.26221ZM32,30.78369c-1.63098-1.15503-6.48578-4.77997-9.49878-8.94421.30426-.7771.49878-1.56763.49878-2.35413,0-2.17291-1.18408-4.04932-2.89209-4.93683.52606-3.16125,3.26416-5.54852,6.51221-5.54852,1.76074,0,3.41895.69434,4.66992,1.95459.37695.37793,1.04297.37793,1.41992,0,1.25098-1.26025,2.90918-1.95459,4.66992-1.95459,3.24805,0,5.98615,2.38727,6.51221,5.54852-1.70801.88751-2.89209,2.76392-2.89209,4.93683,0,.7865.19452,1.57703.49878,2.35413-3.013,4.16425-7.8678,7.78918-9.49878,8.94421Z"/>
  <path d="M29,36h-7.38l-1.72998-3.45001c-.17004-.34003-.51001-.54999-.89001-.54999h-6c-.54999,0-1,.45001-1,1v3h-1c-.54999,0-1,.45001-1,1v4c0,.54999.45001,1,1,1h.12l1.89001,14.13c.07001.5.48999.87.98999.87h12c.5,0,.91998-.37.98999-.87l1.89001-14.13h.12c.54999,0,1-.45001,1-1v-4c0-.54999-.45001-1-1-1ZM14,34h4.38l1,2h-5.38v-2ZM25.12,55h-10.23999l-.27002-2h10.78003l-.27002,2ZM25.65997,51h-11.31995l-1.20001-9h13.71997l-1.20001,9ZM28,40H12v-2h16v2Z"/>
  <path d="M53,36h-1v-3c0-.54999-.45001-1-1-1h-6c-.38,0-.71997.20996-.89001.54999l-1.72998,3.45001h-7.38c-.54999,0-1,.45001-1,1v4c0,.54999.45001,1,1,1h.12l1.89001,14.13c.07001.5.48999.87.98999.87h12c.5,0,.91998-.37.98999-.87l1.89001-14.13h.12c.54999,0,1-.45001,1-1v-4c0-.54999-.45001-1-1-1ZM45.62,34h4.38v2h-5.38l1-2ZM49.12,55h-10.23999l-.27002-2h10.78003l-.27002,2ZM49.65997,51h-11.31995l-1.20001-9h13.71997l-1.20001,9ZM52,40h-16v-2h16v2Z"/>
</svg>