<?xml version="1.0" encoding="UTF-8"?>
<svg id="Outline" xmlns="http://www.w3.org/2000/svg" version="1.1" viewBox="0 0 64 64">
  <!-- Generator: Adobe Illustrator 29.0.0, SVG Export Plug-In . SVG Version: 2.1.0 Build 186)  -->
  <path d="M41.98933,10.98926c-4.94623,0-9.32764,3.38361-12.06165,8.56873-7.31592-4.22339-15.06049-4.14087-19.52527.31409-5.84619,5.84619-3.94482,17.26953,4.24023,25.46484,4.9541,4.94678,11.07324,7.67383,16.4917,7.67383,2.08484,0,4.05634-.42456,5.82721-1.26093,1.57458.78784,3.26221,1.23944,5.02777,1.23944,8.271,0,15-9.42041,15-21s-6.729-21-15-21ZM16.05671,43.92285c-7.40527-7.41504-9.30713-17.56982-4.24072-22.63574,3.83691-3.82892,10.69409-3.76019,17.25391.08472-.96674,2.29651-1.62598,4.86737-1.90887,7.61255-1.50275-2.61316-4.05469-4.56189-7.11456-5.24121l-5.88965-1.31006c-.43799-.09814-.87988.10498-1.09375.49463s-.14502.87402.16943,1.18848l5.13965,5.14014c.75977.75977,1.37061,1.64307,1.81641,2.62598.44873.98877.71191,2.03271.78271,3.10254.29639,4.52881,3.41895,8.44824,7.771,9.75244l1.61279.48285c1.2334,2.12177,2.75299,3.90454,4.48035,5.22235-5.49042,1.72443-13.06763-.8183-18.77869-6.51965ZM27.48371,37.2431c.36304,1.9621.92108,3.81012,1.64844,5.5069-3.45599-1.12109-5.92743-4.2627-6.16479-7.89648-.08691-1.31152-.40918-2.58936-.95752-3.79736-.54492-1.20215-1.29346-2.28369-2.22363-3.21387l-2.71094-2.71094,2.53711.56396c3.68164.81738,6.46826,3.87891,6.93408,7.61572l.12061.98389c.13202,1.0434.40991,2.03302.81665,2.94818ZM41.98933,50.98926c-4.0755,0-7.71484-2.75983-10.1001-7.0625-.00897-.01807-.01703-.03534-.0271-.05286-1.79315-3.25751-2.8728-7.38806-2.8728-11.88464,0-10.47656,5.83154-19,13-19s13,8.52344,13,19-5.83154,19-13,19Z"/>
  <path d="M42.83308,15.45215c-.23828-.37451-.69482-.54736-1.12354-.42285-.42676.12402-.72021.51514-.72021.95996v7.26465c0,2.1665-.78564,4.25781-2.2124,5.8877-2.98877,3.41602-3.55127,8.396-1.39893,12.39258l3.73095,6.92918c.48215.89546,1.88038.53808,1.88038-.47411v-8.58887c0-1.97852.66895-3.92822,1.88379-5.48975l.60449-.77734c2.83154-3.64014,3.07031-8.7002.59424-12.5918l-3.23877-5.08936ZM43.89851,31.90576l-.60449.77734c-1.48633,1.91064-2.30469,4.29639-2.30469,6.71729v4.62256l-1.85059-3.43701c-1.75879-3.26611-1.29932-7.33594,1.14355-10.12695,1.74561-1.99512,2.70703-4.55371,2.70703-7.20508v-3.83057l1.39502,2.19189c2.02344,3.18018,1.82812,7.31543-.48584,10.29053Z"/>
</svg>