<?xml version="1.0" encoding="UTF-8"?>
<svg id="Outline" xmlns="http://www.w3.org/2000/svg" version="1.1" viewBox="0 0 64 64">
  <!-- Generator: Adobe Illustrator 29.5.1, SVG Export Plug-In . SVG Version: 2.1.0 Build 141)  -->
  <path d="M54,29h-6.36c.76-.61,1.42-1.35,1.95-2.18,3.29-1.42,5.41-4.6,5.41-8.21v-1.61c0-.55-.45-1-1-1h-3c0-.55-.45-1-1-1h-16c-.55,0-1,.45-1,1v6c0,2.83,1.31,5.35,3.36,7h-12.72c.76-.61,1.42-1.35,1.95-2.18,3.29-1.42,5.41-4.6,5.41-8.21v-1.61c0-.55-.45-1-1-1h-3c0-.55-.45-1-1-1H10c-.55,0-1,.45-1,1v6c0,2.83,1.31,5.35,3.36,7h-2.36c-1.65,0-3,1.35-3,3s1.35,3,3,3h1v13c0,.55.45,1,1,1,0,0,5.942,0,6,0,.149,0,.369-.055.5-.13l13.5-7.72s13.5,7.72,13.501,7.72c.151.075.329.13.499.13h6c.55,0,1-.45,1-1v-13h1c1.65,0,3-1.35,3-3s-1.35-3-3-3ZM51,22v-4h2v.61c0,1.95-.81,3.74-2.16,5.02.1-.53.16-1.07.16-1.63ZM27,22v-4h2v.61c0,1.95-.81,3.74-2.16,5.02.1-.53.16-1.07.16-1.63ZM35,22v-5h14v5c0,3.86-3.14,7-7,7s-7-3.14-7-7ZM11,22v-5h14v5c0,3.86-3.14,7-7,7s-7-3.14-7-7ZM20.02,45.69c1.69-2.85,4.77-4.69,8.21-4.69l-8.21,4.69ZM35.77,41c3.44,0,6.52,1.84,8.21,4.69l-8.21-4.69ZM51,47h-4.25c-1.53-4.75-5.95-8-11-8h-7.5c-5.05,0-9.47,3.25-11,8h-4.25v-12h38v12ZM54,33H10c-.55,0-1-.45-1-1s.45-1,1-1h44c.55,0,1,.45,1,1s-.45,1-1,1Z"/>
</svg>