<?xml version="1.0" encoding="UTF-8"?>
<svg id="Outline" xmlns="http://www.w3.org/2000/svg" version="1.1" viewBox="0 0 64 64">
  <!-- Generator: Adobe Illustrator 29.3.1, SVG Export Plug-In . SVG Version: 2.1.0 Build 151)  -->
  <path d="M56,55.00103h-5.5l-2.70001-3.60004c-.19-.25-.48999-.39996-.79999-.39996h-4.10999c.59998-.59003,1.09998-1.29004,1.45001-2.06,3.98999-1.34003,6.65997-5.06,6.65997-9.26001v-5.67999c0-.54999-.45001-1-1-1h-5v-1c0-.54999-.45001-1-1-1h-13c-.54999,0-1,.45001-1,1s.45001,1,1,1h12v13c0,2.76001-2.23999,5-5,5h-12c-2.76001,0-5-2.23999-5-5v-13h2c.54999,0,1-.45001,1-1s-.45001-1-1-1h-3c-.54999,0-1,.45001-1,1v14c0,1.95996.81,3.72998,2.10999,5h-4.10999c-.31,0-.60999.14996-.79999.39996l-2.70001,3.60004h-5.5c-.54999,0-1,.45001-1,1s.45001,1,1,1h48c.54999,0,1-.45001,1-1s-.45001-1-1-1ZM45,46.00103v-11h4v4.67999c0,2.87-1.58002,5.44-4.02002,6.78998.01001-.14996.02002-.31.02002-.46997ZM16,55.00103l1.5-2h29l1.5,2H16Z"/>
  <path d="M26.41113,47.5899c.92773.92773,2.1875,1.41309,3.625,1.41309.36914,0,.75098-.03223,1.1416-.09766,1.78516-.29785,3.56641-1.25977,5.0166-2.70996s2.41211-3.23145,2.70996-5.0166c.31738-1.90723-.14941-3.60059-1.31543-4.7666s-2.85449-1.6377-4.7666-1.31543c-1.78516.29785-3.56641,1.25977-5.0166,2.70996s-2.41211,3.23145-2.70996,5.0166c-.31738,1.90723.14941,3.60059,1.31543,4.7666ZM34.78027,44.78131c-1.98474,1.98218-4.67645,2.71759-6.3255,1.85339l.13214-.21765c.83984-1.39453,2.07031-2.46875,3.55469-3.10645,1.73145-.73633,3.19824-1.95508,4.24121-3.52539l.47278-.71106c.44189,1.65137-.32056,3.95239-2.07532,5.70715ZM29.21973,39.22076c1.43164-1.43066,3.23047-2.21289,4.74219-2.21289.59705,0,1.14252.133,1.60895.38544l-.85406,1.28448c-.82617,1.24414-1.9873,2.20996-3.36133,2.79395-1.72241.7392-3.1507,1.95862-4.19263,3.5083-.47388-1.65479.28284-3.98523,2.05688-5.75928Z"/>
  <path d="M27.34979,23.57904c-.21246.5047-.34979.99274-.34979,1.422,0,2.20605,1.79395,4,4,4s4-1.79395,4-4c0-.29419-.06793-.61719-.17548-.9527.05536-.01672.10651-.0285.16278-.04633,3.32379-1.0752,5.72571-3.49023,6.44794-6.10669l12.52179-3.32593c1.03027-.27441,1.87891-.94043,2.38965-1.875.50977-.93555.61133-2.00977.28516-3.02441-.32715-1.01465-1.03613-1.82715-1.99609-2.28809-.96191-.46289-2.03906-.50684-3.03516-.12793l-12.10992,4.60815c-2.11328-1.70288-5.47101-2.26251-8.79828-1.19214-4.72656,1.52734-7.6084,5.75684-6.4248,9.42676.47656,1.48676,1.55908,2.69116,3.08221,3.4823ZM31,27.00103c-1.10254,0-2-.89746-2-2,0-.6377.93945-2.12598,2-3.45215.61835.77319,1.18933,1.59717,1.56317,2.27985.01141.02148.02216.04224.03503.06262.24762.46155.40179.85498.40179,1.10968,0,1.10254-.89746,2-2,2ZM52.31152,9.1231c.97814-.37219,2.09734.16654,2.41598,1.16003.31746.98983-.28304,2.08807-1.28414,2.35266l-11.80719,3.13611c-.03625-.40344-.10754-.80499-.2348-1.19958-.12708-.39215-.30328-.75745-.50836-1.10419,0,0,11.40116-4.33843,11.41852-4.34503ZM31.30566,12.5733c3.66699-1.17871,7.34375-.00586,8.19238,2.61426.84668,2.62305-1.45312,5.72363-5.12012,6.91016-.15369.04865-.29791.08759-.44177.12616-.82373-1.33008-1.87506-2.53796-2.19202-2.89081-.37891-.42188-1.10938-.42188-1.48828,0-.28528.31757-1.16577,1.32861-1.9397,2.49695-1.07495-.54828-1.82812-1.35919-2.14429-2.34558-.84668-2.62305,1.45703-5.72363,5.13379-6.91113Z"/>
  <circle cx="27" cy="32.00103" r="1"/>
</svg>