<?xml version="1.0" encoding="UTF-8"?>
<svg id="Outline" xmlns="http://www.w3.org/2000/svg" version="1.1" viewBox="0 0 64 64">
  <!-- Generator: Adobe Illustrator 29.0.0, SVG Export Plug-In . SVG Version: 2.1.0 Build 186)  -->
  <path d="M52.89001,21.54999l-3.89001-7.78998v-5.76001c0-.54999-.45001-1-1-1H16c-.54999,0-1,.45001-1,1v5.76001l-3.89001,7.78998c-.01001.01001-.01001.02002-.01001.02997-.02997.06006-.03998.13-.04999.19-.01996.07001-.03998.13-.03998.20001,0,.01001-.01001.02002-.01001.03003v34c0,.54999.45001,1,1,1h40c.54999,0,1-.45001,1-1V22c0-.16003-.03998-.31-.10999-.45001ZM36,9h11v4h-11v-4ZM29.90002,14.41998c.06-.13.09998-.27002.09998-.41998v-5h4v4.76001l-3.89001,7.78998c-.07001.14001-.10999.28998-.10999.45001v9h-4v-8.76001l3.89001-7.78998c.01001-.01001.01001-.02002.01001-.03003ZM17,9h11v4h-11v-4ZM43.09998,21.57996c-.02997.06006-.03998.13-.04999.19-.01996.07001-.03998.13-.03998.20001,0,.01001-.01001.02002-.01001.03003v33H13V22.23999l3.62-7.23999h10.76001l-3.27002,6.54999c-.07001.14001-.10999.28998-.10999.45001v10c0,.54999.45001,1,1,1h6c.54999,0,1-.45001,1-1v-9.76001l3.62-7.23999h10.76001l-3.27002,6.54999c-.01001.01001-.01001.02002-.01001.02997ZM51,55h-6V22.23999l3-6,3,6v32.76001Z"/>
  <path d="M37.45996,39.13477c-1.3916-.2793-2.81543.23828-4.02051,1.44629-.46552.46716-.86285,1.03381-1.20929,1.64911-.87781-1.95325-2.42627-3.23016-4.23016-3.23016-2.06293,0-3.79346,1.66791-4.56573,4.11108-.46271-.06732-.93848-.11108-1.43427-.11108-3.9248,0-7,2.19629-7,5s3.0752,5,7,5c1.32751,0,2.60614-.27753,3.69855-.76617.68585.48773,1.46552.76617,2.30145.76617,1.55365,0,2.91876-.9469,3.82904-2.45685.67084,1.26324,1.68463,2.08026,2.90143,2.32208.24707.04883.49316.07324.7373.07324,2.48926,0,4.83398-2.45898,5.53125-5.96387v-.00098c.76465-3.84863-.79004-7.29297-3.53906-7.83887ZM26.44055,41.77173c-.28162,1.58301-.05505,3.23651.66492,4.67554.5459,1.0918.71484,2.35156.47461,3.54883l-.17999.89801c-1.35022-.47821-2.40009-2.52539-2.40009-4.8941,0-1.76318.5863-3.33569,1.44055-4.22827ZM22,45c.36261,0,.711.02533,1.04712.06927-.02783.30475-.04712.61371-.04712.93073,0,.19342.00946.383.01996.57202-.50775.13196-1.00311.2981-1.46722.53345-1.09668.54883-2.35449.71484-3.54688.47363l-.89966-.17963c.47864-1.34991,2.52545-2.39948,4.8938-2.39948ZM17.77631,49.56439c.4325.07812.86969.12311,1.30768.12311,1.1582,0,2.31738-.26953,3.36816-.7959.28241-.14319.57733-.25873.88159-.34955.21289.7854.52173,1.49719.90881,2.11163-.6886.21838-1.44843.34631-2.24255.34631-1.75983,0-3.3302-.58398-4.22369-1.43561ZM29.55945,50.22827c.28162-1.58301.05505-3.23651-.66492-4.67554-.5459-1.0918-.71484-2.35156-.47461-3.54883l.17999-.89801c1.35022.47821,2.40009,2.52539,2.40009,4.8941,0,1.76318-.5863,3.33569-1.44055,4.22827ZM33.15234,45.41504c.27441-1.37988.87891-2.59473,1.70312-3.4209.13306-.13342.32129-.28894.53125-.43793-.58105,1.49603-.68127,3.15875-.25684,4.70844.32324,1.17676.24219,2.44629-.22656,3.57324l-.34882.83954c-.60254-.36298-.9613-1.02478-1.13654-1.44989-.44531-1.07812-.54004-2.43164-.26562-3.8125ZM39.03809,46.58398c-.3446,1.72748-1.22742,3.15631-2.23749,3.86646.58337-1.49774.68402-3.16315.25897-4.71509-.32324-1.17676-.24219-2.44629.22559-3.57324l.35181-.84558c1.2312.73236,1.86206,2.94476,1.40112,5.26746Z"/>
</svg>