<?xml version="1.0" encoding="UTF-8"?>
<svg id="Outline" xmlns="http://www.w3.org/2000/svg" version="1.1" viewBox="0 0 64 64">
  <!-- Generator: Adobe Illustrator 29.0.0, SVG Export Plug-In . SVG Version: 2.1.0 Build 186)  -->
  <path d="M36.17964,45h-12.36133c-.42285,0-.7998.26562-.94141.66357l-2.14355,6c-.10938.30615-.06348.64648.12402.9126.1875.26562.49219.42383.81738.42383h16.64844c.3252,0,.62988-.1582.81738-.42383.1875-.26611.2334-.60645.12402-.9126l-2.14355-6c-.1416-.39795-.51855-.66357-.94141-.66357ZM23.09371,51l1.42969-4h10.95117l1.42969,4h-13.81055Z"/>
  <path d="M39.17964,19h-18.36133c-.29785,0-.5791.13232-.76953.36133s-.26855.53076-.21289.82275l1.5,8c.08789.47314.50098.81592.98242.81592h15.36133c.48145,0,.89453-.34277.98242-.81592l1.5-8c.05566-.29199-.02246-.59375-.21289-.82275s-.47168-.36133-.76953-.36133ZM36.84956,27h-13.70117l-1.125-6h15.95117l-1.125,6Z"/>
  <path d="M54.709,20.28998l-3-3c-.19-.17999-.44-.28998-.71002-.28998h-6.16998l.14996-.82001c.01001-.02002,0-.04999,0-.08002,0-.02997.02002-.06.02002-.09998,0-2.76001-2.23999-5-5-5h-6v-3c0-.54999-.45001-1-1-1h-6c-.54999,0-1,.45001-1,1v3h-6c-2.40997,0-4.42999,1.71997-4.90002,4h-3.09998c-.27002,0-.52002.10999-.71002.28998l-2,2c-.37.38-.38995.97998-.03998,1.37l7.90002,8.89001.84998,4.53998v5.91003c0,.54999.45001,1,1,1h1v2.82996l-4.94,13.83002c-.10999.31-.06.65002.12.91998.19.26001.48999.42004.82001.42004h28c.33002,0,.63-.16003.82001-.42004.17999-.26996.22998-.60999.12-.91998l-4.94-13.83002v-2.82996h1c.54999,0,1-.45001,1-1v-5.91003l1.70001-9.08997h3.89001l1.33997,1.34998-1.78998,11.65002h-2.14001c-.54999,0-1,.45001-1,1v4c0,.54999.45001,1,1,1h7c.51001,0,.94-.39001,1-.90002l2-20c.02002-.29999-.08002-.59998-.28998-.81ZM11.36897,18.03998l1.03998-1.03998h2.76001l1.26001,6.72998-5.06-5.69ZM27.99898,9h4v2h-4v-2ZM42.579,55h-25.16003l4.29004-12h16.57996l4.29004,12ZM21.99898,41v-2h16v2h-16ZM39.99898,37h-20v-4h20v4ZM40.16896,31h-20.33997l-2.62-14h25.57996l-2.62,14ZM17.16896,15c.41003-1.16003,1.53003-2,2.83002-2h20c1.29999,0,2.41998.83997,2.83002,2h-25.66003ZM51.08901,40h-5.09003v-2h2c.48999,0,.90997-.35999.98999-.85004l2-13c.04999-.31-.06-.63-.27997-.85999l-2-2c-.19-.17999-.44-.28998-.71002-.28998h-3.91998l.37-2h6.14001l2.37,2.37-1.87,18.63Z"/>
</svg>