<?xml version="1.0" encoding="UTF-8"?>
<svg id="Outline" xmlns="http://www.w3.org/2000/svg" version="1.1" viewBox="0 0 64 64">
  <!-- Generator: Adobe Illustrator 29.5.1, SVG Export Plug-In . SVG Version: 2.1.0 Build 141)  -->
  <path d="M49.94,21.66l-2.15-6c-.15-.39-.52-.66-.94-.66h-11.85v-7c0-.55-.45-1-1-1h-4c-.55,0-1,.45-1,1v7h-3c-.55,0-1,.45-1,1s.45,1,1,1h20.14l1.44,4h-31.16l1.44-4h4.14c.55,0,1-.45,1-1s-.45-1-1-1h-4.85c-.42,0-.79.27-.94.66l-2.15,6c-.11.31-.06.65.12.92.19.26.49.42.82.42h2.11l3.69,31.35c.18,1.51,1.46,2.65,2.98,2.65h16.44c1.52,0,2.8-1.14,2.98-2.65l3.69-31.35h2.11c.33,0,.63-.16.82-.42.18-.27.23-.61.12-.92ZM33,15h-2v-6h2v6ZM40.39,23l-.33,3.29-.51.2c-2.31.9-4.89.76-7.09-.38-2.66-1.38-5.78-1.56-8.59-.51l-.26-2.6h16.78ZM41.21,54.12c-.05.5-.48.88-.99.88h-16.44c-.51,0-.94-.38-.99-.88l-3.67-31.12h2.47l2.97,29.1c.05.51.48.9,1,.9h1.44c.55,0,1-.45,1-1s-.45-1-1-1h-.54l-2.38-23.34.37-.15c2.31-.9,4.89-.76,7.09.38,1.52.79,3.2,1.19,4.88,1.19,1.15,0,2.3-.2,3.41-.58l-2.29,22.5h-6.54c-.55,0-1,.45-1,1s.45,1,1,1h7.44c.52,0,.95-.39,1-.9l2.97-29.1h2.47l-3.67,31.12Z"/>
  <path d="M32,35v-4c0-.552-.447-1-1-1h-4c-.553,0-1,.448-1,1v4c0,.552.447,1,1,1h4c.553,0,1-.448,1-1ZM30,34h-2v-2h2v2Z"/>
  <path d="M31,39v4c0,.552.447,1,1,1h4c.553,0,1-.448,1-1v-4c0-.552-.447-1-1-1h-4c-.553,0-1,.448-1,1ZM33,40h2v2h-2v-2Z"/>
</svg>