<?xml version="1.0" encoding="UTF-8"?>
<svg id="Outline" xmlns="http://www.w3.org/2000/svg" version="1.1" viewBox="0 0 64 64">
  <!-- Generator: Adobe Illustrator 29.5.1, SVG Export Plug-In . SVG Version: 2.1.0 Build 141)  -->
  <path d="M22.29,12.043c-.421-.129-.878.035-1.122.402l-1.168,1.752-1.168-1.752c-.244-.367-.7-.531-1.122-.402-.422.128-.71.517-.71.957v8c0,.553.447,1,1,1s1-.447,1-1v-4.697l.168.252c.371.557,1.293.557,1.664,0l.168-.252v4.697c0,.553.447,1,1,1s1-.447,1-1v-8c0-.44-.288-.829-.71-.957Z"/>
  <path d="M30,14c.553,0,1-.447,1-1s-.447-1-1-1h-4c-.553,0-1,.447-1,1v8c0,.553.447,1,1,1h4c.553,0,1-.447,1-1s-.447-1-1-1h-3v-2h3c.553,0,1-.447,1-1s-.447-1-1-1h-3v-2h3Z"/>
  <path d="M35,21v-3.764l2.105,4.211c.172.345.522.553.895.553.076,0,.153-.009.229-.026.451-.107.771-.51.771-.974v-8c0-.553-.447-1-1-1s-1,.447-1,1v3.764l-2.105-4.211c-.207-.415-.678-.63-1.124-.526-.451.107-.771.51-.771.974v8c0,.553.447,1,1,1s1-.447,1-1Z"/>
  <path d="M42,12c-.553,0-1,.447-1,1v6c0,1.654,1.346,3,3,3s3-1.346,3-3v-6c0-.553-.447-1-1-1s-1,.447-1,1v6c0,.552-.448,1-1,1s-1-.448-1-1v-6c0-.553-.447-1-1-1Z"/>
  <path d="M50,27c-.55,0-1,.45-1,1v26c0,.53-.42.95-.94.99l-25.84-5.96c-.49-.12-1.01.16-1.17.65l-1.2,3.62c-.34,1.02-1.29,1.7-2.36,1.7-1.37,0-2.49-1.12-2.49-2.49v-24.51c0-.55-.45-1-1-1s-1,.45-1,1v24.51c0,1.24.5,2.36,1.32,3.17.81.82,1.93,1.32,3.17,1.32h30.51c.83,0,1.58-.34,2.12-.88.54-.54.88-1.3.88-2.12v-26c0-.55-.45-1-1-1ZM21.21,55c.22-.33.4-.68.53-1.07l.92-2.75,16.56,3.82h-18.01Z"/>
  <path d="M48,7H16c-1.654,0-3,1.346-3,3v14c0,.553.447,1,1,1s1-.447,1-1v-14c0-.552.448-1,1-1h32c.552,0,1,.448,1,1v14c0,.553.447,1,1,1s1-.447,1-1v-14c0-1.654-1.346-3-3-3Z"/>
  <path d="M22.766,27.94c1.877,3.912,5.19,6.76,9.329,8.021,4.082,1.242,7.518,3.954,9.674,7.636.182.309.511.494.863.494.038,0,.077-.002.116-.007.395-.046.725-.321.84-.701,1.278-4.19-.483-9.483-4.486-13.485-5.019-5.019-11.918-6.389-16.048-3.18-.372.289-.492.798-.288,1.223ZM37.687,31.312c2.679,2.679,4.243,6.077,4.304,9.075-2.375-2.998-5.605-5.211-9.314-6.34-3.32-1.011-6.03-3.199-7.711-6.205,3.368-1.904,8.765-.487,12.722,3.47Z"/>
  <path d="M31.623,37.508c-3.903-1.188-7.241-3.735-9.396-7.17-.207-.331-.592-.513-.976-.46-.388.05-.71.321-.826.694-1.305,4.197.45,9.508,4.473,13.529,3.191,3.191,7.147,4.906,10.667,4.906,2.003,0,3.864-.556,5.362-1.711.362-.279.489-.768.309-1.188-1.787-4.15-5.29-7.285-9.612-8.602ZM26.312,42.688c-2.736-2.736-4.308-6.215-4.306-9.255,2.344,2.815,5.479,4.906,9.035,5.989,3.492,1.062,6.37,3.493,8.007,6.729-3.368,1.911-8.777.496-12.736-3.463Z"/>
</svg>