<?xml version="1.0" encoding="UTF-8"?>
<svg id="Outline" xmlns="http://www.w3.org/2000/svg" version="1.1" viewBox="0 0 64 64">
  <!-- Generator: Adobe Illustrator 29.0.0, SVG Export Plug-In . SVG Version: 2.1.0 Build 186)  -->
  <path d="M47,15h-1.38l-1.72998-3.45001c-.16003-.34003-.51001-.54999-.89001-.54999h-1v-3c0-.54999-.45001-1-1-1h-4c-.38,0-.72998.20996-.89001.54999l-1.72998,3.45001h-13.38c-.38,0-.72998.20996-.89001.54999l-1.72998,3.45001h-1.38c-.54999,0-1,.45001-1,1v4c0,.54999.45001,1,1,1h1.04999l1.10999,19.83997.84003,15.22003c.03003.52997.46997.94,1,.94h22c.53003,0,.96997-.41003,1-.94l.84003-15.22003,1.10999-19.83997h1.04999c.54999,0,1-.45001,1-1v-4c0-.54999-.45001-1-1-1ZM37.62,9h2.38v2h-3.38l1-2ZM21.62,13h20.76001l1,2h-22.76001l1-2ZM42.04999,55h-20.09998l-.12-2h20.33997l-.12,2ZM26.40997,51l2-2h7.18005l2,2h-11.18005ZM42.28003,51h-1.87006l-3.69995-3.71002c-.19-.17999-.44-.28998-.71002-.28998h-8c-.27002,0-.52002.10999-.71002.28998l-3.69995,3.71002h-1.87006l-.45996-8.38c2.77002,1.5,6.60999,2.38,10.73999,2.38s7.96997-.88,10.73999-2.38l-.45996,8.38ZM42.88,40.19c-2.42999,1.72998-6.53003,2.81-10.88,2.81s-8.45001-1.08002-10.88-2.81l-.65997-11.88c2.27997-2.02002,6.72998-3.31,11.53998-3.31s9.26001,1.28998,11.53998,3.31l-.65997,11.88ZM43.66998,25.90997c-2.78998-1.82001-7.03998-2.90997-11.66998-2.90997s-8.88,1.08997-11.66998,2.90997l-.27002-4.90997h23.88l-.27002,4.90997ZM46,19h-28v-2h28v2Z"/>
  <path d="M26,34c0,3.85986,2.69141,7,6,7,.11475,0,.22681-.01263.34003-.02008.00024,0,.00055.00006.00079.00006.00037,0,.00061-.00018.00098-.00018,3.14929-.2085,5.6582-3.25452,5.6582-6.9798,0-3.85986-2.69141-7-6-7s-6,3.14014-6,7ZM28,34c0-2.05286.99658-3.8175,2.41541-4.58667l-.03601.21704c-.27441,1.65283-.02295,3.31836.72607,4.81689.55957,1.11865.74658,2.36182.54248,3.59521l-.14844.89429c-1.96753-.31189-3.49951-2.39417-3.49951-4.93677ZM36,34c0,2.05286-.99658,3.8175-2.41541,4.58667l.03601-.21704c.27441-1.65283.02295-3.31836-.72607-4.81689-.55957-1.11865-.74658-2.36182-.54248-3.59521l.14844-.89429c1.96753.31189,3.49951,2.39417,3.49951,4.93677Z"/>
</svg>