<?xml version="1.0" encoding="UTF-8"?>
<svg id="Outline" xmlns="http://www.w3.org/2000/svg" version="1.1" viewBox="0 0 64 64">
  <!-- Generator: Adobe Illustrator 29.5.1, SVG Export Plug-In . SVG Version: 2.1.0 Build 141)  -->
  <path d="M44.778,24.222c-5.513-5.512-13.082-7.018-17.604-3.507-.372.289-.492.798-.288,1.223,2.062,4.299,5.701,7.428,10.249,8.812,4.54,1.381,8.36,4.397,10.758,8.491.182.309.511.495.863.495.038,0,.077-.002.116-.007.395-.046.725-.322.84-.702,1.401-4.595-.535-10.406-4.934-14.805ZM37.717,28.836c-3.731-1.136-6.77-3.607-8.636-7.002,3.757-2.204,9.842-.64,14.283,3.802,3.072,3.073,4.827,7.001,4.79,10.417-2.629-3.422-6.258-5.945-10.438-7.217Z"/>
  <path d="M36.553,32.663c-4.342-1.321-8.052-4.153-10.447-7.973-.207-.331-.592-.508-.977-.46-.388.05-.71.322-.826.695-1.431,4.604.5,10.435,4.919,14.854,3.509,3.509,7.855,5.395,11.718,5.395,2.192,0,4.229-.608,5.866-1.871.362-.279.488-.768.309-1.187-1.963-4.561-5.812-8.006-10.562-9.452ZM30.636,38.364c-3.131-3.131-4.891-7.14-4.786-10.598,2.597,3.21,6.116,5.591,10.121,6.81,3.922,1.194,7.147,3.936,8.961,7.583-3.761,2.213-9.853.648-14.296-3.795Z"/>
  <path d="M37,13c-4.933,0-9.419,1.906-12.8,5h-10.2v-10c0-.552-.447-1-1-1h-4c-.553,0-1,.448-1,1v10c0,.552.447,1,1,1s1-.448,1-1v-9h2v17c0,.552.447,1,1,1s1-.448,1-1v-6h8.285c-2.675,3.274-4.285,7.452-4.285,12s1.61,8.726,4.285,12h-8.285v-14c0-.552-.447-1-1-1s-1,.448-1,1v25h-2V22c0-.552-.447-1-1-1s-1,.448-1,1v34c0,.552.447,1,1,1h4c.553,0,1-.448,1-1v-10h10.2c3.381,3.094,7.867,5,12.8,5,10.477,0,19-8.523,19-19s-8.523-19-19-19ZM37,49c-9.374,0-17-7.626-17-17s7.626-17,17-17,17,7.626,17,17-7.626,17-17,17Z"/>
</svg>