<?xml version="1.0" encoding="UTF-8"?>
<svg id="Outline" xmlns="http://www.w3.org/2000/svg" version="1.1" viewBox="0 0 64 64">
  <!-- Generator: Adobe Illustrator 29.0.0, SVG Export Plug-In . SVG Version: 2.1.0 Build 186)  -->
  <path d="M49.59998,44.79978c4.63-3.32001,7.40002-8.70001,7.40002-14.40002v-.39996c0-.54999-.45001-1-1-1h-5v-1c0-.54999-.45001-1-1-1h-28c-.54999,0-1,.45001-1,1v11.04999c-.33002-.03003-.65997-.04999-1-.04999-1.16998,0-2.28998.21997-3.29999.59998-.69-2.70996-2.5-4.59998-4.70001-4.59998-2.79999,0-5,3.07001-5,7,0,1.97998.56,3.73999,1.46997,5h-.46997c-.54999,0-1,.45001-1,1v2c0,.46997.33002.88.79999.97998l9.29004,1.94c.44,2.32001,2.46997,4.08002,4.90997,4.08002h19c2.45001,0,4.48999-1.78003,4.90997-4.10999l10.27002-1.91003c.47998-.08002.82001-.5.82001-.97998v-2c0-.54999-.45001-1-1-1h-8.35999c.76996-.62,1.42999-1.37,1.95996-2.20001ZM51,39.99979v-9h3.98999c-.14001,3.69-1.59998,7.20001-4.03998,9.90997.02997-.29999.04999-.59998.04999-.90997ZM23,28.99979h26v2h-26v-2ZM16.98999,41.63981c.87-.41003,1.91003-.64001,3.01001-.64001,1.76001,0,3.34003.58997,4.22998,1.44-1.57996-.28003-3.22998-.06-4.67999.66998-.83002.41998-1.77997.60999-2.70001.57001.10004-.53998.15002-1.10004.15002-1.67999,0-.12-.01001-.23999-.01001-.35999ZM16.28003,45.63981c.26996.02997.53998.04999.81.04999,1.17999,0,2.31-.27002,3.35999-.79999,1.08997-.54004,2.35999-.71002,3.53998-.47003l.90002.17999c-.47003,1.35004-2.52002,2.40002-4.89001,2.40002-1.48999,0-2.88-.42004-3.82001-1.10999.03998-.08002.07001-.16003.10004-.25ZM12.41998,37.99979l.17999-.89001c1.35004.46997,2.40002,2.52002,2.40002,4.89001,0,1.76001-.59003,3.33997-1.44,4.22998.28003-1.58002.04999-3.23999-.66998-4.67999-.54004-1.09003-.71002-2.34998-.47003-3.54999ZM10.44,37.76975c-.28003,1.58002-.04999,3.24005.66998,4.68005.54004,1.08997.71002,2.34998.47003,3.54999l-.17999.89001c-1.35004-.47003-2.40002-2.52002-2.40002-4.89001,0-1.76001.59003-3.34003,1.44-4.23004ZM41,54.99979h-19c-1.29999,0-2.41998-.84003-2.83002-2h24.66003c-.41003,1.15997-1.53003,2-2.83002,2ZM55,48.99979v.16998l-9.89001,1.83002h-27.40997l-8.70001-1.81v-.19h46ZM42,46.99979h-12c-1.26001,0-2.48999-.35999-3.57001-1,.37-.60999.57001-1.28003.57001-2,0-2.03003-1.62-3.73999-4-4.53003v-6.46997h26v7c0,3.85999-3.14001,7-7,7Z"/>
  <path d="M40.92773,24.68388c.60137.64149,1.72949.19494,1.72949-.68408v-4.19727c0-.93701.32227-1.85547.90723-2.58594,1.95605-2.44629,1.76172-5.96143-.45312-8.17676l-1.74707-1.74707c-.28613-.28613-.71484-.37061-1.08984-.2168-.37402.15479-.61719.51953-.61719.92383v3.54736c0,.76465-.21191,1.51416-.61328,2.16699l-.87109,1.41992c-1.44531,2.3501-1.13574,5.39844.75098,7.41211,0,0,1.99704,2.13037,2.00391,2.1377ZM39.87695,16.18095l.87207-1.41992c.59375-.96826.9082-2.07959.9082-3.21387v-1.1333l.04004.04004c1.49316,1.49365,1.62402,3.86426.30566,5.51318-.86816,1.0835-1.3457,2.4458-1.3457,3.83545v1.66846l-.27441-.29248c-1.27148-1.35791-1.48047-3.4126-.50586-4.99756Z"/>
  <path d="M30.76074,24.68339c.60811.64893,1.72949.20065,1.72949-.68359v-4.19727c0-.93604.32226-1.85449.9082-2.58594,1.95605-2.44629,1.76172-5.96143-.45312-8.17725l-1.74805-1.74707c-.28613-.28564-.71582-.37012-1.08984-.21631-.37402.15479-.61719.51953-.61719.92383v3.54736c0,.76562-.21191,1.51514-.6123,2.16699l-.87109,1.41992c-1.44531,2.3501-1.13574,5.39844.75098,7.41162,0,0,1.99115,2.12512,2.00293,2.1377ZM29.71094,16.18095l.87207-1.41992c.59375-.96729.90723-2.07861.90723-3.21387v-1.13428l.04102.04102c1.49316,1.49365,1.62402,3.86426.30566,5.51318-.86816,1.08447-1.34668,2.44629-1.34668,3.83545v1.66748l-.27344-.2915c-1.27148-1.35791-1.48047-3.4126-.50586-4.99756Z"/>
</svg>