<?xml version="1.0" encoding="UTF-8"?>
<svg id="Outline" xmlns="http://www.w3.org/2000/svg" version="1.1" viewBox="0 0 64 64">
  <!-- Generator: Adobe Illustrator 29.5.1, SVG Export Plug-In . SVG Version: 2.1.0 Build 141)  -->
  <path d="M54,7H10c-1.65,0-3,1.35-3,3v44c0,1.65,1.35,3,3,3h44c1.65,0,3-1.35,3-3V10c0-1.65-1.35-3-3-3ZM55,54c0,.55-.45,1-1,1H10c-.55,0-1-.45-1-1v-1h46v1ZM13,43v-4h16v4c0,4.41-3.59,8-8,8s-8-3.59-8-8ZM35,43v-4h16v4c0,4.41-3.59,8-8,8s-8-3.59-8-8ZM55,51h-6.03c2.44-1.83,4.03-4.73,4.03-8v-5c0-.55-.45-1-1-1h-18c-.55,0-1,.45-1,1v5c0,3.27,1.59,6.17,4.03,8h-10.06c2.44-1.83,4.03-4.73,4.03-8v-5c0-.55-.45-1-1-1H12c-.55,0-1,.45-1,1v5c0,3.27,1.59,6.17,4.03,8h-6.03v-26.18c.31.11.65.18,1,.18h18v2h-3c-.55,0-1,.45-1,1v1h-1c-1.65,0-3,1.35-3,3v2c0,.55.45,1,1,1s1-.45,1-1v-2c0-.55.45-1,1-1h1v1c0,.55.45,1,1,1h14c.55,0,1-.45,1-1v-1h1c.55,0,1,.45,1,1v2c0,.55.45,1,1,1s1-.45,1-1v-2c0-1.65-1.35-3-3-3h-1v-1c0-.55-.45-1-1-1h-3v-2h18c.35,0,.69-.07,1-.18v26.18ZM38,29v2h-12v-2h12ZM30,27v-2h4v2h-4ZM55,19h-18v-6h18v6ZM55,11h-19c-.55,0-1,.45-1,1v8c0,.55.45,1,1,1h19v1c0,.55-.45,1-1,1H10c-.55,0-1-.45-1-1v-12c0-.55.45-1,1-1h44c.55,0,1,.45,1,1v1Z"/>
  <path d="M16,21c2.757,0,5-2.243,5-5s-2.243-5-5-5-5,2.243-5,5,2.243,5,5,5ZM15,13.184v2.816c0,.553.447,1,1,1s1-.447,1-1v-2.816c1.161.414,2,1.514,2,2.816,0,1.654-1.346,3-3,3s-3-1.346-3-3c0-1.302.839-2.402,2-2.816Z"/>
  <path d="M28,21c2.757,0,5-2.243,5-5s-2.243-5-5-5-5,2.243-5,5,2.243,5,5,5ZM27,13.184v2.816c0,.553.447,1,1,1s1-.447,1-1v-2.816c1.161.414,2,1.514,2,2.816,0,1.654-1.346,3-3,3s-3-1.346-3-3c0-1.302.839-2.402,2-2.816Z"/>
  <circle cx="40" cy="16" r="1"/>
  <circle cx="44" cy="16" r="1"/>
  <circle cx="48" cy="16" r="1"/>
  <circle cx="52" cy="16" r="1"/>
</svg>