<?xml version="1.0" encoding="UTF-8"?>
<svg id="Outline" xmlns="http://www.w3.org/2000/svg" version="1.1" viewBox="0 0 64 64">
  <!-- Generator: Adobe Illustrator 29.5.1, SVG Export Plug-In . SVG Version: 2.1.0 Build 141)  -->
  <path d="M56,46.499h-11.38c1.08-.88,1.95-2,2.54-3.28l2-.49c3.47-.87,6.04-3.71,6.55-7.25.36-2.51-.39-5.05-2.05-6.97-1.46-1.68-3.49-2.73-5.68-2.96v-.05c0-.55-.45-1-1-1h-11.98c-.55,0-1,.45-1,1s.45,1,1,1h10.98v13c0,3.86-3.14,7-7,7h-10c-3.77,0-6.84-2.99-6.99-6.72.01-.24,0-.48-.01-.71v-12.57h9.02c.55,0,1-.45,1-1s-.45-1-1-1h-1.59l1.92-1.92c1.39-1.39,1.39-3.65,0-5.04-1.17-1.17-2.97-1.35-4.33-.54-1.37-.81-3.16-.63-4.33.54-1.39,1.39-1.39,3.65,0,5.04l1.92,1.92h-3.61c-.56,0-1,.45-1,1v9.91c-1.12-.79-2.56-1.08-4.16-.81-1.78.29-3.56,1.26-5.01,2.71s-2.42,3.23-2.71,5.01c-.27,1.61.02,3.06.82,4.18h-.92c-.55,0-1,.45-1,1v4c0,.55.45,1,1,1h.76c1,0,1.9.55,2.35,1.45.78,1.57,2.37,2.55,4.13,2.55h8.76c.55,0,1-.45,1-1s-.45-1-1-1h-8.76c-1,0-1.9-.55-2.35-1.45-.75-1.5-2.22-2.46-3.89-2.54v-2.01h46v2.01c-1.67.08-3.14,1.04-3.89,2.54-.45.9-1.35,1.45-2.35,1.45h-20.76c-.55,0-1,.45-1,1s.45,1,1,1h20.76c1.76,0,3.35-.98,4.13-2.55.45-.9,1.35-1.45,2.35-1.45h.76c.55,0,1-.45,1-1v-4c0-.55-.45-1-1-1ZM47.98,39.499v-11.93c1.6.22,3.09,1.01,4.17,2.25,1.28,1.48,1.85,3.44,1.58,5.37-.39,2.74-2.38,4.93-5.05,5.59l-.84.21c.08-.48.14-.98.14-1.49ZM24.08,21.169c-.61-.61-.61-1.6,0-2.21.31-.31.71-.46,1.11-.46s.8.15,1.1.46c.39.39,1.03.39,1.42,0,.61-.61,1.6-.61,2.21,0s.61,1.6,0,2.21l-2.92,2.92-2.92-2.92ZM10.15,44.489c-.16-.54-.19-1.16-.08-1.84.23-1.38.99-2.77,2.15-3.93,1.16-1.16,2.55-1.92,3.93-2.15.28-.05.55-.07.8-.07.62,0,1.16.14,1.62.39l-.85,1.29c-.83,1.24-1.99,2.21-3.36,2.79-1.73.74-3.16,1.96-4.21,3.52ZM13.85,46.429c-.92.16-1.75.05-2.39-.3l.13-.21c.84-1.4,2.07-2.47,3.55-3.11,1.73-.74,3.2-1.96,4.24-3.53l.49-.72c.06.22.09.46.11.7v.4c0,.22-.01.45-.05.69-.23,1.38-.99,2.77-2.15,3.93s-2.55,1.92-3.93,2.15ZM18.28,46.499c.32-.25.62-.52.91-.81.69-.68,1.26-1.44,1.71-2.24.58,1.19,1.41,2.23,2.43,3.05h-5.05Z"/>
  <path d="M33.293,17.206c.195.195.451.293.707.293s.512-.098.707-.293l3.625-3.625c1.389-1.389,1.389-3.65,0-5.04-1.173-1.172-2.966-1.355-4.332-.548-1.366-.808-3.16-.623-4.332.548-1.389,1.389-1.389,3.65,0,5.039l3.625,3.625ZM31.083,9.957c.305-.305.705-.457,1.105-.457s.8.152,1.105.457c.391.39,1.023.39,1.414,0,.609-.609,1.601-.609,2.21,0,.609.609.609,1.602,0,2.211l-2.917,2.917-2.917-2.917c-.609-.609-.609-1.602,0-2.21Z"/>
</svg>