<?xml version="1.0" encoding="UTF-8"?>
<svg id="Outline" xmlns="http://www.w3.org/2000/svg" version="1.1" viewBox="0 0 64 64">
  <!-- Generator: Adobe Illustrator 29.5.1, SVG Export Plug-In . SVG Version: 2.1.0 Build 141)  -->
  <path d="M48.9,34.19c-.86-3.79-7.71-6.15-15.4-6.92l1.99-1.6c1.24-.99,1.99-2.41,2.13-4,.13-1.58-.37-3.11-1.42-4.3l-.77-.86c-.5-.57-.82-1.28-.91-2.04l-.44-3.59c-.05-.42-.36-.76-.78-.86-.41-.09-.84.09-1.06.45l-2.14,3.43c-1.42,2.28-1.09,5.2.8,7.1,1.01,1.02,1.35,2.5.9,3.85l-.66,1.96c-.03.09-.04.18-.05.28-1.03-.06-2.06-.09-3.09-.09-.34,0-.69,0-1.03.01-.55.02-.99.48-.97,1.03s.47,1.01,1.03.97c.32-.01.65-.01.97-.01,11.2,0,19,3.16,19,6s-7.8,6-19,6-19-3.16-19-6c0-1.68,3.2-4.05,10.24-5.27.54-.1.91-.62.82-1.16-.1-.54-.62-.91-1.16-.82-7.45,1.3-11.9,4.01-11.9,7.25,0,3.76.93,7.44,2.67,10.7-1.59,1-2.67,3-2.67,5.3,0,3.31,2.24,6,4.99,6h.01c1.02,0,1.96-.37,2.75-1,.79-.62,1.42-1.52,1.81-2.56,3.41,2.33,7.33,3.56,11.44,3.56,4.98,0,9.57-1.83,13.17-4.88,1.69,1.22,3.73,1.88,5.83,1.88,5.51,0,10-4.49,10-10,0-4.84-3.43-8.92-8.1-9.81ZM31.8,14.96l.64-1.03.09.79c.14,1.16.63,2.23,1.4,3.11l.77.87c.68.77,1.01,1.77.92,2.8-.08,1.04-.58,1.96-1.38,2.61l-.29.23c.22-1.73-.37-3.47-1.63-4.74-1.23-1.25-1.45-3.15-.52-4.64ZM48.39,40.27c1.53.55,2.61,2.02,2.61,3.73,0,2.21-1.79,4-4,4-.63,0-1.23-.16-1.78-.43,1.45-2.18,2.54-4.65,3.17-7.3ZM11.11,50.55c-.62,1.23-.81,2.58-.59,3.91-.9-.69-1.52-1.97-1.52-3.46,0-1.89.99-3.47,2.32-3.89l.02.09c.38,1.11.29,2.3-.23,3.35ZM12.68,54.89l-.02-.09c-.38-1.11-.29-2.3.23-3.35.62-1.23.81-2.58.59-3.91.9.69,1.52,1.97,1.52,3.46,0,1.89-.99,3.47-2.32,3.89ZM28,55c-3.99,0-7.78-1.29-11.01-3.72,0-.09.01-.19.01-.28,0-3.27-2.2-5.94-4.91-5.99-.01-.01-.02-.01-.02-.01h-.07c-.14,0-.28.01-.42.03-1.06-1.93-1.81-4.01-2.22-6.19,3.74,2.72,11.35,4.16,18.64,4.16s14.9-1.44,18.64-4.16c-1.71,9.2-9.41,16.16-18.64,16.16ZM47,52c-1.54,0-3.04-.45-4.32-1.28.47-.49.91-.99,1.34-1.52.9.52,1.93.8,2.98.8,3.31,0,6-2.69,6-6,0-2.68-1.76-4.97-4.23-5.72.09-.67.16-1.34.19-2.03,3.51.88,6.04,4.03,6.04,7.75,0,4.41-3.59,8-8,8Z"/>
  <path d="M19.467,15.027c-.626,1.46-.627,3.068-.003,4.529.624,1.46,1.786,2.572,3.273,3.13l3.335,1.25c.115.043.233.063.35.063.81,0,1.288-.95.8-1.6l-1.236-1.648c-.859-1.146-.996-2.653-.354-3.935,1.201-2.402.599-5.279-1.464-6.998l-3.105-2.588c-.326-.271-.787-.307-1.151-.091-.364.217-.552.64-.469,1.055l.71,3.552c.15.748.07,1.515-.23,2.216l-.456,1.063ZM21.305,15.815l.456-1.063c.461-1.076.583-2.25.354-3.396l-.154-.773.929.774c1.346,1.121,1.739,2.999.956,4.566-.802,1.604-.81,3.441-.066,5.017l-.338-.127c-.97-.364-1.729-1.089-2.136-2.043-.407-.953-.406-2.002.002-2.955Z"/>
  <circle cx="23" cy="28" r="1"/>
</svg>