<?xml version="1.0" encoding="UTF-8"?>
<svg id="Outline" xmlns="http://www.w3.org/2000/svg" version="1.1" viewBox="0 0 64 64">
  <!-- Generator: Adobe Illustrator 29.0.0, SVG Export Plug-In . SVG Version: 2.1.0 Build 186)  -->
  <circle cx="37" cy="54" r="1"/>
  <circle cx="32" cy="54" r="1"/>
  <circle cx="27" cy="54" r="1"/>
  <g>
    <path d="M32,11.00023c-2.79999,0-5,3.07996-5,7s2.20001,7,5,7,5-3.08002,5-7-2.20001-7-5-7ZM31.58002,22.00023l-.17999.89001c-1.35004-.47003-2.40002-2.52002-2.40002-4.89001,0-1.76001.59003-3.34003,1.44-4.23004-.28003,1.58002-.04999,3.24005.66998,4.68005.54004,1.08997.71002,2.34998.47003,3.54999ZM33.56,22.23021c.28003-1.58002.04999-3.23999-.66998-4.67999-.54004-1.09003-.71002-2.34998-.47003-3.54999l.17999-.89001c1.35004.46997,2.40002,2.52002,2.40002,4.89001,0,1.76001-.59003,3.33997-1.44,4.22998Z"/>
    <path d="M24.31787,44.52464c-3.33008-2.23633-5.31787-5.96191-5.31787-9.9668,0-3.33301,1.4165-6.54883,3.88672-8.82129.25391-.23438.36963-.58301.30518-.92188l-3.20947-17c-.10205-.54297-.62598-.89648-1.16797-.79688-.54248.10254-.89941.625-.79688,1.16797l3.10889,16.46777c-2.62939,2.62207-4.12646,6.2002-4.12646,9.9043,0,4.45508,2.10791,8.61328,5.67139,11.25195l-1.6582,10.02734c-.08984.5449.27878,1.05953.82367,1.1494.52044.08584,1.06023-.28161,1.14996-.82323l1.76025-10.64551c.06348-.38672-.104-.77441-.4292-.99316Z"/>
    <path d="M47,34.55784c0-3.7041-1.49707-7.28223-4.12646-9.9043l3.10889-16.46777c.10254-.54297-.25439-1.06543-.79688-1.16797-.54199-.09961-1.06592.25488-1.16797.79688l-3.20947,17c-.06445.33887.05127.6875.30518.92188,2.47021,2.27246,3.88672,5.48828,3.88672,8.82129,0,4.00488-1.98779,7.73047-5.31787,9.9668-.3252.21875-.49268.60645-.4292.99316l1.76024,10.64541c.20994,1.26965,2.18441.95222,1.97365-.32608l-1.6582-10.02734c3.56348-2.63867,5.67139-6.79688,5.67139-11.25195Z"/>
    <path d="M39.56,35.90019c-.46997-.26996-.52002-.71997-.52002-.89996s.05005-.63.52002-.90002c.22998-.13.40002-.34998.47003-.60999.06995-.25.02997-.53003-.10004-.76001l-2-3.46002c-.13-.22998-.34998-.39996-.60999-.46997s-.53003-.03003-.76001.09998c-.46997.27002-.88.09003-1.03998,0-.16003-.08997-.52002-.35999-.52002-.89996,0-.54999-.45001-1-1-1h-4c-.54999,0-1,.45001-1,1,0,.53998-.35999.81-.52002.89996-.15997.09003-.57001.27002-1.03998,0-.22998-.13-.51001-.16998-.76001-.09998-.26001.07001-.47998.23999-.60999.46997l-2,3.46002c-.13.22998-.16998.51001-.10004.76001.07001.26001.24005.47998.47003.60999.46997.27002.52002.72003.52002.90002s-.05005.63-.52002.89996c-.22998.13-.40002.35004-.47003.61005-.06995.25-.02997.52997.10004.75995l2,3.46002c.13.22998.34998.40002.60999.47003.25.06.53003.02997.76001-.10004.46997-.27002.88-.08997,1.03998,0,.16003.09003.52002.35999.52002.90002,0,.54999.45001,1,1,1h4c.54999,0,1-.45001,1-1,0-.54004.35999-.81.52002-.90002.15997-.08997.57001-.27002,1.03998,0,.22998.13.5.16003.76001.10004.26001-.07001.47998-.24005.60999-.47003l2-3.46002c.13-.22998.16998-.50995.10004-.75995-.07001-.26001-.24005-.48004-.47003-.61005ZM37.78003,36.99022l-1.17004,2.02002c-.70001-.14001-1.44-.02002-2.08997.35999-.65002.37-1.12.95001-1.35004,1.63h-2.33997c-.23004-.67999-.70001-1.26001-1.35004-1.63-.64996-.38-1.38995-.5-2.08997-.35999l-1.17004-2.02002c.47003-.53998.74005-1.23999.74005-1.98999s-.27002-1.45001-.74005-1.98999l1.17004-2.02002c.70001.14001,1.44.02002,2.08997-.35999.65002-.37,1.12-.95001,1.35004-1.63h2.33997c.23004.67999.70001,1.26001,1.35004,1.63.64996.38,1.38995.5,2.08997.35999l1.17004,2.02002c-.47003.53998-.74005,1.23999-.74005,1.98999s.27002,1.45001.74005,1.98999Z"/>
    <path d="M35,35.00023c0-1.6543-1.3457-3-3-3s-3,1.3457-3,3,1.3457,3,3,3,3-1.3457,3-3ZM32,36.00023c-.55127,0-1-.44824-1-1s.44873-1,1-1,1,.44824,1,1-.44873,1-1,1Z"/>
    <circle cx="29" cy="46.00023" r="1"/>
    <circle cx="35" cy="46.00023" r="1"/>
    <circle cx="27" cy="50.00023" r="1"/>
    <circle cx="37" cy="50.00023" r="1"/>
    <circle cx="32" cy="50.00023" r="1"/>
  </g>
</svg>