<?xml version="1.0" encoding="UTF-8"?>
<svg id="Outline" xmlns="http://www.w3.org/2000/svg" version="1.1" viewBox="0 0 64 64">
  <!-- Generator: Adobe Illustrator 29.5.1, SVG Export Plug-In . SVG Version: 2.1.0 Build 141)  -->
  <path d="M18.95,27.067c-.468-.059-.912.216-1.068.661-1.582,4.497-1.221,9.284,1.016,13.479,2.233,4.187,2.803,9.021,1.604,13.61-.101.384.036.792.348,1.038.18.143.399.215.62.215.161,0,.322-.039.47-.117,4.24-2.259,6.979-7.737,6.979-13.958,0-7.794-4.285-14.212-9.968-14.928ZM22.939,52.748c.56-4.278-.221-8.628-2.277-12.483-1.835-3.442-2.236-7.338-1.156-11.059,4.216,1.101,7.412,6.506,7.412,12.788,0,4.346-1.537,8.364-3.979,10.753Z"/>
  <path d="M15.384,29.122c.087-.38-.055-.777-.365-1.016-.309-.237-.729-.272-1.075-.093-4.268,2.244-7.025,7.731-7.025,13.981,0,7.777,4.274,14.194,9.943,14.926.043.006.086.008.128.008.405,0,.776-.246.929-.63,1.836-4.614,1.55-9.772-.785-14.152-2.135-4.004-2.757-8.63-1.75-13.025ZM16.343,54.788c-4.221-1.094-7.425-6.508-7.425-12.793,0-4.428,1.591-8.507,4.109-10.878-.434,4.105.372,8.278,2.341,11.972,1.928,3.617,2.271,7.837.975,11.699Z"/>
  <path d="M27.408,30.177c1.729.046,4.925-2.9,5.684-3.664,1.929-1.94,3.365-4.349,4.162-6.967,1.321-4.341,4.153-8.051,7.973-10.447.331-.208.511-.589.46-.976s-.322-.71-.695-.826c-4.602-1.43-10.435.5-14.854,4.919-5.499,5.499-7.014,13.059-3.524,17.585.195.253.468.367.793.376ZM31.554,13.631c3.043-3.043,6.917-4.791,10.306-4.791.098,0,.195.001.292.004-3.209,2.597-5.591,6.117-6.81,10.121-1.194,3.921-3.936,7.147-7.583,8.961-2.211-3.758-.648-9.852,3.795-14.296Z"/>
  <path d="M56.638,51.015c-.12.38-.45.66-.84.7-.04.01-.08.01-.12.01-.35,0-.68-.19-.86-.49-2.4-4.09-6.23-7.1-10.76-8.49-4.55-1.38-8.19-4.51-10.25-8.82-.12-.25-.12-.53-.02-.77-1-.02-1.98-.16-2.9-.44-.38-.12-.66-.45-.7-.84-.05-.4.14-.78.48-.98,4.1-2.4,7.11-6.22,8.5-10.76,1.38-4.55,4.51-8.19,8.81-10.25.42-.21.93-.08,1.22.29,2.62,3.37,2.47,8.69-.37,13.55-.28.47-.89.63-1.37.35-.47-.28-.63-.89-.35-1.36,2.23-3.82,2.58-7.89.97-10.64-3.39,1.87-5.86,4.9-6.99,8.64-1.28,4.18-3.81,7.81-7.23,10.43,3.46.08,7.35-1.72,10.42-4.79.19-.19.37-.37.54-.56.37-.41,1-.44,1.41-.07s.44,1,.07,1.41c-.19.21-.39.43-.6.64-1.27,1.26-2.65,2.32-4.08,3.15,2.19.29,4.49,1.14,6.69,2.55.46.29.6.91.3,1.38-.29.46-.91.6-1.38.3-3.95-2.52-8.34-3.01-11.23-1.33,1.87,3.4,4.91,5.87,8.64,7,4.18,1.28,7.8,3.81,10.44,7.22.03-3.41-1.73-7.34-4.8-10.41-.46-.31-.55-.91-.24-1.37.31-.46.96-.56,1.42-.25.1.07.18.14.24.21,4.39,4.39,6.33,10.2,4.94,14.79Z"/>
  <path d="M43.471,44.658c-4.341-1.322-8.052-4.154-10.447-7.974-.208-.331-.588-.511-.976-.46-.387.05-.71.322-.826.695-1.431,4.604.5,10.435,4.919,14.854,3.508,3.509,7.855,5.396,11.718,5.395,2.192,0,4.229-.608,5.867-1.871.362-.279.488-.768.308-1.188-1.963-4.561-5.813-8.006-10.562-9.451ZM37.555,50.359c-3.131-3.131-4.891-7.141-4.787-10.598,2.596,3.209,6.116,5.591,10.121,6.81,3.921,1.194,7.147,3.935,8.961,7.583-3.758,2.212-9.852.648-14.296-3.795Z"/>
</svg>