<?xml version="1.0" encoding="UTF-8"?>
<svg id="Outline" xmlns="http://www.w3.org/2000/svg" version="1.1" viewBox="0 0 64 64">
  <!-- Generator: Adobe Illustrator 29.5.1, SVG Export Plug-In . SVG Version: 2.1.0 Build 141)  -->
  <path d="M56,41h-17.27002c1.01001-.56,1.95001-1.23999,2.82001-2h4.45001c6.07001,0,11-4.92999,11-11s-4.92999-11-11-11h-30c-.54999,0-1,.45001-1,1v9c0,1.28998.15997,2.56.46997,3.79999h-.10999c-.90997-1.15997-2.08997-1.79999-3.35999-1.79999-2.79999,0-5,3.07001-5,7,0,1.97998.56,3.73999,1.46997,5h-.46997c-.38,0-.71997.20996-.89001.54999-.16998.34003-.14001.75.09003,1.04999l3,4c.19.25.48999.40002.79999.40002h42c.31,0,.60999-.15002.79999-.40002l3-4c.23004-.29999.26001-.70996.09003-1.04999-.17004-.34003-.51001-.54999-.89001-.54999ZM47,19.06c4.48999.48999,8,4.32001,8,8.94,0,4.95996-4.03998,9-9,9h-2.53003c.51001-.63.96002-1.29999,1.37006-2h1.15997c3.85999,0,7-3.14001,7-7,0-3.52002-2.60999-6.44-6-6.92999v-2.01001ZM47,27v-3.90002c2.28003.47003,4,2.48999,4,4.90002,0,2.76001-2.23999,5-5,5h-.17999c.76001-1.85004,1.17999-3.88,1.17999-6ZM21,19h10v8c0,.54999-.45001,1-1,1s-1-.45001-1-1v-3c0-1.65002-1.34998-3-3-3s-3,1.34998-3,3c0,.54999-.45001,1-1,1s-1-.45001-1-1v-5ZM17,19h2v5c0,1.64996,1.34998,3,3,3s3-1.35004,3-3c0-.54999.45001-1,1-1s1,.45001,1,1v3c0,1.64996,1.34998,3,3,3s3-1.35004,3-3v-8h12v8c0,7.71997-6.28003,14-14,14-2.82001,0-5.5-.83002-7.81-2.40002-.02002-.28998-.04999-.58997-.10999-.89996-.31-1.52002-1.17004-3.06-2.45001-4.34003-.90002-.90002-1.91003-1.57001-2.91998-2-.46002-1.40997-.71002-2.88-.71002-4.35999v-8ZM23.27002,41h-.58002c.03998-.08002.08002-.17004.12-.26001.15002.08997.31.16998.46002.26001ZM15.13,32.78998c1.25,0,2.82001.72003,4.08997,1.98999,1,.98999,1.67004,2.17004,1.90002,3.32001.10999.57001.21002,1.65002-.48999,2.34003-.42999.42999-1.01001.54999-1.52002.56h-.01001c-.29999,0-.58997-.04004-.79999-.08002-1.14996-.22998-2.33002-.90002-3.32001-1.90002-1.91998-1.90997-2.57001-4.50995-1.41998-5.65997.39001-.38.94-.57001,1.57001-.57001ZM12,31c.38,0,.71997.13,1.01001.31-.31.16998-.60004.38-.85999.64001-1.96002,1.95996-1.37,5.62,1.31,8.37994-.36005.35004-.86005.67004-1.46002.67004-1.63,0-3-2.29004-3-5s1.37-5,3-5ZM52.5,45H11.5l-1.5-2h44l-1.5,2Z"/>
</svg>