<?xml version="1.0" encoding="UTF-8"?>
<svg id="Outline" xmlns="http://www.w3.org/2000/svg" version="1.1" viewBox="0 0 64 64">
  <!-- Generator: Adobe Illustrator 29.3.1, SVG Export Plug-In . SVG Version: 2.1.0 Build 151)  -->
  <path d="M57,29v-2c0-1.10004-.90002-2-2-2h-.21997l-.62006-2.48004c-.21997-.88995-1.01996-1.51996-1.94-1.51996h-7.96997c1.56-4.32001,1.09998-8.69-1.64001-11.44-4.28998-4.29004-12.53998-3.02002-18.39001,2.83002-2.57996,2.57996-4.26996,5.63995-4.97998,8.60999h-7.45996c-.92004,0-1.72003.63-1.94,1.51996l-.62006,2.48004h-.21997c-1.09998,0-2,.89996-2,2v2c0,.76001.42999,1.40997,1.06,1.75l.48999,6.34998c-.34998.10999-.66998.29999-.91998.58002-.38.42999-.54999,1-.47998,1.57001l.75,6c.09998.78998.65997,1.42999,1.39996,1.64996l.56,7.33002c.12,1.54999,1.42999,2.77002,2.98999,2.77002h12.30005c1.56,0,2.87-1.22003,2.98999-2.77002l.56-7.33002c.73999-.21997,1.29999-.85999,1.39996-1.64996l.75-6c.07001-.57001-.09998-1.14001-.47998-1.57001-.25-.28003-.57001-.47003-.91998-.58002l.31-3.91998c1.44-.19,2.92999-.62,4.39001-1.28998l.39996,5.20996c-.34998.10999-.66998.29999-.91998.58002-.38.42999-.54999,1-.47998,1.57001l.75,6c.09998.78998.65997,1.42999,1.39996,1.64996l.56,7.33002c.12,1.54999,1.42999,2.77002,2.98999,2.77002h12.30005c1.56,0,2.87-1.22003,2.98999-2.77002l.56-7.33002c.73999-.21997,1.29999-.85999,1.39996-1.64996l.75-6c.07001-.57001-.09998-1.14001-.47998-1.57001-.25-.28003-.57001-.47003-.91998-.58002l.48999-6.34998c.63-.34003,1.06-.98999,1.06-1.75ZM52.21997,23l.5,2h-10.51996c.44-.66003.83997-1.32001,1.19-2h8.82996ZM25.64001,13.79999c3.13-3.13,6.98999-4.81,10.31-4.81,1.76001,0,3.38.47998,4.64996,1.46002l-1.59998,2.50995c-1.78998,2.81-4.34003,4.98004-7.39001,6.29004-3.42999,1.45996-6.28998,3.89996-8.28998,7.03998l-1.31,2.06c-2.45001-3.71997-1-9.91998,3.63-14.54999ZM27.73999,33.29999l-.28998,3.70001H10.54999l-.46997-6h11.57001c1.62,1.48999,3.75,2.23999,6.08997,2.29999ZM11.78003,23h7.13995c-.06.67999-.07001,1.34998-.01996,2h-7.62l.5-2ZM9,27h10.22998c.20001.70001.47003,1.38.82001,2h-11.04999v-2ZM26.14001,54.07001c-.04004.52997-.46002.92999-.98999.92999h-12.30005c-.52997,0-.94995-.40002-.98999-.92999l-.54999-7.07001h15.38l-.54999,7.07001ZM28.12,45H9.88l-.75-6h19.73999l-.75,6ZM29.84003,31.17999c-2.56.41998-4.80005-.03998-6.43005-1.29999l1.59003-2.51001c1.78998-2.79999,4.34003-4.97998,7.39001-6.28003,3.42999-1.46997,6.28998-3.90997,8.28998-7.04999l1.31-2.06c1.63,2.48999,1.53003,6.07001-.09998,9.57001-.02002.02997-.04004.06-.04999.09998-.81,1.70001-1.97003,3.37-3.48004,4.88-2.48999,2.5-5.51996,4.15002-8.51996,4.65002ZM53.91998,31l-.46997,6h-16.90002l-.46997-6h17.83997ZM52.14001,54.07001c-.04004.52997-.46002.92999-.98999.92999h-12.30005c-.52997,0-.94995-.40002-.98999-.92999l-.54999-7.07001h15.38l-.54999,7.07001ZM54.12,45h-18.23999l-.75-6h19.73999l-.75,6ZM55,29h-16.38c.40002-.34003.78003-.67999,1.16003-1.06.31-.29999.58997-.62.87994-.94h14.34003v2Z"/>
</svg>