<?xml version="1.0" encoding="UTF-8"?>
<svg id="Outline" xmlns="http://www.w3.org/2000/svg" version="1.1" viewBox="0 0 64 64">
  <!-- Generator: Adobe Illustrator 29.3.1, SVG Export Plug-In . SVG Version: 2.1.0 Build 151)  -->
  <path d="M57,28v-8c0-4.62793-9.68652-6.5835-13.85156-7.20898-.54248-.08301-1.05566.29297-1.13721.84033-.08203.5459.29395,1.05518.84033,1.13721,7.97559,1.19873,12.14844,3.53906,12.14844,5.23145,0,2.44531-8.35095,5.82361-22,5.98468v-1.16895c1.1615-.41412,2-1.51379,2-2.81573,0-1.6543-1.3457-3-3-3-.55127,0-1-.44873-1-1s.44873-1,1-1,1,.44873,1,1c0,.55225.44775,1,1,1s1-.44775,1-1c0-1.30194-.8385-2.40161-2-2.81573v-1.16321c2.03937.02417,4.02582.10632,5.89014.27484.55566.0498,1.03613-.35596,1.08594-.90625.04932-.5498-.35596-1.03613-.90625-1.08594-2.23096-.20166-4.60986-.30371-7.06982-.30371-12.11963,0-25,2.80371-25,8v8c0,1.54724,1.14838,2.88049,3.0722,3.99261-2.03027,1.16748-3.0722,2.50879-3.0722,4.00739v8c0,5.19629,12.88037,8,25,8s25-2.80371,25-8c0-.55225-.44775-1-1-1s-1,.44775-1,1c0,1.00049-1.41614,2.15649-4,3.18701v-5.86853c1.62042-.58496,2.98352-1.26306,4-2.03101v.71252c0,.55225.44775,1,1,1s1-.44775,1-1v-4c0-1.4986-1.04193-2.8399-3.0722-4.00739,1.92383-1.11212,3.0722-2.44537,3.0722-3.99261ZM45,32.8623v-5.98096c1.41571-.26221,2.76007-.56866,4-.92059v5.92773c-1.17413.35809-2.51611.68561-4,.97382ZM39,33.69366v-6.00482c1.36493-.12231,2.70483-.28027,4-.47351v5.99353c-1.24982.19312-2.58087.35767-4,.4848ZM37,27.84052v6.00818c-1.27209.07843-2.61542.11963-4,.13599v-5.99188c1.33502-.01691,2.67377-.06854,4-.15228ZM19,26.88135v5.98096c-1.48389-.28821-2.82587-.61572-4-.97382v-5.92773c1.23993.35193,2.58429.65839,4,.92059ZM21,27.21533c1.29517.19324,2.63507.3512,4,.47351v6.00482c-1.41913-.12714-2.75018-.29169-4-.4848v-5.99353ZM27,27.84052c1.32623.08374,2.66498.13538,4,.15228v5.99188c-1.38458-.01636-2.72791-.05756-4-.13599v-6.00818ZM31,14.01532v1.16895c-1.1615.41412-2,1.51379-2,2.81573,0,1.6543,1.3457,3,3,3,.55127,0,1,.44873,1,1s-.44873,1-1,1-1-.44873-1-1c0-.55225-.44775-1-1-1s-1,.44775-1,1c0,1.30194.8385,2.40155,2,2.81567v1.16901c-13.64905-.16107-22-3.53937-22-5.98468s8.35095-5.82361,22-5.98468ZM9,28v-4.71252c1.01648.76794,2.37958,1.44604,4,2.03101v5.86853c-2.58386-1.03052-4-2.18652-4-3.18701ZM9,44v-4.71252c1.01648.76794,2.37958,1.44604,4,2.03101v5.86853c-2.58386-1.03052-4-2.18652-4-3.18701ZM43,43.21533v5.99353c-1.24982.19312-2.58087.35767-4,.4848v-6.00482c1.36493-.12231,2.70483-.28027,4-.47351ZM37,49.84869c-1.27209.07843-2.61542.11963-4,.13599v-5.99188c1.33502-.01691,2.67377-.06854,4-.15228v6.00818ZM31,49.98468c-1.38458-.01636-2.72791-.05756-4-.13599v-6.00818c1.32623.08374,2.66498.13538,4,.15228v5.99188ZM25,49.69366c-1.41913-.12714-2.75018-.29169-4-.4848v-5.99353c1.29517.19324,2.63507.3512,4,.47351v6.00482ZM19,48.8623c-1.48389-.28821-2.82587-.61572-4-.97382v-5.92773c1.23993.35193,2.58429.65839,4,.92059v5.98096ZM49,47.88849c-1.17413.35809-2.51611.68561-4,.97382v-5.98096c1.41571-.26221,2.76007-.56866,4-.92059v5.92773ZM55,36c0,2.50537-8.75,6-23,6s-23-3.49463-23-6c0-.91248,1.25409-1.99146,3.35809-2.922,4.87445,1.91809,12.39294,2.922,19.64191,2.922s14.76746-1.00391,19.64191-2.922c2.104.93054,3.35809,2.00952,3.35809,2.922ZM51,31.18701v-5.86853c1.62042-.58496,2.98352-1.26306,4-2.03101v4.71252c0,1.00049-1.41614,2.15649-4,3.18701Z"/>
  <path d="M20,23c2.24316,0,4-1.31787,4-3s-1.75684-3-4-3-4,1.31787-4,3,1.75684,3,4,3ZM20,19c1.2207,0,2,.59229,2,1s-.7793,1-2,1-2-.59229-2-1,.7793-1,2-1Z"/>
  <path d="M44,23c2.24316,0,4-1.31787,4-3s-1.75684-3-4-3-4,1.31787-4,3,1.75684,3,4,3ZM44,19c1.2207,0,2,.59229,2,1s-.7793,1-2,1-2-.59229-2-1,.7793-1,2-1Z"/>
</svg>