<?xml version="1.0" encoding="UTF-8"?>
<svg id="Outline" xmlns="http://www.w3.org/2000/svg" version="1.1" viewBox="0 0 64 64">
  <!-- Generator: Adobe Illustrator 29.5.1, SVG Export Plug-In . SVG Version: 2.1.0 Build 141)  -->
  <path d="M49.65,21.37c.22-.41.35-.87.35-1.37,0-1.65-1.35-3-3-3h-30c-1.65,0-3,1.35-3,3,0,.5.13.96.35,1.37-4.23,1.17-7.35,5.04-7.35,9.63,0,.55.45,1,1,1h4c.55,0,1-.45,1-1,0-1.86,1.28-3.42,3.01-3.86.05,6.08,3.51,11.35,8.55,14.01l-1.51,4.53c-.1.31-.05.64.14.9.19.27.49.42.81.42h16c.32,0,.62-.15.81-.42.19-.26.24-.59.14-.9l-1.51-4.53c5.04-2.66,8.5-7.93,8.55-14.01,1.73.44,3.01,2,3.01,3.86,0,.55.45,1,1,1h4c.55,0,1-.45,1-1,0-4.59-3.12-8.46-7.35-9.63ZM16,25.08c-2.51.43-4.49,2.41-4.92,4.92h-2.02c.45-3.61,3.33-6.49,6.94-6.94v2.02ZM25.39,45l1.01-3.03c1.74.65,3.63,1.03,5.6,1.03s3.86-.38,5.6-1.03l1.01,3.03h-13.22ZM46,27c0,7.72-6.28,14-14,14s-14-6.28-14-14v-4h28v4ZM47,21h-30c-.55,0-1-.45-1-1s.45-1,1-1h30c.55,0,1,.45,1,1s-.45,1-1,1ZM52.92,30c-.43-2.51-2.41-4.49-4.92-4.92v-2.02c3.61.45,6.49,3.33,6.94,6.94h-2.02Z"/>
  <path d="M22,27h2c.553,0,1-.447,1-1s-.447-1-1-1h-2c-.553,0-1,.447-1,1s.447,1,1,1Z"/>
  <path d="M28,27h2c.553,0,1-.447,1-1s-.447-1-1-1h-2c-.553,0-1,.447-1,1s.447,1,1,1Z"/>
  <path d="M42,25h-2c-.553,0-1,.447-1,1s.447,1,1,1h2c.553,0,1-.447,1-1s-.447-1-1-1Z"/>
  <path d="M34,27h2c.553,0,1-.447,1-1s-.447-1-1-1h-2c-.553,0-1,.447-1,1s.447,1,1,1Z"/>
  <path d="M25,30c0-.553-.447-1-1-1h-2c-.553,0-1,.447-1,1s.447,1,1,1h2c.553,0,1-.447,1-1Z"/>
  <path d="M28,31h2c.553,0,1-.447,1-1s-.447-1-1-1h-2c-.553,0-1,.447-1,1s.447,1,1,1Z"/>
  <path d="M42,29h-2c-.553,0-1,.447-1,1s.447,1,1,1h2c.553,0,1-.447,1-1s-.447-1-1-1Z"/>
  <path d="M34,31h2c.553,0,1-.447,1-1s-.447-1-1-1h-2c-.553,0-1,.447-1,1s.447,1,1,1Z"/>
  <path d="M28,34c0-.553-.447-1-1-1h-2c-.553,0-1,.447-1,1s.447,1,1,1h2c.553,0,1-.447,1-1Z"/>
  <path d="M34,34c0-.553-.447-1-1-1h-2c-.553,0-1,.447-1,1s.447,1,1,1h2c.553,0,1-.447,1-1Z"/>
  <path d="M39,33h-2c-.553,0-1,.447-1,1s.447,1,1,1h2c.553,0,1-.447,1-1s-.447-1-1-1Z"/>
  <path d="M30,37h-2c-.553,0-1,.447-1,1s.447,1,1,1h2c.553,0,1-.447,1-1s-.447-1-1-1Z"/>
  <path d="M36,37h-2c-.553,0-1,.447-1,1s.447,1,1,1h2c.553,0,1-.447,1-1s-.447-1-1-1Z"/>
</svg>