<?xml version="1.0" encoding="UTF-8"?>
<svg id="Outline" xmlns="http://www.w3.org/2000/svg" version="1.1" viewBox="0 0 64 64">
  <!-- Generator: Adobe Illustrator 29.5.1, SVG Export Plug-In . SVG Version: 2.1.0 Build 141)  -->
  <path d="M47,42c-.552,0-1,.448-1,1v1h-6v-2c2.206,0,4-1.794,4-4,0-.552-.448-1-1-1s-1,.448-1,1c0,1.103-.897,2-2,2h-6c-.551,0-1-.449-1-1s.449-1,1-1h5c.552,0,1-.448,1-1v-1c0-.795.313-1.551.872-2.118.542-.534,1.248-.848,1.938-.882h.19c1.285,0,2.461.943,2.861,2.293.157.53.714.83,1.243.675.53-.157.832-.713.675-1.243-.351-1.186-1.093-2.166-2.038-2.828.771-.73,1.259-1.755,1.259-2.898,0-2.206-1.794-4-4-4s-4,1.794-4,4c0,1.12.465,2.13,1.209,2.857-.265.179-.518.381-.751.611-.94.954-1.458,2.208-1.458,3.532h-4c-.771,0-1.468.301-2,.78-.532-.48-1.229-.78-2-.78h-4c0-1.324-.518-2.579-1.468-3.542-.229-.226-.478-.426-.74-.602.743-.727,1.208-1.737,1.208-2.856,0-2.206-1.794-4-4-4s-4,1.794-4,4c0,1.144.489,2.17,1.261,2.9-.208.146-.416.294-.606.474-1.052,1.003-1.655,2.407-1.655,3.852v8.774c0,.552.448,1,1,1h.087l.917,10.09c.047.515.479.91.996.91h7c.552,0,1-.448,1-1,0-1.818-1.226-3.339-2.889-3.824l.772-6.176h.117c.552,0,1-.448,1-1v-3h4c.771,0,1.468-.301,2-.78.532.48,1.229.78,2,.78h4v3c0,.552.448,1,1,1h.117l.772,6.176c-1.663.485-2.889,2.006-2.889,3.824,0,.552.448,1,1,1h7c.517,0,.949-.395.996-.91l.917-10.09h.087c.552,0,1-.448,1-1v-2c0-.552-.448-1-1-1ZM43,27c1.103,0,2,.897,2,2s-.897,2-2,2-2-.897-2-2,.897-2,2-2ZM21,27c1.103,0,2,.897,2,2s-.897,2-2,2-2-.897-2-2,.897-2,2-2ZM22.117,52h-.117c-.552,0-1,.448-1,1s.448,1,1,1h1c.739,0,1.385.403,1.731,1h-4.818l-.818-9h3.772l-.75,6ZM30,40h-6c-1.103,0-2-.897-2-2,0-.552-.448-1-1-1s-1,.448-1,1c0,2.206,1.794,4,4,4v2h-6v-7.774c0-.9.377-1.777,1.035-2.404.591-.564,1.342-.863,2.108-.818.741.036,1.446.348,1.975.869.568.577.882,1.333.882,2.128v1c0,.552.448,1,1,1h5c.551,0,1,.449,1,1s-.449,1-1,1ZM44.087,55h-4.818c.346-.597.993-1,1.731-1h1c.552,0,1-.448,1-1s-.448-1-1-1h-.117l-.75-6h3.772l-.818,9Z"/>
  <path d="M32,13c-2.757,0-5,2.243-5,5s2.243,5,5,5,5-2.243,5-5-2.243-5-5-5ZM32,21c-1.654,0-3-1.346-3-3s1.346-3,3-3,3,1.346,3,3-1.346,3-3,3Z"/>
  <path d="M56.64,17.23l-6-5c-.3-.25-.71-.3-1.06-.14-.36.17-.58.52-.58.91v2h-6.39c.07-.25.06-.53-.08-.77l-2-3.46c-.23-.4-.7-.59-1.14-.46l-1.92.54c-.62-.48-1.29-.87-2.02-1.16l-.48-1.93c-.11-.45-.51-.76-.97-.76h-4c-.46,0-.86.31-.97.76l-.48,1.93c-.73.29-1.4.68-2.02,1.16l-1.92-.54c-.44-.13-.91.06-1.14.46l-2,3.46c-.14.24-.15.52-.08.77h-6.39v-2c0-.39-.22-.74-.58-.91-.35-.16-.76-.11-1.06.14l-6,5c-.23.19-.36.47-.36.77s.13.58.36.77l6,5c.616.513,1.64.088,1.64-.77v-2h6.39c-.07.25-.06.53.08.77l2,3.46c.23.4.7.59,1.14.46l1.92-.54c.62.48,1.29.87,2.02,1.16l.48,1.93c.11.45.51.76.97.76h4c.46,0,.86-.31.97-.76l.48-1.93c.73-.29,1.4-.68,2.02-1.16l1.92.54c.44.13.91-.06,1.14-.46l2-3.46c.14-.24.15-.52.08-.77h6.39v2c0,.806,1.015,1.291,1.64.77l6-5c.23-.19.36-.47.36-.77s-.13-.58-.36-.77ZM23.06,19h-9.06c-.55,0-1,.45-1,1v.86l-3.44-2.86,3.44-2.86v.86c0,.55.45,1,1,1h9.06c-.03.33-.06.67-.06,1s.03.67.06,1ZM38.88,16.66c.08.45.12.9.12,1.34s-.04.89-.12,1.34c-.06.33.04.66.28.9l.48.46.01.01.75.73-1.22,2.11-1.67-.47c-.32-.09-.68-.02-.93.21-.67.59-1.44,1.04-2.29,1.32-.32.11-.57.38-.65.71l-.42,1.68h-2.44l-.42-1.68c-.08-.33-.33-.6-.65-.71-.85-.28-1.62-.73-2.29-1.32-.25-.23-.61-.3-.93-.21l-1.67.47-1.22-2.11.75-.73.01-.01.48-.46c.24-.24.34-.57.28-.9-.08-.45-.12-.9-.12-1.34s.04-.89.12-1.34c.06-.33-.04-.66-.28-.9l-.48-.46-.01-.01-.75-.73,1.22-2.11,1.67.47c.32.09.68.02.93-.21.67-.59,1.44-1.04,2.29-1.32.32-.11.57-.38.65-.71l.42-1.68h2.44l.42,1.68c.08.33.33.6.65.71.85.28,1.62.73,2.29,1.32.26.23.61.31.93.21l1.67-.47,1.22,2.11-.75.73-.01.01-.48.46c-.24.24-.34.57-.28.9ZM51,20.86v-.86c0-.55-.45-1-1-1h-9.06c.03-.33.06-.67.06-1s-.03-.67-.06-1h9.06c.55,0,1-.45,1-1v-.86l3.44,2.86-3.44,2.86Z"/>
  <circle cx="47" cy="39" r="1"/>
</svg>