<?xml version="1.0" encoding="UTF-8"?>
<svg id="Outline" xmlns="http://www.w3.org/2000/svg" version="1.1" viewBox="0 0 64 64">
  <!-- Generator: Adobe Illustrator 29.5.1, SVG Export Plug-In . SVG Version: 2.1.0 Build 141)  -->
  <path d="M51.55,15.37c.77.38,1.61.57,2.45.57s1.68-.19,2.45-.57c.34-.17.55-.52.55-.9v-6c0-.34-.18-.67-.47-.85-.3-.18-.67-.2-.98-.04-.97.48-2.13.48-3.1,0-1.54-.77-3.37-.77-4.9,0-.34.17-.55.51-.55.89v10.53h-10v-3.83c.84-.26,1.76-.2,2.55.2.77.38,1.61.57,2.45.57s1.68-.19,2.45-.57c.34-.17.55-.52.55-.9v-6c0-.34-.18-.67-.47-.85-.3-.18-.67-.2-.98-.04-.97.48-2.13.48-3.1,0-1.54-.77-3.37-.77-4.9,0-.34.17-.55.51-.55.89v10.53h-.28l-3.77-11.32c-.14-.4-.52-.68-.95-.68H10c-.55,0-1,.45-1,1v11h-1c-.55,0-1,.45-1,1v4c0,.55.45,1,1,1h1v12h-1c-.55,0-1,.45-1,1v4c0,.55.45,1,1,1h1v13c0,.55.45,1,1,1h44c.55,0,1-.45,1-1v-13h1c.55,0,1-.45,1-1v-4c0-.55-.45-1-1-1h-1v-4c0-.55-.45-1-1-1s-1,.45-1,1v4h-3v-5c0-2.76-2.24-5-5-5s-5,2.24-5,5v5h-3v-5c0-2.76-2.24-5-5-5s-5,2.24-5,5v5h-3v-5c0-2.76-2.24-5-5-5s-5,2.24-5,5v5h-3v-12h42v4c0,.55.45,1,1,1s1-.45,1-1v-4h1c.55,0,1-.45,1-1v-4c0-.55-.45-1-1-1h-7v-3.83c.84-.26,1.76-.2,2.55.2ZM49,9.15c.84-.25,1.76-.18,2.55.22,1.07.53,2.29.69,3.45.48v3.95c-.84.25-1.76.17-2.55-.22-.77-.39-1.61-.58-2.45-.58-.33,0-.67.03-1,.09v-3.94ZM37,9.15c.84-.25,1.76-.18,2.55.22,1.07.53,2.29.69,3.45.48v3.95c-.84.25-1.76.17-2.55-.22-.77-.39-1.61-.58-2.45-.58-.33,0-.67.03-1,.09v-3.94ZM22,55h-6v-5c0-1.65,1.35-3,3-3s3,1.35,3,3v5ZM35,55h-6v-5c0-1.65,1.35-3,3-3s3,1.35,3,3v5ZM48,55h-6v-5c0-1.65,1.35-3,3-3s3,1.35,3,3v5ZM53,55h-3v-5c0-2.76-2.24-5-5-5s-5,2.24-5,5v5h-3v-5c0-2.76-2.24-5-5-5s-5,2.24-5,5v5h-3v-5c0-2.76-2.24-5-5-5s-5,2.24-5,5v5h-3v-12h42v12ZM42,32c0-1.65,1.35-3,3-3s3,1.35,3,3v5h-6v-5ZM29,32c0-1.65,1.35-3,3-3s3,1.35,3,3v5h-6v-5ZM16,32c0-1.65,1.35-3,3-3s3,1.35,3,3v5h-6v-5ZM55,39v2H9v-2h46ZM55,21v2H9v-2h17c.55,0,1-.45,1-1s-.45-1-1-1h-2v-3c0-2.76-2.24-5-5-5s-5,2.24-5,5v3h-3v-10h18.28l3.33,10h-2.61c-.55,0-1,.45-1,1s.45,1,1,1h25ZM16,19v-3c0-1.65,1.35-3,3-3s3,1.35,3,3v3h-6Z"/>
</svg>