<?xml version="1.0" encoding="UTF-8"?>
<svg id="Outline" xmlns="http://www.w3.org/2000/svg" version="1.1" viewBox="0 0 64 64">
  <!-- Generator: Adobe Illustrator 29.5.1, SVG Export Plug-In . SVG Version: 2.1.0 Build 141)  -->
  <path d="M49,23h-1.06c-.26-3.69-1.96-7.14-4.8-9.73l.67-.66c.2-.2.3-.48.29-.76-.02-.28-.15-.55-.37-.73-3.26-2.66-7.43-4.12-11.73-4.12s-8.47,1.46-11.73,4.12c-.22.18-.35.45-.37.73-.01.28.09.56.29.76l.67.66c-2.84,2.59-4.54,6.04-4.8,9.73h-1.06c-.55,0-1,.45-1,1v4c0,.55.45,1,1,1h1.1l2.91,27.11c.05.5.48.89.99.89h24c.51,0,.94-.39.99-.89l2.91-27.11h1.1c.55,0,1-.45,1-1v-4c0-.55-.45-1-1-1ZM32,9c3.46,0,6.83,1.06,9.58,3l-1.42,1.44c-2.36-1.58-5.23-2.44-8.16-2.44s-5.8.86-8.16,2.44l-1.42-1.44c2.75-1.94,6.12-3,9.58-3ZM22.27,14.69l.75.76c.34.34.94.38,1.33.08,2.13-1.63,4.85-2.53,7.65-2.53s5.52.9,7.65,2.53c.18.14.4.21.62.21.27,0,.52-.11.71-.29l.75-.76c2.46,2.21,3.95,5.16,4.21,8.31h-27.88c.26-3.15,1.75-6.1,4.21-8.31ZM36,27c-1.65,0-3,1.35-3,3v12c0,.55-.45,1-1,1s-1-.45-1-1v-8c0-1.65-1.35-3-3-3s-3,1.35-3,3v2c0,.55-.45,1-1,1s-1-.45-1-1v-10c0-.35-.07-.69-.18-1h18.36c-.11.31-.18.65-.18,1v13c0,.55-.45,1-1,1s-1-.45-1-1v-9c0-1.65-1.35-3-3-3ZM16,27v-2h4c.55,0,1,.45,1,1v1h-5ZM43.1,55h-22.2l-2.79-26h2.89v7c0,1.65,1.35,3,3,3s3-1.35,3-3v-2c0-.55.45-1,1-1s1,.45,1,1v8c0,1.65,1.35,3,3,3s3-1.35,3-3v-12c0-.55.45-1,1-1s1,.45,1,1v9c0,1.65,1.35,3,3,3s3-1.35,3-3v-10h2.89l-2.79,26ZM48,27h-5v-1c0-.55.45-1,1-1h4v2Z"/>
</svg>