<?xml version="1.0" encoding="UTF-8"?>
<svg id="Outline" xmlns="http://www.w3.org/2000/svg" version="1.1" viewBox="0 0 64 64">
  <!-- Generator: Adobe Illustrator 29.5.1, SVG Export Plug-In . SVG Version: 2.1.0 Build 141)  -->
  <path d="M32,7c-13.785,0-25,11.215-25,25s11.215,25,25,25,25-11.215,25-25S45.785,7,32,7ZM32,55c-12.683,0-23-10.318-23-23s10.317-23,23-23,23,10.318,23,23-10.317,23-23,23Z"/>
  <path d="M32,11c-11.579,0-21,9.42-21,21,0,4.834,1.686,9.552,4.746,13.284.35.425.979.489,1.407.139.428-.351.489-.98.14-1.408-2.769-3.375-4.293-7.643-4.293-12.016,0-10.477,8.523-19,19-19s19,8.523,19,19-8.523,19-19,19c-4.437,0-8.592-1.484-12.017-4.293-.428-.352-1.057-.287-1.407.139-.35.427-.288,1.057.14,1.407,3.731,3.061,8.449,4.747,13.284,4.747,11.579,0,21-9.42,21-21s-9.421-21-21-21Z"/>
  <path d="M32,15c-9.374,0-17,7.626-17,17s7.626,17,17,17,17-7.626,17-17c0-3.819-1.235-7.424-3.571-10.424-.34-.437-.968-.515-1.403-.175-.436.339-.514.968-.175,1.403,2.061,2.646,3.149,5.826,3.149,9.196,0,8.271-6.729,15-15,15s-15-6.729-15-15,6.729-15,15-15c3.369,0,6.549,1.089,9.195,3.149.436.339,1.063.261,1.403-.175.339-.436.261-1.064-.175-1.403-3-2.336-6.604-3.571-10.424-3.571Z"/>
  <path d="M34.098,26.391c.744.277,1.44.698,2.028,1.249.189.178.436.271.684.271.172,0,.344-.044.499-.134l3.54-2.04c.257-.147.435-.401.485-.693.052-.292-.028-.591-.219-.817-1.57-1.864-3.728-3.211-6.105-3.832-.734-.847-1.804-1.394-3.01-1.394s-2.276.548-3.01,1.394c-2.377.621-4.535,1.967-6.105,3.832-.19.227-.271.526-.219.817.051.292.229.545.485.693l3.54,2.04c.155.09.327.134.499.134.248,0,.494-.092.684-.271.588-.551,1.284-.972,2.028-1.249.612.38,1.326.609,2.098.609s1.486-.23,2.098-.609ZM38.748,24.639l-1.827,1.053c-.432-.335-.898-.621-1.385-.861.287-.551.464-1.167.464-1.83,0-.049-.013-.095-.014-.143,1.012.444,1.955,1.036,2.763,1.782ZM32,21c1.103,0,2,.897,2,2s-.897,2-2,2-2-.897-2-2,.897-2,2-2ZM27.079,25.692l-1.827-1.053c.808-.746,1.751-1.338,2.763-1.782-.002.049-.014.094-.014.143,0,.663.178,1.279.464,1.83-.487.24-.953.526-1.385.861Z"/>
  <path d="M20.741,38.5c.604,1.045,1.613,1.707,2.715,1.918,1.726,1.754,3.969,2.953,6.37,3.376.058.01.116.015.174.015.233,0,.461-.082.643-.234.227-.19.357-.471.357-.766v-4.1c0-.443-.291-.833-.716-.959-.768-.227-1.48-.62-2.094-1.132.023-.719-.135-1.451-.521-2.119-.378-.655-.926-1.169-1.577-1.516-.055-.321-.093-.648-.093-.984,0-.461.058-.925.17-1.378.108-.433-.083-.885-.47-1.108l-3.57-2.06c-.258-.149-.565-.176-.846-.072-.278.103-.496.323-.597.603-.456,1.28-.687,2.632-.687,4.016,0,1.099.154,2.173.442,3.202-.364,1.057-.302,2.255.299,3.298ZM26.206,39.964c.574-.331,1.018-.793,1.352-1.316.453.304.935.566,1.442.771v2.125c-1.062-.325-2.043-.846-2.936-1.51.047-.025.095-.043.142-.07h0ZM25.206,38.232c-.956.55-2.181.222-2.732-.732-.552-.955-.223-2.181.732-2.732.938-.541,2.194-.201,2.732.732.552.955.223,2.181-.731,2.732ZM22.235,29.824l1.846,1.065c-.054.369-.081.74-.081,1.111,0,.176.021.348.032.521-.635.027-1.26.188-1.826.514-.045.026-.079.061-.123.088-.041-.372-.083-.744-.083-1.124,0-.74.079-1.468.235-2.176Z"/>
  <path d="M43.312,27.984c-.101-.279-.318-.5-.597-.603-.28-.103-.588-.076-.846.072l-3.57,2.06c-.387.223-.578.675-.47,1.108.112.453.17.917.17,1.378,0,.335-.038.662-.093.984-.651.348-1.199.862-1.577,1.516-.385.667-.543,1.4-.521,2.119-.614.512-1.325.905-2.094,1.132-.425.126-.716.516-.716.959v4.1c0,.547.454,1,1,1,.058,0,.116-.005.174-.015,2.401-.424,4.645-1.622,6.37-3.377,1.101-.212,2.111-.874,2.715-1.918.602-1.042.663-2.24.299-3.298.288-1.03.442-2.104.442-3.202,0-1.384-.231-2.736-.688-4.016ZM41.765,29.824c.156.708.235,1.436.235,2.176,0,.38-.042.752-.083,1.124-.043-.027-.078-.063-.123-.088-.566-.327-1.191-.487-1.826-.514.011-.174.032-.346.032-.521,0-.371-.027-.743-.081-1.111l1.846-1.065ZM35,39.418c.506-.205.989-.466,1.442-.771.334.524.779.985,1.352,1.317.046.027.095.045.142.07-.893.664-1.874,1.184-2.936,1.51v-2.125ZM41.526,37.5c-.551.955-1.775,1.283-2.732.733-.954-.552-1.283-1.777-.732-2.732.544-.941,1.794-1.275,2.732-.732.955.551,1.284,1.777.732,2.731Z"/>
</svg>