<?xml version="1.0" encoding="UTF-8"?>
<svg id="Outline" xmlns="http://www.w3.org/2000/svg" version="1.1" viewBox="0 0 64 64">
  <!-- Generator: Adobe Illustrator 29.5.1, SVG Export Plug-In . SVG Version: 2.1.0 Build 141)  -->
  <path d="M57,42c0-1.089-.362-2.14-1.017-3,.654-.86,1.017-1.911,1.017-3,0-2.014-1.224-3.812-3.02-4.589.014-.138.02-.274.02-.411,0-.887-.238-1.759-.689-2.52-.282-.476-.896-.632-1.37-.351-.475.282-.632.895-.351,1.37.269.453.41.971.41,1.5,0,.243-.042.502-.131.814-.076.267-.039.554.105.792.143.238.379.405.651.462,1.376.29,2.375,1.522,2.375,2.932,0,.854-.377,1.673-1.036,2.245-.218.19-.344.465-.344.755s.125.565.344.755c.659.572,1.036,1.391,1.036,2.245,0,1.149-.654,2.18-1.707,2.69-.468.227-.684.775-.496,1.26.136.354.203.697.203,1.05,0,.961-.446,1.842-1.224,2.416-.307.227-.458.608-.39.984l.038.206c.261,1.562.92,3.024,1.888,4.251-2.764-.467-5.235-2.05-6.819-4.43-.16-.241-.417-.4-.704-.438-.287-.036-.576.052-.792.244-1.021.907-2.591.996-3.67.254-.258-.177-.583-.224-.879-.125-.296.097-.531.328-.633.623-.417,1.206-1.548,2.017-2.814,2.017-1.083,0-2.088-.606-2.623-1.581-.352-.64-1.402-.64-1.754,0-.535.975-1.54,1.581-2.623,1.581-1.654,0-3-1.346-3-3,0-.543.148-1.06.441-1.536.204-.332.188-.75-.027-1.075-.215-.325-.611-.496-.993-.436-1.792.271-3.421-1.156-3.421-2.954,0-.96.467-1.868,1.25-2.426.304-.216.461-.583.41-.953-.052-.37-.305-.679-.656-.804-1.199-.425-2.004-1.558-2.004-2.817,0-.82.347-1.593.922-2.149.916,1.319,2.424,2.149,4.078,2.149,1.325,0,2.576-.535,3.5-1.453.924.918,2.175,1.453,3.5,1.453,2.757,0,5-2.243,5-5,0-.363-.041-.725-.121-1.077,1.139-.203,2.142-.798,2.875-1.634.381-.183.795-.289,1.246-.289.889,0,1.543.394,1.936.725.182.153.41.235.644.235.055,0,.111-.004.167-.014.29-.049.543-.222.693-.475.544-.914,1.492-1.464,2.538-1.471.552-.004.997-.455.993-1.007-.004-.55-.451-.993-1-.993h-.007c-1.396.009-2.686.592-3.61,1.598-.753-.41-1.615-.599-2.466-.583.068-.329.113-.667.113-1.016,0-1.096-.364-2.15-1.011-3.006,1.241-.927,2.011-2.399,2.011-3.994,0-.122-.002-.229-.017-.351-.067-.549-.569-.94-1.114-.872-.548.067-.938.565-.872,1.114.005.038.002.071.002.109,0,1.26-.806,2.392-2.004,2.817-.351.125-.604.434-.656.804-.052.369.106.736.41.953.783.559,1.25,1.466,1.25,2.426,0,1.654-1.346,3-3,3-.143,0-.279-.024-.44-.049-.389-.056-.77.112-.984.437-.215.325-.222.745-.018,1.076.293.476.441.992.441,1.536,0,1.654-1.346,3-3,3-1.083,0-2.088-.606-2.623-1.581-.352-.64-1.402-.64-1.754,0-.535.975-1.54,1.581-2.623,1.581-1.266,0-2.397-.811-2.814-2.017-.102-.295-.336-.526-.633-.623-.297-.098-.622-.052-.879.125-1.078.743-2.648.653-3.67-.254-.216-.191-.505-.28-.792-.244-.287.037-.544.197-.704.438-1.583,2.378-4.051,3.96-6.811,4.429.182-.232.354-.474.515-.725.697-1.085,1.156-2.271,1.362-3.511l.04-.22c.068-.375-.083-.757-.39-.984-.778-.574-1.224-1.454-1.224-2.416,0-.353.066-.696.203-1.05.188-.485-.028-1.033-.496-1.26-1.053-.51-1.707-1.541-1.707-2.69,0-.854.377-1.673,1.036-2.245.218-.19.344-.465.344-.755s-.125-.565-.344-.755c-.659-.572-1.036-1.391-1.036-2.245,0-1.409.999-2.642,2.375-2.932.272-.057.508-.225.651-.462.144-.238.181-.524.105-.792-.09-.312-.131-.572-.131-.814,0-1.654,1.346-3,3-3,1.06,0,2.017.549,2.559,1.468.149.254.403.428.693.478.288.047.586-.031.812-.221.393-.331,1.047-.725,1.936-.725.605,0,1.185.178,1.674.514.257.176.583.223.879.125.296-.097.531-.328.633-.623.417-1.206,1.548-2.017,2.814-2.017,1.523,0,2.798,1.156,2.966,2.689.037.338.244.635.549.787s.667.137.959-.038c.484-.29.998-.438,1.526-.438,1.654,0,3,1.346,3,3,0,.143-.024.279-.049.44-.058.385.112.769.437.984.325.215.745.222,1.076.018.878-.542,1.949-.582,2.858-.127.495.248,1.095.047,1.342-.447.247-.494.047-1.095-.447-1.342-1.025-.513-2.192-.656-3.294-.404-.417-2.339-2.465-4.121-4.923-4.121-.463,0-.916.065-1.356.194-.729-1.887-2.545-3.194-4.644-3.194-1.731,0-3.31.902-4.209,2.33-1.322-.508-2.88-.419-4.145.269-.932-1.004-2.254-1.599-3.646-1.599-2.757,0-5,2.243-5,5,0,.137.006.273.02.411-1.796.777-3.02,2.575-3.02,4.589,0,1.089.362,2.14,1.017,3-.654.86-1.017,1.911-1.017,3,0,1.634.786,3.123,2.096,4.053-.063.314-.096.63-.096.947,0,1.363.566,2.669,1.541,3.606-.185.864-.525,1.685-1.012,2.443-.544.847-1.245,1.56-2.083,2.119-.367.245-.53.7-.402,1.122.127.421.517.71.957.71h.97c3.767,0,7.284-1.716,9.599-4.637.578.323,1.22.516,1.874.59-.287.634-.443,1.331-.443,2.047,0,1.595.77,3.067,2.011,3.994-.647.855-1.011,1.91-1.011,3.006,0,2.458,1.782,4.506,4.121,4.923-.08.353-.121.714-.121,1.077,0,2.757,2.243,5,5,5,1.325,0,2.576-.535,3.5-1.453.924.918,2.175,1.453,3.5,1.453,1.731,0,3.31-.902,4.209-2.33,1.343.517,2.94.41,4.221-.307,2.315,2.921,5.833,4.637,9.599,4.637h.97c.44,0,.829-.288.957-.709.128-.421-.034-.877-.4-1.122-1.579-1.058-2.692-2.703-3.096-4.563.974-.937,1.54-2.244,1.54-3.606,0-.316-.032-.633-.096-.947,1.31-.93,2.096-2.419,2.096-4.053Z"/>
  <path d="M33,16H15c-.552,0-1,.448-1,1s.448,1,1,1h18c.552,0,1-.448,1-1s-.448-1-1-1Z"/>
  <path d="M15,23h12c.552,0,1-.448,1-1s-.448-1-1-1h-12c-.552,0-1,.448-1,1s.448,1,1,1Z"/>
  <path d="M15,28h18c.552,0,1-.448,1-1s-.448-1-1-1H15c-.552,0-1,.448-1,1s.448,1,1,1Z"/>
</svg>