<?xml version="1.0" encoding="UTF-8"?>
<svg id="Outline" xmlns="http://www.w3.org/2000/svg" version="1.1" viewBox="0 0 64 64">
  <!-- Generator: Adobe Illustrator 29.5.1, SVG Export Plug-In . SVG Version: 2.1.0 Build 141)  -->
  <path d="M51,17h-2.38l-3.73-7.45c-.16-.34-.51-.55-.89-.55h-2v-1c0-.55-.45-1-1-1h-6c-.55,0-1,.45-1,1v1h-4v-1c0-.55-.45-1-1-1h-6c-.55,0-1,.45-1,1v1h-2c-.38,0-.73.21-.89.55l-3.73,7.45h-2.38c-.55,0-1,.45-1,1v4c0,.55.45,1,1,1h1.12l3.89,29.13c.07.5.49.87.99.87h1.18c-.11.31-.18.65-.18,1,0,1.65,1.35,3,3,3s3-1.35,3-3c0-.35-.07-.69-.18-1h12.36c-.11.31-.18.65-.18,1,0,1.65,1.35,3,3,3s3-1.35,3-3c0-.35-.07-.69-.18-1h1.18c.5,0,.92-.37.99-.87l3.89-29.13h1.12c.55,0,1-.45,1-1v-4c0-.55-.45-1-1-1ZM42,11h1.38l3,6h-4.38v-6ZM30,11h4v1c0,.55.45,1,1,1s1-.45,1-1v-3h4v8h-4v-1c0-.55-.45-1-1-1s-1,.45-1,1v1h-4v-6ZM24,9h4v8h-4v-8ZM20.62,11h1.38v6h-4.38l3-6ZM23,55c-.55,0-1-.45-1-1s.45-1,1-1,1,.45,1,1-.45,1-1,1ZM41,55c-.55,0-1-.45-1-1s.45-1,1-1,1,.45,1,1-.45,1-1,1ZM44.12,51h-24.24l-.27-2h24.78l-.27,2ZM31,44h-1c-2.76,0-5-2.24-5-5v-1h1c2.76,0,5,2.24,5,5v1ZM32,31c-.55,0-1,.45-1,1v2.52c-.75-.89-1.17-2-1.17-3.18,0-1.33.52-2.59,1.46-3.53l.71-.71.71.71c.94.94,1.46,2.2,1.46,3.53,0,1.18-.42,2.29-1.17,3.18v-2.52c0-.55-.45-1-1-1ZM33,43c0-2.76,2.24-5,5-5h1v1c0,2.76-2.24,5-5,5h-1v-1ZM50,21h-27c-.55,0-1,.45-1,1s.45,1,1,1h24.86l-3.2,24h-11.66v-1h1c3.86,0,7-3.14,7-7v-2c0-.55-.45-1-1-1h-2c-1.96,0-3.73.81-5,2.11v-.7l1.12-1.12c1.32-1.32,2.05-3.08,2.05-4.95s-.73-3.62-2.05-4.95l-1.41-1.41c-.39-.39-1.03-.39-1.42,0l-1.41,1.41c-1.32,1.33-2.05,3.08-2.05,4.95s.73,3.63,2.05,4.95l1.12,1.12v.7c-1.27-1.3-3.04-2.11-5-2.11h-2c-.55,0-1,.45-1,1v2c0,3.86,3.14,7,7,7h1v1h-11.66l-3.2-24h2.86c.55,0,1-.45,1-1s-.45-1-1-1h-5v-2h36v2Z"/>
</svg>