<?xml version="1.0" encoding="UTF-8"?>
<svg id="Outline" xmlns="http://www.w3.org/2000/svg" version="1.1" viewBox="0 0 48 48">
  <!-- Generator: Adobe Illustrator 29.5.1, SVG Export Plug-In . SVG Version: 2.1.0 Build 141)  -->
  <path d="M38.69,17.53c.2-.48.31-1,.31-1.53,0-.71-.19-1.39-.55-2,.36-.61.55-1.29.55-2,0-1.6-.93-3-2.36-3.64-.64-1.43-2.04-2.36-3.64-2.36-.4,0-.79.06-1.17.18-.74-.75-1.75-1.18-2.83-1.18-1.46,0-2.78.8-3.47,2.04-.66-.09-1.33-.01-1.94.22-.66-1.34-2.03-2.26-3.59-2.26-2.21,0-4,1.79-4,4,0,.18.01.35.04.53-.25.14-.48.3-.69.49-.12-.01-.24-.02-.35-.02-2.05,0-3.74,1.55-3.97,3.54-1.24.7-2.03,2.02-2.03,3.46,0,.24.03.48.07.72-.65.55-1.07,1.36-1.07,2.28,0,1.34.89,2.47,2.12,2.85l2.63,17.6c.23,1.48,1.48,2.55,2.97,2.55h16.56c1.49,0,2.74-1.07,2.97-2.55l2.63-17.6c1.22-.38,2.12-1.51,2.12-2.85,0-1.03-.52-1.93-1.31-2.47ZM12.35,15.12c.46-.16.73-.64.65-1.12,0-1.1.9-2,2-2,.13,0,.29.02.48.07.36.08.75-.05.99-.34.26-.31.61-.54,1.01-.64.27-.08.51-.27.63-.52.13-.26.14-.55.04-.82-.1-.25-.15-.5-.15-.75,0-1.1.9-2,2-2,1.04,0,1.91.82,1.98,1.87.03.38.27.72.63.86s.77.06,1.05-.2c.56-.52,1.35-.68,2.09-.38.27.11.57.09.82-.04.26-.13.44-.36.52-.63.23-.87,1.01-1.48,1.91-1.48.69,0,1.32.35,1.68.93.29.46.88.6,1.34.34,1.16-.66,2.53-.02,2.88,1.16.1.32.35.57.67.67.86.25,1.43,1.02,1.43,1.9,0,.49-.19.96-.52,1.33-.35.38-.35.96,0,1.34.33.37.52.84.52,1.33,0,.36-.1.7-.27,1H11c0-.84.54-1.59,1.35-1.88ZM33.27,40.15c-.08.48-.5.85-.99.85h-7.28v-.76c0-1.21.28-2.42.78-3.53,1.35-.29,4.23-1.17,5.85-3.5,2.12-3.05,1.16-7.26,1.11-7.44-.11-.5-.58-.83-1.09-.76-.18.02-4.47.58-6.59,3.63-.52.75-.85,1.57-1.06,2.39-.21-.82-.54-1.64-1.06-2.39-2.12-3.05-6.41-3.61-6.59-3.63-.51-.07-.98.26-1.09.76-.05.18-1.01,4.39,1.11,7.44,1.62,2.33,4.5,3.21,5.85,3.5.5,1.11.78,2.32.78,3.53v.76h-7.28c-.49,0-.91-.37-.99-.85l-2.57-17.15h23.68l-2.57,17.15ZM26.71,29.79c1.08-1.57,3.06-2.29,4.23-2.6.13,1.21.14,3.31-.95,4.88-1.09,1.56-3.07,2.29-4.24,2.59-.13-1.2-.14-3.3.96-4.87ZM22.25,34.66c-1.18-.3-3.15-1.03-4.24-2.59-1.09-1.57-1.08-3.67-.95-4.88,1.17.31,3.15,1.03,4.23,2.6,1.09,1.56,1.08,3.67.96,4.87ZM37,21H11c-.55,0-1-.45-1-1,0-.41.25-.76.6-.92h.02q.01,0,.01-.01c.12-.04.24-.07.37-.07h26c.55,0,1,.45,1,1s-.45,1-1,1Z"/>
</svg>