<?xml version="1.0" encoding="UTF-8"?>
<svg id="Outline" xmlns="http://www.w3.org/2000/svg" version="1.1" viewBox="0 0 64 64">
  <!-- Generator: Adobe Illustrator 29.5.1, SVG Export Plug-In . SVG Version: 2.1.0 Build 141)  -->
  <path d="M50,31.027h-.14c-.37-1.43-1.51-2.56-2.96-2.9-.41-1.77-2-3.1-3.9-3.1-.4,0-.79.06-1.17.18-.53-.54-1.2-.91-1.93-1.08-.41-1.77-2-3.1-3.9-3.1-.4,0-.79.06-1.17.18-.5-.51-1.14-.86-1.83-1.04v-5.25c.25.02.52.04.83.04,1.22,0,2.78-.25,3.85-1.32,1.89-1.89,1.21-5.33,1.13-5.71-.09-.39-.39-.69-.77-.77-.39-.08-3.82-.76-5.72,1.13-.11.12-.22.24-.32.37-.1-.13-.21-.25-.32-.37-1.9-1.89-5.34-1.21-5.72-1.13-.38.08-.68.38-.77.77-.08.38-.76,3.82,1.13,5.71,1.07,1.07,2.63,1.32,3.85,1.32.31,0,.58-.02.83-.04v5.25c-.69.18-1.33.53-1.83,1.04-.38-.12-.77-.18-1.17-.18-1.9,0-3.49,1.33-3.9,3.1-.73.17-1.4.54-1.93,1.08-.38-.12-.77-.18-1.17-.18-1.9,0-3.49,1.33-3.9,3.1-1.45.34-2.59,1.47-2.96,2.9h-.14c-.55,0-1,.45-1,1v6c0,.55.45,1,1,1h1.19l2.83,13.21c.1.46.51.79.98.79h2.18c-.11.31-.18.65-.18,1,0,1.65,1.35,3,3,3s3-1.35,3-3c0-.35-.07-.69-.18-1h10.36c-.11.31-.18.65-.18,1,0,1.65,1.35,3,3,3s3-1.35,3-3c0-.35-.07-.69-.18-1h2.18c.47,0,.88-.33.98-.79l2.83-13.21h1.19c.55,0,1-.45,1-1v-6c0-.55-.45-1-1-1ZM33.74,9.707c.75-.75,2.24-.79,3.21-.69.1.97.06,2.46-.69,3.21s-2.24.79-3.21.69c-.1-.98-.06-2.47.69-3.21ZM30.95,12.917c-.97.1-2.46.06-3.21-.69s-.79-2.24-.69-3.21c.97-.1,2.46-.06,3.21.69.75.74.79,2.23.69,3.21ZM24,55.027c-.55,0-1-.45-1-1s.45-1,1-1,1,.45,1,1-.45,1-1,1ZM40,55.027c-.55,0-1-.45-1-1s.45-1,1-1,1,.45,1,1-.45,1-1,1ZM44.19,51.027h-24.38l-.43-2h25.24l-.43,2ZM45.05,47.027h-26.1l-.43-2h26.96l-.43,2ZM45.91,43.027h-27.82l-.85-4h29.52l-.85,4ZM49,37.027H15v-4h6c.55,0,1-.45,1-1s-.45-1-1-1h-4.72c.35-.59.98-1,1.72-1,.55,0,1-.45,1-1,0-1.44,1.61-2.51,2.98-1.73.46.26,1.05.11,1.34-.34.36-.58.99-.93,1.68-.93.55,0,1-.45,1-1,0-1.44,1.61-2.51,2.98-1.73.46.26,1.05.12,1.34-.34.36-.58.99-.93,1.68-.93s1.32.35,1.68.93c.29.46.88.6,1.34.34,1.37-.78,2.98.29,2.98,1.73,0,.55.45,1,1,1,.69,0,1.32.35,1.68.93.29.45.88.6,1.34.34,1.37-.78,2.98.29,2.98,1.73,0,.55.45,1,1,1,.74,0,1.37.41,1.72,1h-18.72c-.55,0-1,.45-1,1s.45,1,1,1h20v4Z"/>
  <circle cx="25" cy="32.027" r="1"/>
</svg>