<?xml version="1.0" encoding="UTF-8"?>
<svg id="Outline" xmlns="http://www.w3.org/2000/svg" version="1.1" viewBox="0 0 64 64">
  <!-- Generator: Adobe Illustrator 29.5.1, SVG Export Plug-In . SVG Version: 2.1.0 Build 141)  -->
  <path d="M56.97,48.86c0-.03.01-.07,0-.1l-2.97-11.88V13c0-1.65-1.35-3-3-3H13c-1.65,0-3,1.35-3,3v23.88l-2.97,11.88c-.01.03,0,.07,0,.1-.01.05-.03.09-.03.14v2c0,1.65,1.35,3,3,3h44c1.65,0,3-1.35,3-3v-2c0-.05-.02-.09-.03-.14ZM12,13c0-.55.45-1,1-1h38c.55,0,1,.45,1,1v23H12V13ZM11.78,38h40.44l2.5,10h-15.1l-1-2h12.26c.31,0,.6-.14.79-.38.18-.25.25-.56.18-.86l-1-4c-.11-.45-.51-.76-.97-.76H14.12c-.46,0-.86.31-.97.76l-1,4c-.07.3,0,.61.18.86.19.24.48.38.79.38h12.26l-1,2h-15.1l2.5-10ZM14.4,44l.5-2h34.2l.5,2H14.4ZM37.38,48h-10.76l1-2h8.76l1,2ZM55,51c0,.55-.45,1-1,1H10c-.55,0-1-.45-1-1v-1h46v1Z"/>
  <path d="M34.333,14.057c-.305-.107-.645-.061-.911.127-.265.188-.422.492-.422.816v4.032l-1,.5-1-.5v-4.032c0-.324-.158-.629-.422-.816-.266-.188-.605-.234-.911-.127-2.294.81-3.985,2.756-4.483,5.082-1.406,1.634-2.184,3.701-2.184,5.862,0,4.022,2.698,7.585,6.551,8.66.776.226,1.6.34,2.449.34.704,0,1.396-.08,2.059-.236,4.087-.958,6.941-4.562,6.941-8.764,0-2.162-.779-4.23-2.186-5.864-.512-2.339-2.197-4.272-4.481-5.079ZM25,25c0-.748.126-1.48.354-2.176.566,1.746,1.793,3.215,3.476,4.065v4.339c-2.303-1.173-3.83-3.565-3.83-6.228ZM30.83,31.896v-5.655c0-.412-.253-.783-.638-.933-1.939-.753-3.192-2.581-3.192-4.657,0-.312.026-.59.085-.88.218-1.258.915-2.366,1.915-3.114v2.994c0,.379.214.725.553.895l2,1c.281.141.613.141.895,0l2-1c.339-.17.553-.516.553-.895v-2.994c1,.751,1.699,1.865,1.92,3.146.054.259.08.537.08.849,0,2.182-1.397,4.098-3.477,4.768-.414.134-.693.519-.693.952v5.576c-.664.077-1.345.06-2-.05ZM34.83,31.399v-4.342c1.842-.814,3.209-2.365,3.817-4.232.228.696.353,1.427.353,2.174,0,2.827-1.664,5.298-4.17,6.399Z"/>
</svg>