<?xml version="1.0" encoding="UTF-8"?>
<svg id="Outline" xmlns="http://www.w3.org/2000/svg" version="1.1" viewBox="0 0 64 64">
  <!-- Generator: Adobe Illustrator 29.0.0, SVG Export Plug-In . SVG Version: 2.1.0 Build 186)  -->
  <path d="M55.96997,21.76001l-2.98999-13.97003c-.09998-.46002-.51001-.78998-.97998-.78998H12c-.46997,0-.88.32996-.97998.78998l-2.98999,13.97003c-.63.54999-1.03003,1.33997-1.03003,2.23999,0,.89001.40002,1.67999,1.02002,2.22998l2.97998,29.87c.06.51001.48999.90002,1,.90002h40c.51001,0,.94-.39001,1-.90002l2.97998-29.87c.62-.54999,1.02002-1.33997,1.02002-2.22998,0-.90002-.40002-1.69-1.03003-2.23999ZM50,18v-9h1.19l2.57001,12h-11.95001l-.42999-2h7.62c.54999,0,1-.45001,1-1ZM48,9v8h-7.04999l-1.71002-8h8.76001ZM16,9h18v8h-18v-8ZM12.81,9h1.19v9c0,.54999.45001,1,1,1h20c.54999,0,1-.45001,1-1v-9h1.19l2.57001,12H10.23999l2.57001-12ZM9,24c0-.54999.45001-1,1-1h30c.54999,0,1,.45001,1,1s-.45001,1-1,1H10c-.54999,0-1-.45001-1-1ZM16.28003,55c.34998-.59003.97998-1,1.71997-1,.54999,0,1-.45001,1-1,0-1.10004.90002-2,2-2,.48999,0,.96002.17999,1.33002.51996.38.35004.95996.35004,1.33997,0,.82001-.73999,2.16003-.63995,2.86005.21002.23999.28998.62.41998.98999.34003.19-.05005.34998-.07001.47998-.07001.90002,0,1.67999.60999,1.90997,1.47998.08002.27002.27002.5.52002.63.26001.13.54999.15002.82001.03998.97998-.38995,1.97998.06,2.46002.85004h-17.42999ZM35.85999,55c-.45001-1.72003-2-3-3.85999-3-.17999,0-.34998.01001-.53003.03998-.68994-1.23999-2.00995-2.03998-3.46997-2.03998-.10999,0-.22998.01001-.34998.01996-.40002-.35999-.87-.60999-1.37-.77997.35999-1.90002,1.07996-3.71002,2.12-5.33002.96997.70001,2.10997,1.09002,3.30998,1.09003,1.68359,0,3.30736-.74661,4.38997-2.04004,1.90002-2.26996,1.14001-8.39996,1.05005-9.08997-.07001-.51001-.52002-.91998-1.03003-.87-.70001.02997-6.87.32996-8.77997,2.59998-.87006,1.04004-1.34003,2.33002-1.34003,3.66998,0,.17004.01001.33002.02002.5.08997.97003.42999,1.87006.95996,2.66003-.60999.89001-1.13,1.83002-1.56,2.82001-.53998-2.26001-1.45001-4.40002-2.71997-6.35004.72998-.88,1.17999-1.95996,1.27997-3.13.13-1.51996-.33997-3-1.32001-4.16998-.95996-1.14001-2.97998-1.77997-4.83997-2.14001-1.87-.35999-3.59003-.44-3.94-.45996-.52002-.04999-.96002.35999-1.03003.87-.08997.69-.84998,6.82001,1.05005,9.08997.98999,1.17004,2.35999,1.89001,3.89005,2.02003,1.18477.06974,2.33837-.15531,3.3699-.76002,1.69,2.67004,2.65002,5.73004,2.80005,8.94-.33002.09003-.66003.21002-.96002.39001-.60999-.35999-1.28998-.54999-2-.54999-1.90002,0-3.48999,1.32996-3.90002,3.09998-1.44995.34003-2.58997,1.47003-2.95996,2.90002h-1.23999l-2.80005-28h29.80005l-2.80005,28h-1.23999ZM33.79999,37.39996c-.33002-.44-.95996-.52997-1.39996-.19995l-1.60004,1.19995c-.90997.69-1.75,1.46002-2.5,2.31-.14001-.34998-.25-.71997-.28998-1.10999-.08002-.98999.21997-1.95001.85999-2.70996.89001-1.06006,4.08002-1.64001,6.40002-1.83002.21997,2.40997.13995,5.60999-.70001,6.60999-.64001.76001-1.53998,1.22998-2.53003,1.32001-.88.07001-1.73999-.17999-2.45996-.69.71997-.84998,1.51996-1.63,2.41998-2.29999l1.59998-1.20001c.44-.33002.53003-.96002.20001-1.40002ZM17.28998,35.70996l1.35004,1.34003c.47998.47998.92999,1,1.34998,1.52997-.62.32001-1.32001.46002-2.02997.41003-.99005-.09003-1.89001-.56-2.53003-1.32001-.88-1.04999-.90997-4.28998-.70001-6.60999,2.42004.20001,5.55005.82001,6.40002,1.83002.64001.75995.94,1.71997.85999,2.70996-.04999.58002-.25,1.10999-.53998,1.59003-.44-.53003-.90002-1.06-1.40002-1.54999l-1.33997-1.35004c-.39001-.39001-1.03003-.39001-1.42004,0-.38995.39001-.38995,1.03003,0,1.41998ZM51.09998,55h-11.98999l2.79999-28h11.99005l-2.80005,28ZM54,25h-11.17999c.10999-.31.17999-.65002.17999-1,0-.35004-.07001-.69-.17999-1h11.17999c.54999,0,1,.45001,1,1s-.45001,1-1,1Z"/>
</svg>