<?xml version="1.0" encoding="UTF-8"?>
<svg id="Outline" xmlns="http://www.w3.org/2000/svg" version="1.1" viewBox="0 0 64 64">
  <!-- Generator: Adobe Illustrator 29.5.1, SVG Export Plug-In . SVG Version: 2.1.0 Build 141)  -->
  <path d="M43.96,27.67c.64-.71,1.04-1.64,1.04-2.67,0-1.16-.51-2.26-1.38-3.02.25-.97.38-1.97.38-2.98,0-.55-.45-1-1-1s-1,.45-1,1c0,1.04-.16,2.08-.48,3.07-.15.45.04.94.45,1.18.64.36,1.03,1.03,1.03,1.75,0,1.1-.9,2-2,2-.55,0-1,.45-1,1,0,1.1-.9,2-2,2-.49,0-.97-.19-1.34-.53-.29-.27-.7-.34-1.06-.2-.36.15-.6.49-.62.88-.08,1.6-1.39,2.85-2.98,2.85s-2.9-1.25-2.98-2.85c-.02-.39-.26-.73-.62-.88-.36-.14-.77-.07-1.06.2-.37.34-.85.53-1.34.53-1.1,0-2-.9-2-2,0-.55-.45-1-1-1-1.1,0-2-.9-2-2,0-.72.39-1.39,1.03-1.75.41-.24.6-.73.45-1.18-.32-.99-.48-2.03-.48-3.07,0-5.51,4.49-10,10-10,4.15,0,7.81,2.5,9.32,6.36.2.52.78.77,1.29.57.52-.2.77-.78.57-1.29-1.81-4.64-6.2-7.64-11.18-7.64-6.62,0-12,5.38-12,12,0,1.01.13,2.01.38,2.98-.87.76-1.38,1.86-1.38,3.02,0,1.03.4,1.96,1.04,2.67.04.78.14,1.56.33,2.31-.86.76-1.37,1.86-1.37,3.02,0,1.85,1.26,3.4,2.96,3.85l9.13,19.57c.17.35.52.58.91.58s.74-.23.91-.58l2.8-6c.23-.5.01-1.09-.49-1.33-.5-.23-1.09-.01-1.33.49l-1.89,4.05-6.38-13.66c.13.01.25.03.38.03.46,0,.91-.08,1.34-.23.71,1.89,2.54,3.23,4.66,3.23s3.95-1.34,4.66-3.23c.43.15.88.23,1.34.23.13,0,.25-.02.38-.03l-2.62,5.61c-.23.5-.01,1.09.49,1.33.497.229,1.099.004,1.33-.49,0,0,4.46-9.57,4.46-9.57,1.7-.45,2.96-2,2.96-3.85,0-1.16-.51-2.26-1.37-3.02.19-.75.29-1.53.33-2.31ZM41,35c-.55,0-1,.45-1,1,0,1.1-.9,2-2,2-.49,0-.97-.19-1.34-.53-.29-.27-.7-.34-1.06-.2-.36.15-.6.49-.62.88-.08,1.6-1.39,2.85-2.98,2.85s-2.9-1.25-2.98-2.85c-.02-.39-.26-.73-.62-.88-.36-.14-.77-.07-1.06.2-.37.34-.85.53-1.34.53-1.1,0-2-.9-2-2,0-.55-.45-1-1-1-1.1,0-2-.9-2-2,0-.72.39-1.39,1.03-1.75.41-.24.6-.73.45-1.18-.04-.12-.05-.25-.09-.37.64,1.35,2.01,2.3,3.61,2.3.46,0,.91-.08,1.34-.23.71,1.89,2.54,3.23,4.66,3.23s3.95-1.34,4.66-3.23c.43.15.88.23,1.34.23,1.6,0,2.97-.95,3.61-2.3-.04.12-.05.25-.09.37-.15.45.04.94.45,1.18.64.36,1.03,1.03,1.03,1.75,0,1.1-.9,2-2,2Z"/>
  <circle cx="29" cy="13" r="1"/>
  <circle cx="26" cy="16" r="1"/>
  <circle cx="29" cy="17" r="1"/>
</svg>