<?xml version="1.0" encoding="UTF-8"?>
<svg id="Outline" xmlns="http://www.w3.org/2000/svg" version="1.1" viewBox="0 0 64 64">
  <!-- Generator: Adobe Illustrator 29.5.1, SVG Export Plug-In . SVG Version: 2.1.0 Build 141)  -->
  <path d="M56,26h-2c-.553,0-1,.448-1,1s.447,1,1,1h2c.553,0,1-.448,1-1s-.447-1-1-1Z"/>
  <path d="M26,21.987v2c0,.552.447,1,1,1s1-.448,1-1v-2c0-.551.448-1,1-1,1.654,0,3-1.346,3-3,0-.551.448-1,1-1,1.654,0,3-1.346,3-3,0-.551.448-1,1-1,1.654,0,3-1.346,3-3,0-.551.448-1,1-1h2c.553,0,1-.448,1-1s-.447-1-1-1h-2c-1.654,0-3,1.346-3,3,0,.551-.448,1-1,1-1.654,0-3,1.346-3,3,0,.551-.448,1-1,1-1.654,0-3,1.346-3,3,0,.551-.448,1-1,1-1.654,0-3,1.346-3,3Z"/>
  <path d="M43,18.987v2c0,.551-.448,1-1,1-1.654,0-3,1.346-3,3,0,.551-.448,1-1,1-1.654,0-3,1.346-3,3v2c0,.552.447,1,1,1s1-.448,1-1v-2c0-.551.448-1,1-1,1.654,0,3-1.346,3-3,0-.551.448-1,1-1,1.654,0,3-1.346,3-3v-2c0-.552-.447-1-1-1s-1,.448-1,1Z"/>
  <path d="M52,35.987c-4.847,0-9.502,1.69-13.198,4.717-.648-1.166-1.43-2.37-2.328-3.583,2.872-2.37,6.211-4.147,9.801-5.173.531-.151.839-.705.688-1.236-.152-.531-.709-.838-1.236-.687-3.838,1.096-7.408,2.992-10.482,5.519-.979-1.199-2.055-2.394-3.216-3.555-.972-.972-2-1.904-3.05-2.783.005-.074.022-.145.022-.22,0-.551.448-1,1-1,1.654,0,3-1.346,3-3,0-.551.448-1,1-1,1.654,0,3-1.346,3-3,0-.551.448-1,1-1h2c.553,0,1-.448,1-1s-.447-1-1-1h-2c-1.654,0-3,1.346-3,3,0,.551-.448,1-1,1-1.654,0-3,1.346-3,3,0,.551-.448,1-1,1-1.239,0-2.305.755-2.762,1.829-1.789-1.351-3.602-2.49-5.31-3.302,3.31-4.901,5.071-10.6,5.071-16.527,0-.552-.447-1-1-1s-1,.448-1,1c0,5.666-1.715,11.114-4.955,15.76-2.387-.808-4.433-.796-5.693.463-.797.796-1.114,1.954-.987,3.392l-3.818,15.628s-.001.002-.001.003c0,0,0,.002,0,.003l-2.459,10.064c-.25,1.027.047,2.086.794,2.833.572.572,1.328.88,2.111.88.239,0,.481-.028.722-.087l25.682-6.275c.212.02.423.037.625.037,1.122,0,2.077-.318,2.786-1.024,1.396-1.395,1.353-3.848-.083-7.096,3.396-2.924,7.737-4.581,12.276-4.581.553,0,1-.448,1-1s-.447-1-1-1ZM11.269,44.612c1.405.252,2.82.384,4.233.384,2.82,0,5.621-.521,8.306-1.512.696.631,1.408,1.241,2.13,1.819-4.732,2.109-10.111,2.499-15.102,1.078l.432-1.769ZM10.239,54.983c-.492.123-.825-.144-.944-.264-.12-.12-.385-.451-.265-.944l1.335-5.464c2.135.6,4.33.917,6.526.917,3.738,0,7.463-.872,10.841-2.566,1.645,1.177,3.293,2.162,4.845,2.864l-22.339,5.458ZM38.394,48.249c-1.48,1.476-7.85-.772-14.856-7.779-.665-.665-1.281-1.313-1.832-1.929-.368-.412-.999-.447-1.412-.079-.411.368-.446,1-.078,1.412.575.643,1.217,1.32,1.908,2.01.021.021.044.042.065.064-3.382,1.081-6.944,1.317-10.442.71l2.74-11.216c.261.578.551,1.172.901,1.795.271.481.88.653,1.361.383s.653-.879.383-1.361c-1.746-3.113-2.281-5.717-1.365-6.633.506-.505,1.594-.562,3.074-.153l-.66.943c-.316.452-.207,1.076.246,1.393.45.314,1.075.201,1.392-.246l.962-1.374c1.675.751,3.645,1.94,5.775,3.61-.161.111-.345.191-.556.191-1.654,0-3,1.346-3,3v2c0,.552.447,1,1,1s1-.448,1-1v-2c0-.551.448-1,1-1,.834,0,1.588-.343,2.132-.893.813.704,1.642,1.471,2.482,2.31,1.134,1.134,2.182,2.298,3.131,3.462-.199.188-.405.368-.598.561l-.853.852c-.391.391-.391,1.024,0,1.415.388.388,1.027.386,1.414,0l.853-.853c.133-.133.276-.256.411-.386.908,1.239,1.682,2.461,2.303,3.635-.327.327-.647.661-.953,1.011l-1.073,1.227c-.363.416-.321,1.047.095,1.411.413.361,1.05.317,1.411-.095l1.073-1.227c.112-.128.24-.239.355-.364.763,1.986.861,3.546.212,4.194Z"/>
  <path d="M52,21.987c-.553,0-1,.448-1,1v2c0,.552.447,1,1,1s1-.448,1-1v-2c0-.552-.447-1-1-1Z"/>
  <path d="M48,27.987h2c.553,0,1-.448,1-1s-.447-1-1-1h-2c-.553,0-1,.448-1,1s.447,1,1,1Z"/>
  <path d="M52,27.987c-.553,0-1,.448-1,1v2c0,.552.447,1,1,1s1-.448,1-1v-2c0-.552-.447-1-1-1Z"/>
  <path d="M48,12.987c.553,0,1-.448,1-1v-2c0-.552-.447-1-1-1s-1,.448-1,1v2c0,.552.447,1,1,1Z"/>
  <path d="M43,13.987c0,.552.447,1,1,1h2c.553,0,1-.448,1-1s-.447-1-1-1h-2c-.553,0-1,.448-1,1Z"/>
  <path d="M48,18.987c.553,0,1-.448,1-1v-2c0-.552-.447-1-1-1s-1,.448-1,1v2c0,.552.447,1,1,1Z"/>
  <path d="M50,14.987h2c.553,0,1-.448,1-1s-.447-1-1-1h-2c-.553,0-1,.448-1,1s.447,1,1,1Z"/>
  <circle cx="18.445" cy="36.098" r="1"/>
</svg>