<?xml version="1.0" encoding="UTF-8"?>
<svg id="Outline" xmlns="http://www.w3.org/2000/svg" version="1.1" viewBox="0 0 64 64">
  <!-- Generator: Adobe Illustrator 29.5.1, SVG Export Plug-In . SVG Version: 2.1.0 Build 141)  -->
  <path d="M36.069,26.226c-.545-.04-1.032.368-1.076.918-.044.551.367,1.032.918,1.076,7.235.575,11.089,2.602,11.089,3.843,0,.359-.299.755-.84,1.153-.047.028-.088.06-.13.096-2.012,1.376-7.055,2.751-14.03,2.751s-12.018-1.375-14.03-2.751c-.042-.036-.083-.068-.13-.096-.541-.398-.84-.793-.84-1.153,0-1.241,3.854-3.268,11.089-3.843.551-.044.962-.525.918-1.076-.044-.55-.532-.958-1.076-.918-6.251.498-12.931,2.292-12.931,5.837,0,1.016.578,1.905,1.568,2.669l12.936,20.886c.558.837,1.491,1.336,2.496,1.336s1.938-.499,2.515-1.364l12.918-20.858c.99-.763,1.568-1.652,1.568-2.669,0-3.545-6.68-5.339-12.931-5.837ZM32.134,46.49c2.038-.005,4.032-.129,5.887-.36l-3.14,5.07c-1.44-1.198-2.412-2.868-2.747-4.71ZM39.399,43.904c-4.482.759-10.316.759-14.797,0l-1.672-2.699c2.683.557,5.814.858,9.07.858s6.387-.301,9.07-.858l-1.671,2.699ZM31.187,54.537l-5.206-8.406c1.318.164,2.705.272,4.13.324.36,2.55,1.69,4.864,3.713,6.453l-.992,1.601c-.377.566-1.306.538-1.646.028ZM42.576,38.774c-2.892.83-6.623,1.289-10.576,1.289s-7.683-.459-10.576-1.289l-1.464-2.364c3.232,1.09,7.644,1.653,12.04,1.653s8.807-.563,12.04-1.653l-1.464,2.364Z"/>
  <path d="M16.416,26.297c.14.419.529.684.948.684.671,0,1.161-.678.948-1.316,0,0-1.013-3.038-1.009-3.038.47,0,.945-.046,1.42-.141.861-.173,1.588-.755,1.943-1.559.355-.803.298-1.731-.154-2.484-.371-.619-.962-1.058-1.663-1.232-.697-.174-1.428-.067-2.048.305-.975.585-1.623,1.517-1.856,2.556-.999-.498-1.842-1.311-2.365-2.359l-.686-1.37c-.248-.494-.848-.692-1.342-.447-.494.247-.694.848-.447,1.342l.686,1.37c.896,1.791,2.465,3.084,4.284,3.67l1.341,4.021ZM17.831,19.229c.16-.097.353-.126.533-.079.183.046.337.159.434.321.119.199.134.435.04.646-.094.213-.278.36-.507.406-.487.097-.978.124-1.451.085.097-.561.432-1.068.951-1.38Z"/>
  <path d="M53.447,15.893c-.493-.245-1.094-.047-1.342.447l-.686,1.37c-.523,1.049-1.366,1.861-2.365,2.359-.233-1.039-.882-1.971-1.856-2.556-.621-.372-1.35-.479-2.048-.305-.701.175-1.292.613-1.663,1.232-.452.753-.51,1.682-.154,2.484.355.804,1.082,1.386,1.943,1.559.475.095.95.141,1.424.141l-1.013,3.038c-.175.524.108,1.091.632,1.265.494.164,1.088-.101,1.265-.632l1.341-4.021c1.819-.586,3.389-1.879,4.284-3.67l.686-1.37c.247-.494.047-1.095-.447-1.342ZM45.669,20.524c-.456-.091-.72-.629-.467-1.053.097-.162.251-.275.434-.321.182-.047.372-.017.533.079.52.312.854.819.951,1.38-.477.039-.965.012-1.451-.085Z"/>
  <path d="M21.217,12.072c.13.074.177.189.194.251.017.062.034.185-.04.314-.66,1.156-.258,2.634.898,3.294.198.113.267.367.154.565-.661,1.155-.259,2.633.898,3.295.129.073.177.188.193.249s.034.186-.04.315l-.701,1.228c-.274.479-.107,1.091.372,1.364.454.259,1.088.113,1.364-.372l.701-1.228c.32-.561.403-1.213.232-1.835-.17-.622-.572-1.141-1.131-1.459-.129-.074-.177-.188-.193-.251-.017-.062-.034-.185.041-.315.658-1.155.255-2.633-.899-3.293-.13-.074-.178-.188-.194-.251-.017-.062-.034-.185.04-.314.661-1.154.258-2.633-.899-3.294-.129-.074-.177-.188-.193-.251-.017-.062-.034-.185.04-.314l.702-1.228c.274-.479.107-1.09-.372-1.364s-1.091-.107-1.364.372l-.702,1.228c-.32.561-.402,1.212-.232,1.834.169.622.571,1.141,1.131,1.46Z"/>
  <path d="M26.687,13.089c.129.074.177.188.193.251.017.062.034.185-.04.315-.66,1.155-.257,2.632.898,3.293.13.074.178.188.194.251.017.062.034.185-.04.314-.661,1.154-.258,2.633.899,3.294.129.074.177.188.193.251.017.062.034.184-.04.313l-.702,1.229c-.274.479-.107,1.09.372,1.364.473.272,1.093.102,1.364-.372l.702-1.229c.32-.56.402-1.21.233-1.832-.17-.623-.572-1.142-1.132-1.461-.13-.074-.177-.189-.194-.251-.017-.062-.034-.185.04-.314.66-1.156.258-2.634-.898-3.294-.198-.113-.268-.367-.154-.565.661-1.155.259-2.633-.897-3.294-.198-.113-.268-.367-.154-.565l.701-1.228c.274-.479.107-1.091-.372-1.364-.479-.275-1.091-.108-1.364.372l-.701,1.228c-.32.561-.403,1.211-.233,1.833s.571,1.141,1.132,1.461Z"/>
  <path d="M38.788,21.348l.701,1.228c.271.474.891.644,1.364.372.479-.273.646-.885.372-1.364l-.701-1.228c-.074-.13-.057-.254-.04-.315s.064-.176.194-.25c1.156-.661,1.559-2.139.898-3.293-.113-.199-.045-.453.153-.566,1.156-.66,1.559-2.138.898-3.294-.074-.13-.057-.252-.04-.314.018-.062.064-.177.193-.251.561-.319.963-.838,1.132-1.46.17-.622.088-1.273-.232-1.834l-.702-1.228c-.274-.479-.886-.646-1.364-.372-.479.274-.646.886-.372,1.364l.702,1.228c.074.13.057.253.04.314-.017.062-.064.177-.194.251-1.156.661-1.56,2.14-.898,3.294.113.198.044.452-.154.565-1.154.66-1.558,2.138-.898,3.294.074.13.057.253.04.314-.017.062-.064.177-.192.25-.56.319-.962.838-1.132,1.46-.171.622-.088,1.274.232,1.835Z"/>
  <path d="M34.021,23.592c.259.453.884.648,1.364.372.479-.274.646-.885.372-1.364l-.702-1.229c-.074-.13-.057-.252-.04-.313.017-.062.064-.177.194-.251,1.156-.661,1.56-2.14.898-3.294-.113-.198-.044-.452.154-.565,1.155-.661,1.559-2.138.898-3.294-.074-.13-.057-.253-.04-.314.017-.062.064-.177.193-.251.561-.32.962-.839,1.132-1.461s.087-1.272-.233-1.833l-.701-1.228c-.274-.48-.886-.647-1.364-.372-.479.273-.646.885-.372,1.364l.701,1.228c.074.13.057.253.04.314-.017.062-.064.177-.194.251-1.156.661-1.559,2.139-.897,3.293.113.199.044.453-.154.566-1.156.66-1.559,2.138-.898,3.294.074.13.057.252.04.314-.018.062-.064.177-.193.251-.561.319-.963.838-1.133,1.461-.169.622-.087,1.272.233,1.832,0,0,.701,1.226.702,1.229Z"/>
  <circle cx="32" cy="27.063" r="1"/>
</svg>