<?xml version="1.0" encoding="UTF-8"?>
<svg id="Outline" xmlns="http://www.w3.org/2000/svg" version="1.1" viewBox="0 0 64 64">
  <!-- Generator: Adobe Illustrator 29.5.1, SVG Export Plug-In . SVG Version: 2.1.0 Build 141)  -->
  <path d="M32,27c-2.757,0-5,2.243-5,5s2.243,5,5,5,5-2.243,5-5-2.243-5-5-5ZM32,35c-1.654,0-3-1.346-3-3s1.346-3,3-3,3,1.346,3,3-1.346,3-3,3Z"/>
  <path d="M25.636,27.05c.387.387,1.027.387,1.414,0,.391-.391.391-1.023,0-1.414l-4.242-4.243c-.391-.391-1.023-.391-1.414,0s-.391,1.023,0,1.414c0,0,4.242,4.243,4.242,4.243Z"/>
  <path d="M18.565,19.979c.195.195.451.293.707.293.874,0,1.325-1.089.707-1.707l-4.243-4.243c-.391-.391-1.023-.391-1.414,0s-.391,1.023,0,1.414l4.243,4.243Z"/>
  <path d="M21.394,41.192c-.391.391-.391,1.023,0,1.414.195.195.451.293.707.293s.512-.098.707-.293l4.242-4.243c.391-.391.391-1.023,0-1.414s-1.023-.391-1.414,0l-4.242,4.243Z"/>
  <path d="M19.979,44.021c-.391-.391-1.023-.391-1.414,0l-4.243,4.243c-.391.391-.391,1.023,0,1.414.367.367,1.026.388,1.414,0l4.243-4.243c.391-.391.391-1.023,0-1.414Z"/>
  <path d="M38.364,36.95c-.391-.391-1.023-.391-1.414,0s-.391,1.023,0,1.414l4.242,4.243c.372.372,1.019.395,1.414,0,.391-.391.391-1.023,0-1.414l-4.242-4.243Z"/>
  <path d="M45.435,44.021c-.391-.391-1.023-.391-1.414,0s-.391,1.023,0,1.414l4.243,4.243c.371.371,1.023.391,1.414,0,.391-.391.391-1.023,0-1.414l-4.243-4.243Z"/>
  <path d="M41.192,21.394l-4.242,4.243c-.391.391-.391,1.023,0,1.414.372.372,1.019.395,1.414,0l4.242-4.243c.391-.391.391-1.023,0-1.414s-1.023-.391-1.414,0Z"/>
  <path d="M44.021,19.979c.369.369,1.026.388,1.414,0l4.243-4.243c.391-.391.391-1.023,0-1.414s-1.023-.391-1.414,0l-4.243,4.243c-.391.391-.391,1.023,0,1.414Z"/>
  <path d="M25.719,19.449c.159.385.532.618.924.618.702,0,1.192-.735.924-1.383l-3.827-9.239c-.211-.511-.8-.75-1.307-.541-.51.211-.752.796-.541,1.307l3.827,9.239Z"/>
  <path d="M19.989,36.975c-.211-.511-.799-.75-1.307-.541l-9.238,3.827c-.954.395-.705,1.924.383,1.924.128,0,.258-.025.383-.077l9.238-3.827c.51-.211.752-.796.541-1.307Z"/>
  <path d="M38.281,44.551c-.211-.51-.799-.75-1.307-.541-.51.211-.752.796-.541,1.307l3.827,9.239c.159.385.532.618.924.618.699,0,1.192-.735.924-1.383l-3.827-9.239Z"/>
  <path d="M44.029,27.018c.199.515.78.759,1.288.548l9.238-3.827c.51-.211.752-.796.541-1.307-.211-.511-.799-.751-1.307-.541l-9.238,3.827c-.56.232-.704.831-.523,1.299Z"/>
  <path d="M30.743,24.955c.415.113.899-.077,1.13-.47.157-.269,3.923-6.603,9.29-7.499,2.893-.478,4.837-2.482,4.837-4.987,0-2.757-2.243-5-5-5-1.507,0-3.054,1.028-4.596,3.055-.334.439-.249,1.067.19,1.401.438.335,1.066.25,1.401-.19,1.111-1.461,2.179-2.266,3.004-2.266,1.654,0,3,1.346,3,3,0,1.839-1.704,2.772-3.165,3.014-2.717.454-5.026,1.999-6.802,3.66.086-.208.175-.418.266-.63.218-.508-.018-1.096-.525-1.313-.505-.217-1.095.017-1.312.525-1.295,3.022-2.216,5.806-2.394,6.386-.044.115-.067.238-.067.358,0,.452.308.837.743.955Z"/>
  <path d="M24,33.998c.994-.009,1.366-1.367.497-1.866-.066-.038-6.603-3.846-7.511-9.297-.482-2.892-2.486-4.835-4.986-4.835-2.757,0-5,2.243-5,5,0,5.458,13.913,10.083,16.702,10.955.098.031.198.045.298.044ZM9,23c0-1.654,1.346-3,3-3,1.835,0,2.771,1.705,3.014,3.165.454,2.726,2.01,5.042,3.668,6.815-4.997-2.108-9.682-4.853-9.682-6.98Z"/>
  <path d="M33.4,39.084c-.471-.206-1.016-.023-1.269.419-.037.066-3.845,6.602-9.296,7.511-2.893.482-4.836,2.486-4.836,4.986,0,2.757,2.243,5,5,5,5.459,0,10.083-13.913,10.954-16.702.152-.487-.087-1.01-.554-1.214ZM23,55c-1.654,0-3-1.346-3-3,0-1.835,1.705-2.77,3.164-3.014,2.727-.454,5.043-2.01,6.815-3.668-2.107,4.997-4.853,9.682-6.979,9.682Z"/>
  <path d="M40.298,30.045c-.487-.151-1.009.087-1.214.555-.204.467-.023,1.014.419,1.268.066.038,6.603,3.846,7.511,9.297.482,2.892,2.486,4.835,4.986,4.835,2.757,0,5-2.243,5-5,0-5.458-13.913-10.083-16.702-10.955ZM52,44c-1.835,0-2.771-1.705-3.014-3.165-.454-2.726-2.01-5.042-3.668-6.815,4.997,2.108,9.682,4.853,9.682,6.98,0,1.654-1.346,3-3,3Z"/>
  <circle cx="35" cy="14" r="1"/>
</svg>