<?xml version="1.0" encoding="UTF-8"?>
<svg id="Outline" xmlns="http://www.w3.org/2000/svg" version="1.1" viewBox="0 0 64 64">
  <!-- Generator: Adobe Illustrator 29.5.1, SVG Export Plug-In . SVG Version: 2.1.0 Build 141)  -->
  <path d="M54,49h-3V14c0-1.65-1.35-3-3-3h-1v-1c0-1.61-1.28-2.92-2.87-2.99h-.06c-.02,0-.05-.01-.07-.01H13c-.13,0-.26.03-.37.07-2.06.36-3.63,2.14-3.63,4.3v38.63c0,1.65,1.35,3,3,3h1.1c.47,2.28,2.49,4,4.9,4h32c2.76,0,5-2.24,5-5v-2c0-.55-.45-1-1-1ZM44.09,9.02c.51.05.91.46.91.98v1h-7.35l6.44-1.98ZM37.35,9l-18.64,5.73-1.1-4.42c-.12-.48-.32-.92-.57-1.31h20.31ZM19,17h26v2h-26v-2ZM13,14v37h-1c-.55,0-1-.45-1-1V11.37c0-1.31,1.06-2.37,2.37-2.37,1.09,0,2.03.74,2.3,1.79l.06.24c-1.53.14-2.73,1.41-2.73,2.97ZM21,50v2c0,1.65-1.35,3-3,3s-3-1.35-3-3V14c0-.55.45-1,1-1h.22l.78,3.12v3.88c0,.55.45,1,1,1h28c.55,0,1-.45,1-1v-4c0-.55-.45-1-1-1h-21.35l6.5-2h16.85c.55,0,1,.45,1,1v35h-27c-.55,0-1,.45-1,1ZM53,52c0,1.65-1.35,3-3,3h-28.03c.64-.84,1.03-1.87,1.03-3v-1h30v1Z"/>
  <path d="M24,47c3.86,0,7-3.141,7-7s-3.14-7-7-7-7,3.141-7,7,3.14,7,7,7ZM25,42.414l1.753,1.753c-.524.348-1.116.602-1.753.732v-2.485ZM23,44.899c-.637-.13-1.229-.384-1.753-.732l1.753-1.753v2.485ZM29,40c0,1.017-.309,1.962-.833,2.753l-3.167-3.167v-4.485c2.279.465,4,2.484,4,4.899ZM23,35.101v4.485l-3.167,3.167c-.524-.791-.833-1.736-.833-2.753,0-2.414,1.721-4.434,4-4.899Z"/>
  <path d="M18,25h10c.552,0,1-.447,1-1s-.448-1-1-1h-10c-.552,0-1,.447-1,1s.448,1,1,1Z"/>
  <path d="M18,29h28c.552,0,1-.447,1-1s-.448-1-1-1h-28c-.552,0-1,.447-1,1s.448,1,1,1Z"/>
  <path d="M46,31h-16c-.552,0-1,.447-1,1s.448,1,1,1h16c.552,0,1-.447,1-1s-.448-1-1-1Z"/>
  <path d="M46,35h-12c-.552,0-1,.447-1,1s.448,1,1,1h12c.552,0,1-.447,1-1s-.448-1-1-1Z"/>
</svg>