<?xml version="1.0" encoding="UTF-8"?>
<svg id="Outline" xmlns="http://www.w3.org/2000/svg" version="1.1" viewBox="0 0 64 64">
  <!-- Generator: Adobe Illustrator 29.5.1, SVG Export Plug-In . SVG Version: 2.1.0 Build 141)  -->
  <path d="M45,47h-24c-.552,0-1,.448-1,1s.448,1,1,1h24c.552,0,1-.448,1-1s-.448-1-1-1Z"/>
  <path d="M51,14c.55,0,1-.45,1-1v-5c0-.55-.45-1-1-1h-30c-4.96,0-9,4.04-9,9v32c0,4.96,4.04,9,9,9h30c.55,0,1-.45,1-1v-4c0-.55-.45-1-1-1h-.19c-.39-1.98-.39-4.02,0-6h.19c.55,0,1-.45,1-1v-27c0-.55-.45-1-1-1s-1,.45-1,1v22h-26V15c0-.55-.45-1-1-1s-1,.45-1,1v24h-1c-.34,0-.67.02-1,.06V9.08c.33-.05.66-.08,1-.08h1v2c0,.55.45,1,1,1s1-.45,1-1v-2h26v4c0,.55.45,1,1,1ZM14,16c0-2.79,1.64-5.19,4-6.32v29.85c-1.58.56-2.96,1.54-4,2.83v-26.36ZM21,41h29v2h-29c-2.76,0-5,2.24-5,5s2.24,5,5,5h29v2h-29c-3.86,0-7-3.14-7-7s3.14-7,7-7ZM48.77,51h-27.77c-1.65,0-3-1.35-3-3s1.35-3,3-3h27.77c-.34,1.98-.34,4.02,0,6Z"/>
  <path d="M47,35h-1v-8.76l1.89-3.79c.13-.25.14-.54.04-.81-.09-.26-.3-.46-.56-.57l-6.63-2.65c.17-.45.26-.93.26-1.42,0-1.86-1.28-3.41-3-3.86v-1.14c0-.55-.45-1-1-1s-1,.45-1,1v1.14c-1.72.45-3,2-3,3.86,0,.49.09.97.26,1.42l-6.63,2.65c-.26.11-.47.31-.56.57-.1.27-.09.56.04.81l1.89,3.79v8.76h-1c-.55,0-1,.45-1,1s.45,1,1,1h20c.55,0,1-.45,1-1s-.45-1-1-1ZM37,15c1.1,0,2,.9,2,2,0,.24-.04.46-.12.68l-1.51-.61c-.24-.09-.5-.09-.74,0l-1.51.61c-.08-.22-.12-.44-.12-.68,0-1.1.9-2,2-2ZM32,35h-2v-8h2v8ZM40,35h-6v-8h6v8ZM44,35h-2v-8h2v8ZM44.38,25h-14.76l-1.24-2.48,8.62-3.44,8.62,3.44-1.24,2.48Z"/>
</svg>