<?xml version="1.0" encoding="UTF-8"?>
<svg id="Outline" xmlns="http://www.w3.org/2000/svg" version="1.1" viewBox="0 0 64 64">
  <!-- Generator: Adobe Illustrator 29.0.0, SVG Export Plug-In . SVG Version: 2.1.0 Build 186)  -->
  <path d="M54,7H10c-1.6543,0-3,1.3457-3,3v14c0,1.6543,1.3457,3,3,3h3.84637c-.33719,2.30839-1.24257,4.52817-2.6458,6.3994-.48679.64914-.00798,1.6006.79943,1.6006.10547,0,.21191-.0166.31641-.05127l2.35938-.78662c3.39844-1.13257,5.92432-3.84698,6.88971-7.16211h32.43451c1.6543,0,3-1.3457,3-3v-14c0-1.6543-1.3457-3-3-3ZM55,24c0,.55127-.44824,1-1,1H21.94904c.0307-.33032.05096-.66315.05096-1,0-.55225-.44727-1-1-1s-1,.44775-1,1c0,3.66602-2.28125,6.91797-5.70312,8.17578.94-1.87958,1.48383-3.9425,1.63586-6.04089.00647-.04608.02722-.08704.02722-.13489,0-.02612-.01288-.04797-.01483-.07361.01831-.30896.05487-.61646.05487-.92639v-1c0-.55225-.44727-1-1-1s-1,.44775-1,1v1h-4c-.55176,0-1-.44873-1-1v-14c0-.55127.44824-1,1-1h44c.55176,0,1,.44873,1,1v14Z"/>
  <path d="M54,37h-3.84637c.33722-2.30859,1.24274-4.52856,2.64618-6.3999.26269-.3501.26758-.83008.01172-1.18506-.25684-.35449-.71191-.50293-1.12793-.36377l-2.35938.78662c-3.39844,1.13257-5.92432,3.84698-6.88971,7.16211H10c-1.6543,0-3,1.3457-3,3v14c0,1.6543,1.3457,3,3,3h44c1.6543,0,3-1.3457,3-3v-14c0-1.6543-1.3457-3-3-3ZM55,54c0,.55127-.44824,1-1,1H10c-.55176,0-1-.44873-1-1v-14c0-.55127.44824-1,1-1h32.05096c-.0307.33032-.05096.66315-.05096,1,0,.55225.44727,1,1,1s1-.44775,1-1c0-3.66602,2.28125-6.91797,5.70312-8.17578-.94,1.87964-1.48383,3.94263-1.63586,6.04102-.00647.04602-.02722.08698-.02722.13477,0,.02612.01288.04803.01483.07361-.01831.30896-.05487.61646-.05487.92639v1c0,.55225.44727,1,1,1s1-.44775,1-1v-1h4c.55176,0,1,.44873,1,1v14Z"/>
  <path d="M51,12H13c-.55273,0-1,.44775-1,1s.44727,1,1,1h38c.55273,0,1-.44775,1-1s-.44727-1-1-1Z"/>
  <path d="M45,18c.55273,0,1-.44775,1-1s-.44727-1-1-1h-26c-.55273,0-1,.44775-1,1s.44727,1,1,1h26Z"/>
  <path d="M51,20H13c-.55273,0-1,.44775-1,1s.44727,1,1,1h38c.55273,0,1-.44775,1-1s-.44727-1-1-1Z"/>
  <path d="M51,50H13c-.55273,0-1,.44775-1,1s.44727,1,1,1h38c.55273,0,1-.44775,1-1s-.44727-1-1-1Z"/>
  <path d="M45,48c.55273,0,1-.44775,1-1s-.44727-1-1-1h-26c-.55273,0-1,.44775-1,1s.44727,1,1,1h26Z"/>
  <path d="M51,42H13c-.55273,0-1,.44775-1,1s.44727,1,1,1h38c.55273,0,1-.44775,1-1s-.44727-1-1-1Z"/>
</svg>