<?xml version="1.0" encoding="UTF-8"?>
<svg id="Outline" xmlns="http://www.w3.org/2000/svg" version="1.1" viewBox="0 0 64 64">
  <!-- Generator: Adobe Illustrator 29.0.0, SVG Export Plug-In . SVG Version: 2.1.0 Build 186)  -->
  <path d="M54,13h-1v-5c0-.54999-.45001-1-1-1h-26c-.54999,0-1,.45001-1,1v5h-1c-1.65002,0-3,1.34998-3,3v32c0,1.64996,1.34998,3,3,3h14.90002c-.47003,2.27997-2.49005,4-4.90002,4h-15c-2.40997,0-4.42999-1.72003-4.90002-4h.90002c.54999,0,1-.45001,1-1v-3c1.65002,0,3-1.35004,3-3v-28c0-1.65002-1.34998-3-3-3h-6c-1.65002,0-3,1.34998-3,3v28c0,1.64996,1.34998,3,3,3v3c0,.54999.45001,1,1,1h1.08002c.48999,3.39001,3.39996,6,6.91998,6h15c3.52002,0,6.42999-2.60999,6.91998-6h13.08002c1.65002,0,3-1.35004,3-3V16c0-1.65002-1.34998-3-3-3ZM10,45c-.54999,0-1-.45001-1-1v-28c0-.54999.45001-1,1-1h6c.54999,0,1,.45001,1,1v28c0,.54999-.45001,1-1,1h-6ZM14,49h-2v-2h2v2ZM27,9h24v4h-24v-4ZM55,48c0,.54999-.45001,1-1,1h-30c-.54999,0-1-.45001-1-1V16c0-.54999.45001-1,1-1h30c.54999,0,1,.45001,1,1v32Z"/>
  <path d="M52,17h-26c-.55225,0-1,.44727-1,1v8c0,.55273.44775,1,1,1h26c.55225,0,1-.44727,1-1v-8c0-.55273-.44775-1-1-1ZM51,25h-24v-6h24v6Z"/>
  <path d="M26,35h6c.55225,0,1-.44727,1-1v-4c0-.55273-.44775-1-1-1h-6c-.55225,0-1,.44727-1,1v4c0,.55273.44775,1,1,1ZM27,31h4v2h-4v-2Z"/>
  <path d="M36,35h6c.55225,0,1-.44727,1-1v-4c0-.55273-.44775-1-1-1h-6c-.55225,0-1,.44727-1,1v4c0,.55273.44775,1,1,1ZM37,31h4v2h-4v-2Z"/>
  <path d="M52,29h-6c-.55225,0-1,.44727-1,1v4c0,.55273.44775,1,1,1h6c.55225,0,1-.44727,1-1v-4c0-.55273-.44775-1-1-1ZM51,33h-4v-2h4v2Z"/>
  <path d="M33,42v-4c0-.55273-.44775-1-1-1h-6c-.55225,0-1,.44727-1,1v4c0,.55273.44775,1,1,1h6c.55225,0,1-.44727,1-1ZM31,41h-4v-2h4v2Z"/>
  <path d="M35,42c0,.55273.44775,1,1,1h6c.55225,0,1-.44727,1-1v-4c0-.55273-.44775-1-1-1h-6c-.55225,0-1,.44727-1,1v4ZM37,39h4v2h-4v-2Z"/>
  <path d="M52,37h-6c-.55225,0-1,.44727-1,1v4c0,.55273.44775,1,1,1h6c.55225,0,1-.44727,1-1v-4c0-.55273-.44775-1-1-1ZM51,41h-4v-2h4v2Z"/>
  <path d="M46,45h-14c-.55225,0-1,.44727-1,1s.44775,1,1,1h14c.55225,0,1-.44727,1-1s-.44775-1-1-1Z"/>
</svg>