<?xml version="1.0" encoding="UTF-8"?>
<svg id="Outline" xmlns="http://www.w3.org/2000/svg" version="1.1" viewBox="0 0 64 64">
  <!-- Generator: Adobe Illustrator 29.5.1, SVG Export Plug-In . SVG Version: 2.1.0 Build 141)  -->
  <path d="M36,15H14c-1.65,0-3,1.35-3,3v21c0,.2.06.39.17.55l1.83,2.75v11.7c0,1.65,1.35,3,3,3h18c1.65,0,3-1.35,3-3v-11.7l1.83-2.75c.11-.16.17-.35.17-.55v-21c0-1.65-1.35-3-3-3ZM37,38.7l-1.83,2.75c-.11.16-.17.35-.17.55v12c0,.55-.45,1-1,1h-18c-.55,0-1-.45-1-1v-12c0-.2-.06-.39-.17-.55l-1.83-2.75v-20.7c0-.55.45-1,1-1h22c.55,0,1,.45,1,1v20.7Z"/>
  <path d="M20,43h-2c-.553,0-1,.448-1,1s.447,1,1,1h2c.553,0,1-.448,1-1s-.447-1-1-1Z"/>
  <path d="M26,43h-2c-.553,0-1,.448-1,1s.447,1,1,1h2c.553,0,1-.448,1-1s-.447-1-1-1Z"/>
  <path d="M32,43h-2c-.553,0-1,.448-1,1s.447,1,1,1h2c.553,0,1-.448,1-1s-.447-1-1-1Z"/>
  <path d="M20,47h-2c-.553,0-1,.448-1,1s.447,1,1,1h2c.553,0,1-.448,1-1s-.447-1-1-1Z"/>
  <path d="M26,47h-2c-.553,0-1,.448-1,1s.447,1,1,1h2c.553,0,1-.448,1-1s-.447-1-1-1Z"/>
  <path d="M32,47h-2c-.553,0-1,.448-1,1s.447,1,1,1h2c.553,0,1-.448,1-1s-.447-1-1-1Z"/>
  <path d="M20,51h-2c-.553,0-1,.448-1,1s.447,1,1,1h2c.553,0,1-.448,1-1s-.447-1-1-1Z"/>
  <path d="M26,51h-2c-.553,0-1,.448-1,1s.447,1,1,1h2c.553,0,1-.448,1-1s-.447-1-1-1Z"/>
  <path d="M32,51h-2c-.553,0-1,.448-1,1s.447,1,1,1h2c.553,0,1-.448,1-1s-.447-1-1-1Z"/>
  <path d="M34,19h-18c-.553,0-1,.448-1,1v18c0,.552.447,1,1,1h18c.553,0,1-.448,1-1v-18c0-.552-.447-1-1-1ZM33,37h-16v-16h16v16Z"/>
  <path d="M25.764,31h-2.764c-.553,0-1,.448-1,1s.447,1,1,1h1v1c0,.552.447,1,1,1s1-.448,1-1v-1.024c1.121-.12,2-1.06,2-2.212,0-.853-.474-1.619-1.236-2l-2.633-1.316c-.081-.04-.131-.121-.131-.211,0-.13.106-.236.236-.236h2.764c.553,0,1-.448,1-1s-.447-1-1-1h-1v-1c0-.552-.447-1-1-1s-1,.448-1,1v1.024c-1.121.12-2,1.06-2,2.212,0,.853.474,1.619,1.236,2l2.633,1.316c.081.04.131.121.131.211,0,.13-.106.236-.236.236Z"/>
  <path d="M42,7c-.553,0-1,.448-1,1s.447,1,1,1c4.963,0,9,4.038,9,9,0,.552.447,1,1,1s1-.448,1-1c0-6.065-4.935-11-11-11Z"/>
  <path d="M42,11c-.553,0-1,.448-1,1s.447,1,1,1c2.757,0,5,2.243,5,5,0,.552.447,1,1,1s1-.448,1-1c0-3.86-3.141-7-7-7Z"/>
  <path d="M42,15c-.553,0-1,.448-1,1s.447,1,1,1,1,.449,1,1,.447,1,1,1,1-.448,1-1c0-1.654-1.346-3-3-3Z"/>
</svg>