<?xml version="1.0" encoding="UTF-8"?>
<svg id="Outline" xmlns="http://www.w3.org/2000/svg" version="1.1" viewBox="0 0 64 64">
  <!-- Generator: Adobe Illustrator 29.0.0, SVG Export Plug-In . SVG Version: 2.1.0 Build 186)  -->
  <path d="M34,9h-4c-12.68262,0-23,10.31738-23,23s10.31738,23,23,23h4c12.68262,0,23-10.31738,23-23s-10.31738-23-23-23ZM9,32c0-11.5791,9.4209-21,21-21s21,9.4209,21,21-9.4209,21-21,21-21-9.4209-21-21ZM43.06866,50.91162c5.99493-4.15552,9.93134-11.08075,9.93134-18.91162s-3.9364-14.7561-9.93134-18.91162c7.04517,3.39288,11.93134,10.58319,11.93134,18.91162s-4.88617,15.51874-11.93134,18.91162Z"/>
  <path d="M30,17c.55273,0,1-.44727,1-1v-2c0-.55273-.44727-1-1-1s-1,.44727-1,1v2c0,.55273.44727,1,1,1Z"/>
  <path d="M17.97949,18.56543c-.39062-.39062-1.02344-.39062-1.41406,0s-.39062,1.02344,0,1.41406l1.41406,1.41406c.38862.38862,1.02707.387,1.41407,0,.39062-.39062.39062-1.02344,0-1.41406l-1.41406-1.41406Z"/>
  <path d="M14,31h-2c-.55273,0-1,.44727-1,1s.44727,1,1,1h2c.55273,0,1-.44727,1-1s-.44727-1-1-1Z"/>
  <path d="M17.97949,42.60645l-1.41406,1.41406c-.39061.39061-.39062,1.0234-.00003,1.41403.36801.36805,1.01575.39836,1.4141.00003l1.41406-1.41406c.39062-.39062.39062-1.02344,0-1.41406s-1.02344-.39062-1.41406,0Z"/>
  <path d="M31,50v-2c0-.55273-.44727-1-1-1s-1,.44727-1,1v2c0,.55273.44727,1,1,1s1-.44727,1-1Z"/>
  <path d="M42.02051,45.43457c.36768.36767,1.01562.39845,1.41406,0,.39062-.39062.39062-1.02344,0-1.41406l-1.41406-1.41406c-.39062-.39062-1.02344-.39062-1.41406,0s-.39062,1.02344,0,1.41406c0,0,1.4106,1.4106,1.41406,1.41406Z"/>
  <path d="M46,33h2c.55273,0,1-.44727,1-1s-.44727-1-1-1h-2c-.55273,0-1,.44727-1,1s.44727,1,1,1Z"/>
  <path d="M41.31348,21.68527c.25616.00003.51241-.09709.70703-.29172l1.41406-1.41406c.39062-.39062.39062-1.02344,0-1.41406s-1.02344-.39062-1.41406,0l-1.41402,1.41402c-.60696.60696-.1494,1.70572.70699,1.70582Z"/>
  <path d="M30,35c1.6543,0,3-1.3457,3-3,0-1.30194-.8385-2.40161-2-2.81573v-9.18427c0-.55273-.44727-1-1-1s-1,.44727-1,1v9.18427c-1.1615.41412-2,1.51379-2,2.81573,0,.46173.11346.89423.3006,1.28534l-6.49298,6.49298c-.39054.39054-.39062,1.02316-.00026,1.41381.36119.36145,1.02655.38803,1.41432.00026l6.49298-6.49298c.39111.18713.82361.3006,1.28534.3006ZM30,31c.55176,0,1,.44824,1,1s-.44824,1-1,1-1-.44824-1-1,.44824-1,1-1Z"/>
</svg>