<?xml version="1.0" encoding="UTF-8"?>
<svg id="Outline" xmlns="http://www.w3.org/2000/svg" version="1.1" viewBox="0 0 64 64">
  <!-- Generator: Adobe Illustrator 29.0.0, SVG Export Plug-In . SVG Version: 2.1.0 Build 186)  -->
  <path d="M30,12c0-.55273-.44775-1-1-1h-8c-.55225,0-1,.44727-1,1s.44775,1,1,1h8c.55225,0,1-.44727,1-1Z"/>
  <path d="M40.68408,21c-.2309,0-.45599.02301-.68408.03467v-11.03467c0-1.6543-1.3457-3-3-3H13c-1.6543,0-3,1.3457-3,3v44c0,1.6543,1.3457,3,3,3h24c1.6543,0,3-1.3457,3-3v-6.39581c.22778.01184.45514.02765.68408.02765,7.34229,0,13.31592-5.97363,13.31592-13.31641,0-7.3418-5.97363-13.31543-13.31592-13.31543ZM38,54c0,.55176-.44873,1-1,1H13c-.55127,0-1-.44824-1-1v-1h26v1ZM38,51H12V10c0-.55176.44873-1,1-1h24c.55127,0,1,.44824,1,1v11.27197c-6.06012,1.2453-10.63135,6.62079-10.63135,13.04346v13.68444c0,.87719,1.08862,1.32558,1.70703.70716l3.69287-3.69336c1.5592,1.15509,3.34851,1.94189,5.23145,2.33221v3.65411ZM40.68408,45.63184c-2.68506,0-5.29248-.96484-7.34229-2.71582-.1875-.16113-.41846-.24023-.64941-.24023-.25684,0-.5127.09863-.70703.29297l-2.6167,2.61719v-11.27051c0-6.23926,5.07617-11.31543,11.31543-11.31543,6.23975,0,11.31592,5.07617,11.31592,11.31543,0,6.24023-5.07617,11.31641-11.31592,11.31641Z"/>
  <path d="M48.6167,29.85449l-.10596-.02734c-5.36328-1.33105-11.02881-1.32227-16.38623.02637-.44434.1123-.75586.51172-.75586.96973v8c0,.29395.12939.57324.35352.7627.22461.19043.52197.27051.81104.22363l6-1c.48193-.08008.83545-.49707.83545-.98633v-2.54004c.28613-.19336.62256-.29883.97559-.30371.37939-.00781.70752.09668,1.02441.31152v2.53223c0,.48926.35352.90625.83545.98633l6,1c.05468.00879.10984.01367.16452.01367.51273.00002,1.00003-.42897,1.00003-1v-8c0-.45703-.30957-.85547-.75195-.96875ZM47.36865,37.64258l-4-.66602v-2.15332c0-.26953-.1626-.58105-.35596-.76953-.7251-.70605-1.69287-1.05566-2.69482-1.07422-1.0127.01367-1.95947.4209-2.66553,1.14648-.18213.18652-.28369.43652-.28369.69727v2.15332l-4,.66602v-6.03027c4.59717-1.03711,9.40967-1.03711,14,0v6.03027Z"/>
</svg>