<?xml version="1.0" encoding="UTF-8"?>
<svg id="Outline" xmlns="http://www.w3.org/2000/svg" version="1.1" viewBox="0 0 64 64">
  <!-- Generator: Adobe Illustrator 29.0.0, SVG Export Plug-In . SVG Version: 2.1.0 Build 186)  -->
  <path d="M56.64001,27.23124l-5.64001-4.70001v-9.52997c0-.54999-.45001-1-1-1h-11.64001l-5.71997-4.77002c-.37-.31-.91003-.31-1.28003,0l-5.71997,4.77002h-11.64001c-.54999,0-1,.45001-1,1v9.52997l-5.64001,4.70001c-.22998.19-.35999.47003-.35999.77002v26c0,1.64996,1.34998,3,3,3h44c1.65002,0,3-1.35004,3-3v-26c0-.29999-.13-.58002-.35999-.77002ZM51,25.14127l3.57001,2.96997c-.03003.02002-.08002.03003-.12.04999l-3.45001,2.25v-5.26996ZM32,9.30125l3.23999,2.70001h-6.47998l3.23999-2.70001ZM15,14.00126h34v17.71997l-10.04999,6.54999-6.26001-5.98999c-.39001-.37-.98999-.37-1.38,0l-6.26001,5.98999-10.04999-6.54999V14.00126ZM13,25.14127v5.26996l-3.45001-2.25c-.03998-.01996-.08002-.02997-.12-.04999l3.57001-2.96997ZM9,53.62125v-23.42999l14.56,9.5-14.56,13.92999ZM45,55.00126h-26v-2h26v2ZM47,55.00126v-3c0-.54999-.45001-1-1-1h-28c-.54999,0-1,.45001-1,1v3h-6.54999l21.54999-20.62,21.54999,20.62h-6.54999ZM55,53.62125l-14.56-13.92999,14.56-9.5v23.42999Z"/>
  <path d="M30.29297,24.70829c.19336.19336.44922.29297.70703.29297.19238,0,.38574-.05469.55469-.16797l3-2c.45996-.30664.58398-.92676.27734-1.38672s-.92676-.58301-1.38672-.27734l-2.31836,1.54492-.41992-.41992c-.39062-.39062-1.02344-.39062-1.41406,0s-.39062,1.02344,0,1.41406l1,1Z"/>
  <path d="M32,30.00126c3.85938,0,7-3.14062,7-7s-3.14062-7-7-7-7,3.14062-7,7,3.14062,7,7,7ZM32,18.00126c2.75684,0,5,2.24316,5,5s-2.24316,5-5,5-5-2.24316-5-5,2.24316-5,5-5Z"/>
</svg>