<?xml version="1.0" encoding="UTF-8"?>
<svg id="Outline" xmlns="http://www.w3.org/2000/svg" version="1.1" viewBox="0 0 64 64">
  <!-- Generator: Adobe Illustrator 29.0.0, SVG Export Plug-In . SVG Version: 2.1.0 Build 186)  -->
  <path d="M37.13905,38.88159c-.39062-.39062-1.02344-.39062-1.41406,0s-.39062,1.02344,0,1.41406l.55225.55225-3.65576,3.65576c-.4126.41211-1.08301.41211-1.49463,0l-11.63379-11.63379c-.41211-.41211-.41211-1.08252,0-1.49463l3.65552-3.65552.56421.56421c.38917.38917,1.02665.38741,1.41406,0,.39062-.39062.39062-1.02344,0-1.41406l-12.72168-12.72217c-.39062-.39062-1.02344-.39062-1.41406,0s-.39062,1.02344,0,1.41406l.59552.59552c-5.60779,6.25604-6.18103,15.53107-1.24347,22.44403,4.16162,5.82617,9.22607,10.89062,15.05225,15.05225,3.16455,2.26025,6.8252,3.36865,10.46533,3.36865,4.31177,0,8.58276-1.57574,11.97491-4.61591l.58758.58758c.38975.38975,1.0276.38647,1.41407,0,.39062-.39062.39062-1.02344,0-1.41406l-12.69824-12.69824ZM26.5575,52.02563c-5.646-4.03271-10.55371-8.94043-14.58643-14.58643-4.36768-6.11462-3.88574-14.30798,1.0296-19.8678l8.73389,8.73419-3.65558,3.65558c-1.19189,1.19189-1.19189,3.13086,0,4.32275l11.63379,11.63379c.5957.59619,1.37842.89404,2.16113.89404.7832,0,1.56592-.29785,2.16162-.89404l3.65576-3.65576,8.73401,8.73401c-5.5603,4.91547-13.75409,5.3974-19.8678,1.02966Z"/>
  <path d="M42.01893,6.97778c-8.271,0-15,6.729-15,15,0,3.25244,1.06592,6.41748,3.01904,9.01074l-4.28174,4.28223c-.28613.28613-.37158.71582-.2168,1.08984.15479.37354.51953.61719.92383.61719h15.55566c8.271,0,15-6.729,15-15s-6.729-15-15-15ZM42.01893,34.97778h-13.1416l3.2085-3.2085c.36914-.36914.39209-.95996.05322-1.35693-2.01221-2.354-3.12012-5.34961-3.12012-8.43457,0-7.16846,5.83154-13,13-13s13,5.83154,13,13-5.83154,13-13,13Z"/>
  <path d="M36.96326,15.97778c-.55225,0-1,.44775-1,1s.44775,1,1,1c4.9624,0,9,4.0376,9,9,0,.55225.44775,1,1,1s1-.44775,1-1c0-6.06543-4.93457-11-11-11Z"/>
  <path d="M36.96326,19.97778c-.55225,0-1,.44775-1,1s.44775,1,1,1c2.75684,0,5,2.24316,5,5,0,.55225.44775,1,1,1s1-.44775,1-1c0-3.85986-3.14014-7-7-7Z"/>
  <path d="M36.96326,23.97778c-.55225,0-1,.44775-1,1s.44775,1,1,1c.55127,0,1,.44873,1,1,0,.55225.44775,1,1,1s1-.44775,1-1c0-1.6543-1.3457-3-3-3Z"/>
  <path d="M41.96326,10.97778c-6.06543,0-11,4.93457-11,11s4.93457,11,11,11,11-4.93457,11-11-4.93457-11-11-11ZM41.96326,30.97778c-4.9624,0-9-4.0376-9-9s4.0376-9,9-9,9,4.0376,9,9-4.0376,9-9,9Z"/>
</svg>