<?xml version="1.0" encoding="UTF-8"?>
<svg id="Outline" xmlns="http://www.w3.org/2000/svg" version="1.1" viewBox="0 0 64 64">
  <!-- Generator: Adobe Illustrator 29.0.0, SVG Export Plug-In . SVG Version: 2.1.0 Build 186)  -->
  <path d="M27,27c-4.96289,0-9,4.03711-9,9s4.03711,9,9,9,9-4.03711,9-9-4.03711-9-9-9ZM34,36c0,.88837-.17303,1.73553-.47632,2.51819-.48492-.28046-1.02557-.5257-1.6156-.73297.05927-.5744.09192-1.1701.09192-1.78522s-.03265-1.21082-.09192-1.78522c.59003-.20728,1.13068-.45251,1.6156-.73297.30328.78265.47632,1.62982.47632,2.51819ZM27,43c-.9964,0-2.07349-1.48553-2.62585-3.75983.823-.15344,1.70905-.24017,2.62585-.24017s1.80286.08673,2.62585.24017c-.55237,2.27429-1.62946,3.75983-2.62585,3.75983ZM27,37c-1.02551,0-2.01294.09863-2.94263.26959-.0354-.41034-.05737-.83258-.05737-1.26959s.02197-.85925.05737-1.26959c.92969.17096,1.91711.26959,2.94263.26959s2.01294-.09863,2.94263-.26959c.0354.41034.05737.83258.05737,1.26959s-.02197.85925-.05737,1.26959c-.92969-.17096-1.91711-.26959-2.94263-.26959ZM20,36c0-.88837.17303-1.73553.47632-2.51819.48492.28046,1.02557.5257,1.6156.73297-.05927.5744-.09192,1.1701-.09192,1.78522s.03265,1.21082.09192,1.78522c-.59003.20728-1.13068.45251-1.6156.73297-.30328-.78265-.47632-1.62982-.47632-2.51819ZM27,29c.9964,0,2.07349,1.48553,2.62585,3.75983-.823.15344-1.70905.24017-2.62585.24017s-1.80286-.08673-2.62585-.24017c.55237-2.27429,1.62946-3.75983,2.62585-3.75983ZM32.54425,31.74359c-.29565.17346-.62164.33252-.97968.47339-.18207-.74512-.41473-1.43353-.69635-2.04572.64258.42786,1.20618.96185,1.67603,1.57233ZM23.13171,30.17133c-.28162.61218-.51422,1.3006-.69629,2.04565-.35797-.14087-.68402-.2998-.97968-.47333.46985-.61047,1.03345-1.14447,1.67596-1.57233ZM21.45581,40.25635c.29572-.17346.62164-.33246.97968-.47333.18201.745.41461,1.43347.69617,2.04559-.64246-.42786-1.20599-.96179-1.67584-1.57227ZM30.86829,41.82861c.28156-.61212.51422-1.30054.69623-2.04559.35803.14087.68408.2998.97974.47333-.46979.61047-1.03345,1.14441-1.67596,1.57227Z"/>
  <path d="M56.70703,50.29297l-4.29297-4.29297,1.79297-1.79297c.26074-.26074.35645-.64355.25-.99707-.10645-.35254-.39941-.61816-.76074-.69043l-6.69629-1.33923V10c0-1.6543-1.3457-3-3-3H10c-1.6543,0-3,1.3457-3,3v36c0,1.6543,1.3457,3,3,3h31.58026l.93927,4.69629c.07227.36133.33789.6543.69043.76074.35449.10938.73633.01074.99707-.25l1.79297-1.79297,4.29297,4.29297c.19531.19531.45117.29297.70703.29297s.51172-.09766.70703-.29297l5-5c.39062-.39062.39062-1.02344,0-1.41406ZM10,9h34c.55176,0,1,.44824,1,1v1H9v-1c0-.55176.44824-1,1-1ZM10,47c-.55176,0-1-.44824-1-1V13h36v27.78027l-3.80371-.76074c-.3291-.0625-.66602.03711-.90332.27344-.23633.23633-.33887.5752-.27344.90332l1.16077,5.80371H10ZM51,54.58594l-4.29297-4.29297c-.19531-.19531-.45117-.29297-.70703-.29297s-.51172.09766-.70703.29297l-1.17871,1.17871-1.83984-9.19727,9.19727,1.83984-1.17871,1.17871c-.39062.39062-.39062,1.02344,0,1.41406l4.29297,4.29297-3.58594,3.58594Z"/>
  <path d="M20,21c.55273,0,1-.44727,1-1s-.44727-1-1-1h-3v-2h3c.55273,0,1-.44727,1-1s-.44727-1-1-1h-4c-.55273,0-1,.44727-1,1v8c0,.55273.44727,1,1,1s1-.44727,1-1v-3h3Z"/>
  <path d="M24,25c.55273,0,1-.44727,1-1v-2h2v2c0,.55273.44727,1,1,1s1-.44727,1-1v-6c0-1.6543-1.3457-3-3-3s-3,1.3457-3,3v6c0,.55273.44727,1,1,1ZM26,17c.55176,0,1,.44824,1,1v2h-2v-2c0-.55176.44824-1,1-1Z"/>
  <path d="M37.63336,22.2193c.22772-.66797.36664-1.41315.36664-2.2193,0-2.80371-1.53711-5-3.5-5s-3.5,2.19629-3.5,5,1.53711,5,3.5,5c.79584,0,1.51385-.37415,2.09564-.9903l.69732.69732c.3644.3644,1.02017.3939,1.41407,0,.39062-.39062.39062-1.02344,0-1.41406l-1.07367-1.07367ZM34.5,23c-.70801,0-1.5-1.2832-1.5-3s.79199-3,1.5-3,1.5,1.2832,1.5,3c0,.19135-.01312.375-.03156.55438l-.26141-.26141c-.39062-.39062-1.02344-.39062-1.41406,0s-.39062,1.02344,0,1.41406l.89771.89771c-.21936.24609-.4585.39526-.69067.39526Z"/>
</svg>