<?xml version="1.0" encoding="UTF-8"?>
<svg id="Outline" xmlns="http://www.w3.org/2000/svg" version="1.1" viewBox="0 0 64 64">
  <!-- Generator: Adobe Illustrator 29.0.0, SVG Export Plug-In . SVG Version: 2.1.0 Build 186)  -->
  <path d="M37.13904,38.88232c-.39062-.39062-1.02344-.39062-1.41406,0s-.39062,1.02344,0,1.41406l.55194.55188-3.65594,3.65515c-.39893.40039-1.09521.40039-1.49414,0l-11.63379-11.63379c-.19971-.19922-.30957-.46484-.30957-.74707s.10986-.54785.30957-.74707l3.65594-3.65558.56378.56378c.36018.36018,1.02891.38516,1.41407,0,.39062-.39062.39062-1.02344,0-1.41406l-12.72168-12.72168c-.39062-.39062-1.02344-.39062-1.41406,0s-.39062,1.02344,0,1.41406l.59576.59576c-5.60797,6.25555-6.18134,15.5307-1.24371,22.4433,4.1626,5.82715,9.22656,10.8916,15.05225,15.05176,3.16455,2.26074,6.8252,3.36914,10.46582,3.36914,4.31189,0,8.58252-1.57489,11.97473-4.61554l.58728.58722c.372.37196,1.01988.39418,1.41406,0,.39062-.39062.39062-1.02344,0-1.41406l-12.69824-12.69727ZM26.55749,52.02588c-5.64502-4.03223-10.55273-8.94043-14.58643-14.58691-4.3678-6.11469-3.8858-14.30737,1.02985-19.86713l8.73401,8.73401-3.65594,3.65558c-.57715.57715-.89551,1.34473-.89551,2.16113s.31836,1.58398.89551,2.16113l11.6333,11.63379c.57764.57715,1.34521.89551,2.16211.89551.81641,0,1.58398-.31836,2.16113-.89551l3.65558-3.65515,8.73431,8.7337c-5.56036,4.91516-13.75415,5.39667-19.86792,1.02985Z"/>
  <path d="M42.01892,6.97803c-8.271,0-15,6.72852-15,15,0,3.25195,1.06592,6.41699,3.01904,9.01172l-4.28174,4.28125c-.28613.28613-.37158.71582-.2168,1.08984s.51953.61719.92383.61719h15.55566c8.271,0,15-6.72852,15-15s-6.729-15-15-15ZM42.01892,34.97803h-13.14111l3.20801-3.20801c.36914-.36914.39209-.95996.05322-1.35645-2.01221-2.35449-3.12012-5.35059-3.12012-8.43555,0-7.16797,5.83154-13,13-13s13,5.83203,13,13-5.83154,13-13,13Z"/>
  <path d="M41.96325,10.97803c-6.06543,0-11,4.93457-11,11s4.93457,11,11,11,11-4.93457,11-11-4.93457-11-11-11ZM41.96325,30.97803c-4.9624,0-9-4.03711-9-9s4.0376-9,9-9,9,4.03711,9,9-4.0376,9-9,9Z"/>
  <path d="M42.73572,15.04053c-1.18115-.2041-2.38086.11035-3.28809.87305-.90771.7627-1.42871,1.87988-1.42871,3.06445,0,.55273.44775,1,1,1s1-.44727,1-1c0-.59277.26074-1.15137.71484-1.53223.46094-.3877,1.05078-.54199,1.65625-.43457.78662.1377,1.45801.80957,1.59619,1.5957.15283.87012-.24121,1.7041-1.00439,2.12402-1.229.67773-1.96289,1.85938-1.96289,3.24707,0,.55273.44775.95605,1,.95605s1-.49023,1-1.04297c0-.56152.34717-1.08789.92822-1.4082,1.5-.82617,2.30713-2.52344,2.00879-4.22168-.2832-1.61328-1.60742-2.9375-3.22021-3.2207Z"/>
  <circle cx="42.01892" cy="27.97803" r="1"/>
</svg>