<?xml version="1.0" encoding="UTF-8"?>
<svg id="Outline" xmlns="http://www.w3.org/2000/svg" version="1.1" viewBox="0 0 64 64">
  <!-- Generator: Adobe Illustrator 29.3.1, SVG Export Plug-In . SVG Version: 2.1.0 Build 151)  -->
  <circle cx="12" cy="12" r="1"/>
  <circle cx="16" cy="12" r="1"/>
  <circle cx="20" cy="12" r="1"/>
  <path d="M38,13h10c.55225,0,1-.44775,1-1s-.44775-1-1-1h-10c-.55225,0-1,.44775-1,1s.44775,1,1,1Z"/>
  <path d="M16,19h-4c-.55225,0-1,.44775-1,1v4c0,.55225.44775,1,1,1s1-.44775,1-1v-3h3c.55225,0,1-.44775,1-1s-.44775-1-1-1Z"/>
  <path d="M16,41h-3v-3c0-.55225-.44775-1-1-1s-1,.44775-1,1v4c0,.55225.44775,1,1,1h4c.55225,0,1-.44775,1-1s-.44775-1-1-1Z"/>
  <path d="M44,21h3v3c0,.55225.44775,1,1,1s1-.44775,1-1v-4c0-.55225-.44775-1-1-1h-4c-.55225,0-1,.44775-1,1s.44775,1,1,1Z"/>
  <circle cx="36" cy="36" r="1"/>
  <circle cx="48" cy="36" r="1"/>
  <circle cx="48" cy="48" r="1"/>
  <circle cx="36" cy="48" r="1"/>
  <path d="M40,37c-.55225,0-1,.44775-1,1v2c0,.55225.44775,1,1,1s1-.44775,1-1v-2c0-.55225-.44775-1-1-1Z"/>
  <path d="M40,31h-8c-.55225,0-1,.44775-1,1v8c0,.55225.44775,1,1,1h4c.55225,0,1-.44775,1-1s-.44775-1-1-1h-3v-6h6v1c0,.55225.44775,1,1,1s1-.44775,1-1v-2c0-.55225-.44775-1-1-1Z"/>
  <path d="M52,37c-.55225,0-1,.44775-1,1v1h-1c-.55225,0-1,.44775-1,1s.44775,1,1,1h2c.55225,0,1-.44775,1-1v-2c0-.55225-.44775-1-1-1Z"/>
  <path d="M52,31h-8c-.55225,0-1,.44775-1,1v8c0,.55225.44775,1,1,1h2c.55225,0,1-.44775,1-1s-.44775-1-1-1h-1v-6h6v1c0,.55225.44775,1,1,1s1-.44775,1-1v-2c0-.55225-.44775-1-1-1Z"/>
  <path d="M48,51h-3v-6h1c.55225,0,1-.44775,1-1s-.44775-1-1-1h-2c-.55225,0-1,.44775-1,1v8c0,.55225.44775,1,1,1h4c.55225,0,1-.44775,1-1s-.44775-1-1-1Z"/>
  <path d="M52,49c-.55225,0-1,.44775-1,1v2c0,.55225.44775,1,1,1s1-.44775,1-1v-2c0-.55225-.44775-1-1-1Z"/>
  <path d="M52,43h-2c-.55225,0-1,.44775-1,1s.44775,1,1,1h1v1c0,.55225.44775,1,1,1s1-.44775,1-1v-2c0-.55225-.44775-1-1-1Z"/>
  <path d="M36,51h-3v-1c0-.55225-.44775-1-1-1s-1,.44775-1,1v2c0,.55225.44775,1,1,1h4c.55225,0,1-.44775,1-1s-.44775-1-1-1Z"/>
  <path d="M40,49c-.55225,0-1,.44775-1,1v2c0,.55225.44775,1,1,1s1-.44775,1-1v-2c0-.55225-.44775-1-1-1Z"/>
  <path d="M40,43h-8c-.55225,0-1,.44775-1,1v2c0,.55225.44775,1,1,1s1-.44775,1-1v-1h6v1c0,.55225.44775,1,1,1s1-.44775,1-1v-2c0-.55225-.44775-1-1-1Z"/>
  <path d="M54,27h-1V10c0-1.6543-1.3457-3-3-3H10c-1.6543,0-3,1.3457-3,3v34c0,1.6543,1.3457,3,3,3h17v7c0,1.6543,1.3457,3,3,3h24c1.6543,0,3-1.3457,3-3v-24c0-1.6543-1.3457-3-3-3ZM51,10v5h-21.38184l3-6h17.38184c.55127,0,1,.44873,1,1ZM24.61816,15l3-6h2.76367l-3,6h-2.76367ZM10,9h15.38184l-3,6h-13.38184v-5c0-.55127.44873-1,1-1ZM10,45c-.55127,0-1-.44873-1-1v-27h42v10h-21c-1.6543,0-3,1.3457-3,3v15H10ZM55,54c0,.55127-.44873,1-1,1h-24c-.55127,0-1-.44873-1-1v-24c0-.55127.44873-1,1-1h24c.55127,0,1,.44873,1,1v24Z"/>
</svg>