<?xml version="1.0" encoding="UTF-8"?>
<svg id="Outline" xmlns="http://www.w3.org/2000/svg" version="1.1" viewBox="0 0 64 64">
  <!-- Generator: Adobe Illustrator 29.0.0, SVG Export Plug-In . SVG Version: 2.1.0 Build 186)  -->
  <path d="M48.76765,50.51999c5.26001-4.73999,8.25-11.44,8.25-18.53998,0-13.79004-11.21002-25-25-25-7.09998,0-13.79999,2.98999-18.53998,8.25l-1.07001-1.08002c-.39001-.39001-1.03003-.39001-1.42004,0-.38995.39001-.38995,1.02002,0,1.40997l.60004.60004c-5.60999,6.26001-6.17999,15.52997-1.23999,22.44,4.15997,5.83002,9.21997,10.89001,15.04999,15.04999,3.15997,2.27002,6.82001,3.37,10.46002,3.37,4.31,0,8.58997-1.57001,11.97998-4.60999l.58002.58996c.36519.37145,1.02226.37782,1.41998,0,.39001-.39996.39001-1.02997,0-1.41998l-1.07001-1.06ZM26.55763,52.03c-5.64996-4.03998-10.54999-8.94-14.58997-14.59003-4.37-6.10999-3.88-14.31,1.02997-19.87l8.73999,8.73999-3.65997,3.65002c-.58002.58002-.89001,1.34998-.89001,2.16003,0,.81995.31,1.58997.89001,2.16998l11.63,11.63c.58002.57996,1.34998.88995,2.16998.88995.81,0,1.58002-.31,2.16003-.88995l3.64996-3.66003,8.73999,8.73999c-5.56,4.91003-13.75995,5.39001-19.87,1.03003ZM35.72768,40.30002l.54999.54999-3.66003,3.65997c-.39996.40002-1.08997.40002-1.48999,0l-11.64001-11.63995c-.19995-.20001-.29999-.46002-.29999-.75,0-.28003.10004-.54004.29999-.74005l3.66003-3.65997.56.57001c.88162.89737,2.35741-.4827,1.41998-1.41998l-7.39996-7.40002c3.59998-4.13,8.75995-6.48999,14.28998-6.48999,10.47998,0,19,8.51996,19,19,0,5.52997-2.35999,10.69-6.48999,14.28998l-7.39001-7.39001c-.39001-.38995-1.02002-.38995-1.40997,0-.39001.39001-.39001,1.03003,0,1.42004ZM47.35768,49.10001l-1.41003-1.41003c4.51001-3.97998,7.07001-9.63995,7.07001-15.70996,0-11.58002-9.41998-21-21-21-6.07001,0-11.72998,2.56-15.71002,7.07001l-1.40997-1.41003c4.35999-4.88,10.54999-7.65997,17.12-7.65997,12.67999,0,23,10.32001,23,23,0,6.57001-2.78003,12.76001-7.65997,17.12Z"/>
  <path d="M32.01765,25.98001c0-.55273-.44727-1-1-1h-1.91895l2.1416-2.67773c.50098-.62598.77734-1.41211.77734-2.21484,0-1.51562-1.07617-2.83496-2.50293-3.06738-.87988-.1416-1.76758.10156-2.43945.67383-.67188.57129-1.05762,1.4043-1.05762,2.28613,0,.55273.44727,1,1,1,.55261,0,.9998-.44707,1-.99963.00022-.62065.56876-1.089,1.1748-.98572.46289.0752.8252.55469.8252,1.09277,0,.34961-.12012.69238-.33887.96484l-3.44238,4.30273c-.24023.30078-.28613.71191-.12012,1.05859.16699.3457.5166.56641.90137.56641h4c.55273,0,1-.44727,1-1Z"/>
  <path d="M34.01765,22.98001h3v3c0,.55273.44727,1,1,1s1-.44727,1-1v-8c0-.55273-.44727-1-1-1s-1,.44727-1,1v3h-2v-3c0-.55273-.44727-1-1-1s-1,.44727-1,1v4c0,.55273.44727,1,1,1Z"/>
  <path d="M44.78442,39.91497c.48268.13049,1.04311-.05067,1.20296-.69277l2-8c.0752-.29883.00781-.61523-.18164-.85742-.18945-.24316-.48047-.38477-.78809-.38477h-4c-.55273,0-1,.44727-1,1s.44727,1,1,1h2.71875l-1.68848,6.75781c-.15113.60452.25381,1.04665.7365,1.17714Z"/>
  <path d="M46.72469,22.27298c-.39062-.39062-1.02344-.39062-1.41406,0l-14,14c-.39047.39047-.39062,1.02294-.00046,1.4136.3802.38069,1.03711.37787,1.41453.00046l14-14c.39062-.39062.39062-1.02344,0-1.41406Z"/>
</svg>