<?xml version="1.0" encoding="UTF-8"?>
<svg id="Outline" xmlns="http://www.w3.org/2000/svg" version="1.1" viewBox="0 0 64 64">
  <!-- Generator: Adobe Illustrator 29.3.1, SVG Export Plug-In . SVG Version: 2.1.0 Build 151)  -->
  <path d="M50,19h-2c0-2.26001-1.26001-4.23004-3.10999-5.25.69-.72003,1.10999-1.67999,1.10999-2.75,0-2.21002-1.78998-4-4-4s-4,1.78998-4,4c0,1.07001.41998,2.02997,1.10999,2.75-.84998.46997-1.57996,1.14001-2.10999,1.94-.53003-.79999-1.26001-1.47003-2.10999-1.94.69-.72003,1.10999-1.67999,1.10999-2.75,0-2.21002-1.78998-4-4-4s-4,1.78998-4,4c0,1.07001.41998,2.02997,1.10999,2.75-.84998.46997-1.57996,1.14001-2.10999,1.94-.53003-.79999-1.26001-1.47003-2.10999-1.94.69-.72003,1.10999-1.67999,1.10999-2.75,0-2.21002-1.78998-4-4-4s-4,1.78998-4,4c0,1.07001.41998,2.02997,1.10999,2.75-1.84998,1.01996-3.10999,2.98999-3.10999,5.25h-2c-.54999,0-1,.45001-1,1v4c0,.0199.00995.0299.01001.0498.00079.25103.17357.54483.34998.72016l11.64001,9.70001v5.40002c-1.84998,1.82001-3,4.33997-3,7.13,0,5.51001,4.48999,10,10,10s10-4.48999,10-10c0-2.79004-1.15002-5.31-3-7.13v-5.40002l11.64001-9.70001c.00998-.00992.0199-.02986.03982-.0399.20409-.10288.28985-.47718.31016-.68007,0-.02002.01001-.03003.01001-.04999v-4c0-.54999-.45001-1-1-1ZM42,9c1.09998,0,2,.89996,2,2,0,1.09998-.90002,2-2,2s-2-.90002-2-2c0-1.10004.90002-2,2-2ZM42,15c2.21002,0,4,1.78998,4,4h-8c0-2.21002,1.78998-4,4-4ZM32,9c1.09998,0,2,.89996,2,2,0,1.09998-.90002,2-2,2s-2-.90002-2-2c0-1.10004.90002-2,2-2ZM32,15c2.21002,0,4,1.78998,4,4h-8c0-2.21002,1.78998-4,4-4ZM22,9c1.09998,0,2,.89996,2,2,0,1.09998-.90002,2-2,2s-2-.90002-2-2c0-1.10004.90002-2,2-2ZM22,15c2.21002,0,4,1.78998,4,4h-8c0-2.21002,1.78998-4,4-4ZM40,47c0,4.40997-3.59003,8-8,8s-8-3.59003-8-8,3.59003-8,8-8,8,3.58997,8,8ZM27,38.34998v-3.34998h10v3.34998c-1.46997-.84998-3.17999-1.34998-5-1.34998s-3.53003.5-5,1.34998ZM37.64001,33h-11.28003l-9.59998-8h30.47998l-9.59998,8ZM49,23H15v-2h34v2Z"/>
  <path d="M31.23633,45h2.76367c.55273,0,1-.44775,1-1s-.44727-1-1-1h-1v-1c0-.55225-.44727-1-1-1s-1,.44775-1,1v1.02393c-1.12109.11981-2,1.05988-2,2.21191,0,.85254.47363,1.61914,1.23633,2.00049l2.63281,1.31641c.08105.04004.13086.12109.13086.21143,0,.12988-.10645.23584-.23633.23584h-2.76367c-.55273,0-1,.44775-1,1s.44727,1,1,1h1v1c0,.55225.44727,1,1,1s1-.44775,1-1v-1.02393c1.12109-.11981,2-1.05988,2-2.21191,0-.85254-.47363-1.61914-1.23633-2.00049l-2.63281-1.31641c-.08105-.04004-.13086-.12109-.13086-.21143,0-.12988.10645-.23584.23633-.23584Z"/>
</svg>