<?xml version="1.0" encoding="UTF-8"?>
<svg id="Outline" xmlns="http://www.w3.org/2000/svg" version="1.1" viewBox="0 0 64 64">
  <!-- Generator: Adobe Illustrator 29.5.1, SVG Export Plug-In . SVG Version: 2.1.0 Build 141)  -->
  <path d="M54,21h-1v-7c0-1.65-1.35-3-3-3H14c-1.65,0-3,1.35-3,3v7h-1c-1.65,0-3,1.35-3,3v16c0,1.65,1.35,3,3,3h1v7c0,1.65,1.35,3,3,3h36c1.65,0,3-1.35,3-3v-7h1c1.65,0,3-1.35,3-3v-16c0-1.65-1.35-3-3-3ZM11,41h-1c-.55,0-1-.45-1-1v-16c0-.55.45-1,1-1h1v18ZM51,50c0,.55-.45,1-1,1H14c-.55,0-1-.45-1-1V14c0-.55.45-1,1-1h36c.55,0,1,.45,1,1v36ZM55,40c0,.55-.45,1-1,1h-1v-18h1c.55,0,1,.45,1,1v16Z"/>
  <path d="M23,31c4.411,0,8-3.589,8-8s-3.589-8-8-8-8,3.589-8,8,3.589,8,8,8ZM23,17c3.309,0,6,2.691,6,6s-2.691,6-6,6-6-2.691-6-6,2.691-6,6-6Z"/>
  <path d="M41,15c-4.411,0-8,3.589-8,8s3.589,8,8,8,8-3.589,8-8-3.589-8-8-8ZM41,29c-3.309,0-6-2.691-6-6s2.691-6,6-6,6,2.691,6,6-2.691,6-6,6Z"/>
  <circle cx="21" cy="26" r="1"/>
  <circle cx="20" cy="23" r="1"/>
  <circle cx="24" cy="24" r="1"/>
  <circle cx="43" cy="26" r="1"/>
  <circle cx="44" cy="23" r="1"/>
  <circle cx="40" cy="24" r="1"/>
  <path d="M23,33c-4.411,0-8,3.589-8,8s3.589,8,8,8,8-3.589,8-8-3.589-8-8-8ZM23,47c-3.309,0-6-2.691-6-6s2.691-6,6-6,6,2.691,6,6-2.691,6-6,6Z"/>
  <path d="M41,33c-4.411,0-8,3.589-8,8s3.589,8,8,8,8-3.589,8-8-3.589-8-8-8ZM41,47c-3.309,0-6-2.691-6-6s2.691-6,6-6,6,2.691,6,6-2.691,6-6,6Z"/>
  <circle cx="21" cy="38" r="1"/>
  <circle cx="20" cy="41" r="1"/>
  <circle cx="24" cy="40" r="1"/>
  <circle cx="43" cy="38" r="1"/>
  <circle cx="44" cy="41" r="1"/>
  <circle cx="40" cy="40" r="1"/>
  <path d="M35,32c0-1.654-1.346-3-3-3s-3,1.346-3,3,1.346,3,3,3,3-1.346,3-3ZM32,33c-.552,0-1-.448-1-1s.448-1,1-1,1,.448,1,1-.448,1-1,1Z"/>
</svg>