<?xml version="1.0" encoding="UTF-8"?>
<svg id="Outline" xmlns="http://www.w3.org/2000/svg" version="1.1" viewBox="0 0 64 64">
  <!-- Generator: Adobe Illustrator 29.5.1, SVG Export Plug-In . SVG Version: 2.1.0 Build 141)  -->
  <path d="M49.46,31.32l1.43-2.87c.15-.29.14-.61,0-.89v-.01c-.01-.02-.02-.04-.03-.06,0,0-.01-.01-.01-.02,0,0-.01,0-.01-.01-1.2-2.32-3.38-3.89-5.9-4.33-.43-3.45-3.37-6.13-6.94-6.13h-.09c.05-.34.09-.67.09-1,0-3.04-2.36-5-6-5s-6,1.96-6,5c0,.33.04.66.09,1h-.09c-3.57,0-6.51,2.68-6.94,6.13-2.52.44-4.7,2.01-5.9,4.33,0,.01-.01.01-.01.01,0,.01-.01.02-.01.02-.01.02-.02.04-.03.06v.01c-.14.28-.15.6,0,.89l1.43,2.87c-4.33,1.1-7.54,5.02-7.54,9.68,0,.55.45,1,1,1h4c.55,0,1-.45,1-1,0-1.86,1.28-3.41,3-3.86v12.86c0,1.65,1.35,3,3,3h26c1.65,0,3-1.35,3-3v-12.86c1.72.45,3,2,3,3.86,0,.55.45,1,1,1h4c.55,0,1-.45,1-1,0-4.66-3.21-8.58-7.54-9.68ZM32,13c1.2,0,4,.29,4,3,0,.32-.05.66-.13,1h-7.74c-.08-.34-.13-.68-.13-1,0-2.71,2.8-3,4-3ZM26,19h12c2.42,0,4.43,1.72,4.9,4h-21.8c.47-2.28,2.48-4,4.9-4ZM20.47,25h23.06c1.78,0,3.42.74,4.58,2H15.89c1.16-1.26,2.8-2,4.58-2ZM16,35.08c-2.51.43-4.49,2.41-4.92,4.92h-2.02c.45-3.61,3.33-6.49,6.94-6.94v2.02ZM46,50c0,.55-.45,1-1,1h-26c-.55,0-1-.45-1-1v-17h28v17ZM47.38,31h-30.76l-1-2h32.76l-1,2ZM52.92,40c-.43-2.51-2.41-4.49-4.92-4.92v-2.02c3.61.45,6.49,3.33,6.94,6.94h-2.02Z"/>
</svg>