<?xml version="1.0" encoding="UTF-8"?>
<svg id="Outline" xmlns="http://www.w3.org/2000/svg" version="1.1" viewBox="0 0 64 64">
  <!-- Generator: Adobe Illustrator 29.5.1, SVG Export Plug-In . SVG Version: 2.1.0 Build 141)  -->
  <path d="M51.083,15.863c-.355-.42-.985-.475-1.409-.117-.421.357-.474.988-.116,1.41,3.51,4.145,5.442,9.416,5.442,14.844,0,12.682-10.317,23-23,23s-23-10.318-23-23,10.317-23,23-23c5.427,0,10.698,1.933,14.844,5.443.424.358,1.054.304,1.409-.117.357-.421.305-1.052-.116-1.409-4.507-3.815-10.237-5.917-16.137-5.917-13.785,0-25,11.215-25,25s11.215,25,25,25,25-11.215,25-25c0-5.9-2.102-11.631-5.917-16.137Z"/>
  <path d="M29,38c-1.654,0-3,1.346-3,3s1.346,3,3,3,3-1.346,3-3-1.346-3-3-3ZM29,42c-.552,0-1-.449-1-1s.448-1,1-1,1,.449,1,1-.448,1-1,1Z"/>
  <path d="M50.66,30.78c.22-.57.34-1.17.34-1.78,0-1.88-1.05-3.49-2.58-4.35-2.83-6.35-9.03-10.47-15.99-10.63l-2.72-2.73c-.39-.39-1.03-.39-1.42,0l-4.91,4.91c-5.79,3.16-9.38,9.2-9.38,15.8,0,2.91.71,5.77,2.04,8.31-.02.23-.04.46-.04.69,0,5.51,4.49,10,10,10,1.62,0,3.14-.39,4.49-1.08.5.04,1,.08,1.51.08,5.56,0,10.85-2.62,14.24-7.01,3.75-.13,6.76-3.21,6.76-6.99,0-2-.86-3.9-2.34-5.22ZM26.92,17.62c-.15-.38-.52-.62-.92-.62h-.59l3.59-3.59,2.29,2.3,1.3,1.29h-.59c-.4,0-.77.24-.92.62-.16.37-.07.8.21,1.09l2.3,2.29h-.59c-.38,0-.73.22-.9.57-.17.34-.12.75.12,1.05l2.7,3.38h-11.84l2.7-3.38c.24-.3.29-.71.12-1.05-.17-.35-.52-.57-.9-.57h-.59l2.3-2.29c.28-.29.37-.72.21-1.09ZM23.86,48.7c-1.3-.36-2.47-1.04-3.42-1.96.38-.46.94-.74,1.56-.74,1.1,0,2,.9,2,2,0,.24-.05.48-.14.7ZM33.17,47.95c1.75-1.8,2.83-4.25,2.83-6.95,0-2.74-1.08-5.28-3.04-7.16-.4-.38-1.03-.37-1.41.03-.38.4-.37,1.03.03,1.41,1.56,1.5,2.42,3.53,2.42,5.72,0,4.41-3.59,8-8,8-.05,0-.09-.01-.14-.01.08-.32.14-.65.14-.99,0-2.21-1.79-4-4-4-1.08,0-2.08.44-2.82,1.17-.74-1.22-1.18-2.64-1.18-4.17,0-1.82.62-3.49,1.64-4.84.71,1.11,1.94,1.84,3.36,1.84,2.21,0,4-1.79,4-4,0-.32-.05-.63-.12-.93.52.06,1.05.15,1.55.31.53.17,1.09-.12,1.26-.64.17-.53-.12-1.09-.64-1.26-.99-.32-2.01-.48-3.05-.48-4.11,0-7.65,2.5-9.18,6.05-.54-1.62-.82-3.32-.82-5.05,0-5.23,2.54-10.06,6.73-13.04.09.02.18.04.27.04h.59l-2.3,2.29c-.28.29-.37.72-.21,1.09.15.38.52.62.92.62h.92l-2.7,3.38c-.24.3-.29.71-.12,1.05.17.35.52.57.9.57h16c.38,0,.73-.22.9-.57.17-.34.12-.75-.12-1.05l-2.7-3.38h.92c.4,0,.77-.24.92-.62.16-.37.07-.8-.21-1.09l-2.3-2.29h.59c.4,0,.77-.24.92-.62.16-.37.07-.8-.21-1.09l-1.07-1.07c4.71.79,8.83,3.64,11.21,7.79-2.68.08-4.85,2.28-4.85,4.99,0,.61.12,1.21.34,1.78-1.48,1.32-2.34,3.22-2.34,5.22,0,3.13,2.06,5.78,4.9,6.68-2.75,3.06-6.61,4.97-10.73,5.27ZM21.12,34.67c1.05-.81,2.3-1.36,3.66-1.57.14.28.22.58.22.9,0,1.1-.9,2-2,2-.87,0-1.61-.55-1.88-1.33ZM46,41c-2.76,0-5-2.24-5-5,0-1.64.81-3.18,2.16-4.11.43-.3.56-.89.29-1.34-.3-.49-.45-1.01-.45-1.55,0-1.65,1.35-3,3-3,.41,0,.8.08,1.16.23q.01.01.02.01c1.07.46,1.82,1.52,1.82,2.76,0,.54-.15,1.06-.45,1.55-.27.45-.14,1.04.29,1.34,1.35.93,2.16,2.47,2.16,4.11,0,2.76-2.24,5-5,5Z"/>
  <circle cx="46" cy="38" r="1"/>
  <circle cx="46" cy="34" r="1"/>
</svg>