<?xml version="1.0" encoding="UTF-8"?>
<svg id="Outline" xmlns="http://www.w3.org/2000/svg" version="1.1" viewBox="0 0 48 48">
  <!-- Generator: Adobe Illustrator 29.5.1, SVG Export Plug-In . SVG Version: 2.1.0 Build 141)  -->
  <path d="M42.56,26.17c-.27-.19-.62-.22-.93-.1l-3.01,1.21.29-2.44c1.21-.38,2.09-1.5,2.09-2.84,0-1.33-.88-2.45-2.09-2.84-.4-2.36-2.44-4.16-4.91-4.16h-7v-3.38c.61-.71,1-1.61,1-2.62,0-2.21-1.79-4-4-4s-4,1.79-4,4c0,1.01.39,1.91,1,2.62v3.38h-7c-2.47,0-4.51,1.8-4.91,4.16-1.21.39-2.09,1.51-2.09,2.84,0,1.34.88,2.46,2.09,2.84l.29,2.44-3.01-1.21c-.31-.12-.66-.09-.93.1-.28.19-.44.5-.44.83v1.82c0,3.1,2.3,5.67,5.29,6.11l.64,5.42c.18,1.51,1.46,2.65,2.98,2.65h20.18c1.52,0,2.8-1.14,2.98-2.65l.64-5.42c2.99-.44,5.29-3.01,5.29-6.11v-1.82c0-.33-.16-.64-.44-.83ZM24,7c1.1,0,2,.9,2,2s-.9,2-2,2-2-.9-2-2,.9-2,2-2ZM25,12.86v2.14h-2v-2.14c.32.08.65.14,1,.14s.68-.06,1-.14ZM14,17h20c1.3,0,2.42.84,2.83,2H11.17c.41-1.16,1.53-2,2.83-2ZM7,28.82v-.34l2.65,1.06.39,3.28c-1.75-.5-3.04-2.09-3.04-4ZM35.08,40.12c-.06.5-.48.88-.99.88H13.91c-.51,0-.93-.38-.99-.88l-1.79-15.12h25.74l-1.79,15.12ZM10,23c-.55,0-1-.45-1-1s.45-1,1-1h28c.55,0,1,.45,1,1s-.45,1-1,1H10ZM41,28.82c0,1.91-1.29,3.5-3.04,4l.39-3.28,2.65-1.06v.34Z"/>
</svg>