<?xml version="1.0" encoding="UTF-8"?>
<svg id="Outline" xmlns="http://www.w3.org/2000/svg" version="1.1" viewBox="0 0 64 64">
  <!-- Generator: Adobe Illustrator 29.3.1, SVG Export Plug-In . SVG Version: 2.1.0 Build 151)  -->
  <path d="M51.98999,46.03998c0-.02002.01001-.02997.01001-.03998V10c0-1.65002-1.34998-3-3-3h-31c-3.31,0-6,2.69-6,6v38c0,3.31,2.69,6,6,6h33c.33002,0,.64001-.16003.83002-.44.17999-.27002.21997-.62.09998-.92999-1.20001-2.98999-1.20001-6.27002,0-9.26001.03998-.10999.06-.22003.06-.33002ZM14,13c0-2.21002,1.78998-4,4-4v36c-1.53998,0-2.94.58997-4,1.53998V13ZM49.59998,55h-31.59998c-2.21002,0-4-1.79004-4-4s1.78998-4,4-4h3v5c0,.31.14001.59998.38.78998.25.19.56.25.85999.17999l3.76001-.94,3.76001.94c.07997.02001.15988.03002.23985.03003.51566.00008,1.00014-.42281,1.00014-1v-5h18.59998c-.75995,2.62-.75995,5.38,0,8ZM23,50.71997v-3.71997h6v3.71997l-2.76001-.69c-.08002-.01996-.15997-.02997-.23999-.02997s-.15997.01001-.23999.02997l-2.76001.69ZM50,45h-30V9h29c.54999,0,1,.45001,1,1v35Z"/>
  <path d="M25.2832,25.84814c.98096,1.84863,1.09912,4.00293.31689,5.9585l-.27734.69354c-.20349.29999-.32275.63055-.32275.99982,0,.00354.00146.00659.00146.01013.00018.01788.00635.03418.00751.052.09741,2.70953,6.30585,3.43787,9.99103,3.43787s9.89362-.72833,9.99103-3.43787c.00116-.01782.00732-.03412.00751-.052,0-.00354.00146-.00659.00146-.01013,0-.36945-.11938-.70013-.323-1.00018l-.27759-.69366c-.78174-1.95508-.66357-4.10938.31738-5.95801,2.25732-1.14307,3.54932-3.55127,3.2373-6.10107-.32568-2.65479-2.4917-4.83887-5.15088-5.19336-.57318-.07666-1.1427-.06372-1.70422.02203-1.20135-2.1311-3.48309-3.57574-6.099-3.57574s-4.89764,1.44464-6.099,3.57574c-.56152-.08575-1.13104-.09869-1.70422-.02203-2.65918.35449-4.8252,2.53857-5.15088,5.19336-.31201,2.5498.97998,4.95801,3.2373,6.10107ZM27.07397,33.50769l.00854-.02142c.57056-.51752,3.20984-1.48627,7.91748-1.48627s7.34668.96875,7.91736,1.48621l.00861.02155c-.55768.51599-3.20154,1.49225-7.92596,1.49225s-7.36841-.97626-7.92603-1.49231ZM24.03125,19.99023c.21631-1.76514,1.65869-3.21777,3.43018-3.4541.2348-.03162.46783-.02869.70013-.01923-.1037.47852-.16156.97394-.16156,1.48309,0,.77148.12256,1.51855.36475,2.2207.1792.52197.74707.79834,1.271.61963.52246-.17969.7998-.74902.61963-1.271-.16943-.49219-.25537-1.02002-.25537-1.56934,0-2.75684,2.24316-5,5-5s5,2.24316,5,5c0,.54932-.08594,1.07715-.25537,1.56934-.18018.52197.09717,1.09131.61967,1.27101.51626.17751,1.09315-.10269,1.27095-.61964.24219-.70215.36475-1.44922.36475-2.2207,0-.50909-.0578-1.00439-.1615-1.48291.23242-.0094.46545-.01239.70007.01904,1.77148.23633,3.21387,1.68896,3.43018,3.4541.21826,1.78174-.73389,3.45947-2.36914,4.1748-.19385.08447-.35596.22852-.46289.41113-1.13635,1.94318-1.49194,4.17902-1.06573,6.33514-.60315-.19244-1.26587-.34668-1.95172-.47192-.29865-1.6546-.00067-3.3927.85388-4.85443.27881-.47705.11816-1.08936-.3584-1.36816-.47705-.28027-1.08984-.11816-1.36816.3584-.98456,1.68402-1.3855,3.65509-1.18048,5.57764-1.08942-.10767-2.15533-.15283-3.0661-.15283s-1.97662.04517-3.06604.15283c.20502-1.92255-.19598-3.89362-1.18054-5.57764-.27881-.47607-.89062-.63721-1.36816-.3584-.47656.27881-.63721.89111-.3584,1.36816.85455,1.46173,1.15253,3.19983.85388,4.85443-.68591.12531-1.34869.27948-1.9519.47198.42639-2.15631.0708-4.39209-1.06555-6.33521-.10693-.18262-.26904-.32666-.46289-.41113-1.63525-.71533-2.5874-2.39307-2.36914-4.1748Z"/>
</svg>