<?xml version="1.0" encoding="UTF-8"?>
<svg id="Outline" xmlns="http://www.w3.org/2000/svg" version="1.1" viewBox="0 0 64 64">
  <!-- Generator: Adobe Illustrator 29.3.1, SVG Export Plug-In . SVG Version: 2.1.0 Build 151)  -->
  <path d="M48,7H16c-1.65002,0-3,1.34998-3,3v32c0,.03998.02002.07001.02002.10999,0,.03003-.01001.06,0,.09003l2,10c.08997.45996.5.79999.97998.79999h2v3c0,.54999.45001,1,1,1h4c.54999,0,1-.45001,1-1v-3h16v3c0,.54999.45001,1,1,1h4c.54999,0,1-.45001,1-1v-3h2c.47998,0,.89001-.34003.97998-.79999l2-10c.01001-.03003,0-.06,0-.09003,0-.03998.02002-.07001.02002-.10999V10c0-1.65002-1.34998-3-3-3ZM19,9h26v15c0,7.16998-5.83002,13-13,13s-13-5.83002-13-13v-15ZM22,55h-2v-2h2v2ZM44,55h-2v-2h2v2ZM44,51h-24v-3c0-.54999.45001-1,1-1h22c.54999,0,1,.45001,1,1v3ZM47.17999,51h-1.17999v-3c0-1.65002-1.34998-3-3-3h-22c-1.65002,0-3,1.34998-3,3v3h-1.17999l-1.60004-8h33.56006l-1.60004,8ZM49,41H15V10c0-.54999.45001-1,1-1h1v15c0,8.26996,6.72998,15,15,15s15-6.73004,15-15v-15h1c.54999,0,1,.45001,1,1v31Z"/>
  <path d="M32,35c6.06543,0,11-4.93457,11-11s-4.93457-11-11-11-11,4.93457-11,11,4.93457,11,11,11ZM32,15c4.9624,0,9,4.0376,9,9s-4.0376,9-9,9-9-4.0376-9-9,4.0376-9,9-9Z"/>
  <path d="M38,25c.55225,0,1-.44775,1-1s-.44775-1-1-1h-12c-.55225,0-1,.44775-1,1s.44775,1,1,1h12Z"/>
  <path d="M28.68994,20h6.62012c.55225,0,1-.44775,1-1s-.44775-1-1-1h-6.62012c-.55225,0-1,.44775-1,1s.44775,1,1,1Z"/>
  <path d="M35.31006,28h-6.62012c-.55225,0-1,.44775-1,1s.44775,1,1,1h6.62012c.55225,0,1-.44775,1-1s-.44775-1-1-1Z"/>
  <path d="M22,13h2c.55225,0,1-.44775,1-1s-.44775-1-1-1h-2c-.55225,0-1,.44775-1,1s.44775,1,1,1Z"/>
  <path d="M40,13h2c.55225,0,1-.44775,1-1s-.44775-1-1-1h-2c-.55225,0-1,.44775-1,1s.44775,1,1,1Z"/>
</svg>