<?xml version="1.0" encoding="UTF-8"?>
<svg id="Outline" xmlns="http://www.w3.org/2000/svg" version="1.1" viewBox="0 0 64 64">
  <!-- Generator: Adobe Illustrator 29.5.1, SVG Export Plug-In . SVG Version: 2.1.0 Build 141)  -->
  <path d="M52,31H12c-.552,0-1,.448-1,1,0,11.58,9.42,21,21,21s21-9.42,21-21c0-.552-.448-1-1-1ZM50.974,33c-.035.677-.113,1.343-.217,2H13.243c-.105-.657-.182-1.323-.217-2h37.948ZM20.84,47.344c2.852-2.764,6.847-4.344,11.16-4.344s8.308,1.58,11.16,4.344c-3.138,2.289-6.988,3.656-11.16,3.656s-8.022-1.368-11.16-3.656ZM44.719,46.081c-3.233-3.229-7.799-5.081-12.719-5.081s-9.486,1.852-12.719,5.081c-2.655-2.4-4.628-5.532-5.599-9.081h36.635c-.97,3.549-2.944,6.68-5.599,9.081Z"/>
  <path d="M57,16c0-1.65-1.35-3-3-3h-5.79c-4.53-3.86-10.26-6-16.21-6s-11.68,2.14-16.21,6h-5.79c-1.65,0-3,1.35-3,3v2c0,2.01.55,3.89,1.5,5.52-.98,2.71-1.5,5.56-1.5,8.48,0,13.79,11.21,25,25,25s25-11.21,25-25c0-2.92-.52-5.77-1.5-8.48.95-1.63,1.5-3.51,1.5-5.52v-2ZM32,9c4.63,0,9.11,1.42,12.91,4h-6.91c-1.46,0-2.68,1.05-2.94,2.43-2.02-.37-4.1-.37-6.12,0-.26-1.38-1.48-2.43-2.94-2.43h-6.91c3.8-2.58,8.28-4,12.91-4ZM32,55c-12.68,0-23-10.32-23-23,0-2.23.33-4.42.95-6.52,2.01,2.16,4.87,3.52,8.05,3.52,4.66,0,8.75-2.88,10.33-7.23,2.38-.83,4.96-.83,7.34,0,1.58,4.35,5.67,7.23,10.33,7.23,3.18,0,6.04-1.36,8.05-3.52.62,2.1.95,4.29.95,6.52,0,12.68-10.32,23-23,23ZM55,18c0,4.96-4.04,9-9,9-3.95,0-7.4-2.53-8.59-6.3-.09-.29-.3-.52-.58-.63-1.56-.61-3.19-.92-4.83-.92s-3.27.31-4.83.92c-.28.11-.49.34-.58.63-1.19,3.77-4.64,6.3-8.59,6.3-4.96,0-9-4.04-9-9v-2c0-.55.45-1,1-1h16c.55,0,1,.45,1,1v.65c0,.31.14.6.39.79.24.19.56.26.86.18,2.45-.62,5.05-.62,7.5,0,.3.08.62.01.86-.18.25-.19.39-.48.39-.79v-.65c0-.55.45-1,1-1h16c.55,0,1,.45,1,1v2Z"/>
  <path d="M12.857,20.057l1.35-1.35c.391-.391.391-1.023,0-1.414s-1.023-.391-1.414,0l-1.35,1.35c-.391.391-.391,1.023,0,1.414.369.369,1.016.398,1.414,0Z"/>
  <path d="M13.873,23.627c.388.388,1.026.388,1.414,0l4.92-4.92c.391-.391.391-1.023,0-1.414s-1.023-.391-1.414,0l-4.92,4.92c-.391.391-.391,1.023,0,1.414Z"/>
  <path d="M51.143,20.057c.371.371,1.018.397,1.414,0,.391-.391.391-1.023,0-1.414l-1.35-1.35c-.391-.391-1.023-.391-1.414,0s-.391,1.023,0,1.414l1.35,1.35Z"/>
  <path d="M48.713,23.627c.363.363,1.023.391,1.414,0,.391-.391.391-1.023,0-1.414l-4.92-4.92c-.391-.391-1.023-.391-1.414,0s-.391,1.023,0,1.414c0,0,4.892,4.892,4.92,4.92Z"/>
</svg>