<?xml version="1.0" encoding="UTF-8"?>
<svg id="Outline" xmlns="http://www.w3.org/2000/svg" version="1.1" viewBox="0 0 64 64">
  <!-- Generator: Adobe Illustrator 29.5.1, SVG Export Plug-In . SVG Version: 2.1.0 Build 141)  -->
  <path d="M44.12,17.01c-.55-.09-1.06.28-1.15.83-.11.67-.69,1.16-1.37,1.16-.77,0-1.4-.63-1.4-1.4v-7.2c0-.37.15-.73.4-.98.27-.27.63-.42,1-.42.68,0,1.26.49,1.37,1.16.09.55.6.92,1.15.83.55-.09.92-.61.83-1.15-.28-1.65-1.68-2.84-3.35-2.84-.9,0-1.75.35-2.42,1-.28.3-.51.64-.67,1-1.83-.64-4.08-1-6.51-1s-4.68.36-6.51,1c-.53-1.17-1.71-2-3.09-2-1.87,0-3.4,1.53-3.4,3.4v7.2c0,1.87,1.53,3.4,3.4,3.4,1.38,0,2.56-.83,3.09-2,1.57.55,3.46.9,5.51.98v2.61l-2.71,2.7c-.39.39-.39,1.03,0,1.42l2.3,2.29-2.3,2.29c-.39.39-.39,1.03,0,1.42l2.3,2.29-2.3,2.29c-.39.39-.39,1.03,0,1.42l2.71,2.7v1.59h-1.83c-.83,0-1.64.35-2.2.97-.57.61-.86,1.45-.79,2.28l.67,8c.13,1.54,1.44,2.75,2.99,2.75h4.32c1.55,0,2.86-1.21,2.99-2.75l.67-8c.07-.83-.22-1.67-.79-2.28-.56-.62-1.37-.97-2.2-.97h-1.83v-2c0-.27-.11-.52-.29-.71l-2.3-2.29,2.3-2.29c.39-.39.39-1.03,0-1.42l-2.3-2.29,2.3-2.29c.39-.39.39-1.03,0-1.42l-2.3-2.29,2.3-2.29c.18-.19.29-.44.29-.71v-3.02c2.05-.08,3.94-.43,5.51-.98.53,1.17,1.71,2,3.09,2,1.67,0,3.07-1.19,3.35-2.84.09-.54-.28-1.06-.83-1.15ZM23.8,17.6c0,.77-.63,1.4-1.4,1.4s-1.4-.63-1.4-1.4v-7.2c0-.77.63-1.4,1.4-1.4s1.4.63,1.4,1.4v7.2ZM34.83,45c.28,0,.54.11.73.32.19.21.29.48.26.76l-.66,8c-.05.52-.48.92-1,.92h-4.32c-.52,0-.95-.4-1-.92l-.66-8c-.03-.28.07-.55.26-.76.19-.21.45-.32.73-.32h5.66ZM38.2,16.98c-1.65.65-3.86,1.02-6.2,1.02s-4.55-.37-6.2-1.02v-5.96c1.65-.65,3.86-1.02,6.2-1.02s4.55.37,6.2,1.02v5.96Z"/>
  <circle cx="44" cy="14" r="1"/>
</svg>