<?xml version="1.0" encoding="UTF-8"?>
<svg id="Outline" xmlns="http://www.w3.org/2000/svg" version="1.1" viewBox="0 0 64 64">
  <!-- Generator: Adobe Illustrator 29.5.1, SVG Export Plug-In . SVG Version: 2.1.0 Build 141)  -->
  <path d="M54.71,34.29c-2.91-2.9-7.08-3.91-10.87-2.88.04-.44.08-.89.1-1.36.03-.55-.4-1.02-.95-1.05-.52-.03-1.02.4-1.05.95-.04.81-.11,1.55-.21,2.28-.44.22-.87.47-1.29.75-4.06,2.8-7,6.84-8.44,11.43-1.44-4.59-4.38-8.63-8.44-11.43-.42-.28-.85-.52-1.29-.75-.17-1.35-.27-2.76-.27-4.23,0-10.3,4.58-19,10-19,4.27,0,8.19,5.43,9.52,13.2.1.54.61.91,1.16.82.54-.1.91-.61.82-1.16-1.54-8.89-6.15-14.86-11.5-14.86-6.73,0-12,9.22-12,21,0,1.17.07,2.31.18,3.42-3.8-1.04-7.98-.04-10.89,2.87-.3.31-.38.78-.18,1.17.2.38.63.59,1.05.53,1.3-.22,2.57.1,3.61.9,1.03.8,1.67,1.96,1.78,3.26l.19,2c.77,8.47,7.76,14.85,16.26,14.85s15.49-6.38,16.26-14.85l.19-2c.11-1.3.75-2.46,1.78-3.26,1.04-.8,2.31-1.12,3.61-.9.42.06.85-.15,1.05-.53.2-.39.12-.86-.18-1.17ZM31,54.97c-7-.48-12.63-5.91-13.27-13l-.18-2c-.17-1.84-1.1-3.54-2.56-4.66-.68-.52-1.45-.91-2.26-1.14,3-1.66,6.76-1.56,9.7.46,5.36,3.69,8.57,9.79,8.57,16.3v4.04ZM49.01,35.31c-1.46,1.12-2.39,2.82-2.56,4.66l-.18,2c-.64,7.09-6.27,12.52-13.27,13v-4.04c0-6.51,3.21-12.61,8.57-16.3,1.59-1.09,3.4-1.62,5.21-1.62,1.56,0,3.1.39,4.49,1.16-.81.23-1.58.62-2.26,1.14Z"/>
  <path d="M28,15h2c.553,0,1-.447,1-1s-.447-1-1-1h-2c-.553,0-1,.447-1,1s.447,1,1,1Z"/>
  <path d="M36,18c.553,0,1-.447,1-1s-.447-1-1-1h-2c-.553,0-1,.447-1,1s.447,1,1,1h2Z"/>
  <path d="M28,21h2c.553,0,1-.447,1-1s-.447-1-1-1h-2c-.553,0-1,.447-1,1s.447,1,1,1Z"/>
  <path d="M34,24c0-.553-.447-1-1-1h-2c-.553,0-1,.447-1,1s.447,1,1,1h2c.553,0,1-.447,1-1Z"/>
  <path d="M26,28c0,.553.447,1,1,1h2c.553,0,1-.447,1-1s-.447-1-1-1h-2c-.553,0-1,.447-1,1Z"/>
  <path d="M30,33h2c.553,0,1-.447,1-1s-.447-1-1-1h-2c-.553,0-1,.447-1,1s.447,1,1,1Z"/>
  <path d="M38,28h-2c-.553,0-1,.447-1,1s.447,1,1,1h2c.553,0,1-.447,1-1s-.447-1-1-1Z"/>
  <path d="M38,20h-2c-.553,0-1,.447-1,1s.447,1,1,1h2c.553,0,1-.447,1-1s-.447-1-1-1Z"/>
  <circle cx="43" cy="26" r="1"/>
</svg>