<?xml version="1.0" encoding="UTF-8"?>
<svg id="Outline" xmlns="http://www.w3.org/2000/svg" version="1.1" viewBox="0 0 64 64">
  <!-- Generator: Adobe Illustrator 29.5.1, SVG Export Plug-In . SVG Version: 2.1.0 Build 141)  -->
  <path d="M32,7c-4.41,0-8,3.59-8,8v24c0,3.35,2.07,6.22,5,7.41v9.59c0,.55.45,1,1,1h4c.55,0,1-.45,1-1v-1c0-.55-.45-1-1-1s-1,.45-1,1h-2v-8.07c.33.04.66.07,1,.07s.67-.03,1-.07v.07c0,.55.45,1,1,1s1-.45,1-1v-.59c2.93-1.19,5-4.06,5-7.41V15c0-4.41-3.59-8-8-8ZM32,9c1.75,0,3.32.76,4.42,1.96-.13.02-.27.04-.42.04h-8c-.17,0-.34.03-.5.05,1.1-1.25,2.71-2.05,4.5-2.05ZM32,45c-1.75,0-3.32-.76-4.42-1.96.13-.02.27-.04.42-.04h8c.17,0,.34-.03.5-.05-1.1,1.25-2.71,2.05-4.5,2.05ZM38,39c0,.07-.01.14-.01.21-.11,1.02-.96,1.79-1.99,1.79h-8c-.53,0-1.05.12-1.53.32-.3-.71-.47-1.5-.47-2.32,0-1.1.9-2,2-2h8c.73,0,1.41-.21,2-.56v2.56ZM38,33c0,1.1-.9,2-2,2h-8c-.73,0-1.41.21-2,.56v-2.56c0-1.1.9-2,2-2h8c.73,0,1.41-.21,2-.56v2.56ZM38,27c0,1.1-.9,2-2,2h-8c-.73,0-1.41.21-2,.56v-2.56c0-1.1.9-2,2-2h8c.73,0,1.41-.21,2-.56v2.56ZM38,21c0,1.1-.9,2-2,2h-8c-.73,0-1.41.21-2,.56v-2.56c0-1.1.9-2,2-2h8c.73,0,1.41-.21,2-.56v2.56ZM36,17h-8c-.73,0-1.41.21-2,.56v-2.56c0-.07.01-.14.01-.21.11-1.02.96-1.79,1.99-1.79h8c.53,0,1.05-.12,1.53-.32.3.71.47,1.5.47,2.32,0,1.1-.9,2-2,2Z"/>
  <circle cx="34" cy="51" r="1"/>
</svg>