<?xml version="1.0" encoding="UTF-8"?>
<svg id="Outline" xmlns="http://www.w3.org/2000/svg" version="1.1" viewBox="0 0 64 64">
  <!-- Generator: Adobe Illustrator 29.5.1, SVG Export Plug-In . SVG Version: 2.1.0 Build 141)  -->
  <path d="M54,20h-21.87l.86-6.88c.04-.28-.05-.57-.24-.78-.19-.22-.46-.34-.75-.34h-8c-.29,0-.56.12-.75.34-.19.21-.28.5-.24.78l.86,6.88h-3.74l.86-6.88c.04-.28-.05-.57-.24-.78-.19-.22-.46-.34-.75-.34h-8c-.29,0-.56.12-.75.34-.19.21-.28.5-.24.78l.86,6.88h-1.87c-1.65,0-3,1.35-3,3v28c0,.55.45,1,1,1h48c.55,0,1-.45,1-1v-28c0-1.65-1.35-3-3-3ZM30.87,14l-.75,6h-4.24l-.75-6h5.74ZM24,22h16v6h-16v-6ZM18.87,14l-.75,6h-4.24l-.75-6h5.74ZM9,23c0-.55.45-1,1-1h12v6h-13v-5ZM9,30h22v16H9v-16ZM55,50H9v-2h46v2ZM55,46h-22v-16h22v16ZM55,28h-13v-6h12c.55,0,1,.45,1,1v5Z"/>
  <path d="M36,35c-.553,0-1,.447-1,1v4c0,.553.447,1,1,1s1-.447,1-1v-4c0-.553-.447-1-1-1Z"/>
  <path d="M28,35c-.553,0-1,.447-1,1v4c0,.553.447,1,1,1s1-.447,1-1v-4c0-.553-.447-1-1-1Z"/>
</svg>