<?xml version="1.0" encoding="UTF-8"?>
<svg id="Outline" xmlns="http://www.w3.org/2000/svg" version="1.1" viewBox="0 0 64 64">
  <!-- Generator: Adobe Illustrator 29.5.1, SVG Export Plug-In . SVG Version: 2.1.0 Build 141)  -->
  <path d="M11,28v16c0,.552.448,1,1,1h40c.552,0,1-.448,1-1v-16c0-.552-.448-1-1-1H12c-.552,0-1,.448-1,1ZM13,29h38v14H13v-14Z"/>
  <path d="M57,18v28c0,1.65-1.35,3-3,3H10c-1.65,0-3-1.35-3-3v-28c0-1.65,1.35-3,3-3h4c.55,0,1,.45,1,1s-.45,1-1,1h-4c-.55,0-1,.45-1,1v5.18c.31-.11.65-.18,1-.18h9c.55,0,1,.45,1,1s-.45,1-1,1h-9c-.55,0-1,.45-1,1v20c0,.55.45,1,1,1h44c.55,0,1-.45,1-1v-20c0-.55-.45-1-1-1h-31c-.55,0-1-.45-1-1s.45-1,1-1h31c.35,0,.69.07,1,.18v-5.18c0-.55-.45-1-1-1H18c-.55,0-1-.45-1-1s.45-1,1-1h36c1.65,0,3,1.35,3,3Z"/>
  <path d="M18,31c-1.654,0-3,1.346-3,3v4c0,1.654,1.346,3,3,3s3-1.346,3-3v-4c0-1.654-1.346-3-3-3ZM19,38c0,.551-.449,1-1,1s-1-.449-1-1v-4c0-.551.449-1,1-1s1,.449,1,1v4Z"/>
  <path d="M46,31c-1.654,0-3,1.346-3,3v4c0,1.654,1.346,3,3,3s3-1.346,3-3v-4c0-1.654-1.346-3-3-3ZM47,38c0,.551-.449,1-1,1s-1-.449-1-1v-4c0-.551.449-1,1-1s1,.449,1,1v4Z"/>
  <path d="M38,31c-1.654,0-3,1.346-3,3v4c0,1.654,1.346,3,3,3s3-1.346,3-3v-4c0-1.654-1.346-3-3-3ZM39,38c0,.551-.449,1-1,1s-1-.449-1-1v-4c0-.551.449-1,1-1s1,.449,1,1v4Z"/>
  <path d="M28,31h-4c-.552,0-1,.448-1,1s.448,1,1,1h3v2h-3c-.552,0-1,.448-1,1v4c0,.552.448,1,1,1h4c.552,0,1-.448,1-1s-.448-1-1-1h-3v-2h3c.552,0,1-.448,1-1v-4c0-.552-.448-1-1-1Z"/>
  <circle cx="32" cy="34" r="1"/>
  <circle cx="32" cy="38" r="1"/>
  <path d="M36,21c.552,0,1-.448,1-1s-.448-1-1-1h-8c-.552,0-1,.448-1,1s.448,1,1,1h8Z"/>
</svg>