<?xml version="1.0" encoding="UTF-8"?>
<svg id="Outline" xmlns="http://www.w3.org/2000/svg" version="1.1" viewBox="0 0 64 64">
  <!-- Generator: Adobe Illustrator 29.5.1, SVG Export Plug-In . SVG Version: 2.1.0 Build 141)  -->
  <path d="M36,15.39v-2.39h1c.55,0,1-.45,1-1v-4c0-.55-.45-1-1-1h-10c-.55,0-1,.45-1,1v4c0,.55.45,1,1,1h1v2.39c-2.71.53-5.28,1.57-7.6,3.11-.45.31-.58.93-.27,1.39.3.45.92.58,1.39.27,3.09-2.07,6.72-3.16,10.48-3.16,10.48,0,19,8.52,19,19s-8.52,19-19,19-19-8.52-19-19c0-3.76,1.09-7.39,3.16-10.48.31-.46.18-1.08-.27-1.39-.47-.31-1.09-.19-1.39.27-2.29,3.43-3.5,7.44-3.5,11.6,0,11.58,9.42,21,21,21s21-9.42,21-21c0-10.21-7.33-18.73-17-20.61ZM28,9h8v2h-8v-2ZM34,15.1c-.66-.06-1.32-.1-2-.1-.67,0-1.34.04-2,.11v-2.11h4v2.1Z"/>
  <path d="M12.201,23.272l7.071-7.071c.188-.188.293-.442.293-.707s-.105-.52-.293-.707l-2.829-2.829c-.391-.391-1.023-.391-1.414,0l-7.071,7.071c-.188.188-.293.442-.293.707s.105.52.293.707l2.829,2.829c.195.195.451.293.707.293s.512-.098.707-.293ZM10.079,19.736l5.657-5.657,1.415,1.415-5.657,5.657-1.415-1.415Z"/>
  <path d="M56.042,19.029l-7.071-7.071c-.391-.391-1.023-.391-1.414,0l-2.829,2.829c-.188.188-.293.442-.293.707s.105.52.293.707l7.071,7.071c.195.195.451.293.707.293s.512-.098.707-.293l2.829-2.829c.188-.188.293-.442.293-.707s-.105-.52-.293-.707ZM52.506,21.151l-5.657-5.657,1.415-1.415,5.657,5.657-1.415,1.415Z"/>
  <path d="M41.029,49.253c.336.433.972.511,1.403.177.557-.433,1.093-.904,1.596-1.405,3.206-3.217,4.972-7.488,4.972-12.026,0-9.374-7.626-17-17-17-.709,0-1.422.044-2.121.131-.548.068-.937.568-.868,1.116.062.506.494.876.991.876.041,0,.083-.002.125-.008.288-.036.58-.062.873-.081v14.965c0,.265.105.52.293.707l10.568,10.567c-.22.192-.425.398-.655.576-.437.338-.516.967-.177,1.403ZM33,21.033c7.807.517,14,7.032,14,14.967,0,3.669-1.309,7.141-3.704,9.881l-10.296-10.295v-14.553Z"/>
  <path d="M26.023,50.881c-.174.524.111,1.09.636,1.263,1.316.435,2.688.707,4.076.809.025.002.05.003.074.003.519,0,.958-.401.996-.927.041-.551-.373-1.03-.924-1.071-1.226-.09-2.435-.33-3.596-.713-.523-.172-1.09.112-1.263.636Z"/>
  <path d="M38.057,49.729c-1.121.494-2.302.85-3.51,1.056-.545.093-.911.61-.817,1.154.083.487.506.832.984.832.056,0,.112-.004.169-.014,1.37-.234,2.709-.637,3.98-1.197.506-.223.734-.813.512-1.318-.223-.504-.812-.736-1.318-.512Z"/>
  <path d="M25.817,20.159c-1.293.504-2.523,1.169-3.657,1.976-.45.32-.556.944-.236,1.395.195.274.504.42.816.42.2,0,.402-.06.578-.185,1.001-.711,2.086-1.297,3.226-1.742.515-.201.77-.781.568-1.295-.201-.515-.784-.768-1.295-.568Z"/>
  <path d="M17.213,44.395c.26.457.88.649,1.363.375.48-.273.648-.884.375-1.364-.606-1.067-1.08-2.206-1.406-3.384-.148-.533-.699-.843-1.231-.696-.532.147-.844.699-.696,1.23.371,1.336.907,2.627,1.596,3.838Z"/>
  <path d="M16.593,31.553c-.539-.121-1.073.221-1.192.761-.266,1.202-.4,2.442-.4,3.687,0,.151.002.301.006.45.016.542.46.972.999.972.01,0,.02,0,.029,0,.552-.015.986-.475.972-1.027-.004-.131-.006-.262-.006-.395,0-1.1.119-2.194.354-3.255.119-.539-.222-1.073-.761-1.192Z"/>
  <path d="M19.726,46.314c-.4.381-.416,1.014-.034,1.414.958,1.006,2.038,1.894,3.21,2.637.464.293,1.087.155,1.381-.309.296-.466.157-1.084-.309-1.38-1.035-.657-1.988-1.44-2.835-2.328-.381-.401-1.015-.416-1.413-.035Z"/>
  <path d="M19.091,24.936c-.905,1.057-1.679,2.221-2.3,3.459-.564,1.128,1.225,2.019,1.789.895.547-1.093,1.23-2.12,2.03-3.054.359-.419.311-1.05-.109-1.41-.418-.359-1.049-.311-1.41.109Z"/>
  <path d="M18.565,22.565c.391-.391.391-1.024,0-1.414-.391-.391-1.024-.391-1.414,0-.391.391-.391,1.024,0,1.414.391.391,1.024.391,1.414,0Z"/>
</svg>