<?xml version="1.0" encoding="UTF-8"?>
<svg id="Outline" xmlns="http://www.w3.org/2000/svg" version="1.1" viewBox="0 0 64 64">
  <!-- Generator: Adobe Illustrator 29.5.1, SVG Export Plug-In . SVG Version: 2.1.0 Build 141)  -->
  <path d="M35,19.26v-1.47c1.26-1.12,2-2.87,2-4.79,0-3.31-2.24-6-5-6s-5,2.69-5,6c0,1.92.74,3.67,2,4.79v1.46c-2.53.4-4.95,1.3-7.13,2.69-.47.29-.61.91-.31,1.37.29.47.91.61,1.38.31,2.71-1.71,5.84-2.62,9.06-2.62,9.37,0,17,7.63,17,17s-7.63,17-17,17-17-7.63-17-17c0-3.22.91-6.35,2.62-9.06.3-.47.16-1.09-.3-1.38-.47-.3-1.09-.16-1.38.3-1.93,3.04-2.94,6.54-2.94,10.14,0,10.48,8.52,19,19,19s19-8.52,19-19c0-9.45-6.95-17.29-16-18.74ZM33,19.05c-.33-.02-.66-.05-1-.05-.33,0-.67.02-1,.04v-2.04h2v2.05ZM34,15h-4c-.19,0-.36.07-.51.16-.31-.63-.49-1.38-.49-2.16,0-2.21,1.35-4,3-4s3,1.79,3,4c0,.78-.18,1.53-.49,2.16-.15-.09-.32-.16-.51-.16Z"/>
  <path d="M18.8,30.865c-1.178,2.18-1.8,4.647-1.8,7.135,0,8.271,6.729,15,15,15s15-6.729,15-15c0-6.589-4.406-12.501-10.715-14.378-.53-.158-1.086.145-1.243.673-.158.529.144,1.086.673,1.244,5.467,1.626,9.285,6.751,9.285,12.461,0,7.168-5.832,13-13,13s-13-5.832-13-13c0-2.157.539-4.296,1.56-6.185.263-.486.081-1.093-.404-1.355-.487-.263-1.094-.081-1.355.405Z"/>
  <path d="M31.293,38.707c.622.621,1.707.167,1.707-.707v-14c0-.552-.447-1-1-1-3.996,0-7.764,1.56-10.606,4.392-.188.188-.294.442-.294.708s.105.521.293.708c0,0,9.867,9.866,9.9,9.9ZM31,25.038v10.548l-7.458-7.458c2.108-1.807,4.7-2.881,7.458-3.09Z"/>
  <path d="M19.979,25.979c.391-.391.391-1.024,0-1.414-.391-.391-1.024-.391-1.414,0-.391.391-.391,1.024,0,1.414.391.391,1.024.391,1.414,0Z"/>
</svg>