<?xml version="1.0" encoding="UTF-8"?>
<svg id="Outline" xmlns="http://www.w3.org/2000/svg" version="1.1" viewBox="0 0 48 48">
  <!-- Generator: Adobe Illustrator 29.5.1, SVG Export Plug-In . SVG Version: 2.1.0 Build 141)  -->
  <path d="M40.482,14.586l1.195-1.189c.566-.566.878-1.32.878-2.123s-.312-1.556-.878-2.122l-2.83-2.83c-1.131-1.132-3.109-1.136-4.246.002l-1.186,1.194c-2.779-1.594-5.988-2.519-9.414-2.519s-6.635.925-9.414,2.518l-1.189-1.196c-1.133-1.132-3.113-1.13-4.244,0l-2.83,2.83c-.566.566-.878,1.32-.878,2.122s.312,1.556.88,2.124l1.193,1.187c-1.594,2.779-2.519,5.988-2.519,9.414,0,10.477,8.523,19,19,19s19-8.523,19-19c0-3.426-.925-6.635-2.518-9.414ZM36.017,7.737c.377-.378,1.039-.377,1.416,0l2.83,2.83c.188.188.292.44.292.708s-.104.52-.29.706l-.897.892c-1.182-1.628-2.613-3.059-4.241-4.241l.889-.895ZM7.737,11.982c-.188-.188-.292-.439-.292-.708s.104-.52.292-.708l2.83-2.83c.376-.376,1.04-.375,1.414-.002l.892.897c-1.628,1.182-3.059,2.613-4.241,4.241l-.895-.89ZM24,41c-9.374,0-17-7.626-17-17S14.626,7,24,7s17,7.626,17,17-7.626,17-17,17Z"/>
  <path d="M24,9c-8.271,0-15,6.729-15,15s6.729,15,15,15,15-6.729,15-15-6.729-15-15-15ZM15.553,33.861l.669-.669c.391-.391.391-1.023,0-1.414s-1.023-.391-1.414,0l-.669.669c-1.747-2.036-2.871-4.615-3.088-7.447h.949c.553,0,1-.448,1-1s-.447-1-1-1h-.949c.217-2.833,1.341-5.411,3.088-7.447l.669.669c.372.372,1.021.393,1.414,0,.391-.391.391-1.023,0-1.414l-.669-.669c2.275-1.951,5.223-3.139,8.447-3.139s6.173,1.187,8.447,3.139l-.669.669c-.391.391-.391,1.023,0,1.414.387.386,1.028.386,1.414,0l.669-.669c1.747,2.036,2.871,4.615,3.088,7.447h-.949c-.553,0-1,.448-1,1s.447,1,1,1h.949c-.217,2.833-1.341,5.411-3.088,7.447l-.669-.669c-.391-.391-1.023-.391-1.414,0s-.391,1.023,0,1.414l.669.669c-2.275,1.951-5.223,3.139-8.447,3.139s-6.173-1.187-8.447-3.139Z"/>
  <path d="M24,15c-4.963,0-9,4.038-9,9,0,.552.447,1,1,1h8c.553,0,1-.448,1-1v-8c0-.552-.447-1-1-1ZM23,23h-5.929c.439-3.061,2.867-5.489,5.929-5.929v5.929Z"/>
</svg>