<?xml version="1.0" encoding="UTF-8"?>
<svg id="Outline" xmlns="http://www.w3.org/2000/svg" version="1.1" viewBox="0 0 64 64">
  <!-- Generator: Adobe Illustrator 29.5.1, SVG Export Plug-In . SVG Version: 2.1.0 Build 141)  -->
  <path d="M54,11h-3.18c-.31-.85-.97-1.51-1.82-1.82v-1.18c0-.55-.45-1-1-1s-1,.45-1,1v1.18c-.85.31-1.51.97-1.82,1.82h-4.36c-.31-.85-.97-1.51-1.82-1.82v-1.18c0-.55-.45-1-1-1s-1,.45-1,1v1.18c-.85.31-1.51.97-1.82,1.82h-6.36c-.31-.85-.97-1.51-1.82-1.82v-1.18c0-.55-.45-1-1-1s-1,.45-1,1v1.18c-.85.31-1.51.97-1.82,1.82h-4.36c-.31-.85-.97-1.51-1.82-1.82v-1.18c0-.55-.45-1-1-1s-1,.45-1,1v1.18c-.85.31-1.51.97-1.82,1.82h-3.18c-1.65,0-3,1.35-3,3v40c0,1.65,1.35,3,3,3h44c1.65,0,3-1.35,3-3V14c0-1.65-1.35-3-3-3ZM48,11c.55,0,1,.45,1,1s-.45,1-1,1-1-.45-1-1,.45-1,1-1ZM38,11c.55,0,1,.45,1,1s-.45,1-1,1-1-.45-1-1,.45-1,1-1ZM26,11c.55,0,1,.45,1,1s-.45,1-1,1-1-.45-1-1,.45-1,1-1ZM16,11c.55,0,1,.45,1,1s-.45,1-1,1-1-.45-1-1,.45-1,1-1ZM55,54c0,.55-.45,1-1,1H10c-.55,0-1-.45-1-1v-31h46v31ZM55,21H9v-7c0-.55.45-1,1-1h3.18c.42,1.16,1.52,2,2.82,2s2.4-.84,2.82-2h4.36c.42,1.16,1.52,2,2.82,2s2.4-.84,2.82-2h6.36c.42,1.16,1.52,2,2.82,2s2.4-.84,2.82-2h4.36c.42,1.16,1.52,2,2.82,2s2.4-.84,2.82-2h3.18c.55,0,1,.45,1,1v7Z"/>
  <path d="M28,19h8c.552,0,1-.448,1-1s-.448-1-1-1h-8c-.552,0-1,.448-1,1s.448,1,1,1Z"/>
  <path d="M42,51h-1.13l-1.03-7.2c-.27-1.88-1.19-3.57-2.58-4.8,1.39-1.23,2.31-2.92,2.58-4.8l1.03-7.2h1.13c.55,0,1-.45,1-1s-.45-1-1-1h-20c-.55,0-1,.45-1,1s.45,1,1,1h1.13l1.03,7.2c.27,1.88,1.19,3.57,2.58,4.8-1.39,1.23-2.31,2.92-2.58,4.8l-1.03,7.2h-1.13c-.55,0-1,.45-1,1s.45,1,1,1h20c.55,0,1-.45,1-1s-.45-1-1-1ZM25.15,51l.99-6.92c.25-1.76,1.27-3.3,2.8-4.22.3-.19.48-.51.48-.86s-.18-.67-.48-.86c-1.53-.92-2.55-2.46-2.8-4.22l-.99-6.92h13.7l-.99,6.92c-.25,1.76-1.27,3.3-2.8,4.22-.3.19-.48.51-.48.86s.18.67.48.86c1.53.92,2.55,2.46,2.8,4.22l.99,6.92h-13.7Z"/>
  <path d="M36.378,30.142c.041-.287-.044-.578-.234-.797-.19-.219-.465-.345-.755-.345h-6.776c-.29,0-.565.126-.755.345-.19.219-.275.51-.234.797l.5,3.495c.167,1.166.842,2.186,1.853,2.798l1.508.914c.159.096.338.145.518.145s.359-.048.518-.145l1.508-.914c1.011-.613,1.686-1.632,1.853-2.798l.5-3.495ZM33.899,33.354c-.082.57-.413,1.07-.909,1.37l-.99.6-.99-.6c-.496-.3-.828-.8-.909-1.371l-.336-2.353h4.47l-.336,2.354Z"/>
  <path d="M32.518,40.652c-.318-.192-.718-.192-1.036,0l-1.508.914c-1.011.613-1.686,1.632-1.853,2.798l-.5,3.495c-.041.287.044.578.234.797.19.219.465.345.755.345h6.776c.29,0,.565-.126.755-.345.19-.219.275-.51.234-.797l-.5-3.495c-.167-1.166-.842-2.186-1.853-2.798l-1.508-.914ZM29.765,47l.336-2.354c.082-.57.413-1.07.909-1.37l.99-.6.99.6c.496.3.828.8.909,1.371l.336,2.353h-4.47Z"/>
</svg>