<?xml version="1.0" encoding="UTF-8"?>
<svg id="Outline" xmlns="http://www.w3.org/2000/svg" version="1.1" viewBox="0 0 64 64">
  <!-- Generator: Adobe Illustrator 29.5.1, SVG Export Plug-In . SVG Version: 2.1.0 Build 141)  -->
  <path d="M32,15c-11.579,0-21,9.42-21,21s9.421,21,21,21,21-9.42,21-21-9.421-21-21-21ZM50,37h.949c-.235,4.484-2.023,8.553-4.847,11.688l-.668-.667c-.391-.39-1.023-.39-1.414,0s-.391,1.024,0,1.415l.667.667c-3.135,2.824-7.204,4.612-11.688,4.847v-.949c0-.552-.447-1-1-1s-1,.448-1,1v.949c-4.484-.235-8.553-2.023-11.688-4.847l.667-.667c.391-.391.391-1.024,0-1.415s-1.023-.39-1.414,0l-.668.667c-2.824-3.135-4.612-7.204-4.847-11.688h.949c.553,0,1-.448,1-1s-.447-1-1-1h-.949c.235-4.484,2.023-8.553,4.847-11.688,0,0,.668.667.668.667.389.388,1.027.386,1.414,0,.391-.391.391-1.024,0-1.415l-.667-.667c3.135-2.824,7.204-4.612,11.688-4.847v.949c0,.552.447,1,1,1s1-.448,1-1v-.949c4.484.235,8.553,2.023,11.688,4.847l-.667.667c-.391.391-.391,1.024,0,1.415.195.195.451.293.707.293s.512-.098.707-.292l.668-.667c2.824,3.135,4.612,7.204,4.847,11.688h-.949c-.553,0-1,.448-1,1s.447,1,1,1Z"/>
  <path d="M26,13h12c.553,0,1-.448,1-1v-4c0-.552-.447-1-1-1h-12c-.553,0-1,.448-1,1v4c0,.552.447,1,1,1ZM27,9h10v2h-10v-2Z"/>
  <path d="M19.979,15.494c.188-.188.293-.442.293-.707s-.105-.52-.293-.707l-2.829-2.828c-.391-.391-1.023-.391-1.414,0l-8.485,8.485c-.188.188-.293.442-.293.707s.105.52.293.707l2.829,2.828c.195.195.451.293.707.293s.512-.098.707-.293l8.485-8.485ZM9.372,20.444l7.071-7.071,1.415,1.414-7.071,7.071-1.415-1.414Z"/>
  <path d="M56.749,19.737l-8.485-8.485c-.391-.391-1.023-.391-1.414,0l-2.829,2.828c-.188.188-.293.442-.293.707s.105.52.293.707l8.485,8.485c.195.195.451.293.707.293s.512-.098.707-.293l2.829-2.828c.188-.188.293-.442.293-.707s-.105-.52-.293-.707ZM53.213,21.858l-7.071-7.071,1.415-1.414,7.071,7.071-1.415,1.414Z"/>
  <path d="M20,33h2c.553,0,1-.448,1-1s-.447-1-1-1h-2c-1.654,0-3,1.346-3,3s1.346,3,3,3c.552,0,1,.449,1,1s-.448,1-1,1h-2c-.553,0-1,.448-1,1s.447,1,1,1h2c1.654,0,3-1.346,3-3s-1.346-3-3-3c-.552,0-1-.449-1-1s.448-1,1-1Z"/>
  <path d="M28,31c-1.654,0-3,1.346-3,3v6c0,.552.447,1,1,1s1-.448,1-1v-2h2v2c0,.552.447,1,1,1s1-.448,1-1v-6c0-1.654-1.346-3-3-3ZM27,36v-2c0-.551.448-1,1-1s1,.449,1,1v2h-2Z"/>
  <path d="M38,39h-3v-7c0-.552-.447-1-1-1s-1,.448-1,1v8c0,.552.447,1,1,1h4c.553,0,1-.448,1-1s-.447-1-1-1Z"/>
  <path d="M46,33c.553,0,1-.448,1-1s-.447-1-1-1h-4c-.553,0-1,.448-1,1v8c0,.552.447,1,1,1h4c.553,0,1-.448,1-1s-.447-1-1-1h-3v-2h3c.553,0,1-.448,1-1s-.447-1-1-1h-3v-2h3Z"/>
</svg>