<?xml version="1.0" encoding="UTF-8"?>
<svg id="Outline" xmlns="http://www.w3.org/2000/svg" version="1.1" viewBox="0 0 64 64">
  <!-- Generator: Adobe Illustrator 29.5.1, SVG Export Plug-In . SVG Version: 2.1.0 Build 141)  -->
  <path d="M28.425,44.265l-3.896-.557c-.415-.06-.752-.375-.838-.786l-.399-1.905c1.395-1.088,2.373-2.687,2.636-4.518h.071c.882,0,1.715-.385,2.286-1.058.571-.671.816-1.561.674-2.439-.109-.67-.464-1.257-.96-1.697v-3.806c0-3.309-2.691-6-6-6-.553,0-1,.448-1,1s.447,1,1,1c2.206,0,4,1.794,4,4v3.009c-.036-.001-.071-.009-.107-.009h-.274l-.724-1.447c-.128-.256-.36-.446-.638-.519-.276-.073-.572-.024-.812.134l-.646.431c-.969.646-2.268.517-3.092-.306-.391-.391-1.023-.391-1.414,0-.823.823-2.122.952-3.092.306l-.646-.431c-.239-.16-.535-.209-.812-.134-.277.073-.51.263-.638.519l-.724,1.447h-.274c-.036,0-.071.008-.107.009v-2.009c0-.533.208-1.035.587-1.413s.881-.587,1.413-.587c.553,0,1-.448,1-1,0-1.103.897-2,2-2h1c.553,0,1-.448,1-1s-.447-1-1-1h-1c-1.896,0-3.489,1.327-3.898,3.101-.724.166-1.39.532-1.929,1.072-.757.756-1.173,1.76-1.173,2.827v2.806c-.496.44-.851,1.027-.96,1.697-.143.878.103,1.768.674,2.439.571.672,1.404,1.058,2.286,1.058h.071c.263,1.831,1.241,3.43,2.636,4.518l-.399,1.904c-.086.411-.423.727-.838.786l-3.896.557c-1.468.209-2.575,1.486-2.575,2.969v3.266c0,.552.447,1,1,1s1-.448,1-1v-3.266c0-.494.369-.92.858-.99l3.896-.557c1.244-.178,2.254-1.124,2.512-2.355l.268-1.283c.767.29,1.598.45,2.466.45s1.698-.16,2.466-.45l.269,1.283c.258,1.23,1.268,2.177,2.512,2.354l3.896.557c.489.07.858.496.858.99v3.266c0,.552.447,1,1,1s1-.448,1-1v-3.266c0-1.483-1.107-2.76-2.575-2.969ZM14,35.5c0-.552-.447-1-1-1h-1c-.618,0-1.084-.574-.985-1.175.075-.462.555-.825,1.093-.825h.893c.379,0,.725-.214.895-.553l.5-1c1.452.808,3.235.729,4.605-.166,1.37.895,3.152.974,4.605.166l.5,1c.17.339.516.553.895.553h.893c.538,0,1.018.362,1.093.825.095.585-.349,1.175-.985,1.175h-1c-.553,0-1,.448-1,1,0,2.757-2.243,5-5,5s-5-2.243-5-5Z"/>
  <path d="M54.425,44.265l-2.685-.384,3.632-1.453c.312-.125.541-.398.608-.728s-.034-.67-.272-.908c-1.101-1.101-1.707-2.565-1.707-4.122v-.958c.097-.088.2-.169.286-.271.571-.671.816-1.561.674-2.439-.112-.686-.479-1.287-.994-1.73.022-.252.034-.509.034-.773,0-1.6-.432-3.179-1.248-4.567-.28-.475-.893-.635-1.369-.354-.477.28-.635.893-.355,1.369.637,1.081.973,2.309.973,3.553,0,.003,0,.006,0,.009-.036-.001-.07-.009-.107-.009h-3.287c-1.923,0-3.707-.955-4.773-2.555-.186-.278-.498-.445-.832-.445s-.646.167-.832.445l-.396.593c-.818,1.228-2.188,1.961-3.665,1.961-.036,0-.071.008-.107.009,0-.003,0-.006,0-.009,0-3.86,3.141-7,7-7,1.243,0,2.472.336,3.553.972.478.28,1.089.121,1.369-.355.279-.476.121-1.089-.355-1.369-1.388-.816-2.967-1.248-4.566-1.248-4.963,0-9,4.038-9,9,0,.264.013.521.034.773-.515.443-.882,1.044-.994,1.73-.143.878.103,1.768.674,2.439.086.101.189.183.286.271v.958c0,1.557-.606,3.021-1.707,4.122-.238.238-.34.579-.272.908s.296.603.608.728l3.632,1.453-2.685.384c-1.468.209-2.575,1.486-2.575,2.969v3.266c0,.552.447,1,1,1s1-.448,1-1v-3.266c0-.494.369-.92.858-.99l3.896-.557c1.244-.178,2.254-1.124,2.512-2.355l.268-1.283c.767.29,1.598.45,2.466.45s1.698-.16,2.466-.45l.269,1.283c.258,1.23,1.268,2.177,2.512,2.354l3.896.557c.489.07.858.496.858.99v3.266c0,.552.447,1,1,1s1-.448,1-1v-3.266c0-1.483-1.107-2.76-2.575-2.969ZM40.381,42.578s-.006-.005-.01-.006l-3.728-1.491c.882-1.29,1.356-2.812,1.356-4.409v-.171h.071c.263,1.831,1.241,3.43,2.636,4.518l-.326,1.56ZM40,35.5c0-.552-.447-1-1-1h-1c-.609,0-1.083-.582-.985-1.175.075-.462.555-.825,1.093-.825,1.934,0,3.742-.865,4.951-2.342,1.442,1.486,3.433,2.342,5.547,2.342h3.287c.538,0,1.017.362,1.093.824.099.61-.364,1.176-.985,1.176h-1c-.553,0-1,.448-1,1,0,2.757-2.243,5-5,5s-5-2.243-5-5ZM51.929,36.5h.071v.171c0,1.596.475,3.119,1.356,4.409l-3.728,1.491s-.006.005-.01.006l-.326-1.56c1.395-1.088,2.373-2.687,2.636-4.518Z"/>
  <path d="M39.563,17.344c0-1.294-.505-2.51-1.42-3.425s-2.131-1.419-3.426-1.419c-.983,0-1.922.291-2.718.833-.796-.542-1.734-.833-2.718-.833-1.295,0-2.511.504-3.426,1.419s-1.42,2.131-1.42,3.425.505,2.511,1.42,3.426l5.437,5.437c.188.188.441.293.707.293s.52-.105.707-.293l5.437-5.437c.915-.915,1.42-2.131,1.42-3.426ZM36.729,19.356l-4.729,4.73-4.729-4.73c-.537-.538-.834-1.252-.834-2.012s.297-1.474.834-2.011c.537-.537,1.251-.833,2.012-.833s1.474.296,2.011.833c.375.375,1.039.375,1.414,0,1.074-1.075,2.948-1.073,4.022,0,.537.538.834,1.252.834,2.011s-.297,1.474-.834,2.012Z"/>
</svg>