<?xml version="1.0" encoding="UTF-8"?>
<svg id="Outline" xmlns="http://www.w3.org/2000/svg" version="1.1" viewBox="0 0 64 64">
  <!-- Generator: Adobe Illustrator 29.5.1, SVG Export Plug-In . SVG Version: 2.1.0 Build 141)  -->
  <path d="M56,23c.552,0,1-.447,1-1v-3c0-.553-.448-1-1-1H8c-.552,0-1,.447-1,1v3c0,.553.433.998.985.998.555.153,2.015,3.152,2.015,9.002s-1.46,8.849-2,9c-.552,0-1,.447-1,1v3c0,.553.448,1,1,1h48c.552,0,1-.447,1-1v-3c0-.553-.433-.998-.985-.998-.555-.153-2.015-3.152-2.015-9.002s1.46-8.849,2-9ZM55,21.277c-2.054,1.204-3,6.116-3,10.723s.946,9.519,3,10.723v1.277H17v-1c0-.553-.448-1-1-1s-1,.447-1,1v1h-6v-1.277c2.054-1.204,3-6.116,3-10.723s-.946-9.519-3-10.723v-1.277h6v1c0,.553.448,1,1,1s1-.447,1-1v-1h38v1.277Z"/>
  <path d="M16,24.399c-.552,0-1,.447-1,1v4.4c0,.553.448,1,1,1s1-.447,1-1v-4.4c0-.553-.448-1-1-1Z"/>
  <path d="M16,33.199c-.552,0-1,.447-1,1v4.4c0,.553.448,1,1,1s1-.447,1-1v-4.4c0-.553-.448-1-1-1Z"/>
  <path d="M29,42c5.514,0,10-4.486,10-10s-4.486-10-10-10-10,4.486-10,10,4.486,10,10,10ZM29,24c4.411,0,8,3.589,8,8s-3.589,8-8,8-8-3.589-8-8,3.589-8,8-8Z"/>
  <path d="M26.293,35.293c-.391.391-.391,1.023,0,1.414.746.746,1.727,1.119,2.707,1.119s1.961-.373,2.707-1.119c.391-.391.391-1.023,0-1.414s-1.023-.391-1.414,0c-.713.713-1.873.713-2.586,0-.391-.391-1.023-.391-1.414,0Z"/>
  <path d="M26,32c.552,0,1-.447,1-1v-2c0-.553-.448-1-1-1s-1,.447-1,1v2c0,.553.448,1,1,1Z"/>
  <path d="M32,32c.552,0,1-.447,1-1v-2c0-.553-.448-1-1-1s-1,.447-1,1v2c0,.553.448,1,1,1Z"/>
  <path d="M42,25h6c.552,0,1-.447,1-1s-.448-1-1-1h-6c-.552,0-1,.447-1,1s.448,1,1,1Z"/>
  <path d="M42,29h4c.552,0,1-.447,1-1s-.448-1-1-1h-4c-.552,0-1,.447-1,1s.448,1,1,1Z"/>
  <path d="M42,33h4c.552,0,1-.447,1-1s-.448-1-1-1h-4c-.552,0-1,.447-1,1s.448,1,1,1Z"/>
  <path d="M42,37h4c.552,0,1-.447,1-1s-.448-1-1-1h-4c-.552,0-1,.447-1,1s.448,1,1,1Z"/>
  <path d="M42,41h6c.552,0,1-.447,1-1s-.448-1-1-1h-6c-.552,0-1,.447-1,1s.448,1,1,1Z"/>
</svg>