<?xml version="1.0" encoding="UTF-8"?>
<svg id="Outline" xmlns="http://www.w3.org/2000/svg" version="1.1" viewBox="0 0 64 64">
  <!-- Generator: Adobe Illustrator 29.5.1, SVG Export Plug-In . SVG Version: 2.1.0 Build 141)  -->
  <path d="M44,34c0-1.654-1.346-3-3-3s-3,1.346-3,3,1.346,3,3,3,3-1.346,3-3ZM40,34c0-.551.448-1,1-1s1,.449,1,1-.448,1-1,1-1-.449-1-1Z"/>
  <path d="M49,39c-1.654,0-3,1.346-3,3s1.346,3,3,3,3-1.346,3-3-1.346-3-3-3ZM49,43c-.552,0-1-.449-1-1s.448-1,1-1,1,.449,1,1-.448,1-1,1Z"/>
  <path d="M50.707,32.293c-.391-.391-1.023-.391-1.414,0l-10,10c-.618.618-.164,1.707.707,1.707.256,0,.512-.098.707-.293l10-10c.391-.391.391-1.023,0-1.414Z"/>
  <path d="M47,26.18v-9.18c0-1.65-1.35-3-3-3H10c-1.65,0-3,1.35-3,3v20c0,1.65,1.35,3,3,3h23.18c.96,5.67,5.89,10,11.82,10,6.62,0,12-5.38,12-12,0-5.93-4.33-10.86-10-11.82ZM26,16h18c.55,0,1,.45,1,1v2h-14c0-.55-.45-1-1-1-1.38,0-2.73.26-4,.76v-2.76ZM45,21v4h-14v-4h14ZM9,17c0-.55.45-1,1-1h8v2.76c-1.27-.5-2.62-.76-4-.76-.55,0-1,.45-1,1h-4v-2ZM9,21h4v4h-4v-4ZM18,38h-8c-.55,0-1-.45-1-1v-10h4c0,.55.45,1,1,1,1.38,0,2.73-.26,4-.76v10.76ZM19.04,24.44l-.1.06c-1.19.8-2.53,1.29-3.94,1.44v-5.88c1.41.15,2.75.64,3.94,1.44l.1.06c-.02.15-.04.29-.04.44v2c0,.15.02.29.04.44ZM24,38h-4v-11.78c.53.48,1.23.78,2,.78s1.47-.3,2-.78v11.78ZM21,24v-2c0-.55.45-1,1-1s1,.45,1,1v2c0,.55-.45,1-1,1s-1-.45-1-1ZM24,19.78c-.53-.48-1.23-.78-2-.78s-1.47.3-2,.78v-3.78h4v3.78ZM24.96,24.44c.02-.15.04-.29.04-.44v-2c0-.15-.02-.29-.04-.44l.1-.06c1.19-.8,2.53-1.29,3.94-1.44v5.88c-1.41-.15-2.75-.64-3.94-1.44l-.1-.06ZM33,38h-7v-10.76c1.27.5,2.62.76,4,.76.55,0,1-.45,1-1h9.22c-4.24,1.85-7.22,6.08-7.22,11ZM45,48c-5.51,0-10-4.49-10-10s4.49-10,10-10,10,4.49,10,10-4.49,10-10,10Z"/>
</svg>