<?xml version="1.0" encoding="UTF-8"?>
<svg id="Outline" xmlns="http://www.w3.org/2000/svg" version="1.1" viewBox="0 0 64 64">
  <!-- Generator: Adobe Illustrator 29.3.1, SVG Export Plug-In . SVG Version: 2.1.0 Build 151)  -->
  <path d="M56,33c.55273,0,1-.44727,1-1v-4c0-1.6543-1.3457-3-3-3h-8.31464l.29803-.33398c1.35547-1.52051,1.35547-3.81152,0-5.33203l-1.57031-1.75977c-.30078-.33789-.48047-.77051-.50586-1.2207l-.13477-2.35645c-.11523-2.0332-1.73633-3.6543-3.76953-3.76953l-2.35742-.13477c-.44922-.02539-.88184-.20508-1.21875-.50586l-1.76074-1.57031c-1.52148-1.35547-3.8125-1.35547-5.33203,0l-1.76074,1.57031c-.33691.30078-.76953.48047-1.21973.50586l-2.35645.13477c-2.0332.11523-3.6543,1.73633-3.76953,3.76953l-.13477,2.35742c-.02539.44922-.20508.88184-.50488,1.21875l-1.57129,1.76074c-1.35547,1.52051-1.35547,3.81152,0,5.33203l.29803.33398h-8.31464c-1.6543,0-3,1.3457-3,3l.00098,4c0,.55273.44824,1,1,1,1.10254,0,1.99902.89453,1.99902,1.99805s-.89746,2.00098-2.00098,2.00195c-.55176,0-.99902.44824-.99902,1l.00098,6c0,.55273.44824,1,1,1,1.10254,0,1.99902.89453,1.99902,2,0,1.10059-.89551,1.99805-2,2-.55273,0-1,.44727-1,1v4c0,1.6543,1.3457,3,3,3h44c1.6543,0,3-1.3457,3-3l-.00098-4c0-.55273-.44824-1-1-1-1.10254,0-1.99902-.89453-1.99902-2,0-1.09863.89355-1.99609,2-2,.55273,0,1-.44727,1-1v-6c0-.55273-.44727-1-1-1-1.10254,0-2-.89746-2-2s.89746-2,2-2ZM19.50879,20.66602l1.57227-1.76172c.59961-.67383.95801-1.54004,1.00781-2.4375l.13477-2.35645c.05859-1.01758.86914-1.82812,1.88672-1.88672l2.35547-.13477c.89941-.0498,1.76562-.40918,2.43945-1.00977l1.76074-1.57031c.37988-.33887.85742-.50879,1.33398-.50879s.9541.16992,1.33398.50879l1.76074,1.57031c.67383.60059,1.54004.95996,2.43848,1.00977l2.35645.13477c1.01758.05859,1.82812.86914,1.88672,1.88672l.13477,2.35547c.0498.89844.4082,1.76465,1.00879,2.43945l1.57129,1.76074c.67871.76074.67871,1.90723,0,2.66797l-1.57227,1.76172c-.59961.67383-.95801,1.54004-1.00781,2.4375l-.13477,2.35645c-.05859,1.01758-.86914,1.82812-1.88672,1.88672l-2.35547.13477c-.89844.0498-1.76465.4082-2.43945,1.00879l-1.76074,1.57129c-.75977.67773-1.9082.67773-2.66797,0l-1.76172-1.57227c-.67383-.59961-1.54004-.95801-2.4375-1.00781l-2.35645-.13477c-1.01758-.05859-1.82812-.86914-1.88672-1.88672l-.13477-2.35547c-.0498-.89844-.4082-1.76465-1.00879-2.43945l-1.57129-1.76074c-.67871-.76074-.67871-1.90723,0-2.66797ZM55,38.87305v4.25391c-1.72266.44629-3,2.01562-3,3.87793,0,1.8584,1.27637,3.42383,3,3.86914v3.12598c0,.55176-.44824,1-1,1H10c-.55176,0-1-.44824-1-1v-3.12695c1.72266-.44531,3-2.01465,3-3.87793,0-1.8584-1.27637-3.42383-3-3.86914v-4.25293c1.72363-.44629,3-2.01465,3-3.87793,0-1.8584-1.27637-3.42383-3-3.86914v-3.12598c0-.55176.44824-1,1-1h9.94501c.08423.20502.13519.42352.14777.64648l.07739,1.35352h-2.17017c-.55273,0-1,.44727-1,1,0,1.10254-.89746,2-2,2-.55273,0-1,.44727-1,1v16c0,.55273.44727,1,1,1,1.10254,0,2,.89746,2,2,0,.55273.44727,1,1,1h13c.55273,0,1-.44727,1-1s-.44727-1-1-1h-6v-2c0-.55273-.44727-1-1-1s-1,.44727-1,1v2h-4.12695c-.3623-1.40332-1.46973-2.51074-2.87305-2.87305v-14.25391c1.40332-.3623,2.51074-1.46973,2.87305-2.87305h1.5553c.49658,1.54102,1.88403,2.677,3.56873,2.77246l2.35742.13477c.44922.02539.88184.20508,1.21875.50488l1.76074,1.57129c.75977.67773,1.71289,1.0166,2.66602,1.0166s1.90625-.33887,2.66602-1.0166l1.75977-1.57031c.33789-.30078.77051-.48047,1.2207-.50586l2.35645-.13477c1.68469-.09546,3.07214-1.23145,3.56873-2.77246h1.5553c.3623,1.40332,1.46973,2.51074,2.87305,2.87305v14.25391c-1.40332.3623-2.51074,1.46973-2.87305,2.87305h-6.12695c-.55273,0-1,.44727-1,1s.44727,1,1,1h7c.55273,0,1-.44727,1-1,0-1.10254.89746-2,2-2,.55273,0,1-.44727,1-1v-16c0-.55273-.44727-1-1-1-1.10254,0-2-.89746-2-2,0-.55273-.44727-1-1-1h-2.17023l.07745-1.35449c.01257-.22247.06354-.44073.14764-.64551h9.94513c.55176,0,1,.44824,1,1v3.12695c-1.72363.44434-3,2.0127-3,3.87305s1.27637,3.42871,3,3.87305Z"/>
  <path d="M28.64844,30.93652c.11621.04297.23438.06348.35156.06348.4043,0,.78613-.24707.93652-.64844l6-16c.19336-.51758-.06836-1.09375-.58496-1.28809-.5166-.19141-1.09375.06641-1.28809.58496l-6,16c-.19336.51758.06836,1.09375.58496,1.28809Z"/>
  <path d="M28,20c1.6543,0,3-1.3457,3-3s-1.3457-3-3-3-3,1.3457-3,3,1.3457,3,3,3ZM28,16c.55176,0,1,.44824,1,1s-.44824,1-1,1-1-.44824-1-1,.44824-1,1-1Z"/>
  <path d="M33,27c0,1.6543,1.3457,3,3,3s3-1.3457,3-3-1.3457-3-3-3-3,1.3457-3,3ZM36,26c.55176,0,1,.44824,1,1s-.44824,1-1,1-1-.44824-1-1,.44824-1,1-1Z"/>
  <path d="M24,42c-.55273,0-1,.44727-1,1v2c0,.55273.44727,1,1,1s1-.44727,1-1v-2c0-.55273-.44727-1-1-1Z"/>
  <path d="M24,36c-.55273,0-1,.44727-1,1v2c0,.55273.44727,1,1,1s1-.44727,1-1v-2c0-.55273-.44727-1-1-1Z"/>
  <path d="M45,47c0-.55273-.44727-1-1-1h-15c-.55273,0-1,.44727-1,1s.44727,1,1,1h15c.55273,0,1-.44727,1-1Z"/>
  <path d="M31,44h13c.55273,0,1-.44727,1-1s-.44727-1-1-1h-13c-.55273,0-1,.44727-1,1s.44727,1,1,1Z"/>
  <path d="M35,40h9c.55273,0,1-.44727,1-1s-.44727-1-1-1h-9c-.55273,0-1,.44727-1,1s.44727,1,1,1Z"/>
  <circle cx="35" cy="52" r="1"/>
</svg>