<?xml version="1.0" encoding="UTF-8"?>
<svg id="Outlie" xmlns="http://www.w3.org/2000/svg" version="1.1" viewBox="0 0 64 64">
  <!-- Generator: Adobe Illustrator 29.3.1, SVG Export Plug-In . SVG Version: 2.1.0 Build 151)  -->
  <path d="M34.00053,42c0,1.6543,1.3457,3,3,3s3-1.3457,3-3-1.3457-3-3-3-3,1.3457-3,3ZM38.00053,42c0,.55127-.44824,1-1,1s-1-.44873-1-1,.44824-1,1-1,1,.44873,1,1Z"/>
  <path d="M45.00053,47c-1.6543,0-3,1.3457-3,3s1.3457,3,3,3,3-1.3457,3-3-1.3457-3-3-3ZM45.00053,51c-.55176,0-1-.44873-1-1s.44824-1,1-1,1,.44873,1,1-.44824,1-1,1Z"/>
  <path d="M46.2935,39.29297l-12,12c-.3906.3906-.39062,1.02335-.00008,1.41398.37115.37123,1.01907.39515,1.41414.00008l12-12c.39062-.39062.39062-1.02344,0-1.41406s-1.02344-.39062-1.41406,0Z"/>
  <path d="M47.00053,16c.55273,0,1-.44775,1-1s-.44727-1-1-1h-18c-.55273,0-1,.44775-1,1s.44727,1,1,1h18Z"/>
  <path d="M48.00053,20c.55273,0,1-.44775,1-1s-.44727-1-1-1h-18c-.55273,0-1,.44775-1,1s.44727,1,1,1h18Z"/>
  <path d="M49.00053,22h-18c-.55273,0-1,.44775-1,1s.44727,1,1,1h18c.55273,0,1-.44775,1-1s-.44727-1-1-1Z"/>
  <path d="M36.00053,36c.55273,0,1-.44775,1-1s-.44727-1-1-1h-2c-.55273,0-1,.44775-1,1s.44727,1,1,1h2Z"/>
  <path d="M40.00053,36h2c.55273,0,1-.44775,1-1s-.44727-1-1-1h-2c-.55273,0-1,.44775-1,1s.44727,1,1,1Z"/>
  <path d="M48.00053,34h-2c-.55273,0-1,.44775-1,1s.44727,1,1,1h2c.55273,0,1-.44775,1-1s-.44727-1-1-1Z"/>
  <path d="M54.99052,34.95001c-.04999-9.39001-2.14996-18.85004-6.08002-27.37006-.16998-.34998-.51996-.57996-.90997-.57996h-4c-.54999,0-1,.45001-1,1,0,1.09998-.90002,2-2,2s-2-.90002-2-2c0-.54999-.45001-1-1-1h-5c-.54999,0-1,.45001-1,1,0,1.09998-.90002,2-2,2s-2-.90002-2-2c0-.54999-.45001-1-1-1h-5c-.34003,0-.65997.16998-.84003.45996-.19.29004-.20996.65002-.06995.96002.08997.19.15997.39001.25.58002h-.34003c-.54999,0-1,.45001-1,1,0,1.09998-.90002,2-2,2s-2-.90002-2-2c0-.54999-.45001-1-1-1h-5c-.34003,0-.65997.16998-.84003.45996-.19.29004-.20996.65002-.06995.96002,3.87,8.37,5.90997,17.67999,5.90997,26.90002v16.67999c0,.54999.45001,1,1,1h11v1c0,.54999.45001,1,1,1h26c.54999,0,1-.45001,1-1,0,0-.01001-21.03003-.01001-21.04999ZM27.00053,53h-10v-15.67999c0-8.99005-1.88-18.06-5.46002-26.32001h2.59003c.44,1.71997,2.01001,3,3.87,3s3.42999-1.28003,3.87-3h.33002c3.14001,7.67999,4.79999,16.02997,4.79999,24.32001v17.67999ZM53.00053,55h-24v-19h1c.54999,0,1-.45001,1-1s-.45001-1-1-1h-1.03003c-.16998-8.32001-1.93994-16.65002-5.14996-24.32001-.02002-.03998-.03003-.08002-.04999-.12-.08002-.17999-.15002-.38-.23004-.56h2.59003c.44,1.71997,2.01001,3,3.87,3s3.42999-1.28003,3.87-3h3.26001c.44,1.71997,2.01001,3,3.87,3s3.42999-1.28003,3.87-3h2.48999c3.51001,7.82001,5.42004,16.41998,5.60004,25h-.96002c-.54999,0-1,.45001-1,1s.45001,1,1,1h1v19Z"/>
</svg>