<?xml version="1.0" encoding="UTF-8"?>
<svg id="Outline" xmlns="http://www.w3.org/2000/svg" version="1.1" viewBox="0 0 64 64">
  <!-- Generator: Adobe Illustrator 29.3.1, SVG Export Plug-In . SVG Version: 2.1.0 Build 151)  -->
  <path d="M25.97613,45.9981c-.77112,0-1.46802.30054-2,.78027-.53198-.47974-1.22888-.78027-2-.78027-1.6543,0-3,1.3457-3,3s1.3457,3,3,3c.77112,0,1.46802-.30054,2-.78027.53198.47974,1.22888.78027,2,.78027,1.6543,0,3-1.3457,3-3s-1.3457-3-3-3ZM21.97613,49.9981c-.55127,0-1-.44824-1-1s.44873-1,1-1,1,.44824,1,1-.44873,1-1,1ZM25.97613,49.9981c-.55127,0-1-.44824-1-1s.44873-1,1-1,1,.44824,1,1-.44873,1-1,1Z"/>
  <path d="M18.97613,33.9981c-1.6543,0-3,1.3457-3,3s1.3457,3,3,3,3-1.3457,3-3-1.3457-3-3-3ZM18.97613,37.9981c-.55127,0-1-.44824-1-1s.44873-1,1-1,1,.44824,1,1-.44873,1-1,1Z"/>
  <path d="M28.97613,33.9981c-1.6543,0-3,1.3457-3,3s1.3457,3,3,3,3-1.3457,3-3-1.3457-3-3-3ZM28.97613,37.9981c-.55127,0-1-.44824-1-1s.44873-1,1-1,1,.44824,1,1-.44873,1-1,1Z"/>
  <path d="M56.94146,24.83013l-.19385-.90137c-.5166-2.40234-2.07373-4.40918-4.27295-5.50684-1.12891-.56348-2.03955-1.44922-2.63379-2.5625l-2.3999-4.49707c-1.72314-3.23145-5.42725-4.94629-9.00928-4.17871-3.84961.82812-6.58789,4.28809-6.50977,8.22461l.24463,12.30566c.00067.03314.00647.06531.00739.09839-.02832-.02112-.05414-.04724-.08258-.06812-2.42627-1.79688-5.30518-2.74609-8.3252-2.74609-3.03357,0-5.83673.98022-8.13202,2.6261-.00293-.00122-.0047-.00385-.00763-.005l-.32031-.12793c-2.09326-.83691-3.88477-2.36133-5.04443-4.29395l-1.02832-1.71387c-.20459-.3418-.59473-.53125-.98828-.47656-.39502.05176-.72168.33398-.83057.7168l-.16211.56836c-1.2334,4.31543-.02783,8.96875,3.14648,12.14355.03461.03461.07916.04944.11725.07788-.4787,1.41003-.75006,2.91479-.75006,4.48462,0,2.8443.84387,5.54895,2.42719,7.87054-.27069.67682-.42719,1.388-.42719,2.12946,0,4.48633,5.271,8,12,8s12-3.51367,12-8c0-.74146-.15649-1.45264-.42719-2.12946,1.58331-2.32159,2.42719-5.02625,2.42719-7.87054,0-.37689-.01971-.75366-.05029-1.13,2.07489,1.39404,4.49341,2.12805,6.96338,2.12805.88135,0,1.76904-.09277,2.64941-.28223,6.75391-1.4541,11.06592-8.13086,9.61279-14.88379ZM26.28863,27.27154l-1.43555,1.43555c-.72998.73047-1.80322,1.0293-2.80762.77832-1.45508-.36523-2.97656-.05762-4.17529.84277l-.83594.62598c-.73682.55243-1.68384.71497-2.56506.46942,2.20233-2.69806,5.55078-4.42548,9.297-4.42548.85803,0,1.70062.09772,2.52246.27344ZM8.82671,24.67095c1.25336,1.89703,3.03192,3.42413,5.09131,4.38977-1.01953,1.01038-1.87933,2.17847-2.55176,3.46057-1.90314-2.16797-2.81915-5.01343-2.53955-7.85034ZM23.76617,54.9981c-5.42041,0-10-2.74805-10-6s4.57959-6,10-6,10,2.74805,10,6-4.57959,6-10,6ZM34.17236,44.97069c-2.05249-2.39069-5.89734-3.9726-10.40619-3.9726s-8.3537,1.58191-10.40619,3.9726c-1.04077-1.80688-1.59381-3.84326-1.59381-5.9726,0-2.12006.55774-4.10999,1.52643-5.84021l.40131.13416c.51172.16992,1.04004.25391,1.56592.25391,1.05908,0,2.10547-.33984,2.97412-.99219l.83594-.62598c.71533-.53613,1.62305-.71973,2.49072-.50293,1.67529.4209,3.48193-.0791,4.70654-1.30371l2.17615-2.17615c.8642.36719,1.68951.83765,2.46155,1.40955.63477.46545,1.22949,1.01697,1.77905,1.62909.51434,1.76172,1.40906,3.38464,2.63293,4.76654.29517,1.06854.44934,2.15961.44934,3.24792,0,2.12933-.55304,4.16571-1.59381,5.9726ZM46.90777,37.75884c-3.08643.66211-6.2749-.0791-8.74902-2.03809-2.47461-1.95898-3.92969-4.8916-3.99219-8.0459l-.24463-12.30566c-.05957-2.98242,2.01416-5.60254,4.93066-6.23047.43359-.09277.86914-.13867,1.30078-.13867,2.27002,0,4.42627,1.24805,5.52295,3.30371l2.3999,4.49707c.79102,1.48242,2.00342,2.66113,3.50537,3.41016,1.65234.8252,2.82275,2.33301,3.21094,4.1377l.19385.90137c1.22119,5.67578-2.40283,11.28711-8.07861,12.50879Z"/>
  <path d="M52.35064,24.98052c-.25977-1.2041-1.00781-2.19434-2.09473-2.74023-.01221-.00684-.10596-.05859-.11816-.06445-.20557-.10547-.44092-.13574-.66602-.08789l-1.28516.27539c-3.92139.84375-7.28711,3.33887-9.23486,6.84668l-1.24268,2.2373c-.19287.34668-.16211.77344.07715,1.08984.43604.57422.92822,1.08105,1.4624,1.50391,1.50049,1.18848,3.29492,1.80078,5.12695,1.80078,1.05566,0,2.12451-.2041,3.15576-.61816,3.68555-1.47852,5.80713-5.65234,4.93457-9.70605l-.11523-.53711ZM46.78619,33.36822c-2.14648.86133-4.50098.52637-6.2959-.89551-.24512-.19336-.47949-.41211-.70068-.65332l.91016-1.63867c1.66797-3.00293,4.55029-5.13965,7.90674-5.8623l.92041-.19727c.43018.26465.75049.7334.86865,1.28027l.11523.53613c.66992,3.11523-.93115,6.30957-3.72461,7.43066Z"/>
  <path d="M37.93853,26.45513c1.66797-3.00293,4.55029-5.13965,7.97559-5.87695.32861-.07031.6001-.30078.72217-.61426s.07861-.66699-.11572-.94141c-.27832-.39355-.50635-.75781-.69629-1.11328l-2.33887-4.38281c-.72021-1.34863-2.05811-2.20801-3.49268-2.24219-1.11084-.02148-2.16895.39062-2.95361,1.17285-.7749.77246-1.20654,1.83984-1.18457,2.92969l.20996,10.60254c.00928.45215.32031.8418.75879.95117.08057.01953.16113.0293.24121.0293.35693,0,.69482-.19141.87402-.51465ZM38.45074,13.8731c.38281-.38086.89404-.58984,1.44336-.58984.01709,0,.03418,0,.05176.00098.71387.0166,1.39404.4707,1.7749,1.18359l2.33936,4.38379c.02295.04297.04688.08691.07129.13086-2.36768.75391-4.47998,2.125-6.12646,3.95703l-.15039-7.59277c-.01123-.54688.20605-1.08398.59619-1.47363Z"/>
</svg>