<?xml version="1.0" encoding="UTF-8"?>
<svg id="Outline" xmlns="http://www.w3.org/2000/svg" version="1.1" viewBox="0 0 64 64">
  <!-- Generator: Adobe Illustrator 29.5.1, SVG Export Plug-In . SVG Version: 2.1.0 Build 141)  -->
  <path d="M54.00002,29.00006H16.00002c-1.65002,0-3,1.34998-3,3v22c0,1.64996,1.34998,3,3,3h38c1.65002,0,3-1.35004,3-3v-8c0-.54999-.45001-1-1-1s-1,.45001-1,1v8c0,.54999-.45001,1-1,1H16.00002c-.54999,0-1-.45001-1-1v-13h40v1c0,.54999.45001,1,1,1s1-.45001,1-1v-10c0-1.65002-1.34998-3-3-3ZM55.00002,33.00006h-30c-.54999,0-1,.45001-1,1s.45001,1,1,1h30v4H15.00002v-4h6c.54999,0,1-.45001,1-1s-.45001-1-1-1h-6v-1c0-.54999.45001-1,1-1h38c.54999,0,1,.45001,1,1v1Z"/>
  <path d="M38.00002,47.00006c-1.6543,0-3,1.3457-3,3s1.3457,3,3,3h12c1.6543,0,3-1.3457,3-3s-1.3457-3-3-3h-12ZM51.00002,50.00006c0,.55127-.44873,1-1,1h-12c-.55127,0-1-.44873-1-1s.44873-1,1-1h12c.55127,0,1,.44873,1,1Z"/>
  <path d="M30.00002,51.00006c-.55225,0-1,.44775-1,1s.44775,1,1,1h2c.55225,0,1-.44775,1-1s-.44775-1-1-1h-2Z"/>
  <path d="M24.00002,51.00006c-.55225,0-1,.44775-1,1s.44775,1,1,1h2c.55225,0,1-.44775,1-1s-.44775-1-1-1h-2Z"/>
  <path d="M18.00002,51.00006c-.55225,0-1,.44775-1,1s.44775,1,1,1h2c.55225,0,1-.44775,1-1s-.44775-1-1-1h-2Z"/>
  <path d="M7.56957,18.88017c.3571.1751.81013.15427,1.13748-.17308l1.67773-1.67773c1.24121-1.24121,2.87109-1.95361,4.61523-2.02344v.99414c0,.4043.24365.76904.61719.92383.37402.15381.80371.06934,1.08984-.2168l4-4c.39062-.39062.39062-1.02344,0-1.41406l-4-4c-.28613-.28662-.71582-.37158-1.08984-.2168-.37354.15479-.61719.51953-.61719.92383v1.05615c-4.04736.45508-7.34473,3.6416-7.86035,7.76562l-.13183,1.05419c-.05717.45713.20421.82884.56173,1.00415ZM16.00002,11.00006c.42871,0,.79443-.27002.93652-.64893l1.64941,1.64893-1.64941,1.64893c-.14209-.37891-.50781-.64893-.93652-.64893h-.71533c-2.02832,0-3.95312.67139-5.52051,1.90918,1.13184-2.33008,3.52295-3.90918,6.23584-3.90918Z"/>
  <path d="M13.00002,26.9439c4.04736-.45508,7.34473-3.6416,7.86035-7.76562l.13184-1.0542c.05322-.42383-.16895-.83447-.55273-1.02246-.38574-.18848-.84473-.11035-1.14648.19141l-1.67773,1.67773c-1.24121,1.24121-2.87109,1.95361-4.61523,2.02344v-.99414c0-.4043-.24365-.76904-.61719-.92383-.37451-.15576-.8042-.06934-1.08984.2168l-4,4c-.39062.39062-.39062,1.02344,0,1.41406l3.99999,3.99999c.61815.61815,1.70705.163,1.70705-.70702v-1.05615ZM12.00002,25.00006c-.42871,0-.79443.27002-.93652.64893l-1.64941-1.64893,1.64941-1.64893c.14209.37891.50781.64893.93652.64893h.71533c2.02832,0,3.95312-.67139,5.52051-1.90918-1.13184,2.33008-3.52295,3.90918-6.23584,3.90918Z"/>
</svg>