<?xml version="1.0" encoding="UTF-8"?>
<svg id="Outline" xmlns="http://www.w3.org/2000/svg" version="1.1" viewBox="0 0 64 64">
  <!-- Generator: Adobe Illustrator 29.5.1, SVG Export Plug-In . SVG Version: 2.1.0 Build 141)  -->
  <path d="M55,28c.55,0,1-.45,1-1v-5c0-1.65-1.35-3-3-3h-11v-8c0-2.21-1.79-4-4-4H12c-2.21,0-4,1.79-4,4v13c0,.55.45,1,1,1s1-.45,1-1v-13c0-1.1.9-2,2-2h26c1.1,0,2,.9,2,2v8h-2v-6c0-1.1-.9-2-2-2h-6.38c-.77,0-1.45.42-1.8,1.11l-.44.89-4.76.01-.45-.91c-.34-.68-1.02-1.1-1.79-1.1h-6.38c-1.1,0-2,.9-2,2v38c0,1.1.9,2,2,2h22c1.1,0,2-.9,2-2v-6h2v8c0,1.1-.9,2-2,2H12c-1.1,0-2-.9-2-2v-25c0-.55-.45-1-1-1s-1,.45-1,1v25c0,2.21,1.79,4,4,4h26c2.21,0,4-1.79,4-4v-8h11c1.65,0,3-1.35,3-3v-11c0-.55-.45-1-1-1s-1,.45-1,1v11c0,.55-.45,1-1,1h-30c-.55,0-1-.45-1-1v-20c0-.55.45-1,1-1h30c.55,0,1,.45,1,1v5c0,.55.45,1,1,1ZM36,19h-13c-1.65,0-3,1.35-3,3v20c0,1.65,1.35,3,3,3h13v6H14V13l6.38-.01.45.91c.34.68,1.02,1.1,1.79,1.1h4.76c.77,0,1.45-.42,1.8-1.11l.44-.89h6.38v6Z"/>
  <path d="M38,30v-4c0-1.654-1.346-3-3-3h-8c-1.654,0-3,1.346-3,3v4c0,1.654,1.346,3,3,3h8c1.654,0,3-1.346,3-3ZM35,31h-5v-2h6v1c0,.551-.449,1-1,1ZM36,26v1h-6v-2h5c.551,0,1,.449,1,1ZM26,30v-4c0-.551.449-1,1-1h1v6h-1c-.551,0-1-.449-1-1Z"/>
  <path d="M24,38v2c0,.552.448,1,1,1s1-.448,1-1v-2c0-.552-.448-1-1-1s-1,.448-1,1Z"/>
  <path d="M28,38v2c0,.552.448,1,1,1s1-.448,1-1v-2c0-.552-.448-1-1-1s-1,.448-1,1Z"/>
  <path d="M32,38v2c0,.552.448,1,1,1s1-.448,1-1v-2c0-.552-.448-1-1-1s-1,.448-1,1Z"/>
  <path d="M46,35c-1.103,0-2,.897-2,2v2c0,1.103.897,2,2,2h4c1.103,0,2-.897,2-2v-2c0-1.103-.897-2-2-2h-4ZM46,39v-2h4v2s-4,0-4,0Z"/>
</svg>