<?xml version="1.0" encoding="UTF-8"?>
<svg id="Outline" xmlns="http://www.w3.org/2000/svg" version="1.1" viewBox="0 0 64 64">
  <!-- Generator: Adobe Illustrator 29.5.1, SVG Export Plug-In . SVG Version: 2.1.0 Build 141)  -->
  <path d="M54,21h-15v-2.59l2.71-2.7v-.01c.39.19.83.3,1.29.3,1.65,0,3-1.35,3-3s-1.35-3-3-3-3,1.35-3,3c0,.46.11.9.3,1.29h-.01l-3,3c-.18.19-.29.44-.29.71v3h-2v-3c0-.27-.11-.52-.29-.71l-3-3h-.01c.19-.39.3-.83.3-1.29,0-1.65-1.35-3-3-3s-3,1.35-3,3,1.35,3,3,3c.46,0,.9-.11,1.29-.3v.01l2.71,2.7v2.59h-17c-1.65,0-3,1.35-3,3v1h-3c-1.65,0-3,1.35-3,3v23c0,1.65,1.35,3,3,3h40c1.65,0,3-1.35,3-3v-2h1c1.65,0,3-1.35,3-3v-22c0-1.65-1.35-3-3-3ZM43,12c.55,0,1,.45,1,1s-.45,1-1,1-1-.45-1-1,.45-1,1-1ZM29,14c-.55,0-1-.45-1-1s.45-1,1-1,1,.45,1,1-.45,1-1,1ZM51,51c0,.55-.45,1-1,1H10c-.55,0-1-.45-1-1v-16h42v16ZM51,33H9v-2h42v2ZM51,29H9v-1c0-.55.45-1,1-1h40c.55,0,1,.45,1,1v1ZM55,46c0,.55-.45,1-1,1h-1v-19c0-1.65-1.35-3-3-3H15v-1c0-.55.45-1,1-1h38c.55,0,1,.45,1,1v22Z"/>
  <path d="M48,40h-12c-.552,0-1,.448-1,1v8c0,.552.448,1,1,1h12c.552,0,1-.448,1-1v-8c0-.552-.448-1-1-1ZM47,44h-4v-2h4v2ZM41,42v2h-4v-2h4ZM37,46h4v2h-4v-2ZM43,48v-2h4v2h-4Z"/>
  <path d="M32,48h-2c-.552,0-1,.448-1,1s.448,1,1,1h2c.552,0,1-.448,1-1s-.448-1-1-1Z"/>
  <path d="M26,48h-2c-.552,0-1,.448-1,1s.448,1,1,1h2c.552,0,1-.448,1-1s-.448-1-1-1Z"/>
  <path d="M20,48h-2c-.552,0-1,.448-1,1s.448,1,1,1h2c.552,0,1-.448,1-1s-.448-1-1-1Z"/>
  <path d="M14,48h-2c-.552,0-1,.448-1,1s.448,1,1,1h2c.552,0,1-.448,1-1s-.448-1-1-1Z"/>
</svg>