<?xml version="1.0" encoding="UTF-8"?>
<svg id="Outline" xmlns="http://www.w3.org/2000/svg" version="1.1" viewBox="0 0 64 64">
  <!-- Generator: Adobe Illustrator 29.0.0, SVG Export Plug-In . SVG Version: 2.1.0 Build 186)  -->
  <path d="M19.99945,47.0006h-8c-.55273,0-1,.44727-1,1s.44727,1,1,1h8c.55273,0,1-.44727,1-1s-.44727-1-1-1Z"/>
  <path d="M19.99945,51.0006h-8c-.55273,0-1,.44727-1,1s.44727,1,1,1h8c.55273,0,1-.44727,1-1s-.44727-1-1-1Z"/>
  <path d="M43.99945,47.0006h-4c-.55273,0-1,.44727-1,1v4c0,.55273.44727,1,1,1h4c.55273,0,1-.44727,1-1v-4c0-.55273-.44727-1-1-1ZM42.99945,51.0006h-2v-2h2v2Z"/>
  <path d="M35.99945,47.0006h-4c-.55273,0-1,.44727-1,1v4c0,.55273.44727,1,1,1h4c.55273,0,1-.44727,1-1v-4c0-.55273-.44727-1-1-1ZM34.99945,51.0006h-2v-2h2v2Z"/>
  <path d="M56.95948,31.1906l-2.33002-13.78003v-.01996c0-.01001-.01001-.01001-.01001-.02002l-.98999-5.88v-.02002s0-.01001-.01001-.01001l-.32001-1.94995c-.13-.80005-.57001-1.49005-1.22998-1.96002-.65002-.46002-1.45001-.64001-2.22998-.51001L14.34943,13.03056c-1.63.27002-2.73999,1.82001-2.46997,3.46002l2.12,12.51001h-4c-1.65002,0-3,1.34998-3,3v22c0,1.64996,1.34998,3,3,3h36c1.65002,0,3-1.35004,3-3v-18.41003l5.5-.92999c.78998-.14001,1.47998-.58002,1.94-1.22998.46997-.65002.65002-1.45001.52002-2.23999ZM52.48944,16.74059l-37.46997,6.32001-.66003-3.95001,37.46002-6.32001.66998,3.95001ZM13.85944,16.16057c-.08997-.54999.27002-1.06.82001-1.14996l35.5-5.99005c.26001-.04999.52002.01001.73999.16003.21002.15997.36005.39001.40002.65997l.16998.98004-37.46997,6.32001-.16003-.98004ZM46.99945,54.0006c0,.54999-.45001,1-1,1H9.99945c-.54999,0-1-.45001-1-1v-13h38v13ZM46.99945,39.0006H8.99945v-4h38v4ZM54.81946,32.27056c-.16003.22003-.39001.37006-.66003.41003l-5.15997.88v-1.56c0-1.65002-1.34998-3-3-3h-19c-.54999,0-1,.45001-1,1s.45001,1,1,1h19c.54999,0,1,.45001,1,1v1H8.99945v-1c0-.54999.45001-1,1-1h13c.54999,0,1-.45001,1-1s-.45001-1-1-1h-6.96997l-.68005-3.97003,37.47003-6.32001,2.15997,12.82001c.05005.26001-.01001.53003-.15997.73999Z"/>
</svg>