<?xml version="1.0" encoding="UTF-8"?>
<svg id="Outline" xmlns="http://www.w3.org/2000/svg" version="1.1" viewBox="0 0 48 48">
  <!-- Generator: Adobe Illustrator 29.0.0, SVG Export Plug-In . SVG Version: 2.1.0 Build 186)  -->
  <path d="M39.99999,19.49999h-3.66998l-1.66003-10.46002c-.13-.79999-.54999-1.5-1.20996-1.96997-.65002-.47003-1.44-.66003-2.23004-.53003l-23.69,3.76001c-.79999.13-1.5.54999-1.96997,1.21002-.47003.64996-.66003,1.44-.53003,2.22998l2.5,15.79999c.25,1.47003,1.53003,2.52002,2.97003,2.52002.15997,0,.31-.01001.46997-.03003l2.02002-.32001v6.79004c0,1.64996,1.34998,3,3,3h14c.54999,0,1-.45001,1-1s-.45001-1-1-1h-14c-.54999,0-1-.45001-1-1v-9h26v9c0,.54999-.45001,1-1,1h-6c-.54999,0-1,.45001-1,1s.45001,1,1,1h6c1.65002,0,3-1.35004,3-3v-16c0-1.65002-1.34998-3-3-3ZM12.99999,22.49999v7.17999l-2.33002.37c-.54999.09003-1.06-.28998-1.14996-.83002l-2.5-15.79999c-.05005-.26001.01996-.52997.16998-.73999.15997-.22003.39001-.35999.65997-.40002l23.70001-3.76001c.26001-.04999.53003.02002.73999.17004.22003.15997.36005.38995.40002.65997l1.62,10.15002H15.99999c-1.65002,0-3,1.34998-3,3ZM40.99999,23.49999h-15c-.54999,0-1,.45001-1,1s.45001,1,1,1h15v2H14.99999v-2h7c.54999,0,1-.45001,1-1s-.45001-1-1-1h-7v-1c0-.54999.45001-1,1-1h24c.54999,0,1,.45001,1,1v1Z"/>
  <path d="M33.99999,37.49999h4c.55225,0,1-.44775,1-1v-4c0-.55225-.44775-1-1-1h-4c-.55225,0-1,.44775-1,1v4c0,.55225.44775,1,1,1ZM34.99999,33.49999h2v2h-2v-2Z"/>
  <path d="M29.99999,31.49999h-12c-.55225,0-1,.44775-1,1v4c0,.55225.44775,1,1,1h12c.55225,0,1-.44775,1-1v-4c0-.55225-.44775-1-1-1ZM28.99999,35.49999h-10v-2h10v2Z"/>
  <path d="M26.71678,17.36669c.05225,0,.10498-.00391.1582-.01221l3.95068-.62695c.54541-.08691.91748-.59912.83105-1.14453l-.62695-3.95068c-.08643-.54541-.59619-.91455-1.14453-.83105l-3.95068.62695c-.54541.08691-.91748.59912-.83105,1.14453l.62695,3.95068c.07812.49219.50342.84326.98633.84326ZM29.21093,12.93358l.31348,1.9751-1.9751.31348-.31348-1.9751,1.9751-.31348Z"/>
</svg>