<?xml version="1.0" encoding="UTF-8"?>
<svg id="Outline" xmlns="http://www.w3.org/2000/svg" version="1.1" viewBox="0 0 48 48">
  <!-- Generator: Adobe Illustrator 29.5.1, SVG Export Plug-In . SVG Version: 2.1.0 Build 141)  -->
  <path d="M40,5h-24c-1.65,0-3,1.35-3,3v16c0,.35.07.69.18,1h-2.4l-.81-3.24c-.11-.45-.51-.76-.97-.76h-3c-.55,0-1,.45-1,1s.45,1,1,1h2.22l.5,2h-.72c-.31,0-.6.14-.79.38-.19.25-.25.56-.18.86l1.9,7.6c-.57.54-.93,1.31-.93,2.16,0,1.38.95,2.54,2.22,2.88-.14.35-.22.73-.22,1.12,0,1.65,1.35,3,3,3s3-1.35,3-3c0-.35-.07-.69-.18-1h4.36c-.11.31-.18.65-.18,1,0,1.65,1.35,3,3,3s3-1.35,3-3-1.35-3-3-3h-12c-.55,0-1-.45-1-1s.45-1,1-1h13c.46,0,.86-.31.97-.76l1.81-7.24h13.22c1.65,0,3-1.35,3-3V8c0-1.65-1.35-3-3-3ZM23,39c.55,0,1,.45,1,1s-.45,1-1,1-1-.45-1-1,.45-1,1-1ZM13,39c.55,0,1,.45,1,1s-.45,1-1,1-1-.45-1-1,.45-1,1-1ZM23.22,33h-12.44l-1.5-6h15.44l-1.5,6ZM41,24c0,.55-.45,1-1,1h-24c-.55,0-1-.45-1-1v-9h26v9ZM41,13H15v-2h26v2ZM41,9H15v-1c0-.55.45-1,1-1h24c.55,0,1,.45,1,1v1Z"/>
  <path d="M20,21h-2c-.553,0-1,.447-1,1s.447,1,1,1h2c.553,0,1-.447,1-1s-.447-1-1-1Z"/>
  <path d="M26,21h-2c-.553,0-1,.447-1,1s.447,1,1,1h2c.553,0,1-.447,1-1s-.447-1-1-1Z"/>
</svg>