<?xml version="1.0" encoding="UTF-8"?>
<svg id="Outline" xmlns="http://www.w3.org/2000/svg" version="1.1" viewBox="0 0 64 64">
  <!-- Generator: Adobe Illustrator 29.5.1, SVG Export Plug-In . SVG Version: 2.1.0 Build 141)  -->
  <path d="M31.804,43.568l-1.571-4.489c-.358-1.284-1.544-2.181-2.883-2.181h-2.49c-.553,0-1,.448-1,1s-.448,1-1,1-1-.449-1-1-.447-1-1-1h-2.49c-1.339,0-2.524.897-2.864,2.12l-1.59,4.55c-.166.476.048,1,.498,1.225l3.031,1.511-.571,3.429c-.049.29.033.586.224.811.189.224.469.354.763.354h10c.294,0,.573-.129.763-.354.19-.225.272-.521.224-.811l-.617-3.703,3.003-1.204c.496-.199.748-.753.572-1.258ZM27.904,44.006l-.065-.312c-.112-.533-.632-.878-1.163-.778-.535.101-.892.61-.802,1.147l.806,4.835h-7.639l.806-4.835c.091-.545-.277-1.06-.822-1.151-.546-.09-1.061.277-1.15.822l-.085.507-1.694-.845,1.318-3.779c.118-.423.512-.719.957-.719h1.661c.413,1.164,1.525,2,2.829,2s2.416-.836,2.829-2h1.661c.445,0,.839.296.976.78l1.274,3.647-1.696.68Z"/>
  <path d="M56.12,9.968c-.52-.6-1.25-.97-2.05-1.03l-25.93-1.83c-1.64-.11-3.09,1.13-3.21,2.79l-.77,11h-6.3c-.27,0-.52.11-.71.29,0,0-4,4-4,4.01-.004.1-.135.181-.18.264-.069.128-.11.29-.11.435v5.1c-1.15.28-2.05,1.16-2.22,2.27l-3.47,20.47c-.11.75.11,1.52.62,2.11.58.67,1.43,1.05,2.35,1.05h3.72c.55,0,1-.45,1-1s-.45-1-1-1h-3.72c-.33,0-.64-.13-.83-.35-.09-.11-.2-.28-.16-.49l3.47-20.47c.06-.39.49-.69.99-.69h18.5c.5,0,.93.3.99.71l3.47,20.43c.04.23-.07.4-.16.51-.19.22-.5.35-.83.35h-13.72c-.55,0-1,.45-1,1s.45,1,1,1h13.72c.92,0,1.77-.38,2.35-1.05.51-.59.73-1.36.62-2.13l-3.47-20.43c-.17-1.12-1.07-2.01-2.22-2.29v-1.5l19.66,1.39c.07,0,.14.01.22.01,1.55,0,2.87-1.21,2.99-2.79l1.12-15.96c.06-.8-.2-1.57-.73-2.18ZM18.27,22.898h9.18l2,2h-13.18l2-2ZM16.86,30.898h-2v-4h2v4ZM26.86,30.898h-8v-4h8v4ZM30.86,30.898h-2v-4h2v4ZM53.73,27.968c-.04.55-.53.97-1.07.92l-19.8-1.39v-1.6c0-.02-.01-.04-.01-.06,0-.215-.128-.498-.28-.65l-4-4c-.19-.18-.44-.29-.71-.29h-1.7l.28-3.88,27.92,1.98-.63,8.97ZM54.5,16.998l-27.92-1.98.14-1.99,27.92,1.97-.14,2ZM54.78,13.008l-27.92-1.98.07-.99c.04-.56.52-.98,1.07-.93l25.93,1.83c.26.02.51.14.68.34.18.2.26.46.24.73l-.07,1Z"/>
  <circle cx="17.86" cy="55.898" r="1"/>
</svg>