<?xml version="1.0" encoding="UTF-8"?>
<svg id="Outline" xmlns="http://www.w3.org/2000/svg" version="1.1" viewBox="0 0 64 64">
  <!-- Generator: Adobe Illustrator 29.5.1, SVG Export Plug-In . SVG Version: 2.1.0 Build 141)  -->
  <path d="M54.953,20.791c-4.518-8.507-13.312-13.791-22.953-13.791s-18.436,5.284-22.953,13.791c-.164.308-.155.678.021.978l8.703,14.735c-.416.2-.834.396-1.242.613-.266.142-.453.396-.511.69-.058.296.021.602.213.833l15,18c.19.228.472.359.769.359s.578-.132.769-.359l6.4-7.68c.354-.425.296-1.056-.128-1.409-.426-.353-1.056-.296-1.409.128l-5.632,6.759-13.429-16.114c4.177-2.015,8.793-3.074,13.429-3.074s9.252,1.06,13.429,3.074l-5.228,6.276c-.354.424-.296,1.055.129,1.408.424.354,1.055.295,1.408-.129l6.03-7.24c.192-.23.271-.536.213-.832-.058-.295-.245-.549-.511-.69-.408-.217-.825-.414-1.241-.613l2.941-4.976c.28-.476.123-1.089-.353-1.37-.474-.278-1.087-.122-1.37.353l-3.061,5.178c-3.581-1.454-7.406-2.271-11.269-2.404.848-6.964,6.753-12.285,13.882-12.285,1.855,0,3.698.395,5.407,1.111l-2.918,4.94c-.28.476-.123,1.089.353,1.37.479.279,1.09.123,1.37-.353l3.721-6.3c.177-.3.186-.67.021-.978ZM32,9c3.145,0,6.189.618,9,1.752v.748c0,.827-.673,1.5-1.5,1.5-1.93,0-3.5,1.57-3.5,3.5v.808c0,.617-.37,1.164-.942,1.393l-1.05.42c-.884.354-1.57,1.031-1.935,1.91-.363.879-.357,1.844.018,2.719l1.252,2.919c-.532.871-.983,1.795-1.342,2.767-2.263-6.119-8.136-10.436-15-10.436-1.719,0-3.435.288-5.065.832,4.406-6.732,11.908-10.832,20.065-10.832ZM11.593,22.111c1.709-.716,3.552-1.111,5.407-1.111,7.129,0,13.034,5.321,13.882,12.285-3.863.133-7.688.95-11.269,2.404l-8.02-13.578ZM34.704,24.77l-.776-1.81c-.16-.374-.163-.788-.008-1.164.156-.377.45-.667.829-.818l1.05-.42c1.337-.535,2.2-1.811,2.2-3.25v-.808c0-.827.673-1.5,1.5-1.5,1.875,0,3.399-1.487,3.484-3.341,3.638,1.871,6.782,4.661,9.081,8.173-1.63-.543-3.346-.832-5.065-.832-4.937,0-9.356,2.24-12.296,5.77Z"/>
  <path d="M23,19c1.654,0,3-1.346,3-3s-1.346-3-3-3-3,1.346-3,3,1.346,3,3,3ZM23,15c.552,0,1,.448,1,1s-.448,1-1,1-1-.448-1-1,.448-1,1-1Z"/>
  <path d="M31,17c1.654,0,3-1.346,3-3s-1.346-3-3-3-3,1.346-3,3,1.346,3,3,3ZM31,13c.552,0,1,.448,1,1s-.448,1-1,1-1-.448-1-1,.448-1,1-1Z"/>
</svg>