<?xml version="1.0" encoding="UTF-8"?>
<svg id="Outline" xmlns="http://www.w3.org/2000/svg" version="1.1" viewBox="0 0 64 64">
  <!-- Generator: Adobe Illustrator 29.5.1, SVG Export Plug-In . SVG Version: 2.1.0 Build 141)  -->
  <path d="M55.84101,38.969c-.39062-.25-.90381-.19922-1.23779.12402-3.75098,3.6416-8.68848,5.64746-13.90332,5.64746-11.02783,0-20-8.97217-20-20,0-6.13818,2.77783-11.85938,7.62109-15.69629.36377-.28809.48145-.78906.28369-1.20898-.19727-.42041-.65918-.65234-1.1123-.55273-11.46826,2.43066-19.79248,12.7168-19.79248,24.45801,0,5.6015,1.89154,10.99359,5.32593,15.3808-.74194.34827-1.37317.9165-1.78784,1.64557-1.98877.22998-3.53809,1.92432-3.53809,3.97363,0,2.20557,1.79443,4,4,4h16c.49731,0,.96869-.10242,1.40833-.26904,1.18713.17249,2.39264.26904,3.59167.26904,10.54102,0,20.00195-6.66895,23.54199-16.59424.15625-.43799-.01025-.92578-.40088-1.17725ZM11.6999,54.74048c-1.10303,0-2-.89697-2-2,0-1.09912.8916-1.99414,2.00098-1.99414h.01074c.48047.07959.95117-.19531,1.1123-.65527.396-1.13232,1.74121-1.7124,2.85107-1.08154.46533.26611,1.0542.11572,1.34033-.33545.36914-.58447.99902-.93359,1.68457-.93359.83789,0,1.57324.51807,1.87354,1.32031.12207.32568.4043.56494.74609.63086.34131.06836.69336-.04932.92822-.30615.375-.41016.9043-.64502,1.45215-.64502.89551,0,1.68262.60693,1.91357,1.47656.07324.27637.26172.5083.51709.63672.25635.12891.5542.14258.81982.03516,1.33984-.53223,2.75.49463,2.74951,1.85156,0,1.10303-.89697,2-2,2H11.6999ZM32.6999,54.74048c-.50726,0-1.01605-.02576-1.52405-.05957.32373-.57727.52405-1.23285.52405-1.94043,0-2.20557-1.79443-4-4-4-.17725,0-.354.01221-.5293.03613-.69238-1.23438-2.00928-2.03613-3.4707-2.03613-.66846,0-1.32227.17188-1.90088.48926-.74951-.92188-1.88428-1.48926-3.09912-1.48926-1.08057,0-2.09082.43018-2.83203,1.18066-.17297-.05481-.349-.09369-.52649-.1236-3.63318-4.1853-5.64148-9.51233-5.64148-15.05707,0-9.41016,5.81055-17.8042,14.28271-21.28955-3.39453,3.95557-5.28271,8.98047-5.28271,14.28955,0,12.13086,9.86914,22,22,22,4.28613,0,8.40137-1.23096,11.9292-3.52344-4.05078,7.02539-11.62549,11.52344-19.9292,11.52344Z"/>
  <path d="M44.8415,26.2273l-1.95703,3.27197-3.71631.8501c-.34277.07812-.61914.33105-.72803.66553-.1084.33447-.03369.70166.19775.9668l2.50684,2.87207-.33984,3.79736c-.03125.35059.12354.69141.4082.89844.28467.20605.65674.24854.98047.11084l3.50635-1.49707s3.50635,1.49707,3.50636,1.49707c.68582.2924,1.45486-.26663,1.38866-1.00928l-.33984-3.79736,2.50684-2.87207c.23145-.26514.30615-.63232.19775-.9668-.10889-.33447-.38525-.5874-.72803-.66553l-3.71631-.8501-1.95703-3.27197c-.36133-.60449-1.35547-.60449-1.7168,0ZM47.65302,31.35327l2.50293.57275-1.68848,1.93408c-.1792.20557-.26709.4751-.24268.74707l.229,2.55713-2.36133-1.0083c-.12549-.05322-.25879-.08008-.39258-.08008s-.26709.02686-.39258.08008l-2.36133,1.0083.229-2.55713c.02441-.27197-.06348-.5415-.24268-.74707l-1.68848-1.93408,2.50293-.57275c.26562-.06055.49512-.22705.63525-.46143l1.31787-2.20312,1.31787,2.20312c.14014.23438.36963.40088.63525.46143Z"/>
  <path d="M24.16816,26.34937c-.34277.07812-.61914.33105-.72803.66553-.1084.33447-.03369.70166.19775.9668l2.50684,2.87207-.33984,3.79736c-.03125.35059.12354.69141.4082.89844.28516.20605.65723.24854.98047.11084l3.50635-1.49707,3.50635,1.49707c.12581.05364.25941.08001.39205.08008.55144.00029,1.04857-.50646.99662-1.08936l-.33984-3.79736,2.50684-2.87207c.23145-.26514.30615-.63232.19775-.9668-.10889-.33447-.38525-.5874-.72803-.66553l-3.71631-.8501-1.95703-3.27197c-.36133-.60449-1.35547-.60449-1.7168,0l-1.95703,3.27197-3.71631.8501ZM29.38203,26.89185l1.31787-2.20312,1.31787,2.20312c.14014.23438.36963.40088.63525.46143l2.50293.57275-1.68848,1.93408c-.1792.20557-.26709.4751-.24268.74707l.229,2.55713-2.36133-1.0083c-.12549-.05322-.25879-.08008-.39258-.08008s-.26709.02686-.39258.08008l-2.36133,1.0083.229-2.55713c.02441-.27197-.06348-.5415-.24268-.74707l-1.68848-1.93408,2.50293-.57275c.26562-.06055.49512-.22705.63525-.46143Z"/>
  <path d="M35.14472,18.85376l-.33984,3.79736c-.03125.35059.12354.69141.4082.89844.28418.20703.65771.24854.98047.11084l3.50635-1.49707,3.50635,1.49707c.12589.05367.25958.08004.3923.08008.58302.00016,1.04808-.50926.99637-1.08936l-.33984-3.79736,2.50684-2.87207c.23145-.26514.30615-.63232.19775-.9668-.10889-.33447-.38525-.5874-.72803-.66553l-3.71631-.8501-1.95703-3.27197c-.36133-.60449-1.35547-.60449-1.7168,0l-1.95703,3.27197-3.71631.8501c-.34277.07812-.61914.33105-.72803.66553-.1084.33447-.03369.70166.19775.9668l2.50684,2.87207ZM37.74677,15.35327c.26562-.06055.49512-.22705.63525-.46143l1.31787-2.20312,1.31787,2.20312c.14014.23438.36963.40088.63525.46143l2.50293.57275-1.68848,1.93408c-.1792.20557-.26709.4751-.24268.74707l.229,2.55713-2.36133-1.0083c-.12549-.05322-.25879-.08008-.39258-.08008s-.26709.02686-.39258.08008l-2.36133,1.0083.229-2.55713c.02441-.27197-.06348-.5415-.24268-.74707l-1.68848-1.93408,2.50293-.57275Z"/>
</svg>