<?xml version="1.0" encoding="UTF-8"?>
<svg id="Outline" xmlns="http://www.w3.org/2000/svg" version="1.1" viewBox="0 0 64 64">
  <!-- Generator: Adobe Illustrator 29.3.1, SVG Export Plug-In . SVG Version: 2.1.0 Build 151)  -->
  <path d="M56.29004,22.56132c-.89191-1.33832-2.16693-2.35034-3.64728-2.93066.06372-.85522-.23975-1.7132-.86835-2.3418-2.14648-2.14648-4.85449-3.59619-7.83203-4.19141l-.3656-.07324c.02332-.72589-.20282-1.43921-.67639-2.00879-.57324-.69092-1.41504-1.08691-2.31055-1.08691h-5.58984c-.55273,0-1,.44775-1,1s.44727,1,1,1h5.58984c.29883,0,.58008.13281.77148.36426.11328.13525.29004.42236.21582.82178l-2.25,11.99609c-.09082.47412-.50586.81787-.9873.81787h-12.67969c-.48145,0-.89648-.34375-.9873-.81396l-2.25-12c-.07422-.39941.10254-.68652.21582-.82178.19141-.23145.47266-.36426.77148-.36426h3.58984c.55273,0,1-.44775,1-1s-.44727-1-1-1h-3.58984c-.89551,0-1.7373.396-2.31055,1.08691-.47357.56958-.69971,1.2829-.67639,2.00879l-.3656.07324c-2.97754.59521-5.68555,2.04492-7.83203,4.19141-.62878.62878-.93219,1.48694-.86871,2.34192-1.48022.58026-2.75507,1.59229-3.64691,2.93005-.46484.69629-.70996,1.50684-.70996,2.34424v6.17285c0,.86133.52539,1.60205,1.33799,1.88724.80139.28114,1.6942.02527,2.22451-.63822,1.29297-1.61768,3.11426-2.78027,5.12695-3.27441l.11566-.02844c.40613.19696.85449.30481,1.31305.30481.37012,0,.74609-.06885,1.11035-.21436l.58105-.23291c1.58105-.63232,3.24609-.95312,4.94922-.95312h1.24121v-.08228c.21411.04852.43311.08228.66016.08228h12.67969c.22705,0,.44604-.03375.66016-.08228v.08228h1.24121c1.70312,0,3.36816.3208,4.94922.95361l.58105.23242c.36426.14551.74023.21436,1.11035.21436.45862,0,.90704-.10797,1.31323-.30499l.11646.02863c2.01165.49412,3.83288,1.65666,5.12584,3.27473,1.15335,1.44336,3.56264.59232,3.56264-1.24934v-6.17285c0-.8374-.24512-1.64795-.70996-2.34375ZM9,31.07792v-6.17285c0-.44092.12891-.86768.37402-1.23438.63904-.95898,1.54694-1.6842,2.59668-2.12323l2.33026,5.82782c-2.07391.69818-3.93134,1.98999-5.30096,3.70264ZM18.06738,27.0247l-.58105.23242c-.50879.20557-1.0957-.04492-1.30078-.55664l-2.7666-6.91943c-.14941-.37158-.0625-.79443.2207-1.07812,1.86621-1.86621,4.22168-3.12646,6.81055-3.64453l.29218-.05853,1.96564,10.48676c.0321.16785.0799.32916.138.48505-1.64014.09705-3.24524.43964-4.77863,1.05304ZM46.51367,27.25712l-.58105-.23193c-1.53357-.61395-3.13898-.95648-4.77936-1.05359.05853-.15698.10651-.3197.13873-.48889l1.96552-10.48285.2923.05853c2.58887.51807,4.94434,1.77832,6.81055,3.64453.2832.28369.37012.70654.2207,1.0791l-2.7666,6.91797c-.20508.51318-.78809.76172-1.30078.55713ZM55,31.07792c-1.36981-1.71289-3.22754-3.00476-5.30109-3.70294l2.32996-5.8277c1.04993.43896,1.95795,1.16437,2.59711,2.1239.24512.36621.37402.79297.37402,1.23389v6.17285Z"/>
  <path d="M56.28998,43.55851c-.88995-1.34003-2.16998-2.35004-3.64996-2.92999.07001-.85004-.23999-1.71002-.87-2.34003-2.14001-2.15002-4.85004-3.59998-7.83002-4.19l-.37-.07001c.02997-.72998-.20001-1.45001-.66998-2.02002-.57001-.67999-1.41003-1.07996-2.31-1.07996h-17.18005c-.89996,0-1.73999.39996-2.31,1.07996-.46997.57001-.69995,1.29004-.66998,2.02002l-.37.07001c-2.97998.59003-5.69,2.03998-7.83002,4.19-.63.63-.94,1.48999-.87,2.34003-1.47998.57996-2.76001,1.58997-3.64996,2.92999-.46002.69995-.71002,1.51001-.71002,2.34998v6.16998c0,.86005.53003,1.60004,1.34016,1.89006.80656.25664,1.6822.02992,2.21983-.64006,1.29999-1.61999,3.12-2.77997,5.13-3.27997l.12-.02002c.40002.19.84998.29999,1.31.29999.37,0,.73999-.07001,1.10999-.20996l.58002-.23999c1.58002-.63,3.25-.95001,4.95001-.95001h1.23999v-.08002c.21002.04999.42999.08002.65997.08002h12.68005c.22998,0,.44995-.03003.65997-.08002v.08002h1.23999c1.70001,0,3.37.32001,4.95001.95001l.58002.23999c.37.13995.73999.20996,1.10999.20996.46002,0,.90997-.10999,1.32001-.29999l.10999.02002c2.00998.49999,3.82995,1.65993,5.12994,3.27988.5341.66556,1.41901.89503,2.22004.6401.81-.28998,1.34003-1.02997,1.34003-1.89001v-6.16998c0-.83997-.25-1.65002-.71002-2.34998ZM9,52.07847v-6.16998c0-.44.13-.87.37-1.23999.64001-.96002,1.54999-1.67999,2.59998-2.12l2.33002,5.83002c-2.07001.69-3.92999,1.98999-5.29999,3.69995ZM18.07001,48.02848l-.58002.22998c-.51001.20001-1.09998-.04999-1.29999-.56l-2.77002-6.91998c-.14996-.37-.06-.78998.22003-1.08002,1.87-1.85999,4.21997-3.12,6.81-3.63995l.29999-.06,1.96002,10.47998c.02997.16998.07996.34003.13995.48999-1.63995.10004-3.25.44-4.77997,1.06ZM39.32001,46.11851c-.09003.46997-.5.81-.97998.81h-12.68005c-.47998,0-.88995-.34003-.97998-.82001l-2.25-12c-.08002-.40002.10004-.67999.21002-.82001.10999-.13.35999-.35999.76996-.35999h17.18005c.40997,0,.65997.22998.76996.35999.10999.14001.29004.41998.21002.82001l-2.25,12.01001ZM47.81,47.69847c-.20001.51001-.77997.76001-1.29999.56l-.58002-.22998c-1.52997-.62-3.14001-.95996-4.77997-1.06.06-.14996.10999-.32001.13995-.48999l1.96002-10.47998.29999.06c2.59003.51996,4.94,1.77997,6.81,3.63995.28003.29004.37.71002.22003,1.08002l-2.77002,6.91998ZM55,52.07847c-1.37-1.70996-3.22998-3.00995-5.29999-3.69995l2.33002-5.83002c1.04999.44,1.95996,1.15997,2.59998,2.12.23999.37.37.79999.37,1.23999v6.16998Z"/>
  <circle cx="31" cy="10.92851" r="1"/>
</svg>