<?xml version="1.0" encoding="UTF-8"?>
<svg id="Outline" xmlns="http://www.w3.org/2000/svg" version="1.1" viewBox="0 0 64 64">
  <!-- Generator: Adobe Illustrator 29.0.0, SVG Export Plug-In . SVG Version: 2.1.0 Build 186)  -->
  <path d="M38,19c-1.70874,0-3.38898.23346-5.01617.68115-.17151-7.0199-5.92346-12.68115-12.98383-12.68115-7.16797,0-13,5.83203-13,13,0,7.06036,5.66125,12.81232,12.68115,12.98383-.44769,1.6272-.68115,3.30743-.68115,5.01617,0,10.47656,8.52344,19,19,19s19-8.52344,19-19-8.52344-19-19-19ZM9,20c0-6.06543,4.93457-11,11-11s11,4.93457,11,11-4.93457,11-11,11-11-4.93457-11-11ZM38,55c-9.37402,0-17-7.62598-17-17,0-1.76068.28296-3.48511.81372-5.14172.79498-.11176,1.56732-.29053,2.30975-.53979-.73535,1.79108-1.12347,3.71222-1.12347,5.68152,0,8.27148,6.72852,15,15,15s15-6.72852,15-15c0-2.50781-.63379-4.99121-1.83301-7.18066-.26465-.48438-.87305-.66309-1.35742-.39648-.48438.26465-.66211.87305-.39648,1.35742,1.03809,1.89551,1.58691,4.04688,1.58691,6.21973,0,7.16797-5.83203,13-13,13s-13-5.83203-13-13c0-2.56079.74756-5.03027,2.15588-7.15796,1.46265-.96863,2.71753-2.22351,3.68616-3.68616,2.12769-1.40833,4.59717-2.15588,7.15796-2.15588,2.17285,0,4.32422.54883,6.21973,1.58691.48438.26758,1.09277.08691,1.35742-.39648.26562-.48438.08789-1.09277-.39648-1.35742-2.18945-1.19922-4.67285-1.83301-7.18066-1.83301-1.9693,0-3.89044.38812-5.68152,1.12347.24927-.74243.42804-1.51477.53979-2.30975,1.65662-.53076,3.38104-.81372,5.14172-.81372,9.37402,0,17,7.62598,17,17s-7.62598,17-17,17Z"/>
  <path d="M45.77734,30.22266c-1.16992-1.16992-3.07227-1.16992-4.24219,0l-3.53516,3.53516-3.53516-3.53516c-1.16992-1.16992-3.07227-1.16992-4.24219,0s-1.16992,3.07227,0,4.24219l3.53516,3.53516-3.53516,3.53516c-1.16992,1.16992-1.16992,3.07227,0,4.24219s3.07227,1.16992,4.24219,0l3.53516-3.53516,3.53516,3.53516c1.1399,1.1399,3.08066,1.16152,4.24219,0,1.16992-1.16992,1.16992-3.07227,0-4.24219l-3.53516-3.53516,3.53516-3.53516c1.16992-1.16992,1.16992-3.07227,0-4.24219ZM44.36328,33.05078l-4.24219,4.24219c-.39062.39062-.39062,1.02344,0,1.41406l4.24219,4.24219c.38965.38965.38965,1.02441,0,1.41406-.39062.39062-1.02344.39062-1.41406,0l-4.24219-4.24219c-.19531-.19531-.45117-.29297-.70703-.29297s-.51172.09766-.70703.29297l-4.24219,4.24219c-.39062.39062-1.02344.39062-1.41406,0-.38965-.38965-.38965-1.02441,0-1.41406l4.24219-4.24219c.39062-.39062.39062-1.02344,0-1.41406l-4.24219-4.24219c-.38965-.38965-.38965-1.02441,0-1.41406.39062-.39062,1.02344-.39062,1.41406,0l4.24219,4.24219c.39062.39062,1.02344.39062,1.41406,0l4.24219-4.24219c.39062-.39062,1.02344-.39062,1.41406,0,.38965.38965.38965,1.02441,0,1.41406Z"/>
  <path d="M24.01074,27.77344c.29787.15655.75532.14175,1.05371-.07617.30762-.22363.46191-.60254.39746-.97754l-.7666-4.4668,3.24609-3.16309c.27246-.26562.37012-.66309.25293-1.02441-.11816-.3623-.43066-.62598-.80762-.68066l-4.48438-.65234-2.00586-4.06348c-.33594-.68359-1.45703-.68359-1.79297,0l-2.00586,4.06348-4.48438.65234c-.37695.05469-.68945.31836-.80762.68066-.11719.36133-.01953.75879.25293,1.02441l3.24609,3.16309-.7666,4.4668c-.06445.375.08984.75391.39746.97754.30859.22559.71777.25488,1.05371.07617l4.01074-2.1084s3.99275,2.09894,4.01074,2.1084ZM16.85156,25.06055l.5127-2.9873c.05566-.32422-.05176-.65527-.28711-.88477l-2.1709-2.11621,2.99902-.43652c.32617-.04688.60742-.25195.75293-.54688l1.3418-2.71777,1.3418,2.71777c.14551.29492.42676.5.75293.54688l2.99902.43652-2.1709,2.11621c-.23536.22949-.34277.56055-.28711.88477l.5127,2.9873-2.68262-1.41016c-.14648-.07715-.30566-.11523-.46582-.11523s-.31934.03809-.46582.11523l-2.68262,1.41016Z"/>
  <path d="M47.19238,27.39337c-.3905.39056-.3905,1.02368,0,1.41425.3905.3905,1.02368.3905,1.41425,0,.3905-.39056.3905-1.02368,0-1.41425-.39056-.3905-1.02374-.3905-1.41425,0Z"/>
</svg>