<?xml version="1.0" encoding="UTF-8"?>
<svg id="Outline" xmlns="http://www.w3.org/2000/svg" version="1.1" viewBox="0 0 64 64">
  <!-- Generator: Adobe Illustrator 29.0.0, SVG Export Plug-In . SVG Version: 2.1.0 Build 186)  -->
  <path d="M56.84322,29.19339c-1.27148-11.47217-10.52148-20.72217-21.99414-21.99365-7.22021-.79688-14.15381,1.41016-19.52051,6.2168-5.29346,4.74121-8.32959,11.53027-8.32959,18.62744,0,6.3335,2.34717,12.31592,6.63037,16.95508l-1.42725,1.42773c-.28613.28613-.37158.71582-.2168,1.08984.15479.37354.51953.61719.92383.61719h7.06982c.55225,0,1-.44775,1-1v-7.06982c0-.4043-.24365-.76904-.61719-.92383-.375-.15527-.80371-.06934-1.08984.2168l-1.39502,1.39453c-3.15332-3.49512-4.87793-7.96973-4.87793-12.70752,0-5.25635,2.10693-10.1499,5.93311-13.77881,3.82568-3.62793,8.84277-5.46777,14.104-5.19287,9.54492.50244,17.42236,8.38037,17.93408,17.93506.5459,10.26221-7.02295,19.02979-17.22803,19.96045-1.53807.13379-2.74314,1.44138-2.74316,2.97603-.00003,1.66153,1.55078,3.14945,3.23877,3.0064,6.73486-.60059,12.81348-3.82715,17.11621-9.08496,4.2915-5.24365,6.24072-11.875,5.48926-18.67188ZM49.80611,46.59866c-3.95898,4.83788-9.55028,7.80663-15.7446,8.35937-.57732.05151-1.06252-.45012-1.06253-1.01415,0-.50059.4113-.93971.9209-.98389,11.28418-1.02881,19.65088-10.71826,19.04736-22.05908-.56543-10.5625-9.27393-19.27051-19.82568-19.82568-.38477-.02051-.76758-.03076-1.1499-.03076-5.39844,0-10.48828,2.02539-14.43555,5.76953-4.22852,4.01074-6.55713,9.41943-6.55713,15.22998,0,5.60596,2.18506,10.87891,6.15283,14.84717.1875.1875.44189.29297.70703.29297s.51953-.10547.70703-.29297l.41309-.41309v3.65576h-3.65576l.41309-.41309c.39014-.39014.39062-1.02295.00098-1.41357-4.34521-4.35449-6.73828-10.12988-6.73828-16.26318,0-6.5293,2.79346-12.77539,7.66406-17.13721,4.9375-4.42236,11.31592-6.45654,17.96582-5.71875,10.55078,1.16895,19.05713,9.67529,20.22607,20.22559.69238,6.25781-1.10059,12.36084-5.04883,17.18506Z"/>
  <path d="M20.91011,25.19681c-.48975-.25537-1.09473-.06348-1.34814.42627-1.03711,1.99561-1.56299,4.15576-1.56299,6.4209,0,7.71973,6.28027,14,14,14s14-6.28027,14-14-6.28027-14-14-14c-2.26514,0-4.42529.52588-6.4209,1.56299-.49023.25439-.68115.8584-.42627,1.34814.25391.48975.85938.68115,1.34814.42627,1.70801-.88721,3.55811-1.3374,5.49902-1.3374,6.6167,0,12,5.3833,12,12s-5.3833,12-12,12-12-5.3833-12-12c0-1.94092.4502-3.79102,1.3374-5.49902.25488-.48975.06396-1.09375-.42627-1.34814Z"/>
  <path d="M24.08998,36.99004c-.00062.77735.27768,1.55641.84211,2.12083,1.13281,1.13281,3.10938,1.13281,4.24219,0l2.82471-2.82471,2.82471,2.82471c1.15666,1.15666,3.087,1.15511,4.24212.00007,1.14464-1.14456,1.1401-3.10222.00007-4.24226l-2.82471-2.82471,2.8247-2.8247c1.14866-1.14866,1.14447-3.09772,0-4.24219-1.13281-1.13281-3.10938-1.13281-4.24219,0l-2.82471,2.82471-2.82471-2.82471c-1.13279-1.13279-3.1093-1.13281-4.24213-.00006-1.15182,1.15175-1.1481,3.0942-.00006,4.24225l2.82471,2.82471-2.8247,2.8247c-.55834.55834-.8415,1.33899-.84212,2.12136ZM26.34615,36.28275l3.53174-3.53174c.39062-.39062.39062-1.02344,0-1.41406l-3.53174-3.53174c-.38965-.38965-.38965-1.02441,0-1.41406s1.02441-.38965,1.41406,0l3.53174,3.53174c.39062.39062,1.02344.39062,1.41406,0l3.53174-3.53174c.38965-.38965,1.02441-.38965,1.41406,0s.38965,1.02441,0,1.41406l-3.53174,3.53174c-.39062.39062-.39062,1.02344,0,1.41406l3.53174,3.53174c.38965.38965.38965,1.02441,0,1.41406s-1.02441.38965-1.41406,0l-3.53174-3.53174c-.19531-.19531-.45117-.29297-.70703-.29297s-.51172.09766-.70703.29297l-3.53174,3.53174c-.38965.38965-1.02441.38965-1.41406,0s-.38965-1.02441,0-1.41406Z"/>
  <path d="M23.51369,23.55869c.3905-.3905.3905-1.02368,0-1.41425-.3905-.3905-1.02368-.3905-1.41418,0-.39056.39056-.39056,1.02374,0,1.41425.3905.3905,1.02368.3905,1.41418,0Z"/>
</svg>