<?xml version="1.0" encoding="UTF-8"?>
<svg id="Outline" xmlns="http://www.w3.org/2000/svg" version="1.1" viewBox="0 0 64 64">
  <!-- Generator: Adobe Illustrator 29.5.1, SVG Export Plug-In . SVG Version: 2.1.0 Build 141)  -->
  <path d="M55,51.18v-3.18c0-.55-.45-1-1-1s-1,.45-1,1v3H11v-10h42v3c0,.55.45,1,1,1s1-.45,1-1v-3.18c1.16-.42,2-1.52,2-2.82,0-.81-.32-1.57-.87-2.11-.46-.47-1.06-.76-1.7-.85,1.52-4.38,1.51-9.14-.09-13.54l-.72-1.98c.83-.53,1.38-1.46,1.38-2.52,0-1.65-1.35-3-3-3s-3,1.35-3,3c0,.76.29,1.44.76,1.97l-7.56,8.32-8.3-14.98c.66-.56,1.1-1.38,1.1-2.31,0-1.65-1.35-3-3-3s-3,1.35-3,3c0,.93.44,1.75,1.1,2.31l-8.3,14.98-7.56-8.32c.47-.53.76-1.21.76-1.97,0-1.65-1.35-3-3-3s-3,1.35-3,3c0,1.06.55,1.99,1.38,2.52l-.72,1.98c-1.6,4.4-1.61,9.16-.08,13.54-1.46.21-2.58,1.45-2.58,2.96,0,.81.32,1.57.87,2.11.32.33.71.56,1.13.71v10.36c-1.16.42-2,1.52-2,2.82,0,1.65,1.35,3,3,3h44c1.65,0,3-1.35,3-3,0-1.3-.84-2.4-2-2.82ZM52,16c.55,0,1,.45,1,1s-.45,1-1,1-1-.45-1-1,.45-1,1-1ZM32,9c.55,0,1,.45,1,1s-.45,1-1,1-1-.45-1-1,.45-1,1-1ZM12,16c.55,0,1,.45,1,1s-.45,1-1,1-1-.45-1-1,.45-1,1-1ZM10,37h28c.55,0,1-.45,1-1s-.45-1-1-1H11.69c-1.6-4.12-1.67-8.64-.15-12.82l.81-2.22h.08l8.83,9.71c.19.21.46.33.74.33.04,0,.08,0,.12-.01.32-.03.6-.22.76-.51l9.12-16.47,9.12,16.47c.16.29.44.48.76.51.04.01.08.01.12.01.28,0,.55-.12.74-.33l8.83-9.71h.08l.81,2.22c1.52,4.18,1.45,8.7-.15,12.82h-10.31c-.55,0-1,.45-1,1s.45,1,1,1h12c.545,0,1,.459,1,1,0,.55-.45,1-1,1H10c-.27,0-.51-.1-.71-.31-.19-.18-.29-.42-.29-.69,0-.55.45-1,1-1ZM54,55H10c-.55,0-1-.45-1-1s.45-1,1-1h44c.55,0,1,.45,1,1s-.45,1-1,1Z"/>
  <path d="M32.871,21.508c-.355-.628-1.386-.628-1.741,0l-2.829,5c-.172.305-.172.679,0,.984l2.829,5c.178.314.51.508.871.508s.693-.194.871-.508l2.829-5c.172-.305.172-.679,0-.984l-2.829-5ZM32,29.969l-1.68-2.969,1.68-2.969,1.68,2.969-1.68,2.969Z"/>
  <path d="M14,43c-.552,0-1,.448-1,1v4c0,.552.448,1,1,1h36c.552,0,1-.448,1-1v-4c0-.552-.448-1-1-1H14ZM49,47H15v-2h34v2Z"/>
</svg>