<?xml version="1.0" encoding="UTF-8"?>
<svg id="Outline" xmlns="http://www.w3.org/2000/svg" version="1.1" viewBox="0 0 64 64">
  <!-- Generator: Adobe Illustrator 29.5.1, SVG Export Plug-In . SVG Version: 2.1.0 Build 141)  -->
  <path d="M54,15c-1.65,0-3,1.35-3,3,0,.15.02.3.04.44l-2.97,1.59c-1.49-3.05-4.6-5.03-8.07-5.03-1.5,0-2.94.38-4.25,1.08l-.97-2.22c.75-.72,1.22-1.74,1.22-2.86,0-2.21-1.79-4-4-4s-4,1.79-4,4c0,1.12.47,2.14,1.22,2.86l-.97,2.22c-1.31-.7-2.75-1.08-4.25-1.08-3.47,0-6.58,1.98-8.07,5.03l-2.97-1.59c.02-.14.04-.29.04-.44,0-1.65-1.35-3-3-3s-3,1.35-3,3,1.35,3,3,3h.02l5.59,15.37c.01.01.01.02.02.03l1.19,3.27c.28.8,1.03,1.33,1.88,1.33h.3v2c0,1.1.9,2,2,2h6.53l.37,2.01c-1.61.06-2.9,1.37-2.9,2.99,0,1.65,1.35,3,3,3v3c0,.55.45,1,1,1s1-.45,1-1v-3h4v3c0,.55.45,1,1,1s1-.45,1-1v-3c1.65,0,3-1.35,3-3,0-1.59-1.25-2.88-2.81-2.98l.35-2.02h6.46c1.1,0,2-.9,2-2v-2h.3c.85,0,1.6-.53,1.88-1.32l1.19-3.28c.01-.01.01-.02.02-.03l5.59-15.37h.02c1.65,0,3-1.35,3-3s-1.35-3-3-3ZM40,17c2.72,0,5.15,1.57,6.29,3.98l-6.81,3.63-2.92-6.68c1.05-.6,2.22-.93,3.44-.93ZM32,9c1.1,0,2,.9,2,2s-.9,2-2,2-2-.9-2-2,.9-2,2-2ZM24,17c1.22,0,2.39.33,3.44.93l-2.92,6.68-6.81-3.63c1.14-2.41,3.57-3.98,6.29-3.98ZM10,19c-.55,0-1-.45-1-1s.45-1,1-1,1,.45,1,1-.45,1-1,1ZM18.7,39l-.73-2h8.11l.36,2h-7.74ZM21,43v-2h5.8l.37,2h-6.17ZM37,50c0,.55-.45,1-1,1h-8c-.55,0-1-.45-1-1s.45-1,1-1h8c.55,0,1,.45,1,1ZM34.16,47h-4.23l-2.87-15.75,3.94-5.25v14c0,.55.45,1,1,1s1-.45,1-1v-14l3.94,5.25-2.78,15.75ZM43,43h-6.1l.35-2h5.75v2ZM45.3,39h-7.7l.36-2h8.07l-.73,2ZM46.76,35h-8.45l.67-3.83c.05-.27-.01-.55-.18-.77l-6-8c-.38-.5-1.22-.5-1.6,0l-6,8c-.17.22-.23.51-.18.78l.69,3.82h-8.47l-5.34-14.7c.04-.03.08-.06.11-.09l12.52,6.67c.15.08.31.12.47.12.11,0,.22-.02.33-.06.26-.09.47-.28.59-.54l5.05-11.55c.33.09.67.15,1.03.15s.7-.06,1.03-.15l5.05,11.55c.12.26.33.45.59.54.11.04.22.06.33.06.16,0,.32-.04.47-.12l12.52-6.67c.03.03.07.06.11.09l-5.34,14.7ZM54,19c-.55,0-1-.45-1-1s.45-1,1-1,1,.45,1,1-.45,1-1,1Z"/>
  <path d="M21,27c-1.654,0-3,1.346-3,3s1.346,3,3,3,3-1.346,3-3-1.346-3-3-3ZM21,31c-.552,0-1-.448-1-1s.448-1,1-1,1,.448,1,1-.448,1-1,1Z"/>
  <path d="M43,27c-1.654,0-3,1.346-3,3s1.346,3,3,3,3-1.346,3-3-1.346-3-3-3ZM43,31c-.552,0-1-.448-1-1s.448-1,1-1,1,.448,1,1-.448,1-1,1Z"/>
</svg>