<?xml version="1.0" encoding="UTF-8"?>
<svg id="Outline" xmlns="http://www.w3.org/2000/svg" version="1.1" viewBox="0 0 64 64">
  <!-- Generator: Adobe Illustrator 29.5.1, SVG Export Plug-In . SVG Version: 2.1.0 Build 141)  -->
  <path d="M54.17,51l2.69-4.49c.18-.3.19-.69.01-1-.18-.32-.51-.51-.87-.51h-6v-2c0-.92-.63-1.7-1.49-1.92l8.4-18.67c.17-.37.09-.81-.19-1.1-.28-.3-.71-.39-1.09-.24l-5.98,2.39-1.86-6.06c.73-.55,1.21-1.42,1.21-2.4,0-1.65-1.35-3-3-3s-3,1.35-3,3c0,.19.02.38.06.56l-5.96,3.47-1.84-3.27c1.06-.92,1.74-2.26,1.74-3.76,0-2.76-2.24-5-5-5s-5,2.24-5,5c0,1.5.68,2.84,1.74,3.76l-1.84,3.27-5.96-3.47c.04-.18.06-.37.06-.56,0-1.65-1.35-3-3-3s-3,1.35-3,3c0,.98.48,1.85,1.21,2.4l-1.86,6.06-5.98-2.39c-.38-.15-.81-.06-1.09.24-.28.29-.36.73-.19,1.1l8.4,18.67c-.86.22-1.49,1-1.49,1.92v2h-6c-.36,0-.69.19-.87.51-.18.31-.17.7.01,1l2.69,4.49-2.69,4.49c-.18.3-.19.69-.01,1,.18.32.51.51.87.51h15c.55,0,1-.45,1-1v-5h16v5c0,.55.45,1,1,1h15c.36,0,.69-.19.87-.51.18-.31.17-.7-.01-1l-2.69-4.49ZM46,14c.55,0,1,.45,1,1s-.45,1-1,1-1-.45-1-1,.45-1,1-1ZM44.07,17.28c.5.42,1.12.68,1.8.71l1.89,6.15c-3.58.97-7.43-.39-9.62-3.4l5.93-3.46ZM32,9c1.65,0,3,1.35,3,3s-1.35,3-3,3-3-1.35-3-3,1.35-3,3-3ZM18,14c.55,0,1,.45,1,1s-.45,1-1,1-1-.45-1-1,.45-1,1-1ZM18.13,17.99c.68-.03,1.3-.29,1.8-.71l5.93,3.46c-2.19,3.01-6.04,4.37-9.62,3.4l1.89-6.15ZM9.93,23.85l4.56,1.82c5.1,2.04,10.98-.03,13.68-4.82l2.31-4.11c.48.15.99.26,1.52.26s1.04-.11,1.52-.26l2.31,4.11c2.7,4.79,8.57,6.86,13.68,4.82l4.56-1.82-4.12,9.15H14.05l-4.12-9.15ZM14.95,35h34.1l-2.7,6h-28.7l-2.7-6ZM22,55h-12.23l2.09-3.49c.19-.31.19-.71,0-1.02l-2.09-3.49h4.23v2c0,1.1.9,2,2,2h6v4ZM16,49v-6h32v6H16ZM42,55v-4h6c1.1,0,2-.9,2-2v-2h4.23l-2.09,3.49c-.19.31-.19.71,0,1.02l2.09,3.49h-12.23Z"/>
  <path d="M44,45h-24c-.553,0-1,.447-1,1s.447,1,1,1h24c.553,0,1-.447,1-1s-.447-1-1-1Z"/>
  <path d="M45,37h-26c-.553,0-1,.447-1,1s.447,1,1,1h26c.553,0,1-.447,1-1s-.447-1-1-1Z"/>
  <path d="M32,31c2.206,0,4-1.794,4-4s-1.794-4-4-4-4,1.794-4,4,1.794,4,4,4ZM32,25c1.103,0,2,.897,2,2s-.897,2-2,2-2-.897-2-2,.897-2,2-2Z"/>
</svg>