<?xml version="1.0" encoding="UTF-8"?>
<svg id="Outline" xmlns="http://www.w3.org/2000/svg" version="1.1" viewBox="0 0 64 64">
  <!-- Generator: Adobe Illustrator 29.5.1, SVG Export Plug-In . SVG Version: 2.1.0 Build 141)  -->
  <path d="M56.71,31.29c-.29-.28-.71-.37-1.08-.22l-5.98,2.39-1.86-6.06c.73-.55,1.21-1.42,1.21-2.4,0-1.65-1.35-3-3-3s-3,1.35-3,3c0,.19.02.38.06.56l-5.96,3.47-1.84-3.27c1.06-.92,1.74-2.26,1.74-3.76,0-2.76-2.24-5-5-5s-5,2.24-5,5c0,1.5.68,2.84,1.74,3.76l-1.84,3.27-5.96-3.47c.04-.18.06-.37.06-.56,0-1.65-1.35-3-3-3s-3,1.35-3,3c0,.98.48,1.85,1.21,2.4l-1.86,6.06-5.98-2.39c-.37-.15-.79-.06-1.08.22-.28.29-.37.71-.22,1.08l7.48,18.69c-.89.2-1.55.99-1.55,1.94v2c0,1.1.9,2,2,2h34c1.1,0,2-.9,2-2v-2c0-.95-.66-1.74-1.55-1.94l7.48-18.69c.15-.37.06-.79-.22-1.08ZM46,24c.55,0,1,.45,1,1s-.45,1-1,1-1-.45-1-1,.45-1,1-1ZM44.07,27.28c.5.42,1.12.68,1.8.71l1.89,6.15c-3.58.97-7.43-.39-9.62-3.4l5.93-3.46ZM32,19c1.65,0,3,1.35,3,3s-1.35,3-3,3-3-1.35-3-3,1.35-3,3-3ZM18,24c.55,0,1,.45,1,1s-.45,1-1,1-1-.45-1-1,.45-1,1-1ZM18.13,27.99c.68-.03,1.3-.29,1.8-.71l5.93,3.46c-2.19,3.01-6.04,4.37-9.62,3.4l1.89-6.15ZM49,55H15v-2h34v2ZM15.88,49h32.24l-.8,2h-30.64l-.8-2ZM48.92,47H15.08l-5.29-13.21,4.7,1.88c5.1,2.04,10.98-.03,13.68-4.82l2.31-4.11c.48.15.99.26,1.52.26s1.04-.11,1.52-.26l2.31,4.11c2.7,4.79,8.57,6.87,13.68,4.82l4.7-1.88-5.29,13.21Z"/>
  <path d="M37.151,36.831l-2.927-.447-1.318-2.809c-.165-.351-.518-.575-.905-.575s-.741.225-.905.575l-1.318,2.809-2.927.447c-.371.057-.678.315-.797.671s-.029.747.232,1.016l2.147,2.201-.509,3.12c-.062.378.098.758.411.979.314.22.724.244,1.06.058l2.606-1.44,2.606,1.44c.151.084.318.125.484.125.202,0,.404-.062.576-.183.313-.221.473-.601.411-.979l-.509-3.12,2.147-2.201c.262-.269.352-.66.232-1.016s-.427-.614-.797-.671ZM33.784,39.684c-.222.228-.322.546-.271.859l.259,1.586-1.288-.712c-.151-.083-.317-.125-.484-.125s-.333.042-.484.125l-1.288.712.259-1.586c.051-.313-.049-.632-.271-.859l-1.141-1.169,1.531-.234c.33-.05.613-.262.754-.563l.64-1.363.64,1.363c.142.302.425.514.754.563l1.531.234-1.141,1.169Z"/>
  <path d="M16.932,15.995l-.626,3.844c-.062.378.098.758.411.979.313.22.724.244,1.06.058l3.224-1.782,3.224,1.782c.151.084.318.125.484.125.202,0,.404-.062.576-.183.313-.221.473-.601.411-.979l-.626-3.844,2.647-2.713c.262-.269.352-.66.232-1.016s-.427-.614-.797-.671l-3.618-.554-1.627-3.467c-.165-.351-.518-.575-.905-.575s-.741.225-.905.575l-1.627,3.467-3.618.554c-.371.057-.678.315-.797.671s-.029.747.232,1.016l2.647,2.713ZM19.297,12.938c.33-.05.613-.262.754-.563l.949-2.021.949,2.021c.142.302.424.514.754.563l2.222.34-1.641,1.682c-.222.227-.322.546-.271.859l.376,2.31-1.906-1.054c-.15-.083-.317-.125-.484-.125s-.333.042-.484.125l-1.906,1.054.376-2.31c.051-.313-.049-.633-.271-.859l-1.641-1.682,2.222-.34Z"/>
  <path d="M38.932,15.995l-.626,3.844c-.062.378.098.758.411.979.313.22.723.244,1.06.058l3.224-1.782,3.224,1.782c.151.084.318.125.484.125.202,0,.404-.062.576-.183.313-.221.473-.601.411-.979l-.626-3.844,2.647-2.713c.262-.269.352-.66.232-1.016s-.427-.614-.797-.671l-3.618-.554-1.627-3.467c-.165-.351-.518-.575-.905-.575s-.741.225-.905.575l-1.627,3.467-3.618.554c-.371.057-.678.315-.797.671s-.029.747.232,1.016l2.647,2.713ZM41.297,12.938c.33-.05.613-.262.754-.563l.949-2.021.949,2.021c.142.302.424.514.754.563l2.222.34-1.641,1.682c-.222.227-.322.546-.271.859l.376,2.31-1.906-1.054c-.15-.083-.317-.125-.484-.125s-.333.042-.484.125l-1.906,1.054.376-2.31c.051-.313-.049-.633-.271-.859l-1.641-1.682,2.222-.34Z"/>
</svg>