<?xml version="1.0" encoding="UTF-8"?>
<svg id="Outline" xmlns="http://www.w3.org/2000/svg" version="1.1" viewBox="0 0 64 64">
  <!-- Generator: Adobe Illustrator 29.5.1, SVG Export Plug-In . SVG Version: 2.1.0 Build 141)  -->
  <path d="M56.61,16.26c-.31-.24-.74-.28-1.09-.08l-6.67,3.68c-.36.2-.56.6-.51,1l.31,2.45-3.45,2.66-1.18-2.77c.6-.55.98-1.33.98-2.2,0-1.65-1.35-3-3-3s-3,1.35-3,3c0,.28.05.54.12.8l-2.67,1.87-1.43-3.28,2.69-2.68c.31-.32.38-.81.16-1.2l-5-9c-.35-.63-1.39-.63-1.74,0l-5,9c-.22.39-.15.88.16,1.2l2.69,2.68-1.43,3.28-2.67-1.87c.07-.26.12-.52.12-.8,0-1.65-1.35-3-3-3s-3,1.35-3,3c0,.87.38,1.65.98,2.2l-1.18,2.77-3.45-2.66.31-2.45c.05-.4-.15-.8-.51-1l-6.67-3.68c-.35-.2-.78-.16-1.09.08-.32.25-.46.66-.36,1.05l1.93,7.36c.11.4.44.69.85.74l2.08.26,3.84,15.36c-1.53.14-2.73,1.41-2.73,2.97,0,1.65,1.35,3,3,3h5.38c1.73,4.66,5.47,8.34,10.3,9.95.11.03.21.05.32.05s.21-.02.32-.05c4.83-1.61,8.57-5.29,10.3-9.95h5.38c1.65,0,3-1.35,3-3,0-1.56-1.2-2.83-2.73-2.97l3.84-15.36,2.08-.26c.41-.05.74-.34.85-.74l1.93-7.36c.1-.39-.04-.8-.36-1.05ZM42,20c.55,0,1,.45,1,1s-.45,1-1,1-1-.45-1-1,.45-1,1-1ZM40.26,23.44c.5.35,1.09.56,1.74.56.06,0,.12-.01.18-.02l1.38,3.25-4.16,3.2-2.13-4.89,2.99-2.1ZM28.24,16.83l3.76-6.77,3.76,6.77-3.76,3.76-3.76-3.76ZM22,20c.55,0,1,.45,1,1s-.45,1-1,1-1-.45-1-1,.45-1,1-1ZM21.82,23.98c.06.01.12.02.18.02.65,0,1.24-.21,1.74-.56l2.99,2.1-2.13,4.89-4.16-3.2,1.38-3.25ZM13.27,23.83l-2.54-.32-1.17-4.45,4.03,2.23-.32,2.54ZM16,45c-.55,0-1-.45-1-1s.45-1,1-1h4.41l.12.79c.07.41.15.81.24,1.21h-4.77ZM41.49,43.47c-.83,5.3-4.46,9.67-9.49,11.47-5.03-1.8-8.66-6.17-9.49-11.47l-1.27-8.04c3.71.9,7.66.12,10.76-2.16,3.1,2.28,7.05,3.06,10.76,2.16l-1.27,8.04ZM49,44c0,.55-.45,1-1,1h-4.77c.09-.4.17-.8.24-1.21l.12-.79h4.41c.55,0,1,.45,1,1ZM46.22,41h-2.31l1.08-6.84c.05-.36-.08-.71-.36-.94-.28-.22-.65-.28-.99-.15-3.67,1.41-7.85.74-10.9-1.76l-.11-.09c-.37-.29-.89-.29-1.26,0l-.11.1c-3.05,2.49-7.23,3.16-10.9,1.75-.34-.13-.71-.07-.99.15-.28.23-.41.58-.36.94l1.08,6.84h-2.31l-3.77-15.06h.01c.04,0,.08.01.12.01.33,0,.62-.17.8-.43l9.45,7.27c.18.14.39.21.61.21.08,0,.17-.01.25-.03.3-.08.54-.29.67-.57l4.58-10.49.79.8c.2.19.45.29.71.29s.51-.1.71-.29l.79-.8,4.58,10.49c.13.28.37.49.67.57.08.02.17.03.25.03.22,0,.43-.07.61-.21l9.45-7.27c.18.26.47.43.8.43.04,0,.08-.01.12-.01h.01l-3.77,15.06ZM53.27,23.51l-2.54.32-.32-2.54,4.03-2.23-1.17,4.45Z"/>
  <path d="M39.227,37.792c-2.349-.076-4.682-.715-6.746-1.848-.301-.164-.662-.164-.963,0-2.063,1.133-4.396,1.771-6.744,1.848-.286.009-.556.141-.738.361-.183.222-.262.511-.217.794l.666,4.214c.653,4.142,3.305,7.673,7.092,9.445.134.063.279.095.424.095s.29-.031.424-.095c3.787-1.772,6.438-5.304,7.092-9.445l.666-4.214c.045-.283-.034-.572-.217-.794-.183-.221-.452-.353-.738-.361ZM37.541,42.849c-.526,3.328-2.583,6.188-5.541,7.736-2.958-1.549-5.015-4.408-5.541-7.736l-.495-3.133c2.096-.209,4.154-.81,6.035-1.764,1.882.954,3.94,1.555,6.037,1.764l-.495,3.133Z"/>
  <path d="M28.465,43.293c-.391.391-.391,1.023,0,1.414l2.828,2.828c.195.195.451.293.707.293s.512-.098.707-.293l2.828-2.828c.391-.391.391-1.023,0-1.414l-2.828-2.828c-.391-.391-1.023-.391-1.414,0l-2.828,2.828ZM33.414,44l-1.414,1.414-1.414-1.414,1.414-1.414,1.414,1.414Z"/>
</svg>