<?xml version="1.0" encoding="UTF-8"?>
<svg id="Outline" xmlns="http://www.w3.org/2000/svg" version="1.1" viewBox="0 0 64 64">
  <!-- Generator: Adobe Illustrator 29.5.1, SVG Export Plug-In . SVG Version: 2.1.0 Build 141)  -->
  <path d="M54,44v-3c0-1.57-1.22-2.86-2.77-2.98l2.58-12.04c.07.01.13.02.19.02,1.65,0,3-1.35,3-3s-1.35-3-3-3-3,1.35-3,3c0,.54.15,1.04.41,1.48l-7.11,2.37-10.55-11.43c.75-.54,1.25-1.42,1.25-2.42,0-1.65-1.35-3-3-3s-3,1.35-3,3c0,1,.5,1.88,1.25,2.42l-10.55,11.43-7.11-2.37c.26-.44.41-.94.41-1.48,0-1.65-1.35-3-3-3s-3,1.35-3,3,1.35,3,3,3c.06,0,.12-.01.19-.02l2.58,12.04c-1.55.12-2.77,1.41-2.77,2.98v3c-1.65,0-3,1.35-3,3v6c0,.55.45,1,1,1h48c.55,0,1-.45,1-1v-6c0-1.65-1.35-3-3-3ZM54,22c.55,0,1,.45,1,1s-.45,1-1,1-1-.45-1-1,.45-1,1-1ZM10,24c-.55,0-1-.45-1-1s.45-1,1-1,1,.45,1,1-.45,1-1,1ZM32,12c.55,0,1,.45,1,1s-.45,1-1,1-1-.45-1-1,.45-1,1-1ZM51,52H13v-1c0-.55.45-1,1-1h36c.55,0,1,.45,1,1v1ZM55,52h-2v-1c0-1.65-1.35-3-3-3H14c-1.65,0-3,1.35-3,3v1h-2v-5c0-.55.45-1,1-1h29c.55,0,1-.45,1-1s-.45-1-1-1H12v-3c0-.55.45-1,1-1h5c.55,0,1-.45,1-1s-.45-1-1-1h-3.19l-2.47-11.5,7.34,2.45c.38.12.79.02,1.05-.27l11.27-12.21,11.27,12.21c.26.29.67.39,1.05.27l7.34-2.45-2.47,11.5h-27.19c-.55,0-1,.45-1,1s.45,1,1,1h29c.55,0,1,.45,1,1v3h-9c-.55,0-1,.45-1,1s.45,1,1,1h11c.55,0,1,.45,1,1v5Z"/>
  <path d="M31.293,34.707c.195.195.451.293.707.293s.512-.098.707-.293l6-6c.391-.391.391-1.023,0-1.414l-6-6c-.391-.391-1.023-.391-1.414,0l-6,6c-.391.391-.391,1.023,0,1.414l6,6ZM32,23.414l4.586,4.586-4.586,4.586-4.586-4.586,4.586-4.586Z"/>
</svg>