<?xml version="1.0" encoding="UTF-8"?>
<svg id="Outline" xmlns="http://www.w3.org/2000/svg" version="1.1" viewBox="0 0 64 64">
  <!-- Generator: Adobe Illustrator 29.5.1, SVG Export Plug-In . SVG Version: 2.1.0 Build 141)  -->
  <path d="M52,35.00025h-.56c.34998-.59003.56-1.27002.56-2v-2c0-1.85999-1.28003-3.41003-3-3.85999v-2.14001c0-1.32001-.52002-2.58002-1.46997-3.54004-.95001-.94-2.21002-1.45996-3.53003-1.45996h-.56c.34998-.59003.56-1.27002.56-2v-2c0-2.21002-1.78998-4-4-4s-4,1.78998-4,4v2c0,.72998.21002,1.40997.56,2h-.56c-1.32001,0-2.58002.51996-3.53998,1.46997-.17004.17004-.32001.37-.46002.56-.15002-.20001-.28998-.38995-.46997-.57001-.95001-.94-2.21002-1.45996-3.53003-1.45996h-.56c.34998-.59003.56-1.27002.56-2v-2c0-2.21002-1.78998-4-4-4s-4,1.78998-4,4v2c0,.72998.21002,1.40997.56,2h-.56c-1.32001,0-2.58002.51996-3.53998,1.46997-.94.95001-1.46002,2.21002-1.46002,3.53003v2.14001c-1.71997.44995-3,2-3,3.85999v2c0,.72998.21002,1.40997.56,2h-.56c-2.76001,0-5,2.23999-5,5v6c0,1.64996,1.34998,3,3,3,.34998,0,.69-.07001,1-.17999v7.17999c0,.54999.45001,1,1,1h8c.54999,0,1-.45001,1-1v-2c0-.54999-.45001-1-1-1s-1,.45001-1,1v1h-2v-7c0-.54999-.45001-1-1-1s-1,.45001-1,1v7h-2v-12c0-.54999-.45001-1-1-1s-1,.45001-1,1v3c0,.54999-.45001,1-1,1s-1-.45001-1-1v-6c0-1.65002,1.34998-3,3-3h8c1.65002,0,3,1.34998,3,3v6c0,.54999-.45001,1-1,1s-1-.45001-1-1v-3c0-.54999-.45001-1-1-1s-1,.45001-1,1v7c0,.54999.45001,1,1,1s1-.45001,1-1v-1.17999c.31.10999.65002.17999,1,.17999.77002,0,1.46997-.29999,2-.78003.53003.48004,1.22998.78003,2,.78003.34998,0,.69-.07001,1-.17999v7.17999c0,.54999.45001,1,1,1h8c.54999,0,1-.45001,1-1v-7.17999c.31.10999.65002.17999,1,.17999.77002,0,1.46997-.29999,2-.78003.53003.48004,1.22998.78003,2,.78003.34998,0,.69-.07001,1-.17999v7.17999c0,.54999.45001,1,1,1h8c.54999,0,1-.45001,1-1v-2c0-.54999-.45001-1-1-1s-1,.45001-1,1v1h-2v-7c0-.54999-.45001-1-1-1s-1,.45001-1,1v7h-2v-12c0-.54999-.45001-1-1-1s-1,.45001-1,1v3c0,.54999-.45001,1-1,1s-1-.45001-1-1v-6c0-1.65002,1.34998-3,3-3h8c1.65002,0,3,1.34998,3,3v6c0,.54999-.45001,1-1,1s-1-.45001-1-1v-3c0-.54999-.45001-1-1-1s-1,.45001-1,1v7c0,.54999.45001,1,1,1s1-.45001,1-1v-1.17999c.31.10999.65002.17999,1,.17999,1.65002,0,3-1.35004,3-3v-6c0-2.76001-2.23999-5-5-5ZM38,16.00025c0-1.10004.90002-2,2-2s2,.89996,2,2v2c0,1.09998-.90002,2-2,2s-2-.90002-2-2v-2ZM32,29.00025c1.09998,0,2,.89996,2,2v2c0,1.09998-.90002,2-2,2s-2-.90002-2-2v-2c0-1.10004.90002-2,2-2ZM22,16.00025c0-1.10004.90002-2,2-2s2,.89996,2,2v2c0,1.09998-.90002,2-2,2s-2-.90002-2-2v-2ZM18,33.00025c0,1.09998-.90002,2-2,2s-2-.90002-2-2v-2c0-1.10004.90002-2,2-2s2,.89996,2,2v2ZM24,37.03022c-.90997-1.21997-2.35999-2.02997-4-2.02997h-.56c.34998-.59003.56-1.27002.56-2v-2c0-1.85999-1.28003-3.41003-3-3.85999v-2.14001c0-.79999.31-1.54999.87-2.12.58002-.57001,1.34003-.88,2.13-.88h8c.78998,0,1.54999.31,2.12.87.57001.58002.88,1.33002.88,2.13v2.14001c-1.71997.44995-3,2-3,3.85999v2c0,.72998.21002,1.40997.56,2h-.56c-1.64001,0-3.09003.81-4,2.02997ZM39,46.00025c0,.54999-.45001,1-1,1s-1-.45001-1-1v-3c0-.54999-.45001-1-1-1s-1,.45001-1,1v12h-2v-7c0-.54999-.45001-1-1-1s-1,.45001-1,1v7h-2v-12c0-.54999-.45001-1-1-1s-1,.45001-1,1v3c0,.54999-.45001,1-1,1s-1-.45001-1-1v-6c0-1.65002,1.34998-3,3-3h8c1.65002,0,3,1.34998,3,3v6ZM44.56,35.00025h-.56c-1.64001,0-3.09003.81-4,2.02997-.90997-1.21997-2.35999-2.02997-4-2.02997h-.56c.34998-.59003.56-1.27002.56-2v-2c0-1.85999-1.28003-3.41003-3-3.85999v-2.14001c0-.79999.31-1.54999.87-2.12.58002-.57001,1.34003-.88,2.13-.88h8c.78998,0,1.54999.31,2.12.87.57001.58002.88,1.33002.88,2.13v2.14001c-1.71997.44995-3,2-3,3.85999v2c0,.72998.21002,1.40997.56,2ZM50,33.00025c0,1.09998-.90002,2-2,2s-2-.90002-2-2v-2c0-1.10004.90002-2,2-2s2,.89996,2,2v2Z"/>
  <path d="M14.39844,11.27613c.14355.2876.41699.48828.73438.54004.32031.04688.64062-.05371.86719-.28027l.43359-.43311.79296,1.58739c.57988,1.16083,2.36487.25708,1.78907-.89452l-1.41406-2.82861c-.14355-.2876-.41699-.48828-.73438-.54004-.32129-.05127-.64062.05322-.86719.28027l-.43359.43311-.79297-1.5874c-.24609-.49365-.84668-.69482-1.3418-.44727-.49415.24707-.69434.84766-.44727,1.3418l1.41406,2.82861Z"/>
  <path d="M10.12109,15.88746l2.72656,1.60205c.58356.34288,1.34431.0039,1.48535-.6543l.12695-.59961,1.53027.89941c.47656.27881,1.08887.12061,1.36914-.35547.2793-.47656.12012-1.08936-.35547-1.36914l-2.72656-1.60205c-.27734-.16211-.61523-.18213-.91016-.05273-.29395.12939-.50781.39258-.5752.70703l-.12695.59961-1.53027-.89941c-.47754-.27832-1.08887-.12061-1.36914.35547-.2793.47656-.12012,1.08936.35547,1.36914Z"/>
  <path d="M50.63281,13.75562c-.29492-.12939-.63281-.10938-.91016.05273l-2.72656,1.60205c-.47559.27979-.63477.89258-.35547,1.36914.28027.47607.89355.63428,1.36914.35547l1.53027-.89941.12695.59961c.06738.31445.28125.57764.57536.70711.29723.13054.63132.11098.90999-.05281l2.72656-1.60205c.47559-.27979.63477-.89258.35547-1.36914-.28027-.47607-.89355-.63379-1.36914-.35547l-1.53027.89941-.12695-.59961c-.06738-.31445-.28125-.57764-.5752-.70703Z"/>
  <path d="M45.43194,13.13761c.48779.24369,1.09682.04239,1.3415-.44741l.79297-1.5874.43359.43311c.22656.22705.5459.32959.86719.28027.31738-.05176.59082-.25244.73438-.54004l1.41406-2.82861c.24707-.49414.04687-1.09473-.44727-1.3418-.49414-.24756-1.09473-.04639-1.3418.44727l-.79297,1.5874-.43359-.43311c-.22656-.22705-.5459-.3291-.86719-.28027-.31738.05176-.59082.25244-.73438.54004l-1.41406,2.82861c-.24707.49414-.04688,1.09473.44756,1.34195Z"/>
</svg>