<?xml version="1.0" encoding="UTF-8"?>
<svg id="Outline" xmlns="http://www.w3.org/2000/svg" version="1.1" viewBox="0 0 48 48">
  <!-- Generator: Adobe Illustrator 29.5.1, SVG Export Plug-In . SVG Version: 2.1.0 Build 141)  -->
  <path d="M42.71,35.05c-.39-.39-1.03-.39-1.42,0-.72.72-1.69,1.02-2.63.92l2.3-7.68c.09-.31.03-.63-.16-.89-.19-.25-.48-.4-.8-.4h-.22l-1.81-7.24c-.11-.45-.51-.76-.97-.76h-1.38l-1.73-3.45c-.17-.34-.51-.55-.89-.55h-6c-.38,0-.72.21-.89.55l-1.73,3.45h-1.38c-.46,0-.86.31-.97.76l-1.81,7.24h-1.22v-1c0-1.3-.84-2.4-2-2.82v-12.18h1c.55,0,1-.45,1-1v-4c0-.55-.45-1-1-1h-8c-.55,0-1,.45-1,1v4c0,.55.45,1,1,1h1v12.18c-1.16.42-2,1.52-2,2.82v1h-1c-.32,0-.61.15-.8.4-.19.26-.25.58-.16.89l2.3,7.68c-.94.1-1.91-.2-2.63-.92-.39-.39-1.03-.39-1.42,0-.39.39-.39,1.03,0,1.41,1.51,1.51,3.69,1.89,5.56,1.18h.04c.02-.01.03-.02.05-.03.37-.15.73-.32,1.06-.55,1.79,1.25,4.21,1.25,6,0,1.79,1.25,4.21,1.25,6,0,1.79,1.25,4.21,1.25,6,0,1.79,1.25,4.21,1.25,6,0,.34.23.7.41,1.07.56.02,0,.03.01.04.02h.03c.6.23,1.23.36,1.86.36,1.34,0,2.68-.51,3.71-1.54.39-.38.39-1.02,0-1.41ZM27.62,17h4.76l1,2h-6.76l1-2ZM23.78,21h12.44l1.5,6h-15.44l1.5-6ZM11,7h6v2h-6v-2ZM15,11v12h-2v-12h2ZM11,26c0-.55.45-1,1-1h4c.55,0,1,.45,1,1v1h-6v-1ZM36.82,35.14c-.04-.03-.08-.05-.11-.09-.39-.39-1.03-.39-1.42,0-1.26,1.26-3.32,1.26-4.58,0-.39-.39-1.03-.39-1.42,0-1.26,1.26-3.32,1.26-4.58,0-.39-.39-1.03-.39-1.42,0-1.26,1.26-3.32,1.26-4.58,0-.39-.39-1.03-.39-1.42,0-1.26,1.26-3.32,1.26-4.58,0-.39-.39-1.03-.39-1.42,0-.03.04-.07.06-.11.09l-1.84-6.14h29.32l-1.84,6.14Z"/>
  <path d="M41.293,40.051c-1.264,1.264-3.322,1.264-4.586,0-.391-.391-1.023-.391-1.414,0-1.264,1.264-3.322,1.264-4.586,0-.391-.391-1.023-.391-1.414,0-1.264,1.264-3.322,1.264-4.586,0-.391-.391-1.023-.391-1.414,0-1.264,1.264-3.322,1.264-4.586,0-.391-.391-1.023-.391-1.414,0-1.264,1.264-3.322,1.264-4.586,0-.391-.391-1.023-.391-1.414,0-1.264,1.264-3.322,1.264-4.586,0-.391-.391-1.023-.391-1.414,0s-.391,1.024,0,1.414c1.822,1.821,4.663,2.019,6.707.593,1.795,1.252,4.205,1.252,6,0,1.795,1.252,4.205,1.252,6,0,1.795,1.252,4.205,1.252,6,0,1.795,1.252,4.205,1.252,6,0,.897.626,1.949.939,3,.939,1.343,0,2.685-.511,3.707-1.532.391-.39.391-1.023,0-1.414s-1.023-.391-1.414,0Z"/>
  <path d="M13,33h2c.553,0,1-.447,1-1s-.447-1-1-1h-2c-.553,0-1,.447-1,1s.447,1,1,1Z"/>
  <path d="M19,33h2c.553,0,1-.447,1-1s-.447-1-1-1h-2c-.553,0-1,.447-1,1s.447,1,1,1Z"/>
  <path d="M33,33h2c.553,0,1-.447,1-1s-.447-1-1-1h-2c-.553,0-1,.447-1,1s.447,1,1,1Z"/>
  <path d="M27,33h2c.553,0,1-.447,1-1s-.447-1-1-1h-2c-.553,0-1,.447-1,1s.447,1,1,1Z"/>
  <path d="M28,23h-2c-.553,0-1,.447-1,1s.447,1,1,1h2c.553,0,1-.447,1-1s-.447-1-1-1Z"/>
  <path d="M34,23h-2c-.553,0-1,.447-1,1s.447,1,1,1h2c.553,0,1-.447,1-1s-.447-1-1-1Z"/>
</svg>