<?xml version="1.0" encoding="UTF-8"?>
<svg id="Outline" xmlns="http://www.w3.org/2000/svg" version="1.1" viewBox="0 0 64 64">
  <!-- Generator: Adobe Illustrator 29.5.1, SVG Export Plug-In . SVG Version: 2.1.0 Build 141)  -->
  <path d="M26.075,41c1.654,0,3-1.346,3-3v-4c0-1.654-1.346-3-3-3h-8c-1.654,0-3,1.346-3,3v4c0,1.654,1.346,3,3,3h8ZM26.075,39h-5v-2h6v1c0,.552-.449,1-1,1ZM27.075,34v1h-6v-2h5c.551,0,1,.448,1,1ZM17.075,38v-4c0-.552.449-1,1-1h1v6h-1c-.551,0-1-.448-1-1Z"/>
  <path d="M16.075,45c-.552,0-1,.447-1,1v2c0,.553.448,1,1,1s1-.447,1-1v-2c0-.553-.448-1-1-1Z"/>
  <path d="M20.075,45c-.552,0-1,.447-1,1v2c0,.553.448,1,1,1s1-.447,1-1v-2c0-.553-.448-1-1-1Z"/>
  <path d="M24.075,45c-.552,0-1,.447-1,1v2c0,.553.448,1,1,1s1-.447,1-1v-2c0-.553-.448-1-1-1Z"/>
  <path d="M37.075,49h4c1.103,0,2-.897,2-2v-2c0-1.103-.897-2-2-2h-4c-1.103,0-2,.897-2,2v2c0,1.103.897,2,2,2ZM37.075,45h4v2s-4,0-4,0v-2Z"/>
  <path d="M56.077,22.012c-.549-.084-1.057.29-1.141.836-.892,5.788-5.991,10.152-11.862,10.152-6.617,0-12-5.383-12-12s5.383-12,12-12c5.871,0,10.97,4.364,11.862,10.152.084.546.59.915,1.141.836.546-.084.92-.595.836-1.141-1.041-6.754-6.99-11.848-13.838-11.848-7.72,0-14,6.28-14,14,0,.681.065,1.345.16,2H12.075c-2.757,0-5,2.243-5,5v24c0,2.757,2.243,5,5,5h34c2.757,0,5-2.243,5-5v-19.548c3.047-2.135,5.244-5.444,5.838-9.3.084-.546-.29-1.057-.836-1.141ZM49.075,52c0,1.654-1.346,3-3,3H12.075c-1.654,0-3-1.346-3-3v-24c0-1.654,1.346-3,3-3h17.59c.207.692.474,1.357.78,2H14.075c-1.654,0-3,1.346-3,3v20c0,1.654,1.346,3,3,3h5c.552,0,1-.447,1-1s-.448-1-1-1h-5c-.551,0-1-.448-1-1v-20c0-.552.449-1,1-1h17.527c2.533,3.622,6.727,6,11.473,6,.678,0,1.344-.063,2-.16v15.16c0,.552-.449,1-1,1h-21c-.552,0-1,.447-1,1s.448,1,1,1h21c1.654,0,3-1.346,3-3v-15.603c.688-.208,1.358-.461,2-.769v18.373Z"/>
  <path d="M48.405,21c1.02-.83,1.67-2.09,1.67-3.5,0-2.31-1.76-4.2-4-4.45v-1.05c0-.55-.45-1-1-1s-1,.45-1,1v1h-2v-1c0-.55-.45-1-1-1s-1,.45-1,1v1h-3c-.55,0-1,.45-1,1s.45,1,1,1h1v12h-1c-.55,0-1,.45-1,1s.45,1,1,1h3v1c0,.55.45,1,1,1s1-.45,1-1v-1h2v1c0,.55.45,1,1,1s1-.45,1-1v-1.05c2.24-.25,4-2.14,4-4.45,0-1.41-.65-2.67-1.67-3.5ZM45.575,27h-5.5v-5h5.5c1.38,0,2.5,1.12,2.5,2.5s-1.12,2.5-2.5,2.5ZM45.575,20h-5.5v-5h5.5c1.38,0,2.5,1.12,2.5,2.5s-1.12,2.5-2.5,2.5Z"/>
</svg>