<?xml version="1.0" encoding="UTF-8"?>
<svg id="Outline" xmlns="http://www.w3.org/2000/svg" version="1.1" viewBox="0 0 64 64">
  <!-- Generator: Adobe Illustrator 29.5.1, SVG Export Plug-In . SVG Version: 2.1.0 Build 141)  -->
  <path d="M56,25c.55,0,1-.45,1-1v-4c0-.55-.45-1-1-1h-1.22l-1.81-7.24c-.11-.45-.51-.76-.97-.76h-2v-3c0-.55-.45-1-1-1H15c-.55,0-1,.45-1,1v3h-2c-.46,0-.86.31-.97.76l-1.81,7.24h-1.22c-.55,0-1,.45-1,1v4c0,.55.45,1,1,1h4v22h-2c-.55,0-1,.45-1,1v3h-1c-.55,0-1,.45-1,1v4c0,.55.45,1,1,1h48c.55,0,1-.45,1-1v-4c0-.55-.45-1-1-1h-1v-3c0-.55-.45-1-1-1h-2v-22h4ZM16,9h32v2H16v-2ZM12.78,13h38.44l1.5,6H11.28l1.5-6ZM55,53v2H9v-2h46ZM53,49v2H11v-2h42ZM16,35h-2v-6h2c.55,0,1-.45,1-1s-.45-1-1-1h-2v-2h36v2h-2c-.55,0-1,.45-1,1s.45,1,1,1h2v6h-2c-.55,0-1,.45-1,1s.45,1,1,1h2v10h-7v-6h2c.55,0,1-.45,1-1s-.45-1-1-1h-2v-1c0-6.07-4.93-11-11-11s-11,4.93-11,11v1h-2c-.55,0-1,.45-1,1s.45,1,1,1h2v6h-7v-10h2c.55,0,1-.45,1-1s-.45-1-1-1ZM41,38v9h-18v-9c0-4.96,4.04-9,9-9s9,4.04,9,9ZM9,23v-2h46v2H9Z"/>
  <path d="M20,31h-3c-.553,0-1,.447-1,1s.447,1,1,1h3c.553,0,1-.447,1-1s-.447-1-1-1Z"/>
  <path d="M16,44c0,.553.447,1,1,1h2c.553,0,1-.447,1-1s-.447-1-1-1h-2c-.553,0-1,.447-1,1Z"/>
  <path d="M48,32c0-.553-.447-1-1-1h-3c-.553,0-1,.447-1,1s.447,1,1,1h3c.553,0,1-.447,1-1Z"/>
  <path d="M47,43h-2c-.553,0-1,.447-1,1s.447,1,1,1h2c.553,0,1-.447,1-1s-.447-1-1-1Z"/>
</svg>