<?xml version="1.0" encoding="UTF-8"?>
<svg id="Outline" xmlns="http://www.w3.org/2000/svg" version="1.1" viewBox="0 0 64 64">
  <!-- Generator: Adobe Illustrator 29.5.1, SVG Export Plug-In . SVG Version: 2.1.0 Build 141)  -->
  <path d="M45,43c0,2.206,1.794,4,4,4s4-1.794,4-4-1.794-4-4-4-4,1.794-4,4ZM51,43c0,1.103-.897,2-2,2s-2-.897-2-2,.897-2,2-2,2,.897,2,2Z"/>
  <path d="M56.826,41.356c-.117-.539-.647-.883-1.19-.763-.539.117-.881.65-.763,1.19.084.386.127.795.127,1.216,0,2.548-3.802,8.304-6,11.326-1.765-2.425-4.557-6.607-5.593-9.484-.001-.004-.003-.008-.004-.012-.252-.703-.403-1.33-.403-1.831,0-3.26,2.614-5.915,5.856-5.993,0,0,.002,0,.003,0,.048-.001.094-.007.142-.007.427,0,.824.042,1.216.127.07.016.142.023.214.023h.011c.553,0,.995-.447.995-1,0-.487-.353-.893-.814-.981-.163-.035-.328-.055-.492-.079.568-1.965.871-4.005.871-6.09,0-12.131-9.869-22-22-22S7,16.869,7,29s9.869,22,22,22c4.695,0,9.262-1.523,13.021-4.286,1.853,4.178,5.632,9.173,6.185,9.895.189.247.483.392.794.392s.604-.145.794-.392c.737-.962,7.206-9.518,7.206-13.608,0-.564-.059-1.117-.174-1.644ZM48.903,30.912l-1.796-.601c-.77-.258-1.586-.197-2.294.164l-2.839,1.419c-.142.071-.287.105-.443.105h-2.891c-1.421,0-2.657,1.015-2.94,2.412l-.42,2.08c-.08.397-.39.707-.787.787l-2.08.42c-1.397.283-2.412,1.52-2.412,2.94v1.53c0,.269-.105.521-.297.713l-.391.391c-.306.305-.772.382-1.155.192l-3.156-1.578c-.452-.229-.664-.741-.503-1.221l.119-.356c.315-.932.147-1.961-.446-2.75l-1.614-2.154c-.702-.928-1.845-1.368-2.992-1.137l-2.263.45c-.438.091-.886-.129-1.084-.532-.013-.023-.032-.058-.052-.09-.297-.555-.748-.999-1.319-1.293l-.254-.126c-1.038-.527-2.303-.395-3.217.34l-1.634,1.306c-.47-1.698-.742-3.479-.742-5.325,0-.822.065-1.628.162-2.424l.471.471c.712.712,1.846.823,2.704.265l1.264-.847c.07-.045.149-.031.198.041l.946,1.414c.396.604,1.063.952,1.774.952.142,0,.284-.014.427-.042l3.328-.668c1-.188,1.726-1.067,1.726-2.092v-.73c0-.403-.119-.806-.358-1.185l-1.444-2.167c-.023-.035-.029-.081,0-.135l.494-.999c.009-.019.039-.043.076-.057l2-.666c.646-.208,1.157-.719,1.361-1.354l.605-1.807c.245-.774.044-1.609-.563-2.271,0-.027.009-.119.104-.139l2.542-.501c.05-.008.077,0,.08,0l1.037.529c.059.028.067.081.067.11v2.41c0,.977.661,1.831,1.618,2.08l2.25.56c.981.248,1.982-.217,2.437-1.123l.482-.902,1.482-.725,2.354.037,1.17,1.17c.569.569,1.404.772,2.193.521l3.417-1.139c2.26,3.24,3.597,7.169,3.597,11.41,0,.643-.037,1.28-.097,1.912ZM29,9c6.026,0,11.424,2.69,15.094,6.919l-2.726.909c-.061.021-.121.006-.161-.034l-1.17-1.17c-.396-.396-.945-.623-1.507-.623h-2.261c-.336,0-.657.076-.957.226l-1.422.711c-.409.206-.748.545-.955.956l-.42.84c-.03.062-.102.096-.163.077l-2.241-.558c-.062-.016-.111-.08-.111-.142v-2.41c0-.82-.457-1.552-1.176-1.9l-1.041-.531c-.423-.203-.891-.263-1.356-.17l-2.553.503c-1.003.211-1.704,1.074-1.704,2.099,0,.57.222,1.105.623,1.507.04.04.053.101.039.145l-.604,1.802c-.011.033-.041.063-.084.078l-2.021.674c-.551.19-.989.575-1.229,1.071l-.479.967c-.362.688-.313,1.518.123,2.161l1.426,2.139c.028.046.036.083.036.097v.73c0,.062-.041.116-.106.129l-3.337.669c-.063.013-.114-.007-.146-.054l-.946-1.415c-.648-.983-1.979-1.254-2.972-.601l-1.259.844c-.061.04-.141.038-.188-.01l-1.439-1.439c2.161-8.71,10.023-15.194,19.392-15.194ZM29,49c-8.433,0-15.648-5.254-18.584-12.654l2.21-1.767c.306-.243.72-.292,1.067-.113l.25.124c.205.105.362.262.467.467.01.019.024.044.04.069.611,1.181,1.936,1.819,3.245,1.555l2.259-.449c.383-.076.771.069,1.005.378l1.612,2.152c.201.268.257.598.15.911l-.12.358c-.479,1.428.149,2.96,1.501,3.644l3.165,1.582c.425.21.88.312,1.332.312.78,0,1.55-.304,2.127-.881l.391-.391c.569-.569.883-1.324.883-2.127v-1.53c0-.473.34-.885.809-.979l2.08-.42c1.188-.241,2.11-1.164,2.352-2.352l.42-2.08c.095-.469.507-.809.979-.809h2.891c.467,0,.916-.105,1.337-.315l2.848-1.424c.232-.12.502-.139.758-.053l2.129.712c-.144.725-.331,1.439-.555,2.142-3.962.474-7.046,3.85-7.046,7.938,0,.521.107,1.116.292,1.757-3.499,2.731-7.831,4.243-12.292,4.243Z"/>
  <path d="M54.657,38.757c.391-.391.391-1.024,0-1.414-.391-.391-1.024-.391-1.414,0s-.391,1.024,0,1.414,1.024.391,1.414,0Z"/>
</svg>