<?xml version="1.0" encoding="UTF-8"?>
<svg id="Outline" xmlns="http://www.w3.org/2000/svg" version="1.1" viewBox="0 0 64 64">
  <!-- Generator: Adobe Illustrator 29.0.0, SVG Export Plug-In . SVG Version: 2.1.0 Build 186)  -->
  <path d="M44,33.00137h-.87c.45319-3.62295.90639-7.2459,1.35958-10.86885.11396-.91099.17748-1.84635.34392-2.74942.10853-.58884.28978-.53155.8178-.88991.79592-.54017,1.33188-1.47445,1.34734-2.44139.01994-1.24739-.8277-2.46138-2.0056-2.87241-.13329-.04497.00695-2.85647.00695-3.17803,0-.52002-.40002-.95001-.91998-1l-24-2c-.27002-.02002-.54999.07001-.76001.26001-.20001.19-.32001.45996-.32001.73999,0,0,0,5.17999-.00001,5.18-.4142.1479-.7984.37843-1.10998.69-.57001.56-.89001,1.32001-.89001,2.13,0,1.33997.89001,2.45996,2.09998,2.84998l1.77002,14.15002h-.87c-1.65002,0-3,1.34998-3,3,0,1.32996.88,2.45001,2.09003,2.83997l1.91998,17.27002c.04999.51001.47998.89001.98999.89001h20c.51001,0,.94-.38.98999-.89001l1.91998-17.27002c1.21002-.38995,2.09003-1.51001,2.09003-2.83997,0-1.65002-1.34998-3-3-3ZM21,9.09134l22,1.83002v2.08002h-22v-3.91003ZM20,17.00137c-.54984,0-.99976-.44977-1-.99957-.00023-.53971.46188-1.00043,1-1.00043h24c.5498,0,.99969.4497,1,.99943.00031.54122-.46141,1.00057-1,1.00057h-11c-.54999,0-1,.45001-1,1s.45001,1,1,1h9.87l-1.75,14h-18.23999l-1.75-14h3.87c.54999,0,1-.45001,1-1s-.45001-1-1-1h-5ZM41.09998,55.00137h-18.19995l-1.78003-16h21.76001l-1.78003,16ZM44,37.00137h-24c-.54999,0-1-.45001-1-1s.45001-1,1-1h24c.54999,0,1,.45001,1,1s-.45001,1-1,1Z"/>
  <circle cx="29" cy="18.00137" r="1"/>
</svg>