<?xml version="1.0" encoding="UTF-8"?>
<svg id="Outline" xmlns="http://www.w3.org/2000/svg" version="1.1" viewBox="0 0 64 64">
  <!-- Generator: Adobe Illustrator 29.5.1, SVG Export Plug-In . SVG Version: 2.1.0 Build 141)  -->
  <path d="M32,7c-12.14,0-22,12.47-22,20.6,0,2.48.81,4.3,2.25,5.65l4.61,21.38c.3,1.37,1.53,2.37,2.93,2.37h24.42c1.4,0,2.63-1,2.93-2.37l2.25-10.42c.11-.54-.23-1.07-.77-1.19-.54-.11-1.07.23-1.19.77l-2.25,10.42c-.1.46-.51.79-.97.79h-4.25c.11-.28.2-.57.23-.89l1.75-17.49c2.9-.3,5.44-.84,7.42-1.78l-1.07,4.95c-.11.54.23,1.07.77,1.19.07.01.14.02.21.02.46,0,.88-.32.98-.79l1.5-6.96c1.44-1.35,2.25-3.17,2.25-5.65,0-8.13-9.86-20.6-22-20.6ZM19.79,55c-.46,0-.87-.33-.97-.79l-4.19-19.37c1.99.94,4.53,1.48,7.43,1.78l1.75,17.49c.03.32.12.61.23.89h-4.25ZM38.2,53.91c-.06.62-.58,1.09-1.2,1.09h-4v-5c0-.55-.45-1-1-1s-1,.45-1,1v5h-4c-.62,0-1.14-.47-1.2-1.09l-1.72-17.12c2.17.15,4.5.2,6.92.21v9c0,.55.45,1,1,1s1-.45,1-1v-9c2.42-.01,4.75-.06,6.92-.21l-1.72,17.12ZM32,35c-12.97,0-20-1.18-20-7.4,0-7.35,8.96-18.6,20-18.6s20,11.25,20,18.6c0,6.22-7.03,7.4-20,7.4Z"/>
  <path d="M23.707,16.878c1.264-1.264,3.322-1.264,4.586,0,.195.195.451.293.707.293.872,0,1.322-1.093.707-1.707-2.045-2.044-5.369-2.044-7.414,0-.391.39-.391,1.023,0,1.414s1.023.391,1.414,0Z"/>
  <path d="M35.707,16.878c1.264-1.264,3.322-1.264,4.586,0,.195.195.451.293.707.293.873,0,1.323-1.092.707-1.707-2.045-2.044-5.369-2.044-7.414,0-.391.39-.391,1.023,0,1.414s1.023.391,1.414,0Z"/>
  <path d="M26.293,20.222c-.391.391-.391,1.023,0,1.414,1.524,1.524,3.552,2.364,5.707,2.364s4.183-.84,5.707-2.364c.391-.391.391-1.023,0-1.414s-1.023-.391-1.414,0c-2.367,2.367-6.219,2.367-8.586,0-.391-.391-1.023-.391-1.414,0Z"/>
  <circle cx="46" cy="31" r="1"/>
  <circle cx="49" cy="29" r="1"/>
  <circle cx="47" cy="26" r="1"/>
</svg>