<?xml version="1.0" encoding="UTF-8"?>
<svg id="Outline" xmlns="http://www.w3.org/2000/svg" version="1.1" viewBox="0 0 64 64">
  <!-- Generator: Adobe Illustrator 29.3.1, SVG Export Plug-In . SVG Version: 2.1.0 Build 151)  -->
  <circle cx="24" cy="25" r="1"/>
  <circle cx="20" cy="28" r="1"/>
  <circle cx="25" cy="29" r="1"/>
  <circle cx="38" cy="26" r="1"/>
  <circle cx="43" cy="28" r="1"/>
  <path d="M53.78003,36.12c.13995-.35004.21997-.72998.21997-1.12,0-1.32001-.85999-2.42999-2.03998-2.83002-.37-5.79999-4.55005-10.57001-10.06-11.83002.65997-.52997,1.19995-1.16998,1.56995-1.89996.79004-1.58002.70001-3.37-.25995-4.89001l-3.81-6.08002c-.19-.31-.53003-.46997-.89001-.46997-.35999.01996-.69.22998-.85004.54999-1.32996,2.65997-4.69995,4.45001-8.37,4.45001h-3.26996c-3.32001,0-6.02002,2.23999-6.02002,5,0,1.33997.64001,2.54999,1.66998,3.45001-5.29999,1.40997-9.26996,6.06995-9.63,11.71997-1.17999.40002-2.03998,1.51001-2.03998,2.83002,0,.39001.08002.76996.21997,1.12-1.26996.33997-2.21997,1.5-2.21997,2.88s.94,2.51996,2.20001,2.88l3.44,12.88995c.34998,1.31,1.53998,2.23004,2.89996,2.23004h30.92004c1.35999,0,2.54999-.92004,2.89996-2.23004l3.44-12.88995c1.26001-.36005,2.20001-1.5,2.20001-2.88s-.95001-2.54004-2.21997-2.88ZM26.02002,14h3.26996c3.82001,0,7.27002-1.58002,9.26001-4.13l2.97003,4.73999c.57996.92999.63995,1.96997.15997,2.94-.73999,1.46002-2.62,2.45001-4.67999,2.45001h-10.97998c-2.22003,0-4.02002-1.35004-4.02002-3s1.79999-3,4.02002-3ZM25,22h14c5.72998,0,10.45001,4.39996,10.96002,10H14.03998c.51001-5.60004,5.23004-10,10.96002-10ZM13,34h38c.54999,0,1,.45001,1,1s-.45001,1-1,1H13c-.54999,0-1-.45001-1-1s.45001-1,1-1ZM16.53998,55c-.45996,0-.84998-.31-.96997-.73999l-3.27002-12.26001h4.82001l1.73999,13h-2.32001ZM20.88,55l-1.73999-13h3.97998l1.73999,13h-3.97998ZM31,55h-4.12l-1.73999-13h5.85999v13ZM37.12,55h-4.12v-13h5.85999l-1.73999,13ZM43.12,55h-3.97998l1.73999-13h3.97998l-1.73999,13ZM48.42999,54.26001c-.12.42999-.51001.73999-.96997.73999h-2.32001l1.73999-13h4.82001l-3.27002,12.26001ZM53,40H11c-.54999,0-1-.45001-1-1s.45001-1,1-1h42c.54999,0,1,.45001,1,1s-.45001,1-1,1Z"/>
</svg>