<?xml version="1.0" encoding="UTF-8"?>
<svg id="Outline" xmlns="http://www.w3.org/2000/svg" version="1.1" viewBox="0 0 64 64">
  <!-- Generator: Adobe Illustrator 29.0.0, SVG Export Plug-In . SVG Version: 2.1.0 Build 186)  -->
  <path d="M47,39c-2.20557,0-4,2.24316-4,5s1.79443,5,4,5c.94073,0,1.79517-.42505,2.47894-1.10699l.81402.81402c.36794.36794,1.025.38907,1.41407,0,.39062-.39062.39062-1.02344,0-1.41406l-1.12091-1.12091c.25696-.65967.41388-1.39044.41388-2.17206,0-2.75684-1.79443-5-4-5ZM47,47c-1.08398,0-2-1.37402-2-3s.91602-3,2-3,2,1.37402,2,3c0,.18689-.01508.36926-.03815.54779l-.25482-.25482c-.39062-.39062-1.02344-.39062-1.41406,0s-.39062,1.02344,0,1.41406l.79224.79224c-.31512.31335-.68829.50073-1.08521.50073Z"/>
  <path d="M32,41c.55225,0,1-.44727,1-1s-.44775-1-1-1h-3c-.55225,0-1,.44727-1,1v8c0,.55273.44775,1,1,1s1-.44727,1-1v-3h2c.55225,0,1-.44727,1-1s-.44775-1-1-1h-2v-2h2Z"/>
  <path d="M41,48v-6c0-1.6543-1.3457-3-3-3s-3,1.3457-3,3v6c0,.55273.44775,1,1,1s1-.44727,1-1v-2h2v2c0,.55273.44775,1,1,1s1-.44727,1-1ZM37,44v-2c0-.55176.44873-1,1-1s1,.44824,1,1v2h-2Z"/>
  <path d="M17,16c-1.6543,0-3,1.3457-3,3s1.3457,3,3,3,3-1.3457,3-3-1.3457-3-3-3ZM17,20c-.55127,0-1-.44824-1-1s.44873-1,1-1,1,.44824,1,1-.44873,1-1,1Z"/>
  <path d="M57,19c0-5.19629-12.88037-8-25-8S7,13.80371,7,19v6.99995c0,.87356,1.08988,1.32423,1.70703.70708l2.9126-2.91211c4.59521,2.01367,12.12695,3.20508,20.38037,3.20508,12.11963,0,25-2.80371,25-8ZM11.40576,21.59473c-.25977,0-.51562.10059-.70752.29297l-1.69824,1.69824v-4.58594c0-2.50586,8.75-6,23-6s23,3.49414,23,6-8.75,6-23,6c-8.24268,0-15.96631-1.2666-20.15723-3.30469-.13965-.06738-.28906-.10059-.43701-.10059Z"/>
  <path d="M23,18h24c.55225,0,1-.44727,1-1s-.44775-1-1-1h-24c-.55225,0-1,.44727-1,1s.44775,1,1,1Z"/>
  <path d="M40,21c0-.55273-.44775-1-1-1h-16c-.55225,0-1,.44727-1,1s.44775,1,1,1h16c.55225,0,1-.44727,1-1Z"/>
  <path d="M54,35h-19v-5c0-.4043-.24365-.76953-.61719-.92383-.37451-.15625-.8042-.06934-1.08984.2168l-5.70703,5.70703h-1.58594c-1.6543,0-3,1.3457-3,3v12c0,1.6543,1.3457,3,3,3h11c.55225,0,1-.44727,1-1s-.44775-1-1-1h-11c-.55127,0-1-.44824-1-1v-12c0-.55176.44873-1,1-1h2c.26514,0,.51953-.10547.70703-.29297l4.29297-4.29297v3.58594c0,.55273.44775,1,1,1h20c.55127,0,1,.44824,1,1v12c0,.55176-.44873,1-1,1h-9c-.55225,0-1,.44727-1,1s.44775,1,1,1h9c1.6543,0,3-1.3457,3-3v-12c0-1.6543-1.3457-3-3-3Z"/>
  <circle cx="41" cy="52" r="1"/>
</svg>