<?xml version="1.0" encoding="UTF-8"?>
<svg id="Outline" xmlns="http://www.w3.org/2000/svg" version="1.1" viewBox="0 0 64 64">
  <!-- Generator: Adobe Illustrator 29.0.0, SVG Export Plug-In . SVG Version: 2.1.0 Build 186)  -->
  <path d="M49.1792,44.33002c4.95001-3.97003,7.87-9.98999,7.87-16.38,0-11.58002-9.41998-21-21-21-6.39001,0-12.40997,2.91998-16.38,7.87l-1.75-2.45001c-.16998-.23999-.44-.39001-.72998-.41998-.29999-.02002-.58002.07996-.79004.28998l-8.31,8.32001c-1.25995,1.25-1.5,3.19-.58997,4.71997,3.81,6.36005,8.41998,12.26001,13.69,17.53003,5.26996,5.27002,11.16998,9.88,17.52997,13.69.61005.35999,1.29999.54999,1.97003.54999.15997,0,.32001-.01001.46997-.03998.85004-.08002,1.66003-.47003,2.28003-1.10004l8.32001-8.31c.20996-.20996.31-.5.28998-.78998-.03003-.28998-.17999-.56-.41998-.72998l-2.45001-1.75ZM36.0492,8.95001c10.47998,0,19,8.51996,19,19,0,5.96997-2.82001,11.57996-7.57001,15.15997l-1.71997-1.22998c4.52997-3.16003,7.28998-8.37,7.28998-13.92999,0-9.37-7.63-17-17-17-5.56,0-10.76001,2.76001-13.92999,7.28998l-1.22998-1.71997c3.57996-4.75,9.19-7.57001,15.15997-7.57001ZM24.9892,22.27002l-1.63-2.29004c2.75-4.34998,7.54999-7.02997,12.69-7.02997,8.27002,0,15,6.72998,15,15,0,5.14996-2.67999,9.95001-7.03003,12.69l-2.28998-1.63c-.39996-.29004-.94-.23999-1.28998.09998-2.73004,2.73004-7.17004,2.73004-9.90002,0l-5.64996-5.64996c-2.73004-2.73004-2.73004-7.17004,0-9.90002.33997-.34998.38995-.89001.09998-1.28998ZM42.02918,54.5c-.29999.29999-.67999.47998-1.10999.52997-.39001.05005-.81-.03998-1.16998-.25-6.22003-3.71997-11.98999-8.22998-17.15002-13.37994-5.14996-5.16003-9.65997-10.93005-13.38-17.15002-.44-.72998-.32001-1.66998.28003-2.28003l7.47998-7.47998,1.82001,2.54999h.01001l2.53998,3.57001c.01001.01001.02002.03003.03003.04004l1.51996,2.12c-2.91998,3.53998-2.72998,8.79999.57001,12.09998l5.66003,5.65997c3.29999,3.30005,8.56,3.49005,12.09998.57001l8.28003,5.92004-7.48004,7.47998Z"/>
  <path d="M39.82166,25.37042c.76855-.56348,1.22754-1.46826,1.22754-2.42041,0-1.6543-1.3457-3-3-3s-3,1.3457-3,3c0,.55225.44775,1,1,1s1-.44775,1-1c0-.55127.44873-1,1-1s1,.44873,1,1c0,.32227-.14941.6167-.40967.80762-1.01074.74023-1.59033,1.80811-1.59033,2.92969v.2627c0,.55225.44775,1,1,1s1-.44775,1-1v-.2627c0-.65332.48389-1.10498.77246-1.31689Z"/>
  <circle cx="38.0492" cy="30.95001" r="1"/>
  <path d="M29.19959,34.42218c-.19141.30859-.20068.69629-.02441,1.01367s.51074.51416.87402.51416h2c.55225,0,1-.44775,1-1s-.44775-1-1-1h-.20166l.69141-1.1123c.24561-.396.18555-.90869-.14502-1.2373-1.51172-1.50195-2.34473-3.50879-2.34473-5.65039,0-4.41113,3.58887-8,8-8s8,3.58887,8,8c0,3.7627-2.5625,6.97217-6.23096,7.80469-.53857.12207-.87598.65771-.75391,1.19629s.65967.87695,1.19629.75391c4.58594-1.04004,7.78857-5.05176,7.78857-9.75488,0-5.51416-4.48584-10-10-10s-10,4.48584-10,10c0,2.40771.84229,4.67969,2.3877,6.48047l-1.2373,1.9917Z"/>
  <circle cx="36.0492" cy="34.95001" r="1"/>
</svg>