<?xml version="1.0" encoding="UTF-8"?>
<svg id="Outline" xmlns="http://www.w3.org/2000/svg" version="1.1" viewBox="0 0 64 64">
  <!-- Generator: Adobe Illustrator 29.3.1, SVG Export Plug-In . SVG Version: 2.1.0 Build 151)  -->
  <path d="M32,7c-13.78998,0-25,11.20996-25,25v4c0,.54999.45001,1,1,1h3v7c0,1.64996,1.34998,3,3,3h1c0,1.64996,1.34998,3,3,3h2c1.65002,0,3-1.35004,3-3v-16c0-1.65002-1.34998-3-3-3h-2c-1.65002,0-3,1.34998-3,3h-1c-.34003,0-.65997.07001-.96002.16998.44-10.09003,8.76001-18.16998,18.96002-18.16998s18.52002,8.07996,18.96002,18.16998c-.30005-.09998-.62-.16998-.96002-.16998h-1c0-1.65002-1.34998-3-3-3h-2c-1.65002,0-3,1.34998-3,3v16c0,1.64996,1.34998,3,3,3v1.58997l-1.40997,1.41003h-5.77002c-.41998-1.16003-1.52002-2-2.82001-2h-4c-1.65002,0-3,1.34998-3,3s1.34998,3,3,3h4c1.29999,0,2.40002-.84003,2.82001-2h6.17999c.27002,0,.52002-.10999.71002-.29004l2-2c.17999-.19.28998-.44.28998-.70996v-2c1.65002,0,3-1.35004,3-3h1c1.65002,0,3-1.35004,3-3v-7h3c.54999,0,1-.45001,1-1v-4c0-13.79004-11.21002-25-25-25ZM17,31c0-.54999.45001-1,1-1h2c.54999,0,1,.45001,1,1v16c0,.54999-.45001,1-1,1h-2c-.54999,0-1-.45001-1-1v-16ZM34,55h-4c-.54999,0-1-.45001-1-1s.45001-1,1-1h4c.54999,0,1,.45001,1,1s-.45001,1-1,1ZM47,47c0,.54999-.45001,1-1,1h-2c-.54999,0-1-.45001-1-1v-16c0-.54999.45001-1,1-1h2c.54999,0,1,.45001,1,1v16ZM14,33h1v12h-1c-.54999,0-1-.45001-1-1v-10c0-.54999.45001-1,1-1ZM51,44c0,.54999-.45001,1-1,1h-1v-12h1c.54999,0,1,.45001,1,1v10ZM55,35h-2v-3c0-11.58002-9.41998-21-21-21s-21,9.41998-21,21v3h-2v-3c0-12.67999,10.32001-23,23-23s23,10.32001,23,23v3Z"/>
  <path d="M28.69727,47l2.74805,1.83203c.16797.1123.36133.16797.55469.16797s.38672-.05566.55469-.16797l2.74805-1.83203h.69727c1.6543,0,3-1.3457,3-3v-4c0-1.6543-1.3457-3-3-3h-8c-1.6543,0-3,1.3457-3,3v4c0,1.6543,1.3457,3,3,3h.69727ZM27,44v-4c0-.55176.44824-1,1-1h8c.55176,0,1,.44824,1,1v4c0,.55176-.44824,1-1,1h-1c-.19727,0-.39062.05859-.55469.16797l-2.44531,1.62988-2.44531-1.62988c-.16406-.10938-.35742-.16797-.55469-.16797h-1c-.55176,0-1-.44824-1-1Z"/>
  <circle cx="34" cy="42" r="1"/>
  <circle cx="30" cy="42" r="1"/>
</svg>