<?xml version="1.0" encoding="UTF-8"?>
<svg id="Outline" xmlns="http://www.w3.org/2000/svg" version="1.1" viewBox="0 0 64 64">
  <!-- Generator: Adobe Illustrator 29.3.1, SVG Export Plug-In . SVG Version: 2.1.0 Build 151)  -->
  <path d="M57.03001,28.58499c-.15002-.38-.52002-.62-.92004-.62h-2.01996c-.53003-11.66998-10.17999-21-21.98004-21-10.70996,0-19.73999,7.58002-21.63995,18.07001l-3.29004,3.28998c-.27997.28998-.37.72003-.20996,1.09003.14996.38.51996.62.91998.62h2.02002c.19995,4.39001,1.69,8.51996,4.26001,12h-3.28003c-.54999,0-1,.45001-1,1v12c0,.54999.45001,1,1,1h6c.54999,0,1-.45001,1-1h.88l6.81,1.70001c.78998.19995,1.59998.29999,2.40997.29999,1.40002,0,2.76001-.29004,4.04004-.85999l14.07001-6.25c.82996-.37006,1.45996-1.05005,1.76996-1.91003.30005-.85999.23999-1.77002-.15997-2.57001-.13-.25-.28998-.47998-.47998-.69,3.26996-3.20001,5.47998-7.32996,6.29999-11.78998l3.28998-3.28998c.28003-.29004.37-.72003.21002-1.09003ZM15.89,54.035h-4v-10h3.96002c.01996.01001.02997.02997.03998.03998v9.96002ZM16.89,42.035h-.16998c-3.12-3.62-4.83002-8.16003-4.83002-13,0-.54999-.45001-1-1-1h-.59003l2.59003-2.59003,2.59003,2.59003h-.59003c-.54999,0-1,.45001-1,1,0,5.52997,2.56,10.64001,6.71997,14h-2.71997c0-.54999-.45001-1-1-1ZM18.60002,28.32498l-2.22003-2.21002c1.37-7.52997,8.03003-13.14996,15.72998-13.14996,8.49005,0,15.45001,6.64001,15.97003,15h-1.97003c-.39996,0-.76996.23999-.91998.62-.15997.37-.07001.79999.21002,1.09003l2.21997,2.20996c-.54999,3.04004-1.92999,5.75-3.89996,7.91003-.35004-1.04004-1.25-1.82001-2.41003-2l-3.88995-.55005c-.42004-.06-.75-.37-.84003-.77997l-.40002-1.91003c1.40002-1.08997,2.38-2.69,2.64001-4.51996h.07001c.88,0,1.71002-.39001,2.28998-1.06.57001-.67004.81-1.56.67004-2.44-.11005-.67004-.46002-1.25-.96002-1.69v-3.81c0-3.31-2.69-6-6-6h-5c-1.90002,0-3.48999,1.32996-3.90002,3.09998-1.76996.41003-3.09998,2-3.09998,3.90002v2.81c-.5.44-.84998,1.01996-.96002,1.69-.13995.88.10004,1.76996.67004,2.44.57996.66998,1.40997,1.06,2.28998,1.06h.07001c.26001,1.82996,1.23999,3.42999,2.64001,4.51996l-.40002,1.90002c-.09003.41998-.41998.72998-.84003.78998l-3.89996.55005c-1.15002.17999-2.03998.95996-2.40002,1.98999-2.39996-2.65002-3.90997-6.07001-4.13995-9.75h1.96997c.40002,0,.77002-.23999.91998-.62.16003-.37.07001-.80005-.20996-1.09003ZM32.78001,44.99496c-.62-.58997-1.46002-.95996-2.39001-.95996h-4.06c-1.63-.60999-3.12-1.47003-4.44-2.53003v-.73999c0-.5.37-.90997.85999-.98999l3.89001-.54999c1.23999-.17999,2.25-1.12,2.52002-2.36005l.26996-1.27997c.76001.28998,1.59003.45001,2.46002.45001s1.70001-.16003,2.46002-.45001l.26996,1.28998c.27002,1.23004,1.28003,2.17004,2.52002,2.35004l3.88.54999c.5.08002.87.48999.87.98999v.75c-2.53003,2.03003-5.67999,3.28998-9.10999,3.47998ZM37.06999,46.27499l-3.19,1.20001c0-.19-.02002-.37-.04999-.54999,1.10999-.12006,2.19-.34003,3.23999-.65002ZM24.99998,26.035h1.89001c.54999,0,1-.45001,1-1s.45001-1,1-1h6c.54999,0,1,.45001,1,1s.45001,1,1,1h1.89001c.53998,0,1.01996.35999,1.09998.82996.04999.30005-.02997.59003-.22998.82001-.19.22003-.47003.35004-.76001.35004h-1c-.54999,0-1,.45001-1,1,0,2.76001-2.23999,5-5,5s-5-2.23999-5-5c0-.54999-.45001-1-1-1h-1c-.28998,0-.57001-.13-.76001-.35004-.20001-.22998-.27997-.51996-.22998-.82001.08002-.46997.56-.82996,1.09998-.82996ZM24.89,24.04501v-2.01001c0-1.10004.90002-2,2-2,.54999,0,1-.45001,1-1,0-1.10004.90002-2,2-2h5c2.21002,0,4,1.78998,4,4v3.01001c-.03998,0-.07001-.01001-.10999-.01001h-1.06c-.41003-1.16003-1.53003-2-2.83002-2h-6c-1.29999,0-2.41998.83997-2.83002,2h-1.06c-.03998,0-.07001.01001-.10999.01001ZM45.98003,47.345c-.12006.33997-.37006.60999-.70001.76001l-14.06,6.25c-1.62.70996-3.44.87-5.16003.44l-6.92999-1.73004c-.08002-.01996-.15997-.02997-.23999-.02997h-1v-8h2.88l3.88.96997c.08002.02002.15997.03003.23999.03003h5.5c.83002,0,1.5.66998,1.5,1.5,0,.82996-.66998,1.5-1.5,1.5h-5.5c-.54999,0-1,.45001-1,1s.45001,1,1,1h5.5c.98999,0,1.88-.42004,2.52002-1.08002.02997-.01001.04999,0,.07996-.01001l11.31-4.23999c.67004-.25,1.33002.04999,1.62006.63.15997.32001.17999.67999.06,1.01001ZM45.45,43.70499c-.59998-.13-1.23999-.09998-1.84998.12l-4.45001,1.66998c4.95001-2.17999,8.75-6.51996,10.14996-11.92999l1.10004,1.11005c.15997.15997.37.23999.58002.25995-1.04004,3.33002-2.94,6.36005-5.53003,8.77002ZM51.10997,32.55496l-2.58997-2.58997h.58997c.55005,0,1-.45001,1-1,0-9.92999-8.07996-18-18-18-8.19995,0-15.37,5.66998-17.40997,13.46997l-1.09998-1.10999c-.17004-.15997-.37-.23999-.59003-.27002,2.54999-8.29999,10.17999-14.08997,19.09998-14.08997,11.03003,0,20,8.96997,20,20,0,.54999.45001,1,1,1h.59003l-2.59003,2.58997Z"/>
</svg>