<?xml version="1.0" encoding="UTF-8"?>
<svg id="Outline" xmlns="http://www.w3.org/2000/svg" version="1.1" viewBox="0 0 64 64">
  <!-- Generator: Adobe Illustrator 29.5.1, SVG Export Plug-In . SVG Version: 2.1.0 Build 141)  -->
  <path d="M55.93979,33.99329c-.54999-.07001-1.03998.31995-1.10999.87-.60999,4.82001-2.70001,9.13995-5.78003,12.52997-.73999-1.02997-1.84998-1.76001-3.13995-1.98999l-.45001-.09003c-1.60004-2.52997-2.45001-5.42999-2.45001-8.42999v-2.69c.09998-.08997.20001-.16998.28998-.26996.57001-.67004.81-1.56.67004-2.44-.11005-.67004-.47003-1.25-.96002-1.69v-.81c0-6.07001-4.92999-11-11-11s-11,4.92999-11,11v.81c-.48999.44-.84998,1.01996-.96002,1.69-.13995.88.10004,1.76996.67004,2.44.08997.09998.19.17999.28998.26996v2.69c0,3-.84998,5.90002-2.45001,8.42999l-.45001.09003c-1.28998.22998-2.40997.96002-3.14996,2-3.70001-4.08002-5.95001-9.48999-5.95001-15.41998,0-4.10004,1.09003-8.10999,3.15002-11.59003.27997-.47998.12-1.08997-.35004-1.37-.46997-.27997-1.08997-.12-1.37.35004-2.23999,3.78998-3.42999,8.14996-3.42999,12.60999,0,6.97998,2.88,13.29999,7.5,17.83997.03003.02002.03998.04004.07001.06,4.5,4.39001,10.64996,7.10004,17.42999,7.10004,6.71002,0,12.84998-2.69,17.38-7.07001.07001-.06.13-.12.19-.19,3.85999-3.82001,6.52002-8.89001,7.22998-14.62.07001-.54004-.32001-1.04004-.87-1.10999ZM42.89981,44.85327l-4.04999-.72998-.74005-3.53003c1.55005-1.44,2.60004-3.40002,2.84003-5.60999h.06v1.89996c0,2.79004.65997,5.5,1.89001,7.97003ZM23.11978,30.98328h1.89001c.54999,0,1-.45001,1-1s-.45001-1-1-1h-1.89001c-.03998,0-.07001.01001-.10999,0,0-4.96002,4.03998-9,9-9s9,4.03998,9,9.01001c-.03998,0-.07001-.01001-.10999-.01001-.95001,0-1.85004-.37-2.52002-1.04999l-1.65997-1.66003c-.33002-.32001-.83002-.38-1.22003-.14996-1.56.92999-3.22998,1.64996-4.95996,2.12994-.59003.17004-1.17004.30005-1.71002.40002s-.90002.62-.79999,1.15997c.09998.54004.60999.91003,1.15997.80005.60004-.11005,1.22998-.25,1.88-.42999,1.65997-.46002,3.26001-1.12006,4.77002-1.95001l1.12,1.12c1.04999,1.04999,2.45001,1.63,3.94,1.63.53986,0,1.01975.35983,1.08992.8197.09267.60729-.35089,1.1803-.97993,1.1803h-1c-.54999,0-1,.45001-1,1,0,3.85999-3.14001,7-7,7s-7-3.14001-7-7c0-.54999-.45001-1-1-1h-1c-.63047,0-1.07816-.5719-.97998-1.17999.07001-.46002.54999-.82001,1.08997-.82001ZM36.90982,44.58325c-2.94,1.94-6.86005,1.94-9.80005,0l.58002-2.71997c1.28003.70996,2.75,1.12,4.32001,1.12s3.03998-.41003,4.32001-1.12l.58002,2.71997ZM23.0098,36.88324v-1.89996h.06c.23999,2.20996,1.28998,4.16998,2.84003,5.60999l-.74005,3.53003-4.04999.72998c1.23004-2.47003,1.89001-5.17999,1.89001-7.97003ZM32.0098,54.98328c-6.02002,0-11.5-2.32001-15.59998-6.12.42999-.77002,1.16998-1.33002,2.06-1.5l7.25-1.31c1.85999,1.32001,4.07001,1.97998,6.28998,1.97998s4.42999-.65997,6.28998-1.97998l7.25,1.31c.89001.16998,1.62.71997,2.05005,1.48999-4.12006,3.81-9.61005,6.13-15.59003,6.13Z"/>
  <path d="M54.99124,31.02576c.02246.53711.46582.95752.99805.95752.01465,0,.0293-.00049.04297-.00098.55176-.02344.98047-.48926.95703-1.0415-.17285-4.08936-1.35156-8.08936-3.40918-11.56689-.28125-.47412-.89453-.63184-1.36914-.35156-.47559.28125-.63281.89453-.35156,1.37012,1.88965,3.19482,2.97266,6.87158,3.13184,10.6333Z"/>
  <path d="M28.62503,13.50574l-.21094,2.38965c-.03125.3501.12402.69043.4082.89697.28516.20654.65723.24805.97852.11133l2.20898-.93848,2.20898.93848c.12499.05322.25778.07958.39058.07959.56009.00002,1.04876-.49832.99614-1.08789l-.21094-2.38965,1.5752-1.81006c.23145-.26514.30566-.63184.19727-.96582s-.38477-.58643-.72656-.66553l-2.33887-.53857-1.23438-2.05713c-.36133-.60254-1.35352-.60254-1.71484,0l-1.23438,2.05713-2.33887.53857c-.3418.0791-.61816.33154-.72656.66553s-.03418.70068.19727.96582l1.5752,1.81006ZM30.78128,11.37927c.26465-.06104.49316-.22705.63281-.45996l.5957-.99268.5957.99268c.13965.23291.36816.39893.63281.45996l1.12891.26025-.75977.87402c-.17871.20459-.26562.47363-.24219.74414l.10156,1.15381-1.06641-.45312c-.125-.05322-.25781-.07959-.39062-.07959s-.26562.02637-.39062.07959l-1.06641.45312.10156-1.15381c.02344-.27051-.06348-.53955-.24219-.74414l-.75977-.87402,1.12891-.26025Z"/>
  <path d="M40.62503,16.50574l-.21094,2.38965c-.03125.3501.12402.69043.4082.89697.28516.20654.6582.24756.97852.11133l2.20898-.93848,2.20898.93848c.12499.05322.25779.07959.3906.07959.57937.00002,1.04744-.50954.99612-1.08789l-.21094-2.38965,1.5752-1.81006c.23145-.26514.30566-.63184.19727-.96582s-.38477-.58643-.72656-.66553l-2.33887-.53857-1.23438-2.05713c-.36133-.60254-1.35352-.60254-1.71484,0l-1.23438,2.05713-2.33887.53857c-.3418.0791-.61816.33154-.72656.66553s-.03418.70068.19727.96582l1.5752,1.81006ZM42.78128,14.37927c.26465-.06104.49316-.22705.63281-.45996l.5957-.99268.5957.99268c.13965.23291.36816.39893.63281.45996l1.12891.26025-.75977.87402c-.17871.20459-.26562.47363-.24219.74414l.10156,1.15381-1.06641-.45312c-.125-.05322-.25781-.07959-.39062-.07959s-.26562.02637-.39062.07959l-1.06641.45312.10156-1.15381c.02344-.27051-.06348-.53955-.24219-.74414l-.75977-.87402,1.12891-.26025Z"/>
  <path d="M16.62503,16.50574l-.21094,2.38965c-.03125.3501.12402.69043.4082.89697.28516.20654.65723.24756.97852.11133l2.20898-.93848s2.20898.93848,2.20904.9385c.3221.13712.69531.09445.97846-.11135.28418-.20654.43945-.54687.4082-.89697l-.21094-2.38965,1.5752-1.81006c.23145-.26514.30566-.63184.19727-.96582s-.38477-.58643-.72656-.66553l-2.33887-.53857-1.23438-2.05713c-.36133-.60254-1.35352-.60254-1.71484,0l-1.23438,2.05713-2.33887.53857c-.3418.0791-.61816.33154-.72656.66553s-.03418.70068.19727.96582l1.5752,1.81006ZM18.78128,14.37927c.26465-.06104.49316-.22705.63281-.45996l.5957-.99268.5957.99268c.13965.23291.36816.39893.63281.45996l1.12891.26025-.75977.87402c-.17871.20459-.26562.47363-.24219.74414l.10156,1.15381-1.06641-.45312c-.125-.05322-.25781-.07959-.39062-.07959s-.26562.02637-.39062.07959l-1.06641.45312.10156-1.15381c.02344-.27051-.06348-.53955-.24219-.74414l-.75977-.87402,1.12891-.26025Z"/>
</svg>