<?xml version="1.0" encoding="UTF-8"?>
<svg id="Outline" xmlns="http://www.w3.org/2000/svg" version="1.1" viewBox="0 0 64 64">
  <!-- Generator: Adobe Illustrator 29.0.0, SVG Export Plug-In . SVG Version: 2.1.0 Build 186)  -->
  <path d="M38.63,15.32996c-.28003-.47998-.90002-.62994-1.37-.34998-.47998.28003-.63.90002-.35004,1.37,1.37006,2.29999,2.09003,4.95001,2.09003,7.65002,0,4.01996-1.59998,7.65997-4.17999,10.35999-.40002-.31-.88-.52002-1.40002-.59998l-3.88995-.55005c-.42004-.06-.75-.37-.84003-.77997l-.40002-1.91003c1.40002-1.08997,2.38-2.69,2.64001-4.51996h.07001c.88,0,1.71002-.38,2.28998-1.06.57001-.67004.81-1.56.67004-2.44-.11005-.67004-.46002-1.25-.96002-1.69v-.81c0-4.96002-4.03998-9-9-9s-9,4.03998-9,9v.81c-.5.44-.84998,1.01996-.96002,1.69-.13995.88.10004,1.76996.67004,2.44.57996.67999,1.40997,1.06,2.28998,1.06h.07001c.26001,1.82996,1.23999,3.42999,2.64001,4.51996l-.40002,1.90002c-.09003.41998-.41998.72998-.84003.78998l-3.89996.55005c-.52002.07996-.98999.28998-1.39001.59998-2.58002-2.70001-4.17999-6.34003-4.17999-10.35999,0-8.27002,6.72998-15,15-15,2.70001,0,5.34998.71997,7.65002,2.08997.46997.28003,1.08997.13,1.37-.34998.27997-.47003.13-1.09003-.35004-1.37-2.60999-1.54999-5.60999-2.37-8.66998-2.37-9.37,0-17,7.63-17,17s7.63,17,17,17,17-7.63,17-17c0-3.06-.82001-6.06-2.37-8.67004ZM17,20c0-3.85999,3.14001-7,7-7s7,3.14001,7,7v.01001c-.03998,0-.07001-.01001-.10999-.01001h-.89001c0-1.65002-1.34998-3-3-3h-6c-1.65002,0-3,1.34998-3,3h-.89001c-.03998,0-.07001.01001-.10999.01001v-.01001ZM19,25c0-.54999-.45001-1-1-1h-1c-.28998,0-.57001-.13-.76001-.35004-.20001-.22998-.27002-.51996-.22998-.82001.08002-.46997.56-.82996,1.09998-.82996h1.89001c.54999,0,1-.45001,1-1v-1c0-.54999.45001-1,1-1h6c.54999,0,1,.45001,1,1v1c0,.54999.45001,1,1,1h1.89001c.53998,0,1.01996.35999,1.09998.82001.04004.31-.02997.59998-.22998.82996-.19.22003-.47003.35004-.76001.35004h-1c-.54999,0-1,.45001-1,1,0,2.76001-2.23999,5-5,5s-5-2.23999-5-5ZM24,39c-3.48999,0-6.70001-1.21002-9.25-3.22003.03998-.01001.07001-.02997.10999-.03998l3.89001-.54999c1.26001-.17999,2.23999-1.10004,2.52002-2.36005l.26996-1.27997c.76001.28998,1.59003.45001,2.46002.45001s1.70001-.16003,2.46002-.45001l.26996,1.28998c.28003,1.25,1.26001,2.17004,2.52002,2.35004l3.88.54999c.04999.01001.08002.02997.12.04999-2.54999,2-5.76001,3.21002-9.25,3.21002Z"/>
  <path d="M52.84863,50.28418c-1.5083-1.47266-3.49316-2.28418-5.58887-2.28418-2.09521,0-4.08008.81152-5.58838,2.28418-.39502.38672-.40234,1.01953-.0166,1.41504s1.02002.40234,1.41406.0166c1.13232-1.10645,2.62109-1.71582,4.19092-1.71582,1.57031,0,3.05908.60938,4.19141,1.71582.19434.18945.44678.28418.69873.28418.25977,0,.51953-.10059.71533-.30078.38574-.39551.37842-1.02832-.0166-1.41504Z"/>
  <path d="M47,37c-2.42334,0-4.7085.85547-6.52344,2.42578l-1.87646-1.40723c-.30371-.22754-.70898-.26367-1.04736-.09473-.33887.16992-.55273.51562-.55273.89453v8.18164c0,5.51367,4.48584,10,10,10s10-4.48633,10-10-4.48584-10-10-10ZM47,55c-4.41113,0-8-3.58887-8-8v-6.18164l.94971.71191c.40283.30273.96729.25781,1.31689-.10254,1.52246-1.56543,3.55859-2.42773,5.7334-2.42773,4.41113,0,8,3.58887,8,8s-3.58887,8-8,8Z"/>
  <path d="M44,46c.55225,0,1-.44727,1-1v-2c0-.55273-.44775-1-1-1s-1,.44727-1,1v2c0,.55273.44775,1,1,1Z"/>
  <path d="M50,46c.55225,0,1-.44727,1-1v-2c0-.55273-.44775-1-1-1s-1,.44727-1,1v2c0,.55273.44775,1,1,1Z"/>
  <path d="M36.02081,13.39337c.3905-.3905.3905-1.02368,0-1.41418-.3905-.39056-1.02368-.39056-1.41418,0-.39056.3905-.39056,1.02368,0,1.41418.3905.39056,1.02368.39056,1.41418,0Z"/>
</svg>