<?xml version="1.0" encoding="UTF-8"?>
<svg id="Outline" xmlns="http://www.w3.org/2000/svg" version="1.1" viewBox="0 0 64 64">
  <!-- Generator: Adobe Illustrator 29.0.0, SVG Export Plug-In . SVG Version: 2.1.0 Build 186)  -->
  <path d="M34.51367,40.625c-.39844-.31055-.96289-.27539-1.32129.08203l-2.12109,2.12109c-.75488.75488-2.07227.75684-2.8291,0l-7.07031-7.07031c-.37793-.37793-.58594-.87988-.58594-1.41406,0-.53516.20801-1.03711.58594-1.41504l2.12109-2.12109c.35645-.35645.3916-.92285.08203-1.32129l-9.89941-12.72754c-.17578-.22656-.44043-.36621-.72656-.38379-.29492-.01562-.56641.08789-.76953.29102-3.21094,3.21094-4.97949,7.47949-4.97949,12.02051s1.76855,8.80957,4.97949,12.02051l11.31348,11.31348c3.21094,3.21094,7.47949,4.97949,12.02051,4.97949s8.80957-1.76855,12.02051-4.97949c.20312-.20312.30859-.4834.29102-.76953s-.15723-.55078-.38379-.72656l-12.72754-9.89941ZM35.31348,55c-4.00684,0-7.77344-1.56055-10.60645-4.39355l-11.31348-11.31348c-2.83301-2.83301-4.39355-6.59961-4.39355-10.60645,0-3.625,1.27734-7.05371,3.61914-9.77148l8.63574,11.10254-1.49707,1.49707c-1.55957,1.55957-1.55957,4.09766,0,5.65723l7.07031,7.07031c1.56055,1.55957,4.09668,1.56152,5.65723,0l1.49707-1.49707,11.10254,8.63574c-2.71777,2.3418-6.14648,3.61914-9.77148,3.61914Z"/>
  <path d="M34,7c-6.0993,0-11.86005,2.38721-16.14264,6.61542l-.02435-.46991c-.0293-.55273-.50684-.98242-1.05078-.94727-.55176.0293-.97559.5-.94727,1.05078l.14746,2.8252c.01465.26562.13281.51367.33007.69141.1836.16602.42286.25684.66895.25684.01758,0,.03516,0,.05273-.00098l2.8252-.14844c.55078-.0293.97461-.5.94629-1.05176-.0293-.55078-.47656-.98926-1.05176-.94629l-.34503.01825c3.89441-3.77002,9.09265-5.89325,14.59113-5.89325,11.5791,0,21,9.4209,21,21,0,6.39648-2.85938,12.35938-7.8457,16.35938-.43057.34563-.49997.97531-.15453,1.40596.34402.42888.98186.49383,1.40648.15458,5.46094-4.38184,8.59375-10.91406,8.59375-17.91992,0-12.68262-10.31738-23-23-23Z"/>
  <path d="M48.37598,32.1416c.49707.24121,1.0957.03125,1.33496-.46777.85547-1.77734,1.28906-3.68555,1.28906-5.67383,0-7.16797-5.83203-13-13-13s-13,5.83203-13,13,5.83203,13,13,13c1.98828,0,3.89648-.43359,5.67383-1.28906.49805-.24023.70703-.83789.46777-1.33496-.24023-.49805-.83691-.70703-1.33496-.46777-1.50488.72461-3.12109,1.0918-4.80664,1.0918-6.06543,0-11-4.93457-11-11s4.93457-11,11-11,11,4.93457,11,11c0,1.68555-.36719,3.30176-1.0918,4.80664-.23926.49707-.03027,1.09473.46777,1.33496Z"/>
  <path d="M38,17c-.55273,0-1,.44727-1,1v5.18427c-.84717.30206-1.51367.96857-1.81573,1.81573h-5.18427c-.55273,0-1,.44727-1,1s.44727,1,1,1h5.18433c.41412,1.1615,1.51373,2,2.81567,2,1.6543,0,3-1.3457,3-3,0-1.30194-.8385-2.40161-2-2.81573v-5.18427c0-.55273-.44727-1-1-1ZM38,27c-.55176,0-1-.44824-1-1s.44824-1,1-1,1,.44824,1,1-.44824,1-1,1Z"/>
  <path d="M45.7782,33.77814c-.39056.39056-.39056,1.02368,0,1.41425.3905.3905,1.02368.3905,1.41418,0,.3905-.39056.3905-1.02368,0-1.41425-.3905-.3905-1.02368-.3905-1.41418,0Z"/>
</svg>