<?xml version="1.0" encoding="UTF-8"?>
<svg id="Outline" xmlns="http://www.w3.org/2000/svg" version="1.1" viewBox="0 0 64 64">
  <!-- Generator: Adobe Illustrator 29.3.1, SVG Export Plug-In . SVG Version: 2.1.0 Build 151)  -->
  <path d="M56.59998,41.81c-.38-.52002-.96997-.81-1.62-.81h-15.15997c-.89001,0-1.67999.58997-1.91998,1.45001l-.90002,3.07996v-.63c0-3.34998-2.12-6.37-5.27002-7.51996l-5.72998-2.08002v-3.25c2.96002-1.47998,5-4.53003,5-8.04999v-1.23004c.27002.08002.53003.16003.79999.21002.07001.01001.13.02002.20001.02002.22998,0,.45001-.08002.63-.23004.23999-.19.37-.46997.37-.76996v-4c0-4.88-3.20001-9.02002-7.60999-10.46002h-.01001c-1.07001-.34998-2.20001-.53998-3.38-.53998-1.98999,0-3.85999.53998-5.46997,1.46997-.93005-.92999-2.19-1.46997-3.53003-1.46997-2.76001,0-5,2.23999-5,5,0,2.04999,1.26001,3.85999,3.09998,4.60999-.06.46002-.09998.91998-.09998,1.39001v4c0,.54999.45001,1,1,1h.19c.27002,0,.53998-.03003.81-.04004v1.04004c0,3.51996,2.03998,6.57001,5,8.04999v3.25l-5.72998,2.08002c-3.15002,1.14996-5.27002,4.16998-5.27002,7.51996v10.10004c0,1.09998.90002,2,2,2h2c.54999,0,1-.45001,1-1s-.45001-1-1-1h-2v-10.10004c0-2.50995,1.59003-4.77997,3.95001-5.63995l.98999-.36005.77002,3.08002c.29999,1.19,1.37,2.02002,2.59998,2.02002.16998,0,.34998.07001.47003.20001l3.21997,3.20996v7.59003h-2c-.54999,0-1,.45001-1,1s.45001,1,1,1h32.51001c.89001,0,1.67999-.59003,1.91998-1.44l3.48999-12.01001c.17999-.59998.06-1.23999-.32001-1.73999ZM28.16998,38.20996l-.82001,3.27002c-.07996.31-.34998.52002-.65997.52002-.70001,0-1.39001.28998-1.89001.77997l-1.79999,1.81v-4.26001l2.35999-3.13995,2.81,1.01996ZM26,9.95001c2.96002,1.47998,5,4.52997,5,8.04999v2.69c-2.25-.81-4.06-2.53003-4.96002-4.79999l-.03998-.08002v-5.85999ZM11.53998,14.60999c-.92999-.52002-1.53998-1.5-1.53998-2.60999,0-1.65002,1.34998-3,3-3,.67999,0,1.33002.25,1.84998.65997-1.51996,1.29999-2.67999,3.01001-3.31,4.95001ZM13,18c0-4.96002,4.03998-9,9-9,.69,0,1.35999.07996,2,.22998v6.38c-2.79999,3.21997-6.75,5.15002-11,5.37v-2.97998ZM15,24v-1.23999c3.67999-.59003,7.08002-2.31,9.71997-4.97003.99005,1.79999,2.49005,3.23999,4.28003,4.17999v2.03003c0,3.85999-3.14001,7-7,7s-7-3.14001-7-7ZM21,44.58997l-1.79999-1.81c-.5-.48999-1.19-.77997-1.89001-.77997-.31,0-.58002-.21002-.65997-.51001l-.82001-3.28003,2.81-1.01996,2.35999,3.13995v4.26001ZM20,35.66998v-2.90002c.64001.15002,1.31.23004,2,.23004s1.35999-.08002,2-.23004v2.90002l-2,2.65997-2-2.65997ZM34.25,55h-3.25v-2h3.83002l-.58002,2ZM35,51h-4c-1.09998,0-2,.89996-2,2v2h-6v-7.59003l3.21997-3.20996c.12006-.13.30005-.20001.47003-.20001,1.22998,0,2.29999-.83002,2.59998-2.03003l.77002-3.07001.98999.36005c2.35999.85999,3.95001,3.13,3.95001,5.63995v6.10004ZM51.51001,55h-15.17999l3.48999-12h15.17999l-3.48999,12Z"/>
  <path d="M45.5,52c1.6543,0,3-1.3457,3-3s-1.3457-3-3-3-3,1.3457-3,3,1.3457,3,3,3ZM45.5,48c.55176,0,1,.44873,1,1s-.44824,1-1,1-1-.44873-1-1,.44824-1,1-1Z"/>
  <circle cx="45" cy="20" r="1"/>
  <path d="M43,33c-.55273,0-1,.44775-1,1s.44727,1,1,1h4c.55273,0,1-.44775,1-1s-.44727-1-1-1h-1v-9c0-.55225-.44727-1-1-1h-2c-.55273,0-1,.44775-1,1s.44727,1,1,1h1v8h-1Z"/>
  <path d="M35.5127,34.34033l-.49316,2.46338c-.06543.32812.03711.66699.27344.90332.2373.23682.5752.34033.90332.27344l2.85547-.5708c1.81543,1.0415,3.86426,1.59033,5.94824,1.59033,6.61719,0,12-5.3833,12-12s-5.38281-12-12-12-12,5.3833-12,12c0,2.65625.88867,5.24414,2.5127,7.34033ZM45,17c5.51367,0,10,4.48584,10,10s-4.48633,10-10,10c-1.8457,0-3.6582-.51758-5.24121-1.49707-.15918-.09814-.3418-.14941-.52637-.14941-.06543,0-.13086.00635-.19629.01953l-1.76074.35205.29004-1.45166c.05957-.29834-.01953-.60791-.21582-.84033-1.51465-1.7998-2.34961-4.08447-2.34961-6.43311,0-5.51416,4.48633-10,10-10Z"/>
  <circle cx="15" cy="56" r="1"/>
</svg>