<?xml version="1.0" encoding="UTF-8"?>
<svg id="Outline" xmlns="http://www.w3.org/2000/svg" version="1.1" viewBox="0 0 64 64">
  <!-- Generator: Adobe Illustrator 29.5.1, SVG Export Plug-In . SVG Version: 2.1.0 Build 141)  -->
  <path d="M19.10547,17.9834c-.10156-.31348-.35059-.55566-.66602-.64941l-1.64307-.48926-.97314-1.41211c-.37305-.54102-1.27344-.54102-1.64648,0l-.97314,1.41211-1.64307.48926c-.31543.09375-.56445.33594-.66602.64941-.10156.3125-.04297.65527.15674.91602l1.04199,1.36133-.04248,1.71484c-.0083.32812.14551.64062.41162.83301.2666.19336.60986.24414.92041.13477l1.61719-.57031,1.61719.57031c.10837.03808.22065.05663.33244.05664.55685.00004,1.01372-.46599.99959-1.02441l-.04248-1.71484,1.04199-1.36133c.19971-.26074.2583-.60352.15674-.91602ZM16.104,19.32617c-.13818.18066-.21094.4043-.20508.63184l.01514.61621-.58154-.20508c-.10742-.03809-.22021-.05664-.33252-.05664s-.2251.01855-.33252.05664l-.58154.20508.01514-.61621c.00586-.22754-.06689-.45117-.20508-.63184l-.37451-.48926.59033-.17676c.21875-.06445.40869-.20215.53809-.39062l.3501-.50781.3501.50781c.12939.18848.31934.32617.53809.39062l.59033.17676-.37451.48926Z"/>
  <path d="M43,27v-10c0-.55273-.44775-1-1-1s-1,.44727-1,1v10c0,.55176-.44873,1-1,1H13c-.12744,0-.25342.02441-.37158.07129l-3.62842,1.45215V11c0-.55176.44873-1,1-1h30c.55127,0,1,.44824,1,1v2c0,.55273.44775,1,1,1s1-.44727,1-1v-2c0-1.6543-1.3457-3-3-3H10c-1.6543,0-3,1.3457-3,3,0,0,0,20,0,20.00004.00003.6859.73608,1.18184,1.37158.92867l4.8208-1.92871h26.80762c1.6543,0,3-1.3457,3-3Z"/>
  <path d="M39,13c0-.55273-.44775-1-1-1h-16c-.55225,0-1,.44727-1,1s.44775,1,1,1h16c.55225,0,1-.44727,1-1Z"/>
  <path d="M36,16h-14c-.55225,0-1,.44727-1,1s.44775,1,1,1h14c.55225,0,1-.44727,1-1s-.44775-1-1-1Z"/>
  <path d="M22,22h10.45459c.55225,0,1-.44727,1-1s-.44775-1-1-1h-10.45459c-.55225,0-1,.44727-1,1s.44775,1,1,1Z"/>
  <path d="M22,26h14c.55225,0,1-.44727,1-1s-.44775-1-1-1h-14c-.55225,0-1,.44727-1,1s.44775,1,1,1Z"/>
  <path d="M53.10547,41.9834c-.10156-.31348-.35059-.55566-.66602-.64941l-1.64307-.48926-.97314-1.41211c-.37305-.54102-1.27344-.54102-1.64648,0l-.97314,1.41211-1.64307.48926c-.31543.09375-.56445.33594-.66602.64941-.10156.3125-.04297.65527.15674.91602l1.04199,1.36133-.04248,1.71484c-.0083.32812.14551.64062.41162.83301.26709.19336.61084.24414.92041.13477l1.61719-.57031,1.61719.57031c.28247.09961.64811.06313.92041-.13476.26611-.19238.41992-.50488.41162-.83301l-.04248-1.71484,1.04199-1.36133c.19971-.26074.2583-.60352.15674-.91602ZM50.104,43.32617c-.13818.18066-.21094.4043-.20508.63184l.01514.61621-.58154-.20508c-.10742-.03809-.22021-.05664-.33252-.05664s-.2251.01855-.33252.05664l-.58154.20508.01514-.61621c.00586-.22754-.06689-.45117-.20508-.63184l-.37451-.48926.59033-.17676c.21875-.06445.40869-.20215.53809-.39062l.3501-.50781.3501.50781c.12939.18848.31934.32617.53809.39062l.59033.17676-.37451.48926Z"/>
  <path d="M56,38c.55225,0,1-.44727,1-1v-2c0-1.6543-1.3457-3-3-3h-30c-1.6543,0-3,1.3457-3,3v16c0,1.6543,1.3457,3,3,3h26.80762l4.8208,1.92871c.12012.04785.24609.07129.37166.07129.5457-.00004.99993-.45196.99993-1v-14c0-.55273-.44775-1-1-1s-1,.44727-1,1v12.52344l-3.62842-1.45215c-.11816-.04688-.24414-.07129-.37158-.07129h-27c-.55127,0-1-.44824-1-1v-16c0-.55176.44873-1,1-1h30c.55127,0,1,.44824,1,1v2c0,.55273.44775,1,1,1Z"/>
  <path d="M42,36h-16c-.55225,0-1,.44727-1,1s.44775,1,1,1h16c.55225,0,1-.44727,1-1s-.44775-1-1-1Z"/>
  <path d="M42,40h-14c-.55225,0-1,.44727-1,1s.44775,1,1,1h14c.55225,0,1-.44727,1-1s-.44775-1-1-1Z"/>
  <path d="M42,44h-10.45459c-.55225,0-1,.44727-1,1s.44775,1,1,1h10.45459c.55225,0,1-.44727,1-1s-.44775-1-1-1Z"/>
  <path d="M42,48h-14c-.55225,0-1,.44727-1,1s.44775,1,1,1h14c.55225,0,1-.44727,1-1s-.44775-1-1-1Z"/>
</svg>