<?xml version="1.0" encoding="UTF-8"?>
<svg id="Outline" xmlns="http://www.w3.org/2000/svg" version="1.1" viewBox="0 0 48 48">
  <!-- Generator: Adobe Illustrator 29.5.1, SVG Export Plug-In . SVG Version: 2.1.0 Build 141)  -->
  <path d="M42.683,12.553c-.103-.316-.355-.561-.675-.652l-5.63-1.62-3.281-4.854c-.371-.551-1.285-.551-1.656,0l-3.281,4.854-5.63,1.62c-.319.092-.572.336-.675.652-.103.315-.042.661.162.924l3.603,4.621-.104,3.058c-.764-.839-1.852-1.377-3.073-1.377-.211,0-.427.02-.652.06-1.443-1.094-3.6-1.094-5.043,0-.226-.04-.441-.06-.652-.06-2.272,0-4.126,1.826-4.172,4.089-.992.78-1.588,1.979-1.588,3.259,0,.575.12,1.142.349,1.666-.135.25-.237.519-.284.807-.131.807.095,1.624.62,2.24.516.606,1.264.959,2.059.972.252,1.569,1.099,2.934,2.289,3.886l-.338,1.614c-.064.306-.316.541-.633.584l-1.537.218c-3.355-2.13-5.592-5.869-5.592-10.128,0-6.617,5.383-12,12-12,.287,0,.564.008.844.035.543.049,1.039-.35,1.092-.898.054-.55-.349-1.038-.898-1.092-.342-.033-.684-.045-1.037-.045-7.72,0-14,6.28-14,14s6.28,14,14,14,14-6.28,14-14c0-1.002-.105-2.001-.312-2.969-.116-.54-.648-.891-1.187-.769-.54.115-.885.646-.769,1.187.178.831.268,1.688.268,2.551,0,4.26-2.237,7.998-5.592,10.128l-1.541-.218c-.312-.043-.564-.278-.629-.585l-.338-1.613c1.191-.952,2.037-2.317,2.289-3.886.795-.013,1.543-.365,2.059-.972.525-.616.751-1.434.62-2.241-.047-.288-.149-.557-.284-.807.229-.524.349-1.091.349-1.666,0-.889-.303-1.731-.812-2.429l4.878-1.771,5.508,1.999c.11.04.226.06.341.06.564,0,1.012-.475.999-1.034l-.198-5.854,3.603-4.621c.204-.263.265-.608.162-.924ZM13.447,25.248c.352-.196.552-.583.508-.982l-.016-.13c-.008-.061-.018-.12-.018-.183,0-1.198.975-2.174,2.173-2.174.181,0,.388.036.635.109.351.105.738.007.998-.256.822-.834,2.26-.834,3.082,0,.26.264.647.363.998.256.247-.073.454-.109.635-.109,1.198,0,2.173.976,2.173,2.174,0,.062-.01.122-.018.183l-.016.13c-.044.399.156.786.508.982.686.382,1.112,1.102,1.112,1.879,0,.105-.027.203-.041.305-.268-.081-.548-.133-.839-.133h-.256c-.356-.418-.835-.723-1.376-.866-.757-.2-1.565-.067-2.22.367l-.319.213c-1.053-1.001-2.713-.999-3.766,0l-.319-.213c-.653-.436-1.46-.569-2.22-.367-.541.144-1.02.448-1.376.866h-.256c-.291,0-.571.052-.839.133-.014-.101-.041-.2-.041-.305,0-.777.427-1.497,1.112-1.879ZM21.55,38.721c.154.735.602,1.355,1.209,1.744-1.105.337-2.276.521-3.491.521s-2.386-.185-3.491-.521c.608-.39,1.056-1.009,1.21-1.743l.21-1.003c.65.229,1.344.364,2.071.364s1.421-.135,2.071-.364l.21,1.002ZM25.993,30.545c-.145.17-.354.268-.577.268h-.878c-.553,0-1,.447-1,1,0,2.354-1.915,4.27-4.27,4.27s-4.27-1.915-4.27-4.27c0-.553-.447-1-1-1h-.878c-.223,0-.433-.098-.577-.268-.085-.1-.22-.312-.169-.623.057-.35.426-.623.84-.623h.784c.379,0,.726-.214.895-.553.128-.257.348-.349.467-.381.12-.031.357-.062.597.099l1,.667c.396.263.925.212,1.261-.124l.532-.531c.284-.285.75-.288,1.038,0l.531.53c.336.336.865.386,1.261.124l1-.667c.239-.161.478-.131.597-.099s.339.124.467.381c.169.339.516.553.895.553h.784c.414,0,.783.273.84.622.051.312-.084.524-.169.624ZM37.117,17.153c-.144.186-.219.415-.21.649l.16,4.739-4.458-1.618c-.11-.04-.226-.06-.341-.06s-.23.02-.341.06l-4.458,1.618.16-4.739c.009-.234-.066-.464-.21-.649l-2.916-3.74,4.557-1.312c.226-.064.421-.207.552-.401l2.656-3.929,2.656,3.929c.131.194.326.337.552.401l4.557,1.312-2.916,3.74Z"/>
</svg>