<?xml version="1.0" encoding="UTF-8"?>
<svg id="Outline" xmlns="http://www.w3.org/2000/svg" version="1.1" viewBox="0 0 64 64">
  <!-- Generator: Adobe Illustrator 29.0.0, SVG Export Plug-In . SVG Version: 2.1.0 Build 186)  -->
  <path d="M50.23828,36.23145c-1.37109-1.37158-3.64648-1.59375-5.23828-.5708-.66992-.43018-1.4502-.66064-2.26562-.66064-1.12207,0-2.17871.43701-2.97266,1.23145-1.63867,1.63916-1.63867,4.30566,0,5.94482l4.53125,4.53076c.19531.19531.45117.29297.70703.29297s.51172-.09766.70703-.29297l4.53125-4.53076c1.63867-1.63916,1.63867-4.30566,0-5.94482ZM48.82422,40.76221l-3.82422,3.82373-3.82422-3.82373c-.85938-.85938-.85938-2.25732,0-3.1167.41699-.4165.9707-.64551,1.55859-.64551.58887,0,1.14258.229,1.55859.64551.375.375,1.03906.375,1.41406,0,.83203-.83154,2.2832-.8335,3.11719,0,.85938.85938.85938,2.25732,0,3.1167Z"/>
  <path d="M45,30c-6.07001,0-11,4.92999-11,11h-4v-2c0-3.85999-3.14001-7-7-7-.54999,0-1,.45001-1,1v3c0,1.08997-.34998,2.13-1.01001,3.01001-.45001.60999-1.06,1.12-1.76001,1.46997-.67999.34003-1.45996.52002-2.22998.52002h-8c-.54999,0-1,.45001-1,1v12c0,.54999.45001,1,1,1h5.88l7.64001,1.90997c.10999.03003.27997.07001.47998.07001.54999,0,1-.45001,1-1,0-.56-.45001-1.01001-1-1.01001l-7-1.75v-10.21997h1c1.08002,0,2.16998-.25,3.12-.73004.98999-.48999,1.84003-1.20996,2.47998-2.06995.92004-1.22003,1.40002-2.67004,1.40002-4.20001v-1.90002c2.28003.46002,4,2.48999,4,4.90002v3c0,.54999.45001,1,1,1h5.19c.29999,1.59998.94,3.07001,1.84003,4.34998l-2.5,6.98999c-.14001.40002-.51001.66003-.94.66003h-1.59003c-.54999,0-1,.45001-1,1s.45001,1,1,1h1.59003c1.26996,0,2.40997-.79999,2.81995-1.98999l2.13-5.95001c1.96002,1.82001,4.58002,2.94,7.46002,2.94,6.07001,0,11-4.92999,11-11s-4.92999-11-11-11ZM14,53h-4v-10h4v10ZM45,50c-4.96002,0-9-4.04004-9-9s4.03998-9,9-9,9,4.03998,9,9-4.03998,9-9,9Z"/>
  <path d="M35.25977,27c2.60254,0,5.05469-1.28076,6.55859-3.42578.31738-.45215.20801-1.07568-.24414-1.39307-.45312-.31689-1.07617-.20703-1.39258.24463-1.13086,1.61182-2.9707,2.57422-4.92188,2.57422-1.9502,0-3.79004-.9624-4.92188-2.57471-.31641-.4502-.93945-.56104-1.39258-.24365-.45215.31738-.56152.94092-.24414,1.39307,1.50586,2.14453,3.95703,3.42529,6.55859,3.42529Z"/>
  <path d="M23.55273,29.89453c.33887.17041.74512.13281,1.04688-.09473l2.43848-1.82861c2.19922,1.95947,4.99414,3.02881,7.96191,3.02881,6.61719,0,12-5.3833,12-12s-5.38281-12-12-12-12,5.3833-12,12v10c0,.37891.21387.7251.55273.89453ZM25,19c0-5.51416,4.48633-10,10-10s10,4.48584,10,10-4.48633,10-10,10c-2.71875,0-5.26367-1.07764-7.16699-3.03467-.19434-.2002-.45508-.30273-.7168-.30273-.20996,0-.4209.06592-.59961.2002l-1.5166,1.13721v-8Z"/>
  <path d="M31.25977,18c.55273,0,1-.44775,1-1v-2c0-.55225-.44727-1-1-1s-1,.44775-1,1v2c0,.55225.44727,1,1,1Z"/>
  <path d="M39.25977,18c.55273,0,1-.44775,1-1v-2c0-.55225-.44727-1-1-1s-1,.44775-1,1v2c0,.55225.44727,1,1,1Z"/>
  <circle cx="27" cy="56" r="1"/>
</svg>