<?xml version="1.0" encoding="UTF-8"?>
<svg id="Outline" xmlns="http://www.w3.org/2000/svg" version="1.1" viewBox="0 0 64 64">
  <!-- Generator: Adobe Illustrator 29.0.0, SVG Export Plug-In . SVG Version: 2.1.0 Build 186)  -->
  <path d="M41.72968,39.0083c-.39648-.2832-.94336-.23926-1.28809.10645-2.72754,2.72754-7.16992,2.72949-9.89941,0l-5.65723-5.65723c-2.72949-2.72949-2.72949-7.16992,0-9.89941.3457-.3457.39062-.89062.10645-1.28809l-7.07129-9.89941c-.1709-.23926-.43848-.3916-.73145-.41602-.29102-.01758-.58105.08203-.78906.29004l-8.31543,8.31543c-1.25391,1.25391-1.49316,3.19434-.58301,4.7207,3.80859,6.36035,8.41309,12.25879,13.68555,17.53223,5.27344,5.27246,11.17188,9.87695,17.53516,13.68652.60547.36035,1.2959.54883,1.96875.54883.1582,0,.31543-.01074.4707-.03223.84766-.08887,1.65723-.47949,2.27832-1.10059l8.31543-8.31543c.20801-.20801.31348-.49609.29004-.78906-.02441-.29297-.17676-.56055-.41602-.73145l-9.89941-7.07129ZM42.02557,54.50146c-.29785.29785-.67871.48438-1.10254.5293-.40039.05566-.81738-.03516-1.17676-.24902-6.21973-3.72363-11.98828-8.22656-17.14551-13.38281-5.15625-5.15723-9.65918-10.92578-13.38281-17.14453-.43945-.7373-.3252-1.6748.28027-2.28027l7.48047-7.48047,5.91699,8.28223c-2.92188,3.53223-2.73047,8.79004.5752,12.0957l5.65723,5.65723c3.30762,3.30762,8.56641,3.49609,12.0957.5752l8.28223,5.91699-7.48047,7.48047Z"/>
  <path d="M47.29999,7.61865c-.5293-.16797-1.08887.12598-1.25488.65137-.16699.52637.125,1.08887.65137,1.25488,4.99512,1.58008,8.35156,6.17188,8.35156,11.42676,0,3.37964-1.40948,6.43164-3.6651,8.61462l-1.12396-8.99353c-.19336-1.49414-1.47559-2.62109-2.98047-2.62109h-.23047v-2c0-2.20605-1.79395-4-4-4s-4,1.79395-4,4v2h-.23047c-1.50488,0-2.78711,1.12695-2.98145,2.62598l-1.43518,11.48499-3.07849.61462,1.12598-5.63965c.04395-.2207.0127-.44922-.08887-.64941-.87012-1.70996-1.31152-3.53906-1.31152-5.43652,0-5.25488,3.35645-9.84668,8.35156-11.42676.52637-.16602.81836-.72852.65137-1.25488-.16602-.52539-.72559-.81934-1.25488-.65137-5.83008,1.84375-9.74805,7.20215-9.74805,13.33301,0,2.09863.46191,4.125,1.37305,6.02734l-1.35352,6.77637c-.06542.3281.03709.66694.27338.90327.21855.21859.57114.33795.90337.27349l6.77637-1.35352c1.90234.91113,3.92871,1.37305,6.02734,1.37305,7.71973,0,14-6.28027,14-14,0-6.13086-3.91797-11.48926-9.74805-13.33301ZM41.04804,15.95166c0-1.10254.89746-2,2-2s2,.89746,2,2v2h-4v-2ZM37.61151,31.64014c-.19922-.10059-.42676-.13184-.64941-.08887l-.49469.09875,1.35211-10.81946c.06543-.50098.49414-.87891.99805-.87891h8.46094c.50391,0,.93262.37793.99707.87402l1.27411,10.19745c-1.87567,1.21497-4.10516,1.92853-6.50165,1.92853-1.89746,0-3.72656-.44141-5.43652-1.31152Z"/>
  <circle cx="40.04804" cy="23.95166" r="1"/>
  <circle cx="46.04804" cy="23.95166" r="1"/>
  <circle cx="43.04804" cy="7.95166" r="1"/>
</svg>