<?xml version="1.0" encoding="UTF-8"?>
<svg id="Outline" xmlns="http://www.w3.org/2000/svg" version="1.1" viewBox="0 0 64 64">
  <!-- Generator: Adobe Illustrator 29.3.1, SVG Export Plug-In . SVG Version: 2.1.0 Build 151)  -->
  <path d="M53.75,49.08997l-2.06-.76996c.84003-1.42999,1.31-3.14001,1.31-4.32001,0-2.41003-1.71997-4.42999-4-4.90002v-2.09998c0-1.10004-.90002-2-2-2h-14v-2h10c1.09998,0,2-.90002,2-2v-9c0-.54999-.45001-1-1-1s-1,.45001-1,1v9h-22V15h6v2c0,.34998.17999.66998.46997.84998.30005.17999.67004.20001.98004.04004l3.54999-1.77002,3.54999,1.77002c.14001.06995.29999.10999.45001.10999.17999,0,.37-.04999.53003-.15002.28998-.17999.46997-.5.46997-.84998v-2h6v3c0,.54999.45001,1,1,1s1-.45001,1-1v-3c1.09998,0,2-.90002,2-2v-4c0-1.10004-.90002-2-2-2h-26c-1.09998,0-2,.89996-2,2v4c0,1.09998.90002,2,2,2v16c0,1.09998.90002,2,2,2h10v2h-14c-1.09998,0-2,.89996-2,2v2.09998c-2.28003.47003-4,2.48999-4,4.90002,0,1.17999.46997,2.89001,1.31,4.32001l-2.06.76996c-1.94.72003-3.25,2.60004-3.25,4.67999v1.23004c0,1.09998.90002,2,2,2h4c.54999,0,1-.45001,1-1s-.45001-1-1-1h-4v-1.23004c0-1.26996.76001-2.35999,1.95001-2.79999l2.65997-1c.69.62,1.48999,1.03003,2.39001,1.03003s1.70001-.41003,2.39001-1.03003l2.65997,1c1.19.44,1.95001,1.53003,1.95001,2.79999v1.23004h-6c-.54999,0-1,.45001-1,1s.45001,1,1,1h38c1.09998,0,2-.90002,2-2v-1.23004c0-2.07996-1.31-3.95996-3.25-4.67999ZM37,9h8v4h-8v-4ZM29,9h6v6.38l-2.54999-1.27002c-.14001-.07001-.29999-.10999-.45001-.10999s-.31.03998-.45001.10999l-2.54999,1.27002v-6.38ZM19,13v-4h8v4h-8ZM48,41c1.65002,0,3,1.34998,3,3,0,1.29999-.69,3.03998-1.56,4.08997-.03003.02002-.04999.06-.08002.09003-.42999.5-.90997.82001-1.35999.82001s-.92999-.32001-1.37-.83002c-.02002-.02997-.03998-.06-.07001-.08002-.87-1.04999-1.56-2.78998-1.56-4.08997,0-1.65002,1.34998-3,3-3ZM32,41c1.65002,0,3,1.34998,3,3,0,1.29999-.69,3.03998-1.56,4.08997-.03003.02002-.04999.05005-.07001.08002-.44.51001-.91998.83002-1.37.83002s-.92999-.32001-1.35999-.82001c-.03003-.03003-.04999-.07001-.08002-.09003-.87-1.04999-1.56-2.78998-1.56-4.08997,0-1.65002,1.34998-3,3-3ZM17.44,48.08997c-.03003.02002-.04999.05005-.08002.08002-.42999.51001-.90997.83002-1.35999.83002s-.92999-.32001-1.37-.83002c-.02002-.02997-.03998-.06-.07001-.08002-.87-1.04999-1.56-2.78998-1.56-4.08997,0-1.65002,1.34998-3,3-3s3,1.34998,3,3c0,1.29999-.69,3.03998-1.56,4.08997ZM24,50.78998c-.56-.75-1.33002-1.35999-2.25-1.70001l-2.06-.76996c.84003-1.42999,1.31-3.14001,1.31-4.32001,0-2.41003-1.71997-4.42999-4-4.90002v-2.09998h14v2.09998c-2.28003.47003-4,2.48999-4,4.90002,0,1.17999.46997,2.89001,1.31,4.32001l-2.06.76996c-.91998.34003-1.69.95001-2.25,1.70001ZM39,55h-14v-1.23004c0-1.26996.76001-2.35999,1.95001-2.79999l2.65997-1c.69.62,1.48999,1.03003,2.39001,1.03003s1.70001-.41003,2.39001-1.03003l2.65997,1c1.19.44,1.95001,1.53003,1.95001,2.79999v1.23004ZM40,50.78998c-.56-.75-1.33002-1.35999-2.25-1.70001l-2.06-.76996c.84003-1.42999,1.31-3.14001,1.31-4.32001,0-2.41003-1.71997-4.42999-4-4.90002v-2.09998h14v2.09998c-2.28003.47003-4,2.48999-4,4.90002,0,1.17999.46997,2.89001,1.31,4.32001l-2.06.76996c-.91998.34003-1.69.95001-2.25,1.70001ZM55,55h-14v-1.23004c0-1.26996.76001-2.35999,1.95001-2.79999l2.65997-1c.69.62,1.48999,1.03003,2.39001,1.03003s1.70001-.41003,2.39001-1.03003l2.65997,1c1.19.44,1.95001,1.53003,1.95001,2.79999v1.23004Z"/>
  <path d="M24,23c-.55273,0-1,.44727-1,1v4c0,.55273.44727,1,1,1h8c.55273,0,1-.44727,1-1v-4c0-.55273-.44727-1-1-1h-8ZM31,27h-6v-2h6v2Z"/>
</svg>