<?xml version="1.0" encoding="UTF-8"?>
<svg id="Outline" xmlns="http://www.w3.org/2000/svg" version="1.1" viewBox="0 0 48 48">
  <!-- Generator: Adobe Illustrator 29.5.1, SVG Export Plug-In . SVG Version: 2.1.0 Build 141)  -->
  <path d="M28.637,28.387l-4.301-1.238-2.507-3.708c-.372-.55-1.285-.55-1.657,0l-2.507,3.708-4.301,1.238c-.319.092-.572.336-.675.652s-.042.662.163.924l2.752,3.53-.152,4.474c-.011.332.143.647.412.843.269.195.617.244.929.131l4.208-1.527,4.208,1.527c.111.04.226.06.341.06.561,0,1.019-.473,1-1.034l-.152-4.474,2.752-3.53c.204-.262.265-.608.163-.924s-.355-.56-.675-.652ZM24.596,32.549c-.144.185-.219.415-.211.648l.114,3.358-3.158-1.146c-.11-.04-.226-.06-.341-.06s-.231.02-.341.06l-3.158,1.146.114-3.358c.008-.234-.067-.464-.211-.648l-2.066-2.649,3.229-.929c.226-.065.421-.207.552-.401l1.881-2.784,1.881,2.784c.131.194.327.336.552.401l3.229.929-2.066,2.649Z"/>
  <path d="M21,19c-8.822,0-16,5.383-16,12v11c0,.667.741,1.199,1.394.919l5.179-2.22c2.751,1.507,5.999,2.301,9.427,2.301,8.822,0,16-5.383,16-12s-7.178-12-16-12ZM21,41c-3.212,0-6.358-.809-8.858-2.277-.156-.091-.331-.138-.506-.138-.134,0-.268.027-.394.081l-4.241,1.817v-9.483c0-5.514,6.28-10,14-10s14,4.486,14,10-6.28,10-14,10Z"/>
  <path d="M38,20c.552,0,1-.448,1-1v-2c0-.552-.448-1-1-1s-1,.448-1,1v2c0,.552.448,1,1,1Z"/>
  <path d="M34,20c-.552,0-1,.448-1,1s.448,1,1,1h2c.552,0,1-.448,1-1s-.448-1-1-1h-2Z"/>
  <path d="M38,22c-.552,0-1,.448-1,1v2c0,.552.448,1,1,1s1-.448,1-1v-2c0-.552-.448-1-1-1Z"/>
  <path d="M42,20h-2c-.552,0-1,.448-1,1s.448,1,1,1h2c.552,0,1-.448,1-1s-.448-1-1-1Z"/>
  <path d="M27,12c.552,0,1-.448,1-1v-2c0-.552-.448-1-1-1s-1,.448-1,1v2c0,.552.448,1,1,1Z"/>
  <path d="M23,14h2c.552,0,1-.448,1-1s-.448-1-1-1h-2c-.552,0-1,.448-1,1s.448,1,1,1Z"/>
  <path d="M27,14c-.552,0-1,.448-1,1v2c0,.552.448,1,1,1s1-.448,1-1v-2c0-.552-.448-1-1-1Z"/>
  <path d="M29,14h2c.552,0,1-.448,1-1s-.448-1-1-1h-2c-.552,0-1,.448-1,1s.448,1,1,1Z"/>
  <path d="M37,9c.552,0,1-.448,1-1v-2c0-.552-.448-1-1-1s-1,.448-1,1v2c0,.552.448,1,1,1Z"/>
  <path d="M33,11h2c.552,0,1-.448,1-1s-.448-1-1-1h-2c-.552,0-1,.448-1,1s.448,1,1,1Z"/>
  <path d="M38,14v-2c0-.552-.448-1-1-1s-1,.448-1,1v2c0,.552.448,1,1,1s1-.448,1-1Z"/>
  <path d="M39,11h2c.552,0,1-.448,1-1s-.448-1-1-1h-2c-.552,0-1,.448-1,1s.448,1,1,1Z"/>
</svg>