<?xml version="1.0" encoding="UTF-8"?>
<svg id="Outline" xmlns="http://www.w3.org/2000/svg" version="1.1" viewBox="0 0 64 64">
  <!-- Generator: Adobe Illustrator 29.5.1, SVG Export Plug-In . SVG Version: 2.1.0 Build 141)  -->
  <path d="M52,29.001c.55,0,1-.45,1-1V8.001c0-.31-.14-.6-.38-.79-.25-.19-.57-.26-.86-.18-5.16,1.29-8.76,5.9-8.76,11.22v9.75c0,.55.45,1,1,1s1,.45,1,1v1.18c-1.16.42-2,1.52-2,2.82,0,.46.11.9.3,1.29-.18.18-.3.43-.3.71v16c0,2.76,2.24,5,5,5s5-2.24,5-5v-7c0-.55-.45-1-1-1s-1,.45-1,1v7c0,1.65-1.35,3-3,3s-3-1.35-3-3v-15h6c0,.55.45,1,1,1s1-.45,1-1v-1c0-.28-.12-.53-.3-.71.19-.39.3-.83.3-1.29,0-1.3-.84-2.4-2-2.82v-1.18c0-.55.45-1,1-1ZM50,35.001h-4c-.55,0-1-.45-1-1s.45-1,1-1h4c.55,0,1,.45,1,1s-.45,1-1,1ZM49,30.001v1h-2v-1c0-1.3-.84-2.42-2-2.83v-8.92c0-3.96,2.41-7.44,6-8.88v17.8c-1.16.41-2,1.53-2,2.83Z"/>
  <path d="M38.26,23.881c1.25-.81,2.74-2.48,2.74-5.88,0-4.48-2.73-11-7-11s-7,6.52-7,11c0,3.4,1.49,5.07,2.74,5.88.78.51,1.26,1.45,1.26,2.44v4.86c-1.16.42-2,1.52-2,2.82,0,.46.11.9.3,1.29-.18.18-.3.43-.3.71v16c0,2.76,2.24,5,5,5s5-2.24,5-5v-16c0-.28-.12-.53-.3-.71.19-.39.3-.83.3-1.29,0-1.3-.84-2.4-2-2.82v-4.86c0-.99.48-1.93,1.26-2.44ZM37,52.001c0,1.65-1.35,3-3,3s-3-1.35-3-3v-15h6v15ZM36,35.001h-4c-.55,0-1-.45-1-1s.45-1,1-1h4c.55,0,1,.45,1,1s-.45,1-1,1ZM35,26.321v4.68h-2v-4.68c0-1.69-.81-3.23-2.17-4.11-1.22-.79-1.83-2.2-1.83-4.21,0-3.93,2.42-9,5-9s5,5.07,5,9c0,2.01-.61,3.42-1.82,4.21-1.37.88-2.18,2.42-2.18,4.11Z"/>
  <path d="M25,18.001v-10c0-.55-.45-1-1-1s-1,.45-1,1v10c0,2.41-1.72,4.43-4,4.9v-14.9c0-.55-.45-1-1-1s-1,.45-1,1v14.9c-2.28-.47-4-2.49-4-4.9v-10c0-.55-.45-1-1-1s-1,.45-1,1v10c0,2.79,1.64,5.19,4,6.31v6.87c-1.16.42-2,1.52-2,2.82,0,.46.11.9.3,1.29-.18.18-.3.43-.3.71v16c0,2.76,2.24,5,5,5s5-2.24,5-5v-16c0-.28-.12-.53-.3-.71.19-.39.3-.83.3-1.29,0-1.3-.84-2.4-2-2.82v-6.87c2.36-1.12,4-3.52,4-6.31ZM17,24.921c.33.05.66.08,1,.08s.67-.03,1-.08v6.08h-2v-6.08ZM21,52.001c0,1.65-1.35,3-3,3s-3-1.35-3-3v-15h6v15ZM20,35.001h-4c-.55,0-1-.45-1-1s.45-1,1-1h4c.55,0,1,.45,1,1s-.45,1-1,1Z"/>
  <circle cx="52" cy="41.001" r="1"/>
</svg>