<?xml version="1.0" encoding="UTF-8"?>
<svg id="Outline" xmlns="http://www.w3.org/2000/svg" version="1.1" viewBox="0 0 64 64">
  <!-- Generator: Adobe Illustrator 29.5.1, SVG Export Plug-In . SVG Version: 2.1.0 Build 141)  -->
  <path d="M46,49.76l-.11-.21c-.58-1.17-.89-2.48-.89-3.79v-9.76c0-.55-.45-1-1-1h-1v-.17c0-1.54.62-3.04,1.71-4.12.18-.19.29-.44.29-.71v-5c0-.55-.45-1-1-1s-1,.45-1,1v4.6c-1.28,1.43-2,3.31-2,5.23v.17h-4V9.07c3.39.49,6,3.41,6,6.93v5c0,.55.45,1,1,1s1-.45,1-1v-5c0-4.96-4.04-9-9-9-.55,0-1,.45-1,1v46c0,1.65,1.35,3,3,3h6c1.65,0,3-1.35,3-3,0-1.46-.35-2.93-1-4.24ZM37,37h6v1.22l-6,1.5v-2.72ZM37,41.78l6-1.5v1.94l-6,1.5v-1.94ZM44,55h-6c-.55,0-1-.45-1-1v-8.22l6-1.5v1.48c0,1.62.38,3.24,1.11,4.69l.1.21c.52,1.03.79,2.19.79,3.34,0,.55-.45,1-1,1Z"/>
  <path d="M28,7c-.55,0-1,.45-1,1v9h-3v-9c0-.55-.45-1-1-1s-1,.45-1,1v9h-3v-9c0-.55-.45-1-1-1s-1,.45-1,1v16c0,.33.17.65.45.83l2.55,1.71v2.46h-1c-.55,0-1,.45-1,1v24c0,1.65,1.35,3,3,3h4c1.65,0,3-1.35,3-3v-6c0-.55-.45-1-1-1s-1,.45-1,1v6c0,.55-.45,1-1,1h-4c-.55,0-1-.45-1-1v-14.22l6-1.5v5.72c0,.55.45,1,1,1s1-.45,1-1v-14c0-.55-.45-1-1-1h-1v-2.46l2.55-1.71c.28-.18.45-.5.45-.83V8c0-.55-.45-1-1-1ZM26,36.22l-6,1.5v-1.94l6-1.5v1.94ZM26,32.22l-6,1.5v-2.72h6v1.22ZM27,23.46l-2.55,1.71c-.28.18-.45.5-.45.83v3h-2v-3c0-.33-.17-.65-.45-.83l-2.55-1.71v-4.46h8v4.46Z"/>
</svg>