<?xml version="1.0" encoding="UTF-8"?>
<svg id="Outline" xmlns="http://www.w3.org/2000/svg" version="1.1" viewBox="0 0 64 64">
  <!-- Generator: Adobe Illustrator 29.5.1, SVG Export Plug-In . SVG Version: 2.1.0 Build 141)  -->
  <path d="M56,24.001c.55,0,1-.45,1-1v-4c0-1.65-1.35-3-3-3h-1v-8c0-.31-.14-.6-.38-.79-.25-.19-.56-.26-.86-.18-4.41,1.1-7.68,4.64-8.53,8.97h-18.23c-.55,0-1,.45-1,1s.45,1,1,1h18.01c0,.08-.01.16-.01.25v21.75c0,.55.45,1,1,1h3v5H10c-.55,0-1-.45-1-1v-26c0-.55.45-1,1-1h11c.55,0,1-.45,1-1s-.45-1-1-1h-11c-1.65,0-3,1.35-3,3v26c0,1.65,1.35,3,3,3h37v.83c0,.49-.19.95-.53,1.29l-.35.34c-.72.73-1.12,1.69-1.12,2.71,0,2.11,1.72,3.83,3.83,3.83h.34c2.11,0,3.83-1.72,3.83-3.83v-5.17h1c1.65,0,3-1.35,3-3v-18c0-.55-.45-1-1-1s-1,.45-1,1v18c0,.55-.45,1-1,1h-1v-28h1c.55,0,1,.45,1,1v4c0,.55.45,1,1,1ZM51,53.171c0,1.01-.82,1.83-1.83,1.83h-.34c-1.01,0-1.83-.82-1.83-1.83,0-.49.19-.95.53-1.29l.35-.34c.72-.73,1.12-1.69,1.12-2.71v-7.83h2v12.17ZM51,39.001h-6v-20.75c0-3.96,2.41-7.44,6-8.88v29.63Z"/>
  <path d="M11,26.001v12c0,1.654,1.346,3,3,3s3-1.346,3-3v-12c0-1.654-1.346-3-3-3s-3,1.346-3,3ZM15,26.001v12c0,.551-.448,1-1,1s-1-.449-1-1v-12c0-.551.448-1,1-1s1,.449,1,1Z"/>
  <path d="M32,23.001c-.55,0-1,.45-1,1v.53c-1.47-.98-3.2-1.53-5-1.53-.55,0-1,.45-1,1v.53c-1.47-.98-3.2-1.53-5-1.53-.55,0-1,.45-1,1v16c0,.55.45,1,1,1,1.8,0,3.53-.55,5-1.53v.53c0,.55.45,1,1,1,1.8,0,3.53-.55,5-1.53v.53c0,.55.45,1,1,1,4.96,0,9-4.04,9-9s-4.04-9-9-9ZM25,36.871c-1.08,1.11-2.48,1.84-4,2.06v-13.86c1.52.22,2.92.95,4,2.06v9.74ZM31,36.871c-1.08,1.11-2.48,1.84-4,2.06v-13.86c1.52.22,2.92.95,4,2.06v9.74ZM33,38.931v-13.86c3.39.49,6,3.41,6,6.93s-2.61,6.44-6,6.93Z"/>
</svg>