<?xml version="1.0" encoding="UTF-8"?>
<svg id="Outline" xmlns="http://www.w3.org/2000/svg" version="1.1" viewBox="0 0 64 64">
  <!-- Generator: Adobe Illustrator 29.5.1, SVG Export Plug-In . SVG Version: 2.1.0 Build 141)  -->
  <path d="M56.959,30.71c-.9-3-2.66-5.54-4.96-7.39v-13.32c0-1.65-1.35-3-3-3H14.999c-1.65,0-3,1.35-3,3v10h-4c-.55,0-1,.45-1,1v6c0,.29.13.57.35.76.23.19.53.27.81.23l3.84-.64v26.65c0,1.65,1.35,3,3,3h34c1.65,0,3-1.35,3-3v-22h4c.32,0,.61-.15.8-.4.19-.26.25-.58.16-.89ZM13.999,10c0-.55.45-1,1-1h34c.55,0,1,.45,1,1v11.96c-2.21-1.25-4.75-1.96-7.44-1.96H13.999v-10ZM11.879,25.34l-2.88.48v-3.82h18v3.78l-1.94-.39c-1.37-.27-2.75-.27-4.12,0l-1.04.21c-1.23.25-2.52.21-3.74-.09-1.41-.35-2.85-.41-4.28-.17ZM49.999,54c0,.55-.45,1-1,1H14.999c-.55,0-1-.45-1-1v-26.79c.56.02,1.12.1,1.68.24,1.5.38,3.1.41,4.62.11l1.03-.21c1.11-.22,2.23-.22,3.34,0l3.13.63c.07.01.13.02.2.02.23,0,.45-.08.63-.23.07-.05.11-.13.16-.19.75.63,1.21,1.56,1.21,2.58v.84c0,.55.45,1,1,1h19v22ZM31.999,30c-.06-2.01-1.23-3.79-3-4.67v-3.33h13.56c5.34,0,10.01,3.16,12.02,8h-22.58Z"/>
  <path d="M41.999,14c0-1.654-1.346-3-3-3h-14c-1.654,0-3,1.346-3,3s1.346,3,3,3h14c1.654,0,3-1.346,3-3ZM23.999,14c0-.551.449-1,1-1h14c.551,0,1,.449,1,1s-.449,1-1,1h-14c-.551,0-1-.449-1-1Z"/>
  <path d="M23.999,42c0,.552.448,1,1,1h.082c-.684,1.178-1.082,2.542-1.082,4,0,.552.448,1,1,1h.082c-.684,1.178-1.082,2.542-1.082,4,0,.552.448,1,1,1h14c.552,0,1-.448,1-1,0-1.458-.398-2.822-1.082-4h.082c.552,0,1-.448,1-1,0-1.458-.398-2.822-1.082-4h.082c.552,0,1-.448,1-1,0-4.411-3.589-8-8-8s-8,3.589-8,8ZM37.916,46h-.643c-1.41-1.241-3.253-2-5.274-2s-3.864.759-5.274,2h-.643c.478-2.834,2.949-5,5.917-5s5.439,2.166,5.917,5ZM26.083,51c.478-2.834,2.949-5,5.917-5s5.439,2.166,5.917,5h-11.833ZM31.999,36c2.968,0,5.439,2.166,5.917,5h-.643c-1.41-1.241-3.253-2-5.274-2s-3.864.759-5.274,2h-.643c.478-2.834,2.949-5,5.917-5Z"/>
</svg>