<?xml version="1.0" encoding="UTF-8"?>
<svg id="Outline" xmlns="http://www.w3.org/2000/svg" version="1.1" viewBox="0 0 64 64">
  <!-- Generator: Adobe Illustrator 29.3.1, SVG Export Plug-In . SVG Version: 2.1.0 Build 151)  -->
  <path d="M56,7H8c-.54999,0-1,.45001-1,1v7c0,.32996.16998.64001.44.82996.16998.11005.35999.17004.56.17004.13,0,.25-.02002.37-.07001l3.03998-1.22003c.98004-.38995,2.09003-.33997,3.04004.13,1.58997.80005,3.51001.80005,5.09998,0l.15002-.07001c.89001-.44995,1.89996-.51996,2.83997-.19995l.99005.32996,3.87,2.90002c.03996.02995.08991.04997.12995.06998.41103.20545.90508.13003,1.35003.13003,6.76001,0,13.58002-.40002,20.28998-1.19,4.46002-.52002,7.83002-4.31,7.83002-8.81,0-.54999-.45001-1-1-1ZM23,12.62c-1.40002-.41998-2.88-.29999-4.19.35999l-.15002.07001c-1.03998.52002-2.27997.52002-3.31995,0-1.46002-.72998-3.16003-.79999-4.68005-.19l-1.65997.65997v-4.51996h14v3.62ZM27,15l-2-1.5v-4.5h2v6ZM48.92999,14.82996c-6.58997.77002-13.28998,1.17004-19.92999,1.17004v-7h25.92999c-.45001,3.02997-2.88,5.45996-6,5.82996Z"/>
  <circle cx="32" cy="52" r="1"/>
  <path d="M54,20H10c-1.6543,0-3,1.3457-3,3v25c0,1.6543,1.3457,3,3,3h16c.55176,0,1,.44824,1,1,0,2.75684,2.24316,5,5,5s5-2.24316,5-5c0-.55176.44824-1,1-1h16c1.6543,0,3-1.3457,3-3v-25c0-1.6543-1.3457-3-3-3ZM55,48c0,.55176-.44824,1-1,1h-16c-1.6543,0-3,1.3457-3,3s-1.3457,3-3,3-3-1.3457-3-3-1.3457-3-3-3H10c-.55176,0-1-.44824-1-1v-25c0-.55176.44824-1,1-1h44c.55176,0,1,.44824,1,1v25Z"/>
  <path d="M52,24H12c-.55273,0-1,.44727-1,1v21c0,.55273.44727,1,1,1h40c.55273,0,1-.44727,1-1v-21c0-.55273-.44727-1-1-1ZM51,45H13v-19h38v19Z"/>
</svg>