<?xml version="1.0" encoding="UTF-8"?>
<svg id="Outline" xmlns="http://www.w3.org/2000/svg" version="1.1" viewBox="0 0 64 64">
  <!-- Generator: Adobe Illustrator 29.5.1, SVG Export Plug-In . SVG Version: 2.1.0 Build 141)  -->
  <path d="M43.22443,23.54596c3.16663-2.67352,4.39636-6.57349,4.45087-6.75226.08154-.26562.04883-.55371-.09033-.79395s-.37207-.41211-.64258-.47363c-.18329-.04205-4.16925-.91852-8.0683.47632-1.50586-4.32422-5.96613-8.52319-6.19293-8.73413-.38379-.35742-.97852-.35742-1.3623,0-.22681.21094-4.68719,4.40997-6.19299,8.73419-3.90015-1.39508-7.8858-.51843-8.06824-.47638-.27051.06152-.50342.2334-.64258.47363s-.17188.52832-.09033.79395c.0545.17877,1.2843,4.07886,4.45105,6.75244-2.9931,3.46381-4.40021,9.42822-4.4696,9.73096-.11719.51074.17969,1.02539.68115,1.17969.23877.07324,4.09814,1.23926,7.94141,1.23926.92413-.00049,1.84583-.07153,2.71759-.23779.73779,4.07684,3.49408,7.08661,3.62225,7.22412.18896.20312.4541.31836.73145.31836s.54248-.11523.73145-.31836c.09424-.10114,1.61169-1.75793,2.70245-4.24707,1.66949,4.5426,1.89075,9.53235.62573,14.211l-1.05963-1.05963v-1.58594c0-2.75684-2.24316-5-5-5h-2c-.55225,0-1,.44727-1,1v2c0,2.75684,2.24316,5,5,5h1.58594l1.78979,1.78979-.31567.86841c-.18848.51953.0791,1.09277.59834,1.28132.51466.18703,1.09391-.08172,1.28155-.59773l.41602-1.14453c.84662-2.32825,1.33081-4.75592,1.4707-7.19727h1.17334c2.75684,0,5-2.24316,5-5v-2c0-.55273-.44775-1-1-1h-2c-1.42584,0-2.70618.60724-3.61792,1.56805-.41473-2.0946-1.09363-4.14136-2.02826-6.11121.87213.16644,1.79419.23749,2.71893.23749,3.84229,0,7.70117-1.16504,7.93994-1.23828.50146-.1543.79834-.66895.68115-1.17969-.0694-.30273-1.47656-6.2674-4.46942-9.73114ZM29,48.00073v-1h1c1.6543,0,3,1.3457,3,3v1h-1c-1.6543,0-3-1.3457-3-3ZM39,45.00073c0-1.6543,1.3457-3,3-3h1v1c0,1.6543-1.3457,3-3,3h-1v-1ZM45.3335,17.30151c-.56262,1.26666-1.71259,3.36078-3.59167,4.86835-.17657-.12708-.35126-.25873-.53625-.36542-.70929-.40955-1.40314-.71191-2.0816-.92084.16089-.68616.25104-1.43597.25104-2.25787,0-.21539-.02686-.43439-.04907-.65271,2.24646-.86523,4.63281-.81464,6.00757-.67151ZM32,28.95874c-2.18262,0-3.9585-1.77539-3.9585-3.95801s1.77588-3.95801,3.9585-3.95801,3.9585,1.77539,3.9585,3.95801-1.77588,3.95801-3.9585,3.95801ZM32.00049,9.40015c1.95557,1.99902,5.37451,6.13477,5.37451,9.22559,0,.72479-.078,1.3703-.22498,1.93652-.37244-.00458-.73956.01843-1.09882.08197-1.06433-.9903-2.48608-1.6015-4.05121-1.6015-1.97083,0-3.716.96576-4.80127,2.44446-.36725-.77881-.57373-1.72125-.57373-2.86145,0-3.08496,3.41943-7.22461,5.37549-9.22559ZM18.6665,17.30151c1.37695-.14313,3.7619-.19366,6.00757.67145-.02222.21838-.04907.43732-.04907.65277,0,.81836.08551,1.56989.24463,2.26172-.66632.20673-1.35083.50275-2.07471.91699-.18506.10675-.3598.2384-.5365.36554-1.87921-1.50763-3.0293-3.60175-3.59192-4.86847ZM18.49365,32.80054c.75537-2.69434,2.62939-7.72363,5.29736-9.26172.63013-.36084,1.22784-.61798,1.78998-.78101.18152.32288.38397.62793.61713.90662-.09912.4303-.15662.87634-.15662,1.3363,0,3.07855,2.34729,5.6192,5.34644,5.92664-.49152.70496-1.23236,1.34534-2.21899,1.91321-2.66992,1.54395-7.96387.65332-10.67529-.04004ZM32,40.40112c-.81586-1.12164-2.05774-3.17065-2.42487-5.55859.19812-.08936.40814-.16272.59283-.26953.70862-.40784,1.31683-.85651,1.83673-1.33917.51562.48016,1.11877.93024,1.82538,1.33722.18536.10724.396.18091.59485.27057-.367,2.38831-1.60895,4.43768-2.42493,5.55951ZM34.83008,32.8396c-.62219-.35864-1.1402-.74622-1.55981-1.15454.18964-.31891.35309-.64728.47845-.98914,2.43475-.74896,4.20978-3.01837,4.20978-5.69519,0-.8653-.18958-1.68585-.52283-2.42853.85565.07233,1.78223.39368,2.77039.96466,2.67041,1.54004,4.54492,6.56934,5.30029,9.26367-2.71045.69238-8.00439,1.58398-10.67627.03906Z"/>
</svg>