<?xml version="1.0" encoding="UTF-8"?>
<svg id="Outline" xmlns="http://www.w3.org/2000/svg" version="1.1" viewBox="0 0 64 64">
  <!-- Generator: Adobe Illustrator 29.5.1, SVG Export Plug-In . SVG Version: 2.1.0 Build 141)  -->
  <path d="M53,13c0-2.9-.54-6-7-6-2.61,0-5.86.49-8.61,1.28-1.41-.8-3.29-1.28-5.39-1.28s-3.98.48-5.39,1.28c-2.75-.79-6-1.28-8.61-1.28-6.46,0-7,3.1-7,6,0,2.83.53,5.84,6.54,5.99-4.14,4.36-2.39,6.86-.39,8.86,1.11,1.11,2.37,2.14,4.02,2.14,1.32,0,2.9-.68,4.84-2.53.1,3.83,1.35,5.44,2.99,6.09v14.98c-.67-1.58-1.62-3.19-2.98-4.55-4.54-4.54-11.73-4.54-12.03-4.54-.54.01-.99.45-.99,1,0,.3,0,7.48,4.54,12.02,4.43,4.44,11.4,4.54,11.99,4.54,0-.01-.05-.09-.1-.2.16.12.35.2.57.2h4c.12,0,.23-.03.34-.07.03.03.06.04.1.07h.03c.59,0,7.56-.1,11.99-4.54,4.54-4.54,4.54-11.72,4.54-12.02,0-.55-.45-.99-.99-1-.3.01-7.49,0-12.03,4.54-1.36,1.36-2.31,2.97-2.98,4.55v-14.98c1.64-.65,2.89-2.26,2.99-6.09,1.94,1.85,3.52,2.53,4.84,2.53,1.65,0,2.91-1.03,4.02-2.14,2-2,3.75-4.5-.39-8.86,6.01-.15,6.54-3.16,6.54-5.99ZM18.95,51.05c-2.99-2.99-3.72-7.52-3.89-9.55,2.03.18,6.55.9,9.55,3.89,2.99,3,3.72,7.52,3.89,9.55-2.03-.17-6.56-.9-9.55-3.89ZM39.39,45.39c3-2.99,7.52-3.71,9.55-3.89-.17,2.03-.9,6.56-3.89,9.55s-7.52,3.72-9.55,3.89c.17-2.02.89-6.54,3.89-9.55ZM32,9c3.54,0,6,1.58,6,3s-2.46,3-6,3-6-1.58-6-3,2.46-3,6-3ZM13,13c0-2.15,0-4,5-4,2.03,0,4.49.32,6.75.86-.48.65-.75,1.37-.75,2.14,0,.6.17,1.17.46,1.69-1.59.91-3.22,2.04-4.67,3.23-.59.04-1.19.08-1.79.08-5,0-5-1.85-5-4ZM26.14,24.41c-.36.43-.76.86-1.21,1.32-3.54,3.53-4.85,2.22-6.36.7-1.52-1.51-2.83-2.83.69-6.36,1.78-1.76,4.25-3.58,6.58-4.85.59.45,1.32.82,2.13,1.12-.88,2.26-1.55,5.26-1.83,8.07ZM33,55h-2v-21.03c.33.02.67.03,1,.03s.67-.01,1-.03v21.03ZM32,32c-2.15,0-4,0-4-5,0-3.29.8-7.4,1.93-10.17.66.11,1.35.17,2.07.17s1.41-.06,2.07-.17c1.13,2.77,1.93,6.88,1.93,10.17,0,5-1.85,5-4,5ZM45.43,26.43c-1.51,1.52-2.82,2.83-6.36-.69-.45-.47-.85-.9-1.21-1.33-.28-2.81-.95-5.81-1.83-8.07.81-.3,1.54-.67,2.13-1.12,2.33,1.27,4.8,3.09,6.57,4.85,3.53,3.53,2.22,4.85.7,6.36ZM46,17c-.6,0-1.2-.04-1.79-.08-1.45-1.19-3.08-2.32-4.67-3.23.29-.52.46-1.09.46-1.69,0-.77-.27-1.49-.75-2.14,2.26-.54,4.72-.86,6.75-.86,5,0,5,1.85,5,4s0,4-5,4Z"/>
</svg>