<?xml version="1.0" encoding="UTF-8"?>
<svg id="Outline" xmlns="http://www.w3.org/2000/svg" version="1.1" viewBox="0 0 64 64">
  <!-- Generator: Adobe Illustrator 29.5.1, SVG Export Plug-In . SVG Version: 2.1.0 Build 141)  -->
  <path d="M54,7H10c-1.654,0-3,1.346-3,3v44c0,1.654,1.346,3,3,3h44c1.654,0,3-1.346,3-3V10c0-1.654-1.346-3-3-3ZM55,54c0,.551-.449,1-1,1H10c-.551,0-1-.449-1-1V10c0-.551.449-1,1-1h44c.551,0,1,.449,1,1v44Z"/>
  <path d="M14,17c1.654,0,3-1.346,3-3s-1.346-3-3-3-3,1.346-3,3,1.346,3,3,3ZM14,13c.551,0,1,.449,1,1s-.449,1-1,1-1-.449-1-1,.449-1,1-1Z"/>
  <path d="M52,11H20c-.552,0-1,.448-1,1v4c0,.552.448,1,1,1h32c.552,0,1-.448,1-1v-4c0-.552-.448-1-1-1ZM51,15h-30v-2h30v2Z"/>
  <path d="M52,19H12c-.552,0-1,.448-1,1v14c0,.552.448,1,1,1h40c.552,0,1-.448,1-1v-14c0-.552-.448-1-1-1ZM51,33H13v-12h38v12Z"/>
  <path d="M30,37H12c-.552,0-1,.448-1,1v14c0,.552.448,1,1,1h18c.552,0,1-.448,1-1v-14c0-.552-.448-1-1-1ZM29,51H13v-12h16v12Z"/>
  <path d="M52,37h-18c-.552,0-1,.448-1,1v14c0,.552.448,1,1,1h18c.552,0,1-.448,1-1v-14c0-.552-.448-1-1-1ZM51,51h-16v-12h16v12Z"/>
</svg>