<?xml version="1.0" encoding="UTF-8"?>
<svg id="Outline" xmlns="http://www.w3.org/2000/svg" version="1.1" viewBox="0 0 64 64">
  <!-- Generator: Adobe Illustrator 29.0.0, SVG Export Plug-In . SVG Version: 2.1.0 Build 186)  -->
  <path d="M12,14.5h2c.55225,0,1-.44775,1-1s-.44775-1-1-1h-2c-.55225,0-1,.44775-1,1s.44775,1,1,1Z"/>
  <path d="M12,18.5h2c.55225,0,1-.44775,1-1s-.44775-1-1-1h-2c-.55225,0-1,.44775-1,1s.44775,1,1,1Z"/>
  <path d="M12,22.5h2c.55225,0,1-.44775,1-1s-.44775-1-1-1h-2c-.55225,0-1,.44775-1,1s.44775,1,1,1Z"/>
  <path d="M12,26.5h2c.55225,0,1-.44775,1-1s-.44775-1-1-1h-2c-.55225,0-1,.44775-1,1s.44775,1,1,1Z"/>
  <path d="M18,14.5h8c.55225,0,1-.44775,1-1s-.44775-1-1-1h-8c-.55225,0-1,.44775-1,1s.44775,1,1,1Z"/>
  <path d="M18,18.5h8c.55225,0,1-.44775,1-1s-.44775-1-1-1h-8c-.55225,0-1,.44775-1,1s.44775,1,1,1Z"/>
  <path d="M18,22.5h8c.55225,0,1-.44775,1-1s-.44775-1-1-1h-8c-.55225,0-1,.44775-1,1s.44775,1,1,1Z"/>
  <path d="M18,26.5h8c.55225,0,1-.44775,1-1s-.44775-1-1-1h-8c-.55225,0-1,.44775-1,1s.44775,1,1,1Z"/>
  <path d="M11,33.5c0,.55225.44775,1,1,1h18c.55225,0,1-.44775,1-1v-4c0-.55225-.44775-1-1-1H12c-.55225,0-1,.44775-1,1v4ZM13,30.5h16v2H13v-2Z"/>
  <path d="M49,31.58997V11.5c0-1.65002-1.34998-3-3-3H10c-1.65002,0-3,1.34998-3,3v11c0,.54999.45001,1,1,1s1-.45001,1-1v-11c0-.54999.45001-1,1-1h36c.54999,0,1,.45001,1,1v8.29999l-5.04999-2.81c.02997-.16003.04999-.32001.04999-.48999,0-1.65002-1.34998-3-3-3s-3,1.34998-3,3c0,.45996.10999.89001.29999,1.28998l-3.01001,3.01001c-.39996-.19-.82996-.29999-1.28998-.29999-1.65002,0-3,1.34998-3,3s1.34998,3,3,3,3-1.35004,3-3c0-.46002-.10999-.89001-.29999-1.29004l3.01001-3.00995c.39996.19.82996.29999,1.28998.29999.76001,0,1.45001-.29004,1.97998-.76001l6.02002,3.34998v9.41003c-5.70001,0-10,2.14996-10,5H10c-.54999,0-1-.45001-1-1v-5c0-.54999-.45001-1-1-1s-1,.45001-1,1v5c0,1.64996,1.34998,3,3,3h27v12c0,2.84998,4.29999,5,10,5s10-2.15002,10-5v-14c0-2.51001-3.32001-4.47003-8-4.91003ZM32,24.5c-.54999,0-1-.45001-1-1,0-.54987.44982-.9998.99964-1,.51122-.00018,1.00034.45644,1.00036,1,0,.54999-.45001,1-1,1ZM39,17.5c-.51439-.00001-.99998-.45304-1-1,0-.54999.45001-1,1-1s1,.45001,1,1c0,.54993-.44991.9999-1,1ZM55,50.5c0,1.21997-3.12,3-8,3s-8-1.78003-8-3v-3.94c1.78998,1.19,4.65002,1.94,8,1.94s6.21002-.75,8-1.94v3.94ZM55,43.5c0,1.21997-3.12,3-8,3s-8-1.78003-8-3v-3.94c1.78998,1.19,4.65002,1.94,8,1.94s6.21002-.75,8-1.94v3.94ZM47,39.5c-4.88,0-8-1.78003-8-3,0-1.22003,3.12-3,8-3,.34003,0,.65997.01001.97998.02997h.03003c4.29999.22003,6.98999,1.83002,6.98999,2.97003,0,1.21997-3.12,3-8,3Z"/>
  <circle cx="8" cy="26.5" r="1"/>
</svg>