<?xml version="1.0" encoding="UTF-8"?>
<svg id="Outline" xmlns="http://www.w3.org/2000/svg" version="1.1" viewBox="0 0 64 64">
  <!-- Generator: Adobe Illustrator 29.5.1, SVG Export Plug-In . SVG Version: 2.1.0 Build 141)  -->
  <path d="M36,29.5h-.16c.11-.51.16-1.06.16-1.67,0-4.11-2.39-10.33-6-10.33-1.38,0-2.58.91-3.54,2.26-.32-.54-.74-.98-1.26-1.27-1.94-1.07-4.63.16-6.87,2.1-2.11-2.68-5.14-4.84-7.51-3.84-3.32,1.4-3.11,8.06-1.51,11.84.13.33.28.63.44.91h-1.75c-.55,0-1,.45-1,1v4c0,.55.45,1,1,1h.15l1.86,11.16c.08.49.5.84.99.84h22c.49,0,.91-.35.99-.84l1.86-11.16h.15c.55,0,1-.45,1-1v-4c0-.55-.45-1-1-1ZM30,19.5c1.83,0,4,4.52,4,8.33,0,.66-.07,1.21-.21,1.67h-7.58c-.14-.46-.21-1.01-.21-1.67,0-3.81,2.17-8.33,4-8.33ZM24.23,20.239c.48.27.81.96.95,1.93-.76,1.85-1.18,3.94-1.18,5.66,0,.32.02.64.05.93-.1.23-.21.47-.34.7l-.02.04h-6.97c-.71-.75-1.16-1.84-.03-3.89,1.86-3.34,5.95-6.24,7.54-5.37ZM11.6,18.589c1.16-.48,3.47,1.04,5.28,3.41-.78.85-1.45,1.77-1.94,2.64-1.01,1.84-1.19,3.46-.58,4.86h-2.16c-.39-.39-.74-.95-1.05-1.68-1.48-3.51-1.24-8.52.45-9.23ZM32.15,45.5H11.85l-1.67-10h23.64l-1.67,10ZM35,33.5H9v-2h26v2Z"/>
  <path d="M56.738,23.825c-.189-.207-.458-.325-.738-.325h-16c-.281,0-.549.118-.738.325-.189.208-.283.485-.258.766l2,22c.047.515.479.909.996.909h12c.517,0,.949-.395.996-.909l2-22c.025-.28-.068-.558-.258-.766ZM54.905,25.5l-.545,6h-1.859c-1.397,0-2.782-.462-3.9-1.3-1.462-1.097-3.273-1.7-5.1-1.7h-2.132l-.273-3h13.81ZM53.087,45.5h-10.174l-1.363-15h1.95c1.397,0,2.782.462,3.9,1.3,1.462,1.097,3.273,1.7,5.1,1.7h1.678l-1.091,12Z"/>
</svg>