<?xml version="1.0" encoding="UTF-8"?>
<svg id="Outline" xmlns="http://www.w3.org/2000/svg" version="1.1" viewBox="0 0 64 64">
  <!-- Generator: Adobe Illustrator 29.5.1, SVG Export Plug-In . SVG Version: 2.1.0 Build 141)  -->
  <path d="M34,44.058c0-1.302-.839-2.402-2-2.816v-5.184c0-.553-.447-1-1-1s-1,.447-1,1v5.184c-1.161.414-2,1.514-2,2.816,0,1.654,1.346,3,3,3s3-1.346,3-3ZM30,44.058c0-.552.448-1,1-1s1,.448,1,1-.448,1-1,1-1-.448-1-1Z"/>
  <path d="M35.894,39.056c.393.383,1.032.374,1.414-.018.386-.396.378-1.028-.018-1.414-.538-.525-1.142-.98-1.793-1.354-.479-.274-1.09-.109-1.364.37-.275.479-.109,1.09.37,1.364.505.29.973.644,1.391,1.051Z"/>
  <path d="M33.096,52.781c.087,0,.175-.011.263-.035,1.526-.413,2.923-1.229,4.039-2.356.389-.393.385-1.025-.008-1.414-.394-.388-1.026-.386-1.414.008-.868.878-1.954,1.512-3.141,1.833-.533.144-.848.693-.703,1.227.12.445.523.738.964.738Z"/>
  <path d="M39.712,46.327c.191-.737.288-1.501.288-2.269,0-.816-.109-1.626-.325-2.406-.147-.533-.701-.841-1.23-.697-.532.147-.845.698-.697,1.23.168.606.253,1.237.253,1.873,0,.599-.075,1.193-.224,1.766-.313,1.207,1.605,1.783,1.935.502Z"/>
  <path d="M23.541,40.991c-.536-.148-1.083.17-1.227.703-.209.769-.314,1.564-.314,2.363,0,.782.1,1.56.299,2.312.119.447.523.743.966.743.647,0,1.135-.627.967-1.257-.155-.584-.233-1.188-.232-1.798,0-.623.082-1.242.244-1.841.145-.533-.17-1.082-.703-1.227Z"/>
  <path d="M24.635,50.421c1.122,1.123,2.522,1.931,4.05,2.337.086.022.173.033.258.033.442,0,.847-.296.966-.743.142-.534-.177-1.082-.71-1.224-1.188-.314-2.276-.943-3.149-1.817-.391-.391-1.023-.391-1.414,0-.391.39-.391,1.023,0,1.414Z"/>
  <path d="M25.408,39.335c.25.001.503-.088.698-.278.418-.407.886-.761,1.391-1.051.479-.274.646-.886.37-1.364-.274-.479-.888-.644-1.364-.37-.651.373-1.255.828-1.793,1.353-.626.611-.169,1.707.698,1.71Z"/>
  <path d="M45.62,7.708c-.25-.19-.56-.25-.86-.18l-.93.24c-1.83.45-3.73.38-5.51-.22-2.15-.71-4.44-.8-6.63-.25l-.93.23c-.45.11-.76.51-.76.97v14.56h-6c-.55,0-1,.45-1,1v4c0,.55.45,1,1,1h4v2.36c-5.72,1.36-10,6.51-10,12.64,0,7.17,5.83,13,13,13,2.23,0,4.43-.57,6.35-1.65.48-.27.65-.88.38-1.36-.27-.48-.87-.65-1.36-.38-1.62.91-3.48,1.39-5.37,1.39-6.07,0-11-4.93-11-11s4.93-11,11-11,11,4.93,11,11c0,1.47-.28,2.88-.83,4.22-.22.51.03,1.09.54,1.3.51.21,1.09-.03,1.3-.54.66-1.57.99-3.25.99-4.98,0-6.13-4.28-11.28-10-12.64v-2.36h4c.55,0,1-.45,1-1v-4c0-.55-.45-1-1-1h-6v-5.78l.17-.04c1.83-.45,3.73-.38,5.51.21,1.22.41,2.49.61,3.75.61.97,0,1.93-.12,2.88-.35l.93-.24c.45-.11.76-.51.76-.97v-8c0-.31-.14-.6-.38-.79ZM32,31.108c-.33-.02-.66-.05-1-.05s-.67.03-1,.05v-2.05h2v2.05ZM37,25.058v2h-12v-2h12ZM44,15.718l-.17.05c-1.83.45-3.73.38-5.51-.22-1.22-.4-2.49-.61-3.75-.61-.86,0-1.72.1-2.57.29v-5.95l.17-.04c1.83-.46,3.73-.38,5.51.21,2.05.68,4.22.79,6.32.33v5.94Z"/>
  <circle cx="40" cy="52.058" r="1"/>
</svg>