<?xml version="1.0" encoding="UTF-8"?>
<svg id="Outline" xmlns="http://www.w3.org/2000/svg" version="1.1" viewBox="0 0 64 64">
  <!-- Generator: Adobe Illustrator 29.5.1, SVG Export Plug-In . SVG Version: 2.1.0 Build 141)  -->
  <path d="M43,18v-3.18c1.16-.42,2-1.52,2-2.82v-2c0-1.65-1.35-3-3-3H15c-.55,0-1,.45-1,1s.45,1,1,1h27c.55,0,1,.45,1,1v2c0,.55-.45,1-1,1h-5c-.55,0-1,.45-1,1s.45,1,1,1h4v3c0,5.45-2.97,10.47-7.75,13.13-.31.17-.51.51-.51.87s.2.7.51.87c4.78,2.66,7.75,7.68,7.75,13.13v3H11v-3c0-5.45,2.97-10.47,7.75-13.13.31-.17.51-.51.51-.87s-.2-.7-.51-.87c-4.78-2.66-7.75-7.68-7.75-13.13v-3h22c.55,0,1-.45,1-1s-.45-1-1-1H10c-.55,0-1-.45-1-1v-2c0-.55.45-1,1-1h1c.55,0,1-.45,1-1s-.45-1-1-1h-1c-1.65,0-3,1.35-3,3v2c0,1.3.84,2.4,2,2.82v3.18c0,5.62,2.79,10.84,7.36,14-4.57,3.16-7.36,8.38-7.36,14v3.18c-1.16.42-2,1.52-2,2.82v2c0,1.65,1.35,3,3,3h32c1.65,0,3-1.35,3-3v-2c0-1.3-.84-2.4-2-2.82v-3.18c0-5.62-2.79-10.84-7.36-14,4.57-3.16,7.36-8.38,7.36-14ZM43,52v2c0,.55-.45,1-1,1H10c-.55,0-1-.45-1-1v-2c0-.55.45-1,1-1h32c.55,0,1,.45,1,1Z"/>
  <path d="M38.676,20.849c.117-.521-.195-1.041-.709-1.183-3.979-1.099-8.206-1.245-12.152-.446-2.562.51-5.168.605-7.75.278l-3.761-.471c-.312-.039-.628.072-.846.301-.219.229-.317.547-.265.858.66,3.901,3.037,7.251,6.521,9.188l5.8,3.22c.151.084.318.126.485.126s.334-.042.485-.126l5.798-3.219c3.25-1.795,5.58-4.903,6.393-8.526ZM31.314,27.626l-5.314,2.95-5.313-2.95c-2.544-1.414-4.39-3.714-5.208-6.437l2.337.293c2.792.352,5.615.251,8.393-.302,3.33-.676,6.879-.621,10.262.168-.85,2.66-2.688,4.914-5.155,6.277Z"/>
  <path d="M14.485,40.795c-.293.09-.528.311-.639.597-.562,1.463-.847,3.014-.847,4.608,0,.553.447,1,1,1h24c.553,0,1-.447,1-1,0-2.091-.517-4.178-1.495-6.036-.219-.417-.7-.627-1.153-.497-3.282.916-6.776,1.106-10.186.547-3.877-.65-7.916-.381-11.681.781ZM25.838,41.987c3.429.562,6.92.428,10.239-.382.471,1.077.768,2.228.876,3.395H15.045c.074-.834.244-1.648.506-2.436,3.332-.951,6.877-1.15,10.287-.577Z"/>
  <circle cx="24" cy="35" r="1"/>
  <circle cx="28" cy="38" r="1"/>
  <path d="M49,24c-4.411,0-8,3.589-8,8s3.589,8,8,8,8-3.589,8-8-3.589-8-8-8ZM49,38c-3.309,0-6-2.691-6-6s2.691-6,6-6,6,2.691,6,6-2.691,6-6,6Z"/>
  <path d="M49,28c-.553,0-1,.447-1,1v3c0,.553.447,1,1,1s1-.447,1-1v-3c0-.553-.447-1-1-1Z"/>
  <circle cx="49" cy="35" r="1"/>
</svg>