<?xml version="1.0" encoding="UTF-8"?>
<svg id="Outline" xmlns="http://www.w3.org/2000/svg" version="1.1" viewBox="0 0 64 64">
  <!-- Generator: Adobe Illustrator 29.5.1, SVG Export Plug-In . SVG Version: 2.1.0 Build 141)  -->
  <path d="M42.661,20.1c-.63-.4-.9-1.13-.66-1.79.09-.25.08-.53-.03-.77-.11-.25-.31-.44-.57-.53l-3.75-1.37c-.25-.09-.53-.08-.77.04-.24.11-.43.31-.52.56-.21.59-.77.95-1.36.96v-4.2h3c.55,0,1-.45,1-1v-4c0-.55-.45-1-1-1h-4c-.55,0-1,.45-1,1s.45,1,1,1h3v2h-10v-2h3c.55,0,1-.45,1-1s-.45-1-1-1h-4c-.55,0-1,.45-1,1v4c0,.55.45,1,1,1h3v4.2c-.59-.01-1.15-.37-1.36-.96-.09-.25-.28-.45-.52-.56-.24-.12-.52-.13-.77-.04l-3.75,1.37c-.25.09-.45.28-.57.52-.11.24-.12.52-.03.77.24.66-.03,1.4-.66,1.8-6.53,4.12-10.06,11.46-9.22,19.16,1.02,9.19,8.41,16.59,17.6,17.61.77.09,1.55.13,2.31.13,4.93,0,9.59-1.77,13.31-5.09,4.23-3.8,6.66-9.23,6.66-14.91,0-6.89-3.49-13.21-9.34-16.9ZM31.001,13h2v4.04c-.67-.04-1.33-.04-2,0v-4.04ZM44.001,50.42c-3.86,3.46-8.86,5.04-14.06,4.47-8.26-.92-14.92-7.58-15.83-15.85-.76-6.93,2.42-13.54,8.3-17.25,1.13-.71,1.74-1.93,1.67-3.19l2.16-.79c.74,1.01,1.99,1.56,3.26,1.38,1.68-.25,3.32-.25,5,0,1.27.18,2.52-.37,3.26-1.38l2.16.79c-.08,1.25.54,2.47,1.67,3.19,5.27,3.32,8.41,9.01,8.41,15.21,0,5.11-2.19,10-6,13.42Z"/>
  <path d="M32.001,21c-.552,0-1,.448-1,1v4c0,.552.448,1,1,1s1-.448,1-1v-2.965c7.254.515,13,6.582,13,13.965s-5.746,13.45-13,13.965v-9.066c2.279-.465,4-2.484,4-4.899s-1.721-4.434-4-4.899v-2.101c0-.552-.448-1-1-1s-1,.448-1,1v2.101c-2.279.465-4,2.484-4,4.899s1.721,4.434,4,4.899v10.101c0,.552.448,1,1,1,8.822,0,16-7.178,16-16s-7.178-16-16-16ZM29.001,37c0-1.654,1.346-3,3-3s3,1.346,3,3-1.346,3-3,3-3-1.346-3-3Z"/>
</svg>