<?xml version="1.0" encoding="UTF-8"?>
<svg id="Outlie" xmlns="http://www.w3.org/2000/svg" version="1.1" viewBox="0 0 64 64">
  <!-- Generator: Adobe Illustrator 29.3.1, SVG Export Plug-In . SVG Version: 2.1.0 Build 151)  -->
  <path d="M40,43c1.6543,0,3-1.3457,3-3s-1.3457-3-3-3-3,1.3457-3,3,1.3457,3,3,3ZM40,39c.55127,0,1,.44873,1,1s-.44873,1-1,1-1-.44873-1-1,.44873-1,1-1Z"/>
  <path d="M48,45c-1.6543,0-3,1.3457-3,3s1.3457,3,3,3,3-1.3457,3-3-1.3457-3-3-3ZM48,49c-.55127,0-1-.44873-1-1s.44873-1,1-1,1,.44873,1,1-.44873,1-1,1Z"/>
  <path d="M49.29297,37.29297l-12,12c-.39054.39054-.39062,1.02317-.00025,1.41381.3567.35695,1.02965.3849,1.41431.00025l12-12c.39062-.39062.39062-1.02344,0-1.41406s-1.02344-.39062-1.41406,0Z"/>
  <path d="M49,32V14c0-1.65002-1.34998-3-3-3h-3v-1c0-1.65002-1.34998-3-3-3s-3,1.34998-3,3v1h-6v-1c0-1.65002-1.34998-3-3-3s-3,1.34998-3,3v1h-6v-1c0-1.65002-1.34998-3-3-3s-3,1.34998-3,3v1h-3c-1.65002,0-3,1.34998-3,3v32c0,1.64996,1.34998,3,3,3h22c1.96997,4.69,6.59998,8,12,8,7.16998,0,13-5.83002,13-13,0-5.40002-3.31-10.03003-8-12ZM39,10c0-.54999.45001-1,1-1s1,.45001,1,1v1h-2v-1ZM27,10c0-.54999.45001-1,1-1s1,.45001,1,1v1h-2v-1ZM15,10c0-.54999.45001-1,1-1s1,.45001,1,1v1h-2v-1ZM9,14c0-.54999.45001-1,1-1h7v1c0,.54999-.45001,1-1,1s-1,.45001-1,1,.45001,1,1,1c1.65002,0,3-1.35004,3-3v-1h10v1c0,.54999-.45001,1-1,1s-1,.45001-1,1,.45001,1,1,1c1.65002,0,3-1.35004,3-3v-1h10v1c0,.54999-.45001,1-1,1s-1,.45001-1,1,.45001,1,1,1c1.65002,0,3-1.35004,3-3v-1h3c.54999,0,1,.45001,1,1v5H9v-5ZM47,21v10.35999c-.65002-.15002-1.32001-.26001-2-.31v-10.04999h2ZM10,47c-.54999,0-1-.45001-1-1v-25h2v23c0,.54999.45001,1,1,1h19.04999c.04999.67999.16003,1.34998.31,2H10ZM31.04999,43H13v-22h30v10.04999c-2.17999.16998-4.21002.87-5.96002,1.98999l1.91003-5.71997c.09998-.31.04999-.64001-.14001-.90002-.19-.27002-.48999-.41998-.81-.41998h-17.46997l-.56006-2.23999c-.10999-.45001-.50995-.76001-.96997-.76001h-3c-.54999,0-1,.45001-1,1s.45001,1,1,1h2.21997l2.71002,10.83997c-.57001.55005-.92999,1.31-.92999,2.16003,0,1.64996,1.34998,3,3,3s3-1.35004,3-3c0-.35004-.07001-.69-.17999-1h7.23999c-1.13,1.76001-1.84003,3.79999-2.01001,6ZM22.78003,35l-1.75-7h15.57996l-2.32996,7h-11.5ZM24,38c0,.54999-.45001,1-1,1s-1-.45001-1-1,.45001-1,1-1,1,.45001,1,1ZM44,55c-6.07001,0-11-4.92999-11-11s4.92999-11,11-11,11,4.92999,11,11-4.92999,11-11,11Z"/>
</svg>