<?xml version="1.0" encoding="UTF-8"?>
<svg id="Outline" xmlns="http://www.w3.org/2000/svg" version="1.1" viewBox="0 0 64 64">
  <!-- Generator: Adobe Illustrator 29.5.1, SVG Export Plug-In . SVG Version: 2.1.0 Build 141)  -->
  <path d="M34.445,48.168l-2.058,1.372-.493-.987c-.248-.494-.847-.693-1.342-.447l-2.553,1.276v-1.382c0-.321-.154-.623-.415-.812-.262-.188-.597-.241-.901-.137-2.175.725-3.907,2.457-4.632,4.632-.404,1.213,1.487,1.862,1.896.633.371-1.11,1.102-2.062,2.052-2.713v1.396c0,.347.18.668.475.851.294.184.662.197.973.044l3.105-1.553.553,1.105c.128.257.36.445.638.52.279.075.573.024.812-.135l3-2c.46-.307.584-.927.277-1.387s-.927-.584-1.387-.277Z"/>
  <path d="M50,11h-1v-1c0-1.61-1.28-2.92-2.87-2.99h-.06c-.02,0-.05-.01-.07-.01H15c-.13,0-.26.03-.37.07-2.06.36-3.63,2.14-3.63,4.3v38.63c0,1.65,1.35,3,3,3h1v.53c0,.95.39,1.82,1.02,2.45s1.5,1.02,2.45,1.02h31.06c.95,0,1.82-.39,2.45-1.02s1.02-1.5,1.02-2.45V14c0-1.65-1.35-3-3-3ZM46.09,9.02c.51.05.91.46.91.98v1h-7.35l6.44-1.98ZM39.35,9l-18.64,5.73-1.1-4.42c-.12-.48-.32-.92-.57-1.31h20.31ZM51,50.38l-1.83-.92,1.83-7.34v8.26ZM51,33.88l-3.97,15.88c-.11.45.1.92.52,1.13l2.64,1.32c.5.25.81.76.81,1.32,0,.81-.66,1.47-1.47,1.47h-31.06c-.81,0-1.47-.66-1.47-1.47,0-.56.31-1.07.81-1.32l2.64-1.32c.42-.21.63-.68.52-1.13l-3.97-15.88v-6.88c0-.55-.45-1-1-1s-1,.45-1,1v24h-1c-.55,0-1-.45-1-1V11.37c0-1.31,1.06-2.37,2.37-2.37,1.09,0,2.03.74,2.3,1.79l.06.24c-1.53.14-2.73,1.41-2.73,2.97v5c0,.55.45,1,1,1s1-.45,1-1v-5c0-.55.45-1,1-1h.22l.81,3.24c.07.27.24.5.48.63.15.09.32.13.49.13.1,0,.2-.01.29-.04l12.86-3.96h16.85c.55,0,1,.45,1,1v19.88ZM17,50.38v-8.26l1.83,7.34-1.83.92Z"/>
  <path d="M42.001,19.057c-2.539-2.273-5.953-3.359-9.369-2.98-5.484.608-9.922,5.029-10.551,10.513-.395,3.445.642,6.763,2.919,9.341,1.29,1.46,2,3.234,2,5.07,0,.553.447,1,1,1v1c0,1.654,1.346,3,3,3h6c1.654,0,3-1.346,3-3v-1c.553,0,1-.526,1-1.079,0-1.772.696-3.53,1.961-4.947,1.96-2.197,3.039-5.029,3.039-7.974,0-3.408-1.457-6.668-3.999-8.943ZM38,43c0,.552-.448,1-1,1h-6c-.552,0-1-.448-1-1v-1h8v1ZM30,29h-1c-.552,0-1-.448-1-1s.448-1,1-1,1,.448,1,1v1ZM32,40v-9h4v9h-4ZM41.469,34.642c-1.364,1.529-2.203,3.385-2.415,5.358h-1.054v-9h1c1.654,0,3-1.346,3-3s-1.346-3-3-3-3,1.346-3,3v1h-4v-1c0-1.654-1.346-3-3-3s-3,1.346-3,3,1.346,3,3,3h1v9h-1.05c-.208-1.933-1.06-3.819-2.451-5.395-1.896-2.148-2.761-4.914-2.432-7.789.524-4.565,4.219-8.246,8.785-8.752,2.896-.317,5.668.561,7.814,2.482,2.118,1.896,3.333,4.612,3.333,7.453,0,2.453-.899,4.812-2.531,6.642ZM38,29v-1c0-.552.448-1,1-1s1,.448,1,1-.448,1-1,1h-1Z"/>
  <circle cx="16" cy="23" r="1"/>
</svg>