<?xml version="1.0" encoding="UTF-8"?>
<svg id="Outline" xmlns="http://www.w3.org/2000/svg" version="1.1" viewBox="0 0 64 64">
  <!-- Generator: Adobe Illustrator 29.5.1, SVG Export Plug-In . SVG Version: 2.1.0 Build 141)  -->
  <path d="M40.224,43.072c-.738-.311-1.554-.318-2.296-.016l-8.956,3.64-1.4-.369c.273-1.076.201-2.221-.255-3.245-.558-1.252-1.621-2.227-2.916-2.674l-4.616-1.596c-1.146-.394-2.394-.361-3.516.093l-4.166,1.694h0c-.208-.51-.79-.756-1.303-.55l-3.706,1.506c-.246.101-.442.294-.545.538s-.105.52-.005.766l5.271,12.97c.158.388.532.623.927.623.125,0,.253-.023.376-.073l3.706-1.506c.246-.101.442-.294.545-.538s.105-.52.005-.766l-.188-.462,11.499.101h.009c.129,0,.257-.025.376-.073l11.117-4.518c.743-.302,1.323-.875,1.635-1.613s.317-1.554.015-2.297c-.302-.742-.875-1.322-1.613-1.634ZM13.292,54.148l-4.518-11.117,1.853-.753s0,0,0,0c0,0,0,0,.001.002l4.141,10.19s.001.003.002.005l.373.919-1.853.753ZM39.975,46.223c-.098.235-.284.435-.54.539l-10.932,4.442-12.133-.106-3.514-8.646,4.166-1.694c.674-.272,1.423-.294,2.11-.056l4.616,1.596c.785.271,1.404.839,1.742,1.598.275.617.32,1.284.159,1.924l-6.023-1.586c-.538-.141-1.081.179-1.222.712-.141.534.178,1.081.712,1.222l9.67,2.547c.21.056.431.041.631-.04,0,0,9.231-3.751,9.264-3.765.495-.201,1.103.057,1.303.55.1.247.091.523-.01.764Z"/>
  <path d="M56.401,21.698l-1.98.25c-.12.01-.24.05-.35.12l-4.5,2.49-3.67.09c-2.16.05-4.37.25-6.58.59-1.96.3-3.87.71-5.67,1.26,0-.02-.01-.03-.02-.05-.18-.52-.19-1.09-.03-1.6.29-.95,1.06-1.66,2.03-1.85l6.18-1.23c1.41-.28,2.43-1.52,2.43-2.95,0-.74-.28-1.45-.8-2.03-1.08-1.16-2.44-2-3.95-2.44-.55-.51-1.26-.81-2.02-.81h-9.79c.27-.19.56-.35.87-.45l8.59-2.9c3.29-1.11,7.03-.76,10.09.98,2.43,1.39,5.29,1.96,8.07,1.6.55-.07.93-.57.86-1.12-.07-.54-.57-.92-1.12-.86-2.34.3-4.76-.18-6.82-1.36-3.56-2.02-7.9-2.43-11.72-1.14l-8.59,2.9c-1.22.41-2.24,1.26-2.91,2.35h-1.53c-1.65,0-3,1.35-3,3v17.75c0,1.79,1.46,3.25,3.25,3.25h2.75c.55,0,1-.45,1-1s-.45-1-1-1h-2.75c-.69,0-1.25-.56-1.25-1.25,0-.57.39-1.07.94-1.21l2.3-.57c.31-.08.56-.29.68-.58.12-.29.1-.61-.05-.89l-3.87-6.77v-7.73c0-.55.45-1,1-1h14c.28,0,.55.12.73.33.02.03.05.05.07.08.1.13.2.33.2.59v3.86l-3.23.64c-1.69.33-3.05,1.56-3.56,3.23-.27.91-.26,1.91.05,2.82.05.14.13.34.27.53.49.64,1.35,1.01,2.14.75,1.4-.37,2.85-.68,4.33-.94v7.11c0,.55-.45,1-1,1h-3c-.55,0-1,.45-1,1s.45,1,1,1h3c1.65,0,3-1.35,3-3v-7.43c1.84-.25,3.68-.42,5.48-.46l3.92-.1c.16-.01.31-.05.45-.13l4.55-2.51,1.79-.23c.54-.07.93-.57.86-1.11-.07-.55-.57-.93-1.12-.87ZM40.471,16.928c.55.33,1.06.73,1.5,1.21.22.25.27.51.27.68,0,.4-.25.88-.81.99l-.96.19v-3.07ZM23.951,30.888l-1.02.25c-.16.04-.31.1-.46.16v-2.99l1.48,2.58Z"/>
  <circle cx="30.471" cy="36.538" r="1"/>
</svg>