<?xml version="1.0" encoding="UTF-8"?>
<svg id="Outline" xmlns="http://www.w3.org/2000/svg" version="1.1" viewBox="0 0 64 64">
  <!-- Generator: Adobe Illustrator 29.5.1, SVG Export Plug-In . SVG Version: 2.1.0 Build 141)  -->
  <path d="M52,35h-10c-.553,0-1,.447-1,1s.447,1,1,1h10c.553,0,1-.447,1-1s-.447-1-1-1Z"/>
  <path d="M52,39h-6c-.553,0-1,.447-1,1s.447,1,1,1h6c.553,0,1-.447,1-1s-.447-1-1-1Z"/>
  <path d="M52,43h-6c-.553,0-1,.447-1,1s.447,1,1,1h6c.553,0,1-.447,1-1s-.447-1-1-1Z"/>
  <path d="M24,31h-14c-1.65,0-3,1.35-3,3v17.75c0,.89.36,1.71.95,2.3.59.59,1.41.95,2.3.95h13.75c1.65,0,3-1.35,3-3v-18c0-1.65-1.35-3-3-3ZM9,45.77l1.48,2.58-1.02.25c-.16.04-.31.1-.46.16v-2.99ZM25,52c0,.55-.45,1-1,1h-13.75c-.69,0-1.25-.56-1.25-1.25,0-.57.39-1.07.94-1.21l2.3-.57c.31-.08.56-.29.68-.58.12-.29.1-.61-.05-.89l-3.87-6.77v-7.73c0-.55.45-1,1-1h14c.55,0,1,.45,1,1v18Z"/>
  <path d="M56,43c.55,0,1-.45,1-1v-8c0-1.65-1.35-3-3-3h-14c-1.65,0-3,1.35-3,3v17.75c0,.89.36,1.71.95,2.3.59.59,1.41.95,2.3.95h13.75c1.65,0,3-1.35,3-3v-2c0-.55-.45-1-1-1s-1,.45-1,1v2c0,.55-.45,1-1,1h-13.75c-.69,0-1.25-.56-1.25-1.25,0-.57.39-1.07.94-1.21l2.3-.57c.31-.08.56-.29.68-.58.12-.29.1-.61-.05-.89l-3.87-6.77v-7.73c0-.55.45-1,1-1h14c.55,0,1,.45,1,1v8c0,.55.45,1,1,1ZM40.48,48.35l-1.02.25c-.16.04-.31.1-.46.16v-2.99l1.48,2.58Z"/>
  <path d="M22,35h-10c-.553,0-1,.447-1,1s.447,1,1,1h10c.553,0,1-.447,1-1s-.447-1-1-1Z"/>
  <path d="M22,39h-6c-.553,0-1,.447-1,1s.447,1,1,1h6c.553,0,1-.447,1-1s-.447-1-1-1Z"/>
  <path d="M22,43h-6c-.553,0-1,.447-1,1s.447,1,1,1h6c.553,0,1-.447,1-1s-.447-1-1-1Z"/>
  <path d="M52,13h-6c-.553,0-1,.447-1,1s.447,1,1,1h6c.553,0,1-.447,1-1s-.447-1-1-1Z"/>
  <path d="M54,9h-10c-1.654,0-3,1.346-3,3v4c0,1.304.836,2.416,2,2.829v1.171c0,.546.457,1,1,1,.126,0,.252-.023.371-.071l4.821-1.929h4.808c1.654,0,3-1.346,3-3v-4c0-1.654-1.346-3-3-3ZM55,16c0,.552-.448,1-1,1h-5c-.127,0-.253.024-.371.071l-3.629,1.452v-.523c0-.553-.447-1-1-1s-1-.448-1-1v-4c0-.552.448-1,1-1h10c.552,0,1,.448,1,1v4Z"/>
  <path d="M12,15h6c.553,0,1-.447,1-1s-.447-1-1-1h-6c-.553,0-1,.447-1,1s.447,1,1,1Z"/>
  <path d="M10,19h4.808l4.821,1.929c.119.048.245.071.371.071.54,0,1.001-.465,1.001-1v-1.171c1.164-.413,2-1.525,2-2.829v-4c0-1.654-1.346-3-3-3h-10c-1.654,0-3,1.346-3,3v4c0,1.654,1.346,3,3,3ZM9,12c0-.552.448-1,1-1h10c.552,0,1,.448,1,1v4c0,.552-.448,1-1,1s-1,.447-1,1v.523l-3.629-1.452c-.118-.047-.244-.071-.371-.071h-5c-.552,0-1-.448-1-1v-4Z"/>
  <path d="M56,24h-6.184c-.414-1.161-1.514-2-2.816-2s-2.402.839-2.816,2h-9.369c-.414-1.161-1.514-2-2.816-2s-2.402.839-2.816,2h-9.369c-.414-1.161-1.514-2-2.816-2s-2.402.839-2.816,2h-6.184c-.553,0-1,.447-1,1s.447,1,1,1h6.184c.414,1.161,1.514,2,2.816,2s2.402-.839,2.816-2h9.369c.414,1.161,1.514,2,2.816,2s2.402-.839,2.816-2h9.369c.414,1.161,1.514,2,2.816,2s2.402-.839,2.816-2h6.184c.553,0,1-.447,1-1s-.447-1-1-1ZM17,26c-.552,0-1-.448-1-1s.448-1,1-1,1,.448,1,1-.448,1-1,1ZM32,26c-.552,0-1-.448-1-1s.448-1,1-1,1,.448,1,1-.448,1-1,1ZM47,26c-.552,0-1-.448-1-1s.448-1,1-1,1,.448,1,1-.448,1-1,1Z"/>
  <circle cx="56" cy="46" r="1"/>
</svg>