<?xml version="1.0" encoding="UTF-8"?>
<svg id="Outline" xmlns="http://www.w3.org/2000/svg" version="1.1" viewBox="0 0 64 64">
  <!-- Generator: Adobe Illustrator 29.5.1, SVG Export Plug-In . SVG Version: 2.1.0 Build 141)  -->
  <path d="M54,14H10c-1.65,0-3,1.35-3,3v26c0,1.3.84,2.4,2,2.82v1.18c0,1.65,1.35,3,3,3h40c1.65,0,3-1.35,3-3v-1.18c1.16-.42,2-1.52,2-2.82v-26c0-1.65-1.35-3-3-3ZM53,47c0,.55-.45,1-1,1H12c-.55,0-1-.45-1-1v-1h42v1ZM55,43c0,.55-.45,1-1,1H10c-.55,0-1-.45-1-1v-1h46v1ZM55,40H9v-4h46v4ZM55,34H9v-17c0-.55.45-1,1-1h44c.55,0,1,.45,1,1v17Z"/>
  <path d="M12,20h12c.552,0,1-.448,1-1s-.448-1-1-1h-12c-.552,0-1,.448-1,1s.448,1,1,1Z"/>
  <path d="M12,24h4c.552,0,1-.448,1-1s-.448-1-1-1h-4c-.552,0-1,.448-1,1s.448,1,1,1Z"/>
  <path d="M24,22h-4c-.552,0-1,.448-1,1s.448,1,1,1h4c.552,0,1-.448,1-1s-.448-1-1-1Z"/>
  <path d="M50,24c1.654,0,3-1.346,3-3s-1.346-3-3-3-3,1.346-3,3,1.346,3,3,3ZM50,20c.551,0,1,.449,1,1s-.449,1-1,1-1-.449-1-1,.449-1,1-1Z"/>
  <path d="M42,24c1.654,0,3-1.346,3-3s-1.346-3-3-3-3,1.346-3,3,1.346,3,3,3ZM42,20c.551,0,1,.449,1,1s-.449,1-1,1-1-.449-1-1,.449-1,1-1Z"/>
  <path d="M12,28h12c.552,0,1-.448,1-1s-.448-1-1-1h-12c-.552,0-1,.448-1,1s.448,1,1,1Z"/>
</svg>