<?xml version="1.0" encoding="UTF-8"?>
<svg id="Outline" xmlns="http://www.w3.org/2000/svg" version="1.1" viewBox="0 0 64 64">
  <!-- Generator: Adobe Illustrator 29.3.1, SVG Export Plug-In . SVG Version: 2.1.0 Build 151)  -->
  <path d="M13,14h3c.55273,0,1-.44727,1-1s-.44727-1-1-1h-3c-.55273,0-1,.44727-1,1s.44727,1,1,1Z"/>
  <path d="M16.46094,10.84668c.19629.19727.45312.2959.71094.2959.25391,0,.50879-.09668.7041-.28906.3916-.38867.39551-1.02246.00684-1.41504l-2.12207-2.14258c-.38965-.39062-1.02148-.39453-1.41504-.00684-.3916.38867-.39551,1.02246-.00684,1.41504l2.12207,2.14258Z"/>
  <path d="M16.46094,15.15332l-2.12207,2.14258c-.38867.39258-.38477,1.02637.00684,1.41504.19531.19238.4502.28906.7041.28906.25781,0,.51465-.09863.71094-.2959l2.12207-2.14258c.38867-.39258.38477-1.02637-.00684-1.41504-.39355-.3877-1.02539-.38477-1.41504.00684Z"/>
  <path d="M42,27c-1.78009,0-3.47736.34698-5.04504.95551-1.43701-1.42358-3.11987-2.6095-4.95496-3.44379v-2.51172c0-1.10254-.89746-2-2-2h-4v-3c0-2.75684-2.24316-5-5-5h-1c-.55273,0-1,.44727-1,1s.44727,1,1,1h1c1.6543,0,3,1.3457,3,3v3h-4c-1.10254,0-2,.89746-2,2v2.51074c-6.61914,2.99219-10.58789,9.76367-9.92871,17.06348.71973,7.97656,7.27148,14.57324,15.24023,15.34375.56738.05469,1.13184.08203,1.69336.08203,3.81335,0,7.45361-1.26685,10.4657-3.62543,1.95135,1.03381,4.17157,1.62543,6.52942,1.62543,7.71973,0,14-6.28027,14-14s-6.28027-14-14-14ZM48.38062,46.88409c.26111-1.17902.44836-2.45453.54614-3.81183.04004-.55078-.37402-1.03027-.9248-1.06934-.54395-.0459-1.0293.37402-1.06934.9248-.12585,1.74353-.40497,3.28479-.78125,4.6142-1.302.29065-2.69867.45807-4.15137.45807-1.44928,0-2.84271-.16675-4.14215-.45605-.52667-1.8371-.85785-4.05334-.85785-6.54395s.33118-4.70685.85785-6.54395c1.29944-.28931,2.69287-.45605,4.14215-.45605,1.4527,0,2.84937.16742,4.15137.45807.37628,1.32941.6554,2.87067.78125,4.6142.04004.55078.52637.97168,1.06934.9248.55078-.03906.96484-.51855.9248-1.06934-.09778-1.3573-.28503-2.63281-.54614-3.81183,3.34595,1.258,5.61938,3.44702,5.61938,5.88409s-2.27344,4.6261-5.61938,5.88409ZM42,53c-1.16504,0-2.39404-1.19995-3.34277-3.25842,1.06989.1629,2.18457.25842,3.34277.25842,1.16376,0,2.28363-.0965,3.35815-.26093-.96484,2.10144-2.21338,3.26093-3.35815,3.26093ZM31.71539,47.15112c1.28174.88733,2.83838,1.60492,4.60126,2.09619.40845,1.13495.90009,2.13397,1.45959,2.97064-2.54626-.9621-4.67682-2.76172-6.06085-5.06683ZM37.77625,29.78204c-.55951.83667-1.05115,1.83569-1.45959,2.97064-1.76288.49127-3.31952,1.20886-4.60126,2.09619,1.38403-2.30511,3.51459-4.10474,6.06085-5.06683ZM45.35809,32.26086c-1.07452-.16443-2.19434-.26086-3.35809-.26086-1.1582,0-2.27289.09552-3.34277.25842.94873-2.05847,2.17773-3.25842,3.34277-3.25842,1.14471,0,2.39325,1.15948,3.35809,3.26086ZM35.63446,35.11047c-.40424,1.78345-.63446,3.77081-.63446,5.88953s.23022,4.10608.63446,5.88953c-3.35413-1.25708-5.63446-3.44885-5.63446-5.88953s2.28033-4.63245,5.63446-5.88953ZM52.28461,34.84888c-1.27527-.88287-2.82318-1.59723-4.57526-2.08826-.40088-1.13428-.88324-2.12891-1.43298-2.95929,2.52319.96698,4.63373,2.75824,6.00824,5.04755ZM23.50391,54.92773c-7.02832-.67969-12.80566-6.49805-13.44043-13.5332-.60059-6.64453,3.14258-12.79199,9.3125-15.29785.37695-.15332.62402-.51953.62402-.92676v-3.16992h10v3.16992c0,.40723.24707.77344.62402.92676,1.60956.65332,3.10516,1.61023,4.4046,2.78015-1.18213.6825-2.25323,1.53125-3.18561,2.51654-1.93402-1.54913-4.3269-2.39337-6.84302-2.39337-2.16699,0-4.26367.63184-6.06348,1.82715-.45996.30566-.58496.92676-.2793,1.38672.30469.45898.9248.58398,1.38672.2793,1.46973-.97656,3.18359-1.49316,4.95605-1.49316,2.04883,0,3.99738.68237,5.57397,1.93762-1.61517,2.28217-2.57397,5.06-2.57397,8.06238,0,2.41431.6145,4.68768,1.69495,6.67236-1.3996.86829-3.00464,1.32764-4.69495,1.32764-4.96289,0-9-4.03711-9-9,0-1.77246.5166-3.48633,1.49316-4.95605.30566-.45996.18066-1.08105-.2793-1.38672-.46191-.30566-1.08105-.17969-1.38672.2793-1.19531,1.7998-1.82715,3.89648-1.82715,6.06348,0,6.06543,4.93457,11,11,11,2.08374,0,4.06378-.57086,5.78821-1.65137.81793,1.09552,1.78949,2.06525,2.88678,2.88086-2.94763,2.09192-6.50879,3.04541-10.17108,2.69824ZM46.27637,52.19867c.54974-.83038,1.0321-1.82501,1.43298-2.95929,1.75208-.49103,3.29999-1.20538,4.57526-2.08826-1.37451,2.28931-3.48505,4.08057-6.00824,5.04755Z"/>
  <path d="M42,38c.55176,0,1,.44824,1,1,0,.55273.44727,1,1,1s1-.44727,1-1c0-1.30194-.8385-2.40161-2-2.81573v-.18427c0-.55273-.44727-1-1-1s-1,.44727-1,1v.18427c-1.1615.41412-2,1.51379-2,2.81573,0,1.6543,1.3457,3,3,3,.55176,0,1,.44824,1,1s-.44824,1-1,1-1-.44824-1-1c0-.55273-.44727-1-1-1s-1,.44727-1,1c0,1.30194.8385,2.40155,2,2.81567v.18433c0,.55273.44727,1,1,1s1-.44727,1-1v-.18427c1.1615-.41412,2-1.51379,2-2.81573,0-1.6543-1.3457-3-3-3-.55176,0-1-.44824-1-1s.44824-1,1-1Z"/>
</svg>