<?xml version="1.0" encoding="UTF-8"?>
<svg id="Outline" xmlns="http://www.w3.org/2000/svg" version="1.1" viewBox="0 0 64 64">
  <!-- Generator: Adobe Illustrator 29.5.1, SVG Export Plug-In . SVG Version: 2.1.0 Build 141)  -->
  <path d="M56,9h-3v-1c0-.552-.447-1-1-1h-15c-.553,0-1,.448-1,1s.447,1,1,1h10v13c0,.552.447,1,1,1s1-.448,1-1v-5h3c.553,0,1-.448,1-1v-1h3c.553,0,1-.448,1-1v-4c0-.552-.447-1-1-1ZM51,15h-2v-6h2v6ZM55,13h-2v-2h2v2Z"/>
  <path d="M56,49h-3v-1c0-.55-.45-1-1-1h-3v-21c0-.55-.45-1-1-1s-1,.45-1,1v29h-30V9h16c.55,0,1-.45,1-1s-.45-1-1-1H12c-.55,0-1,.45-1,1v1h-3c-.55,0-1,.45-1,1v4c0,.55.45,1,1,1h3v1c0,.55.45,1,1,1h3v30h-3c-.55,0-1,.45-1,1v1h-3c-.55,0-1,.45-1,1v4c0,.55.45,1,1,1h3v1c0,.55.45,1,1,1h40c.55,0,1-.45,1-1v-1h3c.55,0,1-.45,1-1v-4c0-.55-.45-1-1-1ZM11,13h-2v-2h2v2ZM11,53h-2v-2h2v2ZM15,55h-2v-6h2v6ZM15,15h-2v-6h2v6ZM51,55h-2v-6h2v6ZM55,53h-2v-2h2v2Z"/>
  <path d="M40.629,14.071l-4.312,1.725-3.536-4.42c-.381-.475-1.182-.475-1.562,0l-3.536,4.42-4.312-1.725c-.354-.141-.759-.069-1.041.187-.283.255-.396.65-.292,1.017l1.962,6.867v3.858c0,.552.447,1,1,1h14c.553,0,1-.448,1-1v-3.858l1.962-6.867c.104-.367-.009-.762-.292-1.017-.282-.255-.687-.327-1.041-.187ZM27.629,17.929c.404.161.876.041,1.152-.304l3.219-4.024,3.219,4.024c.276.345.746.465,1.152.304l3.107-1.243-1.233,4.314h-12.491l-1.233-4.314,3.107,1.243ZM38,25h-12v-2h12v2Z"/>
  <path d="M22,29h-2c-.553,0-1,.448-1,1s.447,1,1,1h2c.553,0,1-.448,1-1s-.447-1-1-1Z"/>
  <path d="M44,29h-18c-.553,0-1,.448-1,1s.447,1,1,1h18c.553,0,1-.448,1-1s-.447-1-1-1Z"/>
  <path d="M22,33h-2c-.553,0-1,.448-1,1s.447,1,1,1h2c.553,0,1-.448,1-1s-.447-1-1-1Z"/>
  <path d="M26,35h12c.553,0,1-.448,1-1s-.447-1-1-1h-12c-.553,0-1,.448-1,1s.447,1,1,1Z"/>
  <path d="M22,37h-2c-.553,0-1,.448-1,1s.447,1,1,1h2c.553,0,1-.448,1-1s-.447-1-1-1Z"/>
  <path d="M44,37h-18c-.553,0-1,.448-1,1s.447,1,1,1h18c.553,0,1-.448,1-1s-.447-1-1-1Z"/>
  <path d="M22,41h-2c-.553,0-1,.448-1,1s.447,1,1,1h2c.553,0,1-.448,1-1s-.447-1-1-1Z"/>
  <path d="M26,43h12c.553,0,1-.448,1-1s-.447-1-1-1h-12c-.553,0-1,.448-1,1s.447,1,1,1Z"/>
  <path d="M22,45h-2c-.553,0-1,.448-1,1s.447,1,1,1h2c.553,0,1-.448,1-1s-.447-1-1-1Z"/>
  <path d="M45,46c0-.552-.447-1-1-1h-18c-.553,0-1,.448-1,1s.447,1,1,1h18c.553,0,1-.448,1-1Z"/>
  <path d="M22,49h-2c-.553,0-1,.448-1,1s.447,1,1,1h2c.553,0,1-.448,1-1s-.447-1-1-1Z"/>
  <path d="M26,49c-.553,0-1,.448-1,1s.447,1,1,1h12c.553,0,1-.448,1-1s-.447-1-1-1h-12Z"/>
</svg>