<?xml version="1.0" encoding="UTF-8"?>
<svg id="Outline" xmlns="http://www.w3.org/2000/svg" version="1.1" viewBox="0 0 64 64">
  <!-- Generator: Adobe Illustrator 29.5.1, SVG Export Plug-In . SVG Version: 2.1.0 Build 141)  -->
  <circle cx="16" cy="45" r="1"/>
  <circle cx="48" cy="45" r="1"/>
  <path d="M56.71002,26.28998l-8-8c-.19-.17999-.44-.28998-.71002-.28998h-7v-1c0-1.65002-1.34998-3-3-3h-11c-.54999,0-1,.45001-1,1s.45001,1,1,1h11c.54999,0,1,.45001,1,1v19h-5v-5.38c1.26001-1.31,2-3.37,2-5.62,0-3.92999-2.20001-7-5-7s-5,3.07001-5,7c0,2.25.73999,4.31,2,5.62v5.38h-8v-4.59003l1.71002-1.70001c.17999-.19.28998-.44.28998-.70996v-10c0-.54999-.45001-1-1-1s-1,.45001-1,1v5h-2v-5c0-.54999-.45001-1-1-1s-1,.45001-1,1v5h-2v-5c0-.54999-.45001-1-1-1s-1,.45001-1,1v10c0,.26996.10999.51996.28998.70996l1.71002,1.70001v4.59003h-5v-19c0-.54999.45001-1,1-1h13c.54999,0,1-.45001,1-1s-.45001-1-1-1h-13c-1.65002,0-3,1.34998-3,3v26c0,1.64996,1.34998,3,3,3h1.09998c.47003,2.27997,2.49005,4,4.90002,4s4.42999-1.72003,4.90002-4h22.19995c.47003,2.27997,2.49005,4,4.90002,4s4.42999-1.72003,4.90002-4h3.09998c.54999,0,1-.45001,1-1v-18c0-.27002-.10999-.52002-.28998-.71002ZM31,20c1.63,0,3,2.28998,3,5,0,1.84998-.63,3.54999-1.65997,4.44-.22003.19-.34003.45996-.34003.75v5.81h-2v-5.81c0-.29004-.12-.56-.34003-.75-1.02997-.89001-1.65997-2.59003-1.65997-4.44,0-2.71002,1.37-5,3-5ZM14,26h6v2.58997l-1.71002,1.70001c-.17999.19-.28998.44-.28998.71002v5h-2v-5c0-.27002-.10999-.52002-.28998-.71002l-1.71002-1.70001v-2.58997ZM16,48c-1.65002,0-3-1.35004-3-3s1.34998-3,3-3,3,1.34998,3,3-1.34998,3-3,3ZM39,44h-18.09998c-.47003-2.28003-2.49005-4-4.90002-4s-4.42999,1.71997-4.90002,4h-1.09998c-.54999,0-1-.45001-1-1v-5h30v6ZM41,20h6.59003l2,2h-5.59003c-.54999,0-1,.45001-1,1v7h-2v-10ZM48,48c-1.65002,0-3-1.35004-3-3s1.34998-3,3-3,3,1.34998,3,3-1.34998,3-3,3ZM55,38h-2v-2h2v2ZM55,30h-3c-.54999,0-1,.45001-1,1s.45001,1,1,1h3v2h-3c-.54999,0-1,.45001-1,1v4c0,.54999.45001,1,1,1h3v4h-2.09998c-.47003-2.28003-2.49005-4-4.90002-4s-4.42999,1.71997-4.90002,4h-2.09998v-12h7c.54999,0,1-.45001,1-1s-.45001-1-1-1h-3v-6h6.59003l3.40997,3.40997v2.59003Z"/>
  <path d="M47,34h-2c-.55273,0-1,.44775-1,1s.44727,1,1,1h2c.55273,0,1-.44775,1-1s-.44727-1-1-1Z"/>
</svg>