<?xml version="1.0" encoding="UTF-8"?>
<svg id="Outline" xmlns="http://www.w3.org/2000/svg" version="1.1" viewBox="0 0 64 64">
  <!-- Generator: Adobe Illustrator 29.3.1, SVG Export Plug-In . SVG Version: 2.1.0 Build 151)  -->
  <circle cx="16" cy="45" r="1"/>
  <circle cx="48" cy="45" r="1"/>
  <path d="M56.71002,26.28998l-8-8c-.19-.17999-.44-.28998-.71002-.28998h-7v-1c0-1.65002-1.34998-3-3-3h-16c-.54999,0-1,.45001-1,1s.45001,1,1,1h16c.54999,0,1,.45001,1,1v19H9v-19c0-.54999.45001-1,1-1h4c.54999,0,1-.45001,1-1s-.45001-1-1-1h-4c-1.65002,0-3,1.34998-3,3v26c0,1.64996,1.34998,3,3,3h1.09998c.47003,2.27997,2.49005,4,4.90002,4s4.42999-1.72003,4.90002-4h22.19995c.47003,2.27997,2.49005,4,4.90002,4s4.42999-1.72003,4.90002-4h3.09998c.54999,0,1-.45001,1-1v-18c0-.27002-.10999-.52002-.28998-.71002ZM16,48c-1.65002,0-3-1.35004-3-3s1.34998-3,3-3,3,1.34998,3,3-1.34998,3-3,3ZM39,44h-18.09998c-.47003-2.28003-2.49005-4-4.90002-4s-4.42999,1.71997-4.90002,4h-1.09998c-.54999,0-1-.45001-1-1v-5h30v6ZM53.59003,26h-8.59003v-2h6.59003l2,2ZM48,48c-1.65002,0-3-1.35004-3-3s1.34998-3,3-3,3,1.34998,3,3-1.34998,3-3,3ZM55,38h-2v-2h2v2ZM55,34h-3c-.54999,0-1,.45001-1,1v4c0,.54999.45001,1,1,1h3v4h-2.09998c-.47003-2.28003-2.49005-4-4.90002-4s-4.42999,1.71997-4.90002,4h-2.09998v-12h14v2ZM55,30h-14v-10h6.59003l2,2h-5.59003c-.54999,0-1,.45001-1,1v4c0,.54999.45001,1,1,1h11v2Z"/>
  <path d="M47,34h-2c-.55273,0-1,.44727-1,1s.44727,1,1,1h2c.55273,0,1-.44727,1-1s-.44727-1-1-1Z"/>
  <path d="M11,33c0,.55273.44727,1,1,1h10c.55273,0,1-.44727,1-1s-.44727-1-1-1h-10c-.55273,0-1,.44727-1,1Z"/>
  <path d="M11,29c0,.55273.44727,1,1,1h8c.55273,0,1-.44727,1-1s-.44727-1-1-1h-8c-.55273,0-1,.44727-1,1Z"/>
  <path d="M12,26h6c.55273,0,1-.44727,1-1s-.44727-1-1-1h-6c-.55273,0-1,.44727-1,1s.44727,1,1,1Z"/>
  <circle cx="18" cy="15" r="1"/>
</svg>