<?xml version="1.0" encoding="UTF-8"?>
<svg id="Outline" xmlns="http://www.w3.org/2000/svg" version="1.1" viewBox="0 0 64 64">
  <!-- Generator: Adobe Illustrator 29.3.1, SVG Export Plug-In . SVG Version: 2.1.0 Build 151)  -->
  <path d="M52,46c.54999,0,1-.45001,1-1v-3c0-.54999-.45001-1-1-1h-2v-1.66003c0-2.41998-1.72998-4.48999-4.10999-4.91998l-7.04999-1.27997-.74005-3.53003c1.55005-1.44,2.60004-3.40002,2.84003-5.60999h.06c1.83611,0,3.24571-1.70362,2.96002-3.5-.11005-.67004-.46002-1.25-.96002-1.69v-4.81c0-3.85999-3.14001-7-7-7h-6c-1.85999,0-3.42999,1.27997-3.87,3h-1.13c-2.21002,0-4,1.78998-4,4v4.81c-.49998.43999-.84995,1.01992-.96001,1.68993-.29435,1.79189,1.14694,3.50007,2.96001,3.50008h.06c.23999,2.20996,1.28998,4.16998,2.84003,5.60999l-.74005,3.53003-7.06,1.27997c-2.37.42999-4.09998,2.5-4.09998,4.91998v1.66003h-2c-.54999,0-1,.45001-1,1v14c0,.54999.45001,1,1,1h40c.54999,0,1-.45001,1-1v-3c0-.54999-.45001-1-1-1s-1,.45001-1,1v2H13v-12h8v7c0,.29999.13.57996.37.76996.22998.19.53003.27002.83002.21002l9.79999-1.96002,9.79999,1.96002c.07001.01001.13.02002.20004.02002.54384-.00002.99997-.45673.99997-1v-7h8v2c0,.54999.45001,1,1,1ZM23,14c0-1.10004.90002-2,2-2h2c.54999,0,1-.45001,1-1,0-1.10004.90002-2,2-2h6c2.76001,0,5,2.23999,5,5v4.01001c-.03998,0-.07001-.01001-.10999-.01001h-.89001v-1c0-.29004-.13-.57001-.34998-.76001-.23004-.19-.52002-.27002-.81-.22998-3.85004.64996-7.72003.48999-11.5-.46002-.81-.20001-1.65002-.02002-2.31.48999-.61005.47998-.98004,1.19-1.03003,1.96002h-.89001c-.03998,0-.07001.01001-.10999.01001v-4.01001ZM25,23c0-.54999-.45001-1-1-1h-.99999c-.61517,0-1.09041-.56731-.99-1.17004.08002-.46997.56-.82996,1.09998-.82996h1.89001c.54999,0,1-.45001,1-1v-.84003c0-.28998.16998-.45996.27002-.53998.08997-.08002.29999-.20001.58997-.13,3.66003.91998,7.40002,1.15002,11.14001.66998v.84003c0,.54999.45001,1,1,1h1.89001c.53995,0,1.0199.35994,1.09996.82987.099.58111-.37021,1.17012-.98998,1.17013h-1c-.54999,0-1,.45001-1,1,0,3.85999-3.14001,7-7,7s-7-3.14001-7-7ZM36.90002,33.59998c-2.94,1.94-6.86005,1.94-9.80005,0l.58002-2.71997c1.28003.70996,2.75,1.12,4.32001,1.12s3.03998-.41003,4.32001-1.12l.58002,2.71997ZM41,48.77997l-8.79999-1.76001c-.07001-.00995-.13-.01996-.20001-.01996s-.13.01001-.20001.01996l-8.79999,1.76001v-5.77997h18v5.77997ZM48,41H16v-1.66003c0-1.44995,1.03998-2.69,2.46002-2.94995l7.25-1.32001c1.85999,1.32001,4.07001,1.97998,6.28998,1.97998s4.42999-.65997,6.28998-1.97998l7.25,1.32001c1.42004.25995,2.46002,1.5,2.46002,2.94995v1.66003Z"/>
  <circle cx="52" cy="49" r="1"/>
</svg>