<?xml version="1.0" encoding="UTF-8"?>
<svg id="Outline" xmlns="http://www.w3.org/2000/svg" version="1.1" viewBox="0 0 64 64">
  <!-- Generator: Adobe Illustrator 29.3.1, SVG Export Plug-In . SVG Version: 2.1.0 Build 151)  -->
  <circle cx="16" cy="52" r="1"/>
  <circle cx="48" cy="52" r="1"/>
  <path d="M56.71002,33.28998l-8-8c-.19-.17999-.44-.28998-.71002-.28998h-7v-1c0-1.65002-1.34998-3-3-3h-18c-.54999,0-1,.45001-1,1s.45001,1,1,1h18c.54999,0,1,.45001,1,1v19H9v-19c0-.54999.45001-1,1-1h2c.54999,0,1-.45001,1-1s-.45001-1-1-1h-2c-1.65002,0-3,1.34998-3,3v26c0,1.64996,1.34998,3,3,3h1.09998c.47003,2.27997,2.49005,4,4.90002,4s4.42999-1.72003,4.90002-4h22.19995c.47003,2.27997,2.49005,4,4.90002,4s4.42999-1.72003,4.90002-4h3.09998c.54999,0,1-.45001,1-1v-18c0-.27002-.10999-.52002-.28998-.71002ZM16,55c-1.65002,0-3-1.35004-3-3s1.34998-3,3-3,3,1.34998,3,3-1.34998,3-3,3ZM39,51h-18.09998c-.47003-2.28003-2.49005-4-4.90002-4s-4.42999,1.71997-4.90002,4h-1.09998c-.54999,0-1-.45001-1-1v-5h30v6ZM41,27h6.59003l2,2h-5.59003c-.54999,0-1,.45001-1,1v7h-2v-10ZM48,55c-1.65002,0-3-1.35004-3-3s1.34998-3,3-3,3,1.34998,3,3-1.34998,3-3,3ZM55,45h-2v-2h2v2ZM55,41h-3c-.54999,0-1,.45001-1,1v4c0,.54999.45001,1,1,1h3v4h-2.09998c-.47003-2.28003-2.49005-4-4.90002-4s-4.42999,1.71997-4.90002,4h-2.09998v-12h14v2ZM55,37h-10v-6h6.59003l3.40997,3.40997v2.59003Z"/>
  <path d="M47,41h-2c-.55225,0-1,.44775-1,1s.44775,1,1,1h2c.55225,0,1-.44775,1-1s-.44775-1-1-1Z"/>
  <path d="M36,32h-1.25l-1.78998-6.27002c-.12-.42999-.51001-.72998-.96002-.72998h-16c-.45001,0-.84003.29999-.96002.72998l-1.78998,6.27002h-1.25c-.54999,0-1,.45001-1,1s.45001,1,1,1h1.25l1.78998,6.26996c.12.43005.51001.73004.96002.73004h16c.45001,0,.84003-.29999.96002-.73004l1.78998-6.26996h1.25c.54999,0,1-.45001,1-1s-.45001-1-1-1ZM31.25,39h-14.5l-1.41998-5h17.33997l-1.41998,5ZM15.33002,32l1.41998-5h14.5l1.41998,5H15.33002Z"/>
  <path d="M49,23c4.41113,0,8-3.58887,8-8s-3.58887-8-8-8-8,3.58887-8,8,3.58887,8,8,8ZM49,9c3.30859,0,6,2.69141,6,6s-2.69141,6-6,6-6-2.69141-6-6,2.69141-6,6-6Z"/>
  <path d="M46.88,18.1092c.25618.00089.51473-.08988.70691-.28205l2.12012-2.12012c.1875-.1875.29297-.44189.29297-.70703v-3c0-.55225-.44775-1-1-1s-1,.44775-1,1v2.58594l-1.82714,1.82714c-.61404.61404-.14893,1.69314.70714,1.69613Z"/>
  <circle cx="16" cy="22" r="1"/>
</svg>