<?xml version="1.0" encoding="UTF-8"?>
<svg id="Outline" xmlns="http://www.w3.org/2000/svg" version="1.1" viewBox="0 0 64 64">
  <!-- Generator: Adobe Illustrator 29.3.1, SVG Export Plug-In . SVG Version: 2.1.0 Build 151)  -->
  <path d="M56,45c.54999,0,1-.45001,1-1v-3c0-.25-.09003-.48004-.25-.66003l-8-9c-.19-.21997-.46002-.33997-.75-.33997h-7c-1.09998,0-2,.89996-2,2v12h-2v-16c1.09998,0,2-.90002,2-2v-.84003c1.22998.54004,2.58002.84003,4,.84003,5.51001,0,10-4.48999,10-10s-4.48999-10-10-10-10,4.48999-10,10c0,1.41998.29999,2.76996.84003,4H9c-1.09998,0-2,.89996-2,2v4c0,1.09998.90002,2,2,2v16c-1.09998,0-2,.89996-2,2v6c0,1.09998.90002,2,2,2h3.56c.69,1.19,1.97003,2,3.44,2s2.75-.81,3.44-2h6.73999c.41998,1.15997,1.52002,2,2.82001,2h5c1.29999,0,2.40002-.84003,2.82001-2h7.73999c.69,1.19,1.97003,2,3.44,2s2.75-.81,3.44-2h3.56c1.09998,0,2-.90002,2-2v-5c0-.54999-.45001-1-1-1s-1,.45001-1,1v1h-14v-16h2v8c0,.54999.45001,1,1,1h11v2c0,.54999.45001,1,1,1ZM55,51v2h-3c0-.73004-.21002-1.41003-.56-2h3.56ZM48,51c1.09998,0,2,.89996,2,2,0,1.09998-.90002,2-2,2s-2-.90002-2-2c0-1.10004.90002-2,2-2ZM43,9c4.40997,0,8,3.58997,8,8s-3.59003,8-8,8-8-3.59003-8-8,3.59003-8,8-8ZM28,23h7.02002c.56.75,1.22998,1.41998,1.97998,1.97998v2.02002h-9v-4ZM20,23h6v6.38l-2.54999-1.27002c-.14001-.07001-.29999-.10999-.45001-.10999s-.31.03998-.45001.10999l-2.54999,1.27002v-6.38ZM9,23h9v4h-9v-4ZM16,55c-1.09998,0-2-.90002-2-2,0-1.10004.90002-2,2-2s2,.89996,2,2c0,1.09998-.90002,2-2,2ZM34,55h-5c-.54999,0-1-.45001-1-1s.45001-1,1-1h5c.54999,0,1,.45001,1,1s-.45001,1-1,1ZM44.56,51c-.34998.58997-.56,1.26996-.56,2h-7.17999c-.41998-1.16003-1.52002-2-2.82001-2h-5c-1.29999,0-2.40002.83997-2.82001,2h-6.17999c0-2.21002-1.78998-4-4-4s-4,1.78998-4,4h-3v-6h18c.54999,0,1-.45001,1-1s-.45001-1-1-1H11v-16h7v2c0,.34998.17999.66998.46997.84998.30005.17999.67004.20001.98004.04004l3.54999-1.77002,3.54999,1.77002c.14001.06995.29999.10999.45001.10999.17999,0,.37-.04999.53003-.15002.28998-.17999.46997-.5.46997-.84998v-2h7v16h-4c-.54999,0-1,.45001-1,1s.45001,1,1,1h8v3c0,.54999.45001,1,1,1h4.56ZM45,40v-7h2.54999l6.22003,7h-8.77002Z"/>
  <path d="M44,44c-.55273,0-1,.44775-1,1s.44727,1,1,1h2c.55273,0,1-.44775,1-1s-.44727-1-1-1h-2Z"/>
  <path d="M22,37h-8c-.55273,0-1,.44775-1,1v4c0,.55225.44727,1,1,1h8c.55273,0,1-.44775,1-1v-4c0-.55225-.44727-1-1-1ZM21,41h-6v-2h6v2Z"/>
  <path d="M40.95996,20.37354c.19531.19531.45117.29297.70703.29297s.51172-.09766.70703-.29297l5.33301-5.33301c.39062-.39062.39062-1.02344,0-1.41406s-1.02344-.39062-1.41406,0l-4.62598,4.62598-1.95996-1.95947c-.39062-.39062-1.02344-.39062-1.41406,0s-.39062,1.02393,0,1.41406l2.66699,2.6665Z"/>
</svg>