<?xml version="1.0" encoding="UTF-8"?>
<svg id="Outline" xmlns="http://www.w3.org/2000/svg" version="1.1" viewBox="0 0 64 64">
  <!-- Generator: Adobe Illustrator 29.3.1, SVG Export Plug-In . SVG Version: 2.1.0 Build 151)  -->
  <circle cx="16" cy="52" r="1"/>
  <circle cx="48" cy="52" r="1"/>
  <path d="M56.71002,33.28998l-8-8c-.19-.17999-.44-.28998-.71002-.28998h-6c-.34998,0-.69.07001-1,.17999v-1.17999c0-1.65002-1.34998-3-3-3h-4.84003c.54004-1.23004.84003-2.58002.84003-4,0-5.51001-4.48999-10-10-10s-10,4.48999-10,10c0,1.41998.29999,2.76996.84003,4h-4.84003c-1.65002,0-3,1.34998-3,3v26c0,1.64996,1.34998,3,3,3h1.09998c.47003,2.27997,2.49005,4,4.90002,4s4.42999-1.72003,4.90002-4h22.19995c.47003,2.27997,2.49005,4,4.90002,4s4.42999-1.72003,4.90002-4h3.09998c.54999,0,1-.45001,1-1v-18c0-.27002-.10999-.52002-.28998-.71002ZM24,9c4.40997,0,8,3.58997,8,8s-3.59003,8-8,8-8-3.59003-8-8,3.59003-8,8-8ZM11.09998,51h-1.09998c-.54999,0-1-.45001-1-1v-1h3.03003c-.45001.57996-.78003,1.26001-.93005,2ZM16,55c-1.65002,0-3-1.35004-3-3s1.34998-3,3-3,3,1.34998,3,3-1.34998,3-3,3ZM39,51h-18.09998c-.15002-.73999-.48004-1.42004-.93005-2h19.03003v2ZM39,47H9v-2h30v2ZM39,43H9v-19c0-.54999.45001-1,1-1h6.02002c1.82996,2.41998,4.71997,4,7.97998,4s6.15002-1.58002,7.97998-4h6.02002c.54999,0,1,.45001,1,1v19ZM41,28c0-.54999.45001-1,1-1h5.59003l2,2h-5.59003c-.54999,0-1,.45001-1,1v7h-2v-9ZM48,55c-1.65002,0-3-1.35004-3-3s1.34998-3,3-3,3,1.34998,3,3-1.34998,3-3,3ZM55,45h-2v-2h2v2ZM55,41h-3c-.54999,0-1,.45001-1,1v4c0,.54999.45001,1,1,1h3v4h-2.09998c-.47003-2.28003-2.49005-4-4.90002-4s-4.42999,1.71997-4.90002,4h-2.09998v-12h14v2ZM55,37h-10v-6h6.59003l3.40997,3.40997v2.59003Z"/>
  <path d="M46,41h-2c-.55273,0-1,.44775-1,1s.44727,1,1,1h2c.55273,0,1-.44775,1-1s-.44727-1-1-1Z"/>
  <path d="M19.65264,20.46108c.17018.00287.34248-.03684.49873-.12709l1.89636-1.09473c.53436.46753,1.22516.76074,1.98938.76074,1.6748,0,3.03711-1.3623,3.03711-3.03711,0-1.32263-.85492-2.43866-2.03711-2.85443v-2.10846c0-.55225-.44727-1-1-1s-1,.44775-1,1v2.10846c-1.18219.41577-2.03711,1.5318-2.03711,2.85443,0,.18494.02283.36407.05463.53998l-1.90322,1.09867c-.80601.46528-.53128,1.84211.50123,1.85954ZM24.03711,15.92578c.57227,0,1.03711.46533,1.03711,1.03711s-.46484,1.03711-1.03711,1.03711-1.03711-.46533-1.03711-1.03711.46484-1.03711,1.03711-1.03711Z"/>
  <path d="M17.70703,26.29297c-.39062-.39062-1.02344-.39062-1.41406,0l-5,5c-.28613.28613-.37207.71582-.2168,1.08984.1543.37354.51953.61719.92383.61719h2v3c0,.55225.44727,1,1,1h4c.55273,0,1-.44775,1-1v-3h2c.4043,0,.76953-.24365.92383-.61719.15527-.37402.06934-.80371-.2168-1.08984l-5-5ZM19,31c-.55273,0-1,.44775-1,1v3h-2v-3c0-.55225-.44727-1-1-1h-.58594l2.58594-2.58594,2.58594,2.58594h-.58594Z"/>
  <path d="M20,39h-6c-.55273,0-1,.44775-1,1s.44727,1,1,1h6c.55273,0,1-.44775,1-1s-.44727-1-1-1Z"/>
</svg>