<?xml version="1.0" encoding="UTF-8"?>
<svg id="Outline" xmlns="http://www.w3.org/2000/svg" version="1.1" viewBox="0 0 64 64">
  <!-- Generator: Adobe Illustrator 29.5.1, SVG Export Plug-In . SVG Version: 2.1.0 Build 141)  -->
  <circle cx="16" cy="46" r="1"/>
  <circle cx="48" cy="46" r="1"/>
  <path d="M56.92999,33.64996c-.02002-.03998-.03998-.07996-.06-.10999-.02002-.04999-.03998-.09998-.07001-.14001l-2.85999-3.82001-1.72003-8.57996h1.78003c.54999,0,1-.45001,1-1,0-2.76001-2.23999-5-5-5h-9.17999c-.41998-1.16003-1.52002-2-2.82001-2H10c-1.65002,0-3,1.34998-3,3v26c0,1.64996,1.34998,3,3,3h1.09998c-.06.32001-.09998.65997-.09998,1,0,2.76001,2.23999,5,5,5s5-2.23999,5-5c0-.34003-.03998-.67999-.09998-1h22.19995c-.06.32001-.09998.65997-.09998,1,0,2.76001,2.23999,5,5,5s5-2.23999,5-5c0-.34003-.03998-.67999-.09998-1h3.09998c.54999,0,1-.45001,1-1v-10c0-.12-.03003-.23999-.07001-.35004ZM16,49c-1.65002,0-3-1.35004-3-3s1.34998-3,3-3,3,1.34998,3,3-1.34998,3-3,3ZM39,43h-19.03003c-.90997-1.21002-2.33997-2-3.96997-2s-3.06.78998-3.96997,2h-2.03003c-.54999,0-1-.45001-1-1v-3h30v4ZM39,37H9v-21c0-.54999.45001-1,1-1h28c.54999,0,1,.45001,1,1v21ZM41,17h9c1.29999,0,2.41998.83997,2.83002,2h-11.83002v-2ZM41,21h9.17999l1.60004,8h-10.78003v-8ZM48,49c-1.65002,0-3-1.35004-3-3s1.34998-3,3-3,3,1.34998,3,3-1.34998,3-3,3ZM55,43h-3.02002c-.91998-1.21002-2.34998-2-3.97998-2s-3.06.78998-3.96997,2h-3.03003v-12h11.5l1.5,2h-2c-.54999,0-1,.45001-1,1v4c0,.54999.45001,1,1,1h3v4ZM55,37h-2v-2h2v2Z"/>
  <path d="M46,33h-2c-.55225,0-1,.44775-1,1s.44775,1,1,1h2c.55225,0,1-.44775,1-1s-.44775-1-1-1Z"/>
  <path d="M32.34564,23.38031c-.74567-3.66547-4.02521-6.38031-7.81586-6.38031h-2c-2.13721,0-4.146.83203-5.66016,2.34619-1.13617,1.14642-1.86316,2.56677-2.16339,4.11707-.43903.38959-.70624.94397-.70624,1.53674v4.77148c0,.66211.3208,1.28857.85791,1.67627.06543.04712.13928.07666.20898.11542v.30353c0,1.72754,1.40576,3.1333,3.1333,3.1333h10.6665c1.72754,0,3.1333-1.40576,3.1333-3.1333v-.2356c.08258-.04626.16797-.08612.24512-.14429.52246-.39453.82178-.99561.82178-1.6499v-4.90283c0-.60693-.26685-1.16113-.72125-1.55377ZM16.0874,29.83447l.0025.00757c-.00812-.00018-.01483-.00464-.02301-.00464-.01331,0-.02435.00708-.03754.00757l-.02936-.07349v-4.77148l.0874-.06299,1.42676.47559c.46191.15381.9668.13867,1.41992-.04248l1.95752-.7627,1.875.74951c.49463.19727,1.03906.19775,1.53467-.00049l1.87988-.72754,1.33398.66699c.46289.23096.9917.28174,1.4917.13818l1.97461-.56396c.00049,0,.08545.06396.08545.06396l-.02637,4.95605c-.02637.01953-.04834.01416-.05908.01123l-1.97461-.56445c-.49951-.14355-1.0293-.09277-1.4917.13867l-1.38818.66943-1.82666-.73096c-.49463-.19775-1.03906-.19727-1.53467.00049l-1.92334.75-1.90771-.76367c-.45264-.18066-.95654-.19629-1.42188-.0415l-1.42529.4751ZM18.28711,20.75684c1.13281-1.13281,2.63965-1.75684,4.24268-1.75684h2c2.5722,0,4.83209,1.66522,5.65186,4.01666l-1.77197.49017-1.33398-.66699c-.52783-.26514-1.14404-.28955-1.69189-.07031l-1.87549.72998-1.87354-.74902c-.49609-.19922-1.04199-.19873-1.53516-.00049l-1.9541.76465-1.28992-.42999c.29034-.86462.76904-1.65875,1.43152-2.32782ZM28.8667,33h-10.6665c-.625,0-1.1333-.5083-1.1333-1.1333v-.24646l1.12451-.36243,1.90771.76367c.24756.09863.50732.14795.76709.14795.26025,0,.52002-.04932.76807-.14844l1.92383-.75,1.8252.73047c.54834.22021,1.16455.19434,1.69238-.06982l1.38184-.67188,1.54248.44092v.16602c0,.625-.5083,1.1333-1.1333,1.1333Z"/>
</svg>