<?xml version="1.0" encoding="UTF-8"?>
<svg id="Outline" xmlns="http://www.w3.org/2000/svg" version="1.1" viewBox="0 0 64 64">
  <!-- Generator: Adobe Illustrator 29.5.1, SVG Export Plug-In . SVG Version: 2.1.0 Build 141)  -->
  <circle cx="16" cy="46" r="1"/>
  <circle cx="48" cy="46" r="1"/>
  <path d="M56,30c.54999,0,1-.45001,1-1v-1c0-.27002-.10999-.52002-.28998-.71002l-8-8c-.19-.17999-.44-.28998-.71002-.28998h-8c-.54999,0-1,.45001-1,1v3h-5v-9c0-.54999-.45001-1-1-1h-14c-.54999,0-1,.45001-1,1v9h-6c-.54999,0-1,.45001-1,1v12.89001h-3c-.54999,0-1,.44995-1,1v8.10999c0,.54999.45001,1,1,1h3.09998c.47003,2.27997,2.49005,4,4.90002,4s4.42999-1.72003,4.90002-4h22.19995c.47003,2.27997,2.49005,4,4.90002,4s4.42999-1.72003,4.90002-4h3.09998c.54999,0,1-.45001,1-1v-13c0-.54999-.45001-1-1-1s-1,.45001-1,1v2h-3c-.54999,0-1,.45001-1,1v4c0,.54999.45001,1,1,1h3v4h-2.09998c-.47003-2.28003-2.49005-4-4.90002-4s-4.42999,1.71997-4.90002,4h-2.09998v-24h6.59003l7.40997,7.40997v.59003c0,.54999.45001,1,1,1ZM35,25v5.13l-1.45001-.96002c-.15997-.10999-.35999-.16998-.54999-.16998s-.39001.06-.54999.16998l-1.45001.96002v-5.13h4ZM24,15h4v3.13l-1.45001-.96002c-.15997-.10999-.35999-.16998-.54999-.16998s-.39001.06-.54999.16998l-1.45001.96002v-3.13ZM20,15h2v5c0,.37.20001.70996.53003.88.31995.17999.71997.15997,1.01996-.05005l2.45001-1.62994,2.45001,1.62994c.47456.31571,1.20609.16556,1.43695-.38091.11335-.26831.11496-.56869.11482-.85996-.00075-1.52975-.00149-3.0595-.00224-4.58926.66681.00005,1.33362.0001,2.00043.00015l.00019,7.99936c-4.00005.00124-8.00011.00065-12.00016.00065v-8ZM17,25h4v5.13l-1.45001-.96002c-.15997-.10999-.35999-.16998-.54999-.16998s-.39001.06-.54999.16998l-1.45001.96002v-5.13ZM13,25h2v7c0,.37.20001.70996.53003.88.31995.17999.71997.15997,1.01996-.05005l2.45001-1.62994,2.45001,1.62994c.15995.11003.35992.17002.54989.17004.54501.00006,1.0001-.45469,1.0001-1v-7h2v11.89001h-12v-11.89001ZM16,49c-1.65002,0-3-1.35004-3-3s1.34998-3,3-3,3,1.34998,3,3-1.34998,3-3,3ZM39,36.89001h-4c-.54999,0-1,.44995-1,1,0,.01996.01001.03998.01001.04999,0,.01996-.01001.03998-.01001.06,0,.54999.45001,1,1,1h4v6h-18.09998c-.47003-2.28003-2.49005-4-4.90002-4s-4.42999,1.71997-4.90002,4h-2.09998v-6.10999h2.56c.14001.06995.28003.10999.44.10999h19c.54999,0,1-.45001,1-1,0-.02002-.01001-.04004-.01001-.06,0-.01001.01001-.03003.01001-.04999,0-.55005-.45001-1-1-1h-4v-11.89001h2v7c0,.37.20001.70996.53003.88.31995.17999.71997.15997,1.01996-.05005l2.45001-1.62994,2.45001,1.62994c.15996.11004.35995.17003.54994.17004.54486.00003,1.00004-.45469,1.00004-1v-7h2v11.89001ZM53,39v-2h2v2h-2ZM48,43c1.65002,0,3,1.34998,3,3s-1.34998,3-3,3-3-1.35004-3-3,1.34998-3,3-3Z"/>
  <path d="M53,32v-2.34277c0-.26562-.10547-.51953-.29297-.70703l-5.65723-5.65723c-.1875-.1875-.44141-.29297-.70703-.29297h-2.34277c-.55273,0-1,.44727-1,1v8c0,.55273.44727,1,1,1h8c.55273,0,1-.44727,1-1ZM51,31h-6v-6h.92871l5.07129,5.07129v.92871Z"/>
  <path d="M45,35c-.55273,0-1,.44727-1,1s.44727,1,1,1h2c.55273,0,1-.44727,1-1s-.44727-1-1-1h-2Z"/>
</svg>