<?xml version="1.0" encoding="UTF-8"?>
<svg id="Outline" xmlns="http://www.w3.org/2000/svg" version="1.1" viewBox="0 0 64 64">
  <!-- Generator: Adobe Illustrator 29.0.0, SVG Export Plug-In . SVG Version: 2.1.0 Build 186)  -->
  <circle cx="16" cy="47" r="1"/>
  <circle cx="48" cy="47" r="1"/>
  <path d="M56.79999,27.39996l-4.79999-6.39996h1c.54999,0,1-.45001,1-1,0-2.76001-2.23999-5-5-5h-8c0-1.65002-1.34998-3-3-3h-17c-.54999,0-1,.45001-1,1s.45001,1,1,1h17c.54999,0,1,.45001,1,1v23H9V15c0-.54999.45001-1,1-1h3c.54999,0,1-.45001,1-1s-.45001-1-1-1h-3c-1.65002,0-3,1.34998-3,3v29c0,1.64996,1.34998,3,3,3h1c0,2.76001,2.23999,5,5,5s5-2.23999,5-5h22c0,2.76001,2.23999,5,5,5s5-2.23999,5-5h1c1.65002,0,3-1.35004,3-3v-16c0-.22003-.07001-.42999-.20001-.60004ZM16,50c-1.65002,0-3-1.35004-3-3s1.34998-3,3-3,3,1.34998,3,3-1.34998,3-3,3ZM39,45h-18.41998c-.78003-1.76001-2.53003-3-4.58002-3s-3.79999,1.23999-4.58002,3h-1.41998c-.54999,0-1-.45001-1-1v-4h30v5ZM41,17h8c1.29999,0,2.41998.83997,2.83002,2h-10.83002v-2ZM41,21h3v10h-3v-10ZM48,50c-1.65002,0-3-1.35004-3-3s1.34998-3,3-3,3,1.34998,3,3-1.34998,3-3,3ZM55,39h-2v-2h2v2ZM55,35h-3c-.54999,0-1,.45001-1,1v4c0,.54999.45001,1,1,1h3v3c0,.54999-.45001,1-1,1h-1.41998c-.78003-1.76001-2.53003-3-4.58002-3s-3.79999,1.23999-4.58002,3h-2.41998v-12h14v2ZM55,31h-9v-10h3.5l5.5,7.32996v2.67004Z"/>
  <path d="M47,35h-2c-.55225,0-1,.44727-1,1s.44775,1,1,1h2c.55225,0,1-.44727,1-1s-.44775-1-1-1Z"/>
  <path d="M17.36084,36h13.27832c.8833,0,1.71777-.38672,2.28857-1.06055.57129-.67383.81592-1.56055.67041-2.43262l-2.3335-14c-.24219-1.45312-1.48633-2.50684-2.95898-2.50684h-8.61133c-1.47266,0-2.7168,1.05371-2.95898,2.50684l-2.3335,14c-.14551.87207.09912,1.75879.67041,2.43262.5708.67383,1.40527,1.06055,2.28857,1.06055ZM18.70801,18.83496c.08057-.4834.49561-.83496.98633-.83496h8.61133c.49072,0,.90576.35156.98633.83496l2.3335,14c.04883.29492-.03027.58398-.22363.81152-.19287.22754-.46387.35352-.7627.35352h-13.27832c-.29883,0-.56982-.12598-.7627-.35352-.19336-.22754-.27246-.5166-.22363-.81152l2.3335-14Z"/>
  <path d="M24,28c2.20557,0,4-1.79395,4-4v-3c0-.55273-.44775-1-1-1s-1,.44727-1,1v3c0,1.10254-.89697,2-2,2s-2-.89746-2-2v-3c0-.55273-.44775-1-1-1s-1,.44727-1,1v3c0,2.20605,1.79443,4,4,4Z"/>
  <circle cx="17" cy="13" r="1"/>
</svg>