<?xml version="1.0" encoding="UTF-8"?>
<svg id="Outline" xmlns="http://www.w3.org/2000/svg" version="1.1" viewBox="0 0 64 64">
  <!-- Generator: Adobe Illustrator 29.5.1, SVG Export Plug-In . SVG Version: 2.1.0 Build 141)  -->
  <path d="M22,23.5h-14c-.54999,0-1,.45001-1,1v24c0,.54999.45001,1,1,1h14c.54999,0,1-.45001,1-1v-24c0-.54999-.45001-1-1-1ZM13,25.5h4v4h-4v-4ZM21,47.5h-12v-10h2v5c0,.54999.45001,1,1,1h6c.54999,0,1-.45001,1-1v-5h2v10ZM13,41.5v-4h4v4h-4ZM21,35.5h-12v-10h2v5c0,.54999.45001,1,1,1h6c.54999,0,1-.45001,1-1v-5h2v10Z"/>
  <path d="M56,14.5h-14c-.54999,0-1,.45001-1,1v11h-2v-1c0-1.32001-.52002-2.58002-1.46997-3.54004-.23004-.22998-.48004-.42999-.74005-.59998.75-.72998,1.21002-1.73999,1.21002-2.85999,0-2.21002-1.78998-4-4-4s-4,1.78998-4,4c0,1.14001.48999,2.16998,1.26001,2.89996-.21002.15002-.41998.29004-.60004.47003-1.06,1.01001-1.65997,2.40997-1.65997,3.85999v15.41998l-3.78003,4.73004c-.17999.20996-.25.5-.20996.76996.03998.28003.20001.53003.44.67999l3,2c.16998.12006.35999.17004.54999.17004.28998,0,.57001-.12.77002-.35999l5-6c.13995-.17004.21997-.39001.22998-.62006l.03998-1.98999,1.03003.59003.94,7.5c.06.5.48999.88.98999.88h4c.54999,0,1-.45001,1-1v-10c0-.31-.15002-.60999-.40002-.79999l-3.59998-2.70001v-2.5h5c1.65002,0,3-1.35004,3-3,0-.35004-.07001-.69-.17999-1h9.17999c.54999,0,1-.45001,1-1v-12c0-.54999-.45001-1-1-1ZM47,16.5h4v4h-4v-4ZM34,16.5c1.09998,0,2,.89996,2,2,0,1.09998-.90002,2-2,2s-2-.90002-2-2c0-1.10004.90002-2,2-2ZM33.01001,42.13l-4.20001,5.03998-1.34998-.90002,3.32001-4.14996c.13995-.16998.21997-.39001.21997-.62v-3.28003l2.07001,1.17999-.06,2.73004ZM44,30.5h-7c-1.09998,0-2-.90002-2-2,0-.54999-.45001-1-1-1s-1,.45001-1,1c0,2.20996,1.78998,4,4,4v3c0,.31.15002.60999.40002.79999l3.59998,2.70001v8.5h-2.12l-.89001-7.12c-.03998-.32001-.21997-.59003-.48999-.75l-6.5-3.71002v-10.19c0-.90002.38-1.77997,1.03998-2.40997.59003-.56,1.34003-.86005,2.10004-.82001.73999.03998,1.45001.34998,1.97998.87.57001.58002.88,1.33002.88,2.13v2c0,.54999.45001,1,1,1h6c.54999,0,1,.45001,1,1s-.45001,1-1,1ZM55,26.5h-12v-10h2v5c0,.54999.45001,1,1,1h6c.54999,0,1-.45001,1-1v-5h2v10Z"/>
</svg>