<?xml version="1.0" encoding="UTF-8"?>
<svg id="Outline" xmlns="http://www.w3.org/2000/svg" version="1.1" viewBox="0 0 64 64">
  <!-- Generator: Adobe Illustrator 29.5.1, SVG Export Plug-In . SVG Version: 2.1.0 Build 141)  -->
  <path d="M56.6,40.2c-7.61-5.71-17.86-6.34-26.12-1.63l-.16.1c-7.56-2.44-15.9-1.58-22.82,2.47-.31.18-.5.5-.5.86v14c0,.55.45,1,1,1h48c.55,0,1-.45,1-1v-15c0-.31-.15-.61-.4-.8ZM55,55H9v-3.09l6.06-.61c2.18-.22,4.24-1.04,5.96-2.38,3.52-2.74,8.4-2.71,11.88.08l3.48,2.78c.43.35,1.06.27,1.4-.16.32-.39.27-.94-.07-1.3,5.66-2.51,12.07-2.04,17.29,1.24v3.44ZM55,49.24c-5.63-3.09-12.33-3.37-18.26-.67l-.75.34-1.84-1.48c-4.21-3.35-10.11-3.4-14.36-.09-1.42,1.11-3.13,1.79-4.93,1.97l-5.86.58v-7.31c6.42-3.56,14.07-4.23,20.99-1.92.07.04.14.06.22.08.7.24,1.4.51,2.08.82l5.3,2.35c.51.23,1.1,0,1.32-.5.23-.51,0-1.1-.5-1.32l-5.31-2.36c-.09-.04-.19-.09-.28-.13,7.16-3.46,15.67-2.75,22.18,1.91v7.73Z"/>
  <path d="M21,33.571c3.511,0,6.808-1.886,8.604-4.92.212-.357.181-.809-.078-1.134-.259-.324-.691-.454-1.088-.328-.79.253-1.61.382-2.437.382-4.411,0-8-3.589-8-8,0-1.421.387-2.826,1.117-4.062.212-.357.181-.808-.078-1.132-.26-.325-.69-.455-1.087-.329-4.158,1.329-6.952,5.157-6.952,9.523,0,5.514,4.486,10,10,10ZM16.319,17.079c-.211.812-.319,1.649-.319,2.492,0,5.606,4.654,10.171,10.278,9.996-1.444,1.27-3.319,2.004-5.278,2.004-4.411,0-8-3.589-8-8,0-2.633,1.27-5.021,3.319-6.492Z"/>
  <path d="M22.618,22.092l-.214,2.391c-.031.351.124.691.408.898.285.207.656.248.98.11l2.207-.943,2.207.943c.126.054.26.08.393.08.582,0,1.048-.51.996-1.089l-.214-2.391,1.577-1.808c.231-.265.307-.632.198-.966-.108-.335-.385-.588-.728-.666l-2.34-.536-1.231-2.059c-.361-.604-1.355-.604-1.717,0l-1.231,2.059-2.34.536c-.343.078-.619.331-.728.666-.108.334-.033.701.198.966l1.577,1.808ZM24.772,19.971c.266-.061.494-.228.635-.461l.593-.991.593.991c.141.233.369.4.635.461l1.126.258-.759.87c-.18.205-.268.475-.243.746l.103,1.15-1.062-.454c-.125-.054-.259-.08-.393-.08s-.268.026-.393.08l-1.062.454.103-1.15c.024-.271-.063-.541-.243-.746l-.759-.87,1.126-.258Z"/>
  <path d="M27.465,11.535c.387.387,1.027.387,1.414,0l.707-.707.707.707c.369.369,1.025.389,1.414,0,.391-.391.391-1.023,0-1.414l-.707-.707.707-.707c.391-.391.391-1.023,0-1.414s-1.023-.391-1.414,0l-.707.707-.707-.707c-.391-.391-1.023-.391-1.414,0s-.391,1.023,0,1.414l.707.707-.707.707c-.391.391-.391,1.023,0,1.414Z"/>
  <path d="M33.472,17.529c.377.395,1.025.388,1.407.007l.707-.707.707.707c.195.195.451.293.707.293.87,0,1.321-1.093.707-1.707l-.707-.707.707-.707c.391-.391.391-1.023,0-1.414s-1.023-.391-1.414,0l-.707.707-.707-.707c-.391-.391-1.023-.391-1.414,0s-.391,1.023,0,1.414l.707.707-.707.707c-.412.412-.345,1.039.007,1.407Z"/>
  <path d="M33.465,27.535c.373.373,1.019.395,1.414,0l.707-.707.707.707c.195.195.451.293.707.293.873,0,1.324-1.091.707-1.707l-.707-.707.707-.707c.391-.391.391-1.023,0-1.414s-1.023-.391-1.414,0l-.707.707-.707-.707c-.391-.391-1.023-.391-1.414,0s-.391,1.023,0,1.414l.707.707-.707.707c-.391.391-.391,1.023,0,1.414Z"/>
  <path d="M42.465,21.535c.368.368,1.025.389,1.414,0l.707-.707.707.707c.195.195.451.293.707.293.875,0,1.322-1.092.707-1.707l-.707-.707.707-.707c.391-.391.391-1.023,0-1.414s-1.023-.391-1.414,0l-.707.707-.707-.707c-.391-.391-1.023-.391-1.414,0s-.391,1.023,0,1.414l.707.707-.707.707c-.391.391-.391,1.023,0,1.414Z"/>
</svg>