<?xml version="1.0" encoding="UTF-8"?>
<svg id="Outline" xmlns="http://www.w3.org/2000/svg" version="1.1" viewBox="0 0 64 64">
  <!-- Generator: Adobe Illustrator 29.5.1, SVG Export Plug-In . SVG Version: 2.1.0 Build 141)  -->
  <path d="M54,11h-5v-3c0-.55-.45-1-1-1h-4c-.55,0-1,.45-1,1v3h-22v-3c0-.55-.45-1-1-1h-4c-.55,0-1,.45-1,1v3h-5c-1.65,0-3,1.35-3,3v40c0,1.65,1.35,3,3,3h44c1.65,0,3-1.35,3-3V14c0-1.65-1.35-3-3-3ZM45,9h2v6h-2v-6ZM17,9h2v6h-2v-6ZM10,55c-.55,0-1-.45-1-1V21h2v33c0,.35.07.69.18,1h-1.18ZM30.56,55l14.86-1.92.96,1.92h-15.82ZM55,54c0,.55-.45,1-1,1h-1.34c.21-.45.34-.94.34-1.47V21h2v33ZM55,19h-27c-.55,0-1,.45-1,1s.45,1,1,1h23v32.53c0,.81-.66,1.47-1.47,1.47-.56,0-1.07-.31-1.32-.81l-1.32-2.64c-.19-.38-.6-.6-1.02-.54l-30.93,3.99h-.94c-.55,0-1-.45-1-1V21h7c.55,0,1-.45,1-1s-.45-1-1-1h-11v-5c0-.55.45-1,1-1h5v2h-3c-.55,0-1,.45-1,1s.45,1,1,1h12c.55,0,1-.45,1-1s-.45-1-1-1h-3v-2h22v2h-3c-.55,0-1,.45-1,1s.45,1,1,1h12c.55,0,1-.45,1-1s-.45-1-1-1h-3v-2h5c.55,0,1,.45,1,1v5Z"/>
  <path d="M25,32c0,.552.448,1,1,1h4c.552,0,1-.448,1-1v-4c0-.552-.448-1-1-1h-4c-.552,0-1,.448-1,1v4ZM27,29h2v2h-2v-2Z"/>
  <path d="M34,33h4c.552,0,1-.448,1-1v-4c0-.552-.448-1-1-1h-4c-.552,0-1,.448-1,1v4c0,.552.448,1,1,1ZM35,29h2v2h-2v-2Z"/>
  <path d="M42,33h4c.552,0,1-.448,1-1v-4c0-.552-.448-1-1-1h-4c-.552,0-1,.448-1,1v4c0,.552.448,1,1,1ZM43,29h2v2h-2v-2Z"/>
  <path d="M18,41h4c.552,0,1-.448,1-1v-4c0-.552-.448-1-1-1h-4c-.552,0-1,.448-1,1v4c0,.552.448,1,1,1ZM19,37h2v2h-2v-2Z"/>
  <path d="M30,35h-4c-.552,0-1,.448-1,1v4c0,.552.448,1,1,1h4c.552,0,1-.448,1-1v-4c0-.552-.448-1-1-1ZM29,39h-2v-2h2v2Z"/>
  <path d="M34,41h4c.552,0,1-.448,1-1v-4c0-.552-.448-1-1-1h-4c-.552,0-1,.448-1,1v4c0,.552.448,1,1,1ZM35,37h2v2h-2v-2Z"/>
  <path d="M42,41h4c.552,0,1-.448,1-1v-4c0-.552-.448-1-1-1h-4c-.552,0-1,.448-1,1v4c0,.552.448,1,1,1ZM43,37h2v2h-2v-2Z"/>
  <path d="M18,49h4c.552,0,1-.448,1-1v-4c0-.552-.448-1-1-1h-4c-.552,0-1,.448-1,1v4c0,.552.448,1,1,1ZM19,45h2v2h-2v-2Z"/>
  <path d="M30,43h-4c-.552,0-1,.448-1,1v4c0,.552.448,1,1,1h4c.552,0,1-.448,1-1v-4c0-.552-.448-1-1-1ZM29,47h-2v-2h2v2Z"/>
  <path d="M34,49h4c.552,0,1-.448,1-1v-4c0-.552-.448-1-1-1h-4c-.552,0-1,.448-1,1v4c0,.552.448,1,1,1ZM35,45h2v2h-2v-2Z"/>
  <circle cx="24" cy="20" r="1"/>
</svg>