<?xml version="1.0" encoding="UTF-8"?>
<svg id="Outline" xmlns="http://www.w3.org/2000/svg" version="1.1" viewBox="0 0 64 64">
  <!-- Generator: Adobe Illustrator 29.5.1, SVG Export Plug-In . SVG Version: 2.1.0 Build 141)  -->
  <path d="M56.4,45.09c.37-.61.6-1.32.6-2.09,0-2.21-1.79-4-4-4-.93,0-1.81.33-2.51.89-.11-.08-.22-.18-.34-.25-.16-.67-.29-1.33-.41-1.96-.49-2.72-.74-5.49-.74-8.22v-7.46c0-1.65-1.35-3-3-3h-10.56c.35-.59.56-1.27.56-2,0-1.83-1.24-3.36-2.92-3.83.21-1.25.89-2.4,1.92-3.17l1.6-1.2c.44-.33.53-.96.2-1.4s-.96-.53-1.4-.2l-1.6,1.2c-.71.53-1.3,1.2-1.76,1.95-.25-.58-.6-1.15-1.09-1.64-1.85-1.86-4.87-1.72-5-1.7-.51.02-.92.43-.94.94-.01.13-.16,3.15,1.7,5,.7.7,1.55,1.1,2.36,1.35-.66.71-1.07,1.66-1.07,2.7,0,.73.21,1.41.56,2h-10.56c-1.65,0-3,1.35-3,3v7.46c0,5.31-.92,10.53-2.71,15.54h-4.29c-.32,0-.62.15-.81.42-.19.26-.24.59-.14.9l2,6c.14.4.52.68.95.68h7v3c0,.55.45,1,1,1h28c.55,0,1-.45,1-1v-3h7c.43,0,.81-.28.95-.68l2-6c.1-.31.05-.64-.14-.9-.11-.15-.25-.26-.41-.33ZM50,43c0,1.1-.9,2-2,2s-2-.9-2-2,.9-2,2-2,2,.9,2,2ZM32,15c1.1,0,2,.9,2,2s-.9,2-2,2-2-.9-2-2,.9-2,2-2ZM28.12,11.54c-.69-.7-.96-1.72-1.06-2.48.76.1,1.79.37,2.48,1.06.69.7.96,1.72,1.06,2.48-.76-.1-1.78-.37-2.48-1.06ZM17,22c0-.55.45-1,1-1h28c.55,0,1,.45,1,1v1h-11c-1.65,0-3,1.35-3,3v8c0,.55-.45,1-1,1s-1-.45-1-1v-3c0-1.65-1.35-3-3-3s-3,1.35-3,3v9c0,.55-.45,1-1,1s-1-.45-1-1v-14c0-1.65-1.35-3-3-3h-3v-1ZM17,29.46v-4.46h3c.55,0,1,.45,1,1v14c0,1.65,1.35,3,3,3s3-1.35,3-3v-9c0-.55.45-1,1-1s1,.45,1,1v3c0,1.65,1.35,3,3,3s3-1.35,3-3v-8c0-.55.45-1,1-1h11v4.46c0,2.85.26,5.74.78,8.58.05.31.12.64.18.96-2.18.02-3.96,1.81-3.96,4,0,.73.21,1.41.56,2H14.42c1.71-5.02,2.58-10.24,2.58-15.54ZM53.28,51h-23.28c-.55,0-1,.45-1,1s.45,1,1,1h15v2h-26v-2h3c.55,0,1-.45,1-1s-.45-1-1-1h-11.28l-1.33-4h45.22l-1.33,4ZM53,45c-.49,0-.95-.18-1.3-.48.19-.47.3-.98.3-1.52s-.11-1.05-.3-1.51c.36-.31.81-.49,1.3-.49,1.1,0,2,.9,2,2s-.9,2-2,2Z"/>
  <circle cx="26" cy="52" r="1"/>
</svg>