<?xml version="1.0" encoding="UTF-8"?>
<svg id="Outline" xmlns="http://www.w3.org/2000/svg" version="1.1" viewBox="0 0 64 64">
  <!-- Generator: Adobe Illustrator 29.5.1, SVG Export Plug-In . SVG Version: 2.1.0 Build 141)  -->
  <path d="M54,13h-1v-3c0-1.65-1.35-3-3-3H14c-1.65,0-3,1.35-3,3v3h-1c-1.65,0-3,1.35-3,3s1.35,3,3,3h.16l5.69,32.23c-1.09.45-1.85,1.52-1.85,2.77,0,1.65,1.35,3,3,3h30c1.65,0,3-1.35,3-3,0-1.25-.76-2.32-1.85-2.77l5.69-32.23h.16c1.65,0,3-1.35,3-3s-1.35-3-3-3ZM13,10c0-.55.45-1,1-1h36c.55,0,1,.45,1,1v3H13v-3ZM12.19,19h8.81v2.18c-1.16.42-2,1.52-2,2.82,0,.46.11.89.3,1.29l-5.1,5.1-2.01-11.39ZM21.29,24.7c-.18-.18-.29-.43-.29-.7,0-.55.45-1,1-1s1,.45,1,1c0,.27-.11.52-.29.7h-.01v.01c-.18.18-.43.29-.7.29s-.52-.11-.7-.29v-.01h-.01ZM14.62,32.76c.03-.02.06-.03.09-.05l6-6.01c.4.19.83.3,1.29.3s.89-.11,1.29-.3l5.71,5.71v18.59h-11.16l-3.22-18.24ZM41.29,24.7c-.18-.18-.29-.43-.29-.7,0-.55.45-1,1-1s1,.45,1,1c0,.27-.11.52-.29.7h-.01v.01c-.18.18-.43.29-.7.29s-.52-.11-.7-.29v-.01h-.01ZM41,21.18c-1.16.42-2,1.52-2,2.82,0,.46.11.89.3,1.29l-6.01,6c-.18.19-.29.44-.29.71v19h-2v-19c0-.27-.11-.52-.29-.71l-6.01-6c.19-.4.3-.83.3-1.29,0-1.3-.84-2.4-2-2.82v-2.18h18v2.18ZM47,55h-30c-.55,0-1-.45-1-1s.45-1,1-1h30c.55,0,1,.45,1,1s-.45,1-1,1ZM46.16,51h-11.16v-18.59l5.71-5.71c.4.19.83.3,1.29.3s.89-.11,1.29-.3l6,6.01c.03.02.06.03.09.05l-3.22,18.24ZM49.8,30.39l-5.1-5.1c.19-.4.3-.83.3-1.29,0-1.3-.84-2.4-2-2.82v-2.18h8.81l-2.01,11.39ZM54,17H10c-.55,0-1-.45-1-1s.45-1,1-1h44c.55,0,1,.45,1,1s-.45,1-1,1Z"/>
  <path d="M22,43c-1.654,0-3,1.346-3,3s1.346,3,3,3,3-1.346,3-3-1.346-3-3-3ZM22,47c-.552,0-1-.448-1-1s.448-1,1-1,1,.448,1,1-.448,1-1,1Z"/>
  <path d="M42,43c-1.654,0-3,1.346-3,3s1.346,3,3,3,3-1.346,3-3-1.346-3-3-3ZM42,47c-.552,0-1-.448-1-1s.448-1,1-1,1,.448,1,1-.448,1-1,1Z"/>
</svg>