<?xml version="1.0" encoding="UTF-8"?>
<svg id="Outline" xmlns="http://www.w3.org/2000/svg" version="1.1" viewBox="0 0 64 64">
  <!-- Generator: Adobe Illustrator 29.5.1, SVG Export Plug-In . SVG Version: 2.1.0 Build 141)  -->
  <path d="M23.111,13.97c1.75-.442,4.713-.97,8.889-.97s7.139.527,8.889.97c.082.02.165.03.246.03,1.133,0,1.353-1.688.244-1.97-1.86-.47-4.997-1.03-9.379-1.03s-7.519.561-9.379,1.03c-.535.136-.859.679-.725,1.215.136.536.68.859,1.215.725Z"/>
  <path d="M51.95,21.68l-2.99-8.95c-.39-3.76-8.71-5.73-16.96-5.73s-16.57,1.97-16.96,5.73l-2.99,8.95c-.05.16-.06.33-.04.49l4.99,28.92c.12,3.84,7.79,5.91,15,5.91s14.88-2.07,15-5.91l4.99-28.92c.02-.16.01-.33-.04-.49ZM32,9c9.16,0,15,2.37,15,4s-5.84,4-15,4-15-2.37-15-4,5.84-4,15-4ZM32,19.85l7.97,12.39-1.93,18.33c-1.78.27-3.81.43-6.04.43s-4.26-.16-6.04-.43l-1.93-18.33,7.97-12.39ZM23.2,29.85l-5.56-13.5c2.83,1.56,7.59,2.44,12.55,2.62l-6.99,10.88ZM33.81,18.97c4.7-.17,9.24-.97,12.11-2.38l-5.14,13.22-6.97-10.84ZM14.03,22.08l1.7-5.11,6.29,15.28,1.89,17.94c-2.69-.6-4.58-1.46-5.44-2.33l-4.44-25.78ZM45.01,50.83c-.01.06-.01.11-.01.17,0,1.63-5.06,4-13,4s-13-2.37-13-4c0-.06,0-.11-.01-.17l-.05-.24c2.89,1.49,7.69,2.41,13.06,2.41s10.17-.92,13.06-2.41l-.05.24ZM45.53,47.86c-.86.87-2.75,1.73-5.44,2.33l1.89-17.95,6.13-15.76,1.86,5.6-4.44,25.78Z"/>
</svg>