<?xml version="1.0" encoding="UTF-8"?>
<svg id="Outline" xmlns="http://www.w3.org/2000/svg" version="1.1" viewBox="0 0 64 64">
  <!-- Generator: Adobe Illustrator 29.5.1, SVG Export Plug-In . SVG Version: 2.1.0 Build 141)  -->
  <path d="M32,7c-8.398,0-16.183,4.179-20.824,11.178-.305.461-.179,1.081.281,1.386.461.308,1.081.18,1.386-.28.439-.662.915-1.289,1.412-1.894l.741,7.568-5.881,4.832c.115-1.199.311-2.381.611-3.526.14-.534-.18-1.08-.714-1.221-.537-.135-1.081.181-1.221.715-.526,2.009-.792,4.109-.792,6.243,0,13.785,11.215,25,25,25s25-11.215,25-25S45.785,7,32,7ZM14.255,46.617c-2.842-3.443-4.699-7.726-5.147-12.413l5.889,4.839-.742,7.574ZM48,33h5.208l-5.423,4.456-9.007-3.736c.14-.551.223-1.125.223-1.72,0-.598-.083-1.175-.225-1.729l9.01-3.727,5.423,4.456h-5.208c-.552,0-1,.447-1,1s.448,1,1,1ZM42.606,44.021l3.682,3.682-6.987-.685-3.727-9.011c1.001-.598,1.84-1.437,2.437-2.439l9.007,3.736.684,6.985-3.683-3.683c-.391-.391-1.023-.391-1.414,0s-.391,1.023,0,1.414ZM32,47c-.552,0-1,.447-1,1v5.208l-4.456-5.424,3.736-9.006c.551.14,1.126.223,1.72.223.598,0,1.175-.083,1.729-.225l3.727,9.009-4.455,5.423v-5.208c0-.553-.448-1-1-1ZM27,32c0-2.757,2.243-5,5-5s5,2.243,5,5-2.243,5-5,5-5-2.243-5-5ZM32,17c.552,0,1-.447,1-1v-5.208l4.456,5.424-3.736,9.006c-.551-.14-1.126-.223-1.72-.223-.598,0-1.175.083-1.729.225l-3.727-9.009,4.455-5.423v5.208c0,.553.448,1,1,1ZM42.606,21.394c.388.388,1.026.388,1.414,0l3.683-3.683-.685,6.986-9.012,3.728c-.598-1.001-1.437-1.84-2.44-2.437l3.736-9.007,6.985-.684-3.682,3.682c-.391.391-.391,1.023,0,1.414ZM39.042,14.998l-4.838-5.89c4.688.448,8.97,2.306,12.414,5.147l-7.575.743ZM24.958,14.998l-7.581-.743c3.504-2.895,7.813-4.697,12.413-5.138l-4.831,5.881ZM16.981,24.696l-.684-6.985,3.683,3.683c.369.369,1.016.398,1.414,0,.391-.391.391-1.023,0-1.414l-3.682-3.682,6.987.685,3.727,9.011c-1.001.598-1.84,1.437-2.437,2.439l-9.007-3.736ZM28.432,38.012l-3.736,9.007-6.985.684,3.682-3.682c.391-.391.391-1.023,0-1.414s-1.023-.391-1.414,0l-3.683,3.683.685-6.986,9.012-3.728c.598,1.001,1.437,1.84,2.44,2.437ZM24.958,49.002l4.838,5.89c-4.688-.448-8.97-2.306-12.414-5.147l7.575-.743ZM39.042,49.002l7.575.743c-3.444,2.842-7.726,4.699-12.414,5.147l4.838-5.89ZM49.003,39.043l5.889-4.839c-.448,4.687-2.306,8.97-5.147,12.413l-.742-7.574ZM49.003,24.957l.742-7.574c2.842,3.443,4.699,7.726,5.147,12.413l-5.889-4.839ZM16.216,26.544l9.007,3.736c-.14.551-.223,1.126-.223,1.72,0,.598.083,1.175.225,1.729l-9.01,3.727-5.423-4.456h5.208c.552,0,1-.447,1-1s-.448-1-1-1h-5.208l5.423-4.456Z"/>
  <path d="M31,22c0,.553.448,1,1,1s1-.447,1-1v-2c0-.553-.448-1-1-1s-1,.447-1,1v2Z"/>
  <path d="M25.636,24.222l-1.414-1.414c-.391-.391-1.023-.391-1.414,0s-.391,1.023,0,1.414c0,0,1.414,1.414,1.414,1.414.388.388,1.027.387,1.414,0,.391-.391.391-1.023,0-1.414Z"/>
  <path d="M20,33h2c.552,0,1-.447,1-1s-.448-1-1-1h-2c-.552,0-1,.447-1,1s.448,1,1,1Z"/>
  <path d="M23.515,41.483c.256,0,.513-.097.707-.291l1.414-1.414c.391-.391.391-1.023,0-1.414s-1.023-.391-1.414,0l-1.414,1.414c-.607.607-.15,1.705.707,1.705Z"/>
  <path d="M33,42c0-.553-.448-1-1-1s-1,.447-1,1v2c0,.553.448,1,1,1s1-.447,1-1v-2Z"/>
  <path d="M39.778,38.364c-.391-.391-1.023-.391-1.414,0s-.391,1.023,0,1.414c0,0,1.414,1.414,1.414,1.414.388.388,1.027.387,1.414,0,.391-.391.391-1.023,0-1.414l-1.414-1.414Z"/>
  <path d="M44,31h-2c-.552,0-1,.447-1,1s.448,1,1,1h2c.552,0,1-.447,1-1s-.448-1-1-1Z"/>
  <path d="M39.778,22.808l-1.414,1.414c-.617.617-.165,1.707.707,1.707.256,0,.512-.098.707-.293l1.414-1.414c.391-.391.391-1.023,0-1.414s-1.023-.391-1.414,0Z"/>
  <path d="M9.668,23.152c.505.225,1.096-.002,1.32-.507.225-.505-.002-1.096-.507-1.32-.505-.225-1.096.002-1.32.507-.225.505.002,1.096.507,1.32Z"/>
</svg>