<?xml version="1.0" encoding="UTF-8"?>
<svg id="Outline" xmlns="http://www.w3.org/2000/svg" version="1.1" viewBox="0 0 64 64">
  <!-- Generator: Adobe Illustrator 29.5.1, SVG Export Plug-In . SVG Version: 2.1.0 Build 141)  -->
  <path d="M56.735,21.323c-.282-.307-.723-.405-1.107-.251l-5.98,2.397-1.862-6.072c.733-.547,1.215-1.414,1.215-2.397,0-1.654-1.346-3-3-3s-3,1.346-3,3c0,.192.022.378.057.559l-5.949,3.469-1.844-3.271c1.055-.917,1.736-2.253,1.736-3.757,0-2.757-2.243-5-5-5s-5,2.243-5,5c0,1.504.682,2.839,1.736,3.757l-1.844,3.271-5.949-3.469c.034-.182.057-.368.057-.559,0-1.654-1.346-3-3-3s-3,1.346-3,3c0,.983.482,1.849,1.215,2.397l-1.862,6.072-5.98-2.397c-.386-.153-.825-.055-1.107.251-.281.305-.345.753-.159,1.125,0,0,7.999,15.998,8,16,.022.043.057.102.086.141,0,0,16,22,16,22,.188.258.488.412.809.412s.62-.153.809-.412c0,0,15.981-21.974,16-22,.03-.041.063-.096.086-.141l8-16c.186-.372.122-.819-.159-1.125ZM45.874,17.987l1.89,6.161c-3.59.963-7.44-.401-9.619-3.41l5.929-3.457c.492.416,1.113.677,1.8.706ZM46,14c.552,0,1,.449,1,1s-.448,1-1,1-1-.449-1-1,.448-1,1-1ZM32,9c1.654,0,3,1.346,3,3s-1.346,3-3,3-3-1.346-3-3,1.346-3,3-3ZM19.926,17.281l5.929,3.457c-2.18,3.009-6.032,4.371-9.619,3.409l1.89-6.16c.686-.029,1.308-.29,1.8-.706ZM18,14c.552,0,1,.449,1,1s-.448,1-1,1-1-.449-1-1,.448-1,1-1ZM33,39h6.739l-6.739,7.413v-7.413ZM28.804,37l3.196-5.114,3.196,5.114h-6.392ZM31,39v7.413l-6.739-7.413h6.739ZM21.557,39l9.443,10.387v7.538l-13.036-17.925h3.594ZM33,49.387l9.443-10.387h3.594l-13.036,17.925v-7.538ZM38.804,37l3.271-5.234,3.925,5.234h-7.196ZM37,36.113l-3.196-5.113h6.392l-3.196,5.113ZM27,36.113l-3.196-5.113h6.392l-3.196,5.113ZM21.925,31.766l3.271,5.234h-7.196l3.925-5.234ZM47.829,36.106l-5.029-6.706c-.188-.252-.485-.4-.8-.4h-20c-.314,0-.611.148-.8.4l-5.029,6.706-6.099-12.198,4.417,1.771c5.109,2.039,10.986-.038,13.672-4.828l2.318-4.113c.483.156.987.262,1.521.262s1.039-.106,1.521-.262l2.317,4.111c2.687,4.792,8.565,6.867,13.674,4.829l4.416-1.771-6.099,12.198Z"/>
  <path d="M32,21c-1.654,0-3,1.346-3,3s1.346,3,3,3,3-1.346,3-3-1.346-3-3-3ZM32,25c-.552,0-1-.449-1-1s.448-1,1-1,1,.449,1,1-.448,1-1,1Z"/>
</svg>