<?xml version="1.0" encoding="UTF-8"?>
<svg id="Outline" xmlns="http://www.w3.org/2000/svg" version="1.1" viewBox="0 0 64 64">
  <!-- Generator: Adobe Illustrator 29.3.1, SVG Export Plug-In . SVG Version: 2.1.0 Build 151)  -->
  <path d="M56,38.86126h-3v-11c0-1.65002-1.34998-3-3-3h-5.17999l-1.03003-7.45001c-.65997-4.83002-4.15997-8.72998-8.89996-9.91998-1.89001-.47003-3.89001-.47003-5.78003,0-4.73999,1.19-8.23999,5.08997-8.89996,9.91998l-1.03003,7.45001h-5.17999c-1.65002,0-3,1.34998-3,3v11h-3c-.54999,0-1,.45001-1,1v9c0,3.56,2.34003,6.58997,5.57001,7.62.41998.22998.90997.38,1.42999.38h36c.52002,0,1.01001-.15002,1.42999-.38,3.22998-1.03003,5.57001-4.06,5.57001-7.62v-9c0-.54999-.45001-1-1-1ZM11,53.32122c-1.21997-1.09998-2-2.69-2-4.45996v-8h2v12.45996ZM22.19,17.69122c.54999-4.02997,3.46002-7.26996,7.40002-8.25995,1.57996-.39001,3.23999-.39001,4.81995,0,3.94.98999,6.85004,4.22998,7.40002,8.25995l2.91998,21.17004h-2.01996l-2.88-20.90002c-.45001-3.20996-2.76001-5.79999-5.91003-6.58997-1.26001-.31-2.57996-.31-3.83997,0-3.15002.78998-5.46002,3.38-5.91003,6.58997l-2.88,20.90002h-2.01996l2.91998-21.17004ZM39.03998,26.86126l1.65002,12h-17.38l1.65002-12h14.07996ZM25.23999,24.86126l.91003-6.62c.32996-2.41003,2.06995-4.34003,4.40997-4.92999.94-.23004,1.94-.23004,2.88,0,2.34003.58997,4.08002,2.51996,4.40997,4.92999l.91003,6.62h-13.52002ZM15.17999,54.86126h-.17999c-.57001,0-1.10999-.09003-1.63-.23999-.21997-.18005-.37-.45001-.37-.76001v-26c0-.54999.45001-1,1-1h4.90997l-1.67999,12.10999c-1.27997.34003-2.22998,1.5-2.22998,2.89001v12c0,.34998.07001.69.17999,1ZM47,53.86126c0,.54999-.45001,1-1,1h-28c-.54999,0-1-.45001-1-1v-12c0-.54999.45001-1,1-1h28c.54999,0,1,.45001,1,1v12ZM51,53.86126c0,.31-.15002.57996-.37.76001-.52002.14996-1.06.23999-1.63.23999h-.17999c.10999-.31.17999-.65002.17999-1v-12c0-1.39001-.95001-2.54999-2.22998-2.89001l-1.67999-12.10999h4.90997c.54999,0,1,.45001,1,1v26ZM55,48.86126c0,1.76996-.78003,3.35999-2,4.45996v-12.45996h2v8Z"/>
  <path d="M44,42.86126h-24c-.55225,0-1,.44727-1,1v4c0,.55273.44775,1,1,1h18v2c0,.55273.44775,1,1,1s1-.44727,1-1v-2h4c.55225,0,1-.44727,1-1v-4c0-.55273-.44775-1-1-1ZM21,46.86126v-2h17v2h-17ZM43,46.86126h-3v-2h3v2Z"/>
</svg>