<?xml version="1.0" encoding="UTF-8"?>
<svg id="Outline" xmlns="http://www.w3.org/2000/svg" version="1.1" viewBox="0 0 48 48">
  <!-- Generator: Adobe Illustrator 29.5.1, SVG Export Plug-In . SVG Version: 2.1.0 Build 141)  -->
  <path d="M41.801,24.95l-.18-.4c-.65-1.54-1.94-2.72-3.52-3.25-.8-.26-1.61-.34-2.41-.27.21-.73.59-1.41,1.15-1.97l.35-.35c.39-.39.39-1.03,0-1.42l-3-3c-.2-.2-.49-.31-.78-.29-.14.01-.28.06-.41.13v-.13c0-1.65-1.35-3-3-3h-3.18c-.42-1.16-1.52-2-2.82-2h-2.18c.11-.31.18-.65.18-1,0-1.65-1.35-3-3-3s-3,1.35-3,3c0,.35.07.69.18,1h-2.18c-1.3,0-2.4.84-2.82,2h-3.18c-1.65,0-3,1.35-3,3v26c0,1.65,1.35,3,3,3h22c.05,0,.12,0,.2-.01.01,0,.02-.01.03-.01.79-.05,1.57-.3,2.25-.75.78.51,1.67.77,2.57.77,1.11,0,2.23-.4,3.12-1.22,4.66-4.26,6.11-11.03,3.63-16.83ZM33.281,16.94l.31-.42,1.49,1.49c-.89,1.04-1.41,2.31-1.54,3.66-.37.2-.73.42-1.06.7-.3-.25-.63-.47-.97-.65.12-1.72.73-3.4,1.77-4.78ZM19.001,7c.55,0,1,.45,1,1s-.45,1-1,1-1-.45-1-1,.45-1,1-1ZM14.001,11h10c.55,0,1,.45,1,1s-.45,1-1,1h-10c-.55,0-1-.45-1-1s.45-1,1-1ZM11.001,41v-23c0-.55-.45-1-1-1s-1,.45-1,1v23h-1c-.55,0-1-.45-1-1V14c0-.55.45-1,1-1h3.18c.42,1.16,1.52,2,2.82,2h10c1.3,0,2.4-.84,2.82-2h3.18c.55,0,1,.45,1,1v2.78c-.77,1.31-1.26,2.78-1.43,4.29-.19-.03-.38-.05-.57-.06v-3.01c0-.55-.45-1-1-1s-1,.45-1,1v3.27c-.04.01-.09.02-.13.03-1.58.53-2.87,1.71-3.53,3.25l-.17.4c-2.34,5.46-1.19,11.77,2.83,16.05h-15ZM36.821,40.31c-1.04.95-2.63.92-3.63-.08-.2-.19-.45-.29-.71-.29-.25,0-.51.1-.7.29-.5.5-1.15.76-1.8.77h-.02c-.65.01-1.3-.22-1.81-.69-4.03-3.69-5.3-9.55-3.14-14.58l.17-.4c.43-1.01,1.28-1.79,2.32-2.13.87-.29,1.78-.26,2.59.05.5.19.96.49,1.35.88l.34.33c.39.39,1.02.39,1.41,0l.34-.33c1.03-1.04,2.54-1.4,3.93-.93,1.05.35,1.89,1.12,2.33,2.13l.17.4c2.15,5.03.89,10.89-3.14,14.58Z"/>
  <path d="M14.001,23h4c.552,0,1-.448,1-1v-4c0-.552-.448-1-1-1h-4c-.552,0-1,.448-1,1v4c0,.552.448,1,1,1ZM15.001,19h2v2h-2v-2Z"/>
  <path d="M22.001,21h2c.552,0,1-.448,1-1s-.448-1-1-1h-2c-.552,0-1,.448-1,1s.448,1,1,1Z"/>
  <path d="M14.001,31h4c.552,0,1-.448,1-1v-4c0-.552-.448-1-1-1h-4c-.552,0-1,.448-1,1v4c0,.552.448,1,1,1ZM15.001,27h2v2h-2v-2Z"/>
  <path d="M14.001,39h4c.552,0,1-.448,1-1v-4c0-.552-.448-1-1-1h-4c-.552,0-1,.448-1,1v4c0,.552.448,1,1,1ZM15.001,35h2v2h-2v-2Z"/>
</svg>