<?xml version="1.0" encoding="UTF-8"?>
<svg id="Outline" xmlns="http://www.w3.org/2000/svg" version="1.1" viewBox="0 0 64 64">
  <!-- Generator: Adobe Illustrator 29.5.1, SVG Export Plug-In . SVG Version: 2.1.0 Build 141)  -->
  <path d="M40,30c.55,0,1-.45,1-1v-3c0-.22-.07-.43-.2-.61l-3.87-5.06c.04-.11.07-.21.07-.33v-10c0-1.65-1.35-3-3-3h-14c-.55,0-1,.45-1,1s.45,1,1,1h14c.55,0,1,.45,1,1v5H13v-5c0-.55.45-1,1-1h2c.55,0,1-.45,1-1s-.45-1-1-1h-2c-1.65,0-3,1.35-3,3v10c0,.12.03.22.07.33l-3.87,5.06c-.13.18-.2.39-.2.61v28c0,1.65,1.35,3,3,3h28c1.65,0,3-1.35,3-3v-21c0-.55-.45-1-1-1s-1,.45-1,1v11.17c-3.66,1.77-9.19,2.83-15,2.83s-11.34-1.06-15-2.83v-17.17h30v2c0,.55.45,1,1,1ZM24,49c5.74,0,11.09-.94,15-2.62v7.62c0,.55-.45,1-1,1H10c-.55,0-1-.45-1-1v-7.62c3.91,1.68,9.26,2.62,15,2.62ZM13,17h22v2H13v-2ZM10.02,25l3.05-4h21.86l3.05,4H10.02Z"/>
  <path d="M13.303,39.697c.374.397,1.022.391,1.404.01l2-2c.391-.391.391-1.023,0-1.414l-2-2c-.391-.391-1.023-.391-1.414,0s-.391,1.023,0,1.414l.293.293h-1.586c-.553,0-1,.447-1,1s.447,1,1,1h1.586l-.293.293c-.408.408-.339,1.034.01,1.404Z"/>
  <path d="M17,44.998c.283,0,.564-.119.76-.348.657-.766,1.192-1.596,1.622-2.461,1.504.508,3.06.779,4.618.779s3.115-.27,4.618-.779c.43.866.965,1.695,1.622,2.461.198.231.478.349.759.35.841,0,1.309-1.011.76-1.65-3.153-3.68-3.153-9.02,0-12.699.359-.419.311-1.051-.109-1.41-.418-.357-1.049-.312-1.41.109-2.684,3.131-3.462,7.26-2.354,10.979-2.534.836-5.238.836-7.773,0,1.108-3.718.33-7.847-2.354-10.979-.361-.421-.991-.467-1.41-.109-.42.359-.469.991-.109,1.41,3.153,3.679,3.153,9.019,0,12.699-.544.635-.07,1.651.759,1.649Z"/>
  <path d="M37,37c0-.553-.447-1-1-1h-1.586l.293-.293c.391-.391.391-1.023,0-1.414s-1.023-.391-1.414,0l-2,2c-.391.391-.391,1.023,0,1.414l2,2c.39.39,1.027.387,1.414,0,.391-.391.391-1.023,0-1.414l-.293-.293h1.586c.553,0,1-.447,1-1Z"/>
  <path d="M12,53h24c.553,0,1-.447,1-1s-.447-1-1-1H12c-.553,0-1,.447-1,1s.447,1,1,1Z"/>
  <path d="M56.828,49.464l-1.896-7.772c-.784-3.215-4.041-5.191-7.252-4.407-3.214.785-5.19,4.038-4.407,7.252l1.896,7.772c.668,2.738,3.128,4.579,5.829,4.579.469,0,.946-.056,1.422-.172,3.214-.785,5.19-4.038,4.407-7.252ZM48.156,39.228c.316-.077.635-.114.947-.114,1.802,0,3.441,1.227,3.887,3.053l.711,2.914-7.772,1.896-.711-2.915c-.522-2.142.796-4.311,2.938-4.834ZM51.947,54.772c-2.147.521-4.311-.796-4.833-2.938l-.711-2.914h0l7.772-1.896.711,2.915c.522,2.142-.796,4.311-2.938,4.834Z"/>
</svg>