<?xml version="1.0" encoding="UTF-8"?>
<svg id="Outline" xmlns="http://www.w3.org/2000/svg" version="1.1" viewBox="0 0 64 64">
  <!-- Generator: Adobe Illustrator 29.5.1, SVG Export Plug-In . SVG Version: 2.1.0 Build 141)  -->
  <path d="M54,10.999h-8.18c-.42-1.16-1.52-2-2.82-2h-1v-1c0-.55-.45-1-1-1s-1,.45-1,1v1h-7v-1c0-.55-.45-1-1-1s-1,.45-1,1v1h-7v-1c0-.55-.45-1-1-1s-1,.45-1,1v1h-1c-1.3,0-2.4.84-2.82,2h-8.18c-1.65,0-3,1.35-3,3v4c0,.55.45,1,1,1s1-.45,1-1v-4c0-.55.45-1,1-1h8v19c0,1.65,1.35,3,3,3h22c1.65,0,3-1.35,3-3V12.999h8c.55,0,1,.45,1,1v25H9v-13c0-.55-.45-1-1-1s-1,.45-1,1v16c0,1.65,1.35,3,3,3h16.38l.33.65c.66,1.33.72,2.89.18,4.26l-6.07,1.11c-.47.08-.82.5-.82.98v4c0,.28.12.55.33.74.2.19.48.28.76.26l10.91-1,10.91,1h.09c.25,0,.49-.09.67-.26.21-.19.33-.46.33-.74v-4c0-.48-.35-.9-.82-.98l-6.07-1.11c-.54-1.37-.48-2.93.18-4.26l.33-.65h16.38c1.65,0,3-1.35,3-3V13.999c0-1.65-1.35-3-3-3ZM44,31.999c0,.55-.45,1-1,1h-22c-.55,0-1-.45-1-1v-15h24v15ZM44,14.999h-24v-3c0-.55.45-1,1-1h1v1c0,.55.45,1,1,1s1-.45,1-1v-1h7v1c0,.55.45,1,1,1s1-.45,1-1v-1h7v1c0,.55.45,1,1,1s1-.45,1-1v-1h1c.55,0,1,.45,1,1v3ZM42,52.829v2.07l-9.91-.9h-.18l-9.91.9v-2.07l10-1.81,10,1.81ZM34.91,49.509l-2.73-.49c-.12-.03-.24-.03-.36,0l-2.73.49c.32-1.5.15-3.09-.49-4.51h6.8c-.64,1.42-.81,3.01-.49,4.51ZM55,41.999c0,.55-.45,1-1,1H10c-.55,0-1-.45-1-1v-1h46v1Z"/>
  <path d="M33,20.999h-2c-.553,0-1,.448-1,1s.447,1,1,1h1v5c0,.552.447,1,1,1s1-.448,1-1v-6c0-.552-.447-1-1-1Z"/>
  <circle cx="8" cy="21.999" r="1"/>
</svg>