<?xml version="1.0" encoding="UTF-8"?>
<svg id="Outline" xmlns="http://www.w3.org/2000/svg" version="1.1" viewBox="0 0 64 64">
  <!-- Generator: Adobe Illustrator 29.5.1, SVG Export Plug-In . SVG Version: 2.1.0 Build 141)  -->
  <path d="M54,17H10c-1.65,0-3,1.35-3,3v20c0,1.65,1.35,3,3,3h2v3c0,.55.45,1,1,1h6c.38,0,.72-.21.89-.55l1.73-3.45h20.76l1.73,3.45c.17.34.51.55.89.55h6c.55,0,1-.45,1-1v-3h2c1.65,0,3-1.35,3-3v-20c0-1.65-1.35-3-3-3ZM18.38,45h-4.38v-2h5.38l-1,2ZM50,45h-4.38l-1-2h5.38v2ZM55,40c0,.55-.45,1-1,1H10c-.55,0-1-.45-1-1v-5h46v5ZM55,33H9v-13c0-.55.45-1,1-1h44c.55,0,1,.45,1,1v13Z"/>
  <path d="M18,31c1.654,0,3-1.346,3-3v-4c0-1.654-1.346-3-3-3s-3,1.346-3,3v4c0,1.654,1.346,3,3,3ZM17,24c0-.551.448-1,1-1s1,.449,1,1v4c0,.551-.448,1-1,1s-1-.449-1-1v-4Z"/>
  <path d="M46,31c1.654,0,3-1.346,3-3v-4c0-1.654-1.346-3-3-3s-3,1.346-3,3v4c0,1.654,1.346,3,3,3ZM45,24c0-.551.448-1,1-1s1,.449,1,1v4c0,.551-.448,1-1,1s-1-.449-1-1v-4Z"/>
  <path d="M38,31c1.654,0,3-1.346,3-3v-4c0-1.654-1.346-3-3-3s-3,1.346-3,3v4c0,1.654,1.346,3,3,3ZM37,24c0-.551.448-1,1-1s1,.449,1,1v4c0,.551-.448,1-1,1s-1-.449-1-1v-4Z"/>
  <path d="M24,31h4c.553,0,1-.448,1-1s-.447-1-1-1h-3v-2h3c.553,0,1-.448,1-1v-4c0-.552-.447-1-1-1h-4c-.553,0-1,.448-1,1s.447,1,1,1h3v2h-3c-.553,0-1,.448-1,1v4c0,.552.447,1,1,1Z"/>
  <circle cx="32" cy="24" r="1"/>
  <circle cx="32" cy="28" r="1"/>
  <path d="M14,37h-2c-.553,0-1,.448-1,1s.447,1,1,1h2c.553,0,1-.448,1-1s-.447-1-1-1Z"/>
  <path d="M20,37h-2c-.553,0-1,.448-1,1s.447,1,1,1h2c.553,0,1-.448,1-1s-.447-1-1-1Z"/>
</svg>