<?xml version="1.0" encoding="UTF-8"?>
<svg id="Outline" xmlns="http://www.w3.org/2000/svg" version="1.1" viewBox="0 0 64 64">
  <!-- Generator: Adobe Illustrator 29.5.1, SVG Export Plug-In . SVG Version: 2.1.0 Build 141)  -->
  <path d="M18,35c-1.654,0-3,1.346-3,3v4c0,1.654,1.346,3,3,3s3-1.346,3-3v-4c0-1.654-1.346-3-3-3ZM19,42c0,.551-.448,1-1,1s-1-.449-1-1v-4c0-.551.448-1,1-1s1,.449,1,1v4Z"/>
  <path d="M26,35c-1.654,0-3,1.346-3,3v4c0,1.654,1.346,3,3,3s3-1.346,3-3v-4c0-1.654-1.346-3-3-3ZM27,42c0,.551-.448,1-1,1s-1-.449-1-1v-4c0-.551.448-1,1-1s1,.449,1,1v4Z"/>
  <path d="M46,35c-1.654,0-3,1.346-3,3v4c0,1.654,1.346,3,3,3s3-1.346,3-3v-4c0-1.654-1.346-3-3-3ZM47,42c0,.551-.448,1-1,1s-1-.449-1-1v-4c0-.551.448-1,1-1s1,.449,1,1v4Z"/>
  <path d="M38,35c-1.654,0-3,1.346-3,3v4c0,1.654,1.346,3,3,3s3-1.346,3-3v-4c0-1.654-1.346-3-3-3ZM39,42c0,.551-.448,1-1,1s-1-.449-1-1v-4c0-.551.448-1,1-1s1,.449,1,1v4Z"/>
  <circle cx="32" cy="38" r="1"/>
  <circle cx="32" cy="43" r="1"/>
  <path d="M11,32v16c0,.552.447,1,1,1h40c.553,0,1-.448,1-1v-16c0-.552-.447-1-1-1H12c-.553,0-1,.448-1,1ZM13,33h38v14H13v-14Z"/>
  <path d="M54,27h-31c-.55,0-1,.45-1,1s.45,1,1,1h31c.55,0,1,.45,1,1v20c0,.55-.45,1-1,1H10c-.55,0-1-.45-1-1v-20c0-.55.45-1,1-1h5c.55,0,1-.45,1-1s-.45-1-1-1h-5c-1.65,0-3,1.35-3,3v20c0,1.65,1.35,3,3,3h1v1c0,1.65,1.35,3,3,3h36c1.65,0,3-1.35,3-3v-1h1c1.65,0,3-1.35,3-3v-20c0-1.65-1.35-3-3-3ZM51,54c0,.55-.45,1-1,1H14c-.55,0-1-.45-1-1v-1h38v1Z"/>
  <path d="M52.083,11c.553,0,1-.448,1-1v-2c0-.552-.447-1-1-1s-1,.448-1,1v2c0,.552.447,1,1,1Z"/>
  <path d="M48.167,13h1.958c.553,0,1-.448,1-1s-.447-1-1-1h-1.958c-.553,0-1,.448-1,1s.447,1,1,1Z"/>
  <path d="M52.083,13c-.553,0-1,.448-1,1v2c0,.552.447,1,1,1s1-.448,1-1v-2c0-.552-.447-1-1-1Z"/>
  <path d="M54.042,13h1.958c.553,0,1-.448,1-1s-.447-1-1-1h-1.958c-.553,0-1,.448-1,1s.447,1,1,1Z"/>
  <path d="M12.917,11c.553,0,1-.448,1-1v-2c0-.552-.447-1-1-1s-1,.448-1,1v2c0,.552.447,1,1,1Z"/>
  <path d="M14.875,13h1.958c.553,0,1-.448,1-1s-.447-1-1-1h-1.958c-.553,0-1,.448-1,1s.447,1,1,1Z"/>
  <path d="M12.917,13c-.553,0-1,.448-1,1v2c0,.552.447,1,1,1s1-.448,1-1v-2c0-.552-.447-1-1-1Z"/>
  <path d="M9,13h1.958c.553,0,1-.448,1-1s-.447-1-1-1h-1.958c-.553,0-1,.448-1,1s.447,1,1,1Z"/>
  <path d="M45.87,21.586c-.143.533.174,1.082.707,1.224.528.142,1.083-.179,1.224-.708.44-1.646.09-3.436-.938-4.787-.656-.861-.88-2.004-.599-3.059.143-.534-.175-1.082-.708-1.224-.524-.139-1.081.174-1.224.708-.44,1.648-.089,3.437.938,4.786.656.862.879,2.005.598,3.059Z"/>
  <path d="M39.952,15.544c-1.019,1.357-1.357,3.149-.905,4.794.289,1.051.074,2.196-.576,3.062-.331.442-.242,1.069.199,1.4.438.328,1.072.239,1.4-.199,1.02-1.357,1.357-3.149.904-4.793-.288-1.052-.073-2.197.577-3.063.331-.441.242-1.068-.199-1.4-.443-.332-1.068-.242-1.4.2Z"/>
  <path d="M17.734,14.258c.281,1.055.058,2.198-.599,3.059-1.027,1.351-1.378,3.14-.938,4.786.119.447.523.742.965.742.647,0,1.134-.631.967-1.259-.281-1.053-.059-2.197.598-3.058,1.027-1.349,1.379-3.138.938-4.786-.143-.534-.695-.848-1.224-.708-.533.143-.851.69-.708,1.224Z"/>
  <path d="M23.025,19.807c-.453,1.645-.115,3.437.904,4.794.329.438.963.528,1.4.199.441-.332.53-.958.199-1.4-.65-.866-.865-2.01-.576-3.062.452-1.644.113-3.436-.905-4.793-.331-.441-.957-.531-1.4-.2-.441.332-.53.958-.199,1.4.65.866.865,2.011.577,3.062Z"/>
  <path d="M27,19.657v.343c0,.552.447,1,1,1s1-.448,1-1v-.343c0-3.916-1.524-7.596-4.293-10.364-.391-.391-1.023-.391-1.414,0s-.391,1.024,0,1.414c2.391,2.39,3.707,5.568,3.707,8.95Z"/>
  <path d="M35,20c0,.552.447,1,1,1s1-.448,1-1v-.343c0-3.381,1.316-6.56,3.707-8.95.391-.39.391-1.023,0-1.414s-1.023-.391-1.414,0c-2.769,2.768-4.293,6.448-4.293,10.364v.343Z"/>
  <path d="M27.758,9.171c2.091,2.091,3.242,4.871,3.242,7.829,0,.552.447,1,1,1s1-.448,1-1c0-2.958,1.151-5.738,3.242-7.828l.465-.464c.391-.39.391-1.023,0-1.414-.391-.392-1.023-.391-1.414,0l-.465.465c-1.227,1.227-2.18,2.655-2.828,4.209-.648-1.555-1.602-2.983-2.828-4.21l-.465-.464c-.391-.39-1.023-.391-1.414,0-.391.391-.391,1.024,0,1.414l.465.464Z"/>
  <circle cx="19" cy="28" r="1"/>
</svg>