<?xml version="1.0" encoding="UTF-8"?>
<svg id="Outline" xmlns="http://www.w3.org/2000/svg" version="1.1" viewBox="0 0 64 64">
  <!-- Generator: Adobe Illustrator 29.5.1, SVG Export Plug-In . SVG Version: 2.1.0 Build 141)  -->
  <path d="M54.74,26.399c.77-.73,1.26-1.76,1.26-2.9,0-.54-.11-1.06-.31-1.53.79-.55,1.31-1.45,1.31-2.47,0-1.65-1.35-3-3-3s-3,1.35-3,3c0,.05.02.09.02.14-1.73.44-3.02,2-3.02,3.86,0,1.12.47,2.13,1.21,2.86-.27.18-.52.38-.75.61-.94.95-1.46,2.21-1.46,3.53v1h-5c-1.65,0-3,1.35-3,3,0,.77.3,1.47.78,2h-8.78c-.55,0-1,.45-1,1s.45,1,1,1h12v2h-22v-2h6c.55,0,1-.45,1-1s-.45-1-1-1h-2.78c.48-.53.78-1.23.78-2,0-1.65-1.35-3-3-3h-5v-1c0-1.32-.52-2.58-1.47-3.54-.23-.23-.48-.43-.74-.6.75-.73,1.21-1.74,1.21-2.86,0-2.21-1.79-4-4-4s-4,1.79-4,4c0,1.14.49,2.17,1.26,2.9-.21.14-.41.29-.6.47-1.06,1-1.66,2.41-1.66,3.86v2.77c0,.55.45,1,1,1s1-.45,1-1v-2.77c0-.9.38-1.78,1.04-2.41.59-.57,1.33-.87,2.1-.82.74.03,1.45.35,1.98.87.57.58.88,1.33.88,2.13v2c0,.55.45,1,1,1h6c.55,0,1,.45,1,1s-.45,1-1,1h-7c-1.1,0-2-.9-2-2,0-.55-.45-1-1-1s-1,.45-1,1c0,2.21,1.79,4,4,4h3c.55,0,1,.45,1,1v9h-2v-6c0-.55-.45-1-1-1h-6c-.55,0-1-.45-1-1v-2c0-.55-.45-1-1-1s-1,.45-1,1v2c0,1.65,1.35,3,3,3v6c0,.55.45,1,1,1s1-.45,1-1v-6h3v6c0,.55.45,1,1,1h4c.55,0,1-.45,1-1v-6h10v6c0,.55.45,1,1,1s1-.45,1-1v-6h10v6c0,.55.45,1,1,1h4c.55,0,1-.45,1-1v-6h3v6c0,.55.45,1,1,1s1-.45,1-1v-6c1.65,0,3-1.35,3-3v-8.77c0-1.45-.6-2.85-1.66-3.86-.18-.18-.39-.32-.6-.47ZM12,25.499c-1.1,0-2-.9-2-2s.9-2,2-2,2,.9,2,2-.9,2-2,2ZM54,18.499c.55,0,1,.45,1,1,0,.37-.22.71-.53.88-.42-.34-.91-.59-1.45-.73-.01-.05-.02-.1-.02-.15,0-.55.45-1,1-1ZM52,21.499c1.1,0,2,.9,2,2s-.9,2-2,2-2-.9-2-2,.9-2,2-2ZM55,39.499c0,.55-.45,1-1,1h-6c-.55,0-1,.45-1,1v6h-2v-9c0-.55.45-1,1-1h3c2.21,0,4-1.79,4-4,0-.55-.45-1-1-1s-1,.45-1,1c0,1.1-.9,2-2,2h-7c-.55,0-1-.45-1-1s.45-1,1-1h6c.55,0,1-.45,1-1v-2c0-.8.31-1.55.87-2.12.54-.53,1.25-.84,1.99-.88.75-.04,1.51.26,2.1.82.66.63,1.04,1.51,1.04,2.41v8.77Z"/>
  <path d="M31.293,34.206c.195.195.451.293.707.293s.512-.098.707-.293l8.155-8.155c1.278-1.278,1.982-2.978,1.982-4.785s-.704-3.507-1.982-4.785c-2.414-2.415-6.213-2.62-8.862-.616-2.65-2.002-6.449-1.798-8.862.616-1.278,1.278-1.982,2.977-1.982,4.785s.704,3.507,1.982,4.785l8.155,8.155ZM24.552,17.895c.929-.929,2.15-1.394,3.371-1.394s2.441.465,3.371,1.394c.391.391,1.023.391,1.414,0,1.858-1.858,4.883-1.858,6.741,0,.9.9,1.396,2.098,1.396,3.371s-.496,2.471-1.396,3.371l-7.448,7.448-7.448-7.448c-.9-.9-1.396-2.098-1.396-3.371s.496-2.47,1.396-3.371Z"/>
</svg>