<?xml version="1.0" encoding="UTF-8"?>
<svg id="Outline" xmlns="http://www.w3.org/2000/svg" version="1.1" viewBox="0 0 64 64">
  <!-- Generator: Adobe Illustrator 29.3.1, SVG Export Plug-In . SVG Version: 2.1.0 Build 151)  -->
  <path d="M7.72021,15.96008l11.27979,3.28992v5.75012c0,3.28271,6.54004,5,13,5s13-1.71729,13-5v-5.75012l7-2.04163v3.79175h-1c-.55225,0-1,.44775-1,1v6c0,.55225.44775,1,1,1h4c.55225,0,1-.44775,1-1v-6c0-.55225-.44775-1-1-1h-1v-4.37512l2.27979-.66492c.42676-.12451.72021-.51562.72021-.95996s-.29346-.83545-.72021-.95996l-24-7c-.18262-.05371-.37695-.05371-.55957,0L7.72021,14.04016c-.42676.12451-.72021.51562-.72021.95996s.29346.83545.72021.95996ZM54,27.00012h-2v-4h2v4ZM43,22.21716c-2.42645-1.46033-6.72467-2.21704-11-2.21704s-8.57355.75671-11,2.21704v-4.21704c0-1.01807,3.88281-3,11-3s11,1.98193,11,3v4.21704ZM32,28.00012c-7.11719,0-11-1.98193-11-3s3.88281-3,11-3,11,1.98193,11,3-3.88281,3-11,3ZM32,9.04163l20.42871,5.9585-7.5788,2.21051c-.96326-2.76526-6.93231-4.21051-12.84991-4.21051s-11.88666,1.44525-12.84991,4.21051l-7.5788-2.21051,20.42871-5.9585Z"/>
  <path d="M51,30.00012c-.04102,0-.08252.00244-.12354.00781l-5.23047.6499c-1.95215.24414-3.87451.43066-5.71094.5542-3.96436.25781-7.96094.28564-11.88037.07959-1.25928-.06934-2.51904-.15869-3.77393-.26758,0,0-11.18994-1.02002-11.21033-1.01758-.02374-.00049-.04663-.00635-.07043-.00635-3.36426,0-6,4.83154-6,11s2.63574,11,6,11c.25996,0,.51173-.06349.76751-.09546l5.24225-.71411c1.02148-.14386,2.07227-.25745,3.12079-.36407,1.79218,3.64941,5.53674,6.17365,9.86945,6.17365,4.36853,0,8.13916-2.56616,9.91333-6.26459,2.93036.27521,5.92017.68976,8.90308,1.2475.06055.01123.12207.01709.18359.01709,3.36426,0,6-4.83154,6-11s-2.63574-11-6-11ZM34,33.42578v1.76544c-.6496-.12-1.31622-.1911-2-.1911s-1.3504.07111-2,.1911v-1.82538c1.3291.04272,2.66205.06903,4,.05994ZM39.02496,51.61102l-1.42657-1.42657c.87592-1.16888,1.40161-2.61456,1.40161-4.18433s-.5257-3.01544-1.40161-4.18433l1.42657-1.42657c1.23273,1.54028,1.97504,3.48932,1.97504,5.6109s-.74231,4.07062-1.97504,5.6109ZM24.97504,51.61102c-1.23273-1.54028-1.97504-3.48932-1.97504-5.6109s.74231-4.07062,1.97504-5.6109l1.42657,1.42657c-.87592,1.16888-1.40161,2.61456-1.40161,4.18433s.5257,3.01544,1.40161,4.18433l-1.42657,1.42657ZM27,46.00012c0-2.75684,2.24316-5,5-5s5,2.24316,5,5-2.24316,5-5,5-5-2.24316-5-5ZM36.18433,40.40173c-1.16888-.87592-2.61456-1.40161-4.18433-1.40161s-3.01544.5257-4.18433,1.40161l-1.42657-1.42657c1.54028-1.23273,3.48932-1.97504,5.6109-1.97504s4.07062.74231,5.6109,1.97504l-1.42657,1.42657ZM9,41.00012c0-5.28448,2.09253-8.97083,3.97931-8.9975l.1723.01569c1.72937.17719,3.58514,3.35468,3.82239,7.98181h-3.974c-.55225,0-1,.44775-1,1v8.66553c-1.56476-1.01428-3-4.28961-3-8.66553ZM14,49.66565v-7.66553h2.974c-.19855,3.87213-1.53094,6.7301-2.974,7.66553ZM18.73535,49.20959l-1.86487.25403c1.30853-2.00232,2.12952-5.02368,2.12952-8.4635,0-3.55383-.87787-6.6571-2.26294-8.65515l7.36694.67126c1.28027.11084,2.56055.20215,3.84375.27246.01733.00092.03491.00104.05225.00195v2.47345c-4.09106,1.60461-7,5.58276-7,10.23602,0,.99939.14569,1.96344.39661,2.8844-.89642.09674-1.78906.20209-2.66125.32507ZM26.3891,53.02509l1.42657-1.42657c1.16888.87592,2.61456,1.40161,4.18433,1.40161s3.01544-.5257,4.18433-1.40161l1.42657,1.42657c-1.54028,1.23273-3.48932,1.97504-5.6109,1.97504s-4.07062-.74231-5.6109-1.97504ZM51.08057,49.99768c-2.83026-.526-5.66595-.92371-8.45459-1.20093.23584-.89478.37402-1.8288.37402-2.79663,0-4.65326-2.90894-8.63141-7-10.23602v-2.38098c1.35687-.03534,2.71387-.08722,4.06738-.17548,1.87646-.12598,3.83691-.31641,5.82617-.56543l5.16016-.64111c1.87793.06934,3.94629,3.74561,3.94629,8.99902,0,5.22852-2.04883,8.89502-3.91943,8.99756Z"/>
  <path d="M49.98975,34.27551c-.4458.32568-.54346.95117-.21777,1.39746.4248.58154,1.22803,2.44385,1.22803,5.32715,0,2.80908-.75684,4.64941-1.20459,5.29395-.31444.45408-.20216,1.0771.25141,1.39205.45082.31304,1.08052.19721,1.39214-.25143.75439-1.08789,1.56104-3.34961,1.56104-6.43457,0-3.17188-.86865-5.48779-1.61279-6.50684-.32568-.44531-.9502-.54346-1.39746-.21777Z"/>
  <path d="M30.29297,47.70715c.19336.19336.44922.29297.70752.29297.19189,0,.38525-.05518.5542-.16797l3-2c.45947-.30615.5835-.92725.27734-1.38672-.30664-.45947-.92773-.58496-1.38672-.27734l-2.31787,1.54541-.42041-.42041c-.39062-.39062-1.02344-.39062-1.41406,0s-.39062,1.02344,0,1.41406l1,1Z"/>
</svg>