<?xml version="1.0" encoding="UTF-8"?>
<svg id="Outline" xmlns="http://www.w3.org/2000/svg" version="1.1" viewBox="0 0 64 64">
  <!-- Generator: Adobe Illustrator 29.5.1, SVG Export Plug-In . SVG Version: 2.1.0 Build 141)  -->
  <path d="M47.92,22.607c-.149-.349-.483-.584-.862-.606-.379-.016-.737.172-.926.502l-2.822,4.939-.146-.512c-.834-2.921-2.633-5.533-5.062-7.355-2.64-1.98-4.363-4.997-4.728-8.277l-.379-3.409c-.048-.434-.372-.787-.801-.871-.425-.083-.861.119-1.071.502l-1.211,2.221c-2.788,5.111-4.435,10.801-4.822,16.601-1.832-2.682-2.632-5.936-2.22-9.236l.123-.983c.055-.435-.18-.854-.58-1.035-.397-.182-.869-.081-1.16.246-5.322,5.987-8.252,13.696-8.252,21.706v.958c0,5.203,2.062,10.059,5.807,13.673,3.576,3.45,8.234,5.327,13.185,5.327.232,0,.466-.004.7-.012,10.095-.359,18.308-9.07,18.308-19.419,0-5.159-1.03-10.178-3.08-14.961ZM32.621,54.988c-4.656.177-9.075-1.522-12.424-4.754-3.351-3.234-5.196-7.579-5.196-12.234v-.958c0-6.458,2.029-12.707,5.766-17.903.083,3.956,1.674,7.715,4.527,10.568.286.286.715.371,1.09.217.374-.155.617-.52.617-.924,0-6.157,1.505-12.27,4.358-17.723l.027.242c.425,3.827,2.436,7.346,5.515,9.656,2.083,1.562,3.624,3.801,4.34,6.306l.798,2.794c.11.387.442.669.841.718.402.047.789-.147.988-.497l2.97-5.197c1.436,3.935,2.162,8.053,2.162,12.269,0,9.285-7.348,17.1-16.379,17.42Z"/>
  <path d="M32,31c-6.065,0-11,4.935-11,11s4.935,11,11,11,11-4.935,11-11-4.935-11-11-11ZM32,51c-4.962,0-9-4.038-9-9s4.038-9,9-9,9,4.038,9,9-4.038,9-9,9Z"/>
  <path d="M34.293,38.293l-6,6c-.391.391-.391,1.023,0,1.414.372.372,1.029.385,1.414,0l6-6c.391-.391.391-1.023,0-1.414s-1.023-.391-1.414,0Z"/>
  <circle cx="29" cy="39" r="1"/>
  <circle cx="35" cy="45" r="1"/>
</svg>