<?xml version="1.0" encoding="UTF-8"?>
<svg id="Outline" xmlns="http://www.w3.org/2000/svg" version="1.1" viewBox="0 0 48 48">
  <!-- Generator: Adobe Illustrator 29.5.1, SVG Export Plug-In . SVG Version: 2.1.0 Build 141)  -->
  <path d="M33,5h-6c-.552,0-1,.448-1,1,0,1.103-.897,2-2,2s-2-.897-2-2c0-.552-.448-1-1-1h-6c-1.654,0-3,1.346-3,3v32c0,1.654,1.346,3,3,3h6.003c.548,0,.995-.442,1-.99.011-1.092.907-1.98,1.997-1.98s1.986.889,1.997,1.98c.005.548.452.99,1,.99h6.003c1.654,0,3-1.346,3-3V8c0-1.654-1.346-3-3-3ZM33,41h-5.138c-.458-1.707-2.021-2.971-3.862-2.971s-3.405,1.264-3.862,2.971h-5.138c-.551,0-1-.449-1-1v-11h1c.552,0,1-.448,1-1s-.448-1-1-1h-1V8c0-.551.449-1,1-1h5.126c.445,1.723,2.013,3,3.874,3s3.428-1.277,3.874-3h5.126c.551,0,1,.449,1,1v19h-1c-.552,0-1,.448-1,1s.448,1,1,1h1v11c0,.551-.449,1-1,1Z"/>
  <path d="M20,17c1.654,0,3-1.346,3-3s-1.346-3-3-3-3,1.346-3,3,1.346,3,3,3ZM20,13c.551,0,1,.449,1,1s-.449,1-1,1-1-.449-1-1,.449-1,1-1Z"/>
  <path d="M28,19c-1.654,0-3,1.346-3,3s1.346,3,3,3,3-1.346,3-3-1.346-3-3-3ZM28,23c-.551,0-1-.449-1-1s.449-1,1-1,1,.449,1,1-.449,1-1,1Z"/>
  <path d="M19.293,22.708c.37.37,1.017.398,1.414,0l8-8c.391-.391.391-1.023,0-1.414s-1.023-.391-1.414,0l-8,8c-.391.391-.391,1.023,0,1.414Z"/>
  <path d="M29.4,27h-3.6c-.552,0-1,.448-1,1s.448,1,1,1h3.6c.552,0,1-.448,1-1s-.448-1-1-1Z"/>
  <path d="M18.6,27c-.552,0-1,.448-1,1s.448,1,1,1h3.6c.552,0,1-.448,1-1s-.448-1-1-1h-3.6Z"/>
  <path d="M25,31h-8c-.552,0-1,.448-1,1s.448,1,1,1h8c.552,0,1-.448,1-1s-.448-1-1-1Z"/>
  <path d="M21,35h-4c-.552,0-1,.448-1,1s.448,1,1,1h4c.552,0,1-.448,1-1s-.448-1-1-1Z"/>
</svg>