<?xml version="1.0" encoding="UTF-8"?>
<svg id="Outline" xmlns="http://www.w3.org/2000/svg" version="1.1" viewBox="0 0 64 64">
  <!-- Generator: Adobe Illustrator 29.3.1, SVG Export Plug-In . SVG Version: 2.1.0 Build 151)  -->
  <path d="M56,23h-5c-.55273,0-1-.44727-1-1s.44727-1,1-1h5c.55273,0,1,.44727,1,1s-.44727,1-1,1Z"/>
  <path d="M50.24219,16.75781c-.25586,0-.51172-.09766-.70703-.29297-.39062-.39062-.39062-1.02344,0-1.41406l3.53613-3.53613c.39062-.39062,1.02344-.39062,1.41406,0s.39062,1.02344,0,1.41406l-3.53613,3.53613c-.19531.19531-.45117.29297-.70703.29297Z"/>
  <g>
    <path d="M38.93066,23.44434c-.55273,0-1,.44727-1,1s.44727,1,1,1c2.03516,0,3.69043-1.67773,3.69043-3.74023s-1.65527-3.74121-3.69043-3.74121c-.55273,0-1,.44727-1,1s.44727,1,1,1c.93164,0,1.69043.78125,1.69043,1.74121s-.75879,1.74023-1.69043,1.74023Z"/>
    <path d="M55.9834,39.33398l-1.57031-1.75977c-.30078-.33789-.48047-.77051-.50586-1.2207l-.13477-2.35645c-.11523-2.0332-1.73633-3.6543-3.76953-3.76953l-2.35742-.13477c-.32739-.01849-.64502-.12091-.92413-.29053.39563-1.15234.72144-2.36859.92609-3.66553.08691-.5459-.28516-1.05762-.83105-1.14355-.54297-.08984-1.05762.28613-1.14355.83105-.14185.89673-.35193,1.7428-.59277,2.56165l-.41406-.36926c-1.52148-1.35547-3.8125-1.35547-5.33203,0l-1.76074,1.57031c-.33691.30078-.76953.48047-1.21973.50586l-.3028.01733c-.96674-2.32355-1.50092-5.27374-1.50092-8.40991,0-7.59668,2.96289-12.7002,5.73047-12.7002,2.44922,0,4.75293,3.84668,5.47852,9.14551.0752.54688.5791.92188,1.12695.85547.54688-.0752.92969-.58008.85547-1.12695-.89062-6.50391-3.88965-10.87402-7.46094-10.87402-1.24274,0-2.40369.54529-3.43414,1.49658l-5.66547,2.61475c-3.93555,1.81738-8.11426,2.73828-12.4209,2.73828-.00342,0-.00629.00189-.0097.00195h-4.02545c-2.05859,0-4.00098.81543-5.47852,2.30469-1.44824,1.49121-2.24609,3.46191-2.24609,5.54785,0,3.93585,2.86694,7.19543,6.58844,7.7569l2.79926,11.20892c.48926,1.96094,2.24316,3.33008,4.26367,3.33008,1.36328,0,2.62598-.61621,3.46484-1.69043.83887-1.0752,1.12988-2.44922.79883-3.77051l-2.17542-8.7016c2.77448.37598,5.47882,1.14471,8.08069,2.30511-.33502.54724-.5542,1.17389-.59277,1.85449l-.13477,2.35742c-.02539.44922-.20508.88184-.50488,1.21875l-1.57129,1.76074c-1.35547,1.52051-1.35547,3.81152,0,5.33203l1.57031,1.75977c.30078.33789.48047.77051.50586,1.2207l.13477,2.35645c.11523,2.0332,1.73633,3.6543,3.76953,3.76953l2.35742.13477c.44922.02539.88184.20508,1.21875.50488l1.76074,1.57129c.75977.67773,1.71289,1.0166,2.66602,1.0166s1.90625-.33887,2.66602-1.0166l1.75977-1.57031c.33789-.30078.77051-.48047,1.2207-.50586l2.35645-.13477c2.0332-.11523,3.6543-1.73633,3.76953-3.76953l.13477-2.35742c.02539-.44922.20508-.88184.50488-1.21875l1.57129-1.76074c1.35547-1.52051,1.35547-3.81152,0-5.33203ZM19.75977,15.83398c4.24512-.13184,8.36426-1.1084,12.25879-2.90625l2.53247-1.16901c-1.24481,2.6001-2.00122,6.06775-2.00122,9.94147,0,3.11395.49664,6.0824,1.4024,8.53412-.55231.0376-1.06824.1925-1.53595.43036l-.39771-.18323c-3.89648-1.79785-8.01562-2.77344-12.25879-2.90625v-11.74121ZM9,21.7041c0-1.5625.59668-3.03809,1.67383-4.14746,1.09082-1.09961,2.5293-1.70508,4.05078-1.70508h3.03418v11.7041h-3.03418c-3.15625,0-5.72461-2.625-5.72461-5.85156ZM22.97559,39.02441c.17969.71973.02148,1.46875-.43555,2.05371-.45703.58594-1.14551.92188-1.88867.92188-1.10156,0-2.05664-.74609-2.32324-1.81445l-2.65375-10.62988h3.06604c.00684.00012.01245.00391.01935.00391.625,0,1.24646.02521,1.86584.06396l2.34998,9.40088ZM54.49121,43.33398l-1.57227,1.76172c-.59961.67383-.95801,1.54004-1.00781,2.4375l-.13477,2.35645c-.05859,1.01758-.86914,1.82812-1.88672,1.88672l-2.35547.13477c-.89844.0498-1.76465.4082-2.43945,1.00879l-1.76074,1.57129c-.75977.67773-1.9082.67773-2.66797,0l-1.76172-1.57227c-.67383-.59961-1.54004-.95801-2.4375-1.00781l-2.35645-.13477c-1.01758-.05859-1.82812-.86914-1.88672-1.88672l-.13477-2.35547c-.0498-.89844-.4082-1.76465-1.00879-2.43945l-1.57129-1.76074c-.67871-.76074-.67871-1.90723,0-2.66797l1.57227-1.76172c.59961-.67383.95801-1.54004,1.00781-2.4375l.13477-2.35645c.05859-1.01758.86914-1.82812,1.88672-1.88672l1.2948-.0741c.00201,0,.00397.00085.00598.00085.00061,0,.00238-.00128.00299-.00134l1.0517-.06018c.89941-.0498,1.76562-.40918,2.43945-1.00977l1.76074-1.57031c.37988-.33887.85742-.50879,1.33398-.50879s.9541.16992,1.33398.50879l1.76074,1.57031c.67383.60059,1.54004.95996,2.43848,1.00977l2.35645.13477c1.01758.05859,1.82812.86914,1.88672,1.88672l.13477,2.35547c.0498.89844.4082,1.76465,1.00879,2.43945l1.57129,1.76074c.67871.76074.67871,1.90723,0,2.66797Z"/>
    <path d="M45.35156,33.06348c-.51758-.19141-1.09375.06738-1.28809.58496l-6,16c-.19336.51758.06836,1.09375.58496,1.28809.11621.04297.23438.06348.35156.06348.4043,0,.78613-.24707.93652-.64844l6-16c.19336-.51758-.06836-1.09375-.58496-1.28809Z"/>
    <path d="M41,37c0-1.6543-1.3457-3-3-3s-3,1.3457-3,3,1.3457,3,3,3,3-1.3457,3-3ZM38,38c-.55176,0-1-.44824-1-1s.44824-1,1-1,1,.44824,1,1-.44824,1-1,1Z"/>
    <path d="M46,44c-1.6543,0-3,1.3457-3,3s1.3457,3,3,3,3-1.3457,3-3-1.3457-3-3-3ZM46,48c-.55176,0-1-.44824-1-1s.44824-1,1-1,1,.44824,1,1-.44824,1-1,1Z"/>
    <circle cx="47" cy="22" r="1"/>
  </g>
</svg>