<?xml version="1.0" encoding="UTF-8"?>
<svg id="Outline" xmlns="http://www.w3.org/2000/svg" version="1.1" viewBox="0 0 64 64">
  <!-- Generator: Adobe Illustrator 29.5.1, SVG Export Plug-In . SVG Version: 2.1.0 Build 141)  -->
  <path d="M46.52,25.76c-.35-.42-.99-.47-1.41-.11-.42.35-.47.98-.11,1.41,1.56,1.84,2.69,4,3.35,6.31-1.92-1.54-4.76-2.76-8.2-3.52-.76-3.44-1.98-6.29-3.52-8.2,2.01.57,3.92,1.5,5.63,2.8.44.33,1.06.24,1.4-.2.33-.44.24-1.06-.2-1.4-3.05-2.31-6.65-3.61-10.46-3.81v-2.04h2c.38,0,.73-.21.89-.55l1.73-3.45h4.38c.38,0,.73-.21.89-.55l2-4c.16-.31.14-.68-.04-.98-.18-.29-.5-.47-.85-.47h-15c-.55,0-1,.45-1,1s.45,1,1,1h13.38l-1,2h-18.76l-1-2h3.38c.55,0,1-.45,1-1s-.45-1-1-1h-5c-.35,0-.67.18-.85.47-.18.3-.2.67-.04.98l2,4c.16.34.51.55.89.55h4.38l1.73,3.45c.16.34.51.55.89.55h2v2.05c-10.01.53-18,8.81-18,18.95,0,10.48,8.52,19,19,19s19-8.52,19-19c0-4.48-1.59-8.83-4.48-12.24ZM27.36,21.66c-1.53,1.91-2.75,4.75-3.51,8.19-3.44.76-6.28,1.98-8.19,3.51,1.6-5.65,6.05-10.1,11.7-11.7ZM23.45,31.97c-.24,1.59-.39,3.27-.43,5.03h-7.81c.77-1.98,3.74-3.92,8.24-5.03ZM23.02,39c.04,1.76.19,3.44.43,5.03-4.5-1.11-7.47-3.05-8.24-5.03h7.81ZM15.66,42.64c1.91,1.53,4.75,2.75,8.19,3.51.76,3.44,1.98,6.28,3.51,8.19-5.65-1.6-10.1-6.05-11.7-11.7ZM31,54.79c-1.98-.77-3.92-3.74-5.03-8.24,1.59.24,3.27.39,5.03.43v7.81ZM31,44.98c-1.96-.05-3.79-.23-5.46-.52-.29-1.67-.47-3.5-.52-5.46h5.98v5.98ZM31,37h-5.98c.05-1.96.23-3.79.52-5.46,1.67-.29,3.5-.47,5.46-.52v5.98ZM31,29.02c-1.76.04-3.44.19-5.03.43,1.11-4.5,3.05-7.47,5.03-8.24v7.81ZM48.79,37h-7.81c-.04-1.76-.19-3.44-.43-5.03,4.5,1.11,7.47,3.05,8.24,5.03ZM38.98,37h-5.98v-5.98c1.96.05,3.79.23,5.46.52.29,1.67.47,3.5.52,5.46ZM38.98,39c-.05,1.96-.23,3.79-.52,5.46-1.67.29-3.5.47-5.46.52v-5.98h5.98ZM38.03,29.45c-1.59-.24-3.27-.39-5.03-.43v-7.81c1.98.77,3.92,3.74,5.03,8.24ZM29.62,15l-1-2h6.76l-1,2h-4.76ZM33,54.79v-7.81c1.76-.04,3.44-.19,5.03-.43-1.11,4.5-3.05,7.47-5.03,8.24ZM36.64,54.34c1.53-1.91,2.75-4.75,3.51-8.19,3.44-.76,6.28-1.98,8.19-3.51-1.6,5.65-6.05,10.1-11.7,11.7ZM40.55,44.03c.24-1.59.39-3.27.43-5.03h7.81c-.77,1.98-3.74,3.92-8.24,5.03Z"/>
  <path d="M41.876,16.008c-.5.062-.876.488-.876.992s.375.93.876.992c1.639.205,2.927,1.493,3.132,3.132.062.5.488.876.992.876s.93-.376.992-.876c.205-1.639,1.493-2.927,3.132-3.132.5-.062.876-.488.876-.992s-.375-.93-.876-.992c-1.639-.205-2.927-1.493-3.132-3.132-.062-.5-.488-.876-.992-.876s-.93.376-.992.876c-.205,1.639-1.493,2.927-3.132,3.132ZM46,15.678c.364.512.811.959,1.323,1.322-.512.363-.959.811-1.323,1.322-.364-.512-.811-.959-1.323-1.322.512-.363.959-.811,1.323-1.322Z"/>
  <path d="M56.124,51.008c-1.639-.205-2.927-1.493-3.132-3.132-.062-.5-.488-.876-.992-.876s-.93.376-.992.876c-.205,1.639-1.493,2.927-3.132,3.132-.5.062-.876.488-.876.992s.375.93.876.992c1.639.205,2.927,1.493,3.132,3.132.062.5.488.876.992.876s.93-.376.992-.876c.205-1.639,1.493-2.927,3.132-3.132.5-.062.876-.488.876-.992s-.375-.93-.876-.992ZM52,53.322c-.364-.512-.811-.959-1.323-1.322.512-.363.959-.811,1.323-1.322.364.512.811.959,1.323,1.322-.512.363-.959.811-1.323,1.322Z"/>
  <path d="M14.098,17.992c1.639.205,2.927,1.493,3.132,3.132.062.5.488.876.992.876s.93-.376.992-.876c.205-1.639,1.493-2.927,3.132-3.132.5-.062.876-.488.876-.992s-.375-.93-.876-.992c-1.639-.205-2.927-1.493-3.132-3.132-.062-.5-.488-.876-.992-.876s-.93.376-.992.876c-.205,1.639-1.493,2.927-3.132,3.132-.5.062-.876.488-.876.992s.375.93.876.992ZM18.222,15.678c.364.512.811.959,1.323,1.322-.512.363-.959.811-1.323,1.322-.364-.512-.811-.959-1.323-1.322.512-.363.959-.811,1.323-1.322Z"/>
  <path d="M16.124,24.992c.5-.062.876-.488.876-.992s-.375-.93-.876-.992c-1.639-.205-2.927-1.493-3.132-3.132-.062-.5-.488-.876-.992-.876s-.93.376-.992.876c-.205,1.639-1.493,2.927-3.132,3.132-.5.062-.876.488-.876.992s.375.93.876.992c1.639.205,2.927,1.493,3.132,3.132.062.5.488.876.992.876s.93-.376.992-.876c.205-1.639,1.493-2.927,3.132-3.132ZM12,25.322c-.364-.512-.811-.959-1.323-1.322.512-.363.959-.811,1.323-1.322.364.512.811.959,1.323,1.322-.512.363-.959.811-1.323,1.322Z"/>
</svg>