<?xml version="1.0" encoding="UTF-8"?>
<svg id="Outline" xmlns="http://www.w3.org/2000/svg" version="1.1" viewBox="0 0 48 48">
  <!-- Generator: Adobe Illustrator 29.5.1, SVG Export Plug-In . SVG Version: 2.1.0 Build 141)  -->
  <path d="M16,35h13c.46,0,.86-.31.97-.76l2-8c.07-.3.01-.61-.18-.86-.19-.24-.48-.38-.79-.38h-15.22l-.81-3.24c-.11-.45-.51-.76-.97-.76h-3c-.55,0-1,.45-1,1s.45,1,1,1h2.22l.5,2h-.72c-.31,0-.6.14-.79.38-.19.25-.25.56-.18.86l1.9,7.6c-.57.55-.93,1.31-.93,2.16,0,1.38.95,2.54,2.22,2.88-.14.35-.22.73-.22,1.12,0,1.65,1.35,3,3,3s3-1.35,3-3c0-.35-.07-.69-.18-1h4.36c-.11.31-.18.65-.18,1,0,1.65,1.35,3,3,3s3-1.35,3-3-1.35-3-3-3h-12c-.55,0-1-.45-1-1s.45-1,1-1ZM28,39c.55,0,1,.45,1,1s-.45,1-1,1-1-.45-1-1,.45-1,1-1ZM18,39c.55,0,1,.45,1,1s-.45,1-1,1-1-.45-1-1,.45-1,1-1ZM14.28,27h15.44l-1.5,6h-12.44l-1.5-6Z"/>
  <path d="M35,5h-12c-1.654,0-3,1.346-3,3v12c0,1.654,1.346,3,3,3h12c1.654,0,3-1.346,3-3v-12c0-1.654-1.346-3-3-3ZM36,20c0,.551-.448,1-1,1h-12c-.552,0-1-.449-1-1v-12c0-.551.448-1,1-1h12c.552,0,1,.449,1,1v12Z"/>
  <path d="M31.293,10.293l-6,6c-.391.391-.391,1.023,0,1.414.367.367,1.024.39,1.414,0l6-6c.391-.391.391-1.023,0-1.414s-1.023-.391-1.414,0Z"/>
  <circle cx="26.014" cy="11.014" r="1"/>
  <circle cx="31.986" cy="16.986" r="1"/>
</svg>