<?xml version="1.0" encoding="UTF-8"?>
<svg id="Outlie" xmlns="http://www.w3.org/2000/svg" version="1.1" viewBox="0 0 64 64">
  <!-- Generator: Adobe Illustrator 29.3.1, SVG Export Plug-In . SVG Version: 2.1.0 Build 151)  -->
  <path d="M31,38.5c1.6543,0,3-1.3457,3-3s-1.3457-3-3-3-3,1.3457-3,3,1.3457,3,3,3ZM31,34.5c.55176,0,1,.44873,1,1s-.44824,1-1,1-1-.44873-1-1,.44824-1,1-1Z"/>
  <path d="M39,40.5c-1.6543,0-3,1.3457-3,3s1.3457,3,3,3,3-1.3457,3-3-1.3457-3-3-3ZM39,44.5c-.55176,0-1-.44873-1-1s.44824-1,1-1,1,.44873,1,1-.44824,1-1,1Z"/>
  <path d="M28.29297,44.79297c-.39061.39061-.39062,1.02338-.00005,1.41401.36521.36526,1.01371.40044,1.41411.00005l12-12c.39062-.39062.39062-1.02344,0-1.41406s-1.02344-.39062-1.41406,0l-12,12Z"/>
  <path d="M32,7.5c-12.67999,0-23,10.32001-23,23,0,6.20996,2.54999,12.20001,7,16.51996v6.48004c0,1.64996,1.34998,3,3,3h20c1.65002,0,3-1.35004,3-3v-1h3c1.65002,0,3-1.35004,3-3v-2.48004c4.45001-4.31995,7-10.31,7-16.51996,0-12.67999-10.32001-23-23-23ZM35,21.5c.54999,0,1,.45001,1,1s-.45001,1-1,1-1-.45001-1-1,.45001-1,1-1ZM16.28998,25.78998c-.17999.19-.28998.44-.28998.71002v17.59998c-3.20001-3.77997-5-8.60999-5-13.59998,0-11.58002,9.41998-21,21-21,.67999,0,1.34003.03998,2,.09998v5.90002h-5c-.27002,0-.52002.10999-.71002.28998l-3.69995,3.71002h-1.59003c-.27002,0-.52002.10999-.71002.28998l-6,6ZM40,53.5c0,.54999-.45001,1-1,1h-20c-.54999,0-1-.45001-1-1v-26.59003l4-4v26.59003c0,1.64996,1.34998,3,3,3h15v1ZM46,49.5c0,.54999-.45001,1-1,1h-20c-.54999,0-1-.45001-1-1v-26.59003l1.71002-1.70001,3.69995-3.70996h4.59003v2.17999c-1.15997.41998-2,1.52002-2,2.82001,0,1.64996,1.34998,3,3,3s3-1.35004,3-3c0-1.29999-.84003-2.40002-2-2.82001v-2.17999h4.59003l5.40997,5.40997v26.59003ZM47.71002,21.78998l-6-6c-.19-.17999-.44-.28998-.71002-.28998h-5v-5.60999c9.66998,1.87994,17,10.39996,17,20.60999,0,4.98999-1.79999,9.82001-5,13.59998v-21.59998c0-.27002-.10999-.52002-.28998-.71002Z"/>
</svg>