<?xml version="1.0" encoding="UTF-8"?>
<svg id="Outline" xmlns="http://www.w3.org/2000/svg" version="1.1" viewBox="0 0 64 64">
  <!-- Generator: Adobe Illustrator 29.3.1, SVG Export Plug-In . SVG Version: 2.1.0 Build 151)  -->
  <path d="M56,27c.54999,0,1-.45001,1-1V10c0-1.65002-1.34998-3-3-3H10c-1.65002,0-3,1.34998-3,3v44c0,1.64996,1.34998,3,3,3h44c1.65002,0,3-1.35004,3-3v-20c0-.54999-.45001-1-1-1s-1,.45001-1,1v20c0,.54999-.45001,1-1,1H10c-.54999,0-1-.45001-1-1V21h46v5c0,.54999.45001,1,1,1ZM9,19v-9c0-.54999.45001-1,1-1h44c.54999,0,1,.45001,1,1v9H9Z"/>
  <path d="M18,11h-6c-.55273,0-1,.44775-1,1v4c0,.55225.44727,1,1,1h6c.55273,0,1-.44775,1-1v-4c0-.55225-.44727-1-1-1ZM17,15h-4v-2h4v2Z"/>
  <path d="M50,11h-26c-1.6543,0-3,1.3457-3,3s1.3457,3,3,3h26c1.6543,0,3-1.3457,3-3s-1.3457-3-3-3ZM24,15c-.55176,0-1-.44873-1-1s.44824-1,1-1h3v2h-3ZM29,15v-2h6v2h-6ZM50,15h-13v-2h13c.55176,0,1,.44873,1,1s-.44824,1-1,1Z"/>
  <path d="M12,23c-.55273,0-1,.44775-1,1v28c0,.55225.44727,1,1,1h40c.55273,0,1-.44775,1-1v-28c0-.55225-.44727-1-1-1H12ZM51,25v2.53375c-.84064.71484-1.88409,1.12299-3,1.12299-1.24414,0-2.41309-.48438-3.29297-1.36377-.39062-.39062-1.02344-.39062-1.41406,0-.87988.87939-2.04883,1.36377-3.29297,1.36377s-2.41309-.48438-3.29297-1.36377c-.39062-.39062-1.02344-.39062-1.41406,0-1.81641,1.81543-4.76953,1.81543-6.58594,0-.39062-.39062-1.02344-.39062-1.41406,0-.87988.87939-2.04883,1.36377-3.29297,1.36377s-2.41309-.48438-3.29297-1.36377c-.39062-.39062-1.02344-.39062-1.41406,0-.87988.87939-2.04883,1.36377-3.29297,1.36377-1.11591,0-2.15936-.40814-3-1.12299v-2.53375h38ZM17,43c0-4.41113,3.58887-8,8-8s8,3.58887,8,8-3.58887,8-8,8-8-3.58887-8-8ZM39,51c-2.17798,0-4.21655-.875-5.7088-2.41516.39673-.58716.72583-1.22192.99225-1.88843,1.09937,1.39972,2.80261,2.30359,4.71655,2.30359,3.30859,0,6-2.69141,6-6s-2.69141-6-6-6c-1.91394,0-3.61719.90387-4.71655,2.30359-.26642-.6665-.59552-1.30127-.99225-1.88843,1.49225-1.54016,3.53082-2.41516,5.7088-2.41516,4.41113,0,8,3.58887,8,8s-3.58887,8-8,8ZM35,43c0-2.20557,1.79395-4,4-4s4,1.79443,4,4-1.79395,4-4,4-4-1.79443-4-4ZM30.97443,51c.35962-.26929.70496-.55603,1.02496-.87018.32025.31702.66449.60223,1.02045.87018h-2.04541ZM44.97443,51c2.43787-1.82538,4.02557-4.72705,4.02557-8,0-5.51416-4.48633-10-10-10-2.65332,0-5.14624,1.03455-7.00061,2.87018-1.80536-1.77258-4.27563-2.87018-6.99939-2.87018-5.51367,0-10,4.48584-10,10,0,3.27295,1.58771,6.17462,4.02557,8h-6.02557v-21.0813c2.22906,1.12689,4.95648.94147,7-.59692,2.35938,1.77539,5.64062,1.77539,8,0,2.35938,1.77539,5.64062,1.77539,8,0,2.35938,1.77539,5.64062,1.77539,8,0,1.17969.8877,2.58984,1.33203,4,1.33203,1.0307,0,2.05957-.24127,3-.71552v21.06171h-6.02557Z"/>
  <path d="M25,37c-3.30859,0-6,2.69141-6,6s2.69141,6,6,6,6-2.69141,6-6-2.69141-6-6-6ZM25,47c-2.20605,0-4-1.79443-4-4s1.79395-4,4-4,4,1.79443,4,4-1.79395,4-4,4Z"/>
  <circle cx="56" cy="30" r="1"/>
</svg>