<?xml version="1.0" encoding="UTF-8"?>
<svg id="Outline" xmlns="http://www.w3.org/2000/svg" version="1.1" viewBox="0 0 48 48">
  <!-- Generator: Adobe Illustrator 29.5.1, SVG Export Plug-In . SVG Version: 2.1.0 Build 141)  -->
  <path d="M40,7H8c-1.65,0-3,1.35-3,3v24c0,1.65,1.35,3,3,3v3c0,.55.45,1,1,1h6c.38,0,.72-.21.89-.55l1.73-3.45h12.76l1.73,3.45c.17.34.51.55.89.55h6c.55,0,1-.45,1-1v-3c1.65,0,3-1.35,3-3V10c0-1.65-1.35-3-3-3ZM14.38,39h-4.38v-2h5.38l-1,2ZM38,39h-4.38l-1-2h5.38v2ZM41,34c0,.55-.45,1-1,1H8c-.55,0-1-.45-1-1V10c0-.55.45-1,1-1h32c.55,0,1,.45,1,1v24Z"/>
  <path d="M38,11H10c-.55,0-1,.45-1,1v20c0,.55.45,1,1,1h28c.55,0,1-.45,1-1V12c0-.55-.45-1-1-1ZM32,30c0,.55-.45,1-1,1h-14c-.55,0-1-.45-1-1v-1h16v1ZM32,26c0,.55-.45,1-1,1h-14c-.55,0-1-.45-1-1v-1h16v1ZM32,22c0,.55-.45,1-1,1h-14c-.55,0-1-.45-1-1v-1h16v1ZM37,31h-3.18c.11-.31.18-.65.18-1v-2c0-.28-.12-.53-.3-.71.19-.39.3-.83.3-1.29v-2c0-.28-.12-.53-.3-.71.19-.39.3-.83.3-1.29v-2c0-.55-.45-1-1-1H15c-.55,0-1,.45-1,1v2c0,.46.11.9.3,1.29-.18.18-.3.43-.3.71v2c0,.46.11.9.3,1.29-.18.18-.3.43-.3.71v2c0,.35.07.69.18,1h-3.18V13h26v18Z"/>
</svg>