<?xml version="1.0" encoding="UTF-8"?>
<svg id="Outline" xmlns="http://www.w3.org/2000/svg" version="1.1" viewBox="0 0 64 64">
  <!-- Generator: Adobe Illustrator 29.5.1, SVG Export Plug-In . SVG Version: 2.1.0 Build 141)  -->
  <path d="M54.385,51.77l-2.68-.39,3.63-1.45c.31-.13.54-.4.61-.73.07-.33-.04-.67-.27-.91-1.1-1.1-1.71-2.56-1.71-4.12v-.96c.1-.08.2-.17.29-.27.57-.67.81-1.56.67-2.44-.11-.68-.48-1.28-.99-1.73.02-.25.03-.51.03-.77,0-1.81-.53-3.55-1.54-5.03-.32-.45-.94-.57-1.4-.26-.45.32-.57.94-.26,1.4.79,1.14,1.2,2.48,1.2,3.89v.01c-.04,0-.07-.01-.11-.01h-3.28c-1.93,0-3.71-.96-4.78-2.55-.37-.56-1.29-.56-1.66,0l-.4.59c-.82,1.23-2.19,1.96-3.66,1.96-.04,0-.07.01-.11.01v-.01c0-3.86,3.14-7,7-7,1.11,0,2.18.26,3.17.77.5.25,1.1.06,1.35-.43s.06-1.1-.43-1.35c-1.28-.66-2.66-.99-4.09-.99-1.27,0-2.48.27-3.58.75l-3.82-.54c-.41-.06-.75-.37-.83-.79l-.14-.63c.45.13.9.21,1.37.21,2.76,0,5-2.24,5-5,0-1.14-.39-2.2-1.09-3.07.15-.46.2-.94.12-1.43-.11-.68-.48-1.29-.99-1.73.02-.25.03-.51.03-.77,0-1.83-.54-3.59-1.57-5.08-.31-.45-.93-.57-1.39-.25-.45.31-.57.93-.25,1.39.79,1.15,1.21,2.52,1.21,3.94v.01c-.04,0-.07-.01-.1-.01-1.48,0-2.85-.73-3.67-1.96l-.39-.59c-.19-.28-.5-.45-.84-.45-.33,0-.64.17-.83.45-1.06,1.59-2.85,2.55-4.77,2.55h-3.29c-.04,0-.07.01-.11.01v-.01c0-3.86,3.14-7,7-7,1.1,0,2.16.25,3.14.74.5.25,1.1.05,1.34-.44.25-.5.05-1.1-.44-1.34-1.27-.64-2.63-.96-4.04-.96-4.96,0-9,4.04-9,9,0,.27.01.52.03.78-.51.44-.87,1.04-.99,1.72-.07.45-.04.89.08,1.31-.76.9-1.19,2-1.19,3.19,0,2.76,2.24,5,5,5,.52,0,1.03-.1,1.52-.26l-.14.69c-.08.41-.42.72-.83.78l-3.88.55c-1.1-.49-2.32-.76-3.6-.76-4.96,0-9,4.04-9,9,0,.26.02.52.04.77-.52.45-.88,1.05-1,1.73-.14.88.11,1.77.68,2.44.08.1.19.19.28.27v.96c0,1.56-.6,3.02-1.7,4.12-.24.24-.34.58-.28.91.07.33.3.6.61.73l3.63,1.45-2.68.39c-1.47.2-2.58,1.48-2.58,2.96v1.27c0,.55.45,1,1,1,.56,0,1-.45,1-1v-1.27c0-.49.37-.92.86-.99l3.9-.55c1.24-.18,2.25-1.13,2.51-2.36l.27-1.28c.77.29,1.6.45,2.46.45.87,0,1.7-.16,2.47-.45l.27,1.28c.26,1.23,1.27,2.18,2.51,2.36l3.9.55c.49.07.85.5.85.99v1.27c0,.55.45,1,1,1,.56,0,1-.45,1-1v-1.27c0-1.48-1.1-2.76-2.57-2.96l-2.69-.39,3.64-1.45c.31-.13.54-.4.6-.73.07-.33-.03-.67-.27-.91-1.1-1.1-1.71-2.56-1.71-4.12v-.96c.1-.08.2-.17.29-.27.57-.67.82-1.56.67-2.44-.11-.68-.48-1.28-.99-1.73.02-.25.03-.51.03-.77,0-2.6-1.11-4.93-2.87-6.58l1.63-.23c1.25-.18,2.25-1.13,2.51-2.36l.27-1.28c.76.29,1.6.45,2.46.45.87,0,1.7-.16,2.47-.45l.27,1.28c.26,1.23,1.26,2.18,2.51,2.36l1.57.22c-1.77,1.65-2.89,3.99-2.89,6.59,0,.26.01.52.03.77-.51.45-.88,1.05-.99,1.73-.14.88.1,1.77.67,2.44.09.1.19.19.29.27v.96c0,1.56-.61,3.02-1.71,4.12-.23.24-.34.58-.27.91.07.33.3.6.61.73l3.63,1.45-2.68.39c-1.47.2-2.58,1.48-2.58,2.96v1.27c0,.55.45,1,1,1s1-.45,1-1v-1.27c0-.49.37-.92.86-.99l3.89-.55c1.25-.18,2.26-1.13,2.52-2.36l.26-1.28c.77.29,1.6.45,2.47.45s1.7-.16,2.47-.45l.26,1.28c.26,1.23,1.27,2.18,2.52,2.36l3.89.55c.49.07.86.5.86.99v1.27c0,.55.45,1,1,1s1-.45,1-1v-1.27c0-1.48-1.11-2.76-2.58-2.96ZM14.415,50.07l-3.73-1.49c.88-1.29,1.35-2.81,1.35-4.41v-.17h.08c.26,1.83,1.24,3.43,2.63,4.52l-.33,1.55ZM23.665,50.07s0,.01-.01.01l-.32-1.56c1.39-1.09,2.37-2.69,2.63-4.52h.07v.17c0,1.6.48,3.12,1.36,4.41l-3.73,1.49ZM27.025,40.82c.05.31-.03.6-.22.83-.19.22-.47.35-.77.35h-1c-.55,0-1,.45-1,1,0,2.76-2.24,5-5,5s-5-2.24-5-5c0-.55-.44-1-1-1h-1c-.29,0-.57-.13-.76-.35-.19-.23-.27-.52-.22-.83.07-.46.55-.82,1.09-.82h3.29c2.11,0,4.1-.86,5.55-2.34,1.21,1.48,3.01,2.34,4.95,2.34.53,0,1.01.36,1.09.82ZM26.035,38v.01c-.03,0-.07-.01-.1-.01-1.48,0-2.85-.73-3.67-1.96l-.39-.59c-.19-.28-.5-.45-.84-.45-.33,0-.64.17-.83.45-1.06,1.59-2.85,2.55-4.77,2.55h-3.29c-.03,0-.07.01-.11.01v-.01c0-3.86,3.14-7,7-7s7,3.14,7,7ZM40.965,23c0,1.65-1.35,3-3,3-.3,0-.6-.06-.89-.15,1-1.03,1.68-2.36,1.89-3.85h.07c.56,0,1.08-.17,1.54-.44.25.43.39.92.39,1.44ZM25.965,26c-1.65,0-3-1.35-3-3,0-.54.16-1.06.43-1.51.48.32,1.05.51,1.64.51h.08c.21,1.47.88,2.79,1.86,3.82-.33.12-.66.18-1.01.18ZM32.035,26c-2.75,0-5-2.24-5-5,0-.55-.44-1-1-1h-1c-.29,0-.57-.13-.76-.35-.19-.23-.27-.52-.22-.83.07-.46.55-.82,1.09-.82h3.29c2.11,0,4.1-.86,5.55-2.34,1.21,1.48,3.01,2.34,4.95,2.34.53,0,1.01.36,1.09.82.05.31-.03.6-.22.83-.19.22-.47.35-.77.35h-1c-.55,0-1,.45-1,1,0,2.76-2.24,5-5,5ZM40.345,50.08s0-.01-.01-.01l-3.73-1.49c.89-1.29,1.36-2.81,1.36-4.41v-.17h.07c.26,1.83,1.24,3.43,2.64,4.52l-.33,1.56ZM44.965,48c-2.76,0-5-2.24-5-5,0-.55-.45-1-1-1h-1c-.29,0-.57-.13-.76-.35-.2-.23-.27-.52-.23-.83.08-.46.56-.82,1.1-.82,1.93,0,3.74-.86,4.95-2.34,1.44,1.48,3.43,2.34,5.55,2.34h3.28c.54,0,1.02.36,1.1.82.04.31-.03.6-.23.83-.19.22-.47.35-.76.35h-1c-.55,0-1,.45-1,1,0,2.76-2.24,5-5,5ZM49.595,50.07c-.01,0-.01.01-.01.01l-.33-1.56c1.4-1.09,2.38-2.69,2.64-4.52h.07v.17c0,1.6.47,3.12,1.36,4.41l-3.73,1.49Z"/>
</svg>