<?xml version="1.0" encoding="UTF-8"?>
<svg id="Outline" xmlns="http://www.w3.org/2000/svg" version="1.1" viewBox="0 0 64 64">
  <!-- Generator: Adobe Illustrator 29.5.1, SVG Export Plug-In . SVG Version: 2.1.0 Build 141)  -->
  <path d="M56.67,34.25c-.26-.24-.64-.32-.99-.21-.36.12-.74.21-1.11.31l-1.31-1.07c-5.47-4.48-12.95-5.82-19.64-3.56l-.62-.33v-2.49c2.83-.48,5-2.94,5-5.91,0-3.03-4.69-8.96-5.22-9.62-.38-.48-1.18-.48-1.56,0-.53.66-5.22,6.59-5.22,9.62,0,2.97,2.17,5.43,5,5.91v2.49l-.61.33c-6.7-2.26-14.18-.92-19.65,3.56l-1.31,1.07c-.37-.1-.75-.19-1.11-.31-.35-.11-.73-.03-.99.21-.27.25-.39.62-.3.97,2.46,10.46,11.68,17.77,22.43,17.77h5.08c10.75,0,19.97-7.31,22.43-17.77.09-.35-.03-.72-.3-.97ZM52,34.83l.06.05c-4.42.64-8.98-.12-12.96-2.24l-2.94-1.57c5.52-1.22,11.41.13,15.84,3.76ZM32,24.99c-.55,0-1-.45-1-1,.01-.31.42-1.18,1-2.15.58.97.99,1.85,1,2.15,0,.55-.45,1-1,1ZM29.04,23.66c-.64-.71-1.04-1.64-1.04-2.67,0-1.52,2.21-4.97,4-7.37,1.79,2.4,4,5.85,4,7.37,0,1.03-.4,1.96-1.04,2.67-.21-1.32-1.53-3.36-2.14-4.24-.37-.54-1.27-.54-1.64,0-.61.88-1.93,2.92-2.14,4.24ZM12,34.83c4.43-3.63,10.32-4.98,15.84-3.76l-2.94,1.57c-3.98,2.12-8.54,2.88-12.96,2.24l.06-.05ZM34.54,50.99h-5.08c-9.22,0-17.22-5.9-20.02-14.54,5.5,1.35,11.38.64,16.4-2.04l6.16-3.29,6.16,3.29c5.02,2.67,10.9,3.39,16.4,2.04-2.8,8.64-10.8,14.54-20.02,14.54Z"/>
  <path d="M32,38.99c-1.654,0-3,1.346-3,3s1.346,3,3,3,3-1.346,3-3-1.346-3-3-3ZM32,42.99c-.552,0-1-.448-1-1s.448-1,1-1,1,.448,1,1-.448,1-1,1Z"/>
  <path d="M32,37.99c.553,0,1-.447,1-1v-2c0-.553-.447-1-1-1s-1,.447-1,1v2c0,.553.447,1,1,1Z"/>
  <path d="M27.758,39.162c.364.364,1.024.39,1.414,0,.391-.391.391-1.023,0-1.414l-1.415-1.415c-.391-.391-1.023-.391-1.414,0s-.391,1.023,0,1.414c0,0,1.412,1.412,1.415,1.415Z"/>
  <path d="M28,41.99c0-.553-.447-1-1-1h-2c-.553,0-1,.447-1,1s.447,1,1,1h2c.553,0,1-.447,1-1Z"/>
  <path d="M27.758,44.818l-1.415,1.415c-.391.391-.391,1.023,0,1.414.388.388,1.026.388,1.414,0l1.415-1.415c.391-.391.391-1.023,0-1.414-.391-.391-1.023-.391-1.414,0Z"/>
  <path d="M32,45.99c-.553,0-1,.447-1,1v2c0,.553.447,1,1,1s1-.447,1-1v-2c0-.553-.447-1-1-1Z"/>
  <path d="M36.242,44.818c-.391-.391-1.023-.391-1.414,0-.391.391-.391,1.023,0,1.414l1.415,1.415c.369.369,1.018.396,1.414,0,.391-.391.391-1.023,0-1.414l-1.415-1.415Z"/>
  <path d="M39,40.99h-2c-.553,0-1,.447-1,1s.447,1,1,1h2c.553,0,1-.447,1-1s-.447-1-1-1Z"/>
  <path d="M35.535,39.455c.256,0,.512-.098.707-.293l1.415-1.415c.391-.391.391-1.023,0-1.414s-1.023-.391-1.414,0l-1.415,1.415c-.593.593-.184,1.707.707,1.707Z"/>
</svg>