<?xml version="1.0" encoding="UTF-8"?>
<svg id="Outline" xmlns="http://www.w3.org/2000/svg" version="1.1" viewBox="0 0 64 64">
  <!-- Generator: Adobe Illustrator 29.5.1, SVG Export Plug-In . SVG Version: 2.1.0 Build 141)  -->
  <path d="M49,43.11v-6.11c0-.14-.03-.28-.08-.4-.4-2.05-2.2-3.6-4.36-3.6h-2.22c.16-.42.3-.85.4-1.29.38.18.81.29,1.26.29,1.65,0,3-1.35,3-3v-7c0-8.27-6.73-15-15-15s-15,6.73-15,15v7c0,1.65,1.35,3,3,3,.45,0,.88-.11,1.26-.29.1.44.24.87.4,1.29h-2.22c-2.16,0-3.96,1.55-4.36,3.6-.05.12-.08.26-.08.4v6.11c-3.48.83-6,3.95-6,7.6v5.29c0,.55.45,1,1,1h44c.55,0,1-.45,1-1v-5.29c0-3.65-2.52-6.77-6-7.6ZM44.56,35c1.35,0,2.44,1.09,2.44,2.44,0,.7-.3,1.37-.83,1.84l-.62.54c-.89.78-1.83,1.5-2.8,2.18l-3.92-.56-.7-3.36c1.27-.81,2.35-1.86,3.17-3.08h3.26ZM34,18h-4c-1.65,0-3,1.35-3,3v1h-4c0-4.96,4.04-9,9-9s9,4.04,9,9h-4v-1c0-1.65-1.35-3-3-3ZM35,21v1h-6v-1c0-.55.45-1,1-1h4c.55,0,1,.45,1,1ZM41,24v5c0,.168,0,.335,0,.5,0,4.59-4.04,8.33-9,8.33s-9-3.74-9-8.33c0-.167,0-.333,0-.5v-5h18ZM45,29c0,.55-.45,1-1,1s-1-.45-1-1v-4c0-.55.45-1,1-1s1,.45,1,1v4ZM21,29c0,.55-.45,1-1,1s-1-.45-1-1v-4c0-.55.45-1,1-1s1,.45,1,1v4ZM21,22v.18c-.31-.11-.65-.18-1-.18s-.69.07-1,.18v-.18c0-7.17,5.83-13,13-13s13,5.83,13,13v.18c-.31-.11-.65-.18-1-.18s-.69.07-1,.18v-.18c0-6.07-4.93-11-11-11s-11,4.93-11,11ZM19.44,35h3.26c.82,1.22,1.9,2.27,3.17,3.08l-.7,3.36-3.92.56c-.97-.68-1.91-1.4-2.8-2.18l-.62-.55c-.53-.46-.83-1.13-.83-1.83,0-1.35,1.09-2.44,2.44-2.44ZM22.2,53.35l.47,1.65h-11.67v-4.29c0-2.94,2.2-5.42,5.12-5.77.5-.06.88-.48.88-.99v-2.75l.14.12c1.01.89,2.08,1.72,3.2,2.49,1.1.76,2.25,1.45,3.43,2.08-1.7,2.07-2.31,4.85-1.57,7.46ZM39.87,52.8l-.62,2.2h-14.5l-.62-2.2c-.61-2.12-.03-4.4,1.49-6,1.98.91,4.03,1.64,6.14,2.17.08.02.16.03.24.03s.16-.01.24-.03c2.11-.53,4.16-1.26,6.14-2.17,1.52,1.59,2.1,3.88,1.49,6ZM32,46.97c-2.85-.74-5.58-1.87-8.14-3.32l2.28-.33c.42-.06.75-.37.84-.78l.74-3.52c1.32.52,2.76.81,4.28.81s2.96-.29,4.28-.81l.74,3.52c.09.41.42.72.84.78l2.28.33c-2.56,1.45-5.29,2.58-8.14,3.32ZM53,55h-11.67l.47-1.65c.74-2.61.13-5.39-1.57-7.46,1.18-.63,2.32-1.32,3.43-2.08,1.12-.77,2.19-1.6,3.21-2.49l.13-.12v2.75c0,.51.38.93.88.99,2.92.35,5.12,2.83,5.12,5.77v4.29Z"/>
  <path d="M26.707,28.707c.713-.713,1.873-.713,2.586,0,.195.195.451.293.707.293.878,0,1.325-1.089.707-1.707-1.492-1.492-3.922-1.492-5.414,0-.391.391-.391,1.023,0,1.414s1.023.391,1.414,0Z"/>
  <path d="M34.707,28.707c.713-.713,1.873-.713,2.586,0,.195.195.451.293.706.293.873,0,1.322-1.092.708-1.707-1.492-1.492-3.922-1.492-5.414,0-.391.391-.391,1.023,0,1.414s1.023.391,1.414,0Z"/>
</svg>