<?xml version="1.0" encoding="UTF-8"?>
<svg id="Outline" xmlns="http://www.w3.org/2000/svg" version="1.1" viewBox="0 0 64 64">
  <!-- Generator: Adobe Illustrator 29.5.1, SVG Export Plug-In . SVG Version: 2.1.0 Build 141)  -->
  <path d="M54,13h-27c-.552,0-1,.448-1,1s.448,1,1,1h27c.551,0,1,.449,1,1v32c0,.551-.449,1-1,1H10c-.551,0-1-.449-1-1V16c0-.551.449-1,1-1h9c.552,0,1-.448,1-1s-.448-1-1-1h-9c-1.654,0-3,1.346-3,3v32c0,1.654,1.346,3,3,3h44c1.654,0,3-1.346,3-3V16c0-1.654-1.346-3-3-3Z"/>
  <path d="M29,33c0-2.206-1.794-4-4-4s-4,1.794-4,4,1.794,4,4,4,4-1.794,4-4ZM23,33c0-1.103.897-2,2-2s2,.897,2,2-.897,2-2,2-2-.897-2-2Z"/>
  <path d="M25,41c-.552,0-1,.448-1,1s.448,1,1,1c5.514,0,10-4.486,10-10,0-.552-.448-1-1-1s-1,.448-1,1c0,4.411-3.589,8-8,8Z"/>
  <path d="M26,24c0-.552-.448-1-1-1-5.514,0-10,4.486-10,10,0,.552.448,1,1,1s1-.448,1-1c0-4.411,3.589-8,8-8,.552,0,1-.448,1-1Z"/>
  <path d="M37.476,26.681c-2.314-4.55-7.031-7.681-12.476-7.681-7.72,0-14,6.28-14,14s6.28,14,14,14,14-6.28,14-14c0-1.561-.268-3.059-.742-4.462l2.017-.576c.429-.123.725-.515.725-.961v-4.184c1.161-.414,2-1.514,2-2.816,0-1.654-1.346-3-3-3s-3,1.346-3,3c0,1.302.839,2.402,2,2.816v3.43l-1.524.435ZM37,33c0,6.617-5.383,12-12,12s-12-5.383-12-12,5.383-12,12-12c4.53,0,8.48,2.525,10.522,6.239l-2.797.799c-1.041.298-.888,1.962.274,1.962.091,0,.184-.013.275-.039l3.057-.873c.425,1.228.668,2.541.668,3.912ZM40,19c.551,0,1,.449,1,1s-.449,1-1,1-1-.449-1-1,.449-1,1-1Z"/>
  <path d="M37,42v4c0,.552.448,1,1,1h14c.552,0,1-.448,1-1v-4c0-.552-.448-1-1-1h-14c-.552,0-1,.448-1,1ZM39,43h12v2h-12v-2Z"/>
  <path d="M50,39c1.654,0,3-1.346,3-3s-1.346-3-3-3-3,1.346-3,3,1.346,3,3,3ZM50,35c.551,0,1,.449,1,1s-.449,1-1,1-1-.449-1-1,.449-1,1-1Z"/>
  <path d="M50,31c1.654,0,3-1.346,3-3s-1.346-3-3-3-3,1.346-3,3,1.346,3,3,3ZM50,27c.551,0,1,.449,1,1s-.449,1-1,1-1-.449-1-1,.449-1,1-1Z"/>
  <path d="M50,23c1.654,0,3-1.346,3-3s-1.346-3-3-3-3,1.346-3,3,1.346,3,3,3ZM50,19c.551,0,1,.449,1,1s-.449,1-1,1-1-.449-1-1,.449-1,1-1Z"/>
  <circle cx="23" cy="14" r="1"/>
</svg>