<?xml version="1.0" encoding="UTF-8"?>
<svg id="Outline" xmlns="http://www.w3.org/2000/svg" version="1.1" viewBox="0 0 64 64">
  <!-- Generator: Adobe Illustrator 29.5.1, SVG Export Plug-In . SVG Version: 2.1.0 Build 141)  -->
  <line x1="48" y1="56" x2="16" y2="56" fill="none" stroke="#000" stroke-linecap="round" stroke-linejoin="round" stroke-width="2"/>
  <g>
    <path d="M27.551,34.66c.776.226,1.6.34,2.449.34.704,0,1.396-.08,2.059-.236,4.087-.958,6.941-4.562,6.941-8.764,0-2.162-.779-4.23-2.186-5.864-.512-2.339-2.197-4.272-4.481-5.079-.306-.107-.645-.061-.911.127-.265.188-.422.492-.422.816v4.032l-1,.5-1-.5v-4.032c0-.324-.158-.629-.422-.816-.266-.188-.605-.234-.911-.127-2.294.81-3.985,2.756-4.483,5.082-1.406,1.634-2.184,3.701-2.184,5.862,0,4.022,2.698,7.585,6.551,8.66ZM23,26c0-.748.126-1.48.354-2.176.566,1.746,1.793,3.215,3.476,4.065v4.339c-2.303-1.173-3.83-3.565-3.83-6.228ZM32.83,32.399v-4.342c1.842-.814,3.209-2.365,3.817-4.232.228.696.353,1.427.353,2.174,0,2.827-1.664,5.298-4.17,6.399ZM27,17.656v2.994c0,.379.214.725.553.895l2,1c.281.141.613.141.895,0l2-1c.339-.17.553-.516.553-.895v-2.994c1,.751,1.699,1.865,1.92,3.146.054.259.08.537.08.849,0,2.182-1.397,4.098-3.477,4.768-.414.134-.693.519-.693.952v5.576c-.663.077-1.345.06-2-.05v-5.655c0-.412-.253-.783-.638-.933-1.939-.753-3.192-2.581-3.192-4.657,0-.312.026-.59.085-.88.218-1.258.915-2.366,1.915-3.114Z"/>
    <path d="M16,43h4c.552,0,1-.447,1-1v-4c0-.553-.448-1-1-1h-4c-.552,0-1,.447-1,1v4c0,.553.448,1,1,1ZM17,39h2v2h-2v-2Z"/>
    <path d="M24,43h12c.552,0,1-.447,1-1s-.448-1-1-1h-12c-.552,0-1,.447-1,1s.448,1,1,1Z"/>
    <path d="M44,45h-28c-.552,0-1,.447-1,1s.448,1,1,1h28c.552,0,1-.447,1-1s-.448-1-1-1Z"/>
    <path d="M46.707,31.293c-.391-.391-1.023-.391-1.414,0s-.391,1.023,0,1.414l2,2c.195.195.451.293.707.293s.512-.098.707-.293l4-4c.391-.391.391-1.023,0-1.414s-1.023-.391-1.414,0l-3.293,3.293-1.293-1.293Z"/>
    <path d="M57,32c0-4.41-3.59-8-8-8v-10c0-1.65-1.35-3-3-3h-1v-1c0-1.61-1.28-2.92-2.87-2.99h-.06c-.02,0-.05-.01-.07-.01H11c-.13,0-.26.03-.37.07-2.06.36-3.63,2.14-3.63,4.3v38.63c0,1.65,1.35,3,3,3h1.1c.47,2.28,2.49,4,4.9,4h32c2.76,0,5-2.24,5-5v-2c0-.55-.45-1-1-1h-3v-9c4.41,0,8-3.59,8-8ZM42.09,9.02c.51.05.91.46.91.98v1h-7.35l6.44-1.98ZM35.35,9l-18.64,5.73-1.1-4.42c-.12-.48-.32-.92-.57-1.31h20.31ZM11,14v37h-1c-.55,0-1-.45-1-1V11.37c0-1.31,1.06-2.37,2.37-2.37,1.09,0,2.03.74,2.3,1.79l.06.24c-1.53.14-2.73,1.41-2.73,2.97ZM19,50v2c0,1.65-1.35,3-3,3s-3-1.35-3-3V14c0-.55.45-1,1-1h.22l.81,3.24c.131.524.734.896,1.26.72l12.86-3.96h16.85c.55,0,1,.45,1,1v10.26c-3.44.89-6,4.02-6,7.74,0,1.89.66,3.63,1.76,5h-18.76c-.55,0-1,.45-1,1s.45,1,1,1h20c.27,0,.5-.11.68-.28.71.46,1.49.8,2.32,1.02v9.26h-27c-.55,0-1,.45-1,1ZM51,51v1c0,1.65-1.35,3-3,3h-28.03c.64-.84,1.03-1.87,1.03-3v-1h30ZM43,32c0-3.31,2.69-6,6-6s6,2.69,6,6-2.69,6-6,6-6-2.69-6-6Z"/>
  </g>
</svg>