<?xml version="1.0" encoding="UTF-8"?>
<svg id="Outline" xmlns="http://www.w3.org/2000/svg" version="1.1" viewBox="0 0 64 64">
  <!-- Generator: Adobe Illustrator 29.3.1, SVG Export Plug-In . SVG Version: 2.1.0 Build 151)  -->
  <path d="M38,37c0-2.96722-2.16687-5.43134-5-5.90967v-7.9483c1.72028.44727,3,1.99969,3,3.85797,0,.55225.44775,1,1,1s1-.44775,1-1c0-2.96722-2.16687-5.43134-5-5.90967v-1.09033c0-.55225-.44775-1-1-1s-1,.44775-1,1v1.09033c-2.83313.47833-5,2.94244-5,5.90967s2.16687,5.43134,5,5.90967v7.9483c-1.72028-.44727-3-1.99969-3-3.85797,0-.55225-.44775-1-1-1s-1,.44775-1,1c0,2.96722,2.16687,5.43134,5,5.90967v1.09033c0,.55225.44775,1,1,1s1-.44775,1-1v-1.09033c2.83313-.47833,5-2.94244,5-5.90967ZM36,37c0,1.85828-1.27972,3.41071-3,3.85797v-7.71594c1.72028.44727,3,1.99969,3,3.85797ZM28,27c0-1.85828,1.27972-3.41071,3-3.85797v7.71594c-1.72028-.44727-3-1.99969-3-3.85797Z"/>
  <path d="M52.00159,38.35394c.65009-2.03851.99841-4.16797.99841-6.35394,0-11.57959-9.42041-21-21-21-2.18597,0-4.31543.34833-6.35394.99841-1.73248-2.98309-4.9549-4.99841-8.64606-4.99841-5.51416,0-10,4.48584-10,10,0,3.69116,2.01538,6.91364,4.99847,8.64612-.65009,2.03851-.99847,4.16791-.99847,6.35388,0,4.82764,1.68555,9.54834,4.74561,13.29297.19775.2417.48535.36719.7749.36719.22266,0,.44678-.07373.63232-.22559.42773-.34961.49121-.97949.1416-1.40723-2.76953-3.38818-4.29443-7.65967-4.29443-12.02734,0-1.8988.29022-3.74866.83112-5.52307.62653.21008,1.27948.3595,1.95404.44171-.51489,1.62866-.78516,3.33008-.78516,5.08136,0,9.37402,7.62598,17,17,17,1.75128,0,3.4527-.27026,5.08136-.78516.08221.67456.23163,1.32751.44171,1.95404-1.77441.54089-3.62427.83112-5.52307.83112-4.36768,0-8.63916-1.5249-12.02734-4.29443-.42676-.34961-1.05762-.28662-1.40723.1416-.34961.42773-.28613,1.05762.1416,1.40723,3.74463,3.06006,8.46533,4.74561,13.29297,4.74561,2.18597,0,4.31537-.34839,6.35388-.99847,1.73248,2.98309,4.95496,4.99847,8.64612,4.99847,5.51416,0,10-4.48584,10-10,0-3.69116-2.01532-6.91357-4.99841-8.64606ZM54.93054,46h-1.9599c-.12213-2.13977-.63568-4.05731-1.41962-5.57098,1.82166,1.26562,3.09027,3.26685,3.37952,5.57098ZM39.06946,46c.28925-2.30414,1.55786-4.30536,3.37952-5.57098-.78394,1.51367-1.29749,3.43121-1.41962,5.57098h-1.9599ZM46,39.2973v6.7027h-2.96466c.22089-3.3844,1.53748-5.88037,2.96466-6.7027ZM46,48v6.7027c-1.42719-.82233-2.74377-3.3183-2.96466-6.7027h2.96466ZM48,54.7027v-6.7027h2.96466c-.22089,3.3844-1.53748,5.88037-2.96466,6.7027ZM48,46v-6.7027c1.42719.82233,2.74377,3.3183,2.96466,6.7027h-2.96466ZM18,24.7027v-6.7027h2.96466c-.22089,3.3844-1.53748,5.88037-2.96466,6.7027ZM18,16v-6.7027c1.42719.82233,2.74377,3.3183,2.96466,6.7027h-2.96466ZM16,9.2973v6.7027h-2.96466c.22089-3.3844,1.53748-5.88037,2.96466-6.7027ZM16,18v6.7027c-1.42719-.82233-2.74377-3.3183-2.96466-6.7027h2.96466ZM22.97064,18h1.9599c-.28925,2.30414-1.55786,4.30536-3.37952,5.57098.78394-1.51367,1.29749-3.43121,1.41962-5.57098ZM24.93054,16h-1.9599c-.12213-2.13977-.63568-4.05731-1.41962-5.57098,1.82166,1.26562,3.09027,3.26685,3.37952,5.57098ZM12.44897,10.42902c-.78394,1.51367-1.29749,3.43121-1.41962,5.57098h-1.9599c.28925-2.30414,1.55786-4.30536,3.37952-5.57098ZM9.06946,18h1.9599c.12213,2.13977.63568,4.05731,1.41962,5.57098-1.82166-1.26562-3.09027-3.26685-3.37952-5.57098ZM17,32c0-1.7511.31042-3.44189.89117-5.0451,4.80707-.42712,8.64221-4.26617,9.06427-9.07465,1.01141-.36591,2.07129-.62476,3.16516-.75769.54834-.06641.93848-.56494.87207-1.11328s-.56641-.93652-1.11328-.87207c-1.01447.12311-2.00403.34363-2.96124.64471-.08234-.6734-.23145-1.32526-.44122-1.95081,1.77441-.54089,3.62427-.83112,5.52307-.83112,10.47656,0,19,8.52344,19,19,0,1.8988-.29022,3.74866-.83112,5.52307-.62653-.21008-1.27948-.3595-1.95404-.44171.51489-1.62866.78516-3.33008.78516-5.08136,0-8.55957-6.39551-15.80908-14.87695-16.8623-.54346-.07227-1.04785.32031-1.11523.86914-.06836.54785.3208,1.04736.86914,1.11523,7.48145.9292,13.12305,7.32568,13.12305,14.87793,0,1.7511-.31036,3.44189-.89111,5.0451-4.80347.42682-8.63696,4.26025-9.06378,9.06372-1.60321.58075-3.29401.89117-5.0451.89117-8.271,0-15-6.729-15-15ZM39.06946,48h1.9599c.12213,2.13977.63568,4.05731,1.41962,5.57098-1.82166-1.26562-3.09027-3.26685-3.37952-5.57098ZM51.55103,53.57098c.78394-1.51367,1.29749-3.43121,1.41962-5.57098h1.9599c-.28925,2.30414-1.55786,4.30536-3.37952,5.57098Z"/>
</svg>