<?xml version="1.0" encoding="UTF-8"?>
<svg id="Outline" xmlns="http://www.w3.org/2000/svg" version="1.1" viewBox="0 0 64 64">
  <!-- Generator: Adobe Illustrator 29.5.1, SVG Export Plug-In . SVG Version: 2.1.0 Build 141)  -->
  <path d="M46,24c-1.1,0-2-.9-2-2,0-.55-.45-1-1-1h-1.49c.32-1.25.49-2.61.49-4,0-5.61-2.64-10-6-10-3.02,0-5.43,3.44-5.91,8.26-2.62.75-4.62,2.99-5.02,5.74h-4.07c-.55,0-1,.45-1,1,0,1.1-.9,2-2,2-.55,0-1,.45-1,1v29c0,1.65,1.35,3,3,3h24c1.65,0,3-1.35,3-3v-29c0-.55-.45-1-1-1ZM36,9c1.89,0,4,3.29,4,8,0,1.42-.2,2.78-.57,4h-.5c-.48-3.34-3.33-5.92-6.79-5.99.46-3.4,2.08-6.01,3.86-6.01ZM32,21c.55,0,1,.45,1,1s-.45,1-1,1-1-.45-1-1,.45-1,1-1ZM45,54c0,.55-.45,1-1,1h-24c-.55,0-1-.45-1-1v-28.13c1.4-.36,2.51-1.47,2.87-2.87h4.13c.55,0,1-.45,1-1,0-2.05,1.25-3.82,3.02-4.59.02.75.09,1.48.2,2.19-.74.55-1.22,1.41-1.22,2.4,0,1.65,1.35,3,3,3s3-1.35,3-3c0-1.6-1.27-2.9-2.85-2.98-.09-.66-.15-1.33-.15-2.02,2.76,0,5,2.24,5,5,0,.55.45,1,1,1h4.13c.36,1.4,1.47,2.51,2.87,2.87v28.13Z"/>
  <path d="M42,27h-20c-.553,0-1,.448-1,1v24c0,.552.447,1,1,1h20c.553,0,1-.448,1-1v-24c0-.552-.447-1-1-1ZM41,51h-18v-5.842c1.992,2.319,5.28,3.842,9,3.842s7.008-1.523,9-3.842v5.842ZM23,40c0-3.86,4.037-7,9-7s9,3.14,9,7-4.037,7-9,7-9-3.14-9-7ZM32,31c-3.72,0-7.008,1.523-9,3.842v-5.842h18v5.842c-1.992-2.319-5.28-3.842-9-3.842Z"/>
  <path d="M32.764,42h-2.764c-.553,0-1,.448-1,1s.447,1,1,1h1v1c0,.552.447,1,1,1s1-.448,1-1v-1.024c1.121-.12,2-1.06,2-2.212,0-.853-.474-1.619-1.236-2l-2.633-1.316c-.081-.04-.131-.121-.131-.211,0-.13.106-.236.236-.236h2.764c.553,0,1-.448,1-1s-.447-1-1-1h-1v-1c0-.552-.447-1-1-1s-1,.448-1,1v1.024c-1.121.12-2,1.06-2,2.212,0,.853.474,1.619,1.236,2l2.633,1.316c.081.04.131.121.131.211,0,.13-.106.236-.236.236Z"/>
</svg>