<?xml version="1.0" encoding="UTF-8"?>
<svg id="Outline" xmlns="http://www.w3.org/2000/svg" version="1.1" viewBox="0 0 64 64">
  <!-- Generator: Adobe Illustrator 29.5.1, SVG Export Plug-In . SVG Version: 2.1.0 Build 141)  -->
  <path d="M56.64001,27.23124L32.64001,7.23124c-.37-.31-.91003-.31-1.28003,0L7.35999,27.23124c-.32001.27002-.44.71002-.29999,1.10999.14001.40002.52002.66003.94.66003h2v27c0,.54999.45001,1,1,1h42c.54999,0,1-.45001,1-1v-27h2c.41998,0,.79999-.26001.94-.66003.14001-.39996.02002-.83997-.29999-1.10999ZM22,55.00126h-6v-8h6v8ZM52,55.00126h-28v-9c0-.54999-.45001-1-1-1h-8c-.54999,0-1,.45001-1,1v9h-2v-12h40v12ZM52,41.00126H12v-12h40v12ZM10.76001,27.00126l21.23999-17.70001,21.23999,17.70001H10.76001Z"/>
  <path d="M31.29297,24.70829c.19531.19531.45117.29297.70703.29297s.51172-.09766.70703-.29297l3.625-3.625c1.38867-1.38867,1.38867-3.64941,0-5.03809-1.17285-1.17383-2.96777-1.35742-4.33203-.54883-1.36621-.80859-3.16016-.625-4.33203.54883-1.38867,1.38867-1.38867,3.64941,0,5.03809l3.625,3.625ZM29.08203,17.45927c.30469-.30469.70508-.45703,1.10546-.45703s.80079.15234,1.10548.45703c.39062.39062,1.02344.39062,1.41406,0,.60938-.60938,1.60156-.60938,2.21094,0s.60938,1.60059,0,2.20996l-2.91797,2.91797-2.91797-2.91797c-.60938-.60938-.60938-1.60059,0-2.20996Z"/>
  <path d="M48,47.00126c.55273,0,1-.44727,1-1s-.44727-1-1-1h-20c-.55273,0-1,.44727-1,1s.44727,1,1,1h1v4h-1c-.55273,0-1,.44727-1,1s.44727,1,1,1h20c.55273,0,1-.44727,1-1s-.44727-1-1-1h-1v-4h1ZM31,47.00126h6v4h-6v-4ZM45,51.00126h-6v-4h6v4Z"/>
  <path d="M17,39.00126h6c.55273,0,1-.44727,1-1v-3c0-2.20605-1.79395-4-4-4s-4,1.79395-4,4v3c0,.55273.44727,1,1,1ZM18,35.00126c0-1.10254.89746-2,2-2s2,.89746,2,2v2h-4v-2Z"/>
  <path d="M41,39.00126h6c.55273,0,1-.44727,1-1v-3c0-2.20605-1.79395-4-4-4s-4,1.79395-4,4v3c0,.55273.44727,1,1,1ZM42,35.00126c0-1.10254.89746-2,2-2s2,.89746,2,2v2h-4v-2Z"/>
  <path d="M29,39.00126h6c.55273,0,1-.44727,1-1v-3c0-2.20605-1.79395-4-4-4s-4,1.79395-4,4v3c0,.55273.44727,1,1,1ZM30,35.00126c0-1.10254.89746-2,2-2s2,.89746,2,2v2h-4v-2Z"/>
</svg>