<?xml version="1.0" encoding="UTF-8"?>
<svg id="Outline" xmlns="http://www.w3.org/2000/svg" version="1.1" viewBox="0 0 64 64">
  <!-- Generator: Adobe Illustrator 29.5.1, SVG Export Plug-In . SVG Version: 2.1.0 Build 141)  -->
  <path d="M48.79999,43.17999c-1.03998,5.69-6.01001,9.82001-11.79999,9.82001v3c0,.54999-.45001,1-1,1h-8c-.54999,0-1-.45001-1-1v-3c-6.62,0-12-5.38-12-12,0-.54999.45001-1,1-1h8c.54999,0,1,.45001,1,1,0,1.09998.90002,2,2,2v-6c-6.62,0-12-5.38-12-12v-2c0-6.62,5.38-12,12-12v-3c0-.54999.45001-1,1-1h8c.54999,0,1,.45001,1,1v3c6.62,0,12,5.38,12,12,0,.54999-.45001,1-1,1h-8c-.54999,0-1-.45001-1-1,0-1.10004-.90002-2-2-2v1c0,.54999-.45001,1-1,1s-1-.45001-1-1v-2c0-.54999.45001-1,1-1h1c1.85999,0,3.42999,1.27997,3.87,3h6.08002c-.5-5.04999-4.77002-9-9.95001-9h-1c-.54999,0-1-.45001-1-1v-3h-6v3c0,.54999-.45001,1-1,1h-1c-5.51001,0-10,4.48999-10,10v2c0,5.51001,4.48999,10,10,10h1c.54999,0,1,.45001,1,1v8c0,.54999-.45001,1-1,1h-1c-1.85999,0-3.42999-1.28003-3.87-3h-6.08002c.5,5.04999,4.77002,9,9.95001,9h1c.54999,0,1,.45001,1,1v3h6v-3c0-.54999.45001-1,1-1h1c4.83002,0,8.96002-3.44,9.84003-8.17999.09998-.54004.62-.90002,1.15997-.80005.53998.10004.90002.62006.79999,1.16003Z"/>
  <path d="M28,19h-1c-2.20605,0-4,1.79443-4,4v2c0,2.20557,1.79395,4,4,4h1c.55273,0,1-.44775,1-1v-8c0-.55225-.44727-1-1-1ZM27,27c-1.10254,0-2-.89697-2-2v-2c0-1.10303.89746-2,2-2v6Z"/>
  <path d="M36,45h1c2.20605,0,4-1.79443,4-4v-2c0-2.20557-1.79395-4-4-4h-1c-.55273,0-1,.44775-1,1v8c0,.55225.44727,1,1,1ZM37,37c1.10254,0,2,.89697,2,2v2c0,1.10303-.89746,2-2,2v-6Z"/>
  <path d="M37,27v-1c0-.55225-.44727-1-1-1s-1,.44775-1,1v2c0,.55225.44727,1,1,1h1c5.51367,0,10,4.48584,10,10,0,.55225.44727,1,1,1s1-.44775,1-1c0-6.6167-5.38281-12-12-12Z"/>
</svg>