<?xml version="1.0" encoding="UTF-8"?>
<svg id="Outline" xmlns="http://www.w3.org/2000/svg" version="1.1" viewBox="0 0 64 64">
  <!-- Generator: Adobe Illustrator 29.0.0, SVG Export Plug-In . SVG Version: 2.1.0 Build 186)  -->
  <path d="M32,26.11502h-6c-.55127,0-1-.44873-1-1s.44873-1,1-1h10c.55225,0,1-.44775,1-1v-4c0-.55225-.44775-1-1-1h-4v-2c0-.55225-.44775-1-1-1h-4c-.55225,0-1,.44775-1,1v2c-3.85986,0-7,3.14014-7,7s3.14014,7,7,7h6c.55127,0,1,.44873,1,1s-.44873,1-1,1h-10c-.55225,0-1,.44775-1,1v4c0,.55225.44775,1,1,1h4v2c0,.55225.44775,1,1,1h4c.55225,0,1-.44775,1-1v-2c3.85986,0,7-3.14014,7-7s-3.14014-7-7-7ZM32,38.11502h-1c-.55225,0-1,.44775-1,1v2h-2v-2c0-.55225-.44775-1-1-1h-4v-2h9c1.6543,0,3-1.3457,3-3s-1.3457-3-3-3h-6c-2.75684,0-5-2.24316-5-5s2.24316-5,5-5h1c.55225,0,1-.44775,1-1v-2h2v2c0,.55225.44775,1,1,1h4v2h-9c-1.6543,0-3,1.3457-3,3s1.3457,3,3,3h6c2.75684,0,5,2.24316,5,5s-2.24316,5-5,5Z"/>
  <path d="M52.32001,38.66501c-.91003-.58002-1.91998-.97998-2.96002-1.22998,1.09003-2.63,1.64001-5.42999,1.64001-8.32001,0-12.13-9.87-22-22-22S7,16.98502,7,29.11502s9.87,22,22,22c2.88,0,5.65997-.54999,8.28998-1.63.87,3.63,3.70001,6.52002,7.49005,7.38.06988.01.14981.01994.21976.01996.54085.00015,1.00021-.45931,1.00021-1v-4.19c0-.39996-.23999-.75995-.59998-.91998-1.46002-.63-2.40002-2.07001-2.40002-3.65997,0-2.21002,1.78998-4,4-4,.47998,0,.96997.09998,1.46002.27997.37.14001.78998.06,1.07001-.21997l2.95996-2.96002c.21002-.21997.32001-.52002.28003-.82001-.03003-.29999-.20001-.57001-.45001-.72998ZM48.54999,41.32498c-.51996-.13995-1.02997-.20996-1.54999-.20996-3.31,0-6,2.69-6,6,0,2.15997,1.15997,4.13,3,5.19v2.22998c-3-1.20001-5-4.09998-5-7.41998,0-1.5.41998-2.98004,1.22998-4.26001.29004-.47003.15002-1.08002-.32001-1.38-.46997-.28998-1.07996-.15002-1.37994.32001-.05005.08002-.08002.16998-.13.25-2.74005,2.01001-5.99005,3.07001-9.40002,3.07001-8.82001,0-16-7.17999-16-16,0-3.64001,1.19-7.06,3.42999-9.90002.35004-.42999.27002-1.06-.15997-1.39996-.42999-.35004-1.06-.27002-1.40002.15997-2.52997,3.19-3.87,7.03998-3.87,11.14001,0,9.92999,8.07001,18,18,18,2.90002,0,5.70001-.67999,8.21997-1.98999-.12994.64996-.21997,1.31995-.21997,1.98999,0,.09998.01001.20996.01001.31-2.53003,1.12-5.22003,1.69-8.01001,1.69-11.03003,0-20-8.97003-20-20S17.96997,9.11502,29,9.11502s20,8.96997,20,20c0,2.81-.58002,5.51001-1.71002,8.04999-.76996-.02002-1.52997.04999-2.28998.20001,1.31-2.53003,2-5.34003,2-8.25,0-9.92999-8.07001-18-18-18-4.09998,0-7.95001,1.33997-11.14001,3.87-.42999.33997-.51001.96997-.15997,1.39996.33997.43005.96997.51001,1.39996.16003,2.84003-2.23999,6.26001-3.42999,9.90002-3.42999,8.82001,0,16,7.17999,16,16,0,3.40997-1.06,6.65997-3.07001,9.39996-.08002.05005-.16998.08002-.25.13-.46997.29999-.60999.91003-.32001,1.38.29999.47003.91003.60999,1.38.32001,2.21002-1.38,5.04004-1.59998,7.38-.58997l-1.57001,1.56995Z"/>
  <path d="M55.45947,41.79715c-.16211-.25732-.43262-.42725-.73486-.46094-.30078-.03564-.60352.07129-.81836.28662l-2.9668,2.9668c-.28125.28125-.36914.70215-.22363,1.07227.18848.48096.28418.96973.28418,1.45312,0,1.58594-.94238,3.02344-2.40088,3.66211-.36377.15918-.59912.51855-.59912.91602v4.19141c0,.3042.13867.5918.376.78176.2382.18951.54837.26092.84568.19334,4.57959-1.04102,7.77832-5.04785,7.77832-9.74463,0-1.87842-.53271-3.71777-1.54053-5.31787ZM50,54.52908v-2.22266c1.8418-1.06396,3-3.03613,3-5.19141,0-.51807-.0708-1.03564-.21094-1.54688l1.57227-1.57178c.41992.98486.63867,2.04395.63867,3.11865,0,3.32324-2.00195,6.21484-5,7.41406Z"/>
</svg>