<?xml version="1.0" encoding="UTF-8"?>
<svg id="Outline" xmlns="http://www.w3.org/2000/svg" version="1.1" viewBox="0 0 64 64">
  <!-- Generator: Adobe Illustrator 29.5.1, SVG Export Plug-In . SVG Version: 2.1.0 Build 141)  -->
  <path d="M52,41.948h-1.08c.36-1.48.54-3,.54-4.54,0-9.77-15.2-17.54-18.46-19.1v-1.47c1.89-.38,3.42-1.82,3.87-3.77.07-.34-.03-.69-.27-.93-.24-.25-.59-.35-.93-.27-.24.05-.46.08-.67.08-1.65,0-3-1.35-3-3,0-.21.03-.43.08-.67.08-.34-.02-.69-.27-.93-.24-.24-.59-.35-.93-.27-2.28.53-3.88,2.53-3.88,4.87,0,2.41,1.72,4.43,4,4.9v1.46c-3.26,1.56-18.46,9.33-18.46,19.1,0,1.54.18,3.06.54,4.54h-1.08c-.55,0-1,.45-1,1v4c0,.55.45,1,1,1h1v8c0,.55.45,1,1,1h36c.55,0,1-.45,1-1v-8h1c.55,0,1-.45,1-1v-4c0-.55-.45-1-1-1ZM29,11.948c0-.91.4-1.73,1.05-2.28.32,2.18,2.05,3.91,4.23,4.23-.55.65-1.37,1.05-2.28,1.05-1.65,0-3-1.35-3-3ZM32,20.048c2.67,1.28,17.46,8.73,17.46,17.36,0,1.54-.21,3.07-.61,4.54H15.15c-.4-1.47-.61-3-.61-4.54,0-8.62,14.79-16.08,17.46-17.36ZM19,54.948c.06-1.28.84-2.41,2-2.93,1.16.52,1.94,1.65,2,2.93h-4ZM30,54.948c.06-1.28.84-2.41,2-2.93,1.16.52,1.94,1.65,2,2.93h-4ZM41,54.948c.06-1.28.84-2.41,2-2.93,1.16.52,1.94,1.65,2,2.93h-4ZM49,54.948h-2.01c-.07-2.25-1.52-4.23-3.67-4.95-.21-.07-.43-.07-.64,0-2.15.72-3.6,2.7-3.67,4.95h-3.02c-.07-2.25-1.52-4.23-3.67-4.95-.21-.07-.43-.07-.64,0-2.15.72-3.6,2.7-3.67,4.95h-3.02c-.07-2.25-1.52-4.23-3.67-4.95-.21-.07-.43-.07-.64,0-2.15.72-3.6,2.7-3.67,4.95h-2.01v-7h34v7ZM51,45.948H13v-2h38v2Z"/>
</svg>