<?xml version="1.0" encoding="UTF-8"?>
<svg id="Outline" xmlns="http://www.w3.org/2000/svg" version="1.1" viewBox="0 0 64 64">
  <!-- Generator: Adobe Illustrator 29.0.0, SVG Export Plug-In . SVG Version: 2.1.0 Build 186)  -->
  <path d="M56.96997,35.76001l-2-8c-.10999-.45001-.50995-.76001-.96997-.76001h-14.34003c3.23004-3.20001,6.34003-7.32001,6.34003-11.31,0-4.79004-3.87-8.69-8.62-8.69-1.97998,0-3.85999.66998-5.38,1.89996-1.52002-1.22998-3.40002-1.89996-5.38-1.89996-4.75,0-8.62,3.89996-8.62,8.69,0,3.98999,3.10999,8.10999,6.34003,11.31h-14.34003c-.46002,0-.85999.31-.96997.76001l-2,8c-.07001.29999-.01001.60999.17999.85999.19.23999.47998.38.78998.38h8v19c0,.54999.45001,1,1,1h30c.54999,0,1-.45001,1-1v-19h8c.31,0,.59998-.14001.78998-.38.19-.25.25-.56.17999-.85999ZM20,15.69c0-3.69,2.96997-6.69,6.62-6.69,1.76001,0,3.41998.69,4.66998,1.95996.38.38,1.04004.38,1.42004,0,1.25-1.26996,2.90997-1.95996,4.66998-1.95996,3.65002,0,6.62,3,6.62,6.69,0,6.20001-9.57001,13.37-12,15.08997-2.42999-1.71997-12-8.88995-12-15.08997ZM19.78003,29h6.71997c2.53998,2.21997,4.72998,3.69,4.95001,3.82996.16998.11005.35999.17004.54999.17004s.38-.06.54999-.17004c.22003-.13995,2.41003-1.60999,4.95001-3.82996h6.71997l1.5,6h-27.43994l1.5-6ZM16.21997,35h-6.93994l1.5-6h6.93994l-1.5,6ZM46,55h-28v-12h28v12ZM46,41h-28v-4h28v4ZM47.78003,35l-1.5-6h6.93994l1.5,6h-6.93994Z"/>
  <path d="M29,47h-8c-.55273,0-1,.44727-1,1v4c0,.55273.44727,1,1,1h8c.55273,0,1-.44727,1-1v-4c0-.55273-.44727-1-1-1ZM28,51h-6v-2h6v2Z"/>
</svg>