<?xml version="1.0" encoding="UTF-8"?>
<svg id="Outline" xmlns="http://www.w3.org/2000/svg" version="1.1" viewBox="0 0 64 64">
  <!-- Generator: Adobe Illustrator 29.5.1, SVG Export Plug-In . SVG Version: 2.1.0 Build 141)  -->
  <path d="M54.981,22.15c-.138-.319-.431-.545-.775-.595-.341-.055-.689.082-.912.35-.579.695-1.415,1.095-2.294,1.095-1.654,0-3-1.346-3-3,0-.241.042-.5.131-.816.076-.267.037-.553-.105-.789-.144-.237-.379-.404-.649-.462-1.003-.212-1.843-.955-2.189-1.939-.124-.351-.434-.604-.802-.657-.378-.054-.736.104-.953.406-.575.8-1.462,1.258-2.432,1.258-1.654,0-3-1.346-3-3,0-.342.068-.697.204-1.056.183-.484-.034-1.028-.5-1.254-1.052-.508-1.704-1.539-1.704-2.69,0-.198.021-.4.061-.6.055-.272-.006-.555-.168-.78s-.41-.374-.686-.409c-1.097-.14-2.176-.211-3.207-.211-13.785,0-25,11.215-25,25s11.215,25,25,25,25-11.215,25-25c0-3.414-.679-6.729-2.019-9.85ZM32,55c-12.347,0-22.449-9.78-22.975-22h.975c.552,0,1,.448,1,1v4c0,1.654,1.346,3,3,3s3-1.346,3-3c0-.552.448-1,1-1s1,.448,1,1v8c0,1.654,1.346,3,3,3s3-1.346,3-3v-5.521c1.903,1.574,4.343,2.521,7,2.521s5.097-.947,7-2.521v5.521c0,.812.316,1.566.873,2.107.561.576,1.315.893,2.127.893,1.654,0,3-1.346,3-3v-3c0-.553-.447-1-1-1s-1,.447-1,1v3c0,.552-.448,1-1,1-.267,0-.514-.103-.713-.307-.185-.18-.287-.427-.287-.693v-7.695c1.256-1.787,2-3.959,2-6.305,0-6.065-4.935-11-11-11-2.269,0-4.442.686-6.285,1.981-.452.318-.561.942-.243,1.394.318.452.941.562,1.394.243,1.505-1.059,3.28-1.618,5.135-1.618,4.963,0,9,4.037,9,9s-4.037,9-9,9-9-4.037-9-9c0-1.699.476-3.347,1.375-4.764.296-.467.157-1.085-.309-1.381-.469-.296-1.085-.157-1.381.309-1.103,1.739-1.686,3.757-1.686,5.836,0,2.346.744,4.517,2,6.305v7.695c0,.552-.448,1-1,1s-1-.448-1-1v-8c0-1.654-1.346-3-3-3s-3,1.346-3,3c0,.552-.448,1-1,1s-1-.448-1-1v-4c0-1.654-1.346-3-3-3h-.975c.526-12.22,10.627-22,22.975-22,.658,0,1.319.03,2.001.091.028,1.603.809,3.055,2.095,3.966-.063.315-.096.631-.096.943,0,2.757,2.243,5,5,5,1.094,0,2.148-.366,3.008-1.017.521.698,1.216,1.255,2.013,1.604-.014.14-.021.276-.021.413,0,2.757,2.243,5,5,5,.947,0,1.863-.273,2.65-.774.784,2.177,1.208,4.449,1.307,6.774h-.957c-1.654,0-3,1.346-3,3v4c0,.552-.448,1-1,1-.267,0-.514-.103-.713-.307-.185-.18-.287-.427-.287-.693,0-.812-.316-1.566-.873-2.107-1.121-1.152-3.152-1.133-4.234-.02-.576.561-.893,1.315-.893,2.127v1c0,.553.447,1,1,1s1-.447,1-1v-1c0-.267.103-.514.307-.713.359-.369,1.008-.389,1.406.02.185.18.287.427.287.693,0,.812.316,1.566.873,2.107.561.576,1.315.893,2.127.893,1.654,0,3-1.346,3-3v-4c0-.552.448-1,1-1h.975c-.526,12.22-10.627,22-22.975,22Z"/>
</svg>