<?xml version="1.0" encoding="UTF-8"?>
<svg id="Outline" xmlns="http://www.w3.org/2000/svg" version="1.1" viewBox="0 0 64 64">
  <!-- Generator: Adobe Illustrator 29.5.1, SVG Export Plug-In . SVG Version: 2.1.0 Build 141)  -->
  <path d="M50.61,15.3c-.37-.41-1-.44-1.42-.08-.41.37-.44,1-.08,1.42,1.2,1.34,2.21,2.81,3.06,4.36h-1.17c-1.65,0-3,1.35-3,3v4c0,.55-.45,1-1,1s-1-.45-1-1v-1c0-1.65-1.35-3-3-3s-3,1.35-3,3v5c0,.55-.45,1-1,1s-1-.45-1-1v-2c0-1.65-1.35-3-3-3s-3,1.35-3,3v4c0,.55-.45,1-1,1s-1-.45-1-1v-1c0-1.65-1.35-3-3-3s-3,1.35-3,3v5c0,.55-.45,1-1,1s-1-.45-1-1v-1c0-1.65-1.35-3-3-3s-3,1.35-3,3v1c0,.55-.45,1-1,1s-1-.45-1-1v-4c0-1.65-1.35-3-3-3h-1.97c.52-12.22,10.62-22,22.97-22,5.25,0,10.21,1.73,14.32,5.01.43.35,1.06.28,1.4-.16.35-.43.28-1.06-.16-1.4-4.47-3.57-9.85-5.45-15.56-5.45-13.79,0-25,11.21-25,25,0,6.16,2.27,12.08,6.39,16.7.2.22.48.33.75.33.24,0,.48-.08.67-.25.41-.37.44-1,.08-1.42-3.58-3.99-5.61-9.06-5.84-14.36h1.95c.55,0,1,.45,1,1v4c0,1.65,1.35,3,3,3s3-1.35,3-3v-1c0-.55.45-1,1-1s1,.45,1,1v1c0,1.65,1.35,3,3,3,1.06,0,2-.56,2.53-1.4,1.79,1.54,4.06,2.4,6.47,2.4,5.51,0,10-4.49,10-10v-5c0-.55.45-1,1-1s1,.45,1,1v1c0,1.65,1.35,3,3,3s3-1.35,3-3v-4c0-.55.45-1,1-1h2c.04,0,.08-.02.13-.03,1.21,2.84,1.87,5.9,1.87,9.03,0,12.68-10.32,23-23,23-5.25,0-10.21-1.73-14.32-5.01-.43-.35-1.06-.28-1.4.16-.35.43-.28,1.06.16,1.4,4.47,3.57,9.85,5.45,15.56,5.45,13.79,0,25-11.21,25-25,0-6.16-2.27-12.08-6.39-16.7ZM32,40c-2.32,0-4.49-1-6-2.74v-4.26c0-.55.45-1,1-1s1,.45,1,1v1c0,1.65,1.35,3,3,3s3-1.35,3-3v-4c0-.55.45-1,1-1s1,.45,1,1v2c0,1.65,1.35,3,3,3,.15,0,.29-.02.43-.04-1.18,2.95-4.06,5.04-7.43,5.04Z"/>
  <path d="M36,49v-1c0-.553-.448-1-1-1h-6c-.552,0-1,.447-1,1v1c0,2.206,1.794,4,4,4s4-1.794,4-4ZM30,49h4c0,1.103-.897,2-2,2s-2-.897-2-2Z"/>
  <path d="M26,47v-2c0-.553-.448-1-1-1s-1,.447-1,1v2c0,.553.448,1,1,1s1-.447,1-1Z"/>
  <path d="M40,47v-2c0-.553-.448-1-1-1s-1,.447-1,1v2c0,.553.448,1,1,1s1-.447,1-1Z"/>
  <path d="M14,29c0,1.654,1.346,3,3,3s3-1.346,3-3-1.346-3-3-3-3,1.346-3,3ZM18,29c0,.552-.449,1-1,1s-1-.448-1-1,.449-1,1-1,1,.448,1,1Z"/>
  <path d="M24,27c1.654,0,3-1.346,3-3s-1.346-3-3-3-3,1.346-3,3,1.346,3,3,3ZM24,23c.551,0,1,.448,1,1s-.449,1-1,1-1-.448-1-1,.449-1,1-1Z"/>
  <path d="M26,16c0-1.654-1.346-3-3-3s-3,1.346-3,3,1.346,3,3,3,3-1.346,3-3ZM22,16c0-.552.449-1,1-1s1,.448,1,1-.449,1-1,1-1-.448-1-1Z"/>
  <path d="M29,22c0,1.654,1.346,3,3,3s3-1.346,3-3-1.346-3-3-3-3,1.346-3,3ZM33,22c0,.552-.449,1-1,1s-1-.448-1-1,.449-1,1-1,1,.448,1,1Z"/>
</svg>