<?xml version="1.0" encoding="UTF-8"?>
<svg id="Outline" xmlns="http://www.w3.org/2000/svg" version="1.1" viewBox="0 0 64 64">
  <!-- Generator: Adobe Illustrator 29.5.1, SVG Export Plug-In . SVG Version: 2.1.0 Build 141)  -->
  <path d="M56.792,31.399l-7-9c-.19-.25-.48-.39-.79-.39h-25.65l3.62-13.75c.08-.29.01-.62-.18-.86-.19-.25-.48-.39-.79-.39h-14c-.49,0-.91.35-.99.84l-4,24c-.05.29.04.58.23.81.19.22.47.35.76.35h3v23c0,.997,1.469,1.402,1.91.41l6.46-14.41h29.63c.31,0,.6-.14.79-.39l7-9c.28-.36.28-.86,0-1.22ZM17.812,40.599c0,.01-.01.03-.02.04l-4.79,10.69v-19.32c0-.55-.45-1-1-1h-2.82l3.67-22h11.85l-4.67,17.75c-.08.29-.01.62.18.86.19.25.48.39.79.39h2.46l-5.65,12.59ZM25.652,28.009h20.9l3.11,4-3.11,4h-24.49l3.59-8ZM48.512,40.009h-28.24l.89-2h25.88c.31,0,.6-.14.79-.39l3.89-5c.28-.36.28-.86,0-1.22l-3.89-5c-.19-.25-.48-.39-.79-.39h-24.74l.52-2h25.69l6.22,8-6.22,8Z"/>
</svg>