<?xml version="1.0" encoding="UTF-8"?>
<svg id="Outline" xmlns="http://www.w3.org/2000/svg" version="1.1" viewBox="0 0 64 64">
  <!-- Generator: Adobe Illustrator 29.5.1, SVG Export Plug-In . SVG Version: 2.1.0 Build 141)  -->
  <path d="M21.538,37.602c-.088.27-.057.563.086.81l1.498,2.589-1.498,2.589c-.143.246-.174.54-.086.81.088.271.286.49.545.605l2.735,1.214.309,2.976c.03.282.178.539.407.705.229.168.518.23.797.169l2.925-.624,2,2.226c.19.211.46.331.744.331s.554-.12.744-.331l2-2.226,2.925.624c.278.062.567,0,.797-.169.229-.166.377-.423.407-.705l.309-2.976,2.735-1.214c.259-.115.457-.335.545-.605.088-.27.057-.563-.086-.81l-1.498-2.589,1.498-2.589c.143-.246.174-.54.086-.81-.088-.271-.286-.49-.545-.605l-2.735-1.214-.309-2.976c-.03-.282-.178-.539-.407-.705-.229-.168-.519-.232-.797-.169l-2.925.624-2-2.226c-.381-.422-1.107-.422-1.488,0l-2,2.226-2.925-.624c-.279-.063-.568,0-.797.169-.229.166-.377.423-.407.705l-.309,2.976-2.735,1.214c-.259.115-.457.335-.545.605ZM25.143,40.499l-1.23-2.127,2.247-.997c.327-.146.552-.454.589-.811l.254-2.444,2.402.513c.351.079.714-.043.953-.309l1.643-1.828,1.643,1.828c.24.266.603.387.953.309l2.402-.513.254,2.444c.037.356.262.665.589.811l2.247.997-1.23,2.127c-.18.31-.18.692,0,1.002l1.23,2.127-2.247.997c-.327.146-.552.454-.589.811l-.254,2.444-2.402-.513c-.35-.077-.713.043-.953.309l-1.643,1.828-1.643-1.828c-.192-.213-.464-.331-.744-.331-.069,0-.14.007-.209.022l-2.402.513-.254-2.444c-.037-.356-.262-.665-.589-.811l-2.247-.997,1.23-2.127c.18-.31.18-.692,0-1.002Z"/>
  <path d="M36.897,15.511l-2.73-.459-1.28-2.455c-.346-.66-1.428-.66-1.773,0l-1.28,2.455-2.73.459c-.367.062-.67.323-.785.677-.115.354-.023.743.237,1.01l1.938,1.977-.405,2.739c-.055.368.101.736.401.956.302.219.702.252,1.033.086l2.479-1.232,2.479,1.232c.14.07.293.104.445.104.601,0,1.078-.555.99-1.146l-.405-2.739,1.938-1.977c.261-.267.353-.655.237-1.01-.115-.354-.418-.614-.785-.677ZM33.731,18.129c-.22.224-.321.537-.275.847l.198,1.336-1.209-.602c-.141-.069-.293-.104-.445-.104s-.305.035-.445.104l-1.209.602.198-1.336c.046-.31-.056-.623-.275-.847l-.944-.964,1.331-.224c.309-.052.575-.246.721-.523l.624-1.196.624,1.196c.146.277.412.472.721.523l1.331.224-.944.964Z"/>
  <path d="M49.629,16.451l-2.73-.459-1.28-2.455c-.346-.66-1.428-.66-1.773,0l-1.28,2.455-2.73.459c-.367.062-.67.323-.785.678-.115.354-.023.743.237,1.009l1.938,1.977-.406,2.739c-.055.368.1.736.401.955.303.222.702.254,1.033.087l2.479-1.232,2.479,1.232c.141.07.293.104.445.104.599,0,1.077-.556.99-1.146l-.406-2.739,1.938-1.977c.261-.267.353-.655.237-1.01-.115-.354-.418-.614-.785-.677ZM46.463,19.069c-.22.224-.321.537-.275.847l.198,1.336-1.209-.602c-.141-.069-.293-.104-.445-.104s-.305.035-.445.104l-1.208.601.198-1.335c.046-.31-.056-.623-.275-.847l-.945-.964,1.331-.224c.309-.052.575-.246.721-.523l.624-1.196.624,1.196c.146.277.412.472.721.523l1.331.224-.944.964Z"/>
  <path d="M24.629,16.451l-2.73-.459-1.28-2.455c-.346-.66-1.428-.66-1.773,0l-1.28,2.455-2.73.459c-.367.062-.67.323-.785.678-.115.354-.023.743.237,1.009l1.938,1.977-.406,2.739c-.055.368.1.736.401.955.303.222.702.254,1.033.087l2.479-1.232,2.479,1.232c.141.07.293.104.445.104.603,0,1.078-.549.989-1.146l-.406-2.739,1.938-1.977c.261-.267.353-.655.237-1.01-.115-.354-.418-.614-.785-.677ZM21.463,19.069c-.22.224-.321.537-.275.847l.198,1.336-1.209-.602c-.141-.069-.293-.104-.445-.104s-.305.035-.445.104l-1.208.601.198-1.335c.046-.31-.056-.623-.275-.847l-.945-.964,1.331-.224c.309-.052.575-.246.721-.523l.624-1.196.624,1.196c.146.277.412.472.721.523l1.331.224-.944.964Z"/>
  <path d="M54,8H10c-1.654,0-3,1.346-3,3v14c0,1.654,1.346,3,3,3h14.548c-4.503,2.591-7.548,7.442-7.548,13,0,8.271,6.729,15,15,15s15-6.729,15-15c0-5.558-3.045-10.409-7.548-13h14.548c1.654,0,3-1.346,3-3v-14c0-1.654-1.346-3-3-3ZM45,41c0,7.168-5.832,13-13,13s-13-5.832-13-13,5.832-13,13-13,13,5.832,13,13ZM55,25c0,.552-.448,1-1,1H10c-.552,0-1-.448-1-1v-14c0-.552.448-1,1-1h44c.552,0,1,.448,1,1v14Z"/>
  <path d="M31.293,45.707c.195.195.451.293.707.293s.512-.098.707-.293l3-3c.391-.391.391-1.023,0-1.414s-1.023-.391-1.414,0l-1.293,1.293v-5.586c0-.553-.447-1-1-1s-1,.447-1,1v5.586l-1.293-1.293c-.391-.391-1.023-.391-1.414,0s-.391,1.023,0,1.414l3,3Z"/>
</svg>