<?xml version="1.0" encoding="UTF-8"?>
<svg id="Outline" xmlns="http://www.w3.org/2000/svg" version="1.1" viewBox="0 0 64 64">
  <!-- Generator: Adobe Illustrator 29.5.1, SVG Export Plug-In . SVG Version: 2.1.0 Build 141)  -->
  <path d="M47,37c.55,0,1-.45,1-1v-2c0-1.65-1.35-3-3-3h-6v-2.31c2.89-1.2,4.97-3.71,5.7-6.69h1.3c.55,0,1-.45,1-1s-.45-1-1-1h-1.02c0-.11.02-.21.02-.32v-6.68h1c.55,0,1-.45,1-1s-.45-1-1-1h-1v-3c0-.55-.45-1-1-1h-24c-.55,0-1,.45-1,1v3h-1c-.55,0-1,.45-1,1s.45,1,1,1h1v6.68c0,.11.02.21.02.32h-1.02c-.55,0-1,.45-1,1s.45,1,1,1h1.3c.73,2.98,2.81,5.49,5.7,6.69v2.31h-6c-1.65,0-3,1.35-3,3v20c0,1.65,1.35,3,3,3h26c1.65,0,3-1.35,3-3v-10c0-.55-.45-1-1-1s-1,.45-1,1v10c0,.55-.45,1-1,1h-2v-5c0-.55-.45-1-1-1h-20c-.55,0-1,.45-1,1v5h-2c-.55,0-1-.45-1-1v-20c0-.55.45-1,1-1h26c.55,0,1,.45,1,1v2c0,.55.45,1,1,1ZM23,51h18v4h-18v-4ZM21,9h22v2h-22v-2ZM21,19.68v-6.68h22v6.68c0,.11-.02.21-.03.32h-21.94c-.01-.11-.03-.21-.03-.32ZM37,28v3h-10v-3c0-.43-.28-.81-.68-.95-2.42-.8-4.23-2.71-4.96-5.05h21.28c-.73,2.34-2.54,4.25-4.96,5.05-.4.14-.68.52-.68.95Z"/>
  <path d="M43,35h-22c-.55,0-1,.45-1,1v10c0,.55.45,1,1,1h22c.55,0,1-.45,1-1v-10c0-.55-.45-1-1-1ZM36,37h2v2h-2v-2ZM26,37h2v2h-2v-2ZM42,45h-20v-8h2v3c0,.55.45,1,1,1h4c.55,0,1-.45,1-1v-3h4v3c0,.55.45,1,1,1h4c.55,0,1-.45,1-1v-3h2v8Z"/>
  <circle cx="47" cy="40" r="1"/>
</svg>