<?xml version="1.0" encoding="UTF-8"?>
<svg id="Outline" xmlns="http://www.w3.org/2000/svg" version="1.1" viewBox="0 0 64 64">
  <!-- Generator: Adobe Illustrator 29.5.1, SVG Export Plug-In . SVG Version: 2.1.0 Build 141)  -->
  <path d="M52.231,10.028l-13-3c-.48-.11-.96.13-1.15.58l-1.69,3.97c-2.39-1.63-5.28-2.58-8.39-2.58-7.93,0-14.43,6.2-14.95,14h-1.05c-.55,0-1,.45-1,1v4c0,.55.45,1,1,1h1.13l3.88,27.14c.07.49.49.86.99.86h20c.5,0,.92-.37.99-.86l3.88-27.14h1.13c.55,0,1-.45,1-1v-4c0-.55-.45-1-1-1h-1.05c-.27-4.01-2.11-7.59-4.93-10.13l1.57-3.71,12.18,2.81c.54.12,1.08-.21,1.2-.74.13-.54-.21-1.08-.74-1.2ZM28.001,10.998c2.83,0,5.45.92,7.59,2.47l-4.05,9.53H15.051c.51-6.7,6.12-12,12.95-12ZM13.001,26.998v-2h17.69l-.85,2H13.001ZM37.131,54.998h-18.26l-3.72-26h13.84l-7.91,18.61c-.22.51.02,1.09.53,1.31.51.196,1.091-.011,1.31-.53l8.24-19.39h9.69l-3.72,26ZM43.001,24.998v2h-10.99l.85-2h10.14ZM40.951,22.998h-7.24l3.48-8.19c2.13,2.14,3.52,5.01,3.76,8.19Z"/>
</svg>