<?xml version="1.0" encoding="UTF-8"?>
<svg id="Outline" xmlns="http://www.w3.org/2000/svg" version="1.1" viewBox="0 0 64 64">
  <!-- Generator: Adobe Illustrator 29.3.1, SVG Export Plug-In . SVG Version: 2.1.0 Build 151)  -->
  <path d="M56,51h-12.53998c.77997-1.03003,1.13-2.33002.96997-3.62l-.16998-1.39001,2.42999-1.22003c2.65997-1.32996,4.31-4,4.31-6.96997,0-4.29999-3.5-7.79999-7.79999-7.79999h-.94l-.27002-2.12c-.06-.5-.48999-.88-.98999-.88h-23c-.37,0-.71002.20001-.88.52997-.17999.32001-.15997.72003.04999,1.02002l3.79999,5.70001-1.46997,13.20001c-.14001,1.26996.21002,2.53998.96997,3.54999h-6.46997v-30c.54999,0,1-.45001,1-1v-1h9.38l2.72998,5.45001c.16003.33997.51001.54999.89001.54999h6c.38,0,.72998-.21002.89001-.54999l2.72998-5.45001h12.38c.54999,0,1-.45001,1-1v-4c0-.54999-.45001-1-1-1h-9.38l2.27002-4.54999c.15997-.31.14001-.68005-.04004-.98004-.17999-.28998-.5-.46997-.84998-.46997h-22c-.34998,0-.66998.17999-.84998.46997-.18005.29999-.20001.67004-.04004.98004l2.27002,4.54999h-6.38v-1c0-.54999-.45001-1-1-1v-3c0-.54999-.45001-1-1-1h-4c-.54999,0-1,.45001-1,1v3c-.54999,0-1,.45001-1,1v8c0,.54999.45001,1,1,1v5c0,.54999.45001,1,1,1s1-.45001,1-1v-5h2v30h-2v-17c0-.54999-.45001-1-1-1s-1,.45001-1,1v17c-.54999,0-1,.45001-1,1v4c0,.54999.45001,1,1,1h48c.54999,0,1-.45001,1-1v-4c0-.54999-.45001-1-1-1ZM33.38,23h-4.76001l-2-4h8.76001l-2,4ZM40.38,9l-2,4h-14.76001l-2-4h18.76001ZM15,15h34v2H15v-2ZM43.20001,32c3.20001,0,5.79999,2.59998,5.79999,5.79999,0,2.21002-1.22998,4.20001-3.21002,5.17999l-1.79999.91003-1.47998-11.89001h.69ZM42.45001,47.63c.09998.84998-.16003,1.70996-.73004,2.35999-.56995.64001-1.38995,1.01001-2.25,1.01001h-15c-.87,0-1.65997-.35004-2.23999-1-.56-.63-.83997-1.48004-.73999-2.33002l.73999-6.71002c.03003-.00995.06,0,.09003-.00995l1.52002-.51001c2.64996-.88,5.50995-.73999,8.06.38995,1.69.75,3.51996,1.13,5.34998,1.13,1.48999,0,2.97998-.26996,4.39001-.76996l.81,6.44ZM19.87,29h20.25l1.27002,10.16998c-2.78003,1.10999-5.94,1.04999-8.67004-.16998-3.00995-1.34003-6.38995-1.5-9.50995-.46002l-.74005.25.52002-4.67999c.03003-.22998-.02997-.46997-.15997-.65997l-2.96002-4.45001ZM10,9h2v2h-2v-2ZM9,19v-6h4v6h-4ZM55,55H9v-2h46v2Z"/>
  <circle cx="9" cy="30" r="1"/>
</svg>