<?xml version="1.0" encoding="UTF-8"?>
<svg id="Outline" xmlns="http://www.w3.org/2000/svg" version="1.1" viewBox="0 0 64 64">
  <!-- Generator: Adobe Illustrator 29.5.1, SVG Export Plug-In . SVG Version: 2.1.0 Build 141)  -->
  <path d="M36,41h-.32001l-3.75-9.37c-.14996-.38-.52002-.63-.92999-.63H15c-.40997,0-.78003.25-.92999.63l-3.75,9.37h-.32001c-1.65002,0-3,1.34998-3,3v4c0,1.64996,1.34998,3,3,3v3c0,1.64996,1.34998,3,3,3h2c1.65002,0,3-1.35004,3-3v-3h10v3c0,1.64996,1.34998,3,3,3h2c1.65002,0,3-1.35004,3-3v-3c1.65002,0,3-1.35004,3-3v-4c0-1.65002-1.34998-3-3-3ZM15.67999,33h14.64001l3.20001,8h-2.62c-.47003-2.28003-2.49005-4-4.90002-4s-4.42999,1.71997-4.90002,4h-8.62l3.20001-8ZM28.82001,41h-5.64001c.41998-1.16003,1.52002-2,2.82001-2s2.40002.83997,2.82001,2ZM16,54c0,.54999-.45001,1-1,1h-2c-.54999,0-1-.45001-1-1v-3h4v3ZM20.62,49l1-2h2.76001l1,2h-4.76001ZM34,54c0,.54999-.45001,1-1,1h-2c-.54999,0-1-.45001-1-1v-3h4v3ZM37,48c0,.54999-.45001,1-1,1h-8.38l-1.72998-3.45001c-.17004-.34003-.51001-.54999-.89001-.54999h-4c-.38,0-.71997.20996-.89001.54999l-1.72998,3.45001h-8.38c-.54999,0-1-.45001-1-1v-4c0-.54999.45001-1,1-1h26c.54999,0,1,.45001,1,1v4Z"/>
  <path d="M34,45h-4c-.55273,0-1,.44727-1,1s.44727,1,1,1h4c.55273,0,1-.44727,1-1s-.44727-1-1-1Z"/>
  <path d="M16,45h-4c-.55273,0-1,.44727-1,1s.44727,1,1,1h4c.55273,0,1-.44727,1-1s-.44727-1-1-1Z"/>
  <path d="M56,7h-16c-.54999,0-1,.45001-1,1v4c0,.54999.45001,1,1,1h1v2h-6v-1c0-1.65002-1.34998-3-3-3h-16c-1.65002,0-3,1.34998-3,3v8c0,1.64996,1.34998,3,3,3h16c1.65002,0,3-1.35004,3-3v-1h6v1c0,1.29999.84003,2.39996,2,2.82001v14.35999c-1.15997.41998-2,1.52002-2,2.82001v14c0,.54999.45001,1,1,1h14c.54999,0,1-.45001,1-1V8c0-.54999-.45001-1-1-1ZM33,22c0,.54999-.45001,1-1,1h-16c-.54999,0-1-.45001-1-1v-8c0-.54999.45001-1,1-1h16c.54999,0,1,.45001,1,1v8ZM41,19h-6v-2h6v2ZM55,55h-12v-13c0-.54999.45001-1,1-1h6c1.65002,0,3-1.35004,3-3v-12c0-1.65002-1.34998-3-3-3h-6c-.54999,0-1-.45001-1-1v-9h12v42ZM45,39v-14h5c.54999,0,1,.45001,1,1v12c0,.54999-.45001,1-1,1h-5ZM55,11h-14v-2h14v2Z"/>
  <path d="M30,15h-12c-.55273,0-1,.44727-1,1s.44727,1,1,1h12c.55273,0,1-.44727,1-1s-.44727-1-1-1Z"/>
  <path d="M26,19h-8c-.55273,0-1,.44727-1,1s.44727,1,1,1h8c.55273,0,1-.44727,1-1s-.44727-1-1-1Z"/>
</svg>