<?xml version="1.0" encoding="UTF-8"?>
<svg id="Outline" xmlns="http://www.w3.org/2000/svg" version="1.1" viewBox="0 0 64 64">
  <!-- Generator: Adobe Illustrator 29.5.1, SVG Export Plug-In . SVG Version: 2.1.0 Build 141)  -->
  <path d="M56,15h-1v-3c0-.55-.45-1-1-1h-1v-2h2c.55,0,1-.45,1-1s-.45-1-1-1h-6c-.55,0-1,.45-1,1s.45,1,1,1h2v2h-1c-.55,0-1,.45-1,1v3h-1.83c-.16,0-.31.04-.45.11l-3.79,1.89h-1.93v-7c0-1.65-1.35-3-3-3h-12c-1.65,0-3,1.35-3,3v7h-1.93l-3.79-1.89c-.14-.07-.29-.11-.45-.11h-1.83v-3c0-.55-.45-1-1-1h-1v-2h2c.55,0,1-.45,1-1s-.45-1-1-1h-6c-.55,0-1,.45-1,1s.45,1,1,1h2v2h-1c-.55,0-1,.45-1,1v3h-1c-.55,0-1,.45-1,1v4c0,.55.45,1,1,1h4.76l-3.47,3.46c-.18.19-.29.44-.29.71v12.83c0,1.65,1.35,3,3,3h5v13c0,1.65,1.35,3,3,3h24c1.65,0,3-1.35,3-3v-13h5c1.65,0,3-1.35,3-3v-12.83c0-.27-.11-.52-.29-.71l-3.47-3.46h4.76c.55,0,1-.45,1-1v-4c0-.55-.45-1-1-1ZM51,13h2v2h-2v-2ZM29,9h6v10h-6v-10ZM25,10c0-.55.45-1,1-1h1v11c0,.55.45,1,1,1h8c.55,0,1-.45,1-1v-11h1c.55,0,1,.45,1,1v13h-14v-13ZM42,25v1c0,.55-.45,1-1,1h-18c-.55,0-1-.45-1-1v-1h20ZM11,13h2v2h-2v-2ZM9,19v-2h7.59l3.79,1.89c.14.07.29.11.45.11h2.17v4h-3.42l-3.7-3.71c-.19-.18-.44-.29-.71-.29h-6.17ZM17,39h-5c-.55,0-1-.45-1-1v-12.42l4.17-4.17,1.42,1.42-3.3,3.29c-.18.19-.29.44-.29.71v9.17c0,.55.45,1,1,1h3v2ZM45,54c0,.55-.45,1-1,1h-24c-.55,0-1-.45-1-1v-18c0-.55.45-1,1-1h2v9c0,.55.45,1,1,1h18c.55,0,1-.45,1-1v-9h2c.55,0,1,.45,1,1v18ZM24,43v-8h16v8h-16ZM46.82,35c-.42-1.16-1.52-2-2.82-2h-24c-1.3,0-2.4.84-2.82,2h-2.18v-7.76l3-3,.46.47c.19.18.44.29.71.29h.83v1c0,1.65,1.35,3,3,3h18c1.65,0,3-1.35,3-3v-1h.83c.27,0,.52-.11.71-.29l.46-.47,3,3v7.76h-2.18ZM53,25.58v12.42c0,.55-.45,1-1,1h-5v-2h3c.55,0,1-.45,1-1v-9.17c0-.27-.11-.52-.29-.71l-3.3-3.29,1.42-1.42,4.17,4.17ZM55,19h-6.17c-.27,0-.52.11-.71.29l-3.7,3.71h-3.42v-4h2.17c.16,0,.31-.04.45-.11l3.79-1.89h7.59v2Z"/>
</svg>