<?xml version="1.0" encoding="UTF-8"?>
<svg id="Outline" xmlns="http://www.w3.org/2000/svg" version="1.1" viewBox="0 0 64 64">
  <!-- Generator: Adobe Illustrator 29.5.1, SVG Export Plug-In . SVG Version: 2.1.0 Build 141)  -->
  <path d="M56,15h-1v-3c0-.55-.45-1-1-1h-1v-2h2c.55,0,1-.45,1-1s-.45-1-1-1h-6c-.55,0-1,.45-1,1s.45,1,1,1h2v2h-1c-.55,0-1,.45-1,1v3h-1.83c-.16,0-.31.04-.45.11l-3.79,1.89h-6.93c-.55,0-1,.45-1,1s.45,1,1,1h3v4h-14v-4h3c.55,0,1-.45,1-1s-.45-1-1-1h-6.93l-3.79-1.89c-.14-.07-.29-.11-.45-.11h-1.83v-3c0-.55-.45-1-1-1h-1v-2h2c.55,0,1-.45,1-1s-.45-1-1-1h-6c-.55,0-1,.45-1,1s.45,1,1,1h2v2h-1c-.55,0-1,.45-1,1v3h-1c-.55,0-1,.45-1,1v4c0,.55.45,1,1,1h4.76l-3.47,3.46c-.18.19-.29.44-.29.71v15.66c0,.27.11.52.29.71l8.71,8.69v3.77c0,1.65,1.35,3,3,3h22c1.65,0,3-1.35,3-3v-3.77l8.71-8.69c.18-.19.29-.44.29-.71v-15.66c0-.27-.11-.52-.29-.71l-3.47-3.46h4.76c.55,0,1-.45,1-1v-4c0-.55-.45-1-1-1ZM51,13h2v2h-2v-2ZM34.82,25c-.42,1.16-1.52,2-2.82,2s-2.4-.84-2.82-2h5.64ZM27.1,25c.47,2.28,2.49,4,4.9,4s4.43-1.72,4.9-4h5.1v5c0,.55-.45,1-1,1h-18c-.55,0-1-.45-1-1v-5h5.1ZM11,13h2v2h-2v-2ZM9,19v-2h7.59l3.79,1.89c.14.07.29.11.45.11h2.17v4h-3.42l-3.7-3.71c-.1-.09-.21-.16-.33-.21-.12-.05-.25-.08-.38-.08h-6.17ZM18,47.41l-7-6.99v-14.84l4.17-4.17,1.42,1.42-3.3,3.29c-.18.19-.29.44-.29.71v12.34c0,.26.11.52.29.71l4.71,4.71v2.82ZM44,54c0,.55-.45,1-1,1h-22c-.55,0-1-.45-1-1v-16c0-.55.45-1,1-1h3v9c0,.31.15.61.4.8s.57.25.87.16l6.73-1.92,6.73,1.92c.637.182,1.27-.302,1.27-.96v-9h3c.55,0,1,.45,1,1v16ZM26,44.67v-7.67h12v7.67l-5.73-1.63c-.09-.03-.18-.04-.27-.04s-.18.01-.27.04l-5.73,1.63ZM43,35h-22c-1.65,0-3,1.35-3,3v3.76l-3-3v-11.52l3-3,.46.47c.19.18.44.29.71.29h.83v5c0,1.65,1.35,3,3,3h18c1.65,0,3-1.35,3-3v-5h.83c.27,0,.52-.11.71-.29l.46-.47,3,3v11.52l-3,3v-3.76c0-1.65-1.35-3-3-3ZM53,25.58v14.84l-7,6.99v-2.82l4.71-4.71c.18-.19.29-.45.29-.71v-12.34c0-.27-.11-.52-.29-.71l-3.3-3.29,1.42-1.42,4.17,4.17ZM55,19h-6.17c-.13,0-.26.03-.38.08-.12.05-.23.12-.33.21l-3.7,3.71h-3.42v-4h2.17c.16,0,.31-.04.45-.11l3.79-1.89h7.59v2Z"/>
  <circle cx="32" cy="18" r="1"/>
</svg>