<?xml version="1.0" encoding="UTF-8"?>
<svg id="Outline" xmlns="http://www.w3.org/2000/svg" version="1.1" viewBox="0 0 64 64">
  <!-- Generator: Adobe Illustrator 29.5.1, SVG Export Plug-In . SVG Version: 2.1.0 Build 141)  -->
  <path d="M56,34.98c.55,0,1-.45,1-1v-4c0-.55-.45-1-1-1H8c-.55,0-1,.45-1,1v4c0,.55.45,1,1,1h1v16h-1c-.55,0-1,.45-1,1v4c0,.55.45,1,1,1h48c.55,0,1-.45,1-1v-4c0-.55-.45-1-1-1h-1v-16h1ZM55,54.98H9v-2h46v2ZM16.88,43.69c.39-.39.39-1.03,0-1.42l-5.88-5.88v-1.41h1.41l5.88,5.88c.2.19.45.29.71.29s.51-.1.71-.29l5.88-5.88h2.82l-7.29,7.29c-.39.39-.39,1.03,0,1.42l7.29,7.29h-2.82l-5.88-5.88c-.39-.39-1.03-.39-1.42,0l-5.88,5.88h-1.41v-1.41l5.88-5.88ZM11,46.74v-7.52l3.76,3.76-3.76,3.76ZM15.24,34.98h7.52l-3.76,3.76-3.76-3.76ZM44.29,40.86c.2.19.45.29.71.29s.51-.1.71-.29l5.88-5.88h1.41v1.41l-5.88,5.88c-.39.39-.39,1.03,0,1.42l5.88,5.88v1.41h-1.41l-5.88-5.88c-.39-.39-1.03-.39-1.42,0l-5.88,5.88h-2.82l7.29-7.29c.39-.39.39-1.03,0-1.42l-7.29-7.29h2.82l5.88,5.88ZM41.24,34.98h7.52l-3.76,3.76-3.76-3.76ZM53,39.22v7.52l-3.76-3.76,3.76-3.76ZM48.76,50.98h-7.52l3.76-3.76,3.76,3.76ZM40.76,42.98l-7.99,8h-1.54l-7.99-8,7.99-8h1.54l7.99,8ZM22.76,50.98h-7.52l3.76-3.76,3.76,3.76ZM9,32.98v-2h46v2H9Z"/>
  <path d="M10.833,13.848l10.193,7.646c-.112,1.024.081,2.384,1.533,3.918.946.999,2.202,1.568,3.453,1.568.019,0,.036,0,.054,0,1.485-.02,2.875-.692,3.813-1.846.938-1.153,1.312-2.665,1.023-4.147-.32-1.647-1.501-3.049-3.082-3.66-.994-.383-2.028-.448-3.027-.195l-9.002-9.002c-.748-.749-1.788-1.146-2.841-1.108-1.057.044-2.055.533-2.737,1.34-.673.794-.991,1.842-.875,2.876.117,1.034.661,1.985,1.494,2.609ZM11.74,9.655c.671-.792,1.903-.844,2.638-.11l9.434,9.434c.283.283.709.369,1.078.222.726-.291,1.47-.294,2.211-.007.931.359,1.652,1.213,1.84,2.175.177.912-.04,1.801-.611,2.503-.563.692-1.397,1.097-2.288,1.108-.694-.018-1.452-.334-2.028-.943-1.161-1.226-1.085-2.061-.923-2.746.091-.387-.056-.792-.374-1.03,0,0-10.647-7.986-10.683-8.013-.813-.609-.945-1.822-.292-2.593Z"/>
  <path d="M37.933,26.881c1.287-.003,2.575-.485,3.507-1.469,1.452-1.535,1.646-2.894,1.533-3.918l10.193-7.645c.833-.625,1.377-1.576,1.494-2.61.116-1.034-.202-2.082-.874-2.876-.684-.808-1.682-1.296-2.738-1.34-1.052-.041-2.093.359-2.841,1.108l-9.002,9.002c-.997-.253-2.031-.189-3.027.195-1.581.61-2.762,2.013-3.082,3.66-.288,1.482.085,2.994,1.023,4.147.942,1.157,2.377,1.75,3.813,1.747ZM35.06,21.369c.188-.962.909-1.816,1.84-2.175.367-.142.735-.213,1.102-.213.372,0,.743.073,1.109.22.369.147.794.062,1.078-.222l9.433-9.434c.732-.732,1.972-.678,2.639.11.659.779.52,1.984-.293,2.594l-10.684,8.013c-.318.238-.465.643-.374,1.03.162.686.238,1.52-.923,2.746-1.194,1.261-3.219,1.184-4.317-.165-.571-.703-.788-1.592-.611-2.503Z"/>
</svg>