<?xml version="1.0" encoding="UTF-8"?>
<svg id="Outline" xmlns="http://www.w3.org/2000/svg" version="1.1" viewBox="0 0 64 64">
  <!-- Generator: Adobe Illustrator 29.5.1, SVG Export Plug-In . SVG Version: 2.1.0 Build 141)  -->
  <path d="M40,43h-4c-.553,0-1,.448-1,1s.447,1,1,1h4c.553,0,1-.448,1-1s-.447-1-1-1Z"/>
  <path d="M54.71,29.29l-4-4c-.19-.18-.44-.29-.71-.29h-8c-.55,0-1,.45-1,1v7.59l-.29-.3c-.19-.18-.44-.29-.71-.29h-1V10c0-1.65-1.35-3-3-3H12c-1.65,0-3,1.35-3,3v44c0,1.65,1.35,3,3,3h24c1.65,0,3-1.35,3-3v-5h5c.55,0,1-.45,1-1v-7h9c.55,0,1-.45,1-1v-10c0-.27-.11-.52-.29-.71ZM17,9h14v1c0,.55-.45,1-1,1h-12c-.55,0-1-.45-1-1v-1ZM21.18,55h-9.18c-.55,0-1-.45-1-1v-1.18c.31.11.65.18,1,.18h9.18c-.11.31-.18.65-.18,1s.07.69.18,1ZM24,55c-.55,0-1-.45-1-1s.45-1,1-1,1,.45,1,1-.45,1-1,1ZM37,54c0,.55-.45,1-1,1h-9.18c.11-.31.18-.65.18-1s-.07-.69-.18-1h9.18c.35,0,.69-.07,1-.18v1.18ZM37,50c0,.55-.45,1-1,1H12c-.55,0-1-.45-1-1V10c0-.55.45-1,1-1h3v1c0,1.65,1.35,3,3,3h12c1.65,0,3-1.35,3-3v-1h3c.55,0,1,.45,1,1v23h-5c-.55,0-1,.45-1,1v14c0,.55.45,1,1,1h5v1ZM43,47h-10v-6h10v6ZM43,39h-10v-4h6.59l1.7,1.71,1.71,1.7v.59ZM53,39h-8v-1c0-.27-.11-.52-.29-.71l-1.71-1.7v-2.59h10v6ZM53,31h-10v-4h6.59l3.41,3.41v.59Z"/>
  <path d="M50,35h-4c-.553,0-1,.448-1,1s.447,1,1,1h4c.553,0,1-.448,1-1s-.447-1-1-1Z"/>
  <path d="M14,23h20c.553,0,1-.448,1-1v-6c0-.552-.447-1-1-1H14c-.553,0-1,.448-1,1v6c0,.552.447,1,1,1ZM15,17h18v4H15v-4Z"/>
  <path d="M18,25h-4c-.553,0-1,.448-1,1v4c0,.552.447,1,1,1h4c.553,0,1-.448,1-1v-4c0-.552-.447-1-1-1ZM17,29h-2v-2h2v2Z"/>
  <path d="M26,25h-4c-.553,0-1,.448-1,1v4c0,.552.447,1,1,1h4c.553,0,1-.448,1-1v-4c0-.552-.447-1-1-1ZM25,29h-2v-2h2v2Z"/>
  <path d="M35,30v-4c0-.552-.447-1-1-1h-4c-.553,0-1,.448-1,1v4c0,.552.447,1,1,1h4c.553,0,1-.448,1-1ZM33,29h-2v-2h2v2Z"/>
</svg>