<?xml version="1.0" encoding="UTF-8"?>
<svg id="Outline" xmlns="http://www.w3.org/2000/svg" version="1.1" viewBox="0 0 64 64">
  <!-- Generator: Adobe Illustrator 29.5.1, SVG Export Plug-In . SVG Version: 2.1.0 Build 141)  -->
  <path d="M54.5,34v-3c0-.94-.66-1.73-1.54-1.94,2.17-2.01,3.54-4.88,3.54-8.06,0-6.07-4.93-11-11-11-1.42,0-2.78.28-4.02.77-.12-2.1-1.85-3.77-3.98-3.77H11.5c-2.21,0-4,1.79-4,4v42c0,2.21,1.79,4,4,4h26c2.21,0,4-1.79,4-4v-4h11c1.1,0,2-.9,2-2v-3c1.1,0,2-.9,2-2v-6c0-1.1-.9-2-2-2ZM45.5,12c4.96,0,9,4.04,9,9s-4.04,9-9,9-9-4.04-9-9,4.04-9,9-9ZM37.97,29h-15.47c-1.1,0-2-.9-2-2s.9-2,2-2h12.76c.6,1.53,1.54,2.89,2.71,4ZM52.5,47h-22c-.55,0-1,.45-1,1s.45,1,1,1h5v2H13.5v-25c0-.55-.45-1-1-1s-1,.45-1,1v25c0,1.1.9,2,2,2h22c1.1,0,2-.9,2-2v-2h2v4c0,1.1-.9,2-2,2H11.5c-1.1,0-2-.9-2-2V11c0-1.1.9-2,2-2h26c1.1,0,2,.9,2,2v.79c-.73.48-1.4,1.05-2,1.68v-.47c0-1.1-.9-2-2-2h-6.38c-.77,0-1.45.42-1.8,1.11l-.44.89-4.76.01-.45-.91c-.34-.68-1.02-1.1-1.79-1.1h-6.38c-1.1,0-2,.9-2,2v9c0,.55.45,1,1,1s1-.45,1-1v-9l6.38-.01.45.91c.34.68,1.02,1.1,1.79,1.1h4.76c.77,0,1.45-.42,1.8-1.11l.44-.89h6.38v3.44c-.64,1.39-1,2.93-1,4.56,0,.68.07,1.35.19,2h-12.19c-2.21,0-4,1.79-4,4v18c0,2.21,1.79,4,4,4h4c.55,0,1-.45,1-1s-.45-1-1-1h-4c-1.1,0-2-.9-2-2v-14.56c.59.35,1.27.56,2,.56h18.44c1.39.64,2.93,1,4.56,1s3.17-.36,4.56-1h2.44v3h-5c-2.76,0-5,2.24-5,5s2.24,5,5,5h5v3ZM54.5,42h-7c-1.65,0-3-1.35-3-3s1.35-3,3-3h7v6Z"/>
  <circle cx="47.5" cy="39" r="1"/>
  <path d="M43.378,24.879c-.39.391-.39,1.024,0,1.415.391.39,1.024.39,1.415,0,.377-.378,1.036-.378,1.413,0,.195.195.452.293.708.293s.512-.098.707-.292c.391-.391.391-1.024,0-1.415-1.134-1.134-3.109-1.134-4.243,0Z"/>
  <path d="M40.55,22.05c-.391.391-.391,1.023,0,1.414s1.023.391,1.414,0c1.949-1.949,5.122-1.949,7.071,0,.195.195.451.293.707.293s.512-.098.707-.293c.391-.391.391-1.023,0-1.414-2.729-2.729-7.17-2.729-9.899,0Z"/>
  <path d="M37.722,20.636c.391.391,1.023.391,1.414,0,1.7-1.7,3.96-2.636,6.364-2.636s4.664.937,6.364,2.636c.195.195.451.293.707.293s.512-.098.707-.293c.391-.391.391-1.023,0-1.414-2.078-2.078-4.84-3.222-7.778-3.222s-5.701,1.145-7.778,3.222c-.391.391-.391,1.023,0,1.414Z"/>
</svg>