<?xml version="1.0" encoding="UTF-8"?>
<svg id="Outline" xmlns="http://www.w3.org/2000/svg" version="1.1" viewBox="0 0 64 64">
  <!-- Generator: Adobe Illustrator 29.0.0, SVG Export Plug-In . SVG Version: 2.1.0 Build 186)  -->
  <path d="M33,31.02539v-1.02539h4c3.30859,0,6-2.69141,6-6,0-.55225-.44775-1-1-1h-5c-1.31201,0-2.52307.4281-3.51166,1.1452.42004-1.4953,1.10236-2.89801,2.00555-4.1452h5.5061c6.6167,0,12-5.3833,12-12,0-.55225-.44775-1-1-1h-6c-6.49487,0-11.78845,5.19012-11.98169,11.63898-.83398,1.11487-1.51666,2.3396-2.01831,3.64459-.50165-1.30499-1.18433-2.52979-2.01831-3.64465-.1933-6.44885-5.48688-11.63892-11.98169-11.63892h-6c-.55225,0-1,.44775-1,1,0,6.6167,5.3833,12,12,12h5.50616c.9032,1.24725,1.58551,2.64984,2.00555,4.1452-.98853-.7171-2.19971-1.1452-3.51172-1.1452h-5c-.55225,0-1,.44775-1,1,0,3.30859,2.69141,6,6,6h4v1.02539c-13.32269.5274-24,11.52484-24,24.97461,0,.55225.44775,1,1,1h48c.55225,0,1-.44775,1-1,0-13.44977-10.67731-24.4472-24-24.97461ZM54.44586,51h-8.14313l-2.01367-1.34229,1.60547-3.21045c.06934-.13867.10547-.29199.10547-.44727v-2c0-.43066-.27539-.8125-.68359-.94873l-5.60742-1.86914-.81445-1.62939c-.16943-.33887-.51562-.55273-.89453-.55273h-3.2793l-.57666-1.72998,3.55353-3.55353c8.34277,2.1344,14.86902,8.84259,16.74829,17.28351ZM37,25h3.87354c-.44531,1.72314-2.01318,3-3.87354,3h-3.87354c.44531-1.72314,2.01318-3,3.87354-3ZM46,9h4.9502c-.50342,5.0459-4.77393,9-9.9502,9h-3.72723c1.16882-1.06738,2.53693-1.93219,4.06024-2.51807l4.02588-1.54834c.51562-.19873.77295-.77686.57471-1.29248-.19873-.51562-.77881-.77051-1.29248-.57471l-4.02588,1.54883c-1.54303.59351-2.94434,1.43909-4.17755,2.46857,1.25165-4.09503,5.06317-7.0838,9.56232-7.0838ZM13.0498,9h4.9502c4.49908,0,8.31055,2.98865,9.56226,7.0835-1.23315-1.02948-2.63446-1.87518-4.17749-2.46875l-4.02588-1.54834c-.51465-.19727-1.09326.05908-1.29248.57471-.19824.51562.05908,1.09375.57471,1.29248l4.02588,1.54785c1.52338.58606,2.89154,1.45099,4.06042,2.51855h-3.72742c-5.17627,0-9.44678-3.9541-9.9502-9ZM27,28c-1.86035,0-3.42822-1.27686-3.87354-3h3.87354c1.86035,0,3.42822,1.27686,3.87354,3h-3.87354ZM20.37579,36.15973l2.966,2.5932c.18213.15918.41602.24707.6582.24707h2.58594l2.41406,2.41406v2.01953l-4.51465,2.70898c-.16309.09766-.29492.24023-.37988.41016l-.85107,1.70215-3.33105,1.66553-2.28174-.76074-1.80957-2.71436c-.16602-.24902-.43506-.41064-.7334-.44043l-3.62811-.35992c2.00012-3.94916,5.10291-7.2489,8.90527-9.48523ZM27.28082,55l.55609-2.2251,2.47949-.82617c.25146-.08398.45947-.26416.57812-.50146l1.72363-3.44727h.96777l1.70703,1.70703c.1875.1875.44189.29297.70703.29297h1.34277l1.39551,3.22607.07111,1.77393h-11.52856ZM40.81067,55l-.08167-2.04004c-.00488-.12305-.03223-.24414-.08105-.35693l-1.72998-4c-.15869-.36621-.51904-.60303-.91797-.60303h-1.58594l-1.70703-1.70703c-.1875-.1875-.44189-.29297-.70703-.29297h-2c-.37891,0-.7251.21387-.89453.55273l-1.81445,3.62939-2.60742.86914c-.32422.1084-.5708.37451-.65381.70605l-.81067,3.24268H9.02148c.11237-2.6131.66589-5.11304,1.58264-7.43121l3.82654.37946,1.7373,2.60645c.12354.18506.30469.32373.51562.39404l3,1c.10303.03418.20996.05127.31641.05127.15381,0,.30713-.03564.44727-.10547l4-2c.19336-.09668.35059-.25391.44727-.44727l.86963-1.73975,4.75049-2.8501c.30127-.18066.48535-.50635.48535-.85742v-3c0-.26514-.10547-.51953-.29297-.70703l-3-3c-.1875-.1875-.44189-.29297-.70703-.29297h-2.62451l-2.104-1.8396c2.9563-1.38562,6.2536-2.1604,9.72852-2.1604,1.13507,0,2.25073.08411,3.34222.24371l-3.04926,3.04926c-.26807.26758-.36133.66406-.2417,1.02344l1,3c.13623.4082.51807.68359.94873.68359h3.38184l.72363,1.44727c.11865.2373.32666.41748.57812.50146l5.31641,1.77197v1.04346l-1.89453,3.78857c-.22559.45117-.07959.99951.33984,1.2793l3,2c.16406.10938.35742.16797.55469.16797h8.80017c.08624.65887.14935,1.32501.17834,2h-14.16785Z"/>
  <path d="M13.51221,28.09424l3.73828,1.42236c.1167.04443.23682.06592.35547.06592.40283,0,.78271-.24561.93457-.64502,1.37305-3.60693-.44482-7.65869-4.05273-9.03174l-3.73828-1.42236c-.5127-.19678-1.09375.06201-1.29004.5791-1.37305,3.60693.44482,7.65869,4.05273,9.03174ZM11.06592,20.74365l2.71094,1.03125c1.24805.4751,2.23682,1.40771,2.7832,2.62646.40771.9082.5332,1.89453.37402,2.85498l-2.71094-1.03125c-1.24805-.4751-2.23682-1.40771-2.7832-2.62646-.40771-.9082-.5332-1.89453-.37402-2.85498Z"/>
  <path d="M45.61523,23.58252c-.76562,1.70557-.8208,3.60742-.15576,5.35498.15186.39941.53174.64502.93457.64502.11816,0,.23877-.02148.35547-.06592l3.73828-1.42236c1.74756-.66504,3.13184-1.9707,3.89697-3.67676.76562-1.70557.8208-3.60742.15576-5.35498-.19629-.5166-.7749-.77393-1.29004-.5791l-3.73828,1.42236c-1.74756.66504-3.13184,1.9707-3.89697,3.67676ZM52.93311,20.74414c.37695,2.29541-.89941,4.62207-3.15625,5.48096l-2.70996,1.03076c-.37695-2.29541.89941-4.62207,3.15625-5.48096l2.70996-1.03076Z"/>
</svg>