<?xml version="1.0" encoding="UTF-8"?>
<svg id="Outline" xmlns="http://www.w3.org/2000/svg" version="1.1" viewBox="0 0 64 64">
  <!-- Generator: Adobe Illustrator 29.0.0, SVG Export Plug-In . SVG Version: 2.1.0 Build 186)  -->
  <path d="M40.362,32.44635c.98267-.94244,1.97028-1.95966,2.91388-3.03351,1.61017,3.26282,5.60809,6.04071,6.16553,6.41626.16895.11426.36377.1709.55859.1709s.38965-.05664.55859-.1709c.7002-.47168,6.84131-4.73047,6.84131-8.98438,0-2.6709-2.13037-4.84473-4.74902-4.84473-.95898,0-1.87402.28809-2.65088.82324-.57837-.39844-1.23364-.65881-1.92633-.76642.61359-1.5473.92633-3.03796.92633-4.44647,0-5.85059-4.65186-10.61035-10.37012-10.61035-2.44629,0-4.7666.86426-6.62988,2.45312-1.86328-1.58887-4.18359-2.45312-6.62988-2.45312-5.71826,0-10.37012,4.75977-10.37012,10.61035,0,1.40851.31274,2.89917.92633,4.44647-.69269.1076-1.34796.36798-1.92633.76642-.77686-.53516-1.69189-.82324-2.65088-.82324-2.61865,0-4.74902,2.17383-4.74902,4.84473,0,4.25391,6.14111,8.5127,6.84131,8.98438.16895.11426.36377.1709.55859.1709s.38965-.05664.55859-.1709c.55743-.37555,4.55536-3.15338,6.16553-6.4162.9436,1.07385,1.93121,2.091,2.91388,3.03345-3.47888,1.23608-6.67303,3.24353-9.31622,5.87787-4.72168,4.73242-7.32178,11.00977-7.32178,17.67578,0,.55273.44775,1,1,1h48c.55225,0,1-.44727,1-1,0-6.66602-2.6001-12.94336-7.32373-17.67773-2.64154-2.63269-5.83539-4.63989-9.31427-5.87592ZM48.26221,39.73633c3.13904,3.14575,5.24951,7.03571,6.18445,11.26367h-8.14392l-2.01367-1.34277,1.60547-3.20996c.06934-.13867.10547-.29199.10547-.44727v-2c0-.43066-.27539-.8125-.68359-.94824l-5.60742-1.86914-.81445-1.62988c-.16943-.33887-.51562-.55273-.89453-.55273h-3.2793l-.46368-1.39142c1.12775-.84283,2.7027-2.07745,4.42017-3.60406,3.59338,1.08917,6.90088,3.05701,9.58502,5.73181ZM50.71582,24.82422c.51855-.53125,1.20557-.82422,1.93506-.82422,1.51562,0,2.74902,1.27637,2.74902,2.84473,0,2.44434-3.49707,5.52734-5.3999,6.92969-1.90283-1.40234-5.3999-4.48535-5.3999-6.92969,0-1.56836,1.2334-2.84473,2.74902-2.84473.72949,0,1.4165.29297,1.93506.82422.37598.38672,1.05566.38672,1.43164,0ZM14,33.77441c-1.90283-1.40234-5.3999-4.48535-5.3999-6.92969,0-1.56836,1.2334-2.84473,2.74902-2.84473.72949,0,1.4165.29297,1.93506.82422.37598.38672,1.05566.38672,1.43164,0,.51855-.53125,1.20557-.82422,1.93506-.82422,1.51562,0,2.74902,1.27637,2.74902,2.84473,0,2.44434-3.49707,5.52734-5.3999,6.92969ZM21.3783,27.09381c.00458-.08307.02161-.16595.02161-.24908,0-2.10461-1.33081-3.88232-3.17297-4.54926-.80328-1.66998-1.22693-3.24719-1.22693-4.68512,0-4.74805,3.75488-8.61035,8.37012-8.61035,2.22705,0,4.32764.89453,5.91455,2.51953.37598.38477,1.05469.38477,1.43066,0,1.58691-1.625,3.6875-2.51953,5.91455-2.51953,4.61523,0,8.37012,3.8623,8.37012,8.61035,0,1.43793-.42365,3.01514-1.22693,4.68512-1.84216.66693-3.17297,2.44464-3.17297,4.54926,0,.08313.01703.16602.02161.24908-3.79486,4.63184-8.93591,8.48004-10.6217,9.68451-1.68579-1.20447-6.82684-5.05267-10.6217-9.68451ZM15.73584,39.73828c1.39514-1.39032,2.95782-2.59088,4.64044-3.5777l2.96552,2.59235c.18213.15918.41602.24707.6582.24707h2.58594l2.41406,2.41406v2.01953l-4.51465,2.70898c-.16309.09766-.29492.24023-.37988.41016l-.85107,1.70215-3.33105,1.66504-2.28174-.75977-1.80957-2.71484c-.16602-.24902-.43506-.41113-.7334-.44043l-3.61865-.35901c1.0885-2.15106,2.50238-4.15033,4.25586-5.90759ZM27.28076,55l.55615-2.22461,2.47949-.82715c.25146-.08301.45947-.26367.57812-.50098l1.72363-3.44727h.96777l1.70703,1.70703c.1875.1875.44189.29297.70703.29297h1.34277l1.39551,3.22559.07111,1.77441h-11.52863ZM40.81067,55l-.08167-2.04004c-.00488-.12305-.03223-.24414-.08105-.35645l-1.72998-4c-.15869-.36621-.51904-.60352-.91797-.60352h-1.58594l-1.70703-1.70703c-.1875-.1875-.44189-.29297-.70703-.29297h-2c-.37891,0-.7251.21387-.89453.55273l-1.81445,3.62988-2.60742.86914c-.32422.10742-.5708.37402-.65381.70605l-.81055,3.24219H9.02148c.10986-2.58118.66742-5.0791,1.59448-7.43005l3.81421.3783,1.73779,2.60645c.12354.18457.30469.32324.51562.39355l3,1c.10303.03516.20996.05176.31641.05176.15381,0,.30713-.03516.44727-.10547l4-2c.19336-.09668.35059-.25391.44727-.44727l.86963-1.73926,4.75049-2.85059c.30127-.18066.48535-.50586.48535-.85742v-3c0-.26562-.10547-.51953-.29297-.70703l-3-3c-.1875-.1875-.44189-.29297-.70703-.29297h-2.62451l-2.0932-1.82983c.98431-.46008,1.99963-.85016,3.04053-1.16565,3.19733,2.84198,5.93787,4.70337,6.1181,4.82458.16895.11426.36377.1709.55908.1709.19421,0,.38776-.05658.55597-.16943l.4953,1.48584c.13623.4082.51807.68359.94873.68359h3.38184l.72363,1.44727c.11865.2373.32666.41797.57812.50098l5.31641,1.77246v1.04297l-1.89453,3.78906c-.22559.45117-.07959,1,.33984,1.2793l3,2c.16406.10938.35742.16797.55469.16797h8.8006c.08582.66107.14929,1.32739.17792,2h-14.16785Z"/>
  <path d="M26.37256,12c0-.55273-.44775-1-1-1-3.51367,0-6.37256,2.96582-6.37256,6.61133,0,.55273.44775,1,1,1s1-.44727,1-1c0-2.54297,1.96143-4.61133,4.37256-4.61133.55225,0,1-.44727,1-1Z"/>
</svg>