<?xml version="1.0" encoding="UTF-8"?>
<svg id="Outline" xmlns="http://www.w3.org/2000/svg" version="1.1" viewBox="0 0 64 64">
  <!-- Generator: Adobe Illustrator 29.0.0, SVG Export Plug-In . SVG Version: 2.1.0 Build 186)  -->
  <path d="M32,7c-13.78516,0-25,11.21484-25,25s11.21484,25,25,25,25-11.21484,25-25S45.78516,7,32,7ZM32,9c3.29364,0,6.42505.70099,9.26044,1.95349l2.0506,6.14319c.09375.28125.06152.5752-.09033.82715-.15332.25391-.39941.4209-.69531.46973l-8.02002,1.33984c-1.45166.24219-2.50537,1.48535-2.50537,2.95703v1.61914c0,1.47168,1.05371,2.71484,2.50488,2.95703l2.91992.48926c.41992.07031.74902.39941.81885.82031l.60107,3.57324c.0542.31641-.05127.64355-.28174.87402l-5.31006,5.30957c-.46338.46289-.98389.26855-1.13281.19824-.14941-.07129-.63135-.35352-.56494-1.0127l.32031-3.22363c.10596-1.11621-.40137-2.18848-1.32129-2.79688l-3.82617-2.54785c-.34961-.23535-.51709-.6709-.41895-1.07324l.39111-1.53516c.25342-1.01465-.05029-2.10645-.79297-2.84863l-1.33008-1.33008c-.80518-.80566-1.97949-1.08203-3.06396-.72168l-.65869.21973c-.35547.12012-.75391.02539-1.01758-.23828l-1.43945-1.43945c-.6543-.6543-1.58643-.97559-2.49268-.85547l-3.21783.4054c4.10138-6.33185,11.22363-10.53333,19.31305-10.53333ZM9,32c0-1.56744.15881-3.09839.45898-4.57855l2.11279.35394c.37402.06445.67578.34277.76855.70996l.23877.94531c.38086,1.53809,1.89453,2.49219,3.44336,2.18066l1.90137-.37207c.36768-.07617.76074.08496.97168.40137l.64453.97656c.18945.28223.21289.64062.05566.94531l-.35156.70312c-.41162.83105-.41211,1.78613-.00146,2.62109.41016.83301,1.16553,1.41406,2.06934,1.59375l2.25293.4541c.06445.01172.13525.03613.21924.08105l2.68848,1.33887c.32031.16016.52734.49609.52734.85547v.13965c0,.20117-.06934.40625-.19092.57129l-2.01758,2.69727c-.18066.23926-.46875.38184-.77148.38184h-1.06982c-1.62695,0-2.9502,1.32324-2.9502,2.9502,0,.32227-.15918.62012-.42627.79883l-1.86755,1.25018c-5.29938-4.21716-8.70618-10.71576-8.70618-17.99921ZM32,55c-4.63495,0-8.95087-1.38263-12.56592-3.75061l1.25098-.83728c.82324-.5498,1.31494-1.46973,1.31494-2.46191,0-.52441.42627-.9502.9502-.9502h1.06982c.92676,0,1.81201-.44043,2.37061-1.18164l2.0249-2.70605c.37695-.5127.58447-1.13867.58447-1.7627v-.13965c0-1.11035-.64111-2.14844-1.63428-2.64551l-2.66455-1.32617c-.24316-.12988-.51514-.22461-.76318-.26855l-2.2334-.4502c-.2915-.05859-.53467-.24609-.66748-.51562-.13379-.27148-.13379-.58105-.00244-.84668l.34424-.68945c.48584-.94141.41748-2.07812-.17432-2.95898l-.64258-.97363c-.67139-1.00781-1.86377-1.50098-3.03418-1.25684l-1.89746.37207c-.49854.09863-.9873-.20605-1.11084-.70508l-.24023-.9502c-.28711-1.13379-1.21729-1.99316-2.37354-2.19141l-1.95752-.32825c.38794-1.3089.8894-2.56866,1.4931-3.76935l4.71832-.59479c.29346-.03418.60791.07129.82324.28613l1.43994,1.43945c.80518.80566,1.979,1.08203,3.06396.72168l.65869-.21973c.35596-.11914.75488-.02441,1.01758.23828l1.33008,1.33008c.25244.25293.35205.60742.26758.94531l-.39258,1.54102c-.29785,1.22266.20215,2.51562,1.24756,3.21875l3.83252,2.55176c.30518.20215.47217.5625.43652.9375l-.31982,3.21777c-.12939,1.2832.53711,2.46777,1.69775,3.01855.41797.19824.85889.29492,1.29443.29492.77246,0,1.52881-.30469,2.10986-.88574l5.31104-5.31055c.68848-.68945,1.00146-1.6709.83838-2.62207l-.6001-3.56934c-.21045-1.26074-1.19971-2.25098-2.46143-2.46191l-2.92041-.48926c-.47559-.0791-.83447-.50293-.83447-.98438v-1.61914c0-.48145.35889-.90527.83447-.98438l8.01855-1.33984c.86865-.14355,1.62695-.65723,2.08057-1.41016.45264-.75098.55273-1.65918.2749-2.49219l-1.39917-4.19159c6.69818,4.02472,11.19067,11.36035,11.19067,19.72772,0,12.68262-10.31787,23-23,23Z"/>
</svg>