<?xml version="1.0" encoding="UTF-8"?>
<svg id="Outline" xmlns="http://www.w3.org/2000/svg" version="1.1" viewBox="0 0 64 64">
  <!-- Generator: Adobe Illustrator 29.5.1, SVG Export Plug-In . SVG Version: 2.1.0 Build 141)  -->
  <path d="M54,30h-2.84c2.32-1.99,3.84-5.28,3.84-9,0-1.51-.24-2.96-.73-4.33-1.41-4.05-4.66-6.67-8.27-6.67-2.78,0-5.33,1.55-7.01,4.1-1.68-2.56-4.23-4.1-6.99-4.1s-5.31,1.54-6.99,4.1c-1.68-2.55-4.23-4.1-7.01-4.1-3.61,0-6.86,2.62-8.27,6.67-.49,1.37-.73,2.82-.73,4.33,0,3.72,1.52,7.01,3.84,9h-2.84c-1.65,0-3,1.35-3,3s1.35,3,3,3v1c0,1.65,1.35,3,3,3h.19l2.83,13.21c.1.46.51.79.98.79h30c.47,0,.88-.33.98-.79l2.83-13.21h.19c1.65,0,3-1.35,3-3v-1c1.65,0,3-1.35,3-3s-1.35-3-3-3ZM46,30c-2.59,0-4.86-1.83-6.07-4.53v-.01c-.47-1.04-.78-2.21-.88-3.46h13.9c-.38,4.49-3.35,8-6.95,8ZM46,12c2.35,0,4.51,1.54,5.8,4h-11.6c1.29-2.46,3.45-4,5.8-4ZM39.41,18h13.18c.18.65.31,1.31.37,2h-13.92c.06-.68.19-1.35.37-2ZM39,27.89c.53.81,1.15,1.52,1.84,2.11h-3.69c.69-.59,1.31-1.29,1.85-2.11ZM26.27,16.67c-.05-.16-.11-.3-.17-.46,1.27-2.6,3.49-4.21,5.9-4.21s4.63,1.61,5.9,4.21c-.06.15-.12.3-.17.46-.49,1.37-.73,2.82-.73,4.33,0,1.71.33,3.33.91,4.78-1.28,2.61-3.5,4.22-5.91,4.22s-4.63-1.61-5.91-4.22c.58-1.45.91-3.07.91-4.78,0-1.51-.24-2.96-.73-4.33ZM26.85,30h-3.69c.69-.59,1.31-1.3,1.84-2.11.54.82,1.16,1.52,1.85,2.11ZM18,12c2.35,0,4.51,1.54,5.8,4h-11.6c1.28-2.46,3.45-4,5.8-4ZM11.41,18h13.18c.18.65.31,1.31.37,2h-13.92c.06-.68.19-1.35.37-2ZM11.05,22h13.9c-.1,1.25-.41,2.42-.88,3.46v.01c-1.21,2.7-3.48,4.53-6.07,4.53-3.6,0-6.57-3.51-6.95-8ZM46.19,52h-28.38l-2.57-12h33.52l-2.57,12ZM52,37c0,.55-.45,1-1,1H13c-.55,0-1-.45-1-1v-1h40v1ZM54,34H10c-.55,0-1-.45-1-1s.45-1,1-1h44c.55,0,1,.45,1,1s-.45,1-1,1Z"/>
</svg>