<?xml version="1.0" encoding="UTF-8"?>
<svg id="Outline" xmlns="http://www.w3.org/2000/svg" version="1.1" viewBox="0 0 48 48">
  <!-- Generator: Adobe Illustrator 29.5.1, SVG Export Plug-In . SVG Version: 2.1.0 Build 141)  -->
  <path d="M36.45,5.11c-.34-.17-.75-.14-1.05.09-5.26,3.94-8.4,10.22-8.4,16.8v4c0,.38.21.73.55.89l3.36,1.68-1.45,10.11c-.15,1.08.17,2.18.89,3.01.72.83,1.76,1.31,2.86,1.31,2.09,0,3.79-1.7,3.79-3.79V6c0-.38-.21-.73-.55-.89ZM35,39.21c0,.99-.8,1.79-1.79,1.79-.52,0-1.01-.22-1.35-.62-.34-.39-.49-.91-.42-1.42l1.43-9.96h2.13v10.21ZM35,27h-2.76l-3.24-1.62v-3.38c0-5.25,2.21-10.29,6-13.85v18.85Z"/>
  <path d="M22,5c-.552,0-1,.448-1,1v9h-3V6c0-.552-.448-1-1-1s-1,.448-1,1v9h-3V6c0-.552-.448-1-1-1s-1,.448-1,1v11c0,1.846,1.257,3.404,2.96,3.863l-.823,18.095c-.048,1.065.331,2.076,1.067,2.847.736.771,1.729,1.195,2.795,1.195s2.059-.424,2.795-1.195c.737-.771,1.116-1.782,1.067-2.847l-.823-18.095c1.703-.459,2.96-2.017,2.96-3.863V6c0-.552-.448-1-1-1ZM19,19c-.273,0-.534.112-.723.309-.188.197-.288.463-.276.736l.864,19.003c.023.514-.16,1.002-.515,1.375-.711.744-1.988.744-2.699,0-.355-.372-.539-.86-.515-1.375l.864-19.003c.012-.273-.087-.539-.276-.736-.189-.197-.45-.309-.723-.309-1.103,0-2-.897-2-2h8c0,1.103-.897,2-2,2Z"/>
</svg>