<?xml version="1.0" encoding="UTF-8"?>
<svg id="Outline" xmlns="http://www.w3.org/2000/svg" version="1.1" viewBox="0 0 64 64">
  <!-- Generator: Adobe Illustrator 29.5.1, SVG Export Plug-In . SVG Version: 2.1.0 Build 141)  -->
  <path d="M46,17h-11v-9c0-.55-.45-1-1-1h-4c-.55,0-1,.45-1,1v9h-4c-.55,0-1,.45-1,1s.45,1,1,1h21c.55,0,1,.45,1,1,0,.27-.1.51-.31.71-.18.19-.42.29-.69.29,0,0-28,0-28,0-1.27,0-1.279-2,0-2h3c.55,0,1-.45,1-1s-.45-1-1-1h-3c-.81,0-1.57.32-2.11.87-.57.56-.89,1.32-.89,2.13,0,1.33.87,2.44,2.07,2.84l2.77,31.43c.14,1.56,1.42,2.73,2.99,2.73h18.34c1.57,0,2.85-1.17,2.99-2.73l1.6-18.18c.04-.55-.36-1.04-.91-1.09-.56-.04-1.04.36-1.09.91l-.41,4.67c-.07.02-.15.03-.22.06-3.11,1.52-7.06,2.36-11.13,2.36s-8.02-.84-11.13-2.36c-.07-.03-.15-.04-.23-.06l-1.55-17.58h25.82l-.79,8.91c-.04.55.36,1.04.91,1.09.57.04,1.04-.36,1.09-.91l.81-9.25c.44-.14.85-.38,1.18-.71.57-.56.89-1.32.89-2.13,0-1.65-1.35-3-3-3ZM33,17h-2v-8h2v8ZM42.16,54.09c-.04.52-.47.91-.99.91h-18.34c-.52,0-.95-.39-.99-.91l-.27-2.96c3.09,1.21,6.72,1.87,10.43,1.87s7.34-.66,10.43-1.87l-.27,2.96ZM42.62,48.87c-3.03,1.37-6.77,2.13-10.62,2.13s-7.6-.76-10.63-2.13l-.16-1.89c3.16,1.31,6.93,2.02,10.79,2.02s7.63-.71,10.79-2.02l-.17,1.89ZM32,45c4.01,0,7.92-.78,11.16-2.18l-.17,1.88c-3.09,1.48-6.98,2.3-10.99,2.3s-7.9-.82-10.99-2.3l-.17-1.88c3.23,1.4,7.15,2.18,11.16,2.18Z"/>
  <path d="M32.006,27.377c-3.277-2.028-9.429-2.362-9.705-2.376-.297-.02-.547.087-.745.279-.199.192-.31.458-.306.735.005.305.146,7.513,2.669,10.483,1.258,1.475,2.719,2.332,4.224,2.478.158.015.316.023.475.023,1.192,0,2.349-.448,3.381-1.285,1.037.839,2.193,1.286,3.384,1.286.158,0,.317-.008.477-.023,1.508-.146,2.97-1.004,4.228-2.481,2.524-2.964,2.661-10.175,2.666-10.481.004-.276-.106-.542-.306-.734-.198-.192-.47-.3-.744-.279-.742.037-6.492.391-9.696,2.376ZM28.335,36.986c-.979-.095-1.979-.712-2.894-1.783-1.443-1.699-1.99-5.763-2.144-8.119,1.965.193,5.129.7,7.131,1.71-1.834,2.438-1.358,5.352.188,7.475-.55.412-1.341.806-2.281.717ZM38.562,35.199c-.914,1.074-1.916,1.692-2.897,1.788-1.068.103-1.96-.428-2.507-.894-1.423-1.211-2.942-3.998-.966-6.318,1.433-1.684,5.934-2.444,8.513-2.693-.152,2.355-.698,6.421-2.143,8.117Z"/>
</svg>