<?xml version="1.0" encoding="UTF-8"?>
<svg id="Outline" xmlns="http://www.w3.org/2000/svg" version="1.1" viewBox="0 0 64 64">
  <!-- Generator: Adobe Illustrator 29.0.0, SVG Export Plug-In . SVG Version: 2.1.0 Build 186)  -->
  <path d="M16.5791,37.85059c.04639.00684.09326.00977.13916.00977.49072,0,.91943-.3623.98877-.8623.40662-2.92023,2.60071-5.22174,5.35034-5.83276l-.12769.12769c-.39062.39062-.39062,1.02344,0,1.41406.19531.19531.45117.29297.70703.29297s.51172-.09766.70703-.29297l2-2c.03381-.03381.04816-.07739.07611-.11456.00134-.0022.00281-.00409.00415-.00629.29016-.39148.27472-.93823-.08026-1.29321l-2-2c-.39062-.39062-1.02344-.39062-1.41406,0s-.39062,1.02344,0,1.41406l.38464.38464c-3.86591.5376-7.03137,3.63373-7.58777,7.63098-.07617.54688.30518,1.05176.85254,1.12793Z"/>
  <path d="M27.05371,44.50391c-.80469.3291-1.66064.49609-2.54395.49609-1.93524,0-3.72369-.83331-4.99945-2.21405l.17181.04608c.53467.14551,1.08203-.17285,1.22461-.70703.14307-.5332-.17334-1.08203-.70703-1.22461l-2.73242-.73242c-.25586-.06836-.5293-.0332-.75879.09961s-.39746.35156-.46582.60742l-.73193,2.73242c-.14307.5332.17383,1.08203.70703,1.22461.08691.02344.17383.03418.25928.03418.44189,0,.8457-.29492.96533-.74121l.13831-.51636c1.65668,2.10657,4.18158,3.39136,6.92908,3.39136,1.14404,0,2.25439-.2168,3.30078-.64453.51123-.20898.75635-.79297.54736-1.30469-.20947-.50977-.7915-.75488-1.3042-.54688Z"/>
  <path d="M33.26074,41.16895l-.505.1377c.40607-1.04401.62122-2.15845.62122-3.30664,0-2.70898-1.18506-5.24609-3.25195-6.95996-.42432-.35352-1.05469-.29395-1.40771.13086-.35254.42578-.29395,1.05566.13135,1.4082,1.60693,1.33301,2.52832,3.30859,2.52832,5.4209,0,.66406-.10596,1.30957-.28113,1.93323l-.01428-.05432c-.14111-.5332-.68506-.85254-1.22168-.71191-.53418.14062-.85303.6875-.71191,1.22168l.72021,2.73242c.06787.25781.23584.47754.4668.61133.15332.08789.32617.13379.5.13379.08789,0,.17627-.01172.2627-.03516l2.68848-.73242c.5332-.14551.84717-.69531.70215-1.22754-.14551-.5332-.69678-.85254-1.22754-.70215Z"/>
  <path d="M55.875,28.97266c-.06299-.44043-.40869-.78613-.84863-.84863-1.32178-.18945-8.19434-.85645-13.5752,4.52637-.2337.23334-.69531.72217-1.24042,1.43726l-2.22247-14.24194c-.07617-.48633-.49561-.8457-.98828-.8457h-4v-4c0-4.41113-3.58887-8-8-8s-8,3.58887-8,8v4h-4c-.49268,0-.91211.3584-.98779.8457l-3.91992,25.06934c-.31689,2.02344.26514,4.07617,1.59766,5.63281,1.33301,1.55859,3.27197,2.45215,5.31982,2.45215h19.06018c-.04626.45758-.06995.91815-.06995,1.37988v1.67969c0,.55273.44775,1,1,1s1-.44727,1-1v-1.67969c0-.49475.04242-.98608.10413-1.47467,2.98389-.47064,5.32184-2.79541,5.78821-5.79376,5.2442-.64587,8.6972-3.80157,9.45728-4.56165,5.38623-5.38574,4.71484-12.25488,4.52539-13.57715ZM43.86475,33.1687c3.05798-2.50464,6.51221-3.08313,8.70886-3.15588l-8.70886,8.70886v-5.55298ZM53.98877,31.42578c-.04431,1.36871-.28912,3.22711-1.06952,5.17383h-4.10431l5.17383-5.17383ZM41.86475,35.23175v5.48993l-3.08752,3.08752c.06689-3.97198,1.88275-7.00159,3.08752-8.57745ZM19,15c0-3.30859,2.69141-6,6-6s6,2.69141,6,6v4h-12v-4ZM15.00977,51c-1.46289,0-2.84766-.63867-3.80029-1.75195-.95166-1.1123-1.36768-2.5791-1.1416-4.02344l3.78809-24.22461h3.14404v2h-1c-.55225,0-1,.44727-1,1s.44775,1,1,1h4c.55225,0,1-.44727,1-1s-.44775-1-1-1h-1v-2h12v2h-1c-.55225,0-1,.44727-1,1s.44775,1,1,1h4c.55225,0,1-.44727,1-1s-.44775-1-1-1h-1v-2h3.14404l2.4447,15.66211c-1.1861,2.29242-2.1568,5.4408-1.69647,9.23096-1.15601,1.51849-1.98975,3.26129-2.45428,5.10693H15.00977ZM36.59088,50.71033c.41418-1.28033,1.04468-2.48553,1.85785-3.56323.46783.04663.92749.07611,1.37524.08154-.4173,1.63-1.65643,2.93549-3.23309,3.48169ZM40.19232,45.22223l6.62262-6.62262h5.10614c-.52533.86621-1.17285,1.72345-1.98553,2.53613-.45099.45099-4.17773,3.98846-9.74323,4.08649Z"/>
</svg>