<?xml version="1.0" encoding="UTF-8"?>
<svg id="Outline" xmlns="http://www.w3.org/2000/svg" version="1.1" viewBox="0 0 64 64">
  <!-- Generator: Adobe Illustrator 29.5.1, SVG Export Plug-In . SVG Version: 2.1.0 Build 141)  -->
  <path d="M51.56,7.301c-.33-.24-.78-.24-1.12-.01l-2.74,1.84c-1.9,1.26-4.2,1.8-6.47,1.57-3.41-.38-6.75.74-9.23,3.05-2.49-2.31-5.83-3.43-9.22-3.06-2.34.24-4.58-.3-6.47-1.56l-2.75-1.84c-.34-.23-.79-.23-1.12.01-.34.23-.5.64-.42,1.04l.53,2.39c.9,4.06,3.76,7.43,7.55,9.07-2.93,2.9-4.85,6.83-5.08,11.16-.27,5.13,1.76,10.05,5.56,13.5,1.54,1.39,2.42,3.37,2.42,5.42,0,.55.45,1,1,1h1.08c.49,3.39,3.4,6,6.92,6s6.43-2.61,6.92-6h1.08c.55,0,1-.45,1-1,0-2.07.85-4.02,2.32-5.34,3.61-3.22,5.68-7.83,5.68-12.66,0-4.59-1.8-8.87-5.07-12.09,3.78-1.64,6.62-5.01,7.52-9.06l.53-2.39c.08-.4-.08-.81-.42-1.04ZM14.52,10.341l.68.45c1.93,1.29,4.17,1.97,6.49,1.97.42,0,.86-.03,1.3-.08,2.71-.3,5.34.54,7.38,2.3-3.17.3-6.11,1.51-8.55,3.36-.03-.01-.05-.01-.07-.02-3.63-1.21-6.39-4.26-7.23-7.98ZM32,54.881c-2.42,0-4.43-1.72-4.9-4h9.8c-.47,2.28-2.48,4-4.9,4ZM47,31.881c0,4.26-1.83,8.33-5.01,11.17-1.66,1.48-2.7,3.57-2.94,5.83h-2.05c.02-4.27,1.69-8.27,4.71-11.29.39-.39.39-1.03,0-1.42-.39-.39-1.03-.39-1.42,0-3.39,3.4-5.27,7.91-5.29,12.71h-6c-.02-4.8-1.9-9.31-5.29-12.71-.39-.39-1.03-.39-1.42,0-.39.39-.39,1.03,0,1.42,3.02,3.02,4.69,7.02,4.71,11.29h-2.05c-.25-2.25-1.32-4.36-3.03-5.91-3.35-3.04-5.14-7.38-4.9-11.91.41-7.59,6.67-13.81,14.26-14.16,4.14-.21,8.08,1.27,11.07,4.13,3,2.86,4.65,6.71,4.65,10.85ZM42.25,18.321c-2.52-1.91-5.48-3.05-8.63-3.34,2.04-1.76,4.69-2.6,7.4-2.3,2.81.28,5.5-.37,7.79-1.89l.67-.45c-.84,3.72-3.6,6.77-7.23,7.98Z"/>
</svg>