<?xml version="1.0" encoding="UTF-8"?>
<svg id="Outline" xmlns="http://www.w3.org/2000/svg" version="1.1" viewBox="0 0 64 64">
  <!-- Generator: Adobe Illustrator 29.5.1, SVG Export Plug-In . SVG Version: 2.1.0 Build 141)  -->
  <path d="M21.752,30.954c.407.106.876-.026,1.121-.467l5-9c.172-.31.168-.688-.012-.993-.18-.305-.508-.493-.862-.493h-2.612l.561-1.684c.103-.305.051-.64-.137-.901-.188-.261-.49-.416-.812-.416h-4c-.446,0-.839.296-.962.725l-2,7c-.086.302-.025.626.163.877.189.25.485.398.799.398h3v4c0,.505.346.847.753.953ZM19.326,24.001l1.428-5h1.858l-.561,1.684c-.103.305-.051.64.137.901.188.261.49.416.812.416h2.301l-2.301,4.141v-1.141c0-.552-.447-1-1-1h-2.674Z"/>
  <path d="M55.999,29.001h-2c-1.96,0-3.73.81-5,2.11v-3.11h1c2.76,0,5-2.24,5-5v-2c0-.55-.45-1-1-1h-2c-1.13,0-2.16.39-3,1.03v-1.62l1.67-1.67c2.34-2.34,2.34-6.14,0-8.48l-1.96-1.97c-.39-.39-1.03-.39-1.42,0l-1.96,1.97c-2.34,2.34-2.34,6.14,0,8.48l1.67,1.67v1.62c-.84-.64-1.87-1.03-3-1.03h-2c-.55,0-1,.45-1,1v2c0,2.76,2.24,5,5,5h1v3.11c-1.27-1.3-3.04-2.11-5-2.11h-2c-.55,0-1,.45-1,1v2c0,3.86,3.14,7,7,7h1v11c0,2.76-2.24,5-5,5h-14c-2.41,0-4.43-1.72-4.9-4h2.9c1.65,0,3-1.35,3-3v-1c1.65,0,3-1.35,3-3,0-.77-.3-1.47-.78-2,.5-.55.78-1.25.78-2,0-1.28-.81-2.37-1.95-2.8.19-1.6.94-3.1,2.13-4.2,3.06-2.83,4.82-6.83,4.82-11,0-3.35-1.08-6.53-3.14-9.19-.34-.44-.96-.52-1.4-.18-.44.34-.52.96-.18,1.4,1.78,2.31,2.72,5.06,2.72,7.97,0,3.61-1.52,7.08-4.18,9.53-1.55,1.44-2.52,3.39-2.76,5.47h-6.06c-.55,0-1,.45-1,1s.45,1,1,1h7c.55,0,1,.45,1,1,0,.27-.1.51-.31.71-.18.19-.42.29-.69.29h-14c-.55,0-1-.45-1-1,0-.27.1-.51.31-.71.18-.19.42-.29.69-.29h3c.55,0,1-.45,1-1s-.45-1-1-1h-2.05c-.23-2.11-1.17-4.03-2.67-5.37-3.16-2.86-4.69-6.94-4.19-11.19.69-5.92,5.49-10.7,11.42-11.36,3.24-.36,6.48.48,9.09,2.37.45.32,1.08.22,1.4-.22.32-.45.22-1.08-.22-1.4-3.02-2.18-6.75-3.15-10.49-2.73-6.85.76-12.39,6.27-13.18,13.1-.58,4.91,1.18,9.62,4.83,12.91,1.13,1.01,1.83,2.47,2.01,4.09-.4.14-.76.37-1.06.67-.57.56-.89,1.32-.89,2.13,0,.77.3,1.47.78,2-.48.53-.78,1.23-.78,2,0,1.65,1.35,3,3,3v1c0,1.65,1.35,3,3,3h3.08c.49,3.39,3.4,6,6.92,6h14c3.86,0,7-3.14,7-7v-11h1c3.86,0,7-3.14,7-7v-2c0-.55-.45-1-1-1ZM14.999,45.001c-.55,0-1-.45-1-1s.45-1,1-1h14c.55,0,1,.45,1,1s-.45,1-1,1h-14ZM17.999,49.001c-.55,0-1-.45-1-1v-1h10v1c0,.55-.45,1-1,1h-8ZM46.999,37.001h-1c-2.76,0-5-2.24-5-5v-1h1c2.76,0,5,2.24,5,5v1ZM46.999,26.001h-1c-1.65,0-3-1.35-3-3v-1h1c1.65,0,3,1.35,3,3v1ZM51.999,22.001h1v1c0,1.65-1.35,3-3,3h-1v-1c0-1.65,1.35-3,3-3ZM47.999,13.001c-.55,0-1,.45-1,1v2.59l-.26-.26c-1.56-1.56-1.56-4.1,0-5.66l1.26-1.26,1.26,1.26c1.56,1.56,1.56,4.1,0,5.66l-.26.26v-2.59c0-.55-.45-1-1-1ZM54.999,32.001c0,2.76-2.24,5-5,5h-1v-1c0-2.76,2.24-5,5-5h1v1Z"/>
</svg>