<?xml version="1.0" encoding="UTF-8"?>
<svg id="Outline" xmlns="http://www.w3.org/2000/svg" version="1.1" viewBox="0 0 64 64">
  <!-- Generator: Adobe Illustrator 29.5.1, SVG Export Plug-In . SVG Version: 2.1.0 Build 141)  -->
  <path d="M56.32,15.051l-24-8c-.21-.07-.43-.07-.64,0L7.68,15.051c-.4.14-.68.52-.68.95s.28.81.68.95l9.32,3.1v10.95c0,.24.09.44.23.61-1.41,2.48-2.23,5.34-2.23,8.39,0,9.37,7.63,17,17,17,3.27,0,6.44-.93,9.18-2.69.47-.3.6-.92.3-1.38-.3-.47-.91-.6-1.38-.3-2.41,1.55-5.21,2.37-8.1,2.37-8.27,0-15-6.73-15-15s6.73-15,15-15,15,6.73,15,15c0,3.81-1.42,7.44-4.01,10.21-.38.4-.36,1.03.05,1.41.4.38,1.03.36,1.41-.05,2.93-3.14,4.55-7.25,4.55-11.57,0-3.05-.82-5.91-2.23-8.39.14-.17.23-.37.23-.61v-5c0-.55-.45-1-1-1s-1,.45-1,1v3.07c-3.12-3.71-7.79-6.07-13-6.07s-9.88,2.36-13,6.07v-11.31c8.53-2.28,17.47-2.28,26,0v4.24c0,.55.45,1,1,1s1-.45,1-1v-1.95l9.32-3.1c.4-.14.68-.52.68-.95s-.28-.81-.68-.95ZM47,17.941v-.94c0-.45-.3-.84-.73-.96-9.34-2.65-19.2-2.65-28.54,0-.43.12-.73.51-.73.96v.94l-5.84-1.94,20.84-6.95,20.84,6.95-5.84,1.94Z"/>
  <path d="M30,53.001h4c.553,0,1-.447,1-1v-1c3.859,0,7-3.141,7-7s-3.141-7-7-7h-6c-.552,0-1-.448-1-1s.448-1,1-1h10c.553,0,1-.447,1-1v-4c0-.553-.447-1-1-1h-4v-1c0-.553-.447-1-1-1h-4c-.553,0-1,.447-1,1v1c-3.859,0-7,3.141-7,7s3.141,7,7,7h6c.552,0,1,.448,1,1s-.448,1-1,1h-10c-.553,0-1,.447-1,1v4c0,.553.447,1,1,1h4v1c0,.553.447,1,1,1ZM26,49.001v-2h9c1.654,0,3-1.346,3-3s-1.346-3-3-3h-6c-2.757,0-5-2.243-5-5s2.243-5,5-5h1c.553,0,1-.447,1-1v-1h2v1c0,.553.447,1,1,1h4v2h-9c-1.654,0-3,1.346-3,3s1.346,3,3,3h6c2.757,0,5,2.243,5,5s-2.243,5-5,5h-1c-.553,0-1,.447-1,1v1h-2v-1c0-.553-.447-1-1-1h-4Z"/>
</svg>