<?xml version="1.0" encoding="UTF-8"?>
<svg id="Outline" xmlns="http://www.w3.org/2000/svg" version="1.1" viewBox="0 0 64 64">
  <!-- Generator: Adobe Illustrator 29.5.1, SVG Export Plug-In . SVG Version: 2.1.0 Build 141)  -->
  <path d="M22.01,31c-5.207,0-9.74,3.701-10.78,8.8-.11.542.239,1.069.78,1.18.546.114,1.07-.238,1.18-.779.851-4.172,4.56-7.2,8.82-7.2,4.962,0,9,4.037,9,9s-4.038,9-9,9c-4.26,0-7.969-3.028-8.82-7.2-.11-.541-.634-.89-1.18-.779-.541.11-.891.638-.78,1.18,1.04,5.099,5.573,8.8,10.78,8.8,6.065,0,11-4.935,11-11s-4.935-11-11-11Z"/>
  <path d="M27.01,42c0,.553.448,1,1,1s1-.447,1-1c0-3.859-3.14-7-7-7-.552,0-1,.447-1,1s.448,1,1,1c2.757,0,5,2.243,5,5Z"/>
  <path d="M55.942,31.01c-.545-.08-1.053.301-1.131.849-1,6.977-5.785,11.142-12.8,11.142-1.806,0-3.493-.306-5.043-.878.018-.372.043-.739.043-1.122,0-.408-.014-.82-.035-1.233,1.549.798,3.278,1.233,5.035,1.233,6.065,0,11-4.935,11-11s-4.935-11-11-11c-4.313,0-8.147,2.509-9.932,6.294-.686-.974-1.43-1.869-2.226-2.657,1.775-6.861,6.435-13.636,12.158-13.636,6.979,0,12.609,10.053,12.981,19.041.022.538.465.959.999.959.014,0,.028,0,.042,0,.552-.022.98-.488.958-1.04-.41-9.913-6.663-20.959-14.979-20.959-6.751,0-11.75,7.098-13.841,14.195-1.868-1.379-3.947-2.195-6.159-2.195-8.448,0-15,11.826-15,22,0,9.72,5.888,16,15,16,8.074,0,13.606-4.936,14.765-12.821,1.632.537,3.383.821,5.235.821,7.98,0,13.644-4.927,14.78-12.858.079-.547-.301-1.053-.848-1.132ZM42.01,21c4.962,0,9,4.037,9,9s-4.038,9-9,9c-1.896,0-3.754-.615-5.279-1.726-.503-3.451-1.669-6.901-3.325-9.862,1.129-3.79,4.616-6.411,8.605-6.411ZM22.01,55c-6.285,0-13-3.678-13-14,0-9.059,5.799-20,13-20s13,10.941,13,20c0,10.322-6.715,14-13,14Z"/>
  <path d="M42.01,25c2.757,0,5,2.243,5,5,0,.553.448,1,1,1s1-.447,1-1c0-3.859-3.14-7-7-7-.552,0-1,.447-1,1s.448,1,1,1Z"/>
</svg>