<?xml version="1.0" encoding="UTF-8"?>
<svg id="Outline" xmlns="http://www.w3.org/2000/svg" version="1.1" viewBox="0 0 64 64">
  <!-- Generator: Adobe Illustrator 29.5.1, SVG Export Plug-In . SVG Version: 2.1.0 Build 141)  -->
  <path d="M37.88,27.171c-1.22-2.45-2.8-4.46-4.27-4.85-1.01-.27-1.91.15-2.48,1.14-.89,1.56-1.72,2.69-2.48,3.57-10.51.43-21.65,3.07-21.65,7.93v.96c0,7.94,3.4,15.51,9.34,20.79.18.16.41.25.66.25h30c.25,0,.48-.09.66-.25,5.94-5.28,9.34-12.85,9.34-20.79v-.96c0-4.74-10.16-7.14-19.12-7.79ZM28.11,30.451c.5-.48,1.09-1.04,1.73-1.75.01-.01.01-.02.02-.02.91-1.01,1.93-2.33,3.01-4.22.09-.17.16-.21.16-.22.06,0,.31.06.73.44,1.85,1.67,4.24,6.86,4.24,10.08,0,5.6-4.2,6.2-6,6.2s-6-.6-6-6.2c0-2.32.66-2.95,2.11-4.31ZM26.58,29.141c-1.45,1.38-2.58,2.55-2.58,5.62,0,2.52.76,4.57,2.14,5.98-10.74-.79-17.14-3.64-17.14-5.78,0-2.05,6.09-5.04,17.58-5.82ZM46.62,54.961h-29.24c-4.73-4.34-7.66-10.28-8.26-16.62,4.15,3.02,13.73,4.62,22.88,4.62s18.73-1.6,22.88-4.62c-.6,6.34-3.53,12.28-8.26,16.62ZM37.86,40.741c1.38-1.41,2.14-3.46,2.14-5.98,0-1.57-.47-3.57-1.21-5.5,10.05.87,16.21,3.56,16.21,5.7s-6.4,4.99-17.14,5.78Z"/>
  <path d="M30.105,20.855c.036.004.072.006.108.006.325,0,.633-.158.821-.429.209-.301.237-.691.074-1.019l-1.226-2.452,1.704-3.409c.16-.321.137-.703-.062-1.002l-1.601-2.402.432-1.729c.082-.326-.006-.671-.234-.919s-.566-.364-.896-.311c-4.919.799-8.225,3.521-8.225,6.772,0,3.422,3.83,6.321,9.105,6.894ZM28.023,9.499l-.148.593c-.068.273-.018.562.138.797l1.525,2.288-1.668,3.337c-.141.281-.141.613,0,.895l.563,1.126c-3.199-.792-5.433-2.6-5.433-4.573,0-1.862,2.038-3.616,5.023-4.462Z"/>
  <path d="M34.154,12.89l-1.813,3.624c-.141.281-.141.613,0,.895l1.392,2.783c.171.343.52.553.894.553.054,0,.107-.004.162-.013,4.911-.803,8.211-3.523,8.211-6.771,0-3.503-3.938-6.412-9.365-6.918-.491-.045-.943.273-1.063.754l-.387,1.549c-.068.273-.018.562.138.797l1.832,2.747ZM34.298,9.138c3.875.583,6.702,2.577,6.702,4.823,0,2.021-2.405,3.918-5.816,4.66l-.83-1.66,1.849-3.696c.16-.321.137-.703-.062-1.002l-1.908-2.861.065-.264Z"/>
  <path d="M28,34.961c0,2.206,1.794,4,4,4s4-1.794,4-4-1.794-4-4-4-4,1.794-4,4ZM34,34.961c0,1.103-.897,2-2,2s-2-.897-2-2,.897-2,2-2,2,.897,2,2Z"/>
</svg>