<?xml version="1.0" encoding="UTF-8"?>
<svg id="Outline" xmlns="http://www.w3.org/2000/svg" version="1.1" viewBox="0 0 64 64">
  <!-- Generator: Adobe Illustrator 29.5.1, SVG Export Plug-In . SVG Version: 2.1.0 Build 141)  -->
  <path d="M56,47.001h-13.98c.12-6.83,1.41-13.52,3.86-19.91l1.05-2.73c.12-.31.08-.65-.11-.93-.18-.27-.49-.43-.82-.43h-1.08c-.34-2.36-1.85-4.33-3.93-5.32-.14-3.89-2.68-7.25-6.43-8.4l-7.27-2.24c-.36-.11-.76,0-1.03.28-.26.29-.33.69-.19,1.05l.43,1.06c.8,2.02.33,4.32-1.21,5.86-.01.01-.01.03-.02.04-1.72.64-2.98,2.18-3.21,4.06-1.5.64-2.63,1.98-2.96,3.61h-1.1c-.33,0-.64.16-.82.43-.19.28-.23.62-.11.93l1.05,2.73c1.27,3.29,2.24,6.74,2.9,10.27.59,3.19.9,6.43.96,9.64h-13.98c-.55,0-1,.45-1,1,0,1.32.52,2.58,1.47,3.54.95.94,2.21,1.46,3.53,1.46h1v1c0,1.65,1.35,3,3,3h32c1.65,0,3-1.35,3-3v-1h1c2.76,0,5-2.24,5-5,0-.55-.45-1-1-1ZM21.54,31.001c-.46-1.57-.97-3.12-1.56-4.63l-.52-1.37h15.54c.55,0,1-.45,1-1s-.45-1-1-1h-13.82c.42-1.16,1.52-2,2.82-2h2c.55,0,1-.45,1-1s-.45-1-1-1h-1.82c.42-1.16,1.52-2,2.82-2h1c.55,0,1-.45,1-1s-.45-1-1-1h-.03c.9-1.65,1.16-3.6.67-5.45l5.33,1.64c2.71.83,4.6,3.13,4.96,5.88-.31-.04-.62-.07-.93-.07-.55,0-1,.45-1,1s.45,1,1,1c2.41,0,4.43,1.72,4.9,4h-3.9c-.55,0-1,.45-1,1s.45,1,1,1h5.54l-.52,1.37c-.59,1.53-1.11,3.07-1.56,4.63h-20.92ZM41.91,33.001c-.51,1.98-.93,3.98-1.23,6h-17.37c-.1-.67-.2-1.34-.33-2-.25-1.35-.56-2.68-.89-4h19.82ZM49,54.001c0,.55-.45,1-1,1H16c-.55,0-1-.45-1-1v-1h34v1ZM52,51.001H12c-.8,0-1.55-.31-2.12-.87-.32-.33-.56-.71-.71-1.13h24.83c.55,0,1-.45,1-1s-.45-1-1-1h-10.01c-.03-2-.18-4-.41-6h16.84c-.23,1.99-.38,3.99-.41,6h-2.01c-.55,0-1,.45-1,1s.45,1,1,1h16.83c-.41,1.16-1.53,2-2.83,2Z"/>
</svg>