<?xml version="1.0" encoding="UTF-8"?>
<svg id="Outline" xmlns="http://www.w3.org/2000/svg" version="1.1" viewBox="0 0 64 64">
  <!-- Generator: Adobe Illustrator 29.5.1, SVG Export Plug-In . SVG Version: 2.1.0 Build 141)  -->
  <path d="M56,41h-1.56c.34998-.59003.56-1.27002.56-2,0-1.20001-.53998-2.27002-1.38-3,.07001-.06.14001-.10999.21002-.17004.75-.75995,1.16998-1.75995,1.16998-2.82996,0-1.20001-.53998-2.27002-1.38-3,.84003-.73004,1.38-1.79999,1.38-3,0-1.07001-.41998-2.07001-1.16998-2.83002-.76001-.75-1.76001-1.16998-2.83002-1.16998-1.58002,0-3.10999-.79999-4.08002-2.14001-2.77997-3.89001-7.79999-5.85999-14.91998-5.85999s-12.14001,1.96997-14.91998,5.84998c-.47003.66003-1.10004,1.20001-1.79999,1.58002-.71002.38-1.48004.57001-2.28003.57001-1.07001,0-2.07001.41998-2.83002,1.16998-.75.76001-1.16998,1.76001-1.16998,2.83002,0,1.20001.53998,2.26996,1.38,3-.07001.06-.14001.10999-.21002.16998-.75.76001-1.16998,1.76001-1.16998,2.83002,0,1.20001.53998,2.26996,1.38,3-.84003.72998-1.38,1.79999-1.38,3,0,.72998.21002,1.40997.56,2h-1.56c-.54999,0-1,.45001-1,1v3c0,.31.15002.60999.40002.79999l4,3c.16998.13.38.20001.59998.20001h27c.54999,0,1-.45001,1-1s-.45001-1-1-1H12.33002l-3.33002-2.5v-1.5h46v1.5l-3.33002,2.5h-8.66998c-.54999,0-1,.45001-1,1s.45001,1,1,1h9c.21997,0,.42999-.07001.59998-.20001l4-3c.25-.19.40002-.48999.40002-.79999v-3c0-.54999-.45001-1-1-1ZM32,17c4.06,0,7.34003.67999,9.81,2.01001-2.41998,1.25-5.15002,1.98999-9.81,1.98999s-7.39001-.73999-9.81-1.98999c2.46997-1.33002,5.75-2.01001,9.81-2.01001ZM51,41H13c-1.09998,0-2-.90002-2-2,0-1.10004.90002-2,2-2h38c1.09998,0,2,.89996,2,2,0,1.09998-.90002,2-2,2ZM23,31h28c1.09998,0,2,.89996,2,2,0,.52997-.21002,1.02997-.59003,1.40997-.37994.38-.87994.59003-1.40997.59003H13c-1.09998,0-2-.90002-2-2,0-.53003.21002-1.03003.59003-1.41003.37994-.38.87994-.58997,1.40997-.58997h6c.54999,0,1-.45001,1-1s-.45001-1-1-1h-6c-1.09998,0-2-.90002-2-2,0-.53003.21002-1.03003.59003-1.41003.37994-.38.87994-.58997,1.40997-.58997,1.14001,0,2.21997-.27002,3.21997-.81.97003-.51001,1.83002-1.26001,2.48004-2.17004.46997-.63995,1.02997-1.20996,1.64996-1.72998,2.86005,1.64001,6.02002,2.71002,11.65002,2.71002s8.78998-1.07001,11.65002-2.71002c.62.52002,1.19,1.09003,1.64996,1.72998,1.34003,1.87006,3.47003,2.98004,5.70001,2.98004.53003,0,1.03003.20996,1.40997.58997.38.38.59003.88.59003,1.41003,0,1.09998-.90002,2-2,2h-28c-.54999,0-1,.45001-1,1s.45001,1,1,1Z"/>
</svg>