<?xml version="1.0" encoding="UTF-8"?>
<svg id="Outline" xmlns="http://www.w3.org/2000/svg" version="1.1" viewBox="0 0 64 64">
  <!-- Generator: Adobe Illustrator 29.5.1, SVG Export Plug-In . SVG Version: 2.1.0 Build 141)  -->
  <path d="M37.987,31.326c-1.775-2.016-4.172-3.381-6.811-3.867-.542-.104-1.064.259-1.165.802-.1.544.259,1.065.802,1.165,2.358.435,4.485,1.713,5.989,3.6.232.292.607.433.974.358,3.837-.746,7.218,2.173,7.218,5.879s-3.382,6.625-7.218,5.879c-.366-.072-.741.067-.974.357-1.908,2.392-4.754,3.764-7.808,3.764-5.514,0-10-4.486-10-10,0-4.829,3.44-8.966,8.181-9.837.543-.1.903-.621.803-1.164-.099-.543-.616-.905-1.164-.803-5.69,1.045-9.819,6.009-9.819,11.804,0,6.617,5.383,12,12,12,3.469,0,6.714-1.474,8.992-4.063,4.841.6,9.008-3.193,9.008-7.937,0-4.743-4.167-8.533-9.008-7.937Z"/>
  <path d="M21.995,39.262c0,3.309,2.691,6,6,6s6-2.691,6-6-2.691-6-6-6-6,2.691-6,6ZM27.995,35.262c2.206,0,4,1.794,4,4s-1.794,4-4,4-4-1.794-4-4,1.794-4,4-4Z"/>
  <path d="M17.783,31.144l.375-3,2.999-.375c.454-.057.812-.414.868-.868l.375-3,3-.374c.454-.057.812-.414.868-.868l.375-3,2.999-.375c.379-.047.698-.307.822-.668s.031-.762-.239-1.031c-2.813-2.812-6.405-4.52-10.116-4.805-3.771-.29-7.208.914-9.683,3.391-5.068,5.068-4.434,13.95,1.414,19.799.58.58,1.598.229,1.699-.583l.375-3,3-.374c.454-.057.812-.414.868-.868ZM16.27,27.125l-.375,3-3,.374c-.454.057-.812.414-.868.868l-.194,1.551c-3.725-4.961-3.84-11.485.008-15.333,1.853-1.853,4.375-2.847,7.181-2.847.308,0,.62.012.935.036,2.559.197,5.061,1.177,7.22,2.803l-1.553.194c-.454.057-.812.414-.868.868l-.375,3-3,.374c-.454.057-.812.414-.868.868l-.375,3-2.999.375c-.454.057-.812.414-.868.868Z"/>
  <path d="M53.562,16.176c-1.709-1.71-3.922-2.833-6.401-3.249-.549-.094-1.061.276-1.152.821-.091.544.276,1.06.821,1.151,2.066.347,3.905,1.277,5.319,2.691,2.057,2.053,3.056,4.933,2.811,8.109-.197,2.556-1.175,5.058-2.799,7.217l-.193-1.548c-.057-.454-.415-.812-.869-.868l-3.007-.375-.374-2.997c-.057-.453-.413-.811-.866-.868l-3-.382-.374-3c-.057-.454-.414-.812-.868-.868l-2.998-.374-.374-2.998c-.057-.454-.415-.812-.869-.868l-1.546-.192c1.899-1.424,4.085-2.363,6.32-2.696.546-.082.923-.591.842-1.137-.082-.547-.597-.919-1.137-.842-3.333.497-6.558,2.16-9.08,4.683-.27.271-.363.671-.239,1.032s.443.62.822.667l2.998.374.374,2.997c.057.454.414.812.868.868l2.998.374.374,2.998c.056.453.413.811.866.868l3,.382.375,3c.057.454.415.812.869.868l3.007.375.374,2.997c.047.379.307.698.668.822.363.125.761.031,1.032-.24,2.81-2.814,4.515-6.407,4.801-10.115.29-3.77-.915-7.206-3.392-9.678Z"/>
</svg>