<?xml version="1.0" encoding="UTF-8"?>
<svg id="Outline" xmlns="http://www.w3.org/2000/svg" version="1.1" viewBox="0 0 64 64">
  <!-- Generator: Adobe Illustrator 29.5.1, SVG Export Plug-In . SVG Version: 2.1.0 Build 141)  -->
  <path d="M49,20h-7v-10c0-1.65-1.35-3-3-3H15c-1.65,0-3,1.35-3,3v44c0,1.65,1.35,3,3,3h24c1.65,0,3-1.35,3-3v-10h7c1.65,0,3-1.35,3-3v-18c0-1.65-1.35-3-3-3ZM29.82,9h9.18c.55,0,1,.45,1,1v1.18c-.31-.11-.65-.18-1-.18h-9.18c.11-.31.18-.65.18-1s-.07-.69-.18-1ZM27,9c.55,0,1,.45,1,1s-.45,1-1,1-1-.45-1-1,.45-1,1-1ZM14,10c0-.55.45-1,1-1h9.18c-.11.31-.18.65-.18,1s.07.69.18,1h-9.18c-.35,0-.69.07-1,.18v-1.18ZM22.18,55h-7.18c-.55,0-1-.45-1-1v-1h8.18c-.11.31-.18.65-.18,1s.07.69.18,1ZM29,55h-4c-.55,0-1-.45-1-1s.45-1,1-1h4c.55,0,1,.45,1,1s-.45,1-1,1ZM40,54c0,.55-.45,1-1,1h-7.18c.11-.31.18-.65.18-1s-.07-.69-.18-1h8.18v1ZM40,51H14V14c0-.55.45-1,1-1h24c.55,0,1,.45,1,1v6h-19c-1.65,0-3,1.35-3,3v18c0,1.65,1.35,3,3,3h19v7ZM33.96,27.56l.1-.06c1.19-.8,2.53-1.29,3.94-1.44v5.88c-1.41-.15-2.75-.64-3.94-1.44l-.1-.06c.02-.15.04-.29.04-.44v-2c0-.15-.02-.29-.04-.44ZM31,33c.77,0,1.47-.3,2-.78v9.78h-4v-9.78c.53.48,1.23.78,2,.78ZM30,30v-2c0-.55.45-1,1-1s1,.45,1,1v2c0,.55-.45,1-1,1s-1-.45-1-1ZM31,25c-.77,0-1.47.3-2,.78v-3.78h4v3.78c-.53-.48-1.23-.78-2-.78ZM28.04,30.44l-.1.06c-1.19.8-2.53,1.29-3.94,1.44v-5.88c1.41.15,2.75.64,3.94,1.44l.1.06c-.02.15-.04.29-.04.44v2c0,.15.02.29.04.44ZM22,27v4h-2v-4h2ZM20,25v-2c0-.55.45-1,1-1h6v2.76c-1.27-.5-2.62-.76-4-.76-.55,0-1,.45-1,1h-2ZM22,33c0,.55.45,1,1,1,1.38,0,2.73-.26,4-.76v8.76h-6c-.55,0-1-.45-1-1v-8h2ZM50,41c0,.55-.45,1-1,1h-14v-8.76c1.27.5,2.62.76,4,.76.55,0,1-.45,1-1h10v8ZM50,31h-10v-4h10v4ZM50,25h-10c0-.55-.45-1-1-1-1.38,0-2.73.26-4,.76v-2.76h14c.55,0,1,.45,1,1v2Z"/>
</svg>