<?xml version="1.0" encoding="UTF-8"?>
<svg id="Outline" xmlns="http://www.w3.org/2000/svg" version="1.1" viewBox="0 0 64 64">
  <!-- Generator: Adobe Illustrator 29.5.1, SVG Export Plug-In . SVG Version: 2.1.0 Build 141)  -->
  <path d="M56.55,23.171l-5.55-3.71v-5.46c0-1.65-1.35-3-3-3h-9.7l-5.75-3.83c-.33-.23-.77-.23-1.1,0l-5.75,3.83h-9.7c-1.65,0-3,1.35-3,3v5.46l-5.55,3.71c-.28.18-.45.5-.45.83v30c0,1.65,1.35,3,3,3h44c1.65,0,3-1.35,3-3v-30c0-.33-.17-.65-.45-.83ZM32,9.201l2.7,1.8h-5.4l2.7-1.8ZM15,14.001c0-.55.45-1,1-1h32c.55,0,1,.45,1,1v16.88l-17,9.76-17-9.77V14.001ZM9,24.541l4-2.67v7.85l-4-2.3v-2.88ZM10,55.001c-.55,0-1-.45-1-1v-24.27l22.49,12.92c.01,0,.02.01.03.02l21.47,12.33H10ZM55,53.851l-20.99-12.06,20.99-12.05v24.11ZM55,27.431l-4,2.3v-7.86l4,2.67v2.89Z"/>
  <path d="M32.043,36.001c3.859,0,7.255-2.33,8.651-5.936.143-.369.055-.788-.226-1.068-.28-.281-.7-.369-1.068-.226-.85.33-1.733.497-2.625.497-4.015,0-7.282-3.267-7.282-7.282,0-.892.167-1.774.497-2.625.143-.369.055-.788-.226-1.068s-.699-.368-1.068-.226c-3.605,1.396-5.935,4.792-5.935,8.651,0,5.118,4.164,9.282,9.282,9.282ZM27.548,20.991c-.036.33-.054.663-.054.996,0,5.118,4.164,9.282,9.282,9.282.333,0,.666-.018.997-.055-1.352,1.738-3.437,2.787-5.729,2.787-4.015,0-7.282-3.267-7.282-7.282,0-2.292,1.049-4.376,2.787-5.729Z"/>
  <path d="M33.175,22.772l-.416,3.097c-.049.364.106.726.403.942.298.216.689.25,1.021.092l2.816-1.352,2.816,1.352c.137.066.285.099.432.099.59,0,1.07-.552.992-1.133l-.416-3.097,2.156-2.26c.253-.266.341-.65.228-1-.114-.35-.41-.608-.771-.675l-3.074-.562-1.483-2.749c-.349-.647-1.411-.647-1.76,0l-1.483,2.749-3.074.562c-.362.066-.658.325-.771.675-.113.35-.026.733.228,1l2.156,2.26ZM35.468,20.157c.299-.055.556-.242.7-.509l.832-1.541.832,1.541c.144.267.401.454.7.509l1.723.314-1.209,1.267c-.209.22-.308.522-.268.823l.233,1.736-1.579-.758c-.137-.066-.285-.099-.433-.099s-.296.033-.433.099l-1.579.758.233-1.736c.04-.301-.058-.604-.268-.823l-1.209-1.267,1.723-.314Z"/>
</svg>