<?xml version="1.0" encoding="UTF-8"?>
<svg id="Outline" xmlns="http://www.w3.org/2000/svg" version="1.1" viewBox="0 0 64 64">
  <!-- Generator: Adobe Illustrator 29.0.0, SVG Export Plug-In . SVG Version: 2.1.0 Build 186)  -->
  <path d="M51.40002,45.35999c.39996-.96002.72998-1.95001.98999-2.96997,0-.01001,0-.02002.01001-.04004.3195-.63903.35551-1.71741.44288-2.44959.09368-.78507.15709-1.57924.15709-2.37042,0-2.35999-1.81-4.26996-4.10999-4.48999l-1.90002-15.15997c-.06-.5-.48999-.88-.98999-.88h-6.26001c.16003-.64001.26001-1.31.26001-2,0-4.41003-3.59003-8-8-8s-8,3.58997-8,8c0,.69.09998,1.35999.26001,2h-6.26001c-.5,0-.92999.38-.98999.88l-1.90002,15.15997c-2.29999.22003-4.10999,2.13-4.10999,4.48999,0,.15002.01001.29999.01001.48999.03998,1.46002.23999,2.92004.58997,4.33002.01001.02002.01001.03003.01001.04004.26001,1.01996.59003,2.00995.98999,2.96997-.94.5-1.59998,1.48999-1.59998,2.64001,0,1.64996,1.34998,3,3,3h2v3c0,1.64996,1.34998,3,3,3h2c1.65002,0,3-1.35004,3-3v-3h16v3c0,1.64996,1.34998,3,3,3h2c1.65002,0,3-1.35004,3-3v-3h2c1.65002,0,3-1.35004,3-3,0-1.15002-.65997-2.14001-1.59998-2.64001ZM45.12,19l1.75,14h-1.98999l-1.41998-11.13c-.06-.5-.49005-.87-.99005-.87h-5.19995c.64996-.57001,1.20996-1.25,1.64996-2h6.20001ZM33.17999,33c.41998-1.16003,1.52002-2,2.82001-2s2.40002.83997,2.82001,2h-5.64001ZM38,35v2h-12v-2h12ZM36,29c-2.40997,0-4.42999,1.71997-4.90002,4h-9.95996l1.26996-10h19.18005l1.26996,10h-1.95996c-.47003-2.28003-2.49005-4-4.90002-4ZM32,9c3.31,0,6,2.69,6,6s-2.69,6-6,6-6-2.69-6-6,2.69-6,6-6ZM18.88,19h6.20001c.44.75,1,1.42999,1.64996,2h-5.19995c-.5,0-.93005.37-.99005.87l-1.41998,11.13h-1.98999l1.75-14ZM15.53003,35h8.46997v3c0,.54999.45001,1,1,1h14c.54999,0,1-.45001,1-1v-3h8.46997c1.21002,0,2.23004.85999,2.47003,2h-2.94c-2.76001,0-5,2.23999-5,5,0,.54999.45001,1,1,1h6.13c-.21002.67999-.46002,1.34998-.76001,2h-6.87l-2.70001-3.60004c-.19-.25-.48999-.39996-.79999-.39996h-14c-.31,0-.60999.14996-.79999.39996l-2.70001,3.60004h-6.87c-.29999-.65002-.54999-1.32001-.76001-2h6.13c.54999,0,1-.45001,1-1,0-2.76001-2.23999-5-5-5h-2.94c.23999-1.14001,1.26001-2,2.47003-2ZM50.91998,39c-.06.66998-.14996,1.33997-.27997,2h-5.47003c.41003-1.16003,1.53003-2,2.83002-2h2.91998ZM40,45h-16l1.5-2h13l1.5,2ZM13.35999,41c-.13-.66003-.21997-1.33002-.27997-2h2.91998c1.29999,0,2.41998.83997,2.83002,2h-5.47003ZM22,54c0,.54999-.45001,1-1,1h-2c-.54999,0-1-.45001-1-1v-3h4v3ZM46,54c0,.54999-.45001,1-1,1h-2c-.54999,0-1-.45001-1-1v-3h4v3ZM50,49H14c-.54999,0-1-.45001-1-1s.45001-1,1-1h36c.54999,0,1,.45001,1,1s-.45001,1-1,1Z"/>
  <path d="M30,16h2.13135l-.96338,1.44531c-.30612.45942-.18216,1.08042.27719,1.38661.42638.28421,1.08079.1815,1.38688-.27724l2-3c.20459-.30664.22363-.70117.0498-1.02637-.17432-.3252-.51318-.52832-.88184-.52832h-2.13135l.96338-1.44531c.30615-.45947.18213-1.08057-.27734-1.38672-.45996-.30762-1.08008-.18311-1.38672.27734l-2,3c-.20459.30664-.22363.70117-.0498,1.02637.17432.3252.51318.52832.88184.52832Z"/>
</svg>