<?xml version="1.0" encoding="UTF-8"?>
<svg id="Outline" xmlns="http://www.w3.org/2000/svg" version="1.1" viewBox="0 0 64 64">
  <!-- Generator: Adobe Illustrator 29.0.0, SVG Export Plug-In . SVG Version: 2.1.0 Build 186)  -->
  <path d="M54,45v-9c0-1.35999-.91998-2.51001-2.16998-2.87l-3.5-15.78003c-.32001-1.38-1.52002-2.34998-2.92999-2.34998h-4.46002c-.5-4.48999-4.32001-8-8.94-8s-8.44,3.51001-8.94,8h-4.46002c-1.40997,0-2.60999.96997-2.92999,2.34998l-3.5,15.78003c-1.25.35999-2.16998,1.51001-2.16998,2.87v9c-1.65002,0-3,1.34998-3,3s1.34998,3,3,3h2v3c0,1.64996,1.34998,3,3,3h4c1.65002,0,3-1.35004,3-3v-3h20v3c0,1.64996,1.34998,3,3,3h4c1.65002,0,3-1.35004,3-3v-3h2c1.65002,0,3-1.35004,3-3s-1.34998-3-3-3ZM32,9c3.85999,0,7,3.14001,7,7s-3.14001,7-7,7-7-3.14001-7-7,3.14001-7,7-7ZM12,36c0-.54999.45001-1,1-1h4c.54999,0,1-.45001,1-1s-.45001-1-1-1h-2.75l3.37-15.21002c.10999-.46002.51001-.78998.97998-.78998h4.46002c.5,4.48999,4.32001,8,8.94,8s8.44-3.51001,8.94-8h4.46002c.46997,0,.87.32996.96997.78998l3.38,15.21002h-2.83002c-.48999-3.39001-3.39996-6-6.91998-6s-6.42999,2.60999-6.91998,6h-8.08002c-.54999,0-1,.45001-1,1s.45001,1,1,1h26c.54999,0,1,.45001,1,1v9H12v-9ZM44.90002,33h-9.80005c.47003-2.28003,2.49005-4,4.90002-4s4.42999,1.71997,4.90002,4ZM20,54c0,.54999-.45001,1-1,1h-4c-.54999,0-1-.45001-1-1v-3h6v3ZM50,54c0,.54999-.45001,1-1,1h-4c-.54999,0-1-.45001-1-1v-3h6v3ZM54,49H10c-.54999,0-1-.45001-1-1s.45001-1,1-1h44c.54999,0,1,.45001,1,1s-.45001,1-1,1Z"/>
  <path d="M18,37c-2.24316,0-4,1.31738-4,3s1.75684,3,4,3,4-1.31738,4-3-1.75684-3-4-3ZM18,41c-1.2207,0-2-.5918-2-1s.7793-1,2-1,2,.5918,2,1-.7793,1-2,1Z"/>
  <path d="M46,37c-2.24316,0-4,1.31738-4,3s1.75684,3,4,3,4-1.31738,4-3-1.75684-3-4-3ZM46,41c-1.2207,0-2-.5918-2-1s.7793-1,2-1,2,.5918,2,1-.7793,1-2,1Z"/>
  <path d="M38,41h-11c-.55225,0-1,.44727-1,1s.44775,1,1,1h11c.55225,0,1-.44727,1-1s-.44775-1-1-1Z"/>
  <path d="M38,37h-11c-.55225,0-1,.44727-1,1s.44775,1,1,1h11c.55225,0,1-.44727,1-1s-.44775-1-1-1Z"/>
  <path d="M30,17h2.71924l-.68945,2.75781c-.13379.53516.19189,1.07812.72759,1.21193.52895.133,1.08033-.19752,1.21284-.72755l1-4c.07471-.29883.00732-.61523-.18213-.85742-.18945-.24316-.47998-.38477-.78809-.38477h-2.71924l.68945-2.75781c.13379-.53516-.19189-1.07812-.72754-1.21191-.53418-.13281-1.07861.19043-1.21289.72754l-1,4c-.07471.29883-.00732.61523.18213.85742.18945.24316.47998.38477.78809.38477Z"/>
  <circle cx="21" cy="34" r="1"/>
</svg>