<?xml version="1.0" encoding="UTF-8"?>
<svg id="Outline" xmlns="http://www.w3.org/2000/svg" version="1.1" viewBox="0 0 64 64">
  <!-- Generator: Adobe Illustrator 29.5.1, SVG Export Plug-In . SVG Version: 2.1.0 Build 141)  -->
  <path d="M18.301,12c0-.553-.447-1-1-1-3.475,0-6.301,2.826-6.301,6.301,0,.553.447,1,1,1s1-.447,1-1c0-2.371,1.93-4.301,4.301-4.301.553,0,1-.447,1-1Z"/>
  <path d="M52,18.301c.553,0,1-.447,1-1,0-3.475-2.826-6.301-6.301-6.301-.553,0-1,.447-1,1s.447,1,1,1c2.371,0,4.301,1.93,4.301,4.301,0,.553.447,1,1,1Z"/>
  <path d="M53.98,37.99c-.65-1.46-.98-3.01-.98-4.61,0-1.45.27-2.87.81-4.22l1.74-4.35c.96-2.4,1.45-4.93,1.45-7.51,0-5.68-4.62-10.3-10.3-10.3-3.26,0-6.36,1.57-8.29,4.19l-1.28,1.73c-1.62-.59-3.35-.92-5.13-.92-1.79,0-3.52.33-5.13.92l-1.28-1.73c-1.93-2.62-5.03-4.19-8.29-4.19-5.68,0-10.3,4.62-10.3,10.3,0,2.58.49,5.11,1.45,7.51l1.74,4.35c.54,1.35.81,2.77.81,4.22,0,1.6-.33,3.15-.98,4.61l-1.25,2.8c-1.19,2.68-1,5.78.51,8.29.65,1.08,1.82,1.73,3.06,1.73.15,0,.3-.01.44-.02,4.11-.52,7.8-2.51,10.5-5.6.93.67,1.94,1.23,3.02,1.68-.32,2.53.45,5.09,2.13,7.03,1.71,1.97,4.18,3.1,6.79,3.1h2.78c4.41,0,8.08-3.19,8.85-7.38,1.38.57,2.84.97,4.37,1.17.14.01.29.02.44.02,1.24,0,2.41-.65,3.06-1.73,1.51-2.51,1.7-5.61.51-8.29l-1.25-2.8ZM32,14c.8,0,1.59.08,2.36.22-.56,1.09-1.44,1.78-2.36,1.78s-1.8-.69-2.36-1.78c.77-.15,1.56-.22,2.36-.22ZM27.68,14.76c.87,2,2.49,3.24,4.32,3.24s3.45-1.25,4.33-3.25c.73.26,1.43.58,2.1.96-1.08,2.56-3.62,4.29-6.43,4.29s-5.34-1.73-6.43-4.27c.67-.39,1.37-.71,2.11-.97ZM33,23c0,.55-.45,1-1,1s-1-.45-1-1,.45-1,1-1,1,.45,1,1ZM29.37,21.59c-.23.42-.37.9-.37,1.41,0,1.65,1.35,3,3,3s3-1.35,3-3c0-.51-.14-.99-.37-1.41,2.39-.74,4.41-2.45,5.5-4.73.3.24.59.5.87.77v1.37c0,1.65-1.35,3-3,3-.55,0-1,.45-1,1,0,2.76-2.24,5-5,5s-5-2.24-5-5c0-.55-.45-1-1-1-1.65,0-3-1.35-3-3v-1.34c.28-.27.58-.53.88-.78,1.1,2.27,3.11,3.97,5.49,4.71ZM38,55h-2.78c-2.03,0-3.95-.88-5.28-2.41-1.33-1.54-1.93-3.57-1.65-5.58l.7-4.87c.08-.55-.3-1.05-.85-1.13-.55-.08-1.05.3-1.13.85l-.42,2.95c-4.58-2.1-7.59-6.7-7.59-11.81,0-.55-.45-1-1-1s-1,.45-1,1c0,4.22,1.79,8.14,4.74,10.92-2.38,2.7-5.61,4.43-9.2,4.88-.62.08-1.22-.22-1.54-.75-1.18-1.95-1.32-4.36-.4-6.44l1.25-2.81c.76-1.72,1.15-3.54,1.15-5.42,0-1.71-.32-3.38-.96-4.96l-1.74-4.36c-.86-2.16-1.3-4.43-1.3-6.76,0-4.58,3.72-8.3,8.3-8.3,2.63,0,5.12,1.26,6.68,3.38l1.03,1.38c-4.13,2.2-7.17,6.25-7.86,11.11-.08.55.3,1.05.85,1.13.55.08,1.05-.3,1.13-.85.27-1.9.97-3.66,1.97-5.2.38,2,1.96,3.58,3.96,3.96.45,3.43,3.39,6.09,6.94,6.09s6.49-2.66,6.94-6.09c2.01-.38,3.59-1.97,3.97-3.97,1.36,2.09,2.09,4.52,2.09,7.06v6c0,5.25-3.23,10-8,11.99v-2.99c0-.55-.45-1-1-1s-1,.45-1,1v6.5c0,1.93,1.57,3.5,3.5,3.5,1.76,0,3.22-1.31,3.46-3h2.97c-.49,3.39-3.41,6-6.93,6ZM42.54,47h-1.54c-.55,0-1,.45-1,1v.5c0,.83-.67,1.5-1.5,1.5s-1.5-.67-1.5-1.5v-1.37c1.34-.47,2.59-1.13,3.72-1.94.57.65,1.17,1.26,1.82,1.81ZM53,48.05c-.32.53-.92.83-1.54.75-1.66-.21-3.24-.7-4.7-1.43-.17-.21-.42-.35-.72-.36-1.41-.8-2.68-1.85-3.78-3.1,2.94-2.78,4.74-6.7,4.74-10.91v-6c0-4-1.56-7.76-4.39-10.61-1.08-1.07-2.29-1.96-3.6-2.65l1.01-1.36c1.56-2.12,4.05-3.38,6.68-3.38,4.58,0,8.3,3.72,8.3,8.3,0,2.33-.44,4.6-1.3,6.76l-1.74,4.36c-.64,1.58-.96,3.25-.96,4.96,0,1.88.39,3.7,1.15,5.42l1.25,2.81c.92,2.08.78,4.49-.4,6.44Z"/>
  <path d="M27.445,32.168c-1.486.99-3.404.99-4.891,0-.461-.307-1.081-.183-1.387.277-.307.46-.183,1.08.277,1.387,1.08.72,2.317,1.08,3.555,1.08s2.475-.36,3.555-1.08c.46-.307.584-.927.277-1.387-.306-.46-.926-.584-1.387-.277Z"/>
  <path d="M38.777,34.911c1.238,0,2.476-.359,3.555-1.079.46-.307.584-.927.277-1.387-.306-.46-.927-.584-1.387-.277-1.484.989-3.404.99-4.891,0-.462-.307-1.082-.183-1.387.277-.307.46-.182,1.081.277,1.387,1.08.72,2.317,1.079,3.555,1.079Z"/>
  <path d="M32,35c-.553,0-1,.447-1,1v4c0,.553.447,1,1,1s1-.447,1-1v-4c0-.553-.447-1-1-1Z"/>
  <circle cx="18" cy="29" r="1"/>
</svg>