<?xml version="1.0" encoding="UTF-8"?>
<svg id="Outline" xmlns="http://www.w3.org/2000/svg" version="1.1" viewBox="0 0 64 64">
  <!-- Generator: Adobe Illustrator 29.3.1, SVG Export Plug-In . SVG Version: 2.1.0 Build 151)  -->
  <path d="M54,37h-1V10c0-1.6543-1.3457-3-3-3H10c-1.6543,0-3,1.3457-3,3v34c0,1.6543,1.3457,3,3,3h19v7c0,1.6543,1.3457,3,3,3h22c1.6543,0,3-1.3457,3-3v-14c0-1.6543-1.3457-3-3-3ZM51,10v5h-21.38184l3-6h17.38184c.55176,0,1,.44824,1,1ZM24.61816,15l3-6h2.76367l-3,6h-2.76367ZM10,9h15.38184l-3,6h-13.38184v-5c0-.55176.44824-1,1-1ZM10,45c-.55176,0-1-.44824-1-1v-27h42v20h-19c-1.6543,0-3,1.3457-3,3v5H10ZM55,54c0,.55176-.44824,1-1,1h-22c-.55176,0-1-.44824-1-1v-14c0-.55176.44824-1,1-1h22c.55176,0,1,.44824,1,1v14Z"/>
  <path d="M52.78906,41.38574c-.33789-.43359-.96484-.51562-1.40332-.1748l-8.38574,6.52246-8.38574-6.52246c-.43652-.34082-1.06445-.25879-1.40332.1748-.33984.43652-.26074,1.06445.1748,1.40332l5.41443,4.21136-5.41443,4.21051c-.43555.33887-.51465.9668-.1748,1.40332.19727.25293.49219.38574.79004.38574.21387,0,.43066-.06836.61328-.21094l5.8147-4.52179,1.34253,1.04425c.36133.28125.79492.42188,1.22852.42188s.86719-.14062,1.22852-.42188l1.34253-1.04425,5.8147,4.52179c.18262.14258.39941.21094.61328.21094.29785,0,.59277-.13281.79004-.38574.33984-.43652.26074-1.06445-.1748-1.40332l-5.41443-4.21051,5.41443-4.21136c.43555-.33887.51465-.9668.1748-1.40332Z"/>
  <circle cx="12" cy="12" r="1"/>
  <circle cx="16" cy="12" r="1"/>
  <circle cx="20" cy="12" r="1"/>
  <path d="M38,13h10c.55273,0,1-.44727,1-1s-.44727-1-1-1h-10c-.55273,0-1,.44727-1,1s.44727,1,1,1Z"/>
  <path d="M13,27h6c1.10254,0,2-.89746,2-2v-4c0-1.10254-.89746-2-2-2h-6c-1.10254,0-2,.89746-2,2v4c0,1.10254.89746,2,2,2ZM13,21h6l.00195,4h-6.00195v-4Z"/>
  <path d="M25,27h22c1.10254,0,2-.89746,2-2v-4c0-1.10254-.89746-2-2-2h-22c-1.10254,0-2,.89746-2,2v4c0,1.10254.89746,2,2,2ZM25,21h22l.00195,4h-22.00195v-4Z"/>
  <path d="M12,31h36c.55273,0,1-.44727,1-1s-.44727-1-1-1H12c-.55273,0-1,.44727-1,1s.44727,1,1,1Z"/>
  <path d="M12,35h10c.55273,0,1-.44727,1-1s-.44727-1-1-1h-10c-.55273,0-1,.44727-1,1s.44727,1,1,1Z"/>
  <path d="M48,33h-22c-.55273,0-1,.44727-1,1s.44727,1,1,1h22c.55273,0,1-.44727,1-1s-.44727-1-1-1Z"/>
  <path d="M26,37h-14c-.55273,0-1,.44727-1,1s.44727,1,1,1h14c.55273,0,1-.44727,1-1s-.44727-1-1-1Z"/>
  <path d="M19,41h-7c-.55273,0-1,.44727-1,1s.44727,1,1,1h7c.55273,0,1-.44727,1-1s-.44727-1-1-1Z"/>
  <path d="M26,41h-3c-.55273,0-1,.44727-1,1s.44727,1,1,1h3c.55273,0,1-.44727,1-1s-.44727-1-1-1Z"/>
</svg>