<?xml version="1.0" encoding="UTF-8"?>
<svg id="Outline" xmlns="http://www.w3.org/2000/svg" version="1.1" viewBox="0 0 64 64">
  <!-- Generator: Adobe Illustrator 29.3.1, SVG Export Plug-In . SVG Version: 2.1.0 Build 151)  -->
  <path d="M53,25.89996v-2c2.28003-.46997,4-2.48999,4-4.89996s-1.71997-4.42999-4-4.90002v-4.09998c0-1.65002-1.34998-3-3-3-1.40002,0-2.56.95996-2.90002,2.26001l-2.06995.73999h-27.03003c-1.65002,0-3,1.34998-3,3v9.22998l-7.02002,6.44c-.62.56-.97998,1.37-.97998,2.21002v23.12c0,1.64996,1.34998,3,3,3h44c1.65002,0,3-1.35004,3-3v-23.12c0-.84003-.35999-1.65002-.96997-2.21002l-3.03003-2.77002ZM53,16.17999c1.15997.41998,2,1.52002,2,2.82001s-.84003,2.39996-2,2.82001v-5.64001ZM49,10c0-.54999.45001-1,1-1s1,.45001,1,1v18c0,.54999-.45001,1-1,1s-1-.45001-1-1V10ZM49,30.82001c.31.10999.65002.17999,1,.17999,1.46002,0,2.67999-1.04999,2.94-2.44l1.52002,1.39001-5.46002,4.31995v-3.44995ZM47,11.41998v15.15997l-12-4.27997v-6.59998l12-4.28003ZM17,13c0-.54999.45001-1,1-1h21.42999l-5.59998,2h-3.83002c-1.65002,0-3,1.34998-3,3v4c0,1.34998.90002,2.47998,2.13,2.85999l1.60999,9.65997c.23999,1.44,1.47003,2.48004,2.92999,2.48004.88,0,1.70001-.38,2.27002-1.04999.56-.67004.81-1.55005.65997-2.41003l-1.32996-8.02997,11.72998,4.19v7.14996l-8.88,7.03003-5.02002-3.34003c-.66998-.45001-1.52997-.45001-2.19995,0l-5.02002,3.34003-8.88-7.03003V13ZM33.15002,24l1.47998,8.87c.04999.27997-.03003.56-.22003.78998-.17999.22003-.44995.34003-.73999.34003-.47998,0-.88-.34003-.95996-.81l-1.53003-9.19h1.97003ZM30,22c-.54999,0-1-.45001-1-1v-4c0-.54999.45001-1,1-1h3v6h-3ZM15,24.94v9.32996l-5.46002-4.31995,5.46002-5.01001ZM9.02002,54.10999c0-.03998-.02002-.07001-.02002-.10999v-21.92999l15.13,11.96997-15.10999,10.07001ZM11.28998,55l20.71002-13.79999,20.71002,13.79999H11.28998ZM55,54c0,.03998-.02002.07001-.02002.10999l-15.10999-10.07001,15.13-11.96997v21.92999Z"/>
  <path d="M34,47h-4c-1.6543,0-3,1.3457-3,3s1.3457,3,3,3h4c1.6543,0,3-1.3457,3-3s-1.3457-3-3-3ZM34,51h-4c-.55176,0-1-.44873-1-1s.44824-1,1-1h4c.55176,0,1,.44873,1,1s-.44824,1-1,1Z"/>
</svg>