<?xml version="1.0" encoding="UTF-8"?>
<svg id="Outline" xmlns="http://www.w3.org/2000/svg" version="1.1" viewBox="0 0 64 64">
  <!-- Generator: Adobe Illustrator 29.3.1, SVG Export Plug-In . SVG Version: 2.1.0 Build 151)  -->
  <path d="M53,33.09998v-4.09998c0-.31-.14001-.60004-.38-.79004-.25-.19-.57001-.25995-.85999-.17999l-6.76001,1.69v-12.71997c0-1.65002-1.34998-3-3-3h-16c-.54999,0-1,.45001-1,1s.45001,1,1,1h15.34998l-15.34998,11.73999-15.34998-11.73999h7.34998c.54999,0,1-.45001,1-1s-.45001-1-1-1h-8c-1.65002,0-3,1.34998-3,3v20c0,1.64996,1.34998,3,3,3h21v4c0,.54999.45001,1,1,1h1v2c0,1.64996,1.34998,3,3,3s3-1.35004,3-3v-2h.88l11.88,2.96997c.07995.02.15984.03001.23979.03003.5498.00011,1.0002-.45021,1.0002-1v-4.10004c2.28003-.46997,4-2.48999,4-4.89996s-1.71997-4.42999-4-4.90002ZM37,47c0,.54999-.45001,1-1,1s-1-.45001-1-1v-2h2v2ZM39,43h-6v-10h6v10ZM32,31c-.54999,0-1,.45001-1,1v6H10c-.54999,0-1-.45001-1-1v-19.73999l16.39001,12.52997c.17999.14001.39996.21002.60999.21002s.42999-.07001.60999-.21002l16.39001-12.52997v12.95996l-3.12.78003h-7.88ZM51,45.71997l-10-2.5v-10.44l10-2.5v15.44ZM53,40.82001v-5.64001c1.15997.41998,2,1.52002,2,2.82001s-.84003,2.39996-2,2.82001Z"/>
  <circle cx="22" cy="15" r="1"/>
</svg>