<?xml version="1.0" encoding="UTF-8"?>
<svg id="Outline" xmlns="http://www.w3.org/2000/svg" version="1.1" viewBox="0 0 64 64">
  <!-- Generator: Adobe Illustrator 29.5.1, SVG Export Plug-In . SVG Version: 2.1.0 Build 141)  -->
  <path d="M56.447,19.105l-5.447-2.724v-2.382c0-1.654-1.346-3-3-3h-7.764l-7.789-3.895c-.281-.141-.613-.141-.895,0l-7.789,3.895h-7.764c-1.654,0-3,1.346-3,3v2.382l-5.447,2.724c-.339.17-.553.516-.553.895v34c0,1.654,1.346,3,3,3h44c1.654,0,3-1.346,3-3V20c0-.379-.214-.725-.553-.895ZM32,9.118l3.764,1.882h-7.527l3.764-1.882ZM15,14c0-.552.448-1,1-1h32c.552,0,1,.448,1,1v16.868l-17.003,9.767-16.997-9.76V14ZM9,20.618l4-2v11.109l-4-2.297v-6.813ZM9,53.847v-24.11l20.99,12.052-20.99,12.058ZM55,54c0,.552-.448,1-1,1H11.008l21.468-12.333c.012-.007.024-.013.036-.021l17.865-10.263c.023-.009.042-.026.064-.037l4.56-2.62v24.272ZM55,27.421l-4,2.298v-11.101l4,2v6.803Z"/>
  <path d="M32,29c.553,0,1-.447,1-1s-.447-1-1-1c-2.757,0-5-2.243-5-5s2.243-5,5-5,5,2.243,5,5c0,.552-.448,1-1,1s-1-.448-1-1c0-1.654-1.346-3-3-3s-3,1.346-3,3,1.346,3,3,3c.771,0,1.468-.301,2-.78.532.48,1.229.78,2,.78,1.654,0,3-1.346,3-3,0-3.859-3.141-7-7-7s-7,3.141-7,7,3.141,7,7,7ZM32,23c-.552,0-1-.448-1-1s.448-1,1-1,1,.448,1,1-.448,1-1,1Z"/>
  <circle cx="32" cy="33" r="1"/>
  <circle cx="28" cy="33" r="1"/>
  <circle cx="36" cy="33" r="1"/>
</svg>