<?xml version="1.0" encoding="UTF-8"?>
<svg id="Outline" xmlns="http://www.w3.org/2000/svg" version="1.1" viewBox="0 0 64 64">
  <!-- Generator: Adobe Illustrator 29.3.1, SVG Export Plug-In . SVG Version: 2.1.0 Build 151)  -->
  <path d="M53.91998,24.04999l-1.91998-.81v-13.23999c0-1.65002-1.34998-3-3-3H16.37c-1.21002,0-2.29999.48999-3.08997,1.27997-.79004.79004-1.28003,1.88-1.28003,3.09003v11.87l-1.92999.81c-1.85999.78998-3.07001,2.59998-3.07001,4.62v25.33002c0,1.64996,1.34998,3,3,3h44c1.65002,0,3-1.35004,3-3v-25.33002c0-2.02002-1.21002-3.83002-3.08002-4.62ZM40.34998,9l-18.63995,5.72998-1.10004-4.41998c-.12-.48004-.32001-.91998-.57001-1.31h20.31ZM14,11.37c0-1.31,1.06-2.37,2.37-2.37,1.09003,0,2.03003.73999,2.29999,1.78998l1.36005,5.45001c.13995.52997.71997.90002,1.25995.71997l25.86005-7.95996h1.84998c.54999,0,1,.45001,1,1v23.07001l-18,11.73999-18-11.73999V11.37ZM9,28.66998c0-1.21002.72998-2.29999,1.84003-2.77997l1.15997-.48004v6.35004l-3-1.95001v-1.14001ZM9,53.66998v-21.46997l14.08002,9.17999-14.08002,12.28998ZM10.52002,55l14.29999-12.48999,6.63,4.32996c.16998.11005.35999.16003.54999.16003s.38-.04999.54999-.16003l6.63-4.32996,14.29999,12.48999H10.52002ZM55,53.66998l-14.08002-12.28998,14.08002-9.17999v21.46997ZM55,29.81l-3,1.95001v-6.35004l1.15002.48004c1.12.47998,1.84998,1.56995,1.84998,2.77997v1.14001Z"/>
  <path d="M23,30h3v7c0,.55225.44727,1,1,1h4c.55273,0,1-.44775,1-1v-4.92285l4.62891,1.85156c.11914.04785.24512.07129.37109.07129h4c.55273,0,1-.44775,1-1v-16c0-.55225-.44727-1-1-1h-4c-.0127,0-.02325.00677-.03583.00726-.11389.00403-.22748.02051-.33527.06403l-9.82178,3.92871h-3.80713c-.55273,0-1,.44775-1,1v8c0,.55225.44727,1,1,1ZM30,36h-2v-5.52283l2,.79999v4.72284ZM40,32h-2v-14h2v14ZM36,31.52295l-8-3.2002v-6.64551l8-3.2002v13.0459ZM24,22h2v6h-2v-6Z"/>
</svg>