<?xml version="1.0" encoding="UTF-8"?>
<svg id="Outline" xmlns="http://www.w3.org/2000/svg" version="1.1" viewBox="0 0 64 64">
  <!-- Generator: Adobe Illustrator 29.3.1, SVG Export Plug-In . SVG Version: 2.1.0 Build 151)  -->
  <path d="M54,25h-5v-15c0-1.65002-1.34998-3-3-3h-28c-1.65002,0-3,1.34998-3,3v15h-5c-1.65002,0-3,1.34998-3,3v26c0,1.64996,1.34998,3,3,3h44c1.65002,0,3-1.35004,3-3v-26c0-1.65002-1.34998-3-3-3ZM49,27h3.63l-3.63,2.35999v-2.35999ZM17,10c0-.54999.45001-1,1-1h28c.54999,0,1,.45001,1,1v20.65997l-11.29999,7.34003h-7.40002l-11.29999-7.34003V10ZM52.63,51H11.37l16.92999-11h7.40002l16.92999,11ZM15,27v2.35999l-3.63-2.35999h3.63ZM9,28c0-.04999.02002-.09003.03003-.14001l17.13995,11.14001-17.13995,11.14001c-.01001-.05005-.03003-.09003-.03003-.14001v-22ZM55,54c0,.54999-.45001,1-1,1H10c-.54999,0-1-.45001-1-1v-1.17999c.31.10999.65002.17999,1,.17999h44c.34998,0,.69-.07001,1-.17999v1.17999ZM55,50c0,.04999-.02002.08997-.03003.14001l-17.13995-11.14001,17.13995-11.14001c.01001.04999.03003.09003.03003.14001v22Z"/>
  <path d="M34,43h-4c-1.6543,0-3,1.3457-3,3s1.3457,3,3,3h4c1.6543,0,3-1.3457,3-3s-1.3457-3-3-3ZM34,47h-4c-.55127,0-1-.44873-1-1s.44873-1,1-1h4c.55127,0,1,.44873,1,1s-.44873,1-1,1Z"/>
  <path d="M21,21h22c1.10303,0,2-.89697,2-2v-6c0-1.10303-.89697-2-2-2h-22c-1.10303,0-2,.89697-2,2v6c0,1.10303.89697,2,2,2ZM21,13h22l.00146,6h-22.00146v-6Z"/>
  <path d="M20,25h24c.55225,0,1-.44775,1-1s-.44775-1-1-1h-24c-.55225,0-1,.44775-1,1s.44775,1,1,1Z"/>
  <path d="M41,27h-18c-.55225,0-1,.44775-1,1s.44775,1,1,1h18c.55225,0,1-.44775,1-1s-.44775-1-1-1Z"/>
</svg>