<?xml version="1.0" encoding="UTF-8"?>
<svg id="Outline" xmlns="http://www.w3.org/2000/svg" version="1.1" viewBox="0 0 64 64">
  <!-- Generator: Adobe Illustrator 29.5.1, SVG Export Plug-In . SVG Version: 2.1.0 Build 141)  -->
  <path d="M32,7c-13.78516,0-25,11.21484-25,25s11.21484,25,25,25,25-11.21484,25-25S45.78516,7,32,7ZM32,55c-12.68262,0-23-10.31787-23-23s10.31738-23,23-23,23,10.31787,23,23-10.31738,23-23,23Z"/>
  <path d="M22.13965,34c4.32227,0,8.04102-3.07617,8.84277-7.31396.08691-.45801-.1543-.91553-.58203-1.10205l-14.29004-6.25c-.41602-.18359-.94434-.04443-1.21484.32275-1.14844,1.55811-1.75586,3.40576-1.75586,5.34326,0,4.9624,4.03711,9,9,9ZM19.70148,23.0874l5.25934,2.30023c-.1925,1.46985-1.43927,2.61237-2.96082,2.61237-1.6543,0-3-1.3457-3-3,0-.71429.25513-1.38312.70148-1.9126ZM16.07422,21.50098l1.74463.76306c-.52698.80072-.81885,1.74432-.81885,2.73596,0,2.75684,2.24316,5,5,5,2.33832,0,4.29169-1.62018,4.83563-3.79242l1.99152.87103c-.89355,2.89355-3.5918,4.92139-6.6875,4.92139-3.85938,0-7-3.14014-7-7,0-1.24316.32129-2.43848.93457-3.49902Z"/>
  <path d="M41.86035,34c4.96289,0,9-4.0376,9-9,0-1.9375-.60742-3.78516-1.75586-5.34326-.26953-.36719-.79785-.50635-1.21484-.32275l-14.29004,6.25c-.42773.18652-.66895.64404-.58203,1.10205.80176,4.23779,4.52051,7.31396,8.84277,7.31396ZM45,25c0,1.6543-1.3457,3-3,3-1.52155,0-2.76831-1.14252-2.96082-2.61237l5.25934-2.30023c.44635.52948.70148,1.1983.70148,1.9126ZM37.16437,26.20758c.54395,2.17224,2.49731,3.79242,4.83563,3.79242,2.75684,0,5-2.24316,5-5,0-.99164-.29187-1.93524-.81885-2.73596l1.74463-.76306c.61328,1.06055.93457,2.25586.93457,3.49902,0,3.85986-3.14062,7-7,7-3.0957,0-5.79395-2.02783-6.6875-4.92139l1.99152-.87103Z"/>
  <path d="M51.46387,38.31006c-.26367-.27637-.66504-.37939-1.02832-.26221-12.06055,3.86133-24.81055,3.86133-36.87109,0-.36426-.11816-.76465-.01514-1.02832.26221-.26465.27783-.34766.68213-.21289,1.04053,3.05859,8.16406,10.96582,13.64941,19.67676,13.64941s16.61816-5.48535,19.67676-13.64941c.13477-.3584.05176-.7627-.21289-1.04053ZM24.16669,49.28711c2.08478-.80872,4.90485-1.28711,7.83331-1.28711s5.74854.47839,7.83331,1.28711c-2.41937,1.10266-5.08081,1.71289-7.83331,1.71289s-5.41394-.61023-7.83331-1.71289ZM42.03082,48.1106c-2.42151-1.32422-6.09558-2.1106-10.03082-2.1106s-7.60931.78638-10.03082,2.1106c-2.90887-1.8139-5.32916-4.39948-6.92133-7.52759,11.13477,3.14844,22.76953,3.14844,33.9043,0-1.59216,3.12811-4.01245,5.71368-6.92133,7.52759Z"/>
</svg>