<?xml version="1.0" encoding="UTF-8"?>
<svg id="Outline" xmlns="http://www.w3.org/2000/svg" version="1.1" viewBox="0 0 64 64">
  <!-- Generator: Adobe Illustrator 29.5.1, SVG Export Plug-In . SVG Version: 2.1.0 Build 141)  -->
  <path d="M35,21c0-2.036-.472-4.048-1.325-5.886l.032-.032c1.39-1.389,1.39-3.65,0-5.04-1.172-1.172-2.967-1.355-4.332-.548-.325-.192-.675-.323-1.034-.403-2.201-1.366-4.732-2.092-7.341-2.092s-5.139.726-7.339,2.091c-.36.08-.71.212-1.036.404-1.365-.807-3.16-.625-4.332.548-1.39,1.389-1.39,3.65,0,5.039l.032.032c-.853,1.837-1.325,3.85-1.325,5.886,0,7.72,6.28,14,14,14s14-6.28,14-14ZM30.082,11.458c.609-.61,1.602-.61,2.211,0s.609,1.602,0,2.211l-2.918,2.917-2.917-2.917c-.609-.609-.609-1.602,0-2.21.305-.305.705-.457,1.104-.457s.801.152,1.105.457c.391.39,1.023.39,1.414,0ZM9.707,11.458c.305-.305.705-.457,1.105-.457s.801.152,1.105.457c.391.39,1.023.39,1.414,0,.239-.239.537-.381.847-.433.005,0,.009,0,.014-.001.476-.075.981.067,1.349.434.609.609.609,1.602,0,2.211l-2.917,2.917-2.918-2.917c-.609-.609-.609-1.602,0-2.21ZM21,33c-6.617,0-12-5.383-12-12,0-1.5.288-2.99.832-4.379l2.086,2.086c.188.188.441.293.707.293s.52-.105.707-.293l3.624-3.625c1.39-1.389,1.39-3.65,0-5.04-.084-.083-.177-.151-.266-.224,2.75-1.039,5.871-1.039,8.62,0-.09.074-.183.141-.266.224-1.39,1.389-1.39,3.65,0,5.039l3.624,3.625c.188.188.441.293.707.293s.52-.105.707-.293l2.086-2.086c.544,1.389.832,2.878.832,4.379,0,6.617-5.383,12-12,12Z"/>
  <path d="M28.758,21.03c-5.076,1.269-10.439,1.269-15.516,0-.297-.074-.614-.007-.857.182-.243.189-.385.48-.385.788,0,4.962,4.037,9,9,9s9-4.038,9-9c0-.308-.142-.599-.385-.788-.243-.19-.561-.258-.857-.182ZM21,29c-3.423,0-6.279-2.469-6.883-5.72,4.529.935,9.236.935,13.766,0-.604,3.25-3.46,5.72-6.883,5.72Z"/>
  <path d="M55.68,37.11l.03-.03c1.39-1.39,1.39-3.65,0-5.04-1.18-1.17-2.97-1.35-4.33-.54-.33-.2-.68-.33-1.04-.41-2.2-1.36-4.73-2.09-7.34-2.09s-5.14.73-7.34,2.09c-.36.08-.71.21-1.04.41-1.36-.81-3.16-.63-4.33.54-1.39,1.39-1.39,3.65,0,5.04l.03.03c-.85,1.84-1.32,3.85-1.32,5.89,0,7.72,6.28,14,14,14,2.24,0,4.39-.52,6.38-1.54.5-.25.69-.85.44-1.35-.25-.49-.86-.68-1.35-.43-1.71.88-3.55,1.32-5.47,1.32-6.62,0-12-5.38-12-12,0-1.5.29-2.99.83-4.38l2.09,2.09c.19.18.44.29.7.29.27,0,.52-.11.71-.29l3.63-3.63c1.39-1.39,1.39-3.65,0-5.04-.09-.08-.18-.15-.27-.22,2.75-1.04,5.87-1.04,8.62,0-.09.07-.18.14-.27.22-1.39,1.39-1.39,3.65,0,5.04l3.63,3.63c.19.18.44.29.71.29.26,0,.51-.11.7-.29l2.09-2.09c.54,1.39.83,2.88.83,4.38,0,1.92-.44,3.76-1.32,5.48-.25.49-.06,1.09.44,1.34.14.08.3.11.45.11.36,0,.71-.2.89-.54,1.02-2,1.54-4.15,1.54-6.39,0-2.04-.47-4.05-1.32-5.89ZM37.54,35.67l-2.92,2.92-2.91-2.92c-.61-.61-.61-1.6,0-2.21.3-.31.7-.46,1.1-.46s.8.15,1.11.46c.39.39,1.02.39,1.41,0,.24-.24.54-.38.85-.43l.01-.01c.48-.07.98.07,1.35.44.61.61.61,1.6,0,2.21ZM54.29,35.67l-2.91,2.92-2.92-2.92c-.61-.61-.61-1.6,0-2.21.3-.31.7-.46,1.1-.46s.8.15,1.11.46c.39.39,1.02.39,1.41,0,.61-.61,1.6-.61,2.21,0s.61,1.6,0,2.21Z"/>
  <path d="M51.615,43.212c-.243-.189-.561-.257-.857-.182-5.076,1.269-10.439,1.269-15.516,0-.297-.073-.614-.007-.857.182-.243.189-.385.48-.385.788,0,4.962,4.037,9,9,9s9-4.038,9-9c0-.308-.142-.599-.385-.788ZM43,51c-3.423,0-6.279-2.469-6.883-5.72,4.529.935,9.236.935,13.766,0-.604,3.25-3.46,5.72-6.883,5.72Z"/>
  <circle cx="52" cy="52" r="1"/>
</svg>