<?xml version="1.0" encoding="UTF-8"?>
<svg id="Outline" xmlns="http://www.w3.org/2000/svg" version="1.1" viewBox="0 0 64 64">
  <!-- Generator: Adobe Illustrator 29.5.1, SVG Export Plug-In . SVG Version: 2.1.0 Build 141)  -->
  <path d="M45.395,22.191c.489-1.891,1.452-3.624,2.852-5.024l1.46-1.46c.391-.391.391-1.023,0-1.414s-1.023-.391-1.414,0l-1.46,1.46c-1.436,1.436-2.498,3.166-3.134,5.06-3.294-2.388-7.329-3.813-11.699-3.813s-8.405,1.425-11.699,3.813c-.636-1.895-1.698-3.624-3.134-5.06l-1.46-1.46c-.391-.391-1.023-.391-1.414,0s-.391,1.023,0,1.414l1.46,1.46c1.4,1.4,2.363,3.133,2.852,5.024-4.045,3.662-6.605,8.936-6.605,14.809,0,11.028,8.972,20,20,20s20-8.972,20-20c0-5.874-2.56-11.147-6.605-14.809ZM32,55c-9.925,0-18-8.075-18-18s8.075-18,18-18,18,8.075,18,18-8.075,18-18,18Z"/>
  <path d="M30,33c0-3.309-2.691-6-6-6s-6,2.691-6,6,2.691,6,6,6,6-2.691,6-6ZM26,31c0,1.103-.897,2-2,2s-2-.897-2-2,.897-2,2-2,2,.897,2,2ZM24,37c-2.206,0-4-1.794-4-4,0-.347.058-.678.142-1,.447,1.721,1.999,3,3.858,3s3.411-1.279,3.858-3c.084.322.142.653.142,1,0,2.206-1.794,4-4,4Z"/>
  <path d="M40,27c-3.309,0-6,2.691-6,6s2.691,6,6,6,6-2.691,6-6-2.691-6-6-6ZM42,31c0,1.103-.897,2-2,2s-2-.897-2-2,.897-2,2-2,2,.897,2,2ZM40,37c-2.206,0-4-1.794-4-4,0-.347.058-.678.142-1,.447,1.721,1.999,3,3.858,3s3.411-1.279,3.858-3c.084.322.142.653.142,1,0,2.206-1.794,4-4,4Z"/>
  <path d="M32,37c-2.804,0-5,3.514-5,8s2.196,8,5,8,5-3.514,5-8-2.196-8-5-8ZM32,51c-1.419,0-3-2.464-3-6s1.581-6,3-6,3,2.464,3,6-1.581,6-3,6Z"/>
  <path d="M49,11c.553,0,1-.447,1-1v-2c0-.553-.447-1-1-1s-1,.447-1,1v2c0,.553.447,1,1,1Z"/>
  <path d="M44.758,12.172c.195.195.451.293.707.293.869,0,1.321-1.093.707-1.707l-1.415-1.415c-.391-.391-1.023-.391-1.414,0s-.391,1.023,0,1.414l1.415,1.415Z"/>
  <path d="M42,16h2c.553,0,1-.447,1-1s-.447-1-1-1h-2c-.553,0-1,.447-1,1s.447,1,1,1Z"/>
  <path d="M48,20v2c0,.553.447,1,1,1s1-.447,1-1v-2c0-.553-.447-1-1-1s-1,.447-1,1Z"/>
  <path d="M53.242,17.828c-.391-.391-1.023-.391-1.414,0-.391.391-.391,1.023,0,1.414l1.415,1.415c.37.37,1.023.392,1.414,0,.391-.391.391-1.023,0-1.414l-1.415-1.415Z"/>
  <path d="M56,14h-2c-.553,0-1,.447-1,1s.447,1,1,1h2c.553,0,1-.447,1-1s-.447-1-1-1Z"/>
  <path d="M52.535,12.465c.256,0,.512-.098.707-.293l1.415-1.415c.391-.391.391-1.023,0-1.414s-1.023-.391-1.414,0l-1.415,1.415c-.391.391-.391,1.023,0,1.414.195.195.451.293.707.293Z"/>
  <path d="M15,11c.553,0,1-.447,1-1v-2c0-.553-.447-1-1-1s-1,.447-1,1v2c0,.553.447,1,1,1Z"/>
  <path d="M18.535,12.46c.256,0,.513-.094.707-.288l1.415-1.415c.391-.391.391-1.023,0-1.414s-1.023-.391-1.414,0l-1.415,1.415c-.606.606-.149,1.701.707,1.702Z"/>
  <path d="M19,15c0,.553.447,1,1,1h2c.553,0,1-.447,1-1s-.447-1-1-1h-2c-.553,0-1,.447-1,1Z"/>
  <path d="M15,23c.553,0,1-.447,1-1v-2c0-.553-.447-1-1-1s-1,.447-1,1v2c0,.553.447,1,1,1Z"/>
  <path d="M12.172,17.828c-.391-.391-1.023-.391-1.414,0l-1.415,1.415c-.391.391-.391,1.023,0,1.414.379.379,1.025.39,1.414,0l1.415-1.415c.391-.391.391-1.023,0-1.414Z"/>
  <path d="M11,15c0-.553-.447-1-1-1h-2c-.553,0-1,.447-1,1s.447,1,1,1h2c.553,0,1-.447,1-1Z"/>
  <path d="M10.758,12.172c.375.375,1.029.385,1.414,0,.391-.391.391-1.023,0-1.414l-1.415-1.415c-.391-.391-1.023-.391-1.414,0s-.391,1.023,0,1.414l1.415,1.415Z"/>
</svg>