<?xml version="1.0" encoding="UTF-8"?>
<svg id="Outline" xmlns="http://www.w3.org/2000/svg" version="1.1" viewBox="0 0 64 64">
  <!-- Generator: Adobe Illustrator 29.3.1, SVG Export Plug-In . SVG Version: 2.1.0 Build 151)  -->
  <path d="M54.80128,9.16998c-1.40002-1.40002-3.26001-2.16998-5.23999-2.16998-1.66003,0-3.24005.53998-4.53003,1.54999-1.28998-1.01001-2.87-1.54999-4.53003-1.54999-1.97998,0-3.83997.76996-5.23999,2.16998-.82001.82001-1.39996,1.79999-1.76001,2.83002h-7.46997c-1.65002,0-3,1.34998-3,3v8.69c-.66998-.42999-1.46997-.69-2.33002-.69-2.08997,0-3.83997,1.48999-4.25,3.45996-1.47998.39001-2.59998,1.65002-2.73999,3.22003-2.97998.15997-5.34998,2.64001-5.34998,5.64996,0,.48004.07996.94.20001,1.39001-.93005.79999-1.53003,1.97003-1.53003,3.28003s.59998,2.47998,1.53003,3.27997c-.12006.45001-.20001.91003-.20001,1.39001,0,3.02002,2.38,5.48999,5.37,5.65002.14001,1.56,1.23999,2.83997,2.71997,3.21997.41003,1.97003,2.16003,3.46002,4.25,3.46002,1.34003,0,2.53003-.63,3.33002-1.60004.79999.97003,1.98999,1.60004,3.33002,1.60004,2.08997,0,3.83997-1.48999,4.25-3.46002,1.47998-.38,2.57996-1.65997,2.71997-3.21997,2.98999-.16003,5.37-2.63,5.37-5.65002,0-.47998-.07996-.94-.20001-1.39001.93005-.79999,1.53003-1.96997,1.53003-3.27997s-.59998-2.48004-1.53003-3.28003c.12006-.45001.20001-.90997.20001-1.39001,0-3.00995-2.37-5.48999-5.34998-5.64996-.14001-1.57001-1.26001-2.83002-2.73999-3.22003-.41003-1.96997-2.16003-3.45996-4.25-3.45996-.86005,0-1.66003.26001-2.33002.69v-8.69c0-.54999.45001-1,1-1h7.09003c-.12006,2.02997.58997,4.09998,2.13995,5.64996l9.06,9.06c.20001.19.45001.29004.71002.29004s.51001-.10004.71002-.29004l9.06-9.06c2.88995-2.88995,2.88995-7.58997,0-10.47998ZM23.03126,52.66998c0,1.28003-1.04999,2.33002-2.33002,2.33002-1.01001,0-1.85999-.64001-2.19-1.54004.61005-.19995,1.16003-.53998,1.58002-1.01996.37-.42004.33002-1.04999-.09003-1.41003-.40997-.37-1.03998-.32001-1.40997.09003-.29999.34998-.75.54999-1.22998.54999-.92004,0-1.66003-.75-1.66003-1.66998,0-.62.34003-1.19.89001-1.47003.48999-.26001.67999-.85999.41998-1.34998s-.85999-.67999-1.34998-.42999c-.67999.35999-1.21002.91998-1.54999,1.57996h-.08002c-2.02002,0-3.66998-1.63995-3.66998-3.65997,0-.15002.02997-.29999.04999-.45001.31.07001.62.10999.95001.10999.56,0,1-.43994,1-1,0-.54999-.44-1-1-1-1.28003,0-2.33002-1.03998-2.33002-2.32996s1.04999-2.33002,2.33002-2.33002c.56,0,1-.45001,1-1,0-.56-.44-1-1-1-.33002,0-.64001.03998-.95001.10999-.02002-.14996-.04999-.29999-.04999-.45001,0-2.01996,1.64996-3.65997,3.66998-3.65997.19,0,.39001.02002.59998.04999.34003.07001.69-.04999.92004-.31.22998-.25.32001-.60999.21997-.94-.04999-.19-.07001-.32996-.07001-.46997,0-.62.34003-1.16003.85004-1.44.17999.62.51001,1.20001.94995,1.67999-.27997.26001-.52997.54999-.73999.87l-.22998.33002c-.31.45996-.17999,1.07996.28031,1.39015.44428.31355,1.07923.17532,1.37967-.27015l.23004-.34003c.51001-.76001,1.35999-1.21997,2.27997-1.21997.54999,0,1-.45001,1-1s-.45001-1-1-1c-.47998,0-.95001.07996-1.39996.20001-.60004-.45001-.94-1.13-.94-1.87006,0-1.27997,1.04999-2.32996,2.33997-2.32996,1.28003,0,2.33002,1.04999,2.33002,2.32996v25.34003ZM27.36127,25c1.28998,0,2.33997,1.04999,2.33997,2.32996,0,.74005-.33997,1.42004-.95001,1.89001-.43994-.14001-.90997-.21997-1.38995-.21997-.54999,0-1,.45001-1,1s.45001,1,1,1c.91998,0,1.76996.45996,2.27997,1.21997l.23004.34002c.29597.43747.94342.57828,1.37995.26997.46002-.31.59003-.92999.28003-1.38995l-.22998-.33002c-.21002-.32001-.46002-.60999-.73999-.87.43994-.47998.76996-1.06.94995-1.67999.51001.27997.85004.82001.85004,1.44,0,.14001-.02002.27997-.07001.46997-.10004.33002-.01001.69.21997.94.23004.26001.58002.38.92004.31.20996-.02997.40997-.04999.59998-.04999,2.02002,0,3.66998,1.64001,3.66998,3.65997,0,.15002-.02997.30005-.04999.45001-.31-.07001-.62-.10999-.95001-.10999-.56,0-1,.44-1,1,0,.54999.44,1,1,1,1.28003,0,2.33002,1.03998,2.33002,2.33002s-1.04999,2.32996-2.33002,2.32996c-.56,0-1,.45001-1,1,0,.56006.44,1,1,1,.33002,0,.64001-.03998.95001-.10999.02002.15002.04999.29999.04999.45001,0,2.02002-1.64996,3.65997-3.66998,3.65997h-.08002c-.33997-.65997-.87-1.21997-1.54999-1.57996-.48999-.25-1.08997-.06-1.34998.42999s-.07001,1.08997.41998,1.34998c.54999.28003.89001.85004.89001,1.47003,0,.91998-.73999,1.66998-1.66003,1.66998-.47998,0-.92999-.20001-1.22998-.54999-.37-.41998-1-.46002-1.40997-.09003-.42004.36005-.46002.98999-.09003,1.41003.41998.47998.96997.82001,1.58002,1.01996-.33002.90002-1.17999,1.54004-2.19,1.54004-1.28003,0-2.33002-1.04999-2.33002-2.33002v-25.34003c0-1.27997,1.04999-2.32996,2.33002-2.32996ZM53.38123,18.22998l-8.34998,8.35999-8.34998-8.35999c-2.11005-2.10999-2.11005-5.53998,0-7.65002,1.01996-1.01996,2.37-1.57996,3.81995-1.57996,1.44,0,2.80005.56,3.82001,1.57996.38.38,1.04004.38,1.42004,0,1.01996-1.01996,2.38-1.57996,3.82001-1.57996,1.44995,0,2.79999.56,3.81995,1.57996,2.11005,2.11005,2.11005,5.54004,0,7.65002Z"/>
</svg>