<?xml version="1.0" encoding="UTF-8"?>
<svg id="Outline" xmlns="http://www.w3.org/2000/svg" version="1.1" viewBox="0 0 64 64">
  <!-- Generator: Adobe Illustrator 29.3.1, SVG Export Plug-In . SVG Version: 2.1.0 Build 151)  -->
  <path d="M49,30.37006v-8.10376l.46191-.11005c.90576-.21484,1.53809-1.01465,1.53809-1.94629v-5.20996c0-1.10254-.89697-2-2-2h-10.27911l-1.54413-4.63281c-.27295-.81738-1.03564-1.36719-1.89746-1.36719h-12.55859c-.86182,0-1.62451.5498-1.89746,1.36719l-1.54413,4.63281h-10.27911c-1.10303,0-2,.89746-2,2v5.20996c0,.93164.63232,1.73145,1.53613,1.94531l.46387.11053v16.73419c0,1.10254.89697,2,2,2h6.32043l-2.16858,3.46973c-.19238.30859-.20264.69727-.02637,1.01465.17627.31836.51074.51562.87451.51562h2v7c0,.55273.44775,1,1,1h4c.55225,0,1-.44727,1-1v-7h2c.36377,0,.69824-.19727.87451-.51562.17627-.31738.16602-.70605-.02637-1.01465l-2.16858-3.46973h4.48016c-.09436.65503-.15973,1.31927-.15973,2,0,7.71973,6.28027,14,14,14s14-6.28027,14-14c0-5.57068-3.27838-10.37738-8-12.62994ZM49.36566,48.88947c.40417-1.78345.63434-3.77075.63434-5.88947s-.23016-4.10602-.63434-5.88947c3.35406,1.25702,5.63434,3.44885,5.63434,5.88947s-2.28027,4.63245-5.63434,5.88947ZM43,55c-1.16479,0-2.3938-1.19995-3.34259-3.25842,1.06982.1629,2.18445.25842,3.34259.25842s2.27277-.09552,3.34259-.25842c-.94879,2.05847-2.1778,3.25842-3.34259,3.25842ZM43,50c-1.44922,0-2.84265-.16675-4.14203-.45605-.52673-1.83716-.85797-4.05334-.85797-6.54395s.33124-4.70679.85797-6.54395c1.29938-.28931,2.69281-.45605,4.14203-.45605s2.84265.16675,4.14203.45605c.52673,1.83716.85797,4.05334.85797,6.54395s-.33124,4.70679-.85797,6.54395c-1.29938.28931-2.69281.45605-4.14203.45605ZM31,43c0-2.44061,2.28027-4.63245,5.63434-5.88947-.40417,1.78345-.63434,3.77075-.63434,5.88947s.23016,4.10602.63434,5.88947c-3.35406-1.25702-5.63434-3.44885-5.63434-5.88947ZM46.34259,34.25836c-1.06976-.16284-2.18445-.25836-3.34259-.25836s-2.27283.09552-3.34259.25836c.94879-2.05847,2.17786-3.25836,3.34259-3.25836s2.3938,1.19989,3.34259,3.25836ZM37.31647,34.75275c-1.76276.49121-3.31921,1.20874-4.60089,2.09595,1.38397-2.30493,3.5144-4.10431,6.06036-5.06647-.55945.83661-1.05115,1.83563-1.45947,2.97052ZM53.28442,36.84869c-1.28168-.88721-2.83813-1.60474-4.60089-2.09595-.40833-1.13489-.90002-2.13391-1.45947-2.97052,2.54596.96216,4.67639,2.76154,6.06036,5.06647ZM47,29.5896c-.96069-.28711-1.96564-.46533-3-.53894v-5.59332l3-.7146v6.84686ZM9,15h18c.55225,0,1-.44727,1-1s-.44775-1-1-1h-5.61249l1.33319-4h12.55859l1.33319,4h-5.61249c-.55225,0-1,.44727-1,1s.44775,1,1,1h18v5.20996l-15.02136,3.5788c-.10724-1.00226-.948-1.78876-1.97864-1.78876h-6c-1.03064,0-1.8714.7865-1.97864,1.78876l-15.02136-3.5788v-5.20996ZM30.00146,31h-2.00146v-2h2.00049l.00098,2ZM31,27h-5v-3h6l.00146,3h-1.00146ZM23,44c-.55225,0-1,.44727-1,1v7h-2v-7c0-.55273-.44775-1-1-1h-1.1958l3.1958-5.11328,3.1958,5.11328h-1.1958ZM23.42957,39l-1.58142-2.53027c-.36621-.58398-1.33008-.58398-1.69629,0l-1.58142,2.53027h-2.57043v-4c0-.55273-.44775-1-1-1s-1,.44727-1,1v4h-3v-16.25769l3,.71472v7.54297c0,.55273.44775,1,1,1s1-.44727,1-1v-7.06647l8,1.90594v1.16052c0,1.10254.89697,2,2,2v2c0,1.10254.89697,2,2,2h2c1.10303,0,2-.89746,2-2v-2c1.10303,0,2-.89746,2-2v-1.16052l8-1.9057v5.11688c-5.8869.41907-10.77643,4.48187-12.4104,9.94934h-6.16003ZM32.71558,49.15131c1.28168.88721,2.83813,1.60474,4.60089,2.09595.40833,1.13489.90002,2.13391,1.45947,2.97052-2.54596-.96216-4.67639-2.76154-6.06036-5.06647ZM47.22406,54.21777c.55945-.83661,1.05115-1.83563,1.45947-2.97052,1.76276-.49121,3.31921-1.20874,4.60089-2.09595-1.38397,2.30493-3.5144,4.10431-6.06036,5.06647Z"/>
  <path d="M43,42c-.55127,0-1-.44824-1-1s.44873-1,1-1,1,.44824,1,1c0,.55273.44775,1,1,1s1-.44727,1-1c0-1.30194-.8385-2.40161-2-2.81573v-.18427c0-.55273-.44775-1-1-1s-1,.44727-1,1v.18427c-1.1615.41412-2,1.51379-2,2.81573,0,1.6543,1.3457,3,3,3,.55127,0,1,.44824,1,1s-.44873,1-1,1-1-.44824-1-1c0-.55273-.44775-1-1-1s-1,.44727-1,1c0,1.30194.8385,2.40155,2,2.81567v.18433c0,.55273.44775,1,1,1s1-.44727,1-1v-.18427c1.1615-.41412,2-1.51379,2-2.81573,0-1.6543-1.3457-3-3-3Z"/>
</svg>