<?xml version="1.0" encoding="UTF-8"?>
<svg id="Outline" xmlns="http://www.w3.org/2000/svg" version="1.1" viewBox="0 0 64 64">
  <!-- Generator: Adobe Illustrator 29.5.1, SVG Export Plug-In . SVG Version: 2.1.0 Build 141)  -->
  <path d="M41.81,21.74l.14-.42c.03-.11.05-.21.05-.32v-8c0-1.65-1.35-3-3-3-.35,0-.69.07-1,.18v-.18c0-1.65-1.35-3-3-3-.77,0-1.47.3-2,.78-.53-.48-1.23-.78-2-.78s-1.47.3-2,.78c-.53-.48-1.23-.78-2-.78-1.65,0-3,1.35-3,3v3.59l-1.94,1.94c-1.33,1.32-2.06,3.09-2.06,4.97,0,.84.16,1.66.44,2.43-4.67,3.59-7.44,9.16-7.44,15.07,0,10.48,8.52,19,19,19,4.84,0,9.44-1.83,12.98-5.15.4-.38.42-1.01.04-1.41-.38-.41-1.01-.43-1.42-.05-3.15,2.97-7.27,4.61-11.6,4.61-9.37,0-17-7.63-17-17,0-5.18,2.38-10.07,6.41-13.29.2.26.41.52.65.76l.47.47c.08.08.14.18.21.26-3.61,2.84-5.74,7.18-5.74,11.8,0,8.27,6.73,15,15,15s15-6.73,15-15c0-4.99-2.42-9.55-6.5-12.35l.66-1.97c4.86,3.12,7.84,8.5,7.84,14.32,0,3.42-1.01,6.7-2.93,9.51-.31.45-.19,1.07.27,1.39.454.316,1.083.176,1.39-.27,2.14-3.13,3.27-6.81,3.27-10.63,0-6.68-3.51-12.83-9.19-16.26ZM22,20.5c0-1.35.52-2.61,1.47-3.56l.53-.53v3.59c0,.55.45,1,1,1s1-.45,1-1v-10c0-.55.45-1,1-1s1,.45,1,1v8c0,.55.45,1,1,1s1-.45,1-1v-8c0-.55.45-1,1-1s1,.45,1,1v8c0,.55.45,1,1,1s1-.45,1-1v-8c0-.55.45-1,1-1s1,.45,1,1v8c0,.55.45,1,1,1s1-.45,1-1v-5c0-.55.45-1,1-1s1,.45,1,1v7.84l-1.95,5.84c-.03.11-.05.21-.05.32v2h-12.02c-.12-1.69-.83-3.26-2.04-4.47l-.47-.47c-.95-.95-1.47-2.21-1.47-3.56ZM24,48.23c-3.04-2.39-5-6.08-5-10.23,0-3.9,1.76-7.56,4.74-10.02.13.39.2.8.23,1.21-1.15.43-1.97,1.52-1.97,2.81v2c0,1.3.84,2.4,2,2.82v11.41ZM39,35h-7c-.55,0-1,.45-1,1s.45,1,1,1h6v12.52c-1.8.94-3.84,1.48-6,1.48s-4.2-.54-6-1.48v-12.52h2c.55,0,1-.45,1-1s-.45-1-1-1h-3c-.55,0-1-.45-1-1v-2c0-.55.45-1,1-1h14c.55,0,1,.45,1,1v2c0,.55-.45,1-1,1ZM45,38c0,4.15-1.96,7.84-5,10.23v-11.41c1.16-.42,2-1.52,2-2.82v-2c0-1.3-.84-2.4-2-2.82v-1.41c3.15,2.45,5,6.17,5,10.23Z"/>
</svg>