<?xml version="1.0" encoding="UTF-8"?>
<svg id="Outline" xmlns="http://www.w3.org/2000/svg" version="1.1" viewBox="0 0 64 64">
  <!-- Generator: Adobe Illustrator 29.5.1, SVG Export Plug-In . SVG Version: 2.1.0 Build 141)  -->
  <path d="M47.547,24.431c-.348-.429-.979-.496-1.406-.148-.43.348-.496.978-.148,1.406,2.585,3.191,4.008,7.209,4.008,11.312,0,9.925-8.075,18-18,18s-18-8.075-18-18c0-8.428,5.881-15.713,14.048-17.538l1.713,1.713c-7.763,1.095-13.761,7.764-13.761,15.825,0,3.537,1.137,6.891,3.286,9.698.336.438.964.521,1.402.186s.521-.964.186-1.402c-1.88-2.454-2.874-5.388-2.874-8.481,0-7.72,6.28-14,14-14s14,6.28,14,14-6.28,14-14,14c-3.094,0-6.027-.994-8.481-2.874-.438-.334-1.065-.252-1.402.186-.336.438-.253,1.066.186,1.402,2.808,2.149,6.161,3.286,9.698,3.286,8.822,0,16-7.178,16-16,0-8.061-5.998-14.73-13.761-15.825l1.719-1.719c2.687.603,5.217,1.821,7.339,3.557.186.152.409.227.632.227.29,0,.577-.125.774-.367.351-.427.287-1.057-.141-1.406-2.042-1.672-4.425-2.91-6.965-3.65l1.452-1.452c2.139-2.139,2.139-5.619,0-7.758-1.916-1.916-4.908-2.113-7.05-.598-2.14-1.517-5.132-1.318-7.05.598-2.139,2.139-2.139,5.619,0,7.758l1.445,1.445c-8.441,2.45-14.395,10.247-14.395,19.191,0,11.028,8.972,20,20,20s20-8.972,20-20c0-4.56-1.582-9.023-4.453-12.569ZM26.364,10.021c.68-.679,1.571-1.019,2.464-1.019s1.785.34,2.465,1.019c.391.391,1.023.391,1.414,0,1.359-1.357,3.569-1.357,4.929,0,1.359,1.359,1.359,3.57,0,4.93l-5.636,5.636-5.636-5.636c-1.359-1.359-1.359-3.57,0-4.93Z"/>
  <path d="M42,17h1v1c0,.553.447,1,1,1s1-.447,1-1v-1h1c.553,0,1-.447,1-1s-.447-1-1-1h-1v-1c0-.553-.447-1-1-1s-1,.447-1,1v1h-1c-.553,0-1,.447-1,1s.447,1,1,1Z"/>
  <path d="M17,11h1v1c0,.553.447,1,1,1s1-.447,1-1v-1h1c.553,0,1-.447,1-1s-.447-1-1-1h-1v-1c0-.553-.447-1-1-1s-1,.447-1,1v1h-1c-.553,0-1,.447-1,1s.447,1,1,1Z"/>
</svg>