<?xml version="1.0" encoding="UTF-8"?>
<svg id="Outline" xmlns="http://www.w3.org/2000/svg" version="1.1" viewBox="0 0 64 64">
  <!-- Generator: Adobe Illustrator 29.3.1, SVG Export Plug-In . SVG Version: 2.1.0 Build 151)  -->
  <path d="M56.7088,46.28998l-4.30005-4.28998,1.80005-1.79004c.25995-.25995.34998-.64996.25-1-.11005-.34998-.40002-.62-.76001-.69l-2.70001-.53998V14c0-1.65002-1.34998-3-3-3h-23c-.54999,0-1,.45001-1,1s.45001,1,1,1h22.46002l-14.12,12h-8.68005l-14.12-12h6.46002c.54999,0,1-.45001,1-1s-.45001-1-1-1h-7c-1.65002,0-3,1.34998-3,3v24c0,1.64996,1.34998,3,3,3h30.78003l1.73999,8.70001c.07001.35999.33997.64996.69.75995.34998.10004.73999.01001,1-.25l1.78998-1.79999,4.28998,4.29999c.20001.19.45001.29004.71002.29004s.51001-.10004.71002-.29004l5-5c.38995-.38995.38995-1.02997,0-1.41998ZM48.99878,14.31v23.26996l-.17999-.02997-13.57001-11.54999,13.75-11.69ZM8.99878,37.69V14.31l13.75,11.69-13.75,11.69ZM40.28876,36.28998c-.22998.23999-.33997.58002-.26996.91003l.35999,1.79999H10.53876l14.12-12h8.68005l11.44995,9.73999-3.58997-.72003c-.33002-.06995-.66998.04004-.91003.27002ZM50.99878,50.58997l-4.28998-4.29999c-.20001-.19-.45001-.28998-.71002-.28998s-.51001.09998-.71002.28998l-1.17999,1.17999-1.83997-9.20001,9.19995,1.84003-1.17999,1.17999c-.38995.39001-.38995,1.03003,0,1.41998l4.30005,4.29004-3.59003,3.58997Z"/>
  <circle cx="20.99878" cy="12" r="1"/>
</svg>