<?xml version="1.0" encoding="UTF-8"?>
<svg id="Outline" xmlns="http://www.w3.org/2000/svg" version="1.1" viewBox="0 0 64 64">
  <!-- Generator: Adobe Illustrator 29.5.1, SVG Export Plug-In . SVG Version: 2.1.0 Build 141)  -->
  <path d="M52,11H12c-2.76001,0-5,2.23999-5,5v34c0,1.64996,1.34998,3,3,3h44c1.65002,0,3-1.35004,3-3V16c0-2.76001-2.23999-5-5-5ZM9,49.58997v-22.17999l11.09003,11.09003-11.09003,11.08997ZM14.13,22.03998l35.71002-4.60999,1.53998,10.77997-13.78998,13.79004h-11.18005l-11.00995-11.01001-1.27002-8.95001ZM10.40997,51l11.09003-11.09003,3.78998,3.79999c.19.18005.44.29004.71002.29004h12c.27002,0,.52002-.10999.71002-.29004l3.78998-3.79999,11.09003,11.09003H10.40997ZM55,49.58997l-11.09003-11.08997,11.09003-11.09003v22.17999ZM55,24.58997l-1.84998,1.85004-1.47003-10.27002c-.08002-.53998-.57001-.92999-1.12-.84998l-37.69,4.87c-.26001.02997-.5.16998-.66998.38-.16003.21997-.23004.48999-.19.75l1.03998,7.31-4.04999-4.04004v-8.58997c0-1.65002,1.34998-3,3-3h40c1.65002,0,3,1.34998,3,3v8.58997Z"/>
</svg>