<?xml version="1.0" encoding="UTF-8"?>
<svg id="Outline" xmlns="http://www.w3.org/2000/svg" version="1.1" viewBox="0 0 64 64">
  <!-- Generator: Adobe Illustrator 29.5.1, SVG Export Plug-In . SVG Version: 2.1.0 Build 141)  -->
  <path d="M54,35h-7V11c0-2.21002-1.78998-4-4-4H11c-2.21002,0-4,1.78998-4,4v3c0,.54999.45001,1,1,1h5v29c0,1.64996,1.34998,3,3,3h9v7c0,1.64996,1.34998,3,3,3h26c1.65002,0,3-1.35004,3-3v-16c0-1.65002-1.34998-3-3-3ZM13,13h-4v-2c0-1.10004.90002-2,2-2s2,.89996,2,2v2ZM53.28003,37l-12.28003,8.76996-12.28003-8.76996h24.56006ZM25,38v7h-9c-.54999,0-1-.45001-1-1V11c0-.73004-.21002-1.41003-.56-2h28.56c1.09998,0,2,.89996,2,2v24h-17c-1.65002,0-3,1.34998-3,3ZM55,54c0,.54999-.45001,1-1,1h-26c-.54999,0-1-.45001-1-1v-15.77002l13.41998,9.58002c.17004.13.38.19.58002.19s.40997-.06.58002-.19l13.41998-9.58002v15.77002Z"/>
  <path d="M18,13h8c.55225,0,1-.44727,1-1s-.44775-1-1-1h-8c-.55225,0-1,.44727-1,1s.44775,1,1,1Z"/>
  <path d="M18,17h14c.55225,0,1-.44727,1-1s-.44775-1-1-1h-14c-.55225,0-1,.44727-1,1s.44775,1,1,1Z"/>
  <path d="M18,23h20c.55225,0,1-.44727,1-1s-.44775-1-1-1h-20c-.55225,0-1,.44727-1,1s.44775,1,1,1Z"/>
  <path d="M18,27h20c.55225,0,1-.44727,1-1s-.44775-1-1-1h-20c-.55225,0-1,.44727-1,1s.44775,1,1,1Z"/>
  <path d="M31,30c0-.55273-.44775-1-1-1h-12c-.55225,0-1,.44727-1,1s.44775,1,1,1h12c.55225,0,1-.44727,1-1Z"/>
</svg>