<?xml version="1.0" encoding="UTF-8"?>
<svg id="Outline" xmlns="http://www.w3.org/2000/svg" version="1.1" viewBox="0 0 64 64">
  <!-- Generator: Adobe Illustrator 29.5.1, SVG Export Plug-In . SVG Version: 2.1.0 Build 141)  -->
  <path d="M56.622,26.292c-.231-.232-.562-.336-.887-.277-1.06.194-7.463,1.4-12.871,3.215-.544-3.57-2.121-6.839-4.618-9.514-.377-.403-1.009-.424-1.414-.048-.403.377-.425,1.01-.048,1.414,1.613,1.727,2.789,3.734,3.501,5.917h-2.705c-.463,0-.873-.295-1.02-.736l-.054-.161c-.419-1.258-1.591-2.103-2.917-2.103h-.223c-1.172,0-2.226.651-2.75,1.699-.141.281-.396.486-.701.562l-1.21.303c-.541.137-1.104-.173-1.28-.702l-.174-.522c-.073-.219-.073-.46,0-.68l.072-.218c.27-.809.189-1.703-.221-2.451-.411-.749-1.121-1.297-1.95-1.504l-1.049-.262c-.26-.065-.484-.223-.633-.446l-.887-1.332c-.213-.319-.239-.732-.067-1.076l.62-1.24c.64-.078,1.287-.131,1.947-.131,3.159,0,6.204.914,8.807,2.643.459.305,1.081.18,1.386-.28s.18-1.081-.28-1.386c-2.932-1.948-6.359-2.977-9.913-2.977-9.925,0-18,8.075-18,18s8.075,18,18,18c3.805,0,7.388-1.167,10.436-3.358.113.126.22.255.34.377.004.005.005.011.01.015.003.004.008.004.012.008,1.951,1.948,4.538,2.961,7.152,2.961,1.76,0,3.531-.459,5.128-1.401.476-.281.634-.894.353-1.37-.281-.477-.894-.635-1.37-.353-2.891,1.706-6.485,1.418-9.084-.604l2.304-2.275h5.718c.552,0,1-.448,1-1s-.448-1-1-1h-3.693l3.039-3h3.654c.552,0,1-.448,1-1s-.448-1-1-1h-1.628l3.331-3.289c.393-.388.397-1.021.009-1.414-.387-.393-1.022-.396-1.414-.009l-3.297,3.255v-1.544c0-.552-.448-1-1-1s-1,.448-1,1v3.519l-3,2.962v-3.481c0-.552-.448-1-1-1s-1,.448-1,1v5.455l-2.448,2.417c-2.485-3.181-2.27-7.8.655-10.726,2.473-2.473,12.305-4.864,17.355-5.884-.706,3.46-2.656,12.228-5.001,16.154-.283.474-.128,1.088.346,1.371.476.285,1.088.129,1.371-.346,3.127-5.235,5.438-17.733,5.536-18.263.059-.323-.044-.655-.277-.887ZM14.083,20.411l1.515,1.515c.112.113.131.298.045.427-.264.396-.398.835-.398,1.306,0,1.29,1.054,2.34,2.35,2.34h.93c.094,0,.18.035.243.097l.93.93c.098.098.126.261.062.386l-.429.858c-.022.044-.062.093-.097.119l-2.85,2.14c-.907.681-1.199,1.907-.694,2.917l.154.308c.054.106.047.238-.021.338l-.911,1.361c-.1.15-.283.198-.442.12l-2.515-1.253c-.469-.243-1.01-.318-1.518-.213l-1.162.233c-.113-.767-.191-1.545-.191-2.343,0-4.56,1.927-8.67,4.999-11.587ZM25.085,47.999c-2.773,0-5.382-.711-7.658-1.957l.424-2.546c.049-.288.294-.497.584-.497h1.5c1.128,0,2.117-.716,2.456-1.767l.286-.836c.134-.417.79-.521,1.048-.13l1.055,1.573c.479.726,1.285,1.16,2.155,1.16h1c1.128,0,2.117-.716,2.458-1.773l.388-1.164c.26-.763.153-1.587-.296-2.269l-1.135-1.694c-.103-.156-.127-.344-.066-.523l.393-1.179c.077-.238.301-.397.558-.397h1.54c.281,0,.535.206.589.476l.39,1.95c.077.386.244.735.469,1.038-.622,2.538-.251,5.264,1.113,7.568-2.703,1.937-5.879,2.967-9.251,2.967ZM35.878,32.731c-.57.57-1.047,1.195-1.452,1.853l-.101-.505c-.244-1.206-1.317-2.081-2.55-2.081h-1.54c-1.128,0-2.117.716-2.458,1.773l-.388,1.164c-.26.763-.153,1.587.296,2.269l1.135,1.694c.103.156.127.344.066.523l-.393,1.179c-.077.238-.301.397-.558.397h-1c-.193,0-.379-.1-.49-.267l-1.055-1.573c-.479-.726-1.285-1.16-2.155-1.16-1.128,0-2.117.716-2.456,1.767l-.286.836c-.077.238-.301.397-.558.397h-1.5c-1.269,0-2.344.91-2.557,2.166l-.281,1.688c-2.826-2.091-4.937-5.082-5.909-8.554l1.149-.231c.067-.013.133-.004.212.036l2.534,1.263c.331.163.685.24,1.034.24.766,0,1.512-.373,1.958-1.042l.907-1.356c.475-.703.529-1.609.146-2.357l-.15-.3c-.074-.147-.03-.321.106-.423l2.85-2.14c.28-.21.523-.501.685-.823l.426-.853c.451-.884.273-1.995-.434-2.702l-.93-.93c-.44-.44-1.029-.683-1.657-.683h-.93c-.241,0-.35-.199-.35-.34,0-.074.017-.128.064-.199.611-.925.486-2.165-.297-2.948l-1.387-1.387c1.507-1.11,3.208-1.964,5.051-2.494-.413.952-.334,2.055.245,2.924l.887,1.331c.425.638,1.069,1.092,1.812,1.278l1.049.262c.294.073.536.26.682.526.146.265.173.569.077.857l-.072.218c-.209.627-.209,1.317,0,1.944l.174.522c.504,1.514,2.116,2.398,3.663,2.01l1.21-.303c.872-.218,1.603-.804,2.004-1.608.183-.366.551-.593.961-.593h.223c.463,0,.873.295,1.02.736l.054.161c.419,1.258,1.591,2.103,2.917,2.103h3.214c.057.305.102.613.142.923-2.183.843-4.039,1.79-5.058,2.809Z"/>
</svg>