<?xml version="1.0" encoding="UTF-8"?>
<svg id="Outline" xmlns="http://www.w3.org/2000/svg" version="1.1" viewBox="0 0 64 64">
  <!-- Generator: Adobe Illustrator 29.3.1, SVG Export Plug-In . SVG Version: 2.1.0 Build 151)  -->
  <path d="M36,51h-1v-9c0-1.29999-.84003-2.40002-2-2.82001v-7.17999c0-.54999-.45001-1-1-1s-1,.45001-1,1v7.17999c-1.15997.41998-2,1.52002-2,2.82001v9h-1c-1.65002,0-3,1.34998-3,3s1.34998,3,3,3h8c1.65002,0,3-1.35004,3-3s-1.34998-3-3-3ZM31,42c0-.54999.45001-1,1-1s1,.45001,1,1v9h-2v-9ZM36,55h-8c-.54999,0-1-.45001-1-1s.45001-1,1-1h8c.54999,0,1,.45001,1,1s-.45001,1-1,1Z"/>
  <path d="M18,27c-2.75684,0-5,2.24316-5,5s2.24316,5,5,5,5-2.24316,5-5-2.24316-5-5-5ZM18,35c-1.6543,0-3-1.3457-3-3s1.3457-3,3-3,3,1.3457,3,3-1.3457,3-3,3Z"/>
  <path d="M46,27c-2.75684,0-5,2.24316-5,5s2.24316,5,5,5,5-2.24316,5-5-2.24316-5-5-5ZM46,35c-1.6543,0-3-1.3457-3-3s1.3457-3,3-3,3,1.3457,3,3-1.3457,3-3,3Z"/>
  <path d="M47,15h6c2.20605,0,4-1.79395,4-4s-1.79395-4-4-4h-.14551c-1.52539,0-2.89648.84766-3.57812,2.21094-.24707.49414-.04688,1.09473.44727,1.3418.49414.24512,1.0957.04688,1.3418-.44727.34082-.68164,1.02637-1.10547,1.78906-1.10547h.14551c1.10254,0,2,.89746,2,2s-.89746,2-2,2h-17.14197c-.36353-1.39899-1.45905-2.49451-2.85803-2.85803v-2.14197c0-.55273-.44727-1-1-1s-1,.44727-1,1v2.14197c-1.39899.36353-2.49451,1.45905-2.85803,2.85803H11c-1.10254,0-2-.89746-2-2s.89746-2,2-2h.14551c.7627,0,1.44824.42383,1.78906,1.10547.24609.49414.84766.69238,1.3418.44727.49414-.24707.69434-.84766.44727-1.3418-.68164-1.36328-2.05273-2.21094-3.57812-2.21094h-.14551c-2.20605,0-4,1.79395-4,4s1.79395,4,4,4h6v2.70978l-4.62,7.27173c-2.05743,1.65076-3.38,4.18134-3.38,7.01849,0,4.62457,3.50653,8.44159,8,8.94104v5.05896h-2c-.55273,0-1,.44727-1,1s.44727,1,1,1h2v4c0,.55273.44727,1,1,1s1-.44727,1-1v-4h2c.55273,0,1-.44727,1-1s-.44727-1-1-1h-2v-5.05896c4.49347-.49945,8-4.31647,8-8.94104,0-2.83728-1.32269-5.36792-3.38031-7.01868l-4.61969-7.27155v-2.70978h9.14197c.36353,1.39899,1.45905,2.49451,2.85803,2.85803v6.14197c0,.55273.44727,1,1,1s1-.44727,1-1v-6.14197c1.39899-.36353,2.49451-1.45905,2.85803-2.85803h9.14197v2.70978l-4.62,7.27173c-2.05743,1.65076-3.38,4.18134-3.38,7.01849,0,4.62457,3.50653,8.44159,8,8.94104v8.6449l-1.29297-1.29297c-.39062-.39062-1.02344-.39062-1.41406,0s-.39062,1.02344,0,1.41406l2.99872,2.99872c.09241.09277.20337.16638.32635.21722.12219.05054.25183.07703.38196.07703s.2597-.02649.3819-.07703c.12305-.0509.23401-.12445.32642-.21722l2.99872-2.99872c.39062-.39062.39062-1.02344,0-1.41406s-1.02344-.39062-1.41406,0l-1.29297,1.29297v-8.6449c4.49347-.49945,8-4.31647,8-8.94104,0-2.83728-1.32269-5.36792-3.38031-7.01868l-4.61969-7.27155v-2.70978ZM25,32c0,3.85938-3.14062,7-7,7s-7-3.14062-7-7,3.14062-7,7-7,7,3.14062,7,7ZM18,23c-.74805,0-1.47101.10181-2.16632.2746l2.16632-3.40936,2.16632,3.40936c-.69531-.17279-1.41827-.2746-2.16632-.2746ZM32,16c-1.10254,0-2-.89746-2-2s.89746-2,2-2,2,.89746,2,2-.89746,2-2,2ZM53,32c0,3.85938-3.14062,7-7,7s-7-3.14062-7-7,3.14062-7,7-7,7,3.14062,7,7ZM46,23c-.74805,0-1.47101.10181-2.16632.2746l2.16632-3.40936,2.16632,3.40936c-.69531-.17279-1.41827-.2746-2.16632-.2746Z"/>
  <circle cx="32" cy="28" r="1"/>
</svg>