<?xml version="1.0" encoding="UTF-8"?>
<svg id="Outline" xmlns="http://www.w3.org/2000/svg" version="1.1" viewBox="0 0 64 64">
  <!-- Generator: Adobe Illustrator 29.5.1, SVG Export Plug-In . SVG Version: 2.1.0 Build 141)  -->
  <path d="M54,31.5h-.3l-3.27-9h1.57c.55,0,1-.45,1-1s-.45-1-1-1h-12.26c.17-.65.26-1.31.26-2,0-4.41-3.59-8-8-8s-8,3.59-8,8c0,.69.09,1.35.26,2h-12.26c-.55,0-1,.45-1,1s.45,1,1,1h1.57l-3.27,9h-.3c-.55,0-1,.45-1,1v1c0,3.31,2.69,6,6,6s6-2.69,6-6v-1c0-.55-.45-1-1-1h-.3l-3.27-9h12.57v21h-2c-1.65,0-3,1.35-3,3,0,.35.07.69.18,1h-.18c-1.65,0-3,1.35-3,3,0,.35.07.69.18,1h-13.18c-.55,0-1,.45-1,1s.45,1,1,1h39c.55,0,1-.45,1-1s-.45-1-1-1h-4.18c.11-.31.18-.65.18-1,0-1.65-1.35-3-3-3h-.18c.11-.31.18-.65.18-1,0-1.65-1.35-3-3-3h-2v-8c0-.55-.45-1-1-1s-1,.45-1,1v8h-2v-21h2v9c0,.55.45,1,1,1s1-.45,1-1v-9h12.57l-3.27,9h-.3c-.55,0-1,.45-1,1v1c0,3.31,2.69,6,6,6s6-2.69,6-6v-1c0-.55-.45-1-1-1ZM17.83,36.33c-.73.72-1.73,1.17-2.83,1.17-2.21,0-4-1.79-4-4h8c0,1.1-.45,2.1-1.17,2.83ZM17.57,31.5h-5.14l2.57-7.07,2.57,7.07ZM40,49.5c.55,0,1,.45,1,1s-.45,1-1,1h-16c-.55,0-1-.45-1-1s.45-1,1-1h16ZM37,45.5c.55,0,1,.45,1,1s-.45,1-1,1h-10c-.55,0-1-.45-1-1s.45-1,1-1h10ZM32,20.5c-1.1,0-2-.9-2-2s.9-2,2-2,2,.9,2,2-.9,2-2,2ZM37.65,20.5h-2.21c.35-.59.56-1.27.56-2,0-2.21-1.79-4-4-4s-4,1.79-4,4c0,.73.21,1.41.56,2h-2.21c-.23-.64-.35-1.3-.35-2,0-3.31,2.69-6,6-6s6,2.69,6,6c0,.7-.12,1.36-.35,2ZM49,24.43l2.57,7.07h-5.14l2.57-7.07ZM51.83,36.33c-.73.72-1.73,1.17-2.83,1.17-2.21,0-4-1.79-4-4h8c0,1.1-.45,2.1-1.17,2.83Z"/>
  <path d="M56,51.5h-5c-.553,0-1,.448-1,1s.447,1,1,1h5c.553,0,1-.448,1-1s-.447-1-1-1Z"/>
</svg>