<?xml version="1.0" encoding="UTF-8"?>
<svg id="Outline" xmlns="http://www.w3.org/2000/svg" version="1.1" viewBox="0 0 64 64">
  <!-- Generator: Adobe Illustrator 29.5.1, SVG Export Plug-In . SVG Version: 2.1.0 Build 141)  -->
  <path d="M29,17c-3.309,0-6,2.691-6,6,0,.553.448,1,1,1s1-.447,1-1c0-2.206,1.794-4,4-4,.552,0,1-.447,1-1s-.448-1-1-1Z"/>
  <path d="M55,22c0-6.07-4.93-11-11-11-3.47,0-6.64,1.65-8.67,4.26-.97-.79-2.06-1.38-3.23-1.76.55-.69.9-1.55.9-2.5,0-2.21-1.79-4-4-4s-4,1.79-4,4c0,.95.35,1.81.9,2.5-4,1.31-6.9,5.07-6.9,9.5v.6c0,7-2.33,13.89-6.55,19.46-1.95.27-3.45,1.92-3.45,3.94,0,2.21,1.79,4,4,4h9.08c.49,3.39,3.4,6,6.92,6s6.43-2.61,6.92-6h9.08c2.21,0,4-1.79,4-4,0-2.02-1.51-3.68-3.45-3.94-2.42-3.2-4.25-6.87-5.34-10.74,1.19.44,2.47.68,3.79.68,6.07,0,11-4.93,11-11ZM29,9c1.1,0,2,.9,2,2s-.9,2-2,2-2-.9-2-2,.9-2,2-2ZM29,55c-2.41,0-4.44-1.72-4.9-4h9.8c-.46,2.28-2.49,4-4.9,4ZM33.22,24.2c.59,2.89,2.3,5.33,4.62,6.9.96,4.25,2.73,8.32,5.19,11.9h-4.03c-.55,0-1,.45-1,1s.45,1,1,1h6c1.1,0,2,.9,2,2s-.9,2-2,2H13c-1.1,0-2-.9-2-2s.9-2,2-2h22c.55,0,1-.45,1-1s-.45-1-1-1H14.96c3.9-5.68,6.04-12.49,6.04-19.4v-.6c0-4.41,3.59-8,8-8,1.94,0,3.76.69,5.23,1.96-.46.88-.8,1.83-1.01,2.84-.11.54.24,1.07.78,1.18s1.07-.24,1.18-.78c.85-4.17,4.56-7.2,8.82-7.2,4.96,0,9,4.04,9,9s-4.04,9-9,9c-4.26,0-7.97-3.03-8.82-7.2-.11-.54-.64-.89-1.18-.78-.54.11-.89.64-.78,1.18Z"/>
  <path d="M39.757,26.242c.195.195.451.293.707.293s.512-.098.707-.293l2.829-2.828,2.829,2.828c.195.195.451.293.707.293s.512-.098.707-.293c.391-.391.391-1.023,0-1.414l-2.828-2.828,2.828-2.828c.391-.391.391-1.023,0-1.414s-1.023-.391-1.414,0l-2.829,2.828-2.829-2.828c-.391-.391-1.023-.391-1.414,0s-.391,1.023,0,1.414l2.828,2.828-2.828,2.828c-.391.391-.391,1.023,0,1.414Z"/>
</svg>