<?xml version="1.0" encoding="UTF-8"?>
<svg id="Outline" xmlns="http://www.w3.org/2000/svg" version="1.1" viewBox="0 0 64 64">
  <!-- Generator: Adobe Illustrator 29.0.0, SVG Export Plug-In . SVG Version: 2.1.0 Build 186)  -->
  <path d="M31,21c2.75684,0,5-2.24316,5-5s-2.24316-5-5-5-5,2.24316-5,5,2.24316,5,5,5ZM31,13c1.6543,0,3,1.3457,3,3,0,1.30194-.8385,2.40161-2,2.81573v-1.81573c0-.55225-.44775-1-1-1s-1,.44775-1,1v1.81567c-1.1615-.41412-2-1.51373-2-2.81567,0-1.6543,1.3457-3,3-3Z"/>
  <path d="M20,17c1.6543,0,3-1.3457,3-3s-1.3457-3-3-3-3,1.3457-3,3,1.3457,3,3,3ZM20,13c.55127,0,1,.44873,1,1s-.44873,1-1,1-1-.44873-1-1,.44873-1,1-1Z"/>
  <path d="M42,17c1.6543,0,3-1.3457,3-3s-1.3457-3-3-3-3,1.3457-3,3,1.3457,3,3,3ZM42,13c.55127,0,1,.44873,1,1s-.44873,1-1,1-1-.44873-1-1,.44873-1,1-1Z"/>
  <path d="M51.82001,34.76001c.09995.00995.18996.00995.28991.00995,2.10184,0,3.89008-1.79738,3.89008-3.88995,0-2.14001-1.73999-3.88-3.88-3.88h-3.12v-6.17999c1.15997-.42004,2-1.52002,2-2.82001v-8c0-1.65002-1.34998-3-3-3H14c-1.65002,0-3,1.34998-3,3v8c0,1.29999.84003,2.39996,2,2.82001v26.17999h-2c-1.65002,0-3,1.34998-3,3v6c0,.54999.45001,1,1,1h44c.54999,0,1-.45001,1-1v-6c0-1.65002-1.34998-3-3-3h-2v-12.46002l2.82001.22003ZM13,10c0-.54999.45001-1,1-1h34c.54999,0,1,.45001,1,1v8c0,.54999-.45001,1-1,1h-4.76001c-1.14996,0-2.17999.64001-2.69,1.65997l-.89001,1.79004c-.16998.33997-.50995.54999-.89996.54999h-15.52002c-.39001,0-.72998-.21002-.89996-.54999l-.89001-1.79004c-.51001-1.01996-1.54004-1.65997-2.69-1.65997h-4.76001c-.54999,0-1-.45001-1-1v-8ZM47,21v6h-9v-2h.76001c1.14996,0,2.17999-.64001,2.69-1.66003l.89001-1.78998c.16998-.34003.50995-.54999.89996-.54999h3.76001ZM40.71002,43.28998c-.19-.17999-.44-.28998-.71002-.28998h-18c-.27002,0-.52002.10999-.71002.28998l-3.69995,3.71002h-2.59003v-26h3.76001c.39001,0,.72998.20996.89996.54999l.89001,1.78998c.51001,1.02002,1.54004,1.66003,2.69,1.66003h.76001v3c0,.54999.45001,1,1,1h3v3c0,.51996.40002.95996.91998,1l18.08002,1.39001v12.60999h-2.59003l-3.69995-3.71002ZM41.59003,47h-21.18005l2-2h17.18005l2,2ZM26,27v-2h10v2h-10ZM20.77002,55l1.19995-2h18.06006l1.19995,2h-20.45996ZM51,49c.54999,0,1,.45001,1,1v5h-8.42999l-2.10999-3.51001c-.17999-.31-.51001-.48999-.86005-.48999h-19.19995c-.35004,0-.68005.17999-.86005.48999l-2.10999,3.51001h-8.42999v-5c0-.54999.45001-1,1-1h40ZM30,31.07001v-2.07001h22.12c1.02997,0,1.87991.84988,1.88,1.87983.0001,1.07475-.95169,1.98188-2.03003,1.88018l-21.96997-1.69Z"/>
</svg>