<?xml version="1.0" encoding="UTF-8"?>
<svg id="Outline" xmlns="http://www.w3.org/2000/svg" version="1.1" viewBox="0 0 64 64">
  <!-- Generator: Adobe Illustrator 29.5.1, SVG Export Plug-In . SVG Version: 2.1.0 Build 141)  -->
  <path d="M54,23c1.65,0,3-1.35,3-3v-10c0-1.65-1.35-3-3-3H10c-1.65,0-3,1.35-3,3v10c0,1.65,1.35,3,3,3h1v28h-1c-1.65,0-3,1.35-3,3v2c0,.55.45,1,1,1h48c.55,0,1-.45,1-1v-2c0-1.65-1.35-3-3-3h-1v-11c0-.55-.45-1-1-1s-1,.45-1,1v11h-8.03c.64-.84,1.03-1.87,1.03-3v-6c0-.55-.45-1-1-1h-2c-.55,0-1,.45-1,1s.45,1,1,1h1v5c0,1.65-1.35,3-3,3h-6c-1.65,0-3-1.35-3-3v-5h7c.55,0,1-.45,1-1s-.45-1-1-1h-8c-.55,0-1,.45-1,1v6c0,1.13.39,2.16,1.03,3H13v-28h4v3c0,.55.45,1,1,1h1v4.59l-3.71,3.7c-.39.39-.39,1.03,0,1.42.391.391,1.027.373,1.42,0l4-4c.18-.19.29-.44.29-.71v-5h1c.55,0,1-.45,1-1v-3h8v2h-2c-.55,0-1,.45-1,1v6c0,1.65,1.35,3,3,3h2v3c0,.55.45,1,1,1h4c.55,0,1-.45,1-1v-3h2c1.63,0,2.95-1.3,2.99-2.92l7.01.54v3.38c0,.55.45,1,1,1s1-.45,1-1v-3.23c.07,0,.15.01.22.01.95,0,1.87-.36,2.57-1.01.77-.71,1.21-1.72,1.21-2.77s-.44-2.06-1.21-2.77c-.75-.7-1.75-1.06-2.79-1v-2.23h1ZM54,53c.55,0,1,.45,1,1v1H9v-1c0-.55.45-1,1-1h44ZM21,25h-2v-2h2v2ZM37,37h-2v-2h2v2ZM42,32c0,.55-.45,1-1,1h-10c-.55,0-1-.45-1-1v-5h12v5ZM33,25v-2h6v2h-6ZM43.98,25.92c-.04-.51-.46-.92-.98-.92h-2v-2h10v2.38l-7.02.54ZM53.08,27.23c.51-.04.98.12,1.35.47.37.34.57.8.57,1.3s-.2.96-.57,1.3c-.37.35-.84.51-1.35.47l-9.08-.7v-2.14l9.08-.7ZM10,21c-.55,0-1-.45-1-1v-10c0-.55.45-1,1-1h44c.55,0,1,.45,1,1v10c0,.55-.45,1-1,1H10Z"/>
  <path d="M15,11c-2.206,0-4,1.794-4,4s1.794,4,4,4,4-1.794,4-4-1.794-4-4-4ZM15,17c-1.103,0-2-.897-2-2s.897-2,2-2,2,.897,2,2-.897,2-2,2Z"/>
  <path d="M22,19h30c.553,0,1-.448,1-1v-6c0-.552-.447-1-1-1h-30c-.553,0-1,.448-1,1v6c0,.552.447,1,1,1ZM27,17v-4h2v4h-2ZM51,17h-20v-4h20v4ZM23,13h2v4h-2v-4Z"/>
</svg>