<?xml version="1.0" encoding="UTF-8"?>
<svg id="Outline" xmlns="http://www.w3.org/2000/svg" version="1.1" viewBox="0 0 64 64">
  <!-- Generator: Adobe Illustrator 29.5.1, SVG Export Plug-In . SVG Version: 2.1.0 Build 141)  -->
  <path d="M54,11h-5v-3c0-.55-.45-1-1-1h-4c-.55,0-1,.45-1,1v3h-18v-3c0-.55-.45-1-1-1h-4c-.55,0-1,.45-1,1v3h-5c-1.65,0-3,1.35-3,3v25.02c-2.42,1.83-4,4.72-4,7.98,0,5.51,4.49,10,10,10,4.09,0,7.61-2.47,9.16-6h27.84c1.65,0,3-1.35,3-3V14c0-1.65-1.35-3-3-3ZM45,9h2v6h-2v-6ZM21,9h2v6h-2v-6ZM13,21h2v16.2c-.7.14-1.36.36-2,.64v-16.84ZM17,55c-4.41,0-8-3.59-8-8s3.59-8,8-8,8,3.59,8,8-3.59,8-8,8ZM32.59,49l12.84-1.9.96,1.9h-13.8ZM55,48c0,.55-.45,1-1,1h-1.34c.21-.45.34-.94.34-1.47v-26.53h2v27ZM55,19h-26c-.55,0-1,.45-1,1s.45,1,1,1h22v26.53c0,.81-.66,1.47-1.47,1.47-.56,0-1.06-.31-1.32-.82l-1.32-2.63c-.19-.38-.61-.6-1.04-.54l-18.89,2.8c.02-.27.04-.54.04-.81,0-5.51-4.49-10-10-10v-16h4c.55,0,1-.45,1-1s-.45-1-1-1h-8v-5c0-.55.45-1,1-1h5v2h-3c-.55,0-1,.45-1,1s.45,1,1,1h12c.55,0,1-.45,1-1s-.45-1-1-1h-3v-2h18v2h-3c-.55,0-1,.45-1,1s.45,1,1,1h12c.55,0,1-.45,1-1s-.45-1-1-1h-3v-2h5c.55,0,1,.45,1,1v5Z"/>
  <path d="M28,29h4c.552,0,1-.448,1-1v-4c0-.552-.448-1-1-1h-4c-.552,0-1,.448-1,1v4c0,.552.448,1,1,1ZM29,25h2v2h-2v-2Z"/>
  <path d="M36,29h4c.552,0,1-.448,1-1v-4c0-.552-.448-1-1-1h-4c-.552,0-1,.448-1,1v4c0,.552.448,1,1,1ZM37,25h2v2h-2v-2Z"/>
  <path d="M44,29h4c.552,0,1-.448,1-1v-4c0-.552-.448-1-1-1h-4c-.552,0-1,.448-1,1v4c0,.552.448,1,1,1ZM45,25h2v2h-2v-2Z"/>
  <path d="M19,32v4c0,.552.448,1,1,1h4c.552,0,1-.448,1-1v-4c0-.552-.448-1-1-1h-4c-.552,0-1,.448-1,1ZM21,33h2v2h-2v-2Z"/>
  <path d="M28,37h4c.552,0,1-.448,1-1v-4c0-.552-.448-1-1-1h-4c-.552,0-1,.448-1,1v4c0,.552.448,1,1,1ZM29,33h2v2h-2v-2Z"/>
  <path d="M36,37h4c.552,0,1-.448,1-1v-4c0-.552-.448-1-1-1h-4c-.552,0-1,.448-1,1v4c0,.552.448,1,1,1ZM37,33h2v2h-2v-2Z"/>
  <path d="M44,37h4c.552,0,1-.448,1-1v-4c0-.552-.448-1-1-1h-4c-.552,0-1,.448-1,1v4c0,.552.448,1,1,1ZM45,33h2v2h-2v-2Z"/>
  <path d="M28,45h4c.552,0,1-.448,1-1v-4c0-.552-.448-1-1-1h-4c-.552,0-1,.448-1,1v4c0,.552.448,1,1,1ZM29,41h2v2h-2v-2Z"/>
  <path d="M36,45h4c.552,0,1-.448,1-1v-4c0-.552-.448-1-1-1h-4c-.552,0-1,.448-1,1v4c0,.552.448,1,1,1ZM37,41h2v2h-2v-2Z"/>
  <path d="M23.208,45.511c-.118-.362-.431-.626-.808-.681l-3.112-.452-1.392-2.82c-.337-.683-1.457-.683-1.794,0l-1.392,2.82-3.112.452c-.377.055-.69.319-.808.681-.118.362-.02.76.253,1.025l2.252,2.195-.532,3.1c-.064.375.09.754.398.978.309.224.717.253,1.053.076l2.784-1.463s2.784,1.463,2.784,1.463c.335.175.746.147,1.053-.076.308-.224.462-.603.398-.978l-.532-3.1,2.252-2.195c.273-.266.371-.663.253-1.025ZM18.931,47.666c-.236.23-.343.561-.288.885l.278,1.621-1.456-.765c-.146-.077-.306-.115-.465-.115s-.32.038-.465.115l-1.456.765.278-1.621c.055-.324-.052-.655-.288-.885l-1.177-1.147,1.627-.236c.326-.047.607-.252.753-.547l.728-1.475.728,1.475c.146.295.427.5.753.547l1.627.236-1.177,1.147Z"/>
  <circle cx="25" cy="20" r="1"/>
</svg>