<?xml version="1.0" encoding="UTF-8"?>
<svg id="Outline" xmlns="http://www.w3.org/2000/svg" version="1.1" viewBox="0 0 64 64">
  <!-- Generator: Adobe Illustrator 29.5.1, SVG Export Plug-In . SVG Version: 2.1.0 Build 141)  -->
  <path d="M11,32c0,11.58,9.421,21,21,21s21-9.42,21-21-9.421-21-21-21-21,9.42-21,21ZM32,13c10.477,0,19,8.523,19,19s-8.523,19-19,19-19-8.523-19-19,8.523-19,19-19Z"/>
  <path d="M27.4,31.8c.176.132.388.2.6.2.152,0,.306-.035.447-.105.339-.169.553-.516.553-.895v-2h15c.553,0,1-.448,1-1v-6c0-.552-.447-1-1-1h-15v-2c0-.379-.214-.725-.553-.895-.338-.168-.744-.133-1.047.095l-8,6c-.252.188-.4.485-.4.8s.148.611.4.8l8,6ZM27,21v1c0,.552.447,1,1,1h15v4h-15c-.553,0-1,.448-1,1v1l-5.333-4,5.333-4Z"/>
  <path d="M20,43h15v2c0,.379.214.725.553.895.142.071.295.105.447.105.212,0,.424-.068.6-.2l8-6c.252-.188.4-.485.4-.8s-.148-.611-.4-.8l-8-6c-.303-.228-.709-.265-1.047-.095-.339.169-.553.516-.553.895v2h-15c-.553,0-1,.448-1,1v6c0,.552.447,1,1,1ZM21,37h15c.553,0,1-.448,1-1v-1l5.333,4-5.333,4v-1c0-.552-.447-1-1-1h-15v-4Z"/>
  <path d="M11.033,20.271c.438.289,1.083.148,1.371-.319.624-1.013,1.334-1.987,2.111-2.896.359-.42.31-1.051-.11-1.41-.42-.359-1.051-.309-1.41.11-.844.987-1.615,2.045-2.294,3.146-.293.476-.096,1.085.332,1.368Z"/>
  <path d="M8.443,27.279c.079.02.159.028.237.028.435,0,.862-.316.971-.764.282-1.158.658-2.303,1.118-3.404.213-.509-.028-1.095-.538-1.308-.511-.214-1.096.028-1.308.538-.5,1.197-.909,2.442-1.215,3.702-.13.537.199,1.077.735,1.208Z"/>
  <path d="M16.4,14.76c.231,0,.462-.078.65-.238.906-.775,1.879-1.486,2.895-2.112.47-.29.616-.906.326-1.376-.29-.471-.906-.617-1.376-.326-1.103.681-2.161,1.453-3.145,2.295-.694.594-.258,1.757.651,1.758Z"/>
  <path d="M22.745,10.851c.128,0,.259-.025.385-.078,1.101-.46,2.245-.836,3.403-1.119.537-.131.866-.672.735-1.208s-.673-.861-1.208-.735c-1.259.307-2.504.717-3.701,1.217-.946.396-.713,1.923.386,1.923Z"/>
  <path d="M46.95,49.479c-.906.775-1.879,1.486-2.895,2.112-.47.29-.616.906-.326,1.376.284.461.917.61,1.376.326,1.103-.681,2.161-1.453,3.146-2.295.419-.359.468-.99.109-1.41-.358-.419-.99-.468-1.41-.109Z"/>
  <path d="M52.972,43.721c-.471-.289-1.086-.143-1.376.327-.624,1.013-1.334,1.987-2.111,2.896-.359.42-.31,1.051.11,1.41.4.342,1.047.314,1.41-.11.844-.987,1.615-2.045,2.294-3.146.29-.47.143-1.086-.327-1.376Z"/>
  <path d="M40.87,53.228c-1.101.46-2.245.836-3.403,1.119-1.109.27-.918,1.972.236,1.972.079,0,.158-.009.238-.028,1.259-.307,2.504-.717,3.701-1.217.51-.213.75-.799.537-1.308-.212-.51-.799-.75-1.308-.537Z"/>
  <path d="M33.917,54.921c-.635.052-1.28.079-1.917.079-12.682,0-23-10.318-23-23,0-.637.026-1.282.079-1.917.045-.55-.364-1.033-.915-1.079-.557-.046-1.033.364-1.079.915-.057.689-.085,1.389-.085,2.081,0,13.785,11.215,25,25,25,.692,0,1.392-.029,2.081-.085.55-.045.96-.528.915-1.079s-.526-.965-1.079-.915Z"/>
  <path d="M32,7c-.692,0-1.392.029-2.081.085-.55.045-.96.528-.915,1.079.043.522.48.918.996.918.027,0,.055,0,.083-.003.635-.052,1.28-.079,1.917-.079,12.682,0,23,10.318,23,23,0,.637-.026,1.282-.079,1.917-.045.55.364,1.033.915,1.079.028.002.056.003.083.003.515,0,.953-.396.996-.918.057-.689.085-1.389.085-2.081,0-13.785-11.215-25-25-25Z"/>
  <path d="M55.557,36.721c-.531-.131-1.077.198-1.208.735-.282,1.158-.658,2.303-1.118,3.404-.479,1.147,1.34,1.982,1.846.771.5-1.197.909-2.442,1.215-3.702.13-.537-.199-1.077-.735-1.208Z"/>
</svg>