<?xml version="1.0" encoding="UTF-8"?>
<svg id="Outline" xmlns="http://www.w3.org/2000/svg" version="1.1" viewBox="0 0 64 64">
  <!-- Generator: Adobe Illustrator 29.5.1, SVG Export Plug-In . SVG Version: 2.1.0 Build 141)  -->
  <path d="M55.999,45.5h-6v-12.21c.04-.03.09-.05.12-.08l6.59-6.59c.39-.39.39-1.02,0-1.41l-2.83-2.83c-.39-.39-1.02-.39-1.42,0l-5.12,5.12h-9.34c-.55,0-1,.45-1,1v4c0,.55.45,1,1,1h6v4c0,.55.45,1,1,1s1-.45,1-1v-4h2v12h-2v-4c0-.55-.45-1-1-1s-1,.45-1,1v4h-6c-.55,0-1,.45-1,1s.45,1,1,1h17v2H8.999v-2h25c.55,0,1-.45,1-1s-.45-1-1-1h-4v-9c0-.31-.15-.61-.4-.8l-3.6-2.7v-2.5h5c1.65,0,3-1.35,3-3s-1.35-3-3-3h-5v-1c0-1.32-.52-2.58-1.47-3.54-.23-.23-.48-.43-.74-.6.75-.73,1.21-1.74,1.21-2.86,0-2.21-1.79-4-4-4s-4,1.79-4,4c0,1.14.49,2.17,1.26,2.9-.21.15-.42.29-.6.47-.75.72-1.26,1.64-1.5,2.63h-2.99c-.27,0-.52.11-.71.29l-2.17,2.17c-1.17,1.17-1.17,3.08,0,4.25,1.143,1.143,3.088,1.143,4.25,0l.7-.71h.76v10.65l-3.78,4.73c-.18.21-.25.5-.21.77.04.28.2.53.44.68l.25.17h-4.7c-.55,0-1,.45-1,1v4c0,.55.45,1,1,1h48c.55,0,1-.45,1-1v-4c0-.55-.45-1-1-1ZM38.999,31.5v-2h8.76c.26,0,.52-.11.7-.29l4.71-4.71,1.42,1.41-5.59,5.59h-10ZM18.139,45.5l3.63-4.36c.14-.17.23-.39.23-.62l.04-1.99,1.03.59.8,6.38h-5.73ZM20.999,14.5c1.1,0,2,.9,2,2s-.9,2-2,2-2-.9-2-2,.9-2,2-2ZM17.999,23.73c0-.91.38-1.78,1.04-2.41.59-.56,1.34-.86,2.1-.82.74.04,1.45.35,1.98.87.57.58.88,1.34.88,2.13v2c0,.55.45,1,1,1h6c.55,0,1,.45,1,1s-.45,1-1,1h-7c-1.1,0-2-.9-2-2,0-.55-.45-1-1-1s-1,.45-1,1c0,2.21,1.79,4,4,4v3c0,.31.15.61.4.8l3.6,2.7v8.5h-2.12l-.89-7.12c-.04-.32-.22-.59-.49-.75l-6.5-3.71v-10.19ZM14.829,26.5c-.27,0-.52.11-.71.29l-1,1c-.39.39-1.02.39-1.41,0-.39-.39-.39-1.02,0-1.41l1.87-1.88h2.42v2h-1.17ZM17.779,40.12c.14-.17.22-.39.22-.62v-3.28l2.07,1.18-.06,2.73-4.2,5.04-1.35-.9,3.32-4.15Z"/>
</svg>