<?xml version="1.0" encoding="UTF-8"?>
<svg id="Outline" xmlns="http://www.w3.org/2000/svg" version="1.1" viewBox="0 0 64 64">
  <!-- Generator: Adobe Illustrator 29.5.1, SVG Export Plug-In . SVG Version: 2.1.0 Build 141)  -->
  <path d="M56,33.99978c.54999,0,1-.45001,1-1v-3c0-1.65002-1.34998-3-3-3h-13c-.54999,0-1,.45001-1,1s.45001,1,1,1h2v12h-8v-12h2c.54999,0,1-.45001,1-1s-.45001-1-1-1h-13c-1.65002,0-3,1.34998-3,3v1.83997c-1.22998-.53998-2.58002-.83997-4-.83997-5.51001,0-10,4.48999-10,10s4.48999,10,10,10c1.67999,0,3.26001-.42004,4.65002-1.16003.56.71002,1.40997,1.16003,2.34998,1.16003h30c1.65002,0,3-1.35004,3-3v-11c0-.54999-.45001-1-1-1s-1,.45001-1,1v3c0,.54999-.45001,1-1,1h-9v-2h7c.54999,0,1-.45001,1-1v-6c0-.54999-.45001-1-1-1h-7v-2h9c.54999,0,1,.45001,1,1v3c0,.54999.45001,1,1,1ZM21.48999,47.61978c-.01001,0-.02002.01001-.03998.02002-1.27002.85999-2.79999,1.35999-4.45001,1.35999-4.40997,0-8-3.59003-8-8s3.59003-8,8-8,8,3.58997,8,8c0,2.75-1.39001,5.17999-3.51001,6.62ZM33,48.99978h-9c-.25,0-.48999-.10004-.66998-.27002.62-.51001,1.16998-1.08997,1.64996-1.72998h5.02002c.54999,0,1-.45001,1-1s-.45001-1-1-1h-3.84003c.28003-.64001.5-1.29999.64001-2h6.20001v6ZM33,40.99978h-6c0-.67999-.07001-1.35004-.20001-2h6.20001v2ZM33,36.99978h-6v-4h6v4ZM33,30.99978h-7c-.54999,0-1,.45001-1,1v3.02997c-.57001-.76001-1.23999-1.44-2-2.01001v-3.01996c0-.54999.45001-1,1-1h9v2ZM43,48.99978h-8v-6h8v6ZM54,42.99978c.34998,0,.69-.07001,1-.17999v2.17999h-7c-.54999,0-1,.45001-1,1s.45001,1,1,1h7v1c0,.54999-.45001,1-1,1h-9v-6h9ZM51,32.99978v4h-6v-4h6Z"/>
  <path d="M18.76367,40.76346l-2.63281-1.31641c-.08105-.04004-.13086-.12109-.13086-.21143,0-.12988.10645-.23584.23633-.23584h2.76367c.55273,0,1-.44775,1-1s-.44727-1-1-1h-1v-1c0-.55225-.44727-1-1-1s-1,.44775-1,1v1.02393c-1.12109.11981-2,1.05988-2,2.21191,0,.85254.47363,1.61914,1.23633,2.00049l2.63281,1.31641c.08105.04004.13086.12109.13086.21143,0,.12988-.10645.23584-.23633.23584h-2.76367c-.55273,0-1,.44775-1,1s.44727,1,1,1h1v1c0,.55225.44727,1,1,1s1-.44775,1-1v-1.02393c1.12109-.11981,2-1.05988,2-2.21191,0-.85254-.47363-1.61914-1.23633-2.00049Z"/>
  <path d="M43.56055,24.89822c.35973.1762.84003.11583,1.14648-.19141l1.67773-1.67773c1.24219-1.24121,2.87109-1.95361,4.61523-2.02344v.99414c0,.4043.24316.76904.61719.92383s.80371.06934,1.08984-.2168l4-4c.39062-.39062.39062-1.02344,0-1.41406l-4-4c-.28613-.28613-.71582-.37061-1.08984-.2168-.37402.15479-.61719.51953-.61719.92383v1.05615c-4.04785.45508-7.34473,3.6416-7.86035,7.76562l-.13184,1.0542c-.05273.42382.16894.83446.55273,1.02246ZM52,16.99978c.42871,0,.79492-.27002.93652-.64893l1.64941,1.64893-1.64941,1.64893c-.1416-.37891-.50781-.64893-.93652-.64893h-.71582c-2.02734,0-3.95215.67139-5.52051,1.90967,1.13184-2.33057,3.52344-3.90967,6.23633-3.90967Z"/>
</svg>