<?xml version="1.0" encoding="UTF-8"?>
<svg id="Outline" xmlns="http://www.w3.org/2000/svg" version="1.1" viewBox="0 0 64 64">
  <!-- Generator: Adobe Illustrator 29.0.0, SVG Export Plug-In . SVG Version: 2.1.0 Build 186)  -->
  <path d="M56,27.00054c.54999,0,1-.45001,1-1v-4c0-1.65002-1.34998-3-3-3h-13.69c-3.59998-2.60999-7.84003-4-12.31-4-11.58002,0-21,9.41998-21,21s9.41998,21,21,21c10.53998,0,19.29999-7.67999,20.76001-18h5.23999c1.65002,0,3-1.35004,3-3v-2c0-.54999-.45001-1-1-1s-1,.45001-1,1v2c0,.54999-.45001,1-1,1h-14c-.54999,0-1-.45001-1-1v-14c0-.54999.45001-1,1-1h1v7c0,.32996.15997.64001.44.82996.27002.18005.62.22003.92999.10004l4.63-1.85004,4.62999,1.85003c.60743.24271,1.37-.22215,1.37001-.92999v-7h1c.54999,0,1,.45001,1,1v4c0,.54999.45001,1,1,1ZM28,17.00054c.34003,0,.66998.01996,1.01001.03998l-.20001.33002c-.62,1.06-.45001,2.39996.40997,3.27002l.88.87c.05005.06.09003.10999.13.17999l1.12,2.25c.17004.33997.04004.75-.29999.91998-.51001.25-.94.67999-1.19,1.19l-1.20001,2.39001c-.13995.26996-.42999.41998-.71997.37l-4.23999-.71002c-.14001-.02002-.27002-.08997-.37-.19l-2.17004-2.16998c-.57996-.57001-1.37-.84998-2.16998-.77002-.79999.08002-1.51001.51001-1.95001,1.17004l-.76996,1.14996c-.12.17999-.21002.37-.29004.60004l-.44,1.31995c-.10999.33002-.45996.53003-.81.44l-2.16998-.54999c-.35999-.08002-.72998-.08997-1.06-.02997l-1.25.20996c2.71997-7.16998,9.64001-12.27997,17.75-12.27997ZM28,55.00054c-9.72998,0-17.77002-7.35999-18.85999-16.81l.23999-.04999c.26001-.05005.53998.00995.76001.14996l1.19.79999c1.01996.67999,2.32001.67999,3.32996,0l1.08002-.71997c.26001-.16998.58002-.21002.88-.10999l.29999.09998c.5.15997.78003.69.66003,1.20001l-.37,1.46997c-.17999.70001-.10004,1.41003.21997,2.08002l.96002,1.90997c.63,1.25,2.06,1.90002,3.41998,1.56l1.87-.47998c.53003-.12,1.03003-.39001,1.41998-.77997l.51001-.51001c.31-.32001.83002-.38,1.21002-.15002l3.28998,1.98004c.12.06995.23004.16998.31.27997l.84003,1.28003c.77997,1.17999,2.29999,1.64996,3.62,1.12994l2.90002-1.15997c.18994-.08002.38995-.09998.60999-.03998l2.06.51001c.39001.09998.70001.42999.75.81995l.02997.20001c-3.42999,3.31-8.08997,5.34003-13.22998,5.34003ZM40,39.00054h6.73999c-.52997,3.40997-1.95001,6.47998-4,9.01001-.40997-.63-1.03998-1.12-1.79999-1.31l-2.04999-.51001c-.62-.16003-1.27002-.12-1.85999.12l-2.89001,1.15997c-.44.17999-.95001.02002-1.21002-.37l-.84998-1.27997c-.25-.38-.58002-.69-.95001-.91003l-3.28003-1.96997c-1.17999-.70001-2.69-.52002-3.65997.45001l-.51001.50995c-.12.13-.27997.22003-.46997.26001l-1.89001.48004c-.45001.12-.94-.10004-1.14001-.52002l-.95001-1.90002c-.10999-.21997-.13995-.45996-.07996-.70001l.37-1.47998c.37-1.52002-.48999-3.08997-1.97003-3.58002l-.29999-.09998c-.88-.29999-1.84003-.16998-2.60999.34998l-1.09003.72003c-.33002.21997-.76996.21997-1.10999,0l-1.20001-.81c-.64996-.41998-1.45996-.58002-2.22998-.44,0-.06-.01001-.12-.01001-.17999,0-1.58002.21997-3.10999.58002-4.58002l2.26001-.38c.07996-.01001.17999-.01001.25995.01001l2.14001.53998c.22003.06.44.08002.66003.08002,1.12,0,2.15997-.71002,2.53998-1.82001l.42999-1.29999c.03003-.09003.06-.15002.08002-.17999l.76001-1.12c.13995-.22003.35999-.28003.47998-.29004.20001-.01996.40997.05005.54999.20001l2.16998,2.16998c.40002.39001.89001.65002,1.46002.75l4.25.71002c1.16003.19,2.29999-.39001,2.82001-1.45001l1.20001-2.38995c.07001-.13.17999-.24005.29999-.30005,1.32001-.65997,1.85999-2.26996,1.20001-3.59998l-1.13-2.26001c-.12-.25-.29004-.47998-.48999-.69l-.88-.88c-.23004-.21997-.27002-.56-.10999-.82996l.66998-1.12006c2.39996.41003,4.67999,1.27002,6.75,2.55005-.58002.54999-.95001,1.32001-.95001,2.17999v14c0,1.64996,1.34998,3,3,3ZM51,26.5205l-3.63-1.44995c-.12-.05005-.23999-.07001-.37-.07001s-.25.01996-.37.07001l-3.63,1.44995v-5.51996h8v5.51996Z"/>
  <path d="M43.40576,16.80523c.30225.22266.70557.25684,1.0415.08984l2.4834-1.24219c.85449-.42676,1.81055-.65234,2.76465-.65234h1.30469v1c0,.84476,1.10807,1.30599,1.70703.70704l4-4c.39062-.39062.39062-1.02344,0-1.41406l-4-4c-.28662-.28613-.71631-.37402-1.08984-.2168-.37354.1543-.61719.51953-.61719.92383v1c-3.979.03906-7.33057,2.90137-7.98633,6.83594-.06201.37109.08984.74512.39209.96875ZM51.08252,11.00054h.91748c.42871,0,.79443-.26953.93652-.64941l1.64941,1.64941-1.64941,1.64941c-.14209-.37988-.50781-.64941-.93652-.64941h-2.30469c-1.2627,0-2.52783.29883-3.65869.86328l-.25195.12598c1.08789-1.81348,3.06592-2.98926,5.29785-2.98926Z"/>
  <circle cx="56" cy="30.00054" r="1"/>
</svg>