<?xml version="1.0" encoding="UTF-8"?>
<svg id="Outline" xmlns="http://www.w3.org/2000/svg" version="1.1" viewBox="0 0 64 64">
  <!-- Generator: Adobe Illustrator 29.5.1, SVG Export Plug-In . SVG Version: 2.1.0 Build 141)  -->
  <path d="M56.53,36.15l-8-5-.01.01c-.15-.09-.33-.16-.52-.16h-4.7c.45-1.25.7-2.6.7-4,0-5.21-3.35-9.65-8-11.3v-2.7h2c.55,0,1-.45,1-1v-4c0-.55-.45-1-1-1h-12c-.55,0-1,.45-1,1v4c0,.55.45,1,1,1h2v2.7c-4.65,1.65-8,6.09-8,11.3,0,1.4.25,2.75.7,4h-4.7c-.19,0-.37.07-.52.16l-.01-.01-8,5c-.23.14-.39.38-.45.64-.05.26,0,.54.15.76l2,3c.19.29.51.45.83.45.17,0,.34-.04.5-.13l3.33-1.91-.82,4.88c-.04.29.04.58.23.81.19.22.47.35.76.35h1v9c0,1.65,1.35,3,3,3h28c1.65,0,3-1.35,3-3v-9h1c.29,0,.57-.13.76-.35.19-.23.27-.52.23-.81l-.82-4.88,3.33,1.91c.16.09.33.13.5.13.32,0,.64-.16.83-.45l2-3c.15-.22.2-.5.15-.76-.06-.26-.22-.5-.45-.64ZM14.25,36.42l-3.94,2.25-.91-1.37,5.25-3.28-.4,2.4ZM27,11v-2h10v2h-10ZM34,13v2.18c-.65-.11-1.32-.18-2-.18s-1.35.07-2,.18v-2.18h4ZM32,17c5.51,0,10,4.49,10,10s-4.49,10-10,10-10-4.49-10-10,4.49-10,10-10ZM47,54c0,.55-.45,1-1,1h-28c-.55,0-1-.45-1-1v-9h30v9ZM15.18,43l1.67-10h4.77c2.08,3.58,5.95,6,10.38,6s8.3-2.42,10.38-6h4.77l1.67,10H15.18ZM53.69,38.67l-3.94-2.25-.4-2.4,5.25,3.28-.91,1.37Z"/>
  <path d="M32,30c1.654,0,3-1.346,3-3,0-1.302-.839-2.402-2-2.816v-4.184c0-.553-.448-1-1-1s-1,.447-1,1v4.184c-1.161.414-2,1.514-2,2.816,0,1.654,1.346,3,3,3ZM32,26c.551,0,1,.448,1,1s-.449,1-1,1-1-.448-1-1,.449-1,1-1Z"/>
</svg>