<?xml version="1.0" encoding="UTF-8"?>
<svg id="Outline" xmlns="http://www.w3.org/2000/svg" version="1.1" viewBox="0 0 64 64">
  <!-- Generator: Adobe Illustrator 29.5.1, SVG Export Plug-In . SVG Version: 2.1.0 Build 141)  -->
  <path d="M40.752,19.005c.885-.885,1.372-2.062,1.373-3.315,0-1.254-.487-2.432-1.372-3.316s-2.062-1.373-3.315-1.373-2.43.487-3.316,1.373l-2.121,2.121-2.121-2.122c-.887-.885-2.064-1.372-3.316-1.372s-2.431.487-3.314,1.373c-.886.885-1.373,2.062-1.372,3.316,0,1.254.487,2.431,1.372,3.315l8.045,8.046c.188.188.441.293.707.293s.52-.105.707-.293l8.045-8.046ZM24.662,17.59h0c-.507-.507-.786-1.182-.786-1.9,0-.72.278-1.396.787-1.902.506-.508,1.181-.787,1.899-.787s1.395.279,1.902.787l2.828,2.828c.391.391,1.023.391,1.414,0l2.828-2.827c1.016-1.018,2.788-1.017,3.804,0,.507.507.786,1.183.786,1.901s-.279,1.395-.787,1.901l-7.338,7.34-7.338-7.34Z"/>
  <path d="M57,8c0-.553-.447-1-1-1h-9.653c-1.438,0-2.717.766-3.425,1.95-1.546-1.263-3.462-1.95-5.485-1.95-2.001,0-3.899.672-5.437,1.91-1.537-1.238-3.436-1.91-5.437-1.91-2.023,0-3.939.687-5.485,1.95-.707-1.183-1.987-1.95-3.425-1.95h-9.653c-.553,0-1,.447-1,1v1c0,1.041.409,1.981,1.062,2.693-.032.098-.062.198-.062.307v1c0,1.474.81,2.75,2,3.444v.556c0,1.474.81,2.75,2,3.444v.556c0,1.474.81,2.75,2,3.444v.556c0,2.206,1.794,4,4,4h9.586l1.414,1.414v6.586c0,.553.447,1,1,1s1-.447,1-1v-4.586l.293.293c.195.195.451.293.707.293s.512-.098.707-.293l.293-.293v21.586c0,.552-.448,1-1,1-.267,0-.514-.103-.713-.307-.185-.18-.287-.427-.287-.693v-9c0-.553-.447-1-1-1s-1,.447-1,1v9c0,.812.316,1.566.873,2.107.561.576,1.315.893,2.127.893,1.654,0,3-1.346,3-3v-23.586l1.414-1.414h9.586c2.206,0,4-1.794,4-4v-.556c1.19-.694,2-1.97,2-3.444v-.556c1.19-.694,2-1.97,2-3.444v-.556c1.19-.694,2-1.97,2-3.444v-1c0-.109-.03-.209-.062-.307.653-.712,1.062-1.653,1.062-2.693v-1ZM18,27c-1.103,0-2-.897-2-2h2c.553,0,1-.447,1-1s-.447-1-1-1h-2c-1.103,0-2-.897-2-2h2c.553,0,1-.447,1-1s-.447-1-1-1h-2c-1.103,0-2-.897-2-2h3c.553,0,1-.447,1-1s-.447-1-1-1h-3c-1.103,0-2-.897-2-2v-.142c.322.084.653.142,1,.142h2c.553,0,1-.447,1-1s-.447-1-1-1h-2c-1.103,0-2-.897-2-2h8.653c.921,0,1.719.624,1.941,1.516-2.526,3.399-2.258,8.235.825,11.317l5.167,5.167h-7.586ZM32,30.586l-1.292-1.292-.003-.003-1.997-1.997-.003-.003-6.873-6.873c-2.608-2.608-2.608-6.852,0-9.46,1.304-1.304,3.017-1.956,4.729-1.956s3.427.652,4.73,1.956c.391.391,1.023.391,1.414,0,2.606-2.607,6.852-2.608,9.46,0s2.608,6.852,0,9.46l-6.873,6.873-.003.003-1.997,1.997-.003.003-1.292,1.292ZM52,15h-3c-.553,0-1,.447-1,1s.447,1,1,1h3c0,1.103-.897,2-2,2h-2c-.553,0-1,.447-1,1s.447,1,1,1h2c0,1.103-.897,2-2,2h-2c-.553,0-1,.447-1,1s.447,1,1,1h2c0,1.103-.897,2-2,2h-7.586l5.167-5.167c3.082-3.082,3.35-7.917.825-11.317.222-.893,1.021-1.516,1.941-1.516h8.653c0,1.103-.897,2-2,2h-2c-.553,0-1,.447-1,1s.447,1,1,1h2c.347,0,.678-.058,1-.142v.142c0,1.103-.897,2-2,2Z"/>
  <circle cx="30" cy="41" r="1"/>
</svg>