<?xml version="1.0" encoding="UTF-8"?>
<svg id="Outline" xmlns="http://www.w3.org/2000/svg" version="1.1" viewBox="0 0 64 64">
  <!-- Generator: Adobe Illustrator 29.5.1, SVG Export Plug-In . SVG Version: 2.1.0 Build 141)  -->
  <path d="M39,23c.55,0,1-.45,1-1v-7c0-2.14-.83-4.15-2.34-5.66-1.51-1.51-3.52-2.34-5.66-2.34-4.41,0-8,3.59-8,8v24c0,3.35,2.07,6.22,5,7.41v7.59c0,1.65,1.35,3,3,3s3-1.35,3-3v-7.59c2.93-1.19,5-4.06,5-7.41v-9c0-.55-.45-1-1-1s-1,.45-1,1v9c0,3.31-2.69,6-6,6s-6-2.69-6-6V15c0-3.31,2.69-6,6-6,1.6,0,3.11.62,4.24,1.76,1.14,1.13,1.76,2.64,1.76,4.24v7c0,.55.45,1,1,1ZM31,46.93c.33.04.66.07,1,.07s.67-.03,1-.07v7.07c0,.55-.45,1-1,1s-1-.45-1-1v-7.07Z"/>
  <path d="M34.121,12.879l-.585-.586c-1.134-1.133-3.109-1.133-4.243,0-1.168,1.17-1.168,3.072,0,4.242l.466.467c-1.024,1.084-1.585,2.497-1.585,3.998s.562,2.915,1.587,4c-2.115,2.239-2.115,5.761,0,8-1.025,1.085-1.587,2.498-1.587,4,0,1.558.605,3.021,1.705,4.121l.585.586c.567.566,1.32.879,2.122.879s1.555-.312,2.122-.879c1.168-1.17,1.168-3.072,0-4.242l-.466-.467c1.024-1.084,1.585-2.497,1.585-3.998s-.562-2.915-1.587-4c2.115-2.239,2.115-5.761,0-8,1.025-1.085,1.587-2.498,1.587-4,0-1.558-.605-3.021-1.705-4.121ZM32.708,22.294c1.491,1.492,1.491,3.92,0,5.412-.713.714-.713,1.875,0,2.587.722.722,1.12,1.684,1.12,2.707s-.397,1.985-1.119,2.707c-.345.346-.536.805-.536,1.293s.19.947.536,1.293l.585.586c.39.39.39,1.024,0,1.414-.377.379-1.036.379-1.414,0l-.586-.586c-.722-.722-1.119-1.684-1.119-2.707s.398-1.985,1.12-2.707c.712-.712.712-1.873,0-2.587-1.491-1.492-1.491-3.92,0-5.412.713-.714.713-1.875,0-2.587-.722-.722-1.12-1.684-1.12-2.707s.397-1.985,1.119-2.707c.345-.346.536-.805.536-1.293s-.19-.947-.536-1.293l-.585-.586c-.39-.39-.39-1.024,0-1.414.188-.189.439-.293.707-.293s.518.104.707.293l.586.586c.722.722,1.119,1.684,1.119,2.707s-.398,1.985-1.12,2.707c-.712.712-.712,1.873,0,2.587Z"/>
  <circle cx="39" cy="26" r="1"/>
</svg>