<?xml version="1.0" encoding="UTF-8"?>
<svg id="Outline" xmlns="http://www.w3.org/2000/svg" version="1.1" viewBox="0 0 64 64">
  <!-- Generator: Adobe Illustrator 29.5.1, SVG Export Plug-In . SVG Version: 2.1.0 Build 141)  -->
  <path d="M32,28.786c3.511,0,6.808-1.885,8.604-4.919.211-.357.18-.809-.078-1.133-.259-.324-.692-.456-1.086-.329-.792.253-1.613.381-2.439.381-4.411,0-8-3.589-8-8,0-1.421.386-2.826,1.118-4.062.211-.357.18-.808-.079-1.132s-.692-.457-1.086-.329c-4.158,1.33-6.952,5.157-6.952,9.523,0,5.514,4.486,10,10,10ZM27.319,12.294c-.211.812-.319,1.649-.319,2.492,0,5.606,4.659,10.175,10.279,9.996-1.444,1.27-3.32,2.004-5.279,2.004-4.411,0-8-3.589-8-8,0-2.632,1.27-5.02,3.319-6.492Z"/>
  <path d="M33.619,17.306l-.214,2.391c-.031.35.124.691.408.897.285.208.657.249.98.111l2.207-.942,2.207.942c.126.054.26.08.393.08.579,0,1.048-.51.996-1.089l-.214-2.391,1.578-1.807c.231-.266.306-.633.198-.967-.109-.335-.385-.588-.729-.666l-2.339-.535-1.231-2.06c-.361-.604-1.355-.604-1.717,0l-1.231,2.06-2.339.535c-.343.078-.62.331-.729.666-.108.334-.034.701.198.967l1.578,1.807ZM35.772,15.186c.266-.061.496-.228.636-.461l.592-.991.592.991c.14.233.37.4.636.461l1.125.258-.759.868c-.179.206-.267.476-.243.747l.103,1.15-1.062-.453c-.125-.054-.259-.08-.393-.08s-.267.026-.393.08l-1.062.453.103-1.15c.024-.271-.063-.541-.243-.747l-.759-.868,1.125-.258Z"/>
  <path d="M16,38.786c2.206,0,4-1.794,4-4s-1.794-4-4-4-4,1.794-4,4,1.794,4,4,4ZM16,32.786c1.103,0,2,.897,2,2s-.897,2-2,2-2-.897-2-2,.897-2,2-2Z"/>
  <path d="M28,34.786c0,2.206,1.794,4,4,4s4-1.794,4-4-1.794-4-4-4-4,1.794-4,4ZM34,34.786c0,1.103-.897,2-2,2s-2-.897-2-2,.897-2,2-2,2,.897,2,2Z"/>
  <path d="M48,38.786c2.206,0,4-1.794,4-4s-1.794-4-4-4-4,1.794-4,4,1.794,4,4,4ZM48,32.786c1.103,0,2,.897,2,2s-.897,2-2,2-2-.897-2-2,.897-2,2-2Z"/>
  <path d="M53,40.786h-10c-1.2,0-2.27.54-3,1.38-.73-.84-1.8-1.38-3-1.38h-10c-1.2,0-2.27.54-3,1.38-.73-.84-1.8-1.38-3-1.38h-10c-2.21,0-4,1.79-4,4v7c0,1.65,1.35,3,3,3h12c.77,0,1.47-.3,2-.78.53.48,1.23.78,2,.78h12c.77,0,1.47-.3,2-.78.53.48,1.23.78,2,.78h12c1.65,0,3-1.35,3-3v-7c0-2.21-1.79-4-4-4ZM23,51.786c0,.55-.45,1-1,1h-6c-.55,0-1-.45-1-1s.45-1,1-1h4c.55,0,1-.45,1-1v-2c0-.55-.45-1-1-1s-1,.45-1,1v1h-6v-1c0-.55-.45-1-1-1s-1,.45-1,1v2c0,.55.45,1,1,1h1.18c-.11.31-.18.65-.18,1s.07.69.18,1h-3.18c-.55,0-1-.45-1-1v-7c0-1.1.9-2,2-2h10c1.1,0,2,.9,2,2v7ZM39,51.786c0,.55-.45,1-1,1h-6c-.55,0-1-.45-1-1s.45-1,1-1h4c.55,0,1-.45,1-1v-2c0-.55-.45-1-1-1s-1,.45-1,1v1h-6v-1c0-.55-.45-1-1-1s-1,.45-1,1v2c0,.55.45,1,1,1h1.18c-.11.31-.18.65-.18,1s.07.69.18,1h-3.18c-.55,0-1-.45-1-1v-7c0-1.1.9-2,2-2h10c1.1,0,2,.9,2,2v7ZM55,51.786c0,.55-.45,1-1,1h-6c-.55,0-1-.45-1-1s.45-1,1-1h4c.55,0,1-.45,1-1v-2c0-.55-.45-1-1-1s-1,.45-1,1v1h-6v-1c0-.55-.45-1-1-1s-1,.45-1,1v2c0,.55.45,1,1,1h1.18c-.11.31-.18.65-.18,1s.07.69.18,1h-3.18c-.55,0-1-.45-1-1v-7c0-1.1.9-2,2-2h10c1.1,0,2,.9,2,2v7Z"/>
</svg>