<?xml version="1.0" encoding="UTF-8"?>
<svg id="Outline" xmlns="http://www.w3.org/2000/svg" version="1.1" viewBox="0 0 64 64">
  <!-- Generator: Adobe Illustrator 29.5.1, SVG Export Plug-In . SVG Version: 2.1.0 Build 141)  -->
  <path d="M45,34.998v-14c1.65,0,3-1.35,3-3,0-1.33-.87-2.44-2.07-2.84-.35-3.04-2.53-5.56-5.58-6.26l-6.19-1.43c-1.4-.62-2.92-.62-4.32,0l-6.19,1.43c-3.05.7-5.23,3.22-5.58,6.26-1.2.4-2.07,1.51-2.07,2.84,0,1.65,1.35,3,3,3v14c-1.65,0-3,1.35-3,3,0,1.33.87,2.44,2.07,2.84.35,3.04,2.53,5.56,5.58,6.26l6.19,1.43c.38.17.77.29,1.16.37v2.28c-1.16.42-2,1.52-2,2.82,0,1.65,1.35,3,3,3s3-1.35,3-3c0-1.3-.84-2.4-2-2.82v-2.28c.39-.08.78-.2,1.16-.37l6.19-1.43c3.05-.7,5.23-3.22,5.58-6.26,1.2-.4,2.07-1.51,2.07-2.84,0-1.65-1.35-3-3-3ZM39.9,10.847c2.08.48,3.62,2.12,4.01,4.15h-4.32c-.4-1.61-1.14-3.3-2.17-4.72l2.48.57ZM30.5,9.368l1.5-.34,1.5.34c1.72.85,3.28,3.06,4.03,5.63h-11.06c.75-2.57,2.31-4.78,4.03-5.63ZM24.1,10.847l2.48-.57c-1.03,1.42-1.77,3.11-2.17,4.72h-4.32c.39-2.03,1.93-3.67,4.01-4.15ZM18,17.998c0-.55.45-1,1-1h26c.55,0,1,.45,1,1s-.45,1-1,1h-26c-.55,0-1-.45-1-1ZM39.29,27.287c-.18.19-.29.44-.29.71v7h-3v-7c0-.22-.07-.43-.2-.6l-3-4c-.38-.5-1.22-.5-1.6,0l-3,4c-.13.17-.2.38-.2.6v7h-3v-7c0-.27-.11-.52-.29-.71l-3.71-3.7v-2.59h22v2.59l-3.71,3.7ZM43,26.407v8.59h-2v-6.59l2-2ZM34,28.327v6.67h-4v-6.67l2-2.66,2,2.66ZM23,28.407v6.59h-2v-8.59l2,2ZM24.1,45.147c-2.08-.48-3.62-2.12-4.01-4.15h4.32c.4,1.61,1.14,3.3,2.17,4.72l-2.48-.57ZM32,54.998c-.55,0-1-.45-1-1s.45-1,1-1,1,.45,1,1-.45,1-1,1ZM33.5,46.628l-1.5.34-1.5-.34c-1.72-.85-3.28-3.06-4.03-5.63h11.06c-.75,2.57-2.31,4.78-4.03,5.63ZM39.9,45.147l-2.48.57c1.03-1.42,1.77-3.11,2.17-4.72h4.32c-.39,2.03-1.93,3.67-4.01,4.15ZM45,38.998h-26c-.55,0-1-.45-1-1s.45-1,1-1h26c.55,0,1,.45,1,1s-.45,1-1,1Z"/>
</svg>