<?xml version="1.0" encoding="UTF-8"?>
<svg id="Outline" xmlns="http://www.w3.org/2000/svg" version="1.1" viewBox="0 0 64 64">
  <!-- Generator: Adobe Illustrator 29.3.1, SVG Export Plug-In . SVG Version: 2.1.0 Build 151)  -->
  <path d="M52.10742,38.90381l-11.52069,5.38147c-.05438-.34723-.13824-.69019-.28693-1.01428-.44727-.97559-1.28906-1.72754-2.30859-2.06299l-14.8584-4.89209c-1.53906-.50732-3.2373-.23438-4.50391.70703l-.69922.4707c-1.26892.85468-2.72314,1.336-4.23578,1.45502-.35339-.56726-.97797-.94867-1.69391-.94867h-3c-1.10254,0-2,.89697-2,2v3c0,.55225.44727,1,1,1s1-.44775,1-1v-3h3v15h-3v-4c0-.55225-.44727-1-1-1s-1,.44775-1,1v4c0,1.10303.89746,2,2,2h3c1.10254,0,2-.89697,2-2h2.19727c.98047,0,1.93066.2876,2.74805.83203,1.14746.76416,2.48047,1.16797,3.85742,1.16797h13.46484c1.0166,0,1.99609-.3042,2.83203-.87939l16.4502-11.30615c.9082-.64648,1.4502-1.69531,1.4502-2.80469,0-.52051-.12109-1.03418-.36523-1.53711-.82617-1.65186-2.8584-2.35547-4.52734-1.56885ZM54.40332,43.17578l-16.4375,11.29688c-.50098.34521-1.08789.52734-1.69824.52734h-13.46484c-.98047,0-1.93066-.2876-2.74805-.83203-1.14746-.76416-2.48047-1.16797-3.85742-1.16797h-2.19727v-12.05133c1.80322-.16614,3.53143-.77502,5.04688-1.79633l.73633-.49707c.78223-.5791,1.80078-.74365,2.72461-.43994l14.8584,4.89209c.5.16455.89648.51904,1.11621.99756s.22949,1.00928.02832,1.49561c-.38281.92383-1.4209,1.38379-2.3623,1.0459l-7.60352-2.72998c-.51855-.1875-1.09277.0835-1.2793.60352-.18652.51953.08398,1.09229.60352,1.2793l7.60352,2.72998c.43359.15527.87598.229,1.31152.229,1.41418,0,2.74231-.78601,3.41937-2.08649l12.7525-5.95697c.69824-.3291,1.5459-.03662,1.88477.6416.10547.21826.15918.43799.15918.65332,0,.46387-.22852.90332-.59668,1.16602Z"/>
  <path d="M37,20h-4c-.55273,0-1,.44775-1,1v8c0,.55225.44727,1,1,1s1-.44775,1-1v-3h2c.55273,0,1-.44775,1-1s-.44727-1-1-1h-2v-2h3c.55273,0,1-.44775,1-1s-.44727-1-1-1Z"/>
  <path d="M42,20c-1.6543,0-3,1.3457-3,3v6c0,.55225.44727,1,1,1s1-.44775,1-1v-2h2v2c0,.55225.44727,1,1,1s1-.44775,1-1v-6c0-1.6543-1.3457-3-3-3ZM41,25v-2c0-.55127.44824-1,1-1s1,.44873,1,1v2h-2Z"/>
  <path d="M49.5,20c-1.92969,0-3.5,1.57031-3.5,3.5v3c0,1.92969,1.57031,3.5,3.5,3.5.60767,0,1.17108-.16968,1.66968-.4433.19263.28772.50891.4433.8313.4433.19043,0,.38281-.0542.55371-.16797.45996-.30615.58398-.92725.27734-1.38672l-.23419-.35132c.24841-.48035.40216-1.01703.40216-1.59399v-3c0-1.92969-1.57031-3.5-3.5-3.5ZM50.83203,25.44531c-.30664-.45947-.92676-.58447-1.38672-.27734-.45996.30615-.58398.92725-.27734,1.38672l.89008,1.33514c-.17285.0697-.36053.11017-.55804.11017-.82715,0-1.5-.67285-1.5-1.5v-3c0-.82715.67285-1.5,1.5-1.5s1.5.67285,1.5,1.5v2.19727l-.16797-.25195Z"/>
  <path d="M54,15h-17.69556c-1.67346-4.74506-6.21185-8-11.30444-8-6.61719,0-12,5.3833-12,12,0,2.6543.8877,5.24268,2.50879,7.34277l-.48926,2.4624c-.06543.32812.03711.6665.27441.90283.2373.23584.5752.33789.90332.27246l2.85254-.57373c1.81738,1.04346,3.86621,1.59326,5.9502,1.59326,1.01654,0,2.01935-.13763,3-.3905v1.3905c0,1.6543,1.3457,3,3,3h12.76367l5.78906,2.89453c.1416.07031.29395.10547.44727.10547.18262,0,.36523-.05029.52539-.14941.29492-.18213.47461-.50391.47461-.85059v-2h3c1.6543,0,3-1.3457,3-3v-14c0-1.6543-1.3457-3-3-3ZM19.75684,27.5c-.21582-.13379-.47363-.18115-.72363-.13037l-1.75977.354.28711-1.44873c.05957-.29736-.01953-.60547-.21387-.8374-1.53516-1.83008-2.34668-4.05615-2.34668-6.4375,0-5.51416,4.48633-10,10-10,4.00073,0,7.58954,2.41174,9.1554,6h-3.1554c-1.6543,0-3,1.3457-3,3v10.52258c-2.74561.85431-5.78033.50238-8.24316-1.02258ZM55,32c0,.55127-.44824,1-1,1h-4c-.55273,0-1,.44775-1,1v1.38184l-4.55273-2.27637c-.13867-.06934-.29199-.10547-.44727-.10547h-13c-.55176,0-1-.44873-1-1v-14c0-.55127.44824-1,1-1h23c.55176,0,1,.44873,1,1v14Z"/>
  <path d="M26,18h-8c-.55273,0-1,.44775-1,1s.44727,1,1,1h8c.55273,0,1-.44775,1-1s-.44727-1-1-1Z"/>
  <path d="M19,16h6c.55273,0,1-.44775,1-1s-.44727-1-1-1h-6c-.55273,0-1,.44775-1,1s.44727,1,1,1Z"/>
  <path d="M25,22h-6c-.55273,0-1,.44775-1,1s.44727,1,1,1h6c.55273,0,1-.44775,1-1s-.44727-1-1-1Z"/>
  <circle cx="8" cy="47" r="1"/>
</svg>