<?xml version="1.0" encoding="UTF-8"?>
<svg id="Outline" xmlns="http://www.w3.org/2000/svg" version="1.1" viewBox="0 0 48 48">
  <!-- Generator: Adobe Illustrator 29.0.0, SVG Export Plug-In . SVG Version: 2.1.0 Build 186)  -->
  <path d="M42.83002,27.45001l-1.90002-2.86005-1.96002-7.82996c-.10999-.45001-.50995-.76001-.96997-.76001h-7.17999c-.41998-1.16003-1.52002-2-2.82001-2h-3.47998c-.25-.81-.60004-1.60004-1.06-2.33002-.30005-.46002-.92004-.59998-1.38-.29999-.47003.28998-.61005.90997-.31,1.38.79999,1.26996,1.22998,2.73999,1.22998,4.25,0,4.40997-3.59003,8-8,8s-8-3.59003-8-8,3.59003-8,8-8c1.51001,0,2.97998.42999,4.25,1.22998.46997.29999,1.09003.16003,1.38-.31.29999-.46002.15997-1.08002-.29999-1.38-1.60004-1.01001-3.44-1.53998-5.33002-1.53998-5.51001,0-10,4.48999-10,10,0,3.26001,1.58002,6.14996,4,7.97998v10.02002c0,1.64996,1.34998,3,3,3h1.14001c.45001,1.71997,2,3,3.85999,3s3.40997-1.28003,3.85999-3h10.28003c.45001,1.71997,2,3,3.85999,3s3.40997-1.28003,3.85999-3h1.14001c1.65002,0,3-1.35004,3-3v-7c0-.20001-.06-.39001-.16998-.54999ZM31,18h6.21997l1.5,6h-7.71997v-6ZM17,39c-1.09998,0-2-.90002-2-2,0-1.10004.90002-2,2-2s2,.89996,2,2c0,1.09998-.90002,2-2,2ZM35,39c-1.09998,0-2-.90002-2-2,0-1.10004.90002-2,2-2s2,.89996,2,2c0,1.09998-.90002,2-2,2ZM41,29h-6c-.54999,0-1,.45001-1,1s.45001,1,1,1h6v4c0,.54999-.45001,1-1,1h-1.14001c-.45001-1.72003-2-3-3.85999-3s-3.40997,1.27997-3.85999,3h-10.28003c-.45001-1.72003-2-3-3.85999-3s-3.40997,1.27997-3.85999,3h-1.14001c-.54999,0-1-.45001-1-1v-4h20c.54999,0,1-.45001,1-1s-.45001-1-1-1H11v-2.84003c1.22998.54004,2.58002.84003,4,.84003,5.51001,0,10-4.48999,10-10,0-.34003-.03998-.67004-.07001-1h3.07001c.54999,0,1,.45001,1,1v8c0,.54999.45001,1,1,1h9.46002l1.53998,2.29999v.70001Z"/>
  <path d="M15,11c-.55273,0-1,.44727-1,1v2.18427c-.84717.30206-1.51367.96857-1.81573,1.81573h-2.18427c-.55273,0-1,.44727-1,1s.44727,1,1,1h2.18433c.41412,1.1615,1.51373,2,2.81567,2,1.6543,0,3-1.3457,3-3,0-1.30194-.8385-2.40161-2-2.81573v-2.18427c0-.55273-.44727-1-1-1ZM15,18c-.55176,0-1-.44824-1-1s.44824-1,1-1,1,.44824,1,1-.44824,1-1,1Z"/>
</svg>