<?xml version="1.0" encoding="UTF-8"?>
<svg id="Outline" xmlns="http://www.w3.org/2000/svg" version="1.1" viewBox="0 0 64 64">
  <!-- Generator: Adobe Illustrator 29.5.1, SVG Export Plug-In . SVG Version: 2.1.0 Build 141)  -->
  <circle cx="16" cy="49.5" r="1"/>
  <circle cx="48" cy="49.5" r="1"/>
  <path d="M53.4,29.65c-1.53-1.9-3.5-3.47-5.69-4.53-2.2-1.06-4.66-1.62-7.11-1.62h-.6c-.55,0-1,.45-1,1v19h-4v-2c0-.55-.45-1-1-1H8c-.55,0-1,.45-1,1v7c0,.55.45,1,1,1h3c0,2.76,2.24,5,5,5s5-2.24,5-5h22c0,2.76,2.24,5,5,5s5-2.24,5-5h3c.55,0,1-.45,1-1v-8.6c0-3.71-1.28-7.35-3.6-10.25ZM16,52.5c-1.65,0-3-1.35-3-3s1.35-3,3-3,3,1.35,3,3-1.35,3-3,3ZM33,47.5h-12.42c-.78-1.76-2.53-3-4.58-3s-3.8,1.24-4.58,3h-2.42v-5h24v5ZM39,47.5h-4v-2h4v2ZM48,52.5c-1.65,0-3-1.35-3-3s1.35-3,3-3,3,1.35,3,3-1.35,3-3,3ZM55,47.5h-2.42c-.78-1.76-2.53-3-4.58-3s-3.8,1.24-4.58,3h-2.42v-21.99c2.02.05,4.03.54,5.83,1.41,1.94.93,3.67,2.31,5.01,3.99,2.04,2.54,3.16,5.73,3.16,8.99v7.6Z"/>
  <path d="M10,38.5h22c1.654,0,3-1.346,3-3v-14c0-1.654-1.346-3-3-3h-5.967l.841-1.514c.172-.31.167-.688-.012-.993-.18-.305-.507-.493-.862-.493h-1.613l1.562-4.684c.102-.305.05-.64-.138-.901-.188-.261-.49-.416-.811-.416h-7c-.477,0-.887.336-.98.804l-1.639,8.196h-5.38c-1.654,0-3,1.346-3,3v14c0,1.654,1.346,3,3,3ZM18.82,11.5h4.793l-1.562,4.684c-.102.305-.05.64.138.901.188.261.49.416.811.416h1.3l-2.3,4.141v-1.141c0-.552-.448-1-1-1h-3.78l1.6-8ZM9,21.5c0-.551.449-1,1-1h5.024c0,.229.055.454.203.634.19.232.474.366.773.366h4v4c0,.456.308.854.749.968.437.112.905-.087,1.125-.482l3.048-5.486h7.078c.551,0,1,.449,1,1v14c0,.551-.449,1-1,1H10c-.551,0-1-.449-1-1v-14Z"/>
  <path d="M45.97,28.722c-.535-.262-1.101-.484-1.681-.66-.304-.091-.632-.035-.885.155-.254.188-.404.486-.404.803v7.48c0,.552.528,1,1.08,1,1.723,0,3.419.47,4.912,1.361.876.517,1.784.913,2.698,1.179.092.026.186.04.279.04.227,0,.449-.077.629-.223.255-.206.392-.524.368-.851-.187-2.519-1.116-4.887-2.688-6.853-1.161-1.442-2.652-2.63-4.309-3.431ZM50.013,37.142c-1.518-.907-3.217-1.453-5.013-1.601v-5.066c.032.015.063.03.095.046,1.396.675,2.65,1.673,3.625,2.884.956,1.196,1.643,2.619,2,4.118-.238-.117-.473-.244-.706-.381Z"/>
  <path d="M46,39.5h-2c-.552,0-1,.448-1,1s.448,1,1,1h2c.552,0,1-.448,1-1s-.448-1-1-1Z"/>
  <path d="M12,34.5h18c.552,0,1-.448,1-1v-4c0-.552-.448-1-1-1H12c-.552,0-1,.448-1,1v4c0,.552.448,1,1,1ZM13,30.5h16v2H13v-2Z"/>
</svg>