<?xml version="1.0" encoding="UTF-8"?>
<svg id="Outline" xmlns="http://www.w3.org/2000/svg" version="1.1" viewBox="0 0 48 48">
  <!-- Generator: Adobe Illustrator 29.5.1, SVG Export Plug-In . SVG Version: 2.1.0 Build 141)  -->
  <path d="M38,19h-21v-5c0-.55-.45-1-1-1h-1v-2h11c.55,0,1-.45,1-1v-4c0-.55-.45-1-1-1H8c-.55,0-1,.45-1,1v4c0,.55.45,1,1,1h1v2h-1c-.55,0-1,.45-1,1v5h-1c-.55,0-1,.45-1,1v2c0,2.76,2.24,5,5,5h18v3c0,.55.45,1,1,1h10c.55,0,1-.45,1-1v-3h2c.55,0,1-.45,1-1v-2c0-2.76-2.24-5-5-5ZM9,7h16v2H9v-2ZM13,11v2h-2v-2h2ZM9,15h6v4h-6v-4ZM38,29h-8v-2h8v2ZM41,25H10c-1.65,0-3-1.35-3-3v-1h31c1.65,0,3,1.35,3,3v1Z"/>
  <path d="M30,33c-.553,0-1,.448-1,1v2c0,.552.447,1,1,1s1-.448,1-1v-2c0-.552-.447-1-1-1Z"/>
  <path d="M34,33c-.553,0-1,.448-1,1v2c0,.552.447,1,1,1s1-.448,1-1v-2c0-.552-.447-1-1-1Z"/>
  <path d="M38,33c-.553,0-1,.448-1,1v2c0,.552.447,1,1,1s1-.448,1-1v-2c0-.552-.447-1-1-1Z"/>
  <path d="M30,39c-.553,0-1,.448-1,1v2c0,.552.447,1,1,1s1-.448,1-1v-2c0-.552-.447-1-1-1Z"/>
  <path d="M34,39c-.553,0-1,.448-1,1v2c0,.552.447,1,1,1s1-.448,1-1v-2c0-.552-.447-1-1-1Z"/>
  <path d="M38,39c-.553,0-1,.448-1,1v2c0,.552.447,1,1,1s1-.448,1-1v-2c0-.552-.447-1-1-1Z"/>
</svg>