<?xml version="1.0" encoding="UTF-8"?>
<svg id="Outline" xmlns="http://www.w3.org/2000/svg" version="1.1" viewBox="0 0 48 48">
  <!-- Generator: Adobe Illustrator 29.5.1, SVG Export Plug-In . SVG Version: 2.1.0 Build 141)  -->
  <path d="M22.431,37.329l-1.645-.474-.958-1.417c-.372-.551-1.285-.551-1.657,0l-.958,1.417-1.645.474c-.319.092-.572.336-.674.652-.103.315-.042.662.163.924l1.052,1.35-.059,1.709c-.011.332.143.647.412.843.269.195.615.244.929.132l1.609-.584,1.609.584c.111.04.226.06.341.06.536,0,1.019-.464,1-1.034l-.059-1.709,1.052-1.35c.204-.262.265-.608.163-.924-.103-.316-.355-.561-.674-.652ZM20.09,39.31c-.144.186-.219.415-.211.649l.021.594-.559-.203c-.11-.04-.226-.06-.341-.06s-.231.02-.341.06l-.559.203.021-.594c.008-.234-.067-.464-.211-.649l-.366-.469.572-.165c.225-.064.42-.207.552-.401l.333-.491.333.491c.131.194.327.337.552.401l.572.165-.366.469Z"/>
  <path d="M12.431,37.329l-1.645-.474-.958-1.417c-.372-.551-1.285-.551-1.657,0l-.958,1.417-1.645.474c-.319.092-.572.336-.674.652-.103.315-.042.662.163.924l1.052,1.35-.059,1.709c-.011.332.143.647.412.843s.615.244.929.132l1.609-.584,1.609.584c.111.04.226.06.34.06.554,0,1.018-.485,1-1.034l-.059-1.709,1.052-1.35c.204-.262.265-.608.163-.924-.103-.316-.355-.561-.674-.652ZM10.09,39.31c-.144.186-.219.415-.211.649l.021.594-.559-.203c-.11-.04-.226-.06-.341-.06s-.231.02-.341.06l-.559.203.021-.594c.008-.234-.067-.464-.211-.649l-.366-.469.572-.165c.225-.064.42-.207.552-.401l.333-.491.333.491c.131.194.327.337.552.401l.572.165-.366.469Z"/>
  <path d="M32.431,37.329l-1.645-.474-.958-1.417c-.372-.551-1.285-.551-1.657,0l-.958,1.417-1.645.474c-.319.092-.572.336-.674.652-.103.315-.042.662.163.924l1.052,1.35-.059,1.709c-.011.332.143.647.412.843.268.195.615.244.929.132l1.609-.584,1.609.584c.111.04.226.06.341.06.558,0,1.019-.479,1-1.034l-.059-1.709,1.052-1.35c.204-.262.265-.608.163-.924-.103-.316-.355-.561-.674-.652ZM30.09,39.31c-.144.186-.219.415-.211.649l.021.594-.559-.203c-.11-.04-.226-.06-.341-.06s-.231.02-.341.06l-.559.203.021-.594c.008-.234-.067-.464-.211-.649l-.366-.469.572-.165c.225-.064.42-.207.552-.401l.333-.491.333.491c.131.194.327.337.552.401l.572.165-.366.469Z"/>
  <path d="M43.105,37.981c-.103-.316-.355-.561-.674-.652l-1.645-.474-.958-1.417c-.372-.551-1.285-.551-1.657,0l-.958,1.417-1.645.474c-.319.092-.572.336-.674.652-.103.315-.042.662.163.924l1.052,1.35-.059,1.709c-.011.332.143.647.412.843.268.195.616.244.929.132l1.609-.584,1.609.584c.111.04.226.06.341.06.537,0,1.019-.466,1-1.034l-.059-1.709,1.052-1.35c.204-.262.265-.608.163-.924ZM40.09,39.31c-.144.186-.219.415-.211.649l.021.594-.559-.203c-.11-.04-.226-.06-.341-.06s-.231.02-.341.06l-.559.203.021-.594c.008-.234-.067-.464-.211-.649l-.366-.469.572-.165c.225-.064.42-.207.552-.401l.333-.491.333.491c.131.194.327.337.552.401l.572.165-.366.469Z"/>
  <path d="M37.394,7.918c-3.661-3.659-9.481-3.875-13.394-.643-3.914-3.232-9.734-3.017-13.394.643-3.887,3.888-3.887,10.214,0,14.101l12.687,12.687c.195.195.451.293.707.293s.512-.098.707-.293l12.687-12.687c3.887-3.887,3.887-10.213,0-14.101ZM24,32.584l-11.979-11.979c-3.107-3.107-3.107-8.164,0-11.272,1.554-1.554,3.595-2.33,5.636-2.33s4.083.776,5.636,2.33c.391.391,1.023.391,1.414,0,3.108-3.106,8.165-3.107,11.272,0,3.107,3.108,3.107,8.165,0,11.272l-11.979,11.979Z"/>
  <path d="M34.566,10.747c-1.127-1.128-2.627-1.749-4.223-1.749s-3.095.621-4.222,1.749l-2.121,2.12-2.121-2.12c-1.127-1.128-2.627-1.749-4.223-1.749s-3.095.621-4.222,1.748c-2.328,2.328-2.328,6.116,0,8.444l9.858,9.857c.195.195.451.293.707.293s.512-.098.707-.293l9.858-9.857c2.328-2.328,2.328-6.116,0-8.443ZM33.151,17.776l-9.151,9.15-9.151-9.15c-1.547-1.549-1.548-4.068,0-5.616,1.499-1.498,4.116-1.499,5.616,0l2.828,2.827c.391.391,1.023.391,1.414,0l2.829-2.827c1.499-1.5,4.116-1.5,5.616,0,1.548,1.548,1.547,4.066,0,5.615Z"/>
</svg>