<?xml version="1.0" encoding="UTF-8"?>
<svg id="Outline" xmlns="http://www.w3.org/2000/svg" version="1.1" viewBox="0 0 64 64">
  <!-- Generator: Adobe Illustrator 29.5.1, SVG Export Plug-In . SVG Version: 2.1.0 Build 141)  -->
  <path d="M44,28c.54999,0,1-.45001,1-1v-15c0-1.65002-1.34998-3-3-3h-2v-1c0-.54999-.45001-1-1-1s-1,.45001-1,1v1h-11v-1c0-.54999-.45001-1-1-1s-1,.45001-1,1v1h-11v-1c0-.54999-.45001-1-1-1s-1,.45001-1,1v1h-2c-1.65002,0-3,1.34998-3,3v42c0,1.64996,1.34998,3,3,3h32c1.65002,0,3-1.35004,3-3v-23c0-.54999-.45001-1-1-1s-1,.45001-1,1v23c0,.54999-.45001,1-1,1H10c-.54999,0-1-.45001-1-1V19h34v8c0,.54999.45001,1,1,1ZM9,17v-5c0-.54999.45001-1,1-1h2v2c-.54999,0-1,.45001-1,1s.45001,1,1,1h2c.54999,0,1-.45001,1-1s-.45001-1-1-1v-2h11v2c-.54999,0-1,.45001-1,1s.45001,1,1,1h2c.54999,0,1-.45001,1-1s-.45001-1-1-1v-2h11v2c-.54999,0-1,.45001-1,1s.45001,1,1,1h2c.54999,0,1-.45001,1-1s-.45001-1-1-1v-2h2c.54999,0,1,.45001,1,1v5H9Z"/>
  <path d="M19,22c0-.55273-.44775-1-1-1h-6c-.55225,0-1,.44727-1,1v6c0,.55273.44775,1,1,1h6c.55225,0,1-.44727,1-1v-6ZM17,27h-4v-4h4v4Z"/>
  <path d="M40,21h-18c-.55225,0-1,.44727-1,1s.44775,1,1,1h18c.55225,0,1-.44727,1-1s-.44775-1-1-1Z"/>
  <path d="M22,27h16c.55225,0,1-.44727,1-1s-.44775-1-1-1h-16c-.55225,0-1,.44727-1,1s.44775,1,1,1Z"/>
  <path d="M19,32c0-.55273-.44775-1-1-1h-6c-.55225,0-1,.44727-1,1v6c0,.55273.44775,1,1,1h6c.55225,0,1-.44727,1-1v-6ZM17,37h-4v-4h4v4Z"/>
  <path d="M40,31h-18c-.55225,0-1,.44727-1,1s.44775,1,1,1h18c.55225,0,1-.44727,1-1s-.44775-1-1-1Z"/>
  <path d="M22,37h16c.55225,0,1-.44727,1-1s-.44775-1-1-1h-16c-.55225,0-1,.44727-1,1s.44775,1,1,1Z"/>
  <path d="M18,41h-6c-.55225,0-1,.44727-1,1v6c0,.55273.44775,1,1,1h6c.55225,0,1-.44727,1-1v-6c0-.55273-.44775-1-1-1ZM17,47h-4v-4h4v4Z"/>
  <path d="M41,42c0-.55273-.44775-1-1-1h-18c-.55225,0-1,.44727-1,1s.44775,1,1,1h18c.55225,0,1-.44727,1-1Z"/>
  <path d="M22,45c-.55225,0-1,.44727-1,1s.44775,1,1,1h16c.55225,0,1-.44727,1-1s-.44775-1-1-1h-16Z"/>
  <path d="M55.53223,22.45801c-.95361-.94043-2.20801-1.45801-3.53223-1.45801-2.75684,0-5,2.24316-5,5v24c0,.19727.05859.39062.16797.55469l4,6c.18555.27832.49756.44531.83203.44531s.64648-.16699.83203-.44531l4-6c.10938-.16406.16797-.35742.16797-.55469v-9c0-.55273-.44775-1-1-1s-1,.44727-1,1v8.69727l-3,4.5-3-4.5v-20.69727h6v8c0,.55273.44775,1,1,1s1-.44727,1-1v-11c0-1.32324-.51758-2.57812-1.46777-3.54199ZM49,27v-1c0-1.6543,1.3457-3,3-3,.79541,0,1.55127.31348,2.11768.87207.56885.57715.88232,1.33301.88232,2.12793v1h-6Z"/>
</svg>