<?xml version="1.0" encoding="UTF-8"?>
<svg id="Outline" xmlns="http://www.w3.org/2000/svg" version="1.1" viewBox="0 0 64 64">
  <!-- Generator: Adobe Illustrator 29.3.1, SVG Export Plug-In . SVG Version: 2.1.0 Build 151)  -->
  <path d="M30,51.27997v-9.95996c0-1.12-.46997-2.19-1.29999-2.95001l-9.48004-8.69c-1.03998-.96002-2.52997-1.16998-3.77997-.63l-2.08002-9.57001c-.35999-1.65997-1.97998-2.72998-3.73999-2.42999-.47998.09998-.92999.28998-1.31.56-.84998.59998-1.34003,1.57001-1.31,2.59998l.63,15.07001c.04999,1.40002.65002,2.70001,1.67999,3.66003l5.96002,5.58997c.63.61005,1,1.39001,1.03998,2.20001l.14001,4.35999c-.84003.23999-1.45001,1-1.45001,1.91003v2c0,1.09998.90002,2,2,2h12c1.09998,0,2-.90002,2-2v-2c0-.73999-.40997-1.37-1-1.72003ZM16.64001,43.07996l-5.97003-5.59998c-.63995-.59998-1.01001-1.40002-1.03998-2.27997l-.63-15.06c-.01001-.35004.16998-.69.46002-.90002.15997-.10999.34998-.19.52997-.22003.65002-.12,1.28003.28003,1.41003.88l2.32996,10.72003c-.22998.42999-.37.90997-.39996,1.39996-.08002,1.02002.29999,2.02002,1.01996,2.74005l5.94,5.94995c.39001.39001,1.03003.39001,1.42004,0,.38995-.38995.38995-1.02997,0-1.41998l-5.95001-5.94c-.31-.32001-.47003-.73999-.44-1.17999.02002-.29999.13-.57001.29999-.79999.01001-.01001.02002-.02002.03003-.04004.07996-.09998.16998-.18994.27997-.26996.58002-.44,1.40002-.40002,1.94.08997l9.47998,8.70001c.41003.37.65002.91003.65002,1.47003v2.95996l-9.65002,3.16003-.03998-.82001c-.07001-1.32001-.65997-2.57001-1.66998-3.54004ZM28,46.38v4.62h-9.54999l-.01001-1.48999,9.56-3.13ZM29,55h-12v-2h12v2Z"/>
  <path d="M55.67999,17.59998c-.37-.26001-.82001-.45001-1.33002-.56-1.72998-.27997-3.34998.78998-3.70996,2.44l-2.08002,9.57001c-1.25-.53998-2.73999-.33002-3.77997.63l-9.48004,8.69c-.83002.76001-1.29999,1.83002-1.29999,2.95001v9.95996c-.59003.35004-1,.98004-1,1.72003v2c0,1.09998.90002,2,2,2h12c1.09998,0,2-.90002,2-2v-2c0-.91003-.60999-1.67004-1.45001-1.91003l.14001-4.37c.03998-.79999.40997-1.57996,1.02997-2.17999l5.97003-5.59998c1.02997-.96002,1.63-2.26001,1.67999-3.66003l.63-15.07996c.03003-1.02002-.46002-1.99005-1.32001-2.60004ZM47,55h-12v-2h2c.54999,0,1-.45001,1-1s-.45001-1-1-1h-1v-4.62l9.56,3.13-.01001,1.48999h-.54999c-.54999,0-1,.45001-1,1s.45001,1,1,1h2v2ZM54.37,35.20001c-.02997.87994-.40002,1.67999-1.03998,2.27997l-5.98004,5.60999c-1,.96002-1.58997,2.21002-1.65997,3.52002l-.03998.83002-9.65002-3.16003v-2.95996c0-.56.23999-1.10004.65002-1.47003l9.47998-8.70001c.53998-.48999,1.35999-.52997,1.94-.08997.10999.08002.20001.16998.27997.26996.01001.02002.02002.03003.03003.04004.16998.22998.27997.5.29999.79999.03003.44-.13.85999-.44,1.17999l-5.95001,5.94c-.38995.39001-.38995,1.03003,0,1.41998.39001.39001,1.03003.39001,1.42004,0l5.94-5.94995c.71997-.72003,1.09998-1.72003,1.01996-2.74005-.02997-.48999-.16998-.96997-.39996-1.39996l2.32996-10.72003c.13-.59998.77002-.98999,1.38-.88995.21002.03998.40002.12.55005.21997.29999.22003.47998.56.46997.90002l-.63,15.07001Z"/>
  <path d="M31,16c.55273,0,1-.44727,1-1s-.44727-1-1-1h-3c-.55273,0-1,.44727-1,1v8c0,.55273.44727,1,1,1h3c.55273,0,1-.44727,1-1s-.44727-1-1-1h-2v-2h2c.55273,0,1-.44727,1-1s-.44727-1-1-1h-2v-2h2Z"/>
  <path d="M37,22h-2v-7c0-.55273-.44727-1-1-1s-1,.44727-1,1v8c0,.55273.44727,1,1,1h3c.55273,0,1-.44727,1-1s-.44727-1-1-1Z"/>
  <path d="M42,14h-2c-.55273,0-1,.44727-1,1v8c0,.55273.44727,1,1,1s1-.44727,1-1v-3h1c1.6543,0,3-1.3457,3-3s-1.3457-3-3-3ZM42,18h-1v-2h1c.55176,0,1,.44824,1,1s-.44824,1-1,1Z"/>
  <path d="M25,14c-.55273,0-1,.44727-1,1v3h-2v-3c0-.55273-.44727-1-1-1s-1,.44727-1,1v8c0,.55273.44727,1,1,1s1-.44727,1-1v-3h2v3c0,.55273.44727,1,1,1s1-.44727,1-1v-8c0-.55273-.44727-1-1-1Z"/>
  <path d="M49,19.11133c0-6.67773-7.62598-12.11133-17-12.11133s-17,5.43359-17,12.11133c0,5.96582,5.91016,10.93359,14.11426,11.92383l2.10938,2.5957c.19043.2334.47559.36914.77637.36914s.58594-.13574.77637-.36914l2.10938-2.5957c8.2041-.99023,14.11426-5.95801,14.11426-11.92383ZM33.5918,29.45605l-1.5918,1.95898-1.5918-1.95898c-.16797-.20605-.41016-.33691-.67383-.36426-7.25977-.75-12.73438-5.04102-12.73438-9.98047,0-5.5752,6.72852-10.11133,15-10.11133s15,4.53613,15,10.11133c0,4.93945-5.47461,9.23047-12.73438,9.98047-.26367.02734-.50586.1582-.67383.36426Z"/>
  <circle cx="41" cy="52" r="1"/>
</svg>