<?xml version="1.0" encoding="UTF-8"?>
<svg id="Outline" xmlns="http://www.w3.org/2000/svg" version="1.1" viewBox="0 0 64 64">
  <!-- Generator: Adobe Illustrator 29.5.1, SVG Export Plug-In . SVG Version: 2.1.0 Build 141)  -->
  <path d="M56,18c.55,0,1-.45,1-1v-6c0-.3-.14-.59-.38-.78s-.55-.26-.85-.19l-3.45.8c-6.12,1.4-12.45,1.13-18.35-.73-6.51-2.05-13.44-2.26-20.05-.61l-.92.23v-1.72c0-.55-.45-1-1-1h-4c-.55,0-1,.45-1,1v48c0,.55.45,1,1,1h4c.55,0,1-.45,1-1v-10.22l1.4-.35c6.16-1.55,12.86-1.36,18.97.57,3.61,1.14,7.36,1.72,11.11,1.72,2.78,0,5.56-.32,8.29-.95l3.46-.8c.45-.1.77-.5.77-.97v-24c0-.55-.45-1-1-1s-1,.45-1,1v6.2l-2.68.63c-1.44.33-2.9.56-4.35.71.01-.18.03-.36.03-.54,0-7.72-6.28-14-14-14-6.87,0-12.58,4.97-13.76,11.5-2.13.15-4.26.47-6.32.99l-.92.23v-14.94l1.4-.35c6.26-1.56,12.81-1.36,18.97.57,6.24,1.98,12.92,2.26,19.4.77l2.23-.51v4.74c0,.55.45,1,1,1ZM34,16c6.62,0,12,5.38,12,12s-5.38,12-12,12-12-5.38-12-12,5.38-12,12-12ZM14.4,28.43c1.84-.46,3.73-.76,5.62-.91,0,.16-.02.32-.02.48,0,7.72,6.28,14,14,14,6.84,0,12.55-4.94,13.75-11.44,1.67-.14,3.35-.4,5.02-.79l2.23-.51v14.95l-2.68.62c-6.07,1.39-12.42,1.14-18.35-.73-6.46-2.05-13.54-2.25-20.05-.61l-.92.23v-4.72c0-.55-.45-1-1-1s-1,.45-1,1v16h-2V9h2v26c0,.55.45,1,1,1s1-.45,1-1v-6.22l1.4-.35Z"/>
  <path d="M33,29.91v3.09h-2c-.553,0-1,.447-1,1s.447,1,1,1h2v2c0,.553.447,1,1,1s1-.447,1-1v-2h2c.553,0,1-.447,1-1s-.447-1-1-1h-2v-3.09c2.833-.478,5-2.942,5-5.91,0-3.309-2.691-6-6-6s-6,2.691-6,6c0,2.967,2.167,5.431,5,5.91ZM34,20c2.206,0,4,1.794,4,4s-1.794,4-4,4-4-1.794-4-4,1.794-4,4-4Z"/>
</svg>