<?xml version="1.0" encoding="UTF-8"?>
<svg id="Outline" xmlns="http://www.w3.org/2000/svg" version="1.1" viewBox="0 0 64 64">
  <!-- Generator: Adobe Illustrator 29.5.1, SVG Export Plug-In . SVG Version: 2.1.0 Build 141)  -->
  <path d="M46,45h-11.184c-.414-1.161-1.514-2-2.816-2s-2.402.839-2.816,2h-11.184c-.552,0-1,.447-1,1s.448,1,1,1h11.184c.414,1.161,1.514,2,2.816,2s2.402-.839,2.816-2h11.184c.552,0,1-.447,1-1s-.448-1-1-1ZM32,47c-.551,0-1-.448-1-1s.449-1,1-1,1,.448,1,1-.449,1-1,1Z"/>
  <path d="M46,53h-18.184c-.414-1.161-1.514-2-2.816-2s-2.402.839-2.816,2h-4.184c-.552,0-1,.447-1,1s.448,1,1,1h4.184c.414,1.161,1.514,2,2.816,2s2.402-.839,2.816-2h18.184c.552,0,1-.447,1-1s-.448-1-1-1ZM25,55c-.551,0-1-.448-1-1s.449-1,1-1,1,.448,1,1-.449,1-1,1Z"/>
  <path d="M18,39h18.184c.414,1.161,1.514,2,2.816,2s2.402-.839,2.816-2h4.184c.552,0,1-.447,1-1s-.448-1-1-1h-4.184c-.414-1.161-1.514-2-2.816-2s-2.402.839-2.816,2h-18.184c-.552,0-1,.447-1,1s.448,1,1,1ZM39,37c.551,0,1,.448,1,1s-.449,1-1,1-1-.448-1-1,.449-1,1-1Z"/>
  <path d="M45,7h-26c-.55,0-1,.45-1,1v6c0,.55.45,1,1,1h1.42l7.58,13.27v5.73c0,.547.456,1,1,1,.11,0,.21-.02.32-.05l6-2c.4-.14.68-.52.68-.95v-3.73l7.58-13.27h1.42c.55,0,1-.45,1-1v-6c0-.55-.45-1-1-1ZM34,31.28l-4,1.33v-3.61h4v2.28ZM34.42,27h-4.84l-6.86-12h18.56l-6.86,12ZM44,13h-24v-4h24v4Z"/>
  <path d="M29.293,22.707l2,2c.195.195.451.293.707.293s.512-.098.707-.293l2-2c.391-.391.391-1.023,0-1.414s-1.023-.391-1.414,0l-.293.293v-3.586c0-.553-.448-1-1-1s-1,.447-1,1v3.586l-.293-.293c-.391-.391-1.023-.391-1.414,0s-.391,1.023,0,1.414Z"/>
</svg>