<?xml version="1.0" encoding="UTF-8"?>
<svg id="Outline" xmlns="http://www.w3.org/2000/svg" version="1.1" viewBox="0 0 64 64">
  <!-- Generator: Adobe Illustrator 29.5.1, SVG Export Plug-In . SVG Version: 2.1.0 Build 141)  -->
  <path d="M23.398,39.364c-.38.379-1.036.378-1.414,0-.189-.188-.293-.439-.293-.707s.104-.518.293-.707l1.414-1.415c.391-.391.391-1.024,0-1.414-.391-.391-1.023-.391-1.414,0l-1.414,1.414c-.566.567-.879,1.32-.879,2.122s.312,1.555.878,2.121c1.132,1.133,3.109,1.134,4.243,0,.391-.391,1.023-.39,1.414,0,.39.39.39,1.024,0,1.415l-1.414,1.414c-.391.391-.391,1.023,0,1.414.388.388,1.027.387,1.414,0l1.414-1.414c1.17-1.169,1.17-3.073,0-4.243-1.169-1.167-3.071-1.169-4.242,0Z"/>
  <path d="M30.469,30.878c-1.171-1.169-3.074-1.168-4.243,0-.566.566-.879,1.32-.879,2.122s.312,1.555.879,2.121c0,0,2.12,2.119,2.123,2.123l2.12,2.12c.37.37,1.019.395,1.414,0,.391-.391.391-1.023,0-1.414l-1.415-1.414,1.415-1.414,1.414,1.414c.391.391,1.023.391,1.414,0s.391-1.023,0-1.414l-4.242-4.243ZM29.055,35.121l-1.414-1.414c-.39-.39-.39-1.024,0-1.414.39-.39,1.023-.391,1.415,0l1.414,1.414-1.415,1.415Z"/>
  <path d="M38.955,29.464l-2.122,2.122-4.949-4.95c-.391-.391-1.023-.391-1.414,0s-.391,1.023,0,1.414l5.656,5.657c.195.195.451.293.707.293s.512-.098.707-.293l2.829-2.829c.391-.39.391-1.023,0-1.414s-1.023-.391-1.414,0Z"/>
  <path d="M44.611,23.808l-2.121,2.122-1.414-1.414,2.121-2.122c.391-.391.391-1.024,0-1.414-.391-.391-1.023-.391-1.414,0l-2.121,2.122-1.415-1.415,2.122-2.121c.391-.39.391-1.023,0-1.414s-1.023-.391-1.414,0l-2.829,2.828c-.188.188-.293.442-.293.707s.105.52.293.707l5.657,5.657c.188.188.441.293.707.293s.52-.105.707-.293l2.828-2.829c.391-.391.391-1.024,0-1.414-.391-.391-1.023-.391-1.414,0Z"/>
  <path d="M44.611,18.151c-.391.391-.391,1.024,0,1.414.391.391,1.024.391,1.414,0,.391-.391.391-1.024,0-1.414-.391-.391-1.024-.391-1.414,0Z"/>
  <path d="M55.962,13.192c-1.79-1.792-5.256-1.22-8.274,1.282-1.608-.867-3.587-.806-5.126.212l-1.485-1.485c-1.169-1.169-3.072-1.17-4.243,0l-1.541,1.541-.54-.54c-1.17-1.17-3.074-1.17-4.244,0L7.891,36.828c-.573.567-.89,1.32-.89,2.122s.316,1.555.886,2.116l9.896,9.896c.566.574,1.319.89,2.121.89s1.556-.316,2.117-.885l1.54-1.54.544.544c.566.567,1.32.879,2.121.879s1.556-.312,2.121-.879l22.628-22.627c.566-.567.879-1.32.879-2.122,0-.377-.075-.742-.207-1.083.764-.482,1.5-1.065,2.196-1.753,3.166-3.177,4.097-7.215,2.119-9.193ZM20.602,49.557c-.374.379-1.015.386-1.4-.005l-9.905-9.905c-.189-.188-.295-.436-.295-.698s.105-.511.3-.703L31.922,15.616c.391-.391,1.025-.391,1.416,0l.54.54-19.672,19.672c-.566.567-.879,1.32-.879,2.122s.312,1.555.879,2.121l7.941,7.941-1.545,1.545ZM49.561,25.929l-22.629,22.628c-.377.376-1.034.378-1.413,0l-9.899-9.9c-.189-.188-.293-.439-.293-.707s.104-.518.293-.707l22.627-22.627c.195-.195.451-.292.708-.292s.512.098.707.292l2.121,2.121c.391.391,1.023.391,1.414,0,1.169-1.168,3.072-1.17,4.243,0,1.169,1.17,1.169,3.073,0,4.243-.391.391-.391,1.023,0,1.414l2.064,2.065c.01.011.02.02.03.03l.027.027c.189.188.293.439.293.707s-.104.518-.293.707ZM50.421,22.547l-.931-.931c1.172-1.772,1.082-4.124-.24-5.82,2.215-1.714,4.44-2.045,5.298-1.189,1,1,.375,3.862-2.116,6.362-.628.621-1.313,1.156-2.01,1.578Z"/>
</svg>