<?xml version="1.0" encoding="UTF-8"?>
<svg id="Outline" xmlns="http://www.w3.org/2000/svg" version="1.1" viewBox="0 0 64 64">
  <!-- Generator: Adobe Illustrator 29.5.1, SVG Export Plug-In . SVG Version: 2.1.0 Build 141)  -->
  <path d="M20.707,44.707c2.123-2.124,3.293-4.947,3.293-7.95v-2.399c0-4.916,3.679-9.018,8.374-9.337,2.529-.168,4.921.683,6.763,2.405,1.819,1.7,2.863,4.096,2.863,6.574,0,3.191-.601,6.311-1.786,9.272l-.143.357c-.205.513.045,1.095.559,1.299.506.204,1.098-.054,1.299-.558l.143-.356c1.279-3.198,1.929-6.567,1.929-10.014,0-3.03-1.274-5.958-3.497-8.035-2.253-2.104-5.192-3.152-8.264-2.939-5.742.39-10.239,5.368-10.239,11.332v2.399c0,2.469-.961,4.79-2.707,6.536-.391.391-.391,1.023,0,1.414s1.023.391,1.414,0Z"/>
  <path d="M40,34c0-2.009-.867-3.924-2.378-5.255-1.51-1.329-3.527-1.941-5.535-1.687-3.47.443-6.087,3.516-6.087,7.148v.391c0,3.902-1.343,7.73-3.781,10.779-.345.431-.274,1.061.156,1.405.434.346,1.062.275,1.406-.156,2.721-3.401,4.219-7.673,4.219-12.028v-.391c0-2.628,1.866-4.848,4.341-5.164,1.462-.187,2.866.242,3.96,1.204,1.08.951,1.699,2.319,1.699,3.754v1.615c0,3.446-.648,6.815-1.929,10.013-.467,1.168,1.378,1.942,1.857.743,1.374-3.437,2.071-7.056,2.071-10.757v-1.615Z"/>
  <path d="M36,34c0-.882-.389-1.717-1.065-2.29-.677-.572-1.566-.812-2.442-.667-1.421.239-2.492,1.563-2.492,3.079v2.475c0,3.902-1.343,7.73-3.781,10.779-.345.431-.274,1.061.156,1.405.433.346,1.062.275,1.406-.156,2.721-3.401,4.219-7.673,4.219-12.028v-2.475c0-.543.362-1.029.824-1.106.397-.071.686.11.818.222.228.192.357.47.357.763v3.169c0,3.633-.988,7.201-2.857,10.316-.284.474-.131,1.088.343,1.372.452.271,1.085.136,1.372-.343,2.056-3.427,3.143-7.35,3.143-11.346v-3.169Z"/>
  <path d="M45,7h-26c-1.65,0-3,1.35-3,3v44c0,1.65,1.35,3,3,3h26c1.65,0,3-1.35,3-3V10c0-1.65-1.35-3-3-3ZM25,9h14v1c0,.55-.45,1-1,1h-12c-.55,0-1-.45-1-1v-1ZM29.18,55h-10.18c-.55,0-1-.45-1-1v-1.18c.31.11.65.18,1,.18h10.18c-.11.31-.18.65-.18,1s.07.69.18,1ZM32,55c-.55,0-1-.45-1-1s.45-1,1-1,1,.45,1,1-.45,1-1,1ZM46,54c0,.55-.45,1-1,1h-10.18c.11-.31.18-.65.18-1s-.07-.69-.18-1h10.18c.35,0,.69-.07,1-.18v1.18ZM46,50c0,.55-.45,1-1,1h-26c-.55,0-1-.45-1-1V10c0-.55.45-1,1-1h4v1c0,1.65,1.35,3,3,3h12c1.65,0,3-1.35,3-3v-1h4c.55,0,1,.45,1,1v40Z"/>
  <path d="M21,21h4c.553,0,1-.448,1-1v-4c0-.552-.447-1-1-1h-4c-.553,0-1,.448-1,1v4c0,.552.447,1,1,1ZM22,17h2v2h-2v-2Z"/>
  <path d="M30,21h4c.553,0,1-.448,1-1v-4c0-.552-.447-1-1-1h-4c-.553,0-1,.448-1,1v4c0,.552.447,1,1,1ZM31,17h2v2h-2v-2Z"/>
  <path d="M39,21h4c.553,0,1-.448,1-1v-4c0-.552-.447-1-1-1h-4c-.553,0-1,.448-1,1v4c0,.552.447,1,1,1ZM40,17h2v2h-2v-2Z"/>
</svg>