<?xml version="1.0" encoding="UTF-8"?>
<svg id="Outline" xmlns="http://www.w3.org/2000/svg" version="1.1" viewBox="0 0 64 64">
  <!-- Generator: Adobe Illustrator 29.5.1, SVG Export Plug-In . SVG Version: 2.1.0 Build 141)  -->
  <path d="M42.648,20.09c-.63-.39-.89-1.12-.65-1.79.04-.11.06-.23.06-.35,0-.42-.26-.8-.66-.94l-3.76-1.37c-.25-.09-.52-.08-.76.03-.24.12-.43.32-.52.57-.22.59-.76.99-1.36.99v-4.23h3c.55,0,1-.45,1-1v-4c0-.55-.45-1-1-1h-12c-.55,0-1,.45-1,1v4c0,.55.45,1,1,1h3v4.2c-.59,0-1.14-.37-1.36-.96-.09-.25-.28-.45-.52-.57-.24-.11-.51-.12-.76-.03l-3.76,1.37c-.4.14-.66.53-.66.95,0,.12.02.23.06.34.24.67-.02,1.4-.65,1.79-6.54,4.13-10.07,11.47-9.22,19.17.44,4,2.1,7.77,4.81,10.88.36.41.99.46,1.41.1.41-.37.46-1,.09-1.42-2.43-2.8-3.93-6.18-4.33-9.78-.76-6.93,2.42-13.54,8.3-17.25,1.14-.71,1.75-1.94,1.68-3.19l2.15-.79c.74,1.01,1.99,1.57,3.26,1.38,1.7-.26,3.31-.25,4.99,0,1.27.2,2.53-.36,3.27-1.38l2.15.79c-.07,1.25.54,2.48,1.68,3.19,5.26,3.33,8.41,9.01,8.41,15.21,0,5.11-2.19,10-6,13.42-3.86,3.46-8.86,5.04-14.06,4.47-3.15-.35-6.16-1.56-8.72-3.48-.44-.33-1.07-.24-1.4.2s-.24,1.07.2,1.4c2.84,2.14,6.19,3.47,9.7,3.86.78.09,1.55.13,2.31.13,4.93,0,9.59-1.77,13.3-5.09,4.24-3.8,6.67-9.23,6.67-14.91,0-6.89-3.49-13.21-9.35-16.91ZM32.997,17.04c-.67-.04-1.33-.04-2,0v-4.04h2v4.04ZM26.997,11v-2h10v2h-10Z"/>
  <path d="M42.412,26.164c.356-.423.302-1.054-.12-1.409-2.874-2.422-6.529-3.755-10.294-3.755-8.822,0-16,7.178-16,16s7.178,16,16,16,16-7.178,16-16c0-3.276-.982-6.417-2.84-9.082-.315-.452-.938-.562-1.392-.248-.453.315-.564.939-.249,1.393,1.623,2.327,2.48,5.072,2.48,7.938,0,7.72-6.28,14-14,14s-14-6.28-14-14,6.28-14,14-14c3.294,0,6.492,1.166,9.005,3.284.423.355,1.054.302,1.409-.12Z"/>
  <path d="M38.484,29.186c-.801.034-1.54.379-2.081.97l-7.531,8.216-1.371-1.371c-1.17-1.168-3.073-1.167-4.242,0-.567.566-.879,1.32-.879,2.121s.312,1.556.879,2.121l2.109,2.109c.947.947,2.197,1.465,3.532,1.465.038,0,.075,0,.112,0,1.376-.03,2.647-.605,3.577-1.62l8.237-8.986c1.117-1.219,1.035-3.12-.185-4.239-.59-.541-1.357-.815-2.157-.785ZM39.351,32.858l-8.237,8.986c-.558.608-1.32.954-2.146.972-.85.029-1.603-.294-2.187-.878l-2.109-2.11c-.371-.371-.391-1.02,0-1.413.369-.37,1.042-.371,1.414,0l2.109,2.108c.192.192.458.284.729.293.272-.006.531-.123.715-.324l8.237-8.985c.37-.404,1.012-.426,1.412-.061.388.354.416,1.025.061,1.412Z"/>
</svg>