<?xml version="1.0" encoding="UTF-8"?>
<svg id="Outline" xmlns="http://www.w3.org/2000/svg" version="1.1" viewBox="0 0 64 64">
  <!-- Generator: Adobe Illustrator 29.5.1, SVG Export Plug-In . SVG Version: 2.1.0 Build 141)  -->
  <path d="M48,43h-.08c-.34-2.37-1.87-4.35-3.96-5.33.64-.71,1.04-1.64,1.04-2.67,0-2.21-1.79-4-4-4s-4,1.79-4,4c0,1.03.4,1.96,1.04,2.67-2.09.98-3.62,2.96-3.96,5.33h-4.16c-.21-1.5-.89-2.87-1.97-3.94-.58-.59-1.26-1.06-1.99-1.4.64-.71,1.04-1.63,1.04-2.66,0-2.21-1.79-4-4-4s-4,1.79-4,4c0,1.03.4,1.95,1.04,2.66-.73.34-1.4.8-1.98,1.39-1.09,1.08-1.77,2.45-1.98,3.95h-.08c-1.65,0-3,1.35-3,3v4c0,.55.45,1,1,1h2v5c0,.55.45,1,1,1h4c.55,0,1-.45,1-1v-5h10c.55,0,1-.45,1-1s-.45-1-1-1H15v-3c0-.55.45-1,1-1h5c.55,0,1-.45,1-1s-.45-1-1-1h-2.9c.19-.96.66-1.83,1.37-2.54.94-.94,2.19-1.46,3.53-1.46s2.59.52,3.54,1.47c.7.7,1.17,1.57,1.36,2.53h-2.9c-.55,0-1,.45-1,1s.45,1,1,1h23c.55,0,1,.45,1,1v3h-13c-.55,0-1,.45-1,1s.45,1,1,1h6v5c0,.55.45,1,1,1h4c.55,0,1-.45,1-1v-5h2c.55,0,1-.45,1-1v-4c0-1.65-1.35-3-3-3ZM18,51h2v4h-2v-4ZM23,37c-1.1,0-2-.9-2-2s.9-2,2-2,2,.9,2,2-.9,2-2,2ZM41,33c1.1,0,2,.9,2,2s-.9,2-2,2-2-.9-2-2,.9-2,2-2ZM36.1,43c.46-2.28,2.49-4,4.9-4s4.44,1.72,4.9,4h-9.8ZM46,55h-2v-4h2v4Z"/>
  <path d="M18.515,16.143c-.475-.285-1.088-.132-1.372.343-.284.474-.131,1.088.343,1.372,2.926,1.756,4.926,4.693,5.487,8.06l.042.248c.209,1.248,2.187.951,1.973-.33l-.042-.247c-.657-3.945-3.001-7.388-6.43-9.445Z"/>
  <path d="M18,14c.552,0,1-.447,1-1v-2c0-.553-.448-1-1-1s-1,.447-1,1v2c0,.553.448,1,1,1Z"/>
  <path d="M14.464,14.879c.368.368,1.019.395,1.414,0,.391-.391.391-1.023,0-1.414l-1.414-1.414c-.391-.391-1.023-.391-1.414,0s-.391,1.023,0,1.414c0,0,1.411,1.411,1.414,1.414Z"/>
  <path d="M15,17c0-.553-.448-1-1-1h-2c-.552,0-1,.447-1,1s.448,1,1,1h2c.552,0,1-.447,1-1Z"/>
  <path d="M13.757,22.232c.256,0,.515-.09.707-.282l1.414-1.414c.391-.391.391-1.023,0-1.414s-1.023-.391-1.414,0l-1.414,1.414c-.615.615-.153,1.694.707,1.696Z"/>
  <path d="M18,24c.552,0,1-.447,1-1v-2c0-.553-.448-1-1-1s-1,.447-1,1v2c0,.553.448,1,1,1Z"/>
  <path d="M20.829,15.172c.256,0,.512-.098.707-.293l1.414-1.414c.391-.391.391-1.023,0-1.414s-1.023-.391-1.414,0l-1.414,1.414c-.609.609-.153,1.707.707,1.707Z"/>
  <path d="M46.857,16.485c-.285-.474-.899-.627-1.372-.343-3.429,2.058-5.773,5.5-6.43,9.444l-.042.248c-.091.545.276,1.061.822,1.151.539.094,1.061-.283,1.151-.821l.042-.249c.561-3.365,2.561-6.303,5.487-8.059.474-.284.627-.898.343-1.372Z"/>
  <path d="M46,14c.552,0,1-.447,1-1v-2c0-.553-.448-1-1-1s-1,.447-1,1v2c0,.553.448,1,1,1Z"/>
  <path d="M48.829,15.17c.256,0,.513-.097.707-.291l1.414-1.414c.391-.391.391-1.023,0-1.414s-1.023-.391-1.414,0l-1.414,1.414c-.618.618-.162,1.705.707,1.705Z"/>
  <path d="M52,16h-2c-.552,0-1,.447-1,1s.448,1,1,1h2c.552,0,1-.447,1-1s-.448-1-1-1Z"/>
  <path d="M49.536,19.121c-.391-.391-1.023-.391-1.414,0s-.391,1.023,0,1.414l1.414,1.414c.359.359,1.029.385,1.414,0,.391-.391.391-1.023,0-1.414l-1.414-1.414Z"/>
  <path d="M46,24c.552,0,1-.447,1-1v-2c0-.553-.448-1-1-1s-1,.447-1,1v2c0,.553.448,1,1,1Z"/>
  <path d="M42.464,14.879c.388.388,1.028.386,1.414,0,.391-.391.391-1.023,0-1.414l-1.414-1.414c-.391-.391-1.023-.391-1.414,0s-.391,1.023,0,1.414c0,0,1.414,1.414,1.414,1.414Z"/>
  <path d="M27.044,23c.785,0,1.265-.903.831-1.555-1.035-1.553-1.16-3.554-.325-5.223l.775-1.551c1.154-2.309.982-5.078-.45-7.227-.307-.459-.928-.584-1.387-.277-.459.307-.583.927-.277,1.387,1.035,1.553,1.16,3.554.325,5.223l-.775,1.551c-1.154,2.309-.982,5.078.45,7.227.193.289.509.445.833.445Z"/>
  <path d="M29.761,23.328c-1.154,2.309-.982,5.078.45,7.227.193.289.509.445.832.445.785,0,1.264-.905.832-1.555-1.035-1.553-1.16-3.554-.325-5.223l.775-1.551c1.154-2.309.982-5.078-.45-7.227-.307-.46-.928-.584-1.387-.277-.459.307-.583.927-.277,1.387,1.035,1.553,1.16,3.554.325,5.223l-.775,1.551Z"/>
  <path d="M37.044,22.997c.785.003,1.264-.902.831-1.552-1.035-1.553-1.16-3.554-.325-5.223l.775-1.551c1.154-2.309.982-5.078-.45-7.227-.307-.459-.927-.584-1.387-.277s-.583.927-.277,1.387c1.035,1.553,1.16,3.554.325,5.223l-.775,1.551c-1.154,2.309-.982,5.078.45,7.226.19.286.509.441.833.443Z"/>
</svg>