<?xml version="1.0" encoding="UTF-8"?>
<svg id="Outline" xmlns="http://www.w3.org/2000/svg" version="1.1" viewBox="0 0 64 64">
  <!-- Generator: Adobe Illustrator 29.5.1, SVG Export Plug-In . SVG Version: 2.1.0 Build 141)  -->
  <path d="M56.049,43.413l-13.359-4.186c-.254-.079-.527-.057-.763.068-.234.122-.411.334-.49.587l-.973,3.108-5.605-1.682c-.242-2.619-.774-5.215-1.612-7.728l-.895-2.683c-.163-.491-.292-.987-.431-1.482l4.945,1.484-.82,2.618c-.079.253-.055.527.068.763.122.234.334.411.587.49l13.359,4.185c.1.031.2.046.299.046.426,0,.82-.273.954-.701l2.392-7.634c.165-.527-.128-1.088-.655-1.253l-13.359-4.186c-.254-.079-.528-.056-.763.068-.234.122-.411.334-.49.587l-.973,3.108-5.887-1.767c-.066-.02-.131-.012-.197-.018-.743-3.559-.891-7.188-.423-10.78l4.909,1.473-.82,2.618c-.079.253-.055.527.068.763.122.234.334.411.587.49l13.359,4.185c.1.031.2.046.299.046.426,0,.82-.273.954-.701l2.392-7.634c.165-.527-.128-1.088-.655-1.253l-13.359-4.186c-.254-.08-.528-.056-.763.068-.234.122-.411.334-.49.587l-.973,3.108-5.177-1.554c.223-1.151.486-2.298.835-3.432l.834-2.71c.162-.527-.134-1.087-.662-1.25s-1.087.136-1.25.662l-.834,2.71c-.391,1.271-.682,2.557-.924,3.848l-5.748,1.725-.973-3.108c-.079-.253-.256-.465-.491-.587-.233-.123-.508-.146-.762-.068l-13.36,4.19c-.527.165-.82.727-.655,1.253l2.39,7.63c.079.254.257.466.493.589.238.123.512.146.766.064l.25-.08c.526-.168.816-.731.647-1.257-.078-.246-.243-.44-.45-.561l-1.889-6.029,7.633-2.394,1.793,5.722-.709.223c-.526.165-.819.727-.654,1.254.165.525.725.82,1.254.654l5.48-1.721c.526-.165.819-.727.654-1.253l-.818-2.613,4.808-1.443c-.449,3.691-.292,7.416.463,11.073l-4.87,1.462-.973-3.108c-.079-.253-.256-.465-.49-.587-.234-.123-.509-.146-.763-.068l-13.359,4.186c-.527.165-.82.726-.655,1.253l2.392,7.634c.134.428.528.701.954.701.099,0,.199-.015.299-.046l13.359-4.185c.253-.079.465-.256.587-.49.123-.235.147-.51.068-.763l-.82-2.618,4.725-1.418c.183.686.371,1.371.597,2.049l.895,2.683c.778,2.336,1.259,4.751,1.492,7.185l-5.306,1.592-.973-3.108c-.079-.253-.256-.465-.49-.587-.234-.124-.51-.146-.763-.068l-13.359,4.186c-.527.165-.82.726-.655,1.253l2.392,7.634c.134.428.528.701.954.701.099,0,.199-.015.299-.046l13.359-4.185c.253-.079.465-.256.587-.49.123-.235.147-.51.068-.763l-.82-2.618,4.836-1.451c.135,4.136-.484,8.292-1.909,12.211-.189.52.079,1.093.598,1.281.513.185,1.094-.083,1.281-.598,1.506-4.142,2.191-8.534,2.056-12.905l4.87,1.462-.82,2.618c-.079.253-.055.527.068.763.122.234.334.411.587.49l13.359,4.185c.1.031.2.046.299.046.426,0,.82-.273.954-.701l2.392-7.634c.165-.527-.128-1.088-.655-1.253ZM49.704,36.748l-7.634-2.391,1.794-5.726,7.634,2.392-1.794,5.726ZM40.046,27.435l1.909.598-1.794,5.726-1.909-.598,1.794-5.727ZM48.704,23.748l-7.634-2.391,1.794-5.726,7.634,2.392-1.794,5.726ZM39.046,14.435l1.909.598-1.794,5.726-1.909-.598,1.794-5.727ZM20.836,20.756l-1.793-5.722,1.911-.599,1.792,5.722-1.91.599ZM10.501,31.023l7.634-2.392,1.794,5.726-7.634,2.391-1.794-5.726ZM21.837,33.759l-1.794-5.726,1.909-.598,1.794,5.727-1.909.598ZM13.501,45.023l7.634-2.392,1.794,5.726-7.634,2.391-1.794-5.726ZM24.837,47.759l-1.794-5.726,1.909-.598,1.794,5.727-1.909.598ZM43.046,41.435l1.909.598-1.794,5.726-1.909-.598,1.794-5.727ZM52.704,50.748l-7.634-2.391,1.794-5.726,7.634,2.392-1.794,5.726Z"/>
  <circle cx="14.703" cy="23.705" r="1"/>
</svg>