<?xml version="1.0" encoding="UTF-8"?>
<svg id="Outline" xmlns="http://www.w3.org/2000/svg" version="1.1" viewBox="0 0 64 64">
  <!-- Generator: Adobe Illustrator 29.5.1, SVG Export Plug-In . SVG Version: 2.1.0 Build 141)  -->
  <path d="M54,25h2c.552,0,1-.448,1-1s-.448-1-1-1h-2c-.552,0-1,.448-1,1s.448,1,1,1Z"/>
  <path d="M43,24c0-1.654-1.346-3-3-3s-3,1.346-3,3,1.346,3,3,3,3-1.346,3-3ZM39,24c0-.551.449-1,1-1s1,.449,1,1-.449,1-1,1-1-.449-1-1Z"/>
  <path d="M40,19c.552,0,1-.448,1-1v-4c0-.552-.448-1-1-1s-1,.448-1,1v4c0,.552.448,1,1,1Z"/>
  <path d="M40,11c.552,0,1-.448,1-1v-2c0-.552-.448-1-1-1s-1,.448-1,1v2c0,.552.448,1,1,1Z"/>
  <path d="M35.05,20.464c.371.371,1.017.397,1.414,0,.391-.391.391-1.023,0-1.414l-2.829-2.829c-.391-.391-1.023-.391-1.414,0s-.391,1.023,0,1.414l2.829,2.829Z"/>
  <path d="M29.394,14.808c.387.387,1.027.387,1.414,0,.391-.391.391-1.023,0-1.414l-1.414-1.414c-.391-.391-1.023-.391-1.414,0s-.391,1.023,0,1.414c0,0,1.414,1.414,1.414,1.414Z"/>
  <path d="M30,23c-.552,0-1,.448-1,1s.448,1,1,1h4c.552,0,1-.448,1-1s-.448-1-1-1h-4Z"/>
  <path d="M24,23c-.552,0-1,.448-1,1s.448,1,1,1h2c.552,0,1-.448,1-1s-.448-1-1-1h-2Z"/>
  <path d="M29.202,37.544c-.505-.223-1.095.007-1.318.513-.708,1.61-1.285,3.258-1.734,4.936-1.123-3.42-3.318-6.447-6.332-8.569-.451-.317-1.076-.209-1.394.242-.318.452-.209,1.075.242,1.394,3.965,2.792,6.333,7.354,6.333,12.204v7.736c0,.552.448,1,1,1s1-.448,1-1v-4.2c0-4.488.914-8.841,2.715-12.938.222-.505-.007-1.095-.513-1.318Z"/>
  <path d="M35.053,27.533c-1.098,1.098-2.108,2.257-3.002,3.446-.332.441-.243,1.068.198,1.4.438.329,1.071.239,1.4-.198.838-1.114,1.786-2.202,2.817-3.234.391-.391.391-1.023,0-1.414s-1.023-.391-1.414,0Z"/>
  <path d="M41,30c0-.552-.448-1-1-1s-1,.448-1,1v4c0,.552.448,1,1,1s1-.448,1-1v-4Z"/>
  <path d="M40,37c-.552,0-1,.448-1,1v2c0,.552.448,1,1,1s1-.448,1-1v-2c0-.552-.448-1-1-1Z"/>
  <path d="M46.364,31.778c.371.371,1.02.394,1.414,0,.391-.391.391-1.023,0-1.414l-2.829-2.829c-.391-.391-1.023-.391-1.414,0s-.391,1.023,0,1.414l2.829,2.829Z"/>
  <path d="M50.606,36.021c.195.195.451.293.707.293s.512-.098.707-.293c.391-.391.391-1.023,0-1.414l-1.414-1.414c-.391-.391-1.023-.391-1.414,0s-.391,1.023,0,1.414l1.414,1.414Z"/>
  <path d="M51,24c0-.552-.448-1-1-1h-4c-.552,0-1,.448-1,1s.448,1,1,1h4c.552,0,1-.448,1-1Z"/>
  <path d="M44.243,20.752c.255,0,.512-.092.707-.287l2.829-2.829c.391-.391.391-1.023,0-1.414s-1.023-.391-1.414,0l-2.829,2.829c-.619.619-.159,1.699.707,1.701Z"/>
  <path d="M49.899,15.101c.256,0,.512-.098.707-.293l1.414-1.414c.391-.391.391-1.023,0-1.414s-1.023-.391-1.414,0l-1.414,1.414c-.391.391-.391,1.023,0,1.414.195.195.451.293.707.293Z"/>
  <path d="M21,11c.552,0,1-.448,1-1v-2c0-.552-.448-1-1-1s-1,.448-1,1v2c0,.552.448,1,1,1Z"/>
  <path d="M17,13h2c.552,0,1-.448,1-1s-.448-1-1-1h-2c-.552,0-1,.448-1,1s.448,1,1,1Z"/>
  <path d="M22,16v-2c0-.552-.448-1-1-1s-1,.448-1,1v2c0,.552.448,1,1,1s1-.448,1-1Z"/>
  <path d="M23,13h2c.552,0,1-.448,1-1s-.448-1-1-1h-2c-.552,0-1,.448-1,1s.448,1,1,1Z"/>
  <path d="M12,15c.552,0,1-.448,1-1v-2c0-.552-.448-1-1-1s-1,.448-1,1v2c0,.552.448,1,1,1Z"/>
  <path d="M8,17h2c.552,0,1-.448,1-1s-.448-1-1-1h-2c-.552,0-1,.448-1,1s.448,1,1,1Z"/>
  <path d="M12,17c-.552,0-1,.448-1,1v2c0,.552.448,1,1,1s1-.448,1-1v-2c0-.552-.448-1-1-1Z"/>
  <path d="M14,17h2c.552,0,1-.448,1-1s-.448-1-1-1h-2c-.552,0-1,.448-1,1s.448,1,1,1Z"/>
  <path d="M56.136,42.009c-1.628-.224-2.922-1.517-3.146-3.146-.068-.495-.491-.864-.991-.864s-.923.369-.991.864c-.224,1.628-1.517,2.922-3.146,3.146-.495.068-.864.491-.864.991s.369.923.864.991c1.628.224,2.922,1.517,3.146,3.146.068.495.491.864.991.864s.923-.369.991-.864c.224-1.628,1.517-2.922,3.146-3.146.495-.068.864-.491.864-.991s-.369-.923-.864-.991ZM52,44.362c-.374-.527-.835-.988-1.362-1.362.527-.374.988-.835,1.362-1.362.374.527.835.988,1.362,1.362-.527.374-.988.835-1.362,1.362Z"/>
  <path d="M48.136,46.009c-1.628-.224-2.922-1.517-3.146-3.146-.068-.495-.491-.864-.991-.864s-.923.369-.991.864c-.224,1.628-1.517,2.922-3.146,3.146-.495.068-.864.491-.864.991s.369.923.864.991c1.628.224,2.922,1.517,3.146,3.146.068.495.491.864.991.864s.923-.369.991-.864c.224-1.628,1.517-2.922,3.146-3.146.495-.068.864-.491.864-.991s-.369-.923-.864-.991ZM44,48.362c-.374-.527-.835-.988-1.362-1.362.527-.374.988-.835,1.362-1.362.374.527.835.988,1.362,1.362-.527.374-.988.835-1.362,1.362Z"/>
  <path d="M15,28c-1.654,0-3,1.346-3,3s1.346,3,3,3,3-1.346,3-3-1.346-3-3-3ZM15,32c-.551,0-1-.449-1-1s.449-1,1-1,1,.449,1,1-.449,1-1,1Z"/>
  <path d="M14,23v2c0,.552.448,1,1,1s1-.448,1-1v-2c0-.552-.448-1-1-1s-1,.448-1,1Z"/>
  <path d="M10.05,24.636c-.391-.391-1.023-.391-1.414,0s-.391,1.023,0,1.414l1.414,1.414c.37.37,1.018.396,1.414,0,.391-.391.391-1.023,0-1.414l-1.414-1.414Z"/>
  <path d="M10,31c0-.552-.448-1-1-1h-1c-.552,0-1,.448-1,1s.448,1,1,1h1c.552,0,1-.448,1-1Z"/>
  <path d="M10.05,34.536l-1.414,1.414c-.391.391-.391,1.023,0,1.414.383.383,1.035.38,1.414,0l1.414-1.414c.391-.391.391-1.023,0-1.414s-1.023-.391-1.414,0Z"/>
  <path d="M15,36c-.552,0-1,.448-1,1v2c0,.552.448,1,1,1s1-.448,1-1v-2c0-.552-.448-1-1-1Z"/>
  <path d="M21,32h2c.552,0,1-.448,1-1s-.448-1-1-1h-2c-.552,0-1,.448-1,1s.448,1,1,1Z"/>
  <path d="M18.536,26.05c-.62.62-.16,1.698.707,1.701.255,0,.512-.092.707-.287l1.414-1.414c.391-.391.391-1.023,0-1.414s-1.023-.391-1.414,0c0,0-1.409,1.409-1.414,1.414Z"/>
  <circle cx="30.611" cy="34.899" r="1"/>
</svg>