<?xml version="1.0" encoding="UTF-8"?>
<svg id="Outline" xmlns="http://www.w3.org/2000/svg" version="1.1" viewBox="0 0 64 64">
  <!-- Generator: Adobe Illustrator 29.5.1, SVG Export Plug-In . SVG Version: 2.1.0 Build 141)  -->
  <path d="M11,12v30c0,.552.447,1,1,1h40c.553,0,1-.448,1-1V12c0-.552-.447-1-1-1H12c-.553,0-1,.448-1,1ZM24.503,21.738c1.989,3.197,1.977,7.336-.032,10.512-2.869-.986-4.648-2.875-4.648-5.25s1.791-4.279,4.68-5.262ZM43.662,27c.577-.593,1.064-1.27,1.453-2h5.884v4h-5.884c-.389-.73-.876-1.407-1.453-2ZM41.553,26.209c-.245.189-.388.481-.388.791s.143.601.388.791c1.299,1.006,2.184,2.486,2.498,4.112-1.823-.63-3.418-1.891-4.495-3.584-.194-.307-.528-.492-.906-.461-.363.022-.686.241-.842.571-1.068,2.261-2.907,4.572-8.443,4.572-1.021,0-1.984-.084-2.88-.238,1.978-3.552,1.99-7.957.032-11.528.887-.151,1.839-.234,2.848-.234,5.704,0,7.531,2.495,8.485,4.669.148.336.469.565.835.594.373.029.72-.145.92-.453l.059-.091c1.043-1.616,2.588-2.851,4.359-3.487-.336,1.573-1.208,2.998-2.47,3.976ZM18.142,29h-5.142v-4h5.142c-.202.633-.319,1.298-.319,2s.117,1.367.319,2ZM13,31h6.179c1.147,1.511,2.973,2.667,5.28,3.339.077.035.154.059.235.074,1.401.382,2.971.588,4.67.588,4.487,0,7.537-1.379,9.468-4.313,1.605,1.854,3.786,3.11,6.175,3.521.289.048.589-.031.814-.221s.355-.47.355-.765c0-.757-.106-1.502-.291-2.222h5.115v4H13v-4ZM51,23h-5.115c.185-.721.291-1.465.291-2.222,0-.323-.156-.626-.419-.814-.265-.188-.604-.236-.906-.132l-1.379.475c-1.755.604-3.334,1.682-4.562,3.095-1.881-2.995-4.958-4.401-9.547-4.401-1.674,0-3.223.202-4.608.573-.063.01-.121.03-.181.052-2.362.667-4.229,1.838-5.396,3.375h-6.179v-4h38v4ZM13,41v-4h38v4H13ZM51,13v4H13v-4h38Z"/>
  <path d="M54,7h-29c-.55,0-1,.45-1,1s.45,1,1,1h29c.55,0,1,.45,1,1v34c0,.55-.45,1-1,1H10c-.55,0-1-.45-1-1V10c0-.55.45-1,1-1h7c.55,0,1-.45,1-1s-.45-1-1-1h-7c-1.65,0-3,1.35-3,3v34c0,1.65,1.35,3,3,3h16v7c0,1.65,1.35,3,3,3h6c1.65,0,3-1.35,3-3v-7h16c1.65,0,3-1.35,3-3V10c0-1.65-1.35-3-3-3ZM36,54c0,.55-.45,1-1,1h-6c-.55,0-1-.45-1-1v-7h8v7Z"/>
  <circle cx="23" cy="26.5" r="1"/>
  <circle cx="21" cy="8" r="1"/>
</svg>