<?xml version="1.0" encoding="UTF-8"?>
<svg id="Outline" xmlns="http://www.w3.org/2000/svg" version="1.1" viewBox="0 0 64 64">
  <!-- Generator: Adobe Illustrator 29.5.1, SVG Export Plug-In . SVG Version: 2.1.0 Build 141)  -->
  <path d="M56.77002,35.37c-.19-.23999-.47003-.37-.77002-.37h-2.67999l-2.95001-14.42999c-.04999-.26001-.21002-.49005-.42999-.63-.22003-.15002-.48999-.20001-.75-.15002l-3.28998.66998c-.16003-.33997-.5-.57996-.90002-.57996h-4c-.54999,0-1,.44995-1,1v.13l-3.21002-1.02002c-.52997-.16998-1.07996.12-1.25.65002l-2.53998,7.97998v-7.73999c0-.55005-.45001-1-1-1h-4c-.54999,0-1,.44995-1,1v5.32001c-2.69-4.66003-7.15997-7.83002-7.42999-8.02002-.34003-.23999-.79999-.23999-1.14001,0-.39001.27002-9.42999,6.65997-9.42999,14.82001,0,.65997.07001,1.32996.19,2h-1.19c-.29999,0-.58002.13-.77002.37-.19.22998-.26996.52997-.20996.83002l3.67999,18.38995c.27997,1.40002,1.51001,2.41003,2.94,2.41003h36.71997c1.42999,0,2.66003-1.01001,2.94-2.41003l3.67999-18.38995c.06-.30005-.01996-.60004-.20996-.83002ZM48.60999,21.95001l2.67004,13.04999h-2.04004l-2.58997-12.65002,1.95996-.39996ZM46,29.14996l1.20001,5.85004h-1.20001v-5.85004ZM42,21.88h2v13.12h-2v-13.12ZM37.14001,22.20001l1.89996.59998-3.88,12.20001h-2.08997l4.07001-12.79999ZM40,26.39001v8.60999h-2.73999l2.73999-8.60999ZM29,21.88h2v13.12h-2v-13.12ZM19,20.25c1.03998.81,3.29999,2.72998,5.15997,5.26996-1.33997,1.43005-3.17999,2.23004-5.15997,2.23004s-3.82001-.79999-5.15997-2.23004c1.85999-2.53998,4.12-4.45996,5.15997-5.26996ZM12.72998,27.22998c1.67999,1.60999,3.89001,2.52002,6.27002,2.52002s4.59003-.91003,6.27002-2.52002c1.01001,1.75,1.72998,3.71002,1.72998,5.77002,0,.64996-.09998,1.32001-.23999,2h-15.52002c-.14001-.67999-.23999-1.35004-.23999-2,0-2.06.71997-4.02002,1.72998-5.77002ZM51.34003,54.20001c-.09003.45996-.5.79999-.98004.79999H13.64001c-.48004,0-.89001-.34003-.98004-.79999l-3.44-17.20001h45.56006l-3.44,17.20001Z"/>
  <path d="M12.10547,39.36621c-.18945.23145-.26562.53613-.20703.83008l2.40039,12c.09375.4668.50391.80371.98047.80371h33.44141c.47656,0,.88672-.33691.98047-.80371l2.40039-12c.05859-.29395-.01758-.59863-.20703-.83008-.19043-.23145-.47363-.36621-.77344-.36621H12.87891c-.2998,0-.58301.13477-.77344.36621ZM49.90137,41l-2,10h-31.80273l-2-10h35.80273Z"/>
  <circle cx="19" cy="24" r="1"/>
</svg>