<?xml version="1.0" encoding="UTF-8"?>
<svg id="Outline" xmlns="http://www.w3.org/2000/svg" version="1.1" viewBox="0 0 64 64">
  <!-- Generator: Adobe Illustrator 29.5.1, SVG Export Plug-In . SVG Version: 2.1.0 Build 141)  -->
  <path d="M51.083,15.863c-.357-.421-.988-.473-1.409-.116-.422.356-.474.987-.117,1.409,3.51,4.146,5.443,9.417,5.443,14.844,0,12.683-10.318,23-23,23s-23-10.317-23-23,10.318-23,23-23c5.428,0,10.699,1.933,14.844,5.442.421.355,1.052.306,1.41-.116.357-.422.305-1.053-.117-1.409-4.505-3.815-10.236-5.917-16.137-5.917-13.785,0-25,11.215-25,25s11.215,25,25,25,25-11.215,25-25c0-5.899-2.102-11.63-5.917-16.137Z"/>
  <path d="M19.989,45.436c-.345.432-.274,1.061.157,1.405,3.407,2.721,7.506,4.159,11.854,4.159,10.477,0,19-8.523,19-19s-8.523-19-19-19-19,8.523-19,19c0,4.349,1.438,8.448,4.159,11.854.345.432.974.503,1.405.157.432-.345.502-.974.157-1.405-2.435-3.048-3.721-6.716-3.721-10.606,0-9.374,7.626-17,17-17s17,7.626,17,17-7.626,17-17,17c-3.89,0-7.557-1.287-10.606-3.722-.431-.346-1.062-.274-1.405.157Z"/>
  <path d="M32,17c-6.07,0-11,7.63-11,17,0,3.89.86,7.69,2.43,10.7.15.29.43.49.76.53.32.05.64-.07.86-.31,1.72-1.86,4.25-2.92,6.95-2.92s5.23,1.06,6.95,2.92c.19.21.45.32.73.32.05,0,.09,0,.13-.01.33-.04.61-.24.76-.53,1.57-3.01,2.43-6.81,2.43-10.7,0-9.37-4.93-17-11-17ZM31,40.04c-2.37.2-4.6,1.09-6.36,2.53-.48-1.14-.85-2.39-1.12-3.68,1.65-1.62,4.4-2.66,7.48-2.85v4ZM31,34.04c-3.03.17-5.83,1.09-7.85,2.55-.09-.85-.15-1.71-.15-2.59,0-.19.01-.38.02-.58,1.53-1.9,4.56-3.16,7.98-3.38v4ZM31,28.05c-3.01.16-5.74,1.03-7.74,2.44.3-2.09.87-4.02,1.64-5.67,1.66-1.03,3.78-1.65,6.1-1.79v5.02ZM31,21.03c-1.48.08-2.9.34-4.2.75,1.21-1.44,2.64-2.39,4.2-2.68v1.93ZM33,19.1c1.56.29,2.99,1.24,4.2,2.68-1.3-.41-2.72-.67-4.2-.75v-1.93ZM33,23.03c2.32.14,4.44.76,6.1,1.79.77,1.65,1.34,3.58,1.64,5.67-2-1.41-4.73-2.28-7.74-2.44v-5.02ZM39.36,42.57c-1.76-1.44-3.99-2.33-6.36-2.53v-4c3.08.19,5.83,1.23,7.48,2.85-.27,1.29-.64,2.54-1.12,3.68ZM33,34.04v-4c3.42.22,6.45,1.48,7.98,3.38.01.2.02.39.02.58,0,.88-.06,1.74-.15,2.59-2.02-1.46-4.82-2.38-7.85-2.55Z"/>
</svg>