<?xml version="1.0" encoding="UTF-8"?>
<svg id="Outline" xmlns="http://www.w3.org/2000/svg" version="1.1" viewBox="0 0 64 64">
  <!-- Generator: Adobe Illustrator 29.5.1, SVG Export Plug-In . SVG Version: 2.1.0 Build 141)  -->
  <path d="M32,7c-13.785,0-25,11.215-25,25s11.215,25,25,25,25-11.215,25-25S45.785,7,32,7ZM32,55c-12.682,0-23-10.317-23-23s10.318-23,23-23,23,10.317,23,23-10.318,23-23,23Z"/>
  <path d="M48.16,26.742c-2.288-7.034-8.736-11.742-16.16-11.742-6.582,0-12.478,3.744-15.304,9.613-.814-.32-1.66-.567-2.534-.711-.29-.053-.586.033-.81.224-.224.19-.353.469-.353.763,0,2.284.82,4.487,2.251,6.234.026.038.052.074.083.108.226.268.464.526.718.77-.254.244-.493.502-.718.77-.031.034-.057.07-.083.108-1.432,1.747-2.251,3.95-2.251,6.234,0,.32.154.622.414.811.26.188.594.238.899.14l1.646-.542c.231-.076.447-.185.672-.274,2.79,5.956,8.713,9.754,15.369,9.754,7.424,0,13.872-4.708,16.16-11.742,1.787-1.471,2.84-3.277,2.84-5.258s-1.053-3.787-2.84-5.258ZM32,17c5.653,0,10.662,3.097,13.229,7.935-1.596-.739-3.458-1.289-5.5-1.61-.009-.01-.012-.022-.021-.032l-.465-.465c-2.468-2.469-5.751-3.828-9.243-3.828-.404,0-.769.243-.924.617-.155.373-.069.804.216,1.09l.615.615c.604.604,1.13,1.275,1.578,1.998-4.332.682-7.923,2.422-9.824,4.817-.903-1.057-1.979-1.946-3.167-2.649,2.491-5.182,7.696-8.488,13.505-8.488ZM33.642,23.074c-.329-.626-.698-1.226-1.121-1.788,1.378.319,2.668.917,3.829,1.735-.25-.007-.496-.021-.75-.021-.663,0-1.316.028-1.958.074ZM32,47c-5.884,0-11.118-3.364-13.573-8.635,1.183-.703,2.262-1.572,3.154-2.617.878,1.133,2.151,2.127,3.699,2.94.005.006.007.013.013.019l5,5c.195.195.451.293.707.293s.512-.098.707-.293c.588-.588,1.263-1.074,2.005-1.445l2.562-1.281c3.408-.083,6.495-.778,8.953-1.915-2.567,4.837-7.575,7.934-13.228,7.934ZM29.734,40.32c.815.195,1.659.356,2.532.468-.429.251-.844.522-1.229.834l-1.302-1.302ZM35.6,39c-6.102,0-11.581-2.286-13.028-5.437-.151-.329-.467-.551-.828-.58-.027-.002-.054-.003-.081-.003-.331,0-.643.164-.83.441l-.068.101c-1.292,1.914-3.221,3.369-5.432,4.097l-.201.066c.363-1.929,1.452-3.688,3.062-4.882.254-.188.405-.487.405-.804s-.15-.615-.405-.804c-1.651-1.224-2.754-3.044-3.088-5.029.587.174,1.156.398,1.7.669.005.002.008.007.013.009.002,0,.004,0,.005.001,1.631.815,3.044,2.047,4.069,3.588.198.298.537.458.896.444.357-.023.674-.234.833-.555,1.549-3.135,6.885-5.323,12.976-5.323,4.539,0,8.638,1.252,11.075,3.117.004.003.008.007.012.01,1.455,1.117,2.314,2.454,2.314,3.873,0,3.794-6.136,7-13.4,7Z"/>
  <path d="M41.933,26.736c-.51-.211-1.094.03-1.307.54-1.247,3.002-1.247,6.445,0,9.447.205.495.812.745,1.307.54.51-.212.752-.797.54-1.308-1.044-2.514-1.044-5.398,0-7.912.212-.511-.03-1.096-.54-1.308Z"/>
  <path d="M37.589,26.132c-.496-.244-1.096-.037-1.337.459-1.655,3.387-1.655,7.432,0,10.818.173.354.529.56.899.561.726,0,1.215-.791.898-1.439-1.387-2.837-1.387-6.224,0-9.061.243-.496.037-1.096-.459-1.338Z"/>
  <circle cx="46" cy="32" r="1"/>
</svg>