<?xml version="1.0" encoding="UTF-8"?>
<svg id="Outline" xmlns="http://www.w3.org/2000/svg" version="1.1" viewBox="0 0 48 48">
  <!-- Generator: Adobe Illustrator 29.5.1, SVG Export Plug-In . SVG Version: 2.1.0 Build 141)  -->
  <path d="M21.534,25.845l-2.973-.856-1.732-2.563c-.372-.55-1.285-.55-1.657,0l-1.732,2.563-2.973.856c-.319.092-.572.336-.675.652s-.042.662.163.924l1.902,2.439-.105,3.092c-.011.332.143.647.412.843.269.195.617.245.929.131l2.908-1.055,2.908,1.055c.111.041.226.06.341.06.537,0,1.019-.465,1-1.034l-.105-3.092,1.902-2.439c.204-.262.265-.608.163-.924s-.355-.56-.675-.652ZM18.343,28.917c-.144.185-.219.415-.211.648l.067,1.976-1.858-.674c-.11-.04-.226-.06-.341-.06s-.231.02-.341.06l-1.858.674.067-1.976c.008-.234-.067-.464-.211-.648l-1.216-1.559,1.9-.547c.226-.065.421-.207.552-.401l1.107-1.638,1.107,1.638c.131.194.327.336.552.401l1.9.547-1.216,1.559Z"/>
  <path d="M35.249,33.982c.526-.011,1.019-.449,1-1.03l-.105-3.092,1.902-2.439c.204-.262.265-.608.163-.924s-.355-.56-.675-.652l-2.973-.856-1.732-2.563c-.372-.55-1.285-.55-1.657,0l-1.732,2.563-2.973.856c-.319.092-.572.336-.675.652s-.042.662.163.924l1.902,2.439-.105,3.092c-.011.332.143.647.412.843.268.195.617.245.929.131l2.908-1.055,2.908,1.055c.112.041.227.058.341.056ZM34.199,31.541l-1.858-.674c-.11-.04-.226-.06-.341-.06s-.231.02-.341.06l-1.858.674.067-1.976c.008-.234-.067-.464-.211-.648l-1.216-1.559,1.9-.547c.226-.065.421-.207.552-.401l1.107-1.638,1.107,1.638c.131.194.327.336.552.401l1.9.547-1.216,1.559c-.144.185-.219.415-.211.648l.067,1.976Z"/>
  <path d="M28.549,22.981c.561-.007,1.019-.458,1-1.028l-.152-4.474,2.752-3.53c.204-.262.265-.608.163-.924s-.355-.56-.675-.652l-4.301-1.238-2.507-3.708c-.372-.55-1.285-.55-1.657,0l-2.507,3.708-4.301,1.238c-.319.092-.572.336-.675.652s-.042.662.163.924l2.752,3.53-.152,4.474c-.011.332.143.647.412.843.268.195.617.244.929.131l4.208-1.527,4.208,1.527c.104.038.221.056.341.055ZM27.499,20.541l-3.158-1.146c-.11-.04-.226-.06-.341-.06s-.231.02-.341.06l-3.158,1.146.114-3.358c.008-.234-.067-.464-.211-.648l-2.066-2.649,3.229-.929c.226-.065.421-.207.552-.401l1.881-2.784,1.881,2.784c.131.194.327.336.552.401l3.229.929-2.066,2.649c-.144.185-.219.415-.211.648l.114,3.358Z"/>
  <path d="M12.431,35.317l-1.645-.474-.958-1.417c-.372-.55-1.285-.55-1.657,0l-.958,1.417-1.645.474c-.319.092-.572.336-.674.652s-.042.662.163.924l1.052,1.349-.059,1.71c-.011.332.143.648.412.843.269.195.616.245.929.131l1.608-.583,1.608.583c.111.041.226.06.341.06.559,0,1.018-.478,1-1.034l-.059-1.71,1.052-1.349c.204-.262.265-.608.163-.924s-.355-.56-.674-.652ZM10.09,37.298c-.144.185-.219.415-.211.649l.021.594-.559-.203c-.11-.04-.226-.06-.341-.06s-.231.02-.341.06l-.559.203.021-.594c.008-.234-.067-.464-.211-.649l-.366-.468.572-.165c.225-.065.42-.207.552-.401l.333-.492.333.492c.131.194.327.336.552.401l.572.165-.366.468Z"/>
  <path d="M43.105,35.969c-.103-.316-.355-.56-.674-.652l-1.645-.474-.958-1.417c-.372-.55-1.285-.55-1.657,0l-.958,1.417-1.645.474c-.319.092-.572.336-.674.652s-.042.662.163.924l1.052,1.349-.059,1.71c-.011.332.143.648.412.843.268.195.616.245.929.131l1.608-.583,1.608.583c.111.041.227.06.341.06.558,0,1.018-.475,1-1.034l-.059-1.71,1.052-1.349c.204-.262.265-.608.163-.924ZM40.09,37.298c-.144.185-.219.415-.211.649l.021.594-.559-.203c-.11-.04-.226-.06-.341-.06s-.231.02-.341.06l-.559.203.021-.594c.008-.234-.067-.464-.211-.649l-.366-.468.572-.165c.225-.065.42-.207.552-.401l.333-.492.333.492c.131.194.327.336.552.401l.572.165-.366.468Z"/>
</svg>