<?xml version="1.0" encoding="UTF-8"?>
<svg id="Outline" xmlns="http://www.w3.org/2000/svg" version="1.1" viewBox="0 0 64 64">
  <!-- Generator: Adobe Illustrator 29.5.1, SVG Export Plug-In . SVG Version: 2.1.0 Build 141)  -->
  <path d="M33.61719,18.94336c.10734.03806.21956.05661.33178.05664.55125.00014,1.01328-.47625,1.00026-1.02441l-.04199-1.71436,1.04102-1.36182c.2002-.26074.25879-.60352.15723-.9165-.10156-.3125-.35059-.55518-.66602-.64941l-1.64355-.48975-.97266-1.41113c-.37305-.54199-1.27344-.54199-1.64648,0l-.97266,1.41113-1.64355.48975c-.31543.09424-.56445.33691-.66602.64941-.10156.31299-.04297.65576.15723.9165l1.04102,1.36182-.04199,1.71436c-.00781.32861.14648.64014.41211.8335s.61133.24414.91992.13428l1.61719-.57031,1.61719.57031ZM31.08594,16.57471l.01562-.6167c.00488-.22803-.06738-.45068-.20605-.63184l-.37402-.48975.59082-.17627c.21875-.06543.40918-.20312.53809-.39111l.34961-.50684.34961.50684c.12891.18799.31934.32568.53809.39111l.59082.17627-.37402.48975c-.13867.18115-.21094.40381-.20605.63184l.01562.6167-.58203-.20508c-.10742-.0376-.21973-.05664-.33203-.05664s-.22461.01904-.33203.05664l-.58203.20508Z"/>
  <path d="M46.10547,13.98291c-.10156-.3125-.35059-.55518-.66602-.64941l-1.64355-.48975-.97266-1.41113c-.37305-.54199-1.27344-.54199-1.64648,0l-.97266,1.41113-1.64355.48975c-.31543.09424-.56445.33691-.66602.64941-.10156.31299-.04297.65576.15723.9165l1.04102,1.36182-.04199,1.71436c-.00781.32861.14648.64014.41211.8335s.6123.24414.91992.13428l1.61719-.57031,1.61719.57031c.10739.03807.21966.05663.33193.05664.5559.00005,1.01331-.46855,1.0001-1.02441l-.04199-1.71436,1.04102-1.36182c.2002-.26074.25879-.60352.15723-.9165ZM43.10449,15.32617c-.13867.18115-.21094.40381-.20605.63184l.01562.6167-.58203-.20508c-.10742-.0376-.21973-.05664-.33203-.05664s-.22461.01904-.33203.05664l-.58203.20508.01562-.6167c.00488-.22803-.06738-.45068-.20605-.63184l-.37402-.48975.59082-.17627c.21875-.06543.40918-.20312.53809-.39111l.34961-.50684.34961.50684c.12891.18799.31934.32568.53809.39111l.59082.17627-.37402.48975Z"/>
  <path d="M19.46289,18.80908c.26562.19336.61133.24414.91992.13428l1.61719-.57031,1.61719.57031c.10731.03805.2195.0566.33169.05664.55445.00019,1.01347-.47234,1.00034-1.02441l-.04199-1.71436,1.04102-1.36182c.2002-.26074.25879-.60352.15723-.9165-.10156-.3125-.35059-.55518-.66602-.64941l-1.64355-.48975-.97266-1.41113c-.37305-.54199-1.27344-.54199-1.64648,0l-.97266,1.41113-1.64355.48975c-.31543.09424-.56445.33691-.66602.64941-.10156.31299-.04297.65576.15723.9165l1.04102,1.36182-.04199,1.71436c-.00781.32861.14648.64014.41211.8335ZM21.1123,14.66016c.21875-.06543.40918-.20312.53809-.39111l.34961-.50684.34961.50684c.12891.18799.31934.32568.53809.39111l.59082.17627-.37402.48975c-.13867.18115-.21094.40381-.20605.63184l.01562.6167-.58203-.20508c-.10742-.0376-.21973-.05664-.33203-.05664s-.22461.01904-.33203.05664l-.58203.20508.01562-.6167c.00488-.22803-.06738-.45068-.20605-.63184l-.37402-.48975.59082-.17627Z"/>
  <path d="M41.10547,23.98291c-.10156-.3125-.35059-.55518-.66602-.64941l-1.64355-.48975-.97266-1.41113c-.37305-.54199-1.27344-.54199-1.64648,0l-.97266,1.41113-1.64355.48975c-.31543.09424-.56445.33691-.66602.64941-.10156.31299-.04297.65576.15723.9165l1.04102,1.36182-.04199,1.71436c-.00781.32861.14648.64014.41211.8335.26562.19287.6123.24316.91992.13428l1.61719-.57031,1.61719.57031c.10741.03808.21969.05664.33198.05664.55603.00003,1.01327-.46842,1.00005-1.02441l-.04199-1.71436,1.04102-1.36182c.2002-.26074.25879-.60352.15723-.9165ZM38.10449,25.32617c-.13867.18115-.21094.40381-.20605.63184l.01562.6167-.58203-.20508c-.10742-.0376-.21973-.05664-.33203-.05664s-.22461.01904-.33203.05664l-.58203.20508.01562-.6167c.00488-.22803-.06738-.45068-.20605-.63184l-.37402-.48975.59082-.17627c.21875-.06543.40918-.20312.53809-.39111l.34961-.50684.34961.50684c.12891.18799.31934.32568.53809.39111l.59082.17627-.37402.48975Z"/>
  <path d="M31.10547,23.98291c-.10156-.3125-.35059-.55518-.66602-.64941l-1.64355-.48975-.97266-1.41113c-.37305-.54199-1.27344-.54199-1.64648,0l-.97266,1.41113-1.64355.48975c-.31543.09424-.56445.33691-.66602.64941-.10156.31299-.04297.65576.15723.9165l1.04102,1.36182-.04199,1.71436c-.00781.32861.14648.64014.41211.8335.26562.19287.61133.24316.91992.13428l1.61719-.57031,1.61719.57031c.10738.03807.21964.05663.33191.05664.5551.00007,1.01329-.47066,1.00012-1.02441l-.04199-1.71436,1.04102-1.36182c.2002-.26074.25879-.60352.15723-.9165ZM28.10449,25.32617c-.13867.18115-.21094.40381-.20605.63184l.01562.6167-.58203-.20508c-.10742-.0376-.21973-.05664-.33203-.05664s-.22461.01904-.33203.05664l-.58203.20508.01562-.6167c.00488-.22803-.06738-.45068-.20605-.63184l-.37402-.48975.59082-.17627c.21875-.06543.40918-.20312.53809-.39111l.34961-.50684.34961.50684c.12891.18799.31934.32568.53809.39111l.59082.17627-.37402.48975Z"/>
  <path d="M50,24c.55273,0,1-.44775,1-1v-13c0-1.6543-1.3457-3-3-3H16c-1.6543,0-3,1.3457-3,3v20c0,1.6543,1.3457,3,3,3h10.80762l4.82129,1.92871c.11914.04736.24512.07129.37109.07129s.25195-.02393.37109-.07129l4.82129-1.92871h10.80762c1.6543,0,3-1.3457,3-3v-3c0-.55225-.44727-1-1-1s-1,.44775-1,1v3c0,.55127-.44824,1-1,1h-11c-.12695,0-.25293.02441-.37109.07129l-4.62891,1.85156-4.62891-1.85156c-.11816-.04688-.24414-.07129-.37109-.07129h-11c-.55176,0-1-.44873-1-1V10c0-.55127.44824-1,1-1h32c.55176,0,1,.44873,1,1v13c0,.55225.44727,1,1,1Z"/>
  <path d="M29,46v-2c0-.55225-.44727-1-1-1s-1,.44775-1,1v2c0,.55225.44727,1,1,1s1-.44775,1-1Z"/>
  <path d="M37,44c0-.55225-.44727-1-1-1s-1,.44775-1,1v2c0,.55225.44727,1,1,1s1-.44775,1-1v-2Z"/>
  <path d="M38.76953,41.00537c-.4502.32031-.55469.94482-.23438,1.39453.95801,1.34521,1.46484,2.93604,1.46484,4.6001,0,4.41113-3.58887,8-8,8s-8-3.58887-8-8,3.58887-8,8-8c1.36816,0,2.70898.34961,3.87793,1.01025.47949.27246,1.09082.10254,1.3623-.37744.27246-.48096.10254-1.09082-.37793-1.36279-1.46777-.83105-3.14941-1.27002-4.8623-1.27002-5.51367,0-10,4.48584-10,10s4.48633,10,10,10,10-4.48584,10-10c0-2.08252-.63477-4.07422-1.83594-5.76025-.32031-.44922-.94434-.55469-1.39453-.23438Z"/>
  <path d="M32,53c1.875,0,3.66895-.89697,4.79883-2.39893.33203-.44141.24414-1.06836-.19727-1.40039-.44336-.33154-1.06934-.24268-1.40039.19824-.75488,1.00244-1.95117,1.60107-3.20117,1.60107s-2.44629-.59863-3.20117-1.60107c-.33008-.43994-.95703-.52881-1.40039-.19824-.44141.33203-.5293.95898-.19727,1.40039,1.12988,1.50195,2.92383,2.39893,4.79883,2.39893Z"/>
</svg>