<?xml version="1.0" encoding="UTF-8"?>
<svg id="Outline" xmlns="http://www.w3.org/2000/svg" version="1.1" viewBox="0 0 64 64">
  <!-- Generator: Adobe Illustrator 29.5.1, SVG Export Plug-In . SVG Version: 2.1.0 Build 141)  -->
  <path d="M36.897,25.511l-2.73-.459-1.28-2.455c-.346-.661-1.428-.661-1.773,0l-1.28,2.455-2.73.459c-.367.062-.67.323-.785.677-.115.354-.023.743.237,1.009l1.938,1.977-.405,2.739c-.055.369.101.737.401.956.302.221.701.251,1.033.086l2.479-1.233,2.479,1.233c.141.07.293.104.445.104.603,0,1.078-.547.989-1.146l-.405-2.739,1.938-1.977c.261-.266.353-.655.237-1.009-.115-.354-.418-.615-.785-.677ZM33.731,28.129c-.22.224-.321.537-.275.847l.198,1.335-1.209-.601c-.141-.07-.293-.104-.445-.104s-.305.035-.445.104l-1.209.601.198-1.335c.046-.31-.056-.623-.275-.847l-.944-.963,1.331-.224c.309-.052.575-.246.721-.524l.624-1.196.624,1.196c.146.278.412.472.721.524l1.331.224-.944.963Z"/>
  <path d="M49.629,26.451l-2.73-.459-1.28-2.454c-.346-.661-1.428-.661-1.773,0l-1.28,2.454-2.73.459c-.367.062-.67.323-.785.677s-.023.743.237,1.009l1.938,1.977-.406,2.738c-.055.369.1.737.401.956.302.22.701.252,1.033.086l2.479-1.233,2.479,1.233c.14.07.293.104.445.104.596,0,1.077-.561.99-1.147l-.406-2.738,1.938-1.977c.261-.266.353-.655.237-1.009-.115-.354-.418-.615-.785-.677ZM46.463,29.069c-.22.224-.321.537-.275.847l.198,1.335-1.209-.601c-.141-.07-.293-.104-.445-.104s-.305.035-.445.104l-1.208.601.198-1.335c.046-.31-.056-.624-.275-.847l-.945-.964,1.331-.224c.309-.052.575-.246.721-.524l.624-1.196.624,1.196c.146.278.412.472.721.524l1.331.224-.944.964Z"/>
  <path d="M24.629,26.451l-2.73-.459-1.28-2.454c-.346-.661-1.428-.661-1.773,0l-1.28,2.454-2.73.459c-.367.062-.67.323-.785.677s-.023.743.237,1.009l1.938,1.977-.406,2.738c-.055.369.1.737.401.956.302.22.702.252,1.033.086l2.479-1.233,2.479,1.233c.141.07.293.104.445.104.605,0,1.078-.548.989-1.147l-.406-2.738,1.938-1.977c.261-.266.353-.655.237-1.009-.115-.354-.418-.615-.785-.677ZM21.463,29.069c-.22.224-.321.537-.275.847l.198,1.335-1.209-.601c-.141-.07-.293-.104-.445-.104s-.305.035-.445.104l-1.208.601.198-1.335c.046-.31-.056-.624-.275-.847l-.945-.964,1.331-.224c.309-.052.575-.246.721-.524l.624-1.196.624,1.196c.146.278.412.472.721.524l1.331.224-.944.964Z"/>
  <path d="M54,18H10c-1.65,0-3,1.35-3,3v14c0,1.65,1.35,3,3,3v1c0,1.65,1.35,3,3,3v1c0,1.65,1.35,3,3,3h32c1.65,0,3-1.35,3-3v-1c1.65,0,3-1.35,3-3v-1c1.65,0,3-1.35,3-3v-14c0-1.65-1.35-3-3-3ZM49,43c0,.55-.45,1-1,1H16c-.55,0-1-.45-1-1v-1h34v1ZM52,39c0,.55-.45,1-1,1H13c-.55,0-1-.45-1-1v-1h40v1ZM55,35c0,.55-.45,1-1,1H10c-.55,0-1-.45-1-1v-14c0-.55.45-1,1-1h44c.55,0,1,.45,1,1v14Z"/>
</svg>