<?xml version="1.0" encoding="UTF-8"?>
<svg id="Outline" xmlns="http://www.w3.org/2000/svg" version="1.1" viewBox="0 0 64 64">
  <!-- Generator: Adobe Illustrator 29.5.1, SVG Export Plug-In . SVG Version: 2.1.0 Build 141)  -->
  <path d="M56.819,14.43c-.23-.34-.64-.49-1.05-.4l-3.85.89c-5.65,1.3-11.55.45-16.61-2.39-5.25-2.96-11.4-3.93-17.31-2.75l-5,1v-.78c0-1.631-1.372-3-3-3-1.65,0-3,1.35-3,3v44c0,1.65,1.35,3,3,3s3-1.35,3-3v-17.3l8.46-3.02c2.94-1.05,6.2-1.11,9.18-.18,6.93,2.17,14.59-.54,18.62-6.58l7.57-11.37c.23-.34.23-.78-.01-1.12ZM47.589,25.81c-3.53,5.3-10.26,7.68-16.35,5.78-3.39-1.06-7.1-.99-10.45.21l-7.79,2.78v-2.13l7.11-2.54c.99-.34,2.01-.61,3.06-.79.55-.1.91-.62.81-1.16-.09-.55-.6-.9-1.15-.82-1.16.21-2.3.5-3.39.89l-6.44,2.3v-6.33c0-.55-.45-1-1-1s-1,.45-1,1v30c0,.55-.45,1-1,1s-1-.45-1-1V10c0-.55.45-1,.999-1,.535,0,1.001.47,1.001,1v10c0,.55.45,1,1,1s1-.45,1-1v-3.1l6.17-1.24c4.57-.9,9.26-.13,13.2,2.1,4.07,2.29,8.65,3.57,13.3,3.73l-1.4,2.09c-1.95,2.92-5.22,4.66-8.75,4.66-1.04,0-2.08-.16-3.09-.46-1.73-.55-3.55-.86-5.4-.92-.55-.04-1.01.41-1.03.97-.02.55.41,1.01.97,1.03,1.66.06,3.3.33,4.87.83,1.21.36,2.45.55,3.68.55,4.2,0,8.1-2.07,10.41-5.54l2.43-3.64c.21-.32.23-.72.04-1.05-.18-.32-.54-.55-.9-.51-.28.01-.55.01-.82.01-4.65,0-9.26-1.21-13.33-3.49-4.34-2.46-9.52-3.31-14.57-2.32l-5.78,1.16v-2.04l5.4-1.08c5.44-1.09,11.1-.19,15.93,2.53,5.49,3.09,11.9,4.01,18.04,2.6l1.4-.33-6.18,9.27Z"/>
</svg>