<?xml version="1.0" encoding="UTF-8"?>
<svg id="Outline" xmlns="http://www.w3.org/2000/svg" version="1.1" viewBox="0 0 64 64">
  <!-- Generator: Adobe Illustrator 29.5.1, SVG Export Plug-In . SVG Version: 2.1.0 Build 141)  -->
  <path d="M42,13.001h-20c-1.65,0-3,1.35-3,3,0,1.3.84,2.4,2,2.82v3.94c0,2.85,1.07,5.54,3,7.62v16.62c-.55,0-1,.45-1,1v4c0,.55.45,1,1,1v1c0,1.65,1.35,3,3,3h10c1.65,0,3-1.35,3-3v-1c.55,0,1-.45,1-1v-4c0-.55-.45-1-1-1v-16.62c1.93-2.08,3-4.77,3-7.62v-3.94c1.16-.42,2-1.52,2-2.82,0-1.65-1.35-3-3-3ZM38,54.001c0,.55-.45,1-1,1h-10c-.55,0-1-.45-1-1v-1h12v1ZM39,51.001h-14v-2h14v2ZM26,47.001v-16h12v16h-12ZM41,22.761c0,2.33-.86,4.53-2.43,6.24h-13.14c-1.57-1.71-2.43-3.91-2.43-6.24v-3.76h18v3.76ZM42,17.001h-20c-.55,0-1-.45-1-1s.45-1,1-1h20c.55,0,1,.45,1,1s-.45,1-1,1Z"/>
  <path d="M32,11.001c.553,0,1-.448,1-1v-2c0-.552-.447-1-1-1s-1,.448-1,1v2c0,.552.447,1,1,1Z"/>
  <path d="M26.867,10.235c.223.478.827.719,1.329.484.5-.233.717-.828.483-1.329l-.845-1.812c-.233-.5-.825-.72-1.329-.484-.5.233-.717.828-.483,1.329l.845,1.813Z"/>
  <path d="M35.804,10.719c.494.231,1.099.01,1.329-.484l.845-1.812c.233-.5.017-1.095-.483-1.329-.501-.233-1.096-.016-1.329.484l-.845,1.812c-.233.5-.017,1.095.484,1.329Z"/>
  <path d="M32,33.001c-1.654,0-3,1.346-3,3v4c0,1.654,1.346,3,3,3s3-1.346,3-3v-4c0-1.654-1.346-3-3-3ZM32,35.001c.552,0,1,.449,1,1s-.448,1-1,1-1-.449-1-1,.448-1,1-1ZM32,41.001c-.552,0-1-.449-1-1v-1.184c.314.112.648.184,1,.184s.686-.072,1-.184v1.184c0,.551-.448,1-1,1Z"/>
</svg>