<?xml version="1.0" encoding="UTF-8"?>
<svg id="Outlie" xmlns="http://www.w3.org/2000/svg" version="1.1" viewBox="0 0 64 64">
  <!-- Generator: Adobe Illustrator 29.3.1, SVG Export Plug-In . SVG Version: 2.1.0 Build 151)  -->
  <path d="M54,8.0022H10c-1.65002,0-3,1.34998-3,3v22c0,1.64996,1.34998,3,3,3h20.41998l-2.38,7.70996c-.08997.30005-.02997.63.16003.88.17999.26001.47998.41003.79999.41003h4.69s-2.63772,9.69475-2.64998,9.73983c-.26447.97203,1.00338,1.69908,1.68996.94016l14-15c.27002-.28998.35004-.71002.19-1.08002-.15997-.35999-.51996-.59998-.91998-.59998h-4.60999l1-3h11.60999c1.65002,0,3-1.35004,3-3V11.0022c0-1.65002-1.34998-3-3-3ZM39.04999,39.68219c-.09998.31-.04999.64001.14001.89996.19.27002.48999.42004.81.42004h3.70001l-9.66998,10.35999,1.92999-7.09998c.08997-.30005.01996-.62-.17004-.87-.17999-.24005-.47998-.39001-.78998-.39001h-4.65002l3.39001-11h7.87l-2.56,7.67999ZM16.90002,30.0022c-.40002-1.96002-1.94-3.5-3.90002-3.90002v-8.20001c1.96002-.39996,3.5-1.94,3.90002-3.89996h30.19995c.40002,1.95996,1.94,3.5,3.90002,3.89996v8.20001c-1.96002.40002-3.5,1.94-3.90002,3.90002h-30.19995ZM55,33.0022c0,.54999-.45001,1-1,1h-10.95001l.66998-2h4.28003c.54999,0,1-.45001,1-1,0-1.65002,1.34998-3,3-3,.54999,0,1-.45001,1-1v-10c0-.54999-.45001-1-1-1-1.65002,0-3-1.35004-3-3,0-.54999-.45001-1-1-1H16c-.54999,0-1,.45001-1,1,0,1.64996-1.34998,3-3,3-.54999,0-1,.45001-1,1v10c0,.54999.45001,1,1,1,1.65002,0,3,1.34998,3,3,0,.54999.45001,1,1,1h15.65002l-.62,2H10c-.54999,0-1-.45001-1-1V11.0022c0-.54999.45001-1,1-1h44c.54999,0,1,.45001,1,1v22Z"/>
  <path d="M20,19.0022h2c.55273,0,1-.44775,1-1s-.44727-1-1-1h-2c-1.6543,0-3,1.3457-3,3s1.3457,3,3,3c.55176,0,1,.44873,1,1s-.44824,1-1,1h-2c-.55273,0-1,.44775-1,1s.44727,1,1,1h2c1.6543,0,3-1.3457,3-3s-1.3457-3-3-3c-.55176,0-1-.44873-1-1s.44824-1,1-1Z"/>
  <path d="M28,17.0022c-1.6543,0-3,1.3457-3,3v6c0,.55225.44727,1,1,1s1-.44775,1-1v-2h2v2c0,.55225.44727,1,1,1s1-.44775,1-1v-6c0-1.6543-1.3457-3-3-3ZM27,22.0022v-2c0-.55127.44824-1,1-1s1,.44873,1,1v2h-2Z"/>
  <path d="M38,25.0022h-3v-7c0-.55225-.44727-1-1-1s-1,.44775-1,1v8c0,.55225.44727,1,1,1h4c.55273,0,1-.44775,1-1s-.44727-1-1-1Z"/>
  <path d="M46,19.0022c.55273,0,1-.44775,1-1s-.44727-1-1-1h-4c-.55273,0-1,.44775-1,1v8c0,.55225.44727,1,1,1h4c.55273,0,1-.44775,1-1s-.44727-1-1-1h-3v-2h3c.55273,0,1-.44775,1-1s-.44727-1-1-1h-3v-2h3Z"/>
</svg>