<?xml version="1.0" encoding="UTF-8"?>
<svg id="Outline" xmlns="http://www.w3.org/2000/svg" version="1.1" viewBox="0 0 64 64">
  <!-- Generator: Adobe Illustrator 29.5.1, SVG Export Plug-In . SVG Version: 2.1.0 Build 141)  -->
  <path d="M52.267,21.03c2.01-2.4,1.91-5.98-.35-8.24-2.16-2.16-5.56-2.36-7.95-.6-.14-.1-.29-.18-.44-.27-.36-1.02-.94-1.97-1.72-2.75-1.4-1.4-3.26-2.17-5.24-2.17-1.66,0-3.24.54-4.53,1.55-1.29-1.01-2.87-1.55-4.53-1.55-1.98,0-3.84.77-5.24,2.17-.77.78-1.33,1.69-1.7,2.69-.18.11-.36.2-.53.33-2.4-1.77-5.79-1.56-7.96.6-2.26,2.26-2.35,5.85-.33,8.26-.25.07-.47.24-.59.48-.18.32-.16.72.05,1.02l15.74,23.61-2.87,9.55c-.09.31-.03.63.16.89.19.25.48.4.8.4h7c.55,0,1-.45,1-1s-.45-1-1-1h-5.66l2.4-8h6.52l2.4,8h-1.66c-.55,0-1,.45-1,1s.45,1,1,1h3c.32,0,.61-.15.8-.4.19-.26.25-.58.16-.89l-2.87-9.55,15.74-23.61c.21-.3.23-.7.05-1.02-.13-.26-.37-.43-.65-.5ZM23.687,10.59c1.02-1.03,2.38-1.59,3.82-1.59s2.8.56,3.82,1.59c.38.37,1.04.37,1.42,0,1.02-1.03,2.38-1.59,3.82-1.59s2.8.56,3.82,1.59c.14.14.27.29.4.44-1.72-.12-3.47.46-4.78,1.76-1.16,1.16-1.8,2.7-1.8,4.33,0,1.44.49,2.79,1.39,3.88h-7.23c1.98-2.4,1.87-5.96-.37-8.21-1.29-1.29-3.01-1.86-4.7-1.76.12-.15.25-.3.39-.44ZM35.497,45h-.13l1.63-5.73c.15-.53-.15-1.08-.69-1.23-.52-.15-1.08.15-1.23.69l-1.79,6.27h-.25v-7c0-.55-.45-1-1-1s-1,.45-1,1v7h-.25l-1.79-6.27c-.15-.54-.71-.84-1.23-.69-.54.15-.84.7-.69,1.23l1.63,5.73h-.13l-14.67-22h5.13c.55,0,1-.45,1-1s-.45-1-1-1h-4.59l-.95-.96c-1.61-1.61-1.61-4.22,0-5.83s4.22-1.61,5.83,0c.39.39,1.03.39,1.42,0,1.61-1.61,4.22-1.61,5.83,0s1.61,4.22,0,5.83l-.95.96h-2.59c-.55,0-1,.45-1,1s.45,1,1,1h27.13l-14.67,22ZM50.507,20.04l-.95.96h-11.18l-.96-.96c-.78-.78-1.21-1.81-1.21-2.92,0-1.1.43-2.13,1.22-2.91,1.6-1.61,4.22-1.61,5.83,0,.39.39,1.03.39,1.42,0,1.6-1.61,4.22-1.61,5.83,0s1.61,4.22,0,5.83Z"/>
</svg>