<?xml version="1.0" encoding="UTF-8"?>
<svg id="Outline" xmlns="http://www.w3.org/2000/svg" version="1.1" viewBox="0 0 64 64">
  <!-- Generator: Adobe Illustrator 29.5.1, SVG Export Plug-In . SVG Version: 2.1.0 Build 141)  -->
  <path d="M24.205,22c2.206,0,4-1.794,4-4s-1.794-4-4-4-4,1.794-4,4,1.794,4,4,4ZM24.205,16c1.103,0,2,.897,2,2s-.897,2-2,2-2-.897-2-2,.897-2,2-2Z"/>
  <path d="M50.205,19.09c-.51-.23-1.1,0-1.32.5-.65,1.47-2.09,2.41-3.68,2.41-.55,0-1,.45-1,1,0,2.21-1.79,4-4,4s-4-1.79-4-4c0-.55-.45-1-1-1-.47,0-.92-.08-1.35-.24.84-1.03,1.35-2.33,1.35-3.76s-.51-2.73-1.35-3.76c.43-.16.88-.24,1.35-.24.55,0,1-.45,1-1,0-2.21,1.79-4,4-4s4,1.79,4,4c0,.55.45,1,1,1,1.59,0,3.03.94,3.68,2.41.16.37.53.59.91.59.14,0,.27-.03.41-.09.5-.22.73-.81.5-1.32-.84-1.89-2.57-3.2-4.57-3.52-.45-2.87-2.94-5.07-5.93-5.07s-5.48,2.2-5.93,5.07c-.74.11-1.44.36-2.08.74-.63-.37-1.32-.62-2.06-.74-.45-2.87-2.94-5.07-5.93-5.07s-5.48,2.2-5.93,5.07c-2.87.45-5.07,2.94-5.07,5.93s2.2,5.48,5.07,5.93c.27,1.7,1.26,3.15,2.64,4.07l4.96,17h-1.67c-.55,0-1,.45-1,1v4c0,.55.45,1,1,1h1.87l-1.8,4.64c-.12.31-.08.65.1.92.19.28.5.44.83.44h14c.33,0,.64-.16.83-.44.18-.27.22-.61.1-.92l-1.8-4.64h1.87c.55,0,1-.45,1-1v-4c0-.55-.45-1-1-1h-1.67l4.96-17c1.38-.92,2.37-2.37,2.64-4.07,2-.32,3.73-1.63,4.57-3.52.23-.51,0-1.1-.5-1.32ZM20.205,23c0-.55-.45-1-1-1-2.21,0-4-1.79-4-4s1.79-4,4-4c.55,0,1-.45,1-1,0-2.21,1.79-4,4-4s4,1.79,4,4c0,.55.45,1,1,1,2.21,0,4,1.79,4,4s-1.79,4-4,4c-.55,0-1,.45-1,1,0,2.21-1.79,4-4,4s-4-1.79-4-4ZM39.205,47v2h-5c-.55,0-1,.45-1,1s.45,1,1,1h1.99l1.55,4h-11.08l1.55-4h1.99c.55,0,1-.45,1-1s-.45-1-1-1h-5v-2h14ZM36.455,45h-8.5l-4.69-16.09c.31.05.62.09.94.09,2.99,0,5.48-2.2,5.93-5.07.74-.12,1.43-.37,2.06-.74.64.38,1.34.63,2.08.74.45,2.87,2.94,5.07,5.93,5.07.32,0,.63-.04.94-.09l-4.69,16.09Z"/>
  <path d="M40.205,14c-2.206,0-4,1.794-4,4s1.794,4,4,4,4-1.794,4-4-1.794-4-4-4ZM40.205,20c-1.103,0-2-.897-2-2s.897-2,2-2,2,.897,2,2-.897,2-2,2Z"/>
</svg>