<?xml version="1.0" encoding="UTF-8"?>
<svg id="Outline" xmlns="http://www.w3.org/2000/svg" version="1.1" viewBox="0 0 64 64">
  <!-- Generator: Adobe Illustrator 29.0.0, SVG Export Plug-In . SVG Version: 2.1.0 Build 186)  -->
  <path d="M50.65527,37.45117c-.28455-.29095-2.75238-2.74231-6.7561-4.51599.06433-.3042.10083-.61664.10083-.93518s-.0365-.6311-.10083-.93524c4.00366-1.77362,6.47107-4.22443,6.74829-4.50714,7.54003-7.53027,6.34277-17.4375,6.18164-18.54199-.06348-.4375-.40723-.78125-.84473-.84473-1.1084-.16113-11.0127-1.3584-18.5332,6.17383-.29095.28455-2.74231,2.75238-4.51599,6.7561-.3042-.06433-.61664-.10083-.93518-.10083s-.6311.0365-.93524.10083c-1.77362-4.00366-4.22443-6.47107-4.50714-6.74829-7.53027-7.53906-17.4375-6.3418-18.54199-6.18164-.4375.06348-.78125.40723-.84473.84473-.16113,1.10449-1.3584,11.01172,6.17383,18.5332.28455.29095,2.75238,2.74231,6.7561,4.51599-.06433.3042-.10083.61664-.10083.93518s.0365.6311.10083.93524c-4.00366,1.77362-6.47107,4.22443-6.74829,4.50714-7.54005,7.53027-6.34277,17.4375-6.18164,18.54199.06348.4375.40723.78125.84473.84473.30176.04395,1.25684.16504,2.63965.16504,3.69043,0,10.42285-.86035,15.89355-6.33887.29095-.28455,2.74231-2.75238,4.51599-6.7561.3042.06433.61664.10083.93518.10083s.6311-.0365.93524-.10083c1.77362,4.00366,4.22443,6.47107,4.50714,6.74829,5.47852,5.48535,12.21484,6.34668,15.9043,6.34668,1.38184,0,2.33691-.12109,2.6377-.16504.4375-.06348.78125-.40723.84473-.84473.16113-1.10449,1.35839-11.01172-6.17383-18.5332ZM54.99554,53.58148l-12.4516-12.4516h8.63531c3.36316,4.60883,3.854,9.64557,3.81628,12.4516ZM49.2334,38.8584c.08923.08911.16461.1817.25116.27148h-8.07336c.31781-.716.44885-1.50897.35834-2.3125l-.09082-.80859.63477-.50684c.27637-.22052.521-.46979.73383-.74054,3.67169,1.61749,5.92194,3.8255,6.1861,4.09698ZM49.22559,25.15039c-.25684.26324-2.50659,2.4707-6.17822,4.08813-.21265-.27045-.45691-.51935-.73291-.7395l-.63574-.50781.09082-.80762c.11523-1.02368-.12054-2.0329-.65619-2.88287l3.34662-3.34662h7.93469c-.80048,1.43018-1.82562,2.85461-3.16907,4.19629ZM53.37183,18.9541h-6.91187l8.53552-8.53552c.02698,2.01953-.22791,5.19196-1.62366,8.53552ZM53.58057,9.00537l-12.45068,12.45068v-8.63531c4.60834-3.36267,9.64349-3.85199,12.45068-3.81537ZM38.8584,14.7666c.08911-.08923.1817-.16461.27148-.25116v8.07544c-.71735-.31732-1.51135-.44806-2.3125-.36041l-.80859.09082-.50684-.63477c-.22052-.27637-.46979-.521-.74054-.73383,1.61749-3.67169,3.8255-5.92194,4.09698-6.1861ZM29.23853,20.95264c-.27045.21265-.51935.45691-.7395.73291l-.50781.63574-.80762-.09082c-1.0332-.11365-2.03717.1214-2.88342.65564l-3.34607-3.34607v-7.93439c1.43011.80029,2.85455,1.82532,4.19629,3.16876.26324.25684,2.4707,2.50659,4.08813,6.17822ZM18.9541,10.62872v6.91132l-8.53467-8.53467c2.0191-.02618,5.19122.22809,8.53467,1.62335ZM9.00446,10.41852l12.4516,12.4516h-8.63531c-3.36316-4.60883-3.854-9.64557-3.81628-12.4516ZM14.7666,25.1416c-.08923-.08911-.16461-.1817-.25116-.27148h8.07336c-.31781.716-.44885,1.50897-.35834,2.3125l.09082.80859-.63477.50684c-.27637.22052-.521.46979-.73383.74054-3.67169-1.61749-5.92194-3.8255-6.1861-4.09698ZM14.77441,38.84961c.25684-.26324,2.50659-2.4707,6.17822-4.08813.21265.27045.45691.51935.73291.7395l.63574.50781-.09082.80762c-.11523,1.02368.12061,2.03284.65625,2.88281l-3.34668,3.34668h-7.93469c.80048-1.43018,1.82562-2.85461,3.16907-4.19629ZM10.62817,45.0459h6.91187l-8.53552,8.53552c-.02698-2.01947.22791-5.19196,1.62366-8.53552ZM10.41882,54.99524l12.45129-12.45129v8.63568c-4.60822,3.3631-9.64386,3.85309-12.45129,3.81561ZM25.1416,49.2334c-.08911.08923-.1817.16461-.27148.25116v-8.09833c.71863.31921,1.50684.46954,2.3125.3833l.80859-.09082.50684.63477c.22052.27637.46979.521.74054.73383-1.61749,3.67169-3.8255,5.92194-4.09698,6.1861ZM30.06152,41.06641l-.85156-1.06738c-.19043-.23926-.47852-.37598-.78125-.37598-.03711,0-.07422.00195-.11133.00586l-1.3584.15234c-.74707.08691-1.49316-.17383-2.03027-.70996-.53613-.53711-.79492-1.27637-.70996-2.03125l.15234-1.35742c.03809-.3418-.10156-.67871-.37012-.89258l-1.06836-.85254c-.59277-.47266-.93262-1.17871-.93262-1.9375s.33984-1.46484.93359-1.93848l1.06738-.85156c.26855-.21387.4082-.55078.37012-.89258l-.15234-1.3584c-.08496-.75391.17383-1.49316.70996-2.03027.53711-.53613,1.27734-.79492,2.03125-.70996l1.35742.15234c.33887.03711.67871-.10156.89258-.37012l.85253-1.06836c.47266-.59277,1.17872-.93262,1.93751-.93262s1.46484.33984,1.93848.93359l.85156,1.06738c.21387.26855.55566.40723.89258.37012l1.3584-.15234c.74609-.08691,1.49316.17383,2.03027.70996.53613.53711.79492,1.27637.70996,2.03125l-.15234,1.35742c-.03809.3418.10156.67871.37012.89258l1.06738.85156s0,.00098.00098.00098c.59277.47266.93262,1.17871.93262,1.9375s-.33984,1.46484-.93359,1.93848l-1.06738.85156c-.26855.21387-.4082.55078-.37012.89258l.15234,1.3584c.08496.75391-.17383,1.49316-.70996,2.03027-.53711.53613-1.27441.79883-2.03125.70996l-1.35742-.15234c-.33691-.03418-.67871.10156-.89258.37012l-.85255,1.06836c-.47265.59277-1.1787.93262-1.93749.93262s-1.46484-.33984-1.93848-.93359ZM34.76147,43.04736c.27045-.21265.51935-.45691.7395-.73291l.50781-.63574.80762.09082c1.03107.11218,2.03558-.12262,2.88269-.65637l3.3468,3.3468v7.93494c-1.43018-.80042-2.85461-1.82568-4.19629-3.16931-.26324-.25684-2.4707-2.50659-4.08813-6.17822ZM45.0459,53.37201v-6.91205l8.53528,8.53528c-2.01886.02679-5.19147-.22754-8.53528-1.62323Z"/>
  <path d="M38,32c0-3.30859-2.69141-6-6-6s-6,2.69141-6,6,2.69141,6,6,6,6-2.69141,6-6ZM32,36c-2.20605,0-4-1.79395-4-4s1.79395-4,4-4,4,1.79395,4,4-1.79395,4-4,4Z"/>
</svg>