<?xml version="1.0" encoding="UTF-8"?>
<svg id="Outlie" xmlns="http://www.w3.org/2000/svg" version="1.1" viewBox="0 0 64 64">
  <!-- Generator: Adobe Illustrator 29.5.1, SVG Export Plug-In . SVG Version: 2.1.0 Build 141)  -->
  <path d="M32,26c-3.309,0-6,2.691-6,6s2.691,6,6,6,6-2.691,6-6-2.691-6-6-6ZM32,36c-2.206,0-4-1.794-4-4s1.794-4,4-4,4,1.794,4,4-1.794,4-4,4Z"/>
  <path d="M54.41,32l1.06-1.05c.97-.98,1.53-2.33,1.53-3.71,0-1.39-.54-2.7-1.54-3.71-.32-.32-.69-.59-1.07-.81.11-.43.19-.87.19-1.33,0-1.4-.55-2.71-1.54-3.71-.98-.97-2.33-1.53-3.71-1.53h-1.48v-1.48c0-1.38-.56-2.73-1.53-3.71-1-.99-2.31-1.54-3.71-1.54-.46,0-.91.07-1.35.18-.22-.38-.48-.75-.8-1.07-1-.99-2.31-1.53-3.7-1.53-1.38,0-2.73.56-3.71,1.53l-1.05,1.06-1.05-1.06c-.98-.97-2.33-1.53-3.71-1.53-1.39,0-2.7.54-3.71,1.54-.32.32-.59.69-.81,1.07-.43-.11-.87-.19-1.33-.19-1.4,0-2.71.55-3.71,1.54-.97.98-1.53,2.33-1.53,3.71v1.48h-1.48c-1.38,0-2.73.56-3.71,1.53-.99,1-1.54,2.31-1.54,3.71,0,.46.07.91.18,1.35-.38.22-.75.48-1.07.8-.99,1-1.53,2.31-1.53,3.7,0,1.38.56,2.73,1.53,3.71l1.06,1.05-1.06,1.05c-.97.98-1.53,2.33-1.53,3.71,0,1.39.54,2.7,1.54,3.71.32.32.69.59,1.07.81-.11.43-.19.87-.19,1.33,0,1.4.55,2.71,1.54,3.71.98.97,2.33,1.53,3.71,1.53h1.48v1.48c0,1.38.56,2.73,1.53,3.71,1,.99,2.31,1.54,3.71,1.54.46,0,.91-.07,1.35-.18.22.38.48.75.8,1.07,1,.99,2.31,1.53,3.7,1.53,1.38,0,2.73-.56,3.71-1.53l1.05-1.06,1.05,1.06c.98.97,2.33,1.53,3.71,1.53,1.39,0,2.7-.54,3.71-1.54.32-.32.59-.69.81-1.07.43.11.87.19,1.33.19,1.4,0,2.71-.55,3.71-1.54.97-.98,1.53-2.33,1.53-3.71v-1.48h1.48c1.38,0,2.73-.56,3.71-1.53.99-1,1.54-2.31,1.54-3.71,0-.46-.07-.91-.18-1.35.38-.22.75-.48,1.07-.8.99-1,1.53-2.31,1.53-3.7,0-1.38-.56-2.73-1.53-3.71l-1.06-1.05ZM41.29,18.07c.47-1.9.71-3.86.71-5.83,0-.25-.04-.49-.07-.73,1.03-.22,2.19.08,2.97.87.6.6.95,1.43.95,2.29v2.48c0,.55.45,1,1,1h2.48c.86,0,1.69.35,2.29.95.62.61.96,1.43.96,2.29s-.34,1.68-.96,2.3c-1.26,1.27-2.69,2.38-4.24,3.31-1.52.92-3.18,1.66-4.91,2.2l-.81.25c-.21-.8-.52-1.57-.91-2.29l2.81-.31c1.5-.17,2.92-.85,4-1.92.56-.57.88-1.32.88-2.12s-.32-1.56-.88-2.12c-1.14-1.14-3.11-1.14-4.25,0l-.7.7c-.39.39-.39,1.03,0,1.42s1.02.39,1.41,0l.71-.71c.38-.38,1.03-.38,1.41,0,.19.19.3.44.3.71,0,.26-.11.52-.3.7-.75.76-1.75,1.24-2.8,1.35l-3.94.44c-.23-.26-.48-.51-.74-.74l.53-1c.92-1.72,1.63-3.57,2.1-5.49ZM40,32c0,4.41-3.59,8-8,8s-8-3.59-8-8,3.59-8,8-8,8,3.59,8,8ZM24.94,9.95c1.24-1.22,3.39-1.21,4.59,0l1.76,1.76c.39.39,1.03.39,1.42,0l1.76-1.76c1.2-1.21,3.36-1.21,4.58-.01.61.62.95,1.44.95,2.3,0,1.8-.22,3.6-.65,5.35-.44,1.76-1.08,3.45-1.92,5.03l-.4.75c-.71-.41-1.47-.74-2.27-.97l1.77-2.21c.95-1.19,1.47-2.67,1.47-4.19,0-1.65-1.35-3-3-3s-3,1.35-3,3v1c0,.55.45,1,1,1s1-.45,1-1v-1c0-.55.45-1,1-1s1,.45,1,1c0,1.06-.37,2.11-1.03,2.94l-2.47,3.09c-.17-.01-.33-.03-.5-.03-.19,0-.37.02-.55.03l-.33-1.09c-.59-1.89-1.4-3.69-2.4-5.35-1.02-1.69-2.23-3.25-3.62-4.63-.18-.18-.38-.32-.58-.47.13-.19.26-.38.42-.54ZM12.38,19.1c.6-.6,1.43-.95,2.29-.95h2.48c.55,0,1-.45,1-1v-2.48c0-.86.35-1.69.95-2.29,1.23-1.24,3.35-1.24,4.59,0,1.27,1.26,2.38,2.69,3.31,4.24.92,1.52,1.66,3.18,2.2,4.91l.25.81c-.8.21-1.57.52-2.29.91l-.31-2.81c-.17-1.5-.85-2.92-1.92-4-1.13-1.13-3.11-1.13-4.24,0-.57.57-.88,1.32-.88,2.12,0,.81.31,1.56.88,2.13l.7.7c.39.39,1.03.39,1.42,0,.39-.39.39-1.02,0-1.41l-.71-.71c-.19-.19-.29-.44-.29-.71,0-.26.1-.51.29-.7.38-.38,1.04-.38,1.41,0,.76.75,1.24,1.75,1.35,2.8l.44,3.94c-.26.23-.51.48-.74.74l-1-.53c-1.72-.92-3.57-1.63-5.49-2.1-1.9-.47-3.86-.71-5.83-.71-.25,0-.5.04-.74.07-.05-.22-.08-.45-.08-.68,0-.86.34-1.68.96-2.29ZM10.49,39.48c-.19-.13-.38-.26-.54-.42-.61-.62-.95-1.44-.95-2.3s.35-1.69.95-2.29l1.76-1.76c.39-.39.39-1.03,0-1.42l-1.76-1.76c-.6-.6-.95-1.43-.95-2.29s.34-1.68.94-2.29c.62-.61,1.44-.95,2.3-.95,1.8,0,3.6.22,5.35.65,1.76.44,3.45,1.08,5.03,1.92l.75.4c-.41.71-.74,1.47-.97,2.27l-2.21-1.77c-1.19-.95-2.67-1.47-4.19-1.47-1.65,0-3,1.35-3,3s1.35,3,3,3h1c.55,0,1-.45,1-1s-.45-1-1-1h-1c-.55,0-1-.45-1-1s.45-1,1-1c1.06,0,2.11.37,2.94,1.03l3.09,2.47c-.01.17-.03.33-.03.5,0,.19.02.37.03.55l-1.09.33c-1.89.59-3.69,1.4-5.35,2.4-1.69,1.02-3.25,2.23-4.63,3.62-.18.18-.32.38-.47.58ZM22.71,45.93c-.47,1.9-.71,3.86-.71,5.83,0,.25.04.49.07.73-1.03.22-2.19-.08-2.97-.87-.6-.6-.95-1.43-.95-2.29v-2.48c0-.55-.45-1-1-1h-2.48c-.86,0-1.69-.35-2.29-.95-.62-.61-.96-1.43-.96-2.29s.34-1.68.96-2.3c1.26-1.27,2.69-2.38,4.24-3.31,1.52-.92,3.18-1.66,4.91-2.2l.81-.25c.21.8.52,1.57.91,2.29l-2.81.31c-1.5.17-2.92.85-4,1.92-.56.57-.88,1.32-.88,2.12s.32,1.56.88,2.12c.57.57,1.32.88,2.12.88.81,0,1.56-.31,2.13-.88l.7-.7c.39-.39.39-1.03,0-1.42-.39-.39-1.02-.39-1.41,0l-.71.71c-.38.38-1.03.38-1.41,0-.19-.19-.3-.44-.3-.71,0-.26.11-.52.3-.7.75-.76,1.75-1.24,2.8-1.35l3.94-.44c.23.26.48.51.74.74l-.53,1c-.92,1.72-1.63,3.57-2.1,5.49ZM39.06,54.05c-1.24,1.22-3.39,1.21-4.59,0l-1.76-1.76c-.39-.39-1.03-.39-1.42,0l-1.76,1.76c-1.2,1.21-3.36,1.21-4.58.01-.61-.62-.95-1.44-.95-2.3,0-1.8.22-3.6.65-5.35.44-1.76,1.08-3.45,1.92-5.03l.4-.75c.71.41,1.47.74,2.27.97l-1.77,2.21c-.95,1.19-1.47,2.67-1.47,4.19,0,1.65,1.35,3,3,3s3-1.35,3-3v-1c0-.55-.45-1-1-1s-1,.45-1,1v1c0,.55-.45,1-1,1s-1-.45-1-1c0-1.06.37-2.11,1.03-2.94l2.47-3.09c.17.01.33.03.5.03.19,0,.37-.02.55-.03l.33,1.09c.59,1.89,1.4,3.69,2.4,5.35,1.02,1.69,2.23,3.25,3.62,4.63.18.18.38.32.58.47-.13.19-.26.38-.42.54ZM51.62,44.9c-.6.6-1.43.95-2.29.95h-2.48c-.55,0-1,.45-1,1v2.48c0,.86-.35,1.69-.95,2.29-1.23,1.24-3.35,1.24-4.59,0-1.27-1.26-2.38-2.69-3.31-4.24-.92-1.52-1.66-3.18-2.2-4.91l-.25-.81c.8-.21,1.57-.52,2.29-.91l.31,2.81c.17,1.5.85,2.92,1.92,4,.57.56,1.32.88,2.12.88s1.56-.32,2.12-.88c.57-.57.88-1.32.88-2.12,0-.81-.31-1.56-.88-2.13l-.7-.7c-.39-.39-1.03-.39-1.42,0s-.39,1.02,0,1.41l.71.71c.19.19.29.44.29.71,0,.26-.1.51-.29.7-.38.38-1.04.38-1.41,0-.76-.75-1.24-1.75-1.35-2.8l-.44-3.94c.26-.23.51-.48.74-.74l1,.53c1.72.92,3.57,1.63,5.49,2.1,1.9.47,3.86.71,5.83.71.25,0,.5-.04.74-.07.05.22.08.45.08.68,0,.86-.34,1.68-.96,2.29ZM54.06,39.05c-.62.61-1.44.95-2.3.95-1.8,0-3.6-.22-5.35-.65-1.76-.44-3.45-1.08-5.03-1.92l-.75-.4c.41-.71.74-1.47.97-2.27l2.21,1.77c1.19.95,2.67,1.47,4.19,1.47,1.65,0,3-1.35,3-3s-1.35-3-3-3h-1c-.55,0-1,.45-1,1s.45,1,1,1h1c.55,0,1,.45,1,1s-.45,1-1,1c-1.06,0-2.11-.37-2.94-1.03l-3.09-2.47c.01-.17.03-.33.03-.5,0-.19-.02-.37-.03-.55l1.09-.33c1.89-.59,3.69-1.4,5.35-2.4,1.69-1.02,3.25-2.23,4.63-3.62.18-.18.32-.38.47-.58.19.13.38.26.54.42.61.62.95,1.44.95,2.3s-.35,1.69-.95,2.29l-1.76,1.76c-.39.39-.39,1.03,0,1.42l1.76,1.76c.6.6.95,1.43.95,2.29s-.34,1.68-.94,2.29Z"/>
</svg>