<?xml version="1.0" encoding="UTF-8"?>
<svg id="Outline" xmlns="http://www.w3.org/2000/svg" version="1.1" viewBox="0 0 64 64">
  <!-- Generator: Adobe Illustrator 29.3.1, SVG Export Plug-In . SVG Version: 2.1.0 Build 151)  -->
  <path d="M40,43c-1.6543,0-3,1.3457-3,3v6c0,.55273.44775,1,1,1s1-.44727,1-1v-2h2v2c0,.55273.44775,1,1,1s1-.44727,1-1v-6c0-1.6543-1.3457-3-3-3ZM39,48v-2c0-.55176.44873-1,1-1s1,.44824,1,1v2h-2Z"/>
  <path d="M48,43h-2c-.55225,0-1,.44727-1,1v8c0,.55273.44775,1,1,1h2c1.6543,0,3-1.3457,3-3v-4c0-1.6543-1.3457-3-3-3ZM49,50c0,.55176-.44873,1-1,1h-1v-6h1c.55127,0,1,.44824,1,1v4Z"/>
  <path d="M55,39h-4v-19c0-1.6543-1.3457-3-3-3h-11v-7c0-1.6543-1.3457-3-3-3H10c-1.6543,0-3,1.3457-3,3v11c0,.55273.44775,1,1,1s1-.44727,1-1v-11c0-.55176.44873-1,1-1h23.26776l-9.47961,8.02142c-1.55396.11096-2.78815,1.39679-2.78815,2.97858v7h-9c-.55225,0-1,.44727-1,1s.44775,1,1,1h9v2h-9c-.55225,0-1,.44727-1,1v4c0,.55273.44775,1,1,1h9v2h-11c-.55127,0-1-.44824-1-1v-9c0-.55273-.44775-1-1-1s-1,.44727-1,1v9c0,1.6543,1.3457,3,3,3h11v7c0,1.6543,1.3457,3,3,3h7v4c0,1.10254.89697,2,2,2h22c1.10303,0,2-.89746,2-2v-14c0-1.10254-.89697-2-2-2ZM26.91046,17l8.08954-6.84515v6.84515h-8.08954ZM13,35v-2h8v2h-8ZM24,49c-.55127,0-1-.44824-1-1v-28c0-.55176.44873-1,1-1h24c.55127,0,1,.44824,1,1v19h-16c-1.10303,0-2,.89746-2,2v8h-7ZM33,55v-14h22l.00146,14h-22.00146Z"/>
  <path d="M26,27h4c.55225,0,1-.44727,1-1v-4c0-.55273-.44775-1-1-1h-4c-.55225,0-1,.44727-1,1v4c0,.55273.44775,1,1,1ZM27,23h2v2h-2v-2Z"/>
  <path d="M34,23h12c.55225,0,1-.44727,1-1s-.44775-1-1-1h-12c-.55225,0-1,.44727-1,1s.44775,1,1,1Z"/>
  <path d="M34,27h12c.55225,0,1-.44727,1-1s-.44775-1-1-1h-12c-.55225,0-1,.44727-1,1s.44775,1,1,1Z"/>
  <path d="M26,31h20c.55225,0,1-.44727,1-1s-.44775-1-1-1h-20c-.55225,0-1,.44727-1,1s.44775,1,1,1Z"/>
  <path d="M30,33h-4c-.55225,0-1,.44727-1,1s.44775,1,1,1h4c.55225,0,1-.44727,1-1s-.44775-1-1-1Z"/>
  <path d="M46,33h-12c-.55225,0-1,.44727-1,1s.44775,1,1,1h12c.55225,0,1-.44727,1-1s-.44775-1-1-1Z"/>
  <path d="M12,13h13c.55225,0,1-.44727,1-1s-.44775-1-1-1h-13c-.55225,0-1,.44727-1,1s.44775,1,1,1Z"/>
  <path d="M12,17h6c.55225,0,1-.44727,1-1s-.44775-1-1-1h-6c-.55225,0-1,.44727-1,1s.44775,1,1,1Z"/>
  <path d="M12,21h6c.55225,0,1-.44727,1-1s-.44775-1-1-1h-6c-.55225,0-1,.44727-1,1s.44775,1,1,1Z"/>
  <circle cx="8" cy="25" r="1"/>
</svg>