<?xml version="1.0" encoding="UTF-8"?>
<svg id="Outline" xmlns="http://www.w3.org/2000/svg" version="1.1" viewBox="0 0 64 64">
  <!-- Generator: Adobe Illustrator 29.5.1, SVG Export Plug-In . SVG Version: 2.1.0 Build 141)  -->
  <path d="M47,10c0-1.65-1.35-3-3-3h-24c-1.65,0-3,1.35-3,3v20c0,.77.3,1.47.78,2-.48.53-.78,1.23-.78,2v20c0,1.65,1.35,3,3,3h24c1.65,0,3-1.35,3-3v-20c0-.77-.3-1.47-.78-2,.48-.53.78-1.23.78-2V10ZM25,9h14v1c0,.55-.45,1-1,1h-12c-.55,0-1-.45-1-1v-1ZM29.18,55h-9.18c-.55,0-1-.45-1-1v-1.18c.31.11.65.18,1,.18h9.18c-.11.31-.18.65-.18,1s.07.69.18,1ZM32,55c-.55,0-1-.45-1-1s.45-1,1-1,1,.45,1,1-.45,1-1,1ZM45,54c0,.55-.45,1-1,1h-9.18c.11-.31.18-.65.18-1s-.07-.69-.18-1h9.18c.35,0,.69-.07,1-.18v1.18ZM45,50c0,.55-.45,1-1,1h-24c-.55,0-1-.45-1-1v-16c0-.55.45-1,1-1h24c.55,0,1,.45,1,1v16ZM45,30c0,.55-.45,1-1,1h-24c-.55,0-1-.45-1-1V10c0-.55.45-1,1-1h3v1c0,1.65,1.35,3,3,3h12c1.65,0,3-1.35,3-3v-1h3c.55,0,1,.45,1,1v20Z"/>
</svg>