<?xml version="1.0" encoding="UTF-8"?>
<svg id="Outline" xmlns="http://www.w3.org/2000/svg" version="1.1" viewBox="0 0 64 64">
  <!-- Generator: Adobe Illustrator 29.5.1, SVG Export Plug-In . SVG Version: 2.1.0 Build 141)  -->
  <path d="M54,33H10c-1.65002,0-3,1.34998-3,3v2c0,1.64996,1.34998,3,3,3v9c0,1.64996,1.34998,3,3,3h38c1.65002,0,3-1.35004,3-3v-9c1.65002,0,3-1.35004,3-3v-2c0-1.65002-1.34998-3-3-3ZM52,50c0,.54999-.45001,1-1,1H13c-.54999,0-1-.45001-1-1v-9h5.76001c.39001,0,.72998.20996.89996.54999l.89001,1.78998c.51001,1.02002,1.54004,1.66003,2.69,1.66003h19.52002c1.14996,0,2.17999-.64001,2.69-1.66003l.89001-1.78998c.16998-.34003.50995-.54999.89996-.54999h5.76001v9ZM55,38c0,.54999-.45001,1-1,1h-7.76001c-1.14996,0-2.17999.64001-2.69,1.65997l-.89001,1.79004c-.16998.33997-.50995.54999-.89996.54999h-19.52002c-.39001,0-.72998-.21002-.89996-.54999l-.89001-1.79004c-.51001-1.01996-1.54004-1.65997-2.69-1.65997h-7.76001c-.54999,0-1-.45001-1-1v-2c0-.54999.45001-1,1-1h44c.54999,0,1,.45001,1,1v2Z"/>
  <path d="M57,14v2c0,1.64996-1.34998,3-3,3v9c0,1.64996-1.34998,3-3,3h-7c-.54999,0-1-.45001-1-1s.45001-1,1-1h7c.54999,0,1-.45001,1-1v-9h-5.76001c-.38,0-.71997.20996-.89996.56l-.90002,1.77997c-.51001,1.02002-1.53998,1.66003-2.67999,1.66003h-19.52002c-1.14001,0-2.16998-.64001-2.67999-1.66003l-.90002-1.77997c-.17999-.35004-.51996-.56-.89996-.56h-5.76001v9c0,.54999.45001,1,1,1h27c.54999,0,1,.45001,1,1s-.45001,1-1,1H13c-1.65002,0-3-1.35004-3-3v-9c-1.65002,0-3-1.35004-3-3v-2c0-1.65002,1.34998-3,3-3h8c.54999,0,1,.45001,1,1s-.45001,1-1,1h-8c-.54999,0-1,.45001-1,1v2c0,.54999.45001,1,1,1h7.76001c1.14001,0,2.16998.64001,2.67999,1.65997l.90002,1.78003c.17999.34998.51996.56.89996.56h19.52002c.38,0,.71997-.21002.89996-.56l.90002-1.78003c.51001-1.01996,1.53998-1.65997,2.67999-1.65997h7.76001c.54999,0,1-.45001,1-1v-2c0-.54999-.45001-1-1-1H22c-.54999,0-1-.45001-1-1s.45001-1,1-1h32c1.65002,0,3,1.34998,3,3Z"/>
</svg>