<?xml version="1.0" encoding="UTF-8"?>
<svg id="Outline" xmlns="http://www.w3.org/2000/svg" version="1.1" viewBox="0 0 64 64">
  <!-- Generator: Adobe Illustrator 29.5.1, SVG Export Plug-In . SVG Version: 2.1.0 Build 141)  -->
  <path d="M49,29v-1c0-5.77002-3.78003-10.67004-9-12.35999v-5.64001c0-1.65002-1.34998-3-3-3H15c-1.65002,0-3,1.34998-3,3v44c0,1.64996,1.34998,3,3,3h22c1.65002,0,3-1.35004,3-3v-12.37l3.01001-2.19c.84998-.61005,1.35999-1.60004,1.35999-2.65002,0-.51001-.10999-1-.33997-1.46997-.06006-.12-.14001-.21002-.20001-.32001h5.16998c1.65002,0,3-1.35004,3-3s-1.34998-3-3-3ZM47,28v1h-22v-1c0-6.07001,4.92999-11,11-11s11,4.92999,11,11ZM14,10c0-.54999.45001-1,1-1h22c.54999,0,1,.45001,1,1v1.17999c-.31-.10999-.65002-.17999-1-.17999H15c-.34998,0-.69.07001-1,.17999v-1.17999ZM14,14c0-.54999.45001-1,1-1h22c.54999,0,1,.45001,1,1v1.16998c-.65002-.09998-1.32001-.16998-2-.16998-7.16998,0-13,5.82996-13,13v1c-1.65002,0-3,1.34998-3,3,0,.66998.22998,1.28998.60999,1.78998l-1.69.75c-1.75.78998-3.07996,2.21002-3.72998,4.01001l-1.19,3.27002V14ZM38,54c0,.54999-.45001,1-1,1H15c-.54999,0-1-.45001-1-1v-1.17999c.31.10999.65002.17999,1,.17999h22c.34998,0,.69-.07001,1-.17999v1.17999ZM38,50c0,.54999-.45001,1-1,1h-14.57001l.44-1.21002c.52002-1.44,1.84003-2.46002,3.35999-2.60999l6.87-.69c.18005-.02002.35004-.09003.49005-.19l4.40997-3.21002v6.91003ZM41.84003,37.82001l-9.21002,6.69995-6.59998.67004c-2.29004.21997-4.27002,1.76001-5.04004,3.91998l-.69,1.89001h-5.29999c-.54999,0-1-.45001-1-1v-2.33002l3.07001-8.44c.46997-1.28998,1.41998-2.29999,2.66998-2.87l3.10004-1.38c.04999.01001.10999.02002.15997.02002h3.81c.03003.10999.04999.20996.04999.32996,0,.41003-.17999.79004-.5,1.06006l-4,3.32996c-.32001.27002-.44.71002-.29999,1.10999.14001.40002.52002.66003.94.66003h8c.19,0,.38-.04999.53998-.16003l8.86005-5.63995c.30997-.19999.67993-.24999,1.03988-.15005,1.01311.28128,1.23948,1.6694.40012,2.28006ZM28.84003,35h8.91998l-7.04999,4.48999h-4.95001l1.88-1.56c.77997-.66003,1.21997-1.60004,1.21997-2.60004,0-.10999-.01001-.21997-.01996-.32996ZM49,33h-26c-.54999,0-1-.45001-1-1s.45001-1,1-1h26c.54999,0,1,.45001,1,1s-.45001,1-1,1Z"/>
</svg>