<?xml version="1.0" encoding="UTF-8"?>
<svg id="Outline" xmlns="http://www.w3.org/2000/svg" version="1.1" viewBox="0 0 64 64">
  <!-- Generator: Adobe Illustrator 29.3.1, SVG Export Plug-In . SVG Version: 2.1.0 Build 151)  -->
  <path d="M21,19c-1.6543,0-3,1.3457-3,3s1.3457,3,3,3,3-1.3457,3-3-1.3457-3-3-3ZM21,23c-.55176,0-1-.44824-1-1s.44824-1,1-1,1,.44824,1,1-.44824,1-1,1Z"/>
  <path d="M21,15c-3.85938,0-7,3.14062-7,7,0,3.59277,5.61523,9.9541,6.25586,10.66797.18945.21094.45996.33203.74414.33203s.55469-.12109.74414-.33203c.64062-.71387,6.25586-7.0752,6.25586-10.66797,0-3.85938-3.14062-7-7-7ZM21,30.47461c-2.18359-2.58984-5-6.56641-5-8.47461,0-2.75684,2.24316-5,5-5s5,2.24316,5,5c0,1.90625-2.81641,5.88379-5,8.47461Z"/>
  <path d="M49.9949,40.03631c.00178-.03138.00249-.06257.00223-.09331-.03113-3.83295-3.15698-6.94299-6.99713-6.94299v-1c0-.55273-.44727-1-1-1s-1,.44727-1,1v1c-3.84015,0-6.96606,3.11011-6.99835,6.96698-.00006.01111-.00165.02185-.00165.03304.00004.14697.03995.31621.10547.44725l2,4c.16992.33887.51562.55273.89453.55273h10c.37891,0,.72461-.21387.89453-.55273,0,0,1.99741-3.99481,2.00001-4.00003.06248-.12498.09234-.26983.10036-.41093ZM41,35h2c2.41504,0,4.43457,1.7207,4.89941,4h-11.79883c.46484-2.2793,2.48438-4,4.89941-4ZM46.38184,43h-8.76367l-1-2h10.76367l-1,2Z"/>
  <path d="M51,27h-11V10c0-1.65002-1.34998-3-3-3H13c-1.65002,0-3,1.34998-3,3v13c0,.54999.45001,1,1,1s1-.45001,1-1v-10h26v14h-9c-.33002,0-.64001.16998-.83002.44-.17999.26996-.21997.62-.09998.92999l1.92999,4.82001v12.81c0,1.64996,1.34998,3,3,3h5v2H12v-20c0-.54999-.45001-1-1-1s-1,.45001-1,1v23c0,1.64996,1.34998,3,3,3h24c1.65002,0,3-1.35004,3-3v-5h11c1.65002,0,3-1.35004,3-3v-16c0-1.65002-1.34998-3-3-3ZM38,54c0,.54999-.45001,1-1,1H13c-.54999,0-1-.45001-1-1v-1h26v1ZM12,11v-1c0-.54999.45001-1,1-1h24c.54999,0,1,.45001,1,1v1H12ZM52,46c0,.54999-.45001,1-1,1h-18c-.54999,0-1-.45001-1-1v-13c0-.13-.02002-.25-.07001-.37l-1.45001-3.63h20.52002c.54999,0,1,.45001,1,1v16Z"/>
  <path d="M21,39c.55273,0,1-.44727,1-1v-2c0-.55273-.44727-1-1-1s-1,.44727-1,1v2c0,.55273.44727,1,1,1Z"/>
  <path d="M20,42c0,1.06543.57227,2.06055,1.49512,2.5957.15723.0918.33008.13574.50098.13574.34473,0,.67969-.17773.86523-.49805.27832-.47754.11523-1.08887-.3623-1.36621-.30762-.17969-.49902-.51172-.49902-.86719v-.9541c0-.55273-.44727-1-1-1s-1,.44727-1,1v.9541Z"/>
  <path d="M25,43c-.55273,0-1,.44727-1,1s.44727,1,1,1h2c.55273,0,1-.44727,1-1s-.44727-1-1-1h-2Z"/>
  <circle cx="11" cy="27" r="1"/>
</svg>