<?xml version="1.0" encoding="UTF-8"?>
<svg id="Outline" xmlns="http://www.w3.org/2000/svg" version="1.1" viewBox="0 0 64 64">
  <!-- Generator: Adobe Illustrator 29.3.1, SVG Export Plug-In . SVG Version: 2.1.0 Build 151)  -->
  <path d="M56.42999,44.87c.22998-.14001.40002-.35004.46002-.60999.07001-.26001.03998-.53003-.10004-.76001-1.19-2.07001-3.13-3.56-5.44-4.17999.15002-1.40002.25-2.81.25-4.25,0-3.21002-.38995-6.38-1.15997-9.44l-.15997-.63h2.71997c2.21002,0,4-1.79004,4-4s-1.78998-4-4-4h-5c-2.40997,0-4.42999,1.71997-4.90002,4h-3.09998c-.54999,0-1,.45001-1,1s.45001,1,1,1c0,0,2.9858,0,2.99994,0-.01441.00087.00194.59055.00263.63277.00456.27857-.01892.56458.10741.81725l.76001,1.51996c1.26001,2.52002,1.26001,5.54004,0,8.06-.5,1-1.19,1.86005-2.03998,2.56-.85004.71002-1.85004,1.23999-2.90002,1.53003-1.46997.42999-3.20001-.14001-4.14001-1.38-.33997-.47003-.52997-1.04999-.52997-1.63,0-.20001.02002-.37.04999-.54999l.17999-.92999c.38-1.87-.40997-3.77002-2.01001-4.84003-.01996-.01001-.03998-.02002-.06-.03998.36005-.48999.58002-1.09003.58002-1.75,0-.81-.32001-1.57001-.87-2.10999-.56-.57001-1.32001-.89001-2.13-.89001h-9v-2h4c.54999,0,1-.45001,1-1v-12c0-.54999-.45001-1-1-1h-14c-.54999,0-1,.45001-1,1v12c0,.54999.45001,1,1,1h4v2.17999c-1.15997.41998-2,1.52002-2,2.82001,0,.81.32001,1.57001.87,2.10999.34003.34003.75.58002,1.20001.72998-1.44,1.96002-2.60999,4.09003-3.46002,6.38-.51001,1.40002-.89996,2.81-1.14996,4.20001-2.09003,2.13-3.46002,4.73999-3.46002,7.58002,0,.54999.45001,1,1,1h5c0,3.85999,3.14001,7,7,7s7-3.14001,7-7h5c.54999,0,1-.45001,1-1,0-.34003-.02002-.67004-.03003-1h7.10004c-.22003,1.89996.15997,3.82001,1.14001,5.5.17999.32001.51996.5.85999.5.16998,0,.33997-.04004.5-.13l1.20001-.70001c1.17999,2.29999,3.57996,3.83002,6.22998,3.83002,3.85999,0,7-3.14001,7-7,0-1.37-.40002-2.67999-1.14001-3.81l.57001-.32001ZM53,19c1.09998,0,2,.89996,2,2,0,1.09998-.90002,2-2,2v-4ZM45,22c0-1.65002,1.34998-3,3-3h3v4h-6v-1ZM12,10h12v2h-12v-2ZM12,14h12v2h-12v-2ZM12,20v-2h12v2h-12ZM19,22v2h-2v-2h2ZM20,54c-2.76001,0-5-2.23999-5-5h2c0,1.64996,1.34998,3,3,3s3-1.35004,3-3h2c0,2.76001-2.23999,5-5,5ZM19,49h2c0,.54999-.45001,1-1,1s-1-.45001-1-1ZM9.07001,47c.28998-1.95001,1.39001-3.77002,2.94-5.32001.02002-.01001.02997-.02002.03998-.03998,2.82001-2.78003,7.14001-4.64001,10.95001-4.64001,5.73999,0,7.53998,4.5,7.91998,8.96997,0,.01001-.01001.02002-.01001.03003,0,.02997.01001.04999.02002.07996.02002.31006.03998.62006.04999.92004H9.07001ZM40.53003,45h-7.71002c-.79999-6.40002-4.28003-10-9.82001-10-3.33002,0-6.96997,1.22998-9.94,3.26001.14001-.45001.26001-.90002.42999-1.34003.92999-2.52002,2.26001-4.84998,3.97998-6.91998h1.53003c.54999,0,1-.45001,1-1s-.45001-1-1-1h-2.99995c-.52497,0-1.00005-.47939-1.00005-1,0-.54999.45001-1,1-1h14c.27002,0,.51001.09998.71002.31.19.17999.28998.41998.28998.69,0,.54999-.45001,1-1,1h-3c-.54999,0-1,.45001-1,1s.45001,1,1,1h2.96997c.5.01996.98004.16998,1.40002.45001.91998.62,1.38,1.70996,1.16003,2.78998l-.18005.92999c-.06.29999-.08997.60999-.08997.94,0,1.00999.33,2.00997.92995,2.81995,1.36515,1.84308,4.06769,2.76376,6.29002,2.11004,1.31-.35999,2.56-1.02997,3.62-1.90997,1.07001-.87,1.93005-1.95001,2.55005-3.20001,1.54999-3.09003,1.54999-6.77002,0-9.85999l-.03003-.07001h2.59998l.28003,1.10999c.72998,2.90002,1.09998,5.91998,1.09998,8.96002,0,1.32996-.08997,2.64996-.22998,3.94995-1.69-.07996-3.37.32001-4.87,1.19-1.87,1.08002-3.26001,2.76001-3.96997,4.79004ZM42.5,50.59998c-.56-1.39001-.65002-2.92999-.26001-4.40997.48999-1.81,1.65002-3.32001,3.26001-4.25,1.07001-.62,2.27002-.94,3.47998-.94.61005,0,1.22003.07996,1.83002.23999,1.47998.40002,2.76001,1.25,3.69,2.42999l-12,6.92999ZM51,49c0,.54999-.45001,1-1,1-.5,0-.90002-.38-.96997-.85999l1.58997-.92004c.22998.19.38.47003.38.78003ZM50,54c-1.92999,0-3.67999-1.13-4.5-2.83002l1.73999-1c.46002,1.08002,1.52002,1.83002,2.76001,1.83002,1.65002,0,3-1.35004,3-3,0-.66003-.22998-1.29004-.60999-1.79999l1.72998-1c.56.81995.88,1.78998.88,2.79999,0,2.76001-2.23999,5-5,5Z"/>
  <circle cx="23" cy="29" r="1"/>
</svg>