<?xml version="1.0" encoding="UTF-8"?>
<svg id="Outline" xmlns="http://www.w3.org/2000/svg" version="1.1" viewBox="0 0 48 48">
  <!-- Generator: Adobe Illustrator 29.5.1, SVG Export Plug-In . SVG Version: 2.1.0 Build 141)  -->
  <path d="M39.89,31.55l-3-6c-.16-.34-.51-.55-.89-.55h-2.38l1.27-2.55c.07-.14.11-.29.11-.45v-7h1c.55,0,1-.45,1-1v-2c0-1.65-1.35-3-3-3h-6v-2h1c.55,0,1-.45,1-1s-.45-1-1-1h-10c-.55,0-1,.45-1,1s.45,1,1,1h1v2h-6c-1.65,0-3,1.35-3,3v2c0,.55.45,1,1,1h1v7c0,.16.04.31.11.45l1.27,2.55h-2.38c-.38,0-.73.21-.89.55l-3,6c-.07.14-.11.29-.11.45v6c0,.55.45,1,1,1h1v3c0,.55.45,1,1,1h4c.55,0,1-.45,1-1v-3h16v3c0,.55.45,1,1,1h4c.55,0,1-.45,1-1v-3h1c.55,0,1-.45,1-1v-6c0-.16-.04-.31-.11-.45ZM22,7h4v2h-4v-2ZM13,13v-1c0-.55.45-1,1-1h20c.55,0,1,.45,1,1v1H13ZM33,15v6.76l-1.62,3.24h-14.76l-1.62-3.24v-6.76h18ZM14,41h-2v-2h2v2ZM36,41h-2v-2h2v2ZM38,33h-9c-.55,0-1,.45-1,1s.45,1,1,1h9v2H10v-2h9c.55,0,1-.45,1-1s-.45-1-1-1h-9v-.76l2.62-5.24h22.76l2.62,5.24v.76Z"/>
  <path d="M24,29c-1.654,0-3,1.346-3,3s1.346,3,3,3,3-1.346,3-3-1.346-3-3-3ZM24,33c-.551,0-1-.448-1-1s.449-1,1-1,1,.448,1,1-.449,1-1,1Z"/>
</svg>