<?xml version="1.0" encoding="UTF-8"?>
<svg id="Outline" xmlns="http://www.w3.org/2000/svg" version="1.1" viewBox="0 0 48 48">
  <!-- Generator: Adobe Illustrator 29.5.1, SVG Export Plug-In . SVG Version: 2.1.0 Build 141)  -->
  <path d="M10,35c.552,0,1-.448,1-1v-2h3c.552,0,1-.448,1-1s-.448-1-1-1h-3v-1h3c.552,0,1-.448,1-1s-.448-1-1-1h-4c-.552,0-1,.448-1,1v6c0,.552.448,1,1,1Z"/>
  <path d="M20,35c1.654,0,3-1.346,3-3v-2c0-1.654-1.346-3-3-3s-3,1.346-3,3v2c0,1.654,1.346,3,3,3ZM19,30c0-.551.449-1,1-1s1,.449,1,1v2c0,.551-.449,1-1,1s-1-.449-1-1v-2Z"/>
  <path d="M28,35c1.654,0,3-1.346,3-3v-2c0-1.654-1.346-3-3-3s-3,1.346-3,3v2c0,1.654,1.346,3,3,3ZM27,30c0-.551.449-1,1-1s1,.449,1,1v2c0,.551-.449,1-1,1s-1-.449-1-1v-2Z"/>
  <path d="M34,35h1c2.206,0,4-1.794,4-4s-1.794-4-4-4h-1c-.552,0-1,.448-1,1v6c0,.552.448,1,1,1ZM35,29c1.103,0,2,.897,2,2s-.897,2-2,2v-4Z"/>
  <path d="M42.997,19.939c-.012-.153-.062-.305-.137-.439l-6.89-11.83c-.17-1.5-1.43-2.67-2.97-2.67H15c-1.54,0-2.8,1.17-2.97,2.67l-6.89,11.83c-.01.02-.02.04-.03.06-.056.112-.1.253-.1.38,0,.02-.01.04-.01.06v20c0,1.65,1.35,3,3,3h32c1.65,0,3-1.35,3-3,0,0,0-20,0-20,0-.02,0-.04-.003-.06ZM36,11.7l2.15,3.68-2.15-1.84v-1.84ZM14,8c0-.55.45-1,1-1h18c.55,0,1,.45,1,1v5H14v-5ZM12,11.7v1.84l-2.15,1.84,2.15-3.68ZM13.37,15h21.26l4.67,4H8.7l4.67-4ZM41,40c0,.55-.45,1-1,1H8c-.55,0-1-.45-1-1v-1h34v1ZM41,37H7v-12h34v12ZM41,23H7v-2h34v2Z"/>
  <path d="M31,9h-14c-.552,0-1,.448-1,1s.448,1,1,1h14c.552,0,1-.448,1-1s-.448-1-1-1Z"/>
</svg>