<?xml version="1.0" encoding="UTF-8"?>
<svg id="Outline" xmlns="http://www.w3.org/2000/svg" version="1.1" viewBox="0 0 64 64">
  <!-- Generator: Adobe Illustrator 29.5.1, SVG Export Plug-In . SVG Version: 2.1.0 Build 141)  -->
  <path d="M56.912,38.68c-1.11-6.18-3.87-12.1-7.96-17.21l2.01-2.01c.39-.39.39-1.03,0-1.42-.39-.39-1.03-.39-1.42,0l-4.54,4.55-6.54-6.55c-1.61-1.61-1.61-4.22,0-5.83s4.22-1.61,5.83,0c.39.39,1.03.39,1.42,0,1.61-1.61,4.22-1.61,5.83,0,1.34,1.33,1.59,3.46.61,5.06-.29.47-.14,1.08.33,1.37.47.29,1.08.15,1.37-.33,1.49-2.41,1.12-5.51-.89-7.52-2.17-2.16-5.57-2.37-7.96-.6-2.4-1.77-5.79-1.56-7.96.6-.55.56-.96,1.19-1.26,1.87-3.34-1.72-6.86-2.92-10.46-3.57-1.58-.29-3.18.14-4.4,1.16-1.22,1.02-1.92,2.5-1.92,4.07,0,.29.02.59.07.89.27,1.59,1.22,2.92,2.51,3.71L7.062,55.65c-.13.36-.05.77.23,1.05.19.19.45.3.71.3.11,0,.22-.02.33-.06l28.31-9.91c.52-.18.8-.75.61-1.27-.18-.52-.75-.8-1.27-.61l-3.09,1.08c-1.28-1.99-3.5-3.23-5.89-3.23-3.86,0-7,3.14-7,7,0,.24.02.48.04.72l-10.35,3.63,2.76-7.37c3.65-.24,6.55-3.27,6.55-6.98,0-1.88-.75-3.65-2.07-4.96l6.52-17.42c.07.01.14.04.2.04,11.77,1.38,21.31,10.92,22.69,22.69.04.37.14.73.26,1.08l-6.82,2.39c-.52.18-.8.75-.61,1.27.183.501.764.794,1.27.61l7.21-2.51c.8.89,1.89,1.52,3.15,1.74.3.05.59.07.89.07,1.41,0,2.75-.56,3.76-1.59,1.23-1.24,1.77-3,1.46-4.73ZM22.002,50c0-2.76,2.24-5,5-5,1.54,0,2.98.73,3.92,1.92l-8.92,3.12v-.04ZM17.002,40c0,2.32-1.6,4.26-3.74,4.82l2.86-7.64c.57.83.88,1.8.88,2.82ZM54.032,42.01c-.77.78-1.83,1.13-2.9.94-1.49-.25-2.64-1.41-2.81-2.84-1.5-12.88-11.55-22.93-24.44-24.43-1.42-.17-2.58-1.32-2.83-2.8-.03-.19-.05-.38-.05-.56,0-.98.44-1.9,1.2-2.54.77-.64,1.77-.91,2.76-.73,3.57.65,7.04,1.87,10.34,3.61-.13,1.72.43,3.49,1.74,4.8l7.25,7.25c.2.19.45.29.71.29s.51-.1.71-.29l1.81-1.82c3.82,4.81,6.39,10.36,7.43,16.15.19,1.09-.14,2.18-.92,2.97Z"/>
  <path d="M23.002,31c-1.654,0-3,1.346-3,3s1.346,3,3,3,3-1.346,3-3-1.346-3-3-3ZM23.002,35c-.551,0-1-.448-1-1s.449-1,1-1,1,.448,1,1-.449,1-1,1Z"/>
  <path d="M31.002,28v-2c0-.552.449-1,1-1s1-.447,1-1-.448-1-1-1c-1.654,0-3,1.346-3,3v2c0,.552-.449,1-1,1s-1-.448-1-1v-4c0-1.654-1.346-3-3-3-.552,0-1,.447-1,1s.448,1,1,1,1,.448,1,1v4c0,1.654,1.346,3,3,3s3-1.346,3-3Z"/>
  <path d="M37.002,41c1.654,0,3-1.346,3-3v-2c0-.552.449-1,1-1s1-.447,1-1-.448-1-1-1c-1.654,0-3,1.346-3,3v2c0,.552-.449,1-1,1s-1-.448-1-1v-4c0-1.654-1.346-3-3-3-.552,0-1,.447-1,1s.448,1,1,1,1,.448,1,1v4c0,1.654,1.346,3,3,3Z"/>
</svg>