<?xml version="1.0" encoding="UTF-8"?>
<svg id="Outline" xmlns="http://www.w3.org/2000/svg" version="1.1" viewBox="0 0 64 64">
  <!-- Generator: Adobe Illustrator 29.3.1, SVG Export Plug-In . SVG Version: 2.1.0 Build 151)  -->
  <circle cx="16" cy="46" r="1"/>
  <circle cx="48" cy="46" r="1"/>
  <path d="M56.71002,25.28998l-8-8c-.19-.17999-.44-.28998-.71002-.28998h-7v-1c0-1.65002-1.34998-3-3-3h-12c-.54999,0-1,.45001-1,1s.45001,1,1,1h12c.54999,0,1,.45001,1,1v21H9v-21c0-.54999.45001-1,1-1h8c.54999,0,1-.45001,1-1s-.45001-1-1-1h-8c-1.65002,0-3,1.34998-3,3v26c0,1.64996,1.34998,3,3,3h1.09998c-.06.32001-.09998.65997-.09998,1,0,2.76001,2.23999,5,5,5s5-2.23999,5-5c0-.34003-.03998-.67999-.09998-1h22.19995c-.06.32001-.09998.65997-.09998,1,0,2.76001,2.23999,5,5,5s5-2.23999,5-5c0-.34003-.03998-.67999-.09998-1h3.09998c.54999,0,1-.45001,1-1v-18c0-.27002-.10999-.52002-.28998-.71002ZM16,49c-1.65002,0-3-1.35004-3-3s1.34998-3,3-3,3,1.34998,3,3-1.34998,3-3,3ZM39,43h-19.03003c-.90997-1.21002-2.33997-2-3.96997-2s-3.06.78998-3.96997,2h-2.03003c-.54999,0-1-.45001-1-1v-3h30v4ZM48,49c-1.65002,0-3-1.35004-3-3s1.34998-3,3-3,3,1.34998,3,3-1.34998,3-3,3ZM55,37h-2v-2h2v2ZM55,33h-3c-.54999,0-1,.45001-1,1v4c0,.54999.45001,1,1,1h3v4h-3.02002c-.91998-1.21002-2.34998-2-3.97998-2s-3.06.78998-3.96997,2h-3.03003v-24h6.59003l2,2h-5.59003c-.54999,0-1,.45001-1,1v8c0,.54999.45001,1,1,1h11v2ZM55,29h-10v-6h6.59003l3.40997,3.40997v2.59003Z"/>
  <path d="M46,33h-2c-.55225,0-1,.44775-1,1s.44775,1,1,1h2c.55225,0,1-.44775,1-1s-.44775-1-1-1Z"/>
  <path d="M36.99903,21.95949c-.00665-.14062-.04715-.28578-.10902-.4095l-2-4c-.16003-.34003-.51001-.54999-.89001-.54999H14c-.38,0-.72998.20996-.89001.54999,0,0-2,4-2.00011,4.00011-.05198.05237-.05557.13101-.06914.19924-.01657.08335-.04074.1649-.04074.25067v1c0,1.01001.39001,1.90997,1,2.62v8.38c0,.54999.45001,1,1,1h22c.54999,0,1-.45001,1-1v-8.38c.60999-.71002,1-1.60999,1-2.62,0,0,0-.99945,0-1.00001,0-.01344-.00033-.02695-.00097-.04051ZM14.62,19h18.76001l1,2H13.62l1-2ZM29,23c0,1.09998-.90002,2-2,2s-2-.90002-2-2h4ZM23,23c0,1.09998-.90002,2-2,2s-2-.90002-2-2h4ZM13,23h4c0,1.09998-.90002,2-2,2s-2-.90002-2-2ZM34,33H14v-6.14001c.32001.08002.65002.14001,1,.14001,1.20001,0,2.27002-.54004,3-1.38.72998.83997,1.79999,1.38,3,1.38s2.27002-.54004,3-1.38c.72998.83997,1.79999,1.38,3,1.38s2.27002-.54004,3-1.38c.72998.83997,1.79999,1.38,3,1.38.34998,0,.67999-.06,1-.14001v6.14001ZM33,25c-1.09998,0-2-.90002-2-2h4c0,1.09998-.90002,2-2,2Z"/>
  <circle cx="22" cy="14" r="1"/>
</svg>