<?xml version="1.0" encoding="UTF-8"?>
<svg id="Outline" xmlns="http://www.w3.org/2000/svg" version="1.1" viewBox="0 0 64 64">
  <!-- Generator: Adobe Illustrator 29.5.1, SVG Export Plug-In . SVG Version: 2.1.0 Build 141)  -->
  <path d="M32,7c-12.68,0-23,10.32-23,23,0,7.62,3.73,14.66,10,18.96v3.04c0,2.76,2.24,5,5,5,2.49,0,4.55-1.84,4.92-4.23,1.01.14,2.03.23,3.08.23s2.07-.09,3.08-.23c.37,2.39,2.43,4.23,4.92,4.23,2.76,0,5-2.24,5-5v-3.04c6.27-4.3,10-11.34,10-18.96,0-12.68-10.32-23-23-23ZM27,52c0,1.65-1.35,3-3,3s-3-1.35-3-3v-9h6v9ZM26,41h-4c-.55,0-1-.45-1-1s.45-1,1-1h4c.55,0,1,.45,1,1s-.45,1-1,1ZM23,37v-2.09c.33.05.66.09,1,.09s.67-.04,1-.09v2.09h-2ZM35,50.76c-1.95.29-4.05.29-6,0v-2.01c.99.16,1.99.25,3,.25,1,0,2-.08,3-.24v2ZM43,52c0,1.65-1.35,3-3,3s-3-1.35-3-3v-6h6v6ZM36.83,36.21c-1.22-.79-1.83-2.2-1.83-4.21,0-3.93,2.42-9,5-9s5,5.07,5,9c0,2.01-.61,3.42-1.82,4.21-1.28.82-2.07,2.23-2.17,3.79h-2.02c-.1-1.56-.89-2.97-2.16-3.79ZM42,44h-4c-.55,0-1-.45-1-1s.45-1,1-1h4c.55,0,1,.45,1,1s-.45,1-1,1ZM45,46.48v-1.48c0-.28-.12-.53-.3-.71.05-.1.08-.2.12-.31,3.92-3.59,6.18-8.66,6.18-13.98,0-10.48-8.52-19-19-19-3.6,0-7.11,1.02-10.14,2.95-.46.29-.6.91-.3,1.38.29.46.91.6,1.38.3,2.7-1.72,5.84-2.63,9.06-2.63,9.37,0,17,7.63,17,17,0,4.25-1.6,8.33-4.45,11.44-.35-.57-.89-1.02-1.53-1.25.04-.95.5-1.82,1.24-2.31,1.25-.81,2.74-2.48,2.74-5.88,0-4.48-2.73-11-7-11s-7,6.52-7,11c0,3.4,1.49,5.07,2.74,5.88.74.49,1.2,1.36,1.24,2.31-1.15.42-1.98,1.51-1.98,2.81,0,.46.11.9.3,1.29-.18.18-.3.43-.3.71v1.71c-2,.35-4.04.35-6-.01v-4.7c0-.28-.12-.53-.3-.71.19-.39.3-.83.3-1.29,0-1.3-.84-2.4-2-2.82v-2.99c1.79-1.04,3-2.97,3-5.19v-5c0-.55-.45-1-1-1s-1,.45-1,1v5c0,1.86-1.28,3.41-3,3.86v-8.86c0-.55-.45-1-1-1s-1,.45-1,1v8.86c-1.72-.45-3-2-3-3.86v-5c0-.55-.45-1-1-1s-1,.45-1,1v5c0,2.22,1.21,4.15,3,5.19v2.99c-1.16.42-2,1.52-2,2.82,0,.45.11.87.28,1.25-2.73-3.09-4.28-7.09-4.28-11.25,0-3.22.91-6.36,2.63-9.06.3-.47.16-1.09-.3-1.38-.47-.3-1.09-.16-1.38.3-1.93,3.03-2.95,6.54-2.95,10.14,0,5.23,2.19,10.23,6,13.81v2.67c-5.04-3.97-8-9.99-8-16.48,0-11.58,9.42-21,21-21s21,9.42,21,21c0,6.49-2.96,12.51-8,16.48Z"/>
  <path d="M18.565,16.565c-.391.391-.391,1.024,0,1.414.391.391,1.024.391,1.414,0,.391-.391.391-1.024,0-1.414-.391-.391-1.024-.391-1.414,0Z"/>
</svg>