<?xml version="1.0" encoding="UTF-8"?>
<svg id="Outline" xmlns="http://www.w3.org/2000/svg" version="1.1" viewBox="0 0 64 64">
  <!-- Generator: Adobe Illustrator 29.5.1, SVG Export Plug-In . SVG Version: 2.1.0 Build 141)  -->
  <path d="M53,24h-1.05c-.51-6.15-5.67-11-11.95-11-2.86,0-5.61,1.03-7.76,2.86-.76-1.43-2.04-2.56-3.62-3.09-.34-3.24-3.08-5.77-6.4-5.77s-6.07,2.53-6.41,5.77c-2.58.87-4.38,3.32-4.38,6.1,0,2.04,1,3.93,2.61,5.13h-3.04c-.55,0-1,.45-1,1v2c0,1.65,1.35,3,3,3h15v3.53c-6.89,1.78-12,8.03-12,15.47v7c0,.55.45,1,1,1h30c.55,0,1-.45,1-1v-4c0-.55-.45-1-1-1s-1,.45-1,1v3h-28v-6c0-7.72,6.28-14,14-14,3.74,0,7.25,1.46,9.89,4.11,2.41,2.4,3.86,5.58,4.07,8.95.04.56.51.99,1.06.94.56-.04.97-.51.94-1.06-.25-3.87-1.9-7.51-4.65-10.25-2.05-2.05-4.57-3.46-7.31-4.17v-3.52h6c.55,0,1-.45,1-1s-.45-1-1-1H13c-.55,0-1-.45-1-1v-1h40v1c0,.55-.45,1-1,1h-5c-.55,0-1,.45-1,1s.45,1,1,1h5c1.65,0,3-1.35,3-3v-2c0-.55-.45-1-1-1ZM30,30h4v3.14c-.66-.08-1.32-.14-2-.14s-1.34.06-2,.14v-3.14ZM28.08,23.02c-.31.12-.54.38-.62.69-.02.1-.03.19-.02.29h-4.22v-1.43l4.51-2.71c.48-.29.63-.9.34-1.37-.28-.48-.89-.63-1.37-.35l-3.48,2.09v-7.23c0-.55-.45-1-1-1s-1,.45-1,1v7.23l-3.49-2.09c-.47-.28-1.09-.13-1.37.35-.28.47-.13,1.08.34,1.37l4.52,2.71v1.43h-4.22c.01-.1,0-.19-.02-.29-.08-.31-.31-.57-.62-.69-1.75-.65-2.93-2.31-2.93-4.15,0-2.1,1.5-3.93,3.56-4.35.46-.09.8-.5.8-.98,0-.06-.01-.11-.01-.11,0-2.44,1.99-4.43,4.44-4.43s4.43,1.99,4.43,4.36c0,.05-.01.14-.01.18,0,.48.34.89.8.98,2.06.41,3.56,2.24,3.56,4.35,0,1.84-1.17,3.51-2.92,4.15ZM30.4,24c1.6-1.2,2.6-3.09,2.6-5.13,0-.31-.03-.61-.07-.91,1.86-1.88,4.4-2.96,7.07-2.96,5.18,0,9.45,3.95,9.95,9h-19.55Z"/>
  <path d="M40,21c.552,0,1-.448,1-1v-2c0-.552-.448-1-1-1s-1,.448-1,1v2c0,.552.448,1,1,1Z"/>
  <path d="M35.757,22.171c.195.195.451.293.706.293.878,0,1.326-1.089.708-1.707l-1.414-1.414c-.391-.391-1.023-.391-1.414,0s-.391,1.023,0,1.414l1.414,1.414Z"/>
  <path d="M43.536,22.463c.256,0,.513-.097.707-.291l1.414-1.414c.391-.391.391-1.023,0-1.414s-1.023-.391-1.414,0l-1.414,1.414c-.6.6-.14,1.706.707,1.705Z"/>
  <path d="M24,45c0,4.411,3.589,8,8,8s8-3.589,8-8-3.589-8-8-8-8,3.589-8,8ZM32,44c.551,0,1,.449,1,1s-.449,1-1,1-1-.449-1-1,.449-1,1-1ZM38,45c0,3.309-2.691,6-6,6s-6-2.691-6-6c0-2.967,2.167-5.431,5-5.91v3.094c-1.161.414-2,1.514-2,2.816,0,1.654,1.346,3,3,3s3-1.346,3-3c0-1.302-.839-2.402-2-2.816v-3.094c2.833.478,5,2.942,5,5.91Z"/>
</svg>