<?xml version="1.0" encoding="UTF-8"?>
<svg id="Outline" xmlns="http://www.w3.org/2000/svg" version="1.1" viewBox="0 0 64 64">
  <!-- Generator: Adobe Illustrator 29.5.1, SVG Export Plug-In . SVG Version: 2.1.0 Build 141)  -->
  <path d="M56.71,27.79l-8-8c-.19-.18-.44-.29-.71-.29h-7v-2c0-1.65-1.35-3-3-3h-17c-.55,0-1,.45-1,1s.45,1,1,1h17c.55,0,1,.45,1,1v19H9v-19c0-.55.45-1,1-1h3c.55,0,1-.45,1-1s-.45-1-1-1h-3c-1.65,0-3,1.35-3,3v25c0,1.65,1.35,3,3,3h1.1c.47,2.28,2.49,4,4.9,4s4.43-1.72,4.9-4h22.2c.47,2.28,2.49,4,4.9,4s4.43-1.72,4.9-4h1.1c1.65,0,3-1.35,3-3v-14c0-.27-.11-.52-.29-.71ZM16,47.5c-1.65,0-3-1.35-3-3s1.35-3,3-3,3,1.35,3,3-1.35,3-3,3ZM39,43.5h-18.1c-.47-2.28-2.49-4-4.9-4s-4.43,1.72-4.9,4h-1.1c-.55,0-1-.45-1-1v-4h30v5ZM45,21.5h2.59l6,6h-8.59v-6ZM48,47.5c-1.65,0-3-1.35-3-3s1.35-3,3-3,3,1.35,3,3-1.35,3-3,3ZM55,42.5c0,.55-.45,1-1,1h-1.1c-.47-2.28-2.49-4-4.9-4s-4.43,1.72-4.9,4h-2.1v-22h2v7c0,.55.45,1,1,1h11v13Z"/>
  <path d="M43,32.5c0,.553.448,1,1,1h2c.552,0,1-.447,1-1s-.448-1-1-1h-2c-.552,0-1,.447-1,1Z"/>
  <circle cx="16" cy="44.5" r="1"/>
  <circle cx="48" cy="44.5" r="1"/>
  <path d="M32,28.5h-1c0-4.07-3.06-7.44-7-7.93v-1.07c0-.55-.45-1-1-1s-1,.45-1,1v1.07c-3.94.49-7,3.86-7,7.93h-1c-.55,0-1,.45-1,1v4c0,.55.45,1,1,1h18c.55,0,1-.45,1-1v-4c0-.55-.45-1-1-1ZM23,22.5c3.31,0,6,2.69,6,6h-12c0-3.31,2.69-6,6-6ZM31,32.5H15v-2h16v2Z"/>
  <circle cx="17" cy="15.5" r="1"/>
</svg>