<?xml version="1.0" encoding="UTF-8"?>
<svg id="Outline" xmlns="http://www.w3.org/2000/svg" version="1.1" viewBox="0 0 64 64">
  <!-- Generator: Adobe Illustrator 29.3.1, SVG Export Plug-In . SVG Version: 2.1.0 Build 151)  -->
  <path d="M56,37h-1.38l-1.72998-3.45001c-.17004-.34003-.51001-.54999-.89001-.54999h-12c-.38,0-.71997.20996-.89001.54999l-1.72998,3.45001h-1.38c-.54999,0-1,.45001-1,1v4c0,.54999.45001,1,1,1h1.13l1.88,13.14001c.07001.48999.48999.85999.98999.85999h12c.5,0,.91998-.37.98999-.85999l1.88-13.14001h1.13c.54999,0,1-.45001,1-1v-4c0-.54999-.45001-1-1-1ZM40.62,35h10.76001l1,2h-12.76001l1-2ZM55,41h-4c-.54999,0-1,.45001-1,1s.45001,1,1,1h1.84998l-1.71997,12h-10.26001l-1.71997-12h3.84998c.54999,0,1-.45001,1-1s-.45001-1-1-1h-6v-2h18v2Z"/>
  <path d="M17,14c0-1.6543-1.3457-3-3-3s-3,1.3457-3,3,1.3457,3,3,3,3-1.3457,3-3ZM13,14c0-.55176.44824-1,1-1s1,.44824,1,1-.44824,1-1,1-1-.44824-1-1Z"/>
  <path d="M14,25c.28418,0,.55469-.12109.74414-.33203.64062-.71387,6.25586-7.0752,6.25586-10.66797,0-3.85938-3.14062-7-7-7s-7,3.14062-7,7c0,3.59277,5.61523,9.9541,6.25586,10.66797.18945.21094.45996.33203.74414.33203ZM14,9c2.75684,0,5,2.24316,5,5,0,1.90625-2.81641,5.88379-5,8.47461-2.18359-2.58984-5-6.56641-5-8.47461,0-2.75684,2.24316-5,5-5Z"/>
  <path d="M19,23c-.55273,0-1,.44727-1,1s.44727,1,1,1h2c.55273,0,1-.44727,1-1s-.44727-1-1-1h-2Z"/>
  <path d="M32.99609,29.29688c.02344.53711.4668.95605.99805.95605.01562,0,.03027,0,.04492-.00098.55176-.02441.97949-.49121.95508-1.04297-.07031-1.58105-.71484-3.08008-1.81445-4.2207-.38379-.39746-1.01562-.4082-1.41406-.02539-.39746.38379-.40918,1.0166-.02539,1.41406.76074.78906,1.20703,1.82617,1.25586,2.91992Z"/>
  <path d="M9.03906,39.89746c.14551-1.08301.68262-2.07715,1.51367-2.79688.41699-.3623.46191-.99414.10059-1.41113-.36328-.41699-.99414-.46191-1.41113-.10059-1.19922,1.04102-1.97559,2.47656-2.18555,4.04297-.07324.54688.31055,1.05078.8584,1.12402.04492.00586.08984.00879.13379.00879.49316,0,.92285-.36523.99023-.86719Z"/>
  <path d="M24.97363,25h3.52637c.12109,0,.24219.00488.36133.01465.0293.00293.05859.00391.08691.00391.51367,0,.9502-.39355.99512-.91406.04785-.55078-.36035-1.03516-.91016-1.08203-.17578-.01562-.35352-.02246-.5332-.02246h-3.52637c-.55273,0-1,.44727-1,1s.44727,1,1,1Z"/>
  <path d="M26.4668,35c0-.55273-.44727-1-1-1h-3.97363c-.55273,0-1,.44727-1,1s.44727,1,1,1h3.97363c.55273,0,1-.44727,1-1Z"/>
  <path d="M12.33984,44.84961c-1.05566-.28027-1.97461-.93945-2.58594-1.85449-.30566-.45898-.92578-.58398-1.38672-.27539-.45898.30664-.58301.92773-.27539,1.38672.88086,1.31934,2.20703,2.26953,3.73438,2.67676.08594.02246.17188.0332.25781.0332.44141,0,.84668-.29492.96582-.74316.1416-.5332-.17578-1.08105-.70996-1.22363Z"/>
  <path d="M33.56445,33.57422c.3457-.42969.27832-1.05957-.15234-1.40625-.42969-.3457-1.05859-.27637-1.40625.15234-.68945.85645-1.66211,1.42969-2.73828,1.61523-.5449.09375-.91013.61031-.81642,1.15424.09028.52401.62809.90719,1.15431.81647,1.55762-.26758,2.96387-1.0957,3.95898-2.33203Z"/>
  <path d="M27.96191,45h-3.97363c-.55273,0-1,.44727-1,1s.44727,1,1,1h3.97363c.55273,0,1-.44727,1-1s-.44727-1-1-1Z"/>
  <path d="M18.51953,35c0-.55273-.44727-1-1-1h-3.97461c-.55273,0-1,.44727-1,1s.44727,1,1,1h3.97461c.55273,0,1-.44727,1-1Z"/>
  <path d="M20.01465,45h-3.97461c-.55273,0-1,.44727-1,1s.44727,1,1,1h3.97461c.55273,0,1-.44727,1-1s-.44727-1-1-1Z"/>
  <path d="M34,45h-2c-.55273,0-1,.44727-1,1s.44727,1,1,1h2c.55273,0,1-.44727,1-1s-.44727-1-1-1Z"/>
  <circle cx="47" cy="42" r="1"/>
</svg>