<?xml version="1.0" encoding="UTF-8"?>
<svg id="Outline" xmlns="http://www.w3.org/2000/svg" version="1.1" viewBox="0 0 64 64">
  <!-- Generator: Adobe Illustrator 29.3.1, SVG Export Plug-In . SVG Version: 2.1.0 Build 151)  -->
  <path d="M46.00043,27.50059h-30c-.54999,0-1,.45001-1,1v8c0,.01996.01001.03998.01001.04999l-1.09003.48999c-1.75.78998-3.07996,2.21002-3.72998,4.01001l-3.13,8.59998c-.19.52002.08002,1.09003.59998,1.28003.11005.03998.23004.06.34003.06.40997,0,.78998-.25.94-.66003l3.13-8.59998c.46997-1.27997,1.41998-2.29999,2.66998-2.87l3.07001-1.35999h4c.03003.10999.04999.20996.04999.32996,0,.41003-.17999.79004-.5,1.06006l-4,3.32996c-.32001.27002-.44.71002-.29999,1.10999.14001.40002.52002.66003.94.66003h8c.19,0,.38-.04999.53998-.16003l8.86005-5.63995c.30997-.2.67993-.24999,1.03989-.15005.99363.27589,1.25626,1.65718.40011,2.28005l-9.21002,6.69995-6.59998.66003c-2.29004.22998-4.27002,1.77002-5.04004,3.92999l-.92999,2.54999c-.19.52002.08002,1.09003.59998,1.28003.51474.18699,1.09254-.08762,1.28002-.60004l.92999-2.54999c.52002-1.44,1.84003-2.46002,3.35999-2.62l6.87-.67999c.18005-.02002.35004-.09003.49005-.19l9.41998-6.85999c.84998-.61005,1.35999-1.60004,1.35999-2.65002,0-.51001-.10999-1-.33997-1.46997-.06006-.12-.14001-.21002-.20001-.32001h7.16998c.54999,0,1-.45001,1-1v-8c0-.54999-.45001-1-1-1ZM36.38043,29.50059l-1,2h-8.76001l-1-2h10.76001ZM25.71045,41.99058h-4.95001l1.88-1.57001c.77997-.65002,1.21997-1.59003,1.21997-2.59003,0-.10999-.01001-.21997-.01996-.32996h8.91998l-7.04999,4.48999ZM45.00043,35.50059h-28v-6h6.38l1.72998,3.45001c.17004.33997.51001.54999.89001.54999h10c.38,0,.71997-.21002.89001-.54999l1.72998-3.45001h6.38v6Z"/>
  <path d="M54.34027,8.50059h-12.33984c-.55273,0-1,.44727-1,1s.44727,1,1,1h12.33984c.37012,0,.66016.29004.66016.66016v11.67969c0,.37012-.29004.66016-.66016.66016h-24.67969c-.37012,0-.66016-.29004-.66016-.66016v-11.67969c0-.37012.29004-.66016.66016-.66016h4.33984c.55273,0,1-.44727,1-1s-.44727-1-1-1h-4.33984c-1.4668,0-2.66016,1.19336-2.66016,2.66016v11.67969c0,1.4668,1.19336,2.66016,2.66016,2.66016h24.67969c1.4668,0,2.66016-1.19336,2.66016-2.66016v-11.67969c0-1.4668-1.19336-2.66016-2.66016-2.66016Z"/>
  <path d="M33.08051,13.45078c0,.5957-.48438,1.08008-1.08008,1.08008-.55273,0-1,.44727-1,1v2.76953c0,.55273.44727,1,1,1,.5957,0,1.08008.48047,1.08008,1.07031,0,.55273.44727,1,1,1h15.83984c.55273,0,1-.44727,1-1,0-.58984.48438-1.07031,1.08008-1.07031.55273,0,1-.44727,1-1v-2.76953c0-.55273-.44727-1-1-1-.5957,0-1.08008-.48438-1.08008-1.08008,0-.55273-.44727-1-1-1h-15.83984c-.55273,0-1,.44727-1,1ZM42.00043,14.50059c.69531,0,1.4707.99023,1.4707,2.41211,0,1.4209-.77539,2.41113-1.4707,2.41113s-1.4707-.99023-1.4707-2.41113c0-1.42188.77539-2.41211,1.4707-2.41211ZM51.00043,16.36387v1.10254c-.89453.30664-1.60352,1.01367-1.91211,1.9043h-4.19171c.36316-.69843.57452-1.54059.57452-2.45801,0-.91888-.21185-1.76263-.57605-2.46191h4.19226c.30762.89551,1.01758,1.60547,1.91309,1.91309ZM34.91351,14.45078h4.19226c-.3642.69928-.57605,1.54303-.57605,2.46191,0,.91742.21136,1.75958.57452,2.45801h-4.19171c-.30859-.89062-1.01758-1.59766-1.91211-1.9043v-1.10254c.89551-.30762,1.60547-1.01758,1.91309-1.91309Z"/>
  <circle cx="38.00043" cy="9.50059" r="1"/>
</svg>