<?xml version="1.0" encoding="UTF-8"?>
<svg id="Outline" xmlns="http://www.w3.org/2000/svg" version="1.1" viewBox="0 0 48 48">
  <!-- Generator: Adobe Illustrator 29.5.1, SVG Export Plug-In . SVG Version: 2.1.0 Build 141)  -->
  <path d="M24,5C13.523,5,5,13.523,5,24s8.523,19,19,19,19-8.523,19-19S34.477,5,24,5ZM37.364,33.497c-.179-.308-.508-.497-.864-.497h-6.54l-1.336-2.942,2.951-5.058h2.85l3.211,5.504c.18.308.509.496.864.496h.974c-.491,1.081-1.094,2.099-1.791,3.045l-.319-.548ZM17.72,33h-6.22c-.356,0-.686.189-.864.497l-.319.548c-.697-.947-1.3-1.964-1.791-3.045h.974c.355,0,.685-.188.864-.496l3.211-5.504h2.85l2.927,5.017-1.631,2.983ZM10.636,14.503c.179.308.508.497.864.497h6.3l1.558,2.973-2.932,5.027h-2.85l-3.211-5.504c-.18-.308-.509-.496-.864-.496h-.974c.491-1.081,1.094-2.099,1.791-3.045l.319.548ZM21.074,29l-2.917-5,2.917-5h5.852l2.917,5-2.917,5h-5.852ZM37.364,14.503l.319-.548c.697.947,1.3,1.964,1.791,3.045h-.974c-.355,0-.685.188-.864.496l-3.211,5.504h-2.85l-3.056-5.238,1.467-2.762h6.514c.356,0,.686-.189.864-.497ZM39.074,29l-2.917-5,2.917-5h1.173c.488,1.582.753,3.26.753,5s-.265,3.418-.753,5h-1.173ZM36.32,12.32l-.396.68h-5.851l-2.916-4.999.368-.628c3.427.726,6.467,2.494,8.794,4.948ZM25.385,7.07l-.248.424c-.182.312-.183.698,0,1.01l3.16,5.417-1.636,3.079h-5.555l-1.513-2.887,3.272-5.609c.182-.312.181-.698,0-1.01l-.248-.424c.458-.037.918-.07,1.385-.07s.927.033,1.385.07ZM20.473,7.373l.368.628-2.916,4.999h-5.851l-.396-.68c2.327-2.453,5.367-4.221,8.794-4.948ZM7.753,19h1.173l2.917,5-2.917,5h-1.173c-.488-1.582-.753-3.26-.753-5s.265-3.418.753-5ZM11.68,35.68l.396-.68h5.851l2.916,4.999-.368.628c-3.427-.726-6.467-2.494-8.794-4.948ZM22.615,40.93l.248-.424c.182-.312.183-.698,0-1.01l-3.313-5.679,1.541-2.817h5.764l1.416,3.119-3.137,5.377c-.182.312-.181.698,0,1.01l.248.424c-.458.037-.918.07-1.385.07s-.927-.033-1.385-.07ZM27.527,40.627l-.368-.628,2.916-4.999h5.851l.396.68c-2.327,2.453-5.367,4.221-8.794,4.948Z"/>
</svg>