<?xml version="1.0" encoding="UTF-8"?>
<svg id="Outline" xmlns="http://www.w3.org/2000/svg" version="1.1" viewBox="0 0 64 64">
  <!-- Generator: Adobe Illustrator 29.5.1, SVG Export Plug-In . SVG Version: 2.1.0 Build 141)  -->
  <path d="M56,47h-7v-10.13c1.04-.28,1.94-.96,2.47-1.91.18.03.35.04.53.04,2.21,0,4-1.79,4-4,0-.4-.06-.79-.18-1.17.75-.74,1.18-1.75,1.18-2.83s-.43-2.09-1.18-2.83c.12-.38.18-.77.18-1.17,0-2.21-1.79-4-4-4,0-2.21-1.79-4-4-4s-4,1.79-4,4c-2.21,0-4,1.79-4,4,0,.4.06.79.18,1.17-.75.74-1.18,1.75-1.18,2.83s.43,2.09,1.18,2.83c-.12.38-.18.77-.18,1.17,0,2.21,1.79,4,4,4,.18,0,.35-.01.53-.04.53.95,1.43,1.63,2.47,1.91v10.13h-14v-3.52c1.41-1.16,6-5.33,6-10.48,0-5.96-6.14-10.61-6.4-10.8-.36-.27-.84-.27-1.2,0-.26.19-6.4,4.84-6.4,10.8,0,5.15,4.59,9.32,6,10.48v3.52h-14v-10.13c1.04-.28,1.94-.96,2.47-1.91.18.03.35.04.53.04,2.21,0,4-1.79,4-4,0-.4-.06-.79-.18-1.17.75-.74,1.18-1.75,1.18-2.83s-.43-2.09-1.18-2.83c.12-.38.18-.77.18-1.17,0-2.21-1.79-4-4-4,0-2.21-1.79-4-4-4s-4,1.79-4,4c-2.21,0-4,1.79-4,4,0,.4.06.79.18,1.17-.75.74-1.18,1.75-1.18,2.83s.43,2.09,1.18,2.83c-.12.38-.18.77-.18,1.17,0,2.21,1.79,4,4,4,.18,0,.35-.01.53-.04.53.95,1.43,1.63,2.47,1.91v10.13h-7c-.55,0-1,.45-1,1s.45,1,1,1h48c.55,0,1-.45,1-1s-.45-1-1-1ZM16,23c-.55,0-1,.45-1,1v1.59l-1.29-1.3c-.39-.39-1.03-.39-1.42,0-.39.39-.39,1.03,0,1.42l2.71,2.7v6.31c-.44-.26-.78-.68-.92-1.2-.07-.28-.26-.51-.52-.63-.14-.07-.29-.11-.44-.11-.13,0-.26.02-.38.07-1.33.53-2.74-.5-2.74-1.85,0-.33.09-.66.27-.98.26-.46.12-1.05-.33-1.34-.59-.37-.94-1-.94-1.68s.35-1.31.94-1.68c.45-.29.59-.88.33-1.34-.18-.32-.27-.65-.27-.98,0-1.39,1.5-2.46,2.88-1.79.38.19.84.12,1.14-.19.31-.3.38-.76.19-1.15-.14-.28-.21-.58-.21-.87,0-1.1.9-2,2-2s2,.9,2,2c0,.29-.07.59-.21.87-.19.39-.12.85.19,1.15.3.31.76.38,1.14.19,1.38-.67,2.88.39,2.88,1.79,0,.33-.09.66-.27.98-.26.46-.12,1.05.33,1.34.59.37.94,1,.94,1.68s-.35,1.31-.94,1.68c-.45.29-.59.88-.33,1.34.18.32.27.65.27.98,0,1.35-1.41,2.38-2.74,1.85-.27-.1-.57-.09-.82.04-.26.12-.45.35-.52.63-.14.52-.48.94-.92,1.2v-3.31l2.71-2.7c.39-.39.39-1.03,0-1.42-.39-.39-1.03-.39-1.42,0l-1.29,1.3v-4.59c0-.55-.45-1-1-1ZM32,29c-.55,0-1,.45-1,1v2.59l-1.29-1.3c-.39-.39-1.03-.39-1.42,0-.39.39-.39,1.03,0,1.42l2.71,2.7v5.36c-1.65-1.65-4-4.55-4-7.77,0-3.96,3.56-7.45,5-8.71,1.44,1.26,5,4.75,5,8.71,0,3.22-2.35,6.12-4,7.77v-3.36l2.71-2.7c.39-.39.39-1.03,0-1.42-.39-.39-1.03-.39-1.42,0l-1.29,1.3v-4.59c0-.55-.45-1-1-1ZM48,23c-.55,0-1,.45-1,1v4.59l-1.29-1.3c-.39-.39-1.03-.39-1.42,0-.39.39-.39,1.03,0,1.42l2.71,2.7v3.31c-.44-.26-.78-.68-.92-1.2-.07-.28-.26-.51-.52-.63-.14-.07-.29-.11-.44-.11-.13,0-.26.02-.38.07-1.33.53-2.74-.5-2.74-1.85,0-.33.09-.66.27-.98.26-.46.12-1.05-.33-1.34-.59-.37-.94-1-.94-1.68s.35-1.31.94-1.68c.45-.29.59-.88.33-1.34-.18-.32-.27-.65-.27-.98,0-1.39,1.5-2.46,2.88-1.79.38.19.84.12,1.14-.19.31-.3.38-.76.19-1.15-.14-.28-.21-.58-.21-.87,0-1.1.9-2,2-2s2,.9,2,2c0,.29-.07.59-.21.87-.19.39-.12.85.19,1.15.3.31.76.38,1.14.19,1.38-.67,2.88.39,2.88,1.79,0,.33-.09.66-.27.98-.26.46-.12,1.05.33,1.34.59.37.94,1,.94,1.68s-.35,1.31-.94,1.68c-.45.29-.59.88-.33,1.34.18.32.27.65.27.98,0,1.35-1.41,2.38-2.74,1.85-.27-.1-.57-.09-.82.04-.26.12-.45.35-.52.63-.14.52-.48.94-.92,1.2v-6.31l2.71-2.7c.39-.39.39-1.03,0-1.42-.39-.39-1.03-.39-1.42,0l-1.29,1.3v-1.59c0-.55-.45-1-1-1Z"/>
</svg>