<?xml version="1.0" encoding="UTF-8"?>
<svg id="Outline" xmlns="http://www.w3.org/2000/svg" version="1.1" viewBox="0 0 64 64">
  <!-- Generator: Adobe Illustrator 29.5.1, SVG Export Plug-In . SVG Version: 2.1.0 Build 141)  -->
  <path d="M36,22.19c0,1.32-.42,2.62-1.19,3.68-.79,1.08-1.86,1.87-3.11,2.29-.98.32-1.6,1.25-1.52,2.28l.82,11.49c.04.55-.38,1.03-.93,1.07-.55.03-1.03-.38-1.07-.93l-.82-11.49c-.14-1.94,1.04-3.71,2.89-4.32.85-.28,1.58-.83,2.12-1.57.52-.72.81-1.6.81-2.5,0-.1,0-.2-.01-.3l-.92-12.89h-1.07v11c0,1.65-1.35,3-3,3h-4c-1.65,0-3-1.35-3-3v-11h-1.07l-.92,12.88c-.01.11-.01.21-.01.31,0,.9.29,1.78.81,2.5.54.74,1.27,1.29,2.13,1.57,1.72.56,2.89,2.18,2.89,4.01,0,.12,0,.25-.02.37l-1.53,21.44c-.06.76.2,1.49.72,2.05.53.56,1.24.87,2,.87,1.51,0,2.73-1.22,2.73-2.73v-.15l-.44-6.05c-.04-.55.38-1.03.93-1.07.55-.02,1.03.38,1.07.93l.43,6.01c.01.09.01.22.01.33,0,2.61-2.12,4.73-4.73,4.73-1.31,0-2.57-.55-3.46-1.5-.89-.96-1.35-2.25-1.26-3.56l1.54-21.5c.01-.09.01-.13.01-.17,0-.97-.61-1.81-1.52-2.11-1.26-.42-2.33-1.21-3.12-2.29-.77-1.06-1.19-2.36-1.19-3.68,0-.16,0-.3.01-.46l.99-13.8c.04-.52.48-.93,1-.93h3c.55,0,1,.45,1,1v12c0,.55.45,1,1,1h1v-13c0-.55.45-1,1-1s1,.45,1,1v13h1c.55,0,1-.45,1-1v-12c0-.55.45-1,1-1h3c.52,0,.96.41,1,.93l.99,13.81c.01.15.01.29.01.45Z"/>
  <path d="M53.608,12.198c-.122-.538-.656-.876-1.196-.754l-2.758.625c-.538.122-.876.657-.754,1.196.118.52.678.873,1.196.754l2.758-.625c.539-.122.876-.657.754-1.196Z"/>
  <path d="M52.251,16.907l-2.393-1.509c-.468-.295-1.085-.155-1.379.312-.295.467-.155,1.084.312,1.379l2.393,1.509c.436.275,1.084.157,1.379-.312.295-.467.155-1.084-.312-1.379Z"/>
  <path d="M47.467,11.239c.463.292,1.087.15,1.379-.313l1.509-2.393c.295-.467.155-1.084-.312-1.379-.468-.295-1.085-.155-1.379.312l-1.509,2.393c-.295.467-.155,1.084.313,1.379Z"/>
  <path d="M14.126,14.043c1.131-.009,1.354-1.717.22-1.974l-2.758-.625c-.539-.123-1.075.216-1.196.754-.122.539.215,1.074.754,1.196,0,0,2.758.625,2.758.625.074.017.149.025.222.024Z"/>
  <path d="M14.141,15.399l-2.393,1.509c-.467.294-.607.912-.313,1.379.291.461.919.603,1.379.313l2.393-1.509c.467-.294.607-.912.312-1.379-.293-.466-.912-.606-1.379-.312Z"/>
  <path d="M15.337,7.467c-.293-.467-.91-.606-1.379-.312-.467.294-.607.912-.312,1.379l1.509,2.393c.274.435.92.602,1.379.313.467-.294.607-.912.312-1.379l-1.509-2.393Z"/>
  <path d="M41.832,7.445c-.245-.367-.701-.527-1.122-.402-.422.128-.71.517-.71.957v20c0,.552.448,1,1,1s1-.448,1-1V11.536c1.672,2.965,3.013,6.105,4.002,9.372,1.326,4.402,1.998,8.948,1.998,13.512v.58h-6v-3c0-.552-.448-1-1-1s-1,.448-1,1v21.149c0,2.123,1.728,3.851,3.851,3.851,2.244,0,4.054-2.003,3.831-4.233l-1.577-15.767h2.895c.552,0,1-.448,1-1v-1.58c0-4.759-.701-9.499-2.083-14.089-1.385-4.576-3.433-8.911-6.085-12.886ZM45.691,52.966c.106,1.064-.779,2.034-1.841,2.034-1.021,0-1.851-.83-1.851-1.851v-16.149h2.095s1.591,15.912,1.596,15.966Z"/>
</svg>