<?xml version="1.0" encoding="UTF-8"?>
<svg id="Outline" xmlns="http://www.w3.org/2000/svg" version="1.1" viewBox="0 0 64 64">
  <!-- Generator: Adobe Illustrator 29.3.1, SVG Export Plug-In . SVG Version: 2.1.0 Build 151)  -->
  <path d="M44,35.17139v-9.17139c0-.55225-.44727-1-1-1s-1,.44775-1,1v10c0,.55225.44727,1,1,1,.55176,0,1,.44873,1,1v1h-8v-1c0-.55127.44824-1,1-1,.55273,0,1-.44775,1-1v-4c0-.37891-.21387-.7251-.55273-.89453l-1.44727-.72363v-14.38184c0-3.52051,2.6123-6.44189,6-6.92871v8.92871c0,.55225.44727,1,1,1s1-.44775,1-1v-10c0-.55225-.44727-1-1-1-4.96289,0-9,4.0376-9,9v15c0,.37891.21387.7251.55273.89453l1.44727.72363v2.55322c-1.16406.4126-2,1.5249-2,2.82861v16c0,1.6543,1.3457,3,3,3h6c1.6543,0,3-1.3457,3-3v-16c0-1.30371-.83594-2.41602-2-2.82861ZM43,55h-6c-.55176,0-1-.44873-1-1v-13h8v10h-3c-.55273,0-1,.44775-1,1s.44727,1,1,1h3v1c0,.55127-.44824,1-1,1Z"/>
  <path d="M31,7c-.54999,0-1,.45001-1,1v9h-4v-9c0-.54999-.45001-1-1-1s-1,.45001-1,1v9h-4v-9c0-.54999-.45001-1-1-1s-1,.45001-1,1v14c0,1.64996,1.34998,3,3,3v10.16998c-1.15997.40997-2,1.53003-2,2.83002v16c0,1.64996,1.34998,3,3,3h6c1.65002,0,3-1.35004,3-3v-16c0-1.29999-.84003-2.42004-2-2.83002v-10.16998c1.65002,0,3-1.35004,3-3v-14c0-.54999-.45001-1-1-1ZM29,54c0,.54999-.45001,1-1,1h-6c-.54999,0-1-.45001-1-1v-1h3c.54999,0,1-.45001,1-1s-.45001-1-1-1h-3v-10h8v13ZM30,22c0,.54999-.45001,1-1,1h-1c-.54999,0-1,.45001-1,1v12c0,.54999.45001,1,1,1s1,.45001,1,1v1h-8v-1c0-.54999.45001-1,1-1s1-.45001,1-1v-12c0-.54999-.45001-1-1-1h-1c-.54999,0-1-.45001-1-1v-3h10v3Z"/>
  <circle cx="43" cy="22" r="1"/>
</svg>