<?xml version="1.0" encoding="UTF-8"?>
<svg id="Outline" xmlns="http://www.w3.org/2000/svg" version="1.1" viewBox="0 0 64 64">
  <!-- Generator: Adobe Illustrator 29.5.1, SVG Export Plug-In . SVG Version: 2.1.0 Build 141)  -->
  <path d="M24.21387,32.65853c-.46191-.30469-1.08105-.18115-1.38672.2793-1.19531,1.79883-1.82715,3.89551-1.82715,6.06348,0,6.06543,4.93457,11,11,11s11-4.93457,11-11-4.93457-11-11-11c-2.16797,0-4.26465.63184-6.06348,1.82715-.45996.30615-.58496.92676-.2793,1.38672.30469.45947.92773.58301,1.38672.2793,1.46875-.97705,3.18262-1.49316,4.95605-1.49316,4.96289,0,9,4.0376,9,9s-4.03711,9-9,9-9-4.0376-9-9c0-1.77295.5166-3.48682,1.49316-4.95605.30566-.45996.18066-1.08105-.2793-1.38672Z"/>
  <path d="M54.54999,11.14132c-1.58002-2.03003-3.82001-3.48004-6.31-4.11005-.28998-.07996-.60999-.01001-.85999.17999-.23999.19-.38.48004-.38.79004v21.06c-3.28998-4.94-8.89001-8.06-15-8.06-5.35999,0-10.29999,2.32996-13.69,6.32996l-.25-2.67999.53998-.20996c2.67004-1.07001,4.40002-3.62,4.40002-6.5v-9.94c0-.54999-.45001-1-1-1h-3c-.51001,0-.94.39001-1,.89996l-.90997,9.10004h-1.09003v-8c0-.54999-.45001-1-1-1s-1,.45001-1,1v8h-1.09003l-.90997-9.10004c-.06-.50995-.48999-.89996-1-.89996h-3c-.54999,0-1,.45001-1,1v9.94c0,2.88,1.72998,5.42999,4.40002,6.5l.53998.20996-1.57001,17.28003c-.12,1.29999.32001,2.58997,1.19,3.54999.88.97003,2.14001,1.52002,3.44,1.52002.28998,0,.57001-.04004.84998-.09003,3,6.15002,9.24005,10.09003,16.15002,10.09003,4.09998,0,7.95001-1.34003,11.14001-3.87.42999-.34003.51001-.97003.15997-1.40002-.33997-.42999-.96997-.51001-1.39996-.15997-2.84003,2.23999-6.26001,3.42999-9.90002,3.42999-6.10999,0-11.62-3.45001-14.31-8.85999.27002-.19.52002-.41003.75-.66003.87-.96002,1.31-2.25,1.19-3.54999l-1.04999-11.62c2.95996-4.58002,7.95001-7.31,13.41998-7.31,6.66998,0,12.67999,4.19,15,10.42999v10.57001c0,.14001.02002.27997.03998.41998-.56,1.59998-1.38995,3.09998-2.46997,4.47998-.35004.42999-.27002,1.06.15997,1.40002.17999.15002.40002.21997.62.21997.29004,0,.59003-.12994.78003-.37994.90002-1.14001,1.64001-2.36005,2.21997-3.64001.48004.32001,1.04004.5,1.65002.5,1.65002,0,3-1.35004,3-3v-11.38l3.45001-1.72998c.33997-.16003.54999-.51001.54999-.89001v-11.75c0-2.60999-.84998-5.07001-2.45001-7.10999ZM16.63,23.07131c-.41003.16998-.66998.57996-.63,1.01996l1.64001,18.02002c.07001.75-.17004,1.46997-.67999,2.03003-1.02002,1.10999-2.90002,1.10999-3.92004,0-.50995-.56006-.75-1.28003-.67999-2.03003l1.64001-18.02002c.03998-.44-.21997-.84998-.63-1.01996l-1.22998-.49005c-1.91003-.75995-3.14001-2.58997-3.14001-4.63995v-8.94h1.09003l.90997,9.09998c.06.51001.48999.90002,1,.90002h6c.51001,0,.94-.39001,1-.90002l.90997-9.09998h1.09003v8.94c0,2.04999-1.22998,3.88-3.14001,4.63995l-1.22998.49005ZM55,29.38131l-3.45001,1.72998c-.33997.15997-.54999.51001-.54999.89001v12c0,.54999-.45001,1-1,1s-1-.45001-1-1V9.38131c1.56.62,2.94,1.65997,3.96997,2.98999,1.33002,1.69,2.03003,3.71997,2.03003,5.88v11.13Z"/>
</svg>