<?xml version="1.0" encoding="UTF-8"?>
<svg id="Outline" xmlns="http://www.w3.org/2000/svg" version="1.1" viewBox="0 0 64 64">
  <!-- Generator: Adobe Illustrator 29.3.1, SVG Export Plug-In . SVG Version: 2.1.0 Build 151)  -->
  <path d="M22.31,7.78998c-.47998-.5-1.15002-.78998-1.84003-.78998-1.31995,0-2.42999,1.01996-2.52997,2.32001l-.83002,10.67999h-1.10999v-12c0-.54999-.45001-1-1-1s-1,.45001-1,1v12h-1.10999l-.83002-10.67999c-.09998-1.30005-1.21002-2.32001-2.52997-2.32001-.69,0-1.36005.28998-1.84003.78998s-.72003,1.16003-.69,1.85004l.73999,14.60999c.12,2.39996,1.94,4.32001,4.26001,4.66998v8.08002c-.54999,0-1,.45001-1,1v15c0,2.20996,1.78998,4,4,4s4-1.79004,4-4v-15c0-.54999-.45001-1-1-1v-8.08002c2.32001-.34998,4.14001-2.27002,4.26001-4.66998l.73999-14.60999c.03003-.69-.21002-1.35004-.69-1.85004ZM17,53c0,1.09998-.90002,2-2,2s-2-.90002-2-2v-10h4v10ZM17,41h-4v-2h4v2ZM14,37v-8h2v8h-2ZM20.26001,24.14996c-.08002,1.60004-1.41998,2.85004-3.04004,2.85004h-4.43994c-1.62006,0-2.96002-1.25-3.04004-2.85004l-.73999-14.60999c-.01001-.19.08002-.31.14001-.37.06-.07001.19-.16998.39001-.16998.27997,0,.51996.20996.53998.47998l.89996,11.59998c.04004.52002.47003.92004,1,.92004h6.06006c.52997,0,.95996-.40002,1-.92004l.89996-11.59998c.02002-.27002.26001-.47998.53998-.47998.20001,0,.33002.09998.39001.16998.06.06.15002.17999.14001.37l-.73999,14.60999Z"/>
  <path d="M41,18c0-6.07001-3.59003-11-8-11s-8,4.92999-8,11c0,4.60999,2.07001,8.54999,5,10.19v8.81c-.54999,0-1,.45001-1,1v15c0,2.20996,1.78998,4,4,4s4-1.79004,4-4v-15c0-.54999-.45001-1-1-1v-8.81c2.92999-1.64001,5-5.58002,5-10.19ZM35,53c0,1.09998-.90002,2-2,2s-2-.90002-2-2v-10h4v10ZM35,41h-4v-2h4v2ZM32,37v-8.10004c.33002.06.65997.10004,1,.10004s.66998-.04004,1-.10004v8.10004h-2ZM33,27c-3.31,0-6-4.04004-6-9s2.69-9,6-9,6,4.03998,6,9-2.69,9-6,9Z"/>
  <path d="M56.58002,7.19c-.26001-.19-.59003-.23999-.90002-.14001-7.58002,2.52997-12.67999,9.59998-12.67999,17.59998v9.35004c0,1.64996,1.34998,3,3,3h3v16c0,2.20996,1.78998,4,4,4s4-1.79004,4-4V8c0-.32001-.15002-.62-.41998-.81ZM55,53c0,1.09998-.90002,2-2,2s-2-.90002-2-2v-2h4v2ZM55,49h-4v-12h4v12ZM55,35h-9c-.54999,0-1-.45001-1-1v-1h10v2ZM55,31h-10v-6.35004c0-6.65997,3.96002-12.60999,10-15.19995v21.54999Z"/>
</svg>