<?xml version="1.0" encoding="UTF-8"?>
<svg id="Outline" xmlns="http://www.w3.org/2000/svg" version="1.1" viewBox="0 0 64 64">
  <!-- Generator: Adobe Illustrator 29.5.1, SVG Export Plug-In . SVG Version: 2.1.0 Build 141)  -->
  <path d="M26.5995,17.2002c-.30273-.22852-.70898-.26367-1.04688-.09473-.33887.16992-.55273.51562-.55273.89453v1.75l-3.40039-2.5498c-.30273-.22852-.70898-.26367-1.04688-.09473-.33887.16992-.55273.51562-.55273.89453v1.75l-3.40039-2.5498c-.30273-.22852-.70898-.26367-1.04688-.09473-.33887.16992-.55273.51562-.55273.89453v12c0,.37891.21387.72461.55273.89453.33887.16895.74512.13477,1.04688-.09473l3.40039-2.5498v1.75c0,.37891.21387.72461.55273.89453.33887.16895.74512.13477,1.04688-.09473l3.40039-2.5498v1.75c0,.37887.21382.72454.55263.89448.31334.15717.737.13953,1.04698-.09467l8-6c.25195-.18848.40039-.48535.40039-.7998s-.14844-.61133-.40039-.7998l-8-6ZM26.99989,28v-1.75c0-.37891-.21387-.72461-.55273-.89453-.1416-.07031-.29492-.10547-.44727-.10547-.21191,0-.42383.06738-.59961.2002l-3.40039,2.5498v-1.75c0-.37891-.21387-.72461-.55273-.89453-.33789-.16699-.74414-.13281-1.04688.09473l-3.40039,2.5498v-8l3.40039,2.5498c.30176.22754.70703.2627,1.04688.09473.33887-.16992.55273-.51562.55273-.89453v-1.75l3.40039,2.5498c.30176.22754.70801.2627,1.04688.09473.33887-.16992.55273-.51562.55273-.89453v-1.75l5.33301,4-5.33301,4Z"/>
  <path d="M52.99989,42c0-.55273-.44727-1-1-1h-24c-.55273,0-1,.44727-1,1s.44727,1,1,1h24c.55273,0,1-.44727,1-1Z"/>
  <path d="M32.99989,39h14c.55273,0,1-.44727,1-1s-.44727-1-1-1h-14c-.55273,0-1,.44727-1,1s.44727,1,1,1Z"/>
  <path d="M46.99989,45h-14c-.55273,0-1,.44727-1,1s.44727,1,1,1h14c.55273,0,1-.44727,1-1s-.44727-1-1-1Z"/>
  <path d="M54.0663,47.65137c1.90039-1.64648,2.93359-3.62207,2.93359-5.65137,0-5.60742-7.46777-10-17-10-.5708,0-1.13318.01776-1.68799.04858,2.90216-2.13135,4.68799-4.94995,4.68799-8.04858,0-6.61719-8.0752-12-18-12S6.99989,17.38281,6.99989,24v11c0,.4043.24316.76953.61743.92393.3732.15563.80386.06884,1.0896-.2169l3.34863-3.34766c3.37598,2.32129,8.03516,3.64062,12.94434,3.64062.47076,0,.93298-.02332,1.39478-.04712-2.12964,1.66974-3.39478,3.75317-3.39478,6.04712,0,2.0293,1.0332,4.00488,2.93359,5.65137l-2.64062,2.6416c-.28613.28613-.37207.71582-.2168,1.08984.1543.37402.51953.61719.92383.61719h32c.4043,0,.76953-.24316.92383-.61719.15527-.37402.06934-.80371-.2168-1.08984l-2.64062-2.6416ZM12.56532,30.25586c-.18164-.13965-.39746-.20898-.6123-.20898-.25684,0-.5127.09863-.70703.29297l-2.24609,2.24609v-8.58594c0-5.51367,7.17773-10,16-10s16,4.48633,16,10-7.17773,10-16,10c-4.83008,0-9.3623-1.36426-12.43457-3.74414ZM26.41395,50l1.73047-1.73047c.20801-.20801.31348-.49707.28906-.79004-.02344-.29297-.17578-.56055-.41504-.73047-1.37695-.9834-3.01855-2.60547-3.01855-4.74902,0-4.33691,6.86914-8,15-8s15,3.66309,15,8c0,2.14355-1.6416,3.76562-3.01855,4.74902-.23926.16992-.3916.4375-.41504.73047-.02441.29297.08105.58203.28906.79004l1.73047,1.73047h-27.17188Z"/>
</svg>