<?xml version="1.0" encoding="UTF-8"?>
<svg id="Outline" xmlns="http://www.w3.org/2000/svg" version="1.1" viewBox="0 0 64 64">
  <!-- Generator: Adobe Illustrator 29.3.1, SVG Export Plug-In . SVG Version: 2.1.0 Build 151)  -->
  <path d="M56.78077,33.66998l-4-5c-.14001-.16998-.32001-.27997-.53003-.34003l.01001-.00995-13.58002-3.58002c.28998-.22003.57001-.46002.84003-.71002,2.20996-2.07001,3.47998-5,3.47998-8.02997v-6c0-1.65002-1.34998-3-3-3h-7.42999c-.31,0-.60999.14996-.79999.39996s-.25.57001-.16003.87l1.25,4.36005-2.33997,1.87.45996-2.29999c.03003-.17004.02002-.35004-.02997-.52002l-1.33002-4c-.14001-.40002-.52002-.67999-.95001-.67999h-4.66998c-1.65002,0-3,1.34998-3,3v5.65997c0,3.54004,1.59003,6.71002,4.08002,8.79999l-13.29004,2.85004v.01996c-.21997.04004-.41998.16003-.57001.34003l-4,5c-.19995.25-.26996.59003-.17999.90997.09003.31006.33002.56006.64001.66003l6.32001,2.12v3.64001c0,.54999.45001,1,1,1s1-.45001,1-1v-2.97003l11.67999,3.92004c.10999.02997.21002.04999.32001.04999.33002,0,.64001-.16003.83002-.45001l2.16998-3.25v17.35999l-15-4.40997v-2.25c0-.54999-.45001-1-1-1s-1,.45001-1,1v3c0,.44.28998.82996.71997.95996l17,5c.09003.03003.18005.04004.28003.04004.08002,0,.15002-.01001.22998-.03003l17-4c.45001-.09998.77002-.51001.77002-.96997v-14.95001l6.27002-1.78998c.32996-.10004.57996-.34003.67999-.66003.09998-.32001.03998-.66998-.16998-.92999ZM47.88075,29.23999l-12.88,3.02997v-5.67999c.41998-.12.83002-.26996,1.22998-.42999l11.65002,3.08002ZM27.47071,25.98999c.49005.22998,1,.42999,1.53003.58002v5.52997l-12.88-3.66998,11.34998-2.44ZM27.59077,38.81l-17.91003-6.01001,2.69-3.35999,18.03998,5.14996-2.81995,4.22003ZM23.00074,15.65997v-5.65997c0-.54999.45001-1,1-1h3.95001l1.01996,3.06-.94995,4.73999c-.08002.41998.09998.84003.45996,1.04999.36005.22003.82001.19,1.14001-.07001l5-4c.32001-.25.45001-.66998.34003-1.04999l-1.06-3.72998h6.09998c.54999,0,1,.45001,1,1v6c0,2.51001-1.01001,4.84998-2.84998,6.57001-1.83002,1.71997-4.23004,2.57996-6.75,2.40997-4.71002-.31-8.40002-4.40002-8.40002-9.32001ZM32.02076,32.96997l-1.02002-.29999v-5.71997c.09003,0,.17999.01996.27002.02997.25.01001.48999.02002.73999.02002.33002,0,.65997-.02002.98999-.04999v5.78998l-.97998.22998ZM48.00074,51.20996l-15,3.53003v-17.44l2.16998,3.25c.19.28998.5.45001.83002.45001.09003,0,.17999-.01001.27002-.04004l11.72998-3.33997v13.58997ZM36.43073,38.83997l-2.79999-4.19995,17.97998-4.23004,2.67004,3.34003-17.85004,5.08997Z"/>
  <circle cx="15.00074" cy="44" r="1"/>
</svg>