<?xml version="1.0" encoding="UTF-8"?>
<svg id="Outline" xmlns="http://www.w3.org/2000/svg" version="1.1" viewBox="0 0 64 64">
  <!-- Generator: Adobe Illustrator 29.5.1, SVG Export Plug-In . SVG Version: 2.1.0 Build 141)  -->
  <path d="M19,44v-3h3c.552,0,1-.448,1-1s-.448-1-1-1h-3v-2h3c.552,0,1-.448,1-1s-.448-1-1-1h-4c-.552,0-1,.448-1,1v8c0,.552.448,1,1,1s1-.448,1-1Z"/>
  <path d="M38,37c.552,0,1-.448,1-1s-.448-1-1-1h-4c-.552,0-1,.448-1,1v8c0,.552.448,1,1,1h4c.552,0,1-.448,1-1s-.448-1-1-1h-3v-2h3c.552,0,1-.448,1-1s-.448-1-1-1h-3v-2h3Z"/>
  <path d="M46,43h-3v-2h3c.552,0,1-.448,1-1s-.448-1-1-1h-3v-2h3c.552,0,1-.448,1-1s-.448-1-1-1h-4c-.552,0-1,.448-1,1v8c0,.552.448,1,1,1h4c.552,0,1-.448,1-1s-.448-1-1-1Z"/>
  <path d="M50,45c-.552,0-1,.448-1,1v1h-1c-.552,0-1,.448-1,1s.448,1,1,1h2c.552,0,1-.448,1-1v-2c0-.552-.448-1-1-1Z"/>
  <path d="M30.222,47h-3.556c-.552,0-1,.448-1,1s.448,1,1,1h3.556c.552,0,1-.448,1-1s-.448-1-1-1Z"/>
  <path d="M23.111,47h-3.555c-.552,0-1,.448-1,1s.448,1,1,1h3.555c.552,0,1-.448,1-1s-.448-1-1-1Z"/>
  <path d="M37.333,47h-3.555c-.552,0-1,.448-1,1s.448,1,1,1h3.555c.552,0,1-.448,1-1s-.448-1-1-1Z"/>
  <path d="M44.444,47h-3.556c-.552,0-1,.448-1,1s.448,1,1,1h3.556c.552,0,1-.448,1-1s-.448-1-1-1Z"/>
  <path d="M16,47h-1v-1c0-.552-.448-1-1-1s-1,.448-1,1v2c0,.552.448,1,1,1h2c.552,0,1-.448,1-1s-.448-1-1-1Z"/>
  <path d="M14,43c.552,0,1-.448,1-1v-4c0-.552-.448-1-1-1s-1,.448-1,1v4c0,.552.448,1,1,1Z"/>
  <path d="M14,35c.552,0,1-.448,1-1v-1h1c.552,0,1-.448,1-1s-.448-1-1-1h-2c-.552,0-1,.448-1,1v2c0,.552.448,1,1,1Z"/>
  <path d="M40.889,33h3.555c.552,0,1-.448,1-1s-.448-1-1-1h-3.555c-.552,0-1,.448-1,1s.448,1,1,1Z"/>
  <path d="M33.778,33h3.556c.552,0,1-.448,1-1s-.448-1-1-1h-3.556c-.552,0-1,.448-1,1s.448,1,1,1Z"/>
  <path d="M23.111,31h-3.556c-.552,0-1,.448-1,1s.448,1,1,1h3.556c.552,0,1-.448,1-1s-.448-1-1-1Z"/>
  <path d="M30.222,31h-3.555c-.552,0-1,.448-1,1s.448,1,1,1h3.555c.552,0,1-.448,1-1s-.448-1-1-1Z"/>
  <path d="M50,31h-2c-.552,0-1,.448-1,1s.448,1,1,1h1v1c0,.552.448,1,1,1s1-.448,1-1v-2c0-.552-.448-1-1-1Z"/>
  <path d="M50,37c-.552,0-1,.448-1,1v4c0,.552.448,1,1,1s1-.448,1-1v-4c0-.552-.448-1-1-1Z"/>
  <path d="M54,11H10c-1.65,0-3,1.35-3,3v36c0,1.65,1.35,3,3,3h44c1.65,0,3-1.35,3-3V14c0-1.65-1.35-3-3-3ZM21,13h22v11.82l-10.84-1.81c-.05-.01-.1-.01-.16-.01s-.11,0-.16.01l-10.84,1.81v-11.82ZM55,50c0,.55-.45,1-1,1H10c-.55,0-1-.45-1-1V14c0-.55.45-1,1-1h9v13c0,.29.13.57.35.76.23.19.53.27.81.23l11.84-1.98,11.84,1.98c.05.01.11.01.16.01.53,0,1-.47,1-1v-13h9c.55,0,1,.45,1,1v36Z"/>
  <path d="M28.38,40.96c1.47-.19,2.62-1.43,2.62-2.96,0-1.65-1.35-3-3-3h-2c-.55,0-1,.45-1,1v8c0,.55.45,1,1,1s1-.45,1-1v-1.59l2.29,2.3c.2.19.45.29.71.29.87,0,1.32-1.09.71-1.71l-2.33-2.33ZM27,39v-2h1c.55,0,1,.45,1,1s-.45,1-1,1h-1Z"/>
</svg>