<?xml version="1.0" encoding="UTF-8"?>
<svg id="Outline" xmlns="http://www.w3.org/2000/svg" version="1.1" viewBox="0 0 64 64">
  <!-- Generator: Adobe Illustrator 29.5.1, SVG Export Plug-In . SVG Version: 2.1.0 Build 141)  -->
  <path d="M50.14,13.817c.11-.3.07-.64-.11-.9-.18-.27-.48-.43-.8-.44l-6.16-.17-3.45-1.26-4.83-3.84c-.25-.2-.58-.26-.89-.18-.31.09-.56.32-.67.62l-.54,1.48c-.63-.07-1.26-.12-1.89-.12-9.37,0-17,7.63-17,17,0,4.89,2.09,9.3,5.41,12.4-.06.05-.13.09-.19.15-3.37,3.92-5.22,8.93-5.22,14.09v3.36c0,.35.18.67.47.85.3.18.67.2.98.04l3.6-1.79,4.58,1.83c.12.05.24.07.37.07.546,0,1-.453,1-1v-4.2c0-3.38,1.29-6.56,3.62-8.99.78.11,1.57.19,2.38.19s1.6-.08,2.38-.19c2.33,2.43,3.62,5.61,3.62,8.99v4.2c0,.544.459,1,1,1,.13,0,.25-.02.37-.07l4.58-1.83,3.6,1.79c.31.16.68.14.98-.04.29-.18.47-.5.47-.85v-3.36c0-5.16-1.85-10.17-5.22-14.09-.06-.06-.13-.1-.19-.15,3.32-3.1,5.41-7.51,5.41-12.4,0-1.5-.2-2.97-.58-4.4.07-.09.14-.17.18-.27l2.74-7.52ZM39.719,13.207l1.88.69-.69,1.88-1.88-.69.69-1.88ZM34.63,9.637l3.3,2.63-.87,2.4-4.22-.12,1.79-4.91ZM36.57,16.657c3.23,2,5.23,5.55,5.23,9.35,0,6.07-4.93,11-11,11s-11-4.93-11-11c0-5.98,4.8-10.85,10.74-10.99l-.05.15c-.11.3-.07.64.11.9.18.27.48.43.8.44l5.17.15ZM22.799,51.807v2.72l-3.63-1.45c-.26-.1-.56-.09-.82.04l-2.55,1.27v-1.74c0-4.69,1.68-9.23,4.74-12.79.06-.07.09-.15.13-.23,1.63,1.22,3.48,2.15,5.49,2.72-2.18,2.67-3.36,5.97-3.36,9.46ZM45.799,52.647v1.74l-2.55-1.27c-.26-.13-.56-.14-.82-.04l-3.63,1.45v-2.72c0-3.49-1.18-6.79-3.36-9.46,2.01-.57,3.86-1.5,5.49-2.72.04.08.07.16.13.23,3.06,3.56,4.74,8.1,4.74,12.79ZM30.799,41.007c-8.27,0-15-6.73-15-15s6.73-15,15-15c.39,0,.79.02,1.19.05l-.72,1.97c-.16,0-.31-.02-.47-.02-7.17,0-13,5.83-13,13s5.83,13,13,13,13-5.83,13-13c0-2.97-1.04-5.81-2.83-8.08l.04.01,3.95,3.14c.55,1.59.84,3.24.84,4.93,0,8.27-6.73,15-15,15ZM46,19.347l-3.31-2.62.88-2.41,4.22.12-1.79,4.91Z"/>
  <path d="M34.799,19.007h-8c-1.65,0-3,1.35-3,3v8c0,1.65,1.35,3,3,3h8c1.65,0,3-1.35,3-3v-8c0-1.65-1.35-3-3-3ZM29.799,21.007h2v3.38l-.55-.27c-.14-.07-.3-.11-.45-.11s-.31.04-.45.11l-.55.27v-3.38ZM35.799,30.007c0,.55-.45,1-1,1h-8c-.55,0-1-.45-1-1v-8c0-.55.45-1,1-1h1v5c0,.35.18.67.47.85.3.18.67.2.98.04l1.55-.77,1.55.77c.14.07.3.11.45.11.548,0,1-.449,1-1v-5h1c.55,0,1,.45,1,1v8Z"/>
</svg>