<?xml version="1.0" encoding="UTF-8"?>
<svg id="Outline" xmlns="http://www.w3.org/2000/svg" version="1.1" viewBox="0 0 64 64">
  <!-- Generator: Adobe Illustrator 29.5.1, SVG Export Plug-In . SVG Version: 2.1.0 Build 141)  -->
  <path d="M40,11c-.552,0-1,.448-1,1v6c0,.552.448,1,1,1h4c.552,0,1-.448,1-1s-.448-1-1-1h-3v-5c0-.552-.448-1-1-1Z"/>
  <path d="M36,19c.552,0,1-.448,1-1v-4c0-1.654-1.346-3-3-3s-3,1.346-3,3v4c0,.552.448,1,1,1s1-.448,1-1v-1h2v1c0,.552.448,1,1,1ZM33,15v-1c0-.551.449-1,1-1s1,.449,1,1v1h-2Z"/>
  <path d="M34,23c.552,0,1-.448,1-1s-.448-1-1-1h-4c-.552,0-1,.448-1,1v6c0,.552.448,1,1,1h4c.552,0,1-.448,1-1s-.448-1-1-1h-3v-1h3c.552,0,1-.448,1-1s-.448-1-1-1h-3v-1h3Z"/>
  <path d="M24.94,25.96c1.17-.21,2.06-1.23,2.06-2.46,0-1.38-1.12-2.5-2.5-2.5h-2.5c-.55,0-1,.45-1,1v6c0,.55.45,1,1,1s1-.45,1-1v-1l2.4,1.8c.18.14.39.2.6.2.945,0,1.352-1.236.6-1.8l-1.66-1.24ZM24.5,24h-1.5v-1h1.5c.28,0,.5.22.5.5s-.22.5-.5.5Z"/>
  <path d="M22.94,15.96c1.17-.21,2.06-1.23,2.06-2.46,0-1.38-1.12-2.5-2.5-2.5h-2.5c-.55,0-1,.45-1,1v6c0,.55.45,1,1,1s1-.45,1-1v-1l2.4,1.8c.18.14.39.2.599.2.945,0,1.351-1.237.601-1.8l-1.66-1.24ZM22.5,14h-1.5v-1h1.5c.28,0,.5.22.5.5s-.22.5-.5.5Z"/>
  <path d="M18,23c.552,0,1-.448,1-1s-.448-1-1-1h-4c-.552,0-1,.448-1,1v6c0,.552.448,1,1,1s1-.448,1-1v-2h3c.552,0,1-.448,1-1s-.448-1-1-1h-3v-1h3Z"/>
  <path d="M29,12c0-.552-.448-1-1-1s-1,.448-1,1v6c0,.552.448,1,1,1s1-.448,1-1v-6Z"/>
  <path d="M14,19c.552,0,1-.448,1-1v-5h1c.552,0,1-.448,1-1s-.448-1-1-1h-4c-.552,0-1,.448-1,1s.448,1,1,1h1v5c0,.552.448,1,1,1Z"/>
  <path d="M55.79,48.66c-.4.79-.65,1.66-.74,2.54,1.13.43,1.95,1.52,1.95,2.8v2c0,.55-.45,1-1,1s-1-.45-1-1v-2c0-.55-.45-1-1-1h-5c-.55,0-1-.45-1-1s.45-1,1-1h4.06c.12-1.12.44-2.23.94-3.24l.21-.42c.52-1.03.79-2.19.79-3.34v-6c0-.55-.45-1-1-1s-1,.45-1,1v4c0,.55-.45,1-1,1s-1-.45-1-1v-5c0-.55-.45-1-1-1s-1,.45-1,1v5c0,.55-.45,1-1,1s-1-.45-1-1v-6c0-.55-.45-1-1-1s-1,.45-1,1v6c0,.55-.45,1-1,1s-1-.45-1-1v-12c0-.55-.45-1-1-1s-1,.45-1,1v12.17c0,.41-.24.77-.62.93-.37.15-.8.06-1.09-.22l-4.58-4.59c-.38-.37-1.04-.37-1.42,0-.19.19-.29.44-.29.71s.1.52.29.71l5.58,6.37c1.21,1.39,1.95,3.11,2.15,4.92h3.98c.55,0,1,.45,1,1s-.45,1-1,1h-5c-.55,0-1,.45-1,1v2c0,.55-.45,1-1,1s-1-.45-1-1v-2c0-1.31.85-2.42,2.03-2.83-.16-1.39-.74-2.71-1.67-3.77l-5.53-6.33c-.52-.52-.83-1.27-.83-2.07s.31-1.55.88-2.12c1.13-1.13,3.11-1.13,4.24,0l2.88,2.88v-6.76H10c-1.65,0-3-1.35-3-3V10c0-1.65,1.35-3,3-3h36c1.65,0,3,1.35,3,3v2c0,.55-.45,1-1,1s-1-.45-1-1v-2c0-.55-.45-1-1-1H10c-.55,0-1,.45-1,1v20c0,.55.45,1,1,1h29v-1c0-.35.07-.69.18-1h-1.18c-.55,0-1-.45-1-1v-6c0-.55.45-1,1-1h4c.55,0,1,.45,1,1s-.45,1-1,1h-3v1h3c.55,0,1,.45,1,1s-.45,1-1,1h-3v1h3c1.65,0,3,1.35,3,3v1h1c.55,0,1-.45,1-1v-14c0-.55.45-1,1-1s1,.45,1,1v14c0,1.65-1.35,3-3,3h-1v.18c.31-.11.65-.18,1-.18,1.07,0,2,.56,2.53,1.4.44-.25.93-.4,1.47-.4,1.07,0,2,.56,2.53,1.4.44-.25.93-.4,1.47-.4,1.65,0,3,1.35,3,3v6c0,1.46-.35,2.93-1,4.24l-.21.42Z"/>
</svg>