<?xml version="1.0" encoding="UTF-8"?>
<svg id="Outline" xmlns="http://www.w3.org/2000/svg" version="1.1" viewBox="0 0 64 64">
  <!-- Generator: Adobe Illustrator 29.5.1, SVG Export Plug-In . SVG Version: 2.1.0 Build 141)  -->
  <circle cx="16" cy="52" r="1"/>
  <circle cx="48" cy="52" r="1"/>
  <path d="M53.4,32.15c-1.53-1.9-3.5-3.47-5.69-4.53-2.2-1.06-4.66-1.62-7.11-1.62h-.6c-.55,0-1,.45-1,1v19h-4v-2c0-.55-.45-1-1-1H8c-.55,0-1,.45-1,1v7c0,.55.45,1,1,1h3c0,2.76,2.24,5,5,5s5-2.24,5-5h22c0,2.76,2.24,5,5,5s5-2.24,5-5h3c.55,0,1-.45,1-1v-8.6c0-3.71-1.28-7.35-3.6-10.25ZM16,55c-1.65,0-3-1.35-3-3s1.35-3,3-3,3,1.35,3,3-1.35,3-3,3ZM33,50h-12.42c-.78-1.76-2.53-3-4.58-3s-3.8,1.24-4.58,3h-2.42v-5h24v5ZM39,50h-4v-2h4v2ZM48,55c-1.65,0-3-1.35-3-3s1.35-3,3-3,3,1.35,3,3-1.35,3-3,3ZM55,50h-2.42c-.78-1.76-2.53-3-4.58-3s-3.8,1.24-4.58,3h-2.42v-21.99c2.02.05,4.03.54,5.83,1.41,1.94.93,3.67,2.31,5.01,3.99,2.04,2.54,3.16,5.73,3.16,8.99v7.6Z"/>
  <path d="M32.4,21.04l-9.06-7.18c.41-.51.66-1.16.66-1.86,0-.95-.46-1.86-1.23-2.42-.16-.12-.37-.32-.54-.58h10.77c.55,0,1-.45,1-1s-.45-1-1-1H9c-.55,0-1,.45-1,1s.45,1,1,1h11.09c.2.84.71,1.62,1.5,2.19.26.19.41.49.41.81,0,.55-.45,1-1,1s-1-.45-1-1-.45-1-1-1-1,.45-1,1c0,.7.25,1.35.66,1.86l-9.06,7.18c-1.46.2-2.6,1.44-2.6,2.96v14c0,1.65,1.35,3,3,3h22c1.65,0,3-1.35,3-3v-14c0-1.52-1.14-2.76-2.6-2.96ZM20.5,14.95c.17.03.33.05.5.05s.33-.02.5-.05l7.63,6.05H12.87l7.63-6.05ZM24,23v3.38l-2.55-1.27c-.14-.07-.3-.11-.45-.11s-.31.04-.45.11l-2.55,1.27v-3.38h6ZM9,24c0-.55.45-1,1-1h6v2h-7v-1ZM33,38c0,.55-.45,1-1,1H10c-.55,0-1-.45-1-1v-11h7v1c0,.35.18.67.47.85.3.18.67.2.98.04l3.55-1.77,3.55,1.77c.14.07.3.11.45.11.547,0,1-.455,1-1v-1h7v11ZM33,25h-7v-2h6c.55,0,1,.45,1,1v1Z"/>
  <path d="M45.97,31.222c-.535-.262-1.101-.484-1.681-.66-.304-.091-.632-.035-.885.155-.254.188-.404.486-.404.803v7.48c0,.552.528,1,1.08,1,1.723,0,3.419.47,4.912,1.361.876.517,1.784.913,2.698,1.179.092.026.186.04.279.04.227,0,.449-.077.629-.223.255-.206.392-.524.368-.851-.187-2.519-1.116-4.887-2.688-6.853-1.161-1.442-2.652-2.63-4.309-3.431ZM50.013,39.642c-1.518-.907-3.217-1.453-5.013-1.601v-5.066c.032.015.063.03.095.046,1.396.675,2.65,1.673,3.625,2.884.956,1.196,1.643,2.619,2,4.118-.238-.117-.473-.244-.706-.381Z"/>
  <path d="M46,42h-2c-.552,0-1,.448-1,1s.448,1,1,1h2c.552,0,1-.448,1-1s-.448-1-1-1Z"/>
  <path d="M30,31H12c-.552,0-1,.448-1,1v4c0,.552.448,1,1,1h18c.552,0,1-.448,1-1v-4c0-.552-.448-1-1-1ZM29,35H13v-2h16v2Z"/>
</svg>