<?xml version="1.0" encoding="UTF-8"?>
<svg id="Outline" xmlns="http://www.w3.org/2000/svg" version="1.1" viewBox="0 0 64 64">
  <!-- Generator: Adobe Illustrator 29.5.1, SVG Export Plug-In . SVG Version: 2.1.0 Build 141)  -->
  <path d="M56.001,19c-1.1,0-2-.9-2-2,0-.55-.45-1-1-1h-31c-.27,0-.52.11-.71.29l-1.29,1.3-1.29-1.3c-.19-.18-.44-.29-.71-.29h-10c-.37,0-.71.2-.88.53-.18.32-.16.72.05,1.02l1.63,2.45-1.63,2.45c-.23.33-.23.77,0,1.1l1.63,2.45-1.63,2.45c-.23.33-.23.77,0,1.1l1.63,2.45-1.63,2.45c-.23.33-.23.77,0,1.1l1.63,2.45-1.63,2.45c-.23.33-.23.77,0,1.1l1.63,2.45-1.63,2.45c-.21.3-.23.7-.05,1.02.17.33.51.53.88.53h10c.27,0,.52-.11.71-.29l1.29-1.3,1.29,1.3c.19.18.44.29.71.29h31c.55,0,1-.45,1-1,0-1.1.9-2,2-2,.55,0,1-.45,1-1v-24c0-.55-.45-1-1-1ZM55.001,43.13c-1.4.36-2.51,1.47-2.87,2.87h-29.72l-1.41-1.41v-1.59c0-.55-.45-1-1-1s-1,.45-1,1v1.59l-1.41,1.41h-7.72l.96-1.45c.23-.33.23-.77,0-1.1l-1.63-2.45,1.63-2.45c.23-.33.23-.77,0-1.1l-1.63-2.45,1.63-2.45c.23-.33.23-.77,0-1.1l-1.63-2.45,1.63-2.45c.23-.33.23-.77,0-1.1l-1.63-2.45,1.63-2.45c.23-.33.23-.77,0-1.1l-.96-1.45h7.72l1.41,1.41v1.59c0,.55.45,1,1,1s1-.45,1-1v-1.59l1.41-1.41h29.72c.36,1.4,1.47,2.51,2.87,2.87v22.26Z"/>
  <path d="M20.001,33.199c-.553,0-1,.447-1,1v4.4c0,.553.447,1,1,1s1-.447,1-1v-4.4c0-.553-.447-1-1-1Z"/>
  <path d="M20.001,24.399c-.553,0-1,.447-1,1v4.4c0,.553.447,1,1,1s1-.447,1-1v-4.4c0-.553-.447-1-1-1Z"/>
  <path d="M24.001,37c.553,0,1-.447,1-1v-3h3c.553,0,1-.447,1-1s-.447-1-1-1h-3v-2h3c.553,0,1-.447,1-1s-.447-1-1-1h-4c-.553,0-1,.447-1,1v8c0,.553.447,1,1,1Z"/>
  <path d="M44.001,29c.553,0,1-.447,1-1s-.447-1-1-1h-4c-.553,0-1,.447-1,1v8c0,.553.447,1,1,1h4c.553,0,1-.447,1-1s-.447-1-1-1h-3v-2h3c.553,0,1-.447,1-1s-.447-1-1-1h-3v-2h3Z"/>
  <path d="M52.001,29c.553,0,1-.447,1-1s-.447-1-1-1h-4c-.553,0-1,.447-1,1v8c0,.553.447,1,1,1h4c.553,0,1-.447,1-1s-.447-1-1-1h-3v-2h3c.553,0,1-.447,1-1s-.447-1-1-1h-3v-2h3Z"/>
  <path d="M34.381,32.96c1.47-.19,2.62-1.43,2.62-2.96,0-1.65-1.35-3-3-3h-2c-.55,0-1,.45-1,1v8c0,.55.45,1,1,1s1-.45,1-1v-1.59l2.29,2.3c.2.19.45.29.71.29.87,0,1.32-1.09.71-1.71l-2.33-2.33ZM33.001,31v-2h1c.55,0,1,.45,1,1s-.45,1-1,1h-1Z"/>
  <path d="M52.001,40h-28c-.553,0-1,.447-1,1s.447,1,1,1h28c.553,0,1-.447,1-1s-.447-1-1-1Z"/>
  <path d="M52.001,22h-28c-.553,0-1,.447-1,1s.447,1,1,1h28c.553,0,1-.447,1-1s-.447-1-1-1Z"/>
</svg>