<?xml version="1.0" encoding="UTF-8"?>
<svg id="Outline" xmlns="http://www.w3.org/2000/svg" version="1.1" viewBox="0 0 64 64">
  <!-- Generator: Adobe Illustrator 29.5.1, SVG Export Plug-In . SVG Version: 2.1.0 Build 141)  -->
  <path d="M54.002,28.998c.38,0,.73-.21.89-.55l2-4c.16-.31.14-.68-.04-.98-.18-.29-.5-.47-.85-.47h-4.13c1.35-1.22,2.13-2.94,2.13-5,0-1.23-.28-2.52-.82-3.72-.16-.37-.56-.61-.96-.59-.41.02-.77.29-.9.68l-.14.42c-.12.36-.34.66-.65.88-.01.01-.02.01-.04.02-.07-1.72-.58-3.4-1.49-4.88-.28-.45-.6-.89-.97-1.31-.02-.02-.04-.04-.06-.06-.84-.96-1.85-1.75-3.02-2.33-.36-.18-.8-.13-1.1.13-.31.27-.43.69-.3,1.08l.33.99c.08.24.12.5.12.77,0,.63-.25,1.26-.7,1.71-.67.67-1.1,1.51-1.24,2.43-.32-.32-.58-.7-.75-1.13-.14-.35-.46-.59-.83-.63-.38-.04-.74.15-.94.46-.99,1.56-1.54,3.37-1.54,5.08,0,2.06.78,3.78,2.13,5h-4.13c-.35,0-.67.18-.85.47-.18.3-.2.67-.04.98l2,4c.16.34.51.55.89.55h1.14l.83,5.54c-.89.4-1.68,1-2.31,1.79l-.57.7c-.83,1.04-2,1.71-3.3,1.9-.43-1.12-1.51-1.93-2.79-1.93h-4c-1.28,0-2.37.81-2.8,1.95l-7.14-.42c-.56-.03-1.03.39-1.06.94s.39,1.03.94,1.06l7.06.41v4.06c0,.55.45,1,1,1s1-.45,1-1v-5c0-.55.45-1,1-1h4c.55,0,1,.45,1,1v14c0,.55-.45,1-1,1h-4c-.55,0-1-.45-1-1v-5c0-.55-.45-1-1-1s-1,.45-1,1v4.06l-16.06.94c-.55.03-.97.51-.94,1.06.03.53.47.94,1,.94h.06l16.14-.95c.43,1.14,1.52,1.95,2.8,1.95h4c1.3,0,2.4-.84,2.82-2h2.02l5.84,1.95c.11.03.21.05.32.05h8c1.65,0,3-1.35,3-3,0-.35-.07-.69-.18-1h.18c1.65,0,3-1.35,3-3,0-.77-.3-1.47-.78-2,.48-.53.78-1.23.78-2s-.3-1.47-.78-2c.48-.53.78-1.23.78-2,0-1.65-1.35-3-3-3h-1.64l1.5-10h1.14ZM40.002,17.998c0-.83.17-1.7.49-2.53.43.48.96.87,1.54,1.16l.52.26c.31.16.68.14.97-.04.3-.18.48-.5.48-.85v-1.08c0-.65.25-1.26.71-1.72.78-.78,1.24-1.84,1.29-2.93.18.17.35.35.51.54.02.02.04.04.06.06.28.32.52.65.73.99.78,1.28,1.2,2.74,1.2,4.23v.91c0,.55.45,1,1,1,.8,0,1.56-.25,2.2-.71.08-.06.16-.12.24-.18.04.3.06.6.06.89,0,3.69-3.23,5-6,5s-6-1.31-6-5ZM53.002,40.998c.55,0,1,.45,1,1s-.45,1-1,1h-8c-.55,0-1,.45-1,1s.45,1,1,1h8c.55,0,1,.45,1,1s-.45,1-1,1h-8c-.55,0-1,.45-1,1s.45,1,1,1h8c.55,0,1,.45,1,1s-.45,1-1,1h-8c-.55,0-1,.45-1,1s.45,1,1,1h5c.55,0,1,.45,1,1s-.45,1-1,1h-7.84l-5.84-1.95c-.11-.03-.21-.05-.32-.05h-2v-12.08c1.82-.25,3.48-1.17,4.65-2.64l.57-.7c.8-1,2-1.58,3.28-1.58s2.48.58,3.28,1.58l1.14,1.42h-3.92c-.55,0-1,.45-1,1s.45,1,1,1h10ZM41.161,28.998h9.68l-1.48,9.85-2.02-2.52c-1.18-1.48-2.95-2.33-4.84-2.33-.2,0-.39.01-.58.03l-.76-5.03ZM38.622,26.998l-1-2h16.76l-1,2h-14.76Z"/>
  <path d="M7.943,39.996l5,.29c.02,0,.04.002.059.002.526,0,.966-.41.998-.942.032-.551-.389-1.024-.94-1.056l-5-.29c-.55-.026-1.024.389-1.057.94-.032.551.389,1.024.94,1.056Z"/>
</svg>