<?xml version="1.0" encoding="UTF-8"?>
<svg id="Outline" xmlns="http://www.w3.org/2000/svg" version="1.1" viewBox="0 0 64 64">
  <!-- Generator: Adobe Illustrator 29.0.0, SVG Export Plug-In . SVG Version: 2.1.0 Build 186)  -->
  <path d="M48.99945,17h-5v-1c0-2.76001-2.23999-5-5-5h-8v-2h2c.54999,0,1-.45001,1-1s-.45001-1-1-1h-6c-.54999,0-1,.45001-1,1s.45001,1,1,1h2v2h-8c-2.40997,0-4.42999,1.71997-4.90002,4h-5.09998c-.40002,0-.77002.23999-.91998.62-.16003.37-.07001.79999.20996,1.08997l5.71002,5.70001v31.59003c0,1.64996,1.34998,3,3,3h22c1.65002,0,3-1.35004,3-3v-11h5c2.76001,0,5-2.23999,5-5v-16c0-2.76001-2.23999-5-5-5ZM20.99945,13h18c1.29999,0,2.41998.83997,2.83002,2h-23.66003c.41003-1.16003,1.53003-2,2.83002-2ZM41.99945,54c0,.54999-.45001,1-1,1h-22c-.54999,0-1-.45001-1-1v-3h24v3ZM41.99945,49h-24v-2h24v2ZM41.99945,45h-24v-9.03003l2.02002-.5c3.20996-.79999,6.52997-.57996,9.60999.65002,2.10999.83997,4.32001,1.27002,6.53998,1.27002,1.44,0,2.88-.18005,4.29999-.53003l1.53003-.39001v8.53003ZM41.99945,34.40997l-2.02002.51001c-3.20996.79999-6.52997.57001-9.60999-.65997-3.46002-1.38-7.21002-1.64001-10.83997-.73004l-1.53003.38v-11.90997c0-.27002-.10999-.52002-.28998-.71002l-4.30005-4.28998h28.59003v17.40997ZM43.99945,23h4v14h-4v-14ZM51.99945,38c0,1.64996-1.34998,3-3,3h-5v-2h5c.54999,0,1-.45001,1-1v-16c0-.54999-.45001-1-1-1h-5v-2h5c1.65002,0,3,1.34998,3,3v16Z"/>
</svg>