<?xml version="1.0" encoding="UTF-8"?>
<svg id="Outline" xmlns="http://www.w3.org/2000/svg" version="1.1" viewBox="0 0 64 64">
  <!-- Generator: Adobe Illustrator 29.5.1, SVG Export Plug-In . SVG Version: 2.1.0 Build 141)  -->
  <path d="M56.77002,28.98511c-.19-.23999-.47003-.37-.77002-.37h-2.67999l-2.95001-14.42999c-.10999-.54004-.64001-.89001-1.17999-.78003l-3.28998.66998c-.16003-.33997-.5-.57996-.90002-.57996h-4c-.54999,0-1,.44995-1,1v.13l-3.21002-1.02002c-.51996-.16998-1.08997.12-1.25.65002l-2.53998,7.96997v-7.72998c0-.55005-.45001-1-1-1h-8c-.40002,0-.73999.23999-.90002.57996l-2.77997-.63995c-.25-.07001-.52002-.02002-.75.12-.22003.13995-.38.37-.44.63l-2.28003,9.85999-2.27997-9.85999c-.12-.54004-.66003-.88-1.19-.75l-3.90002.89996c-.53998.12-.88.66003-.75,1.19l3.01001,13.09003h-3.73999c-.29999,0-.58002.13-.77002.37-.19.22998-.26996.52997-.20996.83002l3.67999,18.38995c.27997,1.40002,1.51001,2.41003,2.94,2.41003h36.71997c1.42999,0,2.66003-1.01001,2.94-2.41003l3.67999-18.38995c.06-.30005-.01996-.60004-.20996-.83002ZM48.60999,15.56513l2.66003,13.04999h-2.03003l-2.58997-12.65002,1.95996-.39996ZM46,22.77509l1.19,5.84003h-1.19v-5.84003ZM42,15.49512h2v13.12h-2v-13.12ZM37.14001,15.81513l1.89996.59998-3.88,12.20001h-2.08997l4.07001-12.79999ZM40,20.00513v8.60999h-2.73999l2.73999-8.60999ZM29,15.49512h2v13.12h-2v-13.12ZM25,15.49512h2v13.12h-2v-13.12ZM20.84998,15.60511l1.95001.45001-2.89996,12.56h-1.99005l-.02997-.12,2.96997-12.89001ZM23,24.0951v4.52002h-1.03998l1.03998-4.52002ZM10.90002,16.05512l1.94995-.45001,3,13.01001h-2.04999l-2.89996-12.56ZM51.34003,47.81513c-.09003.45996-.5.79999-.98004.79999H13.64001c-.48004,0-.89001-.34003-.98004-.79999l-3.44-17.20001h45.56006l-3.44,17.20001Z"/>
  <path d="M51.12061,32.61512H12.87939c-.2998,0-.5835.13428-.77344.36621-.18994.23145-.26611.53613-.20703.83008l2.39941,12c.09326.46729.50391.80371.98047.80371h33.44238c.47656,0,.88721-.33643.98047-.80371l2.39941-12c.05908-.29395-.01709-.59863-.20703-.83008-.18994-.23193-.47363-.36621-.77344-.36621ZM47.90137,44.61512h-31.80273l-1.99951-10h35.80176l-1.99951,10Z"/>
</svg>