<?xml version="1.0" encoding="UTF-8"?>
<svg id="Outline" xmlns="http://www.w3.org/2000/svg" version="1.1" viewBox="0 0 64 64">
  <!-- Generator: Adobe Illustrator 29.5.1, SVG Export Plug-In . SVG Version: 2.1.0 Build 141)  -->
  <path d="M52.77,27.352c-.19-.23-.47-.36-.77-.36h-3V7.992c0-.55-.45-1-1-1h-4c-.55,0-1,.45-1,1v2h-3c-.55,0-1,.45-1,1v4h-2v-4c0-.38-.21-.73-.55-.89-.34-.17-.75-.14-1.05.09l-4,3c-.25.19-.4.49-.4.8v1l-2.4-1.8c-.3-.23-.71-.26-1.05-.09-.34.16-.55.51-.55.89v3l-2-1.5v-3.5c0-.38-.21-.73-.55-.89-.34-.17-.75-.14-1.05.09l-2.4,1.8v-5c0-.38-.21-.73-.55-.89-.34-.17-.75-.14-1.05.09l-4,3c-.25.19-.4.49-.4.8v16h-3c-.3,0-.58.13-.77.36-.19.22-.27.52-.21.82l5,28c.04.27.21.51.44.66.24.15.529.2.799.13,4.899-1.265,9.905-1.955,14.97-1.935,2.596.01,5.191.198,7.762.561,1.288.182,2.569.408,3.842.677.947.201,3.841,1.622,4.147-.093,0,0,5-28,5-28,.06-.3-.02-.6-.21-.82ZM45,8.992h2v18h-2V8.992ZM41,11.992h2v16c0,2.35-.74,4.52-2,6.3V11.992ZM37,16.992h2v19.48c-.61.51-1.29.94-2,1.31v-20.79ZM33,14.492l2-1.5v25.57c-.65.19-1.31.32-2,.38V14.492ZM29,15.992l2,1.5v21.45c-.69-.06-1.35-.19-2-.38V15.992ZM25,17.992l2,1.5v18.29c-.71-.37-1.39-.8-2-1.31v-18.48ZM21,15.492l2-1.5v20.3c-1.26-1.78-2-3.95-2-6.3v-12.5ZM17,11.492l2-1.5v17h-2v-15.5ZM46.21,54.752c-4.66-1.15-9.44-1.72-14.21-1.72s-9.55.57-14.21,1.72l-4.6-25.76h5.85c.51,6.7,6.13,12,12.96,12s12.45-5.3,12.96-12h5.85l-4.6,25.76Z"/>
</svg>