<?xml version="1.0" encoding="UTF-8"?>
<svg id="Outline" xmlns="http://www.w3.org/2000/svg" version="1.1" viewBox="0 0 64 64">
  <!-- Generator: Adobe Illustrator 29.5.1, SVG Export Plug-In . SVG Version: 2.1.0 Build 141)  -->
  <path d="M56,30.999h-1.68l-2.53-1.77,3.15-8.51c.13-.36.05-.76-.21-1.03l-3.06-3.27c-.24-.26-.59-.37-.93-.3-.34.07-.62.31-.74.63l-3.31,8.96c-.98-.55-2.05-.89-3.14-1.02l3.47-3.47c.26-.27.36-.67.24-1.03l-1.41-4.24c-.11-.32-.38-.57-.72-.65-.34-.08-.69.02-.94.26l-3.19,3.2v-.76c0-.38-.21-.73-.55-.89l-4-2c-.31-.16-.68-.14-.98.04-.29.18-.47.5-.47.85v9.55c-.26-.05-.52-.11-.77-.19l-1.11-.37-3.04-8.24c-.12-.32-.4-.56-.74-.63-.34-.07-.69.04-.93.3l-3.06,3.27c-.26.27-.34.67-.21,1.03l1.61,4.31-2.75.92v-5.95c0-.55-.45-1-1-1h-4c-.55,0-1,.45-1,1v6.3c-.14-.01-.27-.03-.41-.04l-3.51-9.51c-.12-.32-.4-.56-.74-.63-.35-.07-.69.04-.93.3l-3.06,3.27c-.26.27-.34.67-.21,1.03l2.7,7.28c-1,.77-1.84,1.77-2.44,2.96l-.02.04h-1.38c-.55,0-1,.45-1,1v2c0,1.65,1.35,3,3,3h.15l1.86,11.16c.08.49.5.84.99.84h29c.55,0,1-.45,1-1s-.45-1-1-1H13.85l-1.67-10h39.64l-1.67,10h-4.15c-.55,0-1,.45-1,1s.45,1,1,1h5c.49,0,.91-.35.99-.84l1.86-11.16h.15c1.65,0,3-1.35,3-3v-2c0-.55-.45-1-1-1ZM51.32,18.969l1.53,1.63-2.76,7.44-1.7-1.18,2.93-7.89ZM41,21.579l3.46-3.46.71,2.12-4.17,4.17v-2.83ZM37,17.619l2,1v6.6l-1.11.28c-.3.07-.59.12-.89.15v-8.03ZM28.76,18.969l2.04,5.5c-.7-.06-1.41-.06-2.11.05l-1.46-3.92,1.53-1.63ZM20,20.999h2v5.55c-.66.14-1.33.18-2,.1v-5.65ZM11.23,20.599l1.53-1.63,2.74,7.4c-.66.12-1.3.32-1.91.59l-2.36-6.36ZM55,33.999c0,.55-.45,1-1,1H10c-.55,0-1-.45-1-1v-1h6c.55,0,1-.45,1-1s-.45-1-1-1h-3.29c1.54-2.18,4.25-3.23,6.92-2.56,1.57.39,3.22.33,4.77-.19l4.53-1.51c1.34-.44,2.8-.44,4.14,0l1.53.51c1.54.52,3.2.58,4.77.19l2.54-.64c1.83-.46,3.78-.1,5.33.99l4.59,3.21h-31.83c-.55,0-1,.45-1,1s.45,1,1,1h36v1Z"/>
</svg>