<?xml version="1.0" encoding="UTF-8"?>
<svg id="Outline" xmlns="http://www.w3.org/2000/svg" version="1.1" viewBox="0 0 64 64">
  <!-- Generator: Adobe Illustrator 29.3.1, SVG Export Plug-In . SVG Version: 2.1.0 Build 151)  -->
  <path d="M39.96858,27.0012v-3.35004c0-2.60999-1.66998-4.92999-4.15002-5.75-1.26996-.42999-2.25-1.44995-2.62-2.73999l-.60999-2.12c-.5-1.76001-1.75-3.19-3.44-3.90997l-4.78998-2.05005c-.35999-.15997-.78003-.07996-1.07001.18005-.28998.26996-.39001.67999-.27002,1.06l.66003,1.98999c.26996.78998.19995,1.64001-.19,2.38-.39001.73999-1.05005,1.27997-1.86005,1.51001-2.13995.60999-3.62994,2.57996-3.65997,4.79999-.82001,0-1.58002.33997-2.12.88-.53998.53998-.88,1.29999-.88,2.12v1c-1.65002,0-3,1.34998-3,3v1c-.81,0-1.57001.32001-2.10999.87-.57001.56-.89001,1.32001-.89001,2.13,0,1.35999.90997,2.5,2.15002,2.85999l3.54999,17.72998c.22998,1.17999,1.15997,2.08002,2.29999,2.33002v1.08002c0,1.64996,1.34998,3,3,3h12c1.65002,0,3-1.35004,3-3v-1.08002c1.14001-.25,2.07001-1.15002,2.29999-2.33002l3.54999-17.71997c.47003-.14001.91003-.39001,1.26001-.73999.57001-.56.89001-1.32001.89001-2.13,0-1.65002-1.34998-3-3-3ZM32.96858,54.0012c0,.54999-.45001,1-1,1h-12c-.54999,0-1-.45001-1-1v-1h14v1ZM35.30861,50.20121c-.09003.45996-.5.79999-.98004.79999h-16.71997c-.48004,0-.89001-.34003-.98004-.79999l-3.44-17.20001h25.56006l-3.44,17.20001ZM40.65858,30.71116c-.17999.19-.41998.29004-.69.29004H11.96858c-.54976,0-.99963-.44964-1-.99933-.00036-.54319.46082-1.00067,1-1.00067h12c.54999,0,1-.45001,1-1s-.45001-1-1-1h-10v-1c0-.54999.45001-1,1-1h6c.54999,0,1-.45001,1-1s-.45001-1-1-1h-4v-1c0-.54999.45001-1,1-1h6c.54999,0,1-.45001,1-1s-.45001-1-1-1h-4c.03003-1.33002.92999-2.51001,2.21002-2.88,1.33997-.38,2.42999-1.27002,3.07996-2.5.63-1.19.75-2.54004.36005-3.83002l2.73999,1.17999c1.13.48004,1.96997,1.44,2.31,2.62l.59998,2.12c.56,1.92004,2.02002,3.45001,3.91998,4.08002,1.66003.56,2.78003,2.10999,2.78003,3.85999v3.35004h-6c-.54999,0-1,.45001-1,1s.45001,1,1,1h8c.54999,0,1,.45001,1,1,0,.26996-.09998.51001-.31.70996Z"/>
  <path d="M18.26741,48.19749c.09375.4668.50391.80371.98047.80371h13.44141c.47656,0,.88672-.33691.98047-.80371l2.40039-12c.05859-.29395-.01758-.59863-.20703-.83008-.19043-.23145-.47363-.36621-.77344-.36621h-18.24219c-.2998,0-.58301.13477-.77344.36621-.18945.23145-.26562.53613-.20703.83008l2.40039,12ZM33.86995,37.0012l-2,10h-11.80273l-2-10h15.80273Z"/>
  <path d="M53.77229,15.80295l-2.33203.62512-2.47137-1.42688,2.47137-1.42688,2.33203.62512c.51167.13716,1.08101-.17231,1.22461-.70703.14355-.5332-.17383-1.08203-.70703-1.22461l-1.7666-.47363.47363-1.7666c.14355-.5332-.17383-1.08203-.70703-1.22461-.53125-.14258-1.08105.17383-1.22461.70703l-.62506,2.33197-2.47162,1.427v-2.8537l1.70703-1.70703c.39062-.39062.39062-1.02344,0-1.41406s-1.02344-.39062-1.41406,0l-1.29297,1.29297-1.29297-1.29297c-.39062-.39062-1.02344-.39062-1.41406,0s-.39062,1.02344,0,1.41406l1.70703,1.70703v2.8537l-2.47162-1.427-.62506-2.33197c-.14355-.53418-.69043-.85059-1.22461-.70703-.5332.14258-.85059.69141-.70703,1.22461l.47363,1.7666-1.7666.47363c-.53317.14257-.85055.69134-.70706,1.22451.14082.52325.70175.84814,1.22464.70713l2.33203-.62512,2.47137,1.42688-2.47137,1.42688-2.33203-.62512c-.53223-.14355-1.08105.17285-1.22461.70703-.14355.5332.17383,1.08203.70703,1.22461l1.7666.47363-.47363,1.7666c-.14355.5332.17383,1.08203.70708,1.22462.54928.14809,1.05236-.19044,1.22456-.70705l.62506-2.33197,2.47162-1.427v2.8537l-1.70703,1.70703c-.39062.39062-.39062,1.02344,0,1.41406s1.02344.39062,1.41406,0l1.29297-1.29297s1.29297,1.29297,1.29298,1.29298c.38633.38632,1.0284.38564,1.41405,0,.39062-.39062.39062-1.02344,0-1.41406l-1.70703-1.70703v-2.8537l2.47162,1.427.62506,2.33197c.12011.44722.52336.74115.96471.74121.64228.00008,1.13444-.6366.96693-1.25879l-.47363-1.7666,1.7666-.47363c.5332-.14258.85059-.69141.70703-1.22461-.14355-.53418-.68945-.85156-1.22461-.70703Z"/>
  <circle cx="27.96858" cy="28.0012" r="1"/>
</svg>