<?xml version="1.0" encoding="UTF-8"?>
<svg id="Outline" xmlns="http://www.w3.org/2000/svg" version="1.1" viewBox="0 0 48 48">
  <!-- Generator: Adobe Illustrator 29.5.1, SVG Export Plug-In . SVG Version: 2.1.0 Build 141)  -->
  <path d="M41.4,28.881c-.49-.71-.52-1.5-.45-2.04.1-.86.05-1.74-.17-2.61-.65-2.58-2.76-4.58-5.37-5.09-1.1-.22-2.2-.17-3.24.11-2.21-3.08-5.44-5.16-9.08-5.93.25-1.21,1.02-2.26,2.17-2.83l1.19-.6c.31-.15.51-.46.55-.8.03-.34-.12-.68-.4-.89l-4-3c-.36-.27-.84-.27-1.2,0-1.24.93-2.24,2.12-2.98,3.44-.27-.67-.65-1.32-1.2-1.86-2.28-2.29-6.33-1.73-6.5-1.7-.44.06-.78.41-.85.84-.02.18-.58,4.23,1.7,6.51.88.88,2.03,1.33,3.11,1.56-5.65,2.16-9.68,7.61-9.68,14.01,0,8.27,6.73,15,15,15,2.85,0,5.59-.8,7.98-2.32,1.18,1.06,2.62,1.84,4.23,2.15.59.11,1.18.17,1.77.17,2.09,0,4.12-.71,5.74-2.05,2.09-1.72,3.28-4.25,3.28-6.95,0-1.84-.56-3.61-1.6-5.12ZM22.03,7.271l2.08,1.56c-1.6.9-2.68,2.44-3,4.21-.37-.02-.74-.04-1.11-.04-.32,0-.63.03-.95.05.24-2.22,1.31-4.29,2.98-5.78ZM12.98,11.021c-1.08-1.09-1.21-2.96-1.18-4.02,1.05-.02,2.93.1,4.01,1.19,1.09,1.08,1.21,2.95,1.19,4.01-1.06.04-2.93-.1-4.02-1.18ZM20,41.001c-7.17,0-13-5.83-13-13s5.83-13,13-13c4.07,0,7.82,1.89,10.27,5.08-.24.16-.49.32-.72.51-1.62,1.34-2.55,3.31-2.55,5.41,0,.23.01.46.03.69.09.87-.1,1.69-.54,2.35-1.29,1.96-1.77,4.33-1.33,6.68.24,1.26.76,2.43,1.47,3.45-2,1.2-4.27,1.83-6.63,1.83ZM38.45,39.401c-1.62,1.34-3.75,1.87-5.86,1.46-2.75-.53-4.95-2.75-5.46-5.51-.35-1.83.02-3.68,1.03-5.2.7-1.06,1-2.32.86-3.66-.01-.16-.02-.32-.02-.49,0-1.5.67-2.91,1.83-3.86.9-.75,2-1.14,3.16-1.14.34,0,.68.03,1.03.1,1.83.36,3.36,1.81,3.82,3.62.16.63.2,1.26.12,1.88-.15,1.25.13,2.47.79,3.42.82,1.17,1.25,2.55,1.25,3.98,0,2.1-.93,4.07-2.55,5.4Z"/>
  <path d="M34,29.001c-2.757,0-5,2.243-5,5s2.243,5,5,5,5-2.243,5-5-2.243-5-5-5ZM34,37.001c-1.654,0-3-1.346-3-3s1.346-3,3-3,3,1.346,3,3-1.346,3-3,3Z"/>
</svg>