<?xml version="1.0" encoding="UTF-8"?>
<svg id="Outlie" xmlns="http://www.w3.org/2000/svg" version="1.1" viewBox="0 0 64 64">
  <!-- Generator: Adobe Illustrator 29.5.1, SVG Export Plug-In . SVG Version: 2.1.0 Build 141)  -->
  <path d="M54.3,30.03c.45-1.29.7-2.65.7-4.03,0-4.87-2.92-9.06-7.1-10.94,1.27-.91,2.1-2.39,2.1-4.06v-2c0-.55-.45-1-1-1h-2c-1.64,0-3.09.81-4,2.03-.91-1.22-2.36-2.03-4-2.03h-2c-.55,0-1,.45-1,1v2c0,1.67.83,3.15,2.1,4.06-2.72,1.22-4.91,3.42-6.1,6.16-1.19-2.74-3.38-4.94-6.1-6.16,1.27-.91,2.1-2.39,2.1-4.06v-2c0-.55-.45-1-1-1h-2c-1.64,0-3.09.81-4,2.03-.91-1.22-2.36-2.03-4-2.03h-2c-.55,0-1,.45-1,1v2c0,1.67.83,3.15,2.1,4.06-4.18,1.88-7.1,6.07-7.1,10.94,0,1.38.25,2.74.7,4.03-1.51.15-2.7,1.42-2.7,2.97v2c0,1.65,1.35,3,3,3v3.19c0,5.27,1.86,10.4,5.23,14.45.19.23.47.36.77.36h32c.3,0,.58-.13.77-.36,3.37-4.05,5.23-9.18,5.23-14.45v-3.19c1.65,0,3-1.35,3-3v-2c0-1.55-1.19-2.82-2.7-2.97ZM44,13c0-1.65,1.35-3,3-3h1v1c0,1.65-1.35,3-3,3h-1v-1ZM38,11v-1h1c1.65,0,3,1.35,3,3v1h-1c-1.65,0-3-1.35-3-3ZM43,16c5.51,0,10,4.49,10,10,0,1.4-.3,2.74-.85,4h-18.3c-.55-1.26-.85-2.6-.85-4,0-5.51,4.49-10,10-10ZM22,13c0-1.65,1.35-3,3-3h1v1c0,1.65-1.35,3-3,3h-1v-1ZM16,11v-1h1c1.65,0,3,1.35,3,3v1h-1c-1.65,0-3-1.35-3-3ZM21,16c5.51,0,10,4.49,10,10,0,1.4-.3,2.74-.85,4H11.85c-.55-1.26-.85-2.6-.85-4,0-5.51,4.49-10,10-10ZM52,41.19c0,4.65-1.59,9.18-4.48,12.81h-31.04c-2.89-3.63-4.48-8.16-4.48-12.81v-3.19h40v3.19ZM55,35c0,.55-.45,1-1,1H10c-.55,0-1-.45-1-1v-2c0-.55.45-1,1-1h44c.55,0,1,.45,1,1v2Z"/>
  <path d="M14,27c.552,0,1-.447,1-1,0-3.309,2.691-6,6-6,.552,0,1-.447,1-1s-.448-1-1-1c-4.411,0-8,3.589-8,8,0,.553.448,1,1,1Z"/>
  <path d="M36,27c.552,0,1-.447,1-1,0-3.309,2.691-6,6-6,.552,0,1-.447,1-1s-.448-1-1-1c-4.411,0-8,3.589-8,8,0,.553.448,1,1,1Z"/>
</svg>