<?xml version="1.0" encoding="UTF-8"?>
<svg id="Outline" xmlns="http://www.w3.org/2000/svg" version="1.1" viewBox="0 0 64 64">
  <!-- Generator: Adobe Illustrator 29.5.1, SVG Export Plug-In . SVG Version: 2.1.0 Build 141)  -->
  <path d="M53.8,18.321c.12-.43.2-.86.2-1.32,0-2.76-2.24-5-5-5-.22,0-.44.01-.65.04-.62-.49-1.27-.95-1.93-1.38.29-.72.72-1.39,1.29-1.95.39-.39.39-1.03,0-1.42-.39-.39-1.03-.39-1.42,0-.69.69-1.23,1.49-1.61,2.36-3.28-1.71-6.94-2.65-10.68-2.65-.24,0-.47.08-.65.24L7.35,29.241l.01.01c-.21.18-.36.44-.36.75v24c0,1.65,1.35,3,3,3h44c1.65,0,3-1.35,3-3v-24c0-4.14-1.11-8.16-3.2-11.68ZM48.98,14.001h.02c1.65,0,3,1.35,3,3s-1.35,3-3,3h-.02c.63-.84,1.02-1.87,1.02-3s-.39-2.16-1.02-3ZM45,14.001c1.65,0,3,1.35,3,3s-1.35,3-3,3-3-1.35-3-3,1.35-3,3-3ZM34.36,9.001c3.43.06,6.77.98,9.74,2.61-.02.16-.05.32-.06.49-2.3.45-4.04,2.47-4.04,4.9,0,2.76,2.24,5,5,5,.71,0,1.39-.16,2-.43.64.28,1.31.43,2,.43,1.45,0,2.75-.63,3.66-1.62,1.38,2.66,2.16,5.6,2.31,8.62H10.73l23.63-20ZM55,54.001c0,.55-.45,1-1,1H10c-.55,0-1-.45-1-1v-2.59l.29.3c1.5,1.49,3.92,1.49,5.42,0,.71-.72,1.87-.72,2.58,0,1.5,1.49,3.92,1.49,5.42,0,.71-.72,1.87-.72,2.58,0,1.5,1.49,3.92,1.49,5.42,0,.71-.72,1.87-.72,2.58,0,1.5,1.49,3.92,1.49,5.42,0,.71-.72,1.87-.72,2.58,0,1.5,1.49,3.92,1.49,5.42,0,.71-.72,1.87-.72,2.58,0,.75.74,1.73,1.12,2.71,1.12s1.96-.38,2.71-1.12l.29-.3v2.59ZM55,48.591l-1.71,1.7c-.71.72-1.87.72-2.58,0-1.5-1.49-3.92-1.49-5.42,0-.71.72-1.87.72-2.58,0-1.5-1.49-3.92-1.49-5.42,0-.71.72-1.87.72-2.58,0-1.5-1.49-3.92-1.49-5.42,0-.71.72-1.87.72-2.58,0-1.5-1.49-3.92-1.49-5.42,0-.71.72-1.87.72-2.58,0-1.5-1.49-3.92-1.49-5.42,0-.71.72-1.87.72-2.58,0l-1.71-1.7v-2.18l.29.3c1.5,1.49,3.92,1.49,5.42,0,.71-.72,1.87-.72,2.58,0,1.5,1.49,3.92,1.49,5.42,0,.71-.72,1.87-.72,2.58,0,1.5,1.49,3.92,1.49,5.42,0,.71-.72,1.87-.72,2.58,0,1.5,1.49,3.92,1.49,5.42,0,.71-.72,1.87-.72,2.58,0,1.5,1.49,3.92,1.49,5.42,0,.71-.72,1.87-.72,2.58,0,.75.74,1.73,1.12,2.71,1.12s1.96-.38,2.71-1.12l.29-.3v2.18ZM55,34.001h-6c-.55,0-1,.45-1,1s.45,1,1,1h6v4H16c-.55,0-1,.45-1,1s.45,1,1,1h39v1.59l-1.71,1.7c-.71.72-1.87.72-2.58,0-1.5-1.49-3.92-1.49-5.42,0-.71.72-1.87.72-2.58,0-1.5-1.49-3.92-1.49-5.42,0-.71.72-1.87.72-2.58,0-1.5-1.49-3.92-1.49-5.42,0-.71.72-1.87.72-2.58,0-1.5-1.49-3.92-1.49-5.42,0-.71.72-1.87.72-2.58,0-1.5-1.49-3.92-1.49-5.42,0-.71.72-1.87.72-2.58,0l-1.71-1.7v-1.59h3c.55,0,1-.45,1-1s-.45-1-1-1h-3v-4h36c.55,0,1-.45,1-1s-.45-1-1-1H9v-3h46v3Z"/>
  <circle cx="18" cy="26.001" r="1"/>
  <circle cx="22" cy="26.001" r="1"/>
  <circle cx="24" cy="22.001" r="1"/>
  <circle cx="27" cy="25.001" r="1"/>
  <circle cx="28" cy="20.001" r="1"/>
  <circle cx="32" cy="26.001" r="1"/>
  <circle cx="33" cy="22.001" r="1"/>
  <circle cx="32" cy="17.001" r="1"/>
  <circle cx="36" cy="13.001" r="1"/>
  <circle cx="37" cy="18.001" r="1"/>
  <circle cx="38" cy="23.001" r="1"/>
  <circle cx="44" cy="26.001" r="1"/>
  <circle cx="49" cy="25.001" r="1"/>
</svg>