<?xml version="1.0" encoding="UTF-8"?>
<svg id="Outline" xmlns="http://www.w3.org/2000/svg" version="1.1" viewBox="0 0 64 64">
  <!-- Generator: Adobe Illustrator 29.5.1, SVG Export Plug-In . SVG Version: 2.1.0 Build 141)  -->
  <path d="M48,21h-1.05c-.52-7.8-7.02-14-14.95-14s-14.43,6.2-14.95,14h-1.05c-.55,0-1,.45-1,1v4c0,.55.45,1,1,1h1.09l2.74,27.3c.15,1.54,1.43,2.7,2.98,2.7h18.38c1.55,0,2.83-1.16,2.98-2.7l1.33-13.2c.05-.55-.35-1.04-.9-1.1-.55-.05-1.04.35-1.1.9l-1.32,13.2c-.05.51-.47.9-.99.9h-18.38c-.52,0-.94-.39-.99-.9l-2.23-22.23.6-.17c3.79-1.08,7.76-1,11.49.25,2.21.73,4.49,1.1,6.78,1.1,1.98,0,3.96-.27,5.9-.83h.01l-.46,4.68c-.06.55.34,1.04.89,1.1.56.05,1.04-.35,1.1-.9l1.01-10.1h1.09c.55,0,1-.45,1-1v-4c0-.55-.45-1-1-1ZM44.59,30.08l-.78.22c-3.79,1.08-7.76,1-11.49-.25-4.12-1.37-8.5-1.47-12.68-.27l-.25.07-.28-2.85h25.79l-.31,3.08ZM47,25h-30v-2h5c.55,0,1-.45,1-1s-.45-1-1-1h-2.95c.51-6.7,6.12-12,12.95-12s12.44,5.3,12.95,12h-18.95c-.55,0-1,.45-1,1s.45,1,1,1h21v2Z"/>
  <path d="M26,47c-1.654,0-3,1.346-3,3s1.346,3,3,3,3-1.346,3-3-1.346-3-3-3ZM26,51c-.552,0-1-.449-1-1s.448-1,1-1,1,.449,1,1-.448,1-1,1Z"/>
  <path d="M38,53c1.654,0,3-1.346,3-3s-1.346-3-3-3-3,1.346-3,3,1.346,3,3,3ZM38,49c.552,0,1,.449,1,1s-.448,1-1,1-1-.449-1-1,.448-1,1-1Z"/>
  <path d="M32,49c1.654,0,3-1.346,3-3s-1.346-3-3-3-3,1.346-3,3,1.346,3,3,3ZM32,45c.552,0,1,.449,1,1s-.448,1-1,1-1-.449-1-1,.448-1,1-1Z"/>
  <path d="M26,39c-1.654,0-3,1.346-3,3s1.346,3,3,3,3-1.346,3-3-1.346-3-3-3ZM26,43c-.552,0-1-.449-1-1s.448-1,1-1,1,.449,1,1-.448,1-1,1Z"/>
  <path d="M38,39c-1.654,0-3,1.346-3,3s1.346,3,3,3,3-1.346,3-3-1.346-3-3-3ZM38,43c-.552,0-1-.449-1-1s.448-1,1-1,1,.449,1,1-.448,1-1,1Z"/>
</svg>