<?xml version="1.0" encoding="UTF-8"?>
<svg id="Outline" xmlns="http://www.w3.org/2000/svg" version="1.1" viewBox="0 0 64 64">
  <!-- Generator: Adobe Illustrator 29.5.1, SVG Export Plug-In . SVG Version: 2.1.0 Build 141)  -->
  <path d="M56.13,36.89c-.56-.57-1.32-.89-2.13-.89v-1.78c0-6.15-2.68-11.98-7.35-15.98-.28-.24-.68-.31-1.02-.17l-5,2c-.51.21-.76.79-.56,1.3l.85,2.12c1.72,4.29.78,9.15-2.35,12.51h-1.42c.55-1.25.85-2.61.85-4,0-5.51-4.49-10-10-10-1.57,0-3.1.39-4.49,1.09-1.07-.55-2.25-.91-3.5-1.04.05-2.4,1-4.64,2.7-6.34.39-.39.39-1.03,0-1.42-.39-.39-1.03-.39-1.42,0-.52.53-.99,1.1-1.39,1.7-.47-2.27-2.49-3.99-4.9-3.99h-2c-.55,0-1,.45-1,1v2c0,2.76,2.24,5,5,5h1.22c-.13.67-.2,1.35-.21,2.05-5.05.5-9.01,4.77-9.01,9.95,0,1.4.3,2.76.86,4.01-1.59.08-2.86,1.38-2.86,2.99,0,.81.32,1.57.87,2.11.4.41.9.68,1.44.8,2.71,6.15,8.71,10.09,15.46,10.09h14.46c6.75,0,12.75-3.94,15.46-10.09,1.32-.31,2.31-1.49,2.31-2.91,0-.81-.32-1.57-.87-2.11ZM18,18h-1c-1.65,0-3-1.35-3-3v-1h1c1.65,0,3,1.35,3,3v1ZM42.78,22.75l-.48-1.19,3.5-1.4c3.95,3.6,6.2,8.69,6.2,14.06v1.78h-10.85c2.75-3.81,3.41-8.79,1.63-13.25ZM28,24c4.41,0,8,3.59,8,8,0,1.42-.39,2.79-1.1,4h-6.75c.55-1.25.85-2.61.85-4,0-3.03-1.36-5.75-3.5-7.58.8-.27,1.64-.42,2.5-.42ZM39.23,50h-14.46c-5.62,0-10.66-3.09-13.21-8h40.88c-2.55,4.91-7.59,8-13.21,8ZM54,40H10c-.27,0-.51-.1-.71-.31-.19-.18-.29-.42-.29-.69,0-.55.45-1,1-1h5c.55,0,1-.45,1-1s-.45-1-1-1h-2.9c-.71-1.21-1.1-2.58-1.1-4,0-4.41,3.59-8,8-8s8,3.59,8,8c0,1.42-.39,2.79-1.1,4h-2.9c-.55,0-1,.45-1,1s.45,1,1,1h31c.27,0,.51.1.71.31.19.18.29.42.29.69,0,.55-.45,1-1,1Z"/>
  <circle cx="19" cy="37" r="1"/>
</svg>