<?xml version="1.0" encoding="UTF-8"?>
<svg id="Outline" xmlns="http://www.w3.org/2000/svg" version="1.1" viewBox="0 0 64 64">
  <!-- Generator: Adobe Illustrator 29.5.1, SVG Export Plug-In . SVG Version: 2.1.0 Build 141)  -->
  <path d="M36.904,7.094c-11.028,0-20,8.972-20,20,0,4.493,1.507,8.631,4.018,11.974,0,0-12.555,11.161-12.561,11.167-1.621,1.441-1.696,4.035-.164,5.566,1.536,1.536,4.124,1.459,5.566-.163l11.167-12.562c3.343,2.511,7.481,4.019,11.974,4.019,11.028,0,20-8.972,20-20S47.933,7.094,36.904,7.094ZM12.27,54.309c-.338.38-.805.598-1.312.612-.518.013-.986-.175-1.346-.534-.359-.359-.549-.837-.534-1.345.015-.508.232-.974.612-1.312l12.513-11.124c.38.413.777.81,1.19,1.19l-11.122,12.513ZM36.904,45.094c-9.925,0-18-8.075-18-18s8.075-18,18-18,18,8.075,18,18-8.075,18-18,18Z"/>
  <path d="M50.813,22.954c-.809-.702-1.245-1.758-1.167-2.892.11-1.567-.464-3.104-1.575-4.216-1.111-1.111-2.635-1.69-4.284-1.572-1.062.076-2.123-.363-2.823-1.168l-.043-.05s0-.002-.002-.003c-1.032-1.187-2.525-1.867-4.097-1.867h0c-1.572,0-3.064.681-4.14,1.917-.702.809-1.769,1.253-2.892,1.167-1.556-.105-3.104.464-4.217,1.576-1.111,1.111-1.687,2.648-1.572,4.283.075,1.068-.362,2.125-1.221,2.87-1.187,1.032-1.866,2.524-1.866,4.097s.68,3.065,1.917,4.14c.808.702,1.245,1.758,1.165,2.892-.109,1.568.466,3.105,1.577,4.217s2.646,1.687,4.283,1.572c1.062-.075,2.123.362,2.869,1.22,1.031,1.187,2.523,1.867,4.096,1.867h0c1.571,0,3.064-.68,4.14-1.917.702-.808,1.775-1.244,2.892-1.167,1.576.107,3.106-.464,4.218-1.577,1.111-1.112,1.686-2.649,1.571-4.283-.074-1.067.362-2.123,1.221-2.869,1.187-1.031,1.867-2.524,1.867-4.097s-.681-3.065-1.917-4.14ZM49.5,29.725c-1.279,1.112-1.972,2.785-1.849,4.542.069.99-.294,1.96-.995,2.663-.703.702-1.677,1.062-2.729.991-1.699-.121-3.363.575-4.519,1.903-.651.75-1.595,1.179-2.587,1.179h0c-.992,0-1.935-.43-2.63-1.229-1.027-1.182-2.533-1.863-4.143-1.863-.132,0-.266.005-.399.014-.998.074-1.96-.293-2.662-.995-.702-.702-1.064-1.673-.99-2.73.117-1.691-.576-3.364-1.904-4.518-.749-.651-1.179-1.594-1.179-2.587s.43-1.936,1.228-2.63c1.279-1.111,1.973-2.784,1.851-4.542-.069-.99.293-1.961.995-2.663.702-.703,1.675-1.066,2.729-.991,1.696.122,3.363-.575,4.52-1.904.651-.749,1.594-1.179,2.586-1.179.993,0,1.937.43,2.588,1.179l.043.05c1.111,1.278,2.775,1.968,4.542,1.849.999-.072,1.961.294,2.663.996.701.702,1.064,1.672.991,2.729-.119,1.69.573,3.363,1.902,4.519.75.651,1.18,1.594,1.18,2.587s-.43,1.936-1.229,2.63Z"/>
  <path d="M36.904,17.094c-5.514,0-10,4.486-10,10s4.486,10,10,10,10-4.486,10-10-4.486-10-10-10ZM36.904,35.094c-4.411,0-8-3.589-8-8s3.589-8,8-8,8,3.589,8,8-3.589,8-8,8Z"/>
</svg>