<?xml version="1.0" encoding="UTF-8"?>
<svg id="Outline" xmlns="http://www.w3.org/2000/svg" version="1.1" viewBox="0 0 48 48">
  <!-- Generator: Adobe Illustrator 29.5.1, SVG Export Plug-In . SVG Version: 2.1.0 Build 141)  -->
  <path d="M26.939,5.062c-8.822,0-16,7.178-16,16,0,2.963.824,5.73,2.233,8.112l-6.94,6.94c-.755.755-1.171,1.759-1.171,2.827s.416,2.072,1.171,2.827c.779.779,1.803,1.169,2.827,1.169s2.048-.39,2.827-1.169l6.94-6.941c2.382,1.409,5.15,2.234,8.113,2.234,8.822,0,16-7.178,16-16S35.761,5.062,26.939,5.062ZM10.472,40.355c-.755.754-2.071.754-2.826,0-.779-.779-.779-2.047,0-2.826l6.67-6.67c.821,1.056,1.77,2.004,2.826,2.826l-6.67,6.671ZM26.939,35.062c-7.72,0-14-6.28-14-14s6.28-14,14-14,14,6.28,14,14-6.28,14-14,14Z"/>
  <path d="M37.816,21.701c-.243-.388-.243-.89,0-1.277l.247-.395c.506-.805.627-1.785.333-2.689-.294-.905-.968-1.627-1.85-1.98l-.432-.174c-.425-.171-.72-.576-.751-1.033l-.032-.465c-.064-.948-.543-1.812-1.312-2.372-.769-.558-1.739-.743-2.663-.515l-.45.114c-.444.107-.921-.044-1.213-.394l-.299-.358s0,0,0,0c-.61-.729-1.505-1.147-2.456-1.147s-1.846.418-2.457,1.148l-.298.357c-.294.351-.771.507-1.212.395l-.453-.114c-.919-.231-1.892-.044-2.661.515-.769.56-1.248,1.424-1.312,2.372l-.032.465c-.031.457-.326.862-.75,1.033l-.432.174c-.882.354-1.557,1.075-1.851,1.98-.294.904-.173,1.885.333,2.689l.248.395c.243.388.243.89,0,1.277l-.247.395c-.506.805-.627,1.785-.333,2.689.294.905.968,1.627,1.85,1.98l.432.174c.425.171.72.576.751,1.033l.032.465c.064.948.543,1.812,1.312,2.372.77.559,1.741.745,2.663.515l.45-.114c.444-.109.92.044,1.213.394l.3.359c.61.729,1.505,1.147,2.456,1.147s1.846-.418,2.457-1.148l.298-.357c.293-.352.77-.51,1.212-.395l.453.114c.922.233,1.892.044,2.661-.515.769-.56,1.248-1.424,1.312-2.372l.032-.465c.031-.457.326-.862.75-1.033l.432-.174c.882-.354,1.557-1.075,1.851-1.98.294-.904.173-1.885-.333-2.689l-.248-.395ZM36.495,24.167c-.11.34-.363.61-.694.743l-.433.174c-1.131.456-1.916,1.536-1.999,2.752l-.032.465c-.024.356-.204.681-.493.891-.289.211-.651.282-.997.193l-.454-.114c-1.187-.3-2.454.117-3.236,1.052l-.298.357c-.458.547-1.386.546-1.842,0l-.3-.359c-.613-.733-1.527-1.146-2.465-1.146-.257,0-.517.031-.771.095l-.45.114c-.347.086-.71.015-.998-.193-.289-.21-.468-.534-.493-.891l-.032-.465c-.083-1.216-.868-2.296-2-2.752l-.433-.174c-.331-.133-.583-.403-.694-.743-.11-.339-.065-.706.125-1.009l.248-.395c.648-1.033.648-2.369,0-3.402l-.248-.395c-.189-.303-.235-.67-.125-1.009.11-.34.363-.61.694-.743l.433-.174c1.131-.456,1.916-1.536,1.999-2.752l.032-.465c.024-.356.204-.681.493-.891.289-.209.653-.28.997-.193l.454.114c1.188.301,2.454-.116,3.236-1.052l.298-.357c.458-.547,1.385-.547,1.843,0l.299.358c.782.935,2.054,1.347,3.237,1.051l.45-.114c.345-.088.709-.017.998.193s.468.534.493.891l.032.465c.083,1.216.868,2.296,2,2.752l.433.174c.331.133.583.403.694.743.11.339.065.706-.125,1.009l-.248.395c-.648,1.033-.648,2.369,0,3.402l.248.395c.189.303.235.67.125,1.009Z"/>
  <path d="M26.939,14.062c-3.86,0-7,3.141-7,7s3.14,7,7,7,7-3.141,7-7-3.14-7-7-7ZM26.939,26.062c-2.757,0-5-2.243-5-5s2.243-5,5-5,5,2.243,5,5-2.243,5-5,5Z"/>
</svg>