<?xml version="1.0" encoding="UTF-8"?>
<svg id="Outline" xmlns="http://www.w3.org/2000/svg" version="1.1" viewBox="0 0 64 64">
  <!-- Generator: Adobe Illustrator 29.3.1, SVG Export Plug-In . SVG Version: 2.1.0 Build 151)  -->
  <path d="M32,7c-5.23438,0-10.24561,1.60303-14.49121,4.63672-.44971.3208-.55371.94531-.23242,1.39453.31934.44971.94482.55273,1.39453.23242,1.35168-.96545,2.79236-1.76208,4.29224-2.40588.66772,1.27423,1.03687,2.68481,1.03687,4.14221,0,4.9624-4.0376,9-9,9-1.4574,0-2.86798-.36914-4.14221-1.03687.6438-1.49988,1.44043-2.94055,2.40588-4.29224.32129-.44922.21729-1.07373-.23242-1.39453-.44873-.32178-1.07471-.21777-1.39453.23242-3.03369,4.24561-4.63672,9.25684-4.63672,14.49121,0,13.78516,11.21484,25,25,25s25-11.21484,25-25S45.78516,7,32,7ZM21.6897,52.55011c1.38715-3.3504,4.62872-5.55011,8.3103-5.55011,4.21173,0,7.84332,2.94971,8.76276,6.98389-2.13922.65942-4.40997,1.01611-6.76276,1.01611-3.70587,0-7.20667-.88629-10.3103-2.44989ZM40.64893,53.30627c-1.21021-4.81116-5.58258-8.30627-10.64893-8.30627-4.42157,0-8.31964,2.59808-10.06213,6.57251-6.55774-4.05634-10.93787-11.3114-10.93787-19.57251,0-2.46161.39075-4.86761,1.1402-7.15509,1.50458.74725,3.15753,1.15509,4.8598,1.15509,6.06543,0,11-4.93457,11-11,0-1.70227-.40784-3.35522-1.15509-4.8598,2.28748-.74945,4.69348-1.1402,7.15509-1.1402,12.68213,0,23,10.31787,23,23,0,9.6236-5.94385,17.8808-14.35107,21.30627Z"/>
  <path d="M35,12c-3.30859,0-6,2.69141-6,6s2.69141,6,6,6,6-2.69141,6-6-2.69141-6-6-6ZM35,22c-2.20557,0-4-1.79443-4-4s1.79443-4,4-4,4,1.79443,4,4-1.79443,4-4,4Z"/>
  <path d="M27,29c1.6543,0,3-1.3457,3-3s-1.3457-3-3-3-3,1.3457-3,3,1.3457,3,3,3ZM27,25c.55127,0,1,.44873,1,1s-.44873,1-1,1-1-.44873-1-1,.44873-1,1-1Z"/>
  <path d="M20,29c-4.41113,0-8,3.58887-8,8s3.58887,8,8,8,8-3.58887,8-8-3.58887-8-8-8ZM20,43c-3.30859,0-6-2.69141-6-6s2.69141-6,6-6,6,2.69141,6,6-2.69141,6-6,6Z"/>
  <path d="M32,37c-1.6543,0-3,1.3457-3,3s1.3457,3,3,3,3-1.3457,3-3-1.3457-3-3-3ZM32,41c-.55127,0-1-.44873-1-1s.44873-1,1-1,1,.44873,1,1-.44873,1-1,1Z"/>
  <path d="M15.73657,15.73651c.3905-.3905.3905-1.02368,0-1.41418-.39056-.39056-1.02374-.39056-1.41425,0-.3905.3905-.3905,1.02368,0,1.41418.3905.39056,1.02368.39056,1.41425,0Z"/>
</svg>