<?xml version="1.0" encoding="UTF-8"?>
<svg id="Outline" xmlns="http://www.w3.org/2000/svg" version="1.1" viewBox="0 0 64 64">
  <!-- Generator: Adobe Illustrator 29.5.1, SVG Export Plug-In . SVG Version: 2.1.0 Build 141)  -->
  <path d="M54.001,26.558h-2.31l-2.92-8.02c-.28-.76-.83-1.36-1.56-1.7-.73-.34-1.54-.37-2.28-.1l-1.04.38-5.54-6.6c-1.06-1.27-2.96-1.44-4.23-.38L8.061,31.998c-.61.51-.98,1.24-1.05,2.04s.18,1.57.69,2.18l8.73,10.41.57,1.57v3.36c0,1.65,1.35,3,3,3h34c1.65,0,3-1.35,3-3v-22c0-1.65-1.35-3-3-3ZM45.621,18.618c.24-.09.51-.08.74.03.25.12.44.32.53.57l2.67,7.34h-25.76l21.82-7.94ZM9.231,34.928c-.17-.2-.25-.46-.23-.72.03-.27.15-.51.35-.68l1.78-1.5c.02.06.03.12.05.18l3.25,8.92-5.2-6.2ZM17.001,29.558v12.79l-3.94-10.83c-.09-.24-.08-.51.03-.75.11-.24.32-.43.57-.52l3.4-1.24c-.04.18-.06.36-.06.55ZM17.431,26.748l17.97-15.07c.43-.36,1.06-.3,1.41.12l5.08,6.05-24.46,8.9ZM55.001,51.558c0,.55-.45,1-1,1H20.001c-.55,0-1-.45-1-1v-22c0-.55.45-1,1-1h34c.55,0,1,.45,1,1v22Z"/>
  <path d="M46.895,37.111c-.155-.31-.459-.518-.805-.549-.352-.033-.682.118-.89.396l-5.133,6.843-6.224-9.78c-.177-.278-.481-.451-.811-.462-.341-.026-.645.142-.84.407l-11,15c-.223.305-.256.708-.085,1.044s.515.548.892.548h30c.347,0,.668-.18.851-.475s.199-.663.044-.973l-6-12ZM23.974,48.558l8.968-12.229,6.215,9.767c.176.276.478.449.805.462.332.018.642-.137.838-.399l5.029-6.705,4.553,9.105h-26.408Z"/>
  <path d="M40.001,36.558c1.654,0,3-1.346,3-3s-1.346-3-3-3-3,1.346-3,3,1.346,3,3,3ZM40.001,32.558c.551,0,1,.448,1,1s-.449,1-1,1-1-.448-1-1,.449-1,1-1Z"/>
</svg>