<?xml version="1.0" encoding="UTF-8"?>
<svg id="Outline" xmlns="http://www.w3.org/2000/svg" version="1.1" viewBox="0 0 64 64">
  <!-- Generator: Adobe Illustrator 29.5.1, SVG Export Plug-In . SVG Version: 2.1.0 Build 141)  -->
  <path d="M29,43h-5v-10c0-.55-.45-1-1-1s-1,.45-1,1v10h-2v-23.28c.24.09.48.17.73.24.09.03.18.04.27.04s.18-.01.27-.04c.25-.07.49-.15.73-.24v9.28c0,.55.45,1,1,1s1-.45,1-1v-10.27c3.04-1.91,5-5.3,5-9.01v-.72h1c.55,0,1-.45,1-1s-.45-1-1-1H12c-.55,0-1,.45-1,1s.45,1,1,1h1v.72c0,3.71,1.96,7.1,5,9.01v24.27h-5c-1.65,0-3,1.35-3,3v10c0,.55.45,1,1,1s1-.45,1-1v-7h2v7c0,.55.45,1,1,1s1-.45,1-1v-7h2v7c0,.55.45,1,1,1s1-.45,1-1v-7h2v7c0,.55.45,1,1,1s1-.45,1-1v-7h2v7c0,.55.45,1,1,1s1-.45,1-1v-7h2v7c0,.55.45,1,1,1s1-.45,1-1v-10c0-1.65-1.35-3-3-3ZM15,9.72v-.72h12v.72c0,3.75-2.45,7.09-6,8.24-3.55-1.15-6-4.49-6-8.24ZM30,47H12v-1c0-.55.45-1,1-1h16c.55,0,1,.45,1,1v1Z"/>
  <path d="M53,37h-6v-5c0-.55-.45-1-1-1s-1,.45-1,1v10c0,.55-.45,1-1,1-.27,0-.51-.1-.71-.31-.19-.18-.29-.42-.29-.69v-22.28c.24.09.48.17.73.24.09.03.18.04.27.04s.18-.01.27-.04c.25-.07.49-.15.73-.24v8.28c0,.55.45,1,1,1s1-.45,1-1v-9.27c3.04-1.91,5-5.3,5-9.01v-.72h1c.55,0,1-.45,1-1s-.45-1-1-1h-18c-.55,0-1,.45-1,1s.45,1,1,1h1v.72c0,3.71,1.96,7.1,5,9.01v18.27h-6c-.55,0-1,.45-1,1v5.51c0,6.11,3.89,11.51,9.68,13.44.11.03.21.05.32.05s.21-.02.32-.05c5.79-1.93,9.68-7.33,9.68-13.44v-5.51c0-.55-.45-1-1-1ZM38,9.72v-.72h12v.72c0,3.75-2.45,7.09-6,8.24-3.55-1.15-6-4.49-6-8.24ZM52,43.51c0,5.13-3.2,9.69-8,11.43-4.8-1.74-8-6.3-8-11.43v-4.51h5v3c0,.81.32,1.57.87,2.11.56.57,1.32.89,2.13.89,1.65,0,3-1.35,3-3v-3h5v4.51Z"/>
</svg>