<?xml version="1.0" encoding="UTF-8"?>
<svg id="Outline" xmlns="http://www.w3.org/2000/svg" version="1.1" viewBox="0 0 64 64">
  <!-- Generator: Adobe Illustrator 29.5.1, SVG Export Plug-In . SVG Version: 2.1.0 Build 141)  -->
  <path d="M32,7c-14.02,0-25,5.71-25,13,0,2.9,1.73,5.61,5,7.86v26.14c0,1.65,1.35,3,3,3h34c1.65,0,3-1.35,3-3v-26.14c3.27-2.25,5-4.96,5-7.86,0-7.29-10.98-13-25-13ZM50.46,26.49c-.29.18-.46.5-.46.84v26.67c0,.55-.45,1-1,1H15c-.55,0-1-.45-1-1v-26.67c0-.34-.17-.66-.46-.84-2.07-1.34-4.54-3.56-4.54-6.49,0-5.96,10.53-11,23-11s23,5.04,23,11c0,2.93-2.47,5.15-4.54,6.49Z"/>
  <path d="M32,11c-12.376,0-21,4.743-21,9,0,1.577,1.287,3.285,3.628,4.81l1.372.886v6.305c0,.553.447,1,1,1s1-.447,1-1v-6.85c0-.34-.173-.656-.458-.84l-1.826-1.179c-2.002-1.305-2.716-2.474-2.716-3.132,0-2.468,7.214-7,19-7s19,4.532,19,7c0,.658-.714,1.827-2.712,3.13l-1.83,1.181c-.285.184-.458.5-.458.84v25.85h-28v-11c0-.553-.447-1-1-1s-1,.447-1,1v12c0,.553.447,1,1,1h30c.553,0,1-.447,1-1v-26.305l1.376-.888c2.337-1.522,3.624-3.23,3.624-4.808,0-4.257-8.624-9-21-9Z"/>
  <path d="M21,49h2c.553,0,1-.447,1-1s-.447-1-1-1h-2c-.553,0-1,.447-1,1s.447,1,1,1Z"/>
  <path d="M26,45c0,.553.447,1,1,1h2c.553,0,1-.447,1-1s-.447-1-1-1h-2c-.553,0-1,.447-1,1Z"/>
  <path d="M36,41h-2c-.553,0-1,.447-1,1s.447,1,1,1h2c.553,0,1-.447,1-1s-.447-1-1-1Z"/>
  <path d="M36,47h-2c-.553,0-1,.447-1,1s.447,1,1,1h2c.553,0,1-.447,1-1s-.447-1-1-1Z"/>
  <path d="M40,46h2c.553,0,1-.447,1-1s-.447-1-1-1h-2c-.553,0-1,.447-1,1s.447,1,1,1Z"/>
  <path d="M40,36c-.553,0-1,.447-1,1s.447,1,1,1h2c.553,0,1-.447,1-1s-.447-1-1-1h-2Z"/>
  <path d="M30,35c0,.553.447,1,1,1h2c.553,0,1-.447,1-1s-.447-1-1-1h-2c-.553,0-1,.447-1,1Z"/>
  <path d="M21,32h2c.553,0,1-.447,1-1s-.447-1-1-1h-2c-.553,0-1,.447-1,1s.447,1,1,1Z"/>
  <path d="M27,23h-2c-.553,0-1,.447-1,1s.447,1,1,1h2c.553,0,1-.447,1-1s-.447-1-1-1Z"/>
  <path d="M35,19h-2c-.553,0-1,.447-1,1s.447,1,1,1h2c.553,0,1-.447,1-1s-.447-1-1-1Z"/>
  <path d="M45,21c.553,0,1-.447,1-1s-.447-1-1-1h-2c-.553,0-1,.447-1,1s.447,1,1,1h2Z"/>
  <circle cx="17" cy="36" r="1"/>
</svg>