<?xml version="1.0" encoding="UTF-8"?>
<svg id="Outline" xmlns="http://www.w3.org/2000/svg" version="1.1" viewBox="0 0 64 64">
  <!-- Generator: Adobe Illustrator 29.5.1, SVG Export Plug-In . SVG Version: 2.1.0 Build 141)  -->
  <path d="M7.615,8.923l.575.24c1.579.658,3.187,1.231,4.81,1.752v6.086h-5c-.347,0-.668.18-.851.474-.183.295-.199.663-.044.973l6,12c.17.339.516.553.895.553s.725-.214.895-.553l6-12c.155-.31.139-.678-.044-.973-.183-.294-.504-.474-.851-.474h-5v-5.482c5.215,1.479,10.601,2.263,16,2.349v7.133h-5c-.553,0-1,.448-1,1v10c0,.321.154.623.415.811.261.188.596.237.901.138l5.684-1.895,5.684,1.895c.103.034.21.051.316.051.547,0,1-.453,1-1v-10c0-.552-.447-1-1-1h-5v-7.133c5.399-.086,10.784-.869,16-2.349v5.482h-5c-.347,0-.668.18-.851.474-.183.295-.199.663-.044.973l6,12c.17.339.516.553.895.553s.725-.214.895-.553l6-12c.155-.31.139-.678-.044-.973-.183-.294-.504-.474-.851-.474h-5v-6.086c1.622-.521,3.23-1.094,4.81-1.752l.575-.24c.51-.212.751-.798.538-1.308s-.799-.75-1.308-.538l-.575.24c-14.643,6.102-31.438,6.101-46.08,0l-.575-.24c-.508-.211-1.094.028-1.308.538-.213.51.028,1.095.538,1.308ZM14,27.764l-4.382-8.764h8.764l-4.382,8.764ZM37,30.613l-4.684-1.562c-.103-.034-.21-.051-.316-.051s-.214.017-.316.051l-4.684,1.562v-7.613h10v7.613ZM50,27.764l-4.382-8.764h8.764l-4.382,8.764Z"/>
  <path d="M55.81,33.163l.575-.24c.51-.212.751-.798.538-1.308s-.799-.751-1.308-.538l-.575.24c-14.643,6.102-31.438,6.101-46.08,0l-.575-.24c-.508-.213-1.094.028-1.308.538-.213.51.028,1.095.538,1.308l.575.24c1.579.658,3.187,1.231,4.81,1.752v6.086h-5c-.553,0-1,.448-1,1v10c0,.321.154.623.415.811s.596.238.901.138l5.684-1.895,5.684,1.895c.103.034.21.051.316.051.547,0,1-.453,1-1v-10c0-.552-.447-1-1-1h-5v-5.482c5.215,1.479,10.601,2.263,16,2.349v5.133h-5c-.347,0-.668.18-.851.474-.183.295-.199.663-.044.973l6,12c.17.339.516.553.895.553s.725-.214.895-.553l6-12c.155-.31.139-.678-.044-.973-.183-.294-.504-.474-.851-.474h-5v-5.133c5.399-.086,10.784-.869,16-2.349v5.482h-5c-.553,0-1,.448-1,1v10c0,.321.154.623.415.811.262.188.597.238.901.138l5.684-1.895,5.684,1.895c.103.034.21.051.316.051.546,0,1-.453,1-1v-1c0-.552-.447-1-1-1-.424,0-.786.263-.932.635l-4.752-1.584c-.205-.068-.428-.068-.633,0l-4.684,1.562v-7.613h10c0,.552.447,1,1,1s1-.448,1-1v-1c0-.552-.447-1-1-1h-5v-6.086c1.622-.521,3.23-1.094,4.81-1.752ZM19,50.613l-4.684-1.562c-.103-.034-.21-.051-.316-.051s-.214.017-.316.051l-4.684,1.562v-7.613h10v7.613ZM32,53.764l-4.382-8.764h8.764l-4.382,8.764Z"/>
  <circle cx="56" cy="47" r="1"/>
</svg>