<?xml version="1.0" encoding="UTF-8"?>
<svg id="Outline" xmlns="http://www.w3.org/2000/svg" version="1.1" viewBox="0 0 64 64">
  <!-- Generator: Adobe Illustrator 29.5.1, SVG Export Plug-In . SVG Version: 2.1.0 Build 141)  -->
  <path d="M56.352,28.063l-4.095-1.536c-.47-1.741-1.163-3.412-2.065-4.979l1.811-3.984c.173-.379.092-.826-.203-1.121l-4.242-4.243c-.294-.294-.74-.375-1.121-.204l-3.983,1.811c-1.567-.902-3.238-1.595-4.98-2.064l-1.535-4.095c-.146-.39-.52-.649-.937-.649h-6c-.417,0-.79.259-.937.649l-1.535,4.095c-1.742.47-3.413,1.163-4.98,2.064l-3.983-1.811c-.379-.171-.827-.091-1.121.204l-4.242,4.243c-.295.295-.376.741-.203,1.121l1.811,3.984c-.902,1.568-1.596,3.239-2.065,4.979l-4.095,1.536c-.39.146-.648.52-.648.937v6c0,.417.259.79.648.937l4.095,1.536c.47,1.741,1.163,3.412,2.065,4.979l-1.811,3.984c-.173.379-.092.826.203,1.121l4.242,4.243c.294.296.742.376,1.121.204l3.983-1.811c1.567.902,3.238,1.595,4.98,2.064l1.535,4.095c.146.39.52.649.937.649h6c.417,0,.79-.259.937-.649l1.535-4.095c1.742-.47,3.413-1.163,4.98-2.064l3.983,1.811c.381.173.827.092,1.121-.204l4.242-4.243c.295-.295.376-.741.203-1.121l-1.811-3.984c.902-1.568,1.596-3.239,2.065-4.979l4.095-1.536c.39-.146.648-.52.648-.937v-6c0-.417-.259-.79-.648-.937ZM55,34.307l-3.935,1.475c-.31.117-.542.379-.62.701-.46,1.899-1.212,3.711-2.233,5.387-.173.283-.194.633-.057.934l1.739,3.828-3.262,3.263-3.828-1.739c-.302-.137-.651-.116-.935.057-1.674,1.021-3.486,1.772-5.387,2.233-.322.078-.585.31-.701.621l-1.476,3.934h-4.613l-1.476-3.934c-.116-.311-.379-.543-.701-.621-1.9-.461-3.713-1.212-5.387-2.233-.283-.172-.633-.194-.935-.057l-3.828,1.739-3.262-3.263,1.739-3.828c.138-.301.116-.651-.057-.934-1.021-1.676-1.773-3.488-2.233-5.387-.078-.322-.311-.584-.62-.701l-3.935-1.475v-4.614l3.935-1.475c.31-.117.542-.379.62-.701.46-1.899,1.212-3.711,2.233-5.387.173-.283.194-.633.057-.934l-1.739-3.828,3.262-3.263,3.828,1.739c.302.138.651.116.935-.057,1.674-1.021,3.486-1.772,5.387-2.233.322-.078.585-.31.701-.621l1.476-3.934h4.613l1.476,3.934c.116.311.379.543.701.621,1.9.461,3.713,1.212,5.387,2.233.283.172.633.195.935.057l3.828-1.739,3.262,3.263-1.739,3.828c-.138.301-.116.651.057.934,1.021,1.676,1.773,3.488,2.233,5.387.078.322.311.584.62.701l3.935,1.475v4.614Z"/>
  <path d="M32,15c-9.374,0-17,7.626-17,17s7.626,17,17,17,17-7.626,17-17-7.626-17-17-17ZM32,47c-8.271,0-15-6.729-15-15s6.729-15,15-15,15,6.729,15,15-6.729,15-15,15Z"/>
  <path d="M38.624,21.206l-1.81.904c-.394-.19-.803-.359-1.225-.504l-.642-1.923c-.136-.408-.518-.684-.948-.684h-4c-.431,0-.813.275-.948.684l-.642,1.923c-.422.145-.831.313-1.225.504l-1.81-.904c-.386-.191-.849-.118-1.154.188l-2.828,2.828c-.305.304-.38.77-.188,1.154l.904,1.809c-.19.394-.359.803-.504,1.226l-1.923.641c-.408.136-.684.518-.684.949v4c0,.431.275.812.684.949l1.923.641c.145.422.313.832.504,1.226l-.904,1.809c-.192.385-.117.85.188,1.154l2.828,2.828c.307.305.771.38,1.154.188l1.81-.904c.394.19.803.359,1.225.504l.642,1.923c.136.408.518.684.948.684h4c.431,0,.812-.275.948-.684l.642-1.923c.422-.145.831-.313,1.225-.504l1.81.904c.385.191.849.117,1.154-.188l2.828-2.828c.305-.304.38-.77.188-1.154l-.904-1.809c.19-.394.359-.804.504-1.226l1.923-.641c.408-.136.684-.518.684-.949v-4c0-.431-.275-.812-.684-.949l-1.923-.641c-.145-.423-.313-.833-.504-1.226l.904-1.809c.192-.385.117-.85-.188-1.154l-2.828-2.828c-.305-.305-.769-.378-1.154-.188ZM39.892,27.674c.307.557.557,1.164.743,1.804.092.315.332.565.644.669l1.722.574v2.559l-1.722.574c-.312.104-.552.354-.644.669-.187.639-.437,1.246-.743,1.804-.158.288-.165.635-.019.929l.81,1.619-1.809,1.809-1.619-.809c-.293-.147-.642-.14-.929.018-.558.307-1.165.557-1.805.743-.314.092-.564.333-.668.644l-.574,1.722h-2.559l-.574-1.722c-.104-.311-.354-.552-.668-.644-.64-.187-1.247-.437-1.805-.743-.288-.158-.636-.165-.929-.018l-1.619.809-1.809-1.809.81-1.619c.146-.294.14-.641-.019-.929-.307-.558-.557-1.165-.743-1.804-.092-.315-.332-.565-.644-.669l-1.722-.574v-2.559l1.722-.574c.312-.104.552-.354.644-.669.187-.64.437-1.247.743-1.804.158-.288.165-.635.019-.929l-.81-1.619,1.809-1.809,1.619.809c.293.147.641.14.929-.018.558-.307,1.165-.557,1.805-.743.314-.092.564-.333.668-.644l.574-1.722h2.559l.574,1.722c.104.311.354.552.668.644.64.187,1.247.437,1.805.743.287.158.636.165.929.018l1.619-.809,1.809,1.809-.81,1.619c-.146.294-.14.642.019.929Z"/>
  <path d="M32,25c-3.859,0-7,3.14-7,7s3.141,7,7,7,7-3.14,7-7-3.141-7-7-7ZM32,37c-2.757,0-5-2.243-5-5s2.243-5,5-5,5,2.243,5,5-2.243,5-5,5Z"/>
</svg>