<?xml version="1.0" encoding="UTF-8"?>
<svg id="Outline" xmlns="http://www.w3.org/2000/svg" version="1.1" viewBox="0 0 64 64">
  <!-- Generator: Adobe Illustrator 29.5.1, SVG Export Plug-In . SVG Version: 2.1.0 Build 141)  -->
  <path d="M47.556,20.687l-4.243-4.243c-.304-.305-.769-.381-1.154-.188l-2.125,1.062c-1.057-.578-2.174-1.041-3.333-1.38l-.752-2.255c-.136-.408-.519-.684-.949-.684h-6c-.43,0-.812.275-.949.684l-.752,2.255c-1.159.339-2.276.802-3.333,1.38l-2.125-1.062c-.386-.194-.851-.118-1.154.188l-4.243,4.243c-.305.305-.38.77-.188,1.154l1.062,2.125c-.578,1.056-1.041,2.173-1.38,3.334l-2.255.752c-.408.136-.684.518-.684.948v6c0,.431.275.812.684.948l2.255.752c.339,1.161.802,2.278,1.38,3.334l-1.062,2.125c-.192.385-.117.85.188,1.154l4.243,4.243c.304.306.769.381,1.154.188l2.125-1.062c1.057.578,2.174,1.041,3.333,1.38l.752,2.255c.136.408.519.684.949.684h6c.43,0,.812-.275.949-.684l.752-2.255c1.159-.339,2.276-.802,3.333-1.38l2.125,1.062c.384.192.85.117,1.154-.188l4.243-4.243c.305-.305.38-.77.188-1.154l-1.062-2.125c.578-1.056,1.041-2.173,1.38-3.334l2.255-.752c.408-.136.684-.518.684-.948v-6c0-.431-.275-.812-.684-.948l-2.255-.752c-.339-1.161-.802-2.278-1.38-3.334l1.062-2.125c.192-.385.117-.85-.188-1.154ZM46.922,29.027l2.078.693v4.559l-2.078.693c-.322.107-.567.37-.652.699-.346,1.348-.878,2.634-1.582,3.822-.173.293-.186.653-.034.957l.979,1.958-3.223,3.224-1.958-.979c-.303-.15-.664-.138-.957.034-1.191.704-2.477,1.237-3.822,1.582-.329.085-.593.33-.7.652l-.693,2.078h-4.559l-.693-2.078c-.107-.322-.371-.567-.7-.652-1.345-.345-2.631-.878-3.822-1.582-.292-.173-.653-.186-.957-.034l-1.958.979-3.223-3.224.979-1.958c.152-.304.139-.664-.034-.957-.704-1.188-1.236-2.475-1.582-3.822-.085-.329-.331-.592-.652-.699l-2.078-.693v-4.559l2.078-.693c.322-.107.567-.37.652-.699.346-1.348.878-2.634,1.582-3.822.173-.293.186-.653.034-.957l-.979-1.958,3.223-3.224,1.958.979c.304.152.665.14.957-.034,1.191-.704,2.477-1.237,3.822-1.582.329-.085.593-.33.7-.652l.693-2.078h4.559l.693,2.078c.107.322.371.567.7.652,1.345.345,2.631.878,3.822,1.582.292.173.653.186.957.034l1.958-.979,3.223,3.224-.979,1.958c-.152.304-.139.664.034.957.704,1.188,1.236,2.475,1.582,3.822.085.329.331.592.652.699Z"/>
  <path d="M12.909,17.151c.585.584,1.353.877,2.121.876.768,0,1.536-.292,2.121-.877.566-.566.878-1.319.878-2.121,0-.383-.076-.754-.212-1.1.791-.624,1.609-1.208,2.466-1.711,3.521-2.105,7.573-3.219,11.717-3.219s8.195,1.113,11.717,3.219c.474.282,1.088.128,1.372-.345.283-.475.129-1.089-.345-1.372-3.832-2.291-8.238-3.502-12.743-3.502s-8.912,1.211-12.735,3.497c-.961.563-1.881,1.222-2.77,1.93-1.144-.643-2.616-.49-3.587.481-.567.566-.879,1.32-.879,2.121s.312,1.555.879,2.121h0ZM14.325,14.325c.408-.407,1.037-.37,1.432.028.366.369.341,1.023-.02,1.383-.616.614-1.708.164-1.708-.707,0-.273.114-.523.296-.704Z"/>
  <path d="M13.929,46.183c-.622-.788-1.206-1.605-1.711-2.465-2.105-3.523-3.218-7.575-3.218-11.718s1.113-8.194,3.218-11.718c.283-.474.129-1.088-.345-1.371-.476-.282-1.087-.128-1.372.346-2.291,3.832-3.501,8.239-3.501,12.743s1.211,8.911,3.498,12.736c.565.964,1.224,1.883,1.928,2.768-.251.444-.397.942-.397,1.466,0,.801.312,1.555.879,2.121.585.585,1.353.877,2.122.877s1.536-.292,2.121-.877h0c.566-.566.878-1.32.878-2.121s-.312-1.555-.878-2.121c-.87-.87-2.144-1.09-3.222-.667ZM15.737,49.678c-.391.39-1.025.392-1.415,0-.407-.409-.369-1.037.03-1.434.378-.376,1.015-.349,1.385.02.376.375.391,1.023,0,1.414Z"/>
  <path d="M51.091,46.849c-1.17-1.168-3.072-1.17-4.242,0-.566.566-.878,1.319-.878,2.121,0,.383.076.754.212,1.1-.791.624-1.609,1.208-2.466,1.711-3.521,2.105-7.573,3.219-11.717,3.219s-8.195-1.113-11.717-3.219c-.474-.282-1.088-.128-1.372.345-.283.475-.129,1.089.345,1.372,3.832,2.291,8.238,3.502,12.743,3.502s8.912-1.211,12.735-3.497c.961-.563,1.881-1.222,2.77-1.93.455.255.958.396,1.465.396.769,0,1.537-.292,2.122-.877.567-.566.879-1.32.879-2.121s-.312-1.555-.879-2.121h0ZM49.678,49.678c-.596.598-1.707.138-1.707-.707,0-.26.108-.523.292-.707.195-.195.451-.292.707-.292.541,0,1,.461,1,.999,0,.267-.104.518-.293.707Z"/>
  <path d="M53.5,19.26c-.56-.96-1.22-1.88-1.93-2.76.25-.45.4-.95.4-1.47,0-.8-.31-1.56-.88-2.12-1.17-1.17-3.07-1.17-4.24,0-.57.56-.88,1.32-.88,2.12s.31,1.55.88,2.12c.58.59,1.35.88,2.12.88.37,0,.75-.07,1.1-.21.62.79,1.21,1.6,1.71,2.46,2.11,3.53,3.22,7.58,3.22,11.72s-1.11,8.19-3.22,11.72c-.28.47-.13,1.09.35,1.37.461.269,1.089.123,1.37-.35,2.29-3.83,3.5-8.24,3.5-12.74s-1.21-8.91-3.5-12.74ZM49.65,15.76c-.39.36-1.01.36-1.39-.02-.381-.381-.378-1.042,0-1.42.39-.39,1.03-.39,1.42,0,.404.403.36,1.05-.03,1.44Z"/>
  <path d="M40.49,24.948c-.454.315-.566.938-.251,1.392,1.152,1.659,1.761,3.616,1.761,5.66,0,5.514-4.486,10-10,10s-10-4.486-10-10,4.486-10,10-10c2.044,0,4.001.609,5.659,1.762.454.316,1.078.204,1.392-.251.315-.453.203-1.076-.25-1.392-1.995-1.387-4.346-2.119-6.801-2.119-6.617,0-12,5.383-12,12s5.383,12,12,12,12-5.383,12-12c0-2.454-.732-4.806-2.119-6.801-.315-.454-.937-.566-1.392-.251Z"/>
  <path d="M32,24c-3.349,0-6.246,2.036-7.434,5.108-.332.162-.566.496-.566.892v4c0,.395.234.729.566.892,1.188,3.073,4.085,5.108,7.434,5.108s6.246-2.036,7.434-5.108c.332-.162.566-.496.566-.892v-4c0-.395-.234-.729-.566-.892-1.188-3.073-4.085-5.108-7.434-5.108ZM32,26c2.196,0,4.13,1.169,5.181,3h-3.181c-.552,0-1,.447-1,1s.448,1,1,1h4v2h-12v-2h4c.552,0,1-.447,1-1s-.448-1-1-1h-3.181c1.051-1.831,2.985-3,5.181-3ZM32,38c-2.196,0-4.13-1.169-5.181-3h10.362c-1.051,1.831-2.985,3-5.181,3Z"/>
</svg>