<?xml version="1.0" encoding="UTF-8"?>
<svg id="Outline" xmlns="http://www.w3.org/2000/svg" version="1.1" viewBox="0 0 64 64">
  <!-- Generator: Adobe Illustrator 29.3.1, SVG Export Plug-In . SVG Version: 2.1.0 Build 151)  -->
  <path d="M32,7c-13.78516,0-25,11.21484-25,25s11.21484,25,25,25,25-11.21484,25-25S45.78516,7,32,7ZM32,55c-12.68213,0-23-10.31787-23-23s10.31787-23,23-23,23,10.31787,23,23-10.31787,23-23,23Z"/>
  <path d="M51.79736,34.99951c-.53906-.10986-1.06885.24121-1.17773.7832-1.77539,8.81738-9.60596,15.21729-18.61963,15.21729-10.47656,0-19-8.52344-19-19s8.52344-19,19-19c9.01367,0,16.84424,6.3999,18.61963,15.21729.10889.54199.63916.89111,1.17773.7832.5415-.10938.89209-.63623.7832-1.17773-1.96289-9.74805-10.61816-16.82275-20.58057-16.82275-11.57959,0-21,9.42041-21,21s9.42041,21,21,21c9.9624,0,18.61768-7.07471,20.58057-16.82275.10889-.5415-.2417-1.06836-.7832-1.17773Z"/>
  <path d="M43,26c.55225,0,1-.44775,1-1v-4c0-.55225-.44775-1-1-1h-4c-.55225,0-1,.44775-1,1s.44775,1,1,1h1.58594l-2.40161,2.40161c-1.16888-.87592-2.61456-1.40161-4.18433-1.40161-3.24902,0-5.98004,2.22815-6.76562,5.23438-3.00623.78558-5.23438,3.5166-5.23438,6.76562,0,3.51947,2.6134,6.43237,6,6.92017v2.07983h-2c-.55225,0-1,.44775-1,1s.44775,1,1,1h2v2c0,.55225.44775,1,1,1s1-.44775,1-1v-2h2c.55225,0,1-.44775,1-1s-.44775-1-1-1h-2v-2.07983c2.79883-.40314,5.06232-2.46326,5.76562-5.15454,3.00623-.78558,5.23438-3.5166,5.23438-6.76562,0-1.56976-.5257-3.01544-1.40161-4.18433l2.40161-2.40161v1.58594c0,.55225.44775,1,1,1ZM29,40c-2.75684,0-5-2.24316-5-5,0-2.05347,1.24652-3.81885,3.02087-4.58752.20728,3.53027,3.03638,6.35938,6.56665,6.56665-.76868,1.77435-2.53406,3.02087-4.58752,3.02087ZM29,30c2.75684,0,5,2.24316,5,5-2.75684,0-5-2.24316-5-5ZM35.97913,34.58752c-.20728-3.53027-3.03638-6.35938-6.56665-6.56665.76868-1.77435,2.53406-3.02087,4.58752-3.02087,1.37738,0,2.62634.56018,3.53156,1.46436.00073.00073.00092.00171.00165.00244s.00171.00092.00244.00165c.90417.90521,1.46436,2.15417,1.46436,3.53156,0,2.05347-1.24652,3.81885-3.02087,4.58752Z"/>
  <circle cx="52" cy="32" r="1"/>
</svg>