<?xml version="1.0" encoding="UTF-8"?>
<svg id="Outline" xmlns="http://www.w3.org/2000/svg" version="1.1" viewBox="0 0 64 64">
  <!-- Generator: Adobe Illustrator 29.3.1, SVG Export Plug-In . SVG Version: 2.1.0 Build 151)  -->
  <path d="M56.86816,31.50391l-11.42383-19.99268c-.5332-.93213-1.53223-1.51123-2.60547-1.51123h-21.67773c-1.07324,0-2.07227.5791-2.60547,1.51172L7.13184,31.50391c-.17578.30762-.17578.68457,0,.99219l11.42383,19.99268c.5332.93213,1.53223,1.51123,2.60547,1.51123h21.67773c1.07324,0,2.07227-.5791,2.60547-1.51172l11.42383-19.99219c.17578-.30762.17578-.68457,0-.99219ZM43.70801,51.49561c-.17773.31104-.51074.50439-.86914.50439h-21.67773c-.3584,0-.69141-.19336-.86914-.50391l-11.14062-19.49609,11.14062-19.49561c.17773-.31104.51074-.50439.86914-.50439h21.67773c.3584,0,.69141.19336.86914.50391l11.14062,19.49609-11.14062,19.49561Z"/>
  <path d="M40.51855,14h-17.03809c-1.07324,0-2.07129.5791-2.60449,1.51172l-9.13379,15.99219c-.17578.30762-.17578.68457,0,.99219l9.13379,15.99268c.5332.93213,1.53125,1.51123,2.60449,1.51123h17.03906c1.07324,0,2.07129-.5791,2.60449-1.51172l9.13379-15.99219c.17578-.30713.17578-.68457,0-.9917l-2.87012-5.02979c-.27441-.47998-.88281-.64844-1.36426-.37305-.47949.27393-.64648.88477-.37207,1.36426l2.58691,4.53418-8.85059,15.49561c-.17773.31104-.51074.50439-.86816.50439h-17.03906c-.35742,0-.69043-.19336-.86816-.50391l-8.85059-15.49609,8.85059-15.49561c.17773-.31104.51074-.50439.86816-.50439h17.03809c.3584,0,.69141.19336.86914.50439l2.29395,4.021c.27246.47949.88281.64648,1.36328.37305.48047-.27393.64746-.88428.37305-1.36426l-2.29395-4.02148c-.5332-.93311-1.53125-1.5127-2.60547-1.5127Z"/>
  <path d="M44,27c0-4.41113-3.58887-8-8-8-1.45782,0-2.82166.39832-4,1.08246-1.17834-.68414-2.54218-1.08246-4-1.08246-4.41113,0-8,3.58887-8,8,0,4.07178,3.06006,7.43591,7,7.93054v4.06946h-1c-.55273,0-1,.44775-1,1s.44727,1,1,1h1v3c0,.55225.44727,1,1,1s1-.44775,1-1v-3h1c.55273,0,1-.44775,1-1s-.44727-1-1-1h-1v-4.06946c1.08228-.13586,2.09595-.4881,3-1.013.90405.5249,1.91772.87714,3,1.013v6.6554l-.29297-.29297c-.39062-.39062-1.02344-.39062-1.41406,0s-.39062,1.02344,0,1.41406l2,2c.19531.19531.45117.29297.70703.29297s.51172-.09766.70703-.29297l2-2c.39062-.39062.39062-1.02344,0-1.41406s-1.02344-.39062-1.41406,0l-.29297.29297v-6.6554c3.93994-.49463,7-3.85876,7-7.93054ZM42,27c0,3.30859-2.69141,6-6,6-.79834,0-1.5592-.15985-2.25653-.44409,1.39386-1.44049,2.25653-3.39801,2.25653-5.55591s-.86267-4.11542-2.25653-5.55591c.69733-.28424,1.45819-.44409,2.25653-.44409,3.30859,0,6,2.69141,6,6ZM30,27c0-1.77106.77576-3.36035,2-4.45953,1.22424,1.09918,2,2.68848,2,4.45953s-.77576,3.36035-2,4.45953c-1.22424-1.09918-2-2.68848-2-4.45953ZM22,27c0-3.30859,2.69141-6,6-6,.79834,0,1.5592.15985,2.25653.44409-1.39386,1.44049-2.25653,3.39801-2.25653,5.55591s.86267,4.11542,2.25653,5.55591c-.69733.28424-1.45819.44409-2.25653.44409-3.30859,0-6-2.69141-6-6Z"/>
  <circle cx="46.53564" cy="23.5" r="1"/>
</svg>