<?xml version="1.0" encoding="UTF-8"?>
<svg id="Outline" xmlns="http://www.w3.org/2000/svg" version="1.1" viewBox="0 0 64 64">
  <!-- Generator: Adobe Illustrator 29.3.1, SVG Export Plug-In . SVG Version: 2.1.0 Build 151)  -->
  <path d="M22,48c-1.6543,0-3,1.3457-3,3s1.3457,3,3,3,3-1.3457,3-3-1.3457-3-3-3ZM22,52c-.55176,0-1-.44873-1-1s.44824-1,1-1,1,.44873,1,1-.44824,1-1,1Z"/>
  <circle cx="36" cy="29" r="1"/>
  <circle cx="48" cy="29" r="1"/>
  <circle cx="48" cy="41" r="1"/>
  <circle cx="36" cy="41" r="1"/>
  <path d="M40,30c-.55273,0-1,.44775-1,1v2c0,.55225.44727,1,1,1s1-.44775,1-1v-2c0-.55225-.44727-1-1-1Z"/>
  <path d="M40,24h-8c-.55273,0-1,.44775-1,1v8c0,.55225.44727,1,1,1h4c.55273,0,1-.44775,1-1s-.44727-1-1-1h-3v-6h6v1c0,.55225.44727,1,1,1s1-.44775,1-1v-2c0-.55225-.44727-1-1-1Z"/>
  <path d="M52,30c-.55273,0-1,.44775-1,1v1h-1c-.55273,0-1,.44775-1,1s.44727,1,1,1h2c.55273,0,1-.44775,1-1v-2c0-.55225-.44727-1-1-1Z"/>
  <path d="M52,24h-8c-.55273,0-1,.44775-1,1v8c0,.55225.44727,1,1,1h2c.55273,0,1-.44775,1-1s-.44727-1-1-1h-1v-6h6v1c0,.55225.44727,1,1,1s1-.44775,1-1v-2c0-.55225-.44727-1-1-1Z"/>
  <path d="M48,44h-3v-6h1c.55273,0,1-.44775,1-1s-.44727-1-1-1h-2c-.55273,0-1,.44775-1,1v8c0,.55225.44727,1,1,1h4c.55273,0,1-.44775,1-1s-.44727-1-1-1Z"/>
  <path d="M52,42c-.55273,0-1,.44775-1,1v2c0,.55225.44727,1,1,1s1-.44775,1-1v-2c0-.55225-.44727-1-1-1Z"/>
  <path d="M52,36h-2c-.55273,0-1,.44775-1,1s.44727,1,1,1h1v1c0,.55225.44727,1,1,1s1-.44775,1-1v-2c0-.55225-.44727-1-1-1Z"/>
  <path d="M36,44h-3v-1c0-.55225-.44727-1-1-1s-1,.44775-1,1v2c0,.55225.44727,1,1,1h4c.55273,0,1-.44775,1-1s-.44727-1-1-1Z"/>
  <path d="M40,42c-.55273,0-1,.44775-1,1v2c0,.55225.44727,1,1,1s1-.44775,1-1v-2c0-.55225-.44727-1-1-1Z"/>
  <path d="M40,36h-8c-.55273,0-1,.44775-1,1v2c0,.55225.44727,1,1,1s1-.44775,1-1v-1h6v1c0,.55225.44727,1,1,1s1-.44775,1-1v-2c0-.55225-.44727-1-1-1Z"/>
  <path d="M54,20h-17v-9c0-2.20557-1.79395-4-4-4H11c-2.20605,0-4,1.79443-4,4v42c0,2.20557,1.79395,4,4,4h22c2.20605,0,4-1.79443,4-4v-3h17c1.6543,0,3-1.3457,3-3v-24c0-1.6543-1.3457-3-3-3ZM30,20c-1.6543,0-3,1.3457-3,3v22h-8v-4c0-1.10303-.89746-2-2-2h-4c-1.10254,0-2,.89697-2,2v4h-2V13h7.58594l1.70703,1.70703c.1875.1875.44141.29297.70703.29297h6c.26562,0,.51953-.10547.70703-.29297l1.70703-1.70703h7.58594v7h-5ZM17,45h-4v-4h4v4ZM11,9h22c1.10254,0,2,.89697,2,2h-8c-.26562,0-.51953.10547-.70703.29297l-1.70703,1.70703h-5.17188l-1.70703-1.70703c-.1875-.1875-.44141-.29297-.70703-.29297h-8c0-1.10303.89746-2,2-2ZM35,53c0,1.10303-.89746,2-2,2H11c-1.10254,0-2-.89697-2-2v-6h18c0,1.6543,1.3457,3,3,3h5v3ZM55,47c0,.55127-.44824,1-1,1h-24c-.55176,0-1-.44873-1-1v-24c0-.55127.44824-1,1-1h24c.55176,0,1,.44873,1,1v24Z"/>
  <path d="M17,19h-4c-1.10254,0-2,.89697-2,2v4c0,1.10303.89746,2,2,2h4c1.10254,0,2-.89697,2-2v-4c0-1.10303-.89746-2-2-2ZM13,25v-4h4l.00098,4h-4.00098Z"/>
  <path d="M17,29h-4c-1.10254,0-2,.89697-2,2v4c0,1.10303.89746,2,2,2h4c1.10254,0,2-.89697,2-2v-4c0-1.10303-.89746-2-2-2ZM13,35v-4h4l.00098,4h-4.00098Z"/>
</svg>