<?xml version="1.0" encoding="UTF-8"?>
<svg id="Outline" xmlns="http://www.w3.org/2000/svg" version="1.1" viewBox="0 0 64 64">
  <!-- Generator: Adobe Illustrator 29.5.1, SVG Export Plug-In . SVG Version: 2.1.0 Build 141)  -->
  <circle cx="31.998" cy="15.93" r="1"/>
  <path d="M46.498,55.75l-3.11-8.56c.83-.51,1.49-1.25,1.92-2.15.56-1.21.62-2.57.16-3.82l-3.15-8.66c-.19-.52-.76-.79-1.28-.6-.52.19-.79.76-.6,1.28l3.15,8.66c.28.76.24,1.57-.1,2.3-.19.41-.47.75-.82,1.03l-1.7-4.67c0-.01,0-.02-.01-.03l-7.24-19.92c.65-.24,1.24-.61,1.73-1.08l2.26,6.2c.15.41.53.66.94.66.683,0,1.175-.696.94-1.34l-2.81-7.73c.13-.45.22-.9.22-1.39,0-1.63-.79-3.06-2-3.97v-2.03c0-1.65-1.35-3-3-3s-3,1.35-3,3v2.03c-1.21.91-2,2.34-2,3.97,0,.49.09.94.22,1.39l-8.69,23.9c-.46,1.25-.4,2.61.17,3.82.42.9,1.08,1.64,1.91,2.15l-3.11,8.56c-.427,1.175,1.427,1.918,1.88.68l3.82-10.5h5.8c0,1.65,1.35,3,3,3s3-1.35,3-3h5.8l3.82,10.5c.438,1.204,2.323.532,1.88-.68ZM30.998,9.93c0-.55.45-1,1-1s1,.45,1,1v1.1c-.32-.06-.66-.1-1-.1s-.68.04-1,.1v-1.1ZM31.998,12.93c1.65,0,3,1.35,3,3s-1.35,3-3,3-3-1.35-3-3,1.35-3,3-3ZM23.038,40.53c-.01.01-.01.02-.01.03l-1.7,4.67c-.35-.28-.63-.62-.82-1.04-.34-.72-.38-1.53-.1-2.29l8.14-22.37c.49.47,1.08.84,1.73,1.08l-7.24,19.92ZM28.998,43.93h-5.07l.72-2h4.35v2ZM32.998,45.93c0,.55-.45,1-1,1s-1-.45-1-1v-6c0-.55.45-1,1-1s1,.45,1,1v6ZM31.998,36.93c-1.65,0-3,1.35-3,3h-3.62l6.62-18.19,6.62,18.19h-3.62c0-1.65-1.35-3-3-3ZM34.998,43.93v-2h4.35l.72,2h-5.07Z"/>
  <circle cx="39.998" cy="29.148" r="1"/>
</svg>