<?xml version="1.0" encoding="UTF-8"?>
<svg id="Outline" xmlns="http://www.w3.org/2000/svg" version="1.1" viewBox="0 0 64 64">
  <!-- Generator: Adobe Illustrator 29.5.1, SVG Export Plug-In . SVG Version: 2.1.0 Build 141)  -->
  <path d="M56.6,31.19l-2.913-2.19c-.504-.373-.849-.919-.971-1.538-.174-.886-.606-1.695-1.25-2.338-.31-.311-.665-.565-1.044-.77.371-1.272.182-2.676-.573-3.813-.277-.412-.43-.91-.43-1.402,0-.113.005-.234.03-.38l.51-3.6c.044-.311-.061-.625-.283-.847s-.537-.325-.847-.283l-3.607.511c-.62.092-1.251-.049-1.775-.401-.75-.504-1.627-.77-2.538-.77-.438,0-.867.07-1.279.193-.636-1.169-1.746-2.012-3.097-2.284-.616-.122-1.169-.471-1.553-.979l-2.18-2.91c-.378-.504-1.223-.504-1.601,0l-2.177,2.906c-.387.512-.94.861-1.56.983-1.355.272-2.467,1.138-3.098,2.288-1.272-.371-2.675-.182-3.813.573-.412.277-.91.43-1.402.43-.113,0-.234-.005-.38-.03l-3.6-.51c-.312-.041-.625.061-.847.283-.222.222-.327.536-.283.847l.511,3.607c.093.622-.049,1.251-.401,1.775-.504.75-.77,1.627-.77,2.538,0,.439.071.869.194,1.282-1.162.637-2.021,1.763-2.291,3.102-.095.487-.339.947-.686,1.293-.081.081-.17.163-.292.249l-2.906,2.185c-.251.189-.399.485-.399.799s.148.61.399.799l2.913,2.19c.504.373.849.919.971,1.538.174.886.606,1.695,1.25,2.338.31.31.671.55,1.049.755-.377,1.276-.19,2.686.568,3.828.277.412.43.91.43,1.402,0,.113-.005.234-.03.38l-.51,3.6c-.044.311.061.625.283.847s.534.325.847.283l3.607-.511c.62-.094,1.251.049,1.775.401.75.504,1.627.77,2.538.77.439,0,.869-.071,1.282-.194.637,1.162,1.763,2.021,3.102,2.291.487.095.947.339,1.293.686.081.081.163.17.249.292l2.185,2.906c.189.251.485.399.799.399s.61-.148.799-.399l2.19-2.913c.373-.504.919-.849,1.538-.971.886-.174,1.695-.606,2.338-1.25.31-.31.563-.663.768-1.041.417.122.848.187,1.28.187.885,0,1.771-.255,2.535-.763.412-.277.91-.43,1.402-.43.113,0,.234.005.38.03l3.6.51c.312.042.625-.061.847-.283s.327-.536.283-.847l-.511-3.607c-.093-.622.049-1.251.401-1.775.504-.75.77-1.627.77-2.538,0-.439-.071-.869-.194-1.282,1.162-.637,2.021-1.763,2.291-3.102.095-.487.339-.947.686-1.293.081-.081.17-.163.292-.249l2.906-2.185c.251-.189.399-.485.399-.799s-.148-.61-.399-.799ZM42.333,15.799c.938.63,2.069.887,3.178.72l2.283-.324-.318,2.25c-.04.227-.055.466-.055.693,0,.885.273,1.779.767,2.513.427.643.524,1.438.307,2.157-.45-.026-.906.006-1.353.117l-.149.037c-1.802-3.368-4.678-6.011-8.129-7.531.482-.652,1.237-1.062,2.047-1.062.512,0,1.003.149,1.422.43ZM33.703,46.881l2.544-4.892h6.935c-2.413,2.693-5.764,4.471-9.479,4.892ZM20.851,41.989h6.901l2.546,4.896c-3.74-.425-7.057-2.234-9.448-4.896ZM17,31.989c0-2.594.663-5.035,1.827-7.166l3.726,7.166-3.726,7.166c-1.164-2.131-1.827-4.572-1.827-7.166ZM30.299,17.093l-2.546,4.896h-6.901c2.391-2.662,5.708-4.472,9.448-4.896ZM33.993,21.989h-3.986l1.993-3.833,1.993,3.833ZM26.713,39.989h-6.066l3.033-5.832,3.033,5.832ZM37.287,39.989l3.033-5.832,3.033,5.832h-6.066ZM32,45.822l-11.353-21.833h22.706l-11.353,21.833ZM36.247,21.989l-2.544-4.892c3.715.422,7.066,2.199,9.479,4.892h-6.935ZM27.854,13.24c1.098-.217,2.079-.834,2.766-1.741l1.38-1.842,1.383,1.846c.684.903,1.666,1.521,2.76,1.737.761.153,1.381.636,1.738,1.3-.337.301-.638.646-.876,1.042l-.088.145c-1.566-.472-3.215-.737-4.917-.737-2.169,0-4.238.424-6.147,1.168-.023-.142-.053-.288-.053-.418,0-1.208.865-2.26,2.054-2.499ZM15.81,21.657c.63-.938.886-2.07.72-3.178l-.324-2.283,2.25.318c1.11.195,2.284-.092,3.206-.712.643-.427,1.439-.523,2.158-.306-.004.082-.022.161-.022.243,0,.361.046.736.139,1.116l.037.154c-3.326,1.789-5.985,4.656-7.521,8.127-.66-.481-1.075-1.242-1.075-2.057,0-.512.149-1.003.43-1.422ZM11.508,33.375l-1.843-1.386,1.817-1.367c.188-.132.367-.29.528-.451.626-.626,1.065-1.452,1.235-2.319.153-.757.646-1.387,1.307-1.742.3.337.646.636,1.04.875l.14.085c-.472,1.559-.732,3.209-.732,4.92,0,2.169.424,4.237,1.167,6.146-.808.129-1.642-.116-2.22-.694-.361-.362-.604-.814-.702-1.311-.218-1.11-.838-2.09-1.737-2.755ZM21.667,48.179c-.938-.63-2.069-.884-3.178-.72l-2.283.324.318-2.25c.04-.227.055-.466.055-.693,0-.885-.273-1.779-.767-2.513-.429-.646-.524-1.445-.303-2.166.087.005.171.025.258.025.364,0,.73-.043,1.091-.132l.161-.039c1.789,3.327,4.656,5.985,8.128,7.521-.481.66-1.242,1.075-2.057,1.075-.512,0-1.003-.149-1.422-.43ZM36.141,50.744c-1.11.218-2.09.838-2.755,1.737l-1.386,1.843-1.367-1.817c-.132-.188-.29-.367-.451-.528-.626-.626-1.452-1.065-2.319-1.235-.757-.153-1.387-.646-1.742-1.307.337-.3.636-.646.875-1.04l.085-.14c1.559.472,3.209.732,4.92.732,2.155,0,4.227-.416,6.147-1.16.126.806-.119,1.636-.695,2.213-.362.361-.814.604-1.311.702ZM48.19,42.322c-.63.938-.886,2.07-.72,3.178l.324,2.283-2.25-.318c-1.113-.197-2.285.092-3.206.712-.643.426-1.437.523-2.156.307.026-.45-.006-.906-.117-1.353l-.037-.153c3.306-1.768,5.986-4.605,7.536-8.123.65.482,1.059,1.236,1.059,2.044,0,.512-.149,1.003-.43,1.422ZM52.518,33.356c-.188.132-.367.29-.528.451-.626.626-1.065,1.452-1.235,2.319-.153.757-.646,1.387-1.307,1.742-.3-.337-.646-.636-1.04-.875l-.141-.085c.071-.234.15-.463.211-.702.137-.535-.186-1.08-.721-1.216-.538-.139-1.079.187-1.216.721-.314,1.227-.776,2.384-1.36,3.458l-3.734-7.18,3.734-7.18c.585,1.073,1.046,2.231,1.36,3.458.137.535.679.862,1.216.721.535-.137.858-.682.721-1.216-.17-.664-.39-1.303-.633-1.929.805-.122,1.633.121,2.207.695.361.362.604.814.702,1.311.218,1.11.838,2.09,1.737,2.755l1.843,1.386-1.817,1.367Z"/>
  <circle cx="48" cy="31.989" r="1"/>
</svg>