<?xml version="1.0" encoding="UTF-8"?>
<svg id="Outline" xmlns="http://www.w3.org/2000/svg" version="1.1" viewBox="0 0 64 64">
  <!-- Generator: Adobe Illustrator 29.5.1, SVG Export Plug-In . SVG Version: 2.1.0 Build 141)  -->
  <path d="M53.919,55.606c-1.937-4.52-2.919-9.306-2.919-14.226v-15.38c0-5.067-1.975-9.839-5.564-13.438-3.597-3.587-8.369-5.562-13.436-5.562-10.477,0-19,8.523-19,19v3c0,.552.448,1,1,1s1-.448,1-1v-3c0-9.374,7.626-17,17-17,4.534,0,8.804,1.768,12.022,4.976,3.21,3.22,4.978,7.49,4.978,12.024v15.38c0,4.58.806,9.049,2.399,13.313l-3.669-.667c-.709-.129-1.421-.225-2.133-.303-1.046-2.802-1.596-5.733-1.596-8.731v-.992c0-.552-.448-1-1-1s-1,.448-1,1v.992c0,2.928.473,5.8,1.398,8.562-2.376-.088-4.759.103-7.123.576l-3.275.652v-7.781c0-.552-.448-1-1-1s-1,.448-1,1v7.781l-3.274-.652c-2.365-.473-4.748-.664-7.124-.576.925-2.761,1.398-5.633,1.398-8.561v-.992c0-.552-.448-1-1-1s-1,.448-1,1v.992c0,2.998-.55,5.929-1.596,8.731-.712.079-1.424.174-2.133.303l-3.671.667c.685-1.84,1.229-3.734,1.62-5.652.518-2.526.78-5.104.78-7.661v-4.38c0-.552-.448-1-1-1s-1,.448-1,1v4.38c0,2.423-.249,4.865-.74,7.26-.486,2.383-1.219,4.727-2.179,6.966-.145.338-.093.729.137,1.017s.598.427.961.361l5.451-.99c3.545-.647,7.147-.615,10.705.097l4.47.89c.129.025.262.025.391,0l4.471-.891c3.556-.712,7.158-.745,10.705-.097l5.45.99c.06.011.12.016.179.016.301,0,.59-.136.782-.377.229-.288.282-.679.137-1.017Z"/>
  <path d="M25,27c2.206,0,4-2.243,4-5s-1.794-5-4-5-4,2.243-4,5,1.794,5,4,5ZM25,19c1.084,0,2,1.374,2,3s-.916,3-2,3-2-1.374-2-3,.916-3,2-3Z"/>
  <path d="M39,27c2.206,0,4-2.243,4-5s-1.794-5-4-5-4,2.243-4,5,1.794,5,4,5ZM39,19c1.084,0,2,1.374,2,3s-.916,3-2,3-2-1.374-2-3,.916-3,2-3Z"/>
  <path d="M42,30h-20c-.55,0-1,.45-1,1,0,4.33,2.51,8.2,6.42,9.99.77,1.77,2.53,3.01,4.58,3.01s3.82-1.24,4.58-3.02c1.2-.55,2.27-1.28,3.2-2.2,2.08-2.08,3.22-4.84,3.22-7.78,0-.55-.45-1-1-1ZM27,38.46c-2.19-1.47-3.65-3.81-3.94-6.46h3.94v6.46ZM35,39c0,1.65-1.35,3-3,3s-3-1.35-3-3v-7h6v7ZM38.36,37.36c-.42.42-.87.79-1.36,1.12v-6.48h3.95c-.23,2.02-1.12,3.9-2.59,5.36Z"/>
  <path d="M32,40c.552,0,1-.448,1-1v-4c0-.552-.448-1-1-1s-1,.448-1,1v4c0,.552.448,1,1,1Z"/>
  <circle cx="14" cy="33" r="1"/>
</svg>