<?xml version="1.0" encoding="UTF-8"?>
<svg id="Outline" xmlns="http://www.w3.org/2000/svg" version="1.1" viewBox="0 0 64 64">
  <!-- Generator: Adobe Illustrator 29.0.0, SVG Export Plug-In . SVG Version: 2.1.0 Build 186)  -->
  <path d="M54.99658,30.50098c-.22266-.38623-.67383-.5791-1.10693-.47168l-13.67084,3.38635c-.85004-.86078-1.9411-1.38599-3.13293-1.41046l-1.58441-12.13458c-.06494-.49805-.48926-.87061-.9917-.87061h-3.50977v-4c0-4.41113-3.58887-8-8-8s-8,3.58887-8,8v4h-3.50977c-.50195,0-.92627.37256-.9917.87012l-3.4502,26.37988c-.2168,1.65771.30225,3.3418,1.42383,4.62012,1.18799,1.35352,2.92236,2.12988,4.75781,2.12988h10.65875l-.25201,1.36865c-.06299.34082.05518.68994.31201.92236s.61523.31445.94922.21973l3.80957-1.10107,3.1709,2.38916c.17578.13232.3877.20117.60156.20117.12256,0,.24561-.02246.36279-.06836.32324-.12549.55762-.40967.62061-.75049l2.28223-12.38c.40167.12524.82056.19885,1.25439.19885s.85272-.07361,1.25439-.19885l2.28223,12.38c.06299.34082.29736.625.62061.75049.11719.0459.24023.06836.36279.06836.21387,0,.42578-.06885.60156-.20117l3.1709-2.38916,3.80957,1.10107c.33545.09668.69287.01367.94922-.21973.25684-.23242.375-.58154.31201-.92236l-1.78894-9.7146,5.31531,1.31665c.08008.02002.16064.0293.24023.0293.35156,0,.68506-.18604.8667-.50098,1.31055-2.27539,2.00342-4.86865,2.00342-7.49902s-.69287-5.22363-2.00342-7.49902ZM17,15c0-3.30859,2.69141-6,6-6s6,2.69141,6,6v4h-12v-4ZM13.22998,51c-1.26025,0-2.44629-.52832-3.25439-1.44922-.75342-.85791-1.08838-1.93799-.94385-3.04102l3.33643-25.50977h2.63184v3c0,.55225.44775,1,1,1s1-.44775,1-1v-3h12v3c0,.55225.44775,1,1,1s1-.44775,1-1v-3h2.63184l1.49377,11.44147c-.49182.23969-.94476.56946-1.34442.97418l-13.67084-3.38635c-.43213-.10596-.88379.08594-1.10693.47168-1.31055,2.27539-2.00342,4.86865-2.00342,7.49902s.69287,5.22363,2.00342,7.49902c.18164.31494.51514.50098.8667.50098.07959,0,.16016-.00928.24023-.0293l5.31531-1.31665-1.16858,6.34595h-11.0271ZM20.38232,43.84277c-.90625-1.80713-1.38232-3.81201-1.38232-5.84277s.47607-4.03564,1.38232-5.84277l12.2066,3.0235c-.24927.55933-.42261,1.17249-.51367,1.81927h-5.07526c-.55225,0-1,.44775-1,1s.44775,1,1,1h5.07526c.09106.64679.2644,1.25995.51367,1.81927l-12.2066,3.0235ZM31.79004,54.22803l-2.27832-1.7168c-.25146-.18896-.57812-.25146-.87939-.16162l-2.73584.79053,1.65991-9.01385,6.22479-1.54193c.04303.04358.08771.08435.1319.12616l-2.12305,11.51752ZM34,38c0-2.20557,1.3457-4,3-4s3,1.79443,3,4-1.3457,4-3,4-3-1.79443-3-4ZM48.10352,53.14014l-2.73584-.79053c-.30273-.08887-.62842-.02734-.87939.16162l-2.27832,1.7168-2.12305-11.51752c.04419-.04181.08887-.08258.1319-.12616l6.22479,1.54193,1.65991,9.01385ZM53.61768,43.84277l-12.2066-3.0235c.24927-.55933.42261-1.17249.51367-1.81927h5.07526c.55225,0,1-.44775,1-1s-.44775-1-1-1h-5.07526c-.09106-.64679-.2644-1.25995-.51367-1.81927l12.2066-3.0235c.90625,1.80713,1.38232,3.81201,1.38232,5.84277s-.47607,4.03564-1.38232,5.84277Z"/>
</svg>