<?xml version="1.0" encoding="UTF-8"?>
<svg id="Outline" xmlns="http://www.w3.org/2000/svg" version="1.1" viewBox="0 0 64 64">
  <!-- Generator: Adobe Illustrator 29.0.0, SVG Export Plug-In . SVG Version: 2.1.0 Build 186)  -->
  <path d="M56,31h-5.03003c.64001-.84003,1.03003-1.87,1.03003-3,0-2.76001-2.23999-5-5-5-1.64001,0-3.09003.81-4,2.02997-.90997-1.21997-2.35999-2.02997-4-2.02997-.17999,0-.34998.02997-.53003.04999l-7.75995-7.76001c-.19-.17999-.44-.28998-.71002-.28998h-2.40997l2.34998-6.67004c.19-.51996-.09003-1.08997-.60999-1.26996-.52002-.19-1.09003.08997-1.27002.60999l-2.59003,7.33002h-4.93994l-2.59003-7.33002c-.17999-.52002-.75-.79999-1.27002-.60999-.51996.17999-.79999.75-.60999,1.26996l2.34998,6.67004h-2.40997c-.27002,0-.52002.10999-.71002.28998l-8,8c-.17999.19-.28998.44-.28998.71002v30c0,.54999.45001,1,1,1h24.82001l.19,1.15997c.08002.48999.5.84003.98999.84003h18c.48999,0,.90997-.35004.98999-.84003l2.85999-17.15997h.15002c.54999,0,1-.45001,1-1v-6c0-.54999-.45001-1-1-1ZM44,28c0-1.65002,1.34998-3,3-3s3,1.34998,3,3-1.34998,3-3,3h-3v-3ZM45,33v4h-4v-4h4ZM39,25c1.65002,0,3,1.34998,3,3v3h-3c-1.65002,0-3-1.35004-3-3s1.34998-3,3-3ZM30,39h.15002l1.66998,10H13v-14h16v3c0,.54999.45001,1,1,1ZM31,37v-4h8v4h-8ZM25.5,21c.83002,0,1.5.66998,1.5,1.5,0,.82996-.66998,1.5-1.5,1.5h-5c-.83002,0-1.5-.67004-1.5-1.5,0-.83002.66998-1.5,1.5-1.5h5ZM9,53v-28.59003l7.40997-7.40997h2.71002l.72998,2.07001c-1.62.29999-2.84998,1.71997-2.84998,3.42999,0,1.92999,1.57001,3.5,3.5,3.5h5c1.92999,0,3.5-1.57001,3.5-3.5s-1.57001-3.5-3.5-3.5h-3.54999l-.71002-2h8.35004l6.76996,6.76996c-1.40997.89001-2.35999,2.45001-2.35999,4.23004,0,1.13.39001,2.15997,1.03003,3h-5.03003c-.54999,0-1,.45001-1,1v1H12c-.54999,0-1,.45001-1,1v16c0,.54999.45001,1,1,1h20.15002l.33997,2H9ZM42,55h-7.15002l-2.66998-16h9.82001v16ZM51.15002,55h-7.15002v-16h9.82001l-2.66998,16ZM55,37h-8v-4h8v4Z"/>
</svg>