<?xml version="1.0" encoding="UTF-8"?>
<svg id="Outline" xmlns="http://www.w3.org/2000/svg" version="1.1" viewBox="0 0 64 64">
  <!-- Generator: Adobe Illustrator 29.5.1, SVG Export Plug-In . SVG Version: 2.1.0 Build 141)  -->
  <path d="M54,17h-8.54c.95-1.06,1.54-2.46,1.54-4,0-3.31-2.69-6-6-6-3.96,0-7.38,2.32-9,5.67-1.62-3.35-5.04-5.67-9-5.67-3.31,0-6,2.69-6,6,0,1.54.59,2.94,1.54,4h-8.54c-1.65,0-3,1.35-3,3v6c0,1.65,1.35,3,3,3v25c0,1.65,1.35,3,3,3h38c1.65,0,3-1.35,3-3v-14c0-.55-.45-1-1-1s-1,.45-1,1v4.67l-16-4.56v-11.11h1.98c.01.13.02.27.02.4v2.6c0,.32.15.62.42.81.26.19.59.24.9.14l2.68-.9,2.68.9c.11.03.21.05.32.05.514,0,1-.441,1-1v-1.93c0-.36-.03-.71-.05-1.07h6.05v3c0,.55.45,1,1,1s1-.45,1-1v-3c1.65,0,3-1.35,3-3v-6c0-1.65-1.35-3-3-3ZM41,9c2.21,0,4,1.79,4,4s-1.79,4-4,4h-8c0-4.41,3.59-8,8-8ZM23,9c4.41,0,8,3.59,8,8h-8c-2.21,0-4-1.79-4-4s1.79-4,4-4ZM27.07,19c-1.73,2.7-2.77,5.8-3.01,9-.03.47-.06.93-.06,1.4v1.21l-1.68-.56c-.21-.07-.43-.07-.64,0l-1.68.56v-.54c0-4.16,1.58-8.07,4.44-11.07h2.63ZM10,27c-.55,0-1-.45-1-1v-6c0-.55.45-1,1-1h11.81c-1.83,2.35-3.04,5.08-3.53,8h-8.28ZM28,55h-15c-.55,0-1-.45-1-1v-12.67l16,4.56v9.11ZM28,43.81l-16-4.56v-3.92l16,4.56v3.92ZM28,37.81l-16-4.56v-4.25h6.05c-.02.36-.05.71-.05,1.07v1.93c0,.32.15.62.42.81.26.19.59.24.9.14l2.68-.9,2.68.9c.11.03.209.05.319.05.543,0,1.001-.46,1.001-1v-2.6c0-.13.01-.27.02-.4h1.98v8.81ZM34,55h-4v-26h4v26ZM52,54c0,.55-.45,1-1,1h-15v-6.81l16,4.56v1.25ZM52,46.75v3.92l-16-4.56v-3.92l16,4.56ZM26.18,27c.41-2.89,1.56-5.66,3.33-8h4.98c1.77,2.34,2.92,5.11,3.33,8h-11.64ZM44,30.61l-1.68-.56c-.21-.07-.43-.07-.64,0l-1.68.56v-1.21c0-.47-.03-.93-.06-1.4-.24-3.2-1.28-6.3-3.01-9h2.63c2.86,3,4.44,6.91,4.44,11.07v.54ZM55,26c0,.55-.45,1-1,1h-8.28c-.49-2.92-1.7-5.65-3.53-8h11.81c.55,0,1,.45,1,1v6Z"/>
  <path d="M21,47h-6c-.552,0-1,.448-1,1v4c0,.552.448,1,1,1h6c.552,0,1-.448,1-1v-4c0-.552-.448-1-1-1ZM20,51h-4v-2h4v2Z"/>
  <circle cx="53" cy="36" r="1"/>
</svg>