<?xml version="1.0" encoding="UTF-8"?>
<svg id="Outline" xmlns="http://www.w3.org/2000/svg" version="1.1" viewBox="0 0 64 64">
  <!-- Generator: Adobe Illustrator 29.0.0, SVG Export Plug-In . SVG Version: 2.1.0 Build 186)  -->
  <path d="M56,20h-3v-11c0-.33002-.15997-.64001-.42999-.82001-.27002-.19-.60999-.22998-.91998-.12l-15.83002,5.94h-7.64001l-15.83002-5.94c-.31-.10999-.64996-.07001-.91998.12-.27002.17999-.42999.48999-.42999.82001v11h-3c-.54999,0-1,.45001-1,1v6c0,.54999.45001,1,1,1h1.09998l2.91003,27.10999c.04999.5.47998.89001.98999.89001h38c.51001,0,.94-.39001.98999-.89001l2.91003-27.10999h1.09998c.54999,0,1-.45001,1-1v-6c0-.54999-.45001-1-1-1ZM37,15.69l14-5.25v9.56h-14v-4.31ZM29,16h6v4h-6v-4ZM38,22v4h-12v-4h12ZM13,10.44l14,5.25v4.31h-14v-9.56ZM9,26v-4h15v4h-15ZM11.10999,28h19.89001v6.58997l-5.40997,5.41003h-13.19l-1.29004-12ZM31,54H13.90002l-1.29004-12h12.98004l5.40997,5.40997v6.59003ZM27.40997,41l4.59003-4.59003,4.59003,4.59003-4.59003,4.58997-4.59003-4.58997ZM50.09998,54h-17.09998v-6.59003l5.40997-5.40997h12.98004l-1.29004,12ZM51.59998,40h-13.19l-5.40997-5.41003v-6.58997h19.89001l-1.29004,12ZM55,26h-15v-4h15v4Z"/>
</svg>