<?xml version="1.0" encoding="UTF-8"?>
<svg id="Outline" xmlns="http://www.w3.org/2000/svg" version="1.1" viewBox="0 0 64 64">
  <!-- Generator: Adobe Illustrator 29.5.1, SVG Export Plug-In . SVG Version: 2.1.0 Build 141)  -->
  <path d="M50,7H14c-1.65,0-3,1.35-3,3v44c0,1.65,1.35,3,3,3h36c1.65,0,3-1.35,3-3V10c0-1.65-1.35-3-3-3ZM49.97,9l-1.75,7h-1.83v-.17c0-1.29-.51-2.51-1.42-3.41-1.51-1.53-4.01-1.86-5.91-.73l-3.82,2.3c-.45-.39-1.03-.63-1.67-.63h-3.14c-.64,0-1.22.24-1.67.63l-3.83-2.31c-.75-.44-1.61-.68-2.48-.68-1.3,0-2.51.51-3.41,1.42-.92.9-1.43,2.12-1.43,3.41v.17h-1.83l-1.75-7h35.94ZM41.55,22.02c-.51,0-1.02-.14-1.46-.4l-3.96-2.38c.01-.05.02-.1.02-.15v-.69h2.15c.55,0,1-.45,1-1s-.45-1-1-1h-2.15v-.46c0-.06-.01-.11-.02-.16l3.95-2.38c1.11-.65,2.58-.47,3.48.44.53.53.83,1.24.83,1.99v3.36c0,1.56-1.28,2.83-2.84,2.83ZM42.87,25.95l-1.9.11c-.32.01-.61.18-.78.44l-1.05,1.6-4.02-6.97c.04-.03.08-.06.12-.09l3.82,2.3c.76.45,1.62.68,2.49.68.07,0,.13-.01.19-.02l1.13,1.95ZM34.15,15.94v3.15c0,.31-.26.57-.57.57h-3.16c-.31,0-.57-.26-.57-.57v-3.15c0-.32.26-.58.58-.58h3.14c.32,0,.58.26.58.58ZM25.7,18.4h2.15v.69c0,.05.01.1.02.15l-3.95,2.38c-.45.26-.96.4-1.47.4-1.56,0-2.84-1.27-2.84-2.83v-3.36c0-.75.3-1.46.84-2,.89-.9,2.37-1.07,3.46-.43l3.96,2.38c-.01.05-.02.1-.02.16v.46h-2.15c-.55,0-1,.45-1,1s.45,1,1,1ZM22.26,24c.06.01.12.02.19.02.87,0,1.73-.23,2.49-.68l3.82-2.3c.04.03.08.06.12.09l-4.02,6.97-1.05-1.6c-.17-.26-.46-.43-.78-.44l-1.9-.11,1.13-1.95ZM51,54c0,.55-.45,1-1,1H14c-.55,0-1-.45-1-1V13.12l1.03,4.12c.11.45.51.76.97.76h2.61v1.19c0,1.87,1.08,3.48,2.64,4.28l-1.66,2.88c-.17.3-.18.67-.01.98.16.3.47.5.82.52l3.02.17,1.66,2.53c.18.28.5.45.83.45h.03c.35-.01.67-.2.84-.5l5.1-8.84h2.24l5.1,8.84c.17.3.49.49.84.5h.03c.33,0,.65-.17.83-.45l1.66-2.53,3.02-.17c.35-.02.66-.22.82-.52.17-.31.16-.68-.01-.98l-1.66-2.88c1.56-.8,2.64-2.41,2.64-4.28v-1.19h2.61c.46,0,.86-.31.97-.76l1.03-4.12v40.88Z"/>
  <path d="M26,47h-10c-.552,0-1,.447-1,1v4c0,.553.448,1,1,1h10c.552,0,1-.447,1-1v-4c0-.553-.448-1-1-1ZM25,51h-8v-2h8v2Z"/>
</svg>