<?xml version="1.0" encoding="UTF-8"?>
<svg id="Outline" xmlns="http://www.w3.org/2000/svg" version="1.1" viewBox="0 0 64 64">
  <!-- Generator: Adobe Illustrator 29.5.1, SVG Export Plug-In . SVG Version: 2.1.0 Build 141)  -->
  <path d="M54,17h-5.81c.1-1.58-.54-3.14-1.75-4.19.92-1.41,1.16-3.17.61-4.81l-.1-.32c-.16-.47-.65-.76-1.15-.66l-5.03,1.01c-3.24.64-6.08,2.43-8.08,5.04-.23-.03-.45-.07-.69-.07s-.46.04-.69.07c-2-2.61-4.84-4.4-8.08-5.04l-5.03-1.01c-.5-.1-.99.19-1.15.66l-.1.32c-.55,1.64-.31,3.4.61,4.81-1.21,1.05-1.85,2.61-1.75,4.19h-5.81c-1.65,0-3,1.35-3,3v4c0,1.3.84,2.4,2,2.82v27.18c0,1.65,1.35,3,3,3h40c1.65,0,3-1.35,3-3v-27.18c1.16-.42,2-1.52,2-2.82v-4c0-1.65-1.35-3-3-3ZM46.19,17h-8.75c1.99-1.87,4.55-2.92,7.28-2.99l.09.07c.98.65,1.49,1.79,1.38,2.92ZM41.16,9.99l4.13-.83c.18,1.03-.12,2.06-.79,2.86-3.08.12-5.97,1.3-8.26,3.37-.4-.65-.93-1.2-1.57-1.6,1.67-1.96,3.94-3.29,6.49-3.8ZM32,15c1.3,0,2.4.84,2.82,2h-5.64c.42-1.16,1.52-2,2.82-2ZM18.71,9.16l4.13.83c2.55.51,4.82,1.84,6.49,3.8-.64.4-1.17.95-1.57,1.6-2.29-2.07-5.18-3.25-8.26-3.37-.67-.8-.97-1.83-.79-2.86ZM19.19,14.08l.09-.07c2.73.07,5.29,1.12,7.28,2.99h-8.75c-.11-1.13.4-2.27,1.38-2.92ZM25,55h-13c-.55,0-1-.45-1-1v-9h14v10ZM25,43h-14v-4h14v4ZM25,37h-14v-10h14v10ZM37,55h-10v-28h10v28ZM53,54c0,.55-.45,1-1,1h-13v-10h14v9ZM53,43h-14v-4h14v4ZM53,37h-14v-10h14v10ZM55,24c0,.55-.45,1-1,1H10c-.55,0-1-.45-1-1v-4c0-.55.45-1,1-1h44c.55,0,1,.45,1,1v4Z"/>
</svg>