<?xml version="1.0" encoding="UTF-8"?>
<svg id="Outline" xmlns="http://www.w3.org/2000/svg" version="1.1" viewBox="0 0 64 64">
  <!-- Generator: Adobe Illustrator 29.5.1, SVG Export Plug-In . SVG Version: 2.1.0 Build 141)  -->
  <path d="M54.74,22.9c.77-.73,1.26-1.76,1.26-2.9,0-.54-.11-1.06-.31-1.53.79-.55,1.31-1.45,1.31-2.47,0-1.65-1.35-3-3-3s-3,1.35-3,3c0,.05.02.09.02.14-1.73.44-3.02,2-3.02,3.86,0,1.12.47,2.13,1.21,2.86-.27.18-.52.38-.75.61-.94.95-1.46,2.21-1.46,3.53v-8c0-.55-.45-1-1-1h-12c-.55,0-1,.45-1,1v10c0,.55.45,1,1,1h5.18c-.11.31-.18.65-.18,1,0,.81.32,1.57.87,2.11.56.57,1.32.89,2.13.89h5v3c0,.55.45,1,1,1h.09l.82,8.17c-1.67.48-2.91,2-2.91,3.83,0,.55.45,1,1,1h7c.52,0,.96-.4,1-.92l.93-12.08h.07c.55,0,1-.45,1-1v-5c0-.55-.45-1-1-1s-1,.45-1,1v4h-6v-2c2.21,0,4-1.79,4-4,0-.55-.45-1-1-1s-1,.45-1,1c0,1.1-.9,2-2,2h-7c-.27,0-.51-.1-.71-.31-.19-.18-.29-.42-.29-.69,0-.55.45-1,1-1h6c.55,0,1-.45,1-1v-2c0-.8.31-1.55.87-2.12.54-.53,1.25-.85,1.99-.88.76-.04,1.51.25,2.1.82.66.63,1.04,1.51,1.04,2.41v.77c0,.55.45,1,1,1s1-.45,1-1v-.77c0-1.45-.6-2.86-1.66-3.86-.19-.18-.39-.33-.6-.47ZM50,48h1c.55,0,1-.45,1-1s-.45-1-1-1h-.09l-.8-8h3.81l-.85,11h-4.8c.34-.6.99-1,1.73-1ZM37,28h-2v-8h2v8ZM41,28h-2v-8h2v8ZM45,28h-2v-8h2v8ZM52,22c-1.1,0-2-.9-2-2s.9-2,2-2,2,.9,2,2-.9,2-2,2ZM54.47,16.88c-.42-.34-.91-.59-1.45-.73-.01-.05-.02-.1-.02-.15,0-.55.45-1,1-1s1,.45,1,1c0,.37-.22.71-.53.88Z"/>
  <path d="M30,23c.55,0,1-.45,1-1v-3c0-.55-.45-1-1-1h-12c-.55,0-1,.45-1,1v8c0-1.32-.52-2.58-1.47-3.54-.23-.23-.48-.43-.74-.6.75-.73,1.21-1.74,1.21-2.86,0-2.21-1.79-4-4-4s-4,1.79-4,4c0,1.14.49,2.17,1.26,2.9-.21.15-.42.29-.6.47-1.06,1.01-1.66,2.41-1.66,3.86v9.77c0,.55.45,1,1,1h.07l.93,12.08c.04.52.48.92,1,.92h7c.55,0,1-.45,1-1,0-1.83-1.24-3.35-2.91-3.83l.82-8.17h.09c.55,0,1-.45,1-1v-3h5c1.65,0,3-1.35,3-3,0-.35-.07-.69-.18-1h5.18c.55,0,1-.45,1-1v-3c0-.55-.45-1-1-1s-1,.45-1,1v2h-2v-8h2v2c0,.55.45,1,1,1ZM19,20h2v8h-2v-8ZM12,18c1.1,0,2,.9,2,2s-.9,2-2,2-2-.9-2-2,.9-2,2-2ZM15.73,49h-4.8l-.85-11h3.81l-.8,8h-.09c-.55,0-1,.45-1,1s.45,1,1,1h1c.74,0,1.39.4,1.73,1ZM22,32h-7c-1.1,0-2-.9-2-2,0-.55-.45-1-1-1s-1,.45-1,1c0,2.21,1.79,4,4,4v2h-6v-8.77c0-.9.38-1.78,1.04-2.41.59-.56,1.34-.86,2.1-.82.74.04,1.45.35,1.98.87.57.58.88,1.33.88,2.13v2c0,.55.45,1,1,1h6c.55,0,1,.45,1,1s-.45,1-1,1ZM25,28h-2v-8h2v8Z"/>
</svg>