<?xml version="1.0" encoding="UTF-8"?>
<svg id="Outline" xmlns="http://www.w3.org/2000/svg" version="1.1" viewBox="0 0 64 64">
  <!-- Generator: Adobe Illustrator 29.0.0, SVG Export Plug-In . SVG Version: 2.1.0 Build 186)  -->
  <path d="M29,39c0-5.51416-4.48633-10-10-10s-10,4.48584-10,10v9.3739c-1.27081,1.91943-2,4.20508-2,6.6261v1c0,.55225.44727,1,1,1h22c.55273,0,1-.44775,1-1v-1c0-2.42102-.72919-4.70667-2-6.6261v-9.3739ZM19,31c4.41113,0,8,3.58887,8,8v7.05518c-.85669-.76611-1.83124-1.40991-2.89972-1.91052.56671-.91577.89972-1.99078.89972-3.14465v-4c0-.55225-.44727-1-1-1h-.17188c-1.77344,0-3.45605.58545-4.82812,1.66455-1.37207-1.0791-3.05469-1.66455-4.82812-1.66455h-.17188c-.55273,0-1,.44775-1,1v4c0,1.15387.33301,2.22888.89972,3.14465-1.06848.50061-2.04303,1.14441-2.89972,1.91052v-7.05518c0-4.41113,3.58887-8,8-8ZM15,41v-2.94189c1.24316.17578,2.38965.74561,3.29297,1.64893.375.375,1.03906.375,1.41406,0,.90332-.90332,2.0498-1.47314,3.29297-1.64893v2.94189c0,2.20557-1.79395,4-4,4s-4-1.79443-4-4ZM9,55c0-4.12036,2.51141-7.78094,6.30054-9.28571,1.02045.80255,2.30341,1.28571,3.69946,1.28571s2.67902-.48315,3.69946-1.28571c3.78912,1.50476,6.30054,5.16534,6.30054,9.28571H9Z"/>
  <path d="M50.6684,44.4389c.93683-1.20599,1.50195-2.71338,1.51117-4.35303.16595.11145.3512.18707.54797.18707.12891,0,.25879-.0249.38281-.07617.37402-.15479.61719-.51953.61719-.92383v-3.09131c0-3.95996-3.22168-7.18164-7.18164-7.18164h-3.0918c-3.95996,0-7.18164,3.22168-7.18164,7.18164v3.09131c0,.4043.24316.76904.61719.92383.31183.12823.65753.08246.93134-.09955.01178,1.63525.57599,3.13855,1.51062,4.34167-3.83539,2.06116-6.3316,6.13715-6.3316,10.5611v1c0,.55225.44727,1,1,1h22c.55273,0,1-.44775,1-1v-1c0-4.42395-2.49622-8.49994-6.3316-10.5611ZM39.81836,40.04541v-1.9043l.17773-.17773c.69238-.69092,1.79102-.75293,2.55566-.1416,1.44141,1.1543,3.45605,1.15381,4.89551.00049.76758-.61182,1.86426-.5498,2.55664.14111l.17773.17773v1.9043c0,2.85693-2.32422,5.18164-5.18164,5.18164s-5.18164-2.32471-5.18164-5.18164ZM38.27246,36.18164c0-2.85693,2.32422-5.18164,5.18164-5.18164h3.0918c2.85742,0,5.18164,2.32471,5.18164,5.18164v.67725l-.30957-.30957c-.76172-.76172-1.76367-1.14893-2.77148-1.14893-.8623,0-1.72754.28369-2.44824.85986-.70508.56543-1.69043.56494-2.39746-.00049-1.56055-1.24854-3.80566-1.12451-5.21875.28955l-.30957.30957v-.67725ZM35,55c0-3.90955,2.33765-7.49365,5.86493-9.09283,1.17059.82825,2.59521,1.31989,4.13507,1.31989s2.96448-.49164,4.13507-1.31989c3.52728,1.59918,5.86493,5.18329,5.86493,9.09283h-20Z"/>
  <path d="M46,12h-6.34998c.21997-.46002.34998-.96002.34998-1.5,0-1.92999-1.57001-3.5-3.5-3.5-.96002,0-1.82001.39001-2.45001,1.01001-.01996,0-.02997-.01001-.04999-.01001h-4c-.02002,0-.03003.01001-.04999.01001-.63-.62-1.48999-1.01001-2.45001-1.01001-1.92999,0-3.5,1.57001-3.5,3.5,0,.53998.13,1.03998.34998,1.5h-6.34998c-.54999,0-1,.45001-1,1v4c0,.54999.45001,1,1,1h1.17999l1.84003,9.20001c.08997.45996.5.79999.97998.79999h20c.47998,0,.89001-.34003.97998-.79999l1.84003-9.20001h1.17999c.54999,0,1-.45001,1-1v-4c0-.54999-.45001-1-1-1ZM35,10.5c0-.83002.66998-1.5,1.5-1.5s1.5.66998,1.5,1.5c0,.82996-.66998,1.5-1.5,1.5h-1.5v-1.5ZM31,10h2v2h-2v-2ZM30,14h4v2h-4v-2ZM27.5,9c.83002,0,1.5.66998,1.5,1.5v1.5h-1.5c-.83002,0-1.5-.67004-1.5-1.5,0-.83002.66998-1.5,1.5-1.5ZM19,16v-2h9v2h-9ZM31,26h-8.17999l-1.60004-8h9.78003v8ZM41.17999,26h-8.17999v-8h9.78003l-1.60004,8ZM45,16h-9v-2h9v2Z"/>
</svg>