<?xml version="1.0" encoding="UTF-8"?>
<svg id="Outline" xmlns="http://www.w3.org/2000/svg" version="1.1" viewBox="0 0 64 64">
  <!-- Generator: Adobe Illustrator 29.5.1, SVG Export Plug-In . SVG Version: 2.1.0 Build 141)  -->
  <path d="M47.872,35h-19.65l18.17-4.87c1.59-.43,2.55-2.08,2.12-3.67l-.52-1.94c-.43-1.59-2.08-2.54-3.67-2.12l-4.39,1.18c.67-1.32.84-2.82.45-4.26-.41-1.55-1.4-2.85-2.79-3.65-1.39-.8-3.01-1.01-4.55-.6-3.83,1.03-6.53,4.15-7.23,7.8-.72-.84-1.58-1.57-2.57-2.14-2.32-1.33-5.01-1.69-7.59-1-1.55.42-2.84,1.41-3.65,2.8-.8,1.39-1.01,3-.59,4.55.38,1.45,1.29,2.65,2.54,3.46l-4.41,1.18c-.77.21-1.42.7-1.82,1.4-.4.69-.51,1.5-.3,2.28l.52,1.93c.36,1.34,1.57,2.22,2.9,2.22.25,0,.51-.03.77-.1l5.26-1.41v15.96c0,1.65,1.35,3,3,3h28c1.65,0,3-1.35,3-3v-16c0-1.65-1.35-3-3-3ZM28.692,20.73c1.07-1.85,2.8-3.17,4.86-3.72.35-.1.7-.14,1.04-.14.7,0,1.38.18,2,.53.92.54,1.58,1.4,1.86,2.43.28,1.04.14,2.11-.4,3.04-.53.92-1.39,1.59-2.43,1.86l-7.72,2.07c-.56-2.06-.27-4.22.79-6.07ZM13.342,26.56c-.28-1.03-.14-2.11.4-3.03.53-.93,1.39-1.59,2.43-1.87.69-.18,1.38-.27,2.08-.27,1.39,0,2.75.36,3.99,1.07,1.85,1.07,3.17,2.8,3.72,4.86l-7.72,2.07c-1.04.28-2.11.14-3.04-.4-.92-.53-1.59-1.39-1.86-2.43ZM11.102,37.52c-.54.14-1.09-.18-1.23-.71l-.52-1.93c-.07-.26-.03-.53.1-.76.14-.23.35-.4.61-.47l34.77-9.32c.53-.14,1.09.18,1.23.71l.52,1.93c.14.54-.18,1.09-.71,1.23l-34.77,9.32ZM21.872,55h-2c-.55,0-1-.45-1-1v-16c0-.2.08-.39.19-.55l1.69-.45h1.12v18ZM43.872,55h-20v-18h20v18ZM48.872,54c0,.55-.45,1-1,1h-2v-18h2c.55,0,1,.45,1,1v16Z"/>
  <path d="M55.266,8.419c-.915-.915-2.132-1.419-3.426-1.419-.984,0-1.923.291-2.718.833-.796-.542-1.735-.833-2.719-.833-1.294,0-2.511.504-3.425,1.419-1.889,1.889-1.889,4.962,0,6.851l5.437,5.437c.195.195.451.293.707.293s.512-.098.707-.293l5.437-5.437c1.888-1.889,1.888-4.962,0-6.851ZM53.852,13.856l-4.73,4.73-4.73-4.73c-1.109-1.109-1.109-2.914,0-4.023.537-.537,1.251-.833,2.011-.833s1.474.296,2.012.833c.375.375,1.039.375,1.414,0,1.074-1.074,2.948-1.074,4.023,0,1.108,1.109,1.108,2.914,0,4.023Z"/>
  <path d="M33.872,39.834c-1.885-1.279-4.477-1.082-6.144.585-1.889,1.889-1.889,4.962,0,6.851l5.437,5.437c.195.195.451.293.707.293s.512-.098.707-.293l5.437-5.437c1.889-1.889,1.889-4.962,0-6.851-1.668-1.667-4.26-1.864-6.144-.585ZM38.602,45.856l-4.73,4.73-4.73-4.73c-.537-.538-.833-1.251-.833-2.012s.296-1.474.833-2.011c.538-.537,1.251-.833,2.011-.833s1.474.296,2.012.833c.391.391,1.023.391,1.414,0,1.074-1.074,2.947-1.075,4.023,0,.537.538.833,1.251.833,2.011s-.296,1.474-.833,2.012Z"/>
</svg>