<?xml version="1.0" encoding="UTF-8"?>
<svg id="Outline" xmlns="http://www.w3.org/2000/svg" version="1.1" viewBox="0 0 64 64">
  <!-- Generator: Adobe Illustrator 29.0.0, SVG Export Plug-In . SVG Version: 2.1.0 Build 186)  -->
  <path d="M53.3743,44.97944c.54999,0,1-.45001,1-1v-7.96002c0-1.64996-1.34998-3-3-3H17.3743c-1.65002,0-3,1.35004-3,3v17.96002c0,1.64996,1.34998,3,3,3h34c1.65002,0,3-1.35004,3-3v-2c0-.54999-.45001-1-1-1s-1,.45001-1,1v2c0,.54999-.45001,1-1,1h-12v-19.96002h12c.54999,0,1,.45001,1,1v7.96002c0,.54999.45001,1,1,1ZM29.3743,54.97944h-12c-.54999,0-1-.45001-1-1v-17.96002c0-.54999.45001-1,1-1h12v19.96002ZM37.3743,54.97944h-6v-19.96002h6v19.96002Z"/>
  <path d="M53.79429,24.14942l-.54999-3.96002c-.21997-1.63995-1.73999-2.79999-3.38-2.56995l-8.31,1.14996,1.25-1.01001c1.46002-1.16998,2.28003-2.91998,2.25-4.78998-.02002-1.87-.89001-3.59003-2.38-4.72003-1.46997-1.10999-3.33997-1.48999-5.12-1.04999-1.77997.45001-3.25,1.67004-4.02002,3.34003l-2.58997,5.64001-.89001.12994-4.02002-4.73999c-1.19-1.40997-2.92999-2.17999-4.76996-2.13-1.84003.05005-3.53003.92004-4.64001,2.38-1.13,1.48999-1.51001,3.39001-1.03003,5.20001.48004,1.81,1.74005,3.27002,3.46002,4l1.47998.63-8.31,1.14001c-.79999.10999-1.5.51996-1.98999,1.15997-.47998.64001-.69,1.42999-.57996,2.22003l.54999,3.95996c.09998.80005.51996,1.5,1.14996,1.99005.53003.39996,1.16003.60999,1.81.60999.14001,0,.28003-.01001.42004-.03003l37.63995-5.16998c.80005-.10999,1.5-.52002,1.98004-1.15997.48999-.64001.70001-1.42004.58997-2.22003ZM35.35428,11.36946c.51001-1.12006,1.48999-1.93005,2.69-2.23004,1.19-.29999,2.44-.03998,3.42004.70001,1,.76001,1.57996,1.90997,1.58997,3.15997.02002,1.25-.52997,2.42004-1.5,3.20001l-3.84998,3.09003-.72003.09998-.13-.98999c-.04999-.35999-.16998-.70001-.33997-1l3.37-3.69c.37-.40002.33997-1.03998-.07001-1.40997-.40002-.37-1.03998-.34003-1.40997.07001l-3.37006,3.67999c-.47998-.20001-1.00995-.29004-1.56-.21002l-.17999.02002,2.06-4.48999ZM33.7443,17.81941c.54999-.07001,1.04999.31,1.13.85004l.13.98999-7.91998,1.08997-.14001-.98999c-.03998-.26001.02997-.52997.19-.73999.16998-.21002.39996-.34998.66998-.39001l5.94-.81ZM19.84427,19.17945c-1.14996-.49005-1.98999-1.47003-2.31-2.68005-.31995-1.20996-.06995-2.46997.68005-3.46997.75-.97998,1.87994-1.56,3.10999-1.59003,1.21997-.02997,2.39001.48004,3.19,1.42004l3.19,3.76996-.17999.02002c-.54004.08002-1.03003.29999-1.45001.63l-4.23004-2.64001c-.46997-.28998-1.08997-.14996-1.37994.32001-.29004.47003-.15002,1.08002.31995,1.38l4.23004,2.64001c-.08002.33997-.10004.70001-.04999,1.04999l.12994.98999-.70996.10004-4.54004-1.94ZM51.61429,25.15943c-.15997.21997-.39001.34998-.65997.39001l-37.65002,5.16998c-.26001.02997-.52002-.03998-.73999-.20001-.21002-.15997-.34998-.39001-.38-.65997l-.54999-3.96002c-.07001-.54999.31-1.04999.85999-1.13l37.64001-5.15997c.53998-.08002,1.06.29999,1.13.84998l.54999,3.96002c.02997.26996-.03998.52997-.20001.73999Z"/>
  <circle cx="53.3743" cy="47.97944" r="1"/>
</svg>