<?xml version="1.0" encoding="UTF-8"?>
<svg id="Outlie" xmlns="http://www.w3.org/2000/svg" version="1.1" viewBox="0 0 64 64">
  <!-- Generator: Adobe Illustrator 29.3.1, SVG Export Plug-In . SVG Version: 2.1.0 Build 151)  -->
  <path d="M54,12.99013h-8v-1.52002c0-1.19-.46997-2.32001-1.31-3.16998-1.41998-1.41998-3.73999-1.70001-5.47998-.67999l-2.67004,1.60999c-.54999-.75-1.41998-1.23999-2.41998-1.23999h-4c-1.03998,0-1.96002.52997-2.5,1.33997l-2.83997-1.70996c-1.72003-1.02002-4.05005-.73999-5.47003.67999-.84003.84998-1.31,1.97998-1.31,3.16998v1.52002h-8c-1.65002,0-3,1.34998-3,3v4c0,1.64996,1.34998,3,3,3v31c0,1.64996,1.34998,3,3,3h38c1.65002,0,3-1.35004,3-3v-31c1.65002,0,3-1.35004,3-3v-4c0-1.65002-1.34998-3-3-3ZM37.12,11.22011l3.12-1.88c.96002-.57001,2.23999-.41998,3.03003.38.46997.47003.72998,1.09003.72998,1.75v2.91998c0,1.23004-.79999,2.30005-1.90002,2.54004-.66998.13995-1.31.03998-1.84998-.29004l-3.13-1.88v-3.53998ZM29.12,10.99013c0-.54999.45001-1,1-1h4c.54999,0,1,.45001,1,1v4c0,.54999-.45001,1-1,1h-4c-.54999,0-1-.45001-1-1v-4ZM33.72998,20.99013h-3.45996l1.22998-3h1l1.22998,3ZM20,11.47011c0-.65997.26001-1.27997.72998-1.75.79004-.79999,2.08002-.94,3.02002-.38l3.37,2.02002v3.26001l-3.35999,2.01996c-.39001.23004-.82001.35004-1.28003.35004-1.37,0-2.47998-1.10999-2.47998-2.48004v-3.03998ZM10,20.99013c-.54999,0-1-.45001-1-1v-4c0-.54999.45001-1,1-1h8.04999c.23999,2.23999,2.12,4,4.42999,4,.04004,0,.07001-.01001.11005-.01001l-.89001,2.01001h-11.70001ZM24,50.35012l-1.70001-.53003c-.20001-.06-.39996-.06-.59998,0l-2.60999.81006-.03003-2.74005c0-.19995-.07001-.39996-.17999-.57001l-1.59003-2.22998,2.59003-.87c.19-.07001.35999-.19.47998-.34998l1.64001-2.20001,1.64001,2.20001c.08997.12.21997.21997.35999.28998v6.19ZM24,41.00014l-1.20001-1.61005c-.37-.5-1.22998-.5-1.59998,0l-2.26001,3.03003-3.57001,1.20001c-.29999.09998-.52997.33997-.63.63995-.09998.30005-.04999.63.14001.89001l2.17999,3.07001.03998,3.78003c.01014.95876.94345,1.06715,1.65888.83815.87443-.2799,1.74885-.55979,2.62328-.83969.21296-.06817.43151-.13712.65487-.12683.16037.00739.31572.05545.46901.10313.49672.1545.99345.309,1.49017.4635.00162.8498.00325,1.69959.00487,2.54939,0,.00327-9.92957.00234-11.00106.00234-.54999,0-1-.45001-1-1v-31h8.98999c.02002.14001.07001.26996.14001.39001.19.27997.5.44995.84998.44995l2.02002-.01996v17.19ZM25.12,21.80013h-.13l-1.46997.01996,1.63995-3.68994,2.46002-1.48004c.41003.60999,1.03003,1.04999,1.76001,1.23999l-2.14001,5.22003-1.52002-1.12c-.16998-.12-.37994-.17999-.59998-.19ZM38,54.99013h-12v-30.31s1.09003.78998,1.09003.79999c.50995.37,1.26996.15997,1.51996-.42999l.84003-2.06h5.09998l.84003,2.06c.12.27997.35999.5.65997.58002.29999.07996.60999.02997.85999-.15002l1.09003-.79999v30.31ZM39,21.80013h-.12c-.23999-.02002-.42999.07001-.59998.19l-1.52002,1.12-2.12-5.16998c.77997-.14001,1.45001-.58002,1.89996-1.19l2.30005,1.38,1.63995,3.68994-1.46997-.01996h-.01001ZM40,30.01009l1-1.33997,1.64001,2.20001c.12.15997.28998.27997.47998.34998l2.59003.87-1.59003,2.22998c-.10999.17004-.17999.37006-.17999.57001l-.03003,2.74005-2.60999-.81006c-.20001-.06-.39996-.06-.59998,0l-.70001.22003v-7.03003ZM52,53.99013c0,.54999-.45001,1-1,1h-11v-15.85999l1-.31006,3.59998,1.12006c.58326.18147,1.30005-.25781,1.30005-.94l.03998-3.78003,2.17999-3.07001c.19-.26001.23999-.58997.14001-.89001-.10004-.29999-.33002-.53998-.63-.63995l-3.57001-1.20001-2.26001-3.03003c-.37-.5-1.21997-.5-1.59998,0l-.20001.27002v-2.84998l2.02002.01996c.38995-.01001.65997-.16998.84998-.44995.07001-.12006.12-.25.14001-.39001h8.98999v31ZM55,19.99013c0,.54999-.45001,1-1,1h-11.70001l-.89001-2.01001c.04004,0,.07001.01001.11005.01001.32996,0,.65997-.03003.98999-.10004,1.83002-.39996,3.20001-1.98999,3.44-3.89996h8.04999c.54999,0,1,.45001,1,1v4Z"/>
</svg>