<?xml version="1.0" encoding="UTF-8"?>
<svg id="Outline" xmlns="http://www.w3.org/2000/svg" version="1.1" viewBox="0 0 64 64">
  <!-- Generator: Adobe Illustrator 29.5.1, SVG Export Plug-In . SVG Version: 2.1.0 Build 141)  -->
  <path d="M45,27.95142c-.34003,0-.66998.01001-1,.01996v-7.01996c0-3.48004-4.07001-6.31-9.90002-6.90002-.56-.03998-1.03998.35004-1.09998.90002-.04999.54999.34998,1.03998.90002,1.08997,4.62.47003,8.09998,2.57001,8.09998,4.91003,0,2.70996-4.58002,5-10,5s-10-2.29004-10-5c0-2.34003,3.47998-4.44,8.09998-4.91003.55005-.04999.95001-.53998.90002-1.08997-.06-.54999-.53998-.94-1.09998-.90002-5.83002.59003-9.90002,3.41998-9.90002,6.90002v7.01996c-.33002-.00995-.65997-.01996-1-.01996-6.72998,0-12,3.07996-12,7v8c0,3.91998,5.27002,7,12,7s12-3.08002,12-7v-7.03003c.33002.02002.65997.03003,1,.03003s.66998-.01001,1-.03003v7.03003c0,3.47998,4.07001,6.31,9.90002,6.89996h.09998c.51001,0,.94-.38,1-.89996.04999-.54999-.34998-1.04004-.90002-1.09003-4.62-.46997-8.09998-2.57001-8.09998-4.90997v-4.08002c2.13,1.87,5.78003,3.08002,10,3.08002.84998,0,1.66998-.04999,2.46002-.14001-.91003,1.90002-1.09003,4.02002-.52002,6.03998-.02002,0-.03003,0-.03998.01001-.55005.04999-.95001.54004-.90002,1.09003.06.51996.48999.89996,1,.89996h.09998c5.83002-.58997,9.90002-3.41998,9.90002-6.89996v-8c0-3.92004-5.27002-7-12-7ZM45,33.95142c2.28003,0,4.03003.51001,5.09003,1-1.06.48999-2.81,1-5.09003,1s-4.03003-.51001-5.09003-1c1.06-.48999,2.81-1,5.09003-1ZM22,24.8714c1.23999,1.09003,3.01001,1.95001,5.09003,2.47998.00995.02002.00995.03003.01996.05005l.58002,1.16998c.77997,1.54999.90997,3.31.39001,4.95996-3.54004-.77997-6.08002-2.56-6.08002-4.57996v-4.08002ZM24.09003,34.95142c-1.06.48999-2.81,1-5.09003,1s-4.03003-.51001-5.09003-1c1.06-.48999,2.81-1,5.09003-1s4.03003.51001,5.09003,1ZM19,29.95142c.39001,0,.77002.01001,1.14001.03998.19.76001.57001,1.47003,1.13,2.13-.71002-.09998-1.45001-.16998-2.27002-.16998-4.02002,0-6.76001,1.39001-7.62,2.32001-.34998.38995-.34998.96997,0,1.35999.85999.92999,3.59998,2.32001,7.62,2.32001s6.76001-1.39001,7.62-2.32001c.09998-.10999.16003-.22003.21002-.35004.63995.18005,1.32996.32001,2.03998.43005-.76001,2.35999-4.96997,4.23999-9.87,4.23999-5.41998,0-10-2.29004-10-5s4.58002-5,10-5ZM15.08002,47.53138c-3.54004-.77997-6.08002-2.56-6.08002-4.57996v-4.08002c1.23999,1.09003,3.01001,1.95001,5.09003,2.47998.00995.02002.00995.03003.01996.05005l.58002,1.16998c.77997,1.54999.90997,3.31.39001,4.95996ZM29,42.95142c0,2.70996-4.58002,5-10,5-.65997,0-1.31-.04004-1.94-.10004.57001-2.01996.39001-4.13995-.52002-6.03998.79004.09003,1.61005.14001,2.46002.14001,4.21997,0,7.87-1.21002,10-3.08002v4.08002ZM32,33.95142c-.65997,0-1.31-.04004-1.94-.10004.57001-2.01996.39001-4.13995-.52002-6.03998.79004.09003,1.61005.14001,2.46002.14001,4.21997,0,7.87-1.21002,10-3.08002v4.08002c0,2.70996-4.58002,5-10,5ZM55,42.95142c0,1.97998-2.51001,3.78998-6.08002,4.57996-.51996-1.64996-.38995-3.40997.39001-4.95996l.58002-1.16998c.01001-.02002.01001-.03003.01996-.05005,2.08002-.52997,3.85004-1.38995,5.09003-2.47998v4.08002ZM45,39.95142c-4.85999,0-9.03003-1.84003-9.84003-4.23999.70001-.11005,1.37006-.25,2.01001-.43005.04999.13.11005.24005.21002.35004.85999.92999,3.59998,2.32001,7.62,2.32001s6.76001-1.39001,7.62-2.32001c.34998-.39001.34998-.97003,0-1.35999-.85999-.92999-3.59998-2.32001-7.62-2.32001-.82001,0-1.56.07001-2.27002.16998.56-.65997.94-1.37,1.13-2.13.37-.02997.75-.03998,1.14001-.03998,5.41998,0,10,2.28998,10,5s-4.58002,5-10,5Z"/>
  <path d="M24.37793,21.62915c.86035.93359,3.60059,2.32227,7.62207,2.32227s6.76172-1.38867,7.62207-2.32227c.35254-.38281.35254-.97266,0-1.35547-.86035-.93359-3.60059-2.32227-7.62207-2.32227s-6.76172,1.38867-7.62207,2.32227c-.35254.38281-.35254.97266,0,1.35547ZM32,19.95142c2.28223,0,4.02832.50586,5.08691,1-1.05859.49414-2.80469,1-5.08691,1s-4.02832-.50586-5.08691-1c1.05859-.49414,2.80469-1,5.08691-1Z"/>
</svg>