<?xml version="1.0" encoding="UTF-8"?>
<svg id="Outline" xmlns="http://www.w3.org/2000/svg" version="1.1" viewBox="0 0 64 64">
  <!-- Generator: Adobe Illustrator 29.5.1, SVG Export Plug-In . SVG Version: 2.1.0 Build 141)  -->
  <path d="M41,25.5c.55,0,1-.45,1-1s-.45-1-1-1h-1.01c1.29-1.71,2.01-3.8,2.01-6,0-5.51-4.49-10-10-10s-10,4.49-10,10c0,2.2.72,4.29,2.01,6h-10.01c-1.07,0-2.07.42-2.83,1.17-.75.76-1.17,1.76-1.17,2.83,0,2.21,1.79,4,4,4h8v21c0,1.07.42,2.07,1.17,2.83.76.75,1.76,1.17,2.83,1.17,2.21,0,4-1.79,4-4v-5c0-.53.21-1.03.59-1.41.38-.38.88-.59,1.41-.59,1.1,0,2,.9,2,2v5c0,1.07.42,2.07,1.17,2.83.76.75,1.76,1.17,2.83,1.17,2.21,0,4-1.79,4-4v-11c0-.55-.45-1-1-1s-1,.45-1,1v7.42c-1.26.64-2.74.64-4,0v-1.42c0-2.21-1.79-4-4-4-1.07,0-2.07.42-2.83,1.17-.75.76-1.17,1.76-1.17,2.83v1.42c-1.26.64-2.74.64-4,0v-18.42c0-.55-.45-1-1-1h-5.42c-.64-1.26-.64-2.74,0-4h23.42ZM24,17.5c0-4.41,3.59-8,8-8s8,3.59,8,8c0,2.32-1,4.49-2.74,6h-10.52c-1.74-1.51-2.74-3.68-2.74-6ZM36,51.08c.65.21,1.32.33,2,.33s1.35-.12,2-.33v1.42c0,1.1-.9,2-2,2-.53,0-1.03-.21-1.41-.59-.38-.38-.59-.88-.59-1.41v-1.42ZM24,51.08c.65.21,1.32.33,2,.33s1.35-.12,2-.33v1.42c0,1.1-.9,2-2,2-.53,0-1.03-.21-1.41-.59-.38-.38-.59-.88-.59-1.41v-1.42ZM15.42,29.5h-1.42c-1.1,0-2-.9-2-2,0-.53.21-1.03.59-1.41.38-.38.88-.59,1.41-.59h1.42c-.43,1.3-.43,2.7,0,4Z"/>
  <path d="M50,23.5h-5c-.552,0-1,.448-1,1s.448,1,1,1h1.419c.644,1.259.644,2.741,0,4h-5.419c-.552,0-1,.448-1,1v7c0,.552.448,1,1,1s1-.448,1-1v-6h8c2.206,0,4-1.794,4-4s-1.794-4-4-4ZM50,29.5h-1.421c.43-1.301.43-2.699,0-4h1.421c1.103,0,2,.897,2,2s-.897,2-2,2Z"/>
  <path d="M32,35.5c-1.654,0-3,1.346-3,3s1.346,3,3,3,3-1.346,3-3-1.346-3-3-3ZM32,39.5c-.551,0-1-.449-1-1s.449-1,1-1,1,.449,1,1-.449,1-1,1Z"/>
  <path d="M32,27.5c-1.654,0-3,1.346-3,3s1.346,3,3,3,3-1.346,3-3-1.346-3-3-3ZM32,31.5c-.551,0-1-.449-1-1s.449-1,1-1,1,.449,1,1-.449,1-1,1Z"/>
  <path d="M36.8,18.9c-.331-.44-.957-.532-1.4-.2-2.002,1.501-4.798,1.501-6.8,0-.442-.333-1.068-.241-1.4.2-.332.442-.242,1.069.2,1.4,1.354,1.016,2.977,1.523,4.6,1.523s3.246-.508,4.6-1.523c.442-.331.531-.958.2-1.4Z"/>
  <circle cx="29" cy="14.5" r="1"/>
  <circle cx="35" cy="14.5" r="1"/>
</svg>