<?xml version="1.0" encoding="UTF-8"?>
<svg id="Outline" xmlns="http://www.w3.org/2000/svg" version="1.1" viewBox="0 0 64 64">
  <!-- Generator: Adobe Illustrator 29.5.1, SVG Export Plug-In . SVG Version: 2.1.0 Build 141)  -->
  <path d="M54,45v-17.75c.63.03,1.26-.14,1.79-.53.76-.54,1.21-1.42,1.21-2.35,0-1.25-.8-2.35-1.98-2.75l-22.7-7.57c-.21-.07-.43-.07-.64,0l-22.7,7.57c-1.18.4-1.98,1.5-1.98,2.75,0,1.6,1.3,2.9,2.9,2.9.03,0,.07-.01.1-.01v5.74c0,.55.45,1,1,1s1-.45,1-1v-6.28l2-.66v5.94c0,1.65,1.35,3,3,3s3-1.35,3-3v-3c0-.55.45-1,1-1s1,.45,1,1v1c0,1.65,1.35,3,3,3s3-1.35,3-3v-4c0-.55.45-1,1-1s1,.45,1,1v2c0,1.65,1.35,3,3,3s3-1.35,3-3v-6.61l16,5.33v14.28h-4c-.55,0-1,.45-1,1s.45,1,1,1h4v2.78c-.53-.48-1.23-.78-2-.78s-1.47.3-2,.78c-.53-.48-1.23-.78-2-.78-1.65,0-3,1.35-3,3v3h-2v-8h3c.55,0,1-.45,1-1s-.45-1-1-1h-3.06c-.5-4.49-4.32-8-8.94-8s-8.44,3.51-8.94,8h-11.06v-4c0-.55-.45-1-1-1s-1,.45-1,1v8c-1.65,0-3,1.35-3,3v8c0,.55.45,1,1,1h48c.55,0,1-.45,1-1v-8c0-1.65-1.35-3-3-3ZM35.32,19.05c-.31-.1-.64-.05-.9.14-.27.19-.42.49-.42.81v8c0,.55-.45,1-1,1s-1-.45-1-1v-2c0-1.65-1.35-3-3-3s-3,1.35-3,3v4c0,.55-.45,1-1,1s-1-.45-1-1v-1c0-1.65-1.35-3-3-3s-3,1.35-3,3v3c0,.55-.45,1-1,1s-1-.45-1-1v-7.33c0-.697-.683-1.124-1.32-.95l-4.07,1.36-.44.15c-.46.16-1.17-.18-1.17-.86,0-.39.24-.73.62-.85l22.38-7.47,22.38,7.47c.38.12.62.46.62.85,0,.607-.603,1.042-1.18.85l-.43-.14-18.07-6.03ZM49,48c0-.55.45-1,1-1s1,.45,1,1v3h-2v-3ZM45,48c0-.55.45-1,1-1s1,.45,1,1v3h-2v-3ZM25,42c0-3.86,3.14-7,7-7s7,3.14,7,7v9h-2v-9c0-2.76-2.24-5-5-5s-5,2.24-5,5v9h-2v-9ZM35,42v9h-6v-9c0-1.65,1.35-3,3-3s3,1.35,3,3ZM12,43h11v8h-2v-3c0-1.65-1.35-3-3-3-.77,0-1.47.3-2,.78-.53-.48-1.23-.78-2-.78s-1.47.3-2,.78v-2.78ZM19,48v3h-2v-3c0-.55.45-1,1-1s1,.45,1,1ZM15,48v3h-2v-3c0-.55.45-1,1-1s1,.45,1,1ZM9,48c0-.55.45-1,1-1s1,.45,1,1v3h-2v-3ZM55,55H9v-2h46v2ZM55,51h-2v-3c0-.55.45-1,1-1s1,.45,1,1v3Z"/>
  <circle cx="15" cy="16" r="1"/>
  <circle cx="19" cy="14" r="1"/>
  <circle cx="16" cy="11" r="1"/>
  <circle cx="20" cy="8" r="1"/>
  <circle cx="23" cy="11" r="1"/>
  <circle cx="27" cy="13" r="1"/>
  <circle cx="28" cy="9" r="1"/>
  <circle cx="32" cy="11" r="1"/>
  <circle cx="49" cy="16" r="1"/>
  <circle cx="45" cy="14" r="1"/>
  <circle cx="48" cy="11" r="1"/>
  <circle cx="44" cy="8" r="1"/>
  <circle cx="41" cy="11" r="1"/>
  <circle cx="37" cy="13" r="1"/>
  <circle cx="36" cy="9" r="1"/>
</svg>