<?xml version="1.0" encoding="UTF-8"?>
<svg id="Outline" xmlns="http://www.w3.org/2000/svg" version="1.1" viewBox="0 0 64 64">
  <!-- Generator: Adobe Illustrator 29.0.0, SVG Export Plug-In . SVG Version: 2.1.0 Build 186)  -->
  <path d="M54,42c.54999,0,1-.45001,1-1v-7.06c0-4.07001-1.78998-7.90002-4.91998-10.51001-.69-.57001-1.08002-1.41003-1.08002-2.29999v-13.13c0-.54999-.45001-1-1-1h-8c-.54999,0-1,.45001-1,1v13.13c0,.88995-.39001,1.72998-1.08002,2.29999-1.51996,1.27002-2.76996,2.89996-3.63,4.71002-.84998,1.82996-1.28998,3.77997-1.28998,5.79999v22.06c0,.54999.45001,1,1,1h20c.54999,0,1-.45001,1-1v-7c0-.54999-.45001-1-1-1s-1,.45001-1,1v6h-18v-17.01001c.47998.37,1.03003.65997,1.65002.84998l7.06,2.12c.09998.03003.19.04004.28998.04004s.19-.01001.28998-.04004l7.06-2.12c.62-.19,1.17004-.47998,1.65002-.84998v3.01001c0,.54999.45001,1,1,1ZM41,9h6v2h-6v-2ZM50.78003,36.91998l-6.78003,2.03998-6.78003-2.03998c-1.32996-.40002-2.21997-1.59998-2.21997-2.97998,0-1.72003.37-3.39001,1.10999-4.95001.72003-1.54999,1.79004-2.94,3.09003-4.02002,1.14001-.95996,1.79999-2.35999,1.79999-3.83997v-8.13h6v8.13c0,1.47998.65997,2.88,1.79999,3.83997,2.66998,2.22003,4.20001,5.48999,4.20001,8.97003,0,1.38-.89001,2.57996-2.21997,2.97998Z"/>
  <path d="M37,48c0,2.80371,3.0752,5,7,5s7-2.19629,7-5-3.0752-5-7-5-7,2.19629-7,5ZM49,48c0,1.62598-2.29004,3-5,3s-5-1.37402-5-3,2.29004-3,5-3,5,1.37402,5,3Z"/>
  <path d="M26.08002,23.42999c-.69-.57001-1.08002-1.41003-1.08002-2.29999v-13.13c0-.54999-.45001-1-1-1h-8c-.54999,0-1,.45001-1,1v13.13c0,.88995-.39001,1.72998-1.08002,2.29999-3.13,2.60999-4.91998,6.44-4.91998,10.51001v22.06c0,.54999.45001,1,1,1h20c.54999,0,1-.45001,1-1v-22.06c0-4.07001-1.78998-7.90002-4.91998-10.51001ZM17,9h6v2h-6v-2ZM29,55H11v-17.01001c.47998.37,1.03003.65997,1.65002.84998l7.06,2.12c.09998.03003.19.04004.28998.04004s.19-.01001.28998-.04004l7.06-2.12c.62-.19,1.17004-.47998,1.65002-.84998v17.01001ZM26.78003,36.91998l-6.78003,2.03998-6.78003-2.03998c-1.32996-.40002-2.21997-1.59998-2.21997-2.97998,0-3.48004,1.53003-6.75,4.20001-8.97003,1.14001-.95001,1.79999-2.35999,1.79999-3.83997v-8.13h6v8.13c0,1.47998.65997,2.88995,1.79999,3.83997,2.66998,2.22003,4.20001,5.48999,4.20001,8.97003,0,1.38-.89001,2.57996-2.21997,2.97998Z"/>
  <path d="M20,43c-3.9248,0-7,2.19629-7,5s3.0752,5,7,5,7-2.19629,7-5-3.0752-5-7-5ZM20,51c-2.70996,0-5-1.37402-5-3s2.29004-3,5-3,5,1.37402,5,3-2.29004,3-5,3Z"/>
  <circle cx="54" cy="45" r="1"/>
</svg>