<?xml version="1.0" encoding="UTF-8"?>
<svg id="Outline" xmlns="http://www.w3.org/2000/svg" version="1.1" viewBox="0 0 48 48">
  <!-- Generator: Adobe Illustrator 29.0.0, SVG Export Plug-In . SVG Version: 2.1.0 Build 186)  -->
  <path d="M22.76476,33c-.54999,0-1,.45001-1,1v6c0,.54999-.45001,1-1,1h-12c-.54999,0-1-.45001-1-1v-10.09003c0-2.28998.81-4.51001,2.27002-6.26996,1.76001-2.11005,2.72998-4.79004,2.72998-7.55005v-3.08997h4v3.08997c0,2.76001.96997,5.44,2.72998,7.55005,1.46002,1.75995,2.27002,3.97998,2.27002,6.26996v.09003c0,.54999.45001.95001,1,.95001s1-.49005,1-1.04004c0-2.76001-.96997-5.44-2.72998-7.54999-1.46002-1.76001-2.27002-3.97998-2.27002-6.27002v-3.08997c.54999,0,1-.45001,1-1v-6c0-.54999-.45001-1-1-1h-8c-.54999,0-1,.45001-1,1v6c0,.54999.45001,1,1,1v3.08997c0,2.29004-.81,4.51001-2.27002,6.27002-1.76001,2.10999-2.72998,4.78998-2.72998,7.54999v10.09003c0,1.64996,1.34998,3,3,3h12c1.65002,0,3-1.35004,3-3v-6c0-.54999-.45001-1-1-1ZM11.76476,7h6v4h-6v-4Z"/>
  <path d="M10.76476,35c-.55225,0-1,.44775-1,1v2c0,.55225.44775,1,1,1h8c.55225,0,1-.44775,1-1v-8c0-.55225-.44775-1-1-1h-8c-.55225,0-1,.44775-1,1v2c0,.55225.44775,1,1,1s1-.44775,1-1v-1h6v6h-6v-1c0-.55225-.44775-1-1-1Z"/>
  <path d="M41.14416,38.95459l-4.37939-1.79541v-8.71704c1.35162-.51202,2.56793-1.35919,3.51709-2.50269,1.61426-1.94482,2.27295-4.48535,1.80713-6.96924l-1.34131-7.1543c-.08887-.47314-.50146-.81592-.98291-.81592h-12c-.48145,0-.89404.34277-.98291.81592l-1.34131,7.1543c-.46582,2.48389.19287,5.02441,1.80713,6.96924.94916,1.14349,2.16547,1.99066,3.51709,2.50269v8.71704l-4.37939,1.79541c-.37549.15381-.62061.51953-.62061.92529v2.12012c0,.55225.44775,1,1,1h14c.55225,0,1-.44775,1-1v-2.12012c0-.40576-.24512-.77148-.62061-.92529ZM28.78673,24.66211c-1.23291-1.48535-1.73633-3.42578-1.38037-5.32373l1.18848-6.33838h10.33984l1.18848,6.33838c.35596,1.89795-.14746,3.83838-1.38037,5.32373-1.23291,1.48584-3.04736,2.33789-4.97803,2.33789s-3.74512-.85205-4.97803-2.33789ZM39.76476,41h-12v-.44922l4.37939-1.79541c.37549-.15381.62061-.51953.62061-.92529v-8.89191c.3299.03894.66327.06183,1,.06183s.6701-.02289,1-.06183v8.89191c0,.40576.24512.77148.62061.92529l4.37939,1.79541v.44922Z"/>
</svg>