<?xml version="1.0" encoding="UTF-8"?>
<svg id="Outline" xmlns="http://www.w3.org/2000/svg" version="1.1" viewBox="0 0 64 64">
  <!-- Generator: Adobe Illustrator 29.5.1, SVG Export Plug-In . SVG Version: 2.1.0 Build 141)  -->
  <path d="M56,18h-4c0-.55-.45-1-1-1h-1.18l-1.84-9.2c-.09-.46-.5-.8-.98-.8h-30c-.48,0-.89.34-.98.8l-1.84,9.2h-1.18c-.55,0-1,.45-1,1h-4c-.55,0-1,.45-1,1v4c0,.55.45,1,1,1h4c0,.55.45,1,1,1h1.1l2.71,25.32c.17,1.53,1.45,2.68,2.99,2.68h1.2v3c0,.55.45,1,1,1h6c.55,0,1-.45,1-1v-3h6v3c0,.55.45,1,1,1h6c.55,0,1-.45,1-1v-3h1.2c1.54,0,2.82-1.15,2.99-2.68l2.71-25.32h1.1c.55,0,1-.45,1-1h4c.55,0,1-.45,1-1v-4c0-.55-.45-1-1-1ZM12,22h-3v-2h3v2ZM21,9h22v4h-22v-4ZM27,55h-4v-2h4v2ZM41,55h-4v-2h4v2ZM45.2,50.11c-.06.51-.49.89-1,.89h-24.4c-.51,0-.94-.38-1-.89l-2.69-25.11h31.78l-2.69,25.11ZM50,23H14v-4h5c.55,0,1-.45,1-1s-.45-1-1-1h-2.78l1.6-8h1.18v5c0,.55.45,1,1,1h24c.55,0,1-.45,1-1v-5h1.18l1.6,8h-20.78c-.55,0-1,.45-1,1s.45,1,1,1h23v4ZM55,22h-3v-2h3v2Z"/>
  <path d="M37.05,36.17c-.66-.44-1.05-1.18-1.05-1.97v-1.2h1c.55,0,1-.45,1-1v-4c0-.55-.45-1-1-1h-10c-.55,0-1,.45-1,1v4c0,.55.45,1,1,1h1v1.2c0,.79-.39,1.53-1.05,1.97-1.22.81-1.95,2.17-1.95,3.63v8.2c0,.4.24.77.62.92.37.16.8.07,1.09-.21l2.29-2.3,2.29,2.3c.39.39,1.03.39,1.42,0l2.29-2.3,2.29,2.3c.19.19.45.29.71.29.543,0,1-.457,1-1v-8.2c0-1.46-.73-2.82-1.95-3.63ZM28,29h8v2h-8v-2ZM37,45.59l-1.29-1.3c-.39-.39-1.03-.39-1.42,0l-2.29,2.3-2.29-2.3c-.2-.19-.45-.29-.71-.29s-.51.1-.71.29l-1.29,1.3v-5.79c0-.79.39-1.53,1.05-1.97,1.22-.81,1.95-2.17,1.95-3.63v-1.2h4v1.2c0,1.46.73,2.82,1.95,3.63.66.44,1.05,1.18,1.05,1.97v5.79Z"/>
  <circle cx="23" cy="18" r="1"/>
</svg>