<?xml version="1.0" encoding="UTF-8"?>
<svg id="Outline" xmlns="http://www.w3.org/2000/svg" version="1.1" viewBox="0 0 64 64">
  <!-- Generator: Adobe Illustrator 29.5.1, SVG Export Plug-In . SVG Version: 2.1.0 Build 141)  -->
  <path d="M56.308,19.21c.41-.13.69-.52.69-.95v-4.03c-.01-.44-.32-.82-.75-.94l-24-6.26c-.16-.04-.34-.04-.5,0L7.748,13.29c-.43.12-.74.5-.75.94v4.03c0,.43.28.82.69.95l9.31,3v10.79c0,.31.15.61.4.8s.57.25.88.16c.42-.12.85-.22,1.28-.32-1.66,2.46-2.56,5.34-2.56,8.36,0,8.27,6.73,15,15,15s15-6.73,15-15c0-3.02-.9-5.9-2.55-8.36.42.1.85.2,1.27.32.1.03.19.04.28.04.523,0,1-.444,1-1v-10.79l5-1.61v8.8c-1.72.45-3,2-3,3.86,0,.93.33,1.78.87,2.46l-.86,5.12c-.08.48.21.95.67,1.11,1.07.36,2.2.53,3.32.53s2.25-.17,3.32-.53c.46-.16.75-.63.67-1.11l-.86-5.12c.54-.68.87-1.53.87-2.46,0-1.86-1.28-3.41-3-3.86v-9.44l2.31-.75ZM20.648,48.31c-1.05-1.87-1.65-4.02-1.65-6.31,0-2.24.58-4.4,1.65-6.31,1.47.44,3.08.79,4.78,1.04-.28,1.67-.43,3.44-.43,5.27,0,1.88.15,3.64.42,5.27-1.7.25-3.3.6-4.77,1.04ZM21.808,33.95c.21-.27.44-.53.68-.78,1.27-.13,2.56-.17,3.84-.1-.18.54-.35,1.11-.49,1.7-1.42-.2-2.78-.48-4.03-.82ZM21.808,50.05c1.25-.34,2.59-.61,4-.82.51,2.06,1.23,3.79,2.11,5.11-2.43-.81-4.55-2.32-6.11-4.29ZM31.998,55c-1.55,0-3.2-2.29-4.17-6.01,1.36-.13,2.76-.2,4.17-.2s2.8.07,4.15.2c-.93,3.57-2.54,6.01-4.15,6.01ZM36.068,54.34c.87-1.3,1.59-3.03,2.1-5.11,1.41.2,2.77.48,4.02.82-1.57,1.97-3.68,3.48-6.12,4.29ZM44.998,42c0,2.29-.6,4.44-1.65,6.31-1.47-.44-3.08-.79-4.78-1.04.06-.38.12-.76.17-1.15.07-.55-.32-1.05-.86-1.12-.55-.07-1.05.32-1.12.86-.05.4-.11.78-.18,1.16-1.49-.15-3.03-.23-4.58-.23s-3.09.08-4.59.23c-.26-1.52-.41-3.2-.41-5.02,0-1.75.14-3.45.41-5.02,1.5.15,3.04.23,4.59.23s3.09-.08,4.58-.23c.06.38.13.76.18,1.15.06.51.49.88.99.88.04,0,.08,0,.13-.01.54-.07.93-.57.86-1.11-.05-.4-.11-.77-.18-1.16,1.71-.25,3.32-.6,4.79-1.04,1.07,1.91,1.65,4.07,1.65,6.31ZM27.838,35.01c.16-.62.34-1.2.54-1.75,1.14.15,2.25.39,3.34.7.18.05.38.05.56,0,1.09-.31,2.21-.55,3.33-.71.2.56.39,1.14.55,1.76-1.36.13-2.75.2-4.16.2s-2.8-.07-4.16-.2ZM37.668,33.06c1.28-.07,2.56-.03,3.84.1.24.26.47.52.68.79-1.25.34-2.6.62-4.03.82-.14-.59-.31-1.16-.49-1.71ZM44.998,31.71c-2.87-.67-5.82-.84-8.73-.54h-.01c-1.43.15-2.86.41-4.26.79-1.37-.38-2.79-.63-4.21-.78-.03,0-.05-.01-.07-.01-2.92-.29-5.89-.12-8.72.54v-8.85l12.69,4.09c.1.03.21.05.31.05s.21-.02.31-.05l12.69-4.09v8.85ZM31.998,24.95l-23-7.42v-1.9l22.69,7.32c.1.03.21.05.31.05s.21-.02.31-.05l18.04-5.82c.61.31,1.1.83,1.38,1.46l-19.73,6.36ZM50.388,15.02c-.36-.11-.74-.19-1.14-.21l-14.39-.67c-.37-1.23-1.51-2.14-2.86-2.14-1.65,0-3,1.35-3,3s1.35,3,3,3c1.25,0,2.32-.77,2.77-1.86l10.62.49-13.39,4.32-20.43-6.59,20.43-5.33,20.43,5.33-2.04.66ZM32.998,15c0,.55-.45,1-1,1s-1-.45-1-1,.45-1,1-1,1,.45,1,1ZM51.128,40.28l.55-3.26c.41.15.85.24,1.32.24s.91-.09,1.32-.24l.55,3.26c-1.23.27-2.51.27-3.74,0ZM54.998,33.26c0,1.1-.9,2-2,2s-2-.9-2-2,.9-2,2-2,2,.9,2,2ZM53.648,17.97c-.23-.59-.57-1.12-1-1.58l2.35-.76v1.9l-1.35.44Z"/>
  <circle cx="37.998" cy="42" r="1"/>
</svg>