<?xml version="1.0" encoding="UTF-8"?>
<svg id="Outline" xmlns="http://www.w3.org/2000/svg" version="1.1" viewBox="0 0 64 64">
  <!-- Generator: Adobe Illustrator 29.5.1, SVG Export Plug-In . SVG Version: 2.1.0 Build 141)  -->
  <path d="M54.42,49.76l-2.68-.38,3.63-1.45c.31-.13.54-.4.61-.73.07-.33-.04-.67-.27-.91-1.1-1.1-1.71-2.56-1.71-4.12v-.96c.1-.08.2-.17.29-.27.57-.67.81-1.56.67-2.44-.11-.68-.48-1.28-.99-1.73.02-.25.03-.51.03-.77,0-4.28-3-7.86-7.01-8.77,0-.08.01-.15.01-.23,0-11.03-8.97-20-20-20S7,15.97,7,27s8.97,20,20,20c2.8,0,5.56-.59,8.09-1.71-.23.36-.49.7-.8,1-.23.24-.34.58-.27.91.07.33.3.6.61.73l3.63,1.45-2.68.38c-1.47.21-2.58,1.49-2.58,2.97v3.27c0,.55.45,1,1,1s1-.45,1-1v-3.27c0-.49.37-.92.86-.98l3.89-.56c1.25-.18,2.26-1.13,2.52-2.36l.26-1.28c.77.29,1.6.45,2.47.45s1.7-.16,2.47-.45l.26,1.28c.26,1.23,1.27,2.18,2.52,2.36l3.89.56c.49.06.86.49.86.98v3.27c0,.55.45,1,1,1s1-.45,1-1v-3.27c0-1.48-1.11-2.76-2.58-2.97ZM52,36v.01c-.04,0-.07-.01-.11-.01h-3.28c-1.93,0-3.71-.96-4.78-2.55-.18-.28-.5-.45-.83-.45s-.65.17-.83.45l-.4.59c-.82,1.23-2.19,1.96-3.66,1.96-.04,0-.07.01-.11.01v-.01c0-3.86,3.14-7,7-7s7,3.14,7,7ZM26.25,10.87l1.11-1.85c8.39.16,15.38,6.09,17.18,13.98h-1.15c-.41,0-.8.09-1.19.28l-.9.45c-.2.09-.41.09-.59,0-.28-.14-.41-.46-.31-.76l.23-.69c.32-.94.07-2-.63-2.7l-.53-.53c-.74-.74-1.86-.97-2.84-.58l-3.56,1.43c-.1.04-.22.05-.36.02l-2.83-.56c-.17-.04-.32-.14-.41-.29-.06-.09-.14-.26-.08-.49l.3-1.21c.28-1.09-.17-2.23-1.09-2.84l-1.59-1.06c-.14-.09-.21-.23-.24-.31l-.58-1.77c-.06-.17-.04-.36.06-.52ZM27,45c-9.93,0-18-8.08-18-18,0-5.61,2.58-10.62,6.61-13.93l1.93.55c.26.08.46.34.46.62v3.08c0,.71.27,1.37.77,1.87l1.2,1.2c.35.34.77.58,1.23.69l2.31.58c.29.07.49.33.49.62v2.04c0,.17-.06.33-.19.45l-1.28,1.28c-.06.06-.14.12-.21.15l-2.71,1.08c-.77.31-1.33.95-1.55,1.74-.22.8-.07,1.64.43,2.3l1.01,1.35c.16.22.17.52.02.75l-.32.47c-.42.63-.55,1.41-.36,2.15.2.73.7,1.35,1.38,1.68l2,1.01c.37.18.76.27,1.17.27h2.93c.17,0,.33.06.45.19l.36.36c.25.25.25.65,0,.9-.5.5-.77,1.17-.77,1.88,0,.43.1.83.28,1.18l.74,1.48c-.13,0-.25.01-.38.01ZM35.71,40.94c.09.1.19.19.29.27v.96c0,.14-.01.28-.02.42-1.99,1.15-4.18,1.91-6.45,2.23l-1.11-2.22c-.04-.07-.06-.16-.06-.27,0-.13.03-.31.19-.46,1.03-1.03,1.03-2.71,0-3.74l-.36-.36c-.5-.5-1.16-.77-1.87-.77h-2.93c-.11,0-.21-.02-.29-.06l-1.99-1.01c-.23-.11-.31-.3-.33-.41-.03-.1-.06-.31.08-.52l.32-.47c.63-.93.59-2.16-.08-3.06l-1.01-1.35c-.17-.22-.14-.45-.11-.56.06-.2.2-.36.38-.43l2.74-1.09c.33-.15.61-.34.85-.57l1.28-1.28c.5-.5.77-1.16.77-1.87v-2.04c0-1.22-.83-2.27-2.01-2.56l-2.31-.58c-.11-.03-.21-.08-.29-.17l-1.2-1.2c-.13-.12-.19-.28-.19-.45v-3.08c0-1.17-.79-2.22-1.92-2.54l-.35-.1c2.16-1.31,4.61-2.18,7.23-2.48l-.42.71c-.41.65-.5,1.45-.25,2.19l.59,1.78c.2.57.56,1.04,1.03,1.34l1.58,1.06c.22.14.33.41.26.68l-.3,1.21c-.18.7-.06,1.42.32,2.04.38.61,1,1.04,1.72,1.19l2.81.56c.51.11,1.05.06,1.52-.13l3.55-1.42c.24-.09.5-.04.68.14l.53.53c.17.16.23.42.15.64l-.23.69c-.41,1.25.16,2.62,1.34,3.2.36.18.77.27,1.16.27s.8-.09,1.18-.28l.9-.45c.1-.05.2-.07.31-.07h1.49c.08.66.12,1.32.12,2-4.96,0-9,4.04-9,9,0,.26.01.52.03.77-.51.45-.88,1.05-.99,1.73-.14.88.1,1.77.67,2.44ZM40.38,48.08s0-.01-.01-.01l-3.73-1.49c.65-.94,1.07-2.01,1.25-3.13v-.01c.07-.42.11-.84.11-1.27v-.17h.07c.26,1.83,1.24,3.43,2.64,4.52l-.33,1.56ZM45,46c-2.76,0-5-2.24-5-5,0-.55-.45-1-1-1h-1c-.603,0-1.071-.56-.99-1.17.08-.47.56-.83,1.1-.83,1.93,0,3.74-.87,4.95-2.34,1.44,1.48,3.43,2.34,5.55,2.34h3.28c.814,0,1.479.95.87,1.65-.19.22-.47.35-.76.35h-1c-.55,0-1,.45-1,1,0,2.76-2.24,5-5,5ZM49.63,48.07c-.01,0-.01.01-.01.01l-.33-1.56c1.4-1.09,2.38-2.69,2.64-4.52h.07v.17c0,1.6.47,3.12,1.36,4.41l-3.73,1.49Z"/>
</svg>