<?xml version="1.0" encoding="UTF-8"?>
<svg id="Outline" xmlns="http://www.w3.org/2000/svg" version="1.1" viewBox="0 0 64 64">
  <!-- Generator: Adobe Illustrator 29.5.1, SVG Export Plug-In . SVG Version: 2.1.0 Build 141)  -->
  <path d="M54,46h-3v-3.521c3.569-1.259,6-4.641,6-8.479,0-4.963-4.037-9-9-9-.378,0-.749.031-1.115.077-.405-4.135-2.085-8.081-4.823-11.215-.363-.415-.996-.46-1.411-.095-.416.363-.458.995-.095,1.411,2.565,2.935,4.055,6.511,4.365,10.376-1.412.517-2.658,1.374-3.639,2.478l-1.693-.85c-.032-.019-.065-.035-.138-.086l-1.234-.815c-.45-.303-.576-.936-.27-1.393l.537-.822c.338-.491.516-1.07.516-1.676v-1.75c0-1.421-1.015-2.657-2.415-2.94l-2.251-.449c-.355-.071-.639-.321-.756-.666l-.529-1.588c-.033-.101-.049-.204-.049-.316v-3.01c0-.222.067-.426.2-.601l.561-.749c1.417.576,2.767,1.33,4.018,2.269.441.33,1.068.242,1.4-.199.331-.441.242-1.068-.199-1.4-3.478-2.61-7.62-3.99-11.98-3.99C15.972,7,7,15.972,7,27c0,4.661,1.638,9.196,4.611,12.77.197.237.482.36.77.36.225,0,.452-.076.639-.231.425-.354.482-.983.129-1.408-2.675-3.215-4.148-7.296-4.148-11.49,0-8.277,5.623-15.248,13.244-17.342l1.249,1.249c.253.253.353.608.269.945l-.283,1.109c-.371,1.515.492,3.086,1.992,3.585l.169.051c.328.11.574.379.66.717l.461,1.828c.085.342-.015.697-.268.95l-.61.61c-.191.191-.444.297-.713.297h-4.1c-1.008,0-1.94.5-2.491,1.333l-1.234,1.844c-.2.317-.332.629-.395.918l-.602,2.378c-.284,1.165.148,2.39,1.112,3.128l2.135,1.596c.253.193.404.493.404.804v.93c0,.335-.165.644-.444.828l-.452.302c-.662.443-1.112,1.121-1.27,1.908-.156.788.002,1.587.441,2.243l.353.534c.172.258.214.572.113.869l-.665,2.001c-.768-.439-1.509-.926-2.205-1.478-.432-.345-1.062-.271-1.404.162-.344.433-.271,1.062.162,1.404,3.495,2.771,7.889,4.297,12.371,4.297,5.667,0,10.986-2.363,14.769-6.52.908.872,1.999,1.564,3.231,1.998v3.521h-3c-.553,0-1,.447-1,1v4c0,.553.447,1,1,1h3v4c0,.553.447,1,1,1h4c.553,0,1-.447,1-1v-4h3c.553,0,1-.447,1-1v-4c0-.553-.447-1-1-1ZM27,45c-2.458,0-4.884-.516-7.117-1.478l.755-2.272c.299-.884.173-1.837-.343-2.61l-.354-.536c-.3-.448-.174-1.081.274-1.382l.447-.298c.838-.554,1.338-1.486,1.338-2.494v-.93c0-.932-.446-1.827-1.201-2.4l-2.131-1.594c-.325-.249-.473-.664-.378-1.051l.607-2.403c.019-.089.065-.192.124-.285l1.223-1.825c.183-.276.491-.441.826-.441h4.1c.803,0,1.558-.313,2.127-.883l.61-.61c.743-.743,1.047-1.835.793-2.851l-.461-1.832c-.254-.999-.986-1.793-1.99-2.131l-.173-.052c-.492-.164-.78-.692-.657-1.194l.281-1.105c.254-1.014-.05-2.105-.793-2.849l-.313-.313c.789-.106,1.588-.18,2.406-.18,1.634,0,3.23.228,4.767.648l-.16.213c-.392.51-.607,1.152-.607,1.809v3.01c0,.324.051.642.151.946l.531,1.596c.346,1.02,1.213,1.782,2.262,1.989l2.247.449c.469.095.809.507.809.979v1.75c0,.196-.059.39-.177.562l-.543.831c-.444.662-.603,1.461-.446,2.249.157.787.607,1.465,1.275,1.912l1.2.792c.097.071.193.128.352.217l1.447.727c-.705,1.283-1.108,2.755-1.108,4.32,0,1.799.539,3.494,1.474,4.921-3.415,3.87-8.281,6.079-13.474,6.079ZM53,50h-3c-.553,0-1,.447-1,1v4h-2v-4c0-.553-.447-1-1-1h-3v-2h3c.553,0,1-.447,1-1v-5.262c0-.456-.309-.854-.75-.969-3.091-.797-5.25-3.581-5.25-6.77,0-3.859,3.141-7,7-7s7,3.141,7,7c0,3.188-2.159,5.973-5.25,6.77-.441.114-.75.513-.75.969v5.262c0,.553.447,1,1,1h3v2Z"/>
  <path d="M53,34c0-2.757-2.243-5-5-5s-5,2.243-5,5,2.243,5,5,5,5-2.243,5-5ZM48,37c-1.654,0-3-1.346-3-3s1.346-3,3-3,3,1.346,3,3-1.346,3-3,3Z"/>
</svg>