<?xml version="1.0" encoding="UTF-8"?>
<svg id="Outline" xmlns="http://www.w3.org/2000/svg" version="1.1" viewBox="0 0 64 64">
  <!-- Generator: Adobe Illustrator 29.5.1, SVG Export Plug-In . SVG Version: 2.1.0 Build 141)  -->
  <path d="M54.93,15.87c-.15-.37-.5-.62-.9-.63l-1.81-.05.37-.36c.39-.39.39-1.03,0-1.42-.39-.39-1.03-.39-1.42,0l-.36.37-.05-1.81c-.01-.4-.26-.75-.63-.9-.37-.15-.8-.06-1.08.22l-4,4c-.19.2-.3.46-.29.74l.11,3.69-2.47,2.46c-.84-.76-1.76-1.46-2.74-2.08-.63-.4-.9-1.14-.66-1.8v-.01c.19-.52-.08-1.09-.6-1.28l-3.75-1.37c-.25-.09-.53-.08-.77.04-.24.11-.43.31-.52.56-.21.59-.77.95-1.36.96v-4.2h3c.55,0,1-.45,1-1v-4c0-.55-.45-1-1-1h-12c-.55,0-1,.45-1,1v4c0,.55.45,1,1,1h3v4.2c-.59-.01-1.15-.37-1.36-.96-.09-.25-.28-.45-.52-.56-.24-.12-.52-.13-.77-.04l-3.75,1.37c-.25.09-.45.28-.57.52-.11.24-.12.52-.03.77.24.66-.03,1.4-.66,1.8-6.53,4.12-10.06,11.46-9.22,19.16,1.02,9.19,8.41,16.59,17.6,17.61.77.09,1.55.13,2.31.13,4.93,0,9.59-1.77,13.3-5.09,4.24-3.8,6.67-9.23,6.67-14.91,0-5.05-1.88-9.78-5.18-13.41l2.46-2.46,3.69.11h.03c.26,0,.52-.1.71-.29l4-4c.28-.28.37-.71.22-1.08ZM24,11v-2h10v2h-10ZM30,13v4.04c-.67-.04-1.33-.04-2,0v-4.04h2ZM47,37c0,5.11-2.19,10-6,13.42-3.86,3.46-8.86,5.05-14.06,4.46-8.26-.91-14.92-7.57-15.83-15.84-.76-6.93,2.42-13.54,8.3-17.25,1.13-.72,1.75-1.94,1.67-3.19l2.16-.79c.74,1.01,1.99,1.57,3.26,1.38,1.68-.25,3.32-.25,5,0,1.27.19,2.52-.37,3.26-1.38l2.16.79c-.08,1.25.54,2.47,1.67,3.19.86.54,1.65,1.15,2.39,1.81l-2.83,2.83c-2.45-2.13-5.65-3.43-9.15-3.43-7.72,0-14,6.28-14,14s6.28,14,14,14,14-6.28,14-14c0-3.5-1.3-6.7-3.43-9.15l2.83-2.84c2.93,3.25,4.6,7.48,4.6,11.99ZM29.707,36.304c.179.181.294.428.294.696,0,.55-.45,1-1,1s-1-.45-1-1,.45-1,1-1c.268,0,.522.117.706.304ZM29,34c-1.65,0-3,1.35-3,3s1.35,3,3,3,3-1.35,3-3c0-.46-.11-.89-.3-1.29l2.19-2.18c.69.98,1.11,2.18,1.11,3.47,0,3.31-2.69,6-6,6s-6-2.69-6-6,2.69-6,6-6c1.29,0,2.49.42,3.47,1.11l-2.18,2.19c-.4-.19-.83-.3-1.29-.3ZM33.9,30.69c-1.36-1.06-3.05-1.69-4.9-1.69-4.41,0-8,3.59-8,8s3.59,8,8,8,8-3.59,8-8c0-1.85-.63-3.54-1.69-4.9l2.84-2.84c1.78,2.09,2.85,4.79,2.85,7.74,0,6.62-5.38,12-12,12s-12-5.38-12-12,5.38-12,12-12c2.95,0,5.65,1.07,7.74,2.85l-2.84,2.84ZM49.6,19.23l-2.75-.08-.08-2.75,2.06-2.05.05,1.8c0,.06.03.12.04.17.01.07.01.13.04.19.1.24.29.43.53.53.06.02.11.03.17.04.06.01.12.04.19.04l1.8.05-2.05,2.06Z"/>
</svg>