<?xml version="1.0" encoding="UTF-8"?>
<svg id="Outline" xmlns="http://www.w3.org/2000/svg" version="1.1" viewBox="0 0 64 64">
  <!-- Generator: Adobe Illustrator 29.3.1, SVG Export Plug-In . SVG Version: 2.1.0 Build 151)  -->
  <path d="M34,40c-1.1748,0-1.90869-.76074-2.20361-1.47217-.29443-.71191-.31348-1.76807.51709-2.59912.39062-.39062.39062-1.02344,0-1.41406l-2.82812-2.82812c-.39062-.39062-1.02344-.39062-1.41406,0-.83008.83057-1.88721.81152-2.59912.51709-.71143-.29492-1.47217-1.02881-1.47217-2.20361,0-.55225-.44775-1-1-1h-4c-.55225,0-1,.44775-1,1,0,1.1748-.76074,1.90869-1.47217,2.20361-.71387.29443-1.76855.31348-2.59912-.51709-.39062-.39062-1.02344-.39062-1.41406,0l-2.82812,2.82812c-.39062.39062-.39062,1.02344,0,1.41406.83057.83105.81152,1.88721.51709,2.59912-.29492.71143-1.02881,1.47217-2.20361,1.47217-.55225,0-1,.44775-1,1v4c0,.55225.44775,1,1,1,1.1748,0,1.90869.76074,2.20361,1.47217.29443.71191.31348,1.76807-.51709,2.59912-.39062.39062-.39062,1.02344,0,1.41406l2.82812,2.82812c.39062.39062,1.02344.39062,1.41406,0,.83057-.83008,1.88672-.81055,2.59912-.51709.71143.29492,1.47217,1.02881,1.47217,2.20361,0,.55225.44775,1,1,1h4c.55225,0,1-.44775,1-1,0-1.1748.76074-1.90869,1.47217-2.20361.71338-.29346,1.76904-.31299,2.59912.51709.39062.39062,1.02344.39062,1.41406,0l2.82812-2.82812c.39062-.39062.39062-1.02344,0-1.41406-.83057-.83105-.81152-1.88721-.51709-2.59912.29492-.71143,1.02881-1.47217,2.20361-1.47217.55225,0,1-.44775,1-1v-4c0-.55225-.44775-1-1-1ZM33,44.10986c-1.36719.30762-2.49121,1.24512-3.05127,2.59717-.56006,1.35156-.42773,2.80957.32129,3.99365l-1.56934,1.56934c-1.18457-.74902-2.64258-.88086-3.99365-.32129-1.35205.56006-2.28955,1.68408-2.59717,3.05127h-2.21973c-.30762-1.36719-1.24512-2.49121-2.59717-3.05127-1.35205-.55957-2.80908-.42725-3.99365.32129l-1.56934-1.56934c.74902-1.18408.88135-2.64209.32129-3.99365-.56006-1.35205-1.68408-2.28955-3.05127-2.59717v-2.21973c1.36719-.30762,2.49121-1.24512,3.05127-2.59717.56006-1.35156.42773-2.80957-.32129-3.99365l1.56934-1.56934c1.18457.74902,2.64258.88037,3.99365.32129,1.35205-.56006,2.28955-1.68408,2.59717-3.05127h2.21973c.30762,1.36719,1.24512,2.49121,2.59717,3.05127,1.35205.55908,2.80908.42822,3.99365-.32129l1.56934,1.56934c-.74902,1.18408-.88135,2.64209-.32129,3.99365.56006,1.35205,1.68408,2.28955,3.05127,2.59717v2.21973Z"/>
  <path d="M21,35c-4.41113,0-8,3.58887-8,8s3.58887,8,8,8,8-3.58887,8-8-3.58887-8-8-8ZM21,49c-3.30859,0-6-2.69141-6-6s2.69141-6,6-6,6,2.69141,6,6-2.69141,6-6,6Z"/>
  <path d="M56,21h-1.05066c-.4884-6.37036-5.57898-11.46094-11.94934-11.94934v-1.05066c0-.55225-.44775-1-1-1s-1,.44775-1,1v1.05066c-6.37036.4884-11.46094,5.57898-11.94934,11.94934h-1.05066c-.55225,0-1,.44775-1,1s.44775,1,1,1h1.05066c.4884,6.37036,5.57898,11.46094,11.94934,11.94934v2.5155l-2.55469,1.70312c-.27832.18555-.44531.49756-.44531.83203v6c0,.36865.20312.70752.52832.88184.32373.17285.71875.15332,1.02637-.0498l1.44531-.96362v2.13159c0,.55225.44775,1,1,1s1-.44775,1-1v-2.13159l1.44531.96362c.65641.43764,1.55469-.04346,1.55469-.83203v-6c0-.33447-.16699-.64648-.44531-.83203l-2.55469-1.70312v-2.5155c6.37036-.4884,11.46094-5.57898,11.94934-11.94934h1.05066c.55225,0,1-.44775,1-1s-.44775-1-1-1ZM44,44.13135s-1.44531-.96338-1.44541-.96344c-.15333-.10198-.37137-.1679-.55457-.16791-.17931,0-.40337.06726-.55471.16797l-1.44531.96338v-3.59619l2-1.3335,2,1.3335v3.59619ZM42,23c-.55127,0-1-.44873-1-1s.44873-1,1-1,1,.44873,1,1-.44873,1-1,1ZM43,24.81573c1.1615-.41412,2-1.51379,2-2.81573,0-1.6543-1.3457-3-3-3s-3,1.3457-3,3c0,1.30194.8385,2.40155,2,2.81567v2.08325c-2.2793-.46466-4-2.4845-4-4.89893,0-2.75684,2.24316-5,5-5s5,2.24316,5,5c0,2.41443-1.7207,4.43427-4,4.89893v-2.08319ZM43,32.94934v-4.02917c3.3866-.48779,6-3.4007,6-6.92017,0-3.85986-3.14014-7-7-7s-7,3.14014-7,7c0,3.51947,2.6134,6.43237,6,6.92017v4.02917c-5.26801-.4776-9.47174-4.68134-9.94934-9.94934h.94934c.55225,0,1-.44775,1-1s-.44775-1-1-1h-.94934c.4776-5.26801,4.68134-9.47174,9.94934-9.94934v.94934c0,.55225.44775,1,1,1s1-.44775,1-1v-.94934c5.26801.4776,9.47174,4.68134,9.94934,9.94934h-.94934c-.55225,0-1,.44775-1,1s.44775,1,1,1h.94934c-.4776,5.26801-4.68134,9.47174-9.94934,9.94934Z"/>
</svg>