<?xml version="1.0" encoding="UTF-8"?>
<svg id="Outline" xmlns="http://www.w3.org/2000/svg" version="1.1" viewBox="0 0 64 64">
  <!-- Generator: Adobe Illustrator 29.3.1, SVG Export Plug-In . SVG Version: 2.1.0 Build 151)  -->
  <path d="M28.29688,42.73096l-.53125,3.1001c-.06445.375.08984.75439.39746.97803.30957.22412.71875.25293,1.05273.07617l2.78418-1.46338,2.78401,1.46329c.65978.34679,1.59212-.2293,1.45036-1.05411l-.53125-3.1001,2.25195-2.19531c.27246-.26562.37012-.66309.25293-1.0249-.11816-.36182-.43066-.62598-.80762-.68066l-3.11133-.45215-1.39258-2.8208c-.33594-.68164-1.45703-.68164-1.79297,0l-1.39258,2.8208-3.11133.45215c-.37695.05469-.68945.31885-.80762.68066-.11719.36182-.01953.75928.25293,1.0249l2.25195,2.19531ZM30.51855,40.28174c.32617-.04736.60742-.25195.75293-.54688l.72852-1.47559.72852,1.47559c.14551.29492.42676.49951.75293.54688l1.62695.23633-1.17773,1.14795c-.23535.22949-.34277.56055-.28711.88477l.27734,1.62158-1.45605-.76562c-.14551-.07666-.30469-.11475-.46484-.11475s-.31934.03809-.46484.11475l-1.45605.76562.27734-1.62158c.05566-.32422-.05176-.65527-.28711-.88477l-1.17773-1.14795,1.62695-.23633Z"/>
  <path d="M56.71191,42.71533c-.10156-.25732-.30371-.46143-.56055-.56396-.11273-.04541-1.66278-.65094-3.7818-.86823.41144-.32611.81464-.67297,1.19781-1.05609,3.44336-3.44287,2.45312-9.78027,2.41016-10.04834-.06934-.42383-.40234-.75635-.82617-.82568-.2666-.04443-6.59473-1.0332-10.0498,2.42041-.01141.01147-.02063.02234-.03198.03381-1.94427-2.76312-4.74786-4.90417-8.08911-6.00018-.03491-.89502-.30261-1.72723-.74951-2.4422l7.37158-5.56702c.44043-.33252.52832-.95996.19531-1.40039-.33203-.44092-.95996-.52832-1.40039-.19531l-.39746.30017v-3.50232h2c.55273,0,1-.44775,1-1v-4c0-.55225-.44727-1-1-1h-24c-.55273,0-1,.44775-1,1v4c0,.55225.44727,1,1,1h2v3.50232l-.39746-.30017c-.44141-.33301-1.06738-.24561-1.40039.19531-.33301.44043-.24512,1.06787.19531,1.40039l7.37158,5.56702c-.4469.71497-.7146,1.54718-.74951,2.4422-3.34137,1.09601-6.14502,3.23724-8.08929,6.00049-.0116-.01172-.02106-.02283-.03278-.03461-3.4541-3.45361-9.78223-2.46436-10.04883-2.41992-.42383.06934-.75684.40186-.82617.82568-.04297.26807-1.0332,6.60547,2.41016,10.04834.38306.38293.78607.72968,1.19733,1.05566-2.11902.21729-3.66864.823-3.78131.86865-.25684.10254-.45898.30664-.56055.56396-.10059.25781-.08984.54541.0293.79492.09277.19531,2.33105,4.80615,6.75488,6.53955,1.98212.78583,3.97449,1.21027,5.67853,1.22351,2.93738,3.49652,7.33606,5.72668,12.24921,5.72668s9.31183-2.23016,12.24921-5.72668c1.70404-.01324,3.69635-.43768,5.6756-1.22205,4.42676-1.73486,6.66504-6.3457,6.75781-6.54102.11914-.24951.12988-.53711.0293-.79492ZM46.5166,33.18701c2.125-2.12354,5.95898-2.07031,7.56836-1.94189.13086,1.61279.18555,5.45068-1.93164,7.56787-1.26208,1.26166-2.75629,2.17908-4.17432,2.60138.0036-.13904.021-.27448.021-.41437,0-2.65338-.66345-5.18982-1.84406-7.43231.11456-.12585.23291-.2525.36066-.38068ZM28,13h8v8c0,.01031.00555.0188.00586.02905l-1.1557.8728c-.80988-.56512-1.78998-.90186-2.85016-.90186s-2.04028.33673-2.85016.90186l-1.1557-.8728c.00031-.01025.00586-.01874.00586-.02905v-8ZM32,31c5.51367,0,10,4.48584,10,10s-4.48633,10-10,10-10-4.48584-10-10,4.48633-10,10-10ZM29,26c0-1.6543,1.3457-3,3-3s3,1.3457,3,3-1.3457,3-3,3-3-1.3457-3-3ZM40.0022,18.01105l-2.0022,1.51208v-6.52313h2v5c0,.00391.00214.00714.0022.01105ZM21,9h22v2h-22v-2ZM24,18v-5h2v6.52313l-2.0022-1.51208c.00006-.00391.0022-.00714.0022-.01105ZM9.91504,31.24512c1.61035-.12891,5.44336-.18164,7.56738,1.94141.12823.12842.24677.25531.36157.38129-1.1806,2.24243-1.84399,4.77881-1.84399,7.43219,0,.13983.0174.27533.021.41437-1.41803-.4223-2.91229-1.33972-4.17432-2.60138-2.11719-2.11719-2.0625-5.95508-1.93164-7.56787ZM14.80566,48.18896c-2.52832-.99023-4.25586-3.21582-5.09668-4.52539,1.44952-.37415,4.08154-.79675,6.54059.05988.33569,1.94531,1.02179,3.76721,1.99408,5.40594-1.09387-.16846-2.26965-.47717-3.43799-.94043ZM32,55c-7.71973,0-14-6.28027-14-14,0-5.9552,3.79858-11.24365,9.34839-13.20087.25378.6535.62964,1.24609,1.11688,1.73358-4.89697,1.51251-8.46527,6.08044-8.46527,11.46729,0,6.6167,5.38281,12,12,12s12-5.3833,12-12c0-5.38684-3.5683-9.95477-8.46527-11.46729.48724-.48749.8631-1.08008,1.11688-1.73358,5.5498,1.95721,9.34839,7.24567,9.34839,13.20087,0,7.71973-6.28027,14-14,14ZM49.19141,48.19043c-1.16528.46191-2.34161.7691-3.43414.93744.97198-1.63873,1.6579-3.46057,1.99341-5.40576,2.4527-.86188,5.0882-.43567,6.54034-.05853-.84082,1.30908-2.56934,3.53516-5.09961,4.52686Z"/>
</svg>