<?xml version="1.0" encoding="UTF-8"?>
<svg id="Outline" xmlns="http://www.w3.org/2000/svg" version="1.1" viewBox="0 0 64 64">
  <!-- Generator: Adobe Illustrator 29.5.1, SVG Export Plug-In . SVG Version: 2.1.0 Build 141)  -->
  <path d="M53,15h-15v-7c0-.55-.45-1-1-1h-10c-.55,0-1,.45-1,1v7h-15c-.55,0-1,.45-1,1v10c0,.55.45,1,1,1h3v15c0,.37.2.71.53.88.32.18.72.16,1.02-.05l2.45-1.63s2.45,1.63,2.451,1.63c.649.446,1.549-.049,1.549-.83v-5.38c1.25.94,2.59,1.7,4,2.24v17.14c0,.55.45,1,1,1h10c.55,0,1-.45,1-1v-17.14c1.41-.54,2.75-1.3,4-2.24v5.38c0,.37.2.71.53.88.32.18.72.16,1.02-.05l2.45-1.63,2.45,1.63c.278.185.698.222,1.02.05.33-.17.53-.51.53-.88v-15h3c.55,0,1-.45,1-1v-10c0-.55-.45-1-1-1ZM14,25h-2v-8h2v8ZM20,40.13l-1.45-.96c-.16-.11-.36-.17-.55-.17s-.39.06-.55.17l-1.45.96v-23.13h4v23.13ZM22,27h4v5.24c-1.44-.65-2.79-1.54-4-2.68v-2.56ZM36,55h-8v-15.51c1.31.32,2.65.5,4,.5s2.69-.18,4-.5v15.51ZM42,34c-5.6,5.31-14.4,5.31-20,0v-1.83c1.4,1.07,2.92,1.87,4.52,2.43.09.05.18.08.29.1,1.68.56,3.43.85,5.19.85s3.51-.29,5.19-.85c.11-.02.2-.05.29-.1,1.6-.56,3.12-1.36,4.52-2.43v1.83ZM42,29.56c-1.21,1.14-2.56,2.03-4,2.68v-5.24h4v2.56ZM42,25h-5c-.55,0-1,.45-1,1v6.99c-2.61.74-5.39.74-8,0v-6.99c0-.55-.45-1-1-1h-5v-8h5c.55,0,1-.45,1-1v-7h8v7c0,.55.45,1,1,1h5v8ZM48,40.13l-1.45-.96c-.16-.11-.36-.17-.55-.17s-.39.06-.55.17l-1.45.96v-23.13h4v23.13ZM52,25h-2v-8h2v8Z"/>
</svg>