<?xml version="1.0" encoding="UTF-8"?>
<svg id="Outline" xmlns="http://www.w3.org/2000/svg" version="1.1" viewBox="0 0 64 64">
  <!-- Generator: Adobe Illustrator 29.5.1, SVG Export Plug-In . SVG Version: 2.1.0 Build 141)  -->
  <path d="M20,26c1.654,0,3-1.346,3-3v-1c0-.553-.447-1-1-1h-1c-.553,0-1,.447-1,1s.447,1,1,1c0,.552-.448,1-1,1s-1-.448-1-1v-4c0-.552.448-1,1-1s1,.448,1,1,.447,1,1,1,1-.447,1-1c0-1.654-1.346-3-3-3s-3,1.346-3,3v4c0,1.654,1.346,3,3,3Z"/>
  <path d="M28,26c1.654,0,3-1.346,3-3v-4c0-1.654-1.346-3-3-3s-3,1.346-3,3v4c0,1.654,1.346,3,3,3ZM27,19c0-.552.448-1,1-1s1,.448,1,1v4c0,.552-.448,1-1,1s-1-.448-1-1v-4Z"/>
  <path d="M36,26c1.654,0,3-1.346,3-3v-4c0-1.654-1.346-3-3-3s-3,1.346-3,3v4c0,1.654,1.346,3,3,3ZM35,19c0-.552.448-1,1-1s1,.448,1,1v4c0,.552-.448,1-1,1s-1-.448-1-1v-4Z"/>
  <path d="M42,26c2.757,0,5-2.243,5-5s-2.243-5-5-5c-.553,0-1,.447-1,1v8c0,.553.447,1,1,1ZM43,18.171c1.164.413,2,1.525,2,2.829s-.836,2.416-2,2.829v-5.658Z"/>
  <path d="M18,43c-.553,0-1,.447-1,1v8c0,.553.447,1,1,1,2.757,0,5-2.243,5-5s-2.243-5-5-5ZM19,50.829v-5.658c1.164.413,2,1.525,2,2.829s-.836,2.416-2,2.829Z"/>
  <path d="M21,28v8c0,.553.447,1,1,1h2c1.654,0,3-1.346,3-3,0-.771-.301-1.468-.78-2,.48-.532.78-1.229.78-2,0-1.654-1.346-3-3-3h-2c-.553,0-1,.447-1,1ZM24,35h-1v-2h1c.552,0,1,.448,1,1s-.448,1-1,1ZM23,29h1c.552,0,1,.448,1,1s-.448,1-1,1h-1v-2Z"/>
  <path d="M29.553,27.105c-.494.247-.694.848-.447,1.342l1.895,3.789v3.764c0,.553.447,1,1,1s1-.447,1-1v-3.764l1.895-3.789c.247-.494.047-1.095-.447-1.342-.493-.246-1.094-.047-1.342.447l-1.105,2.211-1.105-2.211c-.248-.494-.848-.693-1.342-.447Z"/>
  <path d="M42,29c.553,0,1-.447,1-1s-.447-1-1-1h-4c-.553,0-1,.447-1,1v8c0,.553.447,1,1,1h4c.553,0,1-.447,1-1s-.447-1-1-1h-3v-2h3c.553,0,1-.447,1-1s-.447-1-1-1h-3v-2h3Z"/>
  <path d="M30,45c.553,0,1-.447,1-1s-.447-1-1-1h-4c-.553,0-1,.447-1,1v8c0,.553.447,1,1,1h4c.553,0,1-.447,1-1s-.447-1-1-1h-3v-2h3c.553,0,1-.447,1-1s-.447-1-1-1h-3v-2h3Z"/>
  <path d="M36,43c-1.654,0-3,1.346-3,3v6c0,.553.447,1,1,1s1-.447,1-1v-2h2v2c0,.553.447,1,1,1s1-.447,1-1v-6c0-1.654-1.346-3-3-3ZM35,48v-2c0-.552.448-1,1-1s1,.448,1,1v2h-2Z"/>
  <path d="M46,51h-3v-7c0-.553-.447-1-1-1s-1,.447-1,1v8c0,.553.447,1,1,1h4c.553,0,1-.447,1-1s-.447-1-1-1Z"/>
  <path d="M49.585,39.464c2.232-3.41,3.415-7.341,3.415-11.464,0-11.579-9.421-21-21-21S11,16.421,11,28c0,4.122,1.182,8.054,3.415,11.464-.846.531-1.415,1.466-1.415,2.536v12c0,1.654,1.346,3,3,3h32c1.654,0,3-1.346,3-3v-12c0-1.071-.568-2.006-1.415-2.536ZM32,9c10.477,0,19,8.523,19,19,0,3.986-1.224,7.775-3.524,11h-30.952c-2.3-3.225-3.524-7.014-3.524-11,0-10.477,8.523-19,19-19ZM49,54c0,.552-.448,1-1,1H16c-.552,0-1-.448-1-1v-12c0-.552.448-1,1-1h32c.552,0,1,.448,1,1v12Z"/>
</svg>