<?xml version="1.0" encoding="UTF-8"?>
<svg id="Outline" xmlns="http://www.w3.org/2000/svg" version="1.1" viewBox="0 0 64 64">
  <!-- Generator: Adobe Illustrator 29.3.1, SVG Export Plug-In . SVG Version: 2.1.0 Build 151)  -->
  <path d="M55,45v-10c0-1.10004-.90002-2-2-2h-4v-2c1.09998,0,2-.90002,2-2v-2c0-.89001-.59003-1.64001-1.40002-1.90002-5.56-8.39996-13.67999-9.82001-16.59998-10.04999v-2.04999h5c.54999,0,1-.45001,1-1v-4c0-.54999-.45001-1-1-1h-6c-.54999,0-1,.45001-1,1v7.04999c-9.44.5-15.09003,7.79999-16.60999,10.04999-.79999.26001-1.39001,1.01001-1.39001,1.90002v2c0,1.09998.90002,2,2,2v2h-4c-1.09998,0-2,.89996-2,2v10c-1.09998,0-2,.89996-2,2v2c0,1.09998.90002,2,2,2h6c.54999,0,1-.45001,1-1s-.45001-1-1-1h-6v-2h13c0,.67999.07001,1.34998.20001,2h-3.20001c-.54999,0-1,.45001-1,1s.45001,1,1,1h3.84003c1.54999,3.52997,5.06995,6,9.15997,6s7.60999-2.47003,9.15997-6h13.84003c1.09998,0,2-.90002,2-2v-2c0-1.10004-.90002-2-2-2ZM33,9h4v2h-4v-2ZM15,45h-4v-10h4v10ZM53,35v10h-4v-10h4ZM15,29v-2h23c.54999,0,1-.45001,1-1s-.45001-1-1-1h-21.03998c2.17999-2.73999,7.35999-8,15.03998-8,.96997,0,9.19.23999,15.08002,8h-5.08002c-.54999,0-1,.45001-1,1s.45001,1,1,1h7v2H15ZM32,55c-4.40997,0-8-3.59003-8-8s3.59003-8,8-8,8,3.58997,8,8-3.59003,8-8,8ZM32,37c-4.83002,0-8.87,3.44-9.79999,8h-5.20001v-14h30v14h-5.20001c-.92999-4.56-4.96997-8-9.79999-8ZM55,49h-13.20001c.13-.65002.20001-1.32001.20001-2h13v2Z"/>
  <path d="M32,44c.55127,0,1,.44824,1,1,0,.55273.44775,1,1,1s1-.44727,1-1c0-1.30194-.8385-2.40161-2-2.81573v-.18427c0-.55273-.44775-1-1-1s-1,.44727-1,1v.18427c-1.1615.41412-2,1.51379-2,2.81573,0,1.6543,1.3457,3,3,3,.55127,0,1,.44824,1,1s-.44873,1-1,1-1-.44824-1-1c0-.55273-.44775-1-1-1s-1,.44727-1,1c0,1.30194.8385,2.40155,2,2.81567v.18433c0,.55273.44775,1,1,1s1-.44727,1-1v-.18427c1.1615-.41412,2-1.51379,2-2.81573,0-1.6543-1.3457-3-3-3-.55127,0-1-.44824-1-1s.44873-1,1-1Z"/>
  <path d="M45,34c0-.55273-.44775-1-1-1h-24c-.55225,0-1,.44727-1,1s.44775,1,1,1h24c.55225,0,1-.44727,1-1Z"/>
</svg>