<?xml version="1.0" encoding="UTF-8"?>
<svg id="Outline" xmlns="http://www.w3.org/2000/svg" version="1.1" viewBox="0 0 64 64">
  <!-- Generator: Adobe Illustrator 29.0.0, SVG Export Plug-In . SVG Version: 2.1.0 Build 186)  -->
  <path d="M23.99995,39h-6c-.55273,0-1,.44775-1,1v12c0,.55225.44727,1,1,1h6c.55273,0,1-.44775,1-1v-12c0-.55225-.44727-1-1-1ZM22.99995,51h-4v-10h4v10Z"/>
  <path d="M33.99995,33h-6c-.55273,0-1,.44775-1,1v18c0,.55225.44727,1,1,1h6c.55273,0,1-.44775,1-1v-10c0-.55225-.44727-1-1-1s-1,.44775-1,1v9h-4v-16h4v3c0,.55225.44727,1,1,1s1-.44775,1-1v-4c0-.55225-.44727-1-1-1Z"/>
  <path d="M43.99995,27h-6c-.55273,0-1,.44775-1,1v24c0,.55225.44727,1,1,1h6c.55273,0,1-.44775,1-1v-24c0-.55225-.44727-1-1-1ZM42.99995,51h-4v-22h4v22Z"/>
  <path d="M56.8476,23.47021l-5-8c-.36523-.58496-1.33008-.58496-1.69531,0l-5,8c-.19336.30811-.20312.69678-.02734,1.01465.17676.31787.51172.51514.875.51514h1v27c0,.55225.44727,1,1,1h6c.55273,0,1-.44775,1-1v-18c0-.55225-.44727-1-1-1s-1,.44775-1,1v17h-4v-27c0-.55225-.44727-1-1-1h-.19531l3.19531-5.11328,3.19531,5.11328h-.19531c-.55273,0-1,.44775-1,1v6c0,.55225.44727,1,1,1s1-.44775,1-1v-5h1c.36328,0,.69824-.19727.875-.51514.17578-.31787.16602-.70654-.02734-1.01465Z"/>
  <path d="M23.99995,55h-6c-.55273,0-1,.44775-1,1s.44727,1,1,1h6c.55273,0,1-.44775,1-1s-.44727-1-1-1Z"/>
  <path d="M13.99995,45h-6c-.55273,0-1,.44775-1,1v6c0,.55225.44727,1,1,1h6c.55273,0,1-.44775,1-1v-6c0-.55225-.44727-1-1-1ZM12.99995,51h-4v-4h4v4Z"/>
  <path d="M13.99995,55h-6c-.55273,0-1,.44775-1,1s.44727,1,1,1h6c.55273,0,1-.44775,1-1s-.44727-1-1-1Z"/>
  <path d="M33.99995,55h-6c-.55273,0-1,.44775-1,1s.44727,1,1,1h6c.55273,0,1-.44775,1-1s-.44727-1-1-1Z"/>
  <path d="M43.99995,55h-6c-.55273,0-1,.44775-1,1s.44727,1,1,1h6c.55273,0,1-.44775,1-1s-.44727-1-1-1Z"/>
  <path d="M53.99995,55h-6c-.55273,0-1,.44775-1,1s.44727,1,1,1h6c.55273,0,1-.44775,1-1s-.44727-1-1-1Z"/>
  <path d="M11.00002,42.99174c.25618.00063.51412-.09187.70696-.28471l15.29297-15.29297,2.29297,2.29297c.39062.39062,1.02344.39062,1.41406,0l19.29297-19.29297v1.58594c0,.55225.44727,1,1,1s1-.44775,1-1v-4c0-.55225-.44727-1-1-1h-4c-.55273,0-1,.44775-1,1s.44727,1,1,1h1.58594l-18.58594,18.58594-2.29297-2.29297c-.39062-.39062-1.02344-.39062-1.41406,0l-15.99984,15.99984c-.6126.6126-.15299,1.6968.70694,1.69893Z"/>
</svg>