<?xml version="1.0" encoding="UTF-8"?>
<svg id="Outline" xmlns="http://www.w3.org/2000/svg" version="1.1" viewBox="0 0 64 64">
  <!-- Generator: Adobe Illustrator 29.3.1, SVG Export Plug-In . SVG Version: 2.1.0 Build 151)  -->
  <path d="M40,16v-3c0-1.10254-.89746-2-2-2h-12c-1.10254,0-2,.89746-2,2v3c0,.55273.44727,1,1,1h14c.55273,0,1-.44727,1-1ZM38,15h-12v-2h12v2Z"/>
  <path d="M49.53998,53.45001l-5.33997-28.47003c1.01001-.09998,1.79999-.95001,1.79999-1.97998v-2c0-1.10004-.90002-2-2-2v-7c0-2.76001-2.23999-5-5-5h-14c-2.76001,0-5,2.23999-5,5v7c-1.09998,0-2,.89996-2,2v2c0,1.02997.78998,1.88,1.79999,1.97998l-5.33997,28.47003c-.16003.87994.07001,1.77997.63995,2.46997.57001.67999,1.41003,1.08002,2.31,1.08002h4.59003c.54999,0,1-.45001,1-1s-.45001-1-1-1h-4.59003c-.40997,0-.65997-.23004-.76996-.35999-.10999-.14001-.29004-.42004-.21002-.82001l.15002-.82001h30.83997l.15002.82001c.08002.39996-.10004.67999-.21002.82001-.10999.12994-.35999.35999-.76996.35999h-20.59003c-.54999,0-1,.45001-1,1s.45001,1,1,1h20.59003c.89996,0,1.73999-.40002,2.31-1.08002.56995-.69.79999-1.59003.63995-2.46997ZM20,21h16c.54999,0,1-.45001,1-1s-.45001-1-1-1h-14v-7c0-1.65002,1.34998-3,3-3h14c1.65002,0,3,1.34998,3,3v7h-2c-.54999,0-1,.45001-1,1s.45001,1,1,1h4v2h-24v-2ZM16.95001,51l4.88-26h20.33997l4.88,26h-30.09998Z"/>
  <path d="M30,30c0-1.6543-1.3457-3-3-3s-3,1.3457-3,3,1.3457,3,3,3,3-1.3457,3-3ZM27,31c-.55176,0-1-.44824-1-1s.44824-1,1-1,1,.44824,1,1-.44824,1-1,1Z"/>
  <path d="M37,33c1.6543,0,3-1.3457,3-3s-1.3457-3-3-3-3,1.3457-3,3,1.3457,3,3,3ZM37,29c.55176,0,1,.44824,1,1s-.44824,1-1,1-1-.44824-1-1,.44824-1,1-1Z"/>
  <path d="M32,35c-1.6543,0-3,1.3457-3,3s1.3457,3,3,3,3-1.3457,3-3-1.3457-3-3-3ZM32,39c-.55176,0-1-.44824-1-1s.44824-1,1-1,1,.44824,1,1-.44824,1-1,1Z"/>
  <path d="M24,35c-1.6543,0-3,1.3457-3,3s1.3457,3,3,3,3-1.3457,3-3-1.3457-3-3-3ZM24,39c-.55176,0-1-.44824-1-1s.44824-1,1-1,1,.44824,1,1-.44824,1-1,1Z"/>
  <path d="M40,35c-1.6543,0-3,1.3457-3,3s1.3457,3,3,3,3-1.3457,3-3-1.3457-3-3-3ZM40,39c-.55176,0-1-.44824-1-1s.44824-1,1-1,1,.44824,1,1-.44824,1-1,1Z"/>
  <path d="M32,43c-1.6543,0-3,1.3457-3,3s1.3457,3,3,3,3-1.3457,3-3-1.3457-3-3-3ZM32,47c-.55176,0-1-.44824-1-1s.44824-1,1-1,1,.44824,1,1-.44824,1-1,1Z"/>
  <path d="M23,43c-1.6543,0-3,1.3457-3,3s1.3457,3,3,3,3-1.3457,3-3-1.3457-3-3-3ZM23,47c-.55176,0-1-.44824-1-1s.44824-1,1-1,1,.44824,1,1-.44824,1-1,1Z"/>
  <path d="M38,46c0,1.6543,1.3457,3,3,3s3-1.3457,3-3-1.3457-3-3-3-3,1.3457-3,3ZM42,46c0,.55176-.44824,1-1,1s-1-.44824-1-1,.44824-1,1-1,1,.44824,1,1Z"/>
</svg>