<?xml version="1.0" encoding="UTF-8"?>
<svg id="Outline" xmlns="http://www.w3.org/2000/svg" version="1.1" viewBox="0 0 64 64">
  <!-- Generator: Adobe Illustrator 29.0.0, SVG Export Plug-In . SVG Version: 2.1.0 Build 186)  -->
  <path d="M56.11605,26.30015c-1.16406-.1377-11.47705-1.25586-15.09766,1.76074-1.84131,1.53418-2.68164,3.49316-2.43066,5.66406.20947,1.81348,1.15674,3.74219,2.81494,5.73145.01495.01794.03015.03357.0451.05139-2.22736,3.02472-3.44891,6.65698-3.44891,10.4906,0,2.75684-2.24316,5-5,5h-5c-2.45795,0-4.49628-1.78674-4.91174-4.1272,1.91278-.42749,3.41815-1.9472,3.81067-3.8728h1.10107c1.6543,0,3-1.3457,3-3,0-.77112-.30054-1.46802-.78027-2,.47974-.53198.78027-1.22888.78027-2,0-1.27673-.80499-2.362-1.93134-2.79437.19824-1.27667.86035-2.42725,1.86786-3.17242,3.79688-2.82324,6.06348-7.32227,6.06348-12.0332,0-2.50781-.63379-4.99121-1.83301-7.18066-.26514-.48438-.87207-.66406-1.35742-.39648-.48438.26465-.66211.87305-.39648,1.35742,1.03809,1.89551,1.58691,4.04688,1.58691,6.21973,0,4.14258-1.91602,7.94336-5.25488,10.42676-1.45752,1.07812-2.41699,2.74023-2.67529,4.57324h-10.13965c-.25635-1.82812-1.20801-3.48633-2.65527-4.56348-3.67676-2.71875-5.62793-7.06543-5.21875-11.62891.56934-6.4209,5.86133-11.48926,12.31201-11.78906,2.3999-.12012,4.76807.42578,6.85107,1.56836.48389.26562,1.0918.08887,1.35791-.39648.26562-.4834.08838-1.0918-.396-1.35742-2.40674-1.32031-5.14014-1.94434-7.90771-1.8125-7.44336.3457-13.55225,6.19727-14.20947,13.61035-.47168,5.26172,1.7793,10.27637,6.01904,13.41113.99609.74243,1.65198,1.88983,1.84869,3.16351-1.12646.43225-1.9317,1.51764-1.9317,2.79449,0,.77112.30054,1.46802.78027,2-.47974.53198-.78027,1.22888-.78027,2,0,1.6543,1.3457,3,3,3h1.10107c.40308,1.97717,1.97827,3.52753,3.96436,3.90552.44647,3.43225,3.38226,6.09448,6.93457,6.09448h5c3.85986,0,7-3.14062,7-7.00879,0-3.27161,1.00275-6.38397,2.84302-9.00793,1.20856,1.12799,2.44397,1.89581,3.69019,2.27649.604.18457,1.20752.27637,1.8042.27637,1.46777,0,2.89648-.55469,4.20557-1.64551,3.62012-3.0166,4.38037-13.3623,4.45508-14.53223.03369-.53027-.35303-.99414-.88086-1.05664ZM15.99886,38.99839h12c.55127,0,1,.44824,1,1s-.44873,1-1,1h-12c-.55127,0-1-.44824-1-1s.44873-1,1-1ZM17.99886,44.99839h-2c-.55127,0-1-.44824-1-1s.44873-1,1-1h12c.55127,0,1,.44824,1,1s-.44873,1-1,1h-10ZM21.99886,48.99839c-1.30371,0-2.41602-.83594-2.82861-2h5.65723c-.4126,1.16406-1.5249,2-2.82861,2ZM51.26155,40.3519c-1.33496,1.11328-2.69189,1.43555-4.14502.99414-.97473-.29797-1.99957-.95807-3.01617-1.9267.1701-.18701.32935-.38159.50934-.56158l3.85962-3.85938h2.52954c.55225,0,1-.44727,1-1s-.44775-1-1-1h-.52936l1.23639-1.23633c.39062-.39062.39062-1.02344,0-1.41406s-1.02344-.39062-1.41406,0l-4.29297,4.29266v-1.64227c0-.55273-.44775-1-1-1s-1,.44727-1,1v3.64215l-.80322.80316c-.15784.15778-.29553.32971-.44666.49231-1.26587-1.57684-2.02063-3.1076-2.17444-4.44055-.1748-1.51074.38916-2.78516,1.72412-3.89746,1.5083-1.25684,5.04834-1.60156,8.27051-1.60156,1.63623,0,3.19141.08887,4.35498.19238-.32129,3.45312-1.38867,10.26855-3.6626,12.16309Z"/>
  <path d="M20.32422,33.94556c.40537.10962.87173-.01408,1.11995-.46182l7.14307-12.85742c.17236-.30957.16748-.6875-.01221-.99219-.17969-.30566-.50732-.49316-.86182-.49316h-1.6377l1.18945-5.94629c.05908-.29395-.01709-.59863-.20703-.83008s-.47363-.36621-.77344-.36621h-7.14258c-.45898,0-.85889.3125-.97021.75781l-2.85742,11.42871c-.07471.29883-.00732.61523.18213.85742.18945.24316.47998.38477.78809.38477h3.28564v7.57129c0,.49033.34616.83687.75407.94717ZM17.56526,23.4271l2.35742-9.42871h5.14209l-1.18945,5.94629c-.05908.29395.01709.59863.20703.83008s.47363.36621.77344.36621h1.15771l-4.44336,7.99805v-4.71191c0-.55273-.44775-1-1-1h-3.00488Z"/>
  <path d="M32.60549,12.80601c.3905-.39056.3905-1.02368,0-1.41425-.39056-.3905-1.02374-.3905-1.41425,0-.3905.39056-.3905,1.02368,0,1.41425.3905.3905,1.02368.3905,1.41425,0Z"/>
</svg>