<?xml version="1.0" encoding="UTF-8"?>
<svg id="Outline" xmlns="http://www.w3.org/2000/svg" version="1.1" viewBox="0 0 64 64">
  <!-- Generator: Adobe Illustrator 29.5.1, SVG Export Plug-In . SVG Version: 2.1.0 Build 141)  -->
  <path d="M55,51.18v-21.18c0-1.65-1.35-3-3-3h-4c-.55,0-1,.45-1,1s.45,1,1,1h4c.55,0,1,.45,1,1v21h-2v-19c0-.55-.45-1-1-1h-20c-.55,0-1,.45-1,1v19h-2v-21c0-.55.45-1,1-1h16c.55,0,1-.45,1-1s-.45-1-1-1h-5v-3c0-.55-.45-1-1-1h-9c-.55,0-1,.45-1,1s.45,1,1,1h8v2h-9c-1.65,0-3,1.35-3,3v21h-2v-26h2c.55,0,1-.45,1-1s-.45-1-1-1h-3c-.55,0-1,.45-1,1v27h-2.06l-1.94-31.06c-.03-.53-.47-.94-1-.94h-1v-2h1c2.76,0,5-2.24,5-5v-2c0-.55-.45-1-1-1h-2c-1.13,0-2.16.39-3,1.03v-2.03c0-.55-.45-1-1-1s-1,.45-1,1v2.03c-.84-.64-1.87-1.03-3-1.03h-2c-.55,0-1,.45-1,1v2c0,2.76,2.24,5,5,5h1v2h-1c-.53,0-.97.41-1,.94l-1.95,31.23c-1.19.4-2.05,1.51-2.05,2.83,0,1.65,1.35,3,3,3h44c1.65,0,3-1.35,3-3,0-1.3-.84-2.4-2-2.82ZM15,14c0-1.65,1.35-3,3-3h1v1c0,1.65-1.35,3-3,3h-1v-1ZM31,33h18v2h-18v-2ZM31,37h18v2h-18v-2ZM31,41h18v10h-18v-10ZM12,15c-1.65,0-3-1.35-3-3v-1h1c1.65,0,3,1.35,3,3v1h-1ZM12.94,21h2.12l1.88,30h-5.88l1.88-30ZM54,55H10c-.55,0-1-.45-1-1s.45-1,1-1h44c.55,0,1,.45,1,1s-.45,1-1,1Z"/>
</svg>