<?xml version="1.0" encoding="UTF-8"?>
<svg id="Outline" xmlns="http://www.w3.org/2000/svg" version="1.1" viewBox="0 0 64 64">
  <!-- Generator: Adobe Illustrator 29.0.0, SVG Export Plug-In . SVG Version: 2.1.0 Build 186)  -->
  <path d="M56,47h-1v-27c0-.28003-.12-.54999-.33002-.73999-.20996-.19-.48999-.28003-.76996-.25l-34.49005,3.63-.35999-5.84003c1.14001-.42999,1.95001-1.52002,1.95001-2.79999,0-1.65002-1.34998-3-3-3h-6c-1.65002,0-3,1.34998-3,3,0,1.27997.81,2.37,1.95001,2.79999l-1.89001,30.20001h-1.06c-.54999,0-1,.45001-1,1v4c0,.54999.45001,1,1,1h48c.54999,0,1-.45001,1-1v-4c0-.54999-.45001-1-1-1ZM53,21.10999v25.89001h-2v-9c0-.54999-.45001-1-1-1h-12c-.54999,0-1,.45001-1,1v7.38c-.72998-.84003-1.79999-1.38-3-1.38-.17999,0-.34998.01001-.53003.03998-.68994-1.23999-2.00995-2.03998-3.46997-2.03998-.10999,0-.22998.01001-.34998.01996-.47003-.41998-1.04004-.71997-1.65002-.87v-5.14996h1c2.76001,0,5-2.23999,5-5v-2c0-.54999-.45001-1-1-1h-2c-1.64001,0-3.09003.81-4,2.02997-.90997-1.21997-2.35999-2.02997-4-2.02997h-2c-.54999,0-1,.45001-1,1v2c0,2.76001,2.23999,5,5,5h1v5.14996c-.34998.09003-.69.21002-1,.40002-.60999-.35999-1.28998-.54999-2-.54999-1.90002,0-3.48999,1.32996-3.90002,3.09998-.82996.19-1.56.65002-2.09998,1.27002v-20.47003l1.53998-.15997,34.46002-3.63ZM49,39v8h-4v-8h4ZM43,39v8h-4v-8h4ZM28.53003,43.72998c.23999.28998.62.41998.98999.34003.19-.05005.34998-.07001.47998-.07001.90002,0,1.67999.60999,1.90997,1.47998.08002.27002.26001.5.52002.63.25.13.54999.15002.82001.03998.97998-.38995,1.98999.06,2.46002.85004h-17.42999c.34998-.59003.97998-1,1.71997-1,.54999,0,1-.45001,1-1,0-1.10004.90002-2,2-2,.48999,0,.96002.19,1.33002.51996.38.35004.95996.35004,1.33997,0,.82001-.73999,2.16003-.63995,2.86005.21002ZM26,34h-1c-1.65002,0-3-1.35004-3-3v-1h1c1.65002,0,3,1.34998,3,3v1ZM28,34v-1c0-1.65002,1.34998-3,3-3h1v1c0,1.64996-1.34998,3-3,3h-1ZM15.90002,23.01001c-.51001.04999-.90002.47998-.90002.98999v23h-3.94l1.88-30h4.12l.35999,5.84998-1.51996.16003ZM12,13h6c.54999,0,1,.45001,1,1s-.45001,1-1,1h-6c-.54999,0-1-.45001-1-1s.45001-1,1-1ZM55,51H9v-2h46v2Z"/>
  <path d="M46,35h4c.55273,0,1-.44727,1-1v-4c0-.55273-.44727-1-1-1h-4c-.55273,0-1,.44727-1,1v4c0,.55273.44727,1,1,1ZM47,31h2v2h-2v-2Z"/>
  <path d="M38,35h4c.55273,0,1-.44727,1-1v-4c0-.55273-.44727-1-1-1h-4c-.55273,0-1,.44727-1,1v4c0,.55273.44727,1,1,1ZM39,31h2v2h-2v-2Z"/>
</svg>