<?xml version="1.0" encoding="UTF-8"?>
<svg id="Outline" xmlns="http://www.w3.org/2000/svg" version="1.1" viewBox="0 0 64 64">
  <!-- Generator: Adobe Illustrator 29.5.1, SVG Export Plug-In . SVG Version: 2.1.0 Build 141)  -->
  <path d="M48,7H16c-1.65,0-3,1.35-3,3v44c0,1.65,1.35,3,3,3h32c1.65,0,3-1.35,3-3V10c0-1.65-1.35-3-3-3ZM49,54c0,.55-.45,1-1,1H16c-.55,0-1-.45-1-1V17.25l16.78,3.73c.07.01.15.02.22.02s.15-.01.22-.02l16.78-3.73v36.75ZM49,15.2l-17,3.78-17-3.78v-5.2c0-.55.45-1,1-1h32c.55,0,1,.45,1,1v5.2Z"/>
  <path d="M42.836,33.512l.063-5.399c.003-.27-.103-.528-.293-.719s-.455-.314-.719-.293l-5.399.063-3.772-3.863c-.377-.385-1.055-.385-1.432,0l-3.772,3.863-5.399-.063c-.271-.023-.528.103-.719.293s-.296.449-.293.719l.063,5.399-3.863,3.772c-.192.188-.301.446-.301.716s.108.527.301.716l3.863,3.772-.063,5.399c-.003.27.103.528.293.719s.449.293.719.293l5.399-.063,3.772,3.863c.188.192.446.301.716.301s.527-.108.716-.301l3.772-3.863,5.399.063c.263-.002.528-.103.719-.293s.296-.449.293-.719l-.063-5.399,3.863-3.772c.192-.188.301-.446.301-.716s-.108-.527-.301-.716l-3.863-3.772ZM41.132,41.356c-.195.191-.304.454-.301.728l.057,4.804-4.804-.057c-.29-.031-.536.105-.728.301l-3.356,3.438-3.356-3.438c-.188-.192-.446-.301-.716-.301h-.012l-4.804.057.057-4.804c.003-.273-.105-.536-.301-.728l-3.438-3.356,3.438-3.356c.195-.191.304-.454.301-.728l-.057-4.804,4.804.057c.256-.006.536-.105.728-.301l3.356-3.438,3.356,3.438c.191.195.47.327.728.301l4.804-.057-.057,4.804c-.003.273.105.536.301.728l3.438,3.356-3.438,3.356Z"/>
  <path d="M38.816,35.177l.035-3.017c.003-.27-.103-.528-.293-.719s-.469-.301-.719-.293l-3.017.035-2.108-2.158c-.375-.385-1.055-.385-1.43,0l-2.108,2.158-3.017-.035c-.291-.009-.528.103-.719.293s-.296.449-.293.719l.035,3.017-2.158,2.108c-.192.188-.301.445-.301.715s.108.527.301.715l2.158,2.108-.035,3.017c-.003.27.103.528.293.719s.43.278.719.293l3.017-.035,2.108,2.158c.188.192.445.301.715.301s.527-.108.715-.301l2.108-2.158,3.017.035c.248-.016.528-.103.719-.293s.296-.449.293-.719l-.035-3.017,2.158-2.108c.192-.188.301-.445.301-.715s-.108-.527-.301-.715l-2.158-2.108ZM37.112,39.692c-.195.19-.304.453-.301.727l.028,2.421-2.421-.028c-.3-.011-.537.105-.727.301l-1.692,1.732-1.692-1.732c-.188-.192-.445-.301-.715-.301h-.012l-2.421.028.028-2.421c.003-.273-.105-.536-.301-.727l-1.732-1.692,1.732-1.692c.195-.19.304-.453.301-.727l-.028-2.421,2.421.028c.266-.026.536-.105.727-.301l1.692-1.732,1.692,1.732c.19.195.459.307.727.301l2.421-.028-.028,2.421c-.003.273.105.536.301.727l1.732,1.692-1.732,1.692Z"/>
  <path d="M32,17c1.654,0,3-1.346,3-3s-1.346-3-3-3-3,1.346-3,3,1.346,3,3,3ZM32,13c.552,0,1,.448,1,1s-.448,1-1,1-1-.448-1-1,.448-1,1-1Z"/>
</svg>