<?xml version="1.0" encoding="UTF-8"?>
<svg id="Outline" xmlns="http://www.w3.org/2000/svg" version="1.1" viewBox="0 0 64 64">
  <!-- Generator: Adobe Illustrator 29.3.1, SVG Export Plug-In . SVG Version: 2.1.0 Build 151)  -->
  <path d="M54,21h-1v-3c0-1.65002-1.34998-3-3-3H14c-1.65002,0-3,1.34998-3,3v3h-1c-1.65002,0-3,1.34998-3,3v8c0,1.64996,1.34998,3,3,3h1v3c0,.89996.40002,1.70001,1.03003,2.25,1.28998,5.14996,5.89996,8.75,11.21997,8.75h17.5c5.32001,0,9.92999-3.60004,11.21997-8.75.63-.54999,1.03003-1.35004,1.03003-2.25v-3h1c1.65002,0,3-1.35004,3-3v-8c0-1.65002-1.34998-3-3-3ZM11,33h-1c-.54999,0-1-.45001-1-1v-8c0-.54999.45001-1,1-1h1v10ZM42,17h4v22h-4v-6.04004c1.26001-1.41998,2-3.13,2-4.95996,0-1.98999-.95001-2.64001-2-2.95001v-8.04999ZM36,17h4v7.64001c-.48999-.12006-1.01001-.28003-1.57001-.54004-.51001-.23999-1.21997-1.08002-1.91998-1.89996-.16998-.19-.34003-.39001-.51001-.59003v-4.60999ZM30,17h4v2.70996c-.62-.42999-1.28003-.70996-2-.70996-.67999,0-1.34998.04999-2,.14001v-2.14001ZM24,17h4v2.52997c-1.48999.39001-2.84003,1-4,1.78003v-4.31ZM23.73999,24.07001c1.79999-1.85004,4.83002-3.07001,8.26001-3.07001.85999,0,2.03998,1.39001,2.98999,2.5.87,1.01996,1.69,1.97998,2.58002,2.39996,1.21002.58002,2.28998.77002,3.07001.91003q1.35999.22998,1.35999,1.19c0,1.42999-.62,2.76001-1.67999,3.87l-.06.06c-1.79999,1.84998-4.83002,3.07001-8.26001,3.07001s-6.46002-1.22003-8.26001-3.07001l-.06-.06c-1.06-1.10999-1.67999-2.44-1.67999-3.87s.62-2.76001,1.67999-3.87c.02002-.02002.03998-.04004.06-.06ZM40,34.69v4.31h-4v-2.53003c1.48999-.39001,2.84003-1,4-1.77997ZM34,36.85999v2.14001h-4v-2.14001c.65002.09003,1.32001.14001,2,.14001s1.34998-.04999,2-.14001ZM28,36.46997v2.53003h-4v-4.31c1.15997.77997,2.51001,1.38995,4,1.77997ZM18,17h4v6.03998c-1.26001,1.41998-2,3.13-2,4.96002s.73999,3.53998,2,4.95996v6.04004h-4v-22ZM13,38v-20c0-.54999.45001-1,1-1h2v22h-2c-.54999,0-1-.45001-1-1ZM40.75,47h-17.5c-3.96002,0-7.42999-2.41003-8.87-6h35.23999c-1.44,3.58997-4.90997,6-8.87,6ZM51,38c0,.54999-.45001,1-1,1h-2v-22h2c.54999,0,1,.45001,1,1v20ZM55,32c0,.54999-.45001,1-1,1h-1v-10h1c.54999,0,1,.45001,1,1v8Z"/>
  <path d="M26.70703,25.29297c-.39062-.39062-1.02344-.39062-1.41406,0s-.39062,1.02344,0,1.41406l5.99997,5.99997c.37079.37079,1.03032.38379,1.41409.00003.39062-.39062.39062-1.02344,0-1.41406l-6-6Z"/>
  <path d="M32.70703,25.29297c-.39062-.39062-1.02344-.39062-1.41406,0s-.39062,1.02344,0,1.41406l3.99999,3.99999c.36639.36639,1.03333.38075,1.41407,0,.39062-.39062.39062-1.02344,0-1.41406l-4-4Z"/>
</svg>