<?xml version="1.0" encoding="UTF-8"?>
<svg id="Outline" xmlns="http://www.w3.org/2000/svg" version="1.1" viewBox="0 0 64 64">
  <!-- Generator: Adobe Illustrator 29.5.1, SVG Export Plug-In . SVG Version: 2.1.0 Build 141)  -->
  <path d="M32,47.009c-1.654,0-3,1.346-3,3s1.346,3,3,3,3-1.346,3-3-1.346-3-3-3ZM32,51.009c-.551,0-1-.448-1-1s.449-1,1-1,1,.448,1,1-.449,1-1,1Z"/>
  <path d="M50.18,17.049c0-4.26-2.492-8.171-6.348-9.966-.3-.139-.651-.121-.935.048-.285.17-.466.471-.485.801l-.22,3.846c-.033.624-.377,1.195-.924,1.529-1.41.863-2.132,2.533-1.797,4.152l.079.386c.027.135.041.27.041.404,0,.805-.508,1.533-1.258,1.809-1.275.459-2.304,1.397-2.899,2.652l-.54,1.17c-.231.5-.014,1.092.485,1.325,2.498,1.166,3.582,4.145,2.417,6.641l-5.223,11.192c-.189-.015-.378-.029-.571-.029s-.382.014-.571.029l-5.223-11.192c-1.165-2.496-.081-5.475,2.417-6.641.499-.233.716-.825.485-1.325l-.544-1.18c-.591-1.245-1.62-2.184-2.888-2.64-.757-.278-1.265-1.007-1.265-1.812,0-.135.014-.27.04-.4l.079-.388c.335-1.621-.387-3.291-1.799-4.155-.545-.333-.889-.904-.922-1.534l-.22-3.84c-.019-.33-.201-.631-.485-.801-.283-.169-.634-.188-.935-.048-3.856,1.795-6.348,5.706-6.348,9.966,0,1.619.348,3.185,1.034,4.652l2.3,4.931c.234.5.829.715,1.329.483.5-.233.717-.828.483-1.329l-2.301-4.931c-.561-1.202-.846-2.482-.846-3.807,0-2.968,1.478-5.729,3.864-7.39l.127,2.222c.066,1.285.769,2.456,1.876,3.131.693.425,1.048,1.246.882,2.047l-.08.394c-.053.264-.08.532-.08.797,0,1.64,1.035,3.122,2.582,3.691.775.278,1.402.853,1.761,1.607l.152.33c-2.866,1.873-3.999,5.624-2.511,8.813l5.044,10.81c-.634.25-1.221.59-1.749,1.004l-5.343-11.468c-.233-.502-.829-.717-1.329-.484-.5.233-.717.828-.484,1.328l5.681,12.194c-.765,1.122-1.214,2.476-1.214,3.934,0,3.859,3.14,7,7,7s7-3.141,7-7c0-1.457-.449-2.812-1.214-3.934l11.36-24.374c.687-1.468,1.034-3.033,1.034-4.652ZM32,55.009c-2.757,0-5-2.243-5-5s2.243-5,5-5,5,2.243,5,5-2.243,5-5,5ZM47.334,20.856l-11.023,23.65c-.528-.414-1.115-.754-1.749-1.004l5.044-10.81c1.488-3.189.355-6.94-2.511-8.813l.148-.32c.363-.765.99-1.339,1.772-1.62,1.54-.566,2.575-2.049,2.575-3.688,0-.265-.027-.533-.08-.801l-.08-.392c-.165-.799.189-1.62.881-2.044,1.109-.676,1.812-1.847,1.878-3.126l.127-2.228c2.387,1.661,3.864,4.422,3.864,7.39,0,1.324-.285,2.604-.846,3.807Z"/>
  <circle cx="19.739" cy="29.836" r="1"/>
</svg>