<?xml version="1.0" encoding="UTF-8"?>
<svg id="Outline" xmlns="http://www.w3.org/2000/svg" version="1.1" viewBox="0 0 64 64">
  <!-- Generator: Adobe Illustrator 29.5.1, SVG Export Plug-In . SVG Version: 2.1.0 Build 141)  -->
  <path d="M23.995,29c2.409,0,4.422-.908,5.668-2.558.333-.44.245-1.067-.195-1.4-.439-.335-1.069-.247-1.4.195-.859,1.137-2.305,1.763-4.072,1.763-2.417,0-5-1.269-5-4.83,0-3.247,2.23-7.17,5-7.17,1.574,0,3.173,1.352,4.171,3.527.231.503.825.72,1.326.492.502-.23.723-.824.492-1.326-1.329-2.896-3.624-4.693-5.989-4.693-4.007,0-7,4.841-7,9.17,0,4.085,2.813,6.83,7,6.83Z"/>
  <path d="M54.266,28.365l.032-.032c1.168-1.17,1.168-3.073,0-4.244-1.171-1.169-3.074-1.166-4.243,0l-12.06,12.06v-.68c0-2.881-1.488-5.484-3.909-6.983.566-1.175.909-2.635.909-4.487,0-6.768-4.388-17-11-17s-11,10.232-11,17c0,1.851.342,3.312.909,4.487-2.421,1.499-3.909,4.102-3.909,6.983v9.09c0,1.515-.241,3.003-.718,4.422-.489,1.456-1.189,2.794-2.081,3.976-.195.26-.253.6-.153.909s.345.552.655.648c5.304,1.649,10.787,2.485,16.297,2.485s10.993-.836,16.297-2.485c.311-.097.555-.338.654-.647.101-.31.044-.647-.151-.908-1.791-2.387-2.781-5.342-2.797-8.327l10.604-10.603c2.031,2.405,3.03,5.508,2.741,8.673l-.164,1.804c-.089.979,1.236,1.477,1.81.672l1.84-2.576c3.121-4.368,2.842-10.201-.563-14.236ZM51.469,25.505c.388-.388,1.027-.388,1.414,0,.391.39.391,1.025,0,1.415,0,0-.705.705-.71.71,0,0-4.239,4.239-4.241,4.241,0,0-11.642,11.641-11.646,11.645l-3.203,3.203c-.885.885-2.336-.491-1.413-1.414l6.013-6.013c.011-.011.022-.021.033-.033,0,0,13.753-13.753,13.753-13.753ZM23.995,9c5.136,0,9,9.1,9,15,0,4.972-2.607,7-9,7s-9-2.028-9-7c0-5.9,3.864-15,9-15ZM38.398,52.991c-9.409,2.666-19.395,2.668-28.804,0,.647-1.045,1.176-2.175,1.579-3.373.545-1.625.821-3.327.821-5.059v-1.888c.648.896,1.528,1.617,2.567,2.032,1.478.591,2.433,2.002,2.433,3.594v.702c0,.553.447,1,1,1s1-.447,1-1v-.702c0-2.415-1.448-4.555-3.69-5.451-.979-.392-1.765-1.178-2.156-2.156l-1.153-2.883v-2.337c0-2.204,1.151-4.194,3.021-5.323,2.237,2.451,5.928,2.853,8.979,2.853s6.741-.402,8.979-2.853c1.87,1.129,3.021,3.119,3.021,5.323v2.68s-5.735,5.735-5.739,5.739c-1.157,1.157-1.155,3.088,0,4.243,1.153,1.153,3.093,1.152,4.242,0l1.625-1.625c.285,2.293,1.06,4.518,2.275,6.484ZM53.386,41.173c-.102-3.153-1.288-6.165-3.364-8.563l2.822-2.822c2.647,3.252,2.897,7.848.542,11.385Z"/>
  <circle cx="29.995" cy="22" r="1"/>
</svg>