<?xml version="1.0" encoding="UTF-8"?>
<svg id="Outline" xmlns="http://www.w3.org/2000/svg" version="1.1" viewBox="0 0 64 64">
  <!-- Generator: Adobe Illustrator 29.5.1, SVG Export Plug-In . SVG Version: 2.1.0 Build 141)  -->
  <path d="M54,29h-1.86l4.47-4.46c.39-.39.39-1.03,0-1.42l-2.83-2.83c-.39-.39-1.03-.39-1.42,0l-3.39,3.4c-.16-1.51-1.42-2.69-2.97-2.69h-1v-3c0-.55-.45-1-1-1h-6c-.55,0-1,.45-1,1v3h-1.03c-.35-7.8-4.68-14-9.97-14-5.51,0-10,6.73-10,15,0,.97.08,1.92.2,2.86l-4.56-4.57c-.39-.39-1.03-.39-1.42,0l-2.83,2.83c-.39.39-.39,1.03,0,1.42l4.47,4.46h-1.86c-1.65,0-3,1.35-3,3v2c0,1.33.88,2.45,2.08,2.84l1.75,17.46c.15,1.54,1.43,2.7,2.98,2.7h36.38c1.55,0,2.83-1.16,2.98-2.7l1.75-17.46c1.2-.39,2.08-1.51,2.08-2.84v-2c0-1.65-1.35-3-3-3ZM49,26.48l4.07-4.07,1.42,1.42-5.17,5.17h-.32v-2.52ZM39,19h4v2h-4v-2ZM26,9c4.41,0,8,5.83,8,13v.26c-.03,2.05-.36,4.06-.95,5.83-.1.31-.21.61-.33.91h-13.41c-.85-2.1-1.31-4.5-1.31-7,0-7.17,3.59-13,8-13ZM9.51,23.83l1.42-1.42,6.03,6.04c.06.19.15.36.21.55h-2.49l-5.17-5.17ZM13.81,55c-.52,0-.94-.39-.99-.9l-1.71-17.1h3.98l1.74,17.3c.02.24.08.48.16.7h-3.18ZM19.81,55c-.52,0-.94-.39-.99-.9l-1.71-17.1h3.98l1.74,17.3c.02.24.08.48.16.7h-3.18ZM25.81,55c-.52,0-.94-.39-.99-.9l-1.71-17.1h3.98l1.74,17.3c.02.24.08.48.16.7h-3.18ZM33.18,54.1c-.05.51-.47.9-.99.9h-.38c-.52,0-.94-.39-.99-.9l-1.71-17.1h5.78l-1.71,17.1ZM39.18,54.1c-.05.51-.47.9-.99.9h-3.18c.08-.22.14-.46.16-.7l1.74-17.3h3.98l-1.71,17.1ZM45.18,54.1c-.05.51-.47.9-.99.9h-3.18c.08-.22.14-.46.16-.7l1.74-17.3h3.98l-1.71,17.1ZM51.18,54.1c-.05.51-.47.9-.99.9h-3.18c.08-.22.14-.46.16-.7l1.74-17.3h3.98l-1.71,17.1ZM55,34c0,.55-.45,1-1,1H10c-.55,0-1-.45-1-1v-2c0-.55.45-1,1-1h27c.55,0,1-.45,1-1s-.45-1-1-1h-2v-.46c.55-1.7.87-3.59.96-5.54h10.04c.55,0,1,.45,1,1v5h-2c-.55,0-1,.45-1,1s.45,1,1,1h9c.55,0,1,.45,1,1v2Z"/>
  <path d="M20.999,24c.064,0,.131-.006.197-.02l10-2c.541-.108.893-.635.784-1.177-.107-.541-.628-.897-1.177-.784l-10,2c-1.12.224-.974,1.98.195,1.98Z"/>
  <path d="M20.999,20c.064,0,.131-.006.197-.02l10-2c.541-.108.893-.635.784-1.177-.107-.541-.628-.897-1.177-.784l-10,2c-.541.108-.893.635-.784,1.177.095.476.513.804.979.804Z"/>
  <path d="M30.804,24.02l-10,2c-1.144.229-.981,1.98.195,1.98.064,0,.131-.006.197-.02l10-2c.541-.108.893-.635.784-1.177-.107-.541-.628-.896-1.177-.784Z"/>
  <circle cx="41" cy="30" r="1"/>
</svg>