<?xml version="1.0" encoding="UTF-8"?>
<svg id="Outline" xmlns="http://www.w3.org/2000/svg" version="1.1" viewBox="0 0 64 64">
  <!-- Generator: Adobe Illustrator 29.5.1, SVG Export Plug-In . SVG Version: 2.1.0 Build 141)  -->
  <path d="M48,27c-.35,0-.69.04-1.03.1-.06-1.03-.42-2.02-1.07-2.82l-6.1-7.63c1.87-.73,3.2-2.53,3.2-4.65,0-2.76-2.24-5-5-5h-22c-2.76,0-5,2.24-5,5,0,2.12,1.33,3.92,3.2,4.65l-6.1,7.63c-.71.88-1.1,1.99-1.1,3.12v28.6c0,.04.02.07.02.11.01.07.02.14.04.2.03.07.06.13.09.19.02.03.03.07.05.1.01.02.03.02.05.04.06.08.15.14.24.2.03.02.06.05.09.06.13.06.27.1.42.1h38c.22,0,.41-.08.57-.2.47.12.94.2,1.43.2,5.05,0,9-6.59,9-15s-3.95-15-9-15ZM19.97,9h18.03c1.65,0,3,1.35,3,3s-1.35,3-3,3h-18.03c.64-.84,1.03-1.87,1.03-3s-.39-2.16-1.03-3ZM13,12c0-1.65,1.35-3,3-3s3,1.35,3,3-1.35,3-3,3-3-1.35-3-3ZM9,27.4c0-.68.23-1.34.66-1.87l5.34-6.68v30.65l-6,4.5v-26.6ZM11,55l5-3.75,5,3.75h-10ZM23,54l-6-4.5v-30.65l5.34,6.68c.43.53.66,1.19.66,1.87v26.6ZM25,55v-27.6c0-1.13-.39-2.24-1.1-3.12l-5.82-7.28h19.44l6.82,8.53c.43.53.66,1.19.66,1.87v.44c-.92.52-1.76,1.28-2.51,2.24-1.55-1.99-3.46-3.08-5.49-3.08-5.05,0-9,6.59-9,15,0,5.63,1.78,10.43,4.46,13h-7.46ZM37,55c-3.79,0-7-5.95-7-13s3.21-13,7-13c1.56,0,3.08,1.02,4.32,2.87-.54,1-1.01,2.13-1.37,3.36l-7.19,1.8c-.54.13-.86.68-.73,1.21.126.513.694.859,1.21.73l6.17-1.54c-.18.97-.3,1.98-.36,3.03l-6.29,1.57c-.54.13-.86.68-.73,1.21.13.528.683.862,1.21.73l5.78-1.44c.02.99.09,1.95.21,2.88l-6.47,1.62c-.54.13-.86.68-.73,1.21.13.528.683.862,1.21.73l6.35-1.59c.4,1.78.99,3.38,1.73,4.75-1.24,1.85-2.76,2.87-4.32,2.87ZM41.52,55c.34-.32.66-.68.97-1.08.31.39.63.76.97,1.08h-1.94ZM48,55c-3.79,0-7-5.95-7-13s3.21-13,7-13,7,5.95,7,13-3.21,13-7,13Z"/>
  <path d="M51.758,40.03l-8,2c-.536.134-.862.677-.728,1.212.132.525.686.861,1.212.728l8-2c.536-.134.862-.677.728-1.212-.134-.536-.68-.863-1.212-.728Z"/>
  <path d="M43.999,38.999c.081,0,.162-.008.243-.029l8-2c.536-.134.862-.677.728-1.212-.134-.536-.68-.863-1.212-.728l-8,2c-.536.134-.862.677-.728,1.212.112.444.527.752.969.757Z"/>
  <path d="M51.758,45.03l-8,2c-.536.134-.862.677-.728,1.212.132.525.687.86,1.212.728l8-2c.536-.134.862-.677.728-1.212-.134-.536-.68-.864-1.212-.728Z"/>
</svg>