<?xml version="1.0" encoding="UTF-8"?>
<svg id="Outline" xmlns="http://www.w3.org/2000/svg" version="1.1" viewBox="0 0 64 64">
  <!-- Generator: Adobe Illustrator 29.0.0, SVG Export Plug-In . SVG Version: 2.1.0 Build 186)  -->
  <path d="M51.91998,45.89996c.69-1.32996,1.08002-2.82996,1.08002-3.89996,0-2.42999-1.75-4.46002-4.04999-4.90002-.31-3.13-2.22003-5.84998-5.03003-7.20001.69-1.32996,1.08002-2.82996,1.08002-3.89996,0-2.76001-2.23999-5-5-5s-5,2.23999-5,5c0,1.07001.39001,2.57001,1.08002,3.89996-1.78003.86005-3.20001,2.25-4.08002,3.96002-.88-1.71002-2.29999-3.09998-4.08002-3.96002.69-1.32996,1.08002-2.82996,1.08002-3.89996,0-2.76001-2.23999-5-5-5s-5,2.23999-5,5c0,1.07001.39001,2.57001,1.08002,3.89996-2.81,1.35004-4.72003,4.07001-5.03003,7.20001-2.29999.44-4.04999,2.47003-4.04999,4.90002,0,1.07001.39001,2.57001,1.08002,3.89996-3.08002,1.48004-5.08002,4.59003-5.08002,8.10004v2c0,.54999.45001,1,1,1h48c.54999,0,1-.45001,1-1v-2c0-3.51001-2-6.62-5.08002-8.10004ZM51,42c0,1.96997-1.60999,5-3,5s-3-3.03003-3-5c0-1.65002,1.34998-3,3-3s3,1.34998,3,3ZM40,23c1.65002,0,3,1.34998,3,3,0,1.96997-1.60999,5-3,5s-3-3.03003-3-5c0-1.65002,1.34998-3,3-3ZM35,42c0,1.96997-1.60999,5-3,5s-3-3.03003-3-5c0-1.65002,1.34998-3,3-3s3,1.34998,3,3ZM24,23c1.65002,0,3,1.34998,3,3,0,1.96997-1.60999,5-3,5s-3-3.03003-3-5c0-1.65002,1.34998-3,3-3ZM16,39c1.65002,0,3,1.34998,3,3,0,1.96997-1.60999,5-3,5s-3-3.03003-3-5c0-1.65002,1.34998-3,3-3ZM23,55h-14v-1c0-2.83002,1.67999-5.32001,4.23999-6.41003.76001.84003,1.69,1.41003,2.76001,1.41003s2-.57001,2.76001-1.41003c2.56,1.09003,4.23999,3.58002,4.23999,6.41003v1ZM19.91998,45.89996c.69-1.32996,1.08002-2.82996,1.08002-3.89996,0-2.39001-1.69-4.39001-3.92999-4.88.31-2.46002,1.88-4.54999,4.16998-5.53003.76001.84003,1.69,1.41003,2.76001,1.41003s2-.57001,2.76001-1.41003c2.28998.98004,3.85999,3.07001,4.16998,5.53003-2.23999.48999-3.92999,2.48999-3.92999,4.88,0,1.07001.39001,2.57001,1.08002,3.89996-1.78003.86005-3.20001,2.25-4.08002,3.96002-.88-1.71002-2.29999-3.09998-4.08002-3.96002ZM39,55h-14v-1c0-2.83002,1.67999-5.32001,4.23999-6.41003.76001.84003,1.69,1.41003,2.76001,1.41003s2-.57001,2.76001-1.41003c2.56,1.09003,4.23999,3.58002,4.23999,6.41003v1ZM35.91998,45.89996c.69-1.32996,1.08002-2.82996,1.08002-3.89996,0-2.39001-1.69-4.39001-3.92999-4.88.31-2.46002,1.88-4.54999,4.16998-5.53003.76001.84003,1.69,1.41003,2.76001,1.41003s2-.57001,2.76001-1.41003c2.28998.98004,3.85999,3.07001,4.16998,5.53003-2.23999.48999-3.92999,2.48999-3.92999,4.88,0,1.07001.39001,2.57001,1.08002,3.89996-1.78003.86005-3.20001,2.25-4.08002,3.96002-.88-1.71002-2.29999-3.09998-4.08002-3.96002ZM55,55h-14v-1c0-2.83002,1.67999-5.32001,4.23999-6.41003.76001.84003,1.69,1.41003,2.76001,1.41003s2-.57001,2.76001-1.41003c2.56,1.09003,4.23999,3.58002,4.23999,6.41003v1Z"/>
  <path d="M32,21c2.23242,0,7.94629-.61963,12.76562-6.35693.3125-.37158.3125-.91455,0-1.28613-4.81934-5.7373-10.5332-6.35693-12.76562-6.35693-6.70215,0-11.16016,4.44531-12.76562,6.35693-.3125.37158-.3125.91455,0,1.28613,1.60547,1.91162,6.06348,6.35693,12.76562,6.35693ZM32,9c1.86719,0,6.52344.50244,10.66895,5-4.14551,4.49756-8.80176,5-10.66895,5-5.20703,0-8.9043-3.11523-10.66406-5,1.75977-1.88477,5.45703-5,10.66406-5Z"/>
  <path d="M32,17c1.6543,0,3-1.3457,3-3s-1.3457-3-3-3-3,1.3457-3,3,1.3457,3,3,3ZM32,13c.55176,0,1,.44873,1,1s-.44824,1-1,1-1-.44873-1-1,.44824-1,1-1Z"/>
  <path d="M13.08594,22.37842c.19531.19531.45117.29297.70703.29297s.51172-.09766.70703-.29297c.39062-.39062.39062-1.02344,0-1.41406l-2.82812-2.82812c-.39062-.39062-1.02344-.39062-1.41406,0s-.39062,1.02344,0,1.41406l2.82812,2.82812Z"/>
  <path d="M8.74219,26.20703h4c.55273,0,1-.44775,1-1s-.44727-1-1-1h-4c-.55273,0-1,.44775-1,1s.44727,1,1,1Z"/>
  <path d="M17.32812,21.62109c.55273,0,1-.44775,1-1v-4c0-.55225-.44727-1-1-1s-1,.44775-1,1v4c0,.55225.44727,1,1,1Z"/>
  <path d="M50.20703,22.67139c.25586,0,.51172-.09766.70703-.29297l2.82812-2.82812c.39062-.39062.39062-1.02344,0-1.41406s-1.02344-.39062-1.41406,0l-2.82812,2.82812c-.39062.39062-.39062,1.02344,0,1.41406.19531.19531.45117.29297.70703.29297Z"/>
  <path d="M50.25781,25.20703c0,.55225.44727,1,1,1h4c.55273,0,1-.44775,1-1s-.44727-1-1-1h-4c-.55273,0-1,.44775-1,1Z"/>
  <path d="M46.67188,21.62109c.55273,0,1-.44775,1-1v-4c0-.55225-.44727-1-1-1s-1,.44775-1,1v4c0,.55225.44727,1,1,1Z"/>
</svg>