<?xml version="1.0" encoding="UTF-8"?>
<svg id="Outline" xmlns="http://www.w3.org/2000/svg" version="1.1" viewBox="0 0 64 64">
  <!-- Generator: Adobe Illustrator 29.5.1, SVG Export Plug-In . SVG Version: 2.1.0 Build 141)  -->
  <path d="M56,47c.55,0,1-.45,1-1v-6c0-.55-.45-1-1-1h-8c-.55,0-1,.45-1,1s.45,1,1,1h7v4H9v-4h35c.55,0,1-.45,1-1s-.45-1-1-1h-6.4c1.47-1.37,2.4-3.31,2.4-5.47,0-.85.2-1.69.58-2.45l2.31-4.63c.19-.37.13-.82-.15-1.13-.28-.3-.72-.4-1.11-.25l-.72.29c-3.45,1.38-6.19,3.85-7.91,6.93v-5.34c5.05-.5,9-4.77,9-9.95,0-5.51-4.49-10-10-10s-10,4.49-10,10c0,5.18,3.95,9.45,9,9.95v5.34c-1.72-3.08-4.46-5.55-7.91-6.93l-.72-.29c-.38-.15-.82-.05-1.11.25-.28.31-.34.76-.15,1.13l2.31,4.63c.38.76.58,1.6.58,2.45,0,2.16.93,4.1,2.4,5.47H8c-.55,0-1,.45-1,1v6c0,.55.45,1,1,1h1v2h-1c-.55,0-1,.45-1,1v6c0,.55.45,1,1,1h48c.55,0,1-.45,1-1v-6c0-.55-.45-1-1-1h-1v-2h1ZM39.83,28.1l-1.04,2.09c-.52,1.03-.79,2.18-.79,3.34,0,2.84-2.18,5.19-4.96,5.45.33-4.57,2.88-8.6,6.79-10.88ZM24,17c0-4.41,3.59-8,8-8s8,3.59,8,8-3.59,8-8,8-8-3.59-8-8ZM26,33.53c0-1.16-.27-2.31-.79-3.34l-1.04-2.09c3.91,2.28,6.46,6.31,6.79,10.88-2.78-.26-4.96-2.61-4.96-5.45ZM55,55H9v-4h28c.55,0,1-.45,1-1s-.45-1-1-1H11v-2h42v2h-12c-.55,0-1,.45-1,1s.45,1,1,1h14v4Z"/>
  <path d="M33,22v-1.024c1.121-.12,2-1.06,2-2.212,0-.852-.473-1.617-1.236-2l-2.633-1.315c-.081-.041-.131-.122-.131-.212,0-.13.106-.236.236-.236h2.764c.552,0,1-.447,1-1s-.448-1-1-1h-1v-1c0-.553-.448-1-1-1s-1,.447-1,1v1.024c-1.121.12-2,1.06-2,2.212,0,.852.473,1.617,1.236,2l2.633,1.315c.081.041.131.122.131.212,0,.13-.106.236-.236.236h-2.764c-.552,0-1,.447-1,1s.448,1,1,1h1v1c0,.553.448,1,1,1s1-.447,1-1Z"/>
</svg>