<?xml version="1.0" encoding="UTF-8"?>
<svg id="Outline" xmlns="http://www.w3.org/2000/svg" version="1.1" viewBox="0 0 64 64">
  <!-- Generator: Adobe Illustrator 29.5.1, SVG Export Plug-In . SVG Version: 2.1.0 Build 141)  -->
  <path d="M56,50.5h-1v-16c0-.55-.45-1-1-1s-1,.45-1,1v16h-4v-22h4v2c0,.55.45,1,1,1s1-.45,1-1v-3c0-.55-.45-1-1-1h-6c-.55,0-1,.45-1,1v5h-5c-.55,0-1,.45-1,1v17h-2v-11c0-.55-.45-1-1-1s-1,.45-1,1v11h-4v-16h4v1c0,.55.45,1,1,1s1-.45,1-1v-2c0-.55-.45-1-1-1h-6c-.55,0-1,.45-1,1v5h-5c-.55,0-1,.45-1,1v11h-2v-11c0-.55-.45-1-1-1h-6c-.55,0-1,.45-1,1v5h-5c-.55,0-1,.45-1,1v5h-1c-.55,0-1,.45-1,1s.45,1,1,1h48c.55,0,1-.45,1-1s-.45-1-1-1ZM15,50.5h-4v-4h4v4ZM21,50.5h-4v-10h4v10ZM31,50.5h-4v-10h4v10ZM47,50.5h-4v-16h4v16Z"/>
  <path d="M12.703,37.617c.195.195.451.293.707.293s.512-.098.707-.292l8.127-8.118h17.586c.265,0,.52-.105.708-.293l10.873-10.882.882.882c.286.286.715.371,1.09.217.374-.155.617-.52.617-.924v-6c0-.552-.448-1-1-1h-6c-.404,0-.769.244-.924.617-.155.374-.069.804.217,1.09l.882.882-9.419,9.411h-17.586c-.266,0-.52.105-.708.293l-9.58,9.59c-.39.39-.39,1.023,0,1.414l2.82,2.82ZM20.584,25.5h17.585c.265,0,.519-.105.707-.292l10.42-10.41c.188-.188.293-.442.293-.708,0-.213-.068-.419-.192-.59h2.603v2.603c-.382-.277-.958-.237-1.297.101l-11.287,11.297h-17.585c-.265,0-.519.105-.707.292l-7.713,7.704-1.407-1.407,8.581-8.589Z"/>
</svg>