<?xml version="1.0" encoding="UTF-8"?>
<svg id="Outline" xmlns="http://www.w3.org/2000/svg" version="1.1" viewBox="0 0 64 64">
  <!-- Generator: Adobe Illustrator 29.5.1, SVG Export Plug-In . SVG Version: 2.1.0 Build 141)  -->
  <path d="M43.51,39.19c.42-1.26.63-2.57.63-3.9,0-5.23-3.31-9.89-8.14-11.6v-7.57l.28-1.12h.72c.55,0,1-.45,1-1s-.45-1-1-1h-.22l.5-2h.72c.55,0,1-.45,1-1s-.45-1-1-1h-.22l.19-.76c.07-.3.01-.61-.18-.86-.19-.24-.48-.38-.79-.38h-10c-.31,0-.6.14-.79.38-.19.25-.25.56-.18.86l.19.76h-.22c-.55,0-1,.45-1,1s.45,1,1,1h.72l.5,2h-.22c-.55,0-1,.45-1,1s.45,1,1,1h.72l.28,1.12v7.57c-4.83,1.71-8.14,6.37-8.14,11.6,0,1.33.21,2.64.63,3.9-1.63,1.91-2.49,4.13-2.49,6.46,0,6.26,6.28,11.35,14,11.35s14-5.09,14-11.35c0-2.33-.86-4.55-2.49-6.46ZM35.72,9l-1.5,6h-4.44l-1.5-6h7.44ZM34,17v12h-4v-12h4ZM36,54.45c-1.25.35-2.6.55-4,.55s-2.75-.2-4-.55v-1.45c0-.55.45-1,1-1h6c.55,0,1,.45,1,1v1.45ZM38,53.73v-.73c0-1.65-1.35-3-3-3h-6c-1.65,0-3,1.35-3,3v.73c-3.58-1.61-6-4.63-6-8.08,0-2,.81-3.92,2.36-5.54.26-.28.34-.69.2-1.05-.46-1.22-.7-2.49-.7-3.77,0-4.14,2.47-7.85,6.14-9.45v4.16c0,.55.45,1,1,1h6c.55,0,1-.45,1-1v-4.16c3.67,1.6,6.14,5.31,6.14,9.45,0,1.28-.24,2.55-.7,3.77-.14.36-.06.77.2,1.05,1.55,1.62,2.36,3.54,2.36,5.54,0,3.45-2.42,6.47-6,8.08Z"/>
  <path d="M32,35c-3.309,0-6,2.691-6,6s2.691,6,6,6,6-2.691,6-6-2.691-6-6-6ZM32,45c-2.206,0-4-1.794-4-4s1.794-4,4-4,4,1.794,4,4-1.794,4-4,4Z"/>
</svg>