<?xml version="1.0" encoding="UTF-8"?>
<svg id="Outline" xmlns="http://www.w3.org/2000/svg" version="1.1" viewBox="0 0 64 64">
  <!-- Generator: Adobe Illustrator 29.5.1, SVG Export Plug-In . SVG Version: 2.1.0 Build 141)  -->
  <path d="M23,18c-2.757,0-5,2.243-5,5s2.243,5,5,5,5-2.243,5-5-2.243-5-5-5ZM23,26c-1.654,0-3-1.346-3-3s1.346-3,3-3,3,1.346,3,3-1.346,3-3,3Z"/>
  <path d="M41,25c-.73,0-1.45.07-2.16.16.1-.71.16-1.43.16-2.16,0-8.82-7.18-16-16-16S7,14.18,7,23s7.18,16,16,16c.73,0,1.45-.06,2.16-.16-.09.71-.16,1.43-.16,2.16,0,8.82,7.18,16,16,16s16-7.18,16-16-7.18-16-16-16ZM23,37c-7.72,0-14-6.28-14-14s6.28-14,14-14,14,6.28,14,14c0,.88-.1,1.74-.26,2.59-1.22.34-2.4.81-3.49,1.42.1-.19.22-.38.36-.55l.29-.34c1.54-1.81,1.54-4.43,0-6.24l-.29-.34c-.38-.45-.61-1-.66-1.59l-.03-.45c-.19-2.37-2.05-4.23-4.43-4.42l-.42-.03c-.61-.05-1.16-.28-1.61-.66l-.34-.29c-1.81-1.54-4.43-1.54-6.24,0l-.34.29c-.45.38-1,.61-1.59.66l-.45.03c-2.37.19-4.23,2.05-4.42,4.43l-.03.42c-.05.61-.28,1.16-.66,1.61l-.29.34c-1.54,1.81-1.54,4.43,0,6.24l.29.34c.38.45.61,1,.66,1.59l.03.45c.19,2.37,2.05,4.23,4.43,4.42l.42.03c.61.05,1.16.28,1.61.66l.34.29c.91.77,2.01,1.16,3.12,1.16s2.21-.39,3.12-1.16l.34-.29c.17-.14.36-.26.55-.36-.61,1.09-1.08,2.27-1.42,3.49-.85.16-1.71.26-2.59.26ZM32.38,24.82l-.29.34c-.66.77-1.05,1.71-1.14,2.75l-.03.44c0,.08-.03.18-.05.28-.82.67-1.57,1.42-2.24,2.24-.1.02-.19.05-.28.05l-.46.03c-1.02.09-1.96.49-2.73,1.14l-.34.29c-1.04.88-2.6.88-3.64,0l-.34-.29c-.77-.65-1.71-1.05-2.75-1.14l-.43-.03c-1.39-.11-2.47-1.19-2.58-2.57l-.03-.46c-.09-1.02-.48-1.96-1.14-2.73l-.29-.34c-.88-1.04-.88-2.6,0-3.64l.29-.34c.66-.77,1.05-1.71,1.14-2.75l.03-.43c.11-1.39,1.19-2.47,2.57-2.58l.46-.03c1.02-.09,1.96-.49,2.73-1.14l.34-.29c1.04-.88,2.6-.88,3.64,0l.34.29c.77.65,1.71,1.05,2.75,1.14l.43.03c1.39.11,2.47,1.19,2.58,2.57l.03.46c.09,1.02.48,1.96,1.14,2.73l.29.34c.88,1.04.88,2.6,0,3.64ZM41,55c-7.72,0-14-6.28-14-14s6.28-14,14-14,14,6.28,14,14-6.28,14-14,14Z"/>
  <path d="M41,36c-2.757,0-5,2.243-5,5s2.243,5,5,5,5-2.243,5-5-2.243-5-5-5ZM41,44c-1.654,0-3-1.346-3-3s1.346-3,3-3,3,1.346,3,3-1.346,3-3,3Z"/>
  <path d="M51.902,37.88l-.289-.34c-.385-.453-.613-1.005-.661-1.598l-.036-.444c-.192-2.365-2.049-4.222-4.415-4.414l-.442-.036c-.594-.048-1.146-.277-1.599-.662l-.339-.288h0c-1.809-1.537-4.434-1.537-6.242,0l-.34.288c-.452.385-1.004.614-1.597.662l-.444.036c-2.365.192-4.222,2.048-4.414,4.414l-.036.444c-.048.592-.276,1.145-.662,1.598l-.287.339c-1.537,1.808-1.537,4.433,0,6.241l.289.34c.385.453.613,1.005.661,1.598l.036.444c.192,2.365,2.049,4.222,4.415,4.414l.442.036c.594.048,1.146.277,1.599.662l.339.289c.904.768,2.013,1.152,3.121,1.152s2.217-.384,3.121-1.153l.34-.288c.452-.385,1.004-.614,1.597-.662l.444-.036c2.365-.192,4.222-2.048,4.414-4.414l.036-.444c.048-.592.276-1.145.662-1.598l.287-.339c1.537-1.808,1.537-4.433,0-6.241ZM50.377,42.826l-.287.338c-.658.774-1.05,1.719-1.132,2.731l-.036.444c-.112,1.384-1.198,2.47-2.581,2.583l-.444.036c-1.014.083-1.959.474-2.731,1.132l-.339.288c-1.059.899-2.594.899-3.652,0l-.338-.288c-.773-.658-1.719-1.049-2.733-1.132l-.442-.036c-1.384-.112-2.47-1.198-2.582-2.583l-.036-.443c-.082-1.013-.474-1.958-1.131-2.731l-.289-.34c-.898-1.058-.898-2.593,0-3.652l.287-.338c.658-.774,1.05-1.719,1.132-2.731l.036-.444c.112-1.384,1.198-2.47,2.581-2.583l.444-.036c1.014-.083,1.959-.474,2.731-1.132l.339-.288c.529-.45,1.178-.674,1.826-.674s1.297.225,1.826.674l.338.288c.773.658,1.719,1.049,2.733,1.132l.442.036c1.384.112,2.47,1.198,2.582,2.583l.036.443c.082,1.013.474,1.958,1.131,2.731l.289.34c.898,1.058.898,2.593,0,3.652Z"/>
</svg>