<?xml version="1.0" encoding="UTF-8"?>
<svg id="Outline" xmlns="http://www.w3.org/2000/svg" version="1.1" viewBox="0 0 64 64">
  <!-- Generator: Adobe Illustrator 29.5.1, SVG Export Plug-In . SVG Version: 2.1.0 Build 141)  -->
  <path d="M50.819,37.574c.112-.159.166-.345.18-.534.582-14.546-10.31-27.076-24.795-28.525l-15.104-1.51c-.521-.053-.995.308-1.085.824s.234,1.015.743,1.142c3.974.994,7.296,3.491,9.354,7.033,2.058,3.542,2.583,7.664,1.479,11.609,0,0-2.553,9.118-2.546,9.12-.08.286-.036.595.137.841l5.764,8.229-.69,10.129c-.023.343.131.675.41.877.278.202.642.247.961.119l9.375-3.769,9.375,3.769c.12.048.247.072.372.072.567,0,1.036-.507.998-1.068l-.69-10.129,5.764-8.229ZM23.516,28.151c1.251-4.469.656-9.14-1.675-13.153-1.266-2.178-2.952-4.007-4.95-5.405l9.114.912c13.033,1.303,22.928,12.279,23.015,25.251l-7.812-1.743-5.36-8.545c-.366-.583-1.328-.583-1.694,0l-5.36,8.545-7.379,1.646,2.103-7.509ZM43.214,44.945c-.131.187-.194.414-.179.642l.606,8.891-8.269-3.324c-.12-.048-.247-.072-.373-.072s-.253.024-.373.072l-8.269,3.324.606-8.891c.016-.228-.047-.455-.179-.642l-5.109-7.294,7.958-1.775c.261-.058.487-.218.629-.445l4.735-7.549,4.735,7.549c.142.227.369.387.629.445l7.958,1.775-5.109,7.294Z"/>
  <path d="M44.226,39.241c-.121-.311-.389-.542-.714-.614l-4.804-1.072-2.86-4.559c-.366-.583-1.328-.583-1.694,0l-2.86,4.559-4.804,1.072c-.326.073-.594.303-.714.614-.121.311-.079.662.113.936l3.145,4.489-.353,5.177c-.023.343.131.674.41.877.279.202.641.247.961.119l4.95-1.99,4.95,1.99c.121.048.247.072.373.072.574,0,1.037-.494.998-1.068l-.353-5.177,3.145-4.489c.192-.273.234-.625.113-.936ZM39.128,43.807c-.131.187-.194.414-.179.642l.269,3.939-3.844-1.545c-.12-.048-.247-.072-.373-.072s-.253.024-.373.072l-3.844,1.545.269-3.939c.016-.228-.047-.455-.179-.642l-2.489-3.554,3.753-.837c.261-.058.487-.218.629-.445l2.234-3.562,2.234,3.562c.142.227.369.387.629.445l3.753.837-2.489,3.554Z"/>
  <path d="M53,46h-1v-1c0-.552-.448-1-1-1s-1,.448-1,1v1h-1c-.552,0-1,.448-1,1s.448,1,1,1h1v1c0,.552.448,1,1,1s1-.448,1-1v-1h1c.552,0,1-.448,1-1s-.448-1-1-1Z"/>
  <path d="M22,53h-1v-1c0-.552-.448-1-1-1s-1,.448-1,1v1h-1c-.552,0-1,.448-1,1s.448,1,1,1h1v1c0,.552.448,1,1,1s1-.448,1-1v-1h1c.552,0,1-.448,1-1s-.448-1-1-1Z"/>
</svg>