<?xml version="1.0" encoding="UTF-8"?>
<svg id="Outline" xmlns="http://www.w3.org/2000/svg" version="1.1" viewBox="0 0 64 64">
  <!-- Generator: Adobe Illustrator 29.3.1, SVG Export Plug-In . SVG Version: 2.1.0 Build 151)  -->
  <path d="M32,7c-9.53003,0-17,3.95001-17,9v9c0,3.48999,1.35999,6.76996,3.83002,9.25l3.91998,3.91998c1.03998,1.03003,1.84998,2.23999,2.40997,3.59003.35004.87.60004,1.77997.73004,2.70996.20996,1.44,1.47998,2.53003,2.95996,2.53003h.15002v2.13c-1.71997.44-3,2.01001-3,3.87,0,2.20996,1.78998,4,4,4,.70001,0,1.39001-.19,2-.54999.60999.35999,1.29999.54999,2,.54999,2.21002,0,4-1.79004,4-4,0-1.85999-1.28003-3.42999-3-3.87v-2.13h.15002c1.47998,0,2.75-1.09003,2.95996-2.53003.33002-2.37,1.44-4.60999,3.14001-6.29999l3.91998-3.91998c2.47003-2.48004,3.83002-5.76001,3.83002-9.25v-9c0-5.04999-7.46997-9-17-9ZM36,53c0,1.09998-.90002,2-2,2-.62,0-1.07001-.28003-1.33002-.52002-.19-.16998-.42999-.26001-.66998-.26001s-.47998.09003-.66998.26001c-.26001.23999-.71002.52002-1.33002.52002-1.09998,0-2-.90002-2-2,0-1.10004.90002-2,2-2,.54999,0,1-.45001,1-1v-3h2v3c0,.54999.45001,1,1,1,1.09998,0,2,.89996,2,2ZM47,25c0,2.95996-1.15002,5.73999-3.25,7.82996l-3.91998,3.92004c-2,2-3.31,4.64001-3.70001,7.44-.07001.45996-.48999.81-.97998.81h-6.30005c-.48999,0-.90997-.35004-.97998-.81-.15002-1.10004-.44-2.17004-.87-3.19-.65997-1.60004-1.60999-3.03003-2.83002-4.25l-3.91998-3.92004c-2.09998-2.08997-3.25-4.87-3.25-7.82996v-4.70001c2.84003,2.82001,8.42999,4.70001,15,4.70001s12.15997-1.88,15-4.70001v4.70001ZM32,23c-8.13,0-15-3.21002-15-7s6.87-7,15-7,15,3.20996,15,7-6.87,7-15,7Z"/>
  <path d="M32,21c8.04932,0,12.66309-3.00195,13.34473-4.60938.10547-.25.10547-.53125,0-.78125-.68164-1.60742-5.29541-4.60938-13.34473-4.60938s-12.66309,3.00195-13.34473,4.60938c-.10547.25-.10547.53125,0,.78125.68164,1.60742,5.29541,4.60938,13.34473,4.60938ZM32,13c6.28174,0,10.02881,2.00391,11.16016,2.99902-1.1333.99805-4.87988,3.00098-11.16016,3.00098-6.28174,0-10.02881-2.00391-11.16016-2.99902,1.1333-.99805,4.87988-3.00098,11.16016-3.00098Z"/>
</svg>