<?xml version="1.0" encoding="UTF-8"?>
<svg id="Outline" xmlns="http://www.w3.org/2000/svg" version="1.1" viewBox="0 0 64 64">
  <!-- Generator: Adobe Illustrator 29.5.1, SVG Export Plug-In . SVG Version: 2.1.0 Build 141)  -->
  <path d="M35.03004,22.49655c.23999-.23999.57996-.34003.90997-.27002l7.84998,1.67999c.15002.03003.30005.03003.45001-.01001l10.51001-2.63c.19.89001.29999,1.81.31,2.74005,0,.54999.45001.98999,1,.98999h.01001c.54999,0,.98999-.46002.98999-1.01001-.02997-4-1.59998-7.75-4.40997-10.57001-5.66003-5.65002-14.73004-5.88-20.65002-.65997-5.91998-5.22003-14.98999-4.99005-20.65002.65997-5.88,5.89001-5.88,15.46002,0,21.34998l8.03003,8.03003c.20001.19.45001.28998.71002.28998.25995,0,.50995-.09998.70996-.28998.39001-.39001.39001-1.03003,0-1.41998l-4.09998-4.10004,3.84998.59003,7.84003,7.25c.57001.57001,1.32996.88,2.13.88.79999,0,1.54999-.31,2.12-.88.53998-.54999.82001-1.25.85999-1.96002.71002-.03998,1.41998-.32001,1.96997-.87.39001-.39001.64001-.87.76001-1.37l.02002.04999,9.87-2.51001-14.12,14.13-8.37-8.38c-.39001-.38995-1.03003-.38995-1.41998,0-.39001.39001-.39001,1.03003,0,1.42004l9.07996,9.07996c.20001.19.45001.29004.71002.29004s.51001-.10004.71002-.29004l19.94-19.94c1.81-1.81,3.13-4.06,3.81995-6.5.15002-.52997-.15997-1.07996-.68994-1.22998-.53003-.15997-1.08002.16003-1.23004.69-.59998,2.10999-1.75,4.04999-3.32001,5.62l-2.33997,2.35004-9.85999,2.5c.06995-.23004.10999-.47003.12994-.70001.71002-.04004,1.41003-.32001,1.96002-.85999.57001-.57001.88-1.33002.88-2.13,0-.80005-.31-1.55005-.89001-2.13l-5.87-5.73004c-.39001-.37-1-.37-1.39001,0h-.00995l-.01001.02002h-.01001l-3.16003,3.06c-.37994.38-1.03998.35999-1.41998-.01001-.39996-.39996-.39996-1.03998,0-1.44l5.79004-5.77997ZM12.77003,14.83652c5.10999-5.10999,13.40997-5.10999,18.51996,0,.39001.39001,1.03003.39001,1.42004,0,5.09998-5.10999,13.41998-5.10999,18.51996,0,1.30005,1.30005,2.29004,2.84003,2.94,4.52002l-10.19,2.53998-7.60999-1.62c-.98999-.22998-2.02997.07001-2.76001.79999l-2.01001,2.01001-.19-.17999c-.62-.62-1.40997-.98999-2.25-1.09998l-19.26996-2.63c.64001-1.58002,1.59998-3.06,2.88-4.34003ZM27.83003,31.13657c.57996.56995,1.32996.87994,2.13.87994.78998,0,1.52997-.29999,2.09998-.84998l2.47998-2.40997,5.16003,5.03998c.19.20001.29999.45001.29999.71002,0,.26996-.10999.51996-.29999.70996-.38.39001-1.02002.39001-1.40002,0l-2.79996-2.78995c-.60115-.599-1.71005-.13711-1.71005.71,0,.25995.09003.51996.29004.70996l2.79999,2.79004c.39001.38995.39001,1.01996,0,1.40997s-1.03003.39001-1.41998,0l-2.79004-2.78998c-.38995-.39001-1.01996-.39001-1.40997,0-.39001.38995-.39001,1.01996,0,1.40997l2.78998,2.78998c.39001.39001.39001,1.03003,0,1.42004-.39001.38995-1.01996.38995-1.40997,0l-.84003-.84003s-1.95001-1.96002-1.96-1.95005c-.39404-.37428-1.0208-.38915-1.40999.00004-.39001.39001-.39001,1.02002,0,1.41003l1.96002,1.95996.82996.84003c.39001.38.39001,1.02002,0,1.40002-.37994.38995-1.00995.40997-1.43994-.02002l-8.10004-7.47998c-.14996-.14001-.33002-.23004-.52997-.26001l-6.84003-1.04999-1.53998-1.54004c-3.32001-3.31-4.47003-7.97998-3.48004-12.23999l19.61005,2.67999c.41998.04999.79999.23999,1.10999.53998l.17999.18005-2.37,2.34998c-1.17999,1.17999-1.17999,3.09998.01001,4.28003Z"/>
</svg>