<?xml version="1.0" encoding="UTF-8"?>
<svg id="Outline" xmlns="http://www.w3.org/2000/svg" version="1.1" viewBox="0 0 48 48">
  <!-- Generator: Adobe Illustrator 29.0.0, SVG Export Plug-In . SVG Version: 2.1.0 Build 186)  -->
  <path d="M42.97998,32.97766c-.31.85999-.94,1.53998-1.76996,1.91003l-4.17004,1.84998c-.13995.06-.26996.08997-.40997.08997-.38,0-.75-.21997-.91003-.58997-.22998-.51001,0-1.09998.5-1.32001l4.17004-1.84998c.32996-.15002.57996-.42004.70001-.76001.12-.33002.09998-.69-.06-1.01001-.29004-.58002-.96002-.88-1.62006-.63l-11.31,4.23999c-.02997.01001-.04999,0-.07996.01001-.64001.65997-1.53003,1.08002-2.52002,1.08002h-5.5c-.54999,0-1-.45001-1-1s.45001-1,1-1h5.5c.83002,0,1.5-.67004,1.5-1.5,0-.83002-.66998-1.5-1.5-1.5h-5.5c-.08002,0-.15997-.01001-.23999-.03003l-3.88-.96997h-2.88v8h1c.08002,0,.15997.01001.23999.02997l6.92999,1.73004c1.71002.42999,3.57001.26996,5.15002-.44l6.22998-2.77002c.51001-.22998,1.10004,0,1.32001.5.22998.51001,0,1.09998-.5,1.32001l-6.22998,2.77002c-1.26001.56-2.65002.85999-4.04004.85999-.81995,0-1.63-.10004-2.41998-.29999l-6.79999-1.70001h-.88c0,.54999-.45001,1-1,1h-6c-.54999,0-1-.45001-1-1v-4c0-.54999.45001-1,1-1s1,.45001,1,1v3h4v-10h-4v3c0,.54999-.45001,1-1,1s-1-.45001-1-1v-4c0-.54999.45001-1,1-1h6c.54999,0,1,.45001,1,1h3c.08002,0,.15997.01001.23999.02997l3.88.97003h5.38c1.90997,0,3.46002,1.53998,3.48999,3.44l9.72003-3.65002c1.60999-.59998,3.39996.16003,4.10999,1.62.39996.79999.46002,1.71002.15997,2.57001Z"/>
  <path d="M19.82812,26.81115c.1875.1875.44141.29297.70703.29297s.51953-.10547.70703-.29297l7.07129-7.07129c.15912-.159.3056-.32703.44434-.5l4.0752,4.0752c.19531.19531.45117.29297.70703.29297s.51172-.09766.70703-.29297l7.07227-7.07227c2.32812-2.34082,2.32812-6.14941-.00391-8.49414-2.12109-2.10938-5.43652-2.31055-7.77637-.60254-2.34863-1.70605-5.66699-1.50488-7.78613.60449-.52252.52252-.92572,1.11749-1.21735,1.76971-.15399-.01172-.30823-.02264-.46429-.02264-1.28906,0-2.51562.40332-3.53613,1.15137-1.02051-.74805-2.24609-1.15137-3.53516-1.15137-1.60254,0-3.10938.62402-4.24219,1.75781-1.13379,1.13281-1.75781,2.63965-1.75781,4.24219s.62402,3.10938,1.75781,4.24219l7.07031,7.07129ZM27.16504,9.16662c1.56445-1.55469,4.10547-1.55469,5.66992,0,.3916.38867,1.02246.38867,1.41211-.00195,1.55566-1.55566,4.09277-1.55566,5.6543-.00195,1.55469,1.56348,1.55469,4.10645.00195,5.66797l-6.36328,6.36328-3.78461-3.78461c.2041-.60864.31586-1.25098.31586-1.91168,0-1.60254-.62402-3.10938-1.75781-4.24219-.52661-.5271-1.13641-.93866-1.79675-1.23395.17401-.30823.38849-.59509.64832-.85492ZM14.17188,12.66955c.75586-.75586,1.75977-1.17188,2.82812-1.17188s2.07227.41602,2.82812,1.17188c.1875.1875.44141.29297.70703.29297s.51953-.10547.70703-.29297c1.51172-1.51172,4.14551-1.51172,5.65723,0,.75586.75586,1.17188,1.75977,1.17188,2.82812s-.41602,2.07227-1.17188,2.82812l-6.36426,6.36426-6.36328-6.36426c-.75586-.75586-1.17188-1.75977-1.17188-2.82812s.41602-2.07227,1.17188-2.82812Z"/>
</svg>