<?xml version="1.0" encoding="UTF-8"?>
<svg id="Outline" xmlns="http://www.w3.org/2000/svg" version="1.1" viewBox="0 0 64 64">
  <!-- Generator: Adobe Illustrator 29.0.0, SVG Export Plug-In . SVG Version: 2.1.0 Build 186)  -->
  <path d="M32,37c8.271,0,15-6.729,15-15s-6.729-15-15-15-15,6.729-15,15,6.729,15,15,15ZM27.55469,27.16797l-2.71436-1.80957-.76074-2.28174.74219-1.48438,1.88525-1.88525c.12842-.12793.21924-.28857.26318-.46436l1-4c.05762-.23193.03076-.47656-.07568-.68994l-1-2c-.10742-.21484-.28857-.3833-.50977-.47559l-1.79181-.74658c1.06885-.74426,2.25024-1.33691,3.51874-1.73541l.94299,2.73102c.10156.29395.33398.52393.62891.62256l2.77637.92529,3.32324,3.32324-.67773,1.35547c-.19238.38525-.1167.8501.1875,1.1543l2,2c.12793.12842.28857.21924.46436.26318l4,1c.08008.02002.16162.02979.24268.02979.13135,0,.2627-.02588.38574-.07715l2.60583-1.08905c.00073.05591.00842.11011.00842.1662,0,1.33704-.2038,2.62714-.58032,3.84198l-.90796-.89423c-.15527-.15283-.35596-.25098-.57178-.2793l-3.97021-.52002c-.15381-.02051-.31055-.00439-.45703.04688l-2.10986.72998c-.23096.07959-.4248.2417-.54492.45508l-2.41309,4.2959-2.64453.51172c-.26074.05078-.49023.20215-.63867.42188l-1.25,1.8501c-.17627.26123-.21924.58936-.1167.88672l.46967,1.35815c-1.66412-.35797-3.2113-1.03235-4.57312-1.96173l2.86371-1.91156c.27783-.18555.44482-.49756.44482-.83154v-2c0-.33447-.16699-.64648-.44531-.83203ZM32,35c-.17755,0-.35022-.01959-.52606-.02667l-.62531-1.8078.73828-1.09277,2.69287-.521c.28857-.05615.53809-.23584.68213-.49219l2.4541-4.36865,1.52783-.52881,3.40381.4458,1.25073,1.23199c-2.14368,4.23993-6.53137,7.1601-11.59839,7.1601ZM44.79144,19.74933l-2.87103,1.19989-3.40918-.85205-1.29443-1.29443.67773-1.35547c.19238-.38525.1167-.8501-.1875-1.1543l-4-4c-.10986-.10986-.24365-.19238-.39062-.2417l-2.53223-.84375-.70746-2.04907c.62933-.09399,1.26819-.15845,1.92328-.15845,6.3996,0,11.72083,4.65186,12.79144,10.74933ZM22.85486,12.77271l2.41711,1.00708.66797,1.33643-.84277,3.37256-1.8042,1.8042c-.07617.07617-.13916.16357-.1875.25977l-1,2c-.11865.2373-.13818.51172-.0542.76367l1,3c.07031.21094.20898.39209.39404.51562l2.55469,1.70312v.93018l-2.93103,1.95654c-2.49969-2.37061-4.06897-5.71295-4.06897-9.42188,0-3.6051,1.47675-6.87018,3.85486-9.22729Z"/>
  <path d="M55.69,19.59998c-.39001-.27002-.84003-.45996-1.34998-.54999-1.72003-.29999-3.34003.77002-3.70001,2.42999l-2.32001,10.66003c-.25-.12006-.51001-.21002-.78998-.27002-.98004-.22003-2.01001-.02002-2.83002.52997l-12.70001,8.49005-12.70001-8.49005c-.82001-.54999-1.84998-.73999-2.83002-.52997-.27997.06-.53998.14996-.78998.27002l-2.32001-10.66003c-.35999-1.65997-1.97998-2.72998-3.70996-2.42999-.5.09003-.95001.27997-1.34003.54999-.84003.60999-1.33002,1.57001-1.31,2.60999l.63,15.06c.03998,1.39001.65997,2.73004,1.67999,3.67004l5.96002,5.59998c.63.59003,1,1.37,1.03998,2.17999l.12,2.13v.01001l.02002,5.14001c0,.54999.45001,1,1,1h29.09998c.54999,0,1-.45001,1-1l.02002-5.14001v-.01001l.12-2.13c.03998-.81.40997-1.58997,1.02997-2.17999l5.97003-5.58997c1.02002-.95001,1.64001-2.29004,1.67999-3.67004l.63-15.08997c.02002-1.02002-.46997-1.98004-1.31-2.59003ZM18.31,48.60999c-.07001-1.32001-.65997-2.57001-1.65997-3.52002l-5.98004-5.60999c-.63-.58997-1.01001-1.41998-1.03998-2.27997l-.63-15.05005c-.01001-.35999.16998-.69995.46997-.91998.15002-.09998.33002-.16998.52002-.21002.65002-.10999,1.28003.28003,1.41003.88l2.58997,11.92004c-.75,1.56-.23999,3.41998,1.29004,4.38l6.12994,3.87c.46002.29999,1.08002.15997,1.38-.31.29004-.47003.15002-1.08002-.31-1.38l-6.13995-3.87c-.69-.44-.90002-1.31-.48004-1.98004.23004-.35999.59003-.62,1.03003-.70996.45996-.10004.91998-.01001,1.29999.23999l12.76001,8.52997.01001,3.89001-12.60004,3.06-.04999-.92999ZM18.45001,55l-.01001-3.42004,12.52997-3.03998.03003,6.46002h-12.54999ZM45.54999,55h-12.54999l.03003-6.46002,12.52997,3.03998-.01001,3.42004ZM54.37,37.20996c-.02997.85004-.40997,1.68005-1.03998,2.27002l-5.98004,5.60999c-1,.95001-1.58997,2.20001-1.65997,3.52002l-.04999.92999-12.60004-3.06.01001-3.89001,12.76001-8.52997c.38-.25.84003-.34003,1.29999-.23999.44.08997.79999.34998,1.03003.70996.41998.67004.20996,1.54004-.48004,1.98004l-6.13995,3.87c-.46002.29999-.60004.90997-.31,1.38.29999.46997.91998.60999,1.38.31l6.13995-3.87c1.52002-.96002,2.03003-2.82001,1.28003-4.38l2.58997-11.92004c.13-.59998.75-1,1.40002-.88.20001.04004.38.11005.53003.21002.29999.22003.47998.56.46997.90002l-.63,15.07996Z"/>
</svg>