<?xml version="1.0" encoding="UTF-8"?>
<svg id="Outline" xmlns="http://www.w3.org/2000/svg" version="1.1" viewBox="0 0 48 48">
  <!-- Generator: Adobe Illustrator 29.0.0, SVG Export Plug-In . SVG Version: 2.1.0 Build 186)  -->
  <path d="M41,36.95828v-.18262c0-.99121.29004-1.95117.83984-2.77441.75879-1.1377,1.16016-2.46191,1.16016-3.83105,0-.94141-.18751-1.85645-.55859-2.71973,0,0-4.5678-10.65951-4.56934-10.66309-.73109-1.70609-2.82131-2.47317-4.48242-1.6416-1.50586.75195-2.19629,2.50879-1.60547,4.08691l1.78857,4.76874c-1.45087.20959-2.57275,1.44885-2.57275,2.95685v3.76367l-1.89453,3.78906c-.06934.13867-.10547.29199-.10547.44727v2c-.55273,0-1,.44727-1,1v4c0,.55273.44727,1,1,1h2c.55273,0,1-.44727,1-1s-.44727-1-1-1h-1v-2h10v2h-5c-.55273,0-1,.44727-1,1s.44727,1,1,1h6c.55273,0,1-.44727,1-1v-4c0-.55273-.44727-1-1-1ZM31,35.19461l1.89453-3.78906c.06934-.13867.10547-.29199.10547-.44727v-4c0-.55176.44824-1,1-1s1,.44824,1,1v4c0,.55273.44727,1,1,1s1-.44727,1-1v-4c0-.90594-.41205-1.70947-1.04883-2.26001-.00824-.03052-.00336-.06134-.01465-.09155l-2.2793-6.07617c-.23046-.61619.03905-1.30172.6269-1.59568.65058-.32533,1.46377-.02541,1.75005.6406l4.56934,10.66309c.2627.61328.39648,1.2627.39648,1.93164,0,.97266-.28516,1.91309-.82422,2.7207-.76953,1.1543-1.17578,2.49805-1.17578,3.88477v.18262h-8v-1.76367Z"/>
  <path d="M19,36.95828v-2c0-.15527-.03613-.30859-.10547-.44727l-1.89453-3.78906v-3.76367c0-1.508-1.12195-2.74725-2.57281-2.95685l1.78864-4.76971c.59082-1.57714-.0996-3.33397-1.60545-4.08593-1.66349-.83068-3.75198-.05916-4.48244,1.64257l-4.56934,10.66113c-.3711.86426-.55859,1.7793-.55859,2.7207,0,1.36914.40137,2.69336,1.16016,3.83008.5498.82422.83984,1.78418.83984,2.77539v.18262c-.55273,0-1,.44727-1,1v4c0,.55273.44727,1,1,1h4c.55273,0,1-.44727,1-1s-.44727-1-1-1h-3v-2h10v2h-3c-.55273,0-1,.44727-1,1s.44727,1,1,1h4c.55273,0,1-.44727,1-1v-4c0-.55273-.44727-1-1-1ZM7.82422,32.88992c-.53906-.80664-.82422-1.74707-.82422-2.71973,0-.66895.13379-1.31836.39648-1.93262l4.56933-10.66113c.28113-.65593,1.09334-.97095,1.75-.6416.58789.29395.85742.97949.62695,1.59473l-2.2793,6.07715c-.01129.03021-.00641.06104-.01465.09155-.63678.55054-1.04883,1.35406-1.04883,2.26001v4c0,.55273.44727,1,1,1s1-.44727,1-1v-4c0-.55176.44824-1,1-1s1,.44824,1,1v4c0,.15527.03613.30859.10547.44727l1.89453,3.78906v1.76367h-8v-.18262c0-1.38672-.40625-2.73047-1.17578-3.88574Z"/>
  <path d="M31.0498,7.56472c-1.91699-1.91602-4.90918-2.11328-7.0498-.59766-2.13965-1.5166-5.13281-1.31934-7.0498.59766-2.13867,2.13867-2.13867,5.61914,0,7.75781l6.34277,6.34277c.19531.19531.45117.29297.70703.29297s.51172-.09766.70703-.29297l6.34277-6.34277c2.13867-2.13867,2.13867-5.61914,0-7.75781ZM29.63574,13.90847l-5.63574,5.63574-5.63574-5.63574c-1.35938-1.35938-1.35938-3.57031,0-4.92969.67969-.67871,1.57129-1.01855,2.46387-1.01855s1.78516.33984,2.46484,1.01855c.39062.39062,1.02344.39062,1.41406,0,1.35938-1.35742,3.56934-1.35742,4.92871,0,1.35938,1.35938,1.35938,3.57031,0,4.92969Z"/>
  <path d="M35,11.95828c0,.55273.44727,1,1,1h2c.55273,0,1-.44727,1-1s-.44727-1-1-1h-2c-.55273,0-1,.44727-1,1Z"/>
  <path d="M34.87702,7.88139c.14332.00226.2876-.02584.42181-.08815l1.8125-.8457c.5-.2334.7168-.82812.4834-1.3291-.23438-.49902-.8291-.71582-1.3291-.4834l-1.81248.84569c-.94722.44197-.61493,1.88431.42387,1.90066Z"/>
  <path d="M10,12.95828h2c.55273,0,1-.44727,1-1s-.44727-1-1-1h-2c-.55273,0-1,.44727-1,1s.44727,1,1,1Z"/>
  <path d="M10.88867,6.94753l1.81248.84569c.47332.22085,1.09472.01773,1.32912-.48339.2334-.50098.0166-1.0957-.4834-1.3291l-1.8125-.8457c-.50098-.23145-1.0957-.01562-1.3291.4834-.2334.50098-.0166,1.0957.4834,1.3291Z"/>
</svg>