<?xml version="1.0" encoding="UTF-8"?>
<svg id="Outline" xmlns="http://www.w3.org/2000/svg" version="1.1" viewBox="0 0 64 64">
  <!-- Generator: Adobe Illustrator 29.3.1, SVG Export Plug-In . SVG Version: 2.1.0 Build 151)  -->
  <path d="M30,51.27997v-9.95996c0-1.12-.46997-2.19-1.29999-2.95001l-9.48004-8.69c-1.03998-.96002-2.52997-1.16998-3.77997-.63l-2.08002-9.57001c-.35999-1.65997-1.97998-2.72998-3.73999-2.42999-.47998.09998-.92999.28998-1.31.56-.84998.59998-1.34003,1.57001-1.31,2.59998l.63,15.07001c.04999,1.40002.65002,2.70001,1.67999,3.66003l5.96002,5.58997c.63.61005,1,1.39001,1.03998,2.20001l.13,4.35999c-.83002.23999-1.44,1-1.44,1.91003v2c0,1.09998.90002,2,2,2h12c1.09998,0,2-.90002,2-2v-2c0-.73999-.40997-1.37-1-1.72003ZM16.64001,43.07996l-5.97003-5.59998c-.63995-.59998-1.01001-1.40002-1.03998-2.27997l-.63-15.06c-.01001-.35004.16998-.69.46002-.90002.15997-.10999.34998-.19.52997-.22003.65002-.12,1.28003.28003,1.41003.88l2.32996,10.72003c-.22998.42999-.37.90997-.39996,1.39996-.08002,1.02002.29999,2.02002,1.01996,2.74005l5.94,5.94995c.39001.39001,1.03003.39001,1.42004,0,.38995-.38995.38995-1.02997,0-1.41998l-5.95001-5.94c-.31-.32001-.47003-.73999-.44-1.17999.02002-.29999.13-.57001.29999-.79999.01001-.01001.02002-.02002.03003-.04004.07996-.09998.16998-.18994.27997-.26996.58002-.44,1.40002-.40002,1.94.08997l9.47998,8.70001c.41003.37.65002.91003.65002,1.47003v2.95996l-9.65002,3.15002-.03998-.81c-.07001-1.32001-.65997-2.57001-1.66998-3.54004ZM29,55h-12v-2h2c.54999,0,1-.45001,1-1s-.45001-1-1-1h-.56l-.01001-1.48999,9.57001-3.13v4.62h-1c-.54999,0-1,.45001-1,1s.45001,1,1,1h2v2Z"/>
  <path d="M55.67999,17.59998c-.37-.26001-.82001-.45001-1.33002-.56-1.72998-.27997-3.34998.78003-3.70996,2.44l-2.08002,9.57001c-1.25-.53998-2.73999-.33002-3.77997.63l-9.48004,8.69c-.83002.76001-1.29999,1.83002-1.29999,2.95001v9.95996c-.59003.35004-1,.98004-1,1.72003v2c0,1.09998.90002,2,2,2h12c1.09998,0,2-.90002,2-2v-2c0-.91003-.60999-1.67004-1.45001-1.91003l.14001-4.37c.03998-.79999.40997-1.57996,1.02997-2.17999l5.97003-5.59998c1.02997-.96002,1.63-2.26001,1.67999-3.66003l.63-15.07996c.03003-1.02002-.46002-1.99005-1.32001-2.60004ZM36,46.38l9.56,3.13-.01001,1.48999h-9.54999v-4.62ZM47,55h-12v-2h12v2ZM54.37,35.20001c-.02997.87994-.40002,1.67999-1.03998,2.27997l-5.98004,5.60999c-1,.96002-1.58997,2.21002-1.65997,3.52002l-.03998.83002-9.65002-3.16003v-2.95996c0-.56.23999-1.10004.65002-1.47003l9.47998-8.70001c.53998-.48999,1.35999-.52997,1.94-.08997.10999.08002.20001.16998.27997.26996.01001.02002.02002.03003.03003.04004.16998.22998.27997.5.29999.79999.03003.44-.13.85999-.44,1.17999l-5.95001,5.94c-.38995.39001-.38995,1.03003,0,1.41998.39001.39001,1.03003.39001,1.42004,0l5.94-5.94995c.71997-.72003,1.09998-1.72003,1.01996-2.74005-.02997-.48999-.16998-.96997-.39996-1.39996l2.32996-10.72003c.13-.59998.77002-.98999,1.38-.88995.21002.03998.40002.12.55005.21997.29999.22003.47998.56.46997.90002l-.63,15.07001Z"/>
  <path d="M18.84766,23.98828l1.59961.24609c.25781.9209.62598,1.80566,1.09863,2.64355l-.95898,1.30957c-.29199.39746-.24902.94922.09961,1.29785l2.82812,2.82812c.34863.34863.89844.3916,1.29883.09961l1.30859-.95996c.83789.47363,1.72266.8418,2.64355,1.09961l.24609,1.59961c.0752.4873.49512.84766.98828.84766h4c.49316,0,.91309-.36035.98828-.84766l.24609-1.59961c.9209-.25781,1.80566-.62598,2.64355-1.09961l1.30859.95996c.39746.29004.94922.24902,1.29883-.09961l2.82812-2.82812c.34863-.34863.3916-.90039.09961-1.29785l-.95898-1.30957c.47266-.83789.84082-1.72266,1.09863-2.64355l1.59961-.24609c.4873-.0752.84766-.49512.84766-.98828v-4c0-.49316-.36035-.91309-.84766-.98828l-1.59961-.24609c-.25781-.9209-.62598-1.80566-1.09863-2.64355l.95898-1.30957c.29199-.39746.24902-.94922-.09961-1.29785l-2.82812-2.82812c-.34961-.34961-.90234-.3916-1.29786-.09961l-1.30957.95898c-.83789-.47266-1.72266-.84082-2.64355-1.09863l-.24609-1.59961c-.0752-.4873-.49512-.84766-.98828-.84766h-4c-.49316,0-.91309.36035-.98828.84766l-.24609,1.59961c-.9209.25781-1.80566.62598-2.64355,1.09863l-1.30958-.95898c-.39746-.29199-.94824-.25-1.29785.09961l-2.82812,2.82812c-.34863.34863-.3916.90039-.09961,1.29785l.95898,1.30957c-.47266.83789-.84082,1.72266-1.09863,2.64355l-1.59961.24609c-.4873.0752-.84766.49512-.84766.98828v4c0,.49316.36035.91309.84766.98828ZM20,19.85742l1.40918-.2168c.40918-.0625.73633-.37109.8252-.77539.25098-1.1543.70605-2.25098,1.35352-3.25781.22363-.34766.20898-.79785-.03516-1.13086l-.8457-1.1543,1.61523-1.61523,1.1543.8457c.33301.24512.78223.25781,1.13086.03516,1.00684-.64746,2.10352-1.10254,3.25781-1.35352.4043-.08887.71289-.41602.77539-.8252l.2168-1.40918h2.28516l.2168,1.40918c.0625.40918.37109.73633.77539.8252,1.1543.25098,2.25098.70605,3.25781,1.35352.34766.22266.79785.20996,1.13086-.03516l1.1543-.8457,1.61523,1.61523-.8457,1.1543c-.24414.33301-.25879.7832-.03516,1.13086.64746,1.00684,1.10254,2.10352,1.35352,3.25781.08887.4043.41602.71289.8252.77539l1.40918.2168v2.28516l-1.40918.2168c-.40918.0625-.73633.37109-.8252.77539-.25098,1.1543-.70605,2.25098-1.35352,3.25781-.22363.34766-.20898.79785.03516,1.13086l.8457,1.1543-1.61523,1.61523-1.15332-.84668c-.33398-.24414-.78418-.25879-1.13281-.03418-1.00586.64648-2.10156,1.10254-3.25684,1.35352-.4043.08887-.71289.41602-.77539.8252l-.2168,1.40918h-2.28516l-.2168-1.40918c-.0625-.40918-.37109-.73633-.77539-.8252-1.15527-.25098-2.25098-.70703-3.25684-1.35352-.34863-.22559-.79883-.21094-1.13281.03418l-1.15332.84668-1.61523-1.61523.8457-1.1543c.24414-.33301.25879-.7832.03516-1.13086-.64746-1.00684-1.10254-2.10352-1.35352-3.25781-.08887-.4043-.41602-.71289-.8252-.77539l-1.40918-.2168v-2.28516Z"/>
  <circle cx="32" cy="27" r="1"/>
  <path d="M29,19c.55273,0,1-.44727,1-1,0-.59277.26074-1.15137.71484-1.53223.46094-.3877,1.04785-.54297,1.65625-.43457.78613.1377,1.45801.80957,1.5957,1.5957.15234.87012-.24121,1.7041-1.00293,2.12402-1.22949.67773-1.96387,1.85938-1.96387,3.24707,0,.55273.44727.95605,1,.95605s1-.49023,1-1.04297c0-.56152.34766-1.08789.92969-1.4082,1.49805-.82715,2.30469-2.52344,2.00781-4.22168-.28417-1.6123-1.60839-2.93652-3.2207-3.2207-1.18652-.20508-2.38086.11133-3.28809.87305-.9082.7627-1.42871,1.87988-1.42871,3.06445,0,.55273.44727,1,1,1Z"/>
  <circle cx="23" cy="52" r="1"/>
</svg>