<?xml version="1.0" encoding="UTF-8"?>
<svg id="Outline" xmlns="http://www.w3.org/2000/svg" version="1.1" viewBox="0 0 48 48">
  <!-- Generator: Adobe Illustrator 29.0.0, SVG Export Plug-In . SVG Version: 2.1.0 Build 186)  -->
  <path d="M39,20c0,1.64996-1.34998,3-3,3h-1c-.54999,0-1-.45001-1-1s.45001-1,1-1h1c.54986,0,.99978-.4498,1-.9996.00021-.52474-.47804-1.0004-1-1.0004h-7c-.54999,0-1-.45001-1-1s.45001-1,1-1h6c.54999,0,1-.45001,1-1s-.45001-1-1-1h-6c-.54999,0-1-.45001-1-1s.45001-1,1-1h5c.54999,0,1-.45001,1-1s-.45001-1-1-1h-5c-.54999,0-1-.45001-1-1s.45001-1,1-1h3c.54986,0,.99978-.4498,1-.9996.00021-.53303-.46954-1.0004-1-1.0004h-9.81l-4.82001,1.92999c-.12.04999-.23999.07001-.37.07001h-2v5c0,.54999-.45001,1-1,1s-1-.45001-1-1v-6c0-.54999-.45001-1-1-1h-4c-.54999,0-1,.45001-1,1v15c0,.54999.45001,1,1,1h4c.54999,0,1-.45001,1-1v-5c0-.54999.45001-1,1-1s1,.45001,1,1v4h1.76001c.96997,0,1.90997.21997,2.78998.64996,1.04999.53003,1.91998,1.33002,2.52002,2.30005.60999,1,.92999,2.13995.92999,3.28998v2.63c.69-.16998,1.32001-.53003,1.84003-1.04004.73999-.75995,1.15997-1.75995,1.15997-2.82996v-5c0-.54999.45001-1,1-1h4c.54999,0,1,.45001,1,1s-.45001,1-1,1h-3v4c0,1.59998-.62,3.09998-1.75,4.23999-1.15002,1.14001-2.65002,1.76001-4.25,1.76001-.54999,0-1-.45001-1-1v-3.76001c0-.79999-.21002-1.54999-.63-2.23999-.40997-.66003-1-1.20001-1.71002-1.56-.58997-.29004-1.23999-.44-1.89996-.44h-1.94c-.41998,1.15997-1.52002,2-2.82001,2h-4c-1.65002,0-3-1.35004-3-3v-15c0-1.65002,1.34998-3,3-3h4c1.29999,0,2.40002.83997,2.82001,2h1.98999l4.82001-1.92999c.12-.05005.23999-.07001.37-.07001h10c.81,0,1.57001.32001,2.13.89001.54999.53998.87,1.29999.87,2.10999,0,.39001-.08002.76996-.21997,1.12,1.26996.33997,2.21997,1.5,2.21997,2.88,0,.53998-.15002,1.02997-.40002,1.46997.84003.53003,1.40002,1.46002,1.40002,2.53003,0,.53998-.15002,1.02997-.40002,1.46997.19.12.37.26001.53003.42004.54999.53998.87,1.29999.87,2.10999Z"/>
  <path d="M42.13477,29.00928c-1.62988-.22168-2.92236-1.51416-3.14404-3.14404-.06738-.49561-.49023-.86523-.99072-.86523s-.92334.36963-.99072.86523c-.22168,1.62988-1.51416,2.92236-3.14404,3.14404-.49561.06738-.86523.49023-.86523.99072s.36963.92334.86523.99072c1.62988.22168,2.92236,1.51416,3.14404,3.14404.06738.49561.49023.86523.99072.86523s.92334-.36963.99072-.86523c.22168-1.62988,1.51416-2.92236,3.14404-3.14404.49561-.06738.86523-.49023.86523-.99072s-.36963-.92334-.86523-.99072ZM38,31.35791c-.37256-.52588-.83203-.98535-1.35791-1.35791.52588-.37256.98535-.83203,1.35791-1.35791.37256.52588.83203.98535,1.35791,1.35791-.52588.37256-.98535.83203-1.35791,1.35791Z"/>
  <path d="M35.13477,36.00928l-.88037-.11963c-1.62988-.22168-2.92236-1.51416-3.14404-3.14404l-.11963-.88037c-.06738-.49561-.49023-.86523-.99072-.86523s-.92334.36963-.99072.86523l-.11963.88037c-.22168,1.62988-1.51416,2.92236-3.14404,3.14404l-.88037.11963c-.49561.06738-.86523.49023-.86523.99072s.36963.92334.86523.99072l.88037.11963c1.62988.22168,2.92236,1.51416,3.14404,3.14404l.11963.88037c.06738.49561.49023.86523.99072.86523s.92334-.36963.99072-.86523l.11963-.88037c.22168-1.62988,1.51416-2.92236,3.14404-3.14404l.88037-.11963c.49561-.06738.86523-.49023.86523-.99072s-.36963-.92334-.86523-.99072ZM30,38.65283c-.43066-.6582-.99463-1.22217-1.65283-1.65283.6582-.43066,1.22217-.99463,1.65283-1.65283.43066.6582.99463,1.22217,1.65283,1.65283-.6582.43066-1.22217.99463-1.65283,1.65283Z"/>
  <path d="M21.13477,35.00928c-1.62988-.22168-2.92236-1.51416-3.14404-3.14404-.06738-.49561-.49023-.86523-.99072-.86523s-.92334.36963-.99072.86523c-.22168,1.62988-1.51416,2.92236-3.14404,3.14404-.49561.06738-.86523.49023-.86523.99072s.36963.92334.86523.99072c1.62988.22168,2.92236,1.51416,3.14404,3.14404.06738.49561.49023.86523.99072.86523s.92334-.36963.99072-.86523c.22168-1.62988,1.51416-2.92236,3.14404-3.14404.49561-.06738.86523-.49023.86523-.99072s-.36963-.92334-.86523-.99072ZM17,37.35791c-.37256-.52588-.83203-.98535-1.35791-1.35791.52588-.37256.98535-.83203,1.35791-1.35791.37256.52588.83203.98535,1.35791,1.35791-.52588.37256-.98535.83203-1.35791,1.35791Z"/>
</svg>