<?xml version="1.0" encoding="UTF-8"?>
<svg id="Outline" xmlns="http://www.w3.org/2000/svg" version="1.1" viewBox="0 0 48 48">
  <!-- Generator: Adobe Illustrator 29.0.0, SVG Export Plug-In . SVG Version: 2.1.0 Build 186)  -->
  <path d="M31.28027,32.6748c-.71436.59863-1.53076,1.05566-2.40381,1.35059l-.47168.14648c-1.07037.35944-2.07324.91736-2.95117,1.62598l-8.50964-8.50964c1.13263-1.41431,1.82288-3.15369,1.95642-5.00208l.5625-8.44629c0-.26758.10547-.52148.29785-.71289.18457-.18555.43408-.28711.70215-.28711.56055,0,1,.43945,1,1v6.48047c0,.4043.24365.76953.61719.92383.37402.15527.80322.06836,1.08984-.2168l3.66992-3.66992c.39062-.39062.39062-1.02344,0-1.41406s-1.02344-.39062-1.41406,0l-1.96289,1.96289v-4.06641c0-1.6543-1.3457-3-3-3-.80273,0-1.55469.31055-2.1167.87305-.56982.56934-.8833,1.3252-.88086,2.06055l-.56006,8.37402c-.10291,1.42383-.64673,2.75287-1.51178,3.84607-1.11646-.53497-2.49213-.35168-3.41498.5719l-1.41406,1.41406c-1.16992,1.16992-1.16992,3.07227,0,4.24219l9.89941,9.89941c.56641.56641,1.31982.87891,2.12109.87891s1.55518-.3125,2.12158-.87891l1.41455-1.41406c.56592-.56641.87793-1.32031.87793-2.12109,0-.43787-.10089-.85754-.27765-1.24384.68982-.55469,1.47424-.98962,2.29816-1.26691l.47314-.14746c1.1333-.38184,2.16748-.96094,3.07275-1.72168.42334-.35449.47852-.98535.12354-1.4082-.35547-.42383-.98633-.47754-1.40869-.12305ZM24.70654,39.29297l-1.41406,1.41406c-.37793.37695-1.03711.37891-1.41406,0h-.00049l-9.89941-9.89941c-.18896-.18945-.29297-.44043-.29297-.70703s.104-.51758.29297-.70703l1.41406-1.41406c.19482-.19531.45117-.29199.70752-.29199.25586,0,.51221.09668.70703.29199l9.89941,9.89941c.18896.18848.29248.43945.29248.70703,0,.2666-.104.51855-.29248.70703Z"/>
  <path d="M37.43018,25.15332c-.37811-.37842-.83624-.62103-1.31842-.75421.04852-.21564.07965-.43622.07965-.66278,0-.80078-.31201-1.55469-.87842-2.12109-.37909-.37927-.83807-.62244-1.32104-.75598.04791-.21423.07837-.43335.07837-.65808,0-.80176-.3125-1.55566-.87842-2.12109-.24658-.24634-.53754-.42889-.84644-.56812l3.67505-3.67505c1.16895-1.16992,1.16895-3.07422-.00098-4.24512-1.12207-1.12109-3.11133-1.12988-4.24365.00098l-3.52002,3.52051c-.39062.39062-.39062,1.02344,0,1.41406s1.02344.39062,1.41406,0l3.51953-3.51953c.38142-.38142,1.03477-.38223,1.41602-.00098.39062.39062.39062,1.02539.00049,1.41602l-6.92969,6.92999-2.96973,2.96942c-.09772.09772-.17096.21069-.21979.33118-.1469.36119-.07386.79067.21925,1.08382.37423.37428,1.02597.38819,1.41411.00004l2.12207-2.12207,2.12157-2.12109c.88226-.88206,2.3345.49076,1.41358,1.41406l-4.24268,4.24219c-.39061.39061-.39062,1.0234-.00003,1.41403.3736.37363,1.02668.38745,1.4141.00003l3.53564-3.53516c.39062-.39062,1.02438-.39062,1.41403-.00003.37528.37619.39158,1.02404.00052,1.41409l-3.53563,3.53612c-.37403.37408-.37313,1.04242.00243,1.41798.39062.39062,1.02344.39062,1.41406,0l2.83008-2.83008c.38768-.38671,1.01851-.38672,1.40621-.00004.38236.38136.39137,1.02372-.00192,1.41801l-1.93994,1.94922c-.38916.3916-.3877,1.02441.00342,1.41406.19531.19434.4502.29102.70557.29102.25684,0,.51318-.09863.70898-.29492l1.93896-1.94824c.56885-.57031.88184-1.32129.88184-2.11621,0-.80273-.31348-1.55762-.88281-2.12695Z"/>
  <path d="M26.32812,9c.55225,0,1-.44727,1-1v-2c0-.55273-.44775-1-1-1s-1,.44727-1,1v2c0,.55273.44775,1,1,1Z"/>
  <path d="M22.64063,9.47754c.30478.43544.94148.56199,1.39258.24609.45264-.31641.5625-.94043.24609-1.39258l-1.14697-1.63867c-.31641-.45215-.93896-.5625-1.39258-.24609-.45264.31641-.5625.94043-.24609,1.39258l1.14697,1.63867Z"/>
  <path d="M29.1947,9.89728c.31475-.00261.62959-.14711.82043-.41974l1.14746-1.63867c.31641-.45215.20654-1.0752-.24561-1.39258-.45312-.31543-1.07568-.20703-1.39307.24609l-1.14746,1.63866c-.44565.63642.03963,1.57268.81823,1.56623Z"/>
</svg>