<?xml version="1.0" encoding="UTF-8"?>
<svg id="Outline" xmlns="http://www.w3.org/2000/svg" version="1.1" viewBox="0 0 48 48">
  <!-- Generator: Adobe Illustrator 29.0.0, SVG Export Plug-In . SVG Version: 2.1.0 Build 186)  -->
  <path d="M42.46021,30.44052l-4.87-2.35004c-.24005-.12-.52002-.13-.77002-.04999-.25.09003-.45001.27002-.57001.51001l-.04999.10999-.69-.44c-1.32001-.84998-1.85004-2.51001-1.27002-3.95996.27002-.68005.47003-1.38.59003-2.09003.09998-.54999-.27002-1.06-.81-1.15997-.55005-.09003-1.06.27997-1.16003.81995-.08997.57001-.25,1.13-.47998,1.68005-.94,2.33997-.07001,5.02997,2.04999,6.38995l.89001.57001-2.89001,6-5.54999-4.45001c-1.20001-.95996-1.88-2.37994-1.88-3.89996v-9.11963c0-.53258.47089-1.00037,1-1.00037.54999,0,1,.45001,1,1v6c0,.54999.45001,1,1,1s1-.45001,1-1v-6c0-.90002-.40997-1.70001-1.03998-2.25v-.03003l-2.31-8c-.05005-.14001-.08002-.28998-.08002-.44,0-.47995.27994-.92994.7199-1.14993.66559-.3328,1.46421.00282,1.75007.66995l4.15002,8.84998c.22998.5.41998,1.03003.56,1.59003.10999.45001.52002.76001.96997.76001.08002,0,.16003-.01001.24005-.03003.52997-.13.85999-.66998.72998-1.20996-.16998-.68005-.40002-1.35004-.69-1.96002l-4.13-8.80999c-.78148-1.66703-2.77349-2.50895-4.46997-1.65003-.60004.29004-1.08002.77002-1.40002,1.34003-.32001-.57-.79998-1.03997-1.39001-1.33001-1.64265-.80748-3.74566-.09444-4.46998,1.60998l-4.14001,8.83002c-.65997,1.42999-1,2.94-1,4.51001,0,1.37.26001,2.70001.76001,3.95001.58002,1.45996.04999,3.12-1.27002,3.96997l-.69.44-.04999-.09998c-.23999-.5-.84003-.71002-1.33002-.47003l-4.87,2.35004c-.23999.10999-.42999.32001-.51001.57001-.08997.25-.07996.52997.04004.75995l1.71997,3.56c.23999.5.84003.71002,1.33002.47003.5-.23999.71002-.84003.46997-1.33002l-1.27997-2.65997,3.06-1.48004,4.27997,8.85004-3.06995,1.48999-1.25-2.59998c-.24005-.49005-.84003-.70001-1.34003-.46002-.48999.23999-.70001.84003-.46002,1.34003l1.69,3.48999c.17004.34998.53003.56.90002.56.15002,0,.28998-.03003.42999-.10004l4.87-2.34998c.23999-.10999.42999-.32001.51001-.57001.09003-.25.08002-.52997-.03998-.76001l-.44-.90997,5.91998-4.73004c.65997-.52997,1.20001-1.15997,1.62-1.85999.41998.70001.96997,1.33002,1.62,1.85999l5.91003,4.73004-.43005.89996c-.23999.5-.02997,1.10004.46002,1.34003l4.87,2.34998c.15002.07001.28998.10004.44.10004.37,0,.72998-.21002.90002-.56l5.14996-10.66003c.23999-.5.03003-1.09998-.45996-1.33997ZM23.00019,28.12051c0,1.52002-.67999,2.94-1.88,3.89996l-5.54999,4.45001-2.89001-6,.89001-.57001c2.12-1.35999,2.98999-4.04999,2.04999-6.38995-.40997-1.02002-.62-2.10004-.62-3.21002,0-1.27002.27002-2.5.82001-3.65997l4.14995-8.87004c.31102-.66476,1.08491-.95467,1.75001-.62996.43005.20996.71002.65997.71002,1.13995,0,.15002-.02997.29999-.10999.52002l-2.28003,7.91998v.03003c-.63.54999-1.03998,1.34998-1.03998,2.25v6c0,.54999.45001,1,1,1s1-.45001,1-1v-6c0-.54981.44972-.99971.99946-1,.52824-.00028,1.00054.47701,1.00054,1v9.12ZM24.00019,16.78048c-.46997-.41998-1.04999-.67999-1.67999-.75l1.67999-5.83997,1.67999,5.83997c-.64001.07001-1.22998.33002-1.67999.75ZM36.41016,40.66049l-3.07996-1.47998,4.28998-8.85999,3.07001,1.48999-4.28003,8.84998Z"/>
</svg>