<?xml version="1.0" encoding="UTF-8"?>
<svg id="Outline" xmlns="http://www.w3.org/2000/svg" version="1.1" viewBox="0 0 48 48">
  <!-- Generator: Adobe Illustrator 29.0.0, SVG Export Plug-In . SVG Version: 2.1.0 Build 186)  -->
  <path d="M41.99995,20c.54999,0,1-.45001,1-1v-4c0-1.62957-1.37352-3-3-3-.34998,0-.69.07001-1,.17999v-.17999c0-1.65002-1.34998-3-3-3-.34998,0-.69.07001-1,.17999v-1.17999c0-1.65002-1.34998-3-3-3-1.38,0-2.53998.95001-2.88,2.21997-.34998-.14001-.72998-.21997-1.12-.21997-1.65002,0-3,1.34998-3,3v3.17999c-.32001-.10999-.65002-.17999-1-.17999s-.69.07001-1,.17999v-1.17999c0-.81-.32001-1.57001-.87-2.10999-.56-.57001-1.32001-.89001-2.13-.89001-1.38,0-2.53998.95001-2.88,2.21997-.34998-.14001-.72998-.21997-1.12-.21997-1.65002,0-3,1.34998-3,3v9.39996c-.77002-1.09998-1.94-1.87-3.26001-2.14996-1.52002-.33002-3.09998.01996-4.33997.95001-.42004.31995-.53003.90997-.23004,1.34998l3.16003,4.75c.44.65997.66998,1.41998.66998,2.21002,0,1.87.89001,3.65997,2.39001,4.77997l.63.47003c-.62.54999-1.02002,1.34998-1.02002,2.23999v4c0,.54999.45001,1,1,1s1-.45001,1-1v-4c0-.54999.45001-1,1-1h2c.54999,0,1-.45001,1-1s-.45001-1-1-1h-1.66998l-1.73999-1.31c-.99005-.73999-1.59003-1.92999-1.59003-3.17999,0-1.19-.34998-2.33002-1-3.32001l-2.57001-3.85004c.60004-.21997,1.25-.26996,1.89001-.13995.95001.19995,1.76001.81,2.22998,1.65997l1.54004,2.77002c.78998,1.41998,2.14996,2.45996,3.72998,2.85999.69.16998,1.17999.78998,1.17999,1.51001,0,.54999.45001,1,1,1s1-.45001,1-1c0-1.64001-1.10999-3.06-2.70001-3.46002-.95001-.22998-1.76996-.83997-2.29999-1.65997v-12.88c0-.54999.45001-1,1-1s1,.45001,1,1c0,0,0,5,0,5.00004.00008.18065.06986.39976.16998.54994l3.16003,4.75c.44.65997.66998,1.41998.66998,2.21002,0,1.87.89001,3.65997,2.39001,4.77997l.63.47003c-.62.54999-1.02002,1.34998-1.02002,2.23999v1h-3c-.54999,0-1,.45001-1,1s.45001,1,1,1h3.17999c.31.84998.97003,1.51001,1.82001,1.82001v3.17999c0,.54999.45001,1,1,1s1-.45001,1-1v-3h12v3c0,.54999.45001,1,1,1s1-.45001,1-1v-3.17999c1.15997-.42004,2-1.52002,2-2.82001v-2c0-1.29999-.84003-2.40002-2-2.82001v-2.38c0-.97998.28998-1.92999.83002-2.75.57001-.84998.95996-1.85999,1.10999-2.90997.08002-.54004-.29999-1.05005-.84998-1.13-.54004-.08002-1.05005.29999-1.13.84998-.11005.75-.38,1.46997-.79004,2.09003-.76996,1.14996-1.16998,2.47998-1.16998,3.84998v2.20001h-12.66998l-1.73999-1.31c-.99005-.73999-1.59003-1.92999-1.59003-3.17999,0-1.19-.34998-2.33002-1-3.32001l-2.57001-3.85004c.60004-.21997,1.25-.26996,1.89001-.13995.95001.19995,1.76001.81,2.22998,1.65997l1.54004,2.77002c.78998,1.41998,2.14996,2.45996,3.72998,2.85999.69.16998,1.17999.78998,1.17999,1.51001,0,.54999.45001,1,1,1s1-.45001,1-1c0-1.64001-1.10999-3.06-2.70001-3.46002-.95001-.22998-1.76996-.83997-2.29999-1.65997v-12.88c0-.54999.45001-1,1-1s1,.45001,1,1v8c0,.54999.45001,1,1,1s1-.45001,1-1v-10c0-.54999.45001-1,1-1s1,.45001,1,1v10c0,.54999.45001,1,1,1s1-.45001,1-1v-6c0-.54999.45001-1,1-1s1,.45001,1,1v6c0,.54999.45001,1,1,1s1-.45001,1-1v-3c0-.54993.44992-.99991.99983-1,.53751-.00009,1.00017.46495,1.00017,1v4c0,.54999.45001,1,1,1ZM24.99995,34c0-.54999.45001-1,1-1h14c.54999,0,1,.45001,1,1v2c0,.54999-.45001,1-1,1h-14c-.54999,0-1-.45001-1-1v-2ZM20.99995,17.14996c-.67999-.04999-1.35999.03003-2,.23004v-5.38c0-.54999.45001-1,1-1,.27002,0,.51001.09998.71002.31.19.17999.28998.41998.28998.69v5.14996ZM24.99995,19.39996c-.51001-.72998-1.21002-1.31-2-1.70996v-1.69c0-.54999.45001-1,1-1,.27002,0,.51001.09998.71002.31.19.17999.28998.41998.28998.69v3.39996Z"/>
</svg>