<?xml version="1.0" encoding="UTF-8"?>
<svg id="Outline" xmlns="http://www.w3.org/2000/svg" version="1.1" viewBox="0 0 64 64">
  <!-- Generator: Adobe Illustrator 29.3.1, SVG Export Plug-In . SVG Version: 2.1.0 Build 151)  -->
  <path d="M52,11h-27v-3c0-.54999-.45001-1-1-1h-6c-.54999,0-1,.45001-1,1v3h-1c-3.85999,0-7,3.14001-7,7v14c0,1.64996,1.34998,3,3,3h4v6h-2c-1.65002,0-3,1.34998-3,3v10c0,1.64996,1.34998,3,3,3h10c1.65002,0,3-1.35004,3-3v-10c0-1.65002-1.34998-3-3-3h-2v-6h5c.54999,0,1-.45001,1-1s-.45001-1-1-1h-15c-.54999,0-1-.45001-1-1v-14c0-2.76001,2.23999-5,5-5h36c.54999,0,1,.45001,1,1v18c0,.54999-.45001,1-1,1h-17c-.54999,0-1,.45001-1,1s.45001,1,1,1h17c1.65002,0,3-1.35004,3-3V14c0-1.65002-1.34998-3-3-3ZM21.96997,43h2.03003c.54999,0,1,.45001,1,1v10c0,.54999-.45001,1-1,1h-2.03003c.64001-.84003,1.03003-1.87,1.03003-3v-6c0-1.13-.39001-2.16003-1.03003-3ZM18,35h2v6h-2v-6ZM17,46c0-1.29999.84003-2.40002,2-2.82001,1.15997.41998,2,1.52002,2,2.82001v6c0,1.29999-.84003,2.39996-2,2.82001-1.15997-.42004-2-1.52002-2-2.82001v-6ZM16.03003,55h-2.03003c-.54999,0-1-.45001-1-1v-10c0-.54999.45001-1,1-1h2.03003c-.64001.83997-1.03003,1.87-1.03003,3v6c0,1.13.39001,2.15997,1.03003,3ZM23,11h-4v-2h4v2Z"/>
  <path d="M24,29h-10c-.55273,0-1,.44727-1,1s.44727,1,1,1h10c.55273,0,1-.44727,1-1s-.44727-1-1-1Z"/>
  <path d="M24,25h-10c-.55273,0-1,.44727-1,1s.44727,1,1,1h10c.55273,0,1-.44727,1-1s-.44727-1-1-1Z"/>
  <path d="M24,21h-10c-.55273,0-1,.44727-1,1s.44727,1,1,1h10c.55273,0,1-.44727,1-1s-.44727-1-1-1Z"/>
  <path d="M51,24v-8c0-.55273-.44727-1-1-1h-14c-4.96289,0-9,4.03711-9,9,0,.55273.44727,1,1,1h22c.55273,0,1-.44727,1-1ZM49,23h-19.92871c.48633-3.3877,3.4082-6,6.92871-6h13v6Z"/>
  <circle cx="31" cy="34" r="1"/>
</svg>