<?xml version="1.0" encoding="UTF-8"?>
<svg id="Outline" xmlns="http://www.w3.org/2000/svg" version="1.1" viewBox="0 0 64 64">
  <!-- Generator: Adobe Illustrator 29.0.0, SVG Export Plug-In . SVG Version: 2.1.0 Build 186)  -->
  <path d="M30.9668,49.2627l-.01465-5.75977c-.00488-1.22852-.56152-2.36719-1.52441-3.125l-10.12598-7.97754c-.82324-.5498-1.85059-.74609-2.83008-.53516-.2804.06055-.54309.15906-.79443.2771l-2.31982-10.66284c-.35449-1.65918-1.98535-2.72656-3.71191-2.42969-.49805.09082-.94824.27734-1.33691.55469-.84375.60254-1.33301,1.57031-1.30664,2.60742l.62695,15.06348c.04688,1.38184.65918,2.71973,1.67676,3.66797l5.9668,5.5957c.62598.5957.99512,1.37012,1.03711,2.1582l.14355,7.30957c.00391.5498.4502.99316,1,.99316h12.54688c.26562,0,.52148-.10645.70898-.29492s.29199-.44434.29102-.70996l-.0332-6.73242h0ZM10.67188,39.48242c-.63477-.5918-1.01562-1.4209-1.04492-2.2832l-.62598-15.05469c-.00879-.35449.16602-.69531.46973-.91211.14746-.10547.32715-.17773.52344-.21387.65625-.11523,1.28027.2832,1.4082.88281l2.59155,11.91577c-.75024,1.55914-.23956,3.42145,1.28052,4.38208l6.13281,3.87207c.46777.29492,1.08496.15527,1.37988-.31152.29492-.46777.15527-1.08496-.31152-1.37988l-6.13281-3.87207c-.68945-.43555-.90137-1.30273-.48242-1.97461.22754-.36523.59375-.61816,1.0332-.71289.45312-.09668.91602-.0127,1.2334.19629l10.06348,7.93262c.48145.37891.75879.94824.76172,1.56055l.0127,5.00055-10.57257,2.97198-.08368-2.86804c-.07129-1.32324-.66016-2.5752-1.66309-3.5293l-5.97363-5.60254ZM18.44629,55l-.00879-1.45312,10.53614-2.96094.02148,4.41406h-10.54883Z"/>
  <path d="M55.69,19.60999c-.39001-.28003-.84003-.46997-1.34998-.56-1.72003-.29999-3.34003.77002-3.70001,2.42999l-2.32001,10.66003c-.25-.12006-.51001-.21002-.78998-.27002-.98004-.22003-2.01001-.02002-2.90002.58002l-10.06,7.92999c-.96002.76001-1.52002,1.88995-1.52002,3.12l-.01996,5.76001-.03003,6.73999c0,.26001.09998.51996.28998.70996.19.18005.44.29004.71002.29004h12.54999c.54999,0,.98999-.44,1-.98999l.14001-7.29004c.03998-.81.40997-1.58997,1.02997-2.17999l5.97003-5.58997c1.02002-.95001,1.63-2.29004,1.67999-3.67004l.63-15.07996c.02002-1.03003-.46002-1.99005-1.31-2.59003ZM45.54999,55h-10.54999l.03003-4.41003,10.52997,2.96002-.01001,1.45001ZM54.37,37.20996c-.02997.85004-.40997,1.68005-1.03998,2.27002l-5.98004,5.60999c-1,.95001-1.58997,2.20001-1.65997,3.55005l-.08002,2.83997-10.57001-2.96997.01001-5c0-.61005.28003-1.18005.76001-1.56l10-7.89001c.38-.25.84003-.34003,1.29999-.23999.44.09998.79999.34998,1.03003.70996.41998.67999.20996,1.54004-.48004,1.98004l-6.13995,3.87c-.46002.28998-.60004.90997-.31,1.38.29999.46997.91998.60999,1.38.31l6.13995-3.87c1.52002-.96002,2.03003-2.82001,1.28003-4.38l2.58997-11.92004c.13-.59998.76001-.98999,1.40002-.88.20001.03003.38.11005.53003.21002.29999.22003.47998.56.46997.90002l-.63,15.07996Z"/>
  <path d="M31.41699,22.8125c.17383.125.37891.1875.58301.1875s.40918-.0625.58301-.1875c.30371-.21777,7.41699-5.38574,7.41699-10.32715,0-3.02441-2.28809-5.48535-5.10059-5.48535-1.05273,0-2.05469.33887-2.89941.96973-.84473-.63086-1.84668-.96973-2.89941-.96973-2.8125,0-5.10059,2.46094-5.10059,5.48535,0,4.94141,7.11328,10.10938,7.41699,10.32715ZM29.10059,9c.81055,0,1.57812.35059,2.16113.98828.37891.41406,1.09766.41406,1.47656,0,.58301-.6377,1.35059-.98828,2.16113-.98828,1.70996,0,3.10059,1.56348,3.10059,3.48535,0,2.94727-3.90527,6.61914-6,8.2627-2.09473-1.64355-6-5.31543-6-8.2627,0-1.92188,1.39062-3.48535,3.10059-3.48535Z"/>
  <path d="M36,23.2041c0,3.61133,4.8623,7.20996,5.41602,7.6084.1748.125.37891.1875.58398.1875s.40918-.0625.58398-.1875c.55371-.39844,5.41602-3.99707,5.41602-7.6084,0-2.31836-1.7627-4.2041-3.92871-4.2041-.74512,0-1.45605.21875-2.07129.62891-.61523-.41016-1.32617-.62891-2.07129-.62891-2.16602,0-3.92871,1.88574-3.92871,4.2041ZM42.73828,21.61328c.36133-.39551.83496-.61328,1.33301-.61328,1.06348,0,1.92871.98828,1.92871,2.2041,0,1.91602-2.50977,4.33691-4,5.53711-1.49023-1.2002-4-3.62109-4-5.53711,0-1.21582.86523-2.2041,1.92871-2.2041.49805,0,.97168.21777,1.33301.61328.37891.41406,1.09766.41406,1.47656,0Z"/>
  <path d="M38,31.2041c0-2.31836-1.7627-4.2041-3.92871-4.2041-.74512,0-1.45605.21875-2.07129.62891-.61523-.41016-1.32617-.62891-2.07129-.62891-2.16602,0-3.92871,1.88574-3.92871,4.2041,0,3.61133,4.8623,7.20996,5.41602,7.6084.1748.125.37891.1875.58398.1875s.40918-.0625.58398-.1875c.55371-.39844,5.41602-3.99707,5.41602-7.6084ZM32,36.74121c-1.49023-1.2002-4-3.62109-4-5.53711,0-1.21582.86523-2.2041,1.92871-2.2041.49805,0,.97168.21777,1.33301.61328.37891.41406,1.09766.41406,1.47656,0,.36133-.39551.83496-.61328,1.33301-.61328,1.06348,0,1.92871.98828,1.92871,2.2041,0,1.91602-2.50977,4.33691-4,5.53711Z"/>
  <path d="M21.41602,30.8125c.1748.125.37891.1875.58398.1875s.40918-.0625.58398-.1875c.55371-.39844,5.41602-3.99707,5.41602-7.6084,0-2.31836-1.7627-4.2041-3.92871-4.2041-.74512,0-1.45605.21875-2.07129.62891-.61523-.41016-1.32617-.62891-2.07129-.62891-2.16602,0-3.92871,1.88574-3.92871,4.2041,0,3.61133,4.8623,7.20996,5.41602,7.6084ZM19.92871,21c.49805,0,.97168.21777,1.33301.61328.37891.41406,1.09766.41406,1.47656,0,.36133-.39551.83496-.61328,1.33301-.61328,1.06348,0,1.92871.98828,1.92871,2.2041,0,1.91602-2.50977,4.33691-4,5.53711-1.49023-1.2002-4-3.62109-4-5.53711,0-1.21582.86523-2.2041,1.92871-2.2041Z"/>
</svg>