<?xml version="1.0" encoding="UTF-8"?>
<svg id="Outline" xmlns="http://www.w3.org/2000/svg" version="1.1" viewBox="0 0 48 48">
  <!-- Generator: Adobe Illustrator 29.0.0, SVG Export Plug-In . SVG Version: 2.1.0 Build 186)  -->
  <path d="M35.00007,16v-5.99997c0-.53378-.46813-1.00003-1-1.00003-.54999,0-1,.45001-1,1v12c0,.54999-.45001,1-1,1s-1-.45001-1-1v-6c0-.54999-.45001-1-1-1s-1,.45001-1,1v6c0,.54999-.45001,1-1,1s-1-.45001-1-1v-6c0-.54999-.45001-1-1-1s-1,.45001-1,1v6c0,.54999-.45001,1-1,1s-1-.45001-1-1v-14c0-.54999-.45001-1-1-1s-1,.45001-1,1v16.94l.5.88995c.12.22003.32001.39001.54999.47003l2.27002.75c2.16998.72998,3.89996,2.46002,4.63,4.63.16998.52997-.10999,1.08997-.63,1.27002-.53003.16998-1.09003-.11005-1.27002-.63-.52997-1.58002-1.77997-2.84003-3.37-3.37l-2.26001-.76001c-.70996-.23004-1.31-.73004-1.66998-1.38l-2.20001-3.95001c-.46997-.84998-1.27997-1.46002-2.22998-1.65997-.60999-.13-1.22003-.09003-1.78998.10999l1.5,1.87c1.26996,1.58997,1.96997,3.58997,1.96997,5.63,0,2.31,1.09998,4.51996,2.96002,5.90997l.37.28003h12.66998v-2.20001c0-1.37.40002-2.70001,1.16998-3.84998.54004-.83002.83002-1.78003.83002-2.75v-6.20001c0-.54999.45001-1,1-1s1,.45001,1,1v6.20001c0,1.37-.40002,2.69995-1.16998,3.84998-.54004.83002-.83002,1.77997-.83002,2.75v2.38c1.15997.41998,2,1.52002,2,2.82001v2c0,1.64996-1.34998,3-3,3h-7c-.54999,0-1-.45001-1-1s.45001-1,1-1h7c.54999,0,1-.45001,1-1v-2c0-.54999-.45001-1-1-1h-14c-.54999,0-1,.45001-1,1v2c0,.54999.45001,1,1,1h3c.54999,0,1,.45001,1,1s-.45001,1-1,1h-3c-1.65002,0-3-1.35004-3-3v-2c0-.91003.41998-1.72003,1.06-2.27002-1.92999-1.77002-3.06-4.28998-3.06-6.91998,0-1.59003-.53998-3.14001-1.53003-4.38l-2.25-2.81c-.16998-.21002-.25-.47998-.20996-.75.02997-.26001.16998-.51001.39001-.66998,1.23999-.93005,2.81995-1.28003,4.32996-.95001,1.33002.27997,2.5,1.04999,3.27002,2.14996v-13.39996c0-1.65002,1.34998-3,3-3s3,1.34998,3,3v5.17999c.31-.10999.65002-.17999,1-.17999.77002,0,1.46997.29999,2,.77997.53003-.47998,1.22998-.77997,2-.77997.34998,0,.69.07001,1,.17999v-3.17999c0-1.65002,1.34996-2.99999,2.99998-3,1.62242-.00001,3.00002,1.38372,3.00002,3v6c0,.54999-.45001,1-1,1s-1-.45001-1-1Z"/>
</svg>