<?xml version="1.0" encoding="UTF-8"?>
<svg id="Outline" xmlns="http://www.w3.org/2000/svg" version="1.1" viewBox="0 0 48 48">
  <!-- Generator: Adobe Illustrator 29.0.0, SVG Export Plug-In . SVG Version: 2.1.0 Build 186)  -->
  <path d="M38.10999,30.13c-.14996.14996-.32996.28998-.51001.39996.25.44.40002.92999.40002,1.47003,0,1.07001-.56,2-1.40002,2.52997.25.44.40002.92999.40002,1.47003,0,1.38-.95001,2.53998-2.21997,2.88.13995.34998.21997.72998.21997,1.12,0,.81-.32001,1.57001-.89001,2.13-.53998.54999-1.29999.87-2.10999.87h-10c-.13,0-.25-.02002-.37-.07001l-4.82001-1.92999h-1.98999c-.41998,1.15997-1.52002,2-2.82001,2h-4c-1.65002,0-3-1.35004-3-3v-15c0-1.65002,1.34998-3,3-3h4c1.29999,0,2.40002.83997,2.82001,2h1.94c.65997,0,1.31-.15002,1.90997-.45001.70001-.34998,1.29004-.89001,1.70001-1.56.41998-.67999.63-1.42999.63-2.22998v-3.76001c0-.54999.45001-1,1-1,1.59998,0,3.09998.62,4.23999,1.75,1.14001,1.14996,1.76001,2.64996,1.76001,4.25v4h2c.54999,0,1,.45001,1,1s-.45001,1-1,1h-3c-.54999,0-1-.45001-1-1v-5c0-1.07001-.41998-2.07001-1.16998-2.84003-.51001-.5-1.14001-.85999-1.83002-1.02997v2.63c0,1.14996-.32001,2.28998-.92999,3.27997-.60004.97998-1.47003,1.78003-2.51001,2.29999-.89001.44-1.83002.66003-2.79999.66003h-1.76001v6c0,.54999-.45001,1-1,1s-1-.45001-1-1v-7c0-.54999-.45001-1-1-1h-4c-.54999,0-1,.45001-1,1v15c0,.54999.45001,1,1,1h4c.54999,0,1-.45001,1-1v-4c0-.54999.45001-1,1-1s1,.45001,1,1v3h2c.13,0,.25.01996.37.07001l4.82001,1.92999h9.81c.27002,0,.51001-.10004.69-.29004.21002-.19995.31-.44.31-.70996,0-.54999-.45001-1-1-1h-3c-.54999,0-1-.45001-1-1s.45001-1,1-1h5c.54999,0,1-.45001,1-1s-.45001-1-1-1h-5c-.54999,0-1-.45001-1-1s.45001-1,1-1h6c.54999,0,1-.45001,1-1s-.45001-1-1-1h-6c-.54999,0-1-.45001-1-1s.45001-1,1-1h7c.27002,0,.51001-.10004.69-.29004.21002-.19995.31-.44.31-.70996,0-.54999-.45001-1-1-1h-2c-.54999,0-1-.45001-1-1s.45001-1,1-1h2c1.65002,0,3,1.34998,3,3,0,.81-.32001,1.57001-.89001,2.13Z"/>
  <path d="M42.13477,17.00928c-1.62988-.22168-2.92285-1.51416-3.14355-3.14355-.06738-.49609-.49121-.86572-.99121-.86572s-.92383.36963-.99121.86572c-.2207,1.62939-1.51367,2.92188-3.14355,3.14355-.49512.06738-.86523.49023-.86523.99072s.37012.92334.86523.99072c1.62988.22168,2.92285,1.51416,3.14355,3.14355.06738.49609.49121.86572.99121.86572s.92383-.36963.99121-.86572c.2207-1.62939,1.51367-2.92188,3.14355-3.14355.49512-.06738.86523-.49023.86523-.99072s-.37012-.92334-.86523-.99072ZM38,19.35742c-.37207-.52539-.83203-.98486-1.35742-1.35742.52539-.37256.98535-.83203,1.35742-1.35742.37207.52539.83203.98486,1.35742,1.35742-.52539.37256-.98535.83203-1.35742,1.35742Z"/>
  <path d="M24.86523,11.99072l.88086.11963c1.62891.22168,2.92188,1.51465,3.14355,3.14355l.11914.88037c.06738.49561.49121.86572.99121.86572s.92383-.37012.99121-.86572l.11914-.87988c.22168-1.62939,1.51465-2.92236,3.14355-3.14404l.88086-.11963c.49512-.06738.86523-.49023.86523-.99072s-.37012-.92334-.86523-.99072l-.88086-.11963c-1.62891-.22168-2.92188-1.51465-3.14355-3.14355l-.11914-.88037c-.06738-.49561-.49121-.86572-.99121-.86572s-.92383.37012-.99121.86572l-.11914.87988c-.22168,1.62939-1.51465,2.92236-3.14355,3.14404l-.88086.11963c-.49512.06738-.86523.49023-.86523.99072s.37012.92334.86523.99072ZM30,9.34717c.43066.6582.99414,1.22217,1.65332,1.65283-.6582.43066-1.22266.99463-1.65332,1.65283-.43066-.6582-.99414-1.22217-1.65332-1.65283.6582-.43066,1.22266-.99463,1.65332-1.65283Z"/>
  <path d="M12.86523,12.99072c1.62988.22168,2.92285,1.51416,3.14355,3.14355.06738.49609.49121.86572.99121.86572s.92383-.36963.99121-.86572c.2207-1.62939,1.51367-2.92188,3.14355-3.14355.49512-.06738.86523-.49023.86523-.99072s-.37012-.92334-.86523-.99072c-1.62988-.22168-2.92285-1.51416-3.14355-3.14355-.06738-.49609-.49121-.86572-.99121-.86572s-.92383.36963-.99121.86572c-.2207,1.62939-1.51367,2.92188-3.14355,3.14355-.49512.06738-.86523.49023-.86523.99072s.37012.92334.86523.99072ZM17,10.64258c.37207.52539.83203.98486,1.35742,1.35742-.52539.37256-.98535.83203-1.35742,1.35742-.37207-.52539-.83203-.98486-1.35742-1.35742.52539-.37256.98535-.83203,1.35742-1.35742Z"/>
</svg>