<?xml version="1.0" encoding="UTF-8"?>
<svg id="Outline" xmlns="http://www.w3.org/2000/svg" version="1.1" viewBox="0 0 64 64">
  <!-- Generator: Adobe Illustrator 29.0.0, SVG Export Plug-In . SVG Version: 2.1.0 Build 186)  -->
  <path d="M56.78955,41.47266c-.40137-1.2168-1.31982-2.16211-2.51904-2.59277-1.19043-.42969-2.48877-.28516-3.56055.39062l-11.52002,7.2666c-.479.30273-1.03271.46289-1.6001.46289h-10.57764c-.07666,0-.13916-.06738-.13916-.15039,0-.06641.0415-.12598.10107-.14453l9.98682-3.10352c1.67236-.51855,2.65088-2.26562,2.22803-3.97559-.38379-1.54883-1.8125-2.59668-3.39404-2.51074l-12.58643.74707c-1.75879.10449-3.41064.85156-4.65137,2.10449-.7207.72852-1.6333,1.2207-2.63867,1.42285l-1.91846.3877v-.77734c0-.55273-.44775-1-1-1h-5c-.55225,0-1,.44727-1,1v15c0,.55273.44775,1,1,1h5c.55225,0,1-.44727,1-1v-1.00085l4.8457-.00403,18.604,1.78906c.2207.02148.44092.03223.66064.03223,1.42871,0,2.82666-.44336,3.99609-1.27734l13.16211-9.38477c1.48389-1.05859,2.09521-2.94043,1.521-4.68164ZM12,55h-3v-13h3v13ZM54.10742,44.52539l-13.16211,9.38477c-.95703.68262-2.12988.99316-3.3042.88379l-18.69971-1.79395h-4.94141v-9.18158l2.31445-.46783c1.39551-.28125,2.6626-.96582,3.66406-1.97656.89307-.90234,2.08252-1.44043,3.34863-1.51562l12.58594-.74707c.61963-.02441,1.18311.38184,1.33447.99512.16895.68359-.21729,1.37988-.87988,1.58496l-9.98682,3.10352c-.90186.28027-1.50781,1.10547-1.50781,2.05469,0,1.18555.95947,2.15039,2.13916,2.15039h10.57764c.94629,0,1.86865-.2666,2.66797-.77148l11.51953-7.2666c.5459-.34473,1.2085-.41797,1.81689-.2002.61621.22168,1.08838.70898,1.2959,1.33789.29834.9043-.0166,1.87891-.78271,2.42578Z"/>
  <path d="M19.87012,23c.07959,0,.16016-.00977.24023-.0293l5.35919-1.3277-1.83722,11.7525c-.05322.33789.07031.67871.32666.9043s.61035.30469.93896.21094l3.80957-1.10156,3.17041,2.38965c.17627.13281.38818.20117.60205.20117.12598,0,.25293-.02344.37354-.07227.3252-.13086.55811-.42285.61377-.76855l2.30756-14.34894c.39288.11938.80182.18976,1.22516.18976s.83228-.07037,1.22516-.18976l2.30756,14.34894c.05566.3457.28857.6377.61377.76855.12061.04883.24756.07227.37354.07227.21387,0,.42578-.06836.60205-.20117l3.17041-2.38965,3.80957,1.10156c.33057.0957.68311.01562.93896-.21094.25635-.22559.37988-.56641.32666-.9043l-1.83722-11.7525,5.35919,1.3277c.08008.01953.16064.0293.24023.0293.35156,0,.68506-.18555.8667-.50098,1.31055-2.27539,2.00342-4.86816,2.00342-7.49902s-.69287-5.22363-2.00342-7.49902c-.22266-.38672-.67383-.57715-1.10693-.47168l-13.67053,3.38672c-.87067-.88184-1.99335-1.41602-3.21912-1.41602s-2.34845.53418-3.21912,1.41602l-13.67053-3.38672c-.43213-.10352-.88379.08594-1.10693.47168-1.31055,2.27539-2.00342,4.86816-2.00342,7.49902s.69287,5.22363,2.00342,7.49902c.18164.31543.51514.50098.8667.50098ZM31.75635,33.20215l-2.24414-1.69141c-.25195-.18945-.57861-.25-.87988-.16211l-2.78174.80469,1.72437-11.03186,6.20593-1.53748c.04669.04724.09534.09137.14343.1366l-2.16797,13.48157ZM48.14941,32.15332l-2.78174-.80469c-.30273-.08789-.62842-.02637-.87988.16211l-2.24414,1.69141-2.16797-13.48157c.0481-.04523.09674-.08936.14343-.1366l6.20593,1.53748,1.72437,11.03186ZM53.61768,9.15723c.90625,1.80762,1.38232,3.81152,1.38232,5.84277s-.47607,4.03516-1.38232,5.84277l-12.20642-3.02393c.24915-.55927.42249-1.17224.51349-1.81885h5.07526c.55225,0,1-.44727,1-1s-.44775-1-1-1h-5.07526c-.091-.64661-.26434-1.25958-.51349-1.81885l12.20642-3.02393ZM37,11c1.6543,0,3,1.79395,3,4s-1.3457,4-3,4-3-1.79395-3-4,1.3457-4,3-4ZM20.38232,9.15723l12.20642,3.02393c-.24915.55927-.42249,1.17224-.51349,1.81885h-5.07526c-.55225,0-1,.44727-1,1s.44775,1,1,1h5.07526c.091.64661.26434,1.25958.51349,1.81885l-12.20642,3.02393c-.90625-1.80762-1.38232-3.81152-1.38232-5.84277s.47607-4.03516,1.38232-5.84277Z"/>
</svg>