<?xml version="1.0" encoding="UTF-8"?>
<svg id="Outline" xmlns="http://www.w3.org/2000/svg" version="1.1" viewBox="0 0 64 64">
  <!-- Generator: Adobe Illustrator 29.5.1, SVG Export Plug-In . SVG Version: 2.1.0 Build 141)  -->
  <path d="M56,31h-1.04c.01-.33.04-.66.04-1,0-12.68-10.32-23-23-23S9,17.32,9,30c0,.34.03.67.04,1h-1.04c-.55,0-1,.45-1,1v6c0,.55.45,1,1,1h1.16l2.71,15.52c.25,1.44,1.49,2.48,2.95,2.48h34.36c1.46,0,2.7-1.04,2.95-2.48l2.71-15.52h1.16c.55,0,1-.45,1-1v-6c0-.55-.45-1-1-1ZM32,9c11.58,0,21,9.42,21,21,0,.34-.03.67-.04,1h-1.99c.02-.34.03-.67.03-1,0-10.48-8.52-19-19-19S13,19.52,13,30c0,.33.01.66.03,1h-1.99c-.01-.33-.04-.66-.04-1,0-11.58,9.42-21,21-21ZM42.01,22.81c1-1.67,1.11-3.17.23-4.07-.34-.32-1.03-.75-2.27-.49-.69-1.07-1.5-1.25-1.97-1.25s-1.28.18-1.97,1.25c-1.23-.26-1.94.17-2.28.51-.87.88-.76,2.38.24,4.05-.75.4-1.45,1-1.99,1.9-.54-.9-1.24-1.5-1.99-1.9,1-1.67,1.11-3.17.23-4.07-.34-.32-1.03-.75-2.27-.49-.69-1.07-1.5-1.25-1.97-1.25s-1.28.18-1.97,1.25c-1.23-.26-1.94.17-2.28.51-.87.88-.76,2.38.24,4.05-1.59.84-2.99,2.59-2.99,6.19,0,.63.06,1.31.14,2h-4.11c-.02-.34-.03-.67-.03-1,0-9.37,7.63-17,17-17s17,7.63,17,17c0,.33-.01.66-.03,1h-4.11c.08-.69.14-1.37.14-2,0-3.6-1.4-5.34-2.99-6.19ZM35.56,24.3c.05-.01.09-.03.14-.04.66-.19,1.43-.26,2.3-.26,3.09,0,5,.84,5,5,0,.63-.06,1.3-.15,2h-9.7c-.09-.7-.15-1.37-.15-2,0-2.92.94-4.2,2.56-4.7ZM35.14,20.19c.07-.03.39-.07,1.01.19.51.21,1.09-.03,1.3-.54.26-.61.51-.82.52-.84.07.02.32.23.58.84.21.51.8.76,1.3.54.63-.26.94-.22.97-.23.07.14,0,.89-.77,2-.83-.14-1.57-.15-2.05-.15s-1.22.01-2.05.15c-.77-1.11-.84-1.85-.81-1.96ZM23.56,24.3c.05-.01.09-.03.14-.04.66-.19,1.43-.26,2.3-.26,3.09,0,5,.84,5,5,0,.63-.06,1.3-.15,2h-9.7c-.09-.7-.15-1.37-.15-2,0-2.92.94-4.2,2.56-4.7ZM23.14,20.19c.07-.03.39-.07,1.01.19.51.21,1.09-.03,1.3-.54.26-.61.51-.82.52-.84.07.02.32.23.58.84.21.51.8.76,1.3.54.63-.26.94-.22.97-.23.07.14,0,.89-.77,2-.83-.14-1.57-.15-2.05-.15s-1.22.01-2.05.15c-.77-1.11-.84-1.85-.81-1.96ZM50.16,54.17c-.08.48-.5.83-.98.83H14.82c-.48,0-.9-.35-.98-.83l-2.65-15.17h41.62l-2.65,15.17ZM55,37H9v-4h46v4Z"/>
  <path d="M32,53c.553,0,1-.447,1-1v-10c0-.553-.447-1-1-1s-1,.447-1,1v10c0,.553.447,1,1,1Z"/>
  <path d="M26,53c.553,0,1-.447,1-1v-10c0-.553-.447-1-1-1s-1,.447-1,1v10c0,.553.447,1,1,1Z"/>
  <path d="M20,53c.553,0,1-.447,1-1v-10c0-.553-.447-1-1-1s-1,.447-1,1v10c0,.553.447,1,1,1Z"/>
  <path d="M38,53c.553,0,1-.447,1-1v-10c0-.553-.447-1-1-1s-1,.447-1,1v10c0,.553.447,1,1,1Z"/>
  <path d="M44,53c.553,0,1-.447,1-1v-10c0-.553-.447-1-1-1s-1,.447-1,1v10c0,.553.447,1,1,1Z"/>
</svg>