<?xml version="1.0" encoding="UTF-8"?>
<svg id="Outline" xmlns="http://www.w3.org/2000/svg" version="1.1" viewBox="0 0 64 64">
  <!-- Generator: Adobe Illustrator 29.5.1, SVG Export Plug-In . SVG Version: 2.1.0 Build 141)  -->
  <path d="M44,7h-24c-1.65,0-3,1.35-3,3v10c0,.55.45,1,1,1s1-.45,1-1v-6c0-.55.45-1,1-1h2c.55,0,1-.45,1-1s-.45-1-1-1h-2c-.35,0-.69.07-1,.18v-1.18c0-.55.45-1,1-1h24c.55,0,1,.45,1,1v1.18c-.31-.11-.65-.18-1-.18h-18c-.55,0-1,.45-1,1s.45,1,1,1h18c.55,0,1,.45,1,1v36c0,.55-.45,1-1,1h-24c-.55,0-1-.45-1-1v-26c0-.55-.45-1-1-1s-1,.45-1,1v30c0,1.65,1.35,3,3,3h24c1.65,0,3-1.35,3-3V10c0-1.65-1.35-3-3-3ZM45,54c0,.55-.45,1-1,1h-24c-.55,0-1-.45-1-1v-1.18c.31.11.65.18,1,.18h24c.35,0,.69-.07,1-.18v1.18Z"/>
  <path d="M23,41c-.552,0-1,.447-1,1v4c0,.553.448,1,1,1h.111l-.104.883c-.033.284.056.568.246.781.189.214.461.336.747.336h4c.507,0,.934-.38.993-.883l.131-1.117h3.986l-.104.883c-.033.284.056.568.246.781.189.214.461.336.747.336h4c.507,0,.934-.38.993-.883l.131-1.117h1.875c.552,0,1-.447,1-1v-4c0-.553-.448-1-1-1h-1.169l.235-2h.935c.552,0,1-.447,1-1v-4c0-.553-.448-1-1-1h-.229l.222-1.883c.033-.284-.056-.568-.246-.781-.189-.214-.461-.336-.747-.336h-4c-.507,0-.934.38-.993.883l-.249,2.117h-3.986l.222-1.883c.033-.284-.056-.568-.246-.781-.189-.214-.461-.336-.747-.336h-4c-.507,0-.934.38-.993.883l-.249,2.117h-1.758c-.552,0-1,.447-1,1v4c0,.553.448,1,1,1h1.052l-.235,2h-.817ZM24,43h.706c.507,0,.934-.38.993-.883l.47-4c.033-.284-.056-.568-.246-.781-.189-.214-.461-.336-.747-.336h-1.176v-2h1.647c.507,0,.934-.38.993-.883l.249-2.117h1.986l-.222,1.883c-.033.284.056.568.246.781.189.214.461.336.747.336h6c.507,0,.934-.38.993-.883l.249-2.117h1.986l-.222,1.883c-.033.284.056.568.246.781.189.214.461.336.747.336h.353v2h-.824c-.507,0-.934.38-.993.883l-.47,4c-.033.284.056.568.246.781.189.214.461.336.747.336h1.294v2h-1.765c-.507,0-.934.38-.993.883l-.131,1.117h-1.986l.104-.883c.033-.284-.056-.568-.246-.781-.189-.214-.461-.336-.747-.336h-6c-.507,0-.934.38-.993.883l-.131,1.117h-1.986l.104-.883c.033-.284-.056-.568-.246-.781-.189-.214-.461-.336-.747-.336h-.235v-2Z"/>
  <path d="M28.706,43h6c.507,0,.934-.38.993-.883l.47-4c.033-.284-.056-.568-.246-.781-.189-.214-.461-.336-.747-.336h-6c-.507,0-.934.38-.993.883l-.47,4c-.033.284.056.568.246.781.189.214.461.336.747.336ZM30.065,39h3.986l-.235,2h-3.986l.235-2Z"/>
  <path d="M31.293,28.707c.195.195.451.293.707.293s.512-.098.707-.293l5.437-5.437c.915-.915,1.419-2.132,1.419-3.426s-.504-2.511-1.419-3.426c-1.668-1.667-4.259-1.861-6.144-.585-1.885-1.276-4.477-1.082-6.144.585-.915.915-1.419,2.131-1.419,3.426s.504,2.511,1.419,3.426l5.437,5.437ZM27.27,17.833c.555-.555,1.283-.831,2.012-.831s1.457.276,2.011.831c.391.391,1.023.391,1.414,0,1.11-1.109,2.914-1.109,4.023,0,.537.537.833,1.252.833,2.012s-.296,1.475-.833,2.012l-4.73,4.729-4.73-4.729c-.537-.537-.833-1.252-.833-2.012s.296-1.475.833-2.012Z"/>
</svg>