<?xml version="1.0" encoding="UTF-8"?>
<svg id="Outline" xmlns="http://www.w3.org/2000/svg" version="1.1" viewBox="0 0 64 64">
  <!-- Generator: Adobe Illustrator 29.5.1, SVG Export Plug-In . SVG Version: 2.1.0 Build 141)  -->
  <path d="M51,17h-1.22c-.72-2.71-2.27-5.15-4.46-6.96-2.41-1.96-5.43-3.04-8.52-3.04h-9.6c-6.11,0-11.44,4.16-12.98,10h-1.22c-.55,0-1,.45-1,1v6c0,.55.45,1,1,1h1.1l2.71,25.32c.17,1.53,1.45,2.68,2.99,2.68h.38c-.11.31-.18.65-.18,1,0,1.65,1.35,3,3,3s3-1.35,3-3c0-.35-.07-.69-.18-1h12.36c-.11.31-.18.65-.18,1,0,1.65,1.35,3,3,3s3-1.35,3-3c0-.35-.07-.69-.18-1h.38c1.54,0,2.82-1.15,2.99-2.68l2.71-25.32h1.1c.55,0,1-.45,1-1v-6c0-.55-.45-1-1-1ZM27.2,9h9.6c1.74,0,3.46.41,5.02,1.17-1.87,1.7-5.67,2.83-9.82,2.83s-7.95-1.13-9.82-2.83c1.53-.75,3.23-1.17,5.02-1.17ZM23,55c-.55,0-1-.45-1-1s.45-1,1-1,1,.45,1,1-.45,1-1,1ZM41,55c-.55,0-1-.45-1-1s.45-1,1-1,1,.45,1,1-.45,1-1,1ZM45.2,50.11c-.06.51-.48.89-1,.89h-24.4c-.52,0-.94-.38-1-.89l-2.69-25.11h31.78l-2.69,25.11ZM50,23H14v-4h6c.55,0,1-.45,1-1s-.45-1-1-1h-3.71c.74-2.35,2.21-4.35,4.13-5.77,2.16,2.29,6.62,3.77,11.58,3.77s9.42-1.48,11.58-3.76c.16.11.32.23.47.35,1.73,1.42,3,3.31,3.66,5.41h-19.71c-.55,0-1,.45-1,1s.45,1,1,1h22v4Z"/>
  <path d="M31.462,35.692c0-.266-.105-.52-.293-.707l-2.308-2.308c-.188-.188-.441-.293-.707-.293-1.824,0-3.309,1.483-3.309,3.308s1.484,3.308,3.309,3.308,3.308-1.483,3.308-3.308ZM26.846,35.692c0-.595.4-1.099.945-1.257l1.62,1.62c-.158.545-.662.944-1.257.944-.722,0-1.309-.587-1.309-1.308Z"/>
  <path d="M35.846,39c1.824,0,3.309-1.483,3.309-3.308s-1.484-3.308-3.309-3.308c-.266,0-.52.105-.707.293l-2.308,2.308c-.188.188-.293.441-.293.707,0,1.824,1.483,3.308,3.308,3.308ZM36.209,34.436c.545.158.945.662.945,1.257,0,.721-.587,1.308-1.309,1.308-.595,0-1.099-.399-1.257-.944l1.62-1.62Z"/>
  <path d="M24.846,46.462c0,1.399,1.139,2.538,2.539,2.538h9.23c1.4,0,2.539-1.139,2.539-2.538v-1.932c1.96-1.923,3.076-4.558,3.076-7.3,0-2.904-1.241-5.682-3.405-7.621-2.162-1.938-5.067-2.862-7.979-2.546-4.728.52-8.52,4.332-9.018,9.066-.334,3.161.763,6.197,3.018,8.401v1.931ZM23.816,36.339c.4-3.805,3.448-6.87,7.248-7.287.317-.035.633-.052.945-.052,2.033,0,3.951.729,5.48,2.099,1.741,1.561,2.74,3.796,2.74,6.132s-1,4.558-2.744,6.123c-.211.189-.332.46-.332.744v2.364c0,.297-.242.538-.539.538h-1.615v-3c0-.553-.447-1-1-1s-1,.447-1,1v3h-2v-3c0-.553-.447-1-1-1s-1,.447-1,1v3h-1.615c-.297,0-.539-.241-.539-.538v-2.364c0-.284-.121-.555-.332-.744-1.995-1.79-2.979-4.347-2.697-7.015Z"/>
  <circle cx="24" cy="18" r="1"/>
</svg>