<?xml version="1.0" encoding="UTF-8"?>
<svg id="Outline" xmlns="http://www.w3.org/2000/svg" version="1.1" viewBox="0 0 64 64">
  <!-- Generator: Adobe Illustrator 29.3.1, SVG Export Plug-In . SVG Version: 2.1.0 Build 151)  -->
  <path d="M54.75,23.66998l1-1c.31-.31.38-.78998.17999-1.16998-4.70001-8.95001-13.85999-14.5-23.92999-14.5s-19.22998,5.54999-23.92999,14.5c-.20001.38-.13.85999.17999,1.16998l1,1c-1.46997,3.21002-2.25,6.76001-2.25,10.33002v10c0,2.20996,1.78998,4,4,4,.72998,0,1.40997-.21002,2-.56v.56c0,1.64996,1.34998,3,3,3h2c1.65002,0,3-1.35004,3-3v-3c0-.54999-.45001-1-1-1s-1,.45001-1,1v3c0,.54999-.45001,1-1,1h-2c-.54999,0-1-.45001-1-1v-14c0-.54999.45001-1,1-1h2c.54999,0,1,.45001,1,1v3c0,.54999.45001,1,1,1s1-.45001,1-1v-3c0-1.65002-1.34998-3-3-3h-2c-1.65002,0-3,1.34998-3,3v.56c-.59003-.35004-1.27002-.56-2-.56s-1.40997.20996-2,.56v-.56c0-3.03003.60999-6.04999,1.77002-8.82001l.46997.47998c.22998.23004.57001.34003.89001.27002.32001-.04999.59998-.27002.72998-.57001,3.41003-7.51001,10.92004-12.35999,19.14001-12.35999s15.72961,4.84973,19.13977,12.35944c.27795.61212,1.14246.77832,1.62024.30054l.46997-.47998c1.16003,2.77002,1.77002,5.78998,1.77002,8.82001v.56c-.59003-.35004-1.27002-.56-2-.56s-1.40997.20996-2,.56v-.56c0-1.65002-1.34998-3-3-3h-2c-1.65002,0-3,1.34998-3,3v14c0,1.58997,1.25,2.89001,2.82001,2.97998-.41003,1.16998-1.51001,2.02002-2.82001,2.02002h-5.17999c-.41998-1.16003-1.52002-2-2.82001-2h-6c-1.65002,0-3,1.34998-3,3s1.34998,3,3,3h6c1.29999,0,2.40002-.84003,2.82001-2h5.17999c2.40997,0,4.42999-1.72003,4.90002-4h.09998c1.65002,0,3-1.35004,3-3v-.56c.59003.34998,1.27002.56,2,.56,2.21002,0,4-1.79004,4-4v-10c0-3.57001-.78003-7.12-2.25-10.33002ZM11,36c1.09998,0,2,.89996,2,2v6c0,1.09998-.90002,2-2,2s-2-.90002-2-2v-6c0-1.10004.90002-2,2-2ZM52.33002,23.25c-3.97003-7.48004-11.79999-12.25-20.33002-12.25s-16.35999,4.76996-20.33002,12.25l-1.46997-1.47003c4.44-7.89996,12.71997-12.77997,21.79999-12.77997s17.35999,4.88,21.79999,12.77997l-1.46997,1.47003ZM35,55h-6c-.54999,0-1-.45001-1-1s.45001-1,1-1h6c.54999,0,1,.45001,1,1s-.45001,1-1,1ZM49,48c0,.54999-.45001,1-1,1h-2c-.54999,0-1-.45001-1-1v-14c0-.54999.45001-1,1-1h2c.54999,0,1,.45001,1,1v14ZM55,44c0,1.09998-.90002,2-2,2s-2-.90002-2-2v-6c0-1.10004.90002-2,2-2s2,.89996,2,2v6Z"/>
  <path d="M34,27c1.6543,0,3-1.3457,3-3s-1.3457-3-3-3-3,1.3457-3,3,1.3457,3,3,3ZM34,23c.55127,0,1,.44824,1,1s-.44873,1-1,1-1-.44824-1-1,.44873-1,1-1Z"/>
  <path d="M29,24c0-1.6543-1.3457-3-3-3s-3,1.3457-3,3,1.3457,3,3,3,3-1.3457,3-3ZM25,24c0-.55176.44873-1,1-1s1,.44824,1,1-.44873,1-1,1-1-.44824-1-1Z"/>
  <path d="M34,31c.48242,0,.96387-.0498,1.43652-.14941l3.85645,3.85645c.19128.19128.44647.29285.70654.29297.54431.00024,1.00049-.46082,1.00049-1v-10c0-3.85938-3.14014-7-7-7h-8c-3.85986,0-7,3.14062-7,7s3.14014,7,7,7h8ZM21,24c0-2.75684,2.24316-5,5-5h8c2.75684,0,5,2.24316,5,5v7.58594l-2.55176-2.55176c-.19043-.19043-.4458-.29297-.70703-.29297-.09668,0-.19434.01367-.29004.04297-.47266.14355-.96094.21582-1.45117.21582h-8c-2.75684,0-5-2.24316-5-5Z"/>
  <circle cx="20" cy="41" r="1"/>
</svg>