<?xml version="1.0" encoding="UTF-8"?>
<svg id="Outline" xmlns="http://www.w3.org/2000/svg" version="1.1" viewBox="0 0 48 48">
  <!-- Generator: Adobe Illustrator 29.5.1, SVG Export Plug-In . SVG Version: 2.1.0 Build 141)  -->
  <path d="M41.99,20h-.98c2.5-3.1,1.96-7.86,1.93-8.07-.05-.46-.41-.82-.87-.87-.22-.03-5.36-.6-8.43,2.24-.39-.92-1.09-1.71-1.99-2.19.03-.22.05-.45.05-.68,0-2.44-1.98-4.43-4.42-4.43s-4.43,1.99-4.43,4.43c0,.23.02.46.05.68-.36.19-.69.44-.98.72-.87-.43-1.88-.52-2.83-.26-.1-.14-.22-.27-.34-.4-1.51-1.51-4.15-1.51-5.66,0-.75.76-1.17,1.76-1.17,2.83-1.63.02-3.12.7-4.19,1.78-1.08,1.08-1.74,2.58-1.74,4.22-.55,0-1,.45-1,1v2c0,7.04,3.82,13.39,10,16.72v1.28c0,.55.45,1,1,1h16c.55,0,1-.45,1-1v-1.28c6.18-3.33,10-9.68,10-16.72v-2c0-.55-.45-1-1-1ZM23.19,16.62c-.41-.45-.63-1.03-.63-1.62,0-1.08.74-2.04,1.8-2.34.28-.07.51-.26.64-.52.12-.25.13-.55.03-.82-.12-.28-.18-.58-.18-.89,0-1.34,1.09-2.43,2.43-2.43,1.33,0,2.42,1.09,2.42,2.43,0,.31-.06.61-.18.89-.1.27-.09.56.03.82.13.26.36.45.64.52,1.06.3,1.8,1.26,1.8,2.34,0,.59-.22,1.17-.63,1.62-.35.38-.35.97,0,1.35.41.44.63,1.01.63,1.6,0,.15-.02.29-.05.43h-3.66v-1.59l1.7-1.7c.39-.39.39-1.03,0-1.42s-1.02-.39-1.41,0l-.29.3v-1.59c0-.55-.45-1-1-1-.56,0-1,.45-1,1v1.59l-.3-.3c-.39-.39-1.02-.39-1.41,0-.39.39-.39,1.03,0,1.42l1.71,1.7v1.59h-3.67c-.03-.14-.05-.28-.05-.43,0-.59.22-1.16.63-1.6.35-.38.35-.97,0-1.35ZM14.51,12.59c.78-.78,2.04-.78,2.82,0,.18.18.32.38.42.61.11.27.32.47.59.57.28.09.57.06.82-.08.52-.3,1.13-.33,1.66-.14-.16.46-.26.94-.26,1.45,0,.81.23,1.6.65,2.29-.42.68-.65,1.47-.65,2.28,0,.15.03.29.05.43h-4.2c-.19-.1-.36-.21-.49-.35-.64-.63-.76-1.62-.31-2.4.14-.25.17-.55.08-.82-.1-.28-.3-.49-.57-.6-.23-.1-.43-.24-.61-.42-.78-.78-.78-2.04,0-2.82ZM11.99,16c.16,0,.34.03.51.05.17.28.36.54.59.78.13.12.26.24.4.34-.27.95-.16,1.96.26,2.83h-5.76c0-2.21,1.79-4,4-4ZM40.99,23c0,6.48-3.62,12.31-9.45,15.21-.34.17-.55.52-.55.9v.89h-14v-.89c0-.38-.21-.73-.55-.9-5.83-2.9-9.45-8.73-9.45-15.21v-1h34v1ZM39.12,19.12c-.34.34-.75.63-1.21.88h-3.97c.02-.14.05-.28.05-.43,0-.74-.2-1.46-.55-2.11.32-1.07.8-1.95,1.44-2.58,1.74-1.74,4.69-1.92,6.12-1.88.03,1.43-.14,4.38-1.88,6.12Z"/>
  <path d="M8.99,12c1.654,0,3-1.346,3-3s-1.346-3-3-3-3,1.346-3,3,1.346,3,3,3ZM8.99,8c.551,0,1,.449,1,1s-.449,1-1,1-1-.449-1-1,.449-1,1-1Z"/>
</svg>