<?xml version="1.0" encoding="UTF-8"?>
<svg id="Outline" xmlns="http://www.w3.org/2000/svg" version="1.1" viewBox="0 0 64 64">
  <!-- Generator: Adobe Illustrator 29.5.1, SVG Export Plug-In . SVG Version: 2.1.0 Build 141)  -->
  <path d="M32,7c-13.785,0-25,11.215-25,25s11.215,25,25,25,25-11.215,25-25S45.785,7,32,7ZM55,32c0,2.44-.385,4.791-1.093,7h-11.722c3.583-5.101,6.815-10.848,6.815-15,0-4.201-1.539-8.043-4.073-11.012,6.076,4.144,10.073,11.12,10.073,19.012ZM17,24c0-8.271,6.729-15,15-15s15,6.729,15,15c0,7.291-11.897,21.049-15,24.512-3.103-3.463-15-17.221-15-24.512ZM19.073,12.988c-2.534,2.97-4.073,6.812-4.073,11.012,0,4.152,3.231,9.899,6.815,15h-11.722c-.707-2.209-1.093-4.56-1.093-7,0-7.893,3.997-14.868,10.073-19.012ZM32,55c-9.49,0-17.655-5.778-21.164-14h12.424c2.492,3.359,4.963,6.265,6.493,8h-3.753c-.553,0-1,.448-1,1s.447,1,1,1h12c.553,0,1-.448,1-1s-.447-1-1-1h-3.753c1.53-1.735,4.001-4.641,6.493-8h12.424c-3.51,8.222-11.674,14-21.164,14Z"/>
  <path d="M45,24c0-7.168-5.832-13-13-13s-13,5.832-13,13,5.832,13,13,13,13-5.832,13-13ZM21,24c0-6.065,4.935-11,11-11s11,4.935,11,11-4.935,11-11,11-11-4.935-11-11Z"/>
  <path d="M32.707,30.707l5.437-5.437c.915-.915,1.42-2.131,1.42-3.426s-.505-2.51-1.42-3.425-2.131-1.419-3.426-1.419c-.983,0-1.922.291-2.718.833-.796-.542-1.734-.833-2.718-.833-1.295,0-2.511.504-3.426,1.419s-1.42,2.131-1.42,3.425.505,2.511,1.42,3.426l5.437,5.437c.188.188.441.293.707.293s.52-.105.707-.293ZM27.271,23.856c-.537-.538-.834-1.252-.834-2.012s.297-1.474.834-2.011c.537-.537,1.251-.833,2.012-.833s1.474.296,2.011.833c.375.375,1.039.375,1.414,0,1.075-1.075,2.949-1.074,4.022,0,.537.538.834,1.252.834,2.011s-.297,1.474-.834,2.012l-4.729,4.73-4.729-4.73Z"/>
</svg>