<?xml version="1.0" encoding="UTF-8"?>
<svg id="Outline" xmlns="http://www.w3.org/2000/svg" version="1.1" viewBox="0 0 64 64">
  <!-- Generator: Adobe Illustrator 29.5.1, SVG Export Plug-In . SVG Version: 2.1.0 Build 141)  -->
  <path d="M56.798,22.391c0-3.176-1.237-6.163-3.484-8.409-2.246-2.246-5.232-3.483-8.409-3.483-2.854,0-5.554.999-7.702,2.83-2.148-1.832-4.849-2.83-7.702-2.83-3.177,0-6.163,1.237-8.409,3.483-2.247,2.246-3.484,5.233-3.484,8.409s1.237,6.164,3.484,8.41l13.697,13.698h-2.586c-.446,0-.839.296-.962.725l-1.227,4.296-1.893-4.415c-.157-.368-.519-.606-.919-.606h-3.307l-2.757-7.351c-.148-.396-.542-.649-.955-.649-.424.008-.796.282-.93.684l-3.914,11.742-1.168-4.668c-.111-.445-.511-.757-.97-.757h-5c-.553,0-1,.448-1,1s.447,1,1,1h4.219l1.812,7.243c.107.431.487.74.932.756.442.044.847-.261.986-.683l4.107-12.32,2.008,5.355c.146.39.52.649.937.649h3.341l2.74,6.394c.158.369.521.606.919.606.021,0,.042,0,.063-.002.422-.027.782-.316.898-.723l1.792-6.275h4.246c.239,0,.521-.106.708-.294l15.403-15.404c2.247-2.246,3.484-5.233,3.484-8.41ZM37.202,44.084l-14.697-14.698c-1.869-1.869-2.898-4.353-2.898-6.996s1.029-5.126,2.898-6.995c1.929-1.928,4.462-2.893,6.995-2.893s5.066.964,6.995,2.893c.391.391,1.023.391,1.414,0,3.857-3.856,10.133-3.856,13.99,0,1.869,1.869,2.898,4.353,2.898,6.995s-1.029,5.127-2.898,6.996l-14.697,14.698Z"/>
  <path d="M50.485,16.81c-.391-.391-1.023-.391-1.414,0s-.391,1.023,0,1.414c1.113,1.113,1.727,2.593,1.727,4.167s-.613,3.054-1.727,4.167c-.391.391-.391,1.023,0,1.414.195.195.451.293.707.293s.512-.098.707-.293c1.491-1.491,2.312-3.473,2.312-5.581s-.821-4.089-2.312-5.581Z"/>
</svg>