<?xml version="1.0" encoding="UTF-8"?>
<svg id="Outline" xmlns="http://www.w3.org/2000/svg" version="1.1" viewBox="0 0 64 64">
  <!-- Generator: Adobe Illustrator 29.5.1, SVG Export Plug-In . SVG Version: 2.1.0 Build 141)  -->
  <path d="M52.643,13.422c-2.852-2.852-6.643-4.422-10.675-4.422-3.708,0-7.211,1.328-9.968,3.758-2.757-2.43-6.26-3.758-9.968-3.758-4.032,0-7.823,1.57-10.675,4.422-5.886,5.886-5.886,15.463,0,21.35l19.935,19.935c.092.093.203.166.326.217.122.051.252.077.382.077s.26-.027.382-.077c.123-.051.233-.124.326-.217l19.935-19.935c5.886-5.886,5.886-15.463,0-21.35ZM53.084,31h-4.072c.652-1.412,1.007-2.956,1.008-4.559.002-2.923-1.136-5.671-3.203-7.738-.018-.018-.038-.033-.056-.051l4.126-4.126c.113.105.232.2.341.31,4.381,4.381,4.991,11.113,1.855,16.164ZM49.323,13.262l-4.114,4.114c-.592-.4-1.22-.742-1.883-1.019-.508-.212-1.096.027-1.309.538-.213.51.028,1.095.537,1.308,1.063.444,2.021,1.088,2.849,1.915,1.689,1.689,2.618,3.935,2.617,6.322-.002,2.383-.931,4.622-2.617,6.304l-13.344,13.342-13.334-13.343c-1.686-1.681-2.614-3.919-2.616-6.303,0-2.388.928-4.633,2.617-6.322,1.688-1.688,3.932-2.617,6.317-2.617h.007c2.383.001,4.62.931,6.301,2.616.188.188.441.294.707.294h0c.266,0,.52-.105.707-.293.8-.8,1.723-1.429,2.74-1.869.507-.219.74-.808.521-1.315-.219-.506-.808-.741-1.314-.521-.604.261-1.169.595-1.714.961v-2.803c2.438-2.298,5.603-3.57,8.968-3.57,2.663,0,5.202.794,7.355,2.262ZM31,47.854v3.732l-8.586-8.586,1.868-1.868,6.718,6.722ZM33,47.974l6.78-6.78,1.806,1.806-8.586,8.586v-3.612ZM31,14.57v2.705c-1.754-1.148-3.801-1.774-5.947-1.776h-.009c-2.247,0-4.388.68-6.198,1.932l-4.169-4.169c2.153-1.468,4.692-2.262,7.355-2.262,3.365,0,6.529,1.272,8.968,3.57ZM12.771,14.836c.109-.109.229-.205.341-.31l4.189,4.189c-2.06,2.066-3.194,4.808-3.192,7.726.001,1.603.356,3.147,1.008,4.559h-4.201c-3.136-5.051-2.525-11.783,1.855-16.164ZM12.449,33h3.87c.305.403.63.794.994,1.157l5.556,5.56-1.869,1.869-8.229-8.229c-.115-.115-.213-.239-.323-.357ZM43,41.586l-1.806-1.806,5.622-5.622c.364-.364.689-.755.995-1.158h3.74c-.11.118-.208.243-.323.357l-8.228,8.228Z"/>
  <path d="M39.243,28c.322-1.169.018-2.466-.879-3.363-.896-.897-2.195-1.202-3.363-.88-.6-1.055-1.732-1.756-3.001-1.756s-2.401.702-3,1.756c-1.169-.322-2.467-.017-3.364.88-.897.897-1.201,2.194-.879,3.363-1.055.6-1.757,1.732-1.757,3s.702,2.401,1.757,3c-.322,1.169-.019,2.466.879,3.364.897.896,2.195,1.201,3.363.88.6,1.055,1.732,1.756,3.001,1.756s2.401-.702,3-1.756c1.171.323,2.468.018,3.364-.88.897-.897,1.201-2.194.879-3.364,1.055-.599,1.757-1.731,1.757-3s-.702-2.401-1.757-3ZM37.731,32.438c-.354.047-.655.279-.792.609s-.087.707.13.99c.443.579.392,1.402-.119,1.913-.512.512-1.335.563-1.914.12-.285-.217-.662-.266-.99-.129-.329.137-.562.438-.608.792-.097.723-.714,1.268-1.437,1.268s-1.341-.545-1.438-1.268c-.047-.354-.279-.655-.608-.792-.123-.051-.253-.076-.383-.076-.216,0-.43.07-.607.206-.579.443-1.403.392-1.914-.12-.511-.511-.562-1.334-.119-1.913.217-.284.267-.661.13-.99s-.438-.562-.792-.609c-.723-.097-1.269-.714-1.269-1.438s.546-1.341,1.269-1.438c.354-.047.655-.279.792-.608.137-.33.087-.707-.13-.99-.442-.58-.392-1.402.119-1.914s1.335-.562,1.914-.12c.285.217.663.266.99.129.329-.137.562-.438.608-.792.097-.723.714-1.268,1.438-1.268s1.341.545,1.437,1.268c.047.354.279.655.608.792.327.135.705.088.99-.129.579-.443,1.402-.392,1.914.12.511.511.562,1.334.119,1.914-.217.283-.267.661-.13.99.137.329.438.561.792.608.723.097,1.269.714,1.269,1.438s-.546,1.341-1.269,1.438Z"/>
  <path d="M32,27c-2.206,0-4,1.794-4,4s1.794,4,4,4,4-1.794,4-4-1.794-4-4-4ZM32,33c-1.103,0-2-.897-2-2s.897-2,2-2,2,.897,2,2-.897,2-2,2Z"/>
  <circle cx="39.022" cy="16.478" r="1"/>
</svg>