<?xml version="1.0" encoding="UTF-8"?>
<svg id="Outline" xmlns="http://www.w3.org/2000/svg" version="1.1" viewBox="0 0 64 64">
  <!-- Generator: Adobe Illustrator 29.5.1, SVG Export Plug-In . SVG Version: 2.1.0 Build 141)  -->
  <path d="M32.877,43.515c-.352-.635-1.396-.635-1.748,0l-5,9c-.172.31-.168.688.012.992.18.306.508.493.862.493h2v2c0,.553.447,1,1,1h4c.553,0,1-.447,1-1v-2h2c.354,0,.683-.188.862-.493.18-.305.184-.683.012-.992l-5-9ZM34.003,52c-.553,0-1,.447-1,1v2h-2v-2c0-.553-.447-1-1-1h-1.301l3.301-5.94,3.301,5.94h-1.301Z"/>
  <path d="M40.003,11h-16c-.553,0-1,.447-1,1s.447,1,1,1h16c.553,0,1-.447,1-1s-.447-1-1-1Z"/>
  <path d="M40.003,15h-16c-.553,0-1,.447-1,1s.447,1,1,1h16c.553,0,1-.447,1-1s-.447-1-1-1Z"/>
  <path d="M22.003,21h6.697l2.748,1.832c.168.112.361.168.555.168s.387-.056.555-.168l2.748-1.832h6.697c1.654,0,3-1.346,3-3v-8c0-1.654-1.346-3-3-3h-14c-.553,0-1,.447-1,1s.447,1,1,1h14c.552,0,1,.448,1,1v8c0,.552-.448,1-1,1h-7c-.197,0-.391.059-.555.168l-2.445,1.63-2.445-1.63c-.164-.109-.357-.168-.555-.168h-7c-.552,0-1-.448-1-1v-8c0-.552.448-1,1-1h2c.553,0,1-.447,1-1s-.447-1-1-1h-2c-1.654,0-3,1.346-3,3v8c0,1.654,1.346,3,3,3Z"/>
  <path d="M39.053,26.606c-1.916-1.916-4.908-2.113-7.05-.598-2.14-1.517-5.133-1.319-7.05.598-2.139,2.139-2.139,5.619,0,7.758l6.343,6.343c.195.195.451.293.707.293s.512-.098.707-.293l6.343-6.343c2.139-2.139,2.139-5.619,0-7.758ZM37.638,32.95l-5.636,5.636-5.636-5.636c-1.359-1.359-1.359-3.57,0-4.93.68-.679,1.571-1.019,2.464-1.019s1.785.34,2.465,1.019c.391.391,1.023.391,1.414,0,1.359-1.357,3.569-1.357,4.929,0,1.359,1.359,1.359,3.57,0,4.93Z"/>
  <path d="M55.05,34.603c-1.914-1.916-4.908-2.115-7.047-.598-2.14-1.517-5.132-1.318-7.049.6-2.134,2.146-2.133,5.629.002,7.763l6.34,6.34c.195.195.451.293.707.293s.511-.098.706-.292l2.76-2.75c.391-.39.393-1.022.002-1.414-.39-.392-1.022-.393-1.414-.002l-2.053,2.045-5.634-5.634c-1.356-1.356-1.355-3.572,0-4.937,1.357-1.357,3.568-1.357,4.926,0,.391.391,1.023.391,1.414,0,1.358-1.358,3.567-1.358,4.924-.002,1.357,1.366,1.358,3.582-.003,4.943l-.75.76c-.388.393-.384,1.025.01,1.414.392.388,1.024.384,1.414-.01l.745-.755c2.135-2.134,2.136-5.616,0-7.765Z"/>
  <path d="M16.003,34.009c-2.14-1.517-5.133-1.319-7.05.598-2.139,2.139-2.139,5.619,0,7.758l6.343,6.343c.195.195.451.293.707.293s.512-.098.707-.293l6.343-6.343c2.139-2.139,2.139-5.619,0-7.758-1.916-1.916-4.908-2.113-7.05-.598ZM21.638,40.95l-5.636,5.636-5.636-5.636c-1.359-1.359-1.359-3.57,0-4.93.68-.679,1.571-1.019,2.464-1.019s1.785.34,2.465,1.019c.391.391,1.023.391,1.414,0,1.359-1.357,3.569-1.357,4.929,0,1.359,1.359,1.359,3.57,0,4.93Z"/>
</svg>