<?xml version="1.0" encoding="UTF-8"?>
<svg id="Outline" xmlns="http://www.w3.org/2000/svg" version="1.1" viewBox="0 0 64 64">
  <!-- Generator: Adobe Illustrator 29.3.1, SVG Export Plug-In . SVG Version: 2.1.0 Build 151)  -->
  <path d="M55.97852,18.11816c-.68262-.72168-1.59766-1.11816-2.57715-1.11816-1.68945,0-3.13281,1.18164-3.50977,2.875l-2.33203,10.49902-1.43176.89331.94934-5.59058c.15167-.89136-.03412-1.75134-.44885-2.46637.89539-1.9726,1.3717-3.85687,1.3717-5.60004,0-5.85059-4.3916-10.61035-9.79004-10.61035-2.29199,0-4.46289.85059-6.20996,2.41406-1.74707-1.56348-3.91797-2.41406-6.20996-2.41406-5.39844,0-9.79004,4.75977-9.79004,10.61035,0,1.7431.47632,3.62726,1.37158,5.59979-.41492.71509-.60095,1.5752-.44971,2.46661l.94971,5.59021-1.43115-.89294-2.33203-10.49902c-.37695-1.69336-1.82031-2.875-3.50977-2.875-.97949,0-1.89453.39648-2.57715,1.11816-.70117.73926-1.07129,1.75391-1.0166,2.78418l.63086,11.78516c.12598,2.35449.79785,4.67676,1.94238,6.71484l3.18555,5.66895c1.0199,1.81561,1.62,3.85291,1.7594,5.94275-.51831.03754-.9303.45795-.9303.98596v4c0,.55273.44727,1,1,1h15.40723c.55273,0,1-.44727,1-1v-4c0-.55273-.44727-1-1-1h-.03967l-.81384-10.1416c-.04395-.54492-.02246-1.09277.06445-1.62988.11249-.70178.11847-1.3974.06689-2.08203,1.25446,1.02515,2.08472,1.62646,2.13818,1.66504.17383.12598.37891.18848.58398.18848s.41016-.0625.58398-.18848c.05347-.03857.88373-.63989,2.13818-1.66504-.05157.68488-.04565,1.38086.06689,2.08301.08691.53613.1084,1.08398.06445,1.62891l-.81384,10.1416h-.03967c-.55273,0-1,.44727-1,1v4c0,.55273.44727,1,1,1h15.41016c.55273,0,1-.44727,1-1v-4c0-.52905-.41339-.95038-.93317-.98651.13953-2.0896.7395-4.12665,1.75934-5.94122l3.18555-5.66992c1.14453-2.03809,1.81641-4.36035,1.94238-6.71484l.63086-11.78516c.05469-1.03027-.31543-2.04492-1.0166-2.78418ZM29,55h-13.40723v-2h13.40723v2ZM16.52502,51c-.14417-2.42755-.83264-4.7981-2.01721-6.9082l-3.18555-5.66992c-.99512-1.77148-1.5791-3.79102-1.68848-5.8418l-.63086-11.78516c-.02637-.48438.14453-.95898.46973-1.30176.30176-.31836.70117-.49316,1.12598-.49316.74512,0,1.38574.53809,1.55664,1.30859l2.42383,10.9082c.05859.26172.21973.48926.44727.63184l3.29321,2.05554.72437,4.26379c.09277.54395.60449.90234,1.1543.81836.54395-.09277.91016-.60938.81836-1.1543l-2.12305-12.49121c-.14551-.8584.39062-1.69434,1.19629-1.86133.80664-.16895,1.5791.36914,1.76172,1.21973l1.39355,6.50977c.05664.26562.21777.49609.44824.63965l.57031.35547c2.23535,1.39258,3.40234,4.02637,2.97266,6.70703-.1123.69336-.13965,1.40234-.08398,2.10742l.80103,9.98145h-11.42834ZM32,36.75098c-.7478-.57135-2.14319-1.67554-3.76544-3.13153-.68536-1.24744-1.66162-2.33276-2.91327-3.11261l-.20996-.13086-1.30469-6.09473c-.4082-1.90918-2.2627-3.14062-4.12402-2.76074-.26855.05603-.51874.14832-.75751.25909-.60468-1.48438-.92511-2.88538-.92511-4.16925,0-4.74805,3.49414-8.61035,7.79004-8.61035,2.05859,0,4.00195.88574,5.47168,2.49512.37891.41406,1.09766.41406,1.47656,0,1.46973-1.60938,3.41309-2.49512,5.47168-2.49512,4.2959,0,7.79004,3.8623,7.79004,8.61035,0,1.284-.3205,2.68506-.92523,4.16949-.23901-.1109-.4895-.20331-.75836-.25934-1.86523-.38867-3.71582.85156-4.12305,2.76074l-1.30469,6.09473-.20898.13086c-1.25189.77979-2.22839,1.86499-2.91382,3.11224-1.62256,1.45618-3.01794,2.56049-3.76587,3.1319ZM54.36621,32.58008c-.10938,2.05078-.69336,4.07031-1.68848,5.8418l-3.18555,5.6709c-1.17975,2.10071-1.86829,4.46063-2.0163,6.90723h-2.47589c-.55273,0-1,.44727-1,1s.44727,1,1,1h3.41016v2h-13.41016v-2h2c.55273,0,1-.44727,1-1s-.44727-1-1-1h-.95337l.80103-9.98145c.05566-.70508.02832-1.41406-.08398-2.10645-.42969-2.68164.7373-5.31543,2.97363-6.70801l.56934-.35547c.23047-.14355.3916-.37402.44824-.63965l1.39355-6.50977c.18262-.85059.95312-1.39062,1.76074-1.21973.80664.16699,1.34277,1.00293,1.19629,1.86133l-2.12207,12.49121c-.0918.54492.27441,1.06152.81836,1.1543.55371.08398,1.06152-.27441,1.1543-.81836l.724-4.26355,3.29358-2.05579c.22754-.14258.38867-.37012.44727-.63184l2.42383-10.9082c.1709-.77051.81152-1.30859,1.55664-1.30859.4248,0,.82422.1748,1.12598.49316.3252.34277.49609.81738.46973,1.30176l-.63086,11.78516Z"/>
  <circle cx="32" cy="16" r="1"/>
  <path d="M34,28h-1v-8c0-.55273-.44727-1-1-1h-2c-.55273,0-1,.44727-1,1s.44727,1,1,1h1v7h-1c-.55273,0-1,.44727-1,1s.44727,1,1,1h4c.55273,0,1-.44727,1-1s-.44727-1-1-1Z"/>
  <circle cx="41" cy="52" r="1"/>
</svg>