<?xml version="1.0" encoding="UTF-8"?>
<svg id="Outline" xmlns="http://www.w3.org/2000/svg" version="1.1" viewBox="0 0 64 64">
  <!-- Generator: Adobe Illustrator 29.5.1, SVG Export Plug-In . SVG Version: 2.1.0 Build 141)  -->
  <path d="M54.96,36.29c-.01-.01-.03-.01-.04-.03.05-.6.08-1.19.08-1.76,0-12.68-10.32-23-23-23s-23,10.32-23,23c0,.57.03,1.16.08,1.76-.01.02-.03.02-.04.03-2.39,2.39-2.39,6.28,0,8.67l7.25,7.25c.2.19.45.29.71.29s.51-.1.71-.29l3.42-3.41c.39-.39.39-1.03,0-1.42-.39-.39-1.03-.39-1.42,0l-2.71,2.71-6.54-6.55c-1.61-1.61-1.61-4.22,0-5.83s4.22-1.61,5.83,0c.39.39,1.03.39,1.42,0,1.61-1.61,4.22-1.61,5.83,0s1.61,4.22,0,5.84l-1,1.01c-.39.39-.39,1.02.01,1.41.39.39,1.02.38,1.41-.01l1-1c2.39-2.39,2.39-6.28,0-8.67-.58-.57-1.24-1-1.95-1.3,0-.15-.01-.31-.01-.49,0-4.96,4.04-9,9-9s9,4.04,9,9c0,.18-.01.34-.01.49-.71.3-1.37.73-1.95,1.3-2.39,2.39-2.39,6.28,0,8.67l7.25,7.25c.2.19.45.29.71.29s.51-.1.71-.29l3.59-3.58c.39-.39.39-1.03,0-1.42-.39-.39-1.03-.39-1.42,0l-2.88,2.88-6.54-6.55c-1.61-1.61-1.61-4.22,0-5.83s4.22-1.61,5.83,0c.39.39,1.03.39,1.42,0,1.61-1.61,4.22-1.61,5.83,0s1.61,4.22,0,5.84l-.83.84c-.39.39-.39,1.02.01,1.41.39.39,1.02.39,1.41-.01l.83-.83c2.39-2.39,2.39-6.28,0-8.67ZM44.99,34.72c-.65-.18-1.32-.24-1.99-.2v-.02c0-6.07-4.93-11-11-11s-11,4.93-11,11v.02c-.67-.04-1.34.02-1.99.2,0-.07-.01-.14-.01-.22,0-7.17,5.83-13,13-13s13,5.83,13,13c0,.08-.01.15-.01.22ZM48.99,34.72c-.7.2-1.38.52-1.99.97-.02-.02-.03-.02-.05-.03.03-.38.05-.76.05-1.16,0-8.27-6.73-15-15-15s-15,6.73-15,15c0,.4.02.78.05,1.16-.02.01-.03.01-.05.03-.61-.45-1.29-.77-1.99-.97,0-.07-.01-.14-.01-.22,0-9.37,7.63-17,17-17s17,7.63,17,17c0,.08-.01.15-.01.22ZM52.99,34.99c-.64-.27-1.31-.43-1.99-.47v-.02c0-10.48-8.52-19-19-19s-19,8.52-19,19v.02c-.68.04-1.35.2-1.99.47,0-.17-.01-.33-.01-.49,0-11.58,9.42-21,21-21s21,9.42,21,21c0,.16-.01.32-.01.49Z"/>
</svg>