<?xml version="1.0" encoding="UTF-8"?>
<svg id="Outline" xmlns="http://www.w3.org/2000/svg" version="1.1" viewBox="0 0 64 64">
  <!-- Generator: Adobe Illustrator 29.0.0, SVG Export Plug-In . SVG Version: 2.1.0 Build 186)  -->
  <path d="M14.4165,29.81201c.17432.12549.37891.18799.5835.18799s.40918-.0625.5835-.18799c.21289-.15283,3.78809-2.75732,5.89478-6.00677,3.88757,4.95923,9.70306,8.85205,9.96899,9.02826.16748.11084.36035.1665.55273.1665s.38525-.05566.55273-.1665c.26593-.17621,6.08142-4.06903,9.96899-9.02826,2.10669,3.24945,5.68188,5.85394,5.89478,6.00677.17432.12549.37891.18799.5835.18799s.40918-.0625.5835-.18799c.30273-.21729,7.4165-5.38525,7.4165-10.32666,0-3.02441-2.28809-5.48535-5.10059-5.48535-1.05273,0-2.0542.33887-2.89941.96924-.84521-.63037-1.84668-.96924-2.89941-.96924-.09412,0-.18591.00977-.27875.0152-.76801-4.01007-4.28088-7.0152-8.44196-7.0152-1.97803,0-3.85596.66992-5.37988,1.90381-1.52393-1.23389-3.40186-1.90381-5.37988-1.90381-4.16107,0-7.67395,3.00513-8.44196,7.0152-.09283-.00543-.18463-.0152-.27875-.0152-1.05273,0-2.0542.33887-2.89941.96924-.84521-.63037-1.84668-.96924-2.89941-.96924-2.8125,0-5.10059,2.46094-5.10059,5.48535,0,4.94141,7.11377,10.10938,7.4165,10.32666ZM48.26221,16.98828c.37891.41406,1.09668.41406,1.47559,0,.58301-.63721,1.35059-.98828,2.16162-.98828,1.70947,0,3.10059,1.56348,3.10059,3.48535,0,2.94775-3.90576,6.61963-6,8.26221-2.09424-1.64258-6-5.31445-6-8.26221,0-1.92188,1.39111-3.48535,3.10059-3.48535.81104,0,1.57861.35107,2.16162.98828ZM26.62012,9c1.76074,0,3.41895.69434,4.66992,1.95459.37598.37793,1.04395.37793,1.41992,0,1.25098-1.26025,2.90918-1.95459,4.66992-1.95459,3.24799,0,5.98639,2.38721,6.51263,5.54834-1.70825.88745-2.89252,2.76392-2.89252,4.93701,0,.78638.19446,1.57672.49866,2.3537-3.01263,4.16449-7.86761,7.78961-9.49866,8.94464-1.63104-1.15503-6.48602-4.78015-9.49866-8.94464.3042-.77698.49866-1.56732.49866-2.3537,0-2.1731-1.18427-4.04962-2.89252-4.93707.52625-3.16113,3.26465-5.54828,6.51263-5.54828ZM12.10059,16c.81104,0,1.57861.35107,2.16162.98828.37891.41406,1.09668.41406,1.47559,0,.58301-.63721,1.35059-.98828,2.16162-.98828,1.70947,0,3.10059,1.56348,3.10059,3.48535,0,2.94775-3.90576,6.61963-6,8.26221-2.09424-1.64258-6-5.31445-6-8.26221,0-1.92188,1.39111-3.48535,3.10059-3.48535Z"/>
  <path d="M29,51h-11c-2.75684,0-5-2.24316-5-5s2.24316-5,5-5h11c.55225,0,1-.44775,1-1v-4c0-.55225-.44775-1-1-1h-11c-6.06543,0-11,4.93457-11,11s4.93457,11,11,11h11c.55225,0,1-.44775,1-1v-4c0-.55225-.44775-1-1-1ZM28,55h-10c-4.9624,0-9-4.0376-9-9s4.0376-9,9-9h10v2h-10c-3.85986,0-7,3.14014-7,7s3.14014,7,7,7h10v2Z"/>
  <path d="M46,35h-11c-.55225,0-1,.44775-1,1v4c0,.55225.44775,1,1,1h11c2.75684,0,5,2.24316,5,5s-2.24316,5-5,5h-11c-.55225,0-1,.44775-1,1v4c0,.55225.44775,1,1,1h11c6.06543,0,11-4.93457,11-11s-4.93457-11-11-11ZM46,55h-10v-2h10c3.85986,0,7-3.14014,7-7s-3.14014-7-7-7h-10v-2h10c4.9624,0,9,4.0376,9,9s-4.0376,9-9,9Z"/>
  <path d="M17,46c0,1.6543,1.3457,3,3,3h24c1.6543,0,3-1.3457,3-3s-1.3457-3-3-3h-24c-1.6543,0-3,1.3457-3,3ZM45,46c0,.55127-.44873,1-1,1h-24c-.55127,0-1-.44873-1-1s.44873-1,1-1h24c.55127,0,1,.44873,1,1Z"/>
</svg>