<?xml version="1.0" encoding="UTF-8"?>
<svg id="Outline" xmlns="http://www.w3.org/2000/svg" version="1.1" viewBox="0 0 64 64">
  <!-- Generator: Adobe Illustrator 29.0.0, SVG Export Plug-In . SVG Version: 2.1.0 Build 186)  -->
  <path d="M29,37c0-5.51416-4.48633-10-10-10s-10,4.48584-10,10v9.3739c-1.27081,1.91943-2,4.20508-2,6.6261v3c0,.55225.44727,1,1,1h22c.55273,0,1-.44775,1-1v-3c0-2.42102-.72919-4.70667-2-6.6261v-9.3739ZM19,29c4.41113,0,8,3.58887,8,8v7.05518c-.85669-.76611-1.83124-1.40991-2.89972-1.91052.56671-.91577.89972-1.99078.89972-3.14465v-4c0-.55225-.44727-1-1-1h-.17188c-1.77344,0-3.45605.58545-4.82812,1.66455-1.37207-1.0791-3.05469-1.66455-4.82812-1.66455h-.17188c-.55273,0-1,.44775-1,1v4c0,1.15387.33301,2.22888.89972,3.14465-1.06848.50061-2.04303,1.14441-2.89972,1.91052v-7.05518c0-4.41113,3.58887-8,8-8ZM15,39v-2.94189c1.24316.17578,2.38965.74561,3.29297,1.64893.375.375,1.03906.375,1.41406,0,.90332-.90332,2.0498-1.47314,3.29297-1.64893v2.94189c0,2.20557-1.79395,4-4,4s-4-1.79443-4-4ZM29,55H9v-2c0-4.12036,2.51141-7.78094,6.30054-9.28571,1.02045.80255,2.30341,1.28571,3.69946,1.28571s2.67902-.48315,3.69946-1.28571c3.78912,1.50476,6.30054,5.16534,6.30054,9.28571v2Z"/>
  <path d="M50.6684,42.4389c.93683-1.20599,1.50195-2.71338,1.51117-4.35303.16595.11145.3512.18707.54797.18707.12891,0,.25879-.0249.38281-.07617.37402-.15479.61719-.51953.61719-.92383v-3.09131c0-3.95996-3.22168-7.18164-7.18164-7.18164h-3.0918c-3.95996,0-7.18164,3.22168-7.18164,7.18164v3.09131c0,.4043.24316.76904.61719.92383.31183.12866.65753.08234.93134-.09961.01172,1.63531.57593,3.13855,1.51062,4.34174-3.83539,2.06116-6.3316,6.13715-6.3316,10.5611v3c0,.55225.44727,1,1,1h22c.55273,0,1-.44775,1-1v-3c0-4.42395-2.49622-8.49994-6.3316-10.5611ZM39.81836,38.04541v-1.9043l.17773-.17773c.69238-.69189,1.79102-.75342,2.55566-.1416,1.44141,1.1543,3.45605,1.15381,4.89551.00049.76758-.61133,1.86426-.55078,2.55664.14111l.17773.17773v1.9043c0,2.85693-2.32422,5.18164-5.18164,5.18164s-5.18164-2.32471-5.18164-5.18164ZM38.27246,34.18164c0-2.85693,2.32422-5.18164,5.18164-5.18164h3.0918c2.85742,0,5.18164,2.32471,5.18164,5.18164v.67725l-.30957-.30957c-.76172-.76172-1.76367-1.14893-2.77148-1.14893-.8623,0-1.72754.28369-2.44824.85986-.70508.56543-1.69043.56494-2.39746-.00049-1.56055-1.24805-3.80566-1.12402-5.21875.28955l-.30957.30957v-.67725ZM55,55h-20v-2c0-3.90955,2.33765-7.49365,5.86493-9.09283,1.17059.82825,2.59521,1.31989,4.13507,1.31989s2.96448-.49164,4.13507-1.31989c3.52728,1.59918,5.86493,5.18329,5.86493,9.09283v2Z"/>
  <path d="M44,14.40771c0-4.08447-3.33887-7.40771-7.44336-7.40771-1.6709,0-3.25781.54443-4.55664,1.54834-1.29883-1.00391-2.88574-1.54834-4.55664-1.54834-4.10449,0-7.44336,3.32324-7.44336,7.40771,0,6.86963,10.98535,14.12402,11.45312,14.42969.16602.1084.35645.1626.54688.1626s.38086-.0542.54688-.1626c.46777-.30566,11.45312-7.56006,11.45312-14.42969ZM32,26.79443c-3.23242-2.23584-10-7.85596-10-12.38672,0-2.98193,2.44141-5.40771,5.44336-5.40771,1.45508,0,2.82324.56299,3.85156,1.58545.39062.3877,1.01953.3877,1.41016,0,1.02832-1.02246,2.39648-1.58545,3.85156-1.58545,3.00195,0,5.44336,2.42578,5.44336,5.40771,0,4.53076-6.76758,10.15088-10,12.38672Z"/>
  <path d="M12.41699,25.81201c.17383.12549.37891.18799.58301.18799s.40918-.0625.58301-.18799c.55469-.39844,5.41699-3.99561,5.41699-7.6084,0-2.31787-1.7627-4.20361-3.92871-4.20361-.74512,0-1.45605.21875-2.07129.62842-.61523-.40967-1.32617-.62842-2.07129-.62842-2.16602,0-3.92871,1.88574-3.92871,4.20361,0,3.61279,4.8623,7.20996,5.41699,7.6084ZM10.92871,16c.49805,0,.97168.21777,1.33301.61328.37891.41406,1.09766.41406,1.47656,0,.36133-.39551.83496-.61328,1.33301-.61328,1.06348,0,1.92871.98877,1.92871,2.20361,0,1.9165-2.50977,4.3374-4,5.53711-1.49023-1.19971-4-3.62061-4-5.53711,0-1.21484.86523-2.20361,1.92871-2.20361Z"/>
  <path d="M50.41699,25.81201c.17383.12549.37891.18799.58301.18799s.40918-.0625.58301-.18799c.55469-.39844,5.41699-3.99561,5.41699-7.6084,0-2.31787-1.7627-4.20361-3.92871-4.20361-.74512,0-1.45605.21875-2.07129.62842-.61523-.40967-1.32617-.62842-2.07129-.62842-2.16602,0-3.92871,1.88574-3.92871,4.20361,0,3.61279,4.8623,7.20996,5.41699,7.6084ZM48.92871,16c.49805,0,.97168.21777,1.33301.61328.37891.41406,1.09766.41406,1.47656,0,.36133-.39551.83496-.61328,1.33301-.61328,1.06348,0,1.92871.98877,1.92871,2.20361,0,1.9165-2.50977,4.3374-4,5.53711-1.49023-1.19971-4-3.62061-4-5.53711,0-1.21484.86523-2.20361,1.92871-2.20361Z"/>
</svg>