<?xml version="1.0" encoding="UTF-8"?>
<svg id="Outline" xmlns="http://www.w3.org/2000/svg" version="1.1" viewBox="0 0 64 64">
  <!-- Generator: Adobe Illustrator 29.5.1, SVG Export Plug-In . SVG Version: 2.1.0 Build 141)  -->
  <path d="M56.707,7.393c-.257-.257-.63-.351-.982-.255l-9.899,2.828c-.375.107-.653.423-.713.808-.061.385.109.771.433.986l3.167,2.112-2.528,2.528c-4.166-3.263-10.117-3.189-14.185.242-1.087-.918-2.328-1.595-3.66-2.038l.428-.428c.794-.794,1.231-1.85,1.231-2.973s-.438-2.178-1.231-2.972c-1.419-1.42-3.612-1.611-5.238-.569-1.626-1.041-3.818-.851-5.238.569-1.639,1.639-1.639,4.306,0,5.944l1.157,1.158c-.973.519-1.867,1.169-2.658,1.961-2.828,2.835-3.82,6.813-2.996,10.457-.853,3.749.274,7.734,2.997,10.456l3.793,3.793-4.371,4.371-3.656-1.219c-.359-.122-.756-.026-1.023.241l-4.243,4.242c-.245.245-.346.6-.266.937.08.338.328.609.657.719l3.769,1.257,1.256,3.768c.233.7,1.138.909,1.656.391l4.243-4.242c.268-.268.361-.664.242-1.023l-1.219-3.657,4.371-4.371,9.293,9.293c.195.195.451.293.707.293s.512-.098.707-.293l11.59-11.58c.391-.39.391-1.023,0-1.414-.391-.391-1.024-.391-1.415,0l-10.882,10.873-13.793-13.793c-1.353-1.353-2.217-3.09-2.545-4.93.341.468.709.922,1.131,1.344l8.09,8.09c.359.359,1.029.386,1.414,0,.391-.391.391-1.023,0-1.414l-8.09-8.09c-3.604-3.604-3.603-9.474,0-13.086.797-.797,1.719-1.421,2.737-1.88l1.88,1.88c.188.188.442.293.707.293s.52-.105.707-.293l2.468-2.468c1.732.363,3.314,1.195,4.588,2.468.391.391,1.023.391,1.414,0,3.278-3.278,8.428-3.563,12.05-.878l-1.428,1.428c-1.194-.816-2.602-1.257-4.079-1.257-.552,0-1,.447-1,1s.448,1,1,1c1.403,0,2.721.546,3.713,1.538.526.526.927,1.14,1.19,1.822.153.396.532.64.933.64.689,0,1.183-.713.933-1.36-.287-.744-.695-1.424-1.208-2.036l1.416-1.416c3.154,3.636,3.016,9.156-.433,12.605l-13.793,13.793-2.873-2.873c-.391-.391-1.023-.391-1.414,0s-.391,1.023,0,1.414l3.58,3.58c.195.195.451.293.707.293s.512-.098.707-.293l14.5-14.5c.421-.421.788-.873,1.128-1.34-.332,1.844-1.205,3.59-2.582,4.968l-.08.09c-.367.412-.331,1.044.081,1.411.41.366,1.048.327,1.412-.081l.041-.048c2.723-2.722,3.851-6.707,2.997-10.457.778-3.445-.077-7.181-2.564-9.977l2.507-2.507,2.192,3.288c.187.281.501.445.832.445.051,0,.103-.004.154-.012.385-.061.7-.339.807-.714l2.829-9.899c.1-.349.002-.725-.254-.981ZM14.094,54.148l-.902-2.707c-.1-.299-.334-.532-.632-.632l-2.708-.903,2.662-2.661,3.182,1.061,1.061,3.182-2.662,2.661ZM23.531,16.585l-3.824-3.824c-.859-.859-.859-2.257,0-3.116.43-.43.994-.645,1.558-.645s1.129.215,1.559.645c.391.391,1.023.391,1.414,0,.859-.86,2.257-.859,3.117,0,.417.416.646.97.646,1.558s-.229,1.143-.646,1.559l-3.824,3.824ZM52.804,15.646l-1.629-2.443c-.073-.109-.167-.204-.277-.277l-2.444-1.63,6.09-1.739-1.74,6.09Z"/>
  <path d="M50.126,45.661c-1.626-1.042-3.818-.851-5.238.569-1.639,1.639-1.639,4.306,0,5.944l4.531,4.531c.188.188.442.293.707.293s.52-.105.707-.293l4.531-4.531c.794-.794,1.231-1.85,1.231-2.973s-.438-2.178-1.231-2.972c-1.419-1.421-3.612-1.611-5.238-.569ZM53.95,50.761l-3.824,3.824-3.824-3.824c-.859-.859-.859-2.257,0-3.116.43-.43.994-.645,1.559-.645s1.128.215,1.558.645c.391.391,1.023.391,1.414,0,.859-.86,2.257-.859,3.117,0,.417.416.646.97.646,1.558s-.229,1.143-.646,1.559Z"/>
</svg>