<?xml version="1.0" encoding="UTF-8"?>
<svg id="Outline" xmlns="http://www.w3.org/2000/svg" version="1.1" viewBox="0 0 64 64">
  <!-- Generator: Adobe Illustrator 29.5.1, SVG Export Plug-In . SVG Version: 2.1.0 Build 141)  -->
  <path d="M20.481,32.706c.195.195.451.292.707.292s.512-.098.707-.293l5.52-5.52c.391-.391.391-1.023,0-1.414s-1.023-.391-1.414,0l-4.813,4.813-10.171-10.162c-2.606-2.614-2.606-6.861,0-9.467s6.853-2.604,9.467,0c.391.39,1.023.389,1.413,0,2.607-2.606,6.849-2.606,9.456,0,2.605,2.605,2.605,6.853,0,9.466l-2.52,2.52c-.391.391-.391,1.023,0,1.414s1.023.391,1.414,0l2.521-2.521c3.384-3.395,3.383-8.909,0-12.293-3.161-3.16-8.17-3.372-11.578-.634-3.415-2.736-8.429-2.524-11.586.634-3.384,3.384-3.385,8.898,0,12.294l10.88,10.87Z"/>
  <path d="M46.481,32.706c.195.195.451.293.707.293s.512-.098.707-.293l3.02-3.02c.391-.391.391-1.023,0-1.414s-1.023-.391-1.414,0l-2.313,2.313-6.544-6.545c-.782-.778-1.213-1.813-1.213-2.916s.431-2.138,1.214-2.918c1.605-1.606,4.224-1.604,5.837.002.391.388,1.022.389,1.413-.002,1.605-1.604,4.224-1.604,5.836,0,1.609,1.609,1.609,4.227,0,5.836l-1.4,1.4c-.391.391-.391,1.023,0,1.414s1.023.391,1.414,0l1.4-1.4c2.389-2.389,2.389-6.275-.001-8.666-2.171-2.16-5.567-2.36-7.957-.604-2.4-1.757-5.795-1.555-7.955.604-1.162,1.157-1.802,2.696-1.802,4.334s.64,3.177,1.8,4.332l7.25,7.25Z"/>
  <path d="M42.141,30.793c-2.166-2.165-5.561-2.369-7.956-.608-1.045-.771-2.303-1.187-3.625-1.187-1.637,0-3.175.637-4.332,1.794-1.157,1.157-1.794,2.695-1.794,4.332s.637,3.175,1.794,4.332l7.249,7.25c.188.188.442.293.707.293s.52-.105.707-.293l7.25-7.25c2.388-2.388,2.388-6.274,0-8.663ZM40.727,38.042l-6.542,6.542-6.542-6.542c-.779-.779-1.208-1.815-1.208-2.917s.429-2.138,1.208-2.917,1.815-1.208,2.917-1.208,2.138.429,2.917,1.208c.391.391,1.023.391,1.414,0,1.609-1.607,4.227-1.609,5.835,0,1.608,1.609,1.608,4.227,0,5.835Z"/>
  <path d="M48.185,42.007c-2.14-1.519-5.135-1.319-7.05.598-2.139,2.139-2.139,5.619,0,7.757l6.343,6.343c.195.195.451.293.707.293s.512-.098.707-.293l6.343-6.343c2.139-2.138,2.139-5.618,0-7.757-1.917-1.917-4.91-2.114-7.05-.598ZM53.821,48.948l-5.636,5.636-5.636-5.636c-1.359-1.359-1.358-3.57,0-4.929.68-.679,1.572-1.019,2.465-1.019s1.785.34,2.464,1.019c.391.391,1.023.391,1.414,0,1.359-1.359,3.569-1.359,4.929,0,1.358,1.359,1.359,3.57,0,4.929Z"/>
  <path d="M17.185,40.185c-1.045-.771-2.303-1.187-3.625-1.187-1.637,0-3.175.637-4.332,1.794-1.157,1.157-1.794,2.695-1.794,4.332s.637,3.175,1.794,4.332l7.249,7.25c.188.188.442.293.707.293s.52-.105.707-.293l7.25-7.25c2.388-2.388,2.388-6.274,0-8.663-2.165-2.165-5.561-2.369-7.956-.608ZM23.727,48.042l-6.542,6.542-6.542-6.542c-.779-.779-1.208-1.815-1.208-2.917s.429-2.138,1.208-2.917,1.815-1.208,2.917-1.208,2.138.429,2.917,1.208c.391.391,1.023.391,1.414,0,1.609-1.607,4.227-1.608,5.835,0,1.608,1.609,1.608,4.227,0,5.835Z"/>
</svg>