<?xml version="1.0" encoding="UTF-8"?>
<svg id="Outline" xmlns="http://www.w3.org/2000/svg" version="1.1" viewBox="0 0 64 64">
  <!-- Generator: Adobe Illustrator 29.5.1, SVG Export Plug-In . SVG Version: 2.1.0 Build 141)  -->
  <path d="M54,17h-.518c-4.967-6.358-12.398-10-20.482-10-14.337,0-26,11.663-26,26,0,7.402,3.141,14.407,8.626,19.332-.003.02-.011.039-.014.059-.104.79.106,1.577.592,2.214.957,1.256,2.95,1.525,4.206.557l5.14-3.959c.721-.555,1.391-1.164,2.019-1.81l7.314,7.314c.188.188.441.293.708.293s.52-.106.707-.294l2.82-2.83c.39-.391.389-1.023,0-1.413l-8.053-8.053c1.252-2.576,1.935-5.43,1.935-8.34,0-6.586,5.316-12.299,12.104-13.006.55-.057.948-.549.891-1.098-.057-.55-.545-.95-1.098-.891-7.792.811-13.896,7.397-13.896,14.994,0,5.271-2.493,10.334-6.67,13.548l-5.141,3.96c-.211.161-.477.23-.737.196-.264-.035-.496-.17-.656-.38-.335-.44-.255-1.067.185-1.402l5.418-4.179c3.56-2.73,5.602-7.007,5.602-11.733,0-9.418,7.662-17.08,17.08-17.08h7.92c.552,0,1,.448,1,1,0,.267-.103.514-.307.713-.18.185-.427.287-.693.287h-1c-.553,0-1,.447-1,1s.447,1,1,1h1c.812,0,1.566-.316,2.107-.873.576-.561.893-1.315.893-2.127,0-1.654-1.346-3-3-3ZM36.997,53.171l-1.408,1.414-6.701-6.701c.418-.532.808-1.084,1.167-1.656l6.943,6.943ZM27,36.08c0,4.1-1.756,7.798-4.82,10.147l-5.415,4.177c-.053.04-.094.09-.143.133-4.854-4.527-7.622-10.858-7.622-17.537,0-13.233,10.767-24,24-24,6.922,0,13.325,2.896,17.877,8h-4.797c-10.521,0-19.08,8.56-19.08,19.08Z"/>
  <path d="M18,34c-1.654,0-3,1.346-3,3s1.346,3,3,3,3-1.346,3-3-1.346-3-3-3ZM18,38c-.552,0-1-.448-1-1s.448-1,1-1,1,.448,1,1-.448,1-1,1Z"/>
  <path d="M18,30c-3.859,0-7,3.141-7,7s3.141,7,7,7,7-3.141,7-7-3.141-7-7-7ZM18,42c-2.757,0-5-2.243-5-5s2.243-5,5-5,5,2.243,5,5-2.243,5-5,5Z"/>
  <circle cx="49" cy="22" r="1"/>
</svg>