<?xml version="1.0" encoding="UTF-8"?>
<svg id="Outline" xmlns="http://www.w3.org/2000/svg" version="1.1" viewBox="0 0 64 64">
  <!-- Generator: Adobe Illustrator 29.3.1, SVG Export Plug-In . SVG Version: 2.1.0 Build 151)  -->
  <path d="M55,29h-3.60999l3.12-9.37c.20001-.61005.09998-1.28003-.27002-1.80005-.38-.51996-.98999-.82996-1.63-.82996h-11.89001c-.85999,0-1.62.54999-1.89996,1.37l-2.21002,6.63h-4.60999c-1.09998,0-2,.89996-2,2v2H9c-1.09998,0-2,.89996-2,2v4c0,1.09998.90002,2,2,2v18c0,1.09998.90002,2,2,2h42c1.09998,0,2-.90002,2-2v-18c1.09998,0,2-.90002,2-2v-4c0-1.10004-.90002-2-2-2ZM40.71997,19h11.89001l-3.32996,10h-11.89001l3.32996-10ZM32,27h3.95001l-.66998,2h-3.28003v-2ZM55,35h-13c-.54999,0-1,.45001-1,1s.45001,1,1,1h11v18H11v-18h23c.54999,0,1-.45001,1-1s-.45001-1-1-1H9v-4h46v4Z"/>
  <path d="M30,41c.55225,0,1-.44775,1-1s-.44775-1-1-1h-5c-.55225,0-1,.44775-1,1v12c0,.55225.44775,1,1,1h5c.55225,0,1-.44775,1-1s-.44775-1-1-1h-4v-4h4c.55225,0,1-.44775,1-1s-.44775-1-1-1h-4v-4h4Z"/>
  <path d="M39,51h-4v-11c0-.55225-.44775-1-1-1s-1,.44775-1,1v12c0,.55225.44775,1,1,1h5c.55225,0,1-.44775,1-1s-.44775-1-1-1Z"/>
  <path d="M43,53c.55225,0,1-.44775,1-1v-5h2c2.20557,0,4-1.79443,4-4s-1.79443-4-4-4h-3c-.55225,0-1,.44775-1,1v12c0,.55225.44775,1,1,1ZM44,41h2c1.10303,0,2,.89697,2,2s-.89697,2-2,2h-2v-4Z"/>
  <path d="M21,39c-.55225,0-1,.44775-1,1v5h-4v-5c0-.55225-.44775-1-1-1s-1,.44775-1,1v12c0,.55225.44775,1,1,1s1-.44775,1-1v-5h4v5c0,.55225.44775,1,1,1s1-.44775,1-1v-12c0-.55225-.44775-1-1-1Z"/>
  <path d="M22,27c5.51416,0,10-4.48584,10-10s-4.48584-10-10-10-10,4.48584-10,10,4.48584,10,10,10ZM22,9c4.41113,0,8,3.58887,8,8s-3.58887,8-8,8-8-3.58887-8-8,3.58887-8,8-8Z"/>
  <circle cx="22" cy="11" r="1"/>
  <circle cx="38" cy="36" r="1"/>
  <path d="M22,24c.55225,0,1-.44775,1-1v-8c0-.55225-.44775-1-1-1s-1,.44775-1,1v8c0,.55225.44775,1,1,1Z"/>
  <path d="M45,27c1.6543,0,3-1.3457,3-3s-1.3457-3-3-3-3,1.3457-3,3,1.3457,3,3,3ZM45,23c.55127,0,1,.44873,1,1s-.44873,1-1,1-1-.44873-1-1,.44873-1,1-1Z"/>
</svg>