<?xml version="1.0" encoding="UTF-8"?>
<svg id="Outline" xmlns="http://www.w3.org/2000/svg" version="1.1" viewBox="0 0 48 48">
  <!-- Generator: Adobe Illustrator 29.5.1, SVG Export Plug-In . SVG Version: 2.1.0 Build 141)  -->
  <path d="M40.071,32.965h-9.35c.94-.62,1.79-1.38,2.53-2.24.58.14,1.19.24,1.82.24,4.41,0,8-3.59,8-8,0-3.74-2.57-6.92-6.12-7.77l.12-1.13c.02-.28-.07-.56-.26-.77-.19-.21-.46-.33-.74-.33H12.071c-.28,0-.55.12-.74.33-.19.21-.28.49-.26.77l1.01,10.05c.14,1.45.55,2.83,1.19,4.11-.07.09-.13.18-.19.28-.2-.32-.44-.63-.72-.9-2.28-2.28-6.33-1.72-6.5-1.7-.44.06-.79.41-.85.85-.03.17-.59,4.22,1.7,6.5,1.51,1.51,3.79,1.78,5.21,1.78.54,0,.94-.04,1.15-.06.21.02.61.06,1.15.06.36,0,.78-.02,1.22-.07h24.63c.55,0,1-.45,1-1s-.45-1-1-1ZM12.071,32.965c-.12,0-.22.03-.33.07-1.08-.02-2.66-.24-3.62-1.19-1.09-1.09-1.21-2.96-1.19-4.02,1.07-.01,2.93.11,4.02,1.19,1.06,1.07,1.2,2.88,1.19,3.95h-.07ZM36.071,24.115l.26-2.69c.45.37.74.93.74,1.54,0,.78-.45,1.44-1.1,1.77.03-.2.07-.41.1-.62ZM39.071,22.965c0-1.66-1.04-3.1-2.52-3.7l.2-2.05c2.52.73,4.32,3.04,4.32,5.75,0,3.31-2.69,6-6,6-.19,0-.37-.03-.55-.04.36-.63.66-1.3.91-2,2.03-.18,3.64-1.88,3.64-3.96ZM18.021,31.845c-.7.7-1.73,1-2.66,1.12h-1.22c0-.37-.01-.82-.06-1.3.1-.82.38-1.92,1.11-2.65,1.09-1.09,2.96-1.21,4.02-1.19.02,1.06-.1,2.93-1.19,4.02ZM17.571,18.745l.62-.13c1.84-.4,3.76-.3,5.57.3,2.11.7,4.35.84,6.62.36l.14-.04-.42,4.28c-.33,3.19-3.09,5.58-6.29,5.44-.92-.03-1.8-.3-2.6-.76.01-.81-.07-1.38-.08-1.44-.06-.44-.41-.79-.85-.85-.06-.01-.62-.09-1.42-.08-.45-.78-.74-1.66-.83-2.57l-.46-4.51ZM20.241,32.195c.35-.6.58-1.25.73-1.89.87.38,1.8.61,2.76.65.11,0,.23.01.34.01,4.11,0,7.59-3.12,8.02-7.25l.56-5.65c.03-.32-.1-.64-.34-.85-.24-.21-.56-.3-.88-.23l-1.48.33c-1.9.41-3.79.29-5.57-.3-2.14-.71-4.42-.84-6.62-.36l-1.49.33c-.49.11-.83.58-.78,1.08l.54,5.39c.1.91.35,1.79.72,2.61-.66.15-1.33.39-1.94.75-.39-.92-.64-1.89-.74-2.9l-.9-8.95h21.8l-.9,8.95c-.52,5.16-4.82,9.05-10,9.05-1.32,0-2.63-.27-3.83-.77Z"/>
</svg>