<?xml version="1.0" encoding="UTF-8"?>
<svg id="Outline" xmlns="http://www.w3.org/2000/svg" version="1.1" viewBox="0 0 64 64">
  <!-- Generator: Adobe Illustrator 29.5.1, SVG Export Plug-In . SVG Version: 2.1.0 Build 141)  -->
  <path d="M53.496,19.132l-21-12c-.307-.176-.686-.176-.992,0l-21,12c-.312.178-.504.51-.504.868v3c0,.553.447,1,1,1s1-.447,1-1v-2.42l20-11.429,20,11.429v22.84l-20,11.429-20-11.429v-12.42c0-.553-.447-1-1-1s-1,.447-1,1v13c0,.358.192.69.504.868l21,12c.153.088.325.132.496.132s.343-.044.496-.132l21-12c.312-.178.504-.51.504-.868v-24c0-.358-.192-.69-.504-.868Z"/>
  <path d="M49.5,21.45l-17-9.71c-.31-.18-.69-.18-1,0l-17,9.71c-.31.18-.5.51-.5.87v19.36c0,.36.19.69.5.87l17,9.71c.16.09.33.13.5.13s.34-.04.5-.13l17-9.71c.31-.18.5-.51.5-.87v-19.36c0-.36-.19-.69-.5-.87ZM48,41.1l-16,9.14-16-9.14v-18.2l16-9.14,16,9.14v18.2Z"/>
  <path d="M43,29c-.7,0-1.33.25-1.84.65-.31-.4-.71-.72-1.16-.96.4-1.3.07-2.76-.93-3.76s-2.46-1.33-3.76-.93c-.24-.45-.56-.85-.96-1.16.4-.51.65-1.14.65-1.84,0-1.65-1.35-3-3-3s-3,1.35-3,3c0,.7.25,1.33.65,1.84-.4.31-.72.71-.96,1.16-1.3-.4-2.76-.07-3.76.93s-1.33,2.46-.93,3.76c-.45.24-.85.56-1.16.96-.51-.4-1.14-.65-1.84-.65-1.65,0-3,1.35-3,3s1.35,3,3,3c.7,0,1.33-.25,1.84-.65.31.4.71.72,1.16.96-.4,1.3-.07,2.76.93,3.76s2.46,1.33,3.76.93c.24.45.56.85.96,1.16-.4.51-.65,1.14-.65,1.84,0,1.65,1.35,3,3,3s3-1.35,3-3c0-.7-.25-1.33-.65-1.84.4-.31.72-.71.96-1.16,1.31.4,2.76.07,3.76-.93s1.33-2.46.93-3.76c.45-.24.85-.56,1.16-.96.51.4,1.14.65,1.84.65,1.65,0,3-1.35,3-3s-1.35-3-3-3ZM21,33c-.55,0-1-.45-1-1s.45-1,1-1,1,.45,1,1-.45,1-1,1ZM32,20c.55,0,1,.45,1,1s-.45,1-1,1-1-.45-1-1,.45-1,1-1ZM32,44c-.55,0-1-.45-1-1s.45-1,1-1,1,.45,1,1-.45,1-1,1ZM38.46,33.74c-.35.05-.65.28-.79.61-.13.33-.08.71.13.99.54.7.48,1.7-.14,2.32-.62.62-1.62.68-2.32.14-.28-.21-.66-.26-.99-.13-.33.14-.56.44-.61.79-.12.88-.86,1.54-1.74,1.54s-1.62-.66-1.74-1.54c-.05-.35-.28-.65-.61-.79-.12-.05-.25-.07-.38-.07-.22,0-.43.07-.61.2-.7.54-1.7.48-2.32-.14-.62-.62-.68-1.62-.14-2.32.21-.28.26-.66.13-.99-.14-.33-.44-.56-.79-.61-.88-.12-1.54-.86-1.54-1.74s.66-1.62,1.54-1.74c.35-.05.65-.28.79-.61.13-.33.08-.71-.13-.99-.54-.7-.48-1.7.14-2.32.62-.61,1.62-.68,2.32-.14.28.21.66.26.99.13.33-.14.56-.44.61-.79.12-.88.86-1.54,1.74-1.54s1.62.66,1.74,1.54c.05.35.28.65.61.79.33.13.7.08.99-.13.7-.54,1.7-.48,2.32.14.62.62.68,1.62.14,2.32-.21.28-.26.66-.13.99.14.33.44.56.79.61.88.12,1.54.86,1.54,1.74s-.66,1.62-1.54,1.74ZM43,33c-.55,0-1-.45-1-1s.45-1,1-1,1,.45,1,1-.45,1-1,1Z"/>
  <path d="M36,32c0-2.206-1.794-4-4-4s-4,1.794-4,4,1.794,4,4,4,4-1.794,4-4ZM30,32c0-1.103.897-2,2-2s2,.897,2,2-.897,2-2,2-2-.897-2-2Z"/>
  <circle cx="11" cy="27" r="1"/>
</svg>