<?xml version="1.0" encoding="UTF-8"?>
<svg id="Outline" xmlns="http://www.w3.org/2000/svg" version="1.1" viewBox="0 0 64 64">
  <!-- Generator: Adobe Illustrator 29.5.1, SVG Export Plug-In . SVG Version: 2.1.0 Build 141)  -->
  <path d="M44.189,36.24c1.86-.56,3.66-1.31,5.21-2.21,4.42-2.55,7.41-6.61,7.63-10.34.02-.39-.12-.75-.39-1.01-.61-.6-1.61-.54-2.88-.45-.38.02-.93.06-1.32.04.17-.37.49-.88.7-1.23.66-1.07,1.22-1.99.95-2.84-.12-.38-.4-.68-.77-.84-2.6-1.14-6.23-.94-9.77.43,1.03-1.07,2.13-2.06,3.31-2.98.36.11.74.19,1.14.19,2.21,0,4-1.79,4-4s-1.79-4-4-4c-1.59,0-2.96.94-3.6,2.29-.25.1-.5.22-.72.38-1.42,1.07-2.76,2.24-4,3.49-.9-2.63-2.37-4.73-4.19-5.91-.32-.21-.7-.27-1.07-.17-.83.22-1.28,1.12-1.85,2.26-.17.33-.41.81-.61,1.13-.23-.33-.51-.84-.7-1.19-.6-1.1-1.12-2.06-2-2.25-.39-.08-.79.01-1.11.25-2.9,2.13-4.77,6.73-4.77,11.73,0,.06,0,.13.01.19-.06-.03-.11-.06-.16-.09-4.33-2.51-9.25-3.19-12.54-1.75-.39.16-.66.46-.78.84-.27.85.29,1.77.95,2.84.21.35.53.86.7,1.23-.39.01-.93-.02-1.3-.05-1.27-.08-2.28-.14-2.89.46-.27.26-.41.62-.4,1.02.21,3.72,3.21,7.78,7.63,10.32,1.55.91,3.35,1.66,5.22,2.22-1.72,1.05-3.32,2.28-4.59,3.56-3.63,3.62-5.48,8.31-4.69,11.94.07.38.3.7.63.89.73.43,1.69.1,2.9-.31.36-.11.87-.29,1.25-.38-.07.4-.24.98-.36,1.37-.35,1.2-.66,2.23-.18,2.98.21.34.56.56.96.62.4.06.81.09,1.23.09,3.34,0,7.3-1.88,10.44-5.01,1.75-1.76,3.39-4.07,4.59-6.45,1.2,2.37,2.84,4.68,4.6,6.44,3.06,3.08,6.9,4.87,10.22,4.87.6,0,1.17-.06,1.72-.17.38-.09.69-.31.88-.64.42-.74.1-1.69-.3-2.89-.12-.36-.3-.89-.38-1.26.4.07.97.24,1.36.35,1.21.36,2.25.67,3,.19.33-.21.55-.55.61-.96.54-3.55-1.4-8.13-4.93-11.67-1.3-1.3-2.88-2.52-4.59-3.56ZM52.009,19c-.16.31-.4.71-.57.99-.77,1.25-1.5,2.44-.91,3.43.56.98,1.92.89,3.35.8.31-.02.78-.05,1.09-.04-.45,2.9-2.97,6.03-6.57,8.12-1.98,1.15-4.38,2.04-6.8,2.55-.04-.02-.09-.04-.13-.06v-.04c0-3.11-1.55-6-4.08-7.76.8-1.82,1.77-3.56,2.89-5.19.44-.32.92-.63,1.5-.96,3.51-2.04,7.52-2.74,10.23-1.84ZM47.999,9c1.1,0,2,.9,2,2s-.9,2-2,2-2-.9-2-2,.9-2,2-2ZM44.109,11.88c.15.69.49,1.3.95,1.81-6.05,4.92-10.3,12.01-11.73,19.66-.117.628-.754.745-1.28.64-.23-.05-.43-.17-.55-.36-.13-.19-.18-.41-.14-.64.81-4.3,2.4-8.38,4.74-12.12,2.16-3.46,4.85-6.48,8.01-8.99ZM28.919,9.23c.19.29.43.72.58,1.01.7,1.27,1.35,2.47,2.5,2.47,1.12,0,1.72-1.2,2.36-2.48.14-.27.34-.67.51-.96,1.46,1.15,2.6,3.14,3.23,5.58-1.36,1.54-2.6,3.19-3.7,4.96-1.1,1.76-2.04,3.6-2.82,5.49-1.75.08-3.38.63-4.76,1.53-.67-1.83-1.14-3.85-1.33-5.81-.07-.68-.11-1.36-.11-2.01,0-4.06,1.4-7.89,3.54-9.78ZM15.599,32.29c-3.56-2.05-6.12-5.25-6.57-8.12.35.01.79.03,1.1.05,1.43.09,2.78.18,3.34-.79.58-1.01-.14-2.19-.91-3.44-.17-.28-.42-.68-.57-.99,2.7-.9,6.73-.19,10.25,1.85.43.24.87.53,1.33.85.26,2.21.82,4.46,1.63,6.48-1.65,1.7-2.67,4.02-2.67,6.57,0,.04.01.08.01.13-2.47-.5-4.92-1.41-6.94-2.59ZM25.999,50.57c-2.87,2.87-6.59,4.59-9.42,4.42.07-.34.21-.8.3-1.11.42-1.41.81-2.73-.01-3.55-.79-.79-2.08-.36-3.44.1-.29.1-.71.24-1.03.32-.32-2.88,1.33-6.63,4.24-9.54,1.6-1.61,3.79-3.15,6.04-4.27.04.01.08.02.12.02.89,3.68,3.92,6.52,7.69,7.13-1.12,2.38-2.75,4.74-4.49,6.48ZM24.529,34.75c0-3.7,2.71-6.78,6.25-7.36-.58,1.7-1.05,3.45-1.38,5.23-.14.75.01,1.509.439,2.139,1.431,2.098,4.964,1.505,5.451-1.039.31-1.64.76-3.25,1.34-4.82,1.77,1.41,2.84,3.55,2.84,5.85,0,4.12-3.35,7.47-7.47,7.47s-7.47-3.35-7.47-7.47ZM50.669,50.32c-1.4-.41-2.73-.8-3.54.01-.8.8-.37,2.09.09,3.45.1.29.24.71.32,1.03-2.88.31-6.63-1.33-9.52-4.24-1.76-1.75-3.39-4.11-4.51-6.48,3.8-.62,6.85-3.49,7.71-7.21,2.27,1.11,4.5,2.68,6.14,4.33,2.87,2.87,4.6,6.58,4.43,9.42-.34-.08-.8-.21-1.12-.31Z"/>
</svg>