<?xml version="1.0" encoding="UTF-8"?>
<svg id="Outline" xmlns="http://www.w3.org/2000/svg" version="1.1" viewBox="0 0 64 64">
  <!-- Generator: Adobe Illustrator 29.5.1, SVG Export Plug-In . SVG Version: 2.1.0 Build 141)  -->
  <path d="M54,11h-4v-1c0-1.65-1.35-3-3-3s-3,1.35-3,3v1h-9v-1c0-1.65-1.35-3-3-3s-3,1.35-3,3v1h-9v-1c0-1.65-1.35-3-3-3s-3,1.35-3,3v1h-4c-1.65,0-3,1.35-3,3v40c0,1.65,1.35,3,3,3h44c1.65,0,3-1.35,3-3V14c0-1.65-1.35-3-3-3ZM46,10c0-.55.45-1,1-1s1,.45,1,1v1h-2v-1ZM31,10c0-.55.45-1,1-1s1,.45,1,1v1h-2v-1ZM16,10c0-.55.45-1,1-1s1,.45,1,1v1h-2v-1ZM55,54c0,.55-.45,1-1,1H10c-.55,0-1-.45-1-1V21h2v31c0,.55.45,1,1,1h34c.277,0,.561-.141.74-.35.01-.02.04-.03.06-.05l6-8c.01-.02.02-.04.03-.05.132-.133.17-.371.17-.55v-23h2v33ZM51,30v12H13v-12h38ZM13,28v-7h38v7H13ZM47.88,44l-4.12,1.03c-.27.07-.5.24-.64.49-.13.24-.16.53-.07.8l1.56,4.68H13v-7h34.88ZM49.51,45.65l-3.17,4.22-1.05-3.16,4.22-1.06ZM55,19H9v-5c0-.55.45-1,1-1h4v1c0,1.65,1.35,3,3,3,.55,0,1-.45,1-1s-.45-1-1-1-1-.45-1-1v-1h13v1c0,1.65,1.35,3,3,3,.55,0,1-.45,1-1s-.45-1-1-1-1-.45-1-1v-1h13v1c0,1.65,1.35,3,3,3,.55,0,1-.45,1-1s-.45-1-1-1-1-.45-1-1v-1h8c.55,0,1,.45,1,1v5Z"/>
  <path d="M19,34h1v5c0,.553.447,1,1,1s1-.447,1-1v-6c0-.553-.447-1-1-1h-2c-.553,0-1,.447-1,1s.447,1,1,1Z"/>
  <path d="M25,37h3v2c0,.553.447,1,1,1s1-.447,1-1v-6c0-.553-.447-1-1-1s-1,.447-1,1v2h-2v-2c0-.553-.447-1-1-1s-1,.447-1,1v3c0,.553.447,1,1,1Z"/>
  <path d="M33,37h3v2c0,.553.447,1,1,1s1-.447,1-1v-6c0-.553-.447-1-1-1s-1,.447-1,1v2h-2v-2c0-.553-.447-1-1-1s-1,.447-1,1v3c0,.553.447,1,1,1Z"/>
  <path d="M41,34h2.612l-1.561,4.684c-.175.524.108,1.091.632,1.265.504.167,1.09-.109,1.265-.632l2-6c.103-.305.051-.641-.137-.901-.188-.261-.49-.415-.812-.415h-4c-.553,0-1,.447-1,1s.447,1,1,1Z"/>
</svg>