<?xml version="1.0" encoding="UTF-8"?>
<svg id="Outline" xmlns="http://www.w3.org/2000/svg" version="1.1" viewBox="0 0 48 48">
  <!-- Generator: Adobe Illustrator 29.5.1, SVG Export Plug-In . SVG Version: 2.1.0 Build 141)  -->
  <path d="M24,5c-3.857,0-7.567,1.15-10.723,3.323-.6.408-1.17.851-1.712,1.319v-.492c0-.553-.448-1-1-1s-1,.447-1,1v2.829c0,.508.482,1,1,1h2.829c.552,0,1-.447,1-1s-.448-1-1-1h-.287c.419-.349.844-.694,1.301-1.006,2.825-1.945,6.142-2.974,9.593-2.974,9.374,0,17,7.626,17,17s-7.626,17-17,17S7,33.374,7,24c0-2.629.617-5.247,1.784-7.57.248-.494.049-1.095-.445-1.343-.494-.247-1.095-.048-1.342.444-1.306,2.601-1.997,5.529-1.997,8.469,0,10.477,8.523,19,19,19s19-8.523,19-19S34.477,5,24,5Z"/>
  <path d="M24,38c7.72,0,14-6.28,14-14s-6.28-14-14-14-14,6.28-14,14,6.28,14,14,14ZM31.741,14.845l-.669.669c-.391.391-.391,1.023,0,1.414.359.359,1.033.381,1.414,0l.669-.669c1.569,1.852,2.582,4.183,2.795,6.741h-.949c-.552,0-1,.447-1,1s.448,1,1,1h.949c-.213,2.558-1.226,4.888-2.795,6.741l-.669-.669c-.391-.391-1.023-.391-1.414,0s-.391,1.023,0,1.414l.669.669c-2.092,1.771-4.792,2.845-7.741,2.845s-5.649-1.074-7.741-2.845l.669-.669c.391-.391.391-1.023,0-1.414s-1.023-.391-1.414,0l-.669.669c-1.569-1.852-2.582-4.183-2.795-6.741h.949c.552,0,1-.447,1-1s-.448-1-1-1h-.949c.213-2.558,1.226-4.888,2.795-6.741,0,0,.669.669.669.669.386.386,1.027.388,1.414,0,.391-.391.391-1.023,0-1.414l-.669-.669c2.092-1.771,4.792-2.845,7.741-2.845s5.649,1.074,7.741,2.845Z"/>
  <path d="M21.301,22.715c-.187.391-.301.824-.301,1.285,0,1.302.839,2.402,2,2.816v6.184c0,.553.448,1,1,1s1-.447,1-1v-6.184c1.161-.414,2-1.514,2-2.816s-.839-2.402-2-2.816v-6.184c0-.553-.448-1-1-1s-1,.447-1,1v6.184c-.098.035-.193.072-.285.116l-2.957-2.958c-.391-.391-1.023-.391-1.414,0s-.391,1.023,0,1.414l2.957,2.958ZM24,25c-.551,0-1-.448-1-1s.449-1,1-1,1,.448,1,1-.449,1-1,1Z"/>
</svg>