<?xml version="1.0" encoding="UTF-8"?>
<svg id="Outline" xmlns="http://www.w3.org/2000/svg" version="1.1" viewBox="0 0 64 64">
  <!-- Generator: Adobe Illustrator 29.5.1, SVG Export Plug-In . SVG Version: 2.1.0 Build 141)  -->
  <path d="M51.08,18.8c-.5-.25-1.1-.06-1.35.43-.25.5-.06,1.1.43,1.35,3.12,1.6,4.84,3.52,4.84,5.42,0,4.35-9.24,9-23,9s-23-4.65-23-9,9.24-9,23-9c3.8,0,7.56.39,10.89,1.12.54.12,1.07-.23,1.19-.77.12-.53-.23-1.07-.77-1.19-3.46-.76-7.37-1.16-11.31-1.16-14.02,0-25,4.83-25,11v12c0,6.17,10.98,11,25,11s25-4.83,25-11v-12c0-2.73-2.05-5.22-5.92-7.2ZM13,42.95c-2.56-1.5-4-3.24-4-4.95v-7.61c1,1.04,2.36,1.99,4,2.83v9.73ZM21,45.88c-2.29-.51-4.31-1.16-6-1.91v-9.84c1.77.72,3.79,1.32,6,1.79v9.96ZM27,46.78c-1.4-.12-2.73-.3-4-.51v-9.98c1.28.21,2.62.38,4,.5v9.99ZM35,46.92c-.98.05-1.97.08-3,.08s-2.02-.03-3-.08v-10c.98.05,1.98.08,3,.08s2.02-.03,3-.08v10ZM41,46.27c-1.27.21-2.6.39-4,.51v-9.99c1.38-.12,2.72-.29,4-.5v9.98ZM49,43.97c-1.69.75-3.71,1.4-6,1.91v-9.96c2.21-.47,4.23-1.07,6-1.79v9.84ZM55,38c0,1.71-1.44,3.45-4,4.95v-9.73c1.64-.84,3-1.79,4-2.83v7.61Z"/>
  <path d="M22.467,19.869c-.542.106-.895.632-.788,1.174.094.477.512.807.98.807.064,0,.129-.006.194-.019,2.8-.551,5.877-.831,9.146-.831.552,0,1-.448,1-1s-.448-1-1-1c-3.399,0-6.606.292-9.533.869Z"/>
  <path d="M18.384,20.898c-3.676,1.181-7.384,3.216-7.384,5.102,0,.552.448,1,1,1,.526,0,.957-.406.997-.921.209-.45,1.933-1.971,5.999-3.277.526-.169.815-.732.646-1.258s-.733-.816-1.258-.646Z"/>
  <circle cx="47" cy="18" r="1"/>
</svg>