<?xml version="1.0" encoding="UTF-8"?>
<svg id="Outline" xmlns="http://www.w3.org/2000/svg" version="1.1" viewBox="0 0 64 64">
  <!-- Generator: Adobe Illustrator 29.5.1, SVG Export Plug-In . SVG Version: 2.1.0 Build 141)  -->
  <path d="M53.933,41.97l-7.26-6.3c.11-.54.14-1.13.05-1.75-.2-1.38-.91-2.75-2.01-3.84-.32-.33-.66-.48-.99-.53.01-.13.03-.25.03-.38,0-1.01-.46-1.9-1.16-2.52v-.98c0-4.44-2.3-8.34-5.76-10.61.05-.34.09-.7.09-1.06,0-3.86-3.14-7-7-7s-7,3.14-7,7c0,.36.04.72.09,1.06-3.46,2.27-5.76,6.17-5.76,10.61v.98c-.7.62-1.16,1.51-1.16,2.52,0,1.84,1.49,3.33,3.33,3.33h.22c.25,2.63,1.49,4.97,3.35,6.65l-.91,4.32-8.34,1.52c-2.7.49-4.65,2.83-4.65,5.57v5.44c0,.55.44,1,1,1h39.66c.56,0,1-.45,1-1v-5.44c0-2.74-1.95-5.08-4.65-5.57l-8.34-1.52-.91-4.32c.62-.57,1.18-1.2,1.66-1.91,1,.83,2.15,1.39,3.33,1.56.26.04.52.05.77.05.34,0,.66-.04.98-.11,0,0,6.294,7.263,6.3,7.27,1.069,1.233,3.04,1.322,4.19.15,1.148-1.17,1.096-3.11-.15-4.19ZM24.923,14c0-2.76,2.24-5,5-5s5,2.24,5,5v.03c-1.54-.66-3.23-1.03-5-1.03s-3.46.37-5,1.03v-.03ZM19.253,25.67c0-5.88,4.79-10.67,10.67-10.67s10.67,4.79,10.67,10.67v.18c-.06-.01-.11-.02-.17-.02h-3.5c-1.65,0-3.3-.39-4.76-1.12-1.5-.75-2.8-1.84-3.77-3.14-.18-.25-.48-.4-.8-.4-.29.04-.61.15-.8.4l-1.4,1.86c-1.13,1.5-2.92,2.4-4.8,2.4h-1.17c-.06,0-.11.01-.17.02v-.18ZM22.363,34.97l1.17-1.16c.22-.22.56-.22.78,0,.84.84,2.22.98,3.24.3l.08-.05c.22-.15.43-.09.51-.06.1.04.28.14.34.38l.2.81c.06.22-.03.46-.22.59l-1.41.93c-.7.47-1.12,1.26-1.13,2.1-1.56-.86-2.81-2.21-3.56-3.84ZM40.563,46.01l5.18.94c1.75.32,3.01,1.84,3.01,3.61v4.44h-4.83v-5c0-.55-.45-1-1-1s-1,.45-1,1v5h-24v-5c0-.55-.45-1-1-1s-1,.45-1,1v5h-4.83v-4.44c0-1.77,1.26-3.29,3.01-3.61l5.18-.94c.11,2.57,2.22,4.64,4.81,4.65h.26c.74,0,1.45.3,1.99.83l.17.17c.94.94,2.18,1.41,3.42,1.41,1.22,0,2.45-.47,3.38-1.4l.21-.19c.52-.52,1.23-.82,1.97-.82h.26c2.59-.01,4.7-2.08,4.81-4.65ZM38.583,45.65v.18c-.01,1.55-1.28,2.82-2.83,2.83h-.26c-1.26,0-2.5.51-3.37,1.38l-.21.2c-1.1,1.1-2.88,1.1-4-.01l-.17-.17c-.89-.89-2.13-1.4-3.39-1.4h-.26c-1.55-.01-2.82-1.28-2.83-2.83v-.18l1.84-.33c.4-.08.72-.38.8-.78l.86-4.1c1.52.88,3.28,1.39,5.16,1.39,1.86,0,3.62-.5,5.16-1.39l.86,4.1c.08.4.4.7.8.78l1.84.33ZM35.993,32.95c.13.95.53,1.89,1.11,2.74-.51.88-1.15,1.64-1.9,2.26-.01.01-.02.02-.03.02-1.46,1.18-3.29,1.86-5.25,1.86-.69,0-1.36-.09-2-.25v-.75c0-.19.09-.35.24-.46l1.41-.93c.89-.6,1.31-1.7,1.05-2.74l-.2-.8c-.2-.8-.78-1.46-1.55-1.76-.77-.3-1.64-.21-2.36.26l-.08.06c-.18.11-.42.21-.7-.07-1-.99-2.62-.99-3.62,0l-.41.41c-.07-.42-.11-.86-.11-1.3,0-.55-.45-1-1-1h-1.17c-.73,0-1.33-.6-1.33-1.33,0-.74.6-1.34,1.33-1.34h1.17c2.5,0,4.9-1.2,6.4-3.2l.64-.85c1.02,1.1,2.26,2.03,3.63,2.71,1.74.88,3.69,1.34,5.66,1.34h3.5c.73,0,1.33.6,1.33,1.34,0,.48-.28.91-.69,1.14-.26-.12-.59-.39-.88-.62-.69-.55-1.98-1.59-3.07-.5-.94.94-1.33,2.27-1.12,3.76ZM44.183,36.26c-.48.48-1.21.68-2.06.56-.96-.14-1.92-.65-2.71-1.44-.79-.79-1.3-1.76-1.44-2.71-.11-.74.03-1.39.38-1.86.17.11.41.3.58.44,1.293,1.065,2.455,1.469,3.97.54.13-.08.33-.2.45-.25.76.78,1.26,1.72,1.39,2.66.12.85-.08,1.58-.56,2.06ZM52.673,44.75c-.17.17-.41.27-.64.25-.25-.01-.47-.12-.62-.3l-5.98-6.89c.05-.05.12-.08.17-.13s.09-.11.14-.16l6.88,5.97c.371.322.398.912.05,1.26Z"/>
</svg>