<?xml version="1.0" encoding="UTF-8"?>
<svg id="Outline" xmlns="http://www.w3.org/2000/svg" version="1.1" viewBox="0 0 64 64">
  <!-- Generator: Adobe Illustrator 29.5.1, SVG Export Plug-In . SVG Version: 2.1.0 Build 141)  -->
  <path d="M36.958,14.481c.017-.165.042-.33.042-.496,0-2.757-2.243-5-5-5s-5,2.243-5,5c0,.165.025.33.042.496-11.418,2.307-20.042,12.417-20.042,24.504,0,5.675,1.961,11.235,5.521,15.657.315.392.872.487,1.301.227l.483-.296c6.954-4.177,12.901-9.597,17.695-16.122,4.794,6.525,10.74,11.945,17.688,16.118l.49.3c.391.239.987.162,1.301-.227,3.56-4.422,5.521-9.982,5.521-15.657,0-12.088-8.624-22.198-20.042-24.504ZM29,13.985c0-1.654,1.346-3,3-3s3,1.346,3,3c0,.061-.012.123-.016.184-.979-.117-1.974-.184-2.984-.184s-2.005.067-2.984.184c-.004-.061-.016-.123-.016-.184ZM31.193,36.143c-.009.012-.018.024-.025.037-4.704,6.71-10.63,12.264-17.625,16.516-2.936-3.947-4.543-8.782-4.543-13.711,0-12.683,10.317-23,23-23,2.763,0,5.412.489,7.868,1.387-1.771,6.753-4.688,13.065-8.675,18.771ZM50.457,52.696c-6.8-4.132-12.595-9.501-17.236-15.969,3.873-5.677,6.732-11.919,8.512-18.58,7.831,3.672,13.268,11.632,13.268,20.838,0,4.929-1.607,9.764-4.543,13.711Z"/>
  <path d="M44.094,21.825c-.45-.318-1.075-.211-1.394.239-.319.451-.212,1.075.239,1.394,5.047,3.568,8.061,9.373,8.061,15.527,0,3.239-.778,6.298-2.312,9.089-.267.483-.09,1.092.394,1.357.461.253,1.089.095,1.357-.394,1.698-3.09,2.56-6.472,2.56-10.052,0-6.803-3.329-13.218-8.906-17.16Z"/>
  <path d="M34.504,24.121c-.477-.276-1.089-.116-1.368.36-4.584,7.859-10.479,14.766-17.521,20.527l-.248.203c-.427.35-.49.979-.14,1.407.197.241.484.366.774.366.223,0,.446-.074.633-.227l.247-.202c7.228-5.914,13.278-13.002,17.983-21.067.277-.478.116-1.09-.36-1.368Z"/>
</svg>