<?xml version="1.0" encoding="UTF-8"?>
<svg id="Outline" xmlns="http://www.w3.org/2000/svg" version="1.1" viewBox="0 0 64 64">
  <!-- Generator: Adobe Illustrator 29.5.1, SVG Export Plug-In . SVG Version: 2.1.0 Build 141)  -->
  <path d="M42.09,25.519l-1.06,4.239c-.113.453.101.923.516,1.134.385.196.929.1,1.222-.251l1.265-1.517c2.183-2.62,5.392-4.123,8.802-4.123,2.226,0,4.053-1.667,4.16-3.794.056-1.11-.333-2.163-1.096-2.964-.762-.801-1.791-1.242-2.899-1.242-5.17,0-9.656,3.503-10.91,8.519ZM53,19c.555,0,1.07.22,1.45.621.381.4.575.927.547,1.485-.053,1.044-1.022,1.895-2.162,1.895-3.308,0-6.453,1.204-8.894,3.355l.088-.352c1.031-4.124,4.721-7.004,8.971-7.004Z"/>
  <path d="M37.547,20.892c.414.21.925.105,1.222-.251l1.265-1.517c2.183-2.62,5.392-4.123,8.802-4.123,2.226,0,4.053-1.667,4.16-3.794.056-1.11-.333-2.163-1.096-2.964-.762-.801-1.791-1.242-2.899-1.242-5.17,0-9.656,3.503-10.91,8.519l-1.06,4.239c-.113.453.102.923.517,1.134ZM40.029,16.004c1.031-4.124,4.721-7.004,8.971-7.004.555,0,1.07.22,1.45.621.381.4.575.927.547,1.485-.053,1.044-1.022,1.895-2.162,1.895-3.308,0-6.453,1.204-8.894,3.355l.088-.352Z"/>
  <path d="M11.165,25c3.41,0,6.619,1.503,8.802,4.123l1.265,1.517c.667.8,1.99.123,1.738-.883l-1.06-4.239c-1.254-5.016-5.74-8.519-10.91-8.519-1.108,0-2.138.441-2.899,1.242-.763.801-1.151,1.854-1.096,2.964.107,2.127,1.935,3.794,4.16,3.794ZM9.55,19.621c.38-.4.896-.621,1.45-.621,4.25,0,7.939,2.88,8.971,7.004l.088.352c-2.44-2.152-5.586-3.355-8.894-3.355-1.14,0-2.109-.85-2.162-1.895-.028-.558.166-1.085.547-1.485Z"/>
  <path d="M15.165,15c3.41,0,6.619,1.503,8.802,4.123l1.265,1.517c.195.234.479.36.768.36.64,0,1.125-.624.97-1.243l-1.06-4.239c-1.254-5.016-5.74-8.519-10.91-8.519-1.108,0-2.138.441-2.899,1.242-.763.801-1.151,1.854-1.096,2.964.107,2.127,1.935,3.794,4.16,3.794ZM13.55,9.621c.38-.4.896-.621,1.45-.621,4.25,0,7.939,2.88,8.971,7.004l.088.352c-2.44-2.152-5.586-3.355-8.894-3.355-1.14,0-2.109-.85-2.162-1.895-.028-.558.166-1.085.547-1.485Z"/>
  <path d="M52.835,39c-3.41,0-6.619-1.503-8.802-4.123l-1.265-1.517c-.299-.36-.806-.462-1.222-.251-.415.211-.63.682-.517,1.134l1.06,4.239c1.254,5.016,5.74,8.519,10.91,8.519,2.265,0,4.108-1.948,3.995-4.206-.107-2.127-1.935-3.794-4.16-3.794ZM54.45,44.379c-.38.4-.896.621-1.45.621-4.25,0-7.939-2.88-8.971-7.004l-.088-.352c2.44,2.152,5.586,3.355,8.894,3.355,1.14,0,2.109.85,2.162,1.895.028.558-.166,1.085-.547,1.485Z"/>
  <path d="M48.835,49c-3.41,0-6.619-1.503-8.802-4.123l-1.265-1.517c-.3-.36-.806-.461-1.222-.251-.415.211-.63.682-.517,1.134l1.06,4.239c1.254,5.016,5.74,8.519,10.91,8.519,1.108,0,2.138-.441,2.899-1.242.763-.801,1.151-1.854,1.096-2.964-.107-2.127-1.935-3.794-4.16-3.794ZM50.45,54.379c-.38.4-.896.621-1.45.621-4.25,0-7.939-2.88-8.971-7.004l-.088-.352c2.44,2.152,5.586,3.355,8.894,3.355,1.14,0,2.109.85,2.162,1.895.028.558-.166,1.085-.547,1.485Z"/>
  <path d="M21.91,38.481l1.06-4.239c.113-.453-.102-.923-.517-1.134s-.922-.108-1.222.251l-1.265,1.517c-2.183,2.62-5.392,4.123-8.802,4.123-2.226,0-4.053,1.667-4.16,3.794-.056,1.11.333,2.163,1.096,2.964.762.801,1.791,1.242,2.899,1.242,5.17,0,9.656-3.503,10.91-8.519ZM11,45c-.555,0-1.07-.22-1.45-.621-.381-.4-.575-.927-.547-1.485.053-1.044,1.022-1.895,2.162-1.895,3.308,0,6.453-1.204,8.894-3.355l-.088.352c-1.031,4.124-4.721,7.004-8.971,7.004Z"/>
  <path d="M26.453,43.108c-.415-.21-.922-.108-1.222.251l-1.265,1.517c-2.183,2.62-5.392,4.123-8.802,4.123-2.226,0-4.053,1.667-4.16,3.794-.056,1.11.333,2.163,1.096,2.964.762.801,1.791,1.242,2.899,1.242,5.17,0,9.656-3.503,10.91-8.519l1.06-4.239c.113-.453-.102-.923-.517-1.134ZM23.971,47.996c-1.031,4.124-4.721,7.004-8.971,7.004-.555,0-1.07-.22-1.45-.621-.381-.4-.575-.927-.547-1.485.053-1.044,1.022-1.895,2.162-1.895,3.308,0,6.453-1.204,8.894-3.355l-.088.352Z"/>
  <path d="M40,32c0-4.411-3.589-8-8-8s-8,3.589-8,8,3.589,8,8,8,8-3.589,8-8ZM32,38c-3.309,0-6-2.691-6-6s2.691-6,6-6,6,2.691,6,6-2.691,6-6,6Z"/>
  <path d="M32,28c-2.206,0-4,1.794-4,4s1.794,4,4,4,4-1.794,4-4-1.794-4-4-4ZM32,34c-1.103,0-2-.897-2-2s.897-2,2-2,2,.897,2,2-.897,2-2,2Z"/>
</svg>