<?xml version="1.0" encoding="UTF-8"?>
<svg id="Outline" xmlns="http://www.w3.org/2000/svg" version="1.1" viewBox="0 0 64 64">
  <!-- Generator: Adobe Illustrator 29.5.1, SVG Export Plug-In . SVG Version: 2.1.0 Build 141)  -->
  <path d="M48.42,49.033c.36-.6.58-1.29.58-2.04,0-1.74-1.13-3.21-2.69-3.76.44-.64.69-1.41.69-2.24,0-2.11-1.65-3.83-3.72-3.97,2.49-3.29,3.9-7.56,3.9-12.04,0-4-1.08-7.78-3.12-10.94-.23-.36-.67-.54-1.09-.43-.42.11-.72.47-.75.9l-.19,2.76c-.05.81-.33,1.57-.8,2.19-.48.62-1.11,1.06-1.82,1.28-1.91.59-3.85-.06-5.07-1.56-.84-1.03-1.26-2.39-1.17-3.74l.51-7.38c.02-.28-.1-.55-.28-.75-.38-.4-1.09-.41-1.48-.01l-3.93,4.15c-3.53,3.7-5.48,8.62-5.48,13.87,0,.51.02.93.06,1.32-1.58-.94-2.85-1.94-3.86-3.5-.23-.36-.67-.54-1.09-.43-.41.11-.72.47-.75.9-.03.45-.05.91-.05,1.37,0,4.56,1.45,8.89,4.02,12.2-1.64.5-2.84,2.01-2.84,3.81,0,.75.22,1.44.58,2.04-2.01.22-3.58,1.9-3.58,3.96,0,.75.22,1.44.58,2.04-2.01.22-3.58,1.9-3.58,3.96,0,2.21,1.79,4,4,4h32c2.21,0,4-1.79,4-4,0-2.06-1.57-3.74-3.58-3.96ZM47,46.993c0,1.1-.9,2-2,2s-2-.9-2-2,.9-2,2-2,2,.9,2,2ZM45,40.993c0,1.1-.9,2-2,2h-17.56c.35-.59.56-1.27.56-2s-.21-1.41-.56-2h17.56c1.1,0,2,.9,2,2ZM18.87,26.423c1.3,1.2,2.83,2.07,4.56,2.98.34.18.75.11,1.06-.12.31-.24.45-.67.37-1.05-.24-1.2-.35-1.74-.35-2.91,0-4.66,1.79-9.21,4.93-12.49l2.05-2.17-.32,4.64c-.13,1.89.45,3.71,1.62,5.14,1.73,2.12,4.53,3.04,7.21,2.21,1.1-.34,2.08-1.02,2.82-1.98.56-.74.93-1.6,1.11-2.51.82,2.11,1.25,4.42,1.25,6.82,0,4.62-1.64,8.96-4.49,12.01h-17.38c-2.55-2.73-4.14-6.49-4.44-10.57ZM22,38.993c1.1,0,2,.9,2,2s-.9,2-2,2-2-.9-2-2,.9-2,2-2ZM16,54.993c-1.1,0-2-.9-2-2s.9-2,2-2,2,.9,2,2-.9,2-2,2ZM17,46.993c0-1.1.9-2,2-2h22.56c-.35.59-.56,1.27-.56,2s.21,1.41.56,2h-22.56c-1.1,0-2-.9-2-2ZM48,54.993h-28.56c.35-.59.56-1.27.56-2s-.21-1.41-.56-2h28.56c1.1,0,2,.9,2,2s-.9,2-2,2Z"/>
</svg>