<?xml version="1.0" encoding="UTF-8"?>
<svg id="Outline" xmlns="http://www.w3.org/2000/svg" version="1.1" viewBox="0 0 64 64">
  <!-- Generator: Adobe Illustrator 29.5.1, SVG Export Plug-In . SVG Version: 2.1.0 Build 141)  -->
  <path d="M54,19.999h-16.5c.01-.34.03-.68.08-1.01,0,0,.66-4.25.66-4.25.094-.471-.18-1.067-.467-1.423-.475-.588-1.214-.919-1.933-1.097-1.09-.27-2.45-.29-3.85-.06-1.39.24-2.67.7-3.61,1.32-.22.14-.4.29-.56.43-.32-.2-.69-.32-1.09-.32h-4.21c-.4,0-.77.12-1.09.32-.16-.14-.34-.29-.56-.43-.94-.62-2.22-1.08-3.61-1.32-1.4-.23-2.76-.21-3.85.06-1.84.47-2.27,1.48-2.37,2.044,0,.152-.054.326-.03.476l.66,4.25c.05.33.07.67.08,1.01h-1.75c-1.65,0-3,1.35-3,3v26c0,1.65,1.35,3,3,3h44c1.65,0,3-1.35,3-3v-26c0-1.65-1.35-3-3-3ZM32.33,14.129c.55-.09,1.07-.13,1.52-.13,1.39,0,2.26.36,2.38.59-.05.36-1.28,1.34-3.54,1.72-2.27.39-3.77-.16-3.91-.45.03-.34,1.27-1.34,3.55-1.73ZM28.78,18.089c.13.05.25.09.4.13.59.15,1.26.22,1.97.22.6,0,1.24-.05,1.87-.16,1.02-.17,1.97-.47,2.78-.85l-.19,1.25c-.23,1.47-.14,2.96.24,4.38h-2.07c-1.79,0-3.55-.57-5-1.6v-3.37ZM28.15,23.429c.89.56,1.86.98,2.87,1.26.13,2.01.91,3.94,2.23,5.48l-2.74-.27c-.23-.02-.46.03-.65.16l-2.03,1.36-.18-.58c-.65-2.16-.97-4.39-.97-6.64v-.2h.05c.55,0,1.05-.22,1.42-.57ZM22.52,15.589l4.26.05v6.31c0,.03-.02.05-.05.05l-4.26-.05.05-6.36ZM21.1,23.429c.37.35.87.57,1.42.57h.05v.2c0,2.25-.32,4.48-.97,6.64l-.18.58-2.03-1.36c-.19-.13-.42-.18-.65-.16l-2.74.27c1.32-1.54,2.1-3.47,2.23-5.48,1.01-.28,1.98-.7,2.87-1.26ZM13.64,18.679l-.19-1.25c.81.38,1.76.68,2.78.85.63.11,1.27.16,1.87.16.71,0,1.38-.07,1.97-.22.15-.04.27-.08.4-.13v3.37c-1.45,1.03-3.21,1.6-5,1.6h-2.07c.38-1.42.47-2.91.24-4.38ZM16.92,14.129c2.27.38,3.5,1.37,3.55,1.7v.01c-.15.32-1.64.86-3.91.47-2.26-.38-3.49-1.36-3.54-1.72.16-.31,1.65-.84,3.9-.46ZM9,22.999c0-.55.45-1,1-1h1.58c-.11.51-.24,1.01-.43,1.49l-.08.2c-.12.31-.08.65.1.93.19.27.5.44.83.44h3.47c.24,0,.48-.02.72-.03-.19,1.44-.79,2.8-1.76,3.9l-1.6,1.83c-.27.31-.33.76-.14,1.12.19.37.58.57.99.54l4.9-.49,2.86,1.9c.236.157.587.22.89.11.3-.11.53-.35.62-.65l.56-1.88c.71-2.34,1.06-4.76,1.06-7.21v-.2h.11v.2c0,2.45.35,4.87,1.06,7.21l.56,1.88c.09.3.32.54.62.65.299.109.623.067.89-.11l2.86-1.9,4.9.49c.41.03.8-.17.99-.54.19-.36.13-.81-.14-1.12l-1.6-1.83c-.97-1.1-1.57-2.46-1.76-3.9.24.01.48.03.72.03h3.47c.33,0,.64-.17.83-.44.18-.28.22-.62.1-.93l-.08-.2c-.19-.48-.32-.98-.43-1.49h2.33v16.76c-1.27-.5-2.62-.76-4-.76-.55,0-1,.45-1,1H9v-16ZM9,40.999h26v4H9v-4ZM40,49.999H10c-.55,0-1-.45-1-1v-2h26c0,.55.45,1,1,1,1.38,0,2.73-.26,4-.76v2.76ZM41.04,44.439l-.1.06c-1.19.8-2.53,1.29-3.94,1.44v-5.88c1.41.15,2.75.64,3.94,1.44l.1.06c-.02.15-.04.29-.04.44v2c0,.15.02.29.04.44ZM46,49.999h-4v-3.78c.53.48,1.23.78,2,.78s1.47-.3,2-.78v3.78ZM43,43.999v-2c0-.55.45-1,1-1s1,.45,1,1v2c0,.55-.45,1-1,1s-1-.45-1-1ZM46,39.779c-.53-.48-1.23-.78-2-.78s-1.47.3-2,.78v-17.78h4v17.78ZM46.96,44.439c.02-.15.04-.29.04-.44v-2c0-.15-.02-.29-.04-.44l.1-.06c1.19-.8,2.53-1.29,3.94-1.44v5.88c-1.41-.15-2.75-.64-3.94-1.44l-.1-.06ZM55,48.999c0,.55-.45,1-1,1h-6v-2.76c1.27.5,2.62.76,4,.76.55,0,1-.45,1-1h2v2ZM55,44.999h-2v-4h2v4ZM55,38.999h-2c0-.55-.45-1-1-1-1.38,0-2.73.26-4,.76v-16.76h6c.55,0,1,.45,1,1v16Z"/>
</svg>