<?xml version="1.0" encoding="UTF-8"?>
<svg id="Outline" xmlns="http://www.w3.org/2000/svg" version="1.1" viewBox="0 0 64 64">
  <!-- Generator: Adobe Illustrator 29.5.1, SVG Export Plug-In . SVG Version: 2.1.0 Build 141)  -->
  <path d="M54,11h-5v-3c0-.55-.45-1-1-1h-4c-.55,0-1,.45-1,1v3h-22v-3c0-.55-.45-1-1-1h-4c-.55,0-1,.45-1,1v3h-5c-1.65,0-3,1.35-3,3v40c0,1.65,1.35,3,3,3h44c1.65,0,3-1.35,3-3V14c0-1.65-1.35-3-3-3ZM45,9h2v6h-2v-6ZM17,9h2v6h-2v-6ZM30.57,55l14.85-1.92.96,1.92h-15.81ZM51,53.53c0,.81-.66,1.47-1.47,1.47-.56,0-1.07-.31-1.32-.81l-1.32-2.64c-.19-.38-.6-.59-1.02-.54l-30.94,3.99h-.93c-.55,0-1-.45-1-1v-21c0-.55-.45-1-1-1s-1,.45-1,1v21c0,.35.07.69.18,1h-1.18c-.55,0-1-.45-1-1V21h2v4c0,.55.45,1,1,1s1-.45,1-1v-4h38v32.53ZM55,54c0,.55-.45,1-1,1h-1.34c.21-.45.34-.94.34-1.47V21h2v33ZM55,19H9v-5c0-.55.45-1,1-1h5v2h-3c-.55,0-1,.45-1,1s.45,1,1,1h12c.55,0,1-.45,1-1s-.45-1-1-1h-3v-2h22v2h-3c-.55,0-1,.45-1,1s.45,1,1,1h12c.55,0,1-.45,1-1s-.45-1-1-1h-3v-2h5c.55,0,1,.45,1,1v5Z"/>
  <path d="M22,51.052h4c.552,0,1-.447,1-1s-.448-1-1-1h-1v-7.324l.219-.088c2.373-.95,5.047-.839,7.334.306,1.538.769,3.218,1.155,4.902,1.155,1.379,0,2.761-.26,4.068-.782l.848-.339c.38-.152.629-.52.629-.929v-14c0-.332-.165-.642-.439-.828-.275-.185-.624-.223-.932-.101l-.848.339c-2.373.95-5.046.838-7.333-.305-2.661-1.33-5.746-1.505-8.542-.519-.158-.345-.501-.587-.905-.587-.552,0-1,.447-1,1v23h-1c-.552,0-1,.447-1,1s.448,1,1,1ZM32.553,27.946c2.632,1.314,5.679,1.513,8.447.567v11.861l-.219.087c-2.373.95-5.046.838-7.333-.305-1.538-.769-3.218-1.156-4.902-1.156-1.196,0-2.395.195-3.545.589v-11.861l.219-.088c2.373-.95,5.047-.839,7.334.306Z"/>
  <circle cx="12" cy="29" r="1"/>
</svg>