<?xml version="1.0" encoding="UTF-8"?>
<svg id="Outline" xmlns="http://www.w3.org/2000/svg" version="1.1" viewBox="0 0 64 64">
  <!-- Generator: Adobe Illustrator 29.5.1, SVG Export Plug-In . SVG Version: 2.1.0 Build 141)  -->
  <path d="M45,11c.552,0,1-.447,1-1v-2c0-.553-.448-1-1-1s-1,.447-1,1v2c0,.553.448,1,1,1Z"/>
  <path d="M41,13h2c.552,0,1-.447,1-1s-.448-1-1-1h-2c-.552,0-1,.447-1,1s.448,1,1,1Z"/>
  <path d="M45,13c-.552,0-1,.447-1,1v2c0,.553.448,1,1,1s1-.447,1-1v-2c0-.553-.448-1-1-1Z"/>
  <path d="M47,13h2c.552,0,1-.447,1-1s-.448-1-1-1h-2c-.552,0-1,.447-1,1s.448,1,1,1Z"/>
  <path d="M18,14c.552,0,1-.447,1-1v-2c0-.553-.448-1-1-1s-1,.447-1,1v2c0,.553.448,1,1,1Z"/>
  <path d="M14,16h2c.552,0,1-.447,1-1s-.448-1-1-1h-2c-.552,0-1,.447-1,1s.448,1,1,1Z"/>
  <path d="M18,16c-.552,0-1,.447-1,1v2c0,.553.448,1,1,1s1-.447,1-1v-2c0-.553-.448-1-1-1Z"/>
  <path d="M20,16h2c.552,0,1-.447,1-1s-.448-1-1-1h-2c-.552,0-1,.447-1,1s.448,1,1,1Z"/>
  <circle cx="42" cy="48" r="1"/>
  <path d="M38.464,48.464c-.391.391-.391,1.024,0,1.414.391.391,1.024.391,1.414,0,.391-.391.391-1.024,0-1.414-.391-.391-1.024-.391-1.414,0Z"/>
  <circle cx="38" cy="52" r="1"/>
  <path d="M38.464,54.121c-.391.391-.391,1.024,0,1.414.391.391,1.024.391,1.414,0,.391-.391.391-1.024,0-1.414s-1.024-.391-1.414,0Z"/>
  <circle cx="42" cy="56" r="1"/>
  <path d="M44.121,54.121c-.391.391-.391,1.024,0,1.414.391.391,1.024.391,1.414,0,.391-.391.391-1.024,0-1.414s-1.024-.391-1.414,0Z"/>
  <circle cx="46" cy="52" r="1"/>
  <path d="M45.536,49.879c.391-.391.391-1.024,0-1.414-.391-.391-1.024-.391-1.414,0-.391.391-.391,1.024,0,1.414.391.391,1.024.391,1.414,0Z"/>
  <circle cx="21" cy="46" r="1"/>
  <path d="M17.464,46.464c-.391.391-.391,1.024,0,1.414.391.391,1.024.391,1.414,0,.391-.391.391-1.024,0-1.414-.391-.391-1.024-.391-1.414,0Z"/>
  <circle cx="17" cy="50" r="1"/>
  <path d="M17.464,52.121c-.391.391-.391,1.024,0,1.414.391.391,1.024.391,1.414,0,.391-.391.391-1.024,0-1.414s-1.024-.391-1.414,0Z"/>
  <circle cx="21" cy="54" r="1"/>
  <path d="M23.121,52.121c-.391.391-.391,1.024,0,1.414.391.391,1.024.391,1.414,0,.391-.391.391-1.024,0-1.414s-1.024-.391-1.414,0Z"/>
  <circle cx="25" cy="50" r="1"/>
  <path d="M24.536,47.879c.391-.391.391-1.024,0-1.414-.391-.391-1.024-.391-1.414,0-.391.391-.391,1.024,0,1.414.391.391,1.024.391,1.414,0Z"/>
  <path d="M50,32h-10v-2.22l7.24-1.81c.54-.13.86-.68.73-1.21-.13-.54-.68-.86-1.21-.73l-6.76,1.69v-1.15l4.51-2.71c.48-.29.63-.9.35-1.37-.29-.48-.9-.63-1.37-.35l-3.49,2.09v-3.23h2c.39,0,.74-.22.91-.58.16-.35.11-.76-.14-1.06l-10-12c-.38-.46-1.16-.46-1.54,0l-10,12c-.25.3-.3.71-.14,1.06.17.36.52.58.91.58h2v3.23l-3.49-2.09c-.47-.28-1.08-.13-1.37.35-.28.47-.13,1.08.35,1.37l4.51,2.71v1.15l-6.76-1.69c-.53-.13-1.08.19-1.21.73-.13.53.19,1.08.73,1.21l7.24,1.81v2.22h-10c-.55,0-1,.45-1,1s.45,1,1,1h10v2.22l-7.24,1.81c-.54.13-.86.68-.73,1.21.13.528.683.862,1.21.73l6.76-1.69v1.15l-4.51,2.71c-.48.29-.63.9-.35,1.37.284.477.894.618,1.37.35l3.49-2.09v2.23c0,.55.45,1,1,1h6v4.18c-1.16.42-2,1.52-2,2.82,0,1.28,1.52,3.62,2.18,4.57.18.27.49.43.82.43s.64-.16.82-.43c.66-.95,2.18-3.29,2.18-4.57,0-1.3-.84-2.4-2-2.82v-4.18h6c.55,0,1-.45,1-1v-2.23l3.49,2.09c.47.282,1.092.118,1.37-.35.28-.47.13-1.08-.35-1.37l-4.51-2.71v-1.15s6.76,1.69,6.76,1.69c.53.133,1.08-.199,1.21-.73.13-.53-.19-1.08-.73-1.21l-7.24-1.81v-2.22h10c.55,0,1-.45,1-1s-.45-1-1-1ZM32,54.15c-.58-.97-.99-1.84-1-2.15,0-.55.45-1,1-1s1,.45,1,1c-.01.3-.42,1.18-1,2.15ZM38,43h-12v-2h12v2ZM38,39h-12v-14h12v14ZM38,23h-12v-2h12v2ZM24.14,19l7.86-9.44,7.86,9.44h-15.72Z"/>
</svg>