<?xml version="1.0" encoding="UTF-8"?>
<svg id="Outline" xmlns="http://www.w3.org/2000/svg" version="1.1" viewBox="0 0 64 64">
  <!-- Generator: Adobe Illustrator 29.5.1, SVG Export Plug-In . SVG Version: 2.1.0 Build 141)  -->
  <path d="M50,13h-.28l-1.32-3.95c-.4-1.23-1.55-2.05-2.84-2.05h-27.12c-1.29,0-2.44.82-2.84,2.05l-1.32,3.95h-.28c-2.21,0-4,1.79-4,4,0,1.86,1.28,3.41,3,3.86v10.27c0,.27.01.54.02.82-.01.02-.02.03-.02.05s.02.04.02.06c.09,5.67.98,11.29,2.67,16.7l2.36,7.54c.13.42.51.7.95.7h26c.44,0,.82-.28.95-.7l2.36-7.54c1.69-5.41,2.58-11.01,2.67-16.67,0-.03.02-.06.02-.09s-.01-.05-.02-.07c.01-.27.02-.53.02-.8v-10.27c1.72-.45,3-2,3-3.86,0-2.21-1.79-4-4-4ZM17.49,9.68c.14-.41.52-.68.95-.68h27.12c.43,0,.81.27.95.68l1.1,3.32h-31.22l1.1-3.32ZM32,28.06l-4.23-7.06h8.46l-4.23,7.06ZM38,21.94l4.49,7.48c-.6.36-1.07.91-1.31,1.58h-6.36c-.24-.67-.71-1.22-1.31-1.58l4.49-7.48ZM33,32c0,.55-.45,1-1,1s-1-.45-1-1,.45-1,1-1,1,.45,1,1ZM30.49,29.42c-.6.36-1.07.91-1.31,1.58h-6.36c-.24-.67-.71-1.22-1.31-1.58l4.49-7.48,4.49,7.48ZM19.4,29.06c-1.04.21-1.87.96-2.22,1.94h-2.18v-10h9.23l-4.83,8.06ZM21,32c0,.55-.45,1-1,1s-1-.45-1-1,.45-1,1-1,1,.45,1,1ZM46.4,48.17l-2.14,6.83h-24.52l-2.14-6.83c-.94-3-1.62-6.07-2.05-9.17h32.9c-.43,3.1-1.11,6.17-2.05,9.17ZM48.69,37H15.31c-.14-1.33-.23-2.66-.27-4h2.14c.42,1.16,1.52,2,2.82,2s2.4-.84,2.82-2h6.36c.42,1.16,1.52,2,2.82,2s2.4-.84,2.82-2h6.36c.42,1.16,1.52,2,2.82,2s2.4-.84,2.82-2h2.14c-.04,1.34-.13,2.67-.27,4ZM43,32c0-.55.45-1,1-1s1,.45,1,1-.45,1-1,1-1-.45-1-1ZM49,31h-2.18c-.35-.98-1.18-1.73-2.22-1.94l-4.83-8.06h9.23v10ZM50,19H14c-1.1,0-2-.9-2-2s.9-2,2-2h36c1.1,0,2,.9,2,2s-.9,2-2,2Z"/>
</svg>