<?xml version="1.0" encoding="UTF-8"?>
<svg id="Outline" xmlns="http://www.w3.org/2000/svg" version="1.1" viewBox="0 0 64 64">
  <!-- Generator: Adobe Illustrator 29.5.1, SVG Export Plug-In . SVG Version: 2.1.0 Build 141)  -->
  <path d="M57.5,37c0-1.451-1.238-2.507-3.009-3.168-.2-5.527-10.223-9.832-22.991-9.832-12.897,0-23,4.393-23,10,0,.093.029.176.053.262-1.178.625-1.956,1.482-2.031,2.57-.005.027-.008.054-.01.081-.001.03-.011.057-.011.087,0,.407.103.781.282,1.126l3.342,11.699c.366,1.28,1.552,2.175,2.884,2.175h36.983c1.333,0,2.519-.896,2.885-2.177l2.931-10.275c1.036-.643,1.694-1.493,1.694-2.549ZM55.5,37c0,.705-2.278,2-6,2-1.145,0-2.271-.13-3.259-.375-.079-.02-.16-.029-.241-.029s-.162.01-.241.029c-.987.245-2.114.375-3.259.375-1.964,0-3.842-.384-5.021-1.026-.299-.162-.658-.162-.957,0-1.18.643-3.057,1.026-5.021,1.026-1.735,0-3.412-.298-4.599-.818-.256-.111-.547-.111-.803,0-1.97.864-5.373,1.06-7.857.443-.158-.039-.324-.039-.482,0-.987.245-2.114.375-3.259.375-3.23,0-5.366-.974-5.877-1.693l-.102-.366c.113-.715,2.351-1.941,5.979-1.941,1.145,0,2.271.13,3.259.375.158.039.324.039.482,0,2.484-.616,5.888-.42,7.857.443.256.111.547.111.803,0,1.187-.521,2.863-.818,4.599-.818,1.964,0,3.842.384,5.021,1.026.299.162.658.162.957,0,1.18-.643,3.057-1.026,5.021-1.026,1.145,0,2.271.13,3.259.375.158.039.324.039.482,0,.987-.245,2.114-.375,3.259-.375,3.722,0,6,1.295,6,2ZM22.721,26.746c-1.393,1.172-2.221,2.638-2.221,4.254,0,.553.448,1,1,1s1-.447,1-1c0-2.522,3.572-4.679,8-4.965v3.965c0,.553.448,1,1,1s1-.447,1-1v-3.965c4.428.287,8,2.443,8,4.965,0,.553.448,1,1,1s1-.447,1-1c0-1.615-.828-3.081-2.221-4.254,6.918,1.248,11.417,3.886,12.123,6.528-2.075-.373-4.44-.345-6.402.102-1.082-.246-2.286-.376-3.5-.376-2.079,0-4.047.373-5.5,1.032-1.453-.659-3.421-1.032-5.5-1.032-1.849,0-3.605.29-5,.822-1.395-.532-3.151-.822-5-.822-1.214,0-2.418.13-3.5.376-2.296-.523-5.144-.477-7.432.119.507-2.715,5.042-5.466,12.153-6.749ZM50.953,49.274c-.122.427-.518.726-.962.726H13.008c-.444,0-.839-.298-.961-.726l-2.615-9.138c2.418.927,5.871,1.102,8.568.487,1.082.246,2.286.376,3.5.376,1.849,0,3.605-.29,5-.822,1.395.532,3.151.822,5,.822,2.079,0,4.047-.373,5.5-1.032,1.453.659,3.421,1.032,5.5,1.032,1.214,0,2.418-.13,3.5-.376,1.082.246,2.286.376,3.5.376,1.368,0,2.738-.167,3.952-.487l-2.499,8.761Z"/>
  <path d="M30.793,20.293c-.391.391-.391,1.023,0,1.414.366.367,1.021.393,1.414,0,1.493-1.492,1.493-3.922,0-5.414-.713-.713-.713-1.873,0-2.586.391-.391.391-1.023,0-1.414s-1.023-.391-1.414,0c-1.493,1.492-1.493,3.922,0,5.414.713.713.713,1.873,0,2.586Z"/>
  <path d="M25.793,20.293c-.391.391-.391,1.023,0,1.414.388.388,1.026.388,1.414,0,1.493-1.492,1.493-3.922,0-5.414-.713-.713-.713-1.873,0-2.586.391-.391.391-1.023,0-1.414s-1.023-.391-1.414,0c-1.493,1.492-1.493,3.922,0,5.414.713.713.713,1.873,0,2.586Z"/>
  <path d="M35.793,20.293c-.391.391-.391,1.023,0,1.414.387.387,1.025.389,1.414,0,1.493-1.492,1.493-3.922,0-5.414-.713-.713-.713-1.873,0-2.586.391-.391.391-1.023,0-1.414s-1.023-.391-1.414,0c-1.493,1.492-1.493,3.922,0,5.414.713.713.713,1.873,0,2.586Z"/>
</svg>