<?xml version="1.0" encoding="UTF-8"?>
<svg id="Outline" xmlns="http://www.w3.org/2000/svg" version="1.1" viewBox="0 0 64 64">
  <!-- Generator: Adobe Illustrator 29.5.1, SVG Export Plug-In . SVG Version: 2.1.0 Build 141)  -->
  <path d="M32,7c-13.785,0-25,11.215-25,25s11.215,25,25,25,25-11.215,25-25S45.785,7,32,7ZM55,32c0,2.44-.385,4.791-1.093,7h-11.722c3.583-5.101,6.815-10.848,6.815-15,0-4.201-1.539-8.043-4.073-11.012,6.076,4.144,10.073,11.12,10.073,19.012ZM17,24c0-8.271,6.729-15,15-15s15,6.729,15,15c0,7.291-11.897,21.049-15,24.512-3.103-3.463-15-17.221-15-24.512ZM19.073,12.988c-2.534,2.97-4.073,6.812-4.073,11.012,0,4.152,3.231,9.899,6.815,15h-11.722c-.707-2.209-1.093-4.56-1.093-7,0-7.893,3.997-14.868,10.073-19.012ZM32,55c-9.49,0-17.655-5.778-21.164-14h12.424c2.492,3.359,4.963,6.265,6.493,8h-3.753c-.553,0-1,.448-1,1s.447,1,1,1h12c.553,0,1-.448,1-1s-.447-1-1-1h-3.753c1.53-1.735,4.001-4.641,6.493-8h12.424c-3.51,8.222-11.674,14-21.164,14Z"/>
  <path d="M45,24c0-7.168-5.832-13-13-13s-13,5.832-13,13,5.832,13,13,13,13-5.832,13-13ZM30,34.809v-3.809h4v3.809c-.65.12-1.316.191-2,.191s-1.35-.071-2-.191ZM39,32.479c-.892.737-1.906,1.328-3,1.757v-4.236c0-.552-.447-1-1-1h-6c-.553,0-1,.448-1,1v4.236c-1.094-.429-2.108-1.02-3-1.757v-11.86l7-3.5,7,3.5v11.86ZM21,24c0-6.065,4.935-11,11-11s11,4.935,11,11c0,2.346-.744,4.517-2,6.305v-10.305c0-.379-.214-.725-.553-.895l-8-4c-.281-.141-.613-.141-.895,0l-8,4c-.339.169-.553.516-.553.895v10.305c-1.256-1.787-2-3.959-2-6.305Z"/>
  <path d="M28,22v4c0,.552.447,1,1,1h6c.553,0,1-.448,1-1v-4c0-.552-.447-1-1-1h-6c-.553,0-1,.448-1,1ZM30,23h4v2h-4v-2Z"/>
</svg>