<?xml version="1.0" encoding="UTF-8"?>
<svg id="Outline" xmlns="http://www.w3.org/2000/svg" version="1.1" viewBox="0 0 64 64">
  <!-- Generator: Adobe Illustrator 29.5.1, SVG Export Plug-In . SVG Version: 2.1.0 Build 141)  -->
  <path d="M56.24,17.03l-3.24-.81v-3.22h1c.55,0,1-.45,1-1v-4c0-.55-.45-1-1-1h-10c-.55,0-1,.45-1,1v4c0,.55.45,1,1,1h1v1.22l-12.76-3.19c-.16-.04-.32-.04-.48,0l-24,6c-.45.11-.76.51-.76.97v4c0,.31.14.6.38.79.25.19.56.25.86.18l1.76-.44v31.47c0,1.65,1.35,3,3,3h38c1.65,0,3-1.35,3-3v-31.47l1.76.44c.08.02.16.03.24.03.22,0,.44-.07.62-.21.24-.19.38-.48.38-.79v-4c0-.46-.31-.86-.76-.97ZM45,9h8v2h-8v-2ZM51,13v2.72l-4-1v-1.72h4ZM52,54c0,.55-.45,1-1,1H13c-.55,0-1-.45-1-1v-31.97l20-5,20,5v31.97ZM55,20.72l-22.76-5.69c-.08-.02-.16-.03-.24-.03s-.16.01-.24.03l-22.76,5.69v-1.94l23-5.75,23,5.75v1.94Z"/>
  <path d="M31,26.032v-4.032c0-.324-.158-.629-.422-.816-.266-.188-.605-.234-.911-.127-2.38.841-4.125,2.899-4.546,5.341-.047.229-.076.468-.096.713-.291-.028-.587.066-.802.282l-2.83,2.83c-.304.305-.38.77-.188,1.154l.904,1.81c-.194.403-.362.813-.502,1.227l-1.923.638c-.409.136-.685.519-.685.949v4c0,.431.276.813.685.949l1.923.638c.14.413.308.823.502,1.227l-.904,1.81c-.192.385-.117.85.188,1.154l2.83,2.83c.305.305.768.381,1.155.188l1.808-.905c.402.194.812.362,1.227.503l.638,1.923c.136.408.518.685.949.685h4c.431,0,.813-.276.949-.685l.638-1.923c.415-.141.825-.309,1.227-.503l1.808.905c.386.192.851.117,1.155-.188l2.83-2.83c.304-.305.38-.77.188-1.154l-.904-1.81c.194-.403.362-.813.502-1.227l1.923-.638c.409-.136.685-.519.685-.949v-4c0-.431-.276-.813-.685-.949l-1.923-.638c-.14-.413-.308-.823-.502-1.227l.904-1.81c.192-.385.117-.85-.188-1.154l-2.83-2.83c-.215-.216-.51-.31-.801-.282-.019-.241-.047-.471-.09-.681-.428-2.473-2.172-4.531-4.552-5.372-.305-.107-.645-.062-.911.127-.265.188-.422.492-.422.816v4.032l-1,.5-1-.5ZM40.683,31.127l-.808,1.616c-.146.292-.14.636.015.922.318.59.566,1.197.737,1.806.09.32.333.574.647.679l1.725.572v2.557l-1.725.572c-.315.104-.558.358-.647.679-.171.608-.419,1.216-.737,1.806-.155.286-.16.63-.015.922l.808,1.616-1.811,1.811-1.615-.809c-.292-.146-.637-.141-.924.015-.584.316-1.192.564-1.806.737-.319.091-.573.333-.678.647l-.572,1.726h-2.557l-.572-1.726c-.104-.314-.358-.557-.678-.647-.614-.173-1.222-.421-1.806-.737-.287-.155-.631-.16-.924-.015l-1.615.809-1.811-1.811.808-1.616c.146-.292.14-.636-.015-.922-.318-.59-.566-1.197-.737-1.806-.09-.32-.333-.574-.647-.679l-1.725-.572v-2.557l1.725-.572c.315-.104.558-.358.647-.679.171-.608.419-1.216.737-1.806.155-.286.16-.63.015-.922l-.808-1.616,1.811-1.811.093.046c.339,1.336,1.071,2.539,2.09,3.461-1.443,1.312-2.31,3.187-2.31,5.176,0,2.876,1.797,5.497,4.456,6.518.793.32,1.65.482,2.544.482.718,0,1.434-.109,2.138-.329,2.908-.94,4.862-3.621,4.862-6.671,0-1.993-.866-3.865-2.309-5.171,1.034-.932,1.762-2.128,2.095-3.469l.087-.043,1.811,1.811ZM27,38c0-1.504.689-2.919,1.83-3.859v7.716c-1.13-.932-1.83-2.343-1.83-3.857ZM34.83,34.055c.047-.021.087-.047.132-.068,1.266.926,2.038,2.417,2.038,4.013,0,1.682-.838,3.201-2.17,4.117v-8.062ZM34.447,27.545c.339-.17.553-.516.553-.895v-2.994c1,.751,1.699,1.865,1.92,3.146.054.259.08.537.08.849,0,1.789-.926,3.403-2.481,4.32-.296.176-.634.327-1.004.45-.409.136-.685.519-.685.949v9.551c-.675.112-1.355.087-2-.071v-9.61c0-.409-.249-.776-.628-.929-.262-.104-.504-.223-.73-.356-1.524-.883-2.471-2.531-2.471-4.305,0-.312.026-.59.085-.88.218-1.258.915-2.366,1.915-3.114v2.994c0,.379.214.725.553.895l2,1c.281.141.613.141.895,0l2-1Z"/>
</svg>