<?xml version="1.0" encoding="UTF-8"?>
<svg id="Outline" xmlns="http://www.w3.org/2000/svg" version="1.1" viewBox="0 0 64 64">
  <!-- Generator: Adobe Illustrator 29.3.1, SVG Export Plug-In . SVG Version: 2.1.0 Build 151)  -->
  <path d="M32,33c-5.51367,0-10,4.48633-10,10s4.48633,10,10,10,10-4.48633,10-10-4.48633-10-10-10ZM32,51c-4.41113,0-8-3.58887-8-8s3.58887-8,8-8,8,3.58887,8,8-3.58887,8-8,8Z"/>
  <path d="M34.28906,40.37793l-1.39258-2.82031c-.33594-.68359-1.45703-.68359-1.79297,0l-1.39258,2.82031-3.11133.45215c-.37695.05469-.68945.31836-.80762.67969-.11719.3623-.01953.75977.25293,1.02539l2.25195,2.19531-.53125,3.10059c-.06445.375.08984.75391.39746.97754.30957.22461.71875.25391,1.05273.07617l2.78418-1.46289s2.78418,1.46289,2.7842,1.4629c.33522.17772.74724.14566,1.05271-.07618.30762-.22363.46191-.60254.39746-.97754l-.53125-3.10059,2.25195-2.19531c.27246-.26562.37012-.66309.25293-1.02539-.11816-.36133-.43066-.625-.80762-.67969l-3.11133-.45215ZM33.93066,43.66602c-.23535.22949-.34277.56055-.28711.88477l.27734,1.62109-1.45605-.76465c-.14551-.07715-.30469-.11523-.46484-.11523s-.31934.03809-.46484.11523l-1.45605.76465.27734-1.62109c.05566-.32422-.05176-.65527-.28711-.88477l-1.17773-1.14844,1.62695-.23633c.32617-.04688.60742-.25195.75293-.54688l.72852-1.47559.72852,1.47559c.14551.29492.42676.5.75293.54688l1.62695.23633-1.17773,1.14844Z"/>
  <path d="M44,13.09998v-3.09998c0-1.65002-1.34998-3-3-3h-18c-1.65002,0-3,1.34998-3,3v3.09998c-2.28003.47003-4,2.48999-4,4.90002v6c0,.54999.45001,1,1,1h3v10.82996c-1.26001,2.10004-2,4.55005-2,7.17004,0,7.71997,6.28003,14,14,14s14-6.28003,14-14c0-2.62-.73999-5.07001-2-7.17004v-10.82996h3c.54999,0,1-.45001,1-1v-6c0-2.41003-1.71997-4.42999-4-4.90002ZM38,9h3c.54999,0,1,.45001,1,1v9h-4v-10ZM28,9h8v10h-8v-10ZM22,10c0-.54999.45001-1,1-1h3v10h-4v-9ZM18,18c0-1.29999.84003-2.42004,2-2.83002v3.83002h-2v-1ZM32,55c-6.62,0-12-5.38-12-12s5.38-12,12-12,12,5.38,12,12-5.38,12-12,12ZM22,33.21997v-8.21997h4v5.37c-1.5.70996-2.84998,1.67999-4,2.84998ZM28,29.58997v-4.58997h8v4.58997c-1.27002-.38-2.60999-.58997-4-.58997s-2.72998.20996-4,.58997ZM38,30.37v-5.37h4v8.21997c-1.15002-1.16998-2.5-2.14001-4-2.84998ZM46,23h-28v-2h28v2ZM46,19h-2v-3.83002c1.15997.40997,2,1.53003,2,2.83002v1Z"/>
</svg>