<?xml version="1.0" encoding="UTF-8"?>
<svg id="Outline" xmlns="http://www.w3.org/2000/svg" version="1.1" viewBox="0 0 64 64">
  <!-- Generator: Adobe Illustrator 29.5.1, SVG Export Plug-In . SVG Version: 2.1.0 Build 141)  -->
  <path d="M54.78927,19.0191c-.13995-.12994-.28998-.25995-.42999-.37994.09003-.49005.15002-.99005.15002-1.5.01001-2.11005-.81-4.11005-2.32001-5.62006-1.92999-1.91998-4.60999-2.64996-7.10999-2.17999-.04004-.03998-.07001-.08997-.11005-.13-1.5-1.48999-3.5-2.29999-5.45996-2.19995-1.70001.07996-3.20001.81-4.22998,2.06l-1.84003,2.20996c-3,3.65002-6.19,7.19-9.47998,10.52002-.39001.39001-.39001,1.02002.00995,1.40997.19.19.45001.29004.70001.29004.26001,0,.52002-.10004.71002-.29999,3.33002-3.37006,6.56-6.95001,9.59998-10.64001l1.84003-2.21002c.66998-.81,1.65997-1.28998,2.77997-1.33997,1.14001-.06,2.32001.32996,3.32001,1.07996-.70001.37-1.35999.84003-1.95996,1.42999l-2.35004,2.35004c-.91998.10999-1.76996.39001-2.45996.83997-1.46002.93005-2.41003,2.42004-2.64001,4.08002-1.23999.16998-2.38.72998-3.28003,1.63-.88995.90002-1.45996,2.03998-1.63,3.27002-1.22998.17999-2.38.73999-3.26996,1.63995-.90002.89001-1.47003,2.04004-1.64001,3.27002-1.22998.16998-2.37.73999-3.27002,1.64001-.89996.89001-1.45996,2.02997-1.63,3.27002-1.45996.19995-2.78998.95996-3.72998,2.13995-.64001.81-1.03998,1.84003-1.16998,2.95001l-2.37,2.37c-.58002.58002-1.06,1.23999-1.42999,1.95001-1.43005-1.90002-1.48004-4.40002-.01001-5.87.08997-.09003.17999-.15002.26996-.22998l2.21002-1.84003c3.46002-2.84998,6.81-5.85999,9.97998-8.92999.39001-.39001.40002-1.02002.02002-1.41998-.39001-.39001-1.02002-.40002-1.41998-.02002-3.12,3.03998-6.44,6.01001-9.85999,8.83002l-2.20001,1.82996c-.14001.11005-.27002.23004-.41003.36005-2.41998,2.42999-2.17999,6.62.54004,9.33997.03998.04999.08997.08002.13.12-.09003.48004-.14001.98004-.14001,1.48999-.01001,2.11005.82001,4.11005,2.32001,5.61005,1.51001,1.51001,3.54999,2.32996,5.63,2.32996.48999,0,.98999-.06,1.48999-.15997.12.15002.25.28998.38.42999,1.40997,1.40002,3.28998,2.21002,5.15997,2.21002,1.22003,0,2.39001-.35004,3.37-1.01001,11.23999-7.65002,20.81-17.22003,28.44-28.44.66003-.97998,1.01001-2.15002,1.01001-3.37,0-1.87-.81-3.75-2.21002-5.16003ZM16.61929,36.8991c.72998-.91998,1.81-1.44995,2.97003-1.44995.26996,0,.52997-.10004.70996-.30005l.13-.12c.19-.19.29999-.45001.29999-.71997,0-1,.39001-1.95001,1.10004-2.66003.70996-.70996,1.65997-1.09998,2.66998-1.09998.26001,0,.57001-.15997.76001-.34998l.08002-.08002c.19-.19.29999-.45001.29999-.71002,0-1.01001.39001-1.95996,1.09998-2.66998.71002-.71002,1.66003-1.09998,2.66003-1.09998.26996,0,.51996-.10004.69995-.29004l.15002-.14001c.19-.19.28998-.44995.28998-.70996,0-1.01001.40002-1.95001,1.11005-2.67004.70996-.70996,1.64996-1.09998,2.65997-1.09998.26001,0,.51001-.09998.70001-.28998l.14996-.15002c.19-.19.29004-.44.29004-.70001,0-1.31.64996-2.47998,1.77997-3.19995.57001-.37006,1.32001-.56006,2.22003-.56006h.01001c.66998,0,1.20996.54004,1.20996,1.20001v.22003c0,.65997-.53998,1.20001-1.20001,1.20001h-.25c-.26996,0-.59998.17999-.77997.37l-.07001.07001c-.19.18994-.28998.43994-.28998.69995,0,1.01001-.39001,1.95001-1.11005,2.66003-.70996.71997-1.64996,1.10999-2.65997,1.10999-.27002,0-.57001.15997-.76001.34998l-.08002.08002c-.18994.17999-.29999.44-.29999.71002,0,1-.38995,1.95001-1.09998,2.65997-.71002.71002-1.66003,1.10999-2.66998,1.10999-.26001,0-.52002.10004-.70001.29004l-.14001.14001c-.19.19-.29999.44-.29999.70996,0,1-.39001,1.95001-1.10004,2.66003-.70996.70996-1.65997,1.09998-2.65997,1.09998-.26001,0-.52002.10999-.70001.28998l-.15997.15002c-.17999.19-.28003.44-.28003.70001,0,1.01001-.39001,1.95001-1.10999,2.66998-.71002.71002-1.65002,1.09998-2.65997,1.09998-.26001,0-.51001.10004-.70001.29004l-.14001.14001c-.19.17999-.29999.44-.29999.70996v.20001c0,.69-.56,1.25-1.26001,1.25h-.10999c-.69,0-1.26001-.56-1.26001-1.25,0-.97998.28998-1.87.79999-2.52002ZM54.32931,26.42913c-7.48004,11.01001-16.87,20.39996-27.90002,27.89996-1.71002,1.15002-4.33002.71002-5.98999-.95996-1.03998-1.03003-1.63-2.40002-1.63-3.73999,0-1.22003.47998-2.28003,1.34998-3l2.22003-1.83002c6.01001-4.97003,11.70001-10.38,16.90997-16.09003.37-.39996.34003-1.03998-.07001-1.40997-.39996-.37-1.03998-.34003-1.40997.07001-5.15002,5.63-10.77002,10.96997-16.71002,15.89001l-2.21997,1.82996c-1.31,1.08002-2.07001,2.73999-2.07001,4.54004,0,.97998.22003,1.95996.64001,2.87-1.66998.07996-3.31-.52002-4.51001-1.72003-1.13-1.13-1.75-2.62-1.73999-4.20001,0-.56.08002-1.09998.21997-1.60999v-.01001c.27002-.95996.79004-1.84998,1.52002-2.57996l1.33002-1.34003c.57001.97003,1.60999,1.63,2.81,1.63h.10999c1.59003,0,2.91998-1.14001,3.20001-2.65002,1.23999-.16998,2.38-.72998,3.27997-1.62994.90002-.90002,1.46002-2.04004,1.63-3.27002,1.23999-.16998,2.38-.73999,3.28003-1.64001.88995-.89001,1.45996-2.02997,1.63-3.27002,1.22998-.16998,2.37-.73999,3.26996-1.63.90002-.89996,1.46002-2.03998,1.64001-3.27997,1.22998-.16998,2.37-.72998,3.27002-1.63.89001-.90002,1.45996-2.02997,1.63-3.27002,1.51001-.25995,2.64996-1.57996,2.64996-3.14996v-.22003c0-1.17999-.64996-2.20996-1.62-2.76001l1.33002-1.32996c2.32001-2.32001,6.08002-2.32001,8.40002,0,1.12994,1.12,1.73999,2.60999,1.72998,4.20001,0,.09998-.01001.19995-.02002.29999-1-.45001-2.08997-.67999-3.16998-.62-1.70001.07996-3.20001.81-4.22998,2.06l-1.83002,2.22998c-.91998,1.10999-1.85004,2.20001-2.79004,3.28003-.37.41998-.31995,1.04999.09003,1.40997.41998.37,1.04999.32001,1.40997-.09003.96002-1.09998,1.91003-2.20996,2.83002-3.32996l1.83002-2.22003c.66998-.81,1.65997-1.28998,2.78998-1.33997,1.41003-.07001,2.86005.51996,3.95001,1.62,1.03998,1.02997,1.63,2.39996,1.63,3.73999,0,.82001-.22998,1.59998-.66998,2.25Z"/>
  <path d="M51.02371,24.18273c-7.21094,10.60352-16.24219,19.63379-26.84277,26.8418-.45605.31055-.5752.93262-.26465,1.38965.19336.28418.50781.4375.82812.4375.19336,0,.38965-.05566.56152-.17285,10.80859-7.35059,20.01855-16.55957,27.37207-27.37109.31055-.45703.19238-1.0791-.26465-1.38965-.45508-.31055-1.0791-.19043-1.38965.26465Z"/>
</svg>