<?xml version="1.0" encoding="UTF-8"?>
<svg id="Outline" xmlns="http://www.w3.org/2000/svg" version="1.1" viewBox="0 0 64 64">
  <!-- Generator: Adobe Illustrator 29.5.1, SVG Export Plug-In . SVG Version: 2.1.0 Build 141)  -->
  <path d="M18,33c-.553,0-1,.448-1,1v8c0,.552.447,1,1,1,2.757,0,5-2.243,5-5s-2.243-5-5-5ZM19,40.829v-5.657c1.164.413,2,1.525,2,2.829s-.836,2.416-2,2.829Z"/>
  <path d="M30,35c.553,0,1-.448,1-1s-.447-1-1-1h-4c-.553,0-1,.448-1,1v8c0,.552.447,1,1,1h4c.553,0,1-.448,1-1s-.447-1-1-1h-3v-2h3c.553,0,1-.448,1-1s-.447-1-1-1h-3v-2h3Z"/>
  <path d="M36,33c-1.654,0-3,1.346-3,3v6c0,.552.447,1,1,1s1-.448,1-1v-2h2v2c0,.552.447,1,1,1s1-.448,1-1v-6c0-1.654-1.346-3-3-3ZM35,38v-2c0-.551.448-1,1-1s1,.449,1,1v2h-2Z"/>
  <path d="M46,41h-3v-7c0-.552-.447-1-1-1s-1,.448-1,1v8c0,.552.447,1,1,1h4c.553,0,1-.448,1-1s-.447-1-1-1Z"/>
  <path d="M47.92,22.608c-.149-.349-.483-.584-.862-.606-.381-.013-.737.172-.926.502l-2.822,4.938-.146-.511c-.836-2.921-2.634-5.534-5.063-7.355-2.64-1.98-4.363-4.997-4.728-8.277l-.379-3.409c-.049-.434-.373-.787-.801-.871-.432-.086-.862.12-1.071.502l-1.212,2.221c-2.787,5.111-4.435,10.801-4.821,16.601-1.832-2.682-2.633-5.936-2.22-9.235l.123-.983c.055-.435-.181-.854-.579-1.035-.398-.182-.869-.081-1.16.246-5.322,5.987-8.253,13.696-8.253,21.706v.958c0,5.203,2.062,10.059,5.808,13.673,3.575,3.45,8.233,5.327,13.185,5.327.232,0,.466-.004.699-.012,10.096-.359,18.309-9.07,18.309-19.419,0-5.157-1.03-10.177-3.08-14.961ZM32.621,54.989c-4.661.177-9.075-1.522-12.425-4.754-3.351-3.234-5.196-7.579-5.196-12.234v-.958c0-6.458,2.029-12.707,5.766-17.902.084,3.955,1.674,7.714,4.527,10.568.286.287.716.373,1.09.217.373-.155.617-.52.617-.924,0-6.157,1.505-12.271,4.358-17.724l.026.243c.426,3.827,2.436,7.347,5.517,9.656,2.082,1.562,3.623,3.801,4.339,6.305l.798,2.794c.11.387.442.67.842.718.395.045.788-.147.988-.497l2.97-5.196c1.436,3.936,2.162,8.054,2.162,12.269,0,9.285-7.348,17.1-16.379,17.42Z"/>
</svg>