<?xml version="1.0" encoding="UTF-8"?>
<svg id="Outline" xmlns="http://www.w3.org/2000/svg" version="1.1" viewBox="0 0 48 48">
  <!-- Generator: Adobe Illustrator 29.5.1, SVG Export Plug-In . SVG Version: 2.1.0 Build 141)  -->
  <path d="M31.17,38.76c.59.14,1.2.24,1.83.24,4.41,0,8-3.59,8-8,0-3.74-2.57-6.92-6.12-7.77l.12-1.13c.02-.28-.07-.56-.26-.77-.19-.21-.46-.33-.74-.33H10c-.28,0-.55.12-.74.33-.19.21-.28.49-.26.77l1.01,10.05c.37,3.74,2.41,6.92,5.34,8.85h-7.35c-.55,0-1,.45-1,1s.45,1,1,1h28c.55,0,1-.45,1-1s-.45-1-1-1h-7.35c.94-.62,1.79-1.38,2.52-2.24ZM33.99,32.15l.27-2.7c.45.37.74.93.74,1.55,0,.78-.45,1.45-1.1,1.78.03-.21.07-.42.09-.63ZM37,31c0-1.66-1.04-3.1-2.53-3.7l.21-2.05c2.52.73,4.32,3.04,4.32,5.75,0,3.31-2.69,6-6,6-.19,0-.37-.03-.56-.04.36-.63.67-1.3.91-2,2.04-.18,3.65-1.88,3.65-3.96ZM22,41c-5.18,0-9.48-3.89-10-9.05l-.9-8.95h21.8l-.9,8.95c-.52,5.16-4.82,9.05-10,9.05Z"/>
  <path d="M10,15c0,2.206,1.794,4,4,4,.553,0,1-.448,1-1s-.447-1-1-1c-1.103,0-2-.897-2-2,0-.333.091-.661.27-.976.264-.464.117-1.054-.334-1.339-.586-.371-.936-1.001-.936-1.685,0-1.103.897-2,1.965-2,.024.003.123.014.147.016.468.026.861-.245,1.01-.669.28-.806,1.035-1.347,1.878-1.347.485,0,.957.185,1.331.521.379.343.959.343,1.338,0,.748-.673,1.914-.673,2.662,0,.379.343.959.343,1.338,0,.748-.673,1.914-.673,2.662,0,.379.343.959.343,1.338,0,.374-.336.846-.521,1.331-.521.894,0,1.684.609,1.92,1.481.074.275.264.506.52.633.256.128.554.14.818.033,1.32-.529,2.742.5,2.742,1.853,0,.684-.35,1.314-.936,1.685-.451.286-.598.875-.334,1.339.179.314.27.643.27.976,0,1.103-.897,2-2,2-.553,0-1,.448-1,1s.447,1,1,1c2.206,0,4-1.794,4-4,0-.399-.061-.79-.182-1.169.751-.742,1.182-1.752,1.182-2.831,0-2.206-1.794-4-4-4-.177,0-.354.012-.528.036-.696-1.234-2.015-2.036-3.472-2.036-.705,0-1.394.19-2,.545-1.213-.71-2.787-.71-4,0-1.213-.71-2.787-.71-4,0-.606-.355-1.295-.545-2-.545-1.448,0-2.766.791-3.467,2.027-1.986.232-3.533,1.925-3.533,3.973,0,1.079.431,2.089,1.182,2.831-.121.379-.182.77-.182,1.169Z"/>
  <path d="M17.553,18.895c.466.234,1.095.045,1.342-.447.767-1.532.767-3.362,0-4.895-.486-.972-.486-2.133,0-3.105.247-.494.047-1.095-.447-1.342-.494-.247-1.094-.047-1.342.447-.767,1.533-.767,3.362,0,4.895.486.973.486,2.133,0,3.105-.247.494-.047,1.094.447,1.342Z"/>
  <path d="M21.553,18.895c.488.244,1.097.041,1.342-.447.767-1.532.767-3.362,0-4.895-.486-.972-.486-2.133,0-3.105.247-.494.047-1.095-.447-1.342s-1.094-.047-1.342.447c-.767,1.533-.767,3.362,0,4.895.486.973.486,2.133,0,3.105-.247.494-.047,1.094.447,1.342Z"/>
  <path d="M25.553,18.895c.49.245,1.096.043,1.342-.447.767-1.532.767-3.362,0-4.895-.486-.972-.486-2.133,0-3.105.247-.494.047-1.095-.447-1.342-.494-.247-1.094-.047-1.342.447-.767,1.533-.767,3.362,0,4.895.486.973.486,2.133,0,3.105-.247.494-.047,1.094.447,1.342Z"/>
</svg>