<?xml version="1.0" encoding="UTF-8"?>
<svg id="Outline" xmlns="http://www.w3.org/2000/svg" version="1.1" viewBox="0 0 48 48">
  <!-- Generator: Adobe Illustrator 29.5.1, SVG Export Plug-In . SVG Version: 2.1.0 Build 141)  -->
  <path d="M43,29.078c0-.692-.162-1.396-.47-2.036-.481-.993-1.279-1.76-2.227-2.272.457-.952.696-1.969.696-3.043,0-.933-.412-1.46-.757-1.738-1.168-.941-3.229-.493-6.35.187-2.747.598-6.167,1.342-9.894,1.342-3.631,0-6.991-.893-9.692-1.609-3.076-.815-5.106-1.355-6.39-.369-.609.469-.918,1.205-.918,2.188,0,1.072.239,2.089.695,3.04-.958.518-1.751,1.299-2.227,2.278-1.01,2.113-.337,4.508,1.564,5.915.336,6.027,7.058,10.047,16.968,10.047s16.617-4.011,16.966-10.027c1.28-.94,2.034-2.361,2.034-3.902ZM9,21.728c0-.307.053-.538.138-.603.502-.39,2.807.226,4.657.717,2.812.746,6.313,1.676,10.205,1.676,3.941,0,7.478-.77,10.319-1.388,1.788-.39,4.239-.922,4.655-.6,0,0,.025.051.025.197,0,.857-.217,1.666-.626,2.418-.776-.104-1.582-.071-2.373.162-7.739,2.253-16.263,2.253-23.998,0-.518-.153-1.06-.23-1.613-.23-.261,0-.519.018-.772.053-.404-.748-.617-1.552-.617-2.403ZM24,41.008c-8.832,0-15-3.502-15-8.516,0-1.032.232-1.308.332-1.378.111-.079.28-.113.494-.113.882,0,2.528.587,4.015,1.117,2.8.997,6.283,2.239,10.159,2.239s7.385-1.101,10.194-1.985c1.887-.595,4.026-1.271,4.566-.872.149.109.239.48.239.992,0,5.014-6.168,8.516-15,8.516ZM40.537,30.569c-.16-.264-.347-.501-.594-.682-1.355-.993-3.45-.335-6.35.578-2.679.843-6.012,1.893-9.594,1.893-3.53,0-6.833-1.178-9.487-2.124-2.854-1.018-4.919-1.75-6.333-.754-.342.241-.593.578-.786.981-.455-.772-.528-1.703-.125-2.546.395-.812,1.153-1.41,2.056-1.679.022-.004.041-.016.063-.021.32-.089.656-.137,1.001-.137.361,0,.713.05,1.051.149,8.102,2.358,17.022,2.359,25.122,0,1.645-.482,3.475.258,4.166,1.684.178.37.271.774.271,1.168,0,.535-.17,1.043-.463,1.491Z"/>
  <path d="M16.39,11.551c-.522,1.219-.522,2.562-.002,3.781.521,1.219,1.491,2.146,2.731,2.611l2.668,1.001c.391.147.884.022,1.151-.337.267-.355.267-.844,0-1.199l-.988-1.319c-.642-.854-.743-1.98-.265-2.938,1.002-2.004.499-4.406-1.222-5.842l-2.484-2.07c-.326-.271-.786-.309-1.152-.091-.364.217-.552.64-.469,1.056l.568,2.84c.111.561.052,1.133-.173,1.656l-.364.851ZM18.227,12.339l.364-.85c.385-.897.487-1.878.296-2.837l-.013-.062.308.257c1.006.838,1.299,2.24.714,3.41-.596,1.192-.666,2.538-.237,3.747-.646-.288-1.151-.801-1.433-1.458-.304-.712-.304-1.496,0-2.207Z"/>
  <path d="M25.632,18.732c.477.857,1.814.548,1.872-.426l.1-1.646c.064-1.067.716-1.991,1.7-2.411,2.062-.88,3.232-3.037,2.849-5.244l-.554-3.186c-.072-.418-.4-.744-.819-.815-.422-.064-.835.131-1.04.501l-1.405,2.533c-.277.499-.693.897-1.203,1.15l-.828.412c-1.188.592-2.057,1.614-2.449,2.881-.392,1.267-.252,2.602.393,3.76,0,0,1.383,2.485,1.386,2.49ZM25.765,13.073c.229-.739.736-1.337,1.429-1.682l.828-.412c.874-.435,1.586-1.116,2.061-1.971l.031-.056.068.394c.225,1.29-.46,2.549-1.663,3.062-1.226.522-2.15,1.503-2.605,2.702-.307-.638-.36-1.355-.148-2.038Z"/>
</svg>