<?xml version="1.0" encoding="UTF-8"?>
<svg id="Outline" xmlns="http://www.w3.org/2000/svg" version="1.1" viewBox="0 0 64 64">
  <!-- Generator: Adobe Illustrator 29.5.1, SVG Export Plug-In . SVG Version: 2.1.0 Build 141)  -->
  <path d="M27,47c-1.654,0-3,1.346-3,3s1.346,3,3,3,3-1.346,3-3-1.346-3-3-3ZM27,51c-.551,0-1-.448-1-1s.449-1,1-1,1,.448,1,1-.449,1-1,1Z"/>
  <path d="M37,47c-1.654,0-3,1.346-3,3s1.346,3,3,3,3-1.346,3-3-1.346-3-3-3ZM37,51c-.551,0-1-.448-1-1s.449-1,1-1,1,.448,1,1-.449,1-1,1Z"/>
  <path d="M27,42c1.654,0,3-1.346,3-3s-1.346-3-3-3-3,1.346-3,3,1.346,3,3,3ZM27,38c.551,0,1,.448,1,1s-.449,1-1,1-1-.448-1-1,.449-1,1-1Z"/>
  <path d="M37,36c-1.654,0-3,1.346-3,3s1.346,3,3,3,3-1.346,3-3-1.346-3-3-3ZM37,40c-.551,0-1-.448-1-1s.449-1,1-1,1,.448,1,1-.449,1-1,1Z"/>
  <path d="M35,45c0-1.654-1.346-3-3-3s-3,1.346-3,3,1.346,3,3,3,3-1.346,3-3ZM32,46c-.551,0-1-.448-1-1s.449-1,1-1,1,.448,1,1-.449,1-1,1Z"/>
  <path d="M48,23h-1v-1c0-1.65-1.35-3-3-3h-1c-.55,0-1,.45-1,1s.45,1,1,1h1c.55,0,1,.45,1,1v1h-18c-.55,0-1,.45-1,1s.45,1,1,1h20v2h-30v-2h6c.55,0,1-.45,1-1s-.45-1-1-1h-4v-1c0-.55.45-1,1-1h19c.55,0,1-.45,1-1s-.45-1-1-1h-19c-1.65,0-3,1.35-3,3v1h-1c-.55,0-1,.45-1,1v4c0,.55.45,1,1,1h1.1l2.7,25.34c.18,1.52,1.46,2.66,2.98,2.66h18.44c1.52,0,2.8-1.14,2.98-2.66l2.7-25.34h1.1c.55,0,1-.45,1-1v-4c0-.55-.45-1-1-1ZM42.21,54.12c-.06.5-.48.88-.99.88h-18.44c-.51,0-.93-.38-.99-.88l-1.89-17.77c2.84-2.1,7.31-3.35,12.1-3.35s9.26,1.25,12.1,3.35l-1.89,17.77ZM44.35,34.09c-3.17-1.95-7.64-3.09-12.35-3.09s-9.18,1.14-12.35,3.09l-.54-5.09h25.78l-.54,5.09Z"/>
  <path d="M31.496,15.606c-.213.497.01,1.071.501,1.298.474.218,1.077.018,1.316-.468.756-1.526.754-3.349-.008-4.88-.484-.974-.483-2.137.003-3.109.247-.494.047-1.095-.447-1.342-.496-.246-1.095-.047-1.342.447-.766,1.531-.768,3.361-.002,4.901.482.969.483,2.126-.022,3.152Z"/>
  <path d="M35.555,15.606c-.213.497.01,1.071.501,1.298.471.217,1.079.013,1.316-.468.755-1.525.753-3.348-.008-4.88-.484-.974-.483-2.137.003-3.109.247-.494.046-1.095-.448-1.342-.496-.246-1.095-.047-1.341.447-.765,1.532-.767,3.361-.002,4.901.482.969.483,2.126-.022,3.152Z"/>
  <path d="M27.555,15.606c-.213.497.01,1.071.501,1.298.473.218,1.076.018,1.316-.468.755-1.525.753-3.348-.008-4.88-.484-.974-.483-2.137.003-3.109.247-.494.046-1.095-.448-1.342-.494-.246-1.094-.047-1.341.447-.765,1.532-.767,3.361-.002,4.901.482.969.483,2.126-.022,3.152Z"/>
</svg>