<?xml version="1.0" encoding="UTF-8"?>
<svg id="Outline" xmlns="http://www.w3.org/2000/svg" version="1.1" viewBox="0 0 64 64">
  <!-- Generator: Adobe Illustrator 29.5.1, SVG Export Plug-In . SVG Version: 2.1.0 Build 141)  -->
  <path d="M56.997,29.772c0-.76-.12-1.51-.36-2.23-.66-1.98-2.11-3.48-3.91-4.23-2.05-4.29-6.67-6.87-11.41-6.31l-1.52.18c-3.56.42-7.18.55-10.75.38-.53-.02-1.02.4-1.05.95-.02.55.4,1.02.95,1.05,3.69.17,7.42.04,11.09-.4l1.52-.18c3.35-.39,6.63,1.13,8.55,3.81h-.38c-1.1-.45-2.4-.23-3.28.66l-.46.47c-1.09-1.01-2.49-1.57-3.98-1.57h-.03c-1.5.01-2.91.58-3.99,1.61-2.25-2.11-5.77-2.09-8,.04-1.09-1.02-2.5-1.57-4.01-1.57-1.5.01-2.91.58-4,1.61-1.91-1.66-4.4-2.01-6.41-1.08-.54-.13-1.1-.2-1.64-.2h-.02c1.92-2.66,5.19-4.18,8.53-3.78l1.51.18c.33.04.65.08.98.1.56.02,1.03-.38,1.07-.93.03-.56-.38-1.03-.93-1.07-.29-.02-.57-.04-.87-.08l-1.52-.18c-4.75-.56-9.37,2.03-11.41,6.32-1.81.76-3.26,2.26-3.91,4.23-.6,1.83-.43,3.85.47,5.55.72,1.35,1.83,2.39,3.17,3.01-.51,1.7-.37,3.55.43,5.16.88,1.77,2.48,3.1,4.39,3.62,4.61,1.28,9.37,2.02,14.15,2.18.56.04,1.01-.42,1.03-.97s-.41-1.01-.97-1.03c-4.61-.16-9.22-.87-13.67-2.1-1.37-.38-2.51-1.32-3.14-2.59-.63-1.28-.7-2.77-.17-4.09.76-1.89,2.59-3.12,4.67-3.12.48,0,.95.06,1.39.18,8.43,2.33,17.35,2.33,25.78,0,2.5-.68,5.11.58,6.06,2.94.24.6.36,1.22.36,1.85,0,2.25-1.51,4.23-3.67,4.83-4.45,1.23-9.06,1.94-13.67,2.1-.56.02-.99.48-.97,1.03.02.54.46.97,1,.97h.03c4.78-.16,9.54-.9,14.15-2.18,3.02-.83,5.13-3.61,5.13-6.75,0-.69-.11-1.37-.31-2.03,2.4-1.12,4-3.58,4-6.34ZM14.707,26.192l.74-.75c1.58-1.6,3.87-1.12,5.31.19.46.41.96.47,1.22.47.29,0,.84-.06,1.31-.54.72-.72,1.68-1.13,2.7-1.13,1.01-.01,1.99.39,2.71,1.11.72.7,1.88.7,2.59-.02,1.48-1.5,3.91-1.51,5.41-.02.35.34.81.53,1.29.53h.01c.48,0,.94-.19,1.29-.54.72-.73,1.68-1.13,2.7-1.14,1.03-.04,1.99.39,2.71,1.11.35.34.8.53,1.28.53.29.01.83-.06,1.31-.54l.58-.59c.39-.39,1.02-.4,1.42-.01.19.19.29.44.29.71,0,.26-.1.52-.29.71l-.74.74c-1.58,1.61-3.87,1.12-5.31-.19-.46-.41-.96-.47-1.22-.47-.29-.03-.84.06-1.31.54-1.49,1.5-3.91,1.51-5.41.03-.35-.35-.81-.53-1.29-.53h-.01c-.49,0-.94.19-1.29.54-1.48,1.5-3.91,1.51-5.41.03-.35-.35-.81-.54-1.29-.54h-.01c-.48,0-.94.2-1.29.55-.72.72-1.68,1.13-2.7,1.13-1.03-.01-1.99-.39-2.71-1.11-.35-.34-.8-.53-1.28-.53-.29,0-.83.07-1.31.55l-.58.58c-.39.4-1.03.4-1.42.01-.39-.39-.39-1.02,0-1.41ZM52.147,34.302c-1.65-2.49-4.77-3.71-7.8-2.87-8.08,2.22-16.62,2.22-24.71,0-.62-.17-1.26-.26-1.92-.26-2.41,0-4.57,1.2-5.85,3.13-.96-.44-1.76-1.17-2.27-2.14-.65-1.22-.77-2.67-.34-3.99.49-1.48,1.62-2.6,3.01-3.11.04-.01.07-.03.11-.04.28-.1.58-.16.88-.21-1.13,1.18-1.12,3.06.05,4.21,1.17,1.17,3.07,1.16,4.24-.02l.46-.47c1.09,1.02,2.49,1.57,3.98,1.57h.03c1.5-.01,2.91-.58,3.99-1.61,2.25,2.11,5.77,2.09,8-.03,2.25,2.1,5.78,2.08,8.01-.05,2.45,2.13,5.84,2.14,7.95.01l.74-.75c.57-.57.88-1.32.87-2.12,0-.19-.02-.37-.05-.54,1.47.46,2.69,1.6,3.21,3.17.17.51.26,1.05.26,1.59,0,1.98-1.14,3.74-2.85,4.53Z"/>
</svg>