<?xml version="1.0" encoding="UTF-8"?>
<svg id="Outline" xmlns="http://www.w3.org/2000/svg" version="1.1" viewBox="0 0 64 64">
  <!-- Generator: Adobe Illustrator 29.5.1, SVG Export Plug-In . SVG Version: 2.1.0 Build 141)  -->
  <path d="M56,46.999h-1.114c.068-.329.114-.663.114-1,0-1.414-.596-2.686-1.542-3.597.362-.879.542-1.905.542-3.113,0-4.495-2.792-11.29-7-11.29-3.592,0-6.102,4.939-6.792,9.012-.07-.003-.138-.012-.208-.012-1.089,0-2.14.362-3,1.017-.86-.654-1.911-1.017-3-1.017-1.731,0-3.31.902-4.209,2.33-.689-.266-1.435-.386-2.202-.31-.777-1.796-2.575-3.021-4.589-3.021s-3.812,1.225-4.589,3.021c-2.612-.25-4.871,1.613-5.327,4.063-1.995.371-3.569,1.933-3.975,3.916h-1.109c-.552,0-1,.447-1,1s.448,1,1,1h1.307l2.757,7.352c.146.39.52.648.937.648h38c.417,0,.79-.259.937-.648l2.757-7.352h1.307c.552,0,1-.447,1-1s-.448-1-1-1ZM47,29.999c2.528,0,5,5.319,5,9.29,0,.794-.1,1.46-.285,2.032-.537-.198-1.11-.322-1.715-.322-.621,0-1.226.112-1.791.33-.899-1.428-2.479-2.33-4.209-2.33h-.021c-.485-.648-1.116-1.159-1.83-1.503.592-3.949,2.837-7.497,4.852-7.497ZM14,44.999c.552,0,1-.447,1-1,0-1.654,1.346-3,3-3,.241,0,.5.042.816.132.266.075.554.038.791-.105.238-.144.405-.379.462-.65.29-1.377,1.522-2.376,2.932-2.376s2.642.999,2.932,2.376c.057.271.224.507.462.65.237.144.524.181.791.105.315-.09.575-.132.816-.132.606,0,1.185.178,1.673.515.257.177.582.222.879.126.296-.098.531-.328.633-.623.417-1.207,1.548-2.018,2.814-2.018.854,0,1.673.378,2.245,1.036.38.438,1.13.438,1.51,0,.572-.658,1.391-1.036,2.245-1.036,1.073,0,2.068.589,2.597,1.537.196.351.585.55.981.507l.165-.02c1.314-.164,2.626.702,3.072,1.993.102.295.336.525.633.623.296.096.622.051.879-.126.489-.337,1.067-.515,1.673-.515,1.654,0,3,1.346,3,3,0,.346-.081.677-.197,1H11.184c.414-1.161,1.514-2,2.816-2ZM50.307,54.999H13.693l-2.25-6h41.114l-2.25,6Z"/>
  <path d="M32.24,32.853l-.658,1.951c-.213.632.284,1.319.948,1.319.222,0,.444-.074.626-.221l2.776-2.231c1.238-.995,1.994-2.415,2.129-3.997.135-1.583-.369-3.11-1.42-4.3l-.766-.868c-.505-.571-.821-1.274-.913-2.033l-.437-3.595c-.051-.421-.362-.764-.776-.855-.414-.09-.84.088-1.065.447l-2.139,3.43c-1.421,2.278-1.092,5.2.801,7.104,1.009,1.018,1.352,2.492.895,3.85ZM32.242,22.958l.64-1.026.095.783c.142,1.162.625,2.239,1.399,3.114l.766.868c.686.776,1.015,1.773.927,2.807-.088,1.032-.582,1.959-1.389,2.608l-.281.226c.212-1.729-.37-3.471-1.634-4.744-1.235-1.242-1.45-3.148-.522-4.636Z"/>
  <path d="M38.158,21.853l-.658,1.951c-.142.421.011.885.376,1.14.363.253.855.236,1.199-.041l2.776-2.231c1.238-.995,1.994-2.414,2.129-3.997.135-1.582-.37-3.109-1.42-4.3l-.766-.868c-.505-.571-.82-1.274-.913-2.033l-.438-3.595c-.051-.421-.362-.764-.776-.855-.416-.088-.84.088-1.065.447l-2.139,3.43c-1.421,2.278-1.091,5.2.801,7.104,1.009,1.018,1.353,2.492.895,3.85ZM38.159,11.958l.64-1.026.095.783c.142,1.162.625,2.24,1.399,3.114l.766.868c.686.777,1.015,1.773.927,2.807-.088,1.033-.582,1.959-1.389,2.608l-.281.226c.212-1.729-.37-3.471-1.634-4.744-1.235-1.242-1.45-3.148-.522-4.636Z"/>
  <path d="M19.912,23.027c-.626,1.46-.627,3.068-.003,4.529.624,1.46,1.786,2.571,3.273,3.129l3.335,1.251c.115.043.233.063.351.063.805,0,1.283-.958.8-1.6l-1.235-1.647c-.86-1.146-.996-2.654-.355-3.936,1.201-2.401.599-5.279-1.464-6.998l-3.105-2.588c-.326-.271-.787-.308-1.151-.091s-.552.64-.469,1.056l.71,3.551c.15.749.07,1.516-.23,2.217l-.456,1.063ZM21.75,23.815l.456-1.063c.46-1.075.583-2.25.353-3.397l-.154-.772.929.774c1.346,1.121,1.739,2.999.955,4.566-.802,1.604-.81,3.44-.067,5.017l-.338-.127c-.97-.363-1.729-1.089-2.136-2.042s-.407-2.003.001-2.955Z"/>
</svg>