<?xml version="1.0" encoding="UTF-8"?>
<svg id="Outline" xmlns="http://www.w3.org/2000/svg" version="1.1" viewBox="0 0 64 64">
  <!-- Generator: Adobe Illustrator 29.5.1, SVG Export Plug-In . SVG Version: 2.1.0 Build 141)  -->
  <path d="M56.51,26.505c-.73-1.48-2.15-2.48-3.73-2.79-.6-2.1-2.53-3.6-4.78-3.6h-19c-.55,0-1,.45-1,1s.45,1,1,1h19c1.15,0,2.16.65,2.66,1.62-.21.05-.42.08-.62.15-5.8,1.99-11.87,3-18.04,3s-12.24-1.01-18.03-2.99c-.21-.08-.42-.11-.63-.16.14-.27.31-.52.53-.74.58-.57,1.34-.88,2.13-.88h9c.55,0,1-.45,1-1s-.45-1-1-1h-9c-1.32,0-2.58.52-3.54,1.46-.6.61-1.03,1.34-1.26,2.14-1.58.32-3,1.34-3.71,2.79-.61,1.25-.65,2.65-.12,3.94.56,1.36,1.72,2.42,3.17,2.92.4.13.81.25,1.21.38-.49.96-.75,2.03-.75,3.14,0,3.86,3.14,7,7,7h25c.55,0,1-.45,1-1s-.45-1-1-1h-25c-2.76,0-5-2.24-5-5,0-1.33.52-2.59,1.47-3.54.94-.94,2.19-1.46,3.53-1.46h28c2.76,0,5,2.24,5,5,0,1.33-.52,2.59-1.47,3.54-.74.74-1.67,1.22-2.69,1.38-.54.09-.91.6-.83,1.15.09.54.59.91,1.15.83,1.44-.23,2.75-.91,3.79-1.95,1.32-1.33,2.05-3.08,2.05-4.95,0-1.13-.28-2.2-.75-3.14.4-.13.81-.25,1.21-.38,2.12-.73,3.54-2.64,3.54-4.76,0-.7-.17-1.43-.49-2.1ZM52.82,31.465c-.59.2-1.19.38-1.79.56-1.27-1.32-3.06-2.14-5.03-2.14h-28c-1.88,0-3.64.73-4.95,2.05-.03.03-.05.06-.08.09-.6-.18-1.2-.36-1.79-.56-.9-.31-1.62-.96-1.96-1.79-.31-.75-.29-1.56.07-2.29.68-1.4,2.41-2.17,4.03-1.6,6,2.06,12.29,3.1,18.68,3.1s12.68-1.04,18.69-3.1c1.55-.54,3.32.16,4.02,1.59.19.4.29.82.29,1.23,0,1.26-.88,2.41-2.18,2.86Z"/>
  <path d="M35.596,37.204c-2.287,1.009-4.906,1.009-7.193,0-.504-.222-1.095.007-1.318.511-.223.505.006,1.096.512,1.319,1.398.617,2.901.926,4.403.926s3.005-.309,4.403-.926c.506-.223.734-.813.512-1.319-.223-.504-.812-.733-1.318-.511Z"/>
  <path d="M23,34.885v2c0,.552.447,1,1,1s1-.448,1-1v-2c0-.552-.447-1-1-1s-1,.448-1,1Z"/>
  <path d="M39,34.885v2c0,.552.447,1,1,1s1-.448,1-1v-2c0-.552-.447-1-1-1s-1,.448-1,1Z"/>
</svg>