<?xml version="1.0" encoding="UTF-8"?>
<svg id="Outline" xmlns="http://www.w3.org/2000/svg" version="1.1" viewBox="0 0 64 64">
  <!-- Generator: Adobe Illustrator 29.5.1, SVG Export Plug-In . SVG Version: 2.1.0 Build 141)  -->
  <path d="M57,31.05046c0-2.38-1.19-4.47003-3.01001-5.73999,0-.03003.01001-.06.01001-.09003,0-1.85999-.73999-3.60999-2.03003-4.77997-1.12-1.02002-2.52997-1.5-3.95996-1.37006l-2.47998.23004c-8.98004.87-18.08002.87-27.07001,0l-2.5-.23004c-3.19-.25995-5.96002,2.58002-5.96002,6.15002,0,.03003.01001.06.01001.08002-.34003.23999-.66003.5-.95001.79999-1.33002,1.31-2.06,3.07001-2.06,4.95001,0,2.29999,1.15002,4.44,3.02002,5.75-.01001.14001-.02002.27997-.02002.41998,0,3.02002,1.92999,5.58002,4.59003,6.08002,5.77997,1.09998,11.58997,1.64996,17.40997,1.64996s11.63-.54999,17.40997-1.64996c2.66003-.5,4.59003-3.06,4.59003-6.08002,0-.14001-.01001-.27997-.02002-.42999.34003-.22998.66003-.48999.96002-.78998,1.33002-1.31,2.06-3.07001,2.06-4.95001ZM15.52002,21.05046c.09998,0,.19.01001.28998.01996l2.46002.23004c9.10999.87,18.34998.87,27.44995,0l2.47003-.23004c.87-.07996,1.73999.21002,2.42999.85004.66998.60999,1.12,1.45996,1.28998,2.39996-.60999-.16998-1.25-.26996-1.90997-.26996h-2.82001c-.64001-.5-1.33002-.85004-2.03998-1-1.47003-.32001-2.96002,0-4.14001.84998-1.72998-1.26001-4.27002-1.26001-6,0-1.72998-1.26001-4.27002-1.26001-6,0-1.72998-1.26001-4.27002-1.26001-6,0-1.03003-.75-2.31-1.08002-3.59998-.94-.90002.10999-1.78003.48999-2.56,1.09003h-2.84003c-.65997,0-1.29999.08997-1.90997.26996.34998-1.87,1.75-3.26996,3.42999-3.26996ZM46.62,26.64044c-.00014.8153-1.06805,1.38221-1.67999.77001l-.15002-.15002c-.19-.19-.46997-.31-.70996-.29999l-.17999.01001c-.26001,0-.51001.09998-.69.28998-1.17999,1.18005-3.24005,1.18005-4.42004,0-.17999-.19-.44-.29999-.69995-.29999h-.18005c-.25995,0-.51996.10999-.69995.29999-1.17999,1.18005-3.24005,1.18005-4.42004,0-.17999-.19-.44-.29999-.69995-.29999h-.18005c-.25995,0-.51996.10999-.69995.29999-1.17999,1.18005-3.24005,1.18005-4.42004,0-.17999-.19-.44-.29999-.69995-.29999h-.18005c-.25995,0-.51996.10999-.69995.29999-1.17999,1.18005-3.24005,1.18005-4.42004,0-.17999-.19-.42999-.28998-.69-.28998l-.17999-.01001c-.26996-.02997-.51996.10999-.70996.29999l-.12.12c-.37006.37006-.98004.37006-1.42004-.06995-.37-.37-.37-.98004,0-1.35004.58002-.57001,1.27002-.92999,1.95001-1.01001.96002-.10999,1.91003.21002,2.59003.89001.17999.19.44.29999.69995.29999h.18005c.25995,0,.51996-.10999.69995-.29999,1.17999-1.17999,3.24005-1.17999,4.42004,0,.17999.19.44.29999.69995.29999h.18005c.25995,0,.51996-.10999.69995-.29999,1.17999-1.17999,3.24005-1.17999,4.42004,0,.17999.19.44.29999.69995.29999h.18005c.25995,0,.51996-.10999.69995-.29999,1.17999-1.17999,3.24005-1.17999,4.42004,0,.17999.19.44.29999.69995.29999h.18005c.25995,0,.51996-.10999.69995-.29999.77002-.77002,1.84003-1.07001,2.92004-.83002.54999.12,1.10999.45001,1.63995.98004.17974.16969.2697.39916.27002.64997ZM49.03003,41.34044c-11.30005,2.15002-22.76001,2.15002-34.06006,0-1.71997-.33002-2.96997-2.06-2.96997-4.12,0-1.29999.5-2.51001,1.38-3.31.62-.56,1.37-.85999,2.14001-.85999.09998,0,.19,0,.28998.01001l2.47003.23999c9.09998.87,18.33997.87,27.43994,0l2.47003-.23999c.88-.08002,1.72998.21997,2.42999.84998.88.79999,1.38,2.01001,1.38,3.31,0,2.06-1.25,3.78998-2.96997,4.12ZM53.53003,34.58043c-.01001.02002-.03003.03003-.04004.04004-.34998-.83002-.87-1.59003-1.52997-2.19-1.11005-1.01001-2.52002-1.48999-3.96002-1.36005l-2.46002.24005c-8.98999.84998-18.08997.84998-27.07996,0l-2.46002-.24005c-1.45001-.12994-2.84998.35004-3.96002,1.36005-.66998.60999-1.17999,1.35999-1.52997,2.19995-.95001-.92999-1.51001-2.21997-1.51001-3.57996,0-1.34003.52002-2.59003,1.46997-3.54004.94-.94,2.19-1.45996,3.53003-1.45996h1.45001c-.04004.19-.06.39001-.06.58997,0,.78003.31,1.52002.94,2.15002.98999.98999,2.51996,1.13,3.65997.40997,1.73999,1.26001,4.27002,1.26001,6.01001,0,1.72998,1.26001,4.27002,1.26001,6,0,1.72998,1.26001,4.27002,1.26001,6,0,.87.63,1.90997.97003,3,.97003s2.12996-.34001,2.99995-.96999c.00606-.00439.73774.34752.8263.37158.31552.08572.6454.11741.97148.09365,1.53568-.11191,2.82226-1.49879,2.82226-3.03528,0-.18994-.02002-.38995-.06-.57996h1.44c2.76001,0,5,2.23999,5,5,0,1.33997-.52002,2.58997-1.46997,3.52997Z"/>
  <circle cx="32" cy="40.05046" r="1"/>
  <circle cx="28" cy="38.05046" r="1"/>
  <circle cx="36" cy="38.05046" r="1"/>
  <circle cx="40" cy="40.05046" r="1"/>
  <circle cx="44" cy="38.05046" r="1"/>
  <circle cx="24" cy="40.05046" r="1"/>
  <circle cx="20" cy="38.05046" r="1"/>
</svg>