<?xml version="1.0" encoding="UTF-8"?>
<svg id="Outline" xmlns="http://www.w3.org/2000/svg" version="1.1" viewBox="0 0 64 64">
  <!-- Generator: Adobe Illustrator 29.5.1, SVG Export Plug-In . SVG Version: 2.1.0 Build 141)  -->
  <path d="M17,33v8c0,.553.447,1,1,1,2.757,0,5-2.243,5-5s-2.243-5-5-5c-.553,0-1,.447-1,1ZM19,34.171c1.164.413,2,1.525,2,2.829s-.836,2.416-2,2.829v-5.658Z"/>
  <path d="M31,41c0-.553-.447-1-1-1h-3v-2h3c.553,0,1-.447,1-1s-.447-1-1-1h-3v-2h3c.553,0,1-.447,1-1s-.447-1-1-1h-4c-.553,0-1,.447-1,1v8c0,.553.447,1,1,1h4c.553,0,1-.447,1-1Z"/>
  <path d="M35,39h2v2c0,.553.447,1,1,1s1-.447,1-1v-6c0-1.654-1.346-3-3-3s-3,1.346-3,3v6c0,.553.447,1,1,1s1-.447,1-1v-2ZM36,34c.552,0,1,.448,1,1v2h-2v-2c0-.552.448-1,1-1Z"/>
  <path d="M47,41c0-.553-.447-1-1-1h-3v-7c0-.553-.447-1-1-1s-1,.447-1,1v8c0,.553.447,1,1,1h4c.553,0,1-.447,1-1Z"/>
  <path d="M35.612,21.244c-.233.051-.435.182-.576.361-.101-.489-.253-.968-.457-1.427l-.704-1.585c-.133-.298-.402-.513-.722-.575-.325-.064-.651.035-.886.261-1.005.967-4.282,4.308-4.282,6.706,0,2.765,2.25,5.015,5.015,5.015s5.015-2.25,5.015-5.015c0-.919-.448-2.01-1.369-3.335-.231-.332-.642-.49-1.033-.406ZM33,28c-1.662,0-3.015-1.353-3.015-3.015,0-.913,1.243-2.682,2.661-4.23l.104.236c.452,1.016.553,2.17.283,3.25-.089.354.022.729.29.976.27.248.651.332.996.215.616-.205,1.154-.565,1.572-1.031.098.277.122.466.122.585,0,1.662-1.353,3.015-3.015,3.015Z"/>
  <path d="M25,30.069c.591,0,1.069-.479,1.069-1.069v-8c0-.591-.479-1.069-1.069-1.069s-1.069.479-1.069,1.069v2.931h-2.861v-2.931c0-.591-.479-1.069-1.069-1.069s-1.069.479-1.069,1.069v8c0,.591.479,1.069,1.069,1.069s1.069-.479,1.069-1.069v-2.931h2.861v2.931c0,.591.479,1.069,1.069,1.069Z"/>
  <path d="M42,30.069c.591,0,1.069-.479,1.069-1.069v-6.931h.931c.591,0,1.069-.479,1.069-1.069s-.479-1.069-1.069-1.069h-4c-.591,0-1.069.479-1.069,1.069s.479,1.069,1.069,1.069h.931v6.931c0,.591.479,1.069,1.069,1.069Z"/>
  <path d="M24.331,14.522c.128,0,.259-.024.384-.076,1.145-.477,2.342-.84,3.56-1.082.542-.107.894-.633.786-1.175-.106-.543-.637-.898-1.175-.786-1.348.267-2.673.669-3.938,1.195-.98.408-.685,1.924.384,1.924Z"/>
  <path d="M17.85,18.86c.255,0,.511-.092.707-.288.88-.881,1.848-1.677,2.876-2.365.459-.308.581-.929.274-1.388-.309-.46-.929-.582-1.388-.274-1.137.762-2.206,1.642-3.177,2.613-.618.619-.16,1.699.707,1.702Z"/>
  <path d="M47.782,21.417c.303.452.938.576,1.388.272.458-.308.58-.929.272-1.388-.763-1.136-1.643-2.204-2.616-3.174-.391-.389-1.023-.39-1.414.002-.39.392-.389,1.024.002,1.414.881.879,1.678,1.845,2.368,2.873Z"/>
  <path d="M49.546,24.695c.478,1.146.843,2.344,1.085,3.558.095.476.513.805.979.805.064,0,.131-.006.196-.02.542-.107.894-.635.785-1.176-.268-1.344-.672-2.668-1.2-3.937-.213-.51-.799-.752-1.308-.538-.51.212-.751.798-.538,1.308Z"/>
  <path d="M39.248,14.431c1.145.473,2.25,1.062,3.285,1.754.456.304,1.083.177,1.387-.277.307-.459.183-1.08-.277-1.387-1.144-.764-2.365-1.415-3.631-1.938-.509-.21-1.095.031-1.306.542s.031,1.096.542,1.306Z"/>
  <path d="M31.979,13.001c.013,0,.027,0,.044,0,1.234,0,2.467.121,3.663.357.065.013.131.019.194.019.468,0,.887-.33.98-.807.106-.542-.246-1.067-.788-1.175-1.351-.266-2.729-.447-4.131-.393-.534.02-.962.46-.962.999,0,.553.447,1,.999,1Z"/>
  <path d="M16.241,42.617c-.309-.459-.932-.577-1.388-.271-.458.309-.579.93-.271,1.388.764,1.135,1.646,2.201,2.623,3.17.366.363,1.033.38,1.414-.006.389-.392.387-1.024-.006-1.414-.883-.877-1.682-1.842-2.373-2.867Z"/>
  <path d="M50.882,38.687c-.507-.207-1.095.033-1.306.544-.474,1.148-1.062,2.254-1.749,3.285-.307.46-.182,1.081.277,1.387.456.302,1.083.179,1.387-.277.76-1.141,1.411-2.363,1.935-3.633.21-.511-.033-1.095-.544-1.306Z"/>
  <path d="M39.323,49.538c-1.145.478-2.342.845-3.557,1.089-1.128.226-.981,1.98.195,1.981.065,0,.131-.006.197-.02,1.346-.27,2.67-.675,3.937-1.204.51-.213.75-.799.537-1.309-.213-.511-.802-.749-1.309-.537Z"/>
  <path d="M45.47,45.399c-.877.882-1.843,1.68-2.87,2.37-.799.537-.406,1.83.559,1.83.192,0,.386-.055.558-.17,1.135-.765,2.201-1.646,3.171-2.62.39-.392.388-1.024-.004-1.414s-1.024-.387-1.414.004Z"/>
  <path d="M52,30.979c-.553,0-1,.469-1,1.021,0,1.233-.119,2.468-.354,3.666-.106.542.247,1.067.789,1.174.514.101,1.067-.245,1.174-.789.259-1.325.391-2.688.391-4.051v-.042c0-.553-.447-.979-1-.979Z"/>
  <path d="M24.788,49.584c-1.146-.471-2.252-1.058-3.288-1.746-.462-.306-1.081-.18-1.387.279-.306.46-.181,1.081.279,1.387,1.146.761,2.369,1.41,3.636,1.93.125.052.253.075.38.075,1.071,0,1.369-1.52.38-1.925Z"/>
  <path d="M13,32c0-1.245.121-2.492.361-3.706.106-.542-.246-1.067-.788-1.175-.542-.106-1.067.246-1.175.788-.265,1.341-.398,2.718-.398,4.093v.084c0,.553.447.958,1,.958s1-.489,1-1.042Z"/>
  <path d="M14.47,39.342c-.479-1.144-.847-2.34-1.092-3.556-.109-.542-.637-.894-1.178-.783-.542.109-.893.637-.783,1.178.271,1.347.678,2.67,1.209,3.934.211.502.808.749,1.309.535.51-.213.749-.8.535-1.309Z"/>
  <path d="M32,51c-1.229,0-2.455-.117-3.646-.349-.541-.107-1.066.248-1.172.791-.105.542.249,1.066.791,1.172,1.316.256,2.671.386,4.027.386h.063c.553,0,.969-.447.969-1s-.479-1-1.032-1Z"/>
  <path d="M13.132,25.274c.482.199,1.096-.033,1.307-.541.474-1.143,1.064-2.247,1.756-3.283.308-.459.184-1.08-.275-1.387-.462-.31-1.081-.183-1.387.275-.766,1.145-1.418,2.365-1.941,3.629-.211.511.031,1.096.541,1.307Z"/>
  <path d="M32,7c-13.785,0-25,11.215-25,25s11.215,25,25,25,25-11.215,25-25S45.785,7,32,7ZM32,55c-12.683,0-23-10.317-23-23s10.317-23,23-23,23,10.317,23,23-10.317,23-23,23Z"/>
</svg>