<?xml version="1.0" encoding="UTF-8"?>
<svg id="Outline" xmlns="http://www.w3.org/2000/svg" version="1.1" viewBox="0 0 64 64">
  <!-- Generator: Adobe Illustrator 29.5.1, SVG Export Plug-In . SVG Version: 2.1.0 Build 141)  -->
  <path d="M10.548,22.365c.526.174,1.023.331,1.51.482-.673.876-1.057,1.927-1.057,3.039,0,2.757,2.243,5,5,5h25c.553,0,1-.448,1-1s-.447-1-1-1h-25c-1.654,0-3-1.346-3-3,0-.795.313-1.551.872-2.118.577-.569,1.333-.882,2.128-.882h32c1.654,0,3,1.346,3,3,0,.795-.313,1.551-.872,2.118-.577.569-1.333.882-2.128.882h-3c-.553,0-1,.448-1,1s.447,1,1,1h3c1.323,0,2.578-.518,3.542-1.468.94-.954,1.458-2.208,1.458-3.532,0-1.148-.404-2.194-1.057-3.038.489-.152.99-.31,1.522-.486,2.114-.728,3.535-2.639,3.535-4.755,0-.705-.169-1.429-.492-2.102-.729-1.482-2.149-2.479-3.724-2.79-.605-2.095-2.534-3.598-4.784-3.598H16.001c-1.323,0-2.578.518-3.537,1.462-.604.604-1.03,1.335-1.259,2.142-1.585.32-3.001,1.333-3.713,2.787-.612,1.253-.655,2.651-.122,3.938.562,1.356,1.717,2.42,3.178,2.921ZM16.001,11.115h32c1.15,0,2.161.654,2.66,1.622-.209.044-.419.081-.623.152-5.798,1.988-11.866,2.996-18.036,2.996s-12.238-1.008-18.031-2.994c-.208-.072-.42-.109-.631-.154.138-.27.315-.521.534-.74.577-.569,1.333-.882,2.128-.882ZM9.289,16.385c.683-1.396,2.415-2.166,4.027-1.604,6.007,2.06,12.293,3.104,18.685,3.104s12.678-1.044,18.688-3.105c1.552-.537,3.318.169,4.021,1.599.19.396.291.82.291,1.227,0,1.263-.879,2.414-2.174,2.86-1.005.332-1.917.612-2.792.863-.623-.279-1.309-.443-2.035-.443H16.001c-.709,0-1.394.16-2.03.444-.876-.251-1.788-.531-2.785-.86-.907-.312-1.625-.964-1.968-1.792-.311-.749-.285-1.563.071-2.292Z"/>
  <path d="M56.511,39.505c-.73-1.48-2.15-2.48-3.73-2.79-.6-2.1-2.53-3.6-4.78-3.6H16.001c-1.32,0-2.58.52-3.54,1.46-.6.61-1.03,1.34-1.26,2.14-1.58.32-3,1.34-3.71,2.79-.61,1.25-.65,2.65-.12,3.94.56,1.36,1.72,2.42,3.18,2.92.52.17,1.02.33,1.51.48-.68.88-1.06,1.93-1.06,3.04,0,2.76,2.24,5,5,5h32c1.32,0,2.58-.52,3.54-1.47.94-.95,1.46-2.21,1.46-3.53,0-1.15-.4-2.19-1.06-3.04.49-.15.99-.31,1.52-.48,2.12-.73,3.54-2.64,3.54-4.76,0-.7-.17-1.43-.49-2.1ZM13.871,35.995c.58-.57,1.34-.88,2.13-.88h32c1.15,0,2.16.65,2.66,1.62-.21.05-.42.08-.62.15-5.8,1.99-11.87,3-18.04,3s-12.24-1.01-18.03-2.99c-.21-.08-.42-.11-.63-.16.14-.27.31-.52.53-.74ZM52.831,44.465c-1.01.33-1.92.61-2.8.86-.62-.28-1.3-.44-2.03-.44h-25c-.55,0-1,.45-1,1s.45,1,1,1h25c1.65,0,3,1.35,3,3,0,.8-.31,1.55-.87,2.12-.58.57-1.34.88-2.13.88H16.001c-1.65,0-3-1.35-3-3,0-.8.31-1.55.87-2.12.58-.57,1.34-.88,2.13-.88h3c.55,0,1-.45,1-1s-.45-1-1-1h-3c-.71,0-1.39.16-2.03.44-.88-.25-1.79-.53-2.79-.86-.9-.31-1.62-.96-1.96-1.79-.31-.75-.29-1.56.07-2.29.68-1.4,2.41-2.17,4.03-1.6,6,2.06,12.29,3.1,18.68,3.1s12.68-1.04,18.69-3.1c1.55-.54,3.32.16,4.02,1.59.19.4.29.82.29,1.23,0,1.26-.88,2.41-2.17,2.86Z"/>
</svg>