<?xml version="1.0" encoding="UTF-8"?>
<svg id="Outline" xmlns="http://www.w3.org/2000/svg" version="1.1" viewBox="0 0 64 64">
  <!-- Generator: Adobe Illustrator 29.5.1, SVG Export Plug-In . SVG Version: 2.1.0 Build 141)  -->
  <path d="M55,12v-2c0-1.65-1.35-3-3-3h-31c-.55,0-1,.45-1,1s.45,1,1,1h31c.55,0,1,.45,1,1v2c0,.55-.45,1-1,1H12c-.55,0-1-.45-1-1v-2c0-.55.45-1,1-1h5c.55,0,1-.45,1-1s-.45-1-1-1h-5c-1.65,0-3,1.35-3,3v2c0,1.3.84,2.4,2,2.82v14.36c-1.16.42-2,1.52-2,2.82s.84,2.4,2,2.82v14.36c-1.16.42-2,1.52-2,2.82v2c0,1.65,1.35,3,3,3h40c1.65,0,3-1.35,3-3v-2c0-1.3-.84-2.4-2-2.82v-14.36c1.16-.42,2-1.52,2-2.82s-.84-2.4-2-2.82v-14.36c1.16-.42,2-1.52,2-2.82ZM49,15h2v14.18c-1.16.42-2,1.52-2,2.82s.84,2.4,2,2.82v14.18h-2v-3c0-5.62-2.78-10.84-7.36-14,4.58-3.16,7.36-8.38,7.36-14v-3ZM13,15h2v3c0,5.62,2.78,10.84,7.36,14-4.58,3.16-7.36,8.38-7.36,14v3h-2v-14.18c1.16-.42,2-1.52,2-2.82s-.84-2.4-2-2.82v-14.18ZM12,31c.55,0,1,.45,1,1s-.45,1-1,1-1-.45-1-1,.45-1,1-1ZM53,54c0,.55-.45,1-1,1H12c-.55,0-1-.45-1-1v-2c0-.55.45-1,1-1h28c.55,0,1-.45,1-1s-.45-1-1-1h-23v-3c0-5.45,2.97-10.47,7.75-13.13.31-.17.51-.51.51-.87s-.2-.7-.51-.87c-4.78-2.66-7.75-7.68-7.75-13.13v-3h30v3c0,5.45-2.97,10.47-7.75,13.13-.31.17-.51.51-.51.87s.2.7.51.87c4.78,2.66,7.75,7.68,7.75,13.13v3h-3c-.55,0-1,.45-1,1s.45,1,1,1h8c.55,0,1,.45,1,1v2ZM52,33c-.55,0-1-.45-1-1s.45-1,1-1,1,.45,1,1-.45,1-1,1Z"/>
  <path d="M31.515,32.594c.151.083.318.125.485.125s.334-.042.485-.125l5.798-3.219c3.25-1.796,5.58-4.904,6.392-8.526.117-.521-.195-1.041-.709-1.183-3.982-1.098-8.204-1.245-12.152-.447-2.562.512-5.169.604-7.75.279l-3.76-.47c-.315-.04-.627.073-.846.3-.219.229-.316.547-.264.858.66,3.902,3.036,7.251,6.521,9.188l5.8,3.22ZM21.479,21.19l2.336.292c2.792.353,5.615.251,8.394-.302,3.333-.673,6.876-.621,10.262.168-.85,2.66-2.689,4.914-5.156,6.277l-5.314,2.951-5.314-2.95c-2.543-1.414-4.389-3.714-5.208-6.436Z"/>
  <path d="M45,46c0-2.091-.517-4.178-1.495-6.036-.219-.417-.697-.622-1.153-.498-3.287.917-6.778,1.107-10.186.547-3.875-.651-7.915-.381-11.68.781-.293.09-.529.311-.639.597-.562,1.464-.847,3.015-.847,4.608,0,.552.448,1,1,1h24c.552,0,1-.448,1-1ZM21.044,45c.075-.833.245-1.648.506-2.436,3.332-.95,6.876-1.149,10.288-.578,3.423.562,6.916.428,10.238-.381.472,1.078.769,2.228.877,3.395h-21.909Z"/>
  <circle cx="30" cy="35" r="1"/>
  <circle cx="34" cy="38" r="1"/>
</svg>