<?xml version="1.0" encoding="UTF-8"?>
<svg id="Outline" xmlns="http://www.w3.org/2000/svg" version="1.1" viewBox="0 0 64 64">
  <!-- Generator: Adobe Illustrator 29.5.1, SVG Export Plug-In . SVG Version: 2.1.0 Build 141)  -->
  <path d="M51,51v-16.18c1.16-.42,2-1.52,2-2.82s-.84-2.4-2-2.82V13c.81,0,1.57-.32,2.11-.87.57-.56.89-1.32.89-2.13,0-1.65-1.35-3-3-3H13c-.81,0-1.57.32-2.11.87-.57.56-.89,1.32-.89,2.13,0,1.65,1.35,3,3,3v16.18c-1.16.42-2,1.52-2,2.82s.84,2.4,2,2.82v16.18c-1.65,0-3,1.35-3,3,0,.81.32,1.57.87,2.11.56.57,1.32.89,2.13.89h38c1.65,0,3-1.35,3-3,0-.81-.32-1.57-.87-2.11-.56-.57-1.32-.89-2.13-.89ZM50,33c-.55,0-1-.45-1-1s.45-1,1-1,1,.45,1,1-.45,1-1,1ZM49,34.82v16.18h-.05c-.1-2.35-.57-4.63-1.43-6.8-.98-2.51-2.4-4.78-4.23-6.74l-5.07-5.46,5.07-5.46c3.45-3.72,5.43-8.5,5.66-13.54h.05v16.18c-1.16.42-2,1.52-2,2.82s.84,2.4,2,2.82ZM14,31c.55,0,1,.45,1,1s-.45,1-1,1-1-.45-1-1,.45-1,1-1ZM15,29.18V13h.05c.1,2.35.57,4.63,1.43,6.8.98,2.51,2.4,4.78,4.23,6.74l5.07,5.46-5.07,5.46c-3.45,3.72-5.43,8.5-5.66,13.54h-.05v-16.18c1.16-.42,2-1.52,2-2.82s-.84-2.4-2-2.82ZM51,55H13c-.27,0-.51-.1-.71-.31-.19-.18-.29-.42-.29-.69,0-.55.45-1,1-1h25c.55,0,1-.45,1-1s-.45-1-1-1h-20.97c.23-4.54,2.03-8.83,5.14-12.18l5.7-6.14c.36-.38.36-.98,0-1.36l-5.7-6.14c-1.65-1.78-2.94-3.83-3.83-6.11-.77-1.94-1.21-3.98-1.31-6.07h3.97c.55,0,1-.45,1-1s-.45-1-1-1h-8c-.55,0-1-.45-1-1,0-.27.1-.51.31-.71.18-.19.42-.29.69-.29h38c.55,0,1,.45,1,1,0,.27-.1.51-.31.71-.18.19-.42.29-.69.29h-26c-.55,0-1,.45-1,1s.45,1,1,1h21.97c-.23,4.54-2.03,8.83-5.14,12.18l-5.7,6.14c-.36.38-.36.98,0,1.36l5.7,6.14c1.65,1.78,2.94,3.83,3.83,6.11.77,1.94,1.21,3.98,1.31,6.07h-4.97c-.55,0-1,.45-1,1s.45,1,1,1h9c.27,0,.51.1.71.31.19.18.29.42.29.69,0,.55-.45,1-1,1Z"/>
  <path d="M44.298,48.615c.189-.243.256-.56.181-.859-.354-1.408-.893-2.785-1.6-4.092-.198-.365-.622-.575-1.034-.513l-1.907.279c-2.546.362-5.19.226-7.696-.4-2.772-.692-5.619-.84-8.466-.439l-1.73.25c-.301.043-.566.222-.72.485-.801,1.371-1.409,2.861-1.806,4.429-.076.299-.009.616.18.86.189.243.48.386.789.386h23.02c.308,0,.599-.142.789-.385ZM21.831,47c.27-.78.6-1.533.989-2.25l1.24-.179c2.586-.364,5.176-.23,7.698.4,2.758.688,5.659.841,8.468.439l1.212-.177c.281.578.526,1.168.732,1.768h-20.338Z"/>
  <path d="M32,32.35c.278,0,.544-.116.733-.32l7.62-8.209c.999-1.074,1.845-2.246,2.517-3.484.006-.012.009-.025.015-.037.237-.487.011-1.123-.483-1.347-.01-.004-.018-.011-.028-.015-.076-.031-.155-.054-.238-.067l-1.914-.28c-2.799-.399-5.706-.249-8.464.439-2.522.63-5.113.764-7.694.4l-1.73-.25c-.379-.054-.755.112-.971.428-.215.317-.23.729-.039,1.06.659,1.146,1.441,2.207,2.324,3.152l7.62,8.21c.189.204.455.32.733.32ZM24.27,21.474c2.677.319,5.358.149,7.973-.503,2.506-.626,5.156-.762,7.692-.401l.415.061c-.434.637-.923,1.249-1.463,1.83l-6.887,7.42-6.889-7.423c-.293-.314-.574-.642-.841-.984Z"/>
  <circle cx="30" cy="35" r="1"/>
  <circle cx="34" cy="36" r="1"/>
  <circle cx="31" cy="39" r="1"/>
  <circle cx="35" cy="41" r="1"/>
</svg>