<?xml version="1.0" encoding="UTF-8"?>
<svg id="Outline" xmlns="http://www.w3.org/2000/svg" version="1.1" viewBox="0 0 64 64">
  <!-- Generator: Adobe Illustrator 29.5.1, SVG Export Plug-In . SVG Version: 2.1.0 Build 141)  -->
  <path d="M56.316,15.051l-1.316-.439v-6.612c0-.552-.447-1-1-1h-6c-.553,0-1,.448-1,1v3.946l-14.684-4.895c-.205-.068-.428-.068-.633,0L7.684,15.051c-.408.136-.684.518-.684.949v4c0,.321.154.623.415.811.262.188.596.237.901.138l1.684-.561v35.612c0,.552.447,1,1,1h42c.553,0,1-.448,1-1v-18c0-.552-.447-1-1-1s-1,.448-1,1v17H12V19.721l20-6.667,20,6.667v10.279c0,.552.447,1,1,1s1-.448,1-1v-9.612s1.684.561,1.684.561c.641.211,1.316-.271,1.316-.949v-4c0-.431-.275-.812-.684-.949ZM49,9h4v4.946l-4-1.333v-3.612ZM55,18.613l-22.684-7.562c-.103-.034-.21-.051-.316-.051s-.214.017-.316.051l-22.684,7.562v-1.892l23-7.667,23,7.667v1.892Z"/>
  <path d="M31.161,19.455c-.455.701-11.161,17.246-11.161,23.545,0,6.075,4.71,10,12,10s12-3.925,12-10c0-6.299-10.706-22.844-11.161-23.545-.369-.567-1.309-.567-1.678,0ZM42,43c0,5.493-4.48,7.691-9,7.967v-1.553l5.707-5.707c.391-.391.391-1.023,0-1.414s-1.023-.391-1.414,0l-4.293,4.293v-5.172l3.707-3.707c.391-.391.391-1.023,0-1.414s-1.023-.391-1.414,0l-2.293,2.293v-9.586c0-.552-.447-1-1-1s-1,.448-1,1v9.586l-2.293-2.293c-.391-.391-1.023-.391-1.414,0s-.391,1.023,0,1.414l3.707,3.707v5.172l-4.293-4.293c-.391-.391-1.023-.391-1.414,0s-.391,1.023,0,1.414l5.707,5.707v1.553c-4.52-.277-9-2.474-9-7.967,0-4.347,6.584-15.712,10-21.142,3.416,5.43,10,16.795,10,21.142Z"/>
  <circle cx="53" cy="34" r="1"/>
</svg>