<?xml version="1.0" encoding="UTF-8"?>
<svg id="Outline" xmlns="http://www.w3.org/2000/svg" version="1.1" viewBox="0 0 64 64">
  <!-- Generator: Adobe Illustrator 29.5.1, SVG Export Plug-In . SVG Version: 2.1.0 Build 141)  -->
  <path d="M53,26c.55,0,1-.45,1-1v-2.61l1.68.56c.31.1.64.05.9-.14.27-.19.42-.49.42-.81v-4c0-.43-.28-.81-.68-.95l-4.32-1.44v-7.61c0-.55-.45-1-1-1h-6c-.55,0-1,.45-1,1v4.95l-11.68-3.9c-.21-.07-.43-.07-.64,0L7.68,17.05c-.4.14-.68.52-.68.95v4c0,.531.471,1,1,1,.11,0,.21-.02.32-.05l1.68-.56v24.99c-.53.6-.88,1.35-.97,2.16-1.24.7-2.03,2.02-2.03,3.46,0,2.21,1.79,4,4,4h42c2.21,0,4-1.79,4-4,0-1.44-.79-2.76-2.03-3.46-.09-.82-.44-1.57-.97-2.17v-18.37c0-.55-.45-1-1-1s-1,.45-1,1v17.15c-1-.26-2.1-.13-3,.4-.61-.36-1.29-.55-2-.55-1.46,0-2.78.8-3.47,2.04-1.25-.18-2.5.27-3.36,1.14-.38-.12-.77-.18-1.17-.18-2.21,0-4,1.79-4,4,0,.73.21,1.41.56,2h-7.12c.35-.59.56-1.27.56-2,0-2.21-1.79-4-4-4-.4,0-.79.06-1.17.18-.86-.87-2.11-1.32-3.36-1.14-.69-1.24-2.01-2.04-3.47-2.04-.71,0-1.39.19-2,.55-.9-.53-2-.65-3-.4v-24.43l4.32-1.44c.52-.18.8-.74.63-1.27-.18-.52-.74-.8-1.27-.63l-6.68,2.23v-1.89l23-7.67,23,7.67v1.89l-22.68-7.56c-.21-.07-.43-.07-.64,0l-12,4c-.52.18-.8.74-.63,1.27.18.52.74.8,1.27.63l11.68-3.9,20,6.67v3.28c0,.55.45,1,1,1ZM39.98,51.27c.46.27,1.05.12,1.34-.34.5-.8,1.5-1.15,2.43-.78.27.1.56.09.82-.04s.44-.36.52-.63c.23-.87,1.01-1.48,1.91-1.48.49,0,.96.19,1.33.52.38.35.96.35,1.34,0,.75-.67,1.92-.68,2.67,0,.42.37.66.9.65,1.5-.07.48.2.94.66,1.1.81.29,1.35,1.04,1.35,1.88,0,1.1-.9,2-2,2h-14c-1.1,0-2-.9-2-2,0-1.44,1.61-2.51,2.98-1.73ZM11,50c0-.58.24-1.11.67-1.49.72-.65,1.91-.67,2.66.01.38.35.96.35,1.34,0,.37-.33.84-.52,1.33-.52.9,0,1.68.61,1.91,1.48.08.27.26.5.52.63s.55.14.82.04c.93-.37,1.93-.02,2.43.78.29.46.88.6,1.34.34,1.37-.78,2.98.29,2.98,1.73,0,1.1-.9,2-2,2h-14c-1.1,0-2-.9-2-2,0-.84.54-1.59,1.35-1.88.46-.16.73-.64.65-1.12ZM50,14.95l-4-1.34v-4.61h4v5.95Z"/>
  <path d="M30,46h4c.553,0,1-.447,1-1v-1c3.859,0,7-3.141,7-7s-3.141-7-7-7h-6c-.552,0-1-.448-1-1s.448-1,1-1h10c.553,0,1-.447,1-1v-4c0-.553-.447-1-1-1h-4v-1c0-.553-.447-1-1-1h-4c-.553,0-1,.447-1,1v1c-3.859,0-7,3.141-7,7s3.141,7,7,7h6c.552,0,1,.448,1,1s-.448,1-1,1h-10c-.553,0-1,.447-1,1v4c0,.553.447,1,1,1h4v1c0,.553.447,1,1,1ZM26,42v-2h9c1.654,0,3-1.346,3-3s-1.346-3-3-3h-6c-2.757,0-5-2.243-5-5s2.243-5,5-5h1c.553,0,1-.447,1-1v-1h2v1c0,.553.447,1,1,1h4v2h-9c-1.654,0-3,1.346-3,3s1.346,3,3,3h6c2.757,0,5,2.243,5,5s-2.243,5-5,5h-1c-.553,0-1,.447-1,1v1h-2v-1c0-.553-.447-1-1-1h-4Z"/>
</svg>