<?xml version="1.0" encoding="UTF-8"?>
<svg id="Outline" xmlns="http://www.w3.org/2000/svg" version="1.1" viewBox="0 0 64 64">
  <!-- Generator: Adobe Illustrator 29.5.1, SVG Export Plug-In . SVG Version: 2.1.0 Build 141)  -->
  <path d="M52,49c-.552,0-1,.448-1,1v6c0,.552.448,1,1,1s1-.448,1-1v-6c0-.552-.448-1-1-1Z"/>
  <path d="M48.42,33.04c.98-1.07,1.58-2.48,1.58-4.04,0-3.31-2.69-6-6-6s-6,2.69-6,6c0,1.55.6,2.96,1.56,4.03-1.17.1-2.25.61-3.08,1.42l-.41-.27c-1.08-.72-2.33-1.11-3.63-1.16.97-1.07,1.56-2.47,1.56-4.02,0-3.31-2.69-6-6-6s-6,2.69-6,6c0,1.55.59,2.95,1.56,4.02-1.3.05-2.55.44-3.63,1.16l-4.23,2.82h-1.2c-1.93,0-3.5,1.57-3.5,3.5s1.57,3.5,3.5,3.5h1.5c.09,0,.19-.01.27-.04l2.73-.78v12.82c0,.55.45,1,1,1s1-.45,1-1v-13.39l2.27-.65c.54-.15.84-.7.69-1.23-.15-.54-.7-.84-1.23-.69l-6.87,1.96h-1.36c-.83,0-1.5-.67-1.5-1.5s.67-1.5,1.5-1.5h1.5c.2,0,.39-.06.55-.17l4.49-2.99c.83-.55,1.79-.84,2.78-.84h8.36c.99,0,1.95.29,2.78.84l1.15.77h.01l3.33,2.22c.16.11.35.17.55.17h1.5c.83,0,1.5.67,1.5,1.5s-.67,1.5-1.5,1.5h-1.36l-6.87-1.96c-.53-.15-1.08.15-1.23.69-.15.53.15,1.08.69,1.23l2.27.65v13.39c0,.55.45,1,1,1s1-.45,1-1v-12.82l2.73.78c.08.03.18.04.27.04h1.5c1.93,0,3.5-1.57,3.5-3.5s-1.57-3.5-3.5-3.5h-1.2l-2.08-1.39c.51-.38,1.12-.61,1.78-.61h8c1.65,0,3,1.35,3,3v4c0,.55.45,1,1,1s1-.45,1-1v-4c0-2.61-2.02-4.74-4.58-4.96ZM28,33c-2.21,0-4-1.79-4-4s1.79-4,4-4,4,1.79,4,4-1.79,4-4,4ZM44,33c-2.21,0-4-1.79-4-4s1.79-4,4-4,4,1.79,4,4-1.79,4-4,4Z"/>
  <path d="M32.569,20.656l2.599,3.899c.186.278.498.445.832.445s.646-.167.832-.445l2.599-3.899c4.546-.927,7.569-3.567,7.569-6.656,0-3.925-4.832-7-11-7s-11,3.075-11,7c0,3.088,3.023,5.729,7.569,6.656ZM36,9c4.878,0,9,2.29,9,5,0,2.146-2.608,4.106-6.342,4.767-.269.048-.506.203-.658.43l-2,3-2-3c-.151-.227-.389-.382-.658-.43-3.734-.661-6.342-2.621-6.342-4.767,0-2.71,4.122-5,9-5Z"/>
  <circle cx="36" cy="14" r="1"/>
  <circle cx="32" cy="14" r="1"/>
  <circle cx="40" cy="14" r="1"/>
  <circle cx="52" cy="46" r="1"/>
</svg>