<?xml version="1.0" encoding="UTF-8"?>
<svg id="Outline" xmlns="http://www.w3.org/2000/svg" version="1.1" viewBox="0 0 64 64">
  <!-- Generator: Adobe Illustrator 29.5.1, SVG Export Plug-In . SVG Version: 2.1.0 Build 141)  -->
  <path d="M56,55h-9.95c.08-.2.13-.41.16-.63l1.78-14.17c1.52-.88,2.62-2.41,2.92-4.2h.09c3.31,0,6-2.69,6-6,0-3.02-4.69-8.96-5.22-9.63-.31-.38-.88-.44-1.3-.2l1.51-12.05c.04-.28-.05-.57-.24-.78-.19-.22-.46-.34-.75-.34H13c-.29,0-.56.12-.75.34-.19.21-.28.5-.24.78l5.78,46.26c.03.22.08.42.15.62h-9.94c-.55,0-1,.45-1,1s.45,1,1,1h48c.55,0,1-.45,1-1s-.45-1-1-1ZM45,39c-2.21,0-4-1.79-4-4,0-1.52,2.21-4.97,4-7.37,1.79,2.4,4,5.85,4,7.37,0,2.21-1.79,4-4,4ZM51,22.64c1.79,2.39,4,5.84,4,7.36,0,2.21-1.79,4-4,4-.05,0-.09-.01-.15-.01-.45-1.85-1.93-4.27-3.19-6.08.89-1.86,2.42-4.03,3.34-5.27ZM14.63,12.97l-.5-3.97h35.74l-.5,3.98-.03.01c-1.28.96-3.1.83-4.23-.3l-.4-.4c-.39-.39-1.03-.39-1.42,0-1.26,1.27-3.32,1.27-4.58,0-.39-.39-1.03-.39-1.42,0-1.22,1.23-3.36,1.23-4.58,0-.39-.39-1.03-.39-1.42,0-1.22,1.23-3.36,1.23-4.58,0-.39-.39-1.03-.39-1.42,0-1.26,1.27-3.32,1.27-4.58,0-.39-.39-1.03-.39-1.42,0l-.4.4c-1.13,1.14-2.95,1.27-4.23.3l-.03-.02ZM44.23,54.12c-.07.5-.5.88-1,.88h-22.46c-.5,0-.93-.38-1-.87L14.93,15.36c.54.18,1.1.27,1.66.27,1.25,0,2.49-.43,3.47-1.29,1.79,1.21,4.17,1.2,5.94-.04,1.79,1.25,4.21,1.25,6,0,1.79,1.25,4.21,1.25,6,0,1.78,1.24,4.15,1.25,5.94.04,1.42,1.24,3.39,1.59,5.13,1.01l-.99,7.95c-.59.86-1.21,1.84-1.74,2.8-.27-.36-.47-.62-.56-.73-.38-.47-1.18-.47-1.56,0-.53.67-5.22,6.6-5.22,9.63,0,3.31,2.69,6,6,6,.3,0,.59-.03.88-.07l-1.65,13.19Z"/>
  <path d="M42,50h-20c-.552,0-1,.448-1,1s.448,1,1,1h20c.552,0,1-.448,1-1s-.448-1-1-1Z"/>
</svg>