<?xml version="1.0" encoding="UTF-8"?>
<svg id="Outline" xmlns="http://www.w3.org/2000/svg" version="1.1" viewBox="0 0 48 48">
  <!-- Generator: Adobe Illustrator 29.5.1, SVG Export Plug-In . SVG Version: 2.1.0 Build 141)  -->
  <path d="M37.661,5.834c-1.18-1.16-3.08-1.16-4.25.01-.64.65-3.88,5.38-5.41,7.63-.45-.27-.97-.44-1.54-.44h-4v-2h2c.56,0,1-.45,1-1v-4c0-.55-.44-1-1-1h-10c-.55,0-1,.45-1,1v4c0,.55.45,1,1,1h2v2h-4c-1.65,0-3,1.35-3,3v4c0,1.44,1.03,2.65,2.39,2.93.69,1.3.69,2.84,0,4.14-1.36.28-2.39,1.49-2.39,2.93v10c0,1.65,1.35,3,3,3h14c1.66,0,3-1.35,3-3v-10c0-1.44-1.02-2.65-2.38-2.93-.69-1.3-.69-2.84,0-4.14,1.36-.28,2.38-1.49,2.38-2.93v-4c0-.05-.01-.09-.01-.14,4.54-3.1,7.66-5.26,8.21-5.81,1.17-1.17,1.17-3.07,0-4.25ZM15.461,9.034v-2h8v2h-8ZM20.461,11.034v2h-2v-2h2ZM27.461,30.034v10c0,.55-.44,1-1,1h-14c-.55,0-1-.45-1-1v-10c0-.55.45-1,1-1h14c.56,0,1,.45,1,1ZM14.051,23.034h10.82c-.42,1.3-.42,2.7,0,4h-10.82c.43-1.3.43-2.7,0-4ZM27.461,20.034c0,.55-.44,1-1,1h-14c-.55,0-1-.45-1-1v-1h16v1ZM27.461,17.034H11.461v-1c0-.55.45-1,1-1h14c.56,0,1,.45,1,1v1ZM36.251,8.664c-.36.35-2.76,2.03-4.97,3.55,1.74-2.52,3.25-4.65,3.55-4.96.2-.2.46-.3.71-.3s.51.1.7.29c.4.4.4,1.03.01,1.42Z"/>
</svg>