<?xml version="1.0" encoding="UTF-8"?>
<svg id="Outline" xmlns="http://www.w3.org/2000/svg" version="1.1" viewBox="0 0 64 64">
  <!-- Generator: Adobe Illustrator 29.0.0, SVG Export Plug-In . SVG Version: 2.1.0 Build 186)  -->
  <path d="M29,39c0-5.51367-4.48633-10-10-10s-10,4.48633-10,10v9.37415c-1.27081,1.91931-2,4.20483-2,6.62585v1c0,.55273.44727,1,1,1h22c.55273,0,1-.44727,1-1v-1c0-2.42102-.72919-4.70654-2-6.62585v-9.37415ZM19,31c4.41113,0,8,3.58887,8,8v7.05554c-.85675-.76611-1.83142-1.40997-2.89996-1.91052.56683-.91583.89996-1.99097.89996-3.14502v-4c0-.55273-.44727-1-1-1h-.17188c-1.74512,0-3.45898.59961-4.82812,1.66797-1.36914-1.06836-3.08301-1.66797-4.82812-1.66797h-.17188c-.55273,0-1,.44727-1,1v4c0,1.15405.33313,2.22919.89996,3.14502-1.06854.50055-2.04321,1.14441-2.89996,1.91052v-7.05554c0-4.41113,3.58887-8,8-8ZM15,41v-2.93945c1.23633.17969,2.4043.75781,3.29297,1.64648.39062.39062,1.02344.39062,1.41406,0,.88867-.88867,2.05664-1.4668,3.29297-1.64648v2.93945c0,2.20605-1.79395,4-4,4s-4-1.79395-4-4ZM9,55c0-4.12,2.5116-7.7807,6.30096-9.2854,1.02039.80231,2.30316,1.2854,3.69904,1.2854s2.67865-.48309,3.69904-1.2854c3.78937,1.5047,6.30096,5.16541,6.30096,9.2854H9Z"/>
  <path d="M50.66888,44.43872c.93671-1.20605,1.50177-2.7135,1.51074-4.35327.16595.11145.3512.18701.54791.18701.12891,0,.25879-.02441.38281-.07617.37402-.15527.61719-.51953.61719-.92383v-3.09082c0-3.95996-3.22168-7.18164-7.18164-7.18164h-3.0918c-3.95996,0-7.18164,3.22168-7.18164,7.18164v3.09082c0,.4043.24316.76855.61719.92383.31183.13025.65747.08301.93127-.09937.0116,1.63531.57568,3.13855,1.51019,4.3418-3.83508,2.06152-6.33112,6.13666-6.33112,10.56128v1c0,.55273.44727,1,1,1h22c.55273,0,1-.44727,1-1v-1c0-4.42462-2.49603-8.49976-6.33112-10.56128ZM39.81836,40.0459v-1.90436l.17773-.17767c.69336-.69238,1.79199-.75195,2.55566-.14258,1.44238,1.15625,3.45703,1.15527,4.89551.00098.7666-.6123,1.86523-.55078,2.55664.1416l.17773.17767v1.90436c0,2.85742-2.32422,5.18164-5.18164,5.18164s-5.18164-2.32422-5.18164-5.18164ZM38.27246,36.18164c0-2.85742,2.32422-5.18164,5.18164-5.18164h3.0918c2.85742,0,5.18164,2.32422,5.18164,5.18164v.67773l-.30957-.30957c-.76172-.76172-1.76367-1.14941-2.77148-1.14941-.8623,0-1.72754.28418-2.44824.86035-.70508.56445-1.69043.56543-2.39746-.00098-1.56055-1.24707-3.80469-1.12402-5.21875.29004l-.30957.30957v-.67773ZM35,55c0-3.91003,2.33765-7.49365,5.86487-9.09241,1.17059.82825,2.59528,1.31995,4.13513,1.31995s2.96454-.4917,4.13513-1.31995c3.52722,1.59875,5.86487,5.18237,5.86487,9.09241h-20Z"/>
  <path d="M39.09003,17.14996c.22998-.29999.40997-.63995.56-1,.51996-1.25995.45996-2.66998-.16003-3.88l-2.42999-4.72998c-.17999-.33997-.53998-.57001-.92999-.53998-.39001.01996-.73999.26001-.88.62-.82001,1.98999-2.77002,3.27002-4.96997,3.27002h-2.09003c-2.31,0-4.19,1.83997-4.19,4.10999,0,.81.23999,1.57001.65002,2.20001-1.27002.32996-2.21002,1.48999-2.21002,2.85999,0,1.21997.76001,2.26996,1.83002,2.71997l6.83997,13.67004c.17004.33997.51001.54999.89001.54999s.71997-.21002.89001-.54999l6.83997-13.67004c1.07001-.45001,1.83002-1.5,1.83002-2.71997,0-1.46002-1.07001-2.67999-2.46997-2.91003ZM32,33.76001l-5.38-10.76001h10.76001l-5.38,10.76001ZM38.60999,21h-13.21997c-.52002,0-.95001-.42004-.95001-.94,0-.52002.42999-.95001.95001-.95001h2.79999c.56,0,1-.45001,1-1s-.44-1-1-1c-1.21002,0-2.19-.95001-2.19-2.10999,0-1.16003.97998-2.10999,2.19-2.10999h2.09003c2.33997,0,4.46997-1.06006,5.82996-2.81006l1.60004,3.11005c.34998.67999.38995,1.48999.08997,2.20001-.42999,1.04999-1.45001,1.71997-2.62,1.71997-.54999,0-1,.45001-1,1s.45001,1,1,1h3.42999c.52002,0,.95001.42999.95001.95001,0,.51996-.42999.94-.95001.94Z"/>
  <path d="M14,20h4c.55273,0,1-.44727,1-1s-.44727-1-1-1h-4c-.55273,0-1,.44727-1,1s.44727,1,1,1Z"/>
  <path d="M19.05078,22.53516l-2.8291,2.8291c-.39062.39062-.39062,1.02344,0,1.41406.19531.19531.45117.29297.70703.29297s.51172-.09766.70703-.29297l2.8291-2.8291c.39062-.39062.39062-1.02344,0-1.41406s-1.02344-.39062-1.41406,0Z"/>
  <path d="M19.05078,15.46484c.19531.19531.45117.29297.70703.29297s.51172-.09766.70703-.29297c.39062-.39062.39062-1.02344,0-1.41406l-2.8291-2.8291c-.39062-.39062-1.02344-.39062-1.41406,0s-.39062,1.02344,0,1.41406l2.8291,2.8291Z"/>
  <path d="M45,19c0,.55273.44727,1,1,1h4c.55273,0,1-.44727,1-1s-.44727-1-1-1h-4c-.55273,0-1,.44727-1,1Z"/>
  <path d="M46.36426,26.77832c.19531.19531.45117.29297.70703.29297s.51172-.09766.70703-.29297c.39062-.39062.39062-1.02344,0-1.41406l-2.8291-2.8291c-.39062-.39062-1.02344-.39062-1.41406,0s-.39062,1.02344,0,1.41406l2.8291,2.8291Z"/>
  <path d="M44.24219,15.75781c.25586,0,.51172-.09766.70703-.29297l2.8291-2.8291c.39062-.39062.39062-1.02344,0-1.41406s-1.02344-.39062-1.41406,0l-2.8291,2.8291c-.39062.39062-.39062,1.02344,0,1.41406.19531.19531.45117.29297.70703.29297Z"/>
</svg>