<?xml version="1.0" encoding="UTF-8"?>
<svg id="Outline" xmlns="http://www.w3.org/2000/svg" version="1.1" viewBox="0 0 64 64">
  <!-- Generator: Adobe Illustrator 29.5.1, SVG Export Plug-In . SVG Version: 2.1.0 Build 141)  -->
  <path d="M46.84003,23.45001c-.19-.28003-.5-.45001-.84003-.45001-.04999,0-.10999,0-.15997.01001.09998-.67004.15997-1.35004.15997-2.01001,0-7.72003-6.28003-14-14-14s-14,6.27997-14,14c0,.65997.07001,1.33997.15997,2.01001-.04999,0-.10999-.01001-.15997-.01001-.34003,0-.65002.16998-.84003.45001-.17999.28998-.20996.63995-.07996.94995l14,32c.15997.36005.51996.60004.91998.60004s.76001-.23999.91998-.60004l14-32c.13-.31.10004-.65997-.07996-.94995ZM32,9c6.62,0,12,5.38,12,12,0,.70996-.08002,1.41998-.21002,2.13-4.52997.51996-8.69995,2.60999-11.81,5.89996-.60999-.65997-1.26996-1.26996-1.97998-1.82996v-3.20001c0-.54999.45001-1,1-1s1-.45001,1-1-.45001-1-1-1c-1.65002,0-3,1.34998-3,3v4c0,.54999-.45001,1-1,1s-1-.45001-1-1v-5c0-1.65002-1.34998-3-3-3-.54999,0-1,.45001-1,1s.45001,1,1,1,1,.45001,1,1v.95001c-1.22998-.40002-2.48999-.67004-3.78998-.82001-.13-.71002-.21002-1.42999-.21002-2.13,0-6.62,5.38-12,12-12ZM19.56,25.07001c1.53003.13,3.01001.46997,4.44.98999v1.94c0,1.64996,1.34998,3,3,3,1.12,0,2.08002-.62,2.59998-1.53003.38.35004.73004.71002,1.08002,1.09003-.28998.38-.58002.76996-.83997,1.17999-1.93005,2.94-2.97003,6.27997-3.13,9.66998l-7.15002-16.33997ZM32,53.5l-1.85999-4.26001c-2.35004-5.37-1.84003-11.5,1.37-16.40002,2.91998-4.46997,7.67999-7.29999,12.92999-7.76996l-12.44,28.42999Z"/>
  <path d="M33,18c.55127,0,1,.44824,1,1v1c0,1.6543,1.3457,3,3,3s3-1.3457,3-3v-1c0-.55176.44873-1,1-1,.55225,0,1-.44727,1-1s-.44775-1-1-1c-1.6543,0-3,1.3457-3,3v1c0,.55176-.44873,1-1,1s-1-.44824-1-1v-1c0-1.6543-1.3457-3-3-3-.55225,0-1,.44727-1,1s.44775,1,1,1Z"/>
  <circle cx="24" cy="17" r="1"/>
  <circle cx="26" cy="14" r="1"/>
  <circle cx="28" cy="17" r="1"/>
</svg>