<?xml version="1.0" encoding="UTF-8"?>
<svg id="Outline" xmlns="http://www.w3.org/2000/svg" version="1.1" viewBox="0 0 64 64">
  <!-- Generator: Adobe Illustrator 29.3.1, SVG Export Plug-In . SVG Version: 2.1.0 Build 151)  -->
  <path d="M54.23999,39.20996c.59003-2.22998.98999-4.5,1.14001-6.78998,0-.02002.01001-.02997.01001-.04999.25-3.88-.14001-7.78003-1.15002-11.58002.59003-.20001,1.14001-.51001,1.59003-.96002.75-.75995,1.16998-1.75995,1.16998-2.82996,0-2.21002-1.78998-4-4-4h-29c-.54999,0-1,.45001-1,1s.45001,1,1,1h29c1.09998,0,2,.89996,2,2,0,.52997-.21002,1.02997-.59003,1.40997-.37994.38-.87994.59003-1.40997.59003H11c-1.09998,0-2-.90002-2-2,0-.53003.21002-1.03003.59003-1.41003.37994-.38.87994-.58997,1.40997-.58997h5c.54999,0,1-.45001,1-1s-.45001-1-1-1h-5c-1.07001,0-2.07001.41998-2.83002,1.16998-.75.76001-1.16998,1.76001-1.16998,2.83002,0,1.76996,1.15997,3.26001,2.76001,3.77997-.59003,2.23999-.98999,4.51001-1.14001,6.79999,0,.02002-.01001.03003-.01001.05005-.25,3.88.14001,7.78998,1.15002,11.58997-1.60004.52002-2.76001,2.01001-2.76001,3.78003,0,1.07001.41998,2.07001,1.16998,2.82996.76001.75,1.76001,1.17004,2.83002,1.17004h21v1c0,1.64996,1.34998,3,3,3s3-1.35004,3-3v-3c0-.54999.45001-1,1-1s1,.45001,1,1c0,1.64996,1.34998,3,3,3,.88,0,1.66998-.39001,2.21997-1h7.78003c2.21002,0,4-1.79004,4-4,0-1.07001-.41998-2.07001-1.16998-2.83002-.45001-.45001-1-.76001-1.59003-.96002ZM11.77002,21h40.45996c.82001,2.96997,1.23999,6.01001,1.23999,9.06l-.75995-.77002c-1.45001-1.44-3.97003-1.44-5.42004,0-.70996.72003-1.87.72003-2.57996,0-1.5-1.48999-3.92004-1.48999-5.42004,0-.70996.72003-1.87.72003-2.57996,0-1.5-1.48999-3.92004-1.48999-5.42004,0-.70996.72003-1.87.72003-2.57996,0-1.5-1.48999-3.92004-1.48999-5.42004,0-.69.69-1.88995.69-2.57996,0-1.5-1.48999-3.92004-1.48999-5.42004,0-.70996.72003-1.87.72003-2.57996,0l-2.06-2.04999c.17999-2.09998.54999-4.19,1.12-6.23999ZM32,45H11c-.53003,0-1.03003-.21002-1.40997-.59003-.38-.38-.59003-.88-.59003-1.40997,0-1.10004.90002-2,2-2h21v4ZM44,38v7c0,.54999-.45001,1-1,1s-1-.45001-1-1c0-1.65002-1.34998-3-3-3s-3,1.34998-3,3v3c0,.54999-.45001,1-1,1s-1-.45001-1-1v-10c0-1.65002-1.34998-3-3-3h-1c-.54999,0-1,.45001-1,1s.45001,1,1,1h1c.54999,0,1,.45001,1,1v1H11.77002c-.82001-2.97003-1.23999-6.01001-1.23999-9.06l.75995.76996c1.45001,1.44,3.97003,1.44,5.42004,0,.70996-.71997,1.87-.71997,2.57996,0,1.5,1.49005,3.92004,1.49005,5.42004,0,.70996-.71997,1.87-.71997,2.57996,0,1.5,1.49005,3.92004,1.49005,5.42004,0,.70996-.71997,1.87-.71997,2.57996,0,1.5,1.49005,3.92004,1.49005,5.42004,0,.69-.69,1.88995-.69,2.57996,0,1.5,1.49005,3.92004,1.49005,5.42004,0,.70996-.71997,1.87-.71997,2.57996,0l2.06,2.05005c-.17999,2.09998-.54999,4.19-1.12,6.23999h-6.22998v-1c0-.54999.45001-1,1-1h1c.54999,0,1-.45001,1-1s-.45001-1-1-1h-1c-1.65002,0-3,1.34998-3,3ZM53,45h-7v-4h7c.53003,0,1.03003.20996,1.40997.58997.38.38.59003.88.59003,1.41003,0,1.09998-.90002,2-2,2Z"/>
  <circle cx="20" cy="14" r="1"/>
</svg>