<?xml version="1.0" encoding="UTF-8"?>
<svg id="Outline" xmlns="http://www.w3.org/2000/svg" version="1.1" viewBox="0 0 64 64">
  <!-- Generator: Adobe Illustrator 29.3.1, SVG Export Plug-In . SVG Version: 2.1.0 Build 151)  -->
  <circle cx="23" cy="24" r="1"/>
  <circle cx="20" cy="27" r="1"/>
  <circle cx="24" cy="28" r="1"/>
  <path d="M49,31h-.53003c.34003-.96002.53003-1.97003.53003-3,0-1.92999-.60999-3.71002-1.65002-5.17999l3.61005-9.33002c.59998-1.54999-.17004-3.28998-1.71002-3.88-.75-.28998-1.57001-.27002-2.29999.04999-.73004.33002-1.29004.91998-1.58002,1.66003l-3.08997,7.98999c-.58002-.16003-1.19-.25-1.82001-.29004.33997-.95996.53998-1.97998.53998-3.01996,0-4.96002-4.03998-9-9-9s-9,4.03998-9,9c0,1.03998.20001,2.06.53998,3.01996-4.75.24005-8.53998,4.17004-8.53998,8.98004,0,1.02997.19,2.03998.53003,3h-.53003c-1.65002,0-3,1.34998-3,3v2c0,1.40997.97998,2.58997,2.29999,2.90997l5.26001,12.27002c.42999,1.01001,1.37,1.67999,2.44,1.79999v2.02002c0,1.09998.90002,2,2,2h16c1.09998,0,2-.90002,2-2v-2.02002c1.07001-.12,2.01001-.78998,2.44-1.79999l5.26001-12.27002c1.32001-.32001,2.29999-1.5,2.29999-2.90997v-2c0-1.65002-1.34998-3-3-3ZM47.22998,12.03998c.10004-.23999.29004-.44.53003-.54999s.51001-.10999.76001-.02002c.51996.20001.77997.78003.57996,1.29999l-.5,1.28003-2.22998.21002.85999-2.22003ZM45.57001,16.34998l2.21997-.20996-1.94995,5.02997c-.51001-.44-1.08002-.83002-1.69-1.15002l1.41998-3.66998ZM47,28c0,1.04999-.25,2.07996-.69,3h-12.62c-.44-.92004-.69-1.95001-.69-3,0-3.85999,3.14001-7,7-7s7,3.14001,7,7ZM43,33v6c0,.54999-.45001,1-1,1s-1-.45001-1-1v-6h2ZM39,33v10c0,.54999-.45001,1-1,1s-1-.45001-1-1v-10h2ZM32,9c3.85999,0,7,3.14001,7,7,0,.52997-.07001,1.06-.19,1.57001l-8.38-8.39001c.5-.10999,1.03003-.17999,1.57001-.17999ZM28.40997,10l9.31,9.29999c-.71997.19-1.39996.46002-2.03998.81l-8.83002-8.84003c.46002-.48999.98004-.91998,1.56-1.26996ZM25.71002,12.95001l8.32001,8.32996c-.83002.73999-1.52002,1.62-2.03003,2.62-1.22998-2.39996-3.5-4.16998-6.21997-4.71997-.5-.97003-.78003-2.06-.78003-3.17999,0-1.09003.26001-2.12.71002-3.04999ZM24,21c3.85999,0,7,3.14001,7,7,0,1.04999-.25,2.07996-.69,3h-12.62c-.44-.92004-.69-1.95001-.69-3,0-3.85999,3.14001-7,7-7ZM14,36v-2c0-.54999.45001-1,1-1h20v4H15c-.54999,0-1-.45001-1-1ZM40,55h-16v-2h16v2ZM42.59998,50.39001c-.15997.37-.51996.60999-.91998.60999h-19.35999c-.40002,0-.76001-.23999-.91998-.60999l-4.88-11.39001h18.47998v4c0,1.64996,1.34998,3,3,3s3-1.35004,3-3v-1.17999c.31.10999.65002.17999,1,.17999,1.65002,0,3-1.35004,3-3h2.47998l-4.88,11.39001ZM50,36c0,.54999-.45001,1-1,1h-4v-4h4c.54999,0,1,.45001,1,1v2Z"/>
</svg>