<?xml version="1.0" encoding="UTF-8"?>
<svg id="Outline" xmlns="http://www.w3.org/2000/svg" version="1.1" viewBox="0 0 64 64">
  <!-- Generator: Adobe Illustrator 29.5.1, SVG Export Plug-In . SVG Version: 2.1.0 Build 141)  -->
  <path d="M56.239,49.282l-1.7-2.28h1.42c.55,0,1-.45,1-1v-9c0-3.86-3.14-7-7-7h-4.29c-2.27,0-4.55-.54-6.58-1.55-5.02-2.51-8.13-7.55-8.13-13.16v-7.29c0-.29-.13-.57-.35-.76-.23-.19-.53-.28-.81-.23l-18,3c-.49.08-.84.5-.84.99v3c0,.55.45,1,1,1s1-.45,1-1v-2.15l16-2.67v4.82h-2.18c-.42-1.16-1.52-2-2.82-2-1.65,0-3,1.35-3,3s1.35,3,3,3c1.3,0,2.4-.84,2.82-2h2.2c.09,2.11.56,4.14,1.37,6h-3.57c-.42-1.16-1.52-2-2.82-2-1.65,0-3,1.35-3,3s1.35,3,3,3c1.3,0,2.4-.84,2.82-2h4.61c1.6,2.62,3.93,4.8,6.8,6.23,2.31,1.16,4.9,1.77,7.48,1.77h4.29c2.76,0,5,2.24,5,5v4h-19.92l-10.77-5.88c-.15-.08-.31-.12-.48-.12h-13.83v-.76c0-2.43.99-4.81,2.71-6.53.18-.19.29-.44.29-.71v-5c0-.55-.45-1-1-1s-1,.45-1,1v4.6c-1.91,2.06-3,4.82-3,7.64v5.76c0,.01.01.02.01.03,0,.09.01.19.04.29l2,6c.14.4.52.68.95.68h1v4h-4c-.55,0-1,.45-1,1v4c0,.55.45,1,1,1h44.09c1.81,0,3.49-.99,4.38-2.58.87-1.59.82-3.53-.19-5.14ZM23.959,16.002c-.55,0-1-.45-1-1s.45-1,1-1,1,.45,1,1-.45,1-1,1ZM23.959,24.002c-.55,0-1-.45-1-1s.45-1,1-1,1,.45,1,1-.45,1-1,1ZM9.959,39.002v-2h13.57l10.78,5.88c.15.08.31.12.48.12h20.17v2h-21.57l-10.78-5.88c-.15-.08-.31-.12-.48-.12h-12.17ZM47.069,47.002l2.99,4h-6.1v-4h3.11ZM41.959,47.002v4h-2v-4h2ZM37.959,47.002v4h-20v-4h1c.43,0,.81-.28.95-.68l1.77-5.32h.2l10.77,5.88c.15.08.31.12.48.12h4.83ZM11.679,45.002l-1.33-4h9.22l-1.33,4h-6.56ZM15.959,47.002v4h-2v-4h2ZM54.679,53.452c-.54.96-1.54,1.55-2.63,1.55H8.959v-2h43.09c.38,0,.72-.21.89-.55.17-.34.14-.74-.09-1.05l-3.29-4.4h2.48l2.55,3.41c.58.92.61,2.09.09,3.04Z"/>
  <circle cx="11.959" cy="18.002" r="1"/>
</svg>