<?xml version="1.0" encoding="UTF-8"?>
<svg id="Outline" xmlns="http://www.w3.org/2000/svg" version="1.1" viewBox="0 0 48 48">
  <!-- Generator: Adobe Illustrator 29.5.1, SVG Export Plug-In . SVG Version: 2.1.0 Build 141)  -->
  <path d="M32.89,17.15c.07-.38.11-.76.11-1.15,0-2.22-1.21-4.16-3.01-5.19-.1-3.22-2.75-5.81-5.99-5.81s-5.89,2.59-5.99,5.8c-1.84,1.07-3.01,3.04-3.01,5.2,0,.39.04.77.11,1.15-1.22.38-2.11,1.51-2.11,2.85,0,1.37.93,2.52,2.19,2.87l.43,1.72c.31,1.26.96,2.41,1.88,3.32.88.89,1.38,2.04,1.47,3.28-1.15.43-1.97,1.52-1.97,2.81,0,1.35.9,2.48,2.13,2.86l.88,5.3c.08.49.5.84.99.84h6c.49,0,.91-.35.99-.84l.88-5.3c1.23-.38,2.13-1.51,2.13-2.86,0-1.29-.82-2.38-1.97-2.81.09-1.24.59-2.39,1.47-3.28.92-.91,1.57-2.06,1.88-3.32l.43-1.72c1.26-.35,2.19-1.5,2.19-2.87,0-1.34-.89-2.47-2.11-2.85ZM31,16c0,.34-.06.67-.14,1h-7.72c-.08-.33-.14-.66-.14-1,0-2.21,1.79-4,4-4s4,1.79,4,4ZM24,7c1.88,0,3.46,1.31,3.88,3.07-.29-.04-.58-.07-.88-.07-1.09,0-2.11.3-3,.81-1.16-.67-2.55-.93-3.88-.74.42-1.76,2-3.07,3.88-3.07ZM19.41,12.32c.92-.39,1.98-.41,2.92-.08-.83,1.03-1.33,2.34-1.33,3.76,0,.34.03.67.09,1h-3.95c-.08-.33-.14-.66-.14-1,0-1.6.95-3.04,2.41-3.68ZM26.15,41h-4.3l-.67-4h5.64l-.67,4ZM28,35h-8c-.55,0-1-.45-1-1s.45-1,1-1h8c.55,0,1,.45,1,1s-.45,1-1,1ZM30.44,24.11c-.22.9-.69,1.73-1.35,2.39-1.22,1.21-1.94,2.8-2.06,4.5h-6.06c-.12-1.7-.84-3.29-2.06-4.5-.66-.66-1.13-1.49-1.35-2.39l-.28-1.11h13.44l-.28,1.11ZM32,21h-16c-.55,0-1-.45-1-1s.45-1,1-1h16c.55,0,1,.45,1,1s-.45,1-1,1Z"/>
</svg>