<?xml version="1.0" encoding="UTF-8"?>
<svg id="Outline" xmlns="http://www.w3.org/2000/svg" version="1.1" viewBox="0 0 64 64">
  <!-- Generator: Adobe Illustrator 29.5.1, SVG Export Plug-In . SVG Version: 2.1.0 Build 141)  -->
  <path d="M56,44.998h-4c-.55,0-1,.45-1,1v4c0,.55-.45,1-1,1h-7v-4h5c.55,0,1-.45,1-1v-9c0-3.86-3.14-7-7-7h-3.76c-1.21,0-2.4-.24-3.54-.7-1.12-.47-2.13-1.14-2.99-2.01-1.72-1.72-2.71-4.1-2.71-6.53V7.998c0-.29-.12-.56-.34-.75-.21-.19-.49-.27-.78-.24l-17,2c-.5.06-.88.48-.88.99v4c0,.55.45,1,1,1s1-.45,1-1v-3.11l6-.71v11.91c0,1.14.2,2.24.53,3.28.01.01.01.02.02.03.86,2.63,2.72,4.85,5.29,6.14l1.43.71c2.37,1.19,3.99,3.35,4.52,5.86l-5.48-2.99c-.15-.08-.31-.12-.48-.12h-14.83v-.76c0-2.43.99-4.81,2.71-6.53.18-.19.29-.44.29-.71v-5c0-.55-.45-1-1-1s-1,.45-1,1v4.6c-1.91,2.06-3,4.82-3,7.64v5.76c0,.01.01.02.01.03,0,.09.01.19.04.29l2,6c.14.4.52.68.95.68h1v4h-3c-.55,0-1,.45-1,1v4c0,.55.45,1,1,1h42c3.86,0,7-3.14,7-7v-4c0-.55-.45-1-1-1ZM26.16,30.458l-1.43-.71c-1.67-.84-2.96-2.16-3.77-3.75h.04c.55,0,1-.45,1-1s-.45-1-1-1h-.77c-.14-.62-.23-1.26-.23-1.91v-.09h1c.55,0,1-.45,1-1s-.45-1-1-1h-1v-2h1c.55,0,1-.45,1-1s-.45-1-1-1h-1v-2h1c.55,0,1-.45,1-1s-.45-1-1-1h-1v-2c0-.02-.01-.03-.01-.05l7.01-.83v11.64c0,2.96,1.2,5.85,3.29,7.95,1.05,1.05,2.28,1.87,3.65,2.44,1.38.56,2.83.85,4.3.85h3.76c2.76,0,5,2.24,5,5v4h-11.92l-3.12-1.71c-.22-3.77-2.38-7.12-5.8-8.83ZM9,38.998v-2h14.57l10.78,5.88c.15.08.31.12.48.12h12.17v2h-13.57l-10.78-5.88c-.15-.08-.31-.12-.48-.12h-13.17ZM41,46.998v4h-2v-4h2ZM37,46.998v4h-20v-4h1c.43,0,.81-.28.95-.68l1.77-5.32h1.2l10.77,5.88c.15.08.31.12.48.12h3.83ZM10.72,44.998l-1.33-4h9.22l-1.33,4h-6.56ZM15,46.998v4h-2v-4h2ZM55,49.998c0,2.76-2.24,5-5,5H9v-2h41c1.65,0,3-1.35,3-3v-3h2v3Z"/>
  <circle cx="11" cy="17.998" r="1"/>
</svg>