<?xml version="1.0" encoding="UTF-8"?>
<svg id="Outline" xmlns="http://www.w3.org/2000/svg" version="1.1" viewBox="0 0 64 64">
  <!-- Generator: Adobe Illustrator 29.3.1, SVG Export Plug-In . SVG Version: 2.1.0 Build 151)  -->
  <path d="M44.57001,19.67999c-.51001-.31-1.08002-.44-1.66003-.42999.05005-.41003.09003-.83002.09003-1.25,0-6.07001-4.92999-11-11-11s-11,4.92999-11,11c0,.41998.03998.83997.09003,1.26001-.58002-.02002-1.15002.10999-1.66003.41998-.89996.54999-1.42999,1.51001-1.42999,2.56v.76001c0,1.29999.84003,2.39996,2,2.82001v1.17999c0,1.40997.97998,2.58997,2.29999,2.90997l6.85004,25c.39996,1.27002,1.51996,2.09003,2.84998,2.09003s2.45001-.82001,2.85999-2.13l6.84003-24.96002c1.32001-.32001,2.29999-1.5,2.29999-2.90997v-1.17999c1.15997-.42004,2-1.52002,2-2.82001v-.76001c0-1.04999-.53003-2.01001-1.42999-2.56ZM32,9c4.96002,0,9,4.03998,9,9,0,.59998-.08002,1.20001-.20001,1.77997-.08997-.01001-.17999-.01001-.26001-.03998l-3.33997-1.34003c-.79004-.31-1.67999-.26996-2.45001.10004l-2.31,1.15997c-.27002.13-.60999.13-.88-.01001l-2.32001-1.14996c-.77002-.37-1.65997-.41003-2.44-.10004l-3.33997,1.34003c-.08002.02997-.17004.02997-.26001.03998-.12-.57996-.20001-1.17999-.20001-1.77997,0-4.96002,4.03998-9,9-9ZM32.95001,54.31c-.21002.64001-.78003.69-.95001.69s-.73999-.04999-.94-.65002l-2.27997-8.34998c1.68994,1.28998,3.62,2.20001,5.70996,2.65997l-1.53998,5.65002ZM35.02002,46.71997c-2.39001-.5-4.55005-1.65997-6.28003-3.39996l-.95001-.95001-1.57996-5.73999,1.10999,1.09998c2.44,2.45001,5.60999,3.91003,9.01001,4.21002l-1.31,4.77997ZM36.87,39.95996c-3.07001-.17999-5.94-1.44-8.14001-3.63995l-3.57996-3.59003-.75-2.72998h15.19995l-2.72998,9.95996ZM44,23c0,.54999-.45001,1-1,1h-10c-.54999,0-1,.45001-1,1s.45001,1,1,1h9v1c0,.54999-.45001,1-1,1h-18c-.54999,0-1-.45001-1-1v-1h3c.54999,0,1-.45001,1-1s-.45001-1-1-1h-4c-.54999,0-1-.45001-1-1v-.76001c0-.51001.33002-.77002.47998-.85999.14001-.09003.51001-.26001.98004-.03003l.29999.15002c.76001.37,1.64996.40997,2.44.09998l3.33997-1.33997c.26001-.10004.56-.09003.81.02997l2.31,1.15002c.84003.41998,1.84003.41998,2.68005,0l2.29999-1.14001c.26001-.13.56-.14001.82001-.03998l3.33997,1.33997c.74737.29984,1.70531.262,2.42999-.09998l.33002-.16003c.45001-.21997.82001-.03998.96002.04004.14996.08997.47998.34998.47998.85999v.76001Z"/>
  <circle cx="29" cy="25" r="1"/>
</svg>