<?xml version="1.0" encoding="UTF-8"?>
<svg id="Outline" xmlns="http://www.w3.org/2000/svg" version="1.1" viewBox="0 0 64 64">
  <!-- Generator: Adobe Illustrator 29.3.1, SVG Export Plug-In . SVG Version: 2.1.0 Build 151)  -->
  <path d="M46.18573,19.04707c-.16003-1.60999-.94-3.04999-2.20001-4.04999-.83002-.67004-1.82001-1.10004-2.88-1.25l-.84998-.12c-.04004-.12-.10004-.23004-.17999-.33002l-3.36005-4.04999c-.48999-.72003-1.16998-1.31-1.94995-1.70001-2.16003-1.09003-4.83002-.5-6.34003,1.39001l-1.29999,1.62c-.26001.33002-.62.56-1.02002.67999l-3.02997.85999c-1.07001.31-1.94,1.02002-2.46002,2-.41998.79004-.53998,1.66998-.40002,2.54004-.79999.47998-1.46997,1.17999-1.90997,2.06-.70001,1.39996-.70001,3.06995,0,4.46997l.48999.98999c-.28998.16998-.48999.48004-.48999.84003v4c0,.54999.45001,1,1,1h1.22998l6.05005,23.34998c.56,2.15002,2.5,3.65002,4.71997,3.65002s4.15997-1.5,4.71997-3.65002l6.05005-23.34998h1.22998c.54999,0,1-.45001,1-1v-4c0-.23999-.09998-.45001-.23999-.62l.77002-.92004c1.03998-1.23999,1.51996-2.81,1.34998-4.40997ZM22.59571,29.99708h7.30005l-5.80005,5.78998-1.5-5.78998ZM24.68573,38.03706l8.02997-8.03998h3.18005l-10.56,10.56-.65002-2.52002ZM34.09571,52.84706c-.32996,1.26001-1.47998,2.15002-2.78998,2.15002s-2.46002-.89001-2.78998-2.15002l-.13-.52002,7.88-7.87994-2.17004,8.39996ZM37.25574,40.6371l-9.45001,9.44995-.65002-2.51996,11.21002-11.22003-1.10999,4.29004ZM39.35572,32.53706l-12.78998,12.78003-.65002-2.52002,12.79999-12.79999h1.30005l-.66003,2.53998ZM42.30573,27.99708h-22v-2h22v2ZM43.30573,22.17708l-1.52002,1.82001h-20.82996l-.86005-1.72003c-.41998-.83997-.41998-1.84998,0-2.69.51001-1.01996,1.54004-1.65997,2.67999-1.65997h2.87006c1.33997,0,2.58997-.52002,3.53998-1.46002l.83002-.82996c.38995-.39001.38995-1.02002,0-1.41003-.39001-.39001-1.03003-.39001-1.42004,0l-.82996.83002c-.56.56-1.32001.87-2.12.87h-2.87006c-.20996,0-.40997.02002-.62.04999,0-.33002.07001-.65002.23004-.95001.26001-.48999.70001-.84998,1.23999-1l3.02997-.87c.80005-.22998,1.51001-.70001,2.03003-1.35999l1.29999-1.60999c.91998-1.16003,2.56-1.52002,3.88-.86005.5.25.91998.62006,1.22003,1.08002.01996.03003.03998.06.06.08002l2.26996,2.73999-1.96997-.28998c-.54999-.07001-1.04999.31-1.13.84998-.08002.54999.29999,1.06.84998,1.13l5.66003.81c.69995.09998,1.35999.39001,1.90997.83002.84003.66998,1.35999,1.62,1.46002,2.69.10999,1.06-.21002,2.09998-.89001,2.92999Z"/>
</svg>