<?xml version="1.0" encoding="UTF-8"?>
<svg id="Outline" xmlns="http://www.w3.org/2000/svg" version="1.1" viewBox="0 0 64 64">
  <!-- Generator: Adobe Illustrator 29.3.1, SVG Export Plug-In . SVG Version: 2.1.0 Build 151)  -->
  <path d="M44.21997,28.0189c.40002-2.41998.21002-4.89996-.57996-7.25l-.65002-1.95996c-.04999-2.13-.89001-4.13-2.39996-5.64001l-.74005-.72998c-.75995-2.07001-2.25-3.76001-4.22998-4.75l-1.16998-.58002c-.5-.25-1.10004-.04999-1.34003.44l-1.33997,2.66998c-.89001,1.78003-2.60004,2.96002-4.58002,3.16003-1.84003.17999-3.47003,1.17999-4.47998,2.72998-.97003,1.51001-1.22003,3.34003-.70001,5.06-.82001,1.37-1.17999,2.95001-1.04004,4.57001-.43994.66998-.73999,1.44-.87994,2.26001h-.09003c-1.65002,0-3,1.34998-3,3s1.34998,3,3,3h.37l10.72998,22.42999c.16003.34998.52002.57001.90002.57001s.73999-.22003.90002-.57001l10.72998-22.42999h.37c1.65002,0,3-1.35004,3-3,0-1.58002-1.22998-2.85999-2.78003-2.98004ZM24.39001,17.19896c.67999-1.04004,1.76996-1.71002,3-1.83002,2.66998-.27002,4.96997-1.85999,6.16998-4.25l.89001-1.78003.26996.14001c1.41003.70001,2.49005,1.84998,3.11005,3.27002l-.32001.32001c-2.54999,2.54999-5.94,4.10999-9.54004,4.38995-1.56995.12-3.00995.70001-4.19995,1.67004.03998-.67999.23999-1.34003.62-1.92999ZM24.16998,21.53892c.98999-1.21997,2.39001-1.96002,3.96002-2.08002,4.07001-.31995,7.90997-2.07996,10.79999-4.96997l.07001-.08002.16998.17999c1.07001,1.06,1.69,2.45001,1.81,3.92999-3.63,2.89001-8.14996,4.48004-12.78998,4.48004h-2.19c-1.06,0-2.04999.27997-2.90997.76001.19-.80005.54999-1.55005,1.07996-2.22003ZM26,24.99895h2.19c4.78998,0,9.46002-1.53003,13.31-4.34003l.25.75c.71002,2.13.85999,4.39001.44,6.59003h-20.04999c.45001-1.72003,2-3,3.85999-3ZM32,53.67894l-1.89001-3.95001,4.09003-.65002-2.20001,4.60004ZM35.25,46.88896l-6.03998.95996-1.32001-2.77002,8.89996-1.40997-1.53998,3.22003ZM37.83002,41.47893l-10.84003,1.72003-1.32001-2.76001,13.70001-2.17999-1.53998,3.21997ZM40.41998,36.06895l-15.64996,2.48999-2.17999-4.56h18.81995l-.98999,2.07001ZM44,31.99895h-24c-.54999,0-1-.45001-1-1s.45001-1,1-1h24c.54999,0,1,.45001,1,1s-.45001,1-1,1Z"/>
</svg>