<?xml version="1.0" encoding="UTF-8"?>
<svg id="Outline" xmlns="http://www.w3.org/2000/svg" version="1.1" viewBox="0 0 64 64">
  <!-- Generator: Adobe Illustrator 29.5.1, SVG Export Plug-In . SVG Version: 2.1.0 Build 141)  -->
  <path d="M43.91,24.709c.05-.23.09-.47.09-.71,0-.91-.41-1.74-1.08-2.3.05-.23.08-.46.08-.7,0-1.31-.84-2.42-2-2.83v-.17c0-1.29-.82-2.43-2.05-2.85-.47-.15-.86-.29-1.17-.5l-1.07-.71c-.44-.3-.71-.8-.71-1.33,0-1.38-.76-2.61-1.99-3.22l-4.56-2.28c-.35-.18-.77-.13-1.08.11-.3.24-.43.64-.34,1.02l.5,2.01c.16.61-.2,1.25-.79,1.45-.96.32-1.72,1.08-2.04,2.04l-.45,1.36c-1.29.33-2.25,1.51-2.25,2.9v.17c-1.16.41-2,1.52-2,2.83,0,.24.03.47.08.7-.67.56-1.08,1.39-1.08,2.3,0,.24.04.48.09.71-.06.05-.14.1-.2.16-.57.56-.89,1.32-.89,2.13,0,1.37.93,2.52,2.19,2.88l6.09,23.47c.55,2.15,2.5,3.65,4.72,3.65s4.17-1.5,4.72-3.65l6.09-23.47c.49-.14.94-.39,1.3-.75.57-.56.89-1.32.89-2.13,0-.93-.43-1.74-1.09-2.29ZM22.67,23.059c.29-.1.52-.33.62-.62.1-.29.05-.61-.11-.87-.12-.17-.18-.37-.18-.57,0-.55.43-1.01,1.07-.99.01,0,.1.01.11.01.1.01.2.01.29-.01,2.48,1.3,5.24,1.99,8.04,1.99h2.49c.55,0,1-.45,1-1s-.45-1-1-1h-2.49c-2.63,0-5.22-.69-7.51-1.98v-.02c0-.55.45-1,1-1,.43,0,.81-.28.95-.68l.65-1.95c.12-.36.41-.65.77-.77,1.55-.52,2.47-2.15,2.13-3.73l2.61,1.31c.55.27.89.82.89,1.43,0,1.2.6,2.33,1.6,2.99l1.07.71c.56.38,1.19.59,1.64.74.41.14.69.52.69.95,0,.18-.05.35-.15.52-.19.32-.19.73.02,1.05.2.32.57.49.95.45.01,0,.17-.02.18-.02.55,0,1,.45,1,1,0,.2-.06.4-.18.57-.16.26-.21.58-.11.87.1.29.33.52.62.62.4.14.67.52.67.94h-20c0-.42.27-.8.67-.94ZM34.78,52.849c-.32,1.27-1.47,2.15-2.78,2.15s-2.46-.88-2.78-2.15l-4.63-17.85h14.82l-4.63,17.85ZM42.69,27.709c-.18.19-.42.29-.69.29h-9c-.55,0-1,.45-1,1s.45,1,1,1h7.71l-.78,3h-15.86l-.78-3h1.71c.55,0,1-.45,1-1s-.45-1-1-1h-3c-.55,0-1-.45-1-1,0-.27.1-.51.31-.71.18-.19.42-.29.69-.29h20c.13,0,.25.03.36.07.01.01.02.01.03.01.36.15.61.51.61.92,0,.27-.1.51-.31.71Z"/>
  <circle cx="29" cy="28.999" r="1"/>
</svg>