<?xml version="1.0" encoding="UTF-8"?>
<svg id="Outline" xmlns="http://www.w3.org/2000/svg" version="1.1" viewBox="0 0 64 64">
  <!-- Generator: Adobe Illustrator 29.5.1, SVG Export Plug-In . SVG Version: 2.1.0 Build 141)  -->
  <path d="M45.13,27.891c-.24-.24-.52-.43-.82-.58.2-.67.3-1.38.3-2.09,0-2.21-.99-4.33-2.67-5.75-.2-1.32-.57-2.62-1.1-3.86-.22-.51-.81-.75-1.31-.53-.51.22-.75.81-.53,1.31.51,1.2.85,2.45,1.01,3.73.03.27.17.52.39.68,1.38,1.04,2.21,2.69,2.21,4.42,0,.61-.12,1.2-.32,1.78h-3.29c-.55,0-1,.45-1,1s.45,1,1,1h4c.27,0,.51.1.71.31.19.18.29.42.29.69,0,.55-.45,1-1,1h-22c-.27,0-.51-.1-.71-.31-.19-.18-.29-.42-.29-.69,0-.55.45-1,1-1h14c.55,0,1-.45,1-1s-.45-1-1-1h-13.38l-.44-.87c-.57-1.16-.35-2.55.56-3.45l.97-.97c.25-.25.35-.61.26-.95l-.45-1.81c-.25-1.02.04-2.1.78-2.83l1.41-1.41c.1-.11.19-.24.24-.38l.12-.37c.39-1.17,1.48-1.96,2.79-1.96,1.67,0,3.22-.83,4.15-2.22.12-.17.23-.34.33-.49,1.69.84,3.14,1.97,4.32,3.36.36.42.99.47,1.41.11.42-.36.47-.99.11-1.41-1.35-1.59-3.01-2.88-4.95-3.86l-.79-.39c-.45-.22-.99-.07-1.27.34,0,0-.39.59-.82,1.23-.56.83-1.49,1.33-2.56,1.33-2.11,0-3.96,1.34-4.62,3.33l-.04.13-1.25,1.24c-1.22,1.23-1.72,3.04-1.3,4.73l.31,1.26-.57.57c-1.51,1.52-1.89,3.83-.93,5.76l.18.36c-.93.51-1.57,1.49-1.57,2.62,0,.81.32,1.57.87,2.11.37.37.82.63,1.32.77l5.84,23.36c.11.45.51.76.97.76h10c.46,0,.86-.31.97-.76l5.84-23.37c1.26-.35,2.19-1.5,2.19-2.87,0-.81-.32-1.57-.87-2.11ZM31,55.001h-3.22l-1-4h4.22v4ZM31,49.001h-4.72l-1-4h5.72v4ZM31,43.001h-6.22l-1-4h7.22v4ZM31,37.001h-7.72l-1-4h8.72v4ZM36.22,55.001h-3.22v-4h4.22l-1,4ZM37.72,49.001h-4.72v-4h5.72l-1,4ZM39.22,43.001h-6.22v-4h7.22l-1,4ZM40.72,37.001h-7.72v-4h8.72l-1,4Z"/>
  <path d="M32,26.001c2.206,0,4-1.794,4-4v-1c0-.553-.448-1-1-1h-6c-.552,0-1,.447-1,1v1c0,2.206,1.794,4,4,4ZM34,22.001c0,1.103-.897,2-2,2s-2-.897-2-2h4Z"/>
  <path d="M29,18.001v-2c0-.553-.448-1-1-1s-1,.447-1,1v2c0,.553.448,1,1,1s1-.447,1-1Z"/>
  <path d="M37,18.001v-2c0-.553-.448-1-1-1s-1,.447-1,1v2c0,.553.448,1,1,1s1-.447,1-1Z"/>
</svg>