<?xml version="1.0" encoding="UTF-8"?>
<svg id="Outline" xmlns="http://www.w3.org/2000/svg" version="1.1" viewBox="0 0 64 64">
  <!-- Generator: Adobe Illustrator 29.5.1, SVG Export Plug-In . SVG Version: 2.1.0 Build 141)  -->
  <path d="M44.83,20.41c-.44-.43-.96-.74-1.52-.93.44-.64.69-1.41.69-2.24,0-1.07-.42-2.07-1.17-2.83-.66-.65-1.5-1.03-2.41-1.13.36-.6.58-1.29.58-2.04,0-1.07-.42-2.07-1.17-2.83-.76-.75-1.76-1.17-2.83-1.17h-10c-2.21,0-4,1.79-4,4,0,.73.21,1.43.58,2.04-2.01.22-3.58,1.9-3.58,3.96,0,.81.24,1.58.69,2.24-1.56.54-2.69,2.02-2.69,3.76,0,1.07.42,2.07,1.17,2.83.25.25.53.44.83.62v1.55c0,1.39.95,2.55,2.24,2.89l7.84,24.2c.26.86,1.03,1.43,1.92,1.43s1.66-.57,1.91-1.4l7.85-24.23c1.29-.34,2.24-1.5,2.24-2.89v-1.56c1.19-.69,2-1.97,2-3.44,0-1.07-.42-2.07-1.17-2.83ZM31.99,54.74l-7.61-23.5h15.24l-7.63,23.5ZM42,28.24c0,.55-.45,1-1,1h-18c-.55,0-1-.45-1-1v-1h20v1ZM42,25.24h-20c-.53,0-1.03-.21-1.41-.59-.38-.38-.59-.88-.59-1.41,0-1.1.9-2,2-2h4c.55,0,1-.45,1-1s-.45-1-1-1h-2c-.53,0-1.03-.21-1.41-.59-.38-.38-.59-.88-.59-1.41,0-1.1.9-2,2-2h7c.55,0,1-.45,1-1s-.45-1-1-1h-4c-.53,0-1.03-.21-1.41-.59-.38-.38-.59-.88-.59-1.41,0-1.1.9-2,2-2h10c1.069,0,2,.936,2,2,0,1.1-.9,2-2,2h-1c-.55,0-1,.45-1,1s.45,1,1,1h4c.53,0,1.03.21,1.41.59.38.38.59.88.59,1.41,0,1.1-.9,2-2,2h-4c-.55,0-1,.45-1,1s.45,1,1,1h6c1.075,0,2,.928,2,2,0,1.1-.9,2-2,2Z"/>
</svg>