<?xml version="1.0" encoding="UTF-8"?>
<svg id="Outline" xmlns="http://www.w3.org/2000/svg" version="1.1" viewBox="0 0 64 64">
  <!-- Generator: Adobe Illustrator 29.5.1, SVG Export Plug-In . SVG Version: 2.1.0 Build 141)  -->
  <path d="M47,7h-11.66c-.48,0-.89.34-.98.82l-.65,3.47c-.88-.19-1.79-.29-2.71-.29-6.83,0-12.44,5.3-12.95,12h-1.05c-.55,0-1,.45-1,1v4c0,.55.45,1,1,1h1.07l1.8,25.21c.11,1.57,1.43,2.79,2.99,2.79h16.28c1.56,0,2.88-1.22,2.99-2.79l1.8-25.21h1.07c.55,0,1-.45,1-1v-4c0-.55-.45-1-1-1h-1.05c-.23-3.1-1.54-5.98-3.75-8.2-.29-.28-.59-.55-.9-.81l.19-.99h7.51c.55,0,1-.45,1-1v-4c0-.55-.45-1-1-1ZM35.26,13.85c.65.27,1.26.6,1.85.99l-1.53,8.16h-2.04l1.72-9.15ZM40.14,54.07c-.04.52-.48.93-1,.93h-16.28c-.52,0-.96-.41-1-.93l-1.09-15.34c2.22,1.5,6.24,2.27,10.23,2.27s8.01-.77,10.23-2.27l-1.09,15.34ZM21,36c0-1.19,3.99-3,10-3s10,1.81,10,3-3.99,3-10,3-10-1.81-10-3ZM41.6,33.54c-2.12-1.67-6.37-2.54-10.6-2.54s-8.48.87-10.6,2.54l-.33-4.54h21.86l-.33,4.54ZM44,25v2h-26v-2h3c.55,0,1-.45,1-1s-.45-1-1-1h-.96c.51-5.6,5.23-10,10.96-10,.8,0,1.58.09,2.34.25l-1.83,9.75h-2.51c-.55,0-1,.45-1,1s.45,1,1,1h15ZM41.96,23h-4.34l1.25-6.69c1.78,1.83,2.86,4.17,3.09,6.69ZM46,11h-7.34c-.48,0-.89.34-.98.82l-.18.93c-.6-.35-1.22-.65-1.87-.89l.54-2.86h9.83v2Z"/>
  <circle cx="25" cy="24" r="1"/>
</svg>