<?xml version="1.0" encoding="UTF-8"?>
<svg id="Outline" xmlns="http://www.w3.org/2000/svg" version="1.1" viewBox="0 0 64 64">
  <!-- Generator: Adobe Illustrator 29.5.1, SVG Export Plug-In . SVG Version: 2.1.0 Build 141)  -->
  <path d="M44.558,10.17c-.338-.227-.777-.227-1.115,0-.154.104-3.775,2.573-3.775,5.83,0,2.616,2.334,4.722,3.333,5.503v1.497c0,.553.447,1,1,1s1-.447,1-1v-1.497c.999-.782,3.333-2.887,3.333-5.503,0-3.257-3.621-5.727-3.775-5.83ZM45,18.774v-.774c0-.553-.447-1-1-1s-1,.447-1,1v.774c-.701-.785-1.333-1.776-1.333-2.774,0-1.479,1.385-2.954,2.333-3.745.948.791,2.333,2.266,2.333,3.745,0,.998-.632,1.989-1.333,2.774Z"/>
  <path d="M44,7c-5.51,0-10,4.49-10,10h-4v-9c0-.55-.45-1-1-1h-4c-.55,0-1,.45-1,1v9h-5c-.55,0-1,.45-1,1s.45,1,1,1h15.2c.14.7.36,1.36.64,2H12v-2h3c.55,0,1-.45,1-1s-.45-1-1-1h-4c-.55,0-1,.45-1,1v4c0,.55.45,1,1,1h1.08l.98,11.09c.05.52.49.91,1,.91h.09c.55-.05.95-.54.91-1.09l-.54-6.02.67-.19c3.79-1.08,7.76-1,11.49.25,2.21.73,4.49,1.1,6.78,1.1,1.98,0,3.96-.27,5.9-.83l.09-.02-2.29,25.89c-.04.52-.47.91-.99.91h-18.34c-.52,0-.95-.39-.99-.91l-1.43-16.18c-.05-.55-.52-.95-1.09-.91-.55.05-.95.54-.91,1.09l1.43,16.18c.14,1.56,1.42,2.73,2.99,2.73h18.34c1.57,0,2.85-1.17,2.99-2.73l2.43-27.58c.77.2,1.58.31,2.41.31,5.51,0,10-4.49,10-10s-4.49-10-10-10ZM28,17h-2v-8h2v8ZM39.64,26.06l-.83.24c-3.79,1.08-7.76,1-11.49-.25-4.12-1.37-8.5-1.47-12.68-.27l-.3.08-.25-2.86h21.93c.95,1.26,2.19,2.29,3.62,2.99v.07ZM44,25c-4.41,0-8-3.59-8-8s3.59-8,8-8,8,3.59,8,8-3.59,8-8,8Z"/>
  <path d="M20,47c-.553,0-1,.447-1,1v4c0,.553.447,1,1,1h4c.553,0,1-.447,1-1v-4c0-.553-.447-1-1-1h-4ZM23,51h-2v-2h2v2Z"/>
  <path d="M27,42v4c0,.553.447,1,1,1h4c.553,0,1-.447,1-1v-4c0-.553-.447-1-1-1h-4c-.553,0-1,.447-1,1ZM29,43h2v2h-2v-2Z"/>
  <path d="M25.657,41c0-.266-.105-.52-.293-.707l-2.829-2.828c-.391-.391-1.023-.391-1.414,0l-2.828,2.828c-.391.391-.391,1.023,0,1.414l2.828,2.828c.195.195.451.293.707.293s.512-.098.707-.293l2.829-2.828c.188-.188.293-.441.293-.707ZM21.828,42.414l-1.414-1.414,1.414-1.414,1.415,1.414-1.415,1.414Z"/>
  <path d="M31.172,38.828c.256,0,.512-.098.707-.293l2.828-2.828c.391-.391.391-1.023,0-1.414l-2.828-2.828c-.391-.391-1.023-.391-1.414,0l-2.829,2.828c-.188.188-.293.441-.293.707s.105.52.293.707l2.829,2.828c.195.195.451.293.707.293ZM31.172,33.586l1.414,1.414-1.414,1.414-1.415-1.414,1.415-1.414Z"/>
</svg>