<?xml version="1.0" encoding="UTF-8"?>
<svg id="Outline" xmlns="http://www.w3.org/2000/svg" version="1.1" viewBox="0 0 64 64">
  <!-- Generator: Adobe Illustrator 29.3.1, SVG Export Plug-In . SVG Version: 2.1.0 Build 151)  -->
  <path d="M28.59961,48.66016c-6.54236-1.3324-11.77179-6.53107-13.1933-13.02112.97491-.91302,1.59369-2.20129,1.59369-3.63904s-.61877-2.72601-1.59369-3.63904c1.42151-6.49005,6.65094-11.68872,13.19427-13.02112,1.39014-.28418,2.39941-1.5166,2.39941-2.92969,0-.90918-.40283-1.76172-1.10498-2.33984-.68555-.56445-1.57373-.79004-2.44238-.62109-9.15179,1.84033-16.33539,9.16254-18.04059,18.29419-1.4397.87872-2.41205,2.45013-2.41205,4.25659s.97235,3.37787,2.41205,4.25659c1.70526,9.13159,8.89038,16.4541,18.12848,18.30884.1665.02539.32324.04492.47949.04492,1.64307,0,2.97998-1.35547,2.97998-3.02051,0-1.41309-1.00928-2.64551-2.40039-2.92969ZM27.84229,11.41113c.37354-.07812.65088.0957.78223.20312.23877.19727.37549.48633.37549.7959,0,.47461-.3291.87402-.7998.9707-7.09424,1.44464-12.81488,6.95374-14.60107,13.90533-.50494-.172-1.03674-.28619-1.59912-.28619-.13843,0-.26868.02979-.4043.04089,1.89661-7.83527,8.255-14.02283,16.24658-15.62976ZM12,29c1.6543,0,3,1.3457,3,3s-1.3457,3-3,3-3-1.3457-3-3,1.3457-3,3-3ZM27.84717,52.58984c-7.99615-1.60785-14.35486-7.79547-16.25146-15.63074.13562.01111.26587.04089.4043.04089.56238,0,1.09418-.1142,1.59912-.28619,1.78619,6.9516,7.50677,12.46069,14.6001,13.90533.47168.09668.80078.49609.80078.9707,0,.61328-.57812,1.08105-1.15283,1Z"/>
  <path d="M57,32c0-1.80457-.97015-3.37482-2.40735-4.25409-.65027-3.48566-2.1134-6.81427-4.26648-9.65021-.33398-.43848-.96094-.52637-1.40088-.19238s-.52588.96191-.19189,1.40137c1.74304,2.29706,2.99139,4.94678,3.66669,7.73578-.13428-.01086-.26306-.04047-.40009-.04047-.56238,0-1.09418.1142-1.59912.28619-1.78619-6.9516-7.50677-12.46069-14.6001-13.90533-.47168-.09668-.80078-.49609-.80078-.9707,0-.30957.13672-.59863.37549-.7959.13037-.10645.40576-.27832.77686-.2041,2.48828.50098,4.82861,1.43262,6.95654,2.76758.46826.29492,1.08545.15234,1.37842-.31641.29346-.46777.15186-1.08496-.31592-1.37891-2.33301-1.46289-4.89795-2.4834-7.62891-3.03418-.86279-.17188-1.75195.05762-2.4375.62207-.70215.57812-1.10498,1.43066-1.10498,2.33984,0,1.41309,1.00928,2.64551,2.40039,2.92969,6.54236,1.3324,11.77179,6.53107,13.1933,13.02112-.97491.91302-1.59369,2.20129-1.59369,3.63904s.61877,2.72601,1.59369,3.63904c-1.42151,6.49005-6.65094,11.68872-13.19427,13.02112-1.39014.28418-2.39941,1.5166-2.39941,2.92969,0,1.66504,1.33691,3.02051,2.97998,3.02051.15625,0,.31299-.01953.56738-.05957,9.15179-1.84033,16.33539-9.16254,18.04059-18.29419,1.4397-.87872,2.41205-2.45013,2.41205-4.25659ZM36.15771,52.58789c-.62402.09766-1.15723-.38477-1.15771-.99805,0-.47461.3291-.87402.7998-.9707,7.09424-1.44464,12.81488-6.95374,14.60107-13.90533.50494.172,1.03674.28619,1.59912.28619.13843,0,.26868-.02979.4043-.04089-1.89661,7.83527-8.255,14.02277-16.24658,15.62878ZM52,35c-1.6543,0-3-1.3457-3-3s1.3457-3,3-3,3,1.3457,3,3-1.3457,3-3,3Z"/>
  <path d="M30,39h-2v-3.49963c.77325-.59503,2.46948-1.97894,4-3.74243,1.53052,1.76349,3.22675,3.1474,4,3.74243v6.08557l-1.29297-1.29297c-.39062-.39062-1.02344-.39062-1.41406,0s-.39062,1.02344,0,1.41406l2.99933,2.99933c.09235.09253.20306.16577.32568.21655.12219.05054.25183.07709.38202.07709s.25983-.02655.38202-.07709c.12262-.05078.23334-.12402.32568-.21655l2.99933-2.99933c.39062-.39062.39062-1.02344,0-1.41406s-1.02344-.39062-1.41406,0l-1.29297,1.29297v-6.08557c1.57672-1.21338,7-5.69989,7-10.01501,0-3.02441-2.28809-5.48535-5.10059-5.48535-1.05273,0-2.0542.33887-2.89941.96973-.84521-.63086-1.84668-.96973-2.89941-.96973-.74933,0-1.45911.17908-2.10059.49255-.64148-.31348-1.35126-.49255-2.10059-.49255-1.05273,0-2.0542.33887-2.89941.96973-.84521-.63086-1.84668-.96973-2.89941-.96973-2.8125,0-5.10059,2.46094-5.10059,5.48535,0,4.31512,5.42328,8.80164,7,10.01501v3.49963h-2c-.55225,0-1,.44727-1,1s.44775,1,1,1h2v3c0,.55273.44775,1,1,1s1-.44727,1-1v-3h2c.55225,0,1-.44727,1-1s-.44775-1-1-1ZM36.26221,22.98828c.37891.41406,1.09668.41406,1.47559,0,.58301-.6377,1.35059-.98828,2.16162-.98828,1.70947,0,3.10059,1.56348,3.10059,3.48535,0,2.94727-3.90576,6.61914-6,8.2627-1.0368-.81366-2.51685-2.12506-3.74786-3.599,1.00848-1.46393,1.74786-3.0744,1.74786-4.6637,0-1.30988-.43048-2.51306-1.14557-3.4574.08258-.00745.16187-.02795.24615-.02795.81104,0,1.57861.35059,2.16162.98828ZM31,25.48535c0-1.00842.38898-1.91064,1-2.54761.61102.63696,1,1.53918,1,2.54761,0,.93579-.39545,1.94452-1,2.93829-.60455-.99377-1-2.0025-1-2.93829ZM21,25.48535c0-1.92188,1.39111-3.48535,3.10059-3.48535.81104,0,1.57861.35059,2.16162.98828.37891.41406,1.09668.41406,1.47559,0,.58301-.6377,1.35059-.98828,2.16162-.98828.08429,0,.16357.02051.24615.02795-.71509.94434-1.14557,2.14752-1.14557,3.4574,0,1.58929.73938,3.19977,1.74786,4.6637-1.23102,1.47394-2.71106,2.78534-3.74786,3.599-2.09424-1.64355-6-5.31543-6-8.2627Z"/>
  <path d="M47.52783,16.46808c.39056-.3905.39056-1.02368,0-1.41418-.3905-.39056-1.02368-.39056-1.41418,0-.3905.3905-.3905,1.02368,0,1.41418s1.02368.3905,1.41418,0Z"/>
</svg>