<?xml version="1.0" encoding="UTF-8"?>
<svg id="Outline" xmlns="http://www.w3.org/2000/svg" version="1.1" viewBox="0 0 64 64">
  <!-- Generator: Adobe Illustrator 29.5.1, SVG Export Plug-In . SVG Version: 2.1.0 Build 141)  -->
  <path d="M56,39.99023c.54999,0,1-.45001,1-1v-3c0-1.65002-1.34998-3-3-3h-13c-.54999,0-1,.45001-1,1s.45001,1,1,1h2v12h-8v-12h2c.54999,0,1-.45001,1-1s-.45001-1-1-1h-10.84003c-1.14996-2.63-3.39996-4.67004-6.15997-5.54004v-3.45996h1c.38,0,.72998-.22003.90002-.57001.16998-.34003.12-.75-.12-1.04999l-4-5c-.38-.48004-1.18005-.48004-1.56006,0l-4,5c-.23999.29999-.28998.70996-.12,1.04999.17004.34998.52002.57001.90002.57001h1v3.45996c-4.04999,1.28003-7,5.07001-7,9.54004,0,5.51001,4.48999,10,10,10,1.41998,0,2.77002-.29999,4-.84003v7.84003c0,1.64996,1.34998,3,3,3h30c1.65002,0,3-1.35004,3-3v-11c0-.54999-.45001-1-1-1s-1,.45001-1,1v3c0,.54999-.45001,1-1,1h-9v-2h7c.54999,0,1-.45001,1-1v-6c0-.54999-.45001-1-1-1h-7v-2h9c.54999,0,1,.45001,1,1v3c0,.54999.45001,1,1,1ZM17,19.59021l1.91998,2.40002c-.51001.03998-.91998.46997-.91998,1v4.04999c-.33002-.03003-.65997-.04999-1-.04999s-.66998.01996-1,.04999v-4.04999c0-.53003-.40997-.96002-.91998-1l1.91998-2.40002ZM17,44.99023c-4.40997,0-8-3.59003-8-8s3.59003-8,8-8,8,3.58997,8,8-3.59003,8-8,8ZM33,54.99023h-9c-.54999,0-1-.45001-1-1v-1h7c.54999,0,1-.45001,1-1s-.45001-1-1-1h-7v-2.17999c.31.10999.65002.17999,1,.17999h9v6ZM33,46.99023h-9c-.54999,0-1-.45001-1-1v-1.02002c.76001-.57001,1.42999-1.25,2-2.01001v1.03003c0,.54999.45001,1,1,1h7v2ZM33,42.99023h-6v-4h6v4ZM33,36.99023h-6c0-.67999-.07001-1.35004-.20001-2h6.20001v2ZM43,54.99023h-8v-6h8v6ZM54,48.99023c.34998,0,.69-.07001,1-.17999v2.17999h-7c-.54999,0-1,.45001-1,1s.45001,1,1,1h7v1c0,.54999-.45001,1-1,1h-9v-6h9ZM51,38.99023v4h-6v-4h6Z"/>
  <path d="M16.23633,34.99023h2.76367c.55273,0,1-.44775,1-1s-.44727-1-1-1h-1v-1c0-.55225-.44727-1-1-1s-1,.44775-1,1v1.02393c-1.12109.11981-2,1.05988-2,2.21191,0,.85254.47363,1.61914,1.23633,2.00049l2.63281,1.31641c.08105.04004.13086.12109.13086.21143,0,.12988-.10645.23584-.23633.23584h-2.76367c-.55273,0-1,.44775-1,1s.44727,1,1,1h1v1c0,.55225.44727,1,1,1s1-.44775,1-1v-1.02393c1.12109-.11981,2-1.05988,2-2.21191,0-.85254-.47363-1.61914-1.23633-2.00049l-2.63281-1.31641c-.08105-.04004-.13086-.12109-.13086-.21143,0-.12988.10645-.23584.23633-.23584Z"/>
  <path d="M20,13.99023h1v4c0,.55225.44727,1,1,1h4c.55273,0,1-.44775,1-1v-4h1c.38477,0,.73438-.22021.90137-.56689.16602-.34619.12012-.75781-.12012-1.05762l-4-5c-.38086-.47461-1.18164-.47461-1.5625,0l-4,5c-.24023.2998-.28613.71143-.12012,1.05762.16699.34668.5166.56689.90137.56689ZM24,9.59082l1.92188,2.40234c-.51562.04004-.92188.47119-.92188.99707v4h-2v-4c0-.52588-.40625-.95703-.92188-.99707l1.92188-2.40234Z"/>
</svg>