<?xml version="1.0" encoding="UTF-8"?>
<svg id="Outline" xmlns="http://www.w3.org/2000/svg" version="1.1" viewBox="0 0 64 64">
  <!-- Generator: Adobe Illustrator 29.5.1, SVG Export Plug-In . SVG Version: 2.1.0 Build 141)  -->
  <path d="M56,19H8c-.55,0-1,.45-1,1v24c0,.34.17.65.45.83.28.19.64.22.94.09l6.61-2.83,6.61,2.83c.12.05.26.08.39.08.19,0,.38-.06.55-.17.28-.18.45-.49.45-.83v-19h1v19c0,.34.17.65.45.83.28.19.64.22.94.09l3.98-1.7c.01-.01.03-.02.04-.02l2.59-1.11,2.59,1.11c.01,0,.03.01.04.02,0,0,3.96,1.69,3.98,1.7.65.28,1.39-.22,1.39-.92v-19h1v19c0,.34.17.65.45.83.28.19.64.22.94.09l6.61-2.83,6.61,2.83c.12.05.26.08.39.08.54,0,1-.47,1-1v-24c0-.55-.45-1-1-1ZM21,42.48l-5.61-2.4c-.12-.05-.26-.08-.39-.08s-.27.03-.39.08l-5.61,2.4v-17.48h12v17.48ZM28,41.63l-2,.85v-17.48h2v16.63ZM34,40.77l-1.61-.69c-.12-.05-.26-.08-.39-.08s-.27.03-.39.08l-1.61.69v-15.77h4v15.77ZM38,42.48l-2-.85v-16.63h2v17.48ZM55,42.48l-5.61-2.4c-.12-.05-.26-.08-.39-.08s-.27.03-.39.08l-5.61,2.4v-17.48h12v17.48ZM55,23H9v-2h46v2Z"/>
  <path d="M12.18,34.233l-.126,1.692c-.025.346.129.68.409.883.281.205.646.248.967.117l1.57-.644,1.57.644c.122.05.251.074.379.074.576,0,1.039-.5.997-1.074l-.126-1.692,1.097-1.295c.225-.265.296-.626.188-.955-.107-.33-.377-.581-.714-.663l-1.648-.402-.893-1.444c-.365-.588-1.336-.588-1.701,0l-.893,1.444-1.648.402c-.337.082-.606.333-.714.663-.107.329-.036.69.188.955l1.097,1.295ZM14.129,32.764c.255-.062.476-.223.613-.445l.258-.417.258.417c.138.223.358.383.613.445l.476.116-.316.373c-.17.2-.254.459-.234.721l.036.488-.453-.186c-.121-.05-.25-.074-.379-.074s-.258.024-.379.074l-.453.186.036-.488c.02-.262-.064-.521-.234-.721l-.316-.373.476-.116Z"/>
  <path d="M46.18,34.233l-.126,1.692c-.025.346.129.68.409.883.28.205.646.248.967.117l1.57-.644,1.57.644c.122.05.251.074.379.074.573,0,1.039-.505.997-1.074l-.126-1.692,1.097-1.295c.225-.265.296-.626.188-.955-.107-.33-.377-.581-.714-.663l-1.648-.402-.893-1.444c-.365-.588-1.336-.588-1.701,0l-.893,1.444-1.648.402c-.337.082-.606.333-.714.663-.107.329-.036.69.188.955l1.097,1.295ZM48.129,32.764c.255-.062.476-.223.613-.445l.258-.417.258.417c.138.223.358.383.613.445l.476.116-.316.373c-.17.2-.254.459-.234.721l.036.488-.453-.186c-.121-.05-.25-.074-.379-.074s-.258.024-.379.074l-.453.186.036-.488c.02-.262-.064-.521-.234-.721l-.316-.373.476-.116Z"/>
</svg>