<?xml version="1.0" encoding="UTF-8"?>
<svg id="Outline" xmlns="http://www.w3.org/2000/svg" version="1.1" viewBox="0 0 64 64">
  <!-- Generator: Adobe Illustrator 29.3.1, SVG Export Plug-In . SVG Version: 2.1.0 Build 151)  -->
  <path d="M50.62,22.20996c-.25-.19-.57001-.25995-.85999-.17999l-2.76001.69v-12.71997c0-1.65002-1.34998-3-3-3h-22c-1.65002,0-3,1.34998-3,3v3.07996c-1.17999-.67999-2.53998-1.07996-4-1.07996-4.40997,0-8,3.58997-8,8s3.59003,8,8,8h4v26c0,1.64996,1.34998,3,3,3h22c1.65002,0,3-1.35004,3-3v-22.72003l2.76001.69c.08002.02002.15997.03003.23999.03003.21997,0,.44-.07001.62-.21002.23999-.19.38-.47998.38-.78998v-8c0-.31-.14001-.60004-.38-.79004ZM21,10c0-.54999.45001-1,1-1h22c.54999,0,1,.45001,1,1v1.17999c-.31-.10999-.65002-.17999-1-.17999h-22c-.34998,0-.69.07001-1,.17999v-1.17999ZM15,26c-3.31,0-6-2.69-6-6s2.69-6,6-6c1.67999,0,3.20001.70001,4.28998,1.81q0,.01001.01001.01001c1.04999,1.07996,1.70001,2.54999,1.70001,4.17999,0,1.08997-.29999,2.16998-.88,3.10999-.19.32001-.19.71002,0,1.03003l1.10999,1.85999h-6.22998ZM45,54c0,.54999-.45001,1-1,1h-22c-.54999,0-1-.45001-1-1v-1h24v1ZM45,51h-24v-23h2c.35999,0,.69-.19.87-.51001.17999-.31.16998-.70001-.01001-1l-1.72998-2.88c.57001-1.12.87-2.35999.87-3.60999,0-2.02002-.76001-3.85999-2-5.27002v-.72998c0-.54999.45001-1,1-1h22c.54999,0,1,.45001,1,1v9.21997l-2.03003.51001c-.13995-1.52997-1.40997-2.72998-2.96997-2.72998-1.65002,0-3,1.34998-3,3v3h-1.56c.34998-.59003.56-1.27002.56-2v-2c0-2.21002-1.78998-4-4-4s-4,1.78998-4,4v2c0,.72998.21002,1.40997.56,2h-.56c-2.76001,0-5,2.23999-5,5v6c0,1.64996,1.34998,3,3,3,.34998,0,.69-.07001,1-.17999v7.17999c0,.54999.45001,1,1,1h8c.54999,0,1-.45001,1-1v-15h3c1.56,0,2.83002-1.20001,2.96997-2.73004l2.03003.51001v20.22003ZM32,39c-.54999,0-1,.45001-1,1v7h-2v-12c0-.54999-.45001-1-1-1s-1,.45001-1,1v3c0,.54999-.45001,1-1,1s-1-.45001-1-1v-6c0-1.65002,1.34998-3,3-3h10c.54999,0,1-.45001,1-1v-4c0-.54999.45001-1,1-1s1,.45001,1,1v6c0,.54999-.45001,1-1,1h-4c-.54999,0-1,.45001-1,1v15h-2v-7c0-.54999-.45001-1-1-1ZM30,25v-2c0-1.10004.90002-2,2-2s2,.89996,2,2v2c0,1.09998-.90002,2-2,2s-2-.90002-2-2ZM49,29.71997l-6-1.5v-2.44l6-1.5v5.44Z"/>
  <path d="M56,26h-2c-.55273,0-1,.44727-1,1s.44727,1,1,1h2c.55273,0,1-.44727,1-1s-.44727-1-1-1Z"/>
  <path d="M53.82818,25.16512c.25543.00069.51283-.09207.70697-.28622l1.41406-1.41406c.39062-.39062.39062-1.02344,0-1.41406s-1.02344-.39062-1.41406,0l-1.41405,1.41405c-.60937.60937-.14826,1.69798.70708,1.70029Z"/>
  <path d="M54.53516,29.12109c-.39062-.39062-1.02344-.39062-1.41406,0s-.39062,1.02344,0,1.41406l1.41406,1.41406c.37098.37098,1.01964.39442,1.41406,0,.39062-.39062.39062-1.02344,0-1.41406l-1.41406-1.41406Z"/>
  <path d="M14.99902,16.35352c-1.13574-.60449-2.57812-.42969-3.53418.52539-1.16992,1.16992-1.16992,3.07227,0,4.24219l2.82812,2.82812c.19531.19531.45117.29297.70703.29297s.51172-.09766.70703-.29297l2.82812-2.82812c1.16992-1.16992,1.16992-3.07227.00098-4.24219-.92188-.9209-2.42188-1.12695-3.53711-.52539ZM17.12109,19.70703l-2.12109,2.12109-2.12109-2.12109c-.38965-.38965-.38965-1.02441,0-1.41406.19531-.19531.45117-.29199.70703-.29199s.51172.09668.70703.29199c.39062.39062,1.02344.39062,1.41406,0,.38086-.37695,1.03711-.37695,1.41406,0,.38965.38965.38965,1.02441,0,1.41406Z"/>
</svg>