<?xml version="1.0" encoding="UTF-8"?>
<svg id="Outline" xmlns="http://www.w3.org/2000/svg" version="1.1" viewBox="0 0 64 64">
  <!-- Generator: Adobe Illustrator 29.3.1, SVG Export Plug-In . SVG Version: 2.1.0 Build 151)  -->
  <path d="M30,51.27997v-9.95996c0-1.12-.46997-2.19-1.29999-2.95001l-9.48004-8.69c-1.03998-.96002-2.52997-1.16998-3.77997-.63l-2.08002-9.57001c-.35999-1.65002-1.98999-2.71997-3.73999-2.42999-.48999.09998-.92999.28998-1.31.56-.84998.59998-1.34003,1.57001-1.31,2.59998l.63,15.07001c.04999,1.40002.65002,2.70001,1.67999,3.66003l5.96002,5.58997c.63.61005,1,1.39001,1.03998,2.20001l.12,2.12.02002,2.23999c-.84003.23999-1.45001,1-1.45001,1.91003v2c0,1.09998.90002,2,2,2h12c1.09998,0,2-.90002,2-2v-2c0-.73999-.40997-1.38-1-1.72003ZM16.64001,43.07996l-5.97003-5.59998c-.63995-.59998-1.01001-1.40002-1.03998-2.27997l-.63-15.06c-.01001-.35004.16998-.69.46997-.90002.15002-.10999.34003-.19.52002-.22003.65002-.10999,1.28003.28003,1.41003.88l2.32996,10.72003c-.22998.42999-.37.89996-.39996,1.39996-.08002,1.02002.29999,2.02002,1.01996,2.74005l5.94,5.94995c.39001.39001,1.03003.39001,1.42004,0,.38995-.38995.38995-1.02997,0-1.41998l-5.95001-5.94c-.31-.32001-.47003-.73999-.44-1.17999.02997-.45001.25-.84998.60999-1.10999.58002-.44,1.40002-.40002,1.94.08997l9.47998,8.70001c.41003.37.65002.91003.65002,1.47003v2.95996l-9.64001,3.16003-.04999-.83002c-.07001-1.31-.65997-2.56-1.66998-3.53003ZM28,46.38v4.62h-9.54999l-.01001-1.48999,9.56-3.13ZM29,55h-12v-2h12v2Z"/>
  <path d="M55.69,17.59998c-.38-.26001-.82001-.45001-1.34003-.56-1.72998-.27997-3.34998.78003-3.70996,2.44l-2.08002,9.57001c-1.25-.53998-2.73999-.33002-3.77997.63l-9.48004,8.69c-.83002.76001-1.29999,1.83002-1.29999,2.95001v9.95996c-.59003.34003-1,.98004-1,1.72003v2c0,1.09998.90002,2,2,2h12c1.09998,0,2-.90002,2-2v-2c0-.91003-.60999-1.67004-1.45001-1.91003l.02002-2.23999.12-2.12c.03998-.81.40997-1.58997,1.02997-2.19l5.97003-5.59998c1.02997-.96002,1.63-2.26001,1.67999-3.66003l.63-15.07996c.03003-1.02002-.46002-1.99005-1.31-2.60004ZM36,46.38l9.56,3.13-.01001,1.48999h-9.54999v-4.62ZM47,55h-12v-2h12v2ZM54.37,35.20001c-.02997.87994-.40002,1.67999-1.03998,2.27997l-5.98004,5.60999c-1,.96002-1.58997,2.21002-1.65997,3.52002l-.04999.83002-9.64001-3.16003v-2.95996c0-.56.23999-1.10004.65002-1.47003l9.47998-8.70001c.53998-.48999,1.35999-.52997,1.94-.08997.35999.26001.58002.65997.60999,1.10999.03003.44-.13.85999-.44,1.17999l-5.95001,5.94c-.38995.39001-.38995,1.03003,0,1.41998.39001.39001,1.03003.39001,1.42004,0l5.94-5.94995c.71997-.72003,1.09998-1.72003,1.01996-2.74005-.02997-.5-.16998-.96997-.39996-1.39996l2.32996-10.72003c.13-.59998.76001-1,1.38-.88995.21002.03998.40002.12.55005.21997.29999.22003.47998.56.46997.90002l-.63,15.07001Z"/>
  <path d="M32,11c-5.51416,0-10,4.48584-10,10s4.48584,10,10,10,10-4.48584,10-10-4.48584-10-10-10ZM32,29c-4.41113,0-8-3.58887-8-8s3.58887-8,8-8,8,3.58887,8,8-3.58887,8-8,8Z"/>
  <circle cx="32" cy="16" r="1"/>
  <path d="M34,25h-1v-6c0-.55225-.44775-1-1-1h-2c-.55225,0-1,.44775-1,1s.44775,1,1,1h1v5h-1c-.55225,0-1,.44775-1,1s.44775,1,1,1h4c.55225,0,1-.44775,1-1s-.44775-1-1-1Z"/>
  <path d="M45.34326,25.25293c.16699-.52637-.12402-1.08887-.65039-1.25586-.52393-.16553-1.08887.12402-1.25586.65039-1.31201,4.13086-4.77148,7.23975-9.02832,8.11328-.16748.03418-.32373.11133-.45361.22363l-1.95508,1.69287-1.95508-1.69287c-.12988-.1123-.28662-.18945-.45459-.22412-5.55713-1.13428-9.59033-6.08008-9.59033-11.76025,0-6.6167,5.3833-12,12-12,5.25537,0,9.84717,3.35596,11.42627,8.35107.16602.52686.73047.81787,1.25488.65234.52686-.1665.81885-.72852.65234-1.25488-1.84326-5.83105-7.20166-9.74854-13.3335-9.74854-7.71973,0-14,6.28027-14,14,0,6.5376,4.58008,12.24121,10.92969,13.66406l2.41553,2.0918c.18799.1626.42139.24414.65479.24414s.4668-.08154.65479-.24414l2.41602-2.0918c4.84619-1.09082,8.76807-4.67529,10.27246-9.41113Z"/>
  <circle cx="45" cy="21" r="1"/>
</svg>