<?xml version="1.0" encoding="UTF-8"?>
<svg id="Outline" xmlns="http://www.w3.org/2000/svg" version="1.1" viewBox="0 0 48 48">
  <!-- Generator: Adobe Illustrator 29.5.1, SVG Export Plug-In . SVG Version: 2.1.0 Build 141)  -->
  <path d="M40.89,21.15c-1.02-4-9.18-6.15-16.89-6.15s-15.87,2.15-16.89,6.15c-1.22.38-2.11,1.51-2.11,2.85,0,1.32.86,2.43,2.04,2.83.44,8.99,7.87,16.17,16.96,16.17s16.52-7.18,16.96-16.17c1.18-.4,2.04-1.51,2.04-2.83,0-1.34-.89-2.47-2.11-2.85ZM24,17c7.38,0,13.15,1.95,14.62,4H9.38c1.47-2.05,7.24-4,14.62-4ZM24,41c-7.93,0-14.45-6.19-14.97-14h29.94c-.52,7.81-7.04,14-14.97,14ZM40,25H8c-.55,0-1-.45-1-1s.45-1,1-1h32c.55,0,1,.45,1,1s-.45,1-1,1Z"/>
  <path d="M42,7h-2c-2.757,0-5,2.243-5,5v2c0,.552.447,1,1,1h2c2.757,0,5-2.243,5-5v-2c0-.552-.447-1-1-1ZM41,10c0,1.654-1.346,3-3,3h-1v-1c0-1.654,1.346-3,3-3h1v1Z"/>
  <path d="M30,13h2c.553,0,1-.448,1-1v-2c0-2.757-2.243-5-5-5h-2c-.553,0-1,.448-1,1v2c0,2.757,2.243,5,5,5ZM27,7h1c1.654,0,3,1.346,3,3v1h-1c-1.654,0-3-1.346-3-3v-1Z"/>
</svg>