<?xml version="1.0" encoding="UTF-8"?>
<svg id="Outline" xmlns="http://www.w3.org/2000/svg" version="1.1" viewBox="0 0 64 64">
  <!-- Generator: Adobe Illustrator 29.0.0, SVG Export Plug-In . SVG Version: 2.1.0 Build 186)  -->
  <path d="M51.92035,45.90302c.69409-1.33752,1.07965-2.83594,1.07965-3.90302,0-2.75684-2.24316-5-5-5s-5,2.24316-5,5c0,1.06708.38556,2.56549,1.07965,3.90302-1.77954.85394-3.19965,2.25043-4.07965,3.9574-.88-1.70697-2.30011-3.10345-4.07965-3.9574.69409-1.33752,1.07965-2.83594,1.07965-3.90302,0-2.75684-2.24316-5-5-5s-5,2.24316-5,5c0,1.06708.38556,2.56549,1.07965,3.90302-1.77954.85394-3.19965,2.25043-4.07965,3.9574-.88-1.70697-2.30011-3.10345-4.07965-3.9574.69409-1.33752,1.07965-2.83594,1.07965-3.90302,0-2.75684-2.24316-5-5-5s-5,2.24316-5,5c0,1.06708.38556,2.56549,1.07965,3.90302-3.08044,1.47815-5.07965,4.5907-5.07965,8.09698v2c0,.55273.44775,1,1,1h48c.55225,0,1-.44727,1-1v-2c0-3.50629-1.99921-6.61884-5.07965-8.09698ZM48,39c1.6543,0,3,1.3457,3,3,0,1.97461-1.60889,5-3,5s-3-3.02539-3-5c0-1.6543,1.3457-3,3-3ZM32,39c1.6543,0,3,1.3457,3,3,0,1.97461-1.60889,5-3,5s-3-3.02539-3-5c0-1.6543,1.3457-3,3-3ZM16,39c1.6543,0,3,1.3457,3,3,0,1.97461-1.60889,5-3,5s-3-3.02539-3-5c0-1.6543,1.3457-3,3-3ZM9,54c0-2.83252,1.68439-5.31897,4.237-6.40869.76221.8374,1.69275,1.40869,2.763,1.40869s2.00079-.57129,2.763-1.40869c2.55261,1.08972,4.237,3.57617,4.237,6.40869v1h-14v-1ZM25,54c0-2.83252,1.68439-5.31897,4.237-6.40869.76221.8374,1.69275,1.40869,2.763,1.40869s2.00079-.57129,2.763-1.40869c2.55261,1.08972,4.237,3.57617,4.237,6.40869v1h-14v-1ZM55,55h-14v-1c0-2.83252,1.68439-5.31897,4.237-6.40869.76221.8374,1.69275,1.40869,2.763,1.40869s2.00079-.57129,2.763-1.40869c2.55261,1.08972,4.237,3.57617,4.237,6.40869v1Z"/>
  <path d="M21.00586,36.88965c-.03125.2832.05957.56543.24902.77734.18994.21191.46094.33301.74512.33301h4c.45898,0,.85889-.3125.97021-.75781l.73102-2.92407c1.35583.43872,2.79871.68188,4.29877.68188s2.94293-.24316,4.29877-.68188l.73102,2.92407c.11133.44531.51123.75781.97021.75781h4c.28418,0,.55518-.12109.74512-.33301.18945-.21191.28027-.49414.24902-.77734l-.71118-6.42163c1.82263-1.97797,3.07886-4.4754,3.52356-7.24744l1.48645,1.48645c.1875.1875.44189.29297.70703.29297h8c.36865,0,.70752-.20312.88184-.52832.17383-.3252.15479-.71973-.0498-1.02637l-1.63037-2.44531,1.63037-2.44531c.20459-.30664.22363-.70117.0498-1.02637-.17432-.3252-.51318-.52832-.88184-.52832h-8c-.26514,0-.51953.10547-.70703.29297l-1.48645,1.48645c-1.0694-6.66559-6.84418-11.77942-13.80652-11.77942-7.71973,0-14,6.28027-14,14,0,3.65277,1.41766,6.97266,3.71704,9.46802l-.71118,6.42163ZM25.21924,36h-2.10254l.42859-3.86755c.71259.54254,1.47681,1.01672,2.28674,1.4165l-.61279,2.45105ZM38.78076,36l-.61279-2.45105c.80994-.39978,1.57416-.87396,2.28674-1.4165l.42859,3.86755h-2.10254ZM48.41406,19h5.71729l-.96338,1.44531c-.22412.33594-.22412.77344,0,1.10938l.96338,1.44531h-5.71729l-2-2,2-2ZM32,9c6.27917,0,11.43835,4.8501,11.94934,11h-2c-.50342-5.0459-4.77277-9-9.94934-9-5.51416,0-10,4.48633-10,10s4.48584,10,10,10c5.17657,0,9.44592-3.9541,9.94934-9h2c-.51099,6.1499-5.67017,11-11.94934,11-6.6167,0-12-5.38281-12-12s5.3833-12,12-12ZM36.89893,20c-.46466-2.2793-2.4845-4-4.89893-4-2.75684,0-5,2.24316-5,5s2.24316,5,5,5c2.41443,0,4.43427-1.7207,4.89893-4h3.03162c-.49463,3.93994-3.85876,7-7.93054,7-4.41113,0-8-3.58887-8-8s3.58887-8,8-8c4.07178,0,7.43591,3.06006,7.93054,7h-3.03162ZM32,22h2.81573c-.41412,1.1615-1.51379,2-2.81573,2-1.6543,0-3-1.3457-3-3s1.3457-3,3-3c1.30194,0,2.40161.8385,2.81573,2h-2.81573c-.55225,0-1,.44727-1,1s.44775,1,1,1Z"/>
</svg>