<?xml version="1.0" encoding="UTF-8"?>
<svg id="Outline" xmlns="http://www.w3.org/2000/svg" version="1.1" viewBox="0 0 64 64">
  <!-- Generator: Adobe Illustrator 29.3.1, SVG Export Plug-In . SVG Version: 2.1.0 Build 151)  -->
  <path d="M55,7H9c-1.09998,0-2,.89996-2,2v8c0,1.09998.90002,2,2,2v31c0,.54999.45001,1,1,1h18c.54999,0,1-.45001,1-1s-.45001-1-1-1H11v-30h14v5c0,.32001.15002.62.41998.81.26001.19.59003.23999.90002.14001l5.67999-1.90002,5.67999,1.90002c.10999.02997.21002.04999.32001.04999.21002,0,.40997-.06.58002-.19.26996-.19.41998-.48999.41998-.81v-5h14v7c0,.54999.45001,1,1,1s1-.45001,1-1v-7c1.09998,0,2-.90002,2-2v-8c0-1.10004-.90002-2-2-2ZM13,17h-4v-8h4v8ZM25,17h-10v-8h10v8ZM37,22.60999l-4.67999-1.56c-.10999-.03003-.21002-.04999-.32001-.04999s-.21002.01996-.32001.04999l-4.67999,1.56v-13.60999h10v13.60999ZM49,17h-10v-8h10v8ZM55,17h-4v-8h4v8Z"/>
  <path d="M55,29h-3v-1c0-.55225-.44775-1-1-1h-3.12646c-.44531-1.72314-2.01318-3-3.87354-3s-3.42822,1.27686-3.87354,3h-3.12646c-.55225,0-1,.44775-1,1v1h-3c-1.10303,0-2,.89697-2,2v24c0,1.10303.89697,2,2,2h22c1.10303,0,2-.89697,2-2v-24c0-1.10303-.89697-2-2-2ZM38,29h3c.55225,0,1-.44775,1-1,0-1.10303.89697-2,2-2s2,.89697,2,2c0,.55225.44775,1,1,1h3v2h-12v-2ZM55,55h-22v-24h3v1c0,.55225.44775,1,1,1h14c.55225,0,1-.44775,1-1v-1h3v24Z"/>
  <path d="M13,45c0,1.10303.89697,2,2,2h10c1.10303,0,2-.89697,2-2v-2c0-1.10303-.89697-2-2-2h-10c-1.10303,0-2,.89697-2,2v2ZM15,43h10l.00146,2h-10.00146v-2Z"/>
  <path d="M24,39c.55225,0,1-.44775,1-1s-.44775-1-1-1h-10c-.55225,0-1,.44775-1,1s.44775,1,1,1h10Z"/>
  <path d="M38.29297,39.29297l-1.29297,1.29297-.29297-.29297c-.39062-.39062-1.02344-.39062-1.41406,0s-.39062,1.02344,0,1.41406l1,1c.19531.19531.45117.29297.70703.29297s.51172-.09766.70703-.29297l2-2c.39062-.39062.39062-1.02344,0-1.41406s-1.02344-.39062-1.41406,0Z"/>
  <path d="M52,40h-9c-.55225,0-1,.44775-1,1s.44775,1,1,1h9c.55225,0,1-.44775,1-1s-.44775-1-1-1Z"/>
  <path d="M38.29297,44.29297l-1.29297,1.29297-.29297-.29297c-.39062-.39062-1.02344-.39062-1.41406,0s-.39062,1.02344,0,1.41406l1,1c.19531.19531.45117.29297.70703.29297s.51172-.09766.70703-.29297l2-2c.39062-.39062.39062-1.02344,0-1.41406s-1.02344-.39062-1.41406,0Z"/>
  <path d="M52,45h-9c-.55225,0-1,.44775-1,1s.44775,1,1,1h9c.55225,0,1-.44775,1-1s-.44775-1-1-1Z"/>
  <path d="M38.29297,49.29297l-1.29297,1.29297-.29297-.29297c-.39062-.39062-1.02344-.39062-1.41406,0s-.39062,1.02344,0,1.41406l1,1c.19531.19531.45117.29297.70703.29297s.51172-.09766.70703-.29297l2-2c.39062-.39062.39062-1.02344,0-1.41406s-1.02344-.39062-1.41406,0Z"/>
  <path d="M52,50h-9c-.55225,0-1,.44775-1,1s.44775,1,1,1h9c.55225,0,1-.44775,1-1s-.44775-1-1-1Z"/>
  <path d="M52,35h-16c-.55225,0-1,.44775-1,1s.44775,1,1,1h16c.55225,0,1-.44775,1-1s-.44775-1-1-1Z"/>
</svg>