<?xml version="1.0" encoding="UTF-8"?>
<svg id="Outline" xmlns="http://www.w3.org/2000/svg" version="1.1" viewBox="0 0 64 64">
  <!-- Generator: Adobe Illustrator 29.5.1, SVG Export Plug-In . SVG Version: 2.1.0 Build 141)  -->
  <circle cx="32" cy="12" r="1"/>
  <path d="M48,13h-5.18c-.42-1.16-1.52-2-2.82-2h-3.1c-.47-2.28-2.48-4-4.9-4s-4.43,1.72-4.9,4h-3.1c-1.3,0-2.4.84-2.82,2h-5.18c-1.65,0-3,1.35-3,3v38c0,1.65,1.35,3,3,3h32c1.65,0,3-1.35,3-3V16c0-1.65-1.35-3-3-3ZM16,55c-.55,0-1-.45-1-1V16c0-.55.45-1,1-1h1v39c0,.35.07.69.18,1h-1.18ZM30.59,55l9.67-1.84.34,1.38c.04.16.1.31.16.46h-10.17ZM45,53.75c0,.69-.56,1.25-1.25,1.25-.57,0-1.07-.39-1.21-.94l-.57-2.3c-.13-.52-.63-.84-1.16-.74l-20.86,3.97c-.53-.02-.95-.45-.95-.99V15h2v1c0,.55.45,1,1,1s1-.45,1-1v-2c0-.55.45-1,1-1h4c.55,0,1-.45,1-1,0-1.65,1.35-3,3-3s3,1.35,3,3c0,.55.45,1,1,1h4c.55,0,1,.45,1,1v2c0,.55.45,1,1,1s1-.45,1-1v-1h2v38.75ZM49,54c0,.55-.45,1-1,1h-1.25c.16-.38.25-.8.25-1.25V15h1c.55,0,1,.45,1,1v38Z"/>
  <path d="M22,40h20c.553,0,1-.447,1-1v-14c0-.009-.005-.017-.005-.027-.003-.098-.015-.195-.046-.29l-2-6c-.136-.408-.518-.684-.948-.684h-16c-.431,0-.813.275-.948.684l-2,6c-.032.095-.044.192-.046.29,0,.009-.005.017-.005.027v14c0,.553.447,1,1,1ZM41,38h-18v-12h4v5c0,.347.18.668.475.851.294.183.661.198.973.044l3.553-1.776,3.553,1.776c.622.311,1.447-.146,1.447-.895v-5h4v12ZM35,26v3.382l-2.553-1.276c-.141-.07-.294-.105-.447-.105s-.307.035-.447.105l-2.553,1.276v-3.382h6ZM40.612,24h-3.765l-.667-4h3.099l1.333,4ZM34.153,20l.666,4h-5.639l.666-4h4.307ZM24.721,20h3.099l-.667,4h-3.765l1.333-4Z"/>
  <path d="M22,44h6c.553,0,1-.447,1-1s-.447-1-1-1h-6c-.553,0-1,.447-1,1s.447,1,1,1Z"/>
  <path d="M22,52h4c.553,0,1-.447,1-1s-.447-1-1-1h-4c-.553,0-1,.447-1,1s.447,1,1,1Z"/>
  <path d="M22,48h10c.553,0,1-.447,1-1s-.447-1-1-1h-10c-.553,0-1,.447-1,1s.447,1,1,1Z"/>
</svg>