<?xml version="1.0" encoding="UTF-8"?>
<svg id="Outline" xmlns="http://www.w3.org/2000/svg" version="1.1" viewBox="0 0 64 64">
  <!-- Generator: Adobe Illustrator 29.5.1, SVG Export Plug-In . SVG Version: 2.1.0 Build 141)  -->
  <path d="M36,13h2c.552,0,1-.447,1-1s-.448-1-1-1h-2c-.552,0-1,.447-1,1s.448,1,1,1Z"/>
  <path d="M26,13h2c.552,0,1-.447,1-1s-.448-1-1-1h-2c-.552,0-1,.447-1,1s.448,1,1,1Z"/>
  <path d="M50,7H14c-1.65,0-3,1.35-3,3v13c0,.55.45,1,1,1s1-.45,1-1v-13c0-.55.45-1,1-1h7v2h-5c-.55,0-1,.45-1,1v43h-1c-.55,0-1-.45-1-1v-23c0-.55-.45-1-1-1s-1,.45-1,1v23c0,1.65,1.35,3,3,3h36c1.65,0,3-1.35,3-3V10c0-1.65-1.35-3-3-3ZM23,9h18v5c0,.55-.45,1-1,1h-16c-.55,0-1-.45-1-1v-5ZM47,55h-30V13h4v1c0,1.65,1.35,3,3,3h16c1.65,0,3-1.35,3-3v-1h4v42ZM51,54c0,.55-.45,1-1,1h-1V12c0-.55-.45-1-1-1h-5v-2h7c.55,0,1,.45,1,1v44Z"/>
  <circle cx="32" cy="12" r="1"/>
  <path d="M28,19c-.55,0-1,.45-1,1v6h-2v-6c0-.55-.45-1-1-1s-1,.45-1,1v6h-2v-6c0-.55-.45-1-1-1s-1,.45-1,1v9c0,1.28.81,2.37,1.94,2.8l-.71,9.13c-.167,2.15,1.624,4.07,3.77,4.07,2.164,0,3.934-1.916,3.77-4.07l-.71-9.13c1.13-.43,1.94-1.52,1.94-2.8v-9c0-.55-.45-1-1-1ZM27,29c0,.55-.45,1-1,1-.28,0-.54.12-.73.32-.19.21-.29.48-.27.76l.77,10c.04.5-.12.98-.47,1.35-.68.74-1.92.74-2.6,0-.35-.37-.51-.85-.47-1.34l.77-10.01c.02-.28-.08-.55-.27-.76-.19-.2-.45-.32-.73-.32-.55,0-1-.45-1-1v-1h6v1Z"/>
  <path d="M38.45,19.11c-.31-.16-.68-.14-.98.04-.29.18-.47.5-.47.85v11.47h-1c-.55,0-1,.45-1,1v4c0,.55.45,1,1,1,1.1,0,2,.9,2,2v4.53c0,.55.45,1,1,1h5c.55,0,1-.45,1-1v-14.29c0-4.52-2.51-8.58-6.55-10.6ZM43,43h-3v-3.53c0-1.86-1.28-3.43-3-3.87v-2.13h6v9.53ZM43,31.47h-4v-9.69c2.5,1.84,4,4.75,4,7.93v1.76Z"/>
  <path d="M31.236,45h2.764c.552,0,1-.447,1-1s-.448-1-1-1h-1v-1c0-.553-.448-1-1-1s-1,.447-1,1v1.024c-1.121.12-2,1.06-2,2.212,0,.852.473,1.617,1.236,2l2.633,1.315c.081.041.131.122.131.212,0,.13-.106.236-.236.236h-2.764c-.552,0-1,.447-1,1s.448,1,1,1h1v1c0,.553.448,1,1,1s1-.447,1-1v-1.024c1.121-.12,2-1.06,2-2.212,0-.852-.473-1.617-1.236-2l-2.633-1.315c-.081-.041-.131-.122-.131-.212,0-.13.106-.236.236-.236Z"/>
  <circle cx="12" cy="27" r="1"/>
</svg>