<?xml version="1.0" encoding="UTF-8"?>
<svg id="Outline" xmlns="http://www.w3.org/2000/svg" version="1.1" viewBox="0 0 64 64">
  <!-- Generator: Adobe Illustrator 29.3.1, SVG Export Plug-In . SVG Version: 2.1.0 Build 151)  -->
  <path d="M56,24c.54999,0,1-.45001,1-1v-6c0-1.10004-.90002-2-2-2h-5v-3.5c0-2.48004-2.02002-4.5-4.5-4.5H11.5c-2.47998,0-4.5,2.01996-4.5,4.5v18.5c0,.54999.45001,1,1,1s1-.45001,1-1V11.5c0-1.38,1.12-2.5,2.5-2.5h30.26001c-.47998.71997-.76001,1.57996-.76001,2.5v41.09998l-1.83002,1.94-2.10999-2.22998c-.19-.20001-.46002-.31-.72998-.31-.28003,0-.54004.10999-.73004.31l-2.09998,2.22998-2.09998-2.22998c-.19-.20001-.45001-.31-.73004-.31-.26996,0-.53998.10999-.72998.31l-2.10999,2.22998-2.10004-2.22998c-.38-.40002-1.07996-.40002-1.45996,0l-2.10004,2.22998-2.10999-2.22998c-.19-.20001-.46002-.31-.72998-.31-.28003,0-.54004.10999-.73004.31l-2.09998,2.22998-2.09998-2.22998c-.19-.20001-.45001-.31-.73004-.31-.26996,0-.53998.10999-.72998.31l-2.10999,2.22998-1.83002-1.94v-18.59998c0-.54999-.45001-1-1-1s-1,.45001-1,1v19c0,.26001.09998.5.27002.69l2.82996,3c.19.20001.45001.31.73004.31.26996,0,.53998-.10999.72998-.31l2.10999-2.23004,2.10004,2.23004c.38.39996,1.07996.39996,1.45996,0l2.10004-2.23004,2.10999,2.23004c.19.20001.46002.31.72998.31.28003,0,.54004-.10999.73004-.31l2.09998-2.23004,2.09998,2.23004c.19.20001.45001.31.73004.31.26996,0,.53998-.10999.72998-.31l2.10999-2.23004,2.10004,2.23004c.38.39996,1.07996.39996,1.45996,0l2.10004-2.23004,2.10999,2.23004c.19.20001.46002.31.72998.31.28003,0,.54004-.10999.73004-.31l2.82996-3c.17004-.19.27002-.42999.27002-.69v-14h9.5c2.47998,0,4.5-2.02002,4.5-4.5v-7.5c0-.54999-.45001-1-1-1s-1,.45001-1,1v7.5c0,1.38-1.12,2.5-2.5,2.5s-2.5-1.12-2.5-2.5v-17.5h5v6c0,.54999.45001,1,1,1ZM43,37V11.5c0-1.38,1.12-2.5,2.5-2.5s2.5,1.12,2.5,2.5v23c0,.91998.28003,1.77997.76001,2.5h-5.76001Z"/>
  <path d="M13,17h24c1.10303,0,2-.89697,2-2v-2c0-1.10303-.89697-2-2-2H13c-1.10303,0-2,.89697-2,2v2c0,1.10303.89697,2,2,2ZM13,13h24l.00146,2H13v-2Z"/>
  <path d="M11,35c0,1.10303.89697,2,2,2h24c1.10303,0,2-.89697,2-2v-14c0-1.10303-.89697-2-2-2H13c-1.10303,0-2,.89697-2,2v14ZM13,25h4v10h-4v-10ZM19,29h18.00085l.00018,2h-18.00104v-2ZM37.00061,27h-18.00061v-2h18.00043l.00018,2ZM19,35v-2h18.00128l.00018,2h-18.00146ZM37.00018,23h-18.00018v-2h18l.00018,2ZM17,21v2h-4v-2h4Z"/>
  <path d="M14,48c-.55127,0-1-.44873-1-1,0-.55225-.44775-1-1-1s-1,.44775-1,1c0,1.30194.8385,2.40155,2,2.81567v.18433c0,.55225.44775,1,1,1s1-.44775,1-1v-.18427c1.1615-.41412,2-1.51379,2-2.81573,0-1.6543-1.3457-3-3-3-.55127,0-1-.44873-1-1s.44873-1,1-1,1,.44873,1,1c0,.55225.44775,1,1,1s1-.44775,1-1c0-1.30194-.8385-2.40161-2-2.81573v-.18427c0-.55225-.44775-1-1-1s-1,.44775-1,1v.18427c-1.1615.41412-2,1.51379-2,2.81573,0,1.6543,1.3457,3,3,3,.55127,0,1,.44873,1,1s-.44873,1-1,1Z"/>
  <path d="M20,50h10c.55225,0,1-.44775,1-1s-.44775-1-1-1h-10c-.55225,0-1,.44775-1,1s.44775,1,1,1Z"/>
  <path d="M20,46h6c.55225,0,1-.44775,1-1s-.44775-1-1-1h-6c-.55225,0-1,.44775-1,1s.44775,1,1,1Z"/>
</svg>