<?xml version="1.0" encoding="UTF-8"?>
<svg id="Outline" xmlns="http://www.w3.org/2000/svg" version="1.1" viewBox="0 0 64 64">
  <!-- Generator: Adobe Illustrator 29.5.1, SVG Export Plug-In . SVG Version: 2.1.0 Build 141)  -->
  <path d="M16.23584,45h2.76416c.55225,0,1-.44727,1-1s-.44775-1-1-1h-1v-1c0-.55273-.44775-1-1-1s-1,.44727-1,1v1.02386c-1.12091.11975-2,1.05988-2,2.21246,0,.85156.47314,1.61719,1.23584,2l2.63281,1.31543c.08105.04102.13135.12207.13135.21191,0,.12988-.10596.23633-.23584.23633h-2.76416c-.55225,0-1,.44727-1,1s.44775,1,1,1h1v1c0,.55273.44775,1,1,1s1-.44727,1-1v-1.02386c1.12091-.11975,2-1.05988,2-2.21246,0-.85156-.47314-1.61719-1.23584-2l-2.63281-1.31543c-.08105-.04102-.13135-.12207-.13135-.21191,0-.12988.10596-.23633.23584-.23633Z"/>
  <path d="M54,7h-5c-.55225,0-1,.44727-1,1s.44775,1,1,1h5c.55127,0,1,.44824,1,1v32c0,.55176-.44873,1-1,1h-1v-21c0-.008-.00299-.0155-.00317-.0235-.00061-.02295-.00696-.04395-.00909-.06671-.00861-.09442-.03064-.18512-.06525-.27295-.01147-.02911-.02216-.05664-.03632-.08459-.01099-.02179-.01611-.0459-.02875-.06689l-6-10c-.05554-.09247-.12811-.16931-.20758-.23779-.02081-.01801-.04297-.03253-.06537-.04889-.08679-.06323-.18079-.11432-.28351-.14703-.00964-.00311-.01624-.01074-.02606-.01355-.00287-.00079-.00568.00012-.00854-.00061-.08582-.0238-.17499-.03748-.26636-.03748h-21v-1c0-.55176.44873-1,1-1h19c.55225,0,1-.44727,1-1s-.44775-1-1-1h-19c-1.6543,0-3,1.3457-3,3v1h-1c-1.6543,0-3,1.3457-3,3v23.2016c-.64642-.13177-1.31519-.2016-2-.2016-5.51416,0-10,4.48633-10,10s4.48584,10,10,10c4.82928,0,8.86932-3.44141,9.79846-8h23.20154c1.6543,0,3-1.3457,3-3v-1h1c1.6543,0,3-1.3457,3-3V10c0-1.6543-1.3457-3-3-3ZM46.32819,14.49097l3.3399,5.56653-4.45325-1.6698,1.11334-3.89673ZM17,55c-4.41113,0-8-3.58887-8-8s3.58887-8,8-8,8,3.58887,8,8-3.58887,8-8,8ZM31,43h-4.84082c-.30951-.70581-.70258-1.36462-1.15918-1.97443v-10.02557h6v12ZM33,31h14v12h-14v-12ZM25,29v-2h6v2h-6ZM51,46c0,.55176-.44873,1-1,1h-23c0-.68481-.06976-1.35352-.20154-2h21.20154c.55225,0,1-.44727,1-1v-18c0-.55273-.44775-1-1-1h-6c-.55225,0-1,.44727-1,1s.44775,1,1,1h5v2h-14v-2h5c.55225,0,1-.44727,1-1s-.44775-1-1-1h-14c-.55225,0-1,.44727-1,1v13.0191c-.61676-.4649-1.28436-.86456-2-1.17834V14c0-.55176.44873-1,1-1h22.67444l-1.63586,5.72559c-.14307.50098.12256,1.02734.61035,1.21094l7.35107,2.75665v23.30682Z"/>
  <path d="M24,15c-.55225,0-1,.44727-1,1v6c0,.55273.44775,1,1,1s1-.44727,1-1v-6c0-.55273-.44775-1-1-1Z"/>
  <path d="M32,15c-.55225,0-1,.44727-1,1v2.69727l-2.16797-3.25195c-.24463-.36621-.7002-.53223-1.12158-.40234-.42188.12793-.71045.5166-.71045.95703v6c0,.55273.44775,1,1,1s1-.44727,1-1v-2.69727l2.16797,3.25195c.18893.28315.50379.44525.83185.44531.51979.00009,1.00017-.4441,1.00018-1v-6c0-.55273-.44775-1-1-1Z"/>
  <path d="M40.31641,15.05176c-.52637-.17676-1.09082.1084-1.26514.63184l-1.05127,3.1543-1.05127-3.1543c-.17432-.52344-.73926-.80859-1.26514-.63184-.52393.17383-.80713.74023-.63232,1.26465l2,6c.13623.4082.51807.68359.94873.68359s.8125-.27539.94873-.68359l2-6c.1748-.52441-.1084-1.09082-.63232-1.26465Z"/>
</svg>