<?xml version="1.0" encoding="UTF-8"?>
<svg id="Outline" xmlns="http://www.w3.org/2000/svg" version="1.1" viewBox="0 0 64 64">
  <!-- Generator: Adobe Illustrator 29.5.1, SVG Export Plug-In . SVG Version: 2.1.0 Build 141)  -->
  <path d="M55,47h-2v-2c1.1,0,2-.9,2-2v-11c0-.55-.45-1-1-1s-1,.45-1,1v11H11v-22h5v2c0,.55.45,1,1,1s1-.45,1-1v-11c0-1.65,1.35-3,3-3h20.03c-.64.84-1.03,1.87-1.03,3v27h-22v-12c0-.55-.45-1-1-1s-1,.45-1,1v12c0,1.1.9,2,2,2h22c1.1,0,2-.9,2-2v-18h11v7c0,.55.45,1,1,1s1-.45,1-1v-7c0-1.1-.9-2-2-2h-3v-7c0-2.76-2.24-5-5-5h-24c-2.76,0-5,2.24-5,5v7h-5c-1.1,0-2,.9-2,2v22c0,1.1.9,2,2,2v2h-2c-1.1,0-2,.9-2,2v3.59c0,.53.21,1.03.59,1.41l2.41,2.41c.37.38.89.59,1.41.59h41.18c.52,0,1.04-.21,1.41-.59l2.41-2.41c.38-.38.59-.88.59-1.41v-3.59c0-1.1-.9-2-2-2ZM42,12c0-1.65,1.35-3,3-3s3,1.35,3,3v7h-6v-7ZM13,45h38v2H13v-2ZM37.38,49l-1,2h-8.76l-1-2h10.76ZM55,52.59l-2.41,2.41H11.41l-2.41-2.41v-3.59h15.38l1.45,2.89c.34.69,1.02,1.11,1.79,1.11h8.76c.77,0,1.45-.42,1.79-1.11l1.45-2.89h15.38v3.59Z"/>
  <path d="M29,21c-.552,0-1-.449-1-1s-.447-1-1-1-1,.448-1,1c0,1.302.839,2.402,2,2.816v.184c0,.552.447,1,1,1s1-.448,1-1v-.184c1.161-.414,2-1.514,2-2.816,0-1.654-1.346-3-3-3-.552,0-1-.449-1-1s.448-1,1-1,1,.449,1,1,.447,1,1,1,1-.448,1-1c0-1.302-.839-2.402-2-2.816v-.184c0-.552-.447-1-1-1s-1,.448-1,1v.184c-1.161.414-2,1.514-2,2.816,0,1.654,1.346,3,3,3,.552,0,1,.449,1,1s-.448,1-1,1Z"/>
  <path d="M25,27c0,.552.447,1,1,1h11c.553,0,1-.448,1-1s-.447-1-1-1h-11c-.553,0-1,.448-1,1Z"/>
  <path d="M21,28h1c.553,0,1-.448,1-1s-.447-1-1-1h-1c-.553,0-1,.448-1,1s.447,1,1,1Z"/>
  <path d="M26,32h11c.553,0,1-.448,1-1s-.447-1-1-1h-11c-.553,0-1,.448-1,1s.447,1,1,1Z"/>
  <path d="M21,32h1c.553,0,1-.448,1-1s-.447-1-1-1h-1c-.553,0-1,.448-1,1s.447,1,1,1Z"/>
  <path d="M26,36h11c.553,0,1-.448,1-1s-.447-1-1-1h-11c-.553,0-1,.448-1,1s.447,1,1,1Z"/>
  <path d="M21,36h1c.553,0,1-.448,1-1s-.447-1-1-1h-1c-.553,0-1,.448-1,1s.447,1,1,1Z"/>
</svg>