<?xml version="1.0" encoding="UTF-8"?>
<svg id="Outline" xmlns="http://www.w3.org/2000/svg" version="1.1" viewBox="0 0 64 64">
  <!-- Generator: Adobe Illustrator 29.5.1, SVG Export Plug-In . SVG Version: 2.1.0 Build 141)  -->
  <path d="M55.83,20.755c-2.26-3.92-8.72-4.37-15.16-1.25-.52-7.13-4.16-12.51-8.67-12.51-4.54,0-8.16,5.37-8.67,12.51-6.43-3.12-12.9-2.66-15.16,1.25-1.23,2.11-1,4.84.62,7.68,1.53,2.66,4.14,5.16,7.36,7.02.91.52,1.85.98,2.79,1.37-.76.69-1.48,1.43-2.17,2.24-5.13,6.12-6.21,13.39-2.46,16.55,1.13.94,2.55,1.39,4.12,1.39,3.66,0,8.14-2.43,11.74-6.72.67-.79,1.27-1.64,1.82-2.51.57.89,1.18,1.74,1.84,2.51,3.6,4.29,8.08,6.72,11.74,6.72,1.57,0,2.99-.45,4.12-1.39,3.75-3.16,2.67-10.43-2.46-16.55-.68-.81-1.41-1.55-2.17-2.24.95-.39,1.89-.85,2.79-1.37,3.22-1.86,5.83-4.36,7.36-7.02,1.62-2.84,1.85-5.57.62-7.68ZM32,8.995c3.51,0,6.51,5.25,6.72,11.58-1.63.98-3.1,2.13-4.33,3.39-.64-.63-1.49-1-2.39-1-.98,0-1.92.42-2.57,1.16l-.57.66c-.29.33-.72.5-1.15.47l-.87-.05c-.41-.03-.81.03-1.18.14-.27-1.31-.4-2.68-.4-4.09,0-6.65,3.09-12.26,6.74-12.26ZM17.15,33.715c-2.92-1.68-5.27-3.91-6.62-6.28-1.26-2.19-1.48-4.21-.63-5.68,1.76-3.04,7.8-3.01,13.37-.02.04,1.67.24,3.29.62,4.84-.48.65-.74,1.44-.68,2.26l.05.87c.03.43-.14.86-.47,1.15l-.66.57c-.74.65-1.16,1.59-1.16,2.57,0,.55.14,1.08.39,1.56-1.41-.44-2.83-1.04-4.21-1.84ZM28.63,49.005c-4.27,5.09-10.24,7.42-13.04,5.07-2.79-2.35-1.55-8.64,2.71-13.72.87-1.03,1.82-1.95,2.81-2.76.72.21,1.43.37,2.14.49.01.07.02.14.01.2l-.05.87c-.07.98.29,1.95.99,2.64.69.7,1.66,1.06,2.64.99l.87-.05c.44-.04.86.14,1.15.47l.57.66c.5.56,1.16.94,1.88,1.09-.7,1.41-1.61,2.78-2.68,4.05ZM30.94,42.545l-.57-.65c-.65-.74-1.6-1.17-2.57-1.17-.08,0-.15,0-.23.01l-.87.06c-.39.04-.8-.12-1.09-.41-.29-.29-.44-.68-.41-1.09l.06-.87c.07-1.05-.36-2.1-1.16-2.8l-.65-.57c-.31-.27-.48-.65-.48-1.06s.17-.79.48-1.06l.65-.57c.8-.7,1.23-1.75,1.16-2.8l-.06-.87c-.03-.41.12-.8.41-1.09.29-.29.69-.44,1.09-.41l.87.06c1.06.07,2.1-.36,2.8-1.16l.57-.65c.54-.62,1.58-.62,2.12,0l.57.65c.7.8,1.76,1.23,2.8,1.16l.87-.06c.39-.03.8.12,1.09.41.29.29.44.68.41,1.09l-.06.87c-.07,1.05.36,2.1,1.16,2.8l.65.57c.31.27.48.65.48,1.06s-.17.79-.48,1.06l-.65.57c-.8.7-1.23,1.75-1.16,2.8l.06.87c.03.41-.12.8-.41,1.09-.29.29-.69.45-1.09.41l-.87-.06c-1.05-.07-2.1.36-2.8,1.16l-.57.65c-.54.62-1.58.62-2.12,0ZM45.69,40.345c4.27,5.09,5.51,11.38,2.72,13.73-2.8,2.35-8.77.02-13.05-5.08-.83-.97-1.57-2.06-2.22-3.23.19-.39.36-.79.52-1.19.34-.19.65-.42.91-.71l.57-.66c.29-.33.72-.5,1.15-.47l.87.05c1.01.07,1.95-.29,2.64-.99.7-.69,1.06-1.66.99-2.64l-.05-.87c-.03-.43.14-.86.47-1.15l.5-.43c1.42.98,2.79,2.22,3.98,3.64ZM53.47,27.435c-1.35,2.37-3.7,4.6-6.63,6.29-1.14.67-2.34,1.21-3.56,1.63-.14-.1-.29-.19-.44-.3.12-.34.19-.69.19-1.06,0-.98-.42-1.92-1.16-2.57l-.66-.57c-.33-.29-.5-.72-.47-1.15l.05-.87c.07-.98-.29-1.95-.99-2.64-.69-.7-1.66-1.06-2.64-.99l-.87.05c-.12.02-.24.01-.36-.02,1.19-1.18,2.6-2.26,4.18-3.17,5.76-3.33,12.17-3.47,13.99-.31.85,1.47.63,3.49-.63,5.68Z"/>
  <path d="M32,28.995c-2.757,0-5,2.243-5,5s2.243,5,5,5,5-2.243,5-5-2.243-5-5-5ZM32,36.995c-1.654,0-3-1.346-3-3s1.346-3,3-3,3,1.346,3,3-1.346,3-3,3Z"/>
</svg>