<?xml version="1.0" encoding="UTF-8"?>
<svg id="Outline" xmlns="http://www.w3.org/2000/svg" version="1.1" viewBox="0 0 64 64">
  <!-- Generator: Adobe Illustrator 29.5.1, SVG Export Plug-In . SVG Version: 2.1.0 Build 141)  -->
  <path d="M52,7H20c-2.76001,0-5,2.23999-5,5v35h-7c-.54999,0-1,.45001-1,1v4c0,2.76001,2.23999,5,5,5h36c2.76001,0,5-2.23999,5-5V15h3c.54999,0,1-.45001,1-1v-2c0-2.76001-2.23999-5-5-5ZM15,52c0,1.64996-1.34998,3-3,3s-3-1.35004-3-3v-3h6v3ZM51,52c0,1.64996-1.34998,3-3,3H16c.63-.84003,1-1.88,1-3v-14.59003l2,2v9.59003c0,.54999.45001,1,1,1h9.59003l3.69995,3.70996c.20001.19.45001.29004.71002.29004s.51001-.10004.71002-.29004l3.69995-3.70996h9.59003c.54999,0,1-.45001,1-1v-9.59003l2-2v14.59003ZM34,18.40997l16.59003,16.59003-16.59003,16.58997-16.59003-16.58997,16.59003-16.59003ZM21,28.58997v-6.58997h6.59003l-6.59003,6.58997ZM40.40997,22h6.59003v6.58997l-6.59003-6.58997ZM47,41.40997v6.59003h-6.59003l6.59003-6.59003ZM27.59003,48h-6.59003v-6.59003l6.59003,6.59003ZM51,32.58997l-2-2v-9.58997c0-.54999-.45001-1-1-1h-9.59003l-3.69995-3.71002c-.39001-.39001-1.03003-.39001-1.42004,0l-3.69995,3.71002h-9.59003c-.54999,0-1,.45001-1,1v9.58997l-2,2V12c0-1.65002,1.34998-3,3-3s3,1.34998,3,3v2c0,.54999.45001,1,1,1h27v17.58997ZM55,13h-30v-1c0-1.13-.39001-2.16003-1.03003-3h28.03003c1.65002,0,3,1.34998,3,3v1Z"/>
  <path d="M28,36h1v1c0,1.6543,1.3457,3,3,3,.77112,0,1.46802-.30054,2-.78027.53198.47974,1.22888.78027,2,.78027,1.6543,0,3-1.3457,3-3v-6c0-.55225-.44775-1-1-1s-1,.44775-1,1v6c0,.55127-.44873,1-1,1s-1-.44873-1-1v-6c0-.55225-.44775-1-1-1s-1,.44775-1,1v6c0,.55127-.44873,1-1,1s-1-.44873-1-1v-6c0-.55225-.44775-1-1-1h-2c-1.6543,0-3,1.3457-3,3s1.3457,3,3,3ZM28,32h1v2h-1c-.55127,0-1-.44873-1-1s.44873-1,1-1Z"/>
  <path d="M42,40c.55225,0,1-.44775,1-1v-8c0-.55225-.44775-1-1-1s-1,.44775-1,1v8c0,.55225.44775,1,1,1Z"/>
</svg>