<?xml version="1.0" encoding="UTF-8"?>
<svg id="Outline" xmlns="http://www.w3.org/2000/svg" version="1.1" viewBox="0 0 64 64">
  <!-- Generator: Adobe Illustrator 29.5.1, SVG Export Plug-In . SVG Version: 2.1.0 Build 141)  -->
  <path d="M54,7.045h-4.76c-1.15,0-2.18.64-2.69,1.66l-.89,1.79c-.17.34-.51.55-.9.55h-2.52c-.39,0-.73-.21-.9-.55l-.89-1.79c-.51-1.02-1.54-1.66-2.69-1.66h-2.06c-.68,0-1.34.23-1.87.66l-3.73,2.98c-.23.18-.53.26-.82.2l-2.35-.47c-1.48-.3-2.96.56-3.44,1.99l-.21.63c-.22.67-.2,1.4.06,2.06l1.5,3.74c.23.57.61,1.05,1.12,1.39l1.59,1.06c.28.18.45.5.45.83v.37c0,.31-.14.6-.38.79-.25.19-.56.25-.86.18l-.98-.25c-.18-.04-.34-.13-.46-.26l-.61-.61-2.42-2.41c-.56-.57-1.32-.88-2.12-.88h-.73c-1.29,0-2.44.82-2.84,2.05l-.16.46c-.36,1.09-.08,2.26.73,3.07l1.25,1.25c.27.27.36.66.24,1.03l-.15.46c-.14.41-.52.68-.95.68h-1.09c-.15,0-.31-.04-.45-.11l-2.91-1.45c-.64-.32-1.37-.4-2.07-.23l-1.77.44c-1.34.34-2.27,1.53-2.27,2.91v3.44c0,1.65,1.35,3,3,3h2.17c.27,0,.52.1.71.29l.54.54c.27.27.36.66.24,1.03l-.15.46c-.41,1.22.01,2.57,1.04,3.34l2.57,1.93c.1.07.17.16.24.25l.7,1.05c.3.46.18,1.08-.28,1.39l-.83.55c-.17.11-.36.17-.56.17h-1.39c-1.65,0-3,1.35-3,3,0,.94.45,1.84,1.2,2.4l2.94,2.2c.26.2.55.35.85.45l5.11,1.7c.31.11.63.16.95.16.27,0,.55-.04.82-.12l6.23-1.78c.18-.05.35-.12.51-.2l7.41-3.7c.14-.07.3-.11.45-.11h2.83c.68,0,1.34-.23,1.87-.66l3.45-2.76c.92-.73,1.32-1.93,1.04-3.07l-.59-2.36c-.1-.39-.27-.75-.51-1.07l-1.72-2.29c-.3-.4-.26-.96.09-1.31l3.84-3.84c.85-.85,1.11-2.12.67-3.24l-1.29-3.22c-.07-.18-.09-.38-.05-.57l.69-3.45c.06-.31.25-.56.53-.7l3.48-1.74c1.39-.69,2.02-2.36,1.45-3.8l-.75-1.87c-.17-.42-.03-.9.33-1.17l1.97-1.48c.75-.56,1.2-1.46,1.2-2.4,0-1.65-1.35-3-3-3ZM54.6,10.845l-1.97,1.48c-1.09.81-1.49,2.26-.99,3.51l.75,1.87c.19.48-.02,1.04-.48,1.27l-3.48,1.74c-.84.41-1.42,1.18-1.6,2.09l-.69,3.46c-.12.57-.06,1.16.15,1.7l1.29,3.23c.15.37.06.79-.22,1.08l-3.84,3.84c-1.05,1.05-1.17,2.73-.28,3.92l1.72,2.29c.08.1.14.22.17.35l.59,2.37c.09.38-.04.78-.35,1.02l-3.45,2.76c-.17.14-.4.22-.62.22h-.3v-26c0-.55-.45-1-1-1s-1,.45-1,1v26h-.53c-.46,0-.92.11-1.34.32l-7.41,3.7c-.06.03-.12.05-.17.07l-4.55,1.3v-20.39c0-.55-.45-1-1-1s-1,.45-1,1v20.9c-.09,0-.18-.02-.27-.04l-5.11-1.71c-.1-.03-.19-.08-.28-.14l-2.94-2.21c-.25-.19-.4-.49-.4-.8,0-.55.45-1,1-1h1.39c.6,0,1.17-.17,1.67-.5l.83-.56c1.38-.92,1.75-2.78.83-4.16l-.7-1.05c-.19-.28-.42-.53-.69-.74l-2.58-1.93c-.34-.25-.48-.7-.35-1.11l.16-.46c.36-1.09.08-2.26-.73-3.07l-.54-.54c-.56-.57-1.32-.88-2.12-.88h-2.17c-.55,0-1-.45-1-1v-3.44c0-.46.31-.86.76-.97l1.76-.44c.24-.06.48-.03.69.08l2.92,1.45c.42.21.88.32,1.34.32h1.09c1.29,0,2.44-.82,2.84-2.05l.16-.46c.36-1.09.08-2.26-.73-3.07l-1.25-1.25c-.27-.27-.36-.66-.24-1.03l.15-.46c.14-.41.52-.68.95-.68h.73c.27,0,.52.1.71.29l2.12,2.12v6.59c0,.55.45,1,1,1s1-.45,1-1v-5.01c.1.03.19.09.29.11l.98.25c.91.22,1.84.03,2.58-.55.73-.57,1.15-1.43,1.15-2.36v-.37c0-1.01-.5-1.94-1.34-2.5l-1.59-1.06c-.17-.11-.3-.27-.37-.46l-1.5-3.74c-.09-.22-.09-.46-.02-.69l.21-.63c.16-.48.65-.76,1.15-.66l2.35.47c.87.17,1.77-.05,2.46-.6l3.73-2.98c.17-.14.4-.22.62-.22h2.06c.39,0,.73.21.9.55l.34.69v8.76c0,.55.45,1,1,1s1-.45,1-1v-6.27c.38.18.8.27,1.24.27h2.52c1.15,0,2.18-.64,2.69-1.66l.89-1.79c.17-.34.51-.55.9-.55h4.76c.55,0,1,.45,1,1,0,.31-.15.61-.4.8Z"/>
</svg>