<?xml version="1.0" encoding="UTF-8"?>
<svg id="Outline" xmlns="http://www.w3.org/2000/svg" version="1.1" viewBox="0 0 64 64">
  <!-- Generator: Adobe Illustrator 29.5.1, SVG Export Plug-In . SVG Version: 2.1.0 Build 141)  -->
  <path d="M56,26c.55,0,1-.45,1-1v-14c0-.3-.14-.59-.37-.78-.24-.19-.55-.26-.84-.2l-.97.21c-5.12,1.15-10.45.95-15.4-.5-.01,0-.08-.02-.11-.03-.51-.17-1.08.11-1.26.62-.18.53.1,1.1.62,1.28l.15.04c2.67.78,5.42,1.22,8.18,1.31v24c-2.57-.09-5.13-.5-7.62-1.23-3.35-.99-6.87-1.41-10.38-1.3V10.41c1.95-.07,3.92.04,5.85.34.54.08,1.05-.29,1.14-.84.08-.54-.29-1.05-.84-1.14-4.72-.73-9.61-.41-14.18.91-.17-1.5-1.43-2.68-2.97-2.68-1.65,0-3,1.35-3,3v37h-3c-1.65,0-3,1.35-3,3,0,.39.08.77.22,1.12-1.27.34-2.22,1.5-2.22,2.88,0,1.65,1.35,3,3,3h16c1.65,0,3-1.35,3-3,0-1.38-.95-2.54-2.22-2.88.14-.35.22-.73.22-1.12,0-1.65-1.35-3-3-3h-3v-9.25l.2-.06c5.72-1.72,11.92-1.74,17.62-.05,3.03.89,6.16,1.33,9.29,1.33,2.4,0,4.8-.26,7.14-.78l.96-.21c.46-.1.79-.51.79-.98v-8c0-.55-.45-1-1-1s-1,.45-1,1v7.2l-.18.03c-1.91.43-3.86.67-5.82.73V12.96c2.01-.05,4.02-.29,6-.72v12.76c0,.55.45,1,1,1ZM17,10c0-.55.45-1,1-1s1,.45,1,1v37h-2V10ZM27,54c0,.55-.45,1-1,1H10c-.55,0-1-.45-1-1s.45-1,1-1h16c.55,0,1,.45,1,1ZM24,49c.55,0,1,.45,1,1s-.45,1-1,1h-12c-.55,0-1-.45-1-1s.45-1,1-1h12ZM27,34.55c-2.03.19-4.04.55-6,1.11V11.75l.2-.06c1.88-.57,3.83-.94,5.8-1.14v24Z"/>
</svg>