<?xml version="1.0" encoding="UTF-8"?>
<svg id="Outline" xmlns="http://www.w3.org/2000/svg" version="1.1" viewBox="0 0 48 48">
  <!-- Generator: Adobe Illustrator 29.5.1, SVG Export Plug-In . SVG Version: 2.1.0 Build 141)  -->
  <path d="M41.953,17.737l-5.744-4.102c-.131-.094-.209-.246-.209-.407v-3.607c0-.131.053-.26.146-.354.718-.717.93-1.787.542-2.724-.389-.938-1.295-1.543-2.31-1.543h-9.758c-.658,0-1.302.267-1.768.732l-1.121,1.121c-.093.093-.222.146-.354.146h-4.025c-.077,0-.155-.019-.224-.053l-3.367-1.684c-.345-.172-.731-.263-1.117-.263h-3.025c-.658,0-1.302.267-1.768.732l-2.121,2.121c-.465.465-.732,1.11-.732,1.768v2.452c0,.954.53,1.811,1.382,2.236l2.342,1.171c.17.085.276.256.276.447v1.992c0,1.078.687,2.031,1.709,2.372l.333.111c.188.062.271.204.304.283.033.079.074.238-.015.415l-.949,1.898c-.06.119-.162.208-.289.25l-.987.33c-.634.211-1.147.656-1.446,1.253-.298.597-.347,1.275-.136,1.909l.33.987c.21.634.656,1.148,1.253,1.446l.889.444c.119.06.208.162.25.289l.33.987c.057.171.007.312-.027.382s-.118.194-.29.25l-.55.184c-1.023.341-1.71,1.293-1.71,2.372v1.116c0,.838.416,1.615,1.113,2.08l2.086,1.391c.273.181.574.306.896.37l3.503.701c.233.047.402.253.402.49v.271c0,1.378,1.122,2.5,2.5,2.5h2.697c.838,0,1.615-.416,2.08-1.113l1.444-2.166c.124-.186.222-.386.291-.595l.595-1.784c.068-.205.259-.342.474-.342h2.116c.167,0,.323.083.416.223l.82,1.23c.698,1.047,2.074,1.414,3.198.849l.159-.08c.695-.348,1.181-.984,1.333-1.746l.778-3.89c.085-.426.058-.869-.08-1.281l-.642-1.926c-.049-.147-.028-.306.058-.435l1.221-1.831c.079-.119.205-.198.346-.218l5.047-.721c1.224-.174,2.147-1.238,2.147-2.475v-4.927c0-.805-.391-1.566-1.047-2.035ZM41,24.699c0,.247-.185.46-.43.495l-5.047.721c-.703.1-1.333.497-1.728,1.088l-1.222,1.832c-.431.647-.537,1.44-.291,2.177l.642,1.926c.027.083.033.171.016.256l-.778,3.89c-.03.15-.13.281-.267.349l-.159.08c-.225.113-.5.04-.64-.169l-.82-1.23c-.465-.697-1.242-1.113-2.08-1.113h-2.116c-1.078,0-2.031.687-2.372,1.709l-.595,1.785c-.014.041-.033.081-.058.118l-1.443,2.165c-.093.14-.249.223-.416.223h-2.697c-.276,0-.5-.224-.5-.5v-.271c0-1.188-.845-2.219-2.01-2.451l-3.502-.701c-.065-.013-.126-.038-.18-.074l-2.085-1.39c-.14-.093-.223-.249-.223-.416v-1.116c0-.215.137-.406.343-.474l.55-.184c1.308-.436,2.017-1.854,1.582-3.162l-.33-.987c-.21-.634-.656-1.148-1.253-1.446l-.889-.444c-.119-.06-.208-.162-.25-.289l-.33-.987c-.057-.171-.007-.312.027-.382s.118-.194.289-.25l.987-.33c.634-.21,1.148-.656,1.446-1.253l.949-1.897c.324-.648.351-1.405.073-2.075-.277-.67-.831-1.186-1.519-1.415l-.334-.111c-.205-.068-.342-.259-.342-.474v-1.992c0-.954-.53-1.811-1.382-2.236l-2.342-1.171c-.17-.085-.276-.256-.276-.447v-2.452c0-.131.053-.26.146-.354l2.121-2.121c.093-.093.222-.146.354-.146h3.025c.077,0,.155.019.224.053l3.367,1.684c.345.172.731.263,1.117.263h4.025c.658,0,1.302-.267,1.768-.732l1.121-1.121c.093-.093.222-.146.354-.146h9.758c.301,0,.423.216.462.309.038.093.104.332-.108.545-.465.465-.732,1.11-.732,1.768v3.607c0,.805.391,1.566,1.047,2.035l5.744,4.102c.131.094.209.246.209.407v4.927Z"/>
</svg>