<?xml version="1.0" encoding="UTF-8"?>
<svg id="Outline" xmlns="http://www.w3.org/2000/svg" version="1.1" viewBox="0 0 48 48">
  <!-- Generator: Adobe Illustrator 29.5.1, SVG Export Plug-In . SVG Version: 2.1.0 Build 141)  -->
  <path d="M42,5H6c-.55,0-1,.45-1,1v4c0,.55.45,1,1,1h1v29c0,1.65,1.35,3,3,3h28c1.65,0,3-1.35,3-3V11h1c.55,0,1-.45,1-1v-4c0-.55-.45-1-1-1ZM14.65,41l9.35-9.35,9.35,9.35H14.65ZM39,35.35l-9.35-9.35,9.35-9.35v18.7ZM39,13.83l-11.47,11.46c-.39.39-.39,1.03,0,1.42l11.47,11.46v1.83c0,.55-.45,1-1,1h-1.83l-11.46-11.47c-.39-.39-1.03-.39-1.42,0l-11.46,11.47h-1.83c-.55,0-1-.45-1-1v-1.83l11.47-11.46c.39-.39.39-1.03,0-1.42l-11.47-11.46v-2.83h2.83l11.46,11.47c.2.19.45.29.71.29s.51-.1.71-.29l11.46-11.47h2.83v2.83ZM9,35.35v-18.7l9.35,9.35-9.35,9.35ZM14.65,11h18.7l-9.35,9.35-9.35-9.35ZM41,9H7v-2h34v2Z"/>
</svg>