<?xml version="1.0" encoding="UTF-8"?>
<svg id="Outline" xmlns="http://www.w3.org/2000/svg" version="1.1" viewBox="0 0 48 48">
  <!-- Generator: Adobe Illustrator 29.5.1, SVG Export Plug-In . SVG Version: 2.1.0 Build 141)  -->
  <path d="M40.94,7.191l-.02-.02c-.02-.01-.03-.03-.04-.05-3.51-3.5-10.17-2.55-14.86,2.12-3.84,3.85-5.2,9.04-3.55,12.75-.69.15-1.35.39-1.95.71-1.67-2.34-3.96-3.67-6.42-3.7h-.02c-.03-.01-.05-.01-.07-.01-4.96,0-9,5.38-9,12s4.04,12,9,12c2.73,0,5.25-1.6,6.94-4.34.02.03.05.06.08.09,2.77,2.77,6.24,4.23,9.34,4.23,2.13,0,4.08-.69,5.51-2.11,0-.01.01-.01.01-.02l.02-.02c3.47-3.52,2.51-10.15-2.15-14.81-.17-.17-.35-.32-.52-.48,1.98-.71,3.89-1.93,5.52-3.55,4.64-4.66,5.61-11.27,2.18-14.79ZM27.44,10.661c3.66-3.66,8.64-4.72,11.49-2.58l-.07.14c-1.46,2.9-3.89,5.2-6.86,6.47-1.68.71-3.23,1.73-4.58,3.01-1.19,1.11-2.17,2.4-2.96,3.82-1.56-2.93-.35-7.52,2.98-10.86ZM12.58,40.781c-3.17-.94-5.57-4.97-5.57-9.79,0-5.17,2.77-9.44,6.3-9.95l.05.16c1.02,3.07.92,6.41-.28,9.42-1.29,3.24-1.46,6.82-.5,10.16ZM14.71,40.931l-.05-.15c-1.02-3.07-.92-6.41.28-9.42,1.29-3.23,1.46-6.81.5-10.15,1.3.39,2.51,1.31,3.47,2.67v.01c-1.75,1.74-2.46,4.28-2.01,7.14.33,2.08,1.26,4.15,2.65,6.01-1.18,2.21-2.92,3.61-4.84,3.89ZM22.44,37.321c-1.93-1.93-3.19-4.27-3.56-6.6-.3-1.93.04-3.63.98-4.89l.15.08c2.89,1.45,5.19,3.88,6.46,6.86,1.38,3.2,3.8,5.85,6.84,7.53-2.92,1.58-7.46.43-10.87-2.98ZM34.92,38.911l-.14-.08c-2.9-1.44-5.19-3.88-6.47-6.85-1.37-3.2-3.78-5.84-6.81-7.53.86-.46,1.85-.71,2.93-.71,2.56,0,5.52,1.29,7.91,3.68,3.66,3.66,4.72,8.63,2.58,11.49ZM31.3,24.011c-1.55-1.02-3.2-1.7-4.81-2.02.63-1.04,1.4-1.99,2.3-2.83,1.18-1.12,2.53-2.01,3.99-2.63,3.2-1.37,5.85-3.79,7.54-6.84,1.58,2.92.42,7.46-2.98,10.87-1.77,1.77-3.9,2.98-6.04,3.45Z"/>
</svg>