<?xml version="1.0" encoding="UTF-8"?>
<svg id="Outline" xmlns="http://www.w3.org/2000/svg" version="1.1" viewBox="0 0 64 64">
  <!-- Generator: Adobe Illustrator 29.5.1, SVG Export Plug-In . SVG Version: 2.1.0 Build 141)  -->
  <path d="M56.79999,37.40028c-.19-.25-.48999-.39996-.79999-.39996h-1.84998c.54999-1.25.84998-2.60999.84998-4,0-5.51001-4.48999-10-10-10-4.09998,0-7.70001,2.44-9.22998,6.15997-.58002-.09998-1.17004-.15997-1.77002-.15997-.37,0-.73999.02997-1.10999.07001l1.26996-1.27002c.38-.38.39001-.98999.03003-1.39001L16.51001,7.32032c-.17999-.20001-.44-.31-.71002-.32001-.26996-.01001-.53998.09998-.72998.28998l-2.83002,2.83002c-.19.19-.28998.45996-.28998.72998.01001.27002.12.53003.32001.71002l19.08997,17.67999c.04004.03998.09003.04999.13.08002-1.03998.26996-2.02997.70996-2.94,1.29999L11.56,12.27027c-.17999-.19995-.44-.31-.71002-.31995-.26996.00995-.53998.09998-.72998.28998l-2.83002,2.83002c-.19.19-.28998.45996-.28998.72998.01001.27002.12.52997.32001.71002l10.51001,9.72998c-4.47003,1-7.83002,4.98999-7.83002,9.76001,0,.32996.02002.66998.06,1h-2.06c-.31,0-.60999.14996-.79999.39996s-.25.57001-.16003.87l4,14c.12.43005.51001.73004.96002.73004h1v3c0,.54999.45001,1,1,1h36c.54999,0,1-.45001,1-1v-3h1c.45001,0,.84003-.29999.96002-.73004l1.13995-4c.15002-.52997-.15997-1.07996-.69-1.22998-.52997-.14996-1.07996.15002-1.22998.69l-.92999,3.27002h-25.25c-.54999,0-1,.45001-1,1s.45001,1,1,1h23v2H15v-2h7c.54999,0,1-.45001,1-1s-.45001-1-1-1h-9.25l-3.41998-12h45.33997l-1.33997,4.72998c-.15002.53003.14996,1.08002.69,1.22998.52997.15002,1.07996-.15997,1.22998-.69l1.71002-6c.08997-.29999.02997-.62-.16003-.87ZM14.39001,10.8003l1.35999-1.35999,16.32001,17.62-.04999.06L14.39001,10.8003ZM9.44,15.75031l1.35999-1.35999,16.32001,17.62994-.04999.05005L9.44,15.75031ZM14.09003,37.00031h-2.02002c-.03998-.34003-.07001-.67004-.07001-1,0-4.32001,3.45001-7.85004,7.73999-7.98999l2.72998,2.52997c-.75995-.34998-1.58997-.53998-2.46997-.53998-3.31,0-6,2.69-6,6,0,.33997.03003.66998.09003,1ZM23.85999,37.00031h-7.71997c-.08002-.33002-.14001-.66003-.14001-1,0-2.21002,1.78998-4,4-4s4,1.78998,4,4c0,.33997-.06.66998-.14001,1ZM25.53998,33.70033c-.07996-.20001-.16998-.39001-.26996-.57001l.39996.38c-.03998.06-.08997.12-.13.19ZM30.53998,37.00031c.70001-1.20001,2-2,3.46002-2s2.76001.79999,3.46002,2h-6.92004ZM39.64001,37.00031c-.83002-2.35999-3.08002-4-5.64001-4s-4.81,1.64001-5.64001,4h-2.09998c.23999-.95001.67999-1.84003,1.26001-2.65002.09998-.04999.19995-.09998.27997-.19l1.41003-1.40997c.07996-.08002.13-.16003.16998-.25,1.35999-.97003,2.94-1.5,4.62-1.5.72998,0,1.44.09998,2.12.28998,2.75.75,4.91003,2.91003,5.62,5.71002h-2.09998ZM45,37.00031c-.44,0-.85999-.09003-1.26001-.23004-.40997-1.83997-1.33002-3.46997-2.58997-4.76996.44-1.73004,2.00995-3,3.84998-3,2.21002,0,4,1.78998,4,4s-1.78998,4-4,4ZM51.90002,37.00031h-2.44c.94995-1.06,1.53998-2.46002,1.53998-4,0-3.31-2.69-6-6-6-2.44,0-4.57001,1.5-5.48999,3.65997-.56-.37-1.16003-.69-1.78003-.94,1.27002-2.84998,4.07001-4.71997,7.27002-4.71997,4.40997,0,8,3.58997,8,8,0,1.41998-.39001,2.78998-1.09998,4Z"/>
</svg>