<?xml version="1.0" encoding="UTF-8"?>
<svg id="Outline" xmlns="http://www.w3.org/2000/svg" version="1.1" viewBox="0 0 64 64">
  <!-- Generator: Adobe Illustrator 29.5.1, SVG Export Plug-In . SVG Version: 2.1.0 Build 141)  -->
  <path d="M19,11c-.552,0-1,.448-1,1s.448,1,1,1h2c.552,0,1-.448,1-1s-.448-1-1-1h-2Z"/>
  <path d="M24,12c0,.552.448,1,1,1h2c.552,0,1-.448,1-1s-.448-1-1-1h-2c-.552,0-1,.448-1,1Z"/>
  <path d="M45,13c.552,0,1-.448,1-1s-.448-1-1-1h-2c-.552,0-1,.448-1,1s.448,1,1,1h2Z"/>
  <path d="M39,13c.552,0,1-.448,1-1s-.448-1-1-1h-2c-.552,0-1,.448-1,1s.448,1,1,1h2Z"/>
  <path d="M33,13c.552,0,1-.448,1-1s-.448-1-1-1h-2c-.552,0-1,.448-1,1s.448,1,1,1h2Z"/>
  <path d="M50,34v-6.5c0-1.26-.6-2.45-1.6-3.2-1.5-1.12-2.4-2.92-2.4-4.8v-2.5h-28v2.5c0,1.88-.9,3.68-2.4,4.8-1,.75-1.6,1.94-1.6,3.2v26.5c0,.55.45,1,1,1h34c.55,0,1-.45,1-1v-16c0-.55.45-1,1-1s1,.45,1,1v16c0,1.65-1.35,3-3,3H15c-1.65,0-3-1.35-3-3v-26.5c0-1.88.9-3.68,2.4-4.8,1-.75,1.6-1.94,1.6-3.2v-2.68c-1.16-.42-2-1.52-2-2.82v-4c0-1.65,1.35-3,3-3h7c.55,0,1,.45,1,1s-.45,1-1,1h-7c-.55,0-1,.45-1,1v4c0,.55.45,1,1,1h30c.55,0,1-.45,1-1v-4c0-.55-.45-1-1-1h-19c-.55,0-1-.45-1-1s.45-1,1-1h19c1.65,0,3,1.35,3,3v4c0,1.3-.84,2.4-2,2.82v2.68c0,1.26.6,2.45,1.6,3.2,1.5,1.12,2.4,2.92,2.4,4.8v6.5c0,.55-.45,1-1,1s-1-.45-1-1Z"/>
  <path d="M30,29c0-2.28-3.01-4-7-4s-7,1.72-7,4v4c0,.74.32,1.42.89,2-.58.59-.89,1.27-.89,2v4c0,.74.32,1.42.89,2-.58.59-.89,1.27-.89,2v4c0,2.28,3.01,4,7,4s7-1.72,7-4v-4c0-.73-.31-1.41-.89-2,.57-.58.89-1.26.89-2v-4c0-.73-.31-1.41-.89-2,.57-.58.89-1.26.89-2v-4ZM28,49c0,.82-1.95,2-5,2s-5-1.18-5-2v-1.15c1.25.72,3,1.15,5,1.15s3.75-.43,5-1.15v1.15ZM23,47c-3.05,0-5-1.18-5-2,0-.26.22-.57.59-.85,1.19.54,2.71.85,4.41.85s3.22-.31,4.41-.85c.37.28.59.59.59.85,0,.82-1.95,2-5,2ZM28,41c0,.82-1.95,2-5,2s-5-1.18-5-2v-1.15c1.25.72,3,1.15,5,1.15s3.75-.43,5-1.15v1.15ZM23,39c-3.05,0-5-1.18-5-2,0-.26.22-.57.59-.85,1.19.54,2.71.85,4.41.85s3.22-.31,4.41-.85c.37.28.59.59.59.85,0,.82-1.95,2-5,2ZM28,33c0,.82-1.95,2-5,2s-5-1.18-5-2v-1.15c1.25.72,3,1.15,5,1.15s3.75-.43,5-1.15v1.15ZM23,31c-3.05,0-5-1.18-5-2s1.95-2,5-2,5,1.18,5,2-1.95,2-5,2Z"/>
  <path d="M48,33v-4c0-2.28-3.009-4-7-4s-7,1.72-7,4v4c0,.74.321,1.419.885,2.001-.575.591-.885,1.273-.885,1.999v4c0,.74.321,1.419.885,2.001-.575.591-.885,1.273-.885,1.999v4c0,2.28,3.009,4,7,4s7-1.72,7-4v-4c0-.726-.31-1.408-.885-1.999.564-.582.885-1.261.885-2.001v-4c0-.726-.31-1.408-.885-1.999.564-.582.885-1.261.885-2.001ZM41,35c-3.052,0-5-1.185-5-2v-1.147c1.251.716,3.003,1.147,5,1.147s3.749-.431,5-1.147v1.147c0,.815-1.948,2-5,2ZM41,27c3.052,0,5,1.185,5,2s-1.948,2-5,2-5-1.185-5-2,1.948-2,5-2ZM41,43c-3.052,0-5-1.185-5-2v-1.147c1.251.716,3.003,1.147,5,1.147s3.749-.431,5-1.147v1.147c0,.815-1.948,2-5,2ZM41,51c-3.052,0-5-1.185-5-2v-1.147c1.251.716,3.003,1.147,5,1.147s3.749-.431,5-1.147v1.147c0,.815-1.948,2-5,2ZM46,45c0,.815-1.948,2-5,2s-5-1.185-5-2c0-.263.215-.565.593-.849,1.187.535,2.706.849,4.407.849s3.219-.314,4.407-.849c.378.284.593.586.593.849ZM46,37c0,.815-1.948,2-5,2s-5-1.185-5-2c0-.263.215-.565.593-.849,1.187.535,2.706.849,4.407.849s3.219-.314,4.407-.849c.378.284.593.586.593.849Z"/>
</svg>