<?xml version="1.0" encoding="UTF-8"?>
<svg id="Outline" xmlns="http://www.w3.org/2000/svg" version="1.1" viewBox="0 0 64 64">
  <!-- Generator: Adobe Illustrator 29.5.1, SVG Export Plug-In . SVG Version: 2.1.0 Build 141)  -->
  <path d="M49,24c0-1.317-.859-2.427-2.042-2.829-.434-7.885-6.966-14.171-14.958-14.171s-14.522,6.284-14.958,14.168c-.434.146-.831.378-1.15.705-.576.561-.893,1.315-.893,2.127,0,1.331.877,2.449,2.079,2.84l1.836,18.309c.674,6.756,6.299,11.851,13.085,11.851s12.411-5.095,13.085-11.85l.71-7.05c.056-.55-.346-1.04-.895-1.096-.552-.049-1.041.346-1.096.895l-.71,7.051c-.571,5.729-5.341,10.05-11.095,10.05s-10.523-4.32-11.095-10.05l-1.8-17.95h1.895v1c0,1.654,1.346,3,3,3s3-1.346,3-3c0-.552.448-1,1-1s1,.448,1,1v3c0,1.654,1.346,3,3,3s3-1.346,3-3v-3c0-.552.448-1,1-1s1,.448,1,1c0,1.654,1.346,3,3,3s3-1.346,3-3v-1h1.896l-.69,6.9c-.055.55.346,1.04.896,1.095.034.003.067.005.101.005.508,0,.942-.385.994-.9l.725-7.256c.449-.144.859-.38,1.187-.716.576-.561.893-1.315.893-2.127ZM18,25c-.552,0-1-.448-1-.999,0-.534.471-1.001,1-1.001h3v2h-3ZM41,28c0,.552-.448,1-1,1s-1-.448-1-1c0-1.654-1.346-3-3-3s-3,1.346-3,3v3c0,.552-.448,1-1,1s-1-.448-1-1v-3c0-1.654-1.346-3-3-3s-3,1.346-3,3c0,.552-.448,1-1,1s-1-.448-1-1v-5h2c.553,0,1-.447,1-1s-.447-1-1-1h-5.949c.514-6.701,6.119-12,12.949-12s12.435,5.299,12.949,12h-15.949c-.553,0-1,.447-1,1s.447,1,1,1h12v5ZM46.693,24.713c-.18.185-.427.287-.693.287h-3v-2h3c.552,0,1,.448,1,1,0,.267-.103.514-.307.713Z"/>
  <path d="M26,43c-1.654,0-3,1.346-3,3s1.346,3,3,3,3-1.346,3-3-1.346-3-3-3ZM26,47c-.552,0-1-.448-1-1s.448-1,1-1,1,.448,1,1-.448,1-1,1Z"/>
  <path d="M38,49c1.654,0,3-1.346,3-3s-1.346-3-3-3-3,1.346-3,3,1.346,3,3,3ZM38,45c.552,0,1,.448,1,1s-.448,1-1,1-1-.448-1-1,.448-1,1-1Z"/>
  <path d="M32,45c1.654,0,3-1.346,3-3s-1.346-3-3-3-3,1.346-3,3,1.346,3,3,3ZM32,41c.552,0,1,.448,1,1s-.448,1-1,1-1-.448-1-1,.448-1,1-1Z"/>
  <path d="M26,35c-1.654,0-3,1.346-3,3s1.346,3,3,3,3-1.346,3-3-1.346-3-3-3ZM26,39c-.552,0-1-.448-1-1s.448-1,1-1,1,.448,1,1-.448,1-1,1Z"/>
  <path d="M38,35c-1.654,0-3,1.346-3,3s1.346,3,3,3,3-1.346,3-3-1.346-3-3-3ZM38,39c-.552,0-1-.448-1-1s.448-1,1-1,1,.448,1,1-.448,1-1,1Z"/>
</svg>