<?xml version="1.0" encoding="UTF-8"?>
<svg id="Outline" xmlns="http://www.w3.org/2000/svg" version="1.1" viewBox="0 0 64 64">
  <!-- Generator: Adobe Illustrator 29.5.1, SVG Export Plug-In . SVG Version: 2.1.0 Build 141)  -->
  <path d="M52.79,45.58c-.11.03-.22.05-.33.07l-6.36-13.51c-.53-1.14-.3-2.49.58-3.37.61-.61,1.47-.92,2.33-.86,0,.04-.01.08-.01.12,0,2.21,1.79,4,4,4s4-1.79,4-4-1.79-4-4-4c-.56,0-1.09.12-1.57.32-1.53-2.69-4.26-4.56-7.35-4.94-.39-.05-.81-.08-1.24-.08-1.72,0-3.41.45-4.91,1.3l-3.11,1.78c-.08-.94-.12-1.88-.12-2.83,0-.56.02-1.1.05-1.63,1.85-.35,3.25-1.97,3.25-3.92,0-2.21-1.79-4-4-4s-4,1.79-4,4c0,1.18.53,2.24,1.35,2.97-1.24,1.85-2.31,3.82-3.2,5.87l-1.86-1.48c-1.9-1.53-4.39-2.23-6.8-1.93-2.99.37-5.59,2.23-6.95,4.88-.48-.2-.99-.31-1.54-.31-2.21,0-4,1.79-4,4s1.79,4,4,4,4-1.79,4-4c0-.04-.01-.08-.01-.12.86-.06,1.73.25,2.33.86.88.88,1.11,2.23.59,3.36l-6.37,13.52c-.11-.02-.22-.04-.33-.07-1.56-.36-3.14.55-3.58,2.08-.23.79-.13,1.66.29,2.37.42.72,1.09,1.22,1.9,1.4,7.24,1.69,14.71,2.54,22.18,2.54s14.94-.85,22.18-2.54c.81-.18,1.48-.68,1.9-1.4.42-.71.52-1.58.29-2.37-.44-1.53-2.02-2.45-3.58-2.08ZM53,26.03c1.1,0,2,.9,2,2s-.9,2-2,2-2-.9-2-2,.9-2,2-2ZM11,30.03c-1.1,0-2-.9-2-2s.9-2,2-2,2,.9,2,2-.9,2-2,2ZM38.92,22.37c1.2-.68,2.55-1.04,3.92-1.04.34,0,.67.02.98.06,2.57.32,4.81,1.92,6.01,4.22-.08.12-.17.24-.24.36-1.56-.24-3.21.26-4.33,1.38-1.47,1.47-1.86,3.74-.97,5.64l6.17,13.1c-1.09.23-2.18.43-3.27.61l-4.73-5.68c-3.93-4.71-6.47-10.42-7.38-16.46l3.84-2.19ZM34,12.03c1.1,0,2,.9,2,2s-.9,2-2,2-2-.9-2-2,.9-2,2-2ZM19.72,32.98c.88-1.89.49-4.16-.98-5.63-1.12-1.12-2.77-1.63-4.33-1.38-.08-.13-.17-.26-.27-.38,1.01-2.25,3.14-3.84,5.59-4.15,1.9-.23,3.83.32,5.32,1.51l2.33,1.86c-.84,2.31-1.47,4.69-1.84,7.11-.08.55.29,1.06.84,1.14.05.01.1.01.15.01.49,0,.91-.35.99-.85.74-4.86,2.53-9.55,5.2-13.68-.01.35-.02.69-.02,1.04,0,8.3,2.92,16.37,8.22,22.72l3.97,4.76c-5.36.76-10.78,1.03-16.19.84-.8-2.61-1.31-5.28-1.49-7.95-.04-.55-.5-.96-1.07-.93-.55.04-.97.52-.93,1.07.18,2.59.66,5.18,1.39,7.72-4.39-.26-8.76-.83-13.06-1.72l6.18-13.11ZM54.35,49.02c-.14.24-.36.4-.62.46-14.19,3.31-29.27,3.31-43.46,0-.26-.06-.48-.22-.62-.46-.15-.24-.18-.53-.1-.8.148-.5.705-.817,1.21-.69,5.63,1.32,11.4,2.09,17.19,2.34,1.37.06,2.73.09,4.1.09,7.13,0,14.26-.81,21.19-2.43.53-.12,1.06.18,1.21.69.08.27.05.56-.1.8Z"/>
  <circle cx="26" cy="36.03" r="1"/>
</svg>