<?xml version="1.0" encoding="UTF-8"?>
<svg id="Outline" xmlns="http://www.w3.org/2000/svg" version="1.1" viewBox="0 0 64 64">
  <!-- Generator: Adobe Illustrator 29.5.1, SVG Export Plug-In . SVG Version: 2.1.0 Build 141)  -->
  <path d="M56,47h-2.01c1.29-1.71,2.01-3.8,2.01-6,0-5.51-4.49-10-10-10-.95,0-1.9.14-2.82.42-1.55-2.63-4-4.69-6.96-5.71l5.6-7.99c.25-.36.24-.83-.02-1.18l-3.86-5.14c-.19-.25-.48-.4-.8-.4h-10.28c-.32,0-.61.15-.8.4l-3.86,5.14c-.26.35-.27.82-.02,1.18l5.6,7.99c-2.96,1.02-5.41,3.08-6.96,5.71-.92-.28-1.87-.42-2.82-.42-5.51,0-10,4.49-10,10,0,2.2.72,4.29,2.01,6h-2.01c-.55,0-1,.45-1,1v4c0,.55.45,1,1,1h48c.55,0,1-.45,1-1v-4c0-.55-.45-1-1-1ZM37.38,13.98l1.51,2.02h-2.37l.86-2.02ZM39.18,18l-5.05,7.21,1.67-7.21h3.38ZM35.63,13l-.78,1.81-1.08-1.81h1.86ZM32,13.94l1.23,2.06h-2.46l1.23-2.06ZM33.74,18l-1.74,7.55-1.74-7.55h3.48ZM30.23,13l-1.08,1.81-.78-1.81h1.86ZM26.62,13.98l.86,2.02h-2.37l1.51-2.02ZM24.82,18h3.38l1.67,7.21-5.05-7.21ZM55,51H9v-2h15c.55,0,1-.45,1-1s-.45-1-1-1h-11.26c-1.74-1.51-2.74-3.67-2.74-6,0-4.41,3.59-8,8-8,.65,0,1.29.09,1.92.25-.59,1.49-.92,3.09-.92,4.75,0,1.89.4,3.72,1.18,5.42.17.36.53.58.91.58.72,0,1.211-.764.91-1.42-.66-1.44-1-2.98-1-4.58,0-4.9,3.32-9.24,7.98-10.57l2.2,3.14c.05.08.12.14.18.2.507.254,1.065.364,1.46-.2l2.2-3.14c4.66,1.33,7.98,5.67,7.98,10.57,0,1.6-.34,3.14-1,4.58-.23.5-.01,1.1.49,1.33.503.216,1.093.012,1.33-.49.78-1.7,1.18-3.53,1.18-5.42,0-1.66-.33-3.26-.92-4.75.63-.16,1.27-.25,1.92-.25,4.41,0,8,3.59,8,8,0,2.33-1,4.49-2.74,6h-23.26c-.55,0-1,.45-1,1s.45,1,1,1h27v2Z"/>
</svg>