<?xml version="1.0" encoding="UTF-8"?>
<svg id="Outline" xmlns="http://www.w3.org/2000/svg" version="1.1" viewBox="0 0 48 48">
  <!-- Generator: Adobe Illustrator 29.5.1, SVG Export Plug-In . SVG Version: 2.1.0 Build 141)  -->
  <path d="M40,18h-2.261c-2.32-5.291-7.601-9-13.739-9s-11.419,3.709-13.739,9h-2.261c-1.654,0-3,1.346-3,3v6c0,1.654,1.346,3,3,3h2.261c2.32,5.291,7.601,9,13.739,9s11.419-3.709,13.739-9h2.261c1.654,0,3-1.346,3-3v-6c0-1.654-1.346-3-3-3ZM8,28c-.551,0-1-.448-1-1v-6c0-.552.449-1,1-1h1.558c-.354,1.276-.558,2.613-.558,4s.204,2.724.558,4h-1.558ZM24,37c-7.168,0-13-5.832-13-13s5.832-13,13-13,13,5.832,13,13-5.832,13-13,13ZM41,27c0,.552-.449,1-1,1h-1.558c.354-1.276.558-2.613.558-4s-.204-2.724-.558-4h1.558c.551,0,1,.448,1,1v6Z"/>
  <path d="M34.293,11.707c.391.391,1.023.391,1.414,0l.59-.59c.189-.189.294-.446.293-.714-.002-.267-.11-.522-.302-.709-.186-.182-.288-.428-.288-.694,0-.552.449-1,1-1,.195,0,.398.062.572.176.258.17.58.211.871.11.292-.1.521-.328.622-.619.138-.399.514-.667.935-.667.551,0,1,.448,1,1,0,.421-.268.797-.667.935-.292.101-.52.33-.62.622s-.059.613.11.871c.114.174.176.377.176.572,0,.552-.449,1-1,1-.267,0-.513-.103-.694-.287-.187-.192-.442-.301-.709-.303-.28-.013-.524.104-.714.293l-.59.59c-.391.391-.391,1.023,0,1.414.391.39,1.022.391,1.413,0,.397.191.836.292,1.294.292,1.654,0,3-1.346,3-3,0-.236-.028-.47-.083-.698.672-.557,1.083-1.395,1.083-2.302,0-1.654-1.346-3-3-3-.907,0-1.745.411-2.302,1.083-.228-.055-.462-.083-.698-.083-1.654,0-3,1.346-3,3,0,.457.101.896.292,1.294-.39.391-.389,1.022,0,1.413Z"/>
  <path d="M6,11c0,1.654,1.346,3,3,3,.458,0,.897-.101,1.294-.292.195.194.451.292.706.292s.512-.098.707-.293c.391-.391.391-1.023,0-1.414l-.59-.59c-.189-.189-.448-.302-.714-.293-.268.002-.523.11-.709.303-.181.185-.427.287-.694.287-.551,0-1-.448-1-1,0-.195.062-.398.176-.572.169-.258.209-.579.11-.871s-.328-.521-.62-.622c-.398-.138-.667-.514-.667-.935,0-.552.449-1,1-1,.421,0,.797.268.935.667.101.291.33.52.622.619.291.101.613.059.871-.11.173-.113.376-.176.572-.176.551,0,1,.448,1,1,0,.267-.102.513-.288.694-.191.187-.3.442-.302.709-.001.268.104.524.293.714l.59.59c.391.391,1.023.391,1.414,0,.39-.391.391-1.022,0-1.413.191-.397.292-.837.292-1.294,0-1.654-1.346-3-3-3-.236,0-.47.028-.698.083-.557-.672-1.395-1.083-2.302-1.083-1.654,0-3,1.346-3,3,0,.907.411,1.745,1.083,2.302-.055.229-.083.462-.083.698Z"/>
  <path d="M42,37c0-1.654-1.346-3-3-3-.458,0-.897.101-1.294.292-.391-.389-1.022-.39-1.413,0s-.391,1.023,0,1.414l.59.59c.189.189.437.311.714.293.268-.002.523-.11.709-.303.181-.185.427-.287.694-.287.551,0,1,.448,1,1,0,.195-.062.398-.176.572-.169.258-.209.579-.11.871s.328.521.62.622c.398.138.667.514.667.935,0,.552-.449,1-1,1-.421,0-.797-.268-.935-.667-.101-.291-.33-.52-.622-.619-.292-.101-.613-.059-.871.11-.173.113-.376.176-.572.176-.551,0-1-.448-1-1,0-.267.102-.513.288-.694.191-.187.3-.442.302-.709.001-.268-.104-.524-.293-.714l-.59-.59c-.391-.391-1.023-.391-1.414,0-.39.391-.391,1.022,0,1.413-.191.397-.292.837-.292,1.294,0,1.654,1.346,3,3,3,.236,0,.47-.028.698-.083.557.672,1.395,1.083,2.302,1.083,1.654,0,3-1.346,3-3,0-.907-.411-1.745-1.083-2.302.055-.229.083-.462.083-.698Z"/>
  <path d="M13.707,36.293c-.391-.391-1.023-.391-1.414,0l-.59.59c-.189.189-.294.446-.293.714.002.267.11.522.302.709.186.182.288.428.288.694,0,.552-.449,1-1,1-.195,0-.398-.062-.572-.176-.258-.169-.58-.21-.871-.11-.292.1-.521.328-.622.619-.138.399-.514.667-.935.667-.551,0-1-.448-1-1,0-.421.268-.797.667-.935.292-.101.52-.33.62-.622s.059-.613-.11-.871c-.114-.174-.176-.377-.176-.572,0-.552.449-1,1-1,.267,0,.513.103.694.287.187.192.442.301.709.303.262.014.525-.104.714-.293l.59-.59c.391-.391.391-1.023,0-1.414s-1.022-.39-1.413,0c-.397-.191-.836-.292-1.294-.292-1.654,0-3,1.346-3,3,0,.236.028.47.083.698-.672.557-1.083,1.395-1.083,2.302,0,1.654,1.346,3,3,3,.907,0,1.745-.411,2.302-1.083.228.055.462.083.698.083,1.654,0,3-1.346,3-3,0-.457-.101-.896-.292-1.294.39-.391.389-1.022,0-1.413Z"/>
  <path d="M21,24c0-.406-.079-.79-.192-1.159.518-.513.889-1.15,1.068-1.852.042.001.081.011.124.011,2.206,0,4-1.794,4-4s-1.794-4-4-4c-1.863,0-3.42,1.286-3.862,3.014-.047-.002-.091-.014-.138-.014-2.206,0-4,1.794-4,4,0,.398.066.79.18,1.167-.728.725-1.18,1.727-1.18,2.833,0,2.206,1.794,4,4,4s4-1.794,4-4ZM22,15c1.103,0,2,.897,2,2s-.897,2-2,2c-.051,0-.097-.009-.146-.012-.269-1.02-.925-1.876-1.808-2.407.193-.902.995-1.581,1.954-1.581ZM16,20c0-1.103.897-2,2-2s2,.897,2,2c0,.382-.117.742-.314,1.056-.711-.65-1.649-1.056-2.686-1.056-.341,0-.667.056-.983.137-.003-.046-.017-.09-.017-.137ZM17,26c-1.103,0-2-.897-2-2s.897-2,2-2,2,.897,2,2-.897,2-2,2Z"/>
  <path d="M27,29h-6c-1.654,0-3,1.346-3,3s1.346,3,3,3h6c1.654,0,3-1.346,3-3s-1.346-3-3-3ZM27,33h-6c-.551,0-1-.448-1-1s.449-1,1-1h6c.551,0,1,.448,1,1s-.449,1-1,1Z"/>
  <path d="M29,17c-.552,0-1,.447-1,1v1.515c0,.595-.295,1.147-.791,1.478-1.413.942-2.025,2.725-1.488,4.336l.33.988c.14.419.53.684.949.684.671,0,1.162-.678.949-1.316l-.33-.988c-.253-.758.035-1.596.7-2.039,1.053-.702,1.681-1.876,1.681-3.142v-1.515c0-.553-.448-1-1-1Z"/>
  <path d="M32.472,20v1.515c0,.595-.295,1.147-.791,1.478-1.413.941-2.024,2.725-1.488,4.336l.33.988c.14.419.53.683.949.684.671,0,1.162-.678.949-1.316l-.33-.988c-.252-.758.035-1.596.7-2.039,1.053-.702,1.681-1.876,1.681-3.142v-1.515c0-.553-.448-1-1-1s-1,.447-1,1Z"/>
</svg>