<?xml version="1.0" encoding="UTF-8"?>
<svg id="Outline" xmlns="http://www.w3.org/2000/svg" version="1.1" viewBox="0 0 64 64">
  <!-- Generator: Adobe Illustrator 29.5.1, SVG Export Plug-In . SVG Version: 2.1.0 Build 141)  -->
  <path d="M53,28c-.86,0-1.65.28-2.3.74-1.37-7.86-7.58-14.07-15.44-15.44.46-.65.74-1.44.74-2.3,0-2.21-1.79-4-4-4s-4,1.79-4,4c0,.86.28,1.65.74,2.3-7.86,1.37-14.07,7.58-15.44,15.44-.65-.46-1.44-.74-2.3-.74-2.21,0-4,1.79-4,4s1.79,4,4,4c.86,0,1.65-.28,2.3-.74,1.37,7.86,7.58,14.07,15.44,15.44-.46.65-.74,1.44-.74,2.3,0,2.21,1.79,4,4,4s4-1.79,4-4c0-.86-.28-1.65-.74-2.3,7.86-1.37,14.07-7.58,15.44-15.44.65.46,1.44.74,2.3.74,2.21,0,4-1.79,4-4s-1.79-4-4-4ZM11,34c-1.1,0-2-.9-2-2s.9-2,2-2,2,.9,2,2-.9,2-2,2ZM32,9c1.1,0,2,.9,2,2s-.9,2-2,2-2-.9-2-2,.9-2,2-2ZM19.31,43.27c-2.67-3-4.31-6.94-4.31-11.27s1.64-8.27,4.31-11.27l1.41,1.41c-1.15,1.32-2.09,2.83-2.72,4.5-.12.31-.08.66.11.93.18.27.49.43.82.43h4.07v8h-4.07c-.33,0-.64.16-.82.43-.19.27-.23.62-.11.93.63,1.67,1.57,3.18,2.72,4.5l-1.41,1.41ZM32,55c-1.1,0-2-.9-2-2s.9-2,2-2,2,.9,2,2-.9,2-2,2ZM32,49c-4.33,0-8.27-1.64-11.27-4.31l1.41-1.41c1.32,1.15,2.83,2.09,4.5,2.72.31.12.66.08.93-.11.27-.18.43-.49.43-.82v-4.07h8v4.07c0,.33.16.64.43.82.277.185.619.24.93.11,1.67-.63,3.18-1.57,4.5-2.72l1.41,1.41c-3,2.67-6.94,4.31-11.27,4.31ZM44.69,43.27l-1.41-1.41c1.15-1.32,2.09-2.83,2.72-4.5.12-.31.08-.66-.11-.93-.18-.27-.49-.43-.82-.43h-4.07v-2c0-.55-.45-1-1-1s-1,.45-1,1v3c0,.55.45,1,1,1h3.53c-1.23,2.37-3.16,4.3-5.53,5.53v-3.53c0-.55-.45-1-1-1h-10c-.55,0-1,.45-1,1v3.53c-2.37-1.23-4.3-3.16-5.53-5.53h3.53c.55,0,1-.45,1-1v-10c0-.55-.45-1-1-1h-3.53c1.23-2.37,3.16-4.3,5.53-5.53v3.53c0,.55.45,1,1,1h3c.55,0,1-.45,1-1s-.45-1-1-1h-2v-4.07c0-.33-.16-.64-.43-.82-.27-.19-.62-.23-.93-.11-1.67.63-3.18,1.57-4.5,2.72l-1.41-1.41c3-2.67,6.94-4.31,11.27-4.31s8.27,1.64,11.27,4.31l-1.41,1.41c-1.32-1.15-2.83-2.09-4.5-2.72-.31-.12-.66-.08-.93.11-.27.18-.43.49-.43.82v4.07h-2c-.55,0-1,.45-1,1s.45,1,1,1h3c.55,0,1-.45,1-1v-3.53c2.37,1.23,4.3,3.16,5.53,5.53h-3.53c-.55,0-1,.45-1,1v3c0,.55.45,1,1,1s1-.45,1-1v-2h4.07c.33,0,.64-.16.82-.43.19-.27.23-.62.11-.93-.63-1.67-1.57-3.18-2.72-4.5l1.41-1.41c2.67,3,4.31,6.94,4.31,11.27s-1.64,8.27-4.31,11.27ZM53,34c-1.1,0-2-.9-2-2s.9-2,2-2,2,.9,2,2-.9,2-2,2Z"/>
  <path d="M35,31h-2v-2c0-.553-.448-1-1-1s-1,.447-1,1v2h-2c-.552,0-1,.447-1,1s.448,1,1,1h2v2c0,.553.448,1,1,1s1-.447,1-1v-2h2c.552,0,1-.447,1-1s-.448-1-1-1Z"/>
</svg>