<?xml version="1.0" encoding="UTF-8"?>
<svg id="Outline" xmlns="http://www.w3.org/2000/svg" version="1.1" viewBox="0 0 64 64">
  <!-- Generator: Adobe Illustrator 29.3.1, SVG Export Plug-In . SVG Version: 2.1.0 Build 151)  -->
  <path d="M54.96002,23.16998c-.40002-5.81-4.94-10.5-10.70001-11.09998l.56-2.25,3.41998-.85004c.54004-.13.85999-.67999.72998-1.20996-.12994-.54004-.67999-.87-1.20996-.73004l-4,1c-.35999.09003-.64001.37-.72998.73004l-.82001,3.27997c-5.97003.39001-10.76001,5.16003-11.17004,11.13-1.17999.40002-2.03998,1.51001-2.03998,2.83002,0,1.32996.88,2.45001,2.08002,2.83997l.53998,5.03003c-1.25-.57001-2.60999-.87-4-.87-1.57001,0-3.14001.29999-4.62.85999v-.03003c0-3.25,1.72998-6.29999,4.51001-7.96997.47998-.28998.63-.90002.34998-1.37-.28998-.47998-.89996-.63-1.37-.34998-1.42999.85999-2.60999,2.02997-3.52002,3.37-1.46997-.97003-3.19995-1.51001-4.96997-1.51001h-6c-.54999,0-1,.45001-1,1,0,2.44.98999,4.72998,2.66998,6.39001-.92999.26996-1.81.66998-2.63,1.20996-1.57996,1.06-2.76996,2.54004-3.44,4.27002-.84998,2.19-.79999,4.58997.15002,6.75l3.39001,7.67999c.48999,1.09998,1.29999,2.03998,2.32996,2.69,1.04004.65997,2.24005,1.01001,3.47003,1.01001,1.67999,0,3.26001-.63,4.45001-1.78003l.60999-.57996.60999.57996c1.19,1.15002,2.77002,1.78003,4.45001,1.78003,2.52002,0,4.79999-1.45001,5.81-3.71002l.66998-1.52997.17999,1.66998c.22003,2.02997,1.93005,3.57001,3.98004,3.57001h10.59998c2.04999,0,3.76001-1.54004,3.98004-3.57001l2.63995-24.59003c1.20001-.38995,2.08002-1.51001,2.08002-2.83997,0-1.32001-.85999-2.42999-2.03998-2.83002ZM43,14c5.17999,0,9.45001,3.95001,9.95001,9h-19.90002c.5-5.04999,4.77002-9,9.95001-9ZM13.07001,28h4.92999c1.42999,0,2.82001.45001,3.98999,1.26001-.63,1.41998-.98999,2.96997-.98999,4.56995v.03003c-1.46002-.54999-3.02002-.84998-4.58002-.85999-1.82001-1.08002-3.04999-2.92004-3.34998-5ZM31.03998,52.47998c-.69,1.53003-2.25,2.52002-3.97998,2.52002-1.15997,0-2.25-.42999-3.07001-1.22003l-1.29999-1.25c-.38-.37-1-.37-1.38,0l-1.29999,1.25c-1.42999,1.37-3.78003,1.60004-5.46002.53003-.70996-.45001-1.25-1.08002-1.58997-1.82001l-3.38-7.66998c-.73004-1.67999-.77002-3.53003-.12-5.23004.52997-1.33997,1.45996-2.5,2.69-3.32996,1.25995-.82001,2.71997-1.26001,4.22998-1.26001,1.65002,0,3.32001.38,4.78998,1.07996l.38.19c.28003.15002.62.15002.90002,0l.35999-.17999c1.48999-.70996,3.15997-1.08997,4.81-1.08997,1.51001,0,2.97003.44,4.22003,1.26001.01996.00995.02997.01996.03998.02997l1.22998,11.47003-2.07001,4.71997ZM50.28998,53.20996c-.10999,1.02002-.95996,1.79004-1.98999,1.79004h-10.59998c-1.03003,0-1.88-.77002-1.98999-1.79004l-.03003-.20996h14.64001l-.03003.20996ZM50.53003,51h-15.06006l-1.27997-11.96002c1.22998-.15997,2.46997-.17999,3.70001-.04999,1.85999.21002,3.09998.69,4.29999,1.15002.79999.31,1.63.62,2.59003.83997.78998.16998,1.59998.26001,2.42999.26001,1.41998,0,2.89996-.25,4.44995-.76001l-1.12994,10.52002ZM51.89001,38.26996c-2.45001.95001-4.65002,1.20001-6.67999.75-.81-.17999-1.54004-.45996-2.30005-.75-1.25995-.47998-2.67999-1.02997-4.79999-1.25995-1.38-.16003-2.76001-.14001-4.13.03998l-.15997-1.41998v-.01001l-.71002-6.62h19.78003l-1,9.26996ZM54,27h-22c-.54999,0-1-.45001-1-1s.45001-1,1-1h22c.54999,0,1,.45001,1,1s-.45001,1-1,1Z"/>
</svg>