<?xml version="1.0" encoding="UTF-8"?>
<svg id="Outline" xmlns="http://www.w3.org/2000/svg" version="1.1" viewBox="0 0 64 64">
  <!-- Generator: Adobe Illustrator 29.5.1, SVG Export Plug-In . SVG Version: 2.1.0 Build 141)  -->
  <path d="M56,7H18c-.27002,0-.52002.10999-.71002.28998l-10,10c-.17999.17999-.28998.42999-.28998.71002v38c0,.54999.45001,1,1,1h36c.23999,0,.46002-.10004.63-.23999l.01001.00995,12-10c.22998-.19.35999-.46997.35999-.76996V8c0-.54999-.45001-1-1-1ZM9,35h4v2h-4v-2ZM43,55H9v-2h34v2ZM43,37h-4v-2h4v2ZM43,33h-5c-.54999,0-1,.45001-1,1v4c0,.54999.45001,1,1,1h5v12H9v-12h5c.54999,0,1-.45001,1-1v-4c0-.54999-.45001-1-1-1h-5v-2h34v2ZM43,29H9v-4h34v4ZM43,23H9v-4h34v4ZM43.64001,17H10.40997l8-8h34.91003l-9.67999,8ZM45,34.5l2-1.5v2.5l-2,1.5v-2.5ZM55,45.52997l-10,8.34003v-1.40002l10-8.33997v1.39996ZM55,29.5l-2,1.5v-2.5l2-1.5v2.5ZM55,24.5l-3.59998,2.70001c-.25.19-.40002.48999-.40002.79999v4.99993c0,.82043.94753,1.27131,1.59998.80006l2.40002-1.79999v9.52997l-10,8.34003v-10.37l3.59998-2.70001c.25-.19.40002-.48999.40002-.79999v-5c0-.38-.21002-.73004-.54999-.89001-.34003-.16998-.75-.14001-1.04999.09003l-2.40002,1.79999v-1.53003l10-8.33997v2.37ZM55,19.52997l-10,8.34003v-3.40002l10-8.33997v3.39996ZM55,13.52997l-10,8.34003v-3.40002l10-8.26001v3.32001Z"/>
  <path d="M24,33h-6c-.55225,0-1,.44775-1,1v4c0,.55225.44775,1,1,1h6c.55225,0,1-.44775,1-1v-4c0-.55225-.44775-1-1-1ZM23,37h-4v-2h4v2Z"/>
  <path d="M34,33h-6c-.55225,0-1,.44775-1,1v4c0,.55225.44775,1,1,1h6c.55225,0,1-.44775,1-1v-4c0-.55225-.44775-1-1-1ZM33,37h-4v-2h4v2Z"/>
</svg>