<?xml version="1.0" encoding="UTF-8"?>
<svg id="Outline" xmlns="http://www.w3.org/2000/svg" version="1.1" viewBox="0 0 64 64">
  <!-- Generator: Adobe Illustrator 29.5.1, SVG Export Plug-In . SVG Version: 2.1.0 Build 141)  -->
  <path d="M54,14h-2v-1c0-1.65-1.35-3-3-3h-4c-1.65,0-3,1.35-3,3v1h-20v-1c0-1.65-1.35-3-3-3h-4c-1.65,0-3,1.35-3,3v1h-2c-1.65,0-3,1.35-3,3v34c0,1.65,1.35,3,3,3h44c1.65,0,3-1.35,3-3V17c0-1.65-1.35-3-3-3ZM44,13c0-.55.45-1,1-1h4c.55,0,1,.45,1,1v1h-6v-1ZM14,13c0-.55.45-1,1-1h4c.55,0,1,.45,1,1v1h-6v-1ZM55,51c0,.55-.45,1-1,1H10c-.55,0-1-.45-1-1v-1h46v1ZM13,48v-2h6v2h-6ZM55,48H21v-3c0-.55-.45-1-1-1h-8c-.55,0-1,.45-1,1v3h-2v-31c0-.55.45-1,1-1h44c.55,0,1,.45,1,1v31Z"/>
  <path d="M12,42h10c.553,0,1-.447,1-1v-22c0-.553-.447-1-1-1h-10c-.553,0-1,.447-1,1v22c0,.553.447,1,1,1ZM13,20h8v20h-8v-20Z"/>
  <path d="M18,23h-2c-.553,0-1,.447-1,1s.447,1,1,1h2c.553,0,1-.447,1-1s-.447-1-1-1Z"/>
  <path d="M18,27h-2c-.553,0-1,.447-1,1s.447,1,1,1h2c.553,0,1-.447,1-1s-.447-1-1-1Z"/>
  <path d="M18,31h-2c-.553,0-1,.447-1,1s.447,1,1,1h2c.553,0,1-.447,1-1s-.447-1-1-1Z"/>
  <path d="M18,35h-2c-.553,0-1,.447-1,1s.447,1,1,1h2c.553,0,1-.447,1-1s-.447-1-1-1Z"/>
  <path d="M27,42h10c.553,0,1-.447,1-1v-22c0-.553-.447-1-1-1h-10c-.553,0-1,.447-1,1v22c0,.553.447,1,1,1ZM28,20h8v20h-8v-20Z"/>
  <path d="M33,23h-2c-.553,0-1,.447-1,1s.447,1,1,1h2c.553,0,1-.447,1-1s-.447-1-1-1Z"/>
  <path d="M33,27h-2c-.553,0-1,.447-1,1s.447,1,1,1h2c.553,0,1-.447,1-1s-.447-1-1-1Z"/>
  <path d="M33,31h-2c-.553,0-1,.447-1,1s.447,1,1,1h2c.553,0,1-.447,1-1s-.447-1-1-1Z"/>
  <path d="M33,35h-2c-.553,0-1,.447-1,1s.447,1,1,1h2c.553,0,1-.447,1-1s-.447-1-1-1Z"/>
  <path d="M42,42h10c.553,0,1-.447,1-1v-22c0-.553-.447-1-1-1h-10c-.553,0-1,.447-1,1v22c0,.553.447,1,1,1ZM43,20h8v20h-8v-20Z"/>
  <path d="M48,23h-2c-.553,0-1,.447-1,1s.447,1,1,1h2c.553,0,1-.447,1-1s-.447-1-1-1Z"/>
  <path d="M48,27h-2c-.553,0-1,.447-1,1s.447,1,1,1h2c.553,0,1-.447,1-1s-.447-1-1-1Z"/>
  <path d="M48,31h-2c-.553,0-1,.447-1,1s.447,1,1,1h2c.553,0,1-.447,1-1s-.447-1-1-1Z"/>
  <path d="M48,35h-2c-.553,0-1,.447-1,1s.447,1,1,1h2c.553,0,1-.447,1-1s-.447-1-1-1Z"/>
</svg>