<?xml version="1.0" encoding="UTF-8"?>
<svg id="Outline" xmlns="http://www.w3.org/2000/svg" version="1.1" viewBox="0 0 64 64">
  <!-- Generator: Adobe Illustrator 29.5.1, SVG Export Plug-In . SVG Version: 2.1.0 Build 141)  -->
  <path d="M50,27h-1.09l-.82-8.12,2.06-.23c1.87-.19,3.6-1.09,4.88-2.51,1.27-1.41,1.97-3.24,1.97-5.14,0-.55-.45-1-1-1h-10.76l-3.42-1.71c-1.69-.85-3.57-1.29-5.46-1.29h-5.36c-.36,0-.69.19-.87.5-.17.31-.17.69,0,1l1.47,2.57c.89,1.54,2.06,2.84,3.46,3.84,1.14.82,2.39,1.44,3.74,1.83l-.93,4.03c-.13.54.21,1.08.74,1.2.54.13,1.08-.21,1.2-.74l1.16-5c.07-.27.02-.54-.13-.77-.15-.23-.38-.39-.64-.44-1.45-.29-2.78-.87-3.97-1.73-1.18-.84-2.15-1.92-2.89-3.22l-.62-1.07h3.64c1.58,0,3.16.37,4.56,1.07l3.63,1.82c.14.07.29.11.45.11h9.91c-.18,1.04-.65,2.01-1.36,2.8-.95,1.06-2.24,1.72-3.62,1.87l-3.04.34c-.55.06-.94.54-.89,1.09l1,10c.06.51.49.9,1,.9h2c2.42,0,4.43,1.72,4.9,4h-7.9c-1.57,0-3.06-.75-4-2l-1.2-1.6c-.33-.44-.96-.53-1.4-.2-.44.33-.53.96-.2,1.4l1.2,1.6c1.1,1.47,2.75,2.43,4.54,2.71-.45,3.98-3.84,7.09-7.94,7.09h-2c-.55,0-1,.45-1,1v7c0,.55.45,1,1,1h5c2.42,0,4.43,1.72,4.9,4h-4.9c-.55,0-1,.45-1,1s.45,1,1,1h6c.55,0,1-.45,1-1,0-2.94-1.83-5.46-4.4-6.5,4.54-3.4,7.3-8.75,7.39-14.5h5.01c.55,0,1-.45,1-1,0-3.86-3.14-7-7-7ZM40.72,49h-3.72v-5h1c5.18,0,9.45-3.95,9.95-9h1.04c-.1,5.79-3.24,11.11-8.27,14Z"/>
  <path d="M37,55h-8c-.552,0-1-.449-1-1v-12c0-.479-.34-.891-.811-.982-.465-.089-.938.164-1.117.609-1.184,2.949-3.06,5.617-5.426,7.714-2.368,2.099-5.243,3.646-8.313,4.472l-.997.265,1.711-1.711c2.513-2.513,4.131-5.851,4.557-9.4.369-3.13,1.804-6.069,4.039-8.276,2.24-2.211,5.199-3.613,8.331-3.947l2.87-.3c2.882-.301,5.311-2.388,6.044-5.192.14-.534-.181-1.081-.715-1.22-.532-.14-1.08.179-1.221.714-.523,2.003-2.258,3.494-4.315,3.708l-2.873.3c-3.582.382-6.966,1.984-9.525,4.512-2.558,2.524-4.199,5.886-4.621,9.463-.372,3.105-1.787,6.025-3.984,8.222l-4.34,4.34c-.32.32-.385.814-.159,1.206.182.315.515.501.866.501.085,0,.172-.011.257-.034l4.593-1.221c3.371-.907,6.525-2.604,9.123-4.907,1.55-1.374,2.908-2.97,4.027-4.721v7.883c0,1.654,1.346,3,3,3h8c.553,0,1-.448,1-1s-.447-1-1-1Z"/>
</svg>