<?xml version="1.0" encoding="UTF-8"?>
<svg id="Outline" xmlns="http://www.w3.org/2000/svg" version="1.1" viewBox="0 0 64 64">
  <!-- Generator: Adobe Illustrator 29.5.1, SVG Export Plug-In . SVG Version: 2.1.0 Build 141)  -->
  <path d="M21,47.989c0,2.757,1.794,5,4,5s4-2.243,4-5-1.794-5-4-5-4,2.243-4,5ZM27,47.989c0,1.626-.916,3-2,3s-2-1.374-2-3,.916-3,2-3,2,1.374,2,3Z"/>
  <path d="M14.293,38.282c-.391.391-.391,1.023,0,1.414s1.023.391,1.414,0c.713-.713,1.873-.713,2.586,0,.195.195.451.293.707.293.87,0,1.326-1.088.707-1.707-1.492-1.492-3.922-1.492-5.414,0Z"/>
  <path d="M30.293,38.282c-.391.391-.391,1.023,0,1.414s1.023.391,1.414,0c.713-.713,1.873-.713,2.586,0,.195.195.451.293.707.293.875,0,1.326-1.088.707-1.707-1.492-1.492-3.922-1.492-5.414,0Z"/>
  <path d="M56,44.989c-.55,0-1,.45-1,1,0,4.96-4.04,9-9,9s-9-4.04-9-9c0-.55-.45-1-1-1s-1,.45-1,1c0,1.63.37,3.18,1.01,4.58-2.98,2.84-6.86,4.42-11.01,4.42-8.82,0-16-7.18-16-16,0-1.73.29-3.41.83-5.02.06.01.11.02.17.02h30c.06,0,.12-.01.18-.02.36,1.06.59,2.14.71,3.25-1.17,1.25-1.89,2.93-1.89,4.77v4c0,3.86,3.14,7,7,7s7-3.14,7-7v-4c0-3.86-3.14-7-7-7-1.19,0-2.31.3-3.29.83-.16-.9-.39-1.77-.69-2.63.6-.55.98-1.33.98-2.2,0-1.46-1.06-2.68-2.45-2.94L25.81,7.409c-.37-.53-1.25-.53-1.62,0l-14.74,20.64c-1.39.26-2.45,1.48-2.45,2.94,0,.88.38,1.66.98,2.21-.64,1.85-.98,3.79-.98,5.79,0,9.92,8.08,18,18,18,4.51,0,8.73-1.65,12.04-4.65,1.99,2.81,5.26,4.65,8.96,4.65,6.07,0,11-4.93,11-11,0-.55-.45-1-1-1ZM51,45.989c0,2.76-2.24,5-5,5s-5-2.24-5-5v-1h2v2c0,.55.45,1,1,1s1-.45,1-1v-2h2v2c0,.55.45,1,1,1s1-.45,1-1v-2h2v1ZM46,36.989c2.76,0,5,2.24,5,5v1h-10v-1c0-2.76,2.24-5,5-5ZM25,9.709l13.06,18.28H11.94l13.06-18.28ZM10,29.989h30c.55,0,1,.45,1,1s-.45,1-1,1H10c-.55,0-1-.45-1-1s.45-1,1-1Z"/>
</svg>