<?xml version="1.0" encoding="UTF-8"?>
<svg id="Outline" xmlns="http://www.w3.org/2000/svg" version="1.1" viewBox="0 0 64 64">
  <!-- Generator: Adobe Illustrator 29.5.1, SVG Export Plug-In . SVG Version: 2.1.0 Build 141)  -->
  <path d="M56.104,29.87l-10.21.04v-10.07c4.46-.31,8.54-2.63,11.04-6.38.21-.31.23-.7.05-1.03-.17-.32-.51-.53-.88-.53l-10.21.04v-.94c0-1.65-1.35-3-3-3s-3,1.35-3,3v.97l-10,.04v-1.01c0-1.65-1.35-3-3-3s-3,1.35-3,3v1.03h-1.06c0-.55-.45-.99-1-.99h-3v-1c0-.55-.45-1-1-1s-1,.45-1,1v2h-6.94c-1.65,0-3,1.34-3,3v2c0,1.65,1.35,3,3,3h6.94v2c0,.55.45,1,1,1s1-.45,1-1v-1h3c.55,0,1-.45,1-1v-.01h1.06v9.96l-1.06.01c0-.55-.45-1-1-1h-3v-1c0-.55-.45-1-1-1s-1,.45-1,1v2h-6.94c-1.65,0-3,1.35-3,3v2c0,1.65,1.35,3,3,3h6.94v2c0,.55.45,1,1,1s1-.45,1-1v-1h3c.55,0,1-.45,1-1v-.01h1.06v12.01h-3c-.55,0-1,.45-1,1v4c0,.55.45,1,1,1h28c.55,0,1-.45,1-1v-4c0-.55-.45-1-1-1h-3v-12.2c4.46-.3,8.54-2.62,11.04-6.38.21-.31.23-.7.05-1.03-.17-.32-.51-.52-.88-.52ZM12.834,18.04h-2.94c-.55,0-1-.45-1-1v-2c0-.55.45-1,1-1h2.94v4ZM16.834,18.04h-2v-4h2v4ZM20.834,19.04h-2v-6h2v6ZM12.834,36h-2.94c-.55,0-1-.45-1-1v-2c0-.55.45-1,1-1h2.94v4ZM16.834,36h-2v-4h2v4ZM20.834,37h-2v-6h2v6ZM41.894,11c0-.55.45-1,1-1s1,.45,1,1v.95l-2,.01v-.96ZM25.894,11c0-.55.45-1,1-1s1,.45,1,1v1.01l-2,.01v-1.02ZM22.834,18.03v-4h2.08l19.97-.08h.02l9.14-.04c-2.34,2.53-5.63,3.99-9.14,3.99h-.03l-3.94.03c-.02,0-.03-.01-.04-.01s-.02.01-.04.01l-15.96.09-2.06.01ZM43.894,19.91v10l-2,.01v-10l2-.01ZM39.894,19.93v10l-10,.04v-9.98l10-.06ZM27.894,20v9.98h-2v-9.97l2-.01ZM47.894,52v2h-26v-2h26ZM25.894,50v-12.02l2-.02v12.04h-2ZM29.894,50v-12.05l10-.05v12.1h-10ZM41.894,50v-12.12l2-.01v12.13h-2ZM44.884,35.87l-19.98.11h-.02l-2.05.01v-3.99l2.05-.01h.02l15.97-.06h.04l3.98-.02,9.15-.04c-2.34,2.53-5.64,4-9.16,4Z"/>
</svg>