<?xml version="1.0" encoding="UTF-8"?>
<svg id="Outline" xmlns="http://www.w3.org/2000/svg" version="1.1" viewBox="0 0 64 64">
  <!-- Generator: Adobe Illustrator 29.5.1, SVG Export Plug-In . SVG Version: 2.1.0 Build 141)  -->
  <path d="M56,28h-6c-.334,0-.646.167-.832.445l-1.703,2.555h-3.49c-.512-13.046-10.827-23.276-11.276-23.716-.389-.379-1.01-.379-1.398,0-.45.44-10.764,10.67-11.276,23.716h-3.49l-1.703-2.555c-.186-.278-.498-.445-.832-.445h-6c-.553,0-1,.447-1,1v6c0,.553.447,1,1,1h6c.334,0,.646-.167.832-.445l1.703-2.555h3.49c.512,13.046,10.827,23.276,11.276,23.716.194.189.447.284.699.284s.505-.095.699-.284c.45-.44,10.764-10.67,11.276-23.716h3.49l1.703,2.555c.186.278.498.445.832.445h6c.553,0,1-.447,1-1v-6c0-.553-.447-1-1-1ZM13.465,34h-4.465v-4h4.465l1.333,2-1.333,2ZM32.001,9.452c2.304,2.521,9.506,11.223,9.956,21.548h-1.989c-.329-6.242-3.707-11-7.967-11s-7.638,4.758-7.967,11h-1.989c.45-10.309,7.654-19.023,9.958-21.548ZM26.031,31c.312-4.972,2.919-9,5.969-9s5.656,4.028,5.969,9h-11.937ZM37.969,33c-.312,4.972-2.919,9-5.969,9s-5.656-4.028-5.969-9h11.937ZM31.999,54.548c-2.304-2.521-9.506-11.223-9.956-21.548h1.989c.329,6.242,3.707,11,7.967,11s7.638-4.758,7.967-11h1.989c-.45,10.309-7.654,19.023-9.958,21.548ZM55,34h-4.465l-1.333-2,1.333-2h4.465v4Z"/>
  <circle cx="32" cy="17" r="1"/>
  <circle cx="32" cy="13" r="1"/>
  <circle cx="32" cy="47" r="1"/>
  <circle cx="32" cy="51" r="1"/>
</svg>