<?xml version="1.0" encoding="UTF-8"?>
<svg id="Outline" xmlns="http://www.w3.org/2000/svg" version="1.1" viewBox="0 0 64 64">
  <!-- Generator: Adobe Illustrator 29.5.1, SVG Export Plug-In . SVG Version: 2.1.0 Build 141)  -->
  <path d="M25,19c.55,0,1-.45,1-1v-5c0-1.6-.62-3.1-1.76-4.25-1.14-1.13-2.64-1.75-4.24-1.75-3.31,0-6,2.69-6,6v24c0,2.22,1.21,4.15,3,5.19v11.81c0,1.65,1.35,3,3,3s3-1.35,3-3v-11.81c1.79-1.04,3-2.97,3-5.19v-11c0-.55-.45-1-1-1s-1,.45-1,1v11c0,2.21-1.79,4-4,4s-4-1.79-4-4V13c0-2.21,1.79-4,4-4,1.07,0,2.07.42,2.83,1.16.75.77,1.17,1.77,1.17,2.84v5c0,.55.45,1,1,1ZM19,42.91c.33.05.66.09,1,.09s.67-.04,1-.09v11.09c0,.55-.45,1-1,1s-1-.45-1-1v-11.09Z"/>
  <path d="M38,20c0-1.64-.81-3.09-2.03-4,1.22-.91,2.03-2.36,2.03-4,0-2.76-2.24-5-5-5s-5,2.24-5,5c0,1.64.81,3.09,2.03,4-1.22.91-2.03,2.36-2.03,4s.81,3.09,2.03,4c-1.22.91-2.03,2.36-2.03,4s.81,3.09,2.03,4c-1.22.91-2.03,2.36-2.03,4,0,1.63.79,3.06,2,3.97v14.03c0,1.65,1.35,3,3,3s3-1.35,3-3v-14.03c1.21-.91,2-2.34,2-3.97,0-1.64-.81-3.09-2.03-4,1.22-.91,2.03-2.36,2.03-4s-.81-3.09-2.03-4c1.22-.91,2.03-2.36,2.03-4ZM30,12c0-1.65,1.35-3,3-3s3,1.35,3,3-1.35,3-3,3-3-1.35-3-3ZM34,54c0,.55-.45,1-1,1s-1-.45-1-1v-13.1c.32.06.66.1,1,.1s.68-.04,1-.1v13.1ZM36,36c0,1.65-1.35,3-3,3s-3-1.35-3-3,1.35-3,3-3,3,1.35,3,3ZM36,28c0,1.65-1.35,3-3,3s-3-1.35-3-3,1.35-3,3-3,3,1.35,3,3ZM33,23c-1.65,0-3-1.35-3-3s1.35-3,3-3,3,1.35,3,3-1.35,3-3,3Z"/>
  <path d="M21.707,16.293l-2-2c-.391-.391-1.023-.391-1.414,0s-.391,1.023,0,1.414l2,2c.195.195.451.293.706.293.867,0,1.32-1.095.708-1.707Z"/>
  <path d="M21.707,22.293l-2-2c-.391-.391-1.023-.391-1.414,0s-.391,1.023,0,1.414l2,2c.195.195.451.293.707.293.868,0,1.32-1.094.708-1.707Z"/>
  <path d="M21.707,28.293l-2-2c-.391-.391-1.023-.391-1.414,0s-.391,1.023,0,1.414l2,2c.195.195.451.293.707.293.872,0,1.326-1.088.707-1.707Z"/>
  <path d="M19.707,32.293c-.391-.391-1.023-.391-1.414,0s-.391,1.023,0,1.414l2,2c.195.195.451.293.707.293.876,0,1.321-1.093.707-1.707l-2-2Z"/>
  <path d="M50,16v-8c0-.552-.448-1-1-1h-8c-.552,0-1,.448-1,1v8c0,.552.448,1,1,1h.026c-.635.838-1.026,1.87-1.026,3s.391,2.162,1.026,3h-.026c-.552,0-1,.448-1,1v8c0,.552.448,1,1,1h.026c-.635.838-1.026,1.87-1.026,3,0,1.627.793,3.061,2,3.974v14.026c0,1.654,1.346,3,3,3s3-1.346,3-3v-14.026c1.207-.914,2-2.348,2-3.974,0-1.13-.391-2.162-1.026-3h.026c.552,0,1-.448,1-1v-8c0-.552-.448-1-1-1h-.026c.635-.838,1.026-1.87,1.026-3s-.391-2.162-1.026-3h.026c.552,0,1-.448,1-1ZM42,9h6v6h-6v-6ZM48,25v6h-6v-6h6ZM46,54c0,.551-.449,1-1,1s-1-.449-1-1v-13.101c.323.066.658.101,1,.101s.677-.035,1-.101v13.101ZM48,36c0,1.654-1.346,3-3,3s-3-1.346-3-3,1.346-3,3-3,3,1.346,3,3ZM48,20c0,1.654-1.346,3-3,3s-3-1.346-3-3,1.346-3,3-3,3,1.346,3,3Z"/>
  <circle cx="25" cy="22" r="1"/>
</svg>