<?xml version="1.0" encoding="UTF-8"?>
<svg id="Outline" xmlns="http://www.w3.org/2000/svg" version="1.1" viewBox="0 0 64 64">
  <!-- Generator: Adobe Illustrator 29.5.1, SVG Export Plug-In . SVG Version: 2.1.0 Build 141)  -->
  <path d="M44.7998,33.40039c-3.74023-4.9873-5.7998-11.16602-5.7998-17.39844v-5.00195c0-2.28027-3.00928-4-7-4s-7,1.71973-7,4v5c0,6.2334-2.06006,12.41211-5.7998,17.40039-.12988.17285-.2002.38281-.2002.59961v20c0,1.6543,1.3457,3,3,3h20c1.6543,0,3-1.3457,3-3v-20c0-.2168-.07031-.42676-.2002-.59961ZM32,9c3.05225,0,5,1.18457,5,2s-1.94775,2-5,2-5-1.18457-5-2,1.94775-2,5-2ZM43,54c0,.55176-.44873,1-1,1h-20c-.55127,0-1-.44824-1-1v-19.66992c3.87158-5.2832,6-11.7793,6-18.33008v-2.14709c1.2514.71619,3.00269,1.14709,5,1.14709s3.7486-.43091,5-1.14709v2.14905c0,6.55078,2.12842,13.0459,6,18.32812v19.66992Z"/>
  <path d="M24.35107,34.06348c-.51709-.19141-1.09326.06836-1.2876.58496-.19385.51758.06836,1.09375.58545,1.28809,2.69238,1.00977,5.52197,1.51465,8.35107,1.51465s5.65869-.50488,8.35107-1.51465c.51709-.19434.7793-.77051.58545-1.28809-.19385-.5166-.77051-.77637-1.2876-.58496-4.93262,1.84961-10.36523,1.84961-15.29785,0Z"/>
  <path d="M40,39h-16c-.55225,0-1,.44727-1,1v12c0,.55273.44775,1,1,1h16c.55225,0,1-.44727,1-1v-12c0-.55273-.44775-1-1-1ZM39,51h-14v-10h14v10Z"/>
</svg>