<?xml version="1.0" encoding="UTF-8"?>
<svg id="Outline" xmlns="http://www.w3.org/2000/svg" version="1.1" viewBox="0 0 48 48">
  <!-- Generator: Adobe Illustrator 29.5.1, SVG Export Plug-In . SVG Version: 2.1.0 Build 141)  -->
  <path d="M14.707,9.295c-.391-.391-1.023-.391-1.414,0l-2.293,2.293v-1.586c0-.553-.448-1-1-1s-1,.447-1,1v8c0,.553.448,1,1,1s1-.447,1-1v-1.586l2.293,2.293c.195.195.451.293.707.293.872,0,1.325-1.089.707-1.707l-3.293-3.293,3.293-3.293c.391-.391.391-1.023,0-1.414Z"/>
  <path d="M22,11.002c.552,0,1-.447,1-1s-.448-1-1-1h-4c-.552,0-1,.447-1,1v8c0,.553.448,1,1,1h4c.552,0,1-.447,1-1s-.448-1-1-1h-3v-2h3c.552,0,1-.447,1-1s-.448-1-1-1h-3v-2h3Z"/>
  <path d="M30,9.002h-4c-.552,0-1,.447-1,1s.448,1,1,1h1v7c0,.553.448,1,1,1s1-.447,1-1v-7h1c.552,0,1-.447,1-1s-.448-1-1-1Z"/>
  <path d="M36,9.002c-1.654,0-3,1.346-3,3v4c0,1.654,1.346,3,3,3s3-1.346,3-3v-4c0-1.654-1.346-3-3-3ZM37,16.002c0,.552-.449,1-1,1s-1-.448-1-1v-4c0-.552.449-1,1-1s1,.448,1,1v4Z"/>
  <path d="M40,5.002H8c-1.654,0-3,1.346-3,3v12c0,1.654,1.346,3,3,3h9.682c-.443.928-.682,1.95-.682,3,0,.236.012.472.034.684.083.884-.103,1.697-.538,2.354-1.301,1.963-1.776,4.334-1.339,6.678.669,3.575,3.505,6.432,7.051,7.106.595.116,1.193.174,1.785.174,2.085,0,4.104-.709,5.725-2.045,2.085-1.718,3.282-4.251,3.282-6.95,0-1.842-.557-3.613-1.606-5.116-.487-.709-.509-1.501-.44-2.052.097-.861.039-1.733-.173-2.592-.105-.426-.267-.839-.457-1.24h9.676c1.654,0,3-1.346,3-3v-12c0-1.654-1.346-3-3-3ZM28.839,24.722c.155.628.197,1.263.128,1.876-.156,1.249.12,2.464.782,3.427.818,1.172,1.25,2.547,1.25,3.978,0,2.1-.931,4.07-2.553,5.406-1.619,1.333-3.752,1.863-5.86,1.451-2.749-.523-4.944-2.738-5.464-5.511-.341-1.829.029-3.678,1.041-5.204.69-1.042.989-2.303.861-3.658-.017-.155-.024-.32-.024-.484,0-1.096.376-2.14,1.035-3h7.966c.396.522.687,1.107.839,1.72ZM41,20.002c0,.552-.449,1-1,1H8c-.551,0-1-.448-1-1v-12c0-.552.449-1,1-1h32c.551,0,1,.448,1,1v12Z"/>
  <path d="M19,34.002c0,2.757,2.243,5,5,5s5-2.243,5-5-2.243-5-5-5-5,2.243-5,5ZM24,31.002c1.654,0,3,1.346,3,3s-1.346,3-3,3-3-1.346-3-3,1.346-3,3-3Z"/>
</svg>