<?xml version="1.0" encoding="UTF-8"?>
<svg id="Outline" xmlns="http://www.w3.org/2000/svg" version="1.1" viewBox="0 0 48 48">
  <!-- Generator: Adobe Illustrator 29.5.1, SVG Export Plug-In . SVG Version: 2.1.0 Build 141)  -->
  <path d="M42,35.78v-8.78c0-4.42-2.13-8.59-5.62-11.2.38-.5.62-1.12.62-1.8,0-1.65-1.35-3-3-3h-3.18c.11-.31.18-.65.18-1,0-1.65-1.35-3-3-3s-3,1.35-3,3c0,.35.07.69.18,1h-3.18c-1.65,0-3,1.35-3,3,0,.68.24,1.3.62,1.8-2.05,1.53-3.63,3.6-4.58,5.93-.49-1.02-1.14-1.97-1.97-2.79-1.88-1.9-4.39-2.94-7.07-2.94-.55,0-1,.45-1,1v5c0,.55.45,1,1,1,1.65,0,3,1.35,3,3v1c0,2.76,2.24,5,5,5v3.78c-.61.55-1,1.34-1,2.22,0,1.65,1.35,3,3,3h24c1.65,0,3-1.35,3-3,0-.88-.39-1.67-1-2.22ZM28,9c.55,0,1,.45,1,1s-.45,1-1,1-1-.45-1-1,.45-1,1-1ZM22,13h12c.55,0,1,.45,1,1s-.45,1-1,1h-12c-.55,0-1-.45-1-1s.45-1,1-1ZM16,27c0-4.06,2.1-7.87,5.49-10.05.17.03.34.05.51.05h12c.17,0,.34-.02.51-.05,3.39,2.18,5.49,5.99,5.49,10.05v8h-3.37c1.96-2.32,1.45-6.05,1.43-6.21-.06-.44-.41-.79-.85-.85-.17-.02-4.22-.59-6.51,1.7-.26.26-.49.57-.69.9-.2-.32-.44-.63-.72-.9-2.28-2.29-6.34-1.73-6.5-1.7-.44.06-.79.41-.85.85-.02.16-.53,3.89,1.44,6.21h-7.38v-8ZM36.14,29.86c.02,1.06-.1,2.93-1.19,4.02-.7.7-1.73,1-2.66,1.12h-1.22c0-.37-.01-.82-.06-1.3.1-.82.38-1.92,1.11-2.65,1.09-1.09,2.96-1.21,4.02-1.19ZM29.07,35h-1.28c-.95-.11-2.02-.4-2.74-1.12-1.09-1.09-1.21-2.96-1.19-4.02,1.06-.03,2.93.1,4.02,1.19,1.06,1.07,1.2,2.88,1.19,3.95ZM14,30c-1.65,0-3-1.35-3-3v-1c0-2.41-1.72-4.44-4-4.9v-3.04c1.76.22,3.39,1.01,4.66,2.29,1.51,1.5,2.34,3.51,2.34,5.65v4ZM40,39h-24c-.55,0-1-.45-1-1s.45-1,1-1h11.63c.45.05.86.07,1.22.07.54,0,.94-.04,1.15-.06.21.02.61.06,1.15.06.36,0,.78-.02,1.22-.07h7.63c.55,0,1,.45,1,1s-.45,1-1,1Z"/>
</svg>