<?xml version="1.0" encoding="UTF-8"?>
<svg id="Outline" xmlns="http://www.w3.org/2000/svg" version="1.1" viewBox="0 0 64 64">
  <!-- Generator: Adobe Illustrator 29.5.1, SVG Export Plug-In . SVG Version: 2.1.0 Build 141)  -->
  <path d="M38,41h-3v-3c0-.553-.447-1-1-1s-1,.447-1,1v4c0,.553.447,1,1,1h3v2h-1c-.553,0-1,.447-1,1v4c0,.553.447,1,1,1h1v2h-3c-.553,0-1,.447-1,1v1h-2v-5c0-.553-.447-1-1-1s-1,.447-1,1v6c0,.553.447,1,1,1h4c.553,0,1-.447,1-1v-1h3c.553,0,1-.447,1-1v-4c0-.553-.447-1-1-1h-1v-2h1c.553,0,1-.447,1-1v-4c0-.553-.447-1-1-1Z"/>
  <path d="M41.24,15.22c-1.01-2.46-3-4.45-5.46-5.46-.52-1.6-2.01-2.76-3.78-2.76s-3.26,1.16-3.78,2.76c-2.46,1.01-4.45,3-5.46,5.46-1.6.52-2.76,2.01-2.76,3.78s1.16,3.26,2.76,3.78c1.01,2.46,3,4.45,5.46,5.46.17.51.43.98.78,1.38v16.38c0,.55.45,1,1,1s1-.45,1-1v-15.14c.32.08.65.14,1,.14s.68-.06,1-.14v3.14c0,.55.45,1,1,1s1-.45,1-1v-4.38c.35-.4.61-.87.78-1.38,2.46-1.01,4.45-3,5.46-5.46,1.6-.52,2.76-2.01,2.76-3.78s-1.16-3.26-2.76-3.78ZM35.86,12.01c1.31.73,2.4,1.82,3.13,3.13-.66.18-1.25.51-1.74.97-.55-.99-1.37-1.81-2.36-2.36.46-.49.79-1.08.97-1.74ZM32,9c1.1,0,2,.9,2,2s-.9,2-2,2-2-.9-2-2,.9-2,2-2ZM28.14,12.01c.18.66.51,1.25.97,1.74-.99.55-1.81,1.37-2.36,2.36-.49-.46-1.08-.79-1.74-.97.73-1.31,1.82-2.4,3.13-3.13ZM24,21c-1.1,0-2-.9-2-2s.9-2,2-2,2,.9,2,2-.9,2-2,2ZM28.14,25.99c-1.31-.73-2.4-1.82-3.13-3.13.66-.18,1.25-.51,1.74-.97.55.99,1.37,1.81,2.36,2.36-.46.49-.79,1.08-.97,1.74ZM32,29c-1.1,0-2-.9-2-2s.9-2,2-2,2,.9,2,2-.9,2-2,2ZM32,23c-2.21,0-4-1.79-4-4s1.79-4,4-4,4,1.79,4,4-1.79,4-4,4ZM35.86,25.99c-.18-.66-.51-1.25-.97-1.74.99-.55,1.81-1.37,2.36-2.36.49.46,1.08.79,1.74.97-.73,1.31-1.82,2.4-3.13,3.13ZM40,21c-1.1,0-2-.9-2-2s.9-2,2-2,2,.9,2,2-.9,2-2,2Z"/>
</svg>