<?xml version="1.0" encoding="UTF-8"?>
<svg id="Outline" xmlns="http://www.w3.org/2000/svg" version="1.1" viewBox="0 0 64 64">
  <!-- Generator: Adobe Illustrator 29.5.1, SVG Export Plug-In . SVG Version: 2.1.0 Build 141)  -->
  <path d="M32,7c-13.785,0-25,11.215-25,25,0,5.9,2.102,11.631,5.917,16.137.355.42.985.475,1.409.116.421-.356.474-.987.116-1.409-3.51-4.145-5.442-9.416-5.442-14.844,0-12.683,10.317-23,23-23s23,10.317,23,23-10.317,23-23,23c-5.428,0-10.699-1.933-14.844-5.442-.423-.357-1.054-.305-1.409.116-.357.422-.305,1.053.116,1.409,4.506,3.815,10.236,5.917,16.137,5.917,13.785,0,25-11.215,25-25S45.785,7,32,7Z"/>
  <path d="M32,11c-11.579,0-21,9.421-21,21s9.421,21,21,21,21-9.421,21-21c0-4.834-1.686-9.552-4.746-13.284-.351-.427-.98-.49-1.407-.14-.428.351-.489.98-.14,1.407,2.769,3.376,4.293,7.644,4.293,12.017,0,10.477-8.523,19-19,19s-19-8.523-19-19,8.523-19,19-19c4.373,0,8.641,1.524,12.017,4.293.428.351,1.057.287,1.407-.14.35-.427.288-1.057-.14-1.407-3.732-3.061-8.45-4.746-13.284-4.746Z"/>
  <path d="M48,29c0-3.31-2.69-6-6-6,0-3.31-2.69-6-6-6-1.48,0-2.91.57-4,1.54-1.06-.95-2.46-1.54-4-1.54-3.31,0-6,2.69-6,6-3.31,0-6,2.69-6,6,0,1.06.28,2.08.82,3-.54.92-.82,1.94-.82,3,0,2.67,1.72,4.93,4.18,5.7-.12.42-.18.86-.18,1.3,0,2.76,2.24,5,5,5,1.09,0,2.14-.36,3-1.02.86.66,1.91,1.02,3,1.02.35,0,.69-.04,1.02-.11,1.31.27,2.85-.04,3.98-.91.86.66,1.91,1.02,3,1.02,2.76,0,5-2.24,5-5,0-.44-.06-.88-.18-1.3,2.46-.77,4.18-3.03,4.18-5.7,0-1.06-.28-2.08-.82-3,.54-.92.82-1.94.82-3ZM33.56,40.47c.29.48.44,1,.44,1.53,0,1.65-1.35,3-3,3-.77,0-1.47-.3-2.03-.84.01-.05.03-.1.03-.16v-1.59l5.71-5.7c.39-.39.39-1.03,0-1.42-.39-.39-1.03-.39-1.42,0l-4.29,4.3v-4.18l5.71-5.7c.39-.39.39-1.03,0-1.42-.39-.39-1.03-.39-1.42,0l-4.29,4.3v-10.59c0-.55-.45-1-1-1s-1,.45-1,1v10.59l-4.29-4.3c-.39-.39-1.03-.39-1.42,0-.39.39-.39,1.03,0,1.42l5.71,5.7v4.18l-4.29-4.3c-.39-.39-1.03-.39-1.42,0-.39.39-.39,1.03,0,1.42l5.71,5.7v1.59c0,.06.02.11.03.16-.56.54-1.26.84-2.03.84-1.65,0-3-1.35-3-3,0-.53.15-1.05.44-1.53.17-.3.19-.66.03-.97-.16-.31-.46-.51-.81-.54-2.09-.18-3.66-1.88-3.66-3.96,0-.86.28-1.69.82-2.4.27-.36.27-.84,0-1.2-.54-.71-.82-1.54-.82-2.4,0-2.21,1.79-4,4-4,.27,0,.57.04.92.12.34.07.69-.03.93-.27.24-.25.34-.59.27-.93-.08-.35-.12-.65-.12-.92,0-2.21,1.79-4,4-4s4,1.79,4,4c0,.27-.04.57-.12.92-.07.34.03.68.27.93.24.24.59.34.93.27.35-.08.65-.12.92-.12,2.21,0,4,1.79,4,4,0,.86-.28,1.69-.82,2.4-.27.36-.27.84,0,1.2.54.71.82,1.54.82,2.4,0,2.08-1.57,3.78-3.66,3.96-.35.03-.65.23-.81.54-.16.31-.14.67.03.97ZM45.18,32.6c.54.71.82,1.54.82,2.4,0,2.08-1.58,3.78-3.67,3.96-.34.03-.64.24-.8.54-.16.31-.15.68.03.97.29.49.44,1,.44,1.53,0,1.65-1.35,3-3,3-.85,0-1.67-.38-2.25-1.04-.26-.3-.7-.38-1.07-.26.2-.53.32-1.1.32-1.7,0-.44-.06-.88-.18-1.3,2.46-.77,4.18-3.03,4.18-5.7,0-1.06-.28-2.08-.82-3,.54-.92.82-1.94.82-3,0-3.31-2.69-6-6-6,0-1.04-.27-2.03-.74-2.88.74-.7,1.71-1.12,2.74-1.12,2.21,0,4,1.79,4,4,0,.27-.04.57-.12.92-.07.34.03.68.27.93.24.24.59.34.93.27.35-.08.65-.12.92-.12,2.21,0,4,1.79,4,4,0,.86-.28,1.69-.82,2.4-.27.36-.27.84,0,1.2Z"/>
</svg>