<?xml version="1.0" encoding="UTF-8"?>
<svg id="Outline" xmlns="http://www.w3.org/2000/svg" version="1.1" viewBox="0 0 64 64">
  <!-- Generator: Adobe Illustrator 29.5.1, SVG Export Plug-In . SVG Version: 2.1.0 Build 141)  -->
  <path d="M54,19c-1.65,0-3,1.35-3,3,0,.15.02.3.04.44l-2.97,1.59c-1.49-3.05-4.6-5.03-8.07-5.03-1.5,0-2.94.38-4.25,1.08l-.97-2.22c.75-.72,1.22-1.74,1.22-2.86,0-2.21-1.79-4-4-4s-4,1.79-4,4c0,1.12.47,2.14,1.22,2.86l-.97,2.22c-1.31-.7-2.75-1.08-4.25-1.08-3.47,0-6.58,1.98-8.07,5.03l-2.97-1.59c.02-.14.04-.29.04-.44,0-1.65-1.35-3-3-3s-3,1.35-3,3,1.35,3,3,3h.02l6.57,18.04c-1.46.2-2.59,1.45-2.59,2.96,0,.77.3,1.47.78,2-.48.53-.78,1.23-.78,2,0,1.65,1.35,3,3,3h30c1.65,0,3-1.35,3-3,0-.77-.3-1.47-.78-2,.48-.53.78-1.23.78-2,0-1.51-1.13-2.76-2.59-2.96l6.57-18.04h.02c1.65,0,3-1.35,3-3s-1.35-3-3-3ZM40,21c2.72,0,5.15,1.57,6.29,3.98l-6.81,3.63-2.92-6.68c1.05-.6,2.22-.93,3.44-.93ZM32,13c1.1,0,2,.9,2,2s-.9,2-2,2-2-.9-2-2,.9-2,2-2ZM24,21c1.22,0,2.39.33,3.44.93l-2.92,6.68-6.81-3.63c1.14-2.41,3.57-3.98,6.29-3.98ZM10,23c-.55,0-1-.45-1-1s.45-1,1-1,1,.45,1,1-.45,1-1,1ZM47,51h-30c-.55,0-1-.45-1-1s.45-1,1-1h30c.55,0,1,.45,1,1s-.45,1-1,1ZM48,46c0,.55-.45,1-1,1h-30c-.55,0-1-.45-1-1s.45-1,1-1h30c.55,0,1,.45,1,1ZM17.97,41h28.06l-.73,2h-26.6l-.73-2ZM46.76,39h-29.52l-5.34-14.7c.04-.03.08-.06.11-.09l12.52,6.67c.15.08.31.12.47.12.11,0,.22-.02.33-.06.26-.09.47-.28.59-.54l5.05-11.55c.33.09.67.15,1.03.15s.7-.06,1.03-.15l5.05,11.55c.12.26.33.45.59.54.11.04.22.06.33.06.16,0,.32-.04.47-.12l12.52-6.67c.03.03.07.06.11.09l-5.34,14.7ZM54,23c-.55,0-1-.45-1-1s.45-1,1-1,1,.45,1,1-.45,1-1,1Z"/>
  <path d="M32.919,24.606c-.157-.368-.519-.606-.919-.606s-.762.238-.919.606l-3,7c-.161.376-.077.812.212,1.101l3,3c.195.195.451.293.707.293s.512-.098.707-.293l3-3c.289-.289.373-.725.212-1.101l-3-7ZM32,33.586l-1.814-1.814,1.814-4.233,1.814,4.233-1.814,1.814Z"/>
  <path d="M21,31c-1.654,0-3,1.346-3,3s1.346,3,3,3,3-1.346,3-3-1.346-3-3-3ZM21,35c-.552,0-1-.449-1-1s.448-1,1-1,1,.449,1,1-.448,1-1,1Z"/>
  <path d="M43,31c-1.654,0-3,1.346-3,3s1.346,3,3,3,3-1.346,3-3-1.346-3-3-3ZM43,35c-.552,0-1-.449-1-1s.448-1,1-1,1,.449,1,1-.448,1-1,1Z"/>
</svg>