<?xml version="1.0" encoding="UTF-8"?>
<svg id="Outline" xmlns="http://www.w3.org/2000/svg" version="1.1" viewBox="0 0 48 48">
  <!-- Generator: Adobe Illustrator 29.5.1, SVG Export Plug-In . SVG Version: 2.1.0 Build 141)  -->
  <path d="M42,23h-23v-3c0-.55-.45-1-1-1h-2c-.55,0-1,.45-1,1s.45,1,1,1h1v2h-6v-2h1c.55,0,1-.45,1-1s-.45-1-1-1h-2c-.55,0-1,.45-1,1v3h-3c-.55,0-1,.45-1,1v4c0,.55.45,1,1,1h1v11c0,1.65,1.35,3,3,3h28c1.65,0,3-1.35,3-3v-11h1c.55,0,1-.45,1-1v-4c0-.55-.45-1-1-1ZM19,41h-6v-4h6v4ZM23,41h-2v-5c0-.55-.45-1-1-1h-8c-.55,0-1,.45-1,1v5h-1c-.55,0-1-.45-1-1v-11h14v12ZM31,41h-6v-12h6v12ZM39,40c0,.55-.45,1-1,1h-5v-12h6v11ZM41,27H7v-2h34v2Z"/>
  <path d="M12,33h2c.552,0,1-.448,1-1s-.448-1-1-1h-2c-.552,0-1,.448-1,1s.448,1,1,1Z"/>
  <path d="M18,33h2c.552,0,1-.448,1-1s-.448-1-1-1h-2c-.552,0-1,.448-1,1s.448,1,1,1Z"/>
  <path d="M28,37c.552,0,1-.448,1-1v-2c0-.552-.448-1-1-1s-1,.448-1,1v2c0,.552.448,1,1,1Z"/>
  <path d="M36,37c.552,0,1-.448,1-1v-2c0-.552-.448-1-1-1s-1,.448-1,1v2c0,.552.448,1,1,1Z"/>
  <path d="M40,5h-14c-1.654,0-3,1.346-3,3v10c0,1.654,1.346,3,3,3h14c1.654,0,3-1.346,3-3v-10c0-1.654-1.346-3-3-3ZM25,18v-10c0-.551.449-1,1-1h6v12h-6c-.551,0-1-.449-1-1ZM41,18c0,.551-.449,1-1,1h-6V7h6c.551,0,1,.449,1,1v10Z"/>
  <path d="M37,11c-.552,0-1,.448-1,1v2c0,.552.448,1,1,1s1-.448,1-1v-2c0-.552-.448-1-1-1Z"/>
  <path d="M29,11c-.552,0-1,.448-1,1v2c0,.552.448,1,1,1s1-.448,1-1v-2c0-.552-.448-1-1-1Z"/>
</svg>