<?xml version="1.0" encoding="UTF-8"?>
<svg id="Outline" xmlns="http://www.w3.org/2000/svg" version="1.1" viewBox="0 0 64 64">
  <!-- Generator: Adobe Illustrator 29.3.1, SVG Export Plug-In . SVG Version: 2.1.0 Build 151)  -->
  <path d="M53.32107,47.65213l-17.27484-15.87976,1.35345-1.47229c.37354-.40674.34717-1.03906-.05957-1.41309-.40576-.37354-1.03955-.34668-1.41309.05957l-.67651.73596L10.95583,7.3494c-.2832-.26074-.69043-.33496-1.04736-.19238-.35693.14209-.60059.47656-.62695.86035-.5791,8.42383,2.65381,16.53271,8.87061,22.24756l8.97693,8.2522-.67664.73608c-.37352.40672-.34717,1.039.05951,1.41303.38216.35147,1.02894.35797,1.41314-.05952l.97015-1.05536,2.21832.45624c1.38477.28516,2.44727,1.36768,2.70605,2.75732.2749,1.479,1.03613,2.85449,2.14404,3.87354,1.1084,1.01807,2.54297,1.66162,4.04004,1.81152l1.65381.16553c.64453.06445,1.26172.34131,1.73877.7793.59277.54541.9375,1.28809.97119,2.09229l.04688,1.11475c.05078,1.2104.57027,2.32852,1.4618,3.14833,1.80269,1.65767,4.75962,1.52512,6.4088-.26943l1.30566-1.41992c1.69238-1.8418,1.57129-4.7168-.26953-6.40869ZM19.50564,28.79227c-5.23486-4.8125-8.18945-11.45557-8.28809-18.48535l22.67932,20.84808-5.41418,5.88959-8.97705-8.25232ZM52.11794,52.70731l-1.30566,1.41992c-.90297.98196-2.56724,1.08604-3.58252.15039-.49854-.45801-.78857-1.08301-.81738-1.75977l-.04688-1.11475c-.05566-1.3374-.62939-2.57324-1.61572-3.48047-.79346-.72949-1.82129-1.18994-2.89307-1.29736l-1.65381-.16553c-1.06934-.10693-2.09424-.56641-2.88574-1.29346-.79102-.72803-1.33496-1.71045-1.53174-2.76709-.4082-2.19287-2.0835-3.90088-4.26855-4.35059l-1.04303-.21454,4.21875-4.58917,17.27496,15.87988c1.0293.9458,1.09668,2.55273.15039,3.58252Z"/>
</svg>