<?xml version="1.0" encoding="UTF-8"?>
<svg id="Outline" xmlns="http://www.w3.org/2000/svg" version="1.1" viewBox="0 0 64 64">
  <!-- Generator: Adobe Illustrator 29.5.1, SVG Export Plug-In . SVG Version: 2.1.0 Build 141)  -->
  <path d="M55,51.181v-6.36c1.16-.42,2-1.52,2-2.82,0-1.65-1.35-3-3-3h-4c-1.65,0-3,1.35-3,3,0,1.3.84,2.4,2,2.82v1.96c-6.81-1.41-12.87-5.08-17.28-10.28l9.15-16c.25-.44.13-1-.27-1.3L24.6,7.201c-.36-.27-.84-.27-1.2,0L7.4,19.201c-.4.3-.52.86-.27,1.3l15.87,27.77v1.68c0,.55-.12,1.1-.34,1.61l-.42.94c-.55,1.24-1.68,2.1-3.03,2.31-1.34.2-2.67-.29-3.57-1.31-1.4-1.6-3.56-2.33-5.65-1.92l-2.19.44c-.54.11-.89.63-.78,1.18.11.54.63.89,1.18.78l2.18-.44c1.38-.27,2.83.21,3.76,1.28,1.14,1.31,2.77,2.03,4.47,2.03.3,0,.6-.02.9-.06,2.02-.31,3.73-1.61,4.56-3.48l.42-.94c.34-.77.51-1.58.51-2.42v-1.68l5.67-9.93c4.74,5.34,11.16,9.09,18.33,10.48v2.36c-1.16.42-2,1.52-2,2.82,0,1.65,1.35,3,3,3h4c1.65,0,3-1.35,3-3,0-1.3-.84-2.4-2-2.82ZM23,44.231l-13.32-23.3c4.42-.57,8.87-.87,13.32-.91v24.21ZM23,18.021c-3.88.04-7.76.27-11.62.7l11.62-8.72v8.02ZM25,10.001l11.62,8.72c-3.86-.43-7.74-.66-11.62-.7v-8.02ZM25,44.231v-14.9c1.12,2.66,2.57,5.13,4.31,7.36l-4.31,7.54ZM30.38,34.821c-1.61-2.2-2.95-4.62-3.94-7.23l-1.44-3.77v-3.8c4.45.04,8.9.34,13.32.91l-7.94,13.89ZM50,41.001h4c.55,0,1,.45,1,1s-.45,1-1,1h-4c-.55,0-1-.45-1-1s.45-1,1-1ZM53,45.001v6h-2v-6h2ZM54,55.001h-4c-.55,0-1-.45-1-1s.45-1,1-1h4c.55,0,1,.45,1,1s-.45,1-1,1Z"/>
  <path d="M56,31.001h-14c-.552,0-1-.448-1-1s.448-1,1-1h2c.553,0,1-.447,1-1s-.447-1-1-1h-2c-1.654,0-3,1.346-3,3s1.346,3,3,3h14c.553,0,1-.447,1-1s-.447-1-1-1Z"/>
  <path d="M50,27.001h-2c-.553,0-1,.447-1,1s.447,1,1,1h2c.553,0,1-.447,1-1s-.447-1-1-1Z"/>
  <path d="M46,25.001h4c.553,0,1-.447,1-1s-.447-1-1-1h-4c-.552,0-1-.448-1-1s.448-1,1-1h2c.553,0,1-.447,1-1s-.447-1-1-1h-2c-1.654,0-3,1.346-3,3s1.346,3,3,3Z"/>
  <path d="M54,25.001h2c.553,0,1-.447,1-1s-.447-1-1-1h-2c-.553,0-1,.447-1,1s.447,1,1,1Z"/>
  <path d="M40,37.001h8c.553,0,1-.447,1-1s-.447-1-1-1h-8c-1.654,0-3,1.346-3,3s1.346,3,3,3h3c.553,0,1-.447,1-1s-.447-1-1-1h-3c-.552,0-1-.448-1-1s.448-1,1-1Z"/>
  <path d="M56,35.001h-4c-.553,0-1,.447-1,1s.447,1,1,1h4c.553,0,1-.447,1-1s-.447-1-1-1Z"/>
</svg>