<?xml version="1.0" encoding="UTF-8"?>
<svg id="Outline" xmlns="http://www.w3.org/2000/svg" version="1.1" viewBox="0 0 48 48">
  <!-- Generator: Adobe Illustrator 29.0.0, SVG Export Plug-In . SVG Version: 2.1.0 Build 186)  -->
  <path d="M30,25.29956v4.70001c0,.54999-.45001,1-1,1h-3v3.16998c0,1.53941.61954,3.03888,1.70902,4.119.8546.8478.56748,2.59565-.04905,3.46102-.56995.79999-1.45996,1.25-2.42999,1.25h-4.22998c-1.65002,0-3-1.35004-3-3v-3c0-.54999.45001-1,1-1s1,.45001,1,1v3c0,.54999.45001,1,1,1h4.22998c.32001,0,.62-.15002.81-.42004.19-.25995.24005-.58997.13-.89996l-.04999-.15002c-1.34998-1.44-2.12-3.38-2.12-5.35999v-3.16998h-4v2c0,.54999-.45001,1-1,1s-1-.45001-1-1v-6c0-.54999.45001-1,1-1s1,.45001,1,1v2h8v-3.70001c0-6.26001-1.53003-12.46002-4.42999-17.98999-2.19,1.20996-3.57001,3.51001-3.57001,6.07001v9.62c0,.54999-.45001,1-1,1s-1-.45001-1-1v-9.62c0-3.67999,2.21002-6.94,5.63-8.31.46002-.17999,1,0,1.23999.44,3.35999,6.03998,5.13,12.88,5.13,19.78998Z"/>
</svg>