<?xml version="1.0" encoding="UTF-8"?>
<svg id="Outline" xmlns="http://www.w3.org/2000/svg" version="1.1" viewBox="0 0 48 48">
  <!-- Generator: Adobe Illustrator 29.5.1, SVG Export Plug-In . SVG Version: 2.1.0 Build 141)  -->
  <path d="M40.459,36.881l-12.282-12.282L8.792,5.214c-.256-.255-.628-.355-.974-.257-.348.097-.616.372-.703.722-1.83,7.317.347,15.177,5.681,20.51l6.896,6.896c.195.195.451.293.707.293s.512-.098.707-.293l2.391-2.391,1.514.506c.961.319,1.646,1.141,1.788,2.143.292,2.034,1.916,3.658,3.95,3.95l.515.073c.794.113,1.487.573,1.9,1.262l1.614,2.69c.579.966,1.553,1.598,2.67,1.735.151.019.302.028.451.028.956,0,1.884-.388,2.56-1.064.686-.686,1.063-1.598,1.063-2.567s-.378-1.882-1.063-2.567ZM20.398,30.963l-6.188-6.188c-4.408-4.409-6.44-10.719-5.513-16.827l17.358,17.358-5.657,5.657ZM39.045,40.602c-.357.358-.848.53-1.353.465-.502-.062-.938-.346-1.199-.779l-1.614-2.69c-.726-1.208-1.94-2.014-3.333-2.213l-.514-.073c-1.16-.166-2.087-1.093-2.253-2.252-.251-1.758-1.452-3.197-3.136-3.758l-.566-.189,2.392-2.392,11.575,11.575c.308.308.478.718.478,1.153s-.17.846-.478,1.153Z"/>
</svg>