<?xml version="1.0" encoding="UTF-8"?>
<svg id="Outline" xmlns="http://www.w3.org/2000/svg" version="1.1" viewBox="0 0 48 48">
  <!-- Generator: Adobe Illustrator 29.5.1, SVG Export Plug-In . SVG Version: 2.1.0 Build 141)  -->
  <path d="M40.96,21.156c-.19-2-1.03-3.81-2.32-5.22l3.56-3.55c.39-.39.39-1.03,0-1.42l-2.83-2.83-2.83-2.83c-.39-.39-1.03-.39-1.42,0l-8.18,8.18c-.93-.32-1.91-.5-2.94-.5-1.44,0-2.8.35-4.01.96-1.23-.62-2.59-.96-3.99-.96-4.68,0-8.54,3.6-8.96,8.17-1.18.4-2.04,1.51-2.04,2.83s.86,2.43,2.04,2.83c.44,8.99,7.87,16.17,16.96,16.17s16.52-7.18,16.96-16.17c1.18-.4,2.04-1.51,2.04-2.83s-.86-2.43-2.04-2.83ZM40.08,11.676l-2.94,2.93c-.57-.4-1.19-.73-1.85-.99l3.37-3.36,1.42,1.42ZM35.83,7.426l1.42,1.42-.69.68-3.53,3.52c-.34-.04-.68-.06-1.03-.06-.67,0-1.33.09-1.97.23l5.8-5.79ZM32,14.986c3.52,0,6.43,2.61,6.92,6h-2.02c-.47-2.28-2.49-4-4.9-4-.17,0-.34.02-.5.03-.43-.64-.94-1.21-1.51-1.73.65-.19,1.32-.3,2.01-.3ZM34.82,20.986h-1.88c-.07-.68-.23-1.33-.45-1.95,1.09.18,1.97.94,2.33,1.95ZM24,14.986c3.52,0,6.43,2.61,6.92,6h-2.02c-.47-2.28-2.49-4-4.9-4s-4.43,1.72-4.9,4h-2.02c.49-3.39,3.4-6,6.92-6ZM26.82,20.986h-5.64c.42-1.16,1.52-2,2.82-2s2.4.84,2.82,2ZM16,14.986c.69,0,1.36.11,2.01.3-.57.52-1.08,1.09-1.51,1.73-.16-.01-.33-.03-.5-.03-2.41,0-4.43,1.72-4.9,4h-2.02c.49-3.39,3.4-6,6.92-6ZM15.51,19.036c-.22.62-.38,1.27-.45,1.95h-1.88c.36-1.01,1.24-1.77,2.33-1.95ZM24,40.986c-7.94,0-14.45-6.19-14.97-14h29.94c-.52,7.81-7.03,14-14.97,14ZM40,24.986H8c-.55,0-1-.45-1-1s.45-1,1-1h32c.55,0,1,.45,1,1s-.45,1-1,1Z"/>
</svg>