<?xml version="1.0" encoding="UTF-8"?>
<svg id="Outline" xmlns="http://www.w3.org/2000/svg" version="1.1" viewBox="0 0 48 48">
  <!-- Generator: Adobe Illustrator 29.5.1, SVG Export Plug-In . SVG Version: 2.1.0 Build 141)  -->
  <path d="M40.48,14.58l1.19-1.19c.57-.57.88-1.32.88-2.12s-.31-1.55-.88-2.12l-2.82-2.82c-1.17-1.17-3.07-1.17-4.24,0l-1.19,1.19c-2.78-1.59-5.99-2.52-9.42-2.52C13.52,5,5,13.52,5,24c0,3.43.93,6.64,2.52,9.42l-1.19,1.19c-.57.57-.88,1.32-.88,2.12s.31,1.55.88,2.12l2.82,2.82c.58.59,1.35.88,2.12.88s1.54-.29,2.12-.88l1.19-1.19c2.78,1.59,5.99,2.52,9.42,2.52,10.48,0,19-8.52,19-19,0-3.43-.93-6.64-2.52-9.42ZM36.02,7.74c.39-.39,1.03-.39,1.42,0l2.82,2.82c.19.19.29.44.29.71s-.1.52-.29.71l-.89.89c-1.19-1.63-2.61-3.05-4.24-4.24l.89-.89ZM11.98,40.26c-.39.39-1.03.39-1.42,0l-2.82-2.82c-.19-.19-.29-.44-.29-.71s.1-.52.29-.71l.89-.89c1.19,1.63,2.61,3.05,4.24,4.24l-.89.89ZM24,41c-9.37,0-17-7.63-17-17S14.63,7,24,7s17,7.63,17,17-7.63,17-17,17Z"/>
  <path d="M24,9c-8.27,0-15,6.73-15,15s6.73,15,15,15,15-6.73,15-15-6.73-15-15-15ZM13,30.9c-1.26-2.01-2-4.37-2-6.9s.74-4.89,2-6.9v13.8ZM18,35.52c-1.1-.58-2.11-1.31-3-2.16v-3.14c.53.48,1.23.78,2,.78h1v4.52ZM18,29h-1c-.55,0-1-.45-1-1s.45-1,1-1h1v2ZM18,25h-1c-.77,0-1.47.3-2,.78v-3.56c.53.48,1.23.78,2,.78h1v2ZM18,21h-1c-.55,0-1-.45-1-1s.45-1,1-1h1v2ZM18,17h-1c-.77,0-1.47.3-2,.78v-3.14c.89-.85,1.9-1.58,3-2.16v4.52ZM23,36.95c-1.04-.08-2.04-.28-3-.59v-3.54c.31.11.65.18,1,.18h2v3.95ZM23,31h-2c-.55,0-1-.45-1-1v-4c0-.55.45-1,1-1h2v6ZM23,23h-2c-.55,0-1-.45-1-1v-4c0-.55.45-1,1-1h2v6ZM23,15h-2c-.35,0-.69.07-1,.18v-3.54c.96-.31,1.96-.51,3-.59v3.95ZM30,19h1c.55,0,1,.45,1,1s-.45,1-1,1h-1v-2ZM30,27h1c.55,0,1,.45,1,1s-.45,1-1,1h-1v-2ZM28,36.36c-.96.31-1.96.51-3,.59v-3.95h2c.35,0,.69-.07,1-.18v3.54ZM28,30c0,.55-.45,1-1,1h-2v-6h2c.55,0,1,.45,1,1v4ZM28,22c0,.55-.45,1-1,1h-2v-6h2c.55,0,1,.45,1,1v4ZM28,15.18c-.31-.11-.65-.18-1-.18h-2v-3.95c1.04.08,2.04.28,3,.59v3.54ZM33,33.36c-.89.85-1.9,1.58-3,2.16v-4.52h1c.77,0,1.47-.3,2-.78v3.14ZM33,25.78c-.53-.48-1.23-.78-2-.78h-1v-2h1c.77,0,1.47-.3,2-.78v3.56ZM33,17.78c-.53-.48-1.23-.78-2-.78h-1v-4.52c1.1.58,2.11,1.31,3,2.16v3.14ZM35,17.1c1.26,2.01,2,4.37,2,6.9s-.74,4.89-2,6.9v-13.8Z"/>
</svg>