<?xml version="1.0" encoding="UTF-8"?>
<svg id="Outline" xmlns="http://www.w3.org/2000/svg" version="1.1" viewBox="0 0 64 64">
  <!-- Generator: Adobe Illustrator 29.5.1, SVG Export Plug-In . SVG Version: 2.1.0 Build 141)  -->
  <path d="M32,11c-11.5791,0-21,9.4209-21,21s9.4209,21,21,21,21-9.4209,21-21-9.4209-21-21-21ZM17,43.6189c-1.30029-1.67487-2.32825-3.56677-3.01373-5.6189h3.01373v5.6189ZM19,45v-5.27777c1.84845,1.55231,4.24561,2.76721,7,3.49774v1.78003h-7ZM26,47v3.01373c-2.05212-.68549-3.94403-1.71344-5.6189-3.01373h5.6189ZM28,43.65521c.6264.10571,1.26202.19562,1.91504.25104.55273.05566,1.03516-.36133,1.08105-.91113.04688-.55078-.36133-1.03418-.91113-1.08105-7.45996-.63379-13.08496-4.89551-13.08496-9.91406,0-5.51367,6.72852-10,15-10,1.62207,0,2.99805,1.54492,4.3291,3.03906.99609,1.11914,2.02637,2.27539,3.23535,2.86133,1.41406.68457,2.77246,1.05957,3.97168,1.39062,2.57422.71094,3.46387,1.04102,3.46387,2.70898,0,5.01855-5.625,9.28027-13.08496,9.91406-.5498.04688-.95801.53027-.91113,1.08105.04395.52148.48047.91504.99512.91504.02832,0,.05664-.00098.08594-.00391.65302-.05542,1.28864-.14532,1.91504-.25104v1.34479h-8v-1.34479ZM36,21.80597c-1.12213-1.01788-2.4079-1.80597-4-1.80597-1.37982,0-2.71466.12933-4,.34937v-1.34937h8v2.80597ZM26,20.78632c-2.73877.73279-5.14496,1.94238-7,3.49695v-5.28326h7v1.78632ZM20.3811,17c1.67487-1.30029,3.56677-2.32825,5.6189-3.01373v3.01373h-5.6189ZM17,26h-3.01373c.68549-2.05212,1.71344-3.94403,3.01373-5.6189v5.6189ZM38,43.21997c2.75439-.73053,5.15155-1.94543,7-3.49774v5.27777h-7v-1.78003ZM43.6189,47c-1.67487,1.30029-3.56677,2.32825-5.6189,3.01373v-3.01373h5.6189ZM47,38h3.01373c-.68549,2.05212-1.71344,3.94403-3.01373,5.6189v-5.6189ZM40.27747,26c-.74298-.41779-1.4931-1.21521-2.27747-2.09375v-4.90625h7v7h-4.72253ZM38,17v-3.01373c2.05212.68549,3.94403,1.71344,5.6189,3.01373h-5.6189ZM47,20.3811c1.30029,1.67487,2.32825,3.56677,3.01373,5.6189h-3.01373v-5.6189ZM36,13.43201v3.56799h-8v-3.56799c1.29095-.27789,2.6272-.43201,4-.43201s2.70905.15411,4,.43201ZM13.43201,28h2.55969c-.63055,1.25336-.9917,2.59589-.9917,4,0,1.39923.35486,2.74384.98431,4h-2.55231c-.27789-1.29095-.43201-2.6272-.43201-4s.15411-2.70905.43201-4ZM28,50.56799v-3.56799h8v3.56799c-1.29095.27789-2.6272.43201-4,.43201s-2.70905-.15411-4-.43201ZM50.56799,36h-2.55231c.62946-1.25616.98431-2.60077.98431-4,0-1.88538-.83258-2.91284-2-3.57471v-.42529h3.56799c.27789,1.29095.43201,2.6272.43201,4s-.15411,2.70905-.43201,4Z"/>
  <path d="M54.82617,42.19629c1.44336-3.20996,2.17383-6.63477,2.17383-10.19629,0-5.80078-2.04199-11.46387-5.74902-15.94727-.35059-.42285-.98047-.48535-1.4082-.13281-.4248.35156-.48535.98242-.13281,1.4082,3.41113,4.125,5.29004,9.33594,5.29004,14.67188,0,3.60938-.81543,7.06543-2.42383,10.27148-.14062.2793-.1416.6084-.00391.88867.1377.28125.39844.48145.70605.54102.26855.05273.4834.15918.64258.31348.99609,1.00293-.00195,4.24316-2.82715,7.07715-2.83691,2.82617-6.0791,3.8252-7.06543,2.84277-.16797-.17285-.27441-.3877-.32715-.65625-.05957-.30762-.25977-.56836-.54102-.70605-.28027-.1377-.61035-.1377-.88867.00391-3.20605,1.6084-6.66211,2.42383-10.27148,2.42383-12.68262,0-23-10.31738-23-23,0-3.60938.81543-7.06543,2.42383-10.27148.14062-.2793.1416-.6084.00391-.88867-.1377-.28125-.39844-.48145-.70605-.54102-.26855-.05273-.4834-.15918-.64258-.31348-.99609-1.00293.00195-4.24316,2.82715-7.07715,2.83594-2.82715,6.07812-3.82617,7.06543-2.84277.16797.17285.27441.3877.32715.65625.05957.30762.25977.56836.54102.70605.28027.1377.60938.13672.88867-.00391,3.20605-1.6084,6.66211-2.42383,10.27148-2.42383,5.50879,0,10.8418,1.9873,15.01562,5.59668.41797.36035,1.04785.31543,1.41113-.10254.36133-.41797.31543-1.0498-.10254-1.41113-4.53809-3.92285-10.33496-6.08301-16.32422-6.08301-3.56152,0-6.98633.73145-10.19727,2.1748-.11621-.18262-.25195-.35352-.40723-.51367-2.0166-2.00488-6.27246-.78613-9.90332,2.83301-3.61719,3.62891-4.83496,7.88574-2.81738,9.91504.1543.14941.32031.28125.49902.39453-1.44336,3.20996-2.17383,6.63477-2.17383,10.19629,0,13.78516,11.21484,25,25,25,3.56152,0,6.98633-.73145,10.19727-2.1748.11621.18262.25195.35352.40723.51367,2.0166,2.00586,6.27344.78613,9.90332-2.83301,3.61719-3.62891,4.83496-7.88574,2.81738-9.91504-.1543-.14941-.32031-.28125-.49902-.39453Z"/>
  <path d="M42.29306,36.70712c.3879.3878,1.02596.38793,1.41397-.00009.39062-.39062.39062-1.02344,0-1.41406l-8-8c-.39062-.39062-1.02344-.39062-1.41406,0s-.39062,1.02344,0,1.41406c0,0,8,8,8.00009,8.00009Z"/>
  <path d="M36.00012,36.98975c.87396.00306,1.32341-1.08023.70691-1.69678l-8-8c-.39062-.39062-1.02344-.39062-1.41406,0s-.39062,1.02344,0,1.41406l7.99999,7.99999c.18381.18381.44382.28163.70717.28273Z"/>
  <path d="M21.70703,27.29297c-.39062-.39062-1.02344-.39062-1.41406,0s-.39062,1.02344,0,1.41406l7.9999,7.9999c.35952.35952,1.02573.38854,1.41417.0001.39062-.39062.39062-1.02344,0-1.41406l-8-8Z"/>
</svg>