<?xml version="1.0" encoding="UTF-8"?>
<svg id="Outline" xmlns="http://www.w3.org/2000/svg" version="1.1" viewBox="0 0 64 64">
  <!-- Generator: Adobe Illustrator 29.5.1, SVG Export Plug-In . SVG Version: 2.1.0 Build 141)  -->
  <path d="M56,49h-2v-5c0-.55-.45-1-1-1h-3v-5c0-.55-.45-1-1-1h-3v-5c0-.55-.45-1-1-1h-3v-12h1c.55,0,1-.45,1-1v-4c0-.55-.45-1-1-1h-1v-5c0-.55-.45-1-1-1h-18c-.55,0-1,.45-1,1v5h-1c-.55,0-1,.45-1,1v4c0,.55.45,1,1,1h1v12h-3c-.55,0-1,.45-1,1v5h-3c-.55,0-1,.45-1,1v5h-3c-.55,0-1,.45-1,1v5h-2c-.55,0-1,.45-1,1v6c0,.55.45,1,1,1h3c.55,0,1-.45,1-1s-.45-1-1-1h-2v-4h14.62l-.5,4h-4.12c-.55,0-1,.45-1,1s.45,1,1,1h37c.55,0,1-.45,1-1v-6c0-.55-.45-1-1-1ZM44,33v4h-5.37l-.5-4h5.87ZM37.37,23.07l-5-2c-.24-.09-.5-.09-.74,0l-5,2c-.38.15-.63.52-.63.93v7h-2v-12h16v12h-2v-7c0-.41-.25-.78-.63-.93ZM36,24.68v6.32h-8v-6.32l4-1.6,4,1.6ZM24,9h16v4h-16v-4ZM22,15h20v2h-20v-2ZM20,33h5.87l-.5,4h-5.37v-4ZM23.87,49h-11.87v-4h12.37l-.5,4ZM24.62,43h-8.62v-4h9.12l-.5,4ZM25.13,55l2.75-22h8.24l2.75,22h-13.74ZM38.88,39h9.12v4h-8.62l-.5-4ZM39.63,45h12.37v4h-11.87l-.5-4ZM55,55h-14.12l-.5-4h14.62v4Z"/>
  <circle cx="15" cy="56" r="1"/>
</svg>