<?xml version="1.0" encoding="UTF-8"?>
<svg id="Outline" xmlns="http://www.w3.org/2000/svg" version="1.1" viewBox="0 0 64 64">
  <!-- Generator: Adobe Illustrator 29.5.1, SVG Export Plug-In . SVG Version: 2.1.0 Build 141)  -->
  <path d="M50,14c0-1.65-1.35-3-3-3h-9.22l-.81-3.24c-.11-.45-.51-.76-.97-.76h-8c-.46,0-.86.31-.97.76l-.81,3.24h-9.22c-1.65,0-3,1.35-3,3,0,1.07.57,2,1.41,2.53-.87.9-1.41,2.12-1.41,3.47v24c0,1.35.54,2.57,1.41,3.47-.84.53-1.41,1.46-1.41,2.53,0,1.65,1.35,3,3,3h9.22l.81,3.24c.11.45.51.76.97.76h8c.46,0,.86-.31.97-.76l.81-3.24h9.22c1.65,0,3-1.35,3-3,0-1.07-.57-2-1.41-2.53.87-.9,1.41-2.12,1.41-3.47v-24c0-1.35-.54-2.57-1.41-3.47.84-.53,1.41-1.46,1.41-2.53ZM28.78,9h6.44l.5,2h-7.44l.5-2ZM16,20c0-1.65,1.35-3,3-3h2.03c-.64.84-1.03,1.87-1.03,3v24c0,1.13.39,2.16,1.03,3h-2.03c-1.65,0-3-1.35-3-3v-24ZM35.22,55h-6.44l-.5-2h7.44l-.5,2ZM47,51h-30c-.55,0-1-.45-1-1s.45-1,1-1h30c.55,0,1,.45,1,1s-.45,1-1,1ZM27.56,47h-2.56c-1.65,0-3-1.35-3-3v-24c0-1.65,1.35-3,3-3h2.56c-.35.59-.56,1.27-.56,2v26c0,.73.21,1.41.56,2ZM29,45v-26c0-1.1.9-2,2-2h2c1.1,0,2,.9,2,2v26c0,1.1-.9,2-2,2h-2c-1.1,0-2-.9-2-2ZM36.44,17h2.56c1.65,0,3,1.35,3,3v24c0,1.65-1.35,3-3,3h-2.56c.35-.59.56-1.27.56-2v-26c0-.73-.21-1.41-.56-2ZM48,44c0,1.65-1.35,3-3,3h-2.03c.64-.84,1.03-1.87,1.03-3v-24c0-1.13-.39-2.16-1.03-3h2.03c1.65,0,3,1.35,3,3v24ZM47,15h-30c-.55,0-1-.45-1-1s.45-1,1-1h30c.55,0,1,.45,1,1s-.45,1-1,1Z"/>
</svg>