<?xml version="1.0" encoding="UTF-8"?>
<svg id="Outline" xmlns="http://www.w3.org/2000/svg" version="1.1" viewBox="0 0 64 64">
  <!-- Generator: Adobe Illustrator 29.3.1, SVG Export Plug-In . SVG Version: 2.1.0 Build 151)  -->
  <path d="M42,14.39996v-3.39996c0-.54999-.45001-1-1-1h-8v-2c0-.54999-.45001-1-1-1s-1,.45001-1,1v2h-8c-.54999,0-1,.45001-1,1v3.39996c-5.56,2.91003-9,8.06-9,13.60004s3.44,10.69,9,13.59998v3.40002c0,.54999.45001,1,1,1h8v3.14001c-1.71997.44995-3,2-3,3.85999v3c0,.54999.45001,1,1,1h6c.54999,0,1-.45001,1-1v-3c0-1.85999-1.28003-3.41003-3-3.85999v-3.14001h8c.54999,0,1-.45001,1-1v-3.40002c5.56-2.90997,9-8.06,9-13.59998s-3.44-10.69-9-13.60004ZM24,12h16v2h-16v-2ZM27.59003,38.97998c-3.88-1.84998-6.59003-6.08002-6.59003-10.97998s2.71002-9.13,6.59003-10.98004c-1.06,1.69-1.87006,4.03003-2.29004,6.84003-.08002.54999.29999,1.06.84003,1.14001.54999.07996,1.06-.29999,1.14001-.84003.69995-4.72998,2.68994-8.15997,4.71997-8.15997,2.37,0,5,4.92999,5,12s-2.63,12-5,12c-2.03003,0-4.02002-3.42999-4.71997-8.16003-.08002-.53998-.59003-.91998-1.14001-.83997-.54004.07996-.92004.58997-.84003,1.14001.41998,2.81,1.23004,5.14996,2.29004,6.83997ZM39,28c0-4.52002-1.02002-8.47003-2.64001-11.01001,3.90002,1.84998,6.64001,6.08002,6.64001,11.01001s-2.73999,9.15997-6.64001,11.01001c1.62-2.54004,2.64001-6.49005,2.64001-11.01001ZM15,28c0-4.90002,3.15997-9.47003,8.26001-12h2.08002c-3.79004,2.45001-6.34003,6.89996-6.34003,12s2.54999,9.54999,6.34003,12h-2.08002c-5.10004-2.53003-8.26001-7.10004-8.26001-12ZM34,53v2h-4v-2c0-1.10004.90002-2,2-2s2,.89996,2,2ZM40,44h-16v-2h16v2ZM40.73999,40h-2.08002c3.79004-2.45001,6.34003-6.90002,6.34003-12s-2.54999-9.54999-6.34003-12h2.08002c5.10004,2.52997,8.26001,7.09998,8.26001,12s-3.15997,9.46997-8.26001,12Z"/>
  <path d="M56.20117,41.52051c-1.875-.38574-3.33594-1.84668-3.72168-3.72217-.0957-.46484-.50488-.79834-.97949-.79834s-.88379.3335-.97949.79834c-.38574,1.87549-1.84668,3.33643-3.72168,3.72217-.46484.0957-.79883.50488-.79883.97949s.33398.88379.79883.97949c1.875.38574,3.33594,1.84668,3.72168,3.72217.0957.46484.50488.79834.97949.79834s.88379-.3335.97949-.79834c.38574-1.87549,1.84668-3.33643,3.72168-3.72217.46484-.0957.79883-.50488.79883-.97949s-.33398-.88379-.79883-.97949ZM51.5,44.43115c-.50586-.76758-1.16309-1.42529-1.93164-1.93115.76855-.50586,1.42578-1.16357,1.93164-1.93115.50586.76758,1.16309,1.42529,1.93164,1.93115-.76855.50586-1.42578,1.16357-1.93164,1.93115Z"/>
  <path d="M17.20117,41.52051c-1.875-.38574-3.33594-1.84668-3.72168-3.72217-.0957-.46484-.50488-.79834-.97949-.79834s-.88379.3335-.97949.79834c-.38574,1.87549-1.84668,3.33643-3.72168,3.72217-.46484.0957-.79883.50488-.79883.97949s.33398.88379.79883.97949c1.875.38574,3.33594,1.84668,3.72168,3.72217.0957.46484.50488.79834.97949.79834s.88379-.3335.97949-.79834c.38574-1.87549,1.84668-3.33643,3.72168-3.72217.46484-.0957.79883-.50488.79883-.97949s-.33398-.88379-.79883-.97949ZM12.5,44.43115c-.50586-.76758-1.16309-1.42529-1.93164-1.93115.76855-.50586,1.42578-1.16357,1.93164-1.93115.50586.76758,1.16309,1.42529,1.93164,1.93115-.76855.50586-1.42578,1.16357-1.93164,1.93115Z"/>
  <circle cx="26" cy="28" r="1"/>
</svg>