<?xml version="1.0" encoding="UTF-8"?>
<svg id="Outline" xmlns="http://www.w3.org/2000/svg" version="1.1" viewBox="0 0 64 64">
  <!-- Generator: Adobe Illustrator 29.3.1, SVG Export Plug-In . SVG Version: 2.1.0 Build 151)  -->
  <path d="M56,47h-1v-7c0-1.65002-1.34998-3-3-3h-7v-11c0-1.65002-1.34998-3-3-3h-1v-7c0-.33002-.16998-.65002-.45001-.83002l-6-4c-.02997-.02997-.07001-.03998-.10999-.06-.03003-.01001-.04999-.03003-.08002-.03998-.10999-.04004-.22998-.06-.33997-.07001h-16.04004c-.10999.01001-.22998.02997-.33997.07001-.03003.00995-.04999.02997-.08002.03998-.03998.02002-.08002.03003-.10999.06l-6,4c-.28003.17999-.45001.5-.45001.83002v7h-1c-1.65002,0-3,1.34998-3,3v24c0,1.64996,1.34998,3,3,3h42c2.76001,0,5-2.23999,5-5,0-.54999-.45001-1-1-1ZM52,39c.54999,0,1,.45001,1,1v7h-14v-7c0-.54999.45001-1,1-1h12ZM35,13.87l4,2.66998v6.46002h-4v-9.13ZM19,13h14v4h-14v-4ZM19,19h14v4h-14v-4ZM13,16.53998l4-2.66998v9.13h-4v-6.46002ZM9,26c0-.54999.45001-1,1-1h32c.54999,0,1,.45001,1,1v5.20001l-17,3.77997-17-3.77997v-5.20001ZM11,40v11h-1c-.54999,0-1-.45001-1-1v-16.75l16.78003,3.72998c.06995.01001.14996.02002.21997.02002s.15002-.01001.21997-.02002l16.78003-3.72998v3.75h-3c-1.29999,0-2.40002.83997-2.82001,2H12c-.54999,0-1,.45001-1,1ZM37,47h-1c-.54999,0-1,.45001-1,1,0,1.13.39001,2.15997,1.03003,3H13v-10h24v6ZM52,51h-12c-1.29999,0-2.41998-.84003-2.83002-2h17.66003c-.41003,1.15997-1.53003,2-2.83002,2Z"/>
</svg>