<?xml version="1.0" encoding="UTF-8"?>
<svg id="Outline" xmlns="http://www.w3.org/2000/svg" version="1.1" viewBox="0 0 64 64">
  <!-- Generator: Adobe Illustrator 29.5.1, SVG Export Plug-In . SVG Version: 2.1.0 Build 141)  -->
  <path d="M56.972,49.859c-.005-.034.007-.068-.002-.102l-2.97-11.879V12c0-1.654-1.346-3-3-3h-28c-.553,0-1,.448-1,1s.447,1,1,1h28c.552,0,1,.449,1,1v25H12V12c0-.551.448-1,1-1h2c.553,0,1-.448,1-1s-.447-1-1-1h-2c-1.654,0-3,1.346-3,3v25.878l-2.97,11.879c-.009.034.003.068-.002.102-.007.048-.028.091-.028.141v2c0,1.654,1.346,3,3,3h44c1.654,0,3-1.346,3-3v-2c0-.05-.021-.093-.028-.141ZM11.781,39h40.438l2.5,10H9.281l2.5-10ZM10,53c-.552,0-1-.449-1-1v-1h20.184c-.112.314-.184.648-.184,1s.072.686.184,1H10ZM32,53c-.552,0-1-.449-1-1s.448-1,1-1,1,.449,1,1-.448,1-1,1ZM55,52c0,.551-.448,1-1,1h-19.184c.112-.314.184-.648.184-1s-.072-.686-.184-1h20.184v1Z"/>
  <path d="M39.97,41.757c-.111-.445-.511-.757-.97-.757h-14c-.459,0-.858.312-.97.757l-1,4c-.075.299-.008.615.182.858s.48.385.788.385h16c.308,0,.599-.142.788-.385s.257-.559.182-.858l-1-4ZM25.281,45l.5-2h12.438l.5,2h-13.438Z"/>
  <path d="M14,14v20c0,.552.447,1,1,1h34c.553,0,1-.448,1-1V14c0-.552-.447-1-1-1H15c-.553,0-1,.448-1,1ZM16,15h32v18H16V15Z"/>
  <path d="M38.707,17.293c-.391-.391-1.023-.391-1.414,0l-12,12c-.391.391-.391,1.023,0,1.414.372.373,1.021.393,1.414,0l12-12c.391-.391.391-1.023,0-1.414Z"/>
  <path d="M25.707,25.707l6-6c.391-.391.391-1.023,0-1.414s-1.023-.391-1.414,0l-6,6c-.616.616-.165,1.707.707,1.707.256,0,.512-.098.707-.293Z"/>
  <path d="M38.293,22.293l-6,6c-.616.616-.163,1.707.707,1.707.256,0,.512-.098.707-.293l6-6c.391-.391.391-1.023,0-1.414s-1.023-.391-1.414,0Z"/>
  <circle cx="19" cy="10" r="1"/>
</svg>