<?xml version="1.0" encoding="UTF-8"?>
<svg id="Outline" xmlns="http://www.w3.org/2000/svg" version="1.1" viewBox="0 0 64 64">
  <!-- Generator: Adobe Illustrator 29.5.1, SVG Export Plug-In . SVG Version: 2.1.0 Build 141)  -->
  <path d="M56.97,48.86c0-.03.01-.07,0-.1l-2.97-11.88V13c0-1.65-1.35-3-3-3H13c-1.65,0-3,1.35-3,3v23.88l-2.97,11.88c-.01.03,0,.07,0,.1-.01.05-.03.09-.03.14v2c0,1.65,1.35,3,3,3h44c1.65,0,3-1.35,3-3v-2c0-.05-.02-.09-.03-.14ZM12,13c0-.55.45-1,1-1h38c.55,0,1,.45,1,1v23H12V13ZM11.78,38h40.44l2.5,10h-15.1l-1-2h12.26c.31,0,.6-.14.79-.38.18-.25.25-.56.18-.86l-1-4c-.11-.45-.51-.76-.97-.76H14.12c-.46,0-.86.31-.97.76l-1,4c-.07.3,0,.61.18.86.19.24.48.38.79.38h12.26l-1,2h-15.1l2.5-10ZM14.4,44l.5-2h34.2l.5,2H14.4ZM37.38,48h-10.76l1-2h8.76l1,2ZM55,51c0,.55-.45,1-1,1H10c-.55,0-1-.45-1-1v-1h46v1Z"/>
  <path d="M33,21.184v-2.184c0-.553-.448-1-1-1s-1,.447-1,1v2.184c-1.161.414-2,1.514-2,2.816,0,.462.113.894.301,1.285l-1.543,1.543c-.391.391-.391,1.023,0,1.414.369.369,1.025.389,1.414,0l1.543-1.543c.391.187.824.301,1.285.301,1.654,0,3-1.346,3-3,0-1.302-.839-2.402-2-2.816ZM32,25c-.551,0-1-.448-1-1s.449-1,1-1,1,.448,1,1-.449,1-1,1Z"/>
  <circle cx="32" cy="15" r="1"/>
  <path d="M24.929,16.929c-.391.391-.391,1.024,0,1.414s1.024.391,1.414,0c.391-.391.391-1.024,0-1.414-.391-.391-1.024-.391-1.414,0Z"/>
  <circle cx="23" cy="24" r="1"/>
  <path d="M24.929,29.657c-.391.391-.391,1.024,0,1.414.391.391,1.024.391,1.414,0s.391-1.024,0-1.414c-.391-.391-1.024-.391-1.414,0Z"/>
  <circle cx="32" cy="33" r="1"/>
  <path d="M37.657,29.657c-.391.391-.391,1.024,0,1.414s1.024.391,1.414,0c.391-.391.391-1.024,0-1.414-.391-.391-1.024-.391-1.414,0Z"/>
  <circle cx="41" cy="24" r="1"/>
  <path d="M37.657,16.929c-.391.391-.391,1.024,0,1.414.391.391,1.024.391,1.414,0s.391-1.024,0-1.414-1.024-.391-1.414,0Z"/>
</svg>