<?xml version="1.0" encoding="UTF-8"?>
<svg id="Outline" xmlns="http://www.w3.org/2000/svg" version="1.1" viewBox="0 0 64 64">
  <!-- Generator: Adobe Illustrator 29.5.1, SVG Export Plug-In . SVG Version: 2.1.0 Build 141)  -->
  <path d="M56.97,51.861c0-.03.01-.07,0-.1l-2.97-11.88v-23.22l1.39-1.39c1.89-1.89,1.89-4.96,0-6.85-1.66-1.67-4.26-1.87-6.14-.59-1.89-1.28-4.48-1.08-6.14.59-.72.71-1.17,1.61-1.34,2.58H13c-1.65,0-3,1.35-3,3v25.88l-2.97,11.88c-.01.03,0,.07,0,.1-.01.05-.03.09-.03.14v2c0,1.65,1.35,3,3,3h44c1.65,0,3-1.35,3-3v-2c0-.05-.02-.09-.03-.14ZM44.52,9.831c.55-.55,1.28-.83,2.01-.83s1.46.28,2.01.83c.39.39,1.03.39,1.42,0,1.11-1.11,2.91-1.11,4.02,0s1.11,2.92,0,4.03l-1.69,1.68-3.04,3.05-3.29-3.29q0-.01-.01-.01l-1.43-1.43c-.54-.54-.83-1.26-.83-2.02s.29-1.47.83-2.01ZM32.49,26.871h.01l14.21-8,1.29,1.29v13.84c0,.55-.45,1-1,1h-28.96l14.45-8.13ZM16,33.851v-15.7l13.96,7.85-13.96,7.85ZM44.84,17.001l.4.41-13.24,7.44-13.96-7.85h26.8ZM12,14.001c0-.55.45-1,1-1h28.84c.18.74.54,1.42,1.04,2h-25.88c-1.65,0-3,1.35-3,3v16c0,1.65,1.35,3,3,3h30c1.65,0,3-1.35,3-3v-13.34l2-2v20.34H12V14.001ZM11.78,41.001h40.44l2.5,10H9.28l2.5-10ZM55,54.001c0,.55-.45,1-1,1H10c-.55,0-1-.45-1-1v-1h46v1Z"/>
  <path d="M50.847,43.758c-.111-.445-.511-.758-.97-.758H14.123c-.459,0-.859.312-.97.758l-1,4c-.075.299-.007.615.182.857.189.243.48.385.788.385h37.754c.308,0,.599-.142.788-.385.189-.242.257-.559.182-.857l-1-4ZM14.404,47.001l.5-2h34.192l.5,2H14.404Z"/>
</svg>