<?xml version="1.0" encoding="UTF-8"?>
<svg id="Outline" xmlns="http://www.w3.org/2000/svg" version="1.1" viewBox="0 0 64 64">
  <!-- Generator: Adobe Illustrator 29.0.0, SVG Export Plug-In . SVG Version: 2.1.0 Build 186)  -->
  <path d="M30.79297,27.20703c.19531.19531.45117.29297.70703.29297s.51172-.09766.70703-.29297l5.43701-5.43652c.91504-.91504,1.41895-2.13184,1.41895-3.42578,0-1.29492-.50391-2.51074-1.41895-3.42578-1.66797-1.66797-4.25928-1.86133-6.14404-.58496-1.88477-1.27637-4.47656-1.08301-6.14404.58496-.91504.91504-1.41895,2.13086-1.41895,3.42578,0,1.29395.50391,2.51074,1.41895,3.42578l5.43701,5.43652ZM26.77002,16.33301c.55469-.55469,1.2832-.83105,2.01172-.83105.72803,0,1.45654.27637,2.01123.83105.39062.39062,1.02344.39062,1.41406,0,1.10986-1.11035,2.91406-1.1084,4.02295,0,.53711.53711.83301,1.25195.83301,2.01172s-.2959,1.47461-.83301,2.01172l-4.72998,4.72949-4.72998-4.72949c-.53711-.53711-.83301-1.25195-.83301-2.01172s.2959-1.47461.83301-2.01172Z"/>
  <path d="M48.59003,33.63c4.82996-2.56,7.90997-7.61005,7.90997-13.13,0-.54999-.45001-1-1-1h-5.08002c-.84998-5.67999-8.84998-10-18.91998-10-10.65002,0-19,4.82996-19,11,0,1.07001.27002,2.08997.73999,3.06l2.38,9.54999c-5.31,2.13-8.12,5.35999-8.12,9.39001,0,8.28998,12.04999,12,24,12s24-3.71002,24-12c0-3.71002-2.38-6.75-6.90997-8.87ZM50.41998,21.5h4.04004c-.34003,4.37-2.90002,8.26996-6.76001,10.33997l2.06-8.27997c.33002-.66003.54999-1.35004.65997-2.06ZM14.5,20.5c0-4.88,7.78998-9,17-9s17,4.12,17,9-7.78998,9-17,9-17-4.12-17-9ZM44.41998,36.67999c-1,4.02002-4.58997,6.82001-8.72998,6.82001h-8.38c-4.14001,0-7.72998-2.79999-8.72998-6.82001l-2.41003-9.63c3.42999,2.71002,8.96002,4.45001,15.33002,4.45001s11.90002-1.73999,15.33002-4.44l-2.41003,9.62ZM45.73999,38.96997c2.37,1.06,3.76001,2.35004,3.76001,3.53003,0,2.83997-7.39001,6-18,6s-18-3.16003-18-6c0-1.17999,1.39001-2.47003,3.76001-3.53003,1.73999,3.92004,5.64001,6.53003,10.04999,6.53003h8.38c4.40997,0,8.31-2.60999,10.04999-6.53003ZM31.5,52.5c-10.59998,0-22-3.13-22-10,0-3.78003,3.39001-6.09003,6.60999-7.42999l.5,2.00995c-3.32996,1.45001-5.10999,3.31006-5.10999,5.42004,0,5.20001,10.29999,8,20,8s20-2.79999,20-8c0-2.10999-1.78003-3.97003-5.10999-5.42004l.5-2.00995c3.21997,1.33997,6.60999,3.64996,6.60999,7.42999,0,6.87-11.40002,10-22,10Z"/>
</svg>