<?xml version="1.0" encoding="UTF-8"?>
<svg id="Outline" xmlns="http://www.w3.org/2000/svg" version="1.1" viewBox="0 0 64 64">
  <!-- Generator: Adobe Illustrator 29.5.1, SVG Export Plug-In . SVG Version: 2.1.0 Build 141)  -->
  <path d="M11.398,34.073c-.25.189-.397.485-.397.799,0,8.271,6.729,15,15,15s15-6.729,15-15c0-.313-.147-.609-.397-.799-.251-.188-.577-.247-.877-.163-8.98,2.566-18.471,2.566-27.451,0-.301-.084-.626-.025-.877.163ZM20.349,46.569c1.314-1.038,3.416-1.697,5.652-1.697s4.338.66,5.652,1.697c-1.711.83-3.626,1.303-5.652,1.303s-3.941-.473-5.652-1.303ZM38.933,36.197c-.39,3.838-2.465,7.178-5.462,9.293-1.644-1.634-4.403-2.618-7.47-2.618s-5.827.985-7.47,2.618c-2.997-2.115-5.072-5.455-5.462-9.293,8.49,2.184,17.375,2.184,25.865,0Z"/>
  <path d="M14.708,29.236c.88-.88,2.049-1.364,3.293-1.364s2.413.484,3.293,1.364c.366.365,1.025.389,1.414,0,.391-.391.391-1.023,0-1.414-1.257-1.258-2.929-1.95-4.707-1.95s-3.45.692-4.707,1.95c-.391.391-.391,1.023,0,1.414s1.023.391,1.414,0Z"/>
  <path d="M29.294,29.236c.391.391,1.023.391,1.414,0,.88-.88,2.049-1.364,3.293-1.364s2.413.484,3.293,1.364c.371.371,1.017.397,1.414,0,.391-.391.391-1.023,0-1.414-1.257-1.258-2.929-1.95-4.707-1.95s-3.45.692-4.707,1.95c-.391.391-.391,1.023,0,1.414Z"/>
  <path d="M38.35,21.749c-.399.381-.414,1.015-.032,1.413,3.386,3.544,5.065,8.401,4.606,13.328-.74,7.998-7.078,14.424-15.069,15.277-.653.069-1.28.104-1.864.104-2.742,0-5.372-.646-7.819-1.917-.337-.178-.752-.145-1.062.087-1.572,1.18-3.525,1.83-5.499,1.83h-1.507c1.221-1.837,1.896-4.021,1.896-6.24v-.819c0-.197-.059-.39-.167-.554-2.189-3.294-3.14-7.139-2.748-11.117.797-8.001,7.179-14.387,15.174-15.185,2.694-.266,5.331.083,7.823,1.039.518.197,1.095-.061,1.292-.575.198-.516-.06-1.094-.575-1.292-2.785-1.068-5.726-1.46-8.738-1.162-8.939.892-16.074,8.031-16.966,16.978-.427,4.342.577,8.541,2.905,12.166v.521c0,2.432-.986,4.812-2.707,6.533-.286.286-.372.716-.217,1.09.154.374.52.617.924.617h3.61c2.193,0,4.367-.66,6.188-1.868,2.577,1.24,5.33,1.868,8.192,1.868.654,0,1.354-.039,2.076-.116,8.936-.954,16.021-8.139,16.85-17.081.512-5.503-1.366-10.932-5.153-14.894-.381-.4-1.015-.415-1.413-.032Z"/>
  <path d="M48.001,16.872c-.553,0-1,.447-1,1v2h-2v-2c0-.553-.447-1-1-1s-1,.447-1,1v6c0,.553.447,1,1,1s1-.447,1-1v-2h2v2c0,.553.447,1,1,1s1-.447,1-1v-6c0-.553-.447-1-1-1Z"/>
  <path d="M54.001,16.872c-1.654,0-3,1.346-3,3v4c0,.553.447,1,1,1s1-.447,1-1v-1h2v1c0,.553.447,1,1,1s1-.447,1-1v-4c0-1.654-1.346-3-3-3ZM53.001,20.872v-1c0-.552.448-1,1-1s1,.448,1,1v1h-2Z"/>
  <path d="M35.358,15.921c.515.185,1.094-.091,1.277-.606l1.344-3.768c.186-.521-.085-1.093-.605-1.277-.524-.188-1.093.086-1.277.605l-1.344,3.768c-.186.521.085,1.093.606,1.277Z"/>
  <path d="M31.508,15.171c.545,1.149,2.361.312,1.807-.857l-1.714-3.614c-.236-.498-.832-.71-1.332-.475-.499.236-.712.833-.475,1.332,0,0,1.709,3.603,1.714,3.614Z"/>
  <path d="M37.483,17.3c.235.494.839.707,1.332.475l3.614-1.714c.499-.236.712-.833.475-1.332-.236-.498-.83-.71-1.332-.475l-3.614,1.714c-.499.236-.712.833-.475,1.332Z"/>
  <circle cx="36.001" cy="19.872" r="1"/>
</svg>