<?xml version="1.0" encoding="UTF-8"?>
<svg id="Outline" xmlns="http://www.w3.org/2000/svg" version="1.1" viewBox="0 0 64 64">
  <!-- Generator: Adobe Illustrator 29.5.1, SVG Export Plug-In . SVG Version: 2.1.0 Build 141)  -->
  <path d="M56,28.87h-2c-1.14,0-2.18.39-3.02,1.04,0-.14.02-.27.02-.41v-1.87l1.01-.04c2.76-.11,4.91-2.45,4.8-5.2l-.08-2c-.02-.55-.47-1.01-1.04-.96l-2,.08c-1,.04-1.92.39-2.69.94v-2.99l1.01-.04c2.76-.11,4.91-2.45,4.8-5.2l-.08-2c-.02-.55-.47-.99-1.04-.96l-2,.08c-1,.04-1.92.39-2.69.94v-.78c0-.55-.45-1-1-1s-1,.45-1,1v20c0,4.53-1.77,8.8-4.98,12.02-.79.79-1.65,1.5-2.56,2.1-.14-.07-.29-.12-.46-.12h-18c-.17,0-.32.05-.46.12-.91-.6-1.77-1.31-2.56-2.1-3.21-3.22-4.98-7.49-4.98-12.02V9.5c0-.55-.45-1-1-1s-1,.45-1,1v.78c-.77-.55-1.69-.9-2.69-.94l-2-.08c-.56-.03-1.02.41-1.04.96l-.08,2c-.11,2.75,2.04,5.09,4.8,5.2l1.01.04v2.99c-.77-.55-1.69-.9-2.69-.94l-2-.08c-.56-.05-1.02.41-1.04.96l-.08,2c-.11,2.75,2.04,5.09,4.8,5.2l1.01.04v1.87c0,.14.02.27.02.41-.84-.65-1.88-1.04-3.02-1.04h-2c-.55,0-1,.44-1,1v2c0,2.75,2.24,5,5,5h2c.16,0,.3-.05.43-.11.21.51.45,1.01.71,1.5-.98-.09-1.99.11-2.91.64l-1.73,1c-.23.13-.4.35-.47.61-.06.25-.03.53.1.76l1,1.73c.93,1.6,2.61,2.5,4.34,2.5.85,0,1.71-.22,2.49-.67l1.63-.94c.76.65,1.57,1.23,2.41,1.75v1.86h-9c-.32,0-.62.15-.81.42-.19.26-.24.59-.14.9l.9,2.68-.9,2.68c-.1.31-.05.64.14.9.19.27.49.42.81.42h12c.55,0,1-.45,1-1v-3h4c.55,0,1-.45,1-1s-.45-1-1-1h-6v-4h16v4h-6c-.55,0-1,.45-1,1s.45,1,1,1h4v3c0,.55.45,1,1,1h4c.55,0,1-.45,1-1s-.45-1-1-1h-3v-2h1c.55,0,1-.45,1-1v-1h7.61l-.56,1.68c-.07.21-.07.43,0,.64l.56,1.68h-2.61c-.55,0-1,.45-1,1s.45,1,1,1h4c.32,0,.62-.15.81-.42.19-.26.24-.59.14-.9l-.9-2.68.9-2.68c.1-.31.05-.64-.14-.9-.19-.27-.49-.42-.81-.42h-9v-1.86c.84-.52,1.65-1.1,2.41-1.75l1.63.94c.78.45,1.64.67,2.49.67,1.73,0,3.41-.9,4.34-2.5l1-1.73c.13-.23.16-.51.1-.76-.07-.26-.24-.48-.47-.61l-1.73-1c-.92-.53-1.93-.73-2.91-.65.26-.49.5-.98.71-1.49.13.06.27.11.43.11h2c2.76,0,5-2.25,5-5v-2c0-.56-.45-1-1-1ZM51,13.57c.33-1.26,1.45-2.17,2.77-2.23l1-.04.04,1c.03.8-.25,1.57-.79,2.16-.55.59-1.29.93-2.09.96l-.93.04v-1.89ZM51,23.74c.33-1.26,1.45-2.17,2.77-2.23l1-.04.04,1c.03.8-.25,1.57-.79,2.16-.55.59-1.29.93-2.09.96l-.93.04v-1.89ZM13,25.63l-.93-.04c-.8-.03-1.54-.37-2.09-.96-.54-.59-.82-1.36-.79-2.16l.04-1,1,.04c1.32.06,2.44.97,2.77,2.23v1.89ZM13,15.46l-.93-.04c-.8-.03-1.54-.37-2.09-.96-.54-.59-.82-1.36-.79-2.16l.04-1,1,.04c1.32.06,2.44.97,2.77,2.23v1.89ZM13,34.87h-1c-1.65,0-3-1.35-3-3v-1h1c1.65,0,3,1.34,3,3v1ZM16.96,43.1c-1.43.82-3.27.33-4.09-1.1l-.5-.87.86-.5c1.44-.83,3.27-.33,4.1,1.1l.5.87-.87.5ZM24,53.5h-9.61l.56-1.68c.07-.21.07-.43,0-.64l-.56-1.68h7.61v1c0,.55.45,1,1,1h1v2ZM50.77,40.63l.86.5-.5.87c-.82,1.43-2.66,1.93-4.09,1.1l-.87-.5.5-.87c.83-1.43,2.66-1.93,4.1-1.1ZM55,31.87c0,1.65-1.35,3-3,3h-1v-1c0-1.66,1.35-3,3-3h1v1Z"/>
  <path d="M28.297,29.23l-.532,3.101c-.064.375.09.754.398.978.309.225.717.254,1.053.076l2.784-1.463,2.784,1.463c.146.077.306.115.465.115.611,0,1.089-.566.986-1.169l-.532-3.101,2.252-2.195c.272-.266.371-.663.253-1.025-.118-.361-.431-.625-.808-.68l-3.111-.452-1.393-2.82c-.337-.684-1.456-.684-1.793,0l-1.393,2.82-3.111.452c-.377.055-.69.318-.808.68-.118.362-.02.76.253,1.025l2.252,2.195ZM30.519,26.781c.326-.047.607-.252.753-.547l.729-1.476.729,1.476c.146.295.427.5.753.547l1.626.236-1.177,1.148c-.235.229-.343.561-.288.885l.278,1.621-1.456-.765c-.146-.077-.306-.115-.465-.115s-.32.038-.465.115l-1.456.765.278-1.621c.055-.324-.052-.655-.288-.885l-1.177-1.148,1.626-.236Z"/>
  <path d="M32,42.5c8.271,0,15-6.729,15-15s-6.729-15-15-15-15,6.729-15,15,6.729,15,15,15ZM20.003,32.5h2.211c1.054,2.054,2.732,3.732,4.786,4.786v2.211c-3.153-1.319-5.678-3.844-6.997-6.997ZM19,27.5c0-1.034.134-2.035.363-3h2.063c-.271.955-.426,1.959-.426,3s.155,2.045.426,3h-2.063c-.229-.965-.363-1.966-.363-3ZM32,18.5c4.962,0,9,4.037,9,9s-4.038,9-9,9-9-4.037-9-9,4.038-9,9-9ZM29,40.137v-2.063c.955.271,1.959.426,3,.426s2.045-.155,3-.426v2.063c-.965.229-1.966.363-3,.363s-2.035-.134-3-.363ZM37,39.497v-2.211c2.054-1.054,3.732-2.732,4.786-4.786h2.211c-1.319,3.153-3.844,5.678-6.997,6.997ZM42.574,24.5h2.063c.229.965.363,1.966.363,3s-.134,2.035-.363,3h-2.063c.271-.955.426-1.959.426-3s-.155-2.045-.426-3ZM43.997,22.5h-2.211c-1.054-2.054-2.732-3.732-4.786-4.786v-2.211c3.153,1.319,5.678,3.844,6.997,6.997ZM35,14.863v2.063c-.955-.271-1.959-.426-3-.426s-2.045.155-3,.426v-2.063c.965-.229,1.966-.363,3-.363s2.035.134,3,.363ZM27,15.503v2.211c-2.054,1.054-3.732,2.732-4.786,4.786h-2.211c1.319-3.153,3.844-5.678,6.997-6.997Z"/>
</svg>