<?xml version="1.0" encoding="UTF-8"?>
<svg id="Outline" xmlns="http://www.w3.org/2000/svg" version="1.1" viewBox="0 0 64 64">
  <!-- Generator: Adobe Illustrator 29.5.1, SVG Export Plug-In . SVG Version: 2.1.0 Build 141)  -->
  <path d="M49.81714,30.59048c2.63721-2.62598,2.43311-6.95117,2.42334-7.13379-.02783-.50879-.43408-.91602-.94336-.94336-.1239-.00916-2.65845-.12769-5.01715.97217-.37634-1.02679-.92249-1.92316-1.4397-2.6225,1.50836-.22498,3.50323-.79889,4.97687-2.27252,2.63721-2.62598,2.43311-6.95117,2.42334-7.13379-.02783-.50879-.43408-.91602-.94336-.94336-.1239-.00995-2.65839-.12793-5.01715.97211-.89355-2.43811-2.75787-4.13629-2.86127-4.22894-.37988-.33984-.9541-.33984-1.33398,0-.10339.09265-1.96765,1.79077-2.86121,4.22876-2.35779-1.09979-4.89252-.98187-5.01721-.97192-.50928.02734-.91553.43457-.94336.94336-.00977.18262-.21387,4.50781,2.42188,7.13184,1.47443,1.47473,3.46985,2.04919,4.97845,2.27435-.51721.69934-1.0636,1.59583-1.43988,2.62268-2.35785-1.09918-4.8924-.98138-5.01709-.97223-.50928.02734-.91553.43457-.94336.94336-.00977.18262-.21387,4.50781,2.42188,7.13184,1.47443,1.47473,3.46985,2.04919,4.97845,2.27435-.51721.69934-1.0636,1.59583-1.43988,2.62268-2.35785-1.09918-4.8924-.98138-5.01709-.97223-.50928.02734-.91553.43457-.94336.94336-.00977.18262-.21387,4.50781,2.42188,7.13184,1.85413,1.85449,4.5321,2.29169,6.02045,2.38837-.35278,4.07233-2.8894,7.6803-6.67035,9.35968l-1.68945.75098c-.50437.2246-.73191.81538-.50735,1.32025.21117.47477.81154.73379,1.31985.50788l1.68945-.75098c4.50092-2.00012,7.50879-6.32031,7.86804-11.18158,1.47015-.086,4.21533-.50629,6.10168-2.39264,2.63721-2.62598,2.43311-6.95117,2.42334-7.13379-.02783-.50879-.43408-.91602-.94336-.94336-.1239-.00995-2.65839-.12793-5.01715.97211-.37634-1.02679-.92249-1.9231-1.4397-2.62244,1.50836-.22498,3.50323-.79889,4.97687-2.27252ZM42.75172,42.55142c-.79053-.92285-2-2.64551-2-4.5498,0-1.90527,1.20996-3.62793,2-4.5498.79053.92285,2,2.64551,2,4.5498,0,1.90527-1.20996,3.62793-2,4.5498ZM42.75172,30.55142c-.79053-.92285-2-2.64551-2-4.5498,0-1.90527,1.20996-3.62793,2-4.5498.79053.92285,2,2.64551,2,4.5498,0,1.90527-1.20996,3.62793-2,4.5498ZM50.21558,24.53677c-.09375,1.21289-.45898,3.29102-1.81104,4.6377-.9325.93268-2.21295,1.38922-3.31543,1.61469.83234-1.21179,1.6626-2.89276,1.6626-4.78754,0-.17065-.01355-.33759-.02643-.50458,1.20203-.66992,2.58667-.89093,3.4903-.96027ZM50.21558,12.53677c-.09375,1.21289-.45898,3.29102-1.81104,4.6377-.93256.9328-2.2132,1.38959-3.31573,1.61511.83246-1.21185,1.6629-2.89294,1.6629-4.78796,0-.17065-.01355-.33759-.02643-.50458,1.20203-.66992,2.58667-.89093,3.4903-.96027ZM42.75172,9.45181c.79053.92285,2,2.64551,2,4.5498,0,1.90527-1.20996,3.62793-2,4.5498-.79053-.92285-2-2.64551-2-4.5498,0-1.90527,1.20996-3.62793,2-4.5498ZM35.28736,12.53384c.90173.06763,2.28351.28735,3.49078.96265-.01288.16718-.02643.33429-.02643.50513,0,1.89612.83142,3.57806,1.66437,4.79004-1.10321-.22632-2.38489-.68488-3.31866-1.61914-1.35254-1.3457-1.71631-3.42676-1.81006-4.63867ZM35.28736,24.53384c.90173.06763,2.28351.28735,3.49078.96265-.01288.16718-.02643.33429-.02643.50513,0,1.89661.83179,3.5788,1.66498,4.79083-1.10333-.2265-2.38531-.68555-3.31927-1.61993-1.35254-1.3457-1.71631-3.42676-1.81006-4.63867ZM35.28736,36.53384c.90173.06763,2.28351.28735,3.49078.96265-.01288.16718-.02643.33429-.02643.50513,0,1.89661.83179,3.5788,1.66498,4.79083-1.10333-.2265-2.38531-.68555-3.31927-1.61993-1.35254-1.3457-1.71631-3.42676-1.81006-4.63867ZM50.21558,36.53677c-.09375,1.21289-.45898,3.29102-1.81104,4.6377-.93274.93292-2.21362,1.3902-3.31628,1.61591.83264-1.21191,1.66345-2.89331,1.66345-4.78876,0-.17065-.01355-.33759-.02643-.50458,1.20203-.66992,2.58667-.89093,3.4903-.96027Z"/>
  <path d="M31.24171,23.46157c-.02997-.50995-.44-.91998-.94-.94995-.13-.01001-2.65997-.13-5.01996.96997-.38-1.02002-.92004-1.91998-1.44-2.62,1.50995-.21997,3.5-.79999,4.97998-2.27002,2.63-2.63,2.42999-6.94995,2.41998-7.13-.02997-.50995-.44-.91998-.94-.94995-.13-.01001-2.65997-.13-5.01996.96997-.90002-2.42999-2.76001-4.13-2.86005-4.22998-.38-.33002-.95996-.33002-1.33997,0-.10004.09998-1.96002,1.79999-2.86005,4.22998-2.35999-1.09998-4.88995-.97998-5.01996-.96997-.5.02997-.91003.44-.94.94995-.01001.18005-.21002,4.5,2.41998,7.13,1.47998,1.47003,3.47003,2.05005,4.97998,2.27002-.51996.70001-1.06,1.59998-1.44,2.62-2.35999-1.09998-4.88995-.97998-5.01996-.96997-.5.02997-.91003.44-.94.94995-.01001.18005-.21002,4.5,2.41998,7.13,1.47998,1.47003,3.47003,2.05005,4.97998,2.27002-.51996.70001-1.06,1.59998-1.44,2.62-2.35999-1.09998-4.88995-.97998-5.01996-.96997-.5.02997-.91003.44-.94.94995-.01001.18005-.21002,4.5,2.41998,7.13,1.85999,1.85004,4.53998,2.29004,6.02002,2.39001-.35004,4.07001-2.89001,7.67999-6.66998,9.34998l-1.69.76001c-.49993.22-.72998.80983-.5001,1.3198.54997,1.22004,2.20954.10546,3.01004-.24979,4.5-2,7.5-6.32001,7.86005-11.17999,1.46997-.08002,4.21997-.5,6.10999-2.39001,2.63-2.63,2.42999-6.94995,2.41998-7.13-.02997-.50995-.44-.91998-.94-.94995-.13-.01001-2.65997-.13-5.01996.96997-.38-1.02002-.92004-1.91998-1.44-2.62,1.50995-.21997,3.5-.79999,4.97998-2.27002,2.63-2.63,2.42999-6.94995,2.41998-7.13ZM25.75172,14.00161c0-.17004-.01001-.34003-.03003-.5,1.21002-.67004,2.59003-.90002,3.49005-.96002-.09003,1.21002-.46002,3.28998-1.81,4.63-.93005.94-2.21002,1.39001-3.31,1.62.82996-1.21002,1.65997-2.89001,1.65997-4.78998ZM16.10169,17.17159c-1.35999-1.34003-1.71997-3.42999-1.81-4.64001.90002.07001,2.28003.29004,3.49005.96002-.02002.16998-.03003.33997-.03003.51001,0,1.89996.83002,3.57996,1.65997,4.78998-1.09998-.22998-2.37994-.67999-3.31-1.62ZM16.10169,29.17159c-1.35999-1.34003-1.71997-3.42999-1.81-4.64001.90002.07001,2.28003.29004,3.49005.96002-.02002.16998-.03003.33997-.03003.51001,0,1.89996.83002,3.57996,1.66998,4.78998-1.10999-.22998-2.38995-.67999-3.32001-1.62ZM16.10169,41.17159c-1.35999-1.34003-1.71997-3.42999-1.81-4.64001.90002.07001,2.28003.29004,3.49005.96002-.02002.16998-.03003.33997-.03003.51001,0,1.89996.83002,3.57996,1.66998,4.78998-1.10999-.22998-2.38995-.67999-3.32001-1.62ZM25.75172,38.00161c0-.17004-.01001-.34003-.03003-.5,1.21002-.67004,2.59003-.90002,3.49005-.96002-.09003,1.21002-.46002,3.28998-1.81,4.63-.93005.94-2.21002,1.39001-3.31,1.62.82996-1.21002,1.65997-2.89001,1.65997-4.78998ZM21.75172,42.5516c-.78998-.91998-2-2.65002-2-4.54999,0-1.91003,1.21002-3.63,2-4.54999.78998.91998,2,2.64996,2,4.54999,0,1.90997-1.21002,3.63-2,4.54999ZM21.75172,30.5516c-.78998-.91998-2-2.65002-2-4.54999,0-1.91003,1.21002-3.63,2-4.54999.78998.91998,2,2.64996,2,4.54999,0,1.90997-1.21002,3.63-2,4.54999ZM21.75172,18.5516c-.78998-.91998-2-2.65002-2-4.54999,0-1.91003,1.21002-3.63,2-4.54999.78998.91998,2,2.64996,2,4.54999,0,1.90997-1.21002,3.63-2,4.54999ZM24.09174,30.79159c.82996-1.21002,1.65997-2.89996,1.65997-4.78998,0-.17004-.01001-.34003-.03003-.5,1.21002-.67004,2.59003-.90002,3.49005-.96002-.09003,1.21002-.46002,3.28998-1.81,4.63-.93005.94-2.21002,1.39001-3.31,1.62Z"/>
</svg>