<?xml version="1.0" encoding="UTF-8"?>
<svg id="Outline" xmlns="http://www.w3.org/2000/svg" version="1.1" viewBox="0 0 64 64">
  <!-- Generator: Adobe Illustrator 29.3.1, SVG Export Plug-In . SVG Version: 2.1.0 Build 151)  -->
  <path d="M53.89349,19.74701c.68146-.71759,1.10651-1.68134,1.10651-2.74701,0-2.20605-1.79395-4-4-4s-4,1.79395-4,4c0,1.06567.42505,2.02942,1.10651,2.74701-1.8501,1.02313-3.10651,2.99329-3.10651,5.25299v3c0,.55273.44727,1,1,1h10c.55273,0,1-.44727,1-1v-3c0-2.2597-1.25641-4.22986-3.10651-5.25299ZM49,17c0-1.10254.89746-2,2-2s2,.89746,2,2-.89746,2-2,2-2-.89746-2-2ZM55,27h-8v-2c0-2.20605,1.79395-4,4-4s4,1.79395,4,4v2Z"/>
  <path d="M53.89349,41.74701c.68146-.71759,1.10651-1.68134,1.10651-2.74701,0-2.20605-1.79395-4-4-4s-4,1.79395-4,4c0,1.06567.42505,2.02942,1.10651,2.74701-1.8501,1.02313-3.10651,2.99329-3.10651,5.25299v3c0,.55273.44727,1,1,1h10c.55273,0,1-.44727,1-1v-3c0-2.2597-1.25641-4.22986-3.10651-5.25299ZM49,39c0-1.10254.89746-2,2-2s2,.89746,2,2-.89746,2-2,2-2-.89746-2-2ZM55,49h-8v-2c0-2.20605,1.79395-4,4-4s4,1.79395,4,4v2Z"/>
  <path d="M36,26c.54999,0,1-.45001,1-1v-8c0-.54999-.45001-1-1-1h-1v-6c0-1.65002-1.34998-3-3-3H10c-1.65002,0-3,1.34998-3,3v44c0,1.64996,1.34998,3,3,3h22c1.65002,0,3-1.35004,3-3v-6h1c.54999,0,1-.45001,1-1v-8c0-.54999-.45001-1-1-1h-1v-12h1ZM9,10c0-.54999.45001-1,1-1h22c.54999,0,1,.45001,1,1v1.17999c-.31-.10999-.65002-.17999-1-.17999H10c-.34998,0-.69.07001-1,.17999v-1.17999ZM33,54c0,.54999-.45001,1-1,1H10c-.54999,0-1-.45001-1-1v-1h24v1ZM33,51H9V14c0-.54999.45001-1,1-1h22c.54999,0,1,.45001,1,1v2h-6c-8.82001,0-16,7.17999-16,16s7.17999,16,16,16h6v3ZM29,24h-2c-4.40997,0-8,3.58997-8,8s3.59003,8,8,8h2v6h-2c-7.71997,0-14-6.28003-14-14s6.28003-14,14-14h2v6ZM33,26v12h-6c-3.31,0-6-2.69-6-6s2.69-6,6-6h6ZM35,46h-4v-6h4v6ZM31,24v-6h4v6h-4Z"/>
  <path d="M40,18h2c.55273,0,1-.44727,1-1s-.44727-1-1-1h-2c-.55273,0-1,.44727-1,1s.44727,1,1,1Z"/>
  <path d="M41,21c0,.55273.44727,1,1,1h2c.55273,0,1-.44727,1-1s-.44727-1-1-1h-2c-.55273,0-1,.44727-1,1Z"/>
  <path d="M40,26h2c.55273,0,1-.44727,1-1s-.44727-1-1-1h-2c-.55273,0-1,.44727-1,1s.44727,1,1,1Z"/>
  <path d="M40,40h2c.55273,0,1-.44727,1-1s-.44727-1-1-1h-2c-.55273,0-1,.44727-1,1s.44727,1,1,1Z"/>
  <path d="M44,42h-2c-.55273,0-1,.44727-1,1s.44727,1,1,1h2c.55273,0,1-.44727,1-1s-.44727-1-1-1Z"/>
  <path d="M42,46h-2c-.55273,0-1,.44727-1,1s.44727,1,1,1h2c.55273,0,1-.44727,1-1s-.44727-1-1-1Z"/>
</svg>