<?xml version="1.0" encoding="UTF-8"?>
<svg id="Outline" xmlns="http://www.w3.org/2000/svg" version="1.1" viewBox="0 0 64 64">
  <!-- Generator: Adobe Illustrator 29.0.0, SVG Export Plug-In . SVG Version: 2.1.0 Build 186)  -->
  <path d="M49.14018,16.52399c-.24707-.45361-.7998-.64307-1.27051-.44238-.39703.16901-4.97797,2.1402-10.05688,5.09723-6.10187-7.40204-21.02863-13.81958-21.6814-14.09723-.46875-.20068-1.02441-.01123-1.27051.44238-.44043.81055-10.74609,19.9502-7.66602,28.80713,2.45215,7.02344,9.14355,11.66553,16.41992,11.66553.50592,0,1.0152-.03101,1.52539-.07654,2.06836,3.80475,5.41266,6.67639,9.53027,8.11023,1.88574.65674,3.80859.96826,5.70117.96777,7.19238-.00049,13.93652-4.50146,16.43164-11.66797,3.08594-8.86035-7.22266-27.99609-7.66309-28.80615ZM9.08354,35.67291c-2.45801-7.06982,5.18262-22.64062,7.10742-26.37744,3.21826,1.45581,14.78204,6.95917,19.87354,12.9325-4.36444,2.69006-8.77551,6.021-11.00311,9.49884l-2.02612-5.81104,2.9223-6.04559c.24023-.49707.03223-1.09521-.46484-1.33545-.5-.24072-1.0957-.03076-1.33594.46533l-2.05237,4.24597-2.11072-6.05359c-.18164-.52148-.75488-.7959-1.27344-.61523-.52148.18213-.79688.75195-.61523,1.27344l4.97443,14.26685-4.38556-1.71704c-.51172-.20166-1.09375.05225-1.2959.56641-.20117.51465.05273,1.09473.56738,1.2959l5.81659,2.27734c-1.16046,3.78674-1.00366,7.77917.44714,11.4444-6.6712.27338-12.90649-3.89777-15.14557-10.31158ZM54.9146,44.67291c-2.67908,7.69067-10.88336,11.8941-18.62518,9.74945l.89734-2.57697c.00024-.00049.00031-.0011.00055-.00159l2.7644-7.93866,6.0459-2.92316c.49707-.24072.70508-.83838.46484-1.33545s-.83398-.70654-1.33594-.46533l-4.24445,2.05219,5.00812-14.38226c.18164-.52148-.09375-1.09131-.61523-1.27295-.52148-.18115-1.0918.09375-1.27344.61572l-2.10718,6.05133-2.052-4.24518c-.24023-.49609-.83496-.70557-1.33594-.46533-.49707.24023-.70508.83838-.46484,1.33545l2.92261,6.04626-4.8717,13.99054-2.05188-4.24481c-.24023-.49658-.83398-.70605-1.33594-.46533-.49707.24023-.70508.83838-.46484,1.33545l2.92249,6.04596-.76208,2.18848c-3.4458-1.45264-6.22076-4.06049-7.86255-7.45709-1.78809-3.69922-2.0293-7.87354-.67773-11.75391v-.00049c2.46289-7.07373,18.12207-14.52783,21.95117-16.25977,1.9248,3.73584,9.56641,19.30322,7.10352,26.37744Z"/>
</svg>