<?xml version="1.0" encoding="UTF-8"?>
<svg id="Outline" xmlns="http://www.w3.org/2000/svg" version="1.1" viewBox="0 0 64 64">
  <!-- Generator: Adobe Illustrator 29.5.1, SVG Export Plug-In . SVG Version: 2.1.0 Build 141)  -->
  <path d="M42.771,12.353c-.38-.46-1.16-.46-1.54,0-.32.39-4.73,5.72-8.55,11.75-8.03-3.97-23.89-5.48-24.59-5.55-.3-.03-.59.08-.8.29-.21.21-.31.51-.29.8.09.91,2.12,22.26,7.78,27.91,2.88,2.87,6.73,4.39,10.63,4.39,2.18,0,4.37-.47,6.42-1.45.46-.22.87-.52,1.24-.87,1.17.87,2.48,1.59,3.91,2.1,1.19.42,2.53.35,3.67-.21.52-.25.97-.59,1.35-1,.38.41.83.75,1.35,1,.65.32,1.37.48,2.08.48.54,0,1.08-.09,1.59-.27,5.97-2.13,9.98-7.81,9.98-14.14,0-8-13.65-24.53-14.23-25.23ZM30.971,48.693c-4.95,2.35-10.89,1.32-14.77-2.56-4.44-4.42-6.56-20.83-7.08-25.46,3.88.44,16.01,2.01,22.5,5.15-1.06,1.77-2.04,3.56-2.82,5.28v-1.65c0-.55-.45-1-1-1s-1,.45-1,1v7.48l-2.24-2.24v-6.65c0-.55-.45-1-1-1-.56,0-1,.45-1,1v4.65l-2.25-2.24v-3.82c0-.56-.44-1-1-1-.55,0-1,.44-1,1v1.82l-3.94-3.95c-.39-.39-1.03-.39-1.42,0-.39.39-.39,1.03,0,1.42l3.95,3.95h-1.83c-.55,0-1,.45-1,1s.45,1,1,1h3.83l2.25,2.24h-4.66c-.56,0-1,.45-1,1s.44,1,1,1h6.66l2.24,2.24h-7.49c-.55,0-1,.45-1,1,0,.56.45,1,1,1h9.37c.15.77.35,1.52.61,2.25h-7.15c-.55,0-1,.45-1,1s.45,1,1,1h8.03c.73,1.37,1.67,2.62,2.78,3.71-.18.15-.36.28-.57.38ZM46.351,49.832c-.69.25-1.46.2-2.12-.12-.58-.28-1-.74-1.23-1.33v-.98l7.71-7.7c.39-.39.39-1.03,0-1.42-.39-.39-1.03-.39-1.42,0l-6.29,6.3v-3.18l6.71-6.7c.39-.39.39-1.03,0-1.42-.39-.39-1.03-.39-1.42,0l-5.29,5.3v-3.18l4.71-4.7c.39-.39.39-1.03,0-1.42-.39-.39-1.03-.39-1.42,0l-3.29,3.3v-3.18l2.71-2.7c.39-.39.39-1.03,0-1.42-.39-.39-1.03-.39-1.42,0l-1.29,1.3v-5.59c0-.55-.45-1-1-1s-1,.45-1,1v5.59l-1.29-1.3c-.39-.39-1.03-.39-1.42,0-.39.39-.39,1.03,0,1.42l2.71,2.7v3.18l-3.29-3.3c-.39-.39-1.03-.39-1.42,0-.39.39-.39,1.03,0,1.42l4.71,4.7v3.18l-5.29-5.3c-.39-.39-1.03-.39-1.42,0-.39.39-.39,1.03,0,1.42l6.71,6.7v3.18l-6.29-6.3c-.39-.39-1.03-.39-1.42,0-.39.39-.39,1.03,0,1.42l7.71,7.7v.99c-.22.57-.65,1.04-1.23,1.32-.66.32-1.43.37-2.12.12-5.17-1.84-8.65-6.76-8.65-12.25,0-6.27,10.1-19.37,13-23,2.9,3.63,13,16.73,13,23,0,5.49-3.48,10.41-8.65,12.25Z"/>
</svg>