<?xml version="1.0" encoding="UTF-8"?>
<svg id="Outline" xmlns="http://www.w3.org/2000/svg" version="1.1" viewBox="0 0 64 64">
  <!-- Generator: Adobe Illustrator 29.5.1, SVG Export Plug-In . SVG Version: 2.1.0 Build 141)  -->
  <path d="M55.926,33.999c-.54-.01-1.01.41-1.03.97-.31,9.08-6.42,15.52-14.98,15.98v-1.54l7.71-7.7c.39-.39.39-1.03,0-1.42-.39-.39-1.03-.39-1.42,0l-6.29,6.3v-6.18l7.71-7.7c.39-.39.39-1.03,0-1.42-.39-.39-1.03-.39-1.42,0l-6.29,6.3v-6.18l7.71-7.7c.39-.39.39-1.03,0-1.42-.39-.39-1.03-.39-1.42,0l-6.29,6.3v-5.18l4.71-4.7c.39-.39.39-1.03,0-1.42-.39-.39-1.03-.39-1.42,0l-3.29,3.3v-5.59c0-.55-.45-1-1-1s-1,.45-1,1v5.59l-3.29-3.3c-.39-.39-1.03-.39-1.42,0-.39.39-.39,1.03,0,1.42l4.71,4.7v5.18l-6.29-6.3c-.39-.39-1.03-.39-1.42,0-.39.39-.39,1.03,0,1.42l7.71,7.7v6.18l-6.29-6.3c-.39-.39-1.03-.39-1.42,0-.39.39-.39,1.03,0,1.42l7.71,7.7v6.18l-6.29-6.3c-.33-.33-.83-.36-1.21-.13-.68-3.82-3.68-8.01-6.38-11.14,3.19-8.27,12.33-17.26,14.88-19.66,2.78,2.62,13.41,13.07,15.61,21.88.11.46.52.76.97.76.08,0,.16-.01.24-.03.54-.13.86-.68.73-1.21-2.67-10.7-16.3-22.99-16.88-23.51-.38-.33-.96-.33-1.34,0-.49.44-11.49,10.36-15.7,20.11-1.68-1.78-2.99-2.97-3.14-3.11-.38-.33-.96-.33-1.34,0-.38.35-9.47,8.53-10.94,15.54-.11.55.23,1.08.78,1.19.54.11,1.07-.23,1.18-.77,1.12-5.34,7.55-11.83,9.65-13.84,2.31,2.2,9.82,9.79,9.82,15.3,0,5.66-3.5,9.72-8.64,10.26v-7.52l3.71-3.7c.39-.39.39-1.03,0-1.42-.39-.39-1.03-.39-1.42,0l-2.29,2.3v-9.59c0-.55-.45-1-1-1s-1,.45-1,1v3.59l-2.29-2.3c-.39-.39-1.03-.39-1.42,0-.39.39-.39,1.03,0,1.42l3.71,3.7v9.18l-2.29-2.3c-.39-.39-1.03-.39-1.42,0-.39.39-.39,1.03,0,1.42l3.71,3.7v1.56c-4.61-.33-8.03-3.45-8.82-8.14-.1-.54-.61-.91-1.16-.82-.54.1-.91.61-.82,1.16.95,5.6,5.24,9.45,10.8,9.8v2.03c0,.55.45,1,1,1s1-.45,1-1v-2.06c3.4-.3,6.25-1.92,8.14-4.42,2.79,2.08,6.16,3.26,9.86,3.44v3.04c0,.55.45,1,1,1s1-.45,1-1v-3.05c9.7-.47,16.63-7.69,16.98-17.92.02-.55-.41-1.01-.97-1.03ZM37.916,50.959c-3.31-.18-6.32-1.26-8.79-3.14.87-1.68,1.36-3.64,1.41-5.78l7.38,7.37v1.55Z"/>
</svg>