<?xml version="1.0" encoding="UTF-8"?>
<svg id="Outline" xmlns="http://www.w3.org/2000/svg" version="1.1" viewBox="0 0 64 64">
  <!-- Generator: Adobe Illustrator 29.3.1, SVG Export Plug-In . SVG Version: 2.1.0 Build 151)  -->
  <path d="M56.92856,23.49995c0-3.11761-4.7771-5.22961-10.01526-5.82373l.86829-4.34131,8.36377-1.85889c.53906-.11963.87939-.65381.75928-1.19287s-.65479-.87842-1.19287-.75928l-9,2c-.38672.08594-.68604.3916-.76367.77979l-1.0437,5.21844c-.32581-.01221-.65167-.02216-.97583-.02216-6.25195,0-13,2.29395-13,6,0,.02716.00836.05255.00909.07959.00085.01062-.00391.02008-.00275.03076l3,27c.00195.01764.01208.03162.01489.04889.22546,2.64465,5.90912,3.84076,9.97876,3.84076s9.75342-1.19611,9.97876-3.84082c.00281-.01727.01294-.03125.01489-.04883l3-27c.00116-.01068-.0036-.02014-.00275-.03076.00073-.02704.00909-.05243.00909-.07959ZM53.79978,33.6059c-1.88336-1.40643-5.84485-2.078-9.65204-2.10272l.4035-2.01733c3.75555-.09021,7.59753-.98651,9.98511-2.50934l-.73657,6.62939ZM52.17819,48.2002c-2.05017-1.1571-5.51331-1.70026-8.24963-1.70026s-6.19946.54315-8.24963,1.70026l-1.16669-10.50043c1.41248.8382,3.62396,1.37024,6.03198,1.62311l-.59613,2.98077c-.2421,1.21056,1.70406,1.68092,1.96094.39258l.64557-3.22784c.4585.01874.91754.03156,1.37396.03156,3.58734,0,7.35406-.57635,9.41632-1.80017l-1.16669,10.50043ZM43.92856,33.49995c5.79736,0,8.79492,1.43408,8.99658,2-.20166.56592-3.19922,2-8.99658,2-.33594,0-.66003-.00604-.97717-.0152l.79645-3.98199c.06152-.00031.11859-.00281.18073-.00281ZM40.93649,37.36152c-3.88324-.37665-5.88562-1.42004-6.0094-1.84644.13153-.47925,2.38934-1.63074,6.76617-1.93726l-.75677,3.78369ZM42.09848,31.55183c-3.27258.17908-6.42297.84564-8.04114,2.05408l-.73657-6.62939c2.2204,1.41626,5.69897,2.2923,9.19653,2.48096l-.41882,2.09436ZM54.92496,23.47901l-.01324.11945c-.16772,1.6759-4.59045,3.6496-9.95862,3.87805l1.56647-7.83173c4.71674.50891,8.3725,2.30798,8.4054,3.83423ZM43.92856,19.49995c.19446,0,.38513.00854.57764.01318l-1.59271,7.96362c-5.37231-.2265-9.80029-2.20142-9.96808-3.8783l-.01324-.11945c.03876-1.79694,5.09479-3.97906,10.9964-3.97906ZM43.92856,52.49995c-4.61816,0-7.8252-1.40234-8.00195-1.98096.17676-.6167,3.38379-2.01904,8.00195-2.01904,4.5708,0,7.75928,1.37402,7.99561,2-.23633.62598-3.4248,2-7.99561,2Z"/>
  <path d="M30.11856,49.37995l-.41998-.42004c1.94995-4.66998-.17004-11.47998-5.23004-16.54999-.19-.19-.38-.37-.57996-.57001-.02002-.01001-.03003-.01996-.04004-.02997-.02997-.04004-.06-.08002-.08997-.10999-.21002-.20001-.44-.37006-.67999-.52002-.03003-.01001-.05005-.03003-.07001-.03998-1.22003-.71002-2.90002-.76001-4.85004-.11005-2.13995.72003-4.42999,2.21002-6.41998,4.21002-2,1.98999-3.48999,4.27997-4.21002,6.41998-.78998,2.38-.54999,4.37.67004,5.60004.02997.02997.07001.04999.10999.07996.02002.02002.02997.04004.04999.06.17999.19.35999.38.54999.56,5.07001,5.07001,11.88,7.19,16.55005,5.24005l.41998.41998c.58002.58997,1.34998.88,2.12.88s1.53998-.29004,2.12-.88c.57001-.57001.88-1.32001.88-2.12s-.31-1.54999-.88-2.12ZM21.71854,38.47993h-3.32996l4.41998-4.41998c.22998,1.07001-.13,2.65997-1.09003,4.41998ZM16.97855,33.73994c1.41998-.77002,2.73004-1.16998,3.73999-1.16998.25,0,.47003.02997.67999.07996l-4.41998,4.41003v-3.32001ZM16.97855,40.47993h3.42999c-.46997.60999-1,1.22003-1.59998,1.83002-.60999.59998-1.22003,1.13-1.83002,1.59998v-3.42999ZM13.14853,36.64991c.61005-.59998,1.22003-1.13,1.83002-1.59998v3.42999h-3.42999c.47003-.60999,1-1.21997,1.59998-1.83002ZM10.23856,40.47993h3.33002l-4.42004,4.41998c-.22998-1.07001.13-2.65997,1.09003-4.41998ZM10.55856,46.30994l4.41998-4.41998v3.32996c-1.76001.96002-3.34998,1.32001-4.41998,1.09003ZM28.70859,52.20991c-.39001.39001-1.03003.39001-1.42004,0l-.91998-.91998c-.31-.31-.78003-.39001-1.16998-.17999-3.39001,1.79999-8.53003.59003-12.91003-2.83002,2.42999-.37,5.34003-1.96997,7.92999-4.56,2.60004-2.58997,4.19-5.5,4.56-7.94,3.42004,4.38,4.63,9.53003,2.83002,12.92004-.20001.38995-.13.85999.17999,1.16998l.92004.91998c.18994.19.28998.44.28998.71002,0,.26996-.10004.51996-.28998.70996Z"/>
</svg>