<?xml version="1.0" encoding="UTF-8"?>
<svg id="Outline" xmlns="http://www.w3.org/2000/svg" version="1.1" viewBox="0 0 64 64">
  <!-- Generator: Adobe Illustrator 29.5.1, SVG Export Plug-In . SVG Version: 2.1.0 Build 141)  -->
  <path d="M21,7c-6.79,0-14,2.1-14,6v13.3c0,3.87.52,7.73,1.54,11.46.97,3.57,1.46,7.25,1.46,10.94v6.3c0,.48.34.89.8.98,3.39.68,6.79,1.02,10.2,1.02s6.81-.34,10.2-1.02c.46-.09.8-.5.8-.98v-6.3c0-3.69.49-7.37,1.46-10.94,1.02-3.73,1.54-7.59,1.54-11.46v-13.3c0-3.9-7.21-6-14-6ZM31.54,37.24c-1.02,3.73-1.54,7.59-1.54,11.46v5.47c-5.98,1.1-12.02,1.1-18,0v-5.47c0-3.87-.52-7.73-1.54-11.46-.75-2.78-1.21-5.63-1.38-8.5,2.6,1.49,7.27,2.26,11.92,2.26s9.32-.77,11.92-2.26c-.17,2.87-.63,5.72-1.38,8.5ZM21,29c-7.44,0-12-1.94-12-3s4.56-3,12-3,12,1.94,12,3-4.56,3-12,3ZM24.99,18.76c.04,0,.08,0,.12-.01,3.47-.43,6.19-1.33,7.89-2.54v7.09c-2.58-1.52-7.31-2.3-12-2.3s-9.42.78-12,2.3v-7.09c1.7,1.21,4.42,2.11,7.89,2.54.54.07,1.04-.32,1.11-.87.07-.55-.32-1.04-.87-1.11-5.09-.64-8.13-2.42-8.13-3.77,0-1.67,4.57-4,12-4s12,2.33,12,4c0,1.35-3.04,3.13-8.13,3.77-.55.07-.94.56-.87,1.11.06.51.49.88.99.88Z"/>
  <path d="M56,44h-22c-.552,0-1,.448-1,1,0,6.617,5.383,12,12,12s12-5.383,12-12c0-.552-.448-1-1-1ZM40.115,48.471c-.515-.722-.871-1.562-1.025-2.471h3.496l-2.471,2.471ZM44,47.414v3.496c-.909-.154-1.749-.51-2.471-1.025l2.471-2.471ZM46,47.414l2.471,2.471c-.722.515-1.562.871-2.471,1.025v-3.496ZM49.885,48.471l-2.471-2.471h3.496c-.154.909-.51,1.749-1.025,2.471ZM45,55c-5.176,0-9.447-3.954-9.95-9h2.02c.495,3.94,3.859,7,7.931,7s7.436-3.06,7.931-7h2.02c-.503,5.046-4.774,9-9.95,9Z"/>
  <circle cx="21" cy="18" r="1"/>
</svg>