<?xml version="1.0" encoding="UTF-8"?>
<svg id="Outline" xmlns="http://www.w3.org/2000/svg" version="1.1" viewBox="0 0 64 64">
  <!-- Generator: Adobe Illustrator 29.5.1, SVG Export Plug-In . SVG Version: 2.1.0 Build 141)  -->
  <path d="M56.55,23.171l-5.55-3.71v-5.46c0-1.65-1.35-3-3-3h-9.7l-5.75-3.83c-.33-.23-.77-.23-1.1,0l-5.75,3.83h-9.7c-1.65,0-3,1.35-3,3v5.46l-5.55,3.71c-.28.18-.45.5-.45.83v30c0,1.65,1.35,3,3,3h44c1.65,0,3-1.35,3-3v-30c0-.33-.17-.65-.45-.83ZM32,9.201l2.7,1.8h-5.4l2.7-1.8ZM15,14.001c0-.55.45-1,1-1h32c.55,0,1,.45,1,1v16.88l-10,5.74c-.23-.43-.5-.85-.86-1.2-.91-.92-2.13-1.42-3.42-1.42-.99,0-1.92.29-2.72.83-.8-.54-1.73-.83-2.72-.83-1.29,0-2.51.5-3.42,1.42-.36.35-.63.77-.86,1.2l-10-5.75V14.001ZM37.56,38.841c0,.76-.29,1.48-.83,2.02l-4.73,4.73-4.73-4.73c-.54-.54-.83-1.26-.83-2.02s.29-1.47.83-2.01c.54-.53,1.25-.83,2.01-.83s1.48.3,2.01.83c.38.38,1.04.38,1.42,0,1.07-1.07,2.95-1.07,4.02,0,.54.54.83,1.25.83,2.01ZM9,24.541l4-2.67v7.85l-4-2.3v-2.88ZM10,55.001c-.55,0-1-.45-1-1v-24.27l15.46,8.88c0,.08-.02.16-.02.23,0,1.3.5,2.51,1.42,3.43l5.43,5.44c.19.18.44.29.71.29s.52-.11.71-.29l2.77-2.77,17.51,10.06H10ZM55,53.851l-18.06-10.38,1.2-1.2c.92-.92,1.42-2.13,1.42-3.43,0-.07-.02-.15-.02-.23l15.46-8.87v24.11ZM55,27.431l-4,2.3v-7.86l4,2.67v2.89Z"/>
  <path d="M24,47.001h-12c-.553,0-1,.448-1,1v4c0,.552.447,1,1,1h12c.553,0,1-.448,1-1v-4c0-.552-.447-1-1-1ZM23,51.001h-10v-2h10v2Z"/>
  <path d="M18,21.001h28c.553,0,1-.448,1-1v-4c0-.552-.447-1-1-1h-28c-.553,0-1,.448-1,1v4c0,.552.447,1,1,1ZM19,17.001h26v2h-26v-2Z"/>
  <path d="M18,25.001h12c.553,0,1-.448,1-1s-.447-1-1-1h-12c-.553,0-1,.448-1,1s.447,1,1,1Z"/>
  <path d="M18,29.001h8c.553,0,1-.448,1-1s-.447-1-1-1h-8c-.553,0-1,.448-1,1s.447,1,1,1Z"/>
  <path d="M46,23.001h-12c-.553,0-1,.448-1,1s.447,1,1,1h12c.553,0,1-.448,1-1s-.447-1-1-1Z"/>
  <path d="M46,27.001h-8c-.553,0-1,.448-1,1s.447,1,1,1h8c.553,0,1-.448,1-1s-.447-1-1-1Z"/>
</svg>