<?xml version="1.0" encoding="UTF-8"?>
<svg id="Outline" xmlns="http://www.w3.org/2000/svg" version="1.1" viewBox="0 0 64 64">
  <!-- Generator: Adobe Illustrator 29.5.1, SVG Export Plug-In . SVG Version: 2.1.0 Build 141)  -->
  <path d="M54.0196,21.44c3.57996-3.84003,2.94995-10.22003,2.91998-10.5-.04999-.46002-.41998-.83002-.89001-.88-.07001-.01001-1.83997-.19-4.06.13-.37.04999-.69.31-.81.66998l-.17999.54999v-.40997c0-2.21002-1.78998-4-4-4H10.99958c-2.21002,0-4,1.78998-4,4v3c0,.54999.45001,1,1,1h5v6h-1c-2.76001,0-5,2.23999-5,5v28c0,1.64996,1.34998,3,3,3h44c1.65002,0,3-1.35004,3-3v-28c0-2.04004-1.22998-3.79004-2.97998-4.56ZM50.28956,15.28998c.24005.25.60004.35004.94.27002.33002-.08002.60004-.33002.71002-.66003l.94-2.81c.83997-.08997,1.58002-.09998,2.12-.08997.03003,1.76001-.16998,5.82001-2.59003,8.23999-1.88995,1.89001-4.77997,2.41998-6.78998,2.54999l2.54999-2.54999c.39001-.39001.39001-1.02002,0-1.41003-.38995-.38995-1.02997-.38995-1.41998,0l-2.54999,2.55005c.13-2.01001.65997-4.90002,2.54999-6.79004.46002-.45996,1-.85999,1.63-1.19995l1.90997,1.89996ZM46.99958,9c1.09998,0,2,.89996,2,2v.26996c-.26001-.12-.56-.12994-.83002-.00995-1.12.50995-2.07001,1.14996-2.82996,1.90997-3.27002,3.27002-3.24005,8.59998-3.15002,10.22998l-1.90002,1.89001c-.38988.38994-.38995,1.02979-.00022,1.41977.36796.36818,1.02445.37622,1.42026.00022l1.88995-1.89996c.24005.01001.56.02997.94.02997,1.12,0,2.76001-.10999,4.46002-.56v10.31l-11.40997,11.41003h-11.18005l-11.40997-11.41003V11c0-.73004-.21002-1.41003-.56-2h32.56ZM8.99958,13v-2c0-1.10004.90002-2,2-2s2,.89996,2,2v2h-4ZM8.99958,26c0-1.65002,1.34998-3,3-3h1v9.58997l-4-4v-2.58997ZM8.99958,53.58997v-22.17999l4.28998,4.29999,6.80005,6.79004-11.09003,11.08997ZM10.40955,55l11.09003-11.09003,3.78998,3.79999c.19.18005.44.29004.71002.29004h12c.27002,0,.52002-.10999.71002-.29004l3.78998-3.79999,11.09003,11.09003H10.40955ZM54.99958,53.58997l-11.09003-11.08997,6.80005-6.79004,4.28998-4.29999v22.17999ZM54.99958,28.58997l-4,4v-9.02997c.35999-.16998.70001-.35004,1.03998-.56,1.64001.02997,2.96002,1.35999,2.96002,3v2.58997Z"/>
  <path d="M17.99958,13h8c.55273,0,1-.44775,1-1s-.44727-1-1-1h-8c-.55273,0-1,.44775-1,1s.44727,1,1,1Z"/>
  <path d="M17.99958,17h14c.55273,0,1-.44775,1-1s-.44727-1-1-1h-14c-.55273,0-1,.44775-1,1s.44727,1,1,1Z"/>
  <path d="M17.99958,23h20c.55273,0,1-.44775,1-1s-.44727-1-1-1h-20c-.55273,0-1,.44775-1,1s.44727,1,1,1Z"/>
  <path d="M17.99958,27h20c.55273,0,1-.44775,1-1s-.44727-1-1-1h-20c-.55273,0-1,.44775-1,1s.44727,1,1,1Z"/>
  <path d="M17.99958,31h12c.55273,0,1-.44775,1-1s-.44727-1-1-1h-12c-.55273,0-1,.44775-1,1s.44727,1,1,1Z"/>
</svg>