<?xml version="1.0" encoding="UTF-8"?>
<svg id="Outline" xmlns="http://www.w3.org/2000/svg" version="1.1" viewBox="0 0 64 64">
  <!-- Generator: Adobe Illustrator 29.5.1, SVG Export Plug-In . SVG Version: 2.1.0 Build 141)  -->
  <path d="M16.469,33.495c-1.367-.806-3.16-.622-4.331.548-1.39,1.389-1.39,3.65,0,5.039l3.624,3.625c.188.188.441.293.707.293s.52-.105.707-.293l3.625-3.625c1.39-1.389,1.39-3.65,0-5.04-1.173-1.171-2.968-1.355-4.332-.548ZM19.387,35.458c.609.609.609,1.602,0,2.211l-2.918,2.917-2.917-2.917c-.609-.609-.609-1.602,0-2.21.305-.305.705-.457,1.104-.457s.801.152,1.105.457c.391.39,1.023.39,1.414,0,.609-.61,1.602-.61,2.211,0Z"/>
  <path d="M44,39c.553,0,1-.448,1-1v-4c0-.552-.447-1-1-1h-4c-.553,0-1,.448-1,1v4c0,.552.447,1,1,1h4ZM41,35h2v2h-2v-2Z"/>
  <path d="M31,42c0,.552.447,1,1,1h12c.553,0,1-.448,1-1s-.447-1-1-1h-12c-.553,0-1,.448-1,1Z"/>
  <path d="M44,45h-18c-.553,0-1,.448-1,1s.447,1,1,1h18c.553,0,1-.448,1-1s-.447-1-1-1Z"/>
  <path d="M44,49h-18c-.553,0-1,.448-1,1s.447,1,1,1h18c.553,0,1-.448,1-1s-.447-1-1-1Z"/>
  <path d="M56,23c.55,0,1-.45,1-1v-10c0-1.65-1.35-3-3-3H22c-1.65,0-3,1.35-3,3v17h-9c-1.65,0-3,1.35-3,3v20c0,1.65,1.35,3,3,3h36c1.65,0,3-1.35,3-3v-19h5c1.65,0,3-1.35,3-3v-4c0-.55-.45-1-1-1s-1,.45-1,1v4c0,.55-.45,1-1,1h-5.18c-.42-1.16-1.52-2-2.82-2h-14c-.55,0-1,.45-1,1s.45,1,1,1h14c.55,0,1,.45,1,1v20c0,.55-.45,1-1,1H10c-.55,0-1-.45-1-1v-20c0-.55.45-1,1-1h18c.55,0,1-.45,1-1s-.45-1-1-1h-7V12.26l16.39,12.53c.18.14.4.21.61.21s.43-.07.61-.21l16.39-12.53v9.74c0,.55.45,1,1,1ZM38,22.74l-15.35-11.74h30.7l-15.35,11.74Z"/>
</svg>