<?xml version="1.0" encoding="UTF-8"?>
<svg id="Outline" xmlns="http://www.w3.org/2000/svg" version="1.1" viewBox="0 0 64 64">
  <!-- Generator: Adobe Illustrator 29.3.1, SVG Export Plug-In . SVG Version: 2.1.0 Build 151)  -->
  <path d="M55.94189,25.00391c-.54785-.09766-1.05957.2793-1.14893.82422-2.09473,12.74414-19.37744,26.34766-22.79297,28.92578-3.63818-2.74609-23-17.99805-23-31.37402,0-7.92871,5.85889-14.37988,13.06006-14.37988,3.47461,0,6.74219,1.48242,9.20166,4.1748.37891.41406,1.09766.41406,1.47656,0,2.45947-2.69238,5.72705-4.1748,9.20166-4.1748,5.45215,0,10.37988,3.78027,12.26172,9.40723.17432.52246.73779.80566,1.26562.63086.52344-.1748.80615-.74121.63086-1.26562-2.15479-6.44336-7.84473-10.77246-14.1582-10.77246-3.70264,0-7.19434,1.4375-9.93994,4.06934-2.74512-2.63184-6.2373-4.06934-9.93994-4.06934-8.3042,0-15.06006,7.34766-15.06006,16.37988,0,15.71191,23.41943,32.71582,24.4165,33.43262.17432.125.37891.1875.5835.1875s.40918-.0625.5835-.1875c.88623-.63672,21.73438-15.7627,24.18311-30.66016.08936-.54492-.27979-1.05957-.82471-1.14844Z"/>
  <path d="M46,25c0-4.96289-4.0376-9-9-9-1.84906,0-3.56879.56171-5,1.52179-1.43121-.96008-3.15094-1.52179-5-1.52179-4.9624,0-9,4.03711-9,9,0,4.62451,3.50702,8.44153,8,8.94098v5.05902h-2c-.55225,0-1,.44727-1,1s.44775,1,1,1h2v4c0,.55273.44775,1,1,1s1-.44727,1-1v-4h2c.55225,0,1-.44727,1-1s-.44775-1-1-1h-2v-5.05902c1.46783-.16315,2.83069-.67834,4-1.46277,1.16931.78442,2.53217,1.29962,4,1.46277v8.64496l-1.29297-1.29297c-.39062-.39062-1.02344-.39062-1.41406,0s-.39062,1.02344,0,1.41406l3,3c.19531.19531.45117.29297.70703.29297s.51172-.09766.70703-.29297l3-3c.39062-.39062.39062-1.02344,0-1.41406s-1.02344-.39062-1.41406,0l-1.29297,1.29297v-8.64496c4.49298-.49945,8-4.31647,8-8.94098ZM44,25c0,3.85938-3.14014,7-7,7-1.23761,0-2.39929-.32593-3.40912-.89191,1.48987-1.60645,2.40912-3.74939,2.40912-6.10809s-.91925-4.50165-2.40912-6.10809c1.00983-.56598,2.17151-.89191,3.40912-.89191,3.85986,0,7,3.14062,7,7ZM30,25c0-1.90167.76477-3.62659,2-4.88947,1.23523,1.26288,2,2.98779,2,4.88947s-.76477,3.62659-2,4.88947c-1.23523-1.26288-2-2.98779-2-4.88947ZM20,25c0-3.85938,3.14014-7,7-7,1.23761,0,2.39929.32593,3.40912.89191-1.48987,1.60645-2.40912,3.74939-2.40912,6.10809s.91925,4.50165,2.40912,6.10809c-1.00983.56598-2.17151.89191-3.40912.89191-3.85986,0-7-3.14062-7-7Z"/>
  <circle cx="56" cy="22" r="1"/>
</svg>