<?xml version="1.0" encoding="UTF-8"?>
<svg id="Outline" xmlns="http://www.w3.org/2000/svg" version="1.1" viewBox="0 0 64 64">
  <!-- Generator: Adobe Illustrator 29.5.1, SVG Export Plug-In . SVG Version: 2.1.0 Build 141)  -->
  <path d="M21,23.001c2.757,0,5-2.243,5-5s-2.243-5-5-5-5,2.243-5,5,2.243,5,5,5ZM21,15.001c1.654,0,3,1.346,3,3s-1.346,3-3,3-3-1.346-3-3,1.346-3,3-3Z"/>
  <path d="M28,25.001h-14c-.552,0-1,.448-1,1v4c0,.552.448,1,1,1h14c.552,0,1-.448,1-1v-4c0-.552-.448-1-1-1ZM27,29.001h-12v-2h12v2Z"/>
  <path d="M28,33.001h-14c-.552,0-1,.448-1,1v4c0,.552.448,1,1,1h14c.552,0,1-.448,1-1v-4c0-.552-.448-1-1-1ZM27,37.001h-12v-2h12v2Z"/>
  <path d="M54,39.001c.55,0,1-.45,1-1v-13h1c.55,0,1-.45,1-1v-4c0-.55-.45-1-1-1h-8v-3h2c.55,0,1-.45,1-1v-7c0-.55-.45-1-1-1h-2.93c-1.4,0-2.8.31-4.07.89-1.27-.58-2.67-.89-4.07-.89h-2.93c-.55,0-1,.45-1,1v7c0,.55.45,1,1,1h2v3h-5v-1c0-.28-.12-.55-.33-.74l-11-10c-.38-.35-.96-.35-1.34,0l-11,10c-.21.19-.33.46-.33.74v33h-1c-.55,0-1,.45-1,1v4c0,.55.45,1,1,1h48c.55,0,1-.45,1-1v-4c0-.55-.45-1-1-1h-1v-5c0-.55-.45-1-1-1s-1,.45-1,1v5h-20v-26h20v13c0,.55.45,1,1,1ZM11,18.441l10-9.09,10,9.09v32.56h-3v-9c0-.55-.45-1-1-1h-12c-.55,0-1,.45-1,1v9h-3V18.441ZM26,43.001v8h-4v-8h4ZM20,43.001v8h-4v-8h4ZM55,53.001v2H9v-2h46ZM44,9.651c.97-.42,2.02-.65,3.07-.65h1.93v5h-2c-.01,0-.02.01-.03.01-1.01.01-2.01.17-2.97.49v-4.85ZM42.55,16.891c.14.07.3.11.45.11s.31-.04.45-.11l.14-.07c.76-.38,1.57-.62,2.41-.74v2.92h-6v-2.92c.84.12,1.65.36,2.41.74l.14.07ZM37,14.001v-5h1.93c1.05,0,2.1.23,3.07.65v4.85c-.96-.32-1.96-.48-2.97-.49-.01,0-.02-.01-.03-.01h-2ZM33,23.001v-2h22v2h-22Z"/>
  <path d="M51,28.001c0-.552-.448-1-1-1h-14c-.552,0-1,.448-1,1v4c0,.552.448,1,1,1h14c.552,0,1-.448,1-1v-4ZM49,31.001h-12v-2h12v2Z"/>
  <path d="M50,35.001h-14c-.552,0-1,.448-1,1v4c0,.552.448,1,1,1h14c.552,0,1-.448,1-1v-4c0-.552-.448-1-1-1ZM49,39.001h-12v-2h12v2Z"/>
  <circle cx="54" cy="42.001" r="1"/>
</svg>