<?xml version="1.0" encoding="UTF-8"?>
<svg id="Outline" xmlns="http://www.w3.org/2000/svg" version="1.1" viewBox="0 0 64 64">
  <!-- Generator: Adobe Illustrator 29.5.1, SVG Export Plug-In . SVG Version: 2.1.0 Build 141)  -->
  <path d="M44.67,11.841c-4.077-3.652-9.339-5.329-14.831-4.723-9.018,1-16.073,8.303-16.777,17.366-.475,6.011,1.846,11.751,6.368,15.75,1.633,1.432,2.569,3.535,2.569,5.768,0,.552.447,1,1,1h1v2c0,4.411,3.589,8,8,8s8-3.589,8-8v-2h1c.553,0,1-.448,1-1,0-1.109.232-2.181.69-3.186.463-1.017,1.117-1.908,1.943-2.646,4.046-3.597,6.366-8.761,6.366-14.167s-2.307-10.56-6.329-14.162ZM43.303,38.677c-.758.678-1.398,1.459-1.914,2.326h-6.389c-.553,0-1,.448-1,1s.447,1,1,1h5.482c-.213.651-.362,1.318-.431,2h-9.051c-.553,0-1,.448-1,1s.447,1,1,1h7v2c0,3.309-2.691,6-6,6s-6-2.691-6-6v-2h1c.553,0,1-.448,1-1s-.447-1-1-1h-3.051c-.069-.686-.217-1.354-.423-2h7.474c.553,0,1-.448,1-1s-.447-1-1-1h-8.374c-.502-.844-1.127-1.614-1.874-2.269-4.044-3.577-6.12-8.713-5.695-14.093.619-7.977,7.069-14.654,15.003-15.534,4.919-.542,9.63.958,13.276,4.224,3.6,3.224,5.664,7.842,5.664,12.672s-2.075,9.455-5.696,12.674Z"/>
  <path d="M40.718,23.308c-.248-.257-.616-.361-.961-.275l-7.758,1.939-7.758-1.939c-.346-.086-.713.018-.961.275-.248.257-.341.626-.243.97l4,14c.153.532.71.837,1.236.687.531-.152.839-.705.688-1.236l-3.524-12.335,6.32,1.58c.158.04.326.04.484,0l6.32-1.58-3.524,12.335c-.151.531.156,1.084.688,1.236.525.151,1.085-.161,1.236-.687l4-14c.098-.344.005-.713-.243-.97Z"/>
  <path d="M28.999,51.003c0,.552.447,1,1,1h4c.553,0,1-.448,1-1s-.447-1-1-1h-4c-.553,0-1,.448-1,1Z"/>
  <path d="M31.999,15.003c.553,0,1-.448,1-1v-2c0-.552-.447-1-1-1s-1,.448-1,1v2c0,.552.447,1,1,1Z"/>
  <path d="M22.807,18.225c.371.371,1.019.395,1.414,0,.391-.391.391-1.023,0-1.414l-1.414-1.414c-.391-.391-1.023-.391-1.414,0s-.391,1.023,0,1.414l1.414,1.414Z"/>
  <path d="M19.999,25.003h-2c-.553,0-1,.448-1,1s.447,1,1,1h2c.553,0,1-.448,1-1s-.447-1-1-1Z"/>
  <path d="M22.807,33.781l-1.414,1.414c-.391.391-.391,1.023,0,1.414.383.384,1.033.381,1.414,0l1.414-1.414c.391-.391.391-1.023,0-1.414s-1.023-.391-1.414,0Z"/>
  <path d="M41.192,15.396l-1.414,1.414c-.391.391-.391,1.023,0,1.414.371.371,1.02.394,1.414,0l1.414-1.414c.391-.391.391-1.023,0-1.414s-1.023-.391-1.414,0Z"/>
  <path d="M45.999,25.003h-2c-.553,0-1,.448-1,1s.447,1,1,1h2c.553,0,1-.448,1-1s-.447-1-1-1Z"/>
  <path d="M41.192,33.781c-.391-.391-1.023-.391-1.414,0s-.391,1.023,0,1.414c0,0,1.414,1.414,1.414,1.414.387.387,1.026.388,1.414,0,.391-.391.391-1.023,0-1.414l-1.414-1.414Z"/>
</svg>