<?xml version="1.0" encoding="UTF-8"?>
<svg id="Outline" xmlns="http://www.w3.org/2000/svg" version="1.1" viewBox="0 0 64 64">
  <!-- Generator: Adobe Illustrator 29.5.1, SVG Export Plug-In . SVG Version: 2.1.0 Build 141)  -->
  <path d="M33.363,44.127c-.15.15-.33.28-.51.4.25.44.4.93.4,1.47,0,1.07-.56,2-1.4,2.53.25.44.4.93.4,1.47,0,1.38-.95,2.54-2.22,2.88.14.35.22.73.22,1.12,0,.81-.32,1.57-.89,2.13-.54.55-1.3.87-2.11.87h-5.76c-1.62,0-3.24-.38-4.69-1.11-1.15-.57-2.44-.88-3.74-.89-.41,1.16-1.51,2-2.81,2h-2c-.55,0-1-.45-1-1s.45-1,1-1h2c.55,0,1-.45,1-1v-6c0-.55.45-1,1-1s1,.45,1,1v5c1.54.04,3.07.42,4.45,1.11,1.17.58,2.48.89,3.79.89h5.76c.501,0,1-.463,1-1,0-.55-.45-1-1-1h-3c-.55,0-1-.45-1-1s.45-1,1-1h5c.55,0,1-.45,1-1s-.45-1-1-1h-5c-.55,0-1-.45-1-1s.45-1,1-1h6c.55,0,1-.45,1-1s-.45-1-1-1h-6c-.55,0-1-.45-1-1s.45-1,1-1h7c.542,0,1-.46,1-1,0-.55-.45-1-1-1h-9c-.55,0-1-.45-1-1v-5c0-1.07-.42-2.07-1.17-2.84-.51-.5-1.14-.86-1.83-1.03v4.46c0,1.16-.47,2.3-1.29,3.12-.82.82-1.96,1.29-3.12,1.29h-.59v4c0,.55-.45,1-1,1s-1-.45-1-1v-5c0-.55-.45-1-1-1h-2c-.55,0-1-.45-1-1s.45-1,1-1h2c1.3,0,2.4.84,2.82,2h.77c.63,0,1.25-.26,1.7-.71.45-.45.71-1.07.71-1.7v-5.59c0-.55.45-1,1-1,1.6,0,3.1.62,4.24,1.75,1.14,1.15,1.76,2.65,1.76,4.25v4h8c1.65,0,3,1.35,3,3,0,.81-.32,1.57-.89,2.13Z"/>
  <path d="M53.459,10.289c-4.163-4.154-10.795-4.369-15.206-.649-4.411-3.72-11.042-3.504-15.208.651-4.382,4.392-4.381,11.531,0,15.913l14.5,14.5c.195.195.451.293.707.293s.512-.098.707-.292l10.09-10.08c.391-.391.391-1.023,0-1.414-.39-.391-1.024-.391-1.414,0l-2.59,2.587-2.427-.35c-.229-.032-.421-.212-.468-.445l-.288-1.373c1.036-.849,1.775-2.047,2.017-3.42.708-.035,1.37-.36,1.832-.903.49-.575.7-1.337.578-2.089-.088-.542-.365-1.019-.751-1.389v-2.116c0-1.546-1.05-2.851-2.475-3.24-.389-1.424-1.694-2.475-3.24-2.475h-3.928c-2.718,0-4.929,2.211-4.929,4.929v2.901c-.386.37-.663.846-.751,1.388-.123.752.088,1.515.578,2.09.462.543,1.124.868,1.832.903.242,1.372.981,2.571,2.017,3.42l-.29,1.38c-.046.226-.238.406-.473.439l-2.415.348-7.006-7.006c-3.604-3.604-3.603-9.474,0-13.085,3.613-3.604,9.483-3.604,13.087,0,.391.391,1.023.391,1.414,0,3.604-3.603,9.475-3.603,13.085,0,3.604,3.613,3.604,9.483-.001,13.089l-1.58,1.59c-.389.392-.387,1.025.004,1.415.393.39,1.025.387,1.415-.004l1.578-1.588c4.382-4.382,4.383-11.521,0-15.915ZM35.896,15.997h3.928c.749,0,1.357.609,1.357,1.357,0,.552.448,1,1,1,.748,0,1.357.609,1.357,1.357v1.263l-.462-.925c-.128-.256-.361-.446-.638-.519-.277-.073-.572-.024-.812.134l-.508.339c-.676.45-1.584.36-2.159-.214-.391-.391-1.023-.391-1.414,0-.575.574-1.483.665-2.159.214l-.508-.339c-.239-.16-.534-.209-.812-.134-.277.073-.509.263-.638.519l-.462.925v-2.049c0-1.615,1.314-2.929,2.929-2.929ZM34.539,25.212c0-.552-.448-1-1-1h-.786c-.359,0-.619-.327-.563-.675.042-.262.327-.468.646-.468h.702c.379,0,.725-.214.895-.553l.295-.591c1.131.542,2.463.471,3.524-.168,1.062.639,2.395.711,3.524.168l.295.591c.169.339.516.553.895.553h.702c.32,0,.604.206.647.469.056.347-.207.675-.563.675h-.786c-.552,0-1,.448-1,1,0,2.048-1.666,3.714-3.714,3.714s-3.714-1.666-3.714-3.714ZM34.16,33.428c1.073-.148,1.938-.961,2.152-2.015l.165-.786c.561.185,1.154.299,1.776.299s1.215-.115,1.776-.299l.164.779c.215,1.061,1.081,1.874,2.147,2.021l.939.135-5.026,5.021-5.022-5.021.928-.134Z"/>
</svg>