<?xml version="1.0" encoding="UTF-8"?>
<svg id="Outline" xmlns="http://www.w3.org/2000/svg" version="1.1" viewBox="0 0 64 64">
  <!-- Generator: Adobe Illustrator 29.5.1, SVG Export Plug-In . SVG Version: 2.1.0 Build 141)  -->
  <path d="M46.78003,39.47379c1.56-.71002,3.03998-1.66003,4.31-2.92004,6.52997-6.53998,4.60999-18.75,4.52997-19.26001-.07001-.42999-.40002-.75995-.83002-.82996-.29999-.05005-7.19-1.13-13.40997,1.02997-2.84998-5.89996-8.47998-10-8.79999-10.21997-.35004-.25-.81-.25-1.16003,0-.32001.21997-5.95001,4.32001-8.79999,10.21997-6.21997-2.15997-13.10999-1.08002-13.40997-1.02997-.42999.07001-.76001.39996-.83002.82996-.08002.51001-2,12.72003,4.52997,19.26001,1.27002,1.26001,2.75,2.21002,4.31,2.92004-.32996.27997-.65997.56-.96997.85999-5.71002,5.71997-5.26001,15.20996-5.23999,15.60999.02997.51001.44.91998.94.95001.07001,0,.33997.01996.77997.01996,2.45001,0,10-.41998,14.84003-5.25995,2.40997-2.42004,3.71997-5.53003,4.42999-8.34003.71002,2.81,2.02002,5.91998,4.42999,8.34003,4.84003,4.83997,12.39001,5.25995,14.84003,5.25995.44,0,.70996-.01996.77997-.01996.5-.03003.91003-.44.94-.95001.02002-.40002.47003-9.89001-5.23999-15.60999-.31-.29999-.64001-.58002-.96997-.85999ZM42.15002,19.33377c4.58997-1.56,9.71997-1.20001,11.58997-.98999.29004,2.64996.89001,11.82996-4.07001,16.78998-4.20001,4.21002-11.42999,4.40997-15.14996,4.19,3.01996-2.65002,8.47998-8.40002,8.47998-15.23999,0-1.66003-.32001-3.25-.84998-4.75ZM14.33002,35.13376c-4.96002-4.96002-4.36005-14.14001-4.07001-16.78998,1.87-.21002,7-.57001,11.58997.98999-.52997,1.5-.84998,3.08997-.84998,4.75,0,6.83997,5.46002,12.58997,8.47998,15.23999-3.71997.21997-10.94995.02002-15.14996-4.19ZM26.15002,50.23373c-4.10004,4.11005-10.71002,4.62-13.15002,4.67004.03998-2.42999.56-9.04004,4.66998-13.15002.53003-.52997,1.13-1.01001,1.78003-1.45001,2.81.85999,5.70001,1.10004,8.01996,1.10004,1.15002,0,2.15002-.06,2.94-.13-.52997,2.88-1.69995,6.40997-4.25995,8.95996ZM29.25,26.80374c1.03003-.46997,1.75-1.51001,1.75-2.71997,0-1.65002-1.34998-3-3-3s-3,1.34998-3,3c0,1.38.94,2.52997,2.21002,2.88l2.92999,10.22998c-2.84003-2.65002-7.14001-7.58002-7.14001-13.10999,0-7.01001,6.91998-13.08002,9-14.73999,2.08002,1.65997,9,7.72998,9,14.73999,0,5.52997-4.29999,10.45996-7.14001,13.10999l2.92999-10.22998c1.27002-.35004,2.21002-1.5,2.21002-2.88,0-1.65002-1.34998-3-3-3s-3,1.34998-3,3c0,1.20996.71997,2.25,1.75,2.71997l-2.75,9.64001-2.75-9.64001ZM29,24.08377c0,.54999-.45001,1-1,1s-1-.45001-1-1,.45001-1,1-1,1,.45001,1,1ZM35,24.08377c0-.54999.45001-1,1-1s1,.45001,1,1-.45001,1-1,1-1-.45001-1-1ZM37.84998,50.23373c-2.56-2.54999-3.72998-6.07996-4.25995-8.95996.78998.07001,1.78998.13,2.94.13,2.31995,0,5.21997-.24005,8.01996-1.10004.65002.44,1.25.91003,1.78003,1.45001,4.09998,4.09998,4.62,10.71002,4.66998,13.15002-2.44-.05005-9.04999-.56-13.15002-4.67004Z"/>
</svg>