<?xml version="1.0" encoding="UTF-8"?>
<svg id="Outline" xmlns="http://www.w3.org/2000/svg" version="1.1" viewBox="0 0 64 64">
  <!-- Generator: Adobe Illustrator 29.5.1, SVG Export Plug-In . SVG Version: 2.1.0 Build 141)  -->
  <path d="M56.71,40.764l-.69-.69c-2.16-2.15-4.83-3.66-7.74-4.41.73-1.46,1.13-3.08,1.13-4.76,0-2.84-1.11-5.5-3.11-7.5l-13.59-13.6c-.38-.37-1.04-.37-1.42,0l-13.59,13.6c-2,2-3.11,4.66-3.11,7.5,0,1.68.4,3.3,1.13,4.76-2.91.75-5.58,2.26-7.74,4.41l-.69.69c-.39.39-.39,1.03,0,1.42l.69.69c1.19,1.18,2.51,2.15,3.92,2.91-.43.46-.67.76-.69.78-.28.37-.28.87,0,1.24.2.25,4.85,6.1,10.79,6.1,2.23,0,4.52-.81,6.8-2.41,1.17,1.64,2.49,2.69,2.58,2.77.18.14.4.21.62.21s.44-.07.62-.21c.09-.08,1.41-1.13,2.58-2.77,2.28,1.6,4.57,2.41,6.8,2.41,5.94,0,10.59-5.85,10.79-6.1.28-.37.28-.87,0-1.24-.02-.02-.26-.32-.69-.78,1.41-.76,2.73-1.73,3.92-2.91l.69-.69c.39-.39.39-1.03,0-1.42ZM19.11,24.814l12.89-12.89,12.89,12.89c1.62,1.63,2.52,3.79,2.52,6.09s-.9,4.46-2.52,6.09c-1.63,1.62-3.79,2.52-6.09,2.52-2.27,0-4.4-.87-6.02-2.46-.03-.04-.05-.08-.08-.11-1.74-1.71-2.7-3.99-2.7-6.43,0-.55-.45-1-1-1s-1,.45-1,1c0,2.63.92,5.12,2.6,7.1-1.53,1.23-3.41,1.9-5.4,1.9-2.3,0-4.46-.9-6.09-2.52-1.62-1.63-2.52-3.79-2.52-6.09s.9-4.46,2.52-6.09ZM22,51.904c-3.93,0-7.39-3.31-8.68-4.72.14-.15.31-.33.5-.51,4.24,1.65,9.02,1.53,13.19-.36,0,.05-.01.11-.01.16,0,1.18.32,2.29.79,3.28-1.5,1.07-3.57,2.15-5.79,2.15ZM32,52.134c-1.03-.99-3-3.2-3-5.66,0-.43.08-.87.2-1.34.99-.64,1.93-1.38,2.8-2.24.87.86,1.81,1.6,2.8,2.24.12.47.2.91.2,1.34,0,2.46-1.97,4.67-3,5.66ZM42,51.904c-2.22,0-4.29-1.08-5.79-2.15.47-.99.79-2.1.79-3.28,0-.05-.01-.11-.01-.16,2.22,1,4.61,1.53,7.01,1.53,2.1,0,4.2-.4,6.18-1.17.19.18.36.36.5.51-1.29,1.41-4.75,4.72-8.68,4.72ZM33.4,41.454l-.69-.69c-.38-.37-1.04-.37-1.42,0l-.69.69c-5.84,5.84-15.34,5.85-21.19.02,2-1.99,4.5-3.37,7.22-3.98.07-.02.13-.06.2-.09.27.35.55.68.87,1,2,2.01,4.67,3.11,7.5,3.11,2.52,0,4.9-.87,6.8-2.46,1.9,1.59,4.28,2.46,6.8,2.46,2.83,0,5.5-1.1,7.5-3.11.32-.32.6-.65.87-1,.07.03.13.07.2.09,2.72.61,5.22,1.99,7.22,3.98-5.85,5.83-15.35,5.82-21.19-.02Z"/>
</svg>