<?xml version="1.0" encoding="UTF-8"?>
<svg id="Outline" xmlns="http://www.w3.org/2000/svg" version="1.1" viewBox="0 0 64 64">
  <!-- Generator: Adobe Illustrator 29.5.1, SVG Export Plug-In . SVG Version: 2.1.0 Build 141)  -->
  <path d="M32,15c-11.58,0-21,9.42-21,21s9.42,21,21,21,21-9.42,21-21-9.42-21-21-21ZM46.1,48.69l-.66-.67c-.4-.39-1.03-.39-1.42,0s-.39,1.02,0,1.42l.67.66c-3.14,2.83-7.21,4.61-11.69,4.85v-.95c0-.55-.45-1-1-1s-1,.45-1,1v.95c-4.48-.24-8.55-2.02-11.69-4.85l.67-.66c.39-.4.39-1.03,0-1.42s-1.02-.39-1.42,0l-.66.67c-2.83-3.14-4.61-7.21-4.85-11.69h.95c.55,0,1-.45,1-1s-.45-1-1-1h-.95c.24-4.48,2.02-8.55,4.85-11.69,0,0,.66.67.66.67.402.382,1.018.381,1.42,0,.39-.39.39-1.02,0-1.42l-.67-.66c3.14-2.83,7.21-4.61,11.69-4.85v.95c0,.55.45,1,1,1s1-.45,1-1v-.95c4.48.24,8.55,2.02,11.69,4.85l-.67.66c-.39.4-.39,1.03,0,1.42.389.37,1.034.398,1.42,0l.66-.67c2.83,3.14,4.61,7.21,4.85,11.69h-.95c-.55,0-1,.45-1,1s.45,1,1,1h.95c-.24,4.48-2.02,8.55-4.85,11.69Z"/>
  <path d="M26,13h12c.552,0,1-.448,1-1v-4c0-.552-.448-1-1-1h-12c-.552,0-1,.448-1,1v4c0,.552.448,1,1,1ZM27,9h10v2h-10v-2Z"/>
  <path d="M19.979,15.494c.391-.391.391-1.023,0-1.414l-2.828-2.828c-.391-.391-1.023-.391-1.414,0l-8.485,8.485c-.391.391-.391,1.023,0,1.414l2.828,2.828c.195.195.451.293.707.293s.512-.098.707-.293l8.485-8.485ZM9.373,20.444l7.071-7.071,1.414,1.414-7.071,7.071-1.414-1.414Z"/>
  <path d="M56.749,19.737l-8.485-8.485c-.391-.391-1.023-.391-1.414,0l-2.828,2.828c-.391.391-.391,1.023,0,1.414l8.485,8.485c.195.195.451.293.707.293s.512-.098.707-.293l2.828-2.828c.391-.391.391-1.023,0-1.414ZM53.213,21.858l-7.071-7.071,1.414-1.414,7.071,7.071-1.414,1.414Z"/>
  <path d="M39,30.93c-.04-.52-.48-.93-1-.93h-1.1c-.47-2.28-2.49-4-4.9-4s-4.43,1.72-4.9,4h-1.1c-.52,0-.96.41-1,.93l-1,14c-.02.28.08.55.27.75s.45.32.73.32h14c.28,0,.54-.12.73-.32s.29-.47.27-.75l-1-14ZM32,28c1.3,0,2.42.84,2.83,2h-5.66c.41-1.16,1.53-2,2.83-2ZM26.07,44l.86-12h10.14l.86,12h-11.86Z"/>
  <path d="M34.293,34.293l-6,6c-.391.391-.391,1.023,0,1.414.367.367,1.022.393,1.414,0l6-6c.391-.391.391-1.023,0-1.414s-1.023-.391-1.414,0Z"/>
  <circle cx="29" cy="35" r="1"/>
  <circle cx="35" cy="41" r="1"/>
  <path d="M33,22c0-.552-.448-1-1-1-8.271,0-15,6.729-15,15,0,.552.448,1,1,1s1-.448,1-1c0-7.168,5.832-13,13-13,.552,0,1-.448,1-1Z"/>
</svg>