<?xml version="1.0" encoding="UTF-8"?>
<svg id="Outline" xmlns="http://www.w3.org/2000/svg" version="1.1" viewBox="0 0 64 64">
  <!-- Generator: Adobe Illustrator 29.0.0, SVG Export Plug-In . SVG Version: 2.1.0 Build 186)  -->
  <path d="M56,55h-1v-1c0-.55225-.44775-1-1-1s-1,.44775-1,1v1h-2v-1c0-.55225-.44775-1-1-1s-1,.44775-1,1v1h-2v-1c0-.55225-.44775-1-1-1s-1,.44775-1,1v1h-2v-1c0-.55225-.44775-1-1-1s-1,.44775-1,1v1h-2v-1c0-.55225-.44775-1-1-1s-1,.44775-1,1v1h-2v-1c0-.55225-.44775-1-1-1s-1,.44775-1,1v1h-2v-1c0-.55225-.44775-1-1-1s-1,.44775-1,1v1h-2v-1c0-.55225-.44775-1-1-1s-1,.44775-1,1v1h-2v-1c0-.55225-.44775-1-1-1s-1,.44775-1,1v1h-2v-1c0-.55225-.44775-1-1-1s-1,.44775-1,1v1h-2v-1c0-.55225-.44775-1-1-1s-1,.44775-1,1v1h-4v-4h1c.55225,0,1-.44775,1-1s-.44775-1-1-1h-1v-2h1c.55225,0,1-.44775,1-1s-.44775-1-1-1h-1v-2h1c.55225,0,1-.44775,1-1s-.44775-1-1-1h-1v-2h1c.55225,0,1-.44775,1-1s-.44775-1-1-1h-1v-2h1c.55225,0,1-.44775,1-1s-.44775-1-1-1h-1v-2h1c.55225,0,1-.44775,1-1s-.44775-1-1-1h-1v-2h1c.55225,0,1-.44775,1-1s-.44775-1-1-1h-1v-2h1c.55225,0,1-.44775,1-1s-.44775-1-1-1h-1v-2h1c.55225,0,1-.44775,1-1s-.44775-1-1-1h-1v-2h1c.55225,0,1-.44775,1-1s-.44775-1-1-1h-1v-2h1c.55225,0,1-.44775,1-1s-.44775-1-1-1h-1v-1c0-.55225-.44775-1-1-1s-1,.44775-1,1v48c0,.55225.44775,1,1,1h48c.55225,0,1-.44775,1-1s-.44775-1-1-1Z"/>
  <path d="M54.71002,41.70996l-4,4c-.20001.20001-.48004.31-.77002.29004-.28003-.02002-.53998-.15002-.72003-.38l-3.07996-3.85004-3.27002,5.73004c-.25.41998-.76001.60999-1.21997.44l-7.54004-2.83002-7.57996,4.73999c-.25.15002-.56006.19-.84003.10004-.28003-.09003-.51001-.30005-.62-.58002l-3.33002-8.32001-6.92999,9.53997c-.30816.42422-.95126.54406-1.40003.22004-.44-.33002-.53998-.95001-.21997-1.40002l8-11c.21997-.28998.57001-.45001.92999-.39996.35999.03998.66998.27997.81.62l3.54999,8.88995,6.98999-4.37c.26001-.15997.59003-.19.88-.08997l7.20001,2.70001,3.58002-6.26001c.16998-.28003.46002-.47003.78998-.5.33002-.02002.65002.12.86005.38l3.29999,4.12,3.20996-3.21002c.39001-.39001,1.03003-.39001,1.42004,0,.38995.39001.38995,1.03003,0,1.41998Z"/>
  <path d="M42.0083,35.1084l.03174-.01514s9.58838,3.83545,9.58841,3.83546c.5072.20083,1.09666-.04767,1.30026-.55714.20508-.51318-.04443-1.09473-.55713-1.30029l-10-4c-.2627-.10449-.55615-.09375-.81006.03027l-.43018.20996c-.49658.24219-.70264.84082-.45996,1.33691.24219.49756.8418.70361,1.33691.45996Z"/>
  <path d="M17.21924,35.62451c.271.33789.72754.46387,1.13184.31201l7.4873-2.80762,7.56152,5.6709c.17619.13227.38751.20014.59982.2002.31225.00009.59728-.17894.86893-.31152.49658-.24219.70264-.84082.45996-1.33691-.22168-.45508-.7417-.66504-1.20947-.51221l-7.51904-5.63916c-.27393-.20557-.63232-.25586-.95117-.13672l-7.32129,2.74561-3.54688-4.43359c-.34473-.43213-.97559-.50098-1.40527-.15625-.43164.34473-.50146.97412-.15625,1.40527l4,5Z"/>
  <path d="M14,15h4c.55225,0,1-.44775,1-1v-4c0-.55225-.44775-1-1-1h-4c-.55225,0-1,.44775-1,1v4c0,.55225.44775,1,1,1ZM15,11h2v2h-2v-2Z"/>
  <path d="M22,11h8c.55225,0,1-.44775,1-1s-.44775-1-1-1h-8c-.55225,0-1,.44775-1,1s.44775,1,1,1Z"/>
  <path d="M22,15h14c.55225,0,1-.44775,1-1s-.44775-1-1-1h-14c-.55225,0-1,.44775-1,1s.44775,1,1,1Z"/>
  <path d="M14,23h4c.55225,0,1-.44775,1-1v-4c0-.55225-.44775-1-1-1h-4c-.55225,0-1,.44775-1,1v4c0,.55225.44775,1,1,1ZM15,19h2v2h-2v-2Z"/>
  <path d="M22,19h8c.55225,0,1-.44775,1-1s-.44775-1-1-1h-8c-.55225,0-1,.44775-1,1s.44775,1,1,1Z"/>
  <path d="M22,23h14c.55225,0,1-.44775,1-1s-.44775-1-1-1h-14c-.55225,0-1,.44775-1,1s.44775,1,1,1Z"/>
  <path d="M14,27h14c.55225,0,1-.44775,1-1s-.44775-1-1-1h-14c-.55225,0-1,.44775-1,1s.44775,1,1,1Z"/>
  <circle cx="38" cy="36" r="1"/>
</svg>