<?xml version="1.0" encoding="UTF-8"?>
<svg id="Outline" xmlns="http://www.w3.org/2000/svg" version="1.1" viewBox="0 0 64 64">
  <!-- Generator: Adobe Illustrator 29.5.1, SVG Export Plug-In . SVG Version: 2.1.0 Build 141)  -->
  <path d="M49.676,14.322c-4.732-4.722-11.01-7.322-17.676-7.322-13.785,0-25,11.215-25,25,0,.552.448,1,1,1s1-.448,1-1c0-12.682,10.318-23,23-23,6.133,0,11.909,2.393,16.262,6.736,4.345,4.355,6.738,10.131,6.738,16.264v10.592c-.613-.281-1.18-.647-1.692-1.095-.852-.745-1.494-1.652-1.91-2.7l-.47-1.17c-.179-.445-.648-.702-1.118-.609-.47.091-.81.503-.81.982,0,3.725-1.286,7.381-3.62,10.294-2.329,2.907-5.621,4.956-9.266,5.77l-4.114.912-4.113-.912c-7.588-1.691-12.887-8.296-12.887-16.064,0-.479-.34-.891-.81-.982-.472-.09-.939.165-1.118.609l-.472,1.173c-.671,1.686-1.974,3.039-3.601,3.791v-6.591c0-.552-.448-1-1-1s-1,.448-1,1v8c0,.308.142.599.385.789.243.189.557.257.859.181,2.062-.517,3.858-1.742,5.094-3.414,1.37,7.114,6.792,12.829,14.116,14.46l4.33.96c.071.016.144.024.216.024s.145-.008.216-.024l4.332-.96c4.089-.913,7.78-3.21,10.393-6.471,1.869-2.333,3.138-5.089,3.712-7.996.388.527.835,1.013,1.34,1.454,1.082.946,2.348,1.607,3.762,1.966.626.159,1.246-.326,1.246-.969v-12c0-6.666-2.6-12.944-7.324-17.678Z"/>
  <path d="M49,22c0-3.31-2.69-6-6-6-1.73,0-3.37.76-4.5,2.04-.28-.02-.56-.04-.85-.04-2,0-3.94.52-5.65,1.51-1.71-.99-3.65-1.51-5.65-1.51-.29,0-.57.02-.85.04-1.13-1.28-2.77-2.04-4.5-2.04-3.31,0-6,2.69-6,6,0,1.09.3,2.13.85,3.05-.54,1.33-.85,2.78-.85,4.3,0,4.13,2.18,7.84,5.74,9.86-.06.49-.09.97-.09,1.44,0,6.26,5.09,11.35,11.35,11.35s11.35-5.09,11.35-11.35c0-.47-.03-.95-.09-1.44,2.3-1.31,4.07-3.36,5.01-5.86.2-.51-.06-1.09-.58-1.29-.51-.19-1.09.07-1.29.59-.83,2.21-2.54,4.07-4.68,5.11-.4.2-.63.64-.54,1.08.11.62.17,1.22.17,1.81,0,5.16-4.19,9.35-9.35,9.35s-9.35-4.19-9.35-9.35c0-.59.06-1.19.17-1.81.09-.44-.14-.88-.54-1.08-3.26-1.58-5.28-4.81-5.28-8.41,0-5.16,4.19-9.35,9.35-9.35,1.82,0,3.59.52,5.1,1.52.33.21.77.21,1.1,0,1.51-1,3.28-1.52,5.1-1.52,3.77,0,6.99,2.19,8.48,5.39.01.04.03.08.05.12.49,1.07.77,2.26.81,3.52.02.55.47.98,1.03.97.55-.02.99-.48.97-1.03-.05-1.39-.35-2.71-.84-3.93.55-.91.85-1.95.85-3.04ZM17.09,22.81c-.05-.27-.09-.53-.09-.81,0-2.21,1.79-4,4-4,.69,0,1.36.19,1.96.52-2.4.75-4.45,2.28-5.87,4.29ZM46.92,22.77c-1.42-2-3.47-3.51-5.87-4.25.59-.33,1.26-.52,1.95-.52,2.21,0,4,1.79,4,4,0,.26-.03.52-.08.77Z"/>
  <path d="M25,33c1.254,0,2.39-.586,3.128-1.51l.015.025c.652,1.087,2.384.085,1.715-1.029l-.428-.712c-.191-.318-.406-.616-.629-.907-.025-.038-.047-.075-.076-.11-1.931-2.262-4.706-3.756-7.724-3.756-.552,0-1,.448-1,1s.448,1,1,1c.175,0,.347.023.521.034-.333.59-.521,1.264-.521,1.966,0,2.206,1.794,4,4,4ZM26.876,29.68c-.278.774-1.02,1.32-1.876,1.32-1.103,0-2-.897-2-2,0-.587.266-1.128.698-1.502,1.219.451,2.312,1.2,3.177,2.182Z"/>
  <path d="M43.926,26c0-.552-.448-1-1-1-2.962,0-5.894,1.435-7.725,3.758-.028.033-.049.069-.073.105-.224.292-.44.591-.631.91l-.428.712c-.284.473-.131,1.088.343,1.372.47.282,1.09.127,1.372-.343l.015-.025c.737.924,1.873,1.51,3.128,1.51,2.206,0,4-1.794,4-4,0-.702-.187-1.376-.521-1.966.174-.012.345-.034.521-.034.552,0,1-.448,1-1ZM40.926,29c0,1.103-.897,2-2,2-.856,0-1.598-.546-1.876-1.32.865-.982,1.958-1.731,3.177-2.182.433.374.698.915.698,1.502Z"/>
  <path d="M35.201,41.841l2.949-2.458c.54-.45.85-1.111.85-1.814,0-1.302-1.06-2.362-2.362-2.362h-9.276c-1.302,0-2.362,1.06-2.362,2.362,0,.703.31,1.364.85,1.814l2.949,2.458c.664.553,1.436.9,2.238,1.057v3.014c-.951-.175-1.841-.606-2.571-1.258-.413-.368-1.044-.332-1.412.08-.368.412-.332,1.044.08,1.412,1.339,1.195,3.067,1.854,4.866,1.854s3.527-.659,4.866-1.854c.412-.368.448-1,.08-1.412-.368-.412-1-.448-1.412-.08-.711.635-1.574,1.055-2.497,1.238v-3.013c.775-.164,1.521-.502,2.164-1.038ZM27.13,37.847c-.083-.069-.13-.17-.13-.278,0-.2.162-.362.362-.362h9.276c.2,0,.362.162.362.362,0,.108-.047.209-.13.278l-2.949,2.458c-1.113.927-2.728.927-3.841,0l-2.949-2.458Z"/>
</svg>