<?xml version="1.0" encoding="UTF-8"?>
<svg id="Outline" xmlns="http://www.w3.org/2000/svg" version="1.1" viewBox="0 0 64 64">
  <!-- Generator: Adobe Illustrator 29.3.1, SVG Export Plug-In . SVG Version: 2.1.0 Build 151)  -->
  <path d="M56.95001,51.67999l-2.95001-8.84003v-25.83997c0-2.21002-1.78998-4-4-4h-2.85999c-3.20001-3.60004-8.78003-6-15.14001-6s-11.94,2.39996-15.14001,6h-2.85999c-2.21002,0-4,1.78998-4,4v25.83997l-2.95001,8.84003c-.02997.10999-.04999.21002-.04999.32001v4c0,.54999.45001,1,1,1h48c.54999,0,1-.45001,1-1v-4c0-.10999-.02002-.21002-.04999-.32001ZM32,9c8.82001,0,16,4.92999,16,11,0,5.38-5.84003,10.04999-13.59003,10.85999-.25995.03003-.50995.15997-.66998.37l-1.73999,2.16998-1.73999-2.16998c-.16003-.21002-.41003-.33997-.66998-.37-7.75-.81-13.59003-5.47998-13.59003-10.85999,0-6.07001,7.17999-11,16-11ZM16,25.97998c2.51001,3.53003,7.19,6.12,12.96002,6.82001l2.25995,2.82001c.19.23999.48004.38.78003.38s.59003-.14001.78003-.38l2.25995-2.82001c5.77002-.70001,10.45001-3.28998,12.96002-6.82001v12.02002H16v-12.02002ZM11.71997,44h8.28003c.54999,0,1-.45001,1-1s-.45001-1-1-1h-8v-25c0-1.10004.90002-2,2-2h1.39001c-.89001,1.53998-1.39001,3.22998-1.39001,5v18c0,1.09998.90002,2,2,2h32c1.09998,0,2-.90002,2-2v-18c0-1.77002-.5-3.46002-1.39001-5h1.39001c1.09998,0,2,.89996,2,2v25h-24c-.54999,0-1,.45001-1,1s.45001,1,1,1h24.28003l2.32996,7h-14.98999l-1.72998-3.45001c-.16003-.34003-.51001-.54999-.89001-.54999h-10c-.38,0-.72998.20996-.89001.54999l-1.72998,3.45001h-14.98999l2.32996-7ZM37.38,51h-10.76001l1-2h8.76001l1,2ZM55,55H9v-2h46v2Z"/>
  <path d="M28,25h3c.55225,0,1-.44727,1-1s-.44775-1-1-1h-2v-2h2c.55225,0,1-.44727,1-1s-.44775-1-1-1h-2v-2h2c.55225,0,1-.44727,1-1s-.44775-1-1-1h-3c-.55225,0-1,.44727-1,1v8c0,.55273.44775,1,1,1Z"/>
  <path d="M34,25h3c.55225,0,1-.44727,1-1s-.44775-1-1-1h-2v-7c0-.55273-.44775-1-1-1s-1,.44727-1,1v8c0,.55273.44775,1,1,1Z"/>
  <path d="M40,25c.55225,0,1-.44727,1-1v-3h1c1.6543,0,3-1.3457,3-3s-1.3457-3-3-3h-2c-.55225,0-1,.44727-1,1v8c0,.55273.44775,1,1,1ZM41,17h1c.55127,0,1,.44824,1,1s-.44873,1-1,1h-1v-2Z"/>
  <path d="M21,25c.55225,0,1-.44727,1-1v-3h2v3c0,.55273.44775,1,1,1s1-.44727,1-1v-8c0-.55273-.44775-1-1-1s-1,.44727-1,1v3h-2v-3c0-.55273-.44775-1-1-1s-1,.44727-1,1v8c0,.55273.44775,1,1,1Z"/>
  <circle cx="24" cy="43" r="1"/>
</svg>