<?xml version="1.0" encoding="UTF-8"?>
<svg id="Outline" xmlns="http://www.w3.org/2000/svg" version="1.1" viewBox="0 0 64 64">
  <!-- Generator: Adobe Illustrator 29.3.1, SVG Export Plug-In . SVG Version: 2.1.0 Build 151)  -->
  <path d="M40.46002,38.15997c3.54999-5.39001,6.97998-11.64996,6.97998-15.71997,0-8.51001-6.91998-15.44-15.44-15.44s-15.44,6.92999-15.44,15.44c0,4.07001,3.42999,10.32996,6.97998,15.71997-5.37,1.64001-8.53998,4.88-8.53998,8.84003,0,5.89001,6.98999,10,17,10s17-4.10999,17-10c0-3.96002-3.16998-7.20001-8.53998-8.84003ZM18.56,22.44c0-7.41003,6.03003-13.44,13.44-13.44s13.44,6.02997,13.44,13.44c0,6.5-10.47003,20.20996-13.44,23.95996-2.96997-3.75-13.44-17.45996-13.44-23.95996ZM36.77002,43.45001c4.03998.75995,6.22998,2.35999,6.22998,3.54999,0,1.89001-4.70001,4-11,4s-11-2.10999-11-4c0-1.19,2.19-2.79004,6.22998-3.54999,2.14001,2.90997,3.80005,4.94,4,5.17999.19.23999.47003.37.77002.37s.58002-.13.77002-.37c.19995-.23999,1.85999-2.27002,4-5.17999ZM32,55c-8.83002,0-15-3.29004-15-8,0-3.16003,2.87-5.78003,7.71002-7.10004.40997.61005.82996,1.19,1.22998,1.76001-4.32001.98999-6.94,2.97003-6.94,5.34003,0,3.41998,5.59003,6,13,6s13-2.58002,13-6c0-2.37-2.62-4.35004-6.94-5.34003.40002-.57001.82001-1.14996,1.22998-1.76001,4.84003,1.32001,7.71002,3.94,7.71002,7.10004,0,4.70996-6.16998,8-15,8Z"/>
  <path d="M32,11c-1.41998,0-2.79999.26996-4.10999.79999-.51001.21002-.76001.79999-.54999,1.31.20996.51001.79999.75,1.31.54999,1.06-.44,2.19-.65997,3.34998-.65997,4.96002,0,9,4.03998,9,9s-4.03998,9-9,9c-.69,0-1.35999-.08002-2-.23004v-6.76996h5c.32001,0,.62-.15002.81-.42004.19-.25995.23999-.58997.14001-.89996l-.90002-2.67999.90002-2.67999c.09998-.31.04999-.64001-.14001-.90002-.19-.27002-.48999-.41998-.81-.41998h-6c-.54999,0-1,.45001-1,1v13.04999c-2.96002-1.47998-5-4.53003-5-8.04999,0-1.16003.21997-2.29004.65997-3.35004.21002-.50995-.03998-1.09998-.54999-1.31-.51001-.19995-1.08997.04004-1.31.55005-.52997,1.31-.79999,2.68994-.79999,4.10999,0,6.07001,4.92999,11,11,11s11-4.92999,11-11-4.92999-11-11-11ZM30,18h3.60999l-.56,1.67999c-.07001.21002-.07001.42999,0,.64001l.56,1.67999h-3.60999v-4Z"/>
  <path d="M25.63605,15.63605c.3905-.39056.3905-1.02374,0-1.41425s-1.02368-.3905-1.41425,0c-.3905.3905-.3905,1.02368,0,1.41425.39056.3905,1.02374.3905,1.41425,0Z"/>
</svg>