<?xml version="1.0" encoding="UTF-8"?>
<svg id="Outline" xmlns="http://www.w3.org/2000/svg" version="1.1" viewBox="0 0 64 64">
  <!-- Generator: Adobe Illustrator 29.5.1, SVG Export Plug-In . SVG Version: 2.1.0 Build 141)  -->
  <path d="M39.85,45.55c5.14-5.66,11.15-13.55,11.15-19.55,0-10.48-8.52-19-19-19S13,15.52,13,26c0,6,6.01,13.89,11.15,19.55-3.8.58-10.15,2.06-10.15,5.45,0,3.94,9.05,6,18,6s18-2.06,18-6c0-3.39-6.35-4.87-10.15-5.45ZM15,26c0-9.37,7.63-17,17-17s17,7.63,17,17c0,8.33-13.78,21.64-17,24.64-3.22-3-17-16.31-17-24.64ZM32,55c-10.5,0-16-2.6-16-4,0-1.03,3.13-2.87,9.82-3.66,2.92,3.07,5.25,5.17,5.51,5.41.19.17.43.25.67.25s.48-.08.67-.25c.26-.24,2.59-2.34,5.51-5.41,6.69.79,9.82,2.63,9.82,3.66,0,1.4-5.5,4-16,4Z"/>
  <path d="M46,26c0-7.72-6.28-14-14-14s-14,6.28-14,14,6.28,14,14,14,14-6.28,14-14ZM36.707,33.293l-1.707-1.707v-3.266c0-2.865,1.561-5.446,4-6.795v14.202c-.625.451-1.293.842-2,1.168v-2.895c0-.265-.105-.52-.293-.707ZM20,26c0-6.617,5.383-12,12-12s12,5.383,12,12c0,3.032-1.139,5.796-3,7.911v-13.911c0-.321-.154-.623-.415-.811-.261-.188-.597-.242-.9-.138-3.998,1.329-6.685,5.054-6.685,9.269v3.68c0,.265.105.52.293.707l1.707,1.707v3.191c-.961.249-1.962.395-3,.395-.683,0-1.348-.071-2-.181v-8.035c1.261-1.132,2-2.881,2-4.785,0-3.309-2.243-6-5-6s-5,2.691-5,6c0,1.903.739,3.652,2,4.785v5.134c-2.448-2.198-4-5.377-4-8.919ZM25.59,28.503c-.98-.717-1.59-2.059-1.59-3.503,0-2.206,1.346-4,3-4s3,1.794,3,4c0,1.444-.609,2.786-1.59,3.503-.258.188-.41.488-.41.807v7.99c-.699-.248-1.367-.556-2-.924v-7.066c0-.319-.152-.619-.41-.807Z"/>
</svg>