<?xml version="1.0" encoding="UTF-8"?>
<svg id="Outline" xmlns="http://www.w3.org/2000/svg" version="1.1" viewBox="0 0 64 64">
  <!-- Generator: Adobe Illustrator 29.0.0, SVG Export Plug-In . SVG Version: 2.1.0 Build 186)  -->
  <path d="M21.92035,45.90302c.69409-1.33752,1.07965-2.83594,1.07965-3.90302,0-2.75684-2.24316-5-5-5s-5,2.24316-5,5c0,1.06708.38556,2.56549,1.07965,3.90302-3.08044,1.47815-5.07965,4.5907-5.07965,8.09698v2c0,.55273.44775,1,1,1h16c.55225,0,1-.44727,1-1v-2c0-3.50629-1.99921-6.61884-5.07965-8.09698ZM18,39c1.6543,0,3,1.3457,3,3,0,1.97461-1.60889,5-3,5s-3-3.02539-3-5c0-1.6543,1.3457-3,3-3ZM25,55h-14v-1c0-2.83252,1.68439-5.31897,4.237-6.40869.76221.8374,1.69275,1.40869,2.763,1.40869s2.00079-.57129,2.763-1.40869c2.55261,1.08972,4.237,3.57617,4.237,6.40869v1Z"/>
  <path d="M49.92035,45.90302c.69409-1.33752,1.07965-2.83594,1.07965-3.90302,0-2.75684-2.24316-5-5-5s-5,2.24316-5,5c0,1.06708.38556,2.56549,1.07965,3.90302-3.08044,1.47815-5.07965,4.5907-5.07965,8.09698v2c0,.55273.44775,1,1,1h16c.55225,0,1-.44727,1-1v-2c0-3.50629-1.99921-6.61884-5.07965-8.09698ZM46,39c1.6543,0,3,1.3457,3,3,0,1.97461-1.60889,5-3,5s-3-3.02539-3-5c0-1.6543,1.3457-3,3-3ZM53,55h-14v-1c0-2.83252,1.68439-5.31897,4.237-6.40869.76221.8374,1.69275,1.40869,2.763,1.40869s2.00079-.57129,2.763-1.40869c2.55261,1.08972,4.237,3.57617,4.237,6.40869v1Z"/>
  <path d="M32,7c-8.271,0-15,6.72852-15,15,0,10.25781,13.66553,25.99414,14.24756,26.6582.18994.21777.46387.3418.75244.3418s.5625-.12402.75244-.3418c.58203-.66406,14.24756-16.40039,14.24756-26.6582,0-8.27148-6.729-15-15-15ZM32,46.4502c-2.87598-3.46582-13-16.25098-13-24.4502,0-7.16797,5.83154-13,13-13s13,5.83203,13,13c0,8.19922-10.12402,20.98438-13,24.4502Z"/>
  <path d="M32,11c-6.06543,0-11,4.93457-11,11s4.93457,11,11,11,11-4.93457,11-11-4.93457-11-11-11ZM32,13c4.9624,0,9,4.03711,9,9,0,1.85199-.56317,3.5744-1.52594,5.0069-.88879-1.33295-2.1145-2.40289-3.5567-3.09845.69586-1.33893,1.08264-2.8399,1.08264-3.90845,0-2.75684-2.24316-5-5-5s-5,2.24316-5,5c0,1.06854.38678,2.56952,1.08264,3.90845-1.44214.69556-2.66785,1.76544-3.55664,3.09845-.96277-1.4325-1.526-3.15491-1.526-5.0069,0-4.96289,4.0376-9,9-9ZM29,20c0-1.6543,1.3457-3,3-3s3,1.3457,3,3c0,1.97461-1.60889,5-3,5s-3-3.02539-3-5ZM25.89148,28.59052c.74988-1.34772,1.92188-2.40643,3.33301-3.01263.76453.84491,1.69946,1.42212,2.77551,1.42212s2.01099-.57721,2.77551-1.42212c1.41113.6062,2.58313,1.66492,3.33301,3.01263-1.60657,1.49011-3.74976,2.40948-6.10852,2.40948s-4.50195-.91937-6.10852-2.40948Z"/>
  <path d="M13.36377,21.91406c0-.55273-.44775-1-1-1h-4c-.55225,0-1,.44727-1,1s.44775,1,1,1h4c.55225,0,1-.44727,1-1Z"/>
  <path d="M13.41406,24.4502l-2.82812,2.82812c-.39062.39062-.39062,1.02344,0,1.41406.19531.19531.45117.29297.70703.29297s.51172-.09766.70703-.29297l2.82812-2.82812c.39062-.39062.39062-1.02344,0-1.41406s-1.02344-.39062-1.41406,0Z"/>
  <path d="M13.41406,19.37891c.19531.19531.45117.29297.70703.29297s.51172-.09766.70703-.29297c.39062-.39062.39062-1.02344,0-1.41406l-2.82812-2.8291c-.39062-.39062-1.02344-.39062-1.41406,0s-.39062,1.02344,0,1.41406l2.82812,2.8291Z"/>
  <path d="M55.63623,20.91406h-4c-.55225,0-1,.44727-1,1s.44775,1,1,1h4c.55225,0,1-.44727,1-1s-.44775-1-1-1Z"/>
  <path d="M52,28.69238c.19531.19531.45117.29297.70703.29297s.51172-.09766.70703-.29297c.39062-.39062.39062-1.02344,0-1.41406l-2.82812-2.82812c-.39062-.39062-1.02344-.39062-1.41406,0s-.39062,1.02344,0,1.41406l2.82812,2.82812Z"/>
  <path d="M49.87891,19.67188c.25586,0,.51221-.09766.70703-.29297l2.82812-2.8291c.39062-.39062.39062-1.02344,0-1.41406s-1.02441-.39062-1.41406,0l-2.82812,2.8291c-.39062.39062-.39062,1.02344,0,1.41406.19531.19531.45117.29297.70703.29297Z"/>
</svg>