<?xml version="1.0" encoding="UTF-8"?>
<svg id="Outline" xmlns="http://www.w3.org/2000/svg" version="1.1" viewBox="0 0 64 64">
  <!-- Generator: Adobe Illustrator 29.5.1, SVG Export Plug-In . SVG Version: 2.1.0 Build 141)  -->
  <path d="M49,24c0-2.259-.43-4.434-1.277-6.465-.212-.51-.798-.752-1.308-.538-.509.213-.75.798-.538,1.308.665,1.594,1.02,3.295,1.093,5.059l-1.009.448c-3.605,1.604-7.699,1.671-11.344.294,4.087-1.805,7.366-5.172,8.989-9.393l.052-.135c.125.154.263.293.383.453.332.441.958.53,1.4.199.441-.332.531-.959.199-1.4-3.26-4.34-8.232-6.829-13.639-6.829-9.374,0-17,7.626-17,17,0,1.473.186,2.93.553,4.333.134.512.71.844,1.22.715.534-.14.854-.687.714-1.221-.27-1.034-.422-2.103-.467-3.186l1.019-.453c3.605-1.603,7.698-1.67,11.343-.294-4.087,1.805-7.365,5.172-8.988,9.392l-.052.136c-.528-.652-1.011-1.347-1.43-2.092-.27-.482-.879-.653-1.362-.383-.481.271-.653.88-.382,1.361,2.511,4.473,6.886,7.523,11.832,8.414v3.302c-.272.206-.518.438-.743.694l-5.987-1.682c-.301-.082-.625-.023-.875.166-.25.188-.396.483-.396.797v8c0,.547.456,1,1,1,.09,0,.182-.013.271-.037l5.987-1.682c.225.256.471.488.743.694v2.026c0,1.654,1.346,3,3,3s3-1.346,3-3v-2.026c.272-.206.518-.438.743-.694l5.987,1.682c.089.024.18.037.27.037.548,0,1-.451,1-1v-8c0-.313-.146-.608-.396-.797-.25-.189-.575-.249-.875-.166l-5.987,1.682c-.225-.256-.471-.488-.743-.694v-3.307c7.946-1.423,14-8.37,14-16.719ZM32.636,38.968l-.448-1.007c-1.602-3.606-1.67-7.699-.294-11.344,1.805,4.087,5.172,7.365,9.393,8.988l.134.051c-2.422,1.961-5.466,3.171-8.785,3.311ZM31.812,10.039c1.602,3.606,1.67,7.699.294,11.344-1.805-4.087-5.172-7.365-9.393-8.988l-.134-.051c2.422-1.961,5.466-3.171,8.785-3.311l.448,1.007ZM39.908,27.091c2.339,0,4.683-.481,6.866-1.451l.142-.063c-.345,3.285-1.765,6.248-3.887,8.556l-1.024-.394c-3.676-1.414-6.614-4.253-8.22-7.793,1.961.757,4.039,1.146,6.122,1.146ZM33.945,22.214c1.608-4.162,1.529-8.859-.305-12.988l-.06-.136c3.222.333,6.188,1.692,8.557,3.87l-.398,1.033c-1.413,3.676-4.252,6.614-7.794,8.22ZM17.227,22.36l-.142.063c.345-3.285,1.765-6.248,3.887-8.556l1.024.394c3.676,1.414,6.614,4.253,8.22,7.794-4.163-1.608-8.861-1.529-12.988.305ZM30.055,25.786c-1.608,4.162-1.529,8.859.305,12.988l.06.135c-3.214-.342-6.21-1.712-8.558-3.865l.399-1.037c1.413-3.676,4.252-6.614,7.794-8.22ZM35,48c0,1.654-1.346,3-3,3s-3-1.346-3-3,1.346-3,3-3,3,1.346,3,3ZM23,50.681v-5.361l4.251,1.195c-.148.472-.251.965-.251,1.486s.102,1.013.251,1.486l-4.251,1.195ZM33,54c0,.552-.449,1-1,1s-1-.448-1-1v-1.101c.323.066.658.101,1,.101s.677-.035,1-.101v1.101ZM41,45.319v5.361l-4.251-1.195c.148-.472.251-.965.251-1.486s-.102-1.013-.251-1.486l4.251-1.195ZM33,43.101c-.323-.066-.658-.101-1-.101s-.677.035-1,.101v-2.135c.332.02.665.034,1,.034.338,0,.667-.031,1-.051v2.152Z"/>
</svg>