<?xml version="1.0" encoding="UTF-8"?>
<svg id="Outline" xmlns="http://www.w3.org/2000/svg" version="1.1" viewBox="0 0 64 64">
  <!-- Generator: Adobe Illustrator 29.5.1, SVG Export Plug-In . SVG Version: 2.1.0 Build 141)  -->
  <path d="M56.71,39.431l-.69-.69c-1.89-1.88-4.18-3.28-6.68-4.1,2.29-2.9,3.66-6.54,3.66-10.5v-4c0-.55-.45-1-1-1h-4c-2.88,0-5.68.72-8.17,2.09-.77-2.65-2.2-5.16-4.29-7.25l-2.83-2.83c-.39-.39-1.03-.39-1.42,0l-2.83,2.83c-2.09,2.09-3.52,4.6-4.29,7.25-2.49-1.37-5.29-2.09-8.17-2.09h-4c-.55,0-1,.45-1,1v4c0,3.96,1.37,7.6,3.66,10.5-2.5.82-4.79,2.22-6.68,4.1l-.69.69c-.39.39-.39,1.03,0,1.42l.69.69c1.19,1.18,2.51,2.15,3.92,2.91-.43.46-.67.76-.69.78-.28.37-.28.87,0,1.24.2.25,4.85,6.1,10.79,6.1,2.23,0,4.52-.81,6.8-2.41,1.17,1.64,2.49,2.69,2.58,2.77.18.14.4.21.62.21s.44-.07.62-.21c.09-.08,1.41-1.13,2.58-2.77,2.28,1.6,4.57,2.41,6.8,2.41,5.94,0,10.59-5.85,10.79-6.1.28-.37.28-.87,0-1.24-.02-.02-.26-.32-.69-.78,1.41-.76,2.73-1.73,3.92-2.91l.69-.69c.39-.39.39-1.03,0-1.42ZM40.27,23.291c2.33-1.4,4.99-2.15,7.73-2.15h3v3c0,8.27-6.73,15-15,15h-1.59l1.13-1.12c4-4.01,5.57-9.52,4.73-14.73ZM29.88,15.391l2.12-2.12,2.12,2.12c5.85,5.85,5.85,15.37,0,21.21l-2.12,2.13-2.12-2.13c-5.85-5.84-5.85-15.36,0-21.21ZM13,24.141v-3h3c2.74,0,5.4.75,7.73,2.15-.84,5.21.73,10.72,4.73,14.73l1.13,1.12h-1.59c-8.27,0-15-6.73-15-15ZM22,50.571c-3.93,0-7.39-3.31-8.68-4.72.14-.15.31-.33.49-.51,1.99.77,4.09,1.17,6.19,1.17,2.4,0,4.79-.53,7.01-1.53,0,.05-.01.11-.01.16,0,1.18.32,2.29.79,3.28-1.5,1.07-3.57,2.15-5.79,2.15ZM9.41,40.141c1.88-1.87,4.19-3.19,6.72-3.85,3.07,2.99,7.25,4.85,11.87,4.85h1.48c-5.88,4.8-14.58,4.47-20.07-1ZM32,50.801c-1.03-.99-3-3.19-3-5.66,0-.43.08-.88.2-1.34.99-.64,1.93-1.38,2.8-2.25.87.87,1.81,1.61,2.8,2.25.12.46.2.91.2,1.34,0,2.47-1.97,4.67-3,5.66ZM42,50.571c-2.22,0-4.29-1.08-5.79-2.15.47-.99.79-2.1.79-3.28,0-.05-.01-.11-.01-.16,2.22,1,4.61,1.53,7.01,1.53,2.1,0,4.2-.4,6.19-1.17.18.18.35.36.49.51-1.29,1.41-4.75,4.72-8.68,4.72ZM34.52,41.141h1.48c4.62,0,8.8-1.86,11.87-4.85,2.53.66,4.84,1.98,6.72,3.85-5.49,5.47-14.19,5.8-20.07,1Z"/>
</svg>