<?xml version="1.0" encoding="UTF-8"?>
<svg id="Outline" xmlns="http://www.w3.org/2000/svg" version="1.1" viewBox="0 0 64 64">
  <!-- Generator: Adobe Illustrator 29.5.1, SVG Export Plug-In . SVG Version: 2.1.0 Build 141)  -->
  <path d="M56.71,36.941l-.69-.69c-1.33-1.33-2.87-2.42-4.53-3.23,2.77-.92,4.91-3.25,5.49-6.18.11-.54-.24-1.07-.78-1.18-.55-.1-1.07.25-1.18.79-.51,2.53-2.54,4.48-5.08,4.9,1.92-2.76,3.06-6.1,3.06-9.71v-4c0-.55-.45-1-1-1h-4c-2.88,0-5.68.73-8.17,2.1-.77-2.66-2.2-5.17-4.29-7.26l-2.83-2.83c-.39-.39-1.03-.39-1.42,0l-2.83,2.83c-2.09,2.09-3.52,4.6-4.29,7.26-2.49-1.37-5.29-2.1-8.17-2.1h-4c-.55,0-1,.45-1,1v4c0,3.61,1.14,6.95,3.06,9.71-2.54-.42-4.57-2.37-5.08-4.9-.11-.54-.63-.9-1.18-.79-.54.11-.89.64-.78,1.18.58,2.93,2.72,5.26,5.49,6.18-1.66.81-3.2,1.9-4.53,3.23l-.69.69c-.39.39-.39,1.02,0,1.41l.69.69c.72.72,1.5,1.35,2.3,1.91-.84,1.17-1.28,2.41-1.28,3.69,0,6.17,10.1,11,23,11s23-4.83,23-11c0-1.28-.44-2.52-1.28-3.69.8-.56,1.58-1.19,2.3-1.91l.69-.69c.39-.39.39-1.02,0-1.41ZM40.27,20.791c2.33-1.4,4.99-2.15,7.73-2.15h3v3c0,8.28-6.73,15-15,15h-1.59l1.13-1.12c4-4,5.57-9.52,4.73-14.73ZM29.88,12.901l2.12-2.13,2.12,2.13c5.85,5.84,5.85,15.36,0,21.21l-2.12,2.12-2.12-2.12c-5.85-5.85-5.85-15.37,0-21.21ZM44,44.011c1.32,0,2.64-.17,3.93-.48.79.6,1.05,1.03,1.07,1.08-.25,1.17-6.05,5.03-17,5.03s-16.75-3.86-17-4.96c.02-.12.28-.55,1.07-1.15,1.29.31,2.61.48,3.93.48,4.34,0,8.69-1.65,12-4.95,3.31,3.3,7.66,4.95,12,4.95ZM13,21.641v-3h3c2.74,0,5.4.75,7.73,2.15-.84,5.21.73,10.73,4.73,14.73l1.13,1.12h-1.59c-8.27,0-15-6.72-15-15ZM9.41,37.641c1.88-1.86,4.19-3.18,6.72-3.85,3.07,3,7.25,4.85,11.87,4.85h1.48c-5.88,4.81-14.58,4.47-20.07-1ZM32,53.641c-11.38,0-21-4.12-21-9,0-.89.35-1.77.99-2.63.61.32,1.23.6,1.86.84-.49.54-.85,1.15-.85,1.79,0,2.86,7.4,7,19,7s19-4.14,19-7c0-.64-.36-1.25-.85-1.79.63-.24,1.25-.52,1.86-.84.64.86.99,1.74.99,2.63,0,4.88-9.62,9-21,9ZM34.52,38.641h1.48c4.62,0,8.8-1.85,11.87-4.85,2.53.67,4.84,1.99,6.72,3.85-5.49,5.47-14.19,5.81-20.07,1Z"/>
</svg>