<?xml version="1.0" encoding="UTF-8"?>
<svg id="Outline" xmlns="http://www.w3.org/2000/svg" version="1.1" viewBox="0 0 64 64">
  <!-- Generator: Adobe Illustrator 29.5.1, SVG Export Plug-In . SVG Version: 2.1.0 Build 141)  -->
  <path d="M32,7c-13.785,0-25,11.215-25,25s11.215,25,25,25,25-11.215,25-25S45.785,7,32,7ZM49.26,37.987c-.077-.067-.151-.14-.23-.204.619-1.818.971-3.758.971-5.783,0-2.105-.382-4.118-1.049-5.997.017,0,.033-.003.049-.003,3.309,0,6,2.691,6,6,0,3.217-2.547,5.843-5.74,5.987ZM50.828,24.201c.779-1.23,1.101-2.546.969-3.889,1.093,1.844,1.939,3.85,2.484,5.977-.859-1.055-2.023-1.767-3.453-2.088ZM48.422,24.03c-.099.007-.2.008-.298.019-1.788-3.61-4.745-6.531-8.381-8.273.012-.013.023-.026.035-.039,2.306-2.306,6.029-2.328,8.376-.089.067.066.133.132.199.199,2.177,2.283,2.2,5.86.069,8.184ZM39.799,13.172c-.321-1.431-1.033-2.595-2.088-3.453,2.127.545,4.133,1.391,5.977,2.484-1.343-.131-2.659.19-3.889.969ZM37.987,14.74c-.067.077-.14.151-.204.23-1.818-.619-3.758-.971-5.783-.971-2.061,0-4.088.351-5.999,1.025,0-.009-.001-.017-.001-.025,0-3.309,2.691-6,6-6,3.217,0,5.843,2.547,5.987,5.74ZM24.201,13.172c-1.23-.779-2.546-1.101-3.889-.969,1.844-1.093,3.85-1.939,5.977-2.484-1.055.859-1.767,2.023-2.088,3.453ZM15.846,15.647c2.283-2.177,5.86-2.199,8.184-.069.007.093.006.188.016.279-.493.244-.98.502-1.45.791-.47.29-.617.906-.327,1.376.29.47.906.617,1.376.327,2.497-1.539,5.386-2.352,8.355-2.352,8.822,0,16,7.178,16,16s-7.178,16-16,16-16-7.178-16-16c0-2.97.813-5.859,2.352-8.355.29-.47.143-1.086-.327-1.376-.47-.29-1.086-.143-1.376.327-.328.533-.618,1.086-.887,1.649-.008-.008-.017-.015-.025-.023-2.306-2.306-2.328-6.029-.089-8.376.066-.067.132-.133.199-.199ZM13.172,24.201c-1.431.321-2.595,1.033-3.453,2.088.545-2.127,1.391-4.133,2.484-5.977-.131,1.343.19,2.659.969,3.889ZM14.74,26.013c.073.064.144.135.219.195-.627,1.851-.959,3.804-.959,5.792,0,2.105.382,4.118,1.049,5.997-.017,0-.033.003-.049.003-3.309,0-6-2.691-6-6,0-3.217,2.547-5.843,5.74-5.987ZM13.172,39.799c-.779,1.23-1.101,2.546-.969,3.889-1.093-1.844-1.939-3.85-2.484-5.977.859,1.055,2.023,1.767,3.453,2.088ZM15.578,39.97c.099-.007.2-.008.298-.019,1.788,3.61,4.745,6.531,8.381,8.273-.012.013-.023.026-.035.039-2.306,2.306-6.03,2.328-8.377.089-.066-.066-.132-.131-.198-.198-2.178-2.283-2.2-5.86-.07-8.184ZM24.201,50.828c.321,1.431,1.033,2.595,2.088,3.453-2.127-.545-4.133-1.391-5.977-2.484,1.343.131,2.659-.19,3.889-.969ZM26.013,49.26c.067-.077.14-.151.204-.23,1.818.619,3.758.971,5.783.971,2.105,0,4.118-.382,5.997-1.049,0,.017.003.033.003.049,0,3.309-2.691,6-6,6-3.217,0-5.843-2.547-5.987-5.74ZM39.799,50.828c1.23.779,2.546,1.101,3.889.969-1.844,1.093-3.85,1.939-5.977,2.484,1.055-.859,1.767-2.023,2.088-3.453ZM48.154,48.353c-2.283,2.178-5.86,2.2-8.184.07-.007-.099-.008-.2-.019-.298,3.61-1.788,6.531-4.745,8.273-8.381.013.012.026.022.039.035,2.306,2.306,2.328,6.03.089,8.377-.066.066-.131.132-.198.198ZM50.828,39.799c1.431-.321,2.595-1.033,3.453-2.088-.545,2.127-1.391,4.133-2.484,5.977.131-1.343-.19-2.659-.969-3.889Z"/>
  <path d="M20.833,38.838c.632.351,1.075.959,1.219,1.701.444,2.279,2.601,3.843,4.933,3.557.717-.087,1.433.145,1.985.66.847.788,1.932,1.184,3.021,1.184,1.097,0,2.197-.401,3.061-1.206.53-.493,1.245-.725,1.994-.634,2.304.286,4.458-1.282,4.908-3.593.138-.709.581-1.318,1.241-1.684,2.029-1.127,2.852-3.658,1.859-5.791-.306-.656-.306-1.408.014-2.093.979-2.104.157-4.635-1.9-5.777-.632-.351-1.075-.959-1.219-1.701-.444-2.279-2.599-3.84-4.933-3.557-.714.09-1.433-.144-1.96-.636l-.023-.021s-.001,0-.002-.002c-1.699-1.582-4.359-1.582-6.082.022-.529.493-1.241.726-1.994.634-2.302-.277-4.457,1.282-4.908,3.593-.138.709-.581,1.318-1.241,1.684-2.029,1.127-2.852,3.658-1.859,5.791.306.656.306,1.408-.014,2.093-.979,2.104-.157,4.635,1.9,5.777ZM21.804,26.911c1.15-.639,1.954-1.745,2.211-3.067.244-1.254,1.427-2.112,2.727-1.955,1.308.159,2.606-.263,3.592-1.181.934-.87,2.398-.87,3.332,0l.023.021c.962.897,2.26,1.319,3.601,1.156,1.27-.151,2.452.705,2.702,1.989.251,1.291,1.055,2.397,2.233,3.051,1.116.62,1.568,2.011,1.016,3.198-.555,1.192-.555,2.56.014,3.781.539,1.158.086,2.549-1.058,3.184-1.15.639-1.954,1.745-2.211,3.067-.244,1.253-1.428,2.111-2.727,1.955-1.308-.159-2.606.263-3.592,1.181-.934.871-2.397.87-3.355-.021-.826-.77-1.902-1.191-3.036-1.191-.187,0-.375.012-.564.035-1.266.161-2.451-.705-2.702-1.989-.251-1.291-1.055-2.397-2.233-3.051-1.116-.62-1.568-2.011-1.016-3.198.555-1.192.555-2.56-.014-3.781-.539-1.158-.086-2.549,1.058-3.184Z"/>
  <path d="M28,35c.361,0,.718-.022,1.065-.065-.043.348-.065.705-.065,1.065,0,2.851,1.29,5,3,5s3-2.149,3-5c0-.361-.022-.718-.065-1.065.348.043.705.065,1.065.065,2.851,0,5-1.29,5-3s-2.149-3-5-3c-.361,0-.718.022-1.065.065.043-.348.065-.705.065-1.065,0-2.851-1.29-5-3-5s-3,2.149-3,5c0,.361.022.718.065,1.065-.348-.043-.705-.065-1.065-.065-2.851,0-5,1.29-5,3s2.149,3,5,3ZM28,31c.749,0,1.46.121,2.058.35.369.141.785.053,1.064-.227s.368-.696.227-1.064c-.229-.6-.35-1.312-.35-2.059,0-1.936.751-3,1-3s1,1.064,1,3c0,.748-.121,1.459-.35,2.059-.141.368-.052.785.227,1.064.28.279.696.368,1.064.227.598-.229,1.31-.35,2.058-.35,1.936,0,3,.751,3,1s-1.064,1-3,1c-.748,0-1.459-.121-2.059-.35-.366-.141-.785-.052-1.063.227-.279.279-.368.695-.227,1.063.229.6.35,1.312.35,2.059,0,1.936-.751,3-1,3s-1-1.064-1-3c0-.748.121-1.459.35-2.059.141-.368.052-.785-.227-1.063-.191-.191-.447-.293-.707-.293-.12,0-.241.021-.356.066-.6.229-1.312.35-2.059.35-1.936,0-3-.751-3-1s1.064-1,3-1Z"/>
  <path d="M20.686,20.686c.391-.391.391-1.024,0-1.414s-1.024-.391-1.414,0-.391,1.024,0,1.414c.391.391,1.024.391,1.414,0Z"/>
</svg>