<?xml version="1.0" encoding="UTF-8"?>
<svg id="Outline" xmlns="http://www.w3.org/2000/svg" version="1.1" viewBox="0 0 64 64">
  <!-- Generator: Adobe Illustrator 29.5.1, SVG Export Plug-In . SVG Version: 2.1.0 Build 141)  -->
  <path d="M56.71002,39.93123l-.69-.69c-1.33002-1.33002-2.87-2.40997-4.53003-3.22998,2.77002-.91003,4.90002-3.25,5.48999-6.16998.11005-.55005-.23999-1.07001-.77997-1.18005-.54999-.10999-1.07001.24005-1.17999.78003-.51001,2.53998-2.54004,4.47998-5.08002,4.90002,1.91998-2.75,3.06-6.09003,3.06-9.70001v-4c0-.54999-.45001-1-1-1h-4c-2.88,0-5.67999.71997-8.16998,2.08997-.78003-2.64996-2.20001-5.15997-4.29004-7.25l-2.82996-2.82996c-.39001-.39001-1.03003-.39001-1.42004,0l-2.82996,2.82996c-2.09003,2.09003-3.51001,4.60004-4.29004,7.25-2.48999-1.37-5.28998-2.08997-8.16998-2.08997h-4c-.54999,0-1,.45001-1,1v4c0,3.60999,1.14001,6.95001,3.06,9.70001-2.53998-.42004-4.57001-2.36005-5.08002-4.90002-.10999-.53998-.63-.89001-1.17999-.78003-.53998.11005-.89001.63-.77997,1.18005.58997,2.91998,2.71997,5.25995,5.48999,6.16998-1.66003.82001-3.20001,1.89996-4.53003,3.22998l-.69.69c-.38995.39001-.38995,1.03003,0,1.41998l.69.69c3.32001,3.31,7.67004,4.97003,12.02002,4.97003,2.44,0,4.87-.54004,7.13-1.59003.32001,2.11005,1.28998,4.06,2.83002,5.59003l1.32996,1.33997c.20001.19.45001.29004.71002.29004s.51001-.10004.71002-.29004l1.32996-1.33997c1.54004-1.53003,2.51001-3.47998,2.83002-5.59003,2.26001,1.04999,4.69,1.59003,7.13,1.59003,4.34998,0,8.70001-1.66003,12.02002-4.97003l.69-.69c.38995-.38995.38995-1.02997,0-1.41998ZM40.27002,23.79121c2.32996-1.39996,4.98999-2.14996,7.72998-2.14996h3v3c0,8.26996-6.72998,15-15,15h-1.59003l1.13-1.12c4-4,5.57001-9.52002,4.73004-14.73004ZM29.88,15.89125l2.12-2.12,2.12,2.12c5.84998,5.84998,5.84998,15.37,0,21.20996l-2.12,2.13-2.12-2.13c-5.84998-5.83997-5.84998-15.35999,0-21.20996ZM13,24.64125v-3h3c2.73999,0,5.40002.75,7.72998,2.14996-.83997,5.21002.73004,10.73004,4.73004,14.73004l1.13,1.12h-1.59003c-8.27002,0-15-6.73004-15-15ZM9.40997,40.64125c1.88-1.87,4.19-3.19,6.72003-3.85004,3.07001,2.99005,7.25,4.85004,11.87,4.85004h1.47998c-5.88,4.79999-14.57996,4.46997-20.07001-1ZM32.63,49.60121l-.63.63-.63-.63c-1.40002-1.39996-2.21997-3.22998-2.33997-5.19995,1.04999-.66003,2.04999-1.43005,2.96997-2.35004.91998.91998,1.91998,1.69,2.96997,2.35004-.12,1.96997-.93994,3.79999-2.33997,5.19995ZM34.52002,41.64125h1.47998c4.62,0,8.79999-1.85999,11.87-4.85004,2.53003.66003,4.84003,1.98004,6.72003,3.85004-5.49005,5.46997-14.19,5.79999-20.07001,1Z"/>
</svg>