<?xml version="1.0" encoding="UTF-8"?>
<svg id="Outline" xmlns="http://www.w3.org/2000/svg" version="1.1" viewBox="0 0 64 64">
  <!-- Generator: Adobe Illustrator 29.5.1, SVG Export Plug-In . SVG Version: 2.1.0 Build 141)  -->
  <path d="M32,23c-.553,0-1,.447-1,1v32c0,.553.447,1,1,1s1-.447,1-1V24c0-.553-.447-1-1-1Z"/>
  <path d="M32,11c.553,0,1-.447,1-1v-2c0-.553-.447-1-1-1s-1,.447-1,1v2c0,.553.447,1,1,1Z"/>
  <path d="M26.343,12.757c.371.371,1.021.393,1.414,0,.391-.391.391-1.023,0-1.414l-1.414-1.414c-.391-.391-1.023-.391-1.414,0s-.391,1.023,0,1.414c0,0,1.411,1.411,1.414,1.414Z"/>
  <path d="M23,18h2c.553,0,1-.447,1-1s-.447-1-1-1h-2c-.553,0-1,.447-1,1s.447,1,1,1Z"/>
  <path d="M26.343,21.243l-1.414,1.414c-.391.391-.391,1.023,0,1.414.37.37,1.023.391,1.414,0l1.414-1.414c.391-.391.391-1.023,0-1.414s-1.023-.391-1.414,0Z"/>
  <path d="M36.95,13.039c.256,0,.515-.091.706-.282.532-.531,1.582-1.153,1.653-1.989.075-.886-.923-1.569-1.652-.84l-1.414,1.414c-.61.61-.148,1.694.707,1.697Z"/>
  <path d="M38,17c0,.553.447,1,1,1h2c.553,0,1-.447,1-1s-.447-1-1-1h-2c-.553,0-1,.447-1,1Z"/>
  <path d="M36.243,21.243c-.391.391-.391,1.023,0,1.414l1.414,1.414c.364.364,1.012.402,1.414,0,.391-.391.391-1.023,0-1.414l-1.414-1.414c-.391-.391-1.023-.391-1.414,0Z"/>
  <path d="M28.574,17.988l2.719,2.719c.195.195.451.293.707.293s.512-.098.707-.293l2.719-2.719c1.14-1.139,1.14-2.993,0-4.132-.925-.925-2.324-1.1-3.426-.521-1.102-.579-2.5-.404-3.426.521-1.14,1.139-1.14,2.993,0,4.132ZM29.988,15.271c.18-.18.416-.27.652-.27s.473.09.652.27c.391.391,1.023.391,1.414,0,.359-.359.945-.359,1.305,0s.359.944,0,1.304l-2.012,2.012-2.012-2.012c-.359-.359-.359-.944,0-1.304Z"/>
  <path d="M18.884,26.804v-6.354c0-2.39-1.944-4.334-4.334-4.334-2.079,0-3.821,1.472-4.238,3.429-1.956.418-3.428,2.159-3.428,4.238,0,2.39,1.943,4.333,4.333,4.333h6.145c5.034,6.894,8.2,15,9.143,23.488l.501,4.506c.057.512.49.89.993.89.037,0,.074-.002.111-.006.549-.062.944-.556.884-1.104l-.501-4.506c-.987-8.889-4.314-17.377-9.609-24.58ZM16.884,26.116h-5.667c-1.286,0-2.333-1.047-2.333-2.333s1.047-2.333,2.333-2.333c.553,0,1-.447,1-1,0-1.287,1.047-2.334,2.333-2.334s2.334,1.047,2.334,2.334v5.666Z"/>
  <path d="M53.688,19.545c-.417-1.957-2.159-3.429-4.238-3.429-2.39,0-4.334,1.944-4.334,4.334v6.354c-5.295,7.203-8.622,15.691-9.609,24.58l-.501,4.506c-.061.549.335,1.043.884,1.104.037.004.074.006.111.006.503,0,.937-.378.993-.89l.501-4.506c.943-8.488,4.109-16.594,9.143-23.488h6.145c2.39,0,4.333-1.943,4.333-4.333,0-2.079-1.472-3.82-3.428-4.238ZM52.783,26.116h-5.667v-5.666c0-1.287,1.047-2.334,2.334-2.334s2.333,1.047,2.333,2.334c0,.553.447,1,1,1,1.286,0,2.333,1.047,2.333,2.333s-1.047,2.333-2.333,2.333Z"/>
</svg>