<?xml version="1.0" encoding="UTF-8"?>
<svg id="Outline" xmlns="http://www.w3.org/2000/svg" version="1.1" viewBox="0 0 48 48">
  <!-- Generator: Adobe Illustrator 29.5.1, SVG Export Plug-In . SVG Version: 2.1.0 Build 141)  -->
  <path d="M27,5h-6c-7.95,0-16,2.06-16,6,0,.98.54,2.38,3,3.62v14.14c-1.83,1.47-3,3.72-3,6.24,0,4.41,3.59,8,8,8s8-3.59,8-8h18c.55,0,1-.45,1-1V14.62c2.46-1.25,3-2.64,3-3.62,0-3.94-8.05-6-16-6ZM13,41c-3.31,0-6-2.69-6-6s2.69-6,6-6,6,2.69,6,6-2.69,6-6,6ZM32,13.99v19.01h-11.26c-.89-3.44-4.02-6-7.74-6-1.06,0-2.07.21-3,.59v-13.6c0-.4-.23-.75-.6-.91-1.77-.79-2.4-1.59-2.4-2.08,0-1.63,5.45-4,14-4s14,2.37,14,4c0,.49-.63,1.29-2.4,2.08-.37.16-.6.51-.6.91ZM38.59,13.08c-.36.16-.59.52-.59.91v19.01h-4V14.62c2.46-1.24,3-2.64,3-3.62,0-1.3-.89-2.39-2.35-3.27,4.01.83,6.35,2.2,6.35,3.27,0,.62-.92,1.42-2.41,2.08Z"/>
  <path d="M14.293,35.293l-.293.293v-3.586c0-.553-.447-1-1-1s-1,.447-1,1v3.586l-.293-.293c-.391-.391-1.023-.391-1.414,0s-.391,1.023,0,1.414l2,2c.195.195.451.293.707.293s.512-.098.707-.293l2-2c.391-.391.391-1.023,0-1.414s-1.023-.391-1.414,0Z"/>
</svg>