<?xml version="1.0" encoding="UTF-8"?>
<svg id="Outline" xmlns="http://www.w3.org/2000/svg" version="1.1" viewBox="0 0 64 64">
  <!-- Generator: Adobe Illustrator 29.5.1, SVG Export Plug-In . SVG Version: 2.1.0 Build 141)  -->
  <path d="M56,22c.55,0,1-.45,1-1v-5c0-1.65-1.35-3-3-3h-8v-1c0-1.65-1.35-3-3-3h-22c-1.65,0-3,1.35-3,3v1h-8c-1.65,0-3,1.35-3,3v32c0,1.65,1.35,3,3,3h8v1c0,1.65,1.35,3,3,3h22c1.65,0,3-1.35,3-3v-1h8c1.65,0,3-1.35,3-3v-19c0-.55-.45-1-1-1s-1,.45-1,1v19c0,.55-.45,1-1,1H10c-.55,0-1-.45-1-1V16c0-.55.45-1,1-1h44c.55,0,1,.45,1,1v5c0,.55.45,1,1,1ZM20,51h24v1c0,.55-.45,1-1,1h-22c-.55,0-1-.45-1-1v-1ZM44,13h-24v-1c0-.55.45-1,1-1h22c.55,0,1,.45,1,1v1Z"/>
  <path d="M36,17H12c-.55,0-1,.45-1,1v28c0,.55.45,1,1,1h24c.55,0,1-.45,1-1v-28c0-.55-.45-1-1-1ZM35,45H13v-26h22v26Z"/>
  <path d="M52,33h-12c-.553,0-1,.447-1,1v12c0,.553.447,1,1,1h12c.553,0,1-.447,1-1v-12c0-.553-.447-1-1-1ZM51,45h-10v-10h10v10Z"/>
  <path d="M53,18c0-.553-.447-1-1-1h-12c-.553,0-1,.447-1,1v12c0,.553.447,1,1,1h12c.553,0,1-.447,1-1v-12ZM51,29h-10v-10h10v10Z"/>
  <path d="M46,27c1.654,0,3-1.346,3-3s-1.346-3-3-3-3,1.346-3,3,1.346,3,3,3ZM46,23c.552,0,1,.448,1,1s-.448,1-1,1-1-.448-1-1,.448-1,1-1Z"/>
  <path d="M44.447,38.895c.973-.486,2.133-.486,3.105,0,.144.071.296.105.446.105.367,0,.72-.202.896-.553.247-.494.047-1.095-.447-1.342-1.531-.766-3.363-.766-4.895,0-.494.247-.694.848-.447,1.342.248.494.848.693,1.342.447Z"/>
  <path d="M44.447,43.366c.973-.486,2.133-.486,3.105,0,.143.071.296.105.446.105,1.022,0,1.368-1.435.449-1.895-1.533-.766-3.361-.766-4.895,0-.494.247-.694.848-.447,1.342s.848.693,1.342.447Z"/>
  <path d="M22,43c1.901,0,3.69-.761,5.005-2.109,3.142.686,5.995-1.804,5.995-4.891s-2.854-5.575-5.995-4.891c-1.314-1.349-3.104-2.109-5.005-2.109-3.859,0-7,3.141-7,7s3.141,7,7,7ZM22,31c1.52,0,2.938.682,3.895,1.869.266.33.712.454,1.11.316.356-.125.682-.186.995-.186,1.654,0,3,1.346,3,3s-1.346,3-3,3c-.313,0-.639-.061-.995-.186-.396-.14-.844-.014-1.11.316-.956,1.188-2.375,1.869-3.895,1.869-2.757,0-5-2.243-5-5s2.243-5,5-5Z"/>
  <path d="M22,39c1.654,0,3-1.346,3-3s-1.346-3-3-3-3,1.346-3,3,1.346,3,3,3ZM22,35c.552,0,1,.448,1,1s-.448,1-1,1-1-.448-1-1,.448-1,1-1Z"/>
  <path d="M32,21h-16c-.55,0-1,.45-1,1,0,2.76,2.24,5,5,5,1.64,0,3.09-.81,4-2.03.91,1.22,2.36,2.03,4,2.03,2.76,0,5-2.24,5-5,0-.55-.45-1-1-1ZM20,25c-1.3,0-2.42-.84-2.83-2h5.66c-.41,1.16-1.53,2-2.83,2ZM28,25c-1.3,0-2.42-.84-2.83-2h5.66c-.41,1.16-1.53,2-2.83,2Z"/>
  <circle cx="56" cy="25" r="1"/>
</svg>