<?xml version="1.0" encoding="UTF-8"?>
<svg id="Outline" xmlns="http://www.w3.org/2000/svg" version="1.1" viewBox="0 0 64 64">
  <!-- Generator: Adobe Illustrator 29.5.1, SVG Export Plug-In . SVG Version: 2.1.0 Build 141)  -->
  <path d="M54.98,39.18c.01-.06.02-.12.02-.18,0-2.25-1.88-4.06-4.13-4-.44-1.72-2.01-3-3.87-3-1.9,0-3.49,1.33-3.9,3.1-.29.07-.57.17-.84.3-1.28-1.47-3.16-2.4-5.26-2.4-1.44,0-2.83.45-4,1.27-1.13-.8-2.51-1.27-4-1.27-1.54,0-3.01.51-4.23,1.43-.01,0-.02-.02-.03-.02,1.16-2,1.2-4.05.01-5.25-.88-.88-2.26-1.09-3.76-.65-.14-3.16-1.84-5.57-3.99-5.57s-3.85,2.42-3.99,5.58c-1.51-.46-2.9-.25-3.78.64-1.21,1.2-1.18,3.24,0,5.25-.41.25-.73.59-.97,1-.64,1.13-.45,2.55.43,3.91-1,.48-1.69,1.5-1.69,2.68,0,1.35.9,2.48,2.13,2.86l1.61,9.63c.24,1.46,1.48,2.51,2.95,2.51h36.62c1.47,0,2.71-1.05,2.95-2.51l1.61-9.63c1.23-.38,2.13-1.51,2.13-2.86,0-1.31-.85-2.41-2.02-2.82ZM44,37c.55,0,1-.45,1-1,0-1.1.9-2,2-2s2,.9,2,1.95c-.01.05-.02.19-.02.24,0,.33.16.64.43.82.27.19.62.23.92.12,1.35-.51,2.67.54,2.67,1.87h-9.08c-.1-.67-.28-1.3-.55-1.89.2-.07.41-.11.63-.11ZM37,35c2.41,0,4.43,1.72,4.9,4h-5.98c-.18-1.24-.68-2.37-1.42-3.32.75-.44,1.61-.68,2.5-.68ZM25.97,36.06c.87-.68,1.92-1.06,3.03-1.06,2.41,0,4.43,1.72,4.9,4h-8.44c.57-1.01.76-2.04.51-2.94ZM9.99,36.4c.2-.34.64-.48.97-.55.34-.06.63-.31.75-.64.12-.33.06-.7-.17-.97-1.26-1.56-1.46-3.12-.9-3.66.51-.51,1.71-.36,2.93.38.33.19.75.19,1.07-.02.32-.22.49-.59.44-.97-.05-.42-.08-.73-.08-1.03,0-2.29,1.06-4,2-4s2,1.71,2,4c0,.33-.03.66-.08.98-.06.38.11.77.43.99.32.22.74.23,1.07.03,1.21-.72,2.41-.87,2.91-.36.55.54.36,2.1-.91,3.66-.22.27-.28.64-.16.97.12.33.41.58.75.64.33.06.76.21.95.55.35.6-.07,1.65-.99,2.6h-4.62l2.36-2.36c.39-.39.39-1.02,0-1.41-.39-.39-1.03-.39-1.42,0l-1.29,1.29v-3.58c0-.56-.45-1-1-1s-1,.44-1,1v3.58l-1.29-1.29c-.39-.39-1.03-.39-1.42,0-.39.39-.39,1.02,0,1.41l2.36,2.36h-4.66c-.91-.94-1.33-2-1-2.6ZM51.29,54.17c-.08.48-.49.83-.98.83h-.31v-3c0-1.65-1.35-3-3-3h-19c-.55,0-1,.45-1,1s.45,1,1,1h19c.55,0,1,.45,1,1v3H16v-3c0-.55.45-1,1-1h3c.55,0,1-.45,1-1s-.45-1-1-1h-3c-1.65,0-3,1.35-3,3v3h-.31c-.49,0-.9-.35-.98-.83l-1.53-9.17h41.64l-1.53,9.17ZM54,43H10c-.55,0-1-.45-1-1s.45-1,1-1h44c.55,0,1,.45,1,1s-.45,1-1,1Z"/>
  <path d="M38.324,30.757c.39.006.779-.024,1.157-.087,1.806-.302,3.609-1.275,5.078-2.744,1.988-1.987,2.961-4.51,2.804-6.686l8.364-7.534c.792-.714,1.243-1.693,1.271-2.759.027-1.064-.372-2.066-1.126-2.82s-1.789-1.155-2.82-1.126c-1.065.028-2.045.479-2.759,1.271l-7.534,8.364c-2.175-.157-4.698.817-6.686,2.804-1.469,1.469-2.442,3.272-2.744,5.078-.321,1.931.15,3.643,1.33,4.821.959.958,2.318,1.397,3.664,1.417ZM51.78,9.611c.343-.38.812-.597,1.324-.61.514.005.992.179,1.354.541s.554.843.541,1.354c-.014.512-.23.981-.61,1.324l-7.63,6.873c-.209-.388-.468-.748-.786-1.066s-.678-.577-1.066-.786l6.873-7.63ZM35.303,24.848c.233-1.398,1.01-2.816,2.186-3.993,1.453-1.453,3.282-2.247,4.818-2.247.894,0,1.688.27,2.253.833,1.532,1.534.885,4.772-1.414,7.071-1.177,1.176-2.595,1.952-3.993,2.186-1.273.213-2.367-.062-3.078-.771-.71-.71-.983-1.803-.771-3.078Z"/>
  <circle cx="24" cy="50" r="1"/>
</svg>