<?xml version="1.0" encoding="UTF-8"?>
<svg id="Outline" xmlns="http://www.w3.org/2000/svg" version="1.1" viewBox="0 0 64 64">
  <!-- Generator: Adobe Illustrator 29.5.1, SVG Export Plug-In . SVG Version: 2.1.0 Build 141)  -->
  <path d="M52,33h-21V12c0-.55-.45-1-1-1-12.68,0-23,10.32-23,23s10.32,23,23,23,23-10.32,23-23c0-.55-.45-1-1-1ZM30,55c-11.58,0-21-9.42-21-21,0-11.24,8.88-20.45,20-20.98v20.98c0,.55.45,1,1,1h20.98c-.53,11.12-9.74,20-20.98,20Z"/>
  <path d="M34,7c-.552,0-1,.448-1,1v6c0,.552.448,1,1,1s1-.448,1-1v-4.977c10.786.508,19.469,9.19,19.977,19.977h-19.977v-7c0-.552-.448-1-1-1s-1,.448-1,1v8c0,.552.448,1,1,1h22c.552,0,1-.448,1-1,0-12.682-10.318-23-23-23Z"/>
  <path d="M27.04,32.83c0-2.066-1.297-3.893-3.177-4.603-.333-2.385-2.387-4.227-4.863-4.227-2.454,0-4.493,1.81-4.854,4.224-1.885.708-3.187,2.537-3.187,4.606,0,1.619.814,3.116,2.112,4.02-.36.691-.552,1.458-.552,2.24,0,2.708,2.203,4.91,4.91,4.91.537,0,1.063-.087,1.57-.259.507.172,1.033.259,1.57.259,2.708,0,4.91-2.203,4.91-4.91,0-.783-.192-1.549-.552-2.24,1.298-.904,2.112-2.4,2.112-4.02ZM23.125,35.551c-.312.114-.546.376-.626.698-.08.322.005.663.227.91.344.383.754,1.028.754,1.931,0,1.604-1.306,2.91-2.91,2.91-.193,0-.383-.022-.57-.059v-5.527l2.707-2.707c.391-.391.391-1.023,0-1.414s-1.023-.391-1.414,0l-1.293,1.293v-3.586c0-.552-.448-1-1-1s-1,.448-1,1v3.586l-1.293-1.293c-.391-.391-1.023-.391-1.414,0s-.391,1.023,0,1.414l2.707,2.707v5.527c-.187.038-.377.059-.57.059-1.604,0-2.91-1.306-2.91-2.91,0-.903.41-1.548.754-1.931.222-.247.307-.587.227-.91-.08-.322-.315-.583-.626-.698-1.145-.42-1.915-1.514-1.915-2.721,0-1.384.979-2.587,2.328-2.86.466-.094.802-.584.802-1.06,0-1.604,1.306-2.91,2.91-2.91s2.91,1.306,2.91,2.99c0,.476.335.886.802.98,1.349.273,2.328,1.476,2.328,2.86,0,1.208-.77,2.301-1.915,2.721Z"/>
  <circle cx="34" cy="18" r="1"/>
</svg>