<?xml version="1.0" encoding="UTF-8"?>
<svg id="Outline" xmlns="http://www.w3.org/2000/svg" version="1.1" viewBox="0 0 64 64">
  <!-- Generator: Adobe Illustrator 29.5.1, SVG Export Plug-In . SVG Version: 2.1.0 Build 141)  -->
  <path d="M37.707,41.793c-1.17-1.17-3.072-1.17-4.242,0l-2.465,2.464-.465-.464c-1.17-1.17-3.072-1.169-4.242,0-.566.567-.879,1.32-.879,2.122s.312,1.555.879,2.121l1.879,1.879c.755.756,1.76,1.172,2.828,1.172s2.073-.416,2.828-1.172l3.879-3.878c.566-.567.879-1.32.879-2.122s-.312-1.555-.879-2.121ZM36.293,44.621l-3.879,3.879c-.756.756-2.072.756-2.828,0l-1.879-1.879c-.189-.188-.293-.439-.293-.707s.104-.518.293-.707.44-.293.707-.293.518.104.707.293l1.172,1.171c.391.391,1.023.391,1.414,0l3.172-3.171c.391-.39,1.023-.39,1.414,0,.189.188.293.439.293.707s-.104.518-.293.707Z"/>
  <path d="M56.625,45.219l-5-4c-.301-.241-.714-.287-1.059-.121-.346.167-.566.517-.566.901v1h-2c-.553,0-1,.448-1,1s.447,1,1,1h3c.526,0,.957-.406.997-.922l2.402,1.922-2.402,1.922c-.04-.516-.471-.922-.997-.922h-8.051c.03-.33.051-.662.051-1s-.021-.67-.051-1h1.051c.553,0,1-.448,1-1s-.447-1-1-1h-1.426c-1.31-4.61-5.549-8-10.574-8s-9.263,3.39-10.574,8h-7.426v-1c0-.384-.221-.735-.566-.901-.349-.166-.759-.12-1.059.121l-5,4c-.237.189-.375.477-.375.781s.138.591.375.781l5,4c.181.145.402.219.625.219.548,0,1-.45,1-1v-1h7.426c1.31,4.61,5.549,8,10.574,8s9.263-3.39,10.574-8h7.426s0,1,0,1c0,.823.985,1.293,1.625.781l5-4c.237-.189.375-.477.375-.781s-.138-.591-.375-.781ZM13,47c-.526,0-.957.406-.997.922l-2.402-1.922,2.402-1.922c.04.516.471.922.997.922h8.051c-.03.33-.051.662-.051,1s.021.67.051,1h-8.051ZM32,55c-4.963,0-9-4.038-9-9s4.037-9,9-9,9,4.038,9,9-4.037,9-9,9Z"/>
  <path d="M40,31c5.514,0,10-4.486,10-10,0-1.701-.438-3.381-1.268-4.859-.271-.483-.882-.653-1.361-.383-.481.27-.653.88-.383,1.361.662,1.18,1.012,2.522,1.012,3.881,0,4.411-3.589,8-8,8s-8-3.589-8-8,3.589-8,8-8c1.655,0,3.246.507,4.602,1.466.453.32,1.074.212,1.395-.239.319-.451.212-1.075-.238-1.394-1.695-1.199-3.687-1.833-5.758-1.833-5.514,0-10,4.486-10,10s4.486,10,10,10Z"/>
  <path d="M14.623,25.62c.151,0,.305-.007.457-.022l11.371-1.136c1.547,6.048,7.026,10.538,13.549,10.538,7.72,0,14-6.28,14-14s-6.28-14-14-14c-6.523,0-12.002,4.491-13.549,10.538l-11.371-1.136c-2.665-.266-5.08,1.93-5.08,4.598,0,2.519,2.106,4.62,4.623,4.62ZM40,9c6.617,0,12,5.383,12,12s-5.383,12-12,12-12-5.383-12-12,5.383-12,12-12ZM12.869,19.065c.53-.481,1.25-.751,2.012-.672l11.201,1.119c-.052.489-.081.985-.081,1.489s.029.999.081,1.489l-11.201,1.119c-1.509.151-2.881-1.099-2.881-2.607,0-.764.339-1.455.869-1.936Z"/>
</svg>