<?xml version="1.0" encoding="UTF-8"?>
<svg id="Outline" xmlns="http://www.w3.org/2000/svg" version="1.1" viewBox="0 0 64 64">
  <!-- Generator: Adobe Illustrator 29.5.1, SVG Export Plug-In . SVG Version: 2.1.0 Build 141)  -->
  <path d="M47.272,29.898c4.613-3.694,6.386-9.351,6.464-9.604.081-.266.049-.554-.091-.794-.139-.24-.371-.412-.642-.474-.259-.06-6.045-1.341-11.556.797-1.933-6.125-8.443-12.253-8.767-12.555-.383-.357-.979-.357-1.361,0-.324.302-6.834,6.429-8.767,12.555-5.511-2.139-11.296-.857-11.556-.797-.271.062-.503.233-.642.474-.14.24-.172.528-.091.794.078.254,1.851,5.91,6.464,9.605-4.338,4.734-6.384,13.447-6.483,13.879-.117.511.18,1.025.681,1.18.334.103,5.745,1.737,11.094,1.737,1.425,0,2.842-.122,4.16-.414.899,5.845,4.907,10.208,5.089,10.403.188.203.454.318.731.318s.543-.115.731-.318c.181-.195,4.19-4.558,5.089-10.403,1.319.292,2.736.415,4.161.415,5.349,0,10.759-1.635,11.093-1.737.501-.154.798-.669.681-1.18-.099-.431-2.145-9.145-6.482-13.879ZM51.419,20.787c-.732,1.769-2.515,5.313-5.651,7.718-.317-.243-.642-.467-.978-.661-1.102-.637-2.175-1.089-3.218-1.371.284-1.029.428-2.174.428-3.473,0-.39-.037-.786-.09-1.184,3.654-1.502,7.612-1.279,9.509-1.029ZM32,38c-3.309,0-6-2.691-6-6s2.691-6,6-6c1.78,0,3.377.784,4.477,2.019.008.01.017.018.025.027.93,1.057,1.499,2.439,1.499,3.954,0,3.309-2.691,6-6,6ZM37.603,26.3c-.521-.512-1.11-.954-1.755-1.309l-.142-.523c-.363-1.339.021-2.78,1.001-3.761.391-.391.391-1.023,0-1.414s-1.023-.391-1.414,0c-1.286,1.286-1.891,3.093-1.674,4.872-.523-.108-1.064-.165-1.618-.165s-1.096.057-1.619.165c.216-1.778-.388-3.586-1.674-4.872-.391-.391-1.023-.391-1.414,0s-.391,1.023,0,1.414c.98.98,1.364,2.422,1.001,3.76l-.143.524c-1.234.68-2.263,1.68-2.992,2.883-.77-1.254-1.159-2.885-1.159-4.874,0-2.072.992-4.365,2.3-6.499,2.362-.874,4.999-.735,7.253.394.142.07.295.105.447.105.64,0,1.127-.619.97-1.242l-1.083-4.333c2.561,2.905,6.114,7.641,6.114,11.576,0,1.194-.145,2.246-.421,3.152-.675-.033-1.334.018-1.976.147ZM31.459,9.958l1.103,4.412c-1.488-.429-3.049-.54-4.579-.335,1.265-1.683,2.564-3.122,3.477-4.076ZM12.581,20.787c1.897-.249,5.856-.473,9.509,1.029-.053.398-.09.793-.09,1.184,0,1.27.145,2.425.424,3.469-1.026.279-2.086.729-3.213,1.375-.337.194-.662.418-.979.662-3.136-2.405-4.919-5.949-5.651-7.718ZM12.433,43.3c.766-2.806,3.371-11.184,7.774-13.722,1.034-.592,2.016-.999,2.934-1.227.31.605.686,1.154,1.123,1.649-.166.641-.263,1.308-.263,2,0,.02.003.04.003.06-2.483.279-4.748,1.521-6.333,3.5l-1.451,1.814c-.345.432-.274,1.06.156,1.406.392.315,1.066.266,1.406-.156l1.451-1.814c1.259-1.574,3.066-2.555,5.042-2.766.377,1.421,1.13,2.689,2.154,3.685-1.621,1.563-3.698,2.584-5.944,2.905l-2.627.375c-.547.078-.927.585-.849,1.132.071.499.499.858.989.858.047,0,.095-.003.143-.01l2.627-.375c2.77-.397,5.316-1.696,7.269-3.675,1.129.648,2.429,1.027,3.816,1.052-.702,1.29-1.921,2.441-3.644,3.432-4.406,2.548-12.964.615-15.776-.125ZM31.999,54.431c-1.166-1.515-3.342-4.825-3.863-8.758.372-.154.734-.32,1.073-.516,1.1-.634,2.028-1.335,2.793-2.097.757.758,1.687,1.461,2.787,2.095.339.196.702.363,1.074.517-.52,3.922-2.699,7.24-3.864,8.758ZM35.789,43.424c-1.023-.59-1.861-1.236-2.514-1.924.371-.573.659-1.174.87-1.801.642-.179,1.251-.434,1.817-.759,1.953,1.979,4.499,3.278,7.269,3.675l2.627.375c.048.007.096.01.143.01.49,0,.918-.36.989-.858.078-.547-.302-1.054-.849-1.132l-2.627-.375c-2.246-.321-4.322-1.342-5.944-2.905,1.024-.996,1.777-2.264,2.154-3.685,1.977.211,3.783,1.191,5.042,2.766l1.451,1.814c.198.246.488.375.782.375.819,0,1.295-.981.78-1.625l-1.451-1.814c-1.585-1.98-3.85-3.221-6.333-3.5,0-.02.003-.04.003-.06,0-1.4-.364-2.715-.998-3.861,1.463-.037,3.066.443,4.789,1.437,4.405,2.54,7.011,10.918,7.776,13.724-2.813.739-11.371,2.673-15.778.124Z"/>
  <path d="M32,28c-2.206,0-4,1.794-4,4s1.794,4,4,4,4-1.794,4-4-1.794-4-4-4ZM32,34c-1.103,0-2-.897-2-2s.897-2,2-2,2,.897,2,2-.897,2-2,2Z"/>
</svg>