<?xml version="1.0" encoding="UTF-8"?>
<svg id="Outline" xmlns="http://www.w3.org/2000/svg" version="1.1" viewBox="0 0 64 64">
  <!-- Generator: Adobe Illustrator 29.5.1, SVG Export Plug-In . SVG Version: 2.1.0 Build 141)  -->
  <path d="M52.62988,39.03589c0-.56934.04492-1.11719.13477-1.66504.07617-.42871.11523-.88086.11523-1.34473,0-1.42407-.39081-2.79327-1.0946-4.01544.93671-1.62695,1.28418-3.51849.97058-5.39667-.3418-2.08105-.01465-4.27832.92188-6.1875.14746-.2998.13476-.65332-.03223-.94141-.16797-.28906-.46777-.47559-.80078-.49707-1.54785-.09863-3.07617-.56543-4.42773-1.34961-.50293-.28906-.95605-.59863-1.36133-.92773-.3252-.28223-.6875-.53906-1.11426-.79004-1.22583-.70886-2.61066-1.05676-4.04156-1.06293-.93134-1.62451-2.38843-2.87024-4.16742-3.53766-2.0166-.76074-3.71191-2.10449-4.90039-3.88867-.37109-.55664-1.29297-.55664-1.66406,0-1.18848,1.78418-2.88379,3.12793-4.90137,3.88867-1.71899.64886-3.26245,1.97119-4.1601,3.51843-1.87848.00531-3.67859.65173-5.14264,1.85559-1.63086,1.34277-3.69434,2.15723-5.80859,2.29395-.33301.02148-.63379.20801-.80078.49707-.167.28906-.17969.6416-.03223.94141.68555,1.39746,1.04785,2.95605,1.04785,4.50977,0,.44238-.05664.89746-.11719,1.37988-.06544.52246-.13281,1.0625-.13281,1.62988,0,1.42383.39081,2.79272,1.09497,4.01483-.93695,1.62708-1.28461,3.51886-.97095,5.39728.3418,2.08105.01465,4.27832-.92188,6.1875-.14746.2998-.13477.65332.03223.94141.16797.28906.46777.47559.80078.49707,1.54785.09863,3.07617.56543,4.42676,1.34961.38574.22168.75391.5,1.14258.79492.41602.31543.84766.64258,1.33594.92383,1.2356.71161,2.61938,1.08026,4.03931,1.08368.94568,1.61786,2.40668,2.85541,4.17944,3.51691,1.97363.73828,3.70996,2.11914,4.88867,3.8877.18555.27832.49805.44531.83203.44531s.64648-.16699.83203-.44531c.86035-1.29199,2.02832-2.38281,3.37598-3.15723.37988-.21777.79785-.39453,1.24023-.58105.49121-.20801,1-.42285,1.49707-.71289,1.23175-.71973,2.21936-1.74158,2.92169-2.95251,1.88373-.00195,3.69775-.6499,5.16913-1.85901,1.63086-1.34277,3.69434-2.15723,5.80859-2.29395.33301-.02148.63379-.20801.80078-.49707.16698-.28906.17969-.6416.03223-.94141-.68555-1.39746-1.04785-2.95605-1.04785-4.50977ZM44.93262,17.64722c.31445.18555.58008.37305.83691.5957.51465.41797,1.05566.78809,1.64746,1.12695,1.21387.70508,2.55176,1.19629,3.92969,1.44629-.69824,1.95605-.89844,4.08594-.56348,6.125.18951,1.13367.05823,2.27106-.35962,3.30811-.54834-.52795-1.18481-1.01251-1.94604-1.45166-1.7207-.98535-3.72461-1.31348-5.64062-.93262l-3.61029.71228c-.18414-.38873-.39294-.76306-.63489-1.1145l3.96295-2.64465c.45996-.30664.58398-.92773.27734-1.38672-.30762-.45898-.92969-.58398-1.38672-.27734l-4.20215,2.80426c-.75781-.6601-1.63959-1.17749-2.60681-1.5166l1.11169-3.25739c.4668-1.39258,1.43848-2.57715,2.7334-3.33301l.32617-.18848c.79785-.45801,1.66504-.73047,2.56934-.80957,1.25684-.09766,2.49219.17871,3.55566.79395ZM32,37.98608c-3.30859,0-6-2.69141-6-6s2.69141-6,6-6,6,2.69141,6,6-2.69141,6-6,6ZM23.60938,16.27124c.60742-1.3291,1.92773-2.53809,3.36328-3.08008,1.97363-.74316,3.68945-1.95605,5.02734-3.54199,1.33789,1.58594,3.05371,2.79883,5.02832,3.54297,1.06732.40015,1.97162,1.0835,2.65381,1.95752-.64886.18359-1.27692.43823-1.87354.78076l-.33203.19238c-1.7168,1.00195-3.00391,2.57324-3.62305,4.41992l-1.18646,3.47717c-.22052-.01831-.44189-.03381-.66705-.03381-.20972,0-.41559.01556-.62128.03149l-.30841-4.7561c-.03516-.55078-.51855-.96289-1.0625-.93359-.55176.03613-.96875.51172-.93359,1.0625l.32672,5.03772c-.97144.33508-1.85785.84979-2.62,1.50824l-2.2663-2.58698c-1.00488-1.15527-1.51465-2.64355-1.51465-4.42285,0-.9043.20801-1.81641.60938-2.65527ZM18.23438,18.23901c.88171-.72504,1.93005-1.17712,3.03528-1.33582-.17163.66272-.26965,1.34332-.26965,2.02332,0,2.27539.6748,4.20508,2.00781,5.73828l2.42395,2.7666c-.24359.35016-.4552.72253-.64117,1.11017l-4.27594-2.11212c-.49316-.24414-1.09473-.04102-1.33887.45312-.24512.49609-.04199,1.0957.4541,1.33984l4.52069,2.23346c-.0965.49579-.15057,1.00659-.15057,1.53021,0,.51093.05304,1.00916.14502,1.49371-1.28601.25391-3.31238.65387-3.36963.66449-1.50781.30273-3.13086-.01562-4.57617-.88965-.80176-.47363-1.49219-1.11133-1.99707-1.84766-.69727-1.00781-1.08203-2.2373-1.08203-3.46094,0-.44336.05664-.89941.11719-1.38184.06543-.52148.13281-1.06055.13281-1.62793,0-1.39844-.24512-2.80078-.7168-4.12012,2.04004-.37012,3.9834-1.26172,5.58105-2.57715ZM19.05957,46.32007c-.37988-.21875-.74219-.49414-1.12695-.78516-.42188-.32031-.8584-.65039-1.34961-.93262-1.21387-.70508-2.55176-1.19629-3.92969-1.44629.69824-1.95605.89844-4.08594.56348-6.125-.18884-1.12964-.0589-2.26282.35541-3.29694.4812.47046,1.01648.89246,1.60065,1.23737,1.39844.84473,2.94336,1.2832,4.47168,1.2832.50977,0,1.01855-.04883,1.51758-.1543.29407-.05139,1.12482-.2149,3.61127-.70544.18414.38873.39301.76306.63489,1.1145l-3.96295,2.64465c-.45996.30664-.58398.92773-.27733,1.38674.30502.45597.93021.58165,1.3867.27732l4.20215-2.80426c.75781.6601,1.63965,1.17749,2.60687,1.5166-.71375,2.0918-.98956,2.90625-1.1098,3.2525-.79199,2.31934-3.16895,4.14258-5.65137,4.33594-1.23828.09863-2.46875-.18066-3.54297-.79883ZM40.39551,47.68921c-.52734,1.11719-1.37793,2.04199-2.45996,2.67383-.38477.22461-.8125.40527-1.26562.59668-.47754.20215-.97168.41016-1.45801.68945-1.21387.69727-2.30566,1.60938-3.21191,2.67773-1.3418-1.58496-3.08496-2.82324-5.02051-3.54688-1.06982-.39911-1.98022-1.08453-2.6709-1.96259,2.66162-.74689,4.95245-2.79395,5.83984-5.39288.02197-.06592.77319-2.26721,1.18445-3.47229.22052.01831.44196.03381.66711.03381.20972,0,.41559-.01556.62128-.03149l.30841,4.7561c.03418.5293.47461.93555.99707.93555.02148,0,.04395-.00098.06543-.00195.55176-.03613.96875-.51172.93359-1.0625l-.32672-5.03772c.97089-.3349,1.85681-.84912,2.61865-1.50702,2.07953,2.38147,2.26276,2.59064,2.26276,2.59064,0,0-.00195-.00098-.00293-.00293,1.63574,1.87207,2.01367,4.77539.91797,7.06445ZM45.76562,45.73315c-.88513.72778-1.93652,1.1853-3.04657,1.34161.69385-2.68268.07013-5.69843-1.73663-7.7674l-2.41498-2.7655c.24384-.35046.45581-.72321.64197-1.11127,0,0,4.27594,2.11212,4.276,2.11215.49024.24339,1.09593.03841,1.33881-.45315.24512-.49609.04199-1.0957-.4541-1.33984l-4.52069-2.23346c.0965-.49579.15057-1.00659.15057-1.53021,0-.51086-.05304-1.00909-.14502-1.49365l3.37158-.66553c1.44141-.28711,2.95605-.03809,4.25391.70508,1.04199.60059,1.77734,1.24512,2.31738,2.0332.69727,1.00781,1.08203,2.2373,1.08203,3.46094,0,.34668-.02832.68066-.08594,1.00684-.11035.66895-.16406,1.32422-.16406,2.00293,0,1.39844.24512,2.80078.7168,4.12012-2.04004.37012-3.9834,1.26172-5.58105,2.57715Z"/>
  <path d="M32,27.98608c-2.20605,0-4,1.79395-4,4s1.79395,4,4,4,4-1.79395,4-4-1.79395-4-4-4ZM32,33.98608c-1.10254,0-2-.89746-2-2s.89746-2,2-2,2,.89746,2,2-.89746,2-2,2Z"/>
</svg>