<?xml version="1.0" encoding="UTF-8"?>
<svg id="Outline" xmlns="http://www.w3.org/2000/svg" version="1.1" viewBox="0 0 64 64">
  <!-- Generator: Adobe Illustrator 29.5.1, SVG Export Plug-In . SVG Version: 2.1.0 Build 141)  -->
  <path d="M54,7h-22c-1.65,0-3,1.35-3,3v7H13c-.42,0-.8.27-.94.66l-5,14,.01.01c-.04.1-.07.21-.07.33v24c0,.55.45,1,1,1h36c.55,0,1-.45,1-1v-8c0-.55-.45-1-1-1s-1,.45-1,1v7H9v-22h34v7c0,.55.45,1,1,1s1-.45,1-1v-8c0-.12-.03-.23-.07-.33l.01-.01-1.66-4.66h10.72c1.65,0,3-1.35,3-3v-14c0-1.65-1.35-3-3-3ZM53.2,9l-10.2,6.8-10.2-6.8h20.4ZM25,31h-15.58l4.29-12h11.29v12ZM27,31v-12h2v5c0,1.65,1.35,3,3,3h9.15l1.43,4h-15.58ZM55,24c0,.55-.45,1-1,1h-22c-.55,0-1-.45-1-1v-13.8l11.45,7.63c.16.11.36.17.55.17s.39-.06.55-.17l11.45-7.63v13.8Z"/>
  <path d="M15,49c.553,0,1-.447,1-1v-3.586l.293.293c.195.195.451.293.707.293.874,0,1.325-1.089.707-1.707l-2-2c-.391-.391-1.023-.391-1.414,0l-2,2c-.391.391-.391,1.023,0,1.414s1.023.391,1.414,0l.293-.293v3.586c0,.553.447,1,1,1Z"/>
  <path d="M23,49c.553,0,1-.447,1-1v-3.586l.293.293c.195.195.451.293.706.293.883,0,1.327-1.088.708-1.707l-2-2c-.391-.391-1.023-.391-1.414,0l-2,2c-.391.391-.391,1.023,0,1.414s1.023.391,1.414,0l.293-.293v3.586c0,.553.447,1,1,1Z"/>
  <path d="M11,52c0,.553.447,1,1,1h14c.553,0,1-.447,1-1s-.447-1-1-1h-14c-.553,0-1,.447-1,1Z"/>
  <circle cx="44" cy="44" r="1"/>
</svg>