<?xml version="1.0" encoding="UTF-8"?>
<svg id="Outline" xmlns="http://www.w3.org/2000/svg" version="1.1" viewBox="0 0 64 64">
  <!-- Generator: Adobe Illustrator 29.5.1, SVG Export Plug-In . SVG Version: 2.1.0 Build 141)  -->
  <path d="M55,42c.54999,0,1-.45001,1-1v-4.39001c0-3.22998-1.40002-6.28003-3.84998-8.37-.99005-.84998-1.77002-1.88-2.32001-3.08002-.54999-1.19-.83002-2.45996-.83002-3.76996v-6.39001c.54999,0,1-.45001,1-1v-6c0-.54999-.45001-1-1-1h-10c-.54999,0-1,.45001-1,1v6c0,.54999.45001,1,1,1v6.39001c0,2.63995-1.15002,5.13995-3.15002,6.84998-1.20996,1.03998-2.15997,2.29999-2.83997,3.76001-.66998,1.45996-1.01001,3.01001-1.01001,4.60999v17.39001c0,1.64996,1.34998,3,3,3h18c1.65002,0,3-1.35004,3-3v-9c0-.54999-.45001-1-1-1s-1,.45001-1,1v3.89996c-2.77002,1.35004-6.28998,2.10004-10,2.10004s-7.22998-.75-10-2.10004v-11.79999c2.77002-1.34998,6.28998-2.09998,10-2.09998s7.22998.75,10,2.09998v3.90002c0,.54999.45001,1,1,1ZM44,53c3.63,0,7.10999-.67004,10-1.90002v2.90002c0,.54999-.45001,1-1,1h-18c-.54999,0-1-.45001-1-1v-2.90002c2.89001,1.22998,6.37,1.90002,10,1.90002ZM40,9h8v4h-8v-4ZM44,33c-3.54999,0-6.96002.64996-9.82001,1.82001.14001-.67999.35004-1.34003.65002-1.98004.54999-1.19995,1.32996-2.22998,2.32001-3.07996,2.44995-2.09003,3.84998-5.14001,3.84998-8.37v-6.39001h6v6.39001c0,1.59998.34003,3.14996,1.01001,4.60999.67999,1.45996,1.63,2.71997,2.83997,3.76001,1.54004,1.31995,2.57001,3.10999,2.96002,5.06-2.84998-1.17004-6.26001-1.82001-9.81-1.82001Z"/>
  <path d="M50,38c-2.54785,0-4.77545,1.37292-6,3.41321-1.22455-2.04028-3.45215-3.41321-6-3.41321h-2c-.55225,0-1,.44727-1,1v2c0,3.85938,3.14014,7,7,7h4c3.85986,0,7-3.14062,7-7v-2c0-.55273-.44775-1-1-1h-2ZM37,41v-1h1c2.75684,0,5,2.24316,5,5v1h-1c-2.75684,0-5-2.24316-5-5ZM51,41c0,2.75684-2.24316,5-5,5h-1v-1c0-2.75684,2.24316-5,5-5h1v1Z"/>
  <path d="M29,51h-2.03003c.64001-.84003,1.03003-1.87,1.03003-3v-8c0-.54999-.45001-1-1-1h-3c-.54999,0-1,.45001-1,1s.45001,1,1,1h2v7c0,1.64996-1.34998,3-3,3h-8c-1.65002,0-3-1.35004-3-3v-7h8c.54999,0,1-.45001,1-1s-.45001-1-1-1h-9c-.54999,0-1,.45001-1,1v8c0,1.13.39001,2.15997,1.03003,3h-2.03003c-.54999,0-1,.45001-1,1v4c0,.54999.45001,1,1,1h20c.54999,0,1-.45001,1-1v-4c0-.54999-.45001-1-1-1ZM28,55H10v-2h18v2Z"/>
</svg>