<?xml version="1.0" encoding="UTF-8"?>
<svg id="Outline" xmlns="http://www.w3.org/2000/svg" version="1.1" viewBox="0 0 64 64">
  <!-- Generator: Adobe Illustrator 29.5.1, SVG Export Plug-In . SVG Version: 2.1.0 Build 141)  -->
  <path d="M56.851,23.704l-.502-4.012c-.093-.746-.512-1.404-1.147-1.805-.638-.401-1.411-.494-2.123-.257l-.674.225c-.124.042-.266.032-.383-.027l-2.26-1.13c-1.125-.562-2.499-.198-3.198.849l-1.101,1.65c-.035.054-.083.101-.138.138l-2.372,1.582c-.082.055-.179.084-.277.084h-1.925c-.132,0-.261-.053-.354-.146l-1.267-1.267c-.064-.064-.109-.144-.132-.232l-.681-2.725c-.225-.897-.922-1.594-1.819-1.818l-2.327-.582c-.168-.042-.3-.164-.354-.327l-.662-1.987c-.018-.052-.026-.105-.026-.159v-2.256c0-1.378-1.121-2.5-2.5-2.5h-2.146c-.387,0-.773.091-1.118.264l-2.905,1.453c-.158.08-.35.07-.501-.031l-1.443-.962c-.842-.562-1.932-.562-2.773,0l-1.155.77c-.979.653-1.371,1.918-.935,3.008l1.441,3.604c.023.058.035.12.035.184v4.357c0,.384.091.77.264,1.119l.507,1.011c.07.14.07.308,0,.448l-1.127,2.253c-.104.208-.343.318-.568.261l-1.808-.452c-1.024-.254-2.102.162-2.686,1.038l-.739,1.108c-.13.196-.38.276-.602.187l-1.812-.725c-.771-.309-1.642-.216-2.33.25-.688.466-1.099,1.24-1.099,2.07v1.164c0,.658.267,1.302.732,1.768l2.121,2.121c.093.093.146.222.146.354v2.298c0,.215-.138.406-.342.474l-.949.316c-1.022.341-1.709,1.294-1.709,2.372v3.298c0,.658.267,1.302.732,1.768l3.121,3.121c.093.093.146.222.146.354v1.758c0,.658.267,1.302.732,1.768l1.121,1.121c.093.093.146.222.146.354v1.452c0,.953.529,1.81,1.382,2.236l.854.427c.345.172.731.264,1.118.264h2.719c.952,0,1.809-.529,2.236-1.382l2.391-4.782c.212-.424.299-.896.252-1.367l-.862-8.622c-.02-.192.075-.38.24-.479l3.828-2.297c.078-.047.166-.071.257-.071h2.414c1.149,0,2.146-.779,2.425-1.894l.616-2.463c.021-.086.066-.166.131-.23l1.267-1.267c.093-.093.222-.146.354-.146h2.576c.838,0,1.615-.416,2.08-1.113l1.304-1.955c.273-.412.419-.892.419-1.432,0-.276.225-.5.5-.5s.5.224.5.5v2c0,.537.178,1.069.5,1.5l1.428,1.904c.485.648,1.265,1.031,2.069.999.81-.022,1.562-.438,2.011-1.112l.573-.859c.273-.412.419-.892.419-1.386v-2.619c0-.191.105-.362.276-.447l2.675-1.337c.106-.054.23-.066.345-.038l1.338.334c.798.2,1.646-.007,2.265-.555.617-.547.925-1.362.822-2.181ZM54.701,24.388c-.073.065-.229.166-.453.111l-1.337-.334c-.579-.143-1.19-.076-1.725.189l-2.675,1.337c-.853.426-1.382,1.283-1.382,2.236v2.619c0,.099-.029.195-.084.277l-.572.858c-.125.188-.306.22-.402.223-.102.004-.278-.02-.414-.2l-1.427-1.903c-.065-.088-.101-.192-.101-.301v-2c0-1.378-1.121-2.5-2.5-2.5s-2.5,1.122-2.5,2.546c0,.099-.029.195-.084.277l-1.303,1.954c-.093.14-.248.223-.416.223h-2.576c-.658,0-1.302.267-1.768.732l-1.267,1.267c-.321.321-.549.724-.657,1.161l-.615,2.461c-.057.223-.256.379-.485.379h-2.414c-.453,0-.897.123-1.286.356l-3.828,2.297c-.825.495-1.297,1.434-1.201,2.393l.862,8.623c.01.093-.008.187-.051.272l-2.39,4.782c-.086.171-.258.277-.448.277h-2.719c-.077,0-.155-.018-.224-.053l-.854-.427c-.171-.085-.276-.256-.276-.447v-1.452c0-.658-.267-1.302-.732-1.768l-1.121-1.121c-.093-.093-.146-.222-.146-.354v-1.758c0-.658-.267-1.302-.732-1.768l-3.121-3.121c-.093-.093-.146-.222-.146-.354v-3.298c0-.215.138-.406.342-.474l.949-.316c1.022-.341,1.709-1.294,1.709-2.372v-2.298c0-.658-.267-1.302-.732-1.768l-2.121-2.121c-.093-.093-.146-.222-.146-.354v-1.164c0-.23.138-.358.22-.414.057-.038.153-.087.278-.087.057,0,.12.01.188.038l1.812.725c1.092.438,2.356.044,3.009-.934l.739-1.108c.116-.175.333-.26.537-.208l1.807.452c1.142.283,2.313-.25,2.843-1.307l1.127-2.253c.049-.098.075-.203.11-.306.505-.21,1.014-.414,1.525-.593.521-.183.796-.753.613-1.274-.182-.52-.75-.794-1.273-.613-.35.123-.697.27-1.046.407l-.434-.866c-.035-.071-.054-.149-.054-.226v-4.357c0-.321-.061-.634-.179-.928l-1.44-3.603c-.088-.218-.009-.471.187-.601l1.155-.77c.168-.112.387-.112.555,0l1.443.962c.745.497,1.704.556,2.505.156l2.905-1.453c.068-.035.146-.053.224-.053h2.146c.275,0,.5.224.5.5v2.256c0,.268.043.534.128.791l.662,1.988c.271.815.932,1.426,1.767,1.635l2.328.582c.18.045.319.185.364.363l.436,1.748-.576-.058c-.553-.054-1.039.347-1.095.896-.055.549.346,1.04.896,1.095l1.646.165c.012.012.019.028.031.04l1.267,1.267c.466.465,1.109.732,1.768.732h1.925c.495,0,.975-.145,1.387-.42l2.371-1.581c.277-.185.512-.418.694-.694l1.1-1.648c.139-.209.412-.284.64-.17l2.26,1.13c.598.298,1.276.348,1.909.136l.675-.225c.194-.066.349.004.424.051s.204.157.229.361l.502,4.012c.028.228-.091.371-.165.436Z"/>
  <path d="M31.658,18.631c-1.525.056-3.06.228-4.562.511-.543.103-.899.625-.797,1.168.091.48.51.814.981.814.062,0,.124-.005.187-.018,1.403-.265,2.838-.426,4.263-.477.552-.02.983-.484.963-1.036-.02-.552-.492-.989-1.035-.963Z"/>
</svg>