<?xml version="1.0" encoding="UTF-8"?>
<svg id="Outline" xmlns="http://www.w3.org/2000/svg" version="1.1" viewBox="0 0 64 64">
  <!-- Generator: Adobe Illustrator 29.3.1, SVG Export Plug-In . SVG Version: 2.1.0 Build 151)  -->
  <path d="M16,21c2.75684,0,5-2.24316,5-5s-2.24316-5-5-5-5,2.24316-5,5,2.24316,5,5,5ZM16,13c1.6543,0,3,1.3457,3,3s-1.3457,3-3,3-3-1.3457-3-3,1.3457-3,3-3Z"/>
  <path d="M25,30c0-1.86053-1.71375-3.47552-4.46326-4.33612,2.17511-3.15033,4.46326-7.07715,4.46326-9.66388,0-4.96289-4.03711-9-9-9-.84375,0-1.68262.11719-2.49316.34766-.53125.15137-.83984.7041-.68848,1.23535.15137.53223.70801.84277,1.23535.68848.63281-.17969,1.28809-.27148,1.94629-.27148,3.85938,0,7,3.14062,7,7,0,2.2699-2.61078,6.45502-4.95593,9.70856-.00299.00439-.00623.00818-.00916.01257-.73389,1.0177-1.44226,1.94659-2.03491,2.69293-.59253-.74573-1.3006-1.67383-2.03412-2.69067-.00385-.00592-.00818-.01093-.01221-.01672-2.34485-3.25262-4.95367-7.43591-4.95367-9.70667,0-.6582.0918-1.31348.27148-1.94629.15137-.53125-.15723-1.08398-.68848-1.23535-.52832-.1543-1.08398.15527-1.23535.68848-.23047.81055-.34766,1.64941-.34766,2.49316,0,2.58673,2.28815,6.51355,4.46326,9.66388-2.74951.8606-4.46326,2.47559-4.46326,4.33612,0,2.45874,2.88159,4.39215,6.96552,4.8783l-.01434.01721c-.35352.4248-.2959,1.05566.12793,1.40918.1875.15527.41406.23145.63965.23145.28711,0,.57129-.12207.76953-.35938l.99127-1.18933c4.88849-.13043,8.52045-2.22711,8.52045-4.98743ZM9,30c0-.88428,1.27808-2.01105,3.70123-2.60425,1.22742,1.66443,2.2489,2.90698,2.53119,3.24487.19043.22754.4707.35938.76758.35938s.57715-.13184.76758-.35938c.28229-.33789,1.30377-1.58044,2.53119-3.24487,2.42316.5932,3.70123,1.71997,3.70123,2.60425,0,1.41602-2.99316,3-7,3s-7-1.58398-7-3Z"/>
  <path d="M56.58002,36.76001c-.26001-.19-.59003-.24005-.90002-.14001l-.87.28998c-1.12.38-2.31.29004-3.35999-.22998-1.53003-.77002-3.26001-.89001-4.89001-.35004l-.88.29004c-.39996.14001-.67999.52002-.67999.95001v11.48999c-2.38.25-4.23999,1.40997-4.81,2.94h-1.19c-.54999,0-1,.45001-1,1s.45001,1,1,1h1.19c.65002,1.73999,2.96997,3,5.81,3,3.35999,0,6-1.76001,6-4,0-2.01001-2.13-3.63-5-3.94v-2.77002l.20001-.06c1.10999-.38,2.29999-.28998,3.34998.22998.91003.46002,1.88.68005,2.85999.68005.68005,0,1.36005-.11005,2.03003-.33002l.88-.29004c.39996-.13995.67999-.51996.67999-.94995v-8c0-.32001-.15002-.62-.41998-.81ZM50,53c0,.94-1.71002,2-4,2s-4-1.06-4-2c0-.79999,1.22998-1.67004,3-1.92004v.92004c0,.54999.45001,1,1,1s1-.45001,1-1v-.92004c1.77002.25,3,1.12006,3,1.92004ZM55,44.84998l-.19.06c-1.12.38-2.31.29004-3.35999-.22998-.90002-.46002-1.88-.67999-2.85999-.67999-.53003,0-1.06.06-1.59003.20001v-5.91003l.20001-.06c1.10999-.38,2.29999-.28998,3.34998.22998,1.40002.70001,2.96002.87,4.45001.48004v5.90997Z"/>
  <path d="M13.1377,39.34277l-.25293-.04199.16406-.19629c.35352-.4248.2959-1.05566-.12793-1.40918-.42676-.35254-1.05469-.2959-1.40918.12793l-1.28027,1.53613c-.22949.27539-.29395.65234-.16895.98828s.41993.58008.77247.63867l1.97266.3291c.05664.00977.11133.01367.16602.01367.48047,0,.90332-.34668.98535-.83496.09082-.54492-.27734-1.06055-.82129-1.15137Z"/>
  <path d="M22.17773,42.87695c.05566.00977.11035.01367.16504.01367.48047,0,.9043-.34668.98535-.83594.09082-.54395-.27734-1.05957-.82227-1.15039l-4.68457-.78125c-.54688-.09473-1.06055.27734-1.15039.82227-.09082.54395.27734,1.05957.82227,1.15039l4.68457.78125Z"/>
  <path d="M29.16504,42.01367l-1.97266-.3291c-.55273-.09375-1.06055.27734-1.15137.82129-.08789.52637.25195,1.02441.76465,1.14062-.36816.37499-.38379.97751-.02542,1.37204.35463.39041,1.00228.44051,1.41311.06741l1.47949-1.3457c.2832-.25781.39453-.65527.28613-1.02246-.1084-.36816-.41699-.64062-.79395-.7041Z"/>
  <path d="M25.5127,47.52246c.4082-.37207.43848-1.00391.06738-1.41309-.37109-.4082-1.00488-.4375-1.41309-.06738l-2.67969,2.43652c-.4082.37207-.43848,1.00391-.06738,1.41309.19727.2168.46875.32715.74023.32715.24023,0,.48145-.08594.67285-.25977l2.67969-2.43652Z"/>
  <path d="M20.38574,52.07715c.16504-.35449.11328-.78809-.16602-1.0957-.37305-.40723-1.00488-.4375-1.41309-.06738l-1.47949,1.3457c-.30566.27832-.40918.71582-.25977,1.10059.14941.38574.51953.63965.93262.63965h2c.55273,0,1-.44727,1-1,0-.41504-.25293-.77148-.61426-.92285Z"/>
  <path d="M35.2002,52h-3.80078c-.55273,0-1,.44727-1,1s.44727,1,1,1h3.80078c.55273,0,1-.44727,1-1s-.44727-1-1-1Z"/>
  <path d="M27.59961,52h-3.7998c-.55273,0-1,.44727-1,1s.44727,1,1,1h3.7998c.55273,0,1-.44727,1-1s-.44727-1-1-1Z"/>
  <path d="M11.05023,11.05023c.39056-.3905.39056-1.02368,0-1.41418-.3905-.39056-1.02368-.39056-1.41418,0-.3905.3905-.3905,1.02368,0,1.41418s1.02368.3905,1.41418,0Z"/>
</svg>