<?xml version="1.0" encoding="UTF-8"?>
<svg id="Outline" xmlns="http://www.w3.org/2000/svg" version="1.1" viewBox="0 0 64 64">
  <!-- Generator: Adobe Illustrator 29.3.1, SVG Export Plug-In . SVG Version: 2.1.0 Build 151)  -->
  <path d="M40,19c0-4.41113-3.58887-8-8-8s-8,3.58887-8,8,3.58887,8,8,8,8-3.58887,8-8ZM26,19c0-3.30859,2.69141-6,6-6s6,2.69141,6,6-2.69141,6-6,6-6-2.69141-6-6Z"/>
  <path d="M56.59998,25.20001c-.25-.19-.56995-.25-.87-.16003l-13.87,3.96002h-2.19c2.23999-3.62,4.16003-7.5,4.16003-10.17004,0-6.51996-5.31-11.82996-11.83002-11.82996s-11.83002,5.31-11.83002,11.82996c0,2.67004,1.92004,6.55005,4.16003,10.17004h-2.19l-13.87-3.96002c-.30005-.08997-.62-.02997-.87.16003s-.40002.48999-.40002.79999v3c0,.54999.45001,1,1,1s1-.45001,1-1v-1.67004l12,3.42004v13.46997l-12-5.64996v-1.57001c0-.54999-.45001-1-1-1s-1,.45001-1,1v15c0,.45001.29999.83997.72998.95996l14,4c.08002.03003.17999.04004.27002.04004h20c.09003,0,.19-.01001.27002-.04004l14-4c.42999-.12.72998-.50995.72998-.95996v-26c0-.31-.15002-.60999-.40002-.79999ZM21,54.66998l-12-3.41998v-6.04999l12,5.63995v3.83002ZM21,48.63l-12-5.64001v-2.21002l12,5.65002v2.20001ZM22.16998,18.82996c0-5.41998,4.41003-9.82996,9.83002-9.82996s9.83002,4.40997,9.83002,9.82996c0,4.25-6.5,13.36005-9.83002,17.57001-3.33002-4.20996-9.83002-13.32001-9.83002-17.57001ZM41,55h-18v-4.17004l18-7.19995v11.37ZM41,41.47998l-18,7.20001v-2.16003l18-7.19995v2.15997ZM41,37.16998l-18,7.20001v-13.37h2.60999c2.67999,4.03998,5.39001,7.35999,5.62,7.63.19.23999.47003.37.77002.37s.58002-.13.77002-.37c.22998-.27002,2.94-3.59003,5.62-7.63h2.60999v6.16998ZM55,51.25l-12,3.41998v-11.13l12,4.23999v3.47003ZM55,45.65997l-12-4.23999v-2.13l12,4.22998v2.14001ZM55,41.39996l-12-4.22998v-6.41998l12-3.42004v14.07001Z"/>
  <circle cx="8" cy="33" r="1"/>
</svg>