<?xml version="1.0" encoding="UTF-8"?>
<svg id="Outline" xmlns="http://www.w3.org/2000/svg" version="1.1" viewBox="0 0 64 64">
  <!-- Generator: Adobe Illustrator 29.5.1, SVG Export Plug-In . SVG Version: 2.1.0 Build 141)  -->
  <path d="M52.497,34.905l4.21-4.21c.268-.268.361-.664.241-1.023-.119-.359-.432-.62-.807-.674l-5.708-.815,2.485-5.801c.157-.366.082-.791-.192-1.08-.273-.29-.692-.391-1.068-.253l-9.353,3.4,2.677-14.276c.075-.401-.101-.808-.444-1.027-.345-.222-.789-.209-1.119.029l-6.187,4.419-4.419-6.187c-.375-.525-1.252-.525-1.627,0l-4.419,6.187-6.187-4.419c-.331-.237-.774-.25-1.119-.029-.344.22-.52.626-.444,1.027l2.677,14.276-9.353-3.4c-.373-.138-.794-.037-1.068.253-.274.289-.35.714-.192,1.08l2.485,5.801-5.708.815c-.375.054-.688.314-.807.674-.12.359-.026.756.241,1.023l4.21,4.21-4.128,3.302c-.288.231-.426.603-.357.966s.331.659.685.77l14.726,4.603-3.26,4.889c-.244.366-.22.85.06,1.19.281.342.752.455,1.157.287l10.615-4.423v9.5c0,.553.447,1,1,1s1-.447,1-1v-9.5l10.615,4.423c.125.052.254.077.384.077.738,0,1.28-.885.833-1.555l-3.26-4.889,14.726-4.603c.354-.11.616-.406.685-.77s-.069-.734-.357-.966l-4.128-3.302ZM39.702,43.033c-.301.094-.54.323-.645.621-.105.297-.064.626.11.888l2.168,3.252-8.336-3.473v-2.733l14.471-7.718c.487-.261.672-.866.412-1.354-.26-.485-.863-.669-1.354-.412l-13.529,7.216v-20.333c0-.553-.447-1-1-1s-1,.447-1,1v20.333l-13.529-7.216c-.49-.257-1.093-.073-1.354.412-.26.487-.075,1.093.412,1.354l14.471,7.718v2.733l-8.336,3.473,2.168-3.252c.175-.262.216-.591.11-.888-.104-.298-.344-.527-.645-.621l-14.205-4.439,3.532-2.825c.222-.178.357-.442.373-.726.017-.284-.09-.562-.291-.763l-3.586-3.586,5.021-.717c.308-.044.578-.229.73-.5.152-.271.17-.599.047-.884l-2.09-4.877,8.829,3.21c.335.123.715.055.989-.177.273-.232.401-.594.335-.947l-2.542-13.558,4.979,3.556c.449.322,1.074.218,1.395-.232l4.187-5.86,4.187,5.86c.32.45.945.554,1.395.232l4.979-3.556-2.542,13.558c-.066.354.062.715.335.947.273.231.651.3.989.177l8.829-3.21-2.09,4.877c-.123.285-.105.612.047.884.152.271.423.456.73.5l5.021.717-3.586,3.586c-.201.201-.308.479-.291.763.016.283.151.548.373.726l3.532,2.825-14.205,4.439Z"/>
</svg>