<?xml version="1.0" encoding="UTF-8"?>
<svg id="Outline" xmlns="http://www.w3.org/2000/svg" version="1.1" viewBox="0 0 64 64">
  <!-- Generator: Adobe Illustrator 29.5.1, SVG Export Plug-In . SVG Version: 2.1.0 Build 141)  -->
  <path d="M56,27c.55,0,1-.45,1-1v-12c0-1.65-1.35-3-3-3h-2v-1c0-1.65-1.35-3-3-3s-3,1.35-3,3v1h-19c-.55,0-1,.45-1,1s.45,1,1,1h19v1c0,1.65,1.35,3,3,3,.55,0,1-.45,1-1s-.45-1-1-1-1-.45-1-1v-1h6c.55,0,1,.45,1,1v5H9v-5c0-.55.45-1,1-1h3v1c0,1.65,1.35,3,3,3,.55,0,1-.45,1-1s-.45-1-1-1-1-.45-1-1v-1h8c.55,0,1-.45,1-1s-.45-1-1-1h-4v-1c0-1.65-1.35-3-3-3s-3,1.35-3,3v1h-3c-1.65,0-3,1.35-3,3v40c0,1.65,1.35,3,3,3h44c1.65,0,3-1.35,3-3v-24c0-.55-.45-1-1-1s-1,.45-1,1v24c0,.55-.45,1-1,1H10c-.55,0-1-.45-1-1V21h46v5c0,.55.45,1,1,1ZM50,11h-2v-1c0-.55.45-1,1-1s1,.45,1,1v1ZM15,10c0-.55.45-1,1-1s1,.45,1,1v1h-2v-1Z"/>
  <path d="M10,52c0,.552.447,1,1,1h42c.553,0,1-.448,1-1s-.447-1-1-1H11c-.553,0-1,.448-1,1Z"/>
  <path d="M11.909,36c0,.552.447,1,1,1h38.182c.553,0,1-.448,1-1s-.447-1-1-1H12.909c-.553,0-1,.448-1,1Z"/>
  <path d="M32,33c1.654,0,3-1.346,3-3,0-.771-.301-1.468-.78-2,.48-.532.78-1.229.78-2,0-1.654-1.346-3-3-3s-3,1.346-3,3c0,.771.301,1.468.78,2-.48.532-.78,1.229-.78,2,0,1.654,1.346,3,3,3ZM32,31c-.552,0-1-.449-1-1s.448-1,1-1,1,.449,1,1-.448,1-1,1ZM32,25c.552,0,1,.449,1,1s-.448,1-1,1-1-.449-1-1,.448-1,1-1Z"/>
  <path d="M18,49c.553,0,1-.448,1-1v-8c0-.464-.319-.867-.771-.973-.448-.108-.917.111-1.124.526l-1.105,2.211-1.105-2.211c-.207-.415-.676-.633-1.124-.526-.451.106-.771.509-.771.973v8c0,.552.447,1,1,1s1-.448,1-1v-3.764l.105.211c.34.678,1.449.678,1.789,0l.105-.211v3.764c0,.552.447,1,1,1Z"/>
  <path d="M26,49c.553,0,1-.448,1-1v-6c0-1.654-1.346-3-3-3s-3,1.346-3,3v6c0,.552.447,1,1,1s1-.448,1-1v-2h2v2c0,.552.447,1,1,1ZM23,44v-2c0-.551.448-1,1-1s1,.449,1,1v2h-2Z"/>
  <path d="M32.38,44.96c1.47-.19,2.62-1.43,2.62-2.96,0-1.65-1.35-3-3-3h-2c-.55,0-1,.45-1,1v8c0,.55.45,1,1,1s1-.45,1-1v-1.59l2.29,2.3c.2.19.45.29.71.29.87,0,1.32-1.09.71-1.71l-2.33-2.33ZM31,43v-2h1c.55,0,1,.45,1,1s-.45,1-1,1h-1Z"/>
  <path d="M40,41h2c.553,0,1-.448,1-1s-.447-1-1-1h-2c-1.654,0-3,1.346-3,3v4c0,1.654,1.346,3,3,3h2c.553,0,1-.448,1-1s-.447-1-1-1h-2c-.552,0-1-.449-1-1v-4c0-.551.448-1,1-1Z"/>
  <path d="M50,49c.553,0,1-.448,1-1v-8c0-.552-.447-1-1-1s-1,.448-1,1v3h-2v-3c0-.552-.447-1-1-1s-1,.448-1,1v8c0,.552.447,1,1,1s1-.448,1-1v-3h2v3c0,.552.447,1,1,1Z"/>
</svg>