<?xml version="1.0" encoding="UTF-8"?>
<svg id="Outline" xmlns="http://www.w3.org/2000/svg" version="1.1" viewBox="0 0 64 64">
  <!-- Generator: Adobe Illustrator 29.5.1, SVG Export Plug-In . SVG Version: 2.1.0 Build 141)  -->
  <path d="M56.655,27.797c-.091-.544-.601-.912-1.152-.821-.544.091-.912.607-.821,1.152.208,1.242.315,2.515.317,3.784,0,.552.449.998,1,.998h.002c.552,0,.999-.45.998-1.002-.002-1.378-.119-2.761-.345-4.111Z"/>
  <path d="M55.846,34.872c-.541-.087-1.059.281-1.148.826-.204,1.249-.514,2.488-.921,3.682-.178.522.102,1.091.625,1.269.518.175,1.092-.106,1.269-.625.442-1.299.779-2.646,1.001-4.004.089-.545-.28-1.059-.826-1.148Z"/>
  <path d="M26.086,9.695c.081,0,.164-.01.246-.031,1.222-.31,2.482-.52,3.744-.624.55-.045.959-.528.914-1.079-.045-.55-.521-.967-1.079-.914-1.372.113-2.741.342-4.07.679-.536.136-.859.68-.724,1.215.115.453.522.754.969.754Z"/>
  <path d="M18.862,12.875c.188,0,.378-.053.547-.164,1.058-.693,2.18-1.302,3.335-1.812.505-.223.734-.813.512-1.318-.223-.505-.812-.733-1.318-.512-1.256.553-2.476,1.216-3.625,1.969-.462.303-.591.922-.289,1.384.192.293.511.452.837.452Z"/>
  <path d="M53.615,42.454c-.487-.261-1.093-.08-1.355.406-.599,1.111-1.296,2.182-2.072,3.182-.498.642-.023,1.613.789,1.613.298,0,.594-.133.791-.387.843-1.087,1.601-2.251,2.252-3.459.262-.486.08-1.093-.406-1.355Z"/>
  <path d="M33.875,9.037c1.263.102,2.524.31,3.746.616.082.021.164.03.245.03.453,0,.858-.316.969-.756.135-.536-.19-1.079-.726-1.213-1.33-.334-2.699-.559-4.072-.67-.553-.055-1.033.366-1.077.916-.044.551.366,1.033.916,1.077Z"/>
  <path d="M50.131,17.807c.324.415.968.512,1.404.171.435-.34.512-.969.171-1.404-.847-1.083-1.789-2.102-2.8-3.031-.406-.373-1.04-.346-1.413.061-.374.407-.347,1.039.06,1.413.93.854,1.797,1.793,2.577,2.79Z"/>
  <path d="M13.054,18.227c.297,0,.592-.132.79-.386.776-.996,1.641-1.937,2.572-2.794.406-.375.432-1.007.058-1.413-.375-.406-1.008-.433-1.413-.058-1.011.933-1.951,1.954-2.794,3.036-.501.643-.026,1.615.788,1.615Z"/>
  <path d="M41.214,10.881c1.157.507,2.281,1.114,3.34,1.806.169.11.358.163.546.163.973,0,1.364-1.305.548-1.837-1.151-.752-2.374-1.412-3.632-1.963-.505-.222-1.096.009-1.317.515-.222.506.009,1.096.515,1.317Z"/>
  <path d="M53.746,24.45c.178.515.759.795,1.272.619.522-.181.799-.75.619-1.272-.449-1.297-1.009-2.567-1.666-3.774-.265-.485-.872-.665-1.356-.4-.485.264-.665.872-.4,1.356.604,1.11,1.12,2.278,1.532,3.471Z"/>
  <path d="M26.427,54.282c-1.226-.305-2.436-.716-3.596-1.22-.506-.221-1.095.012-1.316.518-.22.506.012,1.096.518,1.316,1.261.549,2.577.995,3.911,1.327.081.021.162.03.242.03.448,0,.856-.304.969-.759.133-.536-.193-1.079-.729-1.211Z"/>
  <path d="M19.487,51.263c-1.059-.688-2.07-1.471-3.004-2.324-.409-.375-1.041-.344-1.413.063-.373.408-.345,1.04.063,1.413,1.015.928,2.113,1.778,3.264,2.525.439.285,1.082.171,1.383-.293.301-.463.169-1.083-.293-1.383Z"/>
  <path d="M33.973,54.878c-1.253.108-2.547.111-3.798.012-.546-.035-1.031.368-1.075.919-.043.55.368,1.032.919,1.075.653.051,1.32.077,1.982.077.714,0,1.435-.03,2.142-.09.55-.047.958-.531.912-1.081-.047-.551-.527-.959-1.081-.912Z"/>
  <path d="M41.302,53.003c-1.156.512-2.362.93-3.585,1.243-.535.137-.858.682-.721,1.216.116.452.522.752.968.752.082,0,.165-.01.248-.031,1.331-.34,2.643-.795,3.9-1.351.505-.224.733-.814.51-1.319-.224-.505-.815-.734-1.319-.51Z"/>
  <path d="M47.622,48.843c-.928.859-1.933,1.647-2.989,2.342-.786.517-.435,1.835.551,1.835.189,0,.38-.053.549-.165,1.146-.755,2.239-1.611,3.247-2.544.405-.375.43-1.008.055-1.413-.376-.407-1.008-.43-1.413-.055Z"/>
  <path d="M10.27,39.519c-.414-1.191-.732-2.428-.944-3.676-.092-.544-.606-.911-1.154-.818-.544.093-.911.609-.818,1.154.231,1.357.577,2.702,1.027,3.997.175.504.77.792,1.273.616.521-.181.797-.751.616-1.273Z"/>
  <path d="M8.968,25.118c.495.17,1.09-.095,1.27-.622.41-1.195.923-2.365,1.526-3.477.264-.485.083-1.092-.402-1.355-.485-.265-1.092-.083-1.355.402-.656,1.209-1.215,2.482-1.66,3.782-.179.522.099,1.091.622,1.27Z"/>
  <path d="M11.81,42.986c-.265-.484-.873-.662-1.357-.396s-.662.873-.396,1.357c.659,1.204,1.424,2.362,2.272,3.443.336.429.977.504,1.404.169.434-.341.51-.97.169-1.404-.781-.994-1.484-2.06-2.091-3.168Z"/>
  <path d="M9.001,32.064v-.103c0-1.27.104-2.543.309-3.785.09-.545-.279-1.06-.824-1.15-.546-.086-1.06.278-1.15.824-.223,1.349-.336,2.731-.336,4.125v.088c0,.552.448,1,1,1s1-.448,1-1Z"/>
  <path d="M21,16.961v-1c0-.552-.448-1-1-1s-1,.448-1,1v1h-1c-1.654,0-3,1.346-3,3v6c0,.552.448,1,1,1s1-.448,1-1v-1h30v19c0,.551-.449,1-1,1h-28c-.551,0-1-.449-1-1v-10c0-.552-.448-1-1-1s-1,.448-1,1v10c0,1.654,1.346,3,3,3h28c1.654,0,3-1.346,3-3v-24c0-1.654-1.346-3-3-3h-1v-1c0-.552-.448-1-1-1s-1,.448-1,1v1h-10v-1c0-.552-.448-1-1-1s-1,.448-1,1v1h-10ZM43,18.961v1c0,.552.448,1,1,1s1-.448,1-1v-1h1c.551,0,1,.449,1,1v3h-30v-3c0-.551.449-1,1-1h1v1c0,.552.448,1,1,1s1-.448,1-1v-1h10v1c0,.552.448,1,1,1s1-.448,1-1v-1h10Z"/>
  <path d="M33,37.961v-6c0-.552-.448-1-1-1h-2c-.552,0-1,.448-1,1s.448,1,1,1h1v5c0,.552.448,1,1,1s1-.448,1-1Z"/>
  <path d="M40,34.961c0-4.411-3.589-8-8-8s-8,3.589-8,8,3.589,8,8,8,8-3.589,8-8ZM26,34.961c0-3.309,2.691-6,6-6s6,2.691,6,6-2.691,6-6,6-6-2.691-6-6Z"/>
  <circle cx="16" cy="29.961" r="1"/>
</svg>