<?xml version="1.0" encoding="UTF-8"?>
<svg id="Outline" xmlns="http://www.w3.org/2000/svg" version="1.1" viewBox="0 0 64 64">
  <!-- Generator: Adobe Illustrator 29.5.1, SVG Export Plug-In . SVG Version: 2.1.0 Build 141)  -->
  <path d="M54.98,31.18c.01-.06.02-.12.02-.18,0-2.42-1.24-4.65-3.27-5.93-.85-2.96-3.61-5.07-6.73-5.07h-.07c-.17-1.15-.62-2.21-1.27-3.11.22-.9.34-1.89.34-2.89,0-3.99-1.72-7-4-7s-4,3.01-4,7c0,.1.01.19.01.29-1.14.34-2.17.96-3.01,1.81-1.3-1.33-3.09-2.1-5-2.1-3.86,0-7,3.14-7,7,0,.42.04.84.12,1.26-.9.25-1.74.68-2.47,1.26-.85-.34-1.75-.52-2.65-.52-3.86,0-7,3.14-7,7,0,.39.04.77.1,1.15-1.21.39-2.1,1.51-2.1,2.85v2c0,1.32.86,2.43,2.04,2.83.44,10.09,8.76,18.17,18.96,18.17h8c10.2,0,18.52-8.08,18.96-18.17,1.18-.4,2.04-1.51,2.04-2.83v-2c0-1.31-.85-2.41-2.02-2.82ZM40,9c.82,0,2,1.95,2,5,0,.41-.04.81-.08,1.21-1.12-.76-2.47-1.21-3.92-1.21,0-3.05,1.18-5,2-5ZM16,25c.81,0,1.62.2,2.36.59.38.2.85.13,1.16-.18.79-.77,1.84-1.26,2.95-1.39.31-.03.58-.2.74-.46.16-.26.2-.59.09-.87-.2-.55-.3-1.11-.3-1.69,0-2.76,2.24-5,5-5,1.68,0,3.24.84,4.17,2.24.37.56,1.29.56,1.66,0,.93-1.4,2.49-2.24,4.17-2.24,2.76,0,5,2.24,5,5.09,0,.29.13.57.35.76.22.19.52.27.8.23.22-.04.54-.08.85-.08,2.34,0,4.39,1.65,4.88,3.93.06.28.25.53.5.67,1.62.88,2.62,2.57,2.62,4.4H11.11c-.06-.33-.11-.66-.11-1,0-2.76,2.24-5,5-5ZM36,55h-8c-9.04,0-16.45-7.09-16.97-16h41.94c-.52,8.91-7.93,16-16.97,16ZM55,36c0,.55-.45,1-1,1H10c-.55,0-1-.45-1-1v-2c0-.55.45-1,1-1h44c.55,0,1,.45,1,1v2Z"/>
  <path d="M30,22.827c.98,0,1.961-.373,2.707-1.12.391-.391.391-1.023,0-1.414s-1.023-.391-1.414,0c-.713.713-1.873.713-2.586,0-.391-.391-1.023-.391-1.414,0s-.391,1.023,0,1.414c.746.747,1.727,1.12,2.707,1.12Z"/>
  <path d="M28,27c1.022,0,1.984-.398,2.707-1.122.391-.391.391-1.024,0-1.414-.391-.391-1.023-.391-1.414,0-.691.691-1.895.691-2.586,0-.391-.391-1.023-.391-1.414,0-.391.39-.391,1.023,0,1.414.723.723,1.685,1.122,2.707,1.122Z"/>
  <path d="M33.293,27.878c.723.723,1.685,1.122,2.707,1.122s1.984-.398,2.707-1.122c.391-.391.391-1.024,0-1.414-.391-.391-1.023-.391-1.414,0-.691.691-1.895.691-2.586,0-.391-.391-1.023-.391-1.414,0-.391.39-.391,1.023,0,1.414Z"/>
</svg>