<?xml version="1.0" encoding="UTF-8"?>
<svg id="Outline" xmlns="http://www.w3.org/2000/svg" version="1.1" viewBox="0 0 64 64">
  <!-- Generator: Adobe Illustrator 29.5.1, SVG Export Plug-In . SVG Version: 2.1.0 Build 141)  -->
  <path d="M28.425,49.766l-3.896-.557c-.415-.06-.752-.375-.838-.786l-.399-1.905c1.395-1.088,2.373-2.687,2.636-4.518h.071c.882,0,1.715-.385,2.286-1.058.571-.671.816-1.561.674-2.439-.109-.67-.464-1.257-.96-1.697v-3.806c0-3.309-2.691-6-6-6h-5c-1.896,0-3.489,1.327-3.898,3.102-1.774.409-3.102,2.001-3.102,3.898v2.806c-.496.44-.851,1.027-.96,1.697-.143.878.103,1.768.674,2.439.571.672,1.404,1.058,2.286,1.058h.071c.263,1.831,1.241,3.43,2.636,4.518l-.399,1.904c-.086.411-.423.727-.838.786l-3.896.557c-1.468.209-2.575,1.486-2.575,2.969v3.266c0,.552.447,1,1,1s1-.448,1-1v-3.266c0-.494.369-.92.858-.99l3.896-.557c1.244-.178,2.254-1.124,2.512-2.355l.268-1.283c.767.29,1.598.45,2.466.45s1.698-.16,2.466-.45l.269,1.283c.258,1.23,1.268,2.177,2.512,2.354l3.896.557c.489.07.858.496.858.99v3.266c0,.552.447,1,1,1s1-.448,1-1v-3.266c0-1.483-1.107-2.76-2.575-2.969ZM12,34c0-1.103.897-2,2-2,.553,0,1-.448,1-1,0-1.103.897-2,2-2h5c2.206,0,4,1.794,4,4v3.009c-.036-.001-.071-.009-.107-.009h-.274l-.724-1.447c-.128-.256-.36-.446-.638-.519-.276-.072-.572-.024-.812.134l-.646.431c-.969.647-2.268.518-3.092-.306-.391-.391-1.023-.391-1.414,0-.823.823-2.122.952-3.092.306l-.646-.431c-.239-.159-.535-.208-.812-.134-.277.073-.51.263-.638.519l-.724,1.447h-.274c-.036,0-.071.008-.107.009v-2.009ZM14,41c0-.552-.447-1-1-1h-1c-.621,0-1.085-.569-.985-1.175.075-.462.555-.825,1.093-.825h.893c.379,0,.725-.214.895-.553l.5-1c1.452.809,3.235.729,4.605-.166,1.37.895,3.152.975,4.605.166l.5,1c.17.339.516.553.895.553h.893c.538,0,1.017.362,1.093.824.098.6-.376,1.176-.985,1.176h-1c-.553,0-1,.448-1,1,0,2.757-2.243,5-5,5s-5-2.243-5-5Z"/>
  <path d="M54.425,49.766l-3.896-.557c-.415-.06-.752-.375-.838-.786l-.399-1.905c1.395-1.088,2.373-2.687,2.636-4.518h.071c.882,0,1.715-.385,2.286-1.058.571-.671.816-1.561.674-2.439-.109-.67-.464-1.257-.96-1.697v-2.806c0-1.067-.416-2.071-1.173-2.827-.539-.54-1.205-.906-1.929-1.072-.409-1.774-2.002-3.101-3.898-3.101-.553,0-1,.448-1,1s.447,1,1,1c1.103,0,2,.897,2,2,0,.552.447,1,1,1,.532,0,1.034.208,1.413.587s.587.88.587,1.413v2.009c-.036-.001-.071-.009-.107-.009h-.274l-.724-1.447c-.128-.256-.36-.446-.638-.519-.277-.072-.571-.024-.812.134l-.646.431c-.969.647-2.268.518-3.092-.306-.391-.391-1.023-.391-1.414,0-.823.823-2.122.952-3.092.306l-.646-.431c-.239-.159-.534-.208-.812-.134-.277.073-.51.263-.638.519l-.724,1.447h-.274c-.036,0-.071.008-.107.009v-3.009c0-2.206,1.794-4,4-4h1c.553,0,1-.448,1-1s-.447-1-1-1h-1c-3.309,0-6,2.691-6,6v3.806c-.496.44-.851,1.027-.96,1.697-.143.878.103,1.768.674,2.439.571.672,1.404,1.058,2.286,1.058h.071c.263,1.831,1.241,3.43,2.636,4.518l-.399,1.904c-.086.411-.423.727-.838.786l-3.896.557c-1.468.209-2.575,1.486-2.575,2.969v3.266c0,.552.447,1,1,1s1-.448,1-1v-3.266c0-.494.369-.92.858-.99l3.896-.557c1.244-.178,2.254-1.124,2.512-2.355l.268-1.283c.767.29,1.598.45,2.466.45s1.698-.16,2.466-.45l.269,1.283c.258,1.23,1.268,2.177,2.512,2.354l3.896.557c.489.07.858.496.858.99v3.266c0,.552.447,1,1,1s1-.448,1-1v-3.266c0-1.483-1.107-2.76-2.575-2.969ZM40,41c0-.552-.447-1-1-1h-1c-.608,0-1.082-.584-.985-1.175.075-.462.555-.825,1.093-.825h.893c.379,0,.725-.214.895-.553l.5-1c1.452.809,3.235.729,4.605-.166,1.37.895,3.152.975,4.605.166l.5,1c.17.339.516.553.895.553h.893c.538,0,1.017.362,1.093.824.098.601-.375,1.176-.985,1.176h-1c-.553,0-1,.448-1,1,0,2.757-2.243,5-5,5s-5-2.243-5-5Z"/>
  <path d="M14,17c.553,0,1-.448,1-1v-3.764l.105.211c.34.678,1.449.678,1.789,0l.105-.211v3.764c0,.552.447,1,1,1s1-.448,1-1v-8c0-.464-.319-.867-.771-.973-.449-.109-.917.111-1.124.526l-1.105,2.211-1.105-2.211c-.207-.415-.677-.634-1.124-.526-.451.106-.771.509-.771.973v8c0,.552.447,1,1,1Z"/>
  <path d="M22,17c.553,0,1-.448,1-1v-2h2v2c0,.552.447,1,1,1s1-.448,1-1v-6c0-1.654-1.346-3-3-3s-3,1.346-3,3v6c0,.552.447,1,1,1ZM24,9c.552,0,1,.449,1,1v2h-2v-2c0-.551.448-1,1-1Z"/>
  <path d="M40,17h2c.553,0,1-.448,1-1s-.447-1-1-1h-2c-.552,0-1-.449-1-1v-4c0-.551.448-1,1-1h2c.553,0,1-.448,1-1s-.447-1-1-1h-2c-1.654,0-3,1.346-3,3v4c0,1.654,1.346,3,3,3Z"/>
  <path d="M30,9h1v7c0,.552.447,1,1,1s1-.448,1-1v-7h1c.553,0,1-.448,1-1s-.447-1-1-1h-4c-.553,0-1,.448-1,1s.447,1,1,1Z"/>
  <path d="M46,17c.553,0,1-.448,1-1v-3h2v3c0,.552.447,1,1,1s1-.448,1-1v-8c0-.552-.447-1-1-1s-1,.448-1,1v3h-2v-3c0-.552-.447-1-1-1s-1,.448-1,1v8c0,.552.447,1,1,1Z"/>
  <path d="M38.149,19.426c-.914-.921-2.132-1.428-3.43-1.428-.984,0-1.924.292-2.72.836-.796-.544-1.735-.836-2.72-.836-1.298,0-2.516.507-3.428,1.425-1.887,1.887-1.887,4.958,0,6.845l.2.2c.391.39,1.023.39,1.414-.002.39-.391.39-1.024-.002-1.414l-.199-.199c-1.107-1.107-1.107-2.909.002-4.019,1.073-1.079,2.947-1.08,4.022,0,.375.378,1.043.378,1.418,0,1.074-1.08,2.946-1.081,4.024.002,1.107,1.107,1.107,2.909,0,4.016l-4.733,4.733-1.703-1.703c-.391-.391-1.023-.391-1.414,0s-.391,1.023,0,1.414l2.41,2.41c.195.195.451.293.707.293s.512-.098.707-.293l5.44-5.44c1.887-1.887,1.887-4.958.002-6.842Z"/>
</svg>