<?xml version="1.0" encoding="UTF-8"?>
<svg id="Outline" xmlns="http://www.w3.org/2000/svg" version="1.1" viewBox="0 0 64 64">
  <!-- Generator: Adobe Illustrator 29.5.1, SVG Export Plug-In . SVG Version: 2.1.0 Build 141)  -->
  <path d="M22.03,13h2c.553,0,1-.447,1-1s-.447-1-1-1h-2c-.553,0-1,.447-1,1s.447,1,1,1Z"/>
  <path d="M28.03,13h6c.553,0,1-.447,1-1s-.447-1-1-1h-6c-.553,0-1,.447-1,1s.447,1,1,1Z"/>
  <path d="M20.03,19h-4c-.553,0-1,.447-1,1v4c0,.553.447,1,1,1h4c.553,0,1-.447,1-1v-4c0-.553-.447-1-1-1ZM19.03,23h-2v-2h2v2Z"/>
  <path d="M30.03,19h-6c-.553,0-1,.447-1,1s.447,1,1,1h6c.553,0,1-.447,1-1s-.447-1-1-1Z"/>
  <path d="M30.03,23h-6c-.553,0-1,.447-1,1s.447,1,1,1h6c.553,0,1-.447,1-1s-.447-1-1-1Z"/>
  <path d="M20.03,27h-4c-.553,0-1,.447-1,1v4c0,.553.447,1,1,1h4c.553,0,1-.447,1-1v-4c0-.553-.447-1-1-1ZM19.03,31h-2v-2h2v2Z"/>
  <path d="M30.03,27h-6c-.553,0-1,.447-1,1s.447,1,1,1h6c.553,0,1-.447,1-1s-.447-1-1-1Z"/>
  <path d="M30.03,31h-6c-.553,0-1,.447-1,1s.447,1,1,1h6c.553,0,1-.447,1-1s-.447-1-1-1Z"/>
  <path d="M56.46,47.27c-.4-.9-1.04-1.67-1.83-2.25,1.05-1.63,1.25-3.71.44-5.51-1.02-2.26-3.36-3.59-5.77-3.39-.08-.13-.18-.24-.27-.37v-9.75c0-.55-.45-1-1-1s-1,.45-1,1v7.98c-.62-.33-1.3-.54-2-.62V12c0-.55-.45-1-1-1h-5v-2h7c.55,0,1,.45,1,1v8c0,.55.45,1,1,1s1-.45,1-1v-8c0-1.65-1.35-3-3-3H10.03c-1.65,0-3,1.35-3,3v44c0,1.65,1.35,3,3,3h36c.24,0,.47-.04.71-.09.32.05.64.09.97.09.79,0,1.59-.17,2.36-.51.6-.27,1.14-.63,1.61-1.09.65-.05,1.28-.21,1.88-.48,1.41-.63,2.49-1.78,3.03-3.22.55-1.45.5-3.02-.13-4.43ZM19.03,9h18v5c0,.55-.45,1-1,1h-16c-.55,0-1-.45-1-1v-5ZM11.37,55h-1.34c-.55,0-1-.45-1-1V10c0-.55.45-1,1-1h7v2h-5c-.55,0-1,.45-1,1v41.53c0,.53.13,1.02.34,1.47ZM13.03,40.1l1.87,9.35-1.87.93v-10.28ZM43.03,55H14.5c-.81,0-1.47-.66-1.47-1.47,0-.56.31-1.07.81-1.32l2.64-1.32c.4-.2.62-.64.53-1.09l-3.98-19.9V13h4v1c0,1.65,1.35,3,3,3h16c1.65,0,3-1.35,3-3v-1h4v20.46c-.36.09-.72.2-1.06.36-1.41.63-2.49,1.78-3.04,3.22-.46,1.23-.5,2.56-.1,3.8-1.75,1.66-2.3,4.3-1.29,6.56.81,1.8,2.5,3.04,4.41,3.32-.09.99.07,1.97.48,2.87.16.37.37.7.6,1.01v.4ZM54.72,50.99c-.35.94-1.06,1.69-1.98,2.11-.28.12-.58.2-.88.25l-1.21-2.67,1.7-1.56c.4-.38.43-1.01.05-1.42-.37-.4-1-.43-1.41-.05l-1.2,1.11-1.17-2.58,2.87-4.12c.31-.45.2-1.08-.25-1.39-.46-.32-1.08-.21-1.4.25l-2.17,3.13-2.81-6.24c-.23-.51-.82-.73-1.32-.5-.51.22-.73.82-.51,1.32l2.81,6.24-3.78-.45c-.55-.07-1.05.33-1.11.88-.07.55.33,1.04.87,1.11l4.98.59,1.16,2.58-1.63.16c-.55.06-.95.55-.89,1.1.05.51.49.9.99.9.04,0,.07-.01.1-.01l2.3-.23,1.2,2.68c-.24.19-.5.36-.78.49-.92.41-1.95.44-2.89.08-.95-.36-1.7-1.06-2.11-1.98-.38-.84-.43-1.79-.14-2.69.1-.32.04-.66-.17-.92-.19-.24-.48-.38-.78-.38h-.07c-1.59.1-3.08-.77-3.73-2.2-.73-1.64-.21-3.59,1.25-4.63.39-.28.53-.8.32-1.24-.01-.02-.03-.07-.06-.11-.82-1.89.03-4.11,1.92-4.96,1.89-.85,4.11-.02,4.98,1.86.01.04.03.09.04.12.19.44.67.69,1.14.57,1.75-.4,3.55.5,4.29,2.14.65,1.43.32,3.14-.82,4.25-.23.23-.34.56-.28.89.06.32.27.6.58.74.86.38,1.54,1.05,1.92,1.88.41.92.44,1.95.08,2.9Z"/>
  <circle cx="48.03" cy="22" r="1"/>
</svg>