<?xml version="1.0" encoding="UTF-8"?>
<svg id="Outline" xmlns="http://www.w3.org/2000/svg" version="1.1" viewBox="0 0 64 64">
  <!-- Generator: Adobe Illustrator 29.5.1, SVG Export Plug-In . SVG Version: 2.1.0 Build 141)  -->
  <path d="M56,35c.54999,0,1-.45001,1-1v-10c0-.23004-.08002-.45001-.21997-.62l-7.03003-8.80005c1.33002-.64996,2.25-2,2.25-3.57996,0-2.21002-1.78998-4-4-4H16c-2.21002,0-4,1.78998-4,4,0,1.57996.91998,2.92999,2.25,3.57996l-7.03003,8.80005c-.13995.16998-.21997.38995-.21997.62v32c0,.54999.45001,1,1,1h48c.13,0,.26001-.03003.38-.08002.25-.09998.44-.28998.53998-.53998.04999-.12.08002-.25.08002-.38v-18c0-.54999-.45001-1-1-1s-1,.45001-1,1v15.58997l-6-6v-30.73999l6,7.5v9.65002c0,.54999.45001,1,1,1ZM9,24.34998l7.47998-9.34998h29.44s-6.70001,8.38-6.70011,8.3801c-.14622.14638-.21988.42048-.21988.6199v7.38c-3.75-2.77002-9.17999-4.38-15-4.38s-11.25,1.60999-15,4.38v-7.03003ZM39,55H9v-6.38c3.75,2.77002,9.17999,4.38,15,4.38s11.25-1.60999,15-4.38v6.38ZM15.71002,45.28998l-1.71002-1.70001v-2.58997h6v2.58997l-1.71002,1.70001c-.17999.19-.28998.44-.28998.71002v4.34998c-.69-.14996-1.34998-.32001-2-.52002v-3.82996c0-.27002-.10999-.52002-.28998-.71002ZM29.65997,44.44c-1.01996-.90002-1.65997-2.60004-1.65997-4.44,0-2.71002,1.37-5,3-5s3,2.28998,3,5c0,1.83997-.64001,3.53998-1.65997,4.44-.22003.19-.34003.45996-.34003.75v4.63995c-.65002.20001-1.31.37006-2,.52002v-5.15997c0-.29004-.12-.56-.34003-.75ZM40,40c-.54999,0-1,.45001-1,1v5.01001c-1.34998,1.25995-3.04999,2.29999-5,3.10999v-3.5c1.26001-1.32001,2-3.38,2-5.62,0-3.92004-2.20001-7-5-7s-5,3.07996-5,7c0,2.23999.73999,4.29999,2,5.62v5.08997c-1.29999.18005-2.63.29004-4,.29004s-2.70001-.10999-4-.29004v-4.29999l1.71002-1.70001c.17999-.19.28998-.44.28998-.70996v-10c0-.54999-.45001-1-1-1s-1,.45001-1,1v5h-2v-5c0-.54999-.45001-1-1-1s-1,.45001-1,1v5h-2v-5c0-.54999-.45001-1-1-1s-1,.45001-1,1v10c0,.26996.10999.51996.28998.70996l1.71002,1.70001v2.71002c-1.95001-.81-3.65002-1.85004-5-3.10999v-12.02002c3.35999-3.13,8.90997-4.98999,15-4.98999s11.64001,1.85999,15,4.98999v3.01001c0,.54999.45001,1,1,1s1-.45001,1-1v-12.65002l6-7.5v30.73999l-6,6v-12.58997c0-.54999-.45001-1-1-1ZM53.59003,55h-11.18005l5.59003-5.59003,5.59003,5.59003ZM48,13H16c-1.09998,0-2-.90002-2-2,0-1.10004.90002-2,2-2h32c1.09998,0,2,.89996,2,2,0,1.09998-.90002,2-2,2Z"/>
  <path d="M13,25h22c.55273,0,1-.44727,1-1s-.44727-1-1-1H13c-.55273,0-1,.44727-1,1s.44727,1,1,1Z"/>
</svg>