<?xml version="1.0" encoding="UTF-8"?>
<svg id="Outline" xmlns="http://www.w3.org/2000/svg" version="1.1" viewBox="0 0 64 64">
  <!-- Generator: Adobe Illustrator 29.3.1, SVG Export Plug-In . SVG Version: 2.1.0 Build 151)  -->
  <path d="M51.00121,11h-4.19l.19-2.94c.02002-.27002-.08002-.54004-.27002-.73999-.19-.21002-.44995-.32001-.72998-.32001H8.00121c-.37,0-.71002.20001-.88.52997-.17999.32001-.15997.72003.04999,1.02002l3.84003,5.77002,1.81,37.91998c.13,2.66998,2.32001,4.76001,4.98999,4.76001h21.42999c2.64001,0,4.83002-2.06,4.98999-4.69l2.21002-35.31h4.56v19c0,1.64996,1.34998,3,3,3s3-1.35004,3-3v-19c0-3.31-2.69-6-6-6ZM42.2412,52.19c-.09998,1.57001-1.41998,2.81-3,2.81h-21.42999c-1.59998,0-2.91998-1.25-2.98999-2.85999l-1.29999-27.22003,3.46997-.70001h.01001v27.78003c0,.54999.45001,1,1,1s1-.45001,1-1v-1h3c.54999,0,1-.45001,1-1s-.45001-1-1-1h-3v-4h1c.54999,0,1-.45001,1-1s-.45001-1-1-1h-1v-4h3c.54999,0,1-.45001,1-1s-.45001-1-1-1h-3v-4h1c.54999,0,1-.45001,1-1s-.45001-1-1-1h-1v-4h3c.54999,0,1-.45001,1-1s-.45001-1-1-1h-3v-1.08002c3.26001-.34998,6.57001-.01001,9.67999,1.03003,2.53998.83997,5.20001,1.26996,7.85999,1.26996,1.62,0,3.25-.15997,4.86005-.47998l2.51996-.5-1.67999,26.95001ZM44.0512,23.16998l-3.03998.60999c-3.89001.78003-7.92999.52002-11.69-.72998-3.33002-1.10999-6.85004-1.47998-10.32001-1.14001v-.90997h1c.54999,0,1-.45001,1-1s-.45001-1-1-1h-1v-4h3c.54999,0,1-.45001,1-1s-.45001-1-1-1h-3v-1c0-.54999-.45001-1-1-1s-1,.45001-1,1v10.19c-.13.02997-.27002.03998-.40002.07001l-3.17999.63995-.41998-8.94995c-.01001-.18005-.07001-.35004-.16998-.5l-2.96002-4.45001h35.07001l-.89001,14.16998ZM55.00121,36c0,.54999-.45001,1-1,1s-1-.45001-1-1v-19c0-1.10004-.90002-2-2-2h-4.44l.13-2h4.31c2.21002,0,4,1.78998,4,4v19Z"/>
</svg>