<?xml version="1.0" encoding="UTF-8"?>
<svg id="Outline" xmlns="http://www.w3.org/2000/svg" version="1.1" viewBox="0 0 64 64">
  <!-- Generator: Adobe Illustrator 29.5.1, SVG Export Plug-In . SVG Version: 2.1.0 Build 141)  -->
  <path d="M25.448,46.376c-1.33,1.668-3.316,2.624-5.448,2.624s-4.118-.956-5.448-2.624c-.344-.431-.974-.502-1.405-.157-.432.344-.502.973-.158,1.405,1.712,2.146,4.268,3.376,7.012,3.376s5.3-1.23,7.012-3.376c.344-.433.273-1.062-.158-1.405-.43-.345-1.061-.273-1.405.157Z"/>
  <path d="M49.448,26.376c-1.33,1.668-3.316,2.624-5.448,2.624s-4.118-.956-5.448-2.624c-.344-.432-.973-.502-1.405-.157-.432.344-.502.973-.158,1.405,1.712,2.146,4.268,3.376,7.012,3.376s5.3-1.23,7.012-3.376c.344-.433.273-1.062-.158-1.405-.431-.345-1.061-.274-1.405.157Z"/>
  <path d="M53.12,37h-22.19c-.61-4.49-5.28-8-10.93-8s-10.32,3.51-10.93,8h-1.07c-.55,0-1,.45-1,1v4c0,7.17,5.83,13,13,13,6.8,0,12.39-5.26,12.95-11.92l19.85,1.66c.11.01.22.01.32.01,2.092,0,3.88-1.785,3.88-3.87,0-2.14-1.74-3.88-3.88-3.88ZM20,31c4.52,0,8.27,2.61,8.9,6H11.1c.63-3.39,4.38-6,8.9-6ZM31,42c0,6.07-4.93,11-11,11s-11-4.93-11-11v-3h22v3ZM54.39,42.25c-.39.36-.89.53-1.42.49l-19.97-1.66v-2.08h20.12c1.04,0,1.88.84,1.88,1.88,0,.53-.21,1.02-.61,1.37Z"/>
  <path d="M56,17h-1.07c-.61-4.49-5.28-8-10.93-8s-10.32,3.51-10.93,8H10.88c-2.14,0-3.88,1.74-3.88,3.88,0,1.08.46,2.12,1.25,2.85.72.66,1.66,1.02,2.63,1.02.1,0,.21,0,.32-.01l19.85-1.66c.56,6.66,6.15,11.92,12.95,11.92,7.17,0,13-5.83,13-13v-4c0-.55-.45-1-1-1ZM31,21.08s-19.97,1.66-19.97,1.66c-1.076.081-2.03-.773-2.03-1.86,0-1.04.84-1.88,1.88-1.88h20.12v2.08ZM44,11c4.52,0,8.27,2.61,8.9,6h-17.8c.63-3.39,4.38-6,8.9-6ZM55,22c0,6.07-4.93,11-11,11s-11-4.93-11-11v-3h22v3Z"/>
</svg>