<?xml version="1.0" encoding="UTF-8"?>
<svg id="Outline" xmlns="http://www.w3.org/2000/svg" version="1.1" viewBox="0 0 64 64">
  <!-- Generator: Adobe Illustrator 29.5.1, SVG Export Plug-In . SVG Version: 2.1.0 Build 141)  -->
  <path d="M49,32.995h-1.12c-.31-1.38-.74-2.74-1.3-4.05l-.28-.64c-.99-2.3-2.91-4.07-5.28-4.86-.89-.3-1.82-.45-2.78-.45-1.6,0-3.13.43-4.47,1.23.19-.82.43-1.62.7-2.41.48.11.98.18,1.47.18,1.64,0,3.27-.63,4.52-1.87,2.25-2.26,3.9-10.96,4.08-11.95.06-.32-.04-.65-.28-.89-.23-.23-.56-.34-.88-.27-.99.18-9.7,1.82-11.95,4.08-1.21,1.21-1.87,2.81-1.87,4.52,0,1.7.66,3.3,1.87,4.51.36.37.76.67,1.19.93-.44,1.25-.77,2.53-1,3.83-2.3-1.82-5.35-2.39-8.19-1.44-1.17.39-2.23,1.02-3.16,1.87-1.076.984-1.815,2.277-2.39,3.64-.26.62-.47,1.19-.65,1.73-.17.52.11,1.09.64,1.26.53.18,1.09-.11,1.26-.64.16-.49.35-1,.59-1.58.472-1.104,1.007-2.111,1.9-2.94.72-.66,1.54-1.14,2.45-1.44,2.44-.81,5.09-.19,6.91,1.63l.32.32c-.04.58-.06,1.16-.07,1.75-.48-.15-.93-.39-1.3-.76-.39-.39-1.02-.39-1.41,0-.39.39-.39,1.03,0,1.42.99.99,2.31,1.53,3.71,1.53s2.71-.54,3.7-1.53c.39-.39.39-1.03,0-1.42s-1.02-.39-1.41,0c-.36.37-.81.61-1.29.76.01-.65.05-1.3.1-1.94l.14-.13c1.27-1.28,2.97-1.98,4.77-1.98.74,0,1.46.12,2.15.35,1.83.61,3.31,1.97,4.07,3.75l.28.65c.62,1.42,1.07,2.91,1.35,4.44.24,1.29.37,2.6.37,3.9,0,.31-.03.61-.04.91h-22.42c-.55,0-1,.45-1,1s.45,1,1,1h25c.73,0,1.41-.21,2-.56v6.56c0,1.1-.9,2-2,2v-5c0-.55-.45-1-1-1s-1,.45-1,1v5h-2v-3c0-.55-.45-1-1-1s-1,.45-1,1v3h-2v-5c0-.55-.45-1-1-1s-1,.45-1,1v5h-2v-3c0-.55-.45-1-1-1s-1,.45-1,1v3h-2v-5c0-.55-.45-1-1-1s-1,.45-1,1v5h-2v-3c0-.55-.45-1-1-1s-1,.45-1,1v3h-2v-5c0-.55-.45-1-1-1s-1,.45-1,1v5h-2v-3c0-.55-.45-1-1-1s-1,.45-1,1v3h-2v-5c0-.55-.45-1-1-1s-1,.45-1,1v5h-1c-.55,0-1-.45-1-1v-6c0-.55.45-1,1-1h6c.55,0,1-.45,1-1s-.45-1-1-1h-1.97c-.05-1.3.01-2.59.19-3.86.08-.54-.3-1.05-.85-1.13-.55-.08-1.05.3-1.13.85-.19,1.36-.26,2.74-.21,4.14h-2.03c-1.65,0-3,1.35-3,3v6c0,1.65,1.35,3,3,3h5.93c1.03,1.55,2.24,2.97,3.61,4.22,1.26,1.15,2.89,1.78,4.59,1.78,1.5,0,2.92-.48,4.1-1.38,1.21.92,2.65,1.39,4.1,1.39,1.64,0,3.28-.6,4.59-1.79,1.37-1.25,2.58-2.67,3.61-4.22h4.47c2.21,0,4-1.79,4-4v-10c0-2.21-1.79-4-4-4ZM33.37,19.145c-.18-.13-.36-.27-.53-.43-.83-.83-1.28-1.93-1.28-3.1,0-1.18.45-2.28,1.28-3.11,1.19-1.19,5.94-2.5,9.45-3.24-.74,3.51-2.05,8.25-3.25,9.45-1.04,1.04-2.48,1.43-3.83,1.21.52-1.17,1.13-2.3,1.85-3.38.31-.46.18-1.08-.28-1.38-.46-.31-1.08-.18-1.38.28-.79,1.18-1.46,2.42-2.03,3.7ZM39.58,53.735c-1.91,1.74-4.83,1.68-6.64-.15-.19-.18-.44-.29-.71-.29s-.52.11-.71.29c-.9.91-2.11,1.41-3.39,1.41-1.2,0-2.35-.45-3.25-1.26-.91-.83-1.74-1.75-2.49-2.74h19.68c-.75.99-1.58,1.91-2.49,2.74ZM49,38.995h-.58c.01-.3.04-.6.04-.91,0-1.03-.1-2.06-.24-3.09h.78c1.1,0,2,.9,2,2s-.9,2-2,2Z"/>
</svg>