<?xml version="1.0" encoding="UTF-8"?>
<svg id="Outline" xmlns="http://www.w3.org/2000/svg" version="1.1" viewBox="0 0 64 64">
  <!-- Generator: Adobe Illustrator 29.5.1, SVG Export Plug-In . SVG Version: 2.1.0 Build 141)  -->
  <path d="M56,28h-25v-1.05c0-1.59-.96-3.01-2.44-3.6l-2.17-.87c-.43-.17-.78-.5-.99-.91l-.71-1.42c-.66-1.33-1.99-2.15-3.47-2.15h-1.59c-1.35,0-2.63.72-3.33,1.89l-1.32,2.19c-.34.57-.96.92-1.61.92-1.85,0-3.45,1.31-3.81,3.12l-.38,1.88h-1.18c-.55,0-1,.45-1,1v4c0,7.17,5.83,13,13,13,6.16,0,11.32-4.31,12.65-10.06l23.43-1.94c.52-.05.92-.48.92-1v-4c0-.55-.45-1-1-1ZM11.52,26.52c.17-.88.95-1.52,1.85-1.52,1.35,0,2.63-.72,3.33-1.89l1.32-2.19c.34-.57.96-.92,1.61-.92h1.59c.72,0,1.36.4,1.68,1.04l.71,1.43c.43.85,1.15,1.51,2.04,1.87l2.16.86c.72.29,1.19.98,1.19,1.75v1.05H11.22l.3-1.48ZM31,33c0,6.07-4.93,11-11,11s-11-4.93-11-11v-3h22v3ZM55,32.08l-22.05,1.82c.02-.3.05-.6.05-.9v-3h22v2.08Z"/>
</svg>