<?xml version="1.0" encoding="UTF-8"?>
<svg id="Outline" xmlns="http://www.w3.org/2000/svg" version="1.1" viewBox="0 0 64 64">
  <!-- Generator: Adobe Illustrator 29.3.1, SVG Export Plug-In . SVG Version: 2.1.0 Build 151)  -->
  <path d="M54,9H8c-.54999,0-1,.45001-1,1v7c0,.32996.15997.64001.44006.82999.27863.18036.62041.22895.92994.1l3.03998-1.22003c.98004-.38995,2.09003-.33997,3.04004.13,1.58997.80005,3.51001.80005,5.09998,0l.15002-.07001c.89001-.44995,1.89996-.51996,2.83997-.19995l.99005.32996,3.46997,2.60004v10.5c0,.54999.45001,1,1,1,7.34003,0,14.75-.42999,22.03998-1.29004l6.08002-.71997c.5-.06.88-.47998.88-.98999V12c0-1.65002-1.34998-3-3-3ZM23,14.62c-1.40002-.41998-2.88-.29999-4.19.35999l-.15002.07001c-1.03998.52002-2.27997.52002-3.31995,0-1.46002-.72998-3.16003-.79999-4.68005-.19l-1.65997.65997v-4.51996h14v3.62ZM27,17l-2-1.5v-4.5h2v6ZM55,27.10999l-5.19.60999c-6.88.81-13.88,1.23999-20.81,1.28003v-2.01001c7.01001-.03998,14.08002-.46002,21.03998-1.28003l4.96002-.58997v1.98999ZM55,23.10999l-5.19.60999c-6.88.81-13.88,1.23004-20.81,1.27002v-13.98999h25c.54999,0,1,.45001,1,1v11.10999Z"/>
  <path d="M57,43c0-5.43506-4.90674-12-11-12s-11,6.56494-11,12c0,2.58301,1.10089,4.62372,3.10443,6H8c-.55225,0-1,.44775-1,1v4c0,.55225.44775,1,1,1h48c.55225,0,1-.44775,1-1v-4c0-.55225-.44775-1-1-1h-2.10443c2.00354-1.37628,3.10443-3.41699,3.10443-6ZM55,51v2H9v-2h46ZM37,43c0-4.50146,4.15283-10,9-10s9,5.49854,9,10c0,5.41553-6.29395,6-9,6s-9-.58447-9-6Z"/>
  <path d="M46,35c-3.60547,0-7,4.50684-7,8,0,1.82471,1.21436,4,7,4s7-2.17529,7-4c0-3.49316-3.39453-8-7-8ZM46,45c-1.86719,0-5-.25977-5-2,0-2.47852,2.58594-6,5-6s5,3.52148,5,6c0,1.74023-3.13281,2-5,2Z"/>
</svg>