<?xml version="1.0" encoding="UTF-8"?>
<svg id="Outline" xmlns="http://www.w3.org/2000/svg" version="1.1" viewBox="0 0 64 64">
  <!-- Generator: Adobe Illustrator 29.3.1, SVG Export Plug-In . SVG Version: 2.1.0 Build 151)  -->
  <path d="M52,23c.54999,0,1-.45001,1-1v-4h3c.54999,0,1-.45001,1-1v-4c0-.54999-.45001-1-1-1H8c-.54999,0-1,.45001-1,1v4c0,.54999.45001,1,1,1h3v4c0,.54999.45001,1,1,1h4v3.22998c-1.40997.41998-2.59003,1.40002-3.26001,2.76001l-4.82001,9.63c-.59998,1.19-.91998,2.52997-.91998,3.88,0,2.45001,1.03998,4.79999,2.84998,6.42999,1.48004,1.34998,3.39001,2.14996,5.37,2.25l15.04004.82001h.21997c.53003,0,1.04004-.09003,1.53003-.27002.46997.16998.96997.27002,1.48999.27002.08002,0,.15997,0,.23999-.01001l15.04004-.81c1.98999-.10999,3.89996-.91003,5.37994-2.25,2.86005-2.60004,3.66003-6.84003,1.92004-10.31l-4.81-9.63c-.67999-1.35999-1.87-2.33002-3.27002-2.76001v-3.22998h4ZM9,16v-2h46v2H9ZM13,21v-3h8v3h-8ZM16,28.39001c.46997-.25,1.01001-.39001,1.57001-.39001.48999,0,.98999.15997,1.39996.45996.40002.29004.70001.70001.85004,1.18005.91998,2.89996,2.25,5.62,3.96997,8.08997.57001.83002,1.21002,1.62,1.86005,2.38-2.47003.27002-4.85004.97998-7.04004,2.08002-1.67999-1.73004-2.60999-4.01001-2.60999-6.42999v-7.37ZM12.45001,46.95996l-.76001.87c-.16998-.12-.34003-.23999-.5-.37994-1.39001-1.26001-2.19-3.06-2.19-4.95001,0-1.04004.23999-2.07001.70001-2.98004l4.29999-8.58997v4.83002c0,2.76996,1.01001,5.38995,2.84003,7.44-1.62006,1.02997-3.10004,2.28998-4.39001,3.75995ZM29.15002,47.64001c0,.84998.25,1.63995.69,2.32996l-14.52002-.78998c-.62-.03003-1.22998-.16998-1.82001-.38l.46002-.52002c3.40997-3.89996,8.31-6.15997,13.47998-6.26001.81.79004,1.65002,1.55005,2.54999,2.25l.41003.32001c-.80005.81-1.25,1.90002-1.25,3.05005ZM25.42999,36.58997c-1.59998-2.29999-2.84998-4.84998-3.71002-7.54999-.27997-.89001-.82996-1.65997-1.57996-2.20001-.63-.45996-1.37-.72998-2.14001-.81v-3.02997h4c.54999,0,1-.45001,1-1v-4h18v4c0,.54999.45001,1,1,1h4v3.02997c-1.71997.17004-3.19,1.33002-3.71997,3.01001-1.72003,5.42999-5,10.15002-9.49005,13.65002l-.78998.60999-.78998-.60999c-2.23004-1.73004-4.17004-3.78003-5.78003-6.10004ZM46.42999,28c.56,0,1.09003.14001,1.57001.39001v7.37c0,2.41998-.92999,4.69995-2.60999,6.42999-2.19-1.10004-4.57001-1.81-7.04004-2.08002,2.61005-3.03998,4.61005-6.58002,5.84003-10.46002.31-.98999,1.21002-1.64996,2.23999-1.64996ZM48.66998,49.17999l-15.03998.82001c-.65002.02997-1.27002-.20001-1.73999-.65002-.48004-.45001-.73999-1.04999-.73999-1.70996,0-.73004.32996-1.41003.90997-1.85004l1.95001-1.52002c.89996-.69995,1.73999-1.45996,2.54999-2.25,5.16998.10004,10.07001,2.36005,13.47998,6.26001l.46002.52002c-.59003.21002-1.20001.34998-1.83002.38ZM50,35.76001v-4.83002l4.28998,8.58002c1.34003,2.66998.73004,5.94-1.47998,7.94-.15997.14996-.33002.25995-.5.38995l-.76001-.88c-1.28998-1.46997-2.76996-2.72998-4.39001-3.75995,1.83002-2.05005,2.84003-4.67004,2.84003-7.44ZM43,21v-3h8v3h-8Z"/>
</svg>