<?xml version="1.0" encoding="UTF-8"?>
<svg id="Outline" xmlns="http://www.w3.org/2000/svg" version="1.1" viewBox="0 0 64 64">
  <!-- Generator: Adobe Illustrator 29.3.1, SVG Export Plug-In . SVG Version: 2.1.0 Build 151)  -->
  <path d="M18,40c-3.85986,0-7,3.14062-7,7s3.14014,7,7,7,7-3.14062,7-7-3.14014-7-7-7ZM18,52c-2.75684,0-5-2.24316-5-5,0-2.41443,1.7207-4.43427,4-4.89893v4.89893c0,.55273.44775,1,1,1s1-.44727,1-1v-4.89893c2.2793.46466,4,2.4845,4,4.89893,0,2.75684-2.24316,5-5,5Z"/>
  <path d="M12,27h5c.55225,0,1-.44727,1-1s-.44775-1-1-1h-5c-.55225,0-1,.44727-1,1s.44775,1,1,1Z"/>
  <path d="M12,31h5c.55225,0,1-.44727,1-1s-.44775-1-1-1h-5c-.55225,0-1,.44727-1,1s.44775,1,1,1Z"/>
  <path d="M56,49h-1v-10.60999c0-7.80005-6.25-14.16003-14-14.37006v-1.01996c0-.54999-.45001-1-1-1h-4c-.54999,0-1,.45001-1,1v1h-2v-6h3c2.76001,0,5-2.23999,5-5,0-.54999-.45001-1-1-1h-3c0-2.76001-2.23999-5-5-5-.47998,0-.89001.33997-.97998.79999l-.84003,4.20001h-2.17999c0-2.76001-2.23999-5-5-5-.47998,0-.89001.33997-.97998.79999l-.84003,4.20001h-3.17999c-.54999,0-1,.45001-1,1,0,2.76001,2.23999,5,5,5h3v6h-2.87c-.08002-.66003-.13-1.32001-.13-2,0-.54999-.45001-1-1-1h-13c-.54999,0-1,.45001-1,1v34c0,.54999.45001,1,1,1h32c.54999,0,1-.45001,1-1v-16c0-.54999-.45001-1-1-1h-1c-4.69,0-8.95001-1.91003-12.03003-5h8.03003v1c0,.54999.45001,1,1,1h4c.54999,0,1-.45001,1-1v-.90002c2.28003.47003,4,2.48999,4,4.90002v10h-1c-.54999,0-1,.45001-1,1,0,3.85999,3.14001,7,7,7s7-3.14001,7-7c0-.54999-.45001-1-1-1ZM32.79999,9.10999c1.27002.34998,2.20001,1.51001,2.20001,2.89001h-2.78003l.58002-2.89001ZM23.79999,9.10999c1.27002.34998,2.20001,1.51001,2.20001,2.89001h-2.78003l.58002-2.89001ZM22,16c-1.29999,0-2.41998-.84003-2.83002-2h19.66003c-.41003,1.15997-1.53003,2-2.83002,2h-14ZM31,18v6h-4v-6h4ZM39,41v14H9V23h11.03003c.19995,3.95996,1.63995,7.59998,3.91998,10.56.03998.06.08997.12.14001.16998,3.47998,4.41998,8.85999,7.27002,14.90997,7.27002ZM35,32h-9.71997c-1.29004-1.77002-2.25-3.79999-2.79004-6h12.51001v6ZM39,34h-2v-10h2v10ZM41,32.07996v-6.06c6.65002.21002,12,5.67004,12,12.37006v10.60999h-6v-10c0-3.52002-2.60999-6.42999-6-6.92004ZM50,55c-2.40997,0-4.44-1.72003-4.90002-4h9.80005c-.46002,2.27997-2.49005,4-4.90002,4Z"/>
</svg>