<?xml version="1.0" encoding="UTF-8"?>
<svg id="Outline" xmlns="http://www.w3.org/2000/svg" version="1.1" viewBox="0 0 64 64">
  <!-- Generator: Adobe Illustrator 29.5.1, SVG Export Plug-In . SVG Version: 2.1.0 Build 141)  -->
  <path d="M32,30.999c1.773,0,3.487.516,4.956,1.493.461.306,1.081.18,1.386-.279.306-.46.181-1.081-.279-1.386-1.798-1.196-3.895-1.828-6.063-1.828-6.065,0-11,4.935-11,11s4.935,11,11,11,11-4.935,11-11c0-2.169-.632-4.266-1.828-6.063-.305-.459-.924-.585-1.386-.279-.46.306-.585.926-.279,1.386.977,1.469,1.493,3.183,1.493,4.956,0,4.962-4.038,9-9,9s-9-4.038-9-9,4.038-9,9-9Z"/>
  <path d="M46.96,36.309c-1.45-.9-2.16-2.62-1.78-4.27.08-.34.12-.66.12-.99,0-1.32-.6-2.56-1.65-3.39-1.03-.83-2.36-1.13-3.66-.85l3.99-18.6c.07-.36-.05-.73-.32-.96-.28-.24-.66-.31-1-.19l-10.66,3.88-10.66-3.88c-.34-.12-.72-.05-1,.19-.27.23-.39.6-.32.96l3.99,18.6c-1.69-.38-3.32.24-4.35,1.54-.83,1.04-1.14,2.38-.84,3.7.07.27.1.57.1.88,0,1.38-.7,2.64-1.88,3.38-1.28.81-2.04,2.18-2.04,3.69s.76,2.88,2.04,3.69c1.18.74,1.88,2,1.88,3.38,0,.31-.03.61-.1.89-.08.34-.12.66-.12.99,0,.22.02.44.06.67.1.54.63.9,1.17.79.54-.1.9-.62.79-1.17-.02-.09-.02-.19-.02-.29,0-.17.02-.35.06-.52.11-.44.16-.89.16-1.36,0-2.07-1.05-3.97-2.82-5.08-.7-.44-1.1-1.16-1.1-1.99s.4-1.55,1.1-1.99c1.77-1.11,2.82-3.01,2.82-5.08,0-.47-.05-.92-.15-1.34-.17-.72-.01-1.42.45-1.99.56-.71,1.45-1.05,2.35-.84,2.449.612,5.113-.545,6.44-2.66.44-.7,1.16-1.1,1.99-1.1s1.55.4,1.99,1.1c1.309,2.082,4.009,3.244,6.42,2.67.72-.17,1.42-.01,1.99.45.57.45.9,1.12.9,1.83,0,.17-.02.35-.06.53-.58,2.49.49,5.07,2.66,6.43.7.44,1.1,1.16,1.1,1.99s-.4,1.55-1.1,1.99c-1.77,1.11-2.82,3.01-2.82,5.08,0,.47.05.92.15,1.34.17.72.01,1.42-.45,1.99-.56.71-1.46,1.04-2.35.84-.44-.11-.89-.16-1.36-.16-2.07,0-3.97,1.05-5.08,2.82-.44.7-1.16,1.1-1.99,1.1s-1.55-.4-1.99-1.1c-1.11-1.77-3.01-2.82-5.08-2.82-.47,0-.92.05-1.35.16-.29.06-.57.07-.86.03-.55-.09-1.06.29-1.14.84-.08.55.3,1.06.84,1.14.54.08,1.08.06,1.63-.07.27-.07.57-.1.88-.1,1.38,0,2.64.7,3.38,1.88.81,1.28,2.18,2.04,3.69,2.04s2.88-.76,3.69-2.04c.74-1.18,2-1.88,3.38-1.88.31,0,.61.03.89.1,1.71.4,3.34-.22,4.38-1.53.83-1.04,1.14-2.38.84-3.7-.07-.27-.1-.57-.1-.88,0-1.38.7-2.64,1.88-3.38,1.28-.81,2.04-2.18,2.04-3.69s-.76-2.88-2.04-3.69ZM27,26.329c-.3.18-.62.33-.96.43l-3.68-17.2,4.64,1.69v15.08ZM35,24.199c-.8-.76-1.86-1.2-3-1.2s-2.2.44-3,1.2v-12.23l2.66.97c.22.08.46.08.68,0l2.66-.97v12.23ZM37.96,26.759c-.34-.1-.66-.25-.96-.43v-15.08l4.64-1.69-3.68,17.2Z"/>
</svg>