<?xml version="1.0" encoding="UTF-8"?>
<svg id="Outline" xmlns="http://www.w3.org/2000/svg" version="1.1" viewBox="0 0 64 64">
  <!-- Generator: Adobe Illustrator 29.5.1, SVG Export Plug-In . SVG Version: 2.1.0 Build 141)  -->
  <path d="M29,46c0,1.654,1.346,3,3,3s3-1.346,3-3-1.346-3-3-3-3,1.346-3,3ZM33,46c0,.552-.449,1-1,1s-1-.448-1-1,.449-1,1-1,1,.448,1,1Z"/>
  <path d="M45,7h-18c-.55,0-1,.45-1,1s.45,1,1,1h17v4h-10c-.55,0-1,.45-1,1s.45,1,1,1h3v14h-10v-14h3c.55,0,1-.45,1-1s-.45-1-1-1h-10v-4h3c.55,0,1-.45,1-1s-.45-1-1-1h-4c-.55,0-1,.45-1,1v16c0,.29.13.57.35.76,0,0,7,6,7,6,.184.146.414.24.65.24h1v1c0,2.2,1.43,4.04,3.4,4.71l-1.92,3.2-5.16.09c-.35.01-.67.2-.85.5-.17.3-.18.68-.01.98l2.5,4.52-2.5,4.52c-.17.3-.16.68.01.98.18.3.5.49.85.5l5.16.09,2.66,4.43c.18.3.51.48.86.48s.68-.18.86-.48l2.66-4.43,5.16-.09c.35-.01.67-.2.85-.5.17-.3.18-.68.01-.98l-2.5-4.52,2.5-4.52c.17-.3.16-.68-.01-.98-.18-.3-.5-.49-.85-.5l-5.16-.09-1.92-3.2c1.97-.67,3.4-2.51,3.4-4.71v-1s1,0,1,0c.227,0,.476-.091.65-.24l7-6c.22-.19.35-.47.35-.76V8c0-.55-.45-1-1-1ZM25,27.83l-5-4.29v-8.54h5v12.83ZM34.09,41.41c.18.3.49.48.84.48l4.05.08-1.96,3.55c-.17.3-.17.66,0,.96l1.96,3.55-4.05.08c-.35,0-.66.18-.84.48l-2.09,3.47-2.09-3.47c-.18-.3-.49-.48-.84-.48l-4.05-.08,1.96-3.55c.17-.3.17-.66,0-.96l-1.96-3.55,4.05-.08c.35,0,.66-.18.84-.48l2.09-3.47,2.09,3.47ZM35,32c0,1.65-1.35,3-3,3s-3-1.35-3-3v-1h6v1ZM44,23.54l-5,4.29v-12.83h5v8.54Z"/>
</svg>