<?xml version="1.0" encoding="UTF-8"?>
<svg id="Outline" xmlns="http://www.w3.org/2000/svg" version="1.1" viewBox="0 0 64 64">
  <!-- Generator: Adobe Illustrator 29.3.1, SVG Export Plug-In . SVG Version: 2.1.0 Build 151)  -->
  <path d="M35,28.09998v-9.09998c0-1.65002-1.34998-3-3-3s-3,1.34998-3,3v.38l-11.23999,5.62h-9.76001c-.54999,0-1,.45001-1,1v3c0,.54999.45001,1,1,1s1-.45001,1-1v-2h8v12h-8v-2c0-.54999-.45001-1-1-1s-1,.45001-1,1v3c0,.54999.45001,1,1,1h1v3c0,.54999.45001,1,1,1h1v11c0,.54999.45001,1,1,1h6c.37,0,.71002-.20001.88-.53003.17999-.32001.15997-.71997-.04999-1.01996-1.20001-1.80005-1.83002-3.89001-1.83002-6.06v-4.39001h1c.54999,0,1-.45001,1-1v-2.38l10,5v.38c0,1.64996,1.34998,3,3,3s3-1.35004,3-3v-9.10004c2.28003-.46997,4-2.48999,4-4.89996s-1.71997-4.42999-4-4.90002ZM13,55v-10h2v4.39001c0,1.95996.44,3.87,1.28003,5.60999h-3.28003ZM17,43h-6v-2h6v2ZM29,44.38l-10-5v-12.76001l10-5v22.76001ZM33,47c0,.54999-.45001,1-1,1s-1-.45001-1-1v-28c0-.54999.45001-1,1-1s1,.45001,1,1v28ZM35,35.82001v-5.64001c1.15997.41998,2,1.52002,2,2.82001s-.84003,2.39996-2,2.82001Z"/>
  <path d="M47,12.49512c-1.36621-.80811-3.16016-.62305-4.33154.54834-1.38916,1.38916-1.38916,3.6499,0,5.03906l3.62451,3.62451c.19531.19531.45117.29297.70703.29297s.51172-.09766.70703-.29297l3.62451-3.62451c1.38916-1.38916,1.38916-3.6499,0-5.03955-1.17285-1.17188-2.96729-1.35547-4.33154-.54785ZM49.91748,16.66846l-2.91748,2.91748-2.91748-2.91748c-.60938-.60938-.60938-1.60156,0-2.21045.30469-.30469.70508-.45703,1.10547-.45703.3999,0,.80029.15234,1.10498.45703.39062.38965,1.02344.38965,1.41406,0,.60889-.60938,1.60059-.60889,2.21045-.00049.60938.60938.60938,1.60156,0,2.21094Z"/>
  <path d="M47,7c-5.51416,0-10,4.48584-10,10,0,2.33545.79492,4.54785,2.25684,6.3291l-1.96387,1.96387c-.28613.28613-.37158.71582-.2168,1.08984.15479.37354.51953.61719.92383.61719h9c5.51416,0,10-4.48584,10-10s-4.48584-10-10-10ZM47,25h-6.58594l.9292-.9292c.1875-.1875.29297-.44189.29297-.70703s-.10547-.51953-.29297-.70703c-1.51123-1.51074-2.34326-3.51953-2.34326-5.65674,0-4.41113,3.58887-8,8-8s8,3.58887,8,8-3.58887,8-8,8Z"/>
  <circle cx="8" cy="33" r="1"/>
</svg>