<?xml version="1.0" encoding="UTF-8"?>
<svg id="Outline" xmlns="http://www.w3.org/2000/svg" version="1.1" viewBox="0 0 64 64">
  <!-- Generator: Adobe Illustrator 29.5.1, SVG Export Plug-In . SVG Version: 2.1.0 Build 141)  -->
  <path d="M36.91974,25.38239c.53851-.81085.82928-1.76111.82928-2.75665,0-1.33594-.52051-2.59131-1.46484-3.53564-1.70697-1.70782-4.35211-1.91803-6.29236-.63562l-6.43518-6.43518c-1.1709-1.17041-3.07422-1.16943-4.24316,0s-1.16895,3.07275,0,4.24219l.24054.24054-5.33563,13.34082-6.92542,6.92499c-.1875.1875-.29297.44189-.29297.70703s.10547.51953.29297.70703l9.89941,9.89941c.19531.19531.45117.29297.70703.29297s.51172-.09766.70703-.29297l.70709-.70709,2.12201,2.12164c.1875.1875.44238.29297.70703.29297.26562,0,.51953-.10547.70703-.29297l.70721-.70734,7.77814,7.77814c.1875.1875.44141.29297.70703.29297s.51953-.10547.70703-.29297l4.24219-4.24268c.26074-.26074.35742-.64404.25-.99707-.10645-.35303-.39941-.61816-.76074-.69043-2.11914-.42383-4.0459-1.45508-5.57422-2.98291l-3.1076-3.1076.70721-.70734c.39062-.39062.39062-1.02344,0-1.41406l-1.7561-1.7561,12.12085-4.84888.2417.2417c.58496.58447,1.35352.87646,2.12109.87646.76855,0,1.53711-.29199,2.12207-.87646v-.00049c1.16992-1.16943,1.16992-3.07275,0-4.24268l-6.43573-6.43573ZM34.87012,20.50415c.56641.56689.87891,1.31982.87891,2.12158,0,.45398-.11047.88763-.30042,1.28552l-3.98364-3.98364c1.11469-.52808,2.48517-.34308,3.40515.57654ZM17.89941,45.96021l-8.48535-8.48535,5.65723-5.65674,8.48535,8.48535-5.65723,5.65674ZM22.14258,47.37476l-1.41486-1.41455,4.24298-4.24268,1.41406,1.41406-4.24219,4.24316ZM29.49219,49.06763c1.38281,1.38281,3.04297,2.42236,4.86816,3.05859l-2.31836,2.31934-7.07123-7.07123,1.41394-1.41418,3.10748,3.10748ZM25.21167,39.13037l-8.96686-8.96686,4.84827-12.12231,16.23956,16.2403-12.12097,4.84888ZM41.94141,34.64673c-.38965.38867-1.02344.39062-1.41504,0L20.72754,14.84741c-.38956-.38956-.38965-1.02411-.00028-1.41378.34993-.3502,1.03509-.37955,1.41532-.00028l7.07178,7.07178,12.72705,12.72705c.38965.39014.38965,1.02441,0,1.41455Z"/>
  <path d="M47,7.14038c-5.60742,0-10,2.63574-10,6,0,1.12402.50488,2.21191,1.44238,3.14404l-1.14941,1.14893c-.28613.28613-.37207.71582-.2168,1.08984.1543.37354.51953.61719.92383.61719h9c5.60742,0,10-2.63574,10-6s-4.39258-6-10-6ZM47,17.14038h-6.58594l.21289-.21289c.20801-.2085.31445-.49805.28906-.7915-.02441-.29346-.17773-.56104-.41797-.73145-.55957-.39648-1.49805-1.21729-1.49805-2.26416,0-1.89209,3.28516-4,8-4s8,2.10791,8,4-3.28516,4-8,4Z"/>
  <circle cx="47" cy="13.14038" r="1"/>
  <circle cx="43" cy="13.14038" r="1"/>
  <circle cx="51" cy="13.14038" r="1"/>
</svg>