<?xml version="1.0" encoding="UTF-8"?>
<svg id="Outline" xmlns="http://www.w3.org/2000/svg" version="1.1" viewBox="0 0 64 64">
  <!-- Generator: Adobe Illustrator 29.5.1, SVG Export Plug-In . SVG Version: 2.1.0 Build 141)  -->
  <path d="M51.89,26.27c.12-.23.15-.5.07-.75-.09-.26-.26-.46-.5-.58-3.62-1.8-6.14-5.27-6.73-9.27-.04-.26-.18-.49-.4-.65-.21-.15-.48-.22-.74-.17-3.98.67-8.05-.65-10.89-3.54-.37-.38-1.03-.38-1.4,0-2.83,2.89-6.91,4.21-10.89,3.54-.26-.05-.53.02-.74.17-.22.16-.36.39-.4.65-.59,4-3.11,7.47-6.73,9.27-.24.12-.41.32-.5.58-.08.25-.05.52.07.75,1.86,3.59,1.86,7.87,0,11.46-.12.23-.15.5-.07.75.09.26.26.46.5.58,3.62,1.8,6.14,5.27,6.73,9.27.04.26.18.49.4.65.21.15.48.22.74.17,3.98-.67,8.06.65,10.89,3.54.18.19.44.29.7.29s.52-.1.7-.29c2.83-2.89,6.9-4.21,10.89-3.54.26.05.53-.02.74-.17.22-.16.36-.39.4-.65.59-4,3.11-7.47,6.73-9.27.24-.12.41-.32.5-.58.08-.25.05-.52-.07-.75-1.86-3.59-1.86-7.87,0-11.46ZM49.73,37.76c-3.45,2.03-5.91,5.41-6.77,9.32-3.99-.4-7.97.9-10.96,3.56-2.64-2.34-6.05-3.63-9.55-3.63-.47,0-.94.03-1.41.07-.86-3.91-3.32-7.29-6.77-9.32,1.6-3.67,1.6-7.85,0-11.52,3.45-2.03,5.91-5.41,6.77-9.32,3.99.39,7.97-.9,10.96-3.56,2.99,2.66,6.97,3.95,10.96,3.56.86,3.91,3.32,7.29,6.77,9.32-1.6,3.67-1.6,7.85,0,11.52Z"/>
  <path d="M21.5,35h2.5c.553,0,1-.447,1-1s-.447-1-1-1h-2.5c-1.379,0-2.5,1.121-2.5,2.5s1.121,2.5,2.5,2.5h1c.275,0,.5.225.5.5s-.225.5-.5.5h-2.5c-.553,0-1,.447-1,1s.447,1,1,1h2.5c1.379,0,2.5-1.121,2.5-2.5s-1.121-2.5-2.5-2.5h-1c-.275,0-.5-.225-.5-.5s.225-.5.5-.5Z"/>
  <path d="M29,33c-1.654,0-3,1.346-3,3v4c0,.553.447,1,1,1s1-.447,1-1v-1h2v1c0,.553.447,1,1,1s1-.447,1-1v-4c0-1.654-1.346-3-3-3ZM28,37v-1c0-.552.448-1,1-1s1,.448,1,1v1h-2Z"/>
  <path d="M37,39h-2v-5c0-.553-.447-1-1-1s-1,.447-1,1v6c0,.553.447,1,1,1h3c.553,0,1-.447,1-1s-.447-1-1-1Z"/>
  <path d="M44,35c.553,0,1-.447,1-1s-.447-1-1-1h-4c-.553,0-1,.447-1,1v6c0,.553.447,1,1,1h4c.553,0,1-.447,1-1s-.447-1-1-1h-3v-1h3c.553,0,1-.447,1-1s-.447-1-1-1h-3v-1h3Z"/>
  <path d="M30,31c.553,0,1-.447,1-1s-.447-1-1-1h-3v-1h3c.553,0,1-.447,1-1s-.447-1-1-1h-3v-1h3c.553,0,1-.447,1-1s-.447-1-1-1h-4c-.553,0-1,.447-1,1v6c0,.553.447,1,1,1h4Z"/>
  <path d="M20,30v-1.764l.105.211c.34.678,1.449.678,1.789,0l.105-.211v1.764c0,.553.447,1,1,1s1-.447,1-1v-6c0-.464-.319-.866-.771-.974-.449-.104-.917.11-1.124.526l-1.105,2.211-1.105-2.211c-.207-.416-.676-.631-1.124-.526-.451.107-.771.51-.771.974v6c0,.553.447,1,1,1s1-.447,1-1Z"/>
  <path d="M37,27h-1c-.553,0-1,.447-1,1,0,.37.201.693.5.866-.147.085-.318.134-.5.134-.552,0-1-.448-1-1v-2c0-.552.448-1,1-1,.356,0,.688.191.867.501.274.478.885.643,1.366.364.478-.276.642-.888.364-1.366-.534-.925-1.53-1.499-2.598-1.499-1.654,0-3,1.346-3,3v2c0,1.654,1.346,3,3,3s3-1.346,3-3c0-.553-.447-1-1-1Z"/>
  <path d="M32,7c-13.79,0-25,11.21-25,25s11.21,25,25,25,25-11.21,25-25S45.79,7,32,7ZM32,55c-12.68,0-23-10.32-23-23s10.32-23,23-23,23,10.32,23,23-10.32,23-23,23Z"/>
  <path d="M43,23c-1.65,0-3,1.35-3,3v4c0,.55.45,1,1,1s1-.45,1-1v-1h2v1c0,.55.45,1,1,1s1-.45,1-1v-4c0-1.65-1.35-3-3-3ZM44,27h-2v-1c0-.55.45-1,1-1s1,.45,1,1v1Z"/>
</svg>