<?xml version="1.0" encoding="UTF-8"?>
<svg id="Outline" xmlns="http://www.w3.org/2000/svg" version="1.1" viewBox="0 0 48 48">
  <!-- Generator: Adobe Illustrator 29.0.0, SVG Export Plug-In . SVG Version: 2.1.0 Build 186)  -->
  <path d="M40,15h-9v-7c0-1.6543-1.3457-3-3-3H8c-1.6543,0-3,1.3457-3,3v32c0,1.6543,1.3457,3,3,3h20c1.6543,0,3-1.3457,3-3v-5h9c1.6543,0,3-1.3457,3-3v-14c0-1.6543-1.3457-3-3-3ZM41,18v1H15v-1c0-.55176.44824-1,1-1h24c.55176,0,1,.44824,1,1ZM25,15h-9c-1.6543,0-3,1.3457-3,3v14c0,1.6543,1.3457,3,3,3h9v2h-14V11h1.58594l1.70703,1.70703c.1875.1875.44141.29297.70703.29297h6c.26562,0,.51953-.10547.70703-.29297l1.70703-1.70703h1.58594v4ZM29,40c0,.55176-.44824,1-1,1H8c-.55176,0-1-.44824-1-1V8c0-.55176.44824-1,1-1h20c.55176,0,1,.44824,1,1v7h-2v-5c0-.55273-.44727-1-1-1h-3c-.26562,0-.51953.10547-.70703.29297l-1.70703,1.70703h-5.17188l-1.70703-1.70703c-.1875-.1875-.44141-.29297-.70703-.29297h-3c-.55273,0-1,.44727-1,1v28c0,.55273.44727,1,1,1h16c.55273,0,1-.44727,1-1v-3h2v5ZM40,33h-24c-.55176,0-1-.44824-1-1v-11h26v11c0,.55176-.44824,1-1,1Z"/>
  <path d="M30.59863,25.5c-.27734-.47852-.89062-.64258-1.36621-.36621l-.23242.13416v-.26794c0-.55273-.44727-1-1-1s-1,.44727-1,1v.26794l-.23242-.13416c-.47754-.27637-1.08984-.1123-1.36621.36621s-.1123,1.08984.36621,1.36621l.23175.13379-.23175.13379c-.4785.27636-.64257.88767-.36623,1.36618.27226.47145.89513.63837,1.36623.36624l.23242-.13416v.26794c0,.55273.44727,1,1,1s1-.44727,1-1v-.26794l.23242.13416c.45971.26534,1.08973.11108,1.36621-.36621.27637-.47852.1123-1.08984-.36621-1.36621l-.23175-.13379.23175-.13379c.47852-.27637.64258-.8877.36621-1.36621Z"/>
  <path d="M37.59863,25.5c-.27734-.47852-.88965-.64258-1.36621-.36621l-.23242.13416v-.26794c0-.55273-.44727-1-1-1s-1,.44727-1,1v.26794l-.23242-.13416c-.47754-.27637-1.08984-.1123-1.36621.36621s-.1123,1.08984.36621,1.36621l.23175.13379-.23175.13379c-.47852.27637-.64258.8877-.36621,1.36621.18555.32031.52148.5.86719.5.16992,0,.3418-.04297.49902-.13379l.23242-.13416v.26794c0,.55273.44727,1,1,1s1-.44727,1-1v-.26794s.23242.13416.23246.13418c.47336.27341,1.09304.10529,1.36618-.36623.27637-.47852.1123-1.08984-.36621-1.36621l-.23175-.13379.23175-.13379c.47852-.27637.64258-.8877.36621-1.36621Z"/>
  <path d="M23.59863,25.5c-.27637-.47852-.88965-.64258-1.36621-.36621l-.23242.13416v-.26794c0-.55273-.44727-1-1-1s-1,.44727-1,1v.26794l-.23242-.13416c-.47852-.27637-1.08984-.1123-1.36621.36621s-.1123,1.08984.36621,1.36621l.23175.13379-.23175.13379c-.47849.27635-.64256.88764-.36625,1.36614.26859.46513.90152.63473,1.36625.36628l.23242-.13416v.26794c0,.55273.44727,1,1,1s1-.44727,1-1v-.26794l.23242.13416c.45985.26543,1.08962.11127,1.36621-.36621.27637-.47852.1123-1.08984-.36621-1.36621l-.23175-.13379.23175-.13379c.47852-.27637.64258-.8877.36621-1.36621Z"/>
</svg>