<?xml version="1.0" encoding="UTF-8"?>
<svg id="Outline" xmlns="http://www.w3.org/2000/svg" version="1.1" viewBox="0 0 48 48">
  <!-- Generator: Adobe Illustrator 29.0.0, SVG Export Plug-In . SVG Version: 2.1.0 Build 186)  -->
  <path d="M40,14.9775h-11.53003l-.14996-.96002,2.70001-2.76001c.26001-.26001.34998-.64996.23999-1.01001-.12-.34998-.41998-.60999-.79004-.66998l-3.79999-.64001-1.77997-3.41998c-.35004-.65997-1.42999-.65997-1.78003,0l-1.77997,3.41998-3.79999.64001c-.37006.06-.67004.32001-.79004.66998-.10999.36005-.02002.75.23999,1.01001l2.70001,2.76001-.14996.96002h-11.53003c-1.65002,0-3,1.34998-3,3v22c0,1.64996,1.34998,3,3,3h32c1.65002,0,3-1.35004,3-3v-22c0-1.65002-1.34998-3-3-3ZM22.15002,10.82748c.31-.06.57996-.25.71997-.52997l1.13-2.16003,1.13,2.16003c.14001.27997.40997.46997.71997.52997l2.40002.40002-1.70001,1.73999c-.21997.22998-.32001.53998-.27997.84998l.35999,2.41003-2.17999-1.08002c-.15002-.07001-.29999-.10999-.45001-.10999s-.29999.03998-.45001.10999l-2.17999,1.08002.35999-2.41003c.04004-.31-.06-.62-.27997-.84998l-1.70001-1.73999,2.40002-.40002ZM41,18.9775h-10c-.54999,0-1,.45001-1,1s.45001,1,1,1h10v19c0,.54999-.45001,1-1,1H8c-.54999,0-1-.45001-1-1v-19h10c.54999,0,1-.45001,1-1s-.45001-1-1-1H7v-1c0-.54999.45001-1,1-1h11.23999l-.13.84998c-.04999.37.10004.73999.40002.96002.31.21997.70001.25,1.03998.08997l3.45001-1.71997s3.45001,1.71997,3.4503,1.72011c.33916.16942.73656.13223,1.03969-.09011.29999-.22003.45001-.59003.40002-.96002l-.13-.84998h11.23999c.54999,0,1,.45001,1,1v1Z"/>
  <path d="M17,22.9775c-4.41113,0-8,3.58887-8,8s3.58887,8,8,8,8-3.58887,8-8-3.58887-8-8-8ZM17,36.9775c-1.77386,0-3.36536-.77814-4.46472-2.00568,1.12488-1.25983,2.74634-1.99432,4.46472-1.99432,1.60303,0,3.11035.62402,4.24316,1.75684.0799.0799.13538.1687.20911.25122-1.099,1.21954-2.68512,1.99194-4.45227,1.99194ZM16,29.9775c0-.55127.44873-1,1-1s1,.44873,1,1-.44873,1-1,1-1-.44873-1-1ZM22.5575,33.22982c-.85114-.82343-1.85364-1.43243-2.94421-1.80847.23883-.4303.38672-.91779.38672-1.44385,0-1.6543-1.3457-3-3-3s-3,1.3457-3,3c0,.52808.14893,1.01727.3894,1.44873-1.10034.38037-2.10303.99854-2.94324,1.81354-.28571-.69885-.44617-1.46179-.44617-2.26227,0-3.30859,2.69141-6,6-6s6,2.69141,6,6c0,.79675-.1593,1.55609-.4425,2.25232Z"/>
  <path d="M38,22.9775h-10c-.55225,0-1,.44775-1,1v4c0,.55225.44775,1,1,1h10c.55225,0,1-.44775,1-1v-4c0-.55225-.44775-1-1-1ZM37,26.9775h-8v-2h8v2Z"/>
  <path d="M28,32.9775h6c.55225,0,1-.44775,1-1s-.44775-1-1-1h-6c-.55225,0-1,.44775-1,1s.44775,1,1,1Z"/>
  <path d="M38,34.9775h-10c-.55225,0-1,.44775-1,1s.44775,1,1,1h10c.55225,0,1-.44775,1-1s-.44775-1-1-1Z"/>
</svg>