<?xml version="1.0" encoding="UTF-8"?>
<svg id="Outline" xmlns="http://www.w3.org/2000/svg" version="1.1" viewBox="0 0 48 48">
  <!-- Generator: Adobe Illustrator 29.0.0, SVG Export Plug-In . SVG Version: 2.1.0 Build 186)  -->
  <path d="M42,27.97912c.54999,0,1-.45001,1-1v-5c0-1.65002-1.34998-3-3-3h-4.17999l-11.35999-12.94c-.53003-.60004-1.26001-.96002-2.06-1.01001-.79004-.06-1.57001.21002-2.17004.73999l-3.76001,3.28998c-.19995.17004-.31995.42004-.33997.68005-.02002.26996.07001.52997.25.72998,1.08997,1.23999.96997,3.14001-.28003,4.23999-.59998.53003-1.35999.78998-2.16998.73999-.79999-.06-1.52997-.41998-2.06-1.01996-.35999-.42004-.98999-.46002-1.40997-.09003l-3.76001,3.29999c-.70001.62-1.06,1.53003-1,2.44-.42999.52002-.70001,1.16998-.70001,1.90002v5c0,.54999.45001,1,1,1,1.65002,0,3,1.34998,3,3s-1.34998,3-3,3c-.54999,0-1,.45001-1,1v5c0,1.64996,1.34998,3,3,3h32c1.65002,0,3-1.35004,3-3v-5c0-.54999-.45001-1-1-1-1.65002,0-3-1.35004-3-3s1.34998-3,3-3ZM11.09998,16.42914c1.86005,1.40997,4.51001,1.37,6.32001-.22003,1-.88,1.60004-2.09998,1.69-3.42999.07001-1-.15997-1.97003-.64001-2.81l3.08002-2.70001c.20001-.17999.46002-.27002.72003-.25.26996.02002.51001.14001.69.34003l10.19995,11.62H8.20001l2.89996-2.54999ZM41,35.87909v4.10004c0,.54999-.45001,1-1,1H8c-.54999,0-1-.45001-1-1v-4.10004c2.28003-.45996,4-2.48999,4-4.89996s-1.71997-4.44-4-4.90002v-4.09998c0-.54999.45001-1,1-1h32c.54999,0,1,.45001,1,1v4.09998c-2.28003.46002-4,2.48999-4,4.90002s1.71997,4.44,4,4.89996Z"/>
  <path d="M17,22.97912c-.55273,0-1,.44775-1,1v2c0,.55225.44727,1,1,1s1-.44775,1-1v-2c0-.55225-.44727-1-1-1Z"/>
  <path d="M17,34.97912c-.55273,0-1,.44775-1,1v2c0,.55225.44727,1,1,1s1-.44775,1-1v-2c0-.55225-.44727-1-1-1Z"/>
  <path d="M17,28.97912c-.55273,0-1,.44775-1,1v2c0,.55225.44727,1,1,1s1-.44775,1-1v-2c0-.55225-.44727-1-1-1Z"/>
  <path d="M34.16602,28.57629l-3.80371-.64062-1.78418-3.41943c-.17285-.33008-.51367-.53711-.88672-.53711-.37207,0-.71387.20703-.88672.53711l-1.78516,3.41943-3.80273.64062c-.36719.06201-.66992.32324-.78516.67725-.11523.35449-.02344.74316.2373,1.00928l2.69922,2.75439-.56543,3.81543c-.05469.36816.10058.73632.40135.95556.70438.51344,1.74607-.26787,2.40582-.59579.69383-.34486,1.38767-.68971,2.0815-1.03457l3.45312,1.7168c.33203.16553.73145.13379,1.0332-.08643.30078-.21875.45605-.58691.40137-.95557l-.56543-3.81543,2.7002-2.75439c.26074-.26611.35254-.65527.2373-1.00928s-.41797-.61523-.78516-.67725ZM30.23828,31.9718c-.21973.22363-.32129.53711-.27539.84668l.35742,2.4126-2.18359-1.08545c-.28125-.13965-.60938-.13965-.89062,0l-2.1836,1.08545.35743-2.4126c.0459-.30957-.05566-.62305-.27539-.84668l-1.70704-1.74121,2.4043-.40527c.30859-.05225.5752-.24609.7207-.52344l1.12891-2.16211,1.12793,2.16211c.14551.27734.41211.47119.7207.52344l2.40527.40527-1.70703,1.74121Z"/>
</svg>