<?xml version="1.0" encoding="UTF-8"?>
<svg id="Outline" xmlns="http://www.w3.org/2000/svg" version="1.1" viewBox="0 0 48 48">
  <!-- Generator: Adobe Illustrator 29.0.0, SVG Export Plug-In . SVG Version: 2.1.0 Build 186)  -->
  <path d="M37.29297,32.29297l-3.29297,3.29297-1.29297-1.29297c-.39062-.39062-1.02344-.39062-1.41406,0s-.39062,1.02344,0,1.41406l2,2c.19531.19531.45117.29297.70703.29297s.51172-.09766.70703-.29297l4-4c.39062-.39062.39062-1.02344,0-1.41406s-1.02344-.39062-1.41406,0Z"/>
  <path d="M37,27.26001V10c0-1.65002-1.34998-3-3-3h-1.17999c-.41998-1.16003-1.52002-2-2.82001-2h-4c-1.29999,0-2.40002.83997-2.82001,2h-4.35999c-.41998-1.16003-1.52002-2-2.82001-2h-4c-1.29999,0-2.40002.83997-2.82001,2h-1.17999c-1.65002,0-3,1.34998-3,3v26c0,1.64996,1.34998,3,3,3h20.08002c1.38995,2.39001,3.96997,4,6.91998,4,4.40997,0,8-3.59003,8-8,0-3.72003-2.56-6.85004-6-7.73999ZM26,7h4c.54999,0,1,.45001,1,1s-.45001,1-1,1h-4c-.54999,0-1-.45001-1-1s.45001-1,1-1ZM12,7h4c.54999,0,1,.45001,1,1s-.45001,1-1,1h-4c-.54999,0-1-.45001-1-1s.45001-1,1-1ZM7,10c0-.54999.45001-1,1-1h1.17999c.41998,1.15997,1.52002,2,2.82001,2h4c1.29999,0,2.40002-.84003,2.82001-2h4.35999c.41998,1.15997,1.52002,2,2.82001,2h4c1.29999,0,2.40002-.84003,2.82001-2h1.17999c.54999,0,1,.45001,1,1v3H7v-3ZM8,37c-.54999,0-1-.45001-1-1v-1.17999c.31.10999.65002.17999,1,.17999h19c0,.69.09998,1.35999.26001,2H8ZM27.26001,33H8c-.54999,0-1-.45001-1-1V15h28v12c-3.71997,0-6.84998,2.56-7.73999,6ZM35,41c-3.31,0-6-2.69-6-6s2.69-6,6-6,6,2.69,6,6-2.69,6-6,6Z"/>
  <path d="M26,22.17188v-.17188c0-2.75684-2.24316-5-5-5s-5,2.24316-5,5v.17188c0,1.55664-.60645,3.02051-1.70703,4.12109-.28613.28613-.37158.71582-.2168,1.08984.15479.37305.51953.61719.92383.61719h2.14197c.4472,1.72052,1.99969,3,3.85803,3s3.41083-1.27948,3.85803-3h2.14197c.4043,0,.76904-.24414.92383-.61719.15479-.37402.06934-.80371-.2168-1.08984-1.10059-1.10059-1.70703-2.56445-1.70703-4.12109ZM18,22.17188v-.17188c0-1.6543,1.3457-3,3-3s3,1.3457,3,3v.17188c0,1.3623.3457,2.67188.99561,3.82812h-7.99121c.6499-1.15625.99561-2.46582.99561-3.82812ZM21,29c-.737,0-1.37482-.40521-1.72174-1h3.44348c-.34692.59479-.98474,1-1.72174,1Z"/>
</svg>