<?xml version="1.0" encoding="UTF-8"?>
<svg id="Outline" xmlns="http://www.w3.org/2000/svg" version="1.1" viewBox="0 0 48 48">
  <!-- Generator: Adobe Illustrator 29.0.0, SVG Export Plug-In . SVG Version: 2.1.0 Build 186)  -->
  <path d="M40,13h-6v-1c0-1.65002-1.34998-3-3-3h-3v-3c0-.54999-.45001-1-1-1h-6c-.54999,0-1,.45001-1,1v3h-3c-1.65002,0-3,1.34998-3,3v1h-6c-1.65002,0-3,1.34998-3,3v24c0,1.64996,1.34998,3,3,3h32c1.65002,0,3-1.35004,3-3v-24c0-1.65002-1.34998-3-3-3ZM22,7h4v2h-4v-2ZM16,12c0-.54999.45001-1,1-1h14c.54999,0,1,.45001,1,1v1h-16v-1ZM23,41h-15c-.54999,0-1-.45001-1-1v-24c0-.54999.45001-1,1-1h15v26ZM41,40c0,.54999-.45001,1-1,1h-15V15h15c.54999,0,1,.45001,1,1v24Z"/>
  <path d="M20,33h-10c-.55273,0-1,.44775-1,1v4c0,.55225.44727,1,1,1h10c.55273,0,1-.44775,1-1v-4c0-.55225-.44727-1-1-1ZM19,37h-8v-2h8v2Z"/>
  <path d="M17.89001,23.75c.69-.72003,1.10999-1.67999,1.10999-2.75,0-2.21002-1.78998-4-4-4s-4,1.78998-4,4c0,1.07001.41998,2.02997,1.10999,2.75-1.84998,1.01996-3.10999,2.98999-3.10999,5.25v1c0,.54999.45001,1,1,1h10c.54999,0,1-.45001,1-1v-1c0-2.26001-1.26001-4.23004-3.10999-5.25ZM15,19c1.09998,0,2,.89996,2,2,0,1.09998-.90002,2-2,2s-2-.90002-2-2c0-1.10004.90002-2,2-2ZM11,29c0-2.21002,1.78998-4,4-4s4,1.78998,4,4h-8Z"/>
  <path d="M28,19h8c.55273,0,1-.44775,1-1s-.44727-1-1-1h-8c-.55273,0-1,.44775-1,1s.44727,1,1,1Z"/>
  <path d="M28,23h6c.55273,0,1-.44775,1-1s-.44727-1-1-1h-6c-.55273,0-1,.44775-1,1s.44727,1,1,1Z"/>
  <path d="M38,25h-10c-.55273,0-1,.44775-1,1s.44727,1,1,1h10c.55273,0,1-.44775,1-1s-.44727-1-1-1Z"/>
  <path d="M38,29h-10c-.55273,0-1,.44775-1,1s.44727,1,1,1h10c.55273,0,1-.44775,1-1s-.44727-1-1-1Z"/>
  <path d="M38,33h-10c-.55273,0-1,.44775-1,1v4c0,.55225.44727,1,1,1h10c.55273,0,1-.44775,1-1v-4c0-.55225-.44727-1-1-1ZM37,37h-8v-2h8v2Z"/>
</svg>