<?xml version="1.0" encoding="UTF-8"?>
<svg id="Outline" xmlns="http://www.w3.org/2000/svg" version="1.1" viewBox="0 0 48 48">
  <!-- Generator: Adobe Illustrator 29.0.0, SVG Export Plug-In . SVG Version: 2.1.0 Build 186)  -->
  <path d="M40,11h-1v-3c0-1.65002-1.34998-3-3-3H12c-1.65002,0-3,1.34998-3,3v3h-1c-1.65002,0-3,1.34998-3,3v20c0,1.64996,1.34998,3,3,3h11.35999c-.64996.88-1.57996,1.51996-2.66998,1.79999l-.92999.22998c-.45001.11005-.76001.51001-.76001.97003v2c0,.54999.45001,1,1,1h16c.54999,0,1-.45001,1-1v-2c0-.46002-.31-.85999-.76001-.97003l-.92999-.22998c-1.09003-.28003-2.02002-.91998-2.66998-1.79999h11.35999c1.65002,0,3-1.35004,3-3V14c0-1.65002-1.34998-3-3-3ZM11,8c0-.54999.45001-1,1-1h24c.54999,0,1,.45001,1,1v1H11v-1ZM11,11h26v19c0,.54999-.45001,1-1,1H12c-.54999,0-1-.45001-1-1V11ZM30.83002,40.73999l.16998.03998v.22003h-14v-.22003l.16998-.03998c2.02002-.51001,3.66003-1.88,4.51001-3.73999h4.64001c.84998,1.85999,2.48999,3.22998,4.51001,3.73999ZM41,34c0,.54999-.45001,1-1,1H8c-.54999,0-1-.45001-1-1V14c0-.54999.45001-1,1-1h1v17c0,1.64996,1.34998,3,3,3h24c1.65002,0,3-1.35004,3-3V13h1c.54999,0,1,.45001,1,1v20Z"/>
  <path d="M24,29c4.41113,0,8-3.58887,8-8s-3.58887-8-8-8-8,3.58887-8,8,3.58887,8,8,8ZM24,27c-1.7738,0-3.36536-.77814-4.46472-2.00568,1.12482-1.25958,2.74597-1.99432,4.46472-1.99432,1.60303,0,3.10986.62402,4.24316,1.75684.0799.0799.13531.16876.20905.25128-1.099,1.21954-2.68506,1.99188-4.45221,1.99188ZM23,20c0-.55176.44873-1,1-1s1,.44824,1,1-.44873,1-1,1-1-.44824-1-1ZM24,15c3.30859,0,6,2.69141,6,6,0,.79675-.1593,1.55609-.4425,2.25232-.85126-.8233-1.85394-1.43225-2.94434-1.80829.23889-.43036.38684-.91791.38684-1.44403,0-1.6543-1.3457-3-3-3s-3,1.3457-3,3c0,.52795.14886,1.01715.38928,1.44855-1.1004.38019-2.10315.99835-2.94324,1.81342-.28564-.69879-.44604-1.46161-.44604-2.26196,0-3.30859,2.69141-6,6-6Z"/>
</svg>