<?xml version="1.0" encoding="UTF-8"?>
<svg id="Outline" xmlns="http://www.w3.org/2000/svg" version="1.1" viewBox="0 0 48 48">
  <!-- Generator: Adobe Illustrator 29.0.0, SVG Export Plug-In . SVG Version: 2.1.0 Build 186)  -->
  <path d="M40,15h-9v-7c0-1.65002-1.34998-3-3-3H8c-1.65002,0-3,1.34998-3,3v32c0,1.64996,1.34998,3,3,3h20c1.65002,0,3-1.35004,3-3v-5h9c1.65002,0,3-1.35004,3-3v-14c0-1.65002-1.34998-3-3-3ZM29,40c0,.54999-.45001,1-1,1H8c-.54999,0-1-.45001-1-1V8c0-.54999.45001-1,1-1h20c.54999,0,1,.45001,1,1v7h-2v-5c0-.54999-.45001-1-1-1h-3c-.27002,0-.52002.10999-.71002.28998l-1.69995,1.71002h-5.18005l-1.69995-1.71002c-.19-.17999-.44-.28998-.71002-.28998h-3c-.54999,0-1,.45001-1,1v28c0,.54999.45001,1,1,1h16c.54999,0,1-.45001,1-1v-3h2v5ZM16,35h9v2h-14V11h1.59003l1.69995,1.70996c.19.18005.44.29004.71002.29004h6c.27002,0,.52002-.10999.71002-.29004l1.69995-1.70996h1.59003v4h-9c-1.65002,0-3,1.34998-3,3v14c0,1.64996,1.34998,3,3,3ZM41,32c0,.54999-.45001,1-1,1h-24c-.54999,0-1-.45001-1-1v-14c0-.54999.45001-1,1-1h24c.54999,0,1,.45001,1,1v14Z"/>
  <path d="M24.47998,23.68469c.32758-.48065.52002-1.06036.52002-1.68469,0-1.6543-1.3457-3-3-3s-3,1.3457-3,3c0,.62433.19244,1.20404.52002,1.68469-1.49799.86469-2.52002,2.46509-2.52002,4.31531v2c0,.55273.44727,1,1,1h8c.55273,0,1-.44727,1-1v-2c0-1.85022-1.02203-3.45062-2.52002-4.31531ZM21,22c0-.55176.44824-1,1-1s1,.44824,1,1-.44824,1-1,1-1-.44824-1-1ZM25,29h-6v-1c0-1.6543,1.3457-3,3-3s3,1.3457,3,3v1Z"/>
  <path d="M30,21h6c.55273,0,1-.44727,1-1s-.44727-1-1-1h-6c-.55273,0-1,.44727-1,1s.44727,1,1,1Z"/>
  <path d="M38,23h-8c-.55273,0-1,.44727-1,1s.44727,1,1,1h8c.55273,0,1-.44727,1-1s-.44727-1-1-1Z"/>
  <path d="M36,27h-6c-.55273,0-1,.44727-1,1s.44727,1,1,1h6c.55273,0,1-.44727,1-1s-.44727-1-1-1Z"/>
</svg>