<?xml version="1.0" encoding="UTF-8"?>
<svg id="Outline" xmlns="http://www.w3.org/2000/svg" version="1.1" viewBox="0 0 64 64">
  <!-- Generator: Adobe Illustrator 29.5.1, SVG Export Plug-In . SVG Version: 2.1.0 Build 141)  -->
  <path d="M49,18h2c0,1.65,1.35,3,3,3s3-1.35,3-3v-8c0-1.65-1.35-3-3-3s-3,1.35-3,3h-2c0-1.65-1.35-3-3-3s-3,1.35-3,3h-22c0-1.65-1.35-3-3-3s-3,1.35-3,3h-2c0-1.65-1.35-3-3-3s-3,1.35-3,3v8c0,1.65,1.35,3,3,3s3-1.35,3-3h2c0,1.3.84,2.4,2,2.82v2.18h-1c-1.65,0-3,1.35-3,3v1h-3c-1.65,0-3,1.35-3,3v24c0,1.65,1.35,3,3,3h44c1.65,0,3-1.35,3-3v-24c0-1.65-1.35-3-3-3h-3v-1c0-1.65-1.35-3-3-3h-1v-2.18c1.16-.42,2-1.52,2-2.82ZM53,10c0-.55.45-1,1-1s1,.45,1,1v8c0,.55-.45,1-1,1s-1-.45-1-1v-8ZM49,12h2v4h-2v-4ZM11,18c0,.55-.45,1-1,1s-1-.45-1-1v-8c0-.55.45-1,1-1s1,.45,1,1v8ZM15,16h-2v-4h2v4ZM17,10c0-.55.45-1,1-1s1,.45,1,1v8c0,.55-.45,1-1,1s-1-.45-1-1v-8ZM15,26c0-.55.45-1,1-1h4c.55,0,1,.45,1,1v1h-6v-1ZM54,29c.55,0,1,.45,1,1v24c0,.55-.45,1-1,1H10c-.55,0-1-.45-1-1v-24c0-.55.45-1,1-1h14c.55,0,1-.45,1-1s-.45-1-1-1h-1v-1c0-1.65-1.35-3-3-3h-1v-2.18c1.16-.42,2-1.52,2-2.82h16c.55,0,1-.45,1-1s-.45-1-1-1h-16v-4h22v4h-2c-.55,0-1,.45-1,1s.45,1,1,1h2c0,1.3.84,2.4,2,2.82v2.18h-1c-1.65,0-3,1.35-3,3v1h-13c-.55,0-1,.45-1,1s.45,1,1,1h26ZM48,25c.55,0,1,.45,1,1v1h-6v-1c0-.55.45-1,1-1h4ZM46,19c-.55,0-1-.45-1-1v-8c0-.55.45-1,1-1s1,.45,1,1v8c0,.55-.45,1-1,1Z"/>
  <path d="M24.447,38.105c-.893-.446-1.447-1.344-1.447-2.342v-3.764c0-.553-.447-1-1-1h-4c-.553,0-1,.447-1,1v3.764c0,.998-.555,1.896-1.447,2.342-1.574.788-2.553,2.371-2.553,4.131v9.764c0,.553.447,1,1,1h12c.553,0,1-.447,1-1v-9.764c0-1.76-.979-3.343-2.553-4.131ZM25,51h-10v-8.764c0-.998.555-1.896,1.447-2.342,1.574-.788,2.553-2.371,2.553-4.131v-2.764h2v2.764c0,1.76.979,3.343,2.553,4.131.893.446,1.447,1.344,1.447,2.342v8.764Z"/>
  <path d="M32,53c.553,0,1-.447,1-1v-20c0-.553-.447-1-1-1s-1,.447-1,1v20c0,.553.447,1,1,1Z"/>
  <path d="M36,33h16c.553,0,1-.447,1-1s-.447-1-1-1h-16c-.553,0-1,.447-1,1s.447,1,1,1Z"/>
  <path d="M36,37h12c.553,0,1-.447,1-1s-.447-1-1-1h-12c-.553,0-1,.447-1,1s.447,1,1,1Z"/>
  <path d="M36,41h12c.553,0,1-.447,1-1s-.447-1-1-1h-12c-.553,0-1,.447-1,1s.447,1,1,1Z"/>
  <path d="M36,45h16c.553,0,1-.447,1-1s-.447-1-1-1h-16c-.553,0-1,.447-1,1s.447,1,1,1Z"/>
  <path d="M36,49h8c.553,0,1-.447,1-1s-.447-1-1-1h-8c-.553,0-1,.447-1,1s.447,1,1,1Z"/>
  <path d="M36,53h16c.553,0,1-.447,1-1s-.447-1-1-1h-16c-.553,0-1,.447-1,1s.447,1,1,1Z"/>
</svg>