<?xml version="1.0" encoding="UTF-8"?>
<svg id="Outline" xmlns="http://www.w3.org/2000/svg" version="1.1" viewBox="0 0 64 64">
  <!-- Generator: Adobe Illustrator 29.5.1, SVG Export Plug-In . SVG Version: 2.1.0 Build 141)  -->
  <path d="M18,26h2c1.654,0,3-1.346,3-3v-2c0-1.654-1.346-3-3-3h-2c-1.654,0-3,1.346-3,3v2c0,1.654,1.346,3,3,3ZM17,21c0-.551.448-1,1-1h2c.552,0,1,.449,1,1v2c0,.551-.448,1-1,1h-2c-.552,0-1-.449-1-1v-2Z"/>
  <path d="M54,18h-26c-1.654,0-3,1.346-3,3v2c0,1.654,1.346,3,3,3h26c1.654,0,3-1.346,3-3v-2c0-1.654-1.346-3-3-3ZM55,23c0,.551-.448,1-1,1h-26c-.552,0-1-.449-1-1v-2c0-.551.448-1,1-1h26c.552,0,1,.449,1,1v2Z"/>
  <path d="M19,33v-2c0-1.654-1.346-3-3-3h-2c-1.654,0-3,1.346-3,3v2c0,1.654,1.346,3,3,3h2c1.654,0,3-1.346,3-3ZM17,33c0,.551-.448,1-1,1h-2c-.552,0-1-.449-1-1v-2c0-.551.448-1,1-1h2c.552,0,1,.449,1,1v2Z"/>
  <path d="M54,28h-30c-1.654,0-3,1.346-3,3v2c0,1.654,1.346,3,3,3h30c1.654,0,3-1.346,3-3v-2c0-1.654-1.346-3-3-3ZM55,33c0,.551-.448,1-1,1h-30c-.552,0-1-.449-1-1v-2c0-.551.448-1,1-1h30c.552,0,1,.449,1,1v2Z"/>
  <path d="M12,38h-2c-1.654,0-3,1.346-3,3v2c0,1.654,1.346,3,3,3h2c1.654,0,3-1.346,3-3v-2c0-1.654-1.346-3-3-3ZM13,43c0,.551-.448,1-1,1h-2c-.552,0-1-.449-1-1v-2c0-.551.448-1,1-1h2c.552,0,1,.449,1,1v2Z"/>
  <path d="M54,38H20c-1.654,0-3,1.346-3,3v2c0,1.654,1.346,3,3,3h34c1.654,0,3-1.346,3-3v-2c0-1.654-1.346-3-3-3ZM55,43c0,.551-.448,1-1,1H20c-.552,0-1-.449-1-1v-2c0-.551.448-1,1-1h34c.552,0,1,.449,1,1v2Z"/>
</svg>