<?xml version="1.0" encoding="UTF-8"?>
<svg id="Outline" xmlns="http://www.w3.org/2000/svg" version="1.1" viewBox="0 0 64 64">
  <!-- Generator: Adobe Illustrator 29.5.1, SVG Export Plug-In . SVG Version: 2.1.0 Build 141)  -->
  <path d="M32,25h-1c0-4.07-3.06-7.44-7-7.93v-1.07c0-.55-.45-1-1-1s-1,.45-1,1v1.07c-3.94.49-7,3.86-7,7.93h-1c-.55,0-1,.45-1,1s.45,1,1,1h18c.55,0,1-.45,1-1s-.45-1-1-1ZM17,25c0-3.31,2.69-6,6-6s6,2.69,6,6h-12Z"/>
  <path d="M18,30c0-.552-.447-1-1-1h-4c-.553,0-1,.448-1,1v4c0,.552.447,1,1,1h4c.553,0,1-.448,1-1v-4ZM16,33h-2v-2h2v2Z"/>
  <path d="M21,31h10c.553,0,1-.448,1-1s-.447-1-1-1h-10c-.553,0-1,.448-1,1s.447,1,1,1Z"/>
  <path d="M21,35h6c.553,0,1-.448,1-1s-.447-1-1-1h-6c-.553,0-1,.448-1,1s.447,1,1,1Z"/>
  <path d="M17,37h-4c-.553,0-1,.448-1,1v4c0,.552.447,1,1,1h4c.553,0,1-.448,1-1v-4c0-.552-.447-1-1-1ZM16,41h-2v-2h2v2Z"/>
  <path d="M34,38c0-.552-.447-1-1-1h-12c-.553,0-1,.448-1,1s.447,1,1,1h12c.553,0,1-.448,1-1Z"/>
  <path d="M21,41c-.553,0-1,.448-1,1s.447,1,1,1h8c.553,0,1-.448,1-1s-.447-1-1-1h-8Z"/>
  <path d="M56,17h-22.103l-.913-5.174c-.084-.478-.499-.826-.984-.826h-11c-.553,0-1,.448-1,1s.447,1,1,1h10.161l5.646,32H9V13h4c.553,0,1-.448,1-1s-.447-1-1-1h-5c-.553,0-1,.448-1,1v34c0,.552.447,1,1,1h23v5c0,.13.027.26.077.382.1.243.298.44.541.541.122.051.252.077.382.077h24c.553,0,1-.448,1-1V18c0-.552-.447-1-1-1ZM35.586,47l-2.586,2.586v-2.586h2.586ZM55,51h-20.586l4.293-4.293c.012-.012.015-.028.026-.04.185-.204.301-.56.251-.841l-4.734-26.826h20.75v32Z"/>
  <path d="M38,23h14c.553,0,1-.448,1-1s-.447-1-1-1h-14c-.553,0-1,.448-1,1s.447,1,1,1Z"/>
  <path d="M52,25h-8c-.553,0-1,.448-1,1s.447,1,1,1h8c.553,0,1-.448,1-1s-.447-1-1-1Z"/>
  <path d="M52,29h-12c-.553,0-1,.448-1,1s.447,1,1,1h12c.553,0,1-.448,1-1s-.447-1-1-1Z"/>
  <path d="M52,33h-12c-.553,0-1,.448-1,1s.447,1,1,1h12c.553,0,1-.448,1-1s-.447-1-1-1Z"/>
  <circle cx="17" cy="12" r="1"/>
</svg>