<?xml version="1.0" encoding="UTF-8"?>
<svg id="Outline" xmlns="http://www.w3.org/2000/svg" version="1.1" viewBox="0 0 64 64">
  <!-- Generator: Adobe Illustrator 29.5.1, SVG Export Plug-In . SVG Version: 2.1.0 Build 141)  -->
  <path d="M32.707,13.542c-3.161-3.161-8.171-3.372-11.578-.634-3.415-2.735-8.429-2.524-11.586.634-3.384,3.384-3.385,8.898,0,12.295l4.154,4.145c-.792.957-1.838,1.679-3.012,2.068-.398.132-.672.499-.685.918-.013.42.237.803.627.959,2.245.902,4.739.872,6.952-.064l2.843,2.843c.195.195.451.293.707.293s.512-.098.707-.293l2.69-2.69c.391-.391.391-1.023,0-1.414s-1.023-.391-1.414,0l-1.983,1.983-2.633-2.633c-.308-.309-.783-.381-1.169-.18-1.081.563-2.26.829-3.458.81.772-.599,1.445-1.329,1.981-2.162.255-.396.199-.917-.134-1.25l-4.758-4.748c-2.606-2.614-2.606-6.861,0-9.467s6.853-2.604,9.467,0c.391.39,1.023.389,1.413,0,2.607-2.606,6.849-2.606,9.456,0,2.605,2.605,2.605,6.853,0,9.466l-5.35,5.35c-.391.391-.391,1.023,0,1.414s1.023.391,1.414,0l5.351-5.351c3.384-3.395,3.383-8.909,0-12.293Z"/>
  <path d="M28,21.999c0-1.654-1.346-3-3-3s-3,1.346-3,3,1.346,3,3,3,3-1.346,3-3ZM25,22.999c-.551,0-1-.449-1-1s.449-1,1-1,1,.449,1,1-.449,1-1,1Z"/>
  <path d="M14,21.999c0,1.654,1.346,3,3,3s3-1.346,3-3-1.346-3-3-3-3,1.346-3,3ZM18,21.999c0,.551-.449,1-1,1s-1-.449-1-1,.449-1,1-1,1,.449,1,1Z"/>
  <path d="M54.457,29.542c-3.158-3.158-8.171-3.37-11.586-.634-3.408-2.738-8.417-2.527-11.578.634-3.384,3.384-3.385,8.898,0,12.294l3.69,3.69c.391.391,1.023.391,1.414,0s.391-1.023,0-1.414l-3.689-3.689c-2.606-2.614-2.606-6.861,0-9.467,2.607-2.606,6.849-2.606,9.456,0,.39.391,1.022.391,1.413,0,2.614-2.606,6.861-2.606,9.467,0s2.605,6.853,0,9.465l-4.76,4.75c-.333.333-.389.853-.134,1.25.536.833,1.209,1.563,1.981,2.162-1.205.02-2.377-.247-3.458-.81-.386-.201-.86-.129-1.169.18l-2.633,2.633-3.643-3.643c-.391-.391-1.023-.391-1.414,0s-.391,1.023,0,1.414l4.35,4.35c.195.195.451.293.707.293s.512-.098.707-.293l2.843-2.843c2.212.935,4.707.966,6.952.064.39-.156.64-.539.627-.959-.013-.419-.287-.786-.685-.918-1.173-.389-2.22-1.111-3.012-2.068l4.155-4.147c3.384-3.395,3.383-8.909,0-12.293Z"/>
  <path d="M42,37.999c0-1.654-1.346-3-3-3s-3,1.346-3,3,1.346,3,3,3,3-1.346,3-3ZM38,37.999c0-.551.449-1,1-1s1,.449,1,1-.449,1-1,1-1-.449-1-1Z"/>
  <path d="M50,37.999c0-1.654-1.346-3-3-3s-3,1.346-3,3,1.346,3,3,3,3-1.346,3-3ZM46,37.999c0-.551.449-1,1-1s1,.449,1,1-.449,1-1,1-1-.449-1-1Z"/>
</svg>