<?xml version="1.0" encoding="UTF-8"?>
<svg id="Outline" xmlns="http://www.w3.org/2000/svg" version="1.1" viewBox="0 0 64 64">
  <!-- Generator: Adobe Illustrator 29.3.1, SVG Export Plug-In . SVG Version: 2.1.0 Build 151)  -->
  <path d="M22,37h12c.55273,0,1-.44727,1-1s-.44727-1-1-1h-12c-.55273,0-1,.44727-1,1s.44727,1,1,1Z"/>
  <path d="M22,41h8c.55273,0,1-.44727,1-1s-.44727-1-1-1h-8c-.55273,0-1,.44727-1,1s.44727,1,1,1Z"/>
  <path d="M24.69727,45l2.74805,1.83203c.16797.1123.36133.16797.55469.16797s.38672-.05566.55469-.16797l2.74805-1.83203h4.69727c1.6543,0,3-1.3457,3-3v-8c0-1.6543-1.3457-3-3-3h-16c-1.6543,0-3,1.3457-3,3v8c0,1.6543,1.3457,3,3,3h4.69727ZM19,42v-8c0-.55176.44824-1,1-1h16c.55176,0,1,.44824,1,1v8c0,.55176-.44824,1-1,1h-5c-.19727,0-.39062.05859-.55469.16797l-2.44531,1.62988-2.44531-1.62988c-.16406-.10938-.35742-.16797-.55469-.16797h-5c-.55176,0-1-.44824-1-1Z"/>
  <path d="M45,20h-2c-.55273,0-1,.44727-1,1s.44727,1,1,1h1v3c0,.55273.44727,1,1,1s1-.44727,1-1v-4c0-.55273-.44727-1-1-1Z"/>
  <path d="M44,16c-.34003,0-.66998.02997-1,.07996v-6.07996c0-1.65002-1.34998-3-3-3h-24c-1.65002,0-3,1.34998-3,3v20c0,.54999.45001,1,1,1s1-.45001,1-1V14c0-.54999.45001-1,1-1h24c.54999,0,1,.45001,1,1v2.69c-.75.34998-1.42999.82996-2,1.41998v-.10999c0-1.65002-1.34998-3-3-3h-16c-1.65002,0-3,1.34998-3,3v8c0,1.64996,1.34998,3,3,3h16c1.12,0,2.09003-.63,2.60999-1.54004.64001.78003,1.46002,1.41003,2.39001,1.85004v19.87c-.31-.10999-.65002-.17999-1-.17999h-24c-.34998,0-.69.07001-1,.17999v-11.17999c0-.54999-.45001-1-1-1s-1,.45001-1,1v16c0,1.64996,1.34998,3,3,3h24c1.65002,0,3-1.35004,3-3v-24.08002c.33002.04999.65997.08002,1,.08002,3.85999,0,7-3.14001,7-7s-3.14001-7-7-7ZM37,26c0,.54999-.45001,1-1,1h-16c-.54999,0-1-.45001-1-1v-8c0-.54999.45001-1,1-1h16c.54999,0,1,.45001,1,1v8ZM24.56,55h-8.56c-.54999,0-1-.45001-1-1v-2c0-.54999.45001-1,1-1h8.56c-.34998.58997-.56,1.26996-.56,2,0,.72998.21002,1.40997.56,2ZM28,55c-1.09998,0-2-.90002-2-2,0-1.10004.90002-2,2-2s2,.89996,2,2c0,1.09998-.90002,2-2,2ZM41,54c0,.54999-.45001,1-1,1h-8.56c.34998-.59003.56-1.27002.56-2,0-.73004-.21002-1.41003-.56-2h8.56c.54999,0,1,.45001,1,1v2ZM40,11h-24c-.34998,0-.69.07001-1,.17999v-1.17999c0-.54999.45001-1,1-1h24c.54999,0,1,.45001,1,1v1.17999c-.31-.10999-.65002-.17999-1-.17999ZM44,28c-2.76001,0-5-2.23999-5-5s2.23999-5,5-5,5,2.23999,5,5-2.23999,5-5,5Z"/>
  <path d="M34,19h-12c-.55273,0-1,.44727-1,1s.44727,1,1,1h12c.55273,0,1-.44727,1-1s-.44727-1-1-1Z"/>
  <path d="M34,23h-12c-.55273,0-1,.44727-1,1s.44727,1,1,1h12c.55273,0,1-.44727,1-1s-.44727-1-1-1Z"/>
  <circle cx="14" cy="34" r="1"/>
</svg>