<?xml version="1.0" encoding="UTF-8"?>
<svg id="Outline" xmlns="http://www.w3.org/2000/svg" version="1.1" viewBox="0 0 64 64">
  <!-- Generator: Adobe Illustrator 29.5.1, SVG Export Plug-In . SVG Version: 2.1.0 Build 141)  -->
  <path d="M56.693,27.59l-9-20c-.16-.36-.52-.59-.91-.59s-.75.23-.91.59l-9,20c-.14.31-.11.67.07.95.18.29.5.46.84.46h5.59l2.7,2.71c.2.19.45.29.71.29s.51-.1.71-.29l2.7-2.71h5.59c.34,0,.66-.17.84-.46.18-.28.21-.64.07-.95ZM42.933,27h-3.6l5.54-12.32-1.94,12.32ZM46.783,29.59l-1.93-1.94,1.93-12.24,1.93,12.24-1.93,1.94ZM50.633,27l-1.94-12.32,5.54,12.32h-3.6Z"/>
  <path d="M17.501,43c-.983,0-1.922.291-2.718.833-.796-.542-1.734-.833-2.718-.833-1.295,0-2.511.504-3.426,1.419s-1.42,2.131-1.42,3.425.505,2.511,1.42,3.426l5.437,5.437c.188.188.441.293.707.293s.52-.105.707-.293l5.437-5.437c.915-.915,1.42-2.131,1.42-3.426s-.505-2.51-1.42-3.425-2.131-1.419-3.426-1.419ZM19.512,49.856l-4.729,4.73-4.729-4.73c-.537-.538-.834-1.252-.834-2.012s.297-1.474.834-2.011c.537-.537,1.251-.833,2.012-.833s1.474.296,2.011.833c.375.375,1.039.375,1.414,0,1.075-1.075,2.949-1.074,4.022,0,.537.538.834,1.252.834,2.011s-.297,1.474-.834,2.012Z"/>
  <path d="M25.397,48.21c-.436-.338-1.064-.259-1.403.176-.34.436-.261,1.064.175,1.403l1.579,1.228c.417.325,1.068.255,1.403-.176.34-.436.261-1.064-.175-1.403l-1.579-1.228Z"/>
  <path d="M33.426,53.524c-.971-.145-1.894-.54-2.668-1.143l-.53-.413c-.437-.339-1.064-.262-1.403.175-.339.436-.261,1.064.175,1.403l.53.413c1.046.813,2.291,1.347,3.602,1.542.05.007.1.011.148.011.487,0,.914-.356.988-.852.081-.546-.295-1.055-.842-1.137Z"/>
  <path d="M35.637,45.74c.083-.823.541-1.529,1.256-1.938.162-.092.332-.166.506-.22.527-.165.821-.726.656-1.252-.163-.528-.728-.82-1.252-.657-.311.097-.613.229-.9.392-1.266.723-2.109,2.022-2.256,3.475-.127,1.262,1.861,1.49,1.99.2Z"/>
  <path d="M49.699,45.598c.76.003,1.286-.89.823-1.563-.125-.181-.258-.359-.401-.536-.683-.834-1.229-1.766-1.623-2.77-.202-.515-.784-.768-1.296-.565-.515.202-.768.782-.565,1.296.471,1.198,1.122,2.31,1.935,3.304.107.132.209.266.303.403.19.279.506.429.825.43Z"/>
  <path d="M50.882,47.485c-.593-.009-1.01.427-1.021.979-.024,1.17-.418,2.333-1.106,3.275-.325.446-.229,1.071.218,1.397.44.323,1.076.222,1.397-.217.928-1.27,1.457-2.837,1.491-4.412.012-.552-.427-1.01-.979-1.021Z"/>
  <path d="M45.967,53.759l-.232.071c-.51.146-1.035.219-1.563.219h-.004c-.559,0-1.114-.083-1.65-.247-.531-.163-1.088.137-1.249.665-.16.528.137,1.087.665,1.248.727.221,1.478.333,2.233.333h.006c.712,0,1.423-.1,2.113-.296.104-.03.207-.062.309-.095.524-.173.81-.738.637-1.263-.173-.525-.735-.81-1.264-.637Z"/>
  <path d="M41.152,50.615c-.438-.338-1.065-.257-1.402.182-.149.194-.311.377-.482.549l-2.217-2.709c-.352-.428-.98-.49-1.407-.141-.428.35-.491.98-.142,1.407l2.141,2.615-.421.252c-.126.075-.253.146-.383.21-.494.247-.694.848-.447,1.342.241.482.86.688,1.342.447.175-.087.347-.182.517-.284l.944-.566c.831-.499,1.551-1.139,2.14-1.902.337-.438.256-1.065-.182-1.402Z"/>
  <path d="M41.89,48.598c.017,0,.032,0,.049,0,.53,0,.973-.417.998-.953.005-.115.008-.231.009-.356,0-1.084-.224-2.139-.666-3.134-.176-.395-.404-.761-.682-1.087-.354-.42-.985-.475-1.409-.117-.421.357-.474.988-.116,1.41.153.181.281.385.379.606.328.738.494,1.52.494,2.313,0,.09-.002.181-.007.271-.026.551.399,1.02.951,1.046Z"/>
  <path d="M46.783,37.977c.553,0,1-.472,1-1.024v-1.952c0-.552-.447-1-1-1s-1,.448-1,1v2c0,.552.447.976,1,.976Z"/>
</svg>