<?xml version="1.0" encoding="UTF-8"?>
<svg id="Outline" xmlns="http://www.w3.org/2000/svg" version="1.1" viewBox="0 0 64 64">
  <!-- Generator: Adobe Illustrator 29.5.1, SVG Export Plug-In . SVG Version: 2.1.0 Build 141)  -->
  <path d="M56.707,41.29c-1.636-1.636-2.537-3.814-2.537-6.133v-.473c2.198-3.43,3.144-7.404,2.735-11.516-.83-8.473-7.587-15.234-16.065-16.077-8.499-.838-16.355,4.329-18.948,12.361-7.901,1.736-13.98,8.409-14.798,16.617-.427,4.342.577,8.541,2.905,12.166v.521c0,2.432-.986,4.812-2.707,6.533-.286.286-.372.716-.217,1.09.154.374.52.617.924.617h3.61c2.193,0,4.367-.66,6.188-1.868,2.577,1.24,5.33,1.868,8.192,1.868.654,0,1.354-.039,2.076-.116,8.153-.871,14.75-6.935,16.475-14.782.752-.241,1.492-.519,2.202-.859,1.72,1.138,3.772,1.758,5.847,1.758h3.41c.404,0,.77-.243.924-.617.155-.374.069-.804-.217-1.09ZM52.59,40.997c-1.881,0-3.665-.595-5.158-1.719-.309-.232-.724-.265-1.066-.087-.472.248-.959.471-1.457.668.002-.02.006-.04.008-.06.396-4.267-.602-8.413-2.883-11.99-.297-.467-.917-.604-1.38-.306-.466.297-.603.915-.306,1.38,2.04,3.2,2.931,6.911,2.576,10.731-.74,7.998-7.078,14.424-15.069,15.277-.653.069-1.28.104-1.864.104-2.742,0-5.372-.646-7.819-1.917-.338-.178-.753-.145-1.062.087-1.572,1.18-3.525,1.83-5.499,1.83h-1.507c1.221-1.837,1.896-4.021,1.896-6.24v-.819c0-.197-.059-.39-.167-.554-2.189-3.294-3.14-7.139-2.748-11.117.747-7.499,6.401-13.58,13.69-14.969.005,0,.011-.002.016-.003.482-.091.972-.163,1.467-.212,3.863-.38,7.621.507,10.865,2.568.466.295,1.084.159,1.38-.308.297-.466.159-1.084-.308-1.38-3.604-2.29-7.766-3.283-12.061-2.875,2.603-6.577,9.295-10.733,16.506-10.005,7.532.749,13.535,6.755,14.273,14.283.372,3.75-.52,7.37-2.578,10.468-.108.164-.167.356-.167.554v.771c0,2.107.605,4.12,1.732,5.84h-1.312Z"/>
  <path d="M30.985,26.997c-1.832,0-3.569.607-4.984,1.728-1.415-1.12-3.152-1.728-4.984-1.728-2.149,0-4.17.837-5.69,2.357-3.138,3.138-3.138,8.244,0,11.382l9.968,9.968c.195.195.451.293.707.293s.512-.098.707-.293l9.968-9.968c3.138-3.138,3.138-8.244,0-11.382-1.521-1.521-3.541-2.357-5.69-2.357ZM35.261,39.322l-9.261,9.261-9.261-9.261c-2.358-2.358-2.358-6.195,0-8.554,1.143-1.143,2.661-1.771,4.276-1.771s3.135.629,4.277,1.771c.391.391,1.023.391,1.414,0,1.143-1.143,2.661-1.771,4.277-1.771s3.134.629,4.276,1.771c2.358,2.358,2.358,6.195,0,8.554Z"/>
  <circle cx="39" cy="24.997" r="1"/>
</svg>