<?xml version="1.0" encoding="UTF-8"?>
<svg id="Outline" xmlns="http://www.w3.org/2000/svg" version="1.1" viewBox="0 0 64 64">
  <!-- Generator: Adobe Illustrator 29.5.1, SVG Export Plug-In . SVG Version: 2.1.0 Build 141)  -->
  <path d="M56,18h-4c0-.55-.45-1-1-1h-1.18l-1.84-9.2c-.09-.46-.5-.8-.98-.8h-30c-.48,0-.89.34-.98.8l-1.84,9.2h-1.18c-.55,0-1,.45-1,1h-4c-.55,0-1,.45-1,1v4c0,.55.45,1,1,1h4c0,.55.45,1,1,1h1.1l2.71,25.32c.17,1.53,1.45,2.68,2.99,2.68h1.2v3c0,.55.45,1,1,1h6c.55,0,1-.45,1-1v-3h6v3c0,.55.45,1,1,1h6c.55,0,1-.45,1-1v-3h1.2c1.54,0,2.82-1.15,2.99-2.68l2.71-25.32h1.1c.55,0,1-.45,1-1h4c.55,0,1-.45,1-1v-4c0-.55-.45-1-1-1ZM12,22h-3v-2h3v2ZM21,9h22v4h-22v-4ZM27,55h-4v-2h4v2ZM41,55h-4v-2h4v2ZM45.2,50.11c-.06.51-.48.89-1,.89h-24.4c-.52,0-.94-.38-1-.89l-2.69-25.11h31.78l-2.69,25.11ZM50,23H14v-4h5c.55,0,1-.45,1-1s-.45-1-1-1h-2.78l1.6-8h1.18v5c0,.55.45,1,1,1h24c.55,0,1-.45,1-1v-5h1.18l1.6,8h-20.78c-.55,0-1,.45-1,1s.45,1,1,1h23v4ZM55,22h-3v-2h3v2Z"/>
  <path d="M43,35h-8c-.55,0-1,.45-1,1v4c0,.55.45,1,1,1h1v4c0,.2.06.39.17.55l2,3c.18.28.5.45.83.45s.65-.17.83-.45l2-3c.11-.16.17-.35.17-.55v-4h1c.55,0,1-.45,1-1v-4c0-.55-.45-1-1-1ZM40,44.7l-1,1.5-1-1.5v-3.7h2v3.7ZM42,39h-6v-2h6v2Z"/>
  <path d="M18.168,31.555l2,3c.186.278.498.445.832.445h4c.334,0,.646-.167.832-.445l2-3c.224-.336.224-.773,0-1.109l-2-3c-.186-.278-.498-.445-.832-.445h-4c-.334,0-.646.167-.832.445l-2,3c-.224.336-.224.773,0,1.109ZM21.535,29h2.93l1.333,2-1.333,2h-2.93l-1.333-2,1.333-2Z"/>
  <path d="M23.652,39.47l-2.5,4c-.203.324-.203.735,0,1.06l2.5,4c.183.292.503.47.848.47h5c.345,0,.665-.178.848-.47l2.5-4c.203-.324.203-.735,0-1.06l-2.5-4c-.183-.292-.503-.47-.848-.47h-5c-.345,0-.665.178-.848.47ZM28.945,41l1.875,3-1.875,3h-3.891l-1.875-3,1.875-3h3.891Z"/>
  <circle cx="23" cy="18" r="1"/>
</svg>