<?xml version="1.0" encoding="UTF-8"?>
<svg id="Outline" xmlns="http://www.w3.org/2000/svg" version="1.1" viewBox="0 0 64 64">
  <!-- Generator: Adobe Illustrator 29.5.1, SVG Export Plug-In . SVG Version: 2.1.0 Build 141)  -->
  <path d="M31.03,40c0-.517-.395-.949-.909-.996-2.706-.246-4.849-2.388-5.095-5.095-.047-.515-.479-.909-.996-.909s-.949.395-.996.909c-.246,2.707-2.389,4.849-5.095,5.095-.515.047-.909.479-.909.996s.395.949.909.996c2.706.246,4.849,2.388,5.095,5.095.047.515.479.909.996.909s.949-.395.996-.909c.246-2.707,2.389-4.849,5.095-5.095.515-.047.909-.479.909-.996ZM24.03,42.775c-.667-1.15-1.625-2.108-2.775-2.775,1.15-.667,2.108-1.625,2.775-2.775.667,1.15,1.625,2.108,2.775,2.775-1.15.667-2.108,1.625-2.775,2.775Z"/>
  <path d="M56.46,45.27c-.4-.9-1.04-1.67-1.83-2.25,1.05-1.63,1.25-3.71.44-5.51-.95-2.1-3.05-3.41-5.28-3.41-.16,0-.33.01-.49.02-1.48-2.48-4.64-3.52-7.33-2.3-.34.15-.65.33-.94.53v-2.74c0-2.59-1.29-5-3.45-6.44-.78-.52-1.41-1.22-1.87-2.08-.44-.82-.68-1.75-.68-2.7v-2.39c0-.55-.45-1-1-1h-1v-5c0-.55-.45-1-1-1h-16c-.55,0-1,.45-1,1v5h-1c-.55,0-1,.45-1,1v2.39c0,1.92-.96,3.71-2.55,4.78-1.05.68-1.92,1.65-2.53,2.78-.6,1.12-.92,2.38-.92,3.66v22.39c0,1.65,1.35,3,3,3h28c1.65,0,3-1.35,3-3v-3.5c.3.09.61.18.92.22-.09.99.07,1.97.48,2.87.96,2.14,3.07,3.41,5.28,3.41.79,0,1.59-.17,2.36-.51.6-.27,1.14-.63,1.61-1.09.65-.05,1.28-.21,1.88-.48,1.41-.63,2.49-1.78,3.03-3.22.55-1.45.5-3.02-.13-4.43ZM9.71,26.9c.46-.85,1.09-1.55,1.88-2.07,2.15-1.44,3.44-3.85,3.44-6.44v-1.39h3c.55,0,1-.45,1-1s-.45-1-1-1h-1v-4h14v4h-5c-.55,0-1,.45-1,1s.45,1,1,1h7v1.39c0,1.28.32,2.54.92,3.65.61,1.14,1.48,2.11,2.52,2.79,1.43.96,2.34,2.48,2.52,4.17H9.07c.08-.74.29-1.45.64-2.1ZM9.03,31h8.7c-2.84,1.99-4.7,5.28-4.7,9s1.86,7.01,4.7,9h-8.7v-18ZM24.03,31c4.96,0,9,4.04,9,9s-4.04,9-9,9-9-4.04-9-9,4.04-9,9-9ZM39.03,52c0,.55-.45,1-1,1H10.03c-.55,0-1-.45-1-1v-1h30v1ZM39.03,34.83c-.53,1.24-.63,2.65-.2,4.01-1.75,1.66-2.3,4.3-1.29,6.56.35.77.87,1.44,1.49,1.97v1.63h-8.7c2.84-1.99,4.7-5.28,4.7-9s-1.86-7.01-4.7-9h8.7v3.83ZM54.72,48.99c-.35.94-1.06,1.69-1.98,2.11-.28.12-.58.2-.88.25l-1.21-2.67,1.7-1.56c.4-.38.43-1.01.05-1.42-.37-.4-1-.43-1.41-.05l-1.2,1.11-1.17-2.58,2.87-4.12c.31-.45.2-1.08-.26-1.39-.45-.32-1.07-.2-1.39.25l-2.17,3.13-2.81-6.24c-.23-.5-.82-.73-1.32-.5-.51.22-.73.82-.51,1.32l2.81,6.24-3.78-.45c-.55-.07-1.05.33-1.11.88-.07.55.33,1.04.87,1.11l4.98.59,1.16,2.58-1.63.16c-.55.06-.95.55-.89,1.1.05.51.49.9.99.9.04,0,.07-.01.1-.01l2.3-.23,1.2,2.68c-.24.19-.5.36-.78.49-1.9.85-4.14,0-5-1.9-.38-.84-.43-1.79-.14-2.69.1-.32.04-.66-.17-.92-.19-.24-.48-.38-.78-.38h-.07c-1.59.12-3.08-.77-3.73-2.2-.73-1.64-.21-3.59,1.25-4.63.39-.28.53-.8.32-1.24-.01-.02-.04-.07-.06-.11-.82-1.89.03-4.11,1.92-4.96,1.88-.85,4.11-.02,4.98,1.86.01.04.03.08.04.11.19.45.67.69,1.14.58,1.75-.4,3.55.5,4.29,2.14.65,1.43.32,3.14-.82,4.25-.23.23-.34.56-.28.89.06.33.27.6.58.74.86.38,1.54,1.05,1.92,1.88.41.93.44,1.95.08,2.9Z"/>
  <circle cx="22.03" cy="16" r="1"/>
</svg>