<?xml version="1.0" encoding="UTF-8"?>
<svg id="Outline" xmlns="http://www.w3.org/2000/svg" version="1.1" viewBox="0 0 64 64">
  <!-- Generator: Adobe Illustrator 29.3.1, SVG Export Plug-In . SVG Version: 2.1.0 Build 151)  -->
  <path d="M54,11h-30c-.54999,0-1,.45001-1,1s.45001,1,1,1h30c.54999,0,1,.45001,1,1v30c0,.54999-.45001,1-1,1H10c-.54999,0-1-.45001-1-1V14c0-.54999.45001-1,1-1h6c.54999,0,1-.45001,1-1s-.45001-1-1-1h-6c-1.65002,0-3,1.34998-3,3v30c0,1.64996,1.34998,3,3,3h3v5c0,.54999.45001,1,1,1h4c.42999,0,.81-.28003.95001-.67999l1.76996-5.32001h22.56006l1.76996,5.32001c.14001.39996.52002.67999.95001.67999h4c.54999,0,1-.45001,1-1v-5h3c1.65002,0,3-1.35004,3-3V14c0-1.65002-1.34998-3-3-3ZM17.28003,51h-2.28003v-4h3.60999l-1.32996,4ZM49,51h-2.28003l-1.32996-4h3.60999v4Z"/>
  <path d="M44,15H12c-.54999,0-1,.45001-1,1v26c0,.54999.45001,1,1,1h32c.54999,0,1-.45001,1-1v-26c0-.54999-.45001-1-1-1ZM43,34.38l-2-1v-8.76001l2-1v10.76001ZM43,21.38l-3.45001,1.72998c-.33997.15997-.54999.51001-.54999.89001v10c0,.38.21002.72998.54999.89001l3.45001,1.72998v4.38H13v-24h30v4.38Z"/>
  <path d="M48,21h4c.55225,0,1-.44775,1-1v-4c0-.55225-.44775-1-1-1h-4c-.55225,0-1,.44775-1,1v4c0,.55225.44775,1,1,1ZM49,17h2v2h-2v-2Z"/>
  <path d="M47,42c0,.55225.44775,1,1,1h4c.55225,0,1-.44775,1-1v-4c0-.55225-.44775-1-1-1h-4c-.55225,0-1,.44775-1,1v4ZM49,39h2v2h-2v-2Z"/>
  <path d="M48,34h4c.55225,0,1-.44775,1-1s-.44775-1-1-1h-4c-.55225,0-1,.44775-1,1s.44775,1,1,1Z"/>
  <path d="M48,30h4c.55225,0,1-.44775,1-1s-.44775-1-1-1h-4c-.55225,0-1,.44775-1,1s.44775,1,1,1Z"/>
  <path d="M48,26h4c.55225,0,1-.44775,1-1s-.44775-1-1-1h-4c-.55225,0-1,.44775-1,1s.44775,1,1,1Z"/>
  <path d="M22.6958,23.14258l-3.18457-1.91064c-.30859-.18555-.69434-.19043-1.00732-.0127-.31348.17725-.50732.50977-.50732.87012v3.48047c0,.92773-.36133,1.80029-1.0166,2.45557l-.37695.37646c-1.12256,1.12256-1.70166,2.67432-1.58936,4.25781.11279,1.5835.90576,3.03809,2.17578,3.99072,0,0,2.98486,2.23877,2.98492,2.23882.3043.22777.70927.2637,1.0473.09468.33887-.16943.55273-.51562.55273-.89453v-3.09668c0-1.0874.51953-2.12598,1.38916-2.77881,1.46045-1.09521,2.27588-2.8374,2.18213-4.66064-.09424-1.82275-1.08496-3.47168-2.6499-4.41064ZM21.96338,30.61426c-1.37061,1.02832-2.18896,2.66504-2.18896,4.37842v1.09668l-1.38477-1.03857c-.80615-.60449-1.30957-1.52783-1.38086-2.53271-.07129-1.00488.29639-1.98975,1.00781-2.70166l.37695-.37646c1.03369-1.03369,1.60303-2.4082,1.60303-3.87012v-1.71436l1.66992,1.00195c1.0083.60498,1.62109,1.625,1.68164,2.79883.06055,1.17432-.44385,2.25244-1.38477,2.95801Z"/>
  <path d="M34.52393,21.05322l-3.18457-1.91064c-.30957-.18604-.69385-.19092-1.00732-.0127-.31348.17725-.50732.50977-.50732.87012v3.48047c0,.92773-.36133,1.80029-1.01758,2.45654l-.37549.37598c-1.12256,1.12256-1.70215,2.67432-1.58936,4.25781.1123,1.5835.90527,3.03809,2.17529,3.99023l2.98486,2.23877c.64999.48752,1.6001.01125,1.6001-.7998v-3.09668c0-1.0874.51953-2.12598,1.38965-2.77881,1.45996-1.09473,2.27588-2.8374,2.18164-4.66016-.09424-1.82324-1.08496-3.47217-2.6499-4.41113ZM33.79199,28.5249c-1.37109,1.02783-2.18945,2.66455-2.18945,4.37842v1.09668l-1.38477-1.03857c-.80615-.60449-1.30908-1.52734-1.38037-2.53223-.07178-1.00488.2959-1.98975,1.00879-2.70264l.37549-.37598c1.03369-1.03369,1.60303-2.4082,1.60303-3.87012v-1.71436l1.66992,1.00195c1.0083.60498,1.62109,1.625,1.68164,2.79932s-.44385,2.25195-1.38428,2.95752Z"/>
  <circle cx="20" cy="12" r="1"/>
</svg>