<?xml version="1.0" encoding="UTF-8"?>
<svg id="Outline" xmlns="http://www.w3.org/2000/svg" version="1.1" viewBox="0 0 48 48">
  <!-- Generator: Adobe Illustrator 29.5.1, SVG Export Plug-In . SVG Version: 2.1.0 Build 141)  -->
  <path d="M40,7H8c-1.65,0-3,1.35-3,3v24c0,1.65,1.35,3,3,3v3c0,.55.45,1,1,1h6c.38,0,.73-.21.89-.55l1.73-3.45h12.76l1.73,3.45c.16.34.51.55.89.55h6c.55,0,1-.45,1-1v-3c1.65,0,3-1.35,3-3V10c0-1.65-1.35-3-3-3ZM14.38,39h-4.38v-2h5.38l-1,2ZM38,39h-4.38l-1-2h5.38v2ZM41,34c0,.55-.45,1-1,1H8c-.55,0-1-.45-1-1V10c0-.55.45-1,1-1h32c.55,0,1,.45,1,1v24Z"/>
  <path d="M30,11H10c-.55,0-1,.45-1,1v20c0,.55.45,1,1,1h20c.55,0,1-.45,1-1V12c0-.55-.45-1-1-1ZM24,31h-8c-.55,0-1-.45-1-1s.45-1,1-1h8c.55,0,1,.45,1,1s-.45,1-1,1ZM29,31h-2.18c.11-.31.18-.65.18-1,0-1.65-1.35-3-3-3h-8c-1.65,0-3,1.35-3,3,0,.35.07.69.18,1h-2.18V13h18v18Z"/>
  <path d="M38,11h-4c-.552,0-1,.448-1,1v4c0,.552.448,1,1,1h4c.552,0,1-.448,1-1v-4c0-.552-.448-1-1-1ZM37,15h-2v-2h2v2Z"/>
  <path d="M38,19h-4c-.552,0-1,.448-1,1s.448,1,1,1h4c.552,0,1-.448,1-1s-.448-1-1-1Z"/>
  <path d="M34,23c-.552,0-1,.448-1,1v2c0,.552.448,1,1,1s1-.448,1-1v-2c0-.552-.448-1-1-1Z"/>
  <path d="M38,23c-.552,0-1,.448-1,1v2c0,.552.448,1,1,1s1-.448,1-1v-2c0-.552-.448-1-1-1Z"/>
  <path d="M15.105,24.447c.564,1.127,2.371.269,1.789-.895-.486-.972-.486-2.133,0-3.105.766-1.532.766-3.362,0-4.895-.247-.493-.847-.695-1.342-.447-.494.247-.694.848-.447,1.342.486.972.486,2.133,0,3.105-.766,1.533-.766,3.362,0,4.895Z"/>
  <path d="M19.105,24.447c.175.35.528.553.895.553.731,0,1.22-.795.894-1.447-.486-.972-.486-2.133,0-3.105.766-1.532.766-3.362,0-4.895-.247-.493-.846-.695-1.342-.447-.494.247-.694.848-.447,1.342.486.972.486,2.133,0,3.105-.766,1.533-.766,3.362,0,4.895Z"/>
  <path d="M23.105,24.447c.245.489.853.691,1.342.447.494-.247.694-.848.447-1.342-.486-.972-.486-2.133,0-3.105.766-1.532.766-3.362,0-4.895-.247-.493-.846-.695-1.342-.447-.494.247-.694.848-.447,1.342.486.972.486,2.133,0,3.105-.766,1.533-.766,3.362,0,4.895Z"/>
</svg>