<?xml version="1.0" encoding="UTF-8"?>
<svg id="Outline" xmlns="http://www.w3.org/2000/svg" version="1.1" viewBox="0 0 64 64">
  <!-- Generator: Adobe Illustrator 29.3.1, SVG Export Plug-In . SVG Version: 2.1.0 Build 151)  -->
  <path d="M46,28.99878c0-.54999-.45001-1-1-1s-1,.45001-1,1c0,5.39996-3.67999,10.15997-8.84003,11.57001-.73999-.95001-1.87-1.57001-3.15997-1.57001s-2.41998.62-3.15997,1.57001c-5.16003-1.41003-8.84003-6.17004-8.84003-11.57001,0-.54999-.45001-1-1-1s-1,.45001-1,1c0,6.20996,4.16998,11.70001,10.06,13.42999-.02997.19-.06.38-.06.57001v5c0,.54999.45001,1,1,1v4h-.16998c-2.06,0-4.08002.83997-5.54004,2.28998-.38995.39001-.38995,1.03003,0,1.41998.39001.39001,1.03003.39001,1.42004,0,1.07996-1.08997,2.57996-1.70996,4.12-1.70996h6.33997c1.54004,0,3.04004.62,4.12,1.70996.19989.18982.44971.28986.70966.28998.87708.00031,1.33734-1.08734.71039-1.71002-1.46002-1.45001-3.48004-2.28992-5.54004-2.28992h-.16998v-4c.54999,0,1-.45001,1-1v-5c0-.19-.03003-.38-.06-.57001,5.89001-1.72998,10.06-7.22003,10.06-13.42999ZM33,52.99878h-2v-4h2v4ZM34,46.99878h-4v-4c0-1.10004.90002-2,2-2s2,.89996,2,2v4Z"/>
  <path d="M32,36.99878c4.31519,0,7.99023-2.75317,9.38873-6.59088.0083-.01843.01343-.03735.02063-.05634.37543-1.04999.59064-2.17542.59064-3.35278v-10c0-5.51367-4.48633-10-10-10-4.31519,0-7.99017,2.75317-9.38867,6.59088-.0083.01843-.01343.03723-.02063.05621-.37549,1.04999-.5907,2.17548-.5907,3.35291v10c0,5.51367,4.48633,10,10,10ZM24,22.99878h4c.55273,0,1-.44727,1-1s-.44727-1-1-1h-4v-2h5c.55273,0,1-.44727,1-1s-.44727-1-1-1h-5c0-.69165.09747-1.35944.26331-2h2.73669c.55273,0,1-.44727,1-1s-.44727-1-1-1h-1.91754c1.38586-2.38708,3.96423-4,6.91754-4,4.41113,0,8,3.58887,8,8v4h-4c-.55273,0-1,.44727-1,1s.44727,1,1,1h4v2h-5c-.55273,0-1,.44727-1,1s.44727,1,1,1h5c0,.69165-.09747,1.35944-.26331,2h-2.73669c-.55273,0-1,.44727-1,1s.44727,1,1,1h1.91754c-1.38586,2.38708-3.96423,4-6.91754,4-4.41113,0-8-3.58887-8-8v-4Z"/>
  <circle cx="32" cy="21.99878" r="1"/>
</svg>