<?xml version="1.0" encoding="UTF-8"?>
<svg id="Outline" xmlns="http://www.w3.org/2000/svg" version="1.1" viewBox="0 0 48 48">
  <!-- Generator: Adobe Illustrator 29.5.1, SVG Export Plug-In . SVG Version: 2.1.0 Build 141)  -->
  <path d="M40,6H8c-1.65,0-3,1.35-3,3v26c0,1.65,1.35,3,3,3v3c0,.55.45,1,1,1h6c.38,0,.73-.21.89-.55l1.73-3.45h12.76l1.73,3.45c.16.34.51.55.89.55h6c.55,0,1-.45,1-1v-3c1.65,0,3-1.35,3-3V9c0-1.65-1.35-3-3-3ZM14.38,40h-4.38v-2h5.38l-1,2ZM38,40h-4.38l-1-2h5.38v2ZM41,35c0,.55-.45,1-1,1H8c-.55,0-1-.45-1-1V9c0-.55.45-1,1-1h32c.55,0,1,.45,1,1v26Z"/>
  <path d="M30,10H10c-.55,0-1,.45-1,1v22c0,.55.45,1,1,1h20c.55,0,1-.45,1-1V11c0-.55-.45-1-1-1ZM24,32h-8c-.55,0-1-.45-1-1s.45-1,1-1h8c.55,0,1,.45,1,1s-.45,1-1,1ZM15.1,24h9.8c-.46,2.28-2.49,4-4.9,4s-4.44-1.72-4.9-4ZM29,32h-2.18c.11-.31.18-.65.18-1,0-1.39-.95-2.55-2.23-2.89,1.37-1.28,2.23-3.09,2.23-5.11,0-.55-.45-1-1-1h-12c-.55,0-1,.45-1,1,0,2.02.86,3.83,2.23,5.11-1.28.34-2.23,1.5-2.23,2.89,0,.35.07.69.18,1h-2.18V12h18v20Z"/>
  <path d="M38,10h-4c-.552,0-1,.448-1,1v4c0,.552.448,1,1,1h4c.552,0,1-.448,1-1v-4c0-.552-.448-1-1-1ZM37,14h-2v-2h2v2Z"/>
  <path d="M34,18c-.552,0-1,.448-1,1v2c0,.552.448,1,1,1s1-.448,1-1v-2c0-.552-.448-1-1-1Z"/>
  <path d="M38,18c-.552,0-1,.448-1,1v2c0,.552.448,1,1,1s1-.448,1-1v-2c0-.552-.448-1-1-1Z"/>
  <path d="M34,24c-.552,0-1,.448-1,1v2c0,.552.448,1,1,1s1-.448,1-1v-2c0-.552-.448-1-1-1Z"/>
  <path d="M38,24c-.552,0-1,.448-1,1v2c0,.552.448,1,1,1s1-.448,1-1v-2c0-.552-.448-1-1-1Z"/>
  <path d="M19.168,19.445c-.306.459-.182,1.081.277,1.387.442.295,1.08.182,1.387-.277.832-1.248.832-2.861,0-4.109-.383-.574-.383-1.316,0-1.891.306-.459.182-1.081-.277-1.387-.46-.308-1.081-.182-1.387.277-.832,1.248-.832,2.861,0,4.109.383.574.383,1.316,0,1.891Z"/>
  <path d="M15.168,19.445c-.306.459-.182,1.08.277,1.387.438.292,1.084.176,1.387-.277.832-1.248.832-2.861,0-4.109-.383-.574-.383-1.316,0-1.891.306-.459.182-1.081-.277-1.387-.46-.308-1.08-.182-1.387.277-.832,1.248-.832,2.861,0,4.109.383.574.383,1.316,0,1.891Z"/>
  <path d="M23.168,19.445c-.306.459-.182,1.081.277,1.387.454.303,1.084.176,1.387-.277.832-1.248.832-2.861,0-4.109-.383-.574-.383-1.316,0-1.891.306-.459.182-1.081-.277-1.387-.46-.308-1.08-.182-1.387.277-.832,1.248-.832,2.861,0,4.109.383.574.383,1.316,0,1.891Z"/>
</svg>