<?xml version="1.0" encoding="UTF-8"?>
<svg id="Outline" xmlns="http://www.w3.org/2000/svg" version="1.1" viewBox="0 0 64 64">
  <!-- Generator: Adobe Illustrator 29.3.1, SVG Export Plug-In . SVG Version: 2.1.0 Build 151)  -->
  <path d="M52.90997,14.08997c-.42999-2.32001-2.45996-4.08997-4.90997-4.08997H16c-2.45001,0-4.47998,1.76996-4.90997,4.08997-2.32001.42999-4.09003,2.46002-4.09003,4.91003v14c0,.54999.45001,1,1,1s1-.45001,1-1v-14c0-1.65002,1.34998-3,3-3h31v7c0,.54999.45001,1,1,1s1-.45001,1-1v-7h7c1.65002,0,3,1.34998,3,3v26c0,1.64996-1.34998,3-3,3h-7v-21c0-.54999-.45001-1-1-1s-1,.45001-1,1v21H12c-1.65002,0-3-1.35004-3-3v-8c0-.54999-.45001-1-1-1s-1,.45001-1,1v8c0,2.76001,2.23999,5,5,5v2c0,1.09998.90002,2,2,2h4.38c.77002,0,1.45001-.42004,1.78998-1.10999l1.45001-2.89001h20.76001l1.45001,2.89001c.33997.68994,1.01996,1.10999,1.78998,1.10999h4.38c1.09998,0,2-.90002,2-2v-2c2.76001,0,5-2.23999,5-5v-26c0-2.45001-1.77002-4.48004-4.09003-4.91003ZM13.16998,14c.41003-1.16003,1.53003-2,2.83002-2h32c1.29999,0,2.41998.83997,2.83002,2H13.16998ZM18.38,52h-4.38v-2h5.38l-1,2ZM50,52h-4.38l-1-2h5.38v2Z"/>
  <path d="M50,30c1.6543,0,3-1.3457,3-3v-6c0-1.6543-1.3457-3-3-3s-3,1.3457-3,3v6c0,1.6543,1.3457,3,3,3ZM49,21c0-.55176.44824-1,1-1s1,.44824,1,1v6c0,.55176-.44824,1-1,1s-1-.44824-1-1v-6Z"/>
  <path d="M50,46c1.6543,0,3-1.3457,3-3s-1.3457-3-3-3-3,1.3457-3,3,1.3457,3,3,3ZM50,42c.55176,0,1,.44824,1,1s-.44824,1-1,1-1-.44824-1-1,.44824-1,1-1Z"/>
  <path d="M48,38h4c.55273,0,1-.44727,1-1s-.44727-1-1-1h-4c-.55273,0-1,.44727-1,1s.44727,1,1,1Z"/>
  <path d="M48,34h4c.55273,0,1-.44727,1-1s-.44727-1-1-1h-4c-.55273,0-1,.44727-1,1s.44727,1,1,1Z"/>
  <path d="M18,46h20c1.6543,0,3-1.3457,3-3v-22c0-1.6543-1.3457-3-3-3H14c-1.6543,0-3,1.3457-3,3v22c0,1.6543,1.3457,3,3,3h4ZM19,44v-3h14v3h-14ZM13,43v-22c0-.55176.44824-1,1-1h24c.55176,0,1,.44824,1,1v22c0,.55176-.44824,1-1,1h-3v-3h1c.55273,0,1-.44727,1-1s-.44727-1-1-1h-20c-.55273,0-1,.44727-1,1s.44727,1,1,1h1v3h-3c-.55176,0-1-.44824-1-1Z"/>
  <path d="M16,26c.25586,0,.51172-.09766.70703-.29297l2-2c.39062-.39062.39062-1.02344,0-1.41406s-1.02344-.39062-1.41406,0l-2,2c-.39062.39062-.39062,1.02344,0,1.41406.19531.19531.45117.29297.70703.29297Z"/>
  <path d="M16,31c.25586,0,.51172-.09766.70703-.29297l7-7c.39062-.39062.39062-1.02344,0-1.41406s-1.02344-.39062-1.41406,0l-7,7c-.39062.39062-.39062,1.02344,0,1.41406.19531.19531.45117.29297.70703.29297Z"/>
</svg>