<?xml version="1.0" encoding="UTF-8"?>
<svg id="Outline" xmlns="http://www.w3.org/2000/svg" version="1.1" viewBox="0 0 64 64">
  <!-- Generator: Adobe Illustrator 29.5.1, SVG Export Plug-In . SVG Version: 2.1.0 Build 141)  -->
  <path d="M56,24c.55,0,1-.45,1-1v-9c0-1.65-1.35-3-3-3H10c-1.65,0-3,1.35-3,3v32c0,1.65,1.35,3,3,3h1v3c0,.55.45,1,1,1h6c.38,0,.73-.21.89-.55l1.73-3.45h22.76l1.73,3.45c.16.34.51.55.89.55h6c.55,0,1-.45,1-1v-3h1c1.65,0,3-1.35,3-3v-19c0-.55-.45-1-1-1s-1,.45-1,1v19c0,.55-.45,1-1,1h-11V13h11c.55,0,1,.45,1,1v9c0,.55.45,1,1,1ZM51,49v2h-4.38l-1-2h5.38ZM17.38,51h-4.38v-2h5.38l-1,2ZM41,47H10c-.55,0-1-.45-1-1V14c0-.55.45-1,1-1h31v34Z"/>
  <path d="M12,45h26c.552,0,1-.448,1-1v-28c0-.552-.448-1-1-1h-4c-.552,0-1,.448-1,1s.448,1,1,1h3v26H13v-26h17c.552,0,1-.448,1-1s-.448-1-1-1H12c-.552,0-1,.448-1,1v28c0,.552.448,1,1,1Z"/>
  <path d="M49,23c2.206,0,4-1.794,4-4s-1.794-4-4-4-4,1.794-4,4,1.794,4,4,4ZM48,17.278v.722c0,.552.448,1,1,1s1-.448,1-1v-.722c.595.347,1,.985,1,1.722,0,1.103-.897,2-2,2s-2-.897-2-2c0-.737.405-1.375,1-1.722Z"/>
  <path d="M53,29c0-2.206-1.794-4-4-4s-4,1.794-4,4,1.794,4,4,4,4-1.794,4-4ZM49,31c-1.103,0-2-.897-2-2,0-.737.405-1.375,1-1.722v.722c0,.552.448,1,1,1s1-.448,1-1v-.722c.595.347,1,.985,1,1.722,0,1.103-.897,2-2,2Z"/>
  <circle cx="49" cy="36" r="1"/>
  <circle cx="45" cy="36" r="1"/>
  <circle cx="53" cy="36" r="1"/>
  <circle cx="49" cy="40" r="1"/>
  <circle cx="45" cy="40" r="1"/>
  <circle cx="53" cy="40" r="1"/>
  <circle cx="49" cy="44" r="1"/>
  <circle cx="45" cy="44" r="1"/>
  <circle cx="53" cy="44" r="1"/>
  <path d="M15,30c0,5.514,4.486,10,10,10s10-4.486,10-10-4.486-10-10-10-10,4.486-10,10ZM33,30c0,4.411-3.589,8-8,8s-8-3.589-8-8,3.589-8,8-8,8,3.589,8,8Z"/>
  <path d="M24,25v2.184c-1.161.414-2,1.514-2,2.816,0,.462.113.894.301,1.285l-1.543,1.543c-.391.391-.391,1.023,0,1.414.388.388,1.027.387,1.414,0l1.543-1.543c.391.187.824.301,1.285.301,1.654,0,3-1.346,3-3,0-1.302-.839-2.402-2-2.816v-2.184c0-.552-.448-1-1-1s-1,.448-1,1ZM25,31c-.551,0-1-.449-1-1s.449-1,1-1,1,.449,1,1-.449,1-1,1Z"/>
</svg>