<?xml version="1.0" encoding="UTF-8"?>
<svg id="Outline" xmlns="http://www.w3.org/2000/svg" version="1.1" viewBox="0 0 64 64">
  <!-- Generator: Adobe Illustrator 29.5.1, SVG Export Plug-In . SVG Version: 2.1.0 Build 141)  -->
  <path d="M54,19H10c-1.65,0-3,1.35-3,3v26c0,1.65,1.35,3,3,3h3v5c0,.55.45,1,1,1h4c.43,0,.81-.28.95-.68l1.77-5.32h22.56l1.77,5.32c.14.4.52.68.95.68h4c.55,0,1-.45,1-1v-5h3c1.65,0,3-1.35,3-3v-26c0-1.65-1.35-3-3-3ZM17.28,55h-2.28v-4h3.61l-1.33,4ZM49,55h-2.28l-1.33-4h3.61v4ZM55,48c0,.55-.45,1-1,1H10c-.55,0-1-.45-1-1v-26c0-.55.45-1,1-1h44c.55,0,1,.45,1,1v26Z"/>
  <path d="M40,23H12c-.553,0-1,.448-1,1v22c0,.552.447,1,1,1h28c.553,0,1-.448,1-1v-22c0-.552-.447-1-1-1ZM39,45H13v-20h26v20Z"/>
  <path d="M48,37c-1.654,0-3,1.346-3,3s1.346,3,3,3,3-1.346,3-3-1.346-3-3-3ZM48,41c-.552,0-1-.449-1-1s.448-1,1-1,1,.449,1,1-.448,1-1,1Z"/>
  <path d="M50,45h-4c-.553,0-1,.448-1,1s.447,1,1,1h4c.553,0,1-.448,1-1s-.447-1-1-1Z"/>
  <path d="M52,23h-8c-.553,0-1,.448-1,1v10c0,.552.447,1,1,1h8c.553,0,1-.448,1-1v-10c0-.552-.447-1-1-1ZM51,33h-6v-8h6v8Z"/>
  <path d="M26,42c6.065,0,11-4.038,11-9,0-3.248-5.667-5-11-5s-11,1.752-11,5c0,4.962,4.935,9,11,9ZM26,40c-3.247,0-6.09-1.349-7.673-3.36,2.103.892,4.929,1.36,7.673,1.36s5.569-.467,7.673-1.36c-1.583,2.011-4.425,3.36-7.673,3.36ZM26,30c5.494,0,9,1.777,9,3s-3.506,3-9,3-9-1.777-9-3,3.506-3,9-3Z"/>
  <path d="M25.637,11.637c1.701-1.701,3.961-2.637,6.363-2.637s4.662.937,6.363,2.637c.195.195.451.293.707.293.873,0,1.326-1.088.707-1.707-2.079-2.079-4.841-3.223-7.777-3.223s-5.698,1.145-7.777,3.223c-.391.39-.391,1.023,0,1.414s1.023.391,1.414,0Z"/>
  <path d="M36.24,14.76c.872,0,1.321-1.087.71-1.704-1.313-1.326-3.071-2.056-4.95-2.056s-3.637.73-4.95,2.056c-.389.393-.387,1.025.006,1.415.394.388,1.025.386,1.414-.006.936-.944,2.189-1.464,3.53-1.464s2.595.52,3.53,1.464c.195.197.452.296.71.296Z"/>
  <path d="M29.874,15.892c-.386.396-.378,1.029.018,1.414.396.386,1.03.378,1.414-.018.363-.372,1.025-.372,1.389,0,.195.201.456.302.716.302.868,0,1.323-1.076.716-1.698-1.121-1.149-3.131-1.149-4.252,0Z"/>
</svg>