<?xml version="1.0" encoding="UTF-8"?>
<svg id="Outline" xmlns="http://www.w3.org/2000/svg" version="1.1" viewBox="0 0 64 64">
  <!-- Generator: Adobe Illustrator 29.5.1, SVG Export Plug-In . SVG Version: 2.1.0 Build 141)  -->
  <path d="M56,27.37h-2c-1.14,0-2.18.39-3.02,1.04,0-.14.02-.27.02-.41v-1.87l1.01-.04c1.34-.05,2.57-.63,3.48-1.61.9-.98,1.37-2.26,1.32-3.59l-.08-2c-.01-.27-.13-.51-.32-.69-.2-.18-.45-.29-.72-.27l-2,.08c-1,.04-1.92.39-2.69.94v-2.99l1.01-.04c1.34-.05,2.57-.63,3.48-1.61.9-.98,1.37-2.26,1.32-3.59l-.08-2c-.01-.26-.13-.51-.32-.69-.2-.18-.45-.29-.72-.27l-2,.08c-1,.04-1.92.39-2.69.94v-.78c0-.55-.45-1-1-1s-1,.45-1,1v20c0,4.53-1.77,8.8-4.98,12.02-.79.79-1.65,1.5-2.56,2.1-.14-.07-.29-.12-.46-.12h-1.07c-.31-2.44-1.71-4.53-3.71-5.78,4.54-1.72,7.78-6.09,7.78-11.22,0-.55-.45-1-1-1s-1,.45-1,1c0,5.51-4.49,10-10,10s-10-4.49-10-10c0-.55-.45-1-1-1s-1,.45-1,1c0,5.13,3.24,9.5,7.78,11.22-2,1.25-3.4,3.34-3.71,5.78h-1.07c-.17,0-.32.05-.46.12-.91-.6-1.77-1.31-2.56-2.1-3.21-3.22-4.98-7.49-4.98-12.02V8c0-.55-.45-1-1-1s-1,.45-1,1v.78c-.77-.55-1.69-.9-2.69-.94l-2-.08c-.26-.02-.52.09-.72.27-.19.18-.31.43-.32.69l-.08,2c-.05,1.33.42,2.61,1.32,3.59.91.98,2.14,1.56,3.48,1.61l1.01.04v2.99c-.77-.55-1.69-.9-2.69-.94l-2-.08c-.26-.02-.52.09-.72.27-.19.18-.31.42-.32.69l-.08,2c-.05,1.33.42,2.61,1.32,3.59.91.98,2.14,1.56,3.48,1.61l1.01.04v1.87c0,.14.02.27.02.41-.84-.65-1.88-1.04-3.02-1.04h-2c-.55,0-1,.44-1,1v2c0,2.75,2.24,5,5,5h2c.16,0,.3-.05.43-.11.21.51.45,1,.71,1.49-1.01-.08-2.01.14-2.91.65l-1.73,1c-.23.13-.4.35-.47.61-.06.25-.03.53.1.76l1,1.73c.67,1.16,1.75,1.98,3.04,2.33.43.11.87.17,1.3.17.87,0,1.72-.23,2.49-.67l1.63-.94c.76.65,1.57,1.23,2.41,1.75v4.86h-1c-.43,0-.81.28-.95.68l-2,6c-.1.31-.05.64.14.9.19.27.49.42.81.42h26c.32,0,.62-.15.81-.42.19-.26.24-.59.14-.9l-2-6c-.14-.4-.52-.68-.95-.68h-1v-4.86c.84-.52,1.65-1.1,2.41-1.75l1.63.94c.77.44,1.62.67,2.49.67.43,0,.87-.06,1.3-.17,1.29-.35,2.37-1.17,3.04-2.33l1-1.73c.13-.23.16-.51.1-.76-.07-.26-.24-.48-.47-.61l-1.73-1c-.9-.51-1.9-.73-2.91-.65.26-.49.5-.98.71-1.49.13.06.27.11.43.11h2c2.76,0,5-2.25,5-5v-2c0-.56-.45-1-1-1ZM51,12.07c.33-1.26,1.45-2.17,2.77-2.23l1-.04.04,1c.03.8-.25,1.57-.79,2.16-.55.59-1.29.93-2.09.96l-.93.04v-1.89ZM51,22.24c.33-1.26,1.45-2.17,2.77-2.23l1-.04.04,1c.03.8-.25,1.57-.79,2.16-.55.59-1.29.93-2.09.96l-.93.04v-1.89ZM13,24.13l-.93-.04c-.8-.03-1.54-.37-2.09-.96-.54-.59-.82-1.36-.79-2.16l.04-1,1,.04c1.32.06,2.44.97,2.77,2.23v1.89ZM13,13.96l-.93-.04c-.8-.03-1.54-.37-2.09-.96-.54-.59-.82-1.36-.79-2.16l.04-1,1,.04c1.32.06,2.44.97,2.77,2.23v1.89ZM13,33.37h-1c-1.65,0-3-1.35-3-3v-1h1c1.65,0,3,1.34,3,3v1ZM16.96,41.6c-1.43.83-3.27.33-4.09-1.1l-.5-.87.86-.5c1.44-.82,3.27-.33,4.1,1.1l.5.87-.87.5ZM42.28,51l1.33,4h-23.22l1.33-4h12.28c.55,0,1-.45,1-1s-.45-1-1-1h-10v-5h6c.55,0,1-.45,1-1s-.45-1-1-1h-3.91c.48-2.83,2.94-5,5.91-5s5.43,2.17,5.91,5h-3.91c-.55,0-1,.45-1,1s.45,1,1,1h6v5h-2c-.55,0-1,.45-1,1s.45,1,1,1h4.28ZM50.77,39.13l.86.5-.5.87c-.82,1.43-2.66,1.93-4.09,1.1l-.87-.5.5-.87c.83-1.43,2.67-1.92,4.1-1.1ZM55,30.37c0,1.65-1.35,3-3,3h-1v-1c0-1.66,1.35-3,3-3h1v1Z"/>
  <path d="M32,11c-4.41,0-8,3.59-8,8v6c0,4.41,3.59,8,8,8s8-3.59,8-8v-6c0-4.41-3.59-8-8-8ZM38,21h-3c-.55,0-1,.45-1,1s.45,1,1,1h3v2h-3c-.55,0-1,.45-1,1s.45,1,1,1h2.65c-.83,2.33-3.04,4-5.65,4s-4.82-1.67-5.65-4h2.65c.55,0,1-.45,1-1s-.45-1-1-1h-3v-2h3c.55,0,1-.45,1-1s-.45-1-1-1h-3v-2h3c.55,0,1-.45,1-1s-.45-1-1-1h-2.65c.83-2.33,3.04-4,5.65-4s4.82,1.67,5.65,4h-2.65c-.55,0-1,.45-1,1s.45,1,1,1h3v2Z"/>
</svg>