<?xml version="1.0" encoding="UTF-8"?>
<svg id="Outline" xmlns="http://www.w3.org/2000/svg" version="1.1" viewBox="0 0 64 64">
  <!-- Generator: Adobe Illustrator 29.5.1, SVG Export Plug-In . SVG Version: 2.1.0 Build 141)  -->
  <path d="M47.654,14.941l-4.243,4.243c-.391.391-.391,1.023,0,1.414.369.369,1.023.391,1.414,0l4.243-4.243c.391-.391.391-1.023,0-1.414s-1.023-.391-1.414,0Z"/>
  <path d="M56.145,10.695l-2.83-2.83c-1.17-1.17-3.073-1.17-4.244,0l-7.32,7.32c-1.366,1.367-2.435,2.966-3.177,4.754-.685,1.651-1.043,3.393-1.095,5.178l-3.302,3.302c-.893-.718-1.873-1.236-2.837-1.477-1.402-.353-2.673-.086-3.485.728-.813.812-1.078,2.083-.728,3.484.311,1.242,1.071,2.516,2.142,3.586,1.07,1.071,2.344,1.832,3.586,2.142,1.191.298,2.581.178,3.485-.728.813-.812,1.078-2.083.728-3.484-.241-.964-.759-1.944-1.477-2.837l3.301-3.302c3.753-.109,7.267-1.607,9.931-4.271l2.8-2.79c.391-.39.392-1.022.002-1.414s-1.023-.392-1.415-.002l-2.801,2.791c-2.144,2.144-4.921,3.423-7.911,3.665.106-1.309.415-2.585.921-3.806.64-1.544,1.563-2.925,2.743-4.105l7.319-7.319c.391-.391,1.025-.391,1.417,0l2.83,2.83c.188.188.292.44.292.708s-.104.52-.294.71l-1.69,1.7c-.389.392-.387,1.025.004,1.414.393.391,1.024.388,1.415-.004l1.687-1.697c.567-.566.878-1.32.878-2.123s-.312-1.556-.878-2.122ZM35.128,33.154c.176.704.103,1.282-.201,1.586s-.881.378-1.586.202c-.882-.221-1.851-.81-2.657-1.616-.806-.806-1.395-1.774-1.615-2.656-.176-.704-.103-1.282.201-1.586.396-.396,1.091-.326,1.586-.202.619.155,1.278.499,1.895.964l-1.36,1.36c-.391.391-.391,1.023,0,1.414.195.195.451.293.707.293s.512-.098.707-.293l1.359-1.36c.465.618.809,1.276.963,1.895Z"/>
  <path d="M50.483,12.113c-.391.391-.391,1.024,0,1.414s1.024.391,1.414,0c.391-.391.391-1.024,0-1.414s-1.024-.391-1.414,0Z"/>
  <path d="M39.998,41.012h-5.02v-1c0-.55-.45-1-1-1h-15.98c-.55,0-1,.45-1,1s.45,1,1,1h14.98v7c0,3.86-3.14,7-7,7h-10c-3.86,0-7-3.14-7-7v-7h5.02c.55,0,1-.45,1-1s-.45-1-1-1h-6.02c-.55,0-1,.45-1,1v8c0,4.96,4.04,9,9,9h10c2.23,0,4.27-.82,5.85-2.17,5.41-1.33,9.17-6.09,9.17-11.69v-1.14c0-.55-.45-1-1-1ZM38.998,43.152c0,3.62-1.89,6.82-4.84,8.59.52-1.13.82-2.4.82-3.73v-5h4.02v.14Z"/>
</svg>