<?xml version="1.0" encoding="UTF-8"?>
<svg id="Outline" xmlns="http://www.w3.org/2000/svg" version="1.1" viewBox="0 0 64 64">
  <!-- Generator: Adobe Illustrator 29.5.1, SVG Export Plug-In . SVG Version: 2.1.0 Build 141)  -->
  <path d="M44.35057,9l-3.51996-1.88c-.23004-.13-.51001-.15002-.76001-.08002-.25.08002-.47003.26001-.59003.48999l-3.25,6.09003c-.5-.32001-1.07001-.51001-1.69-.58002.36005-.59998.58002-1.28998.58002-2.03998,0-2.21002-1.78998-4-4-4s-4,1.78998-4,4c0,.59998.14001,1.16998.39001,1.69-1.42999-.35004-2.79004-.98999-3.97003-1.87l-.82001-.62c-.29999-.23004-.70996-.26001-1.04999-.09003-.33997.15997-.54999.51001-.54999.89001v2.39001c0,2.38995.65997,4.69995,1.90002,6.71997-.90002.71997-1.56,1.71997-1.80005,2.89001h-1.09998c-.54999,0-1,.45001-1,1v12.94c0,5.26001,1.34998,10.45996,3.88,15.07001l-1.77002,3.53998c-.15997.31-.14001.67999.04004.97998.17999.29004.5.47003.84998.47003h18c.34998,0,.66998-.17999.84998-.47003.18005-.29999.20001-.66998.04004-.97998l-1.77002-3.53998c2.53003-4.61005,3.88-9.81,3.88-15.07001v-12.94c0-.54999-.45001-1-1-1h-1v-1c0-1.06-.42999-2.02002-1.10999-2.73999l4.75-8.91003c.26001-.48999.07996-1.08997-.41003-1.34998ZM31.12058,9c1.09998,0,2,.89996,2,2,0,1.09998-.90002,2-2,2s-2-.90002-2-2c0-1.10004.90002-2,2-2ZM23.12058,12.95996c2.07001,1.32001,4.51001,2.04004,6.96997,2.04004h4.03003c1.09998,0,2,.89996,2,2v2c0,.54999.45001,1,1,1,1.09998,0,2,.89996,2,2v1h-15.82001c.41998-1.16003,1.52002-2,2.82001-2h4c.54999,0,1-.45001,1-1s-.45001-1-1-1h-4c-.46002,0-.90002.07996-1.32001.20001-1.09998-1.74005-1.67999-3.74005-1.67999-5.81v-.43005ZM23.74058,55l1-2h12.76001l1,2h-14.76001ZM41.12058,36.94c0,4.90997-1.23999,9.75-3.59003,14.06h-12.81995c-2.35004-4.31-3.59003-9.15002-3.59003-14.06v-3.94h20v3.94ZM41.12058,31h-20v-2h20v2ZM41.12058,25v2h-20v-2h20ZM38.31059,18.19c-.06-.02002-.12-.04999-.19-.06v-1.13c0-.66003-.16998-1.27002-.46002-1.82001l3.11005-5.83002,1.75995.94-4.21997,7.90002Z"/>
</svg>