<?xml version="1.0" encoding="UTF-8"?>
<svg id="Outline" xmlns="http://www.w3.org/2000/svg" version="1.1" viewBox="0 0 64 64">
  <!-- Generator: Adobe Illustrator 29.5.1, SVG Export Plug-In . SVG Version: 2.1.0 Build 141)  -->
  <path d="M48,15h-1v-1c0-1.65-1.35-3-3-3v-1c0-1.65-1.35-3-3-3h-4c-1.65,0-3,1.35-3,3v1h-8c-.55,0-1,.45-1,1s.45,1,1,1h18c.55,0,1,.45,1,1v1h-26v-1c0-.55.45-1,1-1h2c.55,0,1-.45,1-1s-.45-1-1-1h-2c-1.65,0-3,1.35-3,3v1h-1c-.55,0-1,.45-1,1v4c0,.55.45,1,1,1h1.08l1.25,15.08c.05.55.52.96,1.08.92.55-.05.96-.53.92-1.08l-.62-7.44c1.4-1.08,3.21-1.94,5.29-2.54v1.52l-2.55,1.71c-.28.18-.45.5-.45.83v6c0,.55.45,1,1,1h6c.55,0,1-.45,1-1v-6c0-.33-.17-.65-.45-.83l-2.55-1.71v-1.98c1.59-.31,3.27-.48,5-.48,4.89,0,9.46,1.3,12.29,3.48l-1.68,20.11c-.04.02-.09.05-.14.07-1.44-4.5-5.65-7.66-10.47-7.66s-9.03,3.16-10.47,7.66c-.05-.02-.1-.05-.14-.07l-.72-8.67c-.05-.55-.52-.96-1.08-.92-.55.05-.96.53-.92,1.08l1.18,14.17c.12,1.54,1.44,2.75,2.99,2.75h18.32c1.55,0,2.87-1.21,2.99-2.75l2.77-33.25h1.08c.55,0,1-.45,1-1v-4c0-.55-.45-1-1-1ZM42,11h-6v-1c0-.55.45-1,1-1h4c.55,0,1,.45,1,1v1ZM32,43c4.03,0,7.54,2.69,8.64,6.5-.6.23-1.25.43-1.91.61-.82-2.98-3.54-5.11-6.73-5.11s-5.91,2.13-6.73,5.11c-.66-.18-1.31-.38-1.91-.61,1.1-3.81,4.61-6.5,8.64-6.5ZM36.79,50.56c-1.54.29-3.15.44-4.79.44s-3.25-.15-4.79-.44c.62-2.08,2.54-3.56,4.79-3.56s4.17,1.48,4.79,3.56ZM42.15,54.09c-.04.51-.47.91-.99.91h-18.32c-.52,0-.95-.4-.99-.91l-.27-3.17c.01,0,.02.01.03.01.07.04.14.07.22.09,2.91,1.28,6.44,1.98,10.17,1.98s7.26-.7,10.18-1.98c.07-.02.14-.05.21-.09.01,0,.02-.01.03-.01l-.27,3.17ZM19.52,26.17l-.43-5.17h5.91v2.89c-2.06.54-3.94,1.31-5.48,2.28ZM28,30.54v4.46h-4v-4.46l2-1.34,2,1.34ZM44.48,26.17c-3.17-2-7.71-3.17-12.48-3.17-1.72,0-3.4.17-5,.45v-2.45h17.91l-.43,5.17ZM47,19h-30v-2h30v2Z"/>
</svg>