<?xml version="1.0" encoding="UTF-8"?>
<svg id="Outline" xmlns="http://www.w3.org/2000/svg" version="1.1" viewBox="0 0 64 64">
  <!-- Generator: Adobe Illustrator 29.5.1, SVG Export Plug-In . SVG Version: 2.1.0 Build 141)  -->
  <path d="M44.95,18.615c.03-.2.05-.4.05-.61,0-1-.39-1.97-1.08-2.71-.21-1.17-.93-2.17-1.95-2.75-.23-1.99-1.92-3.54-3.97-3.54-.92,0-1.8.32-2.5.88-.84-.67-1.94-.99-3.03-.84-.69-1.24-2.01-2.04-3.47-2.04-2.21,0-4,1.79-4,4v.13c-1.44.37-2.56,1.52-2.9,2.97-1.77.41-3.1,2-3.1,3.9,0,.21.02.41.05.61-.85.91-1.05,1.78-1.05,2.39v7.3c0,3.89.52,7.75,1.54,11.46.97,3.55,1.46,7.23,1.46,10.94v4.3c0,.48.34.89.8.98,3.35.67,6.78,1.01,10.2,1.01s6.85-.34,10.2-1.01c.46-.09.8-.5.8-.98v-4.3c0-1.89.13-3.78.39-5.61.08-.55-.3-1.05-.85-1.13-.55-.08-1.05.3-1.13.85-.27,1.92-.41,3.9-.41,5.89v3.47c-5.93,1.09-12.07,1.09-18,0v-3.47c0-3.89-.52-7.75-1.54-11.46-.97-3.55-1.46-7.23-1.46-10.94v-4.11c.72.51,1.61.97,2.69,1.37,2.54.93,5.85,1.44,9.31,1.44,4.59,0,8.86-.9,11.42-2.42.22-.13.4-.26.58-.39v4.11c0,2.91-.31,5.82-.91,8.64-.11.54.23,1.07.77,1.19.07.01.14.02.21.02.46,0,.88-.32.98-.79.63-2.96.95-6.01.95-9.06v-7.3c0-.61-.2-1.48-1.05-2.39ZM20,21.005c0-.11.03-.21.06-.31.28.31.61.58.98.78-.03.18-.04.35-.04.53,0,.17.03.33.05.49-.67-.49-1.05-1.01-1.05-1.49ZM42.89,18.625c-.19.58-.63,1.04-1.21,1.25-.32.12-.56.41-.63.75-.07.34.05.69.31.93.4.37.64.9.64,1.45,0,.02-.01.05-.01.07-2.28,1.19-6.04,1.93-9.99,1.93-2.96,0-5.77-.4-8.01-1.11-.06-.14-.14-.26-.26-.36-.46-.38-.73-.94-.73-1.53,0-.25.05-.5.15-.75.1-.27.09-.56-.04-.82s-.36-.44-.63-.52c-.66-.17-1.17-.65-1.39-1.3-.06-.18-.09-.39-.09-.61,0-1.1.9-2,2-2,.55,0,1-.45,1-1,0-1.1.9-2,1.94-2,.05.01.2.02.25.02.33,0,.64-.16.82-.43.19-.27.23-.61.12-.92-.09-.23-.13-.45-.13-.67,0-1.1.9-2,2-2,.9,0,1.68.61,1.91,1.48.08.27.26.51.52.63.26.13.56.14.82.04.91-.36,1.9-.03,2.42.75.37.56,1.29.56,1.66,0,.38-.56,1-.9,1.67-.9,1.1,0,2,.9,1.99,2.02-.07.48.2.95.66,1.11.75.25,1.27.93,1.33,1.71.03.26.14.5.34.67.44.39.68.92.68,1.49,0,.22-.03.41-.11.62ZM43.76,21.665c-.07-.19-.15-.38-.25-.56.16-.12.3-.25.43-.4.03.1.06.2.06.3,0,.21-.1.43-.24.66Z"/>
  <circle cx="43" cy="41.005" r="1"/>
</svg>