<?xml version="1.0" encoding="UTF-8"?>
<svg id="Outline" xmlns="http://www.w3.org/2000/svg" version="1.1" viewBox="0 0 64 64">
  <!-- Generator: Adobe Illustrator 29.5.1, SVG Export Plug-In . SVG Version: 2.1.0 Build 141)  -->
  <path d="M42.724,30.027c-.53-.129-1.077.202-1.206.739-.037.152-.082.304-.126.456l-1.419,4.721c-1.843,6.161-2.244,12.723-1.173,19.057h-7.799c-.552,0-1,.448-1,1s.448,1,1,1h9c.299,0,.583-.134.773-.366s.266-.536.208-.83c-1.272-6.38-.958-13.05.907-19.286l1.355-4.498.068-.234c.054-.184.108-.368.152-.553.129-.537-.202-1.077-.739-1.206Z"/>
  <path d="M41.1,16.329c-.71-1.47-2.03-2.59-3.65-3l-.51-.12c-.27-1.9-1.51-3.54-3.3-4.31l-4.25-1.82c-.4-.17-.88-.06-1.16.28-.28.34-.31.83-.06,1.19l.15.23c.86,1.29.9,2.93.12,4.25-1.99.18-3.69,1.35-4.64,3.01-3.13.92-4.8,2.29-4.8,3.96,0,4.08.59,8.13,1.76,12.04l1.35,4.48c1.12,3.7,1.68,7.56,1.68,11.47,0,2.63-.26,5.26-.77,7.81-.06.3.02.6.21.83.19.24.47.37.77.37h3c.55,0,1-.45,1-1s-.45-1-1-1h-1.8c.39-2.31.59-4.66.59-7.01,0-4.1-.59-8.15-1.76-12.05l-1.35-4.48c-.84-2.81-1.37-5.7-1.58-8.62,1.03.6,2.37,1.08,3.9,1.43v5.73c0,1.65,1.35,3,3,3s3-1.35,3-3c0-.55.45-1,1-1s1,.45,1,1v3c0,1.65,1.35,3,3,3s3-1.35,3-3v-8.73c1.53-.35,2.86-.83,3.89-1.42-.09,1.33-.25,2.67-.48,3.98-.09.54.28,1.06.82,1.16.06.01.11.01.17.01.48,0,.9-.34.99-.83.4-2.36.61-4.77.61-7.17,0-1.06-.7-2.53-3.9-3.67ZM37,32.999c0,.55-.45,1-1,1s-1-.45-1-1v-3c0-1.65-1.35-3-3-3s-3,1.35-3,3c0,.55-.45,1-1,1s-1-.45-1-1v-5.36c1.59.24,3.3.36,5,.36s3.41-.12,5-.36v8.36ZM32,22.999c-7.12,0-11-1.98-11-3,0-.35.58-.98,2.06-1.59-.02.19-.06.39-.06.59v1c0,.55.45,1,1,1s1-.45,1-1v-1c0-2.21,1.79-4,4-4,.33,0,.65-.17.83-.45l.15-.22c.89-1.33,1.19-2.92.91-4.43l1.96.84c1.31.56,2.15,1.84,2.15,3.26,0,.46.31.86.76.97l1.2.3c1.33.33,2.36,1.41,2.62,2.75l.44,2.18c.09.47.51.8.98.8.06,0,.13-.01.2-.02.54-.11.89-.63.78-1.18l-.2-.99c.92.5,1.22.96,1.22,1.19,0,1.02-3.88,3-11,3Z"/>
</svg>