<?xml version="1.0" encoding="UTF-8"?>
<svg id="Outline" xmlns="http://www.w3.org/2000/svg" version="1.1" viewBox="0 0 64 64">
  <!-- Generator: Adobe Illustrator 29.3.1, SVG Export Plug-In . SVG Version: 2.1.0 Build 151)  -->
  <path d="M56.76936,15.72119l-8.49023-8.49023c-.39062-.39062-1.02344-.39062-1.41406,0l-2.12012,2.12012c-.2373.2373-.33984.57715-.27344.90527l.31934,1.5752c.17773.90234-.10352,1.82422-.76172,2.47461-.50098.50977-1.2002.80176-1.91699.80176-.1582,0-.3418-.02051-.54688-.06152l-1.58008-.30957c-.33105-.06445-.66504.03906-.90039.27539l-3.11035,3.11914c-.22461.18262-.36719.46289-.36719.77637,0,.55273.45215,1,1.00488,1,.26562,0,.52051-.10547.70801-.29395l2.80371-2.81152,1.05371.20605c.33105.06641.64551.09961.93457.09961,1.24902,0,2.46777-.50977,3.33301-1.38867,1.12695-1.11426,1.61621-2.71191,1.30762-4.2793l-.21387-1.05469,1.0332-1.0332,7.07617,7.07617-1.0332,1.0332-1.04883-.21289c-.2959-.06055-.59766-.09082-.92383-.09082-1.2666,0-2.45898.49512-3.35352,1.38965-1.13184,1.11914-1.61621,2.71973-1.29785,4.27246l.20703,1.05762-10.93555,10.93652-7.0752-7.0752,2.4707-2.46289c.18848-.1875.29395-.45215.29395-.71777,0-.55273-.44727-.99512-1-.99512-.2959,0-.56152.12988-.74414.33496l-3.1416,3.13184c-.1875.1875-.29395.44141-.29395.70703s.10547.52051.29297.70801l.70947.70947-2.11963,2.11963c-.39062.39062-.39062,1.02344,0,1.41406l2.12158,2.12158-11.34314,11.34314c-3.03729-2.61414-6.62402-3.27631-8.45618-1.44324-1.98242,1.98242-1.05078,6.01953,2.12109,9.19238,2.04785,2.04688,4.45508,3.16016,6.43848,3.16016,1.08984,0,2.05078-.33594,2.75391-1.03906,1.83215-1.83215,1.17078-5.41888-1.44324-8.45618l11.34314-11.34314,2.12158,2.12158c.19531.19531.45117.29297.70703.29297s.51172-.09766.70703-.29297l2.11963-2.11963.70947.70947c.1875.1875.44141.29297.70703.29297s.51953-.10547.70703-.29297l12.01953-12.02051c.23535-.23535.33789-.57227.27441-.89941l-.31152-1.58887c-.18359-.89648.09375-1.81543.74707-2.46094.52051-.52051,1.21094-.80762,1.94336-.80762.1875,0,.35645.0166.52148.05078l1.58008.32031c.32227.06055.66797-.03613.90527-.27344l2.12012-2.12012c.39062-.39062.39062-1.02344,0-1.41406ZM17.87678,54.60889c-1.00488,1.00293-3.86523.37891-6.36426-2.12109-2.5-2.50098-3.12402-5.36133-2.12109-6.36426.30273-.30273.77344-.45703,1.35254-.45703,1.15448,0,2.73889.61963,4.27161,1.90417l-2.08801,2.08801c-.39061.39061-.39062,1.02339-.00005,1.41401.38898.38904,1.02653.38763,1.41411.00005l2.08179-2.08179c1.92444,2.29907,2.35779,4.71259,1.45337,5.61792ZM32.01936,36.22412l-4.24316-4.24316,1.4126-1.4126,4.24316,4.24316-1.4126,1.4126Z"/>
  <circle cx="33.78431" cy="21.7345" r="1"/>
</svg>