<?xml version="1.0" encoding="UTF-8"?>
<svg id="Outline" xmlns="http://www.w3.org/2000/svg" version="1.1" viewBox="0 0 64 64">
  <!-- Generator: Adobe Illustrator 29.5.1, SVG Export Plug-In . SVG Version: 2.1.0 Build 141)  -->
  <path d="M43,35c.54999,0,1-.45001,1-1v-4c0-.54999-.45001-1-1-1h-.19c.12-.66003.19-1.33002.19-2,0-4.79999-6.29999-8.69-9.19-10.22003,1.02002-.29999,1.94-.90997,2.59003-1.77997.22998-.29999.25995-.71002.08997-1.04999-.15997-.34003-.51001-.55005-.89001-.55005-1.64996,0-3-1.34998-3-3,0-.65997.21002-1.27997.60004-1.79999.22998-.29999.26001-.70001.09998-1.03998-.16998-.34003-.51996-.56-.89996-.56-2.76001,0-5,2.23999-5,5,0,2.07996,1.27997,3.87,3.09998,4.62-2.71002,1.39996-9.5,5.39996-9.5,10.38,0,.66998.07001,1.33997.19,2h-.19c-.54999,0-1,.45001-1,1v4c0,.54999.45001,1,1,1h1v8h-1c-.54999,0-1,.45001-1,1v4c0,.54999.45001,1,1,1h1v7c0,.54999.45001,1,1,1s1-.45001,1-1v-7h16v7c0,.54999.45001,1,1,1s1-.45001,1-1v-7h1c.54999,0,1-.45001,1-1v-4c0-.54999-.45001-1-1-1h-1v-8h1ZM29.40002,12c0-1.01001.5-1.91003,1.26996-2.45001-.04999.27997-.07001.56-.07001.84998,0,1.94,1.11005,3.62,2.73004,4.45001-.29999.10004-.61005.15002-.92999.15002-1.65002,0-3-1.35004-3-3ZM32,18.09998c2.84998,1.37,9,5.10004,9,8.90002,0,.67999-.09998,1.34998-.25,2h-17.5c-.15002-.65002-.25-1.32001-.25-2,0-3.79999,6.15002-7.53003,9-8.90002ZM42,47h-20v-2h20v2ZM37,37h-10c-.54999,0-1,.45001-1,1v5h-2v-8h16v8h-2v-5c0-.54999-.45001-1-1-1ZM36,39v4h-8v-4h8ZM22,33v-2h20v2h-20Z"/>
</svg>