<?xml version="1.0" encoding="UTF-8"?>
<svg id="Outline" xmlns="http://www.w3.org/2000/svg" version="1.1" viewBox="0 0 64 64">
  <!-- Generator: Adobe Illustrator 29.3.1, SVG Export Plug-In . SVG Version: 2.1.0 Build 151)  -->
  <path d="M46,49.00001h-.63c.17999-.5.23999-1.04004.13-1.57001l-2.21997-12.01001c1.62-.52997,3.01996-1.27997,4.16998-2.26001,4.89001-4.23999,4.73999-12.19,4.72998-12.52997-.01001-.47003-.35999-.87-.83002-.96002-.08997-.01001-1.91998-.32001-4.33997-.17999.73999-2.83002.14001-5.69.10999-5.84003-.08997-.41998-.44-.72998-.85999-.77997-.22003-.03003-4.89001-.57001-8.65002,1.58002-1.13-4.17004-4.82001-7.10004-4.98999-7.24005-.37-.27997-.87-.27997-1.23999,0-.16998.14001-3.85999,3.07001-4.98999,7.24005-3.76001-2.15002-8.42999-1.61005-8.65002-1.58002-.41998.04999-.77002.35999-.85999.77997-.03003.15002-.63,3.01001.10999,5.84003-2.41998-.14001-4.25.16998-4.33997.17999-.47003.09003-.82001.48999-.83002.96002-.01001.33997-.16003,8.28998,4.73999,12.52997,1.14001.98004,2.53998,1.73004,4.15997,2.25l-2.21997,12c-.10999.54004-.04999,1.09003.13,1.59003h-.63c-2.21002,0-4,1.78998-4,4s1.78998,4,4,4h28c2.21002,0,4-1.79004,4-4s-1.78998-4-4-4ZM46.16998,21.56001c1.64001-.16998,3.11005-.10004,3.98999-.02002-.09998,2.03998-.69995,7.22003-4.01996,10.10004-1,.85999-2.26001,1.50995-3.73004,1.94995-.41998-.41998-.96997-.71997-1.58997-.84998l-3.97998-.62-.51001-2.57001c2.27997-.62,4.77997-2.17999,6.98999-4.38,1.06-1.07001,1.97998-2.20001,2.71997-3.37.04004-.08002.08002-.15997.13-.23999ZM18.71997,14.8c1.56006-.06,5.24005.04999,7.73004,2.10999.28998.23999.67999.29999,1.01996.15002.35004-.14001.58002-.46002.62006-.83002.28998-3.15002,2.73999-5.79999,3.90997-6.90002,1.16998,1.10004,3.62,3.75,3.90997,6.90002.04004.37.27002.69.62006.83002.33997.14996.72998.08997,1.01996-.15002,2.48003-2.04998,6.16001-2.16998,7.73002-2.10999.18695.00714.06344,2.64948.04026,2.8618-.26825,2.45723-1.71817,4.38603-3.42025,6.08821-1.33002,1.32996-2.79004,2.40997-4.20001,3.12.19-.59003.29999-1.21002.29999-1.87,0-3.31-2.69-6-6-6s-6,2.69-6,6c0,.65997.10999,1.27997.29999,1.87-1.40997-.71002-2.87-1.79004-4.20002-3.12001-2.55751-2.55767-3.83555-5.30501-3.37999-8.95ZM36,25.00001c0,2.20996-1.78998,4-4,4s-4-1.79004-4-4,1.78998-4,4-4,4,1.78998,4,4ZM17.86999,31.64002c-3.32001-2.87006-3.91998-8.06006-4.02997-10.10004.87994-.08002,2.34998-.14996,3.98999.02002.04999.08002.08997.15997.13.22998.73999,1.17999,1.65997,2.31,2.71997,3.38,2.21002,2.20001,4.71002,3.76001,6.98999,4.38l-.51001,2.57001-4.02997.63c-.59003.12-1.13.41998-1.53998.83997-1.47003-.44-2.73004-1.08997-3.72003-1.94995ZM20.46002,47.78999l2.26996-12.27997c.08002-.40002.40002-.72003.75-.79004l4.67004-.72998c.41998-.07001.75-.38.82996-.78998l.55005-2.74005c.75.34003,1.58997.54004,2.46997.54004s1.71997-.20001,2.46997-.54004l.55005,2.74005c.07996.40997.40997.71997.82996.78998l4.62.71997c.40002.08002.72003.40002.80005.80005l2.26996,12.29999c.08002.39996-.08997.69-.20996.82001-.19.23999-.47003.37-.77002.37h-8.56c-.17999,0-.34998-.03003-.51001-.08002.31-.57001.51001-1.21997.51001-1.91998,0-.69-.19-1.34003-.51001-1.92004.16003-.04999.33002-.07996.51001-.07996h4c.29999,0,.58002-.13.77002-.37.19-.23004.26996-.53003.20996-.83002l-1-5c-.10999-.53998-.63-.89001-1.17999-.78003-.53998.11005-.89001.63-.77997,1.18005l.76001,3.79999h-2.78003c-.71002,0-1.40002.20001-2.01001.54999-.59998-.34998-1.27997-.54999-1.98999-.54999h-2.78003l.76001-3.79999c.11005-.55005-.23999-1.07001-.77997-1.18005-.54999-.10999-1.07001.24005-1.17999.78003l-1,5c-.06.29999.01996.59998.20996.83002.19.23999.47003.37.77002.37h3.99996c1.07322,0,2.00004.93233,2.00004,2,0,1.09998-.90002,2-2,2h-8.56c-.29999,0-.58002-.13-.77002-.37-.12-.13-.28998-.42004-.20996-.84003ZM46,55.00001h-28c-1.09998,0-2-.90002-2-2,0-1.10004.90002-2,2-2h28c1.09998,0,2,.89996,2,2,0,1.09998-.90002,2-2,2Z"/>
</svg>