<?xml version="1.0" encoding="UTF-8"?>
<svg id="Outline" xmlns="http://www.w3.org/2000/svg" version="1.1" viewBox="0 0 64 64">
  <!-- Generator: Adobe Illustrator 29.5.1, SVG Export Plug-In . SVG Version: 2.1.0 Build 141)  -->
  <path d="M32,7c-8.398,0-16.183,4.179-20.824,11.178-.305.461-.179,1.081.281,1.386.461.308,1.081.18,1.386-.28,4.269-6.439,11.43-10.283,19.157-10.283,12.682,0,23,10.317,23,23s-10.318,23-23,23-23-10.317-23-23c0-1.964.245-3.894.727-5.737.14-.534-.18-1.08-.714-1.221-.535-.135-1.081.181-1.221.715-.526,2.009-.792,4.109-.792,6.243,0,13.785,11.215,25,25,25s25-11.215,25-25S45.785,7,32,7Z"/>
  <path d="M53,32c0-1.5-.67-2.88-1.79-3.82.68-1.29.76-2.83.19-4.22-.57-1.38-1.72-2.4-3.12-2.83.14-1.47-.37-2.92-1.43-3.97-1.05-1.07-2.51-1.58-3.98-1.44-.43-1.4-1.46-2.55-2.84-3.13-1.38-.56-2.92-.48-4.21.2-.94-1.12-2.32-1.79-3.82-1.79s-2.88.67-3.82,1.79c-1.29-.68-2.83-.76-4.21-.19-1.39.57-2.41,1.72-2.84,3.12-1.47-.14-2.92.37-3.97,1.43-1.07,1.05-1.58,2.51-1.44,3.98-1.4.43-2.55,1.46-3.12,2.84-.57,1.38-.49,2.92.19,4.21-1.12.94-1.79,2.32-1.79,3.82s.67,2.88,1.79,3.82c-.68,1.29-.76,2.83-.19,4.22.57,1.38,1.72,2.4,3.12,2.83-.14,1.47.37,2.92,1.43,3.97,1.05,1.07,2.51,1.58,3.98,1.44.43,1.4,1.46,2.55,2.84,3.13,1.38.56,2.92.48,4.21-.2.94,1.12,2.32,1.79,3.82,1.79s2.88-.67,3.82-1.79c1.29.68,2.83.76,4.21.19,1.39-.57,2.41-1.72,2.84-3.12,1.47.14,2.93-.37,3.97-1.43,1.07-1.05,1.58-2.51,1.44-3.98,1.4-.43,2.55-1.46,3.12-2.84.57-1.38.49-2.92-.19-4.21,1.12-.94,1.79-2.32,1.79-3.82ZM49.36,34.65c-.27.14-.46.39-.52.69-.06.3.02.61.22.85.73.86.92,2.04.5,3.08-.43,1.03-1.4,1.73-2.53,1.82-.31.03-.58.19-.75.44-.17.26-.22.57-.12.86.34,1.09.07,2.26-.73,3.05-.78.79-1.95,1.07-3.04.72-.29-.1-.6-.05-.86.12-.25.17-.41.44-.44.75-.09,1.13-.79,2.1-1.82,2.53-1.04.42-2.22.23-3.08-.5-.24-.2-.55-.28-.85-.22-.3.06-.55.25-.69.53-.52,1-1.53,1.63-2.65,1.63s-2.13-.63-2.65-1.63c-.14-.28-.39-.47-.69-.53-.07-.01-.13-.02-.2-.02-.23,0-.46.08-.65.24-.86.73-2.05.92-3.08.5-1.03-.43-1.73-1.4-1.82-2.53-.03-.31-.19-.58-.44-.75-.26-.17-.57-.21-.86-.12-1.09.34-2.26.07-3.05-.73-.79-.78-1.06-1.95-.72-3.04.1-.29.05-.6-.12-.86-.17-.25-.44-.41-.75-.44-1.13-.09-2.1-.79-2.53-1.82-.42-1.04-.23-2.22.5-3.08.2-.24.28-.55.22-.85-.06-.3-.25-.55-.52-.69-1.01-.52-1.64-1.53-1.64-2.65s.63-2.13,1.64-2.65c.27-.14.46-.39.52-.69s-.02-.61-.22-.85c-.73-.86-.92-2.04-.5-3.08.43-1.03,1.4-1.73,2.53-1.82.31-.03.58-.19.75-.44.17-.26.22-.57.12-.86-.34-1.09-.07-2.26.73-3.05.78-.79,1.95-1.07,3.04-.72.29.09.6.05.86-.12.25-.17.41-.44.44-.75.09-1.13.79-2.1,1.82-2.53,1.03-.42,2.22-.23,3.08.5.24.2.55.28.85.22.3-.06.55-.25.69-.53.52-1,1.53-1.63,2.65-1.63s2.13.63,2.65,1.63c.14.28.39.47.69.53.3.06.61-.02.85-.22.86-.73,2.04-.92,3.08-.5,1.03.43,1.73,1.4,1.82,2.53.03.31.19.58.44.75.26.17.57.21.86.12,1.09-.34,2.25-.07,3.05.73.79.78,1.06,1.95.72,3.04-.1.29-.05.6.12.86.17.25.44.41.75.44,1.13.09,2.1.79,2.53,1.82.42,1.04.23,2.22-.5,3.08-.2.24-.28.55-.22.85s.25.55.52.69c1.01.52,1.64,1.53,1.64,2.65s-.63,2.13-1.64,2.65Z"/>
  <path d="M40,38c0-4.411-3.589-8-8-8s-8,3.589-8,8c0,.423.264.78.634.926-.404.964-.634,1.998-.634,3.074,0,.423.264.78.634.926-.404.964-.634,1.998-.634,3.074,0,.553.448,1,1,1h14c.552,0,1-.447,1-1,0-1.076-.23-2.11-.634-3.074.371-.146.634-.503.634-.926,0-1.076-.23-2.11-.634-3.074.371-.146.634-.503.634-.926ZM32,32c2.968,0,5.439,2.166,5.917,5h-11.833c.478-2.834,2.949-5,5.917-5ZM37.918,41h-11.836c.118-.71.368-1.383.73-2h10.376c.362.617.612,1.29.73,2ZM26.082,45c.118-.71.368-1.383.73-2h10.376c.362.617.612,1.29.73,2h-11.836Z"/>
  <path d="M41,20h-3c0-.41-.25-.78-.63-.93-3.46-1.38-7.28-1.38-10.74,0-.38.15-.63.52-.63.93h-3c-.55,0-1,.45-1,1v4c0,.55.45,1,1,1h3c0,.41.25.78.63.93,1.73.69,3.55,1.04,5.37,1.04s3.64-.35,5.37-1.04c.38-.15.63-.52.63-.93h3c.55,0,1-.45,1-1v-4c0-.55-.45-1-1-1ZM26,24h-2v-2h2v2ZM36,25.3c-2.6.89-5.4.89-8,0v-4.6c2.6-.89,5.4-.89,8,0v4.6ZM40,24h-2v-2h2v2Z"/>
  <path d="M9.668,23.152c.505.225,1.096-.002,1.32-.507.225-.505-.002-1.096-.507-1.32-.505-.225-1.096.002-1.32.507-.225.505.002,1.096.507,1.32Z"/>
</svg>