<?xml version="1.0" encoding="UTF-8"?>
<svg id="Outline" xmlns="http://www.w3.org/2000/svg" version="1.1" viewBox="0 0 64 64">
  <!-- Generator: Adobe Illustrator 29.0.0, SVG Export Plug-In . SVG Version: 2.1.0 Build 186)  -->
  <path d="M57,24c0-9.37-11.21002-17-25-17S7,14.63,7,24c0,.54999.03998,1.09998.12,1.63-.08002.78998-.12,1.57001-.12,2.37,0,9.44,5.26001,17.66998,13,21.91998v4.08002c0,1.64996,1.34998,3,3,3h18c1.65002,0,3-1.35004,3-3v-4.08002c7.73999-4.25,13-12.47998,13-21.91998,0-.79999-.03998-1.58002-.12-2.37.08002-.54004.12-1.08002.12-1.63ZM42,54c0,.54999-.45001,1-1,1h-18c-.54999,0-1-.45001-1-1v-3.09003c3.06,1.34003,6.45001,2.09003,10,2.09003s6.94-.75,10-2.09003v3.09003ZM32,51c-11.67999,0-21.34998-8.75-22.79999-20.04999,3.90997,5.91998,12.65997,10.04999,22.79999,10.04999s18.89001-4.13,22.79999-10.04999c-1.45001,11.29999-11.12,20.04999-22.79999,20.04999ZM54.91998,25.19c-3.33997-5.21002-10.38995-9.02002-18.82001-9.96002-.54999-.06-1.03998.33002-1.09998.88-.07001.54999.33002,1.03998.88,1.09998,8.78998.99005,15.90002,5.21002,18.27002,10.81-2.70001,6.32001-11.60004,10.98004-22.15002,10.98004s-19.45001-4.66003-22.15002-10.98004c2.37-5.59998,9.48004-9.81995,18.27002-10.81.54999-.06.95001-.54999.88-1.09998-.06-.54999-.53998-.95001-1.09998-.88-8.43005.94-15.48004,4.75-18.82001,9.96002-.04999-.39001-.08002-.79004-.08002-1.19,0-8.27002,10.32001-15,23-15s23,6.72998,23,15c0,.39996-.03003.79999-.08002,1.19Z"/>
  <path d="M26,27c0-2.24316-2.63574-4-6-4s-6,1.75684-6,4,2.63574,4,6,4,6-1.75684,6-4ZM20,29c-2.28906,0-4-1.05566-4-2s1.71094-2,4-2,4,1.05566,4,2-1.71094,2-4,2Z"/>
  <path d="M27,22c0,1.6543,1.3457,3,3,3s3-1.3457,3-3-1.3457-3-3-3-3,1.3457-3,3ZM30,21c.55176,0,1,.44873,1,1s-.44824,1-1,1-1-.44873-1-1,.44824-1,1-1Z"/>
  <path d="M27,31c-1.6543,0-3,1.3457-3,3s1.3457,3,3,3,3-1.3457,3-3-1.3457-3-3-3ZM27,35c-.55176,0-1-.44873-1-1s.44824-1,1-1,1,.44873,1,1-.44824,1-1,1Z"/>
  <path d="M32.29297,33.94971c-.39062.39062-.39062,1.02344,0,1.41406s1.02344.39062,1.41406,0c1.81637-1.8154,4.76943-1.81543,6.58584-.00009.37063.37041,1.02022.39403,1.41416.00009.39062-.39062.39062-1.02344,0-1.41406-2.5957-2.5957-6.81836-2.5957-9.41406,0Z"/>
  <path d="M29.29297,30.36377c.39062.39062,1.02344.39062,1.41406,0,1.81637-1.8154,4.76942-1.81543,6.58583-.0001.3697.36948,1.0215.39277,1.41417.0001.39062-.39062.39062-1.02344,0-1.41406-2.5957-2.5957-6.81836-2.5957-9.41406,0-.39062.39062-.39062,1.02344,0,1.41406Z"/>
  <path d="M41.07422,26.85352c1.14062.37012,2.36719.59863,3.45801.59863,1.53613,0,2.80176-.45264,3.1748-1.59912v-.00049c.63574-1.95996-2.03223-3.81348-4.78125-4.70605-2.74707-.89111-5.99414-.95947-6.63281,1.00098-.63574,1.95996,2.03223,3.81348,4.78125,4.70605ZM42.30859,23.04883c2.23145.72461,3.32715,1.7876,3.47266,2.17871-.34668.23145-1.85547.44922-4.08984-.27637-2.23145-.72461-3.32715-1.7876-3.47266-2.17871.34668-.23193,1.85645-.4502,4.08984.27637Z"/>
  <circle cx="32" cy="16" r="1"/>
</svg>