<?xml version="1.0" encoding="UTF-8"?>
<svg id="Outline" xmlns="http://www.w3.org/2000/svg" version="1.1" viewBox="0 0 64 64">
  <!-- Generator: Adobe Illustrator 29.5.1, SVG Export Plug-In . SVG Version: 2.1.0 Build 141)  -->
  <path d="M32,7c-13.785,0-25,11.215-25,25,0,5.9,2.102,11.631,5.917,16.137.355.42.985.475,1.409.116.421-.356.474-.987.116-1.409-3.51-4.145-5.442-9.416-5.442-14.844,0-12.683,10.317-23,23-23s23,10.317,23,23-10.317,23-23,23c-5.428,0-10.699-1.933-14.844-5.442-.423-.358-1.054-.305-1.409.116-.357.422-.305,1.053.116,1.409,4.506,3.815,10.236,5.917,16.137,5.917,13.785,0,25-11.215,25-25S45.785,7,32,7Z"/>
  <path d="M32,11c-11.579,0-21,9.421-21,21s9.421,21,21,21,21-9.421,21-21c0-4.834-1.686-9.552-4.746-13.284-.351-.428-.98-.491-1.407-.14-.428.351-.489.98-.14,1.407,2.769,3.376,4.293,7.644,4.293,12.017,0,10.477-8.523,19-19,19s-19-8.523-19-19,8.523-19,19-19c4.373,0,8.641,1.524,12.017,4.293.428.351,1.057.287,1.407-.14.35-.427.288-1.057-.14-1.407-3.732-3.061-8.45-4.746-13.284-4.746Z"/>
  <path d="M19,42c0,1.654,1.346,3,3,3h8c1.654,0,3-1.346,3-3v-8c0-1.654-1.346-3-3-3h-8c-1.654,0-3,1.346-3,3v8ZM21,34c0-.552.448-1,1-1h8c.552,0,1,.448,1,1v8c0,.552-.448,1-1,1h-8c-.552,0-1-.448-1-1v-8Z"/>
  <path d="M45.768,21.938l-6.928-4h0c-1.434-.826-3.27-.332-4.098,1.099l-4,6.929c-.826,1.433-.333,3.271,1.099,4.098l6.929,4c.471.271.985.4,1.493.4,1.038,0,2.049-.538,2.604-1.499l4-6.928c.827-1.433.334-3.271-1.099-4.099ZM45.134,25.036l-4,6.928c-.276.478-.89.641-1.366.366l-6.928-4c-.478-.275-.642-.889-.366-1.366l4-6.928c.185-.32.521-.5.868-.5.169,0,.341.043.498.134l6.928,4c.478.275.643.889.366,1.366Z"/>
  <path d="M22,29h4c1.654,0,3-1.346,3-3v-4c0-1.654-1.346-3-3-3h-4c-1.654,0-3,1.346-3,3v4c0,1.654,1.346,3,3,3ZM21,22c0-.552.448-1,1-1h4c.552,0,1,.448,1,1v4c0,.552-.448,1-1,1h-4c-.552,0-1-.448-1-1v-4Z"/>
  <path d="M33.707,48.535c.713-.713,1.873-.713,2.586,0,.195.195.451.293.707.293.867,0,1.32-1.094.707-1.707-1.492-1.492-3.922-1.492-5.414,0-.391.391-.391,1.023,0,1.414s1.023.391,1.414,0Z"/>
  <path d="M39.293,43.707c.195.195.451.293.707.293.871,0,1.321-1.093.707-1.707-1.492-1.492-3.922-1.492-5.414,0-.391.391-.391,1.023,0,1.414s1.023.391,1.414,0c.713-.713,1.873-.713,2.586,0Z"/>
  <path d="M42.707,40.707c.713-.713,1.873-.713,2.586,0,.195.195.451.293.707.293.871,0,1.321-1.093.707-1.707-1.492-1.492-3.922-1.492-5.414,0-.391.391-.391,1.023,0,1.414s1.023.391,1.414,0Z"/>
  <path d="M40.707,36.293c-1.492-1.492-3.922-1.492-5.414,0-.391.391-.391,1.023,0,1.414s1.023.391,1.414,0c.713-.713,1.873-.713,2.586,0,.195.195.451.293.707.293.874,0,1.324-1.09.707-1.707Z"/>
</svg>