<?xml version="1.0" encoding="UTF-8"?>
<svg id="Outline" xmlns="http://www.w3.org/2000/svg" version="1.1" viewBox="0 0 64 64">
  <!-- Generator: Adobe Illustrator 29.5.1, SVG Export Plug-In . SVG Version: 2.1.0 Build 141)  -->
  <path d="M45.93,45.521l.596-.765c.906-1.19.797-2.891-.26-3.963l-5.42-5.42c-.971-.972-2.479-1.158-3.671-.451l-5.391,3.236c-1.799-.413-3.49-1.099-5.033-2.042-.473-.287-1.087-.14-1.375.332s-.139,1.087.332,1.375c1.848,1.128,3.883,1.928,6.049,2.376.244.05.502.007.717-.122l1.979-1.188,7.931,7.93-.643.826c-.209.268-.547.411-.881.379-4.737-.479-13.847-2.445-21.623-10.223-2.703-2.701-9.11-10.218-10.232-21.646-.033-.316.116-.65.39-.858l.826-.643,7.929,7.929-1.187,1.981c-.129.215-.173.47-.122.715.43,2.101,1.68,6.154,5.222,9.696l.278.269c.389.391,1.023.392,1.414.003.392-.39.394-1.023.004-1.415l-.282-.271c-2.973-2.974-4.143-6.348-4.595-8.309l3.234-5.398c.713-1.181.527-2.688-.449-3.664l-5.43-5.43c-1.064-1.064-2.768-1.169-3.962-.242l-4.1,3.192c-.82.623-1.266,1.638-1.161,2.644,1.185,12.066,7.953,20.006,10.809,22.859,8.215,8.215,17.833,10.292,22.835,10.798.099.01.197.015.296.015.913,0,1.799-.427,2.365-1.156l1.38-1.772,8.098,7.19c.078.078.122.185.122.293,0,.229-.186.414-.414.414h-23.466c-1.071,0-2.134-.456-2.991-1.283-1.146-1.107-2.655-1.717-4.249-1.717h-7.88c-.553,0-1,.448-1,1s.447,1,1,1h7.88c1.072,0,2.088.411,2.86,1.156,1.232,1.189,2.788,1.844,4.38,1.844h23.466c1.331,0,2.414-1.083,2.414-2.414,0-.635-.258-1.257-.75-1.748l-8.239-7.317ZM13.502,12.101c.398-.31.968-.278,1.321.077l5.43,5.43c.325.324.387.824.149,1.218l-1.193,1.991-7.399-7.399,1.691-1.317ZM36.221,37.828l1.98-1.189c.4-.237.907-.177,1.231.148l5.415,5.415c.356.362.395.939.094,1.333l-1.108,1.423c-.007.007-.016.01-.023.017-.013.014-.016.033-.028.048l-.16.206-7.402-7.401Z"/>
  <path d="M55.998,20.026c-.545-.129-1.076.208-1.202.746-1.116,4.768-6.498,8.228-12.796,8.228-1.518,0-3.04-.216-4.524-.642-.212-.062-.441-.05-.646.033l-2.829,1.132v-2.103c0-.335-.168-.648-.448-.833-2.893-1.917-4.552-4.682-4.552-7.586,0-5.514,5.832-10,13-10,6.298,0,11.68,3.46,12.796,8.228.126.537.658.873,1.202.746.537-.126.871-.664.745-1.202-1.326-5.662-7.526-9.772-14.743-9.772-8.271,0-15,5.383-15,12,0,3.43,1.815,6.664,5,8.945v3.055c0,.332.165.642.439.828.168.114.363.172.561.172.126,0,.252-.023.371-.071l3.888-1.555c1.558.416,3.15.626,4.741.626,7.217,0,13.417-4.11,14.743-9.772.126-.538-.208-1.076-.745-1.202Z"/>
  <path d="M47.707,13.293c-.391-.391-1.023-.391-1.414,0l-4.293,4.293-4.293-4.293c-.391-.391-1.023-.391-1.414,0s-.391,1.023,0,1.414l4.293,4.293-4.293,4.293c-.391.391-.391,1.023,0,1.414.195.195.451.293.707.293s.512-.098.707-.293l4.293-4.293,4.293,4.293c.195.195.451.293.707.293s.512-.098.707-.293c.391-.391.391-1.023,0-1.414l-4.293-4.293,4.293-4.293c.391-.391.391-1.023,0-1.414Z"/>
</svg>