<?xml version="1.0" encoding="UTF-8"?>
<svg id="Outline" xmlns="http://www.w3.org/2000/svg" version="1.1" viewBox="0 0 64 64">
  <!-- Generator: Adobe Illustrator 29.3.1, SVG Export Plug-In . SVG Version: 2.1.0 Build 151)  -->
  <path d="M56,45h-2v-13.79004c0-4.29999-1.10999-8.48999-3.21002-12.20996h.21002c3.31,0,6-2.69,6-6s-2.69-6-6-6H8c-.54999,0-1,.45001-1,1v10c0,.54999.45001,1,1,1h2v3c0,.54999.45001,1,1,1h5v7.69c-2.35999,1.12-4,3.51996-4,6.31h-2c-1.65002,0-3,1.34998-3,3,0,1.29999.84003,2.39996,2,2.82001v.17999c0,3.26996,1.59003,6.16998,4.03003,8h-5.03003c-.54999,0-1,.45001-1,1v4c0,.54999.45001,1,1,1h48c.54999,0,1-.45001,1-1v-10c0-.54999-.45001-1-1-1ZM52,31.20996v13.79004h-16v-13.79004c0-4.29999-1.10999-8.48999-3.21002-12.20996h15.65002c2.32001,3.65997,3.56,7.87,3.56,12.20996ZM28,37h-2c0-2.79004-1.64001-5.19-4-6.31v-7.69h5c.54999,0,1-.45001,1-1v-3h2.44c2.32001,3.65997,3.56,7.87,3.56,12.20996v13.79004h-2c-.54999,0-1,.45001-1,1v5h-6.03003c2.44-1.83002,4.03003-4.73004,4.03003-8v-.17999c1.15997-.42004,2-1.52002,2-2.82001,0-1.65002-1.34998-3-3-3ZM20,32.09998c2.28003.47003,4,2.48999,4,4.90002h-4v-4.90002ZM19,30c-.34003,0-.66998.02997-1,.07996v-7.07996h2v7.07996c-.33002-.04999-.65997-.07996-1-.07996ZM9,17v-8h42c2.21002,0,4,1.78998,4,4s-1.78998,4-4,4H9ZM12,21v-2h14v2h-14ZM18,32.09998v4.90002h-4c0-2.41003,1.71997-4.42999,4-4.90002ZM9,40c0-.54999.45001-1,1-1h18c.54999,0,1,.45001,1,1s-.45001,1-1,1H10c-.54999,0-1-.45001-1-1ZM11,43h16c0,4.40997-3.59003,8-8,8s-8-3.59003-8-8ZM55,55H9v-2h46v2ZM55,51h-22v-4h22v4Z"/>
  <path d="M44,43c3.30859,0,6-2.69141,6-6s-2.69141-6-6-6-6,2.69141-6,6,2.69141,6,6,6ZM44,33c2.20605,0,4,1.79443,4,4s-1.79395,4-4,4-4-1.79443-4-4,1.79395-4,4-4Z"/>
</svg>