<?xml version="1.0" encoding="UTF-8"?>
<svg id="Outline" xmlns="http://www.w3.org/2000/svg" version="1.1" viewBox="0 0 64 64">
  <!-- Generator: Adobe Illustrator 29.5.1, SVG Export Plug-In . SVG Version: 2.1.0 Build 141)  -->
  <path d="M44.501,26.007l.271-3.239c.463-.052.931-.089,1.386-.16,1.008-.161,1.944-.39,2.842-.647v.04c0,.552.447,1,1,1s1-.448,1-1v-2c0-.379-.214-.725-.553-.895l-2-1c-.494-.247-1.094-.047-1.342.447-.247.494-.047,1.095.447,1.342l.52.26c-.707.187-1.445.352-2.227.478-.296.046-.604.067-.904.104l.619-7.407c4.678.701,7.439,2.363,7.439,3.671,0,.102-.013.164-.023.198-.167.526.124,1.088.652,1.255.52.168,1.089-.132,1.255-.651.078-.245.117-.515.117-.802,0-2.68-3.641-4.865-9.35-5.677-.081-1.039-.491-2.035-1.204-2.81-.885-.961-2.141-1.513-3.446-1.513-2.458,0-4.458,1.912-4.644,4.324-.171.024-.346.042-.515.069-1.008.161-1.944.39-2.842.647v-.04c0-.552-.447-1-1-1s-1,.448-1,1v2c0,.379.214.725.553.895,0,0,2,1,2,1,.49.245,1.097.041,1.342-.447.247-.494.047-1.095-.447-1.342l-.52-.26c.708-.188,1.445-.353,2.229-.478.092-.015.19-.024.283-.038l.621,7.434c-5.073-.633-8.06-2.413-8.06-3.764,0-.102.013-.164.023-.198.167-.526-.124-1.088-.65-1.255-.528-.169-1.089.125-1.256.651-.078.245-.117.515-.117.802,0,3.174,4.786,5.158,10.229,5.784l.201,2.408c-1.77-.118-3.582-.192-5.431-.192-12.119,0-25,2.804-25,8v2.958c0,7.938,3.402,15.515,9.336,20.789.183.163.419.252.664.252h30c.245,0,.481-.09.664-.252,5.934-5.274,9.336-12.851,9.336-20.789v-2.958c0-4.214-8.122-6.219-12.499-6.993ZM55,33c0,1.105-1.871,2.811-7.007,4.183.001-.061.007-.123.007-.183,0-3.386-1.453-6.434-3.751-7.976l.085-1.013c7.312,1.307,10.666,3.468,10.666,4.99ZM38.343,12.103s.001-.007,0-.011c0-.003-.002-.005-.003-.008l-.016-.192c-.007-.069-.005-.145-.005-.213,0-1.478,1.202-2.68,2.68-2.68.759,0,1.46.308,1.975.867.514.559.762,1.283.699,2.04l-.014.17s-.003.007-.003.01c0,.005.002.009.001.014l-.738,8.825c-.637.038-1.275.072-1.919.072-.666,0-1.3-.025-1.918-.06l-.739-8.837ZM41,23c.588,0,1.169-.037,1.751-.066l-.547,6.542c-.034.399.174.78.528.968,1.954,1.035,3.268,3.669,3.268,6.556,0,.219-.033.446-.05.67-2.885.616-6.217,1.032-9.737,1.218-.127-.617-.213-1.245-.213-1.888,0-2.887,1.313-5.521,3.268-6.556.354-.188.562-.569.528-.968l-.546-6.527c.584.031,1.168.052,1.75.052ZM32,27c1.909,0,3.78.077,5.599.206l.152,1.818c-2.298,1.542-3.751,4.59-3.751,7.976,0,.666.064,1.324.177,1.97-.69.018-1.403.03-2.177.03-14.25,0-23-3.495-23-6s8.75-6,23-6ZM46.615,55h-29.23c-5.251-4.806-8.283-11.587-8.376-18.706,4.082,3.075,13.754,4.706,22.991,4.706,1.244,0,2.362-.023,3.419-.069,0,0,0,0,0,0,0,0,0,0,.001,0,.013,0,.028,0,.041-.001,4.241-.178,8.271-.684,11.652-1.464.008-.002.016-.004.024-.006.002,0,.004,0,.005-.001,3.539-.819,6.19-1.893,7.847-3.149-.097,7.113-3.128,13.888-8.376,18.691Z"/>
  <path d="M14.066,42.691c-.172-.525-.735-.813-1.26-.642-.525.17-.813.735-.643,1.26,1.143,3.518,3.119,6.766,5.717,9.394.195.198.453.297.711.297.871,0,1.323-1.085.711-1.703-2.379-2.407-4.189-5.383-5.236-8.606Z"/>
</svg>