<?xml version="1.0" encoding="UTF-8"?>
<svg id="Outline" xmlns="http://www.w3.org/2000/svg" version="1.1" viewBox="0 0 64 64">
  <!-- Generator: Adobe Illustrator 29.5.1, SVG Export Plug-In . SVG Version: 2.1.0 Build 141)  -->
  <path d="M37.035,49c.55273,0,1-.44727,1-1s-.44727-1-1-1h-20c-.55273,0-1,.44727-1,1s.44727,1,1,1h20Z"/>
  <path d="M50.965,27c.54999,0,1-.45001,1-1v-8c0-.88-.38-1.71002-1.03998-2.28003-.66003-.57001-1.54004-.82001-2.33002-.70001l-6.56.57001v-5.58997c0-1.65002-1.34998-3-3-3H15.035c-1.65002,0-3,1.34998-3,3v24c0,.54999.45001,1,1,1s1-.45001,1-1V14c0-.54999.45001-1,1-1h5.03998c1.94,0,3.79004.52997,5.34003,1.51996.96997.63,2.27002.63,3.23999,0,1.54999-.98999,3.40002-1.51996,5.34003-1.51996h5.03998c.54999,0,1,.45001,1,1v1.76996l-11.5.99005c-1.48999.22998-2.57001,1.47998-2.57001,2.96997v14.27002c0,1.64996,1.35004,3,3,3h1.57001c.31,1.38,1.06,2.66998,2.21997,3.63l2.56997,2.13992c.71857.59833,1.79174-.06871,1.62003-.96994l-.29999-1.46002c-.21997-1.13-.19-2.26001.08002-3.33997h3.31v13c0,.54999-.45001,1-1,1H15.035c-.54999,0-1-.45001-1-1v-12c0-.54999-.45001-1-1-1s-1,.45001-1,1v16c0,1.64996,1.34998,3,3,3h24c1.65002,0,3-1.35004,3-3v-17h6.92999c1.65002,0,3-1.35004,3-3v-4c0-.54999-.45001-1-1-1s-1,.45001-1,1v4c0,.54999-.45001,1-1,1h-11.44c.09003-.15002.16998-.29999.27002-.45001.29999-.46002.17999-1.08002-.28003-1.38-.45996-.31-1.07996-.17999-1.38995.28003-1.20001,1.79999-1.76001,3.91998-1.60004,6.04999l-.48999-.41003c-1.65997-1.38-2.15002-3.70996-1.17999-5.63995.25-.5.04999-1.10004-.45001-1.34003-.48999-.25-1.08997-.04999-1.33997.44-.39001.78998-.60004,1.62-.67004,2.45001h-1.42999c-.54999,0-1-.45001-1-1v-14.27002c0-.5.37-.90997.81-.97998l20.06-1.73999c.28003-.04004.56.03998.78003.22998.21997.19.34998.46997.34998.76001v8c0,.54999.45001,1,1,1ZM40.035,54c0,.54999-.45001,1-1,1H15.035c-.54999,0-1-.45001-1-1v-1.17999c.31.10999.65002.17999,1,.17999h24c.34998,0,.69-.07001,1-.17999v1.17999ZM40.035,11.17999c-.31-.10999-.65002-.17999-1-.17999h-5.03998c-2.33002,0-4.55005.64001-6.42004,1.83997-.32001.21002-.75995.21002-1.07996,0-1.87-1.19995-4.09003-1.83997-6.42004-1.83997h-5.03998c-.34998,0-.69.07001-1,.17999v-1.17999c0-.54999.45001-1,1-1h24c.54999,0,1,.45001,1,1v1.17999Z"/>
  <path d="M46.96078,21h-16c-.55273,0-1,.44727-1,1s.44727,1,1,1h16c.55273,0,1-.44727,1-1s-.44727-1-1-1Z"/>
  <path d="M46.96078,25h-6c-.55273,0-1,.44727-1,1s.44727,1,1,1h6c.55273,0,1-.44727,1-1s-.44727-1-1-1Z"/>
  <path d="M46.96078,29h-16c-.55273,0-1,.44727-1,1s.44727,1,1,1h16c.55273,0,1-.44727,1-1s-.44727-1-1-1Z"/>
</svg>