<?xml version="1.0" encoding="UTF-8"?>
<svg id="Outline" xmlns="http://www.w3.org/2000/svg" version="1.1" viewBox="0 0 64 64">
  <!-- Generator: Adobe Illustrator 29.5.1, SVG Export Plug-In . SVG Version: 2.1.0 Build 141)  -->
  <path d="M53,20h-5c-.55,0-1,.45-1,1s.45,1,1,1h5c.55,0,1,.45,1,1v18c0,.55-.45,1-1,1H21v-2h27c.55,0,1-.45,1-1,0-1.1.9-2,2-2,.55,0,1-.45,1-1v-8c0-.55-.45-1-1-1-1.1,0-2-.9-2-2,0-.55-.45-1-1-1h-27v-2h23c.55,0,1-.45,1-1s-.45-1-1-1h-2v-9c0-2.21-1.79-4-4-4H12c-2.21,0-4,1.79-4,4v42c0,2.21,1.79,4,4,4h26c2.21,0,4-1.79,4-4v-9h11c1.65,0,3-1.35,3-3v-18c0-1.65-1.35-3-3-3ZM47.13,26c.36,1.4,1.47,2.51,2.87,2.87v6.26c-1.4.36-2.51,1.47-2.87,2.87h-9.86c1.67-1.47,2.73-3.61,2.73-6s-1.06-4.53-2.73-6h9.86ZM32,26c3.31,0,6,2.69,6,6s-2.69,6-6,6-6-2.69-6-6,2.69-6,6-6ZM26.73,26c-1.67,1.47-2.73,3.61-2.73,6s1.06,4.53,2.73,6h-5.73v-12h5.73ZM40,53c0,1.1-.9,2-2,2H12c-1.1,0-2-.9-2-2V11c0-1.1.9-2,2-2h26c1.1,0,2,.9,2,2v9h-2v-7c0-1.1-.9-2-2-2h-6.38c-.77,0-1.45.42-1.8,1.11l-.44.89-4.76.01-.45-.91c-.34-.68-1.02-1.1-1.79-1.1h-6.38c-1.1,0-2,.9-2,2v19c0,.55.45,1,1,1s1-.45,1-1V13l6.38-.01.45.91c.34.68,1.02,1.1,1.79,1.1h4.76c.77,0,1.45-.42,1.8-1.11l.44-.89h6.38v7h-15v-2c0-.55-.45-1-1-1s-1,.45-1,1v28c0,.55.45,1,1,1s1-.45,1-1v-2h15v7H14v-15c0-.55-.45-1-1-1s-1,.45-1,1v15c0,1.1.9,2,2,2h22c1.1,0,2-.9,2-2v-7h2v9Z"/>
  <path d="M45,35c1.654,0,3-1.346,3-3s-1.346-3-3-3-3,1.346-3,3,1.346,3,3,3ZM45,31c.551,0,1,.449,1,1s-.449,1-1,1-1-.449-1-1,.449-1,1-1Z"/>
  <path d="M34.293,29.293l-3.293,3.293-1.293-1.293c-.391-.391-1.023-.391-1.414,0s-.391,1.023,0,1.414l2,2c.195.195.451.293.707.293s.512-.098.707-.293l4-4c.391-.391.391-1.023,0-1.414s-1.023-.391-1.414,0Z"/>
</svg>