<?xml version="1.0" encoding="UTF-8"?>
<svg id="Outline" xmlns="http://www.w3.org/2000/svg" version="1.1" viewBox="0 0 64 64">
  <!-- Generator: Adobe Illustrator 29.5.1, SVG Export Plug-In . SVG Version: 2.1.0 Build 141)  -->
  <path d="M48.32,17.03l-13.39-7.65c-.28-1.36-1.49-2.38-2.93-2.38s-2.65,1.02-2.93,2.38l-13.39,7.65c-1.5.17-2.68,1.43-2.68,2.97v2c0,1.3.84,2.4,2,2.82v24.18c0,.4.24.76.6.92l16,7c.13.05.26.08.4.08s.27-.03.4-.08l16-7c.36-.16.6-.52.6-.92v-24.18c1.16-.42,2-1.52,2-2.82v-2c0-1.54-1.18-2.8-2.68-2.97ZM32,9c.55,0,1,.45,1,1s-.45,1-1,1-1-.45-1-1,.45-1,1-1ZM29.41,11.49c.52.9,1.48,1.51,2.59,1.51s2.07-.61,2.59-1.51l9.64,5.51h-24.46l9.64-5.51ZM47,48.35l-15,6.56-15-6.56v-2.82l14.6,6.39c.13.05.26.08.4.08s.27-.03.4-.08l14.6-6.39v2.82ZM47,43.35l-15,6.56-15-6.56v-18.35h30v18.35ZM49,22c0,.55-.45,1-1,1H16c-.55,0-1-.45-1-1v-2c0-.55.45-1,1-1h32c.55,0,1,.45,1,1v2Z"/>
  <path d="M22.764,34.764c.809,1.616,1.236,3.428,1.236,5.236v4c0,.553.447,1,1,1h14c.553,0,1-.447,1-1v-4c0-1.809.428-3.62,1.236-5.236l1.658-3.316c.197-.395.113-.871-.207-1.174-.32-.303-.802-.361-1.184-.142l-6.026,3.443-2.559-5.969c-.157-.368-.519-.606-.919-.606s-.762.238-.919.606l-2.559,5.969-6.026-3.443c-.384-.22-.863-.161-1.184.142-.32.303-.404.779-.207,1.174l1.658,3.316ZM38,43h-12v-2h12v2ZM28.504,35.868c.247.141.543.168.813.08.271-.091.489-.292.602-.555l2.081-4.854,2.081,4.854c.112.263.331.464.602.555.268.088.566.061.813-.08l4.133-2.361-.182.362c-.798,1.595-1.278,3.351-1.41,5.131h-12.074c-.132-1.78-.612-3.536-1.41-5.131l-.182-.362,4.133,2.361Z"/>
</svg>