<?xml version="1.0" encoding="UTF-8"?>
<svg id="Outline" xmlns="http://www.w3.org/2000/svg" version="1.1" viewBox="0 0 64 64">
  <!-- Generator: Adobe Illustrator 29.5.1, SVG Export Plug-In . SVG Version: 2.1.0 Build 141)  -->
  <path d="M52.647,13.419c-5.656-5.657-14.722-5.878-20.647-.664-5.924-5.215-14.991-4.994-20.647.664-5.885,5.885-5.885,15.459,0,21.344l4.2,4.2c.391.391,1.023.391,1.414,0s.391-1.023,0-1.414l-4.2-4.2c-5.105-5.105-5.105-13.411,0-18.516,5.106-5.107,13.417-5.108,18.526,0,.391.391,1.023.391,1.414,0,5.108-5.107,13.419-5.106,18.526,0s5.105,13.411,0,18.516l-19.233,19.233-12.203-12.203c-.391-.391-1.023-.391-1.414,0s-.391,1.023,0,1.414l12.91,12.91c.195.195.451.293.707.293s.512-.098.707-.293l19.94-19.94c5.885-5.885,5.885-15.459,0-21.344Z"/>
  <path d="M23.203,30.979c-2.637,2.637-2.637,6.927,0,9.564l.21.21c.391.391,1.023.391,1.414,0s.391-1.023,0-1.414l-.21-.21c-1.857-1.857-1.857-4.879,0-6.736,1.857-1.856,4.878-1.857,6.736,0,.39.39,1.021.391,1.413.001,1.865-1.857,4.892-1.857,6.748-.001s1.857,4.879,0,6.736l-7.453,7.452-4.402-4.412c-.39-.391-1.023-.392-1.415-.001-.391.39-.392,1.023-.001,1.415l5.11,5.12c.188.188.442.293.708.293h0c.265,0,.52-.105.707-.293l8.16-8.16c2.637-2.637,2.637-6.927,0-9.564-2.41-2.41-6.211-2.616-8.866-.615-2.649-2.003-6.446-1.798-8.858.615Z"/>
  <path d="M26.23,17.023c-.454-.107-.917.111-1.125.526l-1.105,2.211-1.105-2.211c-.208-.415-.67-.633-1.125-.526-.451.106-.77.509-.77.973v8c0,.552.448,1,1,1s1-.448,1-1v-3.764l.105.211c.339.678,1.45.678,1.789,0l.105-.211v3.764c0,.552.448,1,1,1s1-.448,1-1v-8c0-.464-.319-.867-.77-.973Z"/>
  <path d="M42,26.996c.552,0,1-.448,1-1v-8c0-.464-.319-.867-.77-.973-.455-.107-.917.111-1.125.526l-1.105,2.211-1.105-2.211c-.207-.415-.668-.633-1.125-.526-.451.106-.77.509-.77.973v8c0,.552.448,1,1,1s1-.448,1-1v-3.764l.105.211c.339.678,1.45.678,1.789,0l.105-.211v3.764c0,.552.448,1,1,1Z"/>
  <path d="M35,23.996v-4c0-1.654-1.346-3-3-3s-3,1.346-3,3v4c0,1.654,1.346,3,3,3s3-1.346,3-3ZM31,23.996v-4c0-.551.449-1,1-1s1,.449,1,1v4c0,.551-.449,1-1,1s-1-.449-1-1Z"/>
</svg>