<?xml version="1.0" encoding="UTF-8"?>
<svg id="Outline" xmlns="http://www.w3.org/2000/svg" version="1.1" viewBox="0 0 48 48">
  <!-- Generator: Adobe Illustrator 29.0.0, SVG Export Plug-In . SVG Version: 2.1.0 Build 186)  -->
  <path d="M23.23633,27.02002h2.76367c.55273,0,1-.44727,1-1s-.44727-1-1-1h-1v-1c0-.55273-.44727-1-1-1s-1,.44727-1,1v1.02393c-1.12109.11987-2,1.05994-2,2.2124,0,.85156.47363,1.61719,1.23633,2l2.63184,1.31543c.08105.04102.13184.12207.13184.21191,0,.12988-.10645.23633-.23633.23633h-2.76367c-.55273,0-1,.44727-1,1s.44727,1,1,1h1v1c0,.55273.44727,1,1,1s1-.44727,1-1v-1.02393c1.12109-.11987,2-1.05994,2-2.2124,0-.85156-.47363-1.61719-1.23633-2l-2.63184-1.31543c-.08105-.04102-.13184-.12207-.13184-.21191,0-.12988.10645-.23633.23633-.23633Z"/>
  <path d="M38.46002,28.04999c-.07001-.29999-.27002-.54999-.55005-.67999-.26996-.12-.58997-.12-.87.01001l-1.48999.73999c-.08997.04999-.17999.12-.26001.19l-1.52997,1.53998-1.85004-.75.41003-.12994c.21002-.07001.39001-.21002.51001-.40002,0,0,.76996-1.14001.77997-1.15997l1.04999-1.58002,1.81-.72003c.25-.09998.45001-.29999.56006-.54999.09998-.26001.08997-.53998-.02002-.78998-1.32001-2.95001-3.13-5.5-5.20001-7.37.72003-.55005,1.19-1.41003,1.19-2.38,0-.81-.32001-1.57001-.87-2.10999-.53998-.55005-1.27002-.86005-2.03998-.88.19995-1.29004.79999-2.48004,1.73999-3.42004l.88-.88c.27997-.28998.37-.71997.20996-1.08997-.14996-.38-.51996-.62-.91998-.62h-16c-.40002,0-.77002.23999-.91998.62-.16003.37-.07001.79999.20996,1.08997l.88.88c.94.94,1.54004,2.13,1.73999,3.42004-1.60999.03998-2.90997,1.35999-2.90997,2.98999,0,.81.32001,1.57001.87,2.10999.09998.09998.21002.17999.32001.26001-4.19,3.78998-7.19,10.29999-7.19,15.94,0,6.71997,4.23999,10.20001,12.95001,10.64996h.04999c.53003,0,.96997-.40997,1-.94995.03003-.55005-.40002-1.02002-.95001-1.05005-7.53998-.38995-11.04999-3.13995-11.04999-8.64996,0-5.48999,3.29999-12.14001,7.54999-15.31h2.45001c.54999,0,1-.45001,1-1s-.45001-1-1-1h-2.99996c-.53247,0-1.00004-.47138-1.00004-1,0-.54999.45001-1,1-1h11.99991c.53282,0,1.00009.47249,1.00009,1,0,.54999-.45001,1-1,1h-5c-.54999,0-1,.45001-1,1s.45001,1,1,1h4.45001c2.04999,1.52997,3.89996,3.84998,5.28998,6.63l-1.10999.44c-.19.07996-.34998.20996-.46002.38l-.15997.22998c-1.63-3.41998-5.09003-5.67999-9.01001-5.67999-5.51001,0-10,4.48999-10,10s4.48999,10,10,10c4.46002,0,8.29999-2.92004,9.57001-7.10004l.06.03003c.37.14996.78998.06,1.08002-.22003l1.88-1.88995.17999-.09003c.14996.90002.22998,1.76001.22998,2.58002,0,5.51001-3.51001,8.26001-11.04999,8.64996-.54999.03003-.98004.5-.95001,1.05005.03003.53998.46997.94995,1,.94995h.04999c8.71002-.44995,12.95001-3.92999,12.95001-10.64996,0-1.35004-.17999-2.79004-.53998-4.28003ZM28.08002,11.02002h-8.16003c-.17999-1.46002-.71997-2.83002-1.60999-4h11.38c-.89001,1.16998-1.42999,2.53998-1.60999,4ZM24,37.02002c-4.40997,0-8-3.59003-8-8s3.59003-8,8-8c3.56,0,6.65002,2.32996,7.65997,5.70996l-.29999.45001-2.67999.89001c-.39001.13-.66998.5-.67999.91998-.01001.42004.23999.79999.63.96002l3.07001,1.22998c-.95001,3.42999-4.07001,5.84003-7.70001,5.84003Z"/>
</svg>