<?xml version="1.0" encoding="UTF-8"?>
<svg id="Outline" xmlns="http://www.w3.org/2000/svg" version="1.1" viewBox="0 0 48 48">
  <!-- Generator: Adobe Illustrator 29.0.0, SVG Export Plug-In . SVG Version: 2.1.0 Build 186)  -->
  <path d="M40,19h-4v-11c0-1.6543-1.3457-3-3-3h-14c-1.6543,0-3,1.3457-3,3h-1c-1.6543,0-3,1.3457-3,3v8h-4c-1.6543,0-3,1.3457-3,3v18c0,1.6543,1.3457,3,3,3h32c1.6543,0,3-1.3457,3-3v-18c0-1.6543-1.3457-3-3-3ZM40,21c.55176,0,1,.44873,1,1v1h-5v-2h4ZM22,18.23578c.36121-.60315,1.86713-1.32269,4-1.32269s3.63879.71954,4,1.32269v.52844c-.36121.60315-1.86713,1.32269-4,1.32269s-3.63879-.71954-4-1.32269v-.52844ZM30,15.94849c-1.03809-.53888-2.42633-.86157-4-.86157s-2.96191.32269-4,.86157v-2.07495c1.40332-.36279,2.51074-1.46973,2.87305-2.87354h2.25391c.3623,1.40381,1.46973,2.51074,2.87305,2.87354v2.07495ZM22,21.05151c1.03809.53888,2.42633.86157,4,.86157s2.96191-.32269,4-.86157v1.94849h-8v-1.94849ZM25,33h16v2h-16v-2ZM25,31v-2h16v2h-16ZM25,27v-2h16v2h-16ZM19,7h14c.55176,0,1,.44873,1,1v15h-2v-10c0-.55225-.44727-1-1-1-1.10254,0-2-.89697-2-2,0-.55225-.44727-1-1-1h-4c-.55273,0-1,.44775-1,1,0,1.10303-.89746,2-2,2-.55273,0-1,.44775-1,1v10h-2v-15c0-.55127.44824-1,1-1ZM15,10h1v13h-2v-12c0-.55127.44824-1,1-1ZM8,21h4v2h-5v-1c0-.55127.44824-1,1-1ZM8,41c-.55176,0-1-.44873-1-1v-15h16v16h-15ZM40,41h-15v-4h16v3c0,.55127-.44824,1-1,1Z"/>
  <path d="M20,27h-10c-.55273,0-1,.44775-1,1v10c0,.55225.44727,1,1,1h10c.55273,0,1-.44775,1-1v-10c0-.55225-.44727-1-1-1ZM19,37h-8v-8h8v8Z"/>
</svg>