<?xml version="1.0" encoding="UTF-8"?>
<svg id="Outline" xmlns="http://www.w3.org/2000/svg" version="1.1" viewBox="0 0 48 48">
  <!-- Generator: Adobe Illustrator 29.0.0, SVG Export Plug-In . SVG Version: 2.1.0 Build 186)  -->
  <path d="M22.35449,32.20535c.19336.19336.44922.29297.70703.29297.19238,0,.38574-.05469.55469-.16797l3-2c.45996-.30664.58398-.92676.27734-1.38672-.30566-.45996-.92676-.58301-1.38672-.27734l-2.31836,1.54492-.41992-.41992c-.39062-.39062-1.02344-.39062-1.41406,0s-.39062,1.02344,0,1.41406l1,1Z"/>
  <path d="M24.06152,37.49832c3.85938,0,7-3.14062,7-7s-3.14062-7-7-7-7,3.14062-7,7,3.14062,7,7,7ZM24.06152,25.49832c2.75684,0,5,2.24316,5,5s-2.24316,5-5,5-5-2.24316-5-5,2.24316-5,5-5Z"/>
  <path d="M42,22.97c.54999,0,1-.45001,1-1V7.97c0-1.65002-1.34998-3-3-3H8c-1.65002,0-3,1.34998-3,3v22c0,1.64996,1.34998,3,3,3h4.03998c-.17999,1.09998.27002,2.22998,1.20001,2.89996l1.45001,1.05005c.16998.12994.29999.29999.35999.50995l.56,1.70001c.40002,1.23999,1.54999,2.08002,2.85004,2.08002h1.79999c.20996,0,.41998.06.58002.19l1.45996,1.04999c.53003.39001,1.14001.58002,1.76001.58002s1.23999-.19,1.77002-.58002l1.45001-1.04999c.16998-.13.37-.19.58997-.19h1.78998c1.30005,0,2.45001-.84003,2.86005-2.08002l.54999-1.70001c.07001-.20996.19-.38.35999-.50995l1.46002-1.05005c.91998-.66998,1.37-1.79999,1.20001-2.89996h3.90997c1.65002,0,3-1.35004,3-3v-4c0-.54999-.45001-1-1-1s-1,.45001-1,1v4c0,.54999-.45001,1-1,1h-4.52002l-.06-.16003c-.06-.20996-.06-.41998,0-.62l.56-1.70996c.27002-.83002.15002-1.70001-.26001-2.42004.56006-.66998,1.38-1.08997,2.28003-1.08997.54999,0,1-.45001,1-1v-10c0-.54999-.45001-1-1-1-1.65002,0-3-1.35004-3-3,0-.54999-.45001-1-1-1h-14c-.54999,0-1,.45001-1,1s.45001,1,1,1h13.09998c.40002,1.95996,1.94,3.5,3.90002,3.89996v8.20001c-1.07001.22003-2.03003.78003-2.75,1.60004l-.82001-.60004c-.16998-.12-.28998-.29999-.35999-.5l-.54999-1.70996c-.41003-1.24005-1.56-2.07001-2.86005-2.07001h-1.78998c-.21997,0-.41998-.07001-.58997-.19l-1.45001-1.06h-.01001c-1.04999-.76001-2.47003-.76001-3.52002,0l-1.45996,1.06c-.16003.12-.37006.19-.58002.19h-1.79999c-1.30005,0-2.45001.82996-2.85004,2.07001l-.56,1.70996c-.06.20001-.19.38-.35999.5l-.89001.65002c-.71997-.85004-1.70001-1.42999-2.79999-1.65002v-8.20001c1.96002-.39996,3.5-1.94,3.90002-3.89996h1.09998c.54999,0,1-.45001,1-1s-.45001-1-1-1h-2c-.54999,0-1,.45001-1,1,0,1.64996-1.34998,3-3,3-.54999,0-1,.45001-1,1v10c0,.54999.45001,1,1,1,.95001,0,1.81.44,2.35999,1.15997-.38.71002-.46997,1.54999-.20996,2.35004l.54999,1.70996c.07001.20001.07001.41003,0,.62l-.04999.16003h-4.65002c-.54999,0-1-.45001-1-1V7.97c0-.54999.45001-1,1-1h32c.54999,0,1,.45001,1,1v14c0,.54999.45001,1,1,1ZM14.59998,29.56998l-.54999-1.70996c-.14001-.41003.01001-.86005.35999-1.12006l1.46002-1.04999c.51001-.38.89001-.89996,1.09003-1.5l.54999-1.70996c.13-.41003.52002-.69.95001-.69h1.79999c.63,0,1.25-.20001,1.76001-.57001l1.44995-1.06c.36005-.25.83002-.25,1.18005,0l1.44995,1.06c.52002.37,1.13.57001,1.77002.57001h1.78998c.44,0,.82001.27997.95001.69l.56,1.70996c.20001.60999.57001,1.12,1.09003,1.5l1.45001,1.06c.34998.25.5.70001.35999,1.11005l-.54999,1.70996c-.20001.60999-.20001,1.25,0,1.85004l.54999,1.70996c.14001.41998-.01001.87-.35999,1.12l-1.45001,1.06c-.52002.37-.89001.89001-1.09003,1.5l-.56,1.70001c-.13.41998-.51001.70001-.95001.70001h-1.78998c-.64001,0-1.25.19-1.77002.57001l-1.44995,1.04999c-.35004.26001-.82001.26001-1.18005.01001l-1.44995-1.06c-.51001-.37-1.13-.57001-1.76001-.57001h-1.79999c-.42999,0-.82001-.28003-.95001-.70001l-.54999-1.70001c-.20001-.60999-.58002-1.13-1.09003-1.5l-1.46002-1.06c-.34998-.25-.5-.70001-.35999-1.12l.25-.76996v-.01001l.29999-.92999c.20001-.60004.20001-1.24005,0-1.85004Z"/>
</svg>