<?xml version="1.0" encoding="UTF-8"?>
<svg id="Outline" xmlns="http://www.w3.org/2000/svg" version="1.1" viewBox="0 0 48 48">
  <!-- Generator: Adobe Illustrator 29.0.0, SVG Export Plug-In . SVG Version: 2.1.0 Build 186)  -->
  <path d="M39,28c.55273,0,1-.44727,1-1v-15c0-1.6543-1.3457-3-3-3h-1v-1c0-1.6543-1.3457-3-3-3H11c-1.6543,0-3,1.3457-3,3v17c0,.55273.44727,1,1,1s1-.44727,1-1V8c0-.55176.44824-1,1-1h22c.55176,0,1,.44824,1,1v28c0,.55176-.44824,1-1,1H11c-.55176,0-1-.44824-1-1v-7c0-.55273-.44727-1-1-1s-1,.44727-1,1v7c0,1.6543,1.3457,3,3,3h1v1c0,1.6543,1.3457,3,3,3h22c1.6543,0,3-1.3457,3-3v-9c0-.55273-.44727-1-1-1s-1,.44727-1,1v9c0,.55176-.44824,1-1,1H15c-.55176,0-1-.44824-1-1v-1h19c1.6543,0,3-1.3457,3-3V11h1c.55176,0,1,.44824,1,1v15c0,.55273.44727,1,1,1Z"/>
  <path d="M32,16v-6c0-.55273-.44727-1-1-1H13c-.55273,0-1,.44727-1,1v6c0,.55273.44727,1,1,1h18c.55273,0,1-.44727,1-1ZM30,15H14v-4h16v4Z"/>
  <path d="M19.70703,26.29297c-.39062-.39062-1.02344-.39062-1.41406,0s-.39062,1.02344,0,1.41406l2,2c.19531.19531.45117.29297.70703.29297s.51172-.09766.70703-.29297l4-4c.39062-.39062.39062-1.02344,0-1.41406s-1.02344-.39062-1.41406,0l-3.29297,3.29297-1.29297-1.29297Z"/>
  <path d="M14,27c0,4.41113,3.58887,8,8,8s8-3.58887,8-8-3.58887-8-8-8-8,3.58887-8,8ZM28,27c0,3.30859-2.69141,6-6,6s-6-2.69141-6-6,2.69141-6,6-6,6,2.69141,6,6Z"/>
</svg>