<?xml version="1.0" encoding="UTF-8"?>
<svg id="Outline" xmlns="http://www.w3.org/2000/svg" version="1.1" viewBox="0 0 64 64">
  <!-- Generator: Adobe Illustrator 29.0.0, SVG Export Plug-In . SVG Version: 2.1.0 Build 186)  -->
  <path d="M45,41h-.03998c-.35004-7.28003-4.46002-15.63-9.80005-20.23004,1.08002-.45996,1.84003-1.52997,1.84003-2.76996,0-1.45001-1.03998-2.67004-2.40997-2.94l3.29999-6.60999c.15997-.31.14001-.68005-.04004-.98004-.17999-.28998-.5-.46997-.84998-.46997h-6.39001c-2.27997,0-4.39996.98999-5.85999,2.67999l-2.21997-1.33002c-1.47003-.88-3.16003-1.34998-4.88-1.34998h-2.65002c-.34998,0-.66998.17999-.84998.46997-.18005.29999-.20001.67004-.04004.98004l3.29999,6.59998c-1.44.21997-2.53998,1.45001-2.53998,2.95001,0,1.27997.81,2.37,1.94,2.79999-5.57001,4.81-9.81,13.71002-9.81,21.20001,0,9.20001,6.54999,14.65997,17.96997,14.98999h.03003c.53998,0,.97998-.42999,1-.97003.02002-.54999-.41998-1.00995-.96997-1.02997-5.99005-.16998-16.03003-2.09003-16.03003-12.98999,0-7.73999,4.84003-17.08002,10.84003-21h12.31995c5.75,3.76001,10.43005,12.51001,10.80005,20.07001-2.63.16998-5.15002.69-6.99005,1.52997.02002-.20001.03003-.39996.03003-.59998,0-3.85999-3.14001-7-7-7h-6c-.54999,0-1-.45001-1-1s.45001-1,1-1h10c.54999,0,1-.45001,1-1v-4c0-.54999-.45001-1-1-1h-4v-2c0-.54999-.45001-1-1-1h-4c-.54999,0-1,.45001-1,1v2c-3.85999,0-7,3.14001-7,7s3.14001,7,7,7h6c.54999,0,1,.45001,1,1s-.45001,1-1,1h-10c-.54999,0-1,.45001-1,1v4c0,.54999.45001,1,1,1h4v2c0,.54999.45001,1,1,1h4c.54999,0,1-.45001,1-1v-2c1.48999,0,2.85999-.47003,4-1.26001v4.26001c0,.71997.31,1.37.83002,1.94-1.48004.45001-3.13.76996-4.92004.92999-.54999.04999-.95996.53998-.90997,1.08997.04999.52002.48999.91003,1,.91003h.09003c2.51996-.23999,4.77997-.76001,6.75995-1.53003,2.31,1.10004,5.74005,1.66003,9.15002,1.66003,5.96002,0,12-1.72003,12-5v-6c0-3.28003-6.03998-5-12-5ZM16.62,9h1.03003c1.35999,0,2.69.37,3.84998,1.07001l2.98999,1.78998c.45001.27002,1.04999.14001,1.34003-.31,1.07001-1.59003,2.84998-2.54999,4.77997-2.54999h4.77002l-3,6h-12.76001l-3-6ZM34,19h-16.13c-.54999,0-1-.45001-1-1s.45001-1,1-1h16.13c.54999,0,1,.45001,1,1s-.45001,1-1,1ZM29,47h-1c-.54999,0-1,.45001-1,1v2h-2v-2c0-.54999-.45001-1-1-1h-4v-2h9c1.65002,0,3-1.35004,3-3s-1.34998-3-3-3h-6c-2.76001,0-5-2.23999-5-5s2.23999-5,5-5h1c.54999,0,1-.45001,1-1v-2h2v2c0,.54999.45001,1,1,1h4v2h-9c-1.65002,0-3,1.34998-3,3s1.34998,3,3,3h6c2.76001,0,5,2.23999,5,5s-2.23999,5-5,5ZM47,50.92999h.07001c3-.20001,6.02002-.89001,7.92999-2.07001v3.14001c0,1.19-3.98999,3-10,3-3.96997,0-7.04999-.79004-8.69-1.67004-.01001,0-.01001-.00995-.02002-.00995-.82996-.45001-1.28998-.92004-1.28998-1.32001v-3.14001c1.90997,1.17999,4.92999,1.87,7.92999,2.07001.54999.02002,1.03003-.38,1.07001-.92999.03003-.54999-.38-1.03003-.92999-1.07001-5.20001-.34003-8.07001-1.95001-8.07001-2.92999,0-1.19,3.98999-3,10-3s10,1.81,10,3c0,.97998-2.87,2.58997-8.07001,2.92999-.54999.03998-.96002.52002-.92999,1.07001.03998.51996.47998.92999,1,.92999Z"/>
</svg>