<?xml version="1.0" encoding="UTF-8"?>
<svg id="Outline" xmlns="http://www.w3.org/2000/svg" version="1.1" viewBox="0 0 48 48">
  <!-- Generator: Adobe Illustrator 29.0.0, SVG Export Plug-In . SVG Version: 2.1.0 Build 186)  -->
  <path d="M15.76416,34h-2.76416c-.55225,0-1,.44775-1,1s.44775,1,1,1h1v1c0,.55225.44775,1,1,1s1-.44775,1-1v-1.02386c1.12091-.11969,2-1.05981,2-2.21198,0-.85205-.47363-1.61865-1.23584-2.00049l-2.6333-1.31592c-.07959-.04004-.13086-.12305-.13086-.21191,0-.12988.10596-.23584.23584-.23584h2.76416c.55225,0,1-.44775,1-1s-.44775-1-1-1h-1v-1c0-.55225-.44775-1-1-1s-1,.44775-1,1v1.02386c-1.12091.11969-2,1.05981-2,2.21198,0,.85205.47363,1.61865,1.23584,2.00049l2.6333,1.31592c.07959.04004.13086.12305.13086.21191,0,.12988-.10596.23584-.23584.23584Z"/>
  <path d="M37,21v-1.08002c3.39001-.48999,6-3.40002,6-6.91998,0-3.85999-3.14001-7-7-7s-7,3.14001-7,7c0,1.07001.25,2.08997.67999,3h-7.67999c-1.65002,0-3,1.34998-3,3v2c0,.34998.07001.69.17999,1h-.17999c-.5,0-.97998.12-1.40002.34998-.82996-.21997-1.69995-.34998-2.59998-.34998-1.89001,0-3.72998.52997-5.33002,1.54999-.45996.28998-.59998.90997-.29999,1.38.28998.46002.91003.59998,1.38.29999,1.27002-.79999,2.73999-1.22998,4.25-1.22998,4.40997,0,8,3.58997,8,8s-3.59003,8-8,8-8-3.59003-8-8c0-1.51001.42999-2.98004,1.22998-4.25.30005-.47003.16003-1.09003-.29999-1.38-.46997-.29999-1.08997-.16003-1.38.29999-1.01996,1.59998-1.54999,3.44-1.54999,5.33002,0,5.51001,4.48999,10,10,10,.90002,0,1.77002-.13,2.59998-.35004.42004.23004.90002.35004,1.40002.35004h4c.54999,0,1-.45001,1-1s-.45001-1-1-1h-2.03003c1.38-1.03003,2.49005-2.40002,3.19-4h6.84003c.54999,0,1,.45001,1,1v2c0,.54999-.45001,1-1,1h-4c-.54999,0-1,.45001-1,1s.45001,1,1,1h4c1.65002,0,3-1.35004,3-3v-2c0-.35004-.07001-.69-.17999-1h1.17999c1.65002,0,3-1.35004,3-3v-2c0-1.65002-1.34998-3-3-3h-1.17999c.10999-.31.17999-.65002.17999-1v-2c0-.35004-.07001-.69-.17999-1h.17999c1.65002,0,3-1.35004,3-3ZM36,8c2.76001,0,5,2.23999,5,5s-2.23999,5-5,5-5-2.23999-5-5,2.23999-5,5-5ZM20.96997,24h10.03003c.54999,0,1,.45001,1,1v2c0,.54999-.45001,1-1,1h-6.84003c-.69995-1.60004-1.81-2.97003-3.19-4ZM35,30c.54999,0,1,.45001,1,1v2c0,.54999-.45001,1-1,1h-10.20001c.13-.65002.20001-1.32001.20001-2s-.07001-1.35004-.20001-2h10.20001ZM22,22c-.54999,0-1-.45001-1-1v-2c0-.54999.45001-1,1-1h9.10999c1.04004,1.01001,2.39001,1.70001,3.89001,1.91998v1.08002c0,.54999-.45001,1-1,1h-12Z"/>
  <path d="M34.29297,14.70703c.19336.19336.44922.29297.70752.29297.19189,0,.38525-.05518.5542-.16797l3-2c.45947-.30615.5835-.92725.27734-1.38672-.30713-.45947-.92725-.58496-1.38672-.27734l-2.31787,1.54541-.42041-.42041c-.39062-.39062-1.02344-.39062-1.41406,0s-.39062,1.02344,0,1.41406l1,1Z"/>
</svg>