<?xml version="1.0" encoding="UTF-8"?>
<svg id="Outline" xmlns="http://www.w3.org/2000/svg" version="1.1" viewBox="0 0 48 48">
  <!-- Generator: Adobe Illustrator 29.0.0, SVG Export Plug-In . SVG Version: 2.1.0 Build 186)  -->
  <path d="M19.23584,27h2.76416c.55225,0,1-.44727,1-1s-.44775-1-1-1h-1v-1c0-.55273-.44775-1-1-1s-1,.44727-1,1v1.02386c-1.12091.11975-2,1.05988-2,2.21246,0,.85156.47314,1.61719,1.23584,2l2.63281,1.31543c.08105.04102.13135.12207.13135.21191,0,.12988-.10596.23633-.23584.23633h-2.76416c-.55225,0-1,.44727-1,1s.44775,1,1,1h1v1c0,.55273.44775,1,1,1s1-.44727,1-1v-1.02386c1.12091-.11975,2-1.05988,2-2.21246,0-.85156-.47314-1.61719-1.23584-2l-2.63281-1.31543c-.08105-.04102-.13135-.12207-.13135-.21191,0-.12988.10596-.23633.23584-.23633Z"/>
  <path d="M36.29297,31.29297l-3.29297,3.29297-1.29297-1.29297c-.39062-.39062-1.02344-.39062-1.41406,0s-.39062,1.02344,0,1.41406l2,2c.19531.19531.45117.29297.70703.29297s.51172-.09766.70703-.29297l4-4c.39062-.39062.39062-1.02344,0-1.41406s-1.02344-.39062-1.41406,0Z"/>
  <path d="M41.75,29.42999c-.28003-.47003-.89001-.63-1.37-.35004-.47003.28003-.63.89001-.34998,1.37006.62994,1.07996.96997,2.31.96997,3.54999,0,3.85999-3.14001,7-7,7s-7-3.14001-7-7,3.14001-7,7-7c1.23999,0,2.46997.33997,3.54999.96997.48004.28003,1.09003.12,1.37-.34998.28003-.47998.12-1.09003-.34998-1.37-1.39001-.82001-2.97003-1.25-4.57001-1.25-.15997,0-.32001.01996-.47998.01996-1.31-3.44995-3.32001-6.48999-5.71002-8.63995.72003-.55005,1.19-1.41003,1.19-2.38,0-.81-.32001-1.57001-.87-2.10999-.53998-.55005-1.27002-.86005-2.03998-.88.19995-1.29004.79999-2.48004,1.73999-3.42004l.88-.88c.27997-.28998.37-.71997.20996-1.08997-.14996-.38-.51996-.62-.91998-.62H12c-.40002,0-.77002.23999-.91998.62-.16003.37-.07001.79999.20996,1.08997l.88.88c.94.94,1.54004,2.13,1.73999,3.42004-1.60999.03998-2.90997,1.35999-2.90997,2.98999,0,.81.32001,1.57001.87,2.10999.09998.09998.21002.17999.32001.26001-4.19,3.78998-7.19,10.29999-7.19,15.94,0,10.69,11.28998,10.69,15,10.69,3.81,0,6.78998-.48004,9.10999-1.46002,1.41003.91998,3.09003,1.46002,4.89001,1.46002,4.96002,0,9-4.04004,9-9,0-1.60004-.42999-3.17999-1.25-4.57001ZM25,34c0,.39001.03003.77997.08002,1.15997-1.42004,1.19-3.21002,1.84003-5.08002,1.84003-4.40997,0-8-3.59003-8-8s3.59003-8,8-8c3.83002,0,7.10999,2.73999,7.84003,6.45996-1.74005,1.64001-2.84003,3.96002-2.84003,6.54004ZM25.69,7c-.89001,1.16998-1.42999,2.53998-1.60999,4h-8.16003c-.17999-1.46002-.71997-2.83002-1.60999-4h11.38ZM20,41c-8.98999,0-13-2.67999-13-8.69,0-5.5,3.31-12.15002,7.57001-15.31h5.42999c.54999,0,1-.45001,1-1s-.45001-1-1.00003-1h-2.86673c-.68789,0-1.37578,0-2.06383,0-.77515.00004-2.06942.15203-2.06942-1,0-.54999.45001-1,1-1h11.99971c.53505,0,1.00028.46896,1.00029,1,0,.54999-.45001,1-1,1h-2c-.54999,0-1,.45001-1,1s.45001,1,1,1h1.42999c2.47998,1.83997,4.69,4.89001,6.07001,8.35999-.66998.20001-1.32001.46997-1.91998.81-1.23999-4.17999-5.11005-7.16998-9.58002-7.16998-5.51001,0-10,4.48999-10,10s4.48999,10,10,10c2.03003,0,3.96997-.62,5.62-1.73999.41003,1.03998,1,1.98999,1.75,2.79999-1.92999.63-4.34998.94-7.37.94Z"/>
</svg>