<?xml version="1.0" encoding="UTF-8"?>
<svg id="Outline" xmlns="http://www.w3.org/2000/svg" version="1.1" viewBox="0 0 48 48">
  <!-- Generator: Adobe Illustrator 29.0.0, SVG Export Plug-In . SVG Version: 2.1.0 Build 186)  -->
  <path d="M31.57129,39.21631c-2.32471,1.16699-4.94287,1.78369-7.57129,1.78369-3.4502,0-6.76758-1.02832-9.59766-2.97656-.45502-.30981-.87842-.65387-1.29645-1.00244h.28766c.55225,0,1-.44775,1-1s-.44775-1-1-1h-2.82861c-.55225,0-1,.44775-1,1v2.82812c0,.55225.44775,1,1,1s1-.44775,1-1v-.49158c.5415.46808,1.11047.90955,1.70801,1.31628,3.16064,2.17578,6.87012,3.32617,10.72705,3.32617,2.93848,0,5.86719-.69043,8.46875-1.99658.49365-.24756.69287-.84863.44482-1.34229-.24707-.49365-.84863-.69434-1.34229-.44482Z"/>
  <path d="M16.42871,8.78369c2.32471-1.16699,4.94287-1.78369,7.57129-1.78369,3.4502,0,6.76758,1.02832,9.59766,2.97656.45502.30981.87842.65387,1.29645,1.00244h-.28766c-.55225,0-1,.44775-1,1s.44775,1,1,1h2.82861c.55225,0,1-.44775,1-1v-2.82812c0-.55225-.44775-1-1-1s-1,.44775-1,1v.49158c-.5415-.46808-1.11047-.90955-1.70801-1.31628-3.16064-2.17578-6.87012-3.32617-10.72705-3.32617-2.93848,0-5.86719.69043-8.46875,1.99658-.49365.24756-.69287.84863-.44482,1.34229.24658.49316.84668.69238,1.34229.44482Z"/>
  <path d="M38.84912,36.43506h-.49158c.46808-.5415.90955-1.11047,1.31628-1.70801,2.17578-3.16064,3.32617-6.87012,3.32617-10.72705,0-2.93848-.69043-5.86719-1.99658-8.46875-.24756-.49268-.84766-.69482-1.34229-.44482-.49365.24756-.69287.84863-.44482,1.34229,1.16699,2.32471,1.78369,4.94287,1.78369,7.57129,0,3.4502-1.02832,6.76758-2.97656,9.59766-.30981.45502-.65387.87842-1.00244,1.29645v-.28766c0-.55225-.44775-1-1-1s-1,.44775-1,1v2.82861c0,.55225.44775,1,1,1h2.82812c.55225,0,1-.44775,1-1s-.44775-1-1-1Z"/>
  <path d="M24,11c-2.72998,0-5.33789.83203-7.5415,2.40674-.44922.3208-.55322.94531-.23193,1.39502.31982.44824.94482.55225,1.39502.23193,1.591-1.13702,3.43427-1.81146,5.37842-1.98486v.95117c0,.55225.44775,1,1,1s1-.44775,1-1v-.94934c5.26801.4776,9.47174,4.68134,9.94934,9.94934h-.94934c-.55225,0-1,.44775-1,1s.44775,1,1,1h.94934c-.4776,5.26801-4.68134,9.47174-9.94934,9.94934v-.94934c0-.55225-.44775-1-1-1s-1,.44775-1,1v.94934c-5.26801-.4776-9.47174-4.68134-9.94934-9.94934h.94934c.55225,0,1-.44775,1-1s-.44775-1-1-1h-.95117c.1734-1.94415.84784-3.78741,1.98486-5.37842.32129-.44971.21729-1.07422-.23193-1.39502-.45068-.32227-1.0752-.21777-1.39502.23193-1.57471,2.20361-2.40674,4.81152-2.40674,7.5415,0,7.16846,5.83154,13,13,13s13-5.83154,13-13-5.83154-13-13-13Z"/>
  <path d="M30.36377,17.63623c-.39062-.39062-1.02344-.39062-1.41406,0l-3.66437,3.66437c-.39111-.18713-.82361-.3006-1.28534-.3006s-.89423.11346-1.28534.3006l-2.25031-2.25031c-.39062-.39062-1.02344-.39062-1.41406,0s-.39062,1.02344,0,1.41406l2.25031,2.25031c-.18713.39111-.3006.82361-.3006,1.28534,0,1.6543,1.3457,3,3,3s3-1.3457,3-3c0-.46173-.11346-.89423-.3006-1.28534l3.66437-3.66437c.39062-.39062.39062-1.02344,0-1.41406ZM24,25c-.55127,0-1-.44873-1-1s.44873-1,1-1,1,.44873,1,1-.44873,1-1,1Z"/>
  <path d="M7,24c0-3.4502,1.02832-6.76758,2.97656-9.59766.30981-.45502.65387-.87842,1.00244-1.29645v.28766c0,.55225.44775,1,1,1s1-.44775,1-1v-2.82861c0-.55225-.44775-1-1-1h-2.82812c-.55225,0-1,.44775-1,1s.44775,1,1,1h.49158c-.46808.5415-.90955,1.11047-1.31628,1.70801-2.17578,3.16064-3.32617,6.87012-3.32617,10.72705,0,2.93848.69043,5.86719,1.99658,8.46875.17529.34961.52783.55127.89453.55127.15039,0,.30371-.03418.44775-.10645.49365-.24756.69287-.84863.44482-1.34229-1.16699-2.32471-1.78369-4.94287-1.78369-7.57129Z"/>
</svg>