<?xml version="1.0" encoding="UTF-8"?>
<svg id="Outline" xmlns="http://www.w3.org/2000/svg" version="1.1" viewBox="0 0 48 48">
  <!-- Generator: Adobe Illustrator 29.0.0, SVG Export Plug-In . SVG Version: 2.1.0 Build 186)  -->
  <path d="M27,21h-6c-.55127,0-1-.44824-1-1s.44873-1,1-1h4c.55225,0,1-.44727,1-1s-.44775-1-1-1h-4c-1.6543,0-3,1.3457-3,3s1.3457,3,3,3h6c2.75684,0,5,2.24316,5,5s-2.24316,5-5,5h-1c-.55225,0-1,.44727-1,1v3h-2v-3c0-.55273-.44775-1-1-1h-4v-2h9c1.6543,0,3-1.3457,3-3s-1.3457-3-3-3h-6c-2.75684,0-5-2.24316-5-5s2.24316-5,5-5h1c.55225,0,1-.44727,1-1v-3h2v3c0,.55273.44775,1,1,1h4v2h-1c-.55225,0-1,.44727-1,1s.44775,1,1,1h2c.55225,0,1-.44727,1-1v-4c0-.55273-.44775-1-1-1h-4v-3c0-.55273-.44775-1-1-1h-4c-.55225,0-1,.44727-1,1v3c-3.85986,0-7,3.14062-7,7s3.14014,7,7,7h6c.55127,0,1,.44824,1,1s-.44873,1-1,1h-10c-.55225,0-1,.44727-1,1v4c0,.55273.44775,1,1,1h4v3c0,.55273.44775,1,1,1h4c.55225,0,1-.44727,1-1v-3c3.85986,0,7-3.14062,7-7s-3.14014-7-7-7Z"/>
  <path d="M31.57129,39.2168c-2.32373,1.16699-4.94189,1.7832-7.57129,1.7832-9.37402,0-17-7.62598-17-17,0-3.4502,1.02832-6.7666,2.97656-9.59766.31024-.45526.65411-.87836,1.00244-1.29596v.28717c0,.55273.44775,1,1,1s1-.44727,1-1v-2.82812c0-.55273-.44775-1-1-1h-2.82812c-.55225,0-1,.44727-1,1s.44775,1,1,1h.49133c-.46741.54077-.90881,1.10925-1.31604,1.70703-2.17578,3.16113-3.32617,6.87109-3.32617,10.72754,0,10.47656,8.52344,19,19,19,2.93945,0,5.86768-.69043,8.46875-1.99609.49365-.24805.69287-.84863.44482-1.3418-.24756-.49316-.84717-.69434-1.34229-.44531Z"/>
  <path d="M38.84912,36.43457h-.49133c.46741-.54077.90881-1.10925,1.31604-1.70703,2.17578-3.16113,3.32617-6.87109,3.32617-10.72754,0-10.47656-8.52344-19-19-19-2.93945,0-5.86768.69043-8.46875,1.99609-.49365.24805-.69287.84863-.44482,1.3418.24707.49219.8457.69238,1.34229.44531,2.32373-1.16699,4.94189-1.7832,7.57129-1.7832,9.37402,0,17,7.62598,17,17,0,3.4502-1.02832,6.7666-2.97656,9.59766-.31024.45526-.65411.87836-1.00244,1.29596v-.28717c0-.55273-.44775-1-1-1s-1,.44727-1,1v2.82812c0,.55273.44775,1,1,1h2.82812c.55225,0,1-.44727,1-1s-.44775-1-1-1Z"/>
</svg>