<?xml version="1.0" encoding="UTF-8"?>
<svg id="Outline" xmlns="http://www.w3.org/2000/svg" version="1.1" viewBox="0 0 48 48">
  <!-- Generator: Adobe Illustrator 29.0.0, SVG Export Plug-In . SVG Version: 2.1.0 Build 186)  -->
  <path d="M27.68376,18.94977h-2.76367c-.55273,0-1,.44775-1,1s.44727,1,1,1h1v1c0,.55225.44727,1,1,1s1-.44775,1-1v-1.02393c1.12109-.11981,2-1.05988,2-2.21191,0-.85254-.47363-1.61914-1.23633-2.00049l-2.63281-1.31641c-.08105-.04004-.13086-.12109-.13086-.21143,0-.12988.10645-.23584.23633-.23584h2.76367c.55273,0,1-.44775,1-1s-.44727-1-1-1h-1v-1c0-.55225-.44727-1-1-1s-1,.44775-1,1v1.02393c-1.12109.11981-2,1.05988-2,2.21191,0,.85254.47363,1.61914,1.23633,2.00049l2.63281,1.31641c.08105.04004.13086.12109.13086.21143,0,.12988-.10645.23584-.23633.23584Z"/>
  <path d="M18.46501,22.27448c.29688.4668.91406.60645,1.37988.31055.4668-.29541.60547-.91357.30957-1.37988-.80762-1.27637-1.23438-2.74756-1.23438-4.25537,0-4.41113,3.58887-8,8-8s8,3.58887,8,8-3.58887,8-8,8c-1.50879,0-2.97949-.42725-4.25488-1.23486-.46777-.29541-1.08496-.15625-1.37988.30957-.2959.46631-.15723,1.08447.30957,1.37988,1.5957,1.01123,3.4375,1.54541,5.3252,1.54541,5.51367,0,10-4.48584,10-10s-4.48633-10-10-10-10,4.48584-10,10c0,1.88721.53418,3.72852,1.54492,5.32471Z"/>
  <path d="M42.74009,30.35974c-.71002-1.45996-2.48999-2.21997-4.10999-1.62l-9.72003,3.65002c-.02997-1.90002-1.58002-3.44-3.48999-3.44h-5.38l-3.88-.97003c-.08002-.01996-.15997-.02997-.23999-.02997h-3c0-.54999-.45001-1-1-1h-6c-.54999,0-1,.45001-1,1v4c0,.54999.45001,1,1,1s1-.45001,1-1v-3h4v10h-4v-3c0-.54999-.45001-1-1-1s-1,.45001-1,1v4c0,.54999.45001,1,1,1h6c.54999,0,1-.45001,1-1h.88l6.81,1.70001c.78998.19995,1.59998.29999,2.40997.29999,1.40002,0,2.76001-.29004,4.04004-.85999l14.07-6.25c1.69281-.75196,2.43932-2.82127,1.61-4.48005ZM40.99541,32.2545c-.11632.32778-.35474.61498-.68531.76528l-14.06,6.23999c-1.62.71997-3.44.88-5.16003.45001l-6.92999-1.73004c-.08002-.01996-.15997-.02997-.23999-.02997h-1v-8h2.88l3.88.96997c.08002.02002.15997.03003.23999.03003h5.5c.83002,0,1.5.66998,1.5,1.5,0,.82996-.66998,1.5-1.5,1.5h-5.5c-.54999,0-1,.45001-1,1s.45001,1,1,1h5.5c.98999,0,1.88-.42004,2.52002-1.08002.02997-.01001.04999,0,.07996-.01001l11.30996-4.23998c1.01895-.38199,2.02909.60986,1.66539,1.63473Z"/>
  <path d="M37.55397,12.78183c.52785.14229,1.08371-.17903,1.22451-.70706l.07166-.26782c.22272.51703.42096,1.04639.57678,1.59351.32715,1.16455.49316,2.35889.49316,3.54932,0,3.46289-1.35254,6.72803-3.80859,9.19434-.3896.39106-.3877,1.02424.00277,1.4139.36246.36172,1.0342.38014,1.4152-.00277,2.83105-2.84375,4.39062-6.60986,4.39062-10.60547,0-1.37354-.19141-2.74951-.56836-4.09375-.21655-.75995-.49078-1.49591-.81842-2.20398l.48444.12976c.53516.14551,1.08105-.17285,1.22461-.70703.14355-.5332-.17383-1.08154-.70703-1.22461l-2.73242-.73242c-.25586-.06934-.5293-.03271-.75879.09961-.22949.13281-.39746.35156-.46582.60742l-.73145,2.73242c-.14258.53369.17383,1.08203.70713,1.22464Z"/>
  <path d="M12.30485,25.04938l2.73242.73242c.08496.02295.17188.03418.25881.03418.4475-.00001.84968-.30765.9658-.74121l.73145-2.73242c.14258-.53369-.17383-1.08203-.70703-1.22461-.53125-.14062-1.08203.17334-1.22461.70703l-.07166.26782c-.22272-.51703-.42096-1.04639-.57678-1.59351-.32715-1.16455-.49316-2.35889-.49316-3.54932,0-3.46289,1.35254-6.72803,3.80859-9.19434.38965-.39111.3877-1.02441-.00293-1.41406-.3916-.38965-1.02637-.3877-1.41504.00293-2.83105,2.84375-4.39062,6.60986-4.39062,10.60547,0,1.37354.19141,2.74951.56836,4.09375.21655.75995.49078,1.49591.81842,2.20398l-.48444-.12976c-.53125-.14258-1.08105.17334-1.22461.70703-.14355.5332.17383,1.08154.70703,1.22461Z"/>
</svg>