<?xml version="1.0" encoding="UTF-8"?>
<svg id="Outline" xmlns="http://www.w3.org/2000/svg" version="1.1" viewBox="0 0 64 64">
  <!-- Generator: Adobe Illustrator 29.5.1, SVG Export Plug-In . SVG Version: 2.1.0 Build 141)  -->
  <path d="M56.6,31.188l-2.91-2.19c-.51-.37-.85-.92-.97-1.54-.18-.88-.61-1.69-1.25-2.34-.31-.31-.67-.56-1.05-.77.37-1.27.18-2.67-.57-3.81-.28-.41-.43-.91-.43-1.4,0-.11,0-.23.03-.38l.51-3.6c.04-.31-.06-.63-.28-.85-.22-.22-.54-.32-.85-.28l-3.61.51c-.62.09-1.25-.05-1.77-.4-.75-.5-1.63-.77-2.54-.77-.44,0-.87.07-1.28.19-.63-1.17-1.75-2.01-3.1-2.28-.61-.12-1.17-.47-1.55-.98l-2.18-2.91c-.38-.5-1.22-.5-1.6,0l-2.18,2.91c-.38.51-.94.86-1.56.98-1.35.27-2.46,1.14-3.1,2.29-1.27-.37-2.67-.18-3.81.57-.41.28-.91.43-1.4.43-.11,0-.23,0-.38-.03l-3.6-.51c-.31-.04-.63.06-.85.28-.22.22-.32.54-.28.85l.51,3.61c.09.62-.05,1.25-.4,1.77-.5.75-.77,1.63-.77,2.54,0,.44.07.87.19,1.28-1.16.64-2.02,1.77-2.29,3.1-.09.49-.34.95-.68,1.3-.08.08-.17.16-.29.25l-2.91,2.18c-.25.19-.4.49-.4.8s.15.61.4.8l2.91,2.19c.51.37.85.92.97,1.54.18.88.61,1.69,1.25,2.34.31.31.67.55,1.05.75-.37,1.28-.19,2.69.57,3.83.28.41.43.91.43,1.4,0,.11,0,.23-.03.38l-.51,3.6c-.04.31.06.63.28.85s.54.32.85.28l3.61-.51c.62-.09,1.25.05,1.77.4.75.5,1.63.77,2.54.77.44,0,.87-.07,1.28-.19.64,1.16,1.77,2.02,3.1,2.29.49.09.95.34,1.3.68.08.08.16.17.25.29l2.18,2.91c.19.25.49.4.8.4s.61-.15.8-.4l2.19-2.91c.37-.51.92-.85,1.54-.97.88-.18,1.69-.61,2.34-1.25.31-.31.56-.67.76-1.04.42.12.85.18,1.28.18.89,0,1.77-.25,2.54-.76.41-.28.91-.43,1.4-.43.11,0,.23,0,.38.03l3.6.51c.31.04.63-.06.85-.28s.32-.54.28-.85l-.51-3.61c-.09-.62.05-1.25.4-1.77.5-.75.77-1.63.77-2.54,0-.44-.07-.87-.19-1.28,1.16-.64,2.02-1.77,2.29-3.1.09-.49.34-.95.68-1.3.08-.08.17-.16.29-.25l2.91-2.18c.25-.19.4-.49.4-.8s-.15-.61-.4-.8ZM40.91,15.368c.51,0,1,.15,1.42.43.94.63,2.07.89,3.18.72l2.28-.32-.31,2.24c-.05.23-.06.47-.06.7,0,.88.27,1.78.77,2.51.42.65.52,1.44.3,2.16-.45-.03-.9.01-1.35.12l-.16.04c-1.79-3.33-4.66-5.99-8.13-7.53.48-.66,1.24-1.07,2.06-1.07ZM27.85,13.238c1.1-.22,2.08-.83,2.77-1.74l1.38-1.84,1.38,1.84c.69.91,1.67,1.52,2.76,1.74.76.15,1.38.64,1.74,1.3-.34.3-.64.65-.88,1.04l-.08.14c-1.56-.47-3.21-.73-4.92-.73-2.12,0-4.2.4-6.15,1.15-.02-.13-.05-.27-.05-.4,0-1.21.87-2.26,2.05-2.5ZM13.95,37.438c-.36-.36-.61-.81-.7-1.31-.22-1.11-.84-2.09-1.74-2.75l-1.84-1.39,1.81-1.37c.19-.13.37-.29.53-.45.62-.62,1.06-1.45,1.24-2.32.15-.75.64-1.38,1.3-1.74.3.34.65.64,1.04.88l.14.08c-.48,1.59-.73,3.24-.73,4.92,0,2.17.42,4.24,1.17,6.15-.81.13-1.64-.12-2.22-.7ZM23.09,48.608c-.51,0-1-.15-1.42-.43-.94-.63-2.07-.89-3.18-.72l-2.28.32.31-2.24c.05-.23.06-.47.06-.7,0-.88-.27-1.78-.77-2.51-.43-.65-.52-1.45-.3-2.17.09.01.17.03.26.03.36,0,.73-.05,1.09-.14l.16-.04c1.79,3.33,4.66,5.99,8.13,7.53-.48.66-1.24,1.07-2.06,1.07ZM37.45,50.038c-.36.36-.81.61-1.31.7-1.11.22-2.09.84-2.76,1.74l-1.38,1.84-1.37-1.81c-.13-.19-.29-.37-.45-.53-.62-.63-1.45-1.07-2.32-1.23-.75-.16-1.38-.65-1.74-1.31.34-.3.64-.65.88-1.04l.08-.14c1.56.47,3.21.73,4.92.73,2.17,0,4.24-.42,6.15-1.17.12.81-.12,1.64-.7,2.22ZM32,46.988c-8.27,0-15-6.73-15-15,0-2.7.72-5.35,2.09-7.65.28-.47.13-1.09-.35-1.37-.47-.28-1.09-.13-1.37.35-.35.58-.65,1.19-.92,1.81-.66-.48-1.07-1.24-1.07-2.05,0-.51.15-1,.43-1.42.63-.94.89-2.07.72-3.18l-.32-2.28,2.25.31c1.11.2,2.28-.09,3.2-.71.65-.43,1.44-.52,2.16-.3,0,.08-.02.16-.02.24,0,.36.05.74.14,1.12l.03.15c-.21.11-.43.22-.64.35-.48.28-.63.9-.35,1.37.28.47.9.63,1.37.35,2.3-1.37,4.95-2.09,7.65-2.09,8.27,0,15,6.73,15,15s-6.73,15-15,15ZM48.19,42.317c-.63.94-.89,2.07-.72,3.18l.32,2.28-2.25-.31c-1.11-.2-2.28.09-3.2.71-.65.42-1.44.52-2.16.3.03-.45-.01-.9-.12-1.35l-.04-.16c3.33-1.79,5.99-4.66,7.53-8.13.66.48,1.07,1.24,1.07,2.06,0,.51-.15,1-.43,1.42ZM52.52,33.358c-.19.13-.37.29-.53.45-.62.62-1.06,1.45-1.24,2.32-.15.75-.64,1.38-1.3,1.74-.3-.34-.65-.64-1.04-.88l-.14-.08c.47-1.56.73-3.21.73-4.92,0-2.17-.42-4.24-1.17-6.15.81-.12,1.64.12,2.22.7.36.36.61.81.7,1.31.22,1.11.84,2.09,1.74,2.75l1.84,1.39-1.81,1.37Z"/>
  <path d="M21.606,38.384c.573.317.973.869,1.099,1.511.421,2.16,2.472,3.649,4.646,3.376.653-.079,1.299.131,1.777.578.806.75,1.838,1.125,2.872,1.125s2.067-.375,2.873-1.125c.478-.445,1.125-.655,1.776-.577,2.193.274,4.226-1.216,4.646-3.376.126-.643.525-1.194,1.099-1.512,1.925-1.069,2.705-3.468,1.774-5.463-.276-.594-.276-1.274,0-1.868.931-1.995.15-4.395-1.774-5.463-.573-.317-.973-.869-1.099-1.511-.42-2.16-2.466-3.641-4.646-3.376-.652.081-1.299-.131-1.776-.577t0,0c-1.609-1.498-4.132-1.5-5.745,0-.478.446-1.122.659-1.776.577-2.186-.263-4.225,1.216-4.646,3.376-.126.643-.525,1.194-1.099,1.512-1.925,1.069-2.705,3.468-1.774,5.463.276.594.276,1.274,0,1.868-.931,1.995-.15,4.395,1.774,5.463ZM21.645,30.208c-.488-1.047-.079-2.308.933-2.869,1.09-.605,1.853-1.654,2.091-2.878.222-1.134,1.284-1.918,2.44-1.773,1.23.151,2.472-.249,3.383-1.099.846-.788,2.171-.787,3.017,0,.913.852,2.154,1.252,3.384,1.1,1.147-.14,2.219.639,2.44,1.773.238,1.224,1.001,2.273,2.091,2.878,1.012.561,1.421,1.821.933,2.869-.526,1.13-.526,2.427,0,3.558.488,1.047.079,2.308-.933,2.869-1.09.605-1.853,1.654-2.091,2.878-.222,1.134-1.283,1.917-2.44,1.773-1.23-.151-2.472.249-3.383,1.099-.846.788-2.173.788-3.017,0-.785-.732-1.809-1.131-2.868-1.131-.172,0-.344.01-.516.031-1.142.144-2.219-.638-2.44-1.773-.238-1.224-1.001-2.273-2.091-2.878-1.012-.561-1.421-1.821-.933-2.869.526-1.13.526-2.427,0-3.558Z"/>
  <path d="M32,39.988c2.757,0,5.285-1.397,6.764-3.738.221-.351.203-.801-.045-1.133-.247-.332-.672-.477-1.074-.363-.548.155-1.101.234-1.645.234-3.309,0-6-2.691-6-6,0-1.128.32-2.232.928-3.194.221-.351.203-.801-.045-1.133-.249-.331-.678-.475-1.074-.363-3.42.974-5.809,4.136-5.809,7.689,0,4.411,3.589,8,8,8ZM28.163,27.384c-.107.525-.163,1.063-.163,1.604,0,4.194,3.243,7.644,7.354,7.974-.974.661-2.134,1.026-3.354,1.026-3.309,0-6-2.691-6-6,0-1.812.828-3.487,2.163-4.604Z"/>
  <path d="M21.393,21.381c.391-.391.391-1.024,0-1.414-.391-.391-1.024-.391-1.414,0-.391.391-.391,1.024,0,1.414.391.391,1.024.391,1.414,0Z"/>
</svg>