<?xml version="1.0" encoding="UTF-8"?>
<svg id="Outline" xmlns="http://www.w3.org/2000/svg" version="1.1" viewBox="0 0 64 64">
  <!-- Generator: Adobe Illustrator 29.3.1, SVG Export Plug-In . SVG Version: 2.1.0 Build 151)  -->
  <path d="M52.84961,50.1475c.1001-.43555.15039-.875.15039-1.31738,0-3.24219-2.58398-5.8916-5.80078-5.99707-1.05957-1.84473-3.03027-3.00293-5.19922-3.00293-1.27295,0-2.4873.39648-3.5,1.13184-1.0127-.73535-2.22705-1.13184-3.5-1.13184-1.1839,0-2.28564.34918-3.21643.94336-7.66284-2.64716-12.78357-9.79071-12.78357-17.94336,0-5.25293,2.22705-10.3291,6.10986-13.92676.32568-.30176.41357-.78223.21533-1.17969s-.63379-.61621-1.07178-.53809c-9.99756,1.79785-17.25342,10.48047-17.25342,20.64453,0,10.85785,8.28351,19.81763,18.8877,20.89172-.26105.42609-.47437.88416-.62305,1.37097-2.50635.75488-4.26465,3.07227-4.26465,5.7373,0,.55273.44775,1,1,1h9c.55225,0,1-.44727,1-1s-.44775-1-1-1h-7.87305c.38184-1.47363,1.58789-2.63867,3.14502-2.92676.40674-.0752.7251-.39355.80078-.7998.30322-1.62695,1.60156-2.91211,3.23047-3.19824.26953-.04785.5083-.2041.66016-.43262.15137-.22852.20264-.50879.14111-.77637-.06934-.30273-.10449-.59473-.10449-.86621,0-2.20605,1.79443-4,4-4,1.05322,0,2.04639.40918,2.79639,1.15137.38965.38477,1.01758.38477,1.40723,0,.75-.74219,1.74316-1.15137,2.79639-1.15137,1.60791,0,3.05225.9541,3.67969,2.43066.16748.39453.56201.63965.99561.60645.0708-.00488.14258-.01465.21436-.02441.03613-.00488.07227-.0127.11035-.0127,2.20557,0,4,1.79395,4,4,0,.55469-.12256,1.11035-.36377,1.65332-.12988.29199-.1123.62793.04688.90527.15918.27637.44141.46094.75928.49512,1.68359.18262,3.02344,1.38281,3.43018,2.94629h-15.87256c-.55225,0-1,.44727-1,1s.44775,1,1,1h17c.55225,0,1-.44727,1-1,0-2.64062-1.7168-4.90527-4.15039-5.68262ZM9,27.83012c0-8.06055,5.04492-15.0918,12.38184-17.79883-2.81445,3.65234-4.38184,8.16309-4.38184,12.79883,0,8.66132,5.22589,16.2995,13.15277,19.47821-.72162.99042-1.15277,2.20526-1.15277,3.52179,0,.11621.00391.23438.01172.35254-.45343.16022-.88153.37469-1.27826.63397-10.35284-.14465-18.73346-8.59991-18.73346-18.98651Z"/>
  <path d="M46,36.33012c0,.47461.3335.88379.79834.97949,1.87549.38574,3.33643,1.84668,3.72217,3.72168.0957.46484.50488.79883.97949.79883s.88379-.33398.97949-.79883c.38574-1.875,1.84668-3.33594,3.72217-3.72168.46484-.0957.79834-.50488.79834-.97949s-.3335-.88379-.79834-.97949c-1.87549-.38574-3.33643-1.84668-3.72217-3.72168-.0957-.46484-.50488-.79883-.97949-.79883s-.88379.33398-.97949.79883c-.38574,1.875-1.84668,3.33594-3.72217,3.72168-.46484.0957-.79834.50488-.79834.97949ZM51.5,34.39847c.50586.76855,1.16357,1.42578,1.93115,1.93164-.76758.50586-1.42529,1.16309-1.93115,1.93164-.50586-.76855-1.16357-1.42578-1.93115-1.93164.76758-.50586,1.42529-1.16309,1.93115-1.93164Z"/>
  <path d="M36.79834,32.30961c1.87549.38574,3.33643,1.84668,3.72217,3.72168.0957.46484.50488.79883.97949.79883s.88379-.33398.97949-.79883c.38574-1.875,1.84668-3.33594,3.72217-3.72168.46484-.0957.79834-.50488.79834-.97949s-.3335-.88379-.79834-.97949c-1.87549-.38574-3.33643-1.84668-3.72217-3.72168-.0957-.46484-.50488-.79883-.97949-.79883s-.88379.33398-.97949.79883c-.38574,1.875-1.84668,3.33594-3.72217,3.72168-.46484.0957-.79834.50488-.79834.97949s.3335.88379.79834.97949ZM41.5,29.39847c.50586.76855,1.16357,1.42578,1.93115,1.93164-.76758.50586-1.42529,1.16309-1.93115,1.93164-.50586-.76855-1.16357-1.42578-1.93115-1.93164.76758-.50586,1.42529-1.16309,1.93115-1.93164Z"/>
  <circle cx="35" cy="55.83012" r="1"/>
</svg>