<?xml version="1.0" encoding="UTF-8"?>
<svg id="Outline" xmlns="http://www.w3.org/2000/svg" version="1.1" viewBox="0 0 64 64">
  <!-- Generator: Adobe Illustrator 29.3.1, SVG Export Plug-In . SVG Version: 2.1.0 Build 151)  -->
  <path d="M52.85032,45.32035c.10004-.44.15002-.88.15002-1.32001,0-3.23999-2.58002-5.89001-5.79999-6-1.06-1.84003-3.03003-3-5.20001-3-.79999,0-1.57001.16998-2.28998.46997,1-2.40997,1.42999-5.01001,1.25-7.64001-.32001-4.52997-2.37-8.66998-5.80005-11.64996-3.41998-2.97998-7.79999-4.45001-12.32996-4.14001-4.53003.32001-8.67004,2.37-11.65002,5.79999-2.97998,3.42004-4.45001,7.80005-4.14001,12.33002.32001,4.53003,2.37,8.66998,5.80005,11.65002,3.06,2.66998,6.88995,4.10999,10.88995,4.16998-1.64996,1.08002-2.72998,2.92999-2.72998,5.01001,0,.54999.45001,1,1,1h9c.54999,0,1-.45001,1-1s-.45001-1-1-1h-7.87c.38-1.47003,1.58002-2.64001,3.14001-2.92999.40997-.07001.72998-.39001.79999-.80005.31-1.62,1.59998-2.90997,3.22998-3.19.27002-.04999.51001-.20996.66003-.43994.14996-.23004.20996-.51001.13995-.77002-.06-.31-.09998-.60004-.09998-.87,0-2.21002,1.78998-4,4-4,1.04999,0,2.04999.40997,2.79999,1.14996.39001.39001,1.01001.39001,1.40002,0,.75-.73999,1.75-1.14996,2.79999-1.14996,1.60999,0,3.04999.95001,3.67999,2.42999.16998.39996.56.64001,1,.60999.07001-.01001.14001-.02002.21002-.02997.03998,0,.07001-.01001.10999-.01001,2.21002,0,4,1.78998,4,4,0,.54999-.12,1.10999-.35999,1.64996-.13.30005-.12.63.03998.91003.16003.26996.44.45996.76001.48999,1.69.19,3.02997,1.39001,3.42999,2.95001h-15.87c-.54999,0-1,.45001-1,1s.45001,1,1,1h17c.54999,0,1-.45001,1-1,0-2.64001-1.71997-4.91003-4.15002-5.67999ZM12.69035,19.15031c2.63-3.01996,6.27997-4.83997,10.27997-5.10999.26001-.02002.52002-.01001.78003-.02002.15002.65002.25,1.30005.25,1.98004,0,4.95996-4.03998,9-9,9-1.78998,0-3.47998-.51001-4.95001-1.48004.62-1.57996,1.48999-3.04999,2.64001-4.37ZM17.66032,42.59031c-1.25-.57996-2.42999-1.33997-3.50995-2.27997-.91003-.79004-1.69-1.67999-2.37-2.64001.64996-.42999,1.41998-.66998,2.21997-.66998,2.21002,0,4,1.78998,4,4,0,.56-.12,1.09998-.34003,1.58997ZM37.49034,35.56034c-.77002-.35999-1.62-.56-2.48999-.56-3.31,0-6,2.69-6,6,0,.12,0,.22998.01001.34998-1.29999.46002-2.39001,1.35999-3.10004,2.51001-.28998.03998-.57996.08002-.87994.09998-1.89001.14001-3.75-.08997-5.51001-.64996.31-.72003.47998-1.5.47998-2.31,0-3.31-2.69-6-6-6-1.17999,0-2.31.33997-3.27002.96997-.95996-1.82001-1.54999-3.82996-1.69-5.94-.10999-1.54999.03003-3.07996.38-4.56,1.67999,1,3.59003,1.53003,5.58002,1.53003,6.07001,0,11-4.92999,11-11,0-.64001-.06-1.27002-.16998-1.89001,2.95001.35999,5.72998,1.58002,8.01996,3.58002,3.02002,2.63,4.84003,6.27997,5.11005,10.27997.19,2.63-.32001,5.23004-1.47003,7.59003Z"/>
  <path d="M51.50035,26.00035c-.47461,0-.88379.33398-.97949.79883-.38574,1.875-1.84668,3.33594-3.72217,3.72168-.46484.0957-.79834.50488-.79834.97949s.3335.88379.79834.97949c1.87549.38574,3.33643,1.84668,3.72217,3.72168.0957.46484.50488.79883.97949.79883s.88379-.33398.97949-.79883c.38574-1.875,1.84668-3.33594,3.72217-3.72168.46484-.0957.79834-.50488.79834-.97949s-.3335-.88379-.79834-.97949c-1.87549-.38574-3.33643-1.84668-3.72217-3.72168-.0957-.46484-.50488-.79883-.97949-.79883ZM51.50035,33.43199c-.50586-.76855-1.16357-1.42578-1.93115-1.93164.76758-.50586,1.42529-1.16309,1.93115-1.93164.50586.76855,1.16357,1.42578,1.93115,1.93164-.76758.50586-1.42529,1.16309-1.93115,1.93164Z"/>
  <path d="M42.79869,23.47984c1.87549.38574,3.33643,1.84668,3.72217,3.72168.0957.46484.50488.79883.97949.79883s.88379-.33398.97949-.79883c.38574-1.875,1.84668-3.33594,3.72217-3.72168.46484-.0957.79834-.50488.79834-.97949s-.3335-.88379-.79834-.97949c-1.87549-.38574-3.33643-1.84668-3.72217-3.72168-.0957-.46484-.50488-.79883-.97949-.79883s-.88379.33398-.97949.79883c-.38574,1.875-1.84668,3.33594-3.72217,3.72168-.46484.0957-.79834.50488-.79834.97949s.3335.88379.79834.97949ZM47.50035,20.56871c.50586.76855,1.16357,1.42578,1.93115,1.93164-.76758.50586-1.42529,1.16309-1.93115,1.93164-.50586-.76855-1.16357-1.42578-1.93115-1.93164.76758-.50586,1.42529-1.16309,1.93115-1.93164Z"/>
  <path d="M24.00035,31.00035c-2.20557,0-4,1.79395-4,4s1.79443,4,4,4,4-1.79395,4-4-1.79443-4-4-4ZM24.00035,37.00035c-1.10303,0-2-.89746-2-2s.89697-2,2-2,2,.89746,2,2-.89697,2-2,2Z"/>
  <path d="M26.00035,24.00035c-1.6543,0-3,1.3457-3,3s1.3457,3,3,3,3-1.3457,3-3-1.3457-3-3-3ZM26.00035,28.00035c-.55127,0-1-.44824-1-1s.44873-1,1-1,1,.44824,1,1-.44873,1-1,1Z"/>
  <circle cx="35.00035" cy="51.00035" r="1"/>
</svg>