<?xml version="1.0" encoding="UTF-8"?>
<svg id="Outline" xmlns="http://www.w3.org/2000/svg" version="1.1" viewBox="0 0 64 64">
  <!-- Generator: Adobe Illustrator 29.5.1, SVG Export Plug-In . SVG Version: 2.1.0 Build 141)  -->
  <path d="M56,25h-.10999c.06-.33002.10999-.66003.10999-1,0-2.51001-3.59003-6.04004-4.31-6.73004-.39001-.35999-.98999-.35999-1.38,0-.71997.69-4.31,4.22003-4.31,6.73004,0,.33997.04999.66998.10999,1h-.10999c-.54999,0-1,.45001-1,1v4c0,.54999.45001,1,1,1h1v2h-3v-3c0-.54999-.45001-1-1-1h-.19c.12-.66003.19-1.33002.19-2,0-4.79999-6.29999-8.69-9.19-10.22003,1.02002-.29999,1.94-.90997,2.59003-1.77997.22998-.29999.25995-.71002.08997-1.04999-.15997-.34003-.51001-.55005-.89001-.55005-1.64996,0-3-1.34998-3-3,0-.65997.21002-1.27997.60004-1.79999.22998-.29999.26001-.70001.09998-1.03998-.16998-.34003-.51996-.56-.89996-.56-2.76001,0-5,2.23999-5,5,0,2.07996,1.27997,3.87,3.09998,4.62-2.71002,1.39996-9.5,5.39996-9.5,10.38,0,.66998.07001,1.33997.19,2h-.19c-.54999,0-1,.45001-1,1v3h-3v-2h1c.54999,0,1-.45001,1-1v-4c0-.54999-.45001-1-1-1h-.10999c.06-.33002.10999-.66003.10999-1,0-2.51001-3.59003-6.04004-4.31-6.73004-.39001-.35999-.98999-.35999-1.38,0-.71997.69-4.31,4.22003-4.31,6.73004,0,.33997.04999.66998.10999,1h-.10999c-.54999,0-1,.45001-1,1v4c0,.54999.45001,1,1,1h1v25c0,.54999.45001,1,1,1h44c.54999,0,1-.45001,1-1v-25h1c.54999,0,1-.45001,1-1v-4c0-.54999-.45001-1-1-1ZM29.40002,12c0-1.01001.5-1.91003,1.26996-2.45001-.04999.27997-.07001.56-.07001.84998,0,1.94,1.11005,3.62,2.73004,4.45001-.29999.10004-.61005.15002-.92999.15002-1.65002,0-3-1.35004-3-3ZM32,18.09998c2.84998,1.37,9,5.10004,9,8.90002,0,.67999-.09998,1.34998-.25,2h-17.5c-.15002-.65002-.25-1.32001-.25-2,0-3.79999,6.15002-7.53003,9-8.90002ZM22,31h20v2h-20v-2ZM13,19.40997c1.41998,1.48004,3,3.54004,3,4.59003,0,.34998-.08002.67999-.20001,1h-5.59998c-.12-.32001-.20001-.65002-.20001-1,0-1.04999,1.58002-3.10999,3-4.59003ZM9,29v-2h8v2h-8ZM15,55h-4v-24h4v24ZM35,55h-6v-7c0-2.56,1.10999-5.01001,3-6.71002,1.89001,1.70001,3,4.15002,3,6.71002v7ZM47,55h-10v-7c0-3.44-1.64001-6.73004-4.40002-8.79999-.35999-.27002-.83997-.27002-1.19995,0-2.76001,2.06995-4.40002,5.35999-4.40002,8.79999v7h-10v-20h30v20ZM51,19.40997c1.41998,1.48004,3,3.54004,3,4.59003,0,.34998-.08002.67999-.20001,1h-5.59998c-.12-.32001-.20001-.65002-.20001-1,0-1.04999,1.58002-3.10999,3-4.59003ZM53,55h-4v-24h4v24ZM55,29h-8v-2h8v2Z"/>
  <path d="M23.2041,40.00342l-.37207-.55811c-.37109-.55664-1.29297-.55664-1.66406,0l-.37207.55811c-1.1748,1.76221-1.7959,3.81348-1.7959,5.93115v6.06543c0,.55225.44727,1,1,1h4c.55273,0,1-.44775,1-1v-6.06543c0-2.11768-.62109-4.16895-1.7959-5.93115ZM23,51h-2v-5.06543c0-1.42041.34375-2.80371,1-4.04883.65625,1.24512,1,2.62842,1,4.04883v5.06543Z"/>
  <path d="M40,53h4c.55273,0,1-.44775,1-1v-6.06543c0-2.11768-.62109-4.16895-1.7959-5.93115l-.37207-.55811c-.37109-.55664-1.29297-.55664-1.66406,0l-.37207.55811c-1.1748,1.76221-1.7959,3.81348-1.7959,5.93115v6.06543c0,.55225.44727,1,1,1ZM41,45.93457c0-1.42041.34375-2.80371,1-4.04883.65625,1.24512,1,2.62842,1,4.04883v5.06543h-2v-5.06543Z"/>
</svg>