<?xml version="1.0" encoding="UTF-8"?>
<svg id="Outline" xmlns="http://www.w3.org/2000/svg" version="1.1" viewBox="0 0 64 64">
  <!-- Generator: Adobe Illustrator 29.5.1, SVG Export Plug-In . SVG Version: 2.1.0 Build 141)  -->
  <path d="M20,24c.553,0,1-.447,1-1v-3.764l.105.211c.34.678,1.449.678,1.789,0l.105-.211v3.764c0,.553.447,1,1,1s1-.447,1-1v-8c0-.464-.319-.866-.771-.974-.449-.105-.917.11-1.124.526l-1.105,2.211-1.105-2.211c-.207-.416-.676-.631-1.124-.526-.451.107-.771.51-.771.974v8c0,.553.447,1,1,1Z"/>
  <path d="M40,24c.553,0,1-.447,1-1v-3.764l.105.211c.34.678,1.449.678,1.789,0l.105-.211v3.764c0,.553.447,1,1,1s1-.447,1-1v-8c0-.464-.319-.866-.771-.974-.45-.105-.917.11-1.124.526l-1.105,2.211-1.105-2.211c-.207-.416-.678-.631-1.124-.526-.451.107-.771.51-.771.974v8c0,.553.447,1,1,1Z"/>
  <path d="M55.03,41l1.94-7.76c.07-.3.01-.61-.18-.86-.19-.24-.48-.38-.79-.38h-7v-3c0-1.65-1.35-3-3-3h-17c-.55,0-1,.45-1,1s.45,1,1,1h17c.55,0,1,.45,1,1v12c0,.55-.45,1-1,1h-28c-.55,0-1-.45-1-1v-12c0-.55.45-1,1-1h7c.55,0,1-.45,1-1s-.45-1-1-1h-7c-1.65,0-3,1.35-3,3v3h-7c-.31,0-.6.14-.79.38-.19.25-.25.56-.18.86l1.94,7.76-1.94,7.76c-.07.3-.01.61.18.86.19.24.48.38.79.38h9c.55,0,1-.45,1-1s-.45-1-1-1h-7.72l1.69-6.76c.04-.16.04-.32,0-.48l-1.69-6.76h5.72v7c0,1.65,1.35,3,3,3h5v4h-2c-.55,0-1,.45-1,1s.45,1,1,1h3c.55,0,1-.45,1-1v-5h14v5c0,.55.45,1,1,1h16c.31,0,.6-.14.79-.38.19-.25.25-.56.18-.86l-1.94-7.76ZM53.03,41.24l1.69,6.76h-13.72v-4h5c1.65,0,3-1.35,3-3v-7h5.72l-1.69,6.76c-.04.16-.04.32,0,.48Z"/>
  <path d="M22,30c-.553,0-1,.447-1,1v8c0,.553.447,1,1,1,2.757,0,5-2.243,5-5s-2.243-5-5-5ZM23,37.829v-5.658c1.164.413,2,1.525,2,2.829s-.836,2.416-2,2.829Z"/>
  <path d="M40,40c.553,0,1-.447,1-1v-3.764l1.895-3.789c.247-.494.047-1.095-.447-1.342-.494-.245-1.094-.047-1.342.447l-1.105,2.211-1.105-2.211c-.248-.494-.847-.692-1.342-.447-.494.247-.694.848-.447,1.342l1.895,3.789v3.764c0,.553.447,1,1,1Z"/>
  <path d="M34,40c.553,0,1-.447,1-1v-6c0-1.654-1.346-3-3-3s-3,1.346-3,3v6c0,.553.447,1,1,1s1-.447,1-1v-2h2v2c0,.553.447,1,1,1ZM31,35v-2c0-.552.448-1,1-1s1,.448,1,1v2h-2Z"/>
  <path d="M31.357,23.707c.195.195.451.293.707.293s.512-.098.707-.293l3.625-3.625c1.389-1.389,1.389-3.649,0-5.038-1.172-1.173-2.967-1.357-4.332-.549-1.365-.809-3.16-.624-4.332.549-1.389,1.389-1.389,3.649,0,5.038l3.625,3.625ZM29.146,16.458c.305-.305.705-.457,1.105-.457s.801.152,1.105.457c.391.391,1.023.391,1.414,0,.609-.609,1.602-.609,2.211,0s.609,1.601,0,2.21l-2.918,2.918-2.918-2.918c-.609-.609-.609-1.601,0-2.21Z"/>
</svg>