<?xml version="1.0" encoding="UTF-8"?>
<svg id="Outline" xmlns="http://www.w3.org/2000/svg" version="1.1" viewBox="0 0 64 64">
  <!-- Generator: Adobe Illustrator 29.5.1, SVG Export Plug-In . SVG Version: 2.1.0 Build 141)  -->
  <path d="M26.29,38.975c-.42-.128-.878.036-1.122.402l-1.168,1.752-1.168-1.752c-.244-.366-.701-.53-1.122-.402-.422.128-.71.517-.71.957v6c0,.553.447,1,1,1s1-.447,1-1v-2.697l.168.252c.371.557,1.293.557,1.664,0l.168-.252v2.697c0,.553.447,1,1,1s1-.447,1-1v-6c0-.44-.288-.829-.71-.957Z"/>
  <path d="M42.29,38.975c-.421-.128-.878.036-1.122.402l-1.168,1.752-1.168-1.752c-.244-.366-.702-.53-1.122-.402-.422.128-.71.517-.71.957v6c0,.553.447,1,1,1s1-.447,1-1v-2.697l.168.252c.371.557,1.293.557,1.664,0l.168-.252v2.697c0,.553.447,1,1,1s1-.447,1-1v-6c0-.44-.288-.829-.71-.957Z"/>
  <path d="M32,38.933c-1.654,0-3,1.346-3,3v2c0,1.654,1.346,3,3,3s3-1.346,3-3v-2c0-1.654-1.346-3-3-3ZM33,43.933c0,.552-.448,1-1,1s-1-.448-1-1v-2c0-.552.448-1,1-1s1,.448,1,1v2Z"/>
  <path d="M54.12,49.933l2.77-5.55c.16-.31.14-.68-.04-.98-.15-.24-.4-.4-.68-.45v-7.03c0-2.75-1.07-5.32-3-7.25-.72-.72-1.53-1.32-2.4-1.79,1.01-2.16,1.54-4.54,1.54-6.97v-3.86c0-.55-.45-1-1-1h-3.86c-2.84,0-5.6.72-8.05,2.1-.78-2.79-2.25-5.36-4.35-7.46l-2.34-2.34c-.38-.38-1.04-.38-1.42,0l-2.34,2.34c-2.1,2.1-3.57,4.67-4.35,7.46-2.45-1.38-5.21-2.1-8.05-2.1h-3.86c-.55,0-1,.45-1,1v3.86c0,2.43.53,4.81,1.54,6.97-.87.47-1.68,1.07-2.4,1.79-1.93,1.93-3,4.5-3,7.25v7.03c-.28.05-.53.21-.68.45-.18.3-.2.67-.04.98l2.77,5.55-2.77,5.55c-.16.31-.14.68.04.98.18.29.5.47.85.47h14c.55,0,1-.45,1-1v-5h18v5c0,.55.45,1,1,1h14c.35,0,.67-.18.85-.47.18-.3.2-.67.04-.98l-2.77-5.55ZM51.75,30.092c1.56,1.55,2.42,3.62,2.42,5.83v5.98c-1.63-1.29-3.36-2.42-5.17-3.39v-2.58c0-.55-.45-1-1-1h-9.2c-1.34-.25-2.71-.42-4.08-.5l5.98-4.9c1.47-1.2,3.33-1.86,5.22-1.86,2.2,0,4.27.86,5.83,2.42ZM52.21,42.933h-3.21v-2.13c1.11.64,2.18,1.36,3.21,2.13ZM40.03,21.712c0-.84-.08-1.66-.2-2.48,2.29-1.42,4.91-2.18,7.62-2.18h2.86v2.86c0,2.16-.48,4.29-1.39,6.2-.96-.29-1.97-.44-3-.44-2.36,0-4.66.82-6.48,2.32l-.96.78c1-2.19,1.55-4.58,1.55-7.06ZM30.37,11.102l1.63-1.63,1.63,1.63c2.84,2.83,4.4,6.6,4.4,10.61s-1.56,7.77-4.4,10.6l-1.63,1.64-1.63-1.64c-2.84-2.83-4.4-6.6-4.4-10.6s1.56-7.78,4.4-10.61ZM13.69,17.053h2.86c2.71,0,5.33.76,7.62,2.18-.12.82-.2,1.64-.2,2.48,0,2.48.55,4.87,1.55,7.06l-.96-.78c-1.82-1.5-4.12-2.32-6.48-2.32-1.03,0-2.04.15-3,.44-.91-1.91-1.39-4.04-1.39-6.2v-2.86ZM9.83,35.923c0-2.21.86-4.28,2.42-5.83,1.56-1.56,3.63-2.42,5.83-2.42,1.89,0,3.75.66,5.22,1.86l5.98,4.9c-1.37.08-2.74.25-4.08.5h-9.2c-.55,0-1,.45-1,1v2.58c-1.81.97-3.54,2.1-5.17,3.39v-5.98ZM15,40.803v2.13h-3.21c1.03-.77,2.1-1.49,3.21-2.13ZM21,54.933h-11.38l2.27-4.55c.15-.28.15-.62,0-.9l-2.27-4.55h5.38v5c0,.55.45,1,1,1h5v4ZM17,48.933v-12h30v12h-30ZM43,54.933v-4h5c.55,0,1-.45,1-1v-5h5.38l-2.27,4.55c-.15.28-.15.62,0,.9l2.27,4.55h-11.38Z"/>
</svg>