<?xml version="1.0" encoding="UTF-8"?>
<svg id="Outline" xmlns="http://www.w3.org/2000/svg" version="1.1" viewBox="0 0 64 64">
  <!-- Generator: Adobe Illustrator 29.5.1, SVG Export Plug-In . SVG Version: 2.1.0 Build 141)  -->
  <path d="M54.69,46.26l-1.7-.24,2.54-1.01c.31-.13.54-.4.6-.73.07-.33-.03-.67-.27-.91-.9-.9-1.4-2.1-1.4-3.38v-.74c.07-.07.14-.13.21-.2.51-.6.73-1.4.6-2.19-.09-.59-.4-1.1-.83-1.5.01-.18.02-.38.02-.59,0-1.11-.24-2.19-.7-3.21-.23-.5-.83-.72-1.33-.49-.5.23-.72.83-.49,1.33.32.7.49,1.45.51,2.22h-2.71c-1.57,0-3.03-.79-3.91-2.1-.37-.55-1.29-.55-1.66,0l-.34.5c-.65.98-1.73,1.56-2.9,1.59.09-3.11,2.63-5.61,5.76-5.61,1.05,0,2.08.29,2.98.83.47.29,1.09.14,1.37-.33.29-.47.14-1.09-.33-1.37-1.21-.74-2.6-1.13-4.02-1.13-4.28,0-7.77,3.49-7.77,7.77,0,.19.03.38.05.57-.44.4-.76.92-.86,1.52-.13.79.1,1.59.61,2.19.06.07.13.13.2.2v.74c0,.83-.23,1.61-.62,2.32l-6.46-1.17-.46-2.18c.21.02.41.04.62.04,2.76,0,5-2.24,5-5,0-1.33-.52-2.57-1.43-3.49.19-.3.33-.65.39-1.01.14-.88-.1-1.77-.67-2.44-.09-.1-.19-.19-.29-.27v-.79c0-1.8-.48-3.56-1.39-5.08-.29-.48-.9-.63-1.37-.35-.48.28-.63.9-.35,1.37.73,1.22,1.11,2.62,1.11,4.06h-.11c-.78,0-1.49-.44-1.84-1.14l-.16-.31c-.13-.27-.38-.46-.68-.53-.29-.06-.6.01-.83.2-2.58,2.06-6.18,2.06-8.76,0-.23-.19-.54-.26-.83-.2-.3.07-.55.26-.68.53l-.16.31c-.35.7-1.06,1.14-1.84,1.14-.04,0-.07.01-.11.01v-.01c0-4.41,3.59-8,8-8,1.58,0,3.12.47,4.43,1.35.46.31,1.08.18,1.39-.27.31-.46.19-1.08-.27-1.39-.5-.33-1.03-.6-1.57-.84-.08-2.13-1.83-3.85-3.98-3.85s-3.89,1.71-3.98,3.83c-3.54,1.55-6.02,5.07-6.02,9.17v.81c-.5.44-.85,1.02-.96,1.69-.11.71.03,1.42.38,2.02-.9.91-1.42,2.15-1.42,3.48,0,2.76,2.24,5,5,5,.21,0,.41-.02.62-.04l-.46,2.18-7.05,1.28c-2.38.43-4.11,2.5-4.11,4.92v2.66c0,.55.45,1,1,1s1-.45,1-1v-2.66c0-1.45,1.04-2.69,2.46-2.95l7.11-1.3,5.63,7.51c.19.25.49.4.8.4s.61-.15.8-.4l5.63-7.51,5.81,1.06c0,.04,0,.09.01.13.07.33.3.6.61.73l2.54,1.01-1.7.24c-1.32.19-2.32,1.34-2.32,2.67v1.07c0,.55.45,1,1,1,.56,0,1-.45,1-1v-1.07c0-.34.26-.64.6-.69l3.29-.47c1.12-.16,2.03-1.01,2.26-2.11l.19-.92c.62.21,1.28.34,1.97.34s1.35-.13,1.97-.34l.19.92c.24,1.1,1.14,1.95,2.26,2.11l3.3.47c.33.05.59.35.59.69v1.07c0,.55.45,1,1,1s1-.45,1-1v-1.07c0-1.33-.99-2.48-2.31-2.67ZM25,15c.81,0,1.51.49,1.82,1.19-.6-.11-1.2-.19-1.82-.19s-1.23.06-1.82.17c.32-.69,1.01-1.17,1.82-1.17ZM35,34c0,1.65-1.35,3-3,3-.13,0-.26-.01-.39-.03,1.25-1.4,2.09-3.18,2.32-5.14.02-.01.04-.02.07-.03.62.56,1,1.34,1,2.2ZM18,37c-1.65,0-3-1.35-3-3,0-.85.37-1.63.98-2.19.02.01.04.03.06.03.18,1.9.97,3.71,2.23,5.14-.09.01-.18.02-.27.02ZM18,31c0-.55-.45-1-1-1-.6,0-1.09-.584-.99-1.17.08-.47.56-.83,1.1-.83,1.27,0,2.44-.58,3.2-1.56,2.89,1.77,6.49,1.77,9.38,0,.76.98,1.93,1.56,3.2,1.56h.11c.29,0,.57.13.76.35.2.23.27.52.23.82-.08.47-.56.83-1.1.83-.55,0-1,.45-1,1,0,.13.03.26.07.37-.3,3.53-3.09,6.4-6.5,6.62-1.63.1-3.21-.36-4.51-1.29-.1-.11-.21-.19-.33-.25-.14-.11-.28-.22-.41-.34-1.42-1.34-2.21-3.15-2.21-5.11ZM25,48.33l-4.93-6.57.61-2.87c1.31.72,2.78,1.11,4.31,1.11.2,0,.4-.01.6-.02,1.34-.08,2.61-.49,3.73-1.13l.61,2.91-4.93,6.57ZM42.67,44.78l-2.82-1.13c.58-.89.92-1.91,1.02-2.97.36,1.21,1.06,2.27,2.02,3.04l-.22,1.06ZM46.69,43.08c-2.25,0-4.07-1.83-4.07-4.08,0-.55-.45-1-1-1h-.85c-.2,0-.4-.09-.53-.24-.08-.09-.2-.29-.15-.58.05-.31.39-.56.77-.56,1.62,0,3.15-.71,4.2-1.91,1.24,1.21,2.91,1.91,4.68,1.91h2.78c.39,0,.73.25.78.56.064.398-.237.82-.68.82h-.85c-.55,0-1,.45-1,1,0,2.25-1.83,4.08-4.08,4.08ZM50.71,44.78l-.22-1.06c.96-.77,1.67-1.83,2.02-3.04.11,1.06.45,2.08,1.02,2.97l-2.82,1.13Z"/>
</svg>