<?xml version="1.0" encoding="UTF-8"?>
<svg id="Outline" xmlns="http://www.w3.org/2000/svg" version="1.1" viewBox="0 0 64 64">
  <!-- Generator: Adobe Illustrator 29.5.1, SVG Export Plug-In . SVG Version: 2.1.0 Build 141)  -->
  <path d="M56,43.001c.55,0,1-.45,1-1v-18c0-.33-.17-.65-.45-.83l-5.55-3.71v-5.46c0-1.65-1.35-3-3-3h-9.7l-5.75-3.83c-.33-.23-.77-.23-1.1,0l-5.75,3.83h-9.7c-1.65,0-3,1.35-3,3v5.46l-5.55,3.71c-.28.18-.45.5-.45.83v12c0,.55.45,1,1,1s1-.45,1-1v-6.27l22.49,12.92c.01,0,.02.01.03.02l21.47,12.33H10c-.55,0-1-.45-1-1v-14c0-.55-.45-1-1-1s-1,.45-1,1v14c0,1.65,1.35,3,3,3h44c1.65,0,3-1.35,3-3v-8c0-.55-.45-1-1-1s-1,.45-1,1v7.85l-20.99-12.06,20.99-12.05v12.26c0,.55.45,1,1,1ZM13,29.721l-4-2.3v-2.88l4-2.67v7.85ZM32,9.201l2.7,1.8h-5.4l2.7-1.8ZM49,30.881l-17,9.76-17-9.77V14.001c0-.55.45-1,1-1h32c.55,0,1,.45,1,1v16.88ZM51,29.731v-7.86l4,2.67v2.89l-4,2.3Z"/>
  <path d="M32.06,23.009c-.553-.393-1.169-.672-1.826-.837-.128-.481-.367-.939-.744-1.315-.925-.925-2.323-1.098-3.426-.52-1.101-.578-2.5-.405-3.426.521-1.14,1.139-1.14,2.994,0,4.133l.992.992c-.552,1.905-.048,3.956,1.382,5.387l6.34,6.34c.195.195.451.293.707.293s.512-.098.706-.292l6.352-6.34c2.135-2.135,2.136-5.617,0-7.764-1.914-1.915-4.912-2.112-7.058-.595ZM24.053,22.272c.18-.18.416-.27.652-.27s.473.09.652.27c.391.39,1.023.39,1.414,0,.359-.36.945-.36,1.305,0,.174.174.26.401.265.63,0,.007-.006.013-.006.021-.001.013.005.025.004.038-.009.224-.092.446-.263.617l-2.012,2.011-.55-.55c-.01-.011-.02-.02-.031-.031l-1.431-1.43c-.359-.36-.359-.945,0-1.304ZM37.704,29.954l-5.644,5.634-5.634-5.633c-.606-.606-.945-1.389-1.004-2.203.186.159.411.25.642.25.256,0,.512-.098.707-.293l2.72-2.719c.233-.234.406-.502.544-.783.489.171.94.439,1.321.817.392.386,1.019.384,1.408-.002,1.366-1.359,3.582-1.359,4.937-.004,1.358,1.366,1.359,3.581.003,4.938Z"/>
  <path d="M41.064,15.337c-1.101-.578-2.5-.405-3.426.521-1.14,1.139-1.14,2.994,0,4.133l2.719,2.718c.195.195.451.293.707.293s.512-.098.707-.293l2.72-2.719c1.138-1.14,1.138-2.993,0-4.133-.925-.925-2.323-1.098-3.426-.52ZM43.076,18.576l-2.012,2.011-2.012-2.011c-.359-.36-.359-.945,0-1.304.18-.18.416-.27.652-.27s.473.09.652.27c.391.39,1.023.39,1.414,0,.359-.36.945-.36,1.305,0s.359.945,0,1.305Z"/>
</svg>