<?xml version="1.0" encoding="UTF-8"?>
<svg id="Outline" xmlns="http://www.w3.org/2000/svg" version="1.1" viewBox="0 0 64 64">
  <!-- Generator: Adobe Illustrator 29.5.1, SVG Export Plug-In . SVG Version: 2.1.0 Build 141)  -->
  <path d="M49.68,39.026l1.07-6.01c.16-.49.25-1,.25-1.52,0-3.85-4.82-7.12-12.17-8.41l2.04-2.04c1.73-1.73,2.39-4.27,1.72-6.62-.15-.53-.71-.84-1.23-.69-.53.15-.84.7-.69,1.23.47,1.66,0,3.44-1.22,4.66l-7.45,7.46-7.45-7.46c-1.86-1.85-1.86-4.88,0-6.73,1.86-1.86,4.89-1.86,6.74,0,.39.39,1.03.39,1.42,0,1.58-1.59,4.1-1.85,5.97-.62.46.3,1.09.17,1.39-.29.3-.47.17-1.09-.29-1.39-2.4-1.56-5.54-1.42-7.78.27-2.64-2-6.44-1.8-8.87.61-2.63,2.64-2.63,6.93,0,9.57l2.04,2.04c-7.35,1.29-12.17,4.56-12.17,8.41,0,.52.08,1.03.25,1.52l.01.01,1.06,6c-4.73,1.65-7.32,3.93-7.32,6.47,0,5.85,12.88,9,25,9s25-3.15,25-9c0-2.54-2.59-4.82-7.32-6.47ZM31,30.496c0-.55.45-1,1-1s1,.45,1,1v2c0,.55-.45,1-1,1s-1-.45-1-1v-2ZM26.92,24.836l3.28,3.27c-.72.55-1.2,1.41-1.2,2.39v2c0,1.65,1.35,3,3,3s3-1.35,3-3v-2c0-.98-.48-1.84-1.2-2.39l3.28-3.27c6.89.92,11.85,3.66,11.91,6.61l-.18,1.05c-.65,1.68-2.87,3.27-6.14,4.39-1.035.355-.774,1.95.33,1.95.11,0,.22-.02.33-.05,1.93-.67,3.55-1.5,4.79-2.44l-1.1,6.23c-.02.05-.02.11-.02.17,0,2.72-6.16,5.75-15,5.75s-15-3.03-15-5.75c0-.06,0-.12-.02-.17l-1.1-6.24c.83.63,1.84,1.21,3.01,1.73.07.13.11.27.11.43v3c0,1.65,1.35,3,3,3s3-1.35,3-3v-2c0-.55.45-1,1-1s1,.45,1,1v4c0,1.65,1.35,3,3,3s3-1.35,3-3v-3.02c2.15-.05,4.23-.26,6.19-.63.54-.1.9-.62.79-1.17-.1-.54-.62-.89-1.17-.79-1.41.27-2.89.44-4.42.53.36-.15.61-.51.61-.92,0-.55-.45-1-1-1-1.65,0-3,1.35-3,3v4c0,.55-.45,1-1,1s-1-.45-1-1v-4c0-1.65-1.35-3-3-3s-3,1.35-3,3v2c0,.55-.45,1-1,1s-1-.45-1-1v-3c0-.7-.25-1.33-.65-1.84-.02-.03-.04-.06-.07-.08-.49-.59-1.2-.98-2.01-1.05-1.59-.91-2.66-1.95-3.08-3.03l-.18-1.05c.06-2.95,5.02-5.69,11.91-6.61ZM32,52.496c-13.55,0-23-3.69-23-7,0-1.54,2.1-3.18,5.68-4.47l.32,1.81c.1,4.38,7.38,7.66,17,7.66s16.9-3.28,17-7.66l.32-1.81c3.58,1.29,5.68,2.93,5.68,4.47,0,3.31-9.45,7-23,7Z"/>
  <path d="M22,35.496c.553,0,1-.448,1-1v-1.764l.105.211c.34.678,1.449.678,1.789,0l.105-.211v1.764c0,.552.447,1,1,1s1-.448,1-1v-6c0-.464-.319-.867-.771-.973-.449-.108-.917.111-1.124.526l-1.105,2.211-1.105-2.211c-.207-.415-.677-.633-1.124-.526-.451.106-.771.509-.771.973v6c0,.552.447,1,1,1Z"/>
  <path d="M38,35.496c.553,0,1-.448,1-1v-1.764l.105.211c.34.678,1.449.678,1.789,0l.105-.211v1.764c0,.552.447,1,1,1s1-.448,1-1v-6c0-.464-.319-.867-.771-.973-.45-.108-.917.111-1.124.526l-1.105,2.211-1.105-2.211c-.207-.415-.678-.633-1.124-.526-.451.106-.771.509-.771.973v6c0,.552.447,1,1,1Z"/>
</svg>