<?xml version="1.0" encoding="UTF-8"?>
<svg id="Outline" xmlns="http://www.w3.org/2000/svg" version="1.1" viewBox="0 0 64 64">
  <!-- Generator: Adobe Illustrator 29.5.1, SVG Export Plug-In . SVG Version: 2.1.0 Build 141)  -->
  <path d="M20,53c.552,0,1-.447,1-1v-4c0-.553-.448-1-1-1h-8c-.552,0-1,.447-1,1v4c0,.553.448,1,1,1h8ZM13,49h6v2h-6v-2Z"/>
  <path d="M54,19h-9v-9c0-1.654-1.346-3-3-3H10c-1.654,0-3,1.346-3,3v6c0,.553.448,1,1,1s1-.447,1-1v-3.368l.626,2.187c.359,1.285,1.544,2.182,2.883,2.182h8.591c.396,1.941,1.921,3.474,3.856,3.887-.207,2.622-1.319,5.061-3.2,6.941l-.464.465c-.39.391-.39,1.024,0,1.414.372.371,1.021.393,1.414,0l.464-.465c1.228-1.228,2.18-2.657,2.829-4.213.648,1.556,1.601,2.986,2.828,4.213l.464.465c.386.387,1.028.387,1.414,0,.391-.39.391-1.023,0-1.414l-.465-.465c-1.88-1.88-2.993-4.319-3.199-6.941,1.935-.413,3.46-1.946,3.856-3.887h8.591c1.339,0,2.524-.896,2.881-2.175l.628-2.194v6.368h-3c-1.654,0-3,1.346-3,3v17.754c0,1.79,1.456,3.246,3.25,3.246h2.75v11c0,.552-.449,1-1,1H10c-.551,0-1-.448-1-1v-30c0-.553-.448-1-1-1s-1,.447-1,1v30c0,1.654,1.346,3,3,3h32c1.654,0,3-1.346,3-3v-11h9c1.654,0,3-1.346,3-3v-18c0-1.654-1.346-3-3-3ZM26,19c-1.654,0-3-1.346-3-3s1.346-3,3-3,3,1.346,3,3-1.346,3-3,3ZM40.447,14.281c-.118.423-.511.719-.957.719h-8.591c-.465-2.279-2.484-4-4.899-4s-4.434,1.721-4.899,4h-8.591c-.445,0-.838-.296-.958-.726l-1.511-5.274h31.919l-1.513,5.281ZM39,33.766l1.477,2.584-1.018.255c-.159.04-.311.095-.459.157v-2.996ZM55,40c0,.552-.449,1-1,1h-13.754c-.687,0-1.246-.559-1.246-1.246,0-.573.388-1.07.944-1.21l2.298-.574c.304-.075.555-.289.678-.577.123-.288.104-.617-.052-.889l-3.868-6.769v-7.735c0-.552.449-1,1-1h14c.551,0,1,.448,1,1v18Z"/>
  <path d="M52,23h-10c-.552,0-1,.447-1,1s.448,1,1,1h10c.552,0,1-.447,1-1s-.448-1-1-1Z"/>
  <path d="M52,27h-6c-.552,0-1,.447-1,1s.448,1,1,1h6c.552,0,1-.447,1-1s-.448-1-1-1Z"/>
  <path d="M52,31h-6c-.552,0-1,.447-1,1s.448,1,1,1h6c.552,0,1-.447,1-1s-.448-1-1-1Z"/>
  <circle cx="8" cy="20" r="1"/>
</svg>