<?xml version="1.0" encoding="UTF-8"?>
<svg id="Outline" xmlns="http://www.w3.org/2000/svg" version="1.1" viewBox="0 0 64 64">
  <!-- Generator: Adobe Illustrator 29.5.1, SVG Export Plug-In . SVG Version: 2.1.0 Build 141)  -->
  <path d="M56.66,55.25l-5.75-5.08c-6.93-6.11-10.91-14.92-10.91-24.17,0-.55-.45-1-1-1h-14c-.55,0-1,.45-1,1,0,9.25-3.98,18.06-10.91,24.17l-5.75,5.08c-.31.28-.42.71-.28,1.1.15.39.52.65.94.65h48c.42,0,.79-.26.94-.65.14-.39.03-.82-.28-1.1ZM25.99,27h12.02c.11,3.62.79,7.17,1.99,10.52-2.63-1.05-5.7-.68-8,1.14-2.3-1.82-5.37-2.19-8-1.14,1.2-3.35,1.88-6.9,1.99-10.52ZM10.64,55l3.78-3.33c3.49-3.08,6.27-6.81,8.24-10.93.01-.01.03-.02.05-.03,2.36-2.37,6.22-2.37,8.58,0,.2.19.45.29.71.29s.51-.1.71-.29c2.36-2.37,6.22-2.37,8.58,0,.02.01.04.02.05.03,1.97,4.12,4.75,7.85,8.25,10.93l3.77,3.33H10.64Z"/>
  <path d="M11,16h5.142c.447,1.72,1.999,3,3.858,3h7c2.206,0,4-1.794,4-4s-1.794-4-4-4c-.398,0-.789.061-1.168.181-.741-.75-1.751-1.181-2.832-1.181-.489,0-.966.092-1.413.264-.649-1.334-2.006-2.264-3.587-2.264-.398,0-.789.061-1.168.181-.741-.75-1.751-1.181-2.832-1.181-.982,0-1.922.365-2.651,1.018-.121-.012-.236-.018-.349-.018-2.206,0-4,1.794-4,4s1.794,4,4,4ZM24.685,12.934c.285.452.876.601,1.34.335.318-.181.638-.269.976-.269,1.103,0,2,.897,2,2s-.897,2-2,2h-7c-.748,0-1.393-.417-1.736-1.027,1.98-.132,3.556-1.698,3.706-3.673.257-.162.595-.3,1.03-.3.686,0,1.315.349,1.685.934ZM11,10c.129,0,.286.021.479.065.366.082.749-.046.989-.335.387-.464.944-.73,1.531-.73.686,0,1.315.349,1.685.934.285.452.876.601,1.34.335.318-.181.638-.269.976-.269,1.103,0,2,.897,2,2s-.897,2-2,2h-7c-1.103,0-2-.897-2-2s.897-2,2-2Z"/>
  <path d="M41,22c0,2.206,1.794,4,4,4h7c2.206,0,4-1.794,4-4,0-.795-.239-1.532-.641-2.155,1.061-1.378,1.641-3.066,1.641-4.845,0-4.411-3.589-8-8-8s-8,3.589-8,8c0,1.494.409,2.914,1.179,4.168-.727.725-1.179,1.726-1.179,2.832ZM52,24h-7c-1.103,0-2-.897-2-2s.897-2,2-2c.129,0,.286.021.479.065.365.082.748-.046.989-.335.387-.464.944-.73,1.531-.73.686,0,1.315.349,1.685.934.285.451.877.6,1.34.335.318-.181.638-.269.976-.269.526,0,1.002.208,1.359.542.002.002.003.005.005.007.005.005.012.006.017.011.38.364.619.874.619,1.44,0,1.103-.897,2-2,2ZM43,15c0-3.309,2.691-6,6-6s6,2.691,6,6c0,1.275-.411,2.477-1.139,3.481-.559-.297-1.186-.481-1.861-.481-.398,0-.789.061-1.168.181-.741-.75-1.751-1.181-2.832-1.181-.982,0-1.922.365-2.651,1.018-.121-.012-.236-.018-.349-.018-.375,0-.731.069-1.075.165-.596-.951-.925-2.028-.925-3.165Z"/>
  <path d="M25.371,44.071c-.514-.202-1.095.044-1.3.558l-.339.847c-.98,2.45-2.819,4.45-5.18,5.629-.494.247-.694.847-.447,1.342.243.487.859.689,1.342.448,2.798-1.399,4.979-3.77,6.143-6.676l.339-.848c.205-.513-.045-1.095-.558-1.3Z"/>
  <path d="M45.447,51.105c-2.36-1.18-4.199-3.179-5.18-5.629l-.339-.848c-.205-.513-.787-.759-1.3-.558-.513.205-.763.787-.558,1.3l.339.848c1.163,2.905,3.345,5.276,6.143,6.675.491.245,1.097.043,1.342-.447.247-.494.047-1.095-.447-1.342Z"/>
</svg>