<?xml version="1.0" encoding="UTF-8"?>
<svg id="Outline" xmlns="http://www.w3.org/2000/svg" version="1.1" viewBox="0 0 64 64">
  <!-- Generator: Adobe Illustrator 29.5.1, SVG Export Plug-In . SVG Version: 2.1.0 Build 141)  -->
  <path d="M22,7c-4.962,0-9,4.038-9,9v18c0,3.909,2.51,7.235,6,8.475v11.525c0,1.654,1.346,3,3,3s3-1.346,3-3v-11.525c3.49-1.24,6-4.565,6-8.475v-2c0-.552-.448-1-1-1s-1,.448-1,1v2c0,3.86-3.14,7-7,7s-7-3.14-7-7v-18c0-3.86,3.14-7,7-7,1.865,0,3.625.728,4.951,2.044,1.321,1.331,2.049,3.091,2.049,4.956v12c0,.552.448,1,1,1s1-.448,1-1v-12c0-2.396-.934-4.657-2.635-6.37-1.708-1.696-3.969-2.63-6.365-2.63ZM23,42.941v11.059c0,.551-.449,1-1,1s-1-.449-1-1v-11.059c.329.037.662.059,1,.059s.671-.022,1-.059Z"/>
  <path d="M24.241,17.001l.466-.466c.566-.566.878-1.32.878-2.121s-.312-1.555-.878-2.121c-1.17-1.17-3.072-1.17-4.242,0l-.709.709c-2.121,2.121-2.106,5.531.011,7.992-1.028,1.085-1.593,2.501-1.593,4.006s.564,2.921,1.593,4.006c-2.117,2.462-2.131,5.872-.011,7.992l.709.709c1.136,1.136,3.076,1.166,4.242,0,.566-.566.878-1.32.878-2.121s-.312-1.555-.878-2.121l-.466-.467c1.023-1.084,1.585-2.497,1.585-3.998s-.562-2.916-1.587-4c1.025-1.084,1.587-2.498,1.587-4s-.562-2.915-1.585-3.999ZM22.707,26.293c.722.722,1.119,1.683,1.119,2.707s-.397,1.985-1.12,2.708c-.344.345-.534.804-.534,1.292s.19.947.535,1.293l.586.586c.188.189.292.44.292.707s-.104.518-.292.707c-.378.377-1.036.377-1.414,0l-.709-.709c-1.602-1.602-1.117-3.91.19-5.362.302-.335.468-.77.468-1.222,0-.488-.19-.947-.536-1.293-.722-.722-1.119-1.683-1.119-2.707s.397-1.985,1.12-2.708c.345-.345.535-.804.535-1.292,0-.452-.167-.886-.469-1.222-1.307-1.452-1.792-3.76-.19-5.362l.709-.709c.189-.188.44-.292.707-.292s.518.104.707.292c.188.189.292.44.292.707s-.104.518-.292.707l-.587.587c-.344.345-.534.804-.534,1.292s.19.947.535,1.293c.722.722,1.119,1.683,1.119,2.707s-.397,1.985-1.12,2.708c-.344.345-.534.804-.534,1.292s.19.947.535,1.293Z"/>
  <path d="M50,19c.552,0,1-.448,1-1v-2c0-4.962-4.038-9-9-9-2.396,0-4.657.934-6.37,2.635-1.696,1.708-2.63,3.969-2.63,6.365v18c0,3.909,2.51,7.235,6,8.475v11.525c0,1.654,1.346,3,3,3s3-1.346,3-3v-11.525c3.49-1.24,6-4.565,6-8.475v-12c0-.552-.448-1-1-1s-1,.448-1,1v12c0,3.86-3.14,7-7,7s-7-3.14-7-7v-18c0-1.865.728-3.625,2.044-4.951,1.331-1.321,3.091-2.049,4.956-2.049,3.86,0,7,3.14,7,7v2c0,.552.448,1,1,1ZM43,42.941v11.059c0,.551-.449,1-1,1s-1-.449-1-1v-11.059c.329.037.662.059,1,.059s.671-.022,1-.059Z"/>
  <path d="M44.244,13.002l-.709-.709c-1.17-1.17-3.072-1.17-4.242,0-.566.566-.878,1.32-.878,2.121s.312,1.555.878,2.121l.466.467c-1.023,1.084-1.585,2.497-1.585,3.998s.562,2.916,1.587,4c-1.025,1.084-1.587,2.498-1.587,4s.562,2.915,1.585,3.999l-.466.466c-.566.566-.878,1.32-.878,2.121s.312,1.555.878,2.121c1.132,1.132,3.084,1.159,4.242,0l.709-.709c2.121-2.121,2.106-5.531-.011-7.992,1.028-1.085,1.593-2.501,1.593-4.006s-.564-2.921-1.593-4.006c2.117-2.462,2.131-5.872.011-7.992ZM42.64,30.222c1.307,1.452,1.792,3.76.19,5.362l-.709.709c-.378.377-1.036.377-1.414,0-.188-.189-.292-.44-.292-.707s.104-.518.292-.707l.587-.587c.344-.345.534-.804.534-1.292s-.19-.947-.535-1.293c-.722-.722-1.119-1.683-1.119-2.707s.397-1.985,1.12-2.708c.344-.345.534-.804.534-1.292s-.19-.947-.535-1.293c-.722-.722-1.119-1.683-1.119-2.707s.397-1.985,1.12-2.708c.344-.345.534-.804.534-1.292s-.19-.947-.535-1.293l-.586-.586c-.188-.189-.292-.44-.292-.707s.104-.518.292-.707c.189-.188.44-.292.707-.292s.518.104.707.292l.709.709c1.602,1.602,1.117,3.91-.19,5.362-.302.335-.468.77-.468,1.222,0,.488.19.947.536,1.293.722.722,1.119,1.683,1.119,2.707s-.397,1.985-1.12,2.708c-.345.345-.535.804-.535,1.292,0,.452.167.886.469,1.222Z"/>
</svg>