<?xml version="1.0" encoding="UTF-8"?>
<svg id="Outline" xmlns="http://www.w3.org/2000/svg" version="1.1" viewBox="0 0 64 64">
  <!-- Generator: Adobe Illustrator 29.5.1, SVG Export Plug-In . SVG Version: 2.1.0 Build 141)  -->
  <path d="M22,7c-4.962,0-9,4.037-9,9v18c0,3.91,2.51,7.236,6,8.475v11.525c0,1.654,1.346,3,3,3s3-1.346,3-3v-11.525c3.49-1.239,6-4.565,6-8.475v-8c0-.553-.448-1-1-1s-1,.447-1,1v8c0,3.859-3.14,7-7,7s-7-3.141-7-7v-18c0-3.859,3.14-7,7-7,1.864,0,3.624.728,4.951,2.045,1.321,1.33,2.049,3.091,2.049,4.955v2c0,.553.448,1,1,1s1-.447,1-1v-2c0-2.396-.934-4.656-2.635-6.37-1.709-1.696-3.969-2.63-6.365-2.63ZM23,42.941v11.059c0,.552-.449,1-1,1s-1-.448-1-1v-11.059c.329.037.662.059,1,.059s.671-.022,1-.059Z"/>
  <path d="M20,26h4c1.654,0,3-1.346,3-3s-1.346-3-3-3h-4c-.551,0-1-.448-1-1s.449-1,1-1h3c1.654,0,3-1.346,3-3s-1.346-3-3-3h-4c-.552,0-1,.447-1,1s.448,1,1,1h4c.551,0,1,.448,1,1s-.449,1-1,1h-3c-1.654,0-3,1.346-3,3s1.346,3,3,3h4c.551,0,1,.448,1,1s-.449,1-1,1h-4c-1.654,0-3,1.346-3,3s1.346,3,3,3h4c.551,0,1,.448,1,1s-.449,1-1,1h-4c-1.654,0-3,1.346-3,3s1.346,3,3,3h5c.552,0,1-.447,1-1s-.448-1-1-1h-5c-.551,0-1-.448-1-1s.449-1,1-1h4c1.654,0,3-1.346,3-3s-1.346-3-3-3h-4c-.551,0-1-.448-1-1s.449-1,1-1Z"/>
  <path d="M42,7c-4.96,0-9,4.04-9,9v18c0,3.91,2.51,7.24,6,8.47v11.53c0,1.65,1.35,3,3,3s3-1.35,3-3v-11.53c3.49-1.23,6-4.56,6-8.47v-18c0-4.96-4.04-9-9-9ZM43,54c0,.55-.45,1-1,1s-1-.45-1-1v-11.06c.33.04.66.06,1,.06s.67-.02,1-.06v11.06ZM49,34c0,3.86-3.14,7-7,7s-7-3.14-7-7v-18c0-3.86,3.14-7,7-7s7,3.14,7,7v18Z"/>
  <path d="M40,22h4c1.654,0,3-1.346,3-3s-1.346-3-3-3h-3c-.551,0-1-.448-1-1s.449-1,1-1h4c.552,0,1-.447,1-1s-.448-1-1-1h-4c-1.654,0-3,1.346-3,3s1.346,3,3,3h3c.551,0,1,.448,1,1s-.449,1-1,1h-4c-1.654,0-3,1.346-3,3s1.346,3,3,3h4c.551,0,1,.448,1,1s-.449,1-1,1h-4c-1.654,0-3,1.346-3,3s1.346,3,3,3h4c.551,0,1,.448,1,1s-.449,1-1,1h-5c-.552,0-1,.447-1,1s.448,1,1,1h5c1.654,0,3-1.346,3-3s-1.346-3-3-3h-4c-.551,0-1-.448-1-1s.449-1,1-1h4c1.654,0,3-1.346,3-3s-1.346-3-3-3h-4c-.551,0-1-.448-1-1s.449-1,1-1Z"/>
  <circle cx="30" cy="22" r="1"/>
</svg>