<?xml version="1.0" encoding="UTF-8"?>
<svg id="Outline" xmlns="http://www.w3.org/2000/svg" version="1.1" viewBox="0 0 64 64">
  <!-- Generator: Adobe Illustrator 29.5.1, SVG Export Plug-In . SVG Version: 2.1.0 Build 141)  -->
  <path d="M48.18,42.99l-8.34-1.52-.94-4.45c4.33-2.72,7.27-7.99,7.27-14.02,0-8.82-6.28-16-14-16s-14,7.18-14,16c0,5.89,2.81,11.04,6.97,13.81l-.98,4.66-8.34,1.52c-2.69.48-4.65,2.83-4.65,5.57v7.44c0,.55.45,1,1,1h8c.55,0,1-.45,1-1s-.45-1-1-1h-7v-.14l14.49-2.27,10.6,2.41h-10.09c-.55,0-1,.45-1,1s.45,1,1,1h23.66c.55,0,1-.45,1-1v-7.44c0-2.74-1.96-5.09-4.65-5.57ZM39.24,34.29l-9.82-2.32,6.93-2.31,6.25.24c-.85,1.73-1.99,3.22-3.36,4.39ZM37.63,40.67l-10.97-1.37.31-1.46c1.61.74,3.36,1.16,5.2,1.16,1.72,0,3.36-.37,4.89-1.03l.57,2.7ZM42.03,15.04c.54.91.99,1.91,1.34,2.96h-17.61l16.27-2.96ZM32.17,9c2.55,0,4.91.94,6.85,2.53l-12.1-1.1c1.59-.91,3.37-1.43,5.25-1.43ZM24.54,12.22l14.56,1.32-17.65,3.21c.75-1.75,1.81-3.29,3.09-4.53ZM20.17,23c0-1.03.1-2.03.28-3h23.44c.18.97.28,1.97.28,3,0,1.74-.29,3.4-.78,4.93l-22.7-.87c-.34-1.29-.52-2.65-.52-4.06ZM21.38,29.09l9.3.35-7.68,2.56c-.64-.88-1.18-1.86-1.62-2.91ZM24.4,33.65l1.4-.47,11.19,2.63c-1.48.76-3.11,1.19-4.82,1.19-2.96,0-5.68-1.27-7.77-3.35ZM13.17,48.56c0-1.78,1.26-3.29,3.01-3.61l9-1.64c.4-.07.71-.38.8-.77l.27-1.27,11.85,1.48c.14.29.4.5.72.56l2.69.49-28.34,5.01v-.25ZM13.17,52.83v-1.99l17.57-3.1,6.59,1.31-24.16,3.78ZM50.83,55h-3.55l-14.28-3.25,10.01-1.56,7.82,1.56v3.25ZM50.83,49.71l-14.67-2.93,11.01-1.94.65.11c1.75.32,3.01,1.83,3.01,3.61v1.15Z"/>
  <path d="M27.17,22c-.552,0-1,.448-1,1v2c0,.552.448,1,1,1s1-.448,1-1v-2c0-.552-.448-1-1-1Z"/>
  <path d="M37.17,22c-.552,0-1,.448-1,1v2c0,.552.448,1,1,1s1-.448,1-1v-2c0-.552-.448-1-1-1Z"/>
  <circle cx="24.17" cy="56" r="1"/>
</svg>