<?xml version="1.0" encoding="UTF-8"?>
<svg id="Outline" xmlns="http://www.w3.org/2000/svg" version="1.1" viewBox="0 0 64 64">
  <!-- Generator: Adobe Illustrator 29.5.1, SVG Export Plug-In . SVG Version: 2.1.0 Build 141)  -->
  <path d="M21.989,26.726c2.082-.907,3.845-2.4,5.097-4.318,1.252-1.911,1.914-4.127,1.914-6.408,0-1.323-.518-2.578-1.468-3.542-.954-.94-2.208-1.458-3.532-1.458-2.757,0-5,2.243-5,5,0,.553.448,1,1,1s1-.447,1-1c0-1.654,1.346-3,3-3,.795,0,1.551.313,2.118.872.569.577.882,1.333.882,2.128,0,1.891-.549,3.728-1.587,5.313-1.039,1.591-2.499,2.829-4.221,3.579l-.191.084v-.976c0-.553-.448-1-1-1s-1,.447-1,1v1.849l-1.82.794c-3.754,1.639-6.18,5.347-6.18,9.446v.2c0,4.938,3.323,9.168,8,10.363v1.818c-1.261-.912-3.022-1.471-5-1.471-3.925,0-7,2.196-7,5s3.075,5,7,5,7-2.196,7-5v-5.03c.222.014.444.03.67.03h.33c3.86,0,7-3.141,7-7,0-1.879-.73-3.637-2.049-4.944-1.314-1.325-3.072-2.056-4.951-2.056h-1v-5.842l.989-.432ZM14,55c-2.71,0-5-1.374-5-3s2.29-3,5-3,5,1.374,5,3-2.29,3-5,3ZM22,35c1.341,0,2.595.52,3.536,1.47.944.936,1.464,2.189,1.464,3.53,0,2.757-2.243,5-5,5h-.33c-.226,0-.449-.012-.67-.03v-9.97h1ZM19,33.101c-2.279.465-4,2.484-4,4.899,0,.553.448,1,1,1s1-.447,1-1c0-1.302.839-2.402,2-2.816v9.383c-3.537-1.138-6-4.442-6-8.277v-.2c0-3.304,1.955-6.293,4.981-7.614l1.019-.445v5.07Z"/>
  <path d="M55.725,29.989l-.919.263c-3.783,1.082-7.756.995-11.49-.249-4.118-1.373-8.5-1.469-12.672-.276l-.919.263c-.531.152-.838.706-.687,1.236.151.531.706.835,1.236.688l.919-.263c3.783-1.082,7.757-.995,11.49.249,2.208.736,4.491,1.105,6.778,1.104,1.978,0,3.959-.275,5.895-.828l.919-.263c.531-.152.838-.706.687-1.236-.152-.531-.706-.833-1.236-.688Z"/>
  <path d="M55.725,33.989l-.919.263c-3.783,1.082-7.756.995-11.49-.249-4.118-1.374-8.5-1.468-12.672-.276l-.919.263c-.531.152-.838.706-.687,1.236.151.531.706.835,1.236.688l.919-.263c3.783-1.082,7.757-.995,11.49.249,2.208.736,4.491,1.105,6.778,1.104,1.978,0,3.959-.275,5.895-.828l.919-.263c.531-.152.838-.706.687-1.236-.152-.531-.706-.835-1.236-.688Z"/>
  <path d="M30.275,27.913l.919-.263c3.783-1.082,7.757-.995,11.49.249,2.208.736,4.491,1.105,6.778,1.104,1.978,0,3.959-.275,5.895-.828l.919-.263c.531-.152.838-.706.687-1.236-.152-.531-.706-.834-1.236-.688l-.919.263c-3.783,1.082-7.756.995-11.49-.249-4.118-1.373-8.5-1.468-12.672-.276l-.919.263c-.531.152-.838.706-.687,1.236.151.531.706.834,1.236.688Z"/>
  <path d="M29.999,23.95c.09,0,.182-.012.272-.038l.917-.259c.526-.147,1.041-.264,1.544-.363.645.446,1.424.71,2.266.71,1.034,0,1.969-.405,2.68-1.051,1.707.099,3.389.411,5.004.949,2.191.731,4.475,1.102,6.787,1.102,2.007,0,3.988-.279,5.882-.828l.92-.26c.531-.149.84-.702.69-1.233-.15-.532-.7-.844-1.234-.69l-.926.261c-1.667.483-3.41.719-5.162.733.828-.733,1.36-1.792,1.36-2.982V8c0-.294-.129-.573-.354-.763-.225-.19-.523-.271-.811-.224l-12,2c-.482.08-.835.497-.835.986v6.556c-.591-.344-1.268-.556-2-.556-2.206,0-4,1.794-4,4,0,.553.113,1.079.316,1.559-.222.055-.443.107-.669.17l-.92.26c-1.072.303-.855,1.962.271,1.962ZM38.849,21.03c.089-.331.151-.672.151-1.03v-5.153l10-1.667v3.376c-.591-.344-1.268-.556-2-.556-2.206,0-4,1.794-4,4,0,.766.227,1.476.603,2.085-.095-.03-.192-.052-.286-.083-1.449-.483-2.946-.809-4.468-.972ZM47,22c-1.103,0-2-.897-2-2s.897-2,2-2,2,.897,2,2-.897,2-2,2ZM49,9.18v1.972l-10,1.667v-1.973l10-1.666ZM35,18c1.103,0,2,.897,2,2s-.897,2-2,2-2-.897-2-2,.897-2,2-2Z"/>
  <circle cx="20" cy="20" r="1"/>
</svg>