<?xml version="1.0" encoding="UTF-8"?>
<svg id="Outline" xmlns="http://www.w3.org/2000/svg" version="1.1" viewBox="0 0 64 64">
  <!-- Generator: Adobe Illustrator 29.5.1, SVG Export Plug-In . SVG Version: 2.1.0 Build 141)  -->
  <path d="M54.07572,10.53107c-2.27637-2.45898-5.50195-3.73242-8.85742-3.50488-5.72949.39844-10.21777,5.32227-10.21777,11.21094v9.7627c0,.4043.24316.76953.61719.92383.37305.15527.80371.06934,1.08984-.2168l1.13672-1.13672c.61328-.61426,1.5791-.70605,2.34766-.22754,1.75781,1.0957,3.73633,1.6582,5.79395,1.6582.47559,0,.95703-.03027,1.43945-.09082,4.85352-.6123,8.74023-4.41211,9.45215-9.24219.49414-3.34863-.52734-6.67969-2.80176-9.13672ZM54.89897,19.37677c-.58203,3.94434-3.75781,7.04883-7.72363,7.54883-2.10352.26367-4.1543-.17676-5.92578-1.28027-.65723-.40918-1.3877-.60938-2.1084-.60938-.75586,0-1.50195.21973-2.14062.65039v-7.44922c0-4.8418,3.6709-8.88965,8.35645-9.21484,2.74121-.19727,5.38867.85449,7.25098,2.86719,1.86133,2.01074,2.69629,4.74023,2.29102,7.4873Z"/>
  <path d="M50.94779,13.05256c-.39062-.39062-1.02344-.39062-1.41406,0l-3.5332,3.5332-3.5332-3.5332c-.39062-.39062-1.02344-.39062-1.41406,0s-.39062,1.02344,0,1.41406l3.5332,3.5332-3.5332,3.5332c-.39061.39061-.39062,1.02339-.00005,1.41401.38828.38833,1.02738.38678,1.41411.00005l3.5332-3.5332,3.5332,3.5332c.388.388,1.0266.38747,1.41406,0,.39062-.39062.39062-1.02344,0-1.41406l-3.5332-3.5332,3.5332-3.5332c.39062-.39062.39062-1.02344,0-1.41406Z"/>
  <path d="M33.00053,31.07978v-11.07996c0-.35999-.20001-.70001-.52002-.88-.31-.16998-.69995-.16003-1.01001.02997l-15.75995,9.85004h-7.71002c-.54999,0-1,.45001-1,1v16c0,.54999.45001,1,1,1h7.71002l15.75995,9.84998c.16003.10004.35004.15002.53003.15002.16998,0,.33002-.04004.47998-.12.32001-.17999.52002-.52002.52002-.88v-11.08002c3.39001-.48999,6-3.40002,6-6.91998s-2.60999-6.42999-6-6.92004ZM15.00053,44.99982h-6v-14h6v14ZM31.00053,54.19983l-14-8.75v-14.90002l14-8.75v32.40002ZM33.00053,42.89978v-9.79999c2.28003.47003,4,2.48999,4,4.90002s-1.71997,4.42999-4,4.89996Z"/>
</svg>