<?xml version="1.0" encoding="UTF-8"?>
<svg id="Outline" xmlns="http://www.w3.org/2000/svg" version="1.1" viewBox="0 0 64 64">
  <!-- Generator: Adobe Illustrator 29.5.1, SVG Export Plug-In . SVG Version: 2.1.0 Build 141)  -->
  <path d="M9,32.063v-.103c0-1.271.104-2.545.31-3.785.091-.544-.278-1.06-.823-1.149-.547-.097-1.06.277-1.149.823-.224,1.348-.337,2.73-.337,4.111v.103c0,.553.447,1,1,1s1-.447,1-1Z"/>
  <path d="M53.745,24.449c.176.509.764.794,1.272.619.514-.178.797-.755.619-1.271-.448-1.298-1.009-2.567-1.666-3.774-.263-.484-.87-.665-1.356-.399-.484.264-.664.871-.399,1.356.603,1.109,1.119,2.277,1.531,3.47Z"/>
  <path d="M13.054,18.219c.297-.001.595-.128.79-.378.777-.998,1.643-1.938,2.57-2.794.406-.375.432-1.008.058-1.413-.375-.407-1.008-.431-1.413-.058-1.009.931-1.948,1.951-2.793,3.036-.492.632-.013,1.61.788,1.607Z"/>
  <path d="M8.969,25.117c.514.173,1.095-.11,1.27-.622.409-1.194.923-2.364,1.526-3.478.263-.486.082-1.093-.403-1.356-.484-.261-1.093-.082-1.355.403-.656,1.211-1.214,2.483-1.66,3.782-.179.522.1,1.091.622,1.271Z"/>
  <path d="M33.875,9.036c1.261.101,2.52.309,3.745.616.509.128,1.078-.187,1.214-.726.135-.536-.19-1.079-.726-1.214-1.332-.335-2.703-.561-4.073-.671-.558-.04-1.033.367-1.077.917-.044.551.366,1.032.917,1.077Z"/>
  <path d="M41.213,10.88c1.154.505,2.278,1.113,3.342,1.807.439.286,1.083.169,1.384-.292.302-.462.171-1.082-.292-1.384-1.154-.753-2.377-1.413-3.631-1.963-.509-.225-1.097.009-1.317.515-.222.506.009,1.096.515,1.317Z"/>
  <path d="M26.085,9.695c.081,0,.164-.01.246-.03,1.221-.31,2.48-.52,3.745-.625.551-.045.959-.528.913-1.079-.045-.551-.522-.974-1.079-.913-1.374.114-2.743.343-4.069.678-1.097.277-.906,1.97.244,1.97Z"/>
  <path d="M50.128,17.806c.326.417.966.513,1.404.172.435-.34.512-.969.172-1.404-.846-1.081-1.787-2.101-2.799-3.03-.406-.373-1.038-.349-1.413.06-.374.407-.347,1.039.06,1.413.932.856,1.799,1.795,2.576,2.79Z"/>
  <path d="M18.861,12.875c.188,0,.378-.053.548-.164,1.06-.694,2.182-1.304,3.334-1.812.506-.222.735-.812.513-1.317-.222-.505-.81-.736-1.317-.513-1.254.551-2.475,1.214-3.627,1.97-.461.303-.59.923-.287,1.385.191.292.511.451.837.451Z"/>
  <path d="M10.271,39.519c-.415-1.195-.732-2.432-.943-3.675-.092-.545-.606-.901-1.153-.819-.545.093-.911.609-.819,1.153.23,1.354.575,2.698,1.027,3.997.144.413.53.672.944.672.108,0,.22-.018.328-.056.521-.181.798-.751.616-1.272Z"/>
  <path d="M53.613,42.455c-.487-.264-1.093-.08-1.354.405-.601,1.113-1.298,2.185-2.072,3.183-.339.436-.26,1.064.177,1.403.423.328,1.077.244,1.404-.177.843-1.086,1.601-2.25,2.252-3.46.263-.486.081-1.093-.405-1.354Z"/>
  <path d="M47.621,48.842c-.929.86-1.935,1.649-2.989,2.344-.462.304-.589.924-.285,1.385.286.434.927.587,1.385.285,1.146-.755,2.239-1.611,3.248-2.545.406-.376.431-1.008.056-1.414-.377-.406-1.01-.43-1.414-.055Z"/>
  <path d="M56.654,27.796c-.092-.545-.601-.908-1.152-.82-.544.092-.912.607-.82,1.152.209,1.239.315,2.513.318,3.783,0,.552.448.998,1,.998h.002c.553,0,.999-.45.998-1.002-.003-1.38-.119-2.764-.346-4.111Z"/>
  <path d="M55.846,34.872c-.547-.089-1.06.281-1.148.826-.203,1.247-.513,2.486-.92,3.682-.178.523.103,1.092.625,1.27.516.173,1.093-.107,1.269-.625.441-1.301.778-2.647,1-4.004.089-.545-.281-1.059-.826-1.148Z"/>
  <path d="M41.302,53.003c-1.155.512-2.361.93-3.585,1.242-.535.137-.858.681-.722,1.216.134.526.691.858,1.216.722,1.331-.34,2.644-.794,3.901-1.352.505-.224.732-.814.509-1.319-.223-.504-.812-.734-1.319-.509Z"/>
  <path d="M19.487,51.262c-1.059-.687-2.069-1.469-3.005-2.324-.408-.371-1.041-.345-1.413.063s-.344,1.04.063,1.413c1.017.929,2.115,1.778,3.265,2.525.437.284,1.084.168,1.384-.294.301-.464.169-1.083-.294-1.384Z"/>
  <path d="M33.973,54.878c-1.246.104-2.525.109-3.8.012-.548-.04-1.031.369-1.074.92s.369,1.031.92,1.074c.66.051,1.326.077,1.981.077.715,0,1.436-.03,2.143-.091.55-.047.958-.53.911-1.081s-.521-.97-1.081-.911Z"/>
  <path d="M11.809,42.985c-.265-.485-.871-.665-1.356-.397-.485.265-.663.872-.397,1.356.658,1.204,1.423,2.363,2.272,3.444.197.252.49.383.787.383.216,0,.434-.069.616-.214.435-.341.511-.97.169-1.403-.781-.996-1.484-2.062-2.091-3.169Z"/>
  <path d="M26.427,54.281c-1.227-.305-2.437-.716-3.595-1.221-.506-.221-1.096.013-1.316.518-.221.506.011,1.096.518,1.316,1.26.549,2.576.996,3.911,1.328.531.128,1.079-.197,1.212-.729.133-.536-.193-1.078-.729-1.212Z"/>
  <path d="M32,52.961c11.579,0,21-9.421,21-21s-9.421-21-21-21S11,20.382,11,31.961s9.421,21,21,21ZM32,12.961c10.477,0,19,8.523,19,19s-8.523,19-19,19-19-8.523-19-19S21.523,12.961,32,12.961Z"/>
  <path d="M24.951,46.951c.993.665,2.103,1.007,3.175,1.007.623,0,1.232-.115,1.801-.35.382-.158.743-.364,1.075-.614.375-.282.709-.606.997-.966.543.669,1.249,1.188,2.096,1.534,1.585.646,3.458.403,5.014-.651,3.689-2.497,5.892-6.71,5.892-11.27,0-7.217-11.797-18.899-12.299-19.394-.389-.383-1.014-.383-1.402,0-.502.494-12.299,12.177-12.299,19.394,0,4.589,2.225,8.817,5.951,11.31ZM32,18.38c3.622,3.716,11,12.312,11,17.262,0,3.896-1.874,7.489-5.013,9.613-1.003.679-2.175.849-3.137.456-.902-.368-1.519-1.034-1.851-1.964v-.372l6.707-6.707c.391-.391.391-1.023,0-1.414s-1.023-.391-1.414,0l-5.293,5.293v-3.172l4.707-4.707c.391-.391.391-1.023,0-1.414s-1.023-.391-1.414,0l-3.293,3.293v-3.172l2.707-2.707c.391-.391.391-1.023,0-1.414s-1.023-.391-1.414,0l-1.293,1.293v-4.586c0-.553-.447-1-1-1s-1,.447-1,1v4.586l-1.293-1.293c-.391-.391-1.023-.391-1.414,0s-.391,1.023,0,1.414l2.707,2.707v3.172l-3.293-3.293c-.391-.391-1.023-.391-1.414,0s-.391,1.023,0,1.414l4.707,4.707v3.172l-5.293-5.293c-.391-.391-1.023-.391-1.414,0s-.391,1.023,0,1.414l6.707,6.707v.38c-.236.654-.644,1.222-1.201,1.641-.199.15-.408.27-.637.364-.927.381-2.086.206-3.099-.472-3.171-2.121-5.063-5.728-5.063-9.647,0-4.95,7.378-13.546,11-17.262Z"/>
</svg>