<?xml version="1.0" encoding="UTF-8"?>
<svg id="Outline" xmlns="http://www.w3.org/2000/svg" version="1.1" viewBox="0 0 64 64">
  <!-- Generator: Adobe Illustrator 29.5.1, SVG Export Plug-In . SVG Version: 2.1.0 Build 141)  -->
  <path d="M34.445,48.168l-2.058,1.372-.493-.987c-.248-.494-.849-.694-1.342-.447l-2.553,1.276v-1.382c0-.321-.154-.623-.415-.811-.263-.189-.598-.239-.901-.138-2.175.725-3.906,2.457-4.632,4.632-.175.524.108,1.09.632,1.265.521.171,1.09-.11,1.265-.632.371-1.111,1.102-2.062,2.052-2.713v1.396c0,.347.18.668.475.851.294.182.662.198.973.044l3.105-1.553.553,1.105c.128.256.36.446.638.519.278.075.572.025.812-.134l3-2c.46-.306.584-.927.277-1.387-.307-.46-.926-.585-1.387-.277Z"/>
  <path d="M50,11h-1v-1c0-1.61-1.28-2.92-2.87-2.99h-.06c-.02,0-.05-.01-.07-.01H15c-.13,0-.26.03-.37.07-2.06.36-3.63,2.14-3.63,4.3v38.63c0,1.65,1.35,3,3,3h1v.53c0,.95.39,1.82,1.02,2.45s1.5,1.02,2.45,1.02h31.06c.95,0,1.82-.39,2.45-1.02s1.02-1.5,1.02-2.45V14c0-1.65-1.35-3-3-3ZM46.09,9.02c.51.05.91.46.91.98v1h-7.35l6.44-1.98ZM39.35,9l-18.64,5.73-1.1-4.42c-.12-.48-.32-.92-.57-1.31h20.31ZM51,50.38l-1.83-.92,1.83-7.34v8.26ZM51,33.88l-3.97,15.88c-.11.45.1.93.52,1.13l2.64,1.32c.5.25.81.76.81,1.32,0,.81-.66,1.47-1.47,1.47h-31.06c-.81,0-1.47-.66-1.47-1.47,0-.56.31-1.07.81-1.32l2.64-1.32c.42-.2.63-.68.52-1.13l-3.97-15.88v-6.88c0-.55-.45-1-1-1s-1,.45-1,1v24h-1c-.55,0-1-.45-1-1V11.37c0-1.31,1.06-2.37,2.37-2.37,1.09,0,2.03.74,2.3,1.79l.06.24c-1.53.14-2.73,1.41-2.73,2.97v5c0,.55.45,1,1,1s1-.45,1-1v-5c0-.55.45-1,1-1h.22l.81,3.24c.111.445.514.76.97.76.1,0,.2-.01.29-.04l12.86-3.96h16.85c.55,0,1,.45,1,1v19.88ZM17,50.38v-8.26l1.83,7.34-1.83.92Z"/>
  <path d="M33,31h-8c-.553,0-1,.448-1,1s.447,1,1,1h8c.553,0,1-.448,1-1s-.447-1-1-1Z"/>
  <path d="M44,19h-8c-.553,0-1,.448-1,1s.447,1,1,1h8c.553,0,1-.448,1-1s-.447-1-1-1Z"/>
  <path d="M44,23h-8c-.553,0-1,.448-1,1s.447,1,1,1h8c.553,0,1-.448,1-1s-.447-1-1-1Z"/>
  <path d="M49,26v-8c0-1.654-1.346-3-3-3h-12c-1.654,0-3,1.346-3,3v5h-8c-1.654,0-3,1.346-3,3v8c0,1.654,1.346,3,3,3,0,0,0,1,0,1,0,.548.456,1,1,1,.106,0,.213-.017.316-.051l5.846-1.949h4.838c1.654,0,3-1.346,3-3v-5h.838l5.846,1.949c.103.034.21.051.316.051.54,0,1.001-.465,1.001-1v-1c1.654,0,3-1.346,3-3ZM36,34c0,.551-.448,1-1,1h-5c-.107,0-.214.017-.316.051l-4.684,1.562v-.613c0-.552-.447-1-1-1h-1c-.552,0-1-.449-1-1v-8c0-.551.448-1,1-1h8v1c0,.352.072.686.184,1h-6.184c-.553,0-1,.448-1,1s.447,1,1,1h8c.127,0,.247-.029.359-.073.207.045.42.073.641.073h2v5ZM47,26c0,.551-.448,1-1,1h-1c-.553,0-1,.448-1,1v.613l-4.684-1.562c-.103-.034-.209-.051-.316-.051h-5c-.552,0-1-.449-1-1v-8c0-.551.448-1,1-1h12c.552,0,1,.449,1,1v8Z"/>
  <circle cx="16" cy="23" r="1"/>
</svg>