<?xml version="1.0" encoding="UTF-8"?>
<svg id="Outline" xmlns="http://www.w3.org/2000/svg" version="1.1" viewBox="0 0 64 64">
  <!-- Generator: Adobe Illustrator 29.5.1, SVG Export Plug-In . SVG Version: 2.1.0 Build 141)  -->
  <path d="M18,39c-1.654,0-3,1.346-3,3v4c0,1.654,1.346,3,3,3s3-1.346,3-3v-4c0-1.654-1.346-3-3-3ZM19,46c0,.552-.449,1-1,1s-1-.448-1-1v-4c0-.552.449-1,1-1s1,.448,1,1v4Z"/>
  <path d="M26,39c-1.654,0-3,1.346-3,3v4c0,1.654,1.346,3,3,3s3-1.346,3-3v-4c0-1.654-1.346-3-3-3ZM27,46c0,.552-.449,1-1,1s-1-.448-1-1v-4c0-.552.449-1,1-1s1,.448,1,1v4Z"/>
  <path d="M46,39c-1.654,0-3,1.346-3,3v4c0,1.654,1.346,3,3,3s3-1.346,3-3v-4c0-1.654-1.346-3-3-3ZM47,46c0,.552-.449,1-1,1s-1-.448-1-1v-4c0-.552.449-1,1-1s1,.448,1,1v4Z"/>
  <path d="M38,39c-1.654,0-3,1.346-3,3v4c0,1.654,1.346,3,3,3s3-1.346,3-3v-4c0-1.654-1.346-3-3-3ZM39,46c0,.552-.449,1-1,1s-1-.448-1-1v-4c0-.552.449-1,1-1s1,.448,1,1v4Z"/>
  <circle cx="32" cy="42" r="1"/>
  <circle cx="32" cy="47" r="1"/>
  <path d="M11,36v16c0,.553.448,1,1,1h40c.552,0,1-.447,1-1v-16c0-.553-.448-1-1-1H12c-.552,0-1,.447-1,1ZM13,37h38v14H13v-14Z"/>
  <path d="M54,31H21c-.552,0-1,.447-1,1s.448,1,1,1h33c.551,0,1,.448,1,1v20c0,.552-.449,1-1,1H10c-.551,0-1-.448-1-1v-20c0-.552.449-1,1-1h3c.552,0,1-.447,1-1s-.448-1-1-1h-3c-1.654,0-3,1.346-3,3v20c0,1.654,1.346,3,3,3h44c1.654,0,3-1.346,3-3v-20c0-1.654-1.346-3-3-3Z"/>
  <path d="M21,17c.552,0,1-.447,1-1v-3.764l2.105,4.211c.172.345.522.553.894.553.545,0,1-.454,1-1v-8c0-.553-.448-1-1-1s-1,.447-1,1v3.764l-2.105-4.211c-.208-.415-.669-.628-1.125-.526-.451.107-.77.51-.77.974v8c0,.553.448,1,1,1Z"/>
  <path d="M29,17h4c.552,0,1-.447,1-1s-.448-1-1-1h-3v-2h3c.552,0,1-.447,1-1s-.448-1-1-1h-3v-2h3c.552,0,1-.447,1-1s-.448-1-1-1h-4c-.552,0-1,.447-1,1v8c0,.553.448,1,1,1Z"/>
  <path d="M17.105,20.447l1.895,3.789v3.764c0,.553.448,1,1,1s1-.447,1-1v-3.764l1.895-3.789c.247-.494.047-1.095-.447-1.342-.495-.247-1.095-.047-1.342.447l-1.105,2.211-1.105-2.211c-.247-.494-.847-.694-1.342-.447-.494.247-.694.848-.447,1.342Z"/>
  <path d="M30,21c.552,0,1-.447,1-1s-.448-1-1-1h-4c-.552,0-1,.447-1,1v8c0,.553.448,1,1,1h4c.552,0,1-.447,1-1s-.448-1-1-1h-3v-2h3c.552,0,1-.447,1-1s-.448-1-1-1h-3v-2h3Z"/>
  <path d="M33,22v6c0,.553.448,1,1,1s1-.447,1-1v-2h2v2c0,.553.448,1,1,1s1-.447,1-1v-6c0-1.654-1.346-3-3-3s-3,1.346-3,3ZM36,21c.551,0,1,.448,1,1v2h-2v-2c0-.552.449-1,1-1Z"/>
  <path d="M46.71,27.29l-2.33-2.33c1.47-.19,2.62-1.43,2.62-2.96,0-1.65-1.35-3-3-3h-2c-.55,0-1,.45-1,1v8c0,.55.45,1,1,1s1-.45,1-1v-1.59s2.29,2.29,2.29,2.3c.36.36,1.03.38,1.42,0,.39-.39.39-1.03,0-1.42ZM43,23v-2h1c.55,0,1,.45,1,1s-.45,1-1,1h-1Z"/>
  <path d="M37.831,16.985c.433.076.866-.144,1.063-.538l1.105-2.211,1.105,2.211c.171.343.521.553.894.553.056,0,.113-.005.169-.015.434-.074.769-.424.823-.861l1-8c.068-.548-.32-1.048-.868-1.116-.544-.063-1.048.32-1.116.868l-.59,4.723-.523-1.046c-.339-.678-1.45-.678-1.789,0l-.523,1.046-.59-4.723c-.068-.548-.572-.932-1.116-.868-.548.068-.937.568-.868,1.116l1,8c.055.438.389.787.823.861Z"/>
  <path d="M52.083,11c.552,0,1-.447,1-1v-2c0-.553-.448-1-1-1s-1,.447-1,1v2c0,.553.448,1,1,1Z"/>
  <path d="M48.167,13h1.958c.552,0,1-.447,1-1s-.448-1-1-1h-1.958c-.552,0-1,.447-1,1s.448,1,1,1Z"/>
  <path d="M52.083,13c-.552,0-1,.447-1,1v2c0,.553.448,1,1,1s1-.447,1-1v-2c0-.553-.448-1-1-1Z"/>
  <path d="M54.042,13h1.958c.552,0,1-.447,1-1s-.448-1-1-1h-1.958c-.552,0-1,.447-1,1s.448,1,1,1Z"/>
  <path d="M12.917,11c.552,0,1-.447,1-1v-2c0-.553-.448-1-1-1s-1,.447-1,1v2c0,.553.448,1,1,1Z"/>
  <path d="M14.875,13h1.958c.552,0,1-.447,1-1s-.448-1-1-1h-1.958c-.552,0-1,.447-1,1s.448,1,1,1Z"/>
  <path d="M12.917,13c-.552,0-1,.447-1,1v2c0,.553.448,1,1,1s1-.447,1-1v-2c0-.553-.448-1-1-1Z"/>
  <path d="M9,13h1.958c.552,0,1-.447,1-1s-.448-1-1-1h-1.958c-.552,0-1,.447-1,1s.448,1,1,1Z"/>
  <circle cx="17" cy="32" r="1"/>
</svg>