<?xml version="1.0" encoding="UTF-8"?>
<svg id="Outline" xmlns="http://www.w3.org/2000/svg" version="1.1" viewBox="0 0 48 48">
  <!-- Generator: Adobe Illustrator 29.5.1, SVG Export Plug-In . SVG Version: 2.1.0 Build 141)  -->
  <path d="M29.975,34h-8c-.552,0-1,.447-1,1s.448,1,1,1h8c.552,0,1-.447,1-1s-.448-1-1-1Z"/>
  <path d="M29.975,30H13.975c-.552,0-1,.447-1,1s.448,1,1,1h16c.552,0,1-.447,1-1s-.448-1-1-1Z"/>
  <path d="M29.975,26H13.975c-.552,0-1,.447-1,1s.448,1,1,1h16c.552,0,1-.447,1-1s-.448-1-1-1Z"/>
  <path d="M40.655,14.84v-2.19c1.4-.63,2.37-2.02,2.37-3.65,0-2.21-1.79-4-4-4-.94,0-1.79.34-2.47.88-1.09-.57-2.29-.88-3.53-.88-4.21,0-7.63,3.42-7.63,7.63v2.21c0,1.5-.31,2.95-.91,4.31-.01.02-.02.04-.04.05-.96-.12-1.93-.2-2.89-.2-9.14,0-16.58,5.38-16.58,12,0,0,0,11,0,11,0,.87,1.09,1.33,1.71.71l3.19-3.19c3.1,2.22,7.3,3.48,11.68,3.48,9.15,0,16.59-5.38,16.59-12,0-2.2-.84-4.34-2.38-6.19,3.44-.48,6.32-1.88,6.32-4.13,0-.56-.19-1.06-.51-1.51-.61-1.39-.92-2.84-.92-4.33ZM27.395,14.84v-2.21c0-3.1,2.53-5.63,5.63-5.63.8,0,1.58.17,2.3.5-.19.46-.3.97-.3,1.5,0,2.08,1.6,3.77,3.63,3.96v1.88c0,.84.09,1.68.26,2.5-1.66-.64-3.78-.97-5.89-.97s-4.22.33-5.88.97c.16-.82.25-1.65.25-2.5ZM36.145,31c0,5.51-6.55,10-14.59,10-4.28,0-8.34-1.31-11.14-3.58-.4-.33-.97-.3-1.34.06l-2.1,2.11v-8.59c0-5.51,6.54-10,14.58-10,.82,0,1.65.07,2.47.16.48,2.52,4.77,3.84,9,3.84h.16c1.93,1.75,2.96,3.81,2.96,6ZM33.025,23c-4.56,0-7.05-1.53-7.05-2.32,0-.1.05-.22.13-.34.29-.41,1.03-.9,2.19-1.29,1.16-.39,2.75-.68,4.73-.68,4.57,0,7.06,1.53,7.06,2.31,0,.79-2.49,2.32-7.06,2.32ZM39.025,11c-1.1,0-2-.9-2-2s.9-2,2-2c1.11,0,2,.9,2,2s-.89,2-2,2Z"/>
</svg>