<?xml version="1.0" encoding="UTF-8"?>
<svg id="Outline" xmlns="http://www.w3.org/2000/svg" version="1.1" viewBox="0 0 64 64">
  <!-- Generator: Adobe Illustrator 29.5.1, SVG Export Plug-In . SVG Version: 2.1.0 Build 141)  -->
  <path d="M51,24c-1.1,0-2-.9-2-2,0-.55-.45-1-1-1h-6.49c.32-1.25.49-2.61.49-4,0-5.61-2.64-10-6-10-3.02,0-5.43,3.44-5.91,8.26-2.62.75-4.62,2.99-5.02,5.74h-9.07c-.55,0-1,.45-1,1,0,1.1-.9,2-2,2-.55,0-1,.45-1,1v28c0,.55.45,1,1,1,1.1,0,2,.9,2,2,0,.55.45,1,1,1h32c.55,0,1-.45,1-1,0-1.1.9-2,2-2,.55,0,1-.45,1-1v-28c0-.55-.45-1-1-1ZM36,9c1.89,0,4,3.29,4,8,0,1.42-.2,2.78-.57,4h-.5c-.48-3.34-3.33-5.92-6.79-5.99.46-3.4,2.08-6.01,3.86-6.01ZM32,21c.55,0,1,.45,1,1s-.45,1-1,1-1-.45-1-1,.45-1,1-1ZM50,52.13c-1.4.36-2.51,1.47-2.87,2.87h-30.26c-.36-1.4-1.47-2.51-2.87-2.87v-26.26c1.4-.36,2.51-1.47,2.87-2.87h9.13c.55,0,1-.45,1-1,0-2.05,1.25-3.82,3.02-4.59.02.75.09,1.48.2,2.19-.74.55-1.22,1.41-1.22,2.4,0,1.65,1.35,3,3,3s3-1.35,3-3c0-1.6-1.27-2.9-2.85-2.98-.09-.66-.15-1.33-.15-2.02,2.76,0,5,2.24,5,5,0,.55.45,1,1,1h9.13c.36,1.4,1.47,2.51,2.87,2.87v26.26Z"/>
  <path d="M47,26h-30c-.552,0-1,.447-1,1v24c0,.553.448,1,1,1h30c.552,0,1-.447,1-1v-24c0-.553-.448-1-1-1ZM46,28v2h-28v-2h28ZM46,46h-28v-14h28v14ZM18,50v-2h28v2h-28Z"/>
  <path d="M21,44c.552,0,1-.447,1-1v-3.764l2.105,4.211c.172.345.522.553.894.553.545,0,1-.455,1-1v-8c0-.553-.448-1-1-1s-1,.447-1,1v3.764l-2.105-4.211c-.208-.415-.669-.63-1.125-.526-.451.107-.77.51-.77.974v8c0,.553.448,1,1,1Z"/>
  <path d="M29,44h4c.552,0,1-.447,1-1s-.448-1-1-1h-3v-2h3c.552,0,1-.447,1-1s-.448-1-1-1h-3v-2h3c.552,0,1-.447,1-1s-.448-1-1-1h-4c-.552,0-1,.447-1,1v8c0,.553.448,1,1,1Z"/>
  <path d="M37.77,43.974c.408.094.831-.071,1.062-.419l1.168-1.752,1.168,1.752c.188.282.502.445.832.445.499,0,.931-.382.992-.876l1-8c.068-.548-.32-1.048-.868-1.116-.544-.066-1.048.319-1.116.868l-.667,5.333-.509-.764c-.371-.557-1.293-.557-1.664,0l-.509.764-.667-5.333c-.068-.549-.572-.935-1.116-.868-.548.068-.937.568-.868,1.116l1,8c.052.415.356.753.762.85Z"/>
</svg>