<?xml version="1.0" encoding="UTF-8"?>
<svg id="Outline" xmlns="http://www.w3.org/2000/svg" version="1.1" viewBox="0 0 64 64">
  <!-- Generator: Adobe Illustrator 29.3.1, SVG Export Plug-In . SVG Version: 2.1.0 Build 151)  -->
  <path d="M54,29h-5V10c0-1.6543-1.3457-3-3-3h-28c-1.6543,0-3,1.3457-3,3v19h-5c-1.6543,0-3,1.3457-3,3v22c0,1.6543,1.3457,3,3,3h44c1.6543,0,3-1.3457,3-3v-22c0-1.6543-1.3457-3-3-3ZM55,32v22c0,.04871-.021.09052-.02777.13739l-17.13727-11.13739,17.13727-11.13739c.00677.04688.02777.08868.02777.13739ZM9,54v-22c0-.04871.021-.09052.02777-.13739l17.13727,11.13739-17.13727,11.13739c-.00677-.04688-.02777-.08868-.02777-.13739ZM28.29633,44h7.40735l16.92462,11H11.3717l16.92462-11ZM52.6283,31l-3.6283,2.35815v-2.35815h3.6283ZM17,10c0-.55176.44873-1,1-1h28c.55127,0,1,.44824,1,1v24.65808l-11.29633,7.34192h-7.40735l-11.29633-7.34192V10ZM15,33.35815l-3.6283-2.35815h3.6283v2.35815Z"/>
  <path d="M34,47h-4c-1.6543,0-3,1.3457-3,3s1.3457,3,3,3h4c1.6543,0,3-1.3457,3-3s-1.3457-3-3-3ZM34,51h-4c-.55127,0-1-.44824-1-1s.44873-1,1-1h4c.55127,0,1,.44824,1,1s-.44873,1-1,1Z"/>
  <path d="M33,26c-.15527,0-.30859.03613-.44727.10547l-9.83984,4.91992c-.49365.24707-.69385.84668-.44775,1.34082,2.04004,4.0918,6.15332,6.63379,10.73486,6.63379,6.6167,0,12-5.38281,12-12,0-.55273-.44775-1-1-1h-11ZM33,37c-3.48096,0-6.6377-1.75977-8.45557-4.6543l8.69141-4.3457h9.71436c-.50342,5.0459-4.77393,9-9.9502,9Z"/>
  <path d="M22.16113,28.91992c.1499,0,.30273-.03418.44629-.10547l9.62842-4.81445h10.76416c.55225,0,1-.44727,1-1,0-6.61719-5.3833-12-12-12s-12,5.38281-12,12c0,1.88281.42578,3.68848,1.26562,5.36719.17529.35059.52832.55273.89551.55273ZM41.9502,22h-8.9502v-8.94849c4.71674.47083,8.47961,4.23175,8.9502,8.94849ZM31,13.05072v9.33112l-8.34863,4.1748c-.43262-1.13281-.65137-2.3252-.65137-3.55664,0-5.17615,3.95367-9.44574,9-9.94928Z"/>
</svg>