<?xml version="1.0" encoding="UTF-8"?>
<svg id="Outline" xmlns="http://www.w3.org/2000/svg" version="1.1" viewBox="0 0 64 64">
  <!-- Generator: Adobe Illustrator 29.5.1, SVG Export Plug-In . SVG Version: 2.1.0 Build 141)  -->
  <path d="M31.889,19c1.654,0,3-1.346,3-3s-1.346-3-3-3-3,1.346-3,3,1.346,3,3,3ZM31.889,15c.551,0,1,.448,1,1s-.449,1-1,1-1-.448-1-1,.449-1,1-1Z"/>
  <path d="M31.889,11c.552,0,1-.447,1-1v-2c0-.553-.448-1-1-1s-1,.447-1,1v2c0,.553.448,1,1,1Z"/>
  <path d="M26.939,12.465c.362.363,1.031.384,1.415,0,.391-.39.391-1.023,0-1.414l-1.414-1.415c-.391-.391-1.024-.391-1.415,0-.391.39-.391,1.023,0,1.414,0,0,1.411,1.412,1.414,1.415Z"/>
  <path d="M23.889,17h2c.552,0,1-.447,1-1s-.448-1-1-1h-2c-.552,0-1,.447-1,1s.448,1,1,1Z"/>
  <path d="M26.939,19.535l-1.414,1.415c-.39.391-.39,1.024,0,1.414.368.368,1.027.388,1.415,0l1.414-1.415c.39-.391.39-1.024,0-1.414-.391-.391-1.024-.391-1.415,0Z"/>
  <path d="M36.132,12.758c.256,0,.512-.098.708-.293l1.414-1.415c.39-.391.39-1.024,0-1.414-.391-.391-1.024-.391-1.415,0l-1.414,1.415c-.614.615-.159,1.707.708,1.707Z"/>
  <path d="M36.889,16c0,.553.448,1,1,1h2c.552,0,1-.447,1-1s-.448-1-1-1h-2c-.552,0-1,.447-1,1Z"/>
  <path d="M36.838,22.364c.195.195.451.293.707.293.874,0,1.322-1.092.708-1.707l-1.414-1.415c-.391-.391-1.024-.391-1.415,0-.391.39-.391,1.023,0,1.414l1.414,1.415Z"/>
  <path d="M49.889,30h-1c0-1.654-1.346-3-3-3h-8c-1.654,0-3,1.346-3,3h-2v-8c0-.553-.448-1-1-1s-1,.447-1,1v8h-1.778c0-1.654-1.346-3-3-3h-8c-1.654,0-3,1.346-3,3h-1c-.552,0-1,.447-1,1s.448,1,1,1h1c0,1.654,1.346,3,3,3h8c1.654,0,3-1.346,3-3h1.778v14h-1.778c0-1.654-1.346-3-3-3h-8c-1.654,0-3,1.346-3,3h-1c-.552,0-1,.447-1,1s.448,1,1,1h1c0,1.654,1.346,3,3,3h8c1.654,0,3-1.346,3-3h1.778v8c0,.553.448,1,1,1s1-.447,1-1v-8h2c0,1.654,1.346,3,3,3h8c1.654,0,3-1.346,3-3h1c.552,0,1-.447,1-1s-.448-1-1-1h-1c0-1.654-1.346-3-3-3h-8c-1.654,0-3,1.346-3,3h-2v-14h2c0,1.654,1.346,3,3,3h8c1.654,0,3-1.346,3-3h1c.552,0,1-.447,1-1s-.448-1-1-1ZM27.111,32c0,.552-.449,1-1,1h-8c-.551,0-1-.448-1-1v-2c0-.552.449-1,1-1h8c.551,0,1,.448,1,1v2ZM27.111,48c0,.552-.449,1-1,1h-8c-.551,0-1-.448-1-1v-2c0-.552.449-1,1-1h8c.551,0,1,.448,1,1v2ZM36.889,46c0-.552.449-1,1-1h8c.551,0,1,.448,1,1v2c0,.552-.449,1-1,1h-8c-.551,0-1-.448-1-1v-2ZM46.889,32c0,.552-.449,1-1,1h-8c-.551,0-1-.448-1-1v-2c0-.552.449-1,1-1h8c.551,0,1,.448,1,1v2Z"/>
  <path d="M52.889,31c0,.553.448,1,1,1h2c.552,0,1-.447,1-1s-.448-1-1-1h-2c-.552,0-1,.447-1,1Z"/>
  <path d="M52.718,29.172c.256,0,.512-.098.707-.293l1.414-1.414c.391-.391.391-1.023,0-1.414s-1.023-.391-1.414,0l-1.414,1.414c-.615.615-.16,1.707.707,1.707Z"/>
  <path d="M49.889,24c-.552,0-1,.447-1,1v2c0,.553.448,1,1,1s1-.447,1-1v-2c0-.553-.448-1-1-1Z"/>
  <path d="M53.425,35.949c.369.369,1.026.388,1.414,0,.391-.391.391-1.023,0-1.414l-1.414-1.414c-.391-.391-1.023-.391-1.414,0s-.391,1.023,0,1.414c0,0,1.408,1.408,1.414,1.414Z"/>
  <path d="M49.889,34c-.552,0-1,.447-1,1v2c0,.553.448,1,1,1s1-.447,1-1v-2c0-.553-.448-1-1-1Z"/>
  <path d="M55.889,46h-2c-.552,0-1,.447-1,1s.448,1,1,1h2c.552,0,1-.447,1-1s-.448-1-1-1Z"/>
  <path d="M52.718,45.166c.255,0,.513-.092.707-.287l1.414-1.414c.391-.391.391-1.023,0-1.414s-1.023-.391-1.414,0l-1.414,1.414c-.607.607-.146,1.699.707,1.701Z"/>
  <path d="M49.889,40c-.552,0-1,.447-1,1v2c0,.553.448,1,1,1s1-.447,1-1v-2c0-.553-.448-1-1-1Z"/>
  <path d="M53.425,49.121c-.391-.391-1.023-.391-1.414,0s-.391,1.023,0,1.414l1.414,1.414c.363.363,1.03.384,1.414,0,.391-.391.391-1.023,0-1.414l-1.414-1.414Z"/>
  <path d="M49.889,50c-.552,0-1,.447-1,1v2c0,.553.448,1,1,1s1-.447,1-1v-2c0-.553-.448-1-1-1Z"/>
  <path d="M8.111,32h2c.552,0,1-.447,1-1s-.448-1-1-1h-2c-.552,0-1,.447-1,1s.448,1,1,1Z"/>
  <path d="M10.575,26.051c-.391-.391-1.023-.391-1.414,0s-.391,1.023,0,1.414c0,0,1.414,1.414,1.414,1.414.387.387,1.027.387,1.414,0,.391-.391.391-1.023,0-1.414l-1.414-1.414Z"/>
  <path d="M14.111,28c.552,0,1-.447,1-1v-2c0-.553-.448-1-1-1s-1,.447-1,1v2c0,.553.448,1,1,1Z"/>
  <path d="M10.575,33.121l-1.414,1.414c-.391.391-.391,1.023,0,1.414.359.359,1.031.383,1.414,0l1.414-1.414c.391-.391.391-1.023,0-1.414s-1.023-.391-1.414,0Z"/>
  <path d="M14.111,38c.552,0,1-.447,1-1v-2c0-.553-.448-1-1-1s-1,.447-1,1v2c0,.553.448,1,1,1Z"/>
  <path d="M11.111,47c0-.553-.448-1-1-1h-2c-.552,0-1,.447-1,1s.448,1,1,1h2c.552,0,1-.447,1-1Z"/>
  <path d="M10.575,42.051c-.391-.391-1.023-.391-1.414,0s-.391,1.023,0,1.414l1.414,1.414c.372.372,1.021.393,1.414,0,.391-.391.391-1.023,0-1.414l-1.414-1.414Z"/>
  <path d="M14.111,44c.552,0,1-.447,1-1v-2c0-.553-.448-1-1-1s-1,.447-1,1v2c0,.553.448,1,1,1Z"/>
  <path d="M10.575,49.121l-1.414,1.414c-.391.391-.391,1.023,0,1.414.387.387,1.028.386,1.414,0l1.414-1.414c.391-.391.391-1.023,0-1.414s-1.023-.391-1.414,0Z"/>
  <path d="M14.111,50c-.552,0-1,.447-1,1v2c0,.553.448,1,1,1s1-.447,1-1v-2c0-.553-.448-1-1-1Z"/>
</svg>