<?xml version="1.0" encoding="UTF-8"?>
<svg id="Outline" xmlns="http://www.w3.org/2000/svg" version="1.1" viewBox="0 0 64 64">
  <!-- Generator: Adobe Illustrator 29.5.1, SVG Export Plug-In . SVG Version: 2.1.0 Build 141)  -->
  <path d="M32,23c-.553,0-1,.447-1,1v32c0,.553.447,1,1,1s1-.447,1-1V24c0-.553-.447-1-1-1Z"/>
  <path d="M20.642,29.436l1.372-.508c.339-.125.583-.424.64-.781.057-.356-.084-.717-.367-.94l-1.884-1.489-.097-2.398c-.015-.361-.223-.687-.545-.851-.323-.164-.709-.142-1.009.059l-1.998,1.332-2.312-.649c-.348-.1-.722,0-.978.256s-.354.629-.256.978l.649,2.312-1.332,1.998c-.2.301-.223.687-.059,1.009s.489.53.851.545l2.398.097,1.489,1.884c.191.242.481.38.784.38.052,0,.104-.004.156-.013.357-.057.656-.301.781-.64l.366-.987c3.325,5.262,5.398,11.254,5.992,17.457l.72,7.61c.049.519.484.906.994.906.031,0,.063,0,.095-.005.55-.052.954-.539.901-1.089l-.72-7.611c-.642-6.724-2.942-13.21-6.633-18.859ZM17.671,29.648l-.67-.847c-.181-.229-.452-.367-.744-.379l-1.078-.044.599-.898c.162-.243.21-.544.131-.825l-.292-1.039,1.039.292c.28.078.582.031.825-.131l.898-.599.044,1.078c.012.292.15.563.379.744l.847.67-1.013.375c-.273.101-.489.316-.59.59l-.375,1.013Z"/>
  <path d="M36.941,16.733c.245-.266.327-.643.216-.986-.112-.345-.4-.602-.755-.672l-2.355-.471-1.175-2.094c-.354-.631-1.391-.631-1.744,0l-1.175,2.094-2.355.471c-.354.07-.643.327-.755.672-.111.344-.029.721.216.986l1.629,1.765-.28,2.385c-.042.359.112.714.405.926.292.214.676.251,1.006.1l2.182-1.003s2.182,1.003,2.182,1.003c.33.152.713.112,1.006-.1.293-.212.447-.566.405-.926l-.28-2.385,1.629-1.765ZM33.53,17.48c-.197.214-.292.505-.258.795l.126,1.071-.98-.45c-.133-.062-.275-.092-.418-.092s-.285.03-.418.092l-.98.45.126-1.071c.034-.29-.061-.581-.258-.795l-.732-.793,1.059-.212c.286-.057.533-.236.676-.491l.528-.941.528.941c.143.255.39.435.676.491l1.059.212-.732.793Z"/>
  <path d="M32,11c.553,0,1-.447,1-1v-2c0-.553-.447-1-1-1s-1,.447-1,1v2c0,.553.447,1,1,1Z"/>
  <path d="M26.343,12.757c.37.37,1.025.39,1.414,0,.391-.391.391-1.023,0-1.414l-1.414-1.414c-.391-.391-1.023-.391-1.414,0s-.391,1.023,0,1.414l1.414,1.414Z"/>
  <path d="M23,18h2c.553,0,1-.447,1-1s-.447-1-1-1h-2c-.553,0-1,.447-1,1s.447,1,1,1Z"/>
  <path d="M26.343,21.243l-1.414,1.414c-.391.391-.391,1.023,0,1.414.387.387,1.027.387,1.414,0l1.414-1.414c.391-.391.391-1.023,0-1.414s-1.023-.391-1.414,0Z"/>
  <path d="M36.95,13.044c.255,0,.512-.092.707-.287l1.414-1.414c.391-.391.391-1.023,0-1.414s-1.023-.391-1.414,0l-1.414,1.414c-.602.602-.175,1.699.707,1.701Z"/>
  <path d="M38,17c0,.553.447,1,1,1h2c.553,0,1-.447,1-1s-.447-1-1-1h-2c-.553,0-1,.447-1,1Z"/>
  <path d="M37.657,24.071c.387.387,1.028.386,1.414,0,.391-.391.391-1.023,0-1.414l-1.414-1.414c-.391-.391-1.023-.391-1.414,0s-.391,1.023,0,1.414c0,0,1.414,1.414,1.414,1.414Z"/>
  <path d="M11.343,22.757c.373.373,1.021.393,1.414,0,.391-.391.391-1.023,0-1.414l-1.414-1.414c-.391-.391-1.023-.391-1.414,0s-.391,1.023,0,1.414l1.414,1.414Z"/>
  <path d="M11,27c0-.553-.447-1-1-1h-2c-.553,0-1,.447-1,1s.447,1,1,1h2c.553,0,1-.447,1-1Z"/>
  <path d="M11.343,31.243l-1.414,1.414c-.391.391-.391,1.023,0,1.414.366.367,1.028.386,1.414,0l1.414-1.414c.391-.391.391-1.023,0-1.414s-1.023-.391-1.414,0Z"/>
  <path d="M17,33c-.553,0-1,.447-1,1v2c0,.553.447,1,1,1s1-.447,1-1v-2c0-.553-.447-1-1-1Z"/>
  <path d="M17,21c.553,0,1-.447,1-1v-2c0-.553-.447-1-1-1s-1,.447-1,1v2c0,.553.447,1,1,1Z"/>
  <path d="M21.95,23.044c.256,0,.513-.093.707-.287l1.414-1.414c.391-.391.391-1.023,0-1.414s-1.023-.391-1.414,0l-1.414,1.414c-.62.62-.164,1.699.707,1.701Z"/>
  <path d="M23,27c0,.553.447,1,1,1h2c.553,0,1-.447,1-1s-.447-1-1-1h-2c-.553,0-1,.447-1,1Z"/>
  <path d="M51.532,29.761c.164-.322.142-.708-.059-1.009l-1.332-1.998.649-2.312c.098-.349,0-.722-.256-.978s-.629-.356-.978-.256l-2.312.649-1.998-1.332c-.301-.201-.686-.224-1.009-.059-.322.164-.53.489-.545.851l-.097,2.398-1.884,1.489c-.283.224-.424.584-.367.94.057.357.301.656.64.781l1.372.508c-3.692,5.65-5.992,12.135-6.633,18.86l-.72,7.61c-.053.55.352,1.037.901,1.089.031.004.063.005.095.005.51,0,.945-.388.994-.906l.72-7.609c.594-6.204,2.666-12.197,5.992-17.458l.366.987c.263.71,1.254.864,1.722.272l1.489-1.884,2.398-.097c.361-.015.687-.223.851-.545ZM47.743,28.423c-.292.012-.563.15-.744.379l-.67.847-.375-1.013c-.101-.273-.316-.489-.59-.59l-1.013-.375.847-.67c.229-.181.367-.452.379-.744l.044-1.078.898.599c.243.161.545.207.825.131l1.039-.292-.292,1.039c-.079.281-.031.582.131.825l.599.898-1.078.044Z"/>
  <path d="M51.95,23.045c.255,0,.512-.093.707-.288l1.414-1.414c.391-.391.391-1.023,0-1.414s-1.023-.391-1.414,0l-1.414,1.414c-.619.619-.162,1.7.707,1.702Z"/>
  <path d="M56,26h-2c-.553,0-1,.447-1,1s.447,1,1,1h2c.553,0,1-.447,1-1s-.447-1-1-1Z"/>
  <path d="M52.657,31.243c-.391-.391-1.023-.391-1.414,0s-.391,1.023,0,1.414c0,0,1.414,1.414,1.414,1.414.387.387,1.028.386,1.414,0,.391-.391.391-1.023,0-1.414l-1.414-1.414Z"/>
  <path d="M47,33c-.553,0-1,.447-1,1v2c0,.553.447,1,1,1s1-.447,1-1v-2c0-.553-.447-1-1-1Z"/>
  <path d="M47,21c.553,0,1-.447,1-1v-2c0-.553-.447-1-1-1s-1,.447-1,1v2c0,.553.447,1,1,1Z"/>
  <path d="M39.929,19.929c-.391.391-.391,1.023,0,1.414,0,0,1.414,1.414,1.414,1.414.387.387,1.027.387,1.414,0,.391-.391.391-1.023,0-1.414l-1.414-1.414c-.391-.391-1.023-.391-1.414,0Z"/>
  <path d="M38,26c-.553,0-1,.447-1,1s.447,1,1,1h2c.553,0,1-.447,1-1s-.447-1-1-1h-2Z"/>
</svg>