<?xml version="1.0" encoding="UTF-8"?>
<svg id="Outline" xmlns="http://www.w3.org/2000/svg" version="1.1" viewBox="0 0 64 64">
  <!-- Generator: Adobe Illustrator 29.5.1, SVG Export Plug-In . SVG Version: 2.1.0 Build 141)  -->
  <path d="M56,36h-6.11c1.27-1.25,2.07-2.97,2.1-4.88.76-3.17.05-6.45-1.96-9.02-2.03-2.61-5.09-4.1-8.4-4.1h-19.26c-3.31,0-6.37,1.49-8.4,4.1-2.01,2.57-2.72,5.85-1.96,9.02.03,1.83.75,3.54,2.04,4.82.02.02.04.04.06.06h-6.11c-.55,0-1,.45-1,1v4c0,.55.45,1,1,1h1v3c0,.55.45,1,1,1h27c.55,0,1-.45,1-1s-.45-1-1-1H11v-2h42v2h-8c-.55,0-1,.45-1,1s.45,1,1,1h9c.55,0,1-.45,1-1v-3h1c.55,0,1-.45,1-1v-4c0-.55-.45-1-1-1ZM37,20h4.63c2.69,0,5.17,1.21,6.82,3.33.47.59.83,1.23,1.12,1.9-3.99-1.74-8.21-2.77-12.57-3.11v-2.12ZM37,24.13c3.09.25,6.11.87,9.01,1.87h-9.01v-1.87ZM37,28h10c.8,0,1.55.31,2.12.87.57.58.88,1.33.88,2.13,0,2.76-2.24,5-5,5h-8v-8ZM29,20h6v16h-6v-16ZM15.55,23.33c1.65-2.12,4.13-3.33,6.82-3.33h4.63v2.12c-4.36.34-8.58,1.37-12.57,3.11.29-.67.65-1.31,1.12-1.9ZM27,24.13v1.87h-9.01c2.9-1,5.92-1.62,9.01-1.87ZM14,31c0-1.65,1.35-3,3-3h10v8h-8c-1.34,0-2.59-.52-3.54-1.47-.94-.94-1.46-2.19-1.46-3.53ZM55,40H9v-2h46v2Z"/>
  <circle cx="40" cy="33" r="1"/>
  <circle cx="43" cy="31" r="1"/>
  <circle cx="46" cy="33" r="1"/>
  <circle cx="24" cy="33" r="1"/>
  <circle cx="21" cy="31" r="1"/>
  <circle cx="18" cy="33" r="1"/>
  <circle cx="41" cy="45" r="1"/>
</svg>