<?xml version="1.0" encoding="UTF-8"?>
<svg id="Outline" xmlns="http://www.w3.org/2000/svg" version="1.1" viewBox="0 0 64 64">
  <!-- Generator: Adobe Illustrator 29.3.1, SVG Export Plug-In . SVG Version: 2.1.0 Build 151)  -->
  <path d="M32,7c-13.78516,0-25,11.21484-25,25s11.21484,25,25,25,25-11.21484,25-25S45.78516,7,32,7ZM32,55c-12.68213,0-23-10.31787-23-23s10.31787-23,23-23,23,10.31787,23,23-10.31787,23-23,23Z"/>
  <path d="M32,11c-11.57959,0-21,9.42041-21,21,0,9.9624,7.07471,18.61768,16.82275,20.58057.53906.10547,1.06836-.2417,1.17773-.7832.10889-.5415-.2417-1.06836-.7832-1.17773-8.81738-1.77539-15.21729-9.60596-15.21729-18.61963,0-10.47656,8.52344-19,19-19s19,8.52344,19,19c0,9.01367-6.3999,16.84424-15.21729,18.61963-.5415.10938-.89209.63623-.7832,1.17773.0957.4751.51318.80273.97949.80273.06543,0,.13184-.00635.19824-.01953,9.74805-1.96289,16.82275-10.61816,16.82275-20.58057,0-11.57959-9.42041-21-21-21Z"/>
  <path d="M22,38c0,5.51416,4.48584,10,10,10s10-4.48584,10-10c0-5.17664-3.95367-9.44592-9-9.94934v-5.97028l3.37549,2.70038c.18408.14746.40479.21924.62402.21924.29297,0,.58398-.12842.78125-.37549.34521-.43115.27539-1.06055-.15625-1.40527l-4.02405-3.21924,4.02405-3.21924c.43164-.34473.50146-.97412.15625-1.40527-.34424-.43164-.97461-.50146-1.40527-.15625l-4.37549,3.50037-4.37549-3.50037c-.43066-.34473-1.06055-.27539-1.40527.15625-.34521.43115-.27539,1.06055.15625,1.40527l4.02405,3.21924-4.02405,3.21924c-.43164.34473-.50146.97412-.15625,1.40527.19727.24707.48779.37549.78125.37549.21924,0,.43994-.07178.62402-.21924l3.37549-2.70038v5.97028c-5.04633.50342-9,4.77271-9,9.94934ZM40,38c0,4.41113-3.58887,8-8,8s-8-3.58887-8-8,3.58887-8,8-8,8,3.58887,8,8Z"/>
  <path d="M26,38c0,3.30859,2.69141,6,6,6s6-2.69141,6-6-2.69141-6-6-6-6,2.69141-6,6ZM36,38c0,2.20557-1.79443,4-4,4s-4-1.79443-4-4,1.79443-4,4-4,4,1.79443,4,4Z"/>
  <circle cx="32" cy="52" r="1"/>
</svg>