<?xml version="1.0" encoding="UTF-8"?>
<svg id="Outline" xmlns="http://www.w3.org/2000/svg" version="1.1" viewBox="0 0 64 64">
  <!-- Generator: Adobe Illustrator 29.5.1, SVG Export Plug-In . SVG Version: 2.1.0 Build 141)  -->
  <path d="M34,10h-8c-.553,0-1,.447-1,1s.447,1,1,1h8c11.579,0,21,9.421,21,21s-9.421,21-21,21-21-9.421-21-21c0-6.72,3.243-13.049,8.683-17h3.883c-6.251,3.114-10.566,9.555-10.566,17,0,10.477,8.523,19,19,19s19-8.523,19-19-8.523-19-19-19H14c-.553,0-1,.447-1,1v.132l-3.197-2.132,3.197-2.132v.132c0,.553.447,1,1,1h4c.553,0,1-.447,1-1s-.447-1-1-1h-3v-1c0-.369-.203-.708-.528-.882-.324-.174-.72-.154-1.026.05l-6,4c-.278.186-.445.498-.445.832s.167.646.445.832l6,4c.307.205.702.224,1.026.05.325-.174.528-.513.528-.882v-1h3.512c-4.747,4.334-7.512,10.502-7.512,17,0,12.683,10.317,23,23,23s23-10.317,23-23-10.317-23-23-23ZM34,18c.553,0,1-.447,1-1v-.949c3.933.23,7.505,1.797,10.275,4.261l-.668.668c-.391.391-.391,1.023,0,1.414.388.388,1.027.387,1.414,0l.668-.668c2.464,2.77,4.03,6.341,4.261,10.275h-.949c-.553,0-1,.447-1,1s.447,1,1,1h.949c-.23,3.933-1.797,7.505-4.261,10.275l-.668-.668c-.391-.391-1.023-.391-1.414,0s-.391,1.023,0,1.414l.668.668c-2.77,2.464-6.341,4.03-10.275,4.261v-.949c0-.553-.447-1-1-1s-1,.447-1,1v.949c-3.933-.23-7.505-1.797-10.275-4.261l.668-.668c.391-.391.391-1.023,0-1.414s-1.023-.391-1.414,0l-.668.668c-2.464-2.77-4.03-6.341-4.261-10.275h.949c.553,0,1-.447,1-1s-.447-1-1-1h-.949c.23-3.933,1.797-7.505,4.261-10.275l.668.668c.371.371,1.017.397,1.414,0,.391-.391.391-1.023,0-1.414l-.668-.668c2.77-2.464,6.341-4.03,10.275-4.261v.949c0,.553.447,1,1,1Z"/>
  <path d="M31,21v1c-3.859,0-7,3.141-7,7s3.141,7,7,7h6c.552,0,1,.448,1,1s-.448,1-1,1h-10c-.553,0-1,.447-1,1v4c0,.553.447,1,1,1h4v1c0,.553.447,1,1,1h4c.553,0,1-.447,1-1v-1c3.859,0,7-3.141,7-7s-3.141-7-7-7h-6c-.552,0-1-.448-1-1s.448-1,1-1h10c.553,0,1-.447,1-1v-4c0-.553-.447-1-1-1h-4v-1c0-.553-.447-1-1-1h-4c-.553,0-1,.447-1,1ZM33,23v-1h2v1c0,.553.447,1,1,1h4v2h-9c-1.654,0-3,1.346-3,3s1.346,3,3,3h6c2.757,0,5,2.243,5,5s-2.243,5-5,5h-1c-.553,0-1,.447-1,1v1h-2v-1c0-.553-.447-1-1-1h-4v-2h9c1.654,0,3-1.346,3-3s-1.346-3-3-3h-6c-2.757,0-5-2.243-5-5s2.243-5,5-5h1c.553,0,1-.447,1-1Z"/>
  <circle cx="22" cy="11" r="1"/>
</svg>