<?xml version="1.0" encoding="UTF-8"?>
<svg id="Outline" xmlns="http://www.w3.org/2000/svg" version="1.1" viewBox="0 0 48 48">
  <!-- Generator: Adobe Illustrator 29.5.1, SVG Export Plug-In . SVG Version: 2.1.0 Build 141)  -->
  <path d="M41.96,15.001h.04c.26,0,.51-.1.69-.28.2-.19.31-.45.31-.72V6.001c0-.27-.11-.53-.31-.72-.19-.19-.46-.3-.73-.28l-28,1c-.53.02-.96.46-.96,1v6c0,.54.43.98.96,1l5.04.18v2.09c-8.41.92-14,3.97-14,7.73,0,.13,0,.28.01.33.17,10.29,8.69,18.67,18.99,18.67,10.48,0,19-8.52,19-19,0-3.76-5.59-6.81-14-7.73v-1.73l12.96.46ZM41,12.961l-12-.42v-1.54h12v1.96ZM15,12.031v-1.03h4v1.17l-4-.14ZM24,24.001c2.76,0,5,2.24,5,5,0,.25-.02.49-.06.72-.67.08-1.38.14-2.09.18.09-.28.15-.58.15-.9,0-1.65-1.35-3-3-3s-3,1.35-3,3c0,.32.06.62.15.9-.71-.04-1.42-.1-2.09-.18-.04-.23-.06-.47-.06-.72,0-2.76,2.24-5,5-5ZM21,22.691v-11.69h2v11.08c-.71.1-1.38.31-2,.61ZM25,22.081v-11.08h2v11.69c-.62-.3-1.29-.51-2-.61ZM25,29.001c0,.55-.45,1-1,1s-1-.45-1-1,.45-1,1-1,1,.45,1,1ZM16,25.001c-1.65,0-3,1.35-3,3,0,.18.02.35.05.51-.74-.23-1.41-.48-2.03-.75.13-2.64,2.3-4.76,4.98-4.76,1.09,0,2.14.36,3,1v.11c-.45.46-.83.98-1.15,1.55-.51-.41-1.15-.66-1.85-.66ZM17,28.001c0,.55-.45,1-1,1s-1-.45-1-1,.45-1,1-1,1,.45,1,1ZM19,18.281v3.4c-.93-.44-1.95-.68-3-.68-3.44,0-6.3,2.49-6.88,5.77-1.36-.88-2.12-1.84-2.12-2.77,0-2.19,4.47-4.85,12-5.72ZM24,41.001c-7.89,0-14.59-5.5-16.46-12.9,3.22,2.37,9.24,3.9,16.46,3.9s13.27-1.54,16.48-3.92c-1.83,7.41-8.52,12.92-16.48,12.92ZM32,25.001c-.7,0-1.34.25-1.85.66-.32-.57-.7-1.09-1.15-1.55v-.11c.86-.64,1.91-1,3-1,2.68,0,4.85,2.12,4.98,4.76-.62.27-1.29.52-2.03.75.03-.16.05-.33.05-.51,0-1.65-1.35-3-3-3ZM33,28.001c0,.55-.45,1-1,1s-1-.45-1-1,.45-1,1-1,1,.45,1,1ZM41,24.001c0,.93-.76,1.89-2.12,2.77-.58-3.28-3.44-5.77-6.88-5.77-1.05,0-2.07.24-3,.68v-3.4c7.53.87,12,3.53,12,5.72ZM15,9.001v-1.04l26-.92v1.96H15Z"/>
</svg>