<?xml version="1.0" encoding="UTF-8"?>
<svg id="Outline" xmlns="http://www.w3.org/2000/svg" version="1.1" viewBox="0 0 64 64">
  <!-- Generator: Adobe Illustrator 29.5.1, SVG Export Plug-In . SVG Version: 2.1.0 Build 141)  -->
  <path d="M56.78,35.38l-4-5q0-.01-.01-.01c-.05-.07-.12-.11-.19-.16-.09-.07-.19-.12-.3-.15l.01-.02-10.87-3.26c-.93-1.64-1.42-3.49-1.42-5.39v-2.39c0-2.95-1.61-5.53-4-6.92v-1.08c0-2.21-1.79-4-4-4s-4,1.79-4,4v1.08c-2.39,1.39-4,3.97-4,6.92v2.39c0,1.9-.49,3.75-1.42,5.39l-10.87,3.26.01.02c-.1.03-.19.07-.28.13-.08.06-.15.11-.21.18q-.01,0-.01.01l-4,5c-.21.25-.27.6-.17.92.09.32.34.56.66.66l3.29.98v12.06c0,.44.29.83.71.96l20,6c.1.03.19.04.29.04s.19-.01.29-.04l20-6c.42-.13.71-.52.71-.96v-2c0-.55-.45-1-1-1s-1,.45-1,1v1.26l-4,1.2v-10.72l4-1.2v1.46c0,.55.45,1,1,1s1-.45,1-1v-2.06l3.29-.98c.32-.1.57-.34.66-.66.1-.32.04-.67-.17-.92ZM30,11c0-1.1.9-2,2-2s2,.9,2,2v.26c-.64-.16-1.31-.26-2-.26s-1.36.1-2,.26v-.26ZM26,21.39v-2.39c0-3.31,2.69-6,6-6s6,2.69,6,6v2.39c0,1.96.44,3.87,1.28,5.61h-14.56c.84-1.74,1.28-3.65,1.28-5.61ZM34.82,29c-.42,1.16-1.52,2-2.82,2s-2.4-.84-2.82-2h5.64ZM9.71,35.47l2.65-3.32,17.93,5.38-2.65,3.32-17.93-5.38ZM31,54.66l-18-5.4v-10.72l14.71,4.42c.1.03.19.04.29.04.3,0,.59-.13.78-.38l2.22-2.77v14.81ZM32,35.96l-16.52-4.96,7.06-2.12c.14.07.3.12.46.12h4.1c.47,2.28,2.49,4,4.9,4s4.43-1.72,4.9-4h4.1c.16,0,.32-.05.46-.12l7.06,2.12-16.52,4.96ZM37,53.46l-4,1.2v-14.81l2.22,2.77c.19.25.48.38.78.38.1,0,.19-.01.29-.04l.71-.22v10.72ZM45,51.06l-6,1.8v-10.72l6-1.8v10.72ZM36.36,40.85l-2.65-3.32,17.93-5.38,2.65,3.32-17.93,5.38Z"/>
  <circle cx="52" cy="44" r="1"/>
</svg>