<?xml version="1.0" encoding="UTF-8"?>
<svg id="Outline" xmlns="http://www.w3.org/2000/svg" version="1.1" viewBox="0 0 64 64">
  <!-- Generator: Adobe Illustrator 29.5.1, SVG Export Plug-In . SVG Version: 2.1.0 Build 141)  -->
  <path d="M20,43h-4c-.552,0-1,.447-1,1v4c0,.553.448,1,1,1h4c.552,0,1-.447,1-1v-4c0-.553-.448-1-1-1ZM19,47h-2v-2h2v2Z"/>
  <path d="M28,43h-4c-.552,0-1,.447-1,1v4c0,.553.448,1,1,1h4c.552,0,1-.447,1-1v-4c0-.553-.448-1-1-1ZM27,47h-2v-2h2v2Z"/>
  <path d="M32,43c-.552,0-1,.447-1,1v4c0,.553.448,1,1,1h4c.552,0,1-.447,1-1v-4c0-.553-.448-1-1-1h-4ZM35,47h-2v-2h2v2Z"/>
  <path d="M34,37c.369,0,.708-.203.882-.528.174-.325.155-.72-.05-1.026-1.199-1.798-1.832-3.89-1.832-6.051v-1.395c0-3.859-3.14-7-7-7s-7,3.141-7,7v1.395c0,2.161-.633,4.253-1.832,6.051-.205.307-.224.701-.05,1.026.174.325.513.528.882.528h3.101c.465,2.279,2.484,4,4.899,4s4.434-1.721,4.899-4h3.101ZM21,29.395v-1.395c0-2.757,2.243-5,5-5s5,2.243,5,5v1.395c0,1.956.438,3.864,1.279,5.605h-12.559c.841-1.741,1.279-3.649,1.279-5.605ZM26,39c-1.302,0-2.402-.839-2.816-2h5.631c-.414,1.161-1.514,2-2.816,2Z"/>
  <path d="M46,17c-3.86,0-7,3.141-7,7s3.14,7,7,7,7-3.141,7-7-3.14-7-7-7ZM46,19c2.757,0,5,2.243,5,5,0,.846-.231,1.632-.604,2.332-.557-.37-1.156-.667-1.784-.885.24-.431.388-.92.388-1.447,0-1.654-1.346-3-3-3s-3,1.346-3,3c0,.526.148,1.014.387,1.445-.629.217-1.228.512-1.787.879-.37-.698-.6-1.481-.6-2.324,0-2.757,2.243-5,5-5ZM45,24c0-.552.449-1,1-1s1,.448,1,1-.449,1-1,1-1-.448-1-1ZM42.878,27.874c.936-.568,2.013-.874,3.122-.874,1.129,0,2.189.301,3.118.877-.858.691-1.933,1.123-3.118,1.123s-2.264-.433-3.122-1.126Z"/>
  <path d="M46,13c-1.8,0-3.5.44-5,1.21v-4.21c0-1.65-1.35-3-3-3H14c-1.65,0-3,1.35-3,3v44c0,1.65,1.35,3,3,3h24c1.65,0,3-1.35,3-3v-19.82l.61-.1c1.4.61,2.88.92,4.39.92,6.07,0,11-4.93,11-11s-4.93-11-11-11ZM13,10c0-.55.45-1,1-1h24c.55,0,1,.45,1,1v1.18c-.31-.11-.65-.18-1-.18H14c-.35,0-.69.07-1,.18v-1.18ZM39,54c0,.55-.45,1-1,1H14c-.55,0-1-.45-1-1v-1.18c.31.11.65.18,1,.18h24c.35,0,.69-.07,1-.18v1.18ZM39,50c0,.55-.45,1-1,1H14c-.55,0-1-.45-1-1V14c0-.55.45-1,1-1h24c.55,0,1,.45,1,1v1.52c-2.44,2.02-4,5.07-4,8.48,0,1.92.5,3.79,1.46,5.46l-1.41,4.22c-.11.34-.04.7.19.97.19.22.47.35.76.35.05,0,.11,0,.16-.01l2.84-.48v15.49ZM46,33c-1.32,0-2.61-.29-3.82-.86-.14-.07-.28-.1-.43-.1-.06,0-.11.01-.17.02l-4.11.68,1.03-3.09c.1-.28.06-.59-.1-.85-.92-1.44-1.4-3.1-1.4-4.8,0-4.96,4.04-9,9-9s9,4.04,9,9-4.04,9-9,9Z"/>
</svg>