<?xml version="1.0" encoding="UTF-8"?>
<svg id="Outline" xmlns="http://www.w3.org/2000/svg" version="1.1" viewBox="0 0 64 64">
  <!-- Generator: Adobe Illustrator 29.5.1, SVG Export Plug-In . SVG Version: 2.1.0 Build 141)  -->
  <path d="M21.99922,18.99876c-1.6543,0-3,1.3457-3,3s1.3457,3,3,3,3-1.3457,3-3-1.3457-3-3-3ZM21.99922,22.99876c-.55127,0-1-.44873-1-1s.44873-1,1-1,1,.44873,1,1-.44873,1-1,1Z"/>
  <path d="M29.99922,24.99876c1.6543,0,3-1.3457,3-3s-1.3457-3-3-3-3,1.3457-3,3,1.3457,3,3,3ZM29.99922,20.99876c.55127,0,1,.44873,1,1s-.44873,1-1,1-1-.44873-1-1,.44873-1,1-1Z"/>
  <path d="M13.99922,18.99876c-1.6543,0-3,1.3457-3,3s1.3457,3,3,3,3-1.3457,3-3-1.3457-3-3-3ZM13.99922,22.99876c-.55127,0-1-.44873-1-1s.44873-1,1-1,1,.44873,1,1-.44873,1-1,1Z"/>
  <path d="M53.99922,46.99876h-.47998c-.75-1.08002-1.37-2.28003-1.80005-3.58002-.47998-1.41998-.71997-2.90002-.71997-4.41998v-2c0-6.62-5.38-12-12-12-.67999,0-1.34998.06-2,.16998v-2.84003c0-8.02997-6.12-14.75-13.92999-15.28998-4.58002-.32001-8.97998,1.41998-12.08002,4.77002-3.09998,3.35999-4.5,7.89996-3.82001,12.46997.97003,6.58002,6.27002,11.76001,12.88,12.60004.66003.07996,1.32001.12,1.97003.12,1.72998,0,3.41998-.29004,5.02997-.87-.01996.28998-.04999.57996-.04999.87v2c0,2.89001-.88,5.64001-2.52002,8h-.47998c-1.65002,0-3,1.34998-3,3s1.34998,3,3,3h10.09998c.47003,2.27997,2.49005,4,4.90002,4s4.42999-1.72003,4.90002-4h10.09998c1.65002,0,3-1.35004,3-3s-1.34998-3-3-3ZM20.29921,34.88877c-5.71997-.72003-10.31-5.20001-11.14996-10.90002-.59003-3.97003.62-7.91003,3.31-10.82001,2.47998-2.67999,5.91998-4.16998,9.54999-4.16998.29999,0,.60999.01001.91998.02997,6.77002.47003,12.07001,6.31,12.07001,13.29999v11.26001c-1.65002-1.54999-4.15002-1.77997-6.14001-.54999-.33997.22003-.70001.41998-1.07001.60004-.00995,0-.01996.00995-.02997.00995-2.29004,1.14001-4.84003,1.57001-7.46002,1.24005ZM28.99922,38.99876v-2c0-.62.07001-1.23999.19-1.84003.23999-.13.48999-.26996.72998-.41998,1.23999-.77002,2.79004-.62,3.78003.38l1.58997,1.58997c.29004.28003.72003.37,1.09003.21002.38-.15002.62-.52002.62-.91998v-8.77002c.65002-.14001,1.31-.22998,2-.22998,5.51001,0,10,4.48999,10,10v2c0,1.72998.28003,3.42999.82001,5.06.34998,1.02997.78998,2.01996,1.32001,2.94h-24.28003c1.40002-2.42004,2.14001-5.16003,2.14001-8ZM38.99922,54.99876c-1.29999,0-2.40002-.84003-2.82001-2h5.64001c-.41998,1.15997-1.52002,2-2.82001,2ZM53.99922,50.99876h-30c-.54999,0-1-.45001-1-1s.45001-1,1-1h30c.54999,0,1,.45001,1,1s-.45001,1-1,1Z"/>
</svg>