<?xml version="1.0" encoding="UTF-8"?>
<svg id="Outline" xmlns="http://www.w3.org/2000/svg" version="1.1" viewBox="0 0 64 64">
  <!-- Generator: Adobe Illustrator 29.5.1, SVG Export Plug-In . SVG Version: 2.1.0 Build 141)  -->
  <path d="M39.293,25.707c.195.195.451.293.707.293s.512-.098.707-.293l5.437-5.437c.915-.915,1.42-2.132,1.42-3.426s-.505-2.511-1.42-3.426c-1.669-1.669-4.262-1.863-6.144-.585-1.884-1.278-4.476-1.084-6.144.585-.915.914-1.42,2.131-1.42,3.426s.505,2.511,1.42,3.426l5.437,5.437ZM35.271,14.833c.537-.537,1.251-.833,2.012-.833s1.474.296,2.011.833c.391.391,1.023.391,1.414,0,1.075-1.075,2.949-1.073,4.022,0,.537.537.834,1.252.834,2.012s-.297,1.474-.834,2.012l-4.729,4.729-4.729-4.729c-.537-.538-.834-1.252-.834-2.012s.297-1.475.834-2.012Z"/>
  <path d="M52,19c0-6.62-5.38-12-12-12s-12,5.38-12,12c0,.68.07,1.35.18,2.01-.06,0-.12-.01-.18-.01-6.62,0-12,5.38-12,12v6.53c0,2.61-.58,5.2-1.68,7.55-1.32.31-2.32,1.5-2.32,2.92,0,1.65,1.35,3,3,3h8.1c.47,2.28,2.49,4,4.9,4s4.43-1.72,4.9-4h8.1c1.65,0,3-1.35,3-3,0-1.42-1-2.61-2.32-2.92-1.1-2.35-1.68-4.94-1.68-7.55v-6.53c0-.68-.06-1.35-.17-2.01.06,0,.11.01.17.01,6.62,0,12-5.38,12-12ZM18,39.53v-6.53c0-5.51,4.49-10,10-10,.25,0,.48.01.71.03,1.41,3.94,4.83,6.94,9.02,7.75.16.72.27,1.46.27,2.22v6.53c0,2.56.5,5.11,1.45,7.47h-22.9c.95-2.36,1.45-4.91,1.45-7.47ZM28,55c-1.3,0-2.4-.84-2.82-2h5.64c-.42,1.16-1.52,2-2.82,2ZM41,49c.55,0,1,.45,1,1s-.45,1-1,1H15c-.55,0-1-.45-1-1s.45-1,1-1h26ZM30,19c0-5.51,4.49-10,10-10s10,4.49,10,10-4.49,10-10,10-10-4.49-10-10Z"/>
</svg>