<?xml version="1.0" encoding="UTF-8"?>
<svg id="Outline" xmlns="http://www.w3.org/2000/svg" version="1.1" viewBox="0 0 64 64">
  <!-- Generator: Adobe Illustrator 29.5.1, SVG Export Plug-In . SVG Version: 2.1.0 Build 141)  -->
  <path d="M29,17c-3.309,0-6,2.691-6,6,0,.552.448,1,1,1s1-.448,1-1c0-2.206,1.794-4,4-4,.552,0,1-.448,1-1s-.448-1-1-1Z"/>
  <path d="M54,23.02c-.54-.11-1.07.24-1.18.78-.85,4.17-4.56,7.2-8.82,7.2-4.96,0-9-4.04-9-9s4.04-9,9-9c4.26,0,7.97,3.03,8.82,7.2.11.54.64.89,1.18.78s.89-.64.78-1.18c-1.04-5.1-5.57-8.8-10.78-8.8-3.52,0-6.66,1.67-8.67,4.26-.97-.79-2.06-1.38-3.23-1.76.55-.69.9-1.55.9-2.5,0-2.21-1.79-4-4-4s-4,1.79-4,4c0,.95.35,1.81.9,2.5-4,1.31-6.9,5.07-6.9,9.5v.6c0,7-2.33,13.89-6.55,19.46-1.95.27-3.45,1.92-3.45,3.94,0,2.21,1.79,4,4,4h9.08c.49,3.39,3.4,6,6.92,6s6.43-2.61,6.92-6h9.08c2.21,0,4-1.79,4-4,0-2.02-1.51-3.68-3.45-3.94-2.43-3.2-4.25-6.87-5.34-10.75,1.18.44,2.46.69,3.79.69,5.21,0,9.74-3.7,10.78-8.8.11-.54-.24-1.07-.78-1.18ZM29,9c1.1,0,2,.9,2,2s-.9,2-2,2-2-.9-2-2,.9-2,2-2ZM29,55c-2.41,0-4.44-1.72-4.9-4h9.8c-.46,2.28-2.49,4-4.9,4ZM43.03,43h-20.03c-.55,0-1,.45-1,1s.45,1,1,1h22c1.1,0,2,.9,2,2s-.9,2-2,2H13c-1.1,0-2-.9-2-2s.9-2,2-2h6c.55,0,1-.45,1-1s-.45-1-1-1h-4.04c3.9-5.68,6.04-12.49,6.04-19.4v-.6c0-4.41,3.59-8,8-8,1.94,0,3.77.69,5.23,1.96-.78,1.51-1.23,3.22-1.23,5.04,0,3.79,1.92,7.13,4.84,9.11.96,4.25,2.73,8.32,5.19,11.89Z"/>
  <path d="M42,27c-.552,0-1,.448-1,1s.448,1,1,1h4c.552,0,1-.448,1-1s-.448-1-1-1h-1v-11c0-.404-.244-.769-.617-.924-.375-.156-.804-.07-1.09.217l-2,2c-.391.391-.391,1.023,0,1.414s1.023.391,1.414,0l.293-.293v8.586h-1Z"/>
</svg>