<?xml version="1.0" encoding="UTF-8"?>
<svg id="Outline" xmlns="http://www.w3.org/2000/svg" version="1.1" viewBox="0 0 64 64">
  <!-- Generator: Adobe Illustrator 29.5.1, SVG Export Plug-In . SVG Version: 2.1.0 Build 141)  -->
  <path d="M56.77002,28.37c-.19-.23999-.47003-.37-.77002-.37h-.82001c-.27997-2.90002-1.79999-5.96002-4.19-8.37-1.27002-1.25-3.08997-1.07001-4.54999-.92004-.82001.09003-1.66998.17004-2.19-.00995-.85999-.31-1.63-.71002-2.37-1.10004-.44-.22998-.84998-.44-1.26001-.62-.57001-1.56-1.42999-2.97998-3.62-2.97998-2.78003,0-5.27002,1.69-6.91998,4.33997-.03003-.07001-.04999-.13995-.07001-.20996-.60999-1.94-1.29004-4.13-4.01001-4.13-2.46002,0-4.70001,1.32996-6.32001,3.46997-1.09998-.95001-2.37-1.46997-3.67999-1.46997-3.85999,0-7,4.48999-7,10,0,.67999.06,1.34998.15997,2h-1.15997c-.29999,0-.58002.13-.77002.37-.19.22998-.26996.52997-.20996.83002l3.67999,18.38995c.27997,1.40002,1.51001,2.41003,2.94,2.41003h36.71997c1.42999,0,2.66003-1.01001,2.94-2.41003l3.67999-18.38995c.06-.30005-.01996-.60004-.20996-.83002ZM43.58002,20.57996c.95001.34003,2.01996.23004,3.06.12006,1.20996-.12006,2.33997-.24005,2.92999.34998,2.02002,2.02997,3.33002,4.56,3.60999,6.95001h-7.32001c.08002-.67004.14001-1.34003.14001-2,0-1.78003-1.41998-2.92999-2.54999-3.85999-.65002-.52002-1.31-1.06006-1.54999-1.57001-.14001-.30005-.25-.60004-.36005-.90002.62.32001,1.28003.64001,2.04004.90997ZM30.84998,21.21997c.01001-.01001.01001-.01996.02002-.03998,1.19-3.08002,3.48999-5.17999,6.13-5.17999,1.12,0,1.41998.54999,2.09998,2.71997.25.82001.55005,1.76001,1,2.71002.43005.90997,1.27002,1.59998,2.08002,2.26001.94.76001,1.82001,1.47998,1.82001,2.31,0,.65997-.07001,1.32996-.15997,2h-13.68005c-.08997-.67004-.15997-1.34003-.15997-2,0-1.73004.31-3.35999.84998-4.78003ZM20.65997,19.53998c.02002-.02002.03003-.02997.04004-.04999,1.28998-2.13,3.17999-3.48999,5.29999-3.48999,1.12,0,1.41998.54999,2.09998,2.72998.21002.66003.45001,1.40002.77002,2.16003-.54999,1.54999-.87,3.27997-.87,5.10999,0,.65997.06,1.32996.14001,2h-8.98004c-.08997-.67004-.15997-1.34003-.15997-2,0-2.46002.63-4.71002,1.65997-6.46002ZM16,18c1.09003,0,1.96997.57996,2.59998,1.19-1.00995,1.94-1.59998,4.27997-1.59998,6.81,0,.65997.06,1.32996.14001,2h-5.95001c-.10999-.65002-.19-1.31-.19-2,0-4.34003,2.28998-8,5-8ZM51.34003,47.20001c-.09003.45996-.5.79999-.98004.79999H13.64001c-.48004,0-.89001-.34003-.98004-.79999l-3.44-17.20001h45.56006l-3.44,17.20001Z"/>
  <path d="M51.12109,32H12.87891c-.2998,0-.58301.13477-.77344.36621-.18945.23145-.26562.53613-.20703.83008l2.40039,12c.09375.4668.50391.80371.98047.80371h33.44141c.47656,0,.88672-.33691.98047-.80371l2.40039-12c.05859-.29395-.01758-.59863-.20703-.83008-.19043-.23145-.47363-.36621-.77344-.36621ZM47.90137,44h-31.80273l-2-10h35.80273l-2,10Z"/>
</svg>