<?xml version="1.0" encoding="UTF-8"?>
<svg id="Outline" xmlns="http://www.w3.org/2000/svg" version="1.1" viewBox="0 0 64 64">
  <!-- Generator: Adobe Illustrator 29.5.1, SVG Export Plug-In . SVG Version: 2.1.0 Build 141)  -->
  <path d="M25.807,30.685c-5.062-2.823-13.681,3.992-17.021,9.966-1.653,2.965-2.152,5.928-1.441,8.571.659,2.449,2.366,4.549,4.806,5.908,1.628.912,3.318,1.374,4.987,1.374.826,0,1.648-.113,2.454-.342,2.672-.756,4.972-2.746,6.655-5.763.328-.596.603-1.149.84-1.69.222-.506-.009-1.096-.515-1.317-.503-.219-1.095.01-1.317.515-.213.486-.462.986-.758,1.524-1.415,2.537-3.299,4.199-5.449,4.808-.795.224-1.613.296-2.438.234l.747-.721c3.562-3.461,6.042-7.832,7.169-12.641.126-.538-.208-1.076-.746-1.202-.535-.124-1.076.208-1.202.745-1.04,4.437-3.328,8.469-6.613,11.66l-1.673,1.615c-.39-.153-.779-.329-1.165-.544-.405-.226-.774-.478-1.123-.744l.259-1.154c1.16-5.215,3.645-10.067,7.19-14.04l.534-.606c.365-.414.325-1.046-.09-1.411-.415-.364-1.046-.323-1.411.091l-.529.601c-3.743,4.192-6.373,9.315-7.617,14.816-.483-.681-.846-1.428-1.063-2.235-.573-2.13-.139-4.577,1.256-7.076,3.126-5.595,10.77-11.161,14.298-9.196,2.655,1.487,2.844,7.075,1.659,11.826-.134.536.192,1.079.728,1.213.537.129,1.079-.192,1.212-.729,1.372-5.497,1.093-11.975-2.624-14.056Z"/>
  <path d="M55.971,44.514c-.545-.09-1.062.271-1.157.814-.88,5.065-4.356,8.927-8.632,9.916-.011-.171-.05-.341-.153-.493-.309-.458-.932-.577-1.389-.268-.199.135-.405.246-.61.363-.205-.117-.412-.228-.611-.363-.458-.31-1.08-.19-1.389.268-.105.154-.143.327-.153.501-5.038-1.157-8.847-6.291-8.847-12.432,0-3.27,1.087-6.381,3.06-8.763.241-.291.297-.692.146-1.039-.681-1.555-1.026-3.217-1.026-4.938,0-5.086,3.008-9.343,7.001-10.351-.052.283.005.583.205.82.354.421.992.473,1.409.121.066-.055.137-.095.204-.148.067.053.138.093.204.148.421.354,1.056.299,1.409-.121.2-.237.257-.537.205-.82,3.994,1.008,7.001,5.265,7.001,10.351,0,1.722-.345,3.384-1.026,4.938-.151.347-.095.748.146,1.039,1.705,2.059,2.771,4.731,3.004,7.525.045.551.525.973,1.08.913.55-.045.959-.528.914-1.079-.249-2.987-1.336-5.86-3.079-8.158.639-1.646.962-3.385.962-5.179,0-6.937-4.854-12.58-10.82-12.58s-10.82,5.644-10.82,12.58c0,1.794.323,3.533.961,5.179-2.03,2.67-3.142,6.04-3.142,9.562,0,7.67,5.237,13.974,11.885,14.616.02.001.04.01.085.005.341.03.682.059,1.03.059,6.199,0,11.564-4.975,12.755-11.829.094-.544-.27-1.062-.814-1.156Z"/>
  <path d="M38.963,52.789c.194.279.505.43.822.43.791,0,1.273-.918.82-1.57-.755-1.089-1.359-2.321-1.795-3.663-.17-.524-.734-.812-1.26-.643-.525.171-.813.734-.643,1.26.496,1.528,1.187,2.937,2.055,4.187Z"/>
  <path d="M37.534,38.647c-.544-.104-1.066.25-1.171.792-.221,1.145-.333,2.329-.333,3.521,0,.368.011.732.032,1.092.031.532.472.943.998.943.019,0,.039,0,.058-.002.551-.031.973-.504.941-1.055-.019-.324-.028-.651-.029-.979,0-1.063.1-2.12.296-3.141.104-.542-.25-1.066-.792-1.171Z"/>
  <path d="M40.979,32.971c-.282-.712-.504-1.46-.662-2.225-.111-.542-.64-.889-1.181-.778-.541.111-.89.64-.778,1.181.143.695.333,1.38.567,2.042-.395.574-.756,1.188-1.077,1.828-.248.494-.048,1.095.446,1.342.489.245,1.096.045,1.342-.446.354-.707.763-1.373,1.214-1.979.207-.278.256-.644.128-.966Z"/>
  <path d="M40.785,20.774c-.501-.235-1.096-.02-1.33.481-.701,1.497-1.149,3.134-1.333,4.866-.058.549.34,1.041.889,1.1.036.004.071.006.106.006.505,0,.939-.381.994-.895.16-1.511.549-2.934,1.156-4.229.234-.5.019-1.096-.482-1.329Z"/>
  <path d="M48.94,27.217c.035,0,.071-.002.107-.006.549-.059.947-.551.888-1.101-.185-1.732-.635-3.37-1.337-4.865-.235-.5-.831-.715-1.33-.48-.5.234-.715.83-.48,1.33.607,1.294.998,2.717,1.159,4.229.055.513.488.894.993.894Z"/>
  <path d="M48.422,35.915c.245.49.855.69,1.342.445.494-.247.693-.848.446-1.342-.321-.641-.683-1.254-1.077-1.828.234-.662.424-1.347.567-2.042.111-.541-.237-1.069-.778-1.181-.54-.111-1.07.236-1.181.778-.157.765-.38,1.513-.662,2.225-.128.322-.079.688.128.966.452.605.86,1.271,1.214,1.979Z"/>
  <path d="M48.285,53.203c.317,0,.63-.151.823-.43.865-1.25,1.554-2.659,2.049-4.188.17-.525-.119-1.089-.644-1.259-.526-.171-1.089.119-1.259.644-.435,1.344-1.036,2.576-1.79,3.665-.453.654.03,1.57.821,1.569Z"/>
  <path d="M52,44.03c.02-.354.03-.711.03-1.071,0-1.195-.113-2.387-.336-3.539-.105-.542-.631-.9-1.172-.791-.542.104-.897.629-.792,1.172.199,1.027.3,2.09.3,3.158,0,.323-.009.644-.027.962-.03.551.392,1.022.943,1.053.019.002.038.002.056.002.527,0,.968-.412.998-.945Z"/>
  <path d="M29.08,16.085c-3.129-3.111-8.011-3.799-11.874-1.671-.826.455-1.375,1.253-1.506,2.189-.132.942.178,1.867.878,2.563.93.925,2.37,1.116,3.581.473,1.555-.823,3.441-.543,4.691.7,1.249,1.242,1.542,3.126.728,4.688-.634,1.216-.436,2.653.485,3.568,0,0,.027.027.036.036,1.371,1.371,3.802,1.01,4.723-.683,2.104-3.875,1.388-8.753-1.741-11.863ZM29.064,26.993c-.147.269-.406.45-.713.495-.872.129-1.375-.818-1-1.537,1.221-2.342.782-5.167-1.091-7.029-1.158-1.151-2.68-1.752-4.224-1.752-.956,0-1.92.229-2.813.702-.44.234-.925.185-1.261-.149-.223-.222-.325-.528-.281-.841.043-.307.222-.568.49-.716,3.089-1.702,6.995-1.152,9.499,1.337s3.077,6.392,1.394,9.49Z"/>
  <path d="M12.597,25.424c.827.409,1.837.4,2.658-.016.849-.43,1.43-1.213,1.602-2.187.227-1.29-.44-2.579-1.658-3.207-1.565-.808-2.412-2.515-2.106-4.25s1.684-3.051,3.431-3.274c1.36-.176,2.427-1.16,2.653-2.446,0,0,.007-.038.007-.041.165-.936-.114-1.869-.765-2.562-.647-.691-1.553-1.019-2.494-.923-4.382.486-7.977,3.861-8.741,8.208-.765,4.345,1.461,8.744,5.414,10.698ZM9.152,15.072c.612-3.478,3.487-6.178,6.992-6.566.036-.004.072-.006.107-.006.59,0,1.062.582.961,1.155,0,0-.007.039-.007.039-.076.43-.444.748-.938.812-2.62.336-4.688,2.31-5.146,4.912s.812,5.164,3.16,6.374c.443.228.681.654.598,1.121-.109.62-.829,1-1.397.718-3.162-1.562-4.942-5.082-4.331-8.559Z"/>
</svg>