<?xml version="1.0" encoding="UTF-8"?>
<svg id="Outline" xmlns="http://www.w3.org/2000/svg" version="1.1" viewBox="0 0 64 64">
  <!-- Generator: Adobe Illustrator 29.5.1, SVG Export Plug-In . SVG Version: 2.1.0 Build 141)  -->
  <path d="M32,7c-13.785,0-25,11.215-25,25s11.215,25,25,25,25-11.215,25-25S45.785,7,32,7ZM32,55c-12.683,0-23-10.318-23-23s10.317-23,23-23,23,10.318,23,23-10.317,23-23,23Z"/>
  <path d="M32,11c-4.158,0-8.167,1.21-11.596,3.499-.459.307-.583.927-.276,1.387.307.458.927.584,1.388.276,3.098-2.068,6.724-3.162,10.484-3.162,4.879,0,9.32,1.864,12.688,4.898l-3.715,3.715c-1.661-1.064-3.725-1.907-5.972-2.323v-1.29c0-1.654-1.346-3-3-3s-3,1.346-3,3v1.29c-5.561,1.032-10,4.709-10,7.71,0,1.373.826,2.266,2.14,2.859-.083.515-.14,1.057-.14,1.651,0,2.316.646,5.372,1.795,8.281l-4.897,4.897c-3.034-3.368-4.898-7.809-4.898-12.688,0-3.762,1.094-7.387,3.162-10.485.307-.459.183-1.08-.276-1.387-.462-.309-1.081-.183-1.388.276-2.288,3.427-3.498,7.437-3.498,11.595,0,11.58,9.421,21,21,21s21-9.42,21-21-9.421-21-21-21ZM31,18c0-.551.448-1,1-1s1,.449,1,1v1.04c-.332-.021-.664-.04-1-.04s-.668.019-1,.04v-1.04ZM32,21c2.962,0,5.58.903,7.523,2.062l-5.933,5.934c-.568.004-1.106.004-1.59.004-3.845,0-11,0-11-2s4.756-6,11-6ZM43,27c0,1.343-3.229,1.783-6.514,1.928l4.693-4.693c1.156.992,1.821,2.018,1.821,2.766ZM41,31.51c0,5.827-4.359,15.49-9,15.49-2.607,0-5.124-3.049-6.831-6.755l9.254-9.255c2.344-.026,4.654-.131,6.517-.527.038.326.059.674.059,1.047ZM23,31.51c0-.372.021-.721.059-1.047,2.398.51,5.535.536,8.527.536l-7.233,7.233c-.844-2.332-1.354-4.747-1.354-6.723ZM32,51c-4.879,0-9.32-1.864-12.688-4.898l4.35-4.351c1.955,3.979,4.868,7.248,8.337,7.248,6.464,0,11-11.347,11-17.49,0-.594-.057-1.136-.14-1.651,1.314-.592,2.14-1.486,2.14-2.859,0-1.355-.909-2.847-2.412-4.174l3.514-3.514c3.034,3.368,4.898,7.809,4.898,12.688,0,10.477-8.523,19-19,19Z"/>
  <path d="M18.565,18.565c.391-.391.391-1.024,0-1.414-.391-.391-1.024-.391-1.414,0-.391.391-.391,1.024,0,1.414.391.391,1.024.391,1.414,0Z"/>
</svg>