<?xml version="1.0" encoding="UTF-8"?>
<svg id="Outline" xmlns="http://www.w3.org/2000/svg" version="1.1" viewBox="0 0 64 64">
  <!-- Generator: Adobe Illustrator 29.5.1, SVG Export Plug-In . SVG Version: 2.1.0 Build 141)  -->
  <path d="M54,10h-28c-.552,0-1,.447-1,1s.448,1,1,1h28c.551,0,1,.448,1,1v38c0,.552-.449,1-1,1H10c-.551,0-1-.448-1-1V13c0-.552.449-1,1-1h8c.552,0,1-.447,1-1s-.448-1-1-1h-8c-1.654,0-3,1.346-3,3v38c0,1.654,1.346,3,3,3h44c1.654,0,3-1.346,3-3V13c0-1.654-1.346-3-3-3Z"/>
  <path d="M52,14H12c-.55,0-1,.45-1,1v34c0,.55.45,1,1,1h40c.55,0,1-.45,1-1V15c0-.55-.45-1-1-1ZM51,48H13V16h38v32Z"/>
  <path d="M48,22h-3c0-1.65-1.35-3-3-3h-20c-1.65,0-3,1.35-3,3h-3c-.55,0-1,.45-1,1v4c0,.55.45,1,1,1h3c0,1.65,1.35,3,3,3h20c1.65,0,3-1.35,3-3h3c.55,0,1-.45,1-1v-4c0-.55-.45-1-1-1ZM19,26h-2v-2h2v2ZM43,28c0,.55-.45,1-1,1h-20c-.55,0-1-.45-1-1v-6c0-.55.45-1,1-1h20c.55,0,1,.45,1,1v6ZM47,26h-2v-2h2v2Z"/>
  <path d="M48,36h-3c0-1.65-1.35-3-3-3h-20c-1.65,0-3,1.35-3,3h-3c-.55,0-1,.45-1,1v4c0,.55.45,1,1,1h3c0,1.65,1.35,3,3,3h20c1.65,0,3-1.35,3-3h3c.55,0,1-.45,1-1v-4c0-.55-.45-1-1-1ZM19,40h-2v-2h2v2ZM43,42c0,.55-.45,1-1,1h-20c-.55,0-1-.45-1-1v-6c0-.55.45-1,1-1h20c.55,0,1,.45,1,1v6ZM47,40h-2v-2h2v2Z"/>
  <path d="M27.293,23.293l-2,2c-.391.391-.391,1.023,0,1.414.371.371,1.022.392,1.414,0l2-2c.391-.391.391-1.023,0-1.414s-1.023-.391-1.414,0Z"/>
  <path d="M32.293,23.293l-2,2c-.391.391-.391,1.023,0,1.414.386.386,1.028.386,1.414,0l2-2c.391-.391.391-1.023,0-1.414s-1.023-.391-1.414,0Z"/>
  <path d="M37.293,23.293l-2,2c-.391.391-.391,1.023,0,1.414.367.367,1.026.388,1.414,0l2-2c.391-.391.391-1.023,0-1.414s-1.023-.391-1.414,0Z"/>
  <path d="M27.293,37.293l-2,2c-.391.391-.391,1.023,0,1.414.366.366,1.027.387,1.414,0l2-2c.391-.391.391-1.023,0-1.414s-1.023-.391-1.414,0Z"/>
  <path d="M32.293,37.293l-2,2c-.391.391-.391,1.023,0,1.414.363.363,1.03.384,1.414,0l2-2c.391-.391.391-1.023,0-1.414s-1.023-.391-1.414,0Z"/>
  <path d="M37.293,37.293l-2,2c-.391.391-.391,1.023,0,1.414.387.387,1.028.386,1.414,0l2-2c.391-.391.391-1.023,0-1.414s-1.023-.391-1.414,0Z"/>
  <circle cx="22" cy="11" r="1"/>
</svg>