<?xml version="1.0" encoding="UTF-8"?>
<svg id="Outline" xmlns="http://www.w3.org/2000/svg" version="1.1" viewBox="0 0 64 64">
  <!-- Generator: Adobe Illustrator 29.5.1, SVG Export Plug-In . SVG Version: 2.1.0 Build 141)  -->
  <path d="M56.45,31.15c-.13-.06-3.23-1.6-6.02-.51-.75.29-1.38.74-1.91,1.24.46-2.16.7-4.38.7-6.63,0-.55-.45-1-1-1s-1,.45-1,1c0,6.08-1.84,11.93-5.23,16.84.03-.83-.03-1.38-.04-1.45-.05-.51-.48-.89-.99-.89-.1,0-1.34.01-2.91.4-1.56.4-3.44,1.17-4.81,2.7-.52.59-.93,1.24-1.24,1.9-.31-.66-.72-1.31-1.24-1.9-1.37-1.53-3.25-2.3-4.81-2.7-1.57-.39-2.81-.4-2.91-.4-.51,0-.94.38-.99.89-.01.07-.07.62-.04,1.45-3.39-4.91-5.23-10.76-5.23-16.84,0-.55-.45-1-1-1s-1,.45-1,1c0,2.25.24,4.47.7,6.63-.53-.5-1.16-.95-1.91-1.24-2.79-1.09-5.89.45-6.02.51-.46.23-.67.77-.49,1.25.05.13,1.29,3.37,4.08,4.46.72.28,1.47.39,2.18.39,1.55,0,2.91-.5,3.51-.75.31.82.66,1.63,1.04,2.43-2.58-.63-5.2.66-5.32.72-.46.23-.67.77-.49,1.25.05.13,1.29,3.37,4.08,4.46.72.28,1.47.39,2.18.39,1.46,0,2.75-.44,3.4-.71.37.46.76.92,1.16,1.37.33.78.77,1.55,1.39,2.24,2.73,3.06,7.51,3.1,7.71,3.1h.04c.1,0,1.34-.01,2.91-.4,1.56-.4,3.43-1.17,4.8-2.7.62-.68,1.06-1.46,1.39-2.24.4-.45.79-.91,1.16-1.37.65.27,1.94.71,3.4.71.71,0,1.46-.11,2.18-.39,2.79-1.09,4.03-4.33,4.08-4.46.18-.48-.03-1.02-.49-1.25-.12-.06-2.74-1.35-5.32-.72.38-.8.73-1.61,1.04-2.43.6.25,1.96.75,3.51.75.71,0,1.46-.11,2.18-.39,2.79-1.09,4.03-4.33,4.08-4.46.18-.48-.03-1.02-.49-1.25ZM11.87,35c-1.2-.47-2.03-1.61-2.5-2.42.89-.28,2.27-.55,3.47-.08,1.2.47,2.03,1.61,2.49,2.42-.88.28-2.26.55-3.46.08ZM16.87,43.5c-1.2-.47-2.03-1.61-2.5-2.42.89-.28,2.27-.55,3.47-.08,1.2.47,2.03,1.61,2.49,2.42-.89.28-2.26.55-3.46.08ZM30.98,49.67c-1.35-.17-3.75-.7-5.22-2.35-1.49-1.67-1.74-4.14-1.76-5.5,1.34.17,3.77.69,5.27,2.36,1.27,1.43,1.64,3.45,1.73,4.84-.02.24-.02.45-.02.65ZM38.24,47.32c-1.47,1.65-3.87,2.18-5.22,2.35,0-.2,0-.41-.02-.65.09-1.4.46-3.41,1.73-4.84.75-.83,1.73-1.38,2.69-1.74.97-.36,1.91-.53,2.58-.62-.02,1.36-.27,3.83-1.76,5.5ZM46.16,41c1.2-.46,2.58-.2,3.46.08-.46.81-1.29,1.95-2.49,2.42-1.19.47-2.57.2-3.46-.08.46-.81,1.3-1.95,2.49-2.42ZM52.13,35c-1.19.47-2.57.2-3.46-.08.46-.81,1.3-1.95,2.49-2.42,1.2-.46,2.58-.2,3.46.08-.46.81-1.29,1.95-2.49,2.42Z"/>
  <path d="M31.847,40.238c.051.008.102.012.153.012.051,0,.102-.004.152-.012,8.024-1.234,13.848-8.021,13.848-16.139v-1.85c0-.553-.448-1-1-1s-1,.447-1,1v1.85c0,7.071-5.037,12.992-12,14.138-3.331-.553-6.358-2.256-8.542-4.809-2.23-2.596-3.458-5.909-3.458-9.329v-7.991l12-1.847,12,1.847v2.142c0,.553.448,1,1,1s1-.447,1-1v-3c0-.493-.36-.913-.848-.988l-13-2c-.101-.016-.203-.016-.304,0l-13,2c-.488.075-.848.495-.848.988v8.85c0,3.898,1.4,7.674,3.94,10.631,2.525,2.952,6.044,4.908,9.906,5.508Z"/>
  <path d="M26.151,19.208c.546-.084.921-.594.837-1.14-.083-.547-.597-.917-1.14-.837l-3,.46c-.488.074-.849.494-.849.988v5.42c0,5.897,4.028,10.86,9.795,12.069.067.015.136.021.205.021s.138-.007.205-.021c5.767-1.209,9.795-6.172,9.795-12.069v-5.42c0-.494-.36-.914-.849-.988l-9-1.38c-.1-.016-.204-.015-.305,0l-2,.311c-.546.085-.919.596-.835,1.142.085.546.602.915,1.142.835l1.848-.287,7.999,1.227v4.562c0,4.871-3.279,8.98-8,10.067-4.721-1.087-8-5.196-8-10.067v-4.562l2.151-.33Z"/>
  <path d="M31,28.25c.256,0,.512-.098.707-.293l4-4c.391-.391.391-1.023,0-1.414s-1.023-.391-1.414,0l-3.293,3.293-1.293-1.293c-.391-.391-1.023-.391-1.414,0s-.391,1.023,0,1.414l2,2c.195.195.451.293.707.293Z"/>
</svg>