<?xml version="1.0" encoding="UTF-8"?>
<svg id="Outline" xmlns="http://www.w3.org/2000/svg" version="1.1" viewBox="0 0 64 64">
  <!-- Generator: Adobe Illustrator 29.5.1, SVG Export Plug-In . SVG Version: 2.1.0 Build 141)  -->
  <path d="M11.406,28.919c.128.055.262.081.394.081.388,0,.757-.228.919-.607,4.016-9.375,11.19-19.394,19.281-19.394,8.514,0,15.055,10.874,17.472,15.549.253.489.856.683,1.348.429.491-.253.683-.857.43-1.348-5.465-10.569-12.48-16.63-19.249-16.63-9.063,0-16.853,10.645-21.119,20.606-.218.507.018,1.095.525,1.313Z"/>
  <path d="M52.987,27.321c-.221-.506-.809-.74-1.316-.517-.507.221-.738.81-.518,1.316,2.373,5.442,3.847,11.144,3.847,14.88,0,4.962-2.56,8.269-8,10.135v-11.135c0-1.654-1.346-3-3-3h-24c-1.654,0-3,1.346-3,3v11.135c-5.44-1.866-8-5.173-8-10.135,0-2.734.804-6.625,2.205-10.673.181-.522-.097-1.091-.618-1.272-.522-.183-1.091.096-1.272.618-1.492,4.313-2.314,8.335-2.314,11.327,0,12.549,14.268,14,25,14s25-1.451,25-14c0-4.054-1.5-9.916-4.013-15.679ZM19,53.726v-11.726c0-.551.448-1,1-1h24c.552,0,1,.449,1,1v11.726c-3.406.854-7.704,1.274-13,1.274s-9.594-.421-13-1.274Z"/>
  <path d="M28.293,45.878c.195.195.451.293.707.293.872,0,1.326-1.089.707-1.707-2.045-2.044-5.369-2.044-7.414,0-.391.39-.391,1.023,0,1.414s1.023.391,1.414,0c1.264-1.264,3.322-1.264,4.586,0Z"/>
  <path d="M34.293,44.464c-.391.39-.391,1.023,0,1.414s1.023.391,1.414,0c1.264-1.264,3.322-1.264,4.586,0,.195.195.451.293.707.293.873,0,1.323-1.092.707-1.707-2.045-2.044-5.369-2.044-7.414,0Z"/>
  <path d="M36.293,49.222c-2.367,2.367-6.219,2.367-8.586,0-.391-.391-1.023-.391-1.414,0s-.391,1.023,0,1.414c1.524,1.524,3.552,2.364,5.707,2.364s4.183-.84,5.707-2.364c.391-.391.391-1.023,0-1.414s-1.023-.391-1.414,0Z"/>
  <path d="M23.293,34.293c-.713.713-1.873.713-2.586,0-.391-.391-1.023-.391-1.414,0s-.391,1.023,0,1.414c.746.747,1.727,1.12,2.707,1.12s1.961-.373,2.707-1.12c.391-.391.391-1.023,0-1.414s-1.023-.391-1.414,0Z"/>
  <path d="M33.293,34.293c-.713.713-1.873.713-2.586,0-.391-.391-1.023-.391-1.414,0s-.391,1.023,0,1.414c.746.747,1.727,1.12,2.707,1.12s1.961-.373,2.707-1.12c.391-.391.391-1.023,0-1.414s-1.023-.391-1.414,0Z"/>
  <path d="M43.293,34.293c-.713.713-1.873.713-2.586,0-.391-.391-1.023-.391-1.414,0s-.391,1.023,0,1.414c.746.747,1.727,1.12,2.707,1.12s1.961-.373,2.707-1.12c.391-.391.391-1.023,0-1.414s-1.023-.391-1.414,0Z"/>
  <path d="M24.707,28.293c-.391-.391-1.023-.391-1.414,0-.713.713-1.873.713-2.586,0-.391-.391-1.023-.391-1.414,0s-.391,1.023,0,1.414c.746.747,1.727,1.12,2.707,1.12s1.961-.373,2.707-1.12c.391-.391.391-1.023,0-1.414Z"/>
  <path d="M34.707,28.293c-.391-.391-1.023-.391-1.414,0-.713.713-1.873.713-2.586,0-.391-.391-1.023-.391-1.414,0s-.391,1.023,0,1.414c.746.747,1.727,1.12,2.707,1.12s1.961-.373,2.707-1.12c.391-.391.391-1.023,0-1.414Z"/>
  <path d="M44.707,28.293c-.391-.391-1.023-.391-1.414,0-.713.713-1.873.713-2.586,0-.391-.391-1.023-.391-1.414,0s-.391,1.023,0,1.414c.746.747,1.727,1.12,2.707,1.12s1.961-.373,2.707-1.12c.391-.391.391-1.023,0-1.414Z"/>
  <path d="M24.707,22.293c-.391-.391-1.023-.391-1.414,0-.713.713-1.873.713-2.586,0-.391-.391-1.023-.391-1.414,0s-.391,1.023,0,1.414c.746.747,1.727,1.12,2.707,1.12s1.961-.373,2.707-1.12c.391-.391.391-1.023,0-1.414Z"/>
  <path d="M34.707,22.293c-.391-.391-1.023-.391-1.414,0-.713.713-1.873.713-2.586,0-.391-.391-1.023-.391-1.414,0s-.391,1.023,0,1.414c.746.747,1.727,1.12,2.707,1.12s1.961-.373,2.707-1.12c.391-.391.391-1.023,0-1.414Z"/>
  <path d="M44.707,22.293c-.391-.391-1.023-.391-1.414,0-.713.713-1.873.713-2.586,0-.391-.391-1.023-.391-1.414,0s-.391,1.023,0,1.414c.746.747,1.727,1.12,2.707,1.12s1.961-.373,2.707-1.12c.391-.391.391-1.023,0-1.414Z"/>
</svg>