<?xml version="1.0" encoding="UTF-8"?>
<svg id="Outline" xmlns="http://www.w3.org/2000/svg" version="1.1" viewBox="0 0 64 64">
  <!-- Generator: Adobe Illustrator 29.5.1, SVG Export Plug-In . SVG Version: 2.1.0 Build 141)  -->
  <path d="M44.387,27.665c-4.694-4.204-7.387-10.013-7.387-15.935v-3.73c0-.553-.447-1-1-1h-8c-.553,0-1,.447-1,1v3.73c0,5.922-2.692,11.73-7.388,15.936-3.619,3.252-5.612,7.632-5.612,12.334,0,9.374,8.075,17,18,17,6.002,0,11.589-2.811,14.944-7.52.32-.449.216-1.074-.234-1.395-.448-.318-1.073-.217-1.395.234-2.98,4.183-7.959,6.68-13.315,6.68-8.822,0-16-6.729-16-15,0-4.127,1.758-7.979,4.947-10.845,5.118-4.584,8.053-10.935,8.053-17.425v-2.73h6v2.73c0,6.49,2.935,12.841,8.052,17.424,3.19,2.867,4.948,6.719,4.948,10.846,0,1.691-.296,3.348-.878,4.923-.192.518.072,1.093.591,1.284.518.194,1.093-.072,1.284-.591.666-1.798,1.003-3.688,1.003-5.616,0-4.702-1.993-9.082-5.613-12.335Z"/>
  <path d="M29.777,22.103c-.501-.244-1.096-.039-1.339.456-1.5,3.051-3.572,5.772-6.158,8.088-2.76,2.473-4.28,5.794-4.28,9.354,0,7.168,6.28,13,14,13s14-5.832,14-13c0-3.56-1.521-6.881-4.28-9.354-2.586-2.315-4.658-5.037-6.158-8.088-.243-.494-.842-.698-1.339-.456-.495.244-.699.843-.456,1.339,1.614,3.282,3.841,6.207,6.619,8.695,2.331,2.088,3.614,4.88,3.614,7.863,0,6.065-5.383,11-12,11s-12-4.935-12-11c0-2.983,1.283-5.775,3.614-7.863,2.778-2.488,5.005-5.413,6.619-8.695.243-.496.039-1.095-.456-1.339Z"/>
  <path d="M28.036,48.262c1.254.49,2.588.738,3.964.738,5.514,0,10-4.037,10-9,0-2.41-1.049-4.675-2.953-6.375-2.471-2.211-4.55-4.774-6.179-7.622-.357-.621-1.379-.621-1.736,0-1.629,2.848-3.708,5.411-6.178,7.621-1.905,1.701-2.954,3.966-2.954,6.376,0,2.098.823,4.141,2.316,5.75.375.405,1.007.429,1.413.054.405-.376.429-1.009.054-1.413-1.15-1.239-1.783-2.799-1.783-4.391,0-1.833.812-3.567,2.287-4.885,2.21-1.978,4.127-4.223,5.713-6.689,1.586,2.467,3.503,4.712,5.714,6.69,1.475,1.316,2.286,3.051,2.286,4.884,0,3.859-3.589,7-8,7-1.126,0-2.215-.202-3.235-.602-.516-.201-1.095.054-1.296.567-.201.515.054,1.095.567,1.296Z"/>
  <path d="M38,40c0-1.609-.879-2.733-1.616-3.394-1.297-1.162-2.513-2.425-3.614-3.753-.379-.457-1.159-.458-1.54,0-1.103,1.331-2.317,2.593-3.612,3.752-.737.66-1.617,1.785-1.617,3.394,0,2.71,2.748,5,6,5s6-2.29,6-5ZM28,40c0-.698.32-1.339.951-1.903,1.073-.961,2.096-1.989,3.049-3.067.952,1.076,1.975,2.104,3.05,3.067.434.388.95,1.033.95,1.903,0,1.598-1.869,3-4,3s-4-1.402-4-3Z"/>
</svg>