<?xml version="1.0" encoding="UTF-8"?>
<svg id="Outline" xmlns="http://www.w3.org/2000/svg" version="1.1" viewBox="0 0 64 64">
  <!-- Generator: Adobe Illustrator 29.5.1, SVG Export Plug-In . SVG Version: 2.1.0 Build 141)  -->
  <path d="M52.74,22.33c-.19-.21-.46-.33-.74-.33h-2.77c.5-1.27.77-2.63.77-4,0-6.07-4.93-11-11-11-3.79,0-7.24,1.94-9.25,5.09-1.44-.69-3.05-1.09-4.75-1.09-6.07,0-11,4.93-11,11h-2c-.28,0-.55.12-.74.33-.19.21-.28.49-.26.77l3.33,33c.06.51.49.9,1,.9h3.67c.55,0,1-.45,1-1,0-3.03,1.87-3.96,8.01-4,.55,0,.99-.45.99-1.01,0-.55-.45-.99-1-.99h-.01c-3.74.02-9.28.05-9.93,5h-1.83l-3.12-31h2.56l7.73,5.8c.18.13.39.2.6.2.1,0,.19-.01.29-.04l19.86-5.96h6.74l-3.12,31h-1.83c-.65-4.94-6.19-4.98-9.93-5.01h-.01c-.55,0-1,.44-1,.99,0,.56.44,1.01.99,1.01,6.14.05,8.01.98,8.01,4.01,0,.55.45,1,1,1h3.67c.51,0,.94-.39,1-.9l3.33-33c.02-.28-.07-.56-.26-.77ZM16,22c0-4.96,4.04-9,9-9s9,4.04,9,9h-2c0-3.86-3.14-7-7-7s-7,3.14-7,7h-2ZM30,22h-10c0-2.76,2.24-5,5-5s5,2.24,5,5ZM24.2,27.9l-5.2-3.9h18.19l-12.99,3.9ZM41.98,22h-5.98c0-2.12-.61-4.09-1.65-5.77.72-1.92,2.57-3.23,4.65-3.23,2.76,0,5,2.24,5,5,0,1.59-.75,3.06-2.02,4ZM47.04,22h-2.3c.81-1.16,1.26-2.54,1.26-4,0-3.86-3.14-7-7-7-2.51,0-4.78,1.37-6.01,3.46-.47-.49-.98-.94-1.53-1.34,1.65-2.55,4.46-4.12,7.54-4.12,4.96,0,9,4.04,9,9,0,1.39-.34,2.76-.96,4Z"/>
  <path d="M47,37c0-3.897-7.729-6-15-6s-15,2.103-15,6,7.729,6,15,6,15-2.103,15-6ZM19,37c0-1.631,5.064-4,13-4s13,2.369,13,4-5.064,4-13,4-13-2.369-13-4Z"/>
  <circle cx="32" cy="51" r="1"/>
</svg>