<?xml version="1.0" encoding="UTF-8"?>
<svg id="Outline" xmlns="http://www.w3.org/2000/svg" version="1.1" viewBox="0 0 64 64">
  <!-- Generator: Adobe Illustrator 29.5.1, SVG Export Plug-In . SVG Version: 2.1.0 Build 141)  -->
  <path d="M54,7H10c-1.65,0-3,1.35-3,3v44c0,1.65,1.35,3,3,3h44c1.65,0,3-1.35,3-3V10c0-1.65-1.35-3-3-3ZM21.71,10.29l-1.3-1.29h3.18l2,2-2,2h-3.18l1.3-1.29c.39-.39.39-1.03,0-1.42ZM15.71,10.29l-1.3-1.29h3.18l2,2-2,2h-3.18l1.3-1.29c.39-.39.39-1.03,0-1.42ZM9,10c0-.55.45-1,1-1h1.59l2,2-2,2h-2.59v-3ZM55,13h-12c-.55,0-1,.45-1,1s.45,1,1,1h12v39c0,.55-.45,1-1,1H10c-.55,0-1-.45-1-1V15h26c.55,0,1-.45,1-1s-.45-1-1-1h-8.59l1.3-1.29c.39-.39.39-1.03,0-1.42l-1.3-1.29h27.59c.55,0,1,.45,1,1v3Z"/>
  <path d="M51,43h-7v-23c0-1.65-1.35-3-3-3h-24.63c-.15,0-.28.03-.41.09-.23-.05-.47-.09-.71-.09-1.79,0-3.25,1.46-3.25,3.25v27.75c0,2.76,2.24,5,5,5h30c2.76,0,5-2.24,5-5v-4c0-.55-.45-1-1-1ZM29.41,19l-10.67,1.86-.34-1.4c-.04-.16-.1-.31-.16-.46h11.17ZM17,51c-1.65,0-3-1.35-3-3v-27.75c0-.69.56-1.25,1.25-1.25.57,0,1.07.39,1.21.94l.57,2.3c.13.51.63.83,1.14.75l22.87-3.98c.53.02.96.45.96.99v28c0,1.13.39,2.16,1.03,3h-26.03ZM50,48c0,1.65-1.35,3-3,3s-3-1.35-3-3v-3h6v3Z"/>
  <path d="M39,25h-22c-.552,0-1,.447-1,1v22c0,.553.448,1,1,1h22c.552,0,1-.447,1-1v-22c0-.553-.448-1-1-1ZM38,29h-14v-2h14v2ZM22,27v2h-4v-2h4ZM18,31h4v16h-4v-16ZM24,47v-16h14v16h-14Z"/>
  <path d="M30.236,37h2.764c.552,0,1-.447,1-1s-.448-1-1-1h-1v-1c0-.553-.448-1-1-1s-1,.447-1,1v1.024c-1.121.12-2,1.06-2,2.212,0,.852.473,1.617,1.236,2l2.633,1.315c.081.041.131.122.131.212,0,.13-.106.236-.236.236h-2.764c-.552,0-1,.447-1,1s.448,1,1,1h1v1c0,.553.448,1,1,1s1-.447,1-1v-1.024c1.121-.12,2-1.06,2-2.212,0-.852-.473-1.617-1.236-2l-2.633-1.315c-.081-.041-.131-.122-.131-.212,0-.13.106-.236.236-.236Z"/>
  <circle cx="39" cy="14" r="1"/>
</svg>