<?xml version="1.0" encoding="UTF-8"?>
<svg id="Outline" xmlns="http://www.w3.org/2000/svg" version="1.1" viewBox="0 0 48 48">
  <!-- Generator: Adobe Illustrator 29.5.1, SVG Export Plug-In . SVG Version: 2.1.0 Build 141)  -->
  <path d="M39.99,17.96c0-.116-.027-.265-.08-.37-.01-.01-.01-.03-.02-.04l-2-4c-.17-.34-.51-.55-.89-.55h-1v-5c0-1.65-1.35-3-3-3H15c-1.65,0-3,1.35-3,3v5h-1c-.38,0-.72.21-.89.55l-2,4c-.01.01-.01.03-.02.04-.059.117-.09.279-.09.41v1c0,2.21,1.79,4,4,4v17c0,1.65,1.35,3,3,3h18c1.65,0,3-1.35,3-3v-17c2.21,0,4-1.79,4-4v-1c0-.01-.01-.02-.01-.04ZM21,7h6c.55,0,1,.45,1,1s-.45,1-1,1h-6c-.55,0-1-.45-1-1s.45-1,1-1ZM14,8c0-.55.45-1,1-1h3.18c-.11.31-.18.65-.18,1,0,1.65,1.35,3,3,3h6c1.65,0,3-1.35,3-3,0-.35-.07-.69-.18-1h3.18c.55,0,1,.45,1,1v5H14v-5ZM11.62,15h24.76l1,2H10.62l1-2ZM32,19c0,1.1-.9,2-2,2s-2-.9-2-2h4ZM26,19c0,1.1-.9,2-2,2s-2-.9-2-2h4ZM20,19c0,1.1-.9,2-2,2s-2-.9-2-2h4ZM12,21c-1.1,0-2-.9-2-2h4c0,1.1-.9,2-2,2ZM24,41c-.55,0-1-.45-1-1s.45-1,1-1,1,.45,1,1-.45,1-1,1ZM34,40c0,.55-.45,1-1,1h-6.18c.11-.31.18-.65.18-1s-.07-.69-.18-1h1.18c.55,0,1-.45,1-1s-.45-1-1-1h-8c-.55,0-1,.45-1,1s.45,1,1,1h1.18c-.11.31-.18.65-.18,1s.07.69.18,1h-6.18c-.55,0-1-.45-1-1v-17.56c.38-.22.71-.49,1-.82.73.84,1.8,1.38,3,1.38s2.27-.54,3-1.38c.73.84,1.8,1.38,3,1.38s2.27-.54,3-1.38c.73.84,1.8,1.38,3,1.38s2.27-.54,3-1.38c.29.33.62.6,1,.82v17.56ZM36,21c-1.1,0-2-.9-2-2h4c0,1.1-.9,2-2,2Z"/>
  <path d="M28,25h-8c-.553,0-1,.448-1,1v8c0,.552.447,1,1,1h8c.553,0,1-.448,1-1v-8c0-.552-.447-1-1-1ZM27,33h-6v-6h2v1c0,.552.447,1,1,1s1-.448,1-1v-1h2v6Z"/>
</svg>