<?xml version="1.0" encoding="UTF-8"?>
<svg id="Outline" xmlns="http://www.w3.org/2000/svg" version="1.1" viewBox="0 0 64 64">
  <!-- Generator: Adobe Illustrator 29.3.1, SVG Export Plug-In . SVG Version: 2.1.0 Build 151)  -->
  <path d="M56.96997,50.85999c0-.03003.01001-.07001,0-.09998l-2.96997-11.88V11c0-1.65002-1.34998-3-3-3H13c-1.65002,0-3,1.34998-3,3v27.88s-2.96997,11.88-2.96999,11.88006c-.01792.05381-.03001.18416-.03001.23993,0,2.76001,2.23999,5,5,5h40c2.76001,0,5-2.23999,5-5,0-.04999-.02002-.09003-.03003-.14001ZM12,11c0-.54999.45001-1,1-1h38c.54999,0,1,.45001,1,1v27H12V11ZM11.78003,40h40.43994l2.5,10H9.28003l2.5-10ZM52,54H12c-1.29999,0-2.41998-.84003-2.83002-2h45.66003c-.41003,1.15997-1.53003,2-2.83002,2Z"/>
  <path d="M50.84668,42.75781c-.11133-.44531-.51074-.75781-.96973-.75781H14.12305c-.45898,0-.8584.3125-.96973.75781l-1,4c-.0752.29883-.00781.61523.18164.85742.18945.24316.48047.38477.78809.38477h37.75391c.30762,0,.59863-.1416.78809-.38477.18945-.24219.25684-.55859.18164-.85742l-1-4ZM14.4043,46l.5-2h34.19141l.5,2H14.4043Z"/>
  <path d="M47,12h-30c-1.6543,0-3,1.3457-3,3v18c0,1.6543,1.3457,3,3,3h30c1.6543,0,3-1.3457,3-3V15c0-1.6543-1.3457-3-3-3ZM48,33c0,.55176-.44824,1-1,1h-30c-.55176,0-1-.44824-1-1V15c0-.55176.44824-1,1-1h30c.55176,0,1,.44824,1,1v18Z"/>
  <path d="M45,19c-1.10254,0-2-.89746-2-2,0-.55273-.44727-1-1-1h-20c-.55273,0-1,.44727-1,1,0,1.10254-.89746,2-2,2-.55273,0-1,.44727-1,1v8c0,.55273.44727,1,1,1,1.10254,0,2,.89746,2,2,0,.55273.44727,1,1,1h20c.55273,0,1-.44727,1-1,0-1.10254.89746-2,2-2,.55273,0,1-.44727,1-1v-8c0-.55273-.44727-1-1-1ZM44,27.12695c-1.40332.3623-2.51074,1.46973-2.87305,2.87305h-18.25391c-.3623-1.40332-1.46973-2.51074-2.87305-2.87305v-6.25391c1.40332-.3623,2.51074-1.46973,2.87305-2.87305h18.25391c.3623,1.40332,1.46973,2.51074,2.87305,2.87305v6.25391Z"/>
  <path d="M40,20h-16c-.55273,0-1,.44727-1,1s.44727,1,1,1h16c.55273,0,1-.44727,1-1s-.44727-1-1-1Z"/>
  <path d="M37,24h-10c-.55273,0-1,.44727-1,1s.44727,1,1,1h10c.55273,0,1-.44727,1-1s-.44727-1-1-1Z"/>
</svg>