<?xml version="1.0" encoding="UTF-8"?>
<svg id="Outline" xmlns="http://www.w3.org/2000/svg" version="1.1" viewBox="0 0 64 64">
  <!-- Generator: Adobe Illustrator 29.5.1, SVG Export Plug-In . SVG Version: 2.1.0 Build 141)  -->
  <path d="M20,45.071c1.654,0,3-1.346,3-3v-4c0-1.654-1.346-3-3-3s-3,1.346-3,3v4c0,1.654,1.346,3,3,3ZM19,38.071c0-.551.448-1,1-1s1,.449,1,1v4c0,.551-.448,1-1,1s-1-.449-1-1v-4Z"/>
  <path d="M34,45.071h4c.553,0,1-.448,1-1s-.447-1-1-1h-3v-2h3c.553,0,1-.448,1-1s-.447-1-1-1h-3v-2h3c.553,0,1-.448,1-1s-.447-1-1-1h-4c-.553,0-1,.448-1,1v8c0,.552.447,1,1,1Z"/>
  <path d="M42,45.071c.553,0,1-.448,1-1v-3.764l2.105,4.211c.462.923,1.895.583,1.895-.447v-8c0-.552-.447-1-1-1s-1,.448-1,1v3.764l-2.105-4.211c-.207-.415-.678-.633-1.124-.526-.451.106-.771.509-.771.973v8c0,.552.447,1,1,1Z"/>
  <path d="M56,26.07h-4.85c-.71-.22-1.43-.43-2.15-.63v-1.44c0-1.5-1.1-2.73-2.54-2.95l-11.51-11.51c-.22-1.44-1.45-2.54-2.95-2.54s-2.73,1.1-2.95,2.54l-11.51,11.51c-1.44.22-2.54,1.45-2.54,2.95v1.44c-.72.2-1.44.41-2.15.63h-4.85c-.55,0-1,.45-1,1v2.93c0,.55.45,1,1,1s1-.45,1-1v-1.93h4c.1,0,.2-.02.3-.05,12.13-3.82,25.27-3.82,37.4,0,.1.03.2.05.3.05h4v24h-4c-.1,0-.2.02-.3.05-12.13,3.82-25.27,3.82-37.4,0-.1-.03-.2-.05-.3-.05h-4v-14.07c0-.55-.45-1-1-1s-1,.45-1,1v15.07c0,.55.45,1,1,1h4.85c6.21,1.94,12.65,2.93,19.15,2.93s12.94-.99,19.15-2.93h4.85c.55,0,1-.45,1-1v-26c0-.55-.45-1-1-1ZM32,9c.55,0,1,.45,1,1s-.45,1-1,1-1-.45-1-1,.45-1,1-1ZM19,24.49c-.67.14-1.34.28-2,.44v-.93c0-.55.45-1,1-1s1,.45,1,1v.49ZM43,24v.11c-7.27-1.26-14.73-1.26-22,0v-.11c0-.98-.48-1.84-1.2-2.39l9.81-9.81c.55.72,1.41,1.2,2.39,1.2s1.84-.48,2.39-1.2l9.81,9.81c-.72.55-1.2,1.41-1.2,2.39ZM47,24.93c-.66-.16-1.33-.3-2-.44v-.49c0-.55.45-1,1-1s1,.45,1,1v.93Z"/>
  <path d="M52,30.07h-1.46l-.44-.14c-11.72-3.7-24.48-3.7-36.2,0l-.44.14h-1.46c-.55,0-1,.45-1,1v18c0,.55.45,1,1,1h1.46l.44.14c5.86,1.85,11.95,2.79,18.1,2.79s12.24-.94,18.1-2.79l.44-.14h1.46c.55,0,1-.45,1-1v-18c0-.55-.45-1-1-1ZM51,48.07h-.62c-.1,0-.2.02-.3.05l-.58.18c-11.34,3.58-23.66,3.58-35,0l-.58-.18c-.1-.03-.2-.05-.3-.05h-.62v-16h.62c.1,0,.2-.01.3-.05l.58-.18c11.34-3.58,23.66-3.58,35,0l.58.18c.1.04.2.05.3.05h.62v16Z"/>
  <path d="M28,35.07h-2c-.55,0-1,.45-1,1v8c0,.55.45,1,1,1s1-.45,1-1v-3h1c1.65,0,3-1.34,3-3,0-1.65-1.35-3-3-3ZM28,39.07h-1v-2h1c.55,0,1,.45,1,1s-.45,1-1,1Z"/>
  <circle cx="8" cy="34" r="1"/>
</svg>