<?xml version="1.0" encoding="UTF-8"?>
<svg id="Outline" xmlns="http://www.w3.org/2000/svg" version="1.1" viewBox="0 0 64 64">
  <!-- Generator: Adobe Illustrator 29.5.1, SVG Export Plug-In . SVG Version: 2.1.0 Build 141)  -->
  <path d="M56.56,25.652l-3.81-2.65,3.81-2.65c.28-.19.44-.52.43-.86-.02-.34-.2-.65-.5-.83l-7.72-4.47-.64-6.29c-.06-.55-.54-.95-1.1-.9l-8.44.86c-.17.02-.32.09-.46.18l-.65-.38c-.34-.19-.75-.17-1.07.05l-4.41,3.07-4.41-3.07c-.31-.22-.75-.24-1.08-.05l-.65.38c-.14-.09-.3-.16-.47-.18l-8.44-.86c-.56-.05-1.04.35-1.1.9l-.64,6.3-7.7,4.46c-.3.18-.48.49-.5.83-.01.34.15.67.43.86l3.81,2.65-3.81,2.65c-.28.19-.44.52-.43.86.02.34.2.65.5.83l4.5,2.6c0,.02-.01.04-.01.06v5c0,.55.45,1,1,1s1-.45,1-1v-3.91l12.52,7.25c.15.09.33.13.5.13.2,0,.4-.06.57-.18l3.41-2.37v18.35l-17-9.85v-1.42c0-.55-.45-1-1-1s-1,.45-1,1v2c0,.36.19.69.5.87l19,11c.02.01.05.01.07.03.03.01.06.02.09.03.11.04.22.07.34.07s.23-.03.34-.07c.03-.01.06-.02.09-.03.02-.02.05-.02.07-.03l19-11c.31-.18.5-.51.5-.87v-15c0-.02-.01-.04-.01-.06l4.5-2.6c.3-.18.48-.49.5-.83.01-.34-.15-.67-.43-.86ZM47.36,17.222c.31.25.75.29,1.1.1.28-.14.46-.4.51-.7l5.16,2.99-3.18,2.21-7.45-4.32c.3-.39.62-.77.97-1.13l.81-.85,2.08,1.7ZM37.03,9.712l2.82,1.63c-.84.85-1.6,1.76-2.28,2.73l-3.71-2.15,3.17-2.21ZM26.97,9.712l3.17,2.21-3.73,2.16c-.67-.97-1.43-1.89-2.27-2.73l2.83-1.64ZM9.87,19.612l5.14-2.98c.06.29.24.55.51.69.35.19.79.15,1.1-.1l2.08-1.7.81.85c.35.36.67.74.98,1.14l-7.44,4.31-3.18-2.21ZM26.97,36.292l-17.1-9.9,3.18-2.21,17.09,9.9-3.17,2.21ZM32,32.842l-17.01-9.84,6.6-3.82c1.16,2.06,1.8,4.4,1.8,6.82,0,.55.45,1,1,1s1-.45,1-1c0-4.13-1.58-8.04-4.44-11.02l-1.45-1.51c-.36-.37-.95-.41-1.35-.08l-.92.75.51-5.04,5.05.51-.92.75c-.05.04-.08.1-.12.15-.02.02-.04.04-.06.06-.05.09-.1.17-.13.27-.01.03-.01.06-.02.09-.01.06-.04.11-.04.16,0,.04.02.08.02.13,0,.04.01.08.02.12.02.09.04.17.09.25.01.01,0,.03.01.05.02.04.06.06.08.09.03.04.05.09.08.12l.66.63c3.64,3.52,5.73,8.45,5.73,13.52,0,.55.45,1,1,1s1-.45,1-1c0-3.6-.97-7.12-2.71-10.23l4.52-2.61,4.51,2.61c-1.75,3.1-2.72,6.63-2.72,10.23,0,.55.45,1,1,1s1-.45,1-1c0-5.07,2.09-10,5.73-13.52l.66-.63c.03-.03.05-.08.08-.12.03-.04.06-.06.09-.1.01-.02.01-.04.02-.06.03-.06.04-.13.06-.19.02-.07.03-.14.04-.21,0-.03.01-.05.01-.08s-.02-.06-.03-.1c-.01-.08-.02-.15-.05-.22-.02-.05-.05-.1-.08-.15-.04-.07-.09-.12-.14-.18-.03-.03-.04-.06-.07-.08l-.92-.75,5.05-.51.51,5.04-.92-.75c-.4-.33-.99-.29-1.35.08l-1.45,1.51c-.69.72-1.3,1.49-1.84,2.31,0,.01-.01.01-.02.02v.01c-1.68,2.56-2.58,5.56-2.58,8.68,0,.55.45,1,1,1s1-.45,1-1c0-2.43.64-4.76,1.81-6.83l6.6,3.83-17,9.84ZM50,44.422l-17,9.85v-18.35l3.41,2.37c.282.196.631.226.95.11.05-.02.09-.04.13-.06l12.51-7.25v13.33ZM37.03,36.292l-3.17-2.21,17.09-9.9,3.18,2.21-17.1,9.9Z"/>
  <circle cx="12.99" cy="39.002" r="1"/>
</svg>