<?xml version="1.0" encoding="UTF-8"?>
<svg id="Outline" xmlns="http://www.w3.org/2000/svg" version="1.1" viewBox="0 0 64 64">
  <!-- Generator: Adobe Illustrator 29.3.1, SVG Export Plug-In . SVG Version: 2.1.0 Build 151)  -->
  <path d="M56.02539,28.67334l-7.02539-6.44287v-12.23047c0-1.6543-1.3457-3-3-3h-28c-1.6543,0-3,1.3457-3,3v12.23041l-7.01953,6.43707c-.62305.56152-.98047,1.36816-.98047,2.2124v23.12012c0,1.6543,1.3457,3,3,3h44c1.6543,0,3-1.3457,3-3v-23.12012c0-.84424-.35742-1.65088-.97461-2.20654ZM54.97766,54.11035l-15.11169-10.06769,15.13403-11.9754v21.93274c0,.03912-.01794.07239-.02234.11035ZM9,54v-21.93274l15.13403,11.9754-15.11169,10.06769c-.00439-.03796-.02234-.07123-.02234-.11035ZM31.99512,41.20215l20.71082,13.79785H11.29321l20.7019-13.79785ZM54.45618,29.94788l-5.45618,4.31738v-9.32159l5.45618,5.00421ZM18,9h28c.55176,0,1,.44873,1,1v25.84784l-8.88342,7.02936-5.01208-3.33911c-.66992-.44727-1.53711-.44727-2.20898,0l-5.01208,3.33911-8.88342-7.02936V10c0-.55127.44824-1,1-1ZM15,34.26526l-5.45648-4.31763,5.45648-5.00403v9.32166Z"/>
  <path d="M34,47h-4c-1.6543,0-3,1.3457-3,3s1.3457,3,3,3h4c1.6543,0,3-1.3457,3-3s-1.3457-3-3-3ZM34,51h-4c-.55176,0-1-.44873-1-1s.44824-1,1-1h4c.55176,0,1,.44873,1,1s-.44824,1-1,1Z"/>
  <path d="M46,11h-24c-.55273,0-1,.44775-1,1s.44727,1,1,1h24c.55273,0,1-.44775,1-1s-.44727-1-1-1Z"/>
  <path d="M20,17h24c.55273,0,1-.44775,1-1s-.44727-1-1-1h-24c-.55273,0-1,.44775-1,1s.44727,1,1,1Z"/>
  <path d="M22,19c-.55273,0-1,.44775-1,1v4c0,.55225.44727,1,1,1h20c.55273,0,1-.44775,1-1v-4c0-.55225-.44727-1-1-1h-20ZM41,23h-18v-2h18v2Z"/>
  <path d="M20,29h24c.55273,0,1-.44775,1-1s-.44727-1-1-1h-24c-.55273,0-1,.44775-1,1s.44727,1,1,1Z"/>
  <path d="M20,33h24c.55273,0,1-.44775,1-1s-.44727-1-1-1h-24c-.55273,0-1,.44775-1,1s.44727,1,1,1Z"/>
</svg>