<?xml version="1.0" encoding="UTF-8"?>
<svg id="Outline" xmlns="http://www.w3.org/2000/svg" version="1.1" viewBox="0 0 64 64">
  <!-- Generator: Adobe Illustrator 29.5.1, SVG Export Plug-In . SVG Version: 2.1.0 Build 141)  -->
  <path d="M56,43.924h-13.71c.47-1.61.71-3.29.71-5,0-8.89-6.49-16.28-14.98-17.73.12-3.28,1.42-6.4,3.67-8.8.55-.58.85-1.34.85-2.12,0-.69-.25-1.37-.69-1.9-.55-.66-1.36-1.05-2.21-1.07-.87-.04-1.71.32-2.31.96-1.23,1.3-2.25,2.76-3.07,4.32-.23-1.29-.72-2.62-1.72-3.62-2.69-2.69-7.76-1.73-7.98-1.69-.39.08-.71.39-.78.79-.05.21-1,5.28,1.68,7.97,1.56,1.55,3.9,1.89,5.64,1.89.49,0,.93-.03,1.29-.06-.21,1.08-.34,2.19-.37,3.3-2.98.49-5.76,1.72-8.16,3.63-.43.34-.51.97-.16,1.4.34.43.97.51,1.4.16,2.84-2.24,6.26-3.43,9.9-3.43,8.82,0,16,7.18,16,16,0,1.72-.28,3.4-.81,5h-2.12c.61-1.58.93-3.29.93-5,0-7.72-6.28-14-14-14-4.97,0-9.61,2.68-12.11,7-1.24,2.12-1.89,4.54-1.89,7,0,7.72,6.28,14,14,14,3.33,0,6.46-1.15,8.98-3.27.26.63.59,1.22.96,1.78-2.82,2.25-6.31,3.49-9.94,3.49-8.82,0-16-7.18-16-16,0-3.64,1.19-7.06,3.43-9.9.35-.43.27-1.06-.16-1.4-.43-.35-1.06-.27-1.4.16-2.53,3.19-3.87,7.04-3.87,11.14,0,9.92,8.07,18,18,18,4.07,0,7.99-1.39,11.16-3.91,2.2,2.4,5.34,3.91,8.84,3.91,2.45,0,4.81-.73,6.8-2.12.45-.31.57-.94.25-1.39-.31-.45-.94-.57-1.39-.25-1.66,1.15-3.62,1.76-5.66,1.76-5.18,0-9.45-3.95-9.95-9h2.01c.5,3.94,3.87,7,7.94,7s7.44-3.06,7.94-7h2.01c-.16,1.68-.75,3.27-1.71,4.66-.32.45-.2,1.08.25,1.39.45.32,1.08.21,1.39-.25,1.39-1.99,2.12-4.35,2.12-6.8,0-.55-.45-1-1-1ZM19.71,11.794c-.39-.39-1.03-.39-1.42,0-.39.39-.39,1.02,0,1.41l2.72,2.72c-1.36-.01-3.08-.25-4.13-1.3-1.46-1.46-1.37-4.2-1.24-5.48,1.29-.14,4.03-.22,5.48,1.23,1.05,1.06,1.3,2.77,1.3,4.13l-2.71-2.71ZM25,20.924c-.32,0-.64.02-.96.04.18-4.23,1.85-8.24,4.75-11.33.2-.22.5-.33.79-.33s.55.13.73.35c.15.18.23.4.23.62,0,.27-.11.53-.31.75-2.55,2.72-4.02,6.24-4.2,9.95-.34-.02-.68-.05-1.03-.05ZM14.16,44.034c-.74-1.56-1.16-3.28-1.16-5.11,0-1.77.42-3.51,1.17-5.1l8.83,5.1-8.84,5.11ZM24,50.874c-3.66-.3-6.86-2.25-8.85-5.11l8.85-5.11v10.22ZM24,37.194l-8.82-5.1c2.04-2.93,5.28-4.8,8.82-5.1v10.2ZM26,26.974c3.66.3,6.86,2.25,8.85,5.11l-8.85,5.11v-10.22ZM26,50.874v-10.22l7.04,4.07c-.01.07-.04.13-.04.2,0,.91.11,1.79.3,2.64-2,1.93-4.55,3.08-7.3,3.31ZM35.88,43.924h-.22l-8.66-5,8.84-5.11c.74,1.56,1.16,3.28,1.16,5.11,0,1.73-.4,3.45-1.12,5ZM39.09,45.924h3.5l-2.48,2.47c-.51-.72-.87-1.56-1.02-2.47ZM45,50.924c-1.29,0-2.49-.42-3.47-1.11l3.47-3.48,3.47,3.48c-.98.69-2.18,1.11-3.47,1.11ZM49.89,48.394l-2.48-2.47h3.5c-.15.91-.51,1.75-1.02,2.47Z"/>
</svg>