<?xml version="1.0" encoding="UTF-8"?>
<svg id="Outline" xmlns="http://www.w3.org/2000/svg" version="1.1" viewBox="0 0 64 64">
  <!-- Generator: Adobe Illustrator 29.5.1, SVG Export Plug-In . SVG Version: 2.1.0 Build 141)  -->
  <path d="M51.75,38.249c-.42-.41-.87-.8-1.34-1.16.23-.2.46-.4.68-.62,6.53-6.54,4.61-18.75,4.53-19.26-.07-.43-.41-.76-.83-.83-.3-.05-7.19-1.13-13.41,1.03-2.85-5.9-8.48-10-8.8-10.22-.35-.25-.81-.25-1.16,0-.32.22-5.95,4.32-8.8,10.22-6.22-2.16-13.11-1.08-13.41-1.03-.42.07-.76.4-.83.83-.08.51-2,12.72,4.53,19.26.22.22.45.42.68.62-.47.37-.92.75-1.34,1.16-5.71,5.72-5.26,15.21-5.24,15.61.03.51.44.92.94.95.07,0,.34.02.79.02,2.44,0,9.99-.42,14.83-5.26.32-.33.63-.68.93-1.04,1.12,5.03,4.06,8.47,7.5,8.47s6.38-3.44,7.5-8.47c.3.36.61.71.93,1.04,4.84,4.84,12.39,5.26,14.84,5.26.44,0,.71-.02.78-.02.5-.03.91-.44.94-.95.02-.4.47-9.89-5.24-15.61ZM41.81,29.619c1.97-3.13,4.99-5.5,8.51-6.67.52-.18.8-.74.63-1.27-.18-.52-.74-.8-1.27-.63-2.53.84-4.82,2.24-6.73,4.06.03-.37.05-.74.05-1.11,0-1.66-.32-3.25-.85-4.75,4.59-1.56,9.72-1.2,11.59-.99.29,2.65.89,11.83-4.07,16.79-4.2,4.21-11.43,4.41-15.15,4.19,2.14-1.88,5.52-5.33,7.29-9.62ZM32,9.259c2.08,1.66,9,7.73,9,14.74,0,5.53-4.3,10.46-7.14,13.11l2.93-10.23c1.27-.35,2.21-1.5,2.21-2.88,0-1.65-1.35-3-3-3s-3,1.35-3,3c0,1.21.72,2.25,1.75,2.72l-2.75,9.64-2.75-9.64c1.03-.47,1.75-1.51,1.75-2.72,0-1.65-1.35-3-3-3s-3,1.35-3,3c0,1.38.94,2.53,2.21,2.88l2.93,10.23c-2.84-2.65-7.14-7.58-7.14-13.11,0-7.01,6.92-13.08,9-14.74ZM35,23.999c0-.55.45-1,1-1s1,.45,1,1-.45,1-1,1-1-.45-1-1ZM29,23.999c0,.55-.45,1-1,1s-1-.45-1-1,.45-1,1-1,1,.45,1,1ZM10.26,18.259c1.87-.2,7-.57,11.59.99-.53,1.5-.85,3.09-.85,4.75,0,.37.02.74.05,1.11-1.91-1.82-4.2-3.22-6.73-4.06-.53-.17-1.09.11-1.27.63-.17.53.11,1.09.63,1.27,3.52,1.17,6.54,3.54,8.51,6.67,1.77,4.29,5.15,7.74,7.29,9.62-3.72.22-10.95.02-15.15-4.19-4.96-4.96-4.36-14.14-4.07-16.79ZM22.15,48.149c-4.1,4.11-10.71,4.62-13.15,4.67.04-2.43.56-9.04,4.67-13.15.48-.49,1.03-.92,1.61-1.33,3.32,2.1,7.35,2.79,10.64,2.94-.79,2.85-2.06,5.16-3.77,6.87ZM32,54.999c-2.84,0-5.33-3.81-5.87-8.9.78-1.42,1.39-3.02,1.85-4.79,2.02-.03,3.52-.22,4.02-.3.5.08,2,.27,4.02.3.46,1.77,1.07,3.37,1.85,4.79-.54,5.09-3.03,8.9-5.87,8.9ZM41.85,48.149c-1.71-1.71-2.98-4.02-3.77-6.87,3.29-.15,7.33-.84,10.64-2.94.58.41,1.13.84,1.61,1.33,4.1,4.1,4.62,10.71,4.67,13.15-2.44-.05-9.06-.56-13.15-4.67Z"/>
</svg>