<?xml version="1.0" encoding="UTF-8"?>
<svg id="Outline" xmlns="http://www.w3.org/2000/svg" version="1.1" viewBox="0 0 64 64">
  <!-- Generator: Adobe Illustrator 29.5.1, SVG Export Plug-In . SVG Version: 2.1.0 Build 141)  -->
  <path d="M17.001,36v4c0,.553.447,1,1,1h4c.553,0,1-.447,1-1v-4c0-.553-.447-1-1-1h-4c-.553,0-1,.447-1,1ZM19.001,37h2v2h-2v-2Z"/>
  <path d="M26.001,37h12c.553,0,1-.447,1-1s-.447-1-1-1h-12c-.553,0-1,.447-1,1s.447,1,1,1Z"/>
  <path d="M26.001,41h8c.553,0,1-.447,1-1s-.447-1-1-1h-8c-.553,0-1,.447-1,1s.447,1,1,1Z"/>
  <path d="M22.001,43h-4c-.553,0-1,.447-1,1v4c0,.553.447,1,1,1h4c.553,0,1-.447,1-1v-4c0-.553-.447-1-1-1ZM21.001,47h-2v-2h2v2Z"/>
  <path d="M26.001,45h12c.553,0,1-.447,1-1s-.447-1-1-1h-12c-.553,0-1,.447-1,1s.447,1,1,1Z"/>
  <path d="M26.001,49h8c.553,0,1-.447,1-1s-.447-1-1-1h-8c-.553,0-1,.447-1,1s.447,1,1,1Z"/>
  <path d="M50.711,27.29c-1.09-1.08-1.71-2.58-1.71-4.12v-1.17c0-3.52-2.61-6.43-6-6.92v-5.08c0-1.65-1.35-3-3-3h-24c-1.65,0-3,1.35-3,3v44c0,1.65,1.35,3,3,3h24c1.65,0,3-1.35,3-3v-21.1c1.96-.4,3.5-1.94,3.9-3.9h3.1c.4,0,.77-.24.92-.62.16-.37.07-.8-.21-1.09ZM15.001,10c0-.55.45-1,1-1h24c.55,0,1,.45,1,1v1.18c-.31-.11-.65-.18-1-.18h-24c-.35,0-.69.07-1,.18v-1.18ZM41.001,54c0,.55-.45,1-1,1h-24c-.55,0-1-.45-1-1v-1.18c.31.11.65.18,1,.18h24c.35,0,.69-.07,1-.18v1.18ZM41.001,50c0,.55-.45,1-1,1h-24c-.55,0-1-.45-1-1V14c0-.55.45-1,1-1h24c.55,0,1,.45,1,1v1.08c-1.56.22-2.95.96-4,2.03v-1.11c0-.55-.45-1-1-1h-16c-.55,0-1,.45-1,1v16c0,.55.45,1,1,1h16c.55,0,1-.45,1-1v-3h.1c.4,1.96,1.94,3.5,3.9,3.9v17.1ZM33.081,28.38c.15.38.52.62.92.62h1v2h-14v-14h2v5c0,.55.45,1,1,1h8c.55,0,1-.45,1-1v-5h2v6.17c0,1.54-.62,3.04-1.71,4.12-.28.29-.37.72-.21,1.09ZM25.001,21v-4h6v4h-6ZM42.001,31c-1.3,0-2.4-.84-2.82-2h5.64c-.42,1.16-1.52,2-2.82,2ZM36.001,27c.65-1.16,1-2.49,1-3.83v-1.17c0-2.76,2.24-5,5-5s5,2.24,5,5v1.17c0,1.34.35,2.67,1,3.83h-12Z"/>
</svg>