<?xml version="1.0" encoding="UTF-8"?>
<svg id="Outline" xmlns="http://www.w3.org/2000/svg" version="1.1" viewBox="0 0 64 64">
  <!-- Generator: Adobe Illustrator 29.3.1, SVG Export Plug-In . SVG Version: 2.1.0 Build 151)  -->
  <path d="M16,43c-1.6543,0-3,1.3457-3,3v4c0,1.6543,1.3457,3,3,3s3-1.3457,3-3v-4c0-1.6543-1.3457-3-3-3ZM17,50c0,.55176-.44873,1-1,1s-1-.44824-1-1v-4c0-.55176.44873-1,1-1s1,.44824,1,1v4Z"/>
  <path d="M30,43c-.55225,0-1,.44727-1,1v8c0,.55273.44775,1,1,1,2.75684,0,5-2.24316,5-5s-2.24316-5-5-5ZM31,50.8291v-5.6582c1.16406.41309,2,1.52539,2,2.8291s-.83594,2.41602-2,2.8291Z"/>
  <path d="M42,45c.55225,0,1-.44727,1-1s-.44775-1-1-1h-4c-.55225,0-1,.44727-1,1v8c0,.55273.44775,1,1,1h4c.55225,0,1-.44727,1-1s-.44775-1-1-1h-3v-2h3c.55225,0,1-.44727,1-1s-.44775-1-1-1h-3v-2h3Z"/>
  <path d="M54,7H10c-1.65002,0-3,1.34998-3,3v44c0,1.64996,1.34998,3,3,3h44c1.65002,0,3-1.35004,3-3V10c0-1.65002-1.34998-3-3-3ZM16.71997,9h4.89001l-1.32996,4h-4.89001l1.32996-4ZM9,10c0-.54999.45001-1,1-1h4.60999l-1.32996,4h-4.28003v-3ZM9,15h24v24H9V15ZM55,54c0,.54999-.45001,1-1,1H10c-.54999,0-1-.45001-1-1v-13h25c.54999,0,1-.45001,1-1V15h20v39ZM55,13H22.39001l1.32996-4h30.28003c.54999,0,1,.45001,1,1v3Z"/>
  <path d="M50.71002,51.28998l-2.33002-2.33002c1.46997-.19,2.62-1.42999,2.62-2.95996,0-1.65002-1.34998-3-3-3h-2c-.54999,0-1,.45001-1,1v8c0,.54999.45001,1,1,1s1-.45001,1-1v-1.59003s2.28003,2.29004,2.28998,2.29999c.37.36005,1.03003.38,1.42004,0,.38995-.38995.38995-1.02997,0-1.41998ZM47,47v-2h1c.54999,0,1,.45001,1,1s-.45001,1-1,1h-1Z"/>
  <path d="M26.71002,51.28998l-2.33002-2.33002c1.46997-.19,2.62-1.42999,2.62-2.95996,0-1.65002-1.34998-3-3-3h-2c-.54999,0-1,.45001-1,1v8c0,.54999.45001,1,1,1s1-.45001,1-1v-1.59003l2.28998,2.29999c.19992.18991.44977.28994.70965.29004.87839.00032,1.32882-1.09149.71039-1.71002ZM23,47v-2h1c.54999,0,1,.45001,1,1s-.45001,1-1,1h-1Z"/>
  <path d="M29,23.17999v-1.17999c0-2.76001-2.23999-5-5-5-.90997,0-1.76001.26001-2.5.70001-.73999-.44-1.59003-.70001-2.5-.70001-2.76001,0-5,2.23999-5,5v1c-1.65002,0-3,1.34998-3,3v8c0,1.64996,1.34998,3,3,3h14c1.65002,0,3-1.35004,3-3v-8c0-1.29999-.84003-2.40002-2-2.82001ZM24,19c1.65002,0,3,1.34998,3,3v1h-3v-1c0-1.06-.34003-2.04004-.90002-2.85004.29004-.08997.58002-.14996.90002-.14996ZM21,22c0-.60999.19-1.17999.5-1.65002.31.47003.5,1.04004.5,1.65002v1h-1v-1ZM16,22c0-1.65002,1.34998-3,3-3,.32001,0,.60999.06.90002.14996-.56.81-.90002,1.79004-.90002,2.85004v1h-3v-1ZM25,34c0,.54999-.45001,1-1,1h-10c-.54999,0-1-.45001-1-1v-8c0-.54999.45001-1,1-1h10c.54999,0,1,.45001,1,1v8ZM29,34c0,.54999-.45001,1-1,1h-1.17999c.10999-.31.17999-.65002.17999-1v-8c0-.35004-.07001-.69-.17999-1h1.17999c.54999,0,1,.45001,1,1v8Z"/>
  <path d="M52,17h-14c-.55225,0-1,.44727-1,1s.44775,1,1,1h14c.55225,0,1-.44727,1-1s-.44775-1-1-1Z"/>
  <path d="M52,21h-14c-.55225,0-1,.44727-1,1s.44775,1,1,1h14c.55225,0,1-.44727,1-1s-.44775-1-1-1Z"/>
  <path d="M38,27h10c.55225,0,1-.44727,1-1s-.44775-1-1-1h-10c-.55225,0-1,.44727-1,1s.44775,1,1,1Z"/>
  <path d="M52,35h-14c-.55225,0-1,.44727-1,1v4c0,.55273.44775,1,1,1h14c.55225,0,1-.44727,1-1v-4c0-.55273-.44775-1-1-1ZM51,39h-12v-2h12v2Z"/>
  <path d="M38,33h8c.55225,0,1-.44727,1-1s-.44775-1-1-1h-8c-.55225,0-1,.44727-1,1s.44775,1,1,1Z"/>
</svg>