<?xml version="1.0" encoding="UTF-8"?>
<svg id="Outline" xmlns="http://www.w3.org/2000/svg" version="1.1" viewBox="0 0 48 48">
  <!-- Generator: Adobe Illustrator 29.5.1, SVG Export Plug-In . SVG Version: 2.1.0 Build 141)  -->
  <path d="M42.8,26.4l-3-4c-.19-.25-.49-.4-.8-.4h-4c0-.55-.45-1-1-1h-1v-2c2.21,0,4-1.79,4-4v-1c0-.01-.01-.02-.01-.04,0-.123-.008-.317-.1-.41l-2-4c-.17-.34-.51-.55-.89-.55h-1v-1c0-1.65-1.35-3-3-3H12c-1.65,0-3,1.35-3,3v1h-1c-.38,0-.72.21-.89.55l-2,4c-.01.01-.01.029-.019.039-.084.092-.09.291-.09.411v1c0,2.21,1.79,4,4,4v21c0,1.65,1.35,3,3,3h18c1.65,0,3-1.35,3-3v-7h2.18c.42,1.16,1.52,2,2.82,2s2.4-.84,2.82-2h1.18c.55,0,1-.45,1-1v-5c0-.22-.07-.43-.2-.6ZM35,15c0,1.1-.9,2-2,2s-2-.9-2-2h4ZM26.82,7h3.18c.55,0,1,.45,1,1v1h-4.18c.11-.31.18-.65.18-1s-.07-.69-.18-1ZM18,7h6c.55,0,1,.45,1,1s-.45,1-1,1h-6c-.55,0-1-.45-1-1s.45-1,1-1ZM11,8c0-.55.45-1,1-1h3.18c-.11.31-.18.65-.18,1s.07.69.18,1h-4.18v-1ZM8.62,11h24.76l1,2H7.62l1-2ZM29,15c0,1.1-.9,2-2,2s-2-.9-2-2h4ZM23,15c0,1.1-.9,2-2,2s-2-.9-2-2h4ZM17,15c0,1.1-.9,2-2,2s-2-.9-2-2h4ZM9,17c-1.1,0-2-.9-2-2h4c0,1.1-.9,2-2,2ZM21,41c-.55,0-1-.45-1-1s.45-1,1-1,1,.45,1,1-.45,1-1,1ZM31,40c0,.55-.45,1-1,1h-6.18c.11-.31.18-.65.18-1s-.07-.69-.18-1h1.18c.55,0,1-.45,1-1s-.45-1-1-1h-8c-.55,0-1,.45-1,1s.45,1,1,1h1.18c-.11.31-.18.65-.18,1s.07.69.18,1h-6.18c-.55,0-1-.45-1-1v-21.56c.38-.22.71-.49,1-.82.73.84,1.8,1.38,3,1.38s2.27-.54,3-1.38c.73.84,1.8,1.38,3,1.38s2.27-.54,3-1.38c.73.84,1.8,1.38,3,1.38s2.27-.54,3-1.38c.29.33.62.6,1,.82v2.56h-7c-.55,0-1,.45-1,1v10c0,.55.45,1,1,1h1.18c.42,1.16,1.52,2,2.82,2s2.4-.84,2.82-2h.18v7ZM27,32c0-.55.45-1,1-1s1,.45,1,1-.45,1-1,1-1-.45-1-1ZM33,31h-2.18c-.42-1.16-1.52-2-2.82-2s-2.4.84-2.82,2h-.18v-8h8v8ZM38,33c-.55,0-1-.45-1-1s.45-1,1-1,1,.45,1,1-.45,1-1,1ZM41,31h-.18c-.42-1.16-1.52-2-2.82-2s-2.4.84-2.82,2h-.18v-7h3.5l2.5,3.33v3.67Z"/>
</svg>