<?xml version="1.0" encoding="UTF-8"?>
<svg id="Outline" xmlns="http://www.w3.org/2000/svg" version="1.1" viewBox="0 0 64 64">
  <!-- Generator: Adobe Illustrator 29.5.1, SVG Export Plug-In . SVG Version: 2.1.0 Build 141)  -->
  <path d="M45.486,24.552l-5.722-3.269c.145-1.063.236-2.157.236-3.283,0-5.333-1.752-11-5-11s-4.998,5.66-5,10.991l-11.487,6.561c-.934.534-1.514,1.533-1.514,2.608v26.84c0,1.654,1.346,3,3,3h24c1.654,0,3-1.346,3-3v-14c0-.553-.447-1-1-1s-1,.447-1,1v14c0,.552-.448,1-1,1h-24c-.552,0-1-.448-1-1v-26.84c0-.365.189-.69.506-.872l10.598-6.053c.067.76.169,1.505.307,2.231-.844.531-1.411,1.465-1.411,2.534,0,1.654,1.346,3,3,3s3-1.346,3-3c0-1.522-1.143-2.769-2.613-2.961-.173-.915-.285-1.867-.333-2.857l12.44,7.106c.316.182.506.507.506.872v4.84c0,.553.447,1,1,1s1-.447,1-1v-4.84c0-1.075-.58-2.074-1.514-2.608ZM33,25c0,.552-.448,1-1,1s-1-.448-1-1,.448-1,1-1,1,.448,1,1ZM32.02,17.003c.198-4.917,1.832-8.003,2.98-8.003,1.224,0,3,3.506,3,9,0,.752-.047,1.487-.117,2.209l-5.387-3.077c-.147-.084-.311-.126-.476-.129Z"/>
  <path d="M31.161,31.455c-.72,1.108-7.036,10.941-7.036,14.92,0,4.024,3.091,6.625,7.875,6.625s7.875-2.601,7.875-6.625c0-3.979-6.316-13.812-7.036-14.92-.369-.568-1.309-.568-1.678,0ZM33,50.946v-2.532l2.707-2.707c.391-.391.391-1.023,0-1.414s-1.023-.391-1.414,0l-1.293,1.293v-5.586c0-.553-.447-1-1-1s-1,.447-1,1v5.586l-1.293-1.293c-.391-.391-1.023-.391-1.414,0s-.391,1.023,0,1.414l2.707,2.707v2.532c-1.848-.194-4.875-1.049-4.875-4.571,0-2.506,3.694-8.988,5.875-12.506,2.181,3.518,5.875,10,5.875,12.506,0,3.522-3.027,4.377-4.875,4.571Z"/>
  <circle cx="46" cy="36" r="1"/>
</svg>