<?xml version="1.0" encoding="UTF-8"?>
<svg id="Outline" xmlns="http://www.w3.org/2000/svg" version="1.1" viewBox="0 0 64 64">
  <!-- Generator: Adobe Illustrator 29.5.1, SVG Export Plug-In . SVG Version: 2.1.0 Build 141)  -->
  <path d="M30.786,45c.078,0,.141-.003.214-.005v2.005h-3c-.553,0-1,.448-1,1s.447,1,1,1h8c.553,0,1-.448,1-1s-.447-1-1-1h-3v-11.005c.072.001.136.005.214.005,1.424,0,3.709-.266,5.218-1.775,2.281-2.281,1.722-6.336,1.696-6.508-.063-.438-.407-.782-.846-.846-.17-.024-4.227-.585-6.507,1.697-1.583,1.582-1.798,4.017-1.773,5.418,0,.005-.003.009-.003.014v3.369c-2.311-2.039-6.117-1.521-6.282-1.498-.438.064-.782.408-.846.846-.025.171-.585,4.227,1.696,6.508,1.509,1.509,3.794,1.775,5.218,1.775ZM34.189,29.982c1.085-1.085,2.941-1.211,4.015-1.187.026,1.06-.102,2.93-1.187,4.015-1.085,1.085-2.955,1.215-4.015,1.187-.026-1.06.102-2.93,1.187-4.015ZM25.796,37.796c1.07-.027,2.931.102,4.015,1.186,1.085,1.084,1.212,2.953,1.187,4.013-1.061.024-2.938-.107-4.015-1.184-1.086-1.085-1.213-2.956-1.187-4.015Z"/>
  <path d="M51,17h-1.22c-.72-2.71-2.27-5.15-4.46-6.96-2.41-1.96-5.43-3.04-8.52-3.04h-9.6c-6.11,0-11.44,4.16-12.98,10h-1.22c-.55,0-1,.45-1,1v6c0,.55.45,1,1,1h1.1l2.71,25.32c.17,1.53,1.45,2.68,2.99,2.68h1.2v3c0,.55.45,1,1,1h6c.55,0,1-.45,1-1v-3h6v3c0,.55.45,1,1,1h6c.55,0,1-.45,1-1v-3h1.2c1.54,0,2.82-1.15,2.99-2.68l2.71-25.32h1.1c.55,0,1-.45,1-1v-6c0-.55-.45-1-1-1ZM27.2,9h9.6c1.74,0,3.46.41,5.02,1.17-1.87,1.7-5.67,2.83-9.82,2.83s-7.95-1.13-9.82-2.83c1.53-.75,3.23-1.17,5.02-1.17ZM27,55h-4v-2h4v2ZM41,55h-4v-2h4v2ZM45.2,50.11c-.06.51-.48.89-1,.89h-24.4c-.52,0-.94-.38-1-.89l-2.69-25.11h31.78l-2.69,25.11ZM50,23H14v-4h4c.55,0,1-.45,1-1s-.45-1-1-1h-1.71c.74-2.35,2.21-4.35,4.13-5.77,2.16,2.29,6.62,3.77,11.58,3.77s9.42-1.48,11.58-3.76c.16.11.32.23.47.35,1.73,1.42,3,3.31,3.66,5.41h-21.71c-.55,0-1,.45-1,1s.45,1,1,1h24v4Z"/>
  <circle cx="22" cy="18" r="1"/>
</svg>