<?xml version="1.0" encoding="UTF-8"?>
<svg id="Outline" xmlns="http://www.w3.org/2000/svg" version="1.1" viewBox="0 0 64 64">
  <!-- Generator: Adobe Illustrator 29.5.1, SVG Export Plug-In . SVG Version: 2.1.0 Build 141)  -->
  <path d="M41.58,16h3.075c.979.488,2.031.726,3.075.726,1.785,0,3.544-.695,4.868-2.019.255-.255.353-.627.257-.974-.096-.347-.371-.615-.72-.703l-.503-.126c-2.025-.506-3.935-1.337-5.702-2.443-.062-.094-.122-.189-.214-.258,0,0-1.285-.974-2.404-1.803-1.221-.916-2.677-1.4-4.3-1.4-3.805,0-6.9,3.096-6.9,6.9v.55c0,1.189.307,2.365.885,3.396l2.59,4.671c.25.45.075.843-.012.99-.076.131-.285.412-.687.479l-1.184-.521c-3.735-1.647-7.89-1.76-11.694-.321-1.055.396-2.138.651-3.22.762-.55.057-.95.547-.894,1.097.056.549.541.936,1.096.894,1.253-.128,2.505-.424,3.723-.88,3.313-1.255,6.93-1.154,10.183.279,0,0,1.41.62,1.41.62,1.073.471,2.474-.514,2.991-1.395.544-.926.558-2.038.036-2.976l-2.592-4.674c-.414-.736-.632-1.573-.632-2.421v-.55c0-2.702,2.198-4.9,4.99-4.9,1.097,0,2.138.346,3.015,1.004.681.505,1.411,1.053,1.885,1.41.031.068.064.132.111.192v2.394h-2.53c-1.014,0-1.975.443-2.636,1.216-.661.772-.95,1.796-.791,2.812.175,1.09.919,2.061,1.986,2.595l2.715,1.371c2.788,1.391,4.719,4.062,5.167,7.149.072.498.5.856.988.856.048,0,.096-.003.145-.011.546-.079.925-.586.846-1.133-.542-3.735-2.879-6.97-6.249-8.649l-2.714-1.371c-.489-.244-.838-.676-.909-1.12-.069-.44.05-.866.335-1.199.281-.328.688-.517,1.117-.517ZM46.11,14.419v-1.535c1.101.592,2.243,1.098,3.429,1.493-1.085.433-2.299.44-3.429.042Z"/>
  <path d="M49.05,32.029c-.534-.129-1.078.194-1.21.73-.416,1.684-1.286,3.223-2.516,4.453-1.797,1.797-4.181,2.787-6.713,2.787h-7.901l.161-.804c.108-.542-.243-1.068-.784-1.177-.545-.112-1.069.242-1.177.784l-.191.957c-.416,2.079-2.014,3.755-4.07,4.27-.498.124-.82.604-.748,1.111l1,7c.07.492.492.858.99.858h1c1.304,0,2.416.836,2.829,2h-5.238c-.468,0-.869-.318-.974-.774l-2.541-11.011,4.439-6.215h2.485c4.411,0,8-3.589,8-8,0-.553-.448-1-1-1s-1,.447-1,1c0,3.309-2.691,6-6,6h-10.817c-.06-.067-.123-.131-.182-.199l.753-1.129c1.116-1.673,2.982-2.672,4.992-2.672h1.254c.552,0,1-.447,1-1s-.448-1-1-1h-1.254c-2.681,0-5.169,1.332-6.656,3.562l-.356.534c-1.194-1.858-1.989-3.982-2.271-6.241l-.108-.855h1.646c.552,0,1-.447,1-1s-.448-1-1-1h-2.78c-.287,0-.56.123-.75.339-.19.215-.278.502-.242.786l.25,1.979c.357,2.854,1.436,5.517,3.061,7.784l-.371.556c-.205.307-.224.701-.05,1.026.174.325.513.528.882.528h1.319c1.286,1.29,2.782,2.381,4.445,3.21l-1.578,2.209c-.167.233-.225.526-.161.806l2.643,11.45c.316,1.369,1.518,2.325,2.923,2.325h6.409c.552,0,1-.447,1-1,0-.212-.037-.415-.063-.62.505.978,1.507,1.62,2.654,1.62h6.409c.552,0,1-.447,1-1,0-1.323-.518-2.578-1.468-3.542-.954-.94-2.208-1.458-3.532-1.458h-.133l-.757-5.301c1.032-.395,1.968-1.017,2.744-1.83.563-.591,1.014-1.255,1.355-1.976,2.502-.323,4.82-1.448,6.638-3.266,1.488-1.487,2.54-3.351,3.043-5.387.133-.536-.195-1.078-.731-1.211ZM19.256,37h3.691l-1.109,1.553c-.919-.433-1.782-.954-2.581-1.553ZM26.89,51h-.133l-.758-5.304c1.169-.45,2.194-1.187,2.997-2.119l2.358,10.218c-.818-1.649-2.503-2.796-4.465-2.796ZM34.651,44.029c-.499.122-.824.604-.751,1.112l1,7c.07.492.492.858.99.858h1c.795,0,1.551.313,2.118.872.322.327.563.712.71,1.128h-5.237c-.468,0-.869-.318-.974-.774l-2.545-11.03.795-1.195h5.922c-.125.164-.237.337-.382.489-.725.761-1.64,1.293-2.645,1.54Z"/>
  <circle cx="38.89" cy="12" r="1"/>
</svg>