<?xml version="1.0" encoding="UTF-8"?>
<svg id="Outline" xmlns="http://www.w3.org/2000/svg" version="1.1" viewBox="0 0 64 64">
  <!-- Generator: Adobe Illustrator 29.3.1, SVG Export Plug-In . SVG Version: 2.1.0 Build 151)  -->
  <path d="M45,38.99934c0-.55273-.44775-1-1-1h-11v-16.17401c.78973.0896,1.57208.2796,2.32715.58221l1.30127.52051c.26562.10645.56348.09375.81885-.03418,2.28613-1.14453,4.9585-1.25488,7.33398-.30469l.84766.33887c.11949.0478.24531.07123.37066.07129.51991.00023,1.00044-.44759,1.00044-1,0-8.27148-6.729-15-15-15s-15,6.72852-15,15c0,.34668.17969.66895.47412.85059.29492.18262.66357.19922.97314.04395,2.28662-1.14453,4.9585-1.25488,7.33398-.30469l.84766.33887c.23828.0957.50439.0957.74268,0l1.30127-.52051c.75476-.30243,1.53717-.49249,2.32715-.58215v16.17395h-11c-.55225,0-1,.44727-1,1v4c0,.55273.44775,1,1,1h11v5h-4c-.48877,0-.90625.35352-.98633.83594l-1,6c-.09082.54395.27734,1.05957.82178,1.15039.55078.0957,1.06006-.27734,1.15088-.82227l.86084-5.16406h3.15283v5c0,.55273.44775,1,1,1s1-.44727,1-1v-5h3.15283l.86083,5.164c.21133,1.26777,2.1861.95027,1.97267-.32807l-1-6c-.08008-.48242-.49756-.83594-.98633-.83594h-4v-5h11c.55225,0,1-.44727,1-1v-4ZM44.91504,20.50911c-2.26025-.75171-4.70056-.7428-6.94574.0097-.16608-4.27478-1.05048-8.50208-2.58392-11.0636,5.06555,1.36902,8.9184,5.72253,9.52966,11.05389ZM22.4541,19.94856c-1.1377,0-2.27393.17676-3.36572.5293.62274-5.31757,4.4704-9.65692,9.52643-11.02301-1.53857,2.56989-2.4245,6.81665-2.58636,11.10577-1.16016-.4007-2.36646-.61206-3.57434-.61206ZM28.02863,20.51588c.27136-7.07733,2.44464-11.51654,3.97137-11.51654s3.70001,4.43921,3.97137,11.51654c-2.5661-.99915-5.37665-.99744-7.94275,0ZM43,41.99934h-22v-2h22v2Z"/>
  <path d="M18,44.99934h-5v-9c0-.55273-.44775-1-1-1h-4c-.55225,0-1,.44727-1,1v12c0,1.52594,1.14917,2.77527,2.62512,2.9621,0,0-1.57385,4.7215-1.57388,4.72158-.39616,1.18885,1.49871,1.82907,1.89749.63272l1.77216-5.31641h3.43213l.86066,5.16406c.08154.48926.50488.83594.98535.83594.0542,0,.10986-.00391.16553-.01367.54443-.09082.9126-.60645.82178-1.15039l-.80597-4.83594h.81964c.55225,0,1-.44727,1-1v-4c0-.55273-.44775-1-1-1ZM9,47.99934v-11h2v9c0,.55273.44775,1,1,1h5v2h-7c-.55127,0-1-.44824-1-1Z"/>
  <path d="M56,34.99934h-4c-.55225,0-1,.44727-1,1v9h-5c-.55225,0-1,.44727-1,1v4c0,.55273.44775,1,1,1h.81964l-.80596,4.83589c-.21141,1.26846,1.75991,1.60459,1.97265.32817l.86066-5.16406h3.43213l1.77216,5.31641c.13963.4189.5297.68353.94859.68359.67154.0001,1.16163-.67814.94887-1.31641l-1.57385-4.7215c1.47595-.18683,2.62512-1.43616,2.62512-2.9621v-12c0-.55273-.44775-1-1-1ZM55,47.99934c0,.55176-.44873,1-1,1h-7v-2h5c.55225,0,1-.44727,1-1v-9h2v11Z"/>
</svg>