<?xml version="1.0" encoding="UTF-8"?>
<svg id="Outline" xmlns="http://www.w3.org/2000/svg" version="1.1" viewBox="0 0 64 64">
  <!-- Generator: Adobe Illustrator 29.5.1, SVG Export Plug-In . SVG Version: 2.1.0 Build 141)  -->
  <path d="M52,20h-1v-6c0-2.21002-1.78998-4-4-4H11c-2.21002,0-4,1.78998-4,4v3c0,.54999.45001,1,1,1h5v2h-1c-2.76001,0-5,2.23999-5,5v26c0,1.64996,1.34998,3,3,3h44c1.65002,0,3-1.35004,3-3v-26c0-2.76001-2.23999-5-5-5ZM47,12c1.09998,0,2,.89996,2,2v17.58997l-11.40997,11.41003h-11.18005l-11.40997-11.41003V14c0-.73004-.21002-1.41003-.56-2h32.56ZM9,16v-2c0-1.10004.90002-2,2-2s2,.89996,2,2v2h-4ZM9,25c0-1.65002,1.34998-3,3-3h1v7.58997l-4-4v-.58997ZM9,50.58997v-22.17999l11.09003,11.09003-11.09003,11.08997ZM10.40997,52l11.09003-11.09003,3.78998,3.79999c.19.18005.44.29004.71002.29004h12c.27002,0,.52002-.10999.71002-.29004l3.78998-3.79999,11.09003,11.09003H10.40997ZM55,50.58997l-11.09003-11.08997,11.09003-11.09003v22.17999ZM55,25.58997l-4,4v-7.58997h1c1.65002,0,3,1.34998,3,3v.58997Z"/>
  <path d="M19.16073,33.89848c.38273.18665.84437.11055,1.1464-.19145l2.38525-2.38477c2.91602-2.91602,6.79297-4.52246,10.91699-4.52246h2.99072v2.60059c0,.4043.24365.76953.61719.92383.37451.15527.80371.06934,1.08984-.2168l7.19971-7.2002c.39062-.39062.39062-1.02344,0-1.41406l-7.19971-7.2002c-.28613-.28613-.71533-.37305-1.08984-.2168-.37354.1543-.61719.51953-.61719.92383v2.59961h-.68799c-8.77637,0-16.21582,6.56738-17.3042,15.27637-.05322.42383.16895.83496.55282,1.0225ZM35.91211,19.59961h1.68799c.55225,0,1-.44727,1-1v-1.18555l4.78564,4.78613-4.78564,4.78613v-1.18652c0-.55273-.44775-1-1-1h-3.99072c-4.60596,0-8.93896,1.77344-12.21924,4.99707,2.16748-5.99609,7.91699-10.19727,14.52197-10.19727Z"/>
</svg>