<?xml version="1.0" encoding="UTF-8"?>
<svg id="Outline" xmlns="http://www.w3.org/2000/svg" version="1.1" viewBox="0 0 64 64">
  <!-- Generator: Adobe Illustrator 29.3.1, SVG Export Plug-In . SVG Version: 2.1.0 Build 151)  -->
  <path d="M56,27c.54999,0,1-.45001,1-1v-14c0-2.76001-2.23999-5-5-5H12c-2.76001,0-5,2.23999-5,5v36c0,2.5,1.85999,4.57001,4.26001,4.92999.90997,2.41998,3.21997,4.07001,5.85999,4.07001h5.88c.54999,0,1-.45001,1-1s-.45001-1-1-1h-5.88c-1.5,0-2.84998-.78003-3.62-2h37c-.77002,1.21997-2.12,2-3.62,2h-19.88c-.54999,0-1,.45001-1,1s.45001,1,1,1h19.88c2.64001,0,4.95001-1.65002,5.85999-4.07001,2.40002-.35999,4.26001-2.42999,4.26001-4.92999v-18c0-.54999-.45001-1-1-1s-1,.45001-1,1v18c0,1.64996-1.34998,3-3,3H12c-1.65002,0-3-1.35004-3-3v-27h46v5c0,.54999.45001,1,1,1ZM9,19v-7c0-1.65002,1.34998-3,3-3h40c1.65002,0,3,1.34998,3,3v7H9Z"/>
  <path d="M14,11c-1.6543,0-3,1.3457-3,3s1.3457,3,3,3,3-1.3457,3-3-1.3457-3-3-3ZM14,15c-.55176,0-1-.44873-1-1s.44824-1,1-1,1,.44873,1,1-.44824,1-1,1Z"/>
  <path d="M22,11c-1.6543,0-3,1.3457-3,3s1.3457,3,3,3,3-1.3457,3-3-1.3457-3-3-3ZM22,15c-.55176,0-1-.44873-1-1s.44824-1,1-1,1,.44873,1,1-.44824,1-1,1Z"/>
  <path d="M50,11c-1.6543,0-3,1.3457-3,3s1.3457,3,3,3,3-1.3457,3-3-1.3457-3-3-3ZM50,15c-.55176,0-1-.44873-1-1s.44824-1,1-1,1,.44873,1,1-.44824,1-1,1Z"/>
  <path d="M42,11c-1.6543,0-3,1.3457-3,3s1.3457,3,3,3,3-1.3457,3-3-1.3457-3-3-3ZM42,15c-.55176,0-1-.44873-1-1s.44824-1,1-1,1,.44873,1,1-.44824,1-1,1Z"/>
  <path d="M15,23c-.55273,0-1,.44775-1,1v2c0,1.6543,1.3457,3,3,3h8.18433c.41412,1.1615,1.51373,2,2.81567,2h8c1.30194,0,2.40161-.8385,2.81573-2h8.18427c1.6543,0,3-1.3457,3-3v-2c0-.55225-.44727-1-1-1s-1,.44775-1,1v2c0,.55127-.44824,1-1,1h-8.18427c-.41412-1.1615-1.51379-2-2.81573-2h-8c-1.30194,0-2.40161.8385-2.81573,2h-8.18427c-.55176,0-1-.44873-1-1v-2c0-.55225-.44727-1-1-1ZM28,27h8c.55176,0,1,.44873,1,1s-.44824,1-1,1h-8c-.55176,0-1-.44873-1-1s.44824-1,1-1Z"/>
  <path d="M50,33H14c-1.65002,0-3,1.34998-3,3v10c0,1.64996,1.34998,3,3,3h36c1.65002,0,3-1.35004,3-3v-10c0-1.65002-1.34998-3-3-3ZM43,47h-22v-2h22v2ZM51,46c0,.54999-.45001,1-1,1h-5v-2h2c.54999,0,1-.45001,1-1s-.45001-1-1-1h-30c-.54999,0-1,.45001-1,1s.45001,1,1,1h2v2h-5c-.54999,0-1-.45001-1-1v-10c0-.54999.45001-1,1-1h36c.54999,0,1,.45001,1,1v10Z"/>
</svg>