<?xml version="1.0" encoding="UTF-8"?>
<svg id="Outline" xmlns="http://www.w3.org/2000/svg" version="1.1" viewBox="0 0 64 64">
  <!-- Generator: Adobe Illustrator 29.3.1, SVG Export Plug-In . SVG Version: 2.1.0 Build 151)  -->
  <path d="M54,7H10c-1.65002,0-3,1.34998-3,3v15c0,.54999.45001,1,1,1s1-.45001,1-1v-4h46v33c0,.54999-.45001,1-1,1H10c-.54999,0-1-.45001-1-1v-21c0-.54999-.45001-1-1-1s-1,.45001-1,1v21c0,1.64996,1.34998,3,3,3h44c1.65002,0,3-1.35004,3-3V10c0-1.65002-1.34998-3-3-3ZM55,19H9v-9c0-.54999.45001-1,1-1h44c.54999,0,1,.45001,1,1v9Z"/>
  <path d="M18,11h-6c-.55225,0-1,.44775-1,1v4c0,.55225.44775,1,1,1h6c.55225,0,1-.44775,1-1v-4c0-.55225-.44775-1-1-1ZM17,15h-4v-2h4v2Z"/>
  <path d="M52,11h-6c-.55225,0-1,.44775-1,1v4c0,.55225.44775,1,1,1h6c.55225,0,1-.44775,1-1v-4c0-.55225-.44775-1-1-1ZM51,15h-4v-2h4v2Z"/>
  <path d="M42,11h-20c-.55225,0-1,.44775-1,1v4c0,.55225.44775,1,1,1h20c.55225,0,1-.44775,1-1v-4c0-.55225-.44775-1-1-1ZM23,15v-2h4v2h-4ZM29,15v-2h6v2h-6ZM41,15h-4v-2h4v2Z"/>
  <path d="M52,23H12c-.54999,0-1,.45001-1,1v28c0,.54999.45001,1,1,1h40c.54999,0,1-.45001,1-1v-28c0-.54999-.45001-1-1-1ZM17,25h30v1c0,.54999-.45001,1-1,1h-28c-.54999,0-1-.45001-1-1v-1ZM51,51H13v-26h2v1c0,1.64996,1.34998,3,3,3h28c1.65002,0,3-1.35004,3-3v-1h2v26Z"/>
  <path d="M28.6958,33.05322l-3.18457-1.91064c-.30859-.18604-.69385-.19092-1.00732-.0127-.31348.17725-.50732.50977-.50732.87012v3.48047c0,.92773-.36133,1.80029-1.01709,2.45605l-.37646.37646c-1.12256,1.12256-1.70166,2.67432-1.58936,4.25732.11279,1.5835.90576,3.03809,2.17578,3.99072l2.98486,2.23877c.17663.13223.38738.20009.59962.2002.54986.00026,1.00047-.45201,1.00047-1v-3.09668c0-1.0874.51953-2.12598,1.38916-2.77832,1.46045-1.09521,2.27588-2.8374,2.18213-4.66064-.09424-1.82324-1.08496-3.47217-2.6499-4.41113ZM27.96338,40.5249c-1.37061,1.02832-2.18896,2.66504-2.18896,4.37842v1.09668l-1.38477-1.03857c-.80615-.60498-1.30957-1.52783-1.38086-2.53271s.29639-1.98926,1.0083-2.70166l.37646-.37646c1.03369-1.03369,1.60303-2.4082,1.60303-3.87012v-1.71436l1.66992,1.00195c1.0083.60498,1.62109,1.625,1.68164,2.79932s-.44385,2.25195-1.38477,2.95752Z"/>
  <path d="M40.6958,33.05322l-3.18457-1.91064c-.30957-.18604-.69385-.19092-1.00732-.0127-.31348.17725-.50732.50977-.50732.87012v3.48047c0,.92773-.36133,1.80029-1.01709,2.45605l-.37646.37646c-1.12256,1.12256-1.70166,2.67432-1.58936,4.25732.11279,1.5835.90576,3.03809,2.17578,3.99072l2.98486,2.23877c.17668.13227.38752.20014.59986.2002.54772.00013,1.00024-.45049,1.00024-1v-3.09668c0-1.0874.51953-2.12598,1.38916-2.77832,1.46045-1.09521,2.27588-2.8374,2.18213-4.66064-.09424-1.82324-1.08496-3.47217-2.6499-4.41113ZM39.96338,40.5249c-1.37061,1.02832-2.18896,2.66504-2.18896,4.37842v1.09668l-1.38477-1.03857c-.80615-.60498-1.30957-1.52783-1.38086-2.53271s.29639-1.98926,1.0083-2.70166l.37646-.37646c1.03369-1.03369,1.60303-2.4082,1.60303-3.87012v-1.71436l1.66992,1.00195c1.0083.60498,1.62109,1.625,1.68164,2.79932s-.44385,2.25195-1.38477,2.95752Z"/>
  <circle cx="8" cy="29" r="1"/>
</svg>