<?xml version="1.0" encoding="UTF-8"?>
<svg id="Outline" xmlns="http://www.w3.org/2000/svg" version="1.1" viewBox="0 0 64 64">
  <!-- Generator: Adobe Illustrator 29.5.1, SVG Export Plug-In . SVG Version: 2.1.0 Build 141)  -->
  <path d="M54,7H10c-1.65,0-3,1.35-3,3v44c0,1.65,1.35,3,3,3h44c1.65,0,3-1.35,3-3V10c0-1.65-1.35-3-3-3ZM55,54c0,.55-.45,1-1,1H10c-.55,0-1-.45-1-1v-29h2v27c0,.55.45,1,1,1h40c.55,0,1-.45,1-1v-27h2v29ZM13,51v-26h38v26H13ZM55,23H9v-13c0-.55.45-1,1-1h44c.55,0,1,.45,1,1v13Z"/>
  <path d="M16,21c2.757,0,5-2.243,5-5s-2.243-5-5-5-5,2.243-5,5,2.243,5,5,5ZM15,13.184v1.816c0,.552.448,1,1,1s1-.448,1-1v-1.816c1.161.414,2,1.514,2,2.816,0,1.654-1.346,3-3,3s-3-1.346-3-3c0-1.302.839-2.402,2-2.816Z"/>
  <path d="M28,21c2.757,0,5-2.243,5-5s-2.243-5-5-5-5,2.243-5,5,2.243,5,5,5ZM27,13.184v1.816c0,.552.448,1,1,1s1-.448,1-1v-1.816c1.161.414,2,1.514,2,2.816,0,1.654-1.346,3-3,3s-3-1.346-3-3c0-1.302.839-2.402,2-2.816Z"/>
  <path d="M46,27h-28c-1.654,0-3,1.346-3,3v2c0,.552.448,1,1,1s1-.448,1-1v-2c0-.551.449-1,1-1h28c.551,0,1,.449,1,1v2c0,.552.448,1,1,1s1-.448,1-1v-2c0-1.654-1.346-3-3-3Z"/>
  <path d="M32,35c-6.46,0-13,1.717-13,5,0,4.962,5.832,9,13,9s13-4.038,13-9c0-3.283-6.54-5-13-5ZM32,37c7.117,0,11,1.982,11,3s-3.883,3-11,3-11-1.982-11-3,3.883-3,11-3ZM32,47c-4.054,0-7.594-1.407-9.502-3.49,2.494.982,6.005,1.49,9.502,1.49s7.008-.508,9.502-1.49c-1.908,2.083-5.448,3.49-9.502,3.49Z"/>
</svg>