<?xml version="1.0" encoding="UTF-8"?>
<svg id="Outline" xmlns="http://www.w3.org/2000/svg" version="1.1" viewBox="0 0 64 64">
  <!-- Generator: Adobe Illustrator 29.5.1, SVG Export Plug-In . SVG Version: 2.1.0 Build 141)  -->
  <path d="M54.124,30.71c1.95-1.95,1.95-5.12,0-7.07s-5.12-1.95-7.07,0l-.65.65c-.38-9.6-8.3-17.29-17.99-17.29-9.92,0-18,8.08-18,18v22.18c-1.16.42-2,1.52-2,2.82v4c0,1.65,1.35,3,3,3h34c1.65,0,3-1.35,3-3v-4c0-1.3-.84-2.4-2-2.82v-8.77l7.71-7.7ZM12.414,41h32v2H12.414v-2ZM16.414,39v-1c0-.55.45-1,1-1h22c.55,0,1,.45,1,1v1h-24ZM12.414,45h32v2H12.414v-2ZM46.414,54c0,.55-.45,1-1,1H11.414c-.55,0-1-.45-1-1v-4c0-.55.45-1,1-1h34c.55,0,1,.45,1,1v4ZM44.704,37.29c-.18.19-.29.44-.29.71v1h-2v-1c0-1.65-1.35-3-3-3h-22c-1.65,0-3,1.35-3,3v1h-2v-14c0-8.82,7.18-16,16-16s16,7.18,16,16v1.69c0,.4.24.77.62.92.37.16.8.07,1.09-.22l2.34-2.34c1.17-1.17,3.07-1.17,4.24,0,1.17,1.17,1.17,3.07,0,4.24l-8,8Z"/>
</svg>