<?xml version="1.0" encoding="UTF-8"?>
<svg id="Outline" xmlns="http://www.w3.org/2000/svg" version="1.1" viewBox="0 0 64 64">
  <!-- Generator: Adobe Illustrator 29.3.1, SVG Export Plug-In . SVG Version: 2.1.0 Build 151)  -->
  <path d="M54,7H10c-1.65002,0-3,1.34998-3,3v44c0,1.64996,1.34998,3,3,3h44c1.65002,0,3-1.35004,3-3V10c0-1.65002-1.34998-3-3-3ZM55,54c0,.54999-.45001,1-1,1H10c-.54999,0-1-.45001-1-1V21h46v33ZM55,19H9v-9c0-.54999.45001-1,1-1h44c.54999,0,1,.45001,1,1v9Z"/>
  <path d="M18,11h-6c-.55273,0-1,.44727-1,1v4c0,.55273.44727,1,1,1h6c.55273,0,1-.44727,1-1v-4c0-.55273-.44727-1-1-1ZM17,15h-4v-2h4v2Z"/>
  <path d="M50,11h-26c-1.6543,0-3,1.3457-3,3s1.3457,3,3,3h26c1.6543,0,3-1.3457,3-3s-1.3457-3-3-3ZM24,15c-.55176,0-1-.44824-1-1s.44824-1,1-1h3v2h-3ZM29,15v-2h6v2h-6ZM50,15h-13v-2h13c.55176,0,1,.44824,1,1s-.44824,1-1,1Z"/>
  <path d="M52,23H12c-.54999,0-1,.45001-1,1v28c0,.54999.45001,1,1,1h40c.54999,0,1-.45001,1-1v-28c0-.54999-.45001-1-1-1ZM17,25h30v1c0,.54999-.45001,1-1,1h-28c-.54999,0-1-.45001-1-1v-1ZM43.28003,51h-22.56006l-1.32996-4h25.21997l-1.32996,4ZM46,43c.54999,0,1,.45001,1,1s-.45001,1-1,1h-28c-.54999,0-1-.45001-1-1s.45001-1,1-1h28ZM20.97998,41c1.72003-.97003,5.60004-2,11.02002-2s9.29999,1.02997,11.02002,2h-22.04004ZM51,51h-5.60999l1.37-4.10999c1.27997-.34003,2.23999-1.5,2.23999-2.89001,0-1.65002-1.34998-3-3-3h-.23999c-1.27002-2.73999-7.71002-4-13.76001-4s-12.48999,1.26001-13.76001,4h-.23999c-1.65002,0-3,1.34998-3,3,0,1.39001.96002,2.54999,2.23999,2.89001l1.37,4.10999h-5.60999v-26h2v1c0,1.64996,1.34998,3,3,3h28c1.65002,0,3-1.35004,3-3v-1h2v26Z"/>
</svg>