<?xml version="1.0" encoding="UTF-8"?>
<svg id="Outline" xmlns="http://www.w3.org/2000/svg" version="1.1" viewBox="0 0 64 64">
  <!-- Generator: Adobe Illustrator 29.5.1, SVG Export Plug-In . SVG Version: 2.1.0 Build 141)  -->
  <path d="M28.276,34c-.653,0-1.314.143-1.976.412-.135-.157-.279-.302-.436-.436.269-.662.412-1.323.412-1.976,0-2.627-2.238-4.66-2.333-4.745-.38-.34-.954-.34-1.334,0-.095.085-2.333,2.118-2.333,4.745,0,.652.143,1.314.412,1.976-.157.135-.302.279-.436.436-.661-.269-1.323-.412-1.976-.412-2.627,0-4.66,2.238-4.745,2.333-.34.38-.34.954,0,1.334.085.095,2.118,2.333,4.745,2.333.653,0,1.315-.143,1.976-.412.135.157.279.302.436.436-.269.662-.412,1.323-.412,1.976,0,2.627,2.238,4.66,2.333,4.745.19.17.428.255.667.255s.477-.085.667-.255c.095-.085,2.333-2.118,2.333-4.745,0-.652-.143-1.314-.412-1.976.157-.135.302-.279.436-.436.661.269,1.323.412,1.976.412,2.627,0,4.66-2.238,4.745-2.333.34-.38.34-.954,0-1.334-.085-.095-2.118-2.333-4.745-2.333ZM21.276,37c0-1.103.897-2,2-2s2,.897,2,2-.897,2-2,2-2-.897-2-2ZM22.276,32c0-.982.536-1.896,1-2.505.464.608,1,1.523,1,2.505,0,.347-.076.709-.21,1.08-.255-.051-.519-.08-.79-.08s-.534.028-.789.08c-.134-.371-.211-.733-.211-1.08ZM18.276,38c-.982,0-1.896-.536-2.505-1,.608-.464,1.523-1,2.505-1,.347,0,.709.076,1.08.21-.051.256-.08.519-.08.79s.029.534.08.79c-.37.134-.732.21-1.08.21ZM24.276,42c0,.982-.536,1.896-1,2.505-.464-.608-1-1.523-1-2.505,0-.347.076-.709.211-1.08.255.051.519.08.789.08s.534-.028.79-.08c.134.371.21.733.21,1.08ZM28.276,38c-.347,0-.709-.076-1.08-.21.051-.255.08-.519.08-.79s-.028-.534-.08-.79c.371-.134.733-.21,1.08-.21.981,0,1.896.535,2.504.999-.609.464-1.526,1.001-2.504,1.001Z"/>
  <path d="M54.72,33.56v-17.54c0-4.97-4.05-9.02-9.02-9.02h-7.95c-2.4,0-4.67.94-6.39,2.64-1.3,1.31-2.16,2.95-2.49,4.72-2.11-.85-4.61-.16-5.97,1.78-1.54,2.21-1.03,5.25,1.12,6.86h-5.72c-4.98,0-9.02,4.05-9.02,9.02v17.54c-1.19.69-2,1.97-2,3.44,0,2.21,1.79,4,4,4h22c2.2,0,4-1.79,4-4,0-1.47-.81-2.75-2-3.44v-7.2l1.91-1.36h15.53c1.07,0,2.07-.42,2.83-1.17.75-.76,1.17-1.76,1.17-2.83,0-1.47-.81-2.75-2-3.44ZM24.54,17.28c.95-1.35,2.82-1.68,4.18-.74l.43.3c.3.21.7.24,1.03.07.33-.18.54-.52.54-.89,0-1.87.73-3.64,2.05-4.96,1.34-1.33,3.11-2.06,4.98-2.06h7.95c3.87,0,7.02,3.15,7.02,7.02v16.98h-11.14c-.13-.3-.29-.59-.48-.87-.77-1.09-1.92-1.82-3.23-2.05-.94-.17-1.89-.07-2.75.28-.69-3.73-3.7-6.65-7.47-7.24l-2.37-1.66c-1.35-.95-1.68-2.82-.74-4.18ZM33.28,55H11.28c-1.11,0-2-.9-2-2s.89-2,2-2h22c1.1,0,2,.9,2,2s-.9,2-2,2ZM38.72,37.46l-5.02,3.51c-.26.19-.42.49-.42.82v7.21H11.28v-16.98c0-3.87,3.15-7.02,7.02-7.02h7.95c3.88,0,7.03,3.15,7.03,7.02,0,.38.2.72.53.89.34.17.73.15,1.04-.07l.43-.3c.66-.46,1.45-.63,2.24-.49.79.14,1.48.57,1.94,1.23.36.51.54,1.1.54,1.7,0,.18-.02.36-.05.54-.14.79-.57,1.48-1.23,1.94ZM54.13,38.41c-.38.38-.88.59-1.41.59h-12.74c1.03-.76,1.72-1.86,1.94-3.13.05-.29.07-.58.07-.87h10.73c1.1,0,2,.9,2,2,0,.53-.21,1.03-.59,1.41Z"/>
  <path d="M50.47,20.33c-.09-.09-2.12-2.33-4.75-2.33-.65,0-1.31.14-1.97.41-.14-.16-.28-.3-.44-.43.27-.67.41-1.33.41-1.98,0-2.63-2.23-4.66-2.33-4.75-.38-.33-.95-.33-1.33,0-.1.09-2.34,2.12-2.34,4.75,0,.65.15,1.31.42,1.98-.16.13-.31.27-.44.43-.66-.27-1.32-.41-1.98-.41-2.62,0-4.66,2.24-4.74,2.33-.34.38-.34.96,0,1.34.08.09,2.12,2.33,4.74,2.33.66,0,1.32-.14,1.98-.41.13.15.28.3.44.43-.27.67-.42,1.33-.42,1.98,0,2.63,2.24,4.66,2.34,4.75.19.17.42.25.66.25s.48-.08.67-.25c.1-.09,2.33-2.12,2.33-4.75,0-.65-.14-1.31-.41-1.98.16-.13.3-.27.44-.43.66.27,1.32.41,1.97.41,2.63,0,4.66-2.24,4.75-2.33.34-.38.34-.96,0-1.34ZM36.8,21.79c-.37.13-.73.21-1.08.21-.98,0-1.89-.54-2.5-1,.61-.46,1.53-1,2.5-1,.35,0,.71.08,1.08.21-.05.26-.08.52-.08.79s.03.53.08.79ZM40.72,13.5c.47.6,1,1.52,1,2.5,0,.35-.07.71-.21,1.08-.25-.05-.52-.08-.79-.08s-.53.03-.79.08c-.13-.37-.21-.73-.21-1.08,0-.98.54-1.9,1-2.5ZM40.72,28.5c-.46-.6-1-1.52-1-2.5,0-.35.08-.71.21-1.08.26.05.52.08.79.08s.54-.03.79-.08c.14.37.21.73.21,1.08,0,.98-.53,1.9-1,2.5ZM40.72,23c-1.1,0-2-.9-2-2s.9-2,2-2c1.11,0,2,.9,2,2s-.89,2-2,2ZM45.72,22c-.34,0-.71-.08-1.08-.21.06-.26.08-.52.08-.79s-.02-.53-.08-.79c.37-.13.74-.21,1.08-.21.99,0,1.9.54,2.51,1-.61.46-1.52,1-2.51,1Z"/>
</svg>