<?xml version="1.0" encoding="UTF-8"?>
<svg id="Outline" xmlns="http://www.w3.org/2000/svg" version="1.1" viewBox="0 0 64 64">
  <!-- Generator: Adobe Illustrator 29.3.1, SVG Export Plug-In . SVG Version: 2.1.0 Build 151)  -->
  <path d="M21,47h-6c-1.10254,0-2,.89697-2,2v2c0,1.10303.89746,2,2,2h6c1.10254,0,2-.89697,2-2v-2c0-1.10303-.89746-2-2-2ZM15,51v-2h6l.00098,2h-6.00098Z"/>
  <path d="M21,29c1.10254,0,2-.89697,2-2v-2c0-1.10303-.89746-2-2-2h-6c-1.10254,0-2,.89697-2,2v2c0,1.10303.89746,2,2,2h6ZM15,25h6l.00098,2h-6.00098v-2Z"/>
  <path d="M56,38c.54999,0,1-.45001,1-1v-11c0-1.10004-.90002-2-2-2h-4v-1c0-.54999-.45001-1-1-1h-2.13c-.44-1.72003-2.01001-3-3.87-3s-3.42999,1.27997-3.87,3h-2.13c-.54999,0-1,.45001-1,1v1h-2v-9c1.09998,0,2-.90002,2-2v-4c0-1.10004-.90002-2-2-2H9c-1.09998,0-2,.89996-2,2v4c0,1.09998.90002,2,2,2v6c0,.54999.45001,1,1,1s1-.45001,1-1v-6h6v2c0,.34998.17999.66998.46997.84998.30005.17999.67004.20001.98004.04004l3.54999-1.77002,3.54999,1.77002c.14001.06995.29999.10999.45001.10999.17999,0,.37-.04999.53003-.15002.28998-.17999.46997-.5.46997-.84998v-2h6v9c-1.09998,0-2,.89996-2,2v5H11v-6c0-.54999-.45001-1-1-1s-1,.45001-1,1v6c-1.09998,0-2,.89996-2,2v4c0,1.09998.90002,2,2,2v16c0,1.09998.90002,2,2,2h44c1.09998,0,2-.90002,2-2v-14c0-.54999-.45001-1-1-1s-1,.45001-1,1v14h-22v-29h4v1c0,.54999.45001,1,1,1h12c.54999,0,1-.45001,1-1v-1h4v11c0,.54999.45001,1,1,1ZM17,13h-8v-4h8v4ZM25,15.38l-2.54999-1.27002c-.14001-.07001-.29999-.10999-.45001-.10999s-.31.03998-.45001.10999l-2.54999,1.27002v-6.38h6v6.38ZM19,33h6v6.38l-2.54999-1.27002c-.14001-.07001-.29999-.10999-.45001-.10999s-.31.03998-.45001.10999l-2.54999,1.27002v-6.38ZM9,37v-4h8v4h-8ZM31,55H11v-16h6v2c0,.34998.17999.66998.46997.84998.30005.17999.67004.20001.98004.04004l3.54999-1.77002,3.54999,1.77002c.14001.06995.29999.10999.45001.10999.17999,0,.37-.04999.53003-.15002.28998-.17999.46997-.5.46997-.84998v-2h4v16ZM31,37h-4v-4h4v4ZM27,13v-4h8v4h-8ZM49,26h-10v-2h2c.54999,0,1-.45001,1-1,0-1.10004.90002-2,2-2s2,.89996,2,2c0,.54999.45001,1,1,1h2v2Z"/>
  <path d="M39.70703,39.29297c-.39062-.39062-1.02344-.39062-1.41406,0l-1.29297,1.29297-.29297-.29297c-.39062-.39062-1.02344-.39062-1.41406,0s-.39062,1.02344,0,1.41406l1,1c.19531.19531.45117.29297.70703.29297s.51172-.09766.70703-.29297l2-2c.39062-.39062.39062-1.02344,0-1.41406Z"/>
  <path d="M52,40h-9c-.55273,0-1,.44775-1,1s.44727,1,1,1h9c.55273,0,1-.44775,1-1s-.44727-1-1-1Z"/>
  <path d="M39.70703,44.29297c-.39062-.39062-1.02344-.39062-1.41406,0l-1.29297,1.29297-.29297-.29297c-.39062-.39062-1.02344-.39062-1.41406,0s-.39062,1.02344,0,1.41406l1,1c.19531.19531.45117.29297.70703.29297s.51172-.09766.70703-.29297l2-2c.39062-.39062.39062-1.02344,0-1.41406Z"/>
  <path d="M52,45h-9c-.55273,0-1,.44775-1,1s.44727,1,1,1h9c.55273,0,1-.44775,1-1s-.44727-1-1-1Z"/>
  <path d="M38.29297,49.29297l-1.29297,1.29297-.29297-.29297c-.39062-.39062-1.02344-.39062-1.41406,0s-.39062,1.02344,0,1.41406l1,1c.19531.19531.45117.29297.70703.29297s.51172-.09766.70703-.29297l2-2c.39062-.39062.39062-1.02344,0-1.41406s-1.02344-.39062-1.41406,0Z"/>
  <path d="M52,50h-9c-.55273,0-1,.44775-1,1s.44727,1,1,1h9c.55273,0,1-.44775,1-1s-.44727-1-1-1Z"/>
  <path d="M39.70703,34.29297c-.39062-.39062-1.02344-.39062-1.41406,0l-1.29297,1.29297-.29297-.29297c-.39062-.39062-1.02344-.39062-1.41406,0s-.39062,1.02344,0,1.41406l1,1c.19531.19531.45117.29297.70703.29297s.51172-.09766.70703-.29297l2-2c.39062-.39062.39062-1.02344,0-1.41406Z"/>
  <path d="M52,35h-9c-.55273,0-1,.44775-1,1s.44727,1,1,1h9c.55273,0,1-.44775,1-1s-.44727-1-1-1Z"/>
  <path d="M52,30h-16c-.55273,0-1,.44775-1,1s.44727,1,1,1h16c.55273,0,1-.44775,1-1s-.44727-1-1-1Z"/>
</svg>