<?xml version="1.0" encoding="UTF-8"?>
<svg id="Outline" xmlns="http://www.w3.org/2000/svg" version="1.1" viewBox="0 0 64 64">
  <!-- Generator: Adobe Illustrator 29.3.1, SVG Export Plug-In . SVG Version: 2.1.0 Build 151)  -->
  <path d="M56.78077,33.67128l-4-5c-.14001-.16998-.32001-.27997-.53003-.34003l.01001-.00995-8.37-2.21002c.57001-1.42999.45996-3.09003-.35004-4.41998-.42999-.71002-.98999-1.27002-1.66998-1.69-1.06-.65002-1.96997-1.56-2.62-2.62-.14001-.23004-.33002-.42999-.5-.64001.98999-.17999,2.02002-.16003,3,.09998.40997.11005.83002.16003,1.25.16003,1.53003,0,2.95001-.69,3.90997-1.88.95001-1.20001,1.30005-2.76001.96002-4.28003-.40997-1.79999-1.83997-3.25-3.65002-3.69-.78998-.19995-1.58997-.19995-2.35999-.01996-1.21997.28998-2.5.28998-3.71997,0-.77002-.17999-1.57001-.17999-2.35999.01996-1.81006.44-3.24005,1.89001-3.65002,3.69-.34003,1.52002.01001,3.08002.96002,4.28003.06.07001.12.13.17999.20001-.31.10999-.61005.25-.89001.42999-1.32001.82996-2.17999,2.17999-2.34998,3.70001-.15002,1.34998.25,2.67999,1.09998,3.71997l-2.03003.42999c-.07996-.70996-.29999-1.40997-.67999-2.03998-.42999-.71002-.98999-1.27002-1.66998-1.69-.83002-.51001-1.54999-1.16998-2.15002-1.95001.23004-.14001.44-.31.64001-.5.25-.26001.46002-.52997.62-.79999.42004-.72998,1.03003-1.34003,1.76001-1.76001.27002-.15997.53998-.37.78998-.62.87006-.85999,1.29004-2.04999,1.16003-3.27002-.14001-1.21997-.82001-2.29999-1.87-2.95996-1.26001-.80005-2.90002-.81-4.16003-.03003-.57001.34998-1.01996.78998-1.34998,1.32001-.47003.77002-1.12,1.41998-1.88,1.89001-.53998.32996-.97998.77997-1.33002,1.34998-.46997.76001-.64996,1.66998-.53998,2.53998-.40997.13-.81.30005-1.19.54004-1.32001.83002-2.16998,2.17999-2.34003,3.70001-.16998,1.51996.35004,3.00995,1.43005,4.08997.29999.29999.62994.56,1,.77002.69.40997,1.29999.94,1.81,1.54999l-7.36005,1.58002v.01996c-.21997.04004-.41998.16003-.57001.34003l-4,5c-.19995.25-.26996.59003-.17999.90997.09003.31006.33002.56006.64001.66003l6.32001,2.12v4.64001c0,.54999.45001,1,1,1s1-.45001,1-1v-3.97003l11.67999,3.92004c.10999.02997.21002.04999.32001.04999.33002,0,.64001-.16003.83002-.45001l2.16998-3.25v17.35999l-15-4.40997v-1.25c0-.54999-.45001-1-1-1s-1,.45001-1,1v2c0,.44.28998.82996.71997.95996l17,5c.09003.03003.18005.04004.28003.04004.08002,0,.15002-.01001.22998-.03003l17-4c.45001-.09998.77002-.51001.77002-.96997v-14.95001l6.27002-1.78998c.32996-.10004.57996-.34003.67999-.66003.09998-.32001.03998-.66998-.16998-.92999ZM34.08076,11.29127c.23999-1.06,1.10999-1.94,2.16998-2.20001.48999-.12.96997-.12,1.42999-.01001,1.52002.36005,3.12.36005,4.64001,0,.46002-.10999.94-.10999,1.42999.01001,1.06.26001,1.92999,1.14001,2.16998,2.20001.21002.92999.01001,1.85004-.57001,2.58002-.72998.91998-1.96997,1.33002-3.08997,1.03998-.73999-.20001-1.5-.28998-2.26001-.28998s-1.52002.08997-2.26001.28998c-1.10999.29004-2.35999-.12-3.08997-1.03998-.58002-.72998-.78003-1.65002-.57001-2.58002ZM33.44074,17.4413c.46002-.29004,1.01001-.44,1.56-.44.53003,0,1.07001.14001,1.52002.41998.42999.26001.77997.59998,1.02997,1,.81,1.33002,1.95001,2.47003,3.28003,3.28998.39996.24005.73999.59003,1,1.02002.57001.92999.56,2.16003-.02002,3.08002-.51001.81-1.29999,1.32001-2.22998,1.41998-.92004.09998-1.81-.21002-2.46002-.85999-.17999-.16998-.33002-.37-.45001-.59003-.77997-1.32001-1.88-2.41998-3.20001-3.19-.21997-.13-.40997-.27997-.58997-.45996-.65002-.65002-.96002-1.54004-.85999-2.46002.09998-.91998.60999-1.71997,1.41998-2.22998ZM20.68073,13.58125c.17999-.28998.41003-.52997.67999-.68994,1.02002-.63,1.90002-1.51001,2.53003-2.54004.15997-.26001.39996-.48999.70001-.66998.60999-.38,1.42999-.37,2.03998.02002.53998.33997.88.87.95001,1.48999.07001.60999-.14001,1.20001-.58002,1.63-.12.13-.25.22998-.38.29999-1.02997.59998-1.90002,1.46997-2.5,2.5-.07001.13-.16998.26001-.29999.38-.13.13-.27002.23999-.41998.32996-.28003-.27997-.60004-.52997-.96002-.75-.62-.37-1.29999-.59998-2.01001-.67999-.07001-.44995.01001-.91998.25-1.32001ZM18.35072,22.46126c-.21997-.13-.41998-.27997-.58997-.45996-.65002-.65002-.96002-1.54004-.85999-2.46002.09998-.91998.60999-1.71997,1.41998-2.22998.46002-.29004,1.01001-.44,1.56-.44.52997,0,1.06.14001,1.52002.41998.42999.26001.77997.60004,1.01996,1,.82001,1.33002,1.96002,2.47003,3.29004,3.28998.39996.24005.73999.59003,1,1.02002.57001.92999.56,2.16003-.02002,3.08002-.51001.81-1.31,1.32001-2.22998,1.41998-.92004.10004-1.81-.20996-2.46002-.85999-.17999-.16998-.33002-.37-.46002-.59003-.76996-1.32001-1.87-2.41998-3.19-3.19ZM27.59077,38.81129l-17.91003-6.01001,2.69-3.35999,18.03998,5.14996-2.81995,4.22003ZM32.02076,32.97127l-15.90002-4.53998,4.33002-.92999c.03997.04997.08994.10995.13998.15993,2.25672,2.25421,6.10542,1.76914,7.79002-.90993.21002-.33002.37-.69.48999-1.04999l3.10999-.67004,2.03003.53003c.34998.38.66998.78998.92999,1.22998.21001.36998.46995.69998.76998.99996,1.89536,1.89501,5.04967,1.90272,6.98002.07005l5.19,1.37-15.85999,3.73999ZM48.00074,51.21126l-15,3.53003v-17.44l2.16998,3.25c.19.28998.5.45001.83002.45001.09003,0,.17999-.01001.27002-.04004l11.72998-3.33997v13.58997ZM36.43073,38.84126l-2.79999-4.19995,17.97998-4.23004,2.67004,3.33002-17.85004,5.09998Z"/>
  <circle cx="15.00074" cy="45.0013" r="1"/>
</svg>