<?xml version="1.0" encoding="UTF-8"?>
<svg id="Outline" xmlns="http://www.w3.org/2000/svg" version="1.1" viewBox="0 0 64 64">
  <!-- Generator: Adobe Illustrator 29.5.1, SVG Export Plug-In . SVG Version: 2.1.0 Build 141)  -->
  <path d="M56.562,25.385l-3.81-2.649,3.81-2.649c.28-.195.442-.521.428-.862-.014-.342-.202-.653-.498-.824l-19.01-11c-.335-.194-.753-.177-1.072.045l-4.409,3.072-4.409-3.072c-.137-.096-.302-.155-.469-.173-.036-.004-.072-.006-.116-.006-.131,0-.256.026-.369.072-.044.018-.087.039-.128.062L7.509,18.4c-.296.171-.484.482-.498.824-.015.342.147.667.428.862l3.81,2.649-3.81,2.649c-.28.195-.442.521-.428.862.014.342.202.653.498.824l4.503,2.606c-.001.02-.012.038-.012.058v15c0,.357.19.687.499.865l19,11c.023.013.049.019.073.03.13.062.282.104.428.104.147,0,.296-.042.428-.104.024-.011.05-.017.073-.03l19-11c.309-.179.499-.508.499-.865v-15c0-.02-.01-.037-.012-.058l4.503-2.607c.296-.171.484-.482.498-.824.015-.342-.147-.667-.428-.862ZM37.03,9.449l17.097,9.894-3.176,2.209-17.09-9.894,3.17-2.208ZM32,32.58l-17.004-9.845,17.004-9.845,17.004,9.845-17.004,9.845ZM26.966,9.446l3.174,2.211-17.09,9.894-3.177-2.209,17.094-9.896ZM13.049,23.919l17.09,9.894-3.17,2.208-17.097-9.894,3.176-2.209ZM14,41.469l17,9.842v2.689l-17-9.842v-2.689ZM33,54.001v-2.689l17-9.842v2.689l-17,9.842ZM50,39.159l-17,9.842v-3.266c0-.552-.447-1-1-1s-1,.448-1,1v3.266l-17-9.842v-8.332l12.519,7.244c.155.09.328.134.501.134.2,0,.4-.06.571-.18l3.409-2.375v2.085c0,.552.447,1,1,1s1-.448,1-1v-2.085s3.383,2.357,3.409,2.375c.316.22.749.239,1.082.045l12.509-7.242v8.33ZM37.034,36.024l-3.174-2.211,17.09-9.894,3.177,2.209-17.094,9.896Z"/>
  <circle cx="32" cy="41.735" r="1"/>
</svg>