<?xml version="1.0" encoding="UTF-8"?>
<svg id="Outline" xmlns="http://www.w3.org/2000/svg" version="1.1" viewBox="0 0 64 64">
  <!-- Generator: Adobe Illustrator 29.5.1, SVG Export Plug-In . SVG Version: 2.1.0 Build 141)  -->
  <path d="M56.93,43.631l-6-15c-.15-.38-.52-.63-.93-.63h-24c-.55,0-1,.45-1,1s.45,1,1,1h23.32l5.2,13h-14.9l-1.73-3.45c-.17-.34-.51-.55-.89-.55h-10c-.38,0-.72.21-.89.55l-1.73,3.45h-14.9l5.2-13h3.32c.55,0,1-.45,1-1s-.45-1-1-1h-4c-.41,0-.78.25-.93.63l-6,15c-.12.31-.08.66.1.93.19.27.5.44.83.44h2.37l5.56,11.44c.17.34.52.56.9.56h31.5c.42,0,.79-.25.93-.64l4.42-11.36h2.32c.33,0,.64-.17.83-.44.18-.27.22-.62.1-.93ZM27.62,41.001h8.76l1,2h-10.76l1-2ZM47.65,55.001h-30.19l-4.86-10h38.94l-3.89,10Z"/>
  <path d="M47.36,7.291c-.24-.24-.59-.34-.92-.27-1.16.25-10.53,2.29-14.44,4.75-3.98-2.51-13.99-4.65-14.44-4.75-.34-.07-.68.03-.92.27s-.34.59-.27.92c.28,1.29,2.76,12.71,5.57,15.53,1.29,1.28,2.82,1.91,4.41,1.91,1.88,0,3.85-.88,5.65-2.62,1.81,1.73,3.78,2.62,5.66,2.62,1.59,0,3.11-.63,4.39-1.92,2.82-2.81,5.31-14.23,5.58-15.52.07-.33-.03-.68-.27-.92ZM29.17,18.411l-.93-.93v-3.48c0-.55-.45-1-1-1s-1,.45-1,1v1.48l-2.53-2.53c-.39-.39-1.02-.39-1.41,0-.39.39-.39,1.02,0,1.41l2.88,2.88h-2.18c-.55,0-1,.45-1,1s.45,1,1,1h4.18l2.86,2.86c-1.44,1.18-4.18,2.71-6.68.22-1.77-1.77-3.74-8.97-4.69-13,3.33.79,8.95,2.3,11.75,3.83-1.27,1.55-1.67,3.39-1.25,5.26ZM40.64,22.321c-2.49,2.49-5.23.95-6.68-.22l2.86-2.86h4.18c.55,0,1-.45,1-1s-.45-1-1-1h-2.18l2.88-2.88c.39-.39.39-1.02,0-1.41-.39-.39-1.02-.39-1.41,0l-2.53,2.53v-1.48c0-.55-.45-1-1-1s-1,.45-1,1v3.48l-3.21,3.21c-1.17-1.44-2.71-4.19-.22-6.68,1.77-1.77,8.97-3.74,13-4.69-.95,4.03-2.92,11.23-4.69,13Z"/>
  <circle cx="22" cy="29.001" r="1"/>
</svg>