<?xml version="1.0" encoding="UTF-8"?>
<svg id="Outline" xmlns="http://www.w3.org/2000/svg" version="1.1" viewBox="0 0 64 64">
  <!-- Generator: Adobe Illustrator 29.5.1, SVG Export Plug-In . SVG Version: 2.1.0 Build 141)  -->
  <path d="M54,7H10c-1.65,0-3,1.35-3,3v10c0,1.65,1.35,3,3,3v31c0,1.65,1.35,3,3,3h38c1.65,0,3-1.35,3-3v-31c1.65,0,3-1.35,3-3v-10c0-1.65-1.35-3-3-3ZM52,54c0,.55-.45,1-1,1H13c-.55,0-1-.45-1-1v-31h22v11c0,.34.17.65.45.83.28.19.64.22.94.09l6.61-2.83,6.61,2.83c.645.276,1.39-.226,1.39-.92v-11h2v31ZM36,32.48v-9.48h12v9.48l-5.61-2.4c-.12-.05-.26-.08-.39-.08s-.27.03-.39.08l-5.61,2.4ZM55,20c0,.55-.45,1-1,1H10c-.55,0-1-.45-1-1v-10c0-.55.45-1,1-1h44c.55,0,1,.45,1,1v10Z"/>
  <path d="M18,11h-6c-.553,0-1,.447-1,1v6c0,.553.447,1,1,1s1-.447,1-1v-5h5c.553,0,1-.447,1-1s-.447-1-1-1Z"/>
  <path d="M17.707,45.293c-.391-.391-1.023-.391-1.414,0l-2,2c-.391.391-.391,1.023,0,1.414s1.023.391,1.414,0l.293-.293v3.586c0,.553.447,1,1,1s1-.447,1-1v-3.586l.293.293c.195.195.451.293.706.293.875,0,1.323-1.092.708-1.707l-2-2Z"/>
  <path d="M25.707,45.293c-.391-.391-1.023-.391-1.414,0l-2,2c-.391.391-.391,1.023,0,1.414s1.023.391,1.414,0l.293-.293v3.586c0,.553.447,1,1,1s1-.447,1-1v-3.586l.293.293c.195.195.451.293.706.293.874,0,1.324-1.091.708-1.707l-2-2Z"/>
</svg>