<?xml version="1.0" encoding="UTF-8"?>
<svg id="Outline" xmlns="http://www.w3.org/2000/svg" version="1.1" viewBox="0 0 48 48">
  <!-- Generator: Adobe Illustrator 29.5.1, SVG Export Plug-In . SVG Version: 2.1.0 Build 141)  -->
  <path d="M42.493,15.444l-2.234-1.233c-2.394-1.303-5.114-1.746-7.714-1.343l6.162-6.162c.296-.296.376-.745.201-1.125s-.566-.608-.984-.58l-2.741.21c-5.082.394-9.43,3.725-11.183,8.429-1.753-4.704-6.1-8.035-11.184-8.429l-2.74-.21c-.408-.029-.81.2-.984.58s-.095.829.201,1.125l6.162,6.162c-2.6-.403-5.322.041-7.719,1.345l-2.229,1.23c-.366.202-.568.611-.505,1.025.062.414.376.745.786.83l8.447,1.742c-2.191,1.076-3.988,2.928-4.942,5.295l-.529,1.31c-.152.375-.062.805.227,1.089.289.283.72.365,1.094.205l9.568-4.095c.385.489.915.852,1.529,1.027l.025.253c.486,4.847-.372,9.707-2.455,14.101-4.351.364-9.752,1.311-9.752,3.773,0,.552.447,1,1,1,.521,0,.948-.398.996-.906.578-.77,5.301-2.094,13.004-2.094s12.426,1.325,13.004,2.094c.048.508.476.906.996.906.553,0,1-.448,1-1,0-2.139-4.077-3.134-8-3.597v-.101c0-5.112-1.316-10.11-3.794-14.559.453-.2.839-.514,1.142-.898l9.568,4.095c.127.054.261.081.394.081.697,0,1.188-.725.927-1.375l-.528-1.31c-.955-2.367-2.744-4.221-4.935-5.297l8.439-1.74c.41-.084.724-.416.786-.83.063-.414-.139-.823-.505-1.025ZM35.336,7.207l.046-.003-8.622,8.623c-.211-.494-.556-.913-.982-1.229,1.416-4.117,5.164-7.05,9.558-7.39ZM22,22c-.552,0-1-.449-1-1s.448-1,1-1,1,.449,1,1-.448,1-1,1ZM24,16c.552,0,1,.449,1,1s-.448,1-1,1-1-.449-1-1,.448-1,1-1ZM26,22c-.552,0-1-.449-1-1s.448-1,1-1,1,.449,1,1-.448,1-1,1ZM12.663,7.207c4.394.34,8.143,3.273,9.559,7.39-.426.316-.771.735-.982,1.229L12.618,7.203l.045.003ZM18.716,16.13l2.11,2.11c-.055.024-.104.059-.157.086l-11.821-2.437c3.124-1.635,6.879-1.543,9.868.242ZM18.936,20.01l.231.048c-.094.281-.155.577-.161.888l-7.386,3.161c1.477-2.597,4.283-4.208,7.316-4.097ZM24,38c-.383,0-1.509.007-2.984.078,1.906-4.454,2.666-9.31,2.181-14.152l-.017-.17c.305-.131.577-.318.82-.537.27.244.581.44.927.573,2.644,4.349,4.052,9.319,4.07,14.413-2.409-.191-4.453-.206-4.997-.206ZM36.381,24.107l-7.386-3.161c-.006-.311-.067-.607-.161-.888l.231-.048c3.038-.112,5.84,1.5,7.316,4.097ZM27.331,18.325c-.054-.027-.102-.062-.157-.086l2.11-2.11c2.991-1.785,6.748-1.877,9.868-.242l-11.821,2.437Z"/>
</svg>