<?xml version="1.0" encoding="UTF-8"?>
<svg id="Outline" xmlns="http://www.w3.org/2000/svg" version="1.1" viewBox="0 0 64 64">
  <!-- Generator: Adobe Illustrator 29.3.1, SVG Export Plug-In . SVG Version: 2.1.0 Build 151)  -->
  <path d="M54.83252,14.17969c-1.23486-.95703-2.8252-1.35693-4.36621-1.09863-1.53857.25879-2.91064,1.15625-3.76416,2.46338l-9.59698,14.74591c-3.34851-.85059-7.27319-1.29034-11.10516-1.29034-9.69531,0-20,2.80371-20,8,0,.35901.05383.70544.14862,1.0415l.81964,5.32666c.67969,4.42236,4.4209,7.63184,8.89502,7.63184h20.27344c4.47412,0,8.21533-3.20947,8.89502-7.63184l.81964-5.32666c.09479-.33606.14862-.6825.14862-1.0415,0-1.0755-.44702-2.04681-1.23315-2.9137l4.57935-4.97937c.37354-.40625.34717-1.03906-.05957-1.41309-.40576-.37305-1.03955-.34619-1.4126.05957l-4.63531,5.04022c-1.11786-.74811-2.52551-1.38898-4.12738-1.9201l9.26611-14.23682c.55664-.85205,1.41602-1.41406,2.42041-1.58301,1.00635-.16943,2.00293.08203,2.81152.7085.88379.68115,1.39062,1.71582,1.39062,2.83789,0,.89844-.3374,1.76416-.9458,2.43262l-3.47998,3.78027c-.37402.40625-.34766,1.03906.05859,1.41309.40723.37402,1.03906.34814,1.41309-.05859l3.48389-3.78467c.94824-1.0415,1.47021-2.38525,1.47021-3.78271,0-1.74707-.79053-3.35889-2.16748-4.42041ZM26,31c10.56195,0,17.93036,3.13458,17.99408,5.96289l-.0921.59851c-.13031.39246-.40424.78583-.79083,1.17291-3.17584-2.08282-8.71277-3.44727-15.07404-3.68402-.57275-.02002-1.01611.41064-1.03662.9624s.41064,1.01611.9624,1.03662c5.49835.20422,10.43304,1.31171,13.38458,2.95435-3.05188,1.68738-8.52808,2.99634-15.34747,2.99634s-12.29559-1.30896-15.34747-2.99634c2.95154-1.64264,7.88623-2.75012,13.38458-2.95435.55176-.02051.98291-.48486.9624-1.03662-.021-.55176-.47412-.9873-1.03662-.9624-6.36127.23676-11.89819,1.6012-15.07404,3.68402-.3866-.38708-.66052-.78046-.79083-1.17291l-.0921-.59851c.06372-2.82831,7.43213-5.96289,17.99408-5.96289ZM36.13672,49H15.86328c-3.47998,0-6.38965-2.49609-6.91846-5.93555l-.29767-1.93451c3.68463,2.53467,10.66309,3.87006,17.35284,3.87006s13.66821-1.33539,17.35284-3.87006l-.29767,1.93451c-.52881,3.43945-3.43848,5.93555-6.91846,5.93555Z"/>
  <circle cx="52" cy="18" r="1"/>
</svg>