<?xml version="1.0" encoding="UTF-8"?>
<svg id="Outline" xmlns="http://www.w3.org/2000/svg" version="1.1" viewBox="0 0 64 64">
  <!-- Generator: Adobe Illustrator 29.3.1, SVG Export Plug-In . SVG Version: 2.1.0 Build 151)  -->
  <path d="M50.58002,28.58891c.26001-.5.41998-1.01996.41998-1.58997,0-3.83002-6.78003-5.94-13.03003-6.67004.01001-.10999.03003-.21997.03003-.32996,0-2.21002-1.78998-4-4-4-.72998,0-1.40002.20996-1.98999.54999-.32001-.17999-.66003-.32001-1.02002-.40997-.02997-1.72003-1-3.26001-2.53998-4.03003-.5-.25-1.10004-.04999-1.34003.44-.25.5-.04999,1.09998.44,1.34003.87.43994,1.40002,1.29999,1.44,2.25995-1.71997.45001-2.98999,2-2.98999,3.85004,0,.10999.02002.21997.03003.32996-6.25.73004-13.03003,2.84003-13.03003,6.67004,0,.57001.15997,1.08997.41998,1.58997-4.14996,2.56-6.41998,5.87-6.41998,9.41003,0,7.84998,10.97998,14,25,14s25-6.15002,25-14c0-3.54004-2.27002-6.85004-6.41998-9.41003ZM34,17.99895c1.09998,0,2,.89996,2,2,0,1.09998-.90002,2-2,2s-2-.90002-2-2c0-1.10004.90002-2,2-2ZM30,17.99895c.17999,0,.34998.02997.52002.07996-.32001.57001-.52002,1.22003-.52002,1.92004s.20001,1.34998.52002,1.91998c-.17004.04999-.34003.08002-.52002.08002-1.09998,0-2-.90002-2-2,0-1.10004.90002-2,2-2ZM28.08002,31.84892c-8.08002-.59998-13.08002-2.98999-13.08002-4.84998,0-1.76001,4.37-3.96002,11.71997-4.73004.72003,1.04004,1.92004,1.73004,3.28003,1.73004.71002,0,1.40002-.20001,2.01001-.54999.58997.33997,1.26001.54999,1.98999.54999,1.35999,0,2.56-.69,3.28003-1.73004,7.34998.77002,11.71997,2.97003,11.71997,4.73004,0,1.85999-5,4.25-13.08002,4.84998-.56.04004-.96997.52002-.92999,1.07001.04004.53003.47998.92999,1,.92999h.07001c4.07001-.31,8.52002-1.16998,11.5-2.69.92999.62,1.44,1.26001,1.44,1.84003,0,2.08997-6.46997,5-17,5s-17-2.91003-17-5c0-.58002.51001-1.22003,1.44-1.84003,2.97998,1.52002,7.42999,2.38,11.5,2.69h.07001c.52002,0,.95996-.39996,1-.92999.03998-.54999-.37-1.02997-.92999-1.07001ZM16.46002,37.14891c3.66998,1.87,9.71997,2.85004,15.53998,2.85004s11.87-.98004,15.53998-2.85004c.94.62,1.46002,1.27002,1.46002,1.85004,0,2.08997-6.46997,5-17,5s-17-2.91003-17-5c0-.58002.52002-1.23004,1.46002-1.85004ZM32,49.99895c-12.67999,0-23-5.38-23-12,0-2.71002,1.78998-5.31,5.07001-7.45001-.71002.76001-1.07001,1.57001-1.07001,2.45001,0,1.13.59998,2.13,1.65002,2.98999-1.09003.90997-1.65002,1.90997-1.65002,3.01001,0,4.54999,9.78998,7,19,7s19-2.45001,19-7c0-1.10004-.56-2.10004-1.65002-3.01001,1.05005-.85999,1.65002-1.85999,1.65002-2.98999,0-.88-.35999-1.69-1.07001-2.45001,3.28003,2.14001,5.07001,4.73999,5.07001,7.45001,0,6.62-10.32001,12-23,12Z"/>
  <circle cx="32" cy="32.99895" r="1"/>
</svg>