<?xml version="1.0" encoding="UTF-8"?>
<svg id="Outline" xmlns="http://www.w3.org/2000/svg" version="1.1" viewBox="0 0 64 64">
  <!-- Generator: Adobe Illustrator 29.5.1, SVG Export Plug-In . SVG Version: 2.1.0 Build 141)  -->
  <path d="M56,31c.55,0,1-.45,1-1v-9c0-1.65-1.35-3-3-3h-1.22l-.81-3.24c-.11-.45-.51-.76-.97-.76h-6c-.46,0-.86.31-.97.76l-.81,3.24h-2.5l-1.77-5.32c-.14-.4-.52-.68-.95-.68h-6c-.55,0-1,.45-1,1s.45,1,1,1h5.28l1.77,5.32c.14.4.52.68.95.68h14c.55,0,1,.45,1,1v5h-13.64c-2.37-2.46-5.68-4-9.36-4s-6.99,1.54-9.36,4h-13.64v-5c0-.55.45-1,1-1h14c.43,0,.81-.28.95-.68l1.77-5.32h1.28c.55,0,1-.45,1-1s-.45-1-1-1h-2c-.43,0-.81.28-.95.68l-1.77,5.32h-2.5l-.81-3.24c-.11-.45-.51-.76-.97-.76h-6c-.46,0-.86.31-.97.76l-.81,3.24h-1.22c-1.65,0-3,1.35-3,3v28c0,1.65,1.35,3,3,3h44c1.65,0,3-1.35,3-3v-15c0-.55-.45-1-1-1s-1,.45-1,1v8h-12.06c1.3-2.02,2.06-4.42,2.06-7s-.76-4.98-2.06-7h12.06v2c0,.55.45,1,1,1ZM45.28,18l.5-2h4.44l.5,2h-5.44ZM13.78,16h4.44l.5,2h-5.44l.5-2ZM9,28h12.06c-1.3,2.02-2.06,4.42-2.06,7s.76,4.98,2.06,7h-12.06v-14ZM55,44v5c0,.55-.45,1-1,1H10c-.55,0-1-.45-1-1v-5h13.64c2.37,2.46,5.68,4,9.36,4s6.99-1.54,9.36-4h13.64ZM43,35c0,6.07-4.93,11-11,11s-11-4.93-11-11,4.93-11,11-11,11,4.93,11,11Z"/>
  <path d="M37,32h-4v-5c0-.471-.328-.878-.788-.978-.463-.103-.928.135-1.122.563l-5,11c-.141.31-.115.67.069.955.184.286.501.459.841.459h4v4c0,.464.319.866.77.974.077.018.154.026.23.026.373,0,.722-.208.895-.553l5-10c.155-.31.138-.678-.044-.973s-.504-.475-.851-.475ZM33,38.764v-.764c0-.553-.448-1-1-1h-3.447l2.447-5.384v1.384c0,.553.448,1,1,1h3.382l-2.382,4.764Z"/>
  <path d="M12,22c-.552,0-1,.447-1,1s.448,1,1,1h2c.552,0,1-.447,1-1s-.448-1-1-1h-2Z"/>
  <path d="M18,22c-.552,0-1,.447-1,1s.448,1,1,1h2c.552,0,1-.447,1-1s-.448-1-1-1h-2Z"/>
</svg>