<?xml version="1.0" encoding="UTF-8"?>
<svg id="Outline" xmlns="http://www.w3.org/2000/svg" version="1.1" viewBox="0 0 64 64">
  <!-- Generator: Adobe Illustrator 29.5.1, SVG Export Plug-In . SVG Version: 2.1.0 Build 141)  -->
  <path d="M56.70906,7.29094c-.28003-.27997-.71002-.37-1.07001-.21997l-32.53003,12.72998c-.32001.12-.54999.39001-.62.71997-.06.33002.04004.68005.28003.92004l5.56,5.56H9.99904c-1.65002,0-3,1.34998-3,3v24c0,1.64996,1.34998,3,3,3h38c1.65002,0,3-1.35004,3-3v-24c0-1.09003-.62-2.07001-1.52002-2.59003l7.45001-19.04999c.15002-.37.06-.78998-.21997-1.07001ZM25.25905,21.10094l26.64996-10.42999-18.53998,18.53998-8.10999-8.10999ZM36.63905,35.31096h-3.64001v-3.64001l3.64001,3.64001ZM30.32906,29.00096l.66998.66998v6.64001c0,.56.45001,1,1,1h5.01001l-8.01001,6.40997-18.40002-14.71997h19.73004ZM8.99904,53.72093v-23.44l14.65002,11.72003-14.65002,11.71997ZM10.59901,55.00096l14.65002-11.72003,3.13,2.5c.17999.15002.40002.22003.62.22003s.44-.07001.62-.22003l3.13-2.5,14.65002,11.72003H10.59901ZM48.99904,53.72093l-14.65002-11.71997,4.99005-3.98999,3.21997,3.21997c.48928.48928,1.38081.35117,1.64002-.33996l4.52997-11.57001c.17004.17999.27002.41998.27002.67999v23.71997ZM42.89906,38.74095l-3.13-3.13-.01001-.01001-4.97003-4.96997,18.54004-18.54004-10.42999,26.65002Z"/>
</svg>