<?xml version="1.0" encoding="UTF-8"?>
<svg id="Outline" xmlns="http://www.w3.org/2000/svg" version="1.1" viewBox="0 0 64 64">
  <!-- Generator: Adobe Illustrator 29.5.1, SVG Export Plug-In . SVG Version: 2.1.0 Build 141)  -->
  <path d="M51,24.988c1.65,0,3-1.35,3-3s-1.35-3-3-3h-.84l-2.36-.79c-6.01-2-11.2-5.74-15-10.81-.38-.5-1.22-.5-1.6,0-3.8,5.07-8.99,8.81-15,10.81l-2.36.79h-.84c-1.65,0-3,1.35-3,3s1.35,3,3,3h3v14h-1c-.55,0-1,.45-1,1v9.14c-1.72.45-3,2-3,3.86,0,2.21,1.79,4,4,4s4-1.79,4-4c0-.73-.21-1.41-.56-2h27.12c-.35.59-.56,1.27-.56,2,0,2.21,1.79,4,4,4s4-1.79,4-4c0-1.86-1.28-3.41-3-3.86v-9.14c0-.55-.45-1-1-1h-1v-14h3ZM44.33,18.988h-2.18c-4-1.03-7.2-3.9-8.68-7.69,3.06,3.29,6.75,5.89,10.86,7.69ZM32,12.938c1.16,2.48,2.99,4.57,5.25,6.05h-10.5c2.26-1.48,4.09-3.57,5.25-6.05ZM30.53,11.298c-1.48,3.79-4.68,6.66-8.68,7.69h-2.18c4.11-1.8,7.8-4.4,10.86-7.69ZM16,40.988h32v2H16v-2ZM18,38.988v-14h2v14h-2ZM22,38.988v-14h20v14h-20ZM44,38.988v-14h2v14h-2ZM15,54.988c-1.1,0-2-.9-2-2s.9-2,2-2,2,.9,2,2-.9,2-2,2ZM16,48.988v-4h32v4H16ZM49,50.988c1.1,0,2,.9,2,2s-.9,2-2,2-2-.9-2-2,.9-2,2-2ZM13,22.988c-.55,0-1-.45-1-1s.45-1,1-1h38c.55,0,1,.45,1,1s-.45,1-1,1H13Z"/>
</svg>