<?xml version="1.0" encoding="UTF-8"?>
<svg id="Outline" xmlns="http://www.w3.org/2000/svg" version="1.1" viewBox="0 0 64 64">
  <!-- Generator: Adobe Illustrator 29.5.1, SVG Export Plug-In . SVG Version: 2.1.0 Build 141)  -->
  <path d="M54,31h-1.56c.35-.59.56-1.27.56-2,0-1.02-.4-1.94-1.03-2.65-.34-10.7-9.21-19.35-19.97-19.35S12.37,15.65,12.03,26.35c-.63.71-1.03,1.63-1.03,2.65,0,.73.21,1.41.56,2h-1.56c-1.65,0-3,1.35-3,3v16c0,1.65,1.35,3,3,3h3.1c.47,2.28,2.49,4,4.9,4s4.43-1.72,4.9-4h18.2c.47,2.28,2.49,4,4.9,4s4.43-1.72,4.9-4h3.1c1.65,0,3-1.35,3-3v-16c0-1.65-1.35-3-3-3ZM51,29c0,1.1-.9,2-2,2h-6c-1.1,0-2-.9-2-2,0-.88.57-1.65,1.43-1.9.32-.1.57-.35.67-.67.25-.86,1.02-1.43,1.9-1.43.9,0,1.68.61,1.91,1.48.08.27.27.51.52.63.26.13.56.15.82.04,1.34-.53,2.75.49,2.75,1.85ZM32,9c9.25,0,16.94,7.09,17.9,16.11-.29-.07-.59-.11-.9-.11-.18,0-.35.01-.53.04-.2-.36-.46-.67-.75-.95-1.4-7.6-7.95-13.09-15.72-13.09-7.65,0-14.33,5.6-15.72,13.09-.29.27-.55.59-.75.95-.18-.03-.35-.04-.53-.04-.31,0-.61.04-.9.11.96-9.02,8.65-16.11,17.9-16.11ZM15,27c.25,0,.5.05.75.15.27.11.56.09.82-.04.25-.13.44-.36.52-.63.23-.87,1.01-1.48,1.91-1.48.88,0,1.65.57,1.9,1.43.1.32.35.57.67.67.86.25,1.43,1.02,1.43,1.9,0,1.1-.9,2-2,2h-6c-1.1,0-2-.9-2-2s.9-2,2-2ZM18,55c-1.65,0-3-1.35-3-3s1.35-3,3-3,3,1.35,3,3-1.35,3-3,3ZM46,55c-1.65,0-3-1.35-3-3s1.35-3,3-3,3,1.35,3,3-1.35,3-3,3ZM55,50c0,.55-.45,1-1,1h-3.1c-.47-2.28-2.49-4-4.9-4s-4.43,1.72-4.9,4h-18.2c-.47-2.28-2.49-4-4.9-4s-4.43,1.72-4.9,4h-3.1c-.55,0-1-.45-1-1v-6.08c2.23,1.13,4.96.94,7-.6,2.36,1.78,5.64,1.78,8,0,2.36,1.78,5.64,1.78,8,0,2.36,1.78,5.64,1.78,8,0,2.36,1.78,5.64,1.78,8,0,1.18.89,2.59,1.33,4,1.33,1.03,0,2.06-.24,3-.71v6.06ZM55,41.53c-1.83,1.55-4.57,1.49-6.29-.24-.38-.37-1.04-.37-1.42,0-.88.88-2.05,1.37-3.29,1.37s-2.41-.49-3.29-1.37c-.39-.39-1.03-.39-1.42,0-1.81,1.82-4.77,1.82-6.58,0-.39-.39-1.03-.39-1.42,0-1.81,1.82-4.77,1.82-6.58,0-.39-.39-1.03-.39-1.42,0-.88.88-2.05,1.37-3.29,1.37s-2.41-.49-3.29-1.37c-.38-.37-1.04-.37-1.42,0-1.72,1.73-4.46,1.79-6.29.24v-3.61c2.23,1.13,4.96.94,7-.6,2.36,1.78,5.64,1.78,8,0,2.36,1.78,5.64,1.78,8,0,2.36,1.78,5.64,1.78,8,0,2.36,1.78,5.64,1.78,8,0,1.18.89,2.59,1.33,4,1.33,1.03,0,2.06-.24,3-.71v3.59ZM55,35.53c-1.83,1.55-4.57,1.49-6.29-.24-.38-.37-1.04-.37-1.42,0-.88.88-2.05,1.37-3.29,1.37s-2.41-.49-3.29-1.37c-.39-.39-1.03-.39-1.42,0-1.81,1.82-4.77,1.82-6.58,0-.39-.39-1.03-.39-1.42,0-1.81,1.82-4.77,1.82-6.58,0-.39-.39-1.03-.39-1.42,0-.88.88-2.05,1.37-3.29,1.37s-2.41-.49-3.29-1.37c-.38-.37-1.04-.37-1.42,0-1.72,1.73-4.46,1.79-6.29.24v-1.53c0-.55.45-1,1-1h17c.55,0,1-.45,1-1s-.45-1-1-1h-2.56c.35-.59.56-1.27.56-2,0-1.6-.93-3-2.36-3.64-.1-.22-.23-.43-.37-.63,1.05-4.5,5.06-7.73,9.73-7.73,1.59,0,3.11.36,4.53,1.08.49.25,1.09.05,1.34-.44.25-.49.05-1.09-.44-1.34-1.7-.86-3.53-1.3-5.43-1.3-5.27,0-9.85,3.43-11.42,8.33-.48-.21-1.02-.33-1.58-.33-.14,0-.27.01-.41.03,1.74-5.82,7.21-10.03,13.41-10.03,6.31,0,11.69,4.13,13.42,10.03-.14-.02-.28-.03-.42-.03-.56,0-1.09.12-1.58.33-.51-1.6-1.36-3.09-2.5-4.35-.37-.41-1-.44-1.41-.07-.41.37-.44,1-.07,1.41,1.14,1.26,1.91,2.78,2.28,4.42-.13.19-.26.4-.36.62-1.43.64-2.36,2.04-2.36,3.64,0,.73.21,1.41.56,2h-8.56c-.55,0-1,.45-1,1s.45,1,1,1h23c.55,0,1,.45,1,1v1.53Z"/>
</svg>