<?xml version="1.0" encoding="UTF-8"?>
<svg id="Outline" xmlns="http://www.w3.org/2000/svg" version="1.1" viewBox="0 0 64 64">
  <!-- Generator: Adobe Illustrator 29.5.1, SVG Export Plug-In . SVG Version: 2.1.0 Build 141)  -->
  <path d="M33,23.051v-2.051h2v1c0,.553.447,1,1,1h6c.553,0,1-.447,1-1v-4c0-.553-.447-1-1-1h-6c-.553,0-1,.447-1,1v1h-6v-1c0-.553-.447-1-1-1h-6c-.553,0-1,.447-1,1v4c0,.553.447,1,1,1h6c.553,0,1-.447,1-1v-1h2v2.051c-7.253.516-13,6.567-13,13.949,0,3.728,1.474,7.112,3.859,9.624,0,0-1.716,2.862-1.716,2.862-.648,1.08,1.06,2.121,1.715,1.029l1.509-2.516c2.381,1.873,5.376,3.002,8.634,3.002s6.252-1.128,8.634-3.002l1.509,2.516c.666,1.111,2.379.078,1.715-1.029l-1.716-2.862c2.384-2.511,3.859-5.895,3.859-9.624,0-7.382-5.747-13.433-13-13.949ZM37,19.001h4v2h-4v-2ZM27,21.001h-4v-2h4v2ZM20,37.001c0-6.617,5.383-12,12-12s12,5.383,12,12-5.383,12-12,12-12-5.383-12-12Z"/>
  <path d="M12,33.001c0,.553.447,1,1,1s1-.447,1-1v-3h4c.553,0,1-.447,1-1v-4c0-.553-.447-1-1-1h-4v-6.523l3.629,1.452c.121.049.247.071.371.071,1.08,0,1.368-1.53.371-1.929,0,0-4.981-1.992-4.982-1.993l-5.018-2.007c-.508-.206-1.095.043-1.3.558-.205.513.045,1.095.558,1.3l4.371,1.748v7.323h-4c-.553,0-1,.447-1,1v4c0,.553.447,1,1,1h4v3ZM9,26.001h8v2h-8v-2Z"/>
  <path d="M14,46.586v-9.586c0-.553-.447-1-1-1s-1,.447-1,1v9.586l-2.707,2.707c-.391.391-.391,1.023,0,1.414s1.023.391,1.414,0l1.293-1.293v.586c0,.553.447,1,1,1s1-.447,1-1v-.586s1.293,1.293,1.293,1.293c.388.388,1.027.387,1.414,0,.391-.391.391-1.023,0-1.414l-2.707-2.707Z"/>
  <path d="M56,24.001h-4v-7.323l4.371-1.748c.513-.205.763-.787.558-1.3-.205-.515-.791-.764-1.3-.558,0,0-5.018,2.007-5.019,2.008l-4.981,1.992c-.98.392-.701,1.929.371,1.929.124,0,.25-.022.371-.071l3.629-1.452v6.523h-4c-.553,0-1,.447-1,1v4c0,.553.447,1,1,1h4v16.586l-2.707,2.707c-.391.391-.391,1.023,0,1.414s1.023.391,1.414,0l1.293-1.293v.586c0,.553.447,1,1,1s1-.447,1-1v-.586l1.293,1.293c.369.369,1.017.397,1.414,0,.391-.391.391-1.023,0-1.414l-2.707-2.707v-16.586h4c.553,0,1-.447,1-1v-4c0-.553-.447-1-1-1ZM55,28.001h-8v-2h8v2Z"/>
  <path d="M40.468,31.68c-.293-.47-.913-.611-1.378-.317-.469.293-.61.91-.317,1.378.803,1.283,1.228,2.756,1.228,4.26,0,4.411-3.589,8-8,8s-8-3.589-8-8,3.589-8,8-8c1.504,0,2.977.425,4.26,1.228.469.295,1.086.153,1.378-.317.293-.468.151-1.085-.317-1.378-1.601-1.002-3.44-1.532-5.32-1.532-5.514,0-10,4.486-10,10s4.486,10,10,10,10-4.486,10-10c0-1.88-.53-3.72-1.532-5.32Z"/>
</svg>