<?xml version="1.0" encoding="UTF-8"?>
<svg id="Outline" xmlns="http://www.w3.org/2000/svg" version="1.1" viewBox="0 0 64 64">
  <!-- Generator: Adobe Illustrator 29.5.1, SVG Export Plug-In . SVG Version: 2.1.0 Build 141)  -->
  <path d="M57,34.673v-8c0-.552-.448-1-1-1h-4c-.477,0-.887.336-.98.804-1.064,5.329-5.783,9.196-11.22,9.196h-2.8v-13.342c.185.076.372.146.553.237.256.128.555.14.819.034l1.271-.508c2.105-.842,4.476-.743,6.503.271l.408.204c.634.317,1.447-.147,1.447-.895,0-7.628-6.134-13.839-13.727-13.986-.042-.003-.084-.005-.098-.006-.046-.003-.087-.004-.13-.005-.015,0-.029-.002-.044-.002-.041,0-.081.006-.123.006-.03.001-.05,0-.087.004-.013,0-.025.002-.037.003-7.605.134-13.752,6.351-13.753,13.987,0,.724.799,1.218,1.447.895l.408-.204c2.028-1.014,4.398-1.112,6.503-.271l1.271.508c.266.106.563.094.819-.034.18-.09.367-.161.553-.237v13.342h-3c-6.617,0-12-5.383-12-12v-3c0-1.654-1.346-3-3-3h-5c-.552,0-1,.448-1,1v4c0,.552.448,1,1,1h2v3c0,.552.448,1,1,1s1-.448,1-1v-4c0-.552-.448-1-1-1h-2v-2h4c.551,0,1,.449,1,1v3c0,7.72,6.28,14,14,14h11.8c6.111,0,11.449-4.158,12.994-10h2.206v7c0,3.856-2.022,7.391-5.288,9.377-.357-.202-.701-.436-1.005-.741-.375-.375-1.039-.375-1.414,0-.879.879-2.049,1.364-3.293,1.364s-2.414-.484-3.293-1.364c-.391-.391-1.023-.391-1.414,0-1.815,1.815-4.771,1.815-6.586,0-.391-.391-1.023-.391-1.414,0-1.815,1.815-4.771,1.815-6.586,0-.391-.391-1.023-.391-1.414,0-.879.879-2.049,1.364-3.293,1.364s-2.414-.484-3.293-1.364c-.215-.215-.522-.292-.818-.261-2.471-2.099-3.889-5.11-3.889-8.375,0-.552-.448-1-1-1s-1,.448-1,1c0,3.641,1.483,7.021,4.102,9.474-1.748.886-3.935.621-5.395-.838-.391-.391-1.023-.391-1.414,0s-.391,1.023,0,1.414c2.372,2.372,6.101,2.575,8.707.615,2.359,1.775,5.641,1.775,8,0,2.359,1.775,5.641,1.775,8,0,2.359,1.775,5.641,1.775,8,0,2.359,1.775,5.641,1.775,8,0,.389.292.808.519,1.238.715.087.053.181.093.28.118.796.32,1.636.499,2.482.499,1.705,0,3.409-.649,4.707-1.947.391-.391.391-1.023,0-1.414s-1.023-.391-1.414,0c-.818.818-1.868,1.247-2.94,1.328,2.912-2.439,4.647-6.07,4.647-9.964ZM31.676,20.018c-.025.009-.051.009-.075.02-.201.05-.402.096-.6.159,0-.008,0-.016,0-.024,0-6.071,1.696-10.222,2.891-10.493.037,0,.083-.003.145-.005.023.001.047.003.071.004,1.195.265,2.894,4.417,2.894,10.493,0,.008,0,.016,0,.024-.198-.062-.399-.109-.6-.159-.024-.01-.05-.011-.075-.02-.763-.182-1.543-.284-2.324-.284s-1.561.102-2.324.284ZM45.896,20.09c-2.226-.784-4.674-.75-6.897.112,0-.01,0-.019,0-.029,0-3.687-.617-7.637-1.919-10.091,4.632,1.233,8.174,5.166,8.815,10.008ZM22.104,20.09c.641-4.842,4.183-8.775,8.815-10.008-1.302,2.454-1.919,6.404-1.919,10.091,0,.01,0,.019,0,.028-2.223-.861-4.671-.895-6.897-.111ZM33,35.673v-13.873c.664-.083,1.336-.083,2,0v13.873h-2Z"/>
  <path d="M55.293,47.966c-1.815,1.815-4.771,1.815-6.586,0-.375-.375-1.039-.375-1.414,0-.879.879-2.049,1.364-3.293,1.364s-2.414-.484-3.293-1.364c-.391-.391-1.023-.391-1.414,0-1.815,1.815-4.771,1.815-6.586,0-.391-.391-1.023-.391-1.414,0-1.815,1.815-4.771,1.815-6.586,0-.391-.391-1.023-.391-1.414,0-.879.879-2.049,1.364-3.293,1.364s-2.414-.484-3.293-1.364c-.375-.375-1.039-.375-1.414,0-1.815,1.815-4.771,1.815-6.586,0-.391-.391-1.023-.391-1.414,0s-.391,1.023,0,1.414c2.372,2.372,6.101,2.575,8.707.615,2.359,1.775,5.641,1.775,8,0,2.359,1.775,5.641,1.775,8,0,2.359,1.775,5.641,1.775,8,0,2.359,1.775,5.641,1.775,8,0,1.18.888,2.59,1.332,4,1.332,1.705,0,3.409-.649,4.707-1.947.391-.391.391-1.023,0-1.414s-1.023-.391-1.414,0Z"/>
  <path d="M55.293,52.966c-1.815,1.815-4.771,1.815-6.586,0-.375-.375-1.039-.375-1.414,0-.879.879-2.049,1.364-3.293,1.364s-2.414-.484-3.293-1.364c-.391-.391-1.023-.391-1.414,0-1.815,1.815-4.771,1.815-6.586,0-.391-.391-1.023-.391-1.414,0-1.815,1.815-4.771,1.815-6.586,0-.391-.391-1.023-.391-1.414,0-.879.879-2.049,1.364-3.293,1.364s-2.414-.484-3.293-1.364c-.375-.375-1.039-.375-1.414,0-1.815,1.815-4.771,1.815-6.586,0-.391-.391-1.023-.391-1.414,0s-.391,1.023,0,1.414c2.372,2.372,6.101,2.575,8.707.615,2.359,1.775,5.641,1.775,8,0,2.359,1.775,5.641,1.775,8,0,2.359,1.775,5.641,1.775,8,0,2.359,1.775,5.641,1.775,8,0,1.18.888,2.59,1.332,4,1.332,1.705,0,3.409-.649,4.707-1.947.391-.391.391-1.023,0-1.414s-1.023-.391-1.414,0Z"/>
  <circle cx="11" cy="30.673" r="1"/>
</svg>