<?xml version="1.0" encoding="UTF-8"?>
<svg id="Outline" xmlns="http://www.w3.org/2000/svg" version="1.1" viewBox="0 0 64 64">
  <!-- Generator: Adobe Illustrator 29.5.1, SVG Export Plug-In . SVG Version: 2.1.0 Build 141)  -->
  <path d="M56,32c.55,0,1-.45,1-1v-5c0-.11-.03-.21-.06-.31l.01-.01-6-18c-.14-.4-.52-.68-.95-.68H14c-.43,0-.81.28-.95.68l-6,18,.01.01c-.03.1-.06.2-.06.31v30c0,.55.45,1,1,1h48c.55,0,1-.45,1-1v-17c0-.55-.45-1-1-1s-1,.45-1,1v16H9v-28h46v4c0,.55.45,1,1,1ZM31,25H9.39l5.33-16h16.28v16ZM33,25V9h16.28l5.33,16h-21.61Z"/>
  <path d="M20,41c0,6.617,5.383,12,12,12s12-5.383,12-12-5.383-12-12-12-12,5.383-12,12ZM42,41c0,5.514-4.486,10-10,10s-10-4.486-10-10,4.486-10,10-10,10,4.486,10,10Z"/>
  <path d="M15,49c.552,0,1-.447,1-1v-3.586l.293.293c.195.195.451.293.706.293.865,0,1.32-1.095.708-1.707l-2-2c-.391-.391-1.023-.391-1.414,0l-2,2c-.391.391-.391,1.023,0,1.414s1.023.391,1.414,0l.293-.293v3.586c0,.553.448,1,1,1Z"/>
  <path d="M11,52c0,.553.448,1,1,1h6c.552,0,1-.447,1-1s-.448-1-1-1h-6c-.552,0-1,.447-1,1Z"/>
  <path d="M29.828,39.561c-1.133-1.133-3.109-1.133-4.242,0-.567.566-.879,1.32-.879,2.121s.312,1.556.879,2.121l1.171,1.172c.944.944,2.2,1.465,3.536,1.465s2.591-.521,3.512-1.441l4.609-4.316c1.17-1.17,1.17-3.072,0-4.242-1.133-1.133-3.133-1.109-4.219-.023l-3.879,3.632-.488-.487ZM35.586,37.854c.378-.377,1.036-.379,1.414,0,.39.39.39,1.024.023,1.391l-4.609,4.316c-1.134,1.133-3.109,1.133-4.243,0l-1.172-1.173c-.188-.188-.292-.438-.292-.706s.104-.518.293-.707c.377-.379,1.036-.377,1.414,0l1.172,1.172c.38.381.996.391,1.391.023l4.609-4.316Z"/>
  <circle cx="56" cy="35" r="1"/>
</svg>