<?xml version="1.0" encoding="UTF-8"?>
<svg id="Outline" xmlns="http://www.w3.org/2000/svg" version="1.1" viewBox="0 0 64 64">
  <!-- Generator: Adobe Illustrator 29.3.1, SVG Export Plug-In . SVG Version: 2.1.0 Build 151)  -->
  <path d="M56.55078,19.45483c-.05054-.03339-.10571-.05603-.15674-.08789l-24-10.28613c-.25195-.10742-.53613-.10742-.78809,0,0,0-24,10.28613-23.99634,10.29462-.05469.02338-.1098.04596-.1604.07941-.28027.18555-.44922.49902-.44922.83496v10.70996c0,.55273.44775,1,1,1s1-.44727,1-1v-9.19336l6,2.56989v8.62347c0,.37891.21387.72461.55273.89453l5.9998,2.9999c.62123.31061,1.44746-.14685,1.44746-.89443v-8.19696l8,3.42645v21.25385l-22-9.43256v-4.05078c0-.55273-.44775-1-1-1s-1,.44727-1,1v4.70996c0,.40039.23828.76172.60596.91895l24,10.29004c.12598.05371.25977.08105.39404.08105s.26807-.02734.39404-.08105l24-10.29004c.36768-.15723.60596-.51855.60596-.91895,0,0,0-23.41992,0-23.41997-.00002-.33875-.16872-.64961-.44922-.83491ZM32,29.48218l-6.75836-2.89478,20.97668-9.40594,7.24768,3.1062-21.466,9.19452ZM17.755,23.38062l20.96857-9.41132,4.99634,2.14136-20.97644,9.40668-4.98846-2.13672ZM32,11.08765l4.22449,1.81055-20.63367,9.24902c-.10419.04669-.19348.1134-.27362.18921l-4.7832-2.04877,21.466-9.20001ZM21,34.38159l-4-2v-7.14868l4,1.71326v7.43542ZM55,43.05054l-22,9.43256v-21.25385l22-9.42285v21.24414Z"/>
  <path d="M35.45963,48.76059c.26575.17781.61067.23854.93441.09854l16-6.86035c.36768-.15723.60596-.51855.60596-.91895v-14.73047c0-.33594-.16895-.64941-.44971-.83496-.28027-.18555-.63525-.2168-.94434-.08398l-16,6.86035c-.36768.15723-.60596.51855-.60596.91895v14.73043c0,.3361.18866.63913.45963.82044ZM37,33.8689l14-6.00293v12.55469l-14,6.00293v-12.55469Z"/>
  <path d="M47.59375,31.53003l-8,3.55566c-.50439.22461-.73193.81543-.50732,1.32031.16553.37305.53076.59375.91406.59375.13574,0,.27344-.02734.40576-.08594l8-3.55566c.50439-.22461.73193-.81543.50732-1.32031-.22461-.50586-.81396-.7334-1.31982-.50781Z"/>
  <path d="M47.59375,37.53003l-8,3.55566c-.50439.22461-.73193.81543-.50732,1.32031.16553.37305.53076.59375.91406.59375.13574,0,.27344-.02734.40576-.08594l8-3.55566c.50439-.22461.73193-.81543.50732-1.32031-.22461-.50586-.81396-.73242-1.31982-.50781Z"/>
  <circle cx="8" cy="34.99976" r="1"/>
</svg>