<?xml version="1.0" encoding="UTF-8"?>
<svg id="Outline" xmlns="http://www.w3.org/2000/svg" version="1.1" viewBox="0 0 64 64">
  <!-- Generator: Adobe Illustrator 29.5.1, SVG Export Plug-In . SVG Version: 2.1.0 Build 141)  -->
  <path d="M56,26.999c.55,0,1-.45,1-1v-4c0-.55-.45-1-1-1h-11v-2h1c.55,0,1-.45,1-1v-4c0-.55-.45-1-1-1h-2v-2c0-.45-.3-.85-.74-.96l-11-3c-.17-.05-.35-.05-.52,0l-11,3c-.44.11-.74.51-.74.96v2h-2c-.55,0-1,.45-1,1v4c0,.55.45,1,1,1h1v2h-11c-.55,0-1,.45-1,1v4c0,.55.45,1,1,1h1v4h-1c-.55,0-1,.45-1,1v4c0,.55.45,1,1,1v14c-.55,0-1,.45-1,1v4c0,.55.45,1,1,1h48c.55,0,1-.45,1-1v-4c0-.55-.45-1-1-1v-14c.55,0,1-.45,1-1v-4c0-.55-.45-1-1-1h-1v-4h1ZM22,11.759l10-2.72,10,2.72v1.24h-20v-1.24ZM19,14.999h26v2h-26v-2ZM45,26.999h8v4h-8v-4ZM37,20.999c-2.21,0-4,1.79-4,4v6h-2v-6c0-2.21-1.79-4-4-4s-4,1.79-4,4v6h-2v-12h22v12h-2v-6c0-2.21-1.79-4-4-4ZM39,24.999v6h-4v-6c0-1.1.9-2,2-2s2,.9,2,2ZM29,24.999v6h-4v-6c0-1.1.9-2,2-2s2,.9,2,2ZM9,22.999h10v2h-10v-2ZM19,26.999v4h-8v-4h8ZM55,54.999H9v-2h46v2ZM46,38.999c-3.31,0-6,2.69-6,6v6h-2v-6c0-3.31-2.69-6-6-6s-6,2.69-6,6v6h-2v-6c0-3.31-2.69-6-6-6s-6,2.69-6,6v6h-2v-14h44v14h-2v-6c0-3.31-2.69-6-6-6ZM50,44.999v6h-8v-6c0-2.21,1.79-4,4-4s4,1.79,4,4ZM36,44.999v6h-8v-6c0-2.21,1.79-4,4-4s4,1.79,4,4ZM22,44.999v6h-8v-6c0-2.21,1.79-4,4-4s4,1.79,4,4ZM55,34.999H9v-2h46v2ZM45,24.999v-2h10v2h-10Z"/>
</svg>