<?xml version="1.0" encoding="UTF-8"?>
<svg id="Outline" xmlns="http://www.w3.org/2000/svg" version="1.1" viewBox="0 0 64 64">
  <!-- Generator: Adobe Illustrator 29.5.1, SVG Export Plug-In . SVG Version: 2.1.0 Build 141)  -->
  <path d="M34,25c0-4.963-4.037-9-9-9s-9,4.037-9,9,4.037,9,9,9,9-4.037,9-9ZM25,32c-3.859,0-7-3.141-7-7s3.141-7,7-7,7,3.141,7,7-3.141,7-7,7Z"/>
  <path d="M55.83,44.05c.77-1.14,1.17-2.48,1.17-3.85v-9.2c0-1.65-1.35-3-3-3-.35,0-.69.07-1,.18v-.18c0-1.65-1.35-3-3-3-.35,0-.69.07-1,.18v-1.18c0-1.65-1.35-3-3-3-1.39,0-2.54.95-2.89,2.23-.07-.03-.14-.05-.22-.07-.13-1.34-.42-2.67-.87-3.96.6-.55.98-1.33.98-2.2v-3.12l6-.75v1.05c-.31-.11-.65-.18-1-.18-1.65,0-3,1.35-3,3s1.35,3,3,3,3-1.35,3-3v-9c0-.29-.12-.56-.34-.75-.21-.19-.5-.28-.78-.24l-8,1c-.5.06-.88.49-.88.99v5.18c-.31-.11-.65-.18-1-.18-.24,0-.47.04-.7.09-3.38-4.45-8.67-7.09-14.3-7.09C15.08,7,7,15.08,7,25s8.08,18,18,18c3.41,0,6.67-.94,9.51-2.72.31.8.49,1.66.49,2.53,0,2.63,1.13,5.15,3.06,6.92-.64.55-1.06,1.36-1.06,2.27v2c0,1.65,1.35,3,3,3,.55,0,1-.45,1-1s-.45-1-1-1-1-.45-1-1v-2c0-.55.45-1,1-1h14c.55,0,1,.45,1,1v2c0,.55-.45,1-1,1h-6c-.55,0-1,.45-1,1s.45,1,1,1h6c1.65,0,3-1.35,3-3v-2c0-1.3-.84-2.4-2-2.82v-2.38c0-.98.29-1.93.83-2.75ZM48,18c-.55,0-1-.45-1-1s.45-1,1-1,1,.45,1,1-.45,1-1,1ZM43,9.88l6-.75v1.99l-6,.75v-1.99ZM40,16c.55,0,1,.45,1,1s-.45,1-1,1-1-.45-1-1,.45-1,1-1ZM25,41c-8.82,0-16-7.18-16-16s7.18-16,16-16c4.96,0,9.61,2.3,12.62,6.19-.38.5-.62,1.13-.62,1.81,0,1.65,1.35,3,3,3,.06,0,.12-.01.18-.02.35,1.06.59,2.15.71,3.24-1.1.45-1.89,1.53-1.89,2.78v9.4c-.77-1.1-1.94-1.87-3.26-2.15-1.52-.33-3.1.02-4.34.95-.22.16-.36.41-.39.67-.04.27.04.54.21.75l2.25,2.81c.02.03.04.07.06.1-2.54,1.61-5.47,2.47-8.53,2.47ZM54.17,42.95c-.77,1.14-1.17,2.48-1.17,3.85v2.2h-12.67l-.37-.28c-1.85-1.39-2.96-3.6-2.96-5.91,0-2.04-.7-4.04-1.97-5.63l-1.5-1.87c.57-.2,1.18-.24,1.79-.11.95.21,1.76.81,2.23,1.66l2.2,3.95c.36.65.96,1.15,1.67,1.38l2.26.76c1.58.53,2.84,1.79,3.37,3.37.18.52.74.8,1.27.63.52-.18.8-.74.63-1.27-.73-2.17-2.46-3.9-4.63-4.63l-2.27-.75c-.23-.08-.43-.25-.55-.47l-.5-.89v-12.94c0-.54.44-.99,1-1,.55,0,1,.45,1,1v10c0,.55.45,1,1,1s1-.45,1-1v-12c0-.55.45-1,1-1s1,.45,1,1v12c0,.55.45,1,1,1s1-.45,1-1v-8c0-.55.45-1,1-1s1,.45,1,1v8c0,.55.45,1,1,1s1-.45,1-1v-5c0-.55.45-1,1-1s1,.45,1,1v9.2c0,.98-.29,1.93-.83,2.75Z"/>
  <path d="M19.876,44.008l-8,1c-.5.062-.876.488-.876.992v5.184c-.314-.112-.648-.184-1-.184-1.654,0-3,1.346-3,3s1.346,3,3,3,3-1.346,3-3v-3.117l6-.75v1.052c-.314-.112-.648-.184-1-.184-1.654,0-3,1.346-3,3s1.346,3,3,3,3-1.346,3-3v-9c0-.287-.123-.56-.338-.75-.215-.189-.501-.276-.786-.242ZM10,55c-.552,0-1-.448-1-1s.448-1,1-1,1,.448,1,1-.448,1-1,1ZM13,48.867v-1.984l6-.75v1.984l-6,.75ZM18,55c-.552,0-1-.448-1-1s.448-1,1-1,1,.448,1,1-.448,1-1,1Z"/>
  <circle cx="44" cy="56" r="1"/>
</svg>