<?xml version="1.0" encoding="UTF-8"?>
<svg id="Outline" xmlns="http://www.w3.org/2000/svg" version="1.1" viewBox="0 0 64 64">
  <!-- Generator: Adobe Illustrator 29.5.1, SVG Export Plug-In . SVG Version: 2.1.0 Build 141)  -->
  <path d="M26,33c-1.654,0-3,1.346-3,3s1.346,3,3,3,3-1.346,3-3-1.346-3-3-3ZM26,37c-.551,0-1-.448-1-1s.449-1,1-1,1,.448,1,1-.449,1-1,1Z"/>
  <path d="M54,9h-16c-1.65,0-3,1.35-3,3v13h-14c-.55,0-1,.45-1,1s.45,1,1,1h14v1c0,.35.07.69.18,1H12c-.55,0-1,.45-1,1v20c0,.55.45,1,1,1h28c.55,0,1-.45,1-1v-19h2v21c0,.55-.45,1-1,1H10c-.55,0-1-.45-1-1v-24c0-.55.45-1,1-1h3c.55,0,1-.45,1-1s-.45-1-1-1h-3c-1.65,0-3,1.35-3,3v24c0,1.65,1.35,3,3,3h32c1.65,0,3-1.35,3-3v-21h9c1.65,0,3-1.35,3-3V12c0-1.65-1.35-3-3-3ZM39,49H13v-2.59l7-7,5.29,5.3c.39.39,1.03.39,1.42,0l7.29-7.3,5,5v6.59ZM39,39.59l-4.29-4.3c-.39-.39-1.03-.39-1.42,0l-7.29,7.3-5.29-5.3c-.39-.39-1.03-.39-1.42,0l-6.29,6.3v-12.59h26v8.59ZM55,28c0,.55-.45,1-1,1h-16c-.55,0-1-.45-1-1V12c0-.55.45-1,1-1h16c.55,0,1,.45,1,1v16Z"/>
  <path d="M46,13.834c-1.884-1.276-4.477-1.082-6.144.585-1.889,1.889-1.889,4.963,0,6.852l5.437,5.437c.195.195.451.293.707.293s.512-.098.707-.293l5.437-5.437c.915-.915,1.419-2.132,1.419-3.426s-.504-2.511-1.419-3.426c-1.667-1.667-4.259-1.861-6.144-.585ZM50.73,19.856l-4.73,4.729-4.73-4.729c-1.109-1.109-1.109-2.914,0-4.023.555-.555,1.283-.831,2.012-.831s1.457.276,2.011.831c.391.391,1.023.391,1.414,0,1.109-1.109,2.914-1.109,4.023,0,.537.537.833,1.252.833,2.012s-.296,1.475-.833,2.012Z"/>
  <circle cx="17" cy="26" r="1"/>
</svg>