<?xml version="1.0" encoding="UTF-8"?>
<svg id="Outline" xmlns="http://www.w3.org/2000/svg" version="1.1" viewBox="0 0 64 64">
  <!-- Generator: Adobe Illustrator 29.5.1, SVG Export Plug-In . SVG Version: 2.1.0 Build 141)  -->
  <path d="M50,30.989c0-1.46-1.06-2.68-2.45-2.94l-14.74-20.64c-.37-.53-1.25-.53-1.62,0l-14.74,20.64c-1.39.26-2.45,1.48-2.45,2.94,0,.87.38,1.66.98,2.21-.64,1.85-.98,3.79-.98,5.79,0,9.93,8.07,18,18,18s18-8.07,18-18c0-2-.34-3.94-.98-5.8.6-.54.98-1.33.98-2.2ZM32,9.709l13.06,18.28h-26.12l13.06-18.28ZM32,54.989c-8.82,0-16-7.18-16-16,0-1.73.29-3.41.83-5.02.06.01.11.02.17.02h30c.06,0,.11-.01.17-.02.54,1.61.83,3.29.83,5.02,0,8.82-7.18,16-16,16ZM47,31.989h-30c-.55,0-1-.45-1-1s.45-1,1-1h30c.55,0,1,.45,1,1s-.45,1-1,1Z"/>
  <path d="M32,42.989c-2.206,0-4,2.243-4,5s1.794,5,4,5,4-2.243,4-5-1.794-5-4-5ZM32,50.989c-1.084,0-2-1.374-2-3s.916-3,2-3,2,1.374,2,3-.916,3-2,3Z"/>
  <path d="M21.293,38.282c-.391.391-.391,1.023,0,1.414s1.023.391,1.414,0c.713-.713,1.873-.713,2.586,0,.195.195.451.293.707.293.874,0,1.324-1.09.707-1.707-1.492-1.493-3.922-1.493-5.414,0Z"/>
  <path d="M37.293,38.282c-.391.391-.391,1.023,0,1.414s1.023.391,1.414,0c.713-.713,1.873-.713,2.586,0,.195.195.451.293.707.293.874,0,1.325-1.089.707-1.707-1.492-1.493-3.922-1.493-5.414,0Z"/>
</svg>