<?xml version="1.0" encoding="UTF-8"?>
<svg id="Outline" xmlns="http://www.w3.org/2000/svg" version="1.1" viewBox="0 0 64 64">
  <!-- Generator: Adobe Illustrator 29.5.1, SVG Export Plug-In . SVG Version: 2.1.0 Build 141)  -->
  <path d="M52,43c-.38,0-.751.047-1.109.128l-16.841-28.711c1.163-.7,1.951-1.963,1.951-3.417,0-2.206-1.794-4-4-4s-4,1.794-4,4c0,1.454.788,2.717,1.951,3.417l-6.734,11.487c-.279.477-.119,1.089.357,1.369.473.277,1.091.116,1.368-.357l6.989-11.923c.023,0,.045.007.068.007s.045-.006.068-.007l9.419,16.057c-5.706,6.983-13.256,12.048-21.904,14.69-1.036-.638-2.283-.895-3.527-.644-.313-.442-.694-.818-1.119-1.13l5.956-10.16c.279-.477.119-1.089-.357-1.369-.477-.28-1.09-.119-1.369.357l-6.058,10.334c-.359-.081-.729-.128-1.109-.128-2.757,0-5,2.243-5,5s2.243,5,5,5c.313,0,.629-.032.944-.096.929,1.31,2.418,2.096,4.056,2.096.566,0,1.123-.1,1.663-.298,1.332,1.212,3.278,1.633,5,1,1.567,1.427,4.005,1.693,5.837.612,1.525.9,3.475.9,5,0,.763.45,1.614.686,2.5.686,1.242,0,2.422-.465,3.337-1.298,1.725.633,3.668.212,5-1,.54.198,1.097.298,1.663.298,1.638,0,3.127-.786,4.056-2.096.315.063.63.096.944.096,2.757,0,5-2.243,5-5s-2.243-5-5-5ZM32,9c1.103,0,2,.897,2,2s-.897,2-2,2-2-.897-2-2,.897-2,2-2ZM45.211,37.399l3.852,6.566c-.425.312-.806.688-1.119,1.13-1.562-.315-3.135.16-4.281,1.202-1.723-.63-3.667-.212-5,1-1.385-.507-2.913-.351-4.163.388-.544-.321-1.143-.523-1.757-.615,4.646-2.499,8.88-5.782,12.468-9.672ZM42.564,32.887l1.589,2.71c-4.453,4.962-9.998,8.935-16.109,11.521-.888-.193-1.827-.142-2.707.181-.444-.404-.959-.71-1.508-.928,7.272-2.88,13.669-7.475,18.735-13.483ZM50.945,50.796c-.484-.183-1.029.034-1.254.5-.721,1.491-2.549,2.177-4.112,1.326-.425-.232-.953-.126-1.256.25-.892,1.102-2.426,1.467-3.744.75-.425-.231-.953-.125-1.256.25-1.017,1.257-2.916,1.483-4.194.451-.183-.148-.406-.222-.628-.222s-.445.074-.628.222c-1.099.888-2.645.888-3.743,0-.366-.296-.891-.296-1.257,0-1.278,1.033-3.178.807-4.194-.451-.303-.375-.831-.481-1.256-.25-1.319.717-2.853.352-3.744-.75-.303-.376-.831-.481-1.256-.25-1.562.85-3.392.166-4.112-1.326-.225-.466-.77-.683-1.254-.5-2.084.788-4.055-.799-4.055-2.796,0-1.654,1.346-3,3-3,1.151,0,2.183.653,2.69,1.704.225.467.77.685,1.254.5,1.292-.488,2.577-.066,3.377.925.303.375.831.481,1.256.25,1.317-.718,2.852-.353,3.744.75.303.376.831.481,1.256.25,1.106-.603,2.352-.461,3.293.3.366.296.891.296,1.257,0,1.099-.888,2.645-.888,3.743,0,.366.296.891.296,1.257,0,.942-.761,2.186-.903,3.293-.3.425.232.953.125,1.256-.25.891-1.104,2.425-1.468,3.744-.75.425.231.953.126,1.256-.25.802-.991,2.087-1.413,3.377-.925.485.184,1.029-.034,1.254-.5.508-1.051,1.539-1.704,2.69-1.704,1.654,0,3,1.346,3,3,0,1.997-1.974,3.583-4.055,2.796Z"/>
  <circle cx="22.111" cy="29.885" r="1"/>
</svg>