<?xml version="1.0" encoding="UTF-8"?>
<svg id="Outline" xmlns="http://www.w3.org/2000/svg" version="1.1" viewBox="0 0 64 64">
  <!-- Generator: Adobe Illustrator 29.5.1, SVG Export Plug-In . SVG Version: 2.1.0 Build 141)  -->
  <path d="M35.34,32.37c-.18-.18-.39-.32-.6-.47.77-.73,1.26-1.76,1.26-2.9,0-2.21-1.79-4-4-4s-4,1.79-4,4c0,1.12.47,2.13,1.21,2.86-.27.18-.52.38-.75.61-.94.95-1.46,2.21-1.46,3.53h-3c-.77,0-1.47.3-2,.78-.53-.48-1.23-.78-2-.78h-3c0-1.32-.52-2.58-1.47-3.54-.23-.23-.48-.43-.74-.6.75-.73,1.21-1.74,1.21-2.86,0-2.21-1.79-4-4-4s-4,1.79-4,4c0,1.14.49,2.17,1.26,2.9-.21.15-.42.29-.6.47-1.06,1.01-1.66,2.41-1.66,3.86v8.77c0,.55.45,1,1,1h.09l.91,10.09c.05.52.48.91,1,.91h7c.55,0,1-.45,1-1,0-1.82-1.23-3.34-2.89-3.82l.77-6.18h.12c.55,0,1-.45,1-1v-3h3c.77,0,1.47-.3,2-.78.53.48,1.23.78,2,.78h3v3c0,.55.45,1,1,1h.12l.77,6.18c-1.66.48-2.89,2-2.89,3.82,0,.55.45,1,1,1h7c.52,0,.95-.39,1-.91l.91-10.09h.09c.55,0,1-.45,1-1v-8.77c0-1.45-.6-2.85-1.66-3.86ZM12,27c1.1,0,2,.9,2,2s-.9,2-2,2-2-.9-2-2,.9-2,2-2ZM15.73,55h-4.82l-.81-9h3.77l-.75,6h-.12c-.55,0-1,.45-1,1s.45,1,1,1h1c.74,0,1.39.4,1.73,1ZM20,40h-5c-1.1,0-2-.9-2-2,0-.55-.45-1-1-1s-1,.45-1,1c0,2.21,1.79,4,4,4v2h-6v-7.77c0-.9.38-1.78,1.04-2.41.59-.56,1.34-.86,2.1-.82.74.04,1.45.35,1.98.87.57.58.88,1.33.88,2.13v1c0,.55.45,1,1,1h4c.55,0,1,.45,1,1s-.45,1-1,1ZM32,27c1.1,0,2,.9,2,2s-.9,2-2,2-2-.9-2-2,.9-2,2-2ZM33.09,55h-4.82c.34-.6.99-1,1.73-1h1c.55,0,1-.45,1-1s-.45-1-1-1h-.12l-.75-6h3.77l-.81,9ZM35,44h-6v-2c2.21,0,4-1.79,4-4,0-.55-.45-1-1-1s-1,.45-1,1c0,1.1-.9,2-2,2h-5c-.55,0-1-.45-1-1s.45-1,1-1h4c.55,0,1-.45,1-1v-1c0-.8.31-1.55.87-2.12.54-.53,1.25-.84,1.99-.88.75-.04,1.51.26,2.1.82.66.63,1.04,1.51,1.04,2.41v7.77Z"/>
  <path d="M56,19c.55,0,1-.45,1-1v-8c0-1.65-1.35-3-3-3h-14c-1.65,0-3,1.35-3,3v17.75c0,.89.36,1.71.95,2.3.59.59,1.41.95,2.3.95h13.75c1.65,0,3-1.35,3-3v-2c0-.55-.45-1-1-1s-1,.45-1,1v2c0,.55-.45,1-1,1h-13.75c-.69,0-1.25-.56-1.25-1.25,0-.57.39-1.07.94-1.21l2.3-.57c.31-.08.56-.29.68-.58.12-.29.1-.61-.05-.89l-3.87-6.77v-7.73c0-.55.45-1,1-1h14c.55,0,1,.45,1,1v8c0,.55.45,1,1,1ZM40.48,24.35l-1.02.25c-.16.04-.31.1-.46.16v-2.99l1.48,2.58Z"/>
  <path d="M52,11h-10c-.552,0-1,.448-1,1s.448,1,1,1h10c.552,0,1-.448,1-1s-.448-1-1-1Z"/>
  <path d="M52,15h-6c-.552,0-1,.448-1,1s.448,1,1,1h6c.552,0,1-.448,1-1s-.448-1-1-1Z"/>
  <path d="M52,19h-6c-.552,0-1,.448-1,1s.448,1,1,1h6c.552,0,1-.448,1-1s-.448-1-1-1Z"/>
  <circle cx="56" cy="22" r="1"/>
</svg>