<?xml version="1.0" encoding="UTF-8"?>
<svg id="Outline" xmlns="http://www.w3.org/2000/svg" version="1.1" viewBox="0 0 64 64">
  <!-- Generator: Adobe Illustrator 29.5.1, SVG Export Plug-In . SVG Version: 2.1.0 Build 141)  -->
  <path d="M32,7c-13.79,0-25,11.21-25,25s11.21,25,25,25,25-11.21,25-25S45.79,7,32,7ZM32,55c-12.68,0-23-10.32-23-23s10.32-23,23-23,23,10.32,23,23-10.32,23-23,23Z"/>
  <path d="M32,11c-11.58,0-21,9.42-21,21s9.42,21,21,21,21-9.42,21-21-9.42-21-21-21ZM40,49.21c-2.44,1.14-5.14,1.79-8,1.79s-5.56-.65-8-1.79v-1.21c0-.55.45-1,1-1h14c.55,0,1,.45,1,1v1.21ZM29,31c.55,0,1-.45,1-1v-12c0-.55.45-1,1-1s1,.45,1,1v12c0,.55.45,1,1,1s1-.45,1-1v-8c0-.55.45-1,1-1s1,.45,1,1v8c0,.55.45,1,1,1s1-.45,1-1v-5c0-.55.45-1,1-1s1,.45,1,1v11.2c0,.98-.29,1.93-.83,2.75-.77,1.14-1.17,2.48-1.17,3.85v2.2h-12.67c-.1-.08-.22-.17-.37-.28-.93-.7-1.67-1.58-2.18-2.6-.51-1.03-.78-2.17-.78-3.31,0-2.03-.7-4.03-1.97-5.63l-1.5-1.87c.57-.2,1.18-.24,1.78-.11.95.2,1.77.81,2.25,1.66l1.57,2.83c.22.39.68.59,1.12.48.44-.12.75-.51.75-.97v-15.2c0-.55.45-1,1-1s1,.45,1,1v10c0,.55.45,1,1,1ZM42,48.13v-.13c0-1.3-.84-2.4-2-2.82v-2.38c0-.98.29-1.93.83-2.75.77-1.14,1.17-2.48,1.17-3.85v-11.2c0-1.65-1.35-3-3-3-.35,0-.69.07-1,.18v-.18c0-1.65-1.35-3-3-3-.35,0-.69.07-1,.18v-1.18c0-1.65-1.35-3-3-3-1.38,0-2.54.95-2.88,2.22-.35-.14-.73-.22-1.12-.22-1.65,0-3,1.35-3,3v11.4c-.78-1.1-1.94-1.88-3.27-2.16-1.52-.32-3.09.03-4.33.96-.22.16-.36.41-.39.67-.04.27.04.54.21.75l2.25,2.81c.99,1.24,1.53,2.8,1.53,4.38,0,1.45.34,2.9.99,4.2.52,1.03,1.22,1.94,2.07,2.72-.64.55-1.06,1.36-1.06,2.27v.13c-5.39-3.36-9-9.32-9-16.13,0-10.48,8.52-19,19-19s19,8.52,19,19c0,6.81-3.61,12.77-9,16.13Z"/>
  <path d="M27,36.998c0,.458.31.858.754.971l.123.032c1.839.458,3.123,2.104,3.123,3.999,0,.553.447,1,1,1s1-.447,1-1c0-1.94-.906-3.704-2.362-4.836,1.854-.793,3.548-1.936,4.984-3.372l.085-.085c.391-.391.391-1.023,0-1.414s-1.023-.391-1.414,0l-.085.085c-1.779,1.779-4.01,3.042-6.45,3.652-.444.11-.757.51-.758.968Z"/>
</svg>