<?xml version="1.0" encoding="UTF-8"?>
<svg id="Outline" xmlns="http://www.w3.org/2000/svg" version="1.1" viewBox="0 0 64 64">
  <!-- Generator: Adobe Illustrator 29.5.1, SVG Export Plug-In . SVG Version: 2.1.0 Build 141)  -->
  <path d="M56,54.002h-11.85c.25-.85.81-1.6,1.6-2.12,7.04-4.65,11.25-12.46,11.25-20.88,0-.55-.45-1-1-1h-3.36c-.85-3.59-3.13-6.55-6.18-8.29l7.85-9.53c.35-.43.29-1.06-.13-1.41l-3.08-2.54c-.21-.17-.47-.25-.74-.23-.26.03-.5.16-.67.36l-9.59,11.64h-.1c-.78,0-1.55.07-2.3.21l6.61-8.03c.35-.43.29-1.06-.13-1.41l-3.08-2.54c-.21-.17-.48-.25-.74-.23-.26.03-.5.16-.67.36l-10.02,12.17c-2.15-1.58-4.8-2.53-7.67-2.53-6.83,0-12.44,5.3-12.95,12h-1.05c-.55,0-1,.45-1,1,0,8.42,4.21,16.23,11.25,20.88.79.52,1.35,1.27,1.6,2.12h-11.85c-.55,0-1,.45-1,1s.45,1,1,1h48c.55,0,1-.45,1-1s-.45-1-1-1ZM50.6,10.411l1.53,1.27-7.54,9.15c-.67-.25-1.37-.45-2.09-.59l8.1-9.83ZM40,22.002c4.99,0,9.26,3.3,10.58,8h-2.09c-1.27-3.57-4.66-6-8.49-6-2.21,0-4.29.81-5.92,2.24-.25-.65-.56-1.27-.91-1.86,1.93-1.54,4.32-2.38,6.83-2.38ZM40.6,10.411l1.53,1.27-8,9.72c-.74.37-1.44.82-2.1,1.33-.27-.31-.54-.62-.83-.91l9.4-11.41ZM22,20.002c5.73,0,10.44,4.4,10.95,10h-2.01c-.5-4.49-4.32-8-8.94-8s-8.44,3.51-8.94,8h-2.01c.51-5.6,5.22-10,10.95-10ZM22,26.002c-2.41,0-4.43,1.72-4.9,4h-2.02c.49-3.39,3.4-6,6.92-6s6.43,2.61,6.92,6h-2.02c-.47-2.28-2.49-4-4.9-4ZM24.82,30.002h-5.64c.42-1.16,1.52-2,2.82-2s2.4.84,2.82,2ZM42.09,54.002h-20.18c-.28-1.52-1.19-2.9-2.56-3.79-5.06-3.34-8.52-8.45-9.8-14.21h4.45c.55,0,1-.45,1-1s-.45-1-1-1h-4.79c-.09-.66-.16-1.33-.19-2h29.98c.55,0,1-.45,1-1s-.45-1-1-1h-4.05c-.04-.54-.11-1.07-.21-1.59,1.34-1.53,3.22-2.41,5.26-2.41,2.73,0,5.16,1.6,6.31,4h-3.31c-.55,0-1,.45-1,1s.45,1,1,1h11.98c-.03.67-.1,1.34-.19,2H18c-.55,0-1,.45-1,1s.45,1,1,1h36.45c-1.28,5.76-4.74,10.87-9.8,14.21-1.37.89-2.28,2.27-2.56,3.79Z"/>
</svg>