<?xml version="1.0" encoding="UTF-8"?>
<svg id="Outline" xmlns="http://www.w3.org/2000/svg" version="1.1" viewBox="0 0 64 64">
  <!-- Generator: Adobe Illustrator 29.3.1, SVG Export Plug-In . SVG Version: 2.1.0 Build 151)  -->
  <path d="M56.58002,43.77997c-.39001-.5-.96002-.77997-1.59003-.77997h-.15997c.10999-.65002.16998-1.32001.16998-2,0-6.62-5.38-12-12-12-4.91998,0-9.15002,2.97998-11,7.21997-1.46002-3.34998-4.40997-5.89996-8-6.82996v-10.39001h4c2.07001,0,3.90002-1.06,4.97998-2.66003l18.96002,1.37c.10999.01001.21997.01001.33002.01001,1.19,0,2.34998-.45001,3.22998-1.26001.95001-.88995,1.5-2.14996,1.5-3.45996s-.54999-2.57001-1.5-3.46002c-.96002-.89001-2.26001-1.34998-3.56-1.25l-18.96002,1.37c-1.07996-1.59998-2.90997-2.65997-4.97998-2.65997h-15c-.54999,0-1,.45001-1,1s.45001,1,1,1h5v3h-5c-.54999,0-1,.45001-1,1s.45001,1,1,1h1v3h-1c-.54999,0-1,.45001-1,1s.45001,1,1,1h1v12.26996c-3.02002,2.18005-5,5.73004-5,9.73004,0,.67999.06,1.34998.16998,2h-.15997c-.63,0-1.20001.27997-1.59003.77997-.38.48004-.51001,1.11005-.35999,1.71002,1.06,4.16998,4.66998,7.15002,8.94,7.47998v2.03003c0,1.09998.90002,2,2,2h28c1.09998,0,2-.90002,2-2v-2.03003c4.27002-.32996,7.88-3.31,8.94-7.47998.15002-.59998.02002-1.22998-.35999-1.71002ZM33.83002,11.59998l18.25-1.31c.76996-.06,1.48999.20001,2.04999.72003.56.51996.87,1.22998.87,1.98999s-.31,1.46997-.87,1.98999-1.28003.77997-2.04999.71997l-18.25-1.31c.10999-.44995.16998-.91998.16998-1.39996,0-.48004-.06-.95001-.16998-1.40002ZM28,9c2.21002,0,4,1.78998,4,4s-1.78998,4-4,4v-8ZM43,31c5.51001,0,10,4.48999,10,10,0,.69-.09003,1.34998-.22998,2h-2.03003c.16998-.65002.26001-1.31.26001-2,0-4.41003-3.59003-8-8-8s-8,3.58997-8,8c0,.69.09003,1.34998.26001,2h-2.03003c-.13995-.65002-.22998-1.31-.22998-2,0-5.51001,4.48999-10,10-10ZM43,37c-2.21002,0-4,1.78998-4,4,0,.72998.21002,1.40997.56,2h-2.21002c-.22998-.63-.34998-1.29999-.34998-2,0-3.31,2.69-6,6-6s6,2.69,6,6c0,.70001-.12,1.37-.34998,2h-2.21002c.34998-.59003.56-1.27002.56-2,0-2.21002-1.78998-4-4-4ZM45,41c0,1.09998-.90002,2-2,2s-2-.90002-2-2c0-1.10004.90002-2,2-2s2,.89996,2,2ZM26,17h-2v-3h2v3ZM20,9h6v3h-6v-3ZM20,14h2v3h-2v-3ZM20,19h2v10.04999c-.33002-.03003-.65997-.04999-1-.04999s-.66998.01996-1,.04999v-10.04999ZM16,14h2v3h-2v-3ZM16,19h2v10.39001c-.69.17999-1.35999.41998-2,.71997v-11.10999ZM21,31c5.51001,0,10,4.48999,10,10,0,.69-.09003,1.34998-.22998,2h-2.03003c.16998-.65002.26001-1.31.26001-2,0-4.41003-3.59003-8-8-8s-8,3.58997-8,8c0,.69.09003,1.34998.26001,2h-2.03003c-.13995-.65002-.22998-1.31-.22998-2,0-5.51001,4.48999-10,10-10ZM21,37c-2.21002,0-4,1.78998-4,4,0,.72998.21002,1.40997.56,2h-2.21002c-.22998-.63-.34998-1.29999-.34998-2,0-3.31,2.69-6,6-6s6,2.69,6,6c0,.70001-.12,1.37-.34998,2h-2.21002c.34998-.59003.56-1.27002.56-2,0-2.21002-1.78998-4-4-4ZM23,41c0,1.09998-.90002,2-2,2s-2-.90002-2-2c0-1.10004.90002-2,2-2s2,.89996,2,2ZM46,55h-28v-2h28v2ZM47.21002,51h-30.42004c-3.69,0-6.89996-2.47003-7.77997-6h45.98999c-.89001,3.52997-4.09998,6-7.78998,6Z"/>
</svg>