<?xml version="1.0" encoding="UTF-8"?>
<svg id="Outline" xmlns="http://www.w3.org/2000/svg" version="1.1" viewBox="0 0 64 64">
  <!-- Generator: Adobe Illustrator 29.5.1, SVG Export Plug-In . SVG Version: 2.1.0 Build 141)  -->
  <path d="M56.55,23.171l-5.55-3.71v-5.46c0-1.59-1.24-2.88-2.8-2.98h-.04c-.05-.01-.1-.02-.16-.02h-9.7l-5.75-3.83c-.33-.23-.77-.23-1.1,0l-5.75,3.83h-9.38c-.92,0-1.74.38-2.34.98-.6.6-.98,1.42-.98,2.33v5.15l-5.55,3.71c-.28.18-.45.5-.45.83v30c0,1.65,1.35,3,3,3h44c1.65,0,3-1.35,3-3v-30c0-.33-.17-.65-.45-.83ZM32,9.201l2.7,1.8h-5.4l2.7-1.8ZM38.56,13.001l-17.89,3.83-1.19-3.56c-.03-.09-.08-.18-.12-.27h19.2ZM15,14.321c0-.73.59-1.32,1.32-1.32.58,0,1.08.36,1.26.91l1.47,4.41c.14.41.53.68.95.68.07,0,.14-.01.21-.02l27.85-5.97c.52.03.94.46.94.99v16.88l-17,9.76-17-9.77V14.321ZM9,24.541l4-2.67v7.85l-4-2.3v-2.88ZM10,55.001c-.55,0-1-.45-1-1v-24.27l22.49,12.92c.01,0,.02.01.03.02l21.47,12.33H10ZM55,53.851l-20.99-12.06,20.99-12.05v24.11ZM55,27.431l-4,2.3v-7.86l4,2.67v2.89Z"/>
  <path d="M36.472,26.574l2.332.625c.087.023.174.035.26.035.441,0,.846-.295.965-.742.143-.534-.174-1.082-.707-1.225l-1.767-.473.474-1.766c.144-.533-.174-1.082-.707-1.225-.533-.144-1.081.173-1.225.707l-.625,2.331-2.472,1.427v-2.854l1.707-1.707c.391-.391.391-1.023,0-1.414s-1.023-.391-1.414,0l-1.293,1.293-1.293-1.293c-.391-.391-1.023-.391-1.414,0s-.391,1.023,0,1.414l1.707,1.707v2.854l-2.472-1.427-.625-2.331c-.144-.534-.689-.851-1.225-.707-.533.143-.851.691-.707,1.225l.474,1.766-1.767.473c-.533.143-.85.691-.707,1.225.119.447.523.742.965.742.086,0,.173-.011.26-.035l2.332-.625,2.471,1.427-2.471,1.427-2.332-.625c-.531-.141-1.082.174-1.225.707-.143.534.174,1.082.707,1.225l1.767.473-.474,1.766c-.144.533.174,1.082.707,1.225.528.142,1.081-.18,1.225-.707l.625-2.331,2.472-1.427v2.854l-1.707,1.707c-.391.391-.391,1.023,0,1.414s1.023.391,1.414,0l1.293-1.293,1.293,1.293c.195.195.451.293.707.293.871,0,1.322-1.092.707-1.707l-1.707-1.707v-2.854l2.472,1.427.625,2.331c.333,1.242,2.269.736,1.932-.518l-.474-1.766,1.767-.473c.533-.143.85-.691.707-1.225-.143-.533-.691-.849-1.225-.707l-2.332.625-2.471-1.427,2.471-1.427Z"/>
</svg>