<?xml version="1.0" encoding="UTF-8"?>
<svg id="Outline" xmlns="http://www.w3.org/2000/svg" version="1.1" viewBox="0 0 64 64">
  <!-- Generator: Adobe Illustrator 29.5.1, SVG Export Plug-In . SVG Version: 2.1.0 Build 141)  -->
  <path d="M51,38c0-.27-.11-.53-.3-.72l-5.05-4.93.08-7.07c0-.27-.11-.52-.3-.72-.19-.19-.46-.29-.71-.29l-7.07.08-3.86-3.95c.73-.55,1.21-1.42,1.21-2.4,0-1.3-.84-2.4-2-2.82v-7.18c0-.55-.45-1-1-1s-1,.45-1,1v7.18c-1.16.42-2,1.52-2,2.82,0,.98.48,1.85,1.21,2.4l-3.86,3.95-7.07-.08c-.26,0-.52.1-.71.29-.19.2-.3.45-.3.72l.08,7.07-5.05,4.93c-.19.19-.3.45-.3.72s.11.53.3.72l5.05,4.93-.08,7.07c0,.27.11.52.3.72.19.19.45.29.71.29l7.07-.08,4.93,5.05c.19.19.45.3.72.3s.53-.11.72-.3l4.93-5.05,7.07.08c.25,0,.52-.1.71-.29.19-.2.3-.45.3-.72l-.08-7.07,5.05-4.93c.19-.19.3-.45.3-.72ZM32,17c.55,0,1,.45,1,1s-.45,1-1,1-1-.45-1-1,.45-1,1-1ZM43.94,42.52c-.19.19-.3.45-.3.73l.08,6.47-6.47-.08c-.29-.02-.54.11-.73.3l-4.52,4.63-4.52-4.63c-.19-.19-.45-.3-.72-.3h-.01l-6.47.08.08-6.47c0-.28-.11-.54-.3-.73l-4.63-4.52,4.63-4.52c.19-.19.3-.45.3-.73l-.08-6.47,6.47.08c.26-.01.54-.11.73-.3l4.52-4.63,4.52,4.63c.19.19.47.32.73.3l6.47-.08-.08,6.47c0,.28.11.54.3.73l4.63,4.52-4.63,4.52Z"/>
  <path d="M41.681,29.332c.003-.27-.103-.528-.293-.719-.19-.19-.444-.315-.719-.293l-4.683.055-3.271-3.349c-.377-.386-1.055-.386-1.432,0l-3.271,3.349-4.683-.055c-.282-.024-.528.103-.719.293-.19.19-.296.449-.293.719l.055,4.681-3.35,3.272c-.192.188-.301.446-.301.715s.108.527.301.715l3.35,3.272-.055,4.681c-.003.27.103.528.293.719.19.19.438.279.719.293l4.683-.055,3.271,3.349c.188.193.446.301.716.301s.527-.108.716-.301l3.271-3.349,4.683.055c.272-.015.528-.103.719-.293.19-.19.296-.449.293-.719l-.055-4.681,3.35-3.272c.192-.188.301-.446.301-.715s-.108-.527-.301-.715l-3.35-3.272.055-4.681ZM42.846,38l-2.924,2.855c-.195.191-.304.454-.301.727l.048,4.085-4.087-.048c-.301-.03-.537.105-.728.301l-2.854,2.923-2.854-2.923c-.188-.193-.446-.301-.716-.301h-.012l-4.087.048.048-4.085c.003-.273-.105-.536-.301-.727l-2.924-2.855,2.924-2.855c.195-.191.304-.454.301-.727l-.048-4.085,4.087.048c.267,0,.536-.106.728-.301l2.854-2.923,2.854,2.923c.191.196.459.333.728.301l4.087-.048-.048,4.085c-.003.273.105.536.301.727l2.924,2.855Z"/>
</svg>