<?xml version="1.0" encoding="UTF-8"?>
<svg id="Outline" xmlns="http://www.w3.org/2000/svg" version="1.1" viewBox="0 0 64 64">
  <!-- Generator: Adobe Illustrator 29.5.1, SVG Export Plug-In . SVG Version: 2.1.0 Build 141)  -->
  <path d="M26,13h2c.553,0,1-.448,1-1s-.447-1-1-1h-1v-2h10v2h-1c-.553,0-1,.448-1,1s.447,1,1,1h2c.553,0,1-.448,1-1v-4c0-.552-.447-1-1-1h-12c-.553,0-1,.448-1,1v4c0,.552.447,1,1,1Z"/>
  <path d="M19.979,15.494c.188-.188.293-.442.293-.707s-.105-.52-.293-.707l-2.829-2.828c-.391-.391-1.023-.391-1.414,0l-8.485,8.485c-.188.188-.293.442-.293.707s.105.52.293.707l2.829,2.828c.195.195.451.293.707.293s.512-.098.707-.293l8.485-8.485ZM9.372,20.444l7.071-7.071,1.415,1.414-7.071,7.071-1.415-1.414Z"/>
  <path d="M52.506,23.979c.195.195.451.293.707.293s.512-.098.707-.293l2.829-2.828c.188-.188.293-.442.293-.707s-.105-.52-.293-.707l-8.485-8.485c-.391-.391-1.023-.391-1.414,0l-2.829,2.828c-.188.188-.293.442-.293.707s.105.52.293.707l8.485,8.485ZM47.557,13.373l7.071,7.071-1.415,1.414-7.071-7.071,1.415-1.414Z"/>
  <path d="M26.214,27.643c.18,0,.361-.048.525-.149.516-.319,1.062-.592,1.624-.812.515-.201.77-.78.568-1.295s-.783-.768-1.295-.568c-.675.263-1.331.591-1.95.974-.834.515-.457,1.851.527,1.851Z"/>
  <path d="M21.319,33.172c.497.181,1.094-.081,1.281-.598.381-1.047.933-2.018,1.641-2.886.349-.428.284-1.058-.144-1.407-.428-.348-1.058-.284-1.407.144-.85,1.042-1.512,2.209-1.969,3.466-.189.519.079,1.093.598,1.282Z"/>
  <path d="M22.496,39.126c-.329-1.004-.496-2.056-.495-3.205v-.08c.01-.552-.431-.911-.997-.92-.546,0-.995.532-1.004,1.079,0,1.282.2,2.543.596,3.749.169.516.747.809,1.262.639.524-.172.811-.737.639-1.262Z"/>
  <path d="M24.044,42.063c-.333-.438-.963-.525-1.401-.188-.439.334-.523.962-.188,1.401.812,1.066,1.791,1.982,2.907,2.724.449.298,1.091.166,1.387-.28.306-.46.181-1.081-.279-1.386-.932-.618-1.747-1.382-2.425-2.271Z"/>
  <path d="M32.812,45.967c-1.1.087-2.236-.006-3.312-.282-.535-.137-1.08.185-1.218.72-.137.535.186,1.08.72,1.217.976.25,1.983.377,2.998.377.326,0,.65-.013.97-.039.551-.044.962-.526.918-1.077-.044-.55-.535-.953-1.076-.917Z"/>
  <path d="M38.313,25.792c-.619-.383-1.275-.71-1.95-.974-.512-.198-1.094.054-1.295.568s.054,1.094.568,1.295c.562.219,1.108.492,1.624.812.465.286,1.089.14,1.377-.324.29-.47.146-1.086-.324-1.377Z"/>
  <path d="M41.62,28.822c-.33-.442-.956-.533-1.399-.203-.442.331-.533.958-.202,1.4.757,1.014,1.308,2.144,1.636,3.36.121.445.524.739.965.739.649,0,1.136-.635.967-1.262-.396-1.46-1.057-2.818-1.966-4.035Z"/>
  <path d="M52.724,38.812c-.027-.159-.081-.312-.181-.442-.172-.223-.429-.363-.709-.387-1.046-.088-1.834-.941-1.834-1.983s.788-1.896,1.834-1.983c.275-.023.529-.16.7-.376.172-.217.246-.495.205-.768-1.524-10.189-10.44-17.872-20.739-17.872s-19.215,7.683-20.739,17.872c-.041.273.033.551.205.768.171.217.425.353.7.376,1.046.088,1.834.941,1.834,1.983s-.788,1.896-1.834,1.983c-.275.023-.529.16-.7.376-.172.217-.246.495-.205.768,1.524,10.189,10.44,17.872,20.739,17.872,3.16,0,6.177-.689,8.984-2.031,1.676,1.269,3.756,2.031,6.016,2.031,5.514,0,10-4.486,10-10,0-3.385-1.695-6.378-4.276-8.188ZM43.042,36.238c-.551-.054-1.043.336-1.104.884-.054.49-.154.969-.278,1.438-2.096,1.331-3.66,3.417-4.314,5.875-.417.266-.847.509-1.294.707-.505.225-.731.815-.508,1.32.221.498.824.729,1.32.508.048-.021.093-.049.141-.071,0,.034-.005.067-.005.101,0,1.028.157,2.021.446,2.955-1.73.68-3.554,1.045-5.446,1.045-8.271,0-15-6.729-15-15s6.729-15,15-15,15,6.729,15,15c0,.342-.011.677-.032,1.002-1.07.003-2.099.179-3.066.495.006-.052.019-.103.024-.155.061-.549-.336-1.043-.885-1.104ZM13.398,32.258c1.756-8.761,9.594-15.258,18.602-15.258s16.846,6.497,18.602,15.258c-.726.266-1.34.737-1.792,1.335-1.175-8.235-8.254-14.593-16.809-14.593s-15.634,6.358-16.809,14.593c-.453-.598-1.067-1.069-1.792-1.335ZM13.398,39.742c.726-.266,1.34-.737,1.792-1.335,1.175,8.235,8.254,14.593,16.809,14.593,2.163,0,4.249-.421,6.227-1.207.334.608.733,1.175,1.181,1.698-2.332.998-4.817,1.509-7.408,1.509-9.008,0-16.846-6.497-18.602-15.258ZM47,55c-3.31,0-6.157-2.021-7.372-4.893-.001-.003,0-.006-.002-.009,0-.001-.002-.002-.002-.003-.401-.952-.624-1.998-.624-3.095,0-4.411,3.589-8,8-8,.245,0,.486.015.725.037.005,0,.008.004.012.004.011.001.021-.003.031-.002,4.052.388,7.231,3.809,7.231,7.961,0,4.411-3.589,8-8,8Z"/>
  <path d="M44,42c-.553,0-1,.448-1,1v8c0,.552.447,1,1,1s1-.448,1-1v-8c0-.552-.447-1-1-1Z"/>
  <path d="M50,42c-.553,0-1,.448-1,1v8c0,.552.447,1,1,1s1-.448,1-1v-8c0-.552-.447-1-1-1Z"/>
  <path d="M33,33.184v-9.184c0-.552-.447-1-1-1s-1,.448-1,1v9.184c-1.161.414-2,1.514-2,2.816,0,1.654,1.346,3,3,3s3-1.346,3-3c0-1.302-.839-2.402-2-2.816ZM32,37c-.552,0-1-.449-1-1s.448-1,1-1,1,.449,1,1-.448,1-1,1Z"/>
  <circle cx="32" cy="12" r="1"/>
</svg>