<?xml version="1.0" encoding="UTF-8"?>
<svg id="Outline" xmlns="http://www.w3.org/2000/svg" version="1.1" viewBox="0 0 64 64">
  <!-- Generator: Adobe Illustrator 29.5.1, SVG Export Plug-In . SVG Version: 2.1.0 Build 141)  -->
  <path d="M33,27c0-4.963-4.037-9-9-9s-9,4.037-9,9,4.037,9,9,9,9-4.037,9-9ZM17,27c0-3.859,3.141-7,7-7s7,3.141,7,7-3.141,7-7,7-7-3.141-7-7Z"/>
  <path d="M25,32v-.184c1.161-.414,2-1.514,2-2.816,0-1.654-1.346-3-3-3-.552,0-1-.448-1-1s.448-1,1-1,1,.448,1,1,.447,1,1,1,1-.447,1-1c0-1.302-.839-2.402-2-2.816v-.184c0-.553-.447-1-1-1s-1,.447-1,1v.184c-1.161.414-2,1.514-2,2.816,0,1.654,1.346,3,3,3,.552,0,1,.448,1,1s-.448,1-1,1-1-.448-1-1-.447-1-1-1-1,.447-1,1c0,1.302.839,2.402,2,2.816v.184c0,.553.447,1,1,1s1-.447,1-1Z"/>
  <path d="M34,43h-2c-.553,0-1,.447-1,1v8c0,.553.447,1,1,1s1-.447,1-1v-3h1c1.654,0,3-1.346,3-3s-1.346-3-3-3ZM34,47h-1v-2h1c.552,0,1,.448,1,1s-.448,1-1,1Z"/>
  <path d="M38,46v6c0,.553.447,1,1,1s1-.447,1-1v-2h2v2c0,.553.447,1,1,1s1-.447,1-1v-6c0-1.654-1.346-3-3-3s-3,1.346-3,3ZM41,45c.552,0,1,.448,1,1v2h-2v-2c0-.552.448-1,1-1Z"/>
  <path d="M48,48.333v3.667c0,.553.447,1,1,1s1-.447,1-1v-3.667l2.8-3.733c.332-.441.242-1.068-.2-1.399-.44-.331-1.068-.242-1.399.2l-2.2,2.933-2.2-2.933c-.331-.442-.959-.532-1.399-.2-.442.331-.532.958-.2,1.399l2.8,3.733Z"/>
  <path d="M55,39h-14v-16c0-.553-.447-1-1-1s-1,.447-1,1v16h-2V13c0-1.103-.897-2-2-2h-6.38c-.767,0-1.455.423-1.799,1.111l-.441.889-4.762.012-.443-.909c-.34-.68-1.028-1.103-1.795-1.103h-6.38c-1.103,0-2,.897-2,2v27c0,.553.447,1,1,1s1-.447,1-1V13l6.382-.012.443.909c.34.68,1.028,1.103,1.795,1.103h4.76c.767,0,1.455-.423,1.799-1.111l.441-.889h6.38v26h-6c-1.103,0-2,.897-2,2v8h-14v-5c0-.553-.447-1-1-1s-1,.447-1,1v5c0,1.103.897,2,2,2h14v2H11c-1.103,0-2-.897-2-2V11c0-1.103.897-2,2-2h26c1.103,0,2,.897,2,2v8c0,.553.447,1,1,1s1-.447,1-1v-8c0-2.206-1.794-4-4-4H11c-2.206,0-4,1.794-4,4v40c0,2.206,1.794,4,4,4h16c0,1.103.897,2,2,2h26c1.103,0,2-.897,2-2v-14c0-1.103-.897-2-2-2ZM54.997,55h-25.997v-14h26l-.003,14Z"/>
</svg>