<?xml version="1.0" encoding="UTF-8"?>
<svg id="Outline" xmlns="http://www.w3.org/2000/svg" version="1.1" viewBox="0 0 64 64">
  <!-- Generator: Adobe Illustrator 29.5.1, SVG Export Plug-In . SVG Version: 2.1.0 Build 141)  -->
  <path d="M55,47h-2v-2c1.1,0,2-.9,2-2v-11c0-.55-.45-1-1-1s-1,.45-1,1v11H11v-24h2v10c0,2.21,1.79,4,4,4h12.03l-1.91,3.7c-.25.49-.06,1.1.43,1.35l3.55,1.84c.15.07.31.11.46.11.36,0,.71-.2.89-.54l2.3-4.44,1.77.92c.32.16.71.14,1.02-.06.3-.2.47-.55.44-.91l-.16-1.97h9.18c2.21,0,4-1.79,4-4v-10h2v9c0,.55.45,1,1,1s1-.45,1-1v-9c0-1.1-.9-2-2-2h-2v-6c0-2.21-1.79-4-4-4h-30c-2.21,0-4,1.79-4,4v6h-2c-1.1,0-2,.9-2,2v24c0,1.1.9,2,2,2v2h-2c-1.1,0-2,.9-2,2v3.59c0,.53.21,1.03.59,1.41l2.41,2.41c.37.38.89.59,1.41.59h11.59c.55,0,1-.45,1-1s-.45-1-1-1h-11.59l-2.41-2.41v-3.59h15.38l1.45,2.89c.34.69,1.02,1.11,1.79,1.11h8.76c.77,0,1.45-.42,1.79-1.11l1.45-2.89h15.38v3.59l-2.41,2.41h-25.59c-.55,0-1,.45-1,1s.45,1,1,1h25.59c.52,0,1.04-.21,1.41-.59l2.41-2.41c.38-.38.59-.88.59-1.41v-3.59c0-1.1-.9-2-2-2ZM34.78,32.78c-.49-.25-1.1-.06-1.35.43l-2.3,4.44-1.77-.92,2.29-4.44c.26-.49.06-1.09-.43-1.35l-1.06-.54,5.19-3.08.49,6.01-1.06-.55ZM37.21,25.56c-.03-.34-.23-.64-.54-.8-.3-.16-.67-.15-.96.03l-3.74,2.21h-12.97v-14h26v14h-7.67l-.12-1.44ZM15,11c0-1.1.9-2,2-2h30c1.1,0,2,.9,2,2v18c0,1.1-.9,2-2,2h-9.34l-.17-2h7.51c1.1,0,2-.9,2-2v-14c0-1.1-.9-2-2-2h-26c-1.1,0-2,.9-2,2v14c0,1.1.9,2,2,2h9.59l-1,.59c-.31.19-.5.53-.49.89.01.19.06.37.16.52h-10.26c-1.1,0-2-.9-2-2V11ZM36.38,51h-8.76l-1-2h10.76l-1,2ZM51,47H13v-2h38v2Z"/>
  <path d="M24,15h-2c-.553,0-1,.448-1,1v8c0,.552.447,1,1,1s1-.448,1-1v-3h1c1.654,0,3-1.346,3-3s-1.346-3-3-3ZM24,19h-1v-2h1c.552,0,1,.449,1,1s-.448,1-1,1Z"/>
  <path d="M31,15c-1.654,0-3,1.346-3,3v6c0,.552.447,1,1,1s1-.448,1-1v-2h2v2c0,.552.447,1,1,1s1-.448,1-1v-6c0-1.654-1.346-3-3-3ZM30,20v-2c0-.551.448-1,1-1s1,.449,1,1v2h-2Z"/>
  <path d="M41.2,15.4l-2.2,2.934-2.2-2.934c-.331-.441-.959-.533-1.399-.2-.442.331-.532.958-.2,1.4l2.8,3.733v3.667c0,.552.447,1,1,1s1-.448,1-1v-3.667l2.8-3.733c.332-.442.242-1.069-.2-1.4-.44-.332-1.068-.241-1.399.2Z"/>
</svg>