<?xml version="1.0" encoding="UTF-8"?>
<svg id="Outline" xmlns="http://www.w3.org/2000/svg" version="1.1" viewBox="0 0 64 64">
  <!-- Generator: Adobe Illustrator 29.5.1, SVG Export Plug-In . SVG Version: 2.1.0 Build 141)  -->
  <path d="M42,31h-26c-.55,0-1,.45-1,1s.45,1,1,1h26c.55,0,1,.45,1,1v13h-8c-.55,0-1,.45-1,1s.45,1,1,1h8v2H9v-2h22c.55,0,1-.45,1-1s-.45-1-1-1H9v-13c0-.55.45-1,1-1h2c.55,0,1-.45,1-1s-.45-1-1-1h-2c-1.65,0-3,1.35-3,3v20c0,1.65,1.35,3,3,3h32c1.65,0,3-1.35,3-3v-20c0-1.65-1.35-3-3-3ZM43,54c0,.55-.45,1-1,1H10c-.55,0-1-.45-1-1v-1h34v1Z"/>
  <path d="M40,45c.553,0,1-.447,1-1v-8c0-.553-.447-1-1-1h-6c-.553,0-1,.447-1,1v8c0,.553.447,1,1,1h6ZM35,43v-2h4v2h-4ZM39,37v2h-4v-2h4Z"/>
  <path d="M46,7c-6.065,0-11,4.935-11,11v10c0,.548.456,1,1,1,.26,0,.516-.102.707-.293l2.253-2.253c1.973,1.648,4.438,2.546,7.04,2.546,6.065,0,11-4.935,11-11s-4.935-11-11-11ZM46,27c-2.404,0-4.664-.937-6.364-2.636-.195-.195-.451-.293-.707-.293s-.512.098-.707.293l-1.222,1.222v-7.586c0-4.963,4.037-9,9-9s9,4.037,9,9-4.037,9-9,9Z"/>
  <path d="M46,11c-3.859,0-7,3.141-7,7s3.141,7,7,7,7-3.141,7-7-3.141-7-7-7ZM46,23c-2.757,0-5-2.243-5-5s2.243-5,5-5,5,2.243,5,5-2.243,5-5,5Z"/>
  <path d="M47.445,16.168l-2.318,1.545-.42-.42c-.391-.391-1.023-.391-1.414,0s-.391,1.023,0,1.414l1,1c.193.193.449.293.707.293.192,0,.386-.055.555-.168l3-2c.46-.307.584-.927.277-1.387s-.926-.583-1.387-.277Z"/>
</svg>