<?xml version="1.0" encoding="UTF-8"?>
<svg id="Outline" xmlns="http://www.w3.org/2000/svg" version="1.1" viewBox="0 0 64 64">
  <!-- Generator: Adobe Illustrator 29.5.1, SVG Export Plug-In . SVG Version: 2.1.0 Build 141)  -->
  <path d="M56.67,47.77c-1.58-1.23-2.74-2.97-3.27-4.9-.47-1.7-1.28-3.26-2.4-4.63s-2.5-2.46-4.1-3.26l-3.96-1.96v-12.03h5c.55,0,1-.45,1-1v-9c0-2.21-1.79-4-4-4H10.94c-2.21,0-4,1.79-4,4v45c0,.32.15.62.42.81.26.19.59.24.9.14l5.65-1.89,4.66,1.87c.22.09.46.1.69.02l5.68-1.9,5.68,1.9c.23.08.47.07.69-.02l4.66-1.87,5.65,1.89c.612.205,1.32-.258,1.32-.95v-2.37l.83.79c.12.12.26.2.42.24l4.25,1.22,1.21.93c.18.14.399.21.609.21.935,0,1.346-1.222.611-1.79l-1.36-1.05c-.1-.08-.21-.14-.34-.17l-4.2-1.2-2.26-2.16c-2.55-2.43-5.41-4.56-8.46-6.29.19-.35.49-.63.84-.83.71-.38,1.55-.34,2.22.11l4.5,3.01c.45.3.97.46,1.5.46,1.47,0,2.67-1.15,2.73-2.61.09-2.55-1.09-4.96-3.1-6.45v-2.79l3.08,1.53c1.34.66,2.5,1.58,3.43,2.72.95,1.16,1.63,2.47,2.03,3.91.64,2.34,2.05,4.45,3.97,5.94.18.14.39.21.61.21.3,0,.59-.13.79-.39.34-.43.26-1.06-.18-1.4ZM42.94,10.99c0-1.1.9-2,2-2s2,.9,2,2v8h-4v-8ZM40.94,10.99v32.66l-1.98-1.33-.55-.36c-1.26-.86-2.89-.93-4.27-.2-.75.41-1.35,1.03-1.73,1.79-.1.19-.16.38-.17.49-.08.41-.02.83.17,1.19.16.31.4.57.73.77,2.84,1.62,5.45,3.55,7.8,5.73v2.87l-4.68-1.56c-.23-.08-.47-.07-.69.02l-4.66,1.87-5.65-1.89c-.21-.07-.43-.07-.64,0l-5.65,1.89-4.66-1.87c-.22-.09-.46-.09-.69-.02l-4.68,1.56V10.99c0-1.1.9-2,2-2h30.56c-.35.59-.56,1.27-.56,2ZM44.04,44.41c-.02.6-.68.84-1.1.58v-4.16c.74,1.02,1.15,2.28,1.1,3.58Z"/>
  <path d="M11.94,14.99h4c.552,0,1-.447,1-1s-.448-1-1-1h-4c-.552,0-1,.447-1,1s.448,1,1,1Z"/>
  <path d="M37.94,12.99h-16c-.552,0-1,.447-1,1s.448,1,1,1h16c.552,0,1-.447,1-1s-.448-1-1-1Z"/>
  <path d="M11.94,18.99h4c.552,0,1-.447,1-1s-.448-1-1-1h-4c-.552,0-1,.447-1,1s.448,1,1,1Z"/>
  <path d="M37.94,16.99h-16c-.552,0-1,.447-1,1s.448,1,1,1h16c.552,0,1-.447,1-1s-.448-1-1-1Z"/>
  <path d="M11.94,22.99h4c.552,0,1-.447,1-1s-.448-1-1-1h-4c-.552,0-1,.447-1,1s.448,1,1,1Z"/>
  <path d="M37.94,20.99h-16c-.552,0-1,.447-1,1s.448,1,1,1h16c.552,0,1-.447,1-1s-.448-1-1-1Z"/>
  <path d="M20.176,32.99h2.764c.552,0,1-.447,1-1s-.448-1-1-1h-1v-1c0-.553-.448-1-1-1s-1,.447-1,1v1.024c-1.121.12-2,1.06-2,2.212,0,.852.473,1.617,1.236,2l2.633,1.315c.081.041.131.122.131.212,0,.13-.106.236-.236.236h-2.764c-.552,0-1,.447-1,1s.448,1,1,1h1v1c0,.553.448,1,1,1s1-.447,1-1v-1.024c1.121-.12,2-1.06,2-2.212,0-.852-.473-1.617-1.236-2l-2.633-1.315c-.081-.041-.131-.122-.131-.212,0-.13.106-.236.236-.236Z"/>
  <path d="M20.94,24.99c-5.514,0-10,4.486-10,10s4.486,10,10,10,10-4.486,10-10-4.486-10-10-10ZM20.94,42.99c-4.411,0-8-3.589-8-8s3.589-8,8-8,8,3.589,8,8-3.589,8-8,8Z"/>
</svg>