<?xml version="1.0" encoding="UTF-8"?>
<svg id="Outline" xmlns="http://www.w3.org/2000/svg" version="1.1" viewBox="0 0 64 64">
  <!-- Generator: Adobe Illustrator 29.5.1, SVG Export Plug-In . SVG Version: 2.1.0 Build 141)  -->
  <path d="M24,15h-2c-.55,0-1,.45-1,1v6c0,.55.45,1,1,1s1-.45,1-1v-1h1c1.65,0,3-1.35,3-3s-1.35-3-3-3ZM24,19h-1v-2h1c.55,0,1,.45,1,1s-.45,1-1,1Z"/>
  <path d="M34,23c.552,0,1-.448,1-1v-4c0-1.654-1.346-3-3-3s-3,1.346-3,3v4c0,.552.448,1,1,1s1-.448,1-1v-2h2v2c0,.552.448,1,1,1ZM31,18c0-.551.449-1,1-1s1,.449,1,1h-2Z"/>
  <path d="M40,23c.552,0,1-.448,1-1v-2.697l1.832-2.748c.306-.459.182-1.081-.277-1.387-.46-.308-1.081-.182-1.387.277l-1.168,1.752-1.168-1.752c-.307-.459-.928-.585-1.387-.277-.459.306-.583.927-.277,1.387l1.832,2.748v2.697c0,.552.448,1,1,1Z"/>
  <path d="M18,27h28c1.654,0,3-1.346,3-3v-1c0-.552-.448-1-1-1s-1,.448-1,1v1c0,.551-.449,1-1,1h-28c-.551,0-1-.449-1-1v-11h30v2c0,.552.448,1,1,1s1-.448,1-1v-5c0-1.654-1.346-3-3-3h-28c-1.654,0-3,1.346-3,3v14c0,1.654,1.346,3,3,3ZM17,10c0-.551.449-1,1-1h28c.551,0,1,.449,1,1v1h-30v-1Z"/>
  <path d="M26,47c.55,0,1-.45,1-1v-3c0-.43-.28-.81-.68-.95l-9-3c-.21-.07-.43-.07-.64,0l-9,3c-.4.14-.68.52-.68.95v3c0,.55.45,1,1,1h1v4h-1c-.55,0-1,.45-1,1v4c0,.55.45,1,1,1h18c.55,0,1-.45,1-1v-4c0-.55-.45-1-1-1h-1v-4h1ZM25,55H9v-2h16v2ZM11,51v-4h2v4h-2ZM15,51v-4h4v4h-4ZM21,51v-4h2v4h-2ZM9,45v-1.28l8-2.67,8,2.67v1.28H9Z"/>
  <path d="M56.998,43.959c-.008-.103-.03-.332-.108-.409l-2-4c-.16-.34-.51-.55-.89-.55h-12c-.38,0-.73.21-.89.55,0,0-2,4-2,4-.101.101-.11.316-.11.45v2c0,.88.39,1.67,1,2.22v7.78c0,.55.45,1,1,1h14c.55,0,1-.45,1-1v-7.78c.61-.55,1-1.34,1-2.22,0,0,0-2,0-2.001,0-.013-.001-.027-.002-.04ZM42.62,41h10.76l1,2h-12.76l1-2ZM51,45v1c0,.55-.45,1-1,1s-1-.45-1-1v-1h2ZM47,45v1c0,.55-.45,1-1,1s-1-.45-1-1v-1h2ZM41,46v-1h2v1c0,.55-.45,1-1,1s-1-.45-1-1ZM54,55h-12v-6c.77,0,1.47-.3,2-.78.53.48,1.23.78,2,.78s1.47-.3,2-.78c.53.48,1.23.78,2,.78s1.47-.3,2-.78c.53.48,1.23.78,2,.78v6ZM55,46c0,.55-.45,1-1,1s-1-.45-1-1v-1h2v1Z"/>
  <path d="M47.293,29.293l-2,2c-.391.391-.391,1.023,0,1.414s1.023.391,1.414,0l.293-.293v3.586c0,.552.448,1,1,1s1-.448,1-1v-3.586l.293.293c.195.195.451.293.707.293.874,0,1.324-1.09.707-1.707l-2-2c-.391-.391-1.023-.391-1.414,0Z"/>
  <path d="M15.293,36.707c.195.195.451.293.707.293s.512-.098.707-.293l2-2c.391-.391.391-1.023,0-1.414s-1.023-.391-1.414,0l-.293.293v-3.586c0-.552-.448-1-1-1s-1,.448-1,1v3.586l-.293-.293c-.391-.391-1.023-.391-1.414,0s-.391,1.023,0,1.414l2,2Z"/>
  <circle cx="48" cy="19" r="1"/>
</svg>