<?xml version="1.0" encoding="UTF-8"?>
<svg id="Outline" xmlns="http://www.w3.org/2000/svg" version="1.1" viewBox="0 0 64 64">
  <!-- Generator: Adobe Illustrator 29.5.1, SVG Export Plug-In . SVG Version: 2.1.0 Build 141)  -->
  <path d="M51,6.999H13c-3.31,0-6,2.69-6,6v7c0,.55.45,1,1,1h9v35c0,.34.17.65.45.83.28.19.64.22.94.09l6.61-2.83,6.61,2.83c.12.05.26.08.39.08.15,0,.31-.04.45-.11l5.55-2.77,5.55,2.77c.28.15.62.15.9,0l5.55-2.77,5.55,2.77c.31.16.68.14.98-.04.29-.18.47-.5.47-.85V12.999c0-3.31-2.69-6-6-6ZM17,18.999h-8v-6c0-2.21,1.79-4,4-4s4,1.79,4,4v6ZM55,54.379l-4.55-2.27c-.28-.15-.62-.15-.9,0l-5.55,2.77-5.55-2.77c-.28-.15-.62-.15-.9,0l-5.58,2.79-6.58-2.82c-.25-.11-.53-.11-.78,0l-5.61,2.4V12.999c0-1.54-.59-2.94-1.54-4h33.54c2.21,0,4,1.79,4,4v41.38Z"/>
  <path d="M37,14.999c-1.654,0-3,1.346-3,3v4c0,.553.447,1,1,1s1-.447,1-1v-1h2v1c0,.553.447,1,1,1s1-.447,1-1v-4c0-1.654-1.346-3-3-3ZM36,18.999v-1c0-.552.448-1,1-1s1,.448,1,1v1h-2Z"/>
  <path d="M46.168,15.444l-1.168,1.752-1.168-1.752c-.307-.459-.927-.584-1.387-.277s-.584.927-.277,1.387l1.832,2.748v2.697c0,.553.447,1,1,1s1-.447,1-1v-2.697l1.832-2.748c.307-.46.183-1.08-.277-1.387-.461-.307-1.081-.182-1.387.277Z"/>
  <path d="M49,10.999h-24c-1.65,0-3,1.35-3,3v10c0,1.65,1.35,3,3,3h24c1.65,0,3-1.35,3-3v-10c0-1.65-1.35-3-3-3ZM50,23.999c0,.55-.45,1-1,1h-24c-.55,0-1-.45-1-1v-10c0-.55.45-1,1-1h24c.55,0,1,.45,1,1v10Z"/>
  <path d="M29,14.999h-2c-.55,0-1,.45-1,1v6c0,.55.45,1,1,1s1-.45,1-1v-1h1c1.65,0,3-1.35,3-3s-1.35-3-3-3ZM29,18.999h-1v-2h1c.55,0,1,.45,1,1s-.45,1-1,1Z"/>
  <path d="M34,48.999c-1.008,0-1.994-.408-2.707-1.121l-.586-.586c-.391-.391-1.023-.391-1.414,0l-1.696,1.696c-.44-.024-.88-.088-1.311-.189.452-.478.714-1.115.714-1.8,0-1.654-1.346-3-3-3s-3,1.346-3,3c0,.759.321,1.459.867,1.948l-.314.157c-.494.247-.694.848-.447,1.342.176.351.528.553.896.553.15,0,.303-.034.446-.105l1.557-.778c1.247.579,2.623.884,3.996.884.266,0,.52-.105.707-.293l1.295-1.295c1.073,1.011,2.521,1.588,3.998,1.588.553,0,1-.447,1-1s-.447-1-1-1ZM24.658,47.551l-.658.329-.657-.329c-.212-.105-.343-.317-.343-.553,0-.552.448-1,1-1s1,.448,1,1c0,.235-.131.447-.342.553Z"/>
  <path d="M37,28.999c-4.963,0-9,4.037-9,9s4.037,9,9,9,9-4.037,9-9-4.037-9-9-9ZM37,44.999c-3.859,0-7-3.141-7-7s3.141-7,7-7,7,3.141,7,7-3.141,7-7,7Z"/>
  <path d="M40.537,34.462c-.391-.391-1.023-.391-1.414,0l-2.123,2.123-2.123-2.123c-.391-.391-1.023-.391-1.414,0s-.391,1.023,0,1.414l2.123,2.123-2.123,2.123c-.39.39-.391,1.023,0,1.414.362.363,1.025.389,1.414,0l2.123-2.123,2.123,2.123c.369.369,1.016.398,1.414,0,.391-.391.391-1.023,0-1.414l-2.123-2.123,2.123-2.123c.391-.391.391-1.023,0-1.414Z"/>
</svg>