<?xml version="1.0" encoding="UTF-8"?>
<svg id="Outline" xmlns="http://www.w3.org/2000/svg" version="1.1" viewBox="0 0 64 64">
  <!-- Generator: Adobe Illustrator 29.5.1, SVG Export Plug-In . SVG Version: 2.1.0 Build 141)  -->
  <path d="M33,14c-1.654,0-3,1.346-3,3v4c0,.552.447,1,1,1s1-.448,1-1v-1h2v1c0,.552.447,1,1,1s1-.448,1-1v-4c0-1.654-1.346-3-3-3ZM32,18v-1c0-.551.448-1,1-1s1,.449,1,1v1h-2Z"/>
  <path d="M41,14h-2c-.553,0-1,.448-1,1v6c0,.552.447,1,1,1s1-.448,1-1v-1h1c1.654,0,3-1.346,3-3s-1.346-3-3-3ZM41,18h-1v-2h1c.552,0,1,.449,1,1s-.448,1-1,1Z"/>
  <path d="M47,14c-.553,0-1,.448-1,1v6c0,.552.447,1,1,1s1-.448,1-1v-6c0-.552-.447-1-1-1Z"/>
  <path d="M55.703,18.661c.197-.54.297-1.096.297-1.661,0-2.02-1.215-3.81-3.034-4.583-.289-2.483-2.406-4.417-4.966-4.417-.832,0-1.631.205-2.354.599-.932-1.004-2.254-1.599-3.646-1.599-1.73,0-3.31.903-4.209,2.331-.854-.329-1.809-.423-2.737-.235-.931-1.31-2.419-2.096-4.054-2.096-2.757,0-5,2.243-5,5,0,.316.032.633.096.947-1.036.736-1.737,1.823-1.987,3.053h-10.108c-1.654,0-3,1.346-3,3v12h-1c-1.654,0-3,1.346-3,3v20c0,1.654,1.346,3,3,3h36c1.654,0,3-1.346,3-3v-20c0-1.654-1.346-3-3-3H13v-12c0-.551.448-1,1-1h9.029c-1.235.922-2.029,2.387-2.029,4,0,2.757,2.243,5,5,5h26c2.757,0,5-2.243,5-5,0-1.247-.465-2.427-1.297-3.339ZM47,39H9v-2h38v2ZM46,55H10c-.552,0-1-.449-1-1v-13h38v13c0,.551-.448,1-1,1ZM47,34v1H9v-1c0-.551.448-1,1-1h36c.552,0,1,.449,1,1ZM52,25h-26c-1.654,0-3-1.346-3-3,0-1.41.999-2.643,2.375-2.932.271-.057.508-.224.651-.462.143-.237.182-.524.105-.791-.09-.315-.132-.575-.132-.816,0-1.149.653-2.18,1.706-2.69.468-.227.684-.775.496-1.26-.136-.354-.202-.697-.202-1.05,0-1.654,1.346-3,3-3,1.149,0,2.18.654,2.69,1.706.227.469.774.684,1.26.497.961-.371,1.95-.221,2.724.311.259.177.585.222.879.125.297-.097.53-.328.633-.623.417-1.207,1.549-2.017,2.814-2.017,1.045,0,2.024.562,2.559,1.468.149.253.403.428.693.478.291.047.588-.031.812-.221.393-.331,1.047-.725,1.936-.725,1.654,0,3,1.346,3.001,2.962-.004.036-.011.142-.011.178,0,.458.311.856.754.969,1.328.338,2.256,1.526,2.256,2.891,0,.481-.127.96-.379,1.422-.23.425-.124.955.253,1.258.716.574,1.126,1.419,1.126,2.32,0,1.654-1.346,3-3,3Z"/>
  <path d="M19,43c-2.937,0-5.698,1.145-7.777,3.223-.391.39-.391,1.023,0,1.414s1.023.391,1.414,0c1.701-1.701,3.961-2.637,6.363-2.637s4.662.937,6.363,2.637c.195.195.451.293.707.293.875,0,1.325-1.09.707-1.707-2.079-2.079-4.841-3.223-7.777-3.223Z"/>
  <path d="M19,47c-1.879,0-3.637.73-4.95,2.056-.389.393-.387,1.025.006,1.415.393.388,1.025.386,1.414-.006.936-.944,2.189-1.464,3.53-1.464s2.595.52,3.53,1.464c.195.197.452.296.71.296.873,0,1.325-1.083.71-1.704-1.313-1.326-3.071-2.056-4.95-2.056Z"/>
  <path d="M16.874,51.892c-.386.396-.378,1.029.018,1.414.395.386,1.029.378,1.414-.018.363-.372,1.025-.372,1.389,0,.195.201.456.302.716.302.867,0,1.323-1.076.716-1.698-1.121-1.149-3.131-1.149-4.252,0Z"/>
</svg>