<?xml version="1.0" encoding="UTF-8"?>
<svg id="Outline" xmlns="http://www.w3.org/2000/svg" version="1.1" viewBox="0 0 64 64">
  <!-- Generator: Adobe Illustrator 29.3.1, SVG Export Plug-In . SVG Version: 2.1.0 Build 151)  -->
  <path d="M55,19h-7v-7c0-2.75684-2.24316-5-5-5h-22c-2.75684,0-5,2.24316-5,5v7h-7c-1.10303,0-2,.89746-2,2v5c0,.55273.44775,1,1,1s1-.44727,1-1v-5h46v18H9v-9c0-.55273-.44775-1-1-1s-1,.44727-1,1v9c0,1.10254.89697,2,2,2h7v11c0,2.75684,2.24316,5,5,5h22c2.75684,0,5-2.24316,5-5v-4c0-.55273-.44775-1-1-1s-1,.44727-1,1v4c0,1.6543-1.3457,3-3,3h-22c-1.6543,0-3-1.3457-3-3v-11h2v10c0,1.10254.89697,2,2,2h20c1.10303,0,2-.89746,2-2v-10h2v3c0,.55273.44775,1,1,1s1-.44727,1-1v-3h7c1.10303,0,2-.89746,2-2v-18c0-1.10254-.89697-2-2-2ZM18,12c0-1.6543,1.3457-3,3-3h22c1.6543,0,3,1.3457,3,3v7h-2v-6c0-1.10254-.89697-2-2-2h-4c-.26514,0-.51953.10547-.70703.29297l-1.70703,1.70703h-7.17188l-1.70703-1.70703c-.1875-.1875-.44189-.29297-.70703-.29297h-4c-1.10303,0-2,.89746-2,2v6h-2v-7ZM42,19h-20v-6h3.58594l1.70703,1.70703c.1875.1875.44189.29297.70703.29297h8c.26514,0,.51953-.10547.70703-.29297l1.70703-1.70703h3.58594v6ZM42,51h-20v-10h20v10Z"/>
  <path d="M20,36v-5h2c2.20557,0,4-1.79395,4-4s-1.79443-4-4-4h-3c-.55225,0-1,.44727-1,1v12c0,.55273.44775,1,1,1s1-.44727,1-1ZM20,25h2c1.10303,0,2,.89746,2,2s-.89697,2-2,2h-2v-4Z"/>
  <path d="M34,37c.55225,0,1-.44727,1-1v-9c0-2.20605-1.79443-4-4-4s-4,1.79395-4,4v9c0,.55273.44775,1,1,1s1-.44727,1-1v-4h4v4c0,.55273.44775,1,1,1ZM29,30v-3c0-1.10254.89697-2,2-2s2,.89746,2,2v3h-4Z"/>
  <path d="M41,37c.55225,0,1-.44727,1-1v-6.64905l3.78076-4.72595c.34521-.43164.27539-1.06055-.15625-1.40625-.43018-.34473-1.06006-.27441-1.40527.15625l-3.21924,4.02441-3.21924-4.02441c-.34424-.43164-.97461-.50098-1.40527-.15625-.43164.3457-.50146.97461-.15625,1.40625l3.78076,4.72595v6.64905c0,.55273.44775,1,1,1Z"/>
  <path d="M30,49h4c1.6543,0,3-1.3457,3-3s-1.3457-3-3-3h-4c-1.6543,0-3,1.3457-3,3s1.3457,3,3,3ZM30,45h4c.55127,0,1,.44824,1,1s-.44873,1-1,1h-4c-.55127,0-1-.44824-1-1s.44873-1,1-1Z"/>
</svg>