<?xml version="1.0" encoding="UTF-8"?>
<svg id="Outline" xmlns="http://www.w3.org/2000/svg" version="1.1" viewBox="0 0 64 64">
  <!-- Generator: Adobe Illustrator 29.5.1, SVG Export Plug-In . SVG Version: 2.1.0 Build 141)  -->
  <path d="M56.893,55.552l-3.063-6.126c-2.648-5.297-6.595-9.916-11.413-13.357-2.663-1.902-5.95-2.387-8.918-1.561-3.033-.313-6.156.014-9.056.957,1.033-4.167,1.556-8.446,1.556-12.746v-3.468c0-2.339-1.108-4.443-2.804-5.776.524-1.78.804-3.616.804-5.476,0-.552-.447-1-1-1s-1,.448-1,1c0,1.507-.203,2.999-.589,4.455-.41-.158-.837-.276-1.277-.352-.208-1.846-1.077-3.575-2.458-4.841-.408-.373-1.04-.345-1.413.062s-.346,1.04.062,1.413c.957.876,1.576,2.054,1.78,3.32-.634.077-1.245.24-1.822.485-.751-1.62-2.124-2.877-3.86-3.456l-.105-.035c-.528-.176-1.09.109-1.265.632-.175.524.108,1.09.632,1.265l.105.035c1.279.426,2.28,1.378,2.777,2.603-.15.124-.299.251-.441.389-1.15,1.116-1.86,2.555-2.06,4.117-1.826.336-3.359,1.628-3.961,3.437,0,0-1.052,3.154-1.052,3.154-.288.861.745,1.655,1.503,1.148l.504-.336c1.469-.979,3.178-1.496,4.941-1.496.032,0,.059-.015.09-.018.22.217.458.415.706.602l-2.713,8.793c-2.98,9.661,2.1,20.01,11.565,23.56.116.043.234.064.352.064.416,0,.79-.259.937-.649.193-.517-.068-1.093-.585-1.288-8.478-3.179-13.026-12.446-10.358-21.097l2.593-8.404c.754.278,1.565.438,2.414.438.553,0,1-.448,1-1s-.447-1-1-1c-2.757,0-5-2.243-5-5,0-1.364.539-2.639,1.519-3.588.979-.95,2.276-1.449,3.636-1.409,2.672.08,4.846,2.435,4.846,5.249v3.468c0,4.739-.66,9.451-1.962,14.005-.102.357.002.741.27.997.249.238.659.344,1.008.227l1.608-.536c1.55-.517,3.172-.834,4.808-.959-.402.325-.789.673-1.147,1.064-3.409,3.719-3.687,9.348-.659,13.384l4.273,5.698c.331.44.957.531,1.399.2.442-.331.532-.958.2-1.4l-4.273-5.698c-2.45-3.267-2.226-7.823.534-10.833,1.066-1.163,2.393-1.964,3.83-2.394,2.44-.726,5.166-.349,7.365,1.222,4.554,3.252,8.283,7.618,10.786,12.624l3.063,6.126c.176.351.528.553.896.553.15,0,.303-.034.446-.105.494-.247.694-.848.447-1.342ZM9.999,22.162c.333-.998,1.129-1.738,2.101-2.026.113.688.325,1.341.624,1.946-1.018.119-2.012.373-2.954.77l.229-.69Z"/>
  <path d="M38.585,38.172c-.391-.391-1.023-.391-1.414,0s-.391,1.023,0,1.414l.5.5c.437.437.437,1.148,0,1.585-.438.438-1.148.437-1.586,0l-.5-.5c-.391-.391-1.023-.391-1.414,0s-.391,1.023,0,1.414l.5.5c.608.608,1.407.912,2.206.912s1.6-.304,2.208-.912c1.217-1.217,1.217-3.197,0-4.414l-.5-.5Z"/>
  <path d="M38.585,47.172c-.391-.391-1.023-.391-1.414,0s-.391,1.023,0,1.414l.5.5c.437.437.437,1.148,0,1.585-.438.438-1.148.437-1.586,0l-.5-.5c-.391-.391-1.023-.391-1.414,0s-.391,1.023,0,1.414l.5.5c.608.608,1.407.912,2.206.912s1.6-.304,2.208-.912c1.217-1.217,1.217-3.197,0-4.414l-.5-.5Z"/>
  <path d="M47.585,47.172c-.391-.391-1.023-.391-1.414,0s-.391,1.023,0,1.414l.5.5c.437.437.437,1.148,0,1.585-.438.438-1.148.437-1.586,0l-.5-.5c-.391-.391-1.023-.391-1.414,0s-.391,1.023,0,1.414l.5.5c.608.608,1.407.912,2.206.912s1.6-.304,2.208-.912c1.217-1.217,1.217-3.197,0-4.414l-.5-.5Z"/>
  <circle cx="16.999" cy="18" r="1"/>
</svg>