<?xml version="1.0" encoding="UTF-8"?>
<svg id="Outline" xmlns="http://www.w3.org/2000/svg" version="1.1" viewBox="0 0 64 64">
  <!-- Generator: Adobe Illustrator 29.5.1, SVG Export Plug-In . SVG Version: 2.1.0 Build 141)  -->
  <path d="M56.068,34.009c-.55-.07-1.05.33-1.11.87-.92,7.96-9.34,18.12-15.02,18.12-2.39,0-5.61-1.98-8.52-5.19,2.36-3.33,4-7.3,4-10.76,0-5.39-3.04-9.36-8.09-11.09,1.97-2.41,5.06-4.02,8.85-4.65,4.72,1.13,8.13,5.45,8.13,10.32,0,.55.45,1,1,1,.56,0,1-.45,1-1,0-4.35-2.29-8.33-5.81-10.61,7.88.17,13.36,4.02,14.36,10.14.08.49.51.84.99.84.05,0,.11,0,.16-.01.55-.09.92-.61.83-1.15-1.14-6.99-7.13-11.43-15.74-11.8.26-3.14,1.77-6.02,4.26-8.01l.31-.25c.44-.34.51-.97.16-1.4-.34-.44-.97-.5-1.4-.16l-.32.25c-1.51,1.21-2.71,2.71-3.56,4.38-.28-1.02-.75-2.02-1.54-2.81-2.69-2.69-7.75-1.73-7.97-1.69-.4.08-.71.39-.79.79-.04.21-1,5.28,1.69,7.97.74.74,1.66,1.2,2.61,1.48-4.03.93-7.27,2.93-9.31,5.81-1.27-.26-2.63-.4-4.08-.4-7.66,0-13.06,3.77-14.09,9.83-.09.55.28,1.06.82,1.16.55.08,1.06-.28,1.16-.82.82-4.85,4.8-7.18,9.03-7.91,3.77.94,6.5,4.41,6.5,8.32,0,.55.44,1,1,1,.55,0,1-.45,1-1,0-3.44-1.71-6.6-4.38-8.55,5.6.3,11.22,3.04,11.22,10.02,0,7.04-7.6,15.95-12.26,15.95-4.45,0-11.02-7.68-12.1-14.17-.1-.54-.61-.91-1.16-.82-.54.1-.91.61-.82,1.16,1.27,7.54,8.64,15.83,14.08,15.83,2.92,0,6.29-2.32,9.02-5.58,3.29,3.55,6.81,5.58,9.76,5.58,6.73,0,15.95-10.78,17-19.88.07-.55-.33-1.05-.87-1.11ZM33.348,16.699c-1.45-1.46-1.37-4.2-1.23-5.48,1.28-.14,4.02-.22,5.48,1.23,1.05,1.06,1.29,2.77,1.3,4.13l-2.72-2.71c-.39-.39-1.02-.39-1.41,0-.39.39-.39,1.02,0,1.41l2.71,2.72c-1.36-.01-3.07-.25-4.13-1.3Z"/>
</svg>