<?xml version="1.0" encoding="UTF-8"?>
<svg id="Outline" xmlns="http://www.w3.org/2000/svg" version="1.1" viewBox="0 0 64 64">
  <!-- Generator: Adobe Illustrator 29.5.1, SVG Export Plug-In . SVG Version: 2.1.0 Build 141)  -->
  <path d="M45.102,31.783l-3.327-.669c-.676-.138-1.255-.587-1.548-1.202-.948-1.979-2.971-3.259-5.152-3.259-.224,0-.46.022-.703.048-1.059.131-2.053.551-2.869,1.209-.832.661-1.461,1.541-1.821,2.552l-.648,1.846c-.066.186-.165.354-.276.512l-10.214-14.757c-.161-.233-.414-.387-.695-.422-.281-.041-.564.049-.779.234-2.348,2.022-3.499,4.995-3.245,7.984l-.876-.888c-.227-.229-.551-.336-.867-.286-.318.05-.593.25-.738.539-.914,1.816-1.377,3.761-1.377,5.779,0,4.67,2.53,8.986,6.603,11.263l.968.541c-2.625.752-5.38.812-8.069.163l-1.14-.27c-.315-.074-.653.009-.897.228s-.365.542-.325.867l1.35,10.96c.089.723.942,1.111,1.546.711l4.416-2.938c.746-.492,1.641-.702,2.53-.592l3.718.45c1.915.234,3.803.056,5.611-.532.525-.171.812-.735.642-1.261s-.737-.811-1.261-.642c-1.527.497-3.127.649-4.75.449l-3.716-.45c-1.354-.169-2.73.153-3.878.91l-3.071,2.043-.977-7.927c3.661.828,7.427.489,10.914-.988l.16-.07c.347-.152.578-.488.597-.868.018-.379-.18-.735-.511-.921l-2.88-1.61c-3.441-1.924-5.579-5.571-5.579-9.517,0-1.227.203-2.421.604-3.567,0,0,2.339,2.372,2.357,2.39l1.636,1.659c2.709,2.752,6.34,4.268,10.223,4.268h.321c1.709-.053,3.24-1.168,3.812-2.779l.647-1.845c.233-.654.642-1.226,1.187-1.658.531-.429,1.177-.701,1.847-.784,1.581-.169,3.138.657,3.823,2.086.496,1.039,1.414,1.83,2.51,2.183-1.732.695-3.309,1.761-4.609,3.124-1.583,1.649-2.707,3.702-3.249,5.932-.619,2.498-2.089,4.718-4.138,6.25-.442.331-.533.958-.202,1.399.33.442.957.533,1.399.202,2.418-1.808,4.151-4.425,4.883-7.375.46-1.892,1.411-3.628,2.752-5.026,1.346-1.411,3.036-2.445,4.891-2.991l2.53-.75c.44-.131.735-.545.715-1.004s-.352-.845-.802-.936ZM17.987,30.081l-1.448-1.468-.391-1.182c-.84-2.534-.274-5.27,1.43-7.247l9.392,13.569h-.185c-3.343,0-6.467-1.304-8.798-3.672Z"/>
  <circle cx="35.292" cy="32.373" r="1"/>
  <path d="M53.529,13.9c-.352-.428-.98-.492-1.407-.141-.428.35-.491.979-.142,1.407,1.675,2.047,2.682,4.575,2.886,7.207h-2.012c-.508-5.598-5.221-10-10.949-10s-10.442,4.402-10.949,10h-2.013c.513-6.703,6.13-12,12.962-12,2.62,0,5.15.783,7.315,2.265.454.312,1.079.195,1.39-.26.312-.456.195-1.078-.261-1.39-2.499-1.71-5.419-2.615-8.444-2.615-8.271,0-15,6.729-15,15,0,.552.447,1,1,1h8c.553,0,1-.448,1-1,0-2.757,2.243-5,5-5s5,2.243,5,5c0,.552.447,1,1,1h8c.553,0,1-.448,1-1,0-3.446-1.199-6.811-3.376-9.473ZM41.905,16.373c-3.521,0-6.442,2.612-6.929,6h-2.012c.499-4.493,4.316-8,8.941-8s8.442,3.507,8.941,8h-2.012c-.486-3.388-3.408-6-6.929-6Z"/>
</svg>