<?xml version="1.0" encoding="UTF-8"?>
<svg id="Outline" xmlns="http://www.w3.org/2000/svg" version="1.1" viewBox="0 0 64 64">
  <!-- Generator: Adobe Illustrator 29.5.1, SVG Export Plug-In . SVG Version: 2.1.0 Build 141)  -->
  <path d="M32,7c-13.785,0-25,11.215-25,25s11.215,25,25,25,25-11.215,25-25S45.785,7,32,7ZM32,55c-12.682,0-23-10.318-23-23s10.318-23,23-23,23,10.318,23,23-10.318,23-23,23Z"/>
  <path d="M32,11c-4.158,0-8.167,1.21-11.595,3.499-.459.307-.583.927-.276,1.387.306.458.927.583,1.387.276,3.098-2.068,6.724-3.162,10.485-3.162,4.879,0,9.32,1.864,12.688,4.898l-7.765,7.765c-.518-.571-.937-1.202-1.223-1.877-.396-.937-.927-1.741-1.579-2.392h0c-4.272-4.27-13.322-1.778-13.707-1.669-.334.095-.596.356-.69.69-.108.383-2.602,9.436,1.669,13.707.651.651,1.456,1.183,2.393,1.579.676.286,1.306.705,1.877,1.223l-7.765,7.765c-3.034-3.368-4.898-7.809-4.898-12.688,0-3.761,1.093-7.387,3.162-10.485.307-.459.183-1.08-.276-1.387-.458-.307-1.08-.183-1.387.276-2.289,3.428-3.499,7.438-3.499,11.595,0,11.58,9.42,21,21,21s21-9.42,21-21-9.42-21-21-21ZM38.39,29.244c1.021.52,1.964,1.209,2.803,2.049,1.729,1.729,2.814,3.881,3.056,6.06.233,2.096-.35,3.961-1.642,5.253-1.292,1.291-3.157,1.875-5.253,1.642-2.179-.242-4.331-1.327-6.06-3.057-.839-.838-1.529-1.781-2.049-2.802-.249-.488-.532-.947-.841-1.379l8.609-8.609c.432.309.89.593,1.378.841ZM24.565,33.858c-.698-.295-1.289-.683-1.757-1.151-2.92-2.92-1.736-9.283-1.296-11.195,1.914-.44,8.275-1.624,11.195,1.296h0c.469.468.856,1.06,1.151,1.757.386.912.95,1.758,1.649,2.513l-1.419,1.419c-.763-.813-1.387-1.709-1.852-2.667-.241-.498-.841-.704-1.336-.462-.497.241-.704.839-.462,1.336.558,1.148,1.303,2.22,2.214,3.186.008.008.018.01.026.018l-2.771,2.771c-.011-.011-.015-.026-.026-.037-.966-.91-2.038-1.653-3.187-2.21-.496-.242-1.095-.035-1.336.463-.241.497-.034,1.095.463,1.336.961.466,1.861,1.092,2.677,1.857l-1.419,1.419c-.755-.7-1.601-1.263-2.513-1.649ZM32,51c-4.879,0-9.32-1.864-12.688-4.898l7.651-7.651c.178.27.348.55.499.847.616,1.208,1.429,2.321,2.417,3.309,2.049,2.049,4.625,3.338,7.253,3.63.379.042.752.063,1.12.063,2.261,0,4.28-.791,5.768-2.279,1.73-1.73,2.517-4.176,2.216-6.888-.292-2.629-1.581-5.205-3.629-7.253-.988-.988-2.101-1.801-3.31-2.417-.297-.151-.576-.321-.846-.499l7.651-7.651c3.034,3.368,4.898,7.809,4.898,12.688,0,10.477-8.523,19-19,19Z"/>
  <path d="M23.902,25.739c-.552.005-.996.457-.991,1.009.007.807.076,1.54.205,2.18.096.475.513.803.98.803.622,0,1.105-.585.981-1.197-.104-.516-.16-1.123-.166-1.803-.005-.553-.463-.997-1.009-.991Z"/>
  <path d="M31.029,37.478c.421.834.985,1.608,1.717,2.34.358.358,1.019.356,1.395-.019.39-.391.371-1.043-.02-1.434-.542-.542-.981-1.143-1.308-1.792-.163-.318-.335-.628-.518-.931-.286-.473-.901-.624-1.373-.338-.473.286-.624.9-.338,1.373.158.261.308.53.445.8Z"/>
  <path d="M38.402,40.286c-.493.023-1.042-.058-1.603-.243-.526-.169-1.09.113-1.263.638-.172.525.113,1.09.638,1.263.703.23,1.389.347,2.044.347.098,0,.195-.002.291-.008,1.281-.071,1.185-2.049-.107-1.997Z"/>
  <path d="M40.286,38.402c-.03.551.393,1.022.945,1.052.018,0,.037.001.055.001.527,0,.969-.413.998-.946.04-.743-.074-1.528-.339-2.335-.173-.524-.736-.809-1.263-.638-.524.173-.81.738-.638,1.263.185.562.269,1.116.243,1.603Z"/>
  <path d="M35.653,32.301c.298.18.604.351.924.514.391.197.767.437,1.123.716.399.313.966.287,1.325-.071h0c.423-.423.387-1.127-.083-1.496-.462-.363-.95-.675-1.459-.932-.272-.139-.538-.287-.796-.443-.474-.287-1.088-.134-1.373.339-.286.473-.134,1.087.339,1.373Z"/>
  <path d="M26.73,24.911c.684.006,1.29.062,1.804.164.066.013.132.02.197.02.467,0,.884-.328.979-.804.108-.542-.243-1.068-.784-1.177-.636-.127-1.37-.196-2.179-.203-.551-.021-1.004.439-1.009.991s.439,1.004.991,1.009Z"/>
  <path d="M18.565,18.565c.391-.391.391-1.024,0-1.414-.391-.391-1.024-.391-1.414,0-.391.391-.391,1.024,0,1.414.391.391,1.024.391,1.414,0Z"/>
</svg>