<?xml version="1.0" encoding="UTF-8"?>
<svg id="Outline" xmlns="http://www.w3.org/2000/svg" version="1.1" viewBox="0 0 64 64">
  <!-- Generator: Adobe Illustrator 29.5.1, SVG Export Plug-In . SVG Version: 2.1.0 Build 141)  -->
  <path d="M42,7H11c-2.21,0-4,1.79-4,4v24c0,.55.45,1,1,1s1-.45,1-1V11c0-1.1.9-2,2-2s2,.9,2,2-.9,2-2,2c-.55,0-1,.45-1,1s.45,1,1,1h30v38.96c0,.55-.45,1-1,1h-1.05l-24.72-5.93c-.5-.12-1.01.16-1.18.65l-1.47,4.41c-.15.46-.54.78-1,.87h-.45c-.64-.1-1.13-.62-1.13-1.28v-10.68c0-.55-.45-1-1-1s-1,.45-1,1v10.68c0,.84.32,1.6.84,2.19.52.58,1.24.98,2.05,1.09h.04c.13.02.26.04.39.04.18,0,.34-.01.51-.04h27.88l.06.01c.08.02.15.03.23.03s.16-.02.24-.04h.76c1.65,0,3-1.35,3-3V14.86c1.72-.45,3-2,3-3.86,0-2.21-1.79-4-4-4ZM13.38,54.96c.03-.08.07-.15.1-.23l1.18-3.54,15.72,3.77H13.38ZM42,13H14.44c.35-.59.56-1.27.56-2s-.21-1.41-.56-2h27.56c1.1,0,2,.9,2,2s-.9,2-2,2Z"/>
  <path d="M53,21c-2.21,0-4,1.79-4,4h-1c-1.65,0-3,1.35-3,3v6c0,.55.45,1,1,1s1-.45,1-1v-6c0-.55.45-1,1-1h1v22c0,.18.05.36.14.51l2.86,4.77v1.72c0,.55.45,1,1,1s1-.45,1-1v-1.72l2.86-4.77c.09-.15.14-.33.14-.51v-24c0-2.21-1.79-4-4-4ZM55,48.72l-2,3.34-2-3.34v-4.72h4v4.72ZM55,42h-4v-2h4v2ZM55,38h-4v-11h4v11ZM51,25c0-1.1.9-2,2-2s2,.9,2,2h-4Z"/>
  <path d="M12,19h12c.552,0,1-.447,1-1s-.448-1-1-1h-12c-.552,0-1,.447-1,1s.448,1,1,1Z"/>
  <path d="M12,35h12c.552,0,1-.447,1-1s-.448-1-1-1h-12c-.552,0-1,.447-1,1s.448,1,1,1Z"/>
  <path d="M12,23h26c.552,0,1-.447,1-1s-.448-1-1-1H12c-.552,0-1,.447-1,1s.448,1,1,1Z"/>
  <path d="M12,27h26c.552,0,1-.447,1-1s-.448-1-1-1H12c-.552,0-1,.447-1,1s.448,1,1,1Z"/>
  <path d="M38,29h-16c-.552,0-1,.447-1,1s.448,1,1,1h16c.552,0,1-.447,1-1s-.448-1-1-1Z"/>
  <path d="M12,31h6c.552,0,1-.447,1-1s-.448-1-1-1h-6c-.552,0-1,.447-1,1s.448,1,1,1Z"/>
  <circle cx="8" cy="39" r="1"/>
</svg>