<?xml version="1.0" encoding="UTF-8"?>
<svg id="Outline" xmlns="http://www.w3.org/2000/svg" version="1.1" viewBox="0 0 64 64">
  <!-- Generator: Adobe Illustrator 29.5.1, SVG Export Plug-In . SVG Version: 2.1.0 Build 141)  -->
  <path d="M54.969,32c1.225-.912,2.031-2.359,2.031-4,0-5.605-2.185-10.879-6.153-14.847s-9.241-6.153-14.847-6.153c-1.324,0-2.579.518-3.542,1.468-.172.175-.314.37-.458.563-.912-1.225-2.359-2.031-4-2.031-5.606,0-10.879,2.186-14.847,6.153s-6.153,9.241-6.153,14.847c0,1.323.518,2.578,1.468,3.542.175.172.37.315.563.458-1.225.912-2.031,2.359-2.031,4,0,5.605,2.185,10.879,6.153,14.847s9.241,6.153,14.847,6.153c1.324,0,2.579-.518,3.542-1.468.172-.175.314-.37.458-.563.912,1.225,2.359,2.031,4,2.031,5.606,0,10.879-2.186,14.847-6.153s6.153-9.241,6.153-14.847c0-1.323-.518-2.578-1.468-3.542-.175-.172-.37-.315-.563-.458ZM33.872,9.882c.577-.568,1.333-.882,2.128-.882,5.072,0,9.843,1.978,13.433,5.567,3.59,3.591,5.567,8.361,5.567,13.433,0,1.654-1.346,3-3,3h-3.52c1.622-1.952,2.52-4.399,2.52-7,0-6.065-4.935-11-11-11-2.601,0-5.048.898-7,2.52v-3.52c0-.795.313-1.551.872-2.118ZM30.17,43.215l-.466-.533c-.839-.962-2.07-1.516-3.339-1.516-.098,0-.195.004-.293.01l-.708.048c-.697.047-1.386-.211-1.881-.706-.496-.496-.752-1.181-.706-1.881l.047-.708c.093-1.369-.469-2.728-1.504-3.633l-.534-.467c-.528-.461-.831-1.128-.831-1.829s.303-1.368.83-1.829l.536-.467c1.034-.905,1.596-2.264,1.503-3.632l-.047-.71c-.047-.699.21-1.384.706-1.88.495-.495,1.178-.76,1.881-.706l.708.048c1.375.083,2.729-.47,3.632-1.505l.468-.534c.923-1.057,2.735-1.057,3.658,0h0l.466.533c.904,1.036,2.262,1.589,3.633,1.506l.708-.048c.7-.049,1.386.211,1.881.706.496.496.752,1.181.706,1.881l-.047.708c-.093,1.369.469,2.728,1.504,3.633l.015.013s0,0,0,0l.518.453c.528.461.831,1.128.831,1.829s-.303,1.368-.83,1.829l-.536.467c-1.034.905-1.596,2.264-1.503,3.632l.047.71c.047.699-.21,1.384-.706,1.88-.495.495-1.179.758-1.881.706l-.708-.048c-1.371-.078-2.729.47-3.632,1.505l-.468.534c-.923,1.057-2.735,1.057-3.659,0ZM20.781,25.496l.047.71c.032.477-.094.945-.327,1.355-.948-.928-1.502-2.202-1.502-3.561,0-2.757,2.243-5,5-5,1.359,0,2.633.553,3.562,1.502-.411.234-.879.361-1.356.326l-.709-.048c-1.273-.085-2.526.385-3.43,1.289-.903.903-1.372,2.153-1.286,3.427ZM20.502,36.439c.232.41.359.878.327,1.356l-.047.708c-.086,1.274.383,2.524,1.286,3.428.903.903,2.145,1.364,3.43,1.289l.708-.048c.476-.036.945.092,1.356.326-.929.949-2.203,1.502-3.562,1.502-2.757,0-5-2.243-5-5,0-1.359.554-2.633,1.502-3.561ZM43.498,27.561c-.232-.41-.359-.878-.327-1.356l.047-.708c.086-1.274-.383-2.524-1.286-3.428-.903-.904-2.152-1.369-3.43-1.289l-.708.048c-.476.034-.945-.093-1.355-.326.929-.948,2.203-1.502,3.561-1.502,2.757,0,5,2.243,5,5,0,1.359-.554,2.633-1.502,3.561ZM37.794,43.172l.709.048c1.282.091,2.526-.385,3.43-1.289.903-.903,1.372-2.153,1.286-3.427l-.047-.71c-.032-.477.094-.945.327-1.355.948.928,1.502,2.202,1.502,3.561,0,2.757-2.243,5-5,5-1.359,0-2.633-.553-3.562-1.502.411-.234.88-.361,1.356-.326ZM45.86,30.803c-.187-.663-.529-1.268-.999-1.781,1.35-1.303,2.14-3.102,2.14-5.022,0-3.859-3.14-7-7-7-1.919,0-3.718.789-5.022,2.139-.513-.47-1.117-.812-1.781-.999,1.721-1.996,4.161-3.14,6.803-3.14,4.962,0,9,4.037,9,9,0,2.642-1.144,5.082-3.14,6.803ZM29.022,19.139c-1.304-1.351-3.103-2.139-5.022-2.139-3.86,0-7,3.141-7,7,0,1.92.789,3.718,2.139,5.022-.47.513-.812,1.118-.999,1.781-1.996-1.721-3.14-4.161-3.14-6.803,0-4.963,4.038-9,9-9,2.642,0,5.082,1.144,6.803,3.14-.663.187-1.268.529-1.78.999ZM18.14,33.197c.187.663.529,1.268.999,1.781-1.35,1.303-2.14,3.102-2.14,5.022,0,3.859,3.14,7,7,7,1.919,0,3.718-.789,5.022-2.139.513.47,1.117.812,1.781.999-1.721,1.996-4.161,3.14-6.803,3.14-4.962,0-9-4.037-9-9,0-2.642,1.144-5.082,3.14-6.803ZM34.978,44.861c1.304,1.351,3.103,2.139,5.022,2.139,3.86,0,7-3.141,7-7,0-1.92-.789-3.718-2.139-5.022.47-.513.812-1.118.999-1.781,1.996,1.721,3.14,4.161,3.14,6.803,0,4.963-4.038,9-9,9-2.642,0-5.082-1.144-6.803-3.14.663-.188,1.268-.529,1.78-.999ZM9.882,30.128c-.569-.577-.882-1.333-.882-2.128,0-5.071,1.977-9.842,5.567-13.433,3.59-3.59,8.361-5.567,13.433-5.567,1.654,0,3,1.346,3,3v3.52c-1.952-1.622-4.399-2.52-7-2.52-6.065,0-11,4.935-11,11,0,2.601.898,5.048,2.52,7h-3.52c-.795,0-1.551-.313-2.118-.872ZM30.128,54.118c-.577.568-1.333.882-2.128.882-5.072,0-9.843-1.978-13.433-5.567-3.59-3.591-5.567-8.361-5.567-13.433,0-1.654,1.346-3,3-3h3.52c-1.622,1.952-2.52,4.399-2.52,7,0,6.065,4.935,11,11,11,2.601,0,5.048-.898,7-2.52v3.52c0,.795-.313,1.551-.872,2.118ZM49.433,49.433c-3.59,3.59-8.361,5.567-13.433,5.567-1.654,0-3-1.346-3-3v-3.52c1.952,1.622,4.399,2.52,7,2.52,6.065,0,11-4.935,11-11,0-2.601-.898-5.048-2.52-7h3.52c.795,0,1.551.313,2.118.872.569.577.882,1.333.882,2.128,0,5.071-1.977,9.842-5.567,13.433Z"/>
  <path d="M40,32c0-4.411-3.589-8-8-8s-8,3.589-8,8,3.589,8,8,8,8-3.589,8-8ZM32,38c-3.309,0-6-2.691-6-6s2.691-6,6-6,6,2.691,6,6-2.691,6-6,6Z"/>
  <path d="M32,28c-2.206,0-4,1.794-4,4s1.794,4,4,4,4-1.794,4-4-1.794-4-4-4ZM32,34c-1.103,0-2-.897-2-2s.897-2,2-2,2,.897,2,2-.897,2-2,2Z"/>
</svg>