<?xml version="1.0" encoding="UTF-8"?>
<svg id="Outline" xmlns="http://www.w3.org/2000/svg" version="1.1" viewBox="0 0 64 64">
  <!-- Generator: Adobe Illustrator 29.5.1, SVG Export Plug-In . SVG Version: 2.1.0 Build 141)  -->
  <path d="M29,24c2.206,0,4-1.794,4-4s-1.794-4-4-4-4,1.794-4,4,1.794,4,4,4ZM29,18c1.103,0,2,.897,2,2s-.897,2-2,2-2-.897-2-2,.897-2,2-2Z"/>
  <path d="M14,24c2.206,0,4-1.794,4-4s-1.794-4-4-4-4,1.794-4,4,1.794,4,4,4ZM14,18c1.103,0,2,.897,2,2s-.897,2-2,2-2-.897-2-2,.897-2,2-2Z"/>
  <path d="M56,46h-8v-14h2.17c1.34,0,2.59-.52,3.54-1.46l2-2c1.17-1.17,1.17-3.08,0-4.25-1.14-1.13-3.11-1.13-4.25,0l-1.7,1.71h-3.32c.35-.59.56-1.27.56-2v-2c0-2.21-1.79-4-4-4s-4,1.79-4,4v2c0,.73.21,1.41.56,2h-.56c-1.49,0-2.82.67-3.73,1.71-.73-1.03-1.92-1.71-3.27-1.71h-6c-2.21,0-4,1.79-4,4v5c0,1.3.84,2.4,2,2.82v8.18h-5v-8.18c1.16-.42,2-1.52,2-2.82v-5c0-2.21-1.79-4-4-4h-6c-2.21,0-4,1.79-4,4v5c0,1.3.84,2.4,2,2.82v8.18h-1c-.55,0-1,.45-1,1s.45,1,1,1h48c.55,0,1-.45,1-1s-.45-1-1-1ZM17,46h-2v-5c0-.55-.45-1-1-1s-1,.45-1,1v5h-2v-8h6v8ZM18,36h-3c-.55,0-1-.45-1-1s.45-1,1-1h1c.55,0,1-.45,1-1v-2c0-.55-.45-1-1-1s-1,.45-1,1v1h-2v-1c0-.55-.45-1-1-1s-1,.45-1,1v2c0,.55.45,1,1,1h.18c-.11.31-.18.65-.18,1s.07.69.18,1h-2.18c-.55,0-1-.45-1-1v-5c0-1.1.9-2,2-2h6c1.1,0,2,.9,2,2v5c0,.55-.45,1-1,1ZM41,22c0-1.1.9-2,2-2s2,.9,2,2v2c0,1.1-.9,2-2,2s-2-.9-2-2v-2ZM32,46h-2v-5c0-.55-.45-1-1-1s-1,.45-1,1v5h-2v-8h6v8ZM33,36h-3c-.55,0-1-.45-1-1s.45-1,1-1h1c.55,0,1-.45,1-1v-2c0-.55-.45-1-1-1s-1,.45-1,1v1h-2v-1c0-.55-.45-1-1-1s-1,.45-1,1v2c0,.55.45,1,1,1h.18c-.11.31-.18.65-.18,1s.07.69.18,1h-2.18c-.55,0-1-.45-1-1v-5c0-1.1.9-2,2-2h6c1.1,0,2,.9,2,2v5c0,.55-.45,1-1,1ZM38,46h-4v-8.18c.04-.02.08-.03.12-.04.34,1.27,1.5,2.22,2.88,2.22.35,0,.69-.07,1-.18v6.18ZM46,31v15h-2v-7c0-.55-.45-1-1-1s-1,.45-1,1v7h-2v-12c0-.55-.45-1-1-1s-1,.45-1,1v3c0,.55-.45,1-1,1s-1-.45-1-1v-6c0-1.65,1.35-3,3-3h11.17c.27,0,.52-.11.71-.29l2-2c.38-.38,1.04-.38,1.41,0,.39.39.39,1.02,0,1.41l-2,2c-.56.56-1.33.88-2.12.88h-3.17c-.55,0-1,.45-1,1Z"/>
</svg>