<?xml version="1.0" encoding="UTF-8"?>
<svg id="Outline" xmlns="http://www.w3.org/2000/svg" version="1.1" viewBox="0 0 64 64">
  <!-- Generator: Adobe Illustrator 29.0.0, SVG Export Plug-In . SVG Version: 2.1.0 Build 186)  -->
  <path d="M56,31h-4.05066c-.50952-10.22852-8.72083-18.43982-18.94934-18.94934v-4.05066c0-.55225-.44775-1-1-1s-1,.44775-1,1v4.05066c-10.22852.50952-18.43982,8.72083-18.94934,18.94934h-4.05066c-.55225,0-1,.44775-1,1s.44775,1,1,1h4.05066c.50952,10.22852,8.72083,18.43982,18.94934,18.94934v4.05066c0,.55225.44775,1,1,1s1-.44775,1-1v-4.05066c10.22852-.50952,18.43982-8.72083,18.94934-18.94934h4.05066c.55225,0,1-.44775,1-1s-.44775-1-1-1ZM49.94934,31h-2c-.49976-8.0235-6.92584-14.44958-14.94934-14.94934v-2c9.12622.50513,16.44421,7.82312,16.94934,16.94934ZM32,46c-3.42578,0-6.56421-1.24103-9-3.29156v-1.60834c0-1.90479,1.35107-3.55273,3.21533-3.91895l1.92975-.38452c1.086.75366,2.41534,1.20337,3.85492,1.20337s2.76892-.44971,3.85492-1.20337l1.93219.38501c1.86182.36572,3.21289,2.01367,3.21289,3.91846v1.60834c-2.43579,2.05054-5.57422,3.29156-9,3.29156ZM38,28l-.13721-.13037c-1.30566-1.24414-3.37695-1.35449-4.81689-.25684-.60645.46191-1.48535.46191-2.0918,0-1.43945-1.09668-3.51074-.98633-4.81689.25684l-.13721.13037v-1.6665c0-2.38965,2.06348-4.3335,4.6001-4.3335h2.7998c2.53662,0,4.6001,1.94385,4.6001,4.3335v1.6665ZM27.3999,29.42853l.11621-.11066c.59375-.56348,1.57031-.61377,2.22607-.11426,1.3291,1.0127,3.18652,1.0127,4.51562,0,.65674-.49951,1.6333-.44922,2.22607.11426l.11621.11066v2.23798c0,2.38965-2.06348,4.3335-4.6001,4.3335s-4.6001-1.94385-4.6001-4.3335v-2.23798ZM42.96301,40.68115c-.18927-2.67542-2.13257-4.93951-4.78772-5.46191l-.633-.1261c.66638-.98895,1.0578-2.16388,1.0578-3.42664v-.42352c.12701.05585.26147.09052.3999.09052.1333,0,.26709-.02637.39404-.08105.36768-.15723.60596-.51904.60596-.91895v-4c0-3.49219-2.96094-6.3335-6.6001-6.3335h-2.7998c-3.63916,0-6.6001,2.84131-6.6001,6.3335v4c0,.3999.23828.76172.60596.91895.25903.11108.54504.10016.79395-.00909v.42316c0,1.26276.39142,2.43768,1.0578,3.42664l-.63055.12561c-2.65747.52289-4.60089,2.78699-4.79016,5.4624-1.89551-2.38873-3.03699-5.40179-3.03699-8.68115,0-7.71973,6.28027-14,14-14s14,6.28027,14,14c0,3.27936-1.14148,6.29242-3.03699,8.68115ZM31,14.05066v2c-8.0235.49976-14.44958,6.92584-14.94934,14.94934h-2c.50513-9.12622,7.82312-16.44421,16.94934-16.94934ZM14.05066,33h2c.49976,8.0235,6.92584,14.44958,14.94934,14.94934v2c-9.12622-.50513-16.44421-7.82312-16.94934-16.94934ZM33,49.94934v-2c8.0235-.49976,14.44958-6.92584,14.94934-14.94934h2c-.50513,9.12622-7.82312,16.44421-16.94934,16.94934Z"/>
  <path d="M11,22c.55225,0,1-.44775,1-1v-9h9c.55225,0,1-.44775,1-1s-.44775-1-1-1h-10c-.55225,0-1,.44775-1,1v10c0,.55225.44775,1,1,1Z"/>
  <path d="M43,12h9v9c0,.55225.44775,1,1,1s1-.44775,1-1v-10c0-.55225-.44775-1-1-1h-10c-.55225,0-1,.44775-1,1s.44775,1,1,1Z"/>
  <path d="M21,52h-9v-9c0-.55225-.44775-1-1-1s-1,.44775-1,1v10c0,.55225.44775,1,1,1h10c.55225,0,1-.44775,1-1s-.44775-1-1-1Z"/>
  <path d="M53,42c-.55225,0-1,.44775-1,1v9h-9c-.55225,0-1,.44775-1,1s.44775,1,1,1h10c.55225,0,1-.44775,1-1v-10c0-.55225-.44775-1-1-1Z"/>
</svg>