<?xml version="1.0" encoding="UTF-8"?>
<svg id="Outline" xmlns="http://www.w3.org/2000/svg" version="1.1" viewBox="0 0 64 64">
  <!-- Generator: Adobe Illustrator 29.5.1, SVG Export Plug-In . SVG Version: 2.1.0 Build 141)  -->
  <path d="M55.12,52l1.77002-3.54999c.15997-.31.14001-.68005-.04004-.98004-.17999-.28998-.5-.46997-.84998-.46997h-5v-2c0-1.65002-1.34998-3-3-3h-2.78998c4.28998-3.77002,6.78998-9.17999,6.78998-15,0-3.28003-.82001-6.53003-2.35999-9.40002-.26001-.48999-.87-.66998-1.35004-.40997-.48999.26001-.66998.87-.40997,1.34998,1.39001,2.58002,2.12,5.51001,2.12,8.46002,0,4.52997-1.69,8.79999-4.65002,12.06-1.52997-2.48999-2.34998-5.34003-2.34998-8.28003v-2.69c.09998-.07996.20001-.16998.28998-.26996.57001-.67004.81-1.56.67004-2.44-.11005-.67004-.46002-1.25-.96002-1.69v-.81c0-6.07001-4.92999-11-11-11s-11,4.92999-11,11v.81c-.5.44-.84998,1.01996-.96002,1.69-.13995.88.10004,1.76996.67004,2.44.08997.09998.19.19.28998.26996v2.69c0,2.94-.82001,5.79004-2.34998,8.28003-2.96002-3.26001-4.65002-7.52002-4.65002-12.06,0-9.92004,8.07001-18,18-18,5.28998,0,10.28003,2.31,13.71002,6.34998.35999.41998.98999.47003,1.40997.10999.41998-.34998.47003-.98999.10999-1.40997-3.79999-4.47998-9.34998-7.04999-15.22998-7.04999-11.03003,0-20,8.96997-20,20,0,5.82001,2.5,11.23999,6.78998,15h-2.78998c-1.65002,0-3,1.34998-3,3v2h-5c-.34998,0-.66998.17999-.84998.46997-.18005.29999-.20001.67004-.04004.98004l1.77002,3.54999-1.77002,3.54999c-.15997.31-.14001.67999.04004.97998.17999.29004.5.47003.84998.47003h8c1.65002,0,3-1.35004,3-3v-2h18c.54999,0,1-.45001,1-1s-.45001-1-1-1h-21c-.54999,0-1-.45001-1-1v-4c0-.54999.45001-1,1-1h32c.54999,0,1,.45001,1,1v4c0,.54999-.45001,1-1,1h-7c-.54999,0-1,.45001-1,1s.45001,1,1,1h4v2c0,1.64996,1.34998,3,3,3h8c.34998,0,.66998-.17999.84998-.47003.18005-.29999.20001-.66998.04004-.97998l-1.77002-3.54999ZM16,52h1v2c0,.54999-.45001,1-1,1h-6.38l1.27002-2.54999c.14996-.28003.14996-.62006,0-.90002l-1.27002-2.54999h3.38c0,1.64996,1.34998,3,3,3ZM42.89001,38.75l-4.04999-.73004-.74005-3.52997c1.55005-1.44,2.60004-3.40002,2.84003-5.60999h.06v1.89996c0,2.79004.65997,5.51001,1.89001,7.97003ZM23,22.88c0-4.96002,4.03998-9,9-9s9,4.03998,9,9v.01001c-.03998,0-.07001-.01001-.10999-.01001-.95001,0-1.85004-.37-2.52002-1.05005l-1.65997-1.65997c-.33002-.32001-.83002-.38-1.22003-.15002-3.12,1.87006-6.69,2.86005-10.32001,2.86005h-2.06c-.03998,0-.07001.01001-.10999.01001v-.01001ZM23.10999,24.88h2.06c3.73004,0,7.40002-.95001,10.66003-2.75l1.12,1.12c1.06,1.04999,2.45001,1.63,3.94,1.63.53998,0,1.01996.35999,1.09998.82001.04004.31-.02997.59998-.22998.82996-.19.22003-.47003.35004-.76001.35004h-1c-.54999,0-1,.44995-1,1,0,3.85999-3.14001,7-7,7s-7-3.14001-7-7c0-.55005-.45001-1-1-1h-1c-.28998,0-.57001-.13-.76001-.35004-.20001-.22998-.27002-.51996-.22998-.82001.08002-.46997.56-.82996,1.09998-.82996ZM36.90002,38.47998c-2.94,1.94-6.86005,1.94-9.80005,0l.58002-2.71997c1.28003.70996,2.75,1.12,4.32001,1.12s3.03998-.41003,4.32001-1.12l.58002,2.71997ZM23,30.77997v-1.89996h.06c.23999,2.20996,1.28998,4.16998,2.84003,5.60999l-.74005,3.52997-4.04999.73004c1.23004-2.46002,1.89001-5.17999,1.89001-7.97003ZM41.92999,42h-19.84998c-.53003-.35004-1.04004-.72003-1.52002-1.10999l5.15997-.94c1.85004,1.31995,4.06006,1.97998,6.28003,1.97998s4.42999-.66003,6.28003-1.97998l5.15997.94c-.47998.38995-.97998.75995-1.51001,1.10999ZM53.10999,52.45001l1.27002,2.54999h-6.38c-.54999,0-1-.45001-1-1v-2h1c1.65002,0,3-1.35004,3-3h3.38l-1.27002,2.54999c-.14996.27997-.14996.62,0,.90002Z"/>
</svg>