<?xml version="1.0" encoding="UTF-8"?>
<svg id="Outline" xmlns="http://www.w3.org/2000/svg" version="1.1" viewBox="0 0 64 64">
  <!-- Generator: Adobe Illustrator 29.3.1, SVG Export Plug-In . SVG Version: 2.1.0 Build 151)  -->
  <path d="M53.89844,49.05181c-.40918-1.77441-2.00146-3.10156-3.89844-3.10156-.66846,0-1.32227.17188-1.90088.48926-.74951-.92188-1.88428-1.48926-3.09912-1.48926-1.44385,0-2.75928.79102-3.4624,2.02686-.21338.0249-.42334.06689-.62793.125-.39014-1.79932-1.99512-3.15186-3.90967-3.15186-.66846,0-1.32227.17188-1.90088.48926-.53302-.65558-1.26544-1.11981-2.07837-1.34027.14081-4.73627,1.45062-9.27002,3.79749-13.26892,2.44751,1.99304,5.04181,3.01593,7.51672,3.01593,2.40234-.00049,4.69043-.95117,6.61475-2.87549,4.50439-4.50391,5.88965-21.13379,5.94629-21.83984.02393-.29199-.08203-.58008-.28955-.78711-.20654-.20703-.4917-.31836-.78711-.28955-.70605.05664-17.33594,1.44189-21.83984,5.94629-.85333.85339-1.50696,1.78046-1.97937,2.75519-.47247-.97473-1.12622-1.90179-1.97961-2.75519-4.50488-4.50391-21.13428-5.88965-21.83984-5.94629-.29102-.02393-.57959.08203-.78711.28955-.20752.20703-.31348.49512-.28955.78711.05664.70605,1.44189,17.33594,5.94629,21.83984,1.92432,1.92432,4.21191,2.87549,6.61475,2.87549,2.47443-.00043,5.06927-1.0235,7.51666-3.01605,2.34686,3.9989,3.65674,8.53278,3.79755,13.26904-.81293.22046-1.54535.68469-2.07837,1.34027-.57861-.31738-1.23242-.48926-1.90088-.48926-1.91455,0-3.51953,1.35254-3.90967,3.15186-.20459-.05811-.41455-.1001-.62793-.125-.70312-1.23584-2.01855-2.02686-3.4624-2.02686-1.21484,0-2.34961.56738-3.09912,1.48926-.57861-.31738-1.23242-.48926-1.90088-.48926-1.89697,0-3.48926,1.32715-3.89844,3.10156-1.77441.40918-3.10156,2.00146-3.10156,3.89844,0,2.20557,1.79443,4,4,4h42c2.20557,0,4-1.79443,4-4,0-1.89697-1.32715-3.48926-3.10156-3.89844ZM32,36.25078c-.72412-2.74274-1.83167-5.36249-3.30316-7.79083,1.50574-1.52588,2.60699-3.13275,3.30334-4.75055.69635,1.6178,1.79736,3.22467,3.30298,4.75055-1.4715,2.42834-2.57904,5.0481-3.30316,7.79083ZM35.39355,14.4146c3.05664-3.05664,14.10547-4.72949,19.40137-5.25928-.52979,5.2959-2.20264,16.34473-5.25928,19.40137-3.74847,3.74847-8.27386,2.37378-11.63501-.42395.49945-.72522,1.03387-1.42999,1.60486-2.11121h3.66589c.55225,0,1-.44775,1-1s-.44775-1-1-1h-1.82861l1.53564-1.53564h3.82861c.55225,0,1-.44775,1-1s-.44775-1-1-1h-1.82861l1.53564-1.53564h3.82861c.55225,0,1-.44775,1-1s-.44775-1-1-1h-1.82861l3.94971-3.94971c.39062-.39062.39062-1.02344,0-1.41406s-1.02344-.39062-1.41406,0l-3.94971,3.94971v-1.82861c0-.55225-.44775-1-1-1s-1,.44775-1,1v3.82861l-1.53564,1.53564v-1.82861c0-.55225-.44775-1-1-1s-1,.44775-1,1v3.82861l-1.53564,1.53564v-1.82861c0-.55225-.44775-1-1-1s-1,.44775-1,1v4.00946c-.52887.63373-1.02551,1.2879-1.49689,1.95721-3.1925-3.41077-5.05243-8.31677-1.03827-12.33093ZM14.46436,28.55669c-3.05664-3.05664-4.72949-14.10547-5.25928-19.40137,5.2959.52979,16.34473,2.20264,19.40137,5.25928,4.01416,4.01416,2.15424,8.92017-1.03827,12.33093-.47137-.66931-.96802-1.32349-1.49689-1.95721v-4.00946c0-.55225-.44775-1-1-1s-1,.44775-1,1v1.82861l-1.53564-1.53564v-3.82861c0-.55225-.44775-1-1-1s-1,.44775-1,1v1.82861l-1.53564-1.53564v-3.82861c0-.55225-.44775-1-1-1s-1,.44775-1,1v1.82861l-3.94971-3.94971c-.39062-.39062-1.02344-.39062-1.41406,0s-.39062,1.02344,0,1.41406l3.94971,3.94971h-1.82861c-.55225,0-1,.44775-1,1s.44775,1,1,1h3.82861l1.53564,1.53564h-1.82861c-.55225,0-1,.44775-1,1s.44775,1,1,1h3.82861l1.53564,1.53564h-1.82861c-.55225,0-1,.44775-1,1s.44775,1,1,1h3.66589c.57092.68121,1.10535,1.38599,1.60474,2.11115-3.36096,2.797-7.8869,4.172-11.63489.42401ZM53,54.95024H11c-1.10303,0-2-.89697-2-2s.89697-2,2-2c.55225,0,1-.44775,1-1,0-1.10303.89697-2,2-2,.54785,0,1.07715.23486,1.45215.64502.23486.25684.58594.37402.92822.30615.3418-.06592.62402-.30518.74609-.63086.30029-.80225,1.03564-1.32031,1.87354-1.32031.83936,0,1.59326.54297,1.87598,1.35059.16162.45996.64307.73145,1.12402.64941.54053,0,1.05176.22168,1.44043.62451.32031.33154.82617.40137,1.2251.16846.39844-.2334.58545-.70898.45215-1.15088-.0835-.27783-.11768-.46387-.11768-.64209,0-1.10303.89697-2,2-2,.54785,0,1.07715.23486,1.45215.64502.23535.25635.5874.37354.92822.30615.3418-.06592.62402-.30518.74609-.63086.30029-.80225,1.03564-1.32031,1.87354-1.32031s1.57324.51807,1.87354,1.32031c.12207.32568.4043.56494.74609.63086.34033.06738.69287-.0498.92822-.30615.375-.41016.9043-.64502,1.45215-.64502,1.10303,0,2,.89697,2,2,0,.17822-.03418.36426-.11768.64209-.1333.44189.05371.91748.45215,1.15088.39795.23291.9043.16309,1.2251-.16846.38379-.39746.88721-.61865,1.43115-.61865h.021c.48145.0791.95068-.19482,1.1123-.65527.28271-.80762,1.03662-1.35059,1.87598-1.35059.83789,0,1.57324.51807,1.87354,1.32031.12207.32568.4043.56494.74609.63086.34131.06787.69336-.04932.92822-.30615.375-.41016.9043-.64502,1.45215-.64502,1.10303,0,2,.89697,2,2,0,.55225.44775,1,1,1,1.10303,0,2,.89697,2,2s-.89697,2-2,2Z"/>
  <path d="M25,42.95024c.55225,0,1-.44775,1-1v-5.58594l.29297.29297c.19513.19513.45069.29279.70632.29297.87614.00062,1.32399-1.09074.70775-1.70703l-2-2c-.39062-.39062-1.02344-.39062-1.41406,0l-2,2c-.39062.39062-.39062,1.02344,0,1.41406s1.02344.39062,1.41406,0l.29297-.29297v5.58594c0,.55225.44775,1,1,1Z"/>
  <path d="M39,42.95024c.55225,0,1-.44775,1-1v-5.58594l.29297.29297c.19522.19522.45094.29288.70672.29297.87376.00027,1.32624-1.08813.70735-1.70703l-2-2c-.39062-.39062-1.02344-.39062-1.41406,0l-2,2c-.39062.39062-.39062,1.02344,0,1.41406s1.02344.39062,1.41406,0l.29297-.29297v5.58594c0,.55225.44775,1,1,1Z"/>
</svg>