<?xml version="1.0" encoding="UTF-8"?>
<svg id="Outline" xmlns="http://www.w3.org/2000/svg" version="1.1" viewBox="0 0 64 64">
  <!-- Generator: Adobe Illustrator 29.3.1, SVG Export Plug-In . SVG Version: 2.1.0 Build 151)  -->
  <path d="M26.00046,26.49914h-5v-1c0-1.32001-.52002-2.58002-1.46997-3.54004-.23004-.22998-.48004-.42999-.74005-.59998.75-.72998,1.21002-1.73999,1.21002-2.85999,0-2.21002-1.78998-4-4-4s-4,1.78998-4,4c0,1.14001.48999,2.16998,1.26001,2.89996-.21002.15002-.41998.29004-.60004.47003-1.06,1.01001-1.65997,2.40997-1.65997,3.85999v15.41998l-3.78003,4.73004c-.17999.20996-.25.5-.20996.76996.03998.28003.20001.53003.44.67999,0,0,3,2,3.00006,2.00004.41716.29458.99791.19651,1.31995-.18999l5-6c.13995-.17004.22998-.39001.22998-.62006l.03998-1.98999,1.03003.59003.94,7.5c.06.5.48999.88.98999.88h4c.54999,0,1-.45001,1-1v-10c0-.31-.15002-.60999-.40002-.79999l-3.59998-2.70001v-2.5h5c1.65002,0,3-1.35004,3-3s-1.34998-3-3-3ZM16.00046,16.49914c1.09998,0,2,.89996,2,2,0,1.09998-.90002,2-2,2s-2-.90002-2-2c0-1.10004.90002-2,2-2ZM15.01047,42.12915l-4.20001,5.03998-1.34998-.90002,3.32001-4.14996c.13995-.16998.21997-.39001.21997-.62v-3.28003l2.07001,1.17999-.06,2.73004ZM26.00046,30.49914h-7c-1.09998,0-2-.90002-2-2,0-.54999-.45001-1-1-1s-1,.45001-1,1c0,2.20996,1.78998,4,4,4v3c0,.31.15002.60999.40002.79999l3.59998,2.70001v8.5h-2.12l-.89001-7.12c-.03998-.32001-.21997-.59003-.48999-.75l-6.5-3.71002v-10.19c0-.90997.38-1.77997,1.03998-2.40997.59003-.56,1.34003-.86005,2.10004-.82001.73999.03998,1.45001.34998,1.97998.87.57001.58002.88,1.33002.88,2.13v2c0,.54999.45001,1,1,1h6c.54999,0,1,.45001,1,1s-.45001,1-1,1Z"/>
  <path d="M49.75046,30.96911c.70001-.22998,1.45001-.13,2.07001.28003.72998.47998,1.57001.72998,2.41998.72998.66998,0,1.34003-.15002,1.96002-.46002l.25-.12994c.33997-.16003.54999-.51001.54999-.89001v-5.99984c0-.72412-.80268-1.22423-1.45001-.89018l-.25.12c-.76001.38-1.66998.32001-2.37-.15002-1.13-.75-2.52002-.93994-3.81-.50995l-.12.03998v-.60999c0-.54999-.45001-1-1-1s-1,.45001-1,1v13h-3c-.54999,0-1,.45001-1,1v3h-7c-.54999,0-1,.45001-1,1v3h-7c-.54999,0-1,.45001-1,1v4c0,.54999.45001,1,1,1h28c.54999,0,1-.45001,1-1v-12c0-.54999-.45001-1-1-1h-7v-4.28003l.75-.25ZM49.00046,25.21911l.75-.25c.70001-.22998,1.45001-.13,2.07001.28003.94.63,2.08997.84998,3.17999.65997v3.95001c-.69.22998-1.46002.13-2.07001-.28003-.72998-.47998-1.57001-.72998-2.41998-.72998-.47003,0-.92999.07001-1.39001.22003l-.12.03998v-3.89001ZM55.00046,37.49914v10h-26v-2h7c.54999,0,1-.45001,1-1v-3h7c.54999,0,1-.45001,1-1v-3h10Z"/>
</svg>