<?xml version="1.0" encoding="UTF-8"?>
<svg id="Outline" xmlns="http://www.w3.org/2000/svg" version="1.1" viewBox="0 0 64 64">
  <!-- Generator: Adobe Illustrator 29.3.1, SVG Export Plug-In . SVG Version: 2.1.0 Build 151)  -->
  <path d="M54,11h-3v-1c0-1.65002-1.34998-3-3-3s-3,1.34998-3,3v1h-10v-1c0-1.65002-1.34998-3-3-3s-3,1.34998-3,3v1h-10v-1c0-1.65002-1.34998-3-3-3s-3,1.34998-3,3v1h-3c-1.65002,0-3,1.34998-3,3v40c0,1.64996,1.34998,3,3,3h44c1.65002,0,3-1.35004,3-3V14c0-1.65002-1.34998-3-3-3ZM47,10c0-.54999.45001-1,1-1s1,.45001,1,1v1h-2v-1ZM31,10c0-.54999.45001-1,1-1s1,.45001,1,1v1h-2v-1ZM15,10c0-.54999.45001-1,1-1s1,.45001,1,1v1h-2v-1ZM46.46997,46.46997c2.82001.64001,5.75.35999,8.40002-.76996-.72998,4.70996-4.46002,8.44-9.16998,9.16998,1.14001-2.65002,1.40997-5.58002.76996-8.40002ZM55,54c0,.54999-.45001,1-1,1h-3.09998c1.64996-1.04004,3.06-2.45001,4.09998-4.10004v3.10004ZM55,43.39996c-2.83002,1.52002-6.15002,1.83002-9.21997.81l-.46002-.15997c-.35999-.12-.76001-.02002-1.03003.23999-.26996.27002-.35999.66998-.23999,1.03003l.16003.46997c1.01996,3.06.70996,6.38-.81,9.21002H10c-.54999,0-1-.45001-1-1V21h46v22.39996ZM55,19H9v-5c0-.54999.45001-1,1-1h3v1c0,1.64996,1.34998,3,3,3,.54999,0,1-.45001,1-1s-.45001-1-1-1-1-.45001-1-1v-1h14v1c0,1.64996,1.34998,3,3,3,.54999,0,1-.45001,1-1s-.45001-1-1-1-1-.45001-1-1v-1h14v1c0,1.64996,1.34998,3,3,3,.54999,0,1-.45001,1-1s-.45001-1-1-1-1-.45001-1-1v-1h7c.54999,0,1,.45001,1,1v5Z"/>
  <path d="M42.0835,51.83105l-1.64551-9.61133,6.98096-6.80859c.27246-.26562.37061-.66309.25293-1.02441-.11768-.3623-.43066-.62598-.80713-.68066l-9.64941-1.40625-4.31885-8.74316c-.33691-.68164-1.45605-.68164-1.79297,0l-4.31885,8.74316-9.64941,1.40625c-.37646.05469-.68945.31836-.80713.68066-.11768.36133-.01953.75879.25293,1.02441l6.98096,6.80859-1.64551,9.61133c-.06396.375.09033.75391.39795.97754.30859.22559.71777.25391,1.05273.07715l8.63281-4.53516,8.63277,4.53513c.68912.36202,1.59273-.22215,1.45073-1.05466ZM32.46484,46.33496c-.14551-.07617-.30518-.11426-.46484-.11426s-.31934.03809-.46484.11426l-7.30566,3.83789,1.39258-8.13281c.05518-.32422-.05225-.65527-.2876-.88477l-5.90771-5.7627,8.16602-1.18945c.32568-.04688.60693-.25195.75244-.5459l3.65479-7.39941,3.65479,7.39941c.14551.29395.42676.49902.75244.5459l8.16602,1.18945-5.90771,5.7627c-.23535.22949-.34277.56055-.2876.88477l1.39258,8.13281-7.30566-3.83789Z"/>
  <path d="M36.14062,40.82422l2.68848-2.62207c.27246-.26562.37061-.66309.25293-1.02441-.11768-.3623-.43018-.62598-.80713-.68066l-3.71533-.54199-1.66309-3.36621c-.33691-.68164-1.45605-.68164-1.79297,0l-1.66309,3.36621-3.71533.54199c-.37695.05469-.68945.31836-.80713.68066-.11768.36133-.01953.75879.25293,1.02441l2.68848,2.62207-.63379,3.69922c-.06396.375.09033.75391.39795.97754.30908.22559.71777.25293,1.05273.07715l3.32373-1.74609,3.32373,1.74609c.69012.36255,1.59289-.22097,1.45068-1.05469l-.63379-3.69922ZM34.36816,39.75879c-.23535.22949-.34277.56055-.2876.88477l.38086,2.22168-1.99658-1.04883c-.14551-.07617-.30518-.11426-.46484-.11426s-.31934.03809-.46484.11426l-1.99658,1.04883.38086-2.22168c.05518-.32422-.05225-.65527-.2876-.88477l-1.61475-1.5752,2.23145-.3252c.32568-.04688.60693-.25195.75244-.5459l.99902-2.02246.99902,2.02246c.14551.29395.42676.49902.75244.5459l2.23145.3252-1.61475,1.5752Z"/>
</svg>