<?xml version="1.0" encoding="UTF-8"?>
<svg id="Outline" xmlns="http://www.w3.org/2000/svg" version="1.1" viewBox="0 0 64 64">
  <!-- Generator: Adobe Illustrator 29.3.1, SVG Export Plug-In . SVG Version: 2.1.0 Build 151)  -->
  <path d="M49.89844,52.10181c-.40918-1.77441-2.00146-3.10156-3.89844-3.10156-.17725,0-.354.01172-.52979.03613-.69238-1.23438-2.00879-2.03613-3.47021-2.03613-1.21484,0-2.34961.56738-3.09863,1.48926-1.37646-.75488-3.18994-.58203-4.40137.39453-1.4043-1.13086-3.5957-1.13086-5,0-1.21191-.97656-3.02539-1.14941-4.40137-.39453-.74902-.92188-1.88379-1.48926-3.09863-1.48926-1.46143,0-2.77783.80176-3.47021,2.03613-.17578-.02441-.35254-.03613-.52979-.03613-1.89697,0-3.48926,1.32715-3.89844,3.10156-1.77441.40918-3.10156,2.00195-3.10156,3.89844,0,.55273.44775,1,1,1h40c.55225,0,1-.44727,1-1,0-1.89648-1.32715-3.48926-3.10156-3.89844ZM13.26855,55.00024c.34619-.59766.99268-1,1.73145-1,.55225,0,1-.44727,1-1-.00049-1.35645,1.41064-2.38477,2.74951-1.85156.26611.10742.56396.0918.81982-.03516.25537-.12891.44385-.36035.51709-.63672.23096-.86914,1.01807-1.47656,1.91357-1.47656.83789,0,1.57324.51855,1.87354,1.32031.12207.32617.4043.56445.74609.63086.33984.06836.69287-.0498.92822-.30664.375-.40918.9043-.64453,1.45215-.64453.6665,0,1.29004.33789,1.66797.9043.37109.55664,1.29297.55664,1.66406,0,.37793-.56641,1.00146-.9043,1.66797-.9043s1.29004.33789,1.66797.9043c.37109.55664,1.29297.55664,1.66406,0,.68799-1.03223,2.28809-1.16797,3.12012-.25977.23486.25684.58496.375.92822.30664.3418-.06641.62402-.30469.74609-.63086.30029-.80176,1.03564-1.32031,1.87354-1.32031.89551,0,1.68262.60742,1.91357,1.47656.07324.27637.26172.50781.51709.63672.25586.12695.55469.14258.81982.03516,1.33936-.53125,2.75.49512,2.74951,1.85156,0,.55273.44775,1,1,1,.73877,0,1.38525.40234,1.73145,1H13.26855Z"/>
  <path d="M17.03861,41.27478c.18216.64082.96358.92691,1.51608.5575,1.79834-1.19824,3.89062-1.83203,6.05078-1.83203h.30286c.29913.40546.59766.79297.89331,1.16046l-1.69617,3.39227c-.15479.30957-.13818.67773.04395.97266s.50391.47461.85059.47461h14c.34668,0,.66846-.17969.85059-.47461s.19873-.66309.04395-.97266l-1.69617-3.39227c.29565-.36749.59418-.755.89331-1.16046h.30286c2.16008,0,4.25229.63374,6.05059,1.8319.56024.37327,1.33287.08813,1.51631-.55749l.24072-.84277c1.15656-4.0462-.17395-8.34973-3.38348-11.04535.1145-.78162.18134-1.57709.18134-2.38629,0-10.85645-10.92334-19.43164-11.38818-19.79102-.36035-.2793-.86328-.2793-1.22363,0-.46484.35938-11.38818,8.93457-11.38818,19.79102,0,.8092.06683,1.60468.18134,2.38629-3.20953,2.69562-4.54004,6.99915-3.38348,11.04535,0,0,.24072.84277.24076.84289ZM26.61816,44.00024l1-2h8.76367l1,2h-10.76367ZM45.38525,39.47388c-1.54144-.80933-3.22839-1.27435-4.96692-1.41193,1.18835-1.88452,2.25519-4.04559,2.91003-6.38715,1.92627,2.08588,2.71387,4.99487,2.05688,7.79907ZM32,9.30005c1.04248.89752,3.24805,2.93964,5.3244,5.7002h-10.6488c2.07635-2.76056,4.28192-4.80267,5.3244-5.7002ZM25.28442,17.00024h13.43115c1.83032,2.88672,3.28442,6.33118,3.28442,10,0,5.15723-2.88574,9.85742-5.43262,13h-9.13477c-2.54688-3.14258-5.43262-7.84277-5.43262-13,0-3.66882,1.4541-7.11328,3.28442-10ZM20.67163,31.6748c.65485,2.34155,1.72168,4.50262,2.91003,6.38715-1.73853.13757-3.42548.6026-4.96692,1.41193-.65698-2.8042.13062-5.7132,2.05688-7.79907Z"/>
  <path d="M39,27.00024c0-3.85938-3.14014-7-7-7s-7,3.14062-7,7,3.14014,7,7,7,7-3.14062,7-7ZM27,27.00024c0-2.75684,2.24316-5,5-5s5,2.24316,5,5-2.24316,5-5,5-5-2.24316-5-5Z"/>
</svg>