<?xml version="1.0" encoding="UTF-8"?>
<svg id="Outline" xmlns="http://www.w3.org/2000/svg" version="1.1" viewBox="0 0 64 64">
  <!-- Generator: Adobe Illustrator 29.3.1, SVG Export Plug-In . SVG Version: 2.1.0 Build 151)  -->
  <path d="M56.85375,37.16893c-.70996-1.42999-2.40997-2.06-3.88-1.42999l-5.25,2.26001h-.27997c.34998-.59003.56-1.27002.56-2v-2c0-2.21002-1.78998-4-4-4s-4,1.78998-4,4v2c0,.72998.21002,1.40997.56,2h-.27997l-5.25-2.26001c-1.04004-.45001-2.20001-.25-3.04004.40997-.84998-.63-2.02002-.83997-3.02997-.40997l-5.24005,2.26001h-.27997c.34998-.59003.56-1.27002.56-2v-2c0-2.21002-1.78998-4-4-4s-4,1.78998-4,4v2c0,.72998.21002,1.40997.56,2h-.27997l-5.25-2.26001c-1.45999-.62999-3.15996-.00003-3.88997,1.43991-.74784,1.47511-.06196,3.39905,1.47993,4.0701l6.38,2.83997v11.91003c0,.54999.45001,1,1,1h8c.54999,0,1-.45001,1-1v-11.91003l6.35999-2.82996c.23004-.10004.44-.24005.64001-.39001.19.14996.39001.27997.62.39001l6.38,2.82996v11.91003c0,.54999.45001,1,1,1h8c.54999,0,1-.45001,1-1v-11.91003l6.37999-2.82995c1.5371-.68181,2.22092-2.58817,1.46999-4.09003ZM18.00378,33.99895c0-1.10004.90002-2,2-2s2,.89996,2,2v2c0,1.09998-.90002,2-2,2s-2-.90002-2-2v-2ZM30.56377,39.42894l-6.96997,3.09998c-.36005.16003-.59003.51001-.59003.91003v11.56h-2v-5c0-.54999-.45001-1-1-1s-1,.45001-1,1v5h-2v-11.56c0-.40002-.22998-.75-.59003-.91003l-6.9799-3.10995c-.53291-.23744-.72203-.84206-.50008-1.36002.25-.48004.82001-.69,1.31-.48004l5.42999,2.34003c.13.04999.26001.08002.40002.08002h7.85999c.14001,0,.27002-.03003.40002-.08002l5.41998-2.34003c.40002-.16998.88-.02997,1.15997.28003-.08997.42999-.08997.87.01001,1.29999-.07996.10004-.20001.20001-.35999.27002ZM42.00378,33.99895c0-1.10004.90002-2,2-2s2,.89996,2,2v2c0,1.09998-.90002,2-2,2s-2-.90002-2-2v-2ZM55.09774,38.844c-.06577.24036-.23154.45523-.52396.58494l-6.97998,3.09998c-.36005.16003-.59003.51001-.59003.91003v11.56h-2v-5c0-.54999-.45001-1-1-1s-1,.45001-1,1v5h-2v-11.56c0-.40002-.22998-.75-.59003-.91003l-6.97998-3.09998c-.25-.10999-.44-.32001-.53998-.58002-.09003-.26001-.07001-.53998.04999-.78998.23999-.48004.81-.69,1.29999-.48004l5.42999,2.34003c.13.04999.26001.08002.40002.08002h7.85999c.14001,0,.27002-.03003.40002-.08002,0,0,5.42999-2.34003,5.43006-2.34006.85719-.36724,1.52712.55895,1.33389,1.26513Z"/>
  <path d="M39.00378,26.41936v.57959c0,.55225.44727,1,1,1h8c.55273,0,1-.44775,1-1v-.58252c0-1.5918.63379-3.19434,1.78418-4.51221,1.42871-1.63574,2.21582-3.73291,2.21582-5.90527,0-2.55615-1.09277-5.00098-2.99805-6.70703-1.90332-1.70459-4.45996-2.51514-7.02539-2.23633-3.94727.43701-7.25488,3.59424-7.86523,7.50732-.41016,2.64111.34473,5.30273,2.07031,7.30322,1.18945,1.37744,1.81836,2.95166,1.81836,4.55322ZM40.99303,25.99895c-.03479-.67755-.15875-1.34619-.3587-2h6.73932c-.19922.65491-.32404,1.32526-.35913,2h-6.02148ZM37.09167,14.87004c.47266-3.03662,3.04199-5.48682,6.10938-5.82617,2.02832-.22217,3.96777.39307,5.46973,1.73828,1.48242,1.32715,2.33301,3.22852,2.33301,5.2168,0,1.68848-.61133,3.31836-1.72168,4.58984-.38843.44458-.7251.91846-1.01843,1.41016h-3.25989v-2.08093c2.2793-.3717,4-1.98749,4-3.91907,0-.55225-.44727-1-1-1s-1,.44775-1,1c0,1.08398-1.37402,2-3,2s-3-.91602-3-2c0-.55225-.44727-1-1-1s-1,.44775-1,1c0,1.93158,1.7207,3.54736,4,3.91907v2.08093h-3.26599c-.29755-.49634-.64038-.97882-1.0387-1.43994-1.36133-1.57812-1.93262-3.59863-1.60742-5.68896Z"/>
  <path d="M15.00378,26.41643v.58252c0,.55225.44727,1,1,1h8c.55273,0,1-.44775,1-1v-.57959c0-1.60156.62891-3.17578,1.81836-4.55371,1.72559-2,2.48047-4.66162,2.07031-7.30322-.61035-3.9126-3.91797-7.06982-7.86523-7.50684-2.55859-.28076-5.12109.53125-7.02539,2.23633-1.90527,1.70605-2.99805,4.15088-2.99805,6.70703,0,2.17236.78711,4.26953,2.21582,5.90527,1.15039,1.31787,1.78418,2.92041,1.78418,4.51221ZM16.99303,25.99895c-.0351-.67474-.15991-1.34509-.35913-2h6.73932c-.19995.65381-.32391,1.32245-.3587,2h-6.02148ZM15.33678,10.78215c1.50195-1.34521,3.45312-1.96094,5.46973-1.73828,3.06738.33936,5.63672,2.78955,6.10938,5.82568.3252,2.09082-.24609,4.11133-1.60742,5.68896-.39838.4613-.74121.94397-1.03876,1.44043h-3.26593v-2.08093c2.2793-.3717,4-1.98749,4-3.91907,0-.55225-.44727-1-1-1s-1,.44775-1,1c0,1.08398-1.37402,2-3,2s-3-.91602-3-2c0-.55225-.44727-1-1-1s-1,.44775-1,1c0,1.93158,1.7207,3.54736,4,3.91907v2.08093h-3.25989c-.29333-.4917-.63-.96558-1.01843-1.41016-1.11035-1.27148-1.72168-2.90137-1.72168-4.58984,0-1.98828.85059-3.88965,2.33301-5.2168Z"/>
</svg>