<?xml version="1.0" encoding="UTF-8"?>
<svg id="Outline" xmlns="http://www.w3.org/2000/svg" version="1.1" viewBox="0 0 64 64">
  <!-- Generator: Adobe Illustrator 29.3.1, SVG Export Plug-In . SVG Version: 2.1.0 Build 151)  -->
  <path d="M56.29999,15.03432l-1.82001-.56c-.51996-.15002-1.01001-.28998-1.47998-.40997v-3.97003c0-.41998-.26001-.78998-.65002-.94l-1.50995-.56c-6.11005-2.25-12.79004-2.10999-18.84003.41003-6.03998-2.52002-12.71002-2.66003-18.84003-.41003l-1.50995.56c-.39001.15002-.65002.52002-.65002.94v3.97003c-.46997.12-.96002.25995-1.48999.40997l-1.81.56c-.41003.13-.70001.52002-.70001.96002v40c0,.32001.15002.62.40997.79999.25.19.58002.25.89001.15997l1.79999-.56c7.02002-2.15997,14.67004-1.96997,21.56.54004.22003.07996.46002.07996.68005,0,6.90997-2.51001,14.56-2.69,21.54999-.54004l1.81.56c.09998.03003.20001.04004.29999.04004.21002,0,.41998-.07001.59003-.20001.25995-.17999.40997-.47998.40997-.79999V15.99434c0-.44-.28998-.83002-.70001-.96002ZM33,10.78432c5.53003-2.23999,11.59003-2.35999,17.14001-.31l.85999.32001v31.85999l-.15997-.06c-5.78003-2.13-12.06-2.08997-17.84003.04999V10.78432ZM13,10.79433l.84998-.32001c5.58002-2.04999,11.64001-1.92999,17.15002.31v31.85999c-5.77002-2.13995-12.03998-2.17999-17.84003-.04999l-.15997.06V10.79433ZM13,44.79433l.84998-.32001c5.78003-2.13,12.08002-1.94,17.75.53998.25.11005.55005.11005.80005,0,5.69-2.47998,11.98999-2.65997,17.73999-.53998l.85999.32001v3.85999l-.15997-.06c-6.11005-2.25-12.79004-2.10999-18.84003.41003-3.20001-1.33002-6.57001-2-9.94-2-3.01001,0-6.01001.52997-8.90002,1.58997l-.15997.06v-3.85999ZM55,54.63435l-.52002-.16003c-7.29999-2.23999-15.26001-2.08997-22.47998.46002-7.20001-2.54004-15.16998-2.70001-22.48999-.46002l-.51001.16003V16.73433l1.09998-.34003c.31-.09998.61005-.17999.90002-.25995v33.95996c0,.33002.15997.64001.42999.82001.27002.19.60999.22998.91998.12l1.5-.56c5.78003-2.13,12.08002-1.94,17.75.53998.25.11005.55005.11005.80005,0,5.69-2.47998,11.98999-2.65997,17.73999-.53998l1.51001.56c.10999.03998.22998.06.34998.06.20001,0,.40002-.06.57001-.17999.27002-.17999.42999-.48999.42999-.82001V16.13435c.28998.07996.58002.15997.89001.25995l1.10999.34003v37.90002Z"/>
  <path d="M16.2749,15.12227l2.05664-.58789c2.97607-.85059,6.19727-.68652,9.06982.46387l.22656.09082c.48552.19463,1.09283-.03912,1.30029-.55615.20557-.5127-.04346-1.09473-.55615-1.30029l-.22705-.09082c-3.2832-1.31348-6.9624-1.50195-10.36328-.53027l-2.05664.58789c-.53076.15186-.83838.70508-.68652,1.23633.15137.53027.70459.84033,1.23633.68652Z"/>
  <path d="M16.2749,21.12227l2.05664-.58789c2.97607-.85059,6.19727-.68555,9.06982.46387l.22656.09082c.48539.19458,1.09263-.03861,1.30029-.55615.20557-.5127-.04346-1.09473-.55615-1.30029l-.22705-.09082c-3.2832-1.3125-6.9624-1.50195-10.36328-.53027l-2.05664.58789c-.53076.15186-.83838.70508-.68652,1.23633.15137.53076.70459.83984,1.23633.68652Z"/>
  <path d="M16.2749,27.12227l2.05664-.58789c2.97607-.85156,6.19727-.68652,9.06982.46387,0,0,.22656.09082.22686.09094.50702.20263,1.09615-.04787,1.3-.55627.20557-.5127-.04346-1.09473-.55615-1.30029l-.22705-.09082c-3.2832-1.31348-6.9624-1.50195-10.36328-.53027l-2.05664.58789c-.53076.15186-.83838.70508-.68652,1.23633.15137.53076.70459.83936,1.23633.68652Z"/>
  <path d="M16.2749,33.12227l2.05664-.58789c2.97607-.85107,6.19727-.68604,9.06982.46387,0,0,.22656.09082.22665.09085.50774.20304,1.09625-.04749,1.30021-.55619.20557-.5127-.04346-1.09473-.55615-1.30029l-.22705-.09082c-3.2832-1.3125-6.9624-1.50195-10.36328-.53027l-2.05664.58789c-.53076.15186-.83838.70508-.68652,1.23633.15137.53076.70459.83887,1.23633.68652Z"/>
  <path d="M16.2749,39.12227l2.05664-.58789c2.97607-.85107,6.19727-.68604,9.06982.46387,0,0,.22656.09082.22666.09086.51117.20441,1.0953-.04554,1.3002-.55619.20557-.5127-.04346-1.09473-.55615-1.30029l-.22705-.09082c-3.2832-1.31348-6.9624-1.50195-10.36328-.53027l-2.05664.58789c-.53076.15186-.83838.70508-.68652,1.23633.15137.53076.70459.83838,1.23633.68652Z"/>
  <path d="M36.00068,15.15797c.12389.00153.24976-.02025.37139-.06891l.22607-.09082c2.87305-1.14746,6.09521-1.31348,9.07031-.46387l2.05664.58789c.53271.1543,1.08447-.15625,1.23633-.68652.15186-.53125-.15576-1.08447-.68652-1.23633l-2.05664-.58789c-3.40137-.97266-7.08105-.78418-10.36377.53027l-.22656.09082c-.51266.20555-.76168.78751-.5562,1.30017.14905.37187.52864.62024.92895.62518Z"/>
  <path d="M36.0006,21.15877c.12453.00099.25056-.02134.37147-.06971l.22607-.09082c2.87305-1.14844,6.09521-1.31299,9.07031-.46387l2.05664.58789c.53271.15381,1.08447-.15576,1.23633-.68652.15186-.53125-.15576-1.08447-.68652-1.23633l-2.05664-.58789c-3.40137-.97266-7.08105-.7832-10.36377.53027l-.22656.09082c-.992.39765-.69858,1.91763.37266,1.92615Z"/>
  <path d="M36.00062,27.15842c.21721.00201.40105-.08168.59753-.16018,2.87305-1.14795,6.09521-1.31396,9.07031-.46387l2.05664.58789c.53271.15332,1.08447-.15576,1.23633-.68652.15186-.53125-.15576-1.08447-.68652-1.23633l-2.05664-.58789c-3.40137-.97266-7.08105-.78418-10.36377.53027l-.22656.09082c-.96572.38712-.72373,1.91566.37268,1.92581Z"/>
  <path d="M35.99942,33.1253c.19965-.00309.40642-.05022.59873-.12706,2.87305-1.14795,6.09521-1.31396,9.07031-.46387l2.05664.58789c.53271.15283,1.08447-.15576,1.23633-.68652.15186-.53125-.15576-1.08447-.68652-1.23633l-2.05664-.58789c-3.40137-.97266-7.08105-.7832-10.36377.53027l-.22656.09082c-.51266.20555-.76169.78753-.55619,1.3002.175.43659.53778.59851.92768.59248Z"/>
  <path d="M48.2749,37.19942l-2.05664-.58789c-3.40137-.97266-7.08105-.78418-10.36377.53027l-.22656.09082c-.99358.39829-.70188,1.92864.37251,1.92871.21682,0,.4013-.08458.5977-.16309,2.87305-1.14844,6.09521-1.31396,9.07031-.46387l2.05664.58789c.53271.15283,1.08447-.15576,1.23633-.68652.15186-.53125-.15576-1.08447-.68652-1.23633Z"/>
</svg>