<?xml version="1.0" encoding="UTF-8"?>
<svg id="Outline" xmlns="http://www.w3.org/2000/svg" version="1.1" viewBox="0 0 64 64">
  <!-- Generator: Adobe Illustrator 29.3.1, SVG Export Plug-In . SVG Version: 2.1.0 Build 151)  -->
  <path d="M52,36.99023c0-1.54004-.71997-2.90002-1.82001-3.81.15002-.56.23999-1.14001.23999-1.73004,0-3.53998-2.82996-6.42999-6.33997-6.53998-.09003-1.89001-1.46002-3.45001-3.25-3.84998-.42999-2.31-2.44-4.07001-4.87-4.07001-1.62,0-3.05005.78998-3.96002,2-.90997-1.21002-2.34003-2-3.96002-2-2.42999,0-4.44,1.76001-4.87,4.07001-1.78998.39996-3.15997,1.95996-3.25,3.84998-3.51001.10999-6.33997,3-6.33997,6.53998,0,.59003.08997,1.17004.23999,1.73004-1.10004.90997-1.82001,2.26996-1.82001,3.81s.71997,2.89996,1.82001,3.81c-.15002.56-.23999,1.14001-.23999,1.72998,0,3.54999,2.83997,6.42999,6.35999,6.53003.09003,1.89996,1.44,3.45996,3.22998,3.85999.42999,2.31,2.44,4.07001,4.87,4.07001,1.62,0,3.05005-.79004,3.96002-2,.90997,1.20996,2.34003,2,3.96002,2,2.42999,0,4.44-1.76001,4.87-4.07001,1.78998-.40002,3.13995-1.96002,3.22998-3.85999,3.52002-.10004,6.35999-2.98004,6.35999-6.53003,0-.58997-.08997-1.16998-.23999-1.72998,1.10004-.91003,1.82001-2.27002,1.82001-3.81ZM31,52.03021c0,1.63-1.33002,2.96002-2.96002,2.96002-1.33997,0-2.46997-.91003-2.82996-2.13.75995-.22003,1.44995-.62,1.97998-1.22003.35999-.41998.32001-1.04999-.09998-1.40997-.41003-.37-1.04004-.33002-1.41003.08997-.39001.45001-.97998.71002-1.59998.71002-1.19,0-2.16003-.96997-2.16003-2.15997,0-.81.44-1.55005,1.15002-1.92004.48999-.25995.67999-.85999.42999-1.34998-.26001-.48999-.85999-.67999-1.34998-.41998-.81.41998-1.43005,1.07996-1.81,1.87-.07001.01001-.15002.01996-.22003.01996-2.5,0-4.53998-2.02997-4.53998-4.53998,0-.26001.03998-.52002.07996-.77997.42004.12.85004.19995,1.30005.19995.54999,0,1-.44995,1-1,0-.54999-.45001-1-1-1-1.63,0-2.96002-1.32996-2.96002-2.95996s1.33002-2.96002,2.96002-2.96002c.54999,0,1-.45001,1-1s-.45001-1-1-1c-.45001,0-.88.08002-1.30005.20001-.03998-.26001-.07996-.52002-.07996-.78003,0-2.50995,2.03998-4.53998,4.53998-4.53998.25,0,.48999.02002.75.07001.34003.06.69-.06.91998-.31.23004-.25.32001-.60999.22003-.94-.06-.25-.09003-.44-.09003-.62,0-.88.54004-1.65002,1.29999-1.97998.21002.87.66003,1.64996,1.29004,2.28998-.37.33002-.71002.69-.98999,1.12l-.27002.40002c-.31.45996-.17999,1.07996.28019,1.38005.46204.32619,1.07683.16328,1.3898-.28008l.26001-.39001c.64001-.95996,1.71002-1.53998,2.85999-1.53998.55005,0,1-.44,1-1,0-.54999-.44995-1-1-1-.58997,0-1.15997.10999-1.69995.28998-.03003-.02997-.04004-.06-.07001-.08002-.76001-.56995-1.19-1.42999-1.19-2.37,0-1.63,1.32996-2.95996,2.95996-2.95996s2.96002,1.32996,2.96002,2.95996v30.08002ZM47.03998,39.9502c-.54999,0-1,.45001-1,1,0,.55005.45001,1,1,1,.45001,0,.88-.07996,1.30005-.19995.03998.25995.07996.51996.07996.77997,0,2.51001-2.03998,4.53998-4.53998,4.53998-.07001,0-.15002-.00995-.22003-.01996-.37994-.79004-1-1.45001-1.81-1.87-.48999-.26001-1.08997-.07001-1.34998.41998-.25.48999-.06,1.09003.42999,1.34998.71002.37,1.15002,1.11005,1.15002,1.92004,0,1.19-.97003,2.15997-2.16003,2.15997-.62,0-1.20996-.26001-1.59998-.71002-.37-.40997-1-.45996-1.41003-.08997-.41998.35999-.45996.98999-.09998,1.40997.53003.60004,1.22003,1,1.97998,1.22003-.35999,1.21997-1.48999,2.13-2.82996,2.13-1.63,0-2.96002-1.33002-2.96002-2.96002v-30.08002c0-1.63,1.33002-2.95996,2.96002-2.95996s2.95996,1.32996,2.95996,2.95996c0,.94-.42999,1.80005-1.19,2.37-.02997.02002-.03998.05005-.07001.08002-.53998-.17999-1.10999-.28998-1.69995-.28998-.55005,0-1,.45001-1,1,0,.56.44995,1,1,1,1.14996,0,2.21997.58002,2.85999,1.53998l.26001.39001c.19988.28979.5096.4498.83932.45001.78245.0005,1.26956-.89878.83067-1.54999l-.27002-.40002c-.27997-.42999-.62-.78998-.98999-1.12.63-.64001,1.08002-1.41998,1.29004-2.28998.75995.32996,1.29999,1.09998,1.29999,1.97998,0,.17999-.03003.37-.09003.62-.09998.33002-.01001.69.22003.94.22998.25.57996.37.91998.31.26001-.04999.5-.07001.75-.07001,2.5,0,4.53998,2.03003,4.53998,4.53998,0,.26001-.03998.52002-.07996.78003-.42004-.12-.85004-.20001-1.30005-.20001-.54999,0-1,.45001-1,1s.45001,1,1,1c1.63,0,2.96002,1.33002,2.96002,2.96002s-1.33002,2.95996-2.96002,2.95996Z"/>
  <path d="M23,39.99023c0-.55225-.44775-1-1-1-1.10303,0-2-.89697-2-2s.89697-2,2-2c.55225,0,1-.44775,1-1s-.44775-1-1-1c-2.20557,0-4,1.79443-4,4s1.79443,4,4,4c.55225,0,1-.44775,1-1Z"/>
  <path d="M23.16846,41.43457c-.49121.25293-.68457.85596-.43164,1.34668.25195.49072.854.68359,1.34668.43164.4751-.24512,1.01611-.29004,1.52588-.12646.50879.1626.92334.51416,1.16797.98877.50488.98096.11816,2.18945-.8623,2.69385-.49113.25289-.68451.85577-.43176,1.34645.24717.47985.86894.67717,1.3468.43187.9502-.48926,1.65283-1.31885,1.97852-2.33643s.23584-2.10107-.25293-3.05078c-1.01025-1.96143-3.42676-2.73535-5.38721-1.72559Z"/>
  <path d="M23,31.99023c1.10303,0,2,.89697,2,2s-.89697,2-2,2c-.55225,0-1,.44775-1,1s.44775,1,1,1c2.20557,0,4-1.79443,4-4s-1.79443-4-4-4c-.55225,0-1,.44775-1,1s.44775,1,1,1Z"/>
  <path d="M42,32.99023c-.55225,0-1,.44775-1,1s.44775,1,1,1c1.10303,0,2,.89697,2,2s-.89697,2-2,2c-.55225,0-1,.44775-1,1s.44775,1,1,1c2.20557,0,4-1.79443,4-4s-1.79443-4-4-4Z"/>
  <path d="M40.83154,41.43457c-1.96094-1.00977-4.37744-.23584-5.38721,1.72559-.48877.94971-.57861,2.0332-.25293,3.05078s1.02832,1.84717,1.97854,2.33644c.48732.25015,1.09657.05475,1.34666-.43165.25293-.49072.05957-1.09375-.43164-1.34668-.98047-.50439-1.36719-1.71289-.8623-2.69385.24463-.47461.65918-.82617,1.16797-.98877.5083-.16357,1.05029-.11865,1.52588.12646.49316.25293,1.09424.05908,1.34668-.43164.25293-.49072.05957-1.09375-.43164-1.34668Z"/>
  <path d="M41,37.99023c.55225,0,1-.44775,1-1s-.44775-1-1-1c-1.10303,0-2-.89697-2-2s.89697-2,2-2c.55225,0,1-.44775,1-1s-.44775-1-1-1c-2.20557,0-4,1.79443-4,4s1.79443,4,4,4Z"/>
  <path d="M52.78076,12.36572l-4-5c-.37891-.47461-1.18262-.47461-1.56152,0l-4,5c-.24023.2998-.28711.71143-.12061,1.05762.1665.34668.51709.56689.90137.56689h1v8c0,.55225.44775,1,1,1h4c.55225,0,1-.44775,1-1v-8h1c.38428,0,.73486-.22021.90137-.56689.1665-.34619.11963-.75781-.12061-1.05762ZM49,12.99023v8h-2v-8c0-.52588-.40625-.95703-.92188-.99707l1.92188-2.40234,1.92188,2.40234c-.51562.04004-.92188.47119-.92188.99707Z"/>
  <path d="M13,13.99023v8c0,.55225.44775,1,1,1h4c.55225,0,1-.44775,1-1v-8h1c.38428,0,.73486-.22021.90137-.56689.1665-.34619.11963-.75781-.12061-1.05762l-4-5c-.37891-.47461-1.18262-.47461-1.56152,0l-4,5c-.24023.2998-.28711.71143-.12061,1.05762.1665.34668.51709.56689.90137.56689h1ZM16,9.59082l1.92188,2.40234c-.51562.04004-.92188.47119-.92188.99707v8h-2v-8c0-.52588-.40625-.95703-.92188-.99707l1.92188-2.40234Z"/>
</svg>