<?xml version="1.0" encoding="UTF-8"?>
<svg id="Outline" xmlns="http://www.w3.org/2000/svg" version="1.1" viewBox="0 0 64 64">
  <!-- Generator: Adobe Illustrator 29.5.1, SVG Export Plug-In . SVG Version: 2.1.0 Build 141)  -->
  <path d="M56.001,17.001c.26,0,.51-.1.69-.28.2-.19.31-.45.31-.72v-8c0-.27-.11-.53-.31-.72-.19-.19-.45-.3-.73-.28l-28,1c-.53.02-.96.46-.96,1v6c0,.41.25.77.62.92-1,1.07-1.62,2.5-1.62,4.08-.89,0-1.76.2-2.56.58-1.82-2.27-4.17-4.45-6.51-5.5-1.57-.7-2.98-.82-4.2-.35-4.17,1.58-4.53,9.56-3.79,14.27h-.94c-.55,0-1,.45-1,1,0,1.448-.025,2.896.07,4.34.6,9.05,7.24,16.49,15.93,18.26v3.4c0,.55.45,1,1,1h16c.55,0,1-.45,1-1v-3.4c8.69-1.77,15.33-9.21,15.93-18.26.029-.444.07-.894.07-1.34v-3c0-.55-.45-1-1-1h-1.05c-.51-5.6-5.22-10-10.95-10-1.67,0-3.32.4-4.81,1.12-.38-.08-.78-.12-1.19-.12,0-1.39-.48-2.67-1.28-3.69l19.24.69h.04ZM13.451,16.591c.7-.27,1.6-.16,2.66.32,3.31,1.48,7.36,6.32,8.51,9.34.38,1.01.46,1.91.26,2.75h-2.99c.57-1.2.65-2.61.15-3.91-.48-1.25-1.41-2.24-2.62-2.79-1.23-.55-2.59-.58-3.84-.1-1.24.47-2.23,1.41-2.78,2.63-.54,1.21-.58,2.57-.1,3.82.04.12.1.23.16.35h-1.9c-.81-4.59-.2-11.38,2.49-12.41ZM19.481,29.001h-4.19c-.31-.3-.57-.66-.73-1.07-.28-.74-.26-1.56.07-2.29.33-.73.92-1.29,1.67-1.58.75-.28,1.56-.26,2.3.07.72.33,1.28.92,1.57,1.67.43,1.12.14,2.37-.69,3.2ZM55.001,31.001v2H18.001c-.55,0-1,.45-1,1s.45,1,1,1h36.88c-1,8.99-8.63,16-17.88,16h-3c-.55,0-1,.45-1,1s.45,1,1,1h5v2h-14v-2h5c.55,0,1-.45,1-1s-.45-1-1-1h-3c-9.25,0-16.88-7.01-17.88-16h4.88c.55,0,1-.45,1-1s-.45-1-1-1h-5v-2h46ZM26.931,29.001c.03-.2.05-.4.05-.6l.61.6h-.66ZM43.911,25.001h.09c2.41,0,4.43,1.72,4.9,4h-5.72c.54-.92.82-1.94.82-3,0-.34-.04-.67-.09-1ZM44.001,21.001c4.62,0,8.44,3.51,8.94,8h-2.02c-.49-3.39-3.4-6-6.92-6-.27,0-.53.02-.78.05-.39-.68-.9-1.27-1.5-1.75.74-.2,1.51-.3,2.28-.3ZM37.082,22.121c.35-.08.65-.12.92-.12,2.21,0,4,1.79,4,4,0,.85-.28,1.68-.82,2.4-.13.18-.2.39-.2.6h-4.57l2.3-2.29c.39-.39.39-1.03,0-1.42-.39-.39-1.03-.39-1.42,0l-3.7,3.71h-.59v-10c0-.55-.45-1-1-1s-1,.45-1,1v10h-.59l-3.7-3.71c-.12-.12-.27-.19-.43-.23-.37-.84-.92-1.81-1.61-2.82.43-.15.87-.24,1.33-.24.27,0,.57.04.92.12.34.07.69-.03.93-.27.24-.25.34-.59.27-.93-.08-.35-.12-.65-.12-.92,0-1.9,1.33-3.48,3.1-3.89l2.03.07c1.66.5,2.87,2.01,2.87,3.82,0,.27-.04.57-.12.92-.07.34.03.68.27.93.24.24.59.34.93.27ZM55.001,14.961l-21.51-.76c-.48-.13-.97-.2-1.49-.2-.37,0-.73.04-1.09.1l-1.91-.06v-1.04h26v1.96ZM55.001,11.001h-26v-1.04l26-.92v1.96Z"/>
</svg>