<?xml version="1.0" encoding="UTF-8"?>
<svg id="Outline" xmlns="http://www.w3.org/2000/svg" version="1.1" viewBox="0 0 64 64">
  <!-- Generator: Adobe Illustrator 29.5.1, SVG Export Plug-In . SVG Version: 2.1.0 Build 141)  -->
  <path d="M57.06,23.968c0-.55-.45-1-1-1h-4.31c-4.58-3.06-11.48-4.85-19.06-4.95l-4.86-3.57c-5.19-3.8-11.3-6.03-17.69-6.44-.82-.05-1.64.24-2.25.81-.6.56-.95,1.36-.95,2.19,0,1.58,1.23,2.89,2.81,2.99,4.93.32,9.66,1.97,13.74,4.77-9.82,1.81-16.49,6.67-16.49,12.23,0,6.36,2.39,12.17,6.32,16.59.01.02.03.04.05.06,4.58,5.12,11.23,8.35,18.63,8.35s14.05-3.23,18.63-8.35c.02-.02.04-.04.05-.06,3.93-4.42,6.32-10.23,6.32-16.59,0-.95-.2-1.88-.57-2.78.4-1.12.63-2.31.63-3.56v-.69ZM47.59,22.968h-7.15c-.64,0-1.27-.2-1.78-.58l-3.06-2.24c4.47.34,8.65,1.33,11.99,2.82ZM32,53.998c-4.63,0-8.93-1.38-12.54-3.74,3.77,1.12,8.09,1.74,12.54,1.74s8.77-.62,12.54-1.74c-3.61,2.36-7.91,3.74-12.54,3.74ZM49.24,46.208c-4.4,2.41-10.66,3.79-17.24,3.79s-12.84-1.38-17.24-3.79c-.83-.95-1.59-1.96-2.26-3.03,4.65,2.98,11.78,4.82,19.5,4.82s14.85-1.84,19.5-4.82c-.67,1.07-1.43,2.08-2.26,3.03ZM53.73,38.528c-3.25,4.47-11.95,7.47-21.73,7.47s-18.48-3-21.73-7.47c-.16-.48-.31-.95-.45-1.44,4.14,4.14,12.42,6.91,22.18,6.91s18.04-2.77,22.18-6.91c-.14.49-.29.96-.45,1.44ZM32,41.998c-12.47,0-23-5.04-23-11,0-4.83,7.05-9.25,16.81-10.58l2.38,1.75c-10.26.87-17.19,5.11-17.19,8.83,0,4.26,8.62,9,21,9,10.14,0,17.36-3.25,19.88-6.31,1.21-.7,2.27-1.66,3.11-2.8,0,.04.01.07.01.11,0,5.96-10.53,11-23,11ZM30.72,24.018l2.88,2.11c2.48,1.82,4.29,3.47,5.67,5.17,1.88,2.31,4.61,3.63,7.55,3.69-3.41,1.71-8.62,3.01-14.82,3.01-11.79,0-19-4.53-19-7,0-2.22,6.26-6.65,17.72-6.98ZM47.3,32.998c-2.54.07-4.88-1-6.48-2.96-1.49-1.84-3.41-3.6-6.04-5.52l-9.32-6.84c-4.57-3.35-9.96-5.31-15.59-5.67-.52-.04-.93-.47-.93-1,0-.28.11-.54.32-.74.191-.171.432-.27.69-.27h.06c6.01.39,11.76,2.48,16.63,6.06l10.84,7.94c.86.64,1.89.97,2.96.97h14.62c-.16,4.32-3.58,7.89-7.76,8.03Z"/>
</svg>