<?xml version="1.0" encoding="UTF-8"?>
<svg id="Outline" xmlns="http://www.w3.org/2000/svg" version="1.1" viewBox="0 0 64 64">
  <!-- Generator: Adobe Illustrator 29.3.1, SVG Export Plug-In . SVG Version: 2.1.0 Build 151)  -->
  <path d="M37.3241,36.38159c-.39062-.39062-1.02344-.39062-1.41406,0s-.39062,1.02344,0,1.41406l.49744.49744c-2.82935,2.13696-6.88098,1.92468-9.45789-.65222l-2.90869-2.90869c-2.57684-2.57684-2.78918-6.62799-.65234-9.45758,0,0,.50769.50775.50928.50934.36591.36597,1.02112.39294,1.41406,0,.39062-.39062.39062-1.02344,0-1.41406l-12.72168-12.72217c-.39062-.39062-1.02344-.39062-1.41406,0s-.39062,1.02344,0,1.41406l.59552.59552c-5.60779,6.25604-6.18103,15.53107-1.24347,22.44403,4.16162,5.82617,9.22607,10.89062,15.05225,15.05225,3.16455,2.26025,6.8252,3.36865,10.46533,3.36865,4.31177,0,8.58276-1.57574,11.97491-4.61591l.58759.58759c.38812.38812,1.02588.38818,1.41406,0,.39062-.39062.39062-1.02344,0-1.41406l-12.69824-12.69824ZM26.74255,49.52563c-5.646-4.03271-10.55371-8.94043-14.58643-14.58643-4.36768-6.11462-3.88574-14.30798,1.0296-19.8678l8.77393,8.77429c-2.91162,3.61981-2.69086,8.9425.66718,12.30054l2.90869,2.90869c1.79883,1.79883,4.16064,2.69775,6.52393,2.69775,2.04828,0,4.09595-.67865,5.77686-2.03076l8.77405,8.77405c-5.5603,4.91547-13.75409,5.3974-19.8678,1.02966Z"/>
  <path d="M43.5238,9.47778c-7.27734,0-13.12354,5.69922-13.30957,12.97461-.01416.55176.42188,1.01074,1,1.02539.54053,0,.98535-.43115.99902-.97461.1582-6.18262,5.12646-11.02539,11.31055-11.02539,6.23633,0,11.31006,5.07812,11.31006,11.31982,0,6.23633-5.07373,11.31006-11.31006,11.31006-2.67676,0-5.28809-.96338-7.35352-2.71289-.39746-.33594-.98535-.31201-1.35352.05615l-2.61279,2.61279v-3.58594c0-.55225-.44775-1-1-1s-1,.44775-1,1v6c0,.4043.24365.76904.61725.92383.37439.15472.80328.0697,1.08978-.2168l3.69141-3.69141c2.29883,1.69189,5.07812,2.61426,7.92139,2.61426,7.33936,0,13.31006-5.9707,13.31006-13.31006,0-7.34473-5.9707-13.31982-13.31006-13.31982Z"/>
  <path d="M45.03943,27.28687l6,1c.05469.00928.10986.01367.16455.01367.23486,0,.46436-.08301.64648-.23682.22412-.18994.35352-.46924.35352-.76318v-8c0-.45996-.31396-.86084-.76074-.97119l-.09717-.02393c-5.36279-1.33203-11.0293-1.32275-16.38623.02539-.44434.11182-.75586.51123-.75586.96973v8c0,.29395.12939.57324.35352.76318.22461.18945.52148.27148.81104.22314l6-1c.48193-.08008.83545-.49756.83545-.98633v-2.53955c.28613-.19336.62256-.29932.97559-.3042.37061.00391.70654.09668,1.02441.3125v2.53125c0,.48877.35352.90625.83545.98633ZM43.15369,21.45728c-1.01318.01318-1.95996.41992-2.66602,1.14551-.18213.18701-.28369.43701-.28369.69775v2.15283l-4,.6665v-6.02979c4.59375-1.03613,9.40332-1.03662,14,.00049v6.0293l-4-.6665v-2.15283c0-.26953-.16211-.57959-.35547-.76807-.72461-.70703-1.71729-1.08252-2.69482-1.0752Z"/>
  <circle cx="31.20398" cy="26.47778" r="1"/>
</svg>