<?xml version="1.0" encoding="UTF-8"?>
<svg id="Outline" xmlns="http://www.w3.org/2000/svg" version="1.1" viewBox="0 0 64 64">
  <!-- Generator: Adobe Illustrator 29.0.0, SVG Export Plug-In . SVG Version: 2.1.0 Build 186)  -->
  <path d="M42.76001,28c.52997,0,1.02997.20996,1.40997.58997l2.23999,2.23999c.76001.75,1.76001,1.17004,2.83002,1.17004h6.76001c.54999,0,1-.45001,1-1s-.45001-1-1-1h-6.76001c-.45996,0-.89001-.16003-1.23999-.44v-5.06c.22998.17999.38.27997.41998.31.17004.13.38.19.58002.19s.40997-.06.58002-.19c.31-.22003,7.41998-5.38,7.41998-10.32001,0-3.03003-2.28998-5.48999-5.09998-5.48999-1.05005,0-2.05005.33997-2.90002.96997-.58002-.42999-1.23999-.71997-1.92999-.85999-.92999-1.31-2.44-2.10999-4.07001-2.10999h-22c-1.63,0-3.14001.79999-4.07001,2.10999-.69.14001-1.34998.42999-1.92999.85999-.84998-.63-1.84998-.96997-2.90002-.96997-2.81,0-5.09998,2.45996-5.09998,5.48999,0,4.94,7.10999,10.09998,7.41998,10.32001.17004.13.38.19.58002.19s.40997-.06.58002-.19c.03998-.03003.19-.13.41998-.31v4.20001c-.31.17999-.65002.29999-1,.29999h-7c-.54999,0-1,.45001-1,1s.45001,1,1,1h7c.85999,0,1.71002-.28003,2.40002-.79999l2.39996-1.80005c.34003-.25995.77002-.39996,1.20001-.39996h5.88l-4.46002,3.19c-.39996.27997-.52997.82001-.31,1.26001.63,1.26996,1.79004,2.22998,3.16003,2.62994,1.37.41003,2.84998.21002,4.07996-.51996l3.14001-1.89001c.41998-.25.96002-.15997,1.27002.20001l7.20001,8.29999c.38.44.34998,1.10999-.07001,1.52002-.48999.48999-1.29004.48999-1.78003.01001l-6.39996-6.41003c-.39001-.39001-1.03003-.39001-1.42004,0-.38995.39001-.38995,1.03003,0,1.41998l4.58002,4.58002c.16998.21002.25.46002.25.70001,0,.28998-.10999.58002-.33002.79999-.26996.27002-.57996.33002-.78998.33002s-.52002-.06-.78998-.33002l-6.5-6.5c-.39001-.39001-1.03003-.39001-1.42004,0-.38995.39001-.38995,1.03003,0,1.41998l4.58002,4.57001v.01001c.37.45001.33002,1.09003-.08002,1.5-.26996.27002-.57996.33002-.78998.33002s-.52002-.06-.78998-.33002l-6.5-6.5c-.39001-.39001-1.03003-.39001-1.42004,0-.38995.39001-.38995,1.03003,0,1.41998l4.58002,4.57001v.01001c.37.45001.33002,1.09003-.08002,1.5-.26996.27002-.57996.33002-.78998.33002s-.52002-.06-.78998-.33002l-4.62-4.62c-.67004-.65997-1.53003-1.04999-2.46002-1.13-.03998-.01001-.08002-.02997-.13-.02997-.02002,0-.03003.00995-.04999.00995-.06,0-.13-.01996-.19-.01996h-8.76001c-.54999,0-1,.45001-1,1s.45001,1,1,1h8v10c0,2.76001,2.23999,5,5,5h22c2.76001,0,5-2.23999,5-5v-10h8c.54999,0,1-.45001,1-1s-.45001-1-1-1h-13.42999c-.03998-.04999-.06-.10004-.10004-.15002l-7.18994-8.28998c-.96002-1.10004-2.56006-1.35004-3.81006-.60004l-3.14996,1.88c-.76001.46002-1.64001.57001-2.48999.32001-.58002-.15997-1.08002-.47998-1.46002-.90997l5.95001-4.25h12.44ZM43,53c.54999,0,1-.45001,1-1v-10h2v10c0,1.64996-1.34998,3-3,3h-22c-1.65002,0-3-1.35004-3-3v-9.56c.06.04999.12.08997.16998.14996l1.83002,1.82001v7.59003c0,.54999.45001,1,1,1h22ZM42,51h-20v-4.59003l.78998.79999c.59003.59003,1.38.91003,2.21002.91003s1.62-.32001,2.21002-.91003c.27997-.27997.48999-.60999.64996-.94995.58002.54999,1.33002.85999,2.14001.85999.83002,0,1.62-.32001,2.21002-.91003.27997-.27997.48999-.60999.64996-.94995.58002.54999,1.33002.85999,2.14001.85999.83002,0,1.62-.32001,2.21002-.91003.27997-.28998.5-.60999.64996-.95996.62.52997,1.37.81,2.14001.81.71002,0,1.40997-.23999,2-.70001v6.64001ZM46,27.58997l-.40997-.41998c-.46002-.45001-1-.76001-1.59003-.95001v-5.45996c.66998.76996,1.35999,1.45996,2,2.04999v4.77997ZM48.26001,11.98999c.38.40997,1.09998.40997,1.47998,0,.58002-.64001,1.35004-.98999,2.16003-.98999,1.70996,0,3.09998,1.56,3.09998,3.48999,0,2.94-3.90997,6.60999-6,8.26001-.38-.29999-.82001-.66003-1.28003-1.08002-.01996-.01001-.03998-.02997-.04999-.03998-2.08997-1.88-4.66998-4.75-4.66998-7.14001,0-1.92999,1.39001-3.48999,3.09998-3.48999.81,0,1.58002.34998,2.16003.98999ZM20,26.14001c-.5.12994-.97998.34998-1.40002.65997l-.59998.45001v-4.44c.64001-.59003,1.33002-1.28003,2-2.04999v5.38ZM16.33002,21.63c-.01001.01001-.03003.02997-.04999.03998-.46002.41998-.90002.78003-1.28003,1.08002-2.09003-1.65002-6-5.32001-6-8.26001,0-1.92999,1.39001-3.48999,3.09998-3.48999.81,0,1.58002.34998,2.16003.98999.38.40997,1.09998.40997,1.47998,0,.58002-.64001,1.35004-.98999,2.16003-.98999,1.70996,0,3.09998,1.56,3.09998,3.48999,0,2.39001-2.58002,5.26001-4.66998,7.14001ZM19.65002,9.33997c.40997-.20996.87-.33997,1.34998-.33997h22c.47998,0,.94.13,1.34998.33997-.85999.34003-1.60999.91003-2.17999,1.66003h-5.16998c-.27002,0-.52002.10999-.71002.28998l-1.69995,1.71002h-5.18005l-1.69995-1.71002c-.19-.17999-.44-.28998-.71002-.28998h-5.16998c-.57001-.75-1.32001-1.32001-2.17999-1.66003ZM22,26v-8.08002c.59998-1.10999,1-2.27997,1-3.42999,0-.52002-.07001-1.02002-.20001-1.48999h3.79004l1.69995,1.70996c.19.18005.44.29004.71002.29004h6c.27002,0,.52002-.10999.71002-.29004l1.69995-1.70996h3.79004c-.13.46997-.20001.96997-.20001,1.48999,0,1.15002.40002,2.32001,1,3.42999v8.08002h-20Z"/>
</svg>