<?xml version="1.0" encoding="UTF-8"?>
<svg id="Outline" xmlns="http://www.w3.org/2000/svg" version="1.1" viewBox="0 0 64 64">
  <!-- Generator: Adobe Illustrator 29.5.1, SVG Export Plug-In . SVG Version: 2.1.0 Build 141)  -->
  <path d="M54,15h-17v-5c0-1.65002-1.34998-3-3-3H10c-1.65002,0-3,1.34998-3,3v44c0,1.64996,1.34998,3,3,3h24c1.65002,0,3-1.35004,3-3v-17h17c1.65002,0,3-1.35004,3-3v-16c0-1.65002-1.34998-3-3-3ZM53.28003,17l-12.28003,8.76996-12.28003-8.76996h24.56006ZM9,10c0-.54999.45001-1,1-1h24c.54999,0,1,.45001,1,1v1.17999c-.31-.10999-.65002-.17999-1-.17999H10c-.34998,0-.69.07001-1,.17999v-1.17999ZM35,54c0,.54999-.45001,1-1,1H10c-.54999,0-1-.45001-1-1v-1.17999c.31.10999.65002.17999,1,.17999h24c.34998,0,.69-.07001,1-.17999v1.17999ZM35,50c0,.54999-.45001,1-1,1H10c-.54999,0-1-.45001-1-1V14c0-.54999.45001-1,1-1h24c.54999,0,1,.45001,1,1v1h-7c-1.65002,0-3,1.34998-3,3v16c0,1.64996,1.34998,3,3,3h1v2.99998c0,.86731,1.09343,1.32657,1.71002.70998l3.69995-3.70996h.59003v13ZM55,34c0,.54999-.45001,1-1,1h-20c-.27002,0-.52002.10999-.71002.28998l-2.28998,2.29999v-1.58997c0-.54999-.45001-1-1-1h-2c-.54999,0-1-.45001-1-1v-15.77002l13.41998,9.58002c.17004.13.38.19.58002.19s.40997-.06.58002-.19l13.41998-9.58002v15.77002Z"/>
</svg>