<?xml version="1.0" encoding="UTF-8"?>
<svg id="Outline" xmlns="http://www.w3.org/2000/svg" version="1.1" viewBox="0 0 64 64">
  <!-- Generator: Adobe Illustrator 29.5.1, SVG Export Plug-In . SVG Version: 2.1.0 Build 141)  -->
  <path d="M36.021,35.793c-.391-.391-1.023-.391-1.414,0-2.729,2.729-7.172,2.728-9.899,0s-2.729-7.17,0-9.899c.391-.391.391-1.023,0-1.414l-11.313-11.313c-.391-.391-1.023-.391-1.414,0-3.211,3.211-4.979,7.479-4.979,12.021s1.769,8.81,4.979,12.021l11.313,11.313c3.211,3.211,7.479,4.979,12.021,4.979s8.81-1.769,12.021-4.979c.391-.391.391-1.023,0-1.414l-11.313-11.313ZM12.71,15.311l9.915,9.915c-.493.615-.887,1.283-1.194,1.98l-10.072-10.079c.405-.632.848-1.243,1.351-1.816ZM24.707,47.106l-11.313-11.313c-2.833-2.833-4.394-6.6-4.394-10.606,0-2.188.475-4.3,1.359-6.232l10.428,10.436c-.449,2.762.381,5.692,2.506,7.817,2.126,2.126,5.057,2.956,7.818,2.507l10.435,10.427c-1.932.884-4.044,1.359-6.232,1.359-4.007,0-7.773-1.561-10.606-4.394ZM43.374,49.141l-10.079-10.071c.697-.307,1.365-.701,1.98-1.194l9.915,9.915c-.573.503-1.184.946-1.816,1.351Z"/>
  <path d="M56.316,20.552l-1.923-.642c-.145-.422-.313-.832-.504-1.225l.904-1.81c.192-.385.117-.85-.188-1.154l-2.828-2.828c-.305-.305-.77-.38-1.154-.188l-1.81.904c-.393-.19-.803-.359-1.225-.504l-.642-1.923c-.136-.408-.518-.684-.948-.684h-4c-.431,0-.813.275-.948.684l-.642,1.923c-.422.145-.832.313-1.225.504l-1.81-.904c-.385-.193-.849-.118-1.154.188l-2.828,2.828c-.305.305-.38.77-.188,1.154l.904,1.81c-.19.393-.359.803-.504,1.225l-1.923.642c-.408.136-.684.518-.684.948v4c0,.431.275.812.684.948l1.923.642c.145.422.313.832.504,1.225l-.904,1.81c-.192.385-.117.85.188,1.154l2.828,2.828c.306.306.771.381,1.154.188l1.81-.904c.393.19.803.359,1.225.504l.642,1.923c.136.408.518.684.948.684h4c.431,0,.812-.275.948-.684l.642-1.923c.422-.145.832-.313,1.225-.504l1.81.904c.384.191.849.118,1.154-.188l2.828-2.828c.305-.305.38-.77.188-1.154l-.904-1.81c.19-.393.359-.803.504-1.225l1.923-.642c.408-.136.684-.518.684-.948v-4c0-.431-.275-.812-.684-.948ZM55,24.779l-1.722.574c-.312.104-.552.354-.644.668-.187.641-.437,1.247-.743,1.804-.158.288-.165.636-.019.93l.81,1.619-1.809,1.809-1.619-.81c-.293-.146-.641-.141-.93.019-.557.307-1.163.557-1.804.743-.314.092-.564.332-.668.644l-.574,1.722h-2.559l-.574-1.722c-.104-.312-.354-.552-.668-.644-.641-.187-1.247-.437-1.804-.743-.289-.159-.637-.165-.93-.019l-1.619.81-1.809-1.809.81-1.619c.146-.294.14-.642-.019-.93-.307-.557-.557-1.163-.743-1.804-.092-.314-.332-.564-.644-.668l-1.722-.574v-2.559l1.722-.574c.312-.104.552-.354.644-.668.187-.641.437-1.247.743-1.804.158-.288.165-.636.019-.93l-.81-1.619,1.809-1.809,1.619.81c.293.146.641.142.93-.019.557-.307,1.163-.557,1.804-.743.314-.092.564-.332.668-.644l.574-1.722h2.559l.574,1.722c.104.312.354.552.668.644.641.187,1.247.437,1.804.743.289.16.637.165.93.019l1.619-.81,1.809,1.809-.81,1.619c-.146.294-.14.642.019.93.307.557.557,1.163.743,1.804.092.314.332.564.644.668l1.722.574v2.559Z"/>
  <path d="M44,16.5c-3.859,0-7,3.141-7,7s3.141,7,7,7,7-3.141,7-7-3.141-7-7-7ZM44,28.5c-2.757,0-5-2.243-5-5s2.243-5,5-5,5,2.243,5,5-2.243,5-5,5Z"/>
</svg>