<?xml version="1.0" encoding="UTF-8"?>
<svg id="Outline" xmlns="http://www.w3.org/2000/svg" version="1.1" viewBox="0 0 64 64">
  <!-- Generator: Adobe Illustrator 29.3.1, SVG Export Plug-In . SVG Version: 2.1.0 Build 151)  -->
  <path d="M32,7c-13.78516,0-25,11.21484-25,25v3c0,3.30859,2.69141,6,6,6h.14203c.44727,1.72028,1.99969,3,3.85797,3,.73175,0,1.40924-.21191,2-.55646v8.55646c0,2.75684,2.24316,5,5,5h3c.55225,0,1-.44775,1-1s-.44775-1-1-1h-3c-1.6543,0-3-1.3457-3-3v-3h22v3c0,1.6543-1.3457,3-3,3h-5c-.55225,0-1,.44775-1,1s.44775,1,1,1h5c2.75684,0,5-2.24316,5-5v-8.55646c.59076.34454,1.26825.55646,2,.55646,1.85828,0,3.41071-1.27972,3.85797-3h.14203c3.30859,0,6-2.69141,6-6v-3c0-13.78516-11.21484-25-25-25ZM32,9c12.17444,0,22.16425,9.51001,22.94501,21.49048-1.05591-.92493-2.43414-1.49048-3.94501-1.49048h-.14203c-.44727-1.72028-1.99969-3-3.85797-3-.73175,0-1.40924.21191-2,.55646v-8.55646c0-2.75684-2.24316-5-5-5h-16c-2.75684,0-5,2.24316-5,5v8.55646c-.59076-.34454-1.26825-.55646-2-.55646-1.85828,0-3.41071,1.27972-3.85797,3h-.14203c-1.51086,0-2.8891.56555-3.94501,1.49048.78076-11.98047,10.77057-21.49048,22.94501-21.49048ZM42.81573,17h-6.81573c-.37891,0-.7251.21387-.89453.55273l-.72363,1.44727h-4.76367l-.72363-1.44727c-.16943-.33887-.51562-.55273-.89453-.55273h-6.81573c.41412-1.1615,1.51379-2,2.81573-2h16c1.30194,0,2.40161.8385,2.81573,2ZM9,35c0-2.20557,1.79443-4,4-4v8c-2.20557,0-4-1.79443-4-4ZM17,42c-1.10303,0-2-.89697-2-2v-10c0-1.10303.89697-2,2-2s2,.89697,2,2v10c0,1.10303-.89697,2-2,2ZM21,47v-28h6.38184l.72363,1.44727c.16943.33887.51562.55273.89453.55273h6c.37891,0,.7251-.21387.89453-.55273l.72363-1.44727h6.38184v28h-22ZM47,42c-1.10303,0-2-.89697-2-2v-10c0-1.10303.89697-2,2-2s2,.89697,2,2v10c0,1.10303-.89697,2-2,2ZM51,39v-8c2.20557,0,4,1.79443,4,4s-1.79443,4-4,4Z"/>
  <path d="M34,53c.55225,0,1-.44775,1-1s-.44775-1-1-1h-4c-.55225,0-1,.44775-1,1s.44775,1,1,1h4Z"/>
  <circle cx="32" cy="25" r="1"/>
  <path d="M34,42h-1v-13c0-.55225-.44775-1-1-1h-2c-.55225,0-1,.44775-1,1s.44775,1,1,1h1v12h-1c-.55225,0-1,.44775-1,1s.44775,1,1,1h4c.55225,0,1-.44775,1-1s-.44775-1-1-1Z"/>
  <circle cx="31" cy="56" r="1"/>
</svg>