<?xml version="1.0" encoding="UTF-8"?>
<svg id="Outline" xmlns="http://www.w3.org/2000/svg" version="1.1" viewBox="0 0 64 64">
  <!-- Generator: Adobe Illustrator 29.3.1, SVG Export Plug-In . SVG Version: 2.1.0 Build 151)  -->
  <path d="M54,17c.54999,0,1-.45001,1-1v-6c0-.54999-.45001-1-1-1h-3v-1c0-.54999-.45001-1-1-1h-22c-.54999,0-1,.45001-1,1s.45001,1,1,1h21v38H17V9h3c.54999,0,1-.45001,1-1s-.45001-1-1-1h-5c-3.31,0-6,2.69-6,6v38c0,.12.03003.22998.07001.32996-.03003.22003-.07001.44-.07001.67004,0,2.76001,2.23999,5,5,5h36c.34998,0,.66998-.17999.84998-.47003.18005-.29999.20001-.66998.04004-.97998-1.10999-2.22003-1.10999-4.88,0-7.09998.01001-.01001.01001-.03003.01996-.04004.01001-.01996.01001-.03998.02002-.07001.03998-.09998.06-.19995.06-.29999,0-.02002.01001-.02997.01001-.03998v-1h3c.54999,0,1-.45001,1-1v-6c0-.54999-.45001-1-1-1h-3v-2h3c.54999,0,1-.45001,1-1v-6c0-.54999-.45001-1-1-1h-3v-2h3c.54999,0,1-.45001,1-1v-6c0-.54999-.45001-1-1-1h-3v-2h3ZM51,11h2v4h-2v-4ZM11,13c0-2.21002,1.78998-4,4-4v38h-1c-1.13,0-2.15997.39001-3,1.02997V13ZM48.52002,55H14c-1.65002,0-3-1.35004-3-3s1.34998-3,3-3h34.52002c-.61005,1.95001-.61005,4.04999,0,6ZM53,41v4h-2v-4h2ZM53,31v4h-2v-4h2ZM53,21v4h-2v-4h2Z"/>
  <path d="M46,34h-26c-.55273,0-1,.44727-1,1v9c0,.55273.44727,1,1,1h26c.55273,0,1-.44727,1-1v-9c0-.55273-.44727-1-1-1ZM45,43h-24v-7h24v7Z"/>
  <path d="M47,21.72656c0-.55273-.44727-1-1-1h-8c-.55273,0-1,.44727-1,1v3h-8v-3c0-.55273-.44727-1-1-1h-8c-.55273,0-1,.44727-1,1v8c0,.49316.36035.91309.84766.98828l3.61523.55566c3.16504.4873,6.35059.73047,9.53711.73047,3.18555,0,6.37305-.24316,9.53711-.73047l3.61523-.55566c.4873-.0752.84766-.49512.84766-.98828v-8ZM45,28.86816l-2.76758.42578c-6.125.94336-12.33984.94336-18.46484,0l-2.76758-.42578v-6.1416h6v3c0,.55273.44727,1,1,1h10c.55273,0,1-.44727,1-1v-3h6v6.1416Z"/>
  <path d="M33,11c-2.93652,0-5.69824,1.14453-7.77734,3.22266-.39062.39062-.39062,1.02344,0,1.41406s1.02344.39062,1.41406,0c1.70117-1.7002,3.96094-2.63672,6.36328-2.63672s4.66211.93652,6.36328,2.63672c.19519.19519.45081.29285.70654.29297.87054.00043,1.32245-1.0921.70752-1.70703-2.0791-2.07812-4.84082-3.22266-7.77734-3.22266Z"/>
  <path d="M37.24054,18.74384c.87469.0036,1.32843-1.06317.70966-1.68817-1.31348-1.3252-3.07129-2.05566-4.9502-2.05566s-3.63672.73047-4.9502,2.05566c-.38867.39258-.38672,1.02539.00586,1.41406s1.02539.38574,1.41406-.00586c.93555-.94434,2.18945-1.46387,3.53027-1.46387,1.3407,0,2.59454.51947,3.53009,1.46368.17987.18152.44348.27893.71045.28015Z"/>
  <path d="M30.87305,19.89258c-.38477.39551-.37695,1.02832.01953,1.41406.39551.38574,1.02832.375,1.41406-.01953.35938-.36914,1.02734-.36914,1.38672,0,.19617.20105.45575.30261.71631.30273.86835.00043,1.31921-1.07843.71729-1.69727-1.12109-1.15234-3.13281-1.15234-4.25391,0Z"/>
  <circle cx="24" cy="8" r="1"/>
</svg>