<?xml version="1.0" encoding="UTF-8"?>
<svg id="Outline" xmlns="http://www.w3.org/2000/svg" version="1.1" viewBox="0 0 64 64">
  <!-- Generator: Adobe Illustrator 29.5.1, SVG Export Plug-In . SVG Version: 2.1.0 Build 141)  -->
  <path d="M24,29c2.206,0,4-1.794,4-4s-1.794-4-4-4-4,1.794-4,4,1.794,4,4,4ZM24,23c1.103,0,2,.897,2,2s-.897,2-2,2-2-.897-2-2,.897-2,2-2Z"/>
  <path d="M40,29c2.206,0,4-1.794,4-4s-1.794-4-4-4-4,1.794-4,4,1.794,4,4,4ZM40,23c1.103,0,2,.897,2,2s-.897,2-2,2-2-.897-2-2,.897-2,2-2Z"/>
  <path d="M54,13h-29c-.55,0-1,.45-1,1s.45,1,1,1h28.59l-2,2H12.41l-2-2h6.59c.55,0,1-.45,1-1s-.45-1-1-1h-7c-1.65,0-3,1.35-3,3v32c0,1.65,1.35,3,3,3h44c1.65,0,3-1.35,3-3V16c0-1.65-1.35-3-3-3ZM13,19h38v26H13v-26ZM9,47.59v-31.18l2,2v27.18l-2,2ZM10.41,49l2-2h39.18l2,2H10.41ZM55,47.59l-2-2v-27.18l2-2v31.18Z"/>
  <path d="M45,31h-10c-1.2,0-2.27.54-3,1.38-.73-.84-1.8-1.38-3-1.38h-10c-2.21,0-4,1.79-4,4v5c0,1.65,1.35,3,3,3h12c.77,0,1.47-.3,2-.78.53.48,1.23.78,2,.78h12c1.65,0,3-1.35,3-3v-5c0-2.21-1.79-4-4-4ZM31,40c0,.55-.45,1-1,1h-6c-.55,0-1-.45-1-1s.45-1,1-1h4c.55,0,1-.45,1-1v-2c0-.55-.45-1-1-1s-1,.45-1,1v1h-6v-1c0-.55-.45-1-1-1s-1,.45-1,1v2c0,.55.45,1,1,1h1.18c-.11.31-.18.65-.18,1s.07.69.18,1h-3.18c-.55,0-1-.45-1-1v-5c0-1.1.9-2,2-2h10c1.1,0,2,.9,2,2v5ZM47,40c0,.55-.45,1-1,1h-3.18c.11-.31.18-.65.18-1s-.07-.69-.18-1h1.18c.55,0,1-.45,1-1v-2c0-.55-.45-1-1-1s-1,.45-1,1v1h-6v-1c0-.55-.45-1-1-1s-1,.45-1,1v2c0,.55.45,1,1,1h4c.55,0,1,.45,1,1s-.45,1-1,1h-6c-.55,0-1-.45-1-1v-5c0-1.1.9-2,2-2h10c1.1,0,2,.9,2,2v5Z"/>
  <circle cx="21" cy="14" r="1"/>
</svg>