<?xml version="1.0" encoding="UTF-8"?>
<svg id="Outline" xmlns="http://www.w3.org/2000/svg" version="1.1" viewBox="0 0 64 64">
  <!-- Generator: Adobe Illustrator 29.5.1, SVG Export Plug-In . SVG Version: 2.1.0 Build 141)  -->
  <path d="M56,29h-2V12c0-2.76-2.24-5-5-5H15c-2.76,0-5,2.24-5,5v17h-2c-.55,0-1,.45-1,1v6c0,.55.45,1,1,1h1.18l3.84,19.2c.09.46.5.8.98.8h36c.48,0,.89-.34.98-.8l1.2-6c.11-.55-.24-1.07-.78-1.18-.55-.11-1.07.24-1.18.78l-1.04,5.2H14.82l-3.6-18h13.41l4.71,4.04c-.97.09-1.88.49-2.58,1.19-1.64,1.64-1.64,4.31,0,5.95l4.53,4.53c.2.19.45.29.71.29s.51-.1.71-.29l4.53-4.53c1.64-1.64,1.64-4.31,0-5.95-.7-.7-1.61-1.1-2.58-1.19l4.71-4.04h13.41l-1.76,8.8c-.11.55.24,1.07.78,1.18.07.01.14.02.2.02.47,0,.89-.33.98-.8l1.84-9.2h1.18c.55,0,1-.45,1-1v-6c0-.55-.45-1-1-1ZM12,12c0-1.65,1.35-3,3-3h34c1.65,0,3,1.35,3,3v17h-2v-7c0-.55-.45-1-1-1s-1,.45-1,1v7H16V13h32v5c0,.55.45,1,1,1s1-.45,1-1v-6c0-.55-.45-1-1-1H15c-.55,0-1,.45-1,1v17h-2V12ZM9,35v-4h8.63l4.67,4h-13.3ZM35.82,43.65c.86.85.86,2.25,0,3.11l-3.82,3.83-3.82-3.83c-.86-.86-.86-2.26,0-3.11.41-.42.97-.65,1.55-.65.59,0,1.15.23,1.56.65.38.37,1.04.37,1.42,0,.83-.84,2.28-.84,3.11,0ZM32,40.68l-11.3-9.68h22.6l-11.3,9.68ZM55,35h-13.3l4.67-4h8.63v4Z"/>
</svg>