<?xml version="1.0" encoding="UTF-8"?>
<svg id="Outline" xmlns="http://www.w3.org/2000/svg" version="1.1" viewBox="0 0 64 64">
  <!-- Generator: Adobe Illustrator 29.3.1, SVG Export Plug-In . SVG Version: 2.1.0 Build 151)  -->
  <path d="M56,27h-2v-6c0-.23004-.08002-.45001-.21997-.62l-3.78003-4.73004v-3.64996c0-.54999-.45001-1-1-1h-6c-.54999,0-1,.45001-1,1v3.64996l-3.78003,4.73004c-.13995.16998-.21997.38995-.21997.62v6h-3V10c0-1.65002-1.34998-3-3-3s-3,1.34998-3,3v17h-2.28003c.18005-1.29999.28003-2.64001.28003-4,0-8.97003-3.95001-16-9-16s-9,7.02997-9,16c0,1.35999.09998,2.70001.28003,4h-1.28003c-.54999,0-1,.45001-1,1v6c0,.54999.45001,1,1,1h2.19l.53998,2.62c-1.09998.57001-1.98999,1.47998-2.47998,2.63l-.15997.35999c-2.25,5.27002-.93005,11.40002,3.28998,15.27002.82001.75,1.84998,1.12,2.88,1.12.29999,0,.59998-.04004.89001-.10004.13.06.26996.10004.41998.10004h32.85999c.47003,0,.88-.33002.97998-.79999l4.40002-21.20001h2.19c.54999,0,1-.45001,1-1v-6c0-.54999-.45001-1-1-1ZM44,13h4v2h-4v-2ZM40,21.34998l3.47998-4.34998h5.04004l3.47998,4.34998v5.65002h-12v-5.65002ZM31,10c0-.54999.45001-1,1-1s1,.45001,1,1v17h-2V10ZM18,9c3.78998,0,7,6.40997,7,14,0,1.37-.13,2.70996-.33002,4h-13.33997c-.20001-1.29004-.33002-2.63-.33002-4,0-7.59003,3.21002-14,7-14ZM20.40002,54.39996c-.44.41003-1,.61005-1.56.60004h-.03003c-.56-.02002-1.10999-.23999-1.53998-.66003-.39001-.38995-1.02002-.38995-1.41003,0-.85999.86005-2.23999.89001-3.13.06-3.59998-3.28998-4.71997-8.51996-2.79999-13l.16003-.35999c.37-.88,1.10999-1.56,2.01996-1.87.35999-.10999.72003-.16998,1.08002-.16998.87,0,1.71997.33997,2.37.98999l.29999.29999c.39001.39001,1.02002.39001,1.41003,0l.29999-.29999c.90997-.91003,2.22998-1.22003,3.45001-.82001.90997.31,1.64996.98999,2.02997,1.87l.15002.35999c1.91998,4.48004.79999,9.71002-2.79999,13ZM37,55c-3.31,0-6-2.69-6-6s2.69-6,6-6,6,2.69,6,6-2.69,6-6,6ZM47.62,55h-5.34998c1.66998-1.47003,2.72998-3.60999,2.72998-6,0-4.41003-3.59003-8-8-8s-8,3.58997-8,8c0,2.39001,1.06,4.52997,2.72998,6h-9.10999c3.52002-3.88,4.51001-9.51001,2.41998-14.39001l-.15997-.35999c-.59998-1.41003-1.78003-2.48999-3.22998-2.97003-1.77002-.58997-3.67004-.22998-5.08002.92004-1.10999-.90002-2.52002-1.31-3.91998-1.17004l-.42004-2.02997h39.54004l-4.15002,20ZM55,33H9v-4h46v4Z"/>
  <path d="M18,20c-2.85059,0-5,1.28955-5,3s2.14941,3,5,3,5-1.28955,5-3-2.14941-3-5-3ZM18,24c-1.93604,0-3-.75098-3-1s1.06396-1,3-1,3,.75098,3,1-1.06396,1-3,1Z"/>
  <path d="M18,19c2.24316,0,4-1.31787,4-3s-1.75684-3-4-3-4,1.31787-4,3,1.75684,3,4,3ZM18,15c1.2207,0,2,.59229,2,1s-.7793,1-2,1-2-.59229-2-1,.7793-1,2-1Z"/>
</svg>