<?xml version="1.0" encoding="UTF-8"?>
<svg id="Outline" xmlns="http://www.w3.org/2000/svg" version="1.1" viewBox="0 0 64 64">
  <!-- Generator: Adobe Illustrator 29.3.1, SVG Export Plug-In . SVG Version: 2.1.0 Build 151)  -->
  <path d="M48,7H16c-1.65002,0-3,1.34998-3,3v32c0,1.64996,1.34998,3,3,3h7v1c0,1.64996,1.34998,3,3,3h2v7c0,.54999.45001,1,1,1h6c.54999,0,1-.45001,1-1v-7h2c1.65002,0,3-1.35004,3-3v-1h7c1.65002,0,3-1.35004,3-3V10c0-1.65002-1.34998-3-3-3ZM34,55h-4v-6h4v6ZM39,46c0,.54999-.45001,1-1,1h-12c-.54999,0-1-.45001-1-1v-1h14v1ZM49,42c0,.54999-.45001,1-1,1H16c-.54999,0-1-.45001-1-1V10c0-.54999.45001-1,1-1h32c.54999,0,1,.45001,1,1v32Z"/>
  <path d="M46,25h-5.95001l-.65997-2h1.60999c.54999,0,1-.45001,1-1v-4c0-.54999-.45001-1-1-1h-18c-.54999,0-1,.45001-1,1v4c0,.54999.45001,1,1,1h1.60999l-.65997,2h-5.95001c-.54999,0-1,.45001-1,1v4c0,.54999.45001,1,1,1h3.94l-.89001,2.67999c-.09998.31-.04999.64001.14001.89996.19.27002.48999.42004.81.42004h4c.42999,0,.81-.28003.95001-.67999l1.09998-3.32001h1.95001c.54999,0,1-.45001,1-1v-4c0-.53003-.41998-.96002-.95001-.98999l.66998-2.01001h2.56006l.66998,2.01001c-.53003.02997-.95001.45996-.95001.98999v4c0,.54999.45001,1,1,1h1.95001l1.09998,3.32001c.14001.39996.52002.67999.95001.67999h4c.32001,0,.62-.15002.81-.42004.19-.25995.23999-.58997.14001-.89996l-.89001-2.67999h3.94c.54999,0,1-.45001,1-1v-4c0-.54999-.45001-1-1-1ZM25.28003,33h-1.89001l.65997-2h1.89001l-.65997,2ZM29,29h-10v-2h10v2ZM26.06,25l.65997-2h1.89001l-.65997,2h-1.89001ZM24,21v-2h16v2h-16ZM37.94,25h-1.89001l-.65997-2h1.89001l.65997,2ZM38.71997,33l-.65997-2h1.89001l.65997,2h-1.89001ZM45,29h-10v-2h10v2Z"/>
  <circle cx="18" cy="12" r="1"/>
  <circle cx="46" cy="12" r="1"/>
  <circle cx="18" cy="40" r="1"/>
  <circle cx="46" cy="40" r="1"/>
</svg>