<?xml version="1.0" encoding="UTF-8"?>
<svg id="Outline" xmlns="http://www.w3.org/2000/svg" version="1.1" viewBox="0 0 64 64">
  <!-- Generator: Adobe Illustrator 29.3.1, SVG Export Plug-In . SVG Version: 2.1.0 Build 151)  -->
  <path d="M56,32h-12l-1.53998-4h3.53998c1.65002,0,3-1.35004,3-3v-2c0-.54999-.45001-1-1-1h-8.20001l1.92999-6h1.27002c.54999,0,1-.45001,1-1v-4c0-.54999-.45001-1-1-1h-22c-.54999,0-1,.45001-1,1v4c0,.54999.45001,1,1,1h1.27002l1.92999,6h-8.20001c-.54999,0-1,.45001-1,1v2c0,1.64996,1.34998,3,3,3h3.53998l-1.53998,4h-12c-.54999,0-1,.45001-1,1v8c0,.54999.45001,1,1,1h8.15997l-4.08997,10.64001c-.12.31-.08002.64996.10999.92999.17999.26996.48999.42999.82001.42999h38c.33002,0,.64001-.16003.82001-.42999.19-.28003.22998-.62.10999-.92999l-4.08997-10.64001h8.15997c.54999,0,1-.45001,1-1v-8c0-.54999-.45001-1-1-1ZM43.39001,36h-1.85004l-3.07996-8h1.84998l3.08002,8ZM39.39001,36h-14.78003l3.08002-8h8.62l3.08002,8ZM38.5,12h3.5v2h-5l1.5-2ZM39.63,16l-1.92999,6h-11.40002l-1.92999-6h4.13l2.70001,3.59998c.19.25.48999.40002.79999.40002s.60999-.15002.79999-.40002l2.70001-3.59998h4.13ZM36,12l-4,5.32996-4-5.32996h8ZM22,14v-2h3.5l1.5,2h-5ZM18,26c-.54999,0-1-.45001-1-1v-1h30v1c0,.54999-.45001,1-1,1h-28ZM23.69,28h1.84998l-3.07996,8h-1.85004l3.08002-8ZM9,34h10.22998l-.76996,2h-9.46002v-2ZM15.14001,50.22998l3.16998-8.22998h1.84998l-1.63995,4.28998c-1.37.53998-2.33002,1.78003-2.48999,3.25-.33002.19-.63.41998-.89001.69ZM16.28003,52c.22998-.40002.60999-.71002,1.06995-.88.46002-.16003.73004-.64001.65002-1.12,0-.92004.62-1.72003,1.52002-1.94.14996-.04004.31-.06.47998-.06.66998,0,1.28998.33997,1.66998.89996.37.56,1.29004.56,1.66003,0,.38-.56,1-.89996,1.66998-.89996.69,0,1.32001.34998,1.67999.92999.28998.45001.88.59998,1.34003.33997.63995-.35999,1.32001-.35999,1.95996,0,.46002.26001,1.05005.11005,1.34003-.33997.35999-.58002.98999-.92999,1.67999-.92999.54999,0,1.08002.23999,1.45001.64001.23999.25995.58997.37994.92999.31.33997-.07001.62-.30005.75-.63.29999-.80005,1.02997-1.32001,1.87-1.32001s1.59003.53998,1.88,1.34998c.15997.46002.64001.72998,1.12.65002.90002,0,1.67999.60999,1.90997,1.47998.08002.27002.27002.5.52002.63.26001.13.54999.15002.82001.03998.45001-.17999.90997-.19995,1.34998-.06.49005.16003.89001.48999,1.14001.91003h-30.45996ZM20.73999,46.07001l1.57001-4.07001h19.38l2.60999,6.77997c-.64001-.95996-1.66998-1.62-2.83997-1.75-.70001-1.23999-2.02002-2.02997-3.46002-2.02997-1.21002,0-2.34998.57001-3.09998,1.48999-.58002-.32001-1.23004-.48999-1.90002-.48999-1.08002,0-2.09003.42999-2.83002,1.17999-.76001-.23999-1.57996-.23999-2.33997,0-.73999-.75-1.75-1.17999-2.83002-1.17999-.91998,0-1.79999.32001-2.5.88-.51001-.41003-1.10999-.67999-1.76001-.81ZM49.53998,52h-.67999c-.28998-1.16003-1.08997-2.12-2.17999-2.62l-2.83997-7.38h1.84998l3.84998,10ZM55,40H9v-2h46v2ZM55,36h-9.46002l-.76996-2h10.22998v2Z"/>
</svg>