<?xml version="1.0" encoding="UTF-8"?>
<svg id="Outline" xmlns="http://www.w3.org/2000/svg" version="1.1" viewBox="0 0 64 64">
  <!-- Generator: Adobe Illustrator 29.3.1, SVG Export Plug-In . SVG Version: 2.1.0 Build 151)  -->
  <path d="M54.54999,49.31c1.5-1.28003,2.45001-3.19,2.45001-5.31,0-.87-.16998-1.71002-.46002-2.48004l-5.60999-28.85999c-.64001-3.27997-3.52997-5.65997-6.88-5.65997h-24.02997c-3.39001,0-6.29004,2.41998-6.89001,5.76001l-5.53998,30.88q0,.00995-.01001.01996c-.37,1.04999-.58002,2.16998-.58002,3.34003,0,5.51001,4.48999,10,10,10h36c2.21002,0,4-1.79004,4-4,0-1.66003-1.01001-3.08002-2.45001-3.69ZM15.09998,13.12c.43005-2.39001,2.5-4.12,4.92004-4.12h24.02997c2.39001,0,4.46002,1.70001,4.91003,4.04999l.38995,2c-1.16998-.63-2.51996-.98999-3.91998-.98999h-26.78998c-1.38,0-2.72003.34998-3.89001.97998l.34998-1.91998ZM14.23999,17.91998c1.06-1.15997,2.69-1.85999,4.40002-1.85999h26.78998c1.76001,0,3.41998.72998,4.5,1.94l3.91998,20.15997c-1.10999-.72998-2.42999-1.15997-3.84998-1.15997H17c-2.54999,0-4.88.96997-6.65002,2.54999l3.89001-21.63ZM53,55H17c-4.40997,0-8-3.59003-8-8s3.59003-8,8-8h33c2.76001,0,5,2.23999,5,5s-2.23999,5-5,5H17c-1.09998,0-2-.90002-2-2,0-1.10004.90002-2,2-2h34c.54999,0,1-.45001,1-1s-.45001-1-1-1H17c-2.21002,0-4,1.78998-4,4s1.78998,4,4,4h36c1.09998,0,2,.89996,2,2,0,1.09998-.90002,2-2,2Z"/>
</svg>