<?xml version="1.0" encoding="UTF-8"?>
<svg id="Outline" xmlns="http://www.w3.org/2000/svg" version="1.1" viewBox="0 0 64 64">
  <!-- Generator: Adobe Illustrator 29.0.0, SVG Export Plug-In . SVG Version: 2.1.0 Build 186)  -->
  <path d="M30.5,7c-.54999,0-1,.45001-1,1v2.02997c-11.66998.52002-21,10.17004-21,21.97003,0,.54999.45001,1,1,1h3.04999c.22003,4.09998,1.81,7.92999,4.54999,10.98999l-4.27997,4.27002c-.17999.19-.28998.44995-.28998.70996,0,.27002.10999.52002.28998.71002,4.73999,4.71997,11.01001,7.32001,17.67999,7.32001,13.78998,0,25-11.21002,25-25S44.28998,7,30.5,7ZM14.54999,33h13.54004l-9.58002,9.57001c-2.35999-2.67004-3.73999-6.01001-3.96002-9.57001ZM30.5,55c-5.79999,0-11.28003-2.14001-15.53998-6.04999l16.25-16.24005c.08997-.08997.15997-.19995.20996-.32996.04999-.12.08002-.25.08002-.38v-7c0-.54999-.45001-1-1-1s-1,.45001-1,1v6H10.52002c.51001-10.23004,8.75-18.44,18.97998-18.95001v4.95001c0,.54999.45001,1,1,1s1-.45001,1-1v-7.98004c12.21997.53003,22,10.63,22,22.98004,0,12.67999-10.32001,23-23,23Z"/>
  <circle cx="30.5" cy="21" r="1"/>
</svg>