<?xml version="1.0" encoding="UTF-8"?>
<svg id="Outline" xmlns="http://www.w3.org/2000/svg" version="1.1" viewBox="0 0 64 64">
  <!-- Generator: Adobe Illustrator 29.5.1, SVG Export Plug-In . SVG Version: 2.1.0 Build 141)  -->
  <path d="M52.967,12.744c-.116-.438-.514-.743-.967-.743h-3.366c-3.078,0-6.106.677-8.885,1.952.537-1.373,1.35-2.635,2.424-3.709l1.535-1.535c.312-.312.383-.79.175-1.179s-.644-.599-1.078-.509l-4.035.807c-1.365.273-2.624.838-3.722,1.616-1.157-1.359-2.424-2.229-2.488-2.271-.338-.229-.779-.229-1.117,0-.064.043-1.33.912-2.488,2.271-1.098-.778-2.358-1.343-3.722-1.616l-4.035-.807c-.435-.091-.87.12-1.078.509s-.137.867.175,1.179l1.535,1.535c1.073,1.074,1.886,2.336,2.423,3.708-2.778-1.274-5.804-1.95-8.881-1.95h-3.37c-.453,0-.85.305-.967.742-.116.438.076.9.47,1.125l1.571.901c.759.434,1.446.907,2.043,1.407.425.355,1.056.302,1.408-.123.355-.423.3-1.054-.123-1.408-.262-.22-.538-.435-.826-.644,3.277.034,6.486.911,9.328,2.528.034.27.055.542.069.817-1.359.947-2.614,2.146-3.742,3.532-.513-1.12-1.133-2.193-1.878-3.195-.33-.442-.956-.536-1.399-.206-.443.329-.535.956-.206,1.399.887,1.193,1.584,2.497,2.098,3.884-3.03,4.583-4.845,10.578-4.845,16.239,0,10.767,6.832,18,17,18,9.898,0,16.563-6.657,16.979-16.96.022-.552-.407-1.017-.959-1.039-.559-.055-1.017.407-1.039.959-.369,9.137-6.25,15.04-14.981,15.04-9.112,0-15-6.28-15-16,0-10.174,6.553-22,15-22,7.597,0,13.805,9.882,14.836,19.111.062.549.555.94,1.105.883.549-.062.943-.557.883-1.105-.51-4.559-2.181-9.279-4.689-13.078,1.25-3.395,3.638-6.244,6.788-8.044l1.572-.898c.394-.225.587-.687.471-1.125ZM39.161,9.788l.873-.175c-1.604,1.89-2.6,4.177-2.915,6.623-1.223-.602-2.515-1.001-3.864-1.156.856-2.666,3.112-4.733,5.906-5.292ZM32.001,9.255c.413.335.995.854,1.54,1.499-.606.647-1.126,1.374-1.541,2.164-.415-.79-.935-1.516-1.541-2.163.544-.642,1.128-1.162,1.542-1.499ZM24.839,9.788c2.794.559,5.05,2.626,5.906,5.292-1.346.153-2.64.541-3.866,1.137-.318-2.439-1.313-4.719-2.913-6.604l.873.175ZM42.756,20.917c-1.123-1.388-2.374-2.593-3.73-3.549.014-.282.035-.561.07-.839,2.843-1.615,6.049-2.492,9.323-2.528-2.456,1.763-4.397,4.142-5.663,6.915Z"/>
  <path d="M26.707,28.294c-.391-.391-1.023-.391-1.414,0l-1.293,1.293-1.293-1.293c-.391-.391-1.023-.391-1.414,0s-.391,1.023,0,1.414l2,2c.195.195.451.293.707.293s.512-.098.707-.293l2-2c.391-.391.391-1.023,0-1.414Z"/>
  <path d="M42.707,28.294c-.391-.391-1.023-.391-1.414,0l-1.293,1.293-1.293-1.293c-.391-.391-1.023-.391-1.414,0s-.391,1.023,0,1.414l2,2c.195.195.451.293.707.293s.512-.098.707-.293l2-2c.391-.391.391-1.023,0-1.414Z"/>
  <path d="M34.707,22.294c-.391-.391-1.023-.391-1.414,0l-1.293,1.293-1.293-1.293c-.391-.391-1.023-.391-1.414,0s-.391,1.023,0,1.414l2,2c.195.195.451.293.707.293s.512-.098.707-.293l2-2c.391-.391.391-1.023,0-1.414Z"/>
  <path d="M34.707,28.294c-.391-.391-1.023-.391-1.414,0l-1.293,1.293-1.293-1.293c-.391-.391-1.023-.391-1.414,0s-.391,1.023,0,1.414l2,2c.195.195.451.293.707.293s.512-.098.707-.293l2-2c.391-.391.391-1.023,0-1.414Z"/>
  <path d="M26.707,34.294c-.391-.391-1.023-.391-1.414,0l-1.293,1.293-1.293-1.293c-.391-.391-1.023-.391-1.414,0s-.391,1.023,0,1.414l2,2c.195.195.451.293.707.293s.512-.098.707-.293l2-2c.391-.391.391-1.023,0-1.414Z"/>
  <path d="M42.707,34.294c-.391-.391-1.023-.391-1.414,0l-1.293,1.293-1.293-1.293c-.391-.391-1.023-.391-1.414,0s-.391,1.023,0,1.414l2,2c.195.195.451.293.707.293s.512-.098.707-.293l2-2c.391-.391.391-1.023,0-1.414Z"/>
  <path d="M34.707,34.294c-.391-.391-1.023-.391-1.414,0l-1.293,1.293-1.293-1.293c-.391-.391-1.023-.391-1.414,0s-.391,1.023,0,1.414l2,2c.195.195.451.293.707.293s.512-.098.707-.293l2-2c.391-.391.391-1.023,0-1.414Z"/>
  <path d="M26.707,40.294c-.391-.391-1.023-.391-1.414,0l-1.293,1.293-1.293-1.293c-.391-.391-1.023-.391-1.414,0s-.391,1.023,0,1.414l2,2c.195.195.451.293.707.293s.512-.098.707-.293l2-2c.391-.391.391-1.023,0-1.414Z"/>
  <path d="M42.707,40.294c-.391-.391-1.023-.391-1.414,0l-1.293,1.293-1.293-1.293c-.391-.391-1.023-.391-1.414,0s-.391,1.023,0,1.414l2,2c.195.195.451.293.707.293s.512-.098.707-.293l2-2c.391-.391.391-1.023,0-1.414Z"/>
  <path d="M34.707,40.294c-.391-.391-1.023-.391-1.414,0l-1.293,1.293-1.293-1.293c-.391-.391-1.023-.391-1.414,0s-.391,1.023,0,1.414l2,2c.195.195.451.293.707.293s.512-.098.707-.293l2-2c.391-.391.391-1.023,0-1.414Z"/>
  <path d="M25.293,46.294l-1.293,1.293-1.293-1.293c-.391-.391-1.023-.391-1.414,0s-.391,1.023,0,1.414l2,2c.195.195.451.293.707.293s.512-.098.707-.293l2-2c.391-.391.391-1.023,0-1.414s-1.023-.391-1.414,0Z"/>
  <path d="M41.293,46.294l-1.293,1.293-1.293-1.293c-.391-.391-1.023-.391-1.414,0s-.391,1.023,0,1.414l2,2c.195.195.451.293.707.293s.512-.098.707-.293l2-2c.391-.391.391-1.023,0-1.414s-1.023-.391-1.414,0Z"/>
  <path d="M33.293,46.294l-1.293,1.293-1.293-1.293c-.391-.391-1.023-.391-1.414,0s-.391,1.023,0,1.414l2,2c.195.195.451.293.707.293s.512-.098.707-.293l2-2c.391-.391.391-1.023,0-1.414s-1.023-.391-1.414,0Z"/>
</svg>