<?xml version="1.0" encoding="UTF-8"?>
<svg id="Outline" xmlns="http://www.w3.org/2000/svg" version="1.1" viewBox="0 0 64 64">
  <!-- Generator: Adobe Illustrator 29.5.1, SVG Export Plug-In . SVG Version: 2.1.0 Build 141)  -->
  <path d="M48.875,39.002c-.554-.088-1.058.287-1.143.833-1.379,8.787-7.996,15.165-15.732,15.165-8.822,0-16-8.299-16-18.5s7.178-18.5,16-18.5c7.977,0,14.057,6.819,15.57,14.23.11.541.635.888,1.18.78.541-.111.89-.639.78-1.18-1.07-5.241-3.818-9.594-7.516-12.399.072-2.982.696-5.883,1.874-8.632l1.03-2.404c.153-.357.085-.77-.173-1.06-.259-.29-.663-.403-1.033-.292l-3.943,1.183c-1.492.448-2.868,1.157-4.086,2.066-.397-1.07-1.151-1.993-2.169-2.576l-1.018-.583c-.308-.176-.686-.176-.993,0l-1.019.583c-1.018.583-1.772,1.506-2.168,2.576-1.218-.909-2.594-1.618-4.087-2.066l-3.942-1.183c-.372-.111-.774.002-1.033.292-.258.29-.326.703-.173,1.06l1.03,2.404c1.184,2.763,1.809,5.68,1.876,8.677-4.813,3.683-7.987,9.939-7.987,17.025,0,11.304,8.075,20.5,18,20.5,8.728,0,16.175-7.088,17.708-16.854.086-.546-.287-1.058-.833-1.143ZM40.345,10.141l1.894-.568-.188.438c-1.119,2.61-1.777,5.348-1.978,8.159-2.028-1.152-4.263-1.888-6.623-2.1,1.346-2.843,3.845-5.014,6.895-5.929ZM31.479,9.451l.521-.298.521.298c.862.494,1.398,1.397,1.456,2.381-.771.818-1.434,1.734-1.977,2.731-.543-.997-1.207-1.912-1.977-2.73.058-.984.594-1.887,1.456-2.38ZM21.949,10.01l-.188-.438,1.893.568c3.055.916,5.556,3.094,6.901,5.943-2.368.216-4.603.957-6.626,2.119-.198-2.822-.857-5.571-1.98-8.192Z"/>
  <path d="M41.707,40.293c-.391-.391-1.023-.391-1.414,0l-2.293,2.293-2.293-2.293c-.391-.391-1.023-.391-1.414,0l-2.293,2.293-2.293-2.293c-.391-.391-1.023-.391-1.414,0l-2.293,2.293-2.293-2.293c-.391-.391-1.023-.391-1.414,0l-3,3c-.391.391-.391,1.023,0,1.414s1.023.391,1.414,0l2.293-2.293,2.293,2.293c.391.391,1.023.391,1.414,0l2.293-2.293,2.293,2.293c.391.391,1.023.391,1.414,0l2.293-2.293,2.293,2.293c.391.391,1.023.391,1.414,0l2.293-2.293,2.293,2.293c.195.195.451.293.707.293.876,0,1.327-1.088.708-1.707l-3-3Z"/>
  <path d="M44.707,37.293l-3-3c-.391-.391-1.023-.391-1.414,0l-2.293,2.293-2.293-2.293c-.391-.391-1.023-.391-1.414,0l-2.293,2.293-2.293-2.293c-.391-.391-1.023-.391-1.414,0l-2.293,2.293-2.293-2.293c-.391-.391-1.023-.391-1.414,0l-3,3c-.391.391-.391,1.023,0,1.414s1.023.391,1.414,0l2.293-2.293,2.293,2.293c.391.391,1.023.391,1.414,0l2.293-2.293,2.293,2.293c.391.391,1.023.391,1.414,0l2.293-2.293,2.293,2.293c.391.391,1.023.391,1.414,0l2.293-2.293,2.293,2.293c.195.195.451.293.707.293.875,0,1.328-1.086.707-1.707Z"/>
  <path d="M44.707,31.293l-3-3c-.391-.391-1.023-.391-1.414,0l-2.293,2.293-2.293-2.293c-.391-.391-1.023-.391-1.414,0l-2.293,2.293-2.293-2.293c-.391-.391-1.023-.391-1.414,0l-2.293,2.293-2.293-2.293c-.391-.391-1.023-.391-1.414,0l-3,3c-.391.391-.391,1.023,0,1.414s1.023.391,1.414,0l2.293-2.293,2.293,2.293c.391.391,1.023.391,1.414,0l2.293-2.293,2.293,2.293c.391.391,1.023.391,1.414,0l2.293-2.293,2.293,2.293c.391.391,1.023.391,1.414,0l2.293-2.293,2.293,2.293c.195.195.451.293.706.293.863,0,1.319-1.096.708-1.707Z"/>
  <circle cx="49" cy="36" r="1"/>
</svg>