<?xml version="1.0" encoding="UTF-8"?>
<svg id="Outline" xmlns="http://www.w3.org/2000/svg" version="1.1" viewBox="0 0 64 64">
  <!-- Generator: Adobe Illustrator 29.5.1, SVG Export Plug-In . SVG Version: 2.1.0 Build 141)  -->
  <path d="M18,31h-4c-.553,0-1,.447-1,1v4c0,.553.447,1,1,1h4c.553,0,1-.447,1-1v-4c0-.553-.447-1-1-1ZM17,35h-2v-2h2v2Z"/>
  <path d="M26,31h-4c-.553,0-1,.447-1,1v4c0,.553.447,1,1,1h4c.553,0,1-.447,1-1v-4c0-.553-.447-1-1-1ZM25,35h-2v-2h2v2Z"/>
  <path d="M34,31h-4c-.553,0-1,.447-1,1v4c0,.553.447,1,1,1h4c.553,0,1-.447,1-1v-4c0-.553-.447-1-1-1ZM33,35h-2v-2h2v2Z"/>
  <path d="M18,39h-4c-.553,0-1,.447-1,1v4c0,.553.447,1,1,1h4c.553,0,1-.447,1-1v-4c0-.553-.447-1-1-1ZM17,43h-2v-2h2v2Z"/>
  <path d="M26,39h-4c-.553,0-1,.447-1,1v4c0,.553.447,1,1,1h4c.553,0,1-.447,1-1v-4c0-.553-.447-1-1-1ZM25,43h-2v-2h2v2Z"/>
  <path d="M34,39h-4c-.553,0-1,.447-1,1v4c0,.553.447,1,1,1h4c.553,0,1-.447,1-1v-4c0-.553-.447-1-1-1ZM33,43h-2v-2h2v2Z"/>
  <path d="M18,47h-4c-.553,0-1,.447-1,1v4c0,.553.447,1,1,1h4c.553,0,1-.447,1-1v-4c0-.553-.447-1-1-1ZM17,51h-2v-2h2v2Z"/>
  <path d="M26,47h-4c-.553,0-1,.447-1,1v4c0,.553.447,1,1,1h4c.553,0,1-.447,1-1v-4c0-.553-.447-1-1-1ZM25,51h-2v-2h2v2Z"/>
  <path d="M34,47h-4c-.553,0-1,.447-1,1v4c0,.553.447,1,1,1h4c.553,0,1-.447,1-1v-4c0-.553-.447-1-1-1ZM33,51h-2v-2h2v2Z"/>
  <path d="M36,11H12c-1.654,0-3,1.346-3,3v40c0,1.654,1.346,3,3,3h24c1.654,0,3-1.346,3-3V14c0-1.654-1.346-3-3-3ZM37,54c0,.552-.448,1-1,1H12c-.552,0-1-.448-1-1V14c0-.552.448-1,1-1h24c.552,0,1,.448,1,1v40Z"/>
  <path d="M34,15H14c-.553,0-1,.447-1,1v12c0,.553.447,1,1,1h20c.553,0,1-.447,1-1v-12c0-.553-.447-1-1-1ZM33,27H15v-10h18v10Z"/>
  <path d="M17.401,23.5c.186.32.521.5.867.5.17,0,.342-.043.499-.134l.232-.134v.268c0,.553.447,1,1,1s1-.447,1-1v-.268l.232.134c.157.091.329.134.499.134.346,0,.682-.18.867-.5.276-.479.112-1.09-.366-1.366l-.232-.134.232-.134c.479-.276.643-.888.366-1.366-.277-.479-.89-.642-1.366-.366l-.232.134v-.268c0-.553-.447-1-1-1s-1,.447-1,1v.268l-.232-.134c-.478-.275-1.09-.112-1.366.366s-.112,1.09.366,1.366l.232.134-.232.134c-.479.276-.643.888-.366,1.366Z"/>
  <path d="M25.401,23.5c.186.32.521.5.867.5.17,0,.342-.043.499-.134l.232-.134v.268c0,.553.447,1,1,1s1-.447,1-1v-.268l.232.134c.452.261,1.091.109,1.366-.366.276-.479.112-1.09-.366-1.366l-.232-.134.232-.134c.479-.276.643-.888.366-1.366-.277-.479-.891-.642-1.366-.366l-.232.134v-.268c0-.553-.447-1-1-1s-1,.447-1,1v.268l-.232-.134c-.478-.275-1.091-.112-1.366.366-.276.479-.112,1.09.366,1.366l.232.134-.232.134c-.479.276-.643.888-.366,1.366Z"/>
  <path d="M53,13.184v-1.184c0-2.757-2.243-5-5-5s-5,2.243-5,5v1.184c-1.161.414-2,1.514-2,2.816v8c0,1.654,1.346,3,3,3h8c1.654,0,3-1.346,3-3v-8c0-1.302-.839-2.402-2-2.816ZM48,9c1.654,0,3,1.346,3,3v1h-6v-1c0-1.654,1.346-3,3-3ZM53,24c0,.552-.448,1-1,1h-8c-.552,0-1-.448-1-1v-8c0-.552.448-1,1-1h8c.552,0,1,.448,1,1v8Z"/>
  <path d="M48,17c-1.654,0-3,1.346-3,3s1.346,3,3,3,3-1.346,3-3-1.346-3-3-3ZM48,21c-.552,0-1-.448-1-1s.448-1,1-1,1,.448,1,1-.448,1-1,1Z"/>
</svg>