<?xml version="1.0" encoding="UTF-8"?>
<svg id="Outline" xmlns="http://www.w3.org/2000/svg" version="1.1" viewBox="0 0 64 64">
  <!-- Generator: Adobe Illustrator 29.5.1, SVG Export Plug-In . SVG Version: 2.1.0 Build 141)  -->
  <path d="M33,13h-2c-.553,0-1,.447-1,1s.447,1,1,1h2c.553,0,1-.447,1-1s-.447-1-1-1Z"/>
  <path d="M33,17h-2c-.553,0-1,.447-1,1s.447,1,1,1h2c.553,0,1-.447,1-1s-.447-1-1-1Z"/>
  <path d="M32,9c-3.859,0-7,3.141-7,7,0,3.519,2.614,6.432,6,6.92v2.666l-.293-.293c-.391-.391-1.023-.391-1.414,0s-.391,1.023,0,1.414l2,2c.195.195.451.293.707.293s.512-.098.707-.293l2-2c.391-.391.391-1.023,0-1.414s-1.023-.391-1.414,0l-.293.293v-2.666c3.386-.488,6-3.401,6-6.92,0-3.859-3.141-7-7-7ZM32,21c-2.757,0-5-2.243-5-5s2.243-5,5-5,5,2.243,5,5-2.243,5-5,5Z"/>
  <path d="M15,13h-2c-.553,0-1,.447-1,1s.447,1,1,1h2c.553,0,1-.447,1-1s-.447-1-1-1Z"/>
  <path d="M15,17h-2c-.553,0-1,.447-1,1s.447,1,1,1h2c.553,0,1-.447,1-1s-.447-1-1-1Z"/>
  <path d="M14,9c-3.859,0-7,3.141-7,7,0,3.519,2.614,6.432,6,6.92v2.666l-.293-.293c-.391-.391-1.023-.391-1.414,0s-.391,1.023,0,1.414l2,2c.195.195.451.293.707.293s.512-.098.707-.293l2-2c.391-.391.391-1.023,0-1.414s-1.023-.391-1.414,0l-.293.293v-2.666c3.386-.488,6-3.401,6-6.92,0-3.859-3.141-7-7-7ZM14,21c-2.757,0-5-2.243-5-5s2.243-5,5-5,5,2.243,5,5-2.243,5-5,5Z"/>
  <path d="M49,15h2c.553,0,1-.447,1-1s-.447-1-1-1h-2c-.553,0-1,.447-1,1s.447,1,1,1Z"/>
  <path d="M49,19h2c.553,0,1-.447,1-1s-.447-1-1-1h-2c-.553,0-1,.447-1,1s.447,1,1,1Z"/>
  <path d="M49,22.92v2.666l-.293-.293c-.391-.391-1.023-.391-1.414,0s-.391,1.023,0,1.414l2,2c.195.195.451.293.707.293s.512-.098.707-.293l2-2c.391-.391.391-1.023,0-1.414s-1.023-.391-1.414,0l-.293.293v-2.666c3.386-.488,6-3.401,6-6.92,0-3.859-3.141-7-7-7s-7,3.141-7,7c0,3.519,2.614,6.432,6,6.92ZM50,11c2.757,0,5,2.243,5,5s-2.243,5-5,5-5-2.243-5-5,2.243-5,5-5Z"/>
  <path d="M18,31h-8c-1.654,0-3,1.346-3,3v18c0,1.654,1.346,3,3,3h8c1.654,0,3-1.346,3-3v-18c0-1.654-1.346-3-3-3ZM19,52c0,.552-.448,1-1,1h-8c-.552,0-1-.448-1-1v-18c0-.552.448-1,1-1h8c.552,0,1,.448,1,1v18Z"/>
  <path d="M36,31h-8c-1.654,0-3,1.346-3,3v18c0,1.654,1.346,3,3,3h8c1.654,0,3-1.346,3-3v-18c0-1.654-1.346-3-3-3ZM37,52c0,.552-.448,1-1,1h-8c-.552,0-1-.448-1-1v-18c0-.552.448-1,1-1h8c.552,0,1,.448,1,1v18Z"/>
  <path d="M14.707,40.293c-.391-.391-1.023-.391-1.414,0s-.391,1.023,0,1.414l.293.293h-1.586c-.553,0-1,.447-1,1s.447,1,1,1h1.586l-.293.293c-.391.391-.391,1.023,0,1.414.361.362,1.027.387,1.414,0l2-2c.391-.391.391-1.023,0-1.414l-2-2Z"/>
  <path d="M32.707,40.293c-.391-.391-1.023-.391-1.414,0s-.391,1.023,0,1.414l.293.293h-1.586c-.553,0-1,.447-1,1s.447,1,1,1h1.586l-.293.293c-.391.391-.391,1.023,0,1.414.388.388,1.026.388,1.414,0l2-2c.391-.391.391-1.023,0-1.414l-2-2Z"/>
  <path d="M54,31h-8c-1.654,0-3,1.346-3,3v18c0,1.654,1.346,3,3,3h8c1.654,0,3-1.346,3-3v-18c0-1.654-1.346-3-3-3ZM55,52c0,.552-.448,1-1,1h-8c-.552,0-1-.448-1-1v-18c0-.552.448-1,1-1h8c.552,0,1,.448,1,1v18Z"/>
  <path d="M50.707,40.293c-.391-.391-1.023-.391-1.414,0s-.391,1.023,0,1.414l.293.293h-1.586c-.553,0-1,.447-1,1s.447,1,1,1h1.586l-.293.293c-.391.391-.391,1.023,0,1.414.369.369,1.015.399,1.414,0l2-2c.391-.391.391-1.023,0-1.414l-2-2Z"/>
</svg>