<?xml version="1.0" encoding="UTF-8"?>
<svg id="Outline" xmlns="http://www.w3.org/2000/svg" version="1.1" viewBox="0 0 64 64">
  <!-- Generator: Adobe Illustrator 29.5.1, SVG Export Plug-In . SVG Version: 2.1.0 Build 141)  -->
  <path d="M56.79,31.879c-.24-.29-.61-.44-.99-.36l-2.16.43c-.96.19-1.91.21-2.83.08.79-.65,1.52-1.39,2.16-2.22.19-.25.26-.57.18-.87l-.65-2.44,1.51.22c.45.07.9-.19,1.07-.63,2.2-5.68-.2-9.92-.31-10.09-.19-.33-.56-.52-.93-.5-.27.02-6.59.53-10.14,6.66-.35.61-.64,1.24-.89,1.89-.96-1.3-2.21-2.36-3.68-3.1l-.68-.34c-.25-.13-.55-.15-.81-.04-.26.1-.47.3-.57.56l-.51,1.29c-.75,1.87-2.54,3.08-4.56,3.08-.99,0-1.94-.29-2.76-.85-.81-.55-1.44-1.32-1.8-2.23l-.51-1.29c-.1-.26-.31-.46-.57-.56-.26-.11-.56-.09-.81.04l-.68.34c-2.37,1.19-4.17,3.21-5.08,5.7-1.38,3.77-5.41,6.09-9.43,5.3l-2.16-.43c-.38-.08-.75.07-.99.36-.23.3-.28.7-.12,1.04l7,15c.2.43.67.66,1.13.56.45-.1.78-.51.78-.98,0-2.63,5.21-5.13,12.11-5.81.55-.06.95-.55.89-1.1-.05-.55-.55-.94-1.09-.89-6.35.63-11.12,2.6-13.01,5.22l-5.16-11.05.23.04c.67.13,1.35.2,2.02.2,4.31,0,8.2-2.72,9.68-6.78.7-1.9,2.04-3.47,3.8-4.44l.11.27c.52,1.29,1.4,2.38,2.54,3.15,1.15.78,2.49,1.19,3.88,1.19,2.84,0,5.36-1.7,6.42-4.34l.11-.27c1.76.98,3.1,2.54,3.8,4.44,1.75,4.82,6.67,7.59,11.71,6.58l.22-.04-5.16,11.05c-1.89-2.62-6.66-4.59-13.01-5.22-.54-.05-1.04.34-1.09.89-.06.55.34,1.04.89,1.1,6.9.68,12.11,3.18,12.11,5.81,0,.47.33.88.781.98.469.059.917-.11,1.129-.56l7-15c.16-.34.11-.74-.12-1.04ZM48.4,31.289c-.49-.23-.96-.52-1.4-.85l1.87-3.21c.27-.48.11-1.09-.37-1.37s-1.09-.11-1.37.36l-1.6,2.78c-.55-.69-1-1.48-1.32-2.35-.02-.05-.04-.08-.05-.13.24-1.17.67-2.3,1.28-3.36,2.41-4.17,6.33-5.28,7.88-5.57.46,1.12,1.21,3.71.16,7.03l-2.2-.32c-.33-.05-.66.07-.89.32-.22.26-.3.6-.22.93l.91,3.42c-.77.93-1.67,1.7-2.68,2.32Z"/>
  <path d="M35.698,37.197c.349-.37.418-.996.009-1.405l-2.293-2.293,2.293-2.293c.391-.391.391-1.023,0-1.414s-1.023-.391-1.414,0l-2.293,2.293-2.293-2.293c-.391-.391-1.023-.391-1.414,0s-.391,1.023,0,1.414l2.293,2.293-2.293,2.293c-.901.901.501,2.328,1.414,1.414l2.293-2.293s2.293,2.293,2.293,2.293c.387.387,1.026.391,1.405-.009Z"/>
  <circle cx="32" cy="40.499" r="1"/>
</svg>