<?xml version="1.0" encoding="UTF-8"?>
<svg id="Outline" xmlns="http://www.w3.org/2000/svg" version="1.1" viewBox="0 0 64 64">
  <!-- Generator: Adobe Illustrator 29.5.1, SVG Export Plug-In . SVG Version: 2.1.0 Build 141)  -->
  <path d="M57,35c0-13.78516-11.21484-25-25-25h-4c-2.20605,0-4,1.79443-4,4,0,1.11749.46295,2.12671,1.20435,2.85321L7.20605,40.39258l.00635.00482c-.12952.16931-.2124.37585-.2124.6026v3.56006c0,.90283.39746,1.74854,1.09082,2.32031.54688.45117,1.22461.68945,1.90723.68945.18457,0,.36914-.01758.55176-.05322l7.4502-1.2113v.6947c0,1.6543,1.3457,3,3,3s3-1.3457,3-3v-1.76764l7-1.29083v6.05847c0,1.6543,1.3457,3,3,3s3-1.3457,3-3v-1c0-.55127.44824-1,1-1s1,.44873,1,1v2c0,1.6543,1.3457,3,3,3s3-1.3457,3-3v-9.63794l8.24707-1.52319c2.22253-.56696,3.71826-2.55304,3.74426-4.79584.00067-.01508.00867-.02777.00867-.04303ZM28,12h4c11.23706,0,20.61096,8.10199,22.60333,18.76953-.19733-.11816-.40271-.22644-.61896-.31934-1.17749-.50629-2.45074-.5481-3.60187-.16193-2.12292-8.35046-9.64795-14.28827-18.38251-14.28827h-4c-1.10254,0-2-.89697-2-2s.89746-2,2-2ZM28,18h4c.30133,0,.59735.02411.89532.03973-.49078,2.8075-2.95685,4.96027-5.89532,4.96027-1.17267,0-2.27234-.34412-3.23676-.9704l3.19867-4.18347c.33313.09021.67676.15387,1.03809.15387ZM23,28c0,2.20557-1.79395,4-4,4-.83759,0-1.61743-.26404-2.29382-.74072l4.84265-6.33356c.91559.75385,1.45117,1.86102,1.45117,3.07428ZM10.19922,45.54785c-.30371.05762-.60449-.01953-.83594-.21045-.13574-.11182-.36328-.36182-.36328-.77734v-2.70215l9-1.38269v3.80438l-7.80078,1.26825ZM24,43.19861v-3.71332l7-1.18225v3.60474l-7,1.29083ZM43,51c0,.55127-.44824,1-1,1s-1-.44873-1-1v-2c0-1.6543-1.3457-3-3-3s-3,1.3457-3,3v1c0,.55127-.44824,1-1,1s-1-.44873-1-1v-14c0-1.6543-1.3457-3-3-3h-1c-.55273,0-1,.44775-1,1s.44727,1,1,1h1c.55176,0,1,.44873,1,1v.27496l-7,1.18225v-.45721c0-.55127.44824-1,1-1,.55273,0,1-.44775,1-1s-.44727-1-1-1c-1.6543,0-3,1.3457-3,3v10c0,.55127-.44824,1-1,1s-1-.44873-1-1v-9c0-1.6543-1.3457-3-3-3-.55273,0-1,.44775-1,1s.44727,1,1,1c.55176,0,1,.44873,1,1v.45215l-7.69775,1.18262,5.19446-6.79364c1.02325.73718,2.23883,1.15887,3.5033,1.15887,3.30859,0,6-2.69141,6-6,0-1.36298-.47668-2.6665-1.3009-3.71173,1.02429.46698,2.13806.71173,3.3009.71173,3.96545,0,7.28522-2.94006,7.88525-6.75,6.73981,1.15558,12.21332,6.29395,13.69543,13.11835-.63721.59686-1.11267,1.34595-1.36194,2.17706l-2.20154.36969c.04528-.50964.46118-.9151.98279-.9151.55273,0,1-.44775,1-1s-.44727-1-1-1c-1.6543,0-3,1.3457-3,3v17ZM52.81836,37.88672l-7.81836,1.44177v-3.38214l3.21582-.5401c.43164-.07275.76562-.41797.8252-.85205.1084-.79883.55371-1.52588,1.22363-1.99561.84766-.59424,1.94141-.69629,2.93066-.27051.96387.41357,1.62793,1.25488,1.77539,2.24658.22461,1.53906-.72852,2.98633-2.15234,3.35205Z"/>
  <path d="M38,22c-3.30859,0-6,2.69141-6,6s2.69141,6,6,6,6-2.69141,6-6-2.69141-6-6-6ZM38,32c-2.20605,0-4-1.79443-4-4s1.79395-4,4-4,4,1.79443,4,4-1.79395,4-4,4Z"/>
</svg>