<?xml version="1.0" encoding="UTF-8"?>
<svg id="Outline" xmlns="http://www.w3.org/2000/svg" version="1.1" viewBox="0 0 64 64">
  <!-- Generator: Adobe Illustrator 29.3.1, SVG Export Plug-In . SVG Version: 2.1.0 Build 151)  -->
  <path d="M27.5,34.95898c0,.96631.66406,1.80615,1.58008,1.99756.13965.0293.28027.04346.41992.04346.46289,0,.91211-.15869,1.27441-.4585.33008-.27344.55957-.63721.66308-1.0415h.56251c1.10254,0,2-.89697,2-2v-1.33936l5.69513-1.9931c.44458.39874.99822.68493,1.62028.78851.98577.16414,2.04237-.16396,2.76466-.89502.72754-.73633,1.05273-1.78662.86914-2.80957-1.45215-8.0874-8.11426-14.74902-16.20117-16.2002-1.02539-.18457-2.07227.14209-2.80957.86865-.74023.73145-1.06543,1.73926-.89453,2.76562.13196.79309.55615,1.47876,1.1438,1.95917l-7.12427,19.00421c-.13574.36328-.0498.77295.22168,1.05029.27051.27686.67871.37207,1.04492.24463l7.16992-2.50879v.52393ZM27.34473,13.34277c.22559-.22314.51953-.34277.83105-.34277.07227,0,.14551.00684.21875.02002,7.16499,1.28515,13.29973,7.41936,14.58591,14.58434.14183.79008-.54195,1.50509-1.33689,1.37904-.52344-.0874-.92871-.49121-.98633-.98242-.77734-6.67578-5.9834-11.88086-12.6582-12.65771-.49121-.05713-.89551-.46289-.98242-.98682-.0625-.37646.05664-.74561.32812-1.01367ZM26,28c0,1.10303-.89746,2-2,2-.21985,0-.43665-.03815-.64227-.10748l1.39966-3.73358c.73132.29572,1.24261,1.0047,1.24261,1.84106ZM26.83984,32.54736l-5.15332,1.80322.96893-2.58459c.42908.15271.88403.23401,1.34454.23401,2.20605,0,4-1.79443,4-4,0-1.69519-1.0498-3.12701-2.54309-3.70715l2.59332-6.91772c5.52649.77704,9.9726,5.29352,10.62067,10.85681.00647.05597.02374.10852.03326.16357l-5.36432,1.87695c-.80078.28027-1.33984,1.03906-1.33984,1.88818v1.33936h-.9873c-.40918,0-.80762.1665-1.09277.45752-.26562.27002-.41309.62061-.41992.95508v-.47754c0-.64697-.31543-1.25684-.84277-1.63135-.52637-.37451-1.20801-.4707-1.81738-.25635Z"/>
  <path d="M56.96997,39.85999c0-.03003.01001-.07001,0-.09998L48.96997,7.76001c-.10999-.45001-.50995-.76001-.96997-.76001H16c-.46002,0-.85999.31-.96997.76001L7.03003,39.76001c-.01001.02997,0,.06995,0,.09998-.01001.04999-.03003.09003-.03003.14001v14c0,1.64996,1.34998,3,3,3h30c.54999,0,1-.45001,1-1s-.45001-1-1-1H10c-.54999,0-1-.45001-1-1v-5h11.59003l3.69995,3.70996c.19.18005.44.29004.71002.29004h14c.27002,0,.52002-.10999.71002-.29004l3.69995-3.70996h11.59003v5c0,.54999-.45001,1-1,1h-6c-.54999,0-1,.45001-1,1s.45001,1,1,1h6c1.65002,0,3-1.35004,3-3v-14c0-.04999-.02002-.09003-.03003-.14001ZM16.78003,9h30.43994l7.5,30H9.28003l7.5-30ZM40.59003,41l-2,2h-13.18005l-2-2h17.18005ZM38.59003,51h-13.18005l-2-2h17.18005l-2,2ZM55,47H9v-6h11.59003l3.69995,3.70996c.19.18005.44.29004.71002.29004h14c.27002,0,.52002-.10999.71002-.29004l3.69995-3.70996h11.59003v6Z"/>
  <path d="M31,27c1.6543,0,3-1.3457,3-3s-1.3457-3-3-3-3,1.3457-3,3,1.3457,3,3,3ZM31,23c.55176,0,1,.44873,1,1s-.44824,1-1,1-1-.44873-1-1,.44824-1,1-1Z"/>
  <circle cx="44" cy="56" r="1"/>
</svg>