<?xml version="1.0" encoding="UTF-8"?>
<svg id="Outline" xmlns="http://www.w3.org/2000/svg" version="1.1" viewBox="0 0 48 48">
  <!-- Generator: Adobe Illustrator 29.0.0, SVG Export Plug-In . SVG Version: 2.1.0 Build 186)  -->
  <path d="M42.90381,7.56763c-.11035-.26807-.33203-.47461-.60742-.56641-7.94141-2.65039-16.69141-2.65039-24.63281,0-.27539.0918-.49707.29834-.60742.56641-.11133.26758-.10059.5708.0293.82959l6.12988,12.25c.24707.49414.84766.69531,1.3418.44678.49414-.24707.69434-.84766.44727-1.34131l-3.81207-7.61847c.93164-.22858,1.86871-.42139,2.81152-.57623-.013.1463-.02386.29309-.02386.44177,0,2.75684,2.24316,5,5,5s5-2.24316,5-5c0-.24048-.02319-.47968-.05786-.71729,1.62897.17511,3.24701.45947,4.84766.85229l-3.08917,6.17792c-.54266-.19849-1.1145-.31293-1.70062-.31293-2.75684,0-5,2.24316-5,5,0,1.70422.8858,3.26251,2.27228,4.16895l-1.27325,2.54639-3.19434-6.3833c-.24805-.49316-.84766-.69531-1.3418-.44629-.49414.24707-.69434.84766-.44727,1.3418l4.08984,8.17041c.16992.33838.51562.55225.89453.55225s.72461-.21387.89453-.55273l12-24c.12988-.25928.14062-.56201.0293-.82959ZM31.97998,11.99976c0,1.6543-1.3457,3-3,3s-3-1.3457-3-3c0-.24738.03888-.48706.09912-.72156,1.91101-.20331,3.83173-.26129,5.74896-.1651.0899.2879.15192.58398.15192.88666ZM30.97998,22.99976c0-1.6543,1.3457-3,3-3,.27344,0,.54193.03998.80072.11255l-2.62982,5.25934c-.72192-.55536-1.1709-1.42822-1.1709-2.37189ZM39.68683,10.30084c-6.37079-1.64148-13.04126-1.6416-19.41205-.00043l-.87585-1.75037c6.86523-2.0498,14.2959-2.05029,21.16309.00049l-.87518,1.75031Z"/>
  <path d="M22.51416,22.81226c-.24707-.49365-.84766-.69482-1.3418-.44727s-.69434.84814-.44727,1.3418l.93976,1.87848c-1.62.8454-2.68488,2.51416-2.68488,4.41449,0,2.75684,2.24316,5,5,5,.74615,0,1.47412-.18591,2.14252-.50452l.68103,1.36127c-5.77557,1.4231-11.80005,1.42865-17.57764.01691l2.97064-5.94086c.25702.04126.51788.0672.78345.0672,2.75684,0,5-2.24316,5-5,0-1.36633-.56238-2.6488-1.52557-3.58234l1.56464-3.12909.91602,1.83789c.24609.49316.84375.69482,1.34082.44873.49414-.24658.69531-.84668.44824-1.34131l-1.80957-3.63037c-.16895-.33887-.51465-.55371-.89355-.55371h-.00098c-.37891,0-.72461.21387-.89453.55273l-12,24c-.12988.25928-.14062.56201-.0293.82959.11035.26807.33203.47461.60742.56641,3.9707,1.3252,8.14355,1.98828,12.31641,1.98828s8.3457-.66309,12.31641-1.98828c.27539-.0918.49707-.29834.60742-.56641.11133-.26758.10059-.57031-.0293-.82959l-8.40039-16.79004ZM23.97998,32.99976c-1.6543,0-3-1.3457-3-3,0-1.12708.62402-2.11816,1.57727-2.63086l2.6734,5.34375c-.39209.18097-.81628.28711-1.25067.28711ZM15.97998,24.99976c0,1.58832-1.24408,2.87897-2.80725,2.98053l2.30359-4.60687c.31323.48029.50366,1.03583.50366,1.62634ZM7.43799,39.44897l.87085-1.74158c3.17432.8147,6.42096,1.24207,9.67114,1.24207,3.27399,0,6.54456-.43237,9.74103-1.25909l.88007,1.75909c-6.86523,2.0498-14.2959,2.05029-21.16309-.00049Z"/>
  <circle cx="27.97998" cy="18.99976" r="1"/>
  <circle cx="34.97998" cy="15.99976" r="1"/>
  <path d="M14.53566,32.1123c-.31667.11717-.62368.31968-.92806.47333-.43648.22034-.9291.35718-1.2853.6921-.60851.57213-.29255,1.774.6381,1.71803.27429-.01651.52943-.13927.77637-.2598.42324-.20657.84647-.41315,1.26971-.61972.29746-.14519.60777-.30106.79815-.57183.18324-.26061.22837-.61346.11414-.91086s-.38531-.52991-.69718-.59495c-.23508-.04902-.4629-.00882-.68594.0737Z"/>
  <circle cx="17.97998" cy="33.99976" r="1"/>
</svg>