<?xml version="1.0" encoding="UTF-8"?>
<svg id="Outline" xmlns="http://www.w3.org/2000/svg" version="1.1" viewBox="0 0 64 64">
  <!-- Generator: Adobe Illustrator 29.5.1, SVG Export Plug-In . SVG Version: 2.1.0 Build 141)  -->
  <path d="M51.08,15.86c-.35-.42-.98-.47-1.41-.11-.42.35-.47.98-.11,1.41,3.29,3.89,5.17,8.77,5.4,13.84h-2.81c.03-.11.05-.23.09-.33.25-.66.38-1.35.38-2.06,0-1.57-.66-3.1-1.8-4.18-.67-.65-1.09-1.51-1.16-2.41-.1-1.15-.53-2.22-1.25-3.11-.7-.89-1.65-1.54-2.74-1.9-.88-.29-1.63-.88-2.1-1.67-1.17-1.97-3.46-3.1-5.76-2.78-.91.12-1.84-.09-2.61-.59-.66-.45-1.42-.73-2.2-.86v-2.07c5.07.23,9.95,2.11,13.84,5.4.42.36,1.06.31,1.41-.11.36-.43.31-1.06-.11-1.41-4.51-3.82-10.24-5.92-16.14-5.92-13.79,0-25,11.21-25,25s11.21,25,25,25,25-11.21,25-25c0-5.9-2.1-11.63-5.92-16.14ZM31,50.85c-.39-.1-.76-.26-1.1-.48-1.18-.78-2.59-1.11-3.99-.91-1.49.2-3-.53-3.76-1.82-.38-.65-.91-1.22-1.51-1.67-.44-.32-1.07-.23-1.4.22-.32.44-.23,1.07.22,1.4.39.28.72.65.97,1.07,1.17,1.97,3.47,3.1,5.76,2.78.91-.12,1.83.08,2.61.59.66.45,1.42.74,2.2.87v2.07c-11.89-.51-21.46-10.08-21.97-21.97h2.82c-.03.11-.05.23-.09.33-.25.66-.38,1.35-.38,2.06,0,1.57.66,3.1,1.8,4.18.67.65,1.09,1.51,1.16,2.41.1,1.15.53,2.22,1.26,3.13l.15.18c.35.42.98.48,1.41.13.42-.35.48-.98.13-1.41l-.14-.17c-.47-.58-.75-1.28-.81-2.03-.12-1.38-.75-2.69-1.78-3.69-.75-.71-1.18-1.7-1.18-2.73,0-.47.08-.92.24-1.34.13-.34.23-.69.29-1.05h17.09v17.85ZM31,31H13.91c-.06-.36-.16-.71-.29-1.05-.16-.42-.24-.87-.24-1.34,0-1.03.43-2.02,1.18-2.74,1.03-.99,1.66-2.3,1.78-3.69.06-.74.34-1.44.81-2.03.46-.58,1.08-1.01,1.8-1.24,1.34-.43,2.47-1.34,3.2-2.55.76-1.29,2.26-2.02,3.76-1.82,1.4.19,2.81-.13,3.99-.91.34-.22.71-.38,1.1-.48v17.85ZM31,11.11c-.78.13-1.54.41-2.2.85-.78.52-1.7.72-2.61.6-2.3-.32-4.59.81-5.76,2.77-.47.8-1.22,1.39-2.1,1.68-1.09.36-2.04,1.01-2.74,1.89-.72.9-1.15,1.97-1.25,3.11-.07.91-.49,1.77-1.16,2.41-1.14,1.09-1.8,2.62-1.8,4.19,0,.71.13,1.4.38,2.06.04.1.06.22.09.33h-2.82c.51-11.89,10.08-21.46,21.97-21.97v2.08ZM33,13.15c.39.1.76.26,1.1.48,1.18.78,2.59,1.11,3.99.91,1.49-.2,3,.53,3.76,1.82.73,1.21,1.86,2.12,3.2,2.55.72.23,1.34.66,1.8,1.25.47.58.75,1.28.81,2.03.12,1.38.75,2.69,1.78,3.69.75.71,1.18,1.7,1.18,2.73,0,.47-.08.92-.24,1.34-.13.34-.23.69-.29,1.05h-17.09V13.15ZM33,33h17.09c.06.36.16.71.29,1.05.16.42.24.87.24,1.34,0,1.03-.43,2.02-1.18,2.74-1.03.99-1.66,2.3-1.78,3.69-.06.74-.34,1.44-.81,2.03-.46.58-1.08,1.01-1.8,1.24-1.34.43-2.47,1.34-3.2,2.55-.76,1.29-2.26,2.03-3.76,1.82-1.4-.2-2.81.13-3.99.91-.34.22-.71.38-1.1.48v-17.85ZM33,54.97v-2.07c.78-.13,1.53-.42,2.2-.86.78-.52,1.7-.72,2.61-.6,2.3.32,4.59-.81,5.76-2.77.47-.8,1.22-1.39,2.1-1.68,1.09-.36,2.04-1.01,2.74-1.89.72-.9,1.15-1.97,1.25-3.11.07-.91.49-1.77,1.16-2.41,1.14-1.09,1.8-2.62,1.8-4.19,0-.71-.13-1.4-.38-2.06-.04-.1-.06-.22-.09-.33h2.82c-.51,11.89-10.08,21.46-21.97,21.97Z"/>
  <path d="M20,23c-1.654,0-3,1.346-3,3s1.346,3,3,3,3-1.346,3-3-1.346-3-3-3ZM20,27c-.551,0-1-.448-1-1s.449-1,1-1,1,.448,1,1-.449,1-1,1Z"/>
  <path d="M38,41c1.654,0,3-1.346,3-3s-1.346-3-3-3-3,1.346-3,3,1.346,3,3,3ZM38,37c.551,0,1,.448,1,1s-.449,1-1,1-1-.448-1-1,.449-1,1-1Z"/>
  <path d="M26,18c-1.654,0-3,1.346-3,3s1.346,3,3,3,3-1.346,3-3-1.346-3-3-3ZM26,22c-.551,0-1-.448-1-1s.449-1,1-1,1,.448,1,1-.449,1-1,1Z"/>
  <path d="M45,40c1.654,0,3-1.346,3-3s-1.346-3-3-3-3,1.346-3,3,1.346,3,3,3ZM45,36c.551,0,1,.448,1,1s-.449,1-1,1-1-.448-1-1,.449-1,1-1Z"/>
  <path d="M37,29c1.654,0,3-1.346,3-3s-1.346-3-3-3-3,1.346-3,3,1.346,3,3,3ZM37,25c.551,0,1,.448,1,1s-.449,1-1,1-1-.448-1-1,.449-1,1-1Z"/>
  <path d="M39,22c1.654,0,3-1.346,3-3s-1.346-3-3-3-3,1.346-3,3,1.346,3,3,3ZM39,18c.551,0,1,.448,1,1s-.449,1-1,1-1-.448-1-1,.449-1,1-1Z"/>
  <path d="M41,26c0,1.654,1.346,3,3,3s3-1.346,3-3-1.346-3-3-3-3,1.346-3,3ZM44,25c.551,0,1,.448,1,1s-.449,1-1,1-1-.448-1-1,.449-1,1-1Z"/>
  <circle cx="27" cy="28" r="1"/>
  <circle cx="36" cy="43" r="1"/>
  <circle cx="39" cy="46" r="1"/>
  <circle cx="42" cy="42" r="1"/>
  <path d="M26,41c1.654,0,3-1.346,3-3s-1.346-3-3-3-3,1.346-3,3,1.346,3,3,3ZM26,37c.551,0,1,.448,1,1s-.449,1-1,1-1-.448-1-1,.449-1,1-1Z"/>
  <path d="M22,37c0-1.654-1.346-3-3-3s-3,1.346-3,3,1.346,3,3,3,3-1.346,3-3ZM19,38c-.551,0-1-.448-1-1s.449-1,1-1,1,.448,1,1-.449,1-1,1Z"/>
  <circle cx="28" cy="43" r="1"/>
  <circle cx="25" cy="46" r="1"/>
  <circle cx="22" cy="42" r="1"/>
</svg>