<?xml version="1.0" encoding="UTF-8"?>
<svg id="Outline" xmlns="http://www.w3.org/2000/svg" version="1.1" viewBox="0 0 64 64">
  <!-- Generator: Adobe Illustrator 29.5.1, SVG Export Plug-In . SVG Version: 2.1.0 Build 141)  -->
  <path d="M56.912,38.677c-2.78-15.52-16.07-28.81-31.59-31.59-1.73-.31-3.5.24-4.74,1.46-1.24,1.23-1.79,2.93-1.51,4.66.27,1.59,1.22,2.92,2.51,3.72L7.062,55.647c-.13.36-.05.77.23,1.05.19.2.45.3.71.3.11,0,.22-.02.33-.06l29.67-10.38v1.44c0,1.65,1.35,3,3,3s3-1.35,3-3v-3.54l3.64-1.27c.8.89,1.9,1.53,3.15,1.74,1.705.275,3.444-.282,4.66-1.51,1.23-1.24,1.77-3.01,1.46-4.74ZM16.122,37.177c.57.83.88,1.8.88,2.82,0,2.32-1.6,4.26-3.74,4.82l2.86-7.64ZM22.002,50.037v-.04c0-2.76,2.24-5,5-5,1.54,0,2.98.73,3.92,1.92l-8.92,3.12ZM42.002,40.997v7c0,.55-.45,1-1,1s-1-.45-1-1v-4c0-1.65-1.35-3-3-3h-2c-.55,0-1,.45-1,1s.45,1,1,1h2c.55,0,1,.45,1,1v.44l-5.11,1.79c-1.28-1.99-3.5-3.23-5.89-3.23-3.86,0-7,3.14-7,7,0,.24.02.48.04.72l-10.35,3.63,2.76-7.37c3.65-.24,6.55-3.27,6.55-6.98,0-1.88-.75-3.65-2.07-4.96l6.52-17.41c.07.01.13.03.2.04,10.98,1.27,20.01,9.66,22.29,20.33h-.94c-1.65,0-3,1.35-3,3ZM44.002,42.337v-1.34c0-.55.45-1,1-1h1.28c.01.12.04.23.05.35.05.38.15.73.27,1.08l-2.6.91ZM54.032,42.008c-.77.78-1.83,1.12-2.91.94-1.48-.24-2.63-1.41-2.8-2.83-1.5-12.89-11.55-22.94-24.44-24.44-1.42-.17-2.59-1.32-2.83-2.8-.18-1.08.16-2.14.94-2.91.79-.78,1.87-1.11,2.98-.91,14.72,2.64,27.33,15.25,29.97,29.97.2,1.11-.13,2.19-.91,2.98Z"/>
  <path d="M30.977,28.245c.007-.083.025-.163.025-.247v-2c0-.551.449-1,1-1s1-.448,1-1-.448-1-1-1c-1.654,0-3,1.346-3,3v2c0,.551-.449,1-1,1s-1-.449-1-1v-4c0-1.654-1.346-3-3-3-.552,0-1,.448-1,1s.448,1,1,1,1,.449,1,1v3.301c-2.941.864-5,3.554-5,6.699,0,3.86,3.14,7,7,7s7-3.14,7-7c0-2.313-1.147-4.45-3.025-5.753ZM27.002,38.997c-2.757,0-5-2.243-5-5,0-2.152,1.348-4.008,3.307-4.702.486,1.003,1.505,1.702,2.693,1.702.832,0,1.585-.341,2.129-.89,1.167.943,1.871,2.362,1.871,3.89,0,2.757-2.243,5-5,5Z"/>
  <circle cx="25.002" cy="32.997" r="1"/>
  <circle cx="29.002" cy="32.997" r="1"/>
  <circle cx="27.002" cy="35.997" r="1"/>
  <path d="M39.002,31.997c-1.654,0-3,1.346-3,3s1.346,3,3,3,3-1.346,3-3-1.346-3-3-3ZM39.002,35.997c-.551,0-1-.449-1-1s.449-1,1-1,1,.449,1,1-.449,1-1,1Z"/>
</svg>