<?xml version="1.0" encoding="UTF-8"?>
<svg id="Outline" xmlns="http://www.w3.org/2000/svg" version="1.1" viewBox="0 0 64 64">
  <!-- Generator: Adobe Illustrator 29.5.1, SVG Export Plug-In . SVG Version: 2.1.0 Build 141)  -->
  <path d="M56.91415,38.67878c-2.78467-15.521-16.07178-28.80811-31.59277-31.59277-1.72656-.31006-3.49756.23828-4.73926,1.46436-1.24561,1.22998-1.79492,2.92676-1.50684,4.65527.26465,1.58905,1.21466,2.92639,2.50519,3.7204L7.06454,55.64801c-.13623.36328-.0498.77295.22168,1.05029.19141.1958.4502.30078.71484.30078.11084,0,.22217-.01855.33057-.05615l29.66943-10.3844v1.44055c0,1.6543,1.3457,3,3,3s3-1.3457,3-3v-3.54028l3.64197-1.27264c.80084.89117,1.89716,1.52985,3.15149,1.73871.30176.05029.60254.0752.8999.0752,1.40625,0,2.73975-.5542,3.75537-1.58203,1.22656-1.24219,1.77393-3.01367,1.46436-4.73926ZM16.00106,50.99909c0-3.85986,3.14014-7,7-7,2.53119,0,4.8642,1.39581,6.09113,3.55847l-13.00232,4.55084c-.05743-.3645-.08881-.7348-.08881-1.10931ZM42.00106,47.99909c0,.55127-.44873,1-1,1s-1-.44873-1-1v-4c0-1.6543-1.3457-3-3-3h-2c-.55225,0-1,.44775-1,1s.44775,1,1,1h2c.55127,0,1,.44873,1,1v.44037l-7.0163,2.45569c-1.52557-2.95679-4.60956-4.89606-7.9837-4.89606-4.9624,0-9,4.0376-9,9,0,.60144.07971,1.1908.19543,1.77197l-4.50891,1.57812,13.76733-36.72479c.06665.0105.12964.03241.19702.04022.79565.09265,1.57874.22931,2.35217.39471.03284,3.83197,3.15741,6.93976,6.99695,6.93976,1.55042,0,3.01471-.50427,4.21912-1.42334,4.3504,3.66144,7.50098,8.71387,8.72144,14.42334h-.94055c-1.6543,0-3,1.3457-3,3v7ZM28.06057,18.58796c2.70349.82068,5.22882,2.07959,7.49133,3.69299-.76257.45746-1.63202.71814-2.55084.71814-2.55518,0-4.64496-1.9342-4.94049-4.41113ZM44.00106,42.34046v-1.34137c0-.55127.44873-1,1-1h1.2782c.01538.11737.04254.23126.05627.34912.0437.37598.14301.73468.26575,1.08362l-2.60022.90863ZM54.02694,42.01227c-.76709.77734-1.82715,1.11816-2.90332.93994-1.48389-.24756-2.63623-1.41309-2.80176-2.83545-1.50049-12.88867-11.5498-22.93799-24.43848-24.43848-1.42236-.16553-2.58789-1.31787-2.83545-2.80176-.17969-1.07764.16309-2.13623.93994-2.90332.7915-.78223,1.87793-1.11865,2.97998-.91846,14.72803,2.64209,27.33545,15.24951,29.97754,29.97754.19775,1.10254-.13672,2.18848-.91846,2.97998Z"/>
  <circle cx="24.00106" cy="46.99909" r="1"/>
  <circle cx="20.00106" cy="47.99909" r="1"/>
  <path d="M27.00106,26.99909c-3.85986,0-7,3.14014-7,7s3.14014,7,7,7,7-3.14014,7-7-3.14014-7-7-7ZM27.00106,38.99909c-2.75684,0-5-2.24316-5-5s2.24316-5,5-5,5,2.24316,5,5-2.24316,5-5,5Z"/>
  <circle cx="25.00106" cy="32.99909" r="1"/>
  <circle cx="29.00106" cy="32.99909" r="1"/>
  <circle cx="27.00106" cy="35.99909" r="1"/>
  <path d="M39.00106,31.99909c-1.6543,0-3,1.3457-3,3s1.3457,3,3,3,3-1.3457,3-3-1.3457-3-3-3ZM39.00106,35.99909c-.55127,0-1-.44873-1-1s.44873-1,1-1,1,.44873,1,1-.44873,1-1,1Z"/>
</svg>