<?xml version="1.0" encoding="UTF-8"?>
<svg id="Outline" xmlns="http://www.w3.org/2000/svg" version="1.1" viewBox="0 0 64 64">
  <!-- Generator: Adobe Illustrator 29.5.1, SVG Export Plug-In . SVG Version: 2.1.0 Build 141)  -->
  <path d="M54.347,13.495c-1.47-1.031-3.041-1.953-4.669-2.741-.494-.241-1.095-.033-1.335.464-.241.497-.033,1.095.464,1.335,1.532.742,3.009,1.609,4.395,2.581.919.64,1.45,1.646,1.457,2.76.006,1.092-.499,2.082-1.385,2.714-1.228.874-2.867.862-3.99-.029-10.013-7.924-24.548-7.924-34.562,0-1.121.889-2.761.901-3.989.028-.883-.627-1.389-1.61-1.389-2.695,0-1.104.546-2.143,1.462-2.779,9.719-6.771,22.907-8.349,34.414-4.123.516.191,1.093-.075,1.283-.594.19-.518-.075-1.093-.594-1.283-12.11-4.45-25.999-2.78-36.246,4.358-1.452,1.011-2.319,2.664-2.319,4.421,0,1.741.813,3.317,2.23,4.325.952.677,2.066,1.015,3.168,1.015.429,0,.853-.068,1.268-.171l17.101,33.694c.168.332.507.543.892.547.368,0,.706-.202.881-.526l12.18-22.64c.261-.486.079-1.093-.407-1.354-.487-.262-1.093-.08-1.354.407l-3.759,6.988c-.853-.44-1.768-.674-2.729-.674-3.309,0-6,2.691-6,6,0,2.176,1.169,4.142,3.058,5.217l-1.842,3.424L15.824,22.239c.045-.033.095-.057.139-.091.627-.497,1.277-.953,1.94-1.383,1.359,1.337,3.132,2.008,4.907,2.008,1.793,0,3.585-.682,4.95-2.047,1.097-1.097,1.776-2.49,1.977-3.993,6.431-.553,13.04,1.248,18.304,5.413.285.226.594.405.913.562l-3.752,6.971c-.262.486-.08,1.093.406,1.354.463.249,1.093.08,1.355-.406l3.982-7.398c1.205.072,2.444-.249,3.489-.992,1.424-1.017,2.235-2.604,2.225-4.355-.011-1.747-.875-3.388-2.311-4.387ZM32.812,45.524c0-2.206,1.794-4,4-4,.627,0,1.224.151,1.783.433l-3.779,7.025c-1.239-.725-2.004-2.023-2.004-3.458ZM26.346,19.312c-1.808,1.807-4.655,1.917-6.615.372,2.493-1.332,5.17-2.228,7.912-2.687-.215.864-.646,1.664-1.296,2.315Z"/>
  <path d="M29.322,27.247c.256,0,.512-.098.707-.293.391-.391.391-1.023,0-1.414-2.044-2.044-5.37-2.044-7.414,0-.391.391-.391,1.023,0,1.414s1.023.391,1.414,0c1.265-1.264,3.321-1.264,4.586,0,.195.195.451.293.707.293Z"/>
  <path d="M40.615,26.954c.195.195.451.293.707.293.87,0,1.32-1.094.707-1.707-2.044-2.044-5.37-2.044-7.414,0-.391.391-.391,1.023,0,1.414s1.023.391,1.414,0c1.265-1.264,3.321-1.264,4.586,0Z"/>
  <path d="M32.322,36.071c2.067,0,4.134-.787,5.707-2.36.391-.391.391-1.023,0-1.414s-1.023-.391-1.414,0c-2.367,2.367-6.219,2.367-8.586,0-.391-.391-1.023-.391-1.414,0s-.391,1.023,0,1.414c1.573,1.574,3.64,2.36,5.707,2.36Z"/>
</svg>