<?xml version="1.0" encoding="UTF-8"?>
<svg id="Outline" xmlns="http://www.w3.org/2000/svg" version="1.1" viewBox="0 0 64 64">
  <!-- Generator: Adobe Illustrator 29.5.1, SVG Export Plug-In . SVG Version: 2.1.0 Build 141)  -->
  <path d="M54.444,22.469c-1.057-1.043-2.45-1.618-3.923-1.618-1.486,0-2.881.576-3.928,1.623-.19.19-.346.402-.504.613l-9.833-4.63c-.5-.236-1.096-.021-1.33.479-.235.5-.021,1.095.479,1.331l9.795,4.612c-.141.492-.239.998-.239,1.523,0,5.208-2.026,10.103-5.707,13.783-3.681,3.68-8.575,5.707-13.783,5.707-1.007,0-1.969.288-2.822.794l-4.822-13.717c2.575-1.362,4.255-4.075,4.255-7.048,0-4.411-3.589-8-8-8-.5,0-.997.062-1.49.155l-2.584-7.351c-.176-.512-.043-1.031.354-1.389.394-.355.916-.434,1.395-.211l3.466,1.633c-.091.374-.14.762-.14,1.163,0,2.757,2.243,5,5,5,1.584,0,3.052-.766,3.978-2l7.717,3.635c.501.236,1.096.02,1.33-.479.235-.5.021-1.096-.479-1.331L12.601,7.313c-1.217-.563-2.588-.359-3.58.538-.997.899-1.344,2.25-.903,3.531l12.92,36.752c-.713.959-1.117,2.104-1.117,3.316,0,3.061,2.489,5.55,5.55,5.55,7.707,0,15.065-2.872,20.718-8.085.406-.374.432-1.007.058-1.413-.374-.405-1.006-.432-1.413-.057-5.282,4.872-12.159,7.555-19.362,7.555-1.957,0-3.55-1.593-3.55-3.55,0-.95.37-1.848,1.033-2.519.68-.671,1.573-1.041,2.517-1.041,5.742,0,11.14-2.235,15.197-6.293,4.059-4.059,6.293-9.456,6.293-15.197,0-.945.372-1.838,1.047-2.513,1.331-1.332,3.673-1.337,5.022-.004.671.679,1.041,1.573,1.041,2.517,0,6.66-2.333,13.138-6.569,18.241-.353.425-.294,1.055.131,1.408.426.354,1.056.294,1.408-.131,4.533-5.461,7.03-12.393,7.03-19.519,0-1.474-.575-2.867-1.627-3.932ZM20.08,14.921c-1.654,0-3-1.346-3-3,0-.094.021-.181.029-.273l5.079,2.392c-.549.549-1.303.88-2.108.88ZM14.08,19.921c3.309,0,6,2.691,6,6,0,2.127-1.145,4.079-2.926,5.139l-3.894-11.076c.272-.037.546-.063.819-.063Z"/>
  <path d="M50.981,31.073c0-.011.002-.022.003-.034l.003-.032c.003-.03.004-.061.004-.091,0-.511-.391-.948-.91-.995-.543-.046-1.036.356-1.086.906,0,.004,0,.008,0,.012,0,.012-.002.024-.003.036,0,.007-.002.014-.002.021,0,.001,0,.002,0,.004-.539,5.747-3.447,10.82-7.692,14.279-3.637,2.961-8.254,4.738-13.206,4.738h-.009c-.265,0-.52.108-.707.295s-.293.444-.293.709c0,.552.447,1,1,1,6.642,0,12.735-2.917,16.979-7.563,3.258-3.566,5.427-8.152,5.914-13.218.002-.022.004-.044.007-.067Z"/>
  <path d="M27.08,44.921c2.206,0,4-1.794,4-4s-1.794-4-4-4-4,1.794-4,4,1.794,4,4,4ZM27.08,38.921c1.103,0,2,.897,2,2s-.897,2-2,2-2-.897-2-2,.897-2,2-2Z"/>
  <path d="M32.08,35.921c0,2.206,1.794,4,4,4s4-1.794,4-4-1.794-4-4-4-4,1.794-4,4ZM38.08,35.921c0,1.103-.897,2-2,2s-2-.897-2-2,.897-2,2-2,2,.897,2,2Z"/>
  <path d="M27.08,18.921c-2.206,0-4,1.794-4,4s1.794,4,4,4,4-1.794,4-4-1.794-4-4-4ZM27.08,24.921c-1.103,0-2-.897-2-2s.897-2,2-2,2,.897,2,2-.897,2-2,2Z"/>
  <path d="M24.373,33.214l-2,2c-.391.391-.391,1.023,0,1.414.358.359,1.027.388,1.414,0l2-2c.391-.391.391-1.023,0-1.414s-1.023-.391-1.414,0Z"/>
  <path d="M28.764,31.869c.49.163,1.089-.105,1.265-.632.175-.524-.108-1.09-.632-1.265l-3-1c-.527-.177-1.09.109-1.265.632-.175.524.108,1.09.632,1.265,0,0,2.995.998,3,1Z"/>
  <path d="M36.633,28.026l-2,1c-.494.247-.694.847-.447,1.342.245.49.854.691,1.342.447l2-1c.494-.247.694-.848.447-1.342-.248-.494-.849-.695-1.342-.447Z"/>
  <path d="M35.08,24.921h-2c-.553,0-1,.448-1,1s.447,1,1,1h2c.553,0,1-.448,1-1s-.447-1-1-1Z"/>
</svg>