<?xml version="1.0" encoding="UTF-8"?>
<svg id="Outline" xmlns="http://www.w3.org/2000/svg" version="1.1" viewBox="0 0 64 64">
  <!-- Generator: Adobe Illustrator 29.5.1, SVG Export Plug-In . SVG Version: 2.1.0 Build 141)  -->
  <path d="M56,27c.55,0,1-.45,1-1v-12c0-1.65-1.35-3-3-3h-5.18c-.31-.85-.97-1.51-1.82-1.82v-1.18c0-.55-.45-1-1-1s-1,.45-1,1v1.18c-.85.31-1.51.97-1.82,1.82h-22.36c-.31-.85-.97-1.51-1.82-1.82v-1.18c0-.55-.45-1-1-1s-1,.45-1,1v1.18c-.85.31-1.51.97-1.82,1.82h-5.18c-1.65,0-3,1.35-3,3v40c0,1.65,1.35,3,3,3h44c1.65,0,3-1.35,3-3v-24c0-.55-.45-1-1-1s-1,.45-1,1v24c0,.55-.45,1-1,1h-1.25c.16-.38.25-.8.25-1.25V19h2v7c0,.55.45,1,1,1ZM46,11c.55,0,1,.45,1,1s-.45,1-1,1-1-.45-1-1,.45-1,1-1ZM18,11c.55,0,1,.45,1,1s-.45,1-1,1-1-.45-1-1,.45-1,1-1ZM10,55c-.55,0-1-.45-1-1V19h2v35c0,.35.07.69.18,1h-1.18ZM31.06,55l15.19-1.9.35,1.44c.04.16.1.31.16.46h-15.7ZM37,33v8h-10v-8h10ZM27,31v-8h10v8h-10ZM37,43v8h-10v-8h10ZM47,51h-8v-8h8v8ZM47,41h-8v-8h8v8ZM47,31h-8v-8h8v8ZM48,17c-.55,0-1,.45-1,1s.45,1,1,1h3v34.75c0,.69-.56,1.25-1.25,1.25-.57,0-1.07-.39-1.21-.94l-.27-1.11c.42-.12.73-.49.73-.95v-30c0-.55-.45-1-1-1H16c-.55,0-1,.45-1,1v30c0,.55.45,1,1,1h14.94l-16,2h-.94c-.55,0-1-.45-1-1V19h31c.55,0,1-.45,1-1s-.45-1-1-1H9v-3c0-.55.45-1,1-1h5.18c.42,1.16,1.52,2,2.82,2s2.4-.84,2.82-2h22.36c.42,1.16,1.52,2,2.82,2s2.4-.84,2.82-2h5.18c.55,0,1,.45,1,1v3h-7ZM17,41v-8h8v8h-8ZM25,43v8h-8v-8h8ZM17,31v-8h8v8h-8Z"/>
</svg>