<?xml version="1.0" encoding="UTF-8"?>
<svg id="Outline" xmlns="http://www.w3.org/2000/svg" version="1.1" viewBox="0 0 64 64">
  <!-- Generator: Adobe Illustrator 29.5.1, SVG Export Plug-In . SVG Version: 2.1.0 Build 141)  -->
  <path d="M56,45c.55,0,1-.45,1-1s-.45-1-1-1h-1.56c1.68-3.4,2.56-7.17,2.56-11,0-13.79-11.21-25-25-25S7,18.21,7,32c0,3.83.88,7.6,2.56,11h-1.56c-.55,0-1,.45-1,1s.45,1,1,1h1.08c.21,1.5.89,2.87,1.97,3.94.02.02.04.04.06.06h-3.11c-.55,0-1,.45-1,1s.45,1,1,1h1.08c.21,1.5.89,2.87,1.97,3.94,1.31,1.33,3.07,2.06,4.95,2.06h32c3.52,0,6.43-2.61,6.92-6h1.08c.55,0,1-.45,1-1s-.45-1-1-1h-3.11c1.07-1.05,1.81-2.44,2.03-4h1.08ZM9,32c0-12.68,10.32-23,23-23s23,10.32,23,23c0,3.86-.98,7.65-2.83,11h-4.7c2.28-3.21,3.53-7.04,3.53-11,0-10.48-8.52-19-19-19s-19,8.52-19,19c0,3.96,1.25,7.79,3.53,11h-4.7c-1.85-3.35-2.83-7.14-2.83-11ZM24.01,31.25c1.73,1.52,3.17,3.31,4.29,5.27-.51.2-1.05.31-1.62.31-1.15,0-2.23-.45-3.05-1.26-1.17-1.18-2.46-5.84-3.19-9.3,3.46.73,8.12,2.02,9.3,3.2,1.61,1.61,1.66,4.18.18,5.87-1.21-2.08-2.74-3.98-4.59-5.59-.42-.37-1.05-.33-1.41.09-.37.42-.32,1.05.09,1.41ZM31.15,36.98c.33-.32.61-.68.85-1.06.24.38.52.74.85,1.06.08.08.17.16.25.23-.42.92-.8,1.87-1.1,2.84-.3-.97-.68-1.92-1.1-2.84.08-.07.17-.15.25-.23ZM34.26,29.47c1.18-1.18,5.84-2.47,9.3-3.2-.73,3.46-2.02,8.12-3.19,9.3-.82.81-1.9,1.26-3.05,1.26-.57,0-1.11-.11-1.62-.31,1.12-1.96,2.56-3.75,4.29-5.27.41-.36.46-.99.09-1.41-.36-.42-.99-.46-1.41-.09-1.85,1.61-3.38,3.51-4.59,5.59-1.48-1.69-1.43-4.26.18-5.87ZM34.8,38.31c.78.34,1.63.52,2.52.52,1.68,0,3.27-.65,4.46-1.85,2.23-2.23,3.86-10.83,4.04-11.8.06-.32-.05-.65-.28-.89-.23-.23-.56-.33-.89-.27-.97.17-9.57,1.8-11.8,4.03-.33.33-.61.69-.85,1.06-.24-.37-.52-.73-.85-1.06-2.23-2.23-10.83-3.86-11.8-4.03-.33-.06-.66.04-.89.27-.23.24-.34.57-.28.89.18.97,1.81,9.57,4.04,11.8,1.19,1.2,2.78,1.85,4.46,1.85.89,0,1.74-.18,2.52-.52.67,1.49,1.15,3.06,1.45,4.69h-11.59c-2.61-3.08-4.06-6.96-4.06-11,0-9.37,7.63-17,17-17s17,7.63,17,17c0,4.04-1.45,7.92-4.06,11h-11.59c.3-1.63.78-3.2,1.45-4.69ZM48,49h-20c-.55,0-1,.45-1,1s.45,1,1,1h24.9c-.47,2.28-2.48,4-4.9,4H16c-1.34,0-2.59-.52-3.54-1.47-.7-.7-1.17-1.57-1.36-2.53h8.9c.55,0,1-.45,1-1s-.45-1-1-1h-4c-1.34,0-2.59-.52-3.54-1.47-.7-.7-1.17-1.57-1.36-2.53h41.8c-.47,2.28-2.48,4-4.9,4Z"/>
  <circle cx="24" cy="50" r="1"/>
</svg>