<?xml version="1.0" encoding="UTF-8"?>
<svg id="Outline" xmlns="http://www.w3.org/2000/svg" version="1.1" viewBox="0 0 64 64">
  <!-- Generator: Adobe Illustrator 29.5.1, SVG Export Plug-In . SVG Version: 2.1.0 Build 141)  -->
  <path d="M54.107,18.174c-.34-.22-.78-.23-1.12,0l-2.76,1.83c-1.9,1.27-4.19,1.83-6.46,1.58-2.97-.34-5.88.47-8.23,2.21v-3.41c0-.85.17-1.67.46-2.44.76.46,1.63.72,2.54.72,1.34,0,2.59-.52,3.54-1.47,1.69-1.69,2.88-7.8,3.1-9.01.06-.32-.04-.65-.28-.89-.23-.23-.56-.34-.88-.27-1.21.22-7.32,1.4-9.02,3.1-1.72,1.73-1.91,4.42-.57,6.36-.58,1.19-.89,2.52-.89,3.9v3.41c-2.35-1.73-5.26-2.54-8.23-2.21-2.27.25-4.56-.31-6.46-1.58l-2.76-1.83c-.34-.23-.78-.22-1.12,0-.33.24-.49.65-.41,1.05l.53,2.38c.99,4.42,4.26,8.06,8.56,9.49,1.32.44,2.72.66,4.11.66.53,0,1.07-.03,1.6-.09l4.18-.53v7.42c-.6.35-1.11.86-1.46,1.48-.85.09-1.62.45-2.24,1.02l-3.07-1.06c-.86-.3-1.78-.36-2.67-.17l-6.74,1.41c-.3-1.41-1.54-2.38-2.94-2.38-.2,0-.41.02-.62.06l-1.95.41c-1.62.34-2.66,1.93-2.32,3.55l2.46,11.75c.338,1.612,1.954,2.624,3.55,2.32l1.96-.41c.78-.17,1.45-.63,1.89-1.3.32-.49.49-1.06.49-1.63,3.43.92,6.97,1.38,10.52,1.38,2.8,0,5.6-.29,8.35-.86l9.01-1.89c.91-.19,1.7-.73,2.21-1.51.51-.78.69-1.72.5-2.63-.13-.6-.42-1.14-.82-1.59.57-.7.89-1.57.89-2.5,0-2.21-1.79-4-4-4,0-1.42-.76-2.74-1.98-3.45-.61-.36-1.31-.55-2.02-.55-1.9,0-3.49,1.33-3.9,3.11-.09.02-.18.04-.27.07-.74-.75-1.75-1.18-2.83-1.18v-6.87l4.18.53c.53.06,1.07.09,1.6.09,1.39,0,2.79-.22,4.11-.66,4.3-1.43,7.57-5.07,8.56-9.49l.53-2.38c.08-.4-.08-.81-.41-1.05ZM36.417,11.544c.77-.78,3.89-1.69,6.5-2.26-.57,2.61-1.49,5.73-2.26,6.5-1,1-2.55,1.14-3.7.42.74-.99,1.74-1.79,2.95-2.27.51-.21.76-.79.56-1.3-.21-.51-.79-.76-1.3-.56-1.38.55-2.55,1.43-3.47,2.5-.33-1.04-.1-2.21.72-3.03ZM29.107,29.674c-1.61.2-3.29.04-4.83-.48-3.62-1.2-6.38-4.26-7.22-7.98l.68.46c2.29,1.52,5.05,2.2,7.79,1.89,2.95-.33,5.85.69,7.95,2.79l.06.06v2.71l-4.43.55ZM17.717,54.144c-.15.22-.37.37-.64.43l-1.95.41c-.26.05-.53,0-.76-.14-.22-.15-.37-.37-.43-.63l-2.46-11.75c-.05-.26,0-.53.14-.75.15-.23.38-.38.64-.43l1.95-.41c.07-.02.14-.03.21-.03.46,0,.88.33.98.8l2.46,11.74c.05.27,0,.53-.14.76ZM48.287,49.624c-.21.34-.55.57-.94.65l-9.01,1.89c-6.24,1.31-12.75,1.03-18.85-.76l-1.72-8.21,6.74-1.42c.53-.11,1.09-.07,1.6.11l7.11,2.46c.51.18.92.55,1.16,1.03.24.49.27,1.04.09,1.55-.34,1-1.41,1.56-2.43,1.3l-5.94-1.56c-.54-.14-1.08.18-1.22.71-.14.53.18,1.08.71,1.22l5.94,1.56c.34.09.68.13,1.01.13.5,0,.99-.1,1.44-.27l12.75-2.67c.39-.09.8-.01,1.13.21.33.21.57.56.65.95.08.39,0,.79-.22,1.12ZM37.217,40.934c.29.46.88.6,1.34.34.32-.18.64-.27.98-.27.55,0,1-.45,1-1,0-1.1.9-2,2-2,.35,0,.7.09,1.01.27.62.37.99,1.01.99,1.73,0,.29-.07.59-.21.87-.2.39-.12.85.18,1.16.31.3.77.38,1.16.18.28-.14.58-.21.87-.21,1.1,0,2,.9,2,2,0,.55-.23,1.06-.62,1.43-.52-.13-1.07-.16-1.6-.05l-9.93,2.08c.31-.98.24-2.03-.21-2.96-.47-.97-1.29-1.7-2.3-2.05l-1.29-.44c.47.06.92-.21,1.07-.66.29-.81,1.04-1.35,1.88-1.35.69,0,1.32.35,1.68.93ZM44.797,29.194c-1.54.52-3.21.68-4.83.48l-4.43-.55v-2.71l.06-.06c2.1-2.1,5-3.12,7.95-2.79,2.74.31,5.5-.37,7.79-1.89l.68-.46c-.84,3.72-3.6,6.78-7.22,7.98Z"/>
</svg>