<?xml version="1.0" encoding="UTF-8"?>
<svg id="Outline" xmlns="http://www.w3.org/2000/svg" version="1.1" viewBox="0 0 64 64">
  <!-- Generator: Adobe Illustrator 29.0.0, SVG Export Plug-In . SVG Version: 2.1.0 Build 186)  -->
  <path d="M55.8961,55.11713h-1c0-2.44-1.76001-4.48004-4.08002-4.92004-.44-2.31995-2.47998-4.07996-4.91998-4.07996-.83002,0-1.63.20001-2.34998.59998-.94-1.01001-2.26001-1.59998-3.65002-1.59998-1.72998,0-3.31.89996-4.21002,2.32996-.75-.28998-1.57001-.38995-2.38-.28998.79004-3.89001,2.74005-7.47998,5.60004-10.27002.24999.24999.50999.49998.78995.73002,2.12701,1.74772,5.01901,2.72745,7.78006,2.45999,2.83997-.25,5.40997-1.57996,7.23999-3.75995,3.62-4.30005,2.09998-16.43005,1.91998-17.80005-.07001-.51996-.52002-.89996-1.02997-.87-1.38.04999-13.59003.65002-17.21002,4.95001-3.09998,3.69-3.26001,8.88-.73999,12.71002-2.31,2.20996-4.09003,4.88995-5.23999,7.82001-.73999-4.85004-2.37-9.49005-4.80005-13.71002,2.15002-2.07001,3.47003-4.79999,3.73004-7.79999.28998-3.28003-.72003-6.48004-2.84003-9-4.26996-5.06-19.40997-5.71002-20.04999-5.73004-.51001-.04999-.96002.35004-1.02997.86005-.09003.63995-2.06006,15.66998,2.20996,20.73999,2.42999,2.89996,5.92999,4.39001,9.44,4.39001,2.42999,0,4.87-.72003,6.97998-2.17004,2.45001,4.38,4.02002,9.20001,4.59003,14.25-.78998-.52997-1.72998-.83997-2.75-.83997-2.41998,0-4.44,1.71997-4.90002,4-1.15997-.02002-2.20996.33997-3.09998,1.01996-.85999-.65997-1.90997-1.01996-3-1.01996-2.10999,0-3.98999,1.35999-4.69,3.29999-1.64001.59003-2.84003,2.02002-3.19,3.70001h-1.12c-.54999,0-1,.45001-1,1s.45001,1,1,1h48c.54999,0,1-.45001,1-1s-.45001-1-1-1ZM39.92613,23.87714c2.37994-2.83002,10.79999-3.92004,14.83997-4.18005.44,4.02002.79999,12.5-1.58002,15.33002-1.48999,1.77002-3.57996,2.85999-5.88,3.06-2.29999.20001-4.54999-.51001-6.31995-2-.22003-.19-.43005-.38-.63-.58997l10.22998-9.65002c.40002-.38.41998-1.02002.03998-1.41998-.38-.40002-1.01001-.41998-1.41998-.04004l-10.07001,9.51001c-1.83997-3.07996-1.64996-7.12.79004-10.01996ZM21.17613,20.97712l-6.57001-6.57001c-.39001-.39001-1.03003-.39001-1.42004,0-.38995.39001-.38995,1.03003,0,1.41998l6.57001,6.57001c2.02002,2.01001,3.77002,4.23004,5.27002,6.58002-4.34003,3.07001-10.39001,2.35999-13.85999-1.78003-2.87-3.39996-2.39001-13.58997-1.87-18.26996,4.69.28998,14.81,1.58002,17.67999,4.97998,1.76996,2.10999,2.62,4.78998,2.38,7.53998-.20001,2.36005-1.19,4.52002-2.80005,6.21002-1.53998-2.38-3.32996-4.63-5.37994-6.67999ZM11.07609,55.11713c.33002-.94,1.14001-1.69,2.15002-1.91003.38-.08997.66998-.38.76001-.76001.29999-1.34998,1.51996-2.32996,2.90997-2.32996.84998,0,1.66998.38,2.25,1.03998.38.42999,1.12.42999,1.5,0,.58002-.65997,1.40002-1.03998,2.25-1.03998.21997,0,.46997.03998.73999.10999.29999.09003.62.03003.87-.15997s.40002-.49005.40002-.80005c0-.06,0-.10999-.01001-.14996,0-1.65002,1.34998-3,3-3,1.52002,0,2.79999,1.15997,2.96997,2.69.03003.33997.24005.63.55005.78998.26996.13.58997.13.85999,0,.01001,0,.02002-.01001.02002-.01001.02997-.01001.04999-.01996.06995-.02997,1.04004-.63,2.29004-.56,3.20001.07001.26001.17999.59003.22998.88.13.29999-.10004.53003-.33002.64001-.62006.40997-1.20996,1.53998-2.01996,2.81-2.01996,1.03998,0,2.02002.56,2.56,1.46997.15002.25.40002.42999.69.48004.28998.03998.59003-.04004.81-.23004.40002-.32996,1.04999-.71997,1.94-.71997,1.65002,0,3,1.34998,3,3,0,.54999.45001,1,1,1,1.65002,0,3,1.34998,3,3H11.07609Z"/>
</svg>