<?xml version="1.0" encoding="UTF-8"?>
<svg id="Outline" xmlns="http://www.w3.org/2000/svg" version="1.1" viewBox="0 0 64 64">
  <!-- Generator: Adobe Illustrator 29.3.1, SVG Export Plug-In . SVG Version: 2.1.0 Build 151)  -->
  <path d="M17,50c0-1.6543-1.3457-3-3-3s-3,1.3457-3,3,1.3457,3,3,3,3-1.3457,3-3ZM13,50c0-.55176.44873-1,1-1s1,.44824,1,1-.44873,1-1,1-1-.44824-1-1Z"/>
  <path d="M54,15h-21c-.55225,0-1,.44727-1,1s.44775,1,1,1h16v1c0,.55273.44775,1,1,1s1-.44727,1-1v-1h3c.55127,0,1,.44824,1,1v36c0,.55176-.44873,1-1,1h-3v-1c0-.55273-.44775-1-1-1s-1,.44727-1,1v1h-30.11053c1.30023-1.27173,2.11053-3.04218,2.11053-5V17h4c.55225,0,1-.44727,1-1s-.44775-1-1-1h-4v-1c0-3.85938-3.14014-7-7-7s-7,3.14062-7,7v36c0,3.85938,3.14014,7,7,7h40c1.6543,0,3-1.3457,3-3V18c0-1.6543-1.3457-3-3-3ZM9,14c0-2.75684,2.24316-5,5-5s5,2.24316,5,5v31.11053c-1.27167-1.30017-3.04205-2.11053-5-2.11053s-3.72833.81036-5,2.11053V14ZM9,50c0-2.75684,2.24316-5,5-5s5,2.24316,5,5-2.24316,5-5,5-5-2.24316-5-5Z"/>
  <path d="M49,50c0,.55273.44775,1,1,1s1-.44727,1-1v-4c0-.55273-.44775-1-1-1s-1,.44727-1,1v4Z"/>
  <path d="M49,34c0,.55273.44775,1,1,1s1-.44727,1-1v-4c0-.55273-.44775-1-1-1s-1,.44727-1,1v4Z"/>
  <path d="M50,27c.55225,0,1-.44727,1-1v-4c0-.55273-.44775-1-1-1s-1,.44727-1,1v4c0,.55273.44775,1,1,1Z"/>
  <path d="M49,42c0,.55273.44775,1,1,1s1-.44727,1-1v-4c0-.55273-.44775-1-1-1s-1,.44727-1,1v4Z"/>
  <path d="M25.79874,50.94235c.48694.11315,1.0409-.0875,1.17929-.73239l6-28c.11572-.54004-.22852-1.07227-.76855-1.1875-.54297-.11719-1.07178.22852-1.1875.76758l-5.99998,27.99992c-.13101.61137.28929,1.03911.77675,1.15238Z"/>
  <path d="M38.20947,21.02246c-.54004-.11719-1.07178.22852-1.1875.76758l-6,28c-.11572.54004.22852,1.07227.76868,1.18753.53276.1175,1.07311-.23433,1.18737-.76761l6-28c.11572-.54004-.22852-1.07227-.76855-1.1875Z"/>
  <path d="M37.79075,50.97759c.53356.11761,1.07292-.23396,1.18728-.76763.00004-.00018,6-28,6-28,.11572-.54004-.22852-1.07227-.76855-1.1875-.54102-.11719-1.07178.22852-1.1875.76758l-6,28c-.11572.54004.22852,1.07227.76878,1.18755Z"/>
  <circle cx="29" cy="16" r="1"/>
</svg>