<?xml version="1.0" encoding="UTF-8"?>
<svg id="Outline" xmlns="http://www.w3.org/2000/svg" version="1.1" viewBox="0 0 64 64">
  <!-- Generator: Adobe Illustrator 29.3.1, SVG Export Plug-In . SVG Version: 2.1.0 Build 151)  -->
  <path d="M55.21002,43.26001c.38-.70001.71997-1.42004.98999-2.19,1.83997-5.35004.38-10.97003-3.48004-13.70001.11005-.65002.01001-1.31-.28998-1.88-.34998-.69-.95001-1.17999-1.66998-1.40002-1.37-.40997-2.87.29004-3.57001,1.61005-3.15002.06995-6.28998,1.69-8.62,4.41998-1.84003-.23999-3.78003-.03003-5.56.54999.06-3.17999,1.77002-6.16998,4.5-7.81.47998-.28998.63-.90002.34998-1.37-.28998-.47998-.89996-.63-1.37-.34998-1.67999,1.00995-3.03998,2.42999-3.98999,4.07996-1.37-.79999-2.90002-1.21997-4.5-1.21997h-6c-.54999,0-1,.45001-1,1,0,2.12.73999,4.13,2.06,5.71997-.41998.17004-.83002.37-1.21002.60004-.47998.27997-.90997.60999-1.31995.96997-.80005-1.5-2.31006-2.51001-3.99005-2.63-.88-1.76996-2.92999-2.70996-4.87-2.12-1.89996.59003-3.06,2.5-2.81,4.48999-1.56,1.23004-2.23999,3.36005-1.63,5.34003.16003.52997.42004,1.02997.75,1.47998-.82001,1.22003-1.06,2.76001-.60999,4.21002.09998.33002.25.64001.41003.94-.48004.52997-.78003,1.22998-.78003,2v4c0,1.29999.84003,2.39996,2,2.82001v2.17999c0,1.09998.90002,2,2,2h42c1.09998,0,2-.90002,2-2v-2.17999c1.15997-.42004,2-1.52002,2-2.82001v-4c0-1.22003-.73999-2.27002-1.78998-2.73999ZM47.81,27.70996c.47998.03003.87-.26996,1-.69995l.07001-.19c.20001-.59003.79999-.96002,1.31-.81.25.06995.39001.25995.46002.38995.13.25.14996.57001.04999.85004l-.08002.21997c-.15997.45001.02002.96002.44,1.20001,3.52002,2.06,4.88,7,3.25,11.73999-.33002.92999-.76001,1.79004-1.25,2.59003h-8.96997l1.17999-2.37c.47998-.95001.72998-2,.72998-3.03003,0-.92999-.20001-1.83997-.58002-2.71997-.63-1.44-1.78998-2.70001-3.26001-3.56-.44-.26001-.90997-.47003-1.38995-.65002,2.01996-1.98999,4.56-3.09003,7.03998-2.96002ZM28,26c1.31,0,2.56.38,3.66998,1.07996-.40997,1.14001-.63995,2.36005-.65997,3.60004-1.35004-.44-2.79004-.67999-4.22998-.67999-.52002,0-1.03003.04999-1.53003.13-1.19-1.09003-1.95001-2.54004-2.17999-4.13h4.92999ZM20.41998,35.67999c.46002-1.04999,1.32001-1.98999,2.44-2.64001,2.42004-1.42999,5.78003-1.26001,8.37-.15997l.36005.15997c.25995.12.56.12.81995,0l.34003-.14996c2.63-1.11005,5.96997-1.28003,8.40002.14996,1.10999.65002,1.96997,1.59003,2.42999,2.64001.27997.63.41998,1.27002.41998,1.91998,0,.72998-.16998,1.45001-.51001,2.13l-1.64001,3.27002h-19.69995l-1.64001-3.27002c-.65002-1.29999-.67999-2.72998-.09003-4.04999ZM10.46997,33.34998c.41003-.22998.58002-.77997.45001-1.22998-.34998-1.13.25-2.33002,1.34003-2.66003,1.10999-.33997,2.27997.30005,2.63,1.46002.12.47998.57996.78998,1.07001.75,1.35999-.14001,2.62.73999,3.01996,2.06.03003.09998.04004.20001.06.31-.16998.27002-.32996.53998-.44995.83002-.84003,1.87-.79004,3.90997.13995,5.76001l1.17999,2.37h-9.90997c-.15997,0-.31.01996-.46002.04999-.09998-.19-.19-.37-.25-.58002-.32996-1.04999-.06-2.17999.71002-2.94.19-.20001.29999-.45996.28998-.72998-.00995-.27002-.12-.53003-.32001-.72003-.38995-.35999-.67999-.79999-.82996-1.29999-.41003-1.32996.14996-2.76996,1.32996-3.42999ZM53,55H11v-2h42v2ZM55,50c0,.54999-.45001,1-1,1H10c-.54999,0-1-.45001-1-1v-4c0-.54999.45001-1,1-1h44c.54999,0,1,.45001,1,1v4Z"/>
  <circle cx="12" cy="48" r="1"/>
  <circle cx="52" cy="48" r="1"/>
  <circle cx="48" cy="31" r="1"/>
  <circle cx="52" cy="35" r="1"/>
  <circle cx="48" cy="35" r="1"/>
  <path d="M53,11h-15c-.54999,0-1,.45001-1,1h-8.08002c-.34998-2.32001-2.26996-4.14001-4.66998-4.26001l-14.60999-.73999c-.69-.04004-1.35004.20996-1.85004.69-.5.47998-.78998,1.14996-.78998,1.83997,0,1.32001,1.02002,2.42999,2.32001,2.53003l10.67999.83002v1.10999h-12c-.54999,0-1,.45001-1,1s.45001,1,1,1h12v1.10999l-10.67999.83002c-1.29999.09998-2.32001,1.20996-2.32001,2.52997,0,.69.28998,1.35999.78998,1.84003.47003.45001,1.08002.69,1.72003.69h.13l14.60999-.73999c2.40002-.12,4.32001-1.94,4.66998-4.26001h8.08002c0,.54999.45001,1,1,1h15c2.21002,0,4-1.79004,4-4s-1.78998-4-4-4ZM27,17.21997c0,1.62-1.25,2.96002-2.84998,3.04004l-14.61005.73999c-.19.01001-.31-.08002-.37-.14001-.07001-.06-.16998-.19-.16998-.39001,0-.27997.21002-.51996.47998-.53998l11.60004-.90002c.51996-.03998.91998-.46997.91998-1v-6.06c0-.52997-.40002-.95996-.91998-1l-11.60004-.89996c-.26996-.02002-.47998-.26001-.47998-.54004,0-.20001.09998-.32996.16998-.38995.06-.06006.19-.15002.37-.14001l14.61005.73999c1.59998.08002,2.84998,1.41998,2.84998,3.03998v4.44ZM37,16h-8v-2h8v2ZM41,17h-2v-4h2v4ZM53,17h-10v-4h10c1.09998,0,2,.89996,2,2,0,1.09998-.90002,2-2,2Z"/>
</svg>