<?xml version="1.0" encoding="UTF-8"?>
<svg id="Outline" xmlns="http://www.w3.org/2000/svg" version="1.1" viewBox="0 0 48 48">
  <!-- Generator: Adobe Illustrator 29.5.1, SVG Export Plug-In . SVG Version: 2.1.0 Build 141)  -->
  <path d="M31,5c-.553,0-1,.448-1,1v9c0,1.858-1.279,3.411-3,3.858V6c0-.552-.447-1-1-1s-1,.448-1,1v12.858c-1.721-.447-3-2-3-3.858V6c0-.552-.447-1-1-1s-1,.448-1,1v4.27c-2.891-2.112-6.365-3.27-10-3.27-1.451,0-2.881.179-4.25.532-.534.138-.856.683-.719,1.218.14.535.687.856,1.219.719,1.205-.311,2.467-.468,3.75-.468,3.717,0,7.247,1.367,10,3.837v2.163c0,2.215,1.21,4.149,3,5.188v11.286c-2.679,4.646-7.634,7.525-13,7.525-1.283,0-2.545-.158-3.75-.468-.533-.137-1.079.184-1.219.719-.138.535.185,1.08.719,1.218,1.369.353,2.799.532,4.25.532,5.062,0,9.802-2.26,13-6.053v5.053c0,1.654,1.346,3,3,3s3-1.346,3-3v-19.812c1.79-1.039,3-2.973,3-5.188V6c0-.552-.447-1-1-1ZM27,40c0,.551-.448,1-1,1s-1-.449-1-1v-19.09c.326.055.659.09,1,.09s.674-.035,1-.09v19.09Z"/>
  <path d="M42,5c-3.37,0-6.14,2.53-6.45,5.89l-1.55,17.02c-.02.28.07.56.26.76.19.21.46.33.74.33h2v11c0,1.65,1.35,3,3,3s3-1.35,3-3V6c0-.55-.45-1-1-1ZM41,40c0,.55-.45,1-1,1s-1-.45-1-1v-11h2v11ZM41,27h-4.91l1.45-15.93c.18-1.98,1.6-3.54,3.46-3.96v19.89Z"/>
  <path d="M10,33c-1.255,0-2.465-.254-3.595-.754-.507-.223-1.096.005-1.319.51-.224.505.004,1.096.509,1.319,1.388.614,2.869.925,4.405.925,6.065,0,11-4.935,11-11s-4.935-11-11-11c-1.536,0-3.018.312-4.405.925-.505.224-.732.814-.509,1.319.223.504.811.733,1.319.51,1.13-.5,2.34-.754,3.595-.754,4.963,0,9,4.038,9,9s-4.037,9-9,9Z"/>
</svg>