<?xml version="1.0" encoding="UTF-8"?>
<svg id="Outline" xmlns="http://www.w3.org/2000/svg" version="1.1" viewBox="0 0 48 48">
  <!-- Generator: Adobe Illustrator 29.0.0, SVG Export Plug-In . SVG Version: 2.1.0 Build 186)  -->
  <path d="M43.00055,21c0-3.59918-2.09149-6.64893-4.95764-7.65051-2.80676-5.15808-8.14264-8.34949-14.04236-8.34949-5.82056,0-11.04352,3.08301-13.86334,8.01337-.02313-.00159-.04279-.01337-.06635-.01337h-3c-.49805,0-.91992.36572-.99023.8584l-1.01074,7.06982c-.43457,3.04541,1.17578,6.01709,3.8877,7.34424l-.68555,10.66992c-.13797,2.14731,1.62296,4.05762,3.79883,4.05762,2.10645,0,3.81934-1.70898,3.81934-3.81006,0-.05713-.00391-.11426-.01172-.24512l-.28308-4.35156c2.51373,1.55444,5.42584,2.40674,8.40515,2.40674,2.99017,0,5.91077-.85693,8.43109-2.42096l-.31,4.38385c-.14954,2.11478,1.80804,4.03709,3.87887,4.03711,2.18866.00002,3.95937-1.90476,3.87699-4.06982l-.20996-3c-.03809-.55127-.53027-.96094-1.06641-.92773-.55176.03857-.9668.5166-.92871,1.06738l.20898,2.96728c.17778,2.52421-3.84538,2.43919-3.76367.0337l.80957-11.43018c.03027-.42383-.21094-.82031-.60059-.98877-1.98926-.85986-3.32617-3.13135-3.32617-5.65186,0-3.30859,2.24316-6,5-6s5,2.69141,5,6c0,2.52051-1.33691,4.79199-3.32617,5.65186-.38965.16846-.63086.56445-.60156.98779l.30957,4.43018c.03906.55127.51953.96143,1.06738.92773.55176-.03857.9668-.51611.92871-1.06738l-.26367-3.76611c2.34961-1.34277,3.88574-4.12793,3.88574-7.16406ZM32.61255,32.02106c-2.45374,1.91736-5.4906,2.97894-8.612,2.97894-3.10364,0-6.1264-1.0509-8.57062-2.94983l-.24579-3.77771c.43994-.21545.8385-.48755,1.21643-.7829,1.88214,2.21356,4.64606,3.51044,7.59998,3.51044,3.04877,0,5.86102-1.35626,7.74371-3.67834.35657.31573.73108.6076,1.14105.84192l-.27277,3.85748ZM30.40564,25.76184c-1.49982,2.03192-3.8432,3.23816-6.40509,3.23816-2.42993,0-4.69159-1.10114-6.19769-2.96234,1.03302-1.44324,1.53192-3.25989,1.26801-5.10944l-.78479-5.49475c1.48914-1.5459,3.54309-2.43347,5.71448-2.43347,2.55725,0,4.89465,1.20245,6.3941,3.22961-.87134,1.33386-1.3941,2.98169-1.3941,4.77039,0,1.75031.52277,3.40674,1.40509,4.76184ZM31.73456,14.67188c-1.88019-2.31866-4.68909-3.67188-7.73401-3.67188-2.3136,0-4.52026.80908-6.27838,2.24194-.17603-.15112-.40405-.24194-.65131-.24194h-3c-.55273,0-1,.44775-1,1v2c0,.55225.44727,1,1,1s1-.44775,1-1v-1h1.13281l.88672,6.21143c.33789,2.36572-1.04492,4.66943-3.28906,5.47754-.41895.15088-.6875.56104-.65918,1.00586l.73828,11.31494c.06804,1.04275-.72212,1.99019-1.8095,1.99023-1.02086.00004-1.87154-.91097-1.80281-1.92627l.73047-11.37988c.02832-.44434-.24023-.854-.65918-1.00488-2.24414-.80811-3.62695-3.11182-3.28906-5.47754l.8877-6.21143h1.13281v7c0,.55225.44727,1,1,1h4c.55273,0,1-.44775,1-1v-2c0-.55225-.44727-1-1-1s-1,.44775-1,1v1h-2v-5.34961c2.16577-5.25916,7.21869-8.65039,12.92969-8.65039,4.65692,0,8.91644,2.27045,11.50873,6.02844-1.41565.11322-2.71417.7074-3.77472,1.64343Z"/>
</svg>