<?xml version="1.0" encoding="UTF-8"?>
<svg id="Outline" xmlns="http://www.w3.org/2000/svg" version="1.1" viewBox="0 0 64 64">
  <!-- Generator: Adobe Illustrator 29.5.1, SVG Export Plug-In . SVG Version: 2.1.0 Build 141)  -->
  <path d="M50.32,27.05c-.15-.05-.29-.06-.44-.04.07-.66.12-1.33.12-2.01,0-9.92-8.08-18-18-18S14,15.08,14,25c0,2.05.36,4.02,1,5.86v6.14h-2v-9c0-.55-.45-1-1-1s-1,.45-1,1v9h-2v-9c0-.55-.45-1-1-1s-1,.45-1,1v12c0,1.3.84,2.4,2,2.82v11.18c0,1.65,1.35,3,3,3s3-1.35,3-3v-11.18c1.16-.42,2-1.52,2-2.82v-5.07c3.23,4.86,8.74,8.07,15,8.07,7.87,0,14.56-5.09,17-12.14v15.14c0,.55.45,1,1,1h1v7c0,1.65,1.35,3,3,3s3-1.35,3-3v-17.68c0-4.21-2.69-7.94-6.68-9.27ZM13,54c0,.55-.45,1-1,1s-1-.45-1-1v-11h2v11ZM15,40c0,.55-.45,1-1,1h-4c-.55,0-1-.45-1-1v-1h6v1ZM32,41c-8.82,0-16-7.18-16-16s7.18-16,16-16,16,7.18,16,16-7.18,16-16,16ZM55,54c0,.55-.45,1-1,1s-1-.45-1-1v-7h2v7ZM55,45h-4v-2h4v2ZM55,41h-4v-11.47c2.44,1.35,4,3.93,4,6.79v4.68Z"/>
  <path d="M32,13c-6.617,0-12,5.383-12,12s5.383,12,12,12,12-5.383,12-12-5.383-12-12-12ZM32,35c-5.514,0-10-4.486-10-10s4.486-10,10-10,10,4.486,10,10-4.486,10-10,10Z"/>
</svg>