<?xml version="1.0" encoding="UTF-8"?>
<svg id="Outline" xmlns="http://www.w3.org/2000/svg" version="1.1" viewBox="0 0 64 64">
  <!-- Generator: Adobe Illustrator 29.5.1, SVG Export Plug-In . SVG Version: 2.1.0 Build 141)  -->
  <path d="M56,51h-1v-19c0-.55-.45-1-1-1h-2v-4c0-.39-.22-.74-.58-.91-.34-.16-.76-.11-1.06.14l-5.72,4.77h-1.64v-4c0-.39-.22-.74-.58-.91-.34-.16-.76-.11-1.06.14l-5.72,4.77h-1.64v-4c0-.39-.22-.74-.58-.91-.34-.16-.76-.11-1.06.14l-5.72,4.77h-1.64v-4h1c.55,0,1-.45,1-1v-4c0-.55-.45-1-1-1H8c-.55,0-1,.45-1,1v4c0,.55.45,1,1,1h1v24h-1c-.55,0-1,.45-1,1v4c0,.55.45,1,1,1h48c.55,0,1-.45,1-1v-4c0-.55-.45-1-1-1ZM27,33c.23,0,.46-.08.64-.23l4.36-3.64v2.87c0,.55.45,1,1,1h3c.23,0,.46-.08.64-.23l4.36-3.64v2.87c0,.55.45,1,1,1h3c.23,0,.46-.08.64-.23l4.36-3.64v2.87c0,.55.45,1,1,1h2v18h-28v-18h2ZM9,23h16v2H9v-2ZM23,27v24h-12v-24h12ZM55,55H9v-2h46v2Z"/>
  <path d="M14,19c.553,0,1-.447,1-1v-4c0-1.081.587-2.085,1.532-2.62.265-.149.446-.411.495-.711.153-.951,1.002-1.669,1.973-1.669.681,0,1.305.337,1.67.902.184.285.5.458.84.458s.655-.172.84-.457c.365-.565.982-.903,1.65-.903.896,0,1.683.607,1.913,1.477.074.276.262.508.518.637.254.127.553.143.819.035.502-.199.998-.199,1.5,0,.266.107.564.092.819-.035.256-.129.443-.36.518-.637.23-.869,1.018-1.477,1.913-1.477.839,0,1.594.543,1.877,1.351.16.458.646.724,1.123.649.627,0,1.207.286,1.589.785.39.507.508,1.142.336,1.782-.154.566-.595,1.054-1.159,1.274-.517.21-1.011.212-1.513.011-.266-.105-.563-.096-.821.033-.256.129-.444.36-.519.638-.23.869-1.018,1.477-1.913,1.477-.839,0-1.594-.543-1.877-1.351-.16-.457-.646-.725-1.123-.649-.254,0-.499-.049-.75-.148-.267-.107-.565-.092-.819.035-.256.129-.443.36-.518.637-.23.869-1.018,1.477-1.913,1.477-.834,0-1.59-.539-1.88-1.341-.144-.396-.52-.659-.94-.659h-.18c-1.654,0-3,1.346-3,3,0,.553.447,1,1,1s1-.447,1-1c0-.408.246-.761.599-.916.721,1.172,2.005,1.916,3.401,1.916,1.461,0,2.778-.802,3.471-2.036.021.003.044.006.066.009.702,1.236,2.019,2.027,3.463,2.027,1.461,0,2.777-.802,3.47-2.035.679.09,1.37.004,2.034-.264,1.15-.45,2.029-1.426,2.352-2.611.333-1.24.086-2.524-.68-3.521-.669-.873-1.64-1.42-2.713-1.542-.703-1.235-2.02-2.026-3.463-2.026-1.461,0-2.778.802-3.471,2.036-.352-.049-.707-.049-1.059,0-.692-1.234-2.01-2.036-3.471-2.036-.922,0-1.796.317-2.491.882-.698-.564-1.577-.882-2.509-.882-1.813,0-3.36,1.188-3.844,2.886-1.341.931-2.156,2.469-2.156,4.114v4c0,.553.447,1,1,1Z"/>
  <path d="M28,41h22c.553,0,1-.447,1-1v-4c0-.553-.447-1-1-1h-22c-.553,0-1,.447-1,1v4c0,.553.447,1,1,1ZM49,39h-9v-2h9v2ZM29,37h9v2h-9v-2Z"/>
  <path d="M20,29h-6c-.553,0-1,.447-1,1v4c0,.553.447,1,1,1h6c.553,0,1-.447,1-1v-4c0-.553-.447-1-1-1ZM19,33h-4v-2h4v2Z"/>
</svg>