<?xml version="1.0" encoding="UTF-8"?>
<svg id="Outline" xmlns="http://www.w3.org/2000/svg" version="1.1" viewBox="0 0 64 64">
  <!-- Generator: Adobe Illustrator 29.5.1, SVG Export Plug-In . SVG Version: 2.1.0 Build 141)  -->
  <path d="M48.23,23.561c.18-.1.37-.18.55-.28.3-.18.49-.5.5-.85.01-.35-.17-.68-.47-.87-3.99-2.47-8.75-3.99-13.81-4.42v-.48c0-1.94.75-3.76,2.12-5.12.39-.4.39-1.03,0-1.42l-2.83-2.83c-.39-.39-1.02-.39-1.41,0-2.5,2.5-3.88,5.83-3.88,9.37v.49c-6.18.53-11.93,2.7-16.28,6.15-.3.23-.44.62-.36.99.08.37.37.67.74.76l.46.12c-4.19,3.48-6.56,8.06-6.56,12.83,0,10.48,11.21,19,25,19s25-8.52,25-19c0-5.57-3.25-10.86-8.77-14.44ZM30.06,19.081c.53-.03.94-.47.94-1v-1.42c0-2.67.92-5.2,2.62-7.22l1.42,1.43c-1.32,1.63-2.04,3.65-2.04,5.79v1.41c0,.53.41.96.94.99,4.42.26,8.61,1.4,12.23,3.3-3.44,1.51-7.26,1.84-10.94.92l-.99-.25c-.32-.08-.66,0-.91.23-.25.22-.37.55-.32.88l.48,3.33c.3,2.1-.24,4.2-1.51,5.9l-.21.27c-2.22-1.7-3.41-4.48-3.05-7.3l.27-2.22c.04-.33-.08-.66-.34-.88-.18-.16-.41-.24-.65-.24-.09,0-.18.01-.27.04l-2.36.67c-2.87.82-5.91.87-8.81.15l-.89-.23c4.02-2.64,9.05-4.24,14.39-4.55ZM32,55.001c-10.33,0-19.09-5.06-21.98-12h43.96c-2.89,6.94-11.65,12-21.98,12ZM51,41.001v-3c0-.55-.45-1-1-1s-1,.45-1,1v3h-2v-1c0-.55-.45-1-1-1s-1,.45-1,1v1h-2v-1c0-.55-.45-1-1-1s-1,.45-1,1v1h-2v-3c0-.55-.45-1-1-1s-1,.45-1,1v3h-2v-1c0-.55-.45-1-1-1s-1,.45-1,1v1h-2v-1c0-.55-.45-1-1-1s-1,.45-1,1v1h-2v-3c0-.55-.45-1-1-1s-1,.45-1,1v3h-2v-1c0-.55-.45-1-1-1s-1,.45-1,1v1h-2v-1c0-.55-.45-1-1-1s-1,.45-1,1v1h-2v-3c0-.55-.45-1-1-1s-1,.45-1,1v3h-3.63c-.24-.97-.37-1.98-.37-3,0-4.58,2.56-9.01,7.04-12.21l.04.01c3.23.81,6.63.75,9.84-.16l.9-.26-.09.71c-.49,3.91,1.38,7.74,4.76,9.77.16.09.33.14.51.14.3,0,.6-.14.8-.4l.78-1.03c1.59-2.13,2.26-4.75,1.89-7.38l-.27-1.87c3.64.82,7.38.54,10.83-.77,5.62,3.21,8.97,8.21,8.97,13.45,0,1.02-.13,2.03-.37,3h-3.63Z"/>
  <path d="M32.895,45.554c-.339-.678-1.45-.678-1.789,0l-3,6c-.155.31-.138.678.044.973.182.294.504.474.851.474h6c.347,0,.668-.18.851-.474.182-.295.199-.663.044-.973l-3-6ZM30.618,51.001l1.382-2.764,1.382,2.764h-2.764Z"/>
</svg>