<?xml version="1.0" encoding="UTF-8"?>
<svg id="Outline" xmlns="http://www.w3.org/2000/svg" version="1.1" viewBox="0 0 64 64">
  <!-- Generator: Adobe Illustrator 29.5.1, SVG Export Plug-In . SVG Version: 2.1.0 Build 141)  -->
  <path d="M56.68,41.576c-.13-.54-.68-.86-1.21-.73-.54.13-.86.67-.73,1.21.17.7.26,1.42.26,2.15,0,4.96-4.04,9-9,9s-9-4.04-9-9,4.04-9,9-9c1.59,0,3.15.42,4.5,1.21.48.28,1.09.12,1.37-.36.28-.47.12-1.08-.36-1.36-.94-.56-1.97-.94-3.04-1.19-1.94-7.47-9.11-13.7-17.2-15.02.44-1.94,1.41-3.72,2.85-5.16.39-.39.39-1.02,0-1.41l-2.83-2.83c-.39-.39-1.02-.39-1.41,0-2.56,2.56-4.17,5.82-4.68,9.34-9.94,1.36-18.2,9.84-18.2,18.91,0,8.89,8.44,14.87,21,14.87,3.31,0,6.48-.47,9.27-1.34,2.01,2.63,5.17,4.34,8.73,4.34,6.07,0,11-4.93,11-11,0-.89-.11-1.77-.32-2.63ZM17.27,23.566c2.32-1.54,4.96-2.64,7.75-3.1,0,.14-.02.26-.02.4v1.34c0,.55.45,1,1,1s1-.45,1-1v-1.34c0-3.58,1.27-6.97,3.61-9.64l1.42,1.42c-1.6,1.87-2.6,4.14-2.91,6.56v.02c-.07.54-.12,1.08-.12,1.64v1.34c0,.55.45,1,1,1s1-.45,1-1v-1.34c0-.13.01-.26.02-.39,2.76.45,5.39,1.53,7.7,3.06l.89,2.67h-3.61c-.5,0-.92.37-.99.86l-.77,5.37-5.66-4.04c-.35-.25-.81-.25-1.16,0l-5.66,4.04-.77-5.37c-.07-.49-.49-.86-.99-.86h-3.61l.88-2.64ZM28,50.206c-9.46,0-19-3.98-19-12.87,0-4.19,2.11-8.31,5.39-11.47l-.34,1.02c-.1.31-.05.64.14.9.19.27.49.42.81.42h4.13l.88,6.14c.05.35.28.64.6.78s.69.1.97-.11l6.42-4.58,6.42,4.58c.597.426,1.467.054,1.57-.67l.88-6.14h4.13c.32,0,.62-.15.81-.42.19-.26.24-.59.14-.9l-.35-1.05c2.18,2.1,3.85,4.64,4.73,7.39-.11,0-.22-.02-.33-.02-6.07,0-11,4.93-11,11,0,1.76.43,3.42,1.17,4.9-2.48.71-5.26,1.1-8.17,1.1Z"/>
  <path d="M41.05,49.156c.388.388,1.026.388,1.414,0l2.25-2.25c.391.187.824.301,1.285.301,1.654,0,3-1.346,3-3,0-1.302-.839-2.402-2-2.816v-3.184c0-.552-.448-1-1-1s-1,.448-1,1v3.184c-1.161.414-2,1.514-2,2.816,0,.462.113.894.301,1.285l-2.25,2.25c-.391.391-.391,1.023,0,1.414ZM46,43.206c.551,0,1,.449,1,1s-.449,1-1,1-1-.449-1-1,.449-1,1-1Z"/>
  <circle cx="54" cy="38.206" r="1"/>
</svg>