<?xml version="1.0" encoding="UTF-8"?>
<svg id="Outline" xmlns="http://www.w3.org/2000/svg" version="1.1" viewBox="0 0 64 64">
  <!-- Generator: Adobe Illustrator 29.5.1, SVG Export Plug-In . SVG Version: 2.1.0 Build 141)  -->
  <path d="M56.76,17.35c-.36-.42-.99-.47-1.41-.11l-5.5,4.72c-.19-.68-.53-1.3-1.03-1.79.12-.38.18-.77.18-1.17,0-2.05-1.55-3.74-3.54-3.97-.55-.98-1.48-1.67-2.56-1.93-.41-1.77-2-3.1-3.9-3.1-.92,0-1.8.32-2.5.88-.73-.59-1.65-.9-2.63-.88-.44-1.72-2.01-3-3.87-3-1.46,0-2.78.8-3.47,2.04-.18-.03-.35-.04-.53-.04-2.21,0-4,1.79-4,4,0,.18.01.36.04.53-.44.25-.82.57-1.14.96-.58-.32-1.23-.49-1.9-.49-2.21,0-4,1.79-4,4,0,.67.17,1.32.49,1.9-.65.53-1.11,1.25-1.33,2.06l-5.51-4.72c-.42-.36-1.05-.31-1.41.11s-.31,1.05.11,1.41l6.73,5.77,5.94,31.65c.09.48.5.82.98.82h22c.48,0,.89-.34.98-.82l5.94-31.65,6.73-5.77c.42-.36.47-.99.11-1.41ZM29,25h18.79l-5.62,30h-20.34l-5.62-30h4.79c.55,0,1-.45,1-1s-.45-1-1-1h-5c0-.84.52-1.57,1.32-1.87.33-.13.56-.41.63-.75.07-.34-.05-.69-.31-.93-.4-.37-.64-.9-.64-1.45,0-1.1.9-2,2-2,.55,0,1.08.24,1.45.65.24.25.59.37.93.3.34-.06.63-.3.75-.63.22-.61.73-1.07,1.35-1.23.27-.08.51-.27.63-.52.13-.26.14-.55.04-.82-.1-.25-.15-.5-.15-.75,0-1.36,1.41-2.39,2.75-1.85.26.1.56.09.82-.04.26-.12.44-.36.52-.63.23-.87,1.01-1.48,1.91-1.48,1.1,0,2,.9,2,1.95-.01.05-.02.19-.02.24,0,.33.16.64.43.82.27.19.62.23.92.12.9-.34,1.83.02,2.34.77.37.56,1.29.56,1.66,0,.38-.56,1-.9,1.67-.9,1.1,0,2,.9,2,2,0,.55.45,1,1,1,.84,0,1.59.54,1.88,1.35.16.46.64.73,1.12.65,1.1,0,2,.9,2,2,0,.34-.09.66-.27.98-.26.46-.12,1.05.34,1.34.58.36.93.99.93,1.68h-19c-.55,0-1,.45-1,1s.45,1,1,1Z"/>
  <path d="M28,20c.553,0,1-.448,1-1s-.447-1-1-1-1-.449-1-1,.448-1,1-1c.2,0,.394.059.559.171.257.174.58.218.874.122.295-.098.527-.326.63-.619.142-.403.519-.674.938-.674.552,0,1,.449,1,1s.447,1,1,1,1-.448,1-1c0-1.654-1.346-3-3-3-.903,0-1.739.411-2.298,1.083-.229-.055-.464-.083-.702-.083-1.654,0-3,1.346-3,3s1.346,3,3,3Z"/>
  <path d="M36,19c.553,0,1-.448,1-1s.448-1,1-1,1,.449,1,1,.447,1,1,1,1-.448,1-1c0-1.654-1.346-3-3-3s-3,1.346-3,3c0,.552.447,1,1,1Z"/>
  <path d="M21,40c0,3.925,4.832,7,11,7s11-3.075,11-7-4.832-7-11-7-11,3.075-11,7ZM33,35.035c1.063.069,2.073.248,3,.511v8.908c-.927.264-1.937.442-3,.511v-9.931ZM31,44.965c-1.063-.069-2.073-.248-3-.511v-8.908c.927-.264,1.937-.442,3-.511v9.931ZM41,40c0,1.442-1.173,2.761-3,3.683v-7.366c1.827.922,3,2.241,3,3.683ZM26,36.317v7.366c-1.827-.922-3-2.241-3-3.683s1.173-2.761,3-3.683Z"/>
  <circle cx="25" cy="24" r="1"/>
</svg>