<?xml version="1.0" encoding="UTF-8"?>
<svg id="Outline" xmlns="http://www.w3.org/2000/svg" version="1.1" viewBox="0 0 64 64">
  <!-- Generator: Adobe Illustrator 29.5.1, SVG Export Plug-In . SVG Version: 2.1.0 Build 141)  -->
  <path d="M54.96997,32c1.22003-.91003,2.03003-2.35999,2.03003-4,0-5.60999-2.19-10.88-6.15002-14.85004-3.96997-3.95996-9.23999-6.14996-14.84998-6.14996-1.32001,0-2.58002.51996-3.53998,1.46997-.17004.17004-.32001.37-.46002.56-.90997-1.21997-2.35999-2.02997-4-2.02997-5.60999,0-10.88,2.19-14.84998,6.14996-3.96002,3.97003-6.15002,9.24005-6.15002,14.85004,0,1.32001.52002,2.57996,1.46997,3.53998.17004.16998.37006.32001.56006.46002-1.22003.90997-2.03003,2.35999-2.03003,4,0,5.60999,2.19,10.88,6.15002,14.84998,3.96997,3.96002,9.23999,6.15002,14.84998,6.15002,1.32001,0,2.58002-.52002,3.53998-1.47003.17004-.16998.32001-.37.46002-.56.90997,1.22003,2.35999,2.03003,4,2.03003,5.60999,0,10.88-2.19,14.84998-6.15002,3.96002-3.96997,6.15002-9.23999,6.15002-14.84998,0-1.32001-.52002-2.58002-1.46997-3.54004-.17004-.16998-.37006-.31995-.56006-.45996ZM33,12c0-.79999.31-1.54999.87-2.12.58002-.57001,1.33002-.88,2.13-.88,5.07001,0,9.84003,1.97998,13.42999,5.57001,3.59003,3.58997,5.57001,8.35999,5.57001,13.42999,0,1.64996-1.34998,3-3,3h-11.06c-.06-.52002-.15997-1.02002-.29999-1.5l11.33997-4.70001c.51001-.21002.76001-.78998.54004-1.29999-.21002-.51001-.79004-.76001-1.30005-.54004l-11.34998,4.69c-.23999-.44995-.52997-.87-.84998-1.25995l8.69-8.68005c.38995-.38995.38995-1.02997,0-1.41998-.39001-.39001-1.03003-.39001-1.42004,0l-8.67999,8.69c-.39001-.32001-.81-.60999-1.26001-.84998l4.69-11.35004c.22003-.51001-.02997-1.08997-.53998-1.29999-.51001-.21997-1.09003.03003-1.29999.53998l-4.70001,11.34003c-.47998-.14001-.97998-.23999-1.5-.29999v-11.06ZM9,28c0-5.07001,1.97998-9.84003,5.57001-13.42999,3.58997-3.59003,8.35999-5.57001,13.42999-5.57001,1.65002,0,3,1.34998,3,3v11.06c-.52002.06-1.02002.15997-1.5.29999l-4.70001-11.34003c-.20996-.50995-.78998-.75995-1.29999-.53998-.51001.21002-.76001.78998-.53998,1.29999l4.69,11.35004c-.45001.23999-.87.52997-1.26001.84998l-8.67999-8.69c-.39001-.39001-1.03003-.39001-1.42004,0-.38995.39001-.38995,1.03003,0,1.41998l8.69,8.68005c-.32001.38995-.60999.81-.84998,1.25995l-11.34998-4.69c-.51001-.21997-1.09003.03003-1.30005.54004-.21997.51001.03003,1.08997.54004,1.29999l11.33997,4.70001c-.14001.47998-.23999.97998-.29999,1.5h-11.06c-.79999,0-1.54999-.31-2.12-.87-.57001-.58002-.88-1.33002-.88-2.13ZM31,52c0,.79999-.31,1.54999-.87,2.12-.58002.57001-1.33002.88-2.13.88-5.07001,0-9.84003-1.98004-13.42999-5.57001s-5.57001-8.35999-5.57001-13.42999c0-1.65002,1.34998-3,3-3h11.06c.06.51996.15997,1.01996.29999,1.5l-11.33997,4.70001c-.51001.20996-.76001.78998-.54004,1.29999.16003.39001.53003.62.92004.62.13,0,.25995-.02002.38-.08002l11.34998-4.69c.23999.45001.52997.87.84998,1.26001l-8.69,8.67999c-.38995.39001-.38995,1.03003,0,1.41998.20001.19.45001.29004.71002.29004s.51001-.10004.71002-.29004l8.67999-8.69c.39001.32001.81.61005,1.26001.85004l-4.69,11.34998c-.22003.51001.02997,1.09003.53998,1.29999.12.06.25.08002.38.08002.39001,0,.76001-.22998.91998-.62l4.70001-11.33997c.47998.13995.97998.23999,1.5.29999v11.06ZM32,39c-3.85999,0-7-3.14001-7-7s3.14001-7,7-7,7,3.14001,7,7-3.14001,7-7,7ZM49.42999,49.42999c-3.58997,3.58997-8.35999,5.57001-13.42999,5.57001-1.65002,0-3-1.35004-3-3v-11.06c.52002-.06,1.02002-.16003,1.5-.29999l4.70001,11.33997c.15997.39001.52997.62.91998.62.13,0,.26001-.02002.38-.08002.51001-.20996.76001-.78998.53998-1.29999l-4.69-11.34998c.45001-.23999.87-.53003,1.26001-.85004l8.67999,8.69c.20001.19.45001.29004.71002.29004s.51001-.10004.71002-.29004c.38995-.38995.38995-1.02997,0-1.41998l-8.69-8.67999c.32001-.39001.60999-.81.84998-1.26001l11.34998,4.69c.12006.06.25.08002.38.08002.39001,0,.76001-.22998.92004-.62.21997-.51001-.03003-1.09003-.54004-1.29999l-11.33997-4.70001c.14001-.48004.23999-.98004.29999-1.5h11.06c.79999,0,1.54999.31,2.12.87.57001.58002.88,1.33002.88,2.13,0,5.07001-1.97998,9.83997-5.57001,13.42999Z"/>
  <path d="M32,27c-2.75684,0-5,2.24316-5,5s2.24316,5,5,5,5-2.24316,5-5-2.24316-5-5-5ZM32,35c-1.6543,0-3-1.3457-3-3s1.3457-3,3-3,3,1.3457,3,3-1.3457,3-3,3Z"/>
</svg>