<?xml version="1.0" encoding="UTF-8"?>
<svg id="Outline" xmlns="http://www.w3.org/2000/svg" version="1.1" viewBox="0 0 64 64">
  <!-- Generator: Adobe Illustrator 29.5.1, SVG Export Plug-In . SVG Version: 2.1.0 Build 141)  -->
  <path d="M54.969,32c1.225-.912,2.031-2.359,2.031-4,0-5.605-2.185-10.879-6.153-14.847s-9.241-6.153-14.847-6.153c-1.324,0-2.579.518-3.542,1.468-.172.175-.314.37-.458.563-.912-1.225-2.359-2.031-4-2.031-5.606,0-10.879,2.186-14.847,6.153s-6.153,9.241-6.153,14.847c0,1.323.518,2.578,1.468,3.542.175.172.37.315.563.458-1.225.912-2.031,2.359-2.031,4,0,5.605,2.185,10.879,6.153,14.847s9.241,6.153,14.847,6.153c1.324,0,2.579-.518,3.542-1.468.172-.175.314-.37.458-.563.912,1.225,2.359,2.031,4,2.031,5.606,0,10.879-2.186,14.847-6.153s6.153-9.241,6.153-14.847c0-1.323-.518-2.578-1.468-3.542-.175-.172-.37-.315-.563-.458ZM33.872,9.882c.577-.568,1.333-.882,2.128-.882,5.072,0,9.843,1.978,13.433,5.567,3.59,3.591,5.567,8.361,5.567,13.433,0,1.654-1.346,3-3,3h-6.075c-.208-.897-.688-1.718-1.394-2.335l-.534-.467c-.198-.173-.352-.384-.482-.608,1.698-1.526,3.863-2.369,6.163-2.369.552,0,1-.447,1-1s-.448-1-1-1c-2.351,0-4.586.726-6.468,2.056.021-1.197-.426-2.358-1.277-3.209s-2.007-1.294-3.21-1.279c1.33-1.881,2.056-4.117,2.056-6.468,0-.553-.448-1-1-1s-1,.447-1,1c0,2.3-.844,4.466-2.369,6.164-.224-.131-.435-.285-.608-.483l-.467-.534c-.617-.706-1.438-1.186-2.335-1.394v-6.075c0-.795.313-1.551.872-2.118ZM42.68,34.296c-1.034.905-1.596,2.264-1.503,3.632l.047.71c.047.699-.21,1.384-.706,1.88-.496.495-1.182.754-1.881.706l-.708-.048c-1.371-.078-2.729.47-3.632,1.505l-.468.534c-.923,1.057-2.735,1.057-3.659,0l-.466-.533c-.839-.962-2.07-1.516-3.339-1.516-.098,0-.195.004-.293.01l-.708.048c-.694.051-1.386-.21-1.881-.706s-.752-1.181-.706-1.881l.047-.708c.093-1.369-.469-2.728-1.504-3.633l-.534-.467c-.528-.461-.831-1.128-.831-1.829s.303-1.368.83-1.829l.536-.467c1.034-.905,1.596-2.264,1.503-3.632l-.047-.71c-.047-.699.21-1.384.706-1.88.495-.495,1.176-.758,1.881-.706l.708.048c1.375.083,2.729-.47,3.632-1.505l.468-.534c.923-1.057,2.735-1.057,3.658,0h0l.466.533c.904,1.036,2.262,1.589,3.633,1.506l.708-.048c.696-.051,1.386.21,1.881.706s.752,1.181.706,1.881l-.047.708c-.038.554.037,1.104.201,1.625.005.015.009.029.015.044.246.75.683,1.436,1.288,1.965l.534.467c.528.461.831,1.128.831,1.829s-.303,1.368-.83,1.829l-.536.467ZM9.882,30.128c-.569-.577-.882-1.333-.882-2.128,0-5.071,1.977-9.842,5.567-13.433,3.59-3.59,8.361-5.567,13.433-5.567,1.654,0,3,1.346,3,3v6.075c-.897.208-1.718.688-2.334,1.394l-.468.535c-.173.197-.383.351-.606.482-1.526-1.698-2.369-3.864-2.369-6.164,0-.553-.448-1-1-1s-1,.447-1,1c0,2.35.725,4.586,2.056,6.467-1.198-.018-2.358.428-3.21,1.28s-1.299,2.012-1.277,3.209c-1.881-1.33-4.117-2.056-6.468-2.056-.552,0-1,.447-1,1s.448,1,1,1c2.3,0,4.466.844,6.163,2.369-.131.223-.284.434-.482.607l-.535.467c-.706.617-1.185,1.438-1.394,2.335h-6.075c-.795,0-1.551-.313-2.118-.872ZM30.128,54.118c-.577.568-1.333.882-2.128.882-5.072,0-9.843-1.978-13.433-5.567-3.59-3.591-5.567-8.361-5.567-13.433,0-1.654,1.346-3,3-3h6.075c.208.897.688,1.718,1.394,2.335l.534.467c.198.173.352.384.482.608-1.698,1.526-3.863,2.369-6.163,2.369-.552,0-1,.447-1,1s.448,1,1,1c2.351,0,4.586-.726,6.468-2.056-.021,1.197.426,2.358,1.277,3.209s2.003,1.294,3.21,1.279c-1.33,1.881-2.056,4.117-2.056,6.468,0,.553.448,1,1,1s1-.447,1-1c0-2.3.844-4.466,2.369-6.164.224.131.434.285.608.483l.467.534c.617.706,1.438,1.186,2.335,1.394v6.075c0,.795-.313,1.551-.872,2.118ZM49.433,49.433c-3.59,3.59-8.361,5.567-13.433,5.567-1.654,0-3-1.346-3-3v-6.075c.897-.208,1.718-.688,2.334-1.394l.468-.535c.173-.198.383-.351.606-.482,1.526,1.698,2.369,3.864,2.369,6.164,0,.553.448,1,1,1s1-.447,1-1c0-2.35-.725-4.585-2.055-6.466,1.2.025,2.358-.429,3.209-1.281.851-.851,1.299-2.012,1.277-3.209,1.881,1.33,4.117,2.056,6.468,2.056.552,0,1-.447,1-1s-.448-1-1-1c-2.3,0-4.466-.844-6.163-2.369.131-.223.284-.434.482-.607l.535-.467c.706-.617,1.185-1.438,1.394-2.335h6.075c.795,0,1.551.313,2.118.872.569.577.882,1.333.882,2.128,0,5.071-1.977,9.842-5.567,13.433Z"/>
  <path d="M32,24c-4.411,0-8,3.589-8,8s3.589,8,8,8,8-3.589,8-8-3.589-8-8-8ZM32,38c-3.309,0-6-2.691-6-6s2.691-6,6-6,6,2.691,6,6-2.691,6-6,6Z"/>
  <path d="M32,28c-2.206,0-4,1.794-4,4s1.794,4,4,4,4-1.794,4-4-1.794-4-4-4ZM32,34c-1.103,0-2-.897-2-2s.897-2,2-2,2,.897,2,2-.897,2-2,2Z"/>
</svg>