<?xml version="1.0" encoding="UTF-8"?>
<svg id="Outline" xmlns="http://www.w3.org/2000/svg" version="1.1" viewBox="0 0 64 64">
  <!-- Generator: Adobe Illustrator 29.5.1, SVG Export Plug-In . SVG Version: 2.1.0 Build 141)  -->
  <path d="M44,29c.55,0,1-.45,1-1v-8c0-3.48-1.35-6.74-3.8-9.2-2.45-2.45-5.72-3.8-9.2-3.8-5.51,0-10.44,3.49-12.26,8.69-.12.32-.05.68.16.94.21.27.54.42.89.38,1.17-.11,2.21.81,2.21,1.99,0,.84-.52,1.57-1.32,1.87-.33.13-.56.41-.63.75-.07.34.05.69.31.93.4.37.64.9.64,1.45,0,1.1-.9,2-2,2-.55,0-1,.45-1,1v13c0,.55.45,1,1,1h9v3.03c-.27.2-.52.43-.74.69l-5.99-1.68c-.3-.09-.62-.03-.87.16s-.4.49-.4.8v8c0,.548.456,1,1,1,.09,0,.18-.01.27-.04l5.99-1.68c.22.26.47.49.74.69v2.03c0,1.65,1.35,3,3,3s3-1.35,3-3v-2.03c.27-.2.52-.43.74-.69l5.99,1.68c.09.03.18.04.27.04.545,0,1-.451,1-1v-8c0-.31-.15-.61-.4-.8s-.57-.25-.87-.16l-5.99,1.68c-.22-.26-.47-.49-.74-.69v-3.03h9c.55,0,1-.45,1-1v-8c0-.55-.45-1-1-1s-1,.45-1,1v2c0,.55-.45,1-1,1h-14c-.55,0-1,.45-1,1s.45,1,1,1h14c.35,0,.69-.07,1-.18v2.18h-22v-2.18c.31.11.65.18,1,.18h2c.55,0,1-.45,1-1s-.45-1-1-1h-2c-.55,0-1-.45-1-1v-6.13c1.72-.44,3-2.01,3-3.87,0-.67-.17-1.32-.49-1.9.92-.75,1.49-1.89,1.49-3.1,0-1.82-1.22-3.35-2.88-3.84,1.06-2.16,2.79-3.88,4.88-4.95v13.79c0,1.65,1.35,3,3,3s3-1.35,3-3v-3c0-.55.45-1,1-1s1,.45,1,1v6c0,1.65,1.35,3,3,3s3-1.35,3-3v-2c0-.55.45-1,1-1h1v4c0,.55.45,1,1,1ZM27.25,49.49l-4.25,1.19v-5.36l4.25,1.19c-.15.48-.25.97-.25,1.49s.1,1.01.25,1.49ZM36.75,46.51l4.25-1.19v5.36l-4.25-1.19c.15-.48.25-.97.25-1.49s-.1-1.01-.25-1.49ZM33,54c0,.55-.45,1-1,1s-1-.45-1-1v-1.1c.32.06.66.1,1,.1s.68-.04,1-.1v1.1ZM31,41h2v2.1c-.32-.06-.66-.1-1-.1s-.68.04-1,.1v-2.1ZM32,45c1.65,0,3,1.35,3,3s-1.35,3-3,3-3-1.35-3-3,1.35-3,3-3ZM42,22c-1.65,0-3,1.35-3,3v2c0,.55-.45,1-1,1s-1-.45-1-1v-6c0-1.65-1.35-3-3-3s-3,1.35-3,3v3c0,.55-.45,1-1,1s-1-.45-1-1v-14.58c.96-.27,1.97-.42,3-.42,2.94,0,5.71,1.14,7.78,3.22,2.08,2.07,3.22,4.84,3.22,7.78v2h-1Z"/>
</svg>