<?xml version="1.0" encoding="UTF-8"?>
<svg id="Outline" xmlns="http://www.w3.org/2000/svg" version="1.1" viewBox="0 0 64 64">
  <!-- Generator: Adobe Illustrator 29.3.1, SVG Export Plug-In . SVG Version: 2.1.0 Build 151)  -->
  <path d="M55.61138,31.67651l-9.02832-18.05615c-1.58008-3.15869-4.75488-5.12061-8.28516-5.12061-3.19629,0-5.99023,2.04785-6.95312,5.0957-3.26855,10.3501-9.52441,19.34326-18.09277,26.00732l-3.66309,2.84961c-1.79004,1.39111-2.81641,3.48926-2.81641,5.75586,0,2.02246.80859,3.90234,2.27637,5.29297,1.37012,1.29736,3.13281,1.99902,5.00195,1.99902.13477,0,.27051-.00391.40625-.01123l28.19727-1.52441c3.5332-.19043,6.91992-1.60645,9.53809-3.98682,5.08789-4.62451,6.49316-12.15039,3.41895-18.30127ZM50.84673,48.49829c-2.27832,2.07129-5.22559,3.30322-8.2998,3.46924l-28.19727,1.52441c-1.47168.07715-2.86035-.43311-3.9248-1.44238-1.06543-1.00928-1.65234-2.37354-1.65234-3.84131,0-1.64502.74512-3.16748,2.04395-4.17676l3.66406-2.84961c8.88965-6.91504,15.37988-16.24561,18.77051-26.98389.69922-2.21191,2.72754-3.69824,5.04688-3.69824,2.76855,0,5.25781,1.53857,6.49609,4.01514l9.02832,18.05615c2.67578,5.35303,1.45215,11.90234-2.97559,15.92725Z"/>
  <path d="M43.00591,15.40991c-.89844-1.79492-2.70215-2.91016-4.70801-2.91016-1.44238,0-2.7041.92432-3.13867,2.30029-1.63379,5.17188-3.98926,10.08008-7.00293,14.58936-.30273.45215-.18848,1.06299.25781,1.375l6.33691,4.43652c.29199.2041.67285.23828.99512.0874.41113-.19141.83496-.28857,1.25977-.28857,1.6543,0,3,1.3457,3,3s-1.3457,3-3,3-3-1.3457-2.99023-3.07275l.02051-.17578c.03125-.35547-.12988-.70068-.42285-.90576l-6.38867-4.47217c-.4375-.30664-1.03809-.21484-1.36426.20752-2.94336,3.80469-6.35938,7.22998-10.15234,10.17969l-3.66406,2.8501c-.80859.62744-1.27148,1.57422-1.27148,2.59766,0,1.81494,1.47363,3.2915,3.31055,3.29102h.00098l28.35449-1.52881c2.61523-.14111,5.12402-1.18994,7.06348-2.95264,3.76758-3.4248,4.80859-8.99756,2.53125-13.55225l-9.02734-18.05566ZM48.1563,45.53784c-1.59961,1.4541-3.66797,2.31885-5.8252,2.43555l-28.16992,1.52344-.10352.00293c-.70898,0-1.28516-.57959-1.28516-1.2915,0-.40137.18164-.77246.49902-1.01855l3.66504-2.8501c3.67383-2.8584,7.00586-6.14648,9.91602-9.78564l5.15625,3.60938c.08594,2.68164,2.29492,4.83643,4.99707,4.83643,2.75684,0,5-2.24316,5-5s-2.24316-5-5-5c-.52441,0-1.04395.08545-1.54883.25391l-5.10156-3.57129c2.86328-4.43994,5.11914-9.23926,6.70996-14.27979.1709-.54004.66602-.90283,1.23242-.90283,1.24316,0,2.3623.69141,2.91895,1.80469l9.02734,18.05566c1.87891,3.75684,1.02051,8.35303-2.08789,11.17773Z"/>
</svg>