<?xml version="1.0" encoding="UTF-8"?>
<svg id="Outline" xmlns="http://www.w3.org/2000/svg" version="1.1" viewBox="0 0 48 48">
  <!-- Generator: Adobe Illustrator 29.5.1, SVG Export Plug-In . SVG Version: 2.1.0 Build 141)  -->
  <path d="M43,24c0-3.68-1.05-7.22-3.05-10.3.67-.73,1.05-1.68,1.05-2.7,0-2.21-1.79-4-4-4-1.02,0-1.97.38-2.7,1.05-3.08-2-6.62-3.05-10.3-3.05C13.52,5,5,13.52,5,24c0,3.68,1.05,7.22,3.05,10.3-.67.73-1.05,1.68-1.05,2.7,0,2.21,1.79,4,4,4,1.02,0,1.97-.38,2.7-1.05,3.08,2,6.62,3.05,10.3,3.05,2.45,0,4.82-.49,7.06-1.4.06.07.1.14.15.2.72.76,1.74,1.2,2.79,1.2s2.07-.44,2.79-1.2c.72-.77,1.09-1.81,1.03-2.85l-.11-1.82c3.41-3.55,5.29-8.19,5.29-13.13ZM30.39,35.31c-1.93,1.1-4.13,1.69-6.39,1.69-6.03,0-11.27-4.22-12.63-10h19.51l-.49,8.31ZM35.43,25.43c-.24.2-.38.51-.36.83l.62,10.5v.01l.14,2.29c.03.51-.15,1-.5,1.37-.7.74-1.96.74-2.66,0-.35-.37-.53-.86-.5-1.37l.76-12.8c.02-.32-.12-.63-.36-.83-.86-.72-1.43-1.99-1.55-3.4,0-.01.01-.02.01-.03,0-.02-.01-.03-.01-.04-.01-.15-.02-.31-.02-.46,0-2.44,1.37-4.5,3-4.5s3,2.06,3,4.5c0,1.62-.6,3.12-1.57,3.93ZM29.02,21h-2.02v-9.63c2.46.58,4.68,1.86,6.4,3.68-2.35.37-4.2,2.86-4.38,5.95ZM37.34,30.81c.75-1.47,1.26-3.03,1.49-4.67.04-.29-.05-.58-.24-.8-.11-.13-.25-.21-.41-.27.53-1.04.82-2.27.82-3.57,0-2.31-.93-4.34-2.33-5.49-2.34-3.73-6.17-6.22-10.53-6.84-.29-.04-.58.04-.8.23-.21.19-.34.47-.34.76v11.84c0,.55.45,1,1,1h3.13c.13.71.35,1.39.65,2H10.16c-.29,0-.57.13-.76.34-.19.22-.27.51-.23.8,1.05,7.33,7.42,12.86,14.83,12.86,2.18,0,4.31-.47,6.26-1.37l-.08,1.32c-.02.28,0,.56.05.84-1.99.79-4.07,1.21-6.23,1.21-3.57,0-6.99-1.1-9.9-3.19-.22-.16-.5-.22-.77-.17-.27.05-.51.21-.65.44-.37.58-1,.92-1.68.92-1.1,0-2-.9-2-2,0-.68.34-1.31.92-1.68.23-.14.39-.38.44-.65s-.01-.55-.17-.77c-2.09-2.91-3.19-6.33-3.19-9.9,0-9.37,7.63-17,17-17,3.57,0,6.99,1.1,9.9,3.19.22.16.5.22.77.17.27-.05.51-.21.65-.44.37-.58,1-.92,1.68-.92,1.1,0,2,.9,2,2,0,.68-.34,1.31-.92,1.68-.23.14-.39.38-.44.65-.05.27.01.55.17.77,2.09,2.91,3.19,6.33,3.19,9.9,0,3.76-1.22,7.31-3.45,10.25l-.21-3.44Z"/>
  <path d="M10.159,23h11.841c.552,0,1-.447,1-1v-11.841c0-.29-.126-.565-.345-.756-.219-.189-.511-.275-.797-.234-6.534.938-11.751,6.155-12.688,12.689-.042.287.044.577.234.797.19.219.466.345.756.345ZM21,11.366v9.634h-9.634c1.128-4.743,4.891-8.506,9.634-9.634Z"/>
</svg>