<?xml version="1.0" encoding="UTF-8"?>
<svg id="Outline" xmlns="http://www.w3.org/2000/svg" version="1.1" viewBox="0 0 64 64">
  <!-- Generator: Adobe Illustrator 29.5.1, SVG Export Plug-In . SVG Version: 2.1.0 Build 141)  -->
  <path d="M54,13h-7v-3c0-1.65-1.35-3-3-3h-24c-1.65,0-3,1.35-3,3v3h-7c-1.65,0-3,1.35-3,3v5c0,.55.45,1,1,1s1-.45,1-1v-5c0-.55.45-1,1-1h7v14c0,.55.45,1,1,1s1-.45,1-1V10c0-.55.45-1,1-1h24c.55,0,1,.45,1,1v28c0,.55-.45,1-1,1h-24c-.55,0-1-.45-1-1v-5c0-.55-.45-1-1-1s-1,.45-1,1v5c0,1.65,1.35,3,3,3h24c1.65,0,3-1.35,3-3V15h7c.55,0,1,.45,1,1v30c0,.55-.45,1-1,1h-19.18c.11-.31.18-.65.18-1s-.07-.69-.18-1h9.18c.55,0,1-.45,1-1s-.45-1-1-1h-24c-.55,0-1,.45-1,1s.45,1,1,1h9.18c-.11.31-.18.65-.18,1s.07.69.18,1H10c-.55,0-1-.45-1-1v-21c0-.55-.45-1-1-1s-1,.45-1,1v21c0,1.65,1.35,3,3,3h14.72l-1.5,6h-1.22c-.55,0-1,.45-1,1s.45,1,1,1h20c.55,0,1-.45,1-1s-.45-1-1-1h-1.22l-1.5-6h14.72c1.65,0,3-1.35,3-3v-30c0-1.65-1.35-3-3-3ZM32,45c.55,0,1,.45,1,1s-.45,1-1,1-1-.45-1-1,.45-1,1-1ZM29.18,55c.42-1.16,1.52-2,2.82-2s2.4.84,2.82,2h-5.64ZM36.9,55c-.47-2.28-2.49-4-4.9-4s-4.43,1.72-4.9,4h-1.82l1.5-6h10.44l1.5,6h-1.82Z"/>
  <path d="M21,36c0,.552.448,1,1,1h4c.552,0,1-.448,1-1v-4c0-.552-.448-1-1-1h-4c-.552,0-1,.448-1,1v4ZM23,33h2v2h-2v-2Z"/>
  <path d="M34,31h-4c-.552,0-1,.448-1,1v4c0,.552.448,1,1,1h4c.552,0,1-.448,1-1v-4c0-.552-.448-1-1-1ZM33,35h-2v-2h2v2Z"/>
  <path d="M42,31h-4c-.552,0-1,.448-1,1v4c0,.552.448,1,1,1h4c.552,0,1-.448,1-1v-4c0-.552-.448-1-1-1ZM41,35h-2v-2h2v2Z"/>
  <path d="M21,28c0,.552.448,1,1,1h4c.552,0,1-.448,1-1v-4c0-.552-.448-1-1-1h-4c-.552,0-1,.448-1,1v4ZM23,25h2v2h-2v-2Z"/>
  <path d="M35,24c0-.552-.448-1-1-1h-4c-.552,0-1,.448-1,1v4c0,.552.448,1,1,1h4c.552,0,1-.448,1-1v-4ZM33,27h-2v-2h2v2Z"/>
  <path d="M43,24c0-.552-.448-1-1-1h-4c-.552,0-1,.448-1,1v4c0,.552.448,1,1,1h4c.552,0,1-.448,1-1v-4ZM41,27h-2v-2h2v2Z"/>
  <path d="M43,12c0-.552-.448-1-1-1h-20c-.552,0-1,.448-1,1v8c0,.552.448,1,1,1h20c.552,0,1-.448,1-1v-8ZM41,19h-18v-6h18v6Z"/>
  <path d="M26,17h12c.552,0,1-.448,1-1s-.448-1-1-1h-12c-.552,0-1,.448-1,1s.448,1,1,1Z"/>
</svg>