<?xml version="1.0" encoding="UTF-8"?>
<svg id="Outline" xmlns="http://www.w3.org/2000/svg" version="1.1" viewBox="0 0 64 64">
  <!-- Generator: Adobe Illustrator 29.5.1, SVG Export Plug-In . SVG Version: 2.1.0 Build 141)  -->
  <path d="M43,15h-2v-.56c1.19-.69,2-1.97,2-3.44,0-2.21-1.79-4-4-4h-12c-2.21,0-4,1.79-4,4v4h-2c-1.65,0-3,1.35-3,3v21c0,.2.06.39.17.55l1.83,2.75v11.7c0,1.65,1.35,3,3,3h18c1.65,0,3-1.35,3-3v-11.7l1.83-2.75c.11-.16.17-.35.17-.55v-21c0-1.65-1.35-3-3-3ZM30.44,9h8.56c1.1,0,2,.9,2,2s-.9,2-2,2h-8.56c.35-.59.56-1.27.56-2s-.21-1.41-.56-2ZM25,11c0-1.1.9-2,2-2s2,.9,2,2-.9,2-2,2c-.55,0-1,.45-1,1s.45,1,1,1h12v4h-14v-8ZM44,38.7l-1.83,2.75c-.11.16-.17.35-.17.55v12c0,.55-.45,1-1,1h-18c-.55,0-1-.45-1-1v-12c0-.2-.06-.39-.17-.55l-1.83-2.75v-20.7c0-.55.45-1,1-1h2v2c-.55,0-1,.45-1,1s.45,1,1,1h18c.55,0,1-.45,1-1s-.45-1-1-1v-2h2c.55,0,1,.45,1,1v20.7Z"/>
  <path d="M27,43h-2c-.553,0-1,.447-1,1s.447,1,1,1h2c.553,0,1-.447,1-1s-.447-1-1-1Z"/>
  <path d="M33,43h-2c-.553,0-1,.447-1,1s.447,1,1,1h2c.553,0,1-.447,1-1s-.447-1-1-1Z"/>
  <path d="M39,43h-2c-.553,0-1,.447-1,1s.447,1,1,1h2c.553,0,1-.447,1-1s-.447-1-1-1Z"/>
  <path d="M27,47h-2c-.553,0-1,.447-1,1s.447,1,1,1h2c.553,0,1-.447,1-1s-.447-1-1-1Z"/>
  <path d="M33,47h-2c-.553,0-1,.447-1,1s.447,1,1,1h2c.553,0,1-.447,1-1s-.447-1-1-1Z"/>
  <path d="M39,47h-2c-.553,0-1,.447-1,1s.447,1,1,1h2c.553,0,1-.447,1-1s-.447-1-1-1Z"/>
  <path d="M27,51h-2c-.553,0-1,.447-1,1s.447,1,1,1h2c.553,0,1-.447,1-1s-.447-1-1-1Z"/>
  <path d="M33,51h-2c-.553,0-1,.447-1,1s.447,1,1,1h2c.553,0,1-.447,1-1s-.447-1-1-1Z"/>
  <path d="M39,51h-2c-.553,0-1,.447-1,1s.447,1,1,1h2c.553,0,1-.447,1-1s-.447-1-1-1Z"/>
  <path d="M41,23h-18c-.553,0-1,.447-1,1v14c0,.553.447,1,1,1h18c.553,0,1-.447,1-1v-14c0-.553-.447-1-1-1ZM40,37h-16v-12h16v12Z"/>
</svg>