<?xml version="1.0" encoding="UTF-8"?>
<svg id="Outline" xmlns="http://www.w3.org/2000/svg" version="1.1" viewBox="0 0 64 64">
  <!-- Generator: Adobe Illustrator 29.5.1, SVG Export Plug-In . SVG Version: 2.1.0 Build 141)  -->
  <path d="M57,38.62c0,4.89-2.92,9.26-7.44,11.14l-6.1,2.54c-1.73.72-3.47,1.35-5.16,1.88-.1.04-.2.05-.3.05-.43,0-.82-.27-.95-.7-.17-.53.12-1.09.65-1.25,1.64-.52,3.32-1.13,5-1.82l6.09-2.54c3.77-1.57,6.21-5.22,6.21-9.3,0-5.56-4.52-10.09-10.07-10.09-1.33,0-2.64.26-3.89.78-3.79,1.59-7.8,2.68-11.9,3.24-.56.08-1.06-.31-1.13-.85-.08-.55.31-1.06.85-1.13,1.17-.16,2.33-.38,3.48-.63-.38-2.43-.58-4.88-.58-7.32v-2.62c0-2.94-1.14-5.71-3.22-7.78-2.07-2.08-4.84-3.22-7.78-3.22s-5.7,1.14-7.77,3.22c-2.08,2.07-3.23,4.83-3.23,7.78,0,4.79.59,9.55,1.74,14.17,2.36-2.04,5.34-3.17,8.5-3.17h2.62c.78,0,1.56-.02,2.33-.06.55-.03,1.02.4,1.05.95.03.55-.4,1.02-.95,1.05-.81.04-1.61.06-2.43.06h-1.62v7c0,.55-.45,1-1,1s-1-.45-1-1v-6.95c-2.57.23-4.95,1.33-6.78,3.17-2.08,2.07-3.22,4.84-3.22,7.78s1.14,5.71,3.22,7.78c2.07,2.08,4.84,3.22,7.78,3.22,1.67,0,3.34-.1,5-.24v-9.76c0-.55.45-1,1-1s1,.45,1,1v9.58c2.28-.28,4.54-.68,6.76-1.22.54-.13,1.08.2,1.21.73.13.54-.2,1.08-.73,1.21-4.65,1.13-9.44,1.7-14.24,1.7-3.48,0-6.75-1.35-9.2-3.8-2.45-2.45-3.8-5.72-3.8-9.2,0-3.01,1.01-5.85,2.87-8.15-1.4-5.15-2.11-10.48-2.11-15.85,0-3.48,1.35-6.75,3.82-9.2,2.45-2.45,5.71-3.8,9.18-3.8s6.74,1.35,9.2,3.8c2.45,2.45,3.8,5.72,3.8,9.2v2.62c0,2.28.18,4.58.53,6.86,2.04-.54,4.04-1.2,5.99-2.01,1.49-.63,3.06-.94,4.65-.94,6.65,0,12.07,5.42,12.07,12.09Z"/>
  <path d="M25,39v2c0,.553.447,1,1,1s1-.447,1-1v-2c0-.553-.447-1-1-1s-1,.447-1,1Z"/>
  <path d="M20,43c-.553,0-1,.447-1,1v5c0,.553.447,1,1,1s1-.447,1-1v-5c0-.553-.447-1-1-1Z"/>
  <path d="M32,46c-.553,0-1,.447-1,1v4c0,.553.447,1,1,1s1-.447,1-1v-4c0-.553-.447-1-1-1Z"/>
  <path d="M33,39c0-.553-.447-1-1-1s-1,.447-1,1v4c0,.553.447,1,1,1s1-.447,1-1v-4Z"/>
  <path d="M37,46c0,.553.447,1,1,1s1-.447,1-1v-4c0-.553-.447-1-1-1s-1,.447-1,1v4Z"/>
  <path d="M38,39c.553,0,1-.447,1-1v-4c0-.553-.447-1-1-1s-1,.447-1,1v4c0,.553.447,1,1,1Z"/>
</svg>