<?xml version="1.0" encoding="UTF-8"?>
<svg id="Outline" xmlns="http://www.w3.org/2000/svg" version="1.1" viewBox="0 0 64 64">
  <!-- Generator: Adobe Illustrator 29.5.1, SVG Export Plug-In . SVG Version: 2.1.0 Build 141)  -->
  <path d="M48.74,25.211c1.52-1.72,2.26-4.09,2.26-7.21,0-10.15-9.39-11-19-11-.78,0-1.54-.01-2.29-.01-5.92-.05-11.03-.09-14.06,2.92-1.78,1.77-2.65,4.41-2.65,8.09,0,3,.58,5.3,1.76,7.01-1.18,1.7-1.76,4-1.76,6.99s.58,5.3,1.76,7.01c-1.18,1.7-1.76,4-1.76,6.99,0,3.67.86,6.31,2.64,8.08,2.66,2.65,6.91,2.94,11.81,2.94h.55c.56,0,1-.45,1-1s-.45-1-1-1h-.95c-4.28,0-7.93-.3-10-2.36-1.38-1.37-2.05-3.55-2.05-6.66s.67-5.3,2.06-6.67c2.44-2.42,7.16-2.39,12.63-2.34.76,0,1.53.01,2.31.01,6.93,0,11.86.57,14.57,2.87l.01.01h.01c1.59,1.36,2.41,3.32,2.41,6.12,0,7.36-4.38,8.8-13.02,8.97-.55.01-.99.47-.98,1.02.01.55.46.98,1,.98h.02c7.58-.15,14.98-1.12,14.98-10.97,0-3.01-.84-5.19-2.26-6.79,1.52-1.72,2.26-4.09,2.26-7.21,0-3.01-.84-5.19-2.26-6.79ZM17.06,11.331c2.44-2.43,7.16-2.39,12.63-2.34.76,0,1.53.01,2.31.01,11.03,0,17,1.43,17,9,0,2.59-.57,4.52-1.75,5.88-3.61-2.55-9.38-2.88-15.25-2.88-.78,0-1.54-.01-2.29-.01-5.61-.05-10.48-.08-13.56,2.47-.77-1.33-1.15-3.12-1.15-5.46,0-3.12.67-5.3,2.06-6.67ZM47.25,37.881c-3.61-2.55-9.38-2.88-15.25-2.88-.78,0-1.54-.01-2.29-.01-5.61-.05-10.48-.08-13.56,2.47-.77-1.33-1.15-3.12-1.15-5.46,0-3.12.67-5.3,2.06-6.67,2.44-2.42,7.16-2.39,12.63-2.34.76,0,1.53.01,2.31.01,6.93,0,11.86.57,14.57,2.87l.01.01h.01c1.59,1.36,2.41,3.32,2.41,6.12,0,2.59-.57,4.52-1.75,5.88Z"/>
  <path d="M21,49.981h-2c-.553,0-1,.447-1,1s.447,1,1,1h2c.553,0,1-.447,1-1s-.447-1-1-1Z"/>
  <path d="M43,51.981h2c.553,0,1-.447,1-1s-.447-1-1-1h-2c-.553,0-1,.447-1,1s.447,1,1,1Z"/>
  <path d="M33,49.981h-2c-.553,0-1,.447-1,1s.447,1,1,1h2c.553,0,1-.447,1-1s-.447-1-1-1Z"/>
  <path d="M23,46.981h2c.553,0,1-.447,1-1s-.447-1-1-1h-2c-.553,0-1,.447-1,1s.447,1,1,1Z"/>
  <path d="M41,44.981h-2c-.553,0-1,.447-1,1s.447,1,1,1h2c.553,0,1-.447,1-1s-.447-1-1-1Z"/>
  <path d="M33,44.981h-2c-.553,0-1,.447-1,1s.447,1,1,1h2c.553,0,1-.447,1-1s-.447-1-1-1Z"/>
  <path d="M21,39.981h-2c-.553,0-1,.447-1,1s.447,1,1,1h2c.553,0,1-.447,1-1s-.447-1-1-1Z"/>
  <path d="M43,41.981h2c.553,0,1-.447,1-1s-.447-1-1-1h-2c-.553,0-1,.447-1,1s.447,1,1,1Z"/>
  <path d="M33,39.981h-2c-.553,0-1,.447-1,1s.447,1,1,1h2c.553,0,1-.447,1-1s-.447-1-1-1Z"/>
  <path d="M25,30.981h-2c-.553,0-1,.447-1,1s.447,1,1,1h2c.553,0,1-.447,1-1s-.447-1-1-1Z"/>
  <path d="M41,30.981h-2c-.553,0-1,.447-1,1s.447,1,1,1h2c.553,0,1-.447,1-1s-.447-1-1-1Z"/>
  <path d="M33,30.981h-2c-.553,0-1,.447-1,1s.447,1,1,1h2c.553,0,1-.447,1-1s-.447-1-1-1Z"/>
  <path d="M21,25.981h-2c-.553,0-1,.447-1,1s.447,1,1,1h2c.553,0,1-.447,1-1s-.447-1-1-1Z"/>
  <path d="M45,25.981h-2c-.553,0-1,.447-1,1s.447,1,1,1h2c.553,0,1-.447,1-1s-.447-1-1-1Z"/>
  <path d="M33,25.981h-2c-.553,0-1,.447-1,1s.447,1,1,1h2c.553,0,1-.447,1-1s-.447-1-1-1Z"/>
  <path d="M23,18.981h2c.553,0,1-.447,1-1s-.447-1-1-1h-2c-.553,0-1,.447-1,1s.447,1,1,1Z"/>
  <path d="M39,18.981h2c.553,0,1-.447,1-1s-.447-1-1-1h-2c-.553,0-1,.447-1,1s.447,1,1,1Z"/>
  <path d="M31,18.981h2c.553,0,1-.447,1-1s-.447-1-1-1h-2c-.553,0-1,.447-1,1s.447,1,1,1Z"/>
  <path d="M19,13.981h2c.553,0,1-.447,1-1s-.447-1-1-1h-2c-.553,0-1,.447-1,1s.447,1,1,1Z"/>
  <path d="M43,13.981h2c.553,0,1-.447,1-1s-.447-1-1-1h-2c-.553,0-1,.447-1,1s.447,1,1,1Z"/>
  <path d="M31,13.981h2c.553,0,1-.447,1-1s-.447-1-1-1h-2c-.553,0-1,.447-1,1s.447,1,1,1Z"/>
  <circle cx="32" cy="55.981" r="1"/>
</svg>