<?xml version="1.0" encoding="UTF-8"?>
<svg id="Outline" xmlns="http://www.w3.org/2000/svg" version="1.1" viewBox="0 0 64 64">
  <!-- Generator: Adobe Illustrator 29.5.1, SVG Export Plug-In . SVG Version: 2.1.0 Build 141)  -->
  <path d="M47,7c-.54999,0-1,.45001-1,1v2h-4v-2c0-.54999-.45001-1-1-1s-1,.45001-1,1v2h-4v-2c0-.54999-.45001-1-1-1s-1,.45001-1,1v2h-4v-2c0-.54999-.45001-1-1-1s-1,.45001-1,1v2h-4v-2c0-.54999-.45001-1-1-1s-1,.45001-1,1v2h-4v-2c0-.54999-.45001-1-1-1s-1,.45001-1,1v48c0,.54999.45001,1,1,1s1-.45001,1-1v-2h4v2c0,.54999.45001,1,1,1s1-.45001,1-1v-2h4v2c0,.54999.45001,1,1,1s1-.45001,1-1v-2h4v2c0,.54999.45001,1,1,1s1-.45001,1-1v-2h4v2c0,.54999.45001,1,1,1s1-.45001,1-1v-2h4v2c0,.54999.45001,1,1,1s1-.45001,1-1V8c0-.54999-.45001-1-1-1ZM18,28h2v20h-2v-20ZM22,52h-4v-2h4v2ZM41,48c-.54999,0-1,.45001-1,1v3h-16v-3c0-.54999-.45001-1-1-1h-1v-20h1c.54999,0,1-.45001,1-1,0-1.32001.89001-2.5,2.15997-2.85999l2.71002-.78003c1.13-.32001,2.12-1.03998,2.77002-2.02002l.35999-.53998.35999.53998c.65002.98004,1.64001,1.70001,2.77002,2.02002l2.71002.78003c1.26996.35999,2.15997,1.53998,2.15997,2.85999,0,.54999.45001,1,1,1h1v20h-1ZM46,52h-4v-2h4v2ZM46,48h-2v-20h2v20ZM46,26h-4.09998c-.37-1.78003-1.71002-3.27002-3.51001-3.79004l-2.71002-.76996c-.67999-.19-1.27002-.62-1.65997-1.21002l-1.19-1.77997c-.37-.56-1.29004-.56-1.66003,0l-1.19,1.77997c-.38995.59003-.97998,1.02002-1.65997,1.21002l-2.71002.76996c-1.79999.52002-3.14001,2.01001-3.51001,3.79004h-4.09998v-10h28v10ZM46,14h-28v-2h28v2Z"/>
</svg>