<?xml version="1.0" encoding="UTF-8"?>
<svg id="Outline" xmlns="http://www.w3.org/2000/svg" version="1.1" viewBox="0 0 64 64">
  <!-- Generator: Adobe Illustrator 29.5.1, SVG Export Plug-In . SVG Version: 2.1.0 Build 141)  -->
  <path d="M32.765,19h-2.764c-.553,0-1,.447-1,1s.447,1,1,1h1v1c0,.553.447,1,1,1s1-.447,1-1v-1.024c1.121-.12,2-1.06,2-2.212,0-.852-.474-1.617-1.236-2l-2.632-1.315c-.081-.041-.132-.122-.132-.212,0-.13.106-.236.236-.236h2.764c.553,0,1-.447,1-1s-.447-1-1-1h-1v-1c0-.553-.447-1-1-1s-1,.447-1,1v1.024c-1.121.12-2,1.06-2,2.212,0,.852.474,1.617,1.236,2l2.632,1.315c.081.041.132.122.132.212,0,.13-.106.236-.236.236Z"/>
  <path d="M40.001,47h-2.926l1.614-22.587c2.028-1.831,3.312-4.472,3.312-7.413,0-5.514-4.486-10-10-10s-10,4.486-10,10c0,2.941,1.284,5.581,3.312,7.413l1.614,22.587h-2.926c-.404,0-.77.243-.924.617-.155.374-.069.804.217,1.09l8,8c.195.195.451.293.707.293s.512-.098.707-.293l8-8c.286-.286.372-.716.217-1.09-.154-.374-.52-.617-.924-.617ZM24.001,17c0-4.411,3.589-8,8-8s8,3.589,8,8c0,2.475-1.13,4.69-2.901,6.159-.02.016-.04.029-.059.046-1.377,1.121-3.131,1.795-5.04,1.795s-3.666-.675-5.043-1.797c-.017-.016-.036-.028-.055-.043-1.771-1.469-2.902-3.684-2.902-6.159ZM32.001,54.586l-5.586-5.586h1.586c.277,0,.543-.115.731-.318.189-.203.286-.476.266-.753l-1.576-22.049c1.374.711,2.928,1.12,4.579,1.12s3.205-.409,4.579-1.12l-1.576,22.049c-.021.277.076.55.266.753.188.203.454.318.731.318h1.586l-5.586,5.586Z"/>
  <path d="M56.911,44.59c-.16-.36-.52-.59-.91-.59h-2.85l1.56-10.92c.04-.29-.04-.58-.23-.79-.19-.22-.47-.35-.76-.35h-9.44c-.29,0-.57.13-.76.35-.19.21-.27.5-.23.79l1.56,10.92h-2.85c-.39,0-.75.23-.91.59-.16.35-.1.77.16,1.07l7,8c.19.22.46.34.75.34s.56-.12.75-.34l7-8c.26-.3.32-.72.16-1.07ZM49.001,51.48l-4.8-5.48h1.8c.29,0,.57-.13.75-.34.2-.22.28-.51.24-.8l-1.56-10.92h7.14l-1.56,10.92c-.04.29.04.58.24.8.18.21.46.34.75.34h1.8l-4.8,5.48Z"/>
  <path d="M22.001,44h-2.848l1.558-10.918c.041-.287-.045-.578-.234-.797-.19-.219-.466-.345-.756-.345h-9.439c-.29,0-.565.126-.756.345-.189.219-.275.51-.234.797l1.558,10.918h-2.848c-.393,0-.748.229-.91.587-.163.357-.101.776.157,1.071l7,8c.19.218.465.342.753.342s.562-.124.753-.342l7-8c.258-.295.32-.714.157-1.071-.162-.357-.518-.587-.91-.587ZM15.001,51.481l-4.796-5.481h1.796c.29,0,.565-.126.755-.345.19-.219.276-.51.235-.797l-1.558-10.918h7.135l-1.558,10.918c-.041.287.045.578.235.797.189.219.465.345.755.345h1.796l-4.796,5.481Z"/>
</svg>