<?xml version="1.0" encoding="UTF-8"?>
<svg id="Outline" xmlns="http://www.w3.org/2000/svg" version="1.1" viewBox="0 0 48 48">
  <!-- Generator: Adobe Illustrator 29.5.1, SVG Export Plug-In . SVG Version: 2.1.0 Build 141)  -->
  <path d="M42.089,9.504c-1.038-1.038-2.698-1.247-4.68-.585-1.489.496-3.056,1.455-4.49,2.73l-2.851-2.851c-.391-.391-1.023-.391-1.414,0-.756.755-2.072.755-2.828,0-.188-.188-.441-.293-.707-.293s-.52.105-.707.293l-2.848,2.848H7.947c-.266,0-.52.105-.707.293l-2,2c-.188.188-.293.442-.293.707v16c0,.265.105.52.293.707l2,2c.188.188.441.293.707.293h7.372l5.557,5.557c.188.188.441.293.707.293h2.829c.266,0,.52-.105.707-.293l14.849-14.849c.391-.39.391-1.023,0-1.414-.779-.78-.779-2.049,0-2.829.391-.391.391-1.023,0-1.414l-.023-.023c1.275-1.434,2.233-3,2.73-4.49.66-1.98.452-3.643-.586-4.68ZM8.361,31.646l-1.414-1.414v-15.172l1.414-1.414h11.202l-10.001,10.001c-.188.188-.293.442-.293.707v2.829c0,.265.105.52.293.707l3.756,3.756h-4.958ZM37.936,23.557l-13.938,13.939h-2.001l-10.728-10.728v-2l13.938-13.938c1.217.721,2.846.721,4.064,0l2.235,2.235c-.682.766-1.266,1.569-1.74,2.378-.135-.014-.268-.04-.406-.04-1.068,0-2.072.416-2.828,1.171s-1.172,1.76-1.172,2.829.416,2.073,1.172,2.828c.756.756,1.76,1.172,2.828,1.172s2.073-.417,2.828-1.172c.756-.755,1.172-1.76,1.172-2.828s-.416-2.073-1.172-2.829c-.161-.161-.338-.298-.52-.428.355-.564.777-1.125,1.253-1.668l5.015,5.014c-.735,1.249-.735,2.814,0,4.063ZM28.733,21.28c-.291-.092-.564-.24-.786-.463-.378-.378-.586-.88-.586-1.414s.208-1.037.586-1.415c.242-.241.543-.397.862-.484-.493,1.457-.52,2.767-.077,3.775ZM30.775,20.818c-.5-.501-.489-1.566-.018-2.843.005.005.012.009.018.014.378.378.586.88.586,1.415s-.208,1.036-.586,1.414ZM40.777,13.552c-.402,1.208-1.202,2.492-2.258,3.697l-4.175-4.175c1.205-1.056,2.489-1.855,3.697-2.258,1.187-.396,2.173-.358,2.633.103.461.46.499,1.444.103,2.633Z"/>
  <path d="M20.876,19.404c-.375-.375-1.039-.375-1.414,0l-5.656,5.657c-.391.391-.391,1.023,0,1.414l8.484,8.485c.188.188.441.293.707.293s.52-.105.707-.293l5.657-5.657c.188-.188.293-.442.293-.707s-.105-.52-.293-.707l-8.485-8.485ZM22.997,32.839l-7.07-7.071,4.242-4.243,7.071,7.071-4.243,4.243Z"/>
  <path d="M19.462,25.061c-.391.39-.391,1.023,0,1.414,0,0,2.828,2.829,2.828,2.829.389.389,1.024.39,1.414,0,.391-.39.391-1.023,0-1.414l-2.828-2.829c-.391-.391-1.023-.391-1.414,0Z"/>
</svg>