<?xml version="1.0" encoding="UTF-8"?>
<svg id="Outline" xmlns="http://www.w3.org/2000/svg" version="1.1" viewBox="0 0 64 64">
  <!-- Generator: Adobe Illustrator 29.5.1, SVG Export Plug-In . SVG Version: 2.1.0 Build 141)  -->
  <path d="M44.71,23.29l-6-6c-.19-.18-.44-.29-.71-.29h-5.02c-.2-5.02-1.93-10-4.98-10-3.25,0-5,5.67-5,11,0,.52.03,1.03.06,1.53l-3.77,3.76c-.18.19-.29.44-.29.71v30c0,1.65,1.35,3,3,3h20c1.65,0,3-1.35,3-3v-30c0-.27-.11-.52-.29-.71ZM28,9c1.15,0,2.78,3.08,2.98,8h-4.98c-.27,0-.52.11-.71.29l-.28.29c.09-5.25,1.8-8.58,2.99-8.58ZM43,54c0,.55-.45,1-1,1h-20c-.55,0-1-.45-1-1v-29.59l2.33-2.33c.64,3.7,2.21,6.92,4.67,6.92,1.82,0,3.34-1.82,4.22-5h2.78c.55,0,1-.45,1-1s-.45-1-1-1h-6c-.55,0-1,.45-1,1s.45,1,1,1h1.14c-.64,1.97-1.51,3-2.14,3-.96,0-2.46-2.33-2.89-6.7l1.3-1.3h11.18l5.41,5.41v29.59Z"/>
  <path d="M24,43c-.553,0-1,.448-1,1v8c0,.552.447,1,1,1s1-.448,1-1v-8c0-.552-.447-1-1-1Z"/>
  <path d="M40,43c-.553,0-1,.448-1,1v8c0,.552.447,1,1,1s1-.448,1-1v-8c0-.552-.447-1-1-1Z"/>
  <path d="M36,43c-.553,0-1,.448-1,1v4c0,.552.447,1,1,1s1-.448,1-1v-4c0-.552-.447-1-1-1Z"/>
  <path d="M32,43c-.553,0-1,.448-1,1v4c0,.552.447,1,1,1s1-.448,1-1v-4c0-.552-.447-1-1-1Z"/>
  <path d="M28,43c-.553,0-1,.448-1,1v4c0,.552.447,1,1,1s1-.448,1-1v-4c0-.552-.447-1-1-1Z"/>
  <circle cx="28" cy="52" r="1"/>
  <circle cx="32" cy="52" r="1"/>
  <circle cx="36" cy="52" r="1"/>
  <path d="M23,32v8c0,.552.447,1,1,1h16c.553,0,1-.448,1-1v-8c0-.552-.447-1-1-1h-16c-.553,0-1,.448-1,1ZM25,33h14v6h-14v-6Z"/>
</svg>