<?xml version="1.0" encoding="UTF-8"?>
<svg id="Outline" xmlns="http://www.w3.org/2000/svg" version="1.1" viewBox="0 0 64 64">
  <!-- Generator: Adobe Illustrator 29.5.1, SVG Export Plug-In . SVG Version: 2.1.0 Build 141)  -->
  <path d="M32,7c-13.79,0-25,11.21-25,25s11.21,25,25,25,25-11.21,25-25S45.79,7,32,7ZM32,9c8.27,0,15,6.73,15,15,0,7.29-11.9,21.05-15,24.51-3.1-3.46-15-17.22-15-24.51,0-8.27,6.73-15,15-15ZM9,32c0-7.89,4-14.87,10.07-19.01-2.53,2.97-4.07,6.81-4.07,11.01,0,4.15,3.23,9.9,6.81,15h-11.72c-.7-2.21-1.09-4.56-1.09-7ZM32,55c-9.49,0-17.65-5.78-21.16-14h12.42c2.49,3.36,4.96,6.27,6.49,8h-3.75c-.55,0-1,.45-1,1s.45,1,1,1h12c.55,0,1-.45,1-1s-.45-1-1-1h-3.75c1.53-1.73,4-4.64,6.49-8h12.42c-3.51,8.22-11.67,14-21.16,14ZM42.19,39c3.58-5.1,6.81-10.85,6.81-15,0-4.2-1.54-8.04-4.07-11.01,6.07,4.14,10.07,11.12,10.07,19.01,0,2.44-.39,4.79-1.09,7h-11.72Z"/>
  <path d="M45,24c0-7.168-5.832-13-13-13s-13,5.832-13,13,5.832,13,13,13,13-5.832,13-13ZM21,24c0-6.065,4.935-11,11-11s11,4.935,11,11-4.935,11-11,11-11-4.935-11-11Z"/>
  <path d="M33,29v-1.024c1.121-.12,2-1.06,2-2.212,0-.853-.474-1.619-1.236-2l-2.633-1.316c-.081-.04-.131-.121-.131-.211,0-.13.106-.236.236-.236h2.764c.553,0,1-.448,1-1s-.447-1-1-1h-1v-1c0-.552-.447-1-1-1s-1,.448-1,1v1.024c-1.121.12-2,1.06-2,2.212,0,.853.474,1.619,1.236,2l2.633,1.316c.081.04.131.121.131.211,0,.13-.106.236-.236.236h-2.764c-.553,0-1,.448-1,1s.447,1,1,1h1v1c0,.552.447,1,1,1s1-.448,1-1Z"/>
  <path d="M41,24c0-4.962-4.037-9-9-9s-9,4.038-9,9,4.037,9,9,9,9-4.038,9-9ZM25,24c0-3.86,3.141-7,7-7s7,3.14,7,7-3.141,7-7,7-7-3.14-7-7Z"/>
</svg>