<?xml version="1.0" encoding="UTF-8"?>
<svg id="Outline" xmlns="http://www.w3.org/2000/svg" version="1.1" viewBox="0 0 64 64">
  <!-- Generator: Adobe Illustrator 29.5.1, SVG Export Plug-In . SVG Version: 2.1.0 Build 141)  -->
  <circle cx="32.004" cy="32.04" r="1"/>
  <path d="M21.004,45.04c-2.206,0-4,1.794-4,4s1.794,4,4,4,4-1.794,4-4-1.794-4-4-4ZM21.004,51.04c-1.103,0-2-.897-2-2s.897-2,2-2,2,.897,2,2-.897,2-2,2Z"/>
  <path d="M49.934,45.04c-1.62-2.81-4.84-4.35-8.02-3.92l-5.11-9.36,2.27-6.72h5.27c1.47,0,2.66-1.19,2.66-2.66v-12.76c0-1.47-1.19-2.66-2.66-2.66h-24.68c-1.47,0-2.66,1.19-2.66,2.66v12.76c0,1.47,1.19,2.66,2.66,2.66h5.28l2.26,6.7-5.11,9.38c-3.17-.43-6.4,1.11-8.02,3.92-1.07,1.85-1.35,4-.8,6.07.56,2.07,1.88,3.79,3.73,4.86,1.26.73,2.63,1.07,3.99,1.07,2.76,0,5.46-1.44,6.94-4,1.62-2.82,1.35-6.38-.63-8.92l4.03-6.97.69-.05.65.04,4.03,6.98c-1.97,2.54-2.25,6.11-.63,8.92,1.49,2.56,4.18,4,6.94,4,1.36,0,2.73-.35,3.99-1.07,3.82-2.21,5.13-7.11,2.93-10.93ZM19.664,23.04c-.37,0-.66-.29-.66-.66v-12.76c0-.37.29-.66.66-.66h24.68c.37,0,.66.29.66.66v12.76c0,.37-.29.66-.66.66h-4.6l.74-2.2c.26-.18.44-.46.44-.8,0-.6.48-1.08,1.08-1.08.55,0,1-.45,1-1v-3.92c0-.55-.45-1-1-1-.6,0-1.08-.48-1.08-1.08,0-.55-.45-1-1-1h-15.84c-.55,0-1,.45-1,1,0,.6-.48,1.08-1.08,1.08-.55,0-1,.45-1,1v3.92c0,.55.45,1,1,1,.6,0,1.08.48,1.08,1.08,0,.55.45,1,1,1h8.96l-1.09,2h-12.29ZM38.834,13.49c-.19-.29-.51-.46-.87-.45-.35.02-.67.21-.84.52l-1.15,2.11c-.06-1.02-.36-1.95-.84-2.71h3.96c.3.9,1.01,1.61,1.91,1.91v1.9l-2.17-3.28ZM34.004,16.04c0,1.63-.92,3-2,3s-2-1.37-2-3,.92-3,2-3,2,1.37,2,3ZM28.824,19.04h-3.91c-.3-.9-1.01-1.61-1.91-1.91v-2.26c.9-.3,1.61-1.01,1.91-1.91h3.96c-.54.85-.87,1.91-.87,3.08,0,1.13.31,2.16.82,3ZM27.054,25.04h3.81l-2.35,4.31-1.46-4.31ZM34.754,31.58l-1.15,3.42-2.93.19c-.34.02-.64.21-.81.5l-4.64,8.04c-.22.39-.17.87.14,1.19,1.8,1.92,2.15,4.84.83,7.12-1.65,2.87-5.33,3.85-8.19,2.2-1.39-.8-2.38-2.1-2.79-3.65-.42-1.55-.21-3.16.59-4.55,1.08-1.87,3.11-2.99,5.22-2.99.45,0,.91.05,1.37.16.44.1.89-.1,1.11-.5l14.58-26.73,1.28,1.94-.58,1.7c0,.02-.01.04-.01.05l-4.01,11.89c-.01,0-.01.01-.01.02ZM46.004,54.23c-2.86,1.66-6.54.67-8.19-2.19-1.32-2.27-.97-5.2.84-7.12.3-.33.36-.81.14-1.19l-3.99-6.91c.22-.11.39-.3.48-.55l.65-1.93,4.57,8.37c.22.39.67.6,1.11.49,2.57-.6,5.27.57,6.58,2.84,1.66,2.86.67,6.54-2.19,8.19Z"/>
  <path d="M43.004,45.04c-2.206,0-4,1.794-4,4s1.794,4,4,4,4-1.794,4-4-1.794-4-4-4ZM43.004,51.04c-1.103,0-2-.897-2-2s.897-2,2-2,2,.897,2,2-.897,2-2,2Z"/>
</svg>