<?xml version="1.0" encoding="UTF-8"?>
<svg id="Outline" xmlns="http://www.w3.org/2000/svg" version="1.1" viewBox="0 0 64 64">
  <!-- Generator: Adobe Illustrator 29.0.0, SVG Export Plug-In . SVG Version: 2.1.0 Build 186)  -->
  <path d="M44,34.63854c0-1.6543-1.3457-3-3-3s-3,1.3457-3,3,1.3457,3,3,3,3-1.3457,3-3ZM40,34.63854c0-.55127.44873-1,1-1s1,.44873,1,1-.44873,1-1,1-1-.44873-1-1Z"/>
  <path d="M49,39.63854c-1.6543,0-3,1.3457-3,3s1.3457,3,3,3,3-1.3457,3-3-1.3457-3-3-3ZM49,43.63854c-.55127,0-1-.44873-1-1s.44873-1,1-1,1,.44873,1,1-.44873,1-1,1Z"/>
  <path d="M50.70703,32.93151c-.39062-.39062-1.02344-.39062-1.41406,0l-10,10c-.39056.39056-.39062,1.02323-.00019,1.41387.38859.3888,1.02644.388,1.41425.00019l10-10c.39062-.39062.39062-1.02344,0-1.41406Z"/>
  <path d="M45,26.63854h-.03998l-1.81-10.33002c-.08002-.41998-.40002-.73999-.82001-.82001l-12.02002-2.10999c-.32001-.06-.65002.03998-.88.27002l-.52997.52997-4.59003-.79999c-.32001-.06-.65002.03998-.88.27002l-15.53998,15.54999c-.58002.56-.89001,1.32001-.89001,2.12,0,.81.31,1.56.88,2.13l11.31,11.29999c.57001.58002,1.32001.89001,2.12.89001h.01001c.79999,0,1.56-.31,2.12-.88l.88-.88.87.87c.57001.58002,1.32001.89001,2.12.89001h.01001c.79999,0,1.56-.31,2.12-.88l3.78998-3.79999c1.09003,5.50995,5.95001,9.67999,11.77002,9.67999,6.62,0,12-5.38,12-12s-5.38-12-12-12ZM22.02002,43.34851c-.38.38-1.03003.38-1.41003-.00995l-11.32001-11.31c-.19-.19-.28998-.44-.28998-.71002,0-.26001.09998-.51001.29999-.70001l15.17999-15.17999,2.69.46997-13.27997,13.29004c-.58002.56-.89001,1.32001-.89001,2.12,0,.81.31,1.56.88,2.13l9.02002,9.01996-.88.88ZM33.01001,38.34851l-4.98999,5c-.38.38-1.03003.38-1.41003-.00995l-1.57996-1.57001v-.01001l-9.74005-9.72998c-.19-.19-.28998-.44-.28998-.71002,0-.26001.09998-.51001.29999-.70001l15.17999-15.17999,10.82001,1.90002,1.66003,9.48999c-1.92004.32996-3.67999,1.10999-5.17004,2.23999l-8.34998-8.35004c-.38-.37994-1.03998-.37994-1.41998,0l-9.90002,9.90002c-.39001.39001-.39001,1.02002,0,1.41003l8.48999,8.48999c.19.19.45001.28998.70001.28998.26001,0,.52002-.09998.71002-.28998l5.56-5.57001c-.34003,1.08002-.54004,2.21997-.57001,3.39996ZM35.79999,29.9085l-8.48999,8.49005-7.07001-7.07001,8.48999-8.48999,7.07001,7.06995ZM45,48.63854c-5.51001,0-10-4.48999-10-10s4.48999-10,10-10,10,4.48999,10,10-4.48999,10-10,10Z"/>
  <path d="M37.21289,24.4237c.76855,0,1.53662-.29248,2.12158-.87695,1.16992-1.16943,1.16992-3.07324,0-4.24268-1.16992-1.16992-3.07275-1.1709-4.24268,0h-.00049c-1.16895,1.16992-1.16895,3.07275.00049,4.24316.58496.58447,1.35303.87646,2.12109.87646ZM36.50586,20.71813c.39014-.38965,1.02441-.38965,1.41455,0,.38965.39014.38965,1.02441,0,1.41406-.38916.39014-1.0249.39062-1.41406.00049-.39014-.39014-.39014-1.02441-.00049-1.41455Z"/>
</svg>