<?xml version="1.0" encoding="UTF-8"?>
<svg id="Outline" xmlns="http://www.w3.org/2000/svg" version="1.1" viewBox="0 0 64 64">
  <!-- Generator: Adobe Illustrator 29.5.1, SVG Export Plug-In . SVG Version: 2.1.0 Build 141)  -->
  <path d="M19,16c0-1.654-1.346-3-3-3s-3,1.346-3,3,1.346,3,3,3,3-1.346,3-3ZM15,16c0-.552.449-1,1-1s1,.448,1,1-.449,1-1,1-1-.448-1-1Z"/>
  <path d="M16,11c.552,0,1-.447,1-1v-2c0-.553-.448-1-1-1s-1,.447-1,1v2c0,.553.448,1,1,1Z"/>
  <path d="M11.051,9.636c-.391-.391-1.024-.391-1.415,0-.391.39-.391,1.023,0,1.414l1.414,1.415c.367.368,1.027.388,1.415,0,.391-.39.391-1.023,0-1.414l-1.414-1.415Z"/>
  <path d="M11,16c0-.553-.448-1-1-1h-2c-.552,0-1,.447-1,1s.448,1,1,1h2c.552,0,1-.447,1-1Z"/>
  <path d="M11.05,19.535l-1.414,1.415c-.609.609-.155,1.707.708,1.707.256,0,.512-.098.708-.293l1.414-1.415c.39-.391.39-1.024,0-1.414-.391-.391-1.024-.391-1.415,0Z"/>
  <path d="M20.243,12.75c.256,0,.514-.092.707-.285l1.414-1.415c.39-.391.39-1.024,0-1.414-.391-.391-1.024-.391-1.415,0l-1.414,1.415c-.614.615-.153,1.696.708,1.699Z"/>
  <path d="M21,16c0,.553.448,1,1,1h2c.552,0,1-.447,1-1s-.448-1-1-1h-2c-.552,0-1,.447-1,1Z"/>
  <path d="M48,13c-1.654,0-3,1.346-3,3s1.346,3,3,3,3-1.346,3-3-1.346-3-3-3ZM48,17c-.551,0-1-.448-1-1s.449-1,1-1,1,.448,1,1-.449,1-1,1Z"/>
  <path d="M48,11c.552,0,1-.447,1-1v-2c0-.553-.448-1-1-1s-1,.447-1,1v2c0,.553.448,1,1,1Z"/>
  <path d="M52.243,12.758c.256,0,.512-.098.708-.293l1.414-1.415c.39-.391.39-1.024,0-1.414-.391-.391-1.024-.391-1.415,0l-1.414,1.415c-.602.603-.173,1.707.708,1.707Z"/>
  <path d="M56,15h-2c-.552,0-1,.447-1,1s.448,1,1,1h2c.552,0,1-.447,1-1s-.448-1-1-1Z"/>
  <path d="M52.95,19.535c-.391-.391-1.024-.391-1.415,0-.391.39-.391,1.023,0,1.414l1.414,1.415c.195.195.451.293.707.293.868,0,1.322-1.093.708-1.707l-1.414-1.415Z"/>
  <path d="M43.05,12.465c.195.195.452.293.707.293.874,0,1.324-1.09.708-1.707l-1.414-1.415c-.391-.391-1.024-.391-1.415,0-.391.39-.391,1.023,0,1.414l1.414,1.415Z"/>
  <path d="M40,17h2c.552,0,1-.447,1-1s-.448-1-1-1h-2c-.552,0-1,.447-1,1s.448,1,1,1Z"/>
  <path d="M17,22c0-.553-.448-1-1-1s-1,.447-1,1v2c0,.553.448,1,1,1s1-.447,1-1v-2Z"/>
  <path d="M48,21c-.552,0-1,.447-1,1v2c0,.553.448,1,1,1s1-.447,1-1v-2c0-.553-.448-1-1-1Z"/>
  <path d="M42.611,22.819c-.442.331-.532.957-.202,1.399,1.494,1.997,2.367,4.324,2.553,6.781h-2.013c-.508-5.598-5.221-10-10.949-10s-10.442,4.402-10.949,10h-2.013c.512-6.703,6.13-12,12.962-12,2.824,0,5.515.896,7.781,2.591.442.332,1.069.24,1.4-.202s.24-1.068-.202-1.399c-2.615-1.956-5.72-2.989-8.979-2.989-8.271,0-15,6.729-15,15,0,.553.448,1,1,1h8c.552,0,1-.447,1-1,0-2.757,2.243-5,5-5s5,2.243,5,5c0,.553.448,1,1,1h8c.552,0,1-.447,1-1,0-3.26-1.034-6.364-2.989-8.979-.331-.441-.957-.534-1.4-.202ZM32,25c-3.521,0-6.442,2.612-6.929,6h-2.012c.5-4.493,4.317-8,8.941-8s8.442,3.507,8.941,8h-2.012c-.487-3.388-3.408-6-6.929-6Z"/>
  <path d="M46.88,35.53c-.17-.33-.51-.53-.88-.53h-5c-.55,0-1,.45-1,1s.45,1,1,1h3.19c-.39.66-.76,1.32-1.11,2h-22.16c-.35-.68-.71-1.34-1.11-2h17.19c.55,0,1-.45,1-1s-.45-1-1-1h-19c-.37,0-.71.2-.88.53-.18.32-.16.72.05,1.02,1.9,2.86,3.36,5.95,4.34,9.2.99,3.26,1.49,6.65,1.49,10.07v.18c0,.55.45,1,1,1h16c.55,0,1-.45,1-1v-.18c0-6.88,2.02-13.54,5.83-19.27.21-.3.23-.7.05-1.02ZM24.99,55c-.07-3.34-.6-6.64-1.56-9.83-.43-1.42-.95-2.81-1.55-4.17h3.3c1.35,6.33,5.71,11.55,11.6,14h-11.79ZM39.08,53.7c-5.92-1.84-10.43-6.67-11.86-12.7h1.1c1.94,4.83,6.02,8.47,11.03,9.85-.13.95-.22,1.9-.27,2.85ZM39.68,48.85c-4.05-1.18-7.38-4.04-9.16-7.85h11.61c-1.12,2.52-1.93,5.15-2.45,7.85Z"/>
</svg>