<?xml version="1.0" encoding="UTF-8"?>
<svg id="Outline" xmlns="http://www.w3.org/2000/svg" version="1.1" viewBox="0 0 64 64">
  <!-- Generator: Adobe Illustrator 29.5.1, SVG Export Plug-In . SVG Version: 2.1.0 Build 141)  -->
  <path d="M56,26.21c.55,0,1-.45,1-1v-7c0-.36-.19-.69-.5-.87s-.69-.17-1,.01l-16.14,9.41c-.27.15-.45.42-.49.73-.02.13.01.25.04.37-2.38.1-4.59,1.05-6.26,2.73-.19.2-.41.38-.64.56-.23-.18-.46-.35-.66-.56-1.67-1.68-3.88-2.63-6.25-2.73.03-.12.05-.24.03-.36-.04-.31-.22-.58-.48-.74l-16.15-9.41c-.31-.18-.69-.18-1-.01-.31.18-.5.51-.5.87v17.9c0,.23.08.45.22.63l3.41,4.24c.18.22.45.36.73.37h.05c.27,0,.52-.1.71-.29l.71-.71,1.55,1.56c.7.69,1.16,1.57,1.36,2.53.27,1.35.92,2.58,1.9,3.55l7.92,7.92c.58.58,1.35.88,2.12.88s1.53-.3,2.12-.88c.25-.25.43-.54.58-.84l.13.13c1.141,1.141,3.077,1.163,4.24,0,.25-.25.43-.53.58-.84l.83.84c1.136,1.151,3.09,1.16,4.25,0,.58-.59.87-1.36.87-2.13l5.07-5.08c.98-.96,1.64-2.19,1.91-3.55.19-.96.66-1.84,1.36-2.53l1.56-1.56.7.71c.19.19.45.29.71.29h.05c.29-.02.55-.15.73-.37l3.41-4.24c.14-.18.22-.4.22-.63v-6.9c0-.55-.45-1-1-1s-1,.45-1,1v6.55l-.61.76-9.79-10.51,10.4-6.06v5.26c0,.55.45,1,1,1ZM9.61,36.52l-.61-.76v-15.81l10.4,6.06-9.79,10.51ZM11.5,38.86l-.62-.77,10.29-11.04,1.35.78-11.02,11.03ZM40.4,49.54c-.37.38-1.03.38-1.41.01l-7.07-7.08c-.39-.39-1.02-.39-1.41,0-.39.39-.39,1.02-.01,1.42l7.07,7.07c.01,0,.01.01.02.01l1.4,1.4c.39.39.39,1.03,0,1.42-.39.39-1.02.39-1.41,0l-2.83-2.83-5.66-5.66c-.39-.39-1.02-.39-1.41,0-.39.39-.39,1.03,0,1.42l5.65,5.65c.39.39.39,1.03,0,1.42s-1.02.39-1.41,0l-5.66-5.66c-.39-.39-1.02-.39-1.41,0-.39.39-.39,1.02,0,1.41l3.53,3.54c.39.39.39,1.02,0,1.41-.39.39-1.02.39-1.41,0l-7.92-7.91c-.69-.7-1.16-1.57-1.35-2.54-.27-1.35-.93-2.57-1.9-3.55l-1.56-1.55,8.96-8.96.47-.07c.3-.05.64-.07,1.03-.07,1.99,0,3.84.77,5.24,2.17.47.47,1,.88,1.56,1.23.01.01.02.02.03.02,1.14.71,2.44,1.18,3.78,1.32l2.38.27c-.26.54-.67,1.01-1.18,1.34-.82.53-1.82.68-2.76.41l-3-.85c-.44-.12-.9.06-1.13.45s-.17.89.15,1.21l10.63,10.72c.39.39.39,1.02,0,1.41ZM48.2,40.49c-.97.98-1.63,2.21-1.9,3.55-.19.97-.66,1.85-1.36,2.53l-2.25,2.26c0-.77-.29-1.53-.87-2.11l-7.99-8.06c1.3.21,2.64-.06,3.77-.79,1.29-.84,2.16-2.21,2.38-3.74.04-.27-.03-.54-.2-.75-.16-.22-.41-.35-.68-.38l-3.57-.4c-.57-.07-1.12-.22-1.65-.42.06-.06.13-.11.19-.18,1.39-1.39,3.24-2.16,5.23-2.16.39,0,.73.02,1.03.07l.48.07,8.95,8.96-1.56,1.55ZM53.12,38.09l-.61.76-11.02-11.02,1.34-.78,10.29,11.04Z"/>
  <path d="M25,17.109v4.101h-1c-.553,0-1,.447-1,1s.447,1,1,1h1v1c0,.553.447,1,1,1s1-.447,1-1v-1h1c.553,0,1-.447,1-1s-.447-1-1-1h-1v-4.101c2.279-.465,4-2.484,4-4.899,0-.438-.058-.861-.175-1.293-.146-.533-.696-.85-1.228-.702-.533.145-.848.694-.702,1.228.07.259.104.51.104.768,0,1.654-1.346,3-3,3s-3-1.346-3-3c0-1.912,1.85-3.416,3.768-2.896.531.147,1.083-.169,1.228-.702.146-.533-.169-1.083-.702-1.228-.432-.117-.855-.175-1.293-.175-2.757,0-5,2.243-5,5,0,2.414,1.721,4.434,4,4.899Z"/>
  <path d="M37,17.109v4.101h-1c-.553,0-1,.447-1,1s.447,1,1,1h1v1c0,.553.447,1,1,1s1-.447,1-1v-1h1c.553,0,1-.447,1-1s-.447-1-1-1h-1v-4.101c2.279-.465,4-2.484,4-4.899,0-2.757-2.243-5-5-5s-5,2.243-5,5c0,2.414,1.721,4.434,4,4.899ZM38,9.21c1.654,0,3,1.346,3,3s-1.346,3-3,3-3-1.346-3-3,1.346-3,3-3Z"/>
</svg>