<?xml version="1.0" encoding="UTF-8"?>
<svg id="Outline" xmlns="http://www.w3.org/2000/svg" version="1.1" viewBox="0 0 64 64">
  <!-- Generator: Adobe Illustrator 29.5.1, SVG Export Plug-In . SVG Version: 2.1.0 Build 141)  -->
  <path d="M54.98,47.54c.01-.18.02-.36.02-.54,0-12.68-10.32-23-23-23s-23,10.32-23,23c0,.2,0,.39.01.55-1.22.7-2.01,2.01-2.01,3.45,0,2.21,1.79,4,4,4h10c2.21,0,4-1.79,4-4,0-1.47-.8-2.74-1.98-3.44-.01-.17-.02-.36-.02-.56,0-4.96,4.04-9,9-9s9,4.04,9,9c0,.2-.01.39-.02.56-1.18.7-1.98,1.97-1.98,3.44,0,2.21,1.79,4,4,4h10c2.21,0,4-1.79,4-4,0-1.44-.79-2.75-2.02-3.46ZM32,26c10.72,0,19.57,8.08,20.83,18.46-.55-.28-1.17-.46-1.83-.46-.09,0-.17.02-.25.03-1.44-9.21-9.3-16.03-18.75-16.03s-17.31,6.82-18.75,16.03c-.08-.01-.16-.03-.25-.03-.66,0-1.28.18-1.83.46,1.26-10.38,10.11-18.46,20.83-18.46ZM48.82,44.68c-.34.23-.66.49-.92.81-.33-.18-.68-.31-1.04-.39-.94-7.41-7.3-13.1-14.86-13.1s-13.92,5.69-14.86,13.1c-.36.08-.71.21-1.04.39-.26-.32-.58-.58-.92-.81,1.14-8.41,8.25-14.68,16.82-14.68s15.68,6.27,16.82,14.68ZM21,53h-10c-1.1,0-2-.9-2-2,0-.84.54-1.59,1.35-1.88.46-.16.73-.64.65-1.12,0-1.1.9-2,2-2,.21,0,.42.03.61.1h.01c.57.19,1.03.62,1.25,1.22.13.33.41.56.75.63.34.07.69-.05.93-.31.37-.4.9-.64,1.45-.64.84,0,1.59.54,1.88,1.35.16.46.64.73,1.12.65,1.1,0,2,.9,2,2s-.9,2-2,2ZM32,36c-5.87,0-10.67,4.63-10.97,10.42-.5-.59-1.15-1.02-1.89-1.24.9-6.34,6.37-11.18,12.86-11.18s11.96,4.84,12.86,11.18c-.74.22-1.39.65-1.89,1.24-.3-5.79-5.1-10.42-10.97-10.42ZM53,53h-10c-1.1,0-2-.9-2-2s.89-1.99,2.01-1.99h.01c.48.07.94-.2,1.1-.66.29-.81,1.04-1.35,1.88-1.35.55,0,1.08.24,1.45.64.24.26.59.38.93.31.34-.07.62-.3.75-.63.22-.6.68-1.03,1.25-1.22h.01c.19-.07.4-.1.61-.1,1.1,0,2,.9,1.99,2.02-.07.48.2.94.66,1.1.81.29,1.35,1.04,1.35,1.88,0,1.1-.9,2-2,2Z"/>
  <path d="M43,24h3c.553,0,1-.447,1-1s-.447-1-1-1h-3c-1.103,0-2-.897-2-2s.891-1.994,2.006-1.994c.004,0,.008,0,.012,0,.482.076.946-.199,1.105-.656.283-.808,1.038-1.351,1.877-1.351.548,0,1.077.235,1.453.645.234.257.586.375.928.307.342-.066.624-.306.746-.631.3-.802,1.035-1.32,1.873-1.32,1.103,0,2,.897,1.993,2.018-.078.479.198.945.656,1.105.808.283,1.351,1.038,1.351,1.877,0,1.103-.897,2-2,2h-3c-.553,0-1,.447-1,1s.447,1,1,1h3c2.206,0,4-1.794,4-4,0-1.444-.791-2.76-2.026-3.463-.23-1.988-1.925-3.537-3.974-3.537-1.215,0-2.35.567-3.099,1.489-.579-.317-1.232-.489-1.901-.489-1.444,0-2.76.791-3.463,2.026-1.988.23-3.537,1.925-3.537,3.974,0,2.206,1.794,4,4,4Z"/>
  <path d="M11,20h3c.553,0,1-.447,1-1s-.447-1-1-1h-3c-1.103,0-2-.897-2-2,0-.839.543-1.594,1.351-1.877.458-.16.728-.645.649-1.123,0-1.103.897-2,2-2,.838,0,1.573.519,1.873,1.32.122.325.404.564.746.631.341.067.692-.051.928-.307.376-.409.905-.645,1.453-.645.839,0,1.594.543,1.877,1.351.16.458.646.725,1.123.649,1.103,0,2,.897,2,2s-.897,2-2,2h-3c-.553,0-1,.447-1,1s.447,1,1,1h3c2.206,0,4-1.794,4-4,0-2.049-1.549-3.743-3.537-3.974-.703-1.235-2.019-2.026-3.463-2.026-.669,0-1.322.172-1.901.489-.749-.922-1.884-1.489-3.099-1.489-2.049,0-3.743,1.549-3.974,3.537-1.235.703-2.026,2.019-2.026,3.463,0,2.206,1.794,4,4,4Z"/>
</svg>