<?xml version="1.0" encoding="UTF-8"?>
<svg id="Outline" xmlns="http://www.w3.org/2000/svg" version="1.1" viewBox="0 0 64 64">
  <!-- Generator: Adobe Illustrator 29.5.1, SVG Export Plug-In . SVG Version: 2.1.0 Build 141)  -->
  <path d="M56.6,18.42c-.25-.19-.57-.25-.87-.17l-3.24.93c-2.14.61-4.46.33-6.39-.77-2.54-1.45-5.58-1.76-8.35-.83l-.75.25v-2.83c0-1.65-1.35-3-3-3s-3,1.35-3,3v.34l-13.2,5.66h-2.8c-.55,0-1,.45-1,1s.45,1,1,1h2v12h-8v-12h2c.55,0,1-.45,1-1s-.45-1-1-1h-3c-.55,0-1,.45-1,1v14c0,.55.45,1,1,1h1v3c0,.55.45,1,1,1h1v3c0,.55.45,1,1,1s1-.45,1-1v-3h2v3.39c0,1.95.44,3.86,1.28,5.61h-3.28v-2c0-.55-.45-1-1-1s-1,.45-1,1v3c0,.55.45,1,1,1h6c.37,0,.71-.2.88-.53.18-.32.16-.72-.05-1.02-1.2-1.81-1.83-3.91-1.83-6.06v-3.39h1c.55,0,1-.45,1-1v-2.48l12,5.14v.34c0,1.65,1.35,3,3,3s3-1.35,3-3v-5.07l1.38-.46c2.23-.74,4.68-.5,6.73.67,1.56.89,3.33,1.35,5.12,1.35.94,0,1.89-.13,2.81-.39l3.23-.92c.43-.13.73-.52.73-.97v-18c0-.31-.15-.61-.4-.79ZM17,39h-6v-2h6v2ZM31,40.48l-12-5.14v-12.68l12-5.14v22.96ZM35,43c0,.55-.45,1-1,1s-1-.45-1-1V15c0-.55.45-1,1-1s1,.45,1,1v28ZM55,36.46l-2.51.72c-2.14.61-4.46.33-6.39-.77-1.57-.9-3.33-1.36-5.1-1.36-1.1,0-2.2.18-3.25.53l-.75.25v-1.9l1.38-.46c2.23-.74,4.68-.5,6.73.67,1.56.89,3.33,1.35,5.12,1.35.94,0,1.89-.13,2.81-.39l1.96-.56v1.92ZM55,32.46l-2.51.72c-2.14.61-4.46.33-6.39-.77-2.54-1.45-5.58-1.75-8.35-.83l-.75.25v-2.9l1.38-.46c2.23-.74,4.68-.5,6.73.67,1.56.89,3.33,1.35,5.12,1.35.94,0,1.89-.13,2.81-.39l1.96-.56v2.92ZM55,27.46l-2.51.72c-2.14.61-4.46.33-6.39-.77-2.54-1.45-5.58-1.75-8.35-.83l-.75.25v-2.9l1.38-.46c2.23-.74,4.68-.5,6.73.67,1.56.89,3.33,1.35,5.12,1.35.94,0,1.89-.13,2.81-.39l1.96-.56v2.92ZM55,22.46l-2.51.72c-2.14.61-4.46.33-6.39-.77-2.54-1.45-5.58-1.76-8.35-.83l-.75.25v-1.9l1.38-.46c2.23-.74,4.68-.5,6.73.67,2.39,1.37,5.28,1.72,7.93.96l1.96-.56v1.92Z"/>
</svg>