<?xml version="1.0" encoding="UTF-8"?>
<svg id="Outline" xmlns="http://www.w3.org/2000/svg" version="1.1" viewBox="0 0 64 64">
  <!-- Generator: Adobe Illustrator 29.5.1, SVG Export Plug-In . SVG Version: 2.1.0 Build 141)  -->
  <path d="M57,26c0-1.654-1.346-3-3-3s-3,1.346-3,3c0,.152.023.298.045.444l-2.98,1.589c-.335-.684-.762-1.31-1.256-1.884.895-.392,1.695-.939,2.153-1.703.46-.766.594-1.665.377-2.531-.217-.867-.758-1.597-1.523-2.056-.507-.304-1.07-.465-1.646-.478-.281-.501-.689-.924-1.195-1.228h0c-1.577-.946-3.637-.433-4.586,1.146-.617,1.029-.596,2.418-.353,3.71-1.511-.006-2.973.36-4.286,1.068l-.544-1.243c2.381-1.994,5.451-5.177,5.451-8.351,0-3.024-2.461-5.485-5.485-5.485-1.153,0-2.251.353-3.172,1.008-.921-.655-2.019-1.008-3.172-1.008-3.024,0-5.485,2.461-5.485,5.485,0,3.175,3.07,6.357,5.451,8.351l-.544,1.243c-1.313-.708-2.774-1.075-4.286-1.068.243-1.292.265-2.682-.353-3.71-.947-1.579-3.006-2.095-4.586-1.147h0c-.506.304-.914.727-1.195,1.228-.574.012-1.139.173-1.645.477-.767.459-1.308,1.189-1.524,2.056-.217.866-.083,1.765.377,2.531.458.764,1.258,1.31,2.154,1.703-.494.574-.921,1.2-1.256,1.884l-2.98-1.589c.022-.146.045-.292.045-.444,0-1.654-1.346-3-3-3s-3,1.346-3,3,1.344,2.998,2.997,3l7.043,21.283c.423,3.235,7.94,4.717,14.959,4.717s14.537-1.482,14.959-4.717l7.043-21.283c1.653-.002,2.997-1.346,2.997-3ZM54,25c.552,0,1,.449,1,1s-.448,1-1,1-1-.449-1-1,.448-1,1-1ZM42.104,20.33c.252-.419.697-.651,1.154-.651.235,0,.473.061.688.19.308.185.524.478.612.826.134.535.677.863,1.212.728.349-.088.709-.034,1.018.152.308.184.524.478.611.825.087.348.033.709-.151,1.018-.562.935-2.776,1.499-4.501,1.671-.66-1.604-1.205-3.823-.644-4.758ZM40.588,25.03c.279.793.551,1.378.629,1.54.167.347.518.566.9.566.014,0,.027,0,.041,0,.237-.01,1.284-.065,2.51-.323.68.609,1.234,1.338,1.629,2.164l-6.814,3.634-2.93-6.696c1.216-.692,2.6-1,4.035-.884ZM25.343,14.485c0-1.922,1.563-3.485,3.485-3.485.932,0,1.807.362,2.465,1.021.391.391,1.023.391,1.414,0,.658-.658,1.533-1.021,2.465-1.021,1.922,0,3.485,1.563,3.485,3.485,0,2.967-4.389,6.693-6.657,8.303-2.269-1.61-6.657-5.335-6.657-8.303ZM31.451,24.836c.166.109.357.164.549.164s.383-.055.549-.164c.153-.101.528-.352,1.033-.722l4.502,10.287c.111.255.325.452.588.544.106.037.218.055.328.055.162,0,.324-.04.471-.118l12.516-6.674c.043.039.09.075.135.111l-6.439,19.458c-2.52-1.895-8.256-2.778-13.682-2.778s-11.162.883-13.682,2.778l-6.439-19.458c.045-.037.092-.072.135-.111l12.516,6.674c.146.078.309.118.471.118.11,0,.222-.019.328-.055.263-.092.477-.289.588-.544l4.502-10.287c.506.37.88.622,1.033.722ZM16.752,23.417c-.185-.308-.238-.669-.151-1.017.087-.348.304-.641.612-.826.212-.127.448-.192.688-.192.109,0,.219.013.328.041.534.135,1.078-.192,1.212-.728.088-.348.305-.642.612-.826.636-.38,1.462-.173,1.843.461.562.935.017,3.155-.644,4.758-1.725-.172-3.939-.736-4.501-1.671ZM19.331,26.812c1.226.258,2.273.314,2.51.323.014,0,.027,0,.041,0,.383,0,.733-.219.9-.566.078-.161.35-.747.629-1.54,1.435-.116,2.82.192,4.036.884l-2.93,6.696-6.814-3.634c.394-.826.949-1.555,1.629-2.164ZM9,26c0-.551.448-1,1-1s1,.449,1,1-.448,1-1,1-1-.449-1-1ZM32,53c-8.577,0-13-2.103-13-3s4.423-3,13-3,13,2.103,13,3-4.423,3-13,3Z"/>
  <path d="M31.451,42.836c.166.109.357.164.549.164s.383-.055.549-.164c.494-.325,4.826-3.257,4.826-6.273,0-1.965-1.598-3.563-3.563-3.563-.647,0-1.27.172-1.812.494-.543-.322-1.165-.494-1.813-.494-1.965,0-3.562,1.598-3.562,3.563,0,3.016,4.332,5.948,4.826,6.273ZM30.187,35c.417,0,.811.163,1.105.458.391.39,1.023.39,1.414,0,.295-.295.688-.458,1.105-.458.861,0,1.563.701,1.563,1.563,0,1.301-1.889,3.124-3.375,4.217-1.486-1.094-3.375-2.917-3.375-4.217,0-.862.701-1.563,1.562-1.563Z"/>
  <path d="M22,38c-1.654,0-3,1.346-3,3s1.346,3,3,3,3-1.346,3-3-1.346-3-3-3ZM22,42c-.552,0-1-.449-1-1s.448-1,1-1,1,.449,1,1-.448,1-1,1Z"/>
  <path d="M42,44c1.654,0,3-1.346,3-3s-1.346-3-3-3-3,1.346-3,3,1.346,3,3,3ZM42,40c.552,0,1,.449,1,1s-.448,1-1,1-1-.449-1-1,.448-1,1-1Z"/>
</svg>