<?xml version="1.0" encoding="UTF-8"?>
<svg id="Outline" xmlns="http://www.w3.org/2000/svg" version="1.1" viewBox="0 0 64 64">
  <!-- Generator: Adobe Illustrator 29.5.1, SVG Export Plug-In . SVG Version: 2.1.0 Build 141)  -->
  <path d="M50.026,27.058c3.209-3.08,6.974-7.626,6.974-12.011,0-4.438-3.339-8.048-7.443-8.048-1.673,0-3.259.591-4.557,1.681-1.298-1.09-2.884-1.681-4.557-1.681-1.875,0-3.585.759-4.895,2h-8.549c-.553,0-1,.447-1,1s.447,1,1,1h7.021c-.645,1.191-1.021,2.571-1.021,4.048,0,6.748,8.92,13.884,11,15.456v5.087l-13.345,11.523c-.373.322-.937.323-1.312,0l-13.344-11.523V12c0-.552.448-1,1-1h6c.553,0,1-.447,1-1s-.447-1-1-1h-6c-1.654,0-3,1.346-3,3v11.701l-5.917,4.927c-.688.569-1.083,1.411-1.083,2.312v23.06c0,1.654,1.346,3,3,3h40c1.654,0,3-1.346,3-3v-6c0-.553-.447-1-1-1s-1,.447-1,1v5.933l-13.11-10.423,13.11-11.322v11.812c0,.553.447,1,1,1s1-.447,1-1v-13.06c0-.9-.395-1.742-1.081-2.31l-1.893-1.572ZM35,15.048c0-3.335,2.441-6.048,5.443-6.048,1.438,0,2.793.617,3.818,1.739.379.414,1.098.414,1.477,0,1.025-1.122,2.381-1.739,3.818-1.739,3.002,0,5.443,2.713,5.443,6.048,0,5.561-7.781,11.981-10,13.699-2.219-1.718-10-8.139-10-13.699ZM46,30.504c.511-.386,1.435-1.109,2.539-2.08l1.917,1.592-4.456,3.848v-3.36ZM9,53.933v-21.744l13.111,11.321-13.111,10.423ZM14,33.864l-4.456-3.848,4.456-3.712v7.56ZM49.128,55H10.872l12.78-10.16,4.384,3.786c.56.485,1.262.728,1.964.728s1.404-.242,1.964-.727l4.385-3.787,12.779,10.16Z"/>
  <path d="M48,23c0-.553-.447-1-1-1h-1v-9c0-.404-.243-.77-.617-.924-.374-.155-.804-.069-1.09.217l-2,2c-.391.391-.391,1.023,0,1.414s1.023.391,1.414,0l.293-.293v6.586h-1c-.553,0-1,.447-1,1s.447,1,1,1h4c.553,0,1-.447,1-1Z"/>
  <path d="M21,33h-2c-.553,0-1,.447-1,1s.447,1,1,1h2c.553,0,1-.447,1-1s-.447-1-1-1Z"/>
  <path d="M24,34c0,.553.447,1,1,1h16c.553,0,1-.447,1-1s-.447-1-1-1h-16c-.553,0-1,.447-1,1Z"/>
  <path d="M21,29h-2c-.553,0-1,.447-1,1s.447,1,1,1h2c.553,0,1-.447,1-1s-.447-1-1-1Z"/>
  <path d="M38,29h-13c-.553,0-1,.447-1,1s.447,1,1,1h13c.553,0,1-.447,1-1s-.447-1-1-1Z"/>
  <path d="M21,25h-2c-.553,0-1,.447-1,1s.447,1,1,1h2c.553,0,1-.447,1-1s-.447-1-1-1Z"/>
  <path d="M25,27h10c.553,0,1-.447,1-1s-.447-1-1-1h-10c-.553,0-1,.447-1,1s.447,1,1,1Z"/>
  <circle cx="23" cy="14" r="1"/>
  <circle cx="19" cy="14" r="1"/>
  <circle cx="27" cy="14" r="1"/>
</svg>