<?xml version="1.0" encoding="UTF-8"?>
<svg id="Outline" xmlns="http://www.w3.org/2000/svg" version="1.1" viewBox="0 0 64 64">
  <!-- Generator: Adobe Illustrator 29.5.1, SVG Export Plug-In . SVG Version: 2.1.0 Build 141)  -->
  <path d="M12,39c0,2.206,1.794,4,4,4s4-1.794,4-4-1.794-4-4-4-4,1.794-4,4ZM18,39c0,1.103-.897,2-2,2s-2-.897-2-2,.897-2,2-2,2,.897,2,2Z"/>
  <path d="M21,45h-10c-2.21,0-4,1.79-4,4v5c0,1.65,1.35,3,3,3h12c1.65,0,3-1.35,3-3v-5c0-2.21-1.79-4-4-4ZM23,54c0,.55-.45,1-1,1h-6c-.55,0-1-.45-1-1s.45-1,1-1h4c.55,0,1-.45,1-1v-2c0-.55-.45-1-1-1s-1,.45-1,1v1h-6v-1c0-.55-.45-1-1-1s-1,.45-1,1v2c0,.55.45,1,1,1h1.18c-.11.31-.18.65-.18,1s.07.69.18,1h-3.18c-.55,0-1-.45-1-1v-5c0-1.1.9-2,2-2h10c1.1,0,2,.9,2,2v5Z"/>
  <path d="M52,39c0-2.206-1.794-4-4-4s-4,1.794-4,4,1.794,4,4,4,4-1.794,4-4ZM46,39c0-1.103.897-2,2-2s2,.897,2,2-.897,2-2,2-2-.897-2-2Z"/>
  <path d="M53,45h-10c-2.21,0-4,1.79-4,4v5c0,1.65,1.35,3,3,3h12c1.65,0,3-1.35,3-3v-5c0-2.21-1.79-4-4-4ZM55,54c0,.55-.45,1-1,1h-6c-.55,0-1-.45-1-1s.45-1,1-1h4c.55,0,1-.45,1-1v-2c0-.55-.45-1-1-1s-1,.45-1,1v1h-6v-1c0-.55-.45-1-1-1s-1,.45-1,1v2c0,.55.45,1,1,1h1.18c-.11.31-.18.65-.18,1s.07.69.18,1h-3.18c-.55,0-1-.45-1-1v-5c0-1.1.9-2,2-2h10c1.1,0,2,.9,2,2v5Z"/>
  <path d="M16,15c2.206,0,4-1.794,4-4s-1.794-4-4-4-4,1.794-4,4,1.794,4,4,4ZM16,9c1.103,0,2,.897,2,2s-.897,2-2,2-2-.897-2-2,.897-2,2-2Z"/>
  <path d="M21,17h-10c-2.21,0-4,1.79-4,4v5c0,1.65,1.35,3,3,3h12c1.65,0,3-1.35,3-3v-5c0-2.21-1.79-4-4-4ZM23,26c0,.55-.45,1-1,1h-6c-.55,0-1-.45-1-1s.45-1,1-1h4c.55,0,1-.45,1-1v-2c0-.55-.45-1-1-1s-1,.45-1,1v1h-6v-1c0-.55-.45-1-1-1s-1,.45-1,1v2c0,.55.45,1,1,1h1.18c-.11.31-.18.65-.18,1s.07.69.18,1h-3.18c-.55,0-1-.45-1-1v-5c0-1.1.9-2,2-2h10c1.1,0,2,.9,2,2v5Z"/>
  <path d="M48,15c2.206,0,4-1.794,4-4s-1.794-4-4-4-4,1.794-4,4,1.794,4,4,4ZM48,9c1.103,0,2,.897,2,2s-.897,2-2,2-2-.897-2-2,.897-2,2-2Z"/>
  <path d="M53,17h-10c-2.21,0-4,1.79-4,4v5c0,1.65,1.35,3,3,3h12c1.65,0,3-1.35,3-3v-5c0-2.21-1.79-4-4-4ZM55,26c0,.55-.45,1-1,1h-6c-.55,0-1-.45-1-1s.45-1,1-1h4c.55,0,1-.45,1-1v-2c0-.55-.45-1-1-1s-1,.45-1,1v1h-6v-1c0-.55-.45-1-1-1s-1,.45-1,1v2c0,.55.45,1,1,1h1.18c-.11.31-.18.65-.18,1s.07.69.18,1h-3.18c-.55,0-1-.45-1-1v-5c0-1.1.9-2,2-2h10c1.1,0,2,.9,2,2v5Z"/>
  <path d="M37,31v-1c0-2.76-2.24-5-5-5s-5,2.24-5,5v1c-1.65,0-3,1.35-3,3v8c0,1.65,1.35,3,3,3h10c1.65,0,3-1.35,3-3v-8c0-1.65-1.35-3-3-3ZM29,30c0-1.65,1.35-3,3-3s3,1.35,3,3v1h-6v-1ZM38,42c0,.55-.45,1-1,1h-10c-.55,0-1-.45-1-1v-8c0-.55.45-1,1-1h10c.55,0,1,.45,1,1v8Z"/>
  <path d="M32,35c-1.654,0-3,1.346-3,3s1.346,3,3,3,3-1.346,3-3-1.346-3-3-3ZM32,39c-.552,0-1-.448-1-1s.448-1,1-1,1,.448,1,1-.448,1-1,1Z"/>
</svg>