<?xml version="1.0" encoding="UTF-8"?>
<svg id="Outlie" xmlns="http://www.w3.org/2000/svg" version="1.1" viewBox="0 0 64 64">
  <!-- Generator: Adobe Illustrator 29.3.1, SVG Export Plug-In . SVG Version: 2.1.0 Build 151)  -->
  <path d="M30.97467,31.96993c-1.6543,0-3,1.3457-3,3s1.3457,3,3,3,3-1.3457,3-3-1.3457-3-3-3ZM30.97467,35.96993c-.55176,0-1-.44824-1-1s.44824-1,1-1,1,.44824,1,1-.44824,1-1,1Z"/>
  <path d="M22.97467,31.96993c-1.6543,0-3,1.3457-3,3s1.3457,3,3,3,3-1.3457,3-3-1.3457-3-3-3ZM22.97467,35.96993c-.55176,0-1-.44824-1-1s.44824-1,1-1,1,.44824,1,1-.44824,1-1,1Z"/>
  <path d="M36.76959,18.36251c-.18945-.24707-.4834-.39258-.79492-.39258h-16c-.55273,0-1,.44727-1,1s.44727,1,1,1h14.69043l-2.4541,9h-10.23633c-.55273,0-1,.44727-1,1s.44727,1,1,1h11c.45117,0,.8457-.30176.96484-.7373l3-11c.08203-.2998.01953-.62207-.16992-.87012Z"/>
  <path d="M19.97467,22.96993c0-.55273-.44727-1-1-1h-3c-.55273,0-1,.44727-1,1s.44727,1,1,1h3c.55273,0,1-.44727,1-1Z"/>
  <path d="M22.97467,25.96993c0-.55273-.44727-1-1-1h-3c-.55273,0-1,.44727-1,1s.44727,1,1,1h3c.55273,0,1-.44727,1-1Z"/>
  <path d="M26.97467,10.96993c-8.82227,0-16,7.17773-16,16s7.17773,16,16,16,16-7.17773,16-16-7.17773-16-16-16ZM26.97467,40.96993c-7.71973,0-14-6.28027-14-14s6.28027-14,14-14,14,6.28027,14,14-6.28027,14-14,14Z"/>
  <path d="M55.45123,48.75118l-11.98615-10.48737c2.2099-3.21661,3.50958-7.10486,3.50958-11.29388,0-11.02832-8.97168-20-20-20S6.97467,15.94161,6.97467,26.96993s8.97168,20,20,20c4.18903,0,8.07727-1.29968,11.29388-3.50958l10.48833,11.98613c1.76621,2.01843,5.03455,2.12048,6.92459.23072,1.88786-1.88759,1.76448-5.17864-.23024-6.92601ZM8.97467,26.96993c0-9.9248,8.0752-18,18-18s18,8.0752,18,18-8.0752,18-18,18-18-8.0752-18-18ZM54.26763,54.2629c-.54297.54297-1.2373.85938-2.03223.80176-.76758-.02539-1.46875-.35742-1.97363-.93457l-10.40161-11.88806c.8609-.72754,1.65906-1.5257,2.3866-2.38666l11.88806,10.4007c.57715.50586.90918,1.20703.93457,1.97461.02637.76758-.25879,1.48926-.80176,2.03223Z"/>
</svg>