<?xml version="1.0" encoding="UTF-8"?>
<svg id="Outline" xmlns="http://www.w3.org/2000/svg" version="1.1" viewBox="0 0 64 64">
  <!-- Generator: Adobe Illustrator 29.0.0, SVG Export Plug-In . SVG Version: 2.1.0 Build 186)  -->
  <path d="M49.45947,24.37109l-2.14307-10c-.29443-1.37402-1.52832-2.37109-2.93311-2.37109h-8.7666c-1.40479,0-2.63867.99707-2.93359,2.37109l-2.14209,10c-.19092.89062.02734,1.80664.59961,2.51465s1.42285,1.11426,2.3335,1.11426h13.05176c.91064,0,1.76123-.40625,2.3335-1.11426s.79053-1.62402.6001-2.51465ZM47.30371,25.62891c-.19043.23535-.47412.37109-.77783.37109h-13.05176c-.30371,0-.5874-.13574-.77783-.37109-.19092-.23633-.26367-.54199-.19971-.83789l2.14209-10c.09863-.45801.50977-.79102.97803-.79102h8.7666c.46826,0,.87939.33301.97754.79102l2.14307,10c.06348.2959-.00928.60156-.2002.83789Z"/>
  <path d="M43,16c-.55225,0-1,.44727-1,1v3c0,1.10254-.89697,2-2,2s-2-.89746-2-2v-3c0-.55273-.44775-1-1-1s-1,.44727-1,1v3c0,2.20605,1.79443,4,4,4s4-1.79395,4-4v-3c0-.55273-.44775-1-1-1Z"/>
  <path d="M40,7c-7.71997,0-14,6.27997-14,14v4c-.13,0-.27002.02997-.39001.07996l-15,6.43005q-.01996.00995-.02997.01996c-.04004.02002-.09003.04004-.13.06-.28003.19-.45001.5-.45001.84003v5.57001c0,.54999.45001,1,1,1s1-.45001,1-1v-4.04999l13,5.56995v14.96002l-13-5.57001v-2.90997c0-.54999-.45001-1-1-1s-1,.45001-1,1v3.57001c0,.39996.23999.75995.60999.91998l15,6.42999c.12.04999.25.08002.39001.08002s.27002-.03003.39001-.08002l15-6.42999c.37-.16003.60999-.52002.60999-.91998v-14.73004c6.77002-.97998,12-6.79999,12-13.83997,0-7.72003-6.28003-14-14-14ZM26,37.76996l-12.46002-5.33997,12.46002-5.34003v6.91003c0,.39996.23999.76996.62015.92006.3531.17643.8185.06211,1.08987-.2101l3.12-3.13c1.19,1.04004,2.53998,1.84003,3.96997,2.42004l-8.79999,3.76996ZM40,48.90997l-13,5.57001v-14.96002l10.91998-4.67999c.69.10004,1.38.16003,2.08002.16003v13.90997ZM40,33c-3.21002,0-6.21997-1.25-8.48999-3.51001-.19-.20001-.45001-.29999-.70001-.29999-.26001,0-.51001.09998-.71002.29999l-2.09998,2.09998v-10.58997c0-6.62,5.38-12,12-12s12,5.38,12,12-5.38,12-12,12Z"/>
  <circle cx="11" cy="42" r="1"/>
</svg>