<?xml version="1.0" encoding="UTF-8"?>
<svg id="Outline" xmlns="http://www.w3.org/2000/svg" version="1.1" viewBox="0 0 64 64">
  <!-- Generator: Adobe Illustrator 29.3.1, SVG Export Plug-In . SVG Version: 2.1.0 Build 151)  -->
  <path d="M54,7H10c-1.65002,0-3,1.34998-3,3v44c0,1.64996,1.34998,3,3,3h44c1.65002,0,3-1.35004,3-3V10c0-1.65002-1.34998-3-3-3ZM16.71997,9h4.89001l-1.32996,4h-4.89001l1.32996-4ZM9,10c0-.54999.45001-1,1-1h4.60999l-1.32996,4h-4.28003v-3ZM9,15h24v24H9V15ZM55,54c0,.54999-.45001,1-1,1H10c-.54999,0-1-.45001-1-1v-13h25c.54999,0,1-.45001,1-1V15h20v39ZM55,13H22.39001l1.32996-4h30.28003c.54999,0,1,.45001,1,1v3Z"/>
  <path d="M29,23.17999v-1.17999c0-2.76001-2.23999-5-5-5-.90997,0-1.76001.26001-2.5.70001-.73999-.44-1.59003-.70001-2.5-.70001-2.76001,0-5,2.23999-5,5v1c-1.65002,0-3,1.34998-3,3v8c0,1.64996,1.34998,3,3,3h14c1.65002,0,3-1.35004,3-3v-8c0-1.29999-.84003-2.40002-2-2.82001ZM24,19c1.65002,0,3,1.34998,3,3v1h-3v-1c0-1.06-.34003-2.04004-.90002-2.85004.29004-.08997.58002-.14996.90002-.14996ZM21,22c0-.60999.19-1.17999.5-1.65002.31.47003.5,1.04004.5,1.65002v1h-1v-1ZM16,22c0-1.65002,1.34998-3,3-3,.32001,0,.60999.06.90002.14996-.56.81-.90002,1.79004-.90002,2.85004v1h-3v-1ZM25,34c0,.54999-.45001,1-1,1h-10c-.54999,0-1-.45001-1-1v-8c0-.54999.45001-1,1-1h10c.54999,0,1,.45001,1,1v8ZM29,34c0,.54999-.45001,1-1,1h-1.17999c.10999-.31.17999-.65002.17999-1v-8c0-.35004-.07001-.69-.17999-1h1.17999c.54999,0,1,.45001,1,1v8Z"/>
  <path d="M52,17h-14c-.55225,0-1,.44727-1,1s.44775,1,1,1h14c.55225,0,1-.44727,1-1s-.44775-1-1-1Z"/>
  <path d="M52,21h-14c-.55225,0-1,.44727-1,1s.44775,1,1,1h14c.55225,0,1-.44727,1-1s-.44775-1-1-1Z"/>
  <path d="M38,27h10c.55225,0,1-.44727,1-1s-.44775-1-1-1h-10c-.55225,0-1,.44727-1,1s.44775,1,1,1Z"/>
  <path d="M52,35h-14c-.55225,0-1,.44727-1,1v4c0,.55273.44775,1,1,1h14c.55225,0,1-.44727,1-1v-4c0-.55273-.44775-1-1-1ZM51,39h-12v-2h12v2Z"/>
  <path d="M38,33h8c.55225,0,1-.44727,1-1s-.44775-1-1-1h-8c-.55225,0-1,.44727-1,1s.44775,1,1,1Z"/>
  <path d="M36.48438,46.0957l-2.30713-.66992-1.3501-1.9873c-.37207-.54883-1.28223-.54883-1.6543,0l-1.3501,1.9873-2.30713.66992c-.31836.0918-.57031.33594-.67285.65137-.10205.31445-.04199.66016.16113.92188l1.47412,1.89746-.07666,2.40137c-.01074.33203.14355.64648.41162.84082.26855.19531.61523.24414.92725.13184l2.25977-.81445,2.25977.81445c.11025.04.22488.05953.33902.05957.5351.00018,1.0181-.46781.99984-1.03223l-.07666-2.40137,1.47412-1.89746c.20312-.26172.26318-.60742.16113-.92188-.10254-.31543-.35449-.55957-.67285-.65137ZM33.72119,48.625c-.14258.18359-.2168.41211-.20947.64551l.04102,1.28906-1.21338-.4375c-.10986-.04004-.22461-.05957-.33936-.05957s-.22949.01953-.33936.05957l-1.21338.4375.04102-1.28906c.00732-.2334-.06689-.46191-.20947-.64551l-.7915-1.01953,1.23877-.35938c.22412-.06445.41797-.20508.54883-.39844l.7251-1.06738.7251,1.06738c.13086.19336.32471.33398.54883.39844l1.23877.35938-.7915,1.01953Z"/>
  <path d="M24.48438,46.0957l-2.30713-.66992-1.3501-1.9873c-.37207-.54883-1.28223-.54883-1.6543,0l-1.3501,1.9873-2.30713.66992c-.31836.0918-.57031.33594-.67285.65137-.10205.31445-.04199.66016.16113.92188l1.47412,1.89746-.07666,2.40137c-.01074.33203.14355.64648.41162.84082.26807.19531.61523.24414.92725.13184l2.25977-.81445,2.25977.81445c.11018.03998.22475.05951.33884.05957.54602.00028,1.01757-.49013,1.00003-1.03223l-.07666-2.40137,1.47412-1.89746c.20312-.26172.26318-.60742.16113-.92188-.10254-.31543-.35449-.55957-.67285-.65137ZM21.72119,48.625c-.14258.18359-.2168.41211-.20947.64551l.04102,1.28906-1.21338-.4375c-.10986-.04004-.22461-.05957-.33936-.05957s-.22949.01953-.33936.05957l-1.21338.4375.04102-1.28906c.00732-.2334-.06689-.46191-.20947-.64551l-.7915-1.01953,1.23877-.35938c.22412-.06445.41797-.20508.54883-.39844l.7251-1.06738.7251,1.06738c.13086.19336.32471.33398.54883.39844l1.23877.35938-.7915,1.01953Z"/>
  <path d="M48.48438,46.0957l-2.30713-.66992-1.3501-1.9873c-.37207-.54883-1.28223-.54883-1.6543,0l-1.3501,1.9873-2.30713.66992c-.31836.0918-.57031.33594-.67285.65137-.10205.31445-.04199.66016.16113.92188l1.47412,1.89746-.07666,2.40137c-.01074.33203.14355.64648.41162.84082.26855.19531.61475.24414.92725.13184l2.25977-.81445,2.25975.81445c.27907.10058.66406.05946.92726-.13183.26807-.19434.42236-.50879.41162-.84082l-.07666-2.40137,1.47412-1.89746c.20312-.26172.26318-.60742.16113-.92188-.10254-.31543-.35449-.55957-.67285-.65137ZM45.72119,48.625c-.14258.18359-.2168.41211-.20947.64551l.04102,1.28906-1.21338-.4375c-.10986-.04004-.22461-.05957-.33936-.05957s-.22949.01953-.33936.05957l-1.21338.4375.04102-1.28906c.00732-.2334-.06689-.46191-.20947-.64551l-.7915-1.01953,1.23877-.35938c.22412-.06445.41797-.20508.54883-.39844l.7251-1.06738.7251,1.06738c.13086.19336.32471.33398.54883.39844l1.23877.35938-.7915,1.01953Z"/>
</svg>