<?xml version="1.0" encoding="UTF-8"?>
<svg id="Outline" xmlns="http://www.w3.org/2000/svg" version="1.1" viewBox="0 0 48 48">
  <!-- Generator: Adobe Illustrator 29.5.1, SVG Export Plug-In . SVG Version: 2.1.0 Build 141)  -->
  <path d="M40,30H8c-1.654,0-3,1.346-3,3v6c0,1.654,1.346,3,3,3h32c1.654,0,3-1.346,3-3v-6c0-1.654-1.346-3-3-3ZM7,39v-6c0-.551.449-1,1-1h21v8H8c-.551,0-1-.449-1-1ZM41,39c0,.551-.449,1-1,1h-9v-8h9c.551,0,1,.449,1,1v6Z"/>
  <path d="M37.293,34.293l-1.293,1.293-1.293-1.293c-.391-.391-1.023-.391-1.414,0s-.391,1.023,0,1.414l2,2c.195.195.451.293.707.293s.512-.098.707-.293l2-2c.391-.391.391-1.023,0-1.414s-1.023-.391-1.414,0Z"/>
  <path d="M35.293,22.707c.195.195.451.293.707.293s.512-.098.707-.293l2-2c.391-.391.391-1.023,0-1.414s-1.023-.391-1.414,0l-1.293,1.293-1.293-1.293c-.391-.391-1.023-.391-1.414,0s-.391,1.023,0,1.414l2,2Z"/>
  <path d="M5.594,23.469l10,4.444s.005,0,.008.002c.122.053.256.085.398.085s.276-.031.398-.085c.003-.001.005,0,.008-.002l10-4.444c.361-.16.594-.519.594-.914v-11.111c0-.395-.233-.753-.594-.914l-10-4.444c-.259-.115-.554-.115-.812,0l-10,4.444c-.361.161-.594.519-.594.914v11.111c0,.395.233.753.594.914ZM7,12.983l8,3.556v8.922l-8-3.556v-8.923ZM17,25.461v-8.922l8-3.556v8.923l-8,3.556ZM16,8.094l7.538,3.35-7.538,3.351-7.538-3.351,7.538-3.35Z"/>
  <path d="M42,14h-12c-.552,0-1,.448-1,1v12c0,.552.448,1,1,1h12c.552,0,1-.448,1-1v-12c0-.552-.448-1-1-1ZM41,26h-10v-10h10v10Z"/>
</svg>