<?xml version="1.0" encoding="UTF-8"?>
<svg id="Outline" xmlns="http://www.w3.org/2000/svg" version="1.1" viewBox="0 0 64 64">
  <!-- Generator: Adobe Illustrator 29.5.1, SVG Export Plug-In . SVG Version: 2.1.0 Build 141)  -->
  <path d="M38.76416,39.99048h-2.76416c-.55225,0-1,.44727-1,1s.44775,1,1,1h1v1c0,.55273.44775,1,1,1s1-.44727,1-1v-1.02386c1.12091-.11975,2-1.05988,2-2.21246,0-.85156-.47314-1.61719-1.23584-2l-2.63281-1.31543c-.08105-.04102-.13135-.12207-.13135-.21191,0-.12988.10596-.23633.23584-.23633h2.76416c.55225,0,1-.44727,1-1s-.44775-1-1-1h-1v-1c0-.55273-.44775-1-1-1s-1,.44727-1,1v1.02386c-1.12091.11975-2,1.05988-2,2.21246,0,.85156.47314,1.61719,1.23584,2l2.63281,1.31543c.08105.04102.13135.12207.13135.21191,0,.12988-.10596.23633-.23584.23633Z"/>
  <path d="M52,37.99048c0-2.81152-.83057-5.52344-2.40234-7.8418-.30957-.45703-.93066-.57617-1.38867-.2666-.45703.31055-.57666.93164-.2666,1.38965,1.34619,1.98535,2.05762,4.30859,2.05762,6.71875,0,2.11731-.55548,4.16327-1.60773,5.9798-.64697-.33679-1.40045-.47034-2.15118-.32758,1.1073-1.60938,1.75891-3.55542,1.75891-5.65222,0-5.51367-4.48584-10-10-10s-10,4.48633-10,10c0,2.20343.72119,4.29132,2.01404,6h-2.39594c-1.05591-1.81531-1.6181-3.87616-1.6181-6,0-6.61719,5.3833-12,12-12,2.68799,0,5.32324.91406,7.41943,2.57422.43262.3418,1.06104.27051,1.40479-.16309.34277-.43359.26953-1.0625-.16357-1.40527-1.6568-1.31213-3.60406-2.21362-5.66064-2.66669v-2.33917h1c.38428,0,.73486-.2207.90137-.56641.1665-.34668.11963-.75781-.12061-1.05859l-4-5c-.37891-.47461-1.18262-.47461-1.56152,0l-4,5c-.24023.30078-.28711.71191-.12061,1.05859.1665.3457.51709.56641.90137.56641h1v2.33185c-6.28156,1.37811-11,6.97888-11,13.66815,0,1.90973.39252,3.77576,1.13379,5.50287l-1.89111-.4726c-.07959-.02051-.16113-.03027-.24268-.03027h-3c0-.55273-.44775-1-1-1h-6c-.55225,0-1,.44727-1,1v12c0,.55273.44775,1,1,1h6c.55225,0,1-.44727,1-1h.87695l6.81152,1.70215c.78857.19727,1.60059.29785,2.41309.29785,1.3999,0,2.75879-.28809,4.03955-.85645l14.06885-6.25098c.83496-.37598,1.46191-1.05566,1.76611-1.91504.29797-.84015.24255-1.73975-.1424-2.52771,1.41364-2.23431,2.16632-4.79303,2.16632-7.44983ZM36.07812,19.99341l1.92188-2.40234,1.92188,2.40234c-.51562.04004-.92188.4707-.92188.99707v3.0423c-.3324-.02405-.66553-.0423-1-.0423-.33752,0-.66833.02704-1,.05066v-3.05066c0-.52637-.40625-.95703-.92188-.99707ZM38,29.99048c4.41113,0,8,3.58887,8,8s-3.58887,8-8,8c-.89404,0-1.76282-.15442-2.59235-.44391-.58051-.86548-1.54053-1.44287-2.6369-1.52869-1.75916-1.5127-2.77075-3.68854-2.77075-6.0274,0-4.41113,3.58887-8,8-8ZM48.09125,47.30003c-.09103.30695-.31217.5836-.69769.75686l-14.06445,6.24902c-1.61816.7168-3.44043.875-5.15527.44727l-6.93115-1.73242c-.07959-.02051-.16113-.03027-.24268-.03027h-1v-2c0-.55273-.44775-1-1-1s-1,.44727-1,1v3h-4v-10h4v3c0,.55273.44775,1,1,1s1-.44727,1-1v-2h2.87695l3.88037.96973c.07959.02051.16113.03027.24268.03027h5.5c.82715,0,1.5.67285,1.5,1.5s-.67285,1.5-1.5,1.5h-5.5c-.55225,0-1,.44727-1,1s.44775,1,1,1h5.5c.99005,0,1.88104-.41742,2.51837-1.08057.02753-.00769.05542-.00305.0827-.01318l11.30806-4.23826c1.10178-.41295,1.94836.74386,1.68212,1.64156Z"/>
  <path d="M42,13.99048h1v4c0,.55273.44775,1,1,1h4c.55225,0,1-.44727,1-1v-4h1c.38428,0,.73486-.2207.90137-.56641.1665-.34668.11963-.75781-.12061-1.05859l-4-5c-.37891-.47461-1.18262-.47461-1.56152,0l-4,5c-.24023.30078-.28711.71191-.12061,1.05859.1665.3457.51709.56641.90137.56641ZM46,9.59106l1.92188,2.40234c-.51562.04004-.92188.4707-.92188.99707v4h-2v-4c0-.52637-.40625-.95703-.92188-.99707l1.92188-2.40234Z"/>
  <path d="M17.86572,27.98169c1.62988.2207,2.92236,1.51367,3.14355,3.14355.06689.49512.49023.86523.99072.86523s.92383-.37012.99072-.86523c.22119-1.62988,1.51367-2.92285,3.14355-3.14355.49609-.06738.86572-.49121.86572-.99121s-.36963-.92383-.86572-.99121c-1.62988-.2207-2.92236-1.51367-3.14355-3.14355-.06689-.49512-.49023-.86523-.99072-.86523s-.92383.37012-.99072.86523c-.22119,1.62988-1.51367,2.92285-3.14355,3.14355-.49609.06738-.86572.49121-.86572.99121s.36963.92383.86572.99121ZM22,25.63306c.37256.52539.83154.98535,1.35693,1.35742-.52539.37207-.98438.83203-1.35693,1.35742-.37256-.52539-.83154-.98535-1.35693-1.35742.52539-.37207.98438-.83203,1.35693-1.35742Z"/>
  <path d="M13.86572,35.98169c1.62988.2207,2.92236,1.51367,3.14355,3.14355.06689.49512.49023.86523.99072.86523s.92383-.37012.99072-.86523c.22119-1.62988,1.51367-2.92285,3.14355-3.14355.49609-.06738.86572-.49121.86572-.99121s-.36963-.92383-.86572-.99121c-1.62988-.2207-2.92236-1.51367-3.14355-3.14355-.06689-.49512-.49023-.86523-.99072-.86523s-.92383.37012-.99072.86523c-.22119,1.62988-1.51367,2.92285-3.14355,3.14355-.49609.06738-.86572.49121-.86572.99121s.36963.92383.86572.99121ZM18,33.63306c.37256.52539.83154.98535,1.35693,1.35742-.52539.37207-.98438.83203-1.35693,1.35742-.37256-.52539-.83154-.98535-1.35693-1.35742.52539-.37207.98438-.83203,1.35693-1.35742Z"/>
</svg>