<?xml version="1.0" encoding="UTF-8"?>
<svg id="Outline" xmlns="http://www.w3.org/2000/svg" version="1.1" viewBox="0 0 64 64">
  <!-- Generator: Adobe Illustrator 29.5.1, SVG Export Plug-In . SVG Version: 2.1.0 Build 141)  -->
  <path d="M50,43h-3.18c.11-.31.18-.65.18-1,0-1.6-1.26-2.9-2.85-2.98-.1-1.58-.43-3.13-1.01-4.59-.69-1.78-1.71-3.4-3.02-4.81l-3.36-3.62,3.19-3.43c.38-.4.36-1.04-.05-1.41-.4-.38-1.04-.36-1.41.05l-3.82,4.11c-.36.38-.36.98,0,1.36l3.99,4.3c1.14,1.22,2.02,2.63,2.62,4.18.49,1.23.78,2.52.88,3.84h-20.32c.22-2.99,1.45-5.81,3.5-8.02l3.99-4.3c.36-.38.36-.98,0-1.36l-3.99-4.3c-1.14-1.22-2.02-2.63-2.62-4.18-.49-1.23-.78-2.52-.88-3.84h20.32c-.14,1.81-.65,3.58-1.49,5.17-.26.49-.08,1.09.41,1.35.49.26,1.09.08,1.35-.41,1.01-1.89,1.6-3.99,1.74-6.13,1.57-.09,2.83-1.38,2.83-2.98,0-1.65-1.35-3-3-3h-24c-1.65,0-3,1.35-3,3,0,1.6,1.26,2.9,2.85,2.98.1,1.58.43,3.13,1.01,4.59.69,1.78,1.71,3.4,3.02,4.81l3.36,3.62-3.36,3.62c-2.41,2.58-3.81,5.89-4.03,9.4-1.59.08-2.85,1.38-2.85,2.98,0,.35.07.69.18,1h-3.18c-3.86,0-7,3.14-7,7s3.14,7,7,7h36c3.86,0,7-3.14,7-7s-3.14-7-7-7ZM20,11c-.55,0-1-.45-1-1s.45-1,1-1h24c.55,0,1,.45,1,1s-.45,1-1,1h-24ZM20,41h24c.55,0,1,.45,1,1s-.45,1-1,1h-24c-.55,0-1-.45-1-1s.45-1,1-1ZM50,55H14c-2.76,0-5-2.24-5-5s2.24-5,5-5h36c2.76,0,5,2.24,5,5s-2.24,5-5,5Z"/>
  <path d="M50,47H14c-1.654,0-3,1.346-3,3s1.346,3,3,3h36c1.654,0,3-1.346,3-3s-1.346-3-3-3ZM24.414,51l2-2h3.172l-2,2h-3.172ZM18.414,51l2-2h3.172l-2,2h-3.172ZM13,50c0-.552.449-1,1-1h3.586l-2,2h-1.586c-.551,0-1-.448-1-1ZM50,51h-19.586l2-2h17.586c.551,0,1,.448,1,1s-.449,1-1,1Z"/>
  <path d="M39.312,16.389c.13-.309.097-.662-.088-.941-.186-.279-.499-.447-.833-.447h-4.39c-.552,0-1,.447-1,1s.448,1,1,1h2.737c-.296.461-.633.895-1.01,1.3l-3.728,4.012-3.728-4.013c-.376-.404-.713-.838-1.009-1.299h2.737c.552,0,1-.447,1-1s-.448-1-1-1h-4.39c-.335,0-.648.168-.833.447-.185.279-.218.633-.088.941.51,1.209,1.223,2.311,2.119,3.272l4.46,4.8c.189.204.455.319.732.319s.543-.115.732-.319l4.459-4.799c.896-.963,1.609-2.064,2.12-3.273Z"/>
  <path d="M31.267,27.536l-4.458,4.801c-.896.966-1.61,2.066-2.121,3.273-.131.309-.098.662.087.942.185.279.498.447.833.447h12.782c.335,0,.648-.168.833-.447.186-.28.218-.634.087-.942-.511-1.207-1.224-2.308-2.121-3.273l-4.458-4.801c-.379-.406-1.087-.406-1.466,0ZM35.726,33.698c.377.406.715.841,1.011,1.302h-9.474c.296-.461.634-.896,1.011-1.302l3.726-4.012,3.726,4.012Z"/>
</svg>