<?xml version="1.0" encoding="UTF-8"?>
<svg id="Outline" xmlns="http://www.w3.org/2000/svg" version="1.1" viewBox="0 0 64 64">
  <!-- Generator: Adobe Illustrator 29.3.1, SVG Export Plug-In . SVG Version: 2.1.0 Build 151)  -->
  <path d="M56,51h-2v-25c0-.54999-.45001-1-1-1h-6c-.54999,0-1,.45001-1,1v25h-2v-19c0-.54999-.45001-1-1-1h-6c-.54999,0-1,.45001-1,1v19h-2v-11c0-.54999-.45001-1-1-1h-6c-.54999,0-1,.45001-1,1v11h-2v-5c0-.54999-.45001-1-1-1h-6c-.54999,0-1,.45001-1,1v5h-3V8c0-.54999-.45001-1-1-1h-4c-.54999,0-1,.45001-1,1v48c0,.54999.45001,1,1,1h48c.54999,0,1-.45001,1-1v-4c0-.54999-.45001-1-1-1ZM48,27h4v24h-4v-24ZM38,33h4v18h-4v-18ZM28,41h4v10h-4v-10ZM18,47h4v4h-4v-4ZM55,55H9V9h2v43c0,.54999.45001,1,1,1h43v2Z"/>
  <path d="M18,43h4c.55225,0,1-.44727,1-1v-1.75c0-5.65234,4.59814-10.25,10.25-10.25,5.18457,0,10.09961-2.50195,13.14844-6.69238l3.44238-4.73145,1.57129,1.14258c.3042.22266.70703.25488,1.0415.08203.33545-.16992.54639-.51465.54639-.89062v-7.91016c0-.30957-.14355-.60254-.38867-.79102-.24609-.18945-.56494-.25391-.86426-.17676l-8,2.08984c-.37402.09766-.6582.40234-.72949.78223-.07178.37988.08154.7666.39453.99414l1.57129,1.14258-3.44189,4.74023c-1.92188,2.6416-5.02148,4.21875-8.2915,4.21875-8.96045,0-16.25,7.29004-16.25,16.25v1.75c0,.55273.44775,1,1,1ZM19,40.25c0-7.85742,6.39258-14.25,14.25-14.25,3.90723,0,7.61133-1.88477,9.90918-5.04199l4.02979-5.5498c.32422-.44727.22559-1.07227-.22119-1.39648l-.6709-.48828,4.70312-1.22852v4.65137l-.79199-.5752c-.44629-.32422-1.07129-.22656-1.39648.2207l-4.03027,5.54004c-2.67383,3.67383-6.98438,5.86816-11.53125,5.86816-6.75488,0-12.25,5.49512-12.25,12.25v.75h-2v-.75Z"/>
</svg>