<?xml version="1.0" encoding="UTF-8"?>
<svg id="Outline" xmlns="http://www.w3.org/2000/svg" version="1.1" viewBox="0 0 64 64">
  <!-- Generator: Adobe Illustrator 29.5.1, SVG Export Plug-In . SVG Version: 2.1.0 Build 141)  -->
  <path d="M31,20.994c0-1.654-1.346-3-3-3s-3,1.346-3,3,1.346,3,3,3,3-1.346,3-3ZM27,20.994c0-.551.449-1,1-1s1,.449,1,1-.449,1-1,1-1-.449-1-1Z"/>
  <path d="M36,25.994c-1.654,0-3,1.346-3,3s1.346,3,3,3,3-1.346,3-3-1.346-3-3-3ZM36,29.994c-.551,0-1-.449-1-1s.449-1,1-1,1,.449,1,1-.449,1-1,1Z"/>
  <path d="M37.707,19.287c-.391-.391-1.023-.391-1.414,0l-10,10c-.391.391-.391,1.023,0,1.414.37.37,1.019.395,1.414,0l10-10c.391-.391.391-1.023,0-1.414Z"/>
  <path d="M44,24.994c0-6.617-5.383-12-12-12s-12,5.383-12,12,5.383,12,12,12,12-5.383,12-12ZM32,34.994c-5.514,0-10-4.486-10-10s4.486-10,10-10,10,4.486,10,10-4.486,10-10,10Z"/>
  <path d="M53.099,24.994l3.78-7.561c.152-.305.136-.667-.043-.956-.179-.29-.496-.466-.836-.466h-10.882c-1.117-1.407-1.881-3.09-2.154-4.916-.039-.261-.181-.495-.394-.65s-.479-.217-.74-.174c-3.34.561-6.754-.549-9.129-2.966-.369-.376-1.032-.376-1.401,0-2.375,2.417-5.787,3.526-9.129,2.966-.259-.042-.527.02-.74.174s-.355.389-.394.65c-.273,1.826-1.036,3.509-2.154,4.916h-10.882c-.34,0-.657.176-.836.466-.179.29-.195.651-.043.956l3.78,7.561-3.78,7.561c-.152.305-.136.667.043.956.179.29.496.466.836.466h9.018v.895c0,7.125-1.685,14.259-4.894,20.68-.316.632.17,1.426.877,1.426.123,0,.247-.023.365-.07l4.521-1.808,2.57,1.713c.25.166.562.21.847.118.285-.092.513-.309.618-.59,2.009-5.358,3.035-10.973,3.058-16.693,2.368.252,4.614,1.299,6.321,3.036.185.188.437.294.701.294s.516-.106.701-.294c1.707-1.737,3.954-2.784,6.321-3.036.023,5.72,1.049,11.335,3.058,16.693.214.574.957.811,1.465.472l2.57-1.713,4.521,1.808c.379.154.799.029,1.075-.272.276-.3.326-.766.143-1.13-3.186-6.373-4.871-13.507-4.871-20.632v-.895h9.018c.34,0,.657-.176.836-.466.179-.29.195-.651.043-.956l-3.78-7.561ZM12.879,25.433c.138-.277.138-.602,0-.879l-3.289-6.578h7.235c-.453.327-.924.632-1.432.885-.236.118-.415.325-.496.576-.082.251-.059.524.063.758,1.565,3.005,1.565,6.594,0,9.599-.122.234-.145.507-.063.758.082.25.26.458.496.576.508.253.979.558,1.432.885h-7.235l3.289-6.578ZM20.5,54.48l-1.956-1.304c-.27-.18-.61-.217-.91-.095l-2.689,1.076c2.646-6.059,4.037-12.677,4.037-19.287v-.773c1.064,1.382,1.789,3.022,2.054,4.794.039.261.181.495.394.65.213.156.481.217.74.174.281-.047.562-.065.844-.089-.019,5.075-.862,10.065-2.513,14.852ZM32,40.645c-2.257-1.964-5.147-3.037-8.117-3.037-.36,0-.721.016-1.083.048-.752-3.27-2.809-6.1-5.686-7.826,1.313-3.088,1.313-6.586,0-9.674,2.877-1.726,4.933-4.556,5.686-7.826,3.349.301,6.67-.786,9.2-2.989,2.53,2.203,5.852,3.29,9.2,2.989.752,3.27,2.809,6.1,5.686,7.826-1.313,3.088-1.313,6.586,0,9.674-2.877,1.726-4.933,4.556-5.686,7.826-3.347-.297-6.669.787-9.2,2.989ZM49.057,54.158l-2.692-1.077c-.299-.121-.641-.085-.91.095l-1.956,1.304c-1.652-4.787-2.494-9.777-2.513-14.853.281.024.563.042.844.089.262.043.527-.019.74-.174.213-.155.355-.389.394-.65.265-1.773.99-3.412,2.054-4.794v.773c0,6.596,1.384,13.2,4.04,19.288ZM47.175,32.011c.453-.327.924-.632,1.432-.885.236-.118.415-.325.496-.576.082-.251.059-.524-.063-.758-1.565-3.005-1.565-6.594,0-9.599.122-.234.145-.507.063-.758-.082-.25-.26-.458-.496-.576-.508-.253-.979-.558-1.432-.885h7.235l-3.289,6.578c-.138.277-.138.602,0,.879l3.289,6.578h-7.235Z"/>
</svg>