<?xml version="1.0" encoding="UTF-8"?>
<svg id="Outline" xmlns="http://www.w3.org/2000/svg" version="1.1" viewBox="0 0 64 64">
  <!-- Generator: Adobe Illustrator 29.5.1, SVG Export Plug-In . SVG Version: 2.1.0 Build 141)  -->
  <path d="M32,7c-13.785,0-25,11.215-25,25s11.215,25,25,25,25-11.215,25-25S45.785,7,32,7ZM55,32c0,2.44-.385,4.792-1.093,7h-11.722c3.583-5.101,6.815-10.848,6.815-15,0-4.201-1.539-8.043-4.073-11.012,6.075,4.144,10.073,11.119,10.073,19.012ZM17,24c0-8.271,6.729-15,15-15s15,6.729,15,15c0,7.292-11.897,21.049-15,24.513-3.103-3.464-15-17.221-15-24.513ZM19.073,12.988c-2.534,2.97-4.073,6.812-4.073,11.012,0,4.152,3.231,9.899,6.815,15h-11.722c-.707-2.208-1.093-4.56-1.093-7,0-7.893,3.998-14.868,10.073-19.012ZM32,55c-9.49,0-17.655-5.778-21.164-14h12.423c2.492,3.359,4.963,6.265,6.494,8h-3.753c-.552,0-1,.447-1,1s.448,1,1,1h12c.552,0,1-.447,1-1s-.448-1-1-1h-3.753c1.53-1.735,4.001-4.641,6.494-8h12.423c-3.51,8.222-11.675,14-21.164,14Z"/>
  <path d="M45,24c0-7.168-5.832-13-13-13s-13,5.832-13,13,5.832,13,13,13,13-5.832,13-13ZM21,24c0-6.065,4.935-11,11-11s11,4.935,11,11-4.935,11-11,11-11-4.935-11-11Z"/>
  <path d="M37.707,18.293c-.391-.391-1.023-.391-1.414,0,0,0-9.96,9.96-10,10-.609.609-.154,1.707.707,1.707.256,0,.512-.098.707-.293l10-10c.391-.391.391-1.023,0-1.414Z"/>
  <path d="M31,20c0-1.654-1.346-3-3-3s-3,1.346-3,3,1.346,3,3,3,3-1.346,3-3ZM27,20c0-.552.449-1,1-1s1,.448,1,1-.449,1-1,1-1-.448-1-1Z"/>
  <path d="M33,28c0,1.654,1.346,3,3,3s3-1.346,3-3-1.346-3-3-3-3,1.346-3,3ZM37,28c0,.552-.449,1-1,1s-1-.448-1-1,.449-1,1-1,1,.448,1,1Z"/>
</svg>