<?xml version="1.0" encoding="UTF-8"?>
<svg id="Outline" xmlns="http://www.w3.org/2000/svg" version="1.1" viewBox="0 0 64 64">
  <!-- Generator: Adobe Illustrator 29.3.1, SVG Export Plug-In . SVG Version: 2.1.0 Build 151)  -->
  <path d="M57,24c0-7.16797-5.83203-13-13-13-.81622,0-1.62384.09607-2.41821.24524-2.37872-2.6012-5.78766-4.24524-9.58179-4.24524s-7.20306,1.64404-9.58179,4.24524c-.79437-.14917-1.60199-.24524-2.41821-.24524-7.16797,0-13,5.83203-13,13,0,6.08301,4.15625,11.26953,10,12.63867v5.36133h-3c-.55273,0-1,.44727-1,1v4c0,.55273.44727,1,1,1h3v8c0,.55273.44727,1,1,1h4c.55273,0,1-.44727,1-1v-8h3c.55273,0,1-.44727,1-1v-4c0-.55273-.44727-1-1-1h-3v-5.36133c2.35413-.55573,4.51276-1.77167,6.22968-3.50079l1.98907,2.48712c.19043.2373.47754.375.78125.375s.59082-.1377.78125-.375l1.98907-2.48712c1.71692,1.72913,3.87555,2.94507,6.22968,3.50079v9.94727l-1.29297-1.29297c-.39062-.39062-1.02344-.39062-1.41406,0l-3,3c-.19531.19531-.30176.46387-.29199.74023.00879.27637.13184.53711.34082.71973l8,7c.18848.16504.42285.24707.6582.24707s.46973-.08203.6582-.24707l8-7c.20898-.18262.33203-.44336.34082-.71973.00977-.27637-.09668-.54492-.29199-.74023l-3-3c-.39062-.39062-1.02344-.39062-1.41406,0l-1.29297,1.29297v-9.94727c5.84375-1.36914,10-6.55566,10-12.63867ZM23.65033,29.96991c-1.09076.66925-2.35077,1.03009-3.65033,1.03009-3.85938,0-7-3.14062-7-7,0-3.64166,2.79712-6.64026,6.35498-6.96735-.22418.95483-.35498,1.94513-.35498,2.96735,0,3.98224,1.7724,7.57245,4.65033,9.96991ZM21.83496,34.83398c-.48145.08008-.83496.49707-.83496.98633v7.17969c0,.55273.44727,1,1,1h3v2h-3c-.55273,0-1,.44727-1,1v8h-2v-8c0-.55273-.44727-1-1-1h-3v-2h3c.55273,0,1-.44727,1-1v-7.17969c0-.48828-.35254-.90527-.83496-.98633-5.31055-.88965-9.16504-5.44629-9.16504-10.83398,0-6.06543,4.93457-11,11-11,.34436,0,.68628.02753,1.02728.05902-.39111.61597-.73981,1.26099-1.02435,1.9411-.00098,0-.00195-.00012-.00293-.00012-4.96289,0-9,4.03711-9,9s4.03711,9,9,9c1.95813,0,3.84668-.63776,5.3974-1.80505.62427.36481,1.28351.67981,1.97516.94055-1.55505,1.4054-3.47089,2.35339-5.5376,2.69849ZM32,33.39941l-1.85938-2.3252c-.14258-.17676-.33984-.30078-.56152-.35059-5.05176-1.13574-8.5791-5.54492-8.5791-10.72363,0-6.06543,4.93457-11,11-11s11,4.93457,11,11c0,5.17871-3.52734,9.58789-8.5791,10.72363-.22168.0498-.41895.17383-.56152.35059l-1.85938,2.3252ZM45.61719,49.92383c.37402.15625.80371.06934,1.08984-.2168l2.29297-2.29297,1.53711,1.53711-6.53711,5.71973-6.53711-5.71973,1.53711-1.53711,2.29297,2.29297c.28613.28711.7168.37305,1.08984.2168.37402-.1543.61719-.51953.61719-.92383v-13.17969c0-.48926-.35352-.90625-.83496-.98633-2.06671-.34509-3.98254-1.29309-5.5376-2.69849.69165-.26074,1.35089-.57574,1.97516-.94055,1.55072,1.1673,3.43927,1.80505,5.3974,1.80505,3.27246,0,6.29004-1.78027,7.875-4.64551.26758-.4834.0918-1.0918-.39062-1.35938-.48633-.26855-1.0918-.0918-1.35938.39062-1.23242,2.22949-3.58008,3.61426-6.125,3.61426-1.29956,0-2.55957-.36084-3.65033-1.03009,2.87793-2.39746,4.65033-5.98767,4.65033-9.96991,0-1.01819-.12964-2.00476-.35211-2.95618,2.28925.21375,4.35052,1.53235,5.47711,3.57043.18262.3291.52344.51562.87598.51562.16406,0,.3291-.04004.4834-.125.48242-.26758.6582-.87598.39062-1.35938-1.58496-2.86523-4.60254-4.64551-7.875-4.64551-.00098,0-.00195.00012-.00293.00012-.28455-.68011-.63324-1.32513-1.02435-1.9411.341-.03149.68292-.05902,1.02728-.05902,6.06543,0,11,4.93457,11,11,0,5.3877-3.85449,9.94434-9.16504,10.83398-.48242.08105-.83496.49805-.83496.98633v13.17969c0,.4043.24316.76953.61719.92383Z"/>
  <path d="M35.11914,19.9082c1.51562-1.21191,2.18555-3.15527,1.74805-5.07324-.41797-1.83105-1.87109-3.28418-3.70215-3.70215-1.52441-.34961-3.08301,0-4.28027.95605-1.19824.95508-1.88477,2.38086-1.88477,3.91113,0,.55273.44727,1,1,1s1-.44727,1-1c0-.91797.41211-1.77344,1.13184-2.34766.72949-.58203,1.64844-.78516,2.58789-.57031,1.07031.24512,1.95312,1.12793,2.19824,2.19824.26465,1.16211-.13672,2.33789-1.04688,3.06543-1.8252,1.45801-2.87109,3.50781-2.87109,5.625v.0293c0,.55273.44727.98535,1,.98535s1-.46191,1-1.01465c0-1.50586.77246-2.98633,2.11914-4.0625Z"/>
  <circle cx="32" cy="28" r="1"/>
  <circle cx="52" cy="24" r="1"/>
</svg>