<?xml version="1.0" encoding="UTF-8"?>
<svg id="Outline" xmlns="http://www.w3.org/2000/svg" version="1.1" viewBox="0 0 64 64">
  <!-- Generator: Adobe Illustrator 29.5.1, SVG Export Plug-In . SVG Version: 2.1.0 Build 141)  -->
  <path d="M56,7h-4c-.55,0-1,.45-1,1v5h-2v-2c0-.48-.34-.89-.82-.98l-.96-.18c-10.1-1.9-20.34-1.9-30.44,0l-.96.18c-.48.09-.82.5-.82.98v2h-2v-5c0-.55-.45-1-1-1h-4c-.55,0-1,.45-1,1v48c0,.55.45,1,1,1h4c.55,0,1-.45,1-1v-17h2v2c0,.48.34.89.82.98l.96.18c5.05.95,10.14,1.42,15.22,1.42s10.17-.47,15.22-1.42l.96-.18c.48-.09.82-.5.82-.98v-2h2v17c0,.55.45,1,1,1h4c.55,0,1-.45,1-1V8c0-.55-.45-1-1-1ZM11,55h-2V9h2v46ZM15,37h-2v-10h2v10ZM15,25h-2v-10h2v10ZM21,40.82c-1.29-.18-2.57-.38-3.85-.62l-.15-.03V11.83l.15-.03c1.28-.24,2.56-.44,3.85-.62v29.64ZM41,41.06c-5.99.67-12.01.67-18,0V10.94c5.99-.67,12.01-.67,18,0v30.12ZM47,40.17l-.15.03c-1.28.24-2.56.44-3.85.62V11.18c1.29.18,2.57.38,3.85.62l.15.03v28.34ZM51,37h-2v-10h2v10ZM51,25h-2v-10h2v10ZM55,55h-2V9h2v46Z"/>
  <path d="M32,19c-3.859,0-7,3.141-7,7s3.141,7,7,7,7-3.141,7-7-3.141-7-7-7ZM37,26c0,1.017-.309,1.962-.833,2.753l-3.167-3.167v-4.485c2.279.465,4,2.484,4,4.899ZM31,30.899c-.637-.13-1.229-.384-1.753-.732l1.753-1.753v2.485ZM33,28.414l1.753,1.753c-.524.348-1.116.602-1.753.732v-2.485ZM27,26c0-2.414,1.721-4.434,4-4.899v4.485l-3.167,3.167c-.524-.791-.833-1.736-.833-2.753Z"/>
</svg>