<?xml version="1.0" encoding="UTF-8"?>
<svg id="Outline" xmlns="http://www.w3.org/2000/svg" version="1.1" viewBox="0 0 64 64">
  <!-- Generator: Adobe Illustrator 29.5.1, SVG Export Plug-In . SVG Version: 2.1.0 Build 141)  -->
  <path d="M56,46.98h-5.14l-3.61-23.45c-.23-1.48-1.48-2.55-2.97-2.55h-8.31c.64-.84,1.03-1.87,1.03-3,0-.15-.03-.29-.04-.44l.05-.1c.68-1.24,1.81-2.15,3.17-2.55l.95-.27c.3-.09.54-.31.65-.6.11-.29.09-.62-.08-.89-.87-1.42-1.03-3.19-.41-4.74.15-.4.04-.86-.29-1.13-.33-.28-.8-.32-1.17-.09-1.42.87-3.19,1.03-4.74.41-.29-.11-.62-.08-.89.08-.26.16-.44.44-.47.74l-.11.99c-.14,1.25-.72,2.37-1.62,3.23-.9-.86-1.48-1.98-1.62-3.23l-.11-.99c-.03-.3-.21-.58-.47-.74-.27-.16-.6-.19-.89-.08-1.55.62-3.32.46-4.74-.41-.37-.23-.84-.19-1.17.09-.33.27-.44.73-.29,1.13.62,1.55.46,3.32-.41,4.74-.17.27-.19.6-.08.89.11.29.35.51.65.6l.95.27c1.36.4,2.49,1.31,3.17,2.55l.05.1c-.01.15-.04.29-.04.44,0,1.13.39,2.16,1.03,3h-8.31c-1.49,0-2.74,1.07-2.97,2.55l-3.61,23.45h-5.14c-.55,0-1,.45-1,1,0,1.32.52,2.58,1.47,3.54.95.94,2.21,1.46,3.53,1.46h1v1c0,1.65,1.35,3,3,3h22c.55,0,1-.45,1-1s-.45-1-1-1h-22c-.55,0-1-.45-1-1v-1h34v1c0,.55-.45,1-1,1h-6c-.55,0-1,.45-1,1s.45,1,1,1h6c1.65,0,3-1.35,3-3v-1h1c2.76,0,5-2.24,5-5,0-.55-.45-1-1-1ZM35.58,9.81c1.12.22,2.27.19,3.37-.11-.1,1.13.06,2.28.48,3.33-1.29.42-2.41,1.17-3.28,2.17-.52-.78-1.27-1.4-2.14-1.79.84-1.03,1.39-2.26,1.57-3.6ZM32,14.98c1.65,0,3,1.35,3,3s-1.35,3-3,3-3-1.35-3-3,1.35-3,3-3ZM27.85,15.2c-.87-1-1.99-1.75-3.28-2.17.42-1.05.58-2.2.48-3.33,1.1.3,2.25.33,3.37.11.18,1.34.73,2.57,1.57,3.6-.87.39-1.62,1.01-2.14,1.79ZM18.73,23.83c.07-.49.49-.85.99-.85h24.56c.5,0,.92.36.99.85l.79,5.15h-1.06c-1.65,0-3,1.35-3,3v2c0,.55-.45,1-1,1s-1-.45-1-1v-3c0-1.65-1.35-3-3-3s-3,1.35-3,3v8c0,.55-.45,1-1,1s-1-.45-1-1v-2c0-1.65-1.35-3-3-3s-3,1.35-3,3v5c0,.55-.45,1-1,1s-1-.45-1-1v-11c0-1.65-1.35-3-3-3h-2.91l.64-4.15ZM52,50.98H12c-.79,0-1.55-.31-2.12-.87-.32-.33-.56-.71-.71-1.13h9.83c.55,0,1-.45,1-1s-.45-1-1-1h-3.83l2.61-17h3.22c.55,0,1,.45,1,1v11c0,1.65,1.35,3,3,3s3-1.35,3-3v-5c0-.55.45-1,1-1s1,.45,1,1v2c0,1.65,1.35,3,3,3s3-1.35,3-3v-8c0-.55.45-1,1-1s1,.45,1,1v3c0,1.65,1.35,3,3,3s3-1.35,3-3v-2c0-.55.45-1,1-1h1.37l2.46,16h-25.83c-.55,0-1,.45-1,1s.45,1,1,1h31.83c-.41,1.16-1.53,2-2.83,2Z"/>
  <circle cx="31" cy="31.98" r="1"/>
  <circle cx="28" cy="29.98" r="1"/>
  <circle cx="31" cy="27.98" r="1"/>
  <circle cx="34" cy="25.98" r="1"/>
  <circle cx="27" cy="25.98" r="1"/>
</svg>