<?xml version="1.0" encoding="UTF-8"?>
<svg id="Outline" xmlns="http://www.w3.org/2000/svg" version="1.1" viewBox="0 0 64 64">
  <!-- Generator: Adobe Illustrator 29.5.1, SVG Export Plug-In . SVG Version: 2.1.0 Build 141)  -->
  <path d="M34,31.36v-2.36h2c.55,0,1-.45,1-1v-4c0-.55-.45-1-1-1h-10c-.55,0-1,.45-1,1v4c0,.55.45,1,1,1h2v2.36c-5.72,1.36-10,6.51-10,12.64,0,7.17,5.83,13,13,13s13-5.83,13-13c0-6.13-4.28-11.28-10-12.64ZM27,27v-2h8v2h-8ZM32,29v2.05c-.33-.02-.66-.05-1-.05s-.67.03-1,.05v-2.05h2ZM31,55c-6.07,0-11-4.93-11-11s4.93-11,11-11,11,4.93,11,11-4.93,11-11,11Z"/>
  <path d="M34,44c0-1.302-.839-2.402-2-2.816v-5.184c0-.553-.447-1-1-1s-1,.447-1,1v5.184c-1.161.414-2,1.514-2,2.816,0,1.654,1.346,3,3,3s3-1.346,3-3ZM31,45c-.552,0-1-.448-1-1s.448-1,1-1,1,.448,1,1-.448,1-1,1Z"/>
  <path d="M34.503,37.947c.505.29.973.644,1.391,1.051.391.381,1.032.374,1.414-.018.386-.396.378-1.028-.018-1.414-.538-.525-1.142-.98-1.793-1.354-.479-.275-1.09-.109-1.364.37-.275.479-.109,1.09.37,1.364Z"/>
  <path d="M37.747,42.127c.168.606.253,1.237.253,1.873,0,.599-.075,1.193-.224,1.767-.139.535.183,1.08.717,1.219.526.141,1.082-.191,1.219-.717.191-.737.288-1.501.288-2.269,0-.816-.109-1.626-.325-2.406-.147-.533-.701-.84-1.23-.697-.532.147-.845.698-.697,1.23Z"/>
  <path d="M23.541,40.933c-.536-.15-1.083.17-1.227.703-.209.769-.314,1.564-.314,2.363,0,.782.1,1.559.299,2.312.139.527.7.847,1.224.71.533-.142.852-.689.71-1.224-.155-.584-.233-1.188-.232-1.798,0-.623.082-1.242.244-1.841.145-.533-.17-1.082-.703-1.227Z"/>
  <path d="M29.198,50.767c-1.188-.314-2.276-.943-3.149-1.817-.391-.391-1.023-.391-1.414,0-.391.39-.391,1.023,0,1.414,1.122,1.123,2.522,1.931,4.05,2.337.086.022.173.033.258.033.448,0,.851-.309.966-.743.142-.534-.177-1.082-.71-1.224Z"/>
  <path d="M35.976,48.925c-.868.878-1.954,1.512-3.14,1.833-1.082.293-.88,1.965.26,1.965.087,0,.175-.011.263-.035,1.526-.413,2.923-1.229,4.039-2.356.389-.393.385-1.025-.008-1.414-.394-.388-1.026-.386-1.414.008Z"/>
  <path d="M25.408,39.279c.253,0,.505-.093.698-.281.418-.407.886-.761,1.391-1.051.479-.274.646-.886.37-1.364-.274-.479-.888-.645-1.364-.37-.651.373-1.255.828-1.793,1.353-.627.613-.175,1.713.698,1.713Z"/>
  <path d="M52,7h-14c-.553,0-1,.447-1,1s.447,1,1,1h14c1.654,0,3,1.346,3,3v2c0,1.302-.839,2.402-2,2.816v-2.816c0-1.654-1.346-3-3-3h-23c-.553,0-1,.447-1,1s.447,1,1,1h23c.552,0,1,.448,1,1v9h-8v-3c0-.553-.447-1-1-1h-22c-.553,0-1,.447-1,1v3h-8v-9c0-.552.448-1,1-1h7c.553,0,1-.447,1-1s-.447-1-1-1h-7c-1.654,0-3,1.346-3,3v9.184c-1.161.414-2,1.514-2,2.816,0,1.654,1.346,3,3,3h10c1.654,0,3-1.346,3-3,0-1.302-.839-2.402-2-2.816v-2.184h20v2.184c-1.161.414-2,1.514-2,2.816,0,1.654,1.346,3,3,3h10c1.654,0,3-1.346,3-3,0-1.302-.839-2.402-2-2.816v-4.285c2.279-.465,4-2.484,4-4.899v-2c0-2.757-2.243-5-5-5ZM20,27h-10c-.552,0-1-.448-1-1s.448-1,1-1h10c.552,0,1,.448,1,1s-.448,1-1,1ZM52,27h-10c-.552,0-1-.448-1-1s.448-1,1-1h10c.552,0,1,.448,1,1s-.448,1-1,1Z"/>
  <circle cx="23" cy="12" r="1"/>
</svg>