<?xml version="1.0" encoding="UTF-8"?>
<svg id="Outline" xmlns="http://www.w3.org/2000/svg" version="1.1" viewBox="0 0 64 64">
  <!-- Generator: Adobe Illustrator 29.5.1, SVG Export Plug-In . SVG Version: 2.1.0 Build 141)  -->
  <path d="M25,51.5h-4c-.553,0-1,.448-1,1s.447,1,1,1h4c.553,0,1-.448,1-1s-.447-1-1-1Z"/>
  <path d="M56,28c.553,0,1-.448,1-1v-6c0-1.654-1.346-3-3-3h-15v-5c0-3.309-2.691-6-6-6H13c-3.309,0-6,2.691-6,6v23c0,.552.447,1,1,1s1-.448,1-1V14h8.586l1.707,1.707c.188.188.441.293.707.293h6c.266,0,.52-.105.707-.293l1.707-1.707h8.586v4h-5c-1.654,0-3,1.346-3,3v7.434l-4.515,2.709c-.301.181-.485.506-.485.857s.185.677.485.857l4.515,2.709v7.434c0,1.654,1.346,3,3,3h5v2H9v-8c0-.552-.447-1-1-1s-1,.448-1,1v11c0,3.309,2.691,6,6,6h20c3.309,0,6-2.691,6-6v-5h15c1.654,0,3-1.346,3-3v-12c0-.552-.447-1-1-1s-1,.448-1,1v12c0,.551-.448,1-1,1h-22c-.552,0-1-.449-1-1v-8c0-.351-.185-.677-.485-.857l-3.571-2.143,3.571-2.143c.301-.181.485-.506.485-.857v-8c0-.551.448-1,1-1h22c.552,0,1,.449,1,1v6c0,.552.447,1,1,1ZM28,12c-.266,0-.52.105-.707.293l-1.707,1.707h-5.172l-1.707-1.707c-.188-.188-.441-.293-.707-.293h-8.858c.447-1.72,1.999-3,3.858-3h20c1.859,0,3.411,1.28,3.858,3h-8.858ZM33,55H13c-2.206,0-4-1.794-4-4v-1h28v1c0,2.206-1.794,4-4,4Z"/>
  <path d="M51,36h-.43l-.14-.23c-1.59-2.65-2.43-5.68-2.43-8.77,0-2.76-2.24-5-5-5s-5,2.24-5,5c0,3.09-.84,6.12-2.43,8.77l-.14.23h-.43c-.55,0-1,.45-1,1s.45,1,1,1h4c0,2.21,1.79,4,4,4s4-1.79,4-4h4c.55,0,1-.45,1-1s-.45-1-1-1ZM43,40c-1.1,0-2-.9-2-2h4c0,1.1-.9,2-2,2ZM37.74,36c1.48-2.76,2.26-5.86,2.26-9,0-1.65,1.35-3,3-3s3,1.35,3,3c0,3.14.78,6.24,2.26,9h-10.52Z"/>
</svg>