<?xml version="1.0" encoding="UTF-8"?>
<svg id="Outline" xmlns="http://www.w3.org/2000/svg" version="1.1" viewBox="0 0 64 64">
  <!-- Generator: Adobe Illustrator 29.5.1, SVG Export Plug-In . SVG Version: 2.1.0 Build 141)  -->
  <path d="M14,29h5.18c.33,0,.639-.163.825-.435.187-.272.227-.619.107-.926-.074-.192-.112-.407-.112-.639,0-1.103.897-2,2-2s2,.897,2,2c0,.232-.038.447-.112.639-.119.308-.079.654.107.926.187.272.495.435.825.435h9.18c0,2.206,1.794,4,4,4s4-1.794,4-4c.553,0,1-.448,1-1s-.447-1-1-1h-1.18c-.33,0-.639.163-.825.435-.187.272-.227.619-.107.926.074.192.112.407.112.639,0,1.103-.897,2-2,2s-2-.897-2-2c0-.232.038-.447.112-.639.119-.308.079-.654-.107-.926-.187-.272-.495-.435-.825-.435h-4.18v-3c2.206,0,4-1.794,4-4s-1.794-4-4-4v-3h3c0,2.206,1.794,4,4,4s4-1.794,4-4h3v4.18c0,.33.163.639.436.825.27.187.619.226.926.107.19-.073.411-.112.639-.112,1.103,0,2,.897,2,2s-.897,2-2,2c-.228,0-.448-.039-.639-.112-.306-.119-.655-.079-.926.107-.272.187-.436.495-.436.825v5.18c0,.552.447,1,1,1s1-.448,1-1v-4c2.206,0,4-1.794,4-4s-1.794-4-4-4v-4c0-.552-.447-1-1-1h-5.18c-.33,0-.639.163-.825.435-.187.272-.227.619-.107.926.074.192.112.407.112.639,0,1.103-.897,2-2,2s-2-.897-2-2c0-.232.038-.447.112-.639.119-.308.079-.654-.107-.926-.187-.272-.495-.435-.825-.435h-9.18c0-2.206-1.794-4-4-4s-4,1.794-4,4h-4c-.553,0-1,.448-1,1v5.18c0,.33.163.639.436.825.271.187.62.226.926.107.19-.073.411-.112.639-.112,1.103,0,2,.897,2,2s-.897,2-2,2c-.228,0-.448-.039-.639-.112-.306-.119-.654-.079-.926.107-.272.187-.436.495-.436.825v5.18c0,.552.447,1,1,1ZM15,24c2.206,0,4-1.794,4-4s-1.794-4-4-4v-3h4.18c.33,0,.639-.163.825-.435.187-.272.227-.619.107-.926-.074-.192-.112-.407-.112-.639,0-1.103.897-2,2-2s2,.897,2,2c0,.232-.038.447-.112.639-.119.308-.079.654.107.926.187.272.495.435.825.435h4.18v4.18c0,.33.163.639.436.825.271.187.619.226.926.107.19-.073.411-.112.639-.112,1.103,0,2,.897,2,2s-.897,2-2,2c-.228,0-.448-.039-.639-.112-.307-.119-.655-.079-.926.107-.272.187-.436.495-.436.825v4.18h-3c0-2.206-1.794-4-4-4s-4,1.794-4,4h-3v-3Z"/>
  <path d="M37.707,41.793c-1.17-1.17-3.072-1.17-4.242,0l-2.465,2.464-.465-.464c-1.17-1.17-3.072-1.169-4.242,0-.566.567-.879,1.32-.879,2.122s.312,1.555.879,2.121l1.879,1.879c.755.756,1.76,1.172,2.828,1.172s2.073-.416,2.828-1.172l3.879-3.878c.566-.567.879-1.32.879-2.122s-.312-1.555-.879-2.121ZM36.293,44.621l-3.879,3.879c-.756.756-2.072.756-2.828,0-.675-.675-3.038-2.136-1.879-3.293.372-.371,1.016-.397,1.414,0l1.172,1.171c.391.391,1.023.391,1.414,0l3.172-3.171c.391-.39,1.023-.39,1.414,0,.388.388.387,1.028,0,1.414Z"/>
  <path d="M56.625,45.219l-5-4c-.301-.241-.714-.287-1.059-.121-.346.167-.566.517-.566.901v1h-1c-.553,0-1,.448-1,1s.447,1,1,1h2c.526,0,.957-.406.997-.922l2.402,1.922-2.402,1.922c-.04-.516-.471-.922-.997-.922h-8.051c.03-.33.051-.662.051-1s-.021-.67-.051-1h2.051c.553,0,1-.448,1-1s-.447-1-1-1h-2.426c-1.31-4.61-5.549-8-10.574-8s-9.263,3.39-10.574,8h-7.426v-1c0-.384-.221-.735-.566-.901-.349-.166-.759-.12-1.059.121l-5,4c-.237.189-.375.477-.375.781s.138.591.375.781l5,4c.646.517,1.625.044,1.625-.781v-1h7.426c1.31,4.61,5.549,8,10.574,8s9.263-3.39,10.574-8h7.426v1c0,.822.984,1.294,1.625.781l5-4c.237-.189.375-.477.375-.781s-.138-.591-.375-.781ZM13,47c-.526,0-.957.406-.997.922l-2.402-1.922,2.402-1.922c.04.516.471.922.997.922h8.051c-.03.33-.051.662-.051,1s.021.67.051,1h-8.051ZM32,55c-4.963,0-9-4.038-9-9s4.037-9,9-9,9,4.038,9,9-4.037,9-9,9Z"/>
</svg>