<?xml version="1.0" encoding="UTF-8"?>
<svg id="Outline" xmlns="http://www.w3.org/2000/svg" version="1.1" viewBox="0 0 64 64">
  <!-- Generator: Adobe Illustrator 29.0.0, SVG Export Plug-In . SVG Version: 2.1.0 Build 186)  -->
  <path d="M22,42c2.75684,0,5-2.24316,5-5s-2.24316-5-5-5-5,2.24316-5,5,2.24316,5,5,5ZM22,34c1.6543,0,3,1.3457,3,3s-1.3457,3-3,3-3-1.3457-3-3,1.3457-3,3-3Z"/>
  <path d="M54,30c-1.65002,0-3,1.34998-3,3v5.58997l-4.40997,4.41003h-10.59003c-1.64001,0-3.09003.81-4,2.02997-.90997-1.21997-2.35999-2.02997-4-2.02997h-10.59003l-4.40997-4.41003v-5.58997c0-1.65002-1.34998-3-3-3s-3,1.34998-3,3v9c0,.26996.10999.51996.28998.70996l5.71002,5.70001v7.59003c0,.54999.45001,1,1,1h36c.54999,0,1-.45001,1-1v-7.59003l5.71002-5.70001c.17999-.19.28998-.44.28998-.70996v-9c0-1.65002-1.34998-3-3-3ZM31,55h-3v-6c0-.54999-.45001-1-1-1s-1,.45001-1,1v6h-11v-7c0-.27002-.10999-.52002-.28998-.71002l-5.71002-5.70001v-8.58997c0-.54999.45001-1,1-1s1,.45001,1,1v6c0,.26996.10999.51996.28998.70996l5,5c.19.18005.44.29004.71002.29004h11c1.65002,0,3,1.34998,3,3v7ZM55,41.58997l-5.71002,5.70001c-.17999.19-.28998.44-.28998.71002v7h-11v-6c0-.54999-.45001-1-1-1s-1,.45001-1,1v6h-3v-7c0-1.65002,1.34998-3,3-3h11c.27002,0,.52002-.10999.71002-.29004l5-5c.17999-.19.28998-.44.28998-.70996v-6c0-.54999.45001-1,1-1s1,.45001,1,1v8.58997Z"/>
  <path d="M37,37c0,2.75684,2.24316,5,5,5s5-2.24316,5-5-2.24316-5-5-5-5,2.24316-5,5ZM45,37c0,1.6543-1.3457,3-3,3s-3-1.3457-3-3,1.3457-3,3-3,3,1.3457,3,3Z"/>
  <path d="M31.41699,36.8125c.17383.125.37891.1875.58301.1875s.40918-.0625.58301-.1875c.58887-.42285,14.41699-10.46582,14.41699-19.8418,0-5.49805-4.12793-9.9707-9.20117-9.9707-2.13965,0-4.16406.78418-5.79883,2.22656-1.63477-1.44238-3.65918-2.22656-5.79883-2.22656-5.07324,0-9.20117,4.47266-9.20117,9.9707,0,9.37598,13.82812,19.41895,14.41699,19.8418ZM20.91388,23h3.08612c.55273,0,1-.44727,1-1,0-.55176.44824-1,1-1s1,.44824,1,1c0,.55273.44727,1,1,1h3v3c0,.55273.44727,1,1,1,.55176,0,1,.44824,1,1s-.44824,1-1,1c-.55273,0-1,.44727-1,1v3.96198c-2.50891-2.02356-7.3858-6.30548-10.08612-10.96198ZM33,33.96198v-3.13287c1.16406-.41309,2-1.52539,2-2.8291s-.83594-2.41602-2-2.8291v-2.1709h3c.55273,0,1-.44727,1-1,0-.55176.44824-1,1-1s1,.44824,1,1c0,.55273.44727,1,1,1h3.08612c-2.70032,4.65649-7.57721,8.93842-10.08612,10.96198ZM45,16.9707c0,1.32233-.34088,2.67999-.90881,4.0293h-3.26208c-.41309-1.16406-1.52539-2-2.8291-2s-2.41602.83594-2.8291,2h-2.1709v-3c0-.55273-.44727-1-1-1-.55176,0-1-.44824-1-1s.44824-1,1-1c.55273,0,1-.44727,1-1v-2.95801c1.32336-1.31464,3.0105-2.04199,4.79883-2.04199,3.9707,0,7.20117,3.5752,7.20117,7.9707ZM26.20117,9c1.78833,0,3.47546.72736,4.79883,2.04199v2.12891c-1.16406.41309-2,1.52539-2,2.8291s.83594,2.41602,2,2.8291v2.1709h-2.1709c-.41309-1.16406-1.52539-2-2.8291-2s-2.41602.83594-2.8291,2h-3.26208c-.56793-1.3493-.90881-2.70697-.90881-4.0293,0-4.39551,3.23047-7.9707,7.20117-7.9707Z"/>
  <path d="M50,21c0,.55273.44727,1,1,1h4c.55273,0,1-.44727,1-1s-.44727-1-1-1h-4c-.55273,0-1,.44727-1,1Z"/>
  <path d="M51.36426,28.77832c.19531.19531.45117.29297.70703.29297s.51172-.09766.70703-.29297c.39062-.39062.39062-1.02344,0-1.41406l-2.8291-2.8291c-.39062-.39062-1.02344-.39062-1.41406,0s-.39062,1.02344,0,1.41406l2.8291,2.8291Z"/>
  <path d="M49.24219,17.75781c.25586,0,.51172-.09766.70703-.29297l2.8291-2.8291c.39062-.39062.39062-1.02344,0-1.41406s-1.02344-.39062-1.41406,0l-2.8291,2.8291c-.39062.39062-.39062,1.02344,0,1.41406.19531.19531.45117.29297.70703.29297Z"/>
  <path d="M9,22h4c.55273,0,1-.44727,1-1s-.44727-1-1-1h-4c-.55273,0-1,.44727-1,1s.44727,1,1,1Z"/>
  <path d="M14.05078,24.53516l-2.8291,2.8291c-.39062.39062-.39062,1.02344,0,1.41406.19531.19531.45117.29297.70703.29297s.51172-.09766.70703-.29297l2.8291-2.8291c.39062-.39062.39062-1.02344,0-1.41406s-1.02344-.39062-1.41406,0Z"/>
  <path d="M14.05078,17.46484c.19531.19531.45117.29297.70703.29297s.51172-.09766.70703-.29297c.39062-.39062.39062-1.02344,0-1.41406l-2.8291-2.8291c-.39062-.39062-1.02344-.39062-1.41406,0s-.39062,1.02344,0,1.41406l2.8291,2.8291Z"/>
</svg>