<?xml version="1.0" encoding="UTF-8"?>
<svg id="Outline" xmlns="http://www.w3.org/2000/svg" version="1.1" viewBox="0 0 64 64">
  <!-- Generator: Adobe Illustrator 29.3.1, SVG Export Plug-In . SVG Version: 2.1.0 Build 151)  -->
  <path d="M27,18c0-1.10254-.89697-2-2-2h-12c-1.10303,0-2,.89746-2,2v6c0,1.10254.89697,2,2,2h12c1.10303,0,2-.89746,2-2v-6ZM25.00049,20h-3.00049v-2h3l.00049,2ZM18,18h2v6h-2v-6ZM16,18v2h-3v-2h3ZM13,22h3v2h-3v-2ZM22,24v-2h3.00098l.00049,2h-3.00146Z"/>
  <path d="M14,31h-2c-.55225,0-1,.44727-1,1s.44775,1,1,1h2c.55225,0,1-.44727,1-1s-.44775-1-1-1Z"/>
  <path d="M20,31h-2c-.55225,0-1,.44727-1,1s.44775,1,1,1h2c.55225,0,1-.44727,1-1s-.44775-1-1-1Z"/>
  <path d="M32,18h2c.55225,0,1-.44727,1-1s-.44775-1-1-1h-2c-.55225,0-1,.44727-1,1s.44775,1,1,1Z"/>
  <path d="M38,18h2c.55225,0,1-.44727,1-1s-.44775-1-1-1h-2c-.55225,0-1,.44727-1,1s.44775,1,1,1Z"/>
  <path d="M44,18h2c.55225,0,1-.44727,1-1s-.44775-1-1-1h-2c-.55225,0-1,.44727-1,1s.44775,1,1,1Z"/>
  <circle cx="36" cy="36" r="1"/>
  <circle cx="48" cy="36" r="1"/>
  <circle cx="48" cy="48" r="1"/>
  <circle cx="36" cy="48" r="1"/>
  <path d="M40,37c-.55225,0-1,.44727-1,1v2c0,.55273.44775,1,1,1s1-.44727,1-1v-2c0-.55273-.44775-1-1-1Z"/>
  <path d="M40,31h-8c-.55225,0-1,.44727-1,1v8c0,.55273.44775,1,1,1h4c.55225,0,1-.44727,1-1s-.44775-1-1-1h-3v-6h6v1c0,.55273.44775,1,1,1s1-.44727,1-1v-2c0-.55273-.44775-1-1-1Z"/>
  <path d="M52,37c-.55225,0-1,.44727-1,1v1h-1c-.55225,0-1,.44727-1,1s.44775,1,1,1h2c.55225,0,1-.44727,1-1v-2c0-.55273-.44775-1-1-1Z"/>
  <path d="M52,31h-8c-.55225,0-1,.44727-1,1v8c0,.55273.44775,1,1,1h2c.55225,0,1-.44727,1-1s-.44775-1-1-1h-1v-6h6v1c0,.55273.44775,1,1,1s1-.44727,1-1v-2c0-.55273-.44775-1-1-1Z"/>
  <path d="M48,51h-3v-6h1c.55225,0,1-.44727,1-1s-.44775-1-1-1h-2c-.55225,0-1,.44727-1,1v8c0,.55273.44775,1,1,1h4c.55225,0,1-.44727,1-1s-.44775-1-1-1Z"/>
  <path d="M52,49c-.55225,0-1,.44727-1,1v2c0,.55273.44775,1,1,1s1-.44727,1-1v-2c0-.55273-.44775-1-1-1Z"/>
  <path d="M52,43h-2c-.55225,0-1,.44727-1,1s.44775,1,1,1h1v1c0,.55273.44775,1,1,1s1-.44727,1-1v-2c0-.55273-.44775-1-1-1Z"/>
  <path d="M36,51h-3v-1c0-.55273-.44775-1-1-1s-1,.44727-1,1v2c0,.55273.44775,1,1,1h4c.55225,0,1-.44727,1-1s-.44775-1-1-1Z"/>
  <path d="M40,49c-.55225,0-1,.44727-1,1v2c0,.55273.44775,1,1,1s1-.44727,1-1v-2c0-.55273-.44775-1-1-1Z"/>
  <path d="M40,43h-8c-.55225,0-1,.44727-1,1v2c0,.55273.44775,1,1,1s1-.44727,1-1v-1h6v1c0,.55273.44775,1,1,1s1-.44727,1-1v-2c0-.55273-.44775-1-1-1Z"/>
  <path d="M54,27h-3V10c0-1.6543-1.3457-3-3-3H10c-1.6543,0-3,1.3457-3,3v24c0,1.6543,1.3457,3,3,3h17v17c0,1.6543,1.3457,3,3,3h24c1.6543,0,3-1.3457,3-3v-24c0-1.6543-1.3457-3-3-3ZM10,9h38c.55127,0,1,.44824,1,1v2H9v-2c0-.55176.44873-1,1-1ZM10,35c-.55127,0-1-.44824-1-1V14h40v13h-19c-1.6543,0-3,1.3457-3,3v5H10ZM55,54c0,.55176-.44873,1-1,1h-24c-.55127,0-1-.44824-1-1v-24c0-.55176.44873-1,1-1h24c.55127,0,1,.44824,1,1v24Z"/>
</svg>