<?xml version="1.0" encoding="UTF-8"?>
<svg id="Outline" xmlns="http://www.w3.org/2000/svg" version="1.1" viewBox="0 0 64 64">
  <!-- Generator: Adobe Illustrator 29.3.1, SVG Export Plug-In . SVG Version: 2.1.0 Build 151)  -->
  <circle cx="26" cy="16" r="1"/>
  <circle cx="38" cy="16" r="1"/>
  <circle cx="38" cy="28" r="1"/>
  <circle cx="26" cy="28" r="1"/>
  <path d="M30,17c-.55273,0-1,.44727-1,1v2c0,.55273.44727,1,1,1s1-.44727,1-1v-2c0-.55273-.44727-1-1-1Z"/>
  <path d="M22,21h4c.55273,0,1-.44727,1-1s-.44727-1-1-1h-3v-6h6v1c0,.55273.44727,1,1,1s1-.44727,1-1v-2c0-.55273-.44727-1-1-1h-8c-.55273,0-1,.44727-1,1v8c0,.55273.44727,1,1,1Z"/>
  <path d="M42,17c-.55273,0-1,.44727-1,1v1h-1c-.55273,0-1,.44727-1,1s.44727,1,1,1h2c.55273,0,1-.44727,1-1v-2c0-.55273-.44727-1-1-1Z"/>
  <path d="M34,21h2c.55273,0,1-.44727,1-1s-.44727-1-1-1h-1v-6h6v1c0,.55273.44727,1,1,1s1-.44727,1-1v-2c0-.55273-.44727-1-1-1h-8c-.55273,0-1,.44727-1,1v8c0,.55273.44727,1,1,1Z"/>
  <path d="M34,33h4c.55273,0,1-.44727,1-1s-.44727-1-1-1h-3v-6h1c.55273,0,1-.44727,1-1s-.44727-1-1-1h-2c-.55273,0-1,.44727-1,1v8c0,.55273.44727,1,1,1Z"/>
  <path d="M42,29c-.55273,0-1,.44727-1,1v2c0,.55273.44727,1,1,1s1-.44727,1-1v-2c0-.55273-.44727-1-1-1Z"/>
  <path d="M42,23h-2c-.55273,0-1,.44727-1,1s.44727,1,1,1h1v1c0,.55273.44727,1,1,1s1-.44727,1-1v-2c0-.55273-.44727-1-1-1Z"/>
  <path d="M22,33h4c.55273,0,1-.44727,1-1s-.44727-1-1-1h-3v-1c0-.55273-.44727-1-1-1s-1,.44727-1,1v2c0,.55273.44727,1,1,1Z"/>
  <path d="M30,29c-.55273,0-1,.44727-1,1v2c0,.55273.44727,1,1,1s1-.44727,1-1v-2c0-.55273-.44727-1-1-1Z"/>
  <path d="M22,27c.55273,0,1-.44727,1-1v-1h6v1c0,.55273.44727,1,1,1s1-.44727,1-1v-2c0-.55273-.44727-1-1-1h-8c-.55273,0-1,.44727-1,1v2c0,.55273.44727,1,1,1Z"/>
  <path d="M20,37h24c1.6543,0,3-1.3457,3-3V10c0-1.6543-1.3457-3-3-3h-24c-1.6543,0-3,1.3457-3,3v24c0,1.6543,1.3457,3,3,3ZM19,10c0-.55176.44824-1,1-1h24c.55176,0,1,.44824,1,1v24c0,.55176-.44824,1-1,1h-24c-.55176,0-1-.44824-1-1V10Z"/>
  <path d="M14.87793,35.52148c-.34961-.64258-1.40625-.64258-1.75586,0l-6,11c-.16895.30957-.16211.68555.01758.98926.18066.30273.50781.48926.86035.48926h3v7c0,1.10254.89746,2,2,2h2c1.10254,0,2-.89746,2-2v-7h3c.35254,0,.67969-.18652.86035-.48926.17969-.30371.18652-.67969.01758-.98926l-6-11ZM16,46c-.55273,0-1,.44727-1,1v8h-2v-8c0-.55273-.44727-1-1-1h-2.31543l4.31543-7.91211,4.31543,7.91211h-2.31543Z"/>
  <path d="M56.87793,46.52148l-6-11c-.34961-.64258-1.40625-.64258-1.75586,0l-6,11c-.16895.30957-.16211.68555.01758.98926.18066.30273.50781.48926.86035.48926h3v7c0,1.10254.89746,2,2,2h2c1.10254,0,2-.89746,2-2v-7h3c.35254,0,.67969-.18652.86035-.48926.17969-.30371.18652-.67969.01758-.98926ZM52,46c-.55273,0-1,.44727-1,1v8h-2v-8c0-.55273-.44727-1-1-1h-2.31543l4.31543-7.91211,4.31543,7.91211h-2.31543Z"/>
  <path d="M41,39h-18c-.55273,0-1,.44727-1,1s.44727,1,1,1h18c.55273,0,1-.44727,1-1s-.44727-1-1-1Z"/>
  <path d="M41,43h-18c-.55273,0-1,.44727-1,1s.44727,1,1,1h18c.55273,0,1-.44727,1-1s-.44727-1-1-1Z"/>
</svg>