<?xml version="1.0" encoding="UTF-8"?>
<svg id="Outline" xmlns="http://www.w3.org/2000/svg" version="1.1" viewBox="0 0 64 64">
  <!-- Generator: Adobe Illustrator 29.3.1, SVG Export Plug-In . SVG Version: 2.1.0 Build 151)  -->
  <circle cx="20" cy="20" r="1"/>
  <circle cx="32" cy="20" r="1"/>
  <circle cx="20" cy="32" r="1"/>
  <path d="M24,21c-.55273,0-1,.44727-1,1v2c0,.55273.44727,1,1,1s1-.44727,1-1v-2c0-.55273-.44727-1-1-1Z"/>
  <path d="M24,15h-8c-.55273,0-1,.44727-1,1v8c0,.55273.44727,1,1,1h4c.55273,0,1-.44727,1-1s-.44727-1-1-1h-3v-6h6v1c0,.55273.44727,1,1,1s1-.44727,1-1v-2c0-.55273-.44727-1-1-1Z"/>
  <path d="M36,21c-.55273,0-1,.44727-1,1v1h-1c-.55273,0-1,.44727-1,1s.44727,1,1,1h2c.55273,0,1-.44727,1-1v-2c0-.55273-.44727-1-1-1Z"/>
  <path d="M31,24c0-.55273-.44727-1-1-1h-1v-6h6v1c0,.55273.44727,1,1,1s1-.44727,1-1v-2c0-.55273-.44727-1-1-1h-8c-.55273,0-1,.44727-1,1v8c0,.55273.44727,1,1,1h2c.55273,0,1-.44727,1-1Z"/>
  <path d="M20,35h-3v-1c0-.55273-.44727-1-1-1s-1,.44727-1,1v2c0,.55273.44727,1,1,1h4c.55273,0,1-.44727,1-1s-.44727-1-1-1Z"/>
  <path d="M24,33c-.55273,0-1,.44727-1,1v2c0,.55273.44727,1,1,1s1-.44727,1-1v-2c0-.55273-.44727-1-1-1Z"/>
  <path d="M24,27h-8c-.55273,0-1,.44727-1,1v2c0,.55273.44727,1,1,1s1-.44727,1-1v-1h6v1c0,.55273.44727,1,1,1s1-.44727,1-1v-2c0-.55273-.44727-1-1-1Z"/>
  <path d="M8,17c.55273,0,1-.44727,1-1v-6c0-.55176.44824-1,1-1h6c.55273,0,1-.44727,1-1s-.44727-1-1-1h-6c-1.6543,0-3,1.3457-3,3v6c0,.55273.44727,1,1,1Z"/>
  <path d="M36,9h6c.55176,0,1,.44824,1,1v6c0,.55273.44727,1,1,1s1-.44727,1-1v-6c0-1.6543-1.3457-3-3-3h-6c-.55273,0-1,.44727-1,1s.44727,1,1,1Z"/>
  <path d="M16,43h-6c-.55176,0-1-.44824-1-1v-6c0-.55273-.44727-1-1-1s-1,.44727-1,1v6c0,1.6543,1.3457,3,3,3h6c.55273,0,1-.44727,1-1s-.44727-1-1-1Z"/>
  <path d="M41,25v-11c0-1.6543-1.3457-3-3-3H14c-1.6543,0-3,1.3457-3,3v24c0,1.6543,1.3457,3,3,3h11c0,8.82227,7.17773,16,16,16s16-7.17773,16-16-7.17773-16-16-16ZM14,39c-.55176,0-1-.44824-1-1V14c0-.55176.44824-1,1-1h24c.55176,0,1,.44824,1,1v11.13885c-7.22296.90674-12.95441,6.63818-13.86115,13.86115h-11.13885ZM32.95648,52.44012l2.32184-.43622c1.91125-.34698,3.30872-1.94092,3.44507-3.84485.71857.22766,1.48285.35266,2.27661.35266s1.55804-.125,2.27661-.35266c.13635,1.90393,1.53351,3.49774,3.43921,3.8429l2.32764.43823c-2.2785,1.60687-5.0495,2.55981-8.04346,2.55981s-5.76495-.953-8.04352-2.55988ZM47.31249,38.63965c-.41405-.03711-.81933-.13379-1.20898-.28809-1.65039-.6543-2.8916-2.0625-3.32129-3.7666-.09668-.38281-.40918-.67285-.79785-.74121-.05762-.00977-.11523-.01465-.17188-.01465-.32909,0-.64159.16309-.83007.44141l-.54493.81152c-1.32128,1.96191-3.42187,3.23145-5.75,3.51562v-1.35352c0-3.44336,2.83204-6.24414,6.31251-6.24414s6.31249,2.80078,6.31249,6.24414v1.39551ZM35.5,40.48132c2.38513-.42993,4.54559-1.68298,6.0752-3.57703.83594,1.48242,2.16895,2.66309,3.79199,3.30664.36853.14606.74738.25488,1.13281.32959v.53271c0,2.99902-2.46777,5.43848-5.5,5.43848s-5.5-2.43945-5.5-5.43848v-.59192ZM50.99695,50.78265c-.04486-.00946-.08728-.02618-.13269-.03461l-3.78516-.71289c-1.05957-.19141-1.8291-1.10645-1.8291-2.1748v-.66492c1.96082-1.34314,3.25-3.58514,3.25-6.12219v-.45288c.45953-.09033.81249-.47595.81249-.96216v-2.41406c0-4.5459-3.72851-8.24414-8.31249-8.24414s-8.31251,3.69824-8.31251,8.24414v2.41406c0,.48621.35297.87183.81251.96216v.45288c0,2.53705,1.28918,4.77905,3.25,6.12219v.66492c0,1.06836-.76953,1.9834-1.83496,2.17676l-3.77734.70996c-.04645.00873-.08923.02557-.13495.03528-2.47211-2.526-4.00275-5.97711-4.00275-9.78235,0-7.71973,6.28027-14,14-14s14,6.28027,14,14c0,3.80542-1.53076,7.25665-4.00305,9.78265Z"/>
</svg>