<?xml version="1.0" encoding="UTF-8"?>
<svg id="Outline" xmlns="http://www.w3.org/2000/svg" version="1.1" viewBox="0 0 64 64">
  <!-- Generator: Adobe Illustrator 29.3.1, SVG Export Plug-In . SVG Version: 2.1.0 Build 151)  -->
  <circle cx="36" cy="16" r="1"/>
  <circle cx="48" cy="16" r="1"/>
  <circle cx="48" cy="28" r="1"/>
  <circle cx="36" cy="28" r="1"/>
  <path d="M40,17c-.55225,0-1,.44727-1,1v2c0,.55273.44775,1,1,1s1-.44727,1-1v-2c0-.55273-.44775-1-1-1Z"/>
  <path d="M40,11h-8c-.55225,0-1,.44727-1,1v8c0,.55273.44775,1,1,1h4c.55225,0,1-.44727,1-1s-.44775-1-1-1h-3v-6h6v1c0,.55273.44775,1,1,1s1-.44727,1-1v-2c0-.55273-.44775-1-1-1Z"/>
  <path d="M52,17c-.55225,0-1,.44727-1,1v1h-1c-.55225,0-1,.44727-1,1s.44775,1,1,1h2c.55225,0,1-.44727,1-1v-2c0-.55273-.44775-1-1-1Z"/>
  <path d="M52,11h-8c-.55225,0-1,.44727-1,1v8c0,.55273.44775,1,1,1h2c.55225,0,1-.44727,1-1s-.44775-1-1-1h-1v-6h6v1c0,.55273.44775,1,1,1s1-.44727,1-1v-2c0-.55273-.44775-1-1-1Z"/>
  <path d="M48,31h-3v-6h1c.55225,0,1-.44727,1-1s-.44775-1-1-1h-2c-.55225,0-1,.44727-1,1v8c0,.55273.44775,1,1,1h4c.55225,0,1-.44727,1-1s-.44775-1-1-1Z"/>
  <path d="M52,29c-.55225,0-1,.44727-1,1v2c0,.55273.44775,1,1,1s1-.44727,1-1v-2c0-.55273-.44775-1-1-1Z"/>
  <path d="M52,23h-2c-.55225,0-1,.44727-1,1s.44775,1,1,1h1v1c0,.55273.44775,1,1,1s1-.44727,1-1v-2c0-.55273-.44775-1-1-1Z"/>
  <path d="M36,31h-3v-1c0-.55273-.44775-1-1-1s-1,.44727-1,1v2c0,.55273.44775,1,1,1h4c.55225,0,1-.44727,1-1s-.44775-1-1-1Z"/>
  <path d="M40,29c-.55225,0-1,.44727-1,1v2c0,.55273.44775,1,1,1s1-.44727,1-1v-2c0-.55273-.44775-1-1-1Z"/>
  <path d="M40,23h-8c-.55225,0-1,.44727-1,1v2c0,.55273.44775,1,1,1s1-.44727,1-1v-1h6v1c0,.55273.44775,1,1,1s1-.44727,1-1v-2c0-.55273-.44775-1-1-1Z"/>
  <path d="M54,7h-24c-1.6543,0-3,1.3457-3,3v3.85919c-1.59454-.56683-3.26929-.85919-5-.85919-8.271,0-15,6.72852-15,15,0,11.90332,13.65918,27.97266,14.24072,28.65039.18994.22168.46729.34961.75928.34961s.56934-.12793.75928-.34863c.34821-.40698,8.39526-9.86737,12.23645-19.65137h19.00427c1.6543,0,3-1.3457,3-3V10c0-1.6543-1.3457-3-3-3ZM27.29315,35.27155c-1.52649,1.11823-3.37457,1.72845-5.29315,1.72845-4.9624,0-9-4.03711-9-9s4.0376-9,9-9c1.80109,0,3.51733.53174,5,1.53168v13.46832c0,.45618.11023.88403.29315,1.27155ZM22.00049,54.42773c-2.88574-3.5791-13.00049-16.80859-13.00049-26.42773,0-7.16797,5.83154-13,13-13,1.7467,0,3.42175.35449,5,1.01813v2.19025c-1.53809-.7923-3.23639-1.20837-5-1.20837-6.06543,0-11,4.93457-11,11s4.93457,11,11,11c2.44818,0,4.8006-.81671,6.71326-2.30139.39148.18756.8244.30139,1.28674.30139h2.84753c-3.12531,7.51111-8.80145,14.89288-10.84705,17.42773ZM55,34c0,.55176-.44873,1-1,1h-24c-.55127,0-1-.44824-1-1V10c0-.55176.44873-1,1-1h24c.55127,0,1,.44824,1,1v24Z"/>
</svg>