<?xml version="1.0" encoding="UTF-8"?>
<svg id="Outline" xmlns="http://www.w3.org/2000/svg" version="1.1" viewBox="0 0 64 64">
  <!-- Generator: Adobe Illustrator 29.3.1, SVG Export Plug-In . SVG Version: 2.1.0 Build 151)  -->
  <circle cx="20" cy="20" r="1"/>
  <circle cx="32" cy="20" r="1"/>
  <circle cx="20" cy="32" r="1"/>
  <path d="M24,21c-.55225,0-1,.44727-1,1v2c0,.55273.44775,1,1,1s1-.44727,1-1v-2c0-.55273-.44775-1-1-1Z"/>
  <path d="M24,15h-8c-.55225,0-1,.44727-1,1v8c0,.55273.44775,1,1,1h4c.55225,0,1-.44727,1-1s-.44775-1-1-1h-3v-6h6v1c0,.55273.44775,1,1,1s1-.44727,1-1v-2c0-.55273-.44775-1-1-1Z"/>
  <path d="M36,21c-.55225,0-1,.44727-1,1v1h-1c-.55225,0-1,.44727-1,1s.44775,1,1,1h2c.55225,0,1-.44727,1-1v-2c0-.55273-.44775-1-1-1Z"/>
  <path d="M28,25h2c.55225,0,1-.44727,1-1s-.44775-1-1-1h-1v-6h6v1c0,.55273.44775,1,1,1s1-.44727,1-1v-2c0-.55273-.44775-1-1-1h-8c-.55225,0-1,.44727-1,1v8c0,.55273.44775,1,1,1Z"/>
  <path d="M20,35h-3v-1c0-.55273-.44775-1-1-1s-1,.44727-1,1v2c0,.55273.44775,1,1,1h4c.55225,0,1-.44727,1-1s-.44775-1-1-1Z"/>
  <path d="M24,33c-.55225,0-1,.44727-1,1v2c0,.55273.44775,1,1,1s1-.44727,1-1v-2c0-.55273-.44775-1-1-1Z"/>
  <path d="M24,27h-8c-.55225,0-1,.44727-1,1v2c0,.55273.44775,1,1,1s1-.44727,1-1v-1h6v1c0,.55273.44775,1,1,1s1-.44727,1-1v-2c0-.55273-.44775-1-1-1Z"/>
  <path d="M8,17c.55225,0,1-.44727,1-1v-6c0-.55176.44873-1,1-1h6c.55225,0,1-.44727,1-1s-.44775-1-1-1h-6c-1.6543,0-3,1.3457-3,3v6c0,.55273.44775,1,1,1Z"/>
  <path d="M36,9h6c.55127,0,1,.44824,1,1v6c0,.55273.44775,1,1,1s1-.44727,1-1v-6c0-1.6543-1.3457-3-3-3h-6c-.55225,0-1,.44727-1,1s.44775,1,1,1Z"/>
  <path d="M16,43h-6c-.55127,0-1-.44824-1-1v-6c0-.55273-.44775-1-1-1s-1,.44727-1,1v6c0,1.6543,1.3457,3,3,3h6c.55225,0,1-.44727,1-1s-.44775-1-1-1Z"/>
  <path d="M54.67236,31.55859c-1.52148-1.65039-3.5498-2.55859-5.71191-2.55859-2.1626,0-4.19141.9082-5.71289,2.55859l-1.24756,1.35254-1-1.08417V14c0-1.6543-1.3457-3-3-3H14c-1.6543,0-3,1.3457-3,3v24c0,1.6543,1.3457,3,3,3h13.63495c.38629.99304.94733,1.92456,1.6922,2.73242l11.9375,12.94531c.18945.20508.45605.32227.73535.32227s.5459-.11719.73535-.32227l11.9375-12.94531c3.09473-3.35645,3.09473-8.81738-.00049-12.17383ZM14,39c-.55127,0-1-.44824-1-1V14c0-.55176.44873-1,1-1h24c.55127,0,1,.44824,1,1v16.12347c-1.19458-.72919-2.54724-1.12347-3.95996-1.12347-2.1626,0-4.19141.9082-5.71289,2.55859-.11633.12616-.2196.26074-.32715.39264v-2.95123h1c.55225,0,1-.44727,1-1s-.44775-1-1-1h-2c-.55225,0-1,.44727-1,1v9.63965c0,.0105.00543.01349.00684.02203.00079.44794.04114.89484.10577,1.33832h-13.11261ZM53.20215,42.37695l-11.20215,12.14746-11.20215-12.14746c-2.40576-2.60938-2.40576-6.85352,0-9.46289,1.13818-1.23438,2.64453-1.91406,4.24219-1.91406,1.59717,0,3.10352.67969,4.2417,1.91406l1.98291,2.15039c.37891.41016,1.0918.41016,1.4707,0l1.98291-2.15039c1.13818-1.23438,2.64453-1.91406,4.24219-1.91406,1.59668,0,3.10303.67969,4.24121,1.91406,2.40625,2.60938,2.40625,6.85352.00049,9.46289Z"/>
  <path d="M44.67676,37c-1.00488,0-1.9458.41992-2.64941,1.18262l-.02734.0293-.02783-.0293c-.70312-.7627-1.64404-1.18262-2.64893-1.18262-1.00537,0-1.94629.41992-2.64941,1.18262-1.40283,1.52051-1.40283,3.99512-.00049,5.51562l4.59131,4.97949c.18945.20508.45605.32227.73535.32227s.5459-.11719.73535-.32227l4.59082-4.97949c1.40332-1.52051,1.40332-3.99512,0-5.51562-.70312-.7627-1.64404-1.18262-2.64941-1.18262ZM45.85596,42.34277l-3.85596,4.18164-3.85596-4.18164h-.00049c-.70068-.76074-.70068-2.04395,0-2.80469.32031-.34668.73926-.53809,1.17969-.53809.43994,0,.85889.19141,1.17871.53809l.7627.82715c.37891.41016,1.0918.41016,1.4707,0l.76221-.82715c.64062-.69434,1.71777-.69336,2.35889,0,.70068.76074.70068,2.04395-.00049,2.80469Z"/>
</svg>