<?xml version="1.0" encoding="UTF-8"?>
<svg id="Outline" xmlns="http://www.w3.org/2000/svg" version="1.1" viewBox="0 0 64 64">
  <!-- Generator: Adobe Illustrator 29.3.1, SVG Export Plug-In . SVG Version: 2.1.0 Build 151)  -->
  <path d="M57,18c0-6.07001-4.92999-11-11-11h-11c-1.09998,0-2,.89996-2,2v2c0,1.09998.90002,2,2,2h11c2.76001,0,5,2.23999,5,5s-2.23999,5-5,5h-11c-1.09998,0-2,.89996-2,2v2h-2v-2c0-1.10004-.90002-2-2-2h-11c-2.76001,0-5-2.23999-5-5s2.23999-5,5-5h11c1.09998,0,2-.90002,2-2v-2c0-1.10004-.90002-2-2-2h-11c-6.07001,0-11,4.92999-11,11,0,5.78998,4.51001,10.54999,10.20001,10.95996-.12.32001-.20001.67004-.20001,1.04004v24c0,1.64996,1.34998,3,3,3h24c1.65002,0,3-1.35004,3-3v-24c0-.37-.08002-.72003-.20001-1.04004,5.69-.40997,10.20001-5.16998,10.20001-10.95996ZM9,18c0-4.96002,4.03998-9,9-9h11v2h-11c-3.85999,0-7,3.14001-7,7s3.14001,7,7,7h11v2h-11c-4.96002,0-9-4.04004-9-9ZM45,54c0,.54999-.45001,1-1,1h-24c-.54999,0-1-.45001-1-1v-24c0-.54999.45001-1,1-1h24c.54999,0,1,.45001,1,1v24ZM46,27h-11v-2h11c3.85999,0,7-3.14001,7-7s-3.14001-7-7-7h-11v-2h11c4.96002,0,9,4.03998,9,9s-4.03998,9-9,9Z"/>
  <path d="M15,18c0,1.6543,1.3457,3,3,3h28c1.6543,0,3-1.3457,3-3s-1.3457-3-3-3h-28c-1.6543,0-3,1.3457-3,3ZM47,18c0,.55127-.44824,1-1,1h-28c-.55176,0-1-.44873-1-1s.44824-1,1-1h28c.55176,0,1,.44873,1,1Z"/>
  <circle cx="26" cy="36" r="1"/>
  <circle cx="38" cy="36" r="1"/>
  <circle cx="38" cy="48" r="1"/>
  <circle cx="26" cy="48" r="1"/>
  <path d="M30,37c-.55273,0-1,.44775-1,1v2c0,.55225.44727,1,1,1s1-.44775,1-1v-2c0-.55225-.44727-1-1-1Z"/>
  <path d="M30,31h-8c-.55273,0-1,.44775-1,1v8c0,.55225.44727,1,1,1h4c.55273,0,1-.44775,1-1s-.44727-1-1-1h-3v-6h6v1c0,.55225.44727,1,1,1s1-.44775,1-1v-2c0-.55225-.44727-1-1-1Z"/>
  <path d="M42,37c-.55273,0-1,.44775-1,1v1h-1c-.55273,0-1,.44775-1,1s.44727,1,1,1h2c.55273,0,1-.44775,1-1v-2c0-.55225-.44727-1-1-1Z"/>
  <path d="M42,31h-8c-.55273,0-1,.44775-1,1v8c0,.55225.44727,1,1,1h2c.55273,0,1-.44775,1-1s-.44727-1-1-1h-1v-6h6v1c0,.55225.44727,1,1,1s1-.44775,1-1v-2c0-.55225-.44727-1-1-1Z"/>
  <path d="M38,51h-3v-6h1c.55273,0,1-.44775,1-1s-.44727-1-1-1h-2c-.55273,0-1,.44775-1,1v8c0,.55225.44727,1,1,1h4c.55273,0,1-.44775,1-1s-.44727-1-1-1Z"/>
  <path d="M42,49c-.55273,0-1,.44775-1,1v2c0,.55225.44727,1,1,1s1-.44775,1-1v-2c0-.55225-.44727-1-1-1Z"/>
  <path d="M42,43h-2c-.55273,0-1,.44775-1,1s.44727,1,1,1h1v1c0,.55225.44727,1,1,1s1-.44775,1-1v-2c0-.55225-.44727-1-1-1Z"/>
  <path d="M26,51h-3v-1c0-.55225-.44727-1-1-1s-1,.44775-1,1v2c0,.55225.44727,1,1,1h4c.55273,0,1-.44775,1-1s-.44727-1-1-1Z"/>
  <path d="M30,49c-.55273,0-1,.44775-1,1v2c0,.55225.44727,1,1,1s1-.44775,1-1v-2c0-.55225-.44727-1-1-1Z"/>
  <path d="M30,43h-8c-.55273,0-1,.44775-1,1v2c0,.55225.44727,1,1,1s1-.44775,1-1v-1h6v1c0,.55225.44727,1,1,1s1-.44775,1-1v-2c0-.55225-.44727-1-1-1Z"/>
</svg>