<?xml version="1.0" encoding="UTF-8"?>
<svg id="Outline" xmlns="http://www.w3.org/2000/svg" version="1.1" viewBox="0 0 64 64">
  <!-- Generator: Adobe Illustrator 29.5.1, SVG Export Plug-In . SVG Version: 2.1.0 Build 141)  -->
  <path d="M25,20v3c0,.552.448,1,1,1s1-.448,1-1v-2h2v2c-.552,0-1,.448-1,1s.448,1,1,1h1c.552,0,1-.448,1-1v-4c0-.552-.448-1-1-1h-4c-.552,0-1,.448-1,1Z"/>
  <path d="M30,30c-.552,0-1,.448-1,1h-2v-2h1c.552,0,1-.448,1-1s-.448-1-1-1h-2c-.552,0-1,.448-1,1v4c0,.552.448,1,1,1h4c.552,0,1-.448,1-1v-1c0-.552-.448-1-1-1Z"/>
  <path d="M34,22c.552,0,1-.448,1-1h2v2h-1c-.552,0-1,.448-1,1s.448,1,1,1h2c.552,0,1-.448,1-1v-4c0-.552-.448-1-1-1h-4c-.552,0-1,.448-1,1v1c0,.552.448,1,1,1Z"/>
  <path d="M34,33h4c.552,0,1-.448,1-1v-4c0-.552-.448-1-1-1s-1,.448-1,1v3h-2v-3c0-.552-.448-1-1-1s-1,.448-1,1v4c0,.552.448,1,1,1Z"/>
  <path d="M22,21c.552,0,1-.448,1-1v-3h3c.552,0,1-.448,1-1s-.448-1-1-1h-4c-.552,0-1,.448-1,1v4c0,.552.448,1,1,1Z"/>
  <path d="M38,17h3v3c0,.552.448,1,1,1s1-.448,1-1v-4c0-.552-.448-1-1-1h-4c-.552,0-1,.448-1,1s.448,1,1,1Z"/>
  <path d="M22,37h4c.552,0,1-.448,1-1s-.448-1-1-1h-3v-3c0-.552-.448-1-1-1s-1,.448-1,1v4c0,.552.448,1,1,1Z"/>
  <path d="M42,31c-.552,0-1,.448-1,1v3h-3c-.552,0-1,.448-1,1s.448,1,1,1h4c.552,0,1-.448,1-1v-4c0-.552-.448-1-1-1Z"/>
  <path d="M44,7h-24c-1.65,0-3,1.35-3,3v44c0,1.65,1.35,3,3,3h24c1.65,0,3-1.35,3-3V10c0-1.65-1.35-3-3-3ZM27,9h10c.55,0,1,.45,1,1s-.45,1-1,1h-10c-.55,0-1-.45-1-1s.45-1,1-1ZM32,55c-.55,0-1-.45-1-1s.45-1,1-1,1,.45,1,1-.45,1-1,1ZM45,54c0,.55-.45,1-1,1h-9.18c.11-.31.18-.65.18-1s-.07-.69-.18-1h3.18c.55,0,1-.45,1-1s-.45-1-1-1h-12c-.55,0-1,.45-1,1s.45,1,1,1h3.18c-.11.31-.18.65-.18,1s.07.69.18,1h-9.18c-.55,0-1-.45-1-1v-10.74c3.43-1.44,8.11-2.26,13-2.26s9.57.82,13,2.26v10.74ZM45,41.1c-3.58-1.34-8.22-2.1-13-2.1s-9.42.76-13,2.1V10c0-.55.45-1,1-1h4.18c-.11.31-.18.65-.18,1,0,1.65,1.35,3,3,3h10c1.65,0,3-1.35,3-3,0-.35-.07-.69-.18-1h4.18c.55,0,1,.45,1,1v31.1Z"/>
</svg>