<?xml version="1.0" encoding="UTF-8"?>
<svg id="Outline" xmlns="http://www.w3.org/2000/svg" version="1.1" viewBox="0 0 64 64">
  <!-- Generator: Adobe Illustrator 29.3.1, SVG Export Plug-In . SVG Version: 2.1.0 Build 151)  -->
  <circle cx="42" cy="52" r="1"/>
  <circle cx="27" cy="52" r="1"/>
  <circle cx="36" cy="16" r="1"/>
  <circle cx="48" cy="16" r="1"/>
  <circle cx="48" cy="28" r="1"/>
  <circle cx="36" cy="28" r="1"/>
  <path d="M40,17c-.55225,0-1,.44727-1,1v2c0,.55273.44775,1,1,1s1-.44727,1-1v-2c0-.55273-.44775-1-1-1Z"/>
  <path d="M40,11h-8c-.55225,0-1,.44727-1,1v8c0,.55273.44775,1,1,1h4c.55225,0,1-.44727,1-1s-.44775-1-1-1h-3v-6h6v1c0,.55273.44775,1,1,1s1-.44727,1-1v-2c0-.55273-.44775-1-1-1Z"/>
  <path d="M52,17c-.55225,0-1,.44727-1,1v1h-1c-.55225,0-1,.44727-1,1s.44775,1,1,1h2c.55225,0,1-.44727,1-1v-2c0-.55273-.44775-1-1-1Z"/>
  <path d="M52,11h-8c-.55225,0-1,.44727-1,1v8c0,.55273.44775,1,1,1h2c.55225,0,1-.44727,1-1s-.44775-1-1-1h-1v-6h6v1c0,.55273.44775,1,1,1s1-.44727,1-1v-2c0-.55273-.44775-1-1-1Z"/>
  <path d="M48,31h-3v-6h1c.55225,0,1-.44727,1-1s-.44775-1-1-1h-2c-.55225,0-1,.44727-1,1v8c0,.55273.44775,1,1,1h4c.55225,0,1-.44727,1-1s-.44775-1-1-1Z"/>
  <path d="M52,29c-.55225,0-1,.44727-1,1v2c0,.55273.44775,1,1,1s1-.44727,1-1v-2c0-.55273-.44775-1-1-1Z"/>
  <path d="M52,23h-2c-.55225,0-1,.44727-1,1s.44775,1,1,1h1v1c0,.55273.44775,1,1,1s1-.44727,1-1v-2c0-.55273-.44775-1-1-1Z"/>
  <path d="M36,31h-3v-1c0-.55273-.44775-1-1-1s-1,.44727-1,1v2c0,.55273.44775,1,1,1h4c.55225,0,1-.44727,1-1s-.44775-1-1-1Z"/>
  <path d="M40,29c-.55225,0-1,.44727-1,1v2c0,.55273.44775,1,1,1s1-.44727,1-1v-2c0-.55273-.44775-1-1-1Z"/>
  <path d="M40,23h-8c-.55225,0-1,.44727-1,1v2c0,.55273.44775,1,1,1s1-.44727,1-1v-1h6v1c0,.55273.44775,1,1,1s1-.44727,1-1v-2c0-.55273-.44775-1-1-1Z"/>
  <path d="M54,7h-24c-1.65002,0-3,1.34998-3,3v11h-6.17999l-1.12-5.59003c-.28003-1.39996-1.51001-2.40997-2.94-2.40997h-1.94c-.41998-1.16003-1.52002-2-2.82001-2h-2c-1.65002,0-3,1.34998-3,3s1.34998,3,3,3h2c1.29999,0,2.40002-.84003,2.82001-2h1.94c.47998,0,.89001.33997.97998.79999l5.06,25.28998-.71997.05005c-1.85004.14996-3.33002,1.52997-3.59003,3.37-.15997,1.13.16998,2.26996.91998,3.13.75.87,1.83002,1.35999,2.97003,1.35999h.65002c-.64001.83997-1.03003,1.87-1.03003,3,0,2.76001,2.23999,5,5,5s5-2.23999,5-5c0-1.13-.39001-2.16003-1.03003-3h7.06006c-.64001.83997-1.03003,1.87-1.03003,3,0,2.76001,2.23999,5,5,5s5-2.23999,5-5c0-1.13-.39001-2.16003-1.03003-3h4.03003c.54999,0,1-.45001,1-1s-.45001-1-1-1h-27.62c-.56,0-1.09003-.23999-1.46002-.67004-.37-.41998-.52997-.97998-.45001-1.53998.13-.89996.85004-1.58002,1.76001-1.64996l24.54004-2.03003c1.19995-.09998,2.21997-.90997,2.59998-2.04999l.67999-2.06h3.95001c1.65002,0,3-1.35004,3-3V10c0-1.65002-1.34998-3-3-3ZM12,15h-2c-.54999,0-1-.45001-1-1s.45001-1,1-1h2c.54999,0,1,.45001,1,1s-.45001,1-1,1ZM42,49c1.65002,0,3,1.34998,3,3s-1.34998,3-3,3-3-1.35004-3-3,1.34998-3,3-3ZM27,49c1.65002,0,3,1.34998,3,3s-1.34998,3-3,3-3-1.35004-3-3,1.34998-3,3-3ZM47.46997,38.42999c-.12994.38-.46997.64996-.87.67999l-21.78998,1.82001-3.59003-17.92999h5.78003v11c0,1.64996,1.34998,3,3,3h17.94l-.47003,1.42999ZM55,34c0,.54999-.45001,1-1,1h-24c-.54999,0-1-.45001-1-1V10c0-.54999.45001-1,1-1h24c.54999,0,1,.45001,1,1v24Z"/>
</svg>