<?xml version="1.0" encoding="UTF-8"?>
<svg id="Outline" xmlns="http://www.w3.org/2000/svg" version="1.1" viewBox="0 0 64 64">
  <!-- Generator: Adobe Illustrator 29.3.1, SVG Export Plug-In . SVG Version: 2.1.0 Build 151)  -->
  <path d="M20,30c-1.6543,0-3,1.3457-3,3v10c0,1.6543,1.3457,3,3,3s3-1.3457,3-3v-10c0-1.6543-1.3457-3-3-3ZM20,32c.55127,0,1,.44873,1,1v4h-2v-4c0-.55127.44873-1,1-1ZM20,44c-.55127,0-1-.44873-1-1v-4h2v4c0,.55127-.44873,1-1,1Z"/>
  <circle cx="36" cy="16" r="1"/>
  <circle cx="48" cy="16" r="1"/>
  <circle cx="48" cy="28" r="1"/>
  <circle cx="36" cy="28" r="1"/>
  <path d="M40,17c-.55225,0-1,.44775-1,1v2c0,.55225.44775,1,1,1s1-.44775,1-1v-2c0-.55225-.44775-1-1-1Z"/>
  <path d="M40,11h-8c-.55225,0-1,.44775-1,1v8c0,.55225.44775,1,1,1h4c.55225,0,1-.44775,1-1s-.44775-1-1-1h-3v-6h6v1c0,.55225.44775,1,1,1s1-.44775,1-1v-2c0-.55225-.44775-1-1-1Z"/>
  <path d="M52,17c-.55225,0-1,.44775-1,1v1h-1c-.55225,0-1,.44775-1,1s.44775,1,1,1h2c.55225,0,1-.44775,1-1v-2c0-.55225-.44775-1-1-1Z"/>
  <path d="M52,11h-8c-.55225,0-1,.44775-1,1v8c0,.55225.44775,1,1,1h2c.55225,0,1-.44775,1-1s-.44775-1-1-1h-1v-6h6v1c0,.55225.44775,1,1,1s1-.44775,1-1v-2c0-.55225-.44775-1-1-1Z"/>
  <path d="M48,31h-3v-6h1c.55225,0,1-.44775,1-1s-.44775-1-1-1h-2c-.55225,0-1,.44775-1,1v8c0,.55225.44775,1,1,1h4c.55225,0,1-.44775,1-1s-.44775-1-1-1Z"/>
  <path d="M52,29c-.55225,0-1,.44775-1,1v2c0,.55225.44775,1,1,1s1-.44775,1-1v-2c0-.55225-.44775-1-1-1Z"/>
  <path d="M52,23h-2c-.55225,0-1,.44775-1,1s.44775,1,1,1h1v1c0,.55225.44775,1,1,1s1-.44775,1-1v-2c0-.55225-.44775-1-1-1Z"/>
  <path d="M36,31h-3v-1c0-.55225-.44775-1-1-1s-1,.44775-1,1v2c0,.55225.44775,1,1,1h4c.55225,0,1-.44775,1-1s-.44775-1-1-1Z"/>
  <path d="M40,29c-.55225,0-1,.44775-1,1v2c0,.55225.44775,1,1,1s1-.44775,1-1v-2c0-.55225-.44775-1-1-1Z"/>
  <path d="M40,23h-8c-.55225,0-1,.44775-1,1v2c0,.55225.44775,1,1,1s1-.44775,1-1v-1h6v1c0,.55225.44775,1,1,1s1-.44775,1-1v-2c0-.55225-.44775-1-1-1Z"/>
  <path d="M54,7h-24c-1.65002,0-3,1.34998-3,3v1H10c-1.65002,0-3,1.34998-3,3v8c0,1.32001.87,2.44,2.06,2.82996l1.81,25.38c.10999,1.56,1.41998,2.79004,2.98999,2.79004h.14001v1c0,1.64996,1.34998,3,3,3h6c1.65002,0,3-1.35004,3-3v-1h.14001c1.57001,0,2.88-1.23004,2.98999-2.79004l.95001-13.20996h23.91998c1.65002,0,3-1.35004,3-3V10c0-1.65002-1.34998-3-3-3ZM25,13h2v4h-2v-4ZM21,13h2v4h-2v-4ZM17,13h2v4h-2v-4ZM13,13h2v4h-2v-4ZM10,23c-.54999,0-1-.45001-1-1v-8c0-.54999.45001-1,1-1h1v4c0,1.09998.90002,2,2,2h14v4H10ZM24,54c0,.54999-.45001,1-1,1h-6c-.54999,0-1-.45001-1-1v-1h8v1ZM27.13,50.07001c-.03003.51996-.47003.92999-.98999.92999h-12.28003c-.51996,0-.95996-.41003-.98999-.92999l-1.79999-25.07001h15.92999v9c0,.94.44,1.76996,1.12,2.32001l-.98999,13.75ZM55,34c0,.54999-.45001,1-1,1h-24c-.13,0-.26001-.03003-.38-.08002h-.02002c-.34998-.15997-.59998-.51001-.59998-.91998V10c0-.54999.45001-1,1-1h24c.54999,0,1,.45001,1,1v24Z"/>
</svg>