<?xml version="1.0" encoding="UTF-8"?>
<svg id="Outline" xmlns="http://www.w3.org/2000/svg" version="1.1" viewBox="0 0 64 64">
  <!-- Generator: Adobe Illustrator 29.3.1, SVG Export Plug-In . SVG Version: 2.1.0 Build 151)  -->
  <circle cx="36" cy="36" r="1"/>
  <circle cx="48" cy="36" r="1"/>
  <circle cx="48" cy="48" r="1"/>
  <circle cx="36" cy="48" r="1"/>
  <path d="M40,37c-.55273,0-1,.44775-1,1v2c0,.55225.44727,1,1,1s1-.44775,1-1v-2c0-.55225-.44727-1-1-1Z"/>
  <path d="M40,31h-8c-.55273,0-1,.44775-1,1v8c0,.55225.44727,1,1,1h4c.55273,0,1-.44775,1-1s-.44727-1-1-1h-3v-6h6v1c0,.55225.44727,1,1,1s1-.44775,1-1v-2c0-.55225-.44727-1-1-1Z"/>
  <path d="M52,37c-.55273,0-1,.44775-1,1v1h-1c-.55273,0-1,.44775-1,1s.44727,1,1,1h2c.55273,0,1-.44775,1-1v-2c0-.55225-.44727-1-1-1Z"/>
  <path d="M52,31h-8c-.55273,0-1,.44775-1,1v8c0,.55225.44727,1,1,1h2c.55273,0,1-.44775,1-1s-.44727-1-1-1h-1v-6h6v1c0,.55225.44727,1,1,1s1-.44775,1-1v-2c0-.55225-.44727-1-1-1Z"/>
  <path d="M48,51h-3v-6h1c.55273,0,1-.44775,1-1s-.44727-1-1-1h-2c-.55273,0-1,.44775-1,1v8c0,.55225.44727,1,1,1h4c.55273,0,1-.44775,1-1s-.44727-1-1-1Z"/>
  <path d="M52,49c-.55273,0-1,.44775-1,1v2c0,.55225.44727,1,1,1s1-.44775,1-1v-2c0-.55225-.44727-1-1-1Z"/>
  <path d="M52,43h-2c-.55273,0-1,.44775-1,1s.44727,1,1,1h1v1c0,.55225.44727,1,1,1s1-.44775,1-1v-2c0-.55225-.44727-1-1-1Z"/>
  <path d="M36,51h-3v-1c0-.55225-.44727-1-1-1s-1,.44775-1,1v2c0,.55225.44727,1,1,1h4c.55273,0,1-.44775,1-1s-.44727-1-1-1Z"/>
  <path d="M40,49c-.55273,0-1,.44775-1,1v2c0,.55225.44727,1,1,1s1-.44775,1-1v-2c0-.55225-.44727-1-1-1Z"/>
  <path d="M40,43h-8c-.55273,0-1,.44775-1,1v2c0,.55225.44727,1,1,1s1-.44775,1-1v-1h6v1c0,.55225.44727,1,1,1s1-.44775,1-1v-2c0-.55225-.44727-1-1-1Z"/>
  <path d="M54,27h-13V10c0-1.6543-1.3457-3-3-3H10c-1.6543,0-3,1.3457-3,3v40c0,1.6543,1.3457,3,3,3h17v1c0,1.6543,1.3457,3,3,3h24c1.6543,0,3-1.3457,3-3v-24c0-1.6543-1.3457-3-3-3ZM10,51c-.55176,0-1-.44873-1-1V10c0-.55127.44824-1,1-1h28c.55176,0,1,.44873,1,1v17h-9c-1.6543,0-3,1.3457-3,3v21H10ZM55,54c0,.55127-.44824,1-1,1h-24c-.55176,0-1-.44873-1-1v-24c0-.55127.44824-1,1-1h24c.55176,0,1,.44873,1,1v24Z"/>
  <path d="M12,17h24c.55273,0,1-.44775,1-1v-4c0-.55225-.44727-1-1-1H12c-.55273,0-1,.44775-1,1v4c0,.55225.44727,1,1,1ZM13,13h22v2H13v-2Z"/>
  <path d="M14,19c-.55273,0-1,.44775-1,1s.44727,1,1,1h20c.55273,0,1-.44775,1-1s-.44727-1-1-1H14Z"/>
  <path d="M12,25h24c.55273,0,1-.44775,1-1s-.44727-1-1-1H12c-.55273,0-1,.44775-1,1s.44727,1,1,1Z"/>
  <path d="M24,27h-12c-.55273,0-1,.44775-1,1s.44727,1,1,1h12c.55273,0,1-.44775,1-1s-.44727-1-1-1Z"/>
  <path d="M24,31h-12c-.55273,0-1,.44775-1,1s.44727,1,1,1h12c.55273,0,1-.44775,1-1s-.44727-1-1-1Z"/>
  <path d="M24,35h-12c-.55273,0-1,.44775-1,1s.44727,1,1,1h12c.55273,0,1-.44775,1-1s-.44727-1-1-1Z"/>
  <path d="M24,39h-12c-.55273,0-1,.44775-1,1s.44727,1,1,1h12c.55273,0,1-.44775,1-1s-.44727-1-1-1Z"/>
</svg>