<?xml version="1.0" encoding="UTF-8"?>
<svg id="Outline" xmlns="http://www.w3.org/2000/svg" version="1.1" viewBox="0 0 64 64">
  <!-- Generator: Adobe Illustrator 29.5.1, SVG Export Plug-In . SVG Version: 2.1.0 Build 141)  -->
  <path d="M44,7h-24c-1.65,0-3,1.35-3,3v44c0,1.65,1.35,3,3,3h24c1.65,0,3-1.35,3-3V10c0-1.65-1.35-3-3-3ZM25,9h14v1c0,.55-.45,1-1,1h-12c-.55,0-1-.45-1-1v-1ZM29.18,55h-9.18c-.55,0-1-.45-1-1v-1.18c.31.11.65.18,1,.18h9.18c-.11.31-.18.65-.18,1s.07.69.18,1ZM32,55c-.55,0-1-.45-1-1s.45-1,1-1,1,.45,1,1-.45,1-1,1ZM45,54c0,.55-.45,1-1,1h-9.18c.11-.31.18-.65.18-1s-.07-.69-.18-1h9.18c.35,0,.69-.07,1-.18v1.18ZM45,50c0,.55-.45,1-1,1h-24c-.55,0-1-.45-1-1V10c0-.55.45-1,1-1h3v1c0,1.65,1.35,3,3,3h12c1.65,0,3-1.35,3-3v-1h3c.55,0,1,.45,1,1v40Z"/>
  <path d="M22,23h4c.552,0,1-.447,1-1v-4c0-.553-.448-1-1-1h-4c-.552,0-1,.447-1,1v4c0,.553.448,1,1,1ZM23,19h2v2h-2v-2Z"/>
  <path d="M30,23h4c.552,0,1-.447,1-1v-4c0-.553-.448-1-1-1h-4c-.552,0-1,.447-1,1v4c0,.553.448,1,1,1ZM31,19h2v2h-2v-2Z"/>
  <path d="M38,23h4c.552,0,1-.447,1-1v-4c0-.553-.448-1-1-1h-4c-.552,0-1,.447-1,1v4c0,.553.448,1,1,1ZM39,19h2v2h-2v-2Z"/>
  <path d="M22,32.5c.552,0,1-.447,1-1v-2.5h6v6h-2.5c-.552,0-1,.447-1,1s.448,1,1,1h3.5c.552,0,1-.447,1-1v-8c0-.553-.448-1-1-1h-8c-.552,0-1,.447-1,1v3.5c0,.553.448,1,1,1Z"/>
  <path d="M38,33h4c.552,0,1-.447,1-1s-.448-1-1-1h-3v-3c0-.553-.448-1-1-1s-1,.447-1,1v4c0,.553.448,1,1,1Z"/>
  <path d="M42,35h-7v-7c0-.553-.448-1-1-1s-1,.447-1,1v8c0,.553.448,1,1,1h8c.552,0,1-.447,1-1s-.448-1-1-1Z"/>
  <path d="M22,49h8c.552,0,1-.447,1-1s-.448-1-1-1h-7v-7c0-.553-.448-1-1-1s-1,.447-1,1v8c0,.553.448,1,1,1Z"/>
  <path d="M30,39h-4c-.552,0-1,.447-1,1v4c0,.553.448,1,1,1h4c.552,0,1-.447,1-1v-4c0-.553-.448-1-1-1ZM29,43h-2v-2h2v2Z"/>
  <path d="M42,39c-.552,0-1,.447-1,1v7h-7c-.552,0-1,.447-1,1s.448,1,1,1h8c.552,0,1-.447,1-1v-8c0-.553-.448-1-1-1Z"/>
  <path d="M34,45h4c.552,0,1-.447,1-1v-4c0-.553-.448-1-1-1h-4c-.552,0-1,.447-1,1v4c0,.553.448,1,1,1ZM35,41h2v2h-2v-2Z"/>
</svg>