<?xml version="1.0" encoding="UTF-8"?>
<svg id="Outline" xmlns="http://www.w3.org/2000/svg" version="1.1" viewBox="0 0 64 64">
  <!-- Generator: Adobe Illustrator 29.5.1, SVG Export Plug-In . SVG Version: 2.1.0 Build 141)  -->
  <path d="M56.832,28.445l-1.63-2.445,1.63-2.445c.224-.336.224-.773,0-1.109l-1.63-2.445,1.63-2.445c.205-.307.224-.701.05-1.026-.174-.325-.513-.528-.882-.528H8c-.369,0-.708.203-.882.528-.174.325-.155.72.05,1.026l1.63,2.445-1.63,2.445c-.224.336-.224.773,0,1.109l1.63,2.445-1.63,2.445c-.224.336-.224.773,0,1.109l1.63,2.445-1.63,2.445c-.224.336-.224.773,0,1.109l1.63,2.445-1.63,2.445c-.224.336-.224.773,0,1.109l1.63,2.445-1.63,2.445c-.205.307-.224.701-.05,1.026.174.325.513.528.882.528h48c.369,0,.708-.203.882-.528.174-.325.155-.72-.05-1.026l-1.63-2.445,1.63-2.445c.224-.336.224-.773,0-1.109l-1.63-2.445,1.63-2.445c.224-.336.224-.773,0-1.109l-1.63-2.445,1.63-2.445c.224-.336.224-.773,0-1.109ZM53.168,26.555l1.63,2.445-1.63,2.445c-.224.336-.224.773,0,1.109l1.63,2.445-1.63,2.445c-.224.336-.224.773,0,1.109l1.63,2.445-1.63,2.445c-.224.336-.224.773,0,1.109l.963,1.445H9.869l.963-1.445c.224-.336.224-.773,0-1.109l-1.63-2.445,1.63-2.445c.224-.336.224-.773,0-1.109l-1.63-2.445,1.63-2.445c.224-.336.224-.773,0-1.109l-1.63-2.445,1.63-2.445c.224-.336.224-.773,0-1.109l-1.63-2.445,1.63-2.445c.224-.336.224-.773,0-1.109l-.963-1.445h44.263l-.963,1.445c-.224.336-.224.773,0,1.109l1.63,2.445-1.63,2.445c-.224.336-.224.773,0,1.109Z"/>
  <path d="M21.82,42h-3.946c-.363-1.404-1.47-2.511-2.874-2.874v-14.253c1.404-.363,2.511-1.47,2.874-2.874h3.946c.552,0,1-.448,1-1s-.448-1-1-1h-4.82c-.552,0-1,.448-1,1,0,1.103-.897,2-2,2-.552,0-1,.448-1,1v16c0,.552.448,1,1,1,1.103,0,2,.897,2,2,0,.552.448,1,1,1h4.82c.552,0,1-.448,1-1s-.448-1-1-1Z"/>
  <path d="M50,23c-1.103,0-2-.897-2-2,0-.552-.448-1-1-1h-4.82c-.552,0-1,.448-1,1s.448,1,1,1h3.946c.363,1.404,1.47,2.511,2.874,2.874v14.253c-1.404.363-2.511,1.47-2.874,2.874h-3.946c-.552,0-1,.448-1,1s.448,1,1,1h4.82c.552,0,1-.448,1-1,0-1.103.897-2,2-2,.552,0,1-.448,1-1v-16c0-.552-.448-1-1-1Z"/>
  <path d="M22,26c0-.552-.448-1-1-1h-3c-.552,0-1,.448-1,1v3c0,.552.448,1,1,1s1-.448,1-1v-2h2c.552,0,1-.448,1-1Z"/>
  <path d="M47,26c0-.552-.448-1-1-1h-3c-.552,0-1,.448-1,1s.448,1,1,1h2v2c0,.552.448,1,1,1s1-.448,1-1v-3Z"/>
  <path d="M18,34c-.552,0-1,.448-1,1v3c0,.552.448,1,1,1h3c.552,0,1-.448,1-1s-.448-1-1-1h-2v-2c0-.552-.448-1-1-1Z"/>
  <path d="M46,34c-.552,0-1,.448-1,1v2h-2c-.552,0-1,.448-1,1s.448,1,1,1h3c.552,0,1-.448,1-1v-3c0-.552-.448-1-1-1Z"/>
  <path d="M26,25c-.552,0-1,.448-1,1v7c0,.552.448,1,1,1s1-.448,1-1v-7c0-.552-.448-1-1-1Z"/>
  <path d="M26,36c-.552,0-1,.448-1,1v1c0,.552.448,1,1,1s1-.448,1-1v-1c0-.552-.448-1-1-1Z"/>
  <path d="M30,31c-.552,0-1,.448-1,1v6c0,.552.448,1,1,1s1-.448,1-1v-6c0-.552-.448-1-1-1Z"/>
  <path d="M30,25c-.552,0-1,.448-1,1v2c0,.552.448,1,1,1s1-.448,1-1v-2c0-.552-.448-1-1-1Z"/>
  <path d="M34,25c-.552,0-1,.448-1,1v7c0,.552.448,1,1,1s1-.448,1-1v-7c0-.552-.448-1-1-1Z"/>
  <path d="M34,36c-.552,0-1,.448-1,1v1c0,.552.448,1,1,1s1-.448,1-1v-1c0-.552-.448-1-1-1Z"/>
  <path d="M38,31c-.552,0-1,.448-1,1v6c0,.552.448,1,1,1s1-.448,1-1v-6c0-.552-.448-1-1-1Z"/>
  <path d="M38,25c-.552,0-1,.448-1,1v2c0,.552.448,1,1,1s1-.448,1-1v-2c0-.552-.448-1-1-1Z"/>
  <path d="M22,29c-.552,0-1,.448-1,1v4c0,.552.448,1,1,1s1-.448,1-1v-4c0-.552-.448-1-1-1Z"/>
  <path d="M42,35c.552,0,1-.448,1-1v-4c0-.552-.448-1-1-1s-1,.448-1,1v4c0,.552.448,1,1,1Z"/>
</svg>