<?xml version="1.0" encoding="UTF-8"?>
<svg id="Outline" xmlns="http://www.w3.org/2000/svg" version="1.1" viewBox="0 0 64 64">
  <!-- Generator: Adobe Illustrator 29.5.1, SVG Export Plug-In . SVG Version: 2.1.0 Build 141)  -->
  <path d="M8,18h4c.552,0,1-.447,1-1v-4h4c.552,0,1-.447,1-1v-4c0-.553-.448-1-1-1h-9c-.552,0-1,.447-1,1v9c0,.553.448,1,1,1ZM9,9h7v2h-4c-.552,0-1,.447-1,1v4h-2v-7Z"/>
  <path d="M56,11c.552,0,1-.447,1-1v-2c0-.553-.448-1-1-1h-9c-.552,0-1,.447-1,1v4c0,.553.448,1,1,1h4v4c0,.553.448,1,1,1h4c.552,0,1-.447,1-1v-3c0-.553-.448-1-1-1s-1,.447-1,1v2h-2v-4c0-.553-.448-1-1-1h-4v-2h7v1c0,.553.448,1,1,1Z"/>
  <path d="M17,51h-4v-4c0-.553-.448-1-1-1h-4c-.552,0-1,.447-1,1v9c0,.553.448,1,1,1h9c.552,0,1-.447,1-1v-4c0-.553-.448-1-1-1ZM16,55h-7v-7h2v4c0,.553.448,1,1,1h4v2Z"/>
  <path d="M56,46h-4c-.552,0-1,.447-1,1v4h-4c-.552,0-1,.447-1,1v4c0,.553.448,1,1,1h9c.552,0,1-.447,1-1v-9c0-.553-.448-1-1-1ZM55,55h-7v-2h4c.552,0,1-.447,1-1v-4h2v7Z"/>
  <path d="M52,31h-3v-15c0-.55-.45-1-1-1h-22c-.55,0-1,.45-1,1s.45,1,1,1h21v14h-30v-14h5c.55,0,1-.45,1-1s-.45-1-1-1h-6c-.55,0-1,.45-1,1v15h-3c-.55,0-1,.45-1,1s.45,1,1,1h3v15c0,.55.45,1,1,1h32c.55,0,1-.45,1-1v-15h3c.55,0,1-.45,1-1s-.45-1-1-1ZM47,47h-30v-14h30v14Z"/>
  <path d="M19,20v4c0,.553.448,1,1,1h4c.552,0,1-.447,1-1v-4c0-.553-.448-1-1-1h-4c-.552,0-1,.447-1,1ZM21,21h2v2h-2v-2Z"/>
  <path d="M19,28c0,.553.448,1,1,1h8c.552,0,1-.447,1-1v-8c0-.553-.448-1-1-1s-1,.447-1,1v7h-7c-.552,0-1,.447-1,1Z"/>
  <path d="M36,19c-.552,0-1,.447-1,1v8c0,.553.448,1,1,1h8c.552,0,1-.447,1-1s-.448-1-1-1h-7v-7c0-.553-.448-1-1-1Z"/>
  <path d="M44,25c.552,0,1-.447,1-1v-4c0-.553-.448-1-1-1h-4c-.552,0-1,.447-1,1v4c0,.553.448,1,1,1h4ZM41,21h2v2h-2v-2Z"/>
  <path d="M24,35h-2c-.55,0-1,.45-1,1v8c0,.55.45,1,1,1s1-.45,1-1v-3h1c1.65,0,3-1.35,3-3s-1.35-3-3-3ZM24,39h-1v-2h1c.55,0,1,.45,1,1s-.45,1-1,1Z"/>
  <path d="M30,45c.552,0,1-.447,1-1v-2h2v2c0,.553.448,1,1,1s1-.447,1-1v-6c0-1.654-1.346-3-3-3s-3,1.346-3,3v6c0,.553.448,1,1,1ZM32,37c.551,0,1,.448,1,1v2h-2v-2c0-.552.449-1,1-1Z"/>
  <path d="M39,40.236v3.764c0,.553.448,1,1,1s1-.447,1-1v-3.764l1.895-3.789c.247-.494.047-1.095-.447-1.342-.496-.246-1.095-.046-1.342.447l-1.105,2.211-1.105-2.211c-.247-.493-.847-.693-1.342-.447-.494.247-.694.848-.447,1.342l1.895,3.789Z"/>
</svg>