<?xml version="1.0" encoding="UTF-8"?>
<svg id="Outline" xmlns="http://www.w3.org/2000/svg" version="1.1" viewBox="0 0 64 64">
  <!-- Generator: Adobe Illustrator 29.5.1, SVG Export Plug-In . SVG Version: 2.1.0 Build 141)  -->
  <path d="M8,18h4c.552,0,1-.448,1-1v-4h4c.552,0,1-.448,1-1v-4c0-.552-.448-1-1-1h-9c-.552,0-1,.448-1,1v9c0,.552.448,1,1,1ZM9,9h7v2h-4c-.552,0-1,.448-1,1v4h-2v-7Z"/>
  <path d="M56,7h-2c-.552,0-1,.448-1,1s.448,1,1,1h1v7h-2v-4c0-.552-.448-1-1-1h-4v-2h2c.552,0,1-.448,1-1s-.448-1-1-1h-3c-.552,0-1,.448-1,1v4c0,.552.448,1,1,1h4v4c0,.552.448,1,1,1h4c.552,0,1-.448,1-1v-9c0-.552-.448-1-1-1Z"/>
  <path d="M17,51h-4v-4c0-.552-.448-1-1-1h-4c-.552,0-1,.448-1,1v9c0,.552.448,1,1,1h9c.552,0,1-.448,1-1v-4c0-.552-.448-1-1-1ZM16,55h-7v-7h2v4c0,.552.448,1,1,1h4v2Z"/>
  <path d="M56,46h-4c-.552,0-1,.448-1,1v4h-4c-.552,0-1,.448-1,1v4c0,.552.448,1,1,1h9c.552,0,1-.448,1-1v-9c0-.552-.448-1-1-1ZM55,55h-7v-2h4c.552,0,1-.448,1-1v-4h2v7Z"/>
  <path d="M52,39h-3v-23c0-.55-.45-1-1-1h-23c-.55,0-1,.45-1,1s.45,1,1,1h22v22h-2v-3c0-.55-.45-1-1-1s-1,.45-1,1v3h-2v-3c0-.55-.45-1-1-1h-4c-.55,0-1,.45-1,1v3h-6v-3c0-.55-.45-1-1-1h-4c-.55,0-1,.45-1,1v3h-2v-3c0-.55-.45-1-1-1s-1,.45-1,1v3h-2v-22h4c.55,0,1-.45,1-1s-.45-1-1-1h-5c-.55,0-1,.45-1,1v23h-3c-.55,0-1,.45-1,1s.45,1,1,1h3v7c0,.55.45,1,1,1h32c.55,0,1-.45,1-1v-7h3c.55,0,1-.45,1-1s-.45-1-1-1ZM37,37h2v2h-2v-2ZM25,37h2v2h-2v-2ZM47,47h-30v-6h30v6Z"/>
  <path d="M24,19h-4c-.552,0-1,.448-1,1v4c0,.552.448,1,1,1h4c.552,0,1-.448,1-1v-4c0-.552-.448-1-1-1ZM23,23h-2v-2h2v2Z"/>
  <path d="M28,19c-.552,0-1,.448-1,1v7h-7c-.552,0-1,.448-1,1s.448,1,1,1h8c.552,0,1-.448,1-1v-8c0-.552-.448-1-1-1Z"/>
  <path d="M36,19c-.552,0-1,.448-1,1v8c0,.552.448,1,1,1h8c.552,0,1-.448,1-1s-.448-1-1-1h-7v-7c0-.552-.448-1-1-1Z"/>
  <path d="M44,25c.552,0,1-.448,1-1v-4c0-.552-.448-1-1-1h-4c-.552,0-1,.448-1,1v4c0,.552.448,1,1,1h4ZM41,21h2v2h-2v-2Z"/>
  <path d="M20,31c-.552,0-1,.448-1,1s.448,1,1,1h2c.552,0,1-.448,1-1s-.448-1-1-1h-2Z"/>
  <path d="M25,32c0,.552.448,1,1,1h4c.552,0,1-.448,1-1s-.448-1-1-1h-4c-.552,0-1,.448-1,1Z"/>
  <path d="M44,31h-2c-.552,0-1,.448-1,1s.448,1,1,1h2c.552,0,1-.448,1-1s-.448-1-1-1Z"/>
  <path d="M33,32c0,.552.448,1,1,1h4c.552,0,1-.448,1-1s-.448-1-1-1h-4c-.552,0-1,.448-1,1Z"/>
</svg>