<?xml version="1.0" encoding="UTF-8"?>
<svg id="Outline" xmlns="http://www.w3.org/2000/svg" version="1.1" viewBox="0 0 64 64">
  <!-- Generator: Adobe Illustrator 29.5.1, SVG Export Plug-In . SVG Version: 2.1.0 Build 141)  -->
  <path d="M8,18h4c.553,0,1-.447,1-1v-4h4c.553,0,1-.447,1-1v-4c0-.553-.447-1-1-1h-9c-.553,0-1,.447-1,1v9c0,.553.447,1,1,1ZM9,9h7v2h-4c-.553,0-1,.447-1,1v4h-2v-7Z"/>
  <path d="M56,7h-9c-.553,0-1,.447-1,1v4c0,.553.447,1,1,1h4v4c0,.553.447,1,1,1h4c.553,0,1-.447,1-1v-9c0-.553-.447-1-1-1ZM55,16h-2v-4c0-.553-.447-1-1-1h-4v-2h7v7Z"/>
  <path d="M17,51h-4v-4c0-.553-.447-1-1-1h-4c-.553,0-1,.447-1,1v9c0,.553.447,1,1,1h9c.553,0,1-.447,1-1v-4c0-.553-.447-1-1-1ZM16,55h-7v-7h2v4c0,.553.447,1,1,1h4v2Z"/>
  <path d="M56,46h-4c-.553,0-1,.447-1,1v4h-4c-.553,0-1,.447-1,1v4c0,.553.447,1,1,1h9c.553,0,1-.447,1-1v-9c0-.553-.447-1-1-1ZM55,55h-7v-2h4c.553,0,1-.447,1-1v-4h2v7Z"/>
  <path d="M49,48v-15h3c.553,0,1-.447,1-1s-.447-1-1-1h-3v-4c0-.553-.447-1-1-1s-1,.447-1,1v4h-30v-14h4c.553,0,1-.447,1-1s-.447-1-1-1h-5c-.553,0-1,.447-1,1v15h-3c-.553,0-1,.447-1,1s.447,1,1,1h3v15c0,.553.447,1,1,1h32c.553,0,1-.447,1-1ZM39,40c0,3.859-3.141,7-7,7s-7-3.141-7-7,3.141-7,7-7,7,3.141,7,7ZM17,47v-14h9.355c-2.044,1.651-3.355,4.174-3.355,7s1.312,5.349,3.355,7h-9.355ZM37.645,47c2.044-1.651,3.355-4.174,3.355-7s-1.312-5.349-3.355-7h9.355v14h-9.355Z"/>
  <path d="M25,17h22v6c0,.553.447,1,1,1s1-.447,1-1v-7c0-.553-.447-1-1-1h-23c-.553,0-1,.447-1,1s.447,1,1,1Z"/>
  <path d="M19,20v4c0,.553.447,1,1,1h4c.553,0,1-.447,1-1v-4c0-.553-.447-1-1-1h-4c-.553,0-1,.447-1,1ZM21,21h2v2h-2v-2Z"/>
  <path d="M27,20v7h-7c-.553,0-1,.447-1,1s.447,1,1,1h8c.553,0,1-.447,1-1v-8c0-.553-.447-1-1-1s-1,.447-1,1Z"/>
  <path d="M36,19c-.553,0-1,.447-1,1v8c0,.553.447,1,1,1h8c.553,0,1-.447,1-1s-.447-1-1-1h-7v-7c0-.553-.447-1-1-1Z"/>
  <path d="M45,20c0-.553-.447-1-1-1h-4c-.553,0-1,.447-1,1v4c0,.553.447,1,1,1h4c.553,0,1-.447,1-1v-4ZM43,23h-2v-2h2v2Z"/>
  <path d="M30.293,42.707c.195.195.451.293.707.293s.512-.098.707-.293l4-4c.391-.391.391-1.023,0-1.414s-1.023-.391-1.414,0l-3.293,3.293-1.293-1.293c-.391-.391-1.023-.391-1.414,0s-.391,1.023,0,1.414l2,2Z"/>
</svg>