<?xml version="1.0" encoding="UTF-8"?>
<svg id="Outline" xmlns="http://www.w3.org/2000/svg" version="1.1" viewBox="0 0 64 64">
  <!-- Generator: Adobe Illustrator 29.5.1, SVG Export Plug-In . SVG Version: 2.1.0 Build 141)  -->
  <path d="M26,47c.552,0,1-.447,1-1v-8c0-.464-.319-.866-.77-.974-.454-.104-.917.111-1.125.526l-1.105,2.211-1.105-2.211c-.208-.415-.67-.63-1.125-.526-.451.107-.77.51-.77.974v8c0,.553.448,1,1,1s1-.447,1-1v-3.764l.105.211c.339.678,1.45.678,1.789,0l.105-.211v3.764c0,.553.448,1,1,1Z"/>
  <path d="M42,47c.552,0,1-.447,1-1v-8c0-.464-.319-.866-.77-.974-.455-.104-.917.111-1.125.526l-1.105,2.211-1.105-2.211c-.207-.415-.668-.63-1.125-.526-.451.107-.77.51-.77.974v8c0,.553.448,1,1,1s1-.447,1-1v-3.764l.105.211c.339.678,1.45.678,1.789,0l.105-.211v3.764c0,.553.448,1,1,1Z"/>
  <path d="M29,40v4c0,1.654,1.346,3,3,3s3-1.346,3-3v-4c0-1.654-1.346-3-3-3s-3,1.346-3,3ZM33,40v4c0,.552-.449,1-1,1s-1-.448-1-1v-4c0-.552.449-1,1-1s1,.448,1,1Z"/>
  <path d="M55.03,48l1.94-7.76c.07-.3.01-.61-.18-.86-.19-.24-.48-.38-.79-.38h-7v-3c0-1.65-1.35-3-3-3h-4c-.55,0-1,.45-1,1s.45,1,1,1h4c.55,0,1,.45,1,1v12c0,.55-.45,1-1,1h-28c-.55,0-1-.45-1-1v-12c0-.55.45-1,1-1h20c.55,0,1-.45,1-1s-.45-1-1-1h-20c-1.65,0-3,1.35-3,3v3h-7c-.31,0-.6.14-.79.38-.19.25-.25.56-.18.86l1.94,7.76-1.94,7.76c-.07.3-.01.61.18.86.19.24.48.38.79.38h16c.55,0,1-.45,1-1v-5h14v5c0,.55.45,1,1,1h16c.31,0,.6-.14.79-.38.19-.25.25-.56.18-.86l-1.94-7.76ZM23,55h-13.72l1.69-6.76c.04-.16.04-.32,0-.48l-1.69-6.76h5.72v7c0,1.65,1.35,3,3,3h5v4ZM53.03,48.24l1.69,6.76h-13.72v-4h5c1.65,0,3-1.35,3-3v-7h5.72l-1.69,6.76c-.04.16-.04.32,0,.48Z"/>
  <path d="M13.286,22.905l.718,7.195c.051.511.481.9.995.9h7c.552,0,1-.447,1-1s-.448-1-1-1h-6.095l-.629-6.296c.183-.087.353-.191.513-.311l3.655,2.439c.573.382,1.382.052,1.531-.614l1.393-6.255c.325-.04.632-.127.916-.263l3.008,3.008c.215.215.516.325.82.286.303-.034.573-.205.735-.463l4.152-6.644,4.152,6.644c.162.258.432.429.735.463.038.005.076.007.113.007.264,0,.519-.104.707-.293l3.008-3.008c.284.136.592.223.916.263l1.393,6.255c.151.677.957.997,1.531.614l3.655-2.439c.16.12.331.225.513.311l-.629,6.296h-22.095c-.552,0-1,.447-1,1s.448,1,1,1h23c.514,0,.944-.39.995-.9l.718-7.195c1.309-.322,2.286-1.498,2.286-2.905,0-1.654-1.346-3-3-3s-3,1.346-3,3c0,.253.041.494.1.729l-2.441,1.63-1.073-4.822c.846-.531,1.415-1.466,1.415-2.536,0-1.654-1.346-3-3-3s-3,1.346-3,3c0,.462.113.894.301,1.285l-2.119,2.119-3.649-5.839c.875-.525,1.467-1.473,1.467-2.565,0-1.654-1.346-3-3-3s-3,1.346-3,3c0,1.092.593,2.04,1.467,2.565l-3.649,5.839-2.119-2.119c.187-.391.301-.824.301-1.285,0-1.654-1.346-3-3-3s-3,1.346-3,3c0,1.071.568,2.005,1.415,2.536l-1.073,4.822-2.441-1.63c.059-.235.1-.476.1-.729,0-1.654-1.346-3-3-3s-3,1.346-3,3c0,1.407.977,2.583,2.286,2.905ZM50,19c.551,0,1,.448,1,1s-.449,1-1,1-1-.448-1-1,.449-1,1-1ZM42,14c.551,0,1,.448,1,1s-.449,1-1,1c-.271,0-.515-.11-.696-.286-.003-.003-.004-.008-.007-.011s-.008-.004-.011-.007c-.175-.18-.286-.425-.286-.696,0-.552.449-1,1-1ZM32,9c.551,0,1,.448,1,1s-.449,1-1,1-1-.448-1-1,.449-1,1-1ZM22,14c.551,0,1,.448,1,1,0,.271-.11.516-.286.696-.003.003-.008.004-.011.007s-.004.008-.007.011c-.18.175-.425.286-.696.286-.551,0-1-.448-1-1s.449-1,1-1ZM14,19c.551,0,1,.448,1,1s-.449,1-1,1-1-.448-1-1,.449-1,1-1Z"/>
</svg>