<?xml version="1.0" encoding="UTF-8"?>
<svg id="Outline" xmlns="http://www.w3.org/2000/svg" version="1.1" viewBox="0 0 64 64">
  <!-- Generator: Adobe Illustrator 29.5.1, SVG Export Plug-In . SVG Version: 2.1.0 Build 141)  -->
  <path d="M48.42,45.049c.36-.57.58-1.25.58-1.97,0-1.68-1.14-3.15-2.78-3.55-.72-.19-1.22-.83-1.22-1.57v-6.61c.51-.59.83-1.35.83-2.18,0-1.01-.45-1.9-1.16-2.51v-.99c0-1.15-.16-2.28-.47-3.36l3.75-10.99c.12-.37.02-.78-.26-1.05-.28-.26-.7-.34-1.06-.2l-6.96,2.79-7.05-5.64c-.36-.29-.88-.29-1.24,0l-7.05,5.64-6.96-2.79c-.36-.14-.78-.06-1.06.2-.28.27-.38.68-.26,1.05l3.75,10.99c-.31,1.08-.47,2.21-.47,3.36v.99c-.71.61-1.16,1.5-1.16,2.51,0,.83.32,1.59.83,2.18v6.61c0,.74-.5,1.38-1.22,1.57-1.64.4-2.78,1.87-2.78,3.55,0,.72.22,1.39.58,1.97-2.56.58-4.41,2.85-4.41,5.51v5.44c0,.55.45,1,1,1h22.83c.55,0,1-.45,1-1s-.45-1-1-1h-15v-5c0-.55-.45-1-1-1s-1,.45-1,1v5h-4.83v-4.44c0-1.78,1.26-3.29,3.01-3.61l5.18-.94c.1,2.57,2.22,4.64,4.81,4.65h.26c.74,0,1.45.3,1.99.83l.17.17c.94.94,2.18,1.41,3.42,1.41,1.23,0,2.45-.47,3.38-1.4l.21-.19c.52-.52,1.23-.82,1.97-.82h.26c2.59-.01,4.7-2.08,4.81-4.65l5.18.94c1.75.32,3.01,1.83,3.01,3.61v4.44h-4.83v-5c0-.55-.45-1-1-1s-1,.45-1,1v5h-5c-.55,0-1,.45-1,1s.45,1,1,1h12.83c.55,0,1-.45,1-1v-5.44c0-2.66-1.85-4.93-4.41-5.51ZM18.65,12.739l5.48,2.19c.33.13.71.07.99-.15l6.88-5.5,6.88,5.5c.28.23.66.28.99.15l5.48-2.19-1.45,4.26h-23.8l-1.45-4.26ZM42.53,20.999h-15.53c-.55,0-1,.45-1,1s.45,1,1,1h.79l-.32.43c-1.13,1.51-2.92,2.4-4.8,2.4h-1.17c-.06,0-.11.02-.17.02v-.18c0-.91.12-1.81.35-2.67h1.32c.55,0,1-.45,1-1s-.45-1-1-1h-1.53l-.69-2h22.44l-.69,2ZM42.67,25.669v.18c-.06,0-.11-.02-.17-.02h-3.5c-1.67,0-3.28-.38-4.77-1.13-.9-.44-1.71-1.03-2.44-1.7h10.53c.23.86.35,1.76.35,2.67ZM21.5,27.829h1.17c2.5,0,4.9-1.19,6.4-3.2l.64-.85c1.03,1.11,2.27,2.04,3.63,2.71,1.77.89,3.67,1.34,5.66,1.34h3.5c.74,0,1.33.6,1.33,1.34,0,.73-.59,1.33-1.33,1.33h-1.17c-.55,0-1,.45-1,1,0,4.59-3.74,8.33-8.33,8.33s-8.33-3.74-8.33-8.33c0-.55-.45-1-1-1h-1.17c-.74,0-1.33-.6-1.33-1.33,0-.74.59-1.34,1.33-1.34ZM18,44.589c-.6-.27-1-.84-1-1.51,0-.76.52-1.43,1.26-1.62,1.61-.4,2.74-1.84,2.74-3.5v-5.51c.16.02.33.05.5.05h.21c.26,2.63,1.5,4.97,3.36,6.65l-.91,4.32-6.16,1.12ZM40.66,45.829c-.01,1.55-1.28,2.82-2.83,2.83h-.26c-1.26,0-2.5.51-3.37,1.39l-.21.19c-1.1,1.1-2.88,1.1-4-.01l-.17-.17c-.89-.89-2.13-1.4-3.39-1.4h-.26c-1.55-.01-2.82-1.28-2.83-2.83v-.18l1.84-.34c.4-.07.71-.38.8-.77l.86-4.1c1.52.88,3.28,1.39,5.16,1.39s3.64-.51,5.16-1.39l.86,4.1c.09.39.4.7.8.77l1.84.34v.18ZM45.99,44.589l-6.15-1.12-.91-4.32c1.86-1.68,3.1-4.02,3.36-6.65h.21c.17,0,.34-.03.5-.05v5.51c0,1.66,1.13,3.1,2.74,3.5.74.19,1.26.86,1.26,1.62,0,.65-.39,1.22-1.01,1.51Z"/>
</svg>