<?xml version="1.0" encoding="UTF-8"?>
<svg id="Outline" xmlns="http://www.w3.org/2000/svg" version="1.1" viewBox="0 0 64 64">
  <!-- Generator: Adobe Illustrator 29.3.1, SVG Export Plug-In . SVG Version: 2.1.0 Build 151)  -->
  <circle cx="32" cy="39" r="1"/>
  <circle cx="45" cy="36" r="1"/>
  <circle cx="23" cy="32" r="1"/>
  <path d="M34,50h-1v-7c0-.55225-.44727-1-1-1h-2c-.55273,0-1,.44775-1,1s.44727,1,1,1h1v6h-1c-.55273,0-1,.44775-1,1s.44727,1,1,1h4c.55273,0,1-.44775,1-1s-.44727-1-1-1Z"/>
  <path d="M54.75488,35.98193c1.45215-2.02832,2.24512-4.48145,2.24512-6.98193,0-6.6167-5.38281-12-12-12-2.40515,0-4.64252.71808-6.52234,1.94122-1.81207-7.00616-8.08258-11.94122-15.47766-11.94122-7.19141,0-13.53809,4.84277-15.43457,11.77637-.14551.53271.16797,1.08252.70117,1.22803.52832.146,1.08203-.16748,1.22852-.70068,1.65918-6.06641,7.21191-10.30371,13.50488-10.30371,6.77466,0,12.46252,4.73547,13.7312,11.32544-2.29327,2.18695-3.7312,5.26306-3.7312,8.67456,0,1.13385.16864,2.22717.46387,3.2677-2.65973,3.00494-6.43689,4.7323-10.46387,4.7323h-13.30566l2.37109-4.29639c.19434-.35156.15918-.78516-.08887-1.10107-1.15039-1.46484-1.98242-3.11572-2.47168-4.90625-.14648-.5332-.7002-.84375-1.22852-.70117-.5332.146-.84668.6958-.70117,1.22852.50195,1.83447,1.31738,3.54053,2.42676,5.08008l-2.87695,5.21289c-.17188.31006-.16602.68701.01367.9917s.50781.4917.86133.4917h13.61041c-1.04559,1.81464-1.61041,3.88666-1.61041,6,0,6.6167,5.38281,12,12,12s12-5.3833,12-12c0-1.42181-.27368-2.82019-.75818-4.14368.5755.08508,1.15942.14368,1.75818.14368h11c.36035,0,.69238-.19385.87012-.50732s.17285-.69824-.0127-1.00732l-2.10254-3.50342ZM42,45c0,5.51416-4.48633,10-10,10s-10-4.48584-10-10c0-2.18927.73145-4.32208,2.05243-6.05823,3.86639-.25317,7.47913-1.8736,10.21771-4.60016,1.34497,2.69043,3.6662,4.80212,6.50214,5.87482.79456,1.46497,1.22772,3.10724,1.22772,4.78357ZM45,39c-5.51367,0-10-4.48584-10-10s4.48633-10,10-10,10,4.48584,10,10c0,2.31299-.77051,4.48682-2.22852,6.28613-.26465.32666-.2959.78369-.08008,1.14404l1.54199,2.56982h-9.2334Z"/>
  <path d="M24,27.78271c0-1.44775.8252-2.83545,2.20801-3.71143,1.74805-1.1084,2.79199-3.00391,2.79199-5.0708,0-3.25244-2.74805-6.00049-6-6.00049-3.30859,0-6,2.69141-6,6,0,.55225.44727,1,1,1s1-.44775,1-1c0-2.20557,1.79395-4,4-4,2.16797,0,4,1.83203,4,4.00049,0,1.37793-.69629,2.64209-1.8623,3.38135-1.96484,1.24512-3.1377,3.26416-3.1377,5.40088v.21729c0,.55225.44727,1,1,1s1-.44775,1-1v-.21729Z"/>
  <path d="M45.7168,21.06299c-1.18457-.20752-2.38086.11035-3.28809.87256-.9082.7627-1.42871,1.87939-1.42871,3.06445,0,.55225.44727,1,1,1s1-.44775,1-1c0-.59229.26074-1.15088.71484-1.53271.45996-.3877,1.04688-.5415,1.65625-.43457.78613.13818,1.45801.80957,1.5957,1.59619.12305.69727-.09961,1.36768-.6084,1.83936-1.52148,1.40723-2.3584,3.19531-2.3584,5.03564v.49609c0,.55225.44727,1,1,1s1-.44775,1-1v-.49609c0-1.27637.60938-2.54346,1.71582-3.56787,1.00391-.92822,1.45996-2.29395,1.22167-3.65283-.2832-1.61279-1.60741-2.93701-3.2207-3.22021Z"/>
  <circle cx="8" cy="23" r="1"/>
</svg>