<?xml version="1.0" encoding="UTF-8"?>
<svg id="Outline" xmlns="http://www.w3.org/2000/svg" version="1.1" viewBox="0 0 64 64">
  <!-- Generator: Adobe Illustrator 29.5.1, SVG Export Plug-In . SVG Version: 2.1.0 Build 141)  -->
  <path d="M16,52c0,.552.447,1,1,1h30c.553,0,1-.448,1-1s-.447-1-1-1h-30c-.553,0-1,.448-1,1Z"/>
  <path d="M49,7H17c-2.76,0-5,2.24-5,5v40c0,2.76,2.24,5,5,5h32c1.65,0,3-1.35,3-3V10c0-1.65-1.35-3-3-3ZM14,12c0-1.3.84-2.4,2-2.82v37.92c-.74.15-1.42.48-2,.93V12ZM50,54c0,.55-.45,1-1,1H17c-1.65,0-3-1.35-3-3s1.35-3,3-3h33v5ZM50,47H18V9h31c.55,0,1,.45,1,1v37Z"/>
  <path d="M21,41c1.654,0,3,1.346,3,3,0,.552.447,1,1,1h18c.553,0,1-.448,1-1,0-1.654,1.346-3,3-3,.553,0,1-.448,1-1v-24c0-.552-.447-1-1-1-1.654,0-3-1.346-3-3,0-.552-.447-1-1-1h-18c-.553,0-1,.448-1,1,0,1.654-1.346,3-3,3-.553,0-1,.448-1,1v24c0,.552.447,1,1,1ZM22,16.899c1.956-.398,3.501-1.943,3.899-3.899h16.201c.398,1.956,1.943,3.501,3.899,3.899v22.201c-1.956.398-3.501,1.943-3.899,3.899h-16.201c-.398-1.956-1.943-3.501-3.899-3.899v-22.201Z"/>
  <path d="M27,32.874v.126c0,1.86,1.276,3.428,3,3.874v.126c0,2.206,1.794,4,4,4s4-1.794,4-4v-.126c1.724-.445,3-2.013,3-3.874v-.126c1.724-.445,3-2.013,3-3.874v-2c0-1.86-1.276-3.428-3-3.874v-.126c0-1.86-1.276-3.428-3-3.874v-.126c0-2.206-1.794-4-4-4s-4,1.794-4,4v.126c-1.724.445-3,2.013-3,3.874v.126c-1.724.445-3,2.013-3,3.874v2c0,1.86,1.276,3.428,3,3.874ZM26,27c0-1.103.897-2,2-2,.553,0,1-.448,1-1v-1c0-1.103.897-2,2-2,.553,0,1-.448,1-1v-1c0-1.103.897-2,2-2s2,.897,2,2v1c0,.552.447,1,1,1,1.103,0,2,.897,2,2v1c0,.552.447,1,1,1,1.103,0,2,.897,2,2v2c0,1.103-.897,2-2,2-.553,0-1,.448-1,1v1c0,1.103-.897,2-2,2-.553,0-1,.448-1,1v1c0,1.103-.897,2-2,2s-2-.897-2-2v-1c0-.552-.447-1-1-1-1.103,0-2-.897-2-2v-1c0-.552-.447-1-1-1-1.103,0-2-.897-2-2v-2Z"/>
</svg>