<?xml version="1.0" encoding="UTF-8"?>
<svg id="Outline" xmlns="http://www.w3.org/2000/svg" version="1.1" viewBox="0 0 64 64">
  <!-- Generator: Adobe Illustrator 29.3.1, SVG Export Plug-In . SVG Version: 2.1.0 Build 151)  -->
  <path d="M27,45c0-4.41113-3.58887-8-8-8s-8,3.58887-8,8,3.58887,8,8,8,8-3.58887,8-8ZM18,50.90967v-4.90967h2v4.90967c-.32599.05505-.65863.09033-1,.09033s-.67401-.03528-1-.09033ZM22,50.18823v-4.18823h2.90967c-.30206,1.78912-1.3952,3.30902-2.90967,4.18823ZM24.90967,44h-2.90967v-4.18823c1.51447.87921,2.6076,2.39911,2.90967,4.18823ZM20,39.09033v4.90967h-2v-4.90967c.32599-.05505.65863-.09033,1-.09033s.67401.03528,1,.09033ZM16,39.81177v4.18823h-2.90967c.30206-1.78912,1.3952-3.30902,2.90967-4.18823ZM13.09033,46h2.90967v4.18823c-1.51447-.87921-2.6076-2.39911-2.90967-4.18823Z"/>
  <path d="M49,47v-8c0-1.10303-.89746-2-2-2h-16c-1.10254,0-2,.89697-2,2v8c0,1.10303.89746,2,2,2h16c1.10254,0,2-.89697,2-2ZM47,39l.00037,3h-2.00037c0-.55225-.44727-1-1-1s-1,.44775-1,1h-3c0-.55225-.44727-1-1-1s-1,.44775-1,1h-3c0-.55225-.44727-1-1-1s-1,.44775-1,1h-2v-3h16ZM31,44h2c0,.55225.44727,1,1,1s1-.44775,1-1h3c0,.55225.44727,1,1,1s1-.44775,1-1h3c0,.55225.44727,1,1,1s1-.44775,1-1h2.00061l.00037,3h-16.00098v-3Z"/>
  <path d="M32,51c-.55273,0-1,.44775-1,1s.44727,1,1,1h2c.55273,0,1-.44775,1-1s-.44727-1-1-1h-2Z"/>
  <path d="M38,51c-.55273,0-1,.44775-1,1s.44727,1,1,1h2c.55273,0,1-.44775,1-1s-.44727-1-1-1h-2Z"/>
  <path d="M44,51c-.55273,0-1,.44775-1,1s.44727,1,1,1h2c.55273,0,1-.44775,1-1s-.44727-1-1-1h-2Z"/>
  <path d="M40,17c-1.6543,0-3,1.3457-3,3v6c0,.55225.44727,1,1,1s1-.44775,1-1v-2h2v2c0,.55225.44727,1,1,1s1-.44775,1-1v-6c0-1.6543-1.3457-3-3-3ZM39,22v-2c0-.55127.44824-1,1-1s1,.44873,1,1v2h-2Z"/>
  <path d="M48,17h-2c-.55273,0-1,.44775-1,1v8c0,.55225.44727,1,1,1h2c1.6543,0,3-1.3457,3-3v-4c0-1.6543-1.3457-3-3-3ZM49,24c0,.55127-.44824,1-1,1h-1v-6h1c.55176,0,1,.44873,1,1v4Z"/>
  <path d="M55,13h-22c-1.09998,0-2,.89996-2,2v10h-12v-2c0-.92999-.65002-1.72003-1.51001-1.92999l9.12-8.42999c.42004.21997.89001.35999,1.39001.35999,1.65002,0,3-1.35004,3-3s-1.34998-3-3-3-3,1.34998-3,3c0,.41998.09003.82001.25,1.17999l-10.64001,9.82001h-1.60999c-1.09998,0-2,.89996-2,2v2h-2c-1.09998,0-2,.89996-2,2v10c0,.54999.45001,1,1,1s1-.45001,1-1v-10h22v2H13c-1.09998,0-2,.89996-2,2v2c0,1.09998.90002,2,2,2h34c1.09998,0,2-.90002,2-2v-2h2v24H9v-10c0-.54999-.45001-1-1-1s-1,.45001-1,1v10c0,1.09998.90002,2,2,2h42c1.09998,0,2-.90002,2-2v-24h2c1.09998,0,2-.90002,2-2v-14c0-1.10004-.90002-2-2-2ZM28,9c.54999,0,1,.45001,1,1s-.45001,1-1,1-1-.45001-1-1,.45001-1,1-1ZM17,25h-4v-2h4v2ZM18,33h-5v-2h5v2ZM47,33h-27v-2h27v2ZM55,29h-22v-14h22v14Z"/>
  <circle cx="8" cy="41" r="1"/>
</svg>