<?xml version="1.0" encoding="UTF-8"?>
<svg id="Outline" xmlns="http://www.w3.org/2000/svg" version="1.1" viewBox="0 0 64 64">
  <!-- Generator: Adobe Illustrator 29.5.1, SVG Export Plug-In . SVG Version: 2.1.0 Build 141)  -->
  <path d="M44.498,47.663c-.477-.272-1.09-.11-1.365.369-.275.479-.11,1.09.369,1.365.924.53,1.498,1.528,1.498,2.603,0,1.654-1.346,3-3,3-.552,0-1,.447-1,1s.448,1,1,1c2.757,0,5-2.243,5-5,0-1.788-.958-3.45-2.502-4.337Z"/>
  <path d="M56,7c-22.28,0-40.56,17.25-41.91,39.4-.03.01-.06.02-.09.03-.64-.28-1.32-.43-2-.43-2.76,0-5,2.24-5,5s2.24,5,5,5c.55,0,1-.45,1-1s-.45-1-1-1c-1.65,0-3-1.35-3-3s1.35-3,3-3c.52,0,1.02.14,1.5.42.31.17.69.17,1,0,.48-.28.98-.42,1.5-.42.89,0,1.54.39,1.94.72.22.2.52.27.81.23.29-.05.54-.23.69-.48.54-.92,1.5-1.47,2.56-1.47s2.02.55,2.56,1.47c.15.25.4.43.69.48.29.04.59-.03.81-.23.4-.33,1.05-.72,1.94-.72.53,0,1.04.15,1.53.44.29.17.65.19.95.04.31-.16.52-.45.55-.79.17-1.53,1.45-2.69,2.97-2.69.53,0,1.04.14,1.49.4.82.48,1.37,1.34,1.48,2.29.03.34.24.63.54.79.31.15.67.13.96-.04.49-.29,1-.44,1.53-.44.55,0,1-.45,1-1s-.45-1-1-1c-.46,0-.92.07-1.36.19-.41-1.04-1.16-1.94-2.13-2.51-.51-.3-1.09-.5-1.69-.6.96-3.44,2.75-6.62,5.24-9.23.38-.4.36-1.03-.04-1.41-.4-.39-1.03-.37-1.42.03-2.86,3.01-4.87,6.71-5.86,10.71-1.54.4-2.81,1.52-3.38,3.01-.39-.11-.79-.15-1.19-.17,1.45-13.79,12.94-24.5,26.83-25v4c-4.82.2-9.38,1.81-13.26,4.69-.44.33-.53.95-.2,1.4.33.44.95.53,1.4.2,3.79-2.82,8.31-4.31,13.06-4.31.55,0,1-.45,1-1V8c0-.55-.45-1-1-1ZM55,19.02c-15.11.51-27.58,12.29-28.87,27.37-.16.07-.33.12-.48.21-.88-.95-2.11-1.51-3.41-1.57,1.95-16.6,16.02-29.51,32.76-30.01v4ZM55,13.02c-17.94.51-33,14.47-34.81,32.34-.69.28-1.32.69-1.84,1.24-.68-.37-1.45-.57-2.23-.59,1.51-20.51,18.28-36.5,38.88-37v4.01Z"/>
</svg>