<?xml version="1.0" encoding="UTF-8"?>
<svg id="Outline" xmlns="http://www.w3.org/2000/svg" version="1.1" viewBox="0 0 64 64">
  <!-- Generator: Adobe Illustrator 29.5.1, SVG Export Plug-In . SVG Version: 2.1.0 Build 141)  -->
  <path d="M56,28h-1.07c-.49-3.94-3.86-7-7.93-7-1.89,0-3.69.68-5.12,1.87-1.83-2.35-4.68-3.87-7.88-3.87-1.09,0-2.14.18-3.14.52-2.32-2.18-5.43-3.52-8.86-3.52-6.83,0-12.44,5.3-12.95,12h-1.05c-.55,0-1,.45-1,1v3c0,10.01,7.39,18.29,17,19.75v3.25c0,.55.45,1,1,1h14c.55,0,1-.45,1-1v-3.25c9.61-1.46,17-9.74,17-19.75v-3c0-.55-.45-1-1-1ZM47,23c2.97,0,5.43,2.17,5.91,5h-2.05c-.45-1.72-2-3-3.86-3-1.35,0-2.55.68-3.27,1.71-.18-.74-.44-1.46-.78-2.13,1.1-1.01,2.54-1.58,4.05-1.58ZM48.72,28h-3.44c.34-.59.98-1,1.72-1s1.38.41,1.72,1ZM34,21c4.07,0,7.44,3.06,7.93,7h-2.02c-.5-2.99-3.18-5.24-6.38-4.98-.34-.65-.73-1.26-1.17-1.85.53-.11,1.08-.17,1.64-.17ZM37.86,28h-2.91c-.08-1.02-.27-2.02-.57-2.96,1.69.16,3.06,1.36,3.48,2.96ZM22,18c5.73,0,10.44,4.4,10.95,10h-2.01c-.5-4.49-4.32-8-8.94-8s-8.44,3.51-8.94,8h-2.01c.51-5.6,5.22-10,10.95-10ZM22,24c-2.41,0-4.43,1.72-4.9,4h-2.02c.49-3.39,3.4-6,6.92-6s6.43,2.61,6.92,6h-2.02c-.47-2.28-2.49-4-4.9-4ZM24.82,28h-5.64c.42-1.16,1.52-2,2.82-2s2.4.84,2.82,2ZM38,54h-12v-2h12v2ZM37,50h-10c-5.78,0-10.92-2.75-14.22-7h4.22c.55,0,1-.45,1-1v-4h4v4c0,.55.45,1,1,1h6c.55,0,1-.45,1-1v-4h4v4c0,.55.45,1,1,1h6c.55,0,1-.45,1-1v-4h4v4c0,.55.45,1,1,1h4.22c-3.3,4.25-8.44,7-14.22,7ZM52.56,41h-4.56v-4c0-.55-.45-1-1-1h-6c-.55,0-1,.45-1,1v4h-4v-4c0-.55-.45-1-1-1h-6c-.55,0-1,.45-1,1v4h-4v-4c0-.55-.45-1-1-1h-6c-.55,0-1,.45-1,1v4h-4.56c-1.23-2.1-2.04-4.47-2.32-7h45.76c-.28,2.53-1.09,4.9-2.32,7ZM55,32H9v-2h46v2Z"/>
  <path d="M56.693,8.279c-.195-.188-.449-.282-.732-.278l-26,1c-.537.021-.961.462-.961.999v6c0,.537.425.979.961.999l26,1c.013,0,.026,0,.039,0,.258,0,.507-.1.693-.279.196-.188.307-.449.307-.721v-8c0-.272-.111-.532-.307-.721ZM31,10.962l24-.923v1.961h-24v-1.038ZM55,15.961l-24-.923v-1.038h24v1.961Z"/>
</svg>