<?xml version="1.0" encoding="UTF-8"?>
<svg id="Outline" xmlns="http://www.w3.org/2000/svg" version="1.1" viewBox="0 0 64 64">
  <!-- Generator: Adobe Illustrator 29.5.1, SVG Export Plug-In . SVG Version: 2.1.0 Build 141)  -->
  <path d="M32,7c-13.785,0-25,11.215-25,25s11.215,25,25,25,25-11.215,25-25S45.785,7,32,7ZM32,55c-12.682,0-23-10.318-23-23s10.318-23,23-23,23,10.318,23,23-10.318,23-23,23Z"/>
  <path d="M32,11c-11.58,0-21,9.42-21,21s9.42,21,21,21,21-9.42,21-21-9.42-21-21-21ZM32,51c-10.477,0-19-8.523-19-19s8.523-19,19-19,19,8.523,19,19-8.523,19-19,19Z"/>
  <path d="M37.689,29.626l-6.637-1.175-3.169-5.949c-.348-.652-1.418-.652-1.766,0l-3.169,5.949-6.637,1.175c-.364.064-.663.324-.777.676s-.025.737.231,1.003l4.679,4.852-.934,6.676c-.051.366.104.73.402.948.3.218.695.252,1.025.09l6.061-2.95,6.061,2.95c.139.068.288.101.437.101.598,0,1.073-.55.991-1.139l-.934-6.676,4.679-4.852c.257-.266.346-.652.231-1.003s-.413-.611-.777-.676ZM31.778,35.119c-.213.221-.313.528-.271.833l.741,5.299-4.811-2.342c-.138-.067-.288-.101-.437-.101s-.299.034-.438.101l-4.811,2.342.741-5.299c.042-.305-.057-.612-.271-.833l-3.714-3.851,5.268-.933c.303-.054.564-.244.708-.515l2.515-4.722,2.515,4.722c.145.271.406.461.708.515l5.268.933-3.714,3.851Z"/>
  <path d="M43.689,19.835l-3.079-.545-1.47-2.76c-.348-.652-1.418-.652-1.766,0l-1.47,2.76-3.079.545c-.364.064-.663.325-.777.676-.114.352-.025.737.231,1.003l2.17,2.25-.433,3.097c-.051.366.104.73.402.947.3.218.693.253,1.026.09l2.811-1.369,2.811,1.369c.139.068.289.101.438.101.597,0,1.073-.542.99-1.138l-.433-3.097,2.17-2.25c.256-.266.346-.652.231-1.003-.114-.351-.413-.611-.777-.676ZM40.287,22.727c-.213.221-.313.528-.271.833l.24,1.72-1.561-.76c-.138-.067-.288-.101-.438-.101s-.3.034-.438.101l-1.561.76.24-1.72c.042-.304-.057-.611-.271-.833l-1.205-1.25,1.71-.303c.303-.054.564-.244.708-.515l.816-1.532.816,1.532c.145.271.406.461.708.515l1.71.303-1.205,1.25Z"/>
</svg>