<?xml version="1.0" encoding="UTF-8"?>
<svg id="Outline" xmlns="http://www.w3.org/2000/svg" version="1.1" viewBox="0 0 64 64">
  <!-- Generator: Adobe Illustrator 29.5.1, SVG Export Plug-In . SVG Version: 2.1.0 Build 141)  -->
  <path d="M27.13379,17.29834l-.67188,4.53418c-.05469.36816.10058.73633.40137.95508.30273.2207.70215.25391,1.0332.08691l4.10352-2.04004,4.10352,2.04004c.14055.07028.29281.10446.44507.10449.60435.00014,1.07842-.54782.9895-1.14648l-.67188-4.53418,3.20801-3.27148c.26074-.26562.35254-.65527.2373-1.00879-.11523-.35449-.41797-.61523-.78516-.67773l-4.51953-.76074-2.12012-4.06348c-.3457-.66016-1.42773-.66016-1.77344,0l-2.12012,4.06348-4.51953.76074c-.36719.0625-.66992.32324-.78516.67773-.11523.35352-.02344.74316.2373,1.00879l3.20801,3.27148ZM29.81543,13.46924c.30859-.05176.5752-.24609.7207-.52344l1.46387-2.80566,1.46387,2.80566c.14551.27734.41211.47168.7207.52344l3.12012.52539-2.21484,2.25879c-.21973.22363-.32129.53711-.27539.84668l.46387,3.13086-2.83301-1.40918c-.14062-.06934-.29297-.10449-.44531-.10449s-.30469.03516-.44531.10449l-2.83301,1.40918.46387-3.13086c.0459-.30957-.05566-.62305-.27539-.84668l-2.21484-2.25879,3.12012-.52539Z"/>
  <path d="M44.40625,22.71729l-.61914,4.1748c-.05469.36816.10059.73633.40137.95508.30176.22168.70117.25293,1.0332.08691l3.77832-1.87891,3.77832,1.87891c.14045.07022.29258.1044.44473.10449.59796.00034,1.07718-.55848.98984-1.14648l-.61914-4.1748,2.95508-3.0127c.26074-.26562.35254-.65527.2373-1.00879-.11523-.35449-.41797-.61523-.78516-.67773l-4.16211-.7002-1.95215-3.74219c-.3457-.66016-1.42773-.66016-1.77344,0l-1.95215,3.74219-4.16211.7002c-.36719.0625-.66992.32324-.78516.67773-.11523.35352-.02344.74316.2373,1.00879l2.95508,3.0127ZM46.9834,19.20752c.30859-.05176.5752-.24609.7207-.52344l1.2959-2.48438,1.2959,2.48438c.14551.27734.41211.47168.7207.52344l2.7627.46484-1.96191,2c-.21973.22363-.32129.53711-.27539.84668l.41113,2.77051-2.50781-1.24707c-.14062-.06934-.29297-.10449-.44531-.10449s-.30469.03516-.44531.10449l-2.50781,1.24707.41113-2.77051c.0459-.30957-.05566-.62305-.27539-.84668l-1.96191-2,2.7627-.46484Z"/>
  <path d="M10.40625,22.71729l-.61914,4.1748c-.05469.36816.10059.73633.40137.95508.30176.22168.70215.25293,1.0332.08691l3.77832-1.87891,3.77832,1.87891c.1405.07025.29269.10443.44489.10449.60055.00025,1.07766-.55417.98968-1.14648l-.61914-4.1748,2.95508-3.0127c.26074-.26562.35254-.65527.2373-1.00879-.11523-.35449-.41797-.61523-.78516-.67773l-4.16211-.7002-1.95215-3.74219c-.3457-.66016-1.42773-.66016-1.77344,0l-1.95215,3.74219-4.16211.7002c-.36719.0625-.66992.32324-.78516.67773-.11523.35352-.02344.74316.2373,1.00879l2.95508,3.0127ZM12.9834,19.20752c.30859-.05176.5752-.24609.7207-.52344l1.2959-2.48438,1.2959,2.48438c.14551.27734.41211.47168.7207.52344l2.7627.46484-1.96191,2c-.21973.22363-.32129.53711-.27539.84668l.41113,2.77051-2.50781-1.24707c-.14062-.06934-.29297-.10449-.44531-.10449s-.30469.03516-.44531.10449l-2.50781,1.24707.41113-2.77051c.0459-.30957-.05566-.62305-.27539-.84668l-1.96191-2,2.7627-.46484Z"/>
  <path d="M42.53003,29.30896c-.5-.22998-1.09003-.00995-1.33002.49005-.23004.5-.01001,1.08997.48999,1.32996,2.16998,1,4.12,2.34003,5.83002,3.91003l-4.23999,4.25c-2.77002-2.46002-6.35004-4.03003-10.28003-4.26001v-6.02002c1.71002.08002,3.40997.34003,5.06.79004.62.16998,1.27002-.32001,1.27002-.96002,0-.46997-.32001-.85999-.76001-.96997-2.13-.59003-4.35004-.89001-6.57001-.89001-13.78998,0-25,11.20996-25,25,0,.54999.45001,1,1,1h8c.54999,0,1-.45001,1-1,0-1.57001.23999-3.12.71997-4.60004.17004-.52997-.12-1.08997-.63995-1.25995-.53003-.17004-1.09003.12-1.26001.63995-.44,1.37-.71002,2.78003-.78998,4.22003h-6.01001c.23999-5.59003,2.48999-10.66003,6.03998-14.53003l4.22998,4.23999c-.60999.69-1.16998,1.42004-1.66998,2.21002-.29999.47003-.15997,1.09003.29999,1.38.47003.29999,1.09003.15997,1.38-.29999,2.78003-4.38,7.53003-7,12.70001-7,8.27002,0,15,6.72998,15,15,0,.54999.45001,1,1,1h8c.54999,0,1-.45001,1-1,0-9.69-5.67999-18.58002-14.46997-22.67004ZM31,35.00897c-3.85999.23004-7.46002,1.73999-10.28998,4.26001l-4.24005-4.22998c3.87006-3.54999,8.94-5.79004,14.53003-6.04004v6.01001ZM48.96997,50.979c-.22998-3.94-1.81-7.51001-4.26996-10.28003l4.23999-4.23999c3.59003,3.92999,5.79999,9.06,6.03998,14.52002h-6.01001Z"/>
  <path d="M32.94824,39.6626c-.13575-.4082-.51758-.68359-.94824-.68359h-.00098c-.42969,0-.8125.27637-.94824.68457l-3.14355,9.4588c-.56805.81116-.90723,1.79346-.90723,2.85663,0,2.75684,2.24316,5,5,5s5-2.24316,5-5c0-1.05194-.33008-2.02618-.88721-2.83246l-3.16455-9.48395ZM32.00195,43.14404l1.34961,4.04413c-.43274-.12256-.88013-.20917-1.35156-.20917-.46753,0-.91132.08521-1.34088.20581l1.34283-4.04077ZM32,54.979c-1.6543,0-3-1.3457-3-3s1.3457-3,3-3,3,1.3457,3,3-1.3457,3-3,3Z"/>
</svg>