<?xml version="1.0" encoding="UTF-8"?>
<svg id="Outline" xmlns="http://www.w3.org/2000/svg" version="1.1" viewBox="0 0 64 64">
  <!-- Generator: Adobe Illustrator 29.5.1, SVG Export Plug-In . SVG Version: 2.1.0 Build 141)  -->
  <path d="M41.146,32.787c.245-.266.327-.644.214-.987s-.401-.6-.756-.67l-1.41-.28c-.542-.108-1.068.245-1.176.786-.086.435.124.859.489,1.066l-2.705,2.942c-.197.214-.291.503-.257.792l.455,3.917-3.586-1.641c-.264-.121-.568-.121-.832,0l-3.586,1.641.455-3.917c.034-.289-.06-.578-.257-.792l-2.669-2.903,3.87-.779c.286-.058.532-.237.674-.49l1.928-3.43,1.928,3.43c.143.254.39.433.675.49l.2.04c.544.105,1.069-.243,1.177-.784.088-.442-.129-.874-.506-1.077l-2.603-4.63c-.354-.63-1.39-.63-1.743,0l-2.575,4.581-5.161,1.039c-.354.071-.642.328-.754.671-.111.343-.029.72.215.986l3.56,3.873-.607,5.226c-.042.358.113.712.405.924.292.212.677.25,1.004.101l4.784-2.189s4.784,2.189,4.784,2.189c.696.32,1.499-.261,1.409-1.024l-.607-5.226,3.56-3.873Z"/>
  <path d="M56.951,37.039c-.112-.343-.4-.6-.754-.671l-4.457-.896-2.229-3.961c-.354-.63-1.389-.63-1.743,0l-2.229,3.961-4.457.896c-.354.071-.642.328-.754.671-.111.344-.029.721.215.986l3.079,3.344-.525,4.515c-.042.359.113.712.405.925.293.212.676.25,1.005.1l4.132-1.895,4.132,1.895c.665.305,1.503-.232,1.41-1.025l-.525-4.515,3.079-3.344c.245-.266.327-.643.215-.986ZM51.875,40.352c-.197.214-.291.503-.257.793l.373,3.205-2.933-1.345c-.132-.061-.275-.091-.417-.091s-.285.03-.417.091l-2.933,1.345.373-3.205c.034-.29-.06-.579-.257-.793l-2.186-2.375,3.164-.636c.285-.058.531-.236.674-.49l1.583-2.812,1.583,2.812c.143.254.389.433.674.49l3.164.636-2.186,2.375Z"/>
  <path d="M22.918,36.367l-4.457-.896-2.229-3.961c-.354-.63-1.389-.63-1.743,0l-2.229,3.961-4.457.896c-.354.071-.642.328-.754.671-.111.344-.029.721.215.986l3.079,3.344-.525,4.515c-.042.359.113.712.405.925.292.212.677.25,1.005.1l4.132-1.895,4.132,1.895c.299.137.705.118,1.005-.1.292-.212.447-.566.405-.925l-.525-4.515,3.079-3.344c.245-.266.327-.643.215-.986-.112-.343-.4-.6-.754-.671ZM18.595,40.352c-.197.214-.291.503-.257.793l.373,3.205-2.933-1.345c-.132-.061-.275-.091-.417-.091s-.285.03-.417.091l-2.933,1.345.373-3.205c.034-.29-.06-.579-.257-.793l-2.186-2.375,3.164-.636c.285-.058.531-.236.674-.49l1.583-2.812,1.583,2.812c.143.254.389.433.674.49l3.164.636-2.186,2.375Z"/>
  <path d="M32.874,43.514c-.353-.635-1.396-.635-1.748,0l-5,9c-.172.31-.167.688.012.993.18.305.507.493.862.493h2v2c0,.552.448,1,1,1h4c.552,0,1-.448,1-1v-2h2c.354,0,.682-.188.862-.493.18-.306.185-.683.012-.993l-5-9ZM34,52c-.552,0-1,.448-1,1v2h-2v-2c0-.552-.448-1-1-1h-1.3l3.3-5.941,3.3,5.941h-1.3Z"/>
  <path d="M40,11h-16c-.552,0-1,.448-1,1s.448,1,1,1h16c.552,0,1-.448,1-1s-.448-1-1-1Z"/>
  <path d="M40,15h-16c-.552,0-1,.448-1,1s.448,1,1,1h16c.552,0,1-.448,1-1s-.448-1-1-1Z"/>
  <path d="M22,21h6.697l2.748,1.832c.168.112.361.168.555.168s.387-.056.555-.168l2.748-1.832h6.697c1.654,0,3-1.346,3-3v-8c0-1.654-1.346-3-3-3h-15c-.552,0-1,.448-1,1s.448,1,1,1h15c.551,0,1,.449,1,1v8c0,.551-.449,1-1,1h-7c-.197,0-.391.059-.555.168l-2.445,1.63-2.445-1.63c-.164-.109-.357-.168-.555-.168h-7c-.551,0-1-.449-1-1v-8c0-.551.449-1,1-1h1c.552,0,1-.448,1-1s-.448-1-1-1h-1c-1.654,0-3,1.346-3,3v8c0,1.654,1.346,3,3,3Z"/>
</svg>