<?xml version="1.0" encoding="UTF-8"?>
<svg id="Outline" xmlns="http://www.w3.org/2000/svg" version="1.1" viewBox="0 0 64 64">
  <!-- Generator: Adobe Illustrator 29.5.1, SVG Export Plug-In . SVG Version: 2.1.0 Build 141)  -->
  <path d="M18,31c3.408,0,6.459-1.559,8.479-4h23.521c3.86,0,7-3.141,7-7s-3.14-7-7-7h-23.521c-2.019-2.441-5.07-4-8.479-4-1.917,0-3.729.475-5.382,1.41-.481.271-.65.882-.378,1.362.272.48.882.649,1.363.378,1.35-.764,2.83-1.15,4.398-1.15,4.962,0,9,4.037,9,9s-4.038,9-9,9-9-4.037-9-9c0-2.015.646-3.907,1.869-5.475.34-.436.262-1.064-.173-1.403-.436-.339-1.063-.263-1.404.173-1.478,1.895-2.292,4.276-2.292,6.705,0,6.065,4.935,11,11,11ZM50,15c2.757,0,5,2.243,5,5s-2.243,5-5,5h-22.214c.325-.634.59-1.302.788-2h21.426c1.654,0,3-1.346,3-3s-1.346-3-3-3h-21.426c-.198-.698-.463-1.366-.788-2h22.214ZM50,19c.551,0,1,.448,1,1s-.449,1-1,1h-5.382l1-2h4.382ZM42.382,21h-1.764l1-2h1.764l-1,2ZM38.382,21h-1.764l1-2h1.764l-1,2ZM34.382,21h-1.764l1-2h1.764l-1,2ZM30.382,21h-1.432c.03-.33.051-.662.051-1s-.021-.67-.051-1h2.432l-1,2Z"/>
  <path d="M14.076,21.803l-.32,3.095c-.037.354.118.702.407.911.289.211.667.25.993.105l2.844-1.26,2.844,1.26c.657.291,1.481-.237,1.4-1.017l-.32-3.095,2.078-2.315c.238-.266.317-.638.207-.977-.11-.34-.393-.595-.742-.669l-3.042-.652-1.56-2.691c-.358-.617-1.372-.617-1.73,0l-1.56,2.691-3.042.652c-.349.074-.631.329-.742.669-.11.339-.031.711.207.977l2.078,2.315ZM16.427,19.052c.276-.059.514-.231.656-.476l.917-1.582.917,1.582c.142.244.38.417.656.476l1.788.384-1.221,1.361c-.188.21-.28.49-.25.771l.188,1.819-1.672-.74c-.129-.058-.267-.086-.405-.086s-.276.028-.405.086l-1.672.74.188-1.819c.029-.28-.062-.561-.25-.771l-1.221-1.361,1.788-.384Z"/>
  <path d="M24.208,42.511c-.11-.34-.393-.595-.742-.669l-3.042-.652-1.56-2.691c-.358-.617-1.372-.617-1.73,0l-1.56,2.691-3.042.652c-.349.074-.631.329-.742.669-.11.339-.031.711.207.977l2.078,2.315-.32,3.095c-.037.354.118.702.407.911.289.211.667.25.993.105l2.844-1.26s2.844,1.26,2.844,1.26c.693.307,1.478-.262,1.4-1.017l-.32-3.095,2.078-2.315c.238-.266.317-.638.207-.977ZM20.14,44.797c-.188.21-.28.49-.25.771l.188,1.819-1.672-.74c-.129-.058-.267-.086-.405-.086s-.276.028-.405.086l-1.672.74.188-1.819c.029-.28-.062-.561-.25-.771l-1.221-1.361,1.788-.384c.276-.059.514-.231.656-.476l.917-1.582.917,1.582c.142.244.38.417.656.476l1.788.384-1.221,1.361Z"/>
  <path d="M50,37h-23.521c-2.019-2.441-5.07-4-8.479-4-1.917,0-3.729.475-5.382,1.41-.481.271-.65.882-.378,1.362.272.48.882.649,1.363.378,1.35-.764,2.83-1.15,4.398-1.15,4.962,0,9,4.037,9,9s-4.038,9-9,9-9-4.037-9-9c0-2.015.646-3.907,1.869-5.475.34-.436.262-1.064-.173-1.403-.436-.339-1.063-.263-1.404.173-1.478,1.895-2.292,4.276-2.292,6.705,0,6.065,4.935,11,11,11,3.408,0,6.459-1.559,8.479-4h23.521c3.86,0,7-3.141,7-7s-3.14-7-7-7ZM50,43c.551,0,1,.448,1,1s-.449,1-1,1h-13.382l1-2h12.382ZM34.382,45h-1.764l1-2h1.764l-1,2ZM30.382,45h-1.432c.03-.33.051-.662.051-1s-.021-.67-.051-1h2.432l-1,2ZM50,49h-22.214c.325-.634.59-1.302.788-2h21.426c1.654,0,3-1.346,3-3s-1.346-3-3-3h-21.426c-.198-.698-.463-1.366-.788-2h22.214c2.757,0,5,2.243,5,5s-2.243,5-5,5Z"/>
</svg>