<?xml version="1.0" encoding="UTF-8"?>
<svg id="Outline" xmlns="http://www.w3.org/2000/svg" version="1.1" viewBox="0 0 64 64">
  <!-- Generator: Adobe Illustrator 29.5.1, SVG Export Plug-In . SVG Version: 2.1.0 Build 141)  -->
  <path d="M54,31.981h-18c-1.654,0-3,1.346-3,3v12c0,1.654,1.346,3,3,3h15.764l3.789,1.895c.142.07.294.105.447.105.547,0,1-.452,1-1v-16c0-1.654-1.346-3-3-3ZM43.362,45.124c-.125-.056-.25-.108-.372-.181-1.211-.7-1.963-2.011-1.963-3.42,0-.244.021-.463.068-.7.152-.879.6-1.666,1.247-2.248v2.12c0,.379.214.726.553.895l1.657.828c.281.141.613.141.895,0l1.657-.828c.339-.169.553-.516.553-.895v-2.119c.647.585,1.097,1.379,1.253,2.277.042.207.062.426.062.67,0,1.422-.736,2.704-1.974,3.434-.066.04-.141.065-.214.096l-.19.08c-.361.16-.595.519-.595.914v1.935h-2v-1.924c0-.395-.277-.772-.638-.934ZM55,49.363l-2.553-1.276c-.139-.069-.292-.105-.447-.105h-4v-1.293c.006-.003.013-.007.019-.011,1.85-1.091,2.954-3.018,2.954-5.154,0-.38-.034-.729-.098-1.04-.365-2.111-1.854-3.868-3.885-4.585-.305-.106-.646-.061-.91.127-.266.188-.423.492-.423.816v3.235l-.657.328-.657-.328v-3.235c0-.324-.157-.629-.423-.816-.265-.188-.605-.233-.91-.127-2.031.717-3.52,2.474-3.879,4.555-.069.341-.104.69-.104,1.07,0,2.12,1.135,4.095,2.953,5.146.006.004.013.008.02.012v1.301h-6c-.552,0-1-.448-1-1v-12c0-.552.448-1,1-1h18c.552,0,1,.448,1,1v14.382Z"/>
  <path d="M28,31.981H10c-1.654,0-3,1.346-3,3v16c0,.721.805,1.214,1.447.895l3.789-1.895h15.764c1.654,0,3-1.346,3-3v-12c0-1.654-1.346-3-3-3ZM17.405,45.133l-.19-.08c-.073-.03-.147-.056-.218-.098-1.233-.728-1.97-2.01-1.97-3.432,0-.244.021-.463.068-.7.152-.879.6-1.666,1.247-2.248v2.12c0,.379.214.726.553.895l1.657.828c.281.141.613.141.895,0l1.657-.828c.339-.169.553-.516.553-.895v-2.119c.647.585,1.097,1.379,1.253,2.277.042.207.062.426.062.67,0,1.409-.752,2.72-1.971,3.425-.114.067-.239.12-.41.196-.36.161-.592.519-.592.913v1.924h-2v-1.935c0-.396-.233-.754-.595-.914ZM29,46.981c0,.552-.448,1-1,1h-6v-1.301s.008-.004.012-.007c1.826-1.056,2.961-3.03,2.961-5.15,0-.38-.034-.729-.098-1.04-.365-2.111-1.854-3.868-3.885-4.585-.306-.106-.646-.061-.91.127-.266.188-.423.492-.423.816v3.235l-.657.328-.657-.328v-3.235c0-.324-.157-.629-.423-.816-.265-.188-.604-.233-.91-.127-2.031.717-3.52,2.474-3.879,4.555-.069.341-.104.69-.104,1.07,0,2.137,1.104,4.063,2.95,5.152.007.004.015.009.022.013v1.293h-4c-.155,0-.309.036-.447.105l-2.553,1.276v-14.382c0-.552.448-1,1-1h18c.552,0,1,.448,1,1v12Z"/>
  <path d="M36.549,27.981c.589,0,1.062-.532.993-1.116l-.529-4.517,3.083-3.342c.245-.266.327-.643.216-.986s-.4-.601-.755-.672l-4.459-.893-2.226-3.964c-.354-.631-1.391-.631-1.744,0l-2.226,3.964-4.459.893c-.354.071-.644.328-.755.672s-.029.721.216.986l3.083,3.342-.529,4.517c-.042.358.113.713.405.925.292.213.676.252,1.006.1l4.131-1.898,4.131,1.898c.134.061.276.092.418.092ZM32.418,23.982c-.133-.062-.275-.092-.418-.092s-.285.03-.418.092l-2.931,1.347.376-3.204c.034-.29-.061-.58-.258-.794l-2.188-2.371,3.163-.633c.286-.058.533-.236.676-.491l1.579-2.812,1.579,2.812c.143.255.39.434.676.491l3.163.633-2.188,2.371c-.197.214-.292.504-.258.794l.376,3.204-2.931-1.347Z"/>
  <path d="M38.792,22.491c-.111.345-.029.722.216.987l2.112,2.291-.362,3.096c-.042.359.113.713.405.925.292.214.675.252,1.006.1l2.831-1.301,2.831,1.301c.134.061.276.092.418.092.594,0,1.062-.527.993-1.116l-.362-3.096,2.112-2.291c.245-.266.327-.643.216-.987-.112-.344-.4-.601-.755-.671l-3.056-.611-1.525-2.717c-.354-.631-1.391-.631-1.744,0l-1.525,2.717-3.056.611c-.354.07-.643.327-.755.671ZM43.445,23.08c.286-.057.533-.236.676-.491l.879-1.565.879,1.565c.143.255.39.435.676.491l1.76.353-1.217,1.319c-.197.214-.292.504-.258.794l.209,1.783-1.631-.749c-.133-.062-.275-.092-.418-.092s-.285.03-.418.092l-1.631.749.209-1.783c.034-.29-.061-.58-.258-.794l-1.217-1.319,1.76-.353Z"/>
  <path d="M15.12,25.769l-.362,3.096c-.042.359.113.713.405.925.292.214.675.252,1.006.1l2.831-1.301,2.831,1.301c.134.061.276.092.418.092.594,0,1.062-.528.993-1.116l-.362-3.096,2.112-2.291c.245-.266.327-.643.216-.987-.112-.344-.4-.601-.755-.671l-3.056-.611-1.525-2.717c-.354-.631-1.391-.631-1.744,0l-1.525,2.717-3.056.611c-.354.07-.643.327-.755.671-.111.345-.029.722.216.987l2.112,2.291ZM17.445,23.08c.286-.057.533-.236.676-.491l.879-1.565.879,1.565c.143.255.39.435.676.491l1.76.353-1.217,1.319c-.197.214-.292.504-.258.794l.209,1.783-1.631-.749c-.133-.062-.275-.092-.418-.092s-.285.03-.418.092l-1.631.749.209-1.783c.034-.29-.061-.58-.258-.794l-1.217-1.319,1.76-.353Z"/>
</svg>