<?xml version="1.0" encoding="UTF-8"?>
<svg id="Outline" xmlns="http://www.w3.org/2000/svg" version="1.1" viewBox="0 0 64 64">
  <!-- Generator: Adobe Illustrator 29.3.1, SVG Export Plug-In . SVG Version: 2.1.0 Build 151)  -->
  <path d="M56,42h-6.15002l3.12-12.76001c.07001-.29999.01001-.62-.17999-.85999-.12-.15002-.28998-.23999-.46997-.31.03998-.05005.08002-.10004.12-.15002,3.01001-4.28998,2.89001-9.46997,2.88-9.69-.01001-.32001-.16998-.60999-.42999-.78998s-.59003-.23004-.88-.13c-.16998.04999-3.45001,1.16998-6.29004,3.90997-.75995-3.87-2.81-6.66998-2.91998-6.82001-.38-.5-1.21997-.5-1.59998,0-.10999.15002-2.16003,2.95001-2.91998,6.81-2.84003-2.72998-6.12006-3.84998-6.28003-3.89996-.29999-.10004-.63-.04999-.89001.13s-.41998.46997-.42999.78998c-.01001.22003-.13,5.40002,2.88,9.69.03003.04999.08002.09998.12.15002-.17999.07001-.34998.15997-.46997.31-.19.23999-.25.56-.17999.85999l3.12,12.76001h-7.15002V11c0-.54999-.45001-1-1-1H10c-.54999,0-1,.45001-1,1v31h-1c-.54999,0-1,.45001-1,1v6c0,.54999.45001,1,1,1h2v3c0,.54999.45001,1,1,1h6c.38,0,.72998-.21002.89001-.54999l1.72998-3.45001h24.76001l1.72998,3.45001c.16003.33997.51001.54999.89001.54999h6c.54999,0,1-.45001,1-1v-3h2c.54999,0,1-.45001,1-1v-6c0-.54999-.45001-1-1-1ZM48,24v-.12c1.65997-2.07001,3.83002-3.38,5.23999-4.07001-.17999,1.70001-.73999,4.53998-2.44,6.96997-.28998.42004-.63.83002-1,1.22003h-2.37c.38-1.35999.57001-2.70001.57001-4ZM44,16.89001c.83002,1.5,2,4.14996,2,7.10999,0,1.27997-.22998,2.63-.66998,4h-2.66003c-.44-1.37-.66998-2.72003-.66998-4,0-2.96002,1.16998-5.60999,2-7.10999ZM34.76001,19.81c1.39996.69,3.58002,1.98999,5.23999,4.06v.13c0,1.29999.19,2.64001.57001,4h-2.37c-.37-.39001-.71002-.79999-1-1.22003-1.70001-2.42999-2.26001-5.26996-2.44-6.96997ZM37.27002,30h13.45996l-2.94,12h-7.57996l-2.94-12ZM26,12h3v22h-3V12ZM21,12h3v22h-3V12ZM21,36h8v2h-8v-2ZM21,40h8v2h-8v-2ZM11,12h8v2h-8v-2ZM11,16h8v2h-8v-2ZM19,20v22h-3v-22h3ZM11,20h3v22h-3v-22ZM16.38,52h-4.38v-2h5.38l-1,2ZM52,52h-4.38l-1-2h5.38v2ZM55,48H9v-4h46v4Z"/>
</svg>