<?xml version="1.0" encoding="UTF-8"?>
<svg id="Outline" xmlns="http://www.w3.org/2000/svg" version="1.1" viewBox="0 0 64 64">
  <!-- Generator: Adobe Illustrator 29.0.0, SVG Export Plug-In . SVG Version: 2.1.0 Build 186)  -->
  <path d="M56,33c.54999,0,1-.45001,1-1v-4c0-.54999-.45001-1-1-1h-1.28998l-4.19-12h1.47998c.35999,0,.70001-.20001.87-.52002.17999-.31.16998-.70001-.02002-1.01001l-2.5-4c-.17999-.28998-.50995-.46997-.84998-.46997H14.5c-.34003,0-.66998.17999-.84998.46997l-2.5,4c-.19.31-.20001.70001-.02002,1.01001.16998.32001.51001.52002.87.52002h1.47998l-4.19,12h-1.28998c-.54999,0-1,.45001-1,1v4c0,.54999.45001,1,1,1h2v20h-2c-.54999,0-1,.45001-1,1s.45001,1,1,1h48c.54999,0,1-.45001,1-1s-.45001-1-1-1h-2v-20h2ZM31,53h-5v-8h5v8ZM38,53h-5v-8h5v8ZM52,53h-12v-9c0-.54999-.45001-1-1-1h-14c-.54999,0-1,.45001-1,1v9h-12v-20h40v20ZM9,31v-2h30c.54999,0,1-.45001,1-1s-.45001-1-1-1H11.40997l4.19-12h22.40002c.54999,0,1-.45001,1-1s-.45001-1-1-1H13.79999l1.25-2h33.90002l1.25,2h-8.20001c-.54999,0-1,.45001-1,1s.45001,1,1,1h6.40002l4.19,12h-9.59003c-.54999,0-1,.45001-1,1s.45001,1,1,1h12v2H9Z"/>
  <path d="M25,41h14c.55225,0,1-.44727,1-1v-4c0-.55273-.44775-1-1-1h-14c-.55225,0-1,.44727-1,1v4c0,.55273.44775,1,1,1ZM26,37h12v2h-12v-2Z"/>
  <path d="M43,51h6c.55225,0,1-.44727,1-1v-14c0-.55273-.44775-1-1-1h-6c-.55225,0-1,.44727-1,1v14c0,.55273.44775,1,1,1ZM44,37h4v12h-4v-12Z"/>
  <path d="M15,51h6c.55225,0,1-.44727,1-1v-14c0-.55273-.44775-1-1-1h-6c-.55225,0-1,.44727-1,1v14c0,.55273.44775,1,1,1ZM16,37h4v12h-4v-12Z"/>
  <path d="M47,24v-6c0-.55273-.44775-1-1-1h-28c-.55225,0-1,.44727-1,1v6c0,.55273.44775,1,1,1h28c.55225,0,1-.44727,1-1ZM45,23h-26v-4h26v4Z"/>
</svg>