<?xml version="1.0" encoding="UTF-8"?>
<svg id="Outline" xmlns="http://www.w3.org/2000/svg" version="1.1" viewBox="0 0 64 64">
  <!-- Generator: Adobe Illustrator 29.5.1, SVG Export Plug-In . SVG Version: 2.1.0 Build 141)  -->
  <path d="M21,52c0,.552.447,1,1,1h4c.553,0,1-.448,1-1v-4c0-.552-.447-1-1-1h-4c-.553,0-1,.448-1,1v4ZM23,49h2v2h-2v-2Z"/>
  <path d="M34,47h-4c-.553,0-1,.448-1,1v4c0,.552.447,1,1,1h4c.553,0,1-.448,1-1v-4c0-.552-.447-1-1-1ZM33,51h-2v-2h2v2Z"/>
  <path d="M42,47h-4c-.553,0-1,.448-1,1v4c0,.552.447,1,1,1h4c.553,0,1-.448,1-1v-4c0-.552-.447-1-1-1ZM41,51h-2v-2h2v2Z"/>
  <path d="M21,44c0,.552.447,1,1,1h4c.553,0,1-.448,1-1v-4c0-.552-.447-1-1-1h-4c-.553,0-1,.448-1,1v4ZM23,41h2v2h-2v-2Z"/>
  <path d="M35,40c0-.552-.447-1-1-1h-4c-.553,0-1,.448-1,1v4c0,.552.447,1,1,1h4c.553,0,1-.448,1-1v-4ZM33,43h-2v-2h2v2Z"/>
  <path d="M43,40c0-.552-.447-1-1-1h-4c-.553,0-1,.448-1,1v4c0,.552.447,1,1,1h4c.553,0,1-.448,1-1v-4ZM41,43h-2v-2h2v2Z"/>
  <path d="M44,23h-1v-8.56c1.19-.69,2-1.97,2-3.44,0-2.21-1.79-4-4-4h-16c-2.21,0-4,1.79-4,4v12h-1c-1.65,0-3,1.35-3,3v4c0,.55.45,1,1,1s1-.45,1-1v-4c0-.55.45-1,1-1h24c.55,0,1,.45,1,1v14c0,.55.45,1,1,1s1-.45,1-1v-14c0-1.65-1.35-3-3-3ZM41,23h-18v-12c0-1.1.9-2,2-2s2,.9,2,2-.9,2-2,2c-.55,0-1,.45-1,1s.45,1,1,1h16v8ZM41,13h-12.56c.35-.59.56-1.27.56-2s-.21-1.41-.56-2h12.56c1.1,0,2,.9,2,2s-.9,2-2,2Z"/>
  <path d="M46,43c-.553,0-1,.448-1,1v10c0,.551-.448,1-1,1h-24c-.552,0-1-.449-1-1v-20c0-.552-.447-1-1-1s-1,.448-1,1v20c0,1.654,1.346,3,3,3h24c1.654,0,3-1.346,3-3v-10c0-.552-.447-1-1-1Z"/>
  <path d="M43,28c0-.552-.447-1-1-1h-20c-.553,0-1,.448-1,1v8c0,.552.447,1,1,1h20c.553,0,1-.448,1-1v-8ZM41,35h-18v-6h18v6Z"/>
  <path d="M26,33h12c.553,0,1-.448,1-1s-.447-1-1-1h-12c-.553,0-1,.448-1,1s.447,1,1,1Z"/>
</svg>