<?xml version="1.0" encoding="UTF-8"?>
<svg id="Outline" xmlns="http://www.w3.org/2000/svg" version="1.1" viewBox="0 0 48 48">
  <!-- Generator: Adobe Illustrator 29.5.1, SVG Export Plug-In . SVG Version: 2.1.0 Build 141)  -->
  <path d="M18,15h2c.552,0,1-.447,1-1s-.448-1-1-1h-2c-.552,0-1,.447-1,1s.448,1,1,1Z"/>
  <path d="M18,19h2c.552,0,1-.447,1-1s-.448-1-1-1h-2c-.552,0-1,.447-1,1s.448,1,1,1Z"/>
  <path d="M18,23h2c.552,0,1-.447,1-1s-.448-1-1-1h-2c-.552,0-1,.447-1,1s.448,1,1,1Z"/>
  <path d="M32,21h-8c-.552,0-1,.447-1,1s.448,1,1,1h8c.552,0,1-.447,1-1s-.448-1-1-1Z"/>
  <path d="M32,25h-14c-.552,0-1,.447-1,1v12c0,.553.448,1,1,1h14c.552,0,1-.447,1-1v-12c0-.553-.448-1-1-1ZM31,29h-8v-2h8v2ZM21,27v2h-2v-2h2ZM19,31h2v6h-2v-6ZM23,37v-6h8v6h-8Z"/>
  <path d="M37.445,10.168l-2.318,1.545-.42-.42c-.391-.391-1.023-.391-1.414,0s-.391,1.023,0,1.414l1,1c.193.193.449.293.708.293.192,0,.385-.055.554-.168l3-2c.459-.307.583-.927.277-1.387-.307-.459-.927-.584-1.387-.277Z"/>
  <path d="M36,5c-2.79,0-5.19,1.64-6.31,4h-13.69c-1.65,0-3,1.35-3,3v13h-5c-1.65,0-3,1.35-3,3v14c0,.55.45,1,1,1h28c1.65,0,3-1.35,3-3v-21.08c3.39-.49,6-3.4,6-6.92,0-3.86-3.14-7-7-7ZM7,41v-13c0-.55.45-1,1-1s1,.45,1,1v12c0,.35.07.69.18,1h-2.18ZM13,40c0,.55-.45,1-1,1s-1-.45-1-1v-12c0-.35-.07-.69-.18-1h2.18v13ZM35,40c0,.55-.45,1-1,1H14.82c.11-.31.18-.65.18-1V12c0-.55.45-1,1-1h13.08c-.05.33-.08.66-.08,1s.03.67.08,1h-5.08c-.55,0-1,.45-1,1s.45,1,1,1h5.69c.35.75.83,1.43,1.42,2h-7.11c-.55,0-1,.45-1,1s.45,1,1,1h8c.45,0,.82-.3.94-.71.64.31,1.33.53,2.06.63v21.08ZM36,17c-2.76,0-5-2.24-5-5s2.24-5,5-5,5,2.24,5,5-2.24,5-5,5Z"/>
</svg>