<?xml version="1.0" encoding="UTF-8"?>
<svg id="Outline" xmlns="http://www.w3.org/2000/svg" version="1.1" viewBox="0 0 64 64">
  <!-- Generator: Adobe Illustrator 29.5.1, SVG Export Plug-In . SVG Version: 2.1.0 Build 141)  -->
  <path d="M54,7H10c-1.65,0-3,1.35-3,3v4c0,1.65,1.35,3,3,3h3v39c0,.34.17.65.46.84.28.18.64.21.95.07l4.09-1.82,4.09,1.82c.26.12.56.12.82,0l4.09-1.82,4.09,1.82c.26.12.56.12.82,0l4.09-1.82,4.09,1.82c.26.12.56.12.82,0l4.09-1.82,4.09,1.82c.13.06.27.09.41.09.54,0,1-.45,1-1V17h3c1.65,0,3-1.35,3-3v-4c0-1.65-1.35-3-3-3ZM49,54.46l-3.09-1.37c-.26-.12-.56-.12-.82,0l-4.09,1.82-4.09-1.82c-.13-.06-.27-.09-.41-.09s-.28.03-.41.09l-4.09,1.82-4.09-1.82c-.26-.12-.56-.12-.82,0l-4.09,1.82-4.09-1.82c-.26-.12-.56-.12-.82,0l-3.09,1.37V13h34v41.46ZM55,14c0,.55-.45,1-1,1h-3v-2h1c.55,0,1-.45,1-1s-.45-1-1-1H12c-.55,0-1,.45-1,1s.45,1,1,1h1v2h-3c-.55,0-1-.45-1-1v-4c0-.55.45-1,1-1h44c.55,0,1,.45,1,1v4Z"/>
  <path d="M30,41v-1c0-.404-.243-.769-.617-.924-.374-.155-.804-.07-1.09.217l-4,4c-.391.391-.391,1.023,0,1.414l4,4c.287.287.717.372,1.09.217.374-.155.617-.52.617-.924v-.983c3.134.159,6.058,1.456,8.293,3.69.192.192.448.293.707.293.593,0,1.066-.533.992-1.124-.63-5.04-4.92-8.845-9.992-8.876ZM29.343,45h-.343c-.429,0-.795.27-.937.649l-1.649-1.649,1.649-1.649c.142.379.508.649.937.649h.937c3.022,0,5.705,1.67,7.106,4.18-2.292-1.42-4.938-2.18-7.701-2.18Z"/>
  <path d="M18,17h10c.553,0,1-.448,1-1s-.447-1-1-1h-10c-.553,0-1,.448-1,1s.447,1,1,1Z"/>
  <path d="M29,36c0-.552-.447-1-1-1h-10c-.553,0-1,.448-1,1s.447,1,1,1h10c.553,0,1-.448,1-1Z"/>
  <path d="M18,21h20c.553,0,1-.448,1-1s-.447-1-1-1h-20c-.553,0-1,.448-1,1s.447,1,1,1Z"/>
  <path d="M46,19h-4c-.553,0-1,.448-1,1s.447,1,1,1h4c.553,0,1-.448,1-1s-.447-1-1-1Z"/>
  <path d="M18,25h20c.553,0,1-.448,1-1s-.447-1-1-1h-20c-.553,0-1,.448-1,1s.447,1,1,1Z"/>
  <path d="M46,23h-4c-.553,0-1,.448-1,1s.447,1,1,1h4c.553,0,1-.448,1-1s-.447-1-1-1Z"/>
  <path d="M18,29h20c.553,0,1-.448,1-1s-.447-1-1-1h-20c-.553,0-1,.448-1,1s.447,1,1,1Z"/>
  <path d="M46,27h-4c-.553,0-1,.448-1,1s.447,1,1,1h4c.553,0,1-.448,1-1s-.447-1-1-1Z"/>
  <path d="M18,33h20c.553,0,1-.448,1-1s-.447-1-1-1h-20c-.553,0-1,.448-1,1s.447,1,1,1Z"/>
  <path d="M46,31h-4c-.553,0-1,.448-1,1s.447,1,1,1h4c.553,0,1-.448,1-1s-.447-1-1-1Z"/>
</svg>