<?xml version="1.0" encoding="UTF-8"?>
<svg id="Outline" xmlns="http://www.w3.org/2000/svg" version="1.1" viewBox="0 0 64 64">
  <!-- Generator: Adobe Illustrator 29.5.1, SVG Export Plug-In . SVG Version: 2.1.0 Build 141)  -->
  <path d="M51.999,7H17.999c-1.65,0-3,1.35-3,3v28c0,1.65,1.35,3,3,3h.24l-3.17,2.65-.36-.36c-.35-.35-.91-.39-1.31-.09l-4,3c-.44.33-.53.96-.2,1.4s.96.53,1.4.2l3.31-2.48,7.8,7.81-1.54,2.32c-.31.46-.18,1.08.28,1.38.448.316,1.083.173,1.38-.28l2-3c.27-.39.21-.92-.12-1.26l-.8-.79,4.55-4.54,15.21-1.7c.91-.1,1.72-.58,2.24-1.32.51-.75.69-1.68.47-2.56-.04-.13-.09-.26-.13-.38h6.75c1.65,0,3-1.35,3-3V10c0-1.65-1.35-3-3-3ZM23.999,9h22v9.82l-10.84-1.81c-.05-.01-.11-.01-.16-.01s-.11,0-.16.01l-10.84,1.81v-9.82ZM43.259,42.79c-.19.28-.47.45-.81.49l-15.56,1.73c-.23.02-.44.12-.6.28l-4.79,4.8-5.01-5.02,5.08-4.24,7.61-4.23c.38-.21.86-.14,1.17.16.23.23.32.54.27.85-.05.32-.24.58-.53.72l-1.54.78c-.41.2-.63.67-.52,1.12.1.45.51.77.97.77h13.33c.52,0,.98.36,1.11.86.08.33.02.66-.18.93ZM52.999,38c0,.55-.45,1-1,1h-19.79c.19-.32.33-.68.39-1.07.15-.95-.15-1.89-.84-2.58-.93-.94-2.4-1.14-3.55-.5l-7.47,4.15h-2.74c-.55,0-1-.45-1-1V10c0-.55.45-1,1-1h4v11c0,.29.13.57.35.76.23.19.52.27.81.23l11.84-1.98,11.84,1.98c.05.01.11.01.16.01.519,0,1-.441,1-1v-11h4c.55,0,1,.45,1,1v28Z"/>
  <path d="M48.706,29.293c-.391-.391-1.023-.391-1.414,0l-2,2c-.391.391-.391,1.023,0,1.414s1.023.391,1.414,0l.293-.293v3.586c0,.553.447,1,1,1s1-.447,1-1v-3.586l.293.293c.195.195.451.293.707.293.874,0,1.326-1.089.707-1.707l-2-2Z"/>
  <path d="M40.706,29.293c-.391-.391-1.023-.391-1.414,0l-2,2c-.391.391-.391,1.023,0,1.414s1.023.391,1.414,0l.293-.293v3.586c0,.553.447,1,1,1s1-.447,1-1v-3.586l.293.293c.195.195.451.293.706.293.873,0,1.327-1.088.708-1.707l-2-2Z"/>
</svg>