<?xml version="1.0" encoding="UTF-8"?>
<svg id="Outline" xmlns="http://www.w3.org/2000/svg" version="1.1" viewBox="0 0 64 64">
  <!-- Generator: Adobe Illustrator 29.5.1, SVG Export Plug-In . SVG Version: 2.1.0 Build 141)  -->
  <path d="M52,7H12c-1.65,0-3,1.35-3,3v4c0,1.65,1.35,3,3,3h3v32.56c-1.19.69-2,1.97-2,3.44,0,2.21,1.79,4,4,4h28c2.21,0,4-1.79,4-4V17h3c1.65,0,3-1.35,3-3v-4c0-1.65-1.35-3-3-3ZM41.56,55h-24.56c-1.1,0-2-.9-2-2s.9-2,2-2h24.56c-.35.59-.56,1.27-.56,2s.21,1.41.56,2ZM47,53c0,1.1-.9,2-2,2s-2-.9-2-2,.9-2,2-2c.55,0,1-.45,1-1s-.45-1-1-1h-28V13h30v40ZM53,14c0,.55-.45,1-1,1h-3v-2h1c.55,0,1-.45,1-1s-.45-1-1-1H14c-.55,0-1,.45-1,1s.45,1,1,1h1v2h-3c-.55,0-1-.45-1-1v-4c0-.55.45-1,1-1h40c.55,0,1,.45,1,1v4Z"/>
  <path d="M25,21h14c.552,0,1-.447,1-1v-4c0-.553-.448-1-1-1h-14c-.552,0-1,.447-1,1v4c0,.553.448,1,1,1ZM26,17h12v2h-12v-2Z"/>
  <path d="M20,25h2c.552,0,1-.447,1-1s-.448-1-1-1h-2c-.552,0-1,.447-1,1s.448,1,1,1Z"/>
  <path d="M44,23h-18c-.552,0-1,.447-1,1s.448,1,1,1h18c.552,0,1-.447,1-1s-.448-1-1-1Z"/>
  <path d="M20,29h2c.552,0,1-.447,1-1s-.448-1-1-1h-2c-.552,0-1,.447-1,1s.448,1,1,1Z"/>
  <path d="M44,27h-18c-.552,0-1,.447-1,1s.448,1,1,1h18c.552,0,1-.447,1-1s-.448-1-1-1Z"/>
  <path d="M20,33h2c.552,0,1-.447,1-1s-.448-1-1-1h-2c-.552,0-1,.447-1,1s.448,1,1,1Z"/>
  <path d="M44,31h-18c-.552,0-1,.447-1,1s.448,1,1,1h18c.552,0,1-.447,1-1s-.448-1-1-1Z"/>
  <path d="M21.236,39h2.764c.552,0,1-.447,1-1s-.448-1-1-1h-1v-1c0-.553-.448-1-1-1s-1,.447-1,1v1.024c-1.121.12-2,1.06-2,2.212,0,.852.473,1.617,1.236,2l2.633,1.315c.081.041.131.122.131.212,0,.13-.106.236-.236.236h-2.764c-.552,0-1,.447-1,1s.448,1,1,1h1v1c0,.553.448,1,1,1s1-.447,1-1v-1.024c1.121-.12,2-1.06,2-2.212,0-.852-.473-1.617-1.236-2l-2.633-1.315c-.081-.041-.131-.122-.131-.212,0-.13.106-.236.236-.236Z"/>
  <path d="M44,45h-16c-.552,0-1,.447-1,1s.448,1,1,1h16c.552,0,1-.447,1-1s-.448-1-1-1Z"/>
  <path d="M44,41h-10c-.552,0-1,.447-1,1s.448,1,1,1h10c.552,0,1-.447,1-1s-.448-1-1-1Z"/>
</svg>