<?xml version="1.0" encoding="UTF-8"?>
<svg id="Outline" xmlns="http://www.w3.org/2000/svg" version="1.1" viewBox="0 0 64 64">
  <!-- Generator: Adobe Illustrator 29.5.1, SVG Export Plug-In . SVG Version: 2.1.0 Build 141)  -->
  <path d="M21,22v1c0,5.514,4.486,10,10,10s10-4.486,10-10v-1c0-.553-.448-1-1-1h-18c-.552,0-1,.447-1,1ZM39,23c0,4.411-3.589,8-8,8s-8-3.589-8-8h16Z"/>
  <path d="M31.895,12.447c.247-.494.047-1.095-.447-1.342-.495-.245-1.095-.046-1.342.447l-.368.735c-.571,1.142-.348,2.516.555,3.419.293.293.366.739.181,1.11l-.368.735c-.247.494-.047,1.095.447,1.342.49.244,1.096.044,1.342-.447l.368-.735c.571-1.142.348-2.516-.555-3.419-.293-.293-.366-.739-.181-1.11l.368-.735Z"/>
  <path d="M27.895,12.447c.247-.494.047-1.095-.447-1.342-.496-.245-1.095-.046-1.342.447l-.368.735c-.571,1.142-.348,2.516.555,3.419.293.293.366.739.181,1.11l-.368.735c-.247.494-.047,1.095.447,1.342.462.231,1.093.051,1.342-.447l.368-.735c.571-1.142.348-2.516-.555-3.419-.293-.293-.366-.739-.181-1.11l.368-.735Z"/>
  <path d="M35.895,12.447c.247-.494.047-1.095-.447-1.342-.495-.245-1.095-.046-1.342.447l-.368.735c-.571,1.142-.348,2.516.555,3.419.293.293.366.739.181,1.11l-.368.735c-.247.494-.047,1.095.447,1.342.491.244,1.096.044,1.342-.447l.368-.735c.571-1.142.348-2.516-.555-3.419-.293-.293-.366-.739-.181-1.11l.368-.735Z"/>
  <path d="M57,39c0-4.83-3.44-8.87-8-9.8v-3.2c0-.55-.45-1-1-1s-1,.45-1,1v3c-5.51,0-10,4.49-10,10,0,3.27,1.59,6.17,4.03,8h-15.03c-.55,0-1,.45-1,1s.45,1,1,1h20.52c-.3.97-.46,1.98-.46,3s.16,2.03.46,3H12c-.8,0-1.55-.31-2.12-.87-.57-.58-.88-1.34-.88-2.13,0-1.65,1.35-3,3-3h10c.55,0,1-.45,1-1s-.45-1-1-1h-7V9h32v13c0,.55.45,1,1,1s1-.45,1-1v-1h7c.33,0,.64-.17.83-.44.18-.27.22-.62.1-.93l-1.85-4.63,1.85-4.63c.12-.31.08-.66-.1-.93-.19-.27-.5-.44-.83-.44h-7v-1c0-.55-.45-1-1-1H13c-3.31,0-6,2.69-6,6v39c0,1.32.52,2.58,1.47,3.54.95.94,2.21,1.46,3.53,1.46h36c.35,0,.67-.18.85-.47.18-.3.2-.67.04-.98-.54-1.09-.83-2.32-.83-3.55,0-1.09.24-2.17.67-3.16,4.69-.82,8.27-4.92,8.27-9.84ZM49,11h5.52l-1.45,3.63c-.09.24-.09.5,0,.74l1.45,3.63h-5.52v-8ZM9,13c0-2.21,1.79-4,4-4v38h-1c-1.13,0-2.16.39-3,1.03V13ZM47,47c-4.41,0-8-3.59-8-8s3.59-8,8-8,8,3.59,8,8-3.59,8-8,8Z"/>
  <path d="M48,36.184v-2.184c0-.553-.448-1-1-1s-1,.447-1,1v2.184c-1.161.414-2,1.514-2,2.816,0,.462.113.894.301,1.285l-1.543,1.543c-.391.391-.391,1.023,0,1.414.195.195.451.293.707.293s.512-.098.707-.293l1.543-1.543c.391.187.824.301,1.285.301,1.654,0,3-1.346,3-3,0-1.302-.839-2.402-2-2.816ZM47,40c-.551,0-1-.448-1-1s.449-1,1-1,1,.448,1,1-.449,1-1,1Z"/>
</svg>