<?xml version="1.0" encoding="UTF-8"?>
<svg id="Outline" xmlns="http://www.w3.org/2000/svg" version="1.1" viewBox="0 0 48 48">
  <!-- Generator: Adobe Illustrator 29.5.1, SVG Export Plug-In . SVG Version: 2.1.0 Build 141)  -->
  <path d="M39,5H13c-1.65,0-3,1.35-3,3v1h-1c-1.65,0-3,1.35-3,3s1.35,3,3,3h1v2h-1c-1.65,0-3,1.35-3,3s1.35,3,3,3h1v2.03h-1c-1.65,0-3,1.35-3,3s1.35,3,3,3h1v2h-1c-1.65,0-3,1.35-3,3s1.35,3,3,3h1v.97c0,1.65,1.35,3,3,3h26c1.65,0,3-1.35,3-3V8c0-1.65-1.35-3-3-3ZM10,37.03h-1c-.55,0-1-.45-1-1s.45-1,1-1h1v2ZM10,29.03h-1c-.55,0-1-.45-1-1s.45-1,1-1h1v2ZM10,21h-1c-.55,0-1-.45-1-1s.45-1,1-1h1v2ZM10,13h-1c-.55,0-1-.45-1-1s.45-1,1-1h1v2ZM40,40c0,.55-.45,1-1,1H13c-.55,0-1-.45-1-1V8c0-.55.45-1,1-1h26c.55,0,1,.45,1,1v32Z"/>
  <path d="M37,37H15c-.552,0-1,.447-1,1s.448,1,1,1h22c.552,0,1-.447,1-1s-.448-1-1-1Z"/>
  <path d="M17,33c-.552,0-1,.447-1,1s.448,1,1,1h18c.552,0,1-.447,1-1s-.448-1-1-1h-18Z"/>
  <path d="M16.626,19.025c.828,2.198,1.263,4.506,1.263,6.875v2.433c0,2.05,3.572,2.968,7.111,2.968s7.111-.918,7.111-2.968v-2.433c0-2.369.435-4.678,1.263-6.875,1.542-.579,2.626-1.915,2.626-3.469,0-2.083-1.944-3.778-4.333-3.778-.152,0-.302.013-.452.027-1.216-1.67-3.544-2.804-6.214-2.804s-4.998,1.134-6.214,2.804c-.15-.013-.301-.027-.452-.027-2.39,0-4.333,1.695-4.333,3.778,0,1.554,1.083,2.89,2.626,3.469ZM30.868,20.293c-.491,1.821-.757,3.695-.757,5.608v.273c-1.357-.547-3.236-.807-5.111-.807s-3.754.26-5.111.807v-.273c0-1.912-.266-3.787-.757-5.608.833.439,1.891.707,3.091.707,1.006,0,1.972-.192,2.778-.548.806.355,1.771.548,2.778.548,1.2,0,2.258-.268,3.091-.707ZM25,29.301c-2.761,0-4.469-.6-4.992-.968.523-.367,2.232-.967,4.992-.967s4.469.6,4.992.967c-.523.368-2.231.968-4.992.968ZM17.941,13.809c-.032.209-.053.42-.053.636,0,.553.448,1,1,1s1-.447,1-1c0-1.867,2.341-3.444,5.111-3.444s5.111,1.577,5.111,3.444c0,.553.448,1,1,1s1-.447,1-1c0-.215-.021-.427-.053-.636,1.085.147,1.941.885,1.941,1.747,0,.745-.642,1.396-1.532,1.655-.181-.255-.465-.433-.802-.433-.552,0-1,.447-1,1,0,.431-1.097,1.223-2.889,1.223-.865,0-1.694-.194-2.274-.532-.312-.182-.695-.182-1.007,0-.581.338-1.41.532-2.274.532-1.792,0-2.889-.792-2.889-1.223,0-.553-.448-1-1-1-.339,0-.623.179-.804.436-.881-.256-1.53-.909-1.53-1.658,0-.862.856-1.6,1.941-1.747Z"/>
</svg>