<?xml version="1.0" encoding="UTF-8"?>
<svg id="Outline" xmlns="http://www.w3.org/2000/svg" version="1.1" viewBox="0 0 64 64">
  <!-- Generator: Adobe Illustrator 29.5.1, SVG Export Plug-In . SVG Version: 2.1.0 Build 141)  -->
  <path d="M31,28c0-1.654-1.346-3-3-3s-3,1.346-3,3,1.346,3,3,3,3-1.346,3-3ZM27,28c0-.551.448-1,1-1s1,.449,1,1-.448,1-1,1-1-.449-1-1Z"/>
  <path d="M36,33c-1.654,0-3,1.346-3,3s1.346,3,3,3,3-1.346,3-3-1.346-3-3-3ZM36,37c-.552,0-1-.449-1-1s.448-1,1-1,1,.449,1,1-.448,1-1,1Z"/>
  <path d="M36.707,27.293c-.391-.391-1.023-.391-1.414,0l-8,8c-.391.391-.391,1.023,0,1.414.388.388,1.027.387,1.414,0l8-8c.391-.391.391-1.023,0-1.414Z"/>
  <path d="M32,20c-6.617,0-12,5.383-12,12s5.383,12,12,12,12-5.383,12-12-5.383-12-12-12ZM32,42c-5.514,0-10-4.486-10-10s4.486-10,10-10,10,4.486,10,10-4.486,10-10,10Z"/>
  <path d="M46.536,27.411c-.514-.723-.864-1.568-1.013-2.443-.562-3.321-3.17-5.929-6.49-6.491-.875-.148-1.72-.498-2.443-1.012-2.744-1.951-6.436-1.951-9.18,0-.724.514-1.568.864-2.443,1.012-3.32.562-5.929,3.17-6.49,6.49-.148.875-.499,1.721-1.013,2.444-1.95,2.745-1.95,6.434,0,9.179.514.723.864,1.568,1.013,2.443.562,3.321,3.17,5.929,6.49,6.491.875.148,1.72.498,2.443,1.012,1.372.976,2.981,1.463,4.59,1.463s3.218-.488,4.59-1.463c.724-.514,1.568-.864,2.443-1.012,3.32-.562,5.929-3.17,6.49-6.49.148-.875.499-1.721,1.013-2.444,1.95-2.745,1.95-6.434,0-9.179ZM44.905,35.431c-.687.967-1.155,2.097-1.354,3.268-.419,2.482-2.369,4.432-4.852,4.853-1.17.197-2.3.666-3.268,1.354-2.053,1.458-4.811,1.458-6.863,0-.968-.688-2.098-1.156-3.268-1.354-2.482-.42-4.433-2.371-4.852-4.854-.199-1.17-.668-2.3-1.354-3.267-1.458-2.052-1.458-4.81,0-6.862.687-.967,1.155-2.097,1.354-3.268.419-2.482,2.369-4.432,4.852-4.853,1.17-.197,2.3-.666,3.268-1.354,1.026-.729,2.229-1.094,3.432-1.094s2.405.365,3.432,1.094c.968.688,2.098,1.156,3.268,1.354,2.482.42,4.433,2.371,4.852,4.854.199,1.17.668,2.3,1.354,3.267,1.458,2.052,1.458,4.81,0,6.862Z"/>
  <path d="M57,32c0-13.785-11.215-25-25-25-6.333,0-12.315,2.347-16.955,6.63l-.723-.722c-.261-.261-.642-.356-.997-.25-.353.107-.618.399-.69.761l-.755,3.776c-3.188,4.322-4.88,9.433-4.88,14.805,0,13.785,11.215,25,25,25,6.333,0,12.315-2.347,16.955-6.63l.723.722c.261.261.643.357.997.25.353-.107.618-.399.69-.761l.755-3.776c3.188-4.322,4.88-9.433,4.88-14.805ZM14.583,15.924c.385.191.849.117,1.153-.187,4.354-4.345,10.131-6.738,16.264-6.738,12.683,0,23,10.318,23,23,0,3.721-.883,7.305-2.569,10.548-.23-.19-.531-.275-.828-.215l-1.513.303c1.9-3.217,2.91-6.844,2.91-10.636,0-11.58-9.421-21-21-21-5.577,0-10.824,2.163-14.786,6.092-.046.039-.09.083-.13.132-.326.397-.297.978.066,1.341l.093.093-1.308.261s0,0,0,0l-2.459.492.303-1.513s0-.003.001-.005l.451-2.256c.239.23.275.249.353.287ZM44.531,43.748c-.361.072-.654.338-.761.691-.107.353-.011.736.25.997l.687.686c-3.495,3.153-7.97,4.878-12.707,4.878-10.477,0-19-8.523-19-19,0-4.059,1.27-7.915,3.658-11.185l2.811-.562c.361-.072.654-.338.761-.691.107-.353.011-.736-.25-.997l-.687-.686c3.495-3.153,7.97-4.878,12.707-4.878,10.477,0,19,8.523,19,19,0,4.059-1.27,7.915-3.658,11.185l-2.811.562ZM49.417,48.076c-.386-.191-.85-.118-1.153.187-4.354,4.345-10.131,6.738-16.264,6.738-12.683,0-23-10.318-23-23,0-3.721.883-7.305,2.57-10.548.231.19.531.276.828.215l1.513-.303c-1.9,3.217-2.91,6.844-2.91,10.636,0,11.58,9.421,21,21,21,5.577,0,10.824-2.163,14.786-6.092.046-.039.09-.083.13-.132.326-.397.297-.978-.066-1.341l-.093-.093,1.308-.261s.001,0,.002,0l2.458-.492-.303,1.513s0,.003-.001.005l-.451,2.256c-.239-.23-.275-.249-.353-.287Z"/>
</svg>