<?xml version="1.0" encoding="UTF-8"?>
<svg id="Outline" xmlns="http://www.w3.org/2000/svg" version="1.1" viewBox="0 0 64 64">
  <!-- Generator: Adobe Illustrator 29.5.1, SVG Export Plug-In . SVG Version: 2.1.0 Build 141)  -->
  <path d="M54,7H10c-1.654,0-3,1.346-3,3v44c0,1.654,1.346,3,3,3h44c1.654,0,3-1.346,3-3V10c0-1.654-1.346-3-3-3ZM10,9h44c.551,0,1,.448,1,1v3h-6.586l-1.707-1.707c-.188-.188-.442-.293-.707-.293H9v-1c0-.552.449-1,1-1ZM54,55H10c-.551,0-1-.448-1-1V13h36.586l1.707,1.707c.188.188.442.293.707.293h7v39c0,.552-.449,1-1,1Z"/>
  <path d="M25,37h14c.283,0,.552-.119.741-.329.19-.209.282-.489.254-.771l-1-10c-.051-.511-.481-.9-.995-.9h-2c0-2.206-1.794-4-4-4s-4,1.794-4,4h-2c-.514,0-.944.39-.995.9l-1,10c-.028.281.064.562.254.771.189.21.458.329.741.329ZM32,23c1.103,0,2,.897,2,2h-4c0-1.103.897-2,2-2ZM26.905,27h1.095v1c0,.553.448,1,1,1s1-.447,1-1v-1h4v1c0,.553.448,1,1,1s1-.447,1-1v-1h1.095l.8,8h-11.79l.8-8Z"/>
  <path d="M23,41h18c1.654,0,3-1.346,3-3v-15.556c1.19-.694,2-1.97,2-3.444,0-2.206-1.794-4-4-4-1.474,0-2.75.81-3.444,2h-15.556c-1.654,0-3,1.346-3,3v18c0,1.654,1.346,3,3,3ZM42,17c1.103,0,2,.897,2,2s-.897,2-2,2-2-.897-2-2,.897-2,2-2ZM22,20c0-.552.449-1,1-1h15c0,2.206,1.794,4,4,4v15c0,.552-.449,1-1,1h-18c-.551,0-1-.448-1-1v-18Z"/>
  <path d="M52,43H12c-.552,0-1,.447-1,1v8c0,.553.448,1,1,1h40c.552,0,1-.447,1-1v-8c0-.553-.448-1-1-1ZM51,51H13v-6h38v6Z"/>
</svg>