<?xml version="1.0" encoding="UTF-8"?>
<svg id="Outline" xmlns="http://www.w3.org/2000/svg" version="1.1" viewBox="0 0 64 64">
  <!-- Generator: Adobe Illustrator 29.5.1, SVG Export Plug-In . SVG Version: 2.1.0 Build 141)  -->
  <path d="M57,32c0-13.785-11.215-25-25-25-6.333,0-12.316,2.348-16.957,6.631-.328-.329-.786-.787-1.428-1.43-.287-.286-.716-.373-1.09-.217-.374.154-.617.52-.617.924v4.24c-3.205,4.33-4.908,9.453-4.908,14.852,0,13.785,11.215,25,25,25,6.333,0,12.316-2.348,16.957-6.631.328.329.786.787,1.428,1.43.286.286.715.372,1.09.217.374-.154.617-.52.617-.924v-4.24c3.205-4.33,4.908-9.453,4.908-14.852ZM13.908,15.322c.23.23.394.395.41.411.188.188.442.296.708.296.286.025.521-.104.709-.291,4.355-4.346,10.132-6.738,16.264-6.738,12.682,0,23,10.317,23,23,0,3.967-1.006,7.77-2.908,11.171v-.565c0-.553-.448-1-1-1h-2.716c1.715-2.903,2.624-6.185,2.624-9.606,0-10.477-8.523-19-19-19-5.067,0-9.839,1.975-13.436,5.562-.338.337-.389.868-.124,1.266.037.055.079.105.125.152l.414.414h-5.071v-5.071ZM41.899,43.313l1.396,1.396c-3.122,2.774-7.095,4.291-11.295,4.291-9.374,0-17-7.626-17-17,0-3.467,1.042-6.773,2.998-9.606h3.395c.404,0,.769-.244.924-.617.155-.374.069-.804-.217-1.09l-1.396-1.396c3.122-2.774,7.095-4.291,11.295-4.291,9.374,0,17,7.626,17,17,0,3.467-1.042,6.773-2.998,9.606h-3.395c-.404,0-.769.244-.924.617-.155.374-.069.804.217,1.09ZM50.092,48.678c-.23-.23-.394-.395-.41-.411-.188-.188-.442-.296-.708-.296h-.003c-.265,0-.519.104-.707.291-4.355,4.346-10.132,6.738-16.264,6.738-12.682,0-23-10.317-23-23,0-3.967,1.006-7.77,2.908-11.171v.565c0,.553.448,1,1,1h2.716c-1.715,2.903-2.624,6.185-2.624,9.606,0,10.477,8.523,19,19,19,5.067,0,9.839-1.975,13.436-5.562.338-.337.389-.868.124-1.266-.037-.055-.079-.105-.125-.152l-.414-.414h5.071v5.071Z"/>
  <path d="M40.526,22.149c-.294-.184-.664-.198-.973-.044l-3.553,1.776-3.553-1.776c-.281-.141-.613-.141-.895,0l-3.553,1.776-3.553-1.776c-.31-.154-.678-.14-.973.044-.294.183-.474.504-.474.851v18c0,.347.18.668.474.851.295.183.664.198.973.044l3.553-1.776,3.553,1.776c.281.141.613.141.895,0l3.553-1.776s3.553,1.776,3.553,1.776c.31.154.679.139.973-.044.294-.183.474-.504.474-.851v-18c0-.347-.18-.668-.474-.851ZM39,39.382l-2.553-1.276c-.281-.141-.613-.141-.895,0l-3.553,1.776-3.553-1.776c-.141-.07-.294-.105-.447-.105s-.307.035-.447.105l-2.553,1.276v-14.764l2.553,1.276c.281.141.613.141.895,0l3.553-1.776,3.553,1.776c.281.141.613.141.895,0l2.553-1.276v14.764Z"/>
  <path d="M31.236,30h2.764c.552,0,1-.447,1-1s-.448-1-1-1h-1v-1c0-.553-.448-1-1-1s-1,.447-1,1v1.024c-1.121.12-2,1.06-2,2.212,0,.852.473,1.617,1.236,2l2.633,1.315c.081.041.131.122.131.212,0,.13-.106.236-.236.236h-2.764c-.552,0-1,.447-1,1s.448,1,1,1h1v1c0,.553.448,1,1,1s1-.447,1-1v-1.024c1.121-.12,2-1.06,2-2.212,0-.852-.473-1.617-1.236-2l-2.633-1.315c-.081-.041-.131-.122-.131-.212,0-.13.106-.236.236-.236Z"/>
</svg>