<?xml version="1.0" encoding="UTF-8"?>
<svg id="Outline" xmlns="http://www.w3.org/2000/svg" version="1.1" viewBox="0 0 64 64">
  <!-- Generator: Adobe Illustrator 29.5.1, SVG Export Plug-In . SVG Version: 2.1.0 Build 141)  -->
  <path d="M52,27c0-11.028-8.972-20-20-20S12,15.972,12,27c0,6.065,2.723,11.497,7,15.168v13.832c0,.294.129.573.354.763.225.189.522.271.811.223l11.835-1.973,11.835,1.973c.055.009.11.014.164.014.541,0,1.001-.462,1.001-1v-13.832c4.277-3.671,7-9.103,7-15.168ZM39,43.583v-4.477c2.115-1.228,3.878-2.99,5.106-5.106h4.477c-1.824,4.305-5.278,7.759-9.583,9.583ZM32,45c-1.736,0-3.41-.26-5-.721v-4.218c1.555.598,3.237.939,5,.939s3.445-.341,5-.939v4.218c-1.59.461-3.264.721-5,.721ZM14,27c0-1.736.26-3.41.721-5h4.218c-.598,1.555-.939,3.237-.939,5s.341,3.445.939,5h-4.218c-.461-1.59-.721-3.264-.721-5ZM20,27c0-6.617,5.383-12,12-12s12,5.383,12,12-5.383,12-12,12-12-5.383-12-12ZM50,27c0,1.736-.26,3.41-.721,5h-4.218c.598-1.555.939-3.237.939-5s-.341-3.445-.939-5h4.218c.461,1.59.721,3.264.721,5ZM48.583,20h-4.477c-1.228-2.115-2.99-3.878-5.106-5.106v-4.477c4.305,1.824,7.759,5.278,9.583,9.583ZM37,9.721v4.218c-1.555-.598-3.237-.939-5-.939s-3.445.341-5,.939v-4.218c1.59-.461,3.264-.721,5-.721s3.41.26,5,.721ZM25,10.417v4.477c-2.115,1.228-3.878,2.99-5.106,5.106h-4.477c1.824-4.305,5.278-7.759,9.583-9.583ZM15.417,34h4.477c1.228,2.115,2.99,3.878,5.106,5.106v4.477c-4.305-1.824-7.759-5.278-9.583-9.583ZM31,46.949v2.204l-10,1.667v-7.134c2.896,1.916,6.32,3.08,10,3.264ZM21,52.847l10-1.667v1.973l-10,1.666v-1.972ZM33,53.153v-1.973l10,1.667v1.972l-10-1.666ZM43,50.82l-10-1.667v-2.204c3.68-.183,7.104-1.348,10-3.264v7.134Z"/>
  <path d="M27.578,23.268c.481.274,1.091.107,1.364-.372l1.81-3.169c.261-.455.729-.727,1.252-.727s.992.272,1.252.726l1.681,2.945-.491-.151c-.526-.164-1.087.133-1.25.662-.163.528.134,1.087.662,1.25,0,0,2.889.889,2.89.889.484.15,1.015-.097,1.214-.565l1.148-2.704c.216-.508-.021-1.095-.53-1.311-.508-.215-1.095.021-1.311.53l-.38.895c-.022-.088-.039-.178-.086-.261l-1.811-3.171c-.622-1.085-1.739-1.733-2.988-1.733s-2.366.647-2.988,1.734l-1.81,3.17c-.274.48-.107,1.091.372,1.364Z"/>
  <path d="M26.444,33.61h2.56c.552,0,1-.448,1-1s-.448-1-1-1h-2.56c-.516,0-.979-.268-1.238-.716-.261-.45-.262-.987-.001-1.441l.515-.908.137.435c.376,1.191,2.3.64,1.907-.603l-.833-2.639c-.15-.474-.618-.765-1.118-.685l-3,.5c-.544.091-.913.606-.822,1.151.091.544.602.911,1.151.822l.946-.158-.62,1.093c-.617,1.075-.614,2.359.008,3.434.622,1.073,1.731,1.714,2.969,1.714Z"/>
  <path d="M38.421,26.75c-.48.272-.649.882-.377,1.363l.763,1.345c.258.449.256.986-.004,1.436-.26.448-.723.716-1.238.716h-1.851l.302-.279c.406-.375.431-1.007.057-1.413-.374-.405-1.006-.43-1.413-.057l-2.296,2.12c-.204.188-.32.452-.322.729s.112.542.313.732l2.046,1.935c.379.358,1.029.367,1.414-.04.379-.401.362-1.034-.04-1.414l-.333-.314h2.122c1.238,0,2.348-.641,2.969-1.714.622-1.075.625-2.359.01-3.429l-.759-1.34c-.273-.48-.883-.648-1.363-.376Z"/>
</svg>