<?xml version="1.0" encoding="UTF-8"?>
<svg id="Outline" xmlns="http://www.w3.org/2000/svg" version="1.1" viewBox="0 0 64 64">
  <!-- Generator: Adobe Illustrator 29.0.0, SVG Export Plug-In . SVG Version: 2.1.0 Build 186)  -->
  <path d="M32.00443,15.0026c-9.37402,0-17,7.62598-17,17s7.62598,17,17,17,17-7.62598,17-17-7.62598-17-17-17ZM32.00443,17.0026c2.09583,0,4.09082.43518,5.90424,1.21484l1.32037,3.9541c.04004.12012.00586.21582-.02979.27441-.0293.0498-.09863.13477-.2334.15723l-5.3457.89355c-1.12939.1875-1.94922,1.1543-1.94922,2.29883v1.08008c0,1.14453.81982,2.1123,1.94775,2.2998l1.94873.32715c.13867.02344.24707.13184.27051.27246l.40137,2.38281c.01807.10645-.0166.21191-.09521.29102l-3.54004,3.54004c-.13672.1377-.27979.11328-.37646.06641-.09668-.0459-.20801-.1416-.18799-.34082l.21387-2.15137c.08154-.86719-.31348-1.7002-1.02832-2.17285l-2.55127-1.69922c-.1167-.07812-.17188-.22461-.14014-.35449l.26074-1.02539c.19678-.78809-.03857-1.63672-.61621-2.21582l-.88672-.88672c-.62695-.62695-1.54102-.8418-2.38232-.56152l-.44141.14746c-.1167.03809-.24902.00781-.33643-.0791l-.95947-.95898c-.50928-.50977-1.23926-.75879-1.93896-.66602l-1.3974.17578c2.72559-3.78552,7.15851-6.26367,12.16888-6.26367ZM18.02426,37.39731l1.27655-1.27655c.07373-.07422.18018-.11816.28369-.11816h3.18994c.26953,0,.52881-.04102.7666-.12207l1.62744-.54199c.19141-.06641.38965.01367.48438.20703l.30713.60449c.03076.06152.04443.11719.04443.18262v1.57031c0,1.10254.74512,2.06348,1.82031,2.33984l2.30566.56934c.1167.0293.21582.10742.27344.22461.41064.80566,1.25488,1.32617,2.15039,1.32617.4668,0,.92529-.1416,1.32178-.40625l1.34961-.89355c.05811-.04004.12842-.06055.20898-.06055h1.98975c.10352,0,.20996.04395.2832.11719l1.28906,1.28906c.05566.05566.09082.12207.10791.21191l.46674,2.31171c-2.22461,1.30707-4.80542,2.07013-7.56683,2.07013-6.3678,0-11.80743-3.99512-13.98016-9.60529ZM41.36356,43.70548l-.29614-1.46655c-.08789-.47168-.31445-.90137-.65576-1.24316l-1.29053-1.29102c-.44727-.44629-1.06592-.70215-1.69678-.70215h-1.98975c-.49023,0-.95752.14551-1.33203.40625l-1.33398.88281c-.09326.06152-.17432.07129-.21436.07129-.12402,0-.28613-.07227-.36084-.21777-.30859-.63477-.88281-1.09863-1.5791-1.27344l-2.30127-.56836c-.18164-.04688-.30859-.21094-.30859-.40039v-1.57031c0-.37598-.08594-.73828-.2583-1.08301l-.30469-.59863c-.5293-1.07617-1.7832-1.59668-2.91357-1.20703l-1.62305.54102c-.02246.00781-.06055.01758-.13037.01758h-3.18994c-.63086,0-1.24951.25586-1.69727.70312l-.52393.52411c-.22931-1.04083-.35889-2.11847-.35889-3.22723,0-2.35321.55988-4.57288,1.52972-6.55688l2.95465-.37183c.09668-.00879.19873.02539.26855.0957l.95996.95996c.62744.62695,1.54053.8418,2.38232.5625l.44141-.14746c.11719-.03809.25-.00879.33643.07812l.88574.88574c.08545.08594.11914.2041.0918.31348l-.26221,1.03027c-.23193.95312.15723,1.95801.9707,2.50195l2.55615,1.70215c.1001.06641.15479.18848.14307.31445l-.21338,2.14453c-.10059.99707.41797,1.91895,1.3208,2.34668.3252.1543.66797.22949,1.00684.22949.60107,0,1.18945-.23633,1.64111-.68848l3.54004-3.54004c.53613-.53613.77979-1.2998.65283-2.04004l-.40039-2.37793c-.16357-.9834-.93359-1.75293-1.91406-1.91504l-1.94824-.32715c-.15527-.02637-.27734-.16992-.27734-.32715v-1.08008c0-.15723.12207-.2998.27832-.32617l5.34521-.89355c.67529-.11133,1.26514-.51172,1.61768-1.09668.35205-.58398.43018-1.29102.21436-1.93945l-.63074-1.88928c3.92657,2.7077,6.50867,7.23193,6.50867,12.35217,0,4.73181-2.2077,8.95172-5.64087,11.70288Z"/>
  <path d="M32.2974,12.70963c.36249.36247,1.02881.38526,1.41406,0,.39062-.39062.39062-1.02344,0-1.41406l-.24084-.24084c.54834.0401,1.09503.09686,1.62903.17737,8.20605,1.20312,14.93799,7.15625,17.15088,15.16699.12252.44323.52467.73323.963.7334.65077.00025,1.13803-.63905.96473-1.2666-2.42383-8.77344-9.79883-15.29492-18.78418-16.6123-.65936-.099-1.33685-.16858-2.01611-.21045l.3335-.3335c.39062-.39062.39062-1.02344,0-1.41406s-1.02344-.39062-1.41406,0l-2,2c-.39062.39062-.39062,1.02344,0,1.41406,0,0,1.99383,1.99383,2,2Z"/>
  <path d="M10.71146,33.70963l2-2c.39062-.39062.39062-1.02344,0-1.41406s-1.02344-.39062-1.41406,0l-.23877.23877c.03821-.54773.0946-1.09131.17529-1.62549,1.21338-8.20996,7.1665-14.94238,15.1665-17.15234.53271-.14746.84473-.69824.69775-1.23047-.14746-.53223-.69873-.8457-1.22998-.69727-8.76318,2.4209-15.28369,9.79492-16.6123,18.78418-.1004.66406-.16077,1.34277-.20111,2.02594l-.34332-.34332c-.39062-.39062-1.02344-.39062-1.41406,0s-.39062,1.02344,0,1.41406l2,2c.19531.19531.45117.29297.70703.29297s.51172-.09766.70703-.29297Z"/>
  <path d="M56.71146,32.29557l-2-2c-.39062-.39062-1.02344-.39062-1.41406,0l-2,2c-.39062.39062-.39062,1.02344,0,1.41406s1.02344.39062,1.41406,0l.23877-.23877c-.03821.54773-.0946,1.09131-.17529,1.62549-1.21337,8.20988-7.16639,14.94225-15.16627,17.15228-1.08334.29928-.87309,1.96393.26539,1.96393.08789,0,.17773-.01172.2666-.03613,8.76318-2.4209,15.28369-9.79492,16.6123-18.78418.1004-.66406.16077-1.34277.20111-2.02594l.34332.34332c.19521.19521.4509.29287.70663.29297.87411.00035,1.32125-1.0932.70743-1.70703Z"/>
  <path d="M33.83609,53.48319c-.03967-.06372-.06927-.13226-.12463-.18762l-2-2c-.39062-.39062-1.02344-.39062-1.41406,0s-.39062,1.02344,0,1.41406l.24084.24084c-.54822-.0401-1.09454-.09686-1.62805-.17737-8.20898-1.21289-14.94189-7.16602-17.15186-15.16699-.14746-.53223-.69971-.84375-1.22998-.69727-.53271.14746-.84473.69824-.69775,1.23047,2.4209,8.7627,9.79541,15.28418,18.78418,16.6123.66412.09979,1.34283.16022,2.026.20056l-.34338.34338c-.39061.39061-.39062,1.0234-.00004,1.41403.37266.3727,1.01952.39462,1.4141.00004l2-2c.3186-.3186.3631-.79218.16199-1.17017-.01007-.02075-.02588-.03644-.03735-.05627Z"/>
</svg>