<?xml version="1.0" encoding="UTF-8"?>
<svg id="Outline" xmlns="http://www.w3.org/2000/svg" version="1.1" viewBox="0 0 64 64">
  <!-- Generator: Adobe Illustrator 29.5.1, SVG Export Plug-In . SVG Version: 2.1.0 Build 141)  -->
  <path d="M56.99,19.96c0-.1-.02-.2-.06-.3-.01-.03-.01-.05-.02-.07-.01-.01-.01-.03-.02-.04l-4-8c-.16-.34-.51-.55-.89-.55h-2.38l-1.73-3.45c-.16-.34-.51-.55-.89-.55h-19c-.55,0-1,.45-1,1s.45,1,1,1h18.38l1,2h-30.76l1-2h2.38c.55,0,1-.45,1-1s-.45-1-1-1h-3c-.38,0-.73.21-.89.55l-1.73,3.45h-2.38c-.38,0-.73.21-.89.55l-4,8c-.01.01-.01.03-.02.04-.01.02-.01.04-.02.07-.04.1-.06.2-.06.3,0,.01-.01.03-.01.04v4c0,.55.45,1,1,1h2.13l3.88,27.14c.07.49.49.86.99.86h2v3c0,.55.45,1,1,1h4c.38,0,.73-.21.89-.55l1.73-3.45h14.76l1.73,3.45c.16.34.51.55.89.55h4c.55,0,1-.45,1-1v-3h2c.5,0,.92-.37.99-.86l3.88-27.14h2.13c.55,0,1-.45,1-1v-4c0-.01-.01-.03-.01-.04ZM12.62,13h38.76l3,6H9.62l3-6ZM21.38,55h-2.38v-2h3.38l-1,2ZM45,55h-2.38l-1-2h3.38v2ZM48.13,51H15.87l-3.72-26h39.7l-3.72,26ZM55,23H9v-2h46v2Z"/>
  <path d="M27.209,46.675c-.24.497-.032,1.095.465,1.335,1.359.657,2.814.99,4.325.99,2.077,0,4.058-.627,5.72-1.808.847-.588,1.577-1.307,2.195-2.11l.146.544c.12.447.523.742.965.742.647,0,1.135-.632.967-1.259,0,0-.732-2.732-.732-2.733-.135-.505-.575-.732-1.063-.718-.054.005-.108-.004-.161.011l-2.732.732c-.534.143-.85.691-.707,1.225.143.533.692.85,1.225.707l.158-.042c-.417.469-.881.899-1.408,1.265-2.3,1.634-5.449,1.899-8.026.655-.498-.241-1.096-.033-1.335.465Z"/>
  <path d="M30.187,30.547c.036.053.059.113.106.16l2,2c.375.375,1.022.392,1.414,0,.391-.391.391-1.023,0-1.414l-.11-.11c.622.124,1.23.305,1.79.573,2.612,1.219,4.369,3.759,4.586,6.629.04.525.478.925.996.925.025,0,.051,0,.076-.003.551-.042.963-.521.922-1.072-.271-3.589-2.468-6.766-5.726-8.287-.908-.435-1.916-.702-2.94-.836l.406-.406c.391-.391.391-1.023,0-1.414s-1.023-.391-1.414,0l-2,2c-.339.339-.343.844-.106,1.254Z"/>
  <path d="M21.715,44.6l2.732.732c.506.137,1.089-.197,1.225-.707,0,0,.045-.169.047-.175l.685-2.557c.143-.533-.173-1.082-.707-1.225-.532-.144-1.082.174-1.225.707l-.043.16c-.199-.6-.342-1.224-.396-1.871-.026-.221-.033-.443-.033-.664,0-2.647,1.302-5.112,3.482-6.593.457-.31.576-.932.265-1.389-.31-.457-.931-.575-1.389-.265-2.729,1.854-4.358,4.937-4.358,8.247,0,.298.012.597.043.863.085,1.023.344,2.013.731,2.95l-.542-.145c-.533-.145-1.082.174-1.225.707s.173,1.082.707,1.225Z"/>
  <circle cx="24" cy="8" r="1"/>
</svg>