<?xml version="1.0" encoding="UTF-8"?>
<svg id="Outline" xmlns="http://www.w3.org/2000/svg" version="1.1" viewBox="0 0 64 64">
  <!-- Generator: Adobe Illustrator 29.0.0, SVG Export Plug-In . SVG Version: 2.1.0 Build 186)  -->
  <path d="M52.58447,7.18896c-.26123-.18896-.59717-.23877-.90088-.1377l-5.65234,1.88428-4.65967-1.86426c-.23926-.09473-.50391-.09473-.74316,0l-4.58301,1.8335-3.59814-1.79932c-.28125-.14062-.61328-.14062-.89453,0l-3.59814,1.79932-4.58301-1.8335c-.23926-.09473-.50391-.09473-.74316,0l-4.65967,1.86426-5.65234-1.88428c-.30615-.10107-.64014-.05127-.90088.1377-.26123.18799-.41553.48975-.41553.81104v11c0,.55225.44775,1,1,1s1-.44775,1-1v-9.61279l4.68359,1.56152c.2251.07422.46875.06689.68799-.02002l4.62842-1.85156,4.62842,1.85156c.26611.10498.56299.09375.81885-.03418l3.55273-1.77637,3.55273,1.77637c.25586.12793.55371.13916.81885.03418l4.62842-1.85156,4.62842,1.85156c.21973.08691.46289.09473.68799.02002l4.68359-1.56152v31.61279H13v-14c0-.55225-.44775-1-1-1s-1,.44775-1,1v29c0,.55225.44775,1,1,1h40c.55225,0,1-.44775,1-1V8c0-.32129-.1543-.62305-.41553-.81104ZM44.58594,48h-25.17188l-5-5h35.17188l-5,5ZM13,44.41406l4.58594,4.58594-4.58594,4.58594v-9.17188ZM19.41406,50h25.17188l5,5H14.41406l5-5ZM46.41406,49l4.58594-4.58594v9.17188l-4.58594-4.58594Z"/>
  <path d="M32.29297,21.70703c.37868.37866,1.03738.37669,1.41406,0,.39062-.39062.39062-1.02344,0-1.41406l-.06458-.06458c.51837.14685,1.0155.36243,1.47668.64514,1.39258.8501,2.36084,2.18945,2.72656,3.77148.10645.4624.51807.77539.97314.7749.07471,0,.15039-.0083.22607-.02588.53809-.12402.87354-.66113.74902-1.19922-.4873-2.11035-1.77783-3.896-3.63135-5.02734-.87622-.53723-1.85107-.88538-2.86493-1.05109l.40936-.40936c.39062-.39062.39062-1.02344,0-1.41406s-1.02344-.39062-1.41406,0l-2,2c-.39062.39062-.39062,1.02344,0,1.41406,0,0,1.9925,1.9925,2,2Z"/>
  <path d="M27.96436,20.21143c-.37646-.40625-1.00928-.43066-1.41309-.05566-1.56689,1.44873-2.49658,3.51123-2.55127,5.68408v.16016c0,.98431.18982,1.92981.52808,2.81897l-.56372-.151c-.53125-.14355-1.08203.17432-1.22461.70703-.14307.5332.17334,1.08154.70703,1.22461l2.73241.73242c.50498.13536,1.08192-.17188,1.22462-.70703l.73193-2.73242c.14307-.53369-.17383-1.08203-.70703-1.22461-.53662-.14648-1.08203.17383-1.22461.70703l-.01379.05145c-.11316-.46204-.19031-.93555-.19031-1.42645l-.00049-.13477c.0415-1.63477.71973-3.14062,1.90918-4.24072.40576-.375.43066-1.00781.05566-1.41309Z"/>
  <path d="M35.8418,33.02588c.90546-.49792,1.68567-1.18048,2.33331-1.97357l.1535.57269c.11963.44678.52393.7417.96544.7417.6472-.00007,1.13425-.63233.9662-1.25928l-.73242-2.73242c-.06836-.25635-.23633-.47461-.46582-.60742-.23047-.13232-.50488-.16895-.75879-.09961l-2.73193.73242c-.53369.14307-.8501.69141-.70703,1.22461.14258.5332.69189.85352,1.22461.70703l.04932-.01324c-.37872.36511-.79022.69635-1.25342.95123-1.41455.76318-3.06152.94043-4.64014.47168-.53223-.15918-1.08643.14404-1.24316.67383-.15723.52979.14453,1.08643.67383,1.24316.76318.22656,1.54492.34131,2.32471.34131,1.35254,0,2.64307-.32666,3.8418-.97412Z"/>
  <path d="M45,26c0-7.16846-5.83154-13-13-13s-13,5.83154-13,13,5.83154,13,13,13,13-5.83154,13-13ZM21,26c0-6.06543,4.93457-11,11-11s11,4.93457,11,11-4.93457,11-11,11-11-4.93457-11-11Z"/>
  <circle cx="12" cy="23" r="1"/>
</svg>