<?xml version="1.0" encoding="UTF-8"?>
<svg id="Outline" xmlns="http://www.w3.org/2000/svg" version="1.1" viewBox="0 0 64 64">
  <!-- Generator: Adobe Illustrator 29.0.0, SVG Export Plug-In . SVG Version: 2.1.0 Build 186)  -->
  <path d="M32,12.85197c-1.98633,0-3.89502.43359-5.67334,1.28857-.49805.23926-.70752.83691-.46826,1.33447.23975.49951.83936.70752,1.33447.46826,1.50586-.72412,3.12354-1.09131,4.80713-1.09131,6.06543,0,11,4.93457,11,11s-4.93457,11-11,11-11-4.93457-11-11c0-1.68359.36719-3.30127,1.09131-4.80713.23926-.49756.02979-1.09521-.46826-1.33447-.49561-.23682-1.09424-.03027-1.33447.46826-.85498,1.77832-1.28857,3.68701-1.28857,5.67334,0,7.16846,5.83154,13,13,13s13-5.83154,13-13-5.83154-13-13-13Z"/>
  <path d="M56.81104,51.25969l-3.79834-4.07062,2.14795-.35028c.36523-.05908.66748-.31543.78613-.66553.11914-.3501.03467-.7373-.21875-1.00684l-9.34479-9.92786c.92328-1.14178,1.99084-2.1723,3.20465-3.05408.35059-.25488.49707-.70605.36328-1.11816-1.1084-3.41113-1.1084-7.01758,0-10.42871.13379-.41211-.0127-.86328-.36328-1.11816-2.90234-2.1084-5.02197-5.02637-6.13037-8.4375-.13379-.41211-.51807-.69092-.95117-.69092-3.58691,0-7.0166-1.11475-9.91846-3.22314-.35059-.25488-.8252-.25488-1.17578,0-2.90186,2.1084-6.33154,3.22314-9.91846,3.22314-.43311,0-.81738.27881-.95117.69092-1.1084,3.41113-3.22803,6.3291-6.13037,8.4375-.35059.25488-.49707.70605-.36328,1.11816,1.1084,3.41113,1.1084,7.01758,0,10.42871-.13379.41211.0127.86328.36328,1.11816,1.21381.88177,2.28137,1.91229,3.20465,3.05408l-9.34479,9.92786c-.25342.26953-.33789.65674-.21875,1.00684.11865.3501.4209.60645.78613.66553l2.14795.35028-3.79834,4.07062c-.25195.26953-.33447.65625-.21533,1.00537s.4209.604.78516.66357l2.8916.47266.67626,2.86081c.17785.75236,1.1779,1.01641,1.7046.45218l13.61755-14.59766c1.69067.54236,3.29492,1.35254,4.76331,2.41943.17529.12744.38184.19092.58789.19092s.4126-.06348.58789-.19092c1.46838-1.06689,3.07263-1.87708,4.76331-2.41943l13.61751,14.59761c.53484.57334,1.52501.30666,1.70463-.4521l.67627-2.86084,2.8916-.47266c.36426-.05957.66602-.31445.78516-.66357s.03662-.73584-.21533-1.00537ZM52.98242,45.1674l-1.70312.27783c-.39893.06494-.71973.36328-.8125.75684l-.40234,1.70166-6.69513-7.10931c.03149-.05627.06775-.10938.0882-.17242.43018-1.32379,1.0166-2.57056,1.73798-3.72729l7.78693,8.27271ZM18.8045,36.8947c.72137,1.15674,1.3078,2.4035,1.73798,3.72729.02045.06305.0567.11615.0882.17242l-6.69513,7.10931-.40234-1.70166c-.09277-.39355-.41357-.69189-.8125-.75684l-1.70312-.27783,7.78693-8.27271ZM12.84326,53.98381l-.3999-1.69189c-.09277-.39307-.41309-.69189-.81201-.75684l-1.7041-.27881,2.19092-2.34814.29883,1.26366c.17998.76108,1.16623,1.02464,1.70117.45558l8.72156-9.26141c.53235.04187,1.05811.1167,1.58002.20782l-11.57648,12.41003ZM32,42.50725c-2.91895-1.95947-6.27637-3.05029-9.78955-3.18115-1.20996-3.30078-3.28467-6.15674-6.05029-8.32764.96094-3.38135.96094-6.91162,0-10.29297,2.76562-2.1709,4.84033-5.02686,6.05029-8.32764,3.51318-.13086,6.87061-1.22168,9.78955-3.18115,2.91895,1.95947,6.27637,3.05029,9.78955,3.18115,1.20996,3.30078,3.28467,6.15674,6.05029,8.32764-.96094,3.38135-.96094,6.91162,0,10.29297-2.76562,2.1709-4.84033,5.02686-6.05029,8.32764-3.51318.13086-6.87061,1.22168-9.78955,3.18115ZM52.36865,51.53508c-.39893.06494-.71924.36377-.81201.75684l-.3999,1.69189-11.57648-12.41003c.52191-.09113,1.04767-.16595,1.58002-.20782l8.72156,9.26141c.53723.57048,1.52168.30599,1.70117-.45556l.29883-1.26367,2.19092,2.34814-1.7041.27881Z"/>
  <path d="M24.78494,30.08807c.0002.77494.28676,1.54947.85813,2.12084,1.13281,1.13281,3.10938,1.13281,4.24219,0l2.11475-2.11475,2.11474,2.11474c1.15028,1.15028,3.09573,1.14639,4.24213.00007,1.1489-1.14883,1.14367-3.09865.00006-4.24225l-2.11475-2.11475,2.11474-2.11474c1.15242-1.15242,1.14918-3.09301,0-4.24219-1.13281-1.13281-3.10938-1.13281-4.24219,0l-2.11475,2.11475-2.11475-2.11475c-1.1328-1.1328-3.10933-1.13281-4.24215-.00004-1.15691,1.15686-1.15571,3.08656-.00004,4.24223l2.11475,2.11475-2.11474,2.11474c-.5728.5728-.85833,1.34728-.85813,2.12135ZM27.05713,29.38078l2.82178-2.82178c.39062-.39062.39062-1.02344,0-1.41406l-2.82178-2.82178c-.38965-.38965-.38965-1.02441,0-1.41406s1.02441-.38965,1.41406,0l2.82178,2.82178c.39062.39062,1.02344.39062,1.41406,0l2.82178-2.82178c.38965-.38965,1.02441-.38965,1.41406,0s.38965,1.02441,0,1.41406l-2.82178,2.82178c-.39062.39062-.39062,1.02344,0,1.41406l2.82178,2.82178c.38965.38965.38965,1.02441,0,1.41406s-1.02441.38965-1.41406,0l-2.82178-2.82178c-.19531-.19531-.45117-.29297-.70703-.29297s-.51172.09766-.70703.29297l-2.82178,2.82178c-.38965.38965-1.02441.38965-1.41406,0s-.38965-1.02441,0-1.41406Z"/>
  <path d="M24.2218,18.07378c.39056-.3905.39056-1.02368,0-1.41418-.3905-.39056-1.02368-.39056-1.41418,0-.3905.3905-.3905,1.02368,0,1.41418s1.02368.3905,1.41418,0Z"/>
</svg>