<?xml version="1.0" encoding="UTF-8"?>
<svg id="Outline" xmlns="http://www.w3.org/2000/svg" version="1.1" viewBox="0 0 48 48">
  <!-- Generator: Adobe Illustrator 29.5.1, SVG Export Plug-In . SVG Version: 2.1.0 Build 141)  -->
  <path d="M42.39,11.05c.43-.65.61-1.39.61-2.08,0-1.84-1.31-4-5-4-2.03,0-4.61.69-6,2h-2c-1.39-1.31-3.97-2-6-2-3.69,0-5,2.16-5,4,0,.69.18,1.43.61,2.08-.36.15-.61.51-.61.92v4.03c0,.55.45,1,1,1h1l.01,7c0,1.66,1.35,3,3,3l13.99-.01c1.66,0,3-1.35,3-3v-6.99h1c.55,0,1-.45,1-1v-4.03c0-.41-.25-.77-.61-.92ZM29,9.97c0-.55.45-1,1-1h2c.55,0,1,.45,1,1v1h-4v-1ZM24,6.97c1.45,0,2.89.41,3.85.92-.52.54-.85,1.27-.85,2.08v1h-3c-1.12,0-3-.26-3-2s1.88-2,3-2ZM27,25h-2.99c-.55,0-1-.45-1-1l-.01-7h4v8ZM33,24.99h-4v-7.99h4v7.99ZM39,23.99c0,.55-.45,1-1,1h-3v-7.99h4v6.99ZM41,15h-20v-2.03h20v2.03ZM38,10.97h-3v-1c0-.81-.33-1.54-.85-2.08.96-.51,2.4-.92,3.85-.92,1.12,0,3,.26,3,2s-1.88,2-3,2Z"/>
  <path d="M16.455,33.338l-1.641-.517-.999-1.401c-.375-.527-1.254-.527-1.629,0l-.999,1.401-1.641.517c-.309.098-.551.338-.651.645-.1.308-.045.645.147.904l1.024,1.384-.016,1.721c-.003.323.15.628.412.817.262.19.599.243.906.14l1.632-.547,1.632.547c.104.035.211.052.318.052.548,0,1.005-.463,1-1.009l-.016-1.721,1.024-1.384c.192-.26.247-.597.147-.904-.1-.307-.342-.547-.651-.645ZM14.127,35.35c-.129.175-.198.387-.196.604l.006.652-.619-.207c-.103-.034-.21-.052-.318-.052s-.215.018-.318.052l-.619.207.006-.652c.002-.217-.067-.429-.196-.604l-.389-.525.623-.195c.208-.065.388-.196.514-.374l.379-.531.379.531c.126.178.307.309.514.374l.623.195-.389.525Z"/>
  <path d="M13,27c-4.411,0-8,3.589-8,8s3.589,8,8,8,8-3.589,8-8-3.589-8-8-8ZM13,41c-3.309,0-6-2.691-6-6s2.691-6,6-6,6,2.691,6,6-2.691,6-6,6Z"/>
  <path d="M12.293,24.707c.195.195.451.293.707.293s.512-.098.707-.293l2-2c.391-.391.391-1.023,0-1.414s-1.023-.391-1.414,0l-.246.246c.224-1.435,1.457-2.539,2.953-2.539.552,0,1-.447,1-1s-.448-1-1-1c-2.628,0-4.766,2.045-4.962,4.624l-.331-.331c-.391-.391-1.023-.391-1.414,0s-.391,1.023,0,1.414l2,2Z"/>
</svg>