<?xml version="1.0" encoding="UTF-8"?>
<svg id="Outline" xmlns="http://www.w3.org/2000/svg" version="1.1" viewBox="0 0 48 48">
  <!-- Generator: Adobe Illustrator 29.5.1, SVG Export Plug-In . SVG Version: 2.1.0 Build 141)  -->
  <path d="M39.98,37.415c.01-.14.02-.27.02-.41,0-2.76-2.24-5-5-5-.89,0-1.74.24-2.5.69-1.16-.69-2.55-.87-3.85-.5-.61-1.57-1.99-2.74-3.65-3.08v-.85l2.74.63c.76.17,1.52.26,2.28.26,1.9,0,3.76-.54,5.4-1.6,2.29-1.48,3.84-3.77,4.38-6.44l1.18-5.91c.08-.41-.09-.82-.44-1.04-.34-.22-.79-.21-1.12.03l-5.13,3.66c-.97.69-2.21.98-3.4.79-2.23-.37-4.41.42-5.89,2.04v-3.68c.09.01.18.01.28.01,1.83,0,5.11-.33,7.25-2.47,3.04-3.05,2.43-8.38,2.4-8.61-.05-.46-.41-.82-.87-.87-.22-.03-5.56-.64-8.6,2.4-.64.64-1.1,1.37-1.46,2.14-.36-.77-.82-1.5-1.46-2.14-3.04-3.04-8.38-2.43-8.6-2.4-.46.05-.82.41-.87.87-.03.23-.64,5.56,2.4,8.61,2.14,2.14,5.42,2.47,7.25,2.47.1,0,.19,0,.28-.01v3.68c-1.48-1.62-3.67-2.41-5.89-2.04-1.19.19-2.43-.09-3.4-.79l-5.13-3.66c-.33-.24-.78-.25-1.12-.03-.35.22-.52.63-.44,1.04l1.18,5.91c.54,2.67,2.09,4.96,4.38,6.44,1.64,1.06,3.5,1.6,5.4,1.6.76,0,1.52-.09,2.28-.26l2.74-.63v.85c-1.66.34-3.04,1.51-3.65,3.08-1.3-.37-2.69-.19-3.85.5-.76-.45-1.61-.69-2.5-.69-2.76,0-5,2.24-5,5,0,.14.01.27.02.41-1.8.78-3.02,2.58-3.02,4.59,0,.55.45,1,1,1h36c.55,0,1-.45,1-1,0-2.01-1.22-3.81-3.02-4.59ZM26.87,8.885c1.74-1.74,4.69-1.91,6.13-1.88.03,1.43-.15,4.38-1.89,6.12-1.73,1.73-4.67,1.91-6.1,1.88.01-.26.01-.57-.01-.91.08-1.55.44-3.78,1.87-5.21ZM25,24.285l.91-1.52c.97-1.62,2.79-2.46,4.66-2.15,1.72.29,3.46-.12,4.88-1.13l3.07-2.2-.68,3.44c-.43,2.13-1.68,3.96-3.51,5.15-1.83,1.18-4.01,1.56-6.14,1.07l-3.19-.74v-1.92ZM22.99,15.005c-1.44.03-4.37-.15-6.1-1.88-1.74-1.74-1.92-4.69-1.89-6.12,1.43-.04,4.39.14,6.13,1.88,1.43,1.43,1.79,3.66,1.87,5.21-.02.34-.02.65-.01.91ZM19.81,26.945c-2.13.49-4.31.11-6.14-1.07-1.83-1.19-3.08-3.02-3.51-5.15l-.68-3.44,3.07,2.2c1.42,1.01,3.16,1.42,4.88,1.13,1.86-.31,3.69.53,4.66,2.15l.91,1.52v1.92l-3.19.74ZM7.17,41.005c.35-.96,1.17-1.71,2.21-1.93.27-.06.5-.23.65-.46.14-.24.18-.53.1-.79-.09-.32-.13-.58-.13-.82,0-1.65,1.35-3,3-3,.67,0,1.32.23,1.87.68.37.29.89.29,1.26,0,.98-.8,2.3-.9,3.4-.24.29.17.65.18.96.03.3-.15.51-.45.55-.79.16-1.53,1.43-2.68,2.96-2.68s2.8,1.15,2.96,2.68c.04.34.25.64.55.79.3.15.67.14.96-.03,1.1-.66,2.42-.56,3.4.24.37.29.89.29,1.26,0,.55-.45,1.2-.68,1.87-.68,1.65,0,3,1.35,3,3,0,.24-.04.5-.13.82-.08.26-.04.55.1.79.15.23.38.4.65.46,1.04.22,1.86.97,2.21,1.93H7.17Z"/>
</svg>