<?xml version="1.0" encoding="UTF-8"?>
<svg id="Outline" xmlns="http://www.w3.org/2000/svg" version="1.1" viewBox="0 0 48 48">
  <!-- Generator: Adobe Illustrator 29.5.1, SVG Export Plug-In . SVG Version: 2.1.0 Build 141)  -->
  <path d="M38,5H10c-1.65,0-3,1.35-3,3v28c0,1.65,1.35,3,3,3v1c0,1.65,1.35,3,3,3h22c1.65,0,3-1.35,3-3v-1c1.65,0,3-1.35,3-3V8c0-1.65-1.35-3-3-3ZM10,37c-.55,0-1-.45-1-1V8c0-.55.45-1,1-1h13v30h-13ZM36,40c0,.55-.45,1-1,1H13c-.55,0-1-.45-1-1v-1h24v1ZM39,36c0,.55-.45,1-1,1h-13V7h13c.55,0,1,.45,1,1v28Z"/>
  <path d="M36,9h-8c-.553,0-1,.448-1,1v10c0,.552.447,1,1,1h8c.553,0,1-.448,1-1v-10c0-.552-.447-1-1-1ZM35,11v4h-6v-4h6ZM29,19v-2h6v2h-6Z"/>
  <path d="M12,35c.553,0,1-.448,1-1v-2c0-.552-.447-1-1-1s-1,.448-1,1v2c0,.552.447,1,1,1Z"/>
  <path d="M16,35c.553,0,1-.448,1-1v-2c0-.552-.447-1-1-1s-1,.448-1,1v2c0,.552.447,1,1,1Z"/>
  <path d="M20,35c.553,0,1-.448,1-1v-2c0-.552-.447-1-1-1s-1,.448-1,1v2c0,.552.447,1,1,1Z"/>
  <path d="M36,31c-.553,0-1,.448-1,1v2c0,.552.447,1,1,1s1-.448,1-1v-2c0-.552-.447-1-1-1Z"/>
  <path d="M32,31c-.553,0-1,.448-1,1v2c0,.552.447,1,1,1s1-.448,1-1v-2c0-.552-.447-1-1-1Z"/>
  <path d="M28,31c-.553,0-1,.448-1,1v2c0,.552.447,1,1,1s1-.448,1-1v-2c0-.552-.447-1-1-1Z"/>
</svg>