<?xml version="1.0" encoding="UTF-8"?>
<svg id="Outline" xmlns="http://www.w3.org/2000/svg" version="1.1" viewBox="0 0 64 64">
  <!-- Generator: Adobe Illustrator 29.5.1, SVG Export Plug-In . SVG Version: 2.1.0 Build 141)  -->
  <path d="M32.764,34h-2.764c-.552,0-1,.448-1,1s.448,1,1,1h1v1c0,.552.448,1,1,1s1-.448,1-1v-1.024c1.121-.12,2-1.06,2-2.212,0-.852-.474-1.619-1.236-2l-2.633-1.316c-.08-.04-.131-.123-.131-.212,0-.13.106-.236.236-.236h2.764c.552,0,1-.448,1-1s-.448-1-1-1h-1v-1c0-.552-.448-1-1-1s-1,.448-1,1v1.024c-1.121.12-2,1.06-2,2.212,0,.852.474,1.619,1.236,2l2.633,1.316c.08.04.131.123.131.212,0,.13-.106.236-.236.236Z"/>
  <path d="M51.108,15.886c-.234-.278-.601-.407-.96-.335l-2.344.469c-.331.066-.606.295-.732.609l-1.749,4.372h-2.909l2.293-2.293c.188-.188.293-.442.293-.707v-3.434l1.734-1.041c.287-.172.468-.476.484-.81.016-.334-.137-.654-.406-.853-4.318-3.182-9.441-4.863-14.813-4.863-13.785,0-25,11.215-25,25s11.215,25,25,25,25-11.215,25-25c0-5.89-2.092-11.613-5.892-16.114ZM24.018,25.34h-2.328v-2.328c.367.165.814.097,1.116-.204,2.882-2.873,6.861-4.22,10.925-3.697,2,.259,3.908,1.003,5.585,2.158l-.023.023c-.286.286-.372.716-.217,1.09.155.374.52.617.924.617h1.348c1.996,2.072,3.268,4.733,3.577,7.547.405,3.752-.748,7.351-3.246,10.133-2.464,2.745-5.993,4.319-9.68,4.319-6.434,0-11.834-4.607-12.842-10.953-.084-.532.328-1.047.872-1.047.555,0,1.02.207,1.124.813.892,5.387,5.652,9.337,11.165,9.186,5.725-.165,10.516-4.956,10.681-10.683.08-3.001-1.029-5.838-3.123-7.988-2.09-2.146-4.888-3.329-7.876-3.329-2.937,0-5.699,1.145-7.777,3.223-.302.302-.371.749-.206,1.117ZM40.752,19.834c-2.007-1.457-4.327-2.39-6.764-2.706-4.349-.562-8.615.741-11.864,3.582l-.727-.727c-.287-.287-.716-.373-1.09-.217-.374.155-.617.52-.617.924v5.65c0,.552.448,1,1,1h5.65c.404,0,.769-.244.924-.617.155-.374.069-.804-.217-1.09l-.664-.664c1.59-1.276,3.551-1.969,5.617-1.969,2.444,0,4.733.967,6.444,2.724,1.714,1.76,2.622,4.083,2.557,6.537-.135,4.684-4.055,8.604-8.738,8.739-4.521.11-8.406-3.107-9.137-7.519-.245-1.438-1.446-2.482-2.856-2.482,0,0-.24,0-.24,0-.834,0-1.641.374-2.183,1.007-.555.648-.797,1.503-.665,2.35,1.163,7.326,7.395,12.643,14.818,12.643,4.254,0,8.325-1.816,11.168-4.983,2.882-3.21,4.212-7.359,3.746-11.686-.292-2.655-1.324-5.188-2.94-7.331h2.026c.409,0,.776-.249.929-.628l.552-1.381c2.279,3.2,3.519,7.05,3.519,11.01,0,10.477-8.523,19-19,19s-19-8.523-19-19,8.523-19,19-19c3.987,0,7.775,1.225,11,3.523v1.062l-2.248,2.248ZM32,55c-12.682,0-23-10.318-23-23s10.318-23,23-23c4.432,0,8.678,1.244,12.372,3.611l-.887.532c-.301.181-.485.506-.485.857v.117c-3.3-2.04-7.064-3.117-11-3.117-11.58,0-21,9.42-21,21s9.42,21,21,21,21-9.42,21-21c0-4.796-1.661-9.436-4.661-13.155l.388-.97,1.226-.245c3.259,4.068,5.047,9.148,5.047,14.371,0,12.682-10.318,23-23,23Z"/>
</svg>