<?xml version="1.0" encoding="UTF-8"?>
<svg id="Outline" xmlns="http://www.w3.org/2000/svg" version="1.1" viewBox="0 0 48 48">
  <!-- Generator: Adobe Illustrator 29.5.1, SVG Export Plug-In . SVG Version: 2.1.0 Build 141)  -->
  <path d="M37.89,35.42l-7.05-1.28-.74-3.53c1.55-1.44,2.6-3.4,2.84-5.61h.06c.88,0,1.71-.39,2.29-1.06.57-.67.81-1.56.67-2.44-.01-.07-.04-.13-.05-.2.67-.56,1.09-1.39,1.09-2.3,0-.53-.14-1.05-.41-1.5.27-.45.41-.97.41-1.5,0-.24-.03-.47-.08-.7.67-.56,1.08-1.39,1.08-2.3,0-1.35-.9-2.5-2.13-2.87-.39-1.28-1.63-2.21-3.04-2.13-.41-1.16-1.52-2-2.83-2-.24,0-.47.03-.7.08-.55-.67-1.39-1.08-2.3-1.08-.53,0-1.05.14-1.5.41-.91-.53-2.09-.53-3,0-.45-.27-.97-.41-1.5-.41-.91,0-1.75.41-2.3,1.08-.23-.05-.46-.08-.7-.08-1.31,0-2.42.84-2.83,2-1.4-.08-2.65.85-3.04,2.13-1.23.37-2.13,1.52-2.13,2.87,0,.91.41,1.74,1.08,2.3-.05.23-.08.46-.08.7,0,.53.14,1.05.41,1.5-.27.45-.41.97-.41,1.5,0,.91.42,1.74,1.09,2.3-.01.07-.04.13-.05.2-.14.88.1,1.77.67,2.44.58.67,1.41,1.06,2.29,1.06h.06c.24,2.21,1.29,4.17,2.84,5.61l-.74,3.53-7.05,1.28c-2.38.43-4.11,2.5-4.11,4.92v1.66c0,.55.45,1,1,1h34c.55,0,1-.45,1-1v-1.66c0-2.42-1.73-4.49-4.11-4.92ZM13,19c0-.38.22-.63.35-.75.22-.19.34-.46.34-.75s-.12-.56-.34-.75c-.13-.12-.35-.37-.35-.75,0-.2.06-.4.18-.57.16-.26.21-.58.11-.87-.1-.29-.33-.52-.62-.62-.4-.14-.67-.52-.67-.94,0-.55.45-1,1-1s1-.45,1-1c0-.73.85-1.25,1.52-.85.32.2.73.19,1.05-.02.32-.21.5-.58.45-.96,0-.01-.02-.16-.02-.17,0-.55.45-1,1-1,.2,0,.4.06.57.18.26.17.58.21.87.11.3-.1.52-.33.63-.62.13-.4.51-.67.93-.67.38,0,.63.22.75.35.38.43,1.12.43,1.5,0,.12-.13.37-.35.75-.35s.63.22.75.35c.38.43,1.12.43,1.5,0,.12-.13.37-.35.75-.35.42,0,.8.27.93.67.11.29.33.52.63.62.29.1.61.06.87-.11.17-.12.37-.18.57-.18.55,0,1,.45,1,.99l-.02.18c-.05.38.13.75.45.96.32.21.73.21,1.05.02.67-.4,1.52.12,1.52.85,0,.55.45,1,1,1s1,.45,1,1c0,.42-.27.8-.67.94-.29.1-.52.33-.62.62-.1.29-.05.61.11.87.12.17.18.37.18.57,0,.38-.22.63-.35.75-.22.19-.34.46-.34.75s.12.56.34.75c.13.12.35.37.35.75,0,.23-.09.45-.23.62-.53-.38-1.18-.62-1.88-.62h-1.17l-.28-.84c-.21-.64-.7-1.17-1.33-1.43s-1.34-.23-1.95.07c-.1.05-.22.05-.32,0l-.79-.39c-.66-.33-1.44-.33-2.1,0l-.79.39c-.1.05-.22.05-.32,0l-.79-.39c-.66-.33-1.44-.33-2.1,0l-.79.39c-.1.05-.22.05-.32,0-.61-.3-1.32-.33-1.95-.07s-1.12.79-1.33,1.43l-.28.84h-1.17c-.7,0-1.35.24-1.88.62-.14-.17-.23-.39-.23-.62ZM17,24c0-.55-.45-1-1-1h-1c-.29,0-.57-.13-.76-.35-.2-.23-.28-.52-.23-.83.08-.46.56-.82,1.1-.82h1.89c.43,0,.81-.28.95-.68l.51-1.52c.04-.14.14-.2.2-.22.05-.02.16-.05.29.01.66.33,1.44.33,2.1,0l.79-.39c.1-.05.22-.05.32,0l.79.39c.66.33,1.44.33,2.1,0l.79-.39c.1-.05.22-.05.32,0l.79.39c.66.33,1.44.33,2.1,0,.13-.06.24-.03.29-.01.06.02.16.08.2.22l.51,1.52c.14.4.52.68.95.68h1.89c.4,0,.77.2.96.5h.01c.06.1.11.21.13.32.05.31-.03.6-.23.83-.19.22-.47.35-.76.35h-1c-.55,0-1,.45-1,1,0,3.86-3.14,7-7,7s-7-3.14-7-7ZM28.9,34.6c-2.94,1.94-6.86,1.94-9.8,0l.58-2.72c1.28.71,2.75,1.12,4.32,1.12s3.04-.41,4.32-1.12l.58,2.72ZM40,41H8v-.66c0-1.45,1.04-2.69,2.46-2.95l7.25-1.32c1.86,1.32,4.07,1.98,6.29,1.98s4.43-.66,6.29-1.98l7.25,1.32c1.42.26,2.46,1.5,2.46,2.95v.66Z"/>
</svg>