<?xml version="1.0" encoding="UTF-8"?>
<svg id="Outline" xmlns="http://www.w3.org/2000/svg" version="1.1" viewBox="0 0 64 64">
  <!-- Generator: Adobe Illustrator 29.5.1, SVG Export Plug-In . SVG Version: 2.1.0 Build 141)  -->
  <path d="M49.971,34.602c1.22-.33,2.241-.859,3.007-1.625,3.085-3.095,1.735-9.162,1.677-9.419-.086-.374-.377-.665-.751-.751-.257-.06-6.326-1.41-9.41,1.688-1.318,1.317-1.823,3.158-1.974,4.821-.935-.433-1.9-.811-2.893-1.128.627-3.025,2.831-5.509,5.771-6.488,4.365-1.459,7.842-4.936,9.301-9.302l1.15-3.45c.093-.277.06-.582-.092-.833-.151-.25-.404-.422-.693-.47l-3.801-.63c-.454-.082-.911.176-1.089.607l-1.173,2.873c-.608,1.833-1.849,3.432-3.47,4.506-1.004-2.194-1.531-4.594-1.531-7,0-.553-.447-1-1-1h-4c-.553,0-1,.447-1,1,0,3.354.722,6.588,2.147,9.628-3.316,2.147-5.633,5.537-6.416,9.438-.573-.039-1.149-.066-1.731-.066s-1.159.027-1.731.066c-.782-3.899-3.099-7.291-6.416-9.438,1.426-3.04,2.147-6.274,2.147-9.628,0-.553-.447-1-1-1h-4c-.553,0-1,.447-1,1,0,2.405-.527,4.806-1.531,7-1.621-1.076-2.864-2.683-3.493-4.569l-1.149-2.81c-.178-.432-.636-.69-1.089-.607l-3.801.63c-.289.048-.542.22-.693.47-.151.251-.185.556-.092.833l1.15,3.451c1.459,4.365,4.936,7.842,9.302,9.301,2.938.979,5.14,3.461,5.77,6.488-.993.317-1.958.695-2.892,1.128-.151-1.664-.656-3.504-1.973-4.82-3.086-3.1-9.155-1.749-9.411-1.688-.374.086-.665.377-.751.751-.059.257-1.408,6.324,1.678,9.42.765.765,1.786,1.294,3.006,1.624-4.347,4.473-7.029,10.554-7.029,17.249,0,1.433.13,2.889.386,4.325.085.478.5.825.984.825h0c.484,0,.899-.349.983-.826,1.935-10.937,11.459-18.874,22.646-18.874,3.143,0,6.184.616,9.038,1.83.507.217,1.096-.021,1.312-.528.217-.508-.021-1.096-.528-1.312-3.104-1.32-6.408-1.99-9.821-1.99-10.168,0-19.071,6.036-22.945,14.969.82-11.865,10.798-21.269,22.945-21.269s22.148,9.427,22.948,21.311c-1.409-3.236-3.508-6.174-6.158-8.563-.411-.369-1.041-.338-1.413.073-.369.411-.337,1.043.073,1.413,3.766,3.394,6.32,7.989,7.195,12.94.084.478.499.826.983.826h0c.484,0,.899-.348.984-.825.256-1.437.386-2.893.386-4.325,0-6.695-2.682-12.776-7.029-17.249ZM19.237,19.803c-3.773-1.261-6.778-4.266-8.039-8.038l-.779-2.339,1.858-.308.823,2.008c.879,2.646,2.824,4.894,5.337,6.167.484.25,1.078.059,1.334-.42,1.3-2.431,2.054-5.133,2.201-7.872h2.004c-.142,2.983-.919,5.854-2.314,8.55-.248.479-.071,1.069.399,1.333,3.186,1.783,5.432,4.838,6.2,8.396-.664.099-1.317.231-1.963.381-.806-3.665-3.488-6.667-7.061-7.858ZM15.837,32.915c-1.5-.161-2.653-.606-3.398-1.351-1.82-1.826-1.485-5.456-1.259-6.923,1.469-.227,5.095-.56,6.913,1.267,1.123,1.122,1.417,2.928,1.439,4.417-1.311.753-2.548,1.62-3.696,2.59ZM41.938,18.884c.471-.264.647-.854.399-1.333-1.396-2.695-2.173-5.566-2.314-8.55h2.004c.147,2.739.901,5.441,2.201,7.872.257.479.852.67,1.334.42,2.513-1.273,4.458-3.521,5.313-6.104l.847-2.071,1.858.308-.779,2.338c-1.261,3.773-4.266,6.778-8.038,8.039-3.575,1.191-6.258,4.195-7.062,7.858-.646-.15-1.299-.282-1.963-.381.769-3.559,3.014-6.613,6.2-8.396ZM44.468,30.326c.023-1.489.317-3.296,1.44-4.418,1.82-1.826,5.445-1.491,6.912-1.266.227,1.467.562,5.096-1.258,6.922-.746.746-1.899,1.191-3.399,1.352-1.148-.969-2.384-1.836-3.696-2.59Z"/>
  <circle cx="45" cy="40.001" r="1"/>
</svg>