<?xml version="1.0" encoding="UTF-8"?>
<svg id="Outline" xmlns="http://www.w3.org/2000/svg" version="1.1" viewBox="0 0 64 64">
  <!-- Generator: Adobe Illustrator 29.5.1, SVG Export Plug-In . SVG Version: 2.1.0 Build 141)  -->
  <path d="M56.53,30.15l-8-5-.01.01c-.15-.09-.33-.16-.52-.16h-4c.64-1.54,1-3.23,1-5,0-7.17-5.83-13-13-13-2.15,0-4.19.51-6.08,1.5-.75.4-1.46.87-2.11,1.41v-.52c0-.55-.45-1-1-1-.56,0-1,.45-1,1v2.83c0,.55.44,1,1,1h2.83c.55,0,1-.45,1-1s-.45-1-1-1h-.25c.46-.35.95-.68,1.47-.95,1.59-.84,3.32-1.27,5.14-1.27,6.07,0,11,4.93,11,11s-4.93,11-11,11-11-4.93-11-11c0-1.2.19-2.36.56-3.46.17-.53-.11-1.09-.63-1.27-.52-.17-1.09.11-1.27.63-.44,1.31-.66,2.69-.66,4.1,0,1.77.36,3.46,1,5h-4c-.19,0-.37.07-.52.16l-.01-.01-8,5c-.23.14-.39.38-.45.64-.05.26,0,.54.15.76l2,3c.19.29.51.45.83.45.17,0,.34-.04.5-.13l3.33-1.91-.82,4.88c-.05.29.04.58.23.81.19.22.47.35.76.35h1v15c0,1.65,1.35,3,3,3h28c1.65,0,3-1.35,3-3v-15h1c.29,0,.57-.13.76-.35.19-.23.28-.52.23-.81l-.82-4.88,3.33,1.91c.16.09.33.13.5.13.32,0,.64-.16.83-.45l2-3c.15-.22.2-.5.15-.76-.06-.26-.22-.5-.45-.64ZM14.25,30.42l-3.94,2.25-.91-1.37,5.25-3.28-.4,2.4ZM47,54c0,.55-.45,1-1,1h-28c-.55,0-1-.45-1-1v-15h30v15ZM15.18,37l1.67-10h4.21c2.32,3.6,6.35,6,10.94,6s8.62-2.4,10.94-6h4.21l1.67,10H15.18ZM53.69,32.67l-3.94-2.25-.4-2.4,5.25,3.28-.91,1.37Z"/>
  <path d="M29.293,22.707c.372.372,1.02.394,1.414,0l1.293-1.293,1.293,1.293c.195.195.451.293.707.293.875,0,1.325-1.089.707-1.707l-1.293-1.293,1.293-1.293c.391-.391.391-1.023,0-1.414s-1.023-.391-1.414,0l-1.293,1.293-1.293-1.293c-.391-.391-1.023-.391-1.414,0s-.391,1.023,0,1.414l1.293,1.293-1.293,1.293c-.391.391-.391,1.023,0,1.414Z"/>
  <path d="M32,28c4.411,0,8-3.589,8-8s-3.589-8-8-8-8,3.589-8,8,3.589,8,8,8ZM32,14c3.309,0,6,2.691,6,6s-2.691,6-6,6-6-2.691-6-6,2.691-6,6-6Z"/>
</svg>