<?xml version="1.0" encoding="UTF-8"?>
<svg id="Outline" xmlns="http://www.w3.org/2000/svg" version="1.1" viewBox="0 0 64 64">
  <!-- Generator: Adobe Illustrator 29.0.0, SVG Export Plug-In . SVG Version: 2.1.0 Build 186)  -->
  <path d="M56.11149,40.90807c-.55064-.55528-1.30514-.90807-2.11149-.90807h-1v-3c0-1.65002-1.34998-3-3-3h-2.95001l.75-14.96002c.07001-1.32001-.39996-2.58002-1.32001-3.54999-.42999-.45001-.92999-.79999-1.47998-1.04999v-4.44c0-1.65002-1.34998-3-3-3H14c-1.65002,0-3,1.34998-3,3v1h-1c-1.65002,0-3,1.34998-3,3v40c0,1.64996,1.34998,3,3,3h28c1.65002,0,3-1.35004,3-3v-1h1c1.65002,0,3-1.35004,3-3h7c1.65002,0,3-1.35004,3-3v-1.17999c1.15995-.42003,1.99996-1.51997,2-2.81992.00002-.79828-.3449-1.54383-.88851-2.09202ZM45.03003,16.87c.53998.56.81,1.29999.76996,2.08002l-.75,15.04999h-4.09998l-.75-15.04999c-.04004-.78003.22998-1.52002.76996-2.08002,1.07001-1.12,2.99005-1.12,4.06006,0ZM13,10c0-.54999.45001-1,1-1h28c.54999,0,1,.45001,1,1v4c-.71002,0-1.38.15997-2,.44v-.44c0-1.65002-1.34998-3-3-3H13v-1ZM39,54c0,.54999-.45001,1-1,1H10c-.54999,0-1-.45001-1-1V14c0-.54999.45001-1,1-1h28c.54999,0,1,.45001,1,1v2.15997c-.56.85004-.84998,1.84003-.79999,2.88l.75,14.96002h-2.95001c-1.65002,0-3,1.34998-3,3v3h-1c-1.65002,0-3,1.34998-3,3,0,.81.32001,1.57001.87,2.10999.32001.33002.71002.56,1.13.71002v1.17999c0,1.64996,1.34998,3,3,3h5v4ZM42,51h-1v-1h2c0,.54999-.45001,1-1,1ZM53,47c0,.54999-.45001,1-1,1h-18c-.54999,0-1-.45001-1-1v-1h20v1ZM54,44h-21.99947c-.52137,0-1.00053-.47982-1.00053-1,0-.54999.45001-1,1-1h6c.54999,0,1-.45001,1-1s-.45001-1-1-1h-3v-3c0-.54999.45001-1,1-1h14c.54999,0,1,.45001,1,1v3h-5c-.54999,0-1,.45001-1,1s.45001,1,1,1h7.99956c.54059,0,1.00044.46211,1.00044,1,0,.54999-.45001,1-1,1Z"/>
  <path d="M35,27c0-6.61719-5.3833-12-12-12s-12,5.38281-12,12,5.3833,12,12,12,12-5.38281,12-12ZM23,37c-5.51416,0-10-4.48633-10-10s4.48584-10,10-10,10,4.48633,10,10-4.48584,10-10,10Z"/>
  <path d="M28.65771,21.34277c-1.13379-1.13281-3.10986-1.13281-4.24268,0l-1.41504,1.41504-1.41455-1.41504c-1.13379-1.13281-3.10938-1.13281-4.24316,0-1.16846,1.16992-1.16846,3.07227.00049,4.24219l1.41504,1.41504-1.41553,1.41504c-1.16846,1.16992-1.16846,3.07227,0,4.24219,1.13379,1.13281,3.10986,1.13281,4.24268,0l1.41504-1.41504,1.41455,1.41504c1.15762,1.15802,3.08712,1.15505,4.24317,0,1.16846-1.16992,1.16846-3.07227-.00049-4.24219l-1.41504-1.41504,1.41553-1.41504c1.16846-1.16992,1.16846-3.07227,0-4.24219ZM27.24316,24.1709l-2.12207,2.12207c-.39062.39062-.39062,1.02344,0,1.41406l2.12158,2.12207c.38965.38965.38965,1.02441,0,1.41406-.37695.37891-1.03564.37891-1.41357,0l-2.12207-2.12207c-.19531-.19531-.45117-.29297-.70703-.29297s-.51172.09766-.70703.29297l-2.12256,2.12207c-.37695.37891-1.03613.37891-1.41309,0-.38965-.38965-.38965-1.02441-.00049-1.41406l2.12207-2.12207c.39062-.39062.39062-1.02344,0-1.41406l-2.12158-2.12207c-.38965-.38965-.38965-1.02441,0-1.41406.37695-.37891,1.03564-.37891,1.41357,0l2.12207,2.12207c.39062.39062,1.02344.39062,1.41406,0l2.12256-2.12207c.37695-.37891,1.03613-.37891,1.41309,0,.38965.38965.38965,1.02441.00049,1.41406Z"/>
  <circle cx="42" cy="41" r="1"/>
</svg>