<?xml version="1.0" encoding="UTF-8"?>
<svg id="Outline" xmlns="http://www.w3.org/2000/svg" version="1.1" viewBox="0 0 48 48">
  <!-- Generator: Adobe Illustrator 29.5.1, SVG Export Plug-In . SVG Version: 2.1.0 Build 141)  -->
  <path d="M37,31v-7c0-6.07-4.19-11.17-9.83-12.59.51-.67.83-1.5.83-2.41,0-2.21-1.79-4-4-4s-4,1.79-4,4c0,.91.32,1.74.83,2.41-5.64,1.42-9.83,6.52-9.83,12.59v7c-1.65,0-3,1.35-3,3s1.35,3,3,3h9.56c-.35.59-.56,1.27-.56,2,0,2.21,1.79,4,4,4s4-1.79,4-4c0-.73-.21-1.41-.56-2h9.56c1.65,0,3-1.35,3-3s-1.35-3-3-3ZM24,7c1.1,0,2,.9,2,2s-.9,2-2,2-2-.9-2-2,.9-2,2-2ZM24,41c-1.1,0-2-.9-2-2s.9-2,2-2,2,.9,2,2-.9,2-2,2ZM37,35H11c-.55,0-1-.45-1-1s.45-1,1-1h1c.55,0,1-.45,1-1v-8c0-6.07,4.93-11,11-11s11,4.93,11,11v8c0,.55.45,1,1,1h1c.55,0,1,.45,1,1s-.45,1-1,1Z"/>
  <path d="M20,31h-4c-.552,0-1,.447-1,1s.448,1,1,1h4c.552,0,1-.447,1-1s-.448-1-1-1Z"/>
  <path d="M32,31h-8c-.552,0-1,.447-1,1s.448,1,1,1h8c.552,0,1-.447,1-1s-.448-1-1-1Z"/>
</svg>