<?xml version="1.0" encoding="UTF-8"?>
<svg id="Outline" xmlns="http://www.w3.org/2000/svg" version="1.1" viewBox="0 0 64 64">
  <!-- Generator: Adobe Illustrator 29.5.1, SVG Export Plug-In . SVG Version: 2.1.0 Build 141)  -->
  <path d="M29,51.5h-4c-.553,0-1,.448-1,1s.447,1,1,1h4c.553,0,1-.448,1-1s-.447-1-1-1Z"/>
  <path d="M56.001,20.017c-.548-.102-1.063.26-1.164.803-.871,4.74-5.008,8.181-9.837,8.181-5.514,0-10-4.486-10-10s4.486-10,10-10c4.829,0,8.966,3.44,9.837,8.181.101.543.617.904,1.164.803.543-.1.902-.621.803-1.164-1.045-5.69-6.009-9.819-11.804-9.819-2.53,0-4.876.791-6.813,2.133-.391-.08-.783-.133-1.187-.133h-20c-3.309,0-6,2.691-6,6v13c0,.552.447,1,1,1s1-.448,1-1v-12h8.586l1.707,1.707c.188.188.441.293.707.293h6c.266,0,.52-.105.707-.293l1.707-1.707h.981c-.249.961-.395,1.963-.395,3,0,5.213,3.347,9.647,8,11.3v17.7H13v-16c0-.552-.447-1-1-1s-1,.448-1,1v19c0,3.309,2.691,6,6,6h20c3.309,0,6-2.691,6-6v-20.181c.652.11,1.317.181,2,.181,5.795,0,10.759-4.129,11.804-9.819.1-.543-.26-1.064-.803-1.164ZM32,14c-.266,0-.52.105-.707.293l-1.707,1.707h-5.172l-1.707-1.707c-.188-.188-.441-.293-.707-.293h-8.858c.447-1.72,1.999-3,3.858-3h19.081c-.8.891-1.469,1.899-1.976,3h-2.105ZM37,55h-20c-2.206,0-4-1.794-4-4v-1h28v1c0,2.206-1.794,4-4,4Z"/>
  <path d="M41,23c.553,0,1-.448,1-1v-2h2c.553,0,1-.448,1-1s-.447-1-1-1h-2v-2c0-.552-.447-1-1-1s-1,.448-1,1v2h-2c-.553,0-1,.448-1,1s.447,1,1,1h2v2c0,.552.447,1,1,1Z"/>
  <path d="M46,26h4c.553,0,1-.448,1-1s-.447-1-1-1h-1v-11c0-.404-.243-.769-.617-.924-.375-.154-.804-.069-1.09.217l-2,2c-.391.391-.391,1.023,0,1.414s1.023.391,1.414,0l.293-.293v8.586h-1c-.553,0-1,.448-1,1s.447,1,1,1Z"/>
  <path d="M16,44h22c.553,0,1-.448,1-1s-.447-1-1-1h-22c-.553,0-1,.448-1,1s.447,1,1,1Z"/>
  <path d="M16,40h22c.553,0,1-.448,1-1s-.447-1-1-1h-22c-.553,0-1,.448-1,1s.447,1,1,1Z"/>
  <path d="M16,36h16c.553,0,1-.448,1-1s-.447-1-1-1h-16c-.553,0-1,.448-1,1s.447,1,1,1Z"/>
  <path d="M16,32h16c.553,0,1-.448,1-1s-.447-1-1-1h-16c-.553,0-1,.448-1,1s.447,1,1,1Z"/>
  <path d="M16,28h9c.553,0,1-.448,1-1s-.447-1-1-1h-9c-.553,0-1,.448-1,1s.447,1,1,1Z"/>
</svg>