<?xml version="1.0" encoding="UTF-8"?>
<svg id="Outline" xmlns="http://www.w3.org/2000/svg" version="1.1" viewBox="0 0 64 64">
  <!-- Generator: Adobe Illustrator 29.5.1, SVG Export Plug-In . SVG Version: 2.1.0 Build 141)  -->
  <path d="M56,28c.55,0,1-.45,1-1v-13c0-1.65-1.35-3-3-3h-5.18c-.31-.85-.97-1.51-1.82-1.82v-1.18c0-.55-.45-1-1-1s-1,.45-1,1v1.18c-.85.31-1.51.97-1.82,1.82h-22.36c-.31-.85-.97-1.51-1.82-1.82v-1.18c0-.55-.45-1-1-1s-1,.45-1,1v1.18c-.85.31-1.51.97-1.82,1.82h-5.18c-1.65,0-3,1.35-3,3v40c0,1.65,1.35,3,3,3h44c1.65,0,3-1.35,3-3v-23c0-.55-.45-1-1-1s-1,.45-1,1v23c0,.55-.45,1-1,1h-1.25c.16-.38.25-.8.25-1.25V19h2v8c0,.55.45,1,1,1ZM46,11c.55,0,1,.45,1,1s-.45,1-1,1-1-.45-1-1,.45-1,1-1ZM18,11c.55,0,1,.45,1,1s-.45,1-1,1-1-.45-1-1,.45-1,1-1ZM10,55c-.55,0-1-.45-1-1V19h2v35c0,.35.07.69.18,1h-1.18ZM31.06,55l15.18-1.9.36,1.44c.04.16.1.31.16.46h-15.7ZM45,17c-.55,0-1,.45-1,1s.45,1,1,1h6v34.75c0,.69-.56,1.25-1.25,1.25-.57,0-1.07-.39-1.21-.94l-.57-2.3c-.12-.49-.59-.81-1.09-.75l-31.94,3.99h-.94c-.55,0-1-.45-1-1V19h28c.55,0,1-.45,1-1s-.45-1-1-1H9v-3c0-.55.45-1,1-1h5.18c.42,1.16,1.52,2,2.82,2s2.4-.84,2.82-2h22.36c.42,1.16,1.52,2,2.82,2s2.4-.84,2.82-2h5.18c.55,0,1,.45,1,1v3h-10Z"/>
  <path d="M41.842,37.783v-2.941c0-4.38-2.878-8.098-6.842-9.37v-1.471c0-1.654-1.346-3-3-3s-3,1.346-3,3v1.471c-3.963,1.272-6.842,4.99-6.842,9.37v2.941c0,2.063-.428,4.062-1.265,5.946-.403.556-.631,1.172-.631,1.85,0,3.521,6.047,5.421,11.737,5.421s11.737-1.899,11.737-5.421c0-.678-.228-1.294-.631-1.85-.836-1.884-1.265-3.882-1.265-5.946ZM31,24c0-.552.448-1,1-1s1,.448,1,1v1.051c-.329-.033-.662-.051-1-.051s-.671.017-1,.051v-1.051ZM24.158,34.842c0-4.324,3.518-7.842,7.842-7.842s7.842,3.518,7.842,7.842v2.941c0,1.331.172,2.636.48,3.91-1.254-.559-2.757-.97-4.364-1.224-.039-.007-.071-.028-.112-.031-.018-.001-.034.007-.052.007-1.236-.187-2.523-.287-3.795-.287s-2.558.1-3.794.287c-.018,0-.034-.008-.052-.007-.04.003-.073.023-.112.031-1.606.254-3.11.665-4.364,1.224.308-1.274.48-2.579.48-3.91v-2.941ZM34.539,42.293c-.437.975-1.415,1.654-2.539,1.654s-2.102-.679-2.539-1.654c.796-.084,1.639-.135,2.539-.135s1.744.051,2.539.135ZM32,49c-5.944,0-9.737-2.026-9.737-3.421,0-.993,1.932-2.304,5.188-2.978.617,1.94,2.431,3.346,4.549,3.346s3.932-1.405,4.549-3.346c3.256.674,5.188,1.984,5.188,2.978,0,1.395-3.793,3.421-9.737,3.421Z"/>
</svg>