<?xml version="1.0" encoding="UTF-8"?>
<svg id="Outline" xmlns="http://www.w3.org/2000/svg" version="1.1" viewBox="0 0 64 64">
  <!-- Generator: Adobe Illustrator 29.5.1, SVG Export Plug-In . SVG Version: 2.1.0 Build 141)  -->
  <path d="M54,11h-5v-1c0-1.65-1.35-3-3-3s-3,1.35-3,3v1h-22v-1c0-1.65-1.35-3-3-3s-3,1.35-3,3v1h-5c-1.65,0-3,1.35-3,3v11c0,.55.45,1,1,1s1-.45,1-1v-4h2v33c0,.35.07.69.18,1h-1.18c-.55,0-1-.45-1-1v-21c0-.55-.45-1-1-1s-1,.45-1,1v21c0,1.65,1.35,3,3,3h44c1.65,0,3-1.35,3-3V14c0-1.65-1.35-3-3-3ZM45,10c0-.55.45-1,1-1s1,.45,1,1v4c0,.55-.45,1-1,1s-1-.45-1-1v-4ZM21,14v-1h22v1c0,.35.07.69.18,1h-22.36c.11-.31.18-.65.18-1ZM17,10c0-.55.45-1,1-1s1,.45,1,1v4c0,.55-.45,1-1,1s-1-.45-1-1v-4ZM30.57,55l14.85-1.92.96,1.92h-15.81ZM51,53.53c0,.81-.66,1.47-1.47,1.47-.56,0-1.07-.31-1.32-.81l-1.32-2.64c-.19-.38-.6-.59-1.02-.54l-30.94,3.99h-.93c-.55,0-1-.45-1-1V21h38v32.53ZM55,54c0,.55-.45,1-1,1h-1.34c.21-.45.34-.94.34-1.47V21h2v33ZM55,19H9v-5c0-.55.45-1,1-1h5v1c0,.35.07.69.18,1h-3.18c-.55,0-1,.45-1,1s.45,1,1,1h40c.55,0,1-.45,1-1s-.45-1-1-1h-3.18c.11-.31.18-.65.18-1v-1h5c.55,0,1,.45,1,1v5Z"/>
  <path d="M24,46h3.101c.465,2.279,2.484,4,4.899,4s4.434-1.721,4.899-4h3.101c.369,0,.708-.203.882-.528.174-.325.155-.72-.05-1.026-1.199-1.798-1.832-3.89-1.832-6.051v-1.395c0-2.785-1.639-5.188-4-6.315v-1.685c0-1.654-1.346-3-3-3s-3,1.346-3,3v1.685c-2.361,1.126-4,3.53-4,6.315v1.395c0,2.161-.633,4.253-1.832,6.051-.205.307-.224.701-.05,1.026.174.325.513.528.882.528ZM32,48c-1.302,0-2.402-.839-2.816-2h5.631c-.414,1.161-1.514,2-2.816,2ZM31,29c0-.552.449-1,1-1s1,.448,1,1v1.08c-.328-.047-.66-.08-1-.08s-.672.033-1,.08v-1.08ZM27,38.395v-1.395c0-2.757,2.243-5,5-5s5,2.243,5,5v1.395c0,1.956.438,3.864,1.279,5.605h-12.559c.841-1.741,1.279-3.649,1.279-5.605Z"/>
  <path d="M44.53,42.944c.358.361,1.026.391,1.415.006,1.326-1.313,2.056-3.071,2.056-4.95s-.73-3.637-2.056-4.95c-.393-.39-1.025-.387-1.415.006-.389.393-.386,1.025.006,1.414.944.936,1.464,2.189,1.464,3.53s-.52,2.595-1.464,3.53c-.392.389-.395,1.021-.006,1.414Z"/>
  <path d="M41.694,40.108c.364.373,1.011.41,1.414.018.575-.561.892-1.315.892-2.126s-.317-1.565-.892-2.126c-.396-.386-1.029-.378-1.414.018-.386.396-.378,1.028.018,1.414.186.182.288.428.288.694s-.102.513-.288.694c-.395.386-.403,1.019-.018,1.414Z"/>
  <path d="M18.76,43.24c.873,0,1.325-1.094.704-1.71-.944-.936-1.464-2.189-1.464-3.53s.52-2.595,1.464-3.53c.392-.389.395-1.021.006-1.414-.389-.392-1.021-.395-1.415-.006-1.326,1.313-2.056,3.071-2.056,4.95s.73,3.637,2.056,4.95c.195.193.449.29.704.29Z"/>
  <path d="M21.59,40.41c.878,0,1.329-1.101.698-1.716-.186-.182-.288-.428-.288-.694s.102-.513.288-.694c.396-.386.403-1.019.018-1.414-.385-.396-1.018-.403-1.414-.018-.575.561-.892,1.315-.892,2.126s.317,1.565.892,2.126c.195.189.446.284.698.284Z"/>
  <circle cx="8" cy="29" r="1"/>
</svg>