<?xml version="1.0" encoding="UTF-8"?>
<svg id="Outline" xmlns="http://www.w3.org/2000/svg" version="1.1" viewBox="0 0 64 64">
  <!-- Generator: Adobe Illustrator 29.3.1, SVG Export Plug-In . SVG Version: 2.1.0 Build 151)  -->
  <path d="M51,11h-4v-1c0-1.65002-1.34998-3-3-3s-3,1.34998-3,3v1h-2v-1c0-1.65002-1.34998-3-3-3s-3,1.34998-3,3v1h-6v-1c0-1.65002-1.34998-3-3-3s-3,1.34998-3,3v1h-2v-1c0-1.65002-1.34998-3-3-3s-3,1.34998-3,3v1h-4c-1.09998,0-2,.89996-2,2v27c0,.54999.45001,1,1,1s1-.45001,1-1v-21h42v3c0,.54999.45001,1,1,1s1-.45001,1-1v-9c0-1.10004-.90002-2-2-2ZM13,17h-4v-4h4v4ZM17,17h-2v-7c0-.54999.45001-1,1-1s1,.45001,1,1v7ZM21,17h-2v-4h2v4ZM25,17h-2v-7c0-.54999.45001-1,1-1s1,.45001,1,1v7ZM33,17h-6v-4h6v4ZM37,17h-2v-7c0-.54999.45001-1,1-1s1,.45001,1,1v7ZM41,17h-2v-4h2v4ZM45,17h-2v-7c0-.54999.45001-1,1-1s1,.45001,1,1v7ZM51,17h-4v-4h4v4Z"/>
  <path d="M54.72998,48.09998c-1.13995-3.03998-1.72998-6.22998-1.72998-9.47998v-12.62c0-.54999-.45001-1-1-1s-1,.45001-1,1v7.53998c-.42999-.39001-.91998-.71997-1.46002-.96997.29004-.46002.46002-.99005.46002-1.57001,0-1.65002-1.34998-3-3-3s-3,1.34998-3,3c0,.57996.16998,1.10999.46002,1.57001-2.04004.95996-3.46002,3.02997-3.46002,5.42999v.62c0,3.25-.59003,6.44-1.72998,9.47998-.97003.25-1.75.96002-2.09003,1.90002h-2.40997c.14996-.64001.22998-1.31.22998-2,0-4.96002-4.03998-9-9-9s-9,4.03998-9,9c0,.69.08002,1.35999.22998,2h-8.22998v-6c0-.54999-.45001-1-1-1s-1,.45001-1,1v6c0,1.09998.90002,2,2,2h8.95001c1.47998,2.95996,4.52997,5,8.04999,5s6.57001-2.04004,8.04999-5h3.13c.41998,1.15997,1.52002,2,2.82001,2h2.09998c.47003,2.27997,2.49005,4,4.90002,4s4.42999-1.72003,4.90002-4h2.09998c1.65002,0,3-1.35004,3-3,0-1.40002-.96997-2.57001-2.27002-2.90002ZM26,55c-3.85999,0-7-3.14001-7-7s3.14001-7,7-7,7,3.14001,7,7-3.14001,7-7,7ZM47,30c.54999,0,1,.45001,1,1s-.45001,1-1,1-1-.45001-1-1,.45001-1,1-1ZM43,38.62v-.62c0-2.21002,1.78998-4,4-4s4,1.78998,4,4v.62c0,3.20996.52002,6.35999,1.56,9.38h-11.12c1.03998-3.02002,1.56-6.17004,1.56-9.38ZM47,56c-1.29999,0-2.41998-.84003-2.83002-2h5.66003c-.41003,1.15997-1.53003,2-2.83002,2ZM54,52h-14c-.54999,0-1-.45001-1-1s.45001-1,1-1h14c.54999,0,1,.45001,1,1s-.45001,1-1,1Z"/>
  <path d="M26,45c.55127,0,1,.44824,1,1,0,.55273.44775,1,1,1s1-.44727,1-1c0-1.30194-.8385-2.40161-2-2.81573v-.18427c0-.55273-.44775-1-1-1s-1,.44727-1,1v.18427c-1.1615.41412-2,1.51379-2,2.81573,0,1.6543,1.3457,3,3,3,.55127,0,1,.44824,1,1s-.44873,1-1,1-1-.44824-1-1c0-.55273-.44775-1-1-1s-1,.44727-1,1c0,1.30194.8385,2.40155,2,2.81567v.18433c0,.55273.44775,1,1,1s1-.44727,1-1v-.18427c1.1615-.41412,2-1.51379,2-2.81573,0-1.6543-1.3457-3-3-3-.55127,0-1-.44824-1-1s.44873-1,1-1Z"/>
  <path d="M17,22c0-.55273-.44775-1-1-1h-4c-.55225,0-1,.44727-1,1v4c0,.55273.44775,1,1,1h4c.55225,0,1-.44727,1-1v-4ZM15,25h-2v-2h2v2Z"/>
  <path d="M17,30c0-.55273-.44775-1-1-1h-4c-.55225,0-1,.44727-1,1v4c0,.55273.44775,1,1,1h4c.55225,0,1-.44727,1-1v-4ZM15,33h-2v-2h2v2Z"/>
  <path d="M25,22c0-.55273-.44775-1-1-1h-4c-.55225,0-1,.44727-1,1v4c0,.55273.44775,1,1,1h4c.55225,0,1-.44727,1-1v-4ZM23,25h-2v-2h2v2Z"/>
  <path d="M24,29h-4c-.55225,0-1,.44727-1,1v4c0,.55273.44775,1,1,1h4c.55225,0,1-.44727,1-1v-4c0-.55273-.44775-1-1-1ZM23,33h-2v-2h2v2Z"/>
  <path d="M33,22c0-.55273-.44775-1-1-1h-4c-.55225,0-1,.44727-1,1v4c0,.55273.44775,1,1,1h4c.55225,0,1-.44727,1-1v-4ZM31,25h-2v-2h2v2Z"/>
  <path d="M32,29h-4c-.55225,0-1,.44727-1,1v4c0,.55273.44775,1,1,1h4c.55225,0,1-.44727,1-1v-4c0-.55273-.44775-1-1-1ZM31,33h-2v-2h2v2Z"/>
  <path d="M41,22c0-.55273-.44775-1-1-1h-4c-.55225,0-1,.44727-1,1v4c0,.55273.44775,1,1,1h4c.55225,0,1-.44727,1-1v-4ZM39,25h-2v-2h2v2Z"/>
  <path d="M44,21c-.55225,0-1,.44727-1,1v4c0,.55273.44775,1,1,1h4c.55225,0,1-.44727,1-1v-4c0-.55273-.44775-1-1-1h-4ZM47,25h-2v-2h2v2Z"/>
  <path d="M40,29h-4c-.55225,0-1,.44727-1,1v4c0,.55273.44775,1,1,1h4c.55225,0,1-.44727,1-1v-4c0-.55273-.44775-1-1-1ZM39,33h-2v-2h2v2Z"/>
  <path d="M16,37h-4c-.55225,0-1,.44727-1,1v4c0,.55273.44775,1,1,1h4c.55225,0,1-.44727,1-1v-4c0-.55273-.44775-1-1-1ZM15,41h-2v-2h2v2Z"/>
</svg>