<?xml version="1.0" encoding="UTF-8"?>
<svg id="Outline" xmlns="http://www.w3.org/2000/svg" version="1.1" viewBox="0 0 48 48">
  <!-- Generator: Adobe Illustrator 29.5.1, SVG Export Plug-In . SVG Version: 2.1.0 Build 141)  -->
  <path d="M40,5H8c-1.654,0-3,1.346-3,3v32c0,1.654,1.346,3,3,3h32c1.654,0,3-1.346,3-3V8c0-1.654-1.346-3-3-3ZM8,7h32c.552,0,1,.448,1,1v5H7v-5c0-.552.448-1,1-1ZM40,41H8c-.552,0-1-.448-1-1V15h34v25c0,.552-.448,1-1,1Z"/>
  <path d="M10,11h2c.553,0,1-.447,1-1s-.447-1-1-1h-2c-.553,0-1,.447-1,1s.447,1,1,1Z"/>
  <path d="M16,11h2c.553,0,1-.447,1-1s-.447-1-1-1h-2c-.553,0-1,.447-1,1s.447,1,1,1Z"/>
  <path d="M31.264,22.257l-.058,1.709c-.012.332.143.648.411.843.27.196.62.245.929.132l1.608-.584,1.608.584c.11.04.226.06.341.06.56,0,1.018-.474.999-1.034l-.058-1.709,1.053-1.35c.204-.262.265-.608.162-.924-.103-.316-.355-.561-.675-.652l-1.645-.474-.958-1.417c-.371-.551-1.285-.551-1.656,0l-.958,1.417-1.645.474c-.319.092-.572.336-.675.652-.103.315-.042.662.162.924l1.053,1.35ZM33.27,20.679c.226-.064.421-.207.552-.401l.333-.491.333.491c.131.194.326.337.552.401l.571.165-.366.469c-.144.186-.219.415-.21.649l.02.594-.559-.203c-.11-.04-.226-.06-.341-.06s-.23.02-.341.06l-.559.203.02-.594c.009-.234-.066-.464-.21-.649l-.366-.469.571-.165Z"/>
  <path d="M25.763,24.94c.11.04.225.06.341.06.558,0,1.019-.478.999-1.034l-.058-1.709,1.053-1.35c.204-.262.265-.608.162-.924-.103-.316-.355-.561-.675-.652l-1.645-.474-.958-1.417c-.371-.551-1.285-.551-1.656,0l-.958,1.417-1.645.474c-.319.092-.572.336-.675.652-.103.315-.042.662.162.924l1.053,1.35-.058,1.709c-.012.332.143.648.411.843.27.196.62.245.929.132l1.608-.584,1.608.584ZM23.255,22.556l.02-.594c.009-.234-.066-.464-.21-.649l-.366-.469.571-.165c.226-.064.421-.207.552-.401l.333-.491.333.491c.131.194.326.337.552.401l.571.165-.366.469c-.144.186-.219.415-.21.649l.02.594-.559-.203c-.11-.04-.226-.06-.341-.06s-.23.02-.341.06l-.559.203Z"/>
  <path d="M11.264,22.257l-.058,1.709c-.012.332.143.648.411.843.27.196.62.245.929.132l1.608-.584,1.608.584c.11.04.225.06.341.06.543,0,1.018-.493.999-1.034l-.058-1.709,1.053-1.35c.204-.262.265-.608.162-.924-.103-.316-.355-.561-.675-.652l-1.645-.474-.958-1.417c-.371-.551-1.285-.551-1.656,0l-.958,1.417-1.645.474c-.319.092-.572.336-.675.652-.103.315-.042.662.162.924l1.053,1.35ZM13.27,20.679c.226-.064.421-.207.552-.401l.333-.491.333.491c.131.194.326.337.552.401l.571.165-.366.469c-.144.186-.219.415-.21.649l.02.594-.559-.203c-.11-.04-.226-.06-.341-.06s-.23.02-.341.06l-.559.203.02-.594c.009-.234-.066-.464-.21-.649l-.366-.469.571-.165Z"/>
  <path d="M16,27c-3.309,0-6,2.691-6,6s2.691,6,6,6,6-2.691,6-6-2.691-6-6-6ZM16,37c-2.206,0-4-1.794-4-4s1.794-4,4-4,4,1.794,4,4-1.794,4-4,4Z"/>
  <path d="M17.707,31.293c-.391-.391-1.023-.391-1.414,0l-.293.293-.293-.293c-.391-.391-1.023-.391-1.414,0s-.391,1.023,0,1.414l.293.293-.293.293c-.391.391-.391,1.023,0,1.414.195.195.451.293.707.293s.512-.098.707-.293l.293-.293.293.293c.195.195.451.293.707.293s.512-.098.707-.293c.391-.391.391-1.023,0-1.414l-.293-.293.293-.293c.391-.391.391-1.023,0-1.414Z"/>
  <path d="M38,37h-13c-.553,0-1,.447-1,1s.447,1,1,1h13c.553,0,1-.447,1-1s-.447-1-1-1Z"/>
  <path d="M25,35h8c.553,0,1-.447,1-1s-.447-1-1-1h-8c-.553,0-1,.447-1,1s.447,1,1,1Z"/>
  <path d="M38,29h-13c-.553,0-1,.447-1,1s.447,1,1,1h13c.553,0,1-.447,1-1s-.447-1-1-1Z"/>
</svg>