<?xml version="1.0" encoding="UTF-8"?>
<svg id="Outline" xmlns="http://www.w3.org/2000/svg" version="1.1" viewBox="0 0 64 64">
  <!-- Generator: Adobe Illustrator 29.3.1, SVG Export Plug-In . SVG Version: 2.1.0 Build 151)  -->
  <path d="M32,7c-13.78998,0-25,11.20996-25,25v3c0,3.31,2.69,6,6,6h.14001c.45001,1.71997,2,3,3.85999,3,2.21002,0,4-1.79004,4-4v-10c0-2.21002-1.78998-4-4-4-1.85999,0-3.40997,1.27997-3.85999,3h-.14001c-1.51001,0-2.89001.57001-3.95001,1.48999.79004-11.97998,10.78003-21.48999,22.95001-21.48999s22.15997,9.51001,22.95001,21.48999c-1.06-.91998-2.44-1.48999-3.95001-1.48999h-.14001c-.45001-1.72003-2-3-3.85999-3-2.21002,0-4,1.78998-4,4v10c0,2.20996,1.78998,4,4,4,1.85999,0,3.40997-1.28003,3.85999-3h.14001c3.31,0,6-2.69,6-6v-3c0-13.79004-11.21002-25-25-25ZM15,30c0-1.10004.90002-2,2-2s2,.89996,2,2v10c0,1.09998-.90002,2-2,2s-2-.90002-2-2v-10ZM13,31v8c-2.21002,0-4-1.79004-4-4s1.78998-4,4-4ZM49,40c0,1.09998-.90002,2-2,2s-2-.90002-2-2v-10c0-1.10004.90002-2,2-2s2,.89996,2,2v10ZM51,39v-8c2.21002,0,4,1.78998,4,4s-1.78998,4-4,4Z"/>
  <path d="M36.31396,35.88086c-.50928-.22168-1.09619.0166-1.31299.52539-.21777.50684.01758,1.09473.5249,1.3125,3.32568,1.42578,5.47412,4.67578,5.47412,8.28125,0,4.96289-4.0376,9-9,9s-9-4.03711-9-9c0-3.60547,2.14844-6.85547,5.47412-8.28125.50732-.21777.74268-.80566.5249-1.3125-.21729-.50781-.80518-.74609-1.31299-.52539-4.06152,1.74023-6.68604,5.71289-6.68604,10.11914,0,6.06543,4.93457,11,11,11s11-4.93457,11-11c0-4.40625-2.62451-8.37891-6.68604-10.11914Z"/>
  <circle cx="32" cy="52" r="1"/>
  <path d="M33.92822,46.50488c1.5-.82617,2.30713-2.52344,2.00879-4.22168-.2832-1.61328-1.60742-2.9375-3.22021-3.2207-1.18066-.2041-2.38086.11133-3.28809.87305-.90771.7627-1.42871,1.87988-1.42871,3.06445,0,.55273.44775,1,1,1s1-.44727,1-1c0-.59277.26074-1.15137.71484-1.53223.46094-.3877,1.04883-.54297,1.65625-.43457.78662.1377,1.45801.80957,1.59619,1.5957.15283.87012-.24121,1.7041-1.00439,2.12402-1.229.67773-1.96289,1.85938-1.96289,3.24707,0,.55273.44775.95605,1,.95605s1-.49023,1-1.04297c0-.56152.34717-1.08789.92822-1.4082Z"/>
  <path d="M21.90039,19.00488c-.51123.05078-.90039.48145-.90039.99512v4c0,.51367.38916.94434.90039.99512l1.67676.16797c.0708.18945.14746.375.22949.55762l-1.06592,1.30371c-.3252.39746-.29639.97656.06689,1.33984l2.82861,2.82812c.3623.36328.94287.3916,1.34033.06641l1.30273-1.06543c.18213.08203.36816.1582.55762.22949l.16797,1.67676c.05127.51074.48145.90039.99512.90039h4c.51367,0,.94385-.38965.99512-.90039l.16797-1.67676c.18945-.07129.37549-.14746.55762-.22949l1.30273,1.06543c.39746.32715.97754.29785,1.34033-.06641l2.82861-2.82812c.36328-.36328.39209-.94238.06689-1.33984l-1.06592-1.30371c.08203-.18262.15869-.36816.22949-.55762l1.67676-.16797c.51123-.05078.90039-.48145.90039-.99512v-4c0-.51367-.38916-.94434-.90039-.99512l-1.67676-.16797c-.0708-.18945-.14746-.375-.22949-.55762l1.06592-1.30371c.3252-.39746.29639-.97656-.06689-1.33984l-2.82861-2.82812c-.36426-.36426-.94287-.39258-1.34033-.06641l-1.30273,1.06543c-.18213-.08203-.36816-.1582-.55762-.22949l-.16797-1.67676c-.05127-.51074-.48145-.90039-.99512-.90039h-4c-.51367,0-.94385.38965-.99512.90039l-.16797,1.67676c-.18945.07129-.37549.14746-.55762.22949l-1.30273-1.06543c-.39648-.32617-.97559-.29688-1.34033.06641l-2.82861,2.82812c-.36328.36328-.39209.94238-.06689,1.33984l1.06592,1.30371c-.08203.18262-.15869.36816-.22949.55762l-1.67676.16797ZM24.42139,20.7627c.40576-.04102.74658-.32422.86035-.71582.14697-.50293.34326-.98047.58447-1.41797.19678-.35742.15674-.7998-.10205-1.11523l-.90234-1.10352,1.54834-1.54883,1.10303.90234c.31641.26074.7583.29883,1.11572.10254.43799-.24121.91504-.4375,1.41748-.58398.39209-.11328.67578-.4541.71631-.86035l.14209-1.42188h2.19043l.14209,1.42188c.04053.40625.32422.74707.71631.86035.50244.14648.97949.34277,1.41748.58398.35645.19629.7998.1582,1.11572-.10254l1.10303-.90234,1.54834,1.54883-.90234,1.10352c-.25879.31543-.29883.75781-.10205,1.11523.24121.4375.4375.91504.58447,1.41797.11377.3916.45459.6748.86035.71582l1.42139.14258v2.18945l-1.42139.14258c-.40576.04102-.74658.32422-.86035.71582-.14697.50293-.34326.98047-.58447,1.41797-.19678.35742-.15674.7998.10205,1.11523l.90234,1.10352-1.54834,1.54883-1.10303-.90234c-.31689-.26074-.75977-.29883-1.11572-.10254-.43799.24121-.91504.4375-1.41748.58398-.39209.11328-.67578.4541-.71631.86035l-.14209,1.42188h-2.19043l-.14209-1.42188c-.04053-.40625-.32422-.74707-.71631-.86035-.50244-.14648-.97949-.34277-1.41748-.58398-.35693-.19629-.79932-.1582-1.11572.10254l-1.10303.90234-1.54834-1.54883.90234-1.10352c.25879-.31543.29883-.75781.10205-1.11523-.24121-.4375-.4375-.91504-.58447-1.41797-.11377-.3916-.45459-.6748-.86035-.71582l-1.42139-.14258v-2.18945l1.42139-.14258Z"/>
  <path d="M32,27c2.75684,0,5-2.24316,5-5s-2.24316-5-5-5-5,2.24316-5,5,2.24316,5,5,5ZM32,19c1.6543,0,3,1.3457,3,3s-1.3457,3-3,3-3-1.3457-3-3,1.3457-3,3-3Z"/>
  <circle cx="32" cy="36" r="1"/>
</svg>