<?xml version="1.0" encoding="UTF-8"?>
<svg id="Outline" xmlns="http://www.w3.org/2000/svg" version="1.1" viewBox="0 0 64 64">
  <!-- Generator: Adobe Illustrator 29.5.1, SVG Export Plug-In . SVG Version: 2.1.0 Build 141)  -->
  <path d="M54.10124,29.99945h-20.15997c-1.46002-8.27002-8.67004-14.40002-17.15002-14.40002h-.69v-2.59998c0-.40002-.23999-.77002-.62-.92004-.37-.15997-.79999-.06995-1.09003.21002l-7.19995,7.20001c-.39001.39001-.39001,1.02997,0,1.41998l7.19995,7.20001c.29004.28003.72003.37,1.09003.21002.38-.15002.62-.52002.62-.92004v-2.59998h2.98999c4.12,0,8,1.60999,10.91998,4.52002l.68005.67999h-2.59003c-1.65002,0-3,1.34998-3,3v16c0,1.64996,1.34998,3,3,3h26c1.65002,0,3-1.35004,3-3v-16c0-1.65002-1.34998-3-3-3ZM19.09123,22.79944h-3.98999c-.54999,0-1,.45001-1,1v1.19l-4.78998-4.78998,4.78998-4.79004v1.19c0,.54999.45001,1,1,1h1.69c6.59998,0,12.34998,4.20001,14.52002,10.20001-3.28003-3.22998-7.61005-5-12.22003-5ZM53.38127,31.99945l-12.28003,8.76996-12.28003-8.76996h24.56006ZM55.10124,48.99945c0,.54999-.45001,1-1,1h-26c-.54999,0-1-.45001-1-1v-15.77002l13.41998,9.58002c.17004.13.38.19.58002.19s.40997-.06.58002-.19l13.41998-9.58002v15.77002Z"/>
</svg>