<?xml version="1.0" encoding="UTF-8"?>
<svg id="Outline" xmlns="http://www.w3.org/2000/svg" version="1.1" viewBox="0 0 64 64">
  <!-- Generator: Adobe Illustrator 29.5.1, SVG Export Plug-In . SVG Version: 2.1.0 Build 141)  -->
  <path d="M56,51h-2.37c-1.06-2.17-1.63-4.59-1.63-7,0-.55-.45-1-1-1h-15v-2h14c.55,0,1-.45,1-1v-6c0-9.45-6.95-17.29-16-18.74v-2.26h2c.55,0,1-.45,1-1v-4c0-.55-.45-1-1-1h-10c-.55,0-1,.45-1,1v4c0,.55.45,1,1,1h2v2.26c-9.05,1.45-16,9.29-16,18.74v6c0,.55.45,1,1,1h1c.55,0,1-.45,1-1s-.45-1-1-1v-5c0-9.37,7.63-17,17-17s17,7.63,17,17v5h-26c-.55,0-1,.45-1,1s.45,1,1,1h5v2h-15c-.55,0-1,.45-1,1,0,2.41-.57,4.83-1.63,7h-2.37c-.55,0-1,.45-1,1v4c0,.55.45,1,1,1h48c.55,0,1-.45,1-1v-4c0-.55-.45-1-1-1ZM28,11v-2h8v2h-8ZM33,15.05c-.33-.02-.66-.05-1-.05s-.67.03-1,.05v-2.05h2v2.05ZM30,41h4v2h-4v-2ZM13.97,45h36.06c.12,2.06.59,4.1,1.39,6h-3.42v-3c0-.55-.45-1-1-1h-30c-.55,0-1,.45-1,1v3h-3.42c.8-1.9,1.27-3.94,1.39-6ZM46,49v2h-28v-2h28ZM55,55H9v-2h46v2Z"/>
  <path d="M32,21c.552,0,1-.447,1-1s-.448-1-1-1c-8.271,0-15,6.729-15,15v2c0,.553.448,1,1,1s1-.447,1-1v-2c0-7.168,5.832-13,13-13Z"/>
  <circle cx="19" cy="40" r="1"/>
</svg>