<?xml version="1.0" encoding="UTF-8"?>
<svg id="Outline" xmlns="http://www.w3.org/2000/svg" version="1.1" viewBox="0 0 64 64">
  <!-- Generator: Adobe Illustrator 29.5.1, SVG Export Plug-In . SVG Version: 2.1.0 Build 141)  -->
  <path d="M49.768,14.844c-.396-.385-1.028-.379-1.414.018-.385.396-.377,1.029.019,1.414,4.274,4.165,6.628,9.75,6.628,15.725,0,12.131-9.869,22-22,22-11.038,0-20.441-8.394-21.801-19.254,1.058-.464,1.801-1.519,1.801-2.746,0-1.654-1.346-3-3-3s-3,1.346-3,3c0,1.376.936,2.526,2.201,2.878,1.431,11.903,11.718,21.122,23.799,21.122,13.233,0,24-10.767,24-24,0-6.519-2.568-12.612-7.232-17.156ZM10,31c.551,0,1,.448,1,1s-.449,1-1,1-1-.448-1-1,.449-1,1-1Z"/>
  <path d="M16.029,17.443h2.829c.552,0,1-.447,1-1s-.448-1-1-1h-.316c.402-.352.808-.7,1.24-1.024,3.837-2.891,8.408-4.419,13.218-4.419,3.187,0,6.242.662,9.082,1.968.5.23,1.096.012,1.327-.49.23-.502.011-1.096-.491-1.326-3.104-1.428-6.441-2.151-9.918-2.151-5.248,0-10.235,1.667-14.42,4.82-.54.405-1.053.836-1.551,1.281v-.486c0-.553-.448-1-1-1s-1,.447-1,1v2.828c0,.553.448,1,1,1Z"/>
  <path d="M17.858,46.142c.345.344.902.389,1.295.102l12.728-9.255c.041,0,.078.012.119.012,2.757,0,5-2.243,5-5,0-1.42-.602-2.697-1.556-3.608l-2.456-15.548c-.077-.485-.496-.844-.988-.844s-.911.358-.988.844l-2.456,15.548c-.954.911-1.556,2.188-1.556,3.608,0,.041.011.078.012.118l-9.256,12.728c-.29.397-.247.947.102,1.295ZM32,35c-1.654,0-3-1.346-3-3s1.346-3,3-3,3,1.346,3,3-1.346,3-3,3ZM32,19.409l1.226,7.761c-.394-.1-.801-.17-1.226-.17s-.831.07-1.226.17l1.226-7.761ZM27.72,34.545c.427.715,1.02,1.308,1.735,1.735l-6.358,4.623,4.623-6.358Z"/>
  <circle cx="46" cy="13" r="1"/>
</svg>