<?xml version="1.0" encoding="UTF-8"?>
<svg id="Outline" xmlns="http://www.w3.org/2000/svg" version="1.1" viewBox="0 0 64 64">
  <!-- Generator: Adobe Illustrator 29.5.1, SVG Export Plug-In . SVG Version: 2.1.0 Build 141)  -->
  <path d="M55.96997,48.94l.18005-.10004c.22998-.13.39996-.34998.46997-.60999.06-.25.03003-.52997-.09998-.76001-.87-1.5-2.26001-2.59998-3.92004-3.09998.10004-.96002.16003-1.92999.16003-2.91003,0-2.37-.29004-4.70996-.85004-6.95996l-.02997-.12h.90002c.56,0,1-.45001,1-1v-4.38c0-.54999-.44-1-1-1h-2.91003c-1.82001,0-3.33002,1.23999-3.77997,2.91998h-2.06c-.56006,0-1,.45001-1,1s.43994,1,1,1h1.91998v.48999c.01001.10999.02997.21002.07001.31,0,.02002.01001.04999.01996.07001,0,.01001.01001.02002.01001.03998l.56,1.10004c.88,1.77002.88,3.88,0,5.64996-.34998.69-.82996,1.29004-1.41998,1.78003s-1.28998.85999-2.02002,1.06c-.96997.28998-2.10999-.09003-2.71997-.90997-.22003-.29004-.34003-.66003-.34003-1.02002,0-.12.01001-.22998.03003-.35999l.13-.67004c.20996-1.04999-.05005-2.09998-.66003-2.92999.83002-.53998,1.39001-1.46997,1.39001-2.52997,0-1.65002-1.34998-3-3-3h-6V15.62c.60999-.71002,1-1.60999,1-2.62v-.99979c0-.12699-.01542-.35566-.10999-.45022l-2-4c-.17004-.34003-.51001-.54999-.89001-.54999H10c-.38,0-.71997.20996-.89001.54999,0,0-2,4-2.00023,4.00024-.10464.10669-.10975.30994-.10975.44977v1c0,1.01001.39001,1.90997,1,2.62v17.38c0,.54999.45001,1,1,1h14.17999c-.10999.31-.17999.64996-.17999,1,0,1.40997.98999,2.59998,2.31,2.90997-.92999,1.33002-1.69,2.76001-2.25,4.29004-.38,1.01996-.65002,2.02997-.83002,3.02997-1.54999,1.59998-2.54999,3.54999-2.54999,5.66003,0,.54999.44,1,1,1h3.40002c.13995,2.83997,2.47998,5.10999,5.34998,5.10999,2.88,0,5.21002-2.27002,5.35004-5.10999h3.40997c.54999,0,1-.45001,1-1,0-.16003-.01001-.30005-.01001-.46002h4.59003c-.09003,1.34998.21997,2.69.89996,3.88.19.32001.52002.5.87.5.17004,0,.34003-.04004.5-.13l.64001-.38c.95001,1.63,2.71002,2.70001,4.64001,2.70001,2.96997,0,5.38-2.41003,5.38-5.38,0-.95001-.26001-1.87-.73004-2.67999ZM47.95001,31.91998c0-1.06.85999-1.91998,1.91998-1.91998h1.91003v2.38h-3.83002v-.46002ZM31,13c0,1.09998-.90002,2-2,2s-2-.90002-2-2h4ZM10.62,9h18.76001l1,2H9.62l1-2ZM25,13c0,1.09998-.90002,2-2,2s-2-.90002-2-2h4ZM19,13c0,1.09998-.90002,2-2,2s-2-.90002-2-2h4ZM9,13h4c0,1.09998-.90002,2-2,2s-2-.90002-2-2ZM18,32h-4v-8h4v8ZM20,32v-9c0-.54999-.45001-1-1-1h-6c-.54999,0-1,.45001-1,1v9h-2v-15.14001c.32001.08002.65002.14001,1,.14001,1.20001,0,2.27002-.54004,3-1.38.72998.83997,1.79999,1.38,3,1.38s2.27002-.54004,3-1.38c.72998.83997,1.79999,1.38,3,1.38s2.27002-.54004,3-1.38c.72998.83997,1.79999,1.38,3,1.38.34998,0,.67999-.06,1-.14001v5.14001h-7c-.54999,0-1,.45001-1,1v6c0,.54999.45001,1,1,1h7v2h-10ZM30,24v4h-6v-4h6ZM25,35c0-.54999.45001-1,1-1h12c.54999,0,1,.45001,1,1s-.45001,1-1,1h-12c-.54999,0-1-.45001-1-1ZM29.42999,55c-1.77002,0-3.21002-1.37-3.34998-3.10999h6.70001c-.14001,1.73999-1.58002,3.10999-3.35004,3.10999ZM21.78003,49.89001c.79999-3.68005,5.81995-6.76001,9.83997-6.76001,3.97998,0,5.23999,3.14996,5.51001,6.28998l-.01001.01001c0,.02002.01001.02997.01001.03998.01001.14001.02002.28003.02997.42004h-15.37994ZM44.21997,48.42999h-5.19995c-.66003-4.66998-3.27002-7.29999-7.40002-7.29999-2.25,0-4.67999.76001-6.77002,2.02997.03003-.08997.05005-.17999.08002-.26001.66003-1.77997,1.59003-3.40997,2.78003-4.87h8.92999c.32996,0,.66998.10004.94.28003.57996.39001.87,1.08002.72998,1.76001l-.13.67999c-.19431,1.01634.04916,2.12824.66003,2.95996.84998,1.13,2.20996,1.81,3.63995,1.81.42999,0,.85004-.06,1.23999-.16998.99005-.27997,1.94-.77997,2.74005-1.45001.81-.65997,1.45996-1.47998,1.94-2.42999,1.09998-2.20996,1.15997-4.83997.14996-7.08997h1.26001l.15997.60999c.52002,2.08997.79004,4.27002.79004,6.46997,0,.88-.06,1.74005-.14001,2.60004-1.20001-.01001-2.38.29999-3.44.90997-1.37.79004-2.39996,2-2.96002,3.46002ZM46,52.39001c-.28998-.88-.32001-1.83002-.07001-2.75.33002-1.25,1.13-2.29004,2.25-2.94.73999-.43005,1.56-.65002,2.40002-.65002.41998,0,.84998.06,1.26996.16998.92004.25,1.73004.75,2.34003,1.44l-8.19,4.73004ZM51.32001,55c-1.21002,0-2.32001-.67004-2.91003-1.69l5.83002-3.37c.29999.51001.46002,1.07996.46002,1.67999,0,1.85999-1.51001,3.38-3.38,3.38Z"/>
</svg>