<?xml version="1.0" encoding="UTF-8"?>
<svg id="Outline" xmlns="http://www.w3.org/2000/svg" version="1.1" viewBox="0 0 64 64">
  <!-- Generator: Adobe Illustrator 29.5.1, SVG Export Plug-In . SVG Version: 2.1.0 Build 141)  -->
  <path d="M26,20.903v3.097c0,.552.448,1,1,1s1-.448,1-1v-3.097c1.894-.356,3-1.754,3-3.903,0-2.505-1.522-6-4-6s-4,3.495-4,6c0,2.149,1.106,3.546,3,3.903ZM27,13c.826,0,2,2.069,2,4,0,1.383-.617,2-2,2s-2-.617-2-2c0-1.931,1.174-4,2-4Z"/>
  <path d="M34,11c-.552,0-1,.448-1,1v5c0,1.858,1.28,3.411,3,3.858v3.142c0,.552.448,1,1,1s1-.448,1-1v-3.142c1.72-.447,3-2,3-3.858v-5c0-.552-.448-1-1-1s-1,.448-1,1v5c0,.737-.405,1.375-1,1.722v-6.722c0-.552-.448-1-1-1s-1,.448-1,1v6.722c-.595-.347-1-.985-1-1.722v-5c0-.552-.448-1-1-1Z"/>
  <path d="M57,31v-3c0-.06-.02-.12-.04-.18,0-.03.01-.07,0-.11l-2.96-9.86v-3.85c0-.55-.45-1-1-1h-8v-3c0-1.65-1.35-3-3-3h-12c-.55,0-1,.45-1,1s.45,1,1,1h12c.55,0,1,.45,1,1v16c0,.55-.45,1-1,1h-20c-.55,0-1-.45-1-1V10c0-.55.45-1,1-1s1-.45,1-1-.45-1-1-1c-1.65,0-3,1.35-3,3v3h-8c-.55,0-1,.45-1,1v3.85l-2.96,9.86c-.01.04,0,.08,0,.11-.02.06-.04.12-.04.18v3c0,1.47.81,2.75,2,3.44v9.74c-1.16.42-2,1.52-2,2.82,0,.53.14,1.05.41,1.5-.27.45-.41.97-.41,1.5,0,.46.11.9.3,1.29-.18.18-.3.43-.3.71v4c0,.55.45,1,1,1h48c.55,0,1-.45,1-1v-4c0-.28-.12-.53-.3-.71.19-.39.3-.83.3-1.29,0-.53-.14-1.05-.41-1.5.27-.45.41-.97.41-1.5,0-1.3-.84-2.4-2-2.82v-9.74c1.19-.69,2-1.97,2-3.44ZM45,15h7v2h-7v-2ZM45,26v-7h7.26l2.4,8h-9.84c.11-.31.18-.65.18-1ZM49,29v2c0,1.1-.9,2-2,2s-2-.9-2-2v-2h4ZM39,29h4v2c0,1.1-.9,2-2,2s-2-.9-2-2v-2ZM33,29h4v2c0,1.1-.9,2-2,2s-2-.9-2-2v-2ZM27,29h4v2c0,1.1-.9,2-2,2s-2-.9-2-2v-2ZM21,29h4v2c0,1.1-.9,2-2,2s-2-.9-2-2v-2ZM20,33.62c.73.84,1.8,1.38,3,1.38s2.27-.54,3-1.38c.73.84,1.8,1.38,3,1.38s2.27-.54,3-1.38c.73.84,1.8,1.38,3,1.38s2.27-.54,3-1.38c.73.84,1.8,1.38,3,1.38s2.27-.54,3-1.38c.73.84,1.8,1.38,3,1.38s2.27-.54,3-1.38c.73.84,1.8,1.38,3,1.38v8.19c-.32-.11-.65-.19-1-.19-.91,0-1.74.41-2.3,1.08-.74-.17-1.54-.05-2.2.33-.45-.27-.97-.41-1.5-.41-1.65,0-3,1.35-3,3,0,.24.03.47.08.7-.67.56-1.08,1.39-1.08,2.3,0,.35.07.69.18,1h-2.18v-13c0-.55-.45-1-1-1h-14c-.55,0-1,.45-1,1v13h-2.18c.11-.31.18-.65.18-1,0-.91-.41-1.74-1.08-2.3.05-.23.08-.46.08-.7,0-1.65-1.35-3-3-3-.53,0-1.05.14-1.5.41-.66-.38-1.46-.5-2.2-.33-.56-.67-1.39-1.08-2.3-1.08-.35,0-.68.08-1,.19v-8.19c1.2,0,2.27-.54,3-1.38.73.84,1.8,1.38,3,1.38s2.27-.54,3-1.38ZM38,39v12h-5v-12h5ZM31,39v12h-5v-12h5ZM15,31v-2h4v2c0,1.1-.9,2-2,2s-2-.9-2-2ZM12,15h7v2h-7v-2ZM11.74,19h7.26v7c0,.35.07.69.18,1h-9.84l2.4-8ZM9,29h4v2c0,1.1-.9,2-2,2s-2-.9-2-2v-2ZM9.35,47.75c-.13-.12-.35-.37-.35-.75,0-.55.44-.99,1.02-.99h.01c.01,0,.1.01.11.01.4.05.79-.14.99-.49.19-.33.51-.53.87-.53.42,0,.8.27.94.67.1.29.33.52.62.62.29.1.61.05.87-.11.17-.12.37-.18.57-.18.38,0,.63.22.75.35.38.43,1.12.43,1.5,0,.12-.13.37-.35.75-.35.55,0,1,.45,1,1,0,.2-.06.4-.18.57-.17.26-.21.58-.11.87.1.29.33.52.62.62.4.14.67.52.67.94,0,.55-.45,1-1,1h-9c-.55,0-1-.45-1-1,0-.38.22-.63.35-.75.22-.19.34-.46.34-.75s-.12-.56-.34-.75ZM55,55H9v-2h46v2ZM54.65,49.25c.13.12.35.37.35.75,0,.55-.45,1-1,1h-9c-.55,0-1-.45-1-1,0-.42.27-.8.67-.94.29-.1.52-.33.62-.62.1-.29.06-.61-.11-.87-.12-.17-.18-.37-.18-.57,0-.55.45-1,1-1,.38,0,.63.22.75.35.38.43,1.12.43,1.5,0,.12-.13.37-.35.75-.35.2,0,.4.06.57.18.26.16.58.21.87.11.29-.1.52-.33.62-.62.14-.4.52-.67.94-.67.36,0,.68.2.87.53.2.35.6.54.99.49.01,0,.13-.02.14-.02.55,0,1,.45,1,1,0,.38-.22.63-.35.75-.22.19-.34.46-.34.75s.12.56.34.75ZM53,33c-1.1,0-2-.9-2-2v-2h4v2c0,1.1-.9,2-2,2Z"/>
  <circle cx="26" cy="8" r="1"/>
</svg>