<?xml version="1.0" encoding="UTF-8"?>
<svg id="Outline" xmlns="http://www.w3.org/2000/svg" version="1.1" viewBox="0 0 48 48">
  <!-- Generator: Adobe Illustrator 29.0.0, SVG Export Plug-In . SVG Version: 2.1.0 Build 186)  -->
  <path d="M40,15h-8.26001c.16003-.64001.26001-1.31.26001-2,0-4.41003-3.59003-8-8-8s-8,3.58997-8,8c0,.69.09998,1.35999.26001,2h-8.26001c-1.65002,0-3,1.34998-3,3v24c0,.54999.45001,1,1,1h36c.54999,0,1-.45001,1-1v-24c0-1.65002-1.34998-3-3-3ZM24,7c3.31,0,6,2.69,6,6,0,2.96997-2.16998,5.42999-5,5.90997v-3.03998c.88-.22003,1.66998-.72003,2.25-1.46002.78998-1,1.06-2.28998.75-3.53998l-.03003-.12c-.13995-.53003-.67999-.85999-1.21997-.72003-.53003.14001-.84998.67999-.71997,1.22003l.02997.10999c.15997.64001.02002,1.29999-.39001,1.82001-.17999.23999-.40997.40997-.66998.53998v-2.71997c0-.54999-.45001-1-1-1s-1,.45001-1,1v2.71997c-.26001-.13-.48999-.29999-.66998-.53998-.41003-.52002-.54999-1.17999-.39001-1.82001l.02997-.10999c.13-.54004-.18994-1.08002-.71997-1.22003-.53998-.13995-1.08002.19-1.21997.72003l-.03003.13c-.31,1.23999-.03998,2.52997.75,3.52997.58002.73999,1.37,1.23999,2.25,1.46002v3.03998c-2.83002-.47998-5-2.94-5-5.90997,0-3.31,2.69-6,6-6ZM7,18c0-.54999.45001-1,1-1h9.08002c.44.75,1,1.42999,1.64996,2H7v-1ZM7,25h6v8h-6v-8ZM17,41H7v-2h10v2ZM29,41h-4v-15.90002c2.28003.47003,4,2.48999,4,4.90002v11ZM41,41h-10v-2h10v2ZM41,23h-7c-.54999,0-1,.45001-1,1v2c0,.54999.45001,1,1,1s1-.45001,1-1v-1h6v8h-6v-3c0-.54999-.45001-1-1-1s-1,.45001-1,1v4c0,.54999.45001,1,1,1h7v2h-10v-7c0-3.85999-3.14001-7-7-7s-7,3.14001-7,7v2c0,.54999.45001,1,1,1s1-.45001,1-1v-2c0-2.41003,1.71997-4.42999,4-4.90002v15.90002h-4v-5c0-.54999-.45001-1-1-1s-1,.45001-1,1v1H7v-2h7c.54999,0,1-.45001,1-1v-10c0-.54999-.45001-1-1-1h-7v-2h34v2ZM41,19h-11.72998c.64996-.57001,1.20996-1.25,1.64996-2h9.08002c.54999,0,1,.45001,1,1v1Z"/>
</svg>