<?xml version="1.0" encoding="UTF-8"?>
<svg id="Outline" xmlns="http://www.w3.org/2000/svg" version="1.1" viewBox="0 0 48 48">
  <!-- Generator: Adobe Illustrator 29.5.1, SVG Export Plug-In . SVG Version: 2.1.0 Build 141)  -->
  <path d="M22,15c-.552,0-1,.448-1,1v4c0,1.302-.839,2.402-2,2.816v-6.816c0-.552-.448-1-1-1s-1,.448-1,1v6.816c-1.161-.414-2-1.514-2-2.816v-4c0-.552-.448-1-1-1s-1,.448-1,1v4c0,2.414,1.721,4.434,4,4.899v13.101c0,.552.448,1,1,1s1-.448,1-1v-13.101c2.279-.465,4-2.484,4-4.899v-4c0-.552-.448-1-1-1Z"/>
  <path d="M40,41h-1V11.62c.61-.71,1-1.61,1-2.62v-3c0-.55-.45-1-1-1H9c-.55,0-1,.45-1,1v3c0,1.01.39,1.91,1,2.62v29.38h-1c-.55,0-1,.45-1,1s.45,1,1,1h32c.55,0,1-.45,1-1s-.45-1-1-1ZM28,7h4v2c0,1.1-.9,2-2,2s-2-.9-2-2v-2ZM22,7h4v2c0,1.1-.9,2-2,2s-2-.9-2-2v-2ZM16,7h4v2c0,1.1-.9,2-2,2s-2-.9-2-2v-2ZM10,9v-2h4v2c0,1.1-.9,2-2,2s-2-.9-2-2ZM37,41H11V12.86c.32.08.65.14,1,.14,1.2,0,2.27-.54,3-1.38.73.84,1.8,1.38,3,1.38s2.27-.54,3-1.38c.73.84,1.8,1.38,3,1.38s2.27-.54,3-1.38c.73.84,1.8,1.38,3,1.38s2.27-.54,3-1.38c.73.84,1.8,1.38,3,1.38.35,0,.68-.06,1-.14v28.14ZM38,9c0,1.1-.9,2-2,2s-2-.9-2-2v-2h4v2Z"/>
  <path d="M35,22c0-3.925-2.196-7-5-7s-5,3.075-5,7c0,2.589.959,4.802,2.414,6.013l-.981,6.877c-.148,1.034.16,2.08.845,2.869.685.79,1.677,1.242,2.722,1.242s2.037-.453,2.722-1.242c.685-.789.993-1.835.845-2.869l-.981-6.877c1.455-1.211,2.414-3.423,2.414-6.013ZM27,22c0-2.71,1.374-5,3-5s3,2.29,3,5-1.374,5-3,5-3-2.29-3-5ZM31.587,35.171c.066.467-.067.92-.376,1.276-.609.702-1.812.702-2.422,0-.309-.356-.442-.809-.376-1.276l.891-6.244c.228.043.459.073.696.073s.469-.03.696-.073l.891,6.244Z"/>
</svg>