<?xml version="1.0" encoding="UTF-8"?>
<svg id="Outline" xmlns="http://www.w3.org/2000/svg" version="1.1" viewBox="0 0 64 64">
  <!-- Generator: Adobe Illustrator 29.5.1, SVG Export Plug-In . SVG Version: 2.1.0 Build 141)  -->
  <path d="M32,7c-13.79,0-25,11.21-25,25s11.21,25,25,25,25-11.21,25-25S45.79,7,32,7ZM32,55c-12.68,0-23-10.32-23-23s10.32-23,23-23,23,10.32,23,23-10.32,23-23,23Z"/>
  <path d="M44.95,21c-.37-3.94-2.9-7-5.95-7-1.25,0-2.41.51-3.38,1.39-1.19-.25-2.41-.39-3.62-.39-.34,0-.67.03-1,.05v-.05c0-.55-.45-1-1-1s-1,.45-1,1v.28c-1.04.19-2.04.47-3,.83v-1.11c0-.55-.45-1-1-1s-1,.45-1,1v2.01c-1.08.57-2.08,1.27-3,2.05v-4.06c0-.55-.45-1-1-1s-1,.45-1,1v6.07c-2.49,2.96-4,6.77-4,10.93,0,4.57,1.78,8.82,5,12.02v2.98c0,1.65,1.35,3,3,3h4c.98,0,1.85-.48,2.4-1.21.85.13,1.71.21,2.6.21s1.75-.08,2.6-.21c.55.73,1.42,1.21,2.4,1.21h4c1.65,0,3-1.35,3-3v-2.98c3.22-3.2,5-7.45,5-12.02,0-4.04-1.44-7.93-4.05-11ZM39,16c2.17,0,4,2.75,4,6,0,1.63-.44,3.15-1.23,4.3-1.11,1.6-1.72,3.56-1.77,5.7h-2c-.05-2.14-.66-4.1-1.77-5.7-.79-1.15-1.23-2.67-1.23-4.3,0-3.25,1.83-6,4-6ZM26,18.26c.95-.42,1.96-.74,3-.96v4.7h-3v-3.74ZM21,21.84c.89-.96,1.89-1.8,3-2.51v2.67h-3v-.16ZM21,24h8v2.46l-2.55,1.71c-.28.18-.45.5-.45.83v3h-2v-3c0-.33-.17-.65-.45-.83l-2.55-1.71v-2.46ZM20,33v7.98c-1.94-2.57-3-5.68-3-8.98,0-2.71.73-5.25,2-7.45v2.45c0,.33.17.65.45.83l2.55,1.71v2.46h-1c-.55,0-1,.45-1,1ZM42,47c0,.55-.45,1-1,1h-4c-.55,0-1-.45-1-1v-5c0-.55-.45-1-1-1s-1,.45-1,1v4.85c-1.32.18-2.68.18-4,0v-4.85c0-.55-.45-1-1-1s-1,.45-1,1v5c0,.55-.45,1-1,1h-4c-.55,0-1-.45-1-1v-13h6v4c0,.55.45,1,1,1s1-.45,1-1v-5c0-.55-.45-1-1-1h-1v-2.46l2.55-1.71c.28-.18.45-.5.45-.83v-9.95c.33-.02.66-.05,1-.05.74,0,1.49.06,2.23.17-.77,1.34-1.23,3.01-1.23,4.83,0,2.03.56,3.96,1.59,5.44.87,1.26,1.34,2.83,1.39,4.56h-.98c-.55,0-1,.45-1,1v5c0,.55.45,1,1,1s1-.45,1-1v-4h6v13ZM43,32h-.98c.05-1.73.52-3.3,1.39-4.56.66-.95,1.1-2.09,1.35-3.32,1.45,2.36,2.24,5.08,2.24,7.88,0,3.3-1.06,6.41-3,8.98v-7.98c0-.55-.45-1-1-1Z"/>
</svg>