<?xml version="1.0" encoding="UTF-8"?>
<svg id="Outline" xmlns="http://www.w3.org/2000/svg" version="1.1" viewBox="0 0 64 64">
  <!-- Generator: Adobe Illustrator 29.0.0, SVG Export Plug-In . SVG Version: 2.1.0 Build 186)  -->
  <path d="M56,55h-3v-23.38c.60999-.71002,1-1.60999,1-2.62v-3c0-.02002-.01001-.04004-.01001-.06,0-.02002.01001-.03003,0-.04999l-2-18c-.04999-.51001-.47998-.89001-.98999-.89001H13c-.51001,0-.94.38-.98999.89001l-2,18c-.01001.01996,0,.02997,0,.04999,0,.01996-.01001.03998-.01001.06v3c0,1.01001.39001,1.90997,1,2.62v6.38c0,.54999.45001,1,1,1s1-.45001,1-1v-5.14001c.32001.08002.65002.14001,1,.14001,1.20001,0,2.27002-.54004,3-1.38.72998.83997,1.79999,1.38,3,1.38s2.27002-.54004,3-1.38c.72998.83997,1.79999,1.38,3,1.38s2.27002-.54004,3-1.38c.72998.83997,1.79999,1.38,3,1.38s2.27002-.54004,3-1.38c.72998.83997,1.79999,1.38,3,1.38s2.27002-.54004,3-1.38c.72998.83997,1.79999,1.38,3,1.38s2.27002-.54004,3-1.38c.72998.83997,1.79999,1.38,3,1.38.34998,0,.67999-.06,1-.14001v22.14001h-26v-13c0-.54999-.45001-1-1-1h-8c-.54999,0-1,.45001-1,1v13h-2v-9c0-.54999-.45001-1-1-1s-1,.45001-1,1v9h-3c-.54999,0-1,.45001-1,1s.45001,1,1,1h48c.54999,0,1-.45001,1-1s-.45001-1-1-1ZM16,29c0,1.09998-.90002,2-2,2s-2-.90002-2-2v-2h4v2ZM15.10999,25h-2.98999l1.78003-16h2.97998l-1.77002,16ZM18.89001,9h2.98999l-1.77002,16h-2.98999l1.77002-16ZM22,29c0,1.09998-.90002,2-2,2s-2-.90002-2-2v-2h4v2ZM22.12,25l1.77002-16h2.98999l-1.77002,16h-2.98999ZM28,29c0,1.09998-.90002,2-2,2s-2-.90002-2-2v-2h4v2ZM27.12,25l1.77002-16h2.10999v16h-3.88ZM34,29c0,1.09998-.90002,2-2,2s-2-.90002-2-2v-2h4v2ZM33,25V9h2.10999l1.77002,16h-3.88ZM40,29c0,1.09998-.90002,2-2,2s-2-.90002-2-2v-2h4v2ZM38.89001,25l-1.77002-16h2.98999l1.77002,16h-2.98999ZM46,29c0,1.09998-.90002,2-2,2s-2-.90002-2-2v-2h4v2ZM43.89001,25l-1.77002-16h2.98999l1.77002,16h-2.98999ZM23,55h-6v-12h6v12ZM50.09998,9l1.78003,16h-2.98999l-1.77002-16h2.97998ZM52,29c0,1.09998-.90002,2-2,2s-2-.90002-2-2v-2h4v2Z"/>
  <path d="M48,35h-20c-.54999,0-1,.45001-1,1v16c0,.54999.45001,1,1,1h20c.54999,0,1-.45001,1-1v-16c0-.54999-.45001-1-1-1ZM38,40c.54999,0,1,.45001,1,1v1h-2v-1c0-.54999.45001-1,1-1ZM47,51h-2v-6c0-.54999-.45001-1-1-1s-1,.45001-1,1v6h-4v-2h1c.54999,0,1-.45001,1-1s-.45001-1-1-1h-4c-.54999,0-1,.45001-1,1s.45001,1,1,1h1v2h-4v-6c0-.54999-.45001-1-1-1s-1,.45001-1,1v6h-2v-14h8v1.17999c-1.15997.41998-2,1.52002-2,2.82001v2c0,.54999.45001,1,1,1h4c.54999,0,1-.45001,1-1v-2c0-1.29999-.84003-2.40002-2-2.82001v-1.17999h8v14Z"/>
  <circle cx="12" cy="42" r="1"/>
</svg>