<?xml version="1.0" encoding="UTF-8"?>
<svg id="Outline" xmlns="http://www.w3.org/2000/svg" version="1.1" viewBox="0 0 64 64">
  <!-- Generator: Adobe Illustrator 29.5.1, SVG Export Plug-In . SVG Version: 2.1.0 Build 141)  -->
  <path d="M56.53,20.15l-8-5-.01.01c-.15-.09-.33-.16-.52-.16H16c-.19,0-.37.07-.52.16l-.01-.01-8,5c-.23.15-.39.38-.45.64-.05.26,0,.54.15.76l2,3c.19.29.51.45.83.45.17,0,.34-.04.5-.13l3.33-1.91-.82,4.88c-.05.29.04.58.23.81.19.22.47.35.76.35h1v17c0,1.65,1.35,3,3,3h28c1.65,0,3-1.35,3-3v-17h1c.29,0,.57-.13.76-.35.19-.23.28-.52.23-.81l-.82-4.88,3.33,1.91c.16.09.33.13.5.13.32,0,.64-.16.83-.45l2-3c.15-.22.2-.5.15-.76-.06-.26-.22-.49-.45-.64ZM14.25,20.42l-3.94,2.25-.91-1.37,5.25-3.28-.4,2.4ZM47,46c0,.55-.45,1-1,1h-28c-.55,0-1-.45-1-1v-17h30v17ZM15.18,27l1.67-10h30.3l1.67,10H15.18ZM53.69,22.67l-3.94-2.25-.4-2.4,5.25,3.28-.91,1.37Z"/>
  <path d="M20,36c.553,0,1-.448,1-1v-2h2c.553,0,1-.448,1-1s-.447-1-1-1h-3c-.553,0-1,.448-1,1v3c0,.552.447,1,1,1Z"/>
  <path d="M41,33h2v2c0,.552.447,1,1,1s1-.448,1-1v-3c0-.552-.447-1-1-1h-3c-.553,0-1,.448-1,1s.447,1,1,1Z"/>
  <path d="M20,45h3c.553,0,1-.448,1-1s-.447-1-1-1h-2v-2c0-.552-.447-1-1-1s-1,.448-1,1v3c0,.552.447,1,1,1Z"/>
  <path d="M41,45h3c.553,0,1-.448,1-1v-3c0-.552-.447-1-1-1s-1,.448-1,1v2h-2c-.553,0-1,.448-1,1s.447,1,1,1Z"/>
  <path d="M26,40c.553,0,1-.448,1-1v-7c0-.552-.447-1-1-1s-1,.448-1,1v7c0,.552.447,1,1,1Z"/>
  <path d="M26,45c.553,0,1-.448,1-1v-1c0-.552-.447-1-1-1s-1,.448-1,1v1c0,.552.447,1,1,1Z"/>
  <path d="M30,45c.553,0,1-.448,1-1v-6c0-.552-.447-1-1-1s-1,.448-1,1v6c0,.552.447,1,1,1Z"/>
  <path d="M30,35c.553,0,1-.448,1-1v-2c0-.552-.447-1-1-1s-1,.448-1,1v2c0,.552.447,1,1,1Z"/>
  <path d="M34,40c.553,0,1-.448,1-1v-7c0-.552-.447-1-1-1s-1,.448-1,1v7c0,.552.447,1,1,1Z"/>
  <path d="M34,45c.553,0,1-.448,1-1v-1c0-.552-.447-1-1-1s-1,.448-1,1v1c0,.552.447,1,1,1Z"/>
  <path d="M38,45c.553,0,1-.448,1-1v-6c0-.552-.447-1-1-1s-1,.448-1,1v6c0,.552.447,1,1,1Z"/>
  <path d="M38,35c.553,0,1-.448,1-1v-2c0-.552-.447-1-1-1s-1,.448-1,1v2c0,.552.447,1,1,1Z"/>
</svg>