<?xml version="1.0" encoding="UTF-8"?>
<svg id="Outline" xmlns="http://www.w3.org/2000/svg" version="1.1" viewBox="0 0 64 64">
  <!-- Generator: Adobe Illustrator 29.5.1, SVG Export Plug-In . SVG Version: 2.1.0 Build 141)  -->
  <circle cx="16" cy="52" r="1"/>
  <circle cx="48" cy="52" r="1"/>
  <path d="M53.4,32.15c-1.53-1.9-3.5-3.47-5.7-4.53-2.19-1.06-4.65-1.62-7.1-1.62h-.6c-.55,0-1,.45-1,1v19h-4v-2c0-.55-.45-1-1-1H8c-.55,0-1,.45-1,1v7c0,.55.45,1,1,1h3c0,2.76,2.24,5,5,5s5-2.24,5-5h22c0,2.76,2.24,5,5,5s5-2.24,5-5h3c.55,0,1-.45,1-1v-8.6c0-3.71-1.28-7.35-3.6-10.25ZM16,55c-1.65,0-3-1.35-3-3s1.35-3,3-3,3,1.35,3,3-1.35,3-3,3ZM33,50h-12.42c-.78-1.76-2.53-3-4.58-3s-3.8,1.24-4.58,3h-2.42v-5h24v5ZM39,50h-4v-2h4v2ZM48,55c-1.65,0-3-1.35-3-3s1.35-3,3-3,3,1.35,3,3-1.35,3-3,3ZM55,50h-2.42c-.78-1.76-2.53-3-4.58-3s-3.8,1.24-4.58,3h-2.42v-21.99c2.02.05,4.03.54,5.83,1.41,1.94.93,3.67,2.31,5.01,3.99,2.04,2.54,3.16,5.73,3.16,8.99v7.6Z"/>
  <path d="M32.4,21.04l-9.06-7.18c.41-.52.66-1.16.66-1.86,0-.95-.46-1.86-1.23-2.42-.16-.12-.37-.32-.54-.58h10.77c.55,0,1-.45,1-1s-.45-1-1-1H9c-.55,0-1,.45-1,1s.45,1,1,1h11.09c.2.84.72,1.62,1.5,2.19.26.19.41.49.41.81,0,.55-.45,1-1,1s-1-.45-1-1-.45-1-1-1-1,.45-1,1c0,.7.25,1.34.66,1.86l-9.06,7.18c-1.46.2-2.6,1.44-2.6,2.96v14c0,1.65,1.35,3,3,3h22c1.65,0,3-1.35,3-3v-14c0-1.52-1.14-2.76-2.6-2.96ZM20.5,14.95c.17.03.33.05.5.05s.33-.02.5-.05l7.63,6.05H12.87l7.63-6.05ZM33,38c0,.55-.45,1-1,1H10c-.55,0-1-.45-1-1v-14c0-.55.45-1,1-1h22c.55,0,1,.45,1,1v14Z"/>
  <path d="M45.971,31.222c-.537-.263-1.103-.484-1.682-.659-.303-.094-.632-.035-.885.154-.255.188-.404.486-.404.803v7.48c0,.553.527,1,1.08,1,1.724,0,3.421.47,4.912,1.361.875.517,1.783.913,2.698,1.179.092.027.186.04.279.04.227,0,.449-.077.63-.223.254-.207.392-.524.367-.852-.187-2.52-1.115-4.889-2.688-6.853-1.16-1.442-2.652-2.629-4.309-3.432ZM50.014,39.642c-1.518-.907-3.217-1.453-5.014-1.601v-5.066c.031.015.063.03.095.046,1.396.676,2.65,1.674,3.625,2.885.956,1.195,1.642,2.617,1.999,4.117-.237-.116-.473-.243-.705-.381Z"/>
  <path d="M46,42h-2c-.553,0-1,.447-1,1s.447,1,1,1h2c.553,0,1-.447,1-1s-.447-1-1-1Z"/>
  <path d="M21,37c.12,0,.241-.002.284-.011,1.06-.046,2.078-.389,2.958-.952v.62c0,.553.447,1,1,1s1-.447,1-1v-2.829c0-.553-.447-1-1-1h-2.828c-.553,0-1,.447-1,1,0,.482.348.865.802.96-.35.112-.713.192-1.097.21-.02.002-.04.003-.06.003-1.885-.019-3.516-1.241-3.947-3.062-.127-.537-.667-.871-1.203-.742-.537.127-.87.665-.742,1.203.641,2.708,3.039,4.6,5.833,4.6Z"/>
  <path d="M16.758,29.172h2.828c.553,0,1-.447,1-1,0-.482-.347-.865-.802-.96.35-.112.713-.192,1.096-.21.02-.002.04-.003.06-.003,1.904-.015,3.516,1.241,3.947,3.062.108.46.519.77.972.77.636,0,1.121-.611.974-1.23-.641-2.708-3.039-4.6-5.833-4.6-.12,0-.241.002-.284.011-1.06.046-2.078.389-2.958.952v-.62c0-.553-.447-1-1-1s-1,.447-1,1v2.829c0,.553.447,1,1,1Z"/>
</svg>