<?xml version="1.0" encoding="UTF-8"?>
<svg id="Outline" xmlns="http://www.w3.org/2000/svg" version="1.1" viewBox="0 0 64 64">
  <!-- Generator: Adobe Illustrator 29.3.1, SVG Export Plug-In . SVG Version: 2.1.0 Build 151)  -->
  <path d="M57,17v-8c0-1.10004-.90002-2-2-2H9c-1.09998,0-2,.89996-2,2v8c0,1.09998.90002,2,2,2v12c0,.54999.45001,1,1,1s1-.45001,1-1v-12h14v5c0,.32001.15002.62.41998.81.26001.19.59003.23999.90002.14001l5.67999-1.90002,5.67999,1.90002c.10999.02997.21002.04999.32001.04999.21002,0,.40997-.06.58002-.19.26996-.19.41998-.48999.41998-.81v-5h4c.54999,0,1-.45001,1-1s-.45001-1-1-1h-4v-8h10v8h-2c-.54999,0-1,.45001-1,1s.45001,1,1,1h6v12.83997c-2.73999-2.96997-6.65002-4.83997-11-4.83997-8.27002,0-15,6.72998-15,15,0,1.76001.32001,3.42999.88,5H11v-12c0-.54999-.45001-1-1-1s-1,.45001-1,1v12c0,1.09998.90002,2,2,2h17.73999c2.52002,4.75,7.52002,8,13.26001,8,8.27002,0,15-6.73004,15-15,0-2.71002-.72998-5.25-2-7.45001v-15.54999c1.09998,0,2-.90002,2-2ZM13,17h-4v-8h4v8ZM25,17h-10v-8h10v8ZM37,22.60999l-4.67999-1.56c-.10999-.03003-.21002-.04999-.32001-.04999s-.21002.01996-.32001.04999l-4.67999,1.56v-13.60999h10v13.60999ZM42,55c-7.16998,0-13-5.83002-13-13s5.83002-13,13-13,13,5.82996,13,13-5.83002,13-13,13ZM51,17v-8h4v8h-4Z"/>
  <path d="M13,43c0,1.10254.89697,2,2,2h8c1.10303,0,2-.89746,2-2v-2c0-1.10254-.89697-2-2-2h-8c-1.10303,0-2,.89746-2,2v2ZM15,41h8l.00146,2h-8.00146v-2Z"/>
  <path d="M22,37c.55225,0,1-.44727,1-1s-.44775-1-1-1h-8c-.55225,0-1,.44727-1,1s.44775,1,1,1h8Z"/>
  <path d="M44,38h-1v-2c0-.34668-.17969-.66797-.47412-.85059-.29492-.18359-.66357-.19824-.97314-.04395l-10,5c-.33887.16992-.55273.51562-.55273.89453s.21387.72461.55273.89453l10,5c.30957.1543.67822.13867.97314-.04395.29443-.18262.47412-.50391.47412-.85059v-1.9834c3.13428.15918,6.05811,1.45508,8.29297,3.69043.19141.19141.44678.29297.70703.29297.12891,0,.25879-.02441.38281-.07617.37354-.1543.61719-.51953.61719-.92383,0-4.96289-4.0376-9-9-9ZM42.34326,42h-.34326c-.55225,0-1,.44727-1,1v1.38184l-6.76416-3.38184,6.76416-3.38184v1.38184c0,.55273.44775,1,1,1h2c2.97949,0,5.53027,1.87109,6.53857,4.5-2.40088-1.62598-5.23096-2.5-8.19531-2.5Z"/>
</svg>