<?xml version="1.0" encoding="UTF-8"?>
<svg id="Outline" xmlns="http://www.w3.org/2000/svg" version="1.1" viewBox="0 0 64 64">
  <!-- Generator: Adobe Illustrator 29.5.1, SVG Export Plug-In . SVG Version: 2.1.0 Build 141)  -->
  <path d="M56.53,21.15l-8-5-.01.01c-.15-.09-.33-.16-.52-.16H16c-.19,0-.37.07-.52.16l-.01-.01-8,5c-.23.15-.39.38-.45.64-.05.26,0,.54.15.76l2,3c.19.29.51.45.83.45.17,0,.34-.04.5-.13l3.33-1.91-.82,4.88c-.04.29.04.58.23.81.19.22.47.35.76.35h1v15c0,1.65,1.35,3,3,3h28c1.65,0,3-1.35,3-3v-15h1c.29,0,.57-.13.76-.35.19-.23.27-.52.23-.81l-.82-4.88,3.33,1.91c.16.09.33.13.5.13.32,0,.64-.16.83-.45l2-3c.15-.22.2-.5.15-.76-.06-.26-.22-.49-.45-.64ZM14.25,21.42l-3.94,2.25-.91-1.37,5.25-3.28-.4,2.4ZM47,45c0,.55-.45,1-1,1h-28c-.55,0-1-.45-1-1v-15h30v15ZM15.18,28l1.67-10h30.3l1.67,10H15.18ZM53.69,23.67l-3.94-2.25-.4-2.4,5.25,3.28-.91,1.37Z"/>
  <path d="M28.293,41.707c.286.285.715.371,1.09.217.374-.155.617-.52.617-.924v-.983c3.134.159,6.058,1.456,8.293,3.69.192.192.448.293.708.293.595,0,1.066-.532.992-1.124-.63-5.04-4.919-8.845-9.992-8.876v-1c0-.404-.244-.769-.617-.924-.375-.156-.804-.07-1.09.217l-4,4c-.391.391-.391,1.023,0,1.414l4,4ZM28.063,35.351c.142.379.508.649.937.649h.938c3.022,0,5.705,1.67,7.105,4.179-2.291-1.42-4.937-2.179-7.7-2.179h-.343c-.429,0-.794.27-.937.649l-1.649-1.649,1.649-1.649Z"/>
</svg>