<?xml version="1.0" encoding="UTF-8"?>
<svg id="Outline" xmlns="http://www.w3.org/2000/svg" version="1.1" viewBox="0 0 64 64">
  <!-- Generator: Adobe Illustrator 29.3.1, SVG Export Plug-In . SVG Version: 2.1.0 Build 151)  -->
  <path d="M56.54992,25.46007c-.04999-.03998-.10999-.06-.15997-.08997l-24-10.29004c-.23004-.09998-.51001-.10999-.75-.00995,0,0-24,9.27997-24,9.28998-.06.03003-.12.04999-.17999.09003-.29004.17999-.46002.5-.46002.83997v6.71002c0,.54999.45001,1,1,1s1-.45001,1-1v-5.13l6,2.82001v9.31c0,.38.21002.71997.54999.89001l5.99998,2.99999c.65992.32996,1.45003-.1486,1.45003-.89v-8.41003l.15997-.07001,7.84003,3.69v16.27002l-22-9.42999v-4.04999c0-.54999-.45001-1-1-1s-1,.45001-1,1v4.70996c0,.40002.23999.76001.60999.92004l24,10.28998c.12.04999.26001.08002.39001.08002s.27002-.03003.39001-.08002l24-10.28998c.37-.16003.60999-.52002.60999-.92004v-18.41998c0-.33997-.16998-.64996-.45001-.83002ZM10.53991,25.38011l21.44-8.30005,4.23999,1.82001-20.19995,9.05005-5.48004-2.57001ZM20.99993,32.94011v7.44l-4-2v-7.75l4.09003,1.91998c-.05005.12-.09003.25-.09003.39001ZM18.41991,29.08007l20.29999-9.10999,5,2.14001-20.53998,9.21002-4.76001-2.24005ZM32.01995,35.47008l-6.45001-3.02997,20.64996-9.26001,7.25,3.10999-21.44995,9.17999ZM54.99993,44.0501l-22,9.42999v-16.25l22-9.41998v16.23999Z"/>
  <path d="M35.44928,49.77559c.28315.18648.63441.21723.94518.0839.00005-.00002,16-6.86035,16-6.86035.36719-.15723.60547-.51855.60547-.91895v-9.73047c0-.33594-.16895-.64941-.44922-.83496-.28125-.18555-.63477-.2168-.94531-.08398l-16,6.86035c-.36719.15723-.60547.51855-.60547.91895v9.73047c0,.33594.16895.64941.44935.83505ZM36.99993,39.86925l14-6.00293v7.55469l-14,6.00293v-7.55469Z"/>
  <path d="M47.59368,38.53038l-8,3.55566c-.50486.2246-.73143.81539-.50784,1.32026.21126.47702.81298.73336,1.32034.50787l8-3.55566c.50488-.22461.73145-.81543.50781-1.32031-.22461-.50488-.81543-.73047-1.32031-.50781Z"/>
  <path d="M45.2929,17.70714c.28711.28711.7168.37305,1.08984.2168.37402-.1543.61719-.51953.61719-.92383v-1h1.2168c2.17285,0,4.21484.8457,5.75098,2.38184l1.32519,1.32519c.65902.65902,1.81404.09171,1.69923-.83105-.62988-5.03906-4.91992-8.84473-9.99219-8.87598v-1c0-.4043-.24316-.76953-.61719-.92383-.37402-.15527-.80371-.06934-1.08984.2168l-4,4c-.39062.39062-.39062,1.02344,0,1.41406l4,4ZM45.0634,11.3507c.1416.37988.50781.64941.93652.64941h.9375c2.7832,0,5.27734,1.41602,6.74902,3.59863-1.61719-1.04102-3.5-1.59863-5.46973-1.59863h-2.2168c-.42871,0-.79492.26953-.93652.64941l-1.64941-1.64941,1.64941-1.64941Z"/>
  <circle cx="7.99993" cy="36.00011" r="1"/>
</svg>