<?xml version="1.0" encoding="UTF-8"?>
<svg id="Outline" xmlns="http://www.w3.org/2000/svg" version="1.1" viewBox="0 0 64 64">
  <!-- Generator: Adobe Illustrator 29.5.1, SVG Export Plug-In . SVG Version: 2.1.0 Build 141)  -->
  <path d="M54,11h-5.184c-.302-.847-.971-1.519-1.816-1.822v-1.178c0-.553-.448-1-1-1s-1,.447-1,1v1.178c-.844.303-1.514.974-1.816,1.822h-22.369c-.302-.847-.971-1.519-1.816-1.822v-1.178c0-.553-.448-1-1-1s-1,.447-1,1v1.178c-.844.303-1.514.974-1.816,1.822h-5.184c-1.654,0-3,1.346-3,3v40c0,1.654,1.346,3,3,3h44c1.654,0,3-1.346,3-3V14c0-1.654-1.346-3-3-3ZM46,11c.551,0,1,.448,1,1s-.449,1-1,1-1-.448-1-1,.449-1,1-1ZM18,11c.551,0,1,.448,1,1s-.449,1-1,1-1-.448-1-1,.449-1,1-1ZM55,54c0,.552-.449,1-1,1H10c-.551,0-1-.448-1-1V19h46v35ZM55,17H9v-3c0-.552.449-1,1-1h5.184c.414,1.161,1.514,2,2.816,2s2.402-.839,2.816-2h22.369c.414,1.161,1.514,2,2.816,2s2.402-.839,2.816-2h5.184c.551,0,1,.448,1,1v3Z"/>
  <path d="M32,52c4.253,0,8.323-1.817,11.166-4.985,2.883-3.213,4.212-7.362,3.743-11.686-.734-6.772-6.167-12.323-12.917-13.199-4.347-.565-8.615.735-11.869,3.58l-.73-.73c-.287-.286-.716-.374-1.09-.217-.374.154-.617.52-.617.924v5.656c0,.553.448,1,1,1h5.657c.404,0,.769-.244.924-.617.155-.374.069-.804-.217-1.09l-.667-.667c1.59-1.276,3.551-1.969,5.617-1.969,2.45,0,4.742.969,6.452,2.728,1.709,1.758,2.613,4.076,2.544,6.529-.131,4.688-4.051,8.609-8.739,8.739-4.478.147-8.404-3.104-9.136-7.512-.239-1.439-1.438-2.484-2.852-2.484-.937,0-1.799.276-2.425,1.009-.553.646-.794,1.501-.661,2.345,1.156,7.328,7.388,12.646,14.816,12.646ZM19.37,38.312c.241-.283.554-.312.899-.312.438,0,.8.334.879.812.895,5.388,5.703,9.344,11.164,9.184,5.73-.16,10.523-4.952,10.683-10.683.084-2.998-1.021-5.832-3.11-7.98-2.09-2.149-4.891-3.333-7.886-3.333-2.916,0-5.66,1.129-7.733,3.179-.016.014-.031.028-.045.043-.303.303-.371.753-.204,1.121h-2.332v-2.34c.439.312.607.189.998-.092.043-.031.083-.065.121-.103,2.886-2.875,6.868-4.215,10.929-3.696,5.846.759,10.55,5.566,11.186,11.432.407,3.752-.745,7.351-3.243,10.135-2.465,2.746-5.992,4.321-9.678,4.321-6.438,0-11.839-4.608-12.841-10.958-.042-.266.044-.533.211-.73Z"/>
  <path d="M32.764,39h-2.764c-.552,0-1,.447-1,1s.448,1,1,1h1v1c0,.553.448,1,1,1s1-.447,1-1v-1.024c1.121-.12,2-1.06,2-2.212,0-.852-.473-1.617-1.236-2l-2.633-1.315c-.081-.041-.131-.122-.131-.212,0-.13.106-.236.236-.236h2.764c.552,0,1-.447,1-1s-.448-1-1-1h-1v-1c0-.553-.448-1-1-1s-1,.447-1,1v1.024c-1.121.12-2,1.06-2,2.212,0,.852.473,1.617,1.236,2l2.633,1.315c.081.041.131.122.131.212,0,.13-.106.236-.236.236Z"/>
</svg>