<?xml version="1.0" encoding="UTF-8"?>
<svg id="Outline" xmlns="http://www.w3.org/2000/svg" version="1.1" viewBox="0 0 48 48">
  <!-- Generator: Adobe Illustrator 29.5.1, SVG Export Plug-In . SVG Version: 2.1.0 Build 141)  -->
  <path d="M36,17h-1v-7c0-.28-.11-.53-.29-.71l-4-4c-.19-.18-.44-.29-.71-.29h-12c-.27,0-.52.11-.71.29l-4,4c-.18.18-.29.43-.29.71v7h-1c-1.65,0-3,1.35-3,3v20c0,1.65,1.35,3,3,3h24c1.65,0,3-1.35,3-3v-20c0-1.65-1.35-3-3-3ZM18.41,7h11.18l2,2h-15.18l2-2ZM33,11v12h-2v-12h2ZM29,11v6h-10v-6h10ZM15,11h2v12h-2v-12ZM37,40c0,.55-.45,1-1,1H12c-.55,0-1-.45-1-1v-20c0-.55.45-1,1-1h1v5c0,.55.45,1,1,1h4c.55,0,1-.45,1-1v-5h10v5c0,.55.45,1,1,1h4c.55,0,1-.45,1-1v-5h1c.55,0,1,.45,1,1v20Z"/>
  <path d="M24.293,28.707c.195.195.451.293.707.293s.512-.098.707-.293c.384-.384.386-1.001.014-1.393.426.156.835.361,1.209.632.809.593,1.44,1.44,1.778,2.39.146.409.531.664.942.664.681,0,1.171-.693.942-1.336-.478-1.341-1.335-2.493-2.484-3.333-.847-.616-1.808-1.014-2.823-1.202l.422-.422c.391-.391.391-1.023,0-1.414s-1.023-.391-1.414,0l-2,2c-.391.391-.391,1.023,0,1.414l2,2Z"/>
  <path d="M20.295,32.168c-.528-.144-1.074.17-1.221.699-.049-.283-.074-.572-.074-.867,0-.176.008-.353.025-.523.098-1.005.504-1.941,1.177-2.706.364-.415.323-1.047-.091-1.411-.415-.365-1.047-.323-1.412.091-.951,1.083-1.526,2.408-1.664,3.83-.023.232-.035.476-.035.72,0,.806.134,1.585.391,2.318l-.56-.15c-.532-.143-1.082.174-1.225.707s.173,1.082.707,1.225l2.732.732c.085.022.172.034.259.034.448,0,.85-.308.966-.741l.732-2.732c.143-.533-.173-1.082-.707-1.225Z"/>
  <path d="M30.662,33.875c-.068-.256-.236-.475-.466-.607-.23-.132-.504-.167-.759-.1l-2.732.732c-.534.143-.85.691-.707,1.225.138.517.658.821,1.173.71-.344.286-.713.544-1.123.729-.658.289-1.347.436-2.048.436-.331,0-.636-.027-.906-.08-.54-.112-1.068.244-1.175.786s.245,1.068.787,1.175c.397.079.833.119,1.294.119.979,0,1.939-.203,2.862-.608.945-.427,1.777-1.067,2.446-1.845l.155.578c.333,1.244,2.267.732,1.932-.518l-.732-2.732Z"/>
</svg>