<?xml version="1.0" encoding="UTF-8"?>
<svg id="Outline" xmlns="http://www.w3.org/2000/svg" version="1.1" viewBox="0 0 64 64">
  <!-- Generator: Adobe Illustrator 29.5.1, SVG Export Plug-In . SVG Version: 2.1.0 Build 141)  -->
  <path d="M29.501,50.416c-.156.529.146,1.086.675,1.243.764.227,1.546.341,2.324.341,1.354,0,2.644-.326,3.843-.974.905-.498,1.685-1.181,2.332-1.974l.153.572c.332,1.24,2.266.736,1.932-.518l-.731-2.732c-.068-.256-.236-.475-.466-.607-.195-.113-.536-.161-.759-.1l-2.732.732c-.533.143-.851.691-.707,1.225.144.534.691.851,1.225.707l.05-.013c-.379.365-.791.697-1.254.952-1.411.763-3.055.94-4.641.471-.53-.157-1.086.146-1.243.675Z"/>
  <path d="M34.207,34.293c-.391-.391-1.023-.391-1.414,0l-2,2c-.361.361-.37,1.044,0,1.414l2,2c.376.376,1.027.387,1.414,0,.391-.391.391-1.023,0-1.414l-.064-.064c.519.147,1.017.363,1.48.647,1.367.825,2.359,2.199,2.723,3.769.285,1.233,2.241.813,1.949-.451-.485-2.094-1.811-3.927-3.633-5.027-.876-.537-1.851-.885-2.864-1.051l.409-.409c.391-.391.391-1.023,0-1.414Z"/>
  <path d="M27.903,48.625l.732-2.732c.144-.533-.174-1.082-.707-1.225-.531-.144-1.081.173-1.225.707l-.016.061c-.114-.457-.193-.924-.197-1.404.011-.057.018-.114.019-.172.033-1.629.708-3.134,1.899-4.236.406-.375.431-1.008.056-1.413-.376-.408-1.009-.431-1.413-.056-1.559,1.441-2.482,3.483-2.54,5.61-.009.079-.012.162-.012.234,0,.984.19,1.93.528,2.819l-.563-.151c-.531-.142-1.08.173-1.225.707-.144.533.174,1.082.707,1.225l2.731.732c.24.064.532.03.759-.1.182-.104.407-.386.466-.607Z"/>
  <path d="M47.14,31.77c-.11-1.37-1.15-2.48-2.47-2.72.22-1.31.33-2.66.33-4.05,0-9.92-5.83-18-13-18s-13,8.08-13,18c0,1.39.11,2.74.33,4.05-1.32.24-2.36,1.35-2.47,2.72l-1.69,22c-.06.83.23,1.66.79,2.27s1.37.96,2.2.96h2.84c.55,0,1-.45,1-1s-.45-1-1-1h-2.84c-.28,0-.54-.11-.73-.32-.19-.2-.28-.47-.26-.75l1.69-22c.04-.53.46-.93.99-.93h24.3c.53,0,.95.4.99.93l1.69,22c.02.28-.07.55-.26.75-.19.21-.45.32-.73.32h-16.84c-.55,0-1,.45-1,1s.45,1,1,1h16.84c.83,0,1.64-.35,2.2-.96s.85-1.44.79-2.27l-1.69-22ZM36.68,29h-9.36c-.21-1.28-.32-2.62-.32-4,0-6.87,2.64-12,5-12s5,5.13,5,12c0,1.38-.11,2.72-.32,4ZM42.64,29h-3.93c.19-1.29.29-2.63.29-4,0-7.72-3.14-14-7-14s-7,6.28-7,14c0,1.37.1,2.71.29,4h-3.93c-.24-1.28-.36-2.62-.36-4,0-8.82,4.93-16,11-16s11,7.18,11,16c0,1.38-.12,2.72-.36,4Z"/>
  <circle cx="25" cy="56" r="1"/>
</svg>