<?xml version="1.0" encoding="UTF-8"?>
<svg id="Outline" xmlns="http://www.w3.org/2000/svg" version="1.1" viewBox="0 0 64 64">
  <!-- Generator: Adobe Illustrator 29.5.1, SVG Export Plug-In . SVG Version: 2.1.0 Build 141)  -->
  <path d="M39.58,41.346c-.395,0-.772.071-1.127.214l-8.952,3.644-1.4-.369c.274-1.076.202-2.223-.254-3.247-.558-1.251-1.62-2.226-2.916-2.674l-4.615-1.595c-1.145-.398-2.394-.364-3.517.092l-4.166,1.693c-.209-.51-.794-.755-1.302-.549l-3.706,1.506c-.246.101-.442.294-.545.538-.104.244-.105.52-.006.766l5.271,12.97c.158.388.532.623.927.623.126,0,.253-.023.376-.073l3.706-1.506c.246-.101.442-.294.545-.538.104-.244.105-.52.006-.766l-.188-.464s11.496.106,11.503.106c.74,0,1.399-.71,1.098-1.447-.207-.506-.782-.752-1.287-.555l-12.129-.112-3.513-8.646,4.165-1.692c.675-.274,1.423-.294,2.11-.056l4.616,1.596c.785.271,1.404.839,1.742,1.598.275.617.32,1.285.158,1.926l-6.022-1.588c-.526-.14-1.08.178-1.222.712-.141.534.178,1.081.712,1.222l9.67,2.55c.21.056.432.04.634-.041l9.254-3.768c.454-.183,1.104.046,1.312.549.208.511-.041,1.098-.551,1.307l-3.57,1.45c-.512.208-.759.791-.551,1.303.205.505.799.755,1.303.551l3.575-1.452c1.53-.63,2.269-2.385,1.645-3.915-.464-1.13-1.557-1.86-2.785-1.86ZM13.82,52.654l-4.518-11.117,1.853-.753s0,0,0,.001l4.135,10.175c.004.011.008.021.013.031l.37.909-1.854.753Z"/>
  <path d="M42,9.043c-8.271,0-15,6.729-15,15s6.729,15,15,15,15-6.729,15-15-6.729-15-15-15ZM54.949,23.043h-11.949v-11.949c6.37.488,11.461,5.579,11.949,11.949ZM29,24.043c0-6.83,5.299-12.435,12-12.949v12.949c0,.134.027.264.078.385.051.122.125.232.217.323l9.153,9.153c-2.275,1.951-5.223,3.139-8.447,3.139-7.168,0-13-5.832-13-13ZM51.861,32.491l-7.447-7.447h10.535c-.217,2.833-1.341,5.411-3.088,7.447Z"/>
  <circle cx="33" cy="48.957" r="1"/>
</svg>