<?xml version="1.0" encoding="UTF-8"?>
<svg id="Outline" xmlns="http://www.w3.org/2000/svg" version="1.1" viewBox="0 0 64 64">
  <!-- Generator: Adobe Illustrator 29.5.1, SVG Export Plug-In . SVG Version: 2.1.0 Build 141)  -->
  <path d="M11.998,14.998h4c.552,0,1-.447,1-1s-.448-1-1-1h-4c-.552,0-1,.447-1,1s.448,1,1,1Z"/>
  <path d="M21.998,14.998h16c.552,0,1-.447,1-1s-.448-1-1-1h-16c-.552,0-1,.447-1,1s.448,1,1,1Z"/>
  <path d="M11.998,18.998h4c.552,0,1-.447,1-1s-.448-1-1-1h-4c-.552,0-1,.447-1,1s.448,1,1,1Z"/>
  <path d="M21.998,18.998h16c.552,0,1-.447,1-1s-.448-1-1-1h-16c-.552,0-1,.447-1,1s.448,1,1,1Z"/>
  <path d="M11.998,22.998h4c.552,0,1-.447,1-1s-.448-1-1-1h-4c-.552,0-1,.447-1,1s.448,1,1,1Z"/>
  <path d="M21.998,22.998h16c.552,0,1-.447,1-1s-.448-1-1-1h-16c-.552,0-1,.447-1,1s.448,1,1,1Z"/>
  <path d="M46.463,37.478c-.11-.34-.393-.595-.741-.669l-3.737-.802-1.917-3.307c-.179-.308-.509-.498-.865-.498s-.686.189-.865.498l-1.917,3.307-3.737.802c-.349.074-.631.329-.741.669-.11.339-.031.711.207.977l2.552,2.844-.393,3.802c-.06.584.412,1.103.995,1.103.137,0,.275-.028.405-.086l3.494-1.548,3.494,1.548c.326.146.704.105.993-.105.289-.209.443-.557.407-.911l-.393-3.802,2.552-2.844c.238-.266.317-.638.207-.977ZM41.919,40.293c-.188.21-.28.49-.25.771l.261,2.526-2.322-1.028c-.259-.115-.552-.115-.811,0l-2.322,1.028.261-2.526c.029-.28-.062-.561-.25-.771l-1.696-1.89,2.483-.533c.275-.059.514-.231.655-.476l1.274-2.197,1.273,2.197c.142.244.379.417.655.476l2.483.533-1.696,1.89Z"/>
  <path d="M19.308,27.186c-.11-.34-.393-.595-.741-.669l-1.652-.354-.847-1.462c-.357-.617-1.373-.617-1.73,0l-.847,1.462-1.652.354c-.349.074-.631.329-.741.669-.11.339-.031.711.207.977l1.128,1.257-.174,1.681c-.037.354.118.702.407.911.289.211.667.25.993.105l1.544-.685,1.544.685c.13.058.267.086.405.086.588,0,1.055-.516.995-1.103l-.173-1.681,1.128-1.257c.238-.266.317-.638.207-.977ZM16.189,28.414c-.188.21-.279.49-.25.771l.042.405-.372-.165c-.129-.058-.267-.086-.405-.086s-.276.028-.405.086l-.373.165.042-.405c.029-.28-.062-.561-.25-.771l-.272-.303.399-.086c.276-.059.514-.232.655-.476l.204-.353.204.353c.142.243.379.417.655.476l.399.086-.272.303Z"/>
  <path d="M19.308,36.186c-.11-.34-.393-.595-.741-.669l-1.652-.354-.847-1.462c-.357-.617-1.373-.617-1.73,0l-.847,1.462-1.652.354c-.349.074-.631.329-.741.669-.11.339-.031.711.207.977l1.128,1.257-.174,1.681c-.037.354.118.702.407.911.289.211.667.249.993.105l1.544-.685,1.544.685c.13.058.268.086.405.086.585,0,1.055-.517.995-1.103l-.173-1.681,1.128-1.257c.238-.266.317-.638.207-.977ZM16.189,37.414c-.188.21-.279.49-.25.771l.042.405-.372-.165c-.129-.058-.267-.086-.405-.086s-.276.028-.405.086l-.373.165.042-.405c.029-.28-.062-.561-.25-.771l-.272-.303.399-.086c.276-.059.514-.232.655-.476l.204-.353.204.353c.142.243.379.417.655.476l.399.086-.272.303Z"/>
  <path d="M55.638,50.408l-6.16-5.04c1.09-1.8,1.73-3.91,1.73-6.16,0-5.29-3.45-9.79-8.21-11.38v-6.83h5c.55,0,1-.45,1-1v-4c0-.55-.45-1-1-1s-1,.45-1,1v3h-4v-8c0-.53.21-1.03.59-1.41.38-.38.88-.59,1.41-.59,1.1,0,2,.9,2,2v1c0,.55.45,1,1,1s1-.45,1-1v-1c0-2.21-1.79-4-4-4H10.998c-2.21,0-4,1.79-4,4v3c0,.55.45,1,1,1s1-.45,1-1v-3c0-1.1.9-2,2-2h30.55c-.35.6-.55,1.28-.55,2v16.35c-.59-.08-1.18-.14-1.79-.14-2.31,0-4.46.66-6.29,1.79h-10.92c-.55,0-1,.45-1,1s.45,1,1,1h8.47c-.57.61-1.08,1.28-1.52,2h-6.95c-.55,0-1,.45-1,1s.45,1,1,1h5.98c-.24.64-.43,1.31-.56,2h-5.42c-.55,0-1,.45-1,1s.45,1,1,1h5.22c-.01.07-.01.14-.01.21,0,6.61,5.38,12,12,12,.61,0,1.2-.07,1.79-.15v3.55l-4.68-1.56c-.23-.08-.47-.07-.69.02l-4.66,1.87-5.65-1.89c-.21-.07-.43-.07-.64,0l-5.65,1.89-4.66-1.87c-.22-.09-.46-.1-.69-.02l-4.68,1.56V17.998c0-.55-.45-1-1-1s-1,.45-1,1v38c0,.32.15.62.42.81.26.19.59.24.9.14l5.65-1.89,4.66,1.87c.22.09.46.1.69.02l5.68-1.9,5.68,1.9c.23.07.47.07.69-.02l4.66-1.87s5.65,1.89,5.65,1.89c.645.176,1.32-.245,1.32-.95v-5.42c.84-.28,1.63-.65,2.37-1.1l5.04,6.16c1.37,1.675,3.977,1.793,5.5.27.74-.74,1.14-1.76,1.09-2.81-.06-1.04-.55-2.02-1.36-2.69ZM39.208,49.208c-5.52,0-10-4.49-10-10s4.48-10,10-10,10,4.48,10,10-4.49,10-10,10ZM54.498,54.498c-.35.34-.81.51-1.3.5-.49-.03-.93-.25-1.24-.63l-4.96-6.06c.47-.4.91-.84,1.31-1.31l6.06,4.96c.38.31.6.75.63,1.24.02.49-.16.95-.5,1.3Z"/>
  <path d="M21.998,26.998h8c.552,0,1-.447,1-1s-.448-1-1-1h-8c-.552,0-1,.447-1,1s.448,1,1,1Z"/>
</svg>