<?xml version="1.0" encoding="UTF-8"?>
<svg id="Outline" xmlns="http://www.w3.org/2000/svg" version="1.1" viewBox="0 0 64 64">
  <!-- Generator: Adobe Illustrator 29.5.1, SVG Export Plug-In . SVG Version: 2.1.0 Build 141)  -->
  <path d="M55.27,47.56c.47-.77.73-1.65.73-2.56,0-2.41-1.72-4.44-4-4.9v-8.1c0-7.17-5.83-13-13-13s-13,5.83-13,13v8.1c-2.28.46-4,2.49-4,4.9,0,.91.26,1.79.73,2.56-1.07.93-1.73,2.29-1.73,3.78v4.66c0,.55.45,1,1,1h3c.55,0,1-.45,1-1s-.45-1-1-1h-2v-3.66c0-1.45,1.04-2.69,2.46-2.96l2.93-.53,2.61,3.48v1.67c0,.35.18.68.49.86l1.9,1.14h-4.39c-.55,0-1,.45-1,1s.45,1,1,1h27c.55,0,1-.45,1-1v-4.66c0-1.49-.66-2.85-1.73-3.78ZM50,32v9c0,.55.45,1,1,1,1.65,0,3,1.35,3,3,0,.57-.17,1.11-.47,1.59-.2-.07-.41-.13-.63-.17l-7.06-1.28-.75-3.59c1.79-1.7,2.91-4.13,2.91-6.82v-2.73c0-.55-.46-1-1.01-1-1.91,0-3.72-.61-5.21-1.75,1.08-.86,2.06-1.85,2.92-2.95l1.8-2.32c2.15,2.01,3.5,4.86,3.5,8.02ZM39.47,41.98c-1.96.12-3.84-.54-5.26-1.87-1.42-1.34-2.21-3.15-2.21-5.11v-2.03c2.87-.16,5.62-1.03,8.07-2.53,1.67,1.44,3.73,2.31,5.93,2.51v1.78c0,3.83-2.87,7.02-6.53,7.25ZM25.1,46.42c-.22.04-.43.11-.63.17-.3-.48-.47-1.02-.47-1.59,0-1.65,1.35-3,3-3,.55,0,1-.45,1-1v-9c0-6.07,4.93-11,11-11,2.18,0,4.22.65,5.93,1.75l-1.81,2.32c-.99,1.27-2.16,2.37-3.49,3.27-.01.01-.02.02-.03.02-2.54,1.73-5.52,2.64-8.6,2.64-.55,0-1,.45-1,1v3c0,2.48,1.04,4.87,2.84,6.56.02.02.04.04.06.05l-.74,3.53-7.06,1.28ZM33,52.43v-1.43c0-.22-.07-.43-.2-.6l-2.21-2.95,1.78-.32,2.6,6.49-1.97-1.19ZM40.32,55h-2.64l-1.6-4h5.84l-1.6,4ZM35.28,49l-1.24-3.09.64-3.02c1.31.72,2.78,1.11,4.31,1.11.2,0,.4-.01.6-.02,1.35-.09,2.61-.49,3.73-1.12l.64,3.05-1.24,3.09h-7.44ZM45.63,47.13l1.78.32-2.21,2.95c-.13.17-.2.38-.2.6v1.43l-1.97,1.19,2.6-6.49ZM55,55h-10.39l1.9-1.14c.31-.18.49-.51.49-.86v-1.67l2.61-3.48,2.93.53c1.42.27,2.46,1.51,2.46,2.96v3.66Z"/>
  <path d="M26,11h-14c-.553,0-1,.448-1,1s.447,1,1,1h14c.553,0,1-.448,1-1s-.447-1-1-1Z"/>
  <path d="M26,15h-14c-.553,0-1,.448-1,1s.447,1,1,1h14c.553,0,1-.448,1-1s-.447-1-1-1Z"/>
  <path d="M25.553,22.895c.314.156.676.139.973-.044.295-.182.475-.504.475-.851v-1h1c1.654,0,3-1.346,3-3v-8c0-1.654-1.346-3-3-3h-13c-.553,0-1,.448-1,1s.447,1,1,1h13c.552,0,1,.449,1,1v8c0,.551-.448,1-1,1h-2c-.553,0-1,.448-1,1v.382l-2.553-1.276c-.139-.069-.292-.105-.447-.105h-12c-.552,0-1-.449-1-1v-8c0-.551.448-1,1-1h1c.553,0,1-.448,1-1s-.447-1-1-1h-1c-1.654,0-3,1.346-3,3v8c0,1.654,1.346,3,3,3h11.764s3.789,1.895,3.789,1.895Z"/>
</svg>