<?xml version="1.0" encoding="UTF-8"?>
<svg id="Outline" xmlns="http://www.w3.org/2000/svg" version="1.1" viewBox="0 0 64 64">
  <!-- Generator: Adobe Illustrator 29.5.1, SVG Export Plug-In . SVG Version: 2.1.0 Build 141)  -->
  <path d="M9,31c0-10.477,8.523-19,19-19,4.437,0,8.592,1.484,12.017,4.293.427.351,1.057.288,1.407-.139.35-.427.288-1.057-.14-1.407-3.731-3.061-8.449-4.747-13.284-4.747-11.579,0-21,9.42-21,21,0,4.834,1.686,9.552,4.746,13.284.198.241.484.366.774.366.223,0,.447-.074.633-.227.428-.351.489-.98.14-1.408-2.769-3.375-4.293-7.643-4.293-12.016Z"/>
  <path d="M53.157,43.747c-.111-.343-.4-.6-.754-.671l-2.354-.473-1.178-2.092c-.354-.63-1.389-.63-1.742,0l-1.178,2.092-2.354.473c-.354.071-.643.328-.754.671-.111.344-.029.721.216.986l1.626,1.767-.277,2.385c-.042.359.113.712.405.925.292.212.678.25,1.005.1l2.183-1.001,2.183,1.001c.133.061.275.091.417.091.589,0,1.062-.527.993-1.116l-.277-2.385,1.626-1.767c.245-.266.327-.643.216-.986ZM49.533,45.482c-.197.214-.292.504-.258.793l.125,1.075-.983-.451c-.133-.061-.274-.091-.417-.091s-.284.03-.417.091l-.983.451.125-1.075c.034-.289-.061-.579-.258-.793l-.733-.796,1.062-.213c.285-.058.531-.236.674-.49l.531-.943.531.943c.143.254.389.433.674.49l1.062.213-.733.796Z"/>
  <path d="M48.38,36.02c.41-1.64.62-3.32.62-5.02,0-4.83-1.69-9.55-4.75-13.28-.35-.43-.98-.49-1.4-.14-.43.35-.49.98-.14,1.4,2.77,3.38,4.29,7.65,4.29,12.02,0,1.76-.26,3.49-.73,5.17-.85.17-1.64.45-2.39.84.71-1.87,1.12-3.89,1.12-6.01,0-9.37-7.63-17-17-17s-17,7.63-17,17,7.63,17,17,17c4.23,0,8.1-1.57,11.08-4.13-.05.37-.08.75-.08,1.13,0,.47.05.93.12,1.38-3.25,2.36-7.07,3.62-11.12,3.62-4.44,0-8.59-1.48-12.02-4.29-.42-.36-1.05-.29-1.4.14-.35.42-.29,1.05.14,1.4,3.73,3.06,8.45,4.75,13.28,4.75,4.22,0,8.23-1.24,11.68-3.57,1.36,3.27,4.57,5.57,8.32,5.57,4.96,0,9-4.04,9-9,0-4.83-3.83-8.78-8.62-8.98ZM28,46c-3.49,0-6.7-1.21-9.25-3.22.04-.01.07-.03.11-.04l3.89-.55c1.24-.18,2.25-1.12,2.52-2.36l.27-1.28c.76.29,1.59.45,2.46.45s1.7-.16,2.46-.45l.27,1.29c.27,1.23,1.28,2.17,2.52,2.35l3.88.55c.05.01.08.03.12.05-2.55,2-5.76,3.21-9.25,3.21ZM21.11,29c1.93,0,3.74-.86,4.95-2.34,1.44,1.48,3.43,2.34,5.55,2.34h3.28c.54,0,1.02.36,1.1.82.101.582-.364,1.18-.99,1.18h-1c-.55,0-1,.45-1,1,0,2.76-2.24,5-5,5s-5-2.24-5-5c0-.55-.45-1-1-1h-1c-.597,0-1.089-.563-.99-1.18.08-.46.56-.82,1.1-.82ZM21,27.01v-.01c0-3.86,3.14-7,7-7s7,3.14,7,7v.01c-.04,0-.07-.01-.11-.01h-3.28c-1.93,0-3.71-.96-4.78-2.55-.18-.28-.5-.45-.83-.45s-.65.17-.83.45l-.4.59c-.82,1.23-2.19,1.96-3.66,1.96-.04,0-.07.01-.11.01ZM36.61,37.92c-1.07.9-2.3,1.59-3.61,2.03h-.01c-.15-.14-.26-.32-.3-.52l-.4-1.91c1.4-1.09,2.38-2.69,2.64-4.52h.07v.17c0,1.74.56,3.39,1.61,4.75ZM21,33.17v-.17h.07c.26,1.83,1.24,3.43,2.64,4.52l-.4,1.9c-.04.21-.15.39-.3.53h-.01c-1.31-.44-2.54-1.13-3.61-2.03,1.05-1.36,1.61-3.01,1.61-4.75ZM38.82,41.36c-.4-.31-.88-.52-1.4-.6l-1.13-.16c.88-.53,1.69-1.17,2.42-1.89.39-.39.39-1.03,0-1.42-1.1-1.1-1.71-2.56-1.71-4.12v-.96c.1-.08.2-.17.29-.27.57-.67.81-1.56.67-2.44-.11-.68-.48-1.28-.99-1.73.02-.25.03-.51.03-.77,0-4.96-4.04-9-9-9s-9,4.04-9,9c0,.26.01.52.03.77-.51.45-.88,1.05-.99,1.73-.14.88.1,1.77.67,2.44.09.1.19.19.29.27v.96c0,1.56-.61,3.02-1.71,4.12-.39.39-.39,1.03,0,1.42.73.72,1.54,1.36,2.42,1.89l-1.14.16c-.52.08-.99.29-1.39.6-2.58-2.7-4.18-6.34-4.18-10.36,0-8.27,6.73-15,15-15s15,6.73,15,15c0,4.02-1.6,7.66-4.18,10.36ZM48,52c-3.86,0-7-3.14-7-7s3.14-7,7-7,7,3.14,7,7-3.14,7-7,7Z"/>
</svg>