<?xml version="1.0" encoding="UTF-8"?>
<svg id="Outline" xmlns="http://www.w3.org/2000/svg" version="1.1" viewBox="0 0 64 64">
  <!-- Generator: Adobe Illustrator 29.5.1, SVG Export Plug-In . SVG Version: 2.1.0 Build 141)  -->
  <path d="M55.638,50.41l-6.16-5.04c1.09-1.8,1.73-3.91,1.73-6.16,0-6.62-5.39-12-12-12-5.87,0-10.75,4.22-11.79,9.79h-5.42c-.55,0-1,.45-1,1v4c0,.55.45,1,1,1s1-.45,1-1v-3h4v16h-4v-9c0-.55-.45-1-1-1s-1,.45-1,1v9h-2v-5c0-.55-.45-1-1-1h-6c-.55,0-1,.45-1,1v5h-2v-25c0-.55-.45-1-1-1s-1,.45-1,1v26c0,.55.45,1,1,1h38c.55,0,1-.45,1-1s-.45-1-1-1h-7v-3.81c.07.01.14.02.21.02,2.25,0,4.36-.64,6.16-1.73,0,0,5.037,6.157,5.04,6.16,1.375,1.68,3.968,1.802,5.5.27.74-.74,1.14-1.76,1.09-2.81-.06-1.04-.55-2.02-1.36-2.69ZM16.998,55h-4v-4h4v4ZM30.998,55h-2v-9.51c.56.9,1.23,1.72,2,2.45v7.06ZM36.998,55h-4v-5.54c1.21.73,2.56,1.26,4,1.53v4.01ZM36.998,48.95c-1.49-.33-2.85-1-4-1.92v-4.03h4v5.95ZM39.208,49.21c-.07,0-.14-.01-.21-.02v-7.19c0-.55-.45-1-1-1h-6c-.55,0-1,.45-1,1v2.91c-1.13-1.62-1.79-3.59-1.79-5.7,0-5.52,4.48-10,10-10s10,4.48,10,10-4.49,10-10,10ZM54.498,54.5c-.35.34-.81.51-1.3.5-.49-.03-.93-.25-1.24-.63l-4.96-6.06c.47-.4.91-.84,1.31-1.31l6.06,4.96c.38.31.6.75.63,1.24.02.49-.16.95-.5,1.3Z"/>
  <path d="M7.998,27c.552,0,1-.447,1-1V8c0-.553-.448-1-1-1s-1,.447-1,1v18c0,.553.448,1,1,1Z"/>
  <path d="M11.998,11h4c.552,0,1-.447,1-1s-.448-1-1-1h-4c-.552,0-1,.447-1,1s.448,1,1,1Z"/>
  <path d="M21.998,11h16c.552,0,1-.447,1-1s-.448-1-1-1h-16c-.552,0-1,.447-1,1s.448,1,1,1Z"/>
  <path d="M11.998,15h4c.552,0,1-.447,1-1s-.448-1-1-1h-4c-.552,0-1,.447-1,1s.448,1,1,1Z"/>
  <path d="M21.998,15h16c.552,0,1-.447,1-1s-.448-1-1-1h-16c-.552,0-1,.447-1,1s.448,1,1,1Z"/>
  <path d="M11.998,19h4c.552,0,1-.447,1-1s-.448-1-1-1h-4c-.552,0-1,.447-1,1s.448,1,1,1Z"/>
  <path d="M21.998,19h16c.552,0,1-.447,1-1s-.448-1-1-1h-16c-.552,0-1,.447-1,1s.448,1,1,1Z"/>
</svg>