<?xml version="1.0" encoding="UTF-8"?>
<svg id="Outline" xmlns="http://www.w3.org/2000/svg" version="1.1" viewBox="0 0 64 64">
  <!-- Generator: Adobe Illustrator 29.5.1, SVG Export Plug-In . SVG Version: 2.1.0 Build 141)  -->
  <path d="M29.225,25.952c.133.061.275.091.417.091.59,0,1.061-.527.993-1.115l-.277-2.386,1.626-1.766c.245-.266.327-.644.215-.986-.112-.344-.4-.601-.754-.672l-2.354-.473-1.177-2.093c-.354-.631-1.389-.631-1.743,0l-1.177,2.093-2.354.473c-.354.071-.642.328-.754.672-.111.343-.029.721.215.986l1.626,1.766-.277,2.386c-.042.358.113.712.405.925.292.212.677.249,1.005.1l2.182-1.001,2.182,1.001ZM25.642,23.392l.125-1.075c.034-.289-.061-.578-.257-.793l-.733-.796,1.062-.213c.285-.058.531-.236.674-.49l.531-.943.531.943c.143.254.389.433.674.49l1.062.213-.733.796c-.197.215-.291.504-.257.793l.125,1.075-.984-.451c-.132-.061-.275-.091-.417-.091s-.285.03-.417.091l-.984.451Z"/>
  <path d="M38.994,28.79c-.112-.344-.4-.601-.754-.672l-2.354-.473-1.177-2.093c-.354-.631-1.389-.631-1.743,0l-1.177,2.093-2.354.473c-.354.071-.642.328-.754.672-.111.343-.029.721.215.986l1.626,1.766-.277,2.386c-.042.358.113.712.405.924.291.212.677.251,1.005.1l2.182-1.001,2.183,1.001c.329.149.712.113,1.005-.101.292-.212.447-.565.405-.924l-.277-2.386,1.626-1.766c.245-.266.327-.644.215-.986ZM35.37,30.524c-.197.215-.291.504-.257.793l.125,1.075-.984-.451c-.132-.061-.275-.091-.417-.091s-.285.03-.417.091l-.983.451.125-1.075c.034-.289-.06-.578-.257-.793l-.733-.796,1.061-.213c.285-.058.531-.236.674-.49l.531-.943.531.943c.143.254.389.433.674.49l1.062.213-.733.796Z"/>
  <path d="M25.405,28.79c-.112-.344-.4-.601-.754-.672l-2.354-.473-1.177-2.093c-.354-.631-1.389-.631-1.743,0l-1.177,2.093-2.354.473c-.354.071-.642.328-.754.672-.111.343-.029.721.215.986l1.626,1.766-.277,2.386c-.042.358.113.712.405.924.292.214.676.25,1.005.101l2.183-1.001,2.182,1.001c.133.061.275.091.417.091.59,0,1.062-.528.993-1.115l-.277-2.386,1.626-1.766c.245-.266.327-.644.215-.986ZM21.781,30.524c-.197.215-.291.504-.257.793l.125,1.075-.983-.451c-.265-.121-.569-.121-.834,0l-.984.451.125-1.075c.034-.289-.06-.578-.257-.793l-.733-.796,1.062-.213c.285-.058.531-.236.674-.49l.531-.943.531.943c.143.254.389.433.674.49l1.061.213-.733.796Z"/>
  <path d="M34.811,13.06c-2.355-1.32-5.042-2.018-7.769-2.018-8.822,0-16,7.178-16,16s7.178,16,16,16,16-7.178,16-16c0-4.325-1.702-8.372-4.791-11.395-.393-.386-1.027-.378-1.414.016-.386.395-.379,1.027.016,1.414,2.702,2.643,4.189,6.182,4.189,9.965,0,7.72-6.28,14-14,14s-14-6.28-14-14,6.28-14,14-14c2.385,0,4.733.609,6.791,1.762.483.271,1.091.1,1.361-.383.27-.482.098-1.092-.384-1.361Z"/>
  <path d="M55.312,48.681l-8.854-7.576c.493-.681.962-1.382,1.382-2.115.225-.392.159-.886-.16-1.205l-2.457-2.457c1.157-2.528,1.82-5.329,1.82-8.286,0-11.028-8.972-20-20-20S7.043,16.014,7.043,27.042c0,4.74,1.693,9.339,4.769,12.948.358.42.989.472,1.41.112.42-.357.471-.989.113-1.409-2.767-3.248-4.291-7.386-4.291-11.651,0-9.925,8.075-18,18-18s18,8.075,18,18-8.075,18-18,18c-4.007,0-7.797-1.29-10.958-3.731-.437-.336-1.065-.258-1.403.18s-.257,1.065.18,1.402c3.515,2.715,7.728,4.149,12.181,4.149,2.958,0,5.758-.662,8.286-1.82l2.457,2.456c.193.192.449.293.708.293.17,0,.342-.043.497-.133.733-.421,1.434-.889,2.115-1.382l7.575,8.855c.85.992,2.086,1.591,3.392,1.642.06.002.12.004.18.004,1.242,0,2.446-.497,3.327-1.378.924-.924,1.425-2.203,1.374-3.509-.051-1.306-.649-2.541-1.642-3.39ZM38.649,45.714l-1.465-1.464c2.911-1.722,5.344-4.155,7.066-7.066l1.465,1.465c-1.78,2.865-4.202,5.286-7.066,7.065ZM54.166,54.166c-.539.538-1.251.811-2.016.79-.761-.03-1.454-.365-1.949-.944l-7.52-8.79c.91-.782,1.759-1.631,2.541-2.541l8.79,7.521c.579.495.914,1.187.943,1.948.029.762-.251,1.478-.79,2.017Z"/>
</svg>