<?xml version="1.0" encoding="UTF-8"?>
<svg id="Outline" xmlns="http://www.w3.org/2000/svg" version="1.1" viewBox="0 0 64 64">
  <!-- Generator: Adobe Illustrator 29.5.1, SVG Export Plug-In . SVG Version: 2.1.0 Build 141)  -->
  <path d="M34.897,16.511l-2.73-.459-1.281-2.455c-.345-.66-1.429-.66-1.773,0l-1.281,2.455-2.73.459c-.367.062-.67.323-.785.677-.115.354-.023.744.237,1.01l1.938,1.977-.407,2.739c-.055.368.1.736.401.955.303.221.7.254,1.033.087l2.479-1.232,2.479,1.232c.141.07.293.104.445.104.6,0,1.078-.549.989-1.146l-.407-2.739,1.938-1.977c.261-.266.353-.655.237-1.01-.115-.354-.418-.614-.785-.677ZM31.731,19.129c-.219.224-.321.537-.275.847l.198,1.335-1.208-.601c-.14-.069-.293-.104-.445-.104s-.305.035-.445.104l-1.208.601.198-1.335c.046-.31-.056-.623-.275-.847l-.945-.964,1.331-.224c.309-.052.576-.246.721-.523l.625-1.197.625,1.197c.145.277.412.472.721.523l1.331.224-.945.964Z"/>
  <path d="M48.415,17.128c-.115-.354-.418-.614-.785-.677l-2.73-.459-1.281-2.455c-.345-.66-1.429-.66-1.773,0l-1.28,2.455-2.73.459c-.367.062-.67.323-.785.677-.115.354-.023.744.237,1.01l1.938,1.977-.407,2.739c-.087.587.399,1.147.989,1.147.152,0,.304-.034.445-.104l2.479-1.232,2.479,1.232c.334.165.731.133,1.033-.087.301-.219.456-.587.401-.955l-.406-2.739,1.938-1.977c.261-.266.353-.655.237-1.01ZM44.463,19.069c-.219.224-.321.537-.275.847l.198,1.336-1.209-.602c-.14-.069-.293-.104-.445-.104s-.305.035-.445.104l-1.208.601.198-1.335c.046-.31-.056-.623-.275-.847l-.945-.964,1.331-.224c.309-.052.576-.246.721-.523l.624-1.197.625,1.197c.145.277.412.472.721.523l1.331.224-.945.964Z"/>
  <path d="M22.629,16.451l-2.73-.459-1.281-2.455c-.345-.66-1.429-.66-1.773,0l-1.28,2.455-2.73.459c-.367.062-.67.323-.785.677-.115.354-.023.744.237,1.01l1.938,1.977-.407,2.739c-.089.599.388,1.147.989,1.147.152,0,.304-.034.445-.104l2.479-1.232,2.479,1.232c.333.165.731.133,1.033-.087.301-.219.456-.587.401-.955l-.406-2.739,1.938-1.977c.261-.266.353-.655.237-1.01-.115-.354-.418-.614-.785-.677ZM19.463,19.069c-.219.224-.321.537-.275.847l.198,1.336-1.209-.602c-.14-.069-.293-.104-.445-.104s-.305.035-.445.104l-1.208.601.198-1.335c.046-.31-.056-.623-.275-.847l-.945-.964,1.331-.224c.309-.052.576-.246.721-.523l.624-1.197.625,1.197c.145.277.412.472.721.523l1.331.224-.945.964Z"/>
  <path d="M51.293,30.707c.191.191.447.293.707.293.547,0,1-.45,1-1v-11c0-6.729-10.103-12-23-12S7,12.271,7,19s10.103,12,23,12c6.805,0,13.107-1.497,17.459-4.127l3.834,3.834ZM30,29c-11.383,0-21-4.579-21-10s9.617-10,21-10,21,4.579,21,10v8.586l-2.693-2.693c-.337-.337-.865-.393-1.261-.125-3.981,2.65-10.354,4.232-17.046,4.232Z"/>
  <path d="M44,31c-7.168,0-13,5.832-13,13s5.832,13,13,13,13-5.832,13-13-5.832-13-13-13ZM39,44c0-2.757,2.243-5,5-5s5,2.243,5,5-2.243,5-5,5-5-2.243-5-5ZM37.08,45c.11.763.341,1.486.678,2.15l-3.295,2.307c-.768-1.337-1.266-2.846-1.412-4.457h4.029ZM43,33.051v4.029c-3.059.441-5.479,2.861-5.92,5.92h-4.029c.478-5.268,4.681-9.472,9.949-9.949ZM35.609,51.096l3.298-2.309c.516.549,1.116,1.019,1.784,1.379l-1.373,3.773c-1.432-.677-2.696-1.647-3.709-2.843ZM44,55c-.97,0-1.906-.139-2.802-.376l1.373-3.772c.462.096.94.148,1.43.148,3.86,0,7-3.141,7-7,0-3.519-2.613-6.432-6-6.92v-4.029c5.598.508,10,5.221,10,10.949,0,6.065-4.935,11-11,11Z"/>
</svg>