<?xml version="1.0" encoding="UTF-8"?>
<svg id="Outline" xmlns="http://www.w3.org/2000/svg" version="1.1" viewBox="0 0 64 64">
  <!-- Generator: Adobe Illustrator 29.5.1, SVG Export Plug-In . SVG Version: 2.1.0 Build 141)  -->
  <path d="M41.36279,41.74238c-.11523-.354-.41797-.61523-.78516-.67725l-5.23486-.88135-2.45605-4.70654c-.34473-.66016-1.42871-.66016-1.77344,0l-2.45605,4.70654-5.23486.88135c-.36719.06201-.66992.32324-.78516.67725-.11523.35449-.02344.74316.2373,1.00928l3.7168,3.79053-.7793,5.25098c-.05469.36865.1001.73682.40137.95605.30225.21973.7002.25195,1.0332.08643l4.75342-2.36426,4.75342,2.36426c.14097.06975.29314.10442.44484.10449.60329.00028,1.07812-.55107.98973-1.14697l-.7793-5.25098,3.7168-3.79053c.26074-.26611.35254-.65479.2373-1.00928ZM35.63281,45.49677c-.21924.22363-.32129.53711-.27539.84717l.5708,3.84766-3.48291-1.73242c-.14014-.06982-.29297-.10449-.44531-.10449s-.30518.03467-.44531.10449l-3.48291,1.73242.5708-3.84766c.0459-.31006-.05615-.62354-.27539-.84717l-2.72314-2.77734,3.83545-.646c.30908-.05225.57568-.24609.7207-.52344l1.7998-3.44873,1.7998,3.44873c.14502.27734.41162.47119.7207.52344l3.83545.646-2.72314,2.77734Z"/>
  <path d="M56.78564,47.65595c-.11523-.35449-.41797-.61523-.78516-.67725l-4.16162-.7002-1.95215-3.7417c-.34473-.66016-1.42871-.66016-1.77344,0l-1.95215,3.7417-4.16162.7002c-.36719.06201-.66992.32275-.78516.67725s-.02344.74316.2373,1.00928l2.95459,3.01318-.61963,4.17432c-.05469.36865.1001.73682.40137.95605.30225.21973.7002.25293,1.0332.08643l3.77881-1.87939,3.77881,1.87939c.14096.06975.29312.10441.4448.10449.59879.00031,1.07726-.55716.98977-1.14697l-.61963-4.17432,2.95459-3.01318c.26074-.26611.35254-.65479.2373-1.00928ZM51.81787,50.633c-.21924.22363-.32129.53711-.27539.84717l.41113,2.771-2.5083-1.24756c-.14014-.06982-.29297-.10449-.44531-.10449s-.30518.03467-.44531.10449l-2.5083,1.24756.41113-2.771c.0459-.31006-.05615-.62354-.27539-.84717l-1.96094-2,2.76221-.46484c.30908-.05225.57568-.24609.7207-.52344l1.2959-2.48389,1.2959,2.48389c.14502.27734.41162.47119.7207.52344l2.76221.46484-1.96094,2Z"/>
  <path d="M22.00049,46.9787l-4.16162-.7002-1.95215-3.7417c-.34473-.66016-1.42871-.66016-1.77344,0l-1.95215,3.7417-4.16162.7002c-.36719.06201-.66992.32275-.78516.67725s-.02344.74316.2373,1.00928l2.95459,3.01318-.61963,4.17432c-.05469.36865.1001.73682.40137.95605.30225.21973.69922.25293,1.0332.08643l3.77881-1.87939,3.77881,1.87939c.14108.06981.2934.10448.44522.10449.60176.00006,1.07822-.54787.98935-1.14697l-.61963-4.17432,2.95459-3.01318c.26074-.26611.35254-.65479.2373-1.00928s-.41797-.61523-.78516-.67725ZM17.81787,50.633c-.21924.22363-.32129.53711-.27539.84717l.41113,2.771-2.5083-1.24756c-.14014-.06982-.29297-.10449-.44531-.10449s-.30518.03467-.44531.10449l-2.5083,1.24756.41113-2.771c.0459-.31006-.05615-.62354-.27539-.84717l-1.96094-2,2.76221-.46484c.30908-.05225.57568-.24609.7207-.52344l1.2959-2.48389,1.2959,2.48389c.14502.27734.41162.47119.7207.52344l2.76221.46484-1.96094,2Z"/>
  <path d="M16,28.9997h4c.55225,0,1-.44775,1-1s-.44775-1-1-1h-4c-.55127,0-1-.44873-1-1V9.9997c0-.55127.44873-1,1-1h32c.55127,0,1,.44873,1,1v7c0,.55225.44775,1,1,1s1-.44775,1-1v-7c0-1.6543-1.3457-3-3-3H16c-1.6543,0-3,1.3457-3,3v16c0,1.6543,1.3457,3,3,3Z"/>
  <path d="M24,28.9997h2.64941l4.72607,3.78076c.18262.146.40332.21924.62451.21924s.44189-.07324.62451-.21924l4.72607-3.78076h10.64941c1.6543,0,3-1.3457,3-3v-5c0-.55225-.44775-1-1-1s-1,.44775-1,1v5c0,.55127-.44873,1-1,1h-11c-.22705,0-.44727.07715-.62451.21924l-4.37549,3.5-4.37549-3.5c-.17725-.14209-.39746-.21924-.62451-.21924h-3c-.55225,0-1,.44775-1,1s.44775,1,1,1Z"/>
  <path d="M18,12.9997h28c.55225,0,1-.44775,1-1s-.44775-1-1-1h-28c-.55225,0-1,.44775-1,1s.44775,1,1,1Z"/>
  <path d="M18,16.9997h21c.55225,0,1-.44775,1-1s-.44775-1-1-1h-21c-.55225,0-1,.44775-1,1s.44775,1,1,1Z"/>
  <path d="M18,20.9997h17.45459c.55225,0,1-.44775,1-1s-.44775-1-1-1h-17.45459c-.55225,0-1,.44775-1,1s.44775,1,1,1Z"/>
  <path d="M18,24.9997h24c.55225,0,1-.44775,1-1s-.44775-1-1-1h-24c-.55225,0-1,.44775-1,1s.44775,1,1,1Z"/>
</svg>