<?xml version="1.0" encoding="UTF-8"?>
<svg id="Outline" xmlns="http://www.w3.org/2000/svg" version="1.1" viewBox="0 0 64 64">
  <!-- Generator: Adobe Illustrator 29.5.1, SVG Export Plug-In . SVG Version: 2.1.0 Build 141)  -->
  <path d="M23.569,15.511c-.112-.343-.4-.6-.754-.671l-3.055-.614-1.528-2.715c-.354-.63-1.389-.63-1.743,0l-1.528,2.715-3.055.614c-.354.071-.642.328-.754.671-.111.344-.029.721.215.986l2.11,2.292-.36,3.095c-.042.359.113.712.405.925.292.213.677.25,1.004.1l2.833-1.299,2.832,1.299c.133.061.275.091.417.091.595,0,1.062-.526.993-1.116l-.36-3.095,2.111-2.292c.245-.266.327-.643.215-.986ZM19.46,17.772c-.197.214-.291.503-.257.793l.208,1.785-1.633-.749c-.265-.121-.57-.121-.833,0l-1.634.75.208-1.786c.034-.29-.06-.579-.257-.793l-1.217-1.322,1.762-.354c.285-.058.531-.236.674-.49l.881-1.566.881,1.566c.143.254.389.433.674.49l1.762.354-1.218,1.322Z"/>
  <path d="M52.626,15.511c-.112-.343-.4-.6-.754-.671l-3.055-.614-1.528-2.715c-.354-.63-1.389-.63-1.743,0l-1.528,2.715-3.055.614c-.354.071-.642.328-.754.671-.111.344-.029.721.215.986l2.11,2.292-.359,3.096c-.042.358.113.712.405.924.293.213.676.25,1.005.1l2.832-1.299,2.832,1.299c.133.061.275.091.417.091.592,0,1.062-.525.993-1.115l-.359-3.096,2.11-2.292c.245-.266.327-.643.215-.986ZM48.518,17.772c-.197.214-.291.503-.257.792l.208,1.786-1.634-.75c-.132-.061-.275-.091-.417-.091s-.285.03-.417.091l-1.634.75.208-1.786c.034-.289-.061-.579-.257-.792l-1.217-1.322,1.762-.354c.285-.058.531-.236.674-.49l.881-1.566.881,1.566c.143.254.389.433.674.49l1.762.354-1.217,1.322Z"/>
  <path d="M56,17c.552,0,1-.448,1-1v-6c0-1.654-1.346-3-3-3H10c-1.654,0-3,1.346-3,3v14c0,1.654,1.346,3,3,3h2.697l2.748,1.832c.168.112.361.168.555.168s.387-.056.555-.168l2.748-1.832h34.697c1.654,0,3-1.346,3-3v-4c0-.552-.448-1-1-1s-1,.448-1,1v4c0,.551-.449,1-1,1H19c-.197,0-.391.059-.555.168l-2.445,1.63-2.445-1.63c-.164-.109-.357-.168-.555-.168h-3c-.551,0-1-.449-1-1v-14c0-.551.449-1,1-1h44c.551,0,1,.449,1,1v6c0,.552.448,1,1,1Z"/>
  <path d="M38.208,15.511c-.112-.343-.4-.6-.754-.671l-3.055-.614-1.528-2.715c-.354-.63-1.389-.63-1.743,0l-1.528,2.715-3.055.614c-.354.071-.642.328-.754.671-.111.344-.029.721.215.986l2.11,2.292-.359,3.096c-.042.358.113.712.405.924.292.213.676.25,1.005.1l2.832-1.299,2.832,1.299c.133.061.275.091.417.091.593,0,1.062-.524.993-1.115l-.359-3.096,2.11-2.292c.245-.266.327-.643.215-.986ZM34.101,17.772c-.197.214-.291.503-.257.792l.208,1.786-1.634-.75c-.132-.061-.275-.091-.417-.091s-.285.03-.417.091l-1.634.75.208-1.786c.034-.289-.061-.579-.257-.792l-1.217-1.322,1.762-.354c.285-.058.531-.236.674-.49l.881-1.566.881,1.566c.143.254.389.433.674.49l1.762.354-1.217,1.322Z"/>
  <path d="M24,31H8c-.55,0-1,.45-1,1v4c0,.55.45,1,1,1h3c.55,0,1-.45,1-1s-.45-1-1-1h-2v-2h10v2h-4c-.55,0-1,.45-1,1s.45,1,1,1h9c.55,0,1-.45,1-1v-4c0-.55-.45-1-1-1ZM23,35h-2v-2h2v2Z"/>
  <path d="M24,39H8c-.552,0-1,.448-1,1v4c0,.552.448,1,1,1h16c.552,0,1-.448,1-1v-4c0-.552-.448-1-1-1ZM9,41h2v2h-2v-2ZM23,43h-10v-2h10v2Z"/>
  <path d="M24,47H8c-.552,0-1,.448-1,1v4c0,.552.448,1,1,1h16c.552,0,1-.448,1-1v-4c0-.552-.448-1-1-1ZM9,49h10v2h-10v-2ZM23,51h-2v-2h2v2Z"/>
  <path d="M50.424,51.765l-2.685-.384,3.632-1.453c.312-.125.541-.398.608-.728.068-.33-.035-.67-.272-.908-1.101-1.101-1.707-2.564-1.707-4.122v-.958c.097-.088.2-.169.286-.27.571-.671.817-1.561.674-2.439-.112-.686-.479-1.287-.994-1.73.022-.251.034-.508.034-.773,0-4.962-4.038-9-9-9s-9,4.038-9,9c0,.265.013.522.034.773-.515.443-.882,1.044-.994,1.73-.143.879.103,1.768.674,2.439.086.101.188.182.286.27v.958c0,1.557-.606,3.021-1.707,4.122-.238.238-.34.579-.272.908.067.329.296.603.608.728l3.632,1.453-2.684.384c-1.469.209-2.576,1.486-2.576,2.969v1.266c0,.552.448,1,1,1s1-.448,1-1v-1.266c0-.494.369-.919.859-.99l3.895-.557c1.245-.178,2.254-1.125,2.512-2.355l.268-1.282c.767.29,1.598.45,2.466.45s1.698-.16,2.466-.45l.268,1.282c.258,1.231,1.267,2.178,2.512,2.355l3.896.557c.489.07.858.496.858.99v1.266c0,.552.448,1,1,1s1-.448,1-1v-1.266c0-1.483-1.107-2.76-2.576-2.969ZM34,38c0-3.86,3.14-7,7-7s7,3.14,7,7c0,.003,0,.006,0,.009-.036-.001-.07-.009-.107-.009h-3.287c-1.922,0-3.707-.955-4.773-2.555-.371-.557-1.293-.557-1.664,0l-.396.593c-.819,1.228-2.189,1.961-3.666,1.961-.036,0-.07.008-.106.009,0-.003,0-.006,0-.009ZM36.38,50.077s-.005-.004-.009-.006l-3.729-1.491c.882-1.289,1.357-2.812,1.357-4.409v-.171h.071c.263,1.83,1.241,3.429,2.635,4.517l-.326,1.56ZM36,43c0-.552-.448-1-1-1h-1c-.592,0-1.084-.564-.986-1.175.076-.462.556-.825,1.093-.825,1.933,0,3.741-.865,4.952-2.342,1.442,1.486,3.433,2.342,5.546,2.342h3.287c.537,0,1.017.362,1.093.824.1.607-.368,1.176-.986,1.176h-1c-.552,0-1,.448-1,1,0,.61-.126,1.188-.327,1.729-.178.165-.412.271-.673.271h-3c-.552,0-1,.448-1,1s.448,1,1,1h1.969c-.833.62-1.854,1-2.969,1-2.757,0-5-2.243-5-5ZM47.441,45.732c.349-.49.559-1.085.559-1.732v.171c0,1.596.475,3.12,1.357,4.409l-3.729,1.491s-.005.004-.009.006l-.326-1.56c.933-.728,1.678-1.683,2.148-2.786Z"/>
</svg>