<?xml version="1.0" encoding="UTF-8"?>
<svg id="Outline" xmlns="http://www.w3.org/2000/svg" version="1.1" viewBox="0 0 64 64">
  <!-- Generator: Adobe Illustrator 29.5.1, SVG Export Plug-In . SVG Version: 2.1.0 Build 141)  -->
  <path d="M36,16h1v7c0,.553.448,1,1,1s1-.447,1-1v-7h1c.552,0,1-.447,1-1s-.448-1-1-1h-4c-.552,0-1,.447-1,1s.448,1,1,1Z"/>
  <path d="M20,24h4c.552,0,1-.447,1-1s-.448-1-1-1h-3v-2h3c.552,0,1-.447,1-1s-.448-1-1-1h-3v-2h3c.552,0,1-.447,1-1s-.448-1-1-1h-4c-.552,0-1,.447-1,1v8c0,.553.448,1,1,1Z"/>
  <path d="M30,22h-2c-.552,0-1,.447-1,1s.448,1,1,1h2c1.654,0,3-1.346,3-3s-1.346-3-3-3c-.551,0-1-.448-1-1s.449-1,1-1h2c.552,0,1-.447,1-1s-.448-1-1-1h-2c-1.654,0-3,1.346-3,3s1.346,3,3,3c.551,0,1,.448,1,1s-.449,1-1,1Z"/>
  <path d="M11,31c0,.762.913,1.268,1.55.83l5.75-3.83h23.7c1.65,0,3-1.35,3-3v-12c0-1.65-1.35-3-3-3H10c-1.65,0-3,1.35-3,3v12c0,1.65,1.35,3,3,3h1v3ZM10,26c-.55,0-1-.45-1-1v-12c0-.55.45-1,1-1h32c.55,0,1,.45,1,1v12c0,.55-.45,1-1,1h-24c-.2,0-.39.06-.55.17l-4.45,2.96v-2.13c0-.55-.45-1-1-1h-2Z"/>
  <path d="M14,24c1.65,0,3-1.35,3-3,0-.77-.3-1.47-.78-2,.48-.53.78-1.23.78-2,0-1.65-1.35-3-3-3h-2c-.55,0-1,.45-1,1v8c0,.55.45,1,1,1h2ZM13,16h1c.55,0,1,.45,1,1s-.45,1-1,1h-1v-2ZM13,20h1c.55,0,1,.45,1,1s-.45,1-1,1h-1v-2Z"/>
  <path d="M38.897,39.511l-2.73-.459-1.281-2.455c-.345-.66-1.429-.66-1.773,0l-1.281,2.455-2.73.459c-.367.062-.67.323-.785.677-.115.354-.023.744.237,1.01l1.938,1.977-.407,2.739c-.055.368.1.736.401.955.302.22.7.254,1.033.087l2.479-1.232,2.479,1.232c.141.07.293.104.445.104.6,0,1.078-.548.989-1.146,0,0-.407-2.739-.407-2.739l1.938-1.977c.261-.266.353-.655.237-1.01-.115-.354-.418-.614-.785-.677ZM35.731,42.129c-.219.224-.321.537-.275.847l.198,1.335-1.208-.601c-.14-.069-.293-.104-.445-.104s-.305.035-.445.104l-1.208.601.198-1.335c.046-.31-.056-.623-.275-.847l-.945-.964,1.331-.224c.309-.052.576-.246.721-.523l.625-1.197.625,1.197c.145.277.412.472.721.523l1.331.224-.945.964Z"/>
  <path d="M51.629,39.451l-2.73-.459-1.281-2.455c-.345-.66-1.429-.66-1.773,0l-1.28,2.455-2.73.459c-.367.062-.67.323-.785.677-.115.354-.023.744.237,1.01l1.938,1.977s-.407,2.739-.407,2.739c-.084.567.378,1.146.989,1.146.152,0,.304-.034.445-.104l2.479-1.232,2.479,1.232c.333.165.73.132,1.033-.087.301-.219.456-.587.401-.955l-.406-2.739,1.938-1.977c.261-.266.353-.655.237-1.01-.115-.354-.418-.614-.785-.677ZM48.463,42.069c-.219.224-.321.537-.275.847l.198,1.336-1.209-.602c-.14-.069-.293-.104-.445-.104s-.305.035-.445.104l-1.208.601.198-1.335c.046-.31-.056-.623-.275-.847l-.945-.964,1.331-.224c.309-.052.576-.246.721-.523l.624-1.197.625,1.197c.145.277.412.472.721.523l1.331.224-.945.964Z"/>
  <path d="M26.629,39.451l-2.73-.459-1.281-2.455c-.345-.66-1.429-.66-1.773,0l-1.28,2.455-2.73.459c-.367.062-.67.323-.785.677-.115.354-.023.744.237,1.01l1.938,1.977s-.405,2.727-.407,2.739c-.082.551.391,1.147.989,1.147.152,0,.304-.034.445-.104l2.479-1.232,2.479,1.232c.333.165.731.132,1.033-.087.301-.219.456-.587.401-.955l-.406-2.739,1.938-1.977c.261-.266.353-.655.237-1.01-.115-.354-.418-.614-.785-.677ZM23.463,42.069c-.219.224-.321.537-.275.847l.198,1.336-1.209-.602c-.14-.069-.293-.104-.445-.104s-.305.035-.445.104l-1.208.601.198-1.335c.046-.31-.056-.623-.275-.847l-.945-.964,1.331-.224c.309-.052.576-.246.721-.523l.624-1.197.625,1.197c.145.277.412.472.721.523l1.331.224-.945.964Z"/>
  <path d="M34,30c-12.897,0-23,5.271-23,12s10.103,12,23,12c6.805,0,13.107-1.497,17.459-4.127,0,0,3.822,3.822,3.834,3.834.62.621,1.707.167,1.707-.707v-11c0-6.729-10.103-12-23-12ZM55,50.586l-2.693-2.693c-.337-.338-.865-.392-1.261-.125-3.981,2.65-10.354,4.232-17.046,4.232-11.383,0-21-4.579-21-10s9.617-10,21-10,21,4.579,21,10v8.586Z"/>
</svg>