<?xml version="1.0" encoding="UTF-8"?>
<svg id="Outline" xmlns="http://www.w3.org/2000/svg" version="1.1" viewBox="0 0 48 48">
  <!-- Generator: Adobe Illustrator 29.0.0, SVG Export Plug-In . SVG Version: 2.1.0 Build 186)  -->
  <path d="M38.95117,13.36523c-.1084-.33398-.38281-.58594-.72461-.66504l-1.99316-.46387-1.05664-1.75293c-.18066-.2998-.50586-.4834-.85645-.4834s-.6748.18359-.85645.4834l-1.05664,1.75293-1.99414.46387c-.3418.0791-.61621.33105-.72461.66504-.1084.33301-.03418.69824.19531.96387l1.34082,1.54688-.1748,2.03906c-.03027.34863.125.68848.4082.89355.28418.20703.65332.24902.97754.1123l1.88477-.7959,1.88475.79589c.29911.12631.69494.0941.97755-.1123.2832-.20605.43848-.54492.4082-.89453l-.17578-2.03906,1.34082-1.5459c.22949-.26562.30371-.63086.19531-.96387ZM35.62695,14.88477c-.17676.20508-.26367.47168-.24023.74121l.06934.80762-.74609-.31543c-.25-.10547-.5293-.10547-.7793,0l-.74707.31543.06934-.80859c.02344-.26855-.06348-.53613-.24023-.74023l-.53125-.6123.79004-.18457c.2627-.06055.49023-.22559.62988-.45703l.41895-.69434.41797.69434c.13965.23145.36621.39648.62988.45703l.79004.18457-.53125.6123Z"/>
  <path d="M9.04883,13.36523c-.1084.33301-.03418.69824.19531.96387l1.34082,1.5459-.17578,2.03906c-.03027.34956.12495.68838.40808.89444.281.20452.65858.24597.97767.1124l1.88477-.7959,1.88477.7959c.3252.13672.69434.0957.97754-.1123.2832-.20508.43848-.54492.4082-.89355l-.1748-2.03906,1.34082-1.54688c.22949-.26562.30371-.63086.19531-.96387-.1084-.33398-.38281-.58594-.72461-.66504l-1.99414-.46387-1.05664-1.75293c-.36328-.59961-1.35156-.59961-1.71289,0l-1.05664,1.75293-1.99316.46387c-.3418.0791-.61621.33105-.72461.66504ZM12.63184,14.08789c.26367-.06055.49023-.22559.62988-.45703l.41797-.69434.41895.69434c.13965.23145.36719.39648.62988.45703l.79004.18457-.53125.6123c-.17676.2041-.26367.47168-.24023.74023l.06934.80859-.74707-.31543c-.125-.05273-.25684-.0791-.38965-.0791s-.26465.02637-.38965.0791l-.74609.31543.06934-.80762c.02344-.26953-.06348-.53613-.24023-.74121l-.53125-.6123.79004-.18457Z"/>
  <path d="M28.63086,12.36523c-.1084-.33398-.38281-.58594-.72461-.66504l-1.99316-.46387-1.05664-1.75293c-.36328-.59961-1.34961-.59961-1.71289,0l-1.05664,1.75293-1.99316.46387c-.3418.0791-.61621.33105-.72461.66504-.1084.33301-.03418.69824.19531.96289l1.33984,1.54688-.1748,2.04004c-.03027.34863.125.68848.4082.89355.28418.20703.65234.24805.97754.1123l1.88477-.7959,1.88474.79589c.29139.12305.70049.09007.97757-.11229.2832-.20508.43848-.54492.4082-.89355l-.1748-2.04004,1.33984-1.54688c.22949-.26465.30371-.62988.19531-.96289ZM25.30762,13.88574c-.17676.2041-.26367.4707-.24023.73926l.06934.80859-.74707-.31543c-.125-.05273-.25684-.0791-.38965-.0791s-.26465.02637-.38965.0791l-.74707.31543.06934-.80859c.02344-.26855-.06348-.53516-.24023-.73926l-.53125-.61328.79004-.18457c.2627-.06055.49023-.22559.62988-.45703l.41895-.69531.41895.69531c.13965.23145.36719.39648.62988.45703l.79004.18457-.53125.61328Z"/>
  <path d="M40,5H14c-.55273,0-1,.44727-1,1s.44727,1,1,1h26c.55176,0,1,.44824,1,1v12c0,.55176-.44824,1-1,1h-12c-.15527,0-.30859.03613-.44727.10547l-3.55273,1.77637-3.55273-1.77637c-.13867-.06934-.29199-.10547-.44727-.10547h-12c-.55176,0-1-.44824-1-1v-12c0-.55176.44824-1,1-1h2c.55273,0,1-.44727,1-1s-.44727-1-1-1h-2c-1.6543,0-3,1.3457-3,3v12c0,1.6543,1.3457,3,3,3h11.76367l3.78906,1.89453c.14062.07031.29395.10547.44727.10547s.30664-.03516.44727-.10547l3.78906-1.89453h11.76367c1.6543,0,3-1.3457,3-3v-12c0-1.6543-1.3457-3-3-3Z"/>
  <path d="M35.90434,31.05511c-.08716-.19007-.23585-.34455-.42827-.45007-.05878-.03284-.1095-.07623-.17627-.09723l-11-3.46191c-.19531-.06055-.4043-.06055-.59961,0,0,0-11,3.46191-11.00002,3.46192-.39471.12445-.67296.50118-.69059.91198-.00061.01404-.00958.026-.00958.04016v7.08008c0,.43652.2832.82324.7002.9541l11,3.45996c.09766.03027.19824.0459.2998.0459s.20215-.01562.2998-.0459l4.12988-1.2998c.52734-.16602.82031-.72754.6543-1.25391-.16602-.52734-.72656-.81934-1.25391-.6543l-2.83008.89117v-4.98346l9-2.83057v4.9834l-2.34961.73926c-.52734.16602-.82031.72754-.6543,1.25391.16602.52832.73047.81836,1.25391.6543l3.0498-.95996c.41699-.13086.7002-.51758.7002-.9541v-7.08008c0-.0141-.00891-.026-.00952-.04-.0056-.13189-.03547-.25438-.08614-.36485ZM24,29.04883l7.66473,2.41199-7.66473,2.41125-7.66473-2.41125,7.66473-2.41199ZM14,32.82324l9,2.83057v4.98376l-9-2.83093v-4.9834Z"/>
</svg>