<?xml version="1.0" encoding="UTF-8"?>
<svg id="Outline" xmlns="http://www.w3.org/2000/svg" version="1.1" viewBox="0 0 64 64">
  <!-- Generator: Adobe Illustrator 29.5.1, SVG Export Plug-In . SVG Version: 2.1.0 Build 141)  -->
  <path d="M56,19c-1.103,0-2-.897-2-2,0-.553-.448-1-1-1H18c-.265,0-.52.105-.707.293l-1.293,1.293-1.293-1.293c-.188-.188-.442-.293-.707-.293h-6c-.369,0-.708.203-.882.528-.174.325-.155.72.05,1.026l1.63,2.445-1.63,2.445c-.224.336-.224.773,0,1.109l1.63,2.445-1.63,2.445c-.224.336-.224.773,0,1.109l1.63,2.445-1.63,2.445c-.224.336-.224.773,0,1.109l1.63,2.445-1.63,2.445c-.224.336-.224.773,0,1.109l1.63,2.445-1.63,2.445c-.205.307-.224.701-.05,1.026.174.325.513.528.882.528h6c.265,0,.52-.105.707-.293l1.293-1.293,1.293,1.293c.188.188.442.293.707.293h35c.552,0,1-.447,1-1,0-1.103.897-2,2-2,.552,0,1-.447,1-1v-24c0-.553-.448-1-1-1ZM55,43.127c-1.404.362-2.511,1.47-2.874,2.873H18.414l-1.414-1.414v-1.586c0-.553-.448-1-1-1s-1,.447-1,1v1.586l-1.414,1.414h-3.717l.963-1.445c.224-.336.224-.773,0-1.109l-1.63-2.445,1.63-2.445c.224-.336.224-.773,0-1.109l-1.63-2.445,1.63-2.445c.224-.336.224-.773,0-1.109l-1.63-2.445,1.63-2.445c.224-.336.224-.773,0-1.109l-1.63-2.445,1.63-2.445c.224-.336.224-.773,0-1.109l-.963-1.445h3.717l1.414,1.414v1.586c0,.553.448,1,1,1s1-.447,1-1v-1.586l1.414-1.414h33.712c.363,1.403,1.47,2.511,2.874,2.873v22.254Z"/>
  <path d="M16,24.399c-.552,0-1,.447-1,1v4.4c0,.553.448,1,1,1s1-.447,1-1v-4.4c0-.553-.448-1-1-1Z"/>
  <path d="M16,33.199c-.552,0-1,.447-1,1v4.4c0,.553.448,1,1,1s1-.447,1-1v-4.4c0-.553-.448-1-1-1Z"/>
  <path d="M28.597,29.073l-2.361-.445-1.152-2.107c-.175-.321-.512-.521-.877-.521s-.702.199-.877.521l-1.152,2.107-2.361.445c-.359.067-.653.326-.766.674-.113.348-.027.729.224.995l1.649,1.747-.307,2.383c-.047.362.108.722.404.937s.685.251,1.016.095l2.171-1.028,2.171,1.028c.136.064.283.097.428.097.596,0,1.067-.536.992-1.128l-.307-2.383,1.649-1.747c.251-.266.337-.647.224-.995-.113-.348-.407-.606-.766-.674ZM25.711,31.461c-.206.218-.303.517-.265.814l.134,1.037-.945-.447c-.271-.129-.585-.129-.856,0l-.946.447.134-1.037c.039-.298-.059-.597-.265-.814l-.718-.761,1.029-.194c.294-.055.549-.24.692-.503l.502-.918.501.918c.144.263.398.448.692.503l1.029.194-.718.761Z"/>
  <path d="M34,21c-1.654,0-3,1.346-3,3s1.346,3,3,3,3-1.346,3-3-1.346-3-3-3ZM34,25c-.551,0-1-.448-1-1s.449-1,1-1,1,.448,1,1-.449,1-1,1Z"/>
  <path d="M42,21c-1.654,0-3,1.346-3,3s1.346,3,3,3,3-1.346,3-3-1.346-3-3-3ZM42,25c-.551,0-1-.448-1-1s.449-1,1-1,1,.448,1,1-.449,1-1,1Z"/>
  <path d="M50,21c-1.654,0-3,1.346-3,3s1.346,3,3,3,3-1.346,3-3-1.346-3-3-3ZM50,25c-.551,0-1-.448-1-1s.449-1,1-1,1,.448,1,1-.449,1-1,1Z"/>
  <path d="M34,29c-1.654,0-3,1.346-3,3s1.346,3,3,3,3-1.346,3-3-1.346-3-3-3ZM34,33c-.551,0-1-.448-1-1s.449-1,1-1,1,.448,1,1-.449,1-1,1Z"/>
  <path d="M42,29c-1.654,0-3,1.346-3,3s1.346,3,3,3,3-1.346,3-3-1.346-3-3-3ZM42,33c-.551,0-1-.448-1-1s.449-1,1-1,1,.448,1,1-.449,1-1,1Z"/>
  <path d="M50,29c-1.654,0-3,1.346-3,3s1.346,3,3,3,3-1.346,3-3-1.346-3-3-3ZM50,33c-.551,0-1-.448-1-1s.449-1,1-1,1,.448,1,1-.449,1-1,1Z"/>
  <path d="M34,37c-1.654,0-3,1.346-3,3s1.346,3,3,3,3-1.346,3-3-1.346-3-3-3ZM34,41c-.551,0-1-.448-1-1s.449-1,1-1,1,.448,1,1-.449,1-1,1Z"/>
  <path d="M42,37c-1.654,0-3,1.346-3,3s1.346,3,3,3,3-1.346,3-3-1.346-3-3-3ZM42,41c-.551,0-1-.448-1-1s.449-1,1-1,1,.448,1,1-.449,1-1,1Z"/>
  <path d="M50,37c-1.654,0-3,1.346-3,3s1.346,3,3,3,3-1.346,3-3-1.346-3-3-3ZM50,41c-.551,0-1-.448-1-1s.449-1,1-1,1,.448,1,1-.449,1-1,1Z"/>
</svg>