<?xml version="1.0" encoding="UTF-8"?>
<svg id="Outline" xmlns="http://www.w3.org/2000/svg" version="1.1" viewBox="0 0 64 64">
  <!-- Generator: Adobe Illustrator 29.5.1, SVG Export Plug-In . SVG Version: 2.1.0 Build 141)  -->
  <path d="M54.81,8.023c-.07-.43-.4-.76-.83-.83-.32-.05-7.87-1.23-11.95,2.84-1.26,1.27-2.11,2.99-2.58,5.1-.52-.08-1.04-.13-1.57-.13h-4.06l-.85-3.25c-.12-.44-.51-.75-.97-.75s-.85.31-.97.75l-.85,3.25h-4.06c-.53,0-1.05.05-1.57.13-.47-2.11-1.32-3.83-2.58-5.1-4.08-4.07-11.63-2.89-11.95-2.84-.43.07-.76.4-.83.83-.05.32-1.23,7.87,2.84,11.95,1.11,1.11,2.59,1.9,4.36,2.4-.03.1-.07.2-.09.3-.2.79-.3,1.62-.3,2.45v13.4c0,1.08.17,2.16.52,3.2l1.38,4.14c-.55.55-.9,1.3-.9,2.14,0,1.3.84,2.4,2,2.82v3.18c0,1.65,1.35,3,3,3h20c1.65,0,3-1.35,3-3v-3.18c1.16-.42,2-1.52,2-2.82,0-.84-.35-1.59-.9-2.14l1.38-4.14c.35-1.04.52-2.12.52-3.2v-5.52c0-.55-.45-1-1-1s-1,.45-1,1v5.52c0,.87-.14,1.73-.42,2.56l-1.08,3.26-.64-1.92c-.68-2.05-2.59-3.42-4.74-3.42h-14.24c-2.15,0-4.06,1.37-4.74,3.42l-.64,1.92-1.08-3.26c-.28-.83-.42-1.69-.42-2.56v-13.4c0-.67.08-1.33.24-1.97.44-1.75,1.46-3.32,2.89-4.43,1.41-1.11,3.19-1.72,4.99-1.72h3.54l-4.63,17.75c-.13.51.15,1.03.65,1.2,2.05.68,4.17,1.03,6.32,1.03s4.27-.35,6.32-1.03c.5-.17.78-.69.65-1.2l-1.04-4c-.14-.54-.69-.86-1.22-.72-.54.14-.86.69-.72,1.22l.8,3.07c-3.12.87-6.46.87-9.58.01l4.79-18.37,2.94,11.29c.14.54.69.86,1.22.72.54-.14.86-.69.72-1.22l-2.54-9.75h3.54c3.73,0,6.97,2.53,7.88,6.15.16.64.24,1.3.24,1.97v3.88c0,.55.45,1,1,1s1-.45,1-1v-3.88c0-.83-.1-1.66-.3-2.45-.02-.1-.06-.2-.09-.3,1.77-.5,3.25-1.29,4.36-2.4,4.07-4.08,2.89-11.63,2.84-11.95ZM43,54.003c0,.55-.45,1-1,1h-20c-.55,0-1-.45-1-1v-3h22v3ZM41.56,42.273c.17.24.31.5.4.78l.65,1.95h-3.47c.32-1.24,1.21-2.26,2.42-2.73ZM24.88,41.003h14.24c.17,0,.34.02.5.05-1.33.9-2.26,2.32-2.54,3.95h-10.16c-.28-1.63-1.21-3.05-2.54-3.95.16-.03.33-.05.5-.05ZM22.04,43.053c.09-.28.23-.54.4-.78,1.21.47,2.1,1.49,2.42,2.73h-3.47l.65-1.95ZM20,47.003h24c.55,0,1,.45,1,1s-.45,1-1,1h-24c-.55,0-1-.45-1-1s.45-1,1-1ZM17.12,20.513c-1.52-.41-2.77-1.05-3.67-1.96-2.69-2.69-2.54-7.61-2.37-9.47.39-.03.91-.07,1.51-.08l1.75,1.76c2.11,2.1,3.56,4.73,4.23,7.63-.57.64-1.05,1.35-1.45,2.12ZM20.24,16.893c-.84-2.85-2.37-5.43-4.48-7.55l-.13-.13c1.76.29,3.61.92,4.92,2.24,1.01,1,1.69,2.42,2.07,4.18-.84.31-1.64.74-2.38,1.26ZM43.76,16.893c-.73-.52-1.53-.95-2.38-1.26.38-1.76,1.06-3.18,2.07-4.18,1.31-1.32,3.16-1.95,4.92-2.24l-.13.13c-2.11,2.12-3.64,4.7-4.48,7.55ZM46.88,20.503c-.4-.77-.88-1.48-1.45-2.11.68-2.9,2.12-5.53,4.23-7.63l1.75-1.76c.6.01,1.12.05,1.51.08.17,1.86.32,6.78-2.37,9.47-.9.91-2.15,1.55-3.67,1.95Z"/>
  <path d="M26,26.003c0-1.654-1.346-3-3-3s-3,1.346-3,3,1.346,3,3,3,3-1.346,3-3ZM23,27.003c-.552,0-1-.449-1-1s.448-1,1-1,1,.449,1,1-.448,1-1,1Z"/>
  <path d="M41,23.003c-1.654,0-3,1.346-3,3s1.346,3,3,3,3-1.346,3-3-1.346-3-3-3ZM41,27.003c-.552,0-1-.449-1-1s.448-1,1-1,1,.449,1,1-.448,1-1,1Z"/>
</svg>