<?xml version="1.0" encoding="UTF-8"?>
<svg id="Outline" xmlns="http://www.w3.org/2000/svg" version="1.1" viewBox="0 0 64 64">
  <!-- Generator: Adobe Illustrator 29.5.1, SVG Export Plug-In . SVG Version: 2.1.0 Build 141)  -->
  <path d="M55,19.4c-.58-2.64.05-5.36,1.73-7.47.45-.55.56-1.28.31-1.95-.24-.66-.81-1.14-1.51-1.26-6.27-1.14-12.82-.78-18.92,1.05l-.14.04c-.81-1.66-2.5-2.81-4.47-2.81s-3.66,1.15-4.47,2.81l-.14-.04c-6.1-1.83-12.65-2.2-18.92-1.05-.7.12-1.27.6-1.51,1.26-.25.67-.14,1.4.31,1.95,1.68,2.11,2.31,4.83,1.73,7.47l-.83,3.69c-.69.85-1.03,1.96-.87,3.08.42,2.944,3.942,4.362,6.32,2.62,2.55-1.92,5.39-3.41,8.42-4.41l6.96-2.33v5.25c-6.84,1.4-12,7.46-12,14.7,0,8.27,6.73,15,15,15s15-6.73,15-15c0-3.26-1.03-6.36-2.99-8.98-.33-.44-.96-.53-1.4-.2-.44.33-.53.96-.2,1.4.65.87,1.18,1.8,1.59,2.78h-2.21c-1.06-2.05-2.74-3.73-4.79-4.79v-2.21c.98.41,1.91.94,2.78,1.59.44.33,1.07.24,1.4-.2.33-.44.24-1.07-.2-1.4-1.8-1.34-3.83-2.24-5.98-2.68v-5.17l6.97,2.26c3.05.99,5.89,2.46,8.45,4.34.68.51,1.5.78,2.35.78,1.99,0,3.69-1.48,3.95-3.45.15-1.13-.21-2.25-.92-3.09l-.8-3.58ZM8.83,10.68c5.96-1.08,12.18-.73,17.99,1.01l.21.06c-.01.09-.03.17-.03.25v2.45c-3.72-1.56-7.76-2.12-11.78-1.61l-1.34.17c-.55.07-.94.57-.87,1.11.07.55.56.94,1.11.87l1.35-.17c3.95-.49,7.92.15,11.53,1.82v1.36h-2.05c-4.99,0-9.92,1.2-14.36,3.46l.36-1.63c.72-3.23-.06-6.56-2.12-9.15ZM21.4,22.48c-3.23,1.08-6.25,2.66-8.98,4.71-1.163.873-2.933.129-3.14-1.3-.12-.81.28-1.62,1-2.01l.26-.15c4.4-2.44,9.38-3.73,14.41-3.73h2.47c.07.14.15.27.22.4l-6.24,2.08ZM29,29.36c.96-.23,1.97-.36,3-.36,1.02,0,2.03.12,3,.35v2.08c-.96-.28-1.96-.43-3-.43s-2.04.15-3,.43v-2.07ZM31,27.05v-4.15c.32.06.66.1,1,.1s.68-.04,1-.1v4.14c-.33-.02-.66-.04-1-.04s-.67.03-1,.05ZM27,30v2.21c-2.05,1.06-3.73,2.74-4.79,4.79h-2.21c1.32-3.15,3.85-5.68,7-7ZM19,42c0-1.03.13-2.04.36-3h2.07c-.28.96-.43,1.96-.43,3s.15,2.04.43,3h-2.07c-.23-.96-.36-1.97-.36-3ZM27,54c-3.15-1.32-5.68-3.85-7-7h2.21c1.06,2.05,2.74,3.73,4.79,4.79v2.21ZM35,54.64c-.96.23-1.97.36-3,.36s-2.04-.13-3-.36v-2.07c.96.28,1.96.43,3,.43s2.04-.15,3-.43v2.07ZM42.57,39h2.08c.23.97.35,1.98.35,3,0,1.03-.13,2.04-.36,3h-2.07c.28-.96.43-1.96.43-3s-.15-2.04-.43-3ZM44,47c-1.32,3.15-3.85,5.68-7,7v-2.21c2.05-1.06,3.73-2.74,4.79-4.79h2.21ZM41,42c0,4.96-4.04,9-9,9s-9-4.04-9-9,4.04-9,9-9,9,4.04,9,9ZM35,18c0,1.65-1.35,3-3,3s-3-1.35-3-3v-6c0-1.65,1.35-3,3-3s3,1.35,3,3v6ZM54.74,25.81c-.15,1.12-1.11,1.71-1.97,1.71-.3,0-.74-.07-1.17-.38-2.72-2.02-5.75-3.58-9.01-4.64l-6.27-2.04c.08-.12.15-.25.22-.39l2.49-.02c1.25-.02,2.55.07,3.85.22.04.01.08.01.12.01.5,0,.93-.37.99-.88.07-.55-.32-1.05-.87-1.11-1.38-.17-2.76-.26-4.11-.24l-2.02.02c0-.02.01-.05.01-.07v-1.36c3.61-1.67,7.58-2.31,11.53-1.82l1.35.17c.55.07,1.04-.32,1.11-.87.07-.54-.32-1.04-.87-1.11l-1.34-.17c-4.02-.51-8.06.05-11.78,1.61v-2.45c0-.08-.02-.16-.03-.25l.21-.06c5.81-1.74,12.03-2.09,17.99-1.01-2.06,2.59-2.84,5.92-2.12,9.15l.35,1.57c-1.97-.99-4.03-1.77-6.15-2.32-.53-.13-1.08.19-1.22.72-.14.54.19,1.08.72,1.22,2.33.6,4.59,1.49,6.72,2.65.781.425,1.393,1.191,1.27,2.14Z"/>
  <path d="M30,35c-.553,0-1,.447-1,1s.447,1,1,1h1v10h-1c-.553,0-1,.447-1,1s.447,1,1,1h4c.553,0,1-.447,1-1s-.447-1-1-1h-1v-10h1c.553,0,1-.447,1-1s-.447-1-1-1h-4Z"/>
</svg>