<?xml version="1.0" encoding="UTF-8"?>
<svg id="Outline" xmlns="http://www.w3.org/2000/svg" version="1.1" viewBox="0 0 64 64">
  <!-- Generator: Adobe Illustrator 29.0.0, SVG Export Plug-In . SVG Version: 2.1.0 Build 186)  -->
  <path d="M32,17.29287c-2.16797,0-4.26465.63184-6.06348,1.82715-.45996.30566-.58496.92676-.2793,1.38672.30664.46094.92725.58594,1.38672.2793,1.46924-.97656,3.18311-1.49316,4.95605-1.49316,4.9624,0,9,4.03711,9,9s-4.0376,9-9,9-9-4.03711-9-9c0-1.77344.51611-3.4873,1.49316-4.95605.30566-.45996.18066-1.08105-.2793-1.38672-.46191-.30664-1.08105-.17969-1.38672.2793-1.19531,1.79883-1.82715,3.89551-1.82715,6.06348,0,6.06543,4.93457,11,11,11s11-4.93457,11-11-4.93457-11-11-11Z"/>
  <path d="M28.17188,32.20693c.75537.75586,1.75977,1.17188,2.82812,1.17188s2.07275-.41602,2.82812-1.17188l3.87939-3.87891c1.16846-1.16992,1.16846-3.07227,0-4.24219-1.13379-1.13281-3.10986-1.13281-4.24268,0l-2.46484,2.46484-.46436-.46484c-1.13379-1.13281-3.10938-1.13281-4.24316,0-1.16846,1.16992-1.16846,3.07227.00049,4.24219l1.87891,1.87891ZM27.70752,27.4999c.36218-.36216,1.02685-.38772,1.41357,0l1.17188,1.17188c.39062.39062,1.02344.39062,1.41406,0l3.17236-3.17188c.37695-.37891,1.03613-.37891,1.41309,0,.38965.38965.38965,1.02441.00049,1.41406l-3.87891,3.87891c-.75586.75586-2.07227.75586-2.82812,0l-1.87842-1.87891c-.38961-.38961-.38965-1.02429,0-1.41406Z"/>
  <path d="M55.43652,19.93056c-.99365-.87598-2.31885-1.28906-3.63281-1.12109-2.34656.29382-4.60858,1.10278-6.61194,2.34924-2.54156-4.68085-7.50146-7.86584-13.19177-7.86584s-10.65021,3.185-13.19177,7.86584c-2.00336-1.24646-4.26538-2.05542-6.61194-2.34924-1.31494-.16602-2.63916.24414-3.63281,1.12109s-1.56348,2.14062-1.56348,3.46582v9.79297c0,1.32518.56981,2.58884,1.56345,3.46579.96962.85576,2.34812,1.28541,3.63284,1.12112,2.34656-.29382,4.60858-1.10278,6.61194-2.34924.60089,1.10669,1.34857,2.11871,2.19757,3.03583l-4.26459,6.08588c-.17676.25293-.22754.57227-.13721.86719s.31152.53125.59961.6416l3.61572,1.37988,2.5459,2.93066c.40666.46812,1.19725.4568,1.57422-.08203l5.00122-7.15155c.67511.09332,1.35901.15839,2.05933.15839s1.38422-.06506,2.05933-.15839l5.00118,7.15149c.36814.52643,1.15516.56568,1.57426.0821l2.5459-2.93066s3.61572-1.37988,3.61575-1.37989c.88736-.33993.64372-1.26928.21246-1.87795-.32836-.46344-.65672-.92688-.98508-1.39032-.15141-.2137-.30912-.43338-.5329-.56946-.56337-.34259-1.41987.10424-1.46122.76229-.04058.64575.53841,1.13568.86404,1.69479-2.00893.4156-3.82731,1.6823-4.91336,3.42271-1.26676-1.80345-2.53351-3.6069-3.80027-5.41035,1.95012-.56565,3.78703-1.53127,5.35343-2.82395l.35711.51062c.31256.44692.94855.55704,1.39258.2461.45264-.31641.56299-.93945.24609-1.39258l-.53571-.76587c.84924-.9173,1.59711-1.92957,2.19818-3.0365,2.00335,1.24646,4.26537,2.05542,6.61192,2.34924,1.30562.16348,2.64621-.25078,3.63283-1.12109.99365-.87695,1.56348-2.14062,1.56348-3.46582v-9.79297c0-1.3252-.56982-2.58887-1.56348-3.46582ZM11.94824,35.79189c-.74805.0918-1.49707-.13867-2.06104-.63574-.56396-.49805-.88721-1.21484-.88721-1.9668v-9.79297c0-.75195.32324-1.46875.88721-1.9668.56396-.49707,1.31445-.72949,2.06104-.63574,2.14948.26917,4.21869,1.03125,6.03326,2.20892-.23029.60809-.42389,1.23291-.57434,1.87555l-2.9599-1.47998c-.49512-.24609-1.09473-.04688-1.3418.44727s-.04688,1.09473.44727,1.3418l3.5155,1.75775c-.03986.4447-.06824.89282-.06824,1.34772s.02838.90302.06824,1.34772l-3.5155,1.75775c-.4941.24705-.6943.84756-.44733,1.34167.24398.48812.85639.68847,1.34186.44739l2.9599-1.47998c.15045.64264.34406,1.26746.57434,1.87555-1.81458,1.17767-3.88379,1.93976-6.03326,2.20892ZM24.03516,48.08974l-1.87012-2.15234c-.10791-.125-.24463-.2207-.39844-.2793l-2.65137-1.01172,3.35065-4.78156c1.55127,1.28033,3.36749,2.24493,5.34753,2.8219l-3.77826,5.40302ZM19,28.29287c0-7.16797,5.83154-13,13-13s13,5.83203,13,13-5.83154,13-13,13-13-5.83203-13-13ZM55,33.18935c0,.75195-.32324,1.46875-.88721,1.9668-.56396.49707-1.31396.73047-2.06104.63574-2.14948-.26917-4.21869-1.03125-6.03326-2.20892.23029-.60809.42389-1.23291.57434-1.87555l2.9599,1.47998c.46795.23398,1.09099.05435,1.3418-.44726.24707-.49414.04688-1.09473-.44727-1.3418l-3.5155-1.75775c.03986-.4447.06824-.89282.06824-1.34772s-.02838-.90302-.06824-1.34772l3.5155-1.75775c.49414-.24707.69434-.84766.44727-1.3418s-.84717-.69336-1.3418-.44727l-2.9599,1.47998c-.15045-.64264-.34406-1.26746-.57434-1.87555,1.81458-1.17767,3.88379-1.93976,6.03326-2.20892.74561-.0957,1.49707.13867,2.06104.63574.56396.49805.88721,1.21484.88721,1.9668v9.79297Z"/>
</svg>