<?xml version="1.0" encoding="UTF-8"?>
<svg id="Outline" xmlns="http://www.w3.org/2000/svg" version="1.1" viewBox="0 0 64 64">
  <!-- Generator: Adobe Illustrator 29.0.0, SVG Export Plug-In . SVG Version: 2.1.0 Build 186)  -->
  <path d="M54.88672,11.57471c-.20312-.43115-.68359-.65869-1.14355-.5459l-17.51868,4.29736c-1.08514-1.43646-2.57806-2.32617-4.22449-2.32617s-3.13934.88971-4.22449,2.32617l-17.51868-4.29736c-.45996-.1123-.94043.11475-1.14355.5459-2.81348,5.98975-2.81348,12.86084,0,18.85059.16797.35693.52441.57471.90527.57471.0791,0,.15918-.00928.23828-.02881l6.82043-1.67303-2.63978,21.08759c-.04589.36572.11329.72705.41407.93994.30078.21338.69531.24365,1.02441.07861l5.85449-2.92236,4.95605,4.27539c.18457.15918.41699.24268.65332.24268.12109,0,.24219-.02197.35938-.06689.34375-.13232.58691-.44287.63281-.80908l2.90295-23.19653c.25116.04291.50525.07251.76501.07251s.51385-.0296.76501-.07251l2.90295,23.19653c.0459.36621.28906.67676.63281.80908.11719.04492.23828.06689.35938.06689.23535,0,.46875-.0835.65332-.24268l4.95605-4.27539,5.85449,2.92236c.3291.16602.72461.13574,1.02441-.07861.30078-.21289.45996-.57422.41406-.93994l-2.63977-21.08759,6.82043,1.67303c.0791.01953.15918.02881.23828.02881.38086,0,.7373-.21777.90527-.57471,2.81348-5.98975,2.81348-12.86084,0-18.85059ZM10.5918,13.17041l16.15887,3.96362c-.31354.75378-.53467,1.58264-.65198,2.45966l-6.74713-2.53021c-.51758-.19238-1.09375.06738-1.28809.58545-.19336.51709.06836,1.09326.58496,1.2876l5.50262,2.06348-5.50262,2.06348c-.5166.19434-.77832.77051-.58496,1.2876.15039.40137.53223.64941.93652.64941.11719,0,.23535-.021.35156-.06396l6.74713-2.53021c.11731.87701.33844,1.70587.65198,2.45966l-16.15887,3.96362c-2.11719-5.01855-2.11719-10.64062,0-15.65918ZM26.5791,50.02344l-4.0459-3.49072c-.30566-.26367-.73926-.31787-1.09961-.13721l-4.7793,2.38574,2.50226-19.99316,8.61896-2.11426c.44916.5946.97083,1.08911,1.54187,1.4718l-2.73828,21.87781ZM28,21c0-3.25244,1.83203-6,4-6s4,2.74756,4,6-1.83203,6-4,6-4-2.74756-4-6ZM47.3457,48.78125l-4.7793-2.38574c-.36133-.18066-.79395-.12646-1.09961.13721l-4.0459,3.49072-2.73828-21.87781c.57104-.38269,1.09271-.8772,1.54187-1.4718l8.61896,2.11426,2.50226,19.99316ZM53.4082,28.82959l-16.15887-3.96362c.31354-.75378.53467-1.58264.65198-2.45966l6.74713,2.53021c.11621.04297.23438.06396.35156.06396.4043,0,.78613-.24805.93652-.64941.19336-.51709-.06836-1.09326-.58496-1.2876l-5.50262-2.06348,5.50262-2.06348c.5166-.19434.77832-.77051.58496-1.2876-.19434-.51807-.77148-.77734-1.28809-.58545l-6.74713,2.53021c-.11731-.87701-.33844-1.70587-.65198-2.45966l16.15887-3.96362c2.11719,5.01855,2.11719,10.64062,0,15.65918Z"/>
</svg>