<?xml version="1.0" encoding="UTF-8"?>
<svg id="Outline" xmlns="http://www.w3.org/2000/svg" version="1.1" viewBox="0 0 64 64">
  <!-- Generator: Adobe Illustrator 29.5.1, SVG Export Plug-In . SVG Version: 2.1.0 Build 141)  -->
  <path d="M56,55h-11.85c.25-.846.807-1.603,1.601-2.125,7.044-4.649,11.249-12.453,11.249-20.875,0-.553-.447-1-1-1,0-1.081-.431-2.091-1.181-2.832.12-.379.181-.77.181-1.168,0-.51-.104-1.02-.305-1.5.2-.48.305-.99.305-1.5,0-2.248-1.89-4.075-4.126-3.998-.101-.392-.267-.757-.474-1.093l6.372-7.733c.352-.426.291-1.056-.135-1.407l-3.08-2.54c-.205-.169-.469-.247-.732-.224-.265.025-.508.154-.676.359l-7.779,9.44c-.483-.36-1.042-.606-1.641-.72l4.043-4.908c.352-.426.291-1.056-.135-1.407l-3.081-2.54c-.204-.169-.468-.247-.731-.224-.265.025-.508.154-.676.359l-7.44,9.031c-.523-.25-1.101-.395-1.708-.395-.669,0-1.322.172-1.901.489-.749-.922-1.884-1.489-3.099-1.489-.706,0-1.395.19-2,.546-.605-.355-1.294-.546-2-.546-2.206,0-4,1.794-4,4,0,.042,0,.085.002.127-.548.143-1.06.4-1.502.757-.702-.565-1.579-.884-2.5-.884-1.461,0-2.778.802-3.471,2.036-.176-.024-.353-.036-.529-.036-2.206,0-4,1.794-4,4,0,1.215.567,2.35,1.489,3.099-.317.579-.489,1.232-.489,1.901,0,.342.059.675.143,1h-1.143c-.553,0-1,.447-1,1,0,8.422,4.205,16.226,11.25,20.875.793.522,1.349,1.279,1.6,2.125H8c-.553,0-1,.447-1,1s.447,1,1,1h48c.553,0,1-.447,1-1s-.447-1-1-1ZM53.056,9.408l1.537,1.268-5.636,6.84c-.579-.327-1.246-.515-1.957-.515-.071,0-.141.01-.212.014l6.268-7.605ZM43.056,9.408l1.537,1.268-5.19,6.302c-.409.355-.749.791-.989,1.285-.611-.234-1.283-.318-1.943-.227-.07-.124-.15-.24-.232-.355l6.816-8.273ZM21.908,55c-.28-1.522-1.192-2.896-2.558-3.795-5.057-3.337-8.522-8.442-9.802-14.205h34.451c.553,0,1-.447,1-1s-.447-1-1-1H9.205c-.087-.661-.155-1.327-.184-2h5.979c.553,0,1-.447,1-1s-.447-1-1-1h-3.726c-.177-.301-.274-.645-.274-1,0-.548.235-1.077.645-1.453.257-.234.373-.586.307-.928s-.306-.624-.631-.746c-.802-.3-1.32-1.035-1.32-1.873,0-1.356,1.411-2.383,2.75-1.852.266.107.564.093.819-.035.256-.129.443-.36.518-.637.23-.869,1.018-1.477,1.913-1.477.667,0,1.29.338,1.668.904.371.557,1.293.557,1.664,0,.378-.566,1.001-.904,1.614-.905.049.007.194.021.244.021.328,0,.636-.161.822-.431s.229-.614.113-.922c-.085-.226-.126-.444-.126-.667,0-1.103.897-2,2-2,.485,0,.958.186,1.328.521.383.346.961.346,1.344,0,.37-.336.843-.521,1.328-.521.838,0,1.573.519,1.873,1.32.122.325.404.564.746.631.339.066.692-.05.928-.307.376-.409.905-.645,1.453-.645.896,0,1.683.607,1.913,1.477.074.276.262.508.518.637.255.127.553.142.819.035.738-.294,1.527-.136,2.09.385.282.263.688.34,1.048.196.357-.142.603-.476.629-.859.074-1.049.945-1.87,1.983-1.87.838,0,1.573.519,1.873,1.32.122.325.404.564.746.631.339.067.692-.05.928-.307.376-.409.905-.645,1.453-.645,1.103,0,2,.897,2.001,1.946-.007.049-.021.194-.021.244,0,.328.161.636.431.822.271.188.616.229.922.113,1.343-.507,2.667.549,2.667,1.874,0,.342-.095.676-.281.992-.185.313-.185.702,0,1.016.187.316.281.65.281.992,0,.337-.088.656-.27.976-.265.464-.116,1.055.336,1.34.585.369.934.999.934,1.685H19c-.553,0-1,.447-1,1s.447,1,1,1h35.979c-.029.673-.097,1.339-.184,2h-6.795c-.553,0-1,.447-1,1s.447,1,1,1h6.451c-1.279,5.763-4.745,10.868-9.801,14.205-1.366.899-2.278,2.272-2.559,3.795h-20.184Z"/>
  <path d="M23.767,27.991c.563.634,1.374,1.009,2.233,1.009,1.654,0,3-1.346,3-3,0-1.576-1.222-2.872-2.767-2.991-.563-.634-1.374-1.009-2.233-1.009-1.654,0-3,1.346-3,3,0,1.576,1.222,2.872,2.767,2.991ZM24,24c.36,0,.684.193.866.517.2.356.594.554,1.005.501.002,0,.122-.017.133-.018.55.002.996.45.996,1s-.448,1-1,1c-.36,0-.684-.193-.866-.517-.178-.317-.513-.51-.871-.51-.044,0-.089.003-.134.009-.002,0-.127.018-.129.018-.552,0-1-.448-1-1s.448-1,1-1Z"/>
  <path d="M32,26c.553,0,1-.447,1-1,0-.722.812-1.259,1.496-.858.312.182.695.182,1.008,0,.685-.398,1.496.138,1.496.858,0,.553.447,1,1,1s1-.447,1-1c0-1.654-1.346-3-3-3-.339,0-.677.061-1,.178-.323-.117-.661-.178-1-.178-1.654,0-3,1.346-3,3,0,.553.447,1,1,1Z"/>
  <path d="M41,29c.553,0,1-.447,1-1,0-.722.812-1.26,1.496-.858.312.182.695.182,1.008,0,.685-.399,1.497.138,1.496.858,0,.553.447,1,1,1s1-.447,1-1c0-1.654-1.346-3-3-3-.339,0-.677.061-1,.178-.323-.117-.661-.178-1-.178-1.654,0-3,1.346-3,3,0,.553.447,1,1,1Z"/>
</svg>