<?xml version="1.0" encoding="UTF-8"?>
<svg id="Outline" xmlns="http://www.w3.org/2000/svg" version="1.1" viewBox="0 0 64 64">
  <!-- Generator: Adobe Illustrator 29.3.1, SVG Export Plug-In . SVG Version: 2.1.0 Build 151)  -->
  <path d="M56,21h-3v-5c0-1.65002-1.34998-3-3-3h-12v-4h1c.54999,0,1-.45001,1-1s-.45001-1-1-1h-14c-.54999,0-1,.45001-1,1s.45001,1,1,1h1v4h-12c-1.65002,0-3,1.34998-3,3v5h-3c-.54999,0-1,.45001-1,1v10c0,.38.21002.71997.54999.89001l3.45001,1.72998v13.38c0,1.64996,1.34998,3,3,3h2v5c0,.54999.45001,1,1,1h4c.42999,0,.81-.28003.95001-.67999l1.76996-5.32001h16.56006l1.76996,5.32001c.14001.39996.52002.67999.95001.67999h4c.54999,0,1-.45001,1-1v-5h2c1.65002,0,3-1.35004,3-3v-13.38l3.45001-1.72998c.33997-.17004.54999-.51001.54999-.89001v-10c0-.54999-.45001-1-1-1ZM11,32.38l-2-1v-8.38h2v9.38ZM28,9h8v4h-8v-4ZM13,23h7v20h-7v-20ZM20.28003,55h-2.28003v-4h3.60999l-1.32996,4ZM46,55h-2.28003l-1.32996-4h3.60999v4ZM51,48c0,.54999-.45001,1-1,1H14c-.54999,0-1-.45001-1-1v-3h38v3ZM51,43h-7v-6c0-.54999-.45001-1-1-1s-1,.45001-1,1v6h-20v-20h20v6c0,.54999.45001,1,1,1s1-.45001,1-1v-6h7v20ZM51,21H13v-5c0-.54999.45001-1,1-1h36c.54999,0,1,.45001,1,1v5ZM55,31.38l-2,1v-9.38h2v8.38Z"/>
  <path d="M37,34h-10c-1.6543,0-3,1.3457-3,3s1.3457,3,3,3h10c1.6543,0,3-1.3457,3-3s-1.3457-3-3-3ZM37,38h-10c-.55176,0-1-.44824-1-1s.44824-1,1-1h10c.55176,0,1,.44824,1,1s-.44824,1-1,1Z"/>
  <path d="M37,26h-10c-1.6543,0-3,1.3457-3,3s1.3457,3,3,3h10c1.6543,0,3-1.3457,3-3s-1.3457-3-3-3ZM37,30h-10c-.55176,0-1-.44824-1-1s.44824-1,1-1h10c.55176,0,1,.44824,1,1s-.44824,1-1,1Z"/>
  <circle cx="43" cy="33" r="1"/>
</svg>