<?xml version="1.0" encoding="UTF-8"?>
<svg id="Outline" xmlns="http://www.w3.org/2000/svg" version="1.1" viewBox="0 0 64 64">
  <!-- Generator: Adobe Illustrator 29.5.1, SVG Export Plug-In . SVG Version: 2.1.0 Build 141)  -->
  <path d="M56.83,37.449c-.18-.28-.49-.45-.83-.45h-1.14c.08-.33.14-.66.14-1,0-1.08-.43-2.09-1.18-2.83.12-.38.18-.77.18-1.17,0-2.21-1.79-4-4-4-.11,0-.23.01-.35.02-1.41-1.27-3.7-1.31-5.15-.14-.54-.43-1.2-.71-1.89-.82.89-1.9,2.22-3.74,3.98-5.5l9.44-9.44c.57-.57.88-1.32.88-2.12s-.31-1.55-.88-2.12c-1.17-1.17-3.07-1.17-4.24,0l-9.44,9.44c-2.43,2.43-5.02,4.05-7.69,4.81-1.25.36-2.42,1.05-3.38,2.01-.46.46-.84.96-1.16,1.48-.63-.4-1.37-.62-2.12-.62-1.56,0-2.93.92-3.59,2.26-.44-.17-.92-.26-1.41-.26-1.86,0-3.43,1.28-3.87,3-.75-.02-1.49.17-2.13.55-.61-.36-1.29-.55-2-.55-2.21,0-4,1.79-4,4,0,.18.01.35.04.53-.95.53-1.64,1.42-1.91,2.47h-1.13c-.34,0-.65.17-.83.45-.19.28-.22.63-.09.94,2.22,5.18,6.11,9.27,10.87,11.8l-.94,5.65c-.04.29.04.58.23.81.19.22.47.35.76.35h28c.29,0,.57-.13.76-.35.19-.23.27-.52.23-.81l-.94-5.65c4.76-2.53,8.65-6.62,10.87-11.8.13-.31.1-.66-.09-.94ZM32.69,25.559c.73-.72,1.59-1.24,2.51-1.51,3.01-.85,5.89-2.64,8.56-5.32l9.44-9.44c.2-.19.45-.29.71-.29.25,0,.51.1.7.29s.3.44.3.71-.11.52-.3.71l-9.43,9.44c-2.68,2.67-4.47,5.55-5.33,8.55-.26.92-.78,1.79-1.5,2.51-1.95,1.95-4.8,2.27-6.36.71s-1.24-4.41.7-6.36ZM12.48,36.089c.27-.08.51-.27.63-.52.13-.26.14-.56.04-.82-.1-.25-.15-.5-.15-.75,0-1.1.9-2,2-2,.49,0,.96.19,1.33.52.38.35.96.35,1.34,0,.54-.49,1.28-.66,2-.39.3.11.65.07.92-.12.27-.18.43-.49.43-.82,0-.08-.01-.16-.02-.19,0-1.1.9-2,2-2,.49,0,.97.19,1.34.53.28.27.69.34,1.05.2s.6-.48.63-.86c.07-1.05.94-1.87,1.98-1.87.48,0,.93.17,1.29.48-.62,2.13-.21,4.36,1.28,5.85,1.05,1.06,2.47,1.57,3.95,1.57,1.82,0,3.74-.77,5.25-2.27.96-.96,1.65-2.13,2.01-3.38.02-.08.05-.16.08-.24.67-.04,1.4.29,1.81.89.37.56,1.29.56,1.66,0,.38-.56,1-.9,1.67-.9.59,0,1.15.27,1.53.73.24.29.62.42.99.34.19-.05.35-.07.48-.07,1.1,0,2,.9,2,2,0,.34-.09.66-.27.98-.26.46-.12,1.05.34,1.34.58.36.93.99.93,1.68,0,.36-.1.7-.27,1H11.28c.26-.44.68-.78,1.2-.91ZM19.18,54.999l.65-3.92c2.92,1.24,6.1,1.92,9.4,1.92h5.54c3.3,0,6.48-.68,9.4-1.92l.65,3.92h-25.64ZM34.77,50.999h-5.54c-8.33,0-15.89-4.66-19.66-12h44.86c-3.77,7.34-11.33,12-19.66,12Z"/>
  <circle cx="21" cy="34.999" r="1"/>
  <circle cx="24" cy="32.999" r="1"/>
  <circle cx="27" cy="34.999" r="1"/>
</svg>