<?xml version="1.0" encoding="UTF-8"?>
<svg id="Outline" xmlns="http://www.w3.org/2000/svg" version="1.1" viewBox="0 0 64 64">
  <!-- Generator: Adobe Illustrator 29.0.0, SVG Export Plug-In . SVG Version: 2.1.0 Build 186)  -->
  <path d="M56,29.00109h-1c0-2.44-1.76001-4.48004-4.08002-4.92004-.10999-.58997-.32996-1.13995-.63-1.63995l5.71002-5.21002c.21002-.19.32001-.44.33002-.71997.01001-.27002-.10004-.53003-.29004-.73004l-2.82001-2.82996c-.18994-.19-.45996-.28003-.72998-.29004-.27997.01001-.52997.12-.71997.33002l-6.46002,7.07001c-.33002.04999-.65002.12-.96997.23999-.65002-.59003-1.42004-.98999-2.26001-1.17999l8.26996-7.54999c.21002-.19.32001-.44.33002-.72003.01001-.27002-.09998-.52997-.28998-.72998l-2.83002-2.83002c-.20001-.19-.46997-.31-.72998-.28998-.28003.01001-.54004.12-.72003.32996l-7.62,8.34003c-.72998-.42999-1.58002-.66998-2.48999-.66998-.88,0-1.72998.23999-2.5.69-.77002-.45001-1.62-.69-2.5-.69-1.72998,0-3.31.89996-4.21002,2.32996-1.56-.59998-3.44-.33997-4.78998.69-.85999-.65997-1.90997-1.01996-3-1.01996-2.76001,0-5,2.23999-5,5-2.76001,0-5,2.23999-5,5,0,.70001.15002,1.38.41998,2h-1.41998c-.54999,0-1,.45001-1,1v3c0,9.65997,6.88,17.73999,16,19.59998v3.40002c0,.54999.45001,1,1,1h16c.54999,0,1-.45001,1-1v-3.40002c9.12-1.85999,16-9.94,16-19.59998v-3c0-.54999-.45001-1-1-1ZM52.53998,15.11107l1.34003,1.34998-4.95001,4.51001c-.34998-.26001-.73999-.47998-1.14996-.64001l4.75995-5.21997ZM46.88,9.4511l1.34998,1.34998-7.72998,7.06c-.15002-.31-.32001-.59003-.52002-.85999l6.90002-7.54999ZM39,55.00109h-14v-2h14v2ZM37,51.00109h-10c-9.25,0-16.88-7.01001-17.88-16h2.02002c1,7.91998,7.77997,14,15.85999,14h10c8.08002,0,14.85999-6.08002,15.85999-14h2.02002c-1,8.98999-8.63,16-17.88,16ZM13.14001,35.00109h37.71997c-.97998,6.81-6.87,12-13.85999,12h-10c-6.98999,0-12.88-5.19-13.85999-12ZM55,33.00109H9v-2h11c.54999,0,1-.45001,1-1s-.45001-1-1-1h-8.21002c-.5-.54999-.78998-1.25-.78998-2,0-1.65002,1.34998-3,3-3,.28003,0,.57001.04999.89001.15997.35999.12.76001.03003,1.02997-.23999.26001-.27002.36005-.66998.23999-1.02997-.10999-.32001-.15997-.61005-.15997-.89001,0-1.65002,1.34998-3,3-3,.84998,0,1.66998.38,2.25,1.03998.38.42999,1.12.42999,1.5,0,.97998-1.13,2.73999-1.33997,3.91998-.52997.26001.17999.59003.22998.88.13.29999-.10004.53003-.33002.64001-.62006.40997-1.20996,1.53998-2.01996,2.81-2.01996.84003,0,1.48999.37,1.88.67999.35999.28998.88.28998,1.23999,0,.39001-.31,1.03998-.67999,1.88-.67999,1.65,0,2.99997,1.34994,3,2.97992,0,.3854.06042.7196.39001.97009.25.19.57001.25.87.15997.27002-.07001.52002-.10999.73999-.10999.90002,0,1.75.40997,2.32001,1.13.29999.37.83002.47998,1.26001.25.45996-.25.94-.38,1.41998-.38,1.65002,0,3,1.34998,3,3,0,.54999.45001,1,1,1,1.65002,0,3,1.34998,3,3h-25c-.54999,0-1,.45001-1,1s.45001,1,1,1h27v2Z"/>
  <circle cx="24" cy="30.00109" r="1"/>
</svg>