<?xml version="1.0" encoding="UTF-8"?>
<svg id="Outline" xmlns="http://www.w3.org/2000/svg" version="1.1" viewBox="0 0 64 64">
  <!-- Generator: Adobe Illustrator 29.5.1, SVG Export Plug-In . SVG Version: 2.1.0 Build 141)  -->
  <path d="M32,7c-13.79,0-25,11.21-25,25s11.21,25,25,25,25-11.21,25-25S45.79,7,32,7ZM32,55c-12.68,0-23-10.32-23-23s10.32-23,23-23,23,10.32,23,23-10.32,23-23,23Z"/>
  <path d="M32,11c-11.58,0-21,9.42-21,21s9.42,21,21,21,21-9.42,21-21-9.42-21-21-21ZM38,50.01c-1.89.63-3.9.99-6,.99s-4.11-.36-6-.99v-4.01h12v4.01ZM39,44h-14c-.55,0-1-.45-1-1v-2c0-.55.45-1,1-1h14c.55,0,1,.45,1,1v2c0,.55-.45,1-1,1ZM31.87,24c-.44,1.72-2.01,3-3.87,3h-1c-.42,0-.8.27-.94.67s-.02.85.32,1.11l1.87,1.5c1.75,1.4,2.75,3.48,2.75,5.72,0,.55.45,1,1,1s1-.45,1-1c0-2.81-1.24-5.43-3.42-7.21,2.55-.7,4.42-3.03,4.42-5.79v-4c0-.55.45-1,1-1s1,.45,1,1v8c0,.55.45,1,1,1s1-.45,1-1v-5c0-.55.45-1,1-1s1,.45,1,1v7.84l-1.95,5.84c-.03.11-.05.21-.05.32v2h-12v-4c0-.22-.07-.43-.2-.6l-2.8-3.73v-4.67c0-.55.45-1,1-1h7.87ZM26,22v-3c0-.55.45-1,1-1s1,.45,1,1v3h-2ZM30,22v-3c0-.55.45-1,1-1s1,.45,1,1v3h-2ZM40,49.21v-3.39c1.16-.42,2-1.52,2-2.82v-2c0-1.3-.84-2.4-2-2.82v-2.02l1.95-5.84c.03-.11.05-.21.05-.32v-8c0-1.65-1.35-3-3-3-.35,0-.69.07-1,.18v-.18c0-1.65-1.35-3-3-3-.77,0-1.47.3-2,.78-.53-.48-1.23-.78-2-.78s-1.47.3-2,.78c-.53-.48-1.23-.78-2-.78-1.65,0-3,1.35-3,3v3c-1.65,0-3,1.35-3,3v5c0,.22.07.43.2.6l2.8,3.73v3.85c-1.16.42-2,1.52-2,2.82v2c0,1.3.84,2.4,2,2.82v3.39c-6.48-3.03-11-9.59-11-17.21,0-10.48,8.52-19,19-19s19,8.52,19,19c0,7.62-4.52,14.18-11,17.21Z"/>
</svg>