<?xml version="1.0" encoding="UTF-8"?>
<svg id="Outline" xmlns="http://www.w3.org/2000/svg" version="1.1" viewBox="0 0 64 64">
  <!-- Generator: Adobe Illustrator 29.5.1, SVG Export Plug-In . SVG Version: 2.1.0 Build 141)  -->
  <path d="M16.549,17.191c4.145-1.591,8.828-1.576,12.911,0,.118.046.24.067.36.067,1.083,0,1.366-1.545.361-1.933-4.545-1.755-9.744-1.768-14.349,0-.516.198-.773.776-.575,1.292.197.515.774.771,1.292.575Z"/>
  <path d="M34.18,17.257c.12,0,.242-.021.36-.067,4.083-1.575,8.767-1.59,12.911,0,.517.195,1.094-.061,1.292-.575.198-.516-.06-1.094-.575-1.292-4.604-1.768-9.803-1.755-14.348,0-.998.386-.716,1.933.36,1.933Z"/>
  <path d="M41,17.997c-3.25,0-6.34.97-9,2.79-2.66-1.82-5.75-2.79-9-2.79-8.82,0-16,7.18-16,16s7.18,16,16,16c3.25,0,6.34-.97,9-2.79,2.66,1.82,5.75,2.79,9,2.79,2.51,0,5.01-.6,7.24-1.74.5-.25.69-.85.44-1.34-.25-.5-.85-.69-1.34-.44-1.98,1.01-4.12,1.52-6.34,1.52-3.06,0-5.96-.97-8.4-2.8-1.02-.77-1.92-1.67-2.69-2.67-1.9-2.46-2.91-5.41-2.91-8.53,0-2.79.81-5.44,2.34-7.73.53.44,1.01.93,1.44,1.46-1.16,1.89-1.78,4.04-1.78,6.27,0,2.46.75,4.83,2.15,6.85.01.02.02.03.03.05.83,1.18,1.87,2.19,3.09,3.03.02.01.03.03.05.04,1.97,1.33,4.28,2.03,6.68,2.03,6.62,0,12-5.38,12-12s-5.38-12-12-12c-2.09,0-4.11.53-5.9,1.55-.45-.52-.93-1.01-1.44-1.47,2.2-1.36,4.71-2.08,7.34-2.08,7.72,0,14,6.28,14,14,0,2.67-.75,5.25-2.17,7.48-.3.47-.16,1.09.3,1.38.17.11.35.16.54.16.33,0,.65-.16.84-.46,1.63-2.55,2.49-5.51,2.49-8.56,0-8.82-7.18-16-16-16ZM25,33.997c0,3.19.92,6.21,2.67,8.82-1.43.76-3.02,1.18-4.67,1.18-5.51,0-10-4.49-10-10s4.49-10,10-10c1.65,0,3.24.42,4.67,1.18-1.75,2.61-2.67,5.64-2.67,8.82ZM32,38.347c-.66-1.35-1-2.83-1-4.35s.34-3,1-4.35c.66,1.35,1,2.83,1,4.35s-.34,3-1,4.35ZM41,23.997c5.51,0,10,4.49,10,10s-4.49,10-10,10c-1.65,0-3.24-.42-4.67-1.18,1.75-2.61,2.67-5.64,2.67-8.82s-.92-6.21-2.67-8.82c1.43-.76,3.02-1.18,4.67-1.18ZM34.09,25.467c1.9,2.46,2.91,5.41,2.91,8.53,0,2.79-.81,5.44-2.34,7.73-.53-.44-1.01-.93-1.44-1.46,1.16-1.89,1.78-4.04,1.78-6.27,0-2.48-.75-4.87-2.18-6.9-.84-1.19-1.9-2.23-3.14-3.07-1.97-1.33-4.28-2.03-6.68-2.03-6.62,0-12,5.38-12,12s5.38,12,12,12c2.09,0,4.11-.53,5.9-1.55.45.52.93,1.01,1.44,1.47-2.2,1.36-4.71,2.08-7.34,2.08-7.72,0-14-6.28-14-14s6.28-14,14-14c3.06,0,5.96.97,8.4,2.8,1.02.77,1.92,1.67,2.69,2.67Z"/>
  <circle cx="51" cy="44.997" r="1"/>
</svg>