<?xml version="1.0" encoding="UTF-8"?>
<svg id="Outline" xmlns="http://www.w3.org/2000/svg" version="1.1" viewBox="0 0 64 64">
  <!-- Generator: Adobe Illustrator 29.3.1, SVG Export Plug-In . SVG Version: 2.1.0 Build 151)  -->
  <circle cx="16" cy="52" r="1"/>
  <circle cx="46" cy="52" r="1"/>
  <path d="M56.34998,40.06l-7.65997-2.87-4.25-7.42999c-.47998-1.07001-1.54999-1.76001-2.72998-1.76001h-3.89001c.10999-.31.17999-.65002.17999-1v-4c0-1.65002-1.34998-3-3-3h-.17999c.10999-.31.17999-.65002.17999-1v-5c0-1.65002-1.34998-3-3-3v-1c0-1.65002-1.34998-3-3-3h-6c-1.65002,0-3,1.34998-3,3v1c-1.65002,0-3,1.34998-3,3v5c0,.34998.07001.69.17999,1h-.17999c-1.65002,0-3,1.34998-3,3v4c0,.34998.07001.69.17999,1h-4.17999c-1.65002,0-3,1.34998-3,3v18c0,1.64996,1.34998,3,3,3h1c0,2.76001,2.23999,5,5,5s5-2.23999,5-5h20c0,2.76001,2.23999,5,5,5s5-2.23999,5-5h5c.54999,0,1-.45001,1-1v-10c0-.42004-.26001-.79004-.65002-.94ZM41.71002,30c.38995,0,.75.22998.94995.66998l3.62006,6.33002h-11.28003v-7h6.71002ZM22,10c0-.54999.45001-1,1-1h6c.54999,0,1,.45001,1,1v1h-8v-1ZM19,14c0-.54999.45001-1,1-1h12c.54999,0,1,.45001,1,1v5c0,.54999-.45001,1-1,1h-12c-.54999,0-1-.45001-1-1v-5ZM16,23c0-.54999.45001-1,1-1h18c.54999,0,1,.45001,1,1v4c0,.54999-.45001,1-1,1h-18c-.54999,0-1-.45001-1-1v-4ZM29,30v7h-4v-7h4ZM23,30v7h-4v-7h4ZM13,30h4v7h-4v-7ZM9,43h1c.54999,0,1,.45001,1,1s-.45001,1-1,1h-1v-2ZM16,55c-1.65002,0-3-1.35004-3-3s1.34998-3,3-3,3,1.34998,3,3-1.34998,3-3,3ZM46,55c-1.65002,0-3-1.35004-3-3s1.34998-3,3-3,3,1.34998,3,3-1.34998,3-3,3ZM55,46h-1c-.54999,0-1-.45001-1-1s.45001-1,1-1h1v2ZM55,42h-1c-1.65002,0-3,1.34998-3,3s1.34998,3,3,3h1v2h-4.41998c-.78003-1.76001-2.53003-3-4.58002-3s-3.79999,1.23999-4.58002,3h-20.83997c-.78003-1.76001-2.53003-3-4.58002-3s-3.79999,1.23999-4.58002,3h-1.41998c-.54999,0-1-.45001-1-1v-2h1c1.65002,0,3-1.35004,3-3s-1.34998-3-3-3h-1v-10c0-.54999.45001-1,1-1h1v8c0,.54999.45001,1,1,1h18c.54999,0,1-.45001,1-1v-8h2v8c0,.54999.45001,1,1,1h13.82001l7.17999,2.69v.31Z"/>
  <path d="M30,41h-2c-.55273,0-1,.44727-1,1s.44727,1,1,1h2c.55273,0,1-.44727,1-1s-.44727-1-1-1Z"/>
  <path d="M36,41h-2c-.55273,0-1,.44727-1,1s.44727,1,1,1h2c.55273,0,1-.44727,1-1s-.44727-1-1-1Z"/>
  <path d="M19,26h14c.55273,0,1-.44727,1-1s-.44727-1-1-1h-14c-.55273,0-1,.44727-1,1s.44727,1,1,1Z"/>
</svg>