<?xml version="1.0" encoding="UTF-8"?>
<svg id="Outline" xmlns="http://www.w3.org/2000/svg" version="1.1" viewBox="0 0 64 64">
  <!-- Generator: Adobe Illustrator 29.5.1, SVG Export Plug-In . SVG Version: 2.1.0 Build 141)  -->
  <path d="M14.171,21.914c.78.78,1.804,1.17,2.829,1.17s2.049-.39,2.829-1.17l3.878-3.879c1.17-1.169,1.17-3.073,0-4.242-1.134-1.134-3.11-1.134-4.243,0l-2.465,2.464-.464-.464c-1.134-1.134-3.11-1.134-4.243,0-1.17,1.169-1.17,3.073,0,4.242l1.878,1.879ZM13.708,17.207c.377-.378,1.036-.378,1.414,0l1.172,1.171c.391.391,1.023.391,1.414,0l3.172-3.171c.377-.378,1.036-.378,1.414,0,.39.39.39,1.024,0,1.414l-3.878,3.879c-.78.78-2.049.78-2.829,0l-1.878-1.879c-.39-.39-.387-1.027,0-1.414Z"/>
  <path d="M18,29c5.728,0,10.442-4.402,10.949-10h8.051c3.309,0,6,2.691,6,6,0,1.603-.624,3.11-1.757,4.243s-2.64,1.757-4.243,1.757h-8c-.552,0-1,.448-1,1s.448,1,1,1h8c2.138,0,4.146-.832,5.657-2.343s2.343-3.52,2.343-5.657c0-4.411-3.589-8-8-8h-8.051c-.508-5.598-5.221-10-10.949-10-6.065,0-11,4.935-11,11s4.935,11,11,11ZM18,9c4.962,0,9,4.038,9,9s-4.038,9-9,9-9-4.038-9-9,4.038-9,9-9Z"/>
  <path d="M56,51h-1.18l-1.6-8h.78c.55,0,1-.45,1-1v-4c0-.55-.45-1-1-1h-4v-2h1c.55,0,1-.45,1-1s-.45-1-1-1h-1v-1c0-.55-.45-1-1-1s-1,.45-1,1v1h-1c-.55,0-1,.45-1,1s.45,1,1,1h1v2h-4c-.55,0-1,.45-1,1v4c0,.55.45,1,1,1h.78l-1.6,8h-1.18c-.55,0-1,.45-1,1v4c0,.55.45,1,1,1h5c.55,0,1-.45,1-1s-.45-1-1-1h-4v-2h12v2h-4c-.55,0-1,.45-1,1s.45,1,1,1h5c.55,0,1-.45,1-1v-4c0-.55-.45-1-1-1ZM45.22,51l1.6-8h4.36l1.6,8h-7.56ZM53,41h-8v-2h8v2Z"/>
  <path d="M41.707,45.293l-3-3c-.391-.391-1.023-.391-1.414,0s-.391,1.023,0,1.414l1.293,1.293H15c-1.603,0-3.11-.624-4.243-1.757s-1.757-2.64-1.757-4.243c0-3.309,2.691-6,6-6h10c.552,0,1-.448,1-1s-.448-1-1-1h-10c-4.411,0-8,3.589-8,8,0,2.138.832,4.146,2.343,5.657s3.52,2.343,5.657,2.343h23.586l-1.293,1.293c-.391.391-.391,1.023,0,1.414.389.389,1.025.389,1.414,0l3-3c.391-.391.391-1.023,0-1.414Z"/>
</svg>