<?xml version="1.0" encoding="UTF-8"?>
<svg id="Outline" xmlns="http://www.w3.org/2000/svg" version="1.1" viewBox="0 0 64 64">
  <!-- Generator: Adobe Illustrator 29.5.1, SVG Export Plug-In . SVG Version: 2.1.0 Build 141)  -->
  <path d="M55.999,36.499c0-1.44-.79-2.76-2.03-3.46-.06-.53-.23-1.03-.48-1.48-.79-4.49-2.54-8.25-5.07-10.97l3.08-1.99c3.45-2.23,5.5-6,5.5-10.1,0-.34-.17-.66-.46-.84-.28-.18-.64-.21-.95-.07l-17.84,7.99c-.54-.05-1.13-.08-1.75-.08-9.82,0-20.43,6.47-24.32,14.76-.89.65-1.52,1.63-1.65,2.78-1.24.7-2.03,2.02-2.03,3.46-.35,0-.67.18-.85.47-.18.3-.2.67-.04.98l2,4c.16.34.51.55.89.55h.17l-2.64,12.8c-.06.29.01.6.2.83.19.23.48.37.78.37h46.98c.3,0,.59-.14.78-.37.19-.23.26-.54.2-.83l-2.64-12.8h.17c.38,0,.73-.21.89-.55l2-4c.16-.31.14-.68-.04-.98-.18-.29-.5-.47-.85-.47ZM51.989,33.509c-.08.48.2.95.66,1.11.81.29,1.35,1.04,1.35,1.88h-14c0-1.36,1.41-2.39,2.75-1.85.26.1.56.09.82-.04.25-.12.44-.36.52-.63.31-1.2,1.72-1.87,2.89-1.21.46.26,1.05.11,1.34-.34.36-.58.99-.93,1.68-.93,1.1,0,2,.9,1.99,2.01ZM51.009,29.639c-.33-.08-.66-.14-1.01-.14-1.08,0-2.09.43-2.83,1.18-.21-.07-.42-.11-.64-.14l-4.41-5.87,4.59-2.97c1.96,2,3.42,4.7,4.3,7.94ZM34.009,17.599c-1.6,1.26-2.81,2.99-3.41,4.98-.83,2.78-.41,5.79,1.15,8.24l1.41,2.22c.19.3.51.46.839.46.777,0,1.256-.89.841-1.54l-1.41-2.21c-1.24-1.96-1.58-4.37-.91-6.6.67-2.22,2.27-4.05,4.39-5l17.96-8.05c-.44,2.78-2.04,5.26-4.45,6.82l-9.5,6.14-.12-.16c-.33-.44-.96-.53-1.4-.2-.44.33-.53.96-.2,1.4l5.1,6.79c-.74.36-1.36.92-1.77,1.65-.18-.03-.35-.04-.53-.04-2.21,0-4,1.79-4,4h-12c0-2.21-1.79-4-4-4-.18,0-.35.01-.53.04-.69-1.24-2.01-2.04-3.47-2.04-.4,0-.79.06-1.17.18-.66-.67-1.54-1.07-2.5-1.15,3.8-6.34,11.81-11.21,19.68-11.93ZM11.349,34.619c.46-.16.73-.64.65-1.12,0-1.1.9-2,2-2,.69,0,1.32.35,1.68.93.29.45.88.6,1.34.34,1.17-.66,2.58.01,2.89,1.21.08.27.27.51.52.63.26.13.56.15.82.04,1.34-.53,2.75.49,2.75,1.85h-14c0-.84.54-1.59,1.35-1.88ZM16.999,54.499h-7.27l2.48-12h9.79v2h-7c-.48,0-.9.34-.98.82l-1.11,6c-.06.29.02.59.21.82.19.23.47.36.77.36h3.11v2ZM31.999,54.499c-1.29,0-2.33-1.05-2.33-2.33,0-.85,1.18-3.04,2.33-4.85,1.13,1.8,2.33,4.01,2.33,4.85,0,1.28-1.04,2.33-2.33,2.33ZM44.999,51.499v3h-9.36c.43-.67.69-1.47.69-2.33,0-2.05-2.92-6.39-3.51-7.24-.37-.54-1.27-.54-1.64,0-.59.85-3.51,5.19-3.51,7.24,0,.86.26,1.66.69,2.33h-9.36v-3c0-.55-.45-1-1-1h-2.91l.74-4h7.17c.55,0,1-.45,1-1v-3h16v3c0,.55.45,1,1,1h7.17l.74,4h-2.91c-.55,0-1,.45-1,1ZM54.269,54.499h-7.27v-2h3.11c.3,0,.58-.13.77-.36.19-.23.27-.53.21-.82l-1.11-6c-.08-.48-.5-.82-.98-.82h-7v-2h9.79l2.48,12ZM53.379,40.499H10.619l-1-2h44.76l-1,2Z"/>
</svg>