<?xml version="1.0" encoding="UTF-8"?>
<svg id="Outline" xmlns="http://www.w3.org/2000/svg" version="1.1" viewBox="0 0 64 64">
  <!-- Generator: Adobe Illustrator 29.5.1, SVG Export Plug-In . SVG Version: 2.1.0 Build 141)  -->
  <path d="M50,38.999h-6c-.552,0-1,.447-1,1s.448,1,1,1h6c.551,0,1,.448,1,1v12c0,.552-.449,1-1,1H14c-.551,0-1-.448-1-1v-12c0-.552.449-1,1-1h26c.552,0,1-.447,1-1s-.448-1-1-1H14c-1.654,0-3,1.346-3,3v12c0,1.654,1.346,3,3,3h36c1.654,0,3-1.346,3-3v-12c0-1.654-1.346-3-3-3Z"/>
  <path d="M15,45.999v4c0,1.654,1.346,3,3,3s3-1.346,3-3v-4c0-1.654-1.346-3-3-3s-3,1.346-3,3ZM19,45.999v4c0,.552-.449,1-1,1s-1-.448-1-1v-4c0-.552.449-1,1-1s1,.448,1,1Z"/>
  <path d="M23,45.999v4c0,1.654,1.346,3,3,3s3-1.346,3-3v-4c0-1.654-1.346-3-3-3s-3,1.346-3,3ZM27,45.999v4c0,.552-.449,1-1,1s-1-.448-1-1v-4c0-.552.449-1,1-1s1,.448,1,1Z"/>
  <path d="M46,52.999c1.654,0,3-1.346,3-3v-4c0-1.654-1.346-3-3-3s-3,1.346-3,3v4c0,1.654,1.346,3,3,3ZM45,45.999c0-.552.449-1,1-1s1,.448,1,1v4c0,.552-.449,1-1,1s-1-.448-1-1v-4Z"/>
  <path d="M38,42.999c-1.654,0-3,1.346-3,3v4c0,1.654,1.346,3,3,3s3-1.346,3-3v-4c0-1.654-1.346-3-3-3ZM39,49.999c0,.552-.449,1-1,1s-1-.448-1-1v-4c0-.552.449-1,1-1s1,.448,1,1v4Z"/>
  <circle cx="32" cy="45.999" r="1"/>
  <circle cx="32" cy="49.999" r="1"/>
  <path d="M40.98,20.589c-.06-1.36-.41-2.78-1.05-4.26-.23-.51-.82-.73-1.32-.52-.51.23-.74.82-.52,1.32.61,1.37.91,2.67.91,3.87,0,3.32-.93,5.81-3,8h-8c-2.07-2.19-3-4.68-3-8,0-5.02,5.18-10.07,7-11.68.91.8,2.65,2.45,4.17,4.55.33.44.95.54,1.4.22.44-.33.54-.95.22-1.4-2.32-3.19-5.05-5.38-5.17-5.47-.36-.29-.88-.29-1.24,0-.34.26-8.05,6.5-8.35,13.36-2.6,2.74-4.03,6.29-4.03,10.08,0,0,0,3.34,0,3.34,0,.868,1.093,1.327,1.71.71l1.17-1.17c1.63-1.64,3.81-2.54,6.12-2.54h1.18c-.11.31-.18.65-.18,1,0,1.28,1.52,3.62,2.18,4.57.18.27.49.43.82.43s.64-.16.82-.43c.66-.95,2.18-3.29,2.18-4.57,0-.35-.07-.69-.18-1h1.18c2.31,0,4.49.9,6.12,2.54l1.17,1.17c.588.588,1.71.181,1.71-.71v-3.34c0-3.78-1.43-7.34-4.02-10.07ZM21,31.619v-.96c0-2.58.77-5.04,2.2-7.12.33,2.17,1.13,4.05,2.43,5.73-1.71.39-3.29,1.18-4.63,2.35ZM32,34.149c-.58-.97-.99-1.84-1-2.15,0-.55.45-1,1-1s1,.45,1,1c-.01.3-.42,1.18-1,2.15ZM43,31.619c-1.34-1.17-2.92-1.96-4.63-2.35,1.3-1.68,2.1-3.56,2.43-5.73,1.43,2.08,2.2,4.54,2.2,7.12v.96Z"/>
  <path d="M32,15.999c-2.757,0-5,2.243-5,5s2.243,5,5,5,5-2.243,5-5-2.243-5-5-5ZM32,23.999c-1.654,0-3-1.346-3-3s1.346-3,3-3,3,1.346,3,3-1.346,3-3,3Z"/>
</svg>