<?xml version="1.0" encoding="UTF-8"?>
<svg id="Outline" xmlns="http://www.w3.org/2000/svg" version="1.1" viewBox="0 0 64 64">
  <!-- Generator: Adobe Illustrator 29.5.1, SVG Export Plug-In . SVG Version: 2.1.0 Build 141)  -->
  <path d="M21.403,35.08c.768,0,1.536-.292,2.121-.877l2.25-2.25c.398.19.832.3,1.286.3.801,0,1.555-.312,2.121-.879l12.021-12.021.707.707c.599.599,1.707.182,1.707-.707v-11.313c0-.552-.448-1-1-1h-11.313c-.404,0-.769.244-.924.617-.155.374-.069.804.217,1.09l.707.707-12.021,12.021c-.921.92-1.105,2.291-.577,3.405l-2.252,2.251c-1.17,1.17-1.17,3.073.01,4.253l-2.797,2.88c-.385.396-.375,1.029.02,1.414.369.358,1.035.371,1.414-.02l2.777-2.86,1.404,1.404c.585.585,1.353.877,2.121.877ZM41.616,9.039v7.899l-7.899-7.899h7.899ZM39.788,17.938l-12.021,12.021c-.377.378-1.036.378-1.413,0h0l-5.364-5.364h8.9c.552,0,1-.448,1-1s-.448-1-1-1h-8.899l2.243-2.243h9.485c.552,0,1-.448,1-1s-.448-1-1-1h-7.485l2.242-2.242h5.243c.552,0,1-.448,1-1s-.448-1-1-1h-3.243l3.243-3.243,7.071,7.071ZM17.867,28.545l2.122-2.121,4.243,4.243-2.122,2.122c-.378.377-1.036.377-1.414,0l-2.829-2.829c-.39-.39-.39-1.024,0-1.415Z"/>
  <path d="M10.848,37.083l-1.414,1.414c-.391.391-.391,1.023,0,1.414.362.362,1.024.39,1.414,0l1.414-1.414c.391-.391.391-1.023,0-1.414s-1.023-.391-1.414,0Z"/>
  <path d="M14.384,37.961c-.552,0-1,.448-1,1v2c0,.552.448,1,1,1s1-.448,1-1v-2c0-.552-.448-1-1-1Z"/>
  <path d="M11.384,34.961c0-.552-.448-1-1-1h-2c-.552,0-1,.448-1,1s.448,1,1,1h2c.552,0,1-.448,1-1Z"/>
  <path d="M55.616,22.039h-11.31c-.41,0-.77.24-.93.62-.15.37-.07.8.22,1.09l.71.7-12.02,12.03c-.93.92-1.11,2.29-.58,3.4l-2.25,2.25c-1.17,1.17-1.17,3.08.01,4.25l-2.8,2.89c-.38.39-.38,1.02.02,1.41.378.369,1.029.371,1.42-.02l2.77-2.86,1.41,1.4c.58.59,1.35.88,2.12.88.76,0,1.53-.29,2.12-.88l2.25-2.25c.4.19.83.3,1.28.3.8,0,1.56-.31,2.12-.88l12.03-12.02.7.71c.602.611,1.71.179,1.71-.71v-11.31c0-.55-.45-1-1-1ZM35.106,47.789c-.37.38-1.03.38-1.41,0l-2.83-2.83c-.39-.39-.39-1.02,0-1.41l2.12-2.13,4.25,4.25-2.13,2.12ZM40.766,44.959c-.38.38-1.04.38-1.41,0l-5.37-5.36h8.9c.55,0,1-.45,1-1,0-.56-.45-1-1-1h-8.9l2.25-2.25h9.48c.55,0,1-.44,1-1,0-.55-.45-1-1-1h-7.48l2.24-2.24h5.24c.55,0,1-.45,1-1s-.45-1-1-1h-3.24l3.24-3.24,7.07,7.07-12.02,12.02ZM54.616,31.939l-7.9-7.9h7.9v7.9Z"/>
  <path d="M23.848,52.083l-1.414,1.414c-.391.391-.391,1.023,0,1.414.368.368,1.019.395,1.414,0l1.414-1.414c.391-.391.391-1.023,0-1.414s-1.023-.391-1.414,0Z"/>
  <path d="M27.384,52.961c-.552,0-1,.448-1,1v2c0,.552.448,1,1,1s1-.448,1-1v-2c0-.552-.448-1-1-1Z"/>
  <path d="M24.384,49.961c0-.552-.448-1-1-1h-2c-.552,0-1,.448-1,1s.448,1,1,1h2c.552,0,1-.448,1-1Z"/>
</svg>