<?xml version="1.0" encoding="UTF-8"?>
<svg id="Outline" xmlns="http://www.w3.org/2000/svg" version="1.1" viewBox="0 0 64 64">
  <!-- Generator: Adobe Illustrator 29.3.1, SVG Export Plug-In . SVG Version: 2.1.0 Build 151)  -->
  <path d="M55.04436,48.46344l-5.46503-4.6236c.17004-.38013.26581-.7923.26581-1.22113,0-.80127-.3125-1.55469-.87891-2.12109l-.83557-.83588c.18994-.39801.30042-.83173.30042-1.28571,0-.80127-.3125-1.55469-.87891-2.12109l-19.79883-19.7998c-.92004-.91852-2.29016-1.10419-3.4046-.57599l-.83759-.83759c-.90326-.90326-2.23938-1.10077-3.341-.61084l-4.62579-5.46679c-1.73643-2.05213-4.98643-2.18441-6.88271-.28624-1.89437,1.89625-1.74737,5.16187.28701,6.88243l5.46655,4.62561c-.49042,1.10199-.29218,2.43842.6106,3.34119l.83551.83551c-.18994.39795-.30035.83167-.30035,1.28558,0,.80127.3125,1.55469.87891,2.12109l19.79883,19.7998c.58496.58447,1.35352.87646,2.12109.87646.44116,0,.87799-.10779,1.28448-.30048l.83759.83759c.58496.58496,1.35254.87744,2.12109.87744.4173,0,.83136-.09399,1.21899-.26648l4.62572,5.46667c1.71051,2.02148,5.01965,2.15075,6.88275.28671,1.90251-1.90347,1.76046-5.15086-.28606-6.88338ZM22.09709,16.45563l.70703.70703-5.65747,5.65698-.70679-.70679c-.38965-.39014-.38965-1.02441,0-1.41455l4.24219-4.24268c.37793-.37695,1.03613-.37891,1.41504,0ZM9.29338,12.09772c-.03125-.75732.24609-1.46973.78223-2.00586.53613-.5376,1.24707-.81494,2.00684-.7832.75781.03174,1.44531.36816,1.93457.94727l4.60016,5.43652-2.94104,2.94141-5.43549-4.6001c-.58008-.49023-.91602-1.17773-.94727-1.93604ZM37.65276,46.15436l-19.79883-19.79932v-.00049c-.18945-.18848-.29297-.43945-.29297-.70654s.10352-.51807.29297-.70703l7.07129-7.0708c.19531-.19531.45117-.29248.70703-.29248s.51172.09717.70703.29199l19.79883,19.7998c.18945.18848.29297.43945.29297.70654s-.10352.51807-.29297.70703l-7.07031,7.0708c-.38965.38965-1.02344.39111-1.41504.00049ZM41.89592,47.56842l-.70703-.70703,5.65625-5.65674.70703.70752c.18945.18848.29297.43945.29297.70654s-.10352.51807-.29297.70703l-4.24219,4.24268c-.39062.38965-1.02344.38965-1.41406,0ZM53.91643,53.93268c-.53711.53613-1.25781.81201-2.00684.78271-.75781-.03174-1.44531-.36816-1.93457-.94727l-4.60016-5.43646,2.94104-2.94104,5.43646,4.59967c.5791.49023.91504,1.17725.94727,1.93457.03125.7583-.24707,1.47119-.7832,2.00781Z"/>
  <path d="M43.30998,37.66901c-.39062-.39062-1.02344-.39062-1.41406,0l-4.24316,4.24316c-.39062.39062-.39062,1.02341-.00003,1.41403.37025.37028,1.01852.39559,1.41409.00003l4.24316-4.24316c.39062-.39062.39062-1.02344,0-1.41406Z"/>
  <path d="M24.92522,20.6983l-4.24219,4.24268c-.39061.39061-.39062,1.02338-.00005,1.41401.37115.37121,1.01894.39522,1.41411.00005l4.24219-4.24268c.39062-.39062.39062-1.02344,0-1.41406s-1.02344-.39062-1.41406,0Z"/>
</svg>