<?xml version="1.0" encoding="UTF-8"?>
<svg id="Outline" xmlns="http://www.w3.org/2000/svg" version="1.1" viewBox="0 0 64 64">
  <!-- Generator: Adobe Illustrator 29.5.1, SVG Export Plug-In . SVG Version: 2.1.0 Build 141)  -->
  <path d="M55.335,48.275c-.463-.464-2.13-1.659-3.608-2.355.158-.369.244-.767.244-1.18,0-.801-.312-1.555-.879-2.122l-.837-.837c.529-1.114.344-2.485-.577-3.405L25.636,14.333c-.921-.921-2.291-1.105-3.405-.577l-.837-.837c-.859-.859-2.201-1.064-3.295-.621-.695-1.481-1.897-3.158-2.362-3.622-1.949-1.949-5.121-1.949-7.071,0s-1.95,5.122,0,7.071c.463.464,2.13,1.659,3.608,2.355-.158.369-.244.767-.244,1.18,0,.801.312,1.555.879,2.122l.837.837c-.529,1.114-.344,2.485.577,3.405l24.042,24.042c.585.585,1.353.877,2.121.877.441,0,.878-.108,1.284-.301l.837.837c.566.567,1.32.879,2.122.879.413,0,.812-.086,1.18-.244.696,1.478,1.891,3.145,2.355,3.608,1.907,1.904,5.136,1.935,7.071,0,1.95-1.949,1.95-5.122,0-7.071ZM19.979,14.333l.707.707-5.657,5.657-.707-.707c-.189-.189-.293-.44-.293-.708s.104-.518.293-.707l4.243-4.243c.377-.378,1.036-.378,1.414,0ZM10.08,10.091c1.17-1.171,3.073-1.169,4.243,0,.498.498,1.74,2.399,2.16,3.497l-.746.746-1.414-1.414c-.391-.391-1.023-.391-1.414,0s-.391,1.023,0,1.414l1.414,1.414-.746.746c-1.097-.42-2.999-1.662-3.497-2.16-1.169-1.17-1.169-3.073,0-4.243ZM39.778,48.275L15.736,24.233c-.39-.39-.39-1.024,0-1.414l7.071-7.071c.195-.195.451-.292.707-.292s.512.098.707.292l24.042,24.042c.39.39.39,1.024,0,1.414l-7.071,7.071c-.39.39-1.024.39-1.414,0ZM44.021,49.689l-.707-.707,5.657-5.657.707.707c.189.189.293.44.293.708s-.104.518-.293.707l-4.243,4.243c-.377.378-1.036.378-1.414,0ZM53.92,53.932c-1.171,1.169-3.074,1.169-4.243,0-.498-.498-1.74-2.399-2.16-3.497l.746-.746,1.414,1.414c.365.365,1.02.394,1.414,0,.391-.391.391-1.023,0-1.414l-1.414-1.414.746-.746c1.097.42,2.999,1.662,3.497,2.16,1.169,1.17,1.169,3.073,0,4.243Z"/>
</svg>