<?xml version="1.0" encoding="UTF-8"?>
<svg id="Outline" xmlns="http://www.w3.org/2000/svg" version="1.1" viewBox="0 0 64 64">
  <!-- Generator: Adobe Illustrator 29.5.1, SVG Export Plug-In . SVG Version: 2.1.0 Build 141)  -->
  <path d="M56.042,7.958c-1.948-1.948-5.121-1.95-7.071,0-.754.753-1.241,1.739-1.396,2.81l-4.261,4.261h0c-1.169-1.167-3.071-1.17-4.242,0l-24.042,24.042c-.566.567-.879,1.32-.879,2.122s.312,1.555.879,2.121l-4.262,4.262c-1.069.154-2.056.642-2.81,1.396-1.949,1.949-1.949,5.122,0,7.071.975.975,2.255,1.462,3.536,1.462s2.561-.487,3.535-1.461c.754-.753,1.241-1.739,1.396-2.81l4.261-4.261h0c.585.584,1.353.877,2.121.877s1.536-.292,2.121-.877l24.042-24.042c.566-.566.879-1.32.879-2.121s-.312-1.555-.879-2.121l4.262-4.262c1.069-.154,2.056-.642,2.81-1.396,1.949-1.949,1.949-5.122,0-7.071ZM14.761,52.067c-.171.171-.274.398-.291.64-.034.521-.211,1.277-.854,1.92-1.17,1.168-3.073,1.17-4.243,0-1.169-1.17-1.169-3.073,0-4.242.645-.644,1.4-.821,1.92-.856.242-.016.47-.119.641-.291l4.511-4.511,2.829,2.829-4.511,4.511ZM47.557,23.514h0s-24.042,24.042-24.042,24.042c-.391.391-1.023.39-1.414,0l-5.657-5.658c-.189-.188-.293-.439-.293-.707s.104-.518.293-.707l24.042-24.042c.195-.195.451-.292.707-.292s.512.097.707.292l5.657,5.658c.189.188.293.439.293.707s-.104.518-.293.707ZM54.628,13.615c-.645.644-1.4.821-1.92.856-.242.016-.47.119-.641.291l-4.511,4.511-2.829-2.829,4.511-4.511c.171-.171.274-.398.291-.64.034-.521.211-1.277.854-1.92,1.169-1.168,3.072-1.17,4.243,0,1.169,1.17,1.169,3.073,0,4.242Z"/>
</svg>