<?xml version="1.0" encoding="UTF-8"?>
<svg id="Outline" xmlns="http://www.w3.org/2000/svg" version="1.1" viewBox="0 0 64 64">
  <!-- Generator: Adobe Illustrator 29.5.1, SVG Export Plug-In . SVG Version: 2.1.0 Build 141)  -->
  <path d="M57,36c0-5.02-3.39-9.26-8-10.57v-13.43c0-1.65-1.35-3-3-3h-5v-1c0-.55-.45-1-1-1s-1,.45-1,1v1h-22v-1c0-.55-.45-1-1-1s-1,.45-1,1v1h-5c-1.65,0-3,1.35-3,3v34c0,1.65,1.35,3,3,3h32.58l-.33,3.93c-.08,1.04.27,2.08.98,2.86.71.77,1.72,1.21,2.77,1.21s2.06-.44,2.77-1.21c.71-.78,1.06-1.82.98-2.86l-.53-6.41c4.5-1.38,7.78-5.57,7.78-10.52ZM40,15c.55,0,1,.45,1,1s-.45,1-1,1-1-.45-1-1,.45-1,1-1ZM17,11h22v2.18c-.85.31-1.51.97-1.82,1.82h-18.36c-.31-.85-.97-1.51-1.82-1.82v-2.18ZM16,15c.55,0,1,.45,1,1s-.45,1-1,1-1-.45-1-1,.45-1,1-1ZM9,12c0-.55.45-1,1-1h5v2.18c-1.16.42-2,1.52-2,2.82,0,1.65,1.35,3,3,3,1.3,0,2.4-.84,2.82-2h18.36c.42,1.16,1.52,2,2.82,2,1.65,0,3-1.35,3-3,0-1.3-.84-2.4-2-2.82v-2.18h5c.55,0,1,.45,1,1v9H9v-9ZM47,23v2.05c-.33-.03-.66-.05-1-.05s-.67.02-1,.05v-2.05h2ZM36.55,41.61l-18.31-4.58c-.5-.13-1.02.16-1.19.65l-1.47,4.41c-.18.54-.69.91-1.26.91-.73,0-1.32-.59-1.32-1.32v-18.68h30v2.43c-4.61,1.31-8,5.55-8,10.57,0,2.05.57,3.96,1.55,5.61ZM33.88,43h-16.52c.04-.09.09-.18.12-.27l1.18-3.54,15.22,3.81ZM42.74,47H10c-.55,0-1-.45-1-1v-23h2v18.68c0,1.83,1.49,3.32,3.32,3.32h25.38c.93.66,1.97,1.18,3.08,1.52l-.04.48ZM47.3,54.43c-.68.73-1.92.73-2.6,0-.33-.37-.5-.84-.46-1.34l.43-5.07v-.03l.09-1.07c.41.05.82.08,1.24.08s.83-.03,1.24-.08l.52,6.17c.04.5-.13.97-.46,1.34ZM46,45c-4.96,0-9-4.04-9-9s4.04-9,9-9,9,4.04,9,9-4.04,9-9,9Z"/>
</svg>