<?xml version="1.0" encoding="UTF-8"?>
<svg id="Outline" xmlns="http://www.w3.org/2000/svg" version="1.1" viewBox="0 0 64 64">
  <!-- Generator: Adobe Illustrator 29.3.1, SVG Export Plug-In . SVG Version: 2.1.0 Build 151)  -->
  <path d="M16,21c2.75684,0,5-2.24316,5-5s-2.24316-5-5-5-5,2.24316-5,5,2.24316,5,5,5ZM16,13c1.6543,0,3,1.3457,3,3s-1.3457,3-3,3-3-1.3457-3-3,1.3457-3,3-3Z"/>
  <path d="M53,49c-1.38788,0-2.6106.71149-3.32819,1.78748l-2.95013-1.02771c-.52148-.18115-1.0918.09375-1.27344.61523s.09375,1.0918.61523,1.27344l2.96863,1.03418c-.00854.10651-.0321.20868-.0321.31738,0,2.20557,1.79395,4,4,4s4-1.79443,4-4-1.79395-4-4-4ZM53,55c-1.10254,0-2-.89697-2-2s.89746-2,2-2,2,.89697,2,2-.89746,2-2,2Z"/>
  <path d="M42.94434,48.44434l-3.77734-1.31592c-.52148-.18066-1.0918.09375-1.27344.61523s.09375,1.0918.61523,1.27344c0,0,3.77734,1.31592,3.77742,1.31595.51622.17971,1.09359-.09858,1.27336-.61526.18164-.52148-.09375-1.0918-.61523-1.27344Z"/>
  <path d="M30.1709,32.07812l3.94141.67969c.05762.01025.11426.01465.1709.01465.47754,0,.90039-.34326.98438-.83008.09375-.54443-.27148-1.06152-.81543-1.15527l-3.94141-.67969c-.54297-.09766-1.06152.271-1.15527.81543s.27148,1.06152.81543,1.15527Z"/>
  <path d="M26.22852,31.39893c.05762.01025.11426.01465.1709.01465.47754,0,.90039-.34326.98438-.83008.09375-.54443-.27148-1.06152-.81543-1.15527l-1.703-.29364c-.44177-1.48981-2.01617-2.74725-4.32867-3.47052,2.17511-3.15039,4.46332-7.07727,4.46332-9.66406,0-4.9624-4.03711-9-9-9-.84668,0-1.68555.11719-2.49414.34863-.53125.15186-.83887.70508-.6875,1.23633.15234.53174.70996.83789,1.23633.68652.63086-.18018,1.28516-.27148,1.94531-.27148,3.85938,0,7,3.14014,7,7,0,2.26917-2.60992,6.45386-4.95483,9.70746-.00348.00513-.00739.00952-.01074.01471-.7337,1.01752-1.44196,1.94617-2.03442,2.69238-.59253-.74573-1.30066-1.67383-2.03418-2.69073-.00397-.0061-.00848-.01129-.01257-.01727-2.34473-3.25269-4.95325-7.43591-4.95325-9.70654,0-.65869.0918-1.31348.27148-1.94678.15137-.53076-.15723-1.08398-.68848-1.23535-.52734-.15234-1.08496.15674-1.23535.68848-.23047.81055-.34766,1.6499-.34766,2.49365,0,2.58679,2.28821,6.51367,4.46332,9.66406-2.74963.85999-4.46332,2.4754-4.46332,4.33594,0,2.85059,3.86914,5,9,5,4.41394,0,7.88678-1.59271,8.77313-3.85205l1.45538.25098ZM16,33c-4.00684,0-7-1.58398-7-3,0-.88428,1.2782-2.01141,3.70135-2.60394,1.22736,1.66443,2.24884,2.90704,2.53107,3.24506.19043.22754.4707.35889.76758.35889s.57715-.13135.76758-.35889c.28223-.33801,1.30371-1.58063,2.53107-3.24506,2.42316.59253,3.70135,1.71967,3.70135,2.60394,0,1.41602-2.99316,3-7,3Z"/>
  <path d="M41.99609,34.1167c.05762.01025.11426.01465.1709.01465.47754,0,.90039-.34326.98438-.83008.09375-.54443-.27148-1.06152-.81543-1.15527l-3.94141-.67969c-.54297-.09766-1.06152.271-1.15527.81543s.27148,1.06152.81543,1.15527l3.94141.67969Z"/>
  <path d="M49.03333,35.32959c.008.09607.01428.1925.02899.28656l-2.87872,1.25348c-.50583.22069-.73826.81-.51761,1.31633.21736.49879.81983.73422,1.31644.51766l2.87909-1.2536c.73267.93628,1.85986,1.54999,3.13849,1.54999,2.20605,0,4-1.79443,4-4s-1.79395-4-4-4c-1.61902,0-3.00885.97083-3.6377,2.35699l-3.08398-.5318c-.54297-.09814-1.06152.271-1.15527.81543s.27148,1.06152.81543,1.15527l3.09485.53369ZM53,33c1.10254,0,2,.89697,2,2s-.89746,2-2,2c-.81854,0-1.52216-.49548-1.8313-1.20148-.0011-.00262-.00055-.00537-.00171-.008-.00244-.00562-.00757-.00885-.01007-.0144-.10095-.23877-.15692-.50098-.15692-.77612,0-.11536.0152-.22675.03406-.33679.00018-.0011.00092-.00195.0011-.00305.00037-.00208-.00055-.00409-.00018-.00616.16492-.93793.9809-1.65399,1.96503-1.65399Z"/>
  <path d="M42.51562,38.4668l-3.66699,1.59668c-.50583.22069-.73825.80998-.51762,1.3163.21769.49959.81788.7351,1.31645.51768l3.66699-1.59668c.50586-.2207.73828-.81006.51758-1.31641-.2207-.50488-.80859-.73926-1.31641-.51758Z"/>
  <path d="M35.18066,41.66064l-2.04218.88934c-.73267-.93622-1.85986-1.54999-3.13849-1.54999-2.20605,0-4,1.79443-4,4s1.79395,4,4,4c1.38788,0,2.61072-.71149,3.32825-1.78754,0,0,1.4032.48871,1.40339.48877.51489.17918,1.09348-.0987,1.27325-.6153.18164-.52197-.09375-1.0918-.61523-1.27344l-1.42175-.49518c.00854-.10651.0321-.20868.0321-.31732,0-.211-.0307-.41394-.06232-.61621l2.04181-.88916c.50586-.2207.73828-.81006.51758-1.31641-.2207-.50488-.80762-.73926-1.31641-.51758ZM30,47c-1.10254,0-2-.89697-2-2s.89746-2,2-2c.81854,0,1.52216.49548,1.8313,1.20148.0011.00262.00055.00537.00171.008.00287.00659.00806.01117.01105.01764.1001.23792.15594.49896.15594.77289,0,1.10303-.89746,2-2,2Z"/>
  <path d="M11.05023,11.05023c.39056-.3905.39056-1.02368,0-1.41418-.3905-.39056-1.02368-.39056-1.41418,0-.3905.3905-.3905,1.02368,0,1.41418s1.02368.3905,1.41418,0Z"/>
</svg>