<?xml version="1.0" encoding="UTF-8"?>
<svg id="Outline" xmlns="http://www.w3.org/2000/svg" version="1.1" viewBox="0 0 64 64">
  <!-- Generator: Adobe Illustrator 29.5.1, SVG Export Plug-In . SVG Version: 2.1.0 Build 141)  -->
  <path d="M19,15c0-2.206-1.794-4-4-4s-4,1.794-4,4,1.794,4,4,4,4-1.794,4-4ZM13,15c0-1.103.897-2,2-2s2,.897,2,2-.897,2-2,2-2-.897-2-2Z"/>
  <path d="M15,29c.312,0,.604-.145.794-.392.737-.962,7.206-9.521,7.206-13.608,0-4.411-3.589-8-8-8s-8,3.589-8,8c0,4.087,6.469,12.646,7.206,13.608.189.247.482.392.794.392ZM15,9c3.309,0,6,2.691,6,6,0,2.545-3.802,8.302-6,11.326-2.198-3.023-6-8.78-6-11.326,0-3.309,2.691-6,6-6Z"/>
  <path d="M49,39c-2.206,0-4,1.794-4,4s1.794,4,4,4,4-1.794,4-4-1.794-4-4-4ZM49,45c-1.103,0-2-.897-2-2s.897-2,2-2,2,.897,2,2-.897,2-2,2Z"/>
  <path d="M49,35c-4.411,0-8,3.589-8,8,0,4.087,6.469,12.646,7.206,13.608.189.247.482.392.794.392s.604-.145.794-.392c.737-.962,7.206-9.521,7.206-13.608,0-4.411-3.589-8-8-8ZM49,54.326c-2.198-3.023-6-8.78-6-11.326,0-3.309,2.691-6,6-6s6,2.691,6,6c0,2.545-3.802,8.302-6,11.326Z"/>
  <path d="M45,55h-2c-.553,0-1,.448-1,1s.447,1,1,1h2c.553,0,1-.448,1-1s-.447-1-1-1Z"/>
  <path d="M29.729,40.837c-.235.072-.477.085-.705.043-.549-.101-1.063.26-1.164.803-.1.543.26,1.064.803,1.164.529.097,1.102.067,1.642-.095.581-.176,1.148-.012,1.546.416.359.386,1.006.429,1.413.051.405-.376.428-1.009.052-1.414-.902-.97-2.287-1.357-3.586-.969Z"/>
  <path d="M39.009,55h-3.991c-.553,0-1,.448-1,1s.447,1,1,1h3.991c.553,0,1-.448,1-1s-.447-1-1-1Z"/>
  <path d="M33.035,45.27c-.482-.272-1.092-.1-1.361.381l-1.957,3.479c-.271.481-.101,1.091.381,1.362.458.258,1.09.103,1.361-.381l1.957-3.479c.271-.481.101-1.091-.381-1.362Z"/>
  <path d="M24.347,32c-1.179,0-2.273.587-2.927,1.567l-.841,1.261c-.307.459-.183,1.081.277,1.387.455.303,1.084.178,1.387-.277l.841-1.262c.282-.423.755-.676,1.265-.676.552,0,.999-.448.999-1s-.448-1-1.001-1Z"/>
  <path d="M31.134,54.991c-.844-.091-1.349-.841-1.349-1.514,0-.062.003-.124.011-.186.067-.548-.321-1.047-.87-1.115-.537-.064-1.046.322-1.114.871-.018.144-.026.288-.026.43,0,1.804,1.348,3.31,3.134,3.502.036.004.073.006.108.006.504,0,.938-.38.993-.893.06-.549-.338-1.042-.887-1.102Z"/>
  <path d="M18.496,37.744c-.251.167-.543.255-.845.256h-.132c-.491,0-.94-.229-1.231-.628-.324-.446-.95-.543-1.396-.219-.446.326-.545.951-.219,1.397.661.907,1.726,1.449,2.847,1.449h.133c.698,0,1.374-.206,1.953-.593.46-.307.584-.927.277-1.387-.308-.459-.93-.585-1.387-.276Z"/>
  <path d="M27.803,39.083l.576-2.875c.045-.228.067-.461.067-.693,0-.251-.027-.504-.082-.751-.118-.54-.651-.882-1.19-.763-.54.119-.881.651-.763,1.191.023.107.035.216.035.324,0,.1-.01.203-.029.303l-.573,2.862c-.005.021-.009.041-.012.059-.203,1.246,1.699,1.61,1.964.374.003-.01.005-.021.007-.031Z"/>
  <path d="M16,34v-2c0-.552-.447-1-1-1s-1,.448-1,1v2c0,.552.447,1,1,1s1-.448,1-1Z"/>
</svg>