<?xml version="1.0" encoding="UTF-8"?>
<svg id="Outline" xmlns="http://www.w3.org/2000/svg" version="1.1" viewBox="0 0 64 64">
  <!-- Generator: Adobe Illustrator 29.5.1, SVG Export Plug-In . SVG Version: 2.1.0 Build 141)  -->
  <path d="M54,25c-1.65,0-3,1.35-3,3,0,.05.01.1.02.15-6.15,2.2-13.08-.51-16.04-6.43l-.76-1.52,2.49-2.49c.39-.39.39-1.03,0-1.42l-4-4c-.39-.39-1.03-.39-1.42,0l-4,4c-.39.39-.39,1.03,0,1.42l2.49,2.49-.75,1.52c-2.97,5.92-9.89,8.63-16.05,6.43.01-.05.02-.1.02-.15,0-1.65-1.35-3-3-3s-3,1.35-3,3c0,1.56,1.2,2.83,2.72,2.97l2.98,11.06c-.96.14-1.7.97-1.7,1.97v2c0,1.1.9,2,2,2h1v2c0,1.1.9,2,2,2h32c1.1,0,2-.9,2-2v-2h1c1.1,0,2-.9,2-2v-2c0-1-.74-1.83-1.7-1.97l2.98-11.06c1.52-.14,2.72-1.41,2.72-2.97,0-1.65-1.35-3-3-3ZM29.41,17l2.59-2.59,2.59,2.59-2.59,2.59-2.59-2.59ZM10,29c-.55,0-1-.45-1-1s.45-1,1-1,1,.45,1,1-.45,1-1,1ZM48,50H16v-2h32v2ZM51,46H13v-2h38v2ZM49.23,42H14.77l-3.11-11.51c.21-.14.4-.31.56-.49,1.68.61,3.41.92,5.12.92,5.54,0,10.85-3.07,13.47-8.3l.47-.93.01.02c.2.19.45.29.71.29s.51-.1.71-.29l.01-.02.47.93c2.62,5.24,7.93,8.3,13.47,8.3,1.71,0,3.44-.31,5.12-.92.16.18.35.35.56.49l-3.11,11.51ZM54,29c-.55,0-1-.45-1-1s.45-1,1-1,1,.45,1,1-.45,1-1,1Z"/>
  <path d="M15.284,35.013c.596,1.787,2.261,2.987,4.144,2.987h.77c1.464,0,2.823-.727,3.635-1.945.44-.661,1.177-1.055,1.971-1.055h1.783l3.707,3.707c.195.195.451.293.707.293s.512-.098.707-.293l3.707-3.707h1.783c.794,0,1.53.394,1.971,1.055.812,1.218,2.17,1.945,3.635,1.945h.77c1.883,0,3.548-1.2,4.144-2.987l.232-.697c.175-.524-.108-1.09-.632-1.265-.524-.174-1.091.108-1.265.632l-.232.697c-.323.969-1.226,1.62-2.247,1.62h-.77c-.794,0-1.53-.394-1.971-1.055-.812-1.218-2.17-1.945-3.635-1.945h-1.783l-3.707-3.707c-.391-.391-1.023-.391-1.414,0l-3.707,3.707h-1.783c-1.464,0-2.823.727-3.635,1.945-.44.661-1.177,1.055-1.971,1.055h-.77c-1.021,0-1.924-.651-2.247-1.62l-.232-.697c-.175-.524-.742-.807-1.265-.632-.524.175-.807.741-.632,1.265l.232.697ZM32,31.414l2.586,2.586-2.586,2.586-2.586-2.586,2.586-2.586Z"/>
</svg>