<?xml version="1.0" encoding="UTF-8"?>
<svg id="Outline" xmlns="http://www.w3.org/2000/svg" version="1.1" viewBox="0 0 64 64">
  <!-- Generator: Adobe Illustrator 29.5.1, SVG Export Plug-In . SVG Version: 2.1.0 Build 141)  -->
  <path d="M56.32019,23.04761c-.41003-.14001-.85999.01001-1.12.34998-3.57001,4.76001-9.25,7.60004-15.20001,7.60004h-4c-1.09998,0-2-.90002-2-2,0-1.94.5-3.79004,1.42999-5.34003,1.03003-1.70996,1.57001-3.66998,1.57001-5.65997,0-3.12-1.33002-6.10004-3.65997-8.19-2.32001-2.08002-5.43005-3.08002-8.56-2.73999-5.17004.56-9.26001,4.71997-9.73004,9.89996-.01996.20001-.02997.40002-.02997.60004l-.91003.89996c-1.63,1.63-3.78998,2.53003-6.10999,2.53003-.38,0-.72998.21997-.90002.57001-.16998.33997-.12.75.12,1.04999,2.05005,2.57001,5.11005,4,8.28003,4,.97998,0,1.96002-.14001,2.92999-.41998l.19-.05005c.85999.78003,1.84998,1.44,2.96002,1.92004.88.38995,1.41998,1.17999,1.41998,2.07996v.33002c0,.91003-.56,1.72003-1.42999,2.08002-4.41998,1.78998-6.57001,5.53998-6.57001,11.44,0,7.16998,9.41998,13,21,13s21-5.83002,21-13v-20c0-.42999-.28003-.81-.67999-.95001ZM10.19019,22.77759c1.88-.38995,3.59998-1.29999,5.02997-2.63.32001,1.56.96002,3.03003,1.88,4.30005-2.45996.46997-4.96997-.15002-6.90997-1.67004ZM55.00018,43.99762c0,6.07001-8.52002,11-19,11s-19-4.92999-19-11c0-5.14001,1.64001-8.09003,5.32001-9.59003,1.63-.65997,2.67999-2.20001,2.67999-3.92999v-.33002c0-1.66998-1.03003-3.20996-2.60999-3.90997-3.56-1.56-5.71002-5.21002-5.35004-9.09003.38-4.15997,3.80005-7.64996,7.95001-8.09998.34003-.03003.67999-.04999,1.02002-.04999,2.21997,0,4.32001.79999,6,2.29999,1.89996,1.71002,2.98999,4.15002,2.98999,6.70001,0,1.63-.44,3.22998-1.28003,4.63-1.12994,1.87-1.71997,4.07001-1.71997,6.37,0,2.20996,1.78998,4,4,4h4c5.65002,0,11.08002-2.32001,15-6.31v17.31Z"/>
  <path d="M34.53046,38.38629c-1.5-2.12207-3.94141-3.38867-6.53027-3.38867-2.18262,0-4.2207.86133-5.73926,2.42383-1.51855,1.56348-2.32031,3.62695-2.25781,5.81152.12402,4.28125,3.84082,7.76465,8.28613,7.76465h4.2207c5.74219,0,11.13965-2.23438,15.19727-6.29297.28613-.28613.37207-.71582.2168-1.08984-.1543-.37402-.51953-.61719-.92383-.61719h-4.13965c-.86133,0-1.72363-.10449-2.56152-.31055-2.72754-.67188-4.64258-2.70996-5.76855-4.30078ZM42.86053,44.99762h1.4873c-3.38184,2.59473-7.50195,4-11.83789,4h-4.2207c-3.37402,0-6.19434-2.61133-6.28613-5.82129-.04785-1.64062.55371-3.18945,1.69141-4.36035,1.13965-1.17285,2.66797-1.81836,4.30566-1.81836,1.94043,0,3.77148.95117,4.89746,2.54395,1.89648,2.67969,4.29102,4.43848,6.92285,5.08691.99512.24512,2.01758.36914,3.04004.36914Z"/>
  <path d="M23,13c-.55273,0-1,.44727-1,1v2c0,.55273.44727,1,1,1s1-.44727,1-1v-2c0-.55273-.44727-1-1-1Z"/>
</svg>