<?xml version="1.0" encoding="UTF-8"?>
<svg id="Outline" xmlns="http://www.w3.org/2000/svg" version="1.1" viewBox="0 0 64 64">
  <!-- Generator: Adobe Illustrator 29.5.1, SVG Export Plug-In . SVG Version: 2.1.0 Build 141)  -->
  <path d="M50,11h-1v-1c0-1.61-1.28-2.92-2.87-2.99h-.06c-.02,0-.05-.01-.07-.01H15c-.13,0-.26.03-.37.07-2.06.36-3.63,2.14-3.63,4.3v38.63c0,1.65,1.35,3,3,3h1v1c0,1.65,1.35,3,3,3h32c1.65,0,3-1.35,3-3V14c0-1.65-1.35-3-3-3ZM46.09,9.02c.51.05.91.46.91.98v1h-7.35l6.44-1.98ZM39.35,9l-18.64,5.73-1.1-4.42c-.12-.48-.32-.92-.57-1.31h20.31ZM23,17v2h-2v-2h2ZM15,14v37h-1c-.55,0-1-.45-1-1V11.37c0-1.31,1.06-2.37,2.37-2.37,1.09,0,2.03.74,2.3,1.79l.06.24c-1.53.14-2.73,1.41-2.73,2.97ZM51,54c0,.55-.45,1-1,1H18c-.55,0-1-.45-1-1V14c0-.55.45-1,1-1h.22l.78,3.12v3.88c0,.55.45,1,1,1h4c.55,0,1-.45,1-1v-4c0-.17-.05-.32-.12-.45l8.27-2.55h16.85c.55,0,1,.45,1,1v40Z"/>
  <path d="M26,39c-3.86,0-7,3.141-7,7s3.14,7,7,7,7-3.141,7-7-3.14-7-7-7ZM22.882,49.877c.929-.576,1.989-.877,3.118-.877,1.109,0,2.186.306,3.122.874-.858.693-1.935,1.126-3.122,1.126s-2.26-.432-3.118-1.123ZM25,46c0-.552.449-1,1-1s1,.448,1,1-.449,1-1,1-1-.448-1-1ZM30.4,48.324c-.559-.368-1.159-.663-1.787-.879.239-.431.387-.918.387-1.445,0-1.654-1.346-3-3-3s-3,1.346-3,3c0,.527.149,1.016.388,1.447-.628.218-1.227.515-1.784.885-.373-.7-.604-1.485-.604-2.332,0-2.757,2.243-5,5-5s5,2.243,5,5c0,.843-.23,1.627-.6,2.324Z"/>
  <path d="M42,39c-3.86,0-7,3.141-7,7s3.14,7,7,7,7-3.141,7-7-3.14-7-7-7ZM38.878,49.874c.936-.568,2.013-.874,3.122-.874,1.129,0,2.189.301,3.118.877-.858.691-1.933,1.123-3.118,1.123s-2.264-.433-3.122-1.126ZM41,46c0-.552.449-1,1-1s1,.448,1,1-.449,1-1,1-1-.448-1-1ZM46.396,48.332c-.557-.37-1.156-.667-1.784-.885.24-.431.388-.92.388-1.447,0-1.654-1.346-3-3-3s-3,1.346-3,3c0,.526.148,1.014.387,1.445-.629.217-1.228.512-1.787.879-.37-.698-.6-1.481-.6-2.324,0-2.757,2.243-5,5-5s5,2.243,5,5c0,.846-.231,1.632-.604,2.332Z"/>
  <path d="M48,19h-20c-.552,0-1,.447-1,1s.448,1,1,1h20c.552,0,1-.447,1-1s-.448-1-1-1Z"/>
  <path d="M28,17h14c.552,0,1-.447,1-1s-.448-1-1-1h-14c-.552,0-1,.447-1,1s.448,1,1,1Z"/>
  <path d="M20,29h4c.552,0,1-.447,1-1v-4c0-.553-.448-1-1-1h-4c-.552,0-1,.447-1,1v4c0,.553.448,1,1,1ZM21,25h2v2h-2v-2Z"/>
  <path d="M48,27h-20c-.552,0-1,.447-1,1s.448,1,1,1h20c.552,0,1-.447,1-1s-.448-1-1-1Z"/>
  <path d="M28,25h14c.552,0,1-.447,1-1s-.448-1-1-1h-14c-.552,0-1,.447-1,1s.448,1,1,1Z"/>
  <path d="M20,37h4c.552,0,1-.447,1-1v-4c0-.553-.448-1-1-1h-4c-.552,0-1,.447-1,1v4c0,.553.448,1,1,1ZM21,33h2v2h-2v-2Z"/>
  <path d="M48,35h-20c-.552,0-1,.447-1,1s.448,1,1,1h20c.552,0,1-.447,1-1s-.448-1-1-1Z"/>
  <path d="M28,33h14c.552,0,1-.447,1-1s-.448-1-1-1h-14c-.552,0-1,.447-1,1s.448,1,1,1Z"/>
</svg>