<?xml version="1.0" encoding="UTF-8"?>
<svg id="Outline" xmlns="http://www.w3.org/2000/svg" version="1.1" viewBox="0 0 64 64">
  <!-- Generator: Adobe Illustrator 29.5.1, SVG Export Plug-In . SVG Version: 2.1.0 Build 141)  -->
  <path d="M56.88,45.53c-.17-.33-.51-.53-.88-.53h-6.15l-.46-2.76c2.72-1.28,4.61-4.04,4.61-7.24v-1c0-.55-.45-1-1-1h-14c-.55,0-1,.45-1,1v1c0,3.2,1.89,5.96,4.61,7.24l-.46,2.76h-8.41c1.46-2.63,2.26-5.76,2.26-9,0-5.96-2.73-11.45-7-14.18v-5.7l1.97-7.88c.07-.3.01-.61-.18-.86-.19-.24-.48-.38-.79-.38h-14c-.31,0-.6.14-.79.38-.19.25-.25.56-.18.86l1.97,7.88v5.7c-4.27,2.73-7,8.22-7,14.18,0,3.24.8,6.37,2.26,9h-4.26c-.37,0-.71.2-.88.53-.18.32-.16.72.05,1.02l4,6c.18.28.5.45.83.45h1v3c0,.55.45,1,1,1h8c.55,0,1-.45,1-1v-3h18v3c0,.55.45,1,1,1h8c.55,0,1-.45,1-1v-3h1c.33,0,.65-.17.83-.45l4-6c.21-.3.23-.7.05-1.02ZM40,35h12c0,3.31-2.69,6-6,6s-6-2.69-6-6ZM47.82,45h-3.64l.36-2.14c.47.09.96.14,1.46.14s.99-.05,1.46-.14l.36,2.14ZM28.72,9l-1.5,6h-8.44l-1.5-6h11.44ZM12,36c0-5.48,2.55-10.49,6.5-12.75.31-.18.5-.51.5-.87v-5.38h8v5.38c0,.36.19.69.5.87,3.95,2.26,6.5,7.27,6.5,12.75,0,3.32-.91,6.49-2.58,9H14.58c-1.67-2.51-2.58-5.68-2.58-9ZM21,55h-6v-2h6v2ZM49,55h-6v-2h6v2ZM51.46,51H12.54l-2.67-4h44.26l-2.67,4Z"/>
  <path d="M30,30h-14c-.552,0-1,.447-1,1v10c0,.553.448,1,1,1h14c.552,0,1-.447,1-1v-10c0-.553-.448-1-1-1ZM29,40h-12v-8h12v8Z"/>
</svg>