<?xml version="1.0" encoding="UTF-8"?>
<svg id="Outline" xmlns="http://www.w3.org/2000/svg" version="1.1" viewBox="0 0 64 64">
  <!-- Generator: Adobe Illustrator 29.5.1, SVG Export Plug-In . SVG Version: 2.1.0 Build 141)  -->
  <path d="M19.104,36.156c-.919-.545-1.995-.7-3.031-.435-1.035.265-1.905.916-2.45,1.836-.545.919-.699,1.995-.435,3.03.462,1.806,2.093,3.01,3.877,3.01.327,0,.659-.04.99-.125,2.137-.548,3.431-2.73,2.884-4.865-.264-1.036-.916-1.906-1.835-2.451ZM17.56,41.535c-1.073.271-2.16-.375-2.434-1.443-.132-.517-.055-1.055.218-1.515s.708-.785,1.225-.918c1.071-.272,2.16.375,2.433,1.443.273,1.067-.374,2.159-1.442,2.433Z"/>
  <path d="M41.776,48.212l-10.2-3.06c-.231-.07-.483-.053-.703.049-1.952.892-3.996,1.528-6.074,1.894-4.109.709-7.947,2.539-11.099,5.293l-2.98,2.61c-.416.363-.458.995-.094,1.411.198.226.475.341.753.341.234,0,.469-.082.658-.248l2.979-2.609c2.875-2.512,6.375-4.181,10.125-4.827,2.125-.374,4.215-1.009,6.216-1.891l9.844,2.953c.528.155,1.086-.141,1.245-.671.159-.528-.142-1.086-.671-1.245Z"/>
  <path d="M51.259,22.51c.62-.23,1.21-.5,1.73-.81,2.37-1.36,3.96-3.55,4.07-5.58.02-.34-.11-.65-.34-.89-.41-.39-.96-.42-1.56-.38.33-.55.59-1.07.41-1.65-.1-.33-.34-.59-.66-.73-1.62-.71-3.95-.47-6.09.57-.16-2.37-1.12-4.5-2.54-5.55-.28-.21-.63-.29-.97-.21-.59.13-.91.62-1.22,1.18-.28-.54-.57-1.01-1.12-1.16-.32-.08-.65-.03-.94.15-1.54,1.01-2.58,3.16-2.76,5.59-2.13-1.04-4.46-1.28-6.08-.57-.32.14-.56.4-.67.73-.18.58.09,1.1.42,1.65-.6-.03-1.16-.01-1.56.38-.24.24-.36.55-.34.89.11,2.03,1.7,4.22,4.06,5.58.53.3,1.12.58,1.73.81-.56.4-1.08.83-1.52,1.28-1.88,1.88-2.9,4.34-2.61,6.27.05.34.24.64.53.82.51.32,1.09.2,1.7.03-.18.57-.31,1.11-.03,1.6.17.3.45.49.77.56.31.07.63.1.96.1.66,0,1.35-.13,2.04-.37-2.76,4.92-7.44,8.57-12.93,9.99.12-1.1-.14-2.23-.75-3.18,1.38-1.64,1.58-4.01.4-5.86-1.18-1.87-3.41-2.7-5.47-2.16-1.14-1.81-3.33-2.73-5.46-2.19-2.13.55-3.61,2.42-3.74,4.54-2.06.52-3.62,2.31-3.77,4.52-.14,2.19,1.18,4.17,3.17,4.95-.12,1.91.86,3.74,2.54,4.69-.54.41-1.08.83-1.59,1.28l-2.99,2.62c-.41.36-.46.99-.09,1.41.338.384.999.458,1.41.09l2.99-2.62c3.41-2.98,7.58-4.98,12.06-5.75,7.83-1.37,14.45-6.82,17.33-14.24.11-.1.22-.19.32-.3.72-.71,1.39-1.61,1.95-2.56.15.26.31.52.48.77-1.39,5.46-4.63,10.33-9.18,13.73-.3.22-.45.6-.38.97.06.38.33.68.69.79l6.68,2c.1.03.2.04.29.04.43,0,.83-.28.96-.71.16-.53-.14-1.09-.67-1.25l-4.86-1.45c.93-.81,1.79-1.68,2.59-2.6.83.94,2.89,2.93,5.41,2.93,3.23,0,5.7-3.26,5.8-3.4.27-.36.27-.84,0-1.2-.1-.14-2.57-3.4-5.8-3.4-.77,0-1.5.19-2.17.48.9-1.6,1.64-3.29,2.19-5.05,1.65,1.61,3.73,2.57,5.5,2.57.23,0,.46-.02.67-.05.35-.05.65-.24.83-.54.32-.5.2-1.08.03-1.69.57.18,1.11.31,1.6.02.29-.16.49-.44.56-.76.42-1.99-.55-4.51-2.48-6.44-.45-.45-.97-.88-1.53-1.28ZM22.929,40.21c.79.83,1.04,2.01.68,3.05-3.16.61-6.16,1.78-8.88,3.44-.25-.02-.5-.07-.75-.17-1.4-.56-2.16-2.1-1.76-3.58.07-.27.02-.56-.13-.8-.15-.23-.39-.4-.67-.44-1.5-.27-2.57-1.61-2.47-3.12.1-1.52,1.32-2.72,2.84-2.79.29-.01.55-.14.73-.36.18-.22.26-.5.22-.77-.2-1.52.75-2.95,2.22-3.33,1.47-.38,2.99.42,3.54,1.86.1.26.3.47.56.57.27.1.56.09.81-.03,1.37-.68,3.01-.21,3.83,1.08.81,1.28.53,2.96-.67,3.92-.22.17-.36.43-.38.71-.02.28.08.56.28.76ZM46.059,37.25c1.53,0,2.95,1.23,3.68,2-.73.77-2.15,2-3.68,2s-2.95-1.23-3.68-2c.73-.77,2.15-2,3.68-2ZM48.719,15.4c.16-.1.31-.21.46-.3,1.36-.78,2.92-1.16,4.1-1.01-.41.66-.82,1.4-.4,2.12.41.71,1.23.7,2,.66-.42,1.12-1.48,2.29-2.89,3.1-.96.56-2.2,1.01-3.39,1.25-.1.02-.19.03-.29.04-.01-.8-.25-1.54-.64-2.17.51-1.11.88-2.4,1.05-3.69ZM42.479,9.71c.34.68.75,1.4,1.57,1.4.83,0,1.26-.73,1.64-1.41.71.95,1.17,2.48,1.17,4.06,0,.3-.02.61-.06.96-.09.97-.34,1.99-.67,2.89-.62-.35-1.32-.57-2.08-.57-.04,0-.08.02-.12.02-.7-.99-1.63-1.95-2.66-2.75-.01-.19-.03-.37-.03-.55,0-1.62.48-3.13,1.24-4.05ZM36.099,19.97c-1.4-.81-2.47-1.98-2.88-3.1.76.05,1.59.05,1.99-.66.42-.72.01-1.46-.39-2.12,1.18-.14,2.73.23,4.09,1.01.27.16.54.33.8.52.8.58,1.55,1.3,2.17,2.04-1.13.67-1.91,1.85-2.05,3.22-.21.08-.42.17-.63.27-1.11-.25-2.2-.66-3.1-1.18ZM40.689,29.18c-1.14,1.14-2.54,1.87-3.73,1.98.24-.73.46-1.52-.12-2.1-.59-.59-1.41-.38-2.16-.16.17-1.18.93-2.58,2.04-3.69.78-.79,1.86-1.54,2.96-2.09h.01c.02-.01.04-.02.06-.03.12-.06.24-.11.36-.16.48,1.18,1.49,2.08,2.73,2.45.04.13.08.26.13.39-.54,1.24-1.37,2.5-2.28,3.41ZM44.049,23.58c-1.25,0-2.27-1.02-2.27-2.27s1.02-2.27,2.27-2.27,2.26,1.02,2.26,2.27-1.01,2.27-2.26,2.27ZM51.259,29.06c-.59.59-.38,1.41-.17,2.15-1.17-.16-2.58-.92-3.68-2.03-.99-.98-1.89-2.37-2.42-3.72,1.2-.27,2.2-1.06,2.78-2.11.28-.02.56-.06.85-.11,1.03.53,2.03,1.23,2.76,1.97,1.14,1.14,1.87,2.54,1.97,3.73-.72-.24-1.51-.46-2.09.12Z"/>
  <path d="M55.284,45.819c-2.281-2.281-6.336-1.722-6.508-1.696-.438.063-.782.407-.846.846-.025.171-.584,4.227,1.697,6.507,1.508,1.509,3.792,1.775,5.217,1.775.729,0,1.233-.07,1.292-.079.438-.063.782-.407.846-.846.025-.171.584-4.227-1.697-6.507ZM55.056,51.247c-1.057.033-2.929-.101-4.015-1.187-1.085-1.085-1.212-2.955-1.187-4.015,1.066-.029,2.93.102,4.015,1.187,1.085,1.085,1.212,2.955,1.187,4.015Z"/>
</svg>