<?xml version="1.0" encoding="UTF-8"?>
<svg id="Outline" xmlns="http://www.w3.org/2000/svg" version="1.1" viewBox="0 0 64 64">
  <!-- Generator: Adobe Illustrator 29.3.1, SVG Export Plug-In . SVG Version: 2.1.0 Build 151)  -->
  <path d="M55.15002,35.22998c.56-1.33002.84998-2.77002.84998-4.22998,0-4.29999-2.48999-8.03003-6.09998-9.83002-.19-1.06-.69-2.03998-1.44-2.79999.27997-.54999.45996-1.15002.53998-1.77002.27002-2.21997-.90002-4.34998-2.84998-5.33997-.04004-1.16003-.54004-2.28003-1.40002-3.08002-1.06-.97998-2.5-1.38-3.96997-1.09003-1.59003.33002-2.85004,1.54004-3.29004,3.12-2.12.49005-3.76001,2.28003-4.02997,4.5-.08002.62-.04004,1.25.09998,1.85004-.62.37-1.14001.87-1.56,1.45001-.41998-.58002-.94-1.08002-1.56-1.45001.14001-.60004.17999-1.23004.09998-1.85004-.26996-2.21997-1.90997-4.00995-4.02997-4.5-.44-1.57996-1.70001-2.78998-3.29004-3.12-1.46997-.29999-2.90997.10004-3.96997,1.09003-.84998.78998-1.34998,1.89001-1.40002,3.08002-1.94995.98999-3.12,3.12-2.84998,5.33997.08002.62.26001,1.22003.53998,1.77002-.75.76001-1.25,1.73999-1.44,2.79999-3.60999,1.79999-6.09998,5.53003-6.09998,9.83002,0,1.45996.28998,2.89996.84998,4.22998-1.07996.45001-1.84998,1.52002-1.84998,2.77002v2c0,1.64996,1.34998,3,3,3h.19l2.15002,10.04999c.5,2.28998,2.54999,3.95001,4.88995,3.95001h29.54004c2.33997,0,4.38995-1.66003,4.88995-3.95001l2.15002-10.04999h.19c1.65002,0,3-1.35004,3-3v-2c0-1.25-.77002-2.32001-1.84998-2.77002ZM54,31c0,1.39996-.34003,2.76001-.96002,4h-2.29999c.81-1.16003,1.26001-2.54004,1.26001-4,0-3.85999-3.14001-7-7-7-1.82001,0-3.56.71997-4.84998,1.95996-.34003-.57996-.78003-1.09998-1.29004-1.52997,1.66003-1.54999,3.84003-2.42999,6.14001-2.42999,4.96002,0,9,4.03998,9,9ZM40.92999,28.12c.92999-1.31,2.45001-2.12,4.07001-2.12,2.76001,0,5,2.23999,5,5,0,1.58997-.75,3.06-2.02002,4h-5.07001c-.25995-1.52002-1.07996-2.89001-2.32996-3.81.27997-.69.41998-1.44.41998-2.19,0-.29999-.03003-.59003-.07001-.88ZM35.14001,18.01001c.26001-.10004.46997-.30005.57001-.56.10999-.25.09998-.54004-.01001-.79004-.23999-.53998-.33002-1.10999-.26001-1.70996.19-1.54004,1.44-2.75,2.97998-2.86005.47003-.03998.86005-.48999.92004-.96997.12994-1.04004.87-1.87,1.83997-2.07001.83002-.16998,1.62.03998,2.21002.59003.56.52997.83997,1.29999.73999,2.14996-.06.47003.21997.91998.66998,1.07001,1.47003.48999,2.40002,1.96002,2.22003,3.5-.08002.59003-.30005,1.13-.67004,1.59998-.16998.22003-.23999.5-.19995.78003.04999.27002.19995.51001.42999.66998.33997.23004.62.53003.84998.87-.78998-.17999-1.59998-.27997-2.42999-.27997-1.10999,0-2.19.17999-3.22998.5l.29999-2.47003,1.57001-1.22998c.44-.34003.51001-.97003.16998-1.40002-.34003-.44-.96002-.51996-1.40002-.16998l.22003-1.84998c.07001-.55005-.32001-1.05005-.87-1.11005-.56-.06995-1.04999.32001-1.10999.87006l-.23004,1.83997c-.33997-.42999-.96997-.51001-1.39996-.16998-.44.34998-.51001.96997-.17004,1.40997l1.23004,1.58002-.42999,3.59998c-.94.53003-1.80005,1.19-2.57001,1.98004-.04004-.01001-.08002-.04004-.13-.05005-.25-1.90997-1.60004-3.46997-3.38-4.06.38-.56.90997-1.01996,1.57001-1.25995ZM32,21c1.65002,0,3,1.34998,3,3.09998,0,.47998.34003.89001.79999.97998,1.85999.37006,3.20001,2.02002,3.20001,3.92004,0,.72998-.19,1.41998-.57001,2.03998-.14001.23999-.17999.53003-.09998.78998.07001.27002.26001.49005.5.62006,1.02997.52997,1.76001,1.45996,2.03998,2.54999h-17.73999c.27997-1.09003,1.01001-2.02002,2.03998-2.54999.23999-.13.42999-.35004.5-.62006.08002-.25995.04004-.54999-.09998-.78998-.38-.62-.57001-1.31-.57001-2.03998,0-1.90002,1.34003-3.54999,3.20001-3.92004.45996-.08997.79999-.59998.79999-1.07996,0-1.65002,1.34998-3,3-3ZM23.41998,31.19c-1.25.91998-2.07001,2.28998-2.32996,3.81h-5.07001c-1.27002-.94-2.02002-2.41003-2.02002-4,0-2.76001,2.23999-5,5-5,1.62,0,3.14001.81,4.07001,2.12-.03998.28998-.07001.58002-.07001.88,0,.75.14001,1.5.41998,2.19ZM17.41998,19.40997c.23004-.15997.38-.39996.42999-.66998.04004-.28003-.02997-.56-.19995-.78003-.37-.46997-.59003-1.00995-.67004-1.59998-.17999-1.53998.75-3.01001,2.22003-3.5.45001-.15002.71997-.67999.65997-1.15002-.08997-.76996.19-1.53998.75-2.06995.59003-.55005,1.38-.76001,2.21002-.59003.96997.20001,1.71002,1.02997,1.84998,2.15002.04999.47998.44.84998.91003.88995,1.53998.11005,2.78998,1.32001,2.97998,2.86005.07001.59998-.02002,1.16998-.26001,1.70996-.10999.25-.12.54004-.01001.79004.10004.25995.31.45996.57001.56.66003.23999,1.19.69995,1.57001,1.25995-1.76001.59003-3.08997,2.12006-3.37,4.05005-.04999.01996-.09998.03998-.14001.06-.76996-.79004-1.63-1.45001-2.57001-1.98004l-.42999-3.59998,1.23004-1.58002c.33997-.44.26996-1.06-.17004-1.40997-.42999-.34003-1.06-.26001-1.39996.16998l-.23004-1.83997c-.06-.55005-.56-.94-1.10999-.87006-.54999.06-.94.56-.87,1.11005l.22003,1.84998c-.18005-.15002-.40002-.21997-.61005-.21997-.29999,0-.58997.13995-.78998.38995-.34003.42999-.27002,1.06.16998,1.40002l1.57001,1.22998.29999,2.47003c-1.03998-.32001-2.12-.5-3.22998-.5-.83002,0-1.64001.09998-2.42999.27997.22998-.33997.51001-.63995.84998-.87ZM19,22c2.29999,0,4.47998.88,6.14001,2.42999-.51001.42999-.95001.95001-1.29004,1.52997-1.28998-1.23999-3.02997-1.95996-4.84998-1.95996-3.85999,0-7,3.14001-7,7,0,1.45996.45001,2.83997,1.26001,4h-2.29999c-.62-1.23999-.96002-2.60004-.96002-4,0-4.96002,4.03998-9,9-9ZM46.77002,55h-29.54004c-1.26996,0-2.38995-.82001-2.82001-2h35.18005c-.43005,1.17999-1.55005,2-2.82001,2ZM50.04999,51H13.95001l-1.71002-8h39.52002l-1.71002,8ZM55,40c0,.54999-.45001,1-1,1H10c-.54999,0-1-.45001-1-1v-2c0-.54999.45001-1,1-1h44c.54999,0,1,.45001,1,1v2Z"/>
</svg>