<?xml version="1.0" encoding="UTF-8"?>
<svg id="Outline" xmlns="http://www.w3.org/2000/svg" version="1.1" viewBox="0 0 64 64">
  <!-- Generator: Adobe Illustrator 29.5.1, SVG Export Plug-In . SVG Version: 2.1.0 Build 141)  -->
  <path d="M56.76,31.35c-.19-.22-.47-.35-.76-.35h-1.06c-.5-4.49-4.32-8-8.94-8-.42,0-.83.04-1.24.09-1.56-1.3-3.57-2.09-5.76-2.09-1.27,0-2.52.28-3.68.8-.34-.52-.8-.96-1.36-1.27.03-.18.04-.35.04-.53,0-2.21-1.79-4-4-4s-4,1.79-4,4c0,.18.01.35.04.53-1.24.69-2.04,2.01-2.04,3.47,0,.31.04.62.11.93-.22.15-.42.33-.61.52-.19-.19-.39-.37-.61-.52.07-.31.11-.62.11-.93,0-1.46-.8-2.78-2.04-3.47.03-.18.04-.35.04-.53,0-2.21-1.79-4-4-4s-4,1.79-4,4c0,.18.01.35.04.53-1.24.69-2.04,2.01-2.04,3.47,0,.31.04.62.11.93-1.3.92-2.11,2.44-2.11,4.07,0,.7.15,1.38.42,2h-1.42c-.29,0-.57.13-.76.35-.19.23-.27.52-.23.81l1.18,7.03c.93,5.58,4.49,10.63,9.81,13.92v2.89c0,.55.45,1,1,1h26c.55,0,1-.45,1-1v-2.89c5.32-3.29,8.88-8.34,9.81-13.92l1.18-7.03c.04-.29-.04-.58-.23-.81ZM52.92,31h-4.98c.03-.33.06-.67.06-1,0-1.84-.56-3.55-1.51-4.98,3.3.24,5.97,2.75,6.43,5.98ZM35.98,23.7c.94-.45,1.97-.7,3.02-.7,3.86,0,7,3.14,7,7,0,.33-.03.67-.08,1h-8.34c.27-.62.42-1.3.42-2,0-1.63-.81-3.15-2.11-4.07.07-.31.11-.62.11-.93,0-.1-.01-.2-.02-.3ZM24.64,27.16c.29-.37.67-.68,1.11-.88.25-.11.44-.32.53-.58.09-.26.07-.54-.05-.79-.15-.29-.23-.6-.23-.91,0-.9.61-1.68,1.48-1.91.27-.08.51-.26.63-.52.13-.26.14-.56.04-.82-.1-.25-.15-.5-.15-.75,0-1.1.9-2,2-2s2,.9,2,2c0,.25-.05.5-.15.75-.1.26-.09.56.04.82.12.26.36.44.63.52.87.23,1.48,1.01,1.48,1.91,0,.31-.08.62-.23.91-.12.25-.14.53-.05.79.09.26.28.47.53.58,1.06.49,1.75,1.55,1.75,2.72,0,.74-.29,1.45-.79,2h-4.21v-1.59l1.71-1.7c.39-.39.39-1.03,0-1.42-.39-.39-1.03-.39-1.42,0l-.29.3v-3.59c0-.55-.45-1-1-1s-1,.45-1,1v3.59l-.29-.3c-.39-.39-1.03-.39-1.42,0-.39.39-.39,1.03,0,1.42l1.71,1.7v1.59h-4.21c-.05-.05-.1-.11-.15-.16.23-.58.36-1.2.36-1.84s-.13-1.26-.36-1.84ZM12.75,26.28c.25-.11.44-.32.53-.58.09-.26.07-.54-.05-.79-.15-.29-.23-.6-.23-.91,0-.9.61-1.68,1.48-1.91.27-.08.51-.26.63-.52.13-.26.14-.56.04-.82-.1-.25-.15-.5-.15-.75,0-1.1.9-2,2-2s2,.9,2,2c0,.25-.05.5-.15.75-.1.26-.09.56.04.82.12.26.36.44.63.52.87.23,1.48,1.01,1.48,1.91,0,.31-.08.62-.23.91-.12.25-.14.53-.05.79.09.26.28.47.53.58.44.2.82.51,1.11.88-.23.58-.36,1.2-.36,1.84s.13,1.26.36,1.84c-.05.05-.1.11-.15.16h-4.21v-1.59l1.71-1.7c.39-.39.39-1.03,0-1.42-.39-.39-1.03-.39-1.42,0l-.29.3v-3.59c0-.55-.45-1-1-1s-1,.45-1,1v3.59l-.29-.3c-.39-.39-1.03-.39-1.42,0-.39.39-.39,1.03,0,1.42l1.71,1.7v1.59h-4.21c-.5-.55-.79-1.26-.79-2,0-1.17.69-2.23,1.75-2.72ZM53.84,38.87c-.86,5.16-4.27,9.83-9.35,12.81-.3.18-.49.51-.49.86v2.46h-24v-2.46c0-.35-.19-.68-.49-.86-5.08-2.98-8.49-7.65-9.35-12.81l-.98-5.87h45.64l-.98,5.87Z"/>
  <path d="M46.952,21.497c.196,0,.318-.006.346-.008.509-.027.915-.434.943-.943.005-.1.067-1.444-.31-3.07,1.462-.081,4.24-.495,6.145-2.4,2.629-2.629,2.423-6.943,2.413-7.125-.028-.51-.435-.916-.943-.943-.184-.012-4.497-.215-7.126,2.412-1.305,1.305-1.91,3.023-2.189,4.447-.127-.153-.259-.304-.403-.447-2.628-2.628-6.941-2.427-7.126-2.412-.509.027-.915.434-.943.943-.01.182-.216,4.497,2.413,7.125,2.231,2.232,5.677,2.421,6.78,2.421ZM49.834,10.834c1.347-1.347,3.421-1.709,4.631-1.803-.093,1.211-.456,3.284-1.803,4.631-1.347,1.348-3.421,1.71-4.631,1.804.093-1.212.456-3.285,1.803-4.632ZM44.414,14.834c1.347,1.347,1.71,3.421,1.803,4.632-1.211-.094-3.285-.457-4.631-1.804-1.348-1.348-1.71-3.424-1.803-4.634,1.208.091,3.276.45,4.631,1.806Z"/>
</svg>