<?xml version="1.0" encoding="UTF-8"?>
<svg id="Outline" xmlns="http://www.w3.org/2000/svg" version="1.1" viewBox="0 0 48 48">
  <!-- Generator: Adobe Illustrator 29.5.1, SVG Export Plug-In . SVG Version: 2.1.0 Build 141)  -->
  <path d="M36.671,18.281l-.241-.563c-.877-2.043-2.588-3.618-4.696-4.321-1.223-.407-2.488-.486-3.703-.291.15-1.729,1.064-3.303,2.524-4.277.297-.198.466-.539.443-.894-.022-.356-.232-.673-.551-.833l-4-2c-.307-.152-.667-.139-.962.037l-.369.222c-1.026.616-1.91,1.41-2.658,2.312-.16-.218-.313-.444-.5-.632-2.685-2.698-7.757-1.737-7.973-1.696-.398.079-.71.39-.788.789-.042.213-.984,5.21,1.641,7.909-1.445.834-2.601,2.117-3.27,3.676l-.239.561c-3.416,7.97-1.416,17.261,4.976,23.121,1.167,1.07,2.637,1.602,4.105,1.602,1.263,0,2.524-.394,3.589-1.177,2.303,1.693,5.523,1.565,7.694-.425,6.392-5.859,8.392-15.15,4.977-23.12ZM26.045,7.138l2.144,1.072c-1.392,1.428-2.188,3.353-2.188,5.393v.124c-.718.334-1.397.769-2,1.324-.591-.544-1.255-.973-1.957-1.305.21-2.694,1.69-5.176,4.002-6.608ZM15.065,7.213c1.281-.134,4.023-.22,5.478,1.241.281.281.503.643.692,1.043-.593,1.124-.993,2.348-1.151,3.626-1.008-.177-2.051-.154-3.081.082-.26-.151-.498-.317-.698-.517-1.46-1.454-1.375-4.193-1.24-5.476ZM30.343,39.926c-1.612,1.478-4.089,1.425-5.636-.123-.391-.391-1.023-.391-1.414,0-1.549,1.548-4.021,1.603-5.636.123-5.767-5.286-7.57-13.668-4.488-20.859l.239-.561c.651-1.519,1.924-2.689,3.491-3.212.606-.203,1.229-.301,1.844-.301,1.506,0,2.972.592,4.08,1.7l.47.469c.391.39,1.023.39,1.414,0l.47-.47c.637-.636,1.395-1.092,2.208-1.374.002,0,.004,0,.006-.002,1.178-.406,2.474-.435,3.71-.023,1.567.522,2.84,1.693,3.49,3.21l.241.563c3.081,7.19,1.277,15.572-4.489,20.858Z"/>
</svg>