<?xml version="1.0" encoding="UTF-8"?>
<svg id="Outline" xmlns="http://www.w3.org/2000/svg" version="1.1" viewBox="0 0 64 64">
  <!-- Generator: Adobe Illustrator 29.5.1, SVG Export Plug-In . SVG Version: 2.1.0 Build 141)  -->
  <path d="M56,31h-1.05c-.51-6.15-5.67-11-11.95-11-2.86,0-5.61,1.03-7.76,2.86-.76-1.43-2.04-2.56-3.62-3.09-.34-3.24-3.08-5.77-6.4-5.77s-6.07,2.53-6.41,5.77c-2.58.87-4.38,3.32-4.38,6.1,0,2.04,1,3.93,2.61,5.13h-9.04c-.55,0-1,.45-1,1v9.44c0,5.85,4.36,10.68,10,11.44v3.12c0,.55.45,1,1,1h9c.55,0,1-.45,1-1s-.45-1-1-1h-8v-2h26v2h-14c-.55,0-1,.45-1,1s.45,1,1,1h15c.55,0,1-.45,1-1v-3.12c5.64-.76,10-5.59,10-11.44v-9.44c0-.55-.45-1-1-1ZM35.93,24.96c1.86-1.88,4.4-2.96,7.07-2.96,5.18,0,9.45,3.95,9.95,9h-19.55c1.6-1.2,2.6-3.09,2.6-5.13,0-.31-.03-.61-.07-.91ZM16.43,25.87c0-2.1,1.5-3.93,3.56-4.35.46-.09.8-.5.8-.98,0-.05,0-.11-.01-.11,0-2.44,1.99-4.43,4.44-4.43s4.43,1.99,4.43,4.35c0,.05-.01.14-.01.19,0,.48.34.89.8.98,2.06.41,3.56,2.24,3.56,4.35,0,1.84-1.17,3.51-2.92,4.15-.31.12-.54.38-.62.69-.02.1-.03.19-.03.29h-4.21v-1.43l4.51-2.71c.48-.29.63-.9.35-1.37-.29-.48-.9-.63-1.38-.35l-3.48,2.09v-7.23c0-.55-.45-1-1-1s-1,.45-1,1v7.23l-3.49-2.09c-.47-.28-1.09-.13-1.37.35-.28.47-.13,1.08.34,1.37l4.52,2.71v1.43h-4.22c.01-.1,0-.19-.02-.29-.08-.32-.31-.57-.62-.69-1.75-.65-2.93-2.31-2.93-4.15ZM55,35H18c-.55,0-1,.45-1,1s.45,1,1,1h37v4.44c0,5.27-4.29,9.56-9.56,9.56h-26.88c-5.27,0-9.56-4.29-9.56-9.56v-4.44h5c.55,0,1-.45,1-1s-.45-1-1-1h-5v-2h46v2Z"/>
  <path d="M43,28c.553,0,1-.448,1-1v-2c0-.552-.447-1-1-1s-1,.448-1,1v2c0,.552.447,1,1,1Z"/>
  <path d="M38.758,29.172c.195.195.451.292.706.292.872,0,1.322-1.093.708-1.708l-1.415-1.414c-.391-.39-1.023-.39-1.414,0s-.391,1.024,0,1.415l1.415,1.414Z"/>
  <path d="M46.535,29.463c.257,0,.513-.097.707-.291l1.415-1.414c.391-.391.391-1.024,0-1.415s-1.023-.39-1.414,0l-1.415,1.414c-.613.613-.157,1.706.707,1.706Z"/>
  <path d="M40,19c6.065,0,11-4.935,11-11,0-.552-.447-1-1-1h-20c-.553,0-1,.448-1,1,0,6.065,4.935,11,11,11ZM44.899,9c-.465,2.279-2.484,4-4.899,4s-4.434-1.721-4.899-4h9.798ZM33.08,9c.488,3.387,3.401,6,6.92,6s6.432-2.613,6.92-6h2.024c-.499,4.494-4.319,8-8.944,8s-8.445-3.506-8.944-8h2.024Z"/>
  <path d="M8,21h2c6.065,0,11-4.935,11-11v-2c0-.552-.447-1-1-1h-2c-6.065,0-11,4.935-11,11v2c0,.552.447,1,1,1ZM18,9h1v1c0,4.815-3.804,8.748-8.564,8.978l6.271-6.271c.391-.391.391-1.023,0-1.414s-1.023-.391-1.414,0l-6.271,6.271c.23-4.759,4.162-8.564,8.978-8.564Z"/>
</svg>