<?xml version="1.0" encoding="UTF-8"?>
<svg id="Outline" xmlns="http://www.w3.org/2000/svg" version="1.1" viewBox="0 0 64 64">
  <!-- Generator: Adobe Illustrator 29.5.1, SVG Export Plug-In . SVG Version: 2.1.0 Build 141)  -->
  <path d="M56.08,31.85c.38-1.62.59-3.3.59-5.02,0-.29-.01-.58-.02-.87-.02-.55-.48-1.01-1.04-.96-.55.02-.98.48-.96,1.04.01.25.02.52.02.79,0,1.43-.16,2.84-.45,4.19-.07,0-.14-.02-.22-.02h-9v-.57c1.62-1.57,3.74-2.43,6-2.43.55,0,1-.45,1-1s-.45-1-1-1c-2.17,0-4.24.65-6,1.86v-3.43c1.62-1.57,3.74-2.43,6-2.43.55,0,1-.45,1-1s-.45-1-1-1c-2.17,0-4.24.65-6,1.86v-5.86c0-.55-.45-1-1-1s-1,.45-1,1v5.86c-1.76-1.21-3.83-1.86-6-1.86-.55,0-1,.45-1,1s.45,1,1,1c2.26,0,4.38.86,6,2.43v3.43c-1.76-1.21-3.83-1.86-6-1.86-.55,0-1,.45-1,1s.45,1,1,1c2.26,0,4.38.86,6,2.43v.57h-9.23c-.29-1.34-.44-2.73-.44-4.17,0-8.18,4.79-14.83,10.67-14.83,4.62,0,8.7,4.11,10.14,10.23.12.54.67.86,1.2.74.54-.12.87-.66.74-1.2-1.65-7.04-6.51-11.77-12.08-11.77-5.94,0-10.92,5.46-12.29,12.8-1.65-1.17-3.62-1.8-5.71-1.8-1.27,0-2.48.25-3.59.68-.85-1.62-2.52-2.68-4.41-2.68-.88,0-1.73.24-2.5.69-.77-.45-1.62-.69-2.5-.69-2.76,0-5,2.24-5,5,0,.83.21,1.63.6,2.35-1.01.94-1.6,2.26-1.6,3.65,0,.8.19,1.58.55,2.27-.35.5-.55,1.1-.55,1.73,0,1.65,1.35,3,3,3h.04c.63,9.46,10.24,17,21.96,17s21.33-7.54,21.96-17h.04c.81,0,1.57-.32,2.11-.87.57-.56.89-1.32.89-2.13,0-.85-.35-1.61-.92-2.15ZM26,23c2.03,0,3.93.75,5.4,2.12-.05.56-.07,1.13-.07,1.71,0,.52.02,1.03.06,1.54-.98-1.99-3.02-3.37-5.39-3.37-3.31,0-6,2.69-6,6h-2c0-4.41,3.59-8,8-8ZM30,31h-8c0-2.21,1.79-4,4-4s4,1.79,4,4ZM10.47,27.44c.25-.15.43-.4.48-.69.05-.29-.04-.59-.23-.81-.33-.4-.72-1.05-.72-1.94,0-1.65,1.35-3,3-3,.84,0,1.49.37,1.88.68.36.29.88.29,1.24,0,.39-.31,1.04-.68,1.88-.68,1.12,0,2.11.63,2.63,1.58-2.78,1.78-4.63,4.88-4.63,8.42h-6c-.27,0-.52.05-.77.11-.15-.35-.23-.72-.23-1.11,0-1.04.56-2.02,1.47-2.56ZM54.69,34.71c-.18.19-.42.29-.69.29H20c-.55,0-1,.45-1,1s.45,1,1,1h31.94c-.65,8.36-9.33,15-19.94,15s-19.29-6.64-19.94-15h3.94c.55,0,1-.45,1-1s-.45-1-1-1h-6c-.55,0-1-.45-1-1,0-.27.1-.51.31-.71.18-.19.42-.29.69-.29h44c.55,0,1,.45,1,1,0,.27-.1.51-.31.71Z"/>
</svg>