<?xml version="1.0" encoding="UTF-8"?>
<svg id="Outline" xmlns="http://www.w3.org/2000/svg" version="1.1" viewBox="0 0 64 64">
  <!-- Generator: Adobe Illustrator 29.0.0, SVG Export Plug-In . SVG Version: 2.1.0 Build 186)  -->
  <path d="M18,26h-2c-.55225,0-1,.44775-1,1s.44775,1,1,1h2c1.6543,0,3-1.3457,3-3s-1.3457-3-3-3c-.55127,0-1-.44873-1-1s.44873-1,1-1h2c.55225,0,1-.44775,1-1s-.44775-1-1-1h-2c-1.6543,0-3,1.3457-3,3s1.3457,3,3,3c.55127,0,1,.44873,1,1s-.44873,1-1,1Z"/>
  <path d="M24,28c.55225,0,1-.44775,1-1v-2h2v2c0,.55225.44775,1,1,1s1-.44775,1-1v-6c0-1.6543-1.3457-3-3-3s-3,1.3457-3,3v6c0,.55225.44775,1,1,1ZM26,20c.55127,0,1,.44873,1,1v2h-2v-2c0-.55127.44873-1,1-1Z"/>
  <path d="M40,28h4c.55225,0,1-.44775,1-1s-.44775-1-1-1h-3v-2h3c.55225,0,1-.44775,1-1s-.44775-1-1-1h-3v-2h3c.55225,0,1-.44775,1-1s-.44775-1-1-1h-4c-.55225,0-1,.44775-1,1v8c0,.55225.44775,1,1,1Z"/>
  <path d="M32,28h4c.55225,0,1-.44775,1-1s-.44775-1-1-1h-3v-7c0-.55225-.44775-1-1-1s-1,.44775-1,1v8c0,.55225.44775,1,1,1Z"/>
  <path d="M44,38c0-1.6543-1.3457-3-3-3s-3,1.3457-3,3,1.3457,3,3,3,3-1.3457,3-3ZM40,38c0-.55127.44873-1,1-1s1,.44873,1,1-.44873,1-1,1-1-.44873-1-1Z"/>
  <path d="M49,43c-1.6543,0-3,1.3457-3,3s1.3457,3,3,3,3-1.3457,3-3-1.3457-3-3-3ZM49,47c-.55127,0-1-.44873-1-1s.44873-1,1-1,1,.44873,1,1-.44873,1-1,1Z"/>
  <path d="M50.70703,36.29297c-.39062-.39062-1.02344-.39062-1.41406,0l-10,10c-.39056.39056-.39062,1.02322-.0002,1.41386.38987.39009,1.02747.38699,1.41426.0002l10-10c.39062-.39062.39062-1.02344,0-1.41406Z"/>
  <path d="M52.98999,33.07001c0-.02002.01001-.05005.01001-.07001V13c0-1.65002-1.34998-3-3-3H10c-1.65002,0-3,1.34998-3,3v20c0,1.64996,1.34998,3,3,3h24.62c-1.02002,1.76996-1.62,3.81-1.62,6,0,6.62,5.38,12,12,12s12-5.38,12-12c0-3.54999-1.56-6.73004-4.01001-8.92999ZM10,34c-.54999,0-1-.45001-1-1V13c0-.54999.45001-1,1-1h40c.54999,0,1,.45001,1,1v18.62c-.63-.35999-1.29999-.66998-2-.91998v-15.70001c0-.54999-.45001-1-1-1H12c-.54999,0-1,.45001-1,1v16c0,.54999.45001,1,1,1h26.38c-.84998.57001-1.62,1.23999-2.29999,2H10ZM47,16v14H13v-14h34ZM45,52c-5.51001,0-10-4.48999-10-10s4.48999-10,10-10,10,4.48999,10,10-4.48999,10-10,10Z"/>
</svg>