<?xml version="1.0" encoding="UTF-8"?>
<svg id="Outline" xmlns="http://www.w3.org/2000/svg" version="1.1" viewBox="0 0 64 64">
  <!-- Generator: Adobe Illustrator 29.0.0, SVG Export Plug-In . SVG Version: 2.1.0 Build 186)  -->
  <path d="M19.79475,42.21689l-.9895-.1463.14624-.98944c.08057-.5459-.29688-1.05469-.84326-1.13525-.5376-.08008-1.0542.29688-1.13525.84277l-.14984,1.01379c-1.12646-.04199-2.13391.75555-2.30182,1.89539-.12451.84326.23193,1.6709.93018,2.15918l2.41211,1.68701c.07373.05225.11182.13965.09863.22852-.01855.12842-.13867.22217-.26807.19922,0,0-.75562-.11169-.75616-.11182l-1.97821-.29248c-.54688-.07764-1.05469.29639-1.13574.84277-.08057.54639.29688,1.05518.84277,1.13574l.9895.1463-.14624.98944c-.08057.5459.29688,1.05469.84339,1.13527.54169.08037,1.0549-.30006,1.13513-.84279l.1488-1.00671c.03052.00122.06165.00671.09192.00671,1.08936,0,2.04688-.7998,2.21143-1.90918.12451-.84277-.23193-1.66992-.93018-2.15918l-2.4126-1.6875c-.07373-.05176-.11133-.13916-.09814-.22852.01904-.12842.1416-.21826.26758-.19873,0,0,.75562.11169.75659.11188l1.97778.29242c.55078.08301,1.05518-.2959,1.13574-.84277.08057-.54639-.29688-1.05518-.84277-1.13574Z"/>
  <path d="M56.11598,7.94883c-.54899-.55375-1.30323-.90382-2.11566-.90382h-18c-.54999,0-1,.45001-1,1s.45001,1,1,1h17.99898c.52992,0,1.00102.4738,1.00102,1,0,.54999-.45001,1-1,1h-31.99947c-.54574,0-1.00053-.45874-1.00053-1,0-.54999.45001-1,1-1h6c.54999,0,1-.45001,1-1s-.45001-1-1-1h-6c-1.64999,0-2.99995,1.34993-3,2.99991-.00004,1.28929.89297,2.50518,2.16998,2.87008l.54004,2.41998c-2.55005.76001-4.69,2.48999-5.97003,4.85999-1.44,2.66003-1.62,5.79004-.48999,8.60004l.17999.44-5.09998,3.78998c-.21002.16003-.35004.40002-.39001.66003l-2.92999,19.77997c-.08002.54999.29999,1.06.83997,1.14001l15.83002,2.33997c.04999.01001.10004.01001.15002.01001.48999,0,.90997-.35999.98999-.84998l2.91998-19.79004c.04004-.25995-.02997-.52997-.17999-.73999l-6.75-9.08997c-.33002-.44-.95001-.53003-1.40002-.20001l-2.31,1.71997c-.89996-2.23999-.75-4.73999.40002-6.85999,1-1.84998,2.66998-3.21997,4.64001-3.84998l2.88,12.96997c.10999.45001.51001.78003.97998.78003h24c.46997,0,.87-.33002.97998-.78003l3.85004-17.34998c1.24994-.35997,2.1699-1.5099,2.16998-2.8698.00005-.80349-.34199-1.54932-.88434-2.09638ZM16.8603,32.76498c-.52996.47003-.88,1.09001-.98999,1.79996-.2465,1.59105.94261,3.17903,2.52997,3.40005,1.60857.22397,3.16914-.92402,3.41002-2.52996.10999-.79004-.08002-1.58002-.56-2.22003-.47998-.65002-1.17999-1.07001-1.96997-1.17999-.19-.03003-.39001-.03998-.58002-.03003l-.83002-2.07996,1.92999-1.44,5.90002,7.95001-2.72003,18.37994-13.83997-2.03998,2.70996-18.39001,4.36005-3.22998.64996,1.60999ZM17.85029,34.85501c.08016-.52139.60772-.94657,1.13999-.84003.50793.10168.92731.56218.84006,1.12992-.08271.53826-.6025.92271-1.13994.84013-.53229-.0818-.92271-.59239-.84011-1.13002ZM23.25032,13.04501h6.85999l.44,4h-6.40997l-.89001-4ZM24.58033,19.04501h6.19l.44995,4h-5.75l-.88995-4ZM26.80031,29.04501l-.89001-4h5.53003l.37,3.32996c.02002.24005.08002.46002.15997.67004h-5.16998ZM37.00032,29.04501h-2.21002c-.50995,0-.94-.38-.98999-.89001l-.34998-3.10999h3.54999v4ZM37.00032,23.04501h-3.77002l-.44995-4h4.21997v4ZM37.00032,17.04501h-4.44l-.44-4h4.88v4ZM42.20033,28.155c-.04999.51001-.48004.89001-.98999.89001h-2.21002v-4h3.54999l-.34998,3.10999ZM42.77034,23.04501h-3.77002v-4h4.21997l-.44995,4ZM43.44032,17.04501h-4.44v-4h4.88l-.44,4ZM49.20033,29.04501h-5.16998c.07996-.21002.13995-.42999.15997-.67004l.37-3.32996h5.53003l-.89001,4ZM50.53035,23.04501h-5.75l.44995-4h6.19l-.88995,4ZM51.8603,17.04501h-6.40997l.44-4h6.85999l-.89001,4Z"/>
  <circle cx="32.00032" cy="8.04501" r="1"/>
</svg>