<?xml version="1.0" encoding="UTF-8"?>
<svg id="Outline" xmlns="http://www.w3.org/2000/svg" version="1.1" viewBox="0 0 64 64">
  <!-- Generator: Adobe Illustrator 29.5.1, SVG Export Plug-In . SVG Version: 2.1.0 Build 141)  -->
  <path d="M32,7c-13.785,0-25,11.215-25,25s11.215,25,25,25,25-11.215,25-25S45.785,7,32,7ZM32,55c-12.683,0-23-10.317-23-23s10.317-23,23-23,23,10.317,23,23-10.317,23-23,23Z"/>
  <path d="M32,11c-11.579,0-21,9.421-21,21s9.421,21,21,21c.266,0,.52-.105.707-.293l20-20c.188-.188.293-.441.293-.707,0-11.579-9.421-21-21-21ZM13,32c0-10.477,8.523-19,19-19,10.158,0,18.46,8.017,18.958,18.053-3.758.186-7.256,1.353-10.244,3.267-.722-.839-1.685-1.319-2.714-1.319-2.243,0-4,2.196-4,5,0,.858.176,1.678.504,2.411-2.028,3.051-3.259,6.664-3.451,10.547-10.036-.498-18.053-8.8-18.053-18.958ZM36,38c0-1.626.916-3,2-3,.377,0,.742.188,1.058.496-1.105.868-2.122,1.84-3.033,2.908-.013-.133-.025-.267-.025-.404ZM49.384,33.202l-16.182,16.182c1.162-8.383,7.8-15.02,16.182-16.182Z"/>
  <path d="M26,31c2.206,0,4-2.243,4-5s-1.794-5-4-5-4,2.243-4,5,1.794,5,4,5ZM26,23c1.084,0,2,1.374,2,3s-.916,3-2,3-2-1.374-2-3,.916-3,2-3Z"/>
  <path d="M40.707,24.707c.391-.391.391-1.023,0-1.414s-1.023-.391-1.414,0l-16,16c-.391.391-.391,1.023,0,1.414.362.363,1.031.384,1.414,0l16-16Z"/>
</svg>