<?xml version="1.0" encoding="UTF-8"?>
<svg id="Outline" xmlns="http://www.w3.org/2000/svg" version="1.1" viewBox="0 0 64 64">
  <!-- Generator: Adobe Illustrator 29.5.1, SVG Export Plug-In . SVG Version: 2.1.0 Build 141)  -->
  <path d="M50.942,37.417c-1.767-3.392-1.767-7.442,0-10.834.122-.233.145-.506.063-.757-.082-.25-.26-.458-.496-.576-3.423-1.706-5.804-4.983-6.369-8.766-.039-.261-.181-.495-.394-.65s-.48-.216-.74-.174c-3.775.631-7.625-.62-10.305-3.348-.37-.376-1.032-.376-1.402,0-2.68,2.728-6.531,3.978-10.305,3.348-.256-.042-.526.02-.74.174s-.355.389-.394.65c-.564,3.783-2.945,7.06-6.369,8.766-.236.118-.415.325-.496.576-.082.251-.059.524.063.758,1.767,3.392,1.767,7.442,0,10.834-.122.233-.145.506-.063.757.082.25.26.458.496.576,3.423,1.706,5.804,4.983,6.369,8.766.039.261.181.495.394.65s.483.216.74.174c3.776-.631,7.625.62,10.305,3.348.185.188.438.294.701.294s.516-.106.701-.294c2.68-2.728,6.527-3.981,10.305-3.348.259.042.526-.02.74-.174s.355-.389.394-.65c.564-3.783,2.945-7.06,6.369-8.766.236-.118.415-.325.496-.576.082-.251.059-.524-.063-.758ZM48.783,37.453c-3.263,1.925-5.588,5.126-6.41,8.824-3.771-.357-7.534.863-10.373,3.37-2.512-2.22-5.747-3.432-9.072-3.432-.432,0-.866.021-1.3.062-.822-3.698-3.147-6.898-6.411-8.824,1.509-3.475,1.509-7.431,0-10.905,3.263-1.925,5.588-5.126,6.41-8.824,3.776.361,7.534-.862,10.373-3.37,2.838,2.508,6.599,3.729,10.373,3.37.822,3.698,3.147,6.898,6.411,8.824-1.509,3.475-1.509,7.431,0,10.905Z"/>
  <path d="M22,29h2c.552,0,1-.448,1-1s-.448-1-1-1h-2c-1.654,0-3,1.346-3,3s1.346,3,3,3c.551,0,1,.449,1,1s-.449,1-1,1h-2c-.552,0-1,.448-1,1s.448,1,1,1h2c1.654,0,3-1.346,3-3s-1.346-3-3-3c-.551,0-1-.449-1-1s.449-1,1-1Z"/>
  <path d="M29,27c-1.654,0-3,1.346-3,3v6c0,.552.448,1,1,1s1-.448,1-1v-2h2v2c0,.552.448,1,1,1s1-.448,1-1v-6c0-1.654-1.346-3-3-3ZM28,32v-2c0-.551.449-1,1-1s1,.449,1,1v2h-2Z"/>
  <path d="M37,35h-2v-7c0-.552-.448-1-1-1s-1,.448-1,1v8c0,.552.448,1,1,1h3c.552,0,1-.448,1-1s-.448-1-1-1Z"/>
  <path d="M44,29c.552,0,1-.448,1-1s-.448-1-1-1h-4c-.552,0-1,.448-1,1v8c0,.552.448,1,1,1h4c.552,0,1-.448,1-1s-.448-1-1-1h-3v-2h3c.552,0,1-.448,1-1s-.448-1-1-1h-3v-2h3Z"/>
  <path d="M32,7c-13.785,0-25,11.215-25,25s11.215,25,25,25,25-11.215,25-25S45.785,7,32,7ZM32,55c-12.682,0-23-10.318-23-23s10.318-23,23-23,23,10.318,23,23-10.318,23-23,23Z"/>
</svg>