<?xml version="1.0" encoding="UTF-8"?>
<svg id="Outline" xmlns="http://www.w3.org/2000/svg" version="1.1" viewBox="0 0 64 64">
  <!-- Generator: Adobe Illustrator 29.5.1, SVG Export Plug-In . SVG Version: 2.1.0 Build 141)  -->
  <path d="M20,36h2c.553,0,1-.448,1-1s-.447-1-1-1h-2c-1.654,0-3,1.346-3,3s1.346,3,3,3c.552,0,1,.449,1,1s-.448,1-1,1h-2c-.553,0-1,.448-1,1s.447,1,1,1h2c1.654,0,3-1.346,3-3s-1.346-3-3-3c-.552,0-1-.449-1-1s.448-1,1-1Z"/>
  <path d="M28,34c-1.654,0-3,1.346-3,3v6c0,.552.447,1,1,1s1-.448,1-1v-2h2v2c0,.552.447,1,1,1s1-.448,1-1v-6c0-1.654-1.346-3-3-3ZM27,39v-2c0-.551.448-1,1-1s1,.449,1,1v2h-2Z"/>
  <path d="M38,42h-3v-7c0-.552-.447-1-1-1s-1,.448-1,1v8c0,.552.447,1,1,1h4c.553,0,1-.448,1-1s-.447-1-1-1Z"/>
  <path d="M46,40c.553,0,1-.448,1-1s-.447-1-1-1h-3v-2h3c.553,0,1-.448,1-1s-.447-1-1-1h-4c-.553,0-1,.448-1,1v8c0,.552.447,1,1,1h4c.553,0,1-.448,1-1s-.447-1-1-1h-3v-2h3Z"/>
  <path d="M46,29.02v-6.02c0-.33-.16-.64-.43-.82l-2.71-1.88c.08-.76.14-1.53.14-2.3,0-6.17-2.64-11-6-11-2.38,0-4.4,2.31-5.39,6.09-.06.03-.12.05-.18.09l-13,9c-.27.18-.43.49-.43.82v6.02c-3.7,2.54-6,6.07-6,9.98s2.3,7.44,6,9.98v7.02c0,.55.45,1,1,1h26c.55,0,1-.45,1-1v-7.02c3.7-2.54,6-6.07,6-9.98s-2.3-7.44-6-9.98ZM37,9c1.89,0,4,3.7,4,9,0,.33-.02.66-.04.99l-7.46-5.17c.71-2.86,2.1-4.82,3.5-4.82ZM20,23.52l11.12-7.69c-.07.71-.12,1.44-.12,2.17,0,1.03.1,2.03.25,3h-1.25c-.55,0-1,.45-1,1s.45,1,1,1h4c.55,0,1-.45,1-1s-.45-1-1-1h-.73c-.16-.96-.27-1.96-.27-3,0-.68.04-1.35.12-2.01l8.15,5.64c0,.01.01.01.02.02l2.71,1.87v4.31c-3.35-1.77-7.49-2.83-12-2.83s-8.65,1.06-12,2.83v-4.31ZM44,55h-24v-4.83c3.35,1.77,7.49,2.83,12,2.83s8.65-1.06,12-2.83v4.83ZM32,51c-9.92,0-18-5.38-18-12s8.08-12,18-12,18,5.38,18,12-8.08,12-18,12Z"/>
</svg>