<?xml version="1.0" encoding="UTF-8"?>
<svg id="Outline" xmlns="http://www.w3.org/2000/svg" version="1.1" viewBox="0 0 64 64">
  <!-- Generator: Adobe Illustrator 29.5.1, SVG Export Plug-In . SVG Version: 2.1.0 Build 141)  -->
  <path d="M56.92,25.62c-.15-.38-.52-.62-.92-.62h-1.11c.06-.33.11-.66.11-1,0-2.01-1.22-3.81-3.02-4.59.01-.14.02-.27.02-.41,0-2.76-2.24-5-5-5-1.73,0-3.31.9-4.21,2.33-.39-.15-.79-.25-1.21-.3-.77-1.82-2.56-3.03-4.58-3.03-.88,0-1.73.24-2.5.69-1.54-.91-3.46-.91-5,0-.77-.45-1.62-.69-2.5-.69-2.02,0-3.81,1.21-4.58,3.03-.42.05-.82.15-1.21.3-.9-1.43-2.48-2.33-4.21-2.33-2.76,0-5,2.24-5,5,0,.14.01.27.02.41-1.8.78-3.02,2.58-3.02,4.59,0,.34.05.67.11,1h-1.11c-.4,0-.77.24-.92.62-.16.37-.07.8.21,1.09l24,24c.2.19.45.29.71.29s.51-.1.71-.29l24-24c.28-.29.37-.72.21-1.09ZM45,35.59v-5.59c0-.55-.45-1-1-1s-1,.45-1,1v7.59l-4,4v-11.59c0-.55-.45-1-1-1s-1,.45-1,1v13.59l-5,5-5-5v-13.59c0-.55-.45-1-1-1s-1,.45-1,1v11.59l-4-4v-7.59c0-.55-.45-1-1-1s-1,.45-1,1v5.59l-8.59-8.59h6.59c.55,0,1-.45,1-1s-.45-1-1-1h-5.8c-.12-.32-.2-.65-.2-1,0-1.41,1-2.64,2.38-2.93.27-.06.5-.23.65-.46.14-.24.18-.53.1-.8-.09-.31-.13-.57-.13-.81,0-1.65,1.35-3,3-3,1.27,0,2.4.81,2.81,2.02.11.29.34.52.64.62.29.1.62.05.88-.13.49-.33,1.06-.51,1.63-.51.04,0,.14.01.18.01.46,0,.86-.31.97-.75.34-1.33,1.53-2.26,2.89-2.26.84,0,1.49.37,1.88.68.36.29.88.29,1.24,0,.39-.31,1.04-.68,1.88-.68s1.49.37,1.88.68c.36.29.88.29,1.24,0,.39-.31,1.04-.68,1.88-.68,1.36,0,2.55.93,2.89,2.26.11.44.51.75.97.75.06,0,.12,0,.14-.01.61,0,1.18.18,1.67.51.26.18.59.23.88.13.3-.1.53-.33.64-.62.41-1.21,1.54-2.02,2.81-2.02,1.65,0,3,1.35,3,3,0,.24-.04.5-.13.81-.08.27-.04.56.1.8.15.23.38.4.65.46,1.38.29,2.38,1.52,2.38,2.93,0,.35-.08.68-.2,1h-31.8c-.55,0-1,.45-1,1s.45,1,1,1h32.59l-8.59,8.59Z"/>
  <path d="M32,45c.552,0,1-.448,1-1v-7c0-.552-.448-1-1-1s-1,.448-1,1v7c0,.552.448,1,1,1Z"/>
  <path d="M32,34c.552,0,1-.448,1-1v-3c0-.552-.448-1-1-1s-1,.448-1,1v3c0,.552.448,1,1,1Z"/>
  <path d="M27,22c.552,0,1-.448,1-1s.449-1,1-1c.385,0,.633.218.747.348.38.435,1.126.435,1.506,0,.114-.13.362-.348.747-.348s.633.218.747.348c.38.435,1.126.435,1.506,0,.114-.13.362-.348.747-.348.551,0,1,.449,1,1s.448,1,1,1,1-.448,1-1c0-1.654-1.346-3-3-3-.531,0-1.047.144-1.5.409-.905-.529-2.095-.529-3,0-.453-.265-.969-.409-1.5-.409-1.654,0-3,1.346-3,3,0,.552.448,1,1,1Z"/>
  <path d="M21,22c.551,0,1,.449,1,1s.448,1,1,1,1-.448,1-1c0-1.654-1.346-3-3-3-.531,0-1.047.144-1.5.409-.453-.265-.969-.409-1.5-.409-1.654,0-3,1.346-3,3,0,.552.448,1,1,1s1-.448,1-1,.449-1,1-1c.385,0,.633.218.747.348.38.435,1.126.435,1.506,0,.114-.13.362-.348.747-.348Z"/>
  <path d="M41,24c.552,0,1-.448,1-1s.449-1,1-1c.385,0,.633.218.747.348.38.435,1.126.435,1.506,0,.114-.13.362-.348.747-.348.551,0,1,.449,1,1s.448,1,1,1,1-.448,1-1c0-1.654-1.346-3-3-3-.531,0-1.047.144-1.5.409-.453-.265-.969-.409-1.5-.409-1.654,0-3,1.346-3,3,0,.552.448,1,1,1Z"/>
</svg>