<?xml version="1.0" encoding="UTF-8"?>
<svg id="Outline" xmlns="http://www.w3.org/2000/svg" version="1.1" viewBox="0 0 64 64">
  <!-- Generator: Adobe Illustrator 29.5.1, SVG Export Plug-In . SVG Version: 2.1.0 Build 141)  -->
  <path d="M56,41h-1.56c.35-.59.56-1.27.56-2,0-1.07-.42-2.07-1.17-2.83-.07-.06-.14-.11-.21-.17.84-.73,1.38-1.8,1.38-3,0-1.07-.42-2.07-1.17-2.83-.13-.12-.27-.23-.41-.34,1.1-.35,1.96-.82,2.57-1.42.67-.67,1.01-1.48,1.01-2.41,0-2.87-3.42-6.46-8.71-9.15-2.51-1.27-5.22-2.25-8.06-2.9-1.33-.31-2.72-.55-4.11-.71-2.73-.32-5.52-.32-8.23,0-1.4.16-2.79.4-4.11.71-2.85.65-5.56,1.63-8.07,2.9-5.29,2.69-8.71,6.28-8.71,9.15,0,.93.34,1.74,1.01,2.41.61.6,1.48,1.06,2.58,1.42-.96.73-1.59,1.87-1.59,3.17,0,1.07.42,2.07,1.17,2.83.07.06.14.11.21.17-.84.73-1.38,1.8-1.38,3,0,.72.2,1.4.55,2h-1.55c-.55,0-1,.45-1,1v4c0,2.76,2.24,5,5,5h40c2.76,0,5-2.24,5-5v-4c0-.55-.45-1-1-1ZM46.74,18.33c-.56,3.85-1.93,5.67-2.74,5.67-1.12,0-2.71-2.97-2.96-7.77,1.98.53,3.91,1.25,5.7,2.1ZM34.97,15.14c-.23,4.83-1.85,7.86-2.97,7.86s-2.74-3.03-2.97-7.86c1.97-.17,3.97-.17,5.94,0ZM22.97,16.22c-.24,4.79-1.84,7.78-2.97,7.78-.81,0-2.18-1.82-2.74-5.67,1.79-.85,3.72-1.57,5.71-2.11ZM9.42,26.99c-.29-.29-.42-.6-.42-.99,0-1.59,2.19-4.31,6.38-6.7.74,4.11,2.48,6.7,4.62,6.7,3.1,0,4.83-5.16,4.98-10.26.68-.14,1.36-.26,2.06-.36.27,4.95,1.97,9.62,4.96,9.62s4.69-4.67,4.96-9.62c.7.1,1.38.22,2.06.36.15,5.1,1.88,10.26,4.98,10.26,2.14,0,3.88-2.59,4.62-6.7,4.19,2.39,6.38,5.11,6.38,6.7,0,.39-.13.7-.42.99-1.65,1.64-7.33,1.96-14.08,2.01h-17c-6.75-.05-12.43-.37-14.08-2.01ZM20.5,35h-7.5c-.53,0-1.03-.21-1.41-.59-.38-.38-.59-.88-.59-1.41,0-1.1.9-2,2-2h4.5l3,4ZM20,31h3.37c1.7.01,3.51.01,5.42.01l-4.73,5.4-4.06-5.41ZM13,37h9l1.2,1.6c.18.24.46.39.76.4h.04c.29,0,.56-.12.75-.34l2.96-3.38,2.49,3.32c.18.24.46.39.76.4h.04c.29,0,.56-.12.75-.34l1.45-1.66h17.8c.53,0,1.03.21,1.41.59.38.38.59.88.59,1.41,0,1.1-.9,2-2,2H13c-.53,0-1.03-.21-1.41-.59-.38-.38-.59-.88-.59-1.41,0-1.1.9-2,2-2ZM29.06,33.74l2.39-2.74h.55l3.18.01h.61l-4.73,5.4-2-2.67ZM51,35h-16.05l3.49-3.99c.88,0,1.72,0,2.54-.01h10.02c.53,0,1.03.21,1.41.59.38.38.59.88.59,1.41,0,1.1-.9,2-2,2ZM55,46c0,1.65-1.35,3-3,3H12c-1.65,0-3-1.35-3-3v-3h46v3Z"/>
</svg>