<?xml version="1.0" encoding="UTF-8"?>
<svg id="Outline" xmlns="http://www.w3.org/2000/svg" version="1.1" viewBox="0 0 64 64">
  <!-- Generator: Adobe Illustrator 29.3.1, SVG Export Plug-In . SVG Version: 2.1.0 Build 151)  -->
  <path d="M53,36.67999v-6.59003c2.67999-1.28998,4-3.46997,4-6.58997,0-4.48999-5.27002-8-12-8-2.51001,0-4.85999.51001-6.81,1.40997-1.82001-.90997-3.94-1.40997-6.19-1.40997-2.28998,0-4.44.51001-6.22998,1.40997-1.98999-.90997-4.30005-1.40997-6.77002-1.40997-6.72998,0-12,3.51001-12,8,0,3.12,1.32001,5.29999,4,6.58997v6.59003c-1.15997.41998-2,1.52002-2,2.82001s.84003,2.39996,2,2.82001v3.17999c0,1.64996,1.34998,3,3,3h36c1.65002,0,3-1.35004,3-3v-3.17999c1.15997-.42004,2-1.52002,2-2.82001s-.84003-2.40002-2-2.82001ZM9,23.5c0-3.25,4.58002-6,10-6,1.65002,0,3.27002.26001,4.71002.73999-.61005.51001-1.15002,1.07001-1.58002,1.70001-.31.45996-.19,1.07996.27012,1.39002.45665.29556,1.08632.19323,1.38986-.27002,1.47003-2.16003,4.69-3.56,8.21002-3.56,1.40997,0,2.78003.23999,4.02002.65997-.72003.54999-1.34003,1.16003-1.83002,1.83002-.32001.45001-.22003,1.08002.22998,1.40002.44.31995,1.07001.21997,1.39001-.22003,1.60999-2.22998,5.22003-3.66998,9.19-3.66998,5.41998,0,10,2.75,10,6,0,1.83997-.51001,3.84998-3.37,5.01996-.01001,0-.02002,0-.03003.01001-1.48999.59003-3.58997.97003-6.59998.97003h-26c-3.01001,0-5.10999-.38-6.59998-.97003-.01001-.01001-.02002-.01001-.03003-.01001-2.85999-1.16998-3.37-3.17999-3.37-5.01996ZM22,35.5c1.98999,0,3.76001-.56,5.02002-1.48999,1.28998.94,3.07996,1.48999,4.97998,1.48999,1.98999,0,3.76001-.56,5.02002-1.48999,1.28998.94,3.07996,1.48999,4.97998,1.48999,3.57001,0,6.42999-1.82001,6.91998-4.25.75-.10999,1.44-.25,2.08002-.42999v5.67999H13v-5.67999c.64001.17999,1.33002.32001,2.08002.42999.48999,2.42999,3.34998,4.25,6.91998,4.25ZM17.27002,31.45001c.56.02997,1.13.04999,1.72998.04999h7.67999c-.70001,1.14996-2.54999,2-4.67999,2-2.16998,0-4.04999-.89001-4.72998-2.04999ZM28.40002,32.54999c.20996-.33002.35999-.67999.45996-1.04999h7.82001c-.70001,1.14996-2.54999,2-4.67999,2-1.38,0-2.65997-.35004-3.59998-.95001ZM38.40002,32.54999c.20996-.33002.35999-.67999.45996-1.04999h6.14001c.59003,0,1.15997-.02002,1.71002-.04999-.69,1.17999-2.56,2.04999-4.71002,2.04999-1.38,0-2.65997-.35004-3.59998-.95001ZM51,45.5c0,.54999-.45001,1-1,1H14c-.54999,0-1-.45001-1-1v-3h38v3ZM52,40.5H12c-.54999,0-1-.45001-1-1s.45001-1,1-1h40c.54999,0,1,.45001,1,1s-.45001,1-1,1Z"/>
</svg>