<?xml version="1.0" encoding="UTF-8"?>
<svg id="Outline" xmlns="http://www.w3.org/2000/svg" version="1.1" viewBox="0 0 64 64">
  <!-- Generator: Adobe Illustrator 29.3.1, SVG Export Plug-In . SVG Version: 2.1.0 Build 151)  -->
  <circle cx="32" cy="13" r="1"/>
  <circle cx="28" cy="16" r="1"/>
  <circle cx="33" cy="17" r="1"/>
  <circle cx="22" cy="22" r="1"/>
  <circle cx="27" cy="23" r="1"/>
  <circle cx="40" cy="20" r="1"/>
  <circle cx="37" cy="23" r="1"/>
  <circle cx="43" cy="23" r="1"/>
  <path d="M57,31v-2c0-1.12-.62-2.09003-1.53998-2.60004L33.94,7.72998c-1.12-.97998-2.76001-.97998-3.88,0L8.53998,26.39996c-.91998.51001-1.53998,1.48004-1.53998,2.60004v2c0,1.31.84003,2.40997,2.01001,2.82001,0,.06-.01001.12-.01001.17999,0,.70996.14001,1.38.39001,1.98999-.07001.06-.15002.10999-.22003.17999-.82001.83002-1.23999,1.96002-1.15997,3.12.08002,1.17999.71997,2.20001,1.64001,2.87-.41003.52002-.65002,1.16003-.65002,1.84003,0,.76996.29999,1.46997.78003,2-.5.54999-.78003,1.25-.78003,2,0,.39001.08002.76996.21997,1.12-1.26996.33997-2.21997,1.5-2.21997,2.88v2c0,1.64996,1.34998,3,3,3h44c1.65002,0,3-1.35004,3-3v-2c0-1.38-.94-2.54004-2.21997-2.88.13995-.35004.21997-.72998.21997-1.12,0-.77002-.29999-1.47003-.78003-2,.5-.54999.78003-1.25.78003-2,0-.67999-.23999-1.29999-.62-1.81.15002-.11005.31-.22003.45001-.36005.75-.75995,1.16998-1.75995,1.16998-2.82996,0-1.19-.51001-2.28003-1.38-3.02002.23999-.60999.38-1.27997.38-1.97998,0-.06-.01001-.12-.01001-.17999,1.16998-.41003,2.01001-1.51001,2.01001-2.82001ZM31.37,9.23999c.35999-.32001.90002-.32001,1.26001,0l19.32001,16.76001H12.04999L31.37,9.23999ZM55,52v2c0,.54999-.45001,1-1,1H10c-.54999,0-1-.45001-1-1v-2c0-.54999.45001-1,1-1h11.17999c.41998,1.15997,1.52002,2,2.82001,2s2.40002-.84003,2.82001-2h27.17999c.54999,0,1,.45001,1,1ZM13.66998,39c.79999,0,1.58002-.23004,2.29004-.66003,1.40997.87,3.16998.87,4.57996,0,1.41003.87,3.17999.87,4.58002,0,1.41003.87,3.17999.87,4.59003,0,1.40997.87,3.16998.87,4.57996,0,1.41003.87,3.17999.87,4.59003,0,1.40002.87,3.16998.87,4.58002,0,1.40997.87,3.16998.87,4.57996,0,.71002.42999,1.49005.66003,2.29004.66003,1.21997,0,2.32001-.51001,3.14996-1.33002.32001.35999.52002.82001.52002,1.33002,0,.52997-.21002,1.02997-.59003,1.40997-.37994.38-.87994.59003-1.40997.59003h-16c-1.65002,0-3,1.34998-3,3v4c0,.54999-.45001,1-1,1s-1-.45001-1-1v-4c0-1.65002-1.34998-3-3-3s-3,1.34998-3,3v6c0,.54999-.45001,1-1,1s-1-.45001-1-1v-6c0-1.65002-1.34998-3-3-3h-7.83002c-1.12,0-2.08997-.83002-2.15997-1.85004-.04004-.54999.14996-1.07996.51001-1.47998.82996.82001,1.92999,1.33002,3.14996,1.33002ZM11,34h42c0,1.64996-1.20001,3-2.66998,3-.73004,0-1.29004-.35999-1.63-.65002-.19-.16998-.41998-.25-.66003-.25-.22998,0-.46997.08002-.65997.25-.34003.29004-.90002.65002-1.63.65002s-1.28998-.35999-1.63-.65002c-.38-.33002-.94-.33002-1.32001,0-.33997.29004-.89996.65002-1.63.65002-.72998,0-1.29999-.35999-1.63995-.65002-.37006-.33002-.94-.33002-1.31006,0-.33997.29004-.90997.65002-1.63995.65002-.73004,0-1.29004-.35999-1.63-.65002-.38-.33002-.94-.33002-1.32001,0-.34003.29004-.90002.65002-1.63.65002s-1.28998-.35999-1.63-.65002c-.38-.33002-.94-.33002-1.32001,0-.33997.29004-.89996.65002-1.63.65002-.72998,0-1.29999-.35999-1.63995-.65002-.37006-.33002-.94-.33002-1.31006,0-.33997.29004-.90997.65002-1.63995.65002-.73004,0-1.29004-.35999-1.63-.65002-.38-.33002-.94-.33002-1.32001,0-.34003.29004-.90002.65002-1.63.65002s-1.28998-.35999-1.63-.65002c-.38-.33002-.94-.33002-1.32001,0-.33997.29004-.89996.65002-1.63.65002-1.46997,0-2.66998-1.35004-2.66998-3ZM52.69,44.70996c-.17999.19-.41998.29004-.69.29004h-17v-1c0-.54999.45001-1,1-1h16c.54999,0,1,.45001,1,1,0,.26996-.09998.51001-.31.70996ZM53,48c0,.26996-.09998.51001-.31.70996-.17999.19-.41998.29004-.69.29004h-17.17999c.10999-.31.17999-.65002.17999-1v-1h17c.54999,0,1,.45001,1,1ZM29.17999,49h-2.17999v-5c0-.54999.45001-1,1-1s1,.45001,1,1v4c0,.34998.07001.69.17999,1ZM12,45c-.54999,0-1-.45001-1-1,0-.27002.09998-.51001.31-.71002.17999-.19.41998-.28998.69-.28998h8c.54999,0,1,.45001,1,1v1h-9ZM21,47v2h-9c-.54999,0-1-.45001-1-1,0-.27002.09998-.51001.31-.71002.17999-.19.41998-.28998.69-.28998h9ZM55,31c0,.54999-.45001,1-1,1H10c-.54999,0-1-.45001-1-1v-2c0-.54999.45001-1,1-1h44c.54999,0,1,.45001,1,1v2Z"/>
</svg>