<?xml version="1.0" encoding="UTF-8"?>
<svg id="Outline" xmlns="http://www.w3.org/2000/svg" version="1.1" viewBox="0 0 64 64">
  <!-- Generator: Adobe Illustrator 29.5.1, SVG Export Plug-In . SVG Version: 2.1.0 Build 141)  -->
  <path d="M33.248,40.396c-.881-1.431-2.448-2.396-4.248-2.396s-3.367.965-4.248,2.396c-2.813.958-4.752,3.6-4.752,6.604v2c0,.552.447,1,1,1h2c1.899,0,3.682-.761,4.995-2.102.325.067.661.102,1.005.102s.68-.035,1.005-.102c1.313,1.34,3.096,2.102,4.995,2.102h2c.553,0,1-.448,1-1v-2c0-3.004-1.939-5.647-4.752-6.604ZM23,48h-1v-1c0-1.602.777-3.058,2.002-3.983.006,1.626.802,3.06,2.013,3.969-.859.651-1.909,1.013-3.015,1.013ZM26,43c0-1.654,1.346-3,3-3s3,1.346,3,3-1.346,3-3,3-3-1.346-3-3ZM36,48h-1c-1.105,0-2.155-.363-3.015-1.013,1.211-.91,2.007-2.343,2.013-3.969,1.225.925,2.002,2.38,2.002,3.983v1Z"/>
  <path d="M24,35c0-2.206-1.794-4-4-4s-4,1.794-4,4,1.794,4,4,4,4-1.794,4-4ZM18,35c0-1.103.897-2,2-2s2,.897,2,2-.897,2-2,2-2-.897-2-2Z"/>
  <path d="M55.3,43.9c.43-.52.7-1.18.7-1.9,0-1.16-.67-2.16-1.63-2.66.41-1.14.63-2.36.63-3.58v-.76c0-.29-.12-.56-.34-.75-.21-.19-.5-.28-.78-.24l-3.91.49c-.45.05-.89.07-1.34.1.09-1.93-.06-3.87-.45-5.8.62-.19,1.18-.51,1.65-.97.75-.76,1.17-1.76,1.17-2.83,0-2.21-1.79-4-4-4h-2.78l.53-2.66c.09-.42.36-.78.75-.97.34-.18.75-.2,1.12-.04l1.39.55c0,.04-.01.08-.01.12,0,1.65,1.35,3,3,3s3-1.35,3-3-1.35-3-3-3c-.25,0-.49.04-.72.1-3.83-5.08-9.82-8.1-16.21-8.1h-3.51c-8.76,0-16.57,5.72-19.28,14h-.28c-1.07,0-2.07.42-2.83,1.17-.75.76-1.17,1.76-1.17,2.83,0,1.79,1.19,3.3,2.82,3.8-2.36,11.56,4.07,23,15.32,26.91l3.53,1.23c.11.04.22.06.33.06s.22-.02.33-.06l3.53-1.23c2.36-.82,4.54-2.01,6.52-3.51,1.02,3.04,4.08,4.8,8.62,4.8,5.64,0,9-2.7,9-7.22,0-1.94-.61-4.04-1.7-5.88ZM50.07,17.64l.01-.01v-.03c.16-.35.51-.6.92-.6.55,0,1,.45,1,1s-.45,1-1,1-1-.45-1-1c0-.13.03-.25.07-.36ZM54,42c0,.55-.45,1-1,1h-10c-.55,0-1-.45-1-1s.45-1,1-1h10c.55,0,1,.45,1,1ZM50.21,36.48l2.78-.35c-.04.99-.27,1.96-.64,2.87h-8.63l-.14-.42c-.25-.76-.42-1.53-.51-2.32,1.44.27,2.9.39,4.36.38.02.01.03.01.04.02h.1c.04,0,.07-.02.1-.02.85-.01,1.7-.05,2.54-.16ZM30.56,9h3.51c5.57,0,10.82,2.55,14.27,6.86l-.96-.38c-.86-.37-1.93-.33-2.79.11-.93.46-1.59,1.32-1.8,2.35l-.61,3.06H13.38c2.63-7.13,9.5-12,17.18-12ZM39,49.78c0,.05.01.1.01.16-2.02,1.69-4.3,3.01-6.81,3.89l-3.2,1.11-3.2-1.11c-10.36-3.61-16.25-14.18-13.98-24.83h5.18c.55,0,1-.45,1-1s-.45-1-1-1h-6c-1.1,0-2-.9-2-2,0-1.085.917-2,2-2h36c1.1,0,2,.9,2,2,0,1.085-.915,2-2,2h-22c-.55,0-1,.45-1,1s.45,1,1,1h21.18c.4,1.87.55,3.76.45,5.63-1.48-.05-2.94-.24-4.39-.6-.12-.03-.25-.02-.37-.01-.44-1.73-2-3.02-3.87-3.02-2.21,0-4,1.79-4,4s1.79,4,4,4c1.32,0,2.49-.65,3.22-1.65.11.63.26,1.25.46,1.86l.03.09c-1.01.49-1.71,1.51-1.71,2.7,0,.72.27,1.38.7,1.9-1.09,1.84-1.7,3.94-1.7,5.88ZM40,35c0,1.1-.9,2-2,2s-2-.9-2-2,.9-2,2-2,2,.9,2,2ZM48,55c-2.61,0-7-.68-7-5.22,0-1.55.52-3.32,1.4-4.84.2.04.4.06.6.06h10c.2,0,.4-.02.6-.06.88,1.52,1.4,3.29,1.4,4.84,0,4.54-4.39,5.22-7,5.22Z"/>
  <circle cx="21" cy="28" r="1"/>
</svg>