<?xml version="1.0" encoding="UTF-8"?>
<svg id="Outline" xmlns="http://www.w3.org/2000/svg" version="1.1" viewBox="0 0 64 64">
  <!-- Generator: Adobe Illustrator 29.3.1, SVG Export Plug-In . SVG Version: 2.1.0 Build 151)  -->
  <path d="M23.5,39c2.20557,0,4-1.79443,4-4s-1.79443-4-4-4-4,1.79443-4,4,1.79443,4,4,4ZM23.5,33c1.10303,0,2,.89697,2,2s-.89697,2-2,2-2-.89697-2-2,.89697-2,2-2Z"/>
  <path d="M37.5,39c2.20557,0,4-1.79443,4-4s-1.79443-4-4-4-4,1.79443-4,4,1.79443,4,4,4ZM37.5,33c1.10303,0,2,.89697,2,2s-.89697,2-2,2-2-.89697-2-2,.89697-2,2-2Z"/>
  <path d="M52.5,15c-.25,0-.48999.03998-.71997.09998-3.83002-5.08002-9.82001-8.09998-16.21002-8.09998h-3.51001c-8.76001,0-16.57001,5.71997-19.27997,14h-.28003c-2.21002,0-4,1.78998-4,4,0,1.78998,1.19,3.28998,2.82001,3.79999-2.35999,11.56,4.07001,23,15.32001,26.91998l3.52997,1.22003c.11005.03998.22003.06.33002.06s.21997-.02002.33002-.06l3.52997-1.22003c11.25-3.91998,17.67999-15.35999,15.32001-26.91998,1.63-.51001,2.82001-2.01001,2.82001-3.79999,0-2.21002-1.78998-4-4-4h-2.78003l.53003-2.66003c.09003-.41998.35999-.77997.75-.96997.34003-.17999.73999-.20001,1.12-.04004l1.39001.55005c0,.03998-.01001.07996-.01001.12,0,1.64996,1.34998,3,3,3s3-1.35004,3-3-1.34998-3-3-3ZM33.70001,53.82996l-3.20001,1.11005-3.20001-1.11005c-10.35999-3.60999-16.25-14.18994-13.97998-24.82996h2.17999v2c0,.54999.45001,1,1,1s1-.45001,1-1v-2h26v11c0,.54999-.45001,1-1,1h-5.12c-.72998-.72003-1.63-1.26001-2.63-1.60004-.88-1.44-2.45001-2.39996-4.25-2.39996s-3.37.95996-4.25,2.39996c-1,.34003-1.90002.88-2.63,1.60004h-5.12c-.54999,0-1-.45001-1-1v-1c0-.54999-.45001-1-1-1s-1,.45001-1,1v1c0,1.64996,1.34998,3,3,3h3.70001c-.44.91998-.70001,1.92999-.70001,3v2c0,.54999.45001,1,1,1h2c1.90002,0,3.67999-.76001,5-2.10004.32001.06.65997.10004,1,.10004s.67999-.04004,1-.10004c1.32001,1.34003,3.09998,2.10004,5,2.10004h2c.54999,0,1-.45001,1-1v-2c0-1.07001-.26001-2.08002-.70001-3h3.70001c1.65002,0,3-1.35004,3-3v-11h2.17999c2.27002,10.64001-3.62,21.21997-13.97998,24.82996ZM27.5,42c0-1.65002,1.34998-3,3-3s3,1.34998,3,3-1.34998,3-3,3-3-1.35004-3-3ZM27.51001,45.98999c-.85999.65002-1.91003,1.01001-3.01001,1.01001h-1v-1c0-1.60004.78003-3.06,2-3.98004.01001,1.62006.79999,3.06,2.01001,3.97003ZM35.5,42.01996c1.21997.92004,2,2.38,2,3.98004v1h-1c-1.09998,0-2.15002-.35999-3.01001-1.01001,1.21002-.91003,2-2.34998,2.01001-3.97003ZM48.5,23c1.09998,0,2,.89996,2,2,0,1.09998-.90002,2-2,2H12.5c-1.09998,0-2-.90002-2-2,0-1.10004.90002-2,2-2h36ZM48.88,15.47998c-.85999-.37-1.94-.33002-2.78998.10999-.93005.46002-1.59003,1.32001-1.80005,2.35004l-.60999,3.06H14.88c2.63-7.13,9.5-12,17.17999-12h3.51001c5.57001,0,10.82001,2.54999,14.27997,6.85999l-.96997-.38ZM52.5,19c-.54999,0-1-.45001-1-1.00012.00008-.54405.45513-.99988,1-.99988.54999,0,1,.45001,1,1s-.45001,1-1,1Z"/>
  <circle cx="16.5" cy="35" r="1"/>
</svg>