<?xml version="1.0" encoding="UTF-8"?>
<svg id="Outline" xmlns="http://www.w3.org/2000/svg" version="1.1" viewBox="0 0 64 64">
  <!-- Generator: Adobe Illustrator 29.5.1, SVG Export Plug-In . SVG Version: 2.1.0 Build 141)  -->
  <path d="M41.429,34.028c-2.075-.469-4.203-.761-6.358-.905-.554-.037-1.03.375-1.069.926s.375,1.029.926,1.068c1.354.097,2.701.272,4.028.512l-1.701,1.7c-1.795,1.795-4.062,2.983-6.557,3.437l-.278.051c-4.441.808-8.297,3.7-10.315,7.736-.023.045-.023.093-.038.14-3.5-.242-6.484-.666-8.5-1.397,1.854-2.896,4.786-4.888,8.208-5.512l.284-.051c2.898-.53,5.529-1.908,7.607-3.986l2.71-2.71c.206-.007.409-.018.623-.018.552,0,1-.447,1-1s-.448-1-1-1c-.379,0-.749.012-1.101.031-12.685.65-22.899,7.068-22.899,11.949,0,1.054.463,2.544,2.665,3.66,3.801,1.942,11.678,2.34,22.335,2.34,16.214,0,25-.956,25-6,0-2.791-2.734-5.024-4.827-6.433-3.306-2.226-6.938-3.68-10.744-4.539ZM30.777,42.784l.278-.051c2.898-.526,5.532-1.906,7.615-3.99l2.617-2.616c2.531.617,4.817,1.451,6.765,2.392-1.758,1.682-3.945,2.807-6.347,3.246l-.285.051c-4.232.775-7.911,3.448-9.995,7.182-3.163-.004-6.293-.043-9.169-.178,1.811-3.142,4.937-5.385,8.522-6.037ZM27.296,35.29l-1.043,1.043c-1.79,1.789-4.056,2.977-6.548,3.433l-.284.051c-4.04.736-7.486,3.115-9.633,6.564-.775-.615-.788-1.169-.788-1.38,0-3.222,7.688-8.439,18.296-9.71ZM33.763,48.998c1.858-2.705,4.748-4.616,8.013-5.214l.284-.051c2.898-.53,5.529-1.908,7.607-3.986l.244-.244c3.186,1.862,5.089,3.946,5.089,5.496,0,3.707-13.341,3.978-21.237,3.998Z"/>
  <path d="M50.239,17.352c-.542-.283-1.066-.54-1.549-.771-4.884-2.334-10.336-3.448-15.731-3.57-.32-.007-.639-.011-.959-.011-13.46,0-25,6.6-25,12,0,4.79,8.64,5.67,17.97,5.92.53-.02,1.01-.42,1.03-.97.01-.56-.42-1.02-.97-1.03-.71-.02-1.67-.04-2.78-.09,1.81-3.15,4.94-5.39,8.53-6.05l.28-.05c2.89-.52,5.53-1.9,7.61-3.99l2.63-2.62c2.41.58,4.69,1.4,6.75,2.4-1.76,1.68-3.94,2.81-6.35,3.25l-.28.05c-4.23.77-7.91,3.44-9.99,7.18-.82,0-1.63,0-2.43-.01-.55,0-.99.44-1,.99s.44,1,.99,1.01c.98.01,1.99.01,3.01.01,16.21,0,25-.96,25-6,0-3.545-3.671-6.032-6.761-7.648ZM9,25c0-3.01,7.49-8.44,18.31-9.72l-1.06,1.05c-1.79,1.79-4.05,2.98-6.55,3.44l-.28.05c-4.04.73-7.49,3.12-9.64,6.57-.49-.39-.78-.85-.78-1.39ZM37.26,17.33c-1.8,1.79-4.07,2.98-6.56,3.44l-.28.05c-4.44.8-8.3,3.7-10.31,7.73-.03.05-.03.1-.05.15-2.93-.19-6.27-.59-8.5-1.39,1.85-2.9,4.79-4.9,8.22-5.53l.28-.05c2.9-.53,5.53-1.9,7.61-3.98l2.71-2.71c.53-.02,1.07-.04,1.62-.04,2.33,0,4.68.22,6.96.62l-1.7,1.71ZM33.76,29c1.86-2.71,4.75-4.62,8.02-5.22l.28-.05c2.9-.53,5.53-1.9,7.61-3.98l.24-.25c3.11,1.84,5.09,3.95,5.09,5.5,0,3.71-13.34,3.98-21.24,4Z"/>
</svg>