<?xml version="1.0" encoding="UTF-8"?>
<svg id="Outline" xmlns="http://www.w3.org/2000/svg" version="1.1" viewBox="0 0 64 64">
  <!-- Generator: Adobe Illustrator 29.5.1, SVG Export Plug-In . SVG Version: 2.1.0 Build 141)  -->
  <path d="M32,7c-13.785,0-25,11.215-25,25s11.215,25,25,25,25-11.215,25-25S45.785,7,32,7ZM32,55c-12.682,0-23-10.317-23-23s10.318-23,23-23,23,10.317,23,23-10.318,23-23,23Z"/>
  <path d="M32,11c-11.58,0-21,9.421-21,21s9.42,21,21,21,21-9.421,21-21-9.42-21-21-21ZM32,51c-10.477,0-19-8.523-19-19s8.523-19,19-19,19,8.523,19,19-8.523,19-19,19Z"/>
  <path d="M27,17c-6.065,0-11,7.001-11,15.605,0,6.149,2.544,11.738,6.482,14.238.304.195.688.208,1.006.039.318-.17.52-.497.529-.856.193-7.352,2.066-11.365,2.987-11.377.913.012,2.786,4.025,2.978,11.377.014.536.467.974,1,.974.187,0,.373-.052.536-.156,3.938-2.5,6.482-8.089,6.482-14.238,0-8.604-4.935-15.605-11-15.605ZM27,28c-.408,0-1-.779-1-2s.592-2,1-2,1,.779,1,2-.592,2-1,2ZM22.113,44.004c-2.541-2.489-4.113-6.743-4.113-11.398,0-6.99,3.507-12.761,8-13.516v3.148c-1.173.54-2,1.992-2,3.763s.827,3.223,2,3.763v3.123c-2.254,1.102-3.524,5.919-3.887,11.118ZM31.887,44.004c-.363-5.2-1.633-10.016-3.887-11.118v-3.123c1.173-.54,2-1.992,2-3.763s-.827-3.223-2-3.763v-3.148c4.493.755,8,6.526,8,13.516,0,4.655-1.572,8.909-4.113,11.398Z"/>
  <path d="M49,32c0-1.258-.595-2.368-1.505-3.101.316-.579.505-1.225.505-1.899,0-1.495-.834-2.786-2.052-3.472.024-.176.052-.352.052-.528,0-2.206-1.794-4-4-4s-4,1.794-4,4c0,1.47.814,2.781,2.053,3.474-.023.174-.053.346-.053.526,0,1.229.572,2.366,1.496,3.111-.306.565-.496,1.202-.496,1.889,0,.673.189,1.32.505,1.899-.91.734-1.505,1.844-1.505,3.101,0,.176.028.352.052.528-1.218.686-2.052,1.977-2.052,3.472,0,2.206,1.794,4,4,4s4-1.794,4-4c0-.18-.03-.352-.053-.526,1.24-.692,2.053-2.004,2.053-3.474,0-.687-.19-1.324-.496-1.889.924-.744,1.496-1.881,1.496-3.111ZM45.681,28.069c-.222-.039-.448-.069-.681-.069-.786,0-1.514.236-2.133.629-.528-.365-.867-.965-.867-1.629,0-1.103.897-2,2-2s2,.897,2,2c0,.39-.115.755-.319,1.069ZM40,23c0-1.103.897-2,2-2s2,.897,2,2c-1.303,0-2.451.635-3.182,1.603-.5-.367-.818-.954-.818-1.603ZM43,32c0-1.103.897-2,2-2s2,.897,2,2c0,.663-.339,1.263-.867,1.629-.619-.393-1.347-.629-2.133-.629-.233,0-.459.03-.681.069-.204-.314-.319-.679-.319-1.069ZM42,43c-1.103,0-2-.897-2-2s.897-2,2-2,2,.897,2,2-.897,2-2,2ZM45.182,38.603c-.731-.967-1.879-1.603-3.182-1.603,0-1.103.897-2,2-2s2,.897,2,2c0,.649-.318,1.236-.818,1.603Z"/>
</svg>