<?xml version="1.0" encoding="UTF-8"?>
<svg id="Outline" xmlns="http://www.w3.org/2000/svg" version="1.1" viewBox="0 0 64 64">
  <!-- Generator: Adobe Illustrator 29.5.1, SVG Export Plug-In . SVG Version: 2.1.0 Build 141)  -->
  <path d="M26.416,20.641l-.607,5.226c-.042.358.113.712.405.924.293.213.677.25,1.005.101l4.781-2.192,4.781,2.192c.133.061.275.091.417.091.592,0,1.062-.525.993-1.115l-.607-5.226,3.563-3.87c.245-.267.327-.644.216-.986-.111-.344-.4-.601-.754-.672l-5.158-1.036-2.58-4.585c-.354-.631-1.389-.631-1.742,0l-2.58,4.585-5.158,1.036c-.354.071-.643.328-.754.672-.111.343-.029.72.216.986l3.563,3.87ZM29.393,15.947c.285-.058.531-.236.674-.49l1.934-3.436,1.934,3.436c.143.254.389.433.674.49l3.865.776-2.67,2.9c-.197.215-.292.504-.258.793l.455,3.916-3.583-1.644c-.133-.061-.274-.091-.417-.091s-.284.03-.417.091l-3.583,1.644.455-3.916c.034-.289-.061-.578-.258-.793l-2.67-2.9,3.865-.776Z"/>
  <path d="M40.328,20.021c-.111.343-.029.72.216.986l3.079,3.344-.525,4.516c-.042.358.113.712.405.924.292.214.677.25,1.005.101l4.132-1.895,4.132,1.895c.133.061.275.091.417.091.592,0,1.062-.525.993-1.115l-.525-4.516,3.079-3.344c.245-.267.327-.644.216-.986-.111-.344-.4-.601-.754-.672l-4.457-.896-2.229-3.962c-.354-.631-1.389-.631-1.742,0l-2.229,3.962-4.457.896c-.354.071-.643.328-.754.672ZM46.383,20.323c.285-.058.531-.236.674-.49l1.583-2.812,1.583,2.812c.143.254.389.433.674.49l3.164.636-2.186,2.374c-.197.215-.292.504-.258.793l.373,3.206-2.934-1.346c-.133-.061-.274-.091-.417-.091s-.284.03-.417.091l-2.934,1.346.373-3.206c.034-.289-.061-.578-.258-.793l-2.186-2.374,3.164-.636Z"/>
  <path d="M10.344,24.351l-.525,4.516c-.042.358.113.712.405.924.293.214.677.25,1.005.101l4.132-1.895,4.132,1.895c.133.06.275.091.416.091.587,0,1.062-.535.994-1.115l-.525-4.516,3.079-3.344c.245-.267.327-.644.216-.986-.111-.344-.4-.601-.754-.672l-4.457-.896-2.229-3.962c-.354-.631-1.389-.631-1.742,0l-2.229,3.962-4.457.896c-.354.071-.643.328-.754.672-.111.343-.029.72.216.986l3.079,3.344ZM13.104,20.323c.285-.058.531-.236.674-.49l1.583-2.812,1.583,2.812c.143.254.389.433.674.49l3.164.636-2.186,2.374c-.197.215-.292.504-.258.793l.373,3.206-2.934-1.346c-.133-.061-.274-.091-.417-.091s-.284.03-.417.091l-2.934,1.346.373-3.206c.034-.289-.061-.578-.258-.793l-2.186-2.374,3.164-.636Z"/>
  <path d="M50.76,37.481c-.364-.415-.998-.454-1.411-.089-.414.365-.454.997-.089,1.411,3.48,3.946,5.49,8.947,5.719,14.179h-4.029c-.235-4.484-2.024-8.553-4.847-11.688l.748-.748c.391-.391.391-1.023,0-1.414s-1.023-.391-1.414,0l-.748.748c-3.135-2.824-7.204-4.612-11.688-4.847v-1.051c0-.553-.447-1-1-1s-1,.447-1,1v1.051c-4.484.235-8.553,2.024-11.688,4.847l-.748-.748c-.391-.391-1.023-.391-1.414,0s-.391,1.023,0,1.414l.748.748c-2.824,3.135-4.612,7.204-4.847,11.688h-4.029c.525-12.22,10.632-22,22.979-22,5.264,0,10.413,1.831,14.499,5.155.43.351,1.06.284,1.406-.145.349-.428.284-1.058-.145-1.406-4.441-3.614-10.039-5.604-15.761-5.604-13.785,0-25,11.215-25,25,0,.553.447,1,1,1h33c.553,0,1-.447,1-1s-.447-1-1-1h-4.101c-.229-1.121-.848-2.09-1.691-2.803l-2.231-10.407c-.099-.461-.506-.79-.978-.79s-.879.329-.978.79l-2.231,10.407c-.843.712-1.462,1.682-1.691,2.803h-12.05c.522-8.908,7.913-16,16.949-16s16.427,7.092,16.949,16h-3.949c-.553,0-1,.447-1,1s.447,1,1,1h11c.553,0,1-.447,1-1,0-6.079-2.216-11.938-6.24-16.501ZM32,44.753l.926,4.322c-.301-.057-.609-.094-.926-.094s-.625.037-.926.094l.926-4.322ZM32,50.982c1.302,0,2.402.839,2.816,2h-5.631c.414-1.161,1.514-2,2.816-2Z"/>
</svg>