<?xml version="1.0" encoding="UTF-8"?>
<svg id="Outline" xmlns="http://www.w3.org/2000/svg" version="1.1" viewBox="0 0 64 64">
  <!-- Generator: Adobe Illustrator 29.5.1, SVG Export Plug-In . SVG Version: 2.1.0 Build 141)  -->
  <path d="M56.803,45.404c-.189-.254-.486-.403-.803-.403h-8.833c3.088-3.602,4.833-8.218,4.833-13,0-3.163-.758-6.146-2.071-8.808,2.591-2.019,4.225-4.989,4.5-8.297l.567-6.812c.025-.304-.089-.602-.311-.811-.221-.208-.526-.306-.827-.263l-9.534,1.362c-2.705.387-4.897,2.242-5.757,4.758-2.061-.719-4.264-1.13-6.567-1.13s-4.507.411-6.567,1.13c-.86-2.517-3.052-4.371-5.757-4.758l-9.534-1.362c-.301-.044-.605.055-.827.263-.222.209-.336.507-.311.811l.567,6.812c.275,3.307,1.909,6.277,4.5,8.297-1.313,2.662-2.071,5.644-2.071,8.808,0,4.782,1.745,9.398,4.833,13h-8.833c-.316,0-.613.149-.803.403-.188.253-.246.581-.155.884l3,10c.127.423.517.713.958.713h42c.441,0,.831-.29.958-.713l3-10c.091-.303.033-.631-.155-.884ZM44.607,10.353l8.292-1.186-.463,5.562c-.221,2.642-1.478,5.031-3.488,6.702-2.046-3.269-5.003-5.9-8.521-7.544.594-1.867,2.193-3.252,4.18-3.535ZM11.563,14.73l-.463-5.562,8.292,1.186c1.987.284,3.586,1.668,4.18,3.535-3.518,1.644-6.475,4.275-8.521,7.544-2.01-1.671-3.267-4.06-3.488-6.702ZM14,32c0-9.925,8.075-18,18-18s18,8.075,18,18c0,4.904-2.04,9.614-5.586,13h-24.827c-3.547-3.386-5.586-8.096-5.586-13ZM52.256,55H11.744l-2.4-8h45.312l-2.4,8Z"/>
  <path d="M21.293,26.707c.388.388,1.027.387,1.414,0l2.293-2.293s2.293,2.293,2.293,2.293c.387.387,1.027.387,1.414,0,.391-.391.391-1.023,0-1.414l-2.293-2.293,2.293-2.293c.391-.391.391-1.023,0-1.414s-1.023-.391-1.414,0l-2.293,2.293-2.293-2.293c-.391-.391-1.023-.391-1.414,0s-.391,1.023,0,1.414l2.293,2.293-2.293,2.293c-.391.391-.391,1.023,0,1.414Z"/>
  <path d="M40.414,23l2.293-2.293c.391-.391.391-1.023,0-1.414s-1.023-.391-1.414,0l-2.293,2.293-2.293-2.293c-.391-.391-1.023-.391-1.414,0s-.391,1.023,0,1.414l2.293,2.293-2.293,2.293c-.391.391-.391,1.023,0,1.414.358.358,1.027.388,1.414,0l2.293-2.293s2.293,2.293,2.293,2.293c.388.388,1.028.387,1.414,0,.391-.391.391-1.023,0-1.414l-2.293-2.293Z"/>
  <path d="M28,33c-1.654,0-3,1.346-3,3s1.346,3,3,3,3-1.346,3-3-1.346-3-3-3ZM28,37c-.552,0-1-.448-1-1s.448-1,1-1,1,.448,1,1-.448,1-1,1Z"/>
  <path d="M36,33c-1.654,0-3,1.346-3,3s1.346,3,3,3,3-1.346,3-3-1.346-3-3-3ZM36,37c-.552,0-1-.448-1-1s.448-1,1-1,1,.448,1,1-.448,1-1,1Z"/>
  <path d="M32,28c-6.065,0-11,3.589-11,8s4.935,8,11,8,11-3.589,11-8-4.935-8-11-8ZM32,42c-4.963,0-9-2.691-9-6s4.037-6,9-6,9,2.691,9,6-4.037,6-9,6Z"/>
</svg>