<?xml version="1.0" encoding="UTF-8"?>
<svg id="Outline" xmlns="http://www.w3.org/2000/svg" version="1.1" viewBox="0 0 64 64">
  <!-- Generator: Adobe Illustrator 29.5.1, SVG Export Plug-In . SVG Version: 2.1.0 Build 141)  -->
  <path d="M43.055,40.829c0-4.411-4.935-8-11-8s-11,3.589-11,8,4.935,8,11,8,11-3.589,11-8ZM32.055,46.829c-4.962,0-9-2.691-9-6s4.038-6,9-6,9,2.691,9,6-4.038,6-9,6Z"/>
  <path d="M28.055,37.829c-1.654,0-3,1.346-3,3s1.346,3,3,3,3-1.346,3-3-1.346-3-3-3ZM28.055,41.829c-.551,0-1-.449-1-1s.449-1,1-1,1,.449,1,1-.449,1-1,1Z"/>
  <path d="M36.055,37.829c-1.654,0-3,1.346-3,3s1.346,3,3,3,3-1.346,3-3-1.346-3-3-3ZM36.055,41.829c-.551,0-1-.449-1-1s.449-1,1-1,1,.449,1,1-.449,1-1,1Z"/>
  <path d="M20.348,30.122c-.391.391-.391,1.024,0,1.414.391.391,1.024.391,1.414,0,.691-.691,1.895-.691,2.586,0,.195.195.451.293.707.293.874,0,1.324-1.089.707-1.707-1.445-1.446-3.969-1.446-5.414,0Z"/>
  <path d="M38.348,30.122c-.391.391-.391,1.024,0,1.414.391.391,1.024.391,1.414,0,.691-.691,1.895-.691,2.586,0,.195.195.451.293.707.293.873,0,1.325-1.089.707-1.707-1.445-1.446-3.969-1.446-5.414,0Z"/>
  <path d="M51.921,39.034c-.532-.143-1.082.176-1.223.709-1.587,5.973-8.461,10.57-16.717,11.18-.551.041-.964.52-.923,1.071.039.526.477.926.996.926.024,0,.05,0,.075-.003,2.086-.154,4.087-.557,5.964-1.152l.986,4.451c.102.458.508.784.977.784h4c.552,0,1-.448,1-1v-7.817c2.77-2.144,4.765-4.873,5.576-7.926.142-.534-.176-1.082-.709-1.223ZM45.055,55h-2.197l-.867-3.915c1.081-.444,2.104-.96,3.064-1.536v5.451Z"/>
  <path d="M30.129,50.923c-4.444-.33-8.377-1.758-11.352-3.888-.052-.055-.117-.092-.181-.134-3.434-2.525-5.541-5.999-5.541-9.832,0-6.079,13.341-13.412,19-15.975,5.233,2.372,17.729,9.176,18.909,15.1.108.542.632.892,1.176.786.542-.108.894-.635.786-1.176-.358-1.798-1.48-3.582-3.022-5.277,2.658-3.386,3.438-7.829,2.075-11.919l-1.975-5.925c-.115-.344-.407-.599-.763-.666-.36-.067-.722.063-.954.342l-.125.149c-1.787,2.144-3.879,4.031-6.178,5.616.042-.373.07-.747.07-1.125,0-5.514-4.486-10-10-10s-10,4.486-10,10c0,.378.028.753.07,1.125-2.299-1.586-4.391-3.472-6.178-5.616l-.125-.149c-.232-.279-.597-.409-.954-.342s-.648.322-.763.666l-1.975,5.925c-1.364,4.093-.582,8.542,2.082,11.929-1.897,2.088-3.158,4.31-3.158,6.532,0,4.343,2.278,8.279,6,11.157v7.773c0,.552.448,1,1,1h4c.469,0,.875-.326.977-.784l.98-4.427c1.863.58,3.863.972,5.969,1.128.025.002.05.003.075.003.519,0,.958-.4.996-.926.041-.551-.373-1.031-.923-1.071ZM48.659,14.976l1.422,4.266c1.123,3.368.512,7.017-1.605,9.846-2.848-2.655-6.552-5.022-9.684-6.788,3.709-1.795,7.079-4.292,9.868-7.324ZM24.055,17c0-4.411,3.589-8,8-8s8,3.589,8,8c0,.895-.157,1.772-.451,2.618-.955.538-1.935,1.031-2.943,1.463l.033.078c-2.321-1.221-4.013-1.976-4.236-2.074-.257-.113-.55-.113-.807,0-.233.103-1.922.856-4.237,2.076l.034-.079c-1.008-.432-1.988-.926-2.943-1.463-.294-.846-.451-1.723-.451-2.618ZM14.028,19.242l1.422-4.266c2.79,3.034,6.161,5.531,9.872,7.326-3.131,1.766-6.833,4.133-9.683,6.794-2.122-2.83-2.735-6.483-1.611-9.854ZM21.252,55h-2.197v-5.403c.954.568,1.978,1.072,3.059,1.51l-.862,3.893Z"/>
</svg>