<?xml version="1.0" encoding="UTF-8"?>
<svg id="Outline" xmlns="http://www.w3.org/2000/svg" version="1.1" viewBox="0 0 64 64">
  <!-- Generator: Adobe Illustrator 29.3.1, SVG Export Plug-In . SVG Version: 2.1.0 Build 151)  -->
  <path d="M22,48c-1.6543,0-3,1.3457-3,3s1.3457,3,3,3,3-1.3457,3-3-1.3457-3-3-3ZM22,52c-.55127,0-1-.44873-1-1s.44873-1,1-1,1,.44873,1,1-.44873,1-1,1Z"/>
  <circle cx="48" cy="22" r="1"/>
  <circle cx="48" cy="34" r="1"/>
  <path d="M40,23c-.55225,0-1,.44775-1,1v2c0,.55225.44775,1,1,1s1-.44775,1-1v-2c0-.55225-.44775-1-1-1Z"/>
  <path d="M52,23c-.55225,0-1,.44775-1,1v1h-1c-.55225,0-1,.44775-1,1s.44775,1,1,1h2c.55225,0,1-.44775,1-1v-2c0-.55225-.44775-1-1-1Z"/>
  <path d="M52,17h-8c-.55225,0-1,.44775-1,1v8c0,.55225.44775,1,1,1h2c.55225,0,1-.44775,1-1s-.44775-1-1-1h-1v-6h6v1c0,.55225.44775,1,1,1s1-.44775,1-1v-2c0-.55225-.44775-1-1-1Z"/>
  <path d="M48,37h-3v-6h1c.55225,0,1-.44775,1-1s-.44775-1-1-1h-2c-.55225,0-1,.44775-1,1v8c0,.55225.44775,1,1,1h4c.55225,0,1-.44775,1-1s-.44775-1-1-1Z"/>
  <path d="M52,35c-.55225,0-1,.44775-1,1v2c0,.55225.44775,1,1,1s1-.44775,1-1v-2c0-.55225-.44775-1-1-1Z"/>
  <path d="M52,29h-2c-.55225,0-1,.44775-1,1s.44775,1,1,1h1v1c0,.55225.44775,1,1,1s1-.44775,1-1v-2c0-.55225-.44775-1-1-1Z"/>
  <path d="M40,35c-.55225,0-1,.44775-1,1v2c0,.55225.44775,1,1,1s1-.44775,1-1v-2c0-.55225-.44775-1-1-1Z"/>
  <path d="M54,13h-17v-2c0-2.20557-1.79443-4-4-4H11c-2.20557,0-4,1.79443-4,4v42c0,2.20557,1.79443,4,4,4h22c2.20557,0,4-1.79443,4-4v-10h17c1.6543,0,3-1.3457,3-3v-24c0-1.6543-1.3457-3-3-3ZM9,13h7.58594l1.70703,1.70703c.1875.1875.44189.29297.70703.29297h6c.26514,0,.51953-.10547.70703-.29297l1.70703-1.70703h7.58594v32H9V13ZM11,9h22c1.10303,0,2,.89697,2,2h-8c-.26514,0-.51953.10547-.70703.29297l-1.70703,1.70703h-5.17188l-1.70703-1.70703c-.1875-.1875-.44189-.29297-.70703-.29297h-8c0-1.10303.89697-2,2-2ZM33,55H11c-1.10303,0-2-.89697-2-2v-6h26v6c0,1.10303-.89697,2-2,2ZM55,40c0,.55127-.44873,1-1,1h-17v-10h2v1c0,.55225.44775,1,1,1s1-.44775,1-1v-2c0-.55225-.44775-1-1-1h-3v-10h2v1c0,.55225.44775,1,1,1s1-.44775,1-1v-2c0-.55225-.44775-1-1-1h-3v-2h17c.55127,0,1,.44873,1,1v24Z"/>
  <path d="M22,31c-1.10303,0-2-.89697-2-2,0-.55225-.44775-1-1-1s-1,.44775-1,1c0,1.85828,1.27972,3.41071,3,3.85797v.14203c0,.55225.44775,1,1,1s1-.44775,1-1v-.14203c1.72028-.44727,3-1.99969,3-3.85797,0-2.20557-1.79443-4-4-4-1.10303,0-2-.89697-2-2s.89697-2,2-2,2,.89697,2,2c0,.55225.44775,1,1,1s1-.44775,1-1c0-1.85828-1.27972-3.41071-3-3.85797v-.14203c0-.55225-.44775-1-1-1s-1,.44775-1,1v.14203c-1.72028.44727-3,1.99969-3,3.85797,0,2.20557,1.79443,4,4,4,1.10303,0,2,.89697,2,2s-.89697,2-2,2Z"/>
  <path d="M25,37h-6c-1.6543,0-3,1.3457-3,3s1.3457,3,3,3h6c1.6543,0,3-1.3457,3-3s-1.3457-3-3-3ZM25,41h-6c-.55127,0-1-.44873-1-1s.44873-1,1-1h6c.55127,0,1,.44873,1,1s-.44873,1-1,1Z"/>
  <path d="M43,49c1.6543,0,3-1.3457,3-3,0-.55225-.44775-1-1-1s-1,.44775-1,1c0,.55127-.44873,1-1,1-.55225,0-1,.44775-1,1s.44775,1,1,1Z"/>
  <path d="M43,53c3.85986,0,7-3.14014,7-7,0-.55225-.44775-1-1-1s-1,.44775-1,1c0,2.75684-2.24316,5-5,5-.55225,0-1,.44775-1,1s.44775,1,1,1Z"/>
  <path d="M53,45c-.55225,0-1,.44775-1,1,0,4.9624-4.0376,9-9,9-.55225,0-1,.44775-1,1s.44775,1,1,1c6.06543,0,11-4.93457,11-11,0-.55225-.44775-1-1-1Z"/>
</svg>