<?xml version="1.0" encoding="UTF-8"?>
<svg id="Outline" xmlns="http://www.w3.org/2000/svg" version="1.1" viewBox="0 0 64 64">
  <!-- Generator: Adobe Illustrator 29.5.1, SVG Export Plug-In . SVG Version: 2.1.0 Build 141)  -->
  <path d="M41,20.994c0-4.68-7.42-12.77-8.27-13.68-.38-.41-1.08-.41-1.46,0-.85.91-8.27,9-8.27,13.68,0,.8.12,1.56.32,2.27-.19.19-.32.44-.32.73v4c0,.55.45,1,1,1h1.22l.81,3.24c.11.45.51.76.97.76h2v21c0,1.65,1.35,3,3,3s3-1.35,3-3v-11c0-.55-.45-1-1-1s-1,.45-1,1v11c0,.55-.45,1-1,1s-1-.45-1-1v-21h2v6c0,.55.45,1,1,1s1-.45,1-1v-6h2c.46,0,.86-.31.97-.76l.81-3.24h1.22c.55,0,1-.45,1-1v-4c0-.29-.13-.54-.32-.73.2-.71.32-1.47.32-2.27ZM32,10.964c.83,1.59,2,4.39,2,7.53,0,1.45-.26,2.96-.75,4.5h-2.5c-.49-1.54-.75-3.05-.75-4.5,0-3.14,1.17-5.94,2-7.53ZM28.82,13.404c-.47,1.49-.82,3.22-.82,5.09,0,1.46.22,2.97.65,4.5h-3.33c-.21-.61-.32-1.28-.32-2,0-1.9,1.85-4.92,3.82-7.59ZM39,26.994h-5c-.55,0-1,.45-1,1s.45,1,1,1h2.72l-.5,2h-8.44l-.5-2h2.72c.55,0,1-.45,1-1s-.45-1-1-1h-5v-2h14v2ZM38.68,22.994h-3.33c.43-1.53.65-3.04.65-4.5,0-1.87-.35-3.6-.82-5.09,1.97,2.67,3.82,5.69,3.82,7.59,0,.72-.11,1.39-.32,2Z"/>
</svg>