<?xml version="1.0" encoding="UTF-8"?>
<svg id="Outline" xmlns="http://www.w3.org/2000/svg" version="1.1" viewBox="0 0 64 64">
  <!-- Generator: Adobe Illustrator 29.5.1, SVG Export Plug-In . SVG Version: 2.1.0 Build 141)  -->
  <path d="M22.999,45.459c-.925-.535-2.003-.676-3.035-.4s-1.895.938-2.429,1.864c-1.103,1.91-.445,4.361,1.464,5.464.628.362,1.315.535,1.993.535,1.384,0,2.731-.717,3.471-1.999h0c1.103-1.91.446-4.361-1.464-5.464ZM22.73,49.923c-.551.954-1.777,1.284-2.732.732-.955-.552-1.283-1.777-.732-2.732.341-.59,1.051-1.001,1.735-1.001.884,0,1.702.635,1.929,1.483.138.516.067,1.055-.2,1.518Z"/>
  <path d="M39.538,50.923c.74,1.282,2.087,1.999,3.471,1.999.678,0,1.365-.172,1.993-.535,1.91-1.103,2.567-3.554,1.464-5.464-.535-.925-1.397-1.587-2.429-1.864-1.031-.276-2.109-.134-3.035.399-1.91,1.103-2.567,3.554-1.464,5.464h0ZM41.069,48.405c.279-1.044,1.411-1.69,2.45-1.415.516.138.947.469,1.214.932.551.955.223,2.181-.732,2.732-.956.551-2.181.222-2.732-.732-.268-.463-.338-1.001-.2-1.518Z"/>
  <circle cx="32" cy="31.922" r="1"/>
  <path d="M42.12,26.392c.17.33.51.53.88.53h5c2.21,0,4-1.79,4-4v-6c0-2.21-1.79-4-4-4h-2.66l.31-.71c.13-.31.1-.66-.09-.94l-2.46-3.74c-.19-.29-.52-.46-.86-.45-.35.01-.67.2-.84.5l-3.08,5.34h-12.64l-3.08-5.34c-.18-.3-.49-.49-.84-.5-.36-.03-.68.16-.87.45l-2.46,3.74c-.18.28-.21.64-.08.95l.31.7h-2.66c-2.21,0-4,1.79-4,4v6c0,2.21,1.79,4,4,4h5c.37,0,.71-.2.88-.53.18-.32.16-.72-.05-1.02l-1.63-2.45,1.34-2h.58l4.96,11.46-4.97,8.62c-3.19-.44-6.41,1.1-8.04,3.92-1.07,1.85-1.35,4-.8,6.07.56,2.07,1.88,3.79,3.73,4.86,1.23.71,2.59,1.07,3.98,1.07.7,0,1.4-.09,2.09-.27,2.06-.56,3.79-1.88,4.86-3.73,1.62-2.82,1.35-6.38-.63-8.92l4.03-6.97.69-.05.65.04,4.03,6.99c-1.98,2.53-2.25,6.09-.63,8.91,1.49,2.56,4.18,4,6.94,4,1.36,0,2.73-.35,3.99-1.07,3.82-2.21,5.13-7.11,2.93-10.93-1.63-2.81-4.85-4.36-8.04-3.92l-4.98-8.62,4.97-11.46h.58l1.34,2-1.63,2.45c-.21.3-.23.7-.05,1.02ZM48,24.922h-3.13l.96-1.45c.23-.33.23-.77,0-1.1l-.96-1.45h3.13c1.1,0,2,.9,2,2s-.9,2-2,2ZM21.67,9.982l1.7,2.94h-2.53l-.44-1,1.27-1.94ZM18.17,23.472l.96,1.45h-3.13c-1.1,0-2-.9-2-2s.9-2,2-2h3.13l-.96,1.45c-.23.33-.23.77,0,1.1ZM16,18.922c-.73,0-1.41.21-2,.56v-2.56c0-1.1.9-2,2-2h21.16l-2.3,4h-18.86ZM33.7,20.922l-1.7,2.95-1.7-2.95h3.4ZM24.3,20.922h3.69l2.85,4.95-2.51,4.36-4.03-9.31ZM40.51,42.612c.22.38.67.58,1.1.47,2.57-.6,5.27.57,6.58,2.84,1.66,2.86.67,6.54-2.19,8.19-2.86,1.66-6.54.67-8.19-2.19-1.32-2.28-.97-5.21.84-7.11.3-.32.36-.81.14-1.19l-3.99-6.91c.19-.11.36-.27.45-.48l.67-1.57,4.59,7.95ZM40.3,19.532l-6.65,15.34-2.98.2c-.34.02-.64.21-.81.5l-4.64,8.04c-.22.39-.17.87.14,1.19,1.8,1.92,2.15,4.84.83,7.12-1.65,2.87-5.33,3.85-8.19,2.2-1.39-.8-2.38-2.1-2.79-3.65-.42-1.55-.21-3.16.59-4.55,1.08-1.87,3.11-2.99,5.22-2.99.45,0,.91.05,1.37.16.43.1.87-.09,1.1-.48L42.32,9.992l1.28,1.93-3.3,7.61ZM42.74,18.922l1.74-4h3.52c1.1,0,2,.9,2,2v2.56c-.59-.35-1.27-.56-2-.56h-5.26Z"/>
</svg>