<?xml version="1.0" encoding="UTF-8"?>
<svg id="Outline" xmlns="http://www.w3.org/2000/svg" version="1.1" viewBox="0 0 64 64">
  <!-- Generator: Adobe Illustrator 29.5.1, SVG Export Plug-In . SVG Version: 2.1.0 Build 141)  -->
  <path d="M55.86,46.19l.57-.32c.23-.14.4-.36.46-.61.07-.26.04-.53-.1-.76-1.19-2.07-3.13-3.56-5.44-4.18.15-1.39.25-2.81.25-4.25,0-3.21-.39-6.38-1.16-9.44l-.21-.84c1.6-.53,2.77-2.02,2.77-3.79,0-2.21-1.79-4-4-4h-1c-2.41,0-4.43,1.72-4.9,4h-3.1c-.55,0-1,.45-1,1s.45,1,1,1h3v1c0,.01.01.03.01.04,0,.1.02.2.06.3.01.03.01.05.02.07.01.01.01.03.02.04l.76,1.52c1.26,2.52,1.26,5.54,0,8.06-.5,1-1.19,1.86-2.04,2.56-.85.71-1.85,1.24-2.9,1.53-1.46.43-3.2-.14-4.14-1.38-.35-.48-.53-1.04-.53-1.63,0-.2.02-.37.05-.55l.18-.93c.26-1.29-.04-2.59-.78-3.63h.29c1.65,0,3-1.35,3-3s-1.35-3-3-3h-5.18c.11-.31.18-.65.18-1v-12c0-1.65-1.35-3-3-3H10c-1.65,0-3,1.35-3,3v12c0,1.65,1.35,3,3,3h1.18c-.11.31-.18.65-.18,1,0,1.65,1.35,3,3,3h.95c-1.39,1.91-2.52,4-3.34,6.22-.52,1.41-.9,2.82-1.15,4.2-2.09,2.13-3.46,4.74-3.46,7.58,0,.55.45,1,1,1h5c0,3.86,3.14,7,7,7s7-3.14,7-7h5c.55,0,1-.45,1-1,0-.34-.02-.67-.03-1h7.1c-.22,1.9.16,3.82,1.14,5.5.18.32.52.5.86.5.17,0,.34-.04.5-.13l1.2-.7c1.18,2.3,3.58,3.83,6.23,3.83,3.86,0,7-3.14,7-7,0-1.37-.4-2.68-1.14-3.81ZM45,23c0-1.65,1.35-3,3-3h1c1.1,0,2,.9,2,2s-.9,2-2,2h-4v-1ZM15,11h6v4h-6v-4ZM10,25c-.55,0-1-.45-1-1v-12c0-.55.45-1,1-1h3v5c0,.55.45,1,1,1h8c.55,0,1-.45,1-1v-5h3c.55,0,1,.45,1,1v12c0,.55-.45,1-1,1H10ZM14,29c-.55,0-1-.45-1-1s.45-1,1-1h20c.55,0,1,.45,1,1s-.45,1-1,1H14ZM20,55c-2.76,0-5-2.24-5-5h10c0,2.76-2.24,5-5,5ZM9.07,48c.29-1.95,1.39-3.77,2.94-5.32.02-.01.03-.02.04-.04,2.82-2.78,7.14-4.64,10.95-4.64,5.74,0,7.54,4.5,7.92,8.97,0,.01-.01.02-.01.03,0,.03.01.05.02.08.02.31.04.62.05.92H9.07ZM40.53,46h-7.71c-.8-6.4-4.28-10-9.82-10-3.33,0-6.97,1.23-9.94,3.26.14-.45.26-.9.43-1.34.93-2.52,2.26-4.85,3.98-6.92h12.41c.53,0,1.06.16,1.49.45.92.62,1.38,1.71,1.16,2.79l-.18.93c-.06.3-.09.61-.09.94,0,1.02.32,1.99.93,2.82,1.1,1.46,2.85,2.34,4.69,2.34.55,0,1.1-.08,1.6-.23,1.31-.36,2.56-1.03,3.62-1.91,1.07-.87,1.93-1.95,2.55-3.2,1.55-3.09,1.55-6.77,0-9.86l-.03-.07h2.6l.28,1.11c.73,2.9,1.1,5.92,1.1,8.96,0,1.33-.09,2.65-.23,3.95-1.69-.08-3.37.32-4.87,1.19-1.87,1.08-3.26,2.76-3.97,4.79ZM42.5,51.6c-.56-1.39-.65-2.93-.26-4.41.49-1.81,1.64-3.32,3.26-4.25,1.1-.64,2.3-.94,3.49-.94,2.1,0,4.16.95,5.51,2.67l-12,6.93ZM50,55c-1.93,0-3.68-1.13-4.5-2.83l8.62-4.97c.56.82.88,1.79.88,2.8,0,2.76-2.24,5-5,5Z"/>
  <path d="M23,40c-3.311,0-7.336,1.771-9.79,4.305-.384.396-.374,1.03.023,1.414.396.383,1.028.374,1.414-.023,2.072-2.142,5.585-3.695,8.352-3.695,1.053,0,2.815,0,3.617,3.24.113.455.521.76.97.76.08,0,.161-.01.241-.029.536-.133.863-.675.73-1.211-1.178-4.76-4.475-4.76-5.559-4.76Z"/>
</svg>