<?xml version="1.0" encoding="UTF-8"?>
<svg id="Outline" xmlns="http://www.w3.org/2000/svg" version="1.1" viewBox="0 0 64 64">
  <!-- Generator: Adobe Illustrator 29.5.1, SVG Export Plug-In . SVG Version: 2.1.0 Build 141)  -->
  <path d="M55.95,21.681c-.14-.41-.52-.68-.95-.68h-2.76c-.09-.41-.17-.83-.27-1.24-.13-.51-.61-.83-1.13-.75l-4.11.65c-9.77,1.55-19.69,1.55-29.46,0l-4.11-.65c-.52-.08-1,.24-1.13.75-.1.41-.18.82-.27,1.24h-2.76c-.43,0-.81.27-.95.68-1.36,4-1.38,8.41-.07,12.43l.07.2c.13.41.52.69.95.69h2.76c.09.42.17.83.27,1.24.11.45.52.76.97.76.05,0,.1,0,.16-.01l4.11-.65c3.24-.51,6.58-.86,9.93-1.03.16.61.43,1.17.8,1.66v7.03c0,.32.15.62.42.81.26.19.59.24.9.14l2.68-.9,2.68.9c.11.03.21.05.319.05.54,0,1.001-.464,1.001-1v-7.03c.37-.49.64-1.05.8-1.66,3.35.17,6.69.52,9.93,1.03l4.11.65c.06.01.11.01.16.01.45,0,.86-.31.97-.76.1-.41.18-.83.27-1.24h2.76c.43,0,.82-.28.95-.69l.07-.2c1.31-4.02,1.29-8.43-.07-12.43ZM11.4,33.001h-1.67c-.95-3.25-.95-6.75,0-10h1.67c-.24,1.64-.38,3.31-.38,5s.14,3.36.38,5ZM31,22.801c.67.01,1.33.01,2,0v6.3c-.32-.06-.66-.1-1-.1s-.68.04-1,.1v-6.3ZM27.07,33.311c-3.41.18-6.81.53-10.12,1.05l-3.19.51c-.49-2.23-.74-4.54-.74-6.87s.25-4.64.74-6.87l3.19.51c4,.63,8.02,1,12.05,1.12v7.27c-1.03.78-1.74,1.94-1.93,3.28ZM34,42.611l-1.68-.56c-.21-.07-.43-.07-.64,0l-1.68.56v-4.03c.61.27,1.29.42,2,.42s1.39-.15,2-.42v4.03ZM32,37.001c-1.65,0-3-1.35-3-3s1.35-3,3-3,3,1.35,3,3-1.35,3-3,3ZM54.27,33.001h-1.67c.04-.3.1-.6.13-.89.07-.55-.32-1.05-.87-1.11s-1.05.32-1.11.87c-.12.99-.29,2-.51,3l-3.19-.51c-3.31-.52-6.71-.87-10.12-1.05-.19-1.34-.9-2.5-1.93-3.28v-7.27c4.03-.12,8.05-.49,12.05-1.12l3.19-.51c.22,1,.39,2.01.51,3,.06.55.56.94,1.11.87.55-.06.94-.56.87-1.11-.03-.29-.09-.59-.13-.89h1.67c.95,3.25.95,6.75,0,10Z"/>
  <circle cx="32" cy="34.001" r="1"/>
  <circle cx="52" cy="28.001" r="1"/>
</svg>