<?xml version="1.0" encoding="UTF-8"?>
<svg id="Outline" xmlns="http://www.w3.org/2000/svg" version="1.1" viewBox="0 0 64 64">
  <!-- Generator: Adobe Illustrator 29.5.1, SVG Export Plug-In . SVG Version: 2.1.0 Build 141)  -->
  <path d="M32,7c-13.785,0-25,11.215-25,25s11.215,25,25,25,25-11.215,25-25S45.785,7,32,7ZM32,55c-12.682,0-23-10.318-23-23s10.318-23,23-23,23,10.318,23,23-10.318,23-23,23Z"/>
  <path d="M32,11c-4.158,0-8.167,1.21-11.595,3.499-.459.307-.583.927-.276,1.387.306.459.927.583,1.387.276,3.098-2.068,6.724-3.162,10.485-3.162,4.879,0,9.32,1.864,12.688,4.898l-6.336,6.336c-1.037-.148-2.117-.234-3.24-.234-5.244,0-9.837,1.727-12.049,4.415-1.663-1.91-3.949-3.206-6.454-3.623-.294-.05-.587.033-.811.223s-.354.469-.354.763c0,2.338.95,4.587,2.588,6.222-1.638,1.635-2.588,3.884-2.588,6.222,0,.321.154.623.415.811.262.188.596.238.901.138l1.424-.474c1.855-.619,3.521-1.736,4.802-3.205.568.716,1.305,1.364,2.175,1.933l-7.263,7.263c-3.034-3.368-4.898-7.809-4.898-12.688,0-3.761,1.093-7.387,3.162-10.485.307-.459.183-1.08-.276-1.387-.458-.307-1.08-.183-1.387.276-2.289,3.428-3.499,7.438-3.499,11.595,0,11.58,9.42,21,21,21s21-9.42,21-21-9.42-21-21-21ZM23.978,33.32c-.15-.331-.468-.555-.831-.583-.027-.002-.054-.003-.08-.003-.333,0-.646.166-.833.446l-.059.088c-1.091,1.636-2.714,2.883-4.575,3.516.346-1.574,1.248-3.002,2.555-3.983.251-.188.4-.485.4-.8s-.148-.611-.4-.8c-1.345-1.009-2.261-2.491-2.583-4.118,1.914.627,3.588,1.898,4.714,3.612.198.3.543.471.899.449.359-.023.678-.236.835-.56,1.296-2.656,5.96-4.583,11.09-4.583.481,0,.953.022,1.421.054l-9.911,9.911c-1.256-.738-2.187-1.64-2.643-2.645ZM36.373,35.629c.198.244.487.371.778.371.825,0,1.296-.987.777-1.629-1.238-1.529-1.238-3.212,0-4.741.347-.429.281-1.059-.148-1.407-.121-.098-.258-.154-.4-.188l1.65-1.65c4.339.86,7.526,3.081,7.526,5.615,0,3.252-5.241,6-11.444,6-2.398,0-4.678-.419-6.566-1.131l6.854-6.854c-.757,1.866-.44,3.87.973,5.615ZM32,51c-4.879,0-9.32-1.864-12.688-4.898l7.684-7.684c2.258,1.005,5.068,1.582,8.115,1.582,7.539,0,13.444-3.514,13.444-8,0-3.29-3.182-6.05-7.849-7.292l5.396-5.396c3.034,3.368,4.898,7.809,4.898,12.688,0,10.477-8.523,19-19,19Z"/>
  <path d="M41.551,35.616c.791.003,1.269-.914.823-1.563-.91-1.324-.91-2.782,0-4.105.313-.455.198-1.078-.257-1.391-.456-.313-1.077-.197-1.391.257-1.393,2.025-1.393,4.348,0,6.373.191.278.506.428.825.43Z"/>
  <path d="M18.565,18.565c.391-.391.391-1.024,0-1.414-.391-.391-1.024-.391-1.414,0-.391.391-.391,1.024,0,1.414.391.391,1.024.391,1.414,0Z"/>
</svg>