<?xml version="1.0" encoding="UTF-8"?>
<svg id="Outline" xmlns="http://www.w3.org/2000/svg" version="1.1" viewBox="0 0 64 64">
  <!-- Generator: Adobe Illustrator 29.5.1, SVG Export Plug-In . SVG Version: 2.1.0 Build 141)  -->
  <path d="M55.384,34.373c-.004-.009-.048-.108-.053-.117-.692-1.434-.692-3.078,0-4.512,0-.002.041-.093.042-.094,1.657-3.477.302-7.645-3.167-9.529-1.407-.763-2.377-2.098-2.683-3.752-.698-3.803-4.251-6.382-8.051-5.873-.008,0-.106.012-.114.013-1.579.213-3.144-.297-4.281-1.376-.006-.006-.083-.082-.088-.088-2.798-2.658-7.18-2.657-10.047.069-1.156,1.098-2.72,1.609-4.389,1.385-3.83-.508-7.377,2.068-8.068,5.833-.003.013-.025.115-.028.128-.286,1.563-1.256,2.898-2.633,3.646-.01.005-.101.051-.111.057-3.387,1.844-4.742,6.012-3.096,9.465.004.009.048.108.053.117.692,1.434.692,3.078,0,4.512,0,.002-.041.093-.042.094-1.657,3.477-.302,7.645,3.166,9.529,1.067.58,1.898,1.505,2.34,2.604.206.512.788.76,1.3.555.513-.206.761-.788.555-1.301-.614-1.529-1.765-2.813-3.32-3.655-2.453-1.336-3.435-4.354-2.197-6.957.958-1.986.958-4.264.013-6.223-.003-.008-.047-.105-.051-.113-1.2-2.517-.218-5.535,2.205-6.854.01-.005.1-.05.109-.056,1.942-1.053,3.282-2.897,3.669-5.021.003-.013.025-.114.027-.127.505-2.753,3.075-4.622,5.934-4.239,2.176.286,4.343-.411,5.941-1.926,0,0,.07-.07.071-.071,2.024-1.923,5.197-1.922,7.204-.018.006.006.083.083.089.089,1.597,1.515,3.762,2.222,5.917,1.929.008,0,.106-.012.114-.013,2.771-.364,5.339,1.497,5.864,4.338.395,2.162,1.735,4.007,3.756,5.099,2.453,1.336,3.435,4.354,2.197,6.957-.958,1.986-.958,4.264-.013,6.223.003.008.047.105.051.113,1.2,2.517.218,5.535-2.205,6.854-.01.005-.1.05-.109.056-1.942,1.053-3.282,2.897-3.669,5.021-.003.013-.025.114-.027.127-.505,2.753-3.075,4.62-5.934,4.239-2.181-.29-4.344.41-5.941,1.926,0,0-.07.07-.071.071-2.024,1.924-5.196,1.923-7.204.018-.006-.006-.083-.083-.089-.089-1.597-1.515-3.761-2.222-5.917-1.929-.008,0-.105.012-.113.013-1.838.248-3.688-.515-4.817-1.979-.338-.438-.967-.521-1.402-.182-.438.337-.519.965-.182,1.402,1.562,2.027,4.121,3.078,6.64,2.743.008,0,.106-.012.114-.013,1.583-.21,3.144.298,4.281,1.376.006.006.083.082.088.088,1.39,1.32,3.17,1.984,4.962,1.984,1.815,0,3.642-.682,5.085-2.054,1.156-1.097,2.725-1.606,4.389-1.385,3.833.505,7.378-2.067,8.068-5.833.003-.013.025-.115.028-.128.286-1.563,1.256-2.898,2.633-3.646.01-.005.101-.051.111-.057,3.387-1.844,4.742-6.012,3.096-9.465Z"/>
  <path d="M46.84,20.15c-.34-.44-.97-.51-1.4-.16-.44.34-.51.97-.16,1.4,1.13,1.42,2,2.97,2.62,4.61h-9.2c-1.71-1.91-4.12-3-6.7-3s-4.99,1.09-6.7,3h-9.19c2.44-6.42,8.63-11,15.89-11,3.89,0,7.56,1.29,10.61,3.72.43.35,1.06.28,1.4-.16.35-.43.28-1.06-.16-1.4-3.4-2.72-7.5-4.16-11.85-4.16-10.48,0-19,8.52-19,19s8.52,19,19,19,19-8.52,19-19c0-4.35-1.44-8.45-4.16-11.85ZM32,49c-7.26,0-13.45-4.58-15.89-11h9.19c1.71,1.91,4.12,3,6.7,3s4.99-1.09,6.7-3h9.19c-2.44,6.42-8.63,11-15.89,11ZM48.51,36h-10.27c-.3,0-.59.14-.78.37-1.34,1.67-3.33,2.63-5.46,2.63s-4.12-.96-5.46-2.63c-.19-.23-.48-.37-.78-.37h-10.27c-.23-.97-.38-1.97-.44-3h8.95c.55,0,1-.45,1-1s-.45-1-1-1h-8.95c.06-1.03.21-2.03.44-3h10.27c.3,0,.59-.14.78-.37,1.34-1.67,3.33-2.63,5.46-2.63s4.12.96,5.46,2.63c.19.23.48.37.78.37h10.28c.24.98.38,1.98.44,3h-8.96c-.55,0-1,.45-1,1s.45,1,1,1h8.95c-.06,1.03-.21,2.03-.44,3Z"/>
  <path d="M28.564,33.543l-.19,2.424c-.027.347.128.683.409.887.282.207.65.248.97.115l2.246-.93,2.246.93c.123.051.253.076.382.076.546,0,1.043-.487.998-1.078l-.19-2.424,1.579-1.849c.226-.265.298-.628.19-.958-.107-.331-.379-.582-.717-.664l-2.364-.568-1.271-2.071c-.363-.594-1.342-.594-1.705,0l-1.271,2.071-2.364.568c-.338.082-.61.333-.717.664-.107.33-.035.693.19.958l1.579,1.849ZM30.747,31.353c.257-.062.48-.224.619-.45l.634-1.034.634,1.034c.139.227.361.388.619.45l1.181.283-.789.924c-.172.202-.257.463-.236.728l.095,1.21-1.122-.464c-.123-.051-.252-.076-.382-.076s-.26.025-.382.076l-1.122.464.095-1.21c.021-.265-.064-.525-.236-.728l-.789-.924,1.181-.283Z"/>
</svg>