<?xml version="1.0" encoding="UTF-8"?>
<svg id="Outline" xmlns="http://www.w3.org/2000/svg" version="1.1" viewBox="0 0 64 64">
  <!-- Generator: Adobe Illustrator 29.3.1, SVG Export Plug-In . SVG Version: 2.1.0 Build 151)  -->
  <path d="M52.54873,50.41052l-8.67822-7.10059c-.39648-.32422-.97559-.29688-1.34033.06738l-.414.414-2.3136-2.3139c2.67365-3.00446,4.31354-6.948,4.31354-11.27686,0-5.86487-3.05823-11.32703-8.01068-14.41071-.11328-4.86511-4.09796-8.78949-8.98932-8.78949s-8.87604,3.92438-8.98932,8.78949c-4.95245,3.08368-8.01068,8.54584-8.01068,14.41071,0,3.00098.79004,5.94727,2.28516,8.52148.18555.31934.521.49805.86572.49805.17041,0,.34326-.04395.50098-.13477.47803-.27734.64014-.88965.36279-1.36719-1.31787-2.26953-2.01465-4.86914-2.01465-7.51758,0-4.8797,2.39966-9.44244,6.3363-12.2287.18549.61993.44501,1.27551.75085,1.94714-3.18982,2.45514-5.08716,6.22443-5.08716,10.28156,0,7.16797,5.83154,13,13,13s13-5.83203,13-13c0-4.05713-1.89734-7.82642-5.08716-10.28156.30585-.67163.56537-1.32721.75085-1.94714,3.93665,2.78625,6.3363,7.349,6.3363,12.2287,0,8.27148-6.729,15-15,15-2.73877,0-5.42041-.74219-7.75439-2.14648-.47412-.28711-1.08887-.13184-1.37256.34082-.28467.47363-.13184,1.08789.34131,1.37207,2.64551,1.5918,5.68359,2.43359,8.78564,2.43359,4.3266,0,8.26837-1.63812,11.27222-4.30927l2.31378,2.31409-.41412.41412c-.36328.36328-.39209.94238-.06689,1.33984l7.10059,8.67773c.66357.81152,1.64404,1.30664,2.69047,1.3584,1.04021.04953,2.07371-.34524,2.81093-1.08294,1.52106-1.52204,1.38605-4.1437-.27435-5.50202ZM27.11612,9.00036c3.85986,0,7,3.14062,7,7,0,2.2688-2.61151,6.45575-4.95709,9.71008-.00238.00354-.005.00653-.00732.01007-.73413,1.01813-1.44269,1.94739-2.03558,2.69391-.59308-.74683-1.302-1.67645-2.03638-2.69501-.00153-.00226-.00317-.00421-.0047-.00647-2.34607-3.25464-4.95892-7.44318-4.95892-9.71259,0-3.85938,3.14014-7,7-7ZM26.34854,30.64099c.18994.22754.47119.35938.76758.35938s.57764-.13184.76758-.35938c.28223-.33783,1.30359-1.58044,2.53088-3.24493,2.42291.5932,3.70154,1.72003,3.70154,2.60431,0,1.41602-2.99365,3-7,3s-7-1.58398-7-3c0-.88428,1.27863-2.01111,3.70154-2.60431,1.22729,1.66449,2.24866,2.9071,2.53088,3.24493ZM38.11612,30.20056c0,6.06543-4.93457,11-11,11s-11-4.93457-11-11c0-3.30603,1.48468-6.39197,4.00507-8.47113.74298,1.34686,1.60571,2.69928,2.45856,3.93469-2.74982.86047-4.46362,2.47565-4.46362,4.33624,0,2.85059,3.86914,5,9,5s9-2.14941,9-5c0-1.8606-1.71381-3.47577-4.46362-4.33624.85284-1.23541,1.71558-2.58783,2.45856-3.93469,2.52039,2.07916,4.00507,5.1651,4.00507,8.47113ZM51.40908,54.49841c-.34717.3457-.80713.50977-1.29736.5-.49023-.02441-.93115-.24707-1.24219-.62695l-6.52734-7.97754.9624-.96289,7.97803,6.52832c.37939.31055.60205.75098.62646,1.24121s-.15283.95117-.5,1.29785Z"/>
  <path d="M27.11612,21.00036c2.75684,0,5-2.24316,5-5s-2.24316-5-5-5-5,2.24316-5,5,2.24316,5,5,5ZM27.11612,13.00036c1.6543,0,3,1.3457,3,3s-1.3457,3-3,3-3-1.3457-3-3,1.3457-3,3-3Z"/>
  <path d="M15.0953,40.60693c-.3905.39056-.3905,1.02368,0,1.41425.3905.3905,1.02368.3905,1.41418,0,.39056-.39056.39056-1.02368,0-1.41425-.3905-.3905-1.02368-.3905-1.41418,0Z"/>
</svg>