<?xml version="1.0" encoding="UTF-8"?>
<svg id="Outline" xmlns="http://www.w3.org/2000/svg" version="1.1" viewBox="0 0 64 64">
  <!-- Generator: Adobe Illustrator 29.5.1, SVG Export Plug-In . SVG Version: 2.1.0 Build 141)  -->
  <path d="M27.293,30.707c.387.387,1.026.387,1.414,0l8-8c.391-.391.391-1.023,0-1.414s-1.023-.391-1.414,0l-8,8c-.391.391-.391,1.023,0,1.414Z"/>
  <path d="M28,25c1.654,0,3-1.346,3-3s-1.346-3-3-3-3,1.346-3,3,1.346,3,3,3ZM28,21c.551,0,1,.448,1,1s-.449,1-1,1-1-.448-1-1,.449-1,1-1Z"/>
  <path d="M33,30c0,1.654,1.346,3,3,3s3-1.346,3-3-1.346-3-3-3-3,1.346-3,3ZM37,30c0,.552-.449,1-1,1s-1-.448-1-1,.449-1,1-1,1,.448,1,1Z"/>
  <path d="M47,39h-1.15c3.29-3.5,5.15-8.11,5.15-13,0-10.48-8.52-19-19-19S13,15.52,13,26c0,4.89,1.86,9.5,5.15,13h-1.15c-2.76,0-5,2.24-5,5v8c0,2.76,2.24,5,5,5h4c.35,0,.67-.18.85-.47.18-.3.2-.67.04-.98l-1.77-3.55,1.5-3h20.76l1.5,3-1.77,3.55c-.16.31-.14.68.04.98.18.29.5.47.85.47h4c2.76,0,5-2.24,5-5v-8c0-2.76-2.24-5-5-5ZM15,26c0-9.37,7.63-17,17-17s17,7.63,17,17c0,5.04-2.22,9.76-6.07,13h-8.9l1.54-2.02,4.37,1.31c.3.08.62.03.88-.16.25-.18.4-.47.41-.78l.11-4.56,4.31-1.52c.29-.1.52-.34.62-.64.09-.29.04-.61-.13-.87l-2.59-3.76,2.59-3.76c.17-.26.22-.58.13-.87-.1-.3-.33-.54-.62-.64l-4.31-1.52-.11-4.56c-.01-.31-.16-.6-.41-.78-.26-.19-.58-.24-.88-.16l-4.37,1.31-2.78-3.63c-.37-.49-1.21-.49-1.58,0l-2.78,3.63-4.37-1.31c-.3-.08-.63-.03-.88.16-.25.18-.4.47-.41.78l-.11,4.56-4.31,1.52c-.29.1-.52.34-.62.64-.09.29-.04.61.13.87l2.59,3.76-2.59,3.76c-.17.26-.22.58-.13.87.1.3.33.54.62.64l4.31,1.52.11,4.56c.01.31.16.6.41.78.25.19.58.24.88.16l4.37-1.31,1.54,2.02h-8.9c-3.85-3.24-6.07-7.96-6.07-13ZM22.49,25.43l-2.24-3.25,3.72-1.31c.39-.14.66-.51.67-.92l.1-3.95,3.78,1.13c.4.11.83-.02,1.08-.35l2.4-3.14,2.4,3.14c.25.33.68.46,1.08.35l3.78-1.13.1,3.95c.01.41.28.78.67.92l3.72,1.31-2.24,3.25c-.23.34-.23.8,0,1.14l2.24,3.25-3.72,1.31c-.39.14-.66.51-.67.92l-.1,3.95-3.78-1.13c-.4-.11-.83.02-1.08.35l-2.4,3.14-2.4-3.14c-.19-.25-.49-.39-.79-.39-.1,0-.19.01-.29.04l-3.78,1.13-.1-3.95c-.01-.41-.28-.78-.67-.92l-3.72-1.31,2.24-3.25c.23-.34.23-.8,0-1.14ZM18.11,52.45l1.27,2.55h-2.38c-1.65,0-3-1.35-3-3s1.35-3,3-3h2.38l-1.27,2.55c-.15.28-.15.62,0,.9ZM47,55h-2.38l1.27-2.55c.15-.28.15-.62,0-.9l-1.27-2.55h2.38c1.65,0,3,1.35,3,3s-1.35,3-3,3ZM50,48.03c-.84-.64-1.87-1.03-3-1.03h-30c-1.13,0-2.16.39-3,1.03v-4.03c0-1.65,1.35-3,3-3h30c1.65,0,3,1.35,3,3v4.03Z"/>
  <path d="M17,45h30c.552,0,1-.447,1-1s-.448-1-1-1h-30c-.552,0-1,.447-1,1s.448,1,1,1Z"/>
</svg>