<?xml version="1.0" encoding="UTF-8"?>
<svg id="Outline" xmlns="http://www.w3.org/2000/svg" version="1.1" viewBox="0 0 64 64">
  <!-- Generator: Adobe Illustrator 29.3.1, SVG Export Plug-In . SVG Version: 2.1.0 Build 151)  -->
  <circle cx="22" cy="20" r="1"/>
  <circle cx="34" cy="20" r="1"/>
  <circle cx="34" cy="32" r="1"/>
  <circle cx="22" cy="32" r="1"/>
  <circle cx="44" cy="50" r="1"/>
  <path d="M26,21c-.55273,0-1,.44727-1,1v2c0,.55273.44727,1,1,1s1-.44727,1-1v-2c0-.55273-.44727-1-1-1Z"/>
  <path d="M26,15h-8c-.55273,0-1,.44727-1,1v8c0,.55273.44727,1,1,1h4c.55273,0,1-.44727,1-1s-.44727-1-1-1h-3v-6h6v1c0,.55273.44727,1,1,1s1-.44727,1-1v-2c0-.55273-.44727-1-1-1Z"/>
  <path d="M38,21c-.55273,0-1,.44727-1,1v1h-1c-.55273,0-1,.44727-1,1s.44727,1,1,1h2c.55273,0,1-.44727,1-1v-2c0-.55273-.44727-1-1-1Z"/>
  <path d="M30,25h2c.55273,0,1-.44727,1-1s-.44727-1-1-1h-1v-6h6v1c0,.55273.44727,1,1,1s1-.44727,1-1v-2c0-.55273-.44727-1-1-1h-8c-.55273,0-1,.44727-1,1v8c0,.55273.44727,1,1,1Z"/>
  <path d="M33,35h-2v-6h5c.55273,0,1-.44727,1-1s-.44727-1-1-1h-6c-.55273,0-1,.44727-1,1v8c0,.55273.44727,1,1,1h3c.55273,0,1-.44727,1-1s-.44727-1-1-1Z"/>
  <path d="M22,35h-3v-1c0-.55273-.44727-1-1-1s-1,.44727-1,1v2c0,.55273.44727,1,1,1h4c.55273,0,1-.44727,1-1s-.44727-1-1-1Z"/>
  <path d="M26,33c-.55273,0-1,.44727-1,1v2c0,.55273.44727,1,1,1s1-.44727,1-1v-2c0-.55273-.44727-1-1-1Z"/>
  <path d="M26,27h-8c-.55273,0-1,.44727-1,1v2c0,.55273.44727,1,1,1s1-.44727,1-1v-1h6v1c0,.55273.44727,1,1,1s1-.44727,1-1v-2c0-.55273-.44727-1-1-1Z"/>
  <path d="M10,17c.55273,0,1-.44727,1-1v-6c0-.55176.44824-1,1-1h6c.55273,0,1-.44727,1-1s-.44727-1-1-1h-6c-1.6543,0-3,1.3457-3,3v6c0,.55273.44727,1,1,1Z"/>
  <path d="M38,9h6c.55176,0,1,.44824,1,1v6c0,.55273.44727,1,1,1s1-.44727,1-1v-6c0-1.6543-1.3457-3-3-3h-6c-.55273,0-1,.44727-1,1s.44727,1,1,1Z"/>
  <path d="M18,43h-6c-.55176,0-1-.44824-1-1v-6c0-.55273-.44727-1-1-1s-1,.44727-1,1v6c0,1.6543,1.3457,3,3,3h6c.55273,0,1-.44727,1-1s-.44727-1-1-1Z"/>
  <path d="M53,43.18427v-7.18427c0-4.96289-4.03711-9-9-9-.33832,0-.67126.0224-1,.05896v-13.05896c0-1.6543-1.3457-3-3-3h-24c-1.6543,0-3,1.3457-3,3v24c0,1.6543,1.3457,3,3,3h19v2.18427c-1.1615.41412-2,1.51379-2,2.81573v8c0,1.6543,1.3457,3,3,3h16c1.6543,0,3-1.3457,3-3v-8c0-1.30194-.8385-2.40161-2-2.81573ZM51,36v7h-14v-7c0-3.85938,3.14062-7,7-7s7,3.14062,7,7ZM16,39c-.55176,0-1-.44824-1-1V14c0-.55176.44824-1,1-1h24c.55176,0,1,.44824,1,1v13.52502c-3.48987,1.23938-6,4.56519-6,8.47498v3h-19ZM53,54c0,.55176-.44824,1-1,1h-16c-.55176,0-1-.44824-1-1v-8c0-.55176.44824-1,1-1h16c.55176,0,1,.44824,1,1v8Z"/>
</svg>