<?xml version="1.0" encoding="UTF-8"?>
<svg id="Outline" xmlns="http://www.w3.org/2000/svg" version="1.1" viewBox="0 0 64 64">
  <!-- Generator: Adobe Illustrator 29.5.1, SVG Export Plug-In . SVG Version: 2.1.0 Build 141)  -->
  <path d="M53.27,13.039l-21-6c-.17-.05-.37-.05-.54,0l-21,6c-.43.12-.73.51-.73.96v14.16c0,13.3,8.93,25.15,21.73,28.8.08.03.18.04.27.04s.19-.01.27-.04c12.8-3.65,21.73-15.5,21.73-28.8v-14.16c0-.45-.3-.84-.73-.96ZM52,28.159c0,12.32-8.21,23.3-20,26.8-11.79-3.5-20-14.48-20-26.8v-9.41l20-5.71,20,5.71v9.41ZM52,16.669l-19.73-5.63c-.17-.05-.37-.05-.54,0l-19.73,5.63v-1.92l20-5.71,20,5.71v1.92Z"/>
  <path d="M41.49,44.536c-2.637,2.817-5.912,4.962-9.49,6.216-3.578-1.254-6.854-3.398-9.49-6.216-.377-.403-1.01-.425-1.413-.047-.403.377-.424,1.01-.047,1.413,2.94,3.143,6.618,5.513,10.633,6.855.103.035.21.052.317.052s.214-.017.317-.052c4.016-1.342,7.693-3.712,10.633-6.855.377-.403.356-1.036-.047-1.413-.402-.377-1.035-.355-1.413.047Z"/>
  <path d="M29,34.999h6c.551,0,1,.449,1,1s-.449,1-1,1h-10c-.552,0-1,.448-1,1v4c0,.552.448,1,1,1h4v2c0,.552.448,1,1,1h4c.552,0,1-.448,1-1v-2c3.86,0,7-3.14,7-7s-3.14-7-7-7h-6c-.551,0-1-.449-1-1s.449-1,1-1h10c.552,0,1-.448,1-1v-4c0-.552-.448-1-1-1h-4v-2c0-.552-.448-1-1-1h-4c-.552,0-1,.448-1,1v2c-3.86,0-7,3.14-7,7s3.14,7,7,7ZM29,22.999h1c.552,0,1-.448,1-1v-2h2v2c0,.552.448,1,1,1h4v2h-9c-1.654,0-3,1.346-3,3s1.346,3,3,3h6c2.757,0,5,2.243,5,5s-2.243,5-5,5h-1c-.552,0-1,.448-1,1v2h-2v-2c0-.552-.448-1-1-1h-4v-2h9c1.654,0,3-1.346,3-3s-1.346-3-3-3h-6c-2.757,0-5-2.243-5-5s2.243-5,5-5Z"/>
</svg>