<?xml version="1.0" encoding="UTF-8"?>
<svg id="Outline" xmlns="http://www.w3.org/2000/svg" version="1.1" viewBox="0 0 64 64">
  <!-- Generator: Adobe Illustrator 29.5.1, SVG Export Plug-In . SVG Version: 2.1.0 Build 141)  -->
  <path d="M20,19h-2c-.55273,0-1,.44727-1,1s.44727,1,1,1h2c1.6543,0,3-1.3457,3-3s-1.3457-3-3-3c-.55176,0-1-.44824-1-1s.44824-1,1-1h2c.55273,0,1-.44727,1-1s-.44727-1-1-1h-2c-1.6543,0-3,1.3457-3,3s1.3457,3,3,3c.55176,0,1,.44824,1,1s-.44824,1-1,1Z"/>
  <path d="M26,21h4c.55273,0,1-.44727,1-1s-.44727-1-1-1h-3v-2h3c.55273,0,1-.44727,1-1s-.44727-1-1-1h-3v-2h3c.55273,0,1-.44727,1-1s-.44727-1-1-1h-4c-.55273,0-1,.44727-1,1v8c0,.55273.44727,1,1,1Z"/>
  <path d="M34,21c.55273,0,1-.44727,1-1v-3.76367l2.10547,4.21094c.17179.34455.52211.55253.89397.55273.54399.0003,1.00055-.45988,1.00056-1v-8c0-.55273-.44727-1-1-1s-1,.44727-1,1v3.76367l-2.10547-4.21094c-.20704-.41504-.67773-.62988-1.12402-.52637-.45117.10742-.77051.50977-.77051.97363v8c0,.55273.44727,1,1,1Z"/>
  <path d="M42,21c2.75684,0,5-2.24316,5-5s-2.24316-5-5-5c-.55273,0-1,.44727-1,1v8c0,.55273.44727,1,1,1ZM43,13.1709c1.16406.41309,2,1.52539,2,2.8291s-.83594,2.41602-2,2.8291v-5.6582Z"/>
  <path d="M48,7H16c-1.65002,0-3,1.34998-3,3v16c0,1.64996,1.34998,3,3,3h13v6.76001l-2.88-2.88c-1.16998-1.17004-3.07001-1.17004-4.23999,0-1.16998,1.16998-1.16998,3.07001-.04999,4.19l6.5,7.44c.48999.56.75,1.26996.73999,2l-.07001,9.47998c0,.54999.44,1.01001.98999,1.01001h.01001c.54999,0,1-.44,1-.98999l.07001-9.48004c.01001-1.22998-.41998-2.40997-1.22998-3.32996l-6.55005-7.49005c-.38995-.38995-.38995-1.02997,0-1.41998.39001-.39001,1.03003-.39001,1.42004,0l4.57996,4.59003c.29004.28998.72003.37,1.09003.21997.38-.15997.62-.52002.62-.92999v-12.16998c0-.54999.45001-1,1-1s1,.45001,1,1v12c0,.54999.45001,1,1,1s1-.45001,1-1v-6c0-.54999.45001-1,1-1s1,.45001,1,1v6c0,.54999.45001,1,1,1s1-.45001,1-1v-5c0-.54999.45001-1,1-1s1,.45001,1,1v5c0,.54999.45001,1,1,1s1-.45001,1-1v-4c0-.54999.45001-1,1-1s1,.45001,1,1v6c0,1.14996-.27002,2.31-.78998,3.33997l-.59003,1.17999c-.41998.84003-.58997,1.79004-.5,2.73004l.88,8.84998c.06.52002.48999.90002,1,.90002h.09998c.55005-.06.95001-.54999.90002-1.10004l-.89001-8.84998c-.06-.56.04999-1.13.29999-1.64001l.59003-1.16998c.65002-1.31,1-2.78003,1-4.23999v-6c0-1.65002-1.34998-3-3-3-.53998,0-1.03003.14996-1.46997.39996-.53003-.83997-1.46002-1.39996-2.53003-1.39996-.53998,0-1.03003.14996-1.46997.39996-.53003-.83997-1.46002-1.39996-2.53003-1.39996-.34998,0-.69.07001-1,.17999v-.17999h13c1.65002,0,3-1.35004,3-3V10c0-1.65002-1.34998-3-3-3ZM29,26v1h-13c-.54999,0-1-.45001-1-1v-1.17999c.31.10999.65002.17999,1,.17999h13.17999c-.10999.31-.17999.64996-.17999,1ZM49,26c0,.54999-.45001,1-1,1h-13v-1c0-.35004-.07001-.69-.17999-1h13.17999c.34998,0,.69-.07001,1-.17999v1.17999ZM49,22c0,.54999-.45001,1-1,1H16c-.54999,0-1-.45001-1-1v-12c0-.54999.45001-1,1-1h32c.54999,0,1,.45001,1,1v12Z"/>
</svg>