<?xml version="1.0" encoding="UTF-8"?>
<svg id="Outline" xmlns="http://www.w3.org/2000/svg" version="1.1" viewBox="0 0 64 64">
  <!-- Generator: Adobe Illustrator 29.3.1, SVG Export Plug-In . SVG Version: 2.1.0 Build 151)  -->
  <path d="M55.88281,26.10059c-.57227-.69922-1.41895-1.10059-2.32275-1.10059h-6.56299c.64435-1.54028,1.00293-3.22876,1.00293-5,0-7.16797-5.83154-13-13-13s-13,5.83203-13,13c0,1.77124.35858,3.45972,1.00293,5h-7.36279c-1.42139,0-2.65771,1.01465-2.94043,2.41406l-5.2002,25.99902c-.17822.88281.04688,1.78906.61768,2.48633.57227.69922,1.41895,1.10059,2.32275,1.10059h37.91992c1.42139,0,2.65771-1.01465,2.94043-2.41406l5.2002-25.99902c.17822-.88281-.04688-1.78906-.61768-2.48633ZM35,9c6.06543,0,11,4.93457,11,11s-4.93457,11-11,11-11-4.93457-11-11,4.93457-11,11-11ZM54.53955,28.19336l-5.19971,25.99805c-.09473.46875-.50684.80859-.97998.80859H10.43994c-.30176,0-.58447-.13379-.7749-.36719-.11133-.13574-.28564-.42383-.20459-.82617l5.19971-25.99805c.09473-.46875.50684-.80859.97998-.80859h8.42291c2.31378,3.60229,6.34662,6,10.93695,6s8.62317-2.39771,10.93695-6h7.62311c.30176,0,.58447.13379.7749.36719.11133.13574.28564.42383.20459.82617Z"/>
  <path d="M51.39307,29.20508l-19.15186,14.63184-13.50928-14.51855c-.37598-.40332-1.01025-.42578-1.41309-.05078-.4043.37695-.42725,1.00977-.05078,1.41406l9.89008,10.62878-15.68939,9.8429c-.46826.29297-.60938.91016-.31592,1.37793.18994.30273.51514.46875.84814.46875.18164,0,.36523-.04883.53027-.15332l16.01343-10.0462,2.85083,3.06378c.1958.20996.46338.31836.73242.31836.2124,0,.42627-.06738.60645-.20508l3.37347-2.57733,9.18024,9.30194c.1958.19824.45361.29785.71191.29785.25391,0,.50781-.0957.70264-.28809.39307-.3877.39697-1.02148.00928-1.41406l-9.0022-9.12146,14.89722-11.38147c.43896-.33594.52295-.96289.1875-1.40234s-.9624-.52246-1.40137-.1875Z"/>
  <path d="M31.70703,16.70703l1.29297-1.29297v9.58594c0,1.6543,1.3457,3,3,3h2c.55225,0,1-.44727,1-1s-.44775-1-1-1h-2c-.55127,0-1-.44824-1-1v-9.58594l1.29297,1.29297c.19531.19531.45117.29297.70703.29297s.51172-.09766.70703-.29297c.39062-.39062.39062-1.02344,0-1.41406l-3-3c-.39062-.39062-1.02344-.39062-1.41406,0l-3,3c-.39062.39062-.39062,1.02344,0,1.41406s1.02344.39062,1.41406,0Z"/>
</svg>