<?xml version="1.0" encoding="UTF-8"?>
<svg id="Outline" xmlns="http://www.w3.org/2000/svg" version="1.1" viewBox="0 0 64 64">
  <!-- Generator: Adobe Illustrator 29.3.1, SVG Export Plug-In . SVG Version: 2.1.0 Build 151)  -->
  <path d="M56,25c.54999,0,1-.45001,1-1v-14c0-1.65002-1.34998-3-3-3H10c-1.65002,0-3,1.34998-3,3v44c0,1.64996,1.34998,3,3,3h44c1.65002,0,3-1.35004,3-3v-22c0-.54999-.45001-1-1-1s-1,.45001-1,1v22c0,.54999-.45001,1-1,1H10c-.54999,0-1-.45001-1-1V13h46v11c0,.54999.45001,1,1,1ZM11.59003,11h-2.59003v-1c0-.54999.45001-1,1-1h3.59003l-2,2ZM17.59003,11h-3.18005l2-2h3.18005l-2,2ZM23.59003,11h-3.18005l2-2h3.18005l-2,2ZM26.40997,11l2-2h25.59003c.54999,0,1,.45001,1,1v1h-28.59003Z"/>
  <path d="M47,28v-10c0-1.6543-1.3457-3-3-3h-24c-1.6543,0-3,1.3457-3,3v10c0,1.6543,1.3457,3,3,3h24c1.6543,0,3-1.3457,3-3ZM19,28v-10c0-.55176.44824-1,1-1h24c.55176,0,1,.44824,1,1v10c0,.55176-.44824,1-1,1h-24c-.55176,0-1-.44824-1-1Z"/>
  <path d="M11,43c0,5.51367,4.48633,10,10,10s10-4.48633,10-10-4.48633-10-10-10-10,4.48633-10,10ZM23.50861,38.82434c-.80377.11053-1.64606.17566-2.50861.17566-.86371,0-1.70587-.06494-2.50879-.17505.61438-2.40997,1.68561-3.82495,2.50879-3.82495.82312,0,1.89423,1.41479,2.50861,3.82434ZM29,43c0,1.24567-.29443,2.42108-.8045,3.47333-.69067-.34906-1.48505-.64319-2.35864-.87421.10309-.82483.16315-1.69153.16315-2.59912s-.06006-1.77429-.16315-2.59912c.8736-.23102,1.66797-.52515,2.35864-.87421.51007,1.05225.8045,2.22766.8045,3.47333ZM24,43c0,.78522-.04999,1.51904-.13214,2.20728-.91864-.1308-1.87952-.20728-2.86786-.20728-.98932,0-1.95013.07629-2.86792.20673-.08209-.68811-.13208-1.42169-.13208-2.20673s.04999-1.51862.13208-2.20673c.91779.13043,1.8786.20673,2.86792.20673.98834,0,1.94922-.07648,2.86786-.20728.08215.68823.13214,1.42206.13214,2.20728ZM21,51c-.82318,0-1.89441-1.41498-2.50879-3.82495.80292-.11011,1.64508-.17505,2.50879-.17505.86255,0,1.70483.06512,2.50861.17566-.61438,2.40955-1.68549,3.82434-2.50861,3.82434ZM13,43c0-1.24652.29474-2.42267.80548-3.4754.68872.35028,1.48279.64551,2.3576.87701-.10303.82465-.16309,1.69104-.16309,2.59839s.06006,1.77374.16309,2.59839c-.87482.23151-1.66888.52673-2.3576.87701-.51074-1.05273-.80548-2.22888-.80548-3.4754ZM17.43964,35.8465c-.37329.74304-.68097,1.61481-.9176,2.57959-.59802-.16547-1.14258-.36316-1.62146-.59045.69922-.82452,1.56317-1.5014,2.53906-1.98914ZM14.90057,48.16437c.47888-.22729,1.02344-.42499,1.62146-.59045.23663.96478.54431,1.83655.9176,2.57959-.97589-.48773-1.83984-1.16461-2.53906-1.98914ZM24.56036,50.1535c.37317-.7428.68079-1.61426.91742-2.57867.59723.16516,1.14197.3623,1.62225.58887-.69928.82477-1.56348,1.50195-2.53967,1.98981ZM27.10004,37.8363c-.48029.22656-1.02502.42371-1.62225.58887-.23663-.96442-.54425-1.83588-.91742-2.57867.9762.48785,1.84039,1.16504,2.53967,1.98981Z"/>
  <path d="M52.96973,43.06445c.08594-.34277-.01465-.70508-.26562-.95312l-8.89844-8.82129c-.26074-.25879-.6416-.35254-.99023-.24805-.35059.10449-.61621.39258-.69238.75098l-2.59863,12.25781c-.07324.34473.04102.70312.30078.94238.25977.24023.62793.32617.96387.22266l2.87402-.85938.85938,2.87402c.12988.43359.52734.71387.95801.71387.09473,0,.19043-.01367.28613-.04199l3.83203-1.14551c.5293-.1582.83008-.71484.67188-1.24414l-.8584-2.87402,2.87402-.85938c.33887-.10059.59863-.37305.68359-.71484ZM47.88184,43.00879c-.5293.1582-.83008.71484-.67188,1.24414l.8584,2.87402-1.91602.57324-.85938-2.87402c-.12988-.43359-.52734-.71387-.95801-.71387-.09473,0-.19043.01367-.28613.04199l-2.21875.66309,1.86914-8.81641,6.40039,6.34473-2.21777.66309Z"/>
  <path d="M23.5,21h2.5c.55273,0,1-.44727,1-1s-.44727-1-1-1h-2.5c-1.37891,0-2.5,1.12109-2.5,2.5s1.12109,2.5,2.5,2.5h1c.27539,0,.5.22461.5.5s-.22461.5-.5.5h-2.5c-.55273,0-1,.44727-1,1s.44727,1,1,1h2.5c1.37891,0,2.5-1.12109,2.5-2.5s-1.12109-2.5-2.5-2.5h-1c-.27539,0-.5-.22461-.5-.5s.22461-.5.5-.5Z"/>
  <path d="M34,21c.55273,0,1-.44727,1-1s-.44727-1-1-1h-4c-.55273,0-1,.44727-1,1v6c0,.55273.44727,1,1,1h4c.55273,0,1-.44727,1-1s-.44727-1-1-1h-3v-1h3c.55273,0,1-.44727,1-1s-.44727-1-1-1h-3v-1h3Z"/>
  <path d="M40,19c-1.6543,0-3,1.3457-3,3v2c0,1.6543,1.3457,3,3,3s3-1.3457,3-3v-2c0-1.6543-1.3457-3-3-3ZM41,24c0,.55176-.44824,1-1,1s-1-.44824-1-1v-2c0-.55176.44824-1,1-1s1,.44824,1,1v2Z"/>
  <circle cx="56" cy="28" r="1"/>
</svg>