<?xml version="1.0" encoding="UTF-8"?>
<svg id="Outline" xmlns="http://www.w3.org/2000/svg" version="1.1" viewBox="0 0 64 64">
  <!-- Generator: Adobe Illustrator 29.3.1, SVG Export Plug-In . SVG Version: 2.1.0 Build 151)  -->
  <path d="M56.60999,41.82001c-.38-.51001-.98999-.82001-1.63-.82001h-2.97998c-.54999,0-1,.45001-1,1s.45001,1,1,1l3-.01001-3.48999,12.01001h-15.17999l1.72998-5.96002c.01001-.02002.02002-.02997.02002-.04999l1.73999-5.98999h4.17999c.54999,0,1-.45001,1-1s-.45001-1-1-1h-4.17999c-.89001,0-1.67999.59998-1.91998,1.45001l-.53003,1.81c-.64001-1.98004-2.29999-3.53003-4.39001-4l-4.94-1.14001v-2.85999c1.92999-1.51001,3.17004-3.84003,3.17004-6.47003v-1.89001h.44c.54999,0,1-.44995,1-1v-6.28998c0-2.53998-2.06-4.60999-4.60004-4.60999h-.13c-1.26001,0-2.46997.39996-3.47998,1.13-.47998-.35004-1-.61005-1.56-.80005.07001-.42999.12-.87994.12-1.32996,0-4.41003-3.59003-8-8-8s-8,3.58997-8,8c0,1.59998.46002,3.12,1.34003,4.42999l-1.20001,2.07001c-.17999.31-.19.69-.01001,1s.51001.5.87.5h5.34998v3.89996c0,.55005.45001,1,1,1h.44v1.89001c0,2.63,1.24005,4.96002,3.17004,6.47003v2.85999l-4.94,1.13c-2.42004.54999-4.28003,2.56-4.63,5l-1.37,9.45996c-.08002.57001.07996,1.15002.45996,1.59003.39001.44.94.70001,1.53003.70001h42.5c.89001,0,1.67999-.60004,1.91998-1.44l3.48999-12c.17999-.60004.07001-1.23999-.31-1.73999ZM29.21002,41.44l-.91003,4.08997-3.63-1.81,2.66003-2.70996,1.88.42999ZM9.73999,21l.66003-1.13c.20996-.35999.16998-.79999-.08002-1.13-.85999-1.07001-1.32001-2.37-1.32001-3.73999,0-3.31,2.69-6,6-6s6,2.69,6,6-2.69,6-6,6h-5.26001ZM15.34998,25.89996v-2.91998c3.10004-.13,5.75-2.03998,6.95001-4.72998.54004.19,1.02002.48999,1.42999.89996.39001.39001,1.02002.39001,1.41003,0,.75-.73999,1.73999-1.14996,2.77997-1.14996h.13c1.42999,0,2.60004,1.16998,2.60004,2.60999v5.28998c-3.36005-.02997-6.61005-1.22998-9.17004-3.37-.26996-.21997-.63995-.28998-.96997-.16998-.33002.10999-.58002.40002-.65002.73999-.15997.78003-.58997,1.48999-1.20996,2.01001-.63.51001-1.41003.78998-2.21002.78998h-1.09003ZM16.78998,29.78998v-1.91998c1.13-.07001,2.23004-.48999,3.13-1.22003.58002-.47998,1.04999-1.07001,1.40002-1.72998,2.33002,1.63,5.04999,2.62,7.89001,2.90002v1.96997c0,3.41998-2.79004,6.21002-6.21002,6.21002s-6.21002-2.79004-6.21002-6.21002ZM18.66998,41.01001l2.65002,2.70996-3.62,1.81-.91003-4.08997,1.88-.42999ZM22,55h-13l1.37-9.47003c.22998-1.62,1.47003-2.95996,3.09003-3.32001l1.38-.31995.90997,4.07996c.13.60004.53003,1.10004,1.09003,1.37.26996.13.56995.19.85999.19.29999,0,.60999-.07001.89001-.20996l3.40997-1.70001v9.38ZM19.96002,39.46997v-2.06c.94.38,1.96997.59003,3.03998.59003s2.09998-.21002,3.03998-.59003v2.06l-3.03998,3.10004-3.03998-3.10004ZM34.25,55h-3.25v-2h3.83002l-.58002,2ZM35.40997,51h-4.40997c-1.09998,0-2,.89996-2,2v2h-5v-9.38l3.40997,1.70001c.28003.13995.59003.20996.89001.20996.29004,0,.59003-.06.85999-.19.56-.26996.96002-.76996,1.09003-1.37l.90997-4.07996,1.38.31995c1.62.36005,2.86005,1.70001,3.09003,3.32001l.46002,3.15002-.68005,2.32001Z"/>
  <path d="M45.5,46c-1.6543,0-3,1.3457-3,3s1.3457,3,3,3,3-1.3457,3-3-1.3457-3-3-3ZM45.5,50c-.55176,0-1-.44824-1-1s.44824-1,1-1,1,.44824,1,1-.44824,1-1,1Z"/>
  <circle cx="46" cy="22" r="1"/>
  <path d="M44,33c-.55273,0-1,.44727-1,1s.44727,1,1,1h4c.55273,0,1-.44727,1-1s-.44727-1-1-1h-1v-8c0-.55273-.44727-1-1-1h-2c-.55273,0-1,.44727-1,1s.44727,1,1,1h1v7h-1Z"/>
  <path d="M35.14648,37.47852c-.18848.30859-.19531.69531-.01855,1.01074s.51074.51074.87207.51074h10c6.06543,0,11-4.93457,11-11s-4.93457-11-11-11-11,4.93457-11,11c0,2.28613.7207,4.52441,2.04102,6.37891l-1.89453,3.09961ZM37,28c0-4.96289,4.03711-9,9-9s9,4.03711,9,9-4.03711,9-9,9h-8.2168l1.32129-2.16113c.2207-.3623.18945-.8252-.0791-1.1543-1.30566-1.59961-2.02539-3.61914-2.02539-5.68457Z"/>
  <path d="M13,14h4c.55273,0,1-.44727,1-1s-.44727-1-1-1h-4c-.55273,0-1,.44727-1,1s.44727,1,1,1Z"/>
  <path d="M13,18h4c.55273,0,1-.44727,1-1s-.44727-1-1-1h-4c-.55273,0-1,.44727-1,1s.44727,1,1,1Z"/>
  <circle cx="48" cy="42" r="1"/>
</svg>