<?xml version="1.0" encoding="UTF-8"?>
<svg id="Outline" xmlns="http://www.w3.org/2000/svg" version="1.1" viewBox="0 0 64 64">
  <!-- Generator: Adobe Illustrator 29.5.1, SVG Export Plug-In . SVG Version: 2.1.0 Build 141)  -->
  <path d="M56.45,35.11l-1.45-.73v-4.38c0-12.68-10.32-23-23-23S9,17.32,9,30v4.38l-1.45.73c-.34.16-.55.51-.55.89v8c0,.38.21.73.55.89l3.45,1.73v.38c0,1.65,1.35,3,3,3h2c1.65,0,3-1.35,3-3v-14c0-1.65-1.35-3-3-3h-1c0-9.37,7.63-17,17-17s17,7.63,17,17h-1c-1.65,0-3,1.35-3,3v14c0,1.65,1.35,3,3,3h2c1.65,0,3-1.35,3-3v-.38l3.45-1.73c.34-.16.55-.51.55-.89v-8c0-.38-.21-.73-.55-.89ZM11,44.38l-2-1v-6.76l2-1v8.76ZM16,32c.55,0,1,.45,1,1v14c0,.55-.45,1-1,1h-2c-.55,0-1-.45-1-1v-14c0-.55.45-1,1-1h2ZM51,47c0,.55-.45,1-1,1h-2c-.55,0-1-.45-1-1v-14c0-.55.45-1,1-1h2c.55,0,1,.45,1,1v14ZM51,30.18v-.18c0-10.48-8.52-19-19-19S13,19.52,13,30v.18c-1.16.42-2,1.52-2,2.82v-3c0-11.58,9.42-21,21-21s21,9.42,21,21v3c0-1.3-.84-2.4-2-2.82ZM55,43.38l-2,1v-8.76l2,1v6.76Z"/>
  <path d="M27,29c.552,0,1-.448,1-1v-2h2v2c0,.552.448,1,1,1s1-.448,1-1v-6c0-.552-.448-1-1-1s-1,.448-1,1v2h-2v-2c0-.552-.448-1-1-1s-1,.448-1,1v6c0,.552.448,1,1,1Z"/>
  <path d="M35,29c.552,0,1-.448,1-1v-4c0-.552-.448-1-1-1s-1,.448-1,1v4c0,.552.448,1,1,1Z"/>
  <path d="M41,25c0-5.514-4.486-10-10-10s-10,4.486-10,10c0,2.335.795,4.548,2.257,6.329l-1.964,1.964c-.286.286-.372.716-.217,1.09.155.374.52.617.924.617h9c5.514,0,10-4.486,10-10ZM25.343,30.657c-1.511-1.511-2.343-3.52-2.343-5.657,0-4.411,3.589-8,8-8s8,3.589,8,8-3.589,8-8,8h-6.586l.929-.929c.188-.188.293-.442.293-.707s-.105-.52-.293-.707Z"/>
  <path d="M33,43c-.552,0-1,.448-1,1v2h-2v-2c0-.552-.448-1-1-1s-1,.448-1,1v6c0,.552.448,1,1,1s1-.448,1-1v-2h2v2c0,.552.448,1,1,1s1-.448,1-1v-6c0-.552-.448-1-1-1Z"/>
  <path d="M37,45c-.552,0-1,.448-1,1v4c0,.552.448,1,1,1s1-.448,1-1v-4c0-.552-.448-1-1-1Z"/>
  <path d="M42.707,38.707c.286-.286.372-.716.217-1.09-.155-.374-.52-.617-.924-.617h-9c-5.514,0-10,4.486-10,10s4.486,10,10,10,10-4.486,10-10c0-2.335-.795-4.548-2.257-6.329l1.964-1.964ZM41,47c0,4.411-3.589,8-8,8s-8-3.589-8-8,3.589-8,8-8h6.586l-.929.929c-.188.188-.293.442-.293.707s.105.52.293.707c1.511,1.511,2.343,3.52,2.343,5.657Z"/>
</svg>