<?xml version="1.0" encoding="UTF-8"?>
<svg id="Outline" xmlns="http://www.w3.org/2000/svg" version="1.1" viewBox="0 0 64 64">
  <!-- Generator: Adobe Illustrator 29.5.1, SVG Export Plug-In . SVG Version: 2.1.0 Build 141)  -->
  <path d="M31,14c0-1.654-1.346-3-3-3s-3,1.346-3,3c0,.552.447,1,1,1s1-.448,1-1,.448-1,1-1,1,.449,1,1c0,1.022-.398,1.984-1.121,2.707l-2.586,2.586c-.286.286-.372.716-.217,1.09.154.374.52.617.924.617h4c.553,0,1-.448,1-1s-.447-1-1-1h-1.586l.879-.879c1.101-1.101,1.707-2.564,1.707-4.121Z"/>
  <path d="M44.242,11.03c-.537-.138-1.079.192-1.212.728l-2,8c-.135.536.191,1.079.728,1.213.528.133,1.08-.199,1.212-.728l2-8c.135-.536-.191-1.079-.728-1.213Z"/>
  <path d="M52,11h-4c-.553,0-1,.448-1,1s.447,1,1,1h2.719l-1.688,6.757c-.135.536.191,1.079.728,1.213.527.133,1.08-.199,1.212-.728l2-8c.075-.299.008-.615-.182-.858s-.48-.385-.788-.385Z"/>
  <path d="M54,7h-30c-1.65,0-3,1.35-3,3v16c0,.52.45,1,1,1,.15,0,.31-.04.45-.11l3.79-1.89h27.76c1.65,0,3-1.35,3-3v-12c0-1.65-1.35-3-3-3ZM55,22c0,.55-.45,1-1,1h-28c-.16,0-.31.04-.45.11l-2.55,1.27v-14.38c0-.55.45-1,1-1h30c.55,0,1,.45,1,1v12Z"/>
  <path d="M39,12v8c0,.55-.45,1-1,1s-1-.45-1-1v-3h-3c-.55,0-1-.45-1-1v-4c0-.55.45-1,1-1s1,.45,1,1v3h2v-3c0-.55.45-1,1-1s1,.45,1,1Z"/>
  <path d="M21,29c-7.72,0-14,6.28-14,14s6.28,14,14,14,14-6.28,14-14-6.28-14-14-14ZM21,55c-6.617,0-12-5.383-12-12s5.383-12,12-12,12,5.383,12,12-5.383,12-12,12Z"/>
  <path d="M21,46c1.654,0,3-1.346,3-3,0-1.302-.839-2.402-2-2.816v-6.184c0-.552-.447-1-1-1s-1,.448-1,1v6.184c-1.161.414-2,1.514-2,2.816,0,1.654,1.346,3,3,3ZM21,42c.552,0,1,.449,1,1s-.448,1-1,1-1-.449-1-1,.448-1,1-1Z"/>
  <path d="M29,43c0,4.411-3.589,8-8,8s-8-3.589-8-8c0-3.058,1.703-5.803,4.445-7.165.494-.246.696-.846.45-1.34-.246-.494-.844-.698-1.341-.451-3.426,1.702-5.555,5.133-5.555,8.956,0,5.514,4.486,10,10,10s10-4.486,10-10c0-.552-.447-1-1-1s-1,.448-1,1Z"/>
</svg>