<?xml version="1.0" encoding="UTF-8"?>
<svg id="Outline" xmlns="http://www.w3.org/2000/svg" version="1.1" viewBox="0 0 64 64">
  <!-- Generator: Adobe Illustrator 29.0.0, SVG Export Plug-In . SVG Version: 2.1.0 Build 186)  -->
  <path d="M55.45207,48.74946l-10.76312-9.46045c.48334-.67816.94165-1.37585,1.3515-2.10693.21924-.39062.15186-.87988-.16504-1.19629l-2.47479-2.47479c1.00415-2.31305,1.56757-4.85986,1.56757-7.5379,0-3.59766-1.01465-7.10254-2.93506-10.13477-.2959-.4668-.9126-.60645-1.37988-.30957-.46631.29492-.60498.91309-.30957,1.37988,1.7168,2.71191,2.62451,5.8457,2.62451,9.06445,0,9.37402-7.62598,17-17,17s-17-7.62598-17-17,7.62598-17,17-17c3.21875,0,6.35352.9082,9.06494,2.625.46533.29492,1.08398.15723,1.37988-.30957.29541-.4668.15674-1.08496-.30957-1.37988-3.03271-1.9209-6.53711-2.93555-10.13525-2.93555C15.49162,6.97309,6.96818,15.49653,6.96818,25.97309s8.52344,19,19,19c2.67804,0,5.22491-.56342,7.53796-1.56757l2.47522,2.47479c.19238.19238.44824.29297.70752.29297.16699,0,.33545-.04199.48877-.12793.7309-.40985,1.42841-.86816,2.10645-1.35144,0,0,9.44868,10.74961,9.46093,10.76354,1.76155,2.00409,5.05243,2.10033,6.93011.22275,1.89946-1.89936,1.78546-5.16555-.22307-6.93074ZM36.85002,43.92036l-1.46692-1.46631c2.93799-1.68512,5.38098-4.12811,7.0661-7.06616l1.46674,1.46704c-1.75684,2.8877-4.17871,5.30957-7.06592,7.06543ZM54.26115,54.26606c-1.1057,1.10668-2.98535,1.04149-4.01416-.12891l-9.37958-10.67102c.93219-.79474,1.79907-1.6615,2.59381-2.59381,0,0,10.66112,9.37081,10.67053,9.37908,1.17993,1.03713,1.2383,2.9046.1294,4.01465Z"/>
  <path d="M40.0922,29.21528c.50049-.0625.87598-.48828.87598-.99219v-4.5c0-.50391-.37549-.92969-.87598-.99219l-2.68066-.33496c-.21387-.68555-.48877-1.34961-.82178-1.98438l1.6582-2.13281c.30957-.39844.27393-.96484-.08252-1.32129l-3.18164-3.18164c-.35645-.35645-.92334-.39258-1.3208-.08203l-2.13232,1.6582c-.63525-.33301-1.29932-.6084-1.98535-.82227l-.33496-2.68066c-.0625-.5-.48779-.87598-.99219-.87598h-4.5c-.50439,0-.92969.37598-.99219.87598l-.33496,2.68066c-.68604.21387-1.3501.48926-1.98535.82227l-2.13232-1.6582c-.39795-.31055-.96484-.27441-1.3208.08203l-3.18164,3.18164c-.35645.35645-.39209.92285-.08252,1.32129l1.6582,2.13281c-.33301.63477-.60791,1.29883-.82178,1.98438l-2.68066.33496c-.50049.0625-.87598.48828-.87598.99219v4.5c0,.50391.37549.92969.87598.99219l2.68066.33496c.21387.68555.48877,1.34961.82178,1.98438l-1.6582,2.13281c-.30957.39844-.27393.96484.08252,1.32129l3.18164,3.18164c.35596.35742.92285.39355,1.3208.08203l2.13232-1.6582c.63525.33301,1.29932.6084,1.98535.82227l.33496,2.68066c.0625.5.48779.87598.99219.87598h4.5c.50439,0,.92969-.37598.99219-.87598l.33496-2.68066c.68604-.21387,1.3501-.48926,1.98535-.82227l2.13232,1.6582c.39746.31152.96436.27539,1.3208-.08203l3.18164-3.18164c.35645-.35645.39209-.92285.08252-1.32129l-1.6582-2.13281c.33301-.63477.60791-1.29883.82178-1.98438l2.68066-.33496ZM36.5048,27.64789c-.40967.05078-.74609.34863-.84619.75-.23926.95703-.6167,1.86914-1.12305,2.71094-.21289.35449-.18604.80273.06738,1.12988l1.52441,1.95996-1.93359,1.93359-1.95996-1.52441c-.32666-.25391-.77539-.28223-1.12939-.06738-.8418.50586-1.75391.88379-2.71045,1.12207-.40137.10059-.69922.43652-.75049.84668l-.30811,2.46387h-2.73438l-.30811-2.46387c-.05127-.41016-.34912-.74609-.75049-.84668-.95654-.23828-1.86865-.61621-2.71045-1.12207-.35449-.21484-.8042-.18652-1.12939.06738l-1.95996,1.52441-1.93359-1.93359,1.52441-1.95996c.25342-.32715.28027-.77539.06738-1.12988-.50635-.8418-.88379-1.75391-1.12305-2.71094-.1001-.40137-.43652-.69922-.84619-.75l-2.46338-.30762v-2.73438l2.46338-.30762c.40967-.05078.74609-.34863.84619-.75.23926-.95703.6167-1.86914,1.12305-2.71094.21289-.35449.18604-.80273-.06738-1.12988l-1.52441-1.95996,1.93359-1.93359,1.95996,1.52441c.32617.25391.7749.28223,1.12939.06738.8418-.50586,1.75391-.88379,2.71045-1.12207.40137-.10059.69922-.43652.75049-.84668l.30811-2.46387h2.73438l.30811,2.46387c.05127.41016.34912.74609.75049.84668.95654.23828,1.86865.61621,2.71045,1.12207.354.21484.80371.18652,1.12939-.06738l1.95996-1.52441,1.93359,1.93359-1.52441,1.95996c-.25342.32715-.28027.77539-.06738,1.12988.50635.8418.88379,1.75391,1.12305,2.71094.1001.40137.43652.69922.84619.75l2.46338.30762v2.73438l-2.46338.30762Z"/>
  <path d="M25.96818,18.97309c-3.85986,0-7,3.14062-7,7s3.14014,7,7,7,7-3.14062,7-7-3.14014-7-7-7ZM25.96818,30.97309c-2.75684,0-5-2.24316-5-5s2.24316-5,5-5,5,2.24316,5,5-2.24316,5-5,5Z"/>
  <path d="M39.40324,13.95228c.3905-.39056.3905-1.02368,0-1.41425-.39056-.3905-1.02374-.3905-1.41425,0-.3905.39056-.3905,1.02368,0,1.41425.3905.3905,1.02368.3905,1.41425,0Z"/>
</svg>