<?xml version="1.0" encoding="UTF-8"?>
<svg id="Outline" xmlns="http://www.w3.org/2000/svg" version="1.1" viewBox="0 0 64 64">
  <!-- Generator: Adobe Illustrator 29.5.1, SVG Export Plug-In . SVG Version: 2.1.0 Build 141)  -->
  <path d="M51.938,35.298c.174-1.1.262-2.207.262-3.298s-.088-2.198-.262-3.298l3.942-3.833c.328-.319.397-.821.169-1.217l-4.8-8.304c-.23-.397-.698-.588-1.141-.461l-5.291,1.509c-1.712-1.427-3.63-2.536-5.715-3.303l-1.334-5.334c-.111-.445-.511-.757-.97-.757h-9.6c-.459,0-.858.312-.97.757l-1.334,5.334c-2.085.768-4.003,1.876-5.715,3.303l-5.291-1.509c-.44-.126-.911.064-1.141.461l-4.8,8.304c-.229.396-.159.898.169,1.217l3.942,3.833c-.174,1.1-.262,2.207-.262,3.298s.088,2.198.262,3.298l-3.942,3.833c-.328.319-.397.821-.169,1.217l4.8,8.304c.229.396.699.586,1.141.461l5.291-1.509c1.712,1.427,3.63,2.536,5.715,3.303l1.334,5.334c.111.445.511.757.97.757h9.6c.459,0,.858-.312.97-.757l1.334-5.334c2.085-.768,4.003-1.876,5.715-3.303l5.291,1.509c.442.125.911-.065,1.141-.461l4.8-8.304c.229-.396.159-.898-.169-1.217l-3.942-3.833ZM49.908,46.977l-5.058-1.442c-.328-.092-.681-.013-.936.212-1.755,1.546-3.764,2.707-5.971,3.45-.323.109-.568.375-.65.705l-1.275,5.099h-8.037l-1.275-5.099c-.082-.331-.327-.596-.65-.705-2.207-.743-4.216-1.904-5.971-3.45-.254-.225-.605-.303-.936-.212l-5.058,1.442-4.02-6.955,3.761-3.657c.239-.232.347-.569.286-.897-.212-1.155-.319-2.321-.319-3.467s.107-2.312.319-3.467c.061-.328-.047-.665-.286-.897l-3.761-3.657,4.02-6.955,5.058,1.442c.329.092.681.014.936-.212,1.755-1.546,3.764-2.707,5.971-3.45.323-.109.568-.375.65-.705l1.275-5.099h8.037l1.275,5.099c.082.331.327.596.65.705,2.207.743,4.216,1.904,5.971,3.45.255.226.608.305.936.212l5.058-1.442,4.02,6.955-3.761,3.657c-.239.232-.347.569-.286.897.212,1.155.319,2.321.319,3.467s-.107,2.312-.319,3.467c-.061.328.047.665.286.897l3.761,3.657-4.02,6.955Z"/>
  <path d="M40,23c0-3.514-2.35-6.667-5.715-7.668-.302-.089-.629-.032-.883.157-.253.189-.402.486-.402.802v6.71h-2v-6.71c0-.316-.149-.613-.402-.802s-.58-.246-.883-.157c-3.365,1.001-5.715,4.155-5.715,7.668,0,.619.092,1.219.228,1.806-1.821,1.968-2.828,4.496-2.828,7.194,0,4.589,2.929,8.636,7.286,10.07,1.067.352,2.183.53,3.313.53,5.786,0,10.6-4.822,10.6-10.6,0-2.698-1.007-5.225-2.828-7.193.136-.587.228-1.188.228-1.807ZM23.4,32c0-1.846.583-3.595,1.65-5.057.702,1.228,1.717,2.263,2.95,2.979v9.689c-2.798-1.467-4.6-4.371-4.6-7.611ZM30,40.337v-11.017c0-.386-.222-.737-.569-.903-1.505-.717-2.655-2.036-3.157-3.62-.182-.57-.273-1.175-.273-1.797,0-2.16,1.184-4.139,3-5.195v6.195c0,.552.447,1,1,1h4c.553,0,1-.448,1-1v-6.195c1.816,1.057,3,3.035,3,5.195,0,.622-.092,1.227-.273,1.798-.502,1.583-1.652,2.902-3.157,3.619-.348.166-.569.517-.569.903v11.017c-1.312.313-2.687.313-4,0ZM36,39.611v-9.689c1.233-.715,2.248-1.751,2.95-2.978,1.067,1.462,1.65,3.21,1.65,5.056,0,3.24-1.802,6.144-4.6,7.611Z"/>
</svg>