<?xml version="1.0" encoding="UTF-8"?>
<svg id="Outline" xmlns="http://www.w3.org/2000/svg" version="1.1" viewBox="0 0 64 64">
  <!-- Generator: Adobe Illustrator 29.3.1, SVG Export Plug-In . SVG Version: 2.1.0 Build 151)  -->
  <path d="M56,27c0-2.86316-2.02448-5.24377-4.71136-5.83783,2.00732-2.34448,5.71747-9.0976,3.18304-11.63385-2.32043-2.31537-8.15265.58258-10.93103,2.63129-1.02588-.74854-2.25275-1.15961-3.54065-1.15961-.76172,0-1.50684.14648-2.20801.43066-.69141-2.5498-3.02637-4.43066-5.79199-4.43066-2.76172,0-5.09375,1.87598-5.78906,4.43164-.70215-.28418-1.44824-.43164-2.21094-.43164-1.28784,0-2.51465.41101-3.54053,1.15955-2.77875-2.04889-8.61407-4.94745-10.93115-2.63123-2.53442,2.53625,1.17572,9.28937,3.18304,11.63385-2.68689.59406-4.71136,2.97467-4.71136,5.83783,0,1.56348.62891,3.07031,1.7168,4.18457-.4707.87109-.7168,1.83008-.7168,2.81543,0,2.76172,1.87598,5.09375,4.43164,5.78906-.28418.70215-.43164,1.44824-.43164,2.21094,0,3.30859,2.69141,6,6,6,.0293,0,.05957,0,.08887-.00098-.05859.33203-.08887.66602-.08887,1.00098,0,3.30859,2.69141,6,6,6,.74707,0,1.49414-.14844,2.20215-.43359,1.12305,1.52148,2.88672,2.43359,4.79785,2.43359s3.6748-.91211,4.79785-2.43359c.70801.28516,1.45508.43359,2.20215.43359,3.30859,0,6-2.69141,6-6,0-.33496-.03027-.66895-.08887-1.00098.0293.00098.05957.00098.08887.00098,3.30859,0,6-2.69141,6-6,0-.76172-.14648-1.50684-.43066-2.20801,2.5498-.69141,4.43066-3.02637,4.43066-5.79199,0-.98535-.24609-1.94434-.7168-2.81543,1.08789-1.11426,1.7168-2.62109,1.7168-4.18457ZM52.04102,10.66309c.5166,0,.85059.11328,1.0166.2793.39355.39355.49219,1.73438-.52246,4.21875-.87988,2.15332-2.20898,4.16992-3.01367,4.97363-.69824.69824-1.45801.9707-2.31641.83105-.72101-.11548-1.48126-.5285-2.22424-1.1731.4906-1.78674,1.58838-3.32288,3.14612-4.36108l1.24219-.82812c.45996-.30664.58398-.92676.27734-1.38672-.30566-.45898-.92578-.58398-1.38672-.27734l-1.24219.82812c-1.58936,1.05908-2.80048,2.52997-3.5332,4.24615-.22894-.41187-.3866-.82166-.4502-1.21881-.1377-.86133.13379-1.61914.83105-2.31641.80371-.80469,2.82031-2.13379,4.97363-3.01367,1.4375-.58789,2.49219-.80176,3.20215-.80176ZM10.94238,10.94238c.16602-.16602.5-.2793,1.0166-.2793.70996,0,1.76465.21484,3.20215.80176,2.15332.87988,4.16992,2.20898,4.97363,3.01367.69727.69727.96875,1.45508.83105,2.31641-.0636.39716-.22125.80695-.4502,1.21881-.73273-1.71619-1.94385-3.18707-3.5332-4.24615l-1.24219-.82812c-.46094-.30664-1.08203-.18164-1.38672.27734-.30664.45996-.18262,1.08008.27734,1.38672l1.24219.82812c1.55774,1.03821,2.65552,2.57434,3.14612,4.36108-.74298.64459-1.50323,1.05762-2.22424,1.1731-.8584.13867-1.61914-.13281-2.31641-.83105-.80469-.80371-2.13379-2.82031-3.01367-4.97363-1.01465-2.48438-.91602-3.8252-.52246-4.21875ZM52.38281,30.19824c-.21289.15918-.35449.39648-.39258.65918-.03711.2627.03125.53027.19043.74219.53613.71484.81934,1.54492.81934,2.40039,0,2.20605-1.79395,4-4.01953,4-.37891,0-.72461.21387-.89453.55273-.16895.33887-.13281.74414.09473,1.04688.53613.71484.81934,1.54492.81934,2.40039,0,2.20605-1.79395,4-4,4-.39355,0-.81152-.07617-1.24316-.22559-.38281-.13281-.8125-.01855-1.08105.28809-.26758.30762-.32227.74609-.1377,1.11035.30664.60352.46191,1.21777.46191,1.82715,0,2.20605-1.79395,4-4,4-.7041,0-1.41504-.20312-2.05566-.58789-.2373-.1416-.52148-.17871-.78809-.10449-.26562.07617-.48926.25781-.61523.50391-.69629,1.34961-2.05273,2.18848-3.54102,2.18848s-2.84473-.83887-3.54102-2.18848c-.12598-.24609-.34961-.42773-.61523-.50391-.26465-.07422-.55078-.03711-.78809.10449-.64062.38477-1.35156.58789-2.05566.58789-2.20605,0-4-1.79395-4-4,0-.60938.15527-1.22363.46191-1.82715.18457-.36426.12988-.80273-.1377-1.11035-.26855-.30664-.69824-.4209-1.08105-.28809-.43164.14941-.84961.22559-1.24316.22559-2.20605,0-4-1.79395-4-4,0-.85547.2832-1.68555.81934-2.40039.22754-.30273.25391-.70801.08496-1.04688-.16992-.33887-.52539-.55273-.9043-.55273-2.20605,0-4-1.79395-4-4,0-.85547.2832-1.68555.81934-2.40039.15918-.21191.22754-.47949.19043-.74219-.03809-.2627-.17969-.5-.39258-.65918-1.02734-.7666-1.61719-1.93262-1.61719-3.19824,0-2.20605,1.79395-4,4-4,.29242,0,.54938-.12988.73218-.32965.52161.21246,1.06812.33063,1.63599.33063.24412,0,.49215-.02051.74311-.06054,2.69242-.4295,5.39856-3.1446,5.82915-5.82911.20654-1.28784-.12372-2.50171-.95044-3.54761,1.34546-.76562,3.09387-.73218,4.4104.25562.30273.22754.70801.25293,1.04688.08496.33887-.16992.55273-.52539.55273-.9043,0-2.20605,1.79395-4,4-4s4,1.79395,4,4.01953c0,.37891.21387.72461.55273.89453.33984.16895.74512.13379,1.04688-.09473,1.31659-.987,3.06427-1.02032,4.4101-.25519-.82646,1.04576-1.1566,2.25942-.95014,3.54712.43248,2.69739,3.13332,5.3991,5.82911,5.82916.25098.04004.49902.06055.74316.06055.56775,0,1.11438-.11816,1.63605-.33057.1828.19971.43976.32959.73212.32959,2.20605,0,4,1.79395,4,4,0,1.26562-.58984,2.43164-1.61719,3.19824Z"/>
  <path d="M43.09277,22.44629c-.22266-.33594-.62207-.50586-1.02246-.42773-.39648.07617-.70801.38379-.79004.77832-.28906,1.39648-1.53418,2.40918-2.96094,2.40918-.54395,0-1.06055-.14746-1.5332-.4375-.25-.15625-.55469-.18945-.83398-.09863s-.50391.30078-.61523.57227c-.56152,1.37402-1.87109,2.26172-3.33691,2.26172s-2.77539-.8877-3.33691-2.26172c-.11133-.27148-.33594-.48145-.61523-.57227-.27832-.08984-.58301-.05664-.83398.09863-.47266.29004-.98926.4375-1.5332.4375-1.41895,0-2.66504-1.01074-2.96289-2.40332-.08398-.39355-.39551-.69824-.79004-.77344-.39355-.0752-.79688.09277-1.01953.42773l-2.37207,3.55957c-.86523,1.45898-1.32324,3.11328-1.32324,4.78516,0,2.48926.96875,4.8291,2.72852,6.58887l1.29785,1.29883c1.90918,1.90918,3.12207,4.33594,3.50977,7.01953.18359,1.27539.69922,2.48047,1.49023,3.48535.80664,1.02441,1.8623,1.81152,3.0498,2.27637.8916.35156,1.80371.5293,2.71094.5293s1.81934-.17773,2.70801-.52832c1.19043-.46582,2.24609-1.25293,3.05273-2.27734.79102-1.00488,1.30664-2.20996,1.49121-3.48633.38672-2.68262,1.59961-5.10938,3.50879-7.01855l1.29785-1.29883c1.75977-1.75977,2.72852-4.09961,2.72852-6.58887,0-1.67188-.45801-3.32617-1.35059-4.82812l-2.34375-3.52734ZM42.64453,35.97656l-1.29785,1.29883c-2.2168,2.2168-3.62598,5.03418-4.07422,8.14648-.13477.92969-.50977,1.80664-1.08398,2.53613-.58496.74414-1.34961,1.31445-2.21191,1.65137-.32483.1286-.65045.22443-.97656.28943v-2.48474l2.70703-2.70703c.39062-.39062.39062-1.02344,0-1.41406s-1.02344-.39062-1.41406,0l-2.29297,2.29297-2.29297-2.29297c-.39062-.39062-1.02344-.39062-1.41406,0s-.39062,1.02344,0,1.41406l2.70703,2.70703v2.4845c-.32672-.06512-.65332-.16113-.97949-.29016-.85938-.33594-1.62402-.90625-2.20898-1.65039-.57422-.72949-.94922-1.60645-1.08301-2.53516-.44922-3.11328-1.8584-5.93066-4.0752-8.14746l-1.29785-1.29883c-1.38184-1.38184-2.14258-3.21973-2.14258-5.1748,0-1.3125.36035-2.61426,1.01562-3.71973l1.34375-2.0166c.92383,1.30469,2.44434,2.14062,4.1084,2.14062.55078,0,1.09668-.09375,1.61523-.27539,1.02148,1.59082,2.77539,2.57324,4.7041,2.57324s3.68262-.98242,4.7041-2.57324c.51855.18164,1.06445.27539,1.61523.27539,1.66992,0,3.19141-.83594,4.11133-2.14258l1.3125,1.97461c.68359,1.14941,1.04395,2.45117,1.04395,3.76367,0,1.95508-.76074,3.79297-2.14258,5.1748Z"/>
  <path d="M25,29c-1.6543,0-3,1.3457-3,3s1.3457,3,3,3,3-1.3457,3-3-1.3457-3-3-3ZM25,33c-.55176,0-1-.44824-1-1s.44824-1,1-1,1,.44824,1,1-.44824,1-1,1Z"/>
  <path d="M39,29c-1.6543,0-3,1.3457-3,3s1.3457,3,3,3,3-1.3457,3-3-1.3457-3-3-3ZM39,33c-.55176,0-1-.44824-1-1s.44824-1,1-1,1,.44824,1,1-.44824,1-1,1Z"/>
  <path d="M25,20c.55273,0,1-.44727,1-1,0-.55176.44824-1,1-1s1,.44824,1,1c0,.55273.44727,1,1,1s1-.44727,1-1c0-1.6543-1.3457-3-3-3s-3,1.3457-3,3c0,.55273.44727,1,1,1Z"/>
  <path d="M29,24c0,.55273.44727,1,1,1s1-.44727,1-1c0-.55176.44824-1,1-1s1,.44824,1,1c0,.55273.44727,1,1,1s1-.44727,1-1c0-1.6543-1.3457-3-3-3s-3,1.3457-3,3Z"/>
  <path d="M34,20c.55273,0,1-.44727,1-1,0-.55176.44824-1,1-1s1,.44824,1,1c0,.55273.44727,1,1,1s1-.44727,1-1c0-1.6543-1.3457-3-3-3s-3,1.3457-3,3c0,.55273.44727,1,1,1Z"/>
</svg>