<?xml version="1.0" encoding="UTF-8"?>
<svg id="Outline" xmlns="http://www.w3.org/2000/svg" version="1.1" viewBox="0 0 64 64">
  <!-- Generator: Adobe Illustrator 29.0.0, SVG Export Plug-In . SVG Version: 2.1.0 Build 186)  -->
  <path d="M53,22c.55273,0,1-.44727,1-1v-9c0-.48047-.34082-.89258-.81251-.98242l-21-4c-.125-.02344-.25-.02344-.375,0l-21,4c-.47167.08984-.81249.50195-.81249.98242v16.16016c0,13.30469,8.93359,25.14844,21.72559,28.80176.08984.02539.18164.03809.27441.03809s.18457-.0127.27441-.03809c12.79199-3.65332,21.72559-15.49707,21.72559-28.80176v-3.16016c0-.55273-.44727-1-1-1s-1,.44727-1,1v3.16016c0,12.32129-8.20996,23.29883-20,26.79785-11.79004-3.49902-20-14.47656-20-26.79785v-15.33301l20-3.80957,20,3.80957v8.17285c0,.55273.44727,1,1,1Z"/>
  <path d="M50,19v9.15997c0,11.15002-7.10999,21.04004-17.67999,24.60004-.10004.02997-.21002.04999-.32001.04999s-.21997-.02002-.32001-.04999c-10.57001-3.56-17.67999-13.45001-17.67999-24.60004v-3.15997c0-.54999.45001-1,1-1s1,.45001,1,1v3.15997c0,10.17999,6.41998,19.22003,16,22.59003,9.58002-3.37,16-12.41003,16-22.59003v-8.26001c-2.15997-.44-3.82001-2.27997-3.98999-4.51996l-12.01001-2.29004-12.01001,2.29004c-.16998,2.23999-1.83002,4.07996-3.98999,4.51996v1.10004c0,.54999-.45001,1-1,1s-1-.45001-1-1v-2c0-.54999.45001-1,1-1,1.65002,0,3-1.35004,3-3.00004-.00005-.62058-.00329-1.27271.77002-1.42001l13.03998-2.48999c.13-.02997.25-.02997.38,0l13.03996,2.48999c.7522.14363.77004.80827.77004,1.42005,0,1.64996,1.34998,3,3,3,.54999,0,1,.45001,1,1Z"/>
  <path d="M25.87402,40.87598l.43847.6709c.18165.27832.48829.44727.82032.45312h.0166c.3252,0,.63086-.1582.81836-.42578l.56055-.79785c4.67969-6.66113,10.46191-12.36426,17.18457-16.9502.3623-.24707.52148-.70215.3916-1.12109-.12891-.41895-.5166-.70508-.95508-.70508h-2.66113c-2.38672,0-4.77734.56445-6.91113,1.63184-1.81543.90625-3.41211,2.14355-4.74805,3.67773l-3.90723,4.49121-4.90918-2.66406c-.38672-.20996-.87012-.1416-1.18359.17188l-2.68555,2.68652c-.2168.2168-.32227.52148-.28613.8252.03613.30469.20996.5752.47168.73535,3.00781,1.83691,5.61621,4.36816,7.54492,7.32031ZM21.71582,31.25098l4.95605,2.69043c.41211.22461.92383.13281,1.23242-.22266l4.43359-5.09668c1.16309-1.33496,2.55273-2.41211,4.13379-3.20117,1.71973-.86035,3.62891-1.34473,5.55078-1.41309-5.70605,4.28125-10.69043,9.38867-14.84766,15.21875-1.80859-2.61523-4.11426-4.90234-6.74219-6.69238l1.2832-1.2832Z"/>
</svg>