<?xml version="1.0" encoding="UTF-8"?>
<svg id="Outline" xmlns="http://www.w3.org/2000/svg" version="1.1" viewBox="0 0 64 64">
  <!-- Generator: Adobe Illustrator 29.3.1, SVG Export Plug-In . SVG Version: 2.1.0 Build 151)  -->
  <path d="M55,31h-20v-7c0-.27002-.10999-.52002-.28998-.71002l-8-8c-.19-.17999-.44-.28998-.71002-.28998h-3.76001c-.09998-.23999-.17999-.48999-.27997-.73004-2.24005-5.13995-6.19-8.20996-9-7-.88.38-1.56,1.14001-1.98004,2.20001-.88,2.25-.51996,5.76001.94,9.13.01001.01001.02002.03003.02002.04004l-4.65002,4.64996c-.17999.19-.28998.44-.28998.71002v29c0,1.09998.90002,2,2,2h20c0,1.09998.90002,2,2,2h22c1.09998,0,2-.90002,2-2v-7c0-.54999-.45001-1-1-1s-1,.45001-1,1v7h-22v-16h6v2c0,.34998.17999.66998.46997.84998.30005.17999.67004.20001.98004.04004l3.54999-1.77002,3.54999,1.77002c.14001.06995.29999.10999.45001.10999.17999,0,.37-.04999.53003-.15002.28998-.17999.46997-.5.46997-.84998v-2h6v5c0,.54999.45001,1,1,1s1-.45001,1-1v-5c1.09998,0,2-.90002,2-2v-4c0-1.10004-.90002-2-2-2ZM23,23c0,1.09998-.90002,2-2,2s-2-.90002-2-2c0-1.10004.90002-2,2-2s2,.89996,2,2ZM12.84998,10.20001c.22003-.56.52002-.93005.91003-1.09003,1.48999-.64001,4.5,1.72998,6.33002,5.89001h-4.09003c-.27002,0-.52002.10999-.71002.28998l-1.81,1.81c-1.01001-2.64001-1.26996-5.28998-.63-6.89996ZM29,49H13v-8c0-.54999-.45001-1-1-1s-1,.45001-1,1v8c0,1.09998.90002,2,2,2h16v2H9v-28.59003l7.40997-7.40997h4.40002c.21002.69.37,1.37.46002,2.02997-.09003-.01001-.17999-.02997-.27002-.02997-2.21002,0-4,1.78998-4,4s1.78998,4,4,4,4-1.79004,4-4c0-1.33002-.65997-2.5-1.65997-3.23004-.05005-.87994-.20001-1.81-.45001-2.76996h2.70001l7.40997,7.40997v6.59003H13c-1.09998,0-2,.89996-2,2v4c0,.54999.45001,1,1,1s1-.45001,1-1v-4h14v4c0,1.09998.90002,2,2,2v10ZM37,37h-8v-4h8v4ZM45,39.38l-2.54999-1.27002c-.14001-.07001-.29999-.10999-.45001-.10999s-.31.03998-.45001.10999l-2.54999,1.27002v-6.38h6v6.38ZM55,37h-8v-4h8v4Z"/>
  <path d="M34,47c-.55225,0-1,.44727-1,1v4c0,.55273.44775,1,1,1h8c.55225,0,1-.44727,1-1v-4c0-.55273-.44775-1-1-1h-8ZM41,51h-6v-2h6v2Z"/>
  <path d="M26,45h-10c-.55225,0-1,.44727-1,1s.44775,1,1,1h10c.55225,0,1-.44727,1-1s-.44775-1-1-1Z"/>
  <path d="M16,43h6c.55225,0,1-.44727,1-1s-.44775-1-1-1h-6c-.55225,0-1,.44727-1,1s.44775,1,1,1Z"/>
</svg>