<?xml version="1.0" encoding="UTF-8"?>
<svg id="Outline" xmlns="http://www.w3.org/2000/svg" version="1.1" viewBox="0 0 64 64">
  <!-- Generator: Adobe Illustrator 29.0.0, SVG Export Plug-In . SVG Version: 2.1.0 Build 186)  -->
  <path d="M49.99956,49h-13c-.55225,0-1,.44727-1,1s.44775,1,1,1h9.55634c-.34448.5907-.55634,1.26813-.55634,2,0,2.20605,1.79443,4,4,4s4-1.79395,4-4-1.79443-4-4-4ZM49.99956,55c-1.10303,0-2-.89746-2-2s.89697-2,2-2,2,.89746,2,2-.89697,2-2,2Z"/>
  <path d="M56.77959,20.38c-.19-.23999-.48004-.38-.78003-.38h-2v-9c0-.54999-.45001-1-1-1h-5c-.54999,0-1,.45001-1,1s.45001,1,1,1h4v8h-12v-8h4c.54999,0,1-.45001,1-1s-.45001-1-1-1h-4v-2c0-.54999-.45001-1-1-1h-14c-.54999,0-1,.45001-1,1v12h-2.16998l-1.85004-10.17999c-.07996-.47003-.5-.82001-.97998-.82001H7.99956c-.54999,0-1,.45001-1,1v4c0,.54999.45001,1,1,1h6.82001l5.06,29.40997c-.31.16003-.59998.35999-.85999.60999-.65002.65002-1.02002,1.55005-1.02002,2.48004,0,1.63,1.12,2.97998,2.62,3.38-.39001.60999-.62,1.33997-.62,2.12,0,2.20996,1.78998,4,4,4s4-1.79004,4-4c0-.73004-.21002-1.41003-.56-2h5.56c.54999,0,1-.45001,1-1s-.45001-1-1-1h-11.5c-.82997,0-1.49993-.66997-1.5-1.49986-.00007-.82928.73768-1.50014,1.57001-1.50014l9.38-.66003,20.12-1.33997c.44-.03003.81-.35004.90997-.78003l5-22c.06-.29999-.01001-.60999-.19995-.83997ZM23.99956,51c1.09998,0,2,.89996,2,2,0,1.09998-.90002,2-2,2s-2-.90002-2-2c0-1.10004.90002-2,2-2ZM29.99956,9h4v4h-4v-4ZM25.99956,9h2v5c0,.54999.45001,1,1,1h6c.54999,0,1-.45001,1-1v-5h2v11h-12v-11ZM50.18957,42.03998c-.08002-.02002-.16998-.03998-.26001-.03998l-18.59998,1.31-9.5.63-5.17999-30.11005c-.09003-.47998-.5-.82996-.99005-.82996h-6.65997v-2h9.16998l1.85004,10.17999c.07996.46997.5.82001.97998.82001h33.75l-4.56,20.03998Z"/>
  <path d="M42.55816,32h7.06689c.4668,0,.87158-.32324.9751-.77832l1.36328-6c.06738-.29688-.00391-.60742-.19336-.8457-.18994-.2373-.47754-.37598-.78174-.37598h-8.09668c-.53076,0-.96924.41504-.99854.94434l-.3335,6c-.01514.27441.08301.54297.27197.74316.18896.19922.45166.3125.72656.3125ZM43.83745,26h5.89795l-.90869,4h-5.21143l.22217-4Z"/>
  <path d="M38.32964,34h-4.71582c-.2749,0-.5376.11328-.72656.3125-.18896.2002-.28711.46875-.27197.74316l.28516,5.13086c.01514.2666.13574.5166.33594.69336.18311.16211.41943.25098.6626.25098.02197,0,.04443-.00098.06641-.00195l4.16113-.27734c.50439-.03418.90381-.43848.93213-.94238l.26953-4.85352c.01514-.27441-.08301-.54297-.27197-.74316-.18896-.19922-.45166-.3125-.72656-.3125ZM37.11089,38.91504l-2.26953.15039-.17041-3.06543h2.60156l-.16162,2.91504Z"/>
  <path d="M42.08159,40.58594c.02197,0,.04443-.00098.06641-.00195l5.67822-.37891c.44141-.0293.81055-.3457.90869-.77637l.95605-4.20703c.06738-.29688-.00391-.60742-.19336-.8457-.18994-.2373-.47754-.37598-.78174-.37598h-6.37988c-.53076,0-.96924.41504-.99854.94434l-.25439,4.58594c-.01562.28613.0918.56543.29541.7666.18799.18555.44092.28906.70312.28906ZM43.28228,36h4.18066l-.51318,2.25879-3.80713.25391.13965-2.5127Z"/>
  <path d="M33.39165,32h5.16016c.53076,0,.96924-.41504.99854-.94434l.3335-6c.01514-.27441-.08301-.54297-.27197-.74316-.18896-.19922-.45166-.3125-.72656-.3125h-5.82715c-.2749,0-.5376.11328-.72656.3125-.18896.2002-.28711.46875-.27197.74316l.3335,6c.0293.5293.46777.94434.99854.94434ZM37.82818,26l-.22217,4h-3.26855l-.22217-4h3.71289Z"/>
  <path d="M29.60747,34h-6.21973c-.29395,0-.57324.12891-.76318.35352s-.27148.52051-.22314.81055l.96143,5.76758c.08057.48535.50049.83594.98535.83594.02246,0,.04492-.00098.06738-.00195l5.55811-.37012c.54688-.03711.9624-.50684.93213-1.05371l-.2998-5.39746c-.0293-.5293-.46777-.94434-.99854-.94434ZM25.18658,39.70996l-.61816-3.70996h4.09326l.19238,3.46582-3.66748.24414Z"/>
  <path d="M22.72124,32h6.66406c.2749,0,.5376-.11328.72656-.3125.18896-.2002.28711-.46875.27197-.74316l-.3335-6c-.0293-.5293-.46777-.94434-.99854-.94434h-7.33057c-.29395,0-.57324.12891-.76318.35352s-.27148.52051-.22314.81055l1,6c.08008.48242.49756.83594.98633.83594ZM28.10601,26l.22217,4h-4.75977l-.6665-4h5.2041Z"/>
</svg>