<?xml version="1.0" encoding="UTF-8"?>
<svg id="Outline" xmlns="http://www.w3.org/2000/svg" version="1.1" viewBox="0 0 48 48">
  <!-- Generator: Adobe Illustrator 29.0.0, SVG Export Plug-In . SVG Version: 2.1.0 Build 186)  -->
  <path d="M42.79086,17.38c-.19-.23999-.47998-.38-.78998-.38h-9.10999c1.29999-1.27002,2.10999-3.04004,2.10999-5,0-3.85999-3.14001-7-7-7s-7,3.14001-7,7c0,1.95996.81,3.72998,2.10999,5h-5.10999c-.54999,0-1,.45001-1,1s.45001,1,1,1h1.16998l1.13,6h-3.51996l-3.56006-14.23999c-.10999-.45001-.50995-.76001-.96997-.76001h-6.25c-.54999,0-1,.45001-1,1s.45001,1,1,1h5.46997l5.26001,21.02997c-1.52997.14001-2.72998,1.41003-2.72998,2.97003,0,1.38.95001,2.53998,2.21997,2.88-.13995.34998-.21997.72998-.21997,1.12,0,1.64996,1.34998,3,3,3s3-1.35004,3-3c0-.35004-.07001-.69-.17999-1h10.35999c-.10999.31-.17999.64996-.17999,1,0,1.64996,1.34998,3,3,3s3-1.35004,3-3-1.34998-3-3-3h-18c-.54999,0-1-.45001-1-1s.45001-1,1-1h21c.46002,0,.85999-.31.96997-.76001l4-16c.07001-.29999.01001-.60999-.17999-.85999ZM35.00088,39c.54999,0,1,.45001,1,1s-.45001,1-1,1-1-.45001-1-1,.45001-1,1-1ZM19.00088,39c.54999,0,1,.45001,1,1s-.45001,1-1,1-1-.45001-1-1,.45001-1,1-1ZM18.78091,33l-1.5-6h3.38995l1.13,6h-3.01996ZM27.00088,33h-3.16998l-1.13-6h4.29999v6ZM27.00088,25h-4.66998l-1.13-6h5.79999v6ZM23.00088,12c0-2.76001,2.23999-5,5-5s5,2.23999,5,5-2.23999,5-5,5-5-2.23999-5-5ZM32.17086,33h-3.16998v-6h4.29999l-1.13,6ZM37.22085,33h-3.00995l1.12-6h3.38995l-1.5,6ZM39.22085,25h-3.50995l.14996-.82001c.10004-.53998-.25-1.06-.79999-1.16003-.53998-.09998-1.06.25-1.15997.80005l-.23004,1.17999h-4.66998v-6h5.79999l-.14996.82001c-.10004.53998.25,1.06.79999,1.15997.06.01001.12.02002.17999.02002.46997,0,.89001-.34003.97998-.82001l.22003-1.17999h3.88995l-1.5,6Z"/>
  <path d="M30.00088,11h-1v-1c0-.55225-.44775-1-1-1s-1,.44775-1,1v1h-1c-.55225,0-1,.44775-1,1s.44775,1,1,1h1v1c0,.55225.44775,1,1,1s1-.44775,1-1v-1h1c.55225,0,1-.44775,1-1s-.44775-1-1-1Z"/>
</svg>