<?xml version="1.0" encoding="UTF-8"?>
<svg id="Outline" xmlns="http://www.w3.org/2000/svg" version="1.1" viewBox="0 0 48 48">
  <!-- Generator: Adobe Illustrator 29.5.1, SVG Export Plug-In . SVG Version: 2.1.0 Build 141)  -->
  <path d="M42.986,29.835l-4-24c-.08-.482-.498-.835-.986-.835H14c-.489,0-.906.354-.986.836l-3.191,19.164h-1.823c-1.654,0-3,1.346-3,3v12c0,1.654,1.346,3,3,3h16c1.654,0,3-1.346,3-3v-9h3c.11,0,.215-.023.315-.057l.002.005,5.684-1.895,5.684,1.895c.104.035.21.051.316.051.235,0,.466-.083.649-.24.267-.228.395-.579.337-.925ZM8,27h16c.551,0,1,.449,1,1v1H7v-1c0-.551.449-1,1-1ZM7,31h18v2H7v-2ZM24,41H8c-.551,0-1-.449-1-1v-5h18v5c0,.551-.449,1-1,1ZM27,29v-1c0-1.654-1.346-3-3-3h-12.15l2.997-18h17.972l-3.667,22h-2.153ZM37,27.279v-9.279c0-.552-.448-1-1-1s-1,.448-1,1v9.279l-3.741,1.247,3.588-21.526h2.306l3.588,21.526-3.741-1.247Z"/>
  <path d="M30,9h-2c-.552,0-1,.448-1,1s.448,1,1,1v1.5c0,2.481-2.019,4.5-4.5,4.5s-4.5-2.019-4.5-4.5v-1.5c.552,0,1-.448,1-1s-.448-1-1-1h-2c-.552,0-1,.448-1,1s.448,1,1,1v1.5c0,3.584,2.916,6.5,6.5,6.5s6.5-2.916,6.5-6.5v-1.5c.552,0,1-.448,1-1s-.448-1-1-1Z"/>
</svg>