<?xml version="1.0" encoding="UTF-8"?>
<svg id="Outline" xmlns="http://www.w3.org/2000/svg" version="1.1" viewBox="0 0 64 64">
  <!-- Generator: Adobe Illustrator 29.3.1, SVG Export Plug-In . SVG Version: 2.1.0 Build 151)  -->
  <path d="M54,11h-2c-1.30194,0-2.40161.8385-2.81573,2h-3.00458c-.45117,0-.8457.30176-.96484.73682l-1.98022,7.26318h-10.07538c.53766-1.2262.84076-2.57764.84076-4,0-5.51416-4.48633-10-10-10s-10,4.48584-10,10c0,1.42236.30316,2.7738.84082,4h-6.84082c-.55273,0-1,.44775-1,1v17c0,.48877.35352.90625.83594.98633l29.57227,4.92871,1.5918,2.3877v1.69727H8c-.55273,0-1,.44775-1,1s.44727,1,1,1h2.55634c-.34448.59076-.55634,1.26825-.55634,2,0,2.20557,1.79395,4,4,4s4-1.79443,4-4c0-.73175-.21185-1.40924-.55634-2h12.11267c-.34448.59076-.55634,1.26825-.55634,2,0,2.20557,1.79395,4,4,4s4-1.79443,4-4c0-.73175-.21185-1.40924-.55634-2h3.55634c.55273,0,1-.44775,1-1v-3c0-.19727-.05859-.39062-.16797-.55469l-1.74744-2.62115,5.88025-21.56097c.00061-.00214-.00031-.00433.00024-.00647l1.97827-7.25671h2.24097c.41412,1.1615,1.51373,2,2.81567,2h2c1.6543,0,3-1.3457,3-3s-1.3457-3-3-3ZM14,55c-1.10254,0-2-.89697-2-2s.89746-2,2-2,2,.89697,2,2-.89746,2-2,2ZM33,55c-1.10254,0-2-.89697-2-2s.89746-2,2-2,2,.89697,2,2-.89746,2-2,2ZM24,9c4.41113,0,8,3.58887,8,8s-3.58887,8-8,8-8-3.58887-8-8,3.58887-8,8-8ZM37.45312,27l-3.08789,11.3252-21.36523-3.56104v-7.76416h24.45312ZM42.03607,25.39966l-4.76263,17.46558-28.27344-4.7124v-15.15283h7.0191c.57147.75824,1.2464,1.43091,2.00647,2h-6.02557c-.55273,0-1,.44775-1,1v9.61133c0,.48877.35352.90625.83594.98633l23.0918,3.84863c.05469.00928.11035.01367.16504.01367.44336,0,.84375-.2959.96387-.73682l3.6709-13.45996c.08203-.30078.01953-.62256-.16992-.87012s-.4834-.39307-.79492-.39307h-8.78827c.76007-.56909,1.435-1.24176,2.00647-2h10.70844l-.65417,2.39941.00092.00024ZM54,15h-2c-.55176,0-1-.44873-1-1s.44824-1,1-1h2c.55176,0,1,.44873,1,1s-.44824,1-1,1Z"/>
  <path d="M24,20c-.55176,0-1-.44873-1-1,0-.55225-.44727-1-1-1s-1,.44775-1,1c0,1.30194.8385,2.40155,2,2.81567v.18433c0,.55225.44727,1,1,1s1-.44775,1-1v-.18427c1.1615-.41412,2-1.51379,2-2.81573,0-1.6543-1.3457-3-3-3-.55176,0-1-.44873-1-1s.44824-1,1-1,1,.44873,1,1c0,.55225.44727,1,1,1s1-.44775,1-1c0-1.30194-.8385-2.40161-2-2.81573v-.18427c0-.55225-.44727-1-1-1s-1,.44775-1,1v.18427c-1.1615.41412-2,1.51379-2,2.81573,0,1.6543,1.3457,3,3,3,.55176,0,1,.44873,1,1s-.44824,1-1,1Z"/>
</svg>