<?xml version="1.0" encoding="UTF-8"?>
<svg id="Outline" xmlns="http://www.w3.org/2000/svg" version="1.1" viewBox="0 0 64 64">
  <!-- Generator: Adobe Illustrator 29.0.0, SVG Export Plug-In . SVG Version: 2.1.0 Build 186)  -->
  <path d="M44.00249,10.99876h-2c-.55273,0-1,.44727-1,1s.44727,1,1,1h2c.55273,0,1-.44727,1-1s-.44727-1-1-1Z"/>
  <path d="M44.00249,14.99876h-2c-.55273,0-1,.44727-1,1s.44727,1,1,1h2c.55273,0,1-.44727,1-1s-.44727-1-1-1Z"/>
  <path d="M44.00249,18.99876h-2c-.55273,0-1,.44727-1,1s.44727,1,1,1h2c.55273,0,1-.44727,1-1s-.44727-1-1-1Z"/>
  <path d="M44.00249,22.99876h-2c-.55273,0-1,.44727-1,1s.44727,1,1,1h2c.55273,0,1-.44727,1-1s-.44727-1-1-1Z"/>
  <path d="M38.00249,10.99876h-12c-.55273,0-1,.44727-1,1s.44727,1,1,1h12c.55273,0,1-.44727,1-1s-.44727-1-1-1Z"/>
  <path d="M38.00249,14.99876h-18c-.55273,0-1,.44727-1,1s.44727,1,1,1h18c.55273,0,1-.44727,1-1s-.44727-1-1-1Z"/>
  <path d="M38.00249,18.99876h-12c-.55273,0-1,.44727-1,1s.44727,1,1,1h12c.55273,0,1-.44727,1-1s-.44727-1-1-1Z"/>
  <path d="M38.00249,22.99876h-18c-.55273,0-1,.44727-1,1s.44727,1,1,1h18c.55273,0,1-.44727,1-1s-.44727-1-1-1Z"/>
  <path d="M55.3925,38.60874c-1.73004-1.72998-4.33002-2.04999-6.39001-.97998v-4.63c0-.54999-.45001-1-1-1s-1,.45001-1,1v4.33997c-1.92999-.69-4.15997-.27997-5.71002,1.26001l-1.96997-9.22998c-.29999-1.37-1.53003-2.37-2.94-2.37h-8.76001c-1.40997,0-2.64001,1-2.94,2.37l-2.14001,10c-.19.89001.03003,1.81.60004,2.52002.57001.69995,1.41998,1.10999,2.32996,1.10999h13.06006c.40997,0,.81-.09003,1.17999-.25.07001,1.31.57996,2.60999,1.57996,3.60999l5.71002,5.71002v2.31l-2.54999-1.27002c-.28003-.15002-.62-.15002-.90002,0l-3.54999,1.77002-3.54999-1.77002c-.28003-.15002-.62-.15002-.90002,0l-3.54999,1.77002-3.54999-1.77002c-.28003-.15002-.62-.15002-.90002,0l-3.54999,1.77002-3.54999-1.77002c-.28003-.15002-.62-.15002-.90002,0l-2.54999,1.27002V11.99876c0-1.13-.39001-2.16003-1.03003-3h28.03003c1.65002,0,3,1.34998,3,3v13c0,.54999.45001,1,1,1s1-.45001,1-1v-13c0-2.76001-2.23999-5-5-5H12.00249c-2.76001,0-5,2.23999-5,5v18c0,.54999.45001,1,1,1h7v25c0,.34998.17999.66998.46997.84998.30005.17999.67004.20001.98004.04004l3.54999-1.77002,3.54999,1.77002c.28003.14996.62.14996.90002,0l3.54999-1.77002,3.54999,1.77002c.28003.14996.62.14996.90002,0l3.54999-1.77002,3.54999,1.77002c.28003.14996.62.14996.90002,0l3.54999-1.77002s3.53532,1.76271,3.54995,1.77c.66639.33225,1.45005-.14261,1.45005-.89v-3.26001c.02002-.01001.03998-.02002.04999-.03003l6.34003-6.34998c2.14001-2.13,2.14001-5.60999,0-7.75ZM39.30247,40.62876c-.19.22998-.46997.37-.76996.37h-13.06006c-.29999,0-.57996-.14001-.76996-.37-.19-.23999-.27002-.54004-.20001-.84003l2.14001-10c.09998-.46002.51001-.78998.97998-.78998h8.76001c.46997,0,.88.32996.97998.78998l2.14001,10c.07001.29999-.01001.60004-.20001.84003ZM15.00249,28.99876h-6V11.99876c0-1.65002,1.34998-3,3-3s3,1.34998,3,3v17ZM53.98247,44.94877l-5.63995,5.63995-5.63-5.63995c-1.36005-1.36005-1.36005-3.57001,0-4.93005.67999-.67999,1.57001-1.01996,2.45996-1.01996.89001,0,1.79004.33997,2.47003,1.01996.39001.39001,1.01996.39001,1.40997,0,1.35999-1.35999,3.57001-1.35999,4.92999,0s1.36005,3.57001,0,4.93005Z"/>
  <path d="M35.00249,30.99876c-.55273,0-1,.44727-1,1v3c0,1.10254-.89746,2-2,2s-2-.89746-2-2v-3c0-.55273-.44727-1-1-1s-1,.44727-1,1v3c0,2.20605,1.79395,4,4,4s4-1.79395,4-4v-3c0-.55273-.44727-1-1-1Z"/>
  <circle cx="48.00249" cy="28.99876" r="1"/>
</svg>