<?xml version="1.0" encoding="UTF-8"?>
<svg id="Outline" xmlns="http://www.w3.org/2000/svg" version="1.1" viewBox="0 0 48 48">
  <!-- Generator: Adobe Illustrator 29.5.1, SVG Export Plug-In . SVG Version: 2.1.0 Build 141)  -->
  <path d="M40,13h-1v-2h1c.55,0,1-.45,1-1v-4c0-.55-.45-1-1-1h-24c-.55,0-1,.45-1,1v4c0,.55.45,1,1,1h1v2h-2.15l-.86-5.16c-.08-.49-.5-.84-.99-.84h-7c-.55,0-1,.45-1,1s.45,1,1,1h6.15l.71,4.23c-1.09.45-1.86,1.52-1.86,2.77,0,1.3.84,2.4,2,2.82v11.18c0,1.07.56,2,1.4,2.53-.25.44-.4.93-.4,1.47,0,1.51,1.13,2.75,2.58,2.96-.36.6-.58,1.29-.58,2.04,0,2.21,1.79,4,4,4s4-1.79,4-4c0-.73-.21-1.41-.56-2h7.12c-.35.59-.56,1.27-.56,2,0,2.21,1.79,4,4,4s4-1.79,4-4c0-.73-.21-1.41-.56-2h1.56c.55,0,1-.45,1-1s-.45-1-1-1h-22c-.55,0-1-.45-1-1s.45-1,1-1h19.27c1.48,0,2.76-1.11,2.97-2.58l1.65-11.57c1.22-.38,2.11-1.51,2.11-2.85,0-1.65-1.35-3-3-3ZM34,37c1.1,0,2,.9,2,2s-.9,2-2,2-2-.9-2-2,.9-2,2-2ZM20,37c1.1,0,2,.9,2,2s-.9,2-2,2-2-.9-2-2,.9-2,2-2ZM17,7h22v2h-22v-2ZM37,11v2h-18v-2h18ZM37.25,30.14c-.06.49-.49.86-.98.86h-20.27c-.55,0-1-.45-1-1v-11h23.85l-1.6,11.14ZM40,17H14c-.55,0-1-.45-1-1s.45-1,1-1h26c.55,0,1,.45,1,1s-.45,1-1,1Z"/>
</svg>