<?xml version="1.0" encoding="UTF-8"?>
<svg id="Outlie" xmlns="http://www.w3.org/2000/svg" version="1.1" viewBox="0 0 64 64">
  <!-- Generator: Adobe Illustrator 29.3.1, SVG Export Plug-In . SVG Version: 2.1.0 Build 151)  -->
  <path d="M50.89662,51.42999l-7.54999-29.34003c-.13-.47998-.58997-.79999-1.07996-.73999l-5.91003.66003-.29999-2.15002c-.07001-.48999-.48999-.85999-.98999-.85999h-2v-6c0-3.31-2.69-6-6-6s-6,2.69-6,6v6h-2c-.5,0-.92004.37-.98999.85999l-5,36v.03003c-.01001.10999,0,.21997.01996.32996.00989.01978.00023.04928.00966.0693.19004.40322.4887.71073.96037.71073h26c.28998,0,.56-.12.75-.34003.19-.21997.27997-.51001.23999-.79999l-.29999-2.15002,9.27997-1.03998c.29004-.02997.54999-.17999.71002-.41998.16998-.23999.21997-.54004.14996-.82001ZM23.06666,13c0-2.21002,1.78998-4,4-4,2.20001,0,4,1.78998,4,4v6h-8v-6ZM16.79665,55l10.27002-8.69,10.34998,8.69h-20.62ZM28.06666,44.52997v-20.52997c0-.54999-.45001-1-1-1-.56,0-1,.45001-1,1v20.53998l-10.65002,9.01001,4.52002-32.54999h14.26001l4.51001,32.46997-10.64001-8.94ZM40.47664,51.72998l-3.84998-27.73999,5-.56,7.03998,27.38-8.19.91998Z"/>
</svg>