<?xml version="1.0" encoding="UTF-8"?>
<svg id="Outline" xmlns="http://www.w3.org/2000/svg" version="1.1" viewBox="0 0 64 64">
  <!-- Generator: Adobe Illustrator 29.0.0, SVG Export Plug-In . SVG Version: 2.1.0 Build 186)  -->
  <path d="M50,49h-28.5c-.83002,0-1.5-.67004-1.5-1.5,0-.83002.66998-1.5,1.57001-1.5l9.56-.67004,19.94-1.32996c.44-.03003.81-.35004.90997-.78003l5-22c.06-.29999-.01001-.60999-.19995-.83997-.19-.23999-.48004-.38-.78003-.38h-2v-12c0-.54999-.45001-1-1-1h-17c-.54999,0-1,.45001-1,1s.45001,1,1,1h2v11h-12v-11h2c.54999,0,1-.45001,1-1s-.45001-1-1-1h-3c-.54999,0-1,.45001-1,1v12h-2.16998l-1.85004-10.17999c-.07996-.47003-.5-.82001-.97998-.82001h-11c-.54999,0-1,.45001-1,1v4c0,.54999.45001,1,1,1h6.83002l5.06,29.40997c-1.12.59003-1.89001,1.73999-1.89001,3.09003,0,1.63,1.12,2.97998,2.62,3.38-.39001.60999-.62,1.33997-.62,2.12,0,2.20996,1.78998,4,4,4s4-1.79004,4-4c0-.73004-.21002-1.41003-.56-2h19.12c-.34998.58997-.56,1.26996-.56,2,0,2.20996,1.78998,4,4,4s4-1.79004,4-4-1.78998-4-4-4ZM40,9h12v11h-12v-11ZM16.64001,13.81c-.09003-.47003-.5-.81-.98004-.81h-6.65997v-2h9.16998l1.63,9h-1.96997l-1.19-6.19ZM18.17999,22h36.57001l-4.56,20.03998c-.08002-.02002-.16998-.03998-.26001-.03998l-18.52997,1.29999-9.56.64001-3.66003-21.94ZM24,55c-1.09998,0-2-.90002-2-2,0-1.10004.90002-2,2-2s2,.89996,2,2c0,1.09998-.90002,2-2,2ZM50,55c-1.09998,0-2-.90002-2-2,0-1.10004.90002-2,2-2s2,.89996,2,2c0,1.09998-.90002,2-2,2Z"/>
  <path d="M42.55859,32h7.06689c.4668,0,.87158-.32324.9751-.77832l1.36328-6c.06738-.29688-.00391-.60791-.19336-.8457-.18994-.23779-.47754-.37598-.78174-.37598h-8.09668c-.53076,0-.96924.41455-.99854.94434l-.3335,6c-.01514.27441.08301.54297.27197.74268s.45166.31299.72656.31299ZM43.83789,26h5.89795l-.90869,4h-5.21143l.22217-4Z"/>
  <path d="M38.33008,34h-4.71582c-.2749,0-.5376.11328-.72656.31299s-.28711.46826-.27197.74268l.28516,5.13086c.01514.2666.13574.51611.33594.69336.18311.16211.41943.25098.6626.25098.02197,0,.04443-.00049.06641-.00244l4.16113-.27734c.50439-.0332.90381-.4375.93213-.94189l.26953-4.85352c.01514-.27441-.08301-.54346-.27197-.74268-.18896-.19971-.45166-.31299-.72656-.31299ZM37.11133,38.91455l-2.26953.15137-.17041-3.06592h2.60156l-.16162,2.91455Z"/>
  <path d="M42.08203,40.58545c.02197,0,.04443-.00049.06641-.00244l5.67822-.37842c.44141-.0293.81055-.34473.90869-.77588l.95605-4.20703c.06738-.29688-.00391-.60791-.19336-.8457-.18994-.2373-.47754-.37598-.78174-.37598h-6.37988c-.53076,0-.96924.41455-.99854.94482l-.25439,4.58545c-.01562.28564.0918.56494.29541.76611.18799.18604.44092.28906.70312.28906ZM43.28271,36h4.18066l-.51318,2.25879-3.80713.25391.13965-2.5127Z"/>
  <path d="M33.39209,32h5.16016c.53076,0,.96924-.41455.99854-.94434l.3335-6c.01514-.27441-.08301-.54297-.27197-.74268s-.45166-.31299-.72656-.31299h-5.82715c-.2749,0-.5376.11328-.72656.31299s-.28711.46826-.27197.74268l.3335,6c.0293.52979.46777.94434.99854.94434ZM37.82861,26l-.22217,4h-3.26855l-.22217-4h3.71289Z"/>
  <path d="M29.60791,34h-6.21973c-.29395,0-.57324.12939-.76318.35352-.18994.22461-.27148.521-.22314.81104l.96143,5.76758c.08057.48486.50049.83545.98535.83545.02246,0,.04492-.00049.06738-.00244l5.55811-.37061c.54688-.03613.9624-.50586.93213-1.05322l-.2998-5.39697c-.0293-.52979-.46777-.94434-.99854-.94434ZM25.18701,39.70947l-.61816-3.70947h4.09326l.19238,3.46484-3.66748.24463Z"/>
  <path d="M22.72168,32h6.66406c.2749,0,.5376-.11328.72656-.31299s.28711-.46826.27197-.74268l-.3335-6c-.0293-.52979-.46777-.94434-.99854-.94434h-7.33057c-.29395,0-.57324.12939-.76318.35352-.18994.22461-.27148.521-.22314.81104l1,6c.08008.48193.49756.83545.98633.83545ZM28.10645,26l.22217,4h-4.75977l-.6665-4h5.2041Z"/>
  <path d="M47,11h-2c-1.6543,0-3,1.3457-3,3s1.3457,3,3,3h2c1.6543,0,3-1.3457,3-3s-1.3457-3-3-3ZM47,15h-2c-.55127,0-1-.44873-1-1s.44873-1,1-1h2c.55127,0,1,.44873,1,1s-.44873,1-1,1Z"/>
  <path d="M28,14c0,1.6543,1.3457,3,3,3h2c1.6543,0,3-1.3457,3-3s-1.3457-3-3-3h-2c-1.6543,0-3,1.3457-3,3ZM31,13h2c.55127,0,1,.44873,1,1s-.44873,1-1,1h-2c-.55127,0-1-.44873-1-1s.44873-1,1-1Z"/>
  <circle cx="32" cy="8" r="1"/>
</svg>