<?xml version="1.0" encoding="UTF-8"?>
<svg id="Outline" xmlns="http://www.w3.org/2000/svg" version="1.1" viewBox="0 0 64 64">
  <!-- Generator: Adobe Illustrator 29.3.1, SVG Export Plug-In . SVG Version: 2.1.0 Build 151)  -->
  <path d="M56.9975,46.04783c.00265-.03554.00303-.07092.00096-.1059l-2-34c-.02051-.34961-.22168-.66211-.53125-.82617-.30908-.16309-.68115-.15332-.98145.02734l-4.64453,2.78711-7.57861-1.89453c-.03955-.01074-.08057-.01953-.12207-.02539-.04248-.00586-.08447-.00977-.12646-.00977l-28.979-.99902c-.50488-.03418-.96875.36719-1.02832.88574l-4,35c-.06104.53418.31201,1.02148.84375,1.10156l32.98291,4.99805c.0498.00781.10059.0127.1792.01367.13477-.00195.26318-.03027.37988-.08008l14.97949-5.99121c.05879-.02355.10702-.06179.15898-.09505.25053-.16038.4436-.47899.46653-.78636ZM49.24699,43.2935l4.4588,2.54761-9.55511,3.82263,5.09631-6.37024ZM54.89384,44.21653l-4.89343-2.7962V15.56675l3.09863-1.85919,1.7948,30.50897ZM48.00041,15.78104v25.86853l-6,7.5V14.28178l6,1.49927ZM40.00041,50.83744l-30.89697-4.68164,3.78564-33.12402,27.11133.93457v36.87109Z"/>
  <path d="M16.00041,20.8162v3.18433c0,5.51367,4.48584,10,10,10s10-4.48633,10-10v-2.18427c1.1615-.41412,2-1.51379,2-2.81573,0-1.6543-1.3457-3-3-3s-3,1.3457-3,3c0,1.30194.8385,2.40155,2,2.81567v2.18433c0,4.41113-3.58887,8-8,8s-8-3.58887-8-8v-3.18427c1.1615-.41412,2-1.51379,2-2.81573,0-1.6543-1.3457-3-3-3s-3,1.3457-3,3c0,1.30194.8385,2.40155,2,2.81567ZM35.00041,18.00053c.55127,0,1,.44824,1,1s-.44873,1-1,1-1-.44824-1-1,.44873-1,1-1ZM17.00041,17.00053c.55127,0,1,.44824,1,1s-.44873,1-1,1-1-.44824-1-1,.44873-1,1-1Z"/>
</svg>