<?xml version="1.0" encoding="UTF-8"?>
<svg id="Outline" xmlns="http://www.w3.org/2000/svg" version="1.1" viewBox="0 0 64 64">
  <!-- Generator: Adobe Illustrator 29.5.1, SVG Export Plug-In . SVG Version: 2.1.0 Build 141)  -->
  <path d="M54,43h-31.38l1.78-4h27.6c.55,0,1-.45,1-1v-3.9l3.98-18.89c.06-.3-.01-.61-.2-.84-.19-.23-.48-.37-.78-.37H19.48l-.87-4.2c-.1-.47-.51-.8-.98-.8H8c-.55,0-1,.45-1,1v4c0,.55.45,1,1,1h5.56l4.77,22.88-1.82,4.09c-.69,1.56-.55,3.33.37,4.75.83,1.29,2.19,2.1,3.69,2.25-.35.6-.57,1.29-.57,2.03,0,2.21,1.79,4,4,4s4-1.79,4-4c0-.73-.21-1.41-.56-2h16.12c-.35.59-.56,1.27-.56,2,0,2.21,1.79,4,4,4s4-1.79,4-4c0-.73-.21-1.41-.56-2h3.56c.55,0,1-.45,1-1v-4c0-.55-.45-1-1-1ZM54.77,16l-3.58,17h-27.75l-3.54-17h34.87ZM15.35,13.8c-.09-.47-.5-.8-.98-.8h-5.37v-2h7.81l4.84,23.2c.09.47.5.8.98.8h28.37v2h-30.81l-4.84-23.2ZM24,53c-1.1,0-2-.9-2-2s.9-2,2-2,2,.9,2,2-.9,2-2,2ZM47,53c-1.1,0-2-.9-2-2s.9-2,2-2,2,.9,2,2-.9,2-2,2ZM53,47h-31.92c-1.02,0-1.97-.51-2.52-1.36-.56-.86-.64-1.92-.23-2.85l1.69-3.79h2.19l-2.04,4.59c-.14.31-.11.67.07.95.19.29.5.46.84.46h31.92v2Z"/>
</svg>