<?xml version="1.0" encoding="UTF-8"?>
<svg id="Outline" xmlns="http://www.w3.org/2000/svg" version="1.1" viewBox="0 0 64 64">
  <!-- Generator: Adobe Illustrator 29.5.1, SVG Export Plug-In . SVG Version: 2.1.0 Build 141)  -->
  <path d="M48.15,21.75c-.12-1.54-1.44-2.75-2.99-2.75h-1.16v-7c0-.27-.11-.52-.29-.71,0,0-4-4-4.01-4-.169-.169-.406-.254-.64-.28-.02,0-.04-.01-.06-.01h-14c-.02,0-.04.01-.06.01-.234,0-.478.127-.65.28l-4,4c-.18.19-.29.44-.29.71v2c0,.55.45,1,1,1s1-.45,1-1v-1.59l2-2v12.59h-2v-5c0-.55-.45-1-1-1s-1,.45-1,1v1h-1.16c-1.55,0-2.87,1.21-2.99,2.75l-2.67,32c-.07.83.22,1.66.78,2.28.57.62,1.37.97,2.21.97h20.83c.55,0,1-.45,1-1s-.45-1-1-1h-20.72l3.2-4h25.04l3.2,4h-6.72c-.55,0-1,.45-1,1s.45,1,1,1h6.83c.84,0,1.64-.35,2.21-.97.56-.62.85-1.45.78-2.28l-2.67-32ZM40,10.41l2,2v10.59h-2v-12.59ZM26,9h12v2h-12v-2ZM26,13h12v6h-12v-6ZM45.78,49.38c-.19-.24-.48-.38-.78-.38h-26c-.3,0-.59.14-.78.38l-2.97,3.71,2.6-31.18c.04-.51.47-.91.99-.91h1.16v3c0,.55.45,1,1,1h4c.55,0,1-.45,1-1v-3h12v3c0,.55.45,1,1,1h4c.55,0,1-.45,1-1v-3h1.16c.52,0,.95.4.99.91l2.6,31.18-2.97-3.71Z"/>
  <path d="M32.064,29.187c-2.396-1.76-5.792-1.556-7.957.607-2.388,2.389-2.388,6.275,0,8.664l7.25,7.249c.195.195.451.293.707.293s.512-.098.707-.293l7.249-7.249c2.389-2.389,2.389-6.275,0-8.664-2.166-2.165-5.56-2.368-7.956-.607ZM38.606,37.044l-6.542,6.542-6.542-6.542c-1.608-1.609-1.608-4.227,0-5.836.804-.804,1.861-1.206,2.917-1.206s2.114.402,2.918,1.206c.391.391,1.023.391,1.414,0,1.609-1.607,4.227-1.607,5.835,0,1.609,1.609,1.609,4.227,0,5.836Z"/>
</svg>