<?xml version="1.0" encoding="UTF-8"?>
<svg id="Outline" xmlns="http://www.w3.org/2000/svg" version="1.1" viewBox="0 0 48 48">
  <!-- Generator: Adobe Illustrator 29.0.0, SVG Export Plug-In . SVG Version: 2.1.0 Build 186)  -->
  <path d="M39.59998,39.37034l-3.33997-20c-.20001-1.22003-1.10999-2.15002-2.26001-2.42004v-5.08997c0-.54999-.45001-1-1-1h-4.28003l-1.03998-4.92999c-.12-.54004-.64001-.88-1.19-.77002l-13.70001,2.89001c-.25995.06-.47998.20996-.63.42999-.13995.22998-.19.5-.13995.76001l1.64996,7.79999c-.98999.35999-1.75,1.22998-1.92999,2.33002l-3.33997,20c-.14001.87.09998,1.75995.66998,2.42999.57001.66998,1.40997,1.06,2.28998,1.06h6.64001c.54999,0,1-.45001,1-1s-.45001-1-1-1h-6.64001c-.29999,0-.57001-.13-.76001-.35004-.19995-.22998-.26996-.51996-.22998-.81l3.34003-20c.07996-.48999.48999-.83997.97998-.83997h18.62c.48999,0,.90002.34998.97998.83997l3.34003,20c.03998.29004-.03003.58002-.22998.81-.19.22003-.46002.35004-.76001.35004h-14.64001c-.54999,0-1,.45001-1,1s.45001,1,1,1h14.64001c.88,0,1.71997-.39001,2.28998-1.06.57001-.67004.81-1.56.66998-2.42999ZM32,16.86033h-12v-4h1c.54999,0,1-.45001,1-1s-.45001-1-1-1h-2c-.54999,0-1,.45001-1,1v5h-2.32001l-1.48999-7.06,11.73999-2.48004.75,3.54004h-1.67999c-.54999,0-1,.45001-1,1s.45001,1,1,1h7v4Z"/>
  <path d="M24,38.86033c3.85986,0,7-3.14014,7-7v-5.18427c1.1615-.41412,2-1.51379,2-2.81573,0-1.6543-1.3457-3-3-3s-3,1.3457-3,3c0,1.30194.8385,2.40155,2,2.81567v5.18433c0,2.75684-2.24316,5-5,5s-5-2.24316-5-5v-5.18427c1.1615-.41412,2-1.51379,2-2.81573,0-1.6543-1.3457-3-3-3s-3,1.3457-3,3c0,1.30194.8385,2.40155,2,2.81567v5.18433c0,3.85986,3.14014,7,7,7ZM30,22.86033c.55127,0,1,.44873,1,1s-.44873,1-1,1-1-.44873-1-1,.44873-1,1-1ZM18,22.86033c.55127,0,1,.44873,1,1s-.44873,1-1,1-1-.44873-1-1,.44873-1,1-1Z"/>
</svg>