<?xml version="1.0" encoding="UTF-8"?>
<svg id="Outline" xmlns="http://www.w3.org/2000/svg" version="1.1" viewBox="0 0 64 64">
  <!-- Generator: Adobe Illustrator 29.5.1, SVG Export Plug-In . SVG Version: 2.1.0 Build 141)  -->
  <path d="M51.74,7.33c-.19-.21-.46-.33-.74-.33h-25c-.55,0-1,.45-1,1s.45,1,1,1h23.89l-.83,8.02c-.09-.01-.18-.02-.28,0l-1.35.3c-4.85,1.08-9.97,1.02-14.79-.19l-.8-.2c-5.12-1.28-10.55-1.35-15.71-.21l-1.19.27-.83-7.99h7.89c.55,0,1-.45,1-1s-.45-1-1-1h-9c-.28,0-.55.12-.74.33-.19.21-.28.49-.25.77l4.81,46.22c.16,1.53,1.44,2.68,2.98,2.68h24.4c1.54,0,2.82-1.15,2.98-2.69l1.17-11.21c.06-.55-.34-1.04-.89-1.09-.56-.06-1.04.34-1.09.89l-.61,5.82c-3.62,1.45-8.58,2.28-13.76,2.28s-10.14-.83-13.76-2.28l-3.09-29.74c.02-.01.04,0,.07,0l1.35-.3c4.85-1.08,9.97-1.02,14.79.19l.8.2c2.7.68,5.5,1.02,8.29,1.02,2.49,0,4.99-.27,7.42-.81l.97-.22-2.06,19.84c-.06.55.34,1.04.89,1.09.03.01.07.01.1.01.51,0,.94-.38.99-.9l3.23-31c.03-.28-.06-.56-.25-.77ZM32,53c5.05,0,9.77-.72,13.52-2.04l-.32,3.14c-.06.51-.49.9-1,.9h-24.4c-.51,0-.94-.39-1-.89l-.32-3.15c3.75,1.32,8.47,2.04,13.52,2.04Z"/>
</svg>