<?xml version="1.0" encoding="UTF-8"?>
<svg id="Outline" xmlns="http://www.w3.org/2000/svg" version="1.1" viewBox="0 0 48 48">
  <!-- Generator: Adobe Illustrator 29.5.1, SVG Export Plug-In . SVG Version: 2.1.0 Build 141)  -->
  <path d="M43,22v-2c0-1.65-1.35-3-3-3h-4c-1.65,0-3,1.35-3,3v2c0,1.3.84,2.4,2,2.82v2.18h-4v-1c0-1.65-1.35-3-3-3h-1v-10c0-1.1.9-2,2-2s2,.9,2,2c0,.55.45,1,1,1h4c.55,0,1-.45,1-1,0-4.41-3.59-8-8-8s-8,3.59-8,8v10h-1c-1.65,0-3,1.35-3,3v1h-4v-2.18c1.16-.42,2-1.52,2-2.82v-2c0-1.65-1.35-3-3-3h-4c-1.65,0-3,1.35-3,3v2c0,1.3.84,2.4,2,2.82v2.18h-1c-.55,0-1,.45-1,1v4c0,.55.45,1,1,1h1v7c0,1.65,1.35,3,3,3h28c1.65,0,3-1.35,3-3v-7h1c.55,0,1-.45,1-1v-4c0-.55-.45-1-1-1h-1v-2.18c1.16-.42,2-1.52,2-2.82ZM23,13c0-3.31,2.69-6,6-6,2.97,0,5.44,2.17,5.92,5h-2.05c-.44-1.72-2.01-3-3.87-3-2.21,0-4,1.79-4,4v10h-2v-10ZM19,26c0-.55.45-1,1-1h8c.55,0,1,.45,1,1v1h-10v-1ZM7,20c0-.55.45-1,1-1h1v1c0,.55.45,1,1,1s1-.45,1-1v-1h1c.55,0,1,.45,1,1v2c0,.55-.45,1-1,1h-4c-.55,0-1-.45-1-1v-2ZM11,25v2h-2v-2h2ZM39,40c0,.55-.45,1-1,1H10c-.55,0-1-.45-1-1v-7h30v7ZM41,31H7v-2h34v2ZM37,27v-2h2v2h-2ZM40,23h-4c-.55,0-1-.45-1-1v-2c0-.55.45-1,1-1h1v1c0,.55.45,1,1,1s1-.45,1-1v-1h1c.55,0,1,.45,1,1v2c0,.55-.45,1-1,1Z"/>
</svg>