<?xml version="1.0" encoding="UTF-8"?>
<svg id="Outline" xmlns="http://www.w3.org/2000/svg" version="1.1" viewBox="0 0 64 64">
  <!-- Generator: Adobe Illustrator 29.5.1, SVG Export Plug-In . SVG Version: 2.1.0 Build 141)  -->
  <path d="M26,18v-4c0-.55-.45-1-1-1h-2v-5c0-.55-.45-1-1-1s-1,.45-1,1v5h-2c-.55,0-1,.45-1,1v4c0,.41.25.76.6.92-.37.6-.6,1.31-.6,2.08,0,1.2.54,2.27,1.38,3-.84.73-1.38,1.8-1.38,3,0,.77.23,1.48.6,2.08-.35.16-.6.51-.6.92v6c0,.41.25.76.6.92-.37.6-.6,1.31-.6,2.08,0,1.86,1.28,3.41,3,3.86v2.14h-1c-.55,0-1,.45-1,1v10c0,.55.45,1,1,1h4c.55,0,1-.45,1-1v-2c0-.55-.45-1-1-1s-1,.45-1,1v1h-2v-8h2v3c0,.55.45,1,1,1s1-.45,1-1v-4c0-.55-.45-1-1-1h-1v-2.14c1.72-.45,3-2,3-3.86,0-.77-.23-1.48-.6-2.08.35-.16.6-.51.6-.92v-6c0-.41-.25-.76-.6-.92.37-.6.6-1.31.6-2.08,0-1.2-.54-2.27-1.38-3,.84-.73,1.38-1.8,1.38-3,0-.77-.23-1.48-.6-2.08.35-.16.6-.51.6-.92ZM22,41c-1.1,0-2-.9-2-2s.9-2,2-2,2,.9,2,2-.9,2-2,2ZM24,35h-4v-4h4v4ZM22,29c-1.1,0-2-.9-2-2s.9-2,2-2,2,.9,2,2-.9,2-2,2ZM22,23c-1.1,0-2-.9-2-2s.9-2,2-2,2,.9,2,2-.9,2-2,2ZM24,17h-4v-2h4v2Z"/>
  <path d="M46,18v-4c0-.553-.448-1-1-1h-2v-5c0-.553-.448-1-1-1s-1,.447-1,1v5h-2c-.552,0-1,.447-1,1v4c0,.411.248.762.602.916-.375.609-.602,1.318-.602,2.084,0,1.201.542,2.266,1.382,3-.84.734-1.382,1.799-1.382,3,0,.766.227,1.475.602,2.084-.354.154-.602.505-.602.916v6c0,.411.248.762.602.916-.375.609-.602,1.318-.602,2.084,0,1.859,1.28,3.411,3,3.858v2.142h-1c-.552,0-1,.447-1,1v10c0,.553.448,1,1,1h4c.552,0,1-.447,1-1v-4c0-.553-.448-1-1-1s-1,.447-1,1v3h-2v-8h2v1c0,.553.448,1,1,1s1-.447,1-1v-2c0-.553-.448-1-1-1h-1v-2.142c1.72-.447,3-1.999,3-3.858,0-.766-.227-1.476-.602-2.084.354-.154.602-.505.602-.916v-6c0-.411-.248-.762-.602-.916.375-.609.602-1.318.602-2.084,0-1.201-.542-2.266-1.382-3,.84-.734,1.382-1.799,1.382-3,0-.766-.227-1.476-.602-2.084.354-.154.602-.505.602-.916ZM40,15h4v2h-4v-2ZM44,31v4h-4v-4h4ZM42,41c-1.103,0-2-.897-2-2s.897-2,2-2,2,.897,2,2-.897,2-2,2ZM44,27c0,1.103-.897,2-2,2s-2-.897-2-2,.897-2,2-2,2,.897,2,2ZM40,21c0-1.103.897-2,2-2s2,.897,2,2-.897,2-2,2-2-.897-2-2Z"/>
  <path d="M35,13h-2v-5c0-.553-.448-1-1-1s-1,.447-1,1v5h-2c-.552,0-1,.447-1,1v4c0,.411.248.762.602.916-.375.609-.602,1.318-.602,2.084,0,1.201.542,2.266,1.382,3-.84.734-1.382,1.799-1.382,3,0,.766.227,1.475.602,2.084-.354.154-.602.505-.602.916v6c0,.411.248.762.602.916-.375.609-.602,1.318-.602,2.084,0,1.859,1.28,3.411,3,3.858v2.142h-1c-.552,0-1,.447-1,1v10c0,.553.448,1,1,1h4c.552,0,1-.447,1-1v-10c0-.553-.448-1-1-1h-1v-2.142c1.72-.447,3-1.999,3-3.858,0-.766-.227-1.476-.602-2.084.354-.154.602-.505.602-.916v-6c0-.411-.248-.762-.602-.916.375-.609.602-1.318.602-2.084,0-1.201-.542-2.266-1.382-3,.84-.734,1.382-1.799,1.382-3,0-.766-.227-1.476-.602-2.084.354-.154.602-.505.602-.916v-4c0-.553-.448-1-1-1ZM33,55h-2v-8h2v8ZM30,15h4v2h-4v-2ZM34,31v4h-4v-4h4ZM32,41c-1.103,0-2-.897-2-2s.897-2,2-2,2,.897,2,2-.897,2-2,2ZM34,27c0,1.103-.897,2-2,2s-2-.897-2-2,.897-2,2-2,2,.897,2,2ZM30,21c0-1.103.897-2,2-2s2,.897,2,2-.897,2-2,2-2-.897-2-2Z"/>
</svg>