<?xml version="1.0" encoding="UTF-8"?>
<svg id="Outline" xmlns="http://www.w3.org/2000/svg" version="1.1" viewBox="0 0 64 64">
  <!-- Generator: Adobe Illustrator 29.5.1, SVG Export Plug-In . SVG Version: 2.1.0 Build 141)  -->
  <path d="M56,46h-4c-.55,0-1,.45-1,1v4h-14.44l5.18-12.25c.41-1.13.31-2.36-.29-3.4-.6-1.03-1.62-1.74-2.8-1.93l-1.48-.25.26-2.11,4.91.71c1.38.19,2.7-.51,3.32-1.74.06-.12.09-.25.13-.37l3.1.33c.04.01.08.01.11.01.51,0,.94-.38.99-.89.06-.55-.33-1.05-.88-1.1l-3.27-.36c-.05-.15-.09-.31-.17-.46-.44-.91-1.26-1.54-2.25-1.74l-5.18-1.03.21-2.13c.18-1.86-.44-3.73-1.69-5.11-.33-.36-.69-.67-1.07-.95,1.41-.88,2.37-2.44,2.37-4.23,0-2.76-2.25-5-5-5s-5,2.24-5,5c0,1.34.53,2.55,1.39,3.45-2.14.82-3.77,2.71-4.17,5.1l-.8,4.84-5.69-.43.18-.72c.13-.53-.19-1.08-.73-1.21-.53-.14-1.08.19-1.21.73l-.26,1.05-1.69-.13c-.55-.04-1.04.37-1.08.92-.04.56.37,1.04.92,1.08l1.35.1-.24.98c-.13.53.19,1.08.73,1.21.538.135,1.071-.197,1.21-.73l.33-1.31,5.85.44-1.11,6.64c-.29,1.75.2,3.52,1.34,4.87,1.14,1.35,2.81,2.12,4.58,2.12h3.71l-3.33,10H8c-.55,0-1,.45-1,1v4c0,.55.45,1,1,1h28c.55,0,1-.45,1-1s-.45-1-1-1H9v-2h43c.55,0,1-.45,1-1v-4h2v4c0,1.65-1.35,3-3,3h-8c-.55,0-1,.45-1,1s.45,1,1,1h8c2.76,0,5-2.24,5-5v-5c0-.55-.45-1-1-1ZM33.06,9c1.65,0,3,1.35,3,3s-1.35,3-3,3c-1.66,0-3-1.35-3-3s1.34-3,3-3ZM34.39,51h-2.95l3.56-10.68c.11-.31.05-.64-.13-.9-.19-.27-.49-.42-.81-.42h-5.1c-1.18,0-2.29-.52-3.05-1.41-.77-.9-1.09-2.09-.9-3.25l2.25-13.46c.37-2.25,2.3-3.88,4.58-3.88,1.32,0,2.54.54,3.43,1.52.9.99,1.31,2.25,1.19,3.57l-.3,3.03c-.05.51.3.98.8,1.08l6.07,1.22c.37.07.68.31.85.65.16.34.16.72-.01,1.06-.23.47-.73.72-1.24.66l-7.69-1.1c-.88-.13-1.66-.64-2.13-1.4-.47-.75-.57-1.67-.29-2.52l.48-1.45c.18-.53-.1-1.09-.63-1.27-.53-.17-1.09.11-1.26.63l-.49,1.46c-.47,1.41-.29,2.94.49,4.21.78,1.26,2.08,2.11,3.55,2.32l.79.11-.39,3.1c-.06.53.3,1.02.83,1.11l2.43.4c.59.1,1.1.45,1.4.97.3.52.35,1.13.16,1.65l-5.49,12.99Z"/>
  <path d="M29,45c.553,0,1-.448,1-1s-.447-1-1-1h-4c-.553,0-1,.448-1,1s.447,1,1,1h4Z"/>
  <path d="M22,48c0,.552.447,1,1,1h4c.553,0,1-.448,1-1s-.447-1-1-1h-4c-.553,0-1,.448-1,1Z"/>
  <path d="M21,44h-4c-.553,0-1,.448-1,1s.447,1,1,1h4c.553,0,1-.448,1-1s-.447-1-1-1Z"/>
  <circle cx="40" cy="56" r="1"/>
</svg>