<?xml version="1.0" encoding="UTF-8"?>
<svg id="Outlie" xmlns="http://www.w3.org/2000/svg" version="1.1" viewBox="0 0 64 64">
  <!-- Generator: Adobe Illustrator 29.5.1, SVG Export Plug-In . SVG Version: 2.1.0 Build 141)  -->
  <path d="M30.538,37.692c0-.266-.105-.52-.293-.707l-3.692-3.692c-.188-.188-.441-.293-.707-.293-2.587,0-4.691,2.105-4.691,4.692s2.104,4.692,4.691,4.692,4.692-2.105,4.692-4.692ZM25.846,40.385c-1.484,0-2.691-1.208-2.691-2.692,0-1.354,1.003-2.477,2.305-2.665l3.052,3.052c-.188,1.302-1.312,2.306-2.665,2.306Z"/>
  <path d="M38.154,33c-.266,0-.52.105-.707.293l-3.692,3.692c-.188.188-.293.441-.293.707,0,2.587,2.105,4.692,4.692,4.692s4.691-2.105,4.691-4.692-2.104-4.692-4.691-4.692ZM38.154,40.385c-1.354,0-2.477-1.004-2.665-2.306l3.052-3.052c1.302.188,2.305,1.312,2.305,2.665,0,1.484-1.207,2.692-2.691,2.692Z"/>
  <path d="M50.65,7.24c-.36-.3-.86-.32-1.24-.05l-10.26,7.46-6.4-7.31c-.38-.43-1.12-.43-1.5,0l-6.4,7.31-10.26-7.46c-.38-.27-.88-.25-1.24.05-.35.3-.45.8-.24,1.21l2.31,4.63c1.69,3.37,2.58,7.15,2.58,10.92v6c0,.33.17.61.42.79-1.15,1.93-1.87,4.07-2.11,6.29-.51,4.95,1.25,9.71,4.84,13.12v3.34c0,1.91,1.56,3.46,3.47,3.46h14.76c1.91,0,3.47-1.55,3.47-3.46v-3.34c3.13-2.99,4.92-7.13,4.92-11.43,0-2.85-.75-5.57-2.18-7.99.24-.18.41-.45.41-.78v-6c0-3.77.89-7.55,2.58-10.92l2.31-4.63c.21-.41.11-.91-.24-1.21ZM45.77,38.77c0,3.89-1.67,7.62-4.59,10.25-.21.19-.33.46-.33.74v3.78c0,.8-.66,1.46-1.47,1.46h-1.38v-5c0-.55-.45-1-1-1s-1,.45-1,1v5h-3v-5c0-.55-.45-1-1-1s-1,.45-1,1v5h-3v-5c0-.55-.45-1-1-1s-1,.45-1,1v5h-1.38c-.81,0-1.47-.66-1.47-1.46v-3.78c0-.28-.12-.55-.33-.74-3.33-3-4.98-7.28-4.52-11.73.24-2.25,1.05-4.41,2.35-6.29h22.71c1.57,2.29,2.41,4.96,2.41,7.77ZM20,29v-4h24v4h-24ZM46.79,12.19c-1.68,3.35-2.62,7.07-2.76,10.81h-24.06c-.14-3.74-1.08-7.46-2.76-10.81l-.48-.97,7.68,5.59c.42.31,1,.24,1.34-.15l6.25-7.14,6.25,7.14c.34.39.92.46,1.34.15l7.68-5.59-.48.97Z"/>
  <path d="M32.707,43.293c-.391-.391-1.023-.391-1.414,0l-2,2c-.391.391-.391,1.023,0,1.414s1.023.391,1.414,0l1.293-1.293,1.293,1.293c.195.195.451.293.707.293s.512-.098.707-.293c.391-.391.391-1.023,0-1.414l-2-2Z"/>
</svg>