<?xml version="1.0" encoding="UTF-8"?>
<svg id="Outlie" xmlns="http://www.w3.org/2000/svg" version="1.1" viewBox="0 0 64 64">
  <!-- Generator: Adobe Illustrator 29.5.1, SVG Export Plug-In . SVG Version: 2.1.0 Build 141)  -->
  <path d="M51.7,32.641c-.72-.79-1.67-1.33-2.7-1.54v-6.69c0-9.53-7.56-17.34-16.86-17.41-4.58-.05-8.91,1.73-12.17,4.97-3.2,3.22-4.97,7.49-4.97,12.03v7.1c-1.03.21-1.98.75-2.7,1.54-.94,1.03-1.41,2.44-1.28,3.85.24,2.52,2.49,4.49,5.12,4.51l1.5,9.72c.29,1.9,1.9,3.28,3.82,3.28.63,0,1.21.31,1.56.83l.3.45c.72,1.08,1.92,1.72,3.22,1.72h10.92c1.3,0,2.5-.64,3.22-1.72l.3-.45c.35-.52.93-.83,1.56-.83,1.92,0,3.53-1.38,3.82-3.28l1.5-9.72c2.63-.02,4.88-1.99,5.12-4.51.13-1.41-.34-2.82-1.28-3.85ZM44.39,50.41c-.15.92-.92,1.59-1.85,1.59-1.3,0-2.5.64-3.22,1.72l-.3.45c-.35.52-.93.83-1.56.83h-10.92c-.63,0-1.21-.31-1.56-.83l-.3-.45c-.72-1.08-1.92-1.72-3.22-1.72-.93,0-1.7-.67-1.85-1.59l-1.41-9.2c1.37.45,2.46,1.57,2.83,3.03.61,2.43,2.57,4.22,4.97,4.65v2.11c0,.55.45,1,1,1s1-.45,1-1v-2h3v2c0,.55.45,1,1,1s1-.45,1-1v-2h3v2c0,.55.45,1,1,1s1-.45,1-1v-2.11c2.4-.43,4.36-2.22,4.97-4.65.37-1.46,1.46-2.58,2.83-3.03l-1.41,9.2ZM47.83,39.001h-.71c-2.88,0-5.39,1.96-6.09,4.76-.38,1.53-1.56,2.68-3.03,3.08v-1.84c0-.55-.45-1-1-1s-1,.45-1,1v2h-3v-2c0-.55-.45-1-1-1s-1,.45-1,1v2h-3v-2c0-.55-.45-1-1-1s-1,.45-1,1v1.84c-1.47-.4-2.65-1.55-3.03-3.08-.7-2.8-3.21-4.76-6.09-4.76h-.71c-1.63,0-3.01-1.19-3.16-2.7-.08-.86.19-1.69.77-2.32.57-.62,1.38-.98,2.22-.98.55,0,1-.45,1-1v-8c0-4,1.56-7.77,4.39-10.61,2.84-2.83,6.6-4.39,10.61-4.39h.12c8.21.06,14.88,6.98,14.88,15.41v7.59c0,.55.45,1,1,1,.84,0,1.65.36,2.22.98.58.63.85,1.46.77,2.32-.15,1.51-1.53,2.7-3.16,2.7Z"/>
  <path d="M31,26.001v-5c0-.552-.448-1-1-1h-5c-3.309,0-6,2.691-6,6s2.691,6,6,6,6-2.691,6-6ZM29,26.001c0,2.206-1.794,4-4,4s-4-1.794-4-4,1.794-4,4-4h4v4Z"/>
  <path d="M39,20.001h-5c-.552,0-1,.448-1,1v5c0,3.309,2.691,6,6,6s6-2.691,6-6-2.691-6-6-6ZM39,30.001c-2.206,0-4-1.794-4-4v-4h4c2.206,0,4,1.794,4,4s-1.794,4-4,4Z"/>
  <path d="M32,32.001c-2.442,0-4,3.94-4,6,0,1.991,1.346,3,4,3s4-1.009,4-3c0-2.06-1.558-6-4-6ZM32,39.001c-2,0-2-.531-2-1,0-1.495,1.252-4,2-4s2,2.505,2,4c0,.469,0,1-2,1Z"/>
  <path d="M22,18.001h6c1.654,0,3-1.346,3-3s-1.346-3-3-3h-1c-.552,0-1,.448-1,1s.448,1,1,1h1c.551,0,1,.449,1,1s-.449,1-1,1h-6c-.552,0-1,.448-1,1s.448,1,1,1Z"/>
  <path d="M36,18.001h6c.552,0,1-.448,1-1s-.448-1-1-1h-6c-.551,0-1-.449-1-1s.449-1,1-1h1c.552,0,1-.448,1-1s-.448-1-1-1h-1c-1.654,0-3,1.346-3,3s1.346,3,3,3Z"/>
</svg>