<?xml version="1.0" encoding="UTF-8"?>
<svg id="Outline" xmlns="http://www.w3.org/2000/svg" version="1.1" viewBox="0 0 64 64">
  <!-- Generator: Adobe Illustrator 29.5.1, SVG Export Plug-In . SVG Version: 2.1.0 Build 141)  -->
  <path d="M22,27h-10c-.552,0-1,.448-1,1v4c0,.552.448,1,1,1h10c.552,0,1-.448,1-1v-4c0-.552-.448-1-1-1ZM21,31h-8v-2h8v2Z"/>
  <path d="M22,35h-10c-.552,0-1,.448-1,1v4c0,.552.448,1,1,1h10c.552,0,1-.448,1-1v-4c0-.552-.448-1-1-1ZM21,39h-8v-2h8v2Z"/>
  <path d="M22,43h-10c-.552,0-1,.448-1,1v4c0,.552.448,1,1,1h10c.552,0,1-.448,1-1v-4c0-.552-.448-1-1-1ZM21,47h-8v-2h8v2Z"/>
  <path d="M54,27h-10c-1.65,0-3,1.35-3,3v3h-6v-1c0-.55-.45-1-1-1s-1,.45-1,1v1h-2v-3c0-.55-.45-1-1-1s-1,.45-1,1v3h-2v-7c0-1.65-1.35-3-3-3h-14c-1.65,0-3,1.35-3,3v30c0,.55.45,1,1,1h48c.55,0,1-.45,1-1v-26c0-1.65-1.35-3-3-3ZM25,55H9v-29c0-.55.45-1,1-1h14c.55,0,1,.45,1,1v29ZM41,55h-14v-20h14v20ZM55,55h-12v-25c0-.55.45-1,1-1h10c.55,0,1,.45,1,1v25Z"/>
  <path d="M38,37h-8c-.552,0-1,.448-1,1v4c0,.552.448,1,1,1h8c.552,0,1-.448,1-1v-4c0-.552-.448-1-1-1ZM37,41h-6v-2h6v2Z"/>
  <path d="M38,45h-8c-.552,0-1,.448-1,1v4c0,.552.448,1,1,1h8c.552,0,1-.448,1-1v-4c0-.552-.448-1-1-1ZM37,49h-6v-2h6v2Z"/>
  <path d="M52,31h-6c-.552,0-1,.448-1,1v4c0,.552.448,1,1,1h6c.552,0,1-.448,1-1v-4c0-.552-.448-1-1-1ZM51,35h-4v-2h4v2Z"/>
  <path d="M52,39h-6c-.552,0-1,.448-1,1v4c0,.552.448,1,1,1h6c.552,0,1-.448,1-1v-4c0-.552-.448-1-1-1ZM51,43h-4v-2h4v2Z"/>
  <path d="M52,47h-6c-.552,0-1,.448-1,1v4c0,.552.448,1,1,1h6c.552,0,1-.448,1-1v-4c0-.552-.448-1-1-1ZM51,51h-4v-2h4v2Z"/>
  <path d="M45.682,14.318c-.391-.391-1.049-.364-1.439.025-3.381,3.381-5.243,7.875-5.243,12.657,0,.552.448,1,1,1s1-.448,1-1c0-4.247,1.654-8.24,4.707-11.293.391-.391.365-.999-.025-1.389Z"/>
  <path d="M45,11c.552,0,1-.448,1-1v-2c0-.552-.448-1-1-1s-1,.448-1,1v2c0,.552.448,1,1,1Z"/>
  <path d="M40.757,12.171c.373.373,1.021.393,1.414,0,.391-.391.391-1.023,0-1.414l-1.414-1.414c-.391-.391-1.023-.391-1.414,0s-.391,1.023,0,1.414l1.414,1.414Z"/>
  <path d="M38,16h2c.552,0,1-.448,1-1s-.448-1-1-1h-2c-.552,0-1,.448-1,1s.448,1,1,1Z"/>
  <path d="M45,23c.552,0,1-.448,1-1v-2c0-.552-.448-1-1-1s-1,.448-1,1v2c0,.552.448,1,1,1Z"/>
  <path d="M49.243,20.657c.371.371,1.023.391,1.414,0,.391-.391.391-1.023,0-1.414l-1.414-1.414c-.391-.391-1.023-.391-1.414,0s-.391,1.023,0,1.414c0,0,1.412,1.412,1.414,1.414Z"/>
  <path d="M49,15c0,.552.448,1,1,1h2c.552,0,1-.448,1-1s-.448-1-1-1h-2c-.552,0-1,.448-1,1Z"/>
  <path d="M48.536,12.464c.256,0,.512-.098.707-.293l1.414-1.414c.391-.391.391-1.023,0-1.414s-1.023-.391-1.414,0l-1.414,1.414c-.616.616-.162,1.707.707,1.707Z"/>
  <path d="M27,11c.552,0,1-.448,1-1v-2c0-.552-.448-1-1-1s-1,.448-1,1v2c0,.552.448,1,1,1Z"/>
  <path d="M22.757,12.171c.373.373,1.019.395,1.414,0,.391-.391.391-1.023,0-1.414l-1.414-1.414c-.391-.391-1.023-.391-1.414,0s-.391,1.023,0,1.414l1.414,1.414Z"/>
  <path d="M20,16h2c.552,0,1-.448,1-1s-.448-1-1-1h-2c-.552,0-1,.448-1,1s.448,1,1,1Z"/>
  <path d="M22.757,17.829l-1.414,1.414c-.391.391-.391,1.023,0,1.414.365.366,1.03.384,1.414,0l1.414-1.414c.391-.391.391-1.023,0-1.414s-1.023-.391-1.414,0Z"/>
  <path d="M26,20v2c0,.552.448,1,1,1s1-.448,1-1v-2c0-.552-.448-1-1-1s-1,.448-1,1Z"/>
  <path d="M29.829,17.829c-.391.391-.391,1.023,0,1.414l1.414,1.414c.195.195.451.293.707.293.873,0,1.325-1.089.707-1.707l-1.414-1.414c-.391-.391-1.023-.391-1.414,0Z"/>
  <path d="M31,15c0,.552.448,1,1,1h2c.552,0,1-.448,1-1s-.448-1-1-1h-2c-.552,0-1,.448-1,1Z"/>
  <path d="M30.536,12.464c.256,0,.512-.098.707-.293l1.414-1.414c.391-.391.391-1.023,0-1.414s-1.023-.391-1.414,0l-1.414,1.414c-.601.601-.145,1.707.707,1.707Z"/>
  <path d="M27,18c1.654,0,3-1.346,3-3s-1.346-3-3-3-3,1.346-3,3,1.346,3,3,3ZM27,14c.551,0,1,.449,1,1s-.449,1-1,1-1-.449-1-1,.449-1,1-1Z"/>
</svg>