<?xml version="1.0" encoding="UTF-8"?>
<svg id="Outline" xmlns="http://www.w3.org/2000/svg" version="1.1" viewBox="0 0 64 64">
  <!-- Generator: Adobe Illustrator 29.5.1, SVG Export Plug-In . SVG Version: 2.1.0 Build 141)  -->
  <path d="M54,35c-1.3,0-2.4.84-2.82,2h-25.18c-1.3,0-2.4.84-2.82,2h-2.18v-3c0-.5-.38-.93-.88-.99l-7.12-.89v-4.12c0-1.65-1.35-3-3-3s-3,1.35-3,3v22c0,.55.45,1,1,1h4c.55,0,1-.45,1-1v-5h10.18c.42,1.16,1.52,2,2.82,2h25v3c0,.55.45,1,1,1h4c.55,0,1-.45,1-1v-14c0-1.65-1.35-3-3-3ZM11,51h-2v-21c0-.55.45-1,1-1s1,.45,1,1v21ZM13,36.13l6,.75v2.12h-6v-2.87ZM23,45h-10v-4h10v4ZM51,43h-13c-.55,0-1,.45-1,1s.45,1,1,1h13v2h-25c-.55,0-1-.45-1-1v-6c0-.55.45-1,1-1h25v4ZM55,51h-2v-13c0-.55.45-1,1-1s1,.45,1,1v13Z"/>
  <path d="M34,43h-2c-.553,0-1,.448-1,1s.447,1,1,1h2c.553,0,1-.448,1-1s-.447-1-1-1Z"/>
  <path d="M32,35c6.617,0,12-5.383,12-12s-5.383-12-12-12-12,5.383-12,12,5.383,12,12,12ZM32,13c5.514,0,10,4.486,10,10s-4.486,10-10,10-10-4.486-10-10,4.486-10,10-10Z"/>
  <path d="M32,31c3.326,0,6.252-2.008,7.456-5.115.143-.37.055-.789-.226-1.068-.281-.281-.701-.368-1.068-.225-.7.271-1.428.409-2.162.409-3.309,0-6-2.691-6-6,0-.734.138-1.462.409-2.162.143-.369.055-.788-.226-1.068-.278-.279-.697-.368-1.068-.226-3.107,1.203-5.115,4.13-5.115,7.456,0,4.411,3.589,8,8,8ZM28.015,18.513c-.01.162-.015.325-.015.487,0,4.411,3.589,8,8,8,.163,0,.325-.005.487-.015-1.113,1.263-2.726,2.015-4.487,2.015-3.309,0-6-2.691-6-6,0-1.762.752-3.374,2.015-4.487Z"/>
</svg>