<?xml version="1.0" encoding="UTF-8"?>
<svg id="Outline" xmlns="http://www.w3.org/2000/svg" version="1.1" viewBox="0 0 64 64">
  <!-- Generator: Adobe Illustrator 29.5.1, SVG Export Plug-In . SVG Version: 2.1.0 Build 141)  -->
  <path d="M41.38,10.52c-2.18-2.27-5.11-3.52-8.25-3.52h-2.26c-3.14,0-6.07,1.25-8.25,3.52-2.17,2.26-3.3,5.24-3.17,8.38l1.13,27.15c.26,6.14,5.27,10.95,11.42,10.95s11.16-4.81,11.42-10.95l1.13-27.15c.13-3.14-1-6.12-3.17-8.38ZM34,54.78c-.65.14-1.31.22-2,.22-5.07,0-9.21-3.97-9.42-9.03l-.89-21.41,2.98.65c2.39.52,4.86.79,7.33.79.67,0,1.33-.02,2-.06v28.84ZM25,23.23v-5.23c0-.55.45-1,1-1h12c.55,0,1,.45,1,1v5.23l-.09.02c-4.52,1-9.3,1-13.82,0l-.09-.02ZM41.42,45.97c-.15,3.63-2.33,6.69-5.42,8.14v-28.35c1.12-.13,2.23-.31,3.33-.55l2.98-.65-.89,21.41ZM42.4,22.5l-1.4.3v-4.8c0-1.65-1.35-3-3-3h-12c-1.65,0-3,1.35-3,3v4.8l-1.4-.3-.15-3.68c-.11-2.59.82-5.05,2.62-6.92,1.79-1.87,4.21-2.9,6.8-2.9h2.26c2.59,0,5.01,1.03,6.8,2.9,1.8,1.87,2.73,4.33,2.62,6.92l-.15,3.68Z"/>
</svg>