<?xml version="1.0" encoding="UTF-8"?>
<svg id="Outline" xmlns="http://www.w3.org/2000/svg" version="1.1" viewBox="0 0 64 64">
  <!-- Generator: Adobe Illustrator 29.5.1, SVG Export Plug-In . SVG Version: 2.1.0 Build 141)  -->
  <path d="M56,46h-4c-.55,0-1,.45-1,1s-.45,1-1,1h-2v-6h2c2.76,0,5-2.24,5-5v-7.11c1.24-1.26,2-2.99,2-4.89,0-3.86-3.14-7-7-7h-3c-.55,0-1,.45-1,1v4c0,.55.45,1,1,1h3c.55,0,1,.45,1,1s-.45,1-1,1h-6v-9c0-1.38-.95-2.54-2.22-2.88.14-.35.22-.73.22-1.12,0-1.65-1.35-3-3-3-1.64,0-3.09.81-4,2.03-.91-1.22-2.36-2.03-4-2.03-1.65,0-3,1.35-3,3,0,.39.08.77.22,1.12-1.27.34-2.22,1.5-2.22,2.88v4.76l-3.71-3.71c-1.32-1.32-3.08-2.05-4.95-2.05h-9.34c-.55,0-1,.45-1,1v4c0,.55.45,1,1,1h1v15c0,2.76,2.24,5,5,5h1v6h-5c-1.65,0-3,1.35-3,3s1.35,3,3,3h40c3.86,0,7-3.14,7-7,0-.55-.45-1-1-1ZM39,12c.55,0,1,.45,1,1s-.45,1-1,1h-2.83c.41-1.16,1.53-2,2.83-2ZM31,12c1.3,0,2.42.84,2.83,2h-2.83c-.55,0-1-.45-1-1s.45-1,1-1ZM28,17c0-.55.45-1,1-1h12c.55,0,1,.45,1,1v1h-14v-1ZM42,20v6h-4v-6h4ZM36,20v6h-2v-6h2ZM28,20h4v6h-1.34c-.27,0-.52-.1-.71-.29l-1.95-1.95v-3.76ZM9,20v-2h8.34c1.34,0,2.59.52,3.54,1.46l7.66,7.66c.56.57,1.32.88,2.12.88h19.34c1.65,0,3-1.35,3-3s-1.35-3-3-3h-2v-2h2c2.76,0,5,2.24,5,5s-2.24,5-5,5h-19.34c-1.34,0-2.59-.52-3.54-1.46l-7.66-7.66c-.56-.57-1.32-.88-2.12-.88h-8.34ZM14,40c-1.65,0-3-1.35-3-3v-15h6.34c.27,0,.52.1.71.29l7.66,7.66c1.32,1.32,3.08,2.05,4.95,2.05h19.34c1.07,0,2.09-.25,3-.69v5.69c0,1.65-1.35,3-3,3h-18c-.55,0-1,.45-1,1s.45,1,1,1h10v6h-21v-6h3c.55,0,1-.45,1-1s-.45-1-1-1h-10ZM46,42v6h-2v-6h2ZM19,42v6h-2v-6h2ZM50,52H10c-.55,0-1-.45-1-1s.45-1,1-1h40c1.3,0,2.42-.84,2.83-2h2.07c-.47,2.28-2.48,4-4.9,4Z"/>
  <circle cx="28" cy="41" r="1"/>
</svg>