<?xml version="1.0" encoding="UTF-8"?>
<svg id="Outline" xmlns="http://www.w3.org/2000/svg" version="1.1" viewBox="0 0 64 64">
  <!-- Generator: Adobe Illustrator 29.5.1, SVG Export Plug-In . SVG Version: 2.1.0 Build 141)  -->
  <path d="M56.82,39.43c-.19-.27-.49-.43-.82-.43h-1.18c.11-.31.18-.65.18-1v-2c0-.88-.39-1.67-1-2.22v-5.56c.61-.55,1-1.34,1-2.22v-2c0-1.65-1.35-3-3-3h-7v-5c0-.55-.45-1-1-1s-1,.45-1,1v5h-2c-.55,0-1,.45-1,1s.45,1,1,1h11c.55,0,1,.45,1,1v2c0,.55-.45,1-1,1h-16c-.55,0-1-.45-1-1v-2c0-.55.45-1,1-1h1c.55,0,1-.45,1-1s-.45-1-1-1h-1c-1.65,0-3,1.35-3,3v2c0,.88.39,1.67,1,2.22v5.56c-.61.55-1,1.34-1,2.22v2c0,.35.07.69.18,1h-2.36c.11-.31.18-.65.18-1v-2c0-.88-.39-1.67-1-2.22v-5.56c.61-.55,1-1.34,1-2.22v-2c0-1.65-1.35-3-3-3h-7v-5c0-.55-.45-1-1-1s-1,.45-1,1v5h-7c-1.65,0-3,1.35-3,3v2c0,.88.39,1.67,1,2.22v5.56c-.61.55-1,1.34-1,2.22v2c0,.35.07.69.18,1h-1.18c-.33,0-.63.16-.82.43s-.23.61-.12.92l3,8c.15.39.52.65.94.65h42c.42,0,.79-.26.94-.65l3-8c.11-.31.07-.65-.12-.92ZM47,29l-1,.75-1-.75h2ZM36,29h5.67l3.73,2.8c.18.13.39.2.6.2s.42-.07.6-.2l3.73-2.8h1.67v4h-16v-4ZM35,36c0-.55.45-1,1-1h16c.55,0,1,.45,1,1v2c0,.55-.45,1-1,1h-16c-.55,0-1-.45-1-1v-2ZM11,24c0-.55.45-1,1-1h16c.55,0,1,.45,1,1v2c0,.55-.45,1-1,1H12c-.55,0-1-.45-1-1v-2ZM19,29l-1,.75-1-.75h2ZM11,36c0-.55.45-1,1-1h10c.55,0,1-.45,1-1s-.45-1-1-1h-10v-4h1.67l3.73,2.8c.18.13.39.2.6.2s.42-.07.6-.2l3.73-2.8h5.67v4h-2c-.55,0-1,.45-1,1s.45,1,1,1h2c.55,0,1,.45,1,1v2c0,.55-.45,1-1,1H12c-.55,0-1-.45-1-1v-2ZM52.31,47H11.69l-2.25-6h45.12l-2.25,6Z"/>
</svg>