<?xml version="1.0" encoding="UTF-8"?>
<svg id="Outline" xmlns="http://www.w3.org/2000/svg" version="1.1" viewBox="0 0 64 64">
  <!-- Generator: Adobe Illustrator 29.3.1, SVG Export Plug-In . SVG Version: 2.1.0 Build 151)  -->
  <path d="M56,18h-3.06c-.22003-2.02002-1.10999-3.90002-2.58002-5.37-1.70001-1.70001-3.95996-2.63-6.35999-2.63h-24c-4.62,0-8.44,3.51001-8.94,8h-3.06c-.54999,0-1,.45001-1,1v10c0,.38.21002.71997.54999.89001l3.45001,1.72998v13.38c0,1.64996,1.34998,3,3,3h2v5c0,.54999.45001,1,1,1h4c.42999,0,.81-.28003.95001-.67999l1.76996-5.32001h16.56006l1.76996,5.32001c.14001.39996.52002.67999.95001.67999h4c.54999,0,1-.45001,1-1v-5h2c1.65002,0,3-1.35004,3-3v-13.38l3.45001-1.72998c.33997-.17004.54999-.51001.54999-.89001v-10c0-.54999-.45001-1-1-1ZM11,29.38l-2-1v-8.38h2v9.38ZM20,12h24c1.85999,0,3.62.72998,4.95001,2.03998,1.08002,1.09003,1.76996,2.47003,1.97998,3.96002h-19.92999c-.54999,0-1,.45001-1,1s.45001,1,1,1h15v20h-9.53998c.94995-1.06,1.53998-2.46002,1.53998-4,0-3.31-2.69-6-6-6s-6,2.69-6,6c0,1.53998.59003,2.94,1.53998,4h-9.53998v-20h5c.54999,0,1-.45001,1-1s-.45001-1-1-1h-9.92999c.48999-3.39001,3.40997-6,6.92999-6ZM32,36c.54999,0,1-.45001,1-1v-2.85999c1.71997.44995,3,2,3,3.85999,0,2.20996-1.78998,4-4,4s-4-1.79004-4-4c0-1.85999,1.28003-3.41003,3-3.85999v2.85999c0,.54999.45001,1,1,1ZM13,20h3v20h-3v-20ZM20.28003,52h-2.28003v-4h3.60999l-1.32996,4ZM46,52h-2.28003l-1.32996-4h3.60999v4ZM51,45c0,.54999-.45001,1-1,1H14c-.54999,0-1-.45001-1-1v-3h38v3ZM51,40h-3v-20h3v20ZM55,28.38l-2,1v-9.38h2v8.38Z"/>
  <path d="M32,28c.55273,0,1-.44727,1-1v-2c0-.55273-.44727-1-1-1s-1,.44727-1,1v2c0,.55273.44727,1,1,1Z"/>
  <path d="M23.51465,28.92871l1.41406,1.41406c.37242.37242,1.01885.39521,1.41406,0,.39062-.39062.39062-1.02344,0-1.41406l-1.41406-1.41406c-.39062-.39062-1.02344-.39062-1.41406,0s-.39062,1.02344,0,1.41406Z"/>
  <path d="M23,35h-2c-.55273,0-1,.44727-1,1s.44727,1,1,1h2c.55273,0,1-.44727,1-1s-.44727-1-1-1Z"/>
  <path d="M38.36426,30.63226c.2572-.00004.51426-.09671.70703-.28948l1.41406-1.41406c.39062-.39062.39062-1.02344,0-1.41406s-1.02344-.39062-1.41406,0l-1.41405,1.41405c-.61654.61654-.16223,1.7037.70702,1.70356Z"/>
  <path d="M40,36c0,.55273.44727,1,1,1h2c.55273,0,1-.44727,1-1s-.44727-1-1-1h-2c-.55273,0-1,.44727-1,1Z"/>
  <circle cx="27" cy="19" r="1"/>
</svg>