<?xml version="1.0" encoding="UTF-8"?>
<svg id="Outline" xmlns="http://www.w3.org/2000/svg" version="1.1" viewBox="0 0 64 64">
  <!-- Generator: Adobe Illustrator 29.5.1, SVG Export Plug-In . SVG Version: 2.1.0 Build 141)  -->
  <path d="M52,16h-13v-6c0-1.65-1.35-3-3-3H12c-1.65,0-3,1.35-3,3v44c0,1.65,1.35,3,3,3h24c1.65,0,3-1.35,3-3v-6h13c1.65,0,3-1.35,3-3v-26c0-1.65-1.35-3-3-3ZM17,9h14v1c0,.55-.45,1-1,1h-12c-.55,0-1-.45-1-1v-1ZM21.18,55h-9.18c-.55,0-1-.45-1-1v-1.18c.31.11.65.18,1,.18h9.18c-.11.31-.18.65-.18,1s.07.69.18,1ZM24,55c-.55,0-1-.45-1-1s.45-1,1-1,1,.45,1,1-.45,1-1,1ZM37,54c0,.55-.45,1-1,1h-9.18c.11-.31.18-.65.18-1s-.07-.69-.18-1h9.18c.35,0,.69-.07,1-.18v1.18ZM37,50c0,.55-.45,1-1,1H12c-.55,0-1-.45-1-1V10c0-.55.45-1,1-1h3v1c0,1.65,1.35,3,3,3h12c1.65,0,3-1.35,3-3v-1h3c.55,0,1,.45,1,1v6h-9c-1.65,0-3,1.35-3,3v6.59l-5.71,5.7c-.39.39-.39,1.03,0,1.42l5.71,5.7v6.59c0,1.65,1.35,3,3,3h9v2ZM53,45c0,.55-.45,1-1,1h-24c-.55,0-1-.45-1-1v-7c0-.27-.11-.52-.29-.71l-5.3-5.29,5.3-5.29c.18-.19.29-.44.29-.71v-7c0-.55.45-1,1-1h24c.55,0,1,.45,1,1v26Z"/>
  <path d="M47,32.395v-1.395c0-2.785-1.639-5.189-4-6.315v-1.685c0-1.654-1.346-3-3-3s-3,1.346-3,3v1.685c-2.361,1.126-4,3.53-4,6.315v1.395c0,2.161-.633,4.253-1.832,6.051-.205.307-.224.701-.05,1.026.174.325.513.528.882.528h3.101c.465,2.279,2.484,4,4.899,4s4.434-1.721,4.899-4h3.101c.369,0,.708-.203.882-.528.174-.325.155-.72-.05-1.026-1.199-1.798-1.832-3.89-1.832-6.051ZM39,23c0-.551.449-1,1-1s1,.449,1,1v1.08c-.328-.047-.66-.08-1-.08s-.672.033-1,.08v-1.08ZM40,42c-1.302,0-2.402-.839-2.816-2h5.631c-.414,1.161-1.514,2-2.816,2ZM33.721,38c.841-1.741,1.279-3.649,1.279-5.605v-1.395c0-2.757,2.243-5,5-5s5,2.243,5,5v1.395c0,1.956.438,3.864,1.279,5.605h-12.559Z"/>
</svg>