<?xml version="1.0" encoding="UTF-8"?>
<svg id="Outline" xmlns="http://www.w3.org/2000/svg" version="1.1" viewBox="0 0 64 64">
  <!-- Generator: Adobe Illustrator 29.5.1, SVG Export Plug-In . SVG Version: 2.1.0 Build 141)  -->
  <path d="M52,7h-24c-1.65,0-3,1.35-3,3v19.18l-3.41.68c-.61.12-1.2.33-1.76.6l-2.72,1.37c-1.9.95-3.25,2.67-3.71,4.74l-.69,3.13c-.35,1.56-1.51,2.84-3.03,3.35-.52.18-.8.74-.63,1.27.14.42.53.68.95.68.1,0,.21-.02.32-.05,2.18-.73,3.84-2.57,4.34-4.82l.7-3.13c.32-1.47,1.29-2.71,2.64-3.38l2.73-1.37c.4-.2.82-.34,1.25-.43l3.02-.6v4.3l-4.62,3.7c-.24.19-.38.48-.38.78v8c0,.39.23.75.59.91.35.16.77.1,1.07-.16l5.94-5.2c.76-.66,1.91-.62,2.63.09.75.75.75,1.97,0,2.72l-4.94,4.93-2.24,2.25c-.94.94-2.2,1.46-3.54,1.46h-9.51c-.55,0-1,.45-1,1s.45,1,1,1h9.51c1.87,0,3.63-.73,4.95-2.05l.58-.57c.19,1.47,1.43,2.62,2.96,2.62h24c1.65,0,3-1.35,3-3V10c0-1.65-1.35-3-3-3ZM25,43.17l-3,2.63v-5.32l3-2.4v5.09ZM33,9h14v1c0,.55-.45,1-1,1h-12c-.55,0-1-.45-1-1v-1ZM37.18,55h-9.18c-.55,0-1-.45-1-1v-1.18c.32.11.65.18,1,.18h9.18c-.11.31-.18.65-.18,1s.07.69.18,1ZM40,55c-.55,0-1-.45-1-1s.45-1,1-1,1,.45,1,1-.45,1-1,1ZM53,54c0,.55-.45,1-1,1h-9.18c.11-.31.18-.65.18-1s-.07-.69-.18-1h9.18c.35,0,.69-.07,1-.18v1.18ZM53,50c0,.55-.45,1-1,1h-23.59l3.23-3.23c1.53-1.53,1.53-4.01,0-5.54-1.24-1.25-3.15-1.48-4.64-.67V10c0-.55.45-1,1-1h3v1c0,1.65,1.35,3,3,3h12c1.65,0,3-1.35,3-3v-1h3c.55,0,1,.45,1,1v40Z"/>
  <path d="M38,36c.552,0,1-.448,1-1s-.448-1-1-1h-3c-.459,0-.859.312-.97.757l-1,4c-.075.299-.007.615.182.858s.48.385.788.385h2c.551,0,1,.449,1,1s-.449,1-1,1c-.356,0-.688-.192-.867-.501-.277-.478-.888-.64-1.367-.364-.478.277-.641.889-.364,1.367.535.924,1.531,1.498,2.598,1.498,1.654,0,3-1.346,3-3s-1.346-3-3-3h-.719l.5-2h2.219Z"/>
  <path d="M41,37v4c0,1.654,1.346,3,3,3s3-1.346,3-3v-1c0-.552-.448-1-1-1h-1c-.552,0-1,.448-1,1s.448,1,1,1c0,.551-.449,1-1,1s-1-.449-1-1v-4c0-.551.449-1,1-1s1,.449,1,1,.448,1,1,1,1-.448,1-1c0-1.654-1.346-3-3-3s-3,1.346-3,3Z"/>
  <path d="M35,31v-4c0-.347-.18-.668-.474-.851-.294-.183-.663-.198-.973-.044l-4,2c-.339.169-.553.516-.553.895v2c0,.552.448,1,1,1h4c.552,0,1-.448,1-1ZM33,30h-2v-.382l2-1v1.382Z"/>
  <path d="M38,32h4c.552,0,1-.448,1-1v-9c0-.347-.18-.668-.474-.851-.295-.182-.664-.199-.973-.044l-4,2c-.339.169-.553.516-.553.895v7c0,.552.448,1,1,1ZM39,24.618l2-1v6.382h-2v-5.382Z"/>
  <path d="M46,32h4c.552,0,1-.448,1-1v-14c0-.347-.18-.668-.474-.851-.295-.182-.663-.198-.973-.044l-4,2c-.339.169-.553.516-.553.895v12c0,.552.448,1,1,1ZM47,19.618l2-1v11.382h-2v-10.382Z"/>
</svg>