<?xml version="1.0" encoding="UTF-8"?>
<svg id="Outline" xmlns="http://www.w3.org/2000/svg" version="1.1" viewBox="0 0 48 48">
  <!-- Generator: Adobe Illustrator 29.5.1, SVG Export Plug-In . SVG Version: 2.1.0 Build 141)  -->
  <path d="M31.61,13.06l-.63-3.25c-.09-.47-.5-.81-.98-.81v-3c0-.55-.45-1-1-1h-10c-.55,0-1,.45-1,1v3c-.48,0-.89.34-.98.81l-.63,3.25c-1.36.28-2.39,1.49-2.39,2.94v16c0,1.45,1.03,2.66,2.39,2.94l.63,3.25c.09.47.5.81.98.81v3c0,.55.45,1,1,1h10c.55,0,1-.45,1-1v-3c.48,0,.89-.34.98-.81l.63-3.25c1.36-.28,2.39-1.49,2.39-2.94v-16c0-1.45-1.03-2.66-2.39-2.94ZM20,7h8v2h-8v-2ZM18.83,11h10.34l.39,2h-11.12l.39-2ZM28,41h-8v-2h8v2ZM29.17,37h-10.34l-.39-2h11.12l-.39,2ZM32,32c0,.55-.45,1-1,1h-14c-.55,0-1-.45-1-1v-16c0-.55.45-1,1-1h14c.55,0,1,.45,1,1v16Z"/>
  <path d="M25,21.184v-3.184c0-.553-.447-1-1-1s-1,.447-1,1v3.184c-.098.035-.193.072-.285.116l-2.25-2.25c-.391-.391-1.023-.391-1.414,0s-.391,1.023,0,1.414l2.25,2.25c-.187.391-.301.824-.301,1.285,0,1.654,1.346,3,3,3s3-1.346,3-3c0-1.302-.839-2.402-2-2.816ZM24,25c-.552,0-1-.448-1-1s.448-1,1-1,1,.448,1,1-.448,1-1,1Z"/>
</svg>