<?xml version="1.0" encoding="UTF-8"?>
<svg id="Outline" xmlns="http://www.w3.org/2000/svg" version="1.1" viewBox="0 0 64 64">
  <!-- Generator: Adobe Illustrator 29.5.1, SVG Export Plug-In . SVG Version: 2.1.0 Build 141)  -->
  <path d="M46.454,45.948c-.781-.51-1.72-.684-2.633-.492l-9.933,2.081c.309-.983.242-2.027-.208-2.959-.47-.968-1.288-1.694-2.304-2.047l-7.112-2.468c-.856-.296-1.778-.354-2.663-.169,0,0-6.746,1.413-6.746,1.412-.339-1.619-1.929-2.666-3.551-2.32l-1.958.41c-1.619.339-2.66,1.932-2.32,3.551l2.46,11.745c.296,1.413,1.546,2.386,2.936,2.386.203,0,.41-.021.616-.064l1.957-.41c.784-.164,1.458-.624,1.896-1.295.322-.493.486-1.056.487-1.631,3.434.918,6.976,1.38,10.523,1.379,2.798,0,5.6-.287,8.352-.863l9.003-1.887c1.855-.389,3.098-2.291,2.709-4.143-.191-.917-.728-1.703-1.51-2.216ZM14.584,54.646l-1.957.41c-.548.113-1.071-.235-1.185-.774l-2.46-11.745c-.113-.539.234-1.07.773-1.184,0,0,1.958-.41,1.958-.41.534-.113,1.073.243,1.184.773,0,0,.205.979.205.98l2.256,10.765c.113.54-.234,1.071-.774,1.185ZM45.786,49.697c-.212.324-.545.57-.941.652l-9.004,1.887c-6.246,1.307-12.751,1.036-18.856-.76l-1.721-8.212,6.747-1.413c.53-.113,1.084-.075,1.597.102l7.111,2.467c1.043.362,1.613,1.54,1.25,2.581-.344.994-1.411,1.561-2.431,1.296l-5.938-1.562c-.526-.138-1.08.178-1.221.713-.141.534.179,1.081.713,1.221l5.938,1.562c.337.089.677.132,1.013.132.498,0,.983-.104,1.439-.278,0,0,12.707-2.662,12.748-2.671,1.277-.268,2.264,1.202,1.555,2.284Z"/>
  <path d="M54.039,6.922h-20c-1.65,0-3,1.35-3,3v28c0,1.65,1.35,3,3,3h20c1.65,0,3-1.35,3-3V9.922c0-1.65-1.35-3-3-3ZM55.039,37.922c0,.55-.45,1-1,1h-20c-.55,0-1-.45-1-1v-1.18c.31.11.65.18,1,.18h20c.35,0,.69-.07,1-.18v1.18ZM55.039,33.922c0,.55-.45,1-1,1h-20c-.55,0-1-.45-1-1V13.922c0-.55.45-1,1-1h20c.55,0,1,.45,1,1v20ZM55.039,11.102c-.31-.11-.65-.18-1-.18h-20c-.35,0-.69.07-1,.18v-1.18c0-.55.45-1,1-1h20c.55,0,1,.45,1,1v1.18Z"/>
  <path d="M38.039,28.922h2c.552,0,1,.448,1,1s-.448,1-1,1c-.356,0-.688-.191-.867-.501-.275-.479-.887-.645-1.366-.364-.478.276-.642.888-.364,1.366.534.925,1.53,1.499,2.598,1.499,1.654,0,3-1.346,3-3s-1.346-3-3-3h-.719l.5-2h2.219c.553,0,1-.447,1-1s-.447-1-1-1h-3c-.459,0-.858.312-.97.758l-1,4c-.075.299-.008.615.182.857.189.243.48.385.788.385Z"/>
  <path d="M45.039,25.922v4c0,1.654,1.346,3,3,3s3-1.346,3-3v-1c0-.553-.447-1-1-1h-1c-.553,0-1,.447-1,1s.447,1,1,1c0,.552-.448,1-1,1s-1-.448-1-1v-4c0-.552.448-1,1-1s1,.448,1,1,.447,1,1,1,1-.447,1-1c0-1.654-1.346-3-3-3s-3,1.346-3,3Z"/>
  <path d="M40.509,18.386c.936-.944,2.189-1.464,3.53-1.464s2.595.52,3.53,1.464c.195.197.452.296.71.296.872,0,1.325-1.083.71-1.704-1.313-1.325-3.071-2.056-4.95-2.056s-3.637.73-4.95,2.056c-.389.393-.387,1.025.006,1.414s1.025.386,1.414-.006Z"/>
  <path d="M46.141,21.223c.358-.363.433-.989.025-1.409-1.121-1.152-3.133-1.152-4.254,0-.385.396-.377,1.028.02,1.414.396.386,1.028.375,1.414-.02.359-.369,1.027-.369,1.387,0,.196.201.456.303.717.303.281,0,.52-.114.692-.288Z"/>
</svg>