<?xml version="1.0" encoding="UTF-8"?>
<svg id="Outline" xmlns="http://www.w3.org/2000/svg" version="1.1" viewBox="0 0 64 64">
  <!-- Generator: Adobe Illustrator 29.5.1, SVG Export Plug-In . SVG Version: 2.1.0 Build 141)  -->
  <path d="M22.81,23.13l-1.84-7.37c-.11-.45-.51-.76-.97-.76h-8c-.46,0-.86.31-.97.76l-1.84,7.37c-1.26.35-2.19,1.5-2.19,2.87v12c0,1.37.93,2.52,2.19,2.87l1.84,7.37c.11.45.51.76.97.76h8c.46,0,.86-.31.97-.76l1.84-7.37c1.26-.35,2.19-1.5,2.19-2.87v-12c0-1.37-.93-2.52-2.19-2.87ZM12.78,17h6.44l1.5,6h-9.44l1.5-6ZM19.22,47h-6.44l-1.5-6h9.44l-1.5,6ZM23,38c0,.55-.45,1-1,1h-12c-.55,0-1-.45-1-1v-12c0-.55.45-1,1-1h12c.55,0,1,.45,1,1v12Z"/>
  <path d="M54,7h-24c-1.65,0-3,1.35-3,3v44c0,1.65,1.35,3,3,3h24c1.65,0,3-1.35,3-3V10c0-1.65-1.35-3-3-3ZM35,9h14v1c0,.55-.45,1-1,1h-12c-.55,0-1-.45-1-1v-1ZM39.18,55h-9.18c-.55,0-1-.45-1-1v-1.18c.31.11.65.18,1,.18h9.18c-.11.31-.18.65-.18,1s.07.69.18,1ZM42,55c-.55,0-1-.45-1-1s.45-1,1-1,1,.45,1,1-.45,1-1,1ZM55,54c0,.55-.45,1-1,1h-9.18c.11-.31.18-.65.18-1s-.07-.69-.18-1h9.18c.35,0,.69-.07,1-.18v1.18ZM55,50c0,.55-.45,1-1,1h-24c-.55,0-1-.45-1-1V10c0-.55.45-1,1-1h3v1c0,1.65,1.35,3,3,3h12c1.65,0,3-1.35,3-3v-1h3c.55,0,1,.45,1,1v40Z"/>
  <path d="M52,15h-20c-.552,0-1,.447-1,1v8c0,.553.448,1,1,1h20c.552,0,1-.447,1-1v-8c0-.553-.448-1-1-1ZM51,23h-18v-6h18v6Z"/>
  <path d="M36,43h-4c-.552,0-1,.447-1,1v4c0,.553.448,1,1,1h4c.552,0,1-.447,1-1v-4c0-.553-.448-1-1-1ZM35,47h-2v-2h2v2Z"/>
  <path d="M44,43h-4c-.552,0-1,.447-1,1v4c0,.553.448,1,1,1h4c.552,0,1-.447,1-1v-4c0-.553-.448-1-1-1ZM43,47h-2v-2h2v2Z"/>
  <path d="M52,43h-4c-.552,0-1,.447-1,1v4c0,.553.448,1,1,1h4c.552,0,1-.447,1-1v-4c0-.553-.448-1-1-1ZM51,47h-2v-2h2v2Z"/>
  <path d="M36,35h-4c-.552,0-1,.447-1,1v4c0,.553.448,1,1,1h4c.552,0,1-.447,1-1v-4c0-.553-.448-1-1-1ZM35,39h-2v-2h2v2Z"/>
  <path d="M44,35h-4c-.552,0-1,.447-1,1v4c0,.553.448,1,1,1h4c.552,0,1-.447,1-1v-4c0-.553-.448-1-1-1ZM43,39h-2v-2h2v2Z"/>
  <path d="M52,35h-4c-.552,0-1,.447-1,1v4c0,.553.448,1,1,1h4c.552,0,1-.447,1-1v-4c0-.553-.448-1-1-1ZM51,39h-2v-2h2v2Z"/>
  <path d="M36,27h-4c-.552,0-1,.447-1,1v4c0,.553.448,1,1,1h4c.552,0,1-.447,1-1v-4c0-.553-.448-1-1-1ZM35,31h-2v-2h2v2Z"/>
  <path d="M44,27h-4c-.552,0-1,.447-1,1v4c0,.553.448,1,1,1h4c.552,0,1-.447,1-1v-4c0-.553-.448-1-1-1ZM43,31h-2v-2h2v2Z"/>
  <path d="M52,27h-4c-.552,0-1,.447-1,1v4c0,.553.448,1,1,1h4c.552,0,1-.447,1-1v-4c0-.553-.448-1-1-1ZM51,31h-2v-2h2v2Z"/>
  <path d="M16,28.41c-1.878,0-3.637.73-4.951,2.056-.389.393-.386,1.025.006,1.414.393.389,1.025.387,1.415-.006.935-.944,2.189-1.464,3.53-1.464s2.595.52,3.53,1.464c.196.197.453.296.71.296.871,0,1.325-1.083.711-1.704-1.314-1.325-3.072-2.056-4.951-2.056Z"/>
  <path d="M13.874,33.303c-.385.396-.377,1.028.019,1.414.395.386,1.029.376,1.414-.02.361-.369,1.026-.369,1.388,0,.196.201.456.303.716.303.865,0,1.322-1.074.716-1.697-1.12-1.152-3.133-1.152-4.253,0Z"/>
</svg>