<?xml version="1.0" encoding="UTF-8"?>
<svg id="Outline" xmlns="http://www.w3.org/2000/svg" version="1.1" viewBox="0 0 64 64">
  <!-- Generator: Adobe Illustrator 29.5.1, SVG Export Plug-In . SVG Version: 2.1.0 Build 141)  -->
  <path d="M53,18.46997v-3.46997c0-.54999-.45001-1-1-1h-2.65997c-4.70001-4.51001-10.84003-7-17.34003-7s-12.64001,2.48999-17.34003,7h-2.65997c-.54999,0-1,.45001-1,1v3.46997c-2.60999,4.03003-4,8.70001-4,13.53003,0,13.78998,11.21002,25,25,25s25-11.21002,25-25c0-4.83002-1.39001-9.5-4-13.53003ZM13,16h25c.54999,0,1-.45001,1-1s-.45001-1-1-1h-20.29999c4.07001-3.23004,9.04999-5,14.29999-5s10.22998,1.76996,14.29999,5h-4.29999c-.54999,0-1,.45001-1,1s.45001,1,1,1h9v5c0,4.95996-4.03998,9-9,9s-9-4.04004-9-9c0-.54999-.45001-1-1-1s-1,.45001-1,1c0,4.95996-4.03998,9-9,9s-9-4.04004-9-9v-5ZM32,55c-12.67999,0-23-10.32001-23-23,0-3.34003.71997-6.60004,2.09998-9.59003.70001,5.40002,5.31,9.59003,10.90002,9.59003,4.42999,0,8.26001-2.63,10-6.42004,1.73999,3.79004,5.57001,6.42004,10,6.42004,5.59003,0,10.20001-4.19,10.90002-9.59003,1.38,2.98999,2.09998,6.25,2.09998,9.59003,0,12.67999-10.32001,23-23,23Z"/>
  <path d="M52.53906,34.34863c-.19043-.22168-.46777-.34863-.75879-.34863h-11.78027c-.55273,0-1,.44727-1,1s.44727,1,1,1h6v2h-28v-2h18c.55273,0,1-.44727,1-1s-.44727-1-1-1H12.21973c-.29102,0-.56836.12695-.75879.34863-.18945.2207-.27344.51367-.22949.80176,1.5459,10.17578,10.47461,17.84961,20.76855,17.84961s19.22266-7.67383,20.76855-17.84961c.04394-.28809-.04004-.58105-.22949-.80176ZM24.43848,49.3927c1.09705-3.21228,4.09454-5.3927,7.56152-5.3927s6.46454,2.18042,7.56158,5.3927c-2.33588,1.02802-4.89563,1.6073-7.56158,1.6073s-5.22565-.57928-7.56152-1.6073ZM41.36078,48.4953c-1.4397-3.87952-5.11798-6.4953-9.36078-6.4953s-7.92108,2.61578-9.36078,6.4953c-4.5965-2.62946-8.05518-7.1239-9.2193-12.4953h2.58008v3c0,.55273.44727,1,1,1h30c.55273,0,1-.44727,1-1v-3h2.58008c-1.16412,5.3714-4.6228,9.86584-9.2193,12.4953Z"/>
</svg>