<?xml version="1.0" encoding="UTF-8"?>
<svg id="Outline" xmlns="http://www.w3.org/2000/svg" version="1.1" viewBox="0 0 64 64">
  <!-- Generator: Adobe Illustrator 29.5.1, SVG Export Plug-In . SVG Version: 2.1.0 Build 141)  -->
  <path d="M56.82,36.429c-.18-.27-.49-.43-.82-.43H8c-.33,0-.64.16-.82.43-.19.27-.23.61-.12.92l3,8c.15.39.52.65.94.65h4v5.18c-1.16.42-2,1.52-2,2.82,0,1.65,1.35,3,3,3s3-1.35,3-3c0-1.3-.84-2.4-2-2.82v-1.18h30v1.18c-1.16.42-2,1.52-2,2.82,0,1.65,1.35,3,3,3s3-1.35,3-3c0-1.3-.84-2.4-2-2.82v-5.18h4c.42,0,.79-.26.94-.65l3-8c.11-.31.07-.65-.12-.92ZM24,37.999h16v2h-16v-2ZM16,54.999c-.55,0-1-.45-1-1s.45-1,1-1,1,.45,1,1-.45,1-1,1ZM48,54.999c-.55,0-1-.45-1-1s.45-1,1-1,1,.45,1,1-.45,1-1,1ZM52.31,43.999h-11.31c-.55,0-1,.45-1,1s.45,1,1,1h6v2h-30v-2h16c.55,0,1-.45,1-1s-.45-1-1-1H11.69l-2.25-6h12.56v3c0,.55.45,1,1,1h18c.55,0,1-.45,1-1v-3h12.56l-2.25,6Z"/>
  <path d="M20.263,22.585c-.173.448-.263.927-.263,1.414,0,1.861,1.278,3.43,3.002,3.874-.012.36.028.722.119,1.084.385,1.524,1.606,2.69,3.155,2.979.349.061.724.326.724.763v.301c0,.553.448,1,1,1s1-.447,1-1v-.301c0-1.342-1-2.491-2.401-2.737-.729-.135-1.347-.735-1.539-1.494-.097-.386-.076-.758.066-1.136.115-.308.072-.651-.115-.921-.187-.27-.494-.431-.822-.431-.077,0-.161.009-.19.02-1.103,0-2-.897-2-2,0-.492.189-.969.534-1.341.261-.282.337-.689.196-1.047-.141-.357-.476-.603-.859-.629-1.049-.074-1.871-.945-1.871-1.983,0-1.103.897-2,2-2,.552,0,1-.447,1-1,0-.838.518-1.573,1.32-1.873.326-.121.565-.404.631-.746s-.049-.693-.306-.928c-.521-.478-.746-1.179-.602-1.875.166-.797.839-1.437,1.639-1.555,1.023-.155,1.966.458,2.231,1.453.073.276.262.508.517.637.257.128.555.143.82.035.73-.289,1.513-.14,2.078.373.381.346.963.346,1.344,0,.564-.514,1.347-.663,2.078-.373.266.107.564.093.82-.035.255-.129.444-.36.517-.637.265-.995,1.202-1.607,2.231-1.453.799.118,1.473.758,1.639,1.555.145.696-.08,1.397-.602,1.875-.257.234-.373.586-.306.928s.306.625.631.746c.802.3,1.32,1.035,1.32,1.873,0,.553.448,1,1,1,1.103,0,2,.897,2,2,0,1.038-.822,1.909-1.871,1.983-.383.026-.718.271-.859.629-.142.357-.065.765.196,1.047.344.372.534.849.534,1.341,0,1.103-.897,2-1.946,2.001-.049-.007-.194-.021-.244-.021-.328,0-.635.161-.822.431-.187.27-.229.613-.115.921.142.378.164.75.066,1.136-.191.759-.81,1.359-1.562,1.498-1.377.242-2.377,1.392-2.377,2.733v.301c0,.553.448,1,1,1s1-.447,1-1v-.301c0-.437.375-.702.767-.771,1.506-.28,2.727-1.446,3.112-2.971.092-.361.131-.724.12-1.084,1.724-.444,3.002-2.013,3.002-3.874,0-.487-.09-.966-.263-1.414,1.342-.651,2.263-2.024,2.263-3.586,0-1.898-1.329-3.491-3.105-3.899-.204-.862-.694-1.638-1.382-2.197.45-.818.599-1.777.401-2.731-.333-1.602-1.691-2.888-3.303-3.127-1.68-.244-3.288.577-4.082,1.991-.876-.121-1.771.065-2.529.51-.757-.444-1.653-.631-2.529-.51-.793-1.414-2.399-2.235-4.082-1.991-1.612.239-2.97,1.525-3.303,3.127-.198.954-.049,1.913.401,2.731-.688.56-1.178,1.335-1.382,2.197-1.776.408-3.105,2.001-3.105,3.899,0,1.562.921,2.935,2.263,3.586Z"/>
  <path d="M29.252,19.347c.114-.13.362-.348.748-.348.551,0,1,.448,1,1s.448,1,1,1,1-.447,1-1c0-1.654-1.346-3-3-3-.531,0-1.047.144-1.5.408-.453-.265-.969-.408-1.5-.408-1.654,0-3,1.346-3,3,0,.553.448,1,1,1s1-.447,1-1,.449-1,1-1c.385,0,.634.218.748.348.38.436,1.125.436,1.505,0Z"/>
  <path d="M37,14.999c-1.654,0-3,1.346-3,3,0,.553.448,1,1,1s1-.447,1-1,.449-1,1-1,1,.448,1,1c0,.386-.218.634-.348.747-.217.189-.342.464-.342.753s.125.563.342.753c.13.113.348.361.348.747,0,.552-.449,1-1,1s-1,.447-1,1,.448,1,1,1c1.654,0,3-1.346,3-3,0-.531-.144-1.048-.408-1.5.265-.452.408-.969.408-1.5,0-1.654-1.346-3-3-3Z"/>
  <path d="M28,26.999c.552,0,1-.447,1-1,0-.72.809-1.259,1.497-.858.311.182.696.182,1.007,0,.689-.4,1.497.138,1.497.858,0,.553.448,1,1,1s1-.447,1-1c0-1.654-1.346-3-3-3-.338,0-.677.061-1,.178-.323-.117-.662-.178-1-.178-1.654,0-3,1.346-3,3,0,.553.448,1,1,1Z"/>
  <path d="M45.094,27.423c.165.352.518.576.906.576h2v5c0,.553.448,1,1,1h4c.552,0,1-.447,1-1v-5h2c.388,0,.741-.225.906-.576.165-.351.111-.766-.138-1.064l-5-6c-.38-.455-1.156-.455-1.536,0l-5,6c-.249.299-.302.714-.138,1.064ZM51,22.561l2.865,3.438h-.865c-.552,0-1,.447-1,1v5h-2v-5c0-.553-.448-1-1-1h-.865l2.865-3.438Z"/>
  <path d="M8,27.999h2v5c0,.553.448,1,1,1h4c.552,0,1-.447,1-1v-5h2c.388,0,.741-.225.906-.576.165-.351.111-.766-.138-1.064l-5-6c-.38-.455-1.156-.455-1.536,0l-5,6c-.249.299-.302.714-.138,1.064.165.352.518.576.906.576ZM13,22.561l2.865,3.438h-.865c-.552,0-1,.447-1,1v5h-2v-5c0-.553-.448-1-1-1h-.865l2.865-3.438Z"/>
  <circle cx="37" cy="44.999" r="1"/>
</svg>