<?xml version="1.0" encoding="UTF-8"?>
<svg id="Outline" xmlns="http://www.w3.org/2000/svg" version="1.1" viewBox="0 0 64 64">
  <!-- Generator: Adobe Illustrator 29.5.1, SVG Export Plug-In . SVG Version: 2.1.0 Build 141)  -->
  <path d="M14,43c-1.654,0-3,1.346-3,3s1.346,3,3,3,3-1.346,3-3-1.346-3-3-3ZM14,47c-.552,0-1-.449-1-1s.448-1,1-1,1,.449,1,1-.448,1-1,1Z"/>
  <circle cx="19" cy="44" r="1"/>
  <circle cx="19" cy="48" r="1"/>
  <circle cx="16" cy="51" r="1"/>
  <path d="M47,35.05v-.44c0-1.93.96-3.71,2.55-4.78.46-.3.59-.93.28-1.38-.3-.46-.92-.59-1.38-.28-.64.42-1.18.93-1.65,1.5-.59-2.11-2.51-3.67-4.8-3.67h-2c-.55,0-1,.45-1,1v2c0,2.76,2.24,5,5,5h1.04c-.02.2-.04.4-.04.61v.44c-3.45.31-6.45,2.23-8.24,5-.26-2.48-.76-4.94-1.49-7.34,1.02-.48,1.73-1.51,1.73-2.71,0-1.38-.94-2.54-2.22-2.88.14-.35.22-.73.22-1.12,0-.77-.3-1.47-.78-2,.5-.55.78-1.25.78-2,0-1.65-1.35-3-3-3h-9.46l-1.86-11.16c-.08-.49-.5-.84-.99-.84h-8.69c-.55,0-1,.45-1,1v4c0,.55.45,1,1,1h4.46l1,6h-4.46c-.81,0-1.57.32-2.11.87-.57.56-.89,1.32-.89,2.13,0,.77.3,1.47.78,2-.5.55-.78,1.25-.78,2,0,.39.08.77.22,1.12-1.27.34-2.22,1.5-2.22,2.88,0,1.2.71,2.23,1.73,2.71-1.14,3.78-1.73,7.67-1.73,11.61v9.68c0,1.65,1.35,3,3,3h16c.55,0,1-.45,1-1s-.45-1-1-1H10c-.55,0-1-.45-1-1v-9.68c0-.78.04-1.56.09-2.34.06-.01.12,0,.18-.02l.92-.26c3.79-1.08,7.76-1,11.49.25,2.21.73,4.49,1.1,6.78,1.1,1.98,0,3.96-.27,5.9-.83l.55-.16c.05.75.09,1.51.09,2.26v9.68c0,.55-.45,1-1,1h-4c-.55,0-1,.45-1,1s.45,1,1,1h4c1.65,0,3-1.35,3-3v-1.7c1.99,2.84,5.28,4.7,9,4.7,6.07,0,11-4.93,11-11,0-5.73-4.4-10.44-10-10.95ZM45,32h-1c-1.65,0-3-1.35-3-3v-1h1c1.65,0,3,1.35,3,3v1ZM16.31,11h-4.31v-2h6.84l1.67,10h-2.02l-1.19-7.16c-.08-.49-.5-.84-.99-.84ZM15,23h-3c-.55,0-1-.45-1-1,0-.27.1-.51.31-.71.18-.19.42-.29.69-.29h20c.55,0,1,.45,1,1,0,.27-.1.51-.31.71-.18.19-.42.29-.69.29h-13c-.55,0-1,.45-1,1s.45,1,1,1h13c.55,0,1,.45,1,1,0,.27-.1.51-.31.71-.18.19-.42.29-.69.29H12c-.55,0-1-.45-1-1,0-.53.474-1,1-1h3c.55,0,1-.45,1-1s-.45-1-1-1ZM33.81,40.3c-3.79,1.08-7.76,1-11.49-.25-4.12-1.37-8.5-1.47-12.68-.27l-.35.1c.27-2.33.74-4.63,1.44-6.88h22.54c.72,2.3,1.19,4.66,1.46,7.04l-.92.26ZM34,31H10c-.55,0-1-.45-1-1s.45-1,1-1h24c.55,0,1,.45,1,1s-.45,1-1,1ZM46,55c-4.96,0-9-4.04-9-9s4.04-9,9-9,9,4.04,9,9-4.04,9-9,9Z"/>
</svg>