<?xml version="1.0" encoding="UTF-8"?>
<svg id="Outline" xmlns="http://www.w3.org/2000/svg" version="1.1" viewBox="0 0 64 64">
  <!-- Generator: Adobe Illustrator 29.5.1, SVG Export Plug-In . SVG Version: 2.1.0 Build 141)  -->
  <path d="M49.00003,40c-2.31,0-4.48999,1.02997-6,2.72998-1.25-1.42999-3.01001-2.40997-5-2.65997v-.07001h1c2.76001,0,5-2.23999,5-5v-2c0-.54999-.45001-1-1-1h-2c-1.13,0-2.15997.39001-3,1.02997v-.02997c0-.54999-.45001-1-1-1s-1,.45001-1,1v7.07001c-1.14001.13995-2.21002.52997-3.15002,1.09998l2.14001-16.03998c.04004-.28003-.04999-.57001-.23999-.79004-.19-.21997-.46002-.33997-.75-.33997h-11.04999l-4.48999-15.28003c-.13-.42999-.52002-.71997-.96002-.71997h-7.5c-.54999,0-1,.45001-1,1v4c0,.54999.45001,1,1,1h3.75l2.94,10h-8.69c-.28998,0-.57001.13-.76001.34998-.19.22998-.27002.52002-.22998.81l5,30c.08002.48999.5.84003.98999.84003h17c.5,0,.91998-.37.98999-.87l.22003-1.63c1.45996,1.53998,3.50995,2.5,5.78998,2.5,2.39001,0,4.53998-1.06,6-2.73004,1.51001,1.70001,3.69,2.73004,6,2.73004,4.40997,0,8-3.59003,8-8s-3.59003-8-8-8ZM38.00003,37c0-1.65002,1.34998-3,3-3h1v1c0,1.64996-1.34998,3-3,3h-1v-1ZM15.46005,12.71997c-.13-.42999-.52002-.71997-.96002-.71997h-3.5v-2h5.75l4.10999,14h-2.07996l-3.32001-11.28003ZM14.00003,26h10v10c0,.54999-.45001,1-1,1s-1-.45001-1-1v-5c0-1.65002-1.34998-3-3-3s-3,1.34998-3,3c0,.54999-.45001,1-1,1s-1-.45001-1-1v-5ZM30.55001,43.27997c-.96997,1.33002-1.54999,2.96002-1.54999,4.72003,0,1.01996.20001,1.97998.53998,2.88l-.40997,3.12h-15.28003l-4.66998-28h2.82001v5c0,1.64996,1.34998,3,3,3s3-1.35004,3-3c0-.54999.45001-1,1-1s1,.45001,1,1v5c0,1.64996,1.34998,3,3,3s3-1.35004,3-3v-10h6.85999l-2.31,17.27997ZM37.00003,54c-3.31,0-6-2.69-6-6s2.69-6,6-6,6,2.69,6,6-2.69,6-6,6ZM49.00003,54c-1.95001,0-3.71002-.92004-4.83002-2.47003.52002-1.06.83002-2.26001.83002-3.52997s-.31-2.47003-.83002-3.53003c1.12-1.54999,2.88-2.46997,4.83002-2.46997,3.31,0,6,2.69,6,6s-2.69,6-6,6Z"/>
</svg>