<?xml version="1.0" encoding="UTF-8"?>
<svg id="Outline" xmlns="http://www.w3.org/2000/svg" version="1.1" viewBox="0 0 48 48">
  <!-- Generator: Adobe Illustrator 29.5.1, SVG Export Plug-In . SVG Version: 2.1.0 Build 141)  -->
  <path d="M34.73,13.32c-.19-.2-.45-.32-.73-.32h-1.19l1.14-6.48c.1-.54-.26-1.06-.81-1.15l-3.93-.7c-.26-.05-.54.01-.75.16-.22.15-.37.38-.41.65l-1.33,7.52h-2.17c1.58-1.86,1.45-4.59,1.44-4.72-.02-.5-.43-.91-.94-.94-.12-.01-3.15-.15-5,1.71-.47.46-.8.99-1.05,1.54-.25-.55-.58-1.08-1.05-1.54-1.85-1.86-4.88-1.72-5-1.71-.51.03-.92.44-.94.94-.01.13-.14,2.97,1.54,4.84-.1.05-.2.11-.28.2-.19.2-.29.47-.27.75l1.63,22.78.24,3.36c.11,1.57,1.43,2.79,2.99,2.79h12.28c1.56,0,2.88-1.22,2.99-2.79l.24-3.36,1.63-22.78c.02-.28-.08-.55-.27-.75ZM29.84,6.81l1.97.35-1.03,5.84h-2.03l1.09-6.19ZM28.4,15h2.03l-.71,4h-2.03l.71-4ZM21.46,10.46c.7-.69,1.72-.96,2.48-1.06-.1.76-.37,1.78-1.06,2.48-.7.69-1.72.96-2.48,1.06.1-.76.37-1.79,1.06-2.48ZM14.06,9.4c.76.1,1.79.37,2.48,1.06s.96,1.72,1.06,2.48c-.76-.11-1.78-.37-2.48-1.06-.69-.7-.96-1.72-1.06-2.48ZM15.07,15h11.3l-.71,4h-10.3l-.29-4ZM31.14,40.07c-.04.52-.48.93-1,.93h-12.28c-.52,0-.96-.41-1-.93l-.08-1.15c.22.05.44.08.66.08h13.12c.22,0,.44-.03.66-.08l-.08,1.15ZM31.39,36.53c-.18.29-.48.47-.83.47h-13.12c-.35,0-.65-.18-.83-.47l-1.11-15.53h17l-1.11,15.53ZM32.64,19h-.89l.71-4h.47l-.29,4Z"/>
  <path d="M23,29h-4c-.553,0-1,.448-1,1v4c0,.552.447,1,1,1h4c.553,0,1-.448,1-1v-4c0-.552-.447-1-1-1ZM22,33h-2v-2h2v2Z"/>
  <path d="M27.707,22.636c-.391-.391-1.023-.391-1.414,0l-2.828,2.828c-.391.391-.391,1.023,0,1.414l2.828,2.829c.188.188.441.293.707.293s.52-.105.707-.293l2.828-2.829c.391-.391.391-1.023,0-1.414l-2.828-2.828ZM27,27.585l-1.414-1.414,1.414-1.414,1.414,1.414-1.414,1.414Z"/>
</svg>