<?xml version="1.0" encoding="UTF-8"?>
<svg id="Outline" xmlns="http://www.w3.org/2000/svg" version="1.1" viewBox="0 0 64 64">
  <!-- Generator: Adobe Illustrator 29.3.1, SVG Export Plug-In . SVG Version: 2.1.0 Build 151)  -->
  <path d="M52,25.97937h-4.13l.13-1.92999c.02002-.28003-.08002-.55005-.27002-.75-.19-.21002-.44995-.32001-.72998-.32001h-5.12l2.10999-7.42004,3.21002-.63995c.53998-.11005.89001-.63.77997-1.17999l-.77997-3.92004c-.04999-.26001-.20001-.47998-.42999-.63-.22003-.14996-.48004-.19995-.75-.14996l-6.20001,1.23999c-.35999.07001-.66003.34998-.76001.71002l-3.42999,11.98999h-10.63c-.28003,0-.53998.10999-.72998.32001-.19.19995-.29004.46997-.27002.75l2,30c.03998.51996.46997.92999,1,.92999h3c.54999,0,1-.45001,1-1s-.45001-1-1-1h-2.06l-1.59998-24h2.65997c.54999,0,1,.45001,1,1v5c0,1.64996,1.34998,3,3,3s3-1.35004,3-3v-3c0-.54999.45001-1,1-1s1,.45001,1,1v1c0,1.64996,1.34998,3,3,3s3-1.35004,3-3v-1c0-.54999.45001-1,1-1h.53003l-1.20001,17.98999v.01001l-.27002,4h-6.06c-.54999,0-1,.45001-1,1s.45001,1,1,1h7c.53003,0,.96002-.41003,1-.92999l.27002-4.07001h5.72998c2.76001,0,5-2.23999,5-5v-14c0-2.76001-2.23999-5-5-5ZM40.81,12.11939l4.62-.92004.39001,1.95001-2.82001.57001c-.35999.07001-.65997.33997-.76001.71002l-2.44,8.54999h-2.08002l3.09003-10.85999ZM45.65997,28.97937h-.65997c-1.65002,0-3,1.34998-3,3v1c0,.54999-.45001,1-1,1s-1-.45001-1-1v-1c0-1.65002-1.34998-3-3-3s-3,1.34998-3,3v3c0,.54999-.45001,1-1,1s-1-.45001-1-1v-5c0-1.65002-1.34998-3-3-3h-2.79999l-.13-2h19.85999l-.27002,4ZM47.46997,31.97937h3.53003v12h-4.33002l.79999-12ZM55,44.97937c0,1.64996-1.34998,3-3,3h-5.59998l.13995-2h5.46002c.54999,0,1-.45001,1-1v-14c0-.54999-.45001-1-1-1h-4.40002l.14001-2h4.26001c1.65002,0,3,1.34998,3,3v14Z"/>
  <path d="M18,42.97937c-.8739,0-1.72424.19629-2.49823.55353-.47131-.21735-.97455-.37421-1.50177-.4632v-.26221c0-.61865-.08405-1.2312-.22894-1.82812h1.22894c2.75684,0,5-2.24316,5-5v-2c0-.55273-.44727-1-1-1h-2c-2.63885,0-4.78436,2.06177-4.96515,4.65552-.1076-.12231-.21228-.24701-.32782-.36255-.39062-.39062-1.02344-.39062-1.41406,0s-.39062,1.02344,0,1.41406c1.08496,1.08496,1.70703,2.58691,1.70703,4.12109v.26221c-2.83313.47833-5,2.94244-5,5.90967,0,3.30859,2.69141,6,6,6,.89355,0,1.73907-.20178,2.50177-.55353.77399.35724,1.62433.55353,2.49823.55353,3.30859,0,6-2.69141,6-6s-2.69141-6-6-6ZM14,37.97937c0-1.6543,1.3457-3,3-3h1v1c0,1.6543-1.3457,3-3,3h-1v-1ZM9,48.97937c0-2.20605,1.79395-4,4-4s4,1.79395,4,4-1.79395,4-4,4-4-1.79395-4-4ZM18,52.97937c-.17188,0-.34229-.01184-.5105-.03296.93665-1.05878,1.5105-2.4455,1.5105-3.96704s-.57385-2.90826-1.5105-3.96704c.16821-.02112.33862-.03296.5105-.03296,2.20605,0,4,1.79395,4,4s-1.79395,4-4,4Z"/>
  <circle cx="34" cy="53.97937" r="1"/>
</svg>