<?xml version="1.0" encoding="UTF-8"?>
<svg id="Outline" xmlns="http://www.w3.org/2000/svg" version="1.1" viewBox="0 0 64 64">
  <!-- Generator: Adobe Illustrator 29.5.1, SVG Export Plug-In . SVG Version: 2.1.0 Build 141)  -->
  <path d="M53.683,37.278c-.87-2.03-2.21-3.36-4.01-3.95-2.14-.72-4.45-.25-6.14,1.21-1.42-1.23-3.28-1.75-5.11-1.46l.43-2.22c1.24-.37,2.15-1.5,2.15-2.86,0-1.65-1.35-3-3-3h-.05c-.45-5.82-4.73-10.58-10.33-11.73l.03-.27h10.35c.55,0,1-.45,1-1v-4c0-.55-.45-1-1-1h-14.77c-.5,0-.93.38-.99.88l-.7,5.6c-5.18,1.44-9.07,6-9.49,11.52h-.05c-1.65,0-3,1.35-3,3,0,1.36.91,2.49,2.15,2.86l4.87,25.33c.09.47.5.81.98.81h16c.48,0,.89-.34.98-.81l.71-3.66c.73,1.15,1.62,2.21,2.65,3.16.96.88,2.17,1.31,3.37,1.31.99,0,1.97-.29,2.82-.87,1.88,1.29,4.45,1.16,6.19-.44,5.09-4.67,6.68-12.06,3.96-18.41ZM35.963,24.998h-9.81l1.22-9.73c4.61,1.02,8.15,4.93,8.59,9.73ZM24.113,8.998h12.89v2h-10.23c-.5,0-.93.38-.99.88l-.15,1.15c-.21-.01-.42-.03-.63-.03-.47,0-.94.03-1.4.08l.51-4.08ZM23.353,15.138c.54-.09,1.09-.14,1.65-.14.13,0,.26.01.39.02l-1.25,9.98h-2.03l1.24-9.86ZM21.263,15.658l-1.16,9.34h-6.06c.4-4.32,3.29-7.91,7.22-9.34ZM11.003,27.998c0-.55.45-1,1-1h26c.55,0,1,.45,1,1s-.45,1-1,1H12.003c-.55,0-1-.45-1-1ZM23.383,30.998l-1.27,10.13-1.97-.25,1.23-9.88h2.01ZM33.383,37.278c-1.73,4.02-1.71,8.47-.18,12.37l-1.03,5.35h-14.34l-4.62-24h6.15l-1.33,10.63c-.07.54.32,1.04.86,1.11l3.96.5c.05.01.09.01.13.01.22,0,.44-.07.61-.21.21-.16.35-.4.38-.67l1.42-11.37h11.4l-.56,2.86c-1.21.73-2.2,1.91-2.85,3.42ZM48.373,54.208c-1.18,1.09-3,1.05-4.13-.09-.39-.39-1.03-.39-1.42,0-1.13,1.14-2.94,1.18-4.13.09-4.46-4.09-5.86-10.58-3.47-16.14.35-.83,1.19-2.31,2.8-2.85.45-.15.92-.22,1.38-.22,1.13,0,2.23.44,3.06,1.27l.36.37c.38.37,1.04.37,1.42,0l.37-.37c1.17-1.17,2.87-1.57,4.43-1.05,1.25.42,2.16,1.35,2.81,2.85,2.38,5.56.98,12.05-3.48,16.14Z"/>
  <path d="M42.372,43.291c-.39-.391-1.023-.391-1.414,0-.723.723-1.122,1.685-1.122,2.707s.398,1.984,1.122,2.707c.195.195.451.293.707.293s.512-.098.707-.293c.391-.391.391-1.023,0-1.414-.346-.346-.536-.805-.536-1.293s.19-.947.536-1.293c.391-.391.391-1.023,0-1.414Z"/>
  <path d="M44.958,43.291c-.391.391-.391,1.023,0,1.414.713.713.713,1.873,0,2.586-.391.391-.391,1.023,0,1.414.195.195.451.293.707.293s.512-.098.707-.293c1.493-1.492,1.493-3.922,0-5.414-.391-.391-1.023-.391-1.414,0Z"/>
</svg>