<?xml version="1.0" encoding="UTF-8"?>
<svg id="Outline" xmlns="http://www.w3.org/2000/svg" version="1.1" viewBox="0 0 64 64">
  <!-- Generator: Adobe Illustrator 29.5.1, SVG Export Plug-In . SVG Version: 2.1.0 Build 141)  -->
  <path d="M37,19h-1.05c-.51-6.7-6.12-12-12.95-12s-12.44,5.3-12.95,12h-1.05c-.55,0-1,.45-1,1v4c0,.55.45,1,1,1h1.06l1.94,31.06c.03.53.47.94,1,.94h20c.53,0,.97-.41,1-.94l.81-13c.03-.55-.39-1.02-.94-1.06-.54-.01-1.02.39-1.06.94l-.28,4.51c-2.46,2.25-5.9,3.55-9.53,3.55s-7.07-1.3-9.53-3.55l-.88-14.01c2.45-2.78,6.3-4.44,10.41-4.44s7.96,1.66,10.41,4.44l-.35,5.5c-.03.55.39,1.02.94,1.06h.06c.52,0,.96-.41,1-.94l.88-14.06h1.06c.55,0,1-.45,1-1v-4c0-.55-.45-1-1-1ZM23,53c3.43,0,6.72-1.04,9.36-2.87l-.3,4.87H13.94l-.3-4.87c2.64,1.83,5.93,2.87,9.36,2.87ZM23,9c5.73,0,10.44,4.4,10.95,10H12.05c.51-5.6,5.22-10,10.95-10ZM36,23h-18c-.55,0-1,.45-1,1s.45,1,1,1h15.94l-.37,5.8c-2.78-2.4-6.57-3.8-10.57-3.8s-7.79,1.4-10.57,3.81l-.37-5.81h1.94c.55,0,1-.45,1-1s-.45-1-1-1h-4v-2h26v2Z"/>
  <path d="M53.464,40.474c-.315-.352-.476-.803-.453-1.271.011-.218.017-.438.017-.66,0-5.262-3.115-9.543-6.943-9.543s-6.943,4.281-6.943,9.543c0,.223.005.443.017.662.023.468-.133.913-.441,1.256-1.716,1.903-2.619,4.362-2.543,6.924.154,5.179,4.327,9.398,9.5,9.606.139.006.277.009.416.009,2.574,0,4.997-.973,6.861-2.763,1.965-1.888,3.048-4.427,3.048-7.151,0-2.442-.9-4.791-2.536-6.612ZM51.567,52.795c-1.568,1.506-3.629,2.271-5.811,2.198-4.06-.163-7.46-3.603-7.582-7.667-.061-2.045.661-4.008,2.03-5.527.665-.738,1.003-1.695.952-2.695-.009-.186-.014-.371-.014-.561,0-4.089,2.264-7.543,4.943-7.543s4.943,3.454,4.943,7.543c0,.188-.005.374-.014.559-.051,1,.291,1.961.961,2.708,1.305,1.454,2.024,3.327,2.024,5.276,0,2.175-.864,4.202-2.433,5.709Z"/>
  <path d="M46,42c-2.757,0-5,2.243-5,5s2.243,5,5,5,5-2.243,5-5-2.243-5-5-5ZM46,50c-1.654,0-3-1.346-3-3s1.346-3,3-3,3,1.346,3,3-1.346,3-3,3Z"/>
</svg>