<?xml version="1.0" encoding="UTF-8"?>
<svg id="Outline" xmlns="http://www.w3.org/2000/svg" version="1.1" viewBox="0 0 64 64">
  <!-- Generator: Adobe Illustrator 29.5.1, SVG Export Plug-In . SVG Version: 2.1.0 Build 141)  -->
  <path d="M31,22v-6c0-2.21-2.38-4.05-6-4.72v-1.28c0-1.65-1.35-3-3-3s-3,1.35-3,3v1.28c-3.62.67-6,2.51-6,4.72v6c0,2.26,2.44,4.07,6,4.73v5.03l-.46-.47c-1.14-1.13-3.11-1.13-4.25,0-1.17,1.17-1.17,3.08,0,4.25l4.71,4.7v13.76c0,1.65,1.35,3,3,3s3-1.35,3-3v-7.76l4.71-4.7c1.17-1.17,1.17-3.08,0-4.25-1.14-1.13-3.11-1.13-4.25,0l-.46.47v-11.03c3.56-.66,6-2.47,6-4.73ZM19,13.32v2.68c0,.55.45,1,1,1s1-.45,1-1v-6c0-.55.45-1,1-1s1,.45,1,1v6c0,.55.45,1,1,1s1-.45,1-1v-2.68c2.53.55,4,1.72,4,2.68,0,1.42-2.99,3-7,3s-7-1.58-7-3c0-.96,1.47-2.13,4-2.68ZM26.88,38.71c.38-.38,1.04-.38,1.41,0,.39.39.39,1.02,0,1.41l-5,5c-.18.19-.29.44-.29.71v8.17c0,.55-.45,1-1,1s-1-.45-1-1v-14.17c0-.27-.11-.52-.29-.71l-5-5c-.39-.39-.39-1.02,0-1.41.37-.38,1.03-.38,1.41,0l2.17,2.17c.29.29.72.37,1.09.22.38-.16.62-.52.62-.93v-7.2c.33.02.66.03,1,.03s.67-.01,1-.03v13.2c0,.41.24.77.62.93.37.15.8.07,1.09-.22l2.17-2.17ZM22,25c-4.01,0-7-1.58-7-3v-2.79c1.62,1.11,4.11,1.79,7,1.79s5.38-.68,7-1.79v2.79c0,1.42-2.99,3-7,3Z"/>
  <path d="M51,22v-6c0-2.21-2.38-4.05-6-4.72v-1.28c0-1.65-1.35-3-3-3s-3,1.35-3,3v1.28c-3.62.67-6,2.51-6,4.72v6c0,2.26,2.44,4.07,6,4.73v11.03l-.46-.47c-1.14-1.13-3.11-1.13-4.25,0-1.17,1.17-1.17,3.08,0,4.25l4.71,4.7v7.76c0,1.65,1.35,3,3,3s3-1.35,3-3v-13.76l4.71-4.7c1.17-1.17,1.17-3.08,0-4.25-1.14-1.13-3.11-1.13-4.25,0l-.46.47v-5.03c3.56-.66,6-2.47,6-4.73ZM39,13.32v2.68c0,.55.45,1,1,1s1-.45,1-1v-6c0-.55.45-1,1-1s1,.45,1,1v6c0,.55.45,1,1,1s1-.45,1-1v-2.68c2.53.55,4,1.72,4,2.68,0,1.42-2.99,3-7,3s-7-1.58-7-3c0-.96,1.47-2.13,4-2.68ZM46.88,32.71c.38-.38,1.04-.38,1.41,0,.39.39.39,1.02,0,1.41l-5,5c-.18.19-.29.44-.29.71v14.17c0,.55-.45,1-1,1s-1-.45-1-1v-8.17c0-.27-.11-.52-.29-.71l-5-5c-.39-.39-.39-1.02,0-1.41.37-.38,1.03-.38,1.41,0l2.17,2.17c.29.29.72.37,1.09.22.38-.16.62-.52.62-.93v-13.2c.33.02.66.03,1,.03s.67-.01,1-.03v7.2c0,.41.24.77.62.93.37.15.8.07,1.09-.22l2.17-2.17ZM42,25c-4.01,0-7-1.58-7-3v-2.79c1.62,1.11,4.11,1.79,7,1.79s5.38-.68,7-1.79v2.79c0,1.42-2.99,3-7,3Z"/>
</svg>