<?xml version="1.0" encoding="UTF-8"?>
<svg id="Outline" xmlns="http://www.w3.org/2000/svg" version="1.1" viewBox="0 0 64 64">
  <!-- Generator: Adobe Illustrator 29.5.1, SVG Export Plug-In . SVG Version: 2.1.0 Build 141)  -->
  <path d="M53.8,34.73l-3.19-1.65-21.15-10.97c-.47-.24-1.06-.07-1.33.39l-1.61,2.82c-1.29,2.27-3.72,3.68-6.34,3.68-3.25,0-6.06-2.09-7-5.21l-.85-2.85c-.35-1.16-1.4-1.94-2.61-1.94-1.5,0-2.72,1.22-2.72,2.72v20.28c0,1.65,1.35,3,3,3h36.34c3.92,0,7.6-1.52,10.37-4.29.18-.19.29-.44.29-.71,0-2.22-1.23-4.24-3.2-5.27ZM28.26,26.31l1.13-1.98,2.24,1.16-.52,1.06c-.25.5-.05,1.1.44,1.34.488.26,1.097.046,1.34-.44l.52-1.04,1.22.63-.52,1.04c-.25.5-.05,1.1.44,1.34.486.259,1.098.047,1.34-.44l.51-1.02,1.19.62-.48.97c-.318.642.17,1.45.89,1.45.37,0,.72-.2.89-.55l.48-.95,6.74,3.5h-3.36c-2.99,0-5.98.66-8.71,1.89-2.04-2.48-4.68-4.42-7.74-5.65l-.45-.17c.97-.74,1.79-1.67,2.41-2.76ZM46.34,43H10c-.55,0-1-.45-1-1v-3.98c1.93.05,3.84.51,5.55,1.37,2.09,1.05,4.44,1.61,6.8,1.61h.65c.55,0,1-.45,1-1s-.45-1-1-1h-.65c-2.05,0-4.09-.48-5.9-1.39-1.99-1-4.21-1.54-6.45-1.59v-14.3c0-.4.32-.72.72-.72.32,0,.6.21.69.51l.86,2.86c1.19,3.96,4.77,6.63,8.91,6.63,1.2,0,2.36-.24,3.44-.67l1.94.77c3.83,1.53,6.92,4.31,8.84,7.9h-4.4c-.55,0-1,.45-1,1s.45,1,1,1h23.17c-2.02,1.3-4.37,2-6.83,2ZM36.62,39c-.4-.86-.85-1.68-1.37-2.46,2.37-1.01,4.94-1.54,7.5-1.54h7.22l2.91,1.51c1,.52,1.71,1.43,1.99,2.49h-18.25Z"/>
  <circle cx="26" cy="40" r="1"/>
</svg>