<?xml version="1.0" encoding="UTF-8"?>
<svg id="Outline" xmlns="http://www.w3.org/2000/svg" version="1.1" viewBox="0 0 64 64">
  <!-- Generator: Adobe Illustrator 29.3.1, SVG Export Plug-In . SVG Version: 2.1.0 Build 151)  -->
  <circle cx="28" cy="20" r="1"/>
  <circle cx="36" cy="20" r="1"/>
  <path d="M56.32001,29.04999l-.98999-.33002,1.26001-.90997c.44995-.33002.53998-.95001.21997-1.40002s-.95001-.53998-1.40002-.21997l-1.40997,1.02997v-1.21997c0-.54999-.45001-1-1-1s-1,.45001-1,1v2.66998l-6.70001,4.87c-1.29999-2.19-3.14996-4.04999-5.42999-5.39001,1.33002-1.69995,2.13-3.82996,2.13-6.14996,0-1.92004-.56-3.78003-1.58002-5.37.94-.51001,1.58002-1.48999,1.58002-2.63,0-1.65002-1.34998-3-3-3h-.38l-1.72998-3.45001c-.17004-.34003-.51001-.54999-.89001-.54999h-8c-.38,0-.71997.20996-.89001.54999l-1.72998,3.45001h-.38c-1.65002,0-3,1.34998-3,3,0,1.14001.64001,2.12,1.58002,2.63-1.02002,1.58997-1.58002,3.44995-1.58002,5.37,0,2.32001.79999,4.45001,2.13,6.14996-2.25,1.33002-4.09003,3.21002-5.40002,5.41003l-6.72998-4.89001v-2.66998c0-.54999-.45001-1-1-1s-1,.45001-1,1v1.21997l-1.40997-1.02997c-.45001-.32001-1.07001-.23004-1.40002.21997-.32001.45001-.22998,1.07001.21997,1.40002l1.26001.90997-.98999.33002c-.51996.17997-.79992.73986-.63007,1.26983.17057.53222.7588.76951,1.27008.6302l2.33997-.78003,7.14001,5.20001c-.82001,1.89996-1.26996,3.96997-1.26996,6.09998,0,3.53003,1.14996,6.84003,3.26996,9.53003h-2.79999c-1.65002,0-3,1.34998-3,3s1.34998,3,3,3h8c.54999,0,1-.45001,1-1s-.45001-1-1-1h-8c-.54999,0-1-.45001-1-1s.45001-1,1-1h5.07001c.40997,0,.77997-.25.92999-.63s.04999-.82001-.25-1.10004c-2.71997-2.54999-4.21997-6.02997-4.21997-9.79999,0-2.84998.91998-5.57996,2.52997-7.82996,2.95001,2.76996,6.87,4.35999,10.94,4.35999.08002,0,.15997-.01001.23999-.01001l.22003.28998c.98999,1.32001,1.53998,2.96002,1.53998,4.62v2.10004c0,.75.88,1.27997,1.54999.82996l2.52002-1.67999,3.47998,1.74005c.31.15997.67999.13995.98004-.04004.28998-.17999.46997-.5.46997-.84998v-2.82001c0-2.47998-.94-4.82001-2.59998-6.60004.90997-.56,1.76996-1.21997,2.56-1.96997,1.60999,2.23999,2.50995,4.96002,2.50995,7.85999,0,3.77002-1.5,7.25-4.21997,9.79999-.29999.28003-.40002.72003-.25,1.10004s.52002.63.92999.63h5.07001c.54999,0,1,.45001,1,1s-.45001,1-1,1h-14c-.54999,0-1,.45001-1,1s.45001,1,1,1h14c1.65002,0,3-1.35004,3-3s-1.34998-3-3-3h-2.79999c2.12-2.69,3.26996-6,3.26996-9.53003,0-2.15997-.43994-4.22998-1.25-6.12l7.12006-5.17999s2.33997.78003,2.34014.78008c.53151.14477,1.0887-.0867,1.26985-.63005.16998-.53003-.10999-1.09003-.63-1.27002ZM28.62,9h6.76001l1,2h-8.76001l1-2ZM25,13h14c.54999,0,1,.45001,1,1s-.45001,1-1,1h-14c-.54999,0-1-.45001-1-1s.45001-1,1-1ZM24,22c0-1.83002.63-3.59003,1.77002-5h12.45996c1.14001,1.40997,1.77002,3.16998,1.77002,5,0,2.23999-.92999,4.26001-2.40997,5.71997q-.01001,0-.02002.01001c-1.44,1.40002-3.40002,2.27002-5.57001,2.27002-2.17999,0-4.15997-.88-5.59998-2.29999-.01001-.01001-.03003-.02002-.04004-.03003-1.45996-1.45001-2.35999-3.46002-2.35999-5.66998ZM41,42.17999v1.20001l-2.54999-1.27002c-.33002-.15997-.71002-.14001-1,.06l-1.45001.96002v-.23004c0-1.81-.52002-3.59998-1.46997-5.13,1.39996-.21997,2.75-.62,4.02997-1.19995,1.54999,1.44995,2.44,3.45996,2.44,5.60999ZM32,36c-3.59998,0-7.07001-1.42004-9.65997-3.91003.92999-.96997,2.01996-1.78998,3.21997-2.44995,1.73999,1.46997,3.98999,2.35999,6.44,2.35999s4.70001-.89001,6.44-2.35999c1.21002.65997,2.29999,1.47998,3.22998,2.42999-2.58997,2.5-6.06,3.92999-9.66998,3.92999Z"/>
  <path d="M27.55273,25.89453l3.31641,1.6582c1.84178.92089,4.13086-.46121,4.13086-2.55273,0-.99658-.50586-1.9043-1.35352-2.42773-.8457-.52344-1.88477-.57178-2.77734-.125l-3.31641,1.6582c-.33887.16943-.55273.51562-.55273.89453s.21387.7251.55273.89453ZM31.76369,24.23632c.56165-.2796,1.23631.13956,1.23631.76392-.00016.62799-.67747,1.04284-1.23633.76343l-1.52734-.76367s1.47495-.73747,1.52736-.76368Z"/>
  <circle cx="29" cy="56" r="1"/>
</svg>