<?xml version="1.0" encoding="UTF-8"?>
<svg id="Outline" xmlns="http://www.w3.org/2000/svg" version="1.1" viewBox="0 0 64 64">
  <!-- Generator: Adobe Illustrator 29.5.1, SVG Export Plug-In . SVG Version: 2.1.0 Build 141)  -->
  <path d="M43.21,40.738c-.61-1.6-1-3.23-1.16-4.84-.05-.55-.53-.95-1.09-.9-.55.06-.95.55-.9,1.1.18,1.79.61,3.59,1.29,5.36.43,1.12.65,2.31.65,3.54,0,1.39-.29,2.75-.84,4h-1.66c-1.4,0-2.78-.46-3.9-1.3-1.46-1.1-3.27-1.7-5.1-1.7h-2.39c-1.74,0-3.37-.68-4.6-1.9l-1.25-1.25c.13-.61.3-1.2.54-1.77.96-2.24,1.36-4.83,1.23-7.9-.02-.38-.03-.79-.03-1.18s.01-.8.03-1.19c.12-2.76-.34-5.55-1.38-8.27-.17-.45-.3-.91-.4-1.37l1.26-1.27c1.23-1.22,2.86-1.9,4.6-1.9h2.39c1.83,0,3.64-.6,5.1-1.7,1.12-.84,2.5-1.3,3.9-1.3h1.66c.38.86.65,1.78.77,2.74.21,1.77-.05,3.56-.73,5.18-.64,1.49-1.03,3.12-1.18,5-.04.55.37,1.03.92,1.08.54.04,1.03-.37,1.08-.92.13-1.65.47-3.09,1.02-4.38.82-1.94,1.12-4.08.87-6.2-.66-5.44-5.1-9.82-10.55-10.42-3.47-.38-6.8.67-9.37,2.98-2.53,2.27-3.99,5.53-3.99,8.94,0,1.48.26,2.92.79,4.26.93,2.46,1.35,4.97,1.24,7.46-.02.42-.03.85-.03,1.28s.01.86.03,1.27c.12,2.77-.23,5.06-1.07,7.03-.82,1.94-1.12,4.08-.87,6.2.66,5.44,5.1,9.82,10.55,10.42.46.05.92.08,1.38.08,2.96,0,5.76-1.06,7.99-3.06,2.53-2.27,3.99-5.53,3.99-8.94,0-1.48-.26-2.92-.79-4.26ZM22.02,18.558c.12-2.68,1.3-5.21,3.31-7.01,2.14-1.92,4.91-2.81,7.81-2.49,2.78.31,5.23,1.8,6.85,3.94h-.49c-1.83,0-3.64.6-5.1,1.7-1.12.84-2.5,1.3-3.9,1.3h-2.39c-2.27,0-4.41.88-6.01,2.49l-.08.07ZM38.67,52.448c-2.14,1.92-4.92,2.81-7.81,2.49-4.54-.5-8.23-4.15-8.79-8.68-.03-.27-.03-.54-.04-.82l.07.07c1.6,1.61,3.74,2.49,6.01,2.49h2.39c1.4,0,2.78.46,3.9,1.3,1.46,1.1,3.27,1.7,5.1,1.7h.49c-.39.52-.83,1.01-1.32,1.45Z"/>
  <path d="M32,22.998c-3.364,0-6,1.757-6,4s2.636,4,6,4,6-1.757,6-4-2.636-4-6-4ZM32,28.998c-2.289,0-4-1.056-4-2s1.711-2,4-2,4,1.056,4,2-1.711,2-4,2Z"/>
  <path d="M32,32.998c-3.364,0-6,1.757-6,4s2.636,4,6,4,6-1.757,6-4-2.636-4-6-4ZM32,38.998c-2.289,0-4-1.056-4-2s1.711-2,4-2,4,1.056,4,2-1.711,2-4,2Z"/>
  <circle cx="41" cy="31.998" r="1"/>
</svg>