<?xml version="1.0" encoding="UTF-8"?>
<svg id="Outline" xmlns="http://www.w3.org/2000/svg" version="1.1" viewBox="0 0 64 64">
  <!-- Generator: Adobe Illustrator 29.3.1, SVG Export Plug-In . SVG Version: 2.1.0 Build 151)  -->
  <path d="M30,37c0,.55225.44775,1,1,1,.55127,0,1,.44873,1,1s-.44873,1-1,1c-.55225,0-1,.44775-1,1s.44775,1,1,1c1.6543,0,3-1.3457,3-3s-1.3457-3-3-3c-.55225,0-1,.44775-1,1Z"/>
  <circle cx="14" cy="17" r="1"/>
  <circle cx="18" cy="17" r="1"/>
  <circle cx="22" cy="17" r="1"/>
  <path d="M57,17c0-5.51416-4.48584-10-10-10-3.69183,0-6.91479,2.01605-8.64703,5H12c-1.6543,0-3,1.3457-3,3v19.53137c-.08405.07458-.17035.14575-.25098.22546-1.12793,1.14062-1.74902,2.64746-1.74902,4.24316,0,1.77106.77576,3.36035,2,4.45953v7.54047c0,1.6543,1.3457,3,3,3h1.68726c.10468.40747.25391.8028.47534,1.15674.21973.33594.48242.63818.78369.8999.7041.6084,1.61133.94336,2.55371.94336,1.16504,0,2.26562-.51074,3.01953-1.40088.39752-.46948.66687-1.01819.81287-1.59912h30.6676c1.6543,0,3-1.3457,3-3v-9c0-.55225-.44775-1-1-1s-1,.44775-1,1v9c0,.55127-.44873,1-1,1h-30.65924l-1.12152-6.58722c1.68207.32794,3.32703.84668,4.91797,1.56769l4.19727,1.90283c.00232.00134.005.00171.00739.00305.79803.70789,1.69653,1.11365,2.65814,1.11365,3.36426,0,6-4.83154,6-11s-2.63574-11-6-11c-.96161,0-1.86005.4057-2.65808,1.11353l-4.2052,1.90601c-2.89893,1.31396-5.97314,1.98047-9.13672,1.98047h-3c-.69147,0-1.36383.12329-2,.3479v-11.3479h27.35297c1.73224,2.98395,4.9552,5,8.64703,5,2.2525,0,4.32635-.75757,6-2.01898v9.01898c0,.55225.44775,1,1,1s1-.44775,1-1v-11.02533c1.24994-1.66931,2-3.73346,2-5.97467ZM11,51v-6.35004c.36584.12988.74725.22449,1.1416.28137l1.17914,7.06866h-1.32074c-.55127,0-1-.44873-1-1ZM19.43359,52.71436c.09473.56934-.06543,1.1499-.43994,1.5918-.67432.79492-1.97754.896-2.73779.23877-.15967-.13867-.30029-.30078-.4082-.46582-.13086-.20898-.22559-.46045-.27148-.71387l-1.39557-8.36523h1.8194c.71796,0,1.4306.039,2.13837.10742l1.29523,7.60693ZM36,39c0,5.30371-2.10791,9-4,9s-4-3.69629-4-9,2.10791-9,4-9,4,3.69629,4,9ZM25.9624,32.84082l1.26917-.57526c-.77228,1.8501-1.23157,4.17328-1.23157,6.73444s.45935,4.88416,1.23151,6.73419l-1.26862-.57501c-2.85449-1.29395-5.86475-2.01172-8.96289-2.13867v-8.04102c3.09814-.12695,6.1084-.84473,8.9624-2.13867ZM15,35v8h-2c-2.20557,0-4-1.79443-4-4,0-1.06543.41602-2.07324,1.16309-2.8291.76367-.75488,1.77148-1.1709,2.83691-1.1709h2ZM26.61816,20l3-6h2.76367l-3,6h-2.76367ZM11,15c0-.55127.44873-1,1-1h15.38184l-3,6h-13.38184v-5ZM31.61816,20l3-6h2.84296c-.29865.94757-.46112,1.95502-.46112,3s.16248,2.05243.46112,3h-5.84296ZM47,25c-4.41113,0-8-3.58887-8-8s3.58887-8,8-8,8,3.58887,8,8-3.58887,8-8,8Z"/>
  <path d="M51.49609,16.13184l-7-4c-.30859-.17676-.68848-.17529-.99805.00342-.30811.17871-.49805.5083-.49805.86475v8c0,.35645.18994.68604.49805.86475.15527.09033.32861.13525.50195.13525.17139,0,.34229-.04395.49609-.13184l7-4c.31152-.17773.50391-.50928.50391-.86816s-.19238-.69043-.50391-.86816ZM45,19.27686v-4.55371l3.98438,2.27686-3.98438,2.27686Z"/>
  <path d="M47,39c0-.55225-.44775-1-1-1h-5c-.55225,0-1,.44775-1,1s.44775,1,1,1h5c.55225,0,1-.44775,1-1Z"/>
  <path d="M41.24268,35.75732c.25586,0,.51172-.09766.70703-.29297l3.53564-3.53564c.39062-.39062.39062-1.02344,0-1.41406s-1.02344-.39062-1.41406,0l-3.53564,3.53564c-.39062.39062-.39062,1.02344,0,1.41406.19531.19531.45117.29297.70703.29297Z"/>
  <path d="M40.53564,42.53564c-.39062.39062-.39062,1.02344,0,1.41406l3.53564,3.53564c.19531.19531.45117.29297.70703.29297s.51172-.09766.70703-.29297c.39062-.39062.39062-1.02344,0-1.41406l-3.53564-3.53564c-.39062-.39062-1.02344-.39062-1.41406,0Z"/>
  <circle cx="54" cy="38" r="1"/>
</svg>