<?xml version="1.0" encoding="UTF-8"?>
<svg id="Outline" xmlns="http://www.w3.org/2000/svg" version="1.1" viewBox="0 0 64 64">
  <!-- Generator: Adobe Illustrator 29.5.1, SVG Export Plug-In . SVG Version: 2.1.0 Build 141)  -->
  <path d="M47,17c1.6543,0,3-1.3457,3-3s-1.3457-3-3-3-3,1.3457-3,3c0,.40118.08215.7829.22565,1.133l-1.80804,1.23944c-.42413-.22986-.90222-.37244-1.4176-.37244-1.6543,0-3,1.3457-3,3s1.3457,3,3,3c.51538,0,.99341-.14258,1.41754-.37244l1.80811,1.23944c-.14349.3501-.22565.73181-.22565,1.133,0,1.6543,1.3457,3,3,3s3-1.3457,3-3-1.3457-3-3-3c-.51538,0-.99341.14258-1.41754.37244l-1.80811-1.23944c.14349-.3501.22565-.73175.22565-1.133,0-.40118-.08209-.78296-.22559-1.13306l1.80804-1.23944c.42413.22986.90216.3725,1.41754.3725ZM47,13c.55127,0,1,.44873,1,1s-.44873,1-1,1-1-.44873-1-1,.44873-1,1-1ZM40,19c0-.55127.44873-1,1-1s1,.44873,1,1-.44873,1-1,1-1-.44873-1-1ZM48,24c0,.55127-.44873,1-1,1s-1-.44873-1-1,.44873-1,1-1,1,.44873,1,1Z"/>
  <path d="M45,7c-3.07001,0-5.87,1.16998-8,3.07996v-.07996c0-1.65002-1.34998-3-3-3H10c-1.65002,0-3,1.34998-3,3v44c0,1.64996,1.34998,3,3,3h24c1.65002,0,3-1.35004,3-3v-12c0-.54999-.45001-1-1-1s-1,.45001-1,1v8c0,.54999-.45001,1-1,1h-14c-.54999,0-1,.45001-1,1s.45001,1,1,1h14c.34998,0,.69-.07001,1-.17999v1.17999c0,.54999-.45001,1-1,1H10c-.54999,0-1-.45001-1-1v-1.17999c.31.10999.65002.17999,1,.17999h6c.54999,0,1-.45001,1-1s-.45001-1-1-1h-6c-.54999,0-1-.45001-1-1V14c0-.54999.45001-1,1-1h24c.19,0,.37.06.53003.15997-.97003,1.73004-1.53003,3.72003-1.53003,5.84003,0,2.28998.65002,4.5,1.87,6.42999l-1.78998,4.17999c-.15002.34998-.09003.75.15997,1.03998.19.22003.47003.35004.76001.35004.08002,0,.15997-.01001.23999-.03003l.76001-.19v7.22003c0,.54999.45001,1,1,1s1-.45001,1-1v-7.72003l2.48999-.62c1.70001.88,3.60004,1.34003,5.51001,1.34003,6.62,0,12-5.38,12-12s-5.38-12-12-12ZM34,11H10c-.34998,0-.69.07001-1,.17999v-1.17999c0-.54999.45001-1,1-1h24c.54999,0,1,.45001,1,1v1.19c-.32001-.11005-.65002-.19-1-.19ZM45,29c-1.71002,0-3.39001-.44-4.88-1.28003-.15002-.07996-.32001-.13-.48999-.13-.08002,0-.16998.01001-.25.03003l-3.66998.91998,1.20964-2.82927c.11081-.25917.11984-.75121-.09966-.97071-1.19-1.69-1.82001-3.67999-1.82001-5.73999,0-5.51001,4.48999-10,10-10s10,4.48999,10,10-4.48999,10-10,10Z"/>
  <path d="M22,25c1.6543,0,3-1.3457,3-3s-1.3457-3-3-3-3,1.3457-3,3,1.3457,3,3,3ZM22,21c.55127,0,1,.44873,1,1s-.44873,1-1,1-1-.44873-1-1,.44873-1,1-1Z"/>
  <path d="M26,29c1.6543,0,3-1.3457,3-3v-8c0-1.6543-1.3457-3-3-3h-8c-1.6543,0-3,1.3457-3,3v8c0,1.6543,1.3457,3,3,3h8ZM17,26v-8c0-.55127.44873-1,1-1h8c.55127,0,1,.44873,1,1v8c0,.55127-.44873,1-1,1h-8c-.55127,0-1-.44873-1-1Z"/>
  <path d="M28,36h-12c-.55225,0-1,.44775-1,1s.44775,1,1,1h12c.55225,0,1-.44775,1-1s-.44775-1-1-1Z"/>
  <path d="M33,34c0-1.6543-1.3457-3-3-3H14c-1.6543,0-3,1.3457-3,3v6c0,1.6543,1.3457,3,3,3h5.58594l1.70703,1.70703c.19531.19531.45117.29297.70703.29297s.51172-.09766.70703-.29297l1.70703-1.70703h5.58594c1.6543,0,3-1.3457,3-3v-6ZM31,40c0,.55127-.44873,1-1,1h-6c-.26514,0-.51953.10547-.70703.29297l-1.29297,1.29297-1.29297-1.29297c-.1875-.1875-.44189-.29297-.70703-.29297h-6c-.55127,0-1-.44873-1-1v-6c0-.55127.44873-1,1-1h16c.55127,0,1,.44873,1,1v6Z"/>
  <path d="M12,47c-.55225,0-1,.44775-1,1s.44775,1,1,1h20c.55225,0,1-.44775,1-1s-.44775-1-1-1H12Z"/>
</svg>