<?xml version="1.0" encoding="UTF-8"?>
<svg id="Outline" xmlns="http://www.w3.org/2000/svg" version="1.1" viewBox="0 0 64 64">
  <!-- Generator: Adobe Illustrator 29.3.1, SVG Export Plug-In . SVG Version: 2.1.0 Build 151)  -->
  <path d="M33,16c0-.55225-.44727-1-1-1H12c-.55273,0-1,.44775-1,1v4c0,.55225.44727,1,1,1h20c.55273,0,1-.44775,1-1v-4ZM31,19H13v-2h18v2Z"/>
  <path d="M11,28c0,.55225.44727,1,1,1h8c.55273,0,1-.44775,1-1v-4c0-.55225-.44727-1-1-1h-8c-.55273,0-1,.44775-1,1v4ZM13,25h6v2h-6v-2Z"/>
  <path d="M33,28v-4c0-.55225-.44727-1-1-1h-8c-.55273,0-1,.44775-1,1v4c0,.55225.44727,1,1,1h8c.55273,0,1-.44775,1-1ZM31,27h-6v-2h6v2Z"/>
  <path d="M21.29297,38.87842c.39062-.39062.39062-1.02344,0-1.41406s-1.02344-.39062-1.41406,0c-1.16992,1.16992-1.16992,3.07324,0,4.24268l1.41406,1.41406c.56641.56689,1.32031.87891,2.12109.87891.80176,0,1.55566-.3125,2.12207-.87939.38965-.39062.38965-1.02393-.00098-1.41406-.39062-.38965-1.02441-.39062-1.41504.00098-.37598.37598-1.0332.37842-1.41309-.00049l-1.41406-1.41406c-.38965-.39014-.38965-1.02441,0-1.41455Z"/>
  <path d="M14,41v7c0,.34668.17969.66846.47471.85065.29585.18305.66304.19864.97256.04388l2.2793-1.13965c1.28223.81641,2.74707,1.24512,4.27344,1.24512,4.41113,0,8-3.58887,8-8s-3.58887-8-8-8-8,3.58887-8,8ZM28,41c0,3.30859-2.69141,6-6,6-1.2998,0-2.54199-.4165-3.59277-1.20361-.17578-.13232-.3877-.2002-.59961-.2002-.15234,0-.30566.03467-.44727.10547l-1.36035.68018v-5.38184c0-3.30859,2.69141-6,6-6s6,2.69141,6,6Z"/>
  <path d="M53,32.09998v-4.09998c0-.31-.14001-.60004-.38-.79004-.25-.19-.57001-.25995-.85999-.17999l-11.88,2.97003h-2.88V10c0-1.65002-1.34998-3-3-3H10c-1.65002,0-3,1.34998-3,3v22c0,.54999.45001,1,1,1s1-.45001,1-1V14c0-.54999.45001-1,1-1h24c.54999,0,1,.45001,1,1v16h-3c-.54999,0-1,.45001-1,1v12c0,.54999.45001,1,1,1h1v2c0,1.29999.84003,2.39996,2,2.82001v1.17999c0,.54999-.45001,1-1,1H10c-.54999,0-1-.45001-1-1v-10c0-.54999-.45001-1-1-1s-1,.45001-1,1v14c0,1.64996,1.34998,3,3,3h24c1.65002,0,3-1.35004,3-3v-5.17999c1.15997-.42004,2-1.52002,2-2.82001v-2h.88l11.88,2.96997c.07994.02.15982.03001.23977.03003.52386.00012,1.00022-.43303,1.00022-1v-4.10004c2.28003-.46997,4-2.48999,4-4.89996s-1.71997-4.42999-4-4.90002ZM35,54c0,.54999-.45001,1-1,1H10c-.54999,0-1-.45001-1-1v-1.17999c.31.10999.65002.17999,1,.17999h24c.34998,0,.69-.07001,1-.17999v1.17999ZM34,11H10c-.34998,0-.69.07001-1,.17999v-1.17999c0-.54999.45001-1,1-1h24c.54999,0,1,.45001,1,1v1.17999c-.31-.10999-.65002-.17999-1-.17999ZM37,46c0,.54999-.45001,1-1,1s-1-.45001-1-1v-2h2v2ZM39,42h-6v-10h6v10ZM51,44.71997l-10-2.5v-10.44l10-2.5v15.44ZM53,39.82001v-5.64001c1.15997.41998,2,1.52002,2,2.82001s-.84003,2.39996-2,2.82001Z"/>
  <circle cx="8" cy="36" r="1"/>
</svg>