<?xml version="1.0" encoding="UTF-8"?>
<svg id="Outline" xmlns="http://www.w3.org/2000/svg" version="1.1" viewBox="0 0 64 64">
  <!-- Generator: Adobe Illustrator 29.5.1, SVG Export Plug-In . SVG Version: 2.1.0 Build 141)  -->
  <path d="M44,25c1.65002,0,3-1.35004,3-3s-1.34998-3-3-3h-.38l-1.72998-3.45001c-.17004-.34003-.51001-.54999-.89001-.54999h-6v-7c0-.54999-.45001-1-1-1h-4c-.54999,0-1,.45001-1,1v7h-6c-.38,0-.71997.20996-.89001.54999l-1.72998,3.45001h-.38c-1.65002,0-3,1.34998-3,3s1.34998,3,3,3h.06l.22003,3.62c-.12006.08997-.25.19-.36005.31-.57001.59998-.85999,1.39001-.82001,2.20001l.81,18.01001c.06,1.18994.80005,2.17999,1.83002,2.62l.26001,4.29999c.03003.52997.46997.94,1,.94h18c.53003,0,.96997-.41003,1-.94l.26001-4.29999c1.02997-.44,1.77002-1.44,1.83002-2.63l.81-17.98999c.03998-.82001-.25-1.61005-.82001-2.21002-.11005-.12-.23999-.22003-.36005-.31l.22003-3.62h.06ZM31,9h2v6h-2v-6ZM23.62,17h16.76001l1,2h-18.76001l1-2ZM42.09003,49.03998c-.02002.53998-.46002.96002-1,.96002h-4.09003c-.54999,0-1,.45001-1,1s.45001,1,1,1h3.25l-.19,3h-16.12l-.19-3h9.25c.54999,0,1-.45001,1-1s-.45001-1-1-1h-10.09003c-.53998,0-.97998-.42004-1-.96002l-.04999-1.03998h3.85999c2.30005,0,4.60004-.54004,6.66003-1.57001l.13-.07001c1.77997-.89001,3.77997-1.35999,5.77002-1.35999h3.98999l-.17999,4.03998ZM42.35999,43h-4.07996c-2.30005,0-4.60004.53998-6.66003,1.57001l-.13.07001c-1.77997.88995-3.77997,1.35999-5.77002,1.35999h-3.94995l-.40002-9h4.34998c2.30005,0,4.60004-.54004,6.66003-1.57001l.13-.07001c1.77997-.89001,3.77997-1.35999,5.77002-1.35999h4.48999l-.41003,9ZM42.85999,32h-4.57996c-2.30005,0-4.60004.53998-6.66003,1.57001l-.13.07001c-1.77997.88995-3.77997,1.35999-5.77002,1.35999h-4.43994l-.18005-3.96002c-.01996-.27002.08002-.52997.27002-.72998s.44-.31.72003-.31h3.90997c.54999,0,1-.45001,1-1s-.45001-1-1-1h-3.75l-.19-3h19.88l-.19,3h-11.75c-.54999,0-1,.45001-1,1s.45001,1,1,1h11.90997c.28003,0,.53003.10999.72003.31s.28998.45996.27002.72998l-.04004.96002ZM20,23c-.54999,0-1-.45001-1-1s.45001-1,1-1h24c.54999,0,1,.45001,1,1s-.45001,1-1,1h-24Z"/>
</svg>