<?xml version="1.0" encoding="UTF-8"?>
<svg id="Outline" xmlns="http://www.w3.org/2000/svg" version="1.1" viewBox="0 0 64 64">
  <!-- Generator: Adobe Illustrator 29.5.1, SVG Export Plug-In . SVG Version: 2.1.0 Build 141)  -->
  <path d="M46,19.11481h-6.15997l1.40997-5.65002,4.33002.62c.26001.04004.52997-.02997.73999-.19.21002-.15997.34998-.39996.39001-.65997l.56-3.96002c.07996-.54999-.30005-1.04999-.85004-1.13l-8.77997-1.25c-.51001-.07001-.98999.25-1.10999.75l-2.87006,11.47003h-15.65997c-1.65002,0-3,1.34998-3,3,0,1.29999.84003,2.39996,2,2.82001v3.17999c0,.54999.45001,1,1,1h1.09998l2.91003,27.10999c.04999.5.47998.89001.98999.89001h18c.51001,0,.94-.39001.98999-.89001l2.91003-27.10999h1.09998c.54999,0,1-.45001,1-1v-3.17999c1.15997-.42004,2-1.52002,2-2.82001,0-1.65002-1.34998-3-3-3ZM38.25,9.00482l6.90002.97998-.28003,1.97998-4.22998-.60999c-.5-.07001-.98999.25-1.10999.75l-1.75,7.01001h-2.06006l2.53003-10.10999ZM40.09998,55.11481h-16.19995l-.35004-3.28003c2.58002.84003,5.47003,1.28003,8.45001,1.28003s5.87-.44,8.45001-1.28003l-.35004,3.28003ZM40.69,49.61481c-2.59003.96997-5.57001,1.5-8.69,1.5s-6.09998-.53003-8.69-1.5l-.39001-3.60004c2.90002-.53998,5.96002-.25995,8.71002.84003,2.09998.83997,4.29999,1.26001,6.54999,1.26001.90002,0,1.79999-.08002,2.69-.22003l-.17999,1.72003ZM41.09998,45.82477c-2.91998.56-5.95996.28003-8.72998-.82996-3.04999-1.22003-6.44-1.55005-9.65997-.98004l-.60004-5.63995c3.17999-.78003,6.47003-.55005,9.52002.66998,2.09998.83997,4.29999,1.26001,6.54999,1.26001,1.17999,0,2.37-.13,3.54999-.37l-.63,5.88995ZM41.95001,37.83478c-3.23004.79999-6.54999.56-9.58002-.64996-3.34998-1.34003-6.96997-1.61005-10.47998-.80005l-.12-1.13995c2.88995-1.37,6.47998-2.13,10.22998-2.13s7.34003.76001,10.22998,2.13l-.27997,2.58997ZM42.46002,33.13477c-3.04004-1.31-6.69-2.01996-10.46002-2.01996s-7.41998.70996-10.46002,2.01996l-.42999-4.01996h21.78003l-.42999,4.01996ZM45,27.11481h-26v-2h26v2ZM46,23.11481h-28c-.54999,0-1-.45001-1-1s.45001-1,1-1h28c.54999,0,1,.45001,1,1s-.45001,1-1,1Z"/>
</svg>