<?xml version="1.0" encoding="UTF-8"?>
<svg id="Outline" xmlns="http://www.w3.org/2000/svg" version="1.1" viewBox="0 0 64 64">
  <!-- Generator: Adobe Illustrator 29.5.1, SVG Export Plug-In . SVG Version: 2.1.0 Build 141)  -->
  <path d="M57.03,34.71l-2.83-2.83c-.39-.39-1.02-.39-1.41,0l-.35.34c-.92.92-1.74,1.91-2.47,2.94-.35-5.66-5.05-10.16-10.8-10.16-1.6,0-3.17.44-4.54,1.26l-2.63,1.57-2.63-1.57c-1.37-.82-2.94-1.26-4.54-1.26-5.75,0-10.45,4.5-10.8,10.16-.73-1.03-1.55-2.02-2.47-2.94l-.35-.34c-.39-.39-1.02-.39-1.41,0l-2.83,2.83c-.39.39-.39,1.02,0,1.41l.34.34c3.09,3.09,4.78,7.18,4.78,11.54v2c0,.55.45,1,1,1h1.91v2.68c0,1.83,1.49,3.32,3.32,3.32,1.44,0,2.71-.91,3.16-2.27l1.24-3.73h18.56l1.24,3.73c.45,1.36,1.72,2.27,3.16,2.27,1.83,0,3.32-1.49,3.32-3.32v-2.68h1.91c.55,0,1-.45,1-1v-2c0-4.36,1.69-8.45,4.78-11.54l.34-.34c.39-.39.39-1.02,0-1.41ZM16,35.83c0-4.87,3.96-8.83,8.83-8.83,1.24,0,2.45.34,3.52.97l3.14,1.89c.31.19.71.19,1.02,0l3.14-1.89c1.07-.63,2.28-.97,3.52-.97,4.87,0,8.83,3.96,8.83,8.83v2.72c-.6,1.28-1.07,2.61-1.41,3.99-.91-.95-2.18-1.54-3.59-1.54h-22c-1.41,0-2.68.59-3.59,1.54-.34-1.38-.81-2.71-1.41-3.99v-2.72ZM45.82,45h-27.64c.42-1.16,1.52-2,2.82-2h22c1.3,0,2.4.84,2.82,2ZM19.58,54.09c-.18.55-.68.91-1.26.91-.73,0-1.32-.59-1.32-1.32v-2.68h3.61l-1.03,3.09ZM47,53.68c0,.73-.59,1.32-1.32,1.32-.58,0-1.08-.36-1.26-.91l-1.03-3.09h3.61v2.68ZM49.91,48v1H14.09v-1c0-4.72-1.77-9.17-5-12.58l1.41-1.42c3.18,3.34,5.08,7.51,5.5,12.09.05.52.48.91,1,.91h30c.52,0,.95-.39,1-.91.42-4.58,2.32-8.75,5.5-12.09l1.41,1.42c-3.23,3.41-5,7.86-5,12.58Z"/>
  <path d="M21,35h1v1c0,.552.448,1,1,1s1-.448,1-1v-1h1c.552,0,1-.448,1-1s-.448-1-1-1h-1v-1c0-.552-.448-1-1-1s-1,.448-1,1v1h-1c-.552,0-1,.448-1,1s.448,1,1,1Z"/>
  <path d="M39,35h1v1c0,.552.448,1,1,1s1-.448,1-1v-1h1c.552,0,1-.448,1-1s-.448-1-1-1h-1v-1c0-.552-.448-1-1-1s-1,.448-1,1v1h-1c-.552,0-1,.448-1,1s.448,1,1,1Z"/>
  <path d="M22,23h20c1.654,0,3-1.346,3-3v-10c0-1.654-1.346-3-3-3h-20c-1.654,0-3,1.346-3,3v10c0,1.654,1.346,3,3,3ZM21,20v-.532l5.013-4.177,7.137,5.709h-11.149c-.551,0-1-.449-1-1ZM42,21h-5.65l-3.505-2.804,4.124-2.062,6.031,3.446v.42c0,.551-.449,1-1,1ZM22,9h20c.551,0,1,.449,1,1v7.277l-5.504-3.145c-.291-.167-.644-.176-.943-.026l-5.428,2.714-4.5-3.6c-.371-.297-.9-.292-1.265.013l-4.36,3.633v-6.865c0-.551.449-1,1-1Z"/>
</svg>