<?xml version="1.0" encoding="UTF-8"?>
<svg id="Outline" xmlns="http://www.w3.org/2000/svg" version="1.1" viewBox="0 0 64 64">
  <!-- Generator: Adobe Illustrator 29.5.1, SVG Export Plug-In . SVG Version: 2.1.0 Build 141)  -->
  <path d="M51.15011,28.23999c-.99005-.84998-1.77002-1.88-2.32001-3.08002-.54999-1.19-.83002-2.45996-.83002-3.76996v-.39001c0-.54999-.45001-1-1-1s-1,.45001-1,1v.39001c0,1.59998.34003,3.14996,1.01001,4.60999.67999,1.45996,1.63,2.71997,2.83997,3.76001,1.54004,1.31995,2.57001,3.10999,2.96002,5.06-2.84998-1.17004-6.26001-1.82001-9.81-1.82001s-6.96002.64996-9.82001,1.82001c.14001-.67999.35004-1.34003.65002-1.98004.54999-1.19995,1.32996-2.22998,2.32001-3.07996,2.44995-2.09003,3.84998-5.14001,3.84998-8.37v-6.39001h6v2c0,.54999.45001,1,1,1s1-.45001,1-1v-2c.54999,0,1-.45001,1-1v-6c0-.54999-.45001-1-1-1h-10c-.54999,0-1,.45001-1,1v6c0,.54999.45001,1,1,1v6.39001c0,2.63995-1.15002,5.13995-3.15002,6.84998-1.20996,1.03998-2.15997,2.29999-2.83997,3.76001-.66998,1.45996-1.01001,3.01001-1.01001,4.60999v17.39001c0,1.64996,1.34998,3,3,3h18c1.65002,0,3-1.35004,3-3v-17.39001c0-3.22998-1.40002-6.28003-3.84998-8.37ZM39.00009,9h8v4h-8v-4ZM53.00009,54c0,.54999-.45001,1-1,1h-18c-.54999,0-1-.45001-1-1v-2.90002c2.89001,1.22998,6.37,1.90002,10,1.90002s7.10999-.67004,10-1.90002v2.90002ZM53.00009,48.89996c-2.77002,1.35004-6.28998,2.10004-10,2.10004s-7.22998-.75-10-2.10004v-11.79999c2.77002-1.34998,6.28998-2.09998,10-2.09998s7.22998.75,10,2.09998v11.79999Z"/>
  <path d="M43.00009,49c3.30859,0,6-2.69141,6-6s-2.69141-6-6-6-6,2.69141-6,6,2.69141,6,6,6ZM43.00009,39c2.20557,0,4,1.79395,4,4s-1.79443,4-4,4-4-1.79395-4-4,1.79443-4,4-4Z"/>
  <path d="M28.00009,33h-7c-.55225,0-1,.44727-1,1s.44775,1,1,1h5.90479l-1.81787,20h-12.17383l-1.81787-20h5.90479c.55225,0,1-.44727,1-1s-.44775-1-1-1h-7c-.28076,0-.54883.11816-.73828.3252-.18945.20801-.2832.48535-.25781.76562l2,22c.04688.51465.479.90918.99609.90918h14c.51709,0,.94922-.39453.99609-.90918l2-22c.02539-.28027-.06836-.55762-.25781-.76562-.18945-.20703-.45752-.3252-.73828-.3252Z"/>
</svg>