<?xml version="1.0" encoding="UTF-8"?>
<svg id="Outline" xmlns="http://www.w3.org/2000/svg" version="1.1" viewBox="0 0 64 64">
  <!-- Generator: Adobe Illustrator 29.0.0, SVG Export Plug-In . SVG Version: 2.1.0 Build 186)  -->
  <path d="M48.98999,38.92999c-.01001-.02002,0-.03998,0-.06l-2-15c-.07001-.5-.48999-.87-.98999-.87h-3.04999c-.51001-5.60004-5.22003-10-10.95001-10s-10.44,4.39996-10.95001,10h-3.04999c-.5,0-.91998.37-.98999.87l-2,15c0,.02002.01001.03998,0,.06,0,.02997-.01001.04999-.01001.07001v4c0,.54999.45001,1,1,1v6c0,1.64996,1.34998,3,3,3h1v1c0,1.64996,1.34998,3,3,3h18c1.65002,0,3-1.35004,3-3v-1h1c1.65002,0,3-1.35004,3-3v-6c.54999,0,1-.45001,1-1v-4c0-.02002-.01001-.04004-.01001-.07001ZM46.85999,38h-7.85999v-3h7.46002l.39996,3ZM46.19,33h-7.19v-3h6.78998l.40002,3ZM45.12,25l.40002,3h-6.52002v-3h6.12ZM32,15c4.62,0,8.44,3.51001,8.94,8h-17.88c.5-4.48999,4.32001-8,8.94-8ZM27,33v-3h10v3h-10ZM37,35v3h-10v-3h10ZM27,28v-3h10v3h-10ZM18.88,25h6.12v3h-6.52002l.40002-3ZM18.21002,30h6.78998v3h-7.19l.40002-3ZM17.53998,35h7.46002v3h-7.85999l.39996-3ZM42,54c0,.54999-.45001,1-1,1h-18c-.54999,0-1-.45001-1-1v-4c0-.54999.45001-1,1-1h18c.54999,0,1,.45001,1,1v4ZM46,50c0,.54999-.45001,1-1,1h-1v-1c0-1.65002-1.34998-3-3-3h-18c-1.65002,0-3,1.34998-3,3v1h-1c-.54999,0-1-.45001-1-1v-6h28v6ZM47,42h-30v-2h30v2Z"/>
  <path d="M32,11c.55225,0,1-.44727,1-1v-2c0-.55273-.44775-1-1-1s-1,.44727-1,1v2c0,.55273.44775,1,1,1Z"/>
  <path d="M25.71875,11.44824c.20905.50449.80299.74956,1.30664.54102.51025-.21191.75244-.79688.54102-1.30664l-.76562-1.84766c-.21191-.50977-.79688-.75195-1.30664-.54102-.51025.21191-.75244.79688-.54102,1.30664l.76563,1.84766Z"/>
  <path d="M21.39355,14.80762c.38259.38258,1.03341.38065,1.41406,0,.39062-.39062.39062-1.02344,0-1.41406l-1.41406-1.41406c-.39062-.39062-1.02344-.39062-1.41406,0s-.39062,1.02344,0,1.41406c0,0,1.40951,1.40951,1.41406,1.41406Z"/>
  <path d="M16.83496,18.80078s1.84814.76562,1.8482.76565c.50477.20816,1.09692-.03579,1.30659-.54104.21143-.51074-.03076-1.0957-.54102-1.30664l-1.84814-.76562c-.5127-.21191-1.0957.03125-1.30664.54102-.21143.51074.03076,1.0957.54102,1.30664Z"/>
  <path d="M36.97461,11.98926c.48318.20067,1.09417-.02901,1.30664-.54102l.76562-1.84766c.21143-.50977-.03076-1.09473-.54102-1.30664-.51123-.21094-1.09521.03125-1.30664.54102l-.76562,1.84766c-.21142.50975.03075,1.09469.54102,1.30664Z"/>
  <path d="M41.89949,15.09156c.25632.00067.51448-.09148.70695-.28395l1.41406-1.41406c.39062-.39062.39062-1.02344,0-1.41406s-1.02344-.39062-1.41406,0l-1.41405,1.41405c-.62225.62225-.16508,1.69574.7071,1.69802Z"/>
  <path d="M44.01025,19.02539c.20106.48568.79596.75247,1.30664.54102l1.84814-.76562c.51025-.21094.75244-.7959.54102-1.30664-.21143-.50977-.79736-.75293-1.30664-.54102l-1.84814.76562c-.51023.21093-.75242.79585-.54102,1.30664Z"/>
  <circle cx="25" cy="52" r="1"/>
  <circle cx="29" cy="52" r="1"/>
  <circle cx="33" cy="52" r="1"/>
</svg>