<?xml version="1.0" encoding="UTF-8"?>
<svg id="Outline" xmlns="http://www.w3.org/2000/svg" version="1.1" viewBox="0 0 64 64">
  <!-- Generator: Adobe Illustrator 29.5.1, SVG Export Plug-In . SVG Version: 2.1.0 Build 141)  -->
  <path d="M51,45c.55,0,1-.45,1-1v-3h4c.55,0,1-.45,1-1v-4c0-.06-.02-.1-.03-.16-.01-.03,0-.07-.01-.11l-5-18c-.12-.43-.51-.73-.96-.73h-20c-.45,0-.84.3-.96.73l-5,18c-.01.04,0,.08-.01.11-.01.06-.03.1-.03.16v4c0,.55.45,1,1,1h4v3c0,.55.45,1,1,1h3v4.03c-.6-.37-1.29-.58-2-.58-1.51,0-2.86.88-3.51,2.19-2.21-.1-4.04,1.71-4.04,3.91,0,.68.19,1.35.53,1.95.18.31.51.5.87.5h29.76c.35,0,.69-.19.86-.5.35-.6.53-1.27.53-1.95,0-2.2-1.85-4-4.04-3.91-.65-1.31-2-2.19-3.51-2.19-.5,0-.99.11-1.45.3v-3.75h3ZM48,19h2.24l1.11,4h-3.35v-4ZM48,25h3.91l1.11,4h-5.02v-4ZM48,31h5.57l1.11,4h-6.68v-4ZM42,19h4v4h-4v-4ZM42,25h4v4h-4v-4ZM42,31h4v4h-4v-4ZM36,19h4v4h-4v-4ZM36,25h4v4h-4v-4ZM36,31h4v4h-4v-4ZM31.76,19h2.24v4h-3.35l1.11-4ZM30.09,25h3.91v4h-5.02l1.11-4ZM28.43,31h5.57v4h-6.68l1.11-4ZM48.03,51.11c.36-.42.88-.66,1.42-.66.9,0,1.69.64,1.87,1.52.06.27.22.5.46.65.24.14.53.18.79.1.21-.06.37-.08.52-.08,1.05,0,1.91.85,1.91,1.91,0,.15-.02.3-.06.45h-28.43c-.04-.15-.06-.3-.06-.45,0-1.06.86-1.91,1.91-1.91.15,0,.32.02.52.08.27.08.56.04.79-.1.24-.15.41-.38.46-.65.19-.88.97-1.52,1.87-1.52.54,0,1.06.24,1.43.66.19.22.46.35.75.35s.57-.13.76-.35c.62-.71,1.74-.84,2.49-.33.25.18.58.22.88.13.29-.1.53-.33.63-.63.26-.76.98-1.28,1.79-1.28.8,0,1.52.52,1.79,1.28.1.3.33.53.63.63.3.09.62.05.88-.13.75-.51,1.87-.38,2.49.33.19.22.46.35.75.35s.57-.13.76-.35ZM43,43c-.55,0-1,.45-1,1s.45,1,1,1h3v3.6c-.69-.17-1.43-.18-2.1.04-.72-1.01-1.89-1.64-3.17-1.64s-2.45.63-3.17,1.64c-.5-.16-1.03-.2-1.56-.14v-3.5h3c.55,0,1-.45,1-1s-.45-1-1-1h-7v-2h2c.55,0,1-.45,1-1s-.45-1-1-1h-7v-2h28v2h-17c-.55,0-1,.45-1,1s.45,1,1,1h12v2h-7Z"/>
  <path d="M20,16c0-2.206-1.794-4-4-4s-4,1.794-4,4,1.794,4,4,4,4-1.794,4-4ZM14,16c0-1.103.897-2,2-2s2,.897,2,2-.897,2-2,2-2-.897-2-2Z"/>
  <path d="M16,11c.553,0,1-.448,1-1v-2c0-.552-.447-1-1-1s-1,.448-1,1v2c0,.552.447,1,1,1Z"/>
  <path d="M11.051,12.465c.373.372,1.021.393,1.414,0,.391-.391.391-1.024,0-1.415l-1.415-1.414c-.391-.39-1.023-.39-1.414,0s-.391,1.024,0,1.415l1.415,1.414Z"/>
  <path d="M11,16c0-.552-.447-1-1-1h-2c-.553,0-1,.448-1,1s.447,1,1,1h2c.553,0,1-.448,1-1Z"/>
  <path d="M11.051,19.535l-1.415,1.414c-.391.391-.391,1.024,0,1.415.372.372,1.021.392,1.414,0l1.415-1.414c.391-.391.391-1.024,0-1.415s-1.023-.39-1.414,0Z"/>
  <path d="M17,24v-2c0-.552-.447-1-1-1s-1,.448-1,1v2c0,.552.447,1,1,1s1-.448,1-1Z"/>
  <path d="M19.535,19.536c-.391.391-.391,1.024,0,1.415l1.415,1.414c.387.386,1.028.386,1.414,0,.391-.391.391-1.024,0-1.415l-1.415-1.414c-.391-.39-1.023-.39-1.414,0Z"/>
  <path d="M21,16c0,.552.447,1,1,1h2c.553,0,1-.448,1-1s-.447-1-1-1h-2c-.553,0-1,.448-1,1Z"/>
  <path d="M20.242,12.757c.256,0,.512-.098.707-.292l1.415-1.414c.391-.391.391-1.024,0-1.415s-1.023-.39-1.414,0l-1.415,1.414c-.606.605-.15,1.708.707,1.708Z"/>
  <path d="M21,32c-.553,0-1,.448-1,1v.586l-2.293-2.293c-.391-.391-1.023-.391-1.414,0s-.391,1.023,0,1.414l2.293,2.293h-.586c-.553,0-1,.448-1,1s.447,1,1,1h3c.553,0,1-.448,1-1v-3c0-.552-.447-1-1-1Z"/>
  <path d="M25,29v-3c0-.552-.447-1-1-1s-1,.448-1,1v.586l-2.293-2.293c-.391-.391-1.023-.391-1.414,0s-.391,1.023,0,1.414l2.293,2.293h-.586c-.553,0-1,.448-1,1s.447,1,1,1h3c.553,0,1-.448,1-1Z"/>
</svg>