<?xml version="1.0" encoding="UTF-8"?>
<svg id="Outline" xmlns="http://www.w3.org/2000/svg" version="1.1" viewBox="0 0 64 64">
  <!-- Generator: Adobe Illustrator 29.0.0, SVG Export Plug-In . SVG Version: 2.1.0 Build 186)  -->
  <path d="M24,49h-1v-1c0-.55225-.44727-1-1-1s-1,.44775-1,1v1h-1c-.55273,0-1,.44775-1,1s.44727,1,1,1h1v1c0,.55225.44727,1,1,1s1-.44775,1-1v-1h1c.55273,0,1-.44775,1-1s-.44727-1-1-1Z"/>
  <path d="M38,49h-4c-.55273,0-1,.44775-1,1s.44727,1,1,1h4c.55273,0,1-.44775,1-1s-.44727-1-1-1Z"/>
  <path d="M56.84998,14.46997c-.21997-.33997-.62-.51996-1.00995-.45996l-4.30005.71997,2.40002-6.38c.12-.33002.06-.69-.15002-.96997-.21997-.27002-.57001-.42004-.90997-.37l-8,1c-.41003.04999-.73999.33997-.84003.72998l-1.16998,4.26001H12c-.46997,0-.87.32996-.97998.77997l-4,18c-.06.29999.01001.61005.19995.85004.19.22998.48004.37.78003.37h1v3c0,.54999.45001,1,1,1h11v2h-2c-.54999,0-1,.45001-1,1v3h-2c-.54999,0-1,.45001-1,1v12c0,.54999.45001,1,1,1h26c.54999,0,1-.45001,1-1v-12c0-.54999-.45001-1-1-1h-2v-3c0-.54999-.45001-1-1-1h-2v-2h11c.54999,0,1-.45001,1-1v-3h1c.29999,0,.59003-.14001.78003-.37.18994-.23999.25995-.55005.19995-.85004l-1.37-6.12,7.20001-10.08002c.23999-.32996.25-.76996.03998-1.10999ZM42.33002,15l-1.09003,4h-2.39001l-.66998-4h4.15002ZM45.87,20.25l-.47998,4.75h-5.54004l-.66998-4h2.82001c.02002,0,.03003-.01001.04999-.01001.04999,0,.10004,0,.15002-.01001l3.66998-.72998ZM30,15h6.15002l.66998,4h-6.82001v-4ZM30,21h7.15002l.66998,4h-7.82001v-4ZM30,27h8.15002l.66998,4h-8.82001v-4ZM21.84998,15h6.15002v4h-6.82001l.66998-4ZM20.84998,21h7.15002v4h-7.82001l.66998-4ZM28,27v4h-8.82001l.66998-4h8.15002ZM12.79999,15h7.02002l-.66998,4h-7.24005l.89001-4ZM11.46997,21h7.35004l-.66998,4h-7.57001l.88995-4ZM9.25,31l.89001-4h7.67999l-.66998,4h-7.90002ZM20,41h4v2h-4v-2ZM25,39h-2v-2h12v2h-2c-.54999,0-1,.45001-1,1v3h-6v-3c0-.54999-.45001-1-1-1ZM41,45v10h-24v-10h24ZM38,41v2h-4v-2h4ZM47,35H11v-2h36v2ZM40.84998,31l-.66998-4h5.01001l-.19,1.89996c-.03998.45001.21997.88.65002,1.04004.10999.03998.22998.06.34998.06.32001,0,.62-.15002.81-.42004l1.23999-1.72998.70001,3.15002h-7.90002ZM47.70001,24.89996l-.33002.46002.63-6.26001c.03003-.32001-.09003-.63-.33002-.83997-.17999-.17004-.41998-.26001-.66998-.26001-.07001,0-.13.01001-.20001.01996l-3.40997.68005,2.39996-8.79004,5.69-.70996-2.41998,6.44995c-.12.33002-.06.71002.16998.99005.23004.26996.58002.40997.92999.34998l3.62006-.60999-6.08002,8.51996Z"/>
</svg>