<?xml version="1.0" encoding="UTF-8"?>
<svg id="Outline" xmlns="http://www.w3.org/2000/svg" version="1.1" viewBox="0 0 48 48">
  <!-- Generator: Adobe Illustrator 29.5.1, SVG Export Plug-In . SVG Version: 2.1.0 Build 141)  -->
  <path d="M40,19v-1c0-1.65-1.35-3-3-3h-3.65l-1.12-7.41c-.21-1.48-1.49-2.59-2.98-2.59H10.75c-1.49,0-2.77,1.11-2.98,2.58l-2.76,18.27c0,.03.01.05.01.07-.01.03-.02.05-.02.08v2c0,1.65,1.35,3,3,3h17v9c0,1.65,1.35,3,3,3h12c1.65,0,3-1.35,3-3v-18c0-1.65-1.35-3-3-3ZM37,17c.55,0,1,.45,1,1v1h-8v-1c0-.55.45-1,1-1h6ZM25,29H8c-.55,0-1-.45-1-1v-1h18v2ZM25,25H7.16l2.59-17.13c.07-.5.5-.87,1-.87h18.5c.5,0,.93.37,1,.88l1.08,7.12h-.33c-.59,0-1.14.18-1.61.48l-.89-5.64c-.08-.48-.5-.84-.99-.84h-15.02c-.49,0-.91.36-.99.84l-1.91,12c-.04.29.04.59.23.81.19.22.47.35.76.35h14.42v2ZM27.29,15h-2.29v-4h1.66l.63,4ZM21,15v-4h2v4h-2ZM23,17v4h-2v-4h2ZM17,15v-4h2v4h-2ZM19,17v4h-2v-4h2ZM12.71,15l.63-4h1.66v4h-2.29ZM15,17v4h-3.25l.64-4h2.61ZM25.18,21h-.18v-4h2.61l.32,2.01c-1.27.03-2.34.85-2.75,1.99ZM41,40c0,.55-.45,1-1,1h-12c-.55,0-1-.45-1-1v-18c0-.55.45-1,1-1h12c.55,0,1,.45,1,1v18Z"/>
  <path d="M36,30h-2.233l2.091-3.485c.284-.474.131-1.088-.343-1.372-.476-.285-1.088-.131-1.372.343l-3,5c-.186.309-.19.694-.013,1.007s.51.507.87.507h2.233l-2.091,3.485c-.284.474-.131,1.088.343,1.372.469.281,1.089.128,1.372-.343l3-5c.186-.309.19-.694.013-1.007s-.51-.507-.87-.507Z"/>
</svg>