<?xml version="1.0" encoding="UTF-8"?>
<svg id="Outline" xmlns="http://www.w3.org/2000/svg" version="1.1" viewBox="0 0 64 64">
  <!-- Generator: Adobe Illustrator 29.0.0, SVG Export Plug-In . SVG Version: 2.1.0 Build 186)  -->
  <path d="M56.98999,35.92999c-.01001-.02002,0-.03998,0-.06l-2-15c-.07001-.5-.48999-.87-.98999-.87h-18c-.5,0-.91998.37-.98999.87l-2,15c0,.02002.01001.03998,0,.06,0,.02997-.01001.04999-.01001.07001v4c0,.54999.45001,1,1,1h8v10h-4c-.54999,0-1,.45001-1,1v1h-2c-.54999,0-1-.45001-1-1v-5c0-1.65002-1.34998-3-3-3h-2c0-1.29999-.84003-2.40002-2-2.82001v-3.17999c0-.54999-.45001-1-1-1h-4c-.54999,0-1,.45001-1,1v3h-6v-3c0-.54999-.45001-1-1-1h-4c-.54999,0-1,.45001-1,1v3.17999c-1.15997.41998-2,1.52002-2,2.82001v10c0,1.64996,1.34998,3,3,3h16c1.65002,0,3-1.35004,3-3v-8h2c.54999,0,1,.45001,1,1v5c0,1.64996,1.34998,3,3,3h2v1c0,.54999.45001,1,1,1h14c.54999,0,1-.45001,1-1v-4c0-.54999-.45001-1-1-1h-4v-10h8c.54999,0,1-.45001,1-1v-4c0-.02002-.01001-.04004-.01001-.07001ZM23,39h2v2h-2v-2ZM11,39h2v2h-2v-2ZM27,54c0,.54999-.45001,1-1,1H10c-.54999,0-1-.45001-1-1v-10c0-.54999.45001-1,1-1h16c.54999,0,1,.45001,1,1v10ZM49,22h4.12l.40002,3h-4.52002v-3ZM49,27h4.78998l.40002,3h-5.19v-3ZM49,32h5.46002l.39996,3h-5.85999v-3ZM43,22h4v3h-4v-3ZM43,27h4v3h-4v-3ZM43,32h4v3h-4v-3ZM36.88,22h4.12v3h-4.52002l.40002-3ZM36.21002,27h4.78998v3h-5.19l.40002-3ZM35.53998,32h5.46002v3h-5.85999l.39996-3ZM51,53v2h-12v-2h12ZM44,51v-10h2v10h-2ZM55,39h-20v-2h20v2Z"/>
  <path d="M20,48h-1.13135l.96338-1.44531c.30615-.45947.18213-1.08057-.27734-1.38672-.45996-.30762-1.08008-.18311-1.38672.27734l-2,3c-.20459.30664-.22363.70117-.0498,1.02637.17432.3252.51318.52832.88184.52832h1.13135l-.96338,1.44531c-.30612.45943-.18215,1.08045.27722,1.38664.43296.28858,1.07791.18574,1.38684-.27726l2-3c.20459-.30664.22363-.70117.0498-1.02637-.17432-.3252-.51318-.52832-.88184-.52832Z"/>
  <path d="M56,7h-4c-.55225,0-1,.44775-1,1s.44775,1,1,1h1.58594l-6.58594,6.58594-3.08594-3.08594,2.08594-2.08594v1.58594c0,.55225.44775,1,1,1s1-.44775,1-1v-4c0-.55225-.44775-1-1-1h-4c-.55225,0-1,.44775-1,1s.44775,1,1,1h1.58594l-2.08594,2.08594-2.79297-2.79297c-.39062-.39062-1.02344-.39062-1.41406,0s-.39062,1.02344,0,1.41406l2.79297,2.79297-3.08594,3.08594-7.29297-7.29297c-.39062-.39062-1.02344-.39062-1.41406,0s-.39062,1.02344,0,1.41406l8,8c.19531.19531.45117.29297.70703.29297s.51172-.09766.70703-.29297l3.79297-3.79297,3.79297,3.79297c.19531.19531.45117.29297.70703.29297s.51172-.09766.70703-.29297l7.29297-7.29297v1.58594c0,.55225.44775,1,1,1s1-.44775,1-1v-4c0-.55225-.44775-1-1-1Z"/>
</svg>