<?xml version="1.0" encoding="UTF-8"?>
<svg id="Outline" xmlns="http://www.w3.org/2000/svg" version="1.1" viewBox="0 0 64 64">
  <!-- Generator: Adobe Illustrator 29.5.1, SVG Export Plug-In . SVG Version: 2.1.0 Build 141)  -->
  <path d="M55.98,29h-2c-.55,0-1,.45-1,1s.45,1,1,1h1v2H8.98v-2h41c.55,0,1-.45,1-1s-.45-1-1-1H7.98c-.55,0-1,.45-1,1v10c0,6.83,5.3,12.44,12,12.95v3.05c0,.55.45,1,1,1h24c.55,0,1-.45,1-1v-3.05c3.1-.23,5.98-1.54,8.2-3.75,2.45-2.45,3.8-5.72,3.8-9.2v-10c0-.55-.45-1-1-1ZM54.98,40c0,2.94-1.14,5.71-3.22,7.78-2.07,2.08-4.84,3.22-7.78,3.22h-14c-.55,0-1,.45-1,1s.45,1,1,1h13v2h-22v-2h5c.55,0,1-.45,1-1s-.45-1-1-1h-6c-6.07,0-11-4.93-11-11v-1h46v1ZM54.98,37H8.98v-2h46v2Z"/>
  <path d="M32.98,19c-.552,0-1,.447-1,1,0,3.859,3.14,7,7,7,3.213,0,5.965-2.138,6.769-5.227,2.174-2.802,5.265-4.721,8.723-5.412l.136-.027c1.622-.324,2.678-1.908,2.353-3.53-.157-.786-.611-1.463-1.277-1.907-.667-.445-1.467-.602-2.25-.446l-.137.027c-5.205,1.041-9.89,4.135-12.935,8.522h-7.382ZM41.731,20.548c2.78-4.243,7.027-7.123,11.956-8.108l.137-.027c.537-.107,1.07.25,1.176.784.103.516-.236,1.067-.782,1.176l-.136.027c-4.007.802-7.578,3.05-10.053,6.33-.085.113-.146.243-.177.381-.52,2.29-2.523,3.89-4.872,3.89-2.415,0-4.435-1.721-4.899-4h6.813c.337,0,.652-.17.836-.452Z"/>
  <path d="M36.98,12c1.103,0,2,.897,2,2,0,.553.448,1,1,1s1-.447,1-1c0-2.206-1.794-4-4-4-1.103,0-2-.897-2-2,0-.553-.448-1-1-1s-1,.447-1,1c0,2.206,1.794,4,4,4Z"/>
  <path d="M32.98,15c1.103,0,2,.897,2,2,0,.553.448,1,1,1s1-.447,1-1c0-2.206-1.794-4-4-4-1.103,0-2-.897-2-2,0-.553-.448-1-1-1s-1,.447-1,1c0,2.206,1.794,4,4,4Z"/>
</svg>