<?xml version="1.0" encoding="UTF-8"?>
<svg id="Outline" xmlns="http://www.w3.org/2000/svg" version="1.1" viewBox="0 0 64 64">
  <!-- Generator: Adobe Illustrator 29.5.1, SVG Export Plug-In . SVG Version: 2.1.0 Build 141)  -->
  <path d="M52,25h-3v-2.18c1.16-.42,2-1.52,2-2.82,0-1.65-1.35-3-3-3H16c-1.65,0-3,1.35-3,3,0,1.3.84,2.4,2,2.82v2.18h-3c-2.76,0-5,2.24-5,5v2c0,.55.45,1,1,1s1-.45,1-1v-2c0-1.65,1.35-3,3-3h3v2h-3c-.55,0-1,.45-1,1v8c0,.55.45,1,1,1h3v2h-3c-1.65,0-3-1.35-3-3v-2c0-.55-.45-1-1-1s-1,.45-1,1v2c0,2.76,2.24,5,5,5h3v1c0,1.65,1.35,3,3,3h4c.55,0,1-.45,1-1s-.45-1-1-1h-4c-.55,0-1-.45-1-1v-15.2l1.11-.24c4.49-1,9.2-.86,13.62.4,2.65.76,5.4,1.14,8.16,1.14,2.16,0,4.32-.23,6.43-.7l.68-.15v14.75c0,.55-.45,1-1,1h-20c-.55,0-1,.45-1,1s.45,1,1,1h20c1.65,0,3-1.35,3-3v-1h3c2.76,0,5-2.24,5-5v-8c0-2.76-2.24-5-5-5ZM15,37h-2v-6h2v6ZM47,27.2l-1.11.24c-4.49,1-9.2.86-13.62-.4-4.73-1.36-9.78-1.51-14.59-.44l-.68.15v-3.75h30v4.2ZM48,21H16c-.55,0-1-.45-1-1s.45-1,1-1h32c.55,0,1,.45,1,1s-.45,1-1,1ZM49,31h2v6h-2v-6ZM55,38c0,1.65-1.35,3-3,3h-3v-2h3c.55,0,1-.45,1-1v-8c0-.55-.45-1-1-1h-3v-2h3c1.65,0,3,1.35,3,3v8Z"/>
  <path d="M48,55h-1v-2c0-.266-.105-.52-.293-.707l-2-2c-.391-.391-1.023-.391-1.414,0s-.391,1.023,0,1.414l1.707,1.707v1.586h-5.184c.112-.314.184-.648.184-1,0-1.278-1.522-3.62-2.177-4.568-.375-.541-1.271-.541-1.646,0-.654.948-2.177,3.29-2.177,4.568,0,.352.072.686.184,1h-2.369c.112-.314.184-.648.184-1,0-1.278-1.522-3.62-2.177-4.568-.375-.541-1.271-.541-1.646,0-.654.948-2.177,3.29-2.177,4.568,0,.352.072.686.184,1h-5.184v-1.586l1.707-1.707c.391-.391.391-1.023,0-1.414s-1.023-.391-1.414,0l-2,2c-.188.188-.293.441-.293.707v2h-1c-.553,0-1,.447-1,1s.447,1,1,1h30c.553,0,1-.447,1-1s-.447-1-1-1ZM36,54.001c.008-.306.424-1.177,1-2.147.575.971.991,1.841,1,2.147,0,.551-.449.999-1,.999s-1-.448-1-.999ZM28,54.001c.008-.306.424-1.177,1-2.147.575.971.991,1.841,1,2.147,0,.551-.449.999-1,.999s-1-.448-1-.999Z"/>
  <path d="M31.473,12.818l-.367.735c-.247.494-.046,1.094.448,1.341.489.244,1.097.042,1.341-.448l.367-.734c.571-1.142.349-2.516-.555-3.419-.293-.293-.365-.739-.18-1.111l.367-.735c.247-.494.046-1.094-.448-1.341-.49-.245-1.095-.048-1.341.448l-.367.734c-.571,1.142-.349,2.516.555,3.419.293.293.365.739.18,1.111Z"/>
  <path d="M26.473,12.818l-.367.735c-.247.494-.046,1.093.448,1.341.463.232,1.092.054,1.341-.448l.367-.734c.571-1.142.349-2.516-.555-3.419-.293-.293-.365-.739-.18-1.111l.367-.735c.247-.494.046-1.094-.448-1.341-.491-.245-1.095-.048-1.341.448l-.367.734c-.571,1.142-.349,2.516.555,3.419.293.293.365.739.18,1.111Z"/>
  <path d="M36.473,12.818l-.367.735c-.247.494-.046,1.094.448,1.341.491.245,1.095.043,1.341-.448l.367-.734c.571-1.142.349-2.516-.555-3.419-.293-.293-.365-.739-.18-1.111l.367-.735c.247-.494.046-1.094-.448-1.341-.491-.245-1.094-.048-1.341.448l-.367.734c-.571,1.142-.349,2.516.555,3.419.293.293.365.739.18,1.111Z"/>
  <path d="M42,38c1.654,0,3-1.346,3-3s-1.346-3-3-3-3,1.346-3,3,1.346,3,3,3ZM42,34c.552,0,1,.448,1,1s-.448,1-1,1-1-.448-1-1,.448-1,1-1Z"/>
  <path d="M34,40c0,1.654,1.346,3,3,3s3-1.346,3-3-1.346-3-3-3-3,1.346-3,3ZM38,40c0,.552-.448,1-1,1s-1-.448-1-1,.448-1,1-1,1,.448,1,1Z"/>
</svg>