<?xml version="1.0" encoding="UTF-8"?>
<svg id="Outline" xmlns="http://www.w3.org/2000/svg" version="1.1" viewBox="0 0 64 64">
  <!-- Generator: Adobe Illustrator 29.0.0, SVG Export Plug-In . SVG Version: 2.1.0 Build 186)  -->
  <path d="M57,33.00464c0-5.94141-8.80371-10.91895-20.93457-11.83691-.55176-.0498-1.03027.37012-1.07227.92188-.04199.55078.37109,1.03027.92188,1.07227,10.87988.82324,19.08496,5.05469,19.08496,9.84277,0,5.4209-10.53223,10-23,10s-23-4.5791-23-10c0-4.78809,8.20508-9.01953,19.08496-9.84277.55078-.04199.96387-.52148.92188-1.07227s-.52441-.96289-1.07227-.92188c-12.13086.91797-20.93457,5.89551-20.93457,11.83691,0,5.91882,5.88202,12.95667,14,16.57843v4.42157c0,.47656.33691.88672.80371.98047,3.34863.66992,6.7793,1.00977,10.19629,1.00977s6.84766-.33984,10.19629-1.00977c.4668-.09375.80371-.50391.80371-.98047v-4.42157c8.11798-3.62177,14-10.65961,14-16.57843ZM41,53.17847c-5.92773,1.08398-12.07227,1.08398-18,0v-2.79102c2.82849,1.01776,5.87207,1.61719,9,1.61719s6.17151-.59943,9-1.61719v2.79102ZM41.72314,48.04493c-.11725.02502-.22235.0672-.31757.13062-2.84314,1.13672-6.01453,1.8291-9.40558,1.8291-3.45239,0-6.67657-.71844-9.5589-1.89215-.03174-.01495-.06238-.02747-.09558-.03931-4.43738-1.82739-8.04651-4.73987-10.38745-7.81244,4.52277,2.89905,11.75031,4.7439,20.04193,4.7439s15.51917-1.84485,20.04193-4.7439c-2.32892,3.0567-5.91284,5.95502-10.31879,7.78418Z"/>
  <path d="M11,33.00464c0,3.26172,8.18066,8,21,8s21-4.73828,21-8-8.18066-8-21-8-21,4.73828-21,8ZM14.86456,35.00702c3.07953-2.09369,9.20056-4.00238,17.13544-4.00238s14.05591,1.90869,17.13544,4.00238c-2.78278,1.82764-8.62531,3.99762-17.13544,3.99762s-14.35266-2.16998-17.13544-3.99762ZM32,27.00464c12.26172,0,19,4.50684,19,6,0,.18109-.10345.40802-.29956.66443-3.06671-2.27045-9.46997-4.66443-18.70044-4.66443s-15.63373,2.39398-18.70044,4.66443c-.19611-.25641-.29956-.48334-.29956-.66443,0-1.49316,6.73828-6,19-6Z"/>
  <path d="M31.10547,16.55738c-.24707.49414-.04688,1.09472.44725,1.34179.46804.23403,1.0919.05116,1.34181-.44726.7666-1.53223.7666-3.3623,0-4.89453-.48633-.97266-.48633-2.13281,0-3.10547.24707-.49414.04688-1.09473-.44727-1.3418-.49414-.24512-1.09473-.04688-1.3418.44727-.7666,1.53223-.7666,3.3623,0,4.89453.48633.97266.48633,2.13281,0,3.10547Z"/>
  <path d="M35.57715,16.55738c-.24702.49403-.04696,1.09447.44695,1.34164.46643.23342,1.09243.05086,1.34212-.44711.7666-1.53223.7666-3.3623,0-4.89453-.48535-.97168-.48535-2.13379,0-3.10547.24707-.49414.04688-1.09473-.44727-1.3418-.49414-.24512-1.09473-.04688-1.3418.44727-.76562,1.53223-.76562,3.3623,0,4.89453.48633.97266.48633,2.13281,0,3.10547Z"/>
  <path d="M26.57715,16.55738c-.24702.49405-.04695,1.0945.44698,1.34165.465.23268,1.09427.04711,1.34208-.44712.7666-1.53223.7666-3.3623,0-4.89453-.48535-.97168-.48535-2.13379,0-3.10547.24707-.49414.04688-1.09473-.44727-1.3418-.49512-.24512-1.0957-.04688-1.3418.44727-.76562,1.53223-.76562,3.3623,0,4.89453.48633.97266.48633,2.13281,0,3.10547Z"/>
  <path d="M20.29297,34.29761c-.39062.39062-.39062,1.02344,0,1.41406s1.02344.39062,1.41406,0c.71289-.71289,1.87305-.71289,2.58594,0,.19521.19521.4509.29286.70662.29297.87297.00036,1.32234-1.09209.70745-1.70703-1.49219-1.49219-3.92188-1.49219-5.41406,0Z"/>
  <path d="M41.70703,34.29761c-1.49219-1.49219-3.92188-1.49219-5.41406,0-.39062.39062-.39062,1.02344,0,1.41406s1.02344.39062,1.41406,0c.71285-.71285,1.8729-.71289,2.5858-.00013.36702.36695,1.02528.38904,1.4142.00013.39062-.39062.39062-1.02344,0-1.41406Z"/>
  <path d="M28.49316,33.52808c-.48633.26074-.66992.86621-.4082,1.35352.25977.48535.86621.67188,1.35352.4082.89157-.47459,1.99895-.13967,2.47554.74796.25836.48118.87303.66728,1.35356.40829.48633-.26074.66991-.86621.4082-1.35352-.99707-1.86133-3.32324-2.56543-5.18262-1.56445Z"/>
  <circle cx="32" cy="22.00464" r="1"/>
</svg>