<?xml version="1.0" encoding="UTF-8"?>
<svg id="Outline" xmlns="http://www.w3.org/2000/svg" version="1.1" viewBox="0 0 64 64">
  <!-- Generator: Adobe Illustrator 29.5.1, SVG Export Plug-In . SVG Version: 2.1.0 Build 141)  -->
  <path d="M56.695,31.35c-.19-.22-.47-.35-.76-.35H7.935c-.29,0-.57.13-.76.35-.19.23-.28.52-.23.81l1.18,7.03c.93,5.58,4.49,10.63,9.81,13.92v2.89c0,.55.45,1,1,1h26c.55,0,1-.45,1-1v-2.89c5.32-3.29,8.88-8.34,9.81-13.92l1.18-7.03c.05-.29-.04-.58-.23-.81ZM53.775,38.87c-.86,5.16-4.27,9.83-9.35,12.81-.3.18-.49.51-.49.86v2.46h-24v-2.46c0-.35-.19-.68-.49-.86-5.08-2.98-8.49-7.65-9.35-12.81l-.31-1.87h44.3l-.31,1.87ZM54.425,35H9.445l-.33-2h45.64l-.33,2Z"/>
  <path d="M35.935,30.295c5.045,0,9.264-3.718,9.913-8.689,2.319-3.496,5.564-6.205,9.397-7.843,1.447-.619,2.164-2.21,1.666-3.7-.266-.798-.858-1.453-1.627-1.799-.754-.34-1.623-.349-2.377-.027-5.327,2.27-9.707,6.086-12.702,11.059h-13.271c-.553,0-1,.447-1,1,0,5.514,4.486,10,10,10ZM40.778,21.295c.358,0,.688-.191.867-.502,2.78-4.838,6.945-8.544,12.046-10.717.525-.224,1.147.09,1.324.619.165.494-.074,1.022-.556,1.229-4.27,1.823-7.871,4.861-10.416,8.786-.086.132-.139.282-.155.438-.432,4.074-3.851,7.146-7.953,7.146-4.072,0-7.444-3.06-7.938-7h12.78Z"/>
  <path d="M37.512,15.552c-.247.494-.047,1.095.447,1.342.49.243,1.096.044,1.342-.447.767-1.532.767-3.362,0-4.895-.485-.972-.485-2.134,0-3.105.247-.494.047-1.095-.447-1.342-.493-.245-1.096-.047-1.342.447-.766,1.532-.766,3.362,0,4.895.486.973.486,2.133,0,3.105Z"/>
  <path d="M33.512,15.552c-.247.494-.047,1.094.447,1.342.464.232,1.092.051,1.342-.447.767-1.532.767-3.362,0-4.895-.485-.972-.485-2.134,0-3.105.247-.494.047-1.095-.447-1.342-.494-.245-1.096-.047-1.342.447-.766,1.532-.766,3.362,0,4.895.486.973.486,2.133,0,3.105Z"/>
  <path d="M29.512,15.552c-.247.494-.047,1.095.447,1.342.49.244,1.096.044,1.342-.447.767-1.532.767-3.362,0-4.895-.485-.972-.485-2.134,0-3.105.247-.494.047-1.095-.447-1.342-.494-.245-1.096-.047-1.342.447-.766,1.532-.766,3.362,0,4.895.486.973.486,2.133,0,3.105Z"/>
</svg>