<?xml version="1.0" encoding="UTF-8"?>
<svg id="Outline" xmlns="http://www.w3.org/2000/svg" version="1.1" viewBox="0 0 64 64">
  <!-- Generator: Adobe Illustrator 29.5.1, SVG Export Plug-In . SVG Version: 2.1.0 Build 141)  -->
  <path d="M26,17c.553,0,1-.447,1-1s-.447-1-1-1h-4c-.553,0-1,.447-1,1v8c0,.553.447,1,1,1s1-.447,1-1v-3h3c.553,0,1-.447,1-1s-.447-1-1-1h-3v-2h3Z"/>
  <path d="M34,17c.553,0,1-.447,1-1s-.447-1-1-1h-4c-.553,0-1,.447-1,1v8c0,.553.447,1,1,1h4c.553,0,1-.447,1-1s-.447-1-1-1h-3v-2h3c.553,0,1-.447,1-1s-.447-1-1-1h-3v-2h3Z"/>
  <path d="M43,18c0-1.65-1.35-3-3-3h-2c-.55,0-1,.45-1,1v8c0,.55.45,1,1,1h2c1.65,0,3-1.35,3-3,0-.77-.3-1.47-.78-2,.48-.53.78-1.23.78-2ZM40,23h-1v-2h1c.55,0,1,.45,1,1s-.45,1-1,1ZM40,19h-1v-2h1c.55,0,1,.45,1,1s-.45,1-1,1Z"/>
  <path d="M56,18c.553,0,1-.447,1-1v-3c0-1.654-1.346-3-3-3h-3v-1c0-1.654-1.346-3-3-3s-3,1.346-3,3v1h-26v-1c0-1.654-1.346-3-3-3s-3,1.346-3,3v1h-3c-1.654,0-3,1.346-3,3v40c0,1.654,1.346,3,3,3h44c1.654,0,3-1.346,3-3V21c0-.553-.447-1-1-1s-1,.447-1,1v6h-5c-.553,0-1,.447-1,1s.447,1,1,1h5v25c0,.552-.448,1-1,1H10c-.552,0-1-.448-1-1v-25h37c.553,0,1-.447,1-1s-.447-1-1-1H9v-13c0-.552.448-1,1-1h3v1c0,1.654,1.346,3,3,3,.553,0,1-.447,1-1s-.447-1-1-1-1-.448-1-1v-1h30v1c0,1.654,1.346,3,3,3,.553,0,1-.447,1-1s-.447-1-1-1-1-.448-1-1v-1h7c.552,0,1,.448,1,1v3c0,.553.447,1,1,1ZM15,10c0-.552.448-1,1-1s1,.448,1,1v1h-2v-1ZM47,10c0-.552.448-1,1-1s1,.448,1,1v1h-2v-1Z"/>
  <path d="M46.31,40.45c-.09-.04-2.08-.68-4.57-.66.02-2.45-.61-4.43-.65-4.57-.16-.48-.66-.77-1.16-.66-.09.02-2.14.46-4.28,1.72-1.21-2.14-2.74-3.53-2.84-3.63-.38-.34-.96-.34-1.34,0-.1.1-1.63,1.49-2.85,3.63-2.13-1.26-4.18-1.7-4.27-1.72-.5-.11-1,.18-1.16.66-.04.14-.67,2.12-.65,4.57-2.49-.03-4.48.62-4.57.66-.49.15-.77.65-.67,1.15.05.23,1.25,5.72,5.41,8.12,1.71.99,3.61,1.28,5.28,1.28,1.92,0,3.51-.38,4.15-.56.64.18,2.23.56,4.15.56,1.67,0,3.57-.29,5.28-1.28,4.16-2.4,5.36-7.89,5.41-8.12.1-.5-.18-1-.67-1.15ZM23.71,47.99c-2.47-1.43-3.7-4.38-4.19-5.88.76-.16,1.91-.33,3.19-.3.18,1.06.52,2.14,1.1,3.15,1.11,1.92,2.85,3.19,4.45,4.03-1.45.03-3.12-.17-4.55-1ZM25.54,43.96c-1.42-2.46-1.01-5.64-.68-7.19.73.24,1.82.68,2.9,1.34-.37,1.01-.62,2.11-.62,3.29,0,2.21.88,4.19,1.84,5.71-1.27-.69-2.6-1.7-3.44-3.15ZM32.14,47.97c-1.06-1.18-3-3.72-3-6.57s1.94-5.4,3-6.57c1.06,1.17,3,3.71,3,6.57s-1.94,5.39-3,6.57ZM37.14,41.4c0-1.18-.25-2.28-.62-3.29,1.08-.66,2.17-1.1,2.9-1.34.33,1.55.74,4.73-.69,7.19-.82,1.44-2.16,2.45-3.43,3.15.96-1.53,1.84-3.51,1.84-5.71ZM40.57,47.99c-1.43.83-3.1,1.03-4.55,1,1.6-.83,3.34-2.11,4.44-4.02.59-1.02.93-2.1,1.11-3.16,1.27-.03,2.43.14,3.19.3-.49,1.5-1.72,4.45-4.19,5.88Z"/>
</svg>