<?xml version="1.0" encoding="UTF-8"?>
<svg id="Outline" xmlns="http://www.w3.org/2000/svg" version="1.1" viewBox="0 0 64 64">
  <!-- Generator: Adobe Illustrator 29.5.1, SVG Export Plug-In . SVG Version: 2.1.0 Build 141)  -->
  <path d="M48,16c0-5.05-8.35-9-19-9s-19,3.95-19,9c0,5.26,1.5,10.33,4.22,14.41-.42.25-.87.43-1.37.51-.49.08-.85.5-.85.99s.36.91.85.99c1.63.25,2.91,1.52,3.16,3.16.08.49.5.85.99.85s.91-.36.99-.85c.06-.37.17-.72.33-1.05,2.32,1.92,4.92,3.18,7.68,3.7v8.46c0,.04,0,.07-.01.11-3.61.67-5.99,2.51-5.99,4.72,0,2.85,3.87,5,9,5s9-2.15,9-5c0-2.21-2.38-4.05-5.99-4.72-.01-.04-.01-.07-.01-.11v-8.46c9.06-1.75,16-11.26,16-22.71ZM17.43,32.79c-.01.01-.03.02-.05.04-.03.03-.04.06-.06.09-.11.13-.22.25-.32.38-.38-.54-.85-1.01-1.4-1.39.2-.14.37-.3.54-.45q.01-.01.02-.01l.03-.03c.3-.28.57-.57.81-.91.38.54.85,1.02,1.4,1.4-.36.25-.68.55-.97.88ZM32.29,52.71c.357.356,1.034.367,1.42,0,.39-.39.39-1.03,0-1.42-.54-.53-.95-1.16-1.25-1.85,2.24.59,3.54,1.67,3.54,2.56,0,1.42-2.99,3-7,3s-7-1.58-7-3c0-.89,1.3-1.97,3.54-2.56-.3.69-.71,1.32-1.25,1.85-.39.39-.39,1.03,0,1.42.374.374,1.019.381,1.42,0,1.16-1.16,1.92-2.68,2.18-4.3,0-.01,0-.02.01-.04.06-.4.1-.8.1-1.2v-8.22c.33.02.66.05,1,.05s.67-.01,1-.03v8.2c0,.4.04.8.1,1.2.01.02.01.03.01.04.26,1.62,1.02,3.14,2.18,4.3ZM29,37c-3.38,0-6.59-1.21-9.37-3.5.45-.3.96-.52,1.52-.6.49-.08.85-.5.85-.99s-.36-.91-.85-.99c-1.63-.26-2.91-1.53-3.16-3.17-.08-.48-.5-.84-.99-.84s-.91.36-.99.84c-.06.42-.2.81-.38,1.17-1.59-2.5-2.69-5.4-3.23-8.48,2.57,2.19,7.02,3.81,12.51,4.35.56.06,1.04-.34,1.09-.89.06-.55-.34-1.04-.89-1.1-7.47-.74-13.11-3.67-13.11-6.8,0-3.38,6.83-7,17-7s17,3.62,17,7c0,3.13-5.64,6.06-13.11,6.8-.55.06-.95.55-.89,1.1.05.52.48.9.99.9.03,0,.07,0,.1-.01,5.5-.54,9.96-2.17,12.52-4.36-1.65,9.46-8.47,16.57-16.61,16.57Z"/>
  <path d="M43.154,41.92c-1.638-.256-2.91-1.528-3.166-3.166-.076-.487-.496-.846-.988-.846s-.912.358-.988.846c-.256,1.638-1.528,2.91-3.166,3.166-.487.076-.846.496-.846.988s.358.912.846.988c1.638.256,2.91,1.528,3.166,3.166.076.487.496.846.988.846s.912-.358.988-.846c.256-1.638,1.528-2.91,3.166-3.166.487-.076.846-.496.846-.988s-.358-.912-.846-.988ZM39,44.304c-.382-.542-.854-1.014-1.396-1.396.542-.382,1.014-.854,1.396-1.396.382.542.854,1.014,1.396,1.396-.542.382-1.014.854-1.396,1.396Z"/>
  <path d="M53.154,31.92c-1.638-.256-2.91-1.528-3.166-3.166-.076-.487-.496-.846-.988-.846s-.912.358-.988.846c-.256,1.638-1.528,2.91-3.166,3.166-.487.076-.846.496-.846.988s.358.912.846.988c1.638.256,2.91,1.528,3.166,3.166.076.487.496.846.988.846s.912-.358.988-.846c.256-1.638,1.528-2.91,3.166-3.166.487-.076.846-.496.846-.988s-.358-.912-.846-.988ZM49,34.304c-.382-.542-.854-1.014-1.396-1.396.542-.382,1.014-.854,1.396-1.396.382.542.854,1.014,1.396,1.396-.542.382-1.014.854-1.396,1.396Z"/>
  <circle cx="29" cy="24" r="1"/>
</svg>