<?xml version="1.0" encoding="UTF-8"?>
<svg id="Outline" xmlns="http://www.w3.org/2000/svg" version="1.1" viewBox="0 0 64 64">
  <!-- Generator: Adobe Illustrator 29.5.1, SVG Export Plug-In . SVG Version: 2.1.0 Build 141)  -->
  <path d="M32.027,32.003c-.762-.762-1.543-1.491-2.321-2.168-.416-.36-1.049-.319-1.411.099-.362.417-.318,1.049.099,1.411.744.646,1.49,1.344,2.22,2.072,3.133,3.133,5.641,6.495,7.062,9.467,1.217,2.544,1.491,4.604.715,5.381-.071.071-.157.133-.265.189-.034.018-.068.038-.1.061-1.698.78-6.184-.804-11.641-5.408-.966-.816-1.924-1.699-2.849-2.623-1.515-1.515-2.875-3.082-4.038-4.62-.003-.004-.003-.009-.006-.013-.003-.003-.007-.005-.01-.008-2.342-3.102-3.862-6.079-4.12-8.247-.073-.635-.063-1.49.403-1.958.872-.874,3.356-.401,6.329,1.203.484.264,1.092.08,1.354-.405s.081-1.093-.405-1.354c-3.998-2.159-7.086-2.462-8.693-.857-.786.788-1.106,1.93-.983,3.38l-6.282,25.71c-.25,1.027.047,2.087.794,2.835.573.571,1.328.879,2.111.879.239,0,.481-.028.722-.087l12.605-3.08s.008-.001.011-.003l13.019-3.181c.215.021.427.032.633.032.772,0,1.477-.149,2.085-.479.04-.021.078-.046.114-.073.236-.137.442-.294.625-.479,1.477-1.476,1.363-4.123-.327-7.656-1.517-3.171-4.163-6.729-7.452-10.018ZM24.533,44.138c-.35.901-.533,1.858-.533,2.862,0,1.557.446,3.045,1.271,4.323l-1.916.468c-1.517-1.926-2.355-4.31-2.355-6.791,0-1.258.212-2.47.616-3.623.169.174.334.348.507.52.783.783,1.593,1.528,2.41,2.241ZM17.678,53.178c-1.724-1.994-2.678-4.517-2.678-7.178,0-3.116,1.289-6.008,3.552-8.093.494.62,1.017,1.241,1.567,1.86-.729,1.644-1.119,3.396-1.119,5.233,0,2.628.799,5.165,2.255,7.305l-3.577.874ZM10.239,54.996c-.492.122-.824-.144-.944-.264-.12-.119-.386-.451-.265-.945l5.453-22.318c.684,1.523,1.651,3.163,2.859,4.845-2.762,2.472-4.342,5.941-4.342,9.686,0,2.805.899,5.481,2.538,7.701l-5.299,1.295ZM27.367,50.811c-.884-1.07-1.367-2.404-1.367-3.811,0-.511.065-1.004.185-1.479,2.024,1.599,4.251,3.061,6.366,4.023l-5.184,1.267Z"/>
  <path d="M56,26.929h-1.313c-6.716,0-13.029,2.615-17.778,7.364-.391.391-.391,1.023,0,1.414.387.387,1.026.388,1.414,0,4.371-4.371,10.183-6.778,16.364-6.778h1.313c.553,0,1-.447,1-1s-.447-1-1-1Z"/>
  <path d="M28.423,27.222c.371.371,1.018.396,1.414,0,4.749-4.749,7.364-11.062,7.364-17.778v-1.313c0-.553-.447-1-1-1s-1,.447-1,1v1.313c0,6.182-2.407,11.993-6.778,16.364-.391.391-.391,1.023,0,1.414Z"/>
  <path d="M32.666,27.222c.387.387,1.027.387,1.414,0,4.748-4.748,7.363-11.062,7.363-17.778v-1.313c0-.553-.447-1-1-1s-1,.447-1,1v1.313c0,6.182-2.407,11.994-6.777,16.364-.391.391-.391,1.023,0,1.414Z"/>
  <path d="M36.908,31.465c.387.387,1.026.388,1.414,0,4.37-4.371,10.182-6.778,16.364-6.778h1.313c.553,0,1-.447,1-1s-.447-1-1-1h-1.313c-6.717,0-13.03,2.615-17.778,7.364-.391.391-.391,1.023,0,1.414Z"/>
  <path d="M39.029,23.687c-.391.391-.391,1.023,0,1.414.387.387,1.027.387,1.414,0l7.2-7.2c.398.19.832.3,1.286.3.802,0,1.556-.312,2.121-.879.566-.566.879-1.32.879-2.121s-.312-1.556-.878-2.121c-1.133-1.132-3.107-1.135-4.243,0-.566.566-.879,1.319-.879,2.121,0,.454.11.888.3,1.286l-7.2,7.2ZM48.222,14.495h0c.189-.189.44-.294.707-.294s.518.104.707.294c.189.188.293.438.293.706s-.104.518-.294.707c-.376.379-1.033.377-1.413,0-.188-.189-.293-.44-.293-.707s.104-.518.293-.706Z"/>
  <path d="M20,13c.438,0,.851-.099,1.227-.269,1.978,2.423,2.397,5.784.974,8.629l-.097.194c-.246.494-.044,1.095.45,1.341.489.244,1.096.038,1.341-.45l.096-.192c1.804-3.607,1.262-7.898-1.31-10.935.197-.4.318-.843.318-1.318,0-1.654-1.346-3-3-3s-3,1.346-3,3,1.346,3,3,3ZM20,9c.552,0,1,.448,1,1,0,.271-.11.515-.285.695-.003.003-.008.004-.011.008s-.004.008-.008.011c-.18.175-.425.285-.695.285-.552,0-1-.448-1-1s.448-1,1-1Z"/>
  <path d="M27.001,19.997c.222,0,.444-.071.627-.219l1.132-.914c1.252-1.012,1.792-2.67,1.376-4.224-.143-.533.175-1.083.708-1.226,1.597-.428,2.549-2.076,2.122-3.674l-.517-1.932c-.142-.533-.69-.851-1.225-.707-.533.143-.85.69-.707,1.225l.517,1.931c.142.533-.176,1.083-.707,1.226-.774.207-1.422.703-1.823,1.397-.4.693-.507,1.502-.3,2.276.212.791-.063,1.637-.701,2.151,0,0-1.131.913-1.131.913-.717.58-.289,1.773.629,1.776Z"/>
  <path d="M42.78,39.062l1.158-1.777c.337-.518,1.033-.666,1.552-.327.698.454,1.534.612,2.348.438.815-.172,1.516-.651,1.971-1.35.337-.518,1.033-.667,1.552-.327.699.455,1.535.612,2.349.438.815-.172,1.516-.651,1.971-1.35l1.158-1.777c.302-.463.171-1.082-.292-1.384-.462-.301-1.083-.171-1.384.292l-1.158,1.777c-.163.251-.415.423-.708.485-.297.059-.594.005-.844-.158-.698-.454-1.534-.609-2.349-.438-.815.172-1.516.651-1.971,1.35-.339.518-1.034.664-1.551.327-1.443-.938-3.38-.53-4.319.911l-1.158,1.777c-.302.463-.171,1.082.292,1.384.434.283,1.085.168,1.384-.292Z"/>
  <path d="M56.707,38.636c-.316-.317-.804-.383-1.195-.166-1.443.808-3.237.809-4.681,0-.391-.216-.878-.15-1.195.166-.316.316-.384.805-.166,1.195.808,1.443.808,3.237,0,4.681-.218.391-.15.879.166,1.195s.805.383,1.195.166c1.444-.807,3.238-.806,4.681,0,.153.085.321.127.488.127.259,0,.515-.101.707-.293.316-.316.384-.805.166-1.195-.807-1.443-.807-3.237,0-4.681.218-.391.15-.879-.166-1.195ZM53.171,43.27c-.402,0-.806.035-1.203.105.142-.795.142-1.611,0-2.407.796.143,1.613.143,2.407,0-.141.796-.141,1.612,0,2.408-.398-.071-.802-.106-1.205-.106Z"/>
  <path d="M49.364,47.293c-.316-.316-.804-.383-1.195-.166-1.443.808-3.237.807-4.681,0-.391-.216-.878-.149-1.195.166-.316.316-.384.805-.166,1.195.807,1.443.807,3.237,0,4.681-.218.391-.15.879.166,1.195s.805.382,1.195.166c1.442-.809,3.236-.81,4.681,0,.153.085.321.127.488.127.259,0,.515-.101.707-.293.316-.316.384-.805.166-1.195-.808-1.443-.808-3.237,0-4.681.218-.391.15-.879-.166-1.195ZM47.032,52.032c-.796-.143-1.613-.143-2.407,0,.141-.796.141-1.612,0-2.408.796.143,1.612.142,2.408,0-.142.795-.142,1.611,0,2.407Z"/>
  <circle cx="26" cy="28" r="1"/>
</svg>