<?xml version="1.0" encoding="UTF-8"?>
<svg id="Outline" xmlns="http://www.w3.org/2000/svg" version="1.1" viewBox="0 0 64 64">
  <!-- Generator: Adobe Illustrator 29.3.1, SVG Export Plug-In . SVG Version: 2.1.0 Build 151)  -->
  <path d="M55.82956,19.47714l-11.31-11.31c-1.16998-1.16998-3.06995-1.16998-4.23999,0l-14.14996,14.14001c-.56.57001-.87,1.32001-.87,2.12s.31,1.56.87,2.12l2.13,2.12-2.13,2.12c-.39001.39001-.39001,1.03003,0,1.42004l.70996.70996-5.65997,5.65002c-.19-.19-.44-.28998-.70001-.28998-.17999,0-.37.04999-.53998.15997l-9.65002,6.14001c-3.46015,2.20159-4.04595,7.3233-1.13006,10.25995,2.90933,2.93004,8.06541,2.32446,10.26007-1.12994l6.14001-9.65002c.26001-.40002.20001-.90997-.13-1.23999l5.64996-5.66003.71002.71002c.19.17999.44.28998.71002.28998.26001,0,.51996-.10999.70996-.28998l2.12-2.13,2.12006,2.13c.57996.58002,1.34998.87,2.12.87.76996,0,1.53998-.28998,2.12-.87l14.13995-14.14996c.57001-.56006.88-1.32001.88-2.12006,0-.79999-.31-1.54999-.88-2.12ZM17.73959,52.63718c-.76001,1.17999-2,1.95001-3.40002,2.10999-1.38992.15002-2.76988-.32999-3.75993-1.32994-2.03629-2.05665-1.66741-5.59451.77995-7.15004l8.97998-5.72003,3.11005,3.10999-5.71002,8.98004ZM24.00961,41.39719l-1.41003-1.41003,5.66003-5.65997,1.40997,1.40997-5.65997,5.66003ZM32.4996,35.73715l-4.23999-4.23999,1.40997-1.40997,4.23999,4.23999-1.40997,1.40997ZM54.41959,22.30716l-14.14001,14.14001c-.39001.39001-1.02997.39001-1.41998,0l-11.31-11.31c-.19-.19-.28998-.44-.28998-.71002s.09998-.52002.28998-.70996l14.14001-14.14001c.38995-.39001,1.01996-.39001,1.41998,0l11.31,11.32001c.19.17999.28998.42999.28998.69995,0,.27002-.09998.52002-.28998.71002Z"/>
  <path d="M43.10513,12.40628c-.375-.375-1.03906-.375-1.41406,0l-11.31348,11.31445c-.39062.39062-.39062,1.02344,0,1.41406l8.48438,8.48535c.1875.1875.44141.29297.70703.29297s.51953-.10547.70703-.29297l11.31445-11.31396c.39062-.39062.39062-1.02344,0-1.41406l-8.48535-8.48584ZM39.569,31.49906l-7.07031-7.07129,9.89941-9.90039,7.07129,7.07178-9.90039,9.8999Z"/>
  <path d="M11.99185,47.76175v.00049c-1.16992,1.16943-1.16992,3.07324,0,4.24316.56641.56592,1.32031.87793,2.12109.87793.80176,0,1.55469-.31201,2.12109-.87842,1.16992-1.16943,1.16992-3.07324,0-4.24268-1.13184-1.13184-3.1084-1.1333-4.24219-.00049ZM14.81998,50.59085c-.37695.37744-1.03711.37744-1.41406,0-.38965-.39014-.38965-1.02441,0-1.41455.37793-.37744,1.03809-.37646,1.41406,0,.38965.39014.38965,1.02441,0,1.41455Z"/>
</svg>