<?xml version="1.0" encoding="UTF-8"?>
<svg id="Outline" xmlns="http://www.w3.org/2000/svg" version="1.1" viewBox="0 0 48 48">
  <!-- Generator: Adobe Illustrator 29.5.1, SVG Export Plug-In . SVG Version: 2.1.0 Build 141)  -->
  <path d="M15.99,14.577c-.391-.391-1.023-.391-1.414,0s-.391,1.023,0,1.414c0,0,7.071,7.07,7.071,7.07.387.387,1.026.388,1.414,0,.391-.391.391-1.023,0-1.414l-7.071-7.07Z"/>
  <path d="M14.575,18.819c-.391-.391-1.023-.391-1.414,0s-.391,1.023,0,1.414l4.243,4.242c.195.195.451.293.707.293.863,0,1.319-1.095.707-1.707l-4.243-4.242Z"/>
  <path d="M24.475,17.405l-4.243-4.243c-.391-.391-1.023-.391-1.414,0s-.391,1.023,0,1.414c0,0,4.243,4.243,4.243,4.243.387.387,1.027.387,1.414,0,.391-.391.391-1.023,0-1.414Z"/>
  <path d="M41.446,34.376l-5.657-5.657c-.375-.375-1.039-.375-1.414,0l-.707.707-5.657-5.657,2.828-2.828c.36-.36.392-.934.074-1.332l-11.313-14.142c-.178-.222-.441-.357-.726-.373-.278-.014-.561.09-.762.291l-12.728,12.728c-.201.201-.307.479-.292.763.016.283.152.548.374.726l14.142,11.313c.183.146.404.219.624.219.257,0,.514-.099.708-.293l2.828-2.828,5.657,5.657-.707.707c-.188.188-.293.441-.293.707s.105.52.293.707l5.657,5.656c.975.975,2.255,1.462,3.536,1.462s2.561-.487,3.536-1.462c.944-.944,1.464-2.199,1.464-3.535s-.52-2.591-1.464-3.535ZM20.158,28.793l-12.571-10.057,11.148-11.147,10.057,12.57-8.634,8.634ZM25.182,26.597l1.415-1.415,5.657,5.657-1.415,1.415-5.657-5.657ZM40.032,40.032c-1.17,1.17-3.074,1.17-4.243,0l-4.95-4.949,4.243-4.243,4.95,4.95c.566.566.878,1.319.878,2.121s-.312,1.555-.878,2.121Z"/>
</svg>