<?xml version="1.0" encoding="UTF-8"?>
<svg id="Outline" xmlns="http://www.w3.org/2000/svg" version="1.1" viewBox="0 0 64 64">
  <!-- Generator: Adobe Illustrator 29.5.1, SVG Export Plug-In . SVG Version: 2.1.0 Build 141)  -->
  <path d="M38.9,47.92l-7.06-1.28-.46-2.18c.21.02.41.04.62.04,2.76,0,5-2.24,5-5,0-1.33-.52-2.57-1.43-3.49.19-.3.33-.65.39-1.01.14-.88-.1-1.77-.67-2.44-.09-.1-.19-.19-.29-.27v-.79c0-4.1-2.48-7.62-6.02-9.17-.09-2.12-1.83-3.83-3.98-3.83s-3.89,1.71-3.98,3.83c-3.54,1.55-6.02,5.07-6.02,9.17v.81c-.5.44-.85,1.02-.96,1.69-.11.71.03,1.41.38,2.02-.9.91-1.42,2.15-1.42,3.48,0,2.76,2.24,5,5,5,.21,0,.41-.02.62-.04l-.46,2.18-7.06,1.28c-2.38.43-4.1,2.5-4.1,4.92v2.66c0,.55.45,1,1,1h25c.55,0,1-.45,1-1s-.45-1-1-1h-6l4.43-5.91,7.11,1.29c1.42.27,2.46,1.51,2.46,2.96v1.66h-4c-.55,0-1,.45-1,1s.45,1,1,1h5c.55,0,1-.45,1-1v-2.66c0-2.42-1.72-4.49-4.1-4.92ZM35,39.5c0,1.65-1.35,3-3,3-.13,0-.26-.01-.39-.03,1.24-1.4,2.09-3.18,2.32-5.14.02-.01.04-.02.07-.03.62.56,1,1.34,1,2.2ZM25,20.5c.81,0,1.5.48,1.82,1.17-.59-.11-1.2-.17-1.82-.17s-1.23.06-1.82.17c.32-.69,1.01-1.17,1.82-1.17ZM17,31.5c0-4.41,3.59-8,8-8s8,3.59,8,8h-.11c-.78,0-1.49-.44-1.84-1.14l-.16-.31c-.13-.27-.38-.46-.68-.53-.29-.06-.6.01-.83.2-2.58,2.06-6.18,2.06-8.76,0-.23-.19-.54-.26-.83-.2-.3.07-.55.26-.68.53l-.16.31c-.35.7-1.06,1.14-1.84,1.14-.04,0-.07.01-.11.01v-.01ZM18,42.5c-1.65,0-3-1.35-3-3,0-.85.37-1.63.98-2.19.02.01.04.03.06.03.18,1.9.97,3.71,2.23,5.14-.09.01-.18.02-.27.02ZM18,36.5c0-.55-.45-1-1.001-1-.615,0-1.084-.59-.989-1.18.08-.46.56-.82,1.1-.82,1.27,0,2.44-.58,3.2-1.56,2.89,1.77,6.49,1.77,9.38,0,.76.98,1.93,1.56,3.2,1.56h.11c.29,0,.57.13.76.35.2.23.28.52.23.83-.08.46-.56.82-1.1.82-.55,0-1,.45-1,1,0,.13.03.26.07.37-.3,3.53-3.09,6.4-6.5,6.61-1.62.12-3.2-.34-4.51-1.28-.1-.11-.21-.19-.34-.25-.13-.11-.27-.22-.4-.34-1.42-1.34-2.21-3.15-2.21-5.11ZM9,54.5v-1.66c0-1.45,1.04-2.69,2.46-2.96l7.11-1.29,4.43,5.91h-14ZM25,53.83l-4.93-6.57.61-2.87c1.31.72,2.78,1.11,4.31,1.11.2,0,.4-.01.6-.02,1.34-.09,2.61-.49,3.73-1.13l.61,2.91-4.93,6.57Z"/>
  <path d="M56,20.5c.553,0,1-.448,1-1v-11c0-.441-.289-.83-.711-.958-.424-.128-.879.037-1.122.405-1.164,1.755-2.683,3.204-4.513,4.306-1.818,1.095-3.815,1.758-5.933,1.972l-2.771.275h-5.951c-.553,0-1,.448-1,1v10c0,.552.447,1,1,1h1v5c0,.552.447,1,1,1h4c.553,0,1-.448,1-1v-4.896l1.72.171c4.27.432,8.078,2.721,10.448,6.279.538.807,1.832.412,1.832-.554v-9c0-.552-.447-1-1-1s-1,.448-1,1v6.166c-2.648-2.748-6.197-4.488-10.081-4.881l-1.919-.19v-8.188l1.921-.19c2.415-.244,4.691-1,6.765-2.249,1.231-.742,2.34-1.622,3.314-2.63v8.164c0,.552.447,1,1,1ZM37,16.5h4v8h-4v-8ZM41,30.5h-2v-4h2v4Z"/>
</svg>