<?xml version="1.0" encoding="UTF-8"?>
<svg id="Outline" xmlns="http://www.w3.org/2000/svg" version="1.1" viewBox="0 0 64 64">
  <!-- Generator: Adobe Illustrator 29.5.1, SVG Export Plug-In . SVG Version: 2.1.0 Build 141)  -->
  <path d="M29.8,22.006c0-1.654-1.346-3-3-3s-3,1.346-3,3,1.346,3,3,3,3-1.346,3-3ZM25.8,22.006c0-.552.449-1,1-1s1,.448,1,1-.449,1-1,1-1-.448-1-1Z"/>
  <path d="M31.8,30.006c0,1.654,1.346,3,3,3s3-1.346,3-3-1.346-3-3-3-3,1.346-3,3ZM35.8,30.006c0,.552-.449,1-1,1s-1-.448-1-1,.449-1,1-1,1,.448,1,1Z"/>
  <path d="M25.092,31.714c.364.364,1.022.392,1.414,0l10-10c.391-.391.391-1.023,0-1.414s-1.023-.391-1.414,0l-10,10c-.391.391-.391,1.023,0,1.414Z"/>
  <path d="M50.14,13.818c.11-.302.068-.639-.112-.904-.181-.267-.478-.429-.799-.438l-6.16-.172-3.451-1.259-4.825-3.834c-.251-.199-.586-.265-.894-.18-.309.088-.558.318-.668.62l-.537,1.472c-.632-.069-1.265-.116-1.893-.116-9.374,0-17,7.626-17,17,0,4.893,2.09,9.297,5.41,12.402-.065.046-.135.084-.189.147-3.367,3.921-5.221,8.927-5.221,14.096v3.355c0,.347.18.668.474.851.295.183.663.198.973.044l3.598-1.799,4.583,1.833c.12.048.246.071.371.071.546,0,1-.452,1-1v-4.202c0-3.378,1.289-6.553,3.62-8.984.78.11,1.57.187,2.38.187s1.6-.077,2.38-.187c2.331,2.431,3.62,5.606,3.62,8.984v4.202c0,.687.736,1.182,1.372.929l4.583-1.833,3.598,1.799c.31.154.678.139.973-.044.294-.183.474-.504.474-.851v-3.355c0-5.169-1.854-10.175-5.221-14.096-.054-.063-.124-.101-.189-.147,3.32-3.105,5.41-7.508,5.41-12.402,0-1.495-.195-2.971-.579-4.406.067-.084.14-.164.178-.267l2.741-7.516ZM45.995,19.344l-3.301-2.623.876-2.403,4.214.118-1.79,4.908ZM30.601,16.07c.181.267.478.429.799.438l5.174.145c3.224,2,5.225,5.556,5.225,9.353,0,6.065-4.935,11-11,11s-11-4.935-11-11c0-5.978,4.797-10.848,10.742-10.987l-.053.146c-.11.302-.068.639.112.904ZM40.911,15.774l-1.879-.686.685-1.879,1.879.686-.685,1.879ZM34.633,9.639l3.301,2.623-.876,2.403-4.215-.118,1.79-4.908ZM22.8,51.804v2.726l-3.628-1.452c-.265-.105-.562-.094-.819.034l-2.553,1.276v-1.737c0-4.691,1.683-9.234,4.739-12.793.06-.07.092-.152.13-.232,1.632,1.217,3.483,2.15,5.491,2.721-2.175,2.666-3.36,5.971-3.36,9.458ZM41.061,39.858c3.056,3.559,4.739,8.102,4.739,12.793v1.737l-2.553-1.276c-.256-.128-.553-.14-.819-.034l-3.628,1.452v-2.726c0-3.487-1.184-6.792-3.36-9.458,2.008-.571,3.859-1.503,5.491-2.721.038.08.07.162.13.232ZM30.8,41.006c-8.271,0-15-6.729-15-15s6.729-15,15-15c.395,0,.792.016,1.189.047l-.721,1.977c-.157-.006-.31-.024-.468-.024-7.168,0-13,5.832-13,13s5.832,13,13,13,13-5.832,13-13c0-2.968-1.035-5.812-2.835-8.084l.048.017,3.95,3.139c.549,1.588.837,3.243.837,4.927,0,8.271-6.729,15-15,15Z"/>
</svg>