<?xml version="1.0" encoding="UTF-8"?>
<svg id="Outline" xmlns="http://www.w3.org/2000/svg" version="1.1" viewBox="0 0 64 64">
  <!-- Generator: Adobe Illustrator 29.5.1, SVG Export Plug-In . SVG Version: 2.1.0 Build 141)  -->
  <path d="M47.711,13.024c-2.486-.171-4.874.576-6.794,2.056-3.22-.327-6.462.671-8.916,2.751-4.667-3.973-11.701-3.754-16.107.651-3.489,3.479-4.43,8.752-2.48,13.195-3.759,1.478-6.413,5.22-6.413,9.537v8.786c0,.404.243.769.617.924.374.154.804.07,1.09-.217l1.023-1.023c.519-.518,1.335-.598,1.989-.191,1.598.996,3.397,1.508,5.268,1.508.433,0,.869-.027,1.308-.083,3.386-.427,6.248-2.564,7.692-5.518l5.306,5.306c.188.188.441.293.707.293s.52-.105.707-.293l15.4-15.4c.845-.845,1.543-1.807,2.099-2.853.717-.244,1.416-.551,2.074-.961.654-.406,1.471-.327,1.989.191l1.023,1.023c.287.287.716.372,1.09.217.374-.155.617-.52.617-.924v-8.786c0-5.353-4.08-9.829-9.289-10.189ZM18.045,48.933c-1.873.238-3.695-.158-5.269-1.138-.607-.378-1.283-.563-1.95-.563-.64,0-1.271.17-1.826.503v-6.521c0-4.306,3.263-7.906,7.428-8.194,2.436-.166,4.79.76,6.445,2.547,1.654,1.788,2.396,4.214,2.036,6.657-.518,3.506-3.34,6.265-6.864,6.709ZM46.693,33.892l-14.693,14.693-5.265-5.266c.062-.264.113-.532.153-.803.449-3.045-.479-6.073-2.547-8.308-2.068-2.234-5.001-3.399-8.052-3.184-.314.022-.623.06-.927.111-1.778-3.748-1.026-8.275,1.945-11.239,3.855-3.855,10.131-3.855,13.986,0,.391.391,1.023.391,1.414,0,1.678-1.679,3.925-2.675,6.264-2.854-1.579,2.125-2.254,4.792-1.859,7.474.647,4.391,4.181,7.846,8.593,8.402.438.055.875.083,1.308.083.164,0,.325-.026.488-.034-.251.322-.516.634-.807.926ZM55,29.734c-1.135-.681-2.586-.681-3.776.061-.642.4-1.327.697-2.039.899-.001,0-.002,0-.003,0-1.031.292-2.119.379-3.226.238-3.524-.444-6.347-3.203-6.864-6.709-.36-2.443.382-4.87,2.036-6.657.211-.228.435-.438.667-.637.029-.02.054-.041.08-.063,1.436-1.203,3.24-1.866,5.131-1.866.188,0,.378.006.567.02,4.165.288,7.428,3.888,7.428,8.194v6.521Z"/>
  <circle cx="47" cy="22.999" r="1"/>
  <circle cx="43" cy="22.999" r="1"/>
  <circle cx="51" cy="22.999" r="1"/>
  <circle cx="17" cy="40.999" r="1"/>
  <circle cx="13" cy="40.999" r="1"/>
  <circle cx="21" cy="40.999" r="1"/>
</svg>