<?xml version="1.0" encoding="UTF-8"?>
<svg id="Outline" xmlns="http://www.w3.org/2000/svg" version="1.1" viewBox="0 0 64 64">
  <!-- Generator: Adobe Illustrator 29.5.1, SVG Export Plug-In . SVG Version: 2.1.0 Build 141)  -->
  <path d="M56,47c.55,0,1-.45,1-1v-7c0-3.86-3.14-7-7-7h-3.76c-2.43,0-4.81-.99-6.53-2.71-.87-.86-1.54-1.87-2-2.99-.47-1.14-.71-2.33-.71-3.54v-12.76c0-.29-.12-.56-.34-.75-.21-.19-.49-.28-.78-.24l-16.94,1.99h-3.94c-.55,0-1,.45-1,1s.45,1,1,1h3v15.6c-.91.98-1.63,2.1-2.14,3.34-.57,1.38-.86,2.82-.86,4.3v9.76c0,.55.45,1,1,1h3v2h-4c-.55,0-1,.45-1,1v4c0,.55.45,1,1,1h41c.55,0,1-.45,1-1v-4c0-.55-.45-1-1-1h-3v-2h3ZM35,11.12v11.64c0,1.48.29,2.92.86,4.3.56,1.37,1.38,2.6,2.43,3.65,2.1,2.09,4.99,3.29,7.95,3.29h3.76c2.76,0,5,2.24,5,5v2h-15.06c-.31-3.65-2.45-6.87-5.78-8.54l-1.43-.71c-1.67-.84-2.96-2.16-3.77-3.75h.04c.55,0,1-.45,1-1s-.45-1-1-1h-.77c-.14-.62-.23-1.26-.23-1.91v-.09h1c.55,0,1-.45,1-1s-.45-1-1-1h-1v-2h1c.55,0,1-.45,1-1s-.45-1-1-1h-1v-2h1c.55,0,1-.45,1-1s-.45-1-1-1h-1v-2c0-.02-.01-.03-.01-.05l7.01-.83ZM55,51v2H16v-2h39ZM21,49v-2h2v2h-2ZM25,49v-2h22v2h-22ZM49,49v-2h2v2h-2ZM17,45v-2h5c.55,0,1-.45,1-1s-.45-1-1-1h-5v-4.76c0-1.21.24-2.4.7-3.54.47-1.12,1.14-2.13,2.01-2.99.18-.19.29-.44.29-.71V12.89l6-.71v11.91c0,1.14.2,2.24.53,3.28.01.01.01.02.02.03.86,2.63,2.72,4.85,5.29,6.14l1.43.71c2.62,1.31,4.34,3.82,4.66,6.75h-7.93c-.55,0-1,.45-1,1s.45,1,1,1h25v2H17Z"/>
  <path d="M11,17h4c.553,0,1-.448,1-1s-.447-1-1-1h-4c-.553,0-1,.448-1,1s.447,1,1,1Z"/>
  <path d="M8,21h4c.553,0,1-.448,1-1s-.447-1-1-1h-4c-.553,0-1,.448-1,1s.447,1,1,1Z"/>
  <path d="M15,23h-4c-.553,0-1,.448-1,1s.447,1,1,1h4c.553,0,1-.448,1-1s-.447-1-1-1Z"/>
  <path d="M12,27h-4c-.553,0-1,.448-1,1s.447,1,1,1h4c.553,0,1-.448,1-1s-.447-1-1-1Z"/>
  <path d="M12,31h-4c-.553,0-1,.448-1,1s.447,1,1,1h4c.553,0,1-.448,1-1s-.447-1-1-1Z"/>
  <circle cx="26" cy="42" r="1"/>
</svg>