<?xml version="1.0" encoding="UTF-8"?>
<svg id="Outline" xmlns="http://www.w3.org/2000/svg" version="1.1" viewBox="0 0 64 64">
  <!-- Generator: Adobe Illustrator 29.3.1, SVG Export Plug-In . SVG Version: 2.1.0 Build 151)  -->
  <path d="M28.41998,49.76001l-3.88995-.55005c-.42004-.06-.75-.38-.84003-.78998l-.40002-1.90002c1.40002-1.08997,2.38-2.69,2.64001-4.51996h.07001c.88,0,1.71002-.38,2.28998-1.06.57001-.67004.81-1.56.67004-2.44-.11005-.67004-.46002-1.25-.96002-1.69v-3.81c0-3.31-2.69-6-6-6h-5c-1.90002,0-3.48999,1.32996-3.90002,3.09998-1.76996.41003-3.09998,2-3.09998,3.90002v2.81c-.5.44-.84998,1.01996-.96002,1.69-.13995.88.10004,1.76996.67004,2.44.57996.67999,1.40997,1.06,2.28998,1.06h.07001c.26001,1.82996,1.23999,3.42999,2.64001,4.51996l-.40002,1.90002c-.09003.40997-.41998.72998-.84003.78998l-3.88995.55005c-1.47003.20996-2.58002,1.48999-2.58002,2.96997v3.27002c0,.54999.45001,1,1,1s1-.45001,1-1v-3.27002c0-.48999.37-.91998.85999-.97998l3.89001-.56c1.25-.17999,2.26001-1.13,2.52002-2.36005l.26001-1.27997c.76996.28998,1.59998.45001,2.46997.45001s1.70001-.16003,2.46997-.45001l.26001,1.27997c.26001,1.23004,1.27002,2.18005,2.52002,2.36005l3.89001.56c.48999.06.85999.48999.85999.97998v3.27002c0,.54999.45001,1,1,1s1-.45001,1-1v-3.27002c0-1.47998-1.10999-2.76001-2.58002-2.96997ZM12,34c0-1.10004.90002-2,2-2,.54999,0,1-.45001,1-1,0-1.10004.90002-2,2-2h5c2.21002,0,4,1.78998,4,4v3.01001c-.03998,0-.07001-.01001-.10999-.01001h-1.06c-.41003-1.16003-1.53003-2-2.83002-2h-6c-1.29999,0-2.41998.83997-2.83002,2h-1.06c-.03998,0-.07001.01001-.10999.01001v-2.01001ZM19,46c-2.76001,0-5-2.23999-5-5,0-.54999-.45001-1-1-1h-1c-.28998,0-.57001-.13-.76001-.35004-.20001-.22998-.27002-.51996-.22998-.82001.08002-.46997.56-.82996,1.09998-.82996h1.89001c.54999,0,1-.45001,1-1s.45001-1,1-1h6c.54999,0,1,.45001,1,1s.45001,1,1,1h1.89001c.53994,0,1.01989.35993,1.09996.81991.10583.60796-.37319,1.18009-.98997,1.18009h-1c-.54999,0-1,.45001-1,1,0,2.76001-2.23999,5-5,5Z"/>
  <path d="M43,16c0-.55273-.44775-1-1-1h-16c-.55225,0-1,.44727-1,1s.44775,1,1,1h16c.55225,0,1-.44727,1-1Z"/>
  <path d="M38,11h-8c-.55225,0-1,.44727-1,1s.44775,1,1,1h8c.55225,0,1-.44727,1-1s-.44775-1-1-1Z"/>
  <path d="M30,19c-.55225,0-1,.44727-1,1s.44775,1,1,1h8c.55225,0,1-.44727,1-1s-.44775-1-1-1h-8Z"/>
  <path d="M26.44824,23.34082l.57129,2.85545c.13793.68941,1.01822,1.02567,1.58106.60353l2.67188-2.00586c.94434.13867,1.84033.20605,2.72754.20605,7.16846,0,13-4.03711,13-9,0-3.87207-3.5376-7.29785-8.80273-8.52344-.54102-.13086-1.07568.20898-1.20117.74707-.125.53809.20947,1.0752.74707,1.2002,4.34082,1.01074,7.25684,3.65332,7.25684,6.57617,0,3.85938-4.93457,7-11,7-.9082,0-1.83252-.08008-2.82568-.24609-.26855-.04199-.54639.02246-.76514.18652l-1.73975,1.30664-.35889-1.79297c-.06348-.31641-.27588-.58398-.57129-.71582-2.96729-1.33203-4.73926-3.47656-4.73926-5.73828,0-2.92285,2.91602-5.56543,7.25684-6.57617.5376-.125.87207-.66211.74707-1.2002-.12549-.53809-.66064-.87012-1.20117-.74707-5.26514,1.22559-8.80273,4.65137-8.80273,8.52344,0,2.93945,2.02588,5.6543,5.44824,7.34082Z"/>
  <path d="M52,34h-16c-.55225,0-1,.44727-1,1s.44775,1,1,1h16c.55225,0,1-.44727,1-1s-.44775-1-1-1Z"/>
  <path d="M40,32h8c.55225,0,1-.44727,1-1s-.44775-1-1-1h-8c-.55225,0-1,.44727-1,1s.44775,1,1,1Z"/>
  <path d="M48,38h-8c-.55225,0-1,.44727-1,1s.44775,1,1,1h8c.55225,0,1-.44727,1-1s-.44775-1-1-1Z"/>
  <path d="M44,26c-7.16846,0-13,4.03711-13,9s5.83154,9,13,9c.88721,0,1.78369-.06738,2.72754-.20605l2.67187,2.00586c.5808.43603,1.43899.10684,1.58106-.60351l.57129-2.85547c3.42236-1.68652,5.44824-4.40137,5.44824-7.34082,0-4.96289-5.83154-9-13-9ZM50.26074,40.73828c-.29541.13184-.50781.39941-.57129.71582l-.35889,1.79297-1.73975-1.30664c-.17432-.13086-.38574-.2002-.60059-.2002-.05469,0-.10986.00488-.16455.01367-.99268.16602-1.91699.24609-2.82568.24609-6.06543,0-11-3.14062-11-7s4.93457-7,11-7,11,3.14062,11,7c0,2.26172-1.77197,4.40625-4.73926,5.73828Z"/>
  <circle cx="34" cy="8" r="1"/>
</svg>