<?xml version="1.0" encoding="UTF-8"?>
<svg id="Outline" xmlns="http://www.w3.org/2000/svg" version="1.1" viewBox="0 0 48 48">
  <!-- Generator: Adobe Illustrator 29.5.1, SVG Export Plug-In . SVG Version: 2.1.0 Build 141)  -->
  <path d="M32,15c0-5.514-3.589-10-8-10s-8,4.486-8,10c0,3.185,1.224,6.205,3.274,8.079,1.016.928,1.554,2.334,1.478,3.859l-.601,12.017c-.054,1.064.322,2.076,1.057,2.848.734.772,1.726,1.198,2.792,1.198s2.058-.425,2.792-1.198c.735-.772,1.11-1.784,1.057-2.848l-.601-12.017c-.076-1.524.462-2.931,1.478-3.858,2.05-1.874,3.274-4.894,3.274-8.079ZM25.251,27.037l.601,12.017c.025.512-.155.999-.508,1.37-.707.743-1.979.743-2.687,0-.353-.372-.534-.858-.508-1.37l.601-12.017c.106-2.122-.668-4.103-2.125-5.435-1.643-1.501-2.624-3.969-2.624-6.602,0-4.411,2.691-8,6-8s6,3.589,6,8c0,2.633-.98,5.101-2.624,6.602-1.457,1.332-2.232,3.313-2.125,5.435Z"/>
</svg>