<?xml version="1.0" encoding="UTF-8"?>
<svg id="Outline" xmlns="http://www.w3.org/2000/svg" version="1.1" viewBox="0 0 64 64">
  <!-- Generator: Adobe Illustrator 29.3.1, SVG Export Plug-In . SVG Version: 2.1.0 Build 151)  -->
  <path d="M24,7c-.54999,0-1,.45001-1,1v9h-5v-9c0-.54999-.45001-1-1-1s-1,.45001-1,1v9h-5v-9c0-.54999-.45001-1-1-1s-1,.45001-1,1v12c0,2.40997,1.71997,4.42999,4,4.89996v2.10004c0,.69.35999,1.31.90002,1.65997l-3.04004,21.26001c-.26001,1.78003.27002,3.58002,1.45001,4.94s2.89001,2.14001,4.69,2.14001,3.51001-.78003,4.69-2.14001,1.71002-3.15997,1.45001-4.94l-3.04004-21.26001c.54004-.34998.90002-.96997.90002-1.65997v-2.10004c2.28003-.46997,4-2.48999,4-4.89996v-12c0-.54999-.45001-1-1-1ZM21.15997,50.20001c.17004,1.20996-.19,2.42999-.97998,3.34998-.79999.91998-1.96002,1.45001-3.17999,1.45001s-2.38-.53003-3.17999-1.45001c-.78998-.91998-1.15002-2.14001-.97998-3.34998l3.02997-21.20001h2.26001l3.02997,21.20001ZM15,27v-2h4v2h-4ZM23,20c0,1.64996-1.34998,3-3,3h-6c-1.65002,0-3-1.35004-3-3v-1h12v1Z"/>
  <path d="M39,27v-3.21771c2.38708-1.55902,4-4.45959,4-7.78229,0-4.96289-3.58887-9-8-9s-8,4.03711-8,9c0,3.32269,1.61292,6.22327,4,7.78229v3.21771c0,.69421.35632,1.30597.89508,1.66473l-3.03619,21.25421c-.25488,1.78125.27539,3.58301,1.45459,4.94238,1.17871,1.35938,2.88721,2.13867,4.68652,2.13867s3.50781-.7793,4.68652-2.13867c1.1792-1.35938,1.70947-3.16113,1.45459-4.94238l-3.03619-21.25421c.53876-.35876.89508-.97052.89508-1.66473ZM29,16c0-3.85938,2.69141-7,6-7s6,3.14062,6,7-2.69141,7-6,7-6-3.14062-6-7ZM35,25c.69165,0,1.35944-.10968,2-.2962v2.2962h-4v-2.2962c.64056.18652,1.30835.2962,2,.2962ZM38.17578,53.55078c-.79883.9209-1.95654,1.44922-3.17578,1.44922s-2.37695-.52832-3.17578-1.44922-1.1582-2.1416-.98584-3.34863l3.02881-21.20215h2.26562l3.02881,21.20215c.17236,1.20703-.18701,2.42773-.98584,3.34863Z"/>
  <path d="M54.62,7.20996c-.25-.19-.57001-.25995-.85999-.17999-5.14001,1.29004-8.87,5.88-9.08002,11.17004l-.67999,17.75995c-.01001.27002.09003.54004.28003.73004.18994.20001.44995.31.71997.31h3v10.42999c-1.79999.78998-3,2.57001-3,4.57001,0,2.76001,2.23999,5,5,5s5-2.23999,5-5V8c0-.31-.14001-.60004-.38-.79004ZM53,52c0,1.64996-1.34998,3-3,3s-3-1.35004-3-3c0-1.35999.92999-2.54999,2.25-2.89001.44-.10999.75-.51001.75-.96997v-11.14001h3v15ZM53,35h-6.96002l.08002-2h6.88v2ZM53,31h-6.81l.48999-12.72003c.16003-3.96997,2.69-7.46997,6.32001-8.90997v21.63Z"/>
</svg>