<?xml version="1.0" encoding="UTF-8"?>
<svg id="Outline" xmlns="http://www.w3.org/2000/svg" version="1.1" viewBox="0 0 64 64">
  <!-- Generator: Adobe Illustrator 29.5.1, SVG Export Plug-In . SVG Version: 2.1.0 Build 141)  -->
  <path d="M17,30c-3.309,0-6,2.691-6,6s2.691,6,6,6,6-2.691,6-6-2.691-6-6-6ZM17,40c-2.206,0-4-1.794-4-4s1.794-4,4-4,4,1.794,4,4-1.794,4-4,4Z"/>
  <path d="M57,36c0-3.96-2.32-7.38-5.67-9,3.35-1.62,5.67-5.04,5.67-9,0-5.51-4.49-10-10-10h-11c-.55,0-1,.45-1,1s.45,1,1,1h1.38c2.09,4.01,2.25,8.79.37,12.93l-1.39,3.07h-4.02c1.42-5.34.81-11.06-1.69-16h1.35c.55,0,1-.45,1-1s-.45-1-1-1h-15c-5.51,0-10,4.49-10,10,0,3.96,2.32,7.38,5.67,9-3.35,1.62-5.67,5.04-5.67,9,0,3.27,1.59,6.17,4.03,8h-3.03c-.32,0-.61.15-.8.4-.19.26-.25.58-.16.89l3,10c.13.42.52.71.96.71h7c.55,0,1-.45,1-1s-.45-1-1-1h-6.26l-2.4-8h45.32l-2.4,8h-30.26c-.55,0-1,.45-1,1s.45,1,1,1h31c.44,0,.83-.29.96-.71l3-10c.09-.31.03-.63-.16-.89-.19-.25-.48-.4-.8-.4h-3.03c2.44-1.83,4.03-4.73,4.03-8ZM47,10c4.41,0,8,3.59,8,8,0,4-2.95,7.31-6.78,7.9l.22-1.26c.92-5.02-.04-10.26-2.61-14.64h1.17ZM39.57,23.75c1.99-4.37,1.98-9.4.05-13.75h3.83c2.82,4.16,3.93,9.33,3.03,14.28l-.31,1.72h-7.62l1.02-2.25ZM28.41,10l.11.19c2.68,4.82,3.28,10.54,1.72,15.81h-7.27c2.44-1.83,4.03-4.73,4.03-8s-1.59-6.17-4.03-8h5.44ZM9,18c0-4.41,3.59-8,8-8s8,3.59,8,8-3.59,8-8,8-8-3.59-8-8ZM17,44c-4.41,0-8-3.59-8-8s3.59-8,8-8,8,3.59,8,8-3.59,8-8,8ZM30.24,44h-7.27c2.44-1.83,4.03-4.73,4.03-8s-1.59-6.17-4.03-8h5.44l.11.19c2.68,4.82,3.28,10.54,1.72,15.81ZM36.36,44h-4.02c1.42-5.34.83-11.06-1.67-16h6.71c2.09,4.01,2.25,8.79.37,12.93l-1.39,3.07ZM46.48,42.28l-.31,1.72h-7.62l1.02-2.25c1.99-4.37,1.98-9.4.05-13.75h3.83c2.82,4.16,3.93,9.33,3.03,14.28ZM48.22,43.9l.22-1.26c.92-5.02-.04-10.26-2.61-14.64h1.17c4.41,0,8,3.59,8,8,0,4-2.95,7.31-6.78,7.9Z"/>
  <path d="M23,18c0-3.309-2.691-6-6-6s-6,2.691-6,6,2.691,6,6,6,6-2.691,6-6ZM13,18c0-2.206,1.794-4,4-4s4,1.794,4,4-1.794,4-4,4-4-1.794-4-4Z"/>
</svg>