<?xml version="1.0" encoding="UTF-8"?>
<svg id="Outline" xmlns="http://www.w3.org/2000/svg" version="1.1" viewBox="0 0 64 64">
  <!-- Generator: Adobe Illustrator 29.5.1, SVG Export Plug-In . SVG Version: 2.1.0 Build 141)  -->
  <path d="M17,30c-3.309,0-6,2.691-6,6s2.691,6,6,6,6-2.691,6-6-2.691-6-6-6ZM17,40c-2.206,0-4-1.794-4-4s1.794-4,4-4,4,1.794,4,4-1.794,4-4,4Z"/>
  <path d="M57,36c0-3.96-2.32-7.38-5.67-9,3.35-1.62,5.67-5.04,5.67-9,0-5.51-4.49-10-10-10h-30c-5.51,0-10,4.49-10,10,0,3.96,2.32,7.38,5.67,9-3.35,1.62-5.67,5.04-5.67,9,0,3.27,1.59,6.17,4.03,8h-3.03c-.55,0-1,.45-1,1v4c0,.55.45,1,1,1h1v5c0,.55.45,1,1,1h6c.55,0,1-.45,1-1v-5h3c.55,0,1-.45,1-1s-.45-1-1-1h-11v-2h46v2h-27c-.55,0-1,.45-1,1s.45,1,1,1h19v5c0,.55.45,1,1,1h6c.55,0,1-.45,1-1v-5h1c.55,0,1-.45,1-1v-4c0-.55-.45-1-1-1h-3.03c2.44-1.83,4.03-4.73,4.03-8ZM11,50h4v4h-4v-4ZM53,54h-4v-4h4v4ZM52.24,11.97c1.69,1.47,2.76,3.63,2.76,6.03,0,4.41-3.59,8-8,8h-16.98c.08-1.52.95-2.87,2.32-3.55.59-.3,1.24-.45,1.9-.45h1.53c2.37,0,4.51-1.32,5.57-3.44l.29-.57c.7-.04,1.4-.12,2.11-.27l1.12-.24c1.79-.38,3.29-1.54,4.11-3.18.48-.96,1.3-1.67,2.31-2.01l.96-.32ZM50.12,28.63c-1.27.57-2.31,1.52-2.94,2.77-.55,1.1-1.54,1.87-2.74,2.13l-1.12.24c-5.12,1.09-10.24-1.3-12.73-5.77h16.41c1.11,0,2.16.23,3.12.63ZM47,10c1.11,0,2.16.23,3.12.63-1.27.57-2.31,1.52-2.94,2.77-.55,1.1-1.54,1.87-2.74,2.13l-1.12.24c-5.12,1.09-10.24-1.3-12.73-5.77h16.41ZM28.35,10c2.06,4.5,6.3,7.44,11.04,7.95-.77,1.27-2.12,2.05-3.62,2.05h-1.53c-.97,0-1.93.23-2.79.66-2.06,1.03-3.35,3.06-3.43,5.34h-5.05c2.44-1.83,4.03-4.73,4.03-8s-1.59-6.17-4.03-8h5.38ZM9,18c0-4.41,3.59-8,8-8s8,3.59,8,8-3.59,8-8,8-8-3.59-8-8ZM17,44c-4.41,0-8-3.59-8-8s3.59-8,8-8,8,3.59,8,8-3.59,8-8,8ZM22.97,44c2.44-1.83,4.03-4.73,4.03-8s-1.59-6.17-4.03-8h5.38c2.06,4.5,6.3,7.44,11.04,7.95-.77,1.27-2.12,2.05-3.62,2.05h-1.53c-.97,0-1.93.23-2.79.66-2.06,1.03-3.35,3.06-3.43,5.34h-5.05ZM47,44h-16.98c.08-1.52.95-2.87,2.32-3.55.59-.3,1.24-.45,1.9-.45h1.53c2.37,0,4.51-1.32,5.57-3.44l.29-.57c.7-.04,1.4-.12,2.11-.27l1.12-.24c1.79-.38,3.29-1.54,4.11-3.18.48-.96,1.3-1.67,2.31-2.01l.96-.32c1.69,1.47,2.76,3.63,2.76,6.03,0,4.41-3.59,8-8,8Z"/>
  <path d="M17,12c-3.309,0-6,2.691-6,6s2.691,6,6,6,6-2.691,6-6-2.691-6-6-6ZM17,22c-2.206,0-4-1.794-4-4s1.794-4,4-4,4,1.794,4,4-1.794,4-4,4Z"/>
  <circle cx="24" cy="49" r="1"/>
</svg>