<?xml version="1.0" encoding="UTF-8"?>
<svg id="Outline" xmlns="http://www.w3.org/2000/svg" version="1.1" viewBox="0 0 64 64">
  <!-- Generator: Adobe Illustrator 29.5.1, SVG Export Plug-In . SVG Version: 2.1.0 Build 141)  -->
  <path d="M46,33h-4c-.552,0-1,.448-1,1s.448,1,1,1h4c.831,0,1.632.122,2.397.334l-2.306,2.69c-1.621,1.891-3.979,2.976-6.47,2.976-2.089,0-4.101-.765-5.662-2.153l-4.328-3.847h8.37c.552,0,1-.448,1-1s-.448-1-1-1h-20c-6.065,0-11,4.935-11,11s4.935,11,11,11h28c6.065,0,11-4.935,11-11s-4.935-11-11-11ZM9,44c0-4.962,4.038-9,9-9s9,4.038,9,9-4.038,9-9,9-9-4.038-9-9ZM46,53h-21.695c2.835-1.992,4.695-5.28,4.695-9s-1.861-7.008-4.695-9h2.315l6.01,5.342c1.929,1.714,4.411,2.658,6.991,2.658,3.075,0,5.987-1.339,7.989-3.674l2.742-3.198c2.769,1.537,4.649,4.488,4.649,7.873,0,4.962-4.038,9-9,9Z"/>
  <path d="M25,44c0-3.86-3.14-7-7-7s-7,3.14-7,7,3.14,7,7,7,7-3.14,7-7ZM13,44c0-2.757,2.243-5,5-5s5,2.243,5,5c0,2.679-2.124,4.856-4.773,4.977-.532-.777-1.227-3.891-1.227-4.977,0-.551.449-1,1-1s1,.449,1,1,.448,1,1,1,1-.448,1-1c0-1.654-1.346-3-3-3s-3,1.346-3,3c0,.042.183,2.503.852,4.496-1.68-.807-2.852-2.511-2.852-4.496Z"/>
  <path d="M18,31h15c.552,0,1-.448,1-1s-.448-1-1-1h-8.695c2.835-1.992,4.695-5.28,4.695-9s-1.861-7.008-4.695-9h2.315l6.01,5.342c1.929,1.714,4.411,2.658,6.991,2.658,3.075,0,5.987-1.339,7.989-3.674l2.742-3.198c2.769,1.537,4.649,4.488,4.649,7.873,0,4.962-4.038,9-9,9h-9c-.552,0-1,.448-1,1s.448,1,1,1h9c6.065,0,11-4.935,11-11s-4.935-11-11-11h-28c-6.065,0-11,4.935-11,11s4.935,11,11,11ZM48.397,11.334l-2.306,2.69c-1.621,1.891-3.979,2.976-6.47,2.976-2.089,0-4.101-.765-5.662-2.153l-4.328-3.847h16.37c.831,0,1.632.122,2.397.334ZM18,11c4.962,0,9,4.038,9,9s-4.038,9-9,9-9-4.038-9-9,4.038-9,9-9Z"/>
  <path d="M18,27c3.86,0,7-3.14,7-7s-3.14-7-7-7-7,3.14-7,7,3.14,7,7,7ZM18,15c2.757,0,5,2.243,5,5,0,2.679-2.124,4.856-4.773,4.977-.532-.777-1.227-3.891-1.227-4.977,0-.551.449-1,1-1s1,.449,1,1,.448,1,1,1,1-.448,1-1c0-1.654-1.346-3-3-3s-3,1.346-3,3c0,.042.183,2.503.852,4.496-1.68-.807-2.852-2.511-2.852-4.496,0-2.757,2.243-5,5-5Z"/>
</svg>