<?xml version="1.0" encoding="UTF-8"?>
<svg id="Outline" xmlns="http://www.w3.org/2000/svg" version="1.1" viewBox="0 0 64 64">
  <!-- Generator: Adobe Illustrator 29.5.1, SVG Export Plug-In . SVG Version: 2.1.0 Build 141)  -->
  <path d="M53.875,49.098c.083-.359.125-.727.125-1.097,0-.757-.177-1.518-.513-2.2-.243-.496-.841-.701-1.338-.457-.496.243-.7.842-.457,1.338.201.41.308.867.308,1.319,0,.544-.148,1.061-.44,1.534-.211.341-.197.773.032,1.101.23.327.63.487,1.025.403.117-.025.25-.038.383-.038,1.103,0,2,.897,2,2s-.897,2-2,2H11c-1.103,0-2-.897-2-2s.897-2,2-2c.133,0,.266.013.383.038.397.086.795-.076,1.025-.403.229-.327.243-.76.032-1.101-.292-.474-.44-.99-.44-1.534,0-1.654,1.346-3,3-3,.889,0,1.543.395,1.936.725.225.19.524.271.812.221.29-.049.544-.224.693-.478.534-.905,1.514-1.468,2.559-1.468s2.024.562,2.559,1.468c.149.254.403.429.693.478.29.05.588-.031.812-.221.393-.33,1.047-.725,1.936-.725.844,0,1.486.371,1.876.682.365.291.883.291,1.248,0,.39-.311,1.032-.682,1.876-.682s1.486.371,1.876.682c.365.291.883.291,1.248,0,.39-.311,1.032-.682,1.876-.682.889,0,1.543.395,1.936.725.225.19.523.271.812.221.29-.049.544-.224.693-.478.534-.905,1.514-1.468,2.559-1.468s2.024.562,2.559,1.468c.149.254.403.429.693.478.29.05.588-.031.812-.221.393-.33,1.047-.725,1.903-.733.549.106,1.067-.248,1.174-.789.141-.716-.486-1.202-1.142-1.202-.832,0-1.631.205-2.354.599-.932-1.004-2.254-1.599-3.646-1.599s-2.714.595-3.646,1.599c-1.488-.811-3.359-.79-4.854.09-.464-.273-.965-.453-1.478-.561.156-4.929,1.62-9.747,4.178-13.924,1.71,1.187,3.713,1.808,5.743,1.808,1.585,0,3.185-.374,4.667-1.144.49-.254.682-.857.428-1.348-.254-.491-.86-.681-1.348-.428-2.727,1.414-5.936,1.158-8.382-.555.63-.882,1.307-1.731,2.037-2.537h5.654c.553,0,1-.447,1-1s-.447-1-1-1h-3.693l3.039-3h3.654c.553,0,1-.447,1-1s-.447-1-1-1h-1.628l3.33-3.288c.394-.389.397-1.021.01-1.414-.39-.394-1.022-.397-1.414-.01l-3.298,3.256v-1.544c0-.553-.447-1-1-1s-1,.447-1,1v3.519l-3,2.962v-3.48c0-.553-.447-1-1-1s-1,.447-1,1v5.506c-.783.852-1.509,1.75-2.185,2.682-2.757-3.185-2.631-8.018.392-11.041,2.473-2.473,12.304-4.865,17.355-5.885-.73,3.575-2.789,12.813-5.236,16.516-.305.461-.179,1.081.282,1.386.461.304,1.08.178,1.386-.282,3.275-4.953,5.717-18.143,5.819-18.702.06-.322-.044-.654-.276-.887s-.563-.341-.887-.276c-1.646.3-16.184,3.042-19.857,6.717-3.898,3.898-3.936,10.207-.128,14.161-1.488,2.374-2.644,4.945-3.432,7.631-1.031-4.345-3.085-8.404-6.003-11.816,2.564-3.315,2.334-8.107-.705-11.145-3.045-3.045-14.991-5.302-16.344-5.549-.322-.064-.654.044-.887.276s-.336.563-.276.887c.247,1.353,2.504,13.299,5.549,16.344,1.648,1.648,3.813,2.473,5.979,2.473,1.871,0,3.742-.619,5.28-1.85,3.953,4.685,6.176,10.661,6.176,16.854,0,.097.029.185.055.273-.016.281-.024.563-.033.845-.529.106-1.045.289-1.522.57-1.495-.88-3.365-.9-4.854-.09-.932-1.004-2.254-1.599-3.646-1.599s-2.714.595-3.646,1.599c-.724-.394-1.522-.599-2.354-.599-2.757,0-5,2.243-5,5,0,.37.042.737.125,1.097-1.786.399-3.125,1.998-3.125,3.903,0,2.206,1.794,4,4,4h42c2.206,0,4-1.794,4-4,0-1.905-1.339-3.504-3.125-3.903ZM14.979,23.11c-1.95-1.95-3.854-9.659-4.714-13.844,4.184.858,11.892,2.763,13.844,4.714,2.235,2.235,2.48,5.712.746,8.226-.344-.348-.698-.687-1.062-1.018l-2.121-1.928c-.407-.369-1.041-.341-1.413.067-.371.409-.341,1.041.067,1.413l2.121,1.928c.353.321.695.651,1.028.989-2.53,1.948-6.181,1.767-8.497-.548Z"/>
  <circle cx="16" cy="49.001" r="1"/>
  <circle cx="15" cy="52.001" r="1"/>
  <circle cx="19" cy="51.001" r="1"/>
  <circle cx="21" cy="47.001" r="1"/>
  <circle cx="23" cy="50.001" r="1"/>
</svg>