<?xml version="1.0" encoding="UTF-8"?>
<svg id="Outline" xmlns="http://www.w3.org/2000/svg" version="1.1" viewBox="0 0 64 64">
  <!-- Generator: Adobe Illustrator 29.5.1, SVG Export Plug-In . SVG Version: 2.1.0 Build 141)  -->
  <path d="M43.944,15.014c3.077-.257,8.287,3.527,10.859,5.684-1.749,1.558-6,5.086-9.305,5.749-.542.108-.893.635-.784,1.177.095.476.513.804.979.804.065,0,.131-.006.197-.02,4.823-.966,10.855-6.766,11.109-7.012.199-.192.309-.458.304-.735-.005-.276-.124-.539-.329-.725-.33-.299-8.137-7.309-13.192-6.915-3.073.25-4.788,2.02-5.686,3.459-.844,1.353-1.324,3-1.386,4.647-.194.128-.395.24-.584.379-1.542,1.133-2.771,2.552-3.68,4.146-.286-1.901-.823-3.738-1.594-5.468.192-.191.377-.389.545-.597,1.161-1.437,1.869-3.29,1.943-5.083.093-2.24-.783-4.17-2.531-5.582-3.542-2.86-12.491-1.731-13.5-1.593-.274.038-.52.187-.68.412-.16.226-.219.507-.164.778.072.353,1.804,8.676,5.35,11.54,1.735,1.401,3.369,1.962,4.823,1.962.934,0,1.79-.238,2.555-.627.972,2.319,1.501,4.837,1.501,7.433v6.873c-1.249-1.48-2.781-2.702-4.553-3.588-.495-.248-1.095-.046-1.342.447-1.944,3.888-2.19,8.403-.733,12.49-.125-.012-.246-.043-.373-.043-1.218,0-2.351.565-3.097,1.484-1.178-.646-2.712-.636-3.903.061-.607-.355-1.295-.545-2-.545-1.861,0-3.43,1.278-3.874,3.002-2.239-.077-4.126,1.75-4.126,3.998,0,2.206,1.794,4,4,4,.552,0,1-.448,1-1s-.448-1-1-1c-1.103,0-2-.897-2-2s.897-2,2-2c.216,0,.438.042.678.129.316.116.669.063.939-.139.27-.202.42-.525.399-.862-.001-.025-.014-.103-.017-.128,0-1.103.897-2,2-2,.621,0,1.066.284,1.331.521.38.343.958.343,1.338,0,.265-.238.71-.521,1.331-.521.555,0,1.074.229,1.46.647.237.254.587.37.929.3.341-.068.622-.308.743-.635.289-.785,1.04-1.312,1.868-1.312.517,0,.989.222,1.352.568.435.414.544,1.237,1.258,1.379.341.069.692-.046.929-.3.619-.667,1.594-.855,2.438-.377.465.262,1.052.115,1.338-.335.371-.585,1.001-.935,1.685-.935.828,0,1.579.527,1.868,1.312.121.327.401.567.743.635.34.069.692-.046.929-.3.863-.931,2.473-.772,3.146.288.285.45.872.597,1.338.335,1.102-.625,2.439-.058,2.845,1.042.121.327.401.567.743.635.34.068.693-.046.929-.3.684-.739,1.84-.856,2.66-.233.212.16.481.229.744.193.264-.037.502-.178.662-.392.577-.772,1.449-1.215,2.395-1.215,1.654,0,3,1.346,3,3s-1.346,3-3,3c-.552,0-1,.448-1,1s.448,1,1,1c2.757,0,5-2.243,5-5s-2.243-5-5-5c-1.279,0-2.477.481-3.395,1.343-1.117-.5-2.456-.437-3.508.141-.99-1.219-2.724-1.791-4.266-1.303-.456-.462-1.021-.784-1.633-.978l.241-.604c.576-1.449.938-2.966,1.077-4.509.049-.55-.356-1.036-.906-1.086-.56-.039-1.036.357-1.086.906-.122,1.352-.439,2.681-.943,3.949l-.5,1.251c-.344.081-.674.205-.984.374-.746-.919-1.879-1.484-3.097-1.484-1.079,0-2.089.43-2.831,1.181-1.025-.326-2.155-.199-3.072.303-.013-.015-.029-.026-.042-.041l-.636-1.584c-1.346-3.373-1.32-7.13.044-10.462,1.994,1.211,3.587,2.94,4.642,5.05.043.086.099.161.164.225.183.199.439.328.73.328s.548-.129.73-.328c.065-.064.121-.139.164-.225,1.055-2.11,2.648-3.84,4.643-5.051.371.901.645,1.833.818,2.783.1.543.617.9,1.164.804.543-.099.903-.62.804-1.164-.269-1.473-.75-2.909-1.429-4.268-.247-.493-.847-.695-1.342-.447-1.772.886-3.304,2.108-4.553,3.588v-3.453c0-3.473,1.542-6.646,4.224-8.805.55,2.367,2.138,4.077,4.496,4.765.53.157,1.085-.15,1.24-.68s-.149-1.085-.68-1.24c-2.503-.731-3.105-2.789-3.236-4.053,2.652-1.411,5.724-1.719,8.657-.803.527.161,1.087-.129,1.253-.656.165-.527-.129-1.088-.656-1.253-3.064-.956-6.26-.791-9.121.419.177-.865.482-1.698.922-2.404.655-1.051,1.907-2.341,4.149-2.524ZM23.073,18.503c-2.151-1.737-3.728-6.614-4.402-9.317,3.046-.291,8.743-.437,10.883,1.292,1.254,1.013,1.856,2.34,1.79,3.943-.055,1.333-.603,2.766-1.464,3.855-1.607-2.802-3.851-5.246-6.629-7.1-.459-.306-1.08-.182-1.387.277-.306.459-.183,1.081.277,1.387,2.623,1.75,4.724,4.078,6.19,6.752-1.538.787-3.373.432-5.256-1.088Z"/>
</svg>