<?xml version="1.0" encoding="UTF-8"?>
<svg id="Outline" xmlns="http://www.w3.org/2000/svg" version="1.1" viewBox="0 0 64 64">
  <!-- Generator: Adobe Illustrator 29.5.1, SVG Export Plug-In . SVG Version: 2.1.0 Build 141)  -->
  <path d="M56,7H8c-.55,0-1,.45-1,1s.45,1,1,1h2v3c0,1.65,1.35,3,3,3h2v2.66c-.82.29-1.59.74-2.24,1.39-2.34,2.34-2.34,6.15,0,8.49l1.41,1.41c-.39.39-.39,1.02,0,1.41l2.83,2.83c.19.19.44.3.71.3.26,0,.52-.11.7-.3l8.49-8.48c.39-.39.39-1.03,0-1.42l-2.83-2.83c-.37-.37-1.04-.37-1.41,0l-1.42-1.41c-1.17-1.17-2.7-1.75-4.24-1.75v-2.3h2c1.65,0,3-1.35,3-3v-3h20v3c0,1.65,1.35,3,3,3h2v2.3c-1.54,0-3.07.58-4.24,1.75l-1.42,1.41c-.18-.18-.44-.28-.7-.28s-.52.1-.71.28l-2.83,2.83c-.39.39-.39,1.03,0,1.42l8.49,8.48c.18.19.44.3.7.3.27,0,.52-.11.71-.3l2.83-2.83c.39-.39.39-1.02,0-1.41l1.41-1.41c2.34-2.34,2.34-6.15,0-8.49-.65-.65-1.42-1.1-2.24-1.39v-2.66h2c1.65,0,3-1.35,3-3v-3h2c.55,0,1-.45,1-1s-.45-1-1-1ZM23.36,22.59l1.42,1.41-7.07,7.07-1.42-1.41,7.07-7.07ZM19.83,20.46l1.41,1.42-5.65,5.66-1.42-1.42c-1.56-1.56-1.56-4.1,0-5.66.25-.25.54-.44.83-.61v2.15c0,.55.45,1,1,1s1-.45,1-1v-2.71c1.02,0,2.05.39,2.83,1.17ZM20,12c0,.55-.45,1-1,1h-2v-1c0-.55-.45-1-1-1s-1,.45-1,1v1h-2c-.55,0-1-.45-1-1v-3h8v3ZM46.29,31.07l-7.07-7.07,1.42-1.41,7.07,7.07-1.42,1.41ZM49.83,20.46c1.56,1.56,1.56,4.1,0,5.66l-1.42,1.42-5.65-5.66,1.41-1.42c.78-.78,1.81-1.17,2.83-1.17v2.71c0,.55.45,1,1,1s1-.45,1-1v-2.15c.29.17.58.36.83.61ZM52,12c0,.55-.45,1-1,1h-2v-1c0-.55-.45-1-1-1s-1,.45-1,1v1h-2c-.55,0-1-.45-1-1v-3h8v3Z"/>
  <path d="M52.546,41.163l-7.589-4.949c.07-.314.005-.653-.234-.903-.35-.368-.907-.395-1.307-.102l-9.587-6.252,1.716-1.119c.462-.301.593-.921.291-1.384-.301-.462-.92-.593-1.384-.291l-2.454,1.6-2.454-1.6c-.463-.302-1.083-.171-1.384.291-.302.463-.171,1.083.291,1.384l1.716,1.119-9.587,6.252c-.399-.293-.957-.266-1.307.102-.239.25-.303.589-.234.903l-7.589,4.949c-.462.301-.593.921-.291,1.384.191.294.512.454.838.454.188,0,.376-.052.545-.163l7.825-5.103,10.179,9.694-8.24,7.847c-.4.381-.416,1.014-.035,1.414.196.207.46.311.724.311.248,0,.496-.091.689-.276l8.311-7.915,8.311,7.915c.193.185.441.276.689.276.264,0,.528-.104.724-.311.381-.4.365-1.033-.035-1.414l-8.24-7.847,10.179-9.694,7.825,5.103c.169.11.358.163.545.163.327,0,.647-.16.838-.454.302-.463.171-1.083-.291-1.384ZM32,46.048l-9.908-9.436,9.908-6.462,9.908,6.462-9.908,9.436Z"/>
</svg>