<?xml version="1.0" encoding="UTF-8"?>
<svg id="Outline" xmlns="http://www.w3.org/2000/svg" version="1.1" viewBox="0 0 64 64">
  <!-- Generator: Adobe Illustrator 29.0.0, SVG Export Plug-In . SVG Version: 2.1.0 Build 186)  -->
  <path d="M56.67487,8.82568c.3623-.24756.52051-.70215.39062-1.12109-.12891-.41895-.5166-.70459-.95508-.70459h-11.14062c-.15527,0-.30859.03613-.44824.10596-3.98828,2-7.74609,4.45068-11.16895,7.28369-.42578.35254-.48438.98291-.13281,1.4082.35254.42432.98242.48389,1.4082.13281,3.24609-2.68701,6.80469-5.01807,10.5791-6.93066h7.73828c-5.32227,3.83594-10.33984,8.0708-14.94727,12.61816-5.1178,5.05005-9.81134,10.57947-13.99805,16.42578v-11.04395c0-.01416-.00745-.02594-.00806-.03998l3.89185-4.48346c1.22266-1.40332,2.49512-2.72803,3.78125-3.93799.40234-.37842.42188-1.01123.04395-1.41357-.37988-.40332-1.01367-.42139-1.41309-.04346-1.33496,1.25537-2.6543,2.62842-3.9209,4.08252l-3.49316,4.02393-9.58398-5.20703c-.38965-.21094-.87012-.1416-1.18457.17188l-4.93066,4.93018c-.2168.2168-.32227.521-.28613.82568.03711.30469.21094.57568.47266.73535,5.61719,3.42432,10.49121,8.15234,14.0957,13.67627l.81055,1.22998c.18164.27588.48828.44434.81934.44971h.01562c.3252,0,.62988-.15771.81738-.42383l1.03027-1.46143c4.28125-6.0957,9.1416-11.83984,14.44434-17.07275,5.2666-5.19824,11.07715-9.98096,17.27246-14.21631ZM9.48347,25.61084l3.51562-3.51562,9.00366,4.89154c-.00006.0047-.00269.00854-.00269.01324v10.57739c-3.38092-4.71661-7.65741-8.81482-12.5166-11.96655Z"/>
  <path d="M54.00007,45h-3v-1c0-1.64001-1.32001-2.96002-2.94-2.98999,0,0,.71821-12.92731.72003-12.95996.14757-2.65623-2.13425-5.04984-4.77968-5.05005-2.68293-.00021-4.92042,2.38698-4.78038,5.04999l.72003,12.96002c-1.62.02997-2.94,1.34998-2.94,2.98999v1h-3c-1.65002,0-3,1.34998-3,3v4c0,.54999.45001,1,1,1h1v1c0,1.64996,1.34998,3,3,3h16c1.65002,0,3-1.35004,3-3v-1h1c.54999,0,1-.45001,1-1v-4c0-1.65002-1.34998-3-3-3ZM41.9961,25.88844c1.56562-1.41155,4.92631-.68983,4.784,2.05156l-.73004,13.06h-4.09998s-.72938-13.04812-.73004-13.05999c-.05093-.91102.26808-1.59358.77606-2.05157ZM39.00007,44c0-.54999.45001-1,1-1h8c.54999,0,1,.45001,1,1v1h-10v-1ZM55.00007,51h-14c-.54999,0-1,.45001-1,1s.45001,1,1,1h12v1c0,.54999-.45001,1-1,1h-16c-.54999,0-1-.45001-1-1v-1h2c.54999,0,1-.45001,1-1s-.45001-1-1-1h-4v-3c0-.54999.45001-1,1-1h20c.54999,0,1,.45001,1,1v3Z"/>
</svg>