<?xml version="1.0" encoding="UTF-8"?>
<svg id="Outline" xmlns="http://www.w3.org/2000/svg" version="1.1" viewBox="0 0 64 64">
  <!-- Generator: Adobe Illustrator 29.3.1, SVG Export Plug-In . SVG Version: 2.1.0 Build 151)  -->
  <path d="M57,22v-4c0-3.85999-3.14001-7-7-7h-23v-3c0-.54999-.45001-1-1-1h-6c-.54999,0-1,.45001-1,1v3h-1c-3.85999,0-7,3.14001-7,7v4c0,1.64996,1.34998,3,3,3h4v6h-2c-1.65002,0-3,1.34998-3,3v10c0,1.64996,1.34998,3,3,3h10c1.65002,0,3-1.35004,3-3v-10c0-1.65002-1.34998-3-3-3h-2v-6h4c.54999,0,1-.45001,1-1s-.45001-1-1-1h-14c-.54999,0-1-.45001-1-1v-4c0-2.76001,2.23999-5,5-5h32c2.76001,0,5,2.23999,5,5v4c0,.54999-.45001,1-1,1h-18c-.54999,0-1,.45001-1,1s.45001,1,1,1h6.81l-4.65002,26H8c-.54999,0-1,.45001-1,1v4c0,.54999.45001,1,1,1h48c.54999,0,1-.45001,1-1v-4c0-.54999-.45001-1-1-1h-2v-26c1.65002,0,3-1.35004,3-3ZM23.96997,33h2.03003c.54999,0,1,.45001,1,1v10c0,.54999-.45001,1-1,1h-2.03003c.64001-.84003,1.03003-1.87,1.03003-3v-6c0-1.13-.39001-2.16003-1.03003-3ZM20,25h2v6h-2v-6ZM19,36c0-1.29999.84003-2.40002,2-2.82001,1.15997.41998,2,1.52002,2,2.82001v6c0,1.29999-.84003,2.39996-2,2.82001-1.15997-.42004-2-1.52002-2-2.82001v-6ZM18.03003,45h-2.03003c-.54999,0-1-.45001-1-1v-10c0-.54999.45001-1,1-1h2.03003c-.64001.83997-1.03003,1.87-1.03003,3v6c0,1.13.39001,2.15997,1.03003,3ZM25,11h-4v-2h4v2ZM44.84003,25h7.15997v26h-11.81l4.65002-26ZM55,53v2H9v-2h46Z"/>
  <path d="M16,15c-.55273,0-1,.44727-1,1v4c0,.55273.44727,1,1,1h10c.55273,0,1-.44727,1-1v-4c0-.55273-.44727-1-1-1h-10ZM25,19h-8v-2h8v2Z"/>
  <path d="M53,18c0-1.6543-1.3457-3-3-3s-3,1.3457-3,3,1.3457,3,3,3,3-1.3457,3-3ZM49,18c0-.55176.44824-1,1-1s1,.44824,1,1-.44824,1-1,1-1-.44824-1-1Z"/>
  <path d="M36,19h3.18433c.41412,1.1615,1.51373,2,2.81567,2,1.6543,0,3-1.3457,3-3s-1.3457-3-3-3c-1.30194,0-2.40161.8385-2.81573,2h-3.18427c-.55273,0-1,.44727-1,1s.44727,1,1,1ZM42,17c.55176,0,1,.44824,1,1s-.44824,1-1,1-1-.44824-1-1,.44824-1,1-1Z"/>
  <circle cx="32" cy="24" r="1"/>
</svg>