<?xml version="1.0" encoding="UTF-8"?>
<svg id="Outline" xmlns="http://www.w3.org/2000/svg" version="1.1" viewBox="0 0 48 48">
  <!-- Generator: Adobe Illustrator 29.5.1, SVG Export Plug-In . SVG Version: 2.1.0 Build 141)  -->
  <path d="M41,23c.55,0,1-.45,1-1v-3c.55,0,1-.45,1-1v-8c0-2.76-2.24-5-5-5H8c-1.65,0-3,1.35-3,3v8c0,1.65,1.35,3,3,3v18h-2c-.55,0-1,.45-1,1v4c0,.55.45,1,1,1h36c.55,0,1-.45,1-1v-4c0-.55-.45-1-1-1h-4.03c2.44-1.83,4.03-4.73,4.03-8v-1c0-.55-.45-1-1-1h-8v-4h8ZM7,8c0-.55.45-1,1-1h30c1.65,0,3,1.35,3,3v1H14.82c-.42-1.16-1.52-2-2.82-2s-2.4.84-2.82,2h-2.18v-3ZM13,12c0,.55-.45,1-1,1s-1-.45-1-1,.45-1,1-1,1,.45,1,1ZM7,16v-3h2.18c.42,1.16,1.52,2,2.82,2s2.4-.84,2.82-2h10.18v1c0,.55.45,1,1,1s1-.45,1-1v-1h2v1c0,.55.45,1,1,1s1-.45,1-1v-1h2v1c0,.55.45,1,1,1s1-.45,1-1v-1h2v1c0,.55.45,1,1,1s1-.45,1-1v-1h2v4H8c-.55,0-1-.45-1-1ZM26.03,37h-6.03v-18h2.38l1.73,3.45c.16.34.51.55.89.55h6v4h-8c-.55,0-1,.45-1,1v1c0,3.27,1.59,6.17,4.03,8ZM18,19v18h-8v-18h8ZM41,39v2H7v-2h34ZM40,29c0,4.41-3.59,8-8,8s-8-3.59-8-8h16ZM25.62,21l-1-2h15.38v2h-14.38Z"/>
  <path d="M15,21h-2c-.552,0-1,.447-1,1s.448,1,1,1h2c.552,0,1-.447,1-1s-.448-1-1-1Z"/>
  <path d="M15,25h-2c-.552,0-1,.447-1,1s.448,1,1,1h2c.552,0,1-.447,1-1s-.448-1-1-1Z"/>
  <path d="M15,29h-2c-.552,0-1,.447-1,1s.448,1,1,1h2c.552,0,1-.447,1-1s-.448-1-1-1Z"/>
</svg>