<?xml version="1.0" encoding="UTF-8"?>
<svg id="Outline" xmlns="http://www.w3.org/2000/svg" version="1.1" viewBox="0 0 64 64">
  <!-- Generator: Adobe Illustrator 29.5.1, SVG Export Plug-In . SVG Version: 2.1.0 Build 141)  -->
  <path d="M27.13477,17.31013l-.67285,4.5332c-.05469.36865.1001.73682.40137.95605.30273.21924.69971.25195,1.0332.08643l4.10352-2.04102,4.10352,2.04102c.14107.0698.29336.10447.44516.10449.60386.00009,1.07801-.5497.98941-1.14697l-.67285-4.5332,3.20898-3.27197c.26074-.26611.35254-.65479.2373-1.00928-.11523-.354-.41797-.61523-.78516-.67725l-4.51953-.76074-2.12012-4.06348c-.34473-.66016-1.42871-.66016-1.77344,0l-2.12012,4.06348-4.51953.76074c-.36719.06201-.66992.32324-.78516.67725-.11523.35449-.02344.74316.2373,1.00928l3.20898,3.27197ZM29.81543,13.48054c.30908-.05225.57568-.24609.7207-.52344l1.46387-2.80566,1.46387,2.80566c.14502.27734.41162.47119.7207.52344l3.12012.52539-2.21533,2.25879c-.21924.22363-.32129.53711-.27539.84717l.46436,3.12988-2.83301-1.40918c-.14014-.06982-.29297-.10449-.44531-.10449s-.30518.03467-.44531.10449l-2.83301,1.40918.46436-3.12988c.0459-.31006-.05615-.62354-.27539-.84717l-2.21533-2.25879,3.12012-.52539Z"/>
  <path d="M56.78564,18.70661c-.11523-.354-.41748-.61523-.78516-.67725l-4.16162-.70068-1.95215-3.7417c-.34473-.66016-1.42871-.66016-1.77344,0l-1.95215,3.7417-4.16162.70068c-.36768.06201-.66992.32324-.78516.67725-.11523.35449-.02344.74316.2373,1.00928l2.95459,3.01318-.61963,4.17383c-.05469.36865.1001.73682.40137.95605.30225.21924.7002.25244,1.0332.08643l3.77881-1.87891,3.77881,1.87891c.14099.06976.29318.10443.4449.10449.5991.00025,1.07694-.55864.98967-1.14697l-.61963-4.17383,2.95459-3.01318c.26074-.26611.35254-.65479.2373-1.00928ZM51.81787,21.68366c-.21924.22363-.32129.53711-.27539.84717l.41113,2.77051-2.5083-1.24707c-.14014-.06982-.29297-.10449-.44531-.10449s-.30518.03467-.44531.10449l-2.5083,1.24707.41113-2.77051c.0459-.31006-.05615-.62354-.27539-.84717l-1.96143-2,2.7627-.46533c.30908-.05225.57568-.24609.7207-.52344l1.2959-2.48389,1.2959,2.48389c.14502.27734.41162.47119.7207.52344l2.7627.46533-1.96143,2Z"/>
  <path d="M18.77881,27.94538c.14099.06976.29319.10443.44492.10449.59832.00024,1.07684-.55922.98965-1.14697l-.61963-4.17383,2.95459-3.01318c.26074-.26611.35254-.65479.2373-1.00928-.11523-.354-.41748-.61523-.78516-.67725l-4.16162-.70068-1.95215-3.7417c-.34473-.66016-1.42871-.66016-1.77344,0l-1.95215,3.7417-4.16162.70068c-.36768.06201-.66992.32324-.78516.67725-.11523.35449-.02344.74316.2373,1.00928l2.95459,3.01318-.61963,4.17383c-.05469.36865.1001.73682.40137.95605.30225.21924.69922.25244,1.0332.08643l3.77881-1.87891,3.77881,1.87891ZM12.04639,25.30134l.41113-2.77051c.0459-.31006-.05615-.62354-.27539-.84717l-1.96143-2,2.7627-.46533c.30908-.05225.57568-.24609.7207-.52344l1.2959-2.48389,1.2959,2.48389c.14502.27734.41162.47119.7207.52344l2.7627.46533-1.96143,2c-.21924.22363-.32129.53711-.27539.84717l.41113,2.77051-2.5083-1.24707c-.14014-.06982-.29297-.10449-.44531-.10449s-.30518.03467-.44531.10449l-2.5083,1.24707Z"/>
  <path d="M37.68262,36.35358c-.11523-.354-.41748-.61523-.78516-.67725l-2.72998-.45947-1.28076-2.45508c-.34473-.66016-1.42871-.66016-1.77344,0l-1.28076,2.45508-2.72998.45947c-.36768.06201-.66992.32324-.78516.67725-.11523.35449-.02344.74316.2373,1.00928l1.93848,1.97656-.40674,2.73828c-.05469.36865.1001.73682.40137.95605.30176.21924.69971.25244,1.0332.08643l2.479-1.23291,2.479,1.23291c.14102.06978.29325.10445.44501.10449.59877.00018,1.07702-.55736.98956-1.14697l-.40674-2.73828,1.93848-1.97656c.26074-.26611.35254-.65479.2373-1.00928ZM33.73096,38.29401c-.21924.22363-.32129.53711-.27539.84717l.19824,1.33496-1.2085-.60107c-.14014-.06982-.29297-.10449-.44531-.10449s-.30518.03467-.44531.10449l-1.2085.60107.19824-1.33496c.0459-.31006-.05615-.62354-.27539-.84717l-.94482-.96338,1.33057-.22412c.30908-.05225.57568-.24609.7207-.52344l.62451-1.19727.62451,1.19727c.14502.27734.41162.47119.7207.52344l1.33057.22412-.94482.96338Z"/>
  <path d="M32,24.16022c-7.71973,0-14,6.28027-14,14,0,2.6488.75293,5.11908,2.03619,7.2334l-5.57085,4.91747c-1.59885,1.41133-1.67296,4.06039-.17243,5.56099,1.52949,1.52955,4.13311,1.44442,5.5606-.1728l4.91901-5.57166c2.11304,1.28107,4.58112,2.03259,7.22748,2.03259,3.271,0,6.45361-1.15527,8.96143-3.25293.42383-.35449.47998-.98486.12549-1.40869-.35352-.42285-.98535-.47998-1.40869-.12549-2.14893,1.79736-4.87549,2.78711-7.67822,2.78711-6.6167,0-12-5.3833-12-12s5.3833-12,12-12,12,5.3833,12,12c0,2.28369-.64795,4.5083-1.87354,6.43311-.29639.46582-.15918,1.08398.30664,1.38086.46631.2959,1.08447.15918,1.38086-.30664,1.43018-2.24658,2.18604-4.84277,2.18604-7.50732,0-7.71973-6.28027-14-14-14ZM18.35449,54.37604c-.33545.37988-.79932.59766-1.30615.61328-.50586.021-.98242-.17285-1.34131-.53125-.3584-.3584-.54688-.83496-.53125-1.34131.01562-.50684.2334-.9707.61328-1.30664l5.39929-4.76642c.58032.70508,1.22827,1.35223,1.93365,1.93225l-4.76752,5.40009Z"/>
  <path d="M25.48584,31.90241c-.43408-.33887-1.06348-.26367-1.40381.17236-1.36182,1.74268-2.08203,3.84668-2.08203,6.08545,0,5.51416,4.48584,10,10,10s10-4.48584,10-10-4.48584-10-10-10c-1.55273,0-3.10547.36914-4.49023,1.06689-.49316.24854-.69141.8501-.44287,1.34326.24756.49316.84814.69141,1.34326.44287,1.10693-.55811,2.34814-.85303,3.58984-.85303,4.41113,0,8,3.58887,8,8s-3.58887,8-8,8-8-3.58887-8-8c0-1.78809.57324-3.46631,1.6582-4.854.33984-.43506.2627-1.06348-.17236-1.40381Z"/>
</svg>