<?xml version="1.0" encoding="UTF-8"?>
<svg id="Outline" xmlns="http://www.w3.org/2000/svg" version="1.1" viewBox="0 0 64 64">
  <!-- Generator: Adobe Illustrator 29.5.1, SVG Export Plug-In . SVG Version: 2.1.0 Build 141)  -->
  <path d="M56.424,31.094l-2.65-1.24c-.501-.235-1.096-.02-1.33.482-.234.5-.019,1.095.482,1.33l.718.336-14.4,6.763c-.211.099-.381.269-.48.48l-6.765,14.403-6.765-14.403c-.099-.211-.269-.381-.48-.48l-14.403-6.765,14.403-6.765c.211-.099.381-.269.48-.48l6.765-14.403,6.765,14.403c.099.211.27.381.48.48,0,0,5.147,2.414,5.174,2.427l1.286.603c.5.235,1.096.019,1.33-.48.234-.5.02-1.096-.48-1.33l-.552-.259,3.908-10.826c.132-.364.041-.772-.233-1.046-.274-.274-.683-.365-1.046-.233l-10.83,3.91-4.896-10.424c-.165-.351-.518-.575-.905-.575s-.74.224-.905.575l-4.896,10.424-10.83-3.909c-.365-.131-.772-.041-1.046.233-.274.274-.365.682-.233,1.046l3.909,10.83-10.424,4.896c-.351.165-.575.518-.575.905s.224.74.575.905l10.424,4.896-3.909,10.829c-.233.644.258,1.339.94,1.339.114,0,.229-.02.339-.06l10.83-3.909,4.896,10.424c.165.351.518.575.905.575s.74-.224.905-.575l4.896-10.424,10.83,3.909c.111.04.226.06.339.06.261,0,.516-.102.707-.293.274-.274.365-.682.233-1.046l-3.909-10.83,10.424-4.896c.351-.165.575-.518.575-.906,0-.388-.225-.741-.576-.905ZM47.307,16.693l-3.122,8.65-3.763-1.765-1.767-3.762,8.652-3.123ZM16.693,16.693l8.652,3.123-1.767,3.762-3.762,1.767-3.123-8.652ZM16.693,47.307l3.123-8.652,3.762,1.767,1.767,3.762-8.652,3.123ZM47.307,47.307l-8.652-3.123,1.767-3.762,3.762-1.767,3.123,8.652Z"/>
  <path d="M37.411,26.589l-4.506-9.6c-.165-.351-.518-.575-.905-.575s-.741.224-.905.575l-4.506,9.6-9.6,4.506c-.351.165-.575.518-.575.905s.224.741.575.905l9.6,4.506,4.506,9.6c.165.351.518.575.905.575s.741-.224.905-.575l4.506-9.6,9.6-4.506c.351-.165.575-.518.575-.905s-.224-.741-.575-.905l-9.6-4.506ZM36.234,28.246l5.867,2.754h-7.286c-.302-.847-.969-1.514-1.816-1.816v-7.286l2.754,5.867c.099.211.269.381.48.48ZM32,33c-.551,0-1-.449-1-1s.449-1,1-1,1,.449,1,1-.449,1-1,1ZM27.766,28.246c.211-.099.381-.269.48-.48l2.754-5.867v7.286c-.847.302-1.514.969-1.816,1.816h-7.286l5.867-2.754ZM27.766,35.754l-5.867-2.754h7.286c.302.847.969,1.514,1.816,1.816v7.286l-2.754-5.867c-.099-.211-.269-.381-.48-.48ZM36.234,35.754c-.211.099-.381.269-.48.48l-2.754,5.867v-7.286c.847-.302,1.514-.969,1.816-1.816h7.286l-5.867,2.754Z"/>
  <circle cx="49.739" cy="29.065" r="1"/>
</svg>