<?xml version="1.0" encoding="UTF-8"?>
<svg id="Outline" xmlns="http://www.w3.org/2000/svg" version="1.1" viewBox="0 0 64 64">
  <!-- Generator: Adobe Illustrator 29.5.1, SVG Export Plug-In . SVG Version: 2.1.0 Build 141)  -->
  <path d="M29.535,42.634l-6.637-1.175-3.169-5.949c-.348-.652-1.418-.652-1.766,0l-3.169,5.949-6.637,1.175c-.364.064-.663.324-.777.676s-.025.737.231,1.003l4.679,4.852-.934,6.676c-.051.366.104.73.402.948.3.217.694.252,1.025.09l6.061-2.95,6.061,2.95c.139.068.288.101.437.101.596,0,1.08-.544.99-1.139l-.934-6.676,4.679-4.852c.257-.266.346-.652.231-1.003s-.413-.611-.777-.676ZM23.624,48.127c-.213.221-.313.528-.271.833l.741,5.299-4.811-2.342c-.138-.067-.288-.101-.438-.101s-.299.034-.438.101l-4.811,2.342.741-5.299c.042-.305-.057-.612-.271-.833l-3.714-3.851,5.268-.933c.303-.054.564-.244.708-.515l2.515-4.722,2.515,4.722c.145.271.406.461.708.515l5.268.933-3.714,3.851Z"/>
  <path d="M49.535,35.634l-6.637-1.175-3.169-5.949c-.348-.652-1.418-.652-1.766,0l-3.169,5.949-6.637,1.175c-.364.064-.663.324-.777.676s-.025.737.231,1.003l4.679,4.852-.934,6.676c-.051.366.104.73.402.948.3.218.694.252,1.025.09l6.061-2.95,6.061,2.95c.139.068.288.101.437.101.598,0,1.073-.551.991-1.139l-.934-6.676,4.679-4.852c.257-.266.346-.652.231-1.003s-.413-.611-.777-.676ZM43.624,41.127c-.213.221-.313.528-.271.833l.741,5.299-4.811-2.342c-.138-.067-.288-.101-.438-.101s-.299.034-.438.101l-4.811,2.342.741-5.299c.042-.305-.057-.612-.271-.833l-3.714-3.851,5.268-.933c.303-.054.564-.244.708-.515l2.515-4.722,2.515,4.722c.145.271.406.461.708.515l5.268.933-3.714,3.851Z"/>
  <path d="M19.291,25.165l-.934,6.676c-.051.366.104.73.402.948.3.218.693.253,1.025.09l6.061-2.95,6.061,2.95c.139.068.288.101.437.101.599,0,1.073-.548.99-1.139l-.934-6.676,4.679-4.852c.257-.266.346-.652.231-1.003s-.413-.611-.777-.676l-6.637-1.175-3.169-5.949c-.348-.652-1.418-.652-1.766,0l-3.169,5.949-6.637,1.175c-.364.064-.663.324-.777.676s-.025.737.231,1.003l4.679,4.852ZM22.622,19.343c.303-.054.564-.244.708-.515l2.515-4.722,2.515,4.722c.145.271.406.461.708.515l5.268.933-3.714,3.851c-.213.221-.313.528-.271.833l.741,5.299-4.811-2.342c-.138-.067-.288-.101-.438-.101s-.299.034-.438.101l-4.811,2.342.741-5.299c.042-.305-.057-.612-.271-.833l-3.714-3.851,5.268-.933Z"/>
  <path d="M56.62,13.782c-.114-.352-.413-.611-.777-.676l-5.214-.923-2.489-4.673c-.348-.652-1.418-.652-1.766,0l-2.489,4.673-5.214.923c-.364.064-.663.324-.777.676s-.025.737.231,1.003l3.676,3.812-.733,5.244c-.051.366.104.73.402.948.3.217.694.252,1.026.09l4.761-2.318,4.761,2.318c.139.068.289.101.438.101.601,0,1.074-.543.99-1.138l-.733-5.245,3.675-3.812c.257-.266.346-.652.231-1.003ZM50.936,17.559c-.213.221-.313.528-.271.833l.541,3.867-3.511-1.709c-.138-.067-.288-.101-.438-.101s-.3.034-.438.101l-3.51,1.709.541-3.867c.042-.305-.057-.612-.271-.833l-2.71-2.811,3.845-.681c.303-.054.564-.244.708-.515l1.835-3.446,1.835,3.446c.145.271.406.461.708.515l3.845.681-2.71,2.811Z"/>
</svg>