<?xml version="1.0" encoding="UTF-8"?>
<svg id="Outline" xmlns="http://www.w3.org/2000/svg" version="1.1" viewBox="0 0 64 64">
  <!-- Generator: Adobe Illustrator 29.3.1, SVG Export Plug-In . SVG Version: 2.1.0 Build 151)  -->
  <path d="M51.88,21.42375c-.10999-.33002-.39001-.59003-.72998-.66003l-11.98004-2.73999-6.31-10.54999c-.35999-.60999-1.35999-.60999-1.71997,0l-6.31,10.54999-11.98004,2.73999c-.33997.07001-.62.33002-.72998.66003-.10999.33997-.02997.70001.20001.96997l8.08002,9.26001-1.09003,12.23999c-.02997.35004.12.69.40002.90002.28998.20996.65997.25.98999.10999l3.51996-1.5-1.08997,7.58002h-3.13c-.38,0-.72998.20996-.89001.54999l-2,4c-.15997.31-.14001.67999.04004.97998.17999.29004.5.47003.84998.47003h7c.54999,0,1-.45001,1-1s-.45001-1-1-1h-5.38l1-2h22.76001l1,2h-11.38c-.54999,0-1,.45001-1,1s.45001,1,1,1h13c.34998,0,.66998-.17999.84998-.47003.18005-.29999.20001-.66998.04004-.97998l-2-4c-.16003-.34003-.51001-.54999-.89001-.54999h-3.13l-1.08997-7.58002,3.51996,1.5c.1297.04987.25941.07988.39905.08002.58069.00058,1.03995-.51787.99096-1.09003l-1.09003-12.23999,8.08002-9.26001c.22998-.26996.31-.63.20001-.96997ZM25.15002,50.98375l1.21997-8.5,5.63-2.41003,5.63,2.41003,1.21997,8.5h-13.69995ZM41.81,30.65373c-.17999.21002-.27002.47998-.23999.75l.97998,11-10.15997-4.33002c-.12-.06-.26001-.07996-.39001-.07996s-.27002.01996-.39001.07996l-10.15997,4.33002.97998-11c.03003-.27002-.06-.53998-.23999-.75l-7.26001-8.32001,10.76001-2.45996c.27002-.06006.5-.23004.64001-.46002l5.66998-9.47998,5.66998,9.47998c.14001.22998.37.39996.64001.46002l10.76001,2.45996-7.26001,8.32001Z"/>
  <path d="M32.8584,15.26305c-.36133-.60352-1.35547-.60352-1.7168,0l-3.75244,6.27441-7.12695,1.63086c-.34277.07812-.61914.33105-.72803.66602-.1084.33398-.03369.70117.19775.96582l4.80713,5.50781-.65186,7.28223c-.03125.34961.12354.69141.4082.89746.28467.20801.65674.25.98047.11133l6.72412-2.87109,6.72412,2.87109c.12583.05365.25945.08002.39211.08008.58095.00027,1.0481-.51232.99656-1.08887l-.65186-7.28223,4.80713-5.50781c.23145-.26465.30615-.63184.19775-.96582-.10889-.33496-.38525-.58789-.72803-.66602l-7.12695-1.63086-3.75244-6.27441ZM37.67334,29.3148c-.1792.20508-.26709.47461-.24268.74609l.54102,6.04199-5.5791-2.38184c-.12549-.05371-.25879-.08008-.39258-.08008s-.26709.02637-.39258.08008l-5.5791,2.38184.54102-6.04199c.02441-.27148-.06348-.54102-.24268-.74609l-3.98877-4.57031,5.91357-1.35254c.26562-.06055.49512-.22754.63525-.46094l3.11328-5.20605,3.11328,5.20605c.14014.2334.36963.40039.63525.46094l5.91357,1.35254-3.98877,4.57031Z"/>
  <path d="M32.8584,23.05602c-.36133-.60352-1.35547-.60352-1.7168,0l-1.1958,2-2.27246.52051c-.34277.07812-.61914.33105-.72803.66602-.1084.33398-.03369.70117.19775.96582l1.53223,1.75586-.20752,2.32129c-.03125.35059.12402.69141.4082.89844.28467.20605.65723.24805.98047.11035l2.14355-.91602,2.14355.91602c.12583.05365.25946.08002.39212.08008.57883.00026,1.04771-.51476.99655-1.08887l-.20752-2.32129,1.53223-1.75586c.23145-.26465.30615-.63184.19775-.96582-.10889-.33496-.38525-.58789-.72803-.66602l-2.27246-.52051-1.1958-2ZM33.53711,27.97105c-.1792.20508-.26709.47461-.24268.74609l.09668,1.08105-.99854-.42676c-.12549-.05371-.25879-.08008-.39258-.08008s-.26709.02637-.39258.08008l-.99854.42676.09668-1.08105c.02441-.27148-.06348-.54102-.24268-.74609l-.71387-.81836,1.05908-.24219c.26562-.06055.49512-.22754.63525-.46094l.55664-.93164.55664.93164c.14014.2334.36963.40039.63525.46094l1.05908.24219-.71387.81836Z"/>
  <circle cx="29" cy="55.98375" r="1"/>
</svg>