<?xml version="1.0" encoding="UTF-8"?>
<svg id="Outline" xmlns="http://www.w3.org/2000/svg" version="1.1" viewBox="0 0 48 48">
  <!-- Generator: Adobe Illustrator 29.0.0, SVG Export Plug-In . SVG Version: 2.1.0 Build 186)  -->
  <path d="M31.22461,12.85913l-.1748,2.03906c-.03027.34863.125.68848.4082.89355.28418.20703.65332.24805.97754.1123l1.88477-.7959,1.88477.7959c.32193.13476.6955.09367.97754-.11231.2832-.20605.43848-.54492.4082-.89453l-.17578-2.03906,1.34082-1.5459c.22949-.26562.30371-.63086.19531-.96387-.1084-.33398-.38281-.58594-.72461-.66504l-1.99316-.46387-1.05664-1.75293c-.18066-.2998-.50586-.4834-.85645-.4834s-.6748.18359-.85645.4834l-1.05664,1.75293-1.99414.46387c-.3418.0791-.61621.33105-.72461.66504-.1084.33301-.03418.69824.19531.96387l1.34082,1.54688ZM33.27148,11.07104c.2627-.06055.49023-.22559.62988-.45703l.41895-.69434.41797.69434c.13965.23145.36621.39648.62988.45703l.79004.18457-.53125.6123c-.17676.20508-.26367.47168-.24023.74121l.06934.80762-.74609-.31543c-.25-.10547-.5293-.10547-.7793,0l-.74707.31543.06934-.80859c.02344-.26855-.06348-.53613-.24023-.74023l-.53125-.6123.79004-.18457Z"/>
  <path d="M10.58496,12.85815l-.17578,2.03906c-.03027.34958.12498.68843.40814.89449.26762.19475.65728.24644.9776.11235l1.88477-.7959,1.88477.7959c.3252.13672.69434.09473.97754-.1123.2832-.20508.43848-.54492.4082-.89355l-.1748-2.03906,1.34082-1.54688c.22949-.26562.30371-.63086.19531-.96387-.1084-.33398-.38281-.58594-.72461-.66504l-1.99414-.46387-1.05664-1.75293c-.36328-.59961-1.35156-.59961-1.71289,0l-1.05664,1.75293-1.99316.46387c-.3418.0791-.61621.33105-.72461.66504-.1084.33301-.03418.69824.19531.96387l1.34082,1.5459ZM12.63184,11.07104c.26367-.06055.49023-.22559.62988-.45703l.41797-.69434.41895.69434c.13965.23145.36719.39648.62988.45703l.79004.18457-.53125.6123c-.17676.2041-.26367.47168-.24023.74023l.06934.80859-.74707-.31543c-.125-.05273-.25684-.0791-.38965-.0791s-.26465.02637-.38965.0791l-.74609.31543.06934-.80762c.02344-.26953-.06348-.53613-.24023-.74121l-.53125-.6123.79004-.18457Z"/>
  <path d="M39,29.98315c.55273,0,1-.44727,1-1,0,0,0-6.56445,0-6.57129,0-.38338-.23715-.73655-.57788-.89825-.0108-.00513-.01746-.01495-.02856-.01971l-15-6.42969c-.25-.10742-.53613-.10742-.78809,0l-5.15039,2.20996c-.50684.21777-.74219.80566-.52441,1.31348.2168.50781.80371.74219,1.31348.52441l4.75586-2.04102,12.46124,5.34125-12.46124,5.34039-12.4621-5.34076,4.00702-1.71979c.50781-.21777.74219-.80566.52441-1.31348-.21875-.50781-.80664-.74121-1.31348-.52441l-6.15039,2.63965c-.35478.15262-.60547.53016-.60547.92609v13.13446c0,.40039.23828.76172.60645.91895,0,0,15,6.42871,15.00061,6.42883.12073.05164.25323.08093.39294.08093s.27228-.0293.39355-.08105l15-6.42871c.36816-.15723.60645-.51855.60645-.91895v-2.57129c0-.55273-.44727-1-1-1s-1,.44727-1,1v1.91211l-13,5.57141v-10.96704l13-5.57117v5.05469c0,.55273.44727,1,1,1ZM10,23.92847l13,5.57117v10.96704l-13-5.57141v-10.9668Z"/>
  <path d="M20.9043,10.85815l-.1748,2.04004c-.03027.34863.125.68848.4082.89355.28418.20703.65332.24805.97754.1123l1.88477-.7959s1.88477.7959,1.88477.7959c.32121.13446.69655.09291.97753-.11231.2832-.20508.43848-.54492.4082-.89355l-.1748-2.04004,1.33984-1.54688c.22949-.26465.30371-.62988.19531-.96289-.1084-.33398-.38281-.58594-.72461-.66504l-1.99316-.46387-1.05664-1.75293c-.36328-.59961-1.34961-.59961-1.71289,0l-1.05664,1.75293-1.99316.46387c-.3418.0791-.61621.33105-.72461.66504-.1084.33301-.03418.69824.19531.96289l1.33984,1.54688ZM22.95117,9.07104c.2627-.06055.49023-.22559.62988-.45703l.41895-.69531.41895.69531c.13965.23145.36719.39648.62988.45703l.79004.18457-.53125.61328c-.17676.2041-.26367.4707-.24023.73926l.06934.80859-.74707-.31543c-.125-.05273-.25684-.0791-.38965-.0791s-.26465.02637-.38965.0791l-.74707.31543.06934-.80859c.02344-.26855-.06348-.53516-.24023-.73926l-.53125-.61328.79004-.18457Z"/>
</svg>