<?xml version="1.0" encoding="UTF-8"?>
<svg id="Outline" xmlns="http://www.w3.org/2000/svg" version="1.1" viewBox="0 0 64 64">
  <!-- Generator: Adobe Illustrator 29.5.1, SVG Export Plug-In . SVG Version: 2.1.0 Build 141)  -->
  <path d="M26,13h2c.552,0,1-.448,1-1s-.448-1-1-1h-1v-2h10v2h-1c-.552,0-1,.448-1,1s.448,1,1,1h2c.552,0,1-.448,1-1v-4c0-.552-.448-1-1-1h-12c-.552,0-1,.448-1,1v4c0,.552.448,1,1,1Z"/>
  <path d="M19.979,15.494c.391-.391.391-1.023,0-1.414l-2.828-2.828c-.391-.391-1.023-.391-1.414,0l-8.485,8.485c-.391.391-.391,1.023,0,1.414l2.828,2.828c.195.195.451.293.707.293s.512-.098.707-.293l8.485-8.485ZM9.373,20.444l7.071-7.071,1.414,1.414-7.071,7.071-1.414-1.414Z"/>
  <path d="M52.506,23.979c.195.195.451.293.707.293s.512-.098.707-.293l2.828-2.828c.391-.391.391-1.023,0-1.414l-8.485-8.485c-.391-.391-1.023-.391-1.414,0l-2.828,2.828c-.391.391-.391,1.023,0,1.414l8.485,8.485ZM47.556,13.373l7.071,7.071-1.414,1.414-7.071-7.071,1.414-1.414Z"/>
  <path d="M26.214,27.632c.183.003.367-.041.525-.139.515-.319,1.062-.592,1.625-.812.514-.201.769-.781.568-1.295-.201-.514-.78-.77-1.295-.568-.675.264-1.331.591-1.95.974-.831.514-.433,1.823.528,1.84Z"/>
  <path d="M21.318,33.171c.512.188,1.095-.085,1.282-.597.382-1.047.934-2.019,1.641-2.887.349-.428.284-1.058-.144-1.407-.428-.348-1.057-.284-1.407.144-.849,1.042-1.511,2.208-1.969,3.465-.189.519.078,1.093.597,1.282Z"/>
  <path d="M24.044,42.063c-.335-.44-.962-.522-1.401-.188-.439.335-.523.962-.188,1.401.813,1.065,1.791,1.982,2.907,2.724.454.302,1.086.173,1.386-.279.306-.46.181-1.081-.279-1.386-.931-.619-1.746-1.383-2.424-2.271Z"/>
  <path d="M32.812,45.967c-1.098.087-2.239-.006-3.312-.282-.533-.137-1.08.186-1.217.72-.137.535.185,1.08.72,1.217.974.25,1.983.377,2.998.377.327,0,.65-.013.971-.039.55-.044.961-.526.917-1.077-.044-.55-.515-.953-1.077-.917Z"/>
  <path d="M22.497,39.125c-.33-1.004-.497-2.056-.497-3.125v-.159c.011-.552-.43-1.007-.999-1.017-.544,0-.99.437-1,.983v.192c-.001,1.281.199,2.543.595,3.749.134.408.522.689.95.689.103,0,.208-.017.312-.05.524-.172.811-.737.638-1.262Z"/>
  <path d="M38.313,25.792c-.618-.382-1.274-.71-1.95-.974-.517-.201-1.095.054-1.295.568-.201.515.054,1.095.568,1.295.563.22,1.109.493,1.624.811.446.276,1.086.146,1.377-.324.291-.47.145-1.086-.324-1.377Z"/>
  <path d="M41.621,28.822c-.331-.442-.957-.533-1.4-.203-.442.331-.533.958-.203,1.4.757,1.013,1.307,2.143,1.636,3.36.121.445.524.739.965.739.648,0,1.135-.636.966-1.262-.395-1.461-1.056-2.818-1.964-4.035Z"/>
  <path d="M51.447,46.105l-8-4c-.31-.154-.678-.138-.973.044-.294.182-.474.504-.474.851v8c0,.347.18.668.474.851.295.182.664.198.973.044l8-4c.339-.169.553-.516.553-.895s-.214-.725-.553-.895ZM44,49.382v-4.764l4.764,2.382-4.764,2.382Z"/>
  <path d="M52.724,38.812c-.027-.158-.08-.31-.18-.44-.171-.224-.429-.365-.71-.389-1.045-.088-1.834-.941-1.834-1.983s.789-1.896,1.834-1.983c.275-.023.529-.16.7-.376s.246-.495.205-.768c-1.523-10.188-10.439-17.872-20.739-17.872s-19.215,7.684-20.739,17.872c-.041.273.033.551.205.768s.425.353.7.376c1.045.088,1.834.941,1.834,1.983s-.789,1.896-1.834,1.983c-.275.023-.529.16-.7.376s-.246.495-.205.768c1.523,10.188,10.439,17.872,20.739,17.872,3.16,0,6.177-.689,8.984-2.031,1.676,1.269,3.756,2.031,6.016,2.031,5.514,0,10-4.486,10-10,0-3.385-1.695-6.377-4.276-8.188ZM43.043,36.238c-.542-.054-1.043.335-1.104.884-.054.489-.154.969-.279,1.438-2.096,1.331-3.66,3.417-4.314,5.875-.416.265-.846.508-1.294.707-.505.224-.732.815-.507,1.32.166.373.531.594.914.594.136,0,.274-.028.406-.087.048-.021.093-.049.141-.071,0,.034-.005.067-.005.101,0,1.028.157,2.021.446,2.955-1.73.68-3.554,1.045-5.446,1.045-8.271,0-15-6.729-15-15s6.729-15,15-15,15,6.729,15,15c0,.342-.011.676-.032,1.002-1.07.003-2.099.179-3.065.495.006-.052.019-.103.024-.155.061-.549-.335-1.043-.884-1.104ZM13.398,32.258c1.756-8.761,9.594-15.258,18.602-15.258s16.846,6.497,18.602,15.258c-.726.266-1.34.737-1.793,1.335-1.175-8.235-8.254-14.593-16.809-14.593s-15.634,6.358-16.809,14.593c-.453-.598-1.067-1.069-1.793-1.335ZM13.398,39.742c.726-.266,1.34-.737,1.793-1.335,1.175,8.235,8.254,14.593,16.809,14.593,2.164,0,4.249-.421,6.227-1.206.334.608.733,1.174,1.181,1.698-2.332.998-4.816,1.509-7.408,1.509-9.008,0-16.846-6.497-18.602-15.258ZM47,55c-3.308,0-6.153-2.018-7.369-4.887-.002-.005-.001-.01-.004-.015-.001-.002-.003-.003-.004-.006-.4-.952-.623-1.996-.623-3.092,0-4.411,3.589-8,8-8,.245,0,.486.015.725.037.005,0,.008.004.012.004.011.001.02-.003.031-.002,4.052.388,7.232,3.809,7.232,7.961,0,4.411-3.589,8-8,8Z"/>
  <path d="M33,33.184v-9.184c0-.552-.448-1-1-1s-1,.448-1,1v9.184c-1.161.414-2,1.514-2,2.816,0,1.654,1.346,3,3,3s3-1.346,3-3c0-1.302-.839-2.402-2-2.816ZM32,37c-.551,0-1-.449-1-1s.449-1,1-1,1,.449,1,1-.449,1-1,1Z"/>
  <circle cx="32" cy="12" r="1"/>
</svg>