<?xml version="1.0" encoding="UTF-8"?>
<svg id="Outline" xmlns="http://www.w3.org/2000/svg" version="1.1" viewBox="0 0 64 64">
  <!-- Generator: Adobe Illustrator 29.5.1, SVG Export Plug-In . SVG Version: 2.1.0 Build 141)  -->
  <path d="M51.441,32l3.876-4.961c.615-.787.798-1.824.489-2.773-.309-.95-1.066-1.682-2.026-1.958l-6.052-1.735.22-6.292c.035-.998-.427-1.944-1.235-2.531-.808-.587-1.85-.735-2.79-.392l-5.916,2.153-3.521-5.22c-.559-.828-1.488-1.322-2.487-1.322s-1.929.494-2.487,1.322l-3.521,5.22-5.917-2.154c-.938-.342-1.981-.196-2.79.393-.808.587-1.27,1.533-1.235,2.532l.22,6.292-6.052,1.735c-.96.276-1.717,1.007-2.026,1.958-.309.95-.125,1.987.489,2.773l3.876,4.961-3.876,4.961c-.615.787-.798,1.824-.489,2.773.309.95,1.066,1.682,2.026,1.958l5.601,1.606-6.697,12.221c-.204.372-.151.831.131,1.147.283.316.734.42,1.125.259l15.631-6.408,3.502,5.193c.559.828,1.488,1.322,2.487,1.322s1.929-.494,2.487-1.322l3.521-5.22,5.917,2.154c.937.34,1.981.194,2.79-.393.808-.587,1.27-1.533,1.235-2.532l-.22-6.292,6.052-1.735c.96-.276,1.717-1.007,2.026-1.958.309-.95.125-1.987-.489-2.773l-3.876-4.961ZM53.905,39.117c-.104.321-.351.56-.675.652l-6.803,1.951c-.441.126-.74.538-.724.996l.247,7.073c.012.338-.138.646-.412.844-.273.198-.612.245-.93.131l-6.65-2.421c-.432-.158-.915,0-1.171.38l-3.958,5.868c-.378.56-1.28.56-1.658,0l-3.958-5.868c-.19-.283-.505-.441-.83-.441-.127,0-.255.024-.379.075l-13.771,5.646,5.94-10.841c.146-.267.163-.585.046-.865-.117-.281-.355-.493-.647-.577l-6.803-1.951c-.325-.093-.571-.331-.675-.652-.104-.321-.045-.658.163-.924l4.357-5.577c.283-.362.283-.87,0-1.231l-4.357-5.577c-.208-.266-.268-.603-.163-.924.104-.321.351-.56.675-.652l6.803-1.951c.441-.126.74-.538.724-.996l-.247-7.073c-.012-.338.138-.646.412-.844.273-.198.613-.246.93-.131l6.65,2.421c.432.156.914,0,1.171-.38l3.958-5.868c.378-.56,1.28-.56,1.658,0l3.958,5.868c.256.38.74.538,1.171.38l6.65-2.42c.319-.116.657-.068.93.13.273.199.423.506.412.844l-.247,7.073c-.016.458.283.87.724.996l6.803,1.951c.325.093.571.331.675.652.104.321.045.658-.163.924l-4.357,5.577c-.283.362-.283.87,0,1.231l4.357,5.577c.208.266.268.603.163.924Z"/>
  <path d="M32,17c-8.271,0-15,6.729-15,15s6.729,15,15,15,15-6.729,15-15-6.729-15-15-15ZM32,45c-7.168,0-13-5.832-13-13s5.832-13,13-13,13,5.832,13,13-5.832,13-13,13Z"/>
  <path d="M32.847,22.469c-.366-.583-1.328-.583-1.694,0l-3.136,4.999-5.724,1.438c-.334.083-.601.333-.708.661-.106.328-.037.687.184.951l3.786,4.527-.401,5.888c-.023.343.131.675.41.877.279.202.642.247.961.119l5.476-2.201,5.476,2.201c.121.048.247.072.373.072.574,0,1.037-.495.998-1.068l-.401-5.888,3.786-4.527c.221-.264.291-.623.184-.951-.106-.327-.374-.577-.708-.661l-5.724-1.438-3.136-4.999ZM36.653,34.069c-.166.198-.248.452-.23.709l.32,4.699-4.37-1.756c-.12-.048-.247-.072-.373-.072s-.253.024-.373.072l-4.37,1.756.32-4.699c.018-.257-.065-.511-.23-.709l-3.021-3.612,4.567-1.147c.25-.062.466-.22.604-.438l2.502-3.989,2.502,3.989c.137.219.354.376.604.438l4.567,1.147-3.021,3.612Z"/>
</svg>