<?xml version="1.0" encoding="UTF-8"?>
<svg id="Outline" xmlns="http://www.w3.org/2000/svg" version="1.1" viewBox="0 0 64 64">
  <!-- Generator: Adobe Illustrator 29.5.1, SVG Export Plug-In . SVG Version: 2.1.0 Build 141)  -->
  <path d="M32,7c-13.785,0-25,11.215-25,25,0,5.9,2.102,11.631,5.917,16.137.355.42.985.475,1.409.117.421-.357.474-.988.116-1.41-1.962-2.317-3.41-4.992-4.324-7.844h2.107c2.113,5.95,6.825,10.662,12.775,12.775v2.107c-2.851-.914-5.527-2.363-7.844-4.325-.424-.357-1.054-.304-1.409.117-.357.421-.305,1.052.116,1.409,4.507,3.815,10.237,5.917,16.137,5.917,13.785,0,25-11.215,25-25S45.785,7,32,7ZM53.907,25h-2.115c-.804-2.271-1.995-4.403-3.538-6.284-.351-.426-.98-.491-1.407-.139-.428.351-.489.98-.14,1.408,1.351,1.647,2.401,3.509,3.126,5.49l-11.838-1.431-5.088-10.965c-.007-.016-.02-.027-.028-.042,4.104.184,7.94,1.635,11.137,4.256.428.352,1.058.287,1.407-.139.35-.427.288-1.057-.14-1.407-1.881-1.543-4.013-2.734-6.284-3.539v-2.116c7.061,2.261,12.646,7.846,14.907,14.907ZM55,32c0,1.717-.195,3.389-.554,5h-2.073c.394-1.606.627-3.274.627-5,0-1.695-.219-3.372-.62-5h2.066c.359,1.611.554,3.283.554,5ZM32,51c-3.694,0-7.134-1.077-10.055-2.908l10.055-5.598,10.055,5.598c-2.92,1.831-6.36,2.908-10.055,2.908ZM24.069,34.36l-7.685-7.139,10.413-1.259c.344-.042.642-.258.787-.572l4.415-9.515,4.415,9.515c.146.314.443.53.787.572l10.413,1.259-7.685,7.139c-.254.235-.367.585-.301.925l2.021,10.293-9.164-5.103c-.151-.084-.318-.126-.486-.126s-.335.042-.486.126l-9.164,5.103,2.021-10.293c.066-.339-.047-.689-.301-.925ZM31.115,13.045c-.006.012-.016.022-.022.034l-5.088,10.965-11.825,1.429c2.573-7.001,9.141-12.067,16.936-12.428ZM43.923,46.772l-2.223-11.326,8.712-8.094c.383,1.512.588,3.072.588,4.648,0,5.963-2.766,11.286-7.077,14.772ZM37,9.554v2.066c-1.628-.401-3.305-.62-5-.62-1.726,0-3.394.232-5,.627v-2.073c1.611-.359,3.283-.554,5-.554s3.389.195,5,.554ZM25,10.093v2.133c-5.949,2.113-10.662,6.825-12.775,12.775h-2.132c2.261-7.061,7.846-12.646,14.907-14.907ZM9.575,37c-.365-1.634-.575-3.307-.575-5,0-1.717.195-3.389.554-5h2.073c-.394,1.606-.627,3.274-.627,5s.232,3.394.627,5h-2.052ZM13,32c0-1.603.221-3.151.597-4.639l8.703,8.085-2.223,11.326c-4.311-3.486-7.077-8.81-7.077-14.772ZM27,54.425v-2.051c1.606.394,3.274.627,5,.627s3.394-.232,5-.627v2.073c-1.611.359-3.283.554-5,.554-1.693,0-3.366-.21-5-.575ZM39,53.907v-2.133c5.949-2.113,10.662-6.825,12.775-12.775h2.132c-2.261,7.061-7.846,12.646-14.907,14.907Z"/>
</svg>