<?xml version="1.0" encoding="UTF-8"?>
<svg id="Outline" xmlns="http://www.w3.org/2000/svg" version="1.1" viewBox="0 0 64 64">
  <!-- Generator: Adobe Illustrator 29.5.1, SVG Export Plug-In . SVG Version: 2.1.0 Build 141)  -->
  <path d="M41.146,21.787c.244-.266.326-.642.215-.985s-.399-.6-.752-.671l-3.35-.68c-.539-.112-1.069.24-1.179.781-.11.541.24,1.069.781,1.179l1.613.328-2.671,2.905c-.197.214-.291.503-.257.792l.455,3.917-3.586-1.641c-.264-.121-.568-.121-.832,0l-3.586,1.641.455-3.917c.034-.289-.06-.578-.257-.792l-2.669-2.903,3.87-.779c.286-.058.532-.237.674-.49l1.929-3.432.898,1.593c.27.48.88.651,1.362.38.481-.271.651-.881.38-1.362l-1.77-3.14c-.177-.314-.51-.509-.872-.509s-.694.195-.871.51l-2.575,4.581-5.161,1.039c-.354.071-.642.328-.754.671-.111.343-.029.72.215.986l3.56,3.873-.607,5.226c-.042.358.113.712.405.924.292.212.677.251,1.004.101l4.784-2.189,4.784,2.189c.133.061.274.091.416.091.59,0,1.062-.525.993-1.115l-.607-5.226,3.56-3.873Z"/>
  <path d="M56.951,26.039c-.112-.343-.4-.6-.754-.671l-4.457-.896-2.229-3.961c-.354-.63-1.389-.63-1.743,0l-2.229,3.961-4.457.896c-.354.071-.642.328-.754.671-.111.344-.029.721.215.986l3.079,3.344-.525,4.515c-.042.359.113.712.405.925.293.212.676.251,1.005.1l4.132-1.895,4.132,1.895c.665.305,1.503-.232,1.41-1.025l-.525-4.515,3.079-3.344c.245-.266.327-.643.215-.986ZM51.875,29.352c-.197.214-.291.503-.257.793l.373,3.205-2.933-1.345c-.132-.061-.275-.091-.417-.091s-.285.03-.417.091l-2.933,1.345.373-3.205c.034-.29-.06-.579-.257-.793l-2.186-2.375,3.164-.636c.285-.058.531-.236.674-.49l1.583-2.812,1.583,2.812c.143.254.389.433.674.49l3.164.636-2.186,2.375Z"/>
  <path d="M22.918,25.367l-4.457-.896-2.229-3.961c-.354-.63-1.389-.63-1.743,0l-2.229,3.961-4.457.896c-.354.071-.642.328-.754.671-.111.344-.029.721.215.986l3.079,3.344-.525,4.515c-.042.359.113.712.405.925.292.212.677.251,1.005.1l4.132-1.895,4.132,1.895c.133.061.275.091.417.091.59,0,1.062-.525.993-1.116l-.525-4.515,3.079-3.344c.245-.266.327-.643.215-.986-.112-.343-.4-.6-.754-.671ZM18.595,29.352c-.197.214-.291.503-.257.793l.373,3.205-2.933-1.345c-.132-.061-.275-.091-.417-.091s-.285.03-.417.091l-2.933,1.345.373-3.205c.034-.29-.06-.579-.257-.793l-2.186-2.375,3.164-.636c.285-.058.531-.236.674-.49l1.583-2.812,1.583,2.812c.143.254.389.433.674.49l3.164.636-2.186,2.375Z"/>
  <path d="M53.384,42.834c-.27-.483-.878-.657-1.36-.388-.483.269-.657.877-.388,1.36l.664,1.194h-1.3c-.552,0-1,.448-1,1v2h-2v-2c0-.552-.448-1-1-1h-1.3l3.3-5.939.696,1.254c.268.483.877.656,1.359.39.483-.268.658-.876.39-1.359l-1.57-2.83c-.176-.318-.511-.515-.874-.515h0c-.363,0-.698.197-.874.514l-5,9c-.172.31-.167.688.012.993.18.305.507.493.862.493h2v2c0,.552.448,1,1,1h4c.552,0,1-.448,1-1v-2h2c.354,0,.682-.188.862-.493.18-.305.185-.683.012-.993l-1.49-2.68Z"/>
  <path d="M15.874,36.514c-.353-.635-1.396-.635-1.748,0l-5,9c-.172.31-.167.688.012.993.18.305.507.493.862.493h2v2c0,.552.448,1,1,1h4c.552,0,1-.448,1-1v-2h2c.354,0,.682-.188.862-.493.18-.306.185-.683.012-.993l-5-9ZM17,45c-.552,0-1,.448-1,1v2h-2v-2c0-.552-.448-1-1-1h-1.3l3.3-5.941,3.3,5.941h-1.3Z"/>
  <path d="M32.874,32.514c-.353-.635-1.396-.635-1.748,0l-5,9c-.172.31-.167.688.012.993.18.305.507.493.862.493h2v2c0,.552.448,1,1,1h4c.552,0,1-.448,1-1v-2h2c.354,0,.682-.188.862-.493.18-.306.185-.683.012-.993l-5-9ZM34,41c-.552,0-1,.448-1,1v2h-2v-2c0-.552-.448-1-1-1h-1.3l3.3-5.941,3.3,5.941h-1.3Z"/>
</svg>