<?xml version="1.0" encoding="UTF-8"?>
<svg id="Outline" xmlns="http://www.w3.org/2000/svg" version="1.1" viewBox="0 0 48 48">
  <!-- Generator: Adobe Illustrator 29.5.1, SVG Export Plug-In . SVG Version: 2.1.0 Build 141)  -->
  <path d="M29.157,23.747c-.1-.308-.343-.548-.651-.646l-2.295-.723-1.396-1.959c-.375-.527-1.254-.527-1.629,0l-1.396,1.959-2.295.723c-.309.098-.552.338-.651.646-.1.307-.045.644.147.903l1.433,1.935-.022,2.406c-.003.323.15.628.412.817.261.19.599.244.905.14l2.282-.765,2.282.765c.104.035.211.052.317.052.55,0,1.005-.456,1-1.009l-.022-2.406,1.433-1.935c.192-.26.247-.597.147-.903ZM25.771,25.664c-.129.174-.198.387-.196.604l.013,1.338-1.27-.425c-.103-.034-.21-.052-.317-.052s-.215.018-.317.052l-1.27.425.013-1.338c.002-.217-.067-.43-.196-.604l-.797-1.076,1.276-.401c.208-.065.389-.196.515-.374l.776-1.089.776,1.089c.126.178.307.309.515.374l1.276.401-.797,1.076Z"/>
  <path d="M14.506,31.101l-2.295-.723-1.396-1.959c-.375-.527-1.254-.527-1.629,0l-1.396,1.959-2.295.723c-.309.098-.552.338-.651.646-.1.307-.045.644.147.903l1.433,1.935-.022,2.406c-.003.323.15.628.412.817.261.189.599.244.905.14l2.282-.765,2.282.765c.103.035.211.052.317.052.514,0,1.005-.434,1-1.009l-.022-2.406,1.433-1.935c.192-.26.247-.597.147-.903-.1-.308-.343-.548-.651-.646ZM11.771,33.664c-.129.174-.198.387-.196.604l.013,1.338-1.27-.425c-.103-.034-.21-.052-.317-.052s-.215.018-.317.052l-1.27.425.013-1.338c.002-.217-.067-.43-.196-.604l-.797-1.076,1.276-.401c.208-.065.389-.196.515-.374l.776-1.089.776,1.089c.126.178.307.309.515.374l1.276.401-.797,1.076Z"/>
  <path d="M43.157,31.747c-.1-.308-.343-.548-.651-.646l-2.295-.723-1.396-1.959c-.375-.527-1.254-.527-1.629,0l-1.396,1.959-2.295.723c-.309.098-.552.338-.651.646-.1.307-.045.644.147.903l1.433,1.935-.022,2.406c-.003.323.15.628.412.817.262.189.598.244.905.14l2.282-.765,2.282.765c.103.035.211.052.317.052.516,0,1.005-.437,1-1.009l-.022-2.406,1.433-1.935c.192-.26.247-.597.147-.903ZM39.771,33.664c-.129.174-.198.387-.196.604l.013,1.338-1.27-.425c-.103-.034-.21-.052-.317-.052s-.215.018-.317.052l-1.27.425.013-1.338c.002-.217-.067-.43-.196-.604l-.797-1.076,1.276-.401c.208-.065.389-.196.515-.374l.776-1.089.776,1.089c.126.178.307.309.515.374l1.276.401-.797,1.076Z"/>
  <path d="M24,16c-4.963,0-9,4.037-9,9s4.037,9,9,9,9-4.037,9-9-4.037-9-9-9ZM24,32c-3.859,0-7-3.141-7-7s3.141-7,7-7,7,3.141,7,7-3.141,7-7,7Z"/>
  <path d="M24,14c.553,0,1-.447,1-1v-2c0-.553-.447-1-1-1s-1,.447-1,1v2c0,.553.447,1,1,1Z"/>
  <path d="M14.808,17.221c.388.388,1.027.387,1.414,0,.391-.391.391-1.023,0-1.414l-1.414-1.414c-.391-.391-1.023-.391-1.414,0s-.391,1.023,0,1.414l1.414,1.414Z"/>
  <path d="M32.485,17.513c.256,0,.513-.097.707-.291l1.414-1.414c.391-.391.391-1.023,0-1.414s-1.023-.391-1.414,0l-1.414,1.414c-.603.603-.144,1.705.707,1.705Z"/>
</svg>