<?xml version="1.0" encoding="UTF-8"?>
<svg id="Outline" xmlns="http://www.w3.org/2000/svg" version="1.1" viewBox="0 0 64 64">
  <!-- Generator: Adobe Illustrator 29.5.1, SVG Export Plug-In . SVG Version: 2.1.0 Build 141)  -->
  <path d="M48.49,40.809l-4.245-3.891c-2.38-2.182-3.745-5.285-3.745-8.514,0-2.658.927-5.256,2.611-7.313l4.021-4.916c1.562-1.907,1.691-4.566.324-6.617-1.502-2.251-4.392-3.1-6.867-2.014l-1.922.841C22.164,15.606,11.5,31.912,11.5,49.925c0,3.859,3.141,7,7,7h27c3.859,0,7-3.141,7-7,0-3.457-1.462-6.779-4.01-9.116ZM45.5,54.925h-27c-2.757,0-5-2.243-5-5,0-17.22,10.193-32.806,25.969-39.708l1.922-.841c.465-.203.951-.3,1.432-.3,1.164,0,2.29.57,2.971,1.591.876,1.314.793,3.019-.208,4.241l-4.021,4.916c-1.976,2.414-3.063,5.461-3.063,8.58,0,3.788,1.602,7.429,4.394,9.988l4.245,3.891c2.136,1.958,3.361,4.743,3.361,7.642,0,2.757-2.243,5-5,5Z"/>
  <path d="M41.542,39.867c-3.204-2.938-5.042-7.115-5.042-11.462,0-3.579,1.248-7.075,3.516-9.847l4.021-4.916c.44-.536.478-1.286.093-1.864-.413-.622-1.274-.866-1.937-.568l-1.922.841c-15.048,6.583-24.771,21.45-24.771,37.875,0,1.654,1.346,3,3,3h27c1.654,0,3-1.346,3-3,0-2.339-.988-4.587-2.712-6.167l-4.246-3.892ZM45.5,50.925h-27c-.552,0-1-.448-1-1,0-15.631,9.253-29.778,23.572-36.043l.287-.125-2.893,3.535c-2.558,3.127-3.967,7.073-3.967,11.112,0,4.906,2.074,9.621,5.69,12.937l4.246,3.892c1.312,1.202,2.063,2.913,2.063,4.692,0,.552-.448,1-1,1Z"/>
  <path d="M21.637,43.648c-.391-.391-1.023-.391-1.414,0s-.391,1.023,0,1.414l3.57,3.57c.195.195.451.293.707.293.872,0,1.322-1.092.707-1.707l-3.57-3.57Z"/>
  <path d="M22.747,38.758c-.391-.391-1.023-.391-1.414,0s-.391,1.023,0,1.414l8.46,8.46c.367.367,1.028.387,1.414,0,.391-.391.391-1.023,0-1.414l-8.46-8.46Z"/>
  <path d="M24.367,34.378c-.391-.391-1.023-.391-1.414,0-.391.391-.391,1.023,0,1.414,0,0,12.84,12.84,12.84,12.84.387.387,1.028.386,1.414,0,.391-.391.391-1.023,0-1.414l-12.84-12.84Z"/>
  <path d="M26.437,30.449c-.391-.391-1.023-.391-1.414,0s-.391,1.023,0,1.414l16.769,16.769c.369.369,1.025.39,1.414,0,.391-.391.391-1.023,0-1.414l-16.77-16.77Z"/>
</svg>