<?xml version="1.0" encoding="UTF-8"?>
<svg id="Outline" xmlns="http://www.w3.org/2000/svg" version="1.1" viewBox="0 0 64 64">
  <!-- Generator: Adobe Illustrator 29.5.1, SVG Export Plug-In . SVG Version: 2.1.0 Build 141)  -->
  <path d="M42.293,31.707c.369.369,1.024.391,1.414,0,.391-.391.391-1.023,0-1.414l-8-8c-.391-.391-1.023-.391-1.414,0s-.391,1.023,0,1.414c0,0,7.971,7.971,8,8Z"/>
  <path d="M28.707,22.293c-.391-.391-1.023-.391-1.414,0s-.391,1.023,0,1.414l8,8c.195.195.451.293.706.293.867,0,1.322-1.092.708-1.707l-8-8Z"/>
  <path d="M21.707,22.293c-.391-.391-1.023-.391-1.414,0s-.391,1.023,0,1.414l8,8c.195.195.451.293.707.293.872,0,1.326-1.088.707-1.707l-8-8Z"/>
  <path d="M52,11H12c-.55,0-1,.45-1,1v30c0,.55.45,1,1,1h40c.55,0,1-.45,1-1V12c0-.55-.45-1-1-1ZM13,19h6.36c-1.46,1.16-2.62,2.51-3.37,4h-2.99v-4ZM32,17c1.62,0,2.99,1.54,4.32,3.04,1,1.12,2.03,2.27,3.24,2.86,1.42.68,2.78,1.06,3.98,1.39,2.57.71,3.46,1.04,3.46,2.71,0,7.166-9.263,10-15,10-8.27,0-15-4.49-15-10s6.73-10,15-10ZM13,25h2.26c-.16.65-.26,1.32-.26,2s.1,1.35.26,2h-2.26v-4ZM13,31h2.99c.75,1.49,1.91,2.84,3.37,4h-6.36v-4ZM51,41H13v-4h9.62c2.69,1.26,5.92,2,9.38,2s6.69-.74,9.38-2h9.62v4ZM51,35h-6.36c1.46-1.16,2.62-2.51,3.37-4h2.99v4ZM51,29h-2.26c.16-.65.26-1.32.26-2,0-.81-.16-1.47-.42-2h2.42v4ZM51,23h-4.91c-.64-.25-1.33-.45-2.02-.64-1.12-.31-2.38-.65-3.63-1.26-.77-.37-1.55-1.2-2.36-2.1h12.92v4ZM51,17h-14.8c-1.17-1.11-2.51-2-4.2-2-3.46,0-6.69.74-9.38,2h-9.62v-4h38v4Z"/>
  <path d="M54,7h-31c-.552,0-1,.448-1,1s.448,1,1,1h31c.551,0,1,.449,1,1v34c0,.551-.449,1-1,1H10c-.551,0-1-.449-1-1V10c0-.551.449-1,1-1h5c.552,0,1-.448,1-1s-.448-1-1-1h-5c-1.654,0-3,1.346-3,3v34c0,1.654,1.346,3,3,3h16v7c0,1.654,1.346,3,3,3h6c1.654,0,3-1.346,3-3v-7h16c1.654,0,3-1.346,3-3V10c0-1.654-1.346-3-3-3ZM36,54c0,.551-.449,1-1,1h-6c-.551,0-1-.449-1-1v-7h8v7Z"/>
  <circle cx="19" cy="8" r="1"/>
</svg>