<?xml version="1.0" encoding="UTF-8"?>
<svg id="Outline" xmlns="http://www.w3.org/2000/svg" version="1.1" viewBox="0 0 48 48">
  <!-- Generator: Adobe Illustrator 29.0.0, SVG Export Plug-In . SVG Version: 2.1.0 Build 186)  -->
  <path d="M38.84082,12.14551c-.34375-.43164-.97266-.50293-1.40527-.15723-.43164.34473-.50195.97363-.15723,1.40527,2.43457,3.04883,3.72168,6.71582,3.72168,10.60645,0,9.37402-7.62598,17-17,17S7,33.37402,7,24,14.62598,7,24,7c3.89062,0,7.55762,1.28711,10.60645,3.72168.43262.3457,1.06152.27344,1.40527-.15723.34473-.43164.27441-1.06055-.15723-1.40527-3.40625-2.7207-7.50586-4.15918-11.85449-4.15918C13.52344,5,5,13.52344,5,24s8.52344,19,19,19,19-8.52344,19-19c0-4.34863-1.43848-8.44824-4.15918-11.85449Z"/>
  <path d="M13.25,25c-.55273,0-1,.44727-1,1v3.41992c0,4.73145,3.84863,8.58008,8.58008,8.58008,2.25751,0,4.30823-.88104,5.8429-2.30859,5.41895-1.23633,9.32703-6.10266,9.32703-11.69141,0-3.28864-1.36383-6.44391-3.73761-8.68823-.4588-.77649-1.00836-1.50488-1.66376-2.15649-2.02246-2.03418-4.7207-3.15527-7.59863-3.15527-5.92773,0-10.75,4.82227-10.75,10.75v1.25c0,.55273.44727,1,1,1s1-.44727,1-1v-1.25c0-4.8252,3.9248-8.75,8.75-8.75,2.34082,0,4.53613.91113,6.18457,2.56934,1.6543,1.64453,2.56543,3.83984,2.56543,6.18066v.83008c0,1.0957-.63379,2.11719-1.62207,2.6084-1.6709.84766-2.70801,2.53418-2.70801,4.40137v.83008c0,3.62793-2.95605,6.58008-6.58984,6.58008-3.62793,0-6.58008-2.95215-6.58008-6.58008v-3.41992c0-.55273-.44727-1-1-1ZM29.41992,29.41992v-.83008c0-1.11035.61816-2.11328,1.60449-2.61426,1.60205-.79443,2.64557-2.43646,2.71271-4.21606.16809.7298.26288,1.4798.26288,2.24048,0,3.74567-2.1087,7.10022-5.28131,8.80865.44965-1.04041.70123-2.18536.70123-3.38873Z"/>
  <path d="M18.49687,28.08847c.06094-.06091-.75572-.70297-.85414-.74337-.38592-.1584-.79069-.11121-1.09977.19787-.39062.39062-.39062,1.02344,0,1.41406l.54297.54297-.35254.35254c-.39062.39062-.39062,1.02344.00002,1.41408.38693.38691,1.02714.38689,1.41404-.00002l.35254-.35254,2.64257,2.64257c.37129.37129,1.02326.39081,1.41407,0,.39062-.39062.39062-1.02344,0-1.41406l-2.64258-2.64258,1.58594-1.58594s2.21289,2.21289,2.21291,2.21291c.38727.38726,1.02809.38594,1.41404-.00002.39062-.39062.39062-1.02344,0-1.41406l-2.21289-2.21289,1.58594-1.58594.32324.32324c.3757.3757,1.02429.38977,1.41406,0,.39062-.39062.39062-1.02344,0-1.41406l-.32324-.32324,1.58594-1.58594.43262.43262c.37412.37412,1.02583.38823,1.41406,0,.39062-.39062.39062-1.02344,0-1.41406l-.43262-.43262.38281-.38281c.39062-.39062.39062-1.02344,0-1.41406-.39062-.39062-1.02344-.39062-1.41406,0l-.38281.38281-1.58594-1.58594.88281-.88281c.39062-.39062.39062-1.02344,0-1.41406-.39062-.39062-1.02344-.39062-1.41406,0l-.88281.88281-1.79297-1.79297c-.39062-.39062-1.02344-.39062-1.41406,0s-.39062,1.02344,0,1.41406l1.79297,1.79297-1.58594,1.58594-2.42285-2.42285c-.39062-.39062-1.02344-.39062-1.41406,0s-.39062,1.02344,0,1.41406l2.42285,2.42285-1.58594,1.58594-.54297-.54297c-.39062-.39062-1.02344-.39062-1.41406,0s-.39062,1.02344,0,1.41406l.54297.54297-.54297.54297c-.39062.39062-.39062,1.02344,0,1.41407.38821.38821.91854.35694,1.34678.05331.23244-.1648.42052-.38334.60609-.59956.5301.52973,1.06019,1.05945,1.59029,1.58918-.52881.52856-1.05762,1.05711-1.58926,1.5885ZM24.5,18.91406l1.58594,1.58594-1.58594,1.58594-1.58594-1.58594,1.58594-1.58594ZM19.91406,23.5l1.58594-1.58594,1.58594,1.58594-1.58594,1.58594-1.58594-1.58594Z"/>
</svg>