<?xml version="1.0" encoding="UTF-8"?>
<svg id="Outline" xmlns="http://www.w3.org/2000/svg" version="1.1" viewBox="0 0 64 64">
  <!-- Generator: Adobe Illustrator 29.3.1, SVG Export Plug-In . SVG Version: 2.1.0 Build 151)  -->
  <path d="M56.98999,31.98999c0-1.42999-.19-2.84003-.58002-4.09998-1.33997-4.35004-5.23999-8.19-10.97998-10.82001-8.37-3.83002-18.32001-4.12-25.96002-.75-7.75,3.40997-12.16998,8.31-12.45996,13.81v.54999c0,.01001-.01001.01001-.01001.02002v5c0,2.14996.62,4.37,1.78003,6.42999,2.81,5.02997,8.12994,7.88,13.68994,7.88,2.44,0,4.92004-.55005,7.27002-1.69,1.70001-.83002,3.42999-1.56,5.34003-2.25,3.84998-1.39001,5.78998-2.09003,8.45996-1.92004,2.28003.14001,3.83002.82001,5.08002,1.36005,1.40002.60999,2.72003,1.19,4.25.54999,2.84003-1.16998,4.13-5.51001,4.13-9.04004v-5.00995c0-.01001-.01001-.01001-.01001-.02002ZM52.10999,44.21997c-.71997.29004-1.38.03003-2.69-.53998-1.32001-.58002-3.13-1.37-5.76001-1.53003-3.06995-.19-5.26996.60004-9.29999,2.05005-1.94.70996-3.72998,1.46997-5.5,2.31995-6.75,3.30005-14.81.94-18.33997-5.37-.58002-1.03998-.98004-2.10999-1.23004-3.17999,2.92004,4.5,7.94,7.04004,13.19,7.04004,2.44,0,4.92004-.55005,7.26001-1.69,1.72998-.84003,3.51001-1.59003,5.29999-2.24005,3.88-1.38995,5.84003-2.08997,8.49005-1.92999,2.27997.14001,3.83997.82001,5.08997,1.36005,1.40002.60999,2.72003,1.19,4.26001.56.71002-.30005,1.33002-.80005,1.85999-1.42999-.45001,2.25995-1.45001,4.07996-2.63,4.57996ZM55,32.01001v.54999c-.12,3.17999-1.34998,6.01996-2.89001,6.65997-.71997.29004-1.38.03003-2.69-.53998-1.32001-.58002-3.13-1.37-5.76001-1.53003-3.07996-.19-5.28998.61005-9.29999,2.05005-1.85999.66998-3.70996,1.44995-5.48999,2.31995-6.76001,3.30005-14.82001.94-18.34998-5.37-1.09003-1.94-1.61005-3.98999-1.51001-5.91998.23999-4.70001,4.23999-8.98999,11.27002-12.08997,3.22998-1.42004,7.00995-2.13,10.88995-2.13,4.54999,0,9.25.96997,13.42999,2.88,5.14001,2.34998,8.75,5.84998,9.90002,9.58997.34998,1.14001.51001,2.34003.51001,3.5,0,.01001-.01001.02002-.01001.03003Z"/>
  <path d="M21,39c4.41113,0,8-3.58887,8-8s-3.58887-8-8-8-8,3.58887-8,8,3.58887,8,8,8ZM21,25c3.30859,0,6,2.69141,6,6s-2.69141,6-6,6-6-2.69141-6-6,2.69141-6,6-6Z"/>
  <path d="M46.40039,33.7998c.17969.13477.38965.2002.59863.2002.30469,0,.60449-.1377.80078-.40039l3-4c.33203-.44141.24219-1.06836-.2002-1.39941-.44141-.33105-1.06836-.24219-1.39941.2002l-3,4c-.33203.44141-.24219,1.06836.2002,1.39941Z"/>
  <path d="M40.40039,35.13281c.17969.13477.38965.2002.59863.2002.30469,0,.60449-.1377.80078-.40039l7-9.33301c.33203-.44141.24219-1.06836-.2002-1.39941-.44141-.33105-1.06738-.24316-1.39941.2002l-7,9.33301c-.33203.44141-.24219,1.06836.2002,1.39941Z"/>
  <path d="M34.74902,37c.30469,0,.60449-.1377.80078-.40039l10.25-13.66699c.33203-.44141.24219-1.06836-.2002-1.39941-.44141-.33105-1.06836-.24316-1.39941.2002l-10.25,13.66699c-.33203.44141-.24219,1.06836.2002,1.39941.17969.13477.38965.2002.59863.2002Z"/>
</svg>