<?xml version="1.0" encoding="UTF-8"?>
<svg id="Outline" xmlns="http://www.w3.org/2000/svg" version="1.1" viewBox="0 0 64 64">
  <!-- Generator: Adobe Illustrator 29.5.1, SVG Export Plug-In . SVG Version: 2.1.0 Build 141)  -->
  <path d="M50.76,15.499c-.364-.414-.998-.452-1.411-.088-.414.365-.454.997-.089,1.412,3.701,4.197,5.74,9.587,5.74,15.178,0,12.682-10.317,23-23,23s-23-10.318-23-23,10.317-23,23-23c5.263,0,10.412,1.831,14.499,5.156.43.349,1.06.283,1.406-.145.349-.428.284-1.058-.145-1.407-4.442-3.614-10.039-5.604-15.761-5.604-13.785,0-25,11.215-25,25s11.215,25,25,25,25-11.215,25-25c0-6.078-2.216-11.938-6.24-16.501Z"/>
  <path d="M43.47,19.47c-1.51-4.9-6.08-8.47-11.47-8.47s-9.96,3.57-11.47,8.47c-3.51,3.21-5.53,7.75-5.53,12.53,0,7.49,4.94,14.11,12.07,16.26,1.52,2.82,4.51,4.74,7.93,4.74,4.96,0,8.99-4.03,9-8.98,3.22-3.2,5-7.45,5-12.02,0-4.78-2.02-9.32-5.53-12.53ZM17,32c0-3.27,1.07-6.42,3-8.99v4.38c0,1.61.28,3.18.83,4.67.56,1.51,1.38,2.88,2.41,4.09,1.78,2.07,2.76,4.72,2.76,7.46v.39c0,.62.06,1.23.18,1.82-5.48-2.31-9.18-7.74-9.18-13.82ZM43,29c-.55,0-1,.45-1,1v14c0,3.86-3.14,7-7,7s-7-3.14-7-7v-.39c0-3.22-1.15-6.33-3.24-8.76-.88-1.03-1.57-2.2-2.05-3.49-.47-1.26-.71-2.6-.71-3.97v-4.39c0-5.51,4.49-10,10-10s10,4.49,10,10v3c0,.55.45,1,1,1s1-.45,1-1v-2.99c1.93,2.57,3,5.72,3,8.99,0,3.3-1.06,6.41-3,8.98v-10.98c0-.55-.45-1-1-1Z"/>
  <path d="M32,23c2.206,0,4-1.794,4-4s-1.794-4-4-4-4,1.794-4,4,1.794,4,4,4ZM32,17c1.103,0,2,.897,2,2s-.897,2-2,2-2-.897-2-2,.897-2,2-2Z"/>
  <path d="M37.917,24.003l-12,1c-.551.046-.959.529-.913,1.08.043.522.48.917.995.917.027,0,.056,0,.084-.003l12-1c.551-.046.959-.529.913-1.08-.045-.549-.516-.962-1.079-.914Z"/>
  <path d="M37.917,28.003l-12,1c-.551.046-.959.529-.913,1.08.043.522.48.917.995.917.027,0,.056,0,.084-.003l12-1c.551-.046.959-.529.913-1.08-.045-.55-.516-.965-1.079-.914Z"/>
  <path d="M37.908,32.004l-10,.922c-.55.05-.955.538-.904,1.087.048.519.484.908.995.908.03,0,.062-.001.093-.004l10-.922c.55-.05.955-.538.904-1.087s-.531-.956-1.088-.904Z"/>
  <path d="M37.884,36.085l-7,.819c-.549.064-.941.561-.877,1.109.06.509.491.884.992.884.038,0,.078-.002.117-.007l7-.819c.549-.064.941-.561.877-1.109-.064-.548-.557-.945-1.109-.877Z"/>
  <path d="M37.884,40.188l-7,.819c-.549.064-.941.561-.877,1.109.06.509.491.884.992.884.038,0,.078-.002.117-.007l7-.819c.549-.064.941-.561.877-1.109-.064-.548-.557-.943-1.109-.877Z"/>
  <path d="M37.884,44.007l-7,.819c-.549.064-.941.561-.877,1.109.06.509.491.884.992.884.038,0,.078-.002.117-.007l7-.819c.549-.064.941-.561.877-1.109-.064-.548-.557-.947-1.109-.877Z"/>
</svg>