<?xml version="1.0" encoding="UTF-8"?>
<svg id="Outline" xmlns="http://www.w3.org/2000/svg" version="1.1" viewBox="0 0 48 48">
  <!-- Generator: Adobe Illustrator 29.5.1, SVG Export Plug-In . SVG Version: 2.1.0 Build 141)  -->
  <path d="M24,5c-10.832,0-19,3.439-19,8v21c0,5.047,8.346,9,19,9s19-3.953,19-9V13c0-4.561-8.168-8-19-8ZM41,30c0,2.241-3.014,4.58-8,5.907v-2.092c1.161-.414,2-1.514,2-2.816v-2c0-1.302-.839-2.402-2-2.816v-2.184c0-.014-.008-.026-.008-.04,3.472-.866,6.262-2.227,8.008-3.896v9.936ZM17,36.37v-2.554c1.161-.414,2-1.514,2-2.816v-2c0-1.302-.839-2.402-2-2.816v-1.802c1.866.341,3.881.544,6,.594v2.207c-1.161.414-2,1.514-2,2.816v2c0,1.302.839,2.402,2,2.816v2.162c-2.175-.052-4.193-.262-6-.608ZM7,20.064c1.746,1.669,4.536,3.03,8.008,3.896,0,.014-.008.026-.008.04v2.184c-1.161.414-2,1.514-2,2.816v2c0,1.302.839,2.402,2,2.816v2.092c-4.986-1.327-8-3.667-8-5.907v-9.936ZM32,32c-.551,0-1-.449-1-1v-2c0-.551.449-1,1-1s1,.449,1,1v2c0,.551-.449,1-1,1ZM24,23c-9.37,0-15.891-3.073-16.861-6.201,3.11,2.54,9.339,4.201,16.861,4.201s13.751-1.66,16.861-4.201c-.969,3.127-7.491,6.201-16.861,6.201ZM24,33c-.551,0-1-.449-1-1v-2c0-.551.449-1,1-1s1,.449,1,1v2c0,.551-.449,1-1,1ZM16,32c-.551,0-1-.449-1-1v-2c0-.551.449-1,1-1s1,.449,1,1v2c0,.551-.449,1-1,1ZM25,34.816c1.161-.414,2-1.514,2-2.816v-2c0-1.302-.839-2.402-2-2.816v-2.207c2.119-.05,4.134-.253,6-.594v1.802c-1.161.414-2,1.514-2,2.816v2c0,1.302.839,2.402,2,2.816v2.554c-1.807.346-3.825.556-6,.608v-2.162ZM24,7c10.019,0,17,3.162,17,6s-6.981,6-17,6S7,15.838,7,13s6.981-6,17-6ZM24,41c-10.096,0-16.894-3.568-16.991-6.927,3.089,2.944,9.454,4.927,16.991,4.927s13.902-1.983,16.991-4.927c-.097,3.359-6.895,6.927-16.991,6.927Z"/>
</svg>