<?xml version="1.0" encoding="UTF-8"?>
<svg id="Outline" xmlns="http://www.w3.org/2000/svg" version="1.1" viewBox="0 0 64 64">
  <!-- Generator: Adobe Illustrator 29.5.1, SVG Export Plug-In . SVG Version: 2.1.0 Build 141)  -->
  <path d="M54,41h-20c-1.654,0-3,1.346-3,3v8c0,1.654,1.346,3,3,3h20c1.654,0,3-1.346,3-3v-8c0-1.654-1.346-3-3-3ZM55,52c0,.552-.448,1-1,1h-20c-.552,0-1-.448-1-1v-8c0-.552.448-1,1-1h20c.552,0,1,.448,1,1v8Z"/>
  <path d="M52,49h-16c-.553,0-1,.447-1,1s.447,1,1,1h16c.553,0,1-.447,1-1s-.447-1-1-1Z"/>
  <path d="M52,45h-12c-.553,0-1,.447-1,1s.447,1,1,1h12c.553,0,1-.447,1-1s-.447-1-1-1Z"/>
  <path d="M45,36v-3h7c.552,0,1,.448,1,1v1.586l-.293-.293c-.391-.391-1.023-.391-1.414,0s-.391,1.023,0,1.414l2,2c.195.195.451.293.707.293s.512-.098.707-.293l2-2c.391-.391.391-1.023,0-1.414s-1.023-.391-1.414,0l-.293.293v-1.586c0-1.654-1.346-3-3-3h-7v-3c0-1.654-1.346-3-3-3h-20c-1.654,0-3,1.346-3,3v8c0,1.654,1.346,3,3,3h20c1.654,0,3-1.346,3-3ZM21,36v-8c0-.552.448-1,1-1h20c.552,0,1,.448,1,1v8c0,.552-.448,1-1,1h-20c-.552,0-1-.448-1-1Z"/>
  <path d="M40,33h-16c-.553,0-1,.447-1,1s.447,1,1,1h16c.553,0,1-.447,1-1s-.447-1-1-1Z"/>
  <path d="M40,29h-12c-.553,0-1,.447-1,1s.447,1,1,1h12c.553,0,1-.447,1-1s-.447-1-1-1Z"/>
  <path d="M33,20v-3h7c.552,0,1,.448,1,1v1.586l-.293-.293c-.391-.391-1.023-.391-1.414,0s-.391,1.023,0,1.414l2,2c.195.195.451.293.707.293s.512-.098.707-.293l2-2c.391-.391.391-1.023,0-1.414s-1.023-.391-1.414,0l-.293.293v-1.586c0-1.654-1.346-3-3-3h-7v-3c0-1.654-1.346-3-3-3H10c-1.654,0-3,1.346-3,3v8c0,1.654,1.346,3,3,3h20c1.654,0,3-1.346,3-3ZM9,20v-8c0-.552.448-1,1-1h20c.552,0,1,.448,1,1v8c0,.552-.448,1-1,1H10c-.552,0-1-.448-1-1Z"/>
  <path d="M28,17H12c-.553,0-1,.447-1,1s.447,1,1,1h16c.553,0,1-.447,1-1s-.447-1-1-1Z"/>
  <path d="M28,13h-12c-.553,0-1,.447-1,1s.447,1,1,1h12c.553,0,1-.447,1-1s-.447-1-1-1Z"/>
</svg>