<?xml version="1.0" encoding="UTF-8"?>
<svg id="Outline" xmlns="http://www.w3.org/2000/svg" version="1.1" viewBox="0 0 64 64">
  <!-- Generator: Adobe Illustrator 29.3.1, SVG Export Plug-In . SVG Version: 2.1.0 Build 151)  -->
  <path d="M17,51h-8V9h31c.55225,0,1-.44775,1-1s-.44775-1-1-1H9c-1.10303,0-2,.89697-2,2v42c0,1.10303.89697,2,2,2h8c.55225,0,1-.44775,1-1s-.44775-1-1-1Z"/>
  <path d="M18,45c.55225,0,1-.44775,1-1v-3h1c.55225,0,1-.44775,1-1v-6c0-.55225-.44775-1-1-1h-1v-2c0-.55225-.44775-1-1-1s-1,.44775-1,1v2h-1c-.55225,0-1,.44775-1,1v6c0,.55225.44775,1,1,1h1v3c0,.55225.44775,1,1,1ZM17,35h2v4h-2v-4Z"/>
  <path d="M25,40c.55225,0,1-.44775,1-1v-3h1c.55225,0,1-.44775,1-1v-6c0-.55225-.44775-1-1-1h-1v-2c0-.55225-.44775-1-1-1s-1,.44775-1,1v2h-1c-.55225,0-1,.44775-1,1v6c0,.55225.44775,1,1,1h1v3c0,.55225.44775,1,1,1ZM24,30h2v4h-2v-4Z"/>
  <path d="M32,33c.55225,0,1-.44775,1-1v-3h1c.55225,0,1-.44775,1-1v-6c0-.55225-.44775-1-1-1h-1v-2c0-.55225-.44775-1-1-1s-1,.44775-1,1v2h-1c-.55225,0-1,.44775-1,1v6c0,.55225.44775,1,1,1h1v3c0,.55225.44775,1,1,1ZM31,23h2v4h-2v-4Z"/>
  <path d="M40,26v-2c0-.55225-.44775-1-1-1s-1,.44775-1,1v2h-1c-.55225,0-1,.44775-1,1v6c0,.55225.44775,1,1,1h1v3c0,.55225.44775,1,1,1s1-.44775,1-1v-3h1c.55225,0,1-.44775,1-1v-6c0-.55225-.44775-1-1-1h-1ZM40,32h-2v-4h2v4Z"/>
  <path d="M44,24h1v3c0,.55225.44775,1,1,1s1-.44775,1-1v-3h1c.55225,0,1-.44775,1-1v-6c0-.55225-.44775-1-1-1h-1v-2c0-.55225-.44775-1-1-1s-1,.44775-1,1v2h-1c-.55225,0-1,.44775-1,1v6c0,.55225.44775,1,1,1ZM45,18h2v4h-2v-4Z"/>
  <path d="M53,39.01898V9c0-1.10303-.89697-2-2-2h-7c-.55225,0-1,.44775-1,1s.44775,1,1,1h7v28.8407c-1.2262-.53766-2.57764-.8407-4-.8407-5.17664,0-9.44592,3.95367-9.94934,9H13V11c0-.55225-.44775-1-1-1s-1,.44775-1,1v36c0,.55225.44775,1,1,1h25.05066c.10547,1.05756.37994,2.06482.79004,3h-16.8407c-.55225,0-1,.44775-1,1s.44775,1,1,1h18.01898c1.82654,2.42346,4.71936,4,7.98102,4,5.51416,0,10-4.48584,10-10,0-3.26166-1.57654-6.15448-4-7.98102ZM47,55c-4.41113,0-8-3.58887-8-8s3.58887-8,8-8,8,3.58887,8,8-3.58887,8-8,8Z"/>
  <path d="M47,44c.55127,0,1,.44873,1,1,0,.55225.44775,1,1,1s1-.44775,1-1c0-1.30194-.8385-2.40161-2-2.81573v-.18427c0-.55225-.44775-1-1-1s-1,.44775-1,1v.18427c-1.1615.41412-2,1.51379-2,2.81573,0,1.6543,1.3457,3,3,3,.55127,0,1,.44873,1,1s-.44873,1-1,1-1-.44873-1-1c0-.55225-.44775-1-1-1s-1,.44775-1,1c0,1.30194.8385,2.40155,2,2.81567v.18433c0,.55225.44775,1,1,1s1-.44775,1-1v-.18427c1.1615-.41412,2-1.51379,2-2.81573,0-1.6543-1.3457-3-3-3-.55127,0-1-.44873-1-1s.44873-1,1-1Z"/>
  <circle cx="16" cy="12" r="1"/>
  <path d="M27,11h-7c-.55225,0-1,.44775-1,1s.44775,1,1,1h7c.55225,0,1-.44775,1-1s-.44775-1-1-1Z"/>
  <circle cx="16" cy="16" r="1"/>
  <path d="M27,15h-7c-.55225,0-1,.44775-1,1s.44775,1,1,1h7c.55225,0,1-.44775,1-1s-.44775-1-1-1Z"/>
  <circle cx="16" cy="20" r="1"/>
  <path d="M27,19h-7c-.55225,0-1,.44775-1,1s.44775,1,1,1h7c.55225,0,1-.44775,1-1s-.44775-1-1-1Z"/>
</svg>