<?xml version="1.0" encoding="UTF-8"?>
<svg id="Outline" xmlns="http://www.w3.org/2000/svg" version="1.1" viewBox="0 0 64 64">
  <!-- Generator: Adobe Illustrator 29.5.1, SVG Export Plug-In . SVG Version: 2.1.0 Build 141)  -->
  <path d="M49.5,23.13l-2.86-1.63c.23-1.12.36-2.3.36-3.5,0-6.17-3.08-11-7-11-3.42,0-6.26,3.73-6.86,8.91l-.26.15-3.38-1.93c-.31-.17-.69-.17-1,0l-14,8c-.31.18-.5.51-.5.87v30c0,1.65,1.35,3,3,3h3.78c.55.61,1.34,1,2.22,1h24c1.65,0,3-1.35,3-3v-30c0-.36-.19-.69-.5-.87ZM40,9c2.71,0,5,4.12,5,9,0,.83-.07,1.65-.2,2.45l-9.3-5.32c-.07-.04-.14-.06-.21-.08.7-3.5,2.62-6.05,4.71-6.05ZM35,22c.55,0,1,.45,1,1s-.45,1-1,1-1-.45-1-1,.45-1,1-1ZM20.5,23.13c-.31.18-.5.51-.5.87v30h-3c-.55,0-1-.45-1-1v-29.42l13-7.43,1.86,1.06-10.36,5.92ZM48,54c0,.55-.45,1-1,1h-24c-.55,0-1-.45-1-1v-29.42l11.01-6.29c.02.77.09,1.55.2,2.31-.73.55-1.21,1.42-1.21,2.4,0,1.65,1.35,3,3,3s3-1.35,3-3c0-1.6-1.27-2.91-2.85-2.99-.09-.66-.15-1.34-.15-2.01,0-.3.01-.57.02-.83l12.98,7.41v29.42Z"/>
  <path d="M43.71,44.29l-3.3-3.29h1.59c.4,0,.77-.24.92-.62.16-.37.07-.8-.21-1.09l-3.3-3.29h1.59c.4,0,.77-.24.92-.62.16-.37.07-.8-.21-1.09l-6-6c-.39-.39-1.03-.39-1.42,0l-6,6c-.28.29-.37.72-.21,1.09.15.38.52.62.92.62h1.59l-3.3,3.29c-.28.29-.37.72-.21,1.09.15.38.52.62.92.62h1.59l-3.3,3.29c-.28.29-.37.72-.21,1.09.15.38.52.62.92.62h5v6c0,.55.45,1,1,1h4c.55,0,1-.45,1-1v-6h5c.4,0,.77-.24.92-.62.16-.37.07-.8-.21-1.09ZM36,51h-2v-5h2v5ZM29.41,44l3.3-3.29c.28-.29.37-.72.21-1.09-.15-.38-.52-.62-.92-.62h-1.59l3.3-3.29c.28-.29.37-.72.21-1.09-.15-.38-.52-.62-.92-.62h-1.59l3.59-3.59,3.59,3.59h-1.59c-.4,0-.77.24-.92.62-.16.37-.07.8.21,1.09l3.3,3.29h-1.59c-.4,0-.77.24-.92.62-.16.37-.07.8.21,1.09l3.3,3.29h-11.18Z"/>
</svg>