<?xml version="1.0" encoding="UTF-8"?>
<svg id="Outline" xmlns="http://www.w3.org/2000/svg" version="1.1" viewBox="0 0 64 64">
  <!-- Generator: Adobe Illustrator 29.5.1, SVG Export Plug-In . SVG Version: 2.1.0 Build 141)  -->
  <path d="M45,51h-1v-1c0-1.65-1.35-3-3-3h-6v-18h3c1.65,0,3-1.35,3-3v-1h3c1.65,0,3-1.35,3-3v-2c0-1.65-1.35-3-3-3h-1v-7c0-1.65-1.35-3-3-3h-16c-1.65,0-3,1.35-3,3v7h-1c-1.65,0-3,1.35-3,3v2c0,1.65,1.35,3,3,3h3v1c0,1.3.84,2.4,2,2.82v1.46l-2.32.77c-.52.18-.8.74-.63,1.27.173.54.751.772,1.27.63l3-1c.4-.14.68-.52.68-.95v-2h2v18h-6c-1.65,0-3,1.35-3,3v1h-1c-1.65,0-3,1.35-3,3v2c0,.55.45,1,1,1h30c.55,0,1-.45,1-1v-2c0-1.65-1.35-3-3-3ZM23,10c0-.55.45-1,1-1h16c.55,0,1,.45,1,1v7h-2v-5c0-.55-.45-1-1-1h-12c-.55,0-1,.45-1,1v5h-2v-7ZM37,13v4h-10v-4h10ZM20,23c-.55,0-1-.45-1-1v-2c0-.55.45-1,1-1h24c.55,0,1,.45,1,1v2c0,.55-.45,1-1,1h-24ZM26,27c-.55,0-1-.45-1-1v-1h14v1c0,.55-.45,1-1,1h-12ZM33,29v18h-2v-18h2ZM22,50c0-.55.45-1,1-1h18c.55,0,1,.45,1,1v1h-20v-1ZM46,55h-28v-1c0-.55.45-1,1-1h26c.55,0,1,.45,1,1v1Z"/>
</svg>