<?xml version="1.0" encoding="UTF-8"?>
<svg id="Outline" xmlns="http://www.w3.org/2000/svg" version="1.1" viewBox="0 0 64 64">
  <!-- Generator: Adobe Illustrator 29.5.1, SVG Export Plug-In . SVG Version: 2.1.0 Build 141)  -->
  <path d="M42.661,20.1c-.63-.4-.9-1.14-.66-1.8,0-.02.01-.04.02-.06.15-.5-.12-1.05-.62-1.23l-3.76-1.37c-.24-.09-.52-.08-.76.04-.24.11-.43.31-.52.56-.21.59-.76.95-1.36.96v-4.2h3c.55,0,1-.45,1-1v-4c0-.55-.45-1-1-1h-12c-.55,0-1,.45-1,1v4c0,.55.45,1,1,1h3v4.2c-.6-.01-1.15-.37-1.36-.96-.09-.25-.28-.45-.52-.56-.24-.12-.52-.13-.76-.04l-3.76,1.37c-.52.19-.79.77-.6,1.29.24.66-.03,1.4-.66,1.8-6.53,4.12-10.06,11.46-9.22,19.16,1.02,9.19,8.41,16.59,17.6,17.61.77.09,1.55.13,2.31.13,4.93,0,9.59-1.77,13.31-5.09,4.23-3.8,6.66-9.23,6.66-14.91,0-6.89-3.49-13.21-9.34-16.9ZM27.001,11v-2h10v2h-10ZM33.001,13v4.04c-.67-.04-1.33-.04-2,0v-4.04h2ZM44.001,50.42c-3.86,3.46-8.86,5.04-14.06,4.47-8.26-.92-14.92-7.58-15.83-15.85-.76-6.93,2.42-13.54,8.3-17.25,1.14-.72,1.76-1.96,1.68-3.19l2.15-.79c.74,1.01,1.99,1.57,3.26,1.38,1.68-.25,3.32-.25,5,0,1.27.19,2.52-.37,3.26-1.38l2.16.79c-.08,1.25.54,2.47,1.67,3.19,5.27,3.32,8.41,9.01,8.41,15.21,0,5.11-2.19,10-6,13.42Z"/>
  <path d="M45.001,32c-1.654,0-3,1.346-3,3v4c0,1.654,1.346,3,3,3s3-1.346,3-3v-4c0-1.654-1.346-3-3-3ZM46.001,39c0,.551-.448,1-1,1s-1-.449-1-1v-4c0-.551.448-1,1-1s1,.449,1,1v4Z"/>
  <path d="M34.001,35v4c0,1.654,1.346,3,3,3s3-1.346,3-3v-4c0-1.654-1.346-3-3-3s-3,1.346-3,3ZM38.001,35v4c0,.551-.448,1-1,1s-1-.449-1-1v-4c0-.551.448-1,1-1s1,.449,1,1Z"/>
  <path d="M22.001,39v-4c0-1.654-1.346-3-3-3s-3,1.346-3,3v4c0,1.654,1.346,3,3,3s3-1.346,3-3ZM18.001,39v-4c0-.551.448-1,1-1s1,.449,1,1v4c0,.551-.448,1-1,1s-1-.449-1-1Z"/>
  <path d="M24.001,35v4c0,1.654,1.346,3,3,3s3-1.346,3-3v-4c0-1.654-1.346-3-3-3s-3,1.346-3,3ZM28.001,35v4c0,.551-.448,1-1,1s-1-.449-1-1v-4c0-.551.448-1,1-1s1,.449,1,1Z"/>
  <circle cx="32.001" cy="35" r="1"/>
  <circle cx="32.001" cy="39" r="1"/>
  <path d="M19.321,30h5.68c.553,0,1-.448,1-1s-.447-1-1-1h-3.72c2.637-3.16,6.523-5,10.72-5s8.083,1.84,10.72,5h-13.72c-.553,0-1,.448-1,1s.447,1,1,1h15.68c.364,0,.699-.198.875-.517.177-.319.165-.708-.028-1.016-2.943-4.676-7.999-7.467-13.526-7.467s-10.583,2.792-13.526,7.467c-.193.308-.205.697-.028,1.016.176.319.511.517.875.517Z"/>
  <path d="M44.681,44h-5.68c-.553,0-1,.448-1,1s.447,1,1,1h3.72c-2.637,3.16-6.523,5-10.72,5s-8.083-1.84-10.72-5h13.72c.553,0,1-.448,1-1s-.447-1-1-1h-15.68c-.364,0-.699.198-.875.517-.177.319-.165.708.028,1.016,2.943,4.676,7.999,7.467,13.526,7.467s10.583-2.792,13.526-7.467c.193-.308.205-.697.028-1.016-.176-.319-.511-.517-.875-.517Z"/>
</svg>