<?xml version="1.0" encoding="UTF-8"?>
<svg id="Outline" xmlns="http://www.w3.org/2000/svg" version="1.1" viewBox="0 0 64 64">
  <!-- Generator: Adobe Illustrator 29.5.1, SVG Export Plug-In . SVG Version: 2.1.0 Build 141)  -->
  <path d="M49.511,18.72c-.37-.42-1-.45-1.41-.09-.42.37-.45,1-.09,1.41,3.42,3.86,5.3,8.81,5.3,13.96,0,11.58-9.42,21-21,21s-21-9.42-21-21,9.42-21,21-21c4.73,0,9.2,1.53,12.9,4.44.44.34,1.07.26,1.41-.17.34-.44.26-1.07-.17-1.41-3-2.35-6.45-3.87-10.14-4.51v-2.35h2c.55,0,1-.45,1-1s-.45-1-1-1h-12c-.55,0-1,.45-1,1s.45,1,1,1h2v2.36c-3.37.59-6.48,1.91-9.18,3.81l-1.67-1.68,1.41-1.41c.4-.39.4-1.02,0-1.41-.39-.4-1.02-.4-1.41,0l-8.48,8.48c-.39.39-.39,1.02,0,1.41.369.369,1.013.397,1.41,0l1.41-1.41,1.68,1.67c-2.63,3.74-4.17,8.28-4.17,13.18,0,12.68,10.32,23,23,23s23-10.32,23-23c0-5.64-2.06-11.07-5.8-15.28ZM30.311,9h4v2.09c-.66-.06-1.33-.09-2-.09s-1.34.04-2,.09v-2.09ZM13.221,17.74l2.83-2.83,1.48,1.48c-1.02.86-1.97,1.81-2.83,2.83l-1.48-1.48Z"/>
  <path d="M32.311,53c10.477,0,19-8.523,19-19s-8.523-19-19-19-19,8.523-19,19c0,4.094,1.281,7.986,3.706,11.256.329.443.956.536,1.399.208.443-.329.536-.955.208-1.399-2.168-2.922-3.313-6.403-3.313-10.064,0-9.374,7.626-17,17-17s17,7.626,17,17-7.626,17-17,17c-4.073,0-8.021-1.473-11.115-4.147-.418-.359-1.048-.316-1.411.103-.361.418-.314,1.049.103,1.411,3.458,2.988,7.87,4.633,12.424,4.633Z"/>
  <path d="M32.311,31c-.462,0-.894.113-1.285.301l-3.372-3.372h.415c.553,0,1-.448,1-1s-.447-1-1-1h-2.829c-.553,0-1,.448-1,1v2.829c0,.552.447,1,1,1s1-.448,1-1v-.414l3.372,3.372c-.187.391-.301.824-.301,1.285,0,1.654,1.346,3,3,3,.462,0,.894-.113,1.285-.301,0,0,1.508,1.508,1.508,1.508.388.388,1.026.388,1.414,0,.391-.391.391-1.023,0-1.414l-1.508-1.508c.187-.391.301-.824.301-1.285,0-1.654-1.346-3-3-3ZM31.311,34c0-.538.465-1,1-1,.552,0,1,.449,1,1,0,.54-.463,1-1,1-.552,0-1-.449-1-1Z"/>
  <path d="M34.448,19.151c-.705-.1-1.424-.151-2.137-.151-8.271,0-15,6.729-15,15s6.729,15,15,15,15-6.729,15-15c0-.719-.051-1.438-.151-2.139-.079-.546-.579-.927-1.133-.847-.547.079-.926.585-.848,1.132.088.606.132,1.23.132,1.854,0,7.168-5.832,13-13,13s-13-5.832-13-13,5.832-13,13-13c.619,0,1.243.044,1.855.131.048.007.095.01.142.01.49,0,.918-.36.989-.859.077-.546-.303-1.053-.85-1.131Z"/>
  <path d="M45.21,29.544c.706.008,1.194-.74.921-1.387-.499-1.18-1.151-2.296-1.939-3.317-.337-.437-.964-.519-1.403-.181-.437.337-.518.965-.181,1.402.684.885,1.249,1.852,1.682,2.874.155.365.528.604.921.608Z"/>
  <path d="M37.377,22.023c1.023.433,1.99.999,2.874,1.682.182.141.397.208.61.208.935,0,1.348-1.224.613-1.792-1.02-.788-2.136-1.441-3.317-1.941-.505-.212-1.095.021-1.311.531-.215.508.022,1.095.531,1.311Z"/>
</svg>