<?xml version="1.0" encoding="UTF-8"?>
<svg id="Outline" xmlns="http://www.w3.org/2000/svg" version="1.1" viewBox="0 0 64 64">
  <!-- Generator: Adobe Illustrator 29.0.0, SVG Export Plug-In . SVG Version: 2.1.0 Build 186)  -->
  <path d="M54,29h-7V10c0-1.65002-1.34998-3-3-3H10c-1.65002,0-3,1.34998-3,3v11c0,.54999.45001,1,1,1s1-.45001,1-1v-3h36v16c0,.54999-.45001,1-1,1H10c-.54999,0-1-.45001-1-1v-5c0-.54999-.45001-1-1-1s-1,.45001-1,1v5c0,1.64996,1.34998,3,3,3h7v17c0,1.64996,1.34998,3,3,3h34c1.65002,0,3-1.35004,3-3v-22c0-1.65002-1.34998-3-3-3ZM9,10c0-.54999.45001-1,1-1h34c.54999,0,1,.45001,1,1v1H9v-1ZM9,16v-3h36v3H9ZM55,54c0,.54999-.45001,1-1,1H20c-.54999,0-1-.45001-1-1v-14h36v14ZM55,38H19v-1h25c1.29999,0,2.40002-.84003,2.82001-2h8.17999v3ZM55,33h-8v-2h7c.54999,0,1,.45001,1,1v1Z"/>
  <path d="M12,33h2c.55273,0,1-.44727,1-1s-.44727-1-1-1h-2c-.55273,0-1,.44727-1,1s.44727,1,1,1Z"/>
  <path d="M12,29h2c.55273,0,1-.44727,1-1s-.44727-1-1-1h-2c-.55273,0-1,.44727-1,1s.44727,1,1,1Z"/>
  <path d="M18,29h2c.55273,0,1-.44727,1-1s-.44727-1-1-1h-2c-.55273,0-1,.44727-1,1s.44727,1,1,1Z"/>
  <path d="M18,33h2c.55273,0,1-.44727,1-1s-.44727-1-1-1h-2c-.55273,0-1,.44727-1,1s.44727,1,1,1Z"/>
  <path d="M26,31h-2c-.55273,0-1,.44727-1,1s.44727,1,1,1h2c.55273,0,1-.44727,1-1s-.44727-1-1-1Z"/>
  <path d="M42.07033,25.92792c.86822-.00014,1.32188-1.09037.70701-1.70527-2.0791-2.07812-4.84082-3.22266-7.77734-3.22266s-5.69824,1.14453-7.77734,3.22266c-.39062.39062-.39062,1.02344,0,1.41406s1.02344.39062,1.41406,0c1.70117-1.7002,3.96094-2.63672,6.36328-2.63672s4.66193.93645,6.36308,2.63652c.19453.19441.45051.2912.70725.2914Z"/>
  <path d="M39.24025,28.75977c.87045.00001,1.32189-1.08597.70995-1.7041-1.31348-1.3252-3.07129-2.05566-4.9502-2.05566s-3.63672.73047-4.9502,2.05566c-.38867.39258-.38672,1.02539.00586,1.41406s1.02539.38672,1.41406-.00586c.93555-.94434,2.18945-1.46387,3.53027-1.46387s2.59473.51953,3.53027,1.46387c.1951.19705.4516.29569.70998.2959Z"/>
  <path d="M32.87305,29.89258c-.38477.39551-.37695,1.02832.01953,1.41406.39551.38574,1.02832.37598,1.41406-.01953.35938-.36914,1.02734-.36914,1.38672,0,.19622.20111.45588.30267.7166.30273.86732.00016,1.32261-1.07477.71698-1.69727-1.1211-1.15234-3.13281-1.15234-4.2539,0Z"/>
  <path d="M22,53h6c.55273,0,1-.44727,1-1s-.44727-1-1-1h-6c-.55273,0-1,.44727-1,1s.44727,1,1,1Z"/>
  <path d="M22,49h6c.55273,0,1-.44727,1-1s-.44727-1-1-1h-6c-.55273,0-1,.44727-1,1s.44727,1,1,1Z"/>
  <circle cx="8" cy="25" r="1"/>
</svg>