<?xml version="1.0" encoding="UTF-8"?>
<svg id="Outline" xmlns="http://www.w3.org/2000/svg" version="1.1" viewBox="0 0 64 64">
  <!-- Generator: Adobe Illustrator 29.0.0, SVG Export Plug-In . SVG Version: 2.1.0 Build 186)  -->
  <path d="M57,27v-3c0-.01001-.01001-.02002-.01001-.03003,0-.10999-.02002-.21997-.04999-.32001l-2.94-7.82996v-3.82001c0-.54999-.45001-1-1-1h-9v-3c0-.54999-.45001-1-1-1h-22c-.54999,0-1,.45001-1,1v3h-9c-.54999,0-1,.45001-1,1v3.82001l-2.94,7.82996c-.02997.10004-.04999.21002-.04999.32001,0,.01001-.01001.02002-.01001.03003v3c0,1.46997.81,2.75,2,3.44v24.56h-1c-.54999,0-1,.45001-1,1s.45001,1,1,1h48c.54999,0,1-.45001,1-1s-.45001-1-1-1h-1v-24.56c1.19-.69,2-1.97003,2-3.44ZM44,13h8v2h-8v-2ZM22,9h20v6h-20v-6ZM12,13h8v2h-8v-2ZM11.69,17h40.62l2.25,6H9.44l2.25-6ZM49,25v2c0,1.09998-.90002,2-2,2s-2-.90002-2-2v-2h4ZM43,25v2c0,1.09998-.90002,2-2,2s-2-.90002-2-2v-2h4ZM37,25v2c0,1.09998-.90002,2-2,2s-2-.90002-2-2v-2h4ZM31,25v2c0,1.09998-.90002,2-2,2s-2-.90002-2-2v-2h4ZM25,25v2c0,1.09998-.90002,2-2,2s-2-.90002-2-2v-2h4ZM19,25v2c0,1.09998-.90002,2-2,2s-2-.90002-2-2v-2h4ZM9,27v-2h4v2c0,1.09998-.90002,2-2,2s-2-.90002-2-2ZM25,55h-10v-18h10v18ZM53,55h-26v-19c0-.54999-.45001-1-1-1h-12c-.54999,0-1,.45001-1,1v19h-2v-24c1.20001,0,2.27002-.54004,3-1.38.72998.83997,1.79999,1.38,3,1.38s2.27002-.54004,3-1.38c.72998.83997,1.79999,1.38,3,1.38s2.27002-.54004,3-1.38c.72998.83997,1.79999,1.38,3,1.38s2.27002-.54004,3-1.38c.72998.83997,1.79999,1.38,3,1.38s2.27002-.54004,3-1.38c.72998.83997,1.79999,1.38,3,1.38s2.27002-.54004,3-1.38c.72998.83997,1.79999,1.38,3,1.38s2.27002-.54004,3-1.38c.72998.83997,1.79999,1.38,3,1.38v24ZM53,29c-1.09998,0-2-.90002-2-2v-2h4v2c0,1.09998-.90002,2-2,2Z"/>
  <path d="M41,35c-.55225,0-1,.44775-1,1s.44775,1,1,1h8v12h-18v-12h2c.55225,0,1-.44775,1-1s-.44775-1-1-1h-3c-.55225,0-1,.44775-1,1v14c0,.55225.44775,1,1,1h20c.55225,0,1-.44775,1-1v-14c0-.55225-.44775-1-1-1h-9Z"/>
  <circle cx="37" cy="36" r="1"/>
</svg>