<?xml version="1.0" encoding="UTF-8"?>
<svg id="Outline" xmlns="http://www.w3.org/2000/svg" version="1.1" viewBox="0 0 64 64">
  <!-- Generator: Adobe Illustrator 29.3.1, SVG Export Plug-In . SVG Version: 2.1.0 Build 151)  -->
  <path d="M21,14.98706c1.6543,0,3-1.3457,3-3,0-1.27832-1.52246-3.62061-2.17725-4.56836-.37305-.54102-1.27246-.54102-1.64551,0-.65479.94775-2.17725,3.29004-2.17725,4.56836,0,1.6543,1.3457,3,3,3ZM21,9.84058c.57617.9707.9917,1.8418,1,2.14648,0,.55127-.44873,1-1,1s-.99951-.44824-1-.99902c.0083-.30615.42432-1.17725,1-2.14746Z"/>
  <path d="M43,14.98706c1.6543,0,3-1.3457,3-3,0-1.27832-1.52246-3.62061-2.17725-4.56836-.37305-.54102-1.27246-.54102-1.64551,0-.65479.94775-2.17725,3.29004-2.17725,4.56836,0,1.6543,1.3457,3,3,3ZM43,9.84058c.57568.97021.9917,1.84131,1,2.14746-.00049.55078-.44873.99902-1,.99902s-1-.44873-1-.99902c.0083-.30566.42383-1.17676,1-2.14746Z"/>
  <path d="M56,40.98706c.54999,0,1-.45001,1-1v-20c0-1.65002-1.34998-3-3-3h-3v-2c0-.54999-.45001-1-1-1h-3c-.54999,0-1,.45001-1,1s.45001,1,1,1h2v1h-12v-1h2c.54999,0,1-.45001,1-1s-.45001-1-1-1h-3c-.54999,0-1,.45001-1,1v2h-6v-2c0-.54999-.45001-1-1-1h-3c-.54999,0-1,.45001-1,1s.45001,1,1,1h2v1h-12v-1h2c.54999,0,1-.45001,1-1s-.45001-1-1-1h-3c-.54999,0-1,.45001-1,1v2h-3c-1.65002,0-3,1.34998-3,3v34c0,1.64996,1.34998,3,3,3h44c1.65002,0,3-1.35004,3-3v-6c0-.54999-.45001-1-1-1s-1,.45001-1,1v6c0,.54999-.45001,1-1,1H10c-.54999,0-1-.45001-1-1v-23h46v9c0,.54999.45001,1,1,1ZM9,28.98706v-9c0-.54999.45001-1,1-1h44c.54999,0,1,.45001,1,1v9H9Z"/>
  <path d="M17,20.98706c-1.6543,0-3,1.3457-3,3s1.3457,3,3,3,3-1.3457,3-3-1.3457-3-3-3ZM17,24.98706c-.55127,0-1-.44873-1-1s.44873-1,1-1,1,.44873,1,1-.44873,1-1,1Z"/>
  <path d="M25,20.98706c-1.6543,0-3,1.3457-3,3s1.3457,3,3,3,3-1.3457,3-3-1.3457-3-3-3ZM25,24.98706c-.55127,0-1-.44873-1-1s.44873-1,1-1,1,.44873,1,1-.44873,1-1,1Z"/>
  <path d="M39,20.98706c-1.6543,0-3,1.3457-3,3s1.3457,3,3,3,3-1.3457,3-3-1.3457-3-3-3ZM39,24.98706c-.55127,0-1-.44873-1-1s.44873-1,1-1,1,.44873,1,1-.44873,1-1,1Z"/>
  <path d="M47,20.98706c-1.6543,0-3,1.3457-3,3s1.3457,3,3,3,3-1.3457,3-3-1.3457-3-3-3ZM47,24.98706c-.55127,0-1-.44873-1-1s.44873-1,1-1,1,.44873,1,1-.44873,1-1,1Z"/>
  <path d="M52,32.98706H12c-.54999,0-1,.45001-1,1v4c0,.54999.45001,1,1,1h2v13c0,.54999.45001,1,1,1h34c.54999,0,1-.45001,1-1v-13h2c.54999,0,1-.45001,1-1v-4c0-.54999-.45001-1-1-1ZM48,50.98706H16v-12h32v12ZM51,36.98706H13v-2h38v2Z"/>
  <circle cx="56" cy="43.98706" r="1"/>
</svg>