<?xml version="1.0" encoding="UTF-8"?>
<svg id="Outline" xmlns="http://www.w3.org/2000/svg" version="1.1" viewBox="0 0 64 64">
  <!-- Generator: Adobe Illustrator 29.5.1, SVG Export Plug-In . SVG Version: 2.1.0 Build 141)  -->
  <path d="M49.954,34.09c-.93,10.83-8.52,22.91-17.91,22.91-9.97,0-18-13.68-18-25,0-5.21,1.78-9.11,5.27-11.65l-1.51-.38c-.4-.1-.69-.43-.75-.83-.06-.41.14-.8.49-1.01l2.32-1.33c2.74-1.56,5.91-1.99,8.92-1.25-.03-.32-.04-.65-.04-.97,0-1.99.54-3.94,1.56-5.64l.88-1.46c.18-.3.51-.48.86-.48h7c.36,0,.69.19.87.51.18.31.17.69-.01,1l-1.58,2.64c-.81,1.35-1.25,2.89-1.28,4.46,3.09-.83,6.36-.41,9.18,1.19l2.32,1.33c.35.21.55.6.49,1.01-.06.4-.35.73-.75.83l-3.05.76c2.71,2.17,4.3,5.23,4.7,9.17.06.55-.34,1.04-.89,1.09-.03.01-.07.01-.1.01-.51,0-.94-.38-.99-.9-.41-3.97-2.2-6.9-5.29-8.73l-.18.05c.56.48,1.08,1.01,1.53,1.6.94,1.23,1.59,2.67,1.89,4.17l.12.62c.08.37-.07.76-.38.99-.3.23-.71.26-1.05.09l-.97-.49c-1.74-.86-3.74-1.08-5.61-.61-.03.48-.1.95-.2,1.42-.12.54-.65.89-1.19.77-.54-.12-.88-.65-.77-1.19.13-.59.19-1.19.19-1.79,0-.46.31-.86.76-.97l.72-.18c1.99-.5,4.08-.37,6,.34-.27-.7-.64-1.36-1.1-1.95-.75-.99-1.73-1.8-2.83-2.35-.37-.18-.59-.58-.54-1,.04-.41.34-.76.75-.86l2.74-.69h.02l2.83-.71-.17-.09c-2.7-1.54-5.91-1.77-8.81-.61-.31.12-.66.08-.93-.1-.28-.19-.44-.5-.44-.83v-1.24c0-1.99.54-3.94,1.56-5.64l.68-1.12h-4.68l-.58.98c-.84,1.38-1.28,2.97-1.28,4.6,0,.73.09,1.46.27,2.18.09.36-.03.75-.31.99-.28.25-.68.32-1.03.18-2.9-1.16-6.11-.94-8.81.61l-.17.09,5.59,1.4c.41.1.71.45.75.86.05.42-.17.82-.54,1-1.82.91-3.24,2.5-3.97,4.39,2.16-.72,4.45-.82,6.76-.25.45.11.76.51.76.97,0,2.28.92,4.51,2.54,6.12l.46.47.46-.47c.25-.24.46-.49.64-.72.34-.44.96-.53,1.4-.2.44.34.53.96.2,1.4-.24.31-.51.63-.82.94l-1.17,1.17c-.2.19-.45.29-.71.29s-.51-.1-.71-.29l-1.17-1.17c-1.79-1.79-2.89-4.21-3.09-6.72-2.21-.4-4.33-.06-6.27.91l-.3.16c-.34.17-.75.14-1.06-.09s-.46-.62-.38-.99l.12-.61c.46-2.3,1.67-4.32,3.41-5.78l-1.56-.39c-3.96,2.07-5.99,5.75-5.99,10.97,0,10.35,7.38,23,16,23,8.07,0,15.06-11.13,15.91-21.09.05-.55.53-.96,1.09-.91.55.05.95.54.91,1.09Z"/>
  <path d="M32.044,49c-.552,0-1,.448-1,1v2c0,.552.448,1,1,1s1-.448,1-1v-2c0-.552-.448-1-1-1Z"/>
  <path d="M24.044,42c-.552,0-1,.448-1,1v2c0,.552.448,1,1,1s1-.448,1-1v-2c0-.552-.448-1-1-1Z"/>
  <path d="M33.044,43c0-.552-.448-1-1-1s-1,.448-1,1v2c0,.552.448,1,1,1s1-.448,1-1v-2Z"/>
  <path d="M39.044,43v2c0,.552.448,1,1,1s1-.448,1-1v-2c0-.552-.448-1-1-1s-1,.448-1,1Z"/>
  <path d="M27.044,36v2c0,.552.448,1,1,1s1-.448,1-1v-2c0-.552-.448-1-1-1s-1,.448-1,1Z"/>
  <path d="M36.044,35c-.552,0-1,.448-1,1v2c0,.552.448,1,1,1s1-.448,1-1v-2c0-.552-.448-1-1-1Z"/>
  <path d="M42.044,36v2c0,.552.448,1,1,1s1-.448,1-1v-2c0-.552-.448-1-1-1s-1,.448-1,1Z"/>
  <path d="M21.044,35c-.552,0-1,.448-1,1v2c0,.552.448,1,1,1s1-.448,1-1v-2c0-.552-.448-1-1-1Z"/>
  <path d="M25.044,31c0-.552-.448-1-1-1s-1,.448-1,1v2c0,.552.448,1,1,1s1-.448,1-1v-2Z"/>
</svg>