<?xml version="1.0" encoding="UTF-8"?>
<svg id="Outline" xmlns="http://www.w3.org/2000/svg" version="1.1" viewBox="0 0 64 64">
  <!-- Generator: Adobe Illustrator 29.5.1, SVG Export Plug-In . SVG Version: 2.1.0 Build 141)  -->
  <path d="M48.77,28.19c.08.48.5.82.98.82.06,0,.12-.01.18-.02.54-.09.9-.61.8-1.16-.89-5.02-3.98-8.22-9.39-9.75,1.29-1.7,2.2-3.7,2.64-5.88.08-.41-.1-.82-.45-1.05-.35-.22-.8-.2-1.13.05-2.14,1.61-4.74,2.57-7.4,2.76v-1.72l1.89-3.79c.16-.31.14-.68-.04-.98-.18-.29-.5-.47-.85-.47h-4c-.33,0-.65.17-.83.45l-2,3c-.11.16-.17.35-.17.55v2.96c-2.66-.19-5.26-1.15-7.4-2.76-.33-.25-.77-.22-1.12,0-.35.22-.52.69-.44,1.09.42,2.13,1.33,4.1,2.62,5.79-6.41,1.84-9.66,6.18-9.66,12.92,0,10.47,7.98,26,19,26,8.9,0,16.37-10.6,18.44-20.84.11-.54-.24-1.07-.78-1.18-.54-.11-1.07.24-1.18.78-1.87,9.25-8.71,19.24-16.48,19.24-9,0-17-13.42-17-24,0-5.87,2.61-9.39,8.17-10.98-2.12,1.22-3.65,3.3-4.15,5.78-.06.3.02.6.21.83.19.24.47.37.77.37,2.69,0,5.36-.7,7.72-1.99-.14,3.03,1.21,5.94,3.68,7.79.18.13.39.2.6.2s.42-.07.6-.2c2.47-1.85,3.82-4.76,3.68-7.79,2.36,1.29,5.03,1.99,7.72,1.99.3,0,.58-.13.77-.37.19-.23.27-.53.21-.83-.5-2.49-2.04-4.57-4.16-5.79,4.65,1.32,7.19,3.94,7.95,8.18ZM37.4,19.2c-.32.24-.46.64-.38,1.02.09.39.4.68.78.76,2.2.44,3.99,1.94,4.83,3.95-2.53-.25-4.99-1.2-7.03-2.73-.33-.24-.77-.27-1.12-.05-.35.21-.53.61-.47,1.01l.18,1.07c.4,2.42-.43,4.83-2.19,6.47-1.76-1.64-2.59-4.05-2.19-6.47l.18-1.07c.06-.4-.12-.8-.47-1.01-.16-.1-.34-.15-.52-.15-.21,0-.42.07-.6.2-2.04,1.53-4.5,2.48-7.03,2.73.84-2.01,2.63-3.51,4.83-3.95.38-.08.69-.37.78-.76.08-.38-.06-.78-.38-1.02-1.72-1.29-3.05-3-3.88-4.95,2.25,1.14,4.76,1.75,7.28,1.75.55,0,1-.45,1-1v-3.7l1.54-2.3h1.84l-1.27,2.55c-.07.14-.11.29-.11.45v3c0,.55.45,1,1,1,2.52,0,5.03-.61,7.28-1.75-.83,1.95-2.16,3.66-3.88,4.95Z"/>
  <path d="M22,33c0-.553-.448-1-1-1s-1,.447-1,1v2c0,.553.448,1,1,1s1-.447,1-1v-2Z"/>
  <path d="M23,42c.552,0,1-.447,1-1v-2c0-.553-.448-1-1-1s-1,.447-1,1v2c0,.553.448,1,1,1Z"/>
  <path d="M26,44c-.552,0-1,.447-1,1v2c0,.553.448,1,1,1s1-.447,1-1v-2c0-.553-.448-1-1-1Z"/>
  <path d="M32,49c-.552,0-1,.447-1,1v2c0,.553.448,1,1,1s1-.447,1-1v-2c0-.553-.448-1-1-1Z"/>
  <path d="M42,33v2c0,.553.448,1,1,1s1-.447,1-1v-2c0-.553-.448-1-1-1s-1,.447-1,1Z"/>
  <path d="M39,33c0-.553-.448-1-1-1s-1,.447-1,1v2c0,.553.448,1,1,1s1-.447,1-1v-2Z"/>
  <path d="M40,39v2c0,.553.448,1,1,1s1-.447,1-1v-2c0-.553-.448-1-1-1s-1,.447-1,1Z"/>
  <path d="M34,39v2c0,.553.448,1,1,1s1-.447,1-1v-2c0-.553-.448-1-1-1s-1,.447-1,1Z"/>
  <path d="M27,33c0-.553-.448-1-1-1s-1,.447-1,1v2c0,.553.448,1,1,1s1-.447,1-1v-2Z"/>
  <path d="M28,39v2c0,.553.448,1,1,1s1-.447,1-1v-2c0-.553-.448-1-1-1s-1,.447-1,1Z"/>
  <path d="M38,44c-.552,0-1,.447-1,1v2c0,.553.448,1,1,1s1-.447,1-1v-2c0-.553-.448-1-1-1Z"/>
  <path d="M33,44c0-.553-.448-1-1-1s-1,.447-1,1v2c0,.553.448,1,1,1s1-.447,1-1v-2Z"/>
  <circle cx="50" cy="32" r="1"/>
</svg>