<?xml version="1.0" encoding="UTF-8"?>
<svg id="Outline" xmlns="http://www.w3.org/2000/svg" version="1.1" viewBox="0 0 64 64">
  <!-- Generator: Adobe Illustrator 29.5.1, SVG Export Plug-In . SVG Version: 2.1.0 Build 141)  -->
  <path d="M56,7h-6c-.404,0-.77.243-.924.617-.155.374-.069.804.217,1.09l.879.879-7.172,7.172-4.293-4.293c-.391-.391-1.023-.391-1.414,0l-8,8c-.391.391-.391,1.023,0,1.414l2.828,2.828c.195.195.451.293.707.293s.512-.098.707-.293l4.465-4.465,4.293,4.293c.391.391,1.023.391,1.414,0l10.707-10.707.879.879c.287.287.717.374,1.09.217.374-.154.617-.52.617-.924v-6c0-.553-.447-1-1-1ZM55,11.604c-.39-.282-.94-.249-1.293.104l-10.707,10.707-4.293-4.293c-.391-.391-1.023-.391-1.414,0l-4.465,4.465-1.414-1.414,6.586-6.586,4.293,4.293c.391.391,1.023.391,1.414,0l8.586-8.586c.353-.353.387-.902.104-1.293h2.604v2.604Z"/>
  <path d="M28,31h-1.18l-1.6-8h.78c.55,0,1-.45,1-1v-4c0-.55-.45-1-1-1h-4v-2h1c.55,0,1-.45,1-1s-.45-1-1-1h-1v-1c0-.55-.45-1-1-1s-1,.45-1,1v1h-1c-.55,0-1,.45-1,1s.45,1,1,1h1v2h-4c-.55,0-1,.45-1,1v4c0,.55.45,1,1,1h.78l-1.6,8h-1.18c-.55,0-1,.45-1,1v4c0,.55.45,1,1,1h14c.55,0,1-.45,1-1v-4c0-.55-.45-1-1-1ZM17,19h8v2h-8v-2ZM24.78,31h-7.56l1.6-8h4.36l1.6,8ZM27,35h-12v-2h12v2Z"/>
  <path d="M56,51h-5v-15c0-.55-.45-1-1-1s-1,.45-1,1v15h-4v-22h4v3c0,.55.45,1,1,1s1-.45,1-1v-4c0-.55-.45-1-1-1h-6c-.55,0-1,.45-1,1v23h-2v-3c0-.55-.45-1-1-1s-1,.45-1,1v3h-4v-16h4v9c0,.55.45,1,1,1s1-.45,1-1v-10c0-.55-.45-1-1-1h-6c-.55,0-1,.45-1,1v17h-2v-11c0-.55-.45-1-1-1h-6c-.55,0-1,.45-1,1v11h-2v-5c0-.55-.45-1-1-1h-6c-.55,0-1,.45-1,1v5h-4v-3h1c.55,0,1-.45,1-1s-.45-1-1-1h-1v-4h1c.55,0,1-.45,1-1s-.45-1-1-1h-1v-4h1c.55,0,1-.45,1-1s-.45-1-1-1h-1v-4h1c.55,0,1-.45,1-1s-.45-1-1-1h-1v-4h1c.55,0,1-.45,1-1s-.45-1-1-1h-1v-4h1c.55,0,1-.45,1-1s-.45-1-1-1h-1v-4h1c.55,0,1-.45,1-1s-.45-1-1-1h-1v-2c0-.55-.45-1-1-1s-1,.45-1,1v48c0,.55.45,1,1,1h48c.55,0,1-.45,1-1v-4c0-.55-.45-1-1-1ZM25,41h4v10h-4v-10ZM15,47h4v4h-4v-4ZM55,55H9v-2h46v2Z"/>
</svg>