<?xml version="1.0" encoding="UTF-8"?>
<svg id="Outline" xmlns="http://www.w3.org/2000/svg" version="1.1" viewBox="0 0 64 64">
  <!-- Generator: Adobe Illustrator 29.3.1, SVG Export Plug-In . SVG Version: 2.1.0 Build 151)  -->
  <path d="M54,7h-19c-.54999,0-1,.45001-1,1s.45001,1,1,1h19c.54999,0,1,.45001,1,1v24c0,.54999-.45001,1-1,1H22c-.54999,0-1-.45001-1-1V10c0-.54999.45001-1,1-1h5c.54999,0,1-.45001,1-1s-.45001-1-1-1h-5c-1.65002,0-3,1.34998-3,3v3h-2v-1c0-.54999-.45001-1-1-1h-1v-3c0-.54999-.45001-1-1-1h-4c-.54999,0-1,.45001-1,1v3h-1c-.54999,0-1,.45001-1,1v4c0,.54999.45001,1,1,1h1v12h-1c-.54999,0-1,.45001-1,1v4c0,.54999.45001,1,1,1h1v21c0,.54999.45001,1,1,1h4c.54999,0,1-.45001,1-1v-21h1c.54999,0,1-.45001,1-1v-1h2v1c0,1.64996,1.34998,3,3,3h32c1.65002,0,3-1.35004,3-3V10c0-1.65002-1.34998-3-3-3ZM11,9h2v2h-2v-2ZM9,13h6v2h-6v-2ZM13,17v12h-2v-12h2ZM13,55h-2v-20h2v20ZM15,33h-6v-2h6v2ZM19,31h-2v-1c0-.54999-.45001-1-1-1h-1v-12h1c.54999,0,1-.45001,1-1v-1h2v16Z"/>
  <path d="M23,12v20c0,.55225.44775,1,1,1h28c.55225,0,1-.44775,1-1V12c0-.55225-.44775-1-1-1h-28c-.55225,0-1,.44775-1,1ZM25,13h26s0,17.99961-.00001,18c-5.64226,0-11.28452,0-16.92678,0-.53043,0-9.07321,0-9.07321,0V13Z"/>
  <path d="M42.70703,15.29297c-.28662-.28662-.7168-.37158-1.08984-.2168-.37354.15479-.61719.51953-.61719.92383v2h-13c-.55225,0-1,.44775-1,1v6c0,.55225.44775,1,1,1h13v2c0,.40423.24358.76893.61701.92375.34313.14226.80433.06896,1.09002-.21672l6-6c.39062-.39062.39062-1.02344,0-1.41406l-6-6ZM43,25.58594v-.58594c0-.55225-.44775-1-1-1h-13v-4h13c.55225,0,1-.44775,1-1v-.58594l3.58594,3.58594-3.58594,3.58594Z"/>
  <circle cx="31" cy="8" r="1"/>
</svg>