<?xml version="1.0" encoding="UTF-8"?>
<svg id="Outline" xmlns="http://www.w3.org/2000/svg" version="1.1" viewBox="0 0 64 64">
  <!-- Generator: Adobe Illustrator 29.3.1, SVG Export Plug-In . SVG Version: 2.1.0 Build 151)  -->
  <path d="M49.71997,7.31c-.18994-.20001-.44995-.31-.71997-.31h-19c-.54999,0-1,.45001-1,1s.45001,1,1,1h13.96002l-1.92004,46h-20.07996l-1.92004-46h1.96002c.54999,0,1-.45001,1-1s-.45001-1-1-1h-7c-.27002,0-.53003.10999-.71997.31-.19.19-.29004.45996-.28003.72998l2,48c.02002.53998.46002.96002,1,.96002h30c.53998,0,.97998-.42004,1-.96002l2-48c.01001-.27002-.09003-.53998-.28003-.72998ZM17.96002,55l-1.92004-46h2l1.92004,46h-2ZM46.03998,55h-2l1.92004-46h2l-1.92004,46Z"/>
  <path d="M36,31h-.56c.34998-.59003.56-1.27002.56-2v-2c0-2.21002-1.78998-4-4-4s-4,1.78998-4,4v2c0,.72998.21002,1.40997.56,2h-.56c-2.76001,0-5,2.23999-5,5v6c0,1.64996,1.34998,3,3,3,.34998,0,.69-.07001,1-.17999v7.17999c0,.54999.45001,1,1,1h8c.54999,0,1-.45001,1-1v-7.17999c.31.10999.65002.17999,1,.17999,1.65002,0,3-1.35004,3-3v-6c0-2.76001-2.23999-5-5-5ZM30,27c0-1.10004.90002-2,2-2s2,.89996,2,2v2c0,1.09998-.90002,2-2,2s-2-.90002-2-2v-2ZM39,42c0,.54999-.45001,1-1,1s-1-.45001-1-1v-3c0-.54999-.45001-1-1-1s-1,.45001-1,1v12h-2v-7c0-.54999-.45001-1-1-1s-1,.45001-1,1v7h-2v-12c0-.54999-.45001-1-1-1s-1,.45001-1,1v3c0,.54999-.45001,1-1,1s-1-.45001-1-1v-6c0-1.65002,1.34998-3,3-3h8c1.65002,0,3,1.34998,3,3v6Z"/>
  <circle cx="26" cy="8" r="1"/>
</svg>