<?xml version="1.0" encoding="UTF-8"?>
<svg id="Outline" xmlns="http://www.w3.org/2000/svg" version="1.1" viewBox="0 0 64 64">
  <!-- Generator: Adobe Illustrator 29.5.1, SVG Export Plug-In . SVG Version: 2.1.0 Build 141)  -->
  <path d="M45.9,34.42l-1.13-.21c.76-.86,1.23-1.99,1.23-3.21,0-.33-.17-.65-.45-.83-1.59-1.07-2.55-2.85-2.55-4.78v-2.17c.61-.55,1-1.34,1-2.22s-.39-1.67-1-2.22v-.78c0-6.07-4.93-11-11-11s-11,4.93-11,11v.78c-.61.55-1,1.34-1,2.22s.39,1.67,1,2.22v2.17c0,1.93-.96,3.71-2.55,4.78-.28.18-.45.5-.45.83,0,1.22.47,2.35,1.23,3.21l-1.13.21c-2.38.43-4.1,2.5-4.1,4.92v9.66c0,2.76,2.24,5,5,5h1c0,1.65,1.35,3,3,3h6c.55,0,1-.45,1-1s-.45-1-1-1h-6c-.55,0-1-.45-1-1v-2c.55,0,1-.45,1-1v-6c0-.55-.45-1-1-1v-2c0-.55.45-1,1-1h18c.55,0,1,.45,1,1v2c-.55,0-1,.45-1,1v6c0,.55.45,1,1,1v2c0,.55-.45,1-1,1h-4c-.55,0-1,.45-1,1s.45,1,1,1h4c1.65,0,3-1.35,3-3h1c2.76,0,5-2.24,5-5v-9.66c0-2.42-1.72-4.49-4.1-4.92ZM43.96,31.48c-.18,1.04-.92,1.89-1.96,2.23l-3.16-.57-.74-3.53c1.55-1.44,2.6-3.4,2.84-5.61h.06v1.39c0,2.4,1.1,4.63,2.96,6.09ZM32,9c4.96,0,9,4.04,9,9h-3c-1.41,0-2.76-.32-4.02-.96-1.25-.62-2.35-1.53-3.18-2.64-.19-.25-.47-.44-.8-.4-.31,0-.61.15-.8.4l-1.2,1.6c-.94,1.25-2.43,2-4,2h-1c0-4.96,4.04-9,9-9ZM23,20h1c2.19,0,4.29-1.05,5.6-2.8l.45-.6c.87.91,1.9,1.67,3.03,2.23,1.54.78,3.19,1.17,4.92,1.17h3c.55,0,1,.45,1,1s-.45,1-1,1h-1c-.55,0-1,.45-1,1,0,3.86-3.14,7-7,7s-7-3.14-7-7c0-.55-.45-1-1-1h-1c-.55,0-1-.45-1-1s.45-1,1-1ZM23,25.39v-1.39h.06c.24,2.21,1.29,4.17,2.84,5.61l-.74,3.53-3.17.57c-1.02-.32-1.77-1.19-1.95-2.23,1.86-1.46,2.96-3.69,2.96-6.09ZM21,50c-1.1,0-2-.9-2-2s.9-2,2-2v4ZM23,39c-1.65,0-3,1.35-3,3v2.14c-1.72.45-3,2-3,3.86s1.28,3.41,3,3.86v.14h-1c-1.65,0-3-1.35-3-3v-9.66c0-1.45,1.03-2.69,2.46-2.96l6.81-1.23,1.03,3.85h-3.3ZM35.63,39h-7.26l-1.34-5.03.65-3.09c1.28.71,2.75,1.12,4.32,1.12s3.04-.41,4.32-1.12l.65,3.09-1.34,5.03ZM43,50v-4c1.1,0,2,.9,2,2s-.9,2-2,2ZM48,49c0,1.65-1.35,3-3,3h-1v-.14c1.72-.45,3-2,3-3.86s-1.28-3.41-3-3.86v-2.14c0-1.65-1.35-3-3-3h-3.3l1.03-3.85,6.81,1.23c1.43.27,2.46,1.51,2.46,2.96v9.66Z"/>
  <circle cx="33" cy="56" r="1"/>
</svg>