<?xml version="1.0" encoding="UTF-8"?>
<svg id="Outline" xmlns="http://www.w3.org/2000/svg" version="1.1" viewBox="0 0 64 64">
  <!-- Generator: Adobe Illustrator 29.5.1, SVG Export Plug-In . SVG Version: 2.1.0 Build 141)  -->
  <path d="M24.133,26.083c1.858-.139,3.687-.659,5.385-1.548l1.979.88c.13.058.268.086.406.086.19,0,.38-.055.545-.162.284-.185.455-.5.455-.838,0-7.168-5.832-13-13-13-6.185,0-11.547,4.396-12.75,10.453-.172.865.053,1.756.618,2.444.575.701,1.425,1.103,2.331,1.103h2.12c1.389,0,2.666-.197,3.875-.551v.311c0,2.471-.525,5.09-1.649,8.235-.357.973-.441,2.05-.246,3.112.425,2.366,2.283,4.28,4.629,4.764.431.086.853.129,1.262.129.217,0,.431-.012.639-.037.549-.064.941-.561.877-1.109-.064-.549-.569-.946-1.109-.877-.394.046-.824.023-1.272-.066-1.523-.314-2.78-1.612-3.059-3.162-.134-.724-.082-1.418.159-2.072,1.206-3.376,1.768-6.209,1.768-8.917v-.085c1.314.509,2.672.805,4.037.902.09,3.005.604,5.582,1.609,7.8.131.294.225.599.279.906.085.485.507.827.984.827.057,0,.116-.005.174-.015.544-.096.907-.614.812-1.158-.082-.467-.224-.929-.424-1.379-.89-1.963-1.347-4.268-1.434-6.975ZM19.484,23.533c2.405-.96,5.051-.984,7.495-.084-2.417.841-5.03.877-7.495.084ZM21.984,13.701c-.305,1.036-1.254,1.8-2.388,1.8-1.07,0-1.991-.704-2.338-1.669.852-.212,1.737-.331,2.645-.331.711,0,1.407.07,2.081.2ZM11.987,16.881c.066.199.109.405.109.62,0,1.099-.89,1.992-1.987,1.999.496-.969,1.133-1.847,1.878-2.618ZM10.102,23.501c-.305,0-.591-.136-.785-.372-.107-.131-.277-.407-.202-.785.062-.313.138-.62.226-.922.248.048.5.079.755.079,2.206,0,4-1.794,4-4,0-.705-.2-1.373-.542-1.971.57-.404,1.177-.755,1.817-1.045.61,1.762,2.255,3.016,4.225,3.016,2.044,0,3.754-1.378,4.3-3.247,3.622,1.416,6.316,4.697,6.892,8.657l-2.342-1.042c-3.548-1.576-7.548-1.432-10.974.394-1.561.833-3.278,1.237-5.251,1.237h-2.12Z"/>
  <path d="M43.903,22.501c-6.185,0-11.547,4.396-12.75,10.453-.172.865.053,1.756.618,2.444.575.701,1.425,1.103,2.331,1.103h2.12c1.389,0,2.666-.197,3.875-.551v.307c0,2.474-.526,5.095-1.654,8.248-.352.983-.436,2.059-.244,3.111.432,2.358,2.29,4.269,4.624,4.753.422.088.846.131,1.266.131,1.379,0,2.714-.464,3.793-1.342,1.408-1.146,2.215-2.843,2.215-4.656,0-.851-.177-1.672-.525-2.441-.887-1.961-1.344-4.253-1.436-6.977,1.858-.139,3.686-.66,5.383-1.548l1.979.88c.13.058.268.086.406.086.544,0,1-.454,1-1,0-7.168-5.832-13-13-13ZM53.021,29.355c-.295.096-.606.146-.925.146-1.654,0-3-1.346-3-3,0-.22.039-.43.085-.637,1.539.846,2.86,2.042,3.84,3.491ZM42.096,26.501c0,1.654-1.346,3-3,3-1.253,0-2.361-.788-2.804-1.932,1.441-1.38,3.252-2.358,5.245-2.799.359.509.559,1.106.559,1.732ZM43.484,34.533c2.405-.96,5.051-.983,7.495-.084-2.417.841-5.029.877-7.495.084ZM46.619,49.605c-.953.776-2.157,1.061-3.391.805-1.545-.321-2.775-1.589-3.062-3.155-.131-.717-.078-1.416.159-2.077,1.208-3.375,1.771-6.21,1.771-8.921v-.081c1.314.509,2.672.805,4.037.903.09,2.996.605,5.573,1.616,7.806.23.509.347,1.053.347,1.617,0,1.209-.539,2.341-1.478,3.104ZM52.446,32.869c-3.548-1.575-7.548-1.432-10.974.394-1.561.833-3.278,1.237-5.251,1.237h-2.12c-.305,0-.591-.136-.785-.372-.107-.131-.277-.407-.202-.785.304-1.53.927-2.931,1.784-4.148.904,1.396,2.464,2.306,4.198,2.306,2.757,0,5-2.243,5-5,0-.695-.15-1.367-.421-1.99.077-.002.152-.01.229-.01,1.193,0,2.339.201,3.415.554-.142.467-.222.952-.222,1.446,0,2.757,2.243,5,5,5,.66,0,1.295-.142,1.892-.388.384.879.658,1.817.801,2.798l-2.342-1.042Z"/>
  <circle cx="24.096" cy="38.501" r="1"/>
</svg>