<?xml version="1.0" encoding="UTF-8"?>
<svg id="Outline" xmlns="http://www.w3.org/2000/svg" version="1.1" viewBox="0 0 64 64">
  <!-- Generator: Adobe Illustrator 29.5.1, SVG Export Plug-In . SVG Version: 2.1.0 Build 141)  -->
  <path d="M54,31h-4v-8.78c1.96-1.55,3-3.35,3-5.22,0-5.61-9.22-10-21-10s-21,4.39-21,10c0,1.87,1.04,3.67,3,5.22v8.78h-4c-1.65,0-3,1.35-3,3v2c0,1.32.86,2.43,2.04,2.83.44,10.09,8.76,18.17,18.96,18.17h8c10.2,0,18.52-8.08,18.96-18.17,1.18-.4,2.04-1.51,2.04-2.83v-2c0-1.65-1.35-3-3-3ZM13,17c0-3.86,7.63-8,19-8s19,4.14,19,8c0,1.68-1.41,3.06-2.59,3.92-.26.18-.41.48-.41.8v9.28h-2v-10.8l1.24-.9c1.12-.82,1.76-1.65,1.76-2.3,0-2.42-7.14-6-17-6s-17,3.58-17,6c0,.65.64,1.48,1.76,2.3l1.24.9v10.8h-2v-9.28c0-.32-.15-.62-.41-.8-1.18-.86-2.59-2.24-2.59-3.92ZM19.59,18.88l-1.65-1.2c-.43-.31-.68-.56-.82-.73.93-1.08,5.83-3.95,14.88-3.95s13.95,2.87,14.88,3.95c-.14.17-.39.42-.82.73l-1.65,1.2c-.26.18-.41.49-.41.81v11.31h-24v-11.31c0-.32-.15-.63-.41-.81ZM36,55h-8c-9.04,0-16.45-7.09-16.97-16h41.94c-.52,8.91-7.93,16-16.97,16ZM55,36c0,.55-.45,1-1,1H10c-.55,0-1-.45-1-1v-2c0-.55.45-1,1-1h44c.55,0,1,.45,1,1v2Z"/>
  <path d="M13.624,42.286c1.884,6.309,7.796,10.714,14.376,10.714h8c6.58,0,12.492-4.405,14.376-10.714.158-.529-.143-1.086-.672-1.244-.532-.157-1.086.143-1.244.672-1.634,5.468-6.757,9.286-12.46,9.286h-8c-5.703,0-10.826-3.818-12.46-9.286-.159-.529-.714-.829-1.244-.672-.529.158-.83.715-.672,1.244Z"/>
</svg>