<?xml version="1.0" encoding="UTF-8"?>
<svg id="Outline" xmlns="http://www.w3.org/2000/svg" version="1.1" viewBox="0 0 64 64">
  <!-- Generator: Adobe Illustrator 29.5.1, SVG Export Plug-In . SVG Version: 2.1.0 Build 141)  -->
  <path d="M56,27c.55,0,1-.45,1-1v-12c0-1.65-1.35-3-3-3h-3v-1c0-1.65-1.35-3-3-3s-3,1.35-3,3v1h-10v-1c0-1.65-1.35-3-3-3s-3,1.35-3,3v1h-10v-1c0-1.65-1.35-3-3-3s-3,1.35-3,3v1h-3c-1.65,0-3,1.35-3,3v40c0,1.65,1.35,3,3,3h44c1.65,0,3-1.35,3-3v-24c0-.55-.45-1-1-1s-1,.45-1,1v24c0,.55-.45,1-1,1H10c-.55,0-1-.45-1-1V21h2v31c0,.55.45,1,1,1h40c.55,0,1-.45,1-1v-31h2v5c0,.55.45,1,1,1ZM47,10c0-.55.45-1,1-1s1,.45,1,1v1h-2v-1ZM31,10c0-.55.45-1,1-1s1,.45,1,1v1h-2v-1ZM15,10c0-.55.45-1,1-1s1,.45,1,1v1h-2v-1ZM41,19c-.55,0-1,.45-1,1s.45,1,1,1h10v30H13v-30h24c.55,0,1-.45,1-1s-.45-1-1-1H9v-5c0-.55.45-1,1-1h3v1c0,1.65,1.35,3,3,3,.55,0,1-.45,1-1s-.45-1-1-1-1-.45-1-1v-1h14v1c0,1.65,1.35,3,3,3,.55,0,1-.45,1-1s-.45-1-1-1-1-.45-1-1v-1h14v1c0,1.65,1.35,3,3,3,.55,0,1-.45,1-1s-.45-1-1-1-1-.45-1-1v-1h7c.55,0,1,.45,1,1v5h-14Z"/>
  <path d="M32,23c-6.065,0-11,4.935-11,11v3.395c0,2.16-.634,4.252-1.832,6.051-.205.307-.224.702-.05,1.026.174.325.513.528.882.528h7.101c.465,2.279,2.484,4,4.899,4s4.434-1.721,4.899-4h7.101c.369,0,.708-.203.882-.528.174-.325.155-.719-.05-1.026-1.198-1.798-1.832-3.891-1.832-6.051v-3.395c0-6.065-4.935-11-11-11ZM32,47c-1.302,0-2.402-.839-2.816-2h5.631c-.414,1.161-1.514,2-2.816,2ZM42.279,43h-20.559c.841-1.742,1.279-3.65,1.279-5.605v-3.395c0-4.962,4.037-9,9-9s9,4.038,9,9v3.395c0,1.956.438,3.864,1.279,5.605Z"/>
  <path d="M32,28c-.12,0-.241.002-.284.011-1.06.046-2.078.389-2.958.952v-.62c0-.552-.447-1-1-1s-1,.448-1,1v2.828c0,.552.447,1,1,1h2.828c.553,0,1-.448,1-1,0-.481-.347-.865-.8-.96.349-.112.712-.192,1.095-.209.02-.002.04-.003.06-.003,1.913.018,3.516,1.24,3.947,3.061.108.46.519.77.972.77.635,0,1.12-.61.974-1.23-.641-2.708-3.039-4.6-5.833-4.6Z"/>
  <path d="M36.242,35.829h-2.828c-.553,0-1,.448-1,1,0,.481.347.865.8.96-.349.112-.712.192-1.095.209-.02.002-.04.003-.06.003-1.876.015-3.516-1.24-3.947-3.061-.127-.538-.668-.869-1.203-.743-.537.127-.87.666-.742,1.203.641,2.708,3.039,4.6,5.833,4.6.12,0,.241-.002.284-.011,1.06-.046,2.078-.389,2.958-.952v.62c0,.552.447,1,1,1s1-.448,1-1v-2.828c0-.552-.447-1-1-1Z"/>
</svg>