<?xml version="1.0" encoding="UTF-8"?>
<svg id="Outline" xmlns="http://www.w3.org/2000/svg" version="1.1" viewBox="0 0 64 64">
  <!-- Generator: Adobe Illustrator 29.3.1, SVG Export Plug-In . SVG Version: 2.1.0 Build 151)  -->
  <path d="M54,17h-5v-7c0-1.6543-1.3457-3-3-3h-28c-1.6543,0-3,1.3457-3,3v7h-5c-1.6543,0-3,1.3457-3,3v22c0,1.6543,1.3457,3,3,3h19.01611c.04156,2.04486.59033,4.05487,1.61963,5.8252.89258,1.53564,1.36426,3.28662,1.36426,5.06299v.11182c0,.55225.44727,1,1,1h14c.55273,0,1-.44775,1-1v-.11182c0-1.77637.47168-3.52734,1.36426-5.06299,1.0293-1.77032,1.57806-3.78033,1.61963-5.8252h3.01611c1.6543,0,3-1.3457,3-3v-22c0-1.6543-1.3457-3-3-3ZM55,20v22c0,.04852-.021.09027-.02771.13696l-3.97229-2.58014v-3.16962c0-1.68994-1.3457-3.06445-3-3.06445-.53223,0-1.0332.14258-1.4668.39209-.5332-.85547-1.46875-1.42432-2.5332-1.42432-.76758,0-1.46875.2959-2,.78223-.77344-.7085-2.00391-.96875-3-.60742v-2.22247l15.97223-10.37994c.00671.04675.02777.0885.02777.13708ZM51,41.94244l1.62817,1.05756h-1.62817v-1.05756ZM52.63007,19l-3.63007,2.35907v-2.35907h3.63007ZM17,10c0-.55127.44824-1,1-1h28c.55176,0,1,.44873,1,1v12.65881l-8,5.19897v-1.79333c0-1.68994-1.3457-3.06445-3-3.06445s-3,1.37451-3,3.06445v3.93555h-4.7038l-11.2962-7.34113v-12.65887ZM29,42.58057v.41943H11.36993l16.92627-11h4.7038v7.51611h-1c-1.6543,0-3,1.37451-3,3.06445ZM9,42v-22c0-.04858.02106-.09033.02777-.13708l17.13727,11.13708-17.13727,11.13708c-.00671-.04675-.02777-.0885-.02777-.13708ZM15,21.35913l-3.63007-2.35913h3.63007v2.35913ZM49,44.75684c0,1.77637-.47168,3.52734-1.36426,5.06348-.9209,1.58398-1.46777,3.3584-1.60254,5.17969h-12.06641c-.13477-1.82129-.68164-3.5957-1.60254-5.17969-.89258-1.53613-1.36426-3.28711-1.36426-5.06348v-2.17627c0-.58691.44824-1.06445,1-1.06445h2c.55273,0,1-.44775,1-1v-14.45166c0-.58691.44824-1.06445,1-1.06445s1,.47754,1,1.06445v13.41943c0,.55225.44727,1,1,1s1-.44775,1-1v-4.12891c0-.58691.44824-1.06445,1-1.06445s1,.47754,1,1.06445v4.12891c0,.55225.44727,1,1,1s1-.44775,1-1v-4.12891c0-.58691.44824-1.06445,1-1.06445s1,.47754,1,1.06445v4.12891c0,.55225.44727,1,1,1s1-.44775,1-1v-3.09668c0-.58691.44824-1.06445,1-1.06445s1,.47754,1,1.06445v8.36963Z"/>
  <path d="M20,13h24c.55273,0,1-.44775,1-1s-.44727-1-1-1h-24c-.55273,0-1,.44775-1,1s.44727,1,1,1Z"/>
  <path d="M41,15h-18c-.55273,0-1,.44775-1,1s.44727,1,1,1h18c.55273,0,1-.44775,1-1s-.44727-1-1-1Z"/>
  <path d="M41,19h-18c-.55273,0-1,.44775-1,1s.44727,1,1,1h18c.55273,0,1-.44775,1-1s-.44727-1-1-1Z"/>
</svg>