<?xml version="1.0" encoding="UTF-8"?>
<svg id="Outline" xmlns="http://www.w3.org/2000/svg" version="1.1" viewBox="0 0 48 48">
  <!-- Generator: Adobe Illustrator 29.5.1, SVG Export Plug-In . SVG Version: 2.1.0 Build 141)  -->
  <path d="M40,5H8c-1.65,0-3,1.35-3,3v32c0,1.65,1.35,3,3,3h32c1.65,0,3-1.35,3-3V8c0-1.65-1.35-3-3-3ZM12.79,8.66l.21-.42c.38-.77,1.15-1.24,2-1.24h2.41c-.07.11-.14.22-.2.34l-.21.42c-.38.77-1.15,1.24-2,1.24h-2.41c.07-.11.14-.22.2-.34ZM7,8c0-.55.45-1,1-1h3.41c-.07.11-.14.22-.2.34l-.21.42c-.38.77-1.15,1.24-2,1.24h-2v-1ZM24,41c-4.41,0-8-3.59-8-8s3.59-8,8-8,8,3.59,8,8-3.59,8-8,8ZM41,40c0,.55-.45,1-1,1h-10.03c2.44-1.83,4.03-4.73,4.03-8,0-5.51-4.49-10-10-10s-10,4.49-10,10c0,3.27,1.59,6.17,4.03,8h-10.03c-.55,0-1-.45-1-1V11h34v29ZM41,9h-22.41c.07-.11.14-.22.2-.34l.21-.42c.38-.77,1.15-1.24,2-1.24h19c.55,0,1,.45,1,1v1Z"/>
  <path d="M14,13.494c-1.341-.797-3.202-.58-4.332.55-.673.673-1.044,1.567-1.044,2.52s.371,1.846,1.044,2.519l3.625,3.625c.195.195.451.293.707.293s.512-.098.707-.293l3.625-3.625c.673-.673,1.044-1.567,1.044-2.519s-.371-1.847-1.044-2.52c-1.131-1.13-2.99-1.347-4.332-.55ZM16.918,17.668l-2.918,2.918-2.918-2.918c-.609-.609-.609-1.601,0-2.21.305-.305.705-.457,1.105-.457s.801.152,1.105.457c.391.391,1.023.391,1.414,0,.609-.609,1.602-.609,2.211,0s.609,1.601,0,2.21Z"/>
  <path d="M24,13h-2c-.553,0-1,.447-1,1s.447,1,1,1h2c.553,0,1-.447,1-1s-.447-1-1-1Z"/>
  <path d="M24,17h-2c-.553,0-1,.447-1,1s.447,1,1,1h2c.553,0,1-.447,1-1s-.447-1-1-1Z"/>
  <path d="M38,13h-10c-.553,0-1,.447-1,1s.447,1,1,1h10c.553,0,1-.447,1-1s-.447-1-1-1Z"/>
  <path d="M38,17h-10c-.553,0-1,.447-1,1s.447,1,1,1h10c.553,0,1-.447,1-1s-.447-1-1-1Z"/>
  <path d="M23.236,31h2.764c.553,0,1-.447,1-1s-.447-1-1-1h-1v-1c0-.553-.447-1-1-1s-1,.447-1,1v1.024c-1.121.12-2,1.06-2,2.211,0,.854.474,1.619,1.236,2l2.634,1.317c.08.04.13.121.13.211,0,.13-.106.236-.236.236h-2.764c-.553,0-1,.447-1,1s.447,1,1,1h1v1c0,.553.447,1,1,1s1-.447,1-1v-1.024c1.121-.12,2-1.06,2-2.212,0-.854-.474-1.62-1.236-2l-2.634-1.317c-.08-.04-.13-.121-.13-.211,0-.13.106-.235.236-.235Z"/>
</svg>