<?xml version="1.0" encoding="UTF-8"?>
<svg id="Outline" xmlns="http://www.w3.org/2000/svg" version="1.1" viewBox="0 0 64 64">
  <!-- Generator: Adobe Illustrator 29.5.1, SVG Export Plug-In . SVG Version: 2.1.0 Build 141)  -->
  <path d="M47,15h-1.18c.11-.31.18-.65.18-1v-4c0-1.65-1.35-3-3-3h-22c-1.65,0-3,1.35-3,3v4c0,.35.07.69.18,1h-1.18c-1.65,0-3,1.35-3,3v6c0,.3.13.58.37.77.23.19.53.27.83.21l.8-.16v29.18c0,1.65,1.35,3,3,3h26c1.65,0,3-1.35,3-3v-29.18l.8.16c.07.01.13.02.2.02.547,0,1-.449,1-1v-6c0-1.65-1.35-3-3-3ZM20,13h9c.55,0,1-.45,1-1s-.45-1-1-1h-9v-1c0-.55.45-1,1-1h22c.55,0,1,.45,1,1v1h-9c-.55,0-1,.45-1,1s.45,1,1,1h9v1c0,.55-.45,1-1,1h-22c-.55,0-1-.45-1-1v-1ZM46,54c0,.55-.45,1-1,1h-26c-.55,0-1-.45-1-1v-2.52c4.75-3.94,11.69-3.86,16.34.27.19.17.42.25.659.25.906,0,1.338-1.153.661-1.75-.34-.31-.7-.6-1.07-.87,3.21-1.51,7.04-1.16,9.95,1.02l1.46,1.1v2.5ZM22.33,45.97l1.68-3.62,3.63,1.68-1.2,2.57c-.82-.03-1.65.02-2.47.14l-1.64-.77ZM46,49l-.26-.2c-3.85-2.89-9.05-3.11-13.12-.62-1.3-.66-2.67-1.13-4.07-1.37l1.33-2.85c.11-.24.12-.51.03-.76-.09-.25-.28-.46-.52-.57l-5.45-2.52c-.5-.23-1.1-.01-1.33.49l-2.52,5.44c-.23.5-.01,1.09.49,1.33l.3.14c-1,.37-1.96.88-2.88,1.48v-24.53c1.65-.23,3.32-.23,4.98.05,2,.33,4.04.33,6.04,0l.29-.05c1.78-.3,3.6-.3,5.38,0l.29.05c2,.33,4.04.33,6.04,0,1.66-.28,3.33-.28,4.98-.05v24.54ZM48,22.78l-.68-.14c-1.19-.23-2.4-.35-3.6-.35-1.01,0-2.02.08-3.03.25-1.78.3-3.6.3-5.38,0l-.29-.05c-2-.33-4.04-.33-6.04,0l-.29.05c-1.78.3-3.6.3-5.38,0-2.21-.37-4.43-.33-6.63.1l-.68.14v-4.78c0-.55.45-1,1-1h30c.55,0,1,.45,1,1v4.78Z"/>
  <path d="M43.907,42.055c.111-.241.123-.516.031-.765l-2.064-5.634c-.19-.518-.765-.783-1.282-.595l-5.634,2.064c-.249.091-.452.278-.563.519-.111.24-.123.516-.031.765l2.064,5.633c.148.405.531.656.938.656.114,0,.23-.02.344-.062l5.634-2.064c.249-.091.452-.278.563-.518ZM37.961,42.415l-1.376-3.756,3.756-1.376,1.376,3.756-3.756,1.376Z"/>
</svg>