<?xml version="1.0" encoding="UTF-8"?>
<svg id="Outline" xmlns="http://www.w3.org/2000/svg" version="1.1" viewBox="0 0 64 64">
  <!-- Generator: Adobe Illustrator 29.5.1, SVG Export Plug-In . SVG Version: 2.1.0 Build 141)  -->
  <path d="M56.79,28.378c-.19-.24-.48-.38-.79-.38h-2.07c-1.31-9.52-20.7-17.58-21.55-17.92-.24-.1-.52-.1-.76,0-.85.34-20.24,8.4-21.55,17.92h-2.07c-.31,0-.6.14-.79.38-.19.25-.25.56-.18.86l1.63,6.54c2.69,10.73,12.28,18.22,23.34,18.22s20.65-7.49,23.34-18.22l1.63-6.54c.07-.3.01-.61-.18-.86ZM54.22,31.998H20c-.55,0-1,.45-1,1s.45,1,1,1h33.72l-.32,1.3c-2.46,9.83-11.26,16.7-21.4,16.7s-18.94-6.87-21.4-16.7l-.32-1.3h5.72c.55,0,1-.45,1-1s-.45-1-1-1h-6.22l-.5-2h32.72c.55,0,1-.45,1-1s-.45-1-1-1H12.1c1.23-6.69,14.26-13.54,19.9-15.92,5.64,2.38,18.67,9.23,19.9,15.92h-5.9c-.55,0-1,.45-1,1s.45,1,1,1h8.72l-.5,2Z"/>
  <circle cx="17" cy="24.998" r="1"/>
  <circle cx="20" cy="22.998" r="1"/>
  <circle cx="23" cy="24.998" r="1"/>
</svg>