<?xml version="1.0" encoding="UTF-8"?>
<svg id="Outline" xmlns="http://www.w3.org/2000/svg" version="1.1" viewBox="0 0 64 64">
  <!-- Generator: Adobe Illustrator 29.3.1, SVG Export Plug-In . SVG Version: 2.1.0 Build 151)  -->
  <path d="M54,23h-5v-3c0-.54999-.45001-1-1-1h-1v-7c0-2.76001-2.23999-5-5-5h-20c-2.76001,0-5,2.23999-5,5v7h-1c-.54999,0-1,.45001-1,1v3h-5c-1.65002,0-3,1.34998-3,3v28c0,1.64996,1.34998,3,3,3h44c1.65002,0,3-1.35004,3-3v-28c0-1.65002-1.34998-3-3-3ZM48,25v13.14001c-.32001-.08002-.65002-.14001-1-.14001s-.67999.06-1,.14001v-13.14001h2ZM47,21v2h-6v-2h6ZM24,19h-1v-6h18v6h-1c-.54999,0-1,.45001-1,1v3h-14v-3c0-.54999-.45001-1-1-1ZM19,12c0-1.65002,1.34998-3,3-3h20c1.65002,0,3,1.34998,3,3v7h-2v-7c0-.54999-.45001-1-1-1h-20c-.54999,0-1,.45001-1,1v7h-2v-7ZM17,21h6v2h-6v-2ZM16,25h2v13.14001c-.32001-.08002-.65002-.14001-1-.14001s-.67999.06-1,.14001v-13.14001ZM16,55h-6c-.54999,0-1-.45001-1-1v-28c0-.54999.45001-1,1-1h4v14.38c-.60999.70996-1,1.60999-1,2.62,0,1.85999,1.28003,3.40997,3,3.85999v9.14001ZM15,42c0-1.10004.90002-2,2-2s2,.89996,2,2c0,1.09998-.90002,2-2,2s-2-.90002-2-2ZM20.09003,44.51001l3.90997,3.89996v2.59003h-6v-5.14001c.84003-.21997,1.56-.70001,2.09003-1.34998ZM46,55h-28v-2h7c.54999,0,1-.45001,1-1v-4c0-.27002-.10999-.52002-.28998-.71002l-4.76001-4.76001c.01996-.16998.04999-.34998.04999-.52997,0-1.01001-.39001-1.91003-1-2.62v-14.38h24v5h-7c-.54999,0-1,.45001-1,1v6c0,.54999.45001,1,1,1h7v1.38c-.60999.70996-1,1.60999-1,2.62,0,1.85999,1.28003,3.40997,3,3.85999v9.14001ZM44,32v4h-6v-4h6ZM45,42c0-1.10004.90002-2,2-2s2,.89996,2,2c0,1.09998-.90002,2-2,2s-2-.90002-2-2ZM55,54c0,.54999-.45001,1-1,1h-6v-9.14001c1.71997-.45001,3-2,3-3.85999,0-1.01001-.39001-1.91003-1-2.62v-14.38h4c.54999,0,1,.45001,1,1v28Z"/>
  <path d="M32.60449,30.45947c.06738-.25635.03125-.5293-.10156-.75879s-.35156-.39648-.6084-.46484l-7.73145-2.05859c-.52539-.14062-1.08105.17529-1.22363.70898l-1.54395,5.79785c-.06738.25635-.03125.5293.10156.75879s.35156.39648.6084.46484l7.73145,2.05859c.08594.02295.17188.03369.25781.03369.44141,0,.84668-.29541.96582-.74268l1.54395-5.79785ZM29.38477,34.77637l-5.79883-1.54395,1.0293-3.86523,5.79883,1.54395-1.0293,3.86523Z"/>
  <path d="M36,43c-2.75684,0-5,2.24316-5,5s2.24316,5,5,5,5-2.24316,5-5-2.24316-5-5-5ZM36,51c-1.6543,0-3-1.3457-3-3s1.3457-3,3-3,3,1.3457,3,3-1.3457,3-3,3Z"/>
</svg>