<?xml version="1.0" encoding="UTF-8"?>
<svg id="Outline" xmlns="http://www.w3.org/2000/svg" version="1.1" viewBox="0 0 64 64">
  <!-- Generator: Adobe Illustrator 29.3.1, SVG Export Plug-In . SVG Version: 2.1.0 Build 151)  -->
  <path d="M44.19078,45.44l1.69-10.47003c.45996.14001.88995.34003,1.29999.60999,0,0,1.14001.76001,1.15997.77002.28003.16003.59003.19.89001.09003l.78998-.29004c1.76001-.62,3.73004-.25995,5.14001.96002.60004.52002,1.54999.14001,1.65002-.64001l.12-.98999c.81-6.57001-3.88-12.56-10.45001-13.37-6.57001-.79999-12.57001,3.89001-13.37,10.45001l-.12,1c-.04999.35999.10999.71997.40997.94.31.20996.70001.23999,1.03003.07001,1.66998-.84003,3.66998-.72003,5.21997.31,0,0,.73004.47998.75.48999.28003.15997.56.19.86005.09998l1.28998-.45996c.44-.15002.89001-.24005,1.33997-.27002l-1.70996,10.60999c-4.33002.01001-8.66003,1.37-12.29999,4.14001l-.97003.73999c-.82001-.02997-1.63-.33997-2.21997-.94-.39001-.39001-1.03003-.39001-1.42004,0-1.21997,1.22003-3.35999,1.22003-4.57996,0-.39001-.39001-1.03003-.39001-1.42004,0-1.21997,1.22003-3.35999,1.22003-4.57996,0-.39001-.39001-1.03003-.39001-1.42004,0-1.21997,1.22003-3.35999,1.22003-4.57996,0-.39001-.39001-1.03003-.39001-1.42004,0-.38995.39001-.38995,1.03003,0,1.41998.99005.99005,2.31,1.53003,3.71002,1.53003,1.09003,0,2.13-.33002,3-.94,1.75,1.21997,4.25,1.21997,6,0,1.75,1.21997,4.25,1.21997,6,0,.28003.19.58002.34998.88.47998l-4.22003,3.22003H7.98075c-.54999,0-1,.45001-1,1s.45001,1,1,1h48c.54999,0,1-.45001,1-1v-4c0-.27002-.10999-.52002-.28998-.71002-3.46002-3.45001-7.91003-5.40997-12.5-5.84998ZM55.00077,34.62c-1.01001-.51001-2.12-.77002-3.23999-.77002-.58002,0-1.17004.10004-1.75.25.27997-3.46997.04999-6.85999-.80005-9.14996,3.66003,1.69,6.04004,5.5,5.79004,9.66998ZM40.16075,32.85999c-1.52997-.81-3.29999-1.03998-4.96997-.66998.75995-4.11005,3.98999-7.22003,7.94-7.98004-1.37,2.01001-2.40002,5.24005-2.97003,8.65002ZM42.16075,33.04999c1.01001-6.01001,3.15002-9.07001,4.08002-8.95001.92999.10999,2.26001,3.60004,1.78998,9.66998-1.76001-1.06995-3.90997-1.32996-5.87-.71997ZM54.98075,55h-29.03998l5.14996-3.92004c7.19-5.47998,17.38-4.87994,23.89001,1.34003v2.58002Z"/>
  <path d="M7.41532,17.64746c-.36572.25049-.52246.71191-.38574,1.13379.13721.42139.50635.72803.979.69043.64355-.00977,1.27734.28174,1.67041.82275s.49023,1.2124.26562,1.84229c-.14844.41797-.00439.88379.35449,1.14453.35986.26123.84668.25488,1.19775-.0166.52979-.40869,1.19873-.52441,1.83447-.31689.63623.20654,1.10938.69336,1.29834,1.33496.12549.42529.51611.71729.95947.71729s.83398-.29199.95947-.71729c.18896-.6416.66211-1.12842,1.29834-1.33496s1.3042-.0918,1.83447.31689c.35059.27051.83838.27686,1.19727.0166.35889-.26074.50342-.72607.35498-1.14404-.22412-.63037-.12744-1.30225.26562-1.84326.39355-.54102,1.0166-.83496,1.67041-.82227.4707.0293.8418-.26855.979-.69043.13672-.42188-.02002-.8833-.38574-1.13379-.55176-.37842-.86816-.97852-.86816-1.64746s.31641-1.26904.86816-1.64746c.36572-.25049.52246-.71191.38574-1.13379-.13428-.4126-.51904-.69092-.95117-.69092-.00879,0-.01807,0-.02783.00049-.65137.01709-1.27686-.28125-1.67041-.82227-.39307-.54102-.48975-1.21289-.26562-1.84326.14844-.41797.00391-.8833-.35498-1.14404-.35791-.26025-.8457-.25342-1.19727.0166-.53027.40918-1.19824.52441-1.83447.31689-.63623-.20654-1.10938-.69336-1.29834-1.33496-.12549-.42529-.51611-.71729-.95947-.71729s-.83398.29199-.95947.71729c-.18896.6416-.66211,1.12842-1.29834,1.33496-.63574.20703-1.30469.09131-1.83447-.31689-.35205-.27051-.83984-.27783-1.19775-.0166-.35889.26074-.50293.72656-.35449,1.14453.22461.62988.12744,1.30127-.26562,1.84229s-1.0293.8374-1.67041.82275c-.44482-.02002-.8418.26904-.979.69043-.13672.42188.02002.8833.38574,1.13379.55176.37842.86816.97852.86816,1.64746s-.31641,1.26904-.86816,1.64746ZM9.81669,14.12451c.5791-.28271,1.09033-.70605,1.48047-1.24316.39062-.5376.63477-1.15381.72461-1.79199.6333.11182,1.29541.06982,1.92773-.13525.63184-.20508,1.19189-.56006,1.63965-1.02393.44824.46387,1.0083.81885,1.64014,1.02441.63086.20459,1.29199.24756,1.92773.13477.08984.63867.33398,1.25488.72461,1.79248.39014.53711.90088.95996,1.47998,1.24268-.30225.56885-.4668,1.21143-.4668,1.87549s.16455,1.30664.4668,1.87598c-.5791.28223-1.08984.70508-1.47998,1.24219-.39062.5376-.63477,1.15381-.72461,1.79248-.63574-.11279-1.29688-.0708-1.92773.13477-.63184.20557-1.19189.56055-1.64014,1.02441-.44775-.46387-1.00781-.81885-1.63965-1.02393-.4043-.13184-.8208-.1958-1.23486-.1958-.23291,0-.46484.02002-.69287.06055-.08984-.63818-.33398-1.25439-.72461-1.79199s-.90137-.96045-1.48047-1.24316c.30225-.56885.4668-1.21143.4668-1.87549s-.16455-1.30664-.4668-1.87549Z"/>
  <path d="M15.58915,19c1.6543,0,3-1.3457,3-3s-1.3457-3-3-3-3,1.3457-3,3,1.3457,3,3,3ZM15.58915,15c.55127,0,1,.44873,1,1s-.44873,1-1,1-1-.44873-1-1,.44873-1,1-1Z"/>
  <path d="M29.98075,17h8.14203c.44727,1.72028,1.99969,3,3.85797,3h11c2.20557,0,4-1.79443,4-4s-1.79443-4-4-4c-.39795,0-.78857.06055-1.16797.18066-1.01465-1.02686-2.59131-1.44678-4-1-.74121-.75049-1.75098-1.18066-2.83203-1.18066-.4068,0-.8009.06891-1.17645.18671-1.02582-1.0213-2.57611-1.45312-3.99152-1.00604-1.01416-1.02686-2.59033-1.44629-4-1-.74121-.75049-1.75098-1.18066-2.83203-1.18066-1.44385,0-2.75928.79102-3.46191,2.02637-1.98877.22998-3.53809,1.92432-3.53809,3.97363,0,2.20557,1.79443,4,4,4ZM46.66484,12.93359c.28418.45166.87256.59863,1.33936.33594.96826-.55029,2.10986-.20898,2.66064.66406.28467.45117.87354.59961,1.33936.33594.31934-.18115.63916-.26953.97656-.26953,1.10303,0,2,.89697,2,2s-.89697,2-2,2h-11c-1.10303,0-2-.89697-2-2,0-1.09912.8916-1.99414,2.00098-1.99414h.01074c.48145.08154.95068-.19531,1.1123-.65527.28271-.80762,1.03662-1.35059,1.87598-1.35059.68555,0,1.31543.34912,1.68408.93359ZM29.98173,11.00586h.01074c.47852.08301.95117-.19482,1.1123-.65527.28271-.80762,1.03662-1.35059,1.87598-1.35059.68555,0,1.31543.34912,1.68408.93359.28418.45166.87256.59863,1.33936.33594.96826-.5498,2.10986-.2085,2.66064.66406.28467.45117.87354.59961,1.33936.33594.68567-.38934,1.45428-.32556,2.04047.04431-.19763.21741-.37793.45251-.52582.71252-1.65173.19098-2.98584,1.39801-3.39551,2.97363h-8.14258c-1.10303,0-2-.89697-2-2,0-1.09912.8916-1.99414,2.00098-1.99414Z"/>
</svg>