<?xml version="1.0" encoding="UTF-8"?>
<svg id="Outline" xmlns="http://www.w3.org/2000/svg" version="1.1" viewBox="0 0 64 64">
  <!-- Generator: Adobe Illustrator 29.5.1, SVG Export Plug-In . SVG Version: 2.1.0 Build 141)  -->
  <path d="M54,11h-5v-1c0-1.65-1.35-3-3-3s-3,1.35-3,3v1h-22v-1c0-1.65-1.35-3-3-3s-3,1.35-3,3v1h-5c-1.65,0-3,1.35-3,3v40c0,1.65,1.35,3,3,3h44c1.65,0,3-1.35,3-3V14c0-1.65-1.35-3-3-3ZM45,10c0-.55.45-1,1-1s1,.45,1,1v4c0,.55-.45,1-1,1s-1-.45-1-1v-4ZM21,14v-1h22v1c0,.35.07.69.18,1h-22.36c.11-.31.18-.65.18-1ZM17,10c0-.55.45-1,1-1s1,.45,1,1v4c0,.55-.45,1-1,1s-1-.45-1-1v-4ZM31.06,55l15.18-1.9.36,1.44c.04.16.1.31.16.46h-15.7ZM51,53.75c0,.69-.56,1.25-1.25,1.25-.57,0-1.07-.39-1.21-.94l-.57-2.3c-.12-.49-.59-.8-1.09-.75l-31.94,3.99h-.94c-.55,0-1-.45-1-1v-20c0-.55-.45-1-1-1s-1,.45-1,1v20c0,.35.07.69.18,1h-1.18c-.55,0-1-.45-1-1V21h2v5c0,.55.45,1,1,1s1-.45,1-1v-5h38v32.75ZM55,54c0,.55-.45,1-1,1h-1.25c.16-.38.25-.8.25-1.25V21h2v33ZM55,19H9v-5c0-.55.45-1,1-1h5v1c0,.35.07.69.18,1h-3.18c-.55,0-1,.45-1,1s.45,1,1,1h40c.55,0,1-.45,1-1s-.45-1-1-1h-3.18c.11-.31.18-.65.18-1v-1h5c.55,0,1,.45,1,1v5Z"/>
  <path d="M23.44,34.136c-.088.272-.056.569.089.815.713,1.212.713,2.718,0,3.931-.146.246-.178.544-.089.816.089.271.29.493.552.607,1.289.561,2.174,1.779,2.31,3.18.027.285.176.544.408.713.23.168.522.227.804.167,1.372-.303,2.805.161,3.737,1.214.19.214.462.337.749.337s.559-.123.749-.337c.933-1.053,2.366-1.517,3.737-1.214.28.061.573.002.804-.167.232-.169.38-.428.408-.713.136-1.4,1.021-2.619,2.31-3.18.263-.114.463-.336.552-.607.088-.272.056-.57-.089-.816-.713-1.213-.713-2.719,0-3.931.145-.246.178-.543.089-.815s-.29-.494-.552-.608c-1.289-.562-2.174-1.78-2.311-3.18-.027-.285-.176-.544-.407-.712-.232-.169-.524-.229-.804-.168-1.371.304-2.805-.162-3.738-1.215-.38-.428-1.117-.428-1.497,0-.933,1.053-2.366,1.519-3.738,1.215-.283-.062-.573,0-.804.168-.231.168-.38.427-.407.712-.136,1.399-1.021,2.618-2.311,3.18-.262.114-.463.336-.552.608ZM25.696,34.868c1.173-.779,2.029-1.958,2.408-3.314,1.415.071,2.792-.392,3.896-1.266,1.104.875,2.484,1.34,3.896,1.266.379,1.356,1.235,2.535,2.408,3.314-.491,1.319-.491,2.776,0,4.097-1.173.779-2.029,1.957-2.408,3.313-1.399-.049-2.792.392-3.896,1.266-1.04-.823-2.328-1.271-3.65-1.271-.082,0-.164.002-.246.005-.379-1.356-1.235-2.534-2.408-3.313.491-1.32.491-2.777,0-4.097Z"/>
  <path d="M32,41c2.206,0,4-1.794,4-4s-1.794-4-4-4-4,1.794-4,4,1.794,4,4,4ZM32,35c1.103,0,2,.897,2,2s-.897,2-2,2-2-.897-2-2,.897-2,2-2Z"/>
  <path d="M32,27c.552,0,1-.447,1-1v-2c0-.553-.448-1-1-1s-1,.447-1,1v2c0,.553.448,1,1,1Z"/>
  <path d="M23.515,29.929c.364.364,1.028.386,1.414,0,.391-.391.391-1.023,0-1.414l-1.414-1.414c-.391-.391-1.023-.391-1.414,0s-.391,1.023,0,1.414c0,0,1.411,1.411,1.414,1.414Z"/>
  <path d="M19,38h2c.552,0,1-.447,1-1s-.448-1-1-1h-2c-.552,0-1,.447-1,1s.448,1,1,1Z"/>
  <path d="M23.515,44.071l-1.414,1.414c-.607.607-.151,1.707.707,1.707.256,0,.512-.098.707-.293l1.414-1.414c.391-.391.391-1.023,0-1.414s-1.023-.391-1.414,0Z"/>
  <path d="M32,47c-.552,0-1,.447-1,1v2c0,.553.448,1,1,1s1-.447,1-1v-2c0-.553-.448-1-1-1Z"/>
  <path d="M40.485,44.071c-.391-.391-1.023-.391-1.414,0s-.391,1.023,0,1.414l1.414,1.414c.372.372,1.021.393,1.414,0,.391-.391.391-1.023,0-1.414l-1.414-1.414Z"/>
  <path d="M43,38h2c.552,0,1-.447,1-1s-.448-1-1-1h-2c-.552,0-1,.447-1,1s.448,1,1,1Z"/>
  <path d="M39.778,30.222c.256,0,.512-.098.707-.293l1.414-1.414c.391-.391.391-1.023,0-1.414s-1.023-.391-1.414,0l-1.414,1.414c-.614.614-.161,1.707.707,1.707Z"/>
  <circle cx="12" cy="30" r="1"/>
</svg>