<?xml version="1.0" encoding="UTF-8"?>
<svg id="Outline" xmlns="http://www.w3.org/2000/svg" version="1.1" viewBox="0 0 64 64">
  <!-- Generator: Adobe Illustrator 29.3.1, SVG Export Plug-In . SVG Version: 2.1.0 Build 151)  -->
  <path d="M56.9187,47.09998c-.21997-.51001-.82001-.73999-1.32001-.52002l-1.33997.59003.64001-5.19c.06995-.52002.09998-1.02997.09998-1.53998,0-3.79999-1.70001-7.34003-4.65997-9.72003-.37006-.28998-.89001-.28998-1.26001,0-3.35004,2.67999-5.10004,7-4.57001,11.25l.65997,5.29999-3.23999-.81c-5.02997-1.26996-10.33997-.72998-15.02997,1.5l-1.81-.75c-1.81-.75995-3.70001-1.21997-5.61005-1.39996l2.32001-12.60004c.90002.22003,1.78003.53003,2.63.91003.02002.01001.03003.01001.05011.02006.28537.09454.54721.05791.8399.03994,2.27997-.14001,4.59998.22998,6.71997,1.07001l1.29003.51001c.40708.16094.91774.0369,1.19001-.35003.26001-.38.22998-.89996-.08002-1.23999l-10.97998-12.17999c-.00998-.00998-.01995-.01001-.03003-.02004-.31387-.31242-.77157-.40964-1.16999-.2l-14.59003,7.49005c-.41998.20996-.63.67999-.51996,1.13.10999.44995.51996.75995.98999.75995l1.39001-.02997c2.27995-.02002,4.57993.45001,6.64998,1.39002.26145.11872.54586.25994.85997.25994.92999-.06,1.86005-.02997,2.79004.08002l-2.36005,12.88c-3.5.03998-6.95996,1.02002-10,2.91998-.46997.29004-.60999.91003-.31995,1.38.28998.47003.90997.61005,1.38.32001,4.72998-2.95996,10.63995-3.44,15.78998-1.29999l8.08997,3.37c2.36004.98999,4.89001,1.47998,7.41002,1.47998,5.81523,0,11.31151-3.17613,16.51348-5.45088l.06655-.0291c.50995-.22998.73999-.81.51996-1.32001ZM30.3587,32.63c-1.32996-.31-2.70001-.48004-4.07001-.48004-.20996,0-.41998.02002-.63.02002l-1.23999-6.13,5.94,6.59003ZM16.57873,30.51001c-1.45001-.61005-2.98999-1.04004-4.56-1.24005l7.89996-4.06-3.33997,5.30005ZM18.78869,30.76001l3.44-5.46002,1.27002,6.33002c-1.52002-.5-3.10999-.80005-4.71002-.87ZM33.17871,50.57996l-3.69-1.53998c3.82001-1.39996,7.98999-1.64001,11.96002-.64001l3.98999.99005.17999,1.48999c-4.02002,1.42999-8.47998,1.33997-12.44-.30005ZM52.12872,48.09998l-4.59003,2.01001-.19995-1.65002c-.01001-.01996-.01001-.02997-.01001-.03998l-.46002-3.66998,2.84003-2.84003,2.82996,2.84003-.40997,3.34998ZM52.9187,41.72998l-.07001.5-2.44-2.44c-.38995-.39001-1.01996-.39001-1.40997,0l-2.44,2.45001-.07001-.51001c-.40997-3.29999.82001-6.64001,3.22003-8.90997,2.09998,1.97998,3.28998,4.70996,3.28998,7.62,0,.41998-.03003.84998-.08002,1.28998Z"/>
  <path d="M40.21747,19.14648c-.36621.25098-.52344.71191-.38672,1.13379s.55566.69922.97852.69141c.66504-.02637,1.27832.28125,1.6709.82324.39355.54004.49023,1.21191.26562,1.8418-.14844.41699-.00391.88281.35449,1.14355.35938.26172.84766.25391,1.19727-.01562.53125-.40918,1.20312-.52441,1.83594-.31738.63574.20703,1.1084.69336,1.29785,1.33496.125.42578.51562.71777.95898.71777s.83398-.29199.95898-.71777c.18945-.6416.66211-1.12793,1.29785-1.33496.63379-.20703,1.30566-.0918,1.83594.31738.35059.26953.83887.27734,1.19727.01562.3584-.26074.50293-.72656.35449-1.14355-.22461-.62988-.12793-1.30176.26562-1.8418.39258-.54199.9707-.85156,1.6709-.82324.44824.00391.8418-.26953.97852-.69141s-.02051-.88281-.38672-1.13379c-.55078-.37793-.86719-.97754-.86719-1.64648s.31641-1.26855.86719-1.64648c.36621-.25098.52344-.71191.38672-1.13379-.13574-.42188-.52637-.67969-.97852-.69141-.66113.04102-1.27734-.28027-1.6709-.82324-.39355-.54004-.49023-1.21191-.26562-1.8418.14844-.41699.00391-.88281-.35449-1.14355-.3584-.26172-.84668-.25391-1.19727.01562-.53027.40918-1.20215.52344-1.83594.31738-.63574-.20703-1.1084-.69336-1.29785-1.33496-.125-.42578-.51562-.71777-.95898-.71777s-.83398.29199-.95898.71777c-.18945.6416-.66211,1.12793-1.29785,1.33496-.63281.20605-1.30469.0918-1.83594-.31738-.34961-.26953-.83789-.27734-1.19727-.01562-.3584.26074-.50293.72656-.35449,1.14355.22461.62988.12793,1.30176-.26562,1.8418-.39258.54199-.96484.86035-1.6709.82324-.42773.00684-.8418.26953-.97852.69141s.02051.88281.38672,1.13379c.55078.37793.86719.97754.86719,1.64648s-.31641,1.26855-.86719,1.64648ZM42.61786,15.62402c.5791-.28223,1.09082-.70508,1.48145-1.24316.38965-.53711.63379-1.15332.72363-1.79102.6377.1123,1.29785.06934,1.92871-.13574.63184-.20508,1.19141-.56055,1.63867-1.02344.44727.46289,1.00684.81836,1.63867,1.02344.62988.20508,1.29199.24707,1.92871.13574.08984.6377.33398,1.25391.72363,1.79102.39062.53809.90234.96094,1.48145,1.24414-.30273.56836-.4668,1.21094-.4668,1.875s.16406,1.30664.4668,1.87598c-.5791.28223-1.09082.70508-1.48145,1.24316-.38965.53711-.63379,1.15332-.72363,1.79102-.63672-.1123-1.29785-.07031-1.92871.13574-.63184.20508-1.19141.56055-1.63867,1.02344-.44727-.46289-1.00684-.81836-1.63867-1.02344-.4043-.13184-.82129-.19629-1.23633-.19629-.23242,0-.46387.02051-.69238.06055-.08984-.6377-.33398-1.25391-.72363-1.79102-.39062-.53809-.90234-.96094-1.48145-1.24414.30273-.56836.4668-1.21094.4668-1.875s-.16406-1.30664-.4668-1.87598Z"/>
  <path d="M48.39032,20.5c1.6543,0,3-1.3457,3-3s-1.3457-3-3-3-3,1.3457-3,3,1.3457,3,3,3ZM48.39032,16.5c.55176,0,1,.44824,1,1s-.44824,1-1,1-1-.44824-1-1,.44824-1,1-1Z"/>
  <circle cx="12.99872" cy="51.5" r="1"/>
  <circle cx="14.99872" cy="54.5" r="1"/>
  <circle cx="17.99872" cy="51.5" r="1"/>
  <circle cx="20.99872" cy="54.5" r="1"/>
  <circle cx="23.99872" cy="52.5" r="1"/>
  <circle cx="27.99872" cy="54.5" r="1"/>
</svg>