<?xml version="1.0" encoding="UTF-8"?>
<svg id="Outline" xmlns="http://www.w3.org/2000/svg" version="1.1" viewBox="0 0 64 64">
  <!-- Generator: Adobe Illustrator 29.5.1, SVG Export Plug-In . SVG Version: 2.1.0 Build 141)  -->
  <path d="M56.6,31.188l-2.91-2.19c-.51-.37-.85-.92-.97-1.54-.18-.88-.61-1.69-1.25-2.34-.31-.31-.67-.56-1.05-.77.37-1.27.18-2.67-.57-3.81-.28-.41-.43-.91-.43-1.4,0-.11.01-.23.03-.38l.51-3.6c.04-.31-.06-.63-.28-.85-.22-.22-.54-.32-.85-.28l-3.61.51c-.62.09-1.25-.05-1.77-.4-.75-.5-1.63-.77-2.54-.77-.44,0-.87.07-1.28.19-.64-1.17-1.75-2.01-3.1-2.28-.61-.12-1.17-.47-1.55-.98l-2.18-2.91c-.38-.5-1.22-.5-1.6,0l-2.18,2.91c-.38.51-.94.86-1.56.98-1.35.27-2.46,1.14-3.1,2.29-1.27-.37-2.67-.19-3.81.57-.41.28-.91.43-1.4.43-.11,0-.23-.01-.38-.03l-3.6-.51c-.31-.04-.63.06-.85.28-.22.22-.32.54-.28.85l.51,3.61c.09.62-.05,1.25-.4,1.77-.5.75-.77,1.63-.77,2.54,0,.44.07.87.19,1.28-1.16.64-2.02,1.77-2.29,3.1-.09.49-.34.95-.68,1.3-.08.08-.17.16-.29.25l-2.91,2.18c-.25.19-.4.49-.4.8s.15.61.4.8l2.91,2.19c.51.37.85.92.97,1.54.18.88.61,1.69,1.25,2.34.31.31.67.55,1.05.75-.37,1.28-.19,2.69.57,3.83.28.41.43.91.43,1.4,0,.11-.01.23-.03.38l-.51,3.6c-.04.31.06.63.28.85s.54.32.85.28l3.61-.51c.62-.09,1.25.05,1.77.4.75.5,1.63.77,2.54.77.44,0,.87-.07,1.28-.19.64,1.16,1.77,2.02,3.1,2.29.49.09.95.34,1.3.68.08.08.16.17.25.29l2.18,2.91c.19.25.49.4.8.4s.61-.15.8-.4l2.19-2.91c.37-.51.92-.85,1.54-.97.88-.18,1.69-.61,2.34-1.25.31-.31.56-.67.76-1.04.42.12.85.18,1.28.18.89,0,1.77-.25,2.54-.76.41-.28.91-.43,1.4-.43.11,0,.23.01.38.03l3.6.51c.31.04.63-.06.85-.28s.32-.54.28-.85l-.51-3.61c-.09-.62.05-1.25.4-1.77.5-.75.77-1.63.77-2.54,0-.44-.07-.87-.19-1.28,1.16-.64,2.02-1.77,2.29-3.1.09-.49.34-.95.68-1.3.08-.08.17-.16.29-.25l2.91-2.18c.25-.19.4-.49.4-.8s-.15-.61-.4-.8ZM40.91,15.368c.51,0,1,.15,1.42.43.94.63,2.07.89,3.18.72l2.28-.32-.31,2.25c-.04.22-.06.46-.06.69,0,.89.27,1.78.77,2.51.42.65.52,1.44.3,2.16-.45-.03-.9.01-1.35.12l-.16.04c-1.79-3.33-4.66-5.99-8.13-7.53.48-.66,1.24-1.07,2.06-1.07ZM27.85,13.238c1.1-.22,2.08-.83,2.77-1.74l1.38-1.84,1.38,1.84c.69.91,1.67,1.52,2.76,1.74.76.15,1.38.64,1.74,1.3-.34.3-.64.65-.88,1.04l-.08.14c-1.56-.47-3.21-.73-4.92-.73-2.11,0-4.19.4-6.15,1.16-.02-.14-.05-.28-.05-.41,0-1.21.87-2.26,2.05-2.5ZM13.95,37.438c-.36-.36-.61-.81-.7-1.31-.22-1.11-.84-2.09-1.74-2.75l-1.84-1.39,1.81-1.37c.19-.13.37-.29.53-.45.63-.62,1.07-1.45,1.24-2.32.15-.75.64-1.38,1.3-1.74.3.34.65.64,1.04.88l.14.08c-.47,1.59-.73,3.24-.73,4.92,0,2.17.42,4.24,1.17,6.15-.81.12-1.64-.12-2.22-.7ZM23.09,48.608c-.51,0-1-.15-1.42-.43-.94-.63-2.07-.88-3.18-.72l-2.28.32.31-2.25c.04-.22.06-.46.06-.69,0-.89-.27-1.78-.77-2.51-.43-.65-.52-1.45-.3-2.17.09.01.17.03.26.03.36,0,.73-.05,1.09-.14l.16-.04c1.79,3.33,4.66,5.99,8.13,7.53-.48.66-1.24,1.07-2.06,1.07ZM37.45,50.038c-.36.36-.81.61-1.31.7-1.11.22-2.09.84-2.75,1.74l-1.39,1.84-1.37-1.81c-.13-.19-.29-.37-.45-.53-.62-.63-1.45-1.07-2.32-1.24-.75-.15-1.38-.64-1.74-1.3.34-.3.64-.65.88-1.04l.08-.14c1.56.47,3.21.73,4.92.73,2.17,0,4.24-.42,6.15-1.17.12.81-.12,1.64-.7,2.22ZM32,46.988c-8.27,0-15-6.73-15-15,0-2.7.72-5.34,2.09-7.64.28-.47.13-1.09-.35-1.37-.48-.28-1.09-.13-1.37.35-.35.58-.65,1.19-.92,1.8-.66-.48-1.07-1.24-1.07-2.05,0-.51.15-1,.43-1.42.63-.94.89-2.07.72-3.18l-.32-2.28,2.25.31c1.11.2,2.28-.09,3.2-.71.65-.42,1.44-.52,2.16-.3,0,.08-.02.16-.02.24,0,.36.05.74.14,1.12l.03.14c-.21.12-.43.23-.65.36-.47.28-.63.89-.35,1.37.28.47.89.63,1.37.35,2.32-1.37,4.97-2.09,7.66-2.09,8.27,0,15,6.73,15,15s-6.73,15-15,15ZM48.19,42.317c-.63.94-.89,2.07-.72,3.18l.32,2.28-2.25-.31c-1.11-.2-2.28.09-3.2.71-.65.42-1.44.52-2.16.3.03-.45-.01-.9-.12-1.35l-.04-.16c3.33-1.79,5.99-4.66,7.53-8.13.66.48,1.07,1.24,1.07,2.06,0,.51-.15,1-.43,1.42ZM52.52,33.358c-.19.13-.37.29-.53.45-.63.62-1.07,1.45-1.24,2.32-.15.75-.64,1.38-1.3,1.74-.3-.34-.65-.64-1.04-.88l-.14-.08c.47-1.56.73-3.21.73-4.92,0-2.17-.42-4.24-1.17-6.15.81-.12,1.65.12,2.22.7.36.36.61.81.7,1.31.22,1.11.84,2.09,1.74,2.75l1.84,1.39-1.81,1.37Z"/>
  <path d="M21.606,38.384c.572.317.973.868,1.098,1.512.421,2.16,2.456,3.646,4.646,3.376.649-.079,1.298.131,1.777.578.805.75,1.838,1.125,2.872,1.125,1.033,0,2.066-.375,2.872-1.125.479-.446,1.126-.655,1.778-.577,2.179.27,4.225-1.216,4.646-3.376.125-.644.526-1.194,1.099-1.512,1.924-1.068,2.704-3.467,1.775-5.463-.277-.594-.277-1.274,0-1.868.929-1.996.149-4.395-1.775-5.463-.572-.317-.973-.868-1.098-1.512-.421-2.16-2.455-3.642-4.646-3.376-.649.081-1.298-.131-1.777-.577h0c-1.61-1.5-4.133-1.5-5.743,0-.479.447-1.124.659-1.778.577-2.175-.268-4.225,1.216-4.646,3.376-.125.644-.526,1.194-1.099,1.512-1.924,1.068-2.704,3.467-1.775,5.463.277.594.277,1.274,0,1.868-.929,1.996-.149,4.395,1.775,5.463ZM22.576,27.34c1.09-.604,1.853-1.653,2.091-2.878.221-1.134,1.301-1.913,2.44-1.773,1.241.15,2.472-.249,3.384-1.099.846-.788,2.171-.788,3.017,0,.912.851,2.146,1.25,3.383,1.1,1.153-.14,2.22.639,2.441,1.773.239,1.225,1.001,2.273,2.091,2.878,1.011.561,1.42,1.821.932,2.869-.526,1.13-.526,2.427,0,3.558.488,1.048.079,2.308-.932,2.869-1.09.604-1.853,1.653-2.091,2.878-.221,1.135-1.293,1.917-2.44,1.773-1.242-.149-2.472.25-3.384,1.099-.846.788-2.171.787-3.017,0-.786-.732-1.809-1.131-2.869-1.131-.171,0-.343.01-.515.031-1.147.142-2.22-.639-2.441-1.773-.239-1.225-1.001-2.273-2.091-2.878-1.011-.561-1.42-1.821-.932-2.869.526-1.13.526-2.427,0-3.558-.488-1.048-.079-2.308.932-2.869Z"/>
  <path d="M28,34.988c.361,0,.718-.022,1.065-.065-.043.348-.065.705-.065,1.065,0,2.851,1.29,5,3,5s3-2.149,3-5c0-.361-.022-.718-.065-1.065.348.043.705.065,1.065.065,2.851,0,5-1.29,5-3s-2.149-3-5-3c-.361,0-.718.022-1.065.065.043-.348.065-.705.065-1.065,0-2.851-1.29-5-3-5s-3,2.149-3,5c0,.361.022.718.065,1.065-.348-.043-.705-.065-1.065-.065-2.851,0-5,1.29-5,3s2.149,3,5,3ZM28,30.988c.749,0,1.46.121,2.058.35.367.141.785.053,1.064-.227s.368-.696.227-1.064c-.229-.6-.35-1.312-.35-2.059,0-1.936.751-3,1-3s1,1.064,1,3c0,.748-.121,1.459-.35,2.059-.141.368-.052.785.227,1.064.28.279.696.368,1.064.227.598-.229,1.31-.35,2.058-.35,1.936,0,3,.751,3,1s-1.064,1-3,1c-.748,0-1.459-.121-2.059-.35-.366-.141-.785-.052-1.063.227-.279.279-.368.695-.227,1.063.229.6.35,1.312.35,2.059,0,1.936-.751,3-1,3s-1-1.064-1-3c0-.748.121-1.459.35-2.059.141-.368.052-.785-.227-1.063-.191-.191-.447-.293-.707-.293-.12,0-.241.021-.356.066-.6.229-1.312.35-2.059.35-1.936,0-3-.751-3-1s1.064-1,3-1Z"/>
  <path d="M21.393,21.381c.391-.391.391-1.024,0-1.414-.391-.391-1.024-.391-1.414,0-.391.391-.391,1.024,0,1.414.391.391,1.024.391,1.414,0Z"/>
</svg>