<?xml version="1.0" encoding="UTF-8"?>
<svg id="Outline" xmlns="http://www.w3.org/2000/svg" version="1.1" viewBox="0 0 64 64">
  <!-- Generator: Adobe Illustrator 29.3.1, SVG Export Plug-In . SVG Version: 2.1.0 Build 151)  -->
  <path d="M53.34003,20.16998c.40997-.62.65997-1.37.65997-2.16998,0-1.90002-1.33002-3.48999-3.09998-3.90002-.41003-1.77002-2-3.09998-3.90002-3.09998-1.09998,0-2.09003.45996-2.81,1.17999-3.19-3.29999-7.56-5.17999-12.19-5.17999-7.02002,0-13.06,4.27997-15.65002,10.35999-5.94995,2.07001-9.34998,5.20001-9.34998,8.64001,0,3.12,2.81,5.89001,7.39001,7.88,1.26996,8.10999,6.28998,15.23999,13.52997,19.13995l1.08002.58002v.40002c0,1.64996,1.34998,3,3,3s3-1.35004,3-3v-.40002l1.08002-.58002c7.23999-3.89996,12.26001-11.02997,13.52997-19.13995,4.58002-1.98999,7.39001-4.76001,7.39001-7.88,0-2.10999-1.26001-4.10999-3.65997-5.83002ZM45,15c0-1.10004.90002-2,2-2s2,.89996,2,2c0,.54999.45001,1,1,1,1.09998,0,2,.89996,2,2,0,1.09998-.90002,2-2,2-.54999,0-1,.45001-1,1,0,.83997-.52002,1.56-1.25,1.84998-.22998.10004-.48999.15002-.75.15002-1.09998,0-2-.90002-2-2,0-.54999-.45001-1-1-1-1.09998,0-2-.90002-2-2,0-1.10004.90002-2,2-2,.54999,0,1-.45001,1-1ZM32,9c4.28003,0,8.29999,1.82001,11.14001,4.97998-.01001.03998-.03003.08002-.04004.12-1.76996.41003-3.09998,2-3.09998,3.90002,0,1.27997.60999,2.40997,1.54999,3.14001-7.90997,2.00995-16.26996,1.47998-23.87-1.54004,1.88-6.13,7.58002-10.59998,14.32001-10.59998ZM17.21002,21.56c4.73999,1.83997,9.75995,2.77997,14.78998,2.77997,3.83002,0,7.66998-.53998,11.40002-1.63.28998.61005.71997,1.12,1.25,1.51001-4.06,1.40002-8.30005,2.12-12.65002,2.12-5.19,0-10.21997-1.01001-14.98999-2.98999.02997-.60999.09998-1.20001.20001-1.78998ZM33,54c0,.54999-.45001,1-1,1s-1-.45001-1-1v-2c0-.54999.45001-1,1-1s1,.45001,1,1v2ZM35.13,51.26001l-.20001.09998c-.28998-1.34003-1.48999-2.35999-2.92999-2.35999s-2.64001,1.01996-2.92999,2.35999l-.20001-.09998c-6.34998-3.43005-10.85999-9.53003-12.29999-16.55005,4.21997,1.44,9.56,2.29004,15.42999,2.29004s11.21002-.85004,15.42999-2.29004c-1.44,7.02002-5.95001,13.12-12.29999,16.55005ZM48.46002,32.20001c-.02002.00995-.05005.02997-.08002.03998-4.01001,1.64001-9.65002,2.76001-16.38,2.76001-6.73999,0-12.38-1.12-16.39001-2.77002-.02997-.01001-.04999-.02002-.07001-.02002-4.14996-1.71997-6.53998-4-6.53998-6.20996,0-2.25,2.40997-4.5,6.53003-6.20001-.03003.08002-.03003.15997-.04004.22998-.31,1.28003-.48999,2.60004-.48999,3.97003,0,.39996.23999.76001.59998.91998,5.19,2.27002,10.71002,3.41998,16.40002,3.41998s11.21002-1.14996,16.40002-3.41998c.17999-.08002.33997-.21997.44-.38,1.01996-.52997,1.78998-1.48999,2.06-2.64001.31995-.07996.62-.19995.90997-.34998,1.56,1.02997,3.19,2.56,3.19,4.45001,0,2.20996-2.39001,4.48999-6.53998,6.20001Z"/>
  <circle cx="47" cy="18" r="1"/>
</svg>