<?xml version="1.0" encoding="UTF-8"?>
<svg id="Outline" xmlns="http://www.w3.org/2000/svg" version="1.1" viewBox="0 0 64 64">
  <!-- Generator: Adobe Illustrator 29.5.1, SVG Export Plug-In . SVG Version: 2.1.0 Build 141)  -->
  <path d="M56,48h-2.24l2.01-6.11c.14-.41-.01-.87-.37-1.12l-6.06-4.37-2.28-7.11c-.13-.42-.52-.7-.95-.7l-7.48.03-6.04-4.43c-.35-.25-.83-.25-1.18,0l-6.04,4.43-7.48-.03c-.43,0-.82.28-.95.7l-2.28,7.11-6.06,4.37c-.36.25-.51.71-.37,1.12l2.01,6.11h-2.24c-.55,0-1,.45-1,1s.45,1,1,1h48c.55,0,1-.45,1-1s-.45-1-1-1ZM16.05,48c.52-8.36,7.47-15,15.95-15s15.43,6.64,15.95,15h-31.9ZM51.66,48h-1.71c-.52-9.46-8.36-17-17.95-17s-17.43,7.54-17.95,17h-1.71l-1.98-6.04,5.73-4.13c.18-.12.31-.3.37-.51l2.16-6.73,7.08.03c.21,0,.42-.07.59-.19l5.71-4.19,5.71,4.19c.17.12.38.19.59.19l7.08-.03,2.16,6.73c.06.21.19.39.37.51l5.73,4.13-1.98,6.04Z"/>
  <path d="M32,22c.552,0,1-.447,1-1v-6c0-.553-.448-1-1-1s-1,.447-1,1v6c0,.553.448,1,1,1Z"/>
  <path d="M23.632,26.483c.166.512.751.807,1.26.643.525-.171.812-.735.642-1.26l-1.966-6.051c-.17-.525-.733-.812-1.26-.643-.525.171-.812.735-.642,1.26,0,0,1.962,6.038,1.966,6.051Z"/>
  <path d="M11.996,35.702c.444.322,1.074.224,1.397-.221.325-.447.226-1.072-.221-1.396l-4.375-3.18c-.448-.324-1.071-.226-1.397.221-.325.447-.226,1.072.221,1.396,0,0,4.375,3.18,4.376,3.18Z"/>
  <path d="M39.107,27.126c.496.161,1.09-.119,1.26-.643l1.966-6.051c.17-.524-.117-1.089-.642-1.26-.525-.17-1.09.117-1.26.643l-1.966,6.051c-.17.524.117,1.089.642,1.26Z"/>
  <path d="M50.607,35.481c.303.418.958.539,1.397.221l4.375-3.18c.447-.324.546-.949.221-1.396-.325-.447-.949-.546-1.397-.221l-4.375,3.18c-.447.324-.546.949-.221,1.396Z"/>
  <path d="M14.733,26.936c.307.423.946.548,1.397.221.447-.324.546-.949.221-1.396l-3.527-4.854c-.324-.446-.95-.546-1.397-.221-.447.324-.546.949-.221,1.396l3.527,4.854Z"/>
  <path d="M48.457,27.339c.308-.002.617-.138.81-.404l3.527-4.854c.325-.447.226-1.072-.221-1.396-.448-.327-1.072-.226-1.397.221l-3.527,4.854c-.473.651.008,1.584.808,1.58Z"/>
</svg>