<?xml version="1.0" encoding="UTF-8"?>
<svg id="Outline" xmlns="http://www.w3.org/2000/svg" version="1.1" viewBox="0 0 64 64">
  <!-- Generator: Adobe Illustrator 29.5.1, SVG Export Plug-In . SVG Version: 2.1.0 Build 141)  -->
  <path d="M32,53c11.5791,0,21-9.4209,21-21s-9.4209-21-21-21-21,9.4209-21,21c0,4.62793,1.48145,9.01855,4.28516,12.69629.33301.4375.95996.52637,1.40137.18848.43945-.33398.52344-.96191.18848-1.40137-2.53516-3.32617-3.875-7.29688-3.875-11.4834,0-10.47656,8.52344-19,19-19s19,8.52344,19,19-8.52344,19-19,19c-4.61621,0-9.06543-1.67969-12.5293-4.73047-.41406-.36426-1.04492-.32715-1.41113.08887-.36523.41504-.3252,1.04688.08887,1.41113,3.83008,3.37305,8.74902,5.23047,13.85156,5.23047Z"/>
  <path d="M54.82617,42.19629c1.44336-3.20996,2.17383-6.63477,2.17383-10.19629,0-6.15527-2.27051-12.08496-6.39453-16.69727-.36816-.41211-1-.44629-1.41211-.07812-.41113.36816-.44629,1-.07812,1.41211,3.79492,4.24414,5.88477,9.7002,5.88477,15.36328,0,3.60938-.81543,7.06543-2.42383,10.27148-.14062.2793-.1416.6084-.00391.88867.1377.28125.39844.48145.70605.54102.26855.05273.4834.15918.64258.31348.99609,1.00293-.00195,4.24316-2.82715,7.07715-2.83691,2.82617-6.08008,3.8252-7.06543,2.84277-.16797-.17285-.27441-.3877-.32715-.65625-.05957-.30762-.25977-.56836-.54102-.70605-.28027-.1377-.60938-.1377-.88867.00391-3.20605,1.6084-6.66211,2.42383-10.27148,2.42383-12.68262,0-23-10.31738-23-23,0-3.60938.81543-7.06543,2.42383-10.27148.14062-.2793.1416-.6084.00391-.88867-.1377-.28125-.39844-.48145-.70605-.54102-.26855-.05273-.4834-.15918-.64258-.31348-.99609-1.00293.00195-4.24316,2.82715-7.07715,2.83691-2.82715,6.0791-3.82617,7.06543-2.84277.16797.17285.27441.3877.32715.65625.05957.30762.25977.56836.54102.70605.2793.1377.60938.13672.88867-.00391,3.20605-1.6084,6.66211-2.42383,10.27148-2.42383,5.25488,0,10.20605,1.7334,14.31641,5.0127.43359.34375,1.06055.27344,1.40625-.1582.34375-.43262.27344-1.06152-.1582-1.40625-4.46973-3.56445-9.85156-5.44824-15.56445-5.44824-3.56152,0-6.98633.73145-10.19727,2.1748-.11621-.18262-.25195-.35352-.40723-.51367-2.01758-2.00488-6.27246-.78613-9.90332,2.83301-3.61719,3.62891-4.83496,7.88574-2.81738,9.91504.1543.14941.32031.28125.49902.39453-1.44336,3.20996-2.17383,6.63477-2.17383,10.19629,0,13.78516,11.21484,25,25,25,3.56152,0,6.98633-.73145,10.19727-2.1748.11621.18262.25195.35352.40723.51367,2.01758,2.00586,6.27344.78613,9.90332-2.83301,3.61719-3.62891,4.83496-7.88574,2.81738-9.91504-.1543-.14941-.32031-.28125-.49902-.39453Z"/>
  <path d="M26,35c0,2.75684,2.24316,5,5,5s5-2.24316,5-5-2.24316-5-5-5-5,2.24316-5,5ZM34,35c0,1.6543-1.3457,3-3,3s-3-1.3457-3-3,1.3457-3,3-3,3,1.3457,3,3Z"/>
  <path d="M47,30c0-2.76001-2.23999-5-5-5-1.66998,0-3.19.83997-4.10999,2.15997-.46002-.45996-.97003-.89001-1.52002-1.25.03003-.20001.04999-.39996.04999-.58997,0-1.52002-.98999-2.85004-2.47998-3.62.02997-.23004.06-.46002.06-.70001,0-2.76001-2.23999-5-5-5-2.01001,0-3.81,1.22998-4.59003,3.02997-.12994-.01001-.26996-.02997-.40997-.02997-2.76001,0-5,2.23999-5,5,0,.14001.02002.27997.03003.40997-1.80005.78003-3.03003,2.58002-3.03003,4.59003,0,2.76001,2.23999,5,5,5,.06,0,.10999-.01001.16998-.01001,0,.04999-.01001.10999-.01001.16998,0,4.77002,3.41003,8.75,7.92004,9.65002.38995,2.37,2.44,4.19,4.91998,4.19,1.75,0,3.32001-.92004,4.21997-2.34003.56006.21002,1.16003.34003,1.78003.34003,2.76001,0,5-2.23999,5-5,0-.32001-.03003-.64001-.09998-.95001,1.29999-.91998,2.09998-2.42999,2.09998-4.04999,0-1.09003-.35999-2.14001-1.01001-3,.65002-.85999,1.01001-1.91003,1.01001-3ZM29,18c1.65002,0,3,1.34998,3,3,0,.02997-.01001.04999-.01001.07996-.32001-.04999-.64996-.07996-.98999-.07996-.96002,0-1.85999.20001-2.64001.54999-.46997-.83002-1.15997-1.5-2-1.95001.51001-.95996,1.52002-1.59998,2.64001-1.59998ZM24,21c.28998,0,.54999.03998.82001.10999.83997.23999,1.5.84003,1.85999,1.59998-.69.73004-1.09998,1.63-1.09998,2.61005,0,.19.01996.38995.04999.58997-.16003.10004-.31.23004-.46002.35004-.91998-1.37-2.46997-2.26001-4.16998-2.26001,0-1.65002,1.34998-3,3-3ZM21,32c-1.65002,0-3-1.35004-3-3,0-1.40002.98999-2.64001,2.37-2.92999.19-.05005.41003-.07001.63-.07001,1.12,0,2.15002.64001,2.65997,1.60999-1.09998,1.23999-1.87,2.72998-2.23999,4.35999-.13995.02002-.27997.03003-.41998.03003ZM36.82001,43.98999c-.41003,1.20001-1.54999,2.01001-2.82001,2.01001-1.28998,0-2.39001-.83002-2.81-2.01001,2.12-.03998,4.07001-.75,5.65002-1.92999.10999.29999.15997.60999.15997.94,0,.33997-.06.66998-.17999.98999ZM31,42c-4.32001,0-7.84003-3.52002-7.84003-7.84003,0-2.89996,1.59003-5.53998,4.14001-6.91998.46002-.23999.65002-.81.44-1.28998-.10999-.24005-.15997-.44-.15997-.63,0-1.26001,1.57001-2.32001,3.41998-2.32001s3.41998,1.06,3.41998,2.32001c0,.19-.04999.38995-.15997.63-.21002.47998-.02002,1.04999.44,1.28998,2.54999,1.38,4.14001,4.02002,4.14001,6.91998,0,4.32001-3.52002,7.84003-7.84003,7.84003ZM40,44c-.37,0-.72998-.08002-1.07001-.21002.03998-.26001.07001-.52002.07001-.78998,0-.84003-.21002-1.65002-.59998-2.37.67999-.78003,1.25-1.66003,1.65997-2.63,1.22003.02997,2.32001.79999,2.75,1.95001.13.33997.19.67999.19,1.04999,0,1.64996-1.34998,3-3,3ZM44.08002,38.14001c-.79004-1.13-2.04004-1.90002-3.42999-2.09003.12-.60999.19-1.23999.19-1.89001,0-.29999-.03003-.58997-.05005-.89001,1.04004-.45996,2.31-.28998,3.19.48004.65002.57001,1.02002,1.39001,1.02002,2.25,0,.82001-.34998,1.58997-.91998,2.14001ZM44.46997,31.67999c-1.23999-.69-2.73999-.83002-4.06995-.38-.27002-.88-.66003-1.72003-1.15002-2.47998.46002-1.09003,1.53998-1.82001,2.75-1.82001,1.65002,0,3,1.34998,3,3,0,.59998-.19,1.19-.53003,1.67999Z"/>
  <path d="M35,15c-.55273,0-1,.44727-1,1s.44727,1,1,1c.55176,0,1,.44824,1,1,0,.55273.44727,1,1,1s1-.44727,1-1c0-1.6543-1.3457-3-3-3Z"/>
  <path d="M36,21c0,.55273.44727,1,1,1,.55176,0,1,.44824,1,1,0,.55273.44727,1,1,1s1-.44727,1-1c0-1.6543-1.3457-3-3-3-.55273,0-1,.44727-1,1Z"/>
  <path d="M43,23c0,.55273.44727,1,1,1s1-.44727,1-1c0-1.6543-1.3457-3-3-3-.55273,0-1,.44727-1,1s.44727,1,1,1c.55176,0,1,.44824,1,1Z"/>
</svg>