<?xml version="1.0" encoding="UTF-8"?>
<svg id="Outline" xmlns="http://www.w3.org/2000/svg" version="1.1" viewBox="0 0 64 64">
  <!-- Generator: Adobe Illustrator 29.5.1, SVG Export Plug-In . SVG Version: 2.1.0 Build 141)  -->
  <path d="M52.44,27.279c.36-.699.56-1.477.56-2.279,0-2.757-2.243-5-5-5-1.128,0-2.233.393-3.112,1.092-.375-.075-.724-.092-1.067-.079.115-.668.179-1.34.179-2.013,0-6.617-5.383-12-12-12s-12,5.383-12,12c0,1.005.126,2.004.375,2.98-.169.148-.304.329-.445.503-.093.043-.195.067-.285.116-.932-1.004-2.254-1.599-3.646-1.599-2.757,0-5,2.243-5,5,0,.486.079.969.221,1.436-.38.19-.738.427-1.048.737-.757.756-1.173,1.76-1.173,2.827,0,2.206,1.794,4,4,4h.051c.454,8.655,6.706,15.793,14.949,17.568v2.432h-6c-.553,0-1,.448-1,1s.447,1,1,1h20c.553,0,1-.448,1-1s-.447-1-1-1h-6v-2.432c3.543-.757,6.805-2.508,9.438-5.132,3.349-3.359,5.27-7.745,5.513-12.436h.049c1.066,0,2.071-.417,2.827-1.173.757-.756,1.173-1.76,1.173-2.827,0-1.697-1.066-3.141-2.56-3.721ZM42,19c0,.321-.04.641-.071.962-.834-.612-1.847-.962-2.929-.962-1.635,0-3.123.786-4.054,2.096-1.138-.231-2.302-.042-3.301.503-.932-1.004-2.254-1.599-3.646-1.599-1.73,0-3.31.903-4.209,2.331-.42-.162-.865-.241-1.316-.282-.315-.991-.475-2.016-.475-3.049,0-1.422.303-2.774.841-4h1.159c.552,0,1,.449,1,1,0,1.654,1.346,3,3,3s3-1.346,3-3v-2c0-.551.448-1,1-1s1,.449,1,1c0,1.654,1.346,3,3,3s3-1.346,3-3v-2.129c1.849,1.816,3,4.339,3,7.129ZM32,9c1.822,0,3.527.498,5,1.353v3.647c0,.551-.448,1-1,1s-1-.449-1-1c0-1.654-1.346-3-3-3s-3,1.346-3,3v2c0,.551-.448,1-1,1s-1-.449-1-1c0-1.648-1.336-2.988-2.982-2.998,1.827-2.424,4.72-4.002,7.982-4.002ZM34,55h-4v-2.107c.658.069,1.324.107,2,.107s1.339-.04,2-.109v2.109ZM52.413,32.413c-.379.378-.881.587-1.413.587h-22c-.553,0-1,.448-1,1s.447,1,1,1h19.972c-.24,4.159-1.977,8.042-4.947,11.021-3.221,3.21-7.491,4.979-12.024,4.979-9.038,0-16.451-7.09-16.971-16h9.971c.553,0,1-.448,1-1s-.447-1-1-1h-12c-1.103,0-2-.897-2-2,0-.533.208-1.035.587-1.413s.881-.587,1.413-.587h31c.553,0,1-.448,1-1s-.447-1-1-1H13.197c-.116-.326-.197-.66-.197-1,0-1.654,1.346-3,3-3,1.045,0,2.024.562,2.559,1.468.149.253.403.428.693.478.291.048.588-.031.812-.221.393-.331,1.047-.725,1.936-.725.605,0,1.185.178,1.674.514.258.177.586.223.879.125.297-.097.53-.328.633-.623.417-1.207,1.549-2.017,2.814-2.017,1.045,0,2.024.562,2.559,1.468.149.253.403.428.693.478.289.049.588-.032.812-.221.393-.331,1.047-.725,1.936-.725.353,0,.696.066,1.05.203.485.187,1.034-.028,1.26-.497.511-1.052,1.541-1.706,2.69-1.706,1.118,0,2.12.622,2.644,1.625.007.014.015.026.023.04.007.014.017.027.024.041.227.469.775.685,1.26.497.61-.236,1.113-.295,1.926-.055.354.105.737.007.996-.256.567-.575,1.323-.892,2.128-.892,1.654,0,3,1.346,3,3,0,.745-.294,1.451-.792,2h-2.208c-.553,0-1,.448-1,1s.447,1,1,1h3c1.103,0,2,.897,2,2,0,.533-.208,1.035-.587,1.413Z"/>
</svg>