<?xml version="1.0" encoding="UTF-8"?>
<svg id="Outline" xmlns="http://www.w3.org/2000/svg" version="1.1" viewBox="0 0 64 64">
  <!-- Generator: Adobe Illustrator 29.3.1, SVG Export Plug-In . SVG Version: 2.1.0 Build 151)  -->
  <circle cx="34" cy="23.00127" r="1"/>
  <circle cx="37" cy="25.00127" r="1"/>
  <circle cx="33" cy="26.00127" r="1"/>
  <path d="M42.77002,30.08122c.13995-.68994.22998-1.37994.22998-2.07996,0-1.15002-.17999-2.27002-.52002-3.32001.98004-1.35004,1.52002-2.98999,1.52002-4.67999,0-4.41003-3.59003-8-8-8-1.40997,0-2.75.38-3.95001,1.07001-.59998-.47003-1.31-.82001-2.08997-.97003-.16003-1.82001-.95001-3.5-2.25-4.81-.39001-.39001-1.03003-.39001-1.42004,0-.38995.39001-.38995,1.03003,0,1.41998.92999.93005,1.51001,2.12,1.66003,3.40002-2.25.48999-3.95001,2.48999-3.95001,4.89001,0,1,.29999,1.91998.81,2.70001-2.40002,2.07996-3.81,5.10999-3.81,8.29999,0,.70001.09003,1.39001.22998,2.07996-.77997.15002-1.48999.52002-2.06,1.09003-.75.76001-1.16998,1.76001-1.16998,2.83002,0,1.85999,1.28003,3.40997,3,3.85999l.03003,4.59998c.00995,2.57001.46997,5.11005,1.35999,7.55005.90997,2.44,2.20001,4.66998,3.83997,6.63.19.22998.47003.35999.77002.35999h10c.29999,0,.60999-.17004.79999-.40002,3.31-3.95996,5.15002-8.98999,5.16998-14.14001l.03003-4.59998c.67999-.17999,1.31-.52002,1.83002-1.03003.75-.75995,1.16998-1.75995,1.16998-2.82996,0-1.94-1.39001-3.56-3.22998-3.92004ZM36,14.00127c3.31,0,6,2.69,6,6,0,.85999-.19,1.66998-.53003,2.41998-1.60999-2.72998-4.34998-4.65997-7.48999-5.22998,0-.07001.02002-.13.02002-.19,0-.87-.23999-1.67004-.63-2.39001.81-.40002,1.70001-.60999,2.63-.60999ZM29,14.00127c1.65002,0,3,1.34998,3,3s-1.34998,3-3,3-3-1.35004-3-3,1.34998-3,3-3ZM26.20001,21.14128c.79999.53998,1.76001.85999,2.79999.85999,1.97998,0,3.69-1.17004,4.48999-2.85004,3.13.53003,5.81,2.67999,6.94,5.70001.38.98999.57001,2.04999.57001,3.15002,0,.66998-.09998,1.33997-.25,2h-17.5c-.15002-.66003-.25-1.33002-.25-2,0-2.65002,1.19-5.16003,3.20001-6.85999ZM43.40997,35.41124c-.37994.38-.87994.59003-1.40997.59003h-6c-.54999,0-1,.45001-1,1s.45001,1,1,1h4.98999l-.02002,4.45001c-.01996,4.54999-1.58997,8.98999-4.44995,12.54999h-9.05005c-1.34998-1.70001-2.42999-3.60999-3.19995-5.67999-.81-2.22003-1.23004-4.53003-1.23999-6.87l-.02002-4.45001h4.98999c.54999,0,1-.45001,1-1s-.45001-1-1-1h-6c-1.09998,0-2-.90002-2-2,0-.53003.21002-1.03003.59003-1.41003.37994-.38.87994-.58997,1.40997-.58997h20c1.09998,0,2,.89996,2,2,0,.52997-.21002,1.02997-.59003,1.40997Z"/>
  <circle cx="32" cy="37.00127" r="1"/>
</svg>