<?xml version="1.0" encoding="UTF-8"?>
<svg id="Outline" xmlns="http://www.w3.org/2000/svg" version="1.1" viewBox="0 0 64 64">
  <!-- Generator: Adobe Illustrator 29.5.1, SVG Export Plug-In . SVG Version: 2.1.0 Build 141)  -->
  <path d="M32,18.999c-4.411,0-8,3.589-8,8s3.589,8,8,8,8-3.589,8-8-3.589-8-8-8ZM32,32.999c-3.309,0-6-2.691-6-6s2.691-6,6-6,6,2.691,6,6-2.691,6-6,6Z"/>
  <path d="M49.68,36.189c-.23-.22-.48-.41-.72-.62.59-.2.98-.38,1.03-.4.45-.22.67-.75.5-1.23-.04-.12-.73-2.05-2.26-3.72,2.05-.96,3.44-2.47,3.51-2.55.34-.39.34-.96,0-1.34-.08-.09-1.46-1.6-3.5-2.56,1.53-1.67,2.22-3.61,2.25-3.71.17-.48-.05-1.01-.51-1.23-.11-.06-1.96-.92-4.21-1.03.77-2.13.67-4.18.66-4.29-.03-.51-.44-.91-.94-.94-.13-.01-2.17-.1-4.29.67-.1-2.27-.98-4.13-1.03-4.23-.22-.45-.75-.67-1.23-.5-.12.04-2.05.73-3.72,2.26-.96-2.05-2.47-3.44-2.55-3.51-.38-.34-.96-.35-1.34,0-.09.08-1.6,1.46-2.56,3.5-1.67-1.53-3.61-2.22-3.71-2.25-.48-.17-1.01.05-1.23.51-.05.11-.92,1.96-1.03,4.21-2.13-.77-4.18-.67-4.29-.66-.51.03-.91.43-.94.94-.01.13-.1,2.17.67,4.29-2.27.1-4.13.98-4.23,1.03-.45.22-.67.75-.5,1.23.04.12.73,2.05,2.26,3.72-2.05.96-3.44,2.47-3.51,2.55-.34.39-.34.96,0,1.34.08.09,1.46,1.6,3.5,2.56-1.53,1.67-2.22,3.61-2.25,3.71-.17.48.05,1.01.51,1.23.05.03.43.2,1.02.4-.24.21-.49.4-.72.62-4.17,4.17-3.84,11.08-3.83,11.37.03.51.44.92.95.95.04,0,.24.01.56.01,1.77,0,7.28-.3,10.81-3.84.22-.22.41-.48.61-.72.21.6.39.98.41,1.03.17.35.53.56.9.56.11,0,.22-.02.33-.06.05-.01.44-.15.99-.42-.03.31-.05.62-.05.93,0,5.9,5.12,10.55,5.33,10.74.19.18.43.26.67.26s.48-.08.67-.26c.21-.19,5.33-4.84,5.33-10.74,0-.31-.02-.62-.05-.93.56.27.95.41.99.42.478.174,1.014-.052,1.23-.51.02-.05.2-.43.4-1.02.21.24.4.49.62.72,3.54,3.54,9.04,3.84,10.81,3.84.32,0,.52-.01.56-.01.51-.03.92-.44.95-.95.01-.29.34-7.2-3.83-11.37ZM49.55,26.999c-.68.58-1.79,1.37-3.09,1.75-.29-.17-.59-.34-.92-.47-.49-.21-1.02-.35-1.58-.43.02-.28.04-.56.04-.85,0-.63-.06-1.24-.16-1.84.4-.1.78-.16,1.15-.16h.01c1.9,0,3.62,1.21,4.55,2ZM48.21,33.719c-.84.27-2.17.59-3.51.45-.2-.28-.42-.55-.68-.81-.37-.38-.82-.7-1.3-.99.4-.8.71-1.65.93-2.54.4.06.78.15,1.12.29,1.76.73,2.89,2.51,3.44,3.6ZM48.21,20.289c-.4.79-1.13,1.94-2.18,2.8-.33-.06-.68-.09-1.03-.09h-.01c-.53,0-1.07.07-1.62.2-.28-.86-.67-1.67-1.14-2.43.33-.24.67-.45,1.01-.6,1.76-.72,3.82-.26,4.97.12ZM39.77,16.389c1.35-1.34,3.43-1.7,4.64-1.8-.07.89-.3,2.23-.94,3.42-.33.08-.67.18-.99.32-.5.2-.97.48-1.43.81-.59-.67-1.25-1.28-1.98-1.82.21-.34.44-.66.7-.93ZM35.12,14.229c.73-1.76,2.51-2.89,3.6-3.44.27.84.59,2.17.45,3.51-.28.2-.55.42-.81.68-.38.37-.7.82-.99,1.3-.8-.4-1.65-.71-2.54-.93.06-.4.15-.78.29-1.12ZM32,9.449c.58.68,1.36,1.8,1.75,3.09-.17.29-.34.59-.47.92-.21.49-.35,1.02-.43,1.58-.28-.02-.56-.04-.85-.04-.63,0-1.24.06-1.84.16-.1-.39-.16-.78-.16-1.16,0-1.9,1.21-3.63,2-4.55ZM25.29,10.789c.79.39,1.94,1.12,2.8,2.18-.05.33-.09.68-.09,1.03,0,.54.07,1.08.21,1.62-.87.29-1.68.68-2.44,1.15-.24-.33-.45-.67-.6-1.01-.72-1.76-.26-3.82.12-4.97ZM23.01,15.529c.08.33.18.66.32.99.2.5.48.97.81,1.43-.67.59-1.28,1.25-1.81,1.98-.35-.21-.67-.44-.94-.7-1.34-1.35-1.7-3.43-1.8-4.64.89.07,2.23.3,3.42.94ZM21.77,33.229c-.33.24-.67.45-1.01.6-1.76.72-3.82.26-4.97-.12.4-.79,1.13-1.94,2.18-2.8.33.06.68.09,1.03.09h.01c.53,0,1.07-.07,1.62-.2.28.86.67,1.67,1.14,2.43ZM19.3,19.829c.2.28.42.55.68.81.37.38.82.7,1.3.99-.4.8-.71,1.65-.93,2.54-.4-.06-.78-.15-1.12-.29-1.76-.73-2.89-2.51-3.44-3.6.84-.27,2.17-.59,3.51-.45ZM14.45,26.999c.68-.58,1.79-1.37,3.09-1.75.29.17.59.34.92.47.49.21,1.02.35,1.58.43-.02.28-.04.56-.04.85,0,.63.06,1.24.16,1.84-.4.1-.78.16-1.15.16h-.01c-1.9,0-3.62-1.21-4.55-2ZM21.39,43.259c-2.7,2.71-7.01,3.18-8.9,3.25.07-1.89.53-6.19,3.25-8.9.56-.57,1.22-1.05,1.94-1.46.18.02.37.03.56.04-.78,2.13-.68,4.19-.67,4.3.03.51.44.91.94.94.03,0,.15.01.34.01.69,0,2.3-.07,3.95-.67.01.18.02.37.04.55-.41.72-.89,1.38-1.45,1.94ZM24.23,37.609c-1.35,1.34-3.43,1.7-4.64,1.8.07-.89.3-2.23.94-3.43.33-.08.67-.17.99-.31.5-.2.97-.48,1.43-.81.59.67,1.25,1.28,1.98,1.82-.21.34-.44.66-.7.93ZM25.28,43.209c-.27-.84-.59-2.16-.45-3.51.28-.2.55-.42.81-.68.38-.37.7-.82.99-1.3.8.4,1.65.71,2.54.93-.06.4-.15.78-.29,1.12-.73,1.76-2.51,2.89-3.6,3.44ZM32,54.579c-1.29-1.39-4-4.76-4-8.58,0-.77.13-1.57.35-2.4.15-.12.29-.24.43-.37.96,2.05,2.48,3.44,2.56,3.51.19.17.42.26.66.26s.48-.09.67-.26c.09-.08,1.6-1.46,2.56-3.5l.42.36c.22.8.35,1.6.35,2.4,0,3.82-2.71,7.19-4,8.58ZM30.25,41.459c.17-.29.34-.59.47-.92.21-.49.35-1.02.43-1.58.28.02.56.04.85.04.63,0,1.24-.06,1.84-.16.1.4.16.79.16,1.16,0,1.9-1.21,3.63-2,4.55-.58-.67-1.36-1.78-1.75-3.09ZM38.71,43.209c-.79-.39-1.94-1.12-2.8-2.18.06-.33.09-.68.09-1.03,0-.53-.07-1.08-.2-1.62.86-.29,1.67-.68,2.43-1.15.24.33.45.67.6,1.01.72,1.76.26,3.82-.12,4.97ZM32,36.999c-5.51,0-10-4.49-10-10s4.49-10,10-10,10,4.49,10,10-4.49,10-10,10ZM40.67,37.479c-.2-.5-.48-.97-.81-1.43.67-.59,1.28-1.25,1.81-1.98.35.21.67.44.94.7,1.34,1.35,1.7,3.43,1.8,4.64-.89-.07-2.23-.3-3.42-.94-.08-.33-.18-.66-.32-.99ZM42.61,43.259c-.56-.56-1.04-1.22-1.45-1.94.02-.18.03-.37.04-.55,1.64.59,3.23.67,3.93.67.21,0,.33-.01.36-.01.51-.03.91-.43.94-.94.01-.13.1-2.18-.67-4.3.19-.01.38-.01.57-.03.71.4,1.37.88,1.93,1.45,2.71,2.7,3.18,7,3.25,8.9-1.9-.07-6.2-.54-8.9-3.25Z"/>
</svg>