<?xml version="1.0" encoding="UTF-8"?>
<svg id="Outline" xmlns="http://www.w3.org/2000/svg" version="1.1" viewBox="0 0 64 64">
  <!-- Generator: Adobe Illustrator 29.5.1, SVG Export Plug-In . SVG Version: 2.1.0 Build 141)  -->
  <path d="M56.713,31.299c-.198-.202-4.613-4.617-10.406-5.225,3.666-4.526,3.666-10.77,3.664-11.053-.005-.546-.446-.987-.992-.992-.257.002-6.524,0-11.052,3.664-.608-5.794-5.023-10.208-5.225-10.407-.389-.383-1.014-.383-1.402,0-.202.198-4.617,4.613-5.225,10.406-4.526-3.666-10.781-3.672-11.052-3.664-.546.004-.987.446-.992.992-.002.283-.003,6.526,3.664,11.053-5.793.608-10.208,5.023-10.406,5.225-.383.389-.383,1.013,0,1.402.198.202,4.613,4.617,10.406,5.225-3.666,4.526-3.666,10.77-3.664,11.053.005.546.446.987.992.992h.033c.568,0,6.609-.092,11.019-3.665.608,5.794,5.023,10.209,5.225,10.407.194.191.448.287.701.287s.507-.096.701-.287c.202-.198,4.617-4.613,5.225-10.407,4.411,3.573,10.452,3.665,11.019,3.665h.033c.546-.004.987-.446.992-.992.002-.283.003-6.526-3.664-11.053,5.793-.608,10.208-5.023,10.406-5.225.383-.389.383-1.013,0-1.402ZM32,44c-6.617,0-12-5.383-12-12s5.383-12,12-12,12,5.383,12,12-5.383,12-12,12ZM44.305,25.328c-1.294-2.377-3.257-4.34-5.634-5.634,2.991-2.753,7.282-3.441,9.243-3.61-.169,1.962-.857,6.253-3.61,9.244ZM32,9.493c1.268,1.507,3.817,5.03,3.984,9.093-1.264-.376-2.599-.585-3.984-.585s-2.72.209-3.984.585c.167-4.063,2.716-7.586,3.984-9.093ZM25.328,19.695c-2.377,1.294-4.34,3.257-5.634,5.634-2.752-2.991-3.441-7.282-3.61-9.244,1.961.169,6.253.857,9.243,3.61ZM18.585,28.016c-.376,1.264-.585,2.599-.585,3.984s.209,2.72.585,3.984c-4.063-.167-7.586-2.716-9.093-3.984,1.507-1.268,5.03-3.817,9.093-3.984ZM19.695,38.672c1.294,2.377,3.257,4.34,5.634,5.634-2.991,2.753-7.282,3.441-9.243,3.61.169-1.962.857-6.253,3.61-9.244ZM32,54.507c-1.268-1.507-3.817-5.03-3.984-9.093,1.264.376,2.599.585,3.984.585s2.72-.209,3.984-.585c-.167,4.063-2.716,7.586-3.984,9.093ZM38.672,44.305c2.377-1.294,4.34-3.257,5.634-5.634,2.752,2.991,3.441,7.282,3.61,9.244-1.961-.169-6.253-.857-9.243-3.61ZM45.415,35.984c.376-1.264.585-2.599.585-3.984s-.209-2.72-.585-3.984c4.063.167,7.586,2.716,9.093,3.984-1.507,1.268-5.03,3.817-9.093,3.984Z"/>
  <path d="M37.659,36.245l2.873-2.873c.145.076.299.128.458.128.256,0,.512-.098.707-.293.33-.33.364-.824.138-1.207.226-.383.192-.878-.138-1.207-.317-.317-.788-.363-1.165-.165l-2.873-2.873,1.412-1.412c.391-.391.391-1.023,0-1.414s-1.023-.391-1.414,0l-1.412,1.412-2.873-2.873c.198-.377.152-.848-.165-1.165-.33-.33-.824-.364-1.207-.138-.383-.226-.878-.192-1.207.138-.317.317-.363.788-.165,1.165l-2.873,2.873-1.412-1.412c-.391-.391-1.023-.391-1.414,0s-.391,1.023,0,1.414l1.412,1.412-2.873,2.873c-.377-.198-.848-.152-1.165.165-.33.33-.364.824-.138,1.207-.226.383-.192.878.138,1.207.195.195.451.293.707.293.16,0,.313-.052.458-.128l2.873,2.873-1.412,1.412c-.391.391-.391,1.023,0,1.414.195.195.451.293.707.293s.512-.098.707-.293l1.412-1.412,2.873,2.873c-.198.377-.152.848.165,1.165.195.195.451.293.707.293.176,0,.344-.063.5-.155.156.092.324.155.5.155.256,0,.512-.098.707-.293.317-.317.363-.788.165-1.165l2.873-2.873s1.412,1.412,1.412,1.412c.388.388,1.026.388,1.414,0,.391-.391.391-1.023,0-1.414l-1.412-1.412ZM39.076,32l-2.831,2.831-2.831-2.831,2.831-2.831,2.831,2.831ZM32,24.924l2.831,2.831-2.831,2.831-2.831-2.831,2.831-2.831ZM24.924,32l2.831-2.831,2.831,2.831-2.831,2.831-2.831-2.831ZM32,39.076l-2.831-2.831,2.831-2.831,2.831,2.831-2.831,2.831Z"/>
</svg>