<?xml version="1.0" encoding="UTF-8"?>
<svg id="Outline" xmlns="http://www.w3.org/2000/svg" version="1.1" viewBox="0 0 64 64">
  <!-- Generator: Adobe Illustrator 29.3.1, SVG Export Plug-In . SVG Version: 2.1.0 Build 151)  -->
  <path d="M54.74255,35.26549l-3.01001-25.02002c-.02997-.27002-.16998-.51001-.38-.66998-.20996-.17004-.48999-.23999-.75-.20001l-9.01996,1.28998c-.54999.08002-.92999.58002-.85004,1.13l.56,3.96002c.04004.26001.17999.5.39001.65997.21002.16003.47998.23004.73999.19l3.97003-.57001,2.04999,17.19c-3.79999-.88-7.82001-.69995-11.53003.56-3.16998,1.09003-6.64996,1.09003-9.81995,0-3.71002-1.25995-7.73004-1.44-11.53003-.56l2.04999-17.19,3.97003.57001c.26996.04004.52997-.02997.73999-.19.21002-.15997.34998-.39996.39001-.65997l.56-3.96002c.07996-.54999-.30005-1.04999-.85004-1.13l-9.01996-1.28998c-.26001-.03998-.54004.02997-.75.20001-.21002.15997-.35004.39996-.38.66998l-3.01001,25.02002c-1.37.53998-2.10999,2.07996-1.66003,3.5l.10004.29999c.23999.72998.75,1.32001,1.42999,1.65997.27997.14001.57001.23004.87.27002v4.15002c0,5.22998,4.26001,9.48999,9.48999,9.48999,4.79004,0,8.84003-3.58002,9.41998-8.33002l.30005-2.44c1.82001-.58997,3.75995-.58997,5.57996,0l.30005,2.44c.57996,4.75,4.62994,8.33002,9.41998,8.33002,5.22998,0,9.48999-4.26001,9.48999-9.48999v-4.15002c.29999-.03998.59003-.13.87-.27002.67999-.33997,1.19-.92999,1.42999-1.65997l.09003-.29999c.45996-1.42004-.28003-2.96002-1.65002-3.5ZM48.25256,14.78545c-.03003-.26996-.16998-.50995-.38-.66998-.21002-.16998-.48999-.23999-.75-.20001l-3.98999.57001-.28003-1.97998,7.02002-1,2.77002,23.02002-2.10999-.72003-2.28003-19.02002ZM14.13257,11.50548l7.02002,1-.28003,1.97998-3.98999-.57001c-.27002-.03998-.53998.03003-.75.20001-.21002.16003-.34998.40002-.38.66998l-2.28003,19.02002-2.10999.72003,2.77002-23.02002ZM26.92255,46.05547c-.45996,3.75-3.64996,6.58002-7.42999,6.58002-4.13,0-7.48999-3.35999-7.48999-7.48999v-4.5l3.40997-1.16003c3.16003-1.08997,6.64001-1.08997,9.81,0,.77002.26001,1.58002.47998,2.43005.66003l-.73004,5.90997ZM52.00256,45.1455c0,4.13-3.35999,7.48999-7.48999,7.48999-3.78003,0-6.97003-2.83002-7.42999-6.58002l-.73004-5.90997c.85004-.18005,1.66003-.40002,2.44-.66003,3.16003-1.08997,6.64001-1.08997,9.81,0l3.40002,1.16003v4.5ZM54.49255,38.1455c-.16738.51446-.51945,1.0502-1.14996.83997-.01001-.01001-.03003-.01001-.04004-.01001l-4.04999-1.38c-3.59003-1.23999-7.53003-1.23999-11.10999-.00995-.95001.32996-1.98004.57996-3.06.75995-.53003.09003-.90002.58002-.83002,1.11005l.28003,2.25995c-1.67004-.37994-3.39001-.37994-5.06006,0l.28003-2.25995c.07001-.53003-.29999-1.02002-.83002-1.11005-1.07996-.17999-2.10999-.42999-3.04999-.75-3.58997-1.23999-7.52997-1.23999-11.10999-.00995l-4.06,1.38995c-.01001,0-.03003,0-.04006.01002-.63558.2119-.97867-.32605-1.14994-.83997-.13995-.42986.08975-.89959.51943-1.04984,1.37615-.48122,2.76105-.93872,4.14055-1.41018,3.95001-1.34998,8.31-1.34998,12.27002-.01001,3.59003,1.23999,7.52997,1.23999,11.10999.01001,3.97003-1.34998,8.32001-1.34998,12.28003,0,1.37982.47013,2.75707.94901,4.13995,1.40997.42997.15.65995.61981.52002,1.05005Z"/>
</svg>