<?xml version="1.0" encoding="UTF-8"?>
<svg id="Outline" xmlns="http://www.w3.org/2000/svg" version="1.1" viewBox="0 0 64 64">
  <!-- Generator: Adobe Illustrator 29.3.1, SVG Export Plug-In . SVG Version: 2.1.0 Build 151)  -->
  <path d="M52.56,35.79544l-3.94-24.69c-.04999-.27002-.20001-.52002-.44-.66998-.22998-.16003-.52002-.21002-.78998-.14001l-10.12,2.52997c-.26001.06-.48004.23004-.62.46002-.13.21997-.17004.5-.11005.76001l.98004,3.88c.13995.52997.67999.84998,1.20996.71997l4.83002-1.20996,2.92999,18.29999h-28.97998l2.92999-18.29999,4.83002,1.20996c.52997.13,1.07001-.19,1.20996-.71997l.98004-3.88c.06-.26001.01996-.54004-.11005-.76001-.13995-.22998-.35999-.40002-.62-.46002l-10.12-2.52997c-.26996-.07001-.56-.02002-.78998.14001-.23999.14996-.39001.39996-.44.66998l-3.94,24.69c-2.48999.27997-4.44,2.38-4.44,4.94v8c0,2.76001,2.23999,5,5,5h7.75c4.14001,0,7.72998-2.79999,8.72998-6.82001l.10004-.37s.01001-.01001.01996-.01001c2-1.5,4.80005-1.5,6.80005,0,.00995.01001.01996.01001.01996.01001l.10004.37c1,4.02002,4.58997,6.82001,8.72998,6.82001h7.75c2.76001,0,5-2.23999,5-5v-8c0-2.56-1.95001-4.66003-4.44-4.94ZM17.19,12.49545l8.09003,2.02997-.5,1.94-4.91003-1.22998c-.27002-.07001-.56-.02002-.78998.14001-.23999.14996-.39001.39996-.44.66998l-3.15002,19.69h-2.02002l3.72003-23.23999ZM9,40.73544c0-1.65002,1.34998-3,3-3h2.59003l-5.59003,5.58997v-2.58997ZM9,48.73544v-2.59003l8.40997-8.40997h3.18005l-11.54004,11.52997c-.02997-.16998-.04999-.34998-.04999-.52997ZM27.78998,41.46542l-1.25,4.97003c-.77997,3.12-3.57001,5.29999-6.78998,5.29999h-7.75c-.71997,0-1.38-.27002-1.89001-.69l13.29999-13.31h1.47003c.92999,0,1.78998.41998,2.35999,1.14996.57001.74005.77002,1.67999.54999,2.58002ZM34.27002,41.9454l.5,2c-1.78003-.67999-3.76001-.67999-5.54004,0l.5-2c.37-1.46997.05005-3-.85999-4.20996h6.26001c-.91003,1.20996-1.22998,2.73999-.85999,4.20996ZM45.35999,16.04544c-.04999-.27002-.20001-.52002-.44-.66998-.22998-.16003-.51996-.21002-.78998-.14001l-4.91003,1.22998-.5-1.94,8.09003-2.02997,3.72003,23.23999h-2.02002l-3.15002-19.69ZM52,51.73544h-7.75c-3.21997,0-6.01001-2.17999-6.78998-5.29999l-1.25-4.97003c-.22003-.90002-.02002-1.83997.54999-2.58002.57001-.72998,1.42999-1.14996,2.35999-1.14996h1.47003l13.29999,13.31c-.51001.41998-1.17004.69-1.89001.69ZM55,48.73544c0,.17999-.02002.35999-.04999.52997l-11.54004-11.52997h3.18005l8.40997,8.40997v2.59003ZM55,43.32541l-5.59003-5.58997h2.59003c1.65002,0,3,1.34998,3,3v2.58997Z"/>
</svg>