<?xml version="1.0" encoding="UTF-8"?>
<svg id="Outline" xmlns="http://www.w3.org/2000/svg" version="1.1" viewBox="0 0 64 64">
  <!-- Generator: Adobe Illustrator 29.5.1, SVG Export Plug-In . SVG Version: 2.1.0 Build 141)  -->
  <path d="M32,7c-13.785,0-25,11.215-25,25s11.215,25,25,25,25-11.215,25-25S45.785,7,32,7ZM32,55c-12.682,0-23-10.317-23-23s10.318-23,23-23,23,10.317,23,23-10.318,23-23,23Z"/>
  <path d="M48.974,31.771l-4-17c-.107-.457-.482-.765-.991-.771-.47.008-.871.343-.963.804l-1.839,9.196h-18.36l-1.839-9.196c-.092-.461-.493-.796-.963-.804-.495.008-.883.313-.991.771l-4,17c-.033.14-.035.285-.007.426l3,15c.093.467.504.804.98.804h3c.431,0,.812-.275.949-.684l1.772-5.316h14.559l1.772,5.316c.136.408.518.684.949.684h3c.477,0,.887-.337.98-.804l3-15c.028-.141.026-.286-.007-.426ZM44.18,46h-1.459l-1.772-5.316c-.136-.408-.518-.684-.949-.684h-16c-.431,0-.813.275-.949.684l-1.772,5.316h-1.459l-2.796-13.982,2.897-12.314,1.099,5.493c.093.467.504.804.98.804h20c.477,0,.887-.337.98-.804l1.099-5.493,2.897,12.314-2.796,13.982Z"/>
  <path d="M21.079,28.026c-.479.045-.858.424-.903.903-.017.178-.377,4.377,2.097,6.851,1.884,1.885,4.769,2.125,6.116,2.125.421,0,.693-.023.735-.027.479-.045.858-.425.903-.903.017-.178.377-4.377-2.097-6.851s-6.672-2.115-6.851-2.098ZM23.687,34.366c-1.232-1.232-1.492-3.215-1.531-4.359,1.145.04,3.128.3,4.36,1.531,1.232,1.232,1.491,3.216,1.531,4.359-1.145-.039-3.127-.299-4.359-1.531Z"/>
  <path d="M42.921,28.026c-.178-.018-4.377-.376-6.851,2.098-2.474,2.474-2.113,6.673-2.097,6.851.044.479.424.858.903.903.042.004.313.027.735.027,1.347,0,4.231-.24,6.116-2.125,2.474-2.474,2.114-6.673,2.097-6.851-.044-.479-.424-.858-.903-.903ZM40.313,34.366c-1.232,1.232-3.216,1.492-4.359,1.531.04-1.145.299-3.127,1.531-4.359,1.232-1.232,3.216-1.491,4.36-1.531-.04,1.145-.299,3.128-1.531,4.359Z"/>
</svg>