<?xml version="1.0" encoding="UTF-8"?>
<svg id="Outline" xmlns="http://www.w3.org/2000/svg" version="1.1" viewBox="0 0 64 64">
  <!-- Generator: Adobe Illustrator 29.5.1, SVG Export Plug-In . SVG Version: 2.1.0 Build 141)  -->
  <path d="M20,28.986h2c.553,0,1-.447,1-1s-.447-1-1-1h-2c-1.654,0-3,1.346-3,3s1.346,3,3,3c.552,0,1,.448,1,1s-.448,1-1,1h-2c-.553,0-1,.447-1,1s.447,1,1,1h2c1.654,0,3-1.346,3-3s-1.346-3-3-3c-.552,0-1-.448-1-1s.448-1,1-1Z"/>
  <path d="M16,44.986h2c.553,0,1-.447,1-1s-.447-1-1-1h-2c-1.654,0-3,1.346-3,3s1.346,3,3,3c.552,0,1,.448,1,1s-.448,1-1,1h-2c-.553,0-1,.447-1,1s.447,1,1,1h2c1.654,0,3-1.346,3-3s-1.346-3-3-3c-.552,0-1-.448-1-1s.448-1,1-1Z"/>
  <path d="M28,26.986c-1.654,0-3,1.346-3,3v6c0,.553.447,1,1,1s1-.447,1-1v-2h2v2c0,.553.447,1,1,1s1-.447,1-1v-6c0-1.654-1.346-3-3-3ZM27,31.986v-2c0-.552.448-1,1-1s1,.448,1,1v2h-2Z"/>
  <path d="M38,34.986h-3v-7c0-.553-.447-1-1-1s-1,.447-1,1v8c0,.553.447,1,1,1h4c.553,0,1-.447,1-1s-.447-1-1-1Z"/>
  <path d="M46,32.986c.553,0,1-.447,1-1s-.447-1-1-1h-3v-2h3c.553,0,1-.447,1-1s-.447-1-1-1h-4c-.553,0-1,.447-1,1v8c0,.553.447,1,1,1h4c.553,0,1-.447,1-1s-.447-1-1-1h-3v-2h3Z"/>
  <path d="M42,44.986c.553,0,1-.447,1-1s-.447-1-1-1h-4c-.553,0-1,.447-1,1v8c0,.553.447,1,1,1h4c.553,0,1-.447,1-1s-.447-1-1-1h-3v-2h3c.553,0,1-.447,1-1s-.447-1-1-1h-3v-2h3Z"/>
  <path d="M26,42.986c-.553,0-1,.447-1,1v6c0,.552-.448,1-1,1s-1-.448-1-1v-6c0-.553-.447-1-1-1s-1,.447-1,1v6c0,1.654,1.346,3,3,3s3-1.346,3-3v-6c0-.553-.447-1-1-1Z"/>
  <path d="M32,42.986h-2c-.553,0-1,.447-1,1v8c0,.553.447,1,1,1s1-.447,1-1v-3h1c1.654,0,3-1.346,3-3s-1.346-3-3-3ZM32,46.986h-1v-2h1c.552,0,1,.448,1,1s-.448,1-1,1Z"/>
  <path d="M55.03,47.986l1.94-7.76c.07-.3.01-.61-.18-.86-.19-.24-.48-.38-.79-.38h-.29c0-.01,0-.02-.01-.03-1.12-2.15-1.71-4.56-1.71-6.97s.59-4.82,1.71-6.97c.12-.23.15-.5.06-.75-.08-.26-.26-.46-.5-.58-2.14-1.06-4.03-2.66-5.47-4.63-1.41-1.94-2.35-4.24-2.71-6.64-.04-.26-.18-.49-.39-.64-.22-.16-.48-.23-.74-.18-4.85.82-9.81-.79-13.25-4.3-.37-.38-1.03-.37-1.4,0-2.81,2.86-6.73,4.51-10.75,4.51-.85,0-1.69-.07-2.5-.21-.26-.05-.52.02-.74.17-.21.16-.35.39-.39.65-.36,2.4-1.3,4.7-2.71,6.64-1.44,1.97-3.33,3.57-5.47,4.63-.24.12-.42.32-.5.58-.09.25-.06.52.06.75,1.12,2.15,1.71,4.56,1.71,6.97s-.59,4.82-1.71,6.97c-.01.01-.01.02-.01.03h-.29c-.31,0-.6.14-.79.38-.19.25-.25.56-.18.86l1.94,7.76-1.94,7.76c-.07.3-.01.61.18.86.19.24.48.38.79.38h48c.31,0,.6-.14.79-.38.19-.25.25-.56.18-.86l-1.94-7.76ZM10.47,24.986c2.07-1.18,3.9-2.81,5.32-4.77,1.42-1.94,2.41-4.19,2.9-6.55.61.07,1.23.1,1.86.1,4.22,0,8.34-1.6,11.45-4.42,3.61,3.28,8.46,4.85,13.31,4.32.49,2.36,1.48,4.61,2.9,6.55,1.42,1.96,3.25,3.59,5.32,4.77-.98,2.2-1.5,4.6-1.5,7s.52,4.8,1.5,7h-3.88c.89-2.23,1.35-4.57,1.35-7,0-10.48-8.52-19-19-19S13,21.506,13,31.986c0,2.43.46,4.77,1.35,7h-3.88c.98-2.2,1.5-4.6,1.5-7s-.52-4.8-1.5-7ZM49,31.986c0,2.44-.53,4.79-1.54,7h-30.92c-1.01-2.21-1.54-4.56-1.54-7,0-9.37,7.63-17,17-17s17,7.63,17,17ZM53.03,48.226l1.69,6.76H9.28l1.69-6.76c.04-.16.04-.32,0-.48l-1.69-6.76h45.44l-1.69,6.76c-.04.16-.04.32,0,.48Z"/>
  <path d="M50.71,51.276l-2.33-2.33c1.47-.19,2.62-1.43,2.62-2.96,0-1.65-1.35-3-3-3h-2c-.55,0-1,.45-1,1v8c0,.55.45,1,1,1s1-.45,1-1v-1.59l2.29,2.3c.2.19.45.29.71.29.845,0,1.349-1.071.71-1.71ZM47,46.986v-2h1c.55,0,1,.45,1,1s-.45,1-1,1h-1Z"/>
</svg>