<?xml version="1.0" encoding="UTF-8"?>
<svg id="Outline" xmlns="http://www.w3.org/2000/svg" version="1.1" viewBox="0 0 64 64">
  <!-- Generator: Adobe Illustrator 29.3.1, SVG Export Plug-In . SVG Version: 2.1.0 Build 151)  -->
  <path d="M55.62,45c-.51001-.20001-1.08997.06-1.28998.57996-1.45001,3.84003-5.20001,6.42004-9.33002,6.42004-5.51001,0-10-4.48999-10-10s4.48999-10,10-10c4.13,0,7.88,2.57996,9.33002,6.41998.20001.52002.77997.78003,1.28998.58002.52002-.19.78003-.77002.59003-1.28003-1.75-4.62-6.26001-7.71997-11.21002-7.71997-6.03998,0-11.03998,4.48999-11.87,10.29999-.04999-.01001-.09998-.03003-.15002-.03998l-4.94-1.14001v-2.85999c.48004-.37.92004-.79004,1.30005-1.26001h2.65997c1.65002,0,3-1.35004,3-3v-1.56c1.19-.69,2-1.97003,2-3.44v-6c0-7.72003-6.28003-14-14-14s-14,6.27997-14,14v6c0,2.20996,1.78998,4,4,4h1.89001c.32001,2.13,1.45001,3.98999,3.07001,5.26001v2.85999l-4.94,1.13c-2.42004.54999-4.28003,2.56-4.63,5l-1.37,9.45996c-.08002.57001.07996,1.15002.45996,1.59003.39001.44.94.70001,1.53003.70001h27.97998c.59003,0,1.14001-.26001,1.53003-.70001.38-.44.53998-1.02002.45996-1.58002l-.37-2.57996c1.85004,1.16998,4.04004,1.85999,6.39001,1.85999,4.95001,0,9.46002-3.10004,11.21002-7.72003.19-.51001-.07001-1.08997-.59003-1.27997ZM29.21002,41.44l-.91003,4.08997-3.62-1.81,2.65002-2.70996,1.88.42999ZM33,32c0,.54999-.45001,1-1,1h-1.44c.26001-.63.45001-1.29999.54999-2h1.89001v1ZM33,29h-1.78998v-1.10004h.44c.56,0,1-.44,1-1v-1.89996h.34998c1.09998,0,2,.89996,2,2,0,1.09998-.90002,2-2,2ZM14.78998,29h-1.78998c-1.09998,0-2-.90002-2-2,0-1.10004.90002-2,2-2h.34998v1.89996c0,.56.44,1,1,1h.44v1.10004ZM13.34998,20.60999v2.39001h-.34998c-.72998,0-1.40997.20996-2,.56v-2.56c0-6.62,5.38-12,12-12s12,5.38,12,12v2.56c-.59003-.35004-1.27002-.56-2-.56h-.34998v-2.39001c0-2.53998-2.06-4.60999-4.60004-4.60999h-.13c-1.26996,0-2.46997.39996-3.47998,1.13-1.01001-.73004-2.22998-1.13-3.47998-1.13h-3.01001c-2.54004,0-4.60004,2.07001-4.60004,4.60999ZM15.34998,25.89996v-5.28998c0-1.44,1.17004-2.60999,2.60004-2.60999h3.01001c1.02997,0,2.03998.41998,2.77997,1.14996.39001.39001,1.02002.39001,1.41003,0,.73999-.73999,1.72998-1.14996,2.76996-1.14996h.13c1.42999,0,2.60004,1.16998,2.60004,2.60999v5.28998c-3.35004-.02997-6.60004-1.21997-9.17004-3.37-.26996-.22998-.63995-.28998-.97998-.17999-.33002.12-.58002.41003-.64001.75-.32996,1.63-1.76996,2.79999-3.41998,2.79999h-1.09003ZM16.79999,30c0-.07001-.01001-.14001-.01001-.21002v-1.90997c1.94-.13,3.66003-1.27002,4.53003-2.96002,2.33002,1.63,5.06,2.62,7.89001,2.90002v1.96997c0,.07001-.01001.14001-.01001.21002-.04004,1.09998-.35999,2.12-.89001,3h-4.31c-.54999,0-1,.45001-1,1s.45001,1,1,1h2.37c-.96997.63-2.13,1-3.37,1-3.34998,0-6.09003-2.67004-6.20001-6ZM18.66998,41.01001l2.65002,2.70996-3.62,1.81-.91003-4.08997,1.88-.42999ZM22,55h-13l1.37-9.47003c.22998-1.62,1.47003-2.95996,3.09003-3.32996l1.38-.31.90997,4.07996c.13.60004.53003,1.10004,1.09003,1.37.26996.13.56995.19.85999.19.29999,0,.60999-.07001.89001-.20996l3.40997-1.70001v9.38ZM19.96002,39.46997v-2.06c.94.38,1.96997.59003,3.03998.59003s2.09998-.21002,3.03998-.59003v2.06l-3.03998,3.10004-3.03998-3.10004ZM24,55v-9.38l3.40997,1.70001c.28003.13995.59003.20996.89001.20996.29004,0,.59003-.06.85999-.19.56-.26996.96002-.76996,1.09003-1.37l.90997-4.07996,1.38.31995c.16003.03003.32001.08002.48004.14001.08997,3.06,1.32001,5.83002,3.28998,7.90002l.67999,4.75h-12.98999Z"/>
  <circle cx="45" cy="35" r="1"/>
  <path d="M43,48c-.55225,0-1,.44775-1,1s.44775,1,1,1h4c.55225,0,1-.44775,1-1s-.44775-1-1-1h-1v-9c0-.55225-.44775-1-1-1h-2c-.55225,0-1,.44775-1,1s.44775,1,1,1h1v8h-1Z"/>
  <circle cx="56" cy="42" r="1"/>
</svg>