<?xml version="1.0" encoding="UTF-8"?>
<svg id="Outline" xmlns="http://www.w3.org/2000/svg" version="1.1" viewBox="0 0 64 64">
  <!-- Generator: Adobe Illustrator 29.0.0, SVG Export Plug-In . SVG Version: 2.1.0 Build 186)  -->
  <path d="M56.84003,40.45996c-.22003-.33997-.61005-.50995-1-.44995l-4.30005.71997,2.40002-6.38c.12-.33002.06-.69-.15002-.96997-.21997-.27002-.57001-.41003-.90997-.37l-2.91003.35999.94-10.37h1.09003c.54999,0,1-.45001,1-1v-6c0-.54999-.45001-1-1-1h-8.03003c.64001-.84003,1.03003-1.87,1.03003-3,0-2.76001-2.23999-5-5-5-2.40997,0-4.42999,1.71997-4.90002,4h-6.19995c-.47003-2.28003-2.49005-4-4.90002-4-2.76001,0-5,2.23999-5,5,0,1.13.39001,2.15997,1.03003,3h-8.03003c-.54999,0-1,.45001-1,1v6c0,.54999.45001,1,1,1h1.09003l.94,10.37-2.91003-.35999c-.33997-.04004-.69.09998-.90997.37-.21002.27997-.27002.63995-.15002.96997l2.40002,6.38-4.30005-.71997c-.38995-.06-.77997.10999-1,.44995-.21997.33002-.20996.76001.01001,1.09003l10,15c.19.28998.5.45001.83002.45001.10999,0,.21997-.02002.33002-.06.42999-.15002.70996-.57001.66998-1.03003l-.88-9.66998,3.67999.73999c.34003.07001.69-.03998.92999-.29999.23999-.25.33002-.60999.23004-.94l-.20001-.73999h18.47998l-.20001.73999c-.09998.33002-.00995.69.23004.94.23999.26001.58997.37.92999.29999l3.67999-.73999-.88,9.66998c-.03998.46002.23999.88.66998,1.03003.11005.03998.22003.06.33002.06.33002,0,.64001-.16003.83002-.45001l10-15c.21997-.33002.22998-.76001.01001-1.09003ZM37,12c0-1.65002,1.34998-3,3-3s3,1.34998,3,3-1.34998,3-3,3h-3v-3ZM36,17h15v4h-15v-4ZM24,9c1.65002,0,3,1.34998,3,3v3h-3c-1.65002,0-3-1.35004-3-3s1.34998-3,3-3ZM13,21v-4h15v4h-15ZM17.20001,44.01996c-.31-.06-.63.02002-.87.24005-.23004.20996-.35004.51996-.33002.82996l.65002,7.08002-6.54004-9.79999,3.73004.62c.34998.04999.69995-.08002.92999-.34998.22998-.28003.28998-.66003.16998-.99005l-2.41998-6.44995,5.69.70996,2.39996,8.79004-3.40997-.68005ZM29,43h-6.78003l-2.25995-8.26001c-.10004-.39001-.42999-.67999-.84003-.72998l-3.06-.38-.96997-10.63h13.90997v20ZM29,15v-2h6v2h-6ZM33,43h-2v-20h2v20ZM34,21h-4v-4h4v4ZM41.78003,43h-6.78003v-20h13.90997l-.96997,10.63-3.06.38c-.41003.04999-.73999.33997-.84003.72998l-2.25995,8.26001ZM47.34998,52.16998l.65002-7.08002c.02002-.31-.09998-.62-.33002-.82996-.19-.17004-.42999-.26001-.66998-.26001-.07001,0-.13.01001-.20001.01996l-3.40997.68005,2.39996-8.79004,5.69-.70996-2.41998,6.44995c-.12.33002-.06.71002.16998.99005.23004.26996.58002.39996.92999.34998l3.73004-.62-6.54004,9.79999Z"/>
</svg>