<?xml version="1.0" encoding="UTF-8"?>
<svg id="Outline" xmlns="http://www.w3.org/2000/svg" version="1.1" viewBox="0 0 64 64">
  <!-- Generator: Adobe Illustrator 29.0.0, SVG Export Plug-In . SVG Version: 2.1.0 Build 186)  -->
  <path d="M51.91998,45.89996c.69-1.32996,1.08002-2.82996,1.08002-3.89996,0-2.76001-2.23999-5-5-5s-5,2.23999-5,5c0,1.07001.39001,2.57001,1.08002,3.89996-1.78003.86005-3.20001,2.25-4.08002,3.96002-.88-1.71002-2.29999-3.09998-4.08002-3.96002.69-1.32996,1.08002-2.82996,1.08002-3.89996,0-2.76001-2.23999-5-5-5s-5,2.23999-5,5c0,1.07001.39001,2.57001,1.08002,3.89996-1.78003.86005-3.20001,2.25-4.08002,3.96002-.88-1.71002-2.29999-3.09998-4.08002-3.96002.69-1.32996,1.08002-2.82996,1.08002-3.89996,0-2.76001-2.23999-5-5-5s-5,2.23999-5,5c0,1.07001.39001,2.57001,1.08002,3.89996-3.08002,1.48004-5.08002,4.59003-5.08002,8.10004v2c0,.54999.45001,1,1,1h48c.54999,0,1-.45001,1-1v-2c0-3.51001-2-6.62-5.08002-8.10004ZM16,39c1.65002,0,3,1.34998,3,3,0,1.96997-1.60999,5-3,5s-3-3.03003-3-5c0-1.65002,1.34998-3,3-3ZM23,55h-14v-1c0-2.83002,1.67999-5.32001,4.23999-6.41003.76001.84003,1.69,1.41003,2.76001,1.41003s2-.57001,2.76001-1.41003c2.56,1.09003,4.23999,3.58002,4.23999,6.41003v1ZM32,39c1.65002,0,3,1.34998,3,3,0,1.96997-1.60999,5-3,5s-3-3.03003-3-5c0-1.65002,1.34998-3,3-3ZM39,55h-14v-1c0-2.83002,1.67999-5.32001,4.23999-6.41003.76001.84003,1.69,1.41003,2.76001,1.41003s2-.57001,2.76001-1.41003c2.56,1.09003,4.23999,3.58002,4.23999,6.41003v1ZM48,39c1.65002,0,3,1.34998,3,3,0,1.96997-1.60999,5-3,5s-3-3.03003-3-5c0-1.65002,1.34998-3,3-3ZM55,55h-14v-1c0-2.83002,1.67999-5.32001,4.23999-6.41003.76001.84003,1.69,1.41003,2.76001,1.41003s2-.57001,2.76001-1.41003c2.56,1.09003,4.23999,3.58002,4.23999,6.41003v1Z"/>
  <path d="M21.44824,29.62598c.02539.00195.05078.00293.07617.00293.26367,0,.51855-.10449.70605-.29199l4.35547-4.34473c.18848-.1875.29395-.45312.29395-.71875,0-.16699-.04199-.33203-.12207-.47852-.47949-.87891-.72266-1.84473-.72266-2.87012,0-2.69531,1.7334-5.02246,4.31348-5.79102.42383-.12598.71484-.51562.71484-.95801v-6.17578c0-.29199-.12793-.56934-.34863-.75879-.22168-.19043-.51465-.27148-.80371-.22949-6.79004,1.04688-11.91113,7.02832-11.91113,13.91309,0,3.00684.94043,5.87598,2.71875,8.2959.17285.23535.43848.38281.72949.40527ZM29.06348,9.22559v4.24023c-3.03711,1.2168-5.02832,4.12598-5.02832,7.45898,0,1.10645.21387,2.16309.6377,3.15039l-2.99121,2.98438c-1.10352-1.85156-1.68164-3.9502-1.68164-6.13477,0-5.51074,3.82227-10.34668,9.06348-11.69922Z"/>
  <path d="M33.80273,15.13477c1.96191.58105,3.48145,2.10059,4.0625,4.0625.12598.4248.5166.71582.95898.71582h6.17578c.29199,0,.56934-.12793.75879-.34863.19043-.22168.27441-.51562.22949-.80371-.93848-6.08887-5.66016-10.81055-11.74902-11.74902-.28711-.04297-.58203.03809-.80371.22949-.2207.18945-.34863.4668-.34863.75879v6.17578c0,.44238.29102.83301.71582.95898ZM35.08691,9.22559c4.21973,1.09277,7.59473,4.46777,8.6875,8.6875h-4.24023c-.81543-2.03223-2.41504-3.63184-4.44727-4.44727v-4.24023Z"/>
  <path d="M28.01953,26.41309l-4.35547,4.35547c-.20605.20605-.3125.49219-.29004.7832.02246.29004.16992.55664.40527.72949,2.41992,1.77832,5.28906,2.71875,8.2959,2.71875,6.88477,0,12.86621-5.12109,13.91309-11.91113.04492-.28809-.03906-.58203-.22949-.80371-.18945-.2207-.4668-.34863-.75879-.34863h-6.17578c-.44238,0-.83203.29102-.95801.71484-.76855,2.58008-3.0957,4.31348-5.79102,4.31348-1.02539,0-1.99121-.24316-2.87012-.72266-.38672-.21094-.87012-.14258-1.18555.1709ZM39.53418,23.93652h4.24023c-1.35254,5.24121-6.18848,9.06348-11.69922,9.06348-2.18359,0-4.28223-.57812-6.13281-1.68066l2.98828-2.98926c.98535.42188,2.04004.63477,3.14453.63477,3.33301,0,6.24219-1.99121,7.45898-5.02832Z"/>
  <path d="M12.34277,32.37891c.19531.19531.45117.29297.70703.29297s.51172-.09766.70703-.29297c.39062-.39062.39062-1.02344,0-1.41406l-2.82812-2.8291c-.39062-.39062-1.02344-.39062-1.41406,0s-.39062,1.02344,0,1.41406l2.82812,2.8291Z"/>
  <path d="M8,36.20703h4c.55273,0,1-.44727,1-1s-.44727-1-1-1h-4c-.55273,0-1,.44727-1,1s.44727,1,1,1Z"/>
  <path d="M16.58594,31.62109c.55273,0,1-.44727,1-1v-4c0-.55273-.44727-1-1-1s-1,.44727-1,1v4c0,.55273.44727,1,1,1Z"/>
  <path d="M50.9502,32.67188c.25586,0,.51172-.09766.70703-.29297l2.82812-2.8291c.39062-.39062.39062-1.02344,0-1.41406s-1.02344-.39062-1.41406,0l-2.82812,2.8291c-.39062.39062-.39062,1.02344,0,1.41406.19531.19531.45117.29297.70703.29297Z"/>
  <path d="M51,35.20703c0,.55273.44727,1,1,1h4c.55273,0,1-.44727,1-1s-.44727-1-1-1h-4c-.55273,0-1,.44727-1,1Z"/>
  <path d="M47.41406,31.62109c.55273,0,1-.44727,1-1v-4c0-.55273-.44727-1-1-1s-1,.44727-1,1v4c0,.55273.44727,1,1,1Z"/>
</svg>