<?xml version="1.0" encoding="UTF-8"?>
<svg id="Outline" xmlns="http://www.w3.org/2000/svg" version="1.1" viewBox="0 0 64 64">
  <!-- Generator: Adobe Illustrator 29.5.1, SVG Export Plug-In . SVG Version: 2.1.0 Build 141)  -->
  <path d="M54,7H10c-1.654,0-3,1.346-3,3v44c0,1.654,1.346,3,3,3h44c1.654,0,3-1.346,3-3v-20c0-.553-.448-1-1-1s-1,.447-1,1v20c0,.552-.449,1-1,1H10c-.551,0-1-.448-1-1V15h36c.552,0,1-.447,1-1s-.448-1-1-1h-24.132l.964-1.445c.224-.336.224-.773,0-1.109l-.964-1.445h33.132c.551,0,1,.448,1,1v3h-6c-.552,0-1,.447-1,1s.448,1,1,1h6v15c0,.553.448,1,1,1s1-.447,1-1V10c0-1.654-1.346-3-3-3ZM9,10c0-.552.449-1,1-1h2.465l1.333,2-1.333,2h-3.465v-3ZM19.798,11l-1.333,2h-3.596l.964-1.445c.224-.336.224-.773,0-1.109l-.964-1.445h3.596l1.333,2Z"/>
  <path d="M29,26c0-4.963-4.038-9-9-9s-9,4.037-9,9,4.038,9,9,9,9-4.037,9-9ZM13,26c0-3.859,3.14-7,7-7s7,3.141,7,7-3.14,7-7,7-7-3.141-7-7Z"/>
  <path d="M44,53c4.962,0,9-4.037,9-9s-4.038-9-9-9-9,4.037-9,9,4.038,9,9,9ZM44,37c3.86,0,7,3.141,7,7s-3.14,7-7,7-7-3.141-7-7,3.14-7,7-7Z"/>
  <path d="M23.298,29.753c.416-.363.459-.995.095-1.411-.362-.413-.995-.458-1.411-.095-1.112.971-2.853.971-3.965,0-.416-.363-1.048-.318-1.411.095-.364.416-.321,1.048.095,1.411.92.805,2.092,1.247,3.298,1.247s2.377-.442,3.298-1.247Z"/>
  <path d="M18,26c.552,0,1-.447,1-1v-2c0-.553-.448-1-1-1s-1,.447-1,1v2c0,.553.448,1,1,1Z"/>
  <path d="M22,26c.552,0,1-.447,1-1v-2c0-.553-.448-1-1-1s-1,.447-1,1v2c0,.553.448,1,1,1Z"/>
  <path d="M42.018,48.753c1.112-.971,2.853-.971,3.965,0,.189.166.424.247.657.247.907,0,1.342-1.156.659-1.753-1.841-1.609-4.755-1.609-6.596,0-.416.363-.459.995-.095,1.411.362.415.995.459,1.411.095Z"/>
  <path d="M42,44c.552,0,1-.447,1-1v-2c0-.553-.448-1-1-1s-1,.447-1,1v2c0,.553.448,1,1,1Z"/>
  <path d="M46,44c.552,0,1-.447,1-1v-2c0-.553-.448-1-1-1s-1,.447-1,1v2c0,.553.448,1,1,1Z"/>
  <path d="M34,29c.256,0,.512-.098.707-.293l4-4c.391-.391.391-1.023,0-1.414s-1.023-.391-1.414,0l-3.293,3.293-1.293-1.293c-.391-.391-1.023-.391-1.414,0s-.391,1.023,0,1.414l2,2c.195.195.451.293.707.293Z"/>
  <path d="M52,23h-10c-.552,0-1,.447-1,1s.448,1,1,1h10c.552,0,1-.447,1-1s-.448-1-1-1Z"/>
  <path d="M52,27h-10c-.552,0-1,.447-1,1s.448,1,1,1h10c.552,0,1-.447,1-1s-.448-1-1-1Z"/>
  <path d="M32,41h-10c-.552,0-1,.447-1,1s.448,1,1,1h10c.552,0,1-.447,1-1s-.448-1-1-1Z"/>
  <path d="M32,45h-10c-.552,0-1,.447-1,1s.448,1,1,1h10c.552,0,1-.447,1-1s-.448-1-1-1Z"/>
  <path d="M17.707,41.293c-.391-.391-1.023-.391-1.414,0l-1.293,1.293-1.293-1.293c-.391-.391-1.023-.391-1.414,0s-.391,1.023,0,1.414l1.293,1.293-1.293,1.293c-.391.391-.391,1.023,0,1.414.364.364,1.022.393,1.414,0l1.293-1.293,1.293,1.293c.389.389,1.027.387,1.414,0,.391-.391.391-1.023,0-1.414l-1.293-1.293,1.293-1.293c.391-.391.391-1.023,0-1.414Z"/>
</svg>