<?xml version="1.0" encoding="UTF-8"?>
<svg id="Outline" xmlns="http://www.w3.org/2000/svg" version="1.1" viewBox="0 0 64 64">
  <!-- Generator: Adobe Illustrator 29.5.1, SVG Export Plug-In . SVG Version: 2.1.0 Build 141)  -->
  <path d="M54.41998,21.66995c-1.67999-1.95996-3.98999-3.26996-6.51996-3.69995-3.58002-.59003-7.23004-.98999-10.85004-1.17999-.52997-.03003-1.01996.39996-1.04999.94995-.03003.55005.40002,1.02002.95001,1.05005.20996.00995.42999.02997.64996.03998l1.27002,2.67999c.63,1.33002.57001,2.88-.15002,4.15002l-.26996.47998c-.98999,1.73999-1.13,3.79999-.37,5.65997l1.27997,3.15002c-1.98999-.15002-3.98999-.22998-5.97998-.26001l-1.34998-3.15997c-.57001-1.32001-.47003-2.85004.26996-4.09003,1.15002-1.90997,1.23999-4.25.23999-6.25l-1.25-2.51001c.23004-.01001.47003-.01996.71002-.01996.31,0,.65002,0,.96997.00995.58002,0,1.01001-.41998,1.03003-.96997s-.41998-1.01001-.96997-1.03003c-.34003-.00995-.69-.00995-1.03003-.00995-5.28003,0-10.63.44-15.90997,1.31-5.27002.88995-9.09003,5.40997-9.09003,10.75v4.89996c0,1.47003.65002,2.86005,1.77002,3.81.52997.46002,1.14996.77002,1.81.96002.72998,1.22998,2.08997,1.98999,3.54999,1.95001.44,1.71997,2.01001,3,3.87,3,.66998,0,1.32001-.17004,1.90002-.48999.75.91998,1.88995,1.48999,3.09998,1.48999.37,0,.73999-.04999,1.09003-.15002.38995,1.79999,1.98999,3.15002,3.90997,3.15002.71002,0,1.39001-.19,2-.54999,1.21002.71997,2.78998.71997,4,0,.60999.35999,1.28998.54999,2,.54999,1.91998,0,3.52002-1.35004,3.90997-3.15002.35004.10004.72003.15002,1.09003.15002,1.21002,0,2.34998-.57001,3.09998-1.48999.58002.31995,1.23004.48999,1.90002.48999,1.85999,0,3.42999-1.28003,3.87-3,1.47998.03998,2.82001-.72003,3.54999-1.95001.66003-.19,1.28003-.5,1.81-.96002,1.12-.94995,1.77002-2.33997,1.77002-3.81v-4.89996c0-2.56-.90997-5.07001-2.58002-7.05005ZM40.67999,20.66l-.78998-1.67004c1.88.16003,3.75.38,5.62.64001l1.35999,2.88c.63,1.33002.57001,2.88-.15002,4.15002l-.26996.47998c-.98999,1.73999-1.13,3.79999-.37,5.65997l1.26001,3.09003c-1.91003-.29999-3.82001-.53003-5.73004-.72003l-1.67999-4.12994c-.52002-1.28003-.42999-2.71002.26001-3.91003l.27002-.47998c1.03998-1.84003,1.12-4.08002.21997-5.98999ZM16.41998,19.94998c1.64001-.27002,3.28003-.48999,4.92999-.66998l1.41003,2.81c.69,1.38.62,3-.16998,4.32001-1.07001,1.78998-1.22003,4-.40002,5.90997l1.16998,2.72998c-1.98999.18005-3.96997.43005-5.95001.72003l-1.37994-3.23999c-.57001-1.32001-.47003-2.85004.26996-4.09003,1.15002-1.90997,1.23999-4.25.23999-6.25l-1.01996-2.03998c.29999-.08002.59998-.15002.89996-.20001ZM12.48999,36.56998c-.87.15002-1.75-.08997-2.42999-.65997-.66998-.57001-1.06-1.41003-1.06-2.29004v-4.89996c0-3.35004,1.84998-6.31,4.65997-7.82001l1.10004,2.19c.69,1.38.62,3-.16998,4.32996-1.07001,1.78003-1.22003,3.99005-.40002,5.90002l1.19,2.77002-2.89001.47998ZM48.40997,38.32999c-.26996.17999-.42999.48999-.42999.82001,0,.08002.01001.15997.02002.19,0,1.09998-.90002,2-2,2-.54999,0-1.08002-.23999-1.45001-.64001-.23999-.26001-.58997-.38-.92999-.31-.33997.07001-.62.29999-.75.63-.29999.79999-1.02997,1.32001-1.87,1.32001-.53998,0-1.04999-.22003-1.44-.62-.32001-.34003-.83002-.41003-1.22998-.17004-.39001.23004-.58002.71002-.45001,1.15002.08997.28003.12.46002.12.64001,0,1.09998-.90002,2-2,2-.48999,0-.96002-.17999-1.33002-.52002-.38-.34998-.95996-.34998-1.33997,0-.73999.66998-1.92004.66998-2.66003,0-.38-.34998-.95996-.34998-1.33997,0-.37.34003-.84003.52002-1.33002.52002-1.09998,0-2-.90002-2-2,0-.17999.03003-.35999.12-.64001.13-.44-.06-.91998-.45001-1.15002-.39996-.23999-.90997-.16998-1.22998.17004-.39001.39996-.90002.62-1.44.62-.84003,0-1.57001-.52002-1.87-1.32001-.13-.33002-.41003-.56-.75-.63-.34003-.07001-.69.04999-.92999.31-.37.40002-.90002.64001-1.45001.64001-1.09998,0-2-.90002-2-1.94.01001-.04999.02002-.20001.02002-.25,0-.33002-.16003-.64001-.42999-.82001-.13-.09003-.29004-.15002-.44-.16998l1.26996-.21002c3.17999-.53003,6.42999-.90002,9.64001-1.09998.56-.04004.97003-.51001.94-1.06-.03998-.56-.5-.95001-1.06-.94-.15997.00995-.32001.02997-.47003.03998l-1.43994-3.35999c-.57001-1.32001-.47003-2.85004.26996-4.09003,1.15002-1.90997,1.23999-4.25.23999-6.25l-1.06-2.13c1.92004-.16998,3.85004-.28998,5.76001-.33997l-.13.07001,1.65002,3.29999c.69,1.38.62,3-.16998,4.32996-1.07001,1.78003-1.22003,3.98004-.40002,5.90002l1.01001,2.35999c-.41003.01001-.81-.01001-1.22003,0-.54999.01001-.98999.47003-.97998,1.02002s.48999.98999,1.02002.97998c5.83997-.12,11.75.31,17.56,1.27002l1.26996.21002c-.14996.01996-.31.07996-.44.16998ZM55,33.61996c0,.88-.39001,1.72003-1.06,2.29004-.67999.57001-1.56.81-2.44.65997l-1.84998-.31-1.72003-4.21997c-.52002-1.28003-.42999-2.71002.26001-3.91003l.27002-.47998c1.03998-1.84003,1.12-4.08002.21997-5.98999l-.77997-1.64001c1.94.39996,3.69995,1.42999,4.98999,2.94,1.35999,1.62,2.10999,3.66998,2.10999,5.76001v4.89996Z"/>
</svg>