<?xml version="1.0" encoding="UTF-8"?>
<svg id="Outline" xmlns="http://www.w3.org/2000/svg" version="1.1" viewBox="0 0 64 64">
  <!-- Generator: Adobe Illustrator 29.5.1, SVG Export Plug-In . SVG Version: 2.1.0 Build 141)  -->
  <path d="M56,36.2125h-3.23999c2.01001-1.26001,3.23999-3.02002,3.23999-5,0-.78003-.19-1.54004-.56-2.25.29999-.07001.59003-.21002.84003-.41003.45996-.38.71997-.94.71997-1.53998,0-3.26001-2.33002-6.06-5.54999-6.64001-4.28003-.77997-8.62-.77997-12.91003,0-3.20996.58002-5.53998,3.38-5.53998,6.64001,0,.59998.26001,1.15997.71997,1.53998.25.20001.54004.34003.85004.41003-.38.70996-.57001,1.46997-.57001,2.25,0,1.97998,1.22998,3.73999,3.23999,5h-10.47998c2.01001-1.26001,3.23999-3.02002,3.23999-5,0-.78003-.19-1.54004-.56-2.25.29999-.07001.59003-.21002.84003-.41003.45996-.38.71997-.94.71997-1.53998,0-3.26001-2.33002-6.06-5.54999-6.64001-4.28003-.77997-8.62-.77997-12.91003,0-3.20996.58002-5.53998,3.38-5.53998,6.64001,0,.59998.26001,1.15997.71997,1.53998.25.20001.54004.34003.84003.41003-.37.70996-.56,1.46997-.56,2.25,0,1.97998,1.22998,3.73999,3.23999,5h-3.23999c-.54999,0-1,.45001-1,1,0,3.85999,3.14001,7,7,7h36c3.85999,0,7-3.14001,7-7,0-.54999-.45001-1-1-1ZM55,27.01249l-3.20001-.58002c.33002-1.17999.35999-2.42999.06-3.63l-.07001-.27997c1.89001.65997,3.21002,2.44,3.21002,4.48999ZM49.62,22.10252l.29999,1.17999c.23004.94.17999,1.91998-.13,2.82996-.63995-.08997-1.28998-.15997-1.94-.20996.20001-1.02002.20001-2.09003-.06-3.10004l-.22998-.90997c.69.04999,1.38.12,2.06.21002ZM44.15002,23.28251l.37-1.49005h.95996l.37,1.5c.21002.82001.19,1.69-.02997,2.51001-.27002,0-.54999-.01996-.82001-.01996s-.54999.01996-.82001.01996c-.21997-.82001-.23999-1.69-.02997-2.51996ZM40.08002,23.28251l.29999-1.17999c.67999-.09003,1.37-.16003,2.06-.21002l-.22998.89996c-.26001,1.02002-.26001,2.09003-.06,3.11005-.65002.04999-1.30005.12-1.94.20996-.31-.90997-.36005-1.88995-.13-2.82996ZM35,27.01249c0-2.04999,1.32001-3.83002,3.21002-4.47998l-.07001.26996c-.29999,1.20001-.27002,2.45001.06,3.63l-3.20001.58002ZM36,31.2125c0-1.12.71002-2.01001,1.37-2.60004l1.53003-.27997c4.04999-.72998,8.14996-.72998,12.19995,0l1.53003.27997c.65997.59003,1.37,1.48004,1.37,2.60004,0,2.70996-4.12,5-9,5s-9-2.29004-9-5ZM29,27.01249l-3.20001-.58002c.33002-1.17999.35999-2.42999.06-3.63l-.07001-.27997c1.89001.65997,3.21002,2.44,3.21002,4.48999ZM23.62,22.10252l.29999,1.17999c.23004.94.17999,1.91998-.13,2.82996-.63995-.08997-1.28998-.15997-1.94-.20996.20001-1.02002.20001-2.09003-.06-3.10004l-.22998-.90997c.69.04999,1.38.12,2.06.21002ZM18.15002,23.28251l.37-1.49005h.95996l.37,1.5c.21002.82001.19,1.69-.02997,2.51001-.54999-.01001-1.09003-.01001-1.64001,0-.21997-.82001-.23999-1.69-.02997-2.51996ZM14.08002,23.28251l.29999-1.17999c.67999-.09003,1.37-.16003,2.06-.21002l-.22998.89996c-.26001,1.02002-.26001,2.09003-.06,3.11005-.65002.04999-1.30005.12-1.94.20996-.31-.90997-.36005-1.88995-.13-2.82996ZM9,27.01249c0-2.04999,1.32001-3.83002,3.21002-4.47998l-.07001.26996c-.29999,1.20001-.27002,2.45001.06,3.63l-3.20001.58002ZM10,31.2125c0-1.12.71002-2.01001,1.37-2.60004l1.53003-.27997c4.04999-.72998,8.14996-.72998,12.19995,0l1.53003.27997c.65997.59003,1.37,1.48004,1.37,2.60004,0,2.70996-4.12,5-9,5s-9-2.29004-9-5ZM50,42.2125H14c-2.40997,0-4.44-1.72003-4.90002-4h45.80005c-.46002,2.27997-2.49005,4-4.90002,4Z"/>
  <circle cx="24.88892" cy="30.7125" r="1"/>
  <circle cx="22.88892" cy="33.7125" r="1"/>
  <circle cx="20.88892" cy="29.7125" r="1"/>
  <circle cx="39.11108" cy="30.7125" r="1"/>
  <circle cx="41.11108" cy="33.7125" r="1"/>
  <circle cx="43.11108" cy="29.7125" r="1"/>
</svg>