<?xml version="1.0" encoding="UTF-8"?>
<svg id="Outline" xmlns="http://www.w3.org/2000/svg" version="1.1" viewBox="0 0 64 64">
  <!-- Generator: Adobe Illustrator 29.0.0, SVG Export Plug-In . SVG Version: 2.1.0 Build 186)  -->
  <path d="M56,46.99974h-9c-.54999,0-1,.45001-1,1s.45001,1,1,1h8v2H9v-2h30c.54999,0,1-.45001,1-1s-.45001-1-1-1H8c-.54999,0-1,.45001-1,1v4c0,.54999.45001,1,1,1h4v3c0,.54999.45001,1,1,1h38c.54999,0,1-.45001,1-1v-3h4c.54999,0,1-.45001,1-1v-4c0-.54999-.45001-1-1-1ZM50,54.99974H14v-2h36v2Z"/>
  <path d="M12,44.99974h16c1.6543,0,3-1.3457,3-3v-4c0-6.06543-4.93457-11-11-11s-11,4.93457-11,11v4c0,1.6543,1.3457,3,3,3ZM11,37.99974c0-4.9624,4.0376-9,9-9s9,4.0376,9,9v4c0,.55127-.44873,1-1,1H12c-.55127,0-1-.44873-1-1v-4Z"/>
  <path d="M14,40.99974h12c.55225,0,1-.44775,1-1v-2c0-3.85986-3.14014-7-7-7s-7,3.14014-7,7v2c0,.55225.44775,1,1,1ZM25,38.99974h-4.53937c.14679-.52777.2265-1.06409.24506-1.60162l3.66638-1.47015c.047-.01886.07928-.05499.1217-.07983.31482.6543.50623,1.3783.50623,2.15161v1ZM23.24298,34.22588l-2.77997,1.11475c-.22272-.81018-.5835-1.58386-1.09808-2.27667.21021-.02704.4176-.06421.63507-.06421,1.24304,0,2.36731.4726,3.24298,1.22614ZM15,37.99974c0-1.78204.94446-3.33826,2.35187-4.22394,1.34772,1.39911,1.72363,3.44183.99689,5.22394h-3.34875v-1Z"/>
  <path d="M44,26.99974c-6.07001,0-11,4.92999-11,11v4c0,1.64996,1.34998,3,3,3h16c1.65002,0,3-1.35004,3-3v-4c0-6.07001-4.92999-11-11-11ZM53,41.99974c0,.54999-.45001,1-1,1h-16c-.54999,0-1-.45001-1-1v-4c0-4.96002,4.03998-9,9-9s9,4.03998,9,9v4Z"/>
  <path d="M44,30.99974c-3.85999,0-7,3.14001-7,7v2c0,.54999.45001,1,1,1h12c.54999,0,1-.45001,1-1v-2c0-3.85999-3.14001-7-7-7ZM39,38.99974v-1c0-.77002.19-1.5.51001-2.15002.03998.02002.07001.06.12.08002l3.65997,1.46997c.02002.54004.10004,1.07001.25,1.60004h-4.53998ZM43.53998,35.33971l-2.77997-1.10999c.87-.76001,2-1.22998,3.23999-1.22998.21997,0,.41998.03998.64001.06-.52002.70001-.88,1.46997-1.10004,2.27997ZM49,38.99974h-3.34998c-.73004-1.78003-.35004-3.82001,1-5.22003,1.40997.88,2.34998,2.44,2.34998,4.22003v1Z"/>
  <path d="M10.32471,16.32103c.01318,0,.02637-.00049.03955-.00098l33.98877-1.33545c.27051-.01025.52441-.12988.70508-.33105s.27197-.4668.25342-.73682l-.41211-5.98584c-.01855-.26953-.14551-.52002-.35205-.69482-.20605-.17432-.47412-.25635-.74365-.23145l-33.85107,3.33057c-.53809.05273-.93652.52393-.89941,1.06348l.27441,3.99121c.03613.52588.47412.93115.99707.93115ZM42.9751,9.09594l.27051,3.93066-31.98926,1.25732-.14111-2.05371,31.85986-3.13428Z"/>
  <path d="M44.49023,16.98119l-33.85156,3.33057c-.53809.05273-.93652.52441-.89941,1.06396l.2749,3.99072c.03613.52588.47412.93115.99707.93115.01318,0,.02637-.00049.03955-.00098l33.98828-1.33545c.27051-.01025.52441-.12988.70508-.33105s.27197-.4668.25342-.73682l-.41162-5.98584c-.01855-.26953-.14551-.52002-.35156-.69482-.20654-.1748-.47314-.25879-.74414-.23145ZM11.94287,24.26049l-.1416-2.05371,31.86035-3.13428.27002,3.93066-31.98877,1.25732Z"/>
  <circle cx="43" cy="47.99974" r="1"/>
</svg>