<?xml version="1.0" encoding="UTF-8"?>
<svg id="Outline" xmlns="http://www.w3.org/2000/svg" version="1.1" viewBox="0 0 64 64">
  <!-- Generator: Adobe Illustrator 29.5.1, SVG Export Plug-In . SVG Version: 2.1.0 Build 141)  -->
  <path d="M56,36h-1.18c.11-.31.18-.65.18-1v-6c0-6.07-4.93-11-11-11s-11,4.93-11,11v6c0,.35.07.69.18,1h-2.36c.11-.31.18-.65.18-1v-6c0-6.07-4.93-11-11-11s-11,4.93-11,11v6c0,.35.07.69.18,1h-1.18c-.55,0-1,.45-1,1v4c0,.55.45,1,1,1h1v3c0,.55.45,1,1,1h20c.55,0,1-.45,1-1s-.45-1-1-1H11v-2h6.78c.55.61,1.34,1,2.22,1s1.67-.39,2.22-1h19.56c.55.61,1.34,1,2.22,1s1.67-.39,2.22-1h6.78v2h-15c-.55,0-1,.45-1,1s.45,1,1,1h16c.55,0,1-.45,1-1v-3h1c.55,0,1-.45,1-1v-4c0-.55-.45-1-1-1ZM17,40h-8v-2h8v2ZM17,36h-5c-.55,0-1-.45-1-1v-6c0-4.96,4.04-9,9-9s9,4.04,9,9v6c0,.55-.45,1-1,1h-5v-1c0-.55.45-1,1-1h2c.55,0,1-.45,1-1v-4c0-3.86-3.14-7-7-7s-7,3.14-7,7v4c0,.55.45,1,1,1h2c.55,0,1,.45,1,1v1ZM24.57,26.99c-1.12-.05-2.19-.41-3.09-1.05l1.16-1.17c.85.53,1.52,1.3,1.93,2.22ZM20.53,24.05l-.55.56c-1.11,1.11-2.62,1.69-4.16,1.66.9-1.36,2.43-2.27,4.18-2.27.18,0,.35.03.53.05ZM21,35v5c0,.55-.45,1-1,1s-1-.45-1-1v-5c0-1.65-1.35-3-3-3h-1v-3c0-.27.04-.52.08-.77.28.03.56.05.85.05,1.37,0,2.73-.38,3.91-1.07,1.4,1.16,3.15,1.79,4.99,1.79h.17v3h-1c-1.65,0-3,1.35-3,3ZM41,40h-18v-2h18v2ZM41,36h-5c-.55,0-1-.45-1-1v-6c0-4.96,4.04-9,9-9s9,4.04,9,9v6c0,.55-.45,1-1,1h-5v-1c0-.55.45-1,1-1h2c.55,0,1-.45,1-1v-4c0-3.86-3.14-7-7-7s-7,3.14-7,7v4c0,.55.45,1,1,1h2c.55,0,1,.45,1,1v1ZM48.57,26.99c-1.12-.05-2.19-.41-3.09-1.05l1.16-1.17c.85.53,1.52,1.3,1.93,2.22ZM44.53,24.05l-.55.56c-1.11,1.11-2.62,1.69-4.16,1.66.9-1.36,2.43-2.27,4.18-2.27.18,0,.35.03.53.05ZM45,35v5c0,.55-.45,1-1,1s-1-.45-1-1v-5c0-1.65-1.35-3-3-3h-1v-3c0-.27.04-.52.08-.77.28.03.56.05.85.05,1.37,0,2.73-.38,3.91-1.07,1.4,1.16,3.15,1.79,4.99,1.79h.17v3h-1c-1.65,0-3,1.35-3,3ZM55,40h-8v-2h8v2Z"/>
  <circle cx="18" cy="30" r="1"/>
  <circle cx="21" cy="31" r="1"/>
  <circle cx="46" cy="30" r="1"/>
  <circle cx="43" cy="31" r="1"/>
  <circle cx="34" cy="45" r="1"/>
</svg>