<?xml version="1.0" encoding="UTF-8"?>
<svg id="Outline" xmlns="http://www.w3.org/2000/svg" version="1.1" viewBox="0 0 64 64">
  <!-- Generator: Adobe Illustrator 29.5.1, SVG Export Plug-In . SVG Version: 2.1.0 Build 141)  -->
  <path d="M56.88,37.53c-.17-.33-.51-.53-.88-.53h-4.38c3.24-2.15,5.38-5.83,5.38-10,0-6.62-5.38-12-12-12s-12,5.38-12,12c0,4.17,2.14,7.85,5.38,10h-12.76c3.24-2.15,5.38-5.83,5.38-10,0-6.62-5.38-12-12-12s-12,5.38-12,12c0,4.17,2.14,7.85,5.38,10h-4.38c-.37,0-.71.2-.88.53-.18.32-.16.72.05,1.02l4,6c.18.28.5.45.83.45h1v3c0,.55.45,1,1,1h8c.55,0,1-.45,1-1v-3h18v3c0,.55.45,1,1,1h8c.55,0,1-.45,1-1v-3h1c.33,0,.65-.17.83-.45l4-6c.21-.3.23-.7.05-1.02ZM35,27c0-5.51,4.49-10,10-10s10,4.49,10,10-4.49,10-10,10-10-4.49-10-10ZM9,27c0-5.51,4.49-10,10-10s10,4.49,10,10-4.49,10-10,10-10-4.49-10-10ZM21,47h-6v-2h6v2ZM49,47h-6v-2h6v2ZM51.46,43H12.54l-2.67-4h44.26l-2.67,4Z"/>
  <path d="M52.609,27.414c-.087-.271-.087-.557,0-.826.447-1.377-.04-2.875-1.211-3.728-.229-.167-.396-.396-.484-.666-.448-1.377-1.722-2.303-3.17-2.304-.284,0-.555-.088-.784-.255-1.172-.85-2.747-.85-3.919,0-.229.167-.5.254-.784.255-1.448,0-2.722.926-3.17,2.304-.088.27-.255.5-.485.667-1.171.852-1.657,2.35-1.211,3.726.087.271.087.557,0,.826-.447,1.377.04,2.875,1.211,3.728.229.167.396.396.484.666.448,1.377,1.722,2.303,3.17,2.304.284,0,.555.088.784.255.586.425,1.273.638,1.959.638s1.374-.213,1.959-.638c.229-.167.5-.254.784-.255,1.448,0,2.722-.926,3.17-2.304.088-.27.255-.5.485-.667,1.171-.852,1.657-2.35,1.211-3.726ZM47.742,21.891c.58,0,1.09.371,1.27.923.219.673.638,1.249,1.209,1.665.379.276.567.721.535,1.173-1.572-.978-3.35-1.536-5.195-1.631.207-.828.476-1.641.81-2.434.428.194.891.303,1.37.304ZM39.778,24.479c.572-.416.991-.992,1.21-1.665.18-.552.69-.922,1.271-.923.708,0,1.384-.221,1.957-.636.047-.034.102-.05.152-.077-.709,1.783-1.119,3.659-1.253,5.557-1.284-.209-2.582.038-3.691.691.063-.486.024-.98-.13-1.455-.179-.552.016-1.151.484-1.492ZM42.258,32.109c-.58,0-1.09-.371-1.27-.923-.209-.643-.605-1.193-1.138-1.604.884-.796,2.082-1.095,3.231-.813.048,1.214.205,2.426.493,3.621-.413-.179-.856-.281-1.316-.281ZM50.222,29.521c-.572.416-.991.992-1.21,1.665-.18.552-.69.922-1.271.923-.708,0-1.384.221-1.957.636-.019.014-.041.018-.06.031l-.18-.719c-.497-1.989-.608-4.038-.361-6.044,1.699.035,3.341.538,4.758,1.483l.504.336c.076.051.158.086.241.113.008.028.011.056.02.084.179.552-.016,1.151-.484,1.492Z"/>
  <path d="M26.609,27.414c-.087-.271-.087-.557,0-.826.447-1.377-.04-2.875-1.211-3.728-.229-.167-.396-.396-.484-.666-.448-1.377-1.722-2.303-3.17-2.304-.284,0-.555-.088-.784-.255-1.172-.85-2.747-.85-3.919,0-.229.167-.5.254-.784.255-1.448,0-2.722.926-3.17,2.304-.088.27-.255.5-.485.667-1.171.852-1.657,2.35-1.211,3.726.087.271.087.557,0,.826-.447,1.377.04,2.875,1.211,3.728.229.167.396.396.484.666.448,1.377,1.722,2.303,3.17,2.304.284,0,.555.088.784.255.586.425,1.273.638,1.959.638s1.374-.213,1.959-.638c.229-.167.5-.254.784-.255,1.448,0,2.722-.926,3.17-2.304.088-.27.255-.5.485-.667,1.171-.852,1.657-2.35,1.211-3.726ZM21.742,21.891c.58,0,1.09.371,1.27.923.219.673.638,1.249,1.209,1.665.469.341.664.941.484,1.494-.153.475-.193.968-.129,1.454-1.11-.653-2.408-.9-3.691-.692-.134-1.899-.545-3.774-1.253-5.558.05.027.105.043.152.077.573.415,1.25.635,1.958.636ZM13.778,24.479c.572-.416.991-.992,1.21-1.665.18-.552.69-.922,1.271-.923.479,0,.941-.109,1.37-.304.335.792.604,1.605.81,2.434-1.845.094-3.624.652-5.195,1.631-.032-.452.156-.897.535-1.173ZM16.258,32.109c-.58,0-1.09-.371-1.27-.923-.219-.673-.638-1.249-1.209-1.665-.469-.341-.664-.941-.484-1.494.009-.027.012-.055.02-.082.083-.028.165-.062.241-.113l.504-.336c1.417-.944,3.059-1.448,4.758-1.483.247,2.006.136,4.054-.361,6.044l-.18.719c-.019-.013-.041-.017-.06-.031-.573-.415-1.25-.635-1.958-.636ZM23.012,31.187c-.18.552-.69.922-1.271.923-.459,0-.902.102-1.315.281.288-1.195.445-2.407.493-3.621,1.149-.282,2.347.018,3.231.814-.533.411-.929.961-1.138,1.604Z"/>
</svg>