<?xml version="1.0" encoding="UTF-8"?>
<svg id="Outline" xmlns="http://www.w3.org/2000/svg" version="1.1" viewBox="0 0 64 64">
  <!-- Generator: Adobe Illustrator 29.5.1, SVG Export Plug-In . SVG Version: 2.1.0 Build 141)  -->
  <path d="M56,39.13h-6.184c.112-.314.184-.648.184-1v-2c0-.552-.448-1-1-1s-1,.448-1,1v2c0,.551-.449,1-1,1h-8c-.552,0-1,.448-1,1s.448,1,1,1h15.899c-.464,2.279-2.485,4-4.899,4H14c-1.341,0-2.595-.52-3.536-1.47-.705-.698-1.173-1.573-1.365-2.53h25.901c.552,0,1-.448,1-1s-.448-1-1-1h-18c-.551,0-1-.449-1-1v-8.638c.103-.026.207-.041.309-.074,2.344-.787,4.775-1.4,7.226-1.823,2.476-.427,5.21-.635,8.359-.635h.213c3.149,0,5.883.208,8.359.635,2.45.423,4.881,1.036,7.234,1.825.098.032.2.047.3.072v2.637c0,.552.448,1,1,1s1-.448,1-1v-2.55c2.264-.379,4-2.339,4-4.71,0-2.073-1.316-3.901-3.273-4.549l-2.398-.8c-4.262-1.43-8.726-2.292-13.268-2.56-2.03-.122-4.089-.122-6.119,0-4.543.268-9.007,1.129-13.267,2.559l-2.404.801c-.975.329-1.793.935-2.357,1.737-.597.817-.913,1.789-.913,2.811,0,2.371,1.736,4.33,4,4.71v8.55c0,.352.072.686.184,1h-6.184c-.552,0-1,.448-1,1,0,1.878.73,3.637,2.049,4.944,1.314,1.326,3.072,2.056,4.951,2.056h36c3.86,0,7-3.14,7-7,0-.552-.448-1-1-1ZM23.194,25.624c-1.234.213-2.462.474-3.677.777-.539-1.897-.654-3.889-.348-5.839,1.621-.435,3.271-.769,4.937-1.036-.273,1.975-.172,3.982.311,5.918-.41.058-.825.111-1.222.18ZM40.315,25.552c-.426-1.974-.421-4.005.027-5.954,1.653.281,3.286.639,4.894,1.086-.378,1.953-.374,3.959-.002,5.917-1.461-.388-2.94-.72-4.428-.977-.16-.028-.33-.046-.491-.072ZM50.096,22.219c1.139.377,1.904,1.442,1.904,2.651,0,1.538-1.251,2.79-2.79,2.79-.308,0-.6-.046-.882-.138-.297-.099-.598-.188-.897-.282-.528-1.96-.621-3.998-.267-5.98.175.057.355.1.53.158l2.402.801ZM38.363,19.284c-.432,1.964-.475,3.996-.137,5.99-1.503-.164-3.104-.259-4.815-.292-.529-2.005-.546-4.085-.052-6.072.528.015,1.057.016,1.582.047,1.147.068,2.288.18,3.422.326ZM29.06,18.958c.748-.045,1.502-.057,2.256-.067-.427,1.999-.416,4.065.035,6.079-1.756.014-3.389.095-4.927.241-.526-1.953-.61-3.996-.247-5.987.957-.112,1.917-.208,2.883-.265ZM12,24.87c0-.594.183-1.158.539-1.646.328-.467.802-.815,1.368-1.006l2.402-.801c.253-.085.514-.149.768-.23-.184,1.925-.018,3.87.508,5.735-.64.187-1.276.385-1.904.596-.291.095-.583.141-.891.141-1.539,0-2.79-1.251-2.79-2.79Z"/>
  <path d="M22.001,37.124c.151.003.304-.029.446-.1l2-1c.494-.247.694-.848.447-1.342-.247-.494-.847-.695-1.342-.447l-2,1c-.901.451-.603,1.87.448,1.889Z"/>
  <path d="M21.895,32.577c.247-.494.047-1.095-.447-1.342l-2-1c-.495-.249-1.095-.046-1.342.447-.247.494-.047,1.095.447,1.342,0,0,2,1,2,1,.489.245,1.097.042,1.342-.447Z"/>
  <path d="M26.999,33.126c1.033-.009,1.373-1.428.448-1.891l-2-1c-.495-.249-1.095-.046-1.342.447-.247.494-.047,1.095.447,1.342l2,1c.14.07.293.103.446.102Z"/>
  <path d="M32.999,32.13c1.025,0,1.368-1.435.448-1.895l-2-1c-.495-.247-1.095-.047-1.342.447-.247.494-.047,1.095.447,1.342l2,1c.143.072.296.105.446.105Z"/>
  <path d="M42.447,31.235l-2-1c-.496-.249-1.094-.046-1.342.447-.247.494-.047,1.095.447,1.342l2,1c.143.072.296.105.446.105,1.03,0,1.368-1.435.449-1.895Z"/>
  <path d="M28.001,37.13c.15,0,.303-.034.446-.105l2-1c.494-.247.694-.848.447-1.342-.247-.494-.847-.695-1.342-.447l-2,1c-.919.46-.582,1.895.448,1.895Z"/>
  <path d="M34.001,37.13c.15,0,.303-.034.446-.105l2-1c.494-.247.694-.848.447-1.342-.247-.494-.847-.695-1.342-.447l-2,1c-.917.458-.58,1.895.448,1.895Z"/>
  <path d="M41.553,34.235l-2,1c-.919.459-.586,1.895.448,1.895.15,0,.303-.034.446-.105l2-1c.494-.247.694-.848.447-1.342-.247-.494-.846-.695-1.342-.447Z"/>
</svg>