<?xml version="1.0" encoding="UTF-8"?>
<svg id="Outline" xmlns="http://www.w3.org/2000/svg" version="1.1" viewBox="0 0 64 64">
  <!-- Generator: Adobe Illustrator 29.5.1, SVG Export Plug-In . SVG Version: 2.1.0 Build 141)  -->
  <path d="M54,30h-1.03c2.44-1.83,4.03-4.73,4.03-8,0-5.51-4.49-10-10-10h-4c-5.51,0-10,4.49-10,10,0,3.27,1.59,6.17,4.03,8h-10.06c2.44-1.83,4.03-4.73,4.03-8,0-5.51-4.49-10-10-10h-4c-5.51,0-10,4.49-10,10,0,3.27,1.59,6.17,4.03,8h-1.03c-.81,0-1.57.32-2.11.87-.57.56-.89,1.32-.89,2.13,0,1.65,1.35,3,3,3h.12l1.89,15.12c.06.5.49.88.99.88h28c.55,0,1-.45,1-1s-.45-1-1-1H13.88l-1.75-14h1.87c.55,0,1-.45,1-1s-.45-1-1-1h-4c-.55,0-1-.45-1-1,0-.27.1-.51.31-.71.18-.19.42-.29.69-.29h44c.55,0,1,.45,1,1,0,.27-.1.51-.31.71-.18.19-.42.29-.69.29H18c-.55,0-1,.45-1,1s.45,1,1,1h33.87l-1.75,14h-5.12c-.55,0-1,.45-1,1s.45,1,1,1h6c.5,0,.93-.38.99-.88l1.89-15.12h.12c.81,0,1.57-.32,2.11-.87.57-.56.89-1.32.89-2.13,0-1.65-1.35-3-3-3ZM17,30c-4.41,0-8-3.59-8-8s3.59-8,8-8,8,3.59,8,8-3.59,8-8,8ZM23.48,29.6c2.15-1.83,3.52-4.56,3.52-7.6s-1.37-5.77-3.52-7.6c3.2,1.05,5.52,4.06,5.52,7.6s-2.32,6.55-5.52,7.6ZM43,30c-4.41,0-8-3.59-8-8s3.59-8,8-8,8,3.59,8,8-3.59,8-8,8ZM49.48,29.6c2.15-1.83,3.52-4.56,3.52-7.6s-1.37-5.77-3.52-7.6c3.2,1.05,5.52,4.06,5.52,7.6s-2.32,6.55-5.52,7.6Z"/>
  <path d="M29,41.171c.874,0,1.324-1.09.707-1.707-2.044-2.044-5.37-2.044-7.414,0-.391.391-.391,1.023,0,1.414s1.023.391,1.414,0c1.265-1.264,3.321-1.264,4.586,0,.195.195.451.293.707.293Z"/>
  <path d="M40.293,40.878c.195.195.451.293.707.293.874,0,1.323-1.091.707-1.707-2.044-2.044-5.37-2.044-7.414,0-.391.391-.391,1.023,0,1.414s1.023.391,1.414,0c1.265-1.264,3.321-1.264,4.586,0Z"/>
  <path d="M32,48c2.156,0,4.183-.84,5.707-2.364.391-.391.391-1.024,0-1.414-.391-.391-1.023-.391-1.414,0-1.146,1.147-2.671,1.778-4.293,1.778s-3.146-.631-4.293-1.778c-.391-.391-1.023-.391-1.414,0-.391.39-.391,1.023,0,1.414,1.524,1.524,3.551,2.364,5.707,2.364Z"/>
  <path d="M17,16c-3.309,0-6,2.691-6,6s2.691,6,6,6,6-2.691,6-6-2.691-6-6-6ZM21,22c0,.558-.117,1.089-.324,1.573-.65-1.305-1.753-2.33-3.095-2.883.018-.936-.226-1.868-.717-2.676.046-.002.09-.014.136-.014,2.206,0,4,1.794,4,4ZM14.88,18.622l.218.327c.5.75.629,1.709.343,2.565-.19.571-.545,1.064-1.027,1.426l-1.019.764c-.246-.519-.395-1.092-.395-1.704,0-1.425.755-2.669,1.88-3.378ZM14.677,25.243l.938-.703c.655-.491,1.161-1.133,1.503-1.866.857.438,1.544,1.171,1.908,2.08l.221.552c-.641.437-1.414.694-2.247.694-.868,0-1.667-.285-2.323-.757Z"/>
  <path d="M43,16c-3.309,0-6,2.691-6,6s2.691,6,6,6,6-2.691,6-6-2.691-6-6-6ZM47,22c0,.558-.117,1.089-.324,1.573-.65-1.305-1.753-2.33-3.095-2.883.018-.936-.226-1.868-.717-2.676.046-.002.09-.014.136-.014,2.206,0,4,1.794,4,4ZM40.88,18.622l.218.327c.5.75.629,1.709.343,2.565-.19.571-.545,1.064-1.027,1.426l-1.019.764c-.246-.519-.395-1.092-.395-1.704,0-1.425.755-2.669,1.88-3.378ZM40.677,25.243l.938-.703c.655-.491,1.161-1.133,1.503-1.866.857.438,1.544,1.171,1.908,2.08l.221.552c-.641.437-1.414.694-2.247.694-.868,0-1.667-.285-2.323-.757Z"/>
</svg>