<?xml version="1.0" encoding="UTF-8"?>
<svg id="Outline" xmlns="http://www.w3.org/2000/svg" version="1.1" viewBox="0 0 64 64">
  <!-- Generator: Adobe Illustrator 29.0.0, SVG Export Plug-In . SVG Version: 2.1.0 Build 186)  -->
  <path d="M54.83002,29.13l-3.17004-13.80005c-.31-1.37-1.50995-2.32996-2.91998-2.32996H15.26001c-1.41003,0-2.60999.95996-2.91998,2.32996l-3.17004,13.80005c-1.25.35999-2.16998,1.5-2.16998,2.87s.91998,2.51001,2.16998,2.87l3.16003,13.79999c.32001,1.37,1.51996,2.33002,2.92999,2.33002h3.73999c.54999,0,1-.45001,1-1s-.45001-1-1-1h-3.73999c-.47003,0-.87-.32001-.97998-.77002l-3.03003-13.22998h41.5l-3.03003,13.22998c-.10999.45001-.50995.77002-.97998.77002h-21.73999c-.54999,0-1,.45001-1,1s.45001,1,1,1h21.73999c1.41003,0,2.60999-.96002,2.92999-2.33002l3.16003-13.79999c1.25-.35999,2.16998-1.5,2.16998-2.87s-.91998-2.51001-2.16998-2.87ZM39,15h9.73999c.47003,0,.87.32001.97003.77997l3.03998,13.22003h-8.75v-3c0-1.65002-1.34998-3-3-3h-2v-8ZM42,26v3h-20v-3c0-.54999.45001-1,1-1h18c.54999,0,1,.45001,1,1ZM33,15h4v8h-4v-8ZM27,15h4v8h-4v-8ZM14.28998,15.77997c.10004-.45996.5-.77997.97003-.77997h9.73999v8h-2c-1.65002,0-3,1.34998-3,3v3h-8.75l3.03998-13.22003ZM54,33H10c-.54999,0-1-.45001-1-1s.45001-1,1-1h44c.54999,0,1,.45001,1,1s-.45001,1-1,1Z"/>
  <path d="M32,47h2c3.85938,0,7-3.14062,7-7v-2c0-.55273-.44727-1-1-1h-2c-2.54761,0-4.77539,1.37299-6,3.41339-1.22461-2.04041-3.45239-3.41339-6-3.41339h-2c-.55273,0-1,.44727-1,1v2c0,3.85938,3.14062,7,7,7h2ZM38,39h1v1c0,2.75684-2.24316,5-5,5h-1v-1c0-2.75684,2.24316-5,5-5ZM25,40v-1h1c2.75684,0,5,2.24316,5,5v1h-1c-2.75684,0-5-2.24316-5-5Z"/>
  <circle cx="23" cy="50" r="1"/>
</svg>