<?xml version="1.0" encoding="UTF-8"?>
<svg id="Outline" xmlns="http://www.w3.org/2000/svg" version="1.1" viewBox="0 0 64 64">
  <!-- Generator: Adobe Illustrator 29.5.1, SVG Export Plug-In . SVG Version: 2.1.0 Build 141)  -->
  <path d="M57.02,17.36c-.28-.48-.89-.64-1.37-.37l-1.42.82c-.11.07-.21.15-.29.25l-2.57,3.29-2.7,1.23c-3.09,1.4-6,3.17-8.57,5.23-.22-.28-.36-.63-.41-.98-.07-.76.25-1.48.86-1.89l4.3-2.92c.72-.49,1.15-1.31,1.15-2.17,0-1.06-.6-1.99-1.56-2.42-2.64-1.19-5.75-.72-7.92,1.2l-2.68,2.37h-2.58c.14-.49.4-.95.79-1.3l5.56-4.94c1.84-1.63,4.19-2.52,6.62-2.52.37,0,.75.02,1.17.07,2.32.28,4.7-.22,6.72-1.4.48-.27.64-.89.36-1.36-.27-.48-.89-.64-1.36-.36-1.65.95-3.6,1.36-5.48,1.14-.51-.06-.96-.09-1.41-.09-2.92,0-5.74,1.07-7.94,3.02l-5.56,4.94c-.83.73-1.36,1.73-1.53,2.8h-7.7c-1.65,0-3,1.35-3,3v9c0,.55.45,1,1,1s1-.45,1-1v-2h30v7c0,.55-.45,1-1,1h-28c-.55,0-1-.45-1-1v-1c0-.55-.45-1-1-1s-1,.45-1,1v1c0,1.65,1.35,3,3,3h28c1.65,0,3-1.35,3-3v-14c0-.31-.06-.61-.15-.9l.08-.03c.14-.07.27-.17.37-.29l2.6-3.33,1.25-.72c.48-.28.64-.89.37-1.37ZM37.84,20.13c1.59-1.4,3.85-1.74,5.78-.88.35.16.38.5.38.6,0,.12-.04.35-.28.52l-.93.63h-5.93l.98-.87ZM20.5,29v-2h17.2c.01.02,0,.03.01.05.08.72.38,1.4.79,1.95h-18ZM38.02,25h-17.52v-1c0-.55.45-1,1-1h18.34l-.41.28c-.64.43-1.12,1.03-1.41,1.72ZM50.5,29h-8.69c.93-.71,1.89-1.38,2.88-2h5.81v2ZM50.5,25h-2.23c.41-.2.81-.41,1.22-.6l1-.45c0,.02.01.03.01.05v1Z"/>
  <path d="M47.85,49h-1v-3c0-.53-.42-.97-.95-1l-38-2c-.27-.02-.54.09-.74.27-.2.19-.31.46-.31.73v10c0,.55.45,1,1,1h40c.55,0,1-.45,1-1v-4c0-.55-.45-1-1-1ZM46.85,53H8.85v-2h23c.55,0,1-.45,1-1s-.45-1-1-1H8.85v-3.95l36,1.9v2.05h-9c-.55,0-1,.45-1,1s.45,1,1,1h11v2Z"/>
</svg>