<?xml version="1.0" encoding="UTF-8"?>
<svg id="Outline" xmlns="http://www.w3.org/2000/svg" version="1.1" viewBox="0 0 64 64">
  <!-- Generator: Adobe Illustrator 29.5.1, SVG Export Plug-In . SVG Version: 2.1.0 Build 141)  -->
  <path d="M52,37.999c.55,0,1-.45,1-1V13.999c0-1.65-1.35-3-3-3h-1v-1c0-1.61-1.28-2.91-2.87-2.99h-.06c-.02,0-.05-.01-.07-.01H15c-.13,0-.26.03-.37.07-2.06.36-3.63,2.14-3.63,4.3v38.63c0,1.65,1.35,3,3,3h1v3c0,.35.18.67.47.85.3.18.67.2.98.04l5.55-2.77,5.55,2.77c.28.15.62.15.9,0l5.55-2.77,5.55,2.77c.28.15.62.15.9,0l5.55-2.77,5.55,2.77c.628.313,1.45-.13,1.45-.89v-15c0-.55-.45-1-1-1s-1,.45-1,1v13.38l-4.55-2.27c-.28-.15-.62-.15-.9,0l-5.55,2.77-5.55-2.77c-.28-.15-.62-.15-.9,0l-5.55,2.77-5.55-2.77c-.28-.15-.62-.15-.9,0l-4.55,2.27v-29.38h1c.55,0,1-.45,1-1s-.45-1-1-1h-1v-9c0-.55.45-1,1-1h.22l.81,3.24c.07.27.24.5.48.63.233.14.52.17.78.09l12.86-3.96h16.85c.55,0,1,.45,1,1v9h-1c-.55,0-1,.45-1,1s.45,1,1,1h1v12c0,.55.45,1,1,1ZM15,13.999v37h-1c-.55,0-1-.45-1-1V11.369c0-1.31,1.06-2.37,2.37-2.37,1.09,0,2.03.74,2.3,1.79l.06.24c-1.53.14-2.73,1.41-2.73,2.97ZM20.71,14.729l-1.1-4.42c-.12-.48-.32-.92-.57-1.31h20.31l-18.64,5.73ZM47,10.999h-7.35l6.44-1.98c.51.05.91.46.91.98v1Z"/>
  <path d="M48,16.999c.553,0,1-.447,1-1s-.447-1-1-1h-6c-.553,0-1,.447-1,1s.447,1,1,1h6Z"/>
  <path d="M48,18.999h-8c-.553,0-1,.447-1,1s.447,1,1,1h8c.553,0,1-.447,1-1s-.447-1-1-1Z"/>
  <path d="M46.444,24.999c.553,0,1-.447,1-1s-.447-1-1-1h-3.556c-.553,0-1,.447-1,1s.447,1,1,1h3.556Z"/>
  <path d="M32.223,24.999c.553,0,1-.447,1-1s-.447-1-1-1h-3.556c-.553,0-1,.447-1,1s.447,1,1,1h3.556Z"/>
  <path d="M39.333,24.999c.553,0,1-.447,1-1s-.447-1-1-1h-3.555c-.553,0-1,.447-1,1s.447,1,1,1h3.555Z"/>
  <path d="M25.111,24.999c.553,0,1-.447,1-1s-.447-1-1-1h-3.556c-.553,0-1,.447-1,1s.447,1,1,1h3.556Z"/>
  <path d="M20,37.999c-.553,0-1,.447-1,1v11c0,.553.447,1,1,1h28c.553,0,1-.447,1-1v-22c0-.553-.447-1-1-1h-28c-.553,0-1,.447-1,1v7c0,.553.447,1,1,1s1-.447,1-1v-2h8v16h-8v-10c0-.553-.447-1-1-1ZM47,30.999h-16v-2h16v2ZM21,30.999v-2h8v2h-8ZM31,32.999h16v16h-16v-16Z"/>
</svg>