<?xml version="1.0" encoding="UTF-8"?>
<svg id="Outline" xmlns="http://www.w3.org/2000/svg" version="1.1" viewBox="0 0 64 64">
  <!-- Generator: Adobe Illustrator 29.5.1, SVG Export Plug-In . SVG Version: 2.1.0 Build 141)  -->
  <path d="M27.293,21.707c.195.195.451.293.707.293s.512-.098.707-.293l4-4c.391-.391.391-1.023,0-1.414s-1.023-.391-1.414,0l-3.293,3.293-1.293-1.293c-.391-.391-1.023-.391-1.414,0s-.391,1.023,0,1.414l2,2Z"/>
  <path d="M29,27c4.411,0,8-3.589,8-8s-3.589-8-8-8-8,3.589-8,8,3.589,8,8,8ZM29,13c3.309,0,6,2.691,6,6s-2.691,6-6,6-6-2.691-6-6,2.691-6,6-6Z"/>
  <path d="M53,29h-3.24l-5.8-21.26h-.01c-.03-.12-.08-.24-.16-.35-.18-.24-.48-.39-.79-.39h-22c-.45,0-.85.3-.96.74l-5.8,21.26h-3.24c-1.07,0-2.07.42-2.83,1.17-.75.76-1.17,1.76-1.17,2.83,0,2.21,1.79,4,4,4h1v1c0,1.65,1.35,3,3,3h13v10h-5c-.55,0-1,.45-1,1v4c0,.55.45,1,1,1h18c.55,0,1-.45,1-1v-4c0-.55-.45-1-1-1h-5v-10h13c1.65,0,3-1.35,3-3v-1h1c1.07,0,2.07-.42,2.83-1.17.75-.76,1.17-1.76,1.17-2.83,0-2.21-1.79-4-4-4ZM47.69,29h-9.38l4.69-17.2,4.69,17.2ZM40,53v2h-16v-2h16ZM30,51v-10h4v10h-4ZM50,38c0,.55-.45,1-1,1H15c-.55,0-1-.45-1-1v-1h36v1ZM54.41,34.41c-.38.38-.88.59-1.41.59H11c-1.1,0-2-.9-2-2,0-.53.21-1.03.59-1.41.38-.38.88-.59,1.41-.59h8c.55,0,1-.45,1-1s-.45-1-1-1h-2.69l5.45-20h19.93l-5.45,20h-9.24c-.55,0-1,.45-1,1s.45,1,1,1h26c1.1,0,2,.9,2,2,0,.53-.21,1.03-.59,1.41Z"/>
  <circle cx="23" cy="30" r="1"/>
</svg>