<?xml version="1.0" encoding="UTF-8"?>
<svg id="Outline" xmlns="http://www.w3.org/2000/svg" version="1.1" viewBox="0 0 64 64">
  <!-- Generator: Adobe Illustrator 29.5.1, SVG Export Plug-In . SVG Version: 2.1.0 Build 141)  -->
  <path d="M55.24,40.72c1.17-2.03,1.76-4.31,1.76-6.8,0-10.37-10.92-22.42-25-22.42-3.57,0-7.06.77-10.39,2.29-.5.23-.72.82-.49,1.33.23.5.82.72,1.33.49,3.06-1.4,6.27-2.11,9.55-2.11,12.67,0,22.55,10.5,22.98,19.8-.11-2.66-2.29-4.8-4.98-4.8-.32,0-.63.03-.95.1-.53-.74-1.25-1.32-2.07-1.68.01-.14.02-.28.02-.42,0-1.75-.9-3.33-2.37-4.24-.94-2.76-3.55-4.76-6.63-4.76-1.96,0-3.73.81-5,2.11-.33-.07-.66-.11-1-.11-1.73,0-3.31.9-4.21,2.33-1.18-.46-2.57-.44-3.79.1-1.08-.48-2.27-.53-3.33-.22-.54-.13-1.09-.21-1.67-.21-3.86,0-7,3.14-7,7,0,.14.02.27.03.41-1.7.72-2.85,2.33-3,4.21.34-5.7,4.15-11.73,9.91-15.57.46-.3.59-.92.28-1.38-.3-.46-.92-.59-1.38-.28-6.59,4.38-10.84,11.46-10.84,18.03,0,2.49.59,4.77,1.76,6.8-1.1.93-1.76,2.29-1.76,3.78,0,2.02,1.2,3.8,3,4.58v2.42c0,.55.45,1,1,1h42c.55,0,1-.45,1-1v-2.42c1.8-.78,3-2.56,3-4.58,0-1.49-.66-2.85-1.76-3.78ZM38,19.5c2.76,0,5,2.24,5,5,0,1.57-.73,3.01-1.96,3.95-2.38-1.07-4.95-1.71-7.58-1.89-.3-.64-.46-1.34-.46-2.06,0-2.76,2.24-5,5-5ZM24.5,23.92c1.04-.6,2.27-.53,3.17.09.17.12.37.18.57.18.11,0,.21-.02.31-.05.3-.1.53-.33.64-.62.38-1.1,1.35-1.87,2.48-1.99-.42.9-.67,1.91-.67,2.97,0,.69.11,1.37.31,2.02-1.87.06-3.68.35-5.41.85-.21-1.28-.76-2.44-1.56-3.39.05-.02.11-.03.16-.06ZM19,23.5c2.58,0,4.68,1.97,4.95,4.53-2.79,1.1-5.3,2.75-7.39,4.82-1.32-.73-2.22-2-2.48-3.47v-.01c-.05-.28-.08-.57-.08-.87,0-2.76,2.24-5,5-5ZM9.01,33.64c.03,1.04.38,2.04,1.01,2.86-.21.28-.38.58-.53.89-.33-1.09-.49-2.25-.49-3.47,0-.09.01-.19.01-.28ZM10.07,46.79c-.66-.55-1.07-1.38-1.07-2.29,0-1.13.63-2.14,1.65-2.66.01,0,.02-.01.03-.01l.01-.01c.01,0,.01-.01.02-.01.46-.23.68-.77.49-1.26-.13-.35-.2-.7-.2-1.05,0-.85.38-1.67,1.04-2.25.21-.19.34-.46.34-.75s-.13-.56-.34-.75c-.66-.58-1.04-1.4-1.04-2.25,0-1.08.57-2.03,1.45-2.56.52,1.39,1.46,2.58,2.73,3.4-2.89,3.42-4.74,7.73-5.11,12.45ZM53.93,46.79c-.36-4.5-2.08-8.81-4.96-12.3-.35-.42-.98-.48-1.41-.13-.42.35-.48.98-.13,1.41,2.95,3.56,4.57,8.08,4.57,12.73v2H12v-2c0-11.03,8.97-20,20-20,4.65,0,9.17,1.62,12.73,4.57.43.35,1.06.29,1.41-.13.35-.43.29-1.06-.13-1.41-.96-.79-1.98-1.49-3.05-2.11,1.02-1.01,1.69-2.31,1.93-3.73.07.26.11.53.11.81,0,.24-.04.5-.13.81-.08.27-.04.56.1.79.15.24.38.41.65.47.89.19,1.67.8,2.07,1.63.22.47.77.69,1.26.5,2.01-.77,4.05.79,4.05,2.8,0,.85-.38,1.67-1.04,2.25-.21.19-.34.46-.34.75s.13.56.34.75c.66.58,1.04,1.4,1.04,2.25,0,.35-.07.7-.2,1.05-.19.49.03,1.03.49,1.26.01,0,.01.01.02.01l.01.01c.01,0,.02.01.03.01,1.02.52,1.65,1.53,1.65,2.66,0,.91-.41,1.74-1.07,2.29ZM54.51,37.39c-.15-.31-.32-.61-.53-.89.63-.83.98-1.83,1.01-2.88,0,.1.01.2.01.3,0,1.22-.16,2.38-.49,3.47Z"/>
  <path d="M28.293,37.378c.195.195.451.293.707.293.874,0,1.322-1.092.707-1.707-2.044-2.044-5.37-2.044-7.414,0-.391.391-.391,1.023,0,1.414s1.023.391,1.414,0c1.265-1.264,3.321-1.264,4.586,0Z"/>
  <path d="M34.293,35.964c-.391.391-.391,1.023,0,1.414s1.023.391,1.414,0c1.265-1.264,3.321-1.264,4.586,0,.195.195.451.293.707.293.871,0,1.326-1.088.707-1.707-2.044-2.044-5.37-2.044-7.414,0Z"/>
  <path d="M36.293,42.722c-1.146,1.147-2.671,1.778-4.293,1.778s-3.146-.631-4.293-1.778c-.391-.391-1.023-.391-1.414,0-.391.39-.391,1.023,0,1.414,1.524,1.524,3.551,2.364,5.707,2.364s4.183-.84,5.707-2.364c.391-.391.391-1.024,0-1.414-.391-.391-1.023-.391-1.414,0Z"/>
</svg>