<?xml version="1.0" encoding="UTF-8"?>
<svg id="Outline" xmlns="http://www.w3.org/2000/svg" version="1.1" viewBox="0 0 64 64">
  <!-- Generator: Adobe Illustrator 29.5.1, SVG Export Plug-In . SVG Version: 2.1.0 Build 141)  -->
  <path d="M57,40.5c0-1.634-.786-3.123-2.096-4.053.063-.314.096-.63.096-.947,0-1.089-.362-2.14-1.017-3,.654-.86,1.017-1.911,1.017-3,0-2.757-2.243-5-5-5-.317,0-.634.032-.949.096-.527-.736-1.248-1.319-2.072-1.68.014-.14.021-.278.021-.416,0-2.757-2.243-5-5-5-.679,0-1.361.147-2,.43-1.224-.542-2.607-.555-3.791-.1-.899-1.428-2.479-2.33-4.209-2.33s-3.31.902-4.209,2.33c-1.183-.455-2.567-.441-3.791.1-.639-.283-1.321-.43-2-.43-2.757,0-5,2.243-5,5,0,.138.007.276.021.416-.824.361-1.544.944-2.072,1.68-.315-.063-.632-.096-.949-.096-2.757,0-5,2.243-5,5,0,1.089.362,2.14,1.017,3-.654.86-1.017,1.911-1.017,3,0,.316.032.633.096.947-1.31.93-2.096,2.419-2.096,4.053,0,2.016,1.201,3.799,3,4.578v2.422c0,.552.448,1,1,1h23c.552,0,1-.448,1-1s-.448-1-1-1H12v-2c0-4.645,1.623-9.167,4.571-12.733.352-.426.292-1.056-.134-1.408-.425-.35-1.056-.292-1.408.134-2.88,3.485-4.603,7.799-4.954,12.299-.661-.555-1.074-1.38-1.074-2.291,0-1.149.654-2.18,1.707-2.69.468-.227.684-.775.496-1.26-.136-.354-.203-.697-.203-1.05,0-.854.377-1.673,1.036-2.245.218-.19.344-.465.344-.755s-.125-.565-.344-.755c-.659-.572-1.036-1.391-1.036-2.245,0-2.007,2.04-3.571,4.05-2.797.488.19,1.036-.029,1.261-.499.402-.834,1.175-1.446,2.067-1.636.271-.058.506-.226.649-.463.143-.237.18-.523.104-.79-.09-.312-.131-.572-.131-.814,0-1.654,1.346-3,3-3,.517,0,1.021.14,1.501.417.309.178.689.178.998,0,1.042-.601,2.268-.525,3.175.098.257.177.583.223.879.125.296-.097.531-.328.633-.623.417-1.206,1.548-2.017,2.814-2.017s2.397.811,2.814,2.017c.102.295.336.526.633.623.295.097.621.051.879-.125.907-.623,2.133-.698,3.175-.098.309.178.689.178.998,0,.479-.276.984-.417,1.501-.417,1.654,0,3,1.346,3,3,0,.243-.042.502-.131.814-.076.267-.039.553.104.79.143.238.378.405.649.463.893.19,1.666.802,2.067,1.636.225.469.772.688,1.261.499,2.009-.774,4.05.79,4.05,2.797,0,.854-.377,1.673-1.036,2.245-.218.19-.344.465-.344.755s.125.565.344.755c.659.572,1.036,1.391,1.036,2.245,0,.353-.066.696-.203,1.05-.188.485.028,1.033.496,1.26,1.053.51,1.707,1.541,1.707,2.69,0,.91-.413,1.735-1.073,2.29-.876-11.334-10.372-20.29-21.927-20.29-5.109,0-10.083,1.786-14.007,5.029-.426.352-.485.982-.134,1.408.352.425.981.484,1.408.134,3.566-2.948,8.088-4.571,12.733-4.571,3.387,0,6.577.853,9.375,2.345-.237.516-.375,1.074-.375,1.655,0,2.206,1.794,4,4,4,.862,0,1.688-.285,2.366-.782,2.89,3.469,4.634,7.924,4.634,12.782v2h-14c-.552,0-1,.448-1,1s.448,1,1,1h15c.552,0,1-.448,1-1v-2.422c1.799-.78,3-2.562,3-4.578ZM43,28.5c0-.214.041-.422.107-.621,1.034.693,1.995,1.483,2.881,2.351-.298.17-.635.27-.987.27-1.103,0-2-.897-2-2Z"/>
  <path d="M20,34.5c.551,0,1,.449,1,1s.448,1,1,1,1-.448,1-1c0-1.654-1.346-3-3-3s-3,1.346-3,3,1.346,3,3,3c.552,0,1-.448,1-1s-.448-1-1-1-1-.449-1-1,.449-1,1-1Z"/>
  <path d="M25,41.5c0,1.654,1.346,3,3,3s3-1.346,3-3-1.346-3-3-3-3,1.346-3,3ZM29,41.5c0,.551-.449,1-1,1s-1-.449-1-1,.449-1,1-1,1,.449,1,1Z"/>
  <path d="M35,30.5c0-1.654-1.346-3-3-3s-3,1.346-3,3,1.346,3,3,3,3-1.346,3-3ZM31,30.5c0-.551.449-1,1-1s1,.449,1,1-.449,1-1,1-1-.449-1-1Z"/>
  <path d="M44,40.5c0-1.654-1.346-3-3-3s-3,1.346-3,3,1.346,3,3,3,3-1.346,3-3ZM40,40.5c0-.551.449-1,1-1s1,.449,1,1-.449,1-1,1-1-.449-1-1Z"/>
</svg>