<?xml version="1.0" encoding="UTF-8"?>
<svg id="Outline" xmlns="http://www.w3.org/2000/svg" version="1.1" viewBox="0 0 64 64">
  <!-- Generator: Adobe Illustrator 29.5.1, SVG Export Plug-In . SVG Version: 2.1.0 Build 141)  -->
  <path d="M32,35.002c-3.859,0-7,3.14-7,7s3.141,7,7,7,7-3.14,7-7-3.141-7-7-7ZM32,47.002c-2.757,0-5-2.243-5-5s2.243-5,5-5,5,2.243,5,5-2.243,5-5,5Z"/>
  <path d="M54,39.142v-12.14c.55,0,1-.45,1-1v-4c0-.55-.45-1-1-1h-3v-2h1c.55,0,1-.45,1-1v-3.7l3.83-5.75c.21-.31.23-.73.03-1.06-.19-.33-.56-.52-.94-.49l-23.92,2-23.92-2c-.38-.03-.75.16-.94.49-.2.33-.18.75.03,1.06l3.83,5.75v3.7c0,.55.45,1,1,1h1v2h-3c-.55,0-1,.45-1,1v4c0,.55.45,1,1,1h3v22h-1c-.55,0-1,.45-1,1v6c0,.55.45,1,1,1h8c.55,0,1-.45,1-1v-6c0-.55-.45-1-1-1h-1v-22h2.36l3.19,6.93c-2.18,2.01-3.55,4.88-3.55,8.07,0,6.07,4.93,11,11,11s11-4.93,11-11c0-3.19-1.37-6.06-3.55-8.07l3.19-6.93h2.36v22h-1c-.55,0-1,.45-1,1v6c0,.55.45,1,1,1h8c.55,0,1-.45,1-1v-6c0-.55-.45-1-1-1h-1v-2.56c.59.35,1.27.56,2,.56,2.21,0,4-1.79,4-4,0-1.86-1.28-3.41-3-3.86ZM51,17.002h-13v-2h13v2ZM49,19.002v2h-2v-2h2ZM13,17.002v-2h13v2h-13ZM17,19.002v2h-2v-2h2ZM19,19.002h26v2h-26v-2ZM28,17.002v-2h8v2h-8ZM12.54,13.002l-2.56-3.83,21.94,1.83h.16l21.94-1.83-2.56,3.83H12.54ZM19,55.002h-6v-4h6v4ZM15,49.002v-22h2v22h-2ZM41,42.002c0,4.96-4.04,9-9,9s-9-4.04-9-9,4.04-9,9-9,9,4.04,9,9ZM37.82,32.682c-1.69-1.06-3.68-1.68-5.82-1.68s-4.13.62-5.82,1.68l-2.62-5.68h16.88l-2.62,5.68ZM51,55.002h-6v-4h6v4ZM47,49.002v-22h2v22h-2ZM11,25.002v-2h42v2H11ZM52,27.002v12.14c-.36.09-.69.24-1,.42v-12.56h1ZM53,45.002c-1.1,0-2-.9-2-2s.9-2,2-2,2,.9,2,2-.9,2-2,2Z"/>
</svg>