<?xml version="1.0" encoding="UTF-8"?>
<svg id="Outline" xmlns="http://www.w3.org/2000/svg" version="1.1" viewBox="0 0 64 64">
  <!-- Generator: Adobe Illustrator 29.3.1, SVG Export Plug-In . SVG Version: 2.1.0 Build 151)  -->
  <path d="M51,7H13c-1.6543,0-3,1.3457-3,3v44c0,1.6543,1.3457,3,3,3h38c1.6543,0,3-1.3457,3-3v-16c0-.55273-.44727-1-1-1s-1,.44727-1,1v16c0,.55176-.44824,1-1,1H13c-.55176,0-1-.44824-1-1V10c0-.55176.44824-1,1-1h38c.55176,0,1,.44824,1,1v20c0,.55273.44727,1,1,1s1-.44727,1-1V10c0-1.6543-1.3457-3-3-3Z"/>
  <path d="M22,21c.55273,0,1-.44727,1-1v-8c0-.46387-.31934-.86621-.77051-.97363-.44922-.10449-.917.11035-1.12402.52637l-1.10547,2.21094-1.10547-2.21094c-.20704-.41504-.67676-.62988-1.12402-.52637-.45117.10742-.77051.50977-.77051.97363v8c0,.55273.44727,1,1,1s1-.44727,1-1v-3.76367l.10547.21094c.33984.67773,1.44922.67773,1.78906,0l.10547-.21094v3.76367c0,.55273.44727,1,1,1Z"/>
  <path d="M30,13c.55273,0,1-.44727,1-1s-.44727-1-1-1h-4c-.55273,0-1,.44727-1,1v8c0,.55273.44727,1,1,1h4c.55273,0,1-.44727,1-1s-.44727-1-1-1h-3v-2h3c.55273,0,1-.44727,1-1s-.44727-1-1-1h-3v-2h3Z"/>
  <path d="M37.99973,20.98476c.50302-.01097,1.00027-.37849,1.00027-.98476v-8c0-.55273-.44727-1-1-1s-1,.44727-1,1v3.76367l-2.10547-4.21094c-.20704-.41504-.67773-.62988-1.12402-.52637-.45117.10742-.77051.50977-.77051.97363v8c0,.55273.44727,1,1,1s1-.44727,1-1v-3.76367l2.10544,4.21088c.18968.37935.54339.54521.89429.53755Z"/>
  <path d="M42,11c-.55273,0-1,.44727-1,1v6c0,1.6543,1.3457,3,3,3s3-1.3457,3-3v-6c0-.55273-.44727-1-1-1s-1,.44727-1,1v6c0,.55176-.44824,1-1,1s-1-.44824-1-1v-6c0-.55273-.44727-1-1-1Z"/>
  <path d="M24,24c0-.55273-.44727-1-1-1h-8c-.55273,0-1,.44727-1,1v8c0,.55273.44727,1,1,1h8c.55273,0,1-.44727,1-1v-8ZM22,31h-6v-6h6v6Z"/>
  <path d="M37,24c0-.55273-.44727-1-1-1h-8c-.55273,0-1,.44727-1,1v8c0,.55273.44727,1,1,1h8c.55273,0,1-.44727,1-1v-8ZM35,31h-6v-6h6v6Z"/>
  <path d="M50,24c0-.55273-.44727-1-1-1h-8c-.55273,0-1,.44727-1,1v8c0,.55273.44727,1,1,1h8c.55273,0,1-.44727,1-1v-8ZM48,31h-6v-6h6v6Z"/>
  <path d="M24,36c0-.55273-.44727-1-1-1h-8c-.55273,0-1,.44727-1,1v8c0,.55273.44727,1,1,1h8c.55273,0,1-.44727,1-1v-8ZM22,43h-6v-6h6v6Z"/>
  <path d="M37,36c0-.55273-.44727-1-1-1h-8c-.55273,0-1,.44727-1,1v8c0,.55273.44727,1,1,1h8c.55273,0,1-.44727,1-1v-8ZM35,43h-6v-6h6v6Z"/>
  <path d="M50,36c0-.55273-.44727-1-1-1h-8c-.55273,0-1,.44727-1,1v8c0,.55273.44727,1,1,1h8c.55273,0,1-.44727,1-1v-8ZM48,43h-6v-6h6v6Z"/>
  <path d="M24,48c0-.55273-.44727-1-1-1h-8c-.55273,0-1,.44727-1,1s.44727,1,1,1h8c.55273,0,1-.44727,1-1Z"/>
  <path d="M15,51c-.55273,0-1,.44727-1,1s.44727,1,1,1h4c.55273,0,1-.44727,1-1s-.44727-1-1-1h-4Z"/>
  <path d="M37,48c0-.55273-.44727-1-1-1h-8c-.55273,0-1,.44727-1,1s.44727,1,1,1h8c.55273,0,1-.44727,1-1Z"/>
  <path d="M28,51c-.55273,0-1,.44727-1,1s.44727,1,1,1h4c.55273,0,1-.44727,1-1s-.44727-1-1-1h-4Z"/>
  <path d="M50,48c0-.55273-.44727-1-1-1h-8c-.55273,0-1,.44727-1,1s.44727,1,1,1h8c.55273,0,1-.44727,1-1Z"/>
  <path d="M41,51c-.55273,0-1,.44727-1,1s.44727,1,1,1h4c.55273,0,1-.44727,1-1s-.44727-1-1-1h-4Z"/>
  <circle cx="53" cy="34" r="1"/>
</svg>