<?xml version="1.0" encoding="UTF-8"?>
<svg id="Outline" xmlns="http://www.w3.org/2000/svg" version="1.1" viewBox="0 0 64 64">
  <!-- Generator: Adobe Illustrator 29.5.1, SVG Export Plug-In . SVG Version: 2.1.0 Build 141)  -->
  <path d="M56.71002,29.28998s-8-8-8.00015-8.00012c-.20101-.16735-.44418-.28986-.70988-.28986h-1.04999c-.41998-4.19-3.44-7.62-7.41003-8.66003-1.10999-3.16998-4.12-5.33997-7.53998-5.33997-3.87,0-7.13,2.73999-7.84003,6.46997-3.26996,1.09003-5.70996,4-6.09998,7.53003h-2.06c-.13,0-.26001.02997-.39001.07996-.04999.02002-.07996.06006-.13.09003-.06.03998-.13.07001-.19.12l-8,8c-.38995.39001-.38995,1.03001-.00002,1.41997.38106.38108,1.0227.3775,1.42006.00002l6.47998-6.48999,2.81,31.87c.04999.51001.47998.91003,1,.91003h26c.52002,0,.95001-.40002,1-.91003l2.81-31.87s6.47416,6.48417,6.47999,6.49c.38223.3828,1.03729.38273,1.42004,0,.38995-.38995.38995-1.02997,0-1.41998ZM44.92999,21h-2.02002c-.47998-2.83002-2.94-5-5.90997-5s-5.42999,2.16998-5.90997,5h-2.02002c.48999-3.94,3.85999-7,7.92999-7s7.44,3.06,7.92999,7ZM40.85999,21h-7.71997c.45001-1.72003,2-3,3.85999-3s3.40997,1.27997,3.85999,3ZM32,9c2.17999,0,4.13,1.19,5.17999,3.01001-.06,0-.12-.01001-.17999-.01001-2.22998,0-4.28003.73999-5.95001,1.97998-1.26001-.63-2.64001-.97998-4.04999-.97998-.21997,0-.42999.01996-.65002.02997.81-2.35999,3.04004-4.02997,5.65002-4.02997ZM27,15c.84003,0,1.66998.16998,2.45001.45996-.45001.52002-.85999,1.09003-1.20001,1.71002-.40997-.10999-.82001-.16998-1.25-.16998-2.40997,0-4.42999,1.71997-4.90002,4h-2.01996c.48999-3.39001,3.39996-6,6.91998-6ZM27.44,19.04999c-.19.63-.32001,1.27997-.39001,1.95001h-2.87c.41998-1.16003,1.52002-2,2.82001-2,.15002,0,.29999.02997.44.04999ZM45.83002,23l-2.54004,4.23999-5.52997,2.76001h-11.52002l-5.52997-2.76001-2.54004-4.23999h27.66003ZM38.77002,31.72998c-.77002,3.02002-3.51001,5.27002-6.77002,5.27002s-6-2.25-6.77002-5.27002l.32001.16003c.14001.06995.29004.10999.45001.10999h12c.15997,0,.31-.04004.45001-.10999l.32001-.16003ZM44.08002,55h-24.16003l-.35999-4h24.88l-.35999,4ZM44.60999,49h-25.21997l-2.08002-23.54004,1.83002,3.05005c.09998.16998.23999.29999.40997.38l3.48004,1.73999c.32996,4.66998,4.21997,8.37,8.96997,8.37s8.64001-3.70001,8.96997-8.37l3.48004-1.73999c.16998-.08002.31-.21002.40997-.38l1.83002-3.05005-2.08002,23.54004Z"/>
  <path d="M42,41h-20c-.55273,0-1,.44775-1,1v4c0,.55225.44727,1,1,1h20c.55273,0,1-.44775,1-1v-4c0-.55225-.44727-1-1-1ZM41,45h-18v-2h18v2Z"/>
</svg>