<?xml version="1.0" encoding="UTF-8"?>
<svg id="Outline" xmlns="http://www.w3.org/2000/svg" version="1.1" viewBox="0 0 64 64">
  <!-- Generator: Adobe Illustrator 29.3.1, SVG Export Plug-In . SVG Version: 2.1.0 Build 151)  -->
  <path d="M51,31c.54999,0,1-.45001,1-1v-6c0-1.65002-1.34998-3-3-3,0,0,0-6.99527,0-7.00001-.00001-.25718-.12093-.51967-.28998-.71001l-6-6c-.19-.17999-.44-.28998-.71002-.28998h-20c-.27002,0-.52002.10999-.71002.28998,0,0-6,6-6,6.01001-.17183.17197-.28998.4555-.28998.70001v7c-1.65002,0-3,1.34998-3,3v30c0,1.64996,1.34998,3,3,3h34c1.65002,0,3-1.35004,3-3v-16c0-.54999-.45001-1-1-1s-1,.45001-1,1v16c0,.54999-.45001,1-1,1H15c-.54999,0-1-.45001-1-1v-30c0-.54999.45001-1,1-1h34c.54999,0,1,.45001,1,1v6c0,.54999.45001,1,1,1ZM22.40997,9h19.18005l4,4h-27.18005l4-4ZM21,21h-4v-6h4v6ZM41,21h-18v-6h18v6ZM47,21h-4v-6h4v6Z"/>
  <path d="M40,53c2.20557,0,4-1.79395,4-4v-2c.55225,0,1-.44727,1-1v-4c0-.55273-.44775-1-1-1v-6.67578c0-4.21387-2.68604-7.94043-6.68359-9.27246-.30518-.10352-.64062-.05176-.90088.13672-.26123.18848-.41553.49023-.41553.81152v15c-.55225,0-1,.44727-1,1v4c0,.55273.44775,1,1,1v2c0,2.20605,1.79443,4,4,4ZM37,43h6v2h-6v-2ZM38,27.52637c2.43896,1.35156,4,3.93359,4,6.79785v6.67578h-4v-13.47363ZM42,47v2c0,1.10254-.89697,2-2,2s-2-.89746-2-2v-2h4Z"/>
  <path d="M33,35v-9c0-.55273-.44775-1-1-1s-1,.44727-1,1v8h-4v-8c0-.55273-.44775-1-1-1s-1,.44727-1,1v8h-4v-8c0-.55273-.44775-1-1-1s-1,.44727-1,1v9c0,2.38965,1.68506,4.39258,3.9292,4.88477l-.69629,9.04785c-.08057,1.04492.28223,2.08691.99512,2.85645s1.72314,1.21094,2.77197,1.21094,2.05908-.44141,2.77197-1.21094,1.07568-1.81152.99512-2.85742l-.69629-9.04688c2.24414-.49219,3.9292-2.49512,3.9292-4.88477ZM28,38c-.27832,0-.54443.11621-.73389.32031-.18896.20508-.28467.47852-.26318.75684l.77002,10.00781c.03857.5-.12793.97754-.46826,1.34473-.68066.73633-1.92871.73633-2.60938,0-.34033-.36719-.50684-.84473-.46826-1.34375l.77002-10.00879c.02148-.27832-.07422-.55176-.26318-.75684-.18945-.2041-.45557-.32031-.73389-.32031-1.30371,0-2.41602-.83594-2.82861-2h9.65723c-.4126,1.16406-1.5249,2-2.82861,2Z"/>
  <circle cx="51" cy="34" r="1"/>
</svg>