<?xml version="1.0" encoding="UTF-8"?>
<svg id="Outline" xmlns="http://www.w3.org/2000/svg" version="1.1" viewBox="0 0 64 64">
  <!-- Generator: Adobe Illustrator 29.5.1, SVG Export Plug-In . SVG Version: 2.1.0 Build 141)  -->
  <path d="M49.11187,43.90792c-.55048-.55522-1.30495-.90792-2.11187-.90792h-4.82001l3.69-22.14001c1.22998-.38,2.13-1.51001,2.13-2.85999,0-1.65002-1.34998-3-3-3v-7c0-.54999-.45001-1-1-1h-6c-.38,0-.72998.20996-.90002.54999l-.88,1.78998c-.50995,1.01001-1.56995,1.66003-2.68994,1.66003h-1.53003c-.54999,0-1,.45001-1,1s.45001,1,1,1h1.53003c1.87,0,3.62994-1.08002,4.47998-2.76001l.60999-1.23999h4.38v6h-21.83002c.41003-1.16003,1.53003-2,2.83002-2h4c.54999,0,1-.45001,1-1s-.45001-1-1-1h-4c-2.40997,0-4.42999,1.71997-4.90002,4h-.09998c-1.65002,0-3,1.34998-3,3,0,1.34998.90002,2.47998,2.13,2.85999l3.69,22.14001h-4.82001c-1.65002,0-3,1.34998-3,3,0,.81.32001,1.57001.87,2.10999.56.57001,1.32001.89001,2.13.89001v7c0,.54999.45001,1,1,1h7c.42999,0,.81-.28003.95001-.67999.45996-1.39001,1.75-2.32001,3.20996-2.32001h5.68005c1.45996,0,2.75.92999,3.20996,2.32001.14001.39996.52002.67999.95001.67999h7c.54999,0,1-.45001,1-1v-7c1.65002,0,2.99999-1.35002,3-2.99998,0-.79839-.34464-1.54394-.88813-2.0921ZM18,18c0-.54999.45001-1,1-1h26c.54999,0,1,.45001,1,1s-.45001,1-1,1h-26c-.54999,0-1-.45001-1-1ZM45,55h-5.33002c-.89996-1.82001-2.76001-3-4.82996-3h-5.68005c-2.06995,0-3.92999,1.17999-4.82996,3h-5.33002v-6h26v6ZM47,47h-30c-.27002,0-.51001-.10004-.71002-.31-.19-.17999-.28998-.42004-.28998-.69,0-.54999.45001-1,1-1h13c.54999,0,1-.45001,1-1s-.45001-1-1-1h-6.15002l-3.66998-22h23.64001l-3.66998,22h-6.15002c-.54999,0-1,.45001-1,1s.45001,1,1,1h12.99993c.5403,0,1.00007.4624,1.00007,1,0,.54999-.45001,1-1,1Z"/>
  <path d="M40,33c0-4.41113-3.58887-8-8-8s-8,3.58887-8,8,3.58887,8,8,8,8-3.58887,8-8ZM32,39c-3.30859,0-6-2.69141-6-6s2.69141-6,6-6,6,2.69141,6,6-2.69141,6-6,6Z"/>
</svg>