<?xml version="1.0" encoding="UTF-8"?>
<svg id="Outline" xmlns="http://www.w3.org/2000/svg" version="1.1" viewBox="0 0 64 64">
  <!-- Generator: Adobe Illustrator 29.5.1, SVG Export Plug-In . SVG Version: 2.1.0 Build 141)  -->
  <path d="M55.921,22.475l-1.68.21c-.13.01-.25.05-.37.12l-3.76,2.09-3.08.07c-1.29.03-2.57.14-3.85.29-.13-.01-.26,0-.39.04-2.04.26-4.05.63-6.02,1.16-.1-.37-.1-.75.01-1.11.22-.76.84-1.32,1.6-1.47l5.24-1.04c1.26-.23,2.17-1.35,2.17-2.64,0-.67-.25-1.32-.71-1.82-.04-.04-.07-.07-.11-.11-.12-1.54-1.4-2.77-2.97-2.77h-9.62c.01,0,.02-.01.03-.01l7.27-2.45c2.69-.92,5.88-.63,8.41.82,2.09,1.19,4.55,1.67,6.93,1.37.54-.07.93-.57.86-1.12-.07-.54-.57-.93-1.12-.86-1.95.25-3.96-.15-5.67-1.13-3.03-1.73-6.83-2.08-10.05-.98l-7.27,2.45c-1.02.35-1.86,1.02-2.45,1.91h-13.32c-1.66,0-3,1.35-3,3,0,.83.34,1.58.88,2.13l-5.79,15.92c-1.38,3.82-1.5,8.06-.34,11.95l1.29,4.29c.12.42.51.71.96.71h18.04c.55,0,1-.45,1-1s-.45-1-1-1h-6.7l.9-3c1.17-3.89,1.04-8.13-.34-11.95l-5.48-15.05h23.68l-2.11.42c-1.49.29-2.69,1.38-3.13,2.86-.24.8-.22,1.65.07,2.52.233.699.959,1.2,1.69,1.2.17,0,.34-.02.52-.07,1.74-.47,3.5-.82,5.29-1.07l3.59,9.87c1.25,3.46,1.36,7.16.3,10.7l-1.06,3.57h-9.22c-.55,0-1,.45-1,1s.45,1,1,1h9.96c.44,0,.83-.29.96-.71l1.28-4.28c1.18-3.96,1.06-8.1-.34-11.96l-3.43-9.43c.87-.07,1.74-.13,2.61-.15l3.32-.08c.17,0,.32-.05.47-.13l3.81-2.11,1.48-.19c.55-.07.94-.57.87-1.11-.07-.55-.57-.93-1.11-.87ZM20.021,37.225c1.24,3.42,1.35,7.22.3,10.7l-1.07,3.57h-8.51l-1.07-3.57c-1.05-3.48-.94-7.28.3-10.7l5.03-13.8,5.02,13.8ZM16.001,19.495c-.56,0-1-.45-1-1s.44-1,1-1h26c.55,0,1,.45,1,1s-.45,1-1,1h-26Z"/>
  <circle cx="32.041" cy="52.495" r="1"/>
</svg>