<?xml version="1.0" encoding="UTF-8"?>
<svg id="Outline" xmlns="http://www.w3.org/2000/svg" version="1.1" viewBox="0 0 64 64">
  <!-- Generator: Adobe Illustrator 29.5.1, SVG Export Plug-In . SVG Version: 2.1.0 Build 141)  -->
  <path d="M56,41c.54999,0,1-.45001,1-1v-4c0-.54999-.45001-1-1-1h-1.38l-1.72998-3.45001c-.17004-.34003-.51001-.54999-.89001-.54999h-8c-.38,0-.71997.20996-.89001.54999l-.10999.21002v-7.76001c0-1.65002-1.34998-3-3-3h-4v-9c0-.02001-.01-.04002-.01001-.06009-.00015-.21652-.12532-.49528-.27997-.64993l-4-4c-.19-.17999-.44-.28998-.71002-.28998h-12c-.27002,0-.52002.10999-.71002.28998,0,0-3.99971,3.99971-4,4.01001-.00084.03037-.1264.16268-.14453.19494-.07074.12585-.13544.29737-.13544.44508,0,.01996-.01001.03998-.01001.06v9h-4c-1.65002,0-3,1.34998-3,3v30c0,1.64996,1.34998,3,3,3,0,0,22,0,22.00013,0,.34467-.00006.74665-.22814.88989-.54999l1.72998-3.45001h6.76001l1.72998,3.45001c.17004.33997.51001.54999.89001.54999h8c.46002,0,.85999-.31.96997-.76001l1.81006-7.23999h1.21997c.54999,0,1-.45001,1-1v-4c0-.54999-.45001-1-1-1h-1.41998l.28998-2h1.13ZM44.62,33h6.76001l1,2h-8.76001l1-2ZM19.40997,9h11.18005l2,2h-15.18005l2-2ZM34,13v8h-2v-8h2ZM30,13v8h-10v-8h10ZM16,13h2v8h-2v-8ZM10,55c-.54999,0-1-.45001-1-1v-30c0-.54999.45001-1,1-1h30c.54999,0,1,.45001,1,1v11h-1c-.54999,0-1,.45001-1,1v4c0,.54999.45001,1,1,1h1.13l.28998,2h-6.83997l.28998-2h1.13c.54999,0,1-.45001,1-1v-4c0-.54999-.45001-1-1-1h-1.38l-1.72998-3.45001c-.17004-.34003-.51001-.54999-.89001-.54999h-8c-.38,0-.71997.20996-.89001.54999l-1.72998,3.45001h-1.38c-.54999,0-1,.45001-1,1v4c0,.54999.45001,1,1,1h1.13l.28998,2h-1.41998c-.54999,0-1,.45001-1,1v4c0,.54999.45001,1,1,1h1.21997l1.5,6h-12.71997ZM21,39v-2h14v2h-14ZM32.84998,41l-.28998,2h-9.12l-.28998-2h9.69995ZM23.62,35l1-2h6.76001l1,2h-8.76001ZM51.21997,55h-6.59998l-1.72998-3.45001c-.17004-.34003-.51001-.54999-.89001-.54999h-8c-.38,0-.71997.20996-.89001.54999l-1.72998,3.45001h-6.59998l-1.5-6h29.43994l-1.5,6ZM55,45v2H21v-2h34ZM43.15002,41h9.69995l-.28998,2h-9.12l-.28998-2ZM41,39v-2h14v2h-14Z"/>
</svg>