<?xml version="1.0" encoding="UTF-8"?>
<svg id="Outline" xmlns="http://www.w3.org/2000/svg" version="1.1" viewBox="0 0 64 64">
  <!-- Generator: Adobe Illustrator 29.3.1, SVG Export Plug-In . SVG Version: 2.1.0 Build 151)  -->
  <path d="M30,31c1.6543,0,3-1.3457,3-3s-1.3457-3-3-3h-10c-1.6543,0-3,1.3457-3,3s1.3457,3,3,3h10ZM19,28c0-.55127.44873-1,1-1h10c.55127,0,1,.44873,1,1s-.44873,1-1,1h-10c-.55127,0-1-.44873-1-1Z"/>
  <path d="M54,43h-11v-19c0-1.65002-1.34998-3-3-3,0,0,0-7,0-7.00005-.00006-.25753-.1081-.52808-.28998-.70997l-6-6c-.19-.17999-.44-.28998-.71002-.28998h-16c-.27002,0-.52002.10999-.71002.28998l-6,6c-.16325.18382-.28998.46043-.28998.71002v7c-1.65002,0-3,1.34998-3,3v7c0,.54999.45001,1,1,1s1-.45001,1-1v-7c0-.54999.45001-1,1-1h30c.54999,0,1,.45001,1,1v19h-2v-9c0-.54999-.45001-1-1-1H12c-.54999,0-1,.45001-1,1v18c0,.54999.45001,1,1,1h12v2h-14c-.54999,0-1-.45001-1-1v-15c0-.54999-.45001-1-1-1s-1,.45001-1,1v15c0,1.64996,1.34998,3,3,3h21.99997c.43161,0,.69967-.29448.93002-.64001,0-.02002.01001-.03003.02002-.03998l.76996-2.32001h10.56006l.76996,2.32001c.14001.39996.52002.67999.95001.67999h7c.54999,0,1-.45001,1-1v-7c1.65002,0,3-1.35004,3-3s-1.34998-3-3-3ZM16,21h-4v-6h4v6ZM32,21h-14v-6h14v6ZM13.40997,13l4-4h15.18005l4,4H13.40997ZM38,21h-4v-6h4v6ZM24,51h-11v-16h24v8h-13c-1.65002,0-3,1.34998-3,3s1.34998,3,3,3v2ZM52,55h-5.28003l-.76996-2.32001c-.14001-.40002-.52002-.67999-.95001-.67999h-12c-.42999,0-.81.27997-.95001.67999l-.76996,2.32001h-5.28003v-6h26v6ZM54,47h-30c-.54999,0-1-.45001-1-1s.45001-1,1-1h30c.54999,0,1,.45001,1,1s-.45001,1-1,1Z"/>
  <circle cx="8" cy="35" r="1"/>
</svg>