<?xml version="1.0" encoding="UTF-8"?>
<svg id="Outline" xmlns="http://www.w3.org/2000/svg" version="1.1" viewBox="0 0 64 64">
  <!-- Generator: Adobe Illustrator 29.5.1, SVG Export Plug-In . SVG Version: 2.1.0 Build 141)  -->
  <path d="M56.71002,18.28998c-.39001-.39001-1.03003-.39001-1.42004,0l-6.69995,6.71002h-6.59003v-5.38c1.26001-1.31,2-3.37,2-5.62,0-3.92999-2.20001-7-5-7s-5,3.07001-5,7c0,2.25.73999,4.31,2,5.62v5.38h-2c-.54999,0-1,.45001-1,1s.45001,1,1,1h12.20001l-3.75,6h-20.90002l-3.75-6h12.20001c.54999,0,1-.45001,1-1s-.45001-1-1-1h-2v-4.59003l1.71002-1.70001c.17999-.19.28998-.44.28998-.70996v-10c0-.54999-.45001-1-1-1s-1,.45001-1,1v5h-2v-5c0-.54999-.45001-1-1-1s-1,.45001-1,1v5h-2v-5c0-.54999-.45001-1-1-1s-1,.45001-1,1v10c0,.26996.10999.51996.28998.70996l1.71002,1.70001v4.59003h-6.59003l-6.69995-6.71002c-.39001-.39001-1.03003-.39001-1.42004,0-.38995.39001-.38995,1.03003,0,1.41998l6.79004,6.78003,5.94,29.71002c.08997.45996.5.79999.97998.79999h22c.47998,0,.89001-.34003.97998-.79999l1.80005-9c.10999-.55005-.24005-1.07001-.78003-1.18005-.54999-.10999-1.07001.24005-1.17999.78003l-1.64001,8.20001h-20.35999l-5.23999-26.17999,3.57001,5.70996c.17999.29004.50995.47003.84998.47003h22c.34003,0,.66998-.17999.84998-.47003l3.57001-5.70996-2.79999,13.97998c-.10997.54989.23987,1.06982.77974,1.17993.51255.10454,1.07613-.23621,1.18028-.77991l3.33997-16.71002,6.79004-6.78003c.38995-.38995.38995-1.02997,0-1.41998ZM40,19.19v5.81h-2v-5.81c0-.29004-.13-.56-.34003-.75-1.02997-.89001-1.65997-2.59003-1.65997-4.44,0-2.71002,1.37-5,3-5s3,2.28998,3,5c0,1.84998-.63,3.54999-1.65997,4.44-.21002.19-.34003.45996-.34003.75ZM22,15h6v2.58997l-1.71002,1.70001c-.17999.19-.28998.44-.28998.71002v5h-2v-5c0-.27002-.10999-.52002-.28998-.71002l-1.71002-1.70001v-2.58997Z"/>
  <path d="M24,37c-.55225,0-1,.44775-1,1v14c0,.55225.44775,1,1,1h16c.55225,0,1-.44775,1-1v-14c0-.55225-.44775-1-1-1h-16ZM39,39v3.40002c-1.73639-.92267-4.3739-1.40002-7-1.40002s-5.26361.47736-7,1.40002v-3.40002h14ZM39,45c0,.58057-2.45312,2-7,2s-7-1.41943-7-2,2.45312-2,7-2,7,1.41943,7,2ZM25,51v-3.40002c1.73639.92267,4.3739,1.40002,7,1.40002s5.26361-.47736,7-1.40002v3.40002h-14Z"/>
</svg>