<?xml version="1.0" encoding="UTF-8"?>
<svg id="Outline" xmlns="http://www.w3.org/2000/svg" version="1.1" viewBox="0 0 64 64">
  <!-- Generator: Adobe Illustrator 29.3.1, SVG Export Plug-In . SVG Version: 2.1.0 Build 151)  -->
  <path d="M14,47c-1.6543,0-3,1.3457-3,3s1.3457,3,3,3,3-1.3457,3-3-1.3457-3-3-3ZM14,51c-.55127,0-1-.44824-1-1s.44873-1,1-1,1,.44824,1,1-.44873,1-1,1Z"/>
  <path d="M32,49h20c.55225,0,1-.44727,1-1v-12c0-.55273-.44775-1-1-1h-20c-.55225,0-1,.44727-1,1v12c0,.55273.44775,1,1,1ZM33,37h18v10h-18v-10Z"/>
  <path d="M56,7H10c-.54999,0-1,.45001-1,1v37.10999c-1.23999,1.26001-2,2.98999-2,4.89001,0,3.85999,3.14001,7,7,7,2.78998,0,5.19-1.64001,6.31-4h28.69v3c0,.54999.45001,1,1,1h6c.54999,0,1-.45001,1-1V8c0-.54999-.45001-1-1-1ZM14,55c-2.76001,0-5-2.23999-5-5s2.23999-5,5-5,5,2.23999,5,5-2.23999,5-5,5ZM55,55h-4v-2h4v2ZM55,51H20.91998c.04999-.33002.08002-.66003.08002-1,0-3.85999-3.14001-7-7-7-1.07001,0-2.09003.25-3,.69v-10.69h6v3c0,.54999.45001,1,1,1h10c.54999,0,1-.45001,1-1v-3h3c.54999,0,1-.45001,1-1s-.45001-1-1-1H15V13.53998c1.34003.58002,2.71002,1.09003,4.09003,1.53998l1.08996,5.98003c.14341.78681,1.16625,1.10091,1.71002.50001l4.44-4.79004c1.02997.16003,2.07001.27002,3.12.36005l2.65997,5.32001c.16003.33997.51001.54999.89001.54999s.72998-.21002.89001-.54999l2.66998-5.32001c1.03998-.09003,2.08002-.20001,3.10999-.36005,0,0,4.44,4.79004,4.44001,4.79005.24406.26969.66033.39667,1.01.27995.35999-.10999.64001-.40997.70001-.77997l1.08997-5.98004c1.38-.44995,2.75-.95996,4.09003-1.53998v17.46002h-11c-.54999,0-1,.45001-1,1s.45001,1,1,1h15v18ZM19,35v-2h8v2h-8ZM43.51001,13.97998c-2.51001.62-5.07001,1.03003-7.66998,1.20001-.94.07001-1.89001.09998-2.84003.09998s-1.90002-.02997-2.84003-.09998h-.00995c-2.59003-.16998-5.15002-.58002-7.66003-1.20001l-2.25-.65997c-.07001-.02002-.14001-.03003-.20996-.03003-.29004-.08997-.57001-.19-.85004-.28998h27.64001c-.28003.09998-.56.20001-.85004.28998-.06995,0-.13995.01001-.20996.03003l-2.25.65997ZM44.76001,15.71997l-.54999,3.01001-2.10004-2.26001,1.91003-.56c.23999-.06.48999-.13.73999-.19ZM34.25,17.26001l-1.25,2.5-1.25-2.5c.23999.00995.47998,0,.71997,0,.18005,0,.35004.01996.53003.01996s.34998-.01996.53003-.01996c.23999,0,.47998.00995.71997,0ZM23.89001,16.46997l-2.10004,2.26001-.54999-3.01001c.25.07001.5.13.75.19l1.90002.56ZM55,31h-2V12c0-.54999-.45001-1-1-1H14c-.54999,0-1,.45001-1,1v19h-2V9h44v22Z"/>
  <circle cx="36" cy="32" r="1"/>
</svg>