<?xml version="1.0" encoding="UTF-8"?>
<svg id="Outline" xmlns="http://www.w3.org/2000/svg" version="1.1" viewBox="0 0 64 64">
  <!-- Generator: Adobe Illustrator 29.5.1, SVG Export Plug-In . SVG Version: 2.1.0 Build 141)  -->
  <path d="M56,31c.54999,0,1-.45001,1-1v-6c0-.23004-.08002-.45001-.21997-.62l-7.03003-8.80005c1.32001-.64996,2.25-2,2.25-3.57996,0-2.21002-1.78998-4-4-4H16c-2.21002,0-4,1.78998-4,4,0,1.57996.92999,2.92999,2.25,3.57996l-7.03003,8.80005c-.02997.02997-.03998.07001-.06.10999-.03998.06-.06995.12-.08997.17999-.03003.07001-.03998.14001-.03998.20001-.01001.04999-.03003.08997-.03003.13v32c0,.54999.45001,1,1,1h13c.54999,0,1-.45001,1-1s-.45001-1-1-1h-12v-30h30v30h-14c-.54999,0-1,.45001-1,1s.45001,1,1,1h31c.13,0,.25999-.03003.37998-.08001.2486-.10355.44009-.29015.54-.53999.04999-.12.08002-.25.08002-.38v-22c0-.54999-.45001-1-1-1s-1,.45001-1,1v19.58997l-6-6v-30.73999l6,7.5v5.65002c0,.54999.45001,1,1,1ZM10.08002,23l6.39996-8h29.44l-6.39996,8H10.08002ZM41,24.34998l6-7.5v30.73999l-6,6v-29.23999ZM53.59003,55h-11.18005l5.59003-5.59003,5.59003,5.59003ZM48,13H16c-1.09998,0-2-.90002-2-2,0-1.10004.90002-2,2-2h32c1.09998,0,2,.89996,2,2,0,1.09998-.90002,2-2,2Z"/>
  <path d="M16.5,51h15c2.61914,0,4.75-2.13086,4.75-4.75v-2.26166c.38428-.45947.625-1.04346.625-1.68854,0-.58197-.18903-1.12714-.5163-1.57031.32697-.44659.5163-.98212.5163-1.55273,0-.64453-.24097-1.22809-.62555-1.68738-.00586-4.68207-3.81604-8.48938-8.49945-8.48938h-7.5c-4.68341,0-8.49359,3.80731-8.49945,8.48938-.38458.45929-.62555,1.04285-.62555,1.68738,0,.57483.19128,1.11456.52283,1.56299-.33411.4549-.52283.99335-.52283,1.56006,0,.63373.22589,1.22815.625,1.70001v2.25018c0,2.61914,2.13086,4.75,4.75,4.75ZM34.62744,39.68457c-.09277.07178-.28564.18359-.55127.11768l-.09961-.02539c-.37793-.09424-.7793-.104-1.16016-.02734l-2.43994.48828c-.08447.0166-.16992.0166-.25244,0l-2.48096-.49609c-.34375-.06982-.69189-.06982-1.03662,0l-2.47998.49609c-.08447.0166-.16992.0166-.25244,0l-2.48096-.49609c-.34375-.06982-.69189-.06982-1.03662,0l-2.47998.49609c-.08447.0166-.16992.0166-.25244,0l-2.43994-.48828c-.37182-.07441-.79563-.06336-1.16406.02832l-.09424.02393c-.26465.06543-.46045-.04541-.55322-.11719-.09229-.07227-.24756-.23438-.24756-.50781,0-.35498.28906-.64404.64404-.64404h20.46191c.35498,0,.64404.28906.64404.64404,0,.27344-.15527.43555-.24756.50781ZM13.92334,42.92432c-.26025.06445-.45752-.04395-.54932-.11572-.09277-.07275-.24902-.23486-.24902-.50879,0-.16699.07129-.33545.18945-.45605.02667-.02667.06732-.03821.09937-.05994.32886.04443.66589.0412,1.00024-.0426l.09473-.02393c.0918-.02246.18896-.02539.28223-.00684l2.44092.48828c.34277.06885.69092.06885,1.03662,0l2.47998-.49609c.08447-.01611.16992-.01709.25244,0l2.48096.49609c.17188.03467.34473.05176.51807.05176.17285,0,.34619-.01709.51855-.05176l2.47998-.49609c.08447-.01611.16992-.01709.25244,0l2.48096.49609c.34277.06885.69092.06885,1.03662,0l2.44092-.48828c.09131-.01953.18848-.01758.27832.00586l.09814.0249c.00146.00049.00244.00049.00391.00098.34113.08557.68658.08856,1.02319.03937.1618.11804.26196.30853.26196.51825,0,.39795-.33105.64404-.6377.64404-.05859,0-.10645-.00488-.22314-.0332l-.02197-.00098c-.38428-.104-.79492-.11523-1.17578-.03369l-2.44336.48828c-.0791.0166-.1665.01562-.25244-.00098l-2.46826-.49268c-.34473-.06982-.70947-.07129-1.04834-.00098l-2.48096.49463c-.0791.0166-.1665.01562-.25244-.00098l-2.46826-.49268c-.34473-.06982-.70947-.07129-1.04834-.00098l-2.48096.49463c-.0791.0166-.16602.01562-.25195-.00098l-2.42627-.48535c-.39453-.08301-.8042-.07227-1.10938.01416l-.16211.03223ZM31.5,49h-15c-1.5166,0-2.75-1.2334-2.75-2.75v-1.30432c.2038.00085.40619-.01929.60205-.06921l.17725-.03613c.07812-.02148.1665-.02393.26221-.00342l2.43115.48633c.3457.07227.71045.07178,1.04834.00098l2.48096-.49463c.07861-.0166.1665-.0166.25244.00098l2.46826.49268c.17334.03564.35156.05322.52881.05322.17578,0,.35107-.01709.51953-.05225l2.48096-.49463c.0791-.0166.1665-.0166.25244.00098l2.46826.49268c.3457.07227.71045.07178,1.04834.00098l2.44922-.48926c.08301-.01758.17236-.01562.32812.02295l.01953.00049c.21094.05762.42969.08545.66943.08545.00433,0,.00836-.00128.0127-.00128v1.30743c0,1.5166-1.2334,2.75-2.75,2.75ZM20.25,31h7.5c3.24414,0,5.94092,2.38867,6.42334,5.5H13.82666c.48242-3.11133,3.1792-5.5,6.42334-5.5Z"/>
</svg>