<?xml version="1.0" encoding="UTF-8"?>
<svg id="Outline" xmlns="http://www.w3.org/2000/svg" version="1.1" viewBox="0 0 64 64">
  <!-- Generator: Adobe Illustrator 29.5.1, SVG Export Plug-In . SVG Version: 2.1.0 Build 141)  -->
  <path d="M56,43h-9v-15.6c0-1.13-.39-2.24-1.1-3.12l-6.1-7.63c1.87-.73,3.2-2.53,3.2-4.65,0-2.76-2.24-5-5-5h-22c-2.76,0-5,2.24-5,5,0,2.12,1.33,3.92,3.2,4.65l-6.1,7.63c-.71.88-1.1,1.99-1.1,3.12v28.6c0,.55.45,1,1,1h44c.46,0,.86-.31.97-.76l1.81-7.24h1.22c.55,0,1-.45,1-1v-4c0-.55-.45-1-1-1ZM19.97,9h18.03c1.65,0,3,1.35,3,3s-1.35,3-3,3h-18.03c.64-.84,1.03-1.87,1.03-3s-.39-2.16-1.03-3ZM13,12c0-1.65,1.35-3,3-3s3,1.35,3,3-1.35,3-3,3-3-1.35-3-3ZM9,27.4c0-.68.23-1.34.66-1.87l5.34-6.68v30.65l-6,4.5v-26.6ZM11,55l5-3.75,5,3.75h-10ZM23,54l-6-4.5v-30.65l5.34,6.68c.43.53.66,1.19.66,1.87v26.6ZM51.22,55h-16.44l-1.5-6h19.44l-1.5,6ZM55,47h-24v-2h1c.55,0,1-.45,1-1s-.45-1-1-1h-2c-.55,0-1,.45-1,1v4c0,.55.45,1,1,1h1.22l1.5,6h-7.72v-27.6c0-1.13-.39-2.24-1.1-3.12l-5.82-7.28h19.44l6.82,8.53c.43.53.66,1.19.66,1.87v15.6h-5c-.55,0-1,.45-1,1s.45,1,1,1h15v2Z"/>
  <circle cx="36" cy="44" r="1"/>
</svg>