<?xml version="1.0" encoding="UTF-8"?>
<svg id="Outline" xmlns="http://www.w3.org/2000/svg" version="1.1" viewBox="0 0 64 64">
  <!-- Generator: Adobe Illustrator 29.0.0, SVG Export Plug-In . SVG Version: 2.1.0 Build 186)  -->
  <path d="M57,22c0-1.65002-1.34998-3-3-3h-3v-3c0-.54999-.45001-1-1-1v-3c0-2.76001-2.23999-5-5-5h-26c-2.76001,0-5,2.23999-5,5v3c-.54999,0-1,.45001-1,1v3h-3c-1.65002,0-3,1.34998-3,3v8c0,.76996.29999,1.46997.78003,2-.48004.52997-.78003,1.22998-.78003,2v8c0,.76996.29999,1.46997.78003,2-.48004.52997-.78003,1.22998-.78003,2v8c0,1.64996,1.34998,3,3,3h44c1.65002,0,3-1.35004,3-3v-8c0-.77002-.29999-1.47003-.78003-2,.48004-.53003.78003-1.23004.78003-2v-8c0-.77002-.29999-1.47003-.78003-2,.48004-.53003.78003-1.23004.78003-2v-8ZM49,17v2h-4v-2h4ZM16,12c0-1.65002,1.34998-3,3-3h26c1.65002,0,3,1.34998,3,3v3h-2v-3c0-.54999-.45001-1-1-1h-26c-.54999,0-1,.45001-1,1v3h-2v-3ZM20,15v-2h24v2c-.54999,0-1,.45001-1,1v3h-22v-3c0-.54999-.45001-1-1-1ZM15,17h4v2h-4v-2ZM55,54c0,.54999-.45001,1-1,1H10c-.54999,0-1-.45001-1-1v-8c0-.54999.45001-1,1-1h6.46002l3.70996,5.54999c.17999.27997.5.45001.83002.45001h22c.33002,0,.65002-.17004.83002-.45001l3.70996-5.54999h6.46002c.54999,0,1,.45001,1,1v8ZM18.87,45h26.26001l-2.66998,4h-20.92004l-2.66998-4ZM55,42c0,.54999-.45001,1-1,1H10c-.54999,0-1-.45001-1-1v-8c0-.54999.45001-1,1-1h6.46002l3.70996,5.54999c.17999.27997.5.45001.83002.45001h22c.33002,0,.65002-.17004.83002-.45001l3.70996-5.54999h6.46002c.54999,0,1,.45001,1,1v8ZM18.87,33h26.26001l-2.66998,4h-20.92004l-2.66998-4ZM55,30c0,.54999-.45001,1-1,1H10c-.54999,0-1-.45001-1-1v-8c0-.54999.45001-1,1-1h6.46002l3.70996,5.54999c.17999.27997.5.45001.83002.45001h4c.54999,0,1-.45001,1-1s-.45001-1-1-1h-3.46002l-2.66998-4h26.26001l-2.66998,4h-9.46002c-.54999,0-1,.45001-1,1s.45001,1,1,1h10c.33002,0,.65002-.17004.83002-.45001l3.70996-5.54999h6.46002c.54999,0,1,.45001,1,1v8Z"/>
  <circle cx="29" cy="26" r="1"/>
</svg>