<?xml version="1.0" encoding="UTF-8"?>
<svg id="Outline" xmlns="http://www.w3.org/2000/svg" version="1.1" viewBox="0 0 64 64">
  <!-- Generator: Adobe Illustrator 29.5.1, SVG Export Plug-In . SVG Version: 2.1.0 Build 141)  -->
  <path d="M56,37h-5.7c2.84-1.99,4.7-5.28,4.7-9,0-6.07-4.93-11-11-11s-11,4.93-11,11c0,3.72,1.86,7.01,4.7,9h-11.4c2.84-1.99,4.7-5.28,4.7-9,0-6.07-4.93-11-11-11s-11,4.93-11,11c0,3.72,1.86,7.01,4.7,9h-5.7c-.55,0-1,.45-1,1v4c0,.55.45,1,1,1h2v1c0,1.65,1.35,3,3,3h8c.55,0,1-.45,1-1s-.45-1-1-1h-8c-.55,0-1-.45-1-1v-1h40v1c0,.55-.45,1-1,1h-22c-.55,0-1,.45-1,1s.45,1,1,1h22c1.65,0,3-1.35,3-3v-1h2c.55,0,1-.45,1-1v-4c0-.55-.45-1-1-1ZM44,19c3.91,0,7.24,2.51,8.47,6h-.47c-1.65,0-3,1.35-3,3,0,.55-.45,1-1,1s-1-.45-1-1c0-1.65-1.35-3-3-3s-3,1.35-3,3v2c0,.55-.45,1-1,1s-1-.45-1-1v-2c0-1.65-1.35-3-3-3h-.47c1.23-3.49,4.56-6,8.47-6ZM35,28c0-.34.02-.67.06-1h.94c.55,0,1,.45,1,1v2c0,1.65,1.35,3,3,3s3-1.35,3-3v-2c0-.55.45-1,1-1s1,.45,1,1c0,1.65,1.35,3,3,3s3-1.35,3-3c0-.55.45-1,1-1h.94c.04.33.06.66.06,1,0,4.96-4.04,9-9,9s-9-4.04-9-9ZM20,19c3.91,0,7.24,2.51,8.47,6h-.47c-1.65,0-3,1.35-3,3v2c0,.55-.45,1-1,1s-1-.45-1-1v-2c0-1.65-1.35-3-3-3s-3,1.35-3,3c0,.55-.45,1-1,1s-1-.45-1-1c0-1.65-1.35-3-3-3h-.47c1.23-3.49,4.56-6,8.47-6ZM11,28c0-.34.02-.67.06-1h.94c.55,0,1,.45,1,1,0,1.65,1.35,3,3,3s3-1.35,3-3c0-.55.45-1,1-1s1,.45,1,1v2c0,1.65,1.35,3,3,3s3-1.35,3-3v-2c0-.55.45-1,1-1h.94c.04.33.06.66.06,1,0,4.96-4.04,9-9,9s-9-4.04-9-9ZM55,41H9v-2h46v2Z"/>
  <circle cx="16" cy="24" r="1"/>
  <circle cx="19" cy="22" r="1"/>
  <circle cx="23" cy="23" r="1"/>
  <circle cx="48" cy="24" r="1"/>
  <circle cx="45" cy="22" r="1"/>
  <circle cx="41" cy="23" r="1"/>
  <circle cx="25" cy="46" r="1"/>
</svg>