<?xml version="1.0" encoding="UTF-8"?>
<svg id="Outline" xmlns="http://www.w3.org/2000/svg" version="1.1" viewBox="0 0 64 64">
  <!-- Generator: Adobe Illustrator 29.3.1, SVG Export Plug-In . SVG Version: 2.1.0 Build 151)  -->
  <path d="M26.85327,51c.55225,0,1-.44775,1-1s-.44775-1-1-1c-7.71973,0-14-4.93457-14-11,0-.55225-.44775-1-1-1s-1,.44775-1,1c0,7.16846,7.17773,13,16,13Z"/>
  <path d="M55.85327,41h-9.32001c.21002-.98999.32001-1.98999.32001-3,0-6.79004-4.71002-12.64001-11.48999-15.35999,3.73999-1.09003,6.48999-4.55005,6.48999-8.64001v-4c0-.54999-.45001-1-1-1h-4c-3.72998,0-6.94,2.27997-8.29999,5.52997-.29999-.83997-.65002-1.65997-1.04004-2.45001l-.76996-1.52997c-.14001-.28003-.41003-.48999-.73004-.53998-.31-.05005-.63995.06-.87.27997l-4,4c-.38995.39001-.38995,1.03003,0,1.41998l.17004.17004c1.44995,1.44,2.32001,3.31,2.5,5.32001-7.83002,1.01996-14.33002,5.89996-16.33002,12.56-.16003.52997.14001,1.08997.66998,1.25.53003.14996,1.09003-.14001,1.25-.67004,2-6.67999,9.17999-11.33997,17.45001-11.33997,9.92999,0,18,6.72998,18,15,0,1.01001-.13,2.01001-.37,3h-12.63c-.54999,0-1,.45001-1,1,0,3.70001,1.56,7.03998,4.04999,9.40997-2.47998,1.04004-5.23999,1.59003-8.04999,1.59003-8.27002,0-15.45001-4.66003-17.45001-11.34003-.15997-.52997-.71997-.82001-1.25-.66998-.52997.15997-.83002.71997-.66998,1.25,2.26001,7.51001,10.21997,12.76001,19.37,12.76001,3.45001,0,6.82001-.76001,9.79999-2.19,2.06,1.38,4.54004,2.19,7.20001,2.19,7.16998,0,13-5.83002,13-13,0-.54999-.45001-1-1-1ZM26.85327,21c-.34998,0-.70001.01996-1.03998.03998-.20001-2.23999-1.09003-4.33002-2.56-6.02002l2.32996-2.32996.14001.28998c1.25,2.5,1.97003,5.27002,2.09998,8.06-.31995-.01001-.63995-.03998-.96997-.03998ZM31.26324,21l5.30005-5.29004c.38995-.38995.38995-1.02997,0-1.41998-.39001-.39001-1.03003-.39001-1.42004,0l-5.28998,5.29999v-1.58997c0-3.85999,3.14001-7,7-7h3v3c0,3.85999-3.14001,7-7,7h-1.59003ZM50.77325,43c-.20001,1.39996-.82001,2.66998-1.71997,3.66998l-3.07001-3.66998h4.78998ZM47.51324,47.95996c-1.06995.65002-2.31995,1.04004-3.65997,1.04004s-2.59003-.39001-3.65997-1.04004l3.65997-4.39996,3.65997,4.39996ZM41.72327,43l-3.07001,3.66998c-.89996-1-1.51996-2.27002-1.71997-3.66998h4.78998ZM43.85327,53c-5.72998,0-10.45001-4.40002-10.96002-10h2.02002c.5,4.48999,4.32001,8,8.94,8s8.44-3.51001,8.94-8h2.02002c-.51001,5.59998-5.23004,10-10.96002,10Z"/>
  <circle cx="8.14673" cy="38" r="1"/>
</svg>