<?xml version="1.0" encoding="UTF-8"?>
<svg id="Outline" xmlns="http://www.w3.org/2000/svg" version="1.1" viewBox="0 0 64 64">
  <!-- Generator: Adobe Illustrator 29.5.1, SVG Export Plug-In . SVG Version: 2.1.0 Build 141)  -->
  <path d="M27,22c.553,0,1-.448,1-1v-6c0-1.654-1.346-3-3-3s-3,1.346-3,3v6c0,.552.447,1,1,1s1-.448,1-1v-2h2v2c0,.552.447,1,1,1ZM24,17v-2c0-.551.448-1,1-1s1,.449,1,1v2h-2Z"/>
  <path d="M32,17.236v3.764c0,.552.447,1,1,1s1-.448,1-1v-3.764l1.895-3.789c.247-.494.047-1.095-.447-1.342s-1.094-.047-1.342.447l-1.105,2.211-1.105-2.211c-.247-.494-.848-.694-1.342-.447-.494.247-.694.848-.447,1.342l1.895,3.789Z"/>
  <path d="M50.01,46.23c.66-1.34.99-2.76.99-4.23v-4c0-.81-.32-1.57-.87-2.11-.56-.57-1.32-.89-2.13-.89-.54,0-1.03.15-1.47.4-.11-.18-.25-.36-.4-.51-.56-.57-1.32-.89-2.13-.89-.54,0-1.03.15-1.47.4-.11-.18-.25-.36-.4-.51-.56-.57-1.32-.89-2.13-.89-.35,0-.69.07-1,.18v-5.86c2.57-1.75,4-3.97,4-6.32v-4c0-5.61-7.91-10-18-10S7,11.39,7,17v4c0,5.61,7.91,10,18,10,2.8,0,5.53-.37,8-1.05v7.81l-2.88-2.87c-1.13-1.15-3.11-1.15-4.24-.01-.57.57-.88,1.32-.88,2.12s.31,1.55.84,2.07l5.52,6.33c.93,1.07,1.51,2.39,1.67,3.77-1.17.41-2.03,1.52-2.03,2.83v2c0,1.65,1.35,3,3,3h14c1.65,0,3-1.35,3-3v-2c0-1.29-.82-2.38-1.95-2.8.09-.88.33-1.73.72-2.52l.24-.45ZM38.81,24.97c-.15-.41-.38-.77-.67-1.07,1.1-.65,2.03-1.38,2.78-2.17-.21,1.13-.94,2.24-2.11,3.24ZM25,29c-8.18,0-15.16-3.26-15.92-7.27,2.66,2.82,7.69,4.82,13.86,5.2.58.04,1.02-.39,1.06-.94.03-.55-.39-1.02-.94-1.06-7.88-.48-14.06-3.97-14.06-7.93,0-4.34,7.33-8,16-8s16,3.66,16,8c0,3.15-3.32,5.08-5.87,6.13-2.61,1.07-5.38,1.6-8.19,1.8-.55.04-.97.51-.94,1.06.03.53.47.94,1,.94h.06c2.14-.13,4.13-.46,5.94-.93v1.87c-2.43.73-5.17,1.13-8,1.13ZM49,42c0,1.16-.26,2.29-.77,3.32l-.24.45c-.51,1.03-.82,2.12-.93,3.23h-4.06c-.55,0-1,.45-1,1s.45,1,1,1h5c.55,0,1,.45,1,1v2c0,.55-.45,1-1,1h-14c-.55,0-1-.45-1-1v-2c0-.55.45-1,1.09-1h4.91c.55,0,1-.45,1-1s-.45-1-1-1h-3.97c-.21-1.8-.95-3.52-2.17-4.92l-5.56-6.38c-.19-.19-.3-.44-.3-.7s.11-.51.3-.71c.38-.38,1.02-.38,1.4.01l4.59,4.58c.29.28.72.37,1.09.21.38-.15.62-.52.62-.92v-14.17c0-.27.1-.51.31-.71.63-.6,1.69-.16,1.69.71v14c0,.55.45,1,1,1s1-.45,1-1v-4c0-.55.45-1,1-1,.27,0,.51.1.71.31.19.18.29.42.29.69v4c0,.55.45,1,1,1s1-.45,1-1v-3c0-.55.45-1,1-1,.27,0,.51.1.71.31.19.18.29.42.29.69v3c0,.55.45,1,1,1s1-.45,1-1v-2c0-.55.45-1,1-1,.27,0,.51.1.71.31.19.18.29.42.29.69v4Z"/>
  <path d="M17,12h-2c-.55,0-1,.45-1,1v8c0,.55.45,1,1,1s1-.45,1-1v-3h1c1.65,0,3-1.35,3-3s-1.35-3-3-3ZM17,16h-1v-2h1c.55,0,1,.45,1,1s-.45,1-1,1Z"/>
</svg>