<?xml version="1.0" encoding="UTF-8"?>
<svg id="Outline" xmlns="http://www.w3.org/2000/svg" version="1.1" viewBox="0 0 64 64">
  <!-- Generator: Adobe Illustrator 29.5.1, SVG Export Plug-In . SVG Version: 2.1.0 Build 141)  -->
  <path d="M54.679,29.122c-.602-4.82-2.675-9.16-5.768-12.57l3.646.009h.003c.266,0,.52-.105.707-.293l3.562-3.562c.299-.299.378-.754.196-1.137-.181-.38-.578-.615-1.006-.565l-1.93.198,2.497-2.497c.391-.391.391-1.023,0-1.414s-1.023-.391-1.414,0l-2.599,2.599-.13-1.82c-.027-.392-.282-.731-.651-.867-.365-.137-.782-.044-1.058.236l-3.13,3.176c-.197.201-.301.475-.285.756l.196,3.576-.1.1c-3.423-3.137-7.796-5.242-12.658-5.849-.353-1.265-1.503-2.2-2.878-2.2s-2.525.936-2.878,2.2c-10.424,1.301-18.62,9.498-19.922,19.922-1.265.353-2.2,1.503-2.2,2.878s.936,2.525,2.2,2.878c1.302,10.423,9.498,18.621,19.922,19.922.353,1.265,1.502,2.2,2.878,2.2s2.525-.936,2.878-2.2c10.424-1.301,18.62-9.498,19.922-19.922,1.265-.353,2.2-1.503,2.2-2.878s-.936-2.525-2.2-2.878ZM51.855,13.444l1.568-.161-1.277,1.278-1.411-.004,1.114-1.114s.004,0,.006,0ZM49.34,11.705l1.266-1.285.096,1.343-1.288,1.288-.074-1.346ZM31.879,9c.552,0,1,.449,1,1v3.989s-.003.008-.004.012c0,.004.002.008.001.013-.008.545-.45.986-.997.986s-.99-.442-.997-.987c0-.005.002-.009.001-.013,0-.004-.003-.008-.004-.012v-3.988c0-.551.448-1,1-1ZM28.879,11.233v2.022c-8.035,1.288-14.455,7.708-15.744,15.745h-2.023c1.316-9.217,8.551-16.451,17.767-17.767ZM9.879,31h3.989s.008.003.012.004c.008,0,.016,0,.025.001.539.015.974.453.974.995,0,.546-.441.989-.986.997-.004,0-.008-.002-.012-.001-.004,0-.008.003-.012.004h-3.99c-.552,0-1-.449-1-1s.448-1,1-1ZM11.112,35h2.014c.514,3.238,1.854,6.282,3.924,8.848.344.426.981.494,1.406.15.43-.347.497-.977.15-1.406-1.841-2.282-3.036-4.986-3.5-7.862,1.042-.471,1.772-1.515,1.772-2.73s-.727-2.254-1.764-2.726c1.166-7.157,6.881-12.874,14.038-14.038.472,1.038,1.514,1.765,2.727,1.765s2.26-.73,2.731-1.772c2.878.465,5.581,1.66,7.861,3.501.428.345,1.061.277,1.406-.151.347-.43.279-1.059-.15-1.406-2.565-2.07-5.609-3.41-8.848-3.925v-2.014c9.216,1.316,16.45,8.55,17.767,17.767h-2.014c-.514-3.238-1.854-6.282-3.924-8.848-.346-.429-.977-.498-1.406-.15-.43.347-.497.977-.15,1.406,1.841,2.282,3.036,4.985,3.5,7.862-1.042.471-1.772,1.515-1.772,2.73s.727,2.254,1.764,2.726c-1.166,7.157-6.881,12.874-14.038,14.039-.472-1.038-1.514-1.765-2.727-1.765s-2.26.73-2.731,1.772c-2.878-.465-5.581-1.66-7.861-3.501-.43-.347-1.061-.279-1.406.15-.347.43-.279,1.059.15,1.406,2.565,2.07,5.609,3.41,8.848,3.925v2.014c-9.216-1.316-16.45-8.55-17.767-17.767ZM31.879,55c-.552,0-1-.449-1-1v-3.988s.003-.008.004-.013c0-.004-.002-.008-.001-.013.008-.545.45-.986.997-.986s.99.442.997.987c0,.005-.002.009-.001.013s.003.008.004.013v3.987c0,.551-.448,1-1,1ZM34.879,52.767v-2.022c8.035-1.288,14.455-7.708,15.744-15.745h2.023c-1.316,9.217-8.551,16.451-17.767,17.767ZM53.879,33h-3.989s-.008-.003-.012-.004c-.004,0-.008.002-.012.001-.545-.008-.987-.451-.987-.997,0-.542.435-.98.974-.995.008,0,.016,0,.024-.001.004,0,.008-.003.012-.004h3.99c.552,0,1,.449,1,1s-.448,1-1,1Z"/>
  <path d="M28.879,35h6c.552,0,1,.449,1,1s-.448,1-1,1h-10c-.553,0-1,.448-1,1v4c0,.552.447,1,1,1h4v2c0,.552.447,1,1,1h4c.553,0,1-.448,1-1v-2c3.859,0,7-3.14,7-7s-3.141-7-7-7h-6c-.552,0-1-.449-1-1s.448-1,1-1h10c.553,0,1-.448,1-1v-4c0-.552-.447-1-1-1h-4v-2c0-.552-.447-1-1-1h-4c-.553,0-1,.448-1,1v2c-3.859,0-7,3.14-7,7s3.141,7,7,7ZM28.879,23h1c.553,0,1-.448,1-1v-2h2v2c0,.552.447,1,1,1h4v2h-9c-1.654,0-3,1.346-3,3s1.346,3,3,3h6c2.757,0,5,2.243,5,5s-2.243,5-5,5h-1c-.553,0-1,.448-1,1v2h-2v-2c0-.552-.447-1-1-1h-4v-2h9c1.654,0,3-1.346,3-3s-1.346-3-3-3h-6c-2.757,0-5-2.243-5-5s2.243-5,5-5Z"/>
</svg>