<?xml version="1.0" encoding="UTF-8"?>
<svg id="Outline" xmlns="http://www.w3.org/2000/svg" version="1.1" viewBox="0 0 64 64">
  <!-- Generator: Adobe Illustrator 29.5.1, SVG Export Plug-In . SVG Version: 2.1.0 Build 141)  -->
  <path d="M49,11h-7.18c-.42-1.16-1.52-2-2.82-2h-3.03c-.91-1.21-2.34-2-3.97-2s-3.06.79-3.97,2h-3.03c-1.3,0-2.4.84-2.82,2h-7.18c-1.65,0-3,1.35-3,3v40c0,1.65,1.35,3,3,3h34c1.65,0,3-1.35,3-3V14c0-1.65-1.35-3-3-3ZM37,12c0-.34-.04-.68-.1-1h2.1c.55,0,1,.45,1,1v3h-4.03c.64-.84,1.03-1.87,1.03-3ZM32,9c1.65,0,3,1.35,3,3s-1.35,3-3,3-3-1.35-3-3,1.35-3,3-3ZM24,12c0-.55.45-1,1-1h2.1c-.06.32-.1.66-.1,1,0,1.13.39,2.16,1.03,3h-4.03v-3ZM16,16v39h-1c-.55,0-1-.45-1-1V14c0-.55.45-1,1-1h7v2h-5c-.55,0-1,.45-1,1ZM46,55h-28V17h28v38ZM50,54c0,.55-.45,1-1,1h-1V16c0-.55-.45-1-1-1h-5v-2h7c.55,0,1,.45,1,1v40Z"/>
  <path d="M23.293,23.293c-.391.391-.391,1.023,0,1.414l1,1c.193.193.449.293.707.293.192,0,.386-.055.555-.168l3-2c.46-.307.584-.927.277-1.387-.306-.46-.926-.584-1.387-.277l-2.318,1.545-.42-.42c-.391-.391-1.023-.391-1.414,0Z"/>
  <path d="M27.34,29c.553,0,1-.447,1-1s-.447-1-1-1h-5.34v-6h2c.553,0,1-.447,1-1s-.447-1-1-1h-3c-.553,0-1,.447-1,1v8c0,.553.447,1,1,1h6.34Z"/>
  <path d="M33,21h6c.553,0,1-.447,1-1s-.447-1-1-1h-6c-.553,0-1,.447-1,1s.447,1,1,1Z"/>
  <path d="M43,23h-10c-.553,0-1,.447-1,1s.447,1,1,1h10c.553,0,1-.447,1-1s-.447-1-1-1Z"/>
  <path d="M43,27h-10c-.553,0-1,.447-1,1s.447,1,1,1h10c.553,0,1-.447,1-1s-.447-1-1-1Z"/>
  <path d="M32,31c-6.065,0-11,4.935-11,11s4.935,11,11,11,11-4.935,11-11-4.935-11-11-11ZM32,51c-4.963,0-9-4.037-9-9s4.037-9,9-9,9,4.037,9,9-4.037,9-9,9Z"/>
  <path d="M33,39.184v-3.184c0-.553-.447-1-1-1s-1,.447-1,1v3.184c-1.161.414-2,1.514-2,2.816,0,.462.113.894.301,1.285l-2.25,2.25c-.391.391-.391,1.023,0,1.414.368.368,1.019.395,1.414,0l2.25-2.25c.391.187.824.301,1.285.301,1.654,0,3-1.346,3-3,0-1.302-.839-2.402-2-2.816ZM32,43c-.552,0-1-.448-1-1s.448-1,1-1,1,.448,1,1-.448,1-1,1Z"/>
</svg>