<?xml version="1.0" encoding="UTF-8"?>
<svg id="Outline" xmlns="http://www.w3.org/2000/svg" version="1.1" viewBox="0 0 64 64">
  <!-- Generator: Adobe Illustrator 29.5.1, SVG Export Plug-In . SVG Version: 2.1.0 Build 141)  -->
  <path d="M36,41H10c-1.654,0-3,1.346-3,3v8c0,1.654,1.346,3,3,3h26c1.654,0,3-1.346,3-3v-8c0-1.654-1.346-3-3-3ZM37,52c0,.551-.449,1-1,1H10c-.551,0-1-.449-1-1v-8c0-.551.449-1,1-1h26c.551,0,1,.449,1,1v8Z"/>
  <path d="M34,49H12c-.552,0-1,.448-1,1s.448,1,1,1h22c.552,0,1-.448,1-1s-.448-1-1-1Z"/>
  <path d="M34,45h-18c-.552,0-1,.448-1,1s.448,1,1,1h18c.552,0,1-.448,1-1s-.448-1-1-1Z"/>
  <path d="M36,25H10c-1.654,0-3,1.346-3,3v8c0,1.654,1.346,3,3,3h26c1.654,0,3-1.346,3-3v-8c0-1.654-1.346-3-3-3ZM37,36c0,.551-.449,1-1,1H10c-.551,0-1-.449-1-1v-8c0-.551.449-1,1-1h26c.551,0,1,.449,1,1v8Z"/>
  <path d="M34,33H12c-.552,0-1,.448-1,1s.448,1,1,1h22c.552,0,1-.448,1-1s-.448-1-1-1Z"/>
  <path d="M34,29h-18c-.552,0-1,.448-1,1s.448,1,1,1h18c.552,0,1-.448,1-1s-.448-1-1-1Z"/>
  <path d="M36,9H10c-1.654,0-3,1.346-3,3v8c0,1.654,1.346,3,3,3h26c1.654,0,3-1.346,3-3v-8c0-1.654-1.346-3-3-3ZM37,20c0,.551-.449,1-1,1H10c-.551,0-1-.449-1-1v-8c0-.551.449-1,1-1h26c.551,0,1,.449,1,1v8Z"/>
  <path d="M34,17H12c-.552,0-1,.448-1,1s.448,1,1,1h22c.552,0,1-.448,1-1s-.448-1-1-1Z"/>
  <path d="M34,13h-18c-.552,0-1,.448-1,1s.448,1,1,1h18c.552,0,1-.448,1-1s-.448-1-1-1Z"/>
  <path d="M52.434,45.332l-1.644-.479-.963-1.416c-.372-.548-1.281-.548-1.653,0l-.963,1.416-1.644.479c-.318.092-.569.336-.671.651-.102.315-.042.66.161.921l1.048,1.354-.053,1.711c-.01.331.144.645.412.84.269.195.615.244.926.132l1.612-.579s1.612.579,1.612.579c.311.112.658.063.926-.132.268-.195.422-.509.412-.84l-.053-1.711,1.048-1.354c.203-.262.263-.606.161-.921-.103-.314-.354-.559-.671-.651ZM50.095,47.317c-.142.184-.216.411-.209.643l.019.602-.567-.203c-.109-.04-.224-.059-.338-.059s-.229.02-.338.059l-.567.203.019-.602c.007-.232-.067-.459-.209-.643l-.369-.477.578-.168c.223-.065.417-.206.547-.397l.339-.498.339.498c.13.192.324.333.547.397l.578.168-.369.477Z"/>
  <path d="M53,40.082v-15.082h2c.379,0,.725-.214.895-.553s.133-.744-.095-1.047l-6-8c-.377-.503-1.223-.503-1.6,0l-6,8c-.228.303-.264.708-.095,1.047s.516.553.895.553h2v15.082c-2.387,1.386-4,3.964-4,6.918,0,4.411,3.589,8,8,8s8-3.589,8-8c0-2.953-1.613-5.532-4-6.918ZM46,23h-1l4-5.333,4,5.333h-1c-.552,0-1,.448-1,1v15.263c-.641-.166-1.308-.263-2-.263s-1.359.097-2,.263v-15.263c0-.552-.448-1-1-1ZM49,53c-3.309,0-6-2.691-6-6s2.691-6,6-6,6,2.691,6,6-2.691,6-6,6Z"/>
</svg>