<?xml version="1.0" encoding="UTF-8"?>
<svg id="Outline" xmlns="http://www.w3.org/2000/svg" version="1.1" viewBox="0 0 64 64">
  <!-- Generator: Adobe Illustrator 29.5.1, SVG Export Plug-In . SVG Version: 2.1.0 Build 141)  -->
  <path d="M54,34h-1v-2c0-.55-.45-1-1-1h-30c-.55,0-1,.45-1,1s.45,1,1,1h9v2.57c-2.26-1.04-5.03-.64-6.89,1.22-2.39,2.39-2.39,6.28,0,8.67l6.89,6.89v.65c0,1.1-.9,2-2,2h-14c-1.1,0-2-.9-2-2v-20h5c.55,0,1-.45,1-1s-.45-1-1-1h-6c-.55,0-1,.45-1,1v2h-1c-1.65,0-3,1.35-3,3v14c0,1.65,1.35,3,3,3h1.14c.45,1.72,2,3,3.86,3h14c1.2,0,2.27-.54,3-1.38.73.84,1.8,1.38,3,1.38h14c1.86,0,3.41-1.28,3.86-3h1.14c1.65,0,3-1.35,3-3v-14c0-1.65-1.35-3-3-3ZM11,52h-1c-.55,0-1-.45-1-1v-14c0-.55.45-1,1-1h1v16ZM31,49.52l-5.48-5.48c-1.61-1.6-1.61-4.22,0-5.83.81-.81,1.86-1.21,2.92-1.21.91,0,1.81.32,2.56.92v11.6ZM33,38.02c.75-.65,1.69-1.02,2.69-1.02,1.1,0,2.14.43,2.92,1.21s1.2,1.81,1.2,2.92c0,1.1-.42,2.13-1.2,2.91l-5.61,5.61v-11.63ZM55,51c0,.55-.45,1-1,1h-1v-6c0-.55-.45-1-1-1s-1,.45-1,1v7c0,1.1-.9,2-2,2h-14c-1.1,0-2-.9-2-2v-.52l7.02-7.02c1.16-1.16,1.79-2.7,1.79-4.33,0-1.64-.63-3.18-1.79-4.34-1.16-1.15-2.69-1.79-4.33-1.79-.95,0-1.86.22-2.69.63v-2.63h18v9c0,.55.45,1,1,1s1-.45,1-1v-6h1c.55,0,1,.45,1,1v14Z"/>
  <path d="M18,21h8.893c.537,0,1.017.362,1.093.825.049.303-.03.595-.224.823-.19.224-.468.353-.762.353h-3.893c-1.516,0-2.834,1.076-3.066,2.503-.143.879.103,1.768.674,2.439.571.672,1.404,1.057,2.286,1.057h22.893c1.516,0,2.834-1.076,3.067-2.504.143-.879-.103-1.768-.674-2.439s-1.404-1.057-2.286-1.057h-10.893c-.537,0-1.017-.362-1.093-.824-.049-.304.03-.596.224-.823.19-.224.468-.353.762-.353h4.893c1.516,0,2.834-1.076,3.067-2.504.143-.879-.103-1.768-.674-2.439s-1.404-1.057-2.286-1.057h-4c-.551,0-1-.449-1-1s.449-1,1-1h6c1.654,0,3-1.346,3-3s-1.346-3-3-3h-20c-1.654,0-3,1.346-3,3s1.346,3,3,3h6c.551,0,1,.449,1,1s-.449,1-1,1h-9.893c-1.516,0-2.834,1.076-3.066,2.503-.143.879.103,1.768.674,2.439.571.672,1.404,1.057,2.286,1.057ZM18.107,17h9.893c1.654,0,3-1.346,3-3s-1.346-3-3-3h-6c-.551,0-1-.449-1-1s.449-1,1-1h20c.551,0,1,.449,1,1s-.449,1-1,1h-6c-1.654,0-3,1.346-3,3s1.346,3,3,3h4c.294,0,.572.128.762.353.193.228.272.52.224.823-.076.462-.556.825-1.093.825h-4.893c-.881,0-1.714.385-2.286,1.057s-.817,1.561-.674,2.44c.232,1.427,1.551,2.503,3.066,2.503h10.893c.294,0,.572.128.762.353.193.228.272.52.224.823-.076.462-.556.825-1.093.825h-22.893c-.294,0-.572-.128-.762-.353-.193-.228-.272-.52-.224-.823.076-.462.556-.825,1.093-.825h3.893c.881,0,1.714-.385,2.286-1.057.571-.671.817-1.561.674-2.439-.232-1.427-1.551-2.503-3.066-2.503h-8.893c-.294,0-.572-.128-.762-.353-.193-.228-.272-.52-.224-.823.076-.462.556-.825,1.093-.825Z"/>
</svg>