<?xml version="1.0" encoding="UTF-8"?>
<svg id="Outline" xmlns="http://www.w3.org/2000/svg" version="1.1" viewBox="0 0 48 48">
  <!-- Generator: Adobe Illustrator 29.5.1, SVG Export Plug-In . SVG Version: 2.1.0 Build 141)  -->
  <path d="M40,41h-9.35c.95-.62,1.79-1.38,2.53-2.24.58.14,1.19.24,1.82.24,4.41,0,8-3.59,8-8,0-3.74-2.57-6.92-6.12-7.77l.12-1.13c.02-.28-.07-.56-.26-.77-.19-.21-.46-.33-.74-.33h-15v-2c0-.27-.11-.52-.29-.71l-3-3c-.19-.18-.44-.29-.71-.29h-3v-3c0-2.76,2.24-5,5-5h5c2.59,0,4.69,1.98,4.95,4.5l-2.5,1.67c-.28.18-.45.5-.45.83v4c0,.55.45,1,1,1h6c.55,0,1-.45,1-1v-4c0-.33-.17-.65-.45-.83l-2.58-1.72c-.28-3.6-3.3-6.45-6.97-6.45h-5c-3.86,0-7,3.14-7,7v3h-3c-.27,0-.52.11-.71.29l-3,3c-.18.19-.29.44-.29.71v15c0,.55.45,1,1,1h6.66c.88,2.49,2.54,4.58,4.69,6h-5.35c-.55,0-1,.45-1,1s.45,1,1,1h28c.55,0,1-.45,1-1s-.45-1-1-1ZM32,14.54v2.46h-4v-2.46l2-1.34,2,1.34ZM35.99,32.15l.27-2.69c.45.36.74.92.74,1.54,0,.78-.45,1.45-1.1,1.78.03-.21.07-.42.09-.63ZM39,31c0-1.66-1.04-3.1-2.53-3.7l.21-2.05c2.52.73,4.32,3.04,4.32,5.75,0,3.31-2.69,6-6,6-.19,0-.37-.03-.56-.04.36-.63.67-1.3.91-2,2.04-.18,3.65-1.88,3.65-3.96ZM12.01,32.15c.03.29.08.57.13.85h-5.14v-13.59l2.41-2.41h7.18l2.41,2.41v1.59h-7c-.28,0-.55.12-.74.33-.19.21-.28.49-.26.77l1.01,10.05ZM14,31.95l-.9-8.95h21.8l-.9,8.95c-.52,5.16-4.81,9.05-10,9.05s-9.48-3.89-10-9.05Z"/>
</svg>