<?xml version="1.0" encoding="UTF-8"?>
<svg id="Outline" xmlns="http://www.w3.org/2000/svg" version="1.1" viewBox="0 0 64 64">
  <!-- Generator: Adobe Illustrator 29.5.1, SVG Export Plug-In . SVG Version: 2.1.0 Build 141)  -->
  <path d="M46.96,21.17c-.44-7.88-6.97-14.17-14.96-14.17s-14.52,6.28-14.96,14.17c-.43.14-.83.38-1.15.7-.57.56-.89,1.32-.89,2.13,0,1.33.88,2.45,2.08,2.84l1.84,18.31c.67,6.76,6.29,11.85,13.08,11.85s12.41-5.09,13.08-11.85l.42-4.05c.05-.55-.35-1.04-.9-1.1-.55-.04-1.04.35-1.1.9l-.41,4.05c-.57,5.73-5.34,10.05-11.09,10.05s-10.52-4.32-11.09-10.05l-1.32-13.08.6-.17c3.79-1.08,7.76-1,11.49.25,2.21.73,4.49,1.1,6.78,1.1,1.98,0,3.96-.27,5.9-.83h.01l-.46,4.68c-.06.55.34,1.04.89,1.1.56.05,1.04-.35,1.1-.9l1.02-10.26c.45-.14.86-.38,1.19-.71.57-.56.89-1.32.89-2.13,0-1.32-.86-2.43-2.04-2.83ZM32,9c5.42,0,10.07,3.33,12.02,8.06-2.79-3.71-7.22-6.06-12.02-6.06s-9.23,2.35-12.02,6.06c1.95-4.73,6.6-8.06,12.02-8.06ZM44.59,30.08l-.78.22c-3.79,1.08-7.76,1-11.49-.25-4.12-1.37-8.5-1.47-12.68-.27l-.25.07-.28-2.85h25.79l-.31,3.08ZM46.69,24.71c-.18.19-.42.29-.69.29h-28c-.55,0-1-.45-1-1,0-.541.46-1,1-1h5c.55,0,1-.45,1-1s-.45-1-1-1h-2.99c1.99-4.77,6.74-8,11.99-8s10,3.23,11.99,8h-16.99c-.55,0-1,.45-1,1s.45,1,1,1h19c.55,0,1,.45,1,1,0,.27-.1.51-.31.71Z"/>
  <path d="M26,43c-1.654,0-3,1.346-3,3s1.346,3,3,3,3-1.346,3-3-1.346-3-3-3ZM26,47c-.552,0-1-.449-1-1s.448-1,1-1,1,.449,1,1-.448,1-1,1Z"/>
  <path d="M38,49c1.654,0,3-1.346,3-3s-1.346-3-3-3-3,1.346-3,3,1.346,3,3,3ZM38,45c.552,0,1,.449,1,1s-.448,1-1,1-1-.449-1-1,.448-1,1-1Z"/>
  <path d="M32,45c1.654,0,3-1.346,3-3s-1.346-3-3-3-3,1.346-3,3,1.346,3,3,3ZM32,41c.552,0,1,.449,1,1s-.448,1-1,1-1-.449-1-1,.448-1,1-1Z"/>
  <path d="M26,35c-1.654,0-3,1.346-3,3s1.346,3,3,3,3-1.346,3-3-1.346-3-3-3ZM26,39c-.552,0-1-.449-1-1s.448-1,1-1,1,.449,1,1-.448,1-1,1Z"/>
  <path d="M38,35c-1.654,0-3,1.346-3,3s1.346,3,3,3,3-1.346,3-3-1.346-3-3-3ZM38,39c-.552,0-1-.449-1-1s.448-1,1-1,1,.449,1,1-.448,1-1,1Z"/>
</svg>