<?xml version="1.0" encoding="UTF-8"?>
<svg id="Outline" xmlns="http://www.w3.org/2000/svg" version="1.1" viewBox="0 0 48 48">
  <!-- Generator: Adobe Illustrator 29.5.1, SVG Export Plug-In . SVG Version: 2.1.0 Build 141)  -->
  <path d="M31.175,34.763c.589.141,1.193.237,1.825.237,4.411,0,8-3.589,8-8,0-3.743-2.571-6.92-6.118-7.767l.113-1.133c.028-.281-.064-.561-.254-.771-.189-.209-.458-.329-.741-.329H10c-.283,0-.552.12-.741.329-.19.209-.282.489-.254.771l1.005,10.05c.374,3.742,2.414,6.918,5.338,8.851h-7.348c-.552,0-1,.448-1,1v2c0,1.654,1.346,3,3,3h24c1.654,0,3-1.346,3-3v-2c0-.552-.448-1-1-1h-7.348c.943-.623,1.791-1.377,2.523-2.237ZM34.26,25.455c.453.37.74.93.74,1.545,0,.779-.451,1.447-1.102,1.778.032-.209.071-.415.093-.628l.269-2.695ZM39,27c0,3.309-2.691,6-6,6-.19,0-.371-.027-.556-.044.361-.629.665-1.294.91-1.992,2.038-.183,3.646-1.88,3.646-3.964,0-1.656-1.039-3.101-2.525-3.698l.205-2.053c2.52.726,4.32,3.039,4.32,5.751ZM35,39v1c0,.551-.449,1-1,1H10c-.551,0-1-.449-1-1v-1h26ZM22,37c-5.185,0-9.484-3.891-10-9.05l-.895-8.95h5.895v2h-2c-.552,0-1,.448-1,1v6c0,.552.448,1,1,1h6c.552,0,1-.448,1-1v-6c0-.552-.448-1-1-1h-2v-2h13.895l-.895,8.95c-.516,5.159-4.815,9.05-10,9.05ZM20,23v4h-4v-4h4Z"/>
  <path d="M21.105,13.553c-.572,1.144,1.208,2.054,1.789.895.766-1.533.766-3.362,0-4.895-.486-.972-.486-2.133,0-3.105.247-.494.047-1.095-.447-1.342-.496-.248-1.095-.046-1.342.447-.766,1.532-.766,3.362,0,4.895.486.972.486,2.133,0,3.105Z"/>
  <path d="M17.105,13.553c-.247.494-.046,1.095.447,1.342.487.243,1.098.041,1.342-.447.766-1.533.766-3.362,0-4.895-.486-.972-.486-2.133,0-3.105.247-.494.047-1.095-.447-1.342s-1.095-.046-1.342.447c-.766,1.532-.766,3.362,0,4.895.486.972.486,2.133,0,3.105Z"/>
  <path d="M25.105,13.553c-.247.494-.046,1.095.447,1.342.468.234,1.093.05,1.342-.447.766-1.533.766-3.362,0-4.895-.486-.972-.486-2.133,0-3.105.247-.494.047-1.095-.447-1.342-.496-.248-1.095-.046-1.342.447-.766,1.532-.766,3.362,0,4.895.486.972.486,2.133,0,3.105Z"/>
</svg>