<?xml version="1.0" encoding="UTF-8"?>
<svg id="Outline" xmlns="http://www.w3.org/2000/svg" version="1.1" viewBox="0 0 64 64">
  <!-- Generator: Adobe Illustrator 29.5.1, SVG Export Plug-In . SVG Version: 2.1.0 Build 141)  -->
  <path d="M46.999,24c-.83,0-1.66.11-2.47.32,1.55-1.32,2.47-3.27,2.47-5.32v-3c0-3.58-2.7-6.53-6.17-6.95-.4-1.19-1.51-2.05-2.83-2.05h-10c-1.32,0-2.43.86-2.83,2.05-3.47.42-6.17,3.37-6.17,6.95v3c0,2.19,1.05,4.29,2.8,5.6l.95.71c-2.22,1.99-3.82,4.55-4.63,7.41-.18-.17-.3-.4-.33-.66l-.2-1.83c-.4-3.55-3.39-6.23-6.96-6.23h-2.63c-.43,0-.81.28-.95.68-.13.41.01.86.35,1.12,2.38,1.78,3.98,4.37,4.51,7.3l.27,1.49c.35,1.89,1.48,3.46,3.02,4.41h-4.2c-.55,0-1,.45-1,1v8c0,1.13.39,2.16,1.03,3h-2.03c-.55,0-1,.45-1,1v4c0,.55.45,1,1,1h20c.55,0,1-.45,1-1v-4c0-.55-.45-1-1-1h11.2c.16,0,.33-.04.47-.12,2.96-1.58,5.26-4.01,6.69-6.9,5.35-.19,9.64-4.59,9.64-9.98,0-5.51-4.49-10-10-10ZM27.999,9h10c.55,0,1,.45,1,1s-.45,1-1,1h-10c-.55,0-1-.45-1-1s.45-1,1-1ZM20.999,19v-3c0-2.49,1.83-4.54,4.21-4.92.43,1.12,1.52,1.92,2.79,1.92h10c1.27,0,2.36-.8,2.79-1.92,2.38.38,4.21,2.43,4.21,4.92v3c0,1.51-.7,2.94-1.87,3.89-.51-2.22-2.49-3.89-4.86-3.89h-2.45c.11-.31.18-.65.18-1,0-1.65-1.35-3-3-3s-3,1.35-3,3c0,.35.07.69.18,1h-1.91c-2.51,0-4.57,1.85-4.93,4.26l-.34-.26c-1.25-.94-2-2.43-2-4ZM38.269,21c1.3,0,2.41.84,2.83,2h-15.66c.41-1.16,1.52-2,2.83-2h10ZM31.999,18c0-.55.45-1,1-1s1,.45,1,1-.45,1-1,1-1-.45-1-1ZM14.149,34.24l-.27-1.5c-.46-2.54-1.61-4.86-3.31-6.74h.06c2.55,0,4.69,1.91,4.97,4.45l.2,1.83c.13,1.15.88,2.08,1.89,2.49-.1.73-.16,1.48-.16,2.23,0,.28.03.57.04.85-1.72-.42-3.09-1.8-3.42-3.61ZM11.999,41h14v7c0,1.65-1.35,3-3,3h-8c-1.65,0-3-1.35-3-3v-7ZM27.999,55H9.999v-2h18v2ZM39.949,49h-12.05c.06-.32.1-.66.1-1v-8c0-.55-.45-1-1-1h-7.3c-.1-.67-.17-1.34-.17-2,0-5,2.7-9.57,7.06-12h9.41v2.46l-2.55,1.71c-.28.18-.45.5-.45.83v4c0,.55.45,1,1,1h6c.55,0,1-.45,1-1v-4c0-.33-.17-.65-.45-.83l-2.55-1.71v-2.46h1.95c4.35,2.42,7.05,7,7.05,12s-2.7,9.58-7.05,12ZM36.999,29.2l2,1.34v2.46h-4v-2.46l2-1.34ZM47.369,30.02c2.02.19,3.63,1.9,3.63,3.98,0,1.47-.8,2.78-2.02,3.47.01-.16.02-.31.02-.47,0-2.47-.58-4.85-1.63-6.98ZM48.209,41.9c.24-.71.42-1.44.55-2.19,2.49-.76,4.24-3.04,4.24-5.71,0-3.31-2.69-6-6-6-.26,0-.52.02-.79.05-.42-.61-.88-1.19-1.39-1.73.71-.2,1.44-.32,2.18-.32,4.41,0,8,3.59,8,8,0,4-2.95,7.31-6.79,7.9Z"/>
</svg>