<?xml version="1.0" encoding="UTF-8"?>
<svg id="Outline" xmlns="http://www.w3.org/2000/svg" version="1.1" viewBox="0 0 48 48">
  <!-- Generator: Adobe Illustrator 29.5.1, SVG Export Plug-In . SVG Version: 2.1.0 Build 141)  -->
  <path d="M12,15h2c.553,0,1-.447,1-1s-.447-1-1-1h-2c-.553,0-1,.447-1,1s.447,1,1,1Z"/>
  <path d="M20,15h2c.553,0,1-.447,1-1s-.447-1-1-1h-2c-.553,0-1,.447-1,1s.447,1,1,1Z"/>
  <path d="M16,19h2c.553,0,1-.447,1-1s-.447-1-1-1h-2c-.553,0-1,.447-1,1s.447,1,1,1Z"/>
  <path d="M40,5h-8c-.55,0-1,.45-1,1v1h-2.18c-.42-1.16-1.52-2-2.82-2H8c-1.65,0-3,1.35-3,3,0,1.3.84,2.4,2,2.82v2.18c0,5.51,4.49,10,10,10s10-4.49,10-10v-2.18c.85-.31,1.51-.97,1.82-1.82h2.18v1c0,.55.45,1,1,1h8c1.65,0,3-1.35,3-3s-1.35-3-3-3ZM25,13c0,4.41-3.59,8-8,8s-8-3.59-8-8v-2h16v2ZM26,9H8c-.55,0-1-.45-1-1s.45-1,1-1h18c.55,0,1,.45,1,1s-.45,1-1,1ZM40,9h-7v-2h7c.55,0,1,.45,1,1s-.45,1-1,1Z"/>
  <path d="M26,28H8c-1.654,0-3,1.346-3,3,0,1.317.859,2.427,2.042,2.829.424,5.127,4.724,9.171,9.958,9.171s9.534-4.045,9.958-9.171c1.183-.402,2.042-1.511,2.042-2.829,0-1.654-1.346-3-3-3ZM17,41c-4.072,0-7.436-3.06-7.931-7h15.861c-.495,3.94-3.859,7-7.931,7ZM26,32H8c-.552,0-1-.448-1-1s.448-1,1-1h18c.552,0,1,.448,1,1s-.448,1-1,1Z"/>
</svg>