<?xml version="1.0" encoding="UTF-8"?>
<svg id="Outline" xmlns="http://www.w3.org/2000/svg" version="1.1" viewBox="0 0 48 48">
  <!-- Generator: Adobe Illustrator 29.5.1, SVG Export Plug-In . SVG Version: 2.1.0 Build 141)  -->
  <path d="M27.139,25.79c-1.057,1.057-1.936,2.214-2.584,3.376.236-3.332,1.143-6.592,2.679-9.564.205.029.414.051.635.051.649,0,1.362-.126,2.122-.379,1.747-.582,3.601-1.794,5.219-3.413,3.628-3.628,4.844-7.884,2.829-9.899-2.016-2.018-6.272-.799-9.899,2.828-1.619,1.619-2.831,3.473-3.413,5.22-.661,1.98-.453,3.643.584,4.68.032.032.072.054.105.085-.428.837-.802,1.697-1.138,2.572-.558-1.678-1.719-3.51-3.416-5.207-1.619-1.619-3.472-2.831-5.219-3.413-1.98-.659-3.643-.453-4.68.585-1.037,1.037-1.245,2.699-.584,4.68.582,1.747,1.794,3.601,3.413,5.22,2.448,2.448,5.181,3.798,7.32,3.798.639,0,1.215-.136,1.724-.384-.78,4.784-.268,9.799,1.698,14.469l.546,1.296c.161.382.531.611.921.611.702,0,1.192-.746.921-1.389l-.545-1.295c-.562-1.336-.987-2.703-1.298-4.084.517.27,1.114.421,1.79.421.649,0,1.362-.126,2.122-.379,1.747-.582,3.601-1.794,5.219-3.413,3.628-3.628,4.844-7.884,2.829-9.899-2.015-2.017-6.272-.799-9.899,2.828ZM26.623,14.643c.486-1.459,1.526-3.035,2.93-4.438,2.116-2.115,4.457-3.207,5.924-3.207.497,0,.894.125,1.147.379,1.001,1.002.004,4.238-2.829,7.071-1.403,1.403-2.979,2.443-4.438,2.93-.348.117-.67.184-.974.227,1.397-2.174,3.15-4.149,5.241-5.822.432-.346.501-.975.156-1.406-.345-.43-.975-.501-1.405-.156-2.377,1.901-4.345,4.166-5.892,6.66-.208-.527-.168-1.317.139-2.236ZM22.276,24.624c-.999,1-4.238.005-7.071-2.828-1.403-1.404-2.444-2.98-2.93-4.438-.396-1.188-.359-2.173.101-2.633.461-.46,1.444-.499,2.634-.102,1.458.486,3.034,1.526,4.438,2.93,2.833,2.833,3.83,6.069,2.829,7.071ZM32.795,31.447c-1.403,1.403-2.979,2.443-4.438,2.93-1.188.397-2.173.359-2.634-.102s-.498-1.444-.101-2.633c.486-1.459,1.526-3.035,2.93-4.438,2.116-2.115,4.457-3.207,5.924-3.207.497,0,.894.125,1.147.379,1.001,1.002.004,4.238-2.829,7.071Z"/>
</svg>