<?xml version="1.0" encoding="UTF-8"?>
<svg id="Outline" xmlns="http://www.w3.org/2000/svg" version="1.1" viewBox="0 0 64 64">
  <!-- Generator: Adobe Illustrator 29.3.1, SVG Export Plug-In . SVG Version: 2.1.0 Build 151)  -->
  <path d="M56,40h-14.34998c.45996-.29004.89996-.60999,1.32996-.96002l7.86005-2.08997c3.62994-.97003,6.15997-4.27002,6.15997-8.02002,0-2.35004-1.01001-4.60999-2.76001-6.20001-1.77002-1.56-4.12-2.31-6.45996-2.04999l-1.59003.16998-.40997-2.04999c-.09003-.46002-.5-.79999-.98004-.79999h-14.79999c-.54999,0-1,.45001-1,1s.45001,1,1,1h13.97998l1.42004,7.07996c.25,1.27002.27997,2.58002.06,3.89001-.41003,2.51001-1.72003,4.81-3.67999,6.47003-1.94,1.64996-4.42004,2.56-6.98004,2.56h-7.98999c-1.89001,0-3.71002-.48999-5.33002-1.41003.35004-.53998.67004-1.12.92999-1.76001,1.33002.76001,2.84003,1.17004,4.39001,1.17004h8c4.32001,0,7.98004-3.09003,8.69-7.35004.17999-1.06.16003-2.13-.06-3.19l-.44-2.19c-.06-.31995-.27997-.57996-.58002-.71997-.28998-.13-.63995-.09998-.91998.06l-1.10999.67999c-1.51001.91998-3.53998.87-5.03003-.12-.28998-.20001-.67999-.22998-1-.06l-1.44995.72998c-1.31.65002-2.88.65002-4.19,0l-1.46002-.72998c-.33002-.15997-.71002-.14001-1,.06-1.51001,1-3.47998,1.04999-5.03003.10999l-1.12-.66998c-.27997-.15997-.62-.19-.91998-.04999-.28998.13-.51001.39996-.57001.70996l-.16998.85004c-.34003-.16998-.75-.15002-1.06.08997-.06.05005-.56.45001-1.21002,1.13.02002-.08997.02002-.17999.04004-.26001l1.40997-7.07996h4.38c.54999,0,1-.45001,1-1s-.45001-1-1-1h-5.20001c-.47998,0-.89001.33997-.97998.79999l-1.57001,7.89001c-.16998.82996-.25,1.67999-.25,2.5,0,.35999.02002.69.04999,1.01001-.09998.17999-.20001.37-.27997.56995-2.73999-1.00995-5.65002-.67999-5.79004-.65997-.45996.04999-.82001.40997-.87.87-.02997.22998-.64001,5.57001,2.40002,8.60999.15997.15002.33002.28003.48999.41003h-2c-.54999,0-1,.45001-1,1,0,2.76001,2.23999,5,5,5h40c2.76001,0,5-2.23999,5-5,0-.54999-.45001-1-1-1ZM46.70001,33.91998l3.10999-.83002c1.88-.51001,3.19-2.21997,3.19-4.15997,0-1.23999-.51001-2.38-1.44-3.22003-.92999-.82996-2.12-1.20996-3.34003-1.06l-1.23999.13-.38995-1.95996,1.40997-.16003c1.78003-.19,3.57001.38,4.90002,1.56,1.32996,1.21002,2.09998,2.92004,2.09998,4.71002,0,2.84998-1.91998,5.34998-4.67999,6.08002l-4.88,1.31c.5-.76001.91998-1.56,1.26001-2.40002ZM47.37,26.75l1.07001-.12c.66998-.07001,1.28998.13,1.78998.57001.5.45996.77002,1.04999.77002,1.72998,0,1.03998-.70001,1.95001-1.71002,2.21997l-1.92999.52002c.02002-.13.06-.25.08002-.38.23999-1.52002.21997-3.04999-.07001-4.53998ZM20.28998,27.04999c2.02002,1.16998,4.52002,1.19,6.55005.09003l.96997.47998c1.88.94,4.10999.94,5.98999,0l.96002-.47998c2.01001,1.09998,4.58002,1.06995,6.54999-.08002l.15997.79999c.17004.82001.18005,1.64001.04004,2.46002-.54999,3.28998-3.37,5.67999-6.71002,5.67999h-8c-1.39996,0-2.71997-.42999-3.84998-1.21002.02997-.26001.04999-.52002.04999-.78998,0-2.63-1.57001-4.90002-2.83002-6.29999l.12-.65002ZM18,28.33997c1.03003.98999,3,3.20001,3,5.66003s-1.96997,4.66998-3,5.65997c-1.03003-.98999-3-3.20001-3-5.65997s1.96997-4.67004,3-5.66003ZM9.04999,32.04999c.96002-.02002,2.59003.04999,4.09003.62-.08002.42999-.14001.87-.14001,1.33002,0,2.45001,1.35999,4.58997,2.57001,6-1.5-.14001-3.38-.57001-4.64001-1.83002-1.73999-1.73999-1.90997-4.69-1.88-6.12ZM52,44H12c-1.29999,0-2.41998-.84003-2.83002-2h45.66003c-.41003,1.15997-1.53003,2-2.83002,2Z"/>
  <circle cx="26" cy="19" r="1"/>
</svg>