<?xml version="1.0" encoding="UTF-8"?>
<svg id="Outline" xmlns="http://www.w3.org/2000/svg" version="1.1" viewBox="0 0 64 64">
  <!-- Generator: Adobe Illustrator 29.5.1, SVG Export Plug-In . SVG Version: 2.1.0 Build 141)  -->
  <path d="M56,40h-10.11c1.86-.82,3.21-1.89,4.06-3.22,4.11-.9,7.05-4.51,7.05-8.78,0-4.96-4.04-9-9-9-1.96,0-3.85.64-5.41,1.81-1.46-.85-3.03-1.54-4.61-2.02-.12-2.66-2.3-4.79-4.98-4.79s-4.86,2.13-4.98,4.79c-1.81.55-3.59,1.37-5.23,2.4-.15.03-.28.09-.41.18-.06.05-.1.12-.14.18-1.66,1.11-3.15,2.45-4.34,3.94l-1.19-1.2c-.19-.18-.44-.29-.71-.29h-6c-.4,0-.77.24-.92.62-.16.37-.07.8.21,1.09l5.82,5.81c-.03.19-.04.37-.06.55-2.78-1.65-6.72-.91-6.91-.87-.4.08-.71.39-.79.79-.04.21-1,5.28,1.69,7.97.01.01.03.03.05.04h-1.09c-.55,0-1,.45-1,1v4c0,.55.45,1,1,1h1v3c0,.55.45,1,1,1h43c.55,0,1-.45,1-1v-3h2c.55,0,1-.45,1-1v-4c0-.55-.45-1-1-1ZM47.73,25.04c.09-.01.18-.04.27-.04,1.65,0,3,1.35,3,3,0,.63-.2,1.22-.55,1.71-.55-1.67-1.5-3.25-2.72-4.67ZM48,21c3.86,0,7,3.14,7,7,0,2.83-1.66,5.29-4.14,6.39.08-.44.14-.9.14-1.39,0-.33-.02-.65-.05-.97,1.28-.93,2.05-2.42,2.05-4.03,0-2.76-2.24-5-5-5-.66,0-1.29.13-1.89.38-.54-.49-1.11-.95-1.7-1.39,1.08-.64,2.32-.99,3.59-.99ZM33,16c1.4,0,2.58.97,2.9,2.28-.98-.18-1.95-.28-2.9-.28s-1.92.1-2.9.28c.32-1.31,1.5-2.28,2.9-2.28ZM33,20c2.75,0,5.79.94,8.48,2.49l-1.97,2.51h-13.02l-1.97-2.51c2.69-1.55,5.73-2.49,8.48-2.49ZM22.84,23.58l2.37,3.04c.19.24.48.38.79.38h14c.31,0,.6-.14.79-.38l2.37-3.04c3.36,2.42,5.84,5.81,5.84,9.42,0,5.79-8.7,7-16,7-2.8,0-5.26-.18-7.36-.52,2.02-2.78,1.2-7.14,1.16-7.34-.08-.4-.39-.71-.79-.79-.21-.04-5.28-1-7.97,1.69-.36.36-.65.76-.89,1.19-.09-.39-.15-.79-.15-1.23,0-3.61,2.48-7,5.84-9.42ZM22.99,35.16c-.39-.39-1.02-.39-1.41,0l-3.43,3.42c.01-1.36.25-3.07,1.3-4.13,1.46-1.45,4.2-1.37,5.48-1.23.14,1.28.22,4.02-1.23,5.48-.2.19-.42.35-.65.5-.02.01-.05.02-.07.03-1.02.6-2.33.76-3.41.77l3.42-3.42c.39-.4.39-1.03,0-1.42ZM12.41,26h3.18l1.15,1.15c-.42.69-.77,1.4-1.04,2.13l-3.29-3.28ZM9.22,33.07c1.28-.14,4.02-.22,5.48,1.23.27.28.48.61.65.96.07.21.17.42.27.62.28.84.37,1.75.38,2.55l-3.42-3.42c-.4-.39-1.03-.39-1.42,0s-.39,1.02,0,1.41l3.42,3.43c-1.36-.01-3.07-.25-4.13-1.3-1.45-1.46-1.37-4.2-1.23-5.48ZM55,44h-5c-.55,0-1,.45-1,1s.45,1,1,1h2v2H11v-2h31c.55,0,1-.45,1-1s-.45-1-1-1H9v-2h46v2Z"/>
  <circle cx="46" cy="45" r="1"/>
</svg>