<?xml version="1.0" encoding="UTF-8"?>
<svg id="Outline" xmlns="http://www.w3.org/2000/svg" version="1.1" viewBox="0 0 64 64">
  <!-- Generator: Adobe Illustrator 29.3.1, SVG Export Plug-In . SVG Version: 2.1.0 Build 151)  -->
  <path d="M54,45h-9.70001c2.58002-1.81,4.35004-4.69,4.65002-8h3.32001c1.47998,0,2.76001-1.10999,2.96997-2.58002l1.41998-10c.13-.85999-.12994-1.72998-.69995-2.39001-.57001-.64996-1.40002-1.02997-2.27002-1.02997h-4.69v-1c0-1.65002-1.34998-3-3-3h-3.70001c2.84003-1.98999,4.70001-5.28003,4.70001-9,0-.54999-.45001-1-1-1h-4c-4.44,0-8.26001,2.64996-10,6.44-1.73999-3.79004-5.56-6.44-10-6.44h-4c-.54999,0-1,.45001-1,1,0,3.71997,1.85999,7.01001,4.70001,9h-3.70001c-1.65002,0-3,1.34998-3,3v16c0,3.71997,1.85999,7.01001,4.70001,9h-9.70001c-1.65002,0-3,1.34998-3,3v2c0,1.42999,1,2.62,2.34003,2.91998l1.20996,2.41998c.51001,1.02002,1.54004,1.66003,2.69,1.66003h37.52002c1.14996,0,2.17999-.64001,2.69-1.66003l1.20996-2.41998c1.34003-.29999,2.34003-1.48999,2.34003-2.91998v-2c0-1.65002-1.34998-3-3-3ZM49,23h4.69c.29999,0,.57001.12.76001.33997.19.23004.27997.51001.22998.80005l-1.42999,10c-.06.48999-.48999.85999-.97998.85999h-3.27002v-12ZM42,9h2.94c-.48999,4.48999-4.32001,8-8.94,8h-2.94c.48999-4.48999,4.32001-8,8.94-8ZM19.06,9h2.94c4.62,0,8.45001,3.51001,8.94,8h-2.94c-4.62,0-8.45001-3.51001-8.94-8ZM17,36v-16c0-.54999.45001-1,1-1h28c.54999,0,1,.45001,1,1v16c0,4.95996-4.03998,9-9,9h-12c-4.96002,0-9-4.04004-9-9ZM51.65997,54.45001c-.16998.33997-.50995.54999-.89996.54999H13.23999c-.39001,0-.72998-.21002-.89996-.54999l-.72003-1.45001h40.76001l-.72003,1.45001ZM55,50c0,.54999-.45001,1-1,1H10c-.54999,0-1-.45001-1-1v-2c0-.54999.45001-1,1-1h44c.54999,0,1,.45001,1,1v2Z"/>
  <path d="M45,36v-14c0-.55273-.44727-1-1-1h-24c-.55273,0-1,.44727-1,1v14c0,3.85938,3.14062,7,7,7h12c3.85938,0,7-3.14062,7-7ZM29,27.20215l2,1.33301v4.46484h-4v-4.46484l2-1.33301ZM21,36v-13h7v2.46484l-2.55469,1.70312c-.27832.18555-.44531.49805-.44531.83203v6c0,.55273.44727,1,1,1h6c.55273,0,1-.44727,1-1v-6c0-.33398-.16699-.64648-.44531-.83203l-2.55469-1.70312v-2.46484h13v13c0,2.75684-2.24316,5-5,5h-12c-2.75684,0-5-2.24316-5-5Z"/>
</svg>