<?xml version="1.0" encoding="UTF-8"?>
<svg id="Outline" xmlns="http://www.w3.org/2000/svg" version="1.1" viewBox="0 0 64 64">
  <!-- Generator: Adobe Illustrator 29.5.1, SVG Export Plug-In . SVG Version: 2.1.0 Build 141)  -->
  <path d="M25,23.095c.55225,0,1-.44775,1-1v-2c0-.55225-.44775-1-1-1s-1,.44775-1,1v2c0,.55225.44775,1,1,1Z"/>
  <path d="M39,23.095c.55225,0,1-.44775,1-1v-2c0-.55225-.44775-1-1-1s-1,.44775-1,1v2c0,.55225.44775,1,1,1Z"/>
  <path d="M52.26001,36.035l-6.47998-4.86005c1.39996-2.07996,2.21997-4.48999,2.21997-7.07996,0-1.77002-.39001-3.47003-1.09003-5.03003.08002-.07001.16003-.14001.24005-.20996,2.71997-2.73004,2.71997-7.17004,0-9.91003-2.74005-2.71997-7.18005-2.71997-9.91003,0-.46997.47998-.87,1.02002-1.19,1.62-1.29999-.29999-2.64996-.46997-4.04999-.46997s-2.75.16998-4.04999.46997c-.32001-.59998-.72003-1.14001-1.19-1.62-2.72998-2.71997-7.16998-2.71997-9.91003,0-2.71997,2.73999-2.71997,7.17999,0,9.91003.08002.06995.16003.13995.24005.20996-.70001,1.56-1.09003,3.26001-1.09003,5.03003,0,2.58997.82001,5,2.21997,7.07996l-6.47998,4.86005c-2.96997,2.22998-4.73999,5.77997-4.73999,9.48999,0,1.96997,1.17999,3.71997,3.01001,4.45001.58997.23999,1.20001.34998,1.79999.34998,1.41998,0,2.78998-.64001,3.72998-1.79999l.69-.87c.08002.35999.17999.71997.28003,1.08002-1.53003,1.27997-2.51001,3.20996-2.51001,5.35999,0,1.64996,1.34998,3,3,3h10c1.29999,0,2.40002-.84003,2.82001-2h4.35999c.41998,1.15997,1.52002,2,2.82001,2h10c1.65002,0,3-1.35004,3-3,0-2.15002-.97998-4.08002-2.51001-5.35999.10004-.36005.20001-.72003.28003-1.08002l.69.87c.94,1.15997,2.31,1.79999,3.72998,1.79999.59998,0,1.21002-.10999,1.79999-.34998,1.83002-.73004,3.01001-2.48004,3.01001-4.45001,0-3.71002-1.77002-7.26001-4.73999-9.48999ZM38.65997,10.36496c1.94-1.94995,5.12006-1.94995,7.07001,0,1.88,1.88,1.92999,4.89001.19,6.85004-1.76996-2.72998-4.54999-4.88-7.88995-6.08002.17999-.27997.38995-.53998.62994-.77002ZM18.27002,10.36496c1.94995-1.94995,5.13-1.94995,7.07001,0,.23999.23004.44995.49005.62994.77002-3.33997,1.20001-6.12,3.35004-7.88995,6.08002-1.73999-1.96002-1.69-4.97003.19-6.85004ZM18,24.095c0-6.62,6.28003-12,14-12s14,5.38,14,12c0,3.94-2.22998,7.41998-5.65997,9.60999.41998-.79999.65997-1.69.65997-2.60999,0-3.85999-4.03998-7-9-7s-9,3.14001-9,7c0,.91998.23999,1.81.65997,2.60999-3.42999-2.19-5.65997-5.66998-5.65997-9.60999ZM33,33.99496c1.73999-.32996,3-1.47998,3-2.89996,0-1.67999-1.76001-3-4-3s-4,1.32001-4,3c0,1.41998,1.26001,2.57001,3,2.89996v2.04004c-3.39001-.35004-6-2.42999-6-4.94,0-2.76001,3.14001-5,7-5s7,2.23999,7,5c0,2.51001-2.60999,4.58997-6,4.94v-2.04004ZM32,32.095c-1.21997,0-2-.59003-2-1,0-.41003.78003-1,2-1s2,.58997,2,1c0,.40997-.78003,1-2,1ZM15.81,44.98502l-1.83002,2.28998c-.77997.96997-2.07001,1.31-3.21997.84998-1.07001-.42999-1.76001-1.45001-1.76001-2.59998,0-3.09003,1.46997-6.03998,3.94-7.89001l5.40002-4.03998c-2.02002,3.47998-2.88,7.45996-2.53003,11.39001ZM27,55.095h-10c-.54999,0-1-.45001-1-1,0-2.76001,2.23999-5,5-5h2c2.76001,0,5,2.23999,5,5,0,.54999-.45001,1-1,1ZM34.08002,53.095h-4.16003c-.48999-3.39001-3.39996-6-6.91998-6h-2c-.96002,0-1.87.19-2.70001.53998-1.15997-4.48999-.5-9.26001,1.90002-13.27002l.32001-.53998c2.69995,2.44,6.38995,4.01001,10.5,4.22998.32001.02002.64996.04004.97998.04004s.65997-.02002.97998-.04004c4.11005-.21997,7.80005-1.78998,10.5-4.22998l.32001.53998c2.40002,4.01001,3.06,8.78003,1.90002,13.27002-.83002-.34998-1.73999-.53998-2.70001-.53998h-2c-3.52002,0-6.42999,2.60999-6.91998,6ZM48,54.095c0,.54999-.45001,1-1,1h-10c-.54999,0-1-.45001-1-1,0-2.76001,2.23999-5,5-5h2c2.76001,0,5,2.23999,5,5ZM53.23999,48.12497c-1.14996.46002-2.44.12-3.21997-.84998l-1.83002-2.28998c.34998-3.93005-.51001-7.91003-2.53003-11.39001l5.40002,4.03998c2.47003,1.85004,3.94,4.79999,3.94,7.89001,0,1.14996-.69,2.16998-1.76001,2.59998Z"/>
</svg>