<?xml version="1.0" encoding="UTF-8"?>
<svg id="Outline" xmlns="http://www.w3.org/2000/svg" version="1.1" viewBox="0 0 64 64">
  <!-- Generator: Adobe Illustrator 29.5.1, SVG Export Plug-In . SVG Version: 2.1.0 Build 141)  -->
  <path d="M15,47c-.552,0-1,.447-1,1s.448,1,1,1c1.654,0,3-1.346,3-3s-1.346-3-3-3c-.552,0-1,.447-1,1s.448,1,1,1,1,.448,1,1-.449,1-1,1Z"/>
  <path d="M22,49c-.552,0-1,.447-1,1s.448,1,1,1c1.654,0,3-1.346,3-3s-1.346-3-3-3c-.552,0-1,.447-1,1s.448,1,1,1,1,.448,1,1-.449,1-1,1Z"/>
  <path d="M29,46c-.552,0-1,.447-1,1s.448,1,1,1c1.654,0,3-1.346,3-3s-1.346-3-3-3c-.552,0-1,.447-1,1s.448,1,1,1,1,.448,1,1-.449,1-1,1Z"/>
  <path d="M45.923,31.615c-.115-.275-.347-.485-.633-.572-.286-.088-.596-.04-.845.125l-8.256,5.501c-.632-.421-1.384-.669-2.189-.669-1.215,0-2.35.567-3.099,1.489-1.377-.754-3.191-.582-4.401.395-.354-.285-.754-.507-1.179-.651-.522-.177-1.09.104-1.268.627-.177.522.104,1.091.626,1.268.392.133.743.408.989.777.185.278.498.445.832.445s.646-.167.832-.445c.378-.566,1.001-.904,1.668-.904.548,0,1.077.235,1.452.645.235.257.586.375.928.307.342-.066.624-.305.746-.631.3-.802,1.036-1.32,1.874-1.32,1.038,0,1.909.821,1.982,1.87.027.384.272.718.629.859.358.141.766.066,1.047-.195.372-.345.848-.534,1.341-.534,1.103,0,2,.897,2,2,0,1.038-.822,1.909-1.871,1.983-.383.026-.718.271-.859.629-.142.357-.065.765.196,1.047.344.372.534.849.534,1.341,0,1.325-1.32,2.382-2.668,1.873-.306-.112-.651-.072-.921.114-.27.187-.431.494-.431.822,0,.078.009.163.02.19,0,1.103-.897,2-2,2-.548,0-1.077-.235-1.452-.645-.235-.257-.588-.375-.928-.307-.342.066-.624.305-.746.631-.3.802-1.036,1.32-1.874,1.32-.548,0-1.077-.235-1.452-.645-.236-.257-.587-.375-.928-.307-.342.066-.624.305-.746.631-.3.802-1.036,1.32-1.874,1.32-.667,0-1.29-.338-1.668-.904-.371-.557-1.293-.557-1.664,0-.378.566-1.001.904-1.668.904-1.038,0-1.909-.821-1.982-1.87-.027-.384-.272-.718-.629-.859-.358-.141-.765-.065-1.047.195-.372.345-.848.534-1.341.534-1.103,0-2-.897-2-2,0-.254.049-.498.149-.749.106-.266.093-.564-.035-.82s-.36-.444-.637-.518c-.869-.23-1.477-1.018-1.477-1.913,0-1.103.897-2,1.946-2.001.049.007.194.021.244.021.687,0,1.181-.704.936-1.353-.085-.225-.126-.443-.126-.667,0-1.103.897-2,2-2,.548,0,1.077.235,1.452.645.235.257.587.375.928.307.342-.066.624-.305.746-.631.3-.802,1.036-1.32,1.874-1.32.493,0,.962.183,1.321.515.406.374,1.039.351,1.413-.056.375-.405.351-1.037-.055-1.413-.729-.675-1.681-1.046-2.679-1.046-1.215,0-2.35.567-3.099,1.489-.579-.317-1.233-.489-1.901-.489-2.206,0-4,1.794-4,4,0,.042,0,.084.002.126-1.724.444-3.002,2.013-3.002,3.874,0,1.461.802,2.778,2.036,3.471-.024.176-.036.353-.036.529,0,2.206,1.794,4,4,4,.487,0,.966-.091,1.414-.263.651,1.342,2.024,2.263,3.586,2.263.92,0,1.798-.318,2.5-.884.702.565,1.58.884,2.5.884,1.215,0,2.35-.567,3.099-1.489.579.317,1.233.489,1.901.489,1.215,0,2.35-.567,3.099-1.489.579.317,1.233.489,1.901.489,1.861,0,3.43-1.277,3.874-3.002,2.251.066,4.126-1.75,4.126-3.998,0-.369-.068-.729-.168-1.078l9.268-.927c.315-.031.597-.211.759-.482.162-.272.186-.604.064-.897l-5-12ZM42.59,43.736c.26-.528.41-1.116.41-1.736,0-2.206-1.794-4-4-4-.487,0-.966.091-1.414.263-.015-.03-.035-.058-.05-.088l7.008-4.669,4.014,9.634-5.968.596Z"/>
  <path d="M28,26c-.552,0-1,.447-1,1s.448,1,1,1c1.654,0,3-1.346,3-3s-1.346-3-3-3c-.552,0-1,.447-1,1s.448,1,1,1,1,.448,1,1-.449,1-1,1Z"/>
  <path d="M35,23c-.552,0-1,.447-1,1s.448,1,1,1c1.654,0,3-1.346,3-3s-1.346-3-3-3c-.552,0-1,.447-1,1s.448,1,1,1,1,.448,1,1-.449,1-1,1Z"/>
  <path d="M56.923,20.615l-5-12c-.115-.275-.347-.485-.633-.572-.287-.088-.596-.04-.845.125l-8.256,5.501c-.632-.421-1.384-.669-2.189-.669-1.215,0-2.35.567-3.099,1.489-1.377-.755-3.19-.583-4.401.395-1.412-1.137-3.619-1.129-5.022.018-.409-.222-.931-.134-1.243.234-.356.422-.302,1.053.12,1.409.108.092.217.216.313.359.371.558,1.292.556,1.664,0,.378-.566,1.001-.904,1.668-.904s1.29.338,1.668.904c.371.557,1.293.557,1.664,0,.378-.566,1.001-.904,1.668-.904.548,0,1.077.235,1.452.645.235.257.586.373.928.307.342-.066.624-.305.746-.631.3-.802,1.036-1.32,1.874-1.32,1.038,0,1.909.821,1.982,1.87.027.384.272.718.629.859.357.14.765.065,1.047-.195.372-.345.848-.534,1.341-.534,1.103,0,2,.897,2,2,0,1.038-.822,1.909-1.871,1.983-.383.026-.718.271-.859.629-.142.357-.065.765.196,1.047.344.372.534.849.534,1.341,0,1.325-1.322,2.382-2.668,1.873-.614-.232-1.352.232-1.352.936,0,.078.009.163.02.19,0,1.103-.897,2-2,2-.548,0-1.077-.235-1.452-.645-.235-.257-.589-.377-.928-.307-.342.066-.624.305-.746.631-.3.802-1.036,1.32-1.874,1.32-.548,0-1.077-.235-1.452-.645-.235-.257-.587-.376-.928-.307-.342.066-.624.305-.746.631-.3.802-1.036,1.32-1.874,1.32-.667,0-1.29-.338-1.668-.904-.371-.557-1.293-.557-1.664,0-.378.566-1.001.904-1.668.904-1.038,0-1.909-.821-1.982-1.87-.027-.384-.272-.718-.629-.859-.357-.141-.765-.065-1.047.195-.372.345-.848.534-1.341.534-1.103,0-2-.897-2-2,0-.254.049-.498.149-.749.106-.266.093-.564-.035-.82s-.36-.444-.637-.518c-.869-.23-1.477-1.018-1.477-1.913,0-1.103.897-2,1.946-2.001.049.007.194.021.244.021.691,0,1.179-.704.936-1.353-.085-.225-.126-.443-.126-.667,0-1.103.897-2,2-2,.548,0,1.077.235,1.452.645.235.259.587.375.93.307.342-.067.625-.308.746-.635.112-.305.298-.577.536-.788.413-.366.451-.999.084-1.412s-.999-.451-1.412-.084c-.158.14-.304.293-.437.456-.579-.316-1.231-.488-1.899-.488-2.206,0-4,1.794-4,4,0,.042,0,.084.002.126-1.724.444-3.002,2.013-3.002,3.874,0,1.461.802,2.778,2.036,3.471-.024.176-.036.353-.036.529,0,2.206,1.794,4,4,4,.487,0,.966-.091,1.414-.263.651,1.342,2.024,2.263,3.586,2.263.92,0,1.798-.318,2.5-.884.702.565,1.58.884,2.5.884,1.215,0,2.35-.567,3.099-1.489.579.317,1.233.489,1.901.489,1.215,0,2.35-.567,3.099-1.489.579.317,1.233.489,1.901.489,1.861,0,3.43-1.277,3.874-3.002,2.262.067,4.126-1.75,4.126-3.998,0-.369-.068-.729-.168-1.078l9.268-.927c.315-.031.597-.211.759-.482.162-.272.186-.604.064-.897ZM48.59,20.736c.26-.528.41-1.116.41-1.736,0-2.206-1.794-4-4-4-.487,0-.966.091-1.414.263-.015-.03-.035-.058-.05-.088l7.008-4.669,4.014,9.634-5.968.596Z"/>
</svg>