<?xml version="1.0" encoding="UTF-8"?>
<svg id="Outline" xmlns="http://www.w3.org/2000/svg" version="1.1" viewBox="0 0 64 64">
  <!-- Generator: Adobe Illustrator 29.5.1, SVG Export Plug-In . SVG Version: 2.1.0 Build 141)  -->
  <path d="M56,55h-2.23c-1.75-6.19-2.13-12.79-1.07-19.13l.06-.38,1.44.4c.08.02.17.04.26.04.17,0,.34-.05.5-.13.23-.13.4-.35.47-.61l1.07-3.85c.15-.53-.16-1.08-.7-1.23l-1.65-.46c-7.75-2.16-14.62-6.52-19.88-12.61l-1.51-1.76c-.38-.44-1.14-.44-1.52,0l-1.51,1.76c-5.26,6.09-12.13,10.45-19.88,12.61l-1.65.46c-.54.15-.85.7-.7,1.23l1.07,3.85c.07.26.24.48.47.61.23.13.51.16.76.09l1.44-.4.06.38c1.06,6.34.68,12.94-1.07,19.13h-2.23c-.55,0-1,.45-1,1s.45,1,1,1h48c.55,0,1-.45,1-1s-.45-1-1-1ZM10.92,33.5l-.69.2-.53-1.93.68-.19c8.14-2.27,15.35-6.84,20.86-13.23l.76-.88.76.88c5.51,6.39,12.72,10.96,20.86,13.23l.68.19-.53,1.93-.69-.2c-7.77-2.16-14.81-6.38-20.36-12.21-.37-.4-1.07-.4-1.44,0-5.55,5.83-12.59,10.05-20.36,12.21ZM12.3,55c1.7-6.32,2.05-13.01.97-19.46l-.1-.65c6.65-2.13,12.73-5.72,17.8-10.51-.33,11.39-4.7,22.2-12.42,30.62h-6.25ZM21.22,55c5.45-6.4,9.13-14,10.78-22.13,1.65,8.13,5.33,15.73,10.78,22.13h-21.56ZM43.7,52.99c-5.24-6.4-8.68-13.99-10.04-22.08,2.72,6.48,6.79,12.34,11.94,17.16-1.12,1.42-1.78,3.14-1.9,4.92ZM45.82,55l-.01-.04c-.45-2.27.26-4.61,1.9-6.25.19-.2.3-.46.29-.74-.01-.27-.13-.53-.33-.71-6.41-5.77-11.16-13.17-13.73-21.4l-.27-.88c4.93,4.49,10.79,7.87,17.16,9.91l-.1.65c-1.08,6.45-.73,13.14.97,19.46h-5.88Z"/>
  <path d="M11,19h10c2.206,0,4-1.794,4-4,0-1.005-.388-1.974-1.076-2.714-.346-1.871-2-3.286-3.924-3.286-.177,0-.354.012-.529.036-.692-1.234-2.009-2.036-3.471-2.036-1.444,0-2.759.791-3.462,2.026-1.401.161-2.6,1.044-3.174,2.337-1.433.637-2.364,2.041-2.364,3.636,0,2.206,1.794,4,4,4ZM10.428,13.098c.322-.097.573-.348.67-.67.255-.85,1.014-1.422,1.901-1.422h.013c.481.083.951-.195,1.112-.655.283-.808,1.037-1.351,1.876-1.351.896,0,1.683.607,1.914,1.477.073.276.262.508.517.637.256.128.554.142.82.035,1.261-.504,2.624.405,2.733,1.695.021.256.141.494.333.664.441.391.684.921.684,1.492,0,1.103-.897,2-2,2h-10c-1.103,0-2-.897-2-2,0-.881.574-1.646,1.428-1.902Z"/>
  <path d="M43,19h10c2.206,0,4-1.794,4-4,0-1.595-.931-2.999-2.363-3.636-.575-1.293-1.774-2.177-3.175-2.337-.703-1.235-2.018-2.026-3.462-2.026-1.461,0-2.778.802-3.47,2.036-2.082-.283-4.075,1.206-4.454,3.25-.688.739-1.076,1.709-1.076,2.714,0,2.206,1.794,4,4,4ZM41.684,13.508c.192-.17.312-.408.333-.664.087-1.034.958-1.844,1.983-1.844.254,0,.499.049.749.148.266.105.564.093.82-.035.256-.128.444-.36.518-.637.231-.869,1.018-1.477,1.914-1.477.839,0,1.593.543,1.876,1.351.161.458.646.727,1.124.649.881,0,1.646.574,1.902,1.428.097.322.348.573.669.67.854.257,1.428,1.021,1.428,1.902,0,1.103-.897,2-2,2h-10c-1.103,0-2-.897-2-2,0-.571.243-1.101.684-1.492Z"/>
</svg>