<?xml version="1.0" encoding="UTF-8"?>
<svg id="Outline" xmlns="http://www.w3.org/2000/svg" version="1.1" viewBox="0 0 64 64">
  <!-- Generator: Adobe Illustrator 29.5.1, SVG Export Plug-In . SVG Version: 2.1.0 Build 141)  -->
  <path d="M51,17h-2.18c.11-.31.18-.65.18-1,0-1.51-1.13-2.75-2.58-2.96.36-.6.58-1.29.58-2.04,0-2.21-1.79-4-4-4h-22c-2.21,0-4,1.79-4,4,0,.75.22,1.44.58,2.04-1.45.21-2.58,1.45-2.58,2.96,0,.35.07.69.18,1h-2.18c-.55,0-1,.45-1,1v6c0,.55.45,1,1,1h1.1l2.72,25.32c.16,1.53,1.44,2.68,2.98,2.68h.38c-.11.31-.18.65-.18,1,0,1.65,1.35,3,3,3s3-1.35,3-3c0-.35-.07-.69-.18-1h12.36c-.11.31-.18.65-.18,1,0,1.65,1.35,3,3,3s3-1.35,3-3c0-.35-.07-.69-.18-1h.38c1.54,0,2.82-1.15,2.98-2.68l2.72-25.32h1.1c.55,0,1-.45,1-1v-6c0-.55-.45-1-1-1ZM21,9h22c1.1,0,2,.9,2,2s-.9,2-2,2h-22c-1.1,0-2-.9-2-2s.9-2,2-2ZM18,15h28c.55,0,1,.45,1,1s-.45,1-1,1h-28c-.55,0-1-.45-1-1s.45-1,1-1ZM43.59,19l-4.3,4.29-1.02,1.02-2.65-5.31h7.97ZM23,55c-.55,0-1-.45-1-1s.45-1,1-1,1,.45,1,1-.45,1-1,1ZM41,55c-.55,0-1-.45-1-1s.45-1,1-1,1,.45,1,1-.45,1-1,1ZM45.2,50.1c-.06.51-.49.9-1,.9h-24.4c-.51,0-.94-.39-1-.9l-2.69-25.1h4.89c.55,0,1-.45,1-1s-.45-1-1-1h-7v-4h19.38l2,4h-6.38c-.55,0-1,.45-1,1s.45,1,1,1h7.38l.73,1.45c.14.28.41.49.73.54.05.01.11.01.16.01.26,0,.52-.1.71-.29l1.7-1.71h7.48l-2.69,25.1ZM50,23h-7.59l4-4h3.59v4Z"/>
  <path d="M32,27c-6.065,0-11,4.935-11,11s4.935,11,11,11,11-4.935,11-11-4.935-11-11-11ZM32,47c-4.963,0-9-4.037-9-9s4.037-9,9-9,9,4.037,9,9-4.037,9-9,9Z"/>
  <path d="M32,33c-2.757,0-5,2.243-5,5s2.243,5,5,5,5-2.243,5-5-2.243-5-5-5ZM32,41c-1.654,0-3-1.346-3-3s1.346-3,3-3,3,1.346,3,3-1.346,3-3,3Z"/>
  <circle cx="25" cy="24" r="1"/>
</svg>