<?xml version="1.0" encoding="UTF-8"?>
<svg id="Outline" xmlns="http://www.w3.org/2000/svg" version="1.1" viewBox="0 0 64 64">
  <!-- Generator: Adobe Illustrator 29.3.1, SVG Export Plug-In . SVG Version: 2.1.0 Build 151)  -->
  <path d="M43,29h-3v-9c0-.04999-.02002-.09003-.03003-.14001,0-.03003.01001-.07001,0-.09998l-2.62-10.49005c-.33997-1.33997-1.52997-2.26996-2.90997-2.26996h-12.88c-1.38,0-2.57001.92999-2.90997,2.26996l-2.62,10.49005c-.01001.02997,0,.06995,0,.09998-.01001.04999-.03003.09003-.03003.14001v34c0,1.64996,1.34998,3,3,3h18c1.65002,0,3-1.35004,3-3v-3h3c2.76001,0,5-2.23999,5-5v-12c0-2.76001-2.23999-5-5-5ZM20.59003,9.76001c.10999-.45001.50995-.76001.96997-.76001h12.88c.46002,0,.85999.31.96997.76001l2.31,9.23999h-19.43994l2.31-9.23999ZM38,54c0,.54999-.45001,1-1,1h-18c-.54999,0-1-.45001-1-1v-25h20v25ZM38,27h-20v-2h20v2ZM38,23h-20v-2h20v2ZM40,35h2v10h-2v-10ZM46,46c0,1.64996-1.34998,3-3,3h-3v-2h3c.54999,0,1-.45001,1-1v-12c0-.54999-.45001-1-1-1h-3v-2h3c1.65002,0,3,1.34998,3,3v12Z"/>
  <path d="M24,31c-2.20557,0-4,1.79395-4,4v14c0,2.20605,1.79443,4,4,4s4-1.79395,4-4v-14c0-2.20605-1.79443-4-4-4ZM26,49c0,1.10254-.89697,2-2,2s-2-.89746-2-2v-14c0-1.10254.89697-2,2-2s2,.89746,2,2v14Z"/>
</svg>