<?xml version="1.0" encoding="UTF-8"?>
<svg id="Outline" xmlns="http://www.w3.org/2000/svg" version="1.1" viewBox="0 0 64 64">
  <!-- Generator: Adobe Illustrator 29.5.1, SVG Export Plug-In . SVG Version: 2.1.0 Build 141)  -->
  <path d="M40.628,22.071l-4.311,1.725-3.537-4.42c-.379-.475-1.183-.475-1.562,0l-3.537,4.42-4.311-1.725c-.354-.141-.758-.069-1.042.187s-.396.65-.292,1.017l1.961,6.865v3.86c0,.552.448,1,1,1h14c.552,0,1-.448,1-1v-3.86l1.961-6.865c.105-.367-.008-.762-.292-1.017s-.686-.327-1.042-.187ZM27.628,25.929c.411.163.877.04,1.152-.304l3.219-4.024,3.219,4.024c.275.344.742.467,1.152.304l3.107-1.243-1.233,4.314h-12.491l-1.233-4.314,3.107,1.243ZM38,33h-12v-2h12v2Z"/>
  <path d="M17,38c0-1.654-1.346-3-3-3s-3,1.346-3,3,1.346,3,3,3,3-1.346,3-3ZM13,38c0-.551.449-1,1-1s1,.449,1,1-.449,1-1,1-1-.449-1-1Z"/>
  <path d="M50,35c-1.654,0-3,1.346-3,3s1.346,3,3,3,3-1.346,3-3-1.346-3-3-3ZM50,39c-.551,0-1-.449-1-1s.449-1,1-1,1,.449,1,1-.449,1-1,1Z"/>
  <path d="M50,31c-.34,0-.67.03-1,.08v-9.08c0-.55-.45-1-1-1s-1,.45-1,1v9.68c-.75.36-1.43.84-2,1.43v-17.05c0-.38-.21-.72-.55-.89-1.56-.78-2.84-2.06-3.62-3.62-.17-.34-.51-.55-.89-.55h-15.88c-.38,0-.72.21-.89.55-.78,1.56-2.06,2.84-3.62,3.62-.34.17-.55.51-.55.89v17.05c-.57-.59-1.25-1.07-2-1.43V13.92c2.51-.43,4.49-2.41,4.92-4.92h20.16c.43,2.51,2.41,4.49,4.92,4.92v4.08c0,.55.45,1,1,1s1-.45,1-1v-5c0-.55-.45-1-1-1-2.21,0-4-1.79-4-4,0-.55-.45-1-1-1h-22c-.55,0-1,.45-1,1,0,2.21-1.79,4-4,4-.55,0-1,.45-1,1v18.08c-.33-.05-.66-.08-1-.08-3.86,0-7,3.14-7,7,0,3.52,2.61,6.43,6,6.92v11.08c0,.55.45,1,1,1h6c.55,0,1-.45,1-1v-4h22v4c0,.55.45,1,1,1h6c.55,0,1-.45,1-1v-4c0-.55-.45-1-1-1s-1,.45-1,1v3h-4v-12.11c1.05,1.07,2.44,1.81,4,2.03v3.08c0,.55.45,1,1,1s1-.45,1-1v-3.08c3.39-.49,6-3.4,6-6.92,0-3.86-3.14-7-7-7ZM19,55h-4v-10.08c1.56-.22,2.95-.96,4-2.03v12.11ZM14,43c-2.76,0-5-2.24-5-5s2.24-5,5-5,5,2.24,5,5-2.24,5-5,5ZM43,50h-22v-4h22v4ZM22,44l.6-.8c.56-.75,1.46-1.2,2.4-1.2h14c.94,0,1.84.45,2.4,1.2l.6.8h-20ZM43,42c-.94-1.25-2.43-2-4-2h-14c-1.57,0-3.06.75-4,2v-25.34c1.51-.88,2.78-2.15,3.66-3.66h14.68c.88,1.51,2.15,2.78,3.66,3.66v25.34ZM50,43c-2.76,0-5-2.24-5-5s2.24-5,5-5,5,2.24,5,5-2.24,5-5,5Z"/>
</svg>