<?xml version="1.0" encoding="UTF-8"?>
<svg id="Outline" xmlns="http://www.w3.org/2000/svg" version="1.1" viewBox="0 0 64 64">
  <!-- Generator: Adobe Illustrator 29.5.1, SVG Export Plug-In . SVG Version: 2.1.0 Build 141)  -->
  <path d="M57,31c0-1.43-1.01-2.63-2.35-2.92-1.9-11.5-11.91-20.08-23.65-20.08-13.23,0-24,10.77-24,24,0,5.91,2.17,11.58,6.1,15.99.35.39,1.01.45,1.42.08.41-.37.44-1.01.07-1.42-3.6-4.03-5.59-9.24-5.59-14.65,0-12.13,9.87-22,22-22,10.63,0,19.71,7.67,21.61,18h-2.02c-.59-2.88-1.81-5.62-3.58-7.98-.33-.44-.96-.53-1.4-.2-.44.33-.53.96-.2,1.4,1.51,2.01,2.58,4.34,3.14,6.78h-6.55v-5c0-2.76-2.24-5-5-5-1.1,0-2,.9-2,2v4.59c0,.64-.25,1.25-.71,1.7-.36.36-.81.59-1.3.67-.02-.53-.45-.96-.99-.96H14.05c2.48-6.98,9.13-12,16.95-12,4.36,0,8.56,1.58,11.82,4.44.41.37,1.05.32,1.41-.09.37-.42.32-1.05-.09-1.41-3.63-3.19-8.3-4.94-13.14-4.94-11.03,0-20,8.97-20,20s8.97,20,20,20c5.35,0,10.51-2.19,14.24-6h2.71c-4.15,5.04-10.35,8-16.95,8-4.99,0-9.7-1.63-13.61-4.72-.43-.35-1.06-.27-1.4.16-.35.43-.27,1.06.16,1.4,4.21,3.33,9.48,5.16,14.85,5.16,7.76,0,15.01-3.75,19.52-10.05,1.4-.25,2.48-1.47,2.48-2.95,0-.39-.08-.77-.22-1.12,1.27-.34,2.22-1.5,2.22-2.88,0-.54-.15-1.03-.4-1.47.84-.53,1.4-1.46,1.4-2.53,0-.54-.15-1.03-.4-1.47.84-.53,1.4-1.46,1.4-2.53ZM16.78,43c-2.36-3.05-3.78-6.86-3.78-11,0-1.38.17-2.71.46-4h17.54v15h-14.22ZM31,50c-4.81,0-9.18-1.91-12.42-5h13.42c.55,0,1-.45,1-1h1.81l4.82,1.93c.12.05.24.07.37.07h2.28c-3.18,2.58-7.09,4-11.28,4ZM54,32h-7c-.55,0-1,.45-1,1s.45,1,1,1h6c.55,0,1,.45,1,1s-.45,1-1,1h-6c-.55,0-1,.45-1,1s.45,1,1,1h5c.55,0,1,.45,1,1s-.45,1-1,1h-5c-.55,0-1,.45-1,1s.45,1,1,1h3c.55,0,1,.45,1,1s-.45,1-1,1h-9.81l-4.82-1.93c-.12-.05-.24-.07-.37-.07h-2v-13.02c1.02-.09,1.97-.54,2.71-1.27.83-.84,1.29-1.94,1.29-3.12v-4.59c1.65,0,3,1.35,3,3v6c0,.55.45,1,1,1h13c.55,0,1,.45,1,1s-.45,1-1,1Z"/>
</svg>