<?xml version="1.0" encoding="UTF-8"?>
<svg id="Outline" xmlns="http://www.w3.org/2000/svg" version="1.1" viewBox="0 0 64 64">
  <!-- Generator: Adobe Illustrator 29.5.1, SVG Export Plug-In . SVG Version: 2.1.0 Build 141)  -->
  <path d="M41.08499,36.00472h-9.52997v-3c0-3.31-2.69-6-6-6-.55005,0-1,.45001-1,1v3.76996c0,1.61005-.90002,3.06-2.35004,3.79004-.57996.28998-1.22998.44-1.88995.44h-1.28003c0-.54999-.45001-1-1-1h-10c-.54999,0-1,.45001-1,1s.45001,1,1,1h3v18h-3c-.54999,0-1,.45001-1,1s.45001,1,1,1h10c.54999,0,1-.45001,1-1v-.95001c1.21002.10999,2.40002.38,3.48999.81.03003.02002.10999.06.14001.07001,1.79999.71002,3.66998,1.07001,5.58002,1.07001h.78998c.54999,0,1-.45001,1-1s-.45001-1-1-1h-.78998c-1.65002,0-3.28003-.31-4.76001-.89001-.02002-.02002-.10999-.06-.14001-.07001-1.39001-.54999-2.84003-.89001-4.31-1v-15.03998h1.28003c.96997,0,1.92999-.23004,2.78998-.66003,2.13-1.06,3.45001-3.19995,3.45001-5.57001v-2.63995c1.71997.44,3,2.01001,3,3.87v4c0,.54999.44995,1,1,1h10.52997c.29999,0,.59003.13.78003.37s.26001.53998.20001.83002l-3.16003,15.00995c-.08997.46002-.51001.79004-.97998.79004h-4.89001c-.54999,0-1,.45001-1,1s.45001,1,1,1h4.89001c1.41998,0,2.65997-1,2.94-2.38l3.15997-15c.17999-.89001-.03998-1.81-.60999-2.51001-.57001-.71002-1.41998-1.10999-2.33002-1.10999ZM17.035,55.00472h-4v-18h4v18Z"/>
  <path d="M54.965,18.00472v-8c0-.29004-.13-.57001-.34998-.76001-.22003-.19-.5-.27002-.78003-.22998l-20.06,1.73999c-.44.07001-.81.47998-.81.97998v14.27002c0,.54999.45001,1,1,1h1.42999c.07001-.83002.28003-1.66003.67004-2.45001.25-.48999.84998-.69,1.33997-.44.5.23999.70001.84003.45001,1.34003-.97003,1.92999-.47998,4.25995,1.17999,5.63995l.48999.41003c-.15997-2.13.40002-4.25,1.60004-6.04999.31-.46002.92999-.59003,1.38995-.28003.46002.29999.58002.91998.28003,1.38-.10004.15002-.17999.29999-.27002.45001h11.44c.54999,0,1-.45001,1-1v-4c0-.54999.45001-1,1-1s1,.45001,1,1v4c0,1.64996-1.34998,3-3,3h-12.23999c-.27002,1.07996-.29999,2.20996-.08002,3.33997l.29999,1.46002c.11005.60999-.35999,1.20001-.97998,1.20001-.22998,0-.46002-.08002-.64001-.23004l-2.57001-2.13995c-1.15997-.96002-1.90997-2.25-2.21997-3.63h-1.57001c-1.64996,0-3-1.35004-3-3v-14.27002c0-1.48999,1.08002-2.73999,2.57001-2.96997l20.06-1.74005c.78998-.12,1.66998.13,2.33002.70001.65997.57001,1.03998,1.40002,1.03998,2.28003v8c0,.54999-.45001,1-1,1s-1-.45001-1-1Z"/>
  <path d="M51.96078,13.00472h-16c-.55273,0-1,.44727-1,1s.44727,1,1,1h16c.55273,0,1-.44727,1-1s-.44727-1-1-1Z"/>
  <path d="M51.96078,17.00472h-6c-.55273,0-1,.44727-1,1s.44727,1,1,1h6c.55273,0,1-.44727,1-1s-.44727-1-1-1Z"/>
  <path d="M51.96078,21.00472h-16c-.55273,0-1,.44727-1,1s.44727,1,1,1h16c.55273,0,1-.44727,1-1s-.44727-1-1-1Z"/>
</svg>