<?xml version="1.0" encoding="UTF-8"?>
<svg id="Outline" xmlns="http://www.w3.org/2000/svg" version="1.1" viewBox="0 0 64 64">
  <!-- Generator: Adobe Illustrator 29.5.1, SVG Export Plug-In . SVG Version: 2.1.0 Build 141)  -->
  <path d="M53,36c0-1.65-1.35-3-3-3h-3.43c-1.88-9.32-9.97-16-19.57-16-11.03,0-20,8.97-20,20s8.97,20,20,20c5.35,0,10.51-2.19,14.24-6h4.76c.81,0,1.57-.32,2.11-.87.57-.56.89-1.32.89-2.13,0-.39-.08-.77-.22-1.12,1.27-.34,2.22-1.5,2.22-2.88,0-.54-.15-1.03-.4-1.47.84-.53,1.4-1.46,1.4-2.53,0-.54-.15-1.03-.4-1.47.18-.11.36-.25.51-.4.57-.56.89-1.32.89-2.13ZM12.78,48c-2.36-3.05-3.78-6.86-3.78-11,0-1.38.17-2.71.46-4h17.54v15h-14.22ZM27,55c-4.81,0-9.18-1.91-12.42-5h13.42c.55,0,1-.45,1-1h1.81l4.82,1.93c.12.05.24.07.37.07h2.28c-3.18,2.58-7.09,4-11.28,4ZM50.69,36.71c-.18.19-.42.29-.69.29h-7c-.55,0-1,.45-1,1s.45,1,1,1h6c.55,0,1,.45,1,1s-.45,1-1,1h-6c-.55,0-1,.45-1,1s.45,1,1,1h5c.55,0,1,.45,1,1s-.45,1-1,1h-5c-.55,0-1,.45-1,1s.45,1,1,1h3c.55,0,1,.45,1,1,0,.27-.1.51-.31.71-.18.19-.42.29-.69.29h-9.81l-4.82-1.93c-.12-.05-.24-.07-.37-.07h-2v-13.02c1.01-.1,1.98-.55,2.71-1.27.82-.83,1.29-1.96,1.29-3.12v-4.59c.79,0,1.55.31,2.12.87.57.58.88,1.33.88,2.13v6c0,.55.45,1,1,1h3c.55,0,1-.45,1-1s-.45-1-1-1h-2v-5c0-1.32-.52-2.58-1.47-3.54-.95-.94-2.21-1.46-3.53-1.46-1.1,0-2,.9-2,2v4.59c0,.63-.26,1.25-.71,1.7-.35.36-.81.59-1.3.67-.02-.53-.45-.96-.99-.96H10.05c2.48-6.98,9.13-12,16.95-12,8.51,0,15.69,5.82,17.54,14h-.54c-.55,0-1,.45-1,1s.45,1,1,1h6c.55,0,1,.45,1,1,0,.27-.1.51-.31.71Z"/>
  <path d="M52,11h-8c-.553,0-1,.448-1,1s.447,1,1,1h8c.553,0,1-.448,1-1s-.447-1-1-1Z"/>
  <path d="M52,15h-8c-.553,0-1,.448-1,1s.447,1,1,1h8c.553,0,1-.448,1-1s-.447-1-1-1Z"/>
  <path d="M54,7h-6c-.553,0-1,.448-1,1s.447,1,1,1h6c.552,0,1,.449,1,1v8c0,.551-.448,1-1,1h-6c-.155,0-.309.036-.447.105l-2.553,1.276v-.382c0-.552-.447-1-1-1h-2c-.552,0-1-.449-1-1v-8c0-.551.448-1,1-1h2c.553,0,1-.448,1-1s-.447-1-1-1h-2c-1.654,0-3,1.346-3,3v8c0,1.654,1.346,3,3,3h1v1c0,.701.778,1.227,1.447.895l3.789-1.895h5.764c1.654,0,3-1.346,3-3v-8c0-1.654-1.346-3-3-3Z"/>
</svg>