<?xml version="1.0" encoding="UTF-8"?>
<svg id="Outline" xmlns="http://www.w3.org/2000/svg" version="1.1" viewBox="0 0 64 64">
  <!-- Generator: Adobe Illustrator 29.0.0, SVG Export Plug-In . SVG Version: 2.1.0 Build 186)  -->
  <path d="M51,36.97754c0,1.61979-1.38637,3-3,3h-.17999c.10999.31.17999.64996.17999,1,0,1.07001-.56,2-1.40002,2.52997.25.44.40002.92999.40002,1.47003,0,1.38-.95001,2.53998-2.21997,2.88.13995.34998.21997.72998.21997,1.12,0,.81-.32001,1.57001-.89001,2.13-.53998.54999-1.29999.87-2.10999.87h-7.31c-1.90997,0-3.78003-.35999-5.56-1.07001-1.39001-.56-2.84003-.85004-4.32001-.91003-.41998,1.15002-1.52002,1.98004-2.81,1.98004h-4c-1.65002,0-3-1.35004-3-3v-15c0-1.65002,1.34998-3,3-3h4c1.29999,0,2.40002.83997,2.82001,2h1.94c.65997,0,1.31-.15002,1.90997-.45001.70001-.34998,1.29004-.89001,1.70001-1.56.41998-.67999.63-1.42999.63-2.22998v-3.76001c0-.54999.45001-1,1-1,1.59998,0,3.09998.62,4.23999,1.75,1.14001,1.14996,1.76001,2.64996,1.76001,4.25v4h3c.54999,0,1,.45001,1,1s-.45001,1-1,1h-4c-.54999,0-1-.45001-1-1v-5c0-1.07001-.41998-2.07001-1.16998-2.84003-.51001-.5-1.14001-.85999-1.83002-1.03998v2.64001c0,1.14996-.32001,2.28998-.92999,3.27997-.60004.97998-1.47003,1.78003-2.51001,2.29999-.89001.44-1.83002.66003-2.79999.66003h-1.76001v6c0,.54999-.45001,1-1,1s-1-.45001-1-1v-7c0-.54999-.45001-1-1-1h-4c-.54999,0-1,.45001-1,1v15c0,.54999.45001,1,1,1h4c.54999,0,1-.45001,1-1v-4c0-.54999.45001-1,1-1s1,.45001,1,1v3.01996c1.66998.07001,3.31.43005,4.87,1.05005,1.53998.62,3.16003.92999,4.82001.92999h7.31c.27002,0,.51001-.10004.69-.29004.21002-.19995.31-.44.31-.70996,0-.54999-.45001-1-1-1h-3c-.54999,0-1-.45001-1-1s.45001-1,1-1h5c.54999,0,1-.45001,1-1s-.45001-1-1-1h-5c-.54999,0-1-.45001-1-1s.45001-1,1-1h6c.54999,0,1-.45001,1-1s-.45001-1-1-1h-6c-.54999,0-1-.45001-1-1s.45001-1,1-1c0,0,9,0,9.00006,0,.52676-.00003.99994-.47432.99994-1,0-.54999-.45001-1-1-1h-3c-.54999,0-1-.45001-1-1s.45001-1,1-1h3c1.65001,0,2.99997,1.34995,3,3Z"/>
  <path d="M28.82324,18.43262l-.4082,2.37598c-.06445.375.08984.75391.39746.97754.30762.22559.71875.25488,1.05274.07617l2.13477-1.12109,2.13476,1.12109c.70191.36861,1.58977-.24166,1.4502-1.05371l-.4082-2.37598,1.72754-1.68359c.27246-.26562.37012-.66309.25293-1.02441-.11816-.3623-.43066-.62598-.80762-.68066l-2.38574-.34668-1.06738-2.16211c-.33594-.68359-1.45703-.68359-1.79297,0l-1.06738,2.16211-2.38574.34668c-.37695.05469-.68945.31836-.80762.68066-.11719.36133-.01953.75879.25293,1.02441l1.72754,1.68359ZM30.84375,16.60059c.32617-.04688.60742-.25195.75293-.54688l.40332-.81641.40332.81641c.14551.29492.42676.5.75293.54688l.90039.13086-.65234.63574c-.23535.22949-.34277.56055-.28711.88477l.1543.89746-.80664-.42285c-.14551-.07715-.30469-.11523-.46484-.11523s-.31934.03809-.46484.11523l-.80664.42285.1543-.89746c.05566-.32422-.05176-.65527-.28711-.88477l-.65234-.63574.90039-.13086Z"/>
  <path d="M36.63672,18.72461c-.11719.36133-.01953.75879.25293,1.02441l1.72754,1.68359-.4082,2.37598c-.06445.375.08984.75391.39746.97754.30762.22461.71777.25391,1.05273.07617l2.13477-1.12109,2.13476,1.12109c.70263.36899,1.59038-.2381,1.4502-1.05371l-.40723-2.37598,1.72656-1.68359c.27246-.26562.37012-.66309.25293-1.02539-.11816-.36133-.43066-.625-.80762-.67969l-2.38574-.34668-1.06738-2.16211c-.33594-.68359-1.45703-.68359-1.79297,0l-1.06738,2.16211-2.38574.34668c-.37695.05469-.68945.31836-.80762.68066ZM40.6377,19.60059c.32617-.04688.60742-.25195.75293-.54688l.40332-.81641.40332.81641c.14551.29492.42676.5.75293.54688l.90039.13086-.65137.63574c-.23535.22949-.34277.56055-.28711.88477l.15332.89844-.80664-.42383c-.14551-.07715-.30469-.11523-.46484-.11523s-.31934.03809-.46484.11523l-.80664.42285.1543-.89746c.05566-.32422-.05176-.65527-.28711-.88477l-.65234-.63574.90039-.13086Z"/>
  <path d="M56.95117,22.72363c-.11816-.36133-.43066-.625-.80762-.67969l-2.38574-.34668-1.06738-2.16211c-.33594-.68359-1.45703-.68359-1.79297,0l-1.06738,2.16211-2.38574.34668c-.37695.05469-.68945.31836-.80762.68066-.11719.36133-.01953.75879.25293,1.02441l1.72754,1.68359-.4082,2.37598c-.06445.375.08984.75391.39746.97754.30762.22559.71875.25391,1.05273.07617l2.13477-1.12109,2.13476,1.12109c.70192.36862,1.58999-.24035,1.4502-1.05371l-.40723-2.37598,1.72656-1.68359c.27246-.26562.37012-.66309.25293-1.02539ZM53.19922,24.36719c-.23535.22949-.34277.56055-.28711.88477l.15332.89844-.80664-.42383c-.14551-.07715-.30469-.11523-.46484-.11523s-.31934.03809-.46484.11523l-.80664.42285.1543-.89746c.05566-.32422-.05176-.65527-.28711-.88477l-.65234-.63574.90039-.13086c.32617-.04688.60742-.25195.75293-.54688l.40332-.81641.40332.81641c.14551.29492.42676.5.75293.54688l.90039.13086-.65137.63574Z"/>
  <path d="M19.02832,21.43262s-.40723,2.37598-.40723,2.37598c-.13679.7959.73612,1.43231,1.4502,1.0537l2.13477-1.12109,2.13477,1.12109c.33496.17773.74512.14844,1.05273-.07617.30762-.22363.46191-.60254.39746-.97754l-.4082-2.37598,1.72754-1.68359c.27246-.26562.37012-.66309.25293-1.02441-.11816-.3623-.43066-.62598-.80762-.68066l-2.38574-.34668-1.06738-2.16211c-.33594-.68359-1.45703-.68359-1.79297,0l-1.06738,2.16211-2.38574.34668c-.37695.05469-.68945.31836-.80762.67969-.11719.3623-.01953.75977.25293,1.02539l1.72656,1.68359ZM21.0498,19.60059c.32617-.04688.60742-.25195.75293-.54688l.40332-.81641.40332.81641c.14551.29492.42676.5.75293.54688l.90039.13086-.65234.63574c-.23535.22949-.34277.56055-.28711.88477l.1543.89746-.80664-.42285c-.29102-.1543-.63867-.1543-.92969,0l-.80664.42383.15332-.89844c.05566-.32422-.05176-.65527-.28711-.88477l-.65137-.63574.90039-.13086Z"/>
  <path d="M15.79102,27.80859l-.4082-2.37598,1.72754-1.68359c.27246-.26562.37012-.66309.25293-1.02441-.11816-.3623-.43066-.62598-.80762-.68066l-2.38574-.34668-1.06738-2.16211c-.33594-.68359-1.45703-.68359-1.79297,0l-1.06738,2.16211-2.38574.34668c-.37695.05469-.68945.31836-.80762.67969-.11719.3623-.01953.75977.25293,1.02539l1.72656,1.68359-.40722,2.37596c-.13648.79627.73567,1.43257,1.45019,1.05373l2.13477-1.12109,2.13477,1.12109c.33496.17773.74512.14941,1.05273-.07617.30762-.22363.46191-.60254.39746-.97754ZM13.61035,24.36719c-.23535.22949-.34277.56055-.28711.88477l.1543.89746-.80664-.42285c-.29102-.1543-.63867-.1543-.92969,0l-.80664.42383.15332-.89844c.05566-.32422-.05176-.65527-.28711-.88477l-.65137-.63574.90039-.13086c.32617-.04688.60742-.25195.75293-.54688l.40332-.81641.40332.81641c.14551.29492.42676.5.75293.54688l.90039.13086-.65234.63574Z"/>
</svg>