<?xml version="1.0" encoding="UTF-8"?>
<svg id="Outline" xmlns="http://www.w3.org/2000/svg" version="1.1" viewBox="0 0 64 64">
  <!-- Generator: Adobe Illustrator 29.0.0, SVG Export Plug-In . SVG Version: 2.1.0 Build 186)  -->
  <path d="M50,40h-6c-.55225,0-1,.44775-1,1s.44775,1,1,1h6c2.75684,0,5,2.24316,5,5,0,1.34082-.52002,2.59473-1.47021,3.53613-.93506.94385-2.18896,1.46387-3.52979,1.46387H14c-2.75681,0-4.99996-2.24313-5-4.99993-.00004-2.72643,2.27571-5.00007,5-5.00007h26c.55225,0,1-.44775,1-1s-.44775-1-1-1H14.00001c-3.80932,0-7.00001,3.19976-7.00001,7,0,3.85986,3.14014,7,7,7h36c1.87842,0,3.63672-.72998,4.94434-2.04932,1.32568-1.31396,2.05566-3.07227,2.05566-4.95068,0-3.85986-3.14014-7-7-7Z"/>
  <path d="M14,44c-1.6543,0-3,1.3457-3,3s1.3457,3,3,3h36c1.6543,0,3-1.3457,3-3s-1.3457-3-3-3H14ZM31.41406,48l2-2h2.17188l-2,2h-2.17188ZM26.41406,48l2-2h2.17188l-2,2h-2.17188ZM21.41406,48l2-2h2.17188l-2,2h-2.17188ZM16.41406,48l2-2h2.17188l-2,2h-2.17188ZM14,46h1.58594l-1.9303,1.9303c-.38068-.14154-.65564-.5011-.65564-.9303,0-.55127.44873-1,1-1ZM51,47c0,.55127-.44873,1-1,1h-13.58594l2-2h11.58594c.55127,0,1,.44873,1,1Z"/>
  <path d="M49,23c0-1.65002-1.34998-3-3-3h-8v-4c0-1.60004-.62-3.10004-1.76001-4.25-1.14001-1.13-2.64001-1.75-4.23999-1.75-.54999,0-1,.45001-1,1v3.76001c0,.79999-.21002,1.54999-.63,2.22998-.40997.66998-1,1.21002-1.70001,1.56-.59998.29999-1.25.45001-1.90997.45001h-1.94c-.41998-1.16003-1.52002-2-2.82001-2h-4c-1.65002,0-3,1.34998-3,3v15c0,1.64996,1.34998,3,3,3h4c1.28998,0,2.39001-.83002,2.81-1.98004,1.47998.06,2.92999.35004,4.32001.91003,1.77997.71002,3.65002,1.07001,5.56,1.07001h7.31c.81,0,1.57001-.32001,2.10999-.87.57001-.56.89001-1.32001.89001-2.13,0-.39001-.08002-.77002-.21997-1.12,1.26996-.34003,2.21997-1.5,2.21997-2.88,0-.54004-.15002-1.03003-.40002-1.47003.84003-.52997,1.40002-1.45996,1.40002-2.52997,0-.54004-.15002-1.03003-.40002-1.47003.18005-.12.36005-.25.51001-.39996.57001-.56.89001-1.32001.89001-2.13ZM46.69879,23.71764c-.15992.17063-.39257.28236-.69879.28236h-7c-.54999,0-1,.45001-1,1s.45001,1,1,1h6c.54999,0,1,.45001,1,1s-.45001,1-1,1h-6c-.54999,0-1,.45001-1,1s.45001,1,1,1h5c.54999,0,1,.45001,1,1s-.45001,1-1,1h-5c-.54999,0-1,.45001-1,1s.45001,1,1,1h3c.54999,0,1,.45001,1,1,0,.26996-.09998.51001-.31.70996-.17999.19-.41998.29004-.69.29004h-7.31c-1.65997,0-3.28003-.31-4.82001-.92999-1.56-.62-3.20001-.98004-4.87-1.05005v-4.01996c0-.54999-.45001-1-1-1s-1,.45001-1,1v5c0,.54999-.45001,1-1,1h-4c-.54999,0-1-.45001-1-1v-15c0-.54999.45001-1,1-1h4c.54999,0,1,.45001,1,1v6c0,.54999.45001,1,1,1s1-.45001,1-1v-5h1.76001c.96997,0,1.90997-.22003,2.79999-.66003,1.03998-.51996,1.90997-1.32001,2.51001-2.29999.60999-.98999.92999-2.13.92999-3.27997v-2.63c.69.16998,1.32001.52997,1.83002,1.02997.75.77002,1.16998,1.77002,1.16998,2.84003v5c0,.54999.45001,1,1,1h8.99987c.97315,0,1.21564,1.16632.69892,1.71764Z"/>
</svg>