<?xml version="1.0" encoding="UTF-8"?>
<svg id="Outline" xmlns="http://www.w3.org/2000/svg" version="1.1" viewBox="0 0 48 48">
  <!-- Generator: Adobe Illustrator 29.5.1, SVG Export Plug-In . SVG Version: 2.1.0 Build 141)  -->
  <path d="M15.5,23.978h17c.347,0,.668-.18.851-.474.183-.295.199-.663.044-.973l-3.5-7c-.17-.339-.516-.553-.895-.553h-10c-.379,0-.725.214-.895.553l-3.5,7c-.155.31-.139.678.044.973.183.294.504.474.851.474ZM19.618,16.978h8.764l2.5,5h-13.764l2.5-5Z"/>
  <path d="M21,12.978h6c.347,0,.668-.18.851-.474.183-.295.199-.663.044-.973l-3-6c-.34-.678-1.449-.678-1.789,0l-3,6c-.155.31-.139.678.044.973.183.294.504.474.851.474ZM24,8.214l1.382,2.764h-2.764l1.382-2.764Z"/>
  <path d="M9.649,33.504c.183.294.504.474.851.474h27c.347,0,.668-.18.851-.474.183-.295.199-.663.044-.973l-3-6c-.17-.339-.516-.553-.895-.553H13.5c-.379,0-.725.214-.895.553l-3,6c-.155.31-.139.678.044.973ZM14.118,27.978h19.764l2,4H12.118l2-4Z"/>
  <path d="M40.395,36.531c-.17-.339-.516-.553-.895-.553H8.5c-.379,0-.725.214-.895.553l-2.5,5c-.155.31-.139.678.044.973.183.294.504.474.851.474h36c.347,0,.668-.18.851-.474.183-.295.199-.663.044-.973l-2.5-5ZM7.618,40.978l1.5-3h29.764l1.5,3H7.618Z"/>
  <path d="M38.707,25.685l.293-.293v3.586c0,.552.447,1,1,1s1-.448,1-1v-3.586l.293.293c.195.195.451.293.707.293.875,0,1.326-1.088.707-1.707l-2-2c-.391-.391-1.023-.391-1.414,0l-2,2c-.391.391-.391,1.023,0,1.414s1.023.391,1.414,0Z"/>
  <path d="M6.707,25.685l.293-.293v3.586c0,.552.447,1,1,1s1-.448,1-1v-3.586l.293.293c.195.195.451.293.706.293.871,0,1.323-1.092.708-1.707l-2-2c-.391-.391-1.023-.391-1.414,0l-2,2c-.391.391-.391,1.023,0,1.414s1.023.391,1.414,0Z"/>
</svg>