<?xml version="1.0" encoding="UTF-8"?>
<svg id="Outline" xmlns="http://www.w3.org/2000/svg" version="1.1" viewBox="0 0 64 64">
  <!-- Generator: Adobe Illustrator 29.5.1, SVG Export Plug-In . SVG Version: 2.1.0 Build 141)  -->
  <path d="M52.44,41.39l-.6-11.57c-.03-.61-.1-1.26-.2-1.97-.08-.54-.59-.92-1.14-.84-.54.08-.92.59-.84,1.14.1.64.15,1.22.18,1.77l.06,1.18c-.03.05-.07.08-.09.14l-.15.34c-1.47,3.44-4.34,6.08-7.89,7.26-.52.18-.8.74-.63,1.27.173.539.751.771,1.27.63,3.16-1.05,5.84-3.13,7.69-5.84l.14,2.69c-.06.07-.12.14-.16.23l-.42.97c-1.47,3.44-4.34,6.08-7.89,7.26-.52.18-.8.74-.63,1.27.167.522.738.775,1.27.63,3.36-1.12,6.19-3.4,8.03-6.38.11,2.47-.75,4.81-2.46,6.61-1.72,1.82-4.05,2.82-6.56,2.82h-1.42c-1.41,0-2.76-.32-4.03-.96-.93-.46-1.77-1.08-2.48-1.83l5.06-3.38c.28-.18.45-.5.45-.83s-.17-.65-.45-.83c-3.98-2.66-9.12-2.66-13.1,0-.28.18-.45.5-.45.83s.17.65.45.83l5.06,3.38c-1.68,1.76-4.05,2.79-6.51,2.79h-1.42c-2.51,0-4.84-1-6.56-2.82-1.7-1.8-2.57-4.14-2.46-6.61,1.84,2.98,4.67,5.26,8.03,6.38.493.164,1.095-.104,1.27-.63.17-.53-.11-1.09-.63-1.27-3.55-1.18-6.42-3.82-7.89-7.26l-.42-.97c-.04-.09-.1-.16-.16-.23l.14-2.69c1.85,2.71,4.53,4.79,7.69,5.84.11.03.22.05.32.05.42,0,.81-.26.95-.68.17-.53-.11-1.09-.63-1.27-3.55-1.18-6.42-3.82-7.89-7.26l-.15-.34c-.02-.06-.06-.09-.09-.14l.06-1.18c.48-9.15,7.8-16.37,16.84-16.87v1.99c-2.87.18-5.62,1.12-8,2.77-.45.31-.57.93-.25,1.39.31.45.93.57,1.39.25,2.04-1.41,4.4-2.24,6.86-2.41v2.06c-1.84.15-3.66.69-5.25,1.68-.48.29-.62.9-.33,1.37.29.48.91.62,1.37.33,1.29-.79,2.73-1.24,4.21-1.39v3.91c0,.55.45,1,1,1s1-.45,1-1v-3.91c1.48.15,2.92.6,4.21,1.39.467.292,1.082.136,1.37-.33.29-.47.15-1.08-.33-1.37-1.59-.99-3.41-1.53-5.25-1.68v-2.06c2.46.17,4.82,1,6.86,2.41.449.311,1.081.206,1.39-.25.32-.46.2-1.08-.25-1.39-2.38-1.65-5.13-2.59-8-2.77v-2c6.9.39,13.11,4.84,15.64,11.32.2.52.78.77,1.29.57.52-.2.77-.78.57-1.29-.22-.58-.49-1.14-.76-1.69,1.46-1.64,2.26-3.73,2.26-5.95,0-4.96-4.04-9-9-9-3.17,0-6.02,1.64-7.65,4.3-1.1-.19-2.22-.3-3.35-.3-1.14,0-2.26.11-3.35.3-1.63-2.66-4.48-4.3-7.65-4.3-4.96,0-9,4.04-9,9,0,2.22.8,4.31,2.26,5.95-1.2,2.38-1.95,5.04-2.1,7.87l-.6,11.57c-.16,3.04.9,5.95,3,8.16,2.11,2.23,4.96,3.45,8.02,3.45h.52c.47,2.28,2.49,4,4.9,4h2c.55,0,1-.45,1-1s-.45-1-1-1h-2c-1.33,0-2.44-.87-2.84-2.06,2.6-.29,5.04-1.49,6.84-3.39.88.93,1.93,1.71,3.08,2.28,1.19.6,2.45.97,3.76,1.1-.4,1.2-1.51,2.07-2.84,2.07h-2c-.55,0-1,.45-1,1s.45,1,1,1h2c2.41,0,4.43-1.72,4.9-4h.52c3.06,0,5.91-1.22,8.02-3.45,2.1-2.21,3.16-5.12,3-8.16ZM43,9c3.86,0,7,3.14,7,7,0,1.5-.47,2.91-1.33,4.09-2.62-4.02-6.64-6.98-11.24-8.31,1.3-1.73,3.34-2.78,5.57-2.78ZM14,16c0-3.86,3.14-7,7-7,2.23,0,4.25,1.04,5.56,2.77-4.67,1.33-8.64,4.32-11.23,8.32-.86-1.18-1.33-2.59-1.33-4.09ZM27.91,44.07c2.6-1.19,5.58-1.19,8.18,0l-4.09,2.73-4.09-2.73Z"/>
  <path d="M25,32c1.234,0,2.294-.749,2.755-1.816.054.052.113.097.166.151l.373.373c.369.369,1.017.397,1.414,0,.391-.391.391-1.023,0-1.414l-.373-.373c-1.883-1.883-4.387-2.92-7.05-2.92h-.284c-.552,0-1,.448-1,1s.448,1,1,1h.182c-.114.318-.182.654-.182,1,0,1.654,1.346,3,3,3ZM26,29c0,.551-.449,1-1,1s-1-.449-1-1c0-.279.123-.542.325-.729.575.151,1.132.361,1.657.637.003.031.018.06.018.092Z"/>
  <path d="M43,27c0-.552-.448-1-1-1h-.284c-2.663,0-5.167,1.037-7.05,2.92l-.373.373c-.391.391-.391,1.023,0,1.414.387.387,1.025.389,1.414,0l.373-.373c.053-.053.112-.099.166-.151.46,1.067,1.521,1.816,2.754,1.816,1.654,0,3-1.346,3-3,0-.346-.068-.682-.182-1h.182c.552,0,1-.448,1-1ZM39,30c-.551,0-1-.449-1-1,0-.032.015-.061.018-.092.526-.276,1.082-.485,1.657-.637.202.186.325.449.325.729,0,.551-.449,1-1,1Z"/>
</svg>