<?xml version="1.0" encoding="UTF-8"?>
<svg id="Outline" xmlns="http://www.w3.org/2000/svg" version="1.1" viewBox="0 0 64 64">
  <!-- Generator: Adobe Illustrator 29.5.1, SVG Export Plug-In . SVG Version: 2.1.0 Build 141)  -->
  <path d="M49.015,18.17c-.39-.4-1.02-.42-1.42-.04-.4.39-.42,1.02-.03,1.42,3.71,3.91,5.75,9.04,5.75,14.45,0,11.58-9.42,21-21,21s-21-9.42-21-21,9.42-21,21-21c4.49,0,8.76,1.39,12.36,4.03.44.32,1.07.23,1.4-.22.32-.44.23-1.07-.22-1.4-2.85-2.09-6.1-3.45-9.54-4.05v-2.36h2c.55,0,1-.45,1-1s-.45-1-1-1h-12c-.55,0-1,.45-1,1s.45,1,1,1h2v2.36c-3.37.59-6.48,1.91-9.18,3.81l-1.67-1.68,1.41-1.41c.4-.39.4-1.02,0-1.41-.39-.39-1.02-.39-1.41,0l-8.48,8.48c-.4.39-.4,1.02,0,1.41.385.405,1.021.389,1.41,0l1.41-1.41,1.68,1.67c-2.63,3.74-4.17,8.28-4.17,13.18,0,12.68,10.32,23,23,23s23-10.32,23-23c0-5.92-2.24-11.55-6.3-15.83ZM30.315,9h4v2.09c-.66-.06-1.33-.09-2-.09s-1.34.04-2,.09v-2.09ZM13.225,17.74l2.83-2.83,1.48,1.48c-1.02.86-1.97,1.81-2.83,2.83l-1.48-1.48Z"/>
  <path d="M32.315,53c6.768,0,13.07-3.641,16.446-9.501.276-.479.112-1.09-.367-1.365-.48-.277-1.09-.112-1.366.367-3.021,5.242-8.659,8.499-14.714,8.499s-11.693-3.257-14.714-8.499c-.276-.479-.886-.644-1.366-.367-.479.275-.643.887-.367,1.365,3.376,5.86,9.679,9.501,16.446,9.501Z"/>
  <path d="M32.315,15c-6.768,0-13.07,3.641-16.446,9.501-.276.479-.112,1.09.367,1.365.479.275,1.09.11,1.366-.367,3.021-5.242,8.659-8.499,14.714-8.499s11.693,3.257,14.714,8.499c.185.321.521.501.867.501.755,0,1.242-.847.866-1.499-3.376-5.86-9.679-9.501-16.446-9.501Z"/>
  <path d="M18.315,28c-1.654,0-3,1.346-3,3v6c0,1.654,1.346,3,3,3s3-1.346,3-3v-6c0-1.654-1.346-3-3-3ZM19.315,37c0,.552-.449,1-1,1s-1-.448-1-1v-6c0-.552.449-1,1-1s1,.448,1,1v6Z"/>
  <path d="M26.315,40c1.654,0,3-1.346,3-3v-6c0-1.654-1.346-3-3-3s-3,1.346-3,3v6c0,1.654,1.346,3,3,3ZM25.315,31c0-.552.449-1,1-1s1,.448,1,1v6c0,.552-.449,1-1,1s-1-.448-1-1v-6Z"/>
  <path d="M49.315,31c0-1.654-1.346-3-3-3s-3,1.346-3,3v6c0,1.654,1.346,3,3,3s3-1.346,3-3v-6ZM47.315,37c0,.552-.449,1-1,1s-1-.448-1-1v-6c0-.552.449-1,1-1s1,.448,1,1v6Z"/>
  <path d="M41.315,37v-6c0-1.654-1.346-3-3-3s-3,1.346-3,3v6c0,1.654,1.346,3,3,3s3-1.346,3-3ZM37.315,37v-6c0-.552.449-1,1-1s1,.448,1,1v6c0,.552-.449,1-1,1s-1-.448-1-1Z"/>
  <circle cx="32.315" cy="31" r="1"/>
  <circle cx="32.315" cy="37" r="1"/>
  <path d="M43.792,24.358c-2.85-3.405-7.033-5.358-11.477-5.358s-8.627,1.953-11.477,5.358c-.354.424-.298,1.054.125,1.408.422.355,1.053.298,1.409-.125,2.468-2.95,6.092-4.642,9.943-4.642s7.475,1.691,9.943,4.642c.198.236.482.358.767.358.831,0,1.298-1.007.767-1.642Z"/>
  <path d="M25.902,47.562c1.985.954,4.143,1.438,6.413,1.438,4.444,0,8.627-1.953,11.477-5.358.354-.424.298-1.054-.125-1.408-.423-.355-1.055-.299-1.409.125-2.468,2.95-6.092,4.642-9.943,4.642-1.967,0-3.833-.418-5.547-1.241-.496-.238-1.094-.029-1.334.468-.239.498-.03,1.096.468,1.335Z"/>
  <path d="M22.369,42.355c-.356-.423-.987-.477-1.409-.12s-.476.987-.119,1.409c.484.574.99,1.094,1.503,1.546.19.168.426.25.661.25.277,0,.553-.114.751-.339.365-.415.325-1.047-.089-1.411-.44-.388-.876-.837-1.297-1.335Z"/>
</svg>