<?xml version="1.0" encoding="UTF-8"?>
<svg id="Outline" xmlns="http://www.w3.org/2000/svg" version="1.1" viewBox="0 0 64 64">
  <!-- Generator: Adobe Illustrator 29.5.1, SVG Export Plug-In . SVG Version: 2.1.0 Build 141)  -->
  <path d="M37,15.63v-2.63h1c.55,0,1-.45,1-1v-4c0-.55-.45-1-1-1h-12c-.55,0-1,.45-1,1v4c0,.55.45,1,1,1h1v2.63c-9.17,2.25-16,10.52-16,20.37,0,11.58,9.42,21,21,21s21-9.42,21-21c0-9.85-6.83-18.12-16-20.37ZM27,9h10v2h-10v-2ZM35,13v2.24c-.98-.14-1.98-.24-3-.24s-2.02.1-3,.24v-2.24h6ZM32,55c-10.48,0-19-8.52-19-19s8.52-19,19-19,19,8.52,19,19-8.52,19-19,19Z"/>
  <path d="M32,19c-9.37,0-17,7.63-17,17s7.63,17,17,17,17-7.63,17-17-7.63-17-17-17ZM32,51c-8.27,0-15-6.73-15-15s6.73-15,15-15,15,6.73,15,15-6.73,15-15,15Z"/>
  <path d="M41,29c-1.65,0-3,1.35-3,3v1h-12v-1c0-1.65-1.35-3-3-3s-3,1.35-3,3v8c0,1.65,1.35,3,3,3s3-1.35,3-3v-1h12v1c0,1.65,1.35,3,3,3s3-1.35,3-3v-8c0-1.65-1.35-3-3-3ZM24,40c0,.55-.45,1-1,1s-1-.45-1-1v-8c0-.55.45-1,1-1s1,.45,1,1v8ZM38,37h-12v-2h12v2ZM42,40c0,.55-.45,1-1,1s-1-.45-1-1v-8c0-.55.45-1,1-1s1,.45,1,1v8Z"/>
</svg>