<?xml version="1.0" encoding="UTF-8"?>
<svg id="Outline" xmlns="http://www.w3.org/2000/svg" version="1.1" viewBox="0 0 64 64">
  <!-- Generator: Adobe Illustrator 29.3.1, SVG Export Plug-In . SVG Version: 2.1.0 Build 151)  -->
  <path d="M45,31.04999V14c0-1.65002-1.34998-3-3-3h-3v-1c0-1.65002-1.34998-3-3-3s-3,1.34998-3,3v1h-4v-1c0-1.65002-1.34998-3-3-3s-3,1.34998-3,3v1h-4v-1c0-1.65002-1.34998-3-3-3s-3,1.34998-3,3v1h-3c-1.65002,0-3,1.34998-3,3v40c0,1.64996,1.34998,3,3,3h32c.21002,0,.41998-.03003.62-.08002.45001.04999.91003.08002,1.38.08002,7.16998,0,13-5.83002,13-13,0-6.83002-5.29999-12.44-12-12.95001ZM35,10c0-.54999.45001-1,1-1s1,.45001,1,1v1h-2v-1ZM25,10c0-.54999.45001-1,1-1s1,.45001,1,1v1h-2v-1ZM15,10c0-.54999.45001-1,1-1s1,.45001,1,1v1h-2v-1ZM9,14c0-.54999.45001-1,1-1h3v1c0,1.64996,1.34998,3,3,3,.54999,0,1-.45001,1-1s-.45001-1-1-1-1-.45001-1-1v-1h8v1c0,1.64996,1.34998,3,3,3,.54999,0,1-.45001,1-1s-.45001-1-1-1-1-.45001-1-1v-1h8v1c0,1.64996,1.34998,3,3,3,.54999,0,1-.45001,1-1s-.45001-1-1-1-1-.45001-1-1v-1h7c.54999,0,1,.45001,1,1v5H9v-5ZM10,55c-.54999,0-1-.45001-1-1V21h34v10.04999c-4.96002.38-9.15997,3.54999-11,7.95001h-9c-.54999,0-1,.45001-1,1s.45001,1,1,1h8.35999c-.14996.64996-.26001,1.32001-.31,2h-8.04999c-.54999,0-1,.45001-1,1s.45001,1,1,1h8.04999c.32001,4.20996,2.66003,7.87,6.04999,10H10ZM52.45001,51.02997l-.66998-.66998c-.39001-.39001-1.03003-.39001-1.42004,0s-.39001,1.03003,0,1.41998l.67004.67004c-1.66003,1.38995-3.75,2.28998-6.03003,2.5v-.95001c0-.54999-.45001-1-1-1s-1,.45001-1,1v.95001c-2.28003-.21002-4.37-1.11005-6.03003-2.5l.67004-.67004c.39001-.38995.39001-1.02997,0-1.41998s-1.03003-.39001-1.42004,0l-.66998.66998c-1.39001-1.65997-2.28998-3.75-2.5-6.02997h.95001c.54999,0,1-.45001,1-1s-.45001-1-1-1h-.95001c.21002-2.28003,1.10999-4.37,2.5-6.03003l.66998.67004c.37209.37213,1.01524.38443,1.42005,0,.39001-.39001.39001-1.03003,0-1.42004l-.67004-.66998c1.66003-1.39001,3.75-2.28998,6.03003-2.5v.95001c0,.54999.45001,1,1,1s1-.45001,1-1v-.95001c2.28003.21002,4.37,1.10999,6.03003,2.5l-.67004.66998c-.38998.38998-.39001,1.02993-.00009,1.41995.37122.37132,1.01506.38477,1.42014.00009l.66998-.67004c1.39001,1.66003,2.28998,3.75,2.5,6.03003h-.95001c-.54999,0-1,.45001-1,1s.45001,1,1,1h.95001c-.21002,2.27997-1.10999,4.37-2.5,6.02997Z"/>
  <path d="M45,41.18427v-3.18427c0-.55273-.44727-1-1-1s-1,.44727-1,1v3.18427c-1.1615.41412-2,1.51379-2,2.81573,0,.46173.11346.89423.3006,1.28534l-2.24982,2.24982c-.39062.39062-.39062,1.02341-.00003,1.41404.36516.36518,1.01374.40037,1.41409.00003l2.24982-2.24982c.39111.18713.82361.3006,1.28534.3006,1.6543,0,3-1.3457,3-3,0-1.30194-.8385-2.40161-2-2.81573ZM44,45c-.55176,0-1-.44824-1-1s.44824-1,1-1,1,.44824,1,1-.44824,1-1,1Z"/>
  <path d="M18.44531,26.16797l-2.31836,1.54492-.41992-.41992c-.39062-.39062-1.02344-.39062-1.41406,0s-.39062,1.02344,0,1.41406l1,1c.19336.19336.44922.29297.70703.29297.19238,0,.38574-.05469.55469-.16797l3-2c.45996-.30664.58398-.92676.27734-1.38672-.30566-.45996-.92578-.58398-1.38672-.27734Z"/>
  <path d="M12,33h6.33984c.55273,0,1-.44727,1-1s-.44727-1-1-1h-5.33984v-6h2c.55273,0,1-.44727,1-1s-.44727-1-1-1h-3c-.55273,0-1,.44727-1,1v8c0,.55273.44727,1,1,1Z"/>
  <path d="M18.44531,38.16797l-2.31836,1.54492-.41992-.41992c-.39062-.39062-1.02344-.39062-1.41406,0s-.39062,1.02344,0,1.41406l1,1c.19336.19336.44922.29297.70703.29297.19238,0,.38574-.05469.55469-.16797l3-2c.45996-.30664.58398-.92676.27734-1.38672-.30566-.45996-.92578-.58301-1.38672-.27734Z"/>
  <path d="M18.33984,43h-5.33984v-6h2c.55273,0,1-.44727,1-1s-.44727-1-1-1h-3c-.55273,0-1,.44727-1,1v8c0,.55273.44727,1,1,1h6.33984c.55273,0,1-.44727,1-1s-.44727-1-1-1Z"/>
  <path d="M23,33h10c.55273,0,1-.44727,1-1s-.44727-1-1-1h-10c-.55273,0-1,.44727-1,1s.44727,1,1,1Z"/>
  <path d="M23,29h17c.55273,0,1-.44727,1-1s-.44727-1-1-1h-17c-.55273,0-1,.44727-1,1s.44727,1,1,1Z"/>
</svg>