<?xml version="1.0" encoding="UTF-8"?>
<svg id="Outline" xmlns="http://www.w3.org/2000/svg" version="1.1" viewBox="0 0 64 64">
  <!-- Generator: Adobe Illustrator 29.5.1, SVG Export Plug-In . SVG Version: 2.1.0 Build 141)  -->
  <path d="M45,24c0-7.168-5.832-13-13-13s-13,5.832-13,13,5.832,13,13,13,13-5.832,13-13ZM21,24c0-6.065,4.935-11,11-11s11,4.935,11,11-4.935,11-11,11-11-4.935-11-11Z"/>
  <path d="M38,51h-3.9c3.901-4.89,14.9-19.355,14.9-27,0-9.374-7.626-17-17-17S15,14.626,15,24c0,7.645,10.998,22.11,14.9,27h-3.9c-.553,0-1,.447-1,1s.447,1,1,1h12c.553,0,1-.447,1-1s-.447-1-1-1ZM32,9c8.271,0,15,6.729,15,15,0,7.293-11.838,22.488-15,26.417-3.162-3.929-15-19.124-15-26.417,0-8.271,6.729-15,15-15Z"/>
  <path d="M38,55h-12c-.553,0-1,.447-1,1s.447,1,1,1h12c.553,0,1-.447,1-1s-.447-1-1-1Z"/>
  <path d="M32,27c1.654,0,3-1.346,3-3,0-1.302-.839-2.402-2-2.816v-5.184c0-.553-.447-1-1-1s-1,.447-1,1v5.184c-1.161.414-2,1.514-2,2.816,0,.462.113.894.301,1.285l-3.665,3.665c-.391.391-.391,1.023,0,1.414.36.36,1.026.389,1.414,0l3.665-3.665c.391.187.824.301,1.285.301ZM32,23c.552,0,1,.448,1,1s-.448,1-1,1-1-.448-1-1,.448-1,1-1Z"/>
</svg>