<?xml version="1.0" encoding="UTF-8"?>
<svg id="Outline" xmlns="http://www.w3.org/2000/svg" version="1.1" viewBox="0 0 64 64">
  <!-- Generator: Adobe Illustrator 29.5.1, SVG Export Plug-In . SVG Version: 2.1.0 Build 141)  -->
  <path d="M56,9.501H8c-.55,0-1,.45-1,1s.45,1,1,1v1.59c0,1.17.46,2.28,1.29,3.12.72.71.72,1.87,0,2.58-.72.73-1.12,1.69-1.12,2.71s.4,1.98,1.12,2.71c.72.71.72,1.87,0,2.58-.72.73-1.12,1.69-1.12,2.71s.4,1.98,1.12,2.71c.35.34.54.8.54,1.29s-.19.95-.54,1.29c-1.49,1.5-1.49,3.92,0,5.42.403.382,1.019.381,1.42,0,.39-.39.39-1.03,0-1.42-.35-.34-.54-.8-.54-1.29s.19-.95.54-1.29c.72-.73,1.12-1.69,1.12-2.71s-.4-1.98-1.12-2.71c-.35-.34-.54-.8-.54-1.29s.19-.95.54-1.29c.72-.73,1.12-1.69,1.12-2.71s-.4-1.98-1.12-2.71c-.35-.34-.54-.8-.54-1.29s.19-.95.54-1.29c1.49-1.5,1.49-3.92,0-5.42-.46-.45-.71-1.06-.71-1.7v-1.59h4v9c0,.35.18.67.47.85.3.18.67.2.98.04l3.55-1.77,3.55,1.77c.658.328,1.45-.149,1.45-.89v-9h2v9c0,.33.16.64.44.83.27.18.62.22.93.1l4.63-1.85,4.63,1.85c.12.05.24.07.37.07.547,0,1-.452,1-1v-1c0-.55-.45-1-1-1-.4,0-.74.23-.9.56l-3.73-1.49c-.24-.09-.5-.09-.74,0l-3.63,1.45v-7.52h8c0,.55.45,1,1,1s1-.45,1-1h2v9c0,.35.18.67.47.85.3.18.67.2.98.04l3.55-1.77,3.55,1.77c.14.07.3.11.45.11.549,0,1-.45,1-1v-9h4v1.59c0,.64-.25,1.25-.71,1.7-.72.73-1.12,1.69-1.12,2.71s.4,1.98,1.12,2.71c.35.34.54.8.54,1.29s-.19.95-.54,1.29c-1.49,1.5-1.49,3.92,0,5.42.35.34.54.8.54,1.29s-.19.95-.54,1.29c-1.49,1.5-1.49,3.92,0,5.42.72.71.72,1.87,0,2.58-.39.39-.39,1.03,0,1.42.375.375,1.02.38,1.42,0,1.49-1.5,1.49-3.92,0-5.42-.35-.34-.54-.8-.54-1.29s.19-.95.54-1.29c.72-.73,1.12-1.69,1.12-2.71s-.4-1.98-1.12-2.71c-.72-.71-.72-1.87,0-2.58.72-.73,1.12-1.69,1.12-2.71s-.4-1.98-1.12-2.71c-.72-.71-.72-1.87,0-2.58.83-.84,1.29-1.95,1.29-3.12v-1.59c.55,0,1-.45,1-1s-.45-1-1-1ZM22,18.881l-2.55-1.27c-.14-.07-.3-.11-.45-.11s-.31.04-.45.11l-2.55,1.27v-7.38h6v7.38ZM48,18.881l-2.55-1.27c-.14-.07-.3-.11-.45-.11s-.31.04-.45.11l-2.55,1.27v-7.38h6v7.38Z"/>
  <path d="M49,23.501c-.552,0-1,.447-1,1v2.586c0,.645-.251,1.251-.707,1.707-.723.723-1.122,1.685-1.122,2.707s.398,1.984,1.122,2.707c.345.346.536.805.536,1.293s-.19.947-.536,1.293c-1.493,1.492-1.493,3.922,0,5.414.345.346.536.805.536,1.293s-.19.947-.536,1.293c-1.493,1.492-1.493,3.922,0,5.414.713.713.713,1.873,0,2.586-.391.391-.391,1.023,0,1.414.387.387,1.026.388,1.414,0,1.493-1.492,1.493-3.922,0-5.414-.345-.346-.536-.805-.536-1.293s.19-.947.536-1.293c.723-.723,1.122-1.685,1.122-2.707s-.398-1.984-1.122-2.707c-.713-.713-.713-1.873,0-2.586.723-.723,1.122-1.685,1.122-2.707s-.398-1.984-1.122-2.707c-.713-.713-.713-1.873,0-2.586.833-.834,1.292-1.942,1.292-3.121v-2.586c0-.553-.448-1-1-1Z"/>
  <path d="M43,23.501c-.552,0-1,.447-1,1v2.586c0,.645-.251,1.251-.707,1.707-.723.723-1.122,1.685-1.122,2.707s.398,1.984,1.122,2.707c.713.713.713,1.873,0,2.586-.723.723-1.122,1.685-1.122,2.707s.398,1.984,1.122,2.707c.345.346.536.805.536,1.293s-.19.947-.536,1.293c-.391.391-.391,1.023,0,1.414.387.387,1.026.388,1.414,0,.723-.723,1.122-1.685,1.122-2.707s-.398-1.984-1.122-2.707c-.345-.346-.536-.805-.536-1.293s.19-.947.536-1.293c.723-.723,1.122-1.685,1.122-2.707s-.398-1.984-1.122-2.707c-.345-.346-.536-.805-.536-1.293s.19-.947.536-1.293c.833-.834,1.292-1.942,1.292-3.121v-2.586c0-.553-.448-1-1-1Z"/>
  <path d="M36.829,23.501c-.552,0-1,.447-1,1v2.586c0,.645-.251,1.251-.707,1.707-.723.723-1.122,1.685-1.122,2.707s.398,1.984,1.122,2.707c.713.713.713,1.873,0,2.586-.723.723-1.122,1.685-1.122,2.707s.398,1.984,1.122,2.707c.345.346.536.805.536,1.293s-.19.947-.536,1.293c-.391.391-.391,1.023,0,1.414.387.387,1.026.388,1.414,0,.723-.723,1.122-1.685,1.122-2.707s-.398-1.984-1.122-2.707c-.346-.346-.536-.805-.536-1.293s.19-.947.536-1.293c.723-.723,1.122-1.685,1.122-2.707s-.398-1.984-1.122-2.707c-.346-.346-.536-.805-.536-1.293s.19-.947.536-1.293c.833-.834,1.292-1.942,1.292-3.121v-2.586c0-.553-.448-1-1-1Z"/>
  <path d="M17.829,39.501c0-1.022-.398-1.984-1.122-2.707-.345-.346-.536-.805-.536-1.293s.19-.947.536-1.293c1.493-1.492,1.493-3.922,0-5.414-.457-.456-.708-1.062-.708-1.707v-2.586c0-.553-.448-1-1-1s-1,.447-1,1v2.586c0,1.179.459,2.287,1.293,3.121.713.713.713,1.873,0,2.586-.723.723-1.122,1.685-1.122,2.707s.398,1.984,1.122,2.707c.713.713.713,1.873,0,2.586-.723.723-1.122,1.685-1.122,2.707s.398,1.984,1.122,2.707c.345.346.536.805.536,1.293s-.19.947-.536,1.293c-1.493,1.492-1.493,3.922,0,5.414.37.37,1.019.396,1.414,0,.391-.391.391-1.023,0-1.414-.345-.346-.536-.805-.536-1.293s.19-.947.536-1.293c.723-.723,1.122-1.685,1.122-2.707s-.398-1.984-1.122-2.707c-.345-.346-.536-.805-.536-1.293s.19-.947.536-1.293c.723-.723,1.122-1.685,1.122-2.707Z"/>
  <path d="M23.829,31.501c0-1.022-.398-1.984-1.121-2.707-.457-.456-.708-1.062-.708-1.707v-2.586c0-.553-.448-1-1-1s-1,.447-1,1v2.586c0,1.179.459,2.287,1.293,3.121.345.346.536.805.536,1.293s-.19.947-.536,1.293c-1.493,1.492-1.493,3.922,0,5.414.345.346.536.805.536,1.293s-.19.947-.536,1.293c-1.493,1.492-1.493,3.922,0,5.414.195.195.451.293.707.293.874,0,1.323-1.092.707-1.707-.345-.346-.536-.805-.536-1.293s.19-.947.536-1.293c.723-.723,1.122-1.685,1.122-2.707s-.398-1.984-1.122-2.707c-.713-.713-.713-1.873,0-2.586.723-.723,1.122-1.685,1.122-2.707Z"/>
  <path d="M30,31.501c0-1.022-.398-1.984-1.121-2.707-.457-.456-.708-1.062-.708-1.707v-2.586c0-.553-.448-1-1-1s-1,.447-1,1v2.586c0,1.179.459,2.287,1.293,3.121.346.346.536.805.536,1.293s-.19.947-.536,1.293c-.723.723-1.122,1.685-1.122,2.707s.398,1.984,1.122,2.707c.346.346.536.805.536,1.293s-.19.947-.536,1.293c-.723.723-1.122,1.685-1.122,2.707s.398,1.984,1.122,2.707c.195.195.451.293.707.293.873,0,1.325-1.089.707-1.707-.345-.346-.536-.805-.536-1.293s.19-.947.536-1.293c.723-.723,1.122-1.685,1.122-2.707s-.398-1.984-1.122-2.707c-.713-.713-.713-1.873,0-2.586.723-.723,1.122-1.685,1.122-2.707Z"/>
  <circle cx="37" cy="15.501" r="1"/>
</svg>