<?xml version="1.0" encoding="UTF-8"?>
<svg id="Outline" xmlns="http://www.w3.org/2000/svg" version="1.1" viewBox="0 0 64 64">
  <!-- Generator: Adobe Illustrator 29.3.1, SVG Export Plug-In . SVG Version: 2.1.0 Build 151)  -->
  <path d="M56,30h-3v-2c0-2.76001-2.23999-5-5-5v-5.60004c2.59003-1.12,4-2.65997,4-4.39996,0-3.42004-5.59003-6-13-6-2.5,0-4.90002.32001-6.96997.89996-2.01001-.57001-4.40002-.89996-7.03003-.89996-7.40997,0-13,2.57996-13,6,0,1.73999,1.40997,3.27997,4,4.39996v5.60004c-2.76001,0-5,2.23999-5,5v2h-3c-.54999,0-1,.45001-1,1v4c0,.54999.45001,1,1,1h3v14c0,1.64996,1.34998,3,3,3h2v3c0,.54999.45001,1,1,1h6c.38,0,.71997-.21002.89001-.54999l1.72998-3.45001h12.76001l1.72998,3.45001c.17004.33997.51001.54999.89001.54999h6c.54999,0,1-.45001,1-1v-3h2c1.65002,0,3-1.35004,3-3v-14h3c.54999,0,1-.45001,1-1v-4c0-.54999-.45001-1-1-1ZM11,34h-2v-2h2v2ZM39,9c6.29999,0,11,2.10999,11,4,0,.94-1.28003,2.01001-3.34998,2.77997-.39001.15002-.65002.52002-.65002.94v6.28003h-12v-5.60004c2.59003-1.12,4-2.65997,4-4.39996,0-1.44-1-2.73004-2.70001-3.73999,1.17999-.17004,2.41998-.26001,3.70001-.26001ZM22.38,55h-4.38v-2h5.38l-1,2ZM46,55h-4.38l-1-2h5.38v2ZM51,50c0,.54999-.45001,1-1,1H14c-.54999,0-1-.45001-1-1v-1h38v1ZM51,47H13v-19c0-1.65002,1.34998-3,3-3h5c.54999,0,1-.45001,1-1s-.45001-1-1-1h-3v-6.28003c0-.41998-.26001-.78998-.65002-.94-2.06995-.76996-3.34998-1.83997-3.34998-2.77997,0-1.89001,4.70001-4,11-4s11,2.10999,11,4c0,.94-1.28003,2.01001-3.34998,2.77997-.39001.15002-.65002.52002-.65002.94v6.28003h-3c-.54999,0-1,.45001-1,1s.45001,1,1,1h19c1.65002,0,3,1.34998,3,3v19ZM55,34h-2v-2h2v2Z"/>
  <path d="M16,33h3v11c0,.55225.44727,1,1,1s1-.44775,1-1v-11h3c.55273,0,1-.44775,1-1v-4c0-.55225-.44727-1-1-1h-8c-.55273,0-1,.44775-1,1v4c0,.55225.44727,1,1,1ZM17,29h6v2h-6v-2Z"/>
  <path d="M32,37c2.75684,0,5-2.24316,5-5s-2.24316-5-5-5-5,2.24316-5,5,2.24316,5,5,5ZM31,29.18427v2.81573c0,.55225.44727,1,1,1s1-.44775,1-1v-2.81573c1.1615.41412,2,1.51379,2,2.81573,0,1.6543-1.3457,3-3,3s-3-1.3457-3-3c0-1.30194.8385-2.40161,2-2.81573Z"/>
  <path d="M44,37c2.75684,0,5-2.24316,5-5s-2.24316-5-5-5-5,2.24316-5,5,2.24316,5,5,5ZM43,29.18427v2.81573c0,.55225.44727,1,1,1s1-.44775,1-1v-2.81573c1.1615.41412,2,1.51379,2,2.81573,0,1.6543-1.3457,3-3,3s-3-1.3457-3-3c0-1.30194.8385-2.40161,2-2.81573Z"/>
  <circle cx="25" cy="24" r="1"/>
</svg>