<?xml version="1.0" encoding="UTF-8"?>
<svg id="Outline" xmlns="http://www.w3.org/2000/svg" version="1.1" viewBox="0 0 48 48">
  <!-- Generator: Adobe Illustrator 29.5.1, SVG Export Plug-In . SVG Version: 2.1.0 Build 141)  -->
  <path d="M33,34c0-.553-.448-1-1-1H12c-.552,0-1,.447-1,1s.448,1,1,1h20c.552,0,1-.447,1-1Z"/>
  <path d="M40,21h-3.18c-.42-1.16-1.52-2-2.82-2v-5.85c1.99-.84,3-1.9,3-3.15,0-3.44-7.78-5-15-5s-15,1.56-15,5c0,1.25,1.01,2.31,3,3.15v5.85c-1.65,0-3,1.35-3,3v20c0,.55.45,1,1,1h4c.38,0,.73-.21.89-.55l1.73-3.45h14.76l1.73,3.45c.16.34.51.55.89.55h4c.55,0,1-.45,1-1v-13.38l3.45-1.73c.34-.17.55-.51.55-.89v-4c0-.55-.45-1-1-1ZM9,10c0-.9,4.42-3,13-3s13,2.1,13,3c0,.18-.43.83-2.34,1.53-.4.14-.66.52-.66.94v6.53H12v-6.53c0-.42-.26-.8-.66-.94-1.91-.7-2.34-1.35-2.34-1.53ZM11.38,41h-2.38v-2h3.38l-1,2ZM35,41h-2.38l-1-2h3.38v2ZM35,37H9v-15c0-.55.45-1,1-1h24c.55,0,1,.45,1,1v15ZM39,25.38l-2,1v-3.38h2v2.38Z"/>
</svg>