<?xml version="1.0" encoding="UTF-8"?>
<svg id="Outline" xmlns="http://www.w3.org/2000/svg" version="1.1" viewBox="0 0 64 64">
  <!-- Generator: Adobe Illustrator 29.5.1, SVG Export Plug-In . SVG Version: 2.1.0 Build 141)  -->
  <path d="M30.4,28.08c-.1-.29-.33-.52-.63-.62l-15.19-4.96c-.3-.1-.63-.05-.88.13-1.97,1.37-3.41,3.31-4.16,5.59-1.56,4.77.35,9.86,4.33,12.53l-2.71,8.28-2.44.01c-.43.01-.81.28-.94.69l-.93,2.85c-.09.26-.06.53.06.77.12.23.32.41.58.5l9.5,3.1c.11.03.21.05.31.05.42,0,.82-.27.95-.69l.93-2.85c.14-.41,0-.86-.35-1.12l-1.96-1.45,2.7-8.27c.14,0,.28.01.42.01,4.63,0,8.95-2.95,10.47-7.58.74-2.28.72-4.69-.06-6.97ZM14.74,50.96c-.13.41.01.85.36,1.11l1.96,1.45-.4,1.22-7.6-2.48.4-1.22,2.44-.02c.43,0,.81-.28.94-.69l2.81-8.6c.3.13.61.25.94.36.32.1.64.19.96.26l-2.81,8.61ZM28.56,34.43c-.75,2.28-2.34,4.14-4.49,5.23-2.14,1.09-4.58,1.27-6.86.53-4.72-1.54-7.31-6.63-5.77-11.35.56-1.71,1.6-3.18,3.01-4.28l14.21,4.64c.49,1.72.46,3.52-.1,5.23Z"/>
  <path d="M57.153,52.585l-.932-2.852c-.133-.409-.514-.687-.944-.689l-2.441-.015-2.702-8.276c3.975-2.677,5.882-7.758,4.322-12.534-.746-2.283-2.182-4.217-4.151-5.59-.258-.179-.584-.228-.883-.13l-15.19,4.961c-.298.097-.533.329-.635.625-.781,2.272-.8,4.681-.054,6.964,1.514,4.636,5.832,7.586,10.464,7.586.141,0,.283-.011.424-.017l2.702,8.273-1.962,1.453c-.347.256-.489.705-.355,1.114l.932,2.852c.138.422.529.689.95.689.103,0,.207-.016.311-.05l9.506-3.104c.252-.082.461-.261.581-.498.12-.236.142-.511.059-.763ZM39.925,39.657c-2.145-1.088-3.736-2.945-4.482-5.229-.559-1.711-.592-3.508-.102-5.227l14.212-4.642c1.409,1.098,2.442,2.568,3.002,4.28,1.54,4.718-1.045,9.809-5.763,11.35-2.282.746-4.722.558-6.867-.532ZM47.337,54.739l-.396-1.216,1.962-1.453c.347-.256.489-.705.355-1.114l-2.81-8.602c.323-.074.645-.159.966-.264.321-.105.631-.228.936-.359l2.809,8.604c.133.409.514.687.944.689l2.441.015.397,1.217-7.605,2.483Z"/>
  <path d="M24,22c0,1.654,1.346,3,3,3s3-1.346,3-3-1.346-3-3-3-3,1.346-3,3ZM28,22c0,.552-.448,1-1,1s-1-.448-1-1,.448-1,1-1,1,.448,1,1Z"/>
  <path d="M37,25c1.654,0,3-1.346,3-3s-1.346-3-3-3-3,1.346-3,3,1.346,3,3,3ZM37,21c.552,0,1,.448,1,1s-.448,1-1,1-1-.448-1-1,.448-1,1-1Z"/>
  <path d="M33,8c0-.553-.447-1-1-1s-1,.447-1,1v8c0,.553.447,1,1,1s1-.447,1-1v-8Z"/>
  <path d="M21.485,8.858c2.785,1.671,4.515,4.727,4.515,7.974v.169c0,.553.447,1,1,1s1-.447,1-1v-.169c0-3.945-2.102-7.658-5.485-9.688-.475-.285-1.088-.13-1.372.343-.284.474-.131,1.088.343,1.372Z"/>
  <path d="M37,18c.553,0,1-.447,1-1v-.169c0-3.247,1.729-6.303,4.515-7.974.474-.284.627-.898.343-1.372-.284-.473-.897-.628-1.372-.343-3.384,2.03-5.485,5.743-5.485,9.688v.169c0,.553.447,1,1,1Z"/>
</svg>