<?xml version="1.0" encoding="UTF-8"?>
<svg id="Outline" xmlns="http://www.w3.org/2000/svg" version="1.1" viewBox="0 0 64 64">
  <!-- Generator: Adobe Illustrator 29.3.1, SVG Export Plug-In . SVG Version: 2.1.0 Build 151)  -->
  <path d="M32,7c-12.33691,0-22,5.71045-22,13,0,2.72021,1.38086,5.30518,4,7.50098v26.49902c0,1.6543,1.3457,3,3,3h30c1.6543,0,3-1.3457,3-3v-26.49902c2.61914-2.1958,4-4.78076,4-7.50098,0-7.28955-9.66309-13-22-13ZM48.38086,26.24023c-.24023.18945-.38086.479-.38086.78516v26.97461c0,.55127-.44824,1-1,1h-30c-.55176,0-1-.44873-1-1v-26.97461c0-.30615-.14062-.5957-.38086-.78516-1.65137-1.30225-3.61914-3.44238-3.61914-6.24023,0-6.06543,8.97168-11,20-11s20,4.93457,20,11c0,2.79785-1.96777,4.93799-3.61914,6.24023Z"/>
  <path d="M32,11c-9.58887,0-18,4.20557-18,9,0,1.57959.98926,3.19287,2.85742,4.66211l1.14258.90967v6.42822c0,.55225.44727,1,1,1s1-.44775,1-1v-6.91016c0-.30469-.13867-.59277-.37695-.78223l-1.52441-1.21387c-1.35352-1.06445-2.09863-2.16309-2.09863-3.09375,0-2.78662,6.38184-7,16-7s16,4.21338,16,7c0,.93066-.74512,2.0293-2.10352,3.09766l-1.51953,1.20996c-.23828.18945-.37695.47754-.37695.78223v25.91016h-24v-11c0-.55225-.44727-1-1-1s-1,.44775-1,1v12c0,.55225.44727,1,1,1h26c.55273,0,1-.44775,1-1v-26.42822l1.1377-.90576c1.87305-1.47314,2.8623-3.08643,2.8623-4.66602,0-4.79443-8.41113-9-18-9Z"/>
  <path d="M40.29297,40.29297l-7,7c-.39059.39059-.39062,1.02334-.00009,1.41397.37046.37055,1.02037.39388,1.41415.00009l7-7c.39062-.39062.39062-1.02344,0-1.41406s-1.02344-.39062-1.41406,0Z"/>
  <path d="M41.70703,34.29297c-.39062-.39062-1.02344-.39062-1.41406,0l-13,13c-.39062.39062-.39062,1.02341-.00003,1.41404.37123.37126,1.01884.39527,1.41409.00003l13-13c.39062-.39062.39062-1.02344,0-1.41406Z"/>
  <path d="M41.70703,28.29297c-.39062-.39062-1.02344-.39062-1.41406,0l-18,18c-.39062.39062-.39062,1.02344.00004,1.4141.38744.3874,1.02709.38691,1.41403-.00004l18-18c.39062-.39062.39062-1.02344,0-1.41406Z"/>
  <circle cx="19" cy="36" r="1"/>
</svg>