<?xml version="1.0" encoding="UTF-8"?>
<svg id="Outline" xmlns="http://www.w3.org/2000/svg" version="1.1" viewBox="0 0 64 64">
  <!-- Generator: Adobe Illustrator 29.5.1, SVG Export Plug-In . SVG Version: 2.1.0 Build 141)  -->
  <path d="M56,27h-3.18c-.42-1.16-1.52-2-2.82-2h-5v-8.16c2.66-1.03,4-2.32,4-3.84,0-3.94-9.56-6-19-6s-19,2.06-19,6c0,1.52,1.34,2.81,4,3.84v8.16h-5c-1.65,0-3,1.35-3,3v22c0,1.3.84,2.4,2,2.82v3.18c0,.55.45,1,1,1h6c.38,0,.73-.21.89-.55l1.73-3.45h22.76l1.73,3.45c.16.34.51.55.89.55h6c.55,0,1-.45,1-1v-3.18c1.16-.42,2-1.52,2-2.82v-17h3c.55,0,1-.45,1-1v-4c0-.55-.45-1-1-1ZM13,13c0-1.36,6-4,17-4s17,2.64,17,4c0,.39-.7,1.29-3.33,2.19-.4.14-.67.52-.67.95v8.86h-26v-8.86c0-.43-.27-.81-.67-.95-2.63-.9-3.33-1.8-3.33-2.19ZM9,31h2v16h-2v-16ZM15.38,55h-4.38v-2h5.38l-1,2ZM49,55h-4.38l-1-2h5.38v2ZM51,47h-2v-16h2v16ZM51,29h-3c-.55,0-1,.45-1,1v18c0,.55.45,1,1,1h3v1c0,.55-.45,1-1,1H10c-.55,0-1-.45-1-1v-1h3c.55,0,1-.45,1-1v-18c0-.55-.45-1-1-1h-3v-1c0-.55.45-1,1-1h40c.55,0,1,.45,1,1v1ZM55,31h-2v-2h2v2Z"/>
</svg>