<?xml version="1.0" encoding="UTF-8"?>
<svg id="Outline" xmlns="http://www.w3.org/2000/svg" version="1.1" viewBox="0 0 64 64">
  <!-- Generator: Adobe Illustrator 29.5.1, SVG Export Plug-In . SVG Version: 2.1.0 Build 141)  -->
  <path d="M56.979,39.07c-.74,10.06-11.7,17.93-24.96,17.93-13.79,0-25-8.52-25-19,0-6.39,4.14-12.22,10.97-15.73l-1.21-.3c-.4-.1-.69-.43-.75-.83-.06-.41.14-.8.49-1.01l2.32-1.33c2.75-1.57,5.94-2,8.96-1.24-.05-.5-.07-.99-.07-1.48,0-.74.05-1.49.16-2.22.08-.55.58-.93,1.13-.85.55.08.93.59.85,1.13-.09.65-.14,1.28-.14,1.94,0,.91.09,1.8.27,2.73.07.36-.06.73-.34.96-.28.23-.67.29-1.01.16-2.9-1.16-6.11-.93-8.81.61l-.17.09,5.59,1.4c.41.1.71.45.75.86.05.42-.17.82-.54,1-1.82.91-3.24,2.5-3.97,4.39,2.16-.72,4.46-.82,6.76-.25.45.11.76.51.76.97,0,2.28.92,4.51,2.54,6.12l.46.47.46-.47c.81-.8,1.44-1.75,1.88-2.8.44-1.07.66-2.18.66-3.32,0-.46.31-.86.76-.97l.72-.18c1.98-.5,4.08-.37,6,.34-.27-.7-.64-1.36-1.1-1.95-.75-.99-1.73-1.8-2.83-2.35-.37-.18-.59-.58-.54-1,.04-.41.34-.76.75-.86l5.59-1.4-.17-.09c-2.7-1.54-5.91-1.77-8.81-.61-.31.12-.66.08-.93-.1-.28-.19-.44-.5-.44-.83,0-3.42.81-6.85,2.35-9.92l.04-.08h-4.77l-.45.89c-.08.16-.16.33-.23.5-.21.51-.8.75-1.31.53-.51-.21-.75-.8-.53-1.31.09-.21.19-.42.29-.62l.72-1.44c.16-.34.51-.55.89-.55h7c.35,0,.67.18.85.47.18.3.2.66.05.97l-.76,1.53c-1.19,2.38-1.9,4.99-2.09,7.63,3.07-.81,6.33-.4,9.13,1.2l2.32,1.33c.35.21.55.6.49,1.01-.06.4-.35.73-.75.83l-1.21.3c5.59,2.89,9.48,7.42,10.61,12.51.12.54-.22,1.08-.76,1.2-.08.01-.15.02-.22.02-.46,0-.87-.32-.98-.78-1.14-5.15-5.53-9.67-11.76-12.17l-1.48.37c.56.48,1.08,1.01,1.53,1.6.93,1.23,1.59,2.67,1.89,4.17l.12.62c.07.37-.07.76-.38.99-.3.23-.71.26-1.05.09l-.97-.49c-1.74-.86-3.73-1.08-5.61-.61-.08,1.13-.35,2.23-.79,3.29-.53,1.3-1.31,2.46-2.3,3.46l-1.17,1.17c-.2.19-.45.29-.71.29s-.51-.1-.71-.29l-1.17-1.17c-1.79-1.79-2.89-4.21-3.09-6.72-2.19-.39-4.35-.05-6.27.91l-.3.16c-.34.17-.75.14-1.06-.09s-.46-.62-.38-.99l.12-.61c.46-2.27,1.69-4.31,3.42-5.78l-1.47-.37c-7.46,2.99-12.09,8.69-12.09,14.95,0,9.37,10.32,17,23,17,12.22,0,22.31-7.06,22.96-16.07.04-.55.53-.96,1.07-.93.55.04.97.52.93,1.07Z"/>
</svg>