<?xml version="1.0" encoding="UTF-8"?>
<svg id="Outline" xmlns="http://www.w3.org/2000/svg" version="1.1" viewBox="0 0 64 64">
  <!-- Generator: Adobe Illustrator 29.5.1, SVG Export Plug-In . SVG Version: 2.1.0 Build 141)  -->
  <path d="M57,36.5c0,4.55-1.78,8.86-5.15,12.47-.2.21-.46.32-.73.32-.24,0-.49-.09-.68-.27-.41-.38-.43-1.01-.05-1.41,3.02-3.24,4.61-7.08,4.61-11.11,0-5.43-2.94-10.53-8.08-14.06l-5.43,1.08c2.98,2.35,5.25,5.55,6.46,9.16.14.42-.01.89-.38,1.14-.36.25-.85.24-1.2-.04l-.31-.25c-2.6-2.08-5.8-3.3-9.11-3.5-.1,1.04-.36,2.07-.77,3.05-.53,1.3-1.31,2.46-2.3,3.46l-1.17,1.17c-.2.19-.45.29-.71.29s-.51-.1-.71-.29l-1.17-1.17c-1.74-1.75-2.83-4.07-3.07-6.51-.64.03-1.27.1-1.88.21-.54.09-1.06-.28-1.16-.82-.09-.54.28-1.06.82-1.16,1.01-.17,2.08-.26,3.17-.26.55,0,1,.45,1,1,0,2.28.92,4.51,2.54,6.12l.46.47.46-.47c.81-.8,1.44-1.75,1.88-2.8.44-1.07.66-2.18.66-3.32,0-.55.45-1,1-1,3.03,0,6.01.77,8.66,2.21-1.34-2.35-3.22-4.38-5.48-5.89l-.73-.49c-.34-.22-.51-.62-.43-1.02.08-.4.39-.71.78-.79l7.38-1.48c-2.61-1.49-7.86-1.79-10.81-.61-.31.12-.66.08-.93-.1-.28-.19-.44-.5-.44-.83,0-3.42.81-6.85,2.35-9.92l.04-.08h-4.77l-.45.89c-.95,1.91-1.46,4.05-1.46,6.19,0,.89.09,1.81.27,2.73.07.34-.05.69-.3.93-.26.23-.62.32-.95.22-3.54-1.01-7.35-.78-10.72.62l7.19,1.44c.39.08.7.39.78.79.08.39-.09.8-.43,1.02l-1.76,1.17c-1.23.83-2.28,1.88-3.12,3.12-.38.57-.7,1.17-.97,1.78.31-.15.62-.28.92-.41.51-.2,1.1.04,1.31.55.2.52-.04,1.1-.55,1.31-.71.28-1.42.64-2.16,1.08l-.7.43c-.34.2-.77.19-1.09-.04-.33-.23-.49-.63-.41-1.02.34-1.71,1.01-3.32,1.99-4.79.93-1.39,2.09-2.56,3.43-3.5l-5.36-1.07c-5.14,3.53-8.08,8.63-8.08,14.06,0,10.2,10.32,18.5,23,18.5,5.75,0,11.27-1.72,15.53-4.86.44-.32,1.07-.23,1.4.22.32.44.23,1.07-.22,1.4-4.6,3.38-10.53,5.24-16.71,5.24-13.79,0-25-9.2-25-20.5,0-5.56,2.71-10.79,7.5-14.64-.25-.14-.44-.4-.49-.7-.06-.41.13-.82.49-1.03l.68-.39c3.81-2.17,8.33-2.9,12.61-2.06-.05-.54-.08-1.07-.08-1.6,0-2.44.58-4.9,1.68-7.09l.72-1.44c.16-.34.51-.55.89-.55h7c.35,0,.67.18.85.47.18.3.2.66.05.97l-.76,1.53c-1.2,2.39-1.91,5.01-2.09,7.66,3.53-.86,8.37-.4,11.13,1.17l2.32,1.33c.36.21.55.62.49,1.03-.05.3-.24.56-.49.7,4.79,3.85,7.5,9.08,7.5,14.64Z"/>
  <path d="M52,35.5c-.553,0-1,.447-1,1,0,7.995-8.523,14.5-19,14.5-.553,0-1,.447-1,1s.447,1,1,1c11.579,0,21-7.402,21-16.5,0-.553-.447-1-1-1Z"/>
</svg>