<?xml version="1.0" encoding="UTF-8"?>
<svg id="Outline" xmlns="http://www.w3.org/2000/svg" version="1.1" viewBox="0 0 64 64">
  <!-- Generator: Adobe Illustrator 29.5.1, SVG Export Plug-In . SVG Version: 2.1.0 Build 141)  -->
  <path d="M52,39h-6.18c3.2-3.4,5.18-7.97,5.18-13,0-10.48-8.52-19-19-19S13,15.52,13,26c0,5.03,1.98,9.6,5.18,13h-6.18c-2.76,0-5,2.24-5,5v8c0,2.76,2.24,5,5,5h12c.4,0,.77-.24.92-.62.16-.37.07-.8-.21-1.09l-3.3-3.29,3-3h15.18l3,3-3.3,3.29c-.28.29-.37.72-.21,1.09.15.38.52.62.92.62h12c2.76,0,5-2.24,5-5v-8c0-2.76-2.24-5-5-5ZM15,26c0-9.37,7.63-17,17-17s17,7.63,17,17-7.63,17-17,17-17-7.63-17-17ZM19.29,51.29c-.39.39-.39,1.03,0,1.42l2.3,2.29h-9.59c-1.65,0-3-1.35-3-3s1.35-3,3-3h9.59l-2.3,2.29ZM52,55h-9.59l2.3-2.29c.39-.39.39-1.03,0-1.42l-2.3-2.29h9.59c1.65,0,3,1.35,3,3s-1.35,3-3,3ZM55,48.03c-.84-.64-1.87-1.03-3-1.03H12c-1.13,0-2.16.39-3,1.03v-4.03c0-1.65,1.35-3,3-3h8.38c3.22,2.5,7.24,4,11.62,4s8.4-1.5,11.62-4h8.38c1.65,0,3,1.35,3,3v4.03Z"/>
  <path d="M25.161,34.861c-.051.366.104.73.402.947.3.219.694.252,1.026.091l5.411-2.635,5.411,2.635c.139.067.288.101.438.101.598,0,1.073-.55.991-1.139l-.833-5.96,4.178-4.332c.257-.267.346-.652.231-1.003-.114-.352-.413-.611-.777-.676l-5.926-1.049-2.829-5.312c-.348-.652-1.418-.652-1.766,0l-2.829,5.312-5.926,1.049c-.364.064-.663.324-.777.676-.114.351-.025.736.231,1.003l4.178,4.332-.833,5.96ZM24.56,24.532l4.556-.807c.303-.054.564-.243.708-.515l2.175-4.084,2.175,4.084c.145.271.406.461.708.515l4.556.807-3.212,3.331c-.213.222-.313.528-.271.833l.641,4.583-4.16-2.026c-.138-.067-.288-.101-.438-.101s-.3.033-.438.101l-4.16,2.026.641-4.583c.042-.305-.057-.611-.271-.833l-3.212-3.331Z"/>
  <path d="M32,41c8.271,0,15-6.729,15-15s-6.729-15-15-15-15,6.729-15,15,6.729,15,15,15ZM32,13c7.168,0,13,5.832,13,13s-5.832,13-13,13-13-5.832-13-13,5.832-13,13-13Z"/>
</svg>