<?xml version="1.0" encoding="UTF-8"?>
<svg id="Outline" xmlns="http://www.w3.org/2000/svg" version="1.1" viewBox="0 0 64 64">
  <!-- Generator: Adobe Illustrator 29.5.1, SVG Export Plug-In . SVG Version: 2.1.0 Build 141)  -->
  <path d="M56,55h-3v-5c0-.55-.45-1-1-1h-1v-22h1c.55,0,1-.45,1-1v-4c0-.55-.45-1-1-1h-1v-6.59l5.71-5.7c.28-.29.37-.72.21-1.09-.15-.38-.52-.62-.92-.62H8c-.4,0-.77.24-.92.62-.16.37-.07.8.21,1.09l5.71,5.7v6.59h-1c-.55,0-1,.45-1,1v4c0,.55.45,1,1,1h1v22h-1c-.55,0-1,.45-1,1v5h-3c-.55,0-1,.45-1,1s.45,1,1,1h48c.55,0,1-.45,1-1s-.45-1-1-1ZM10.41,9h43.18l-4,4H14.41l-4-4ZM15,17v-2h34v2H15ZM49,19v2h-2v-2h2ZM45,19v2h-26v-2h26ZM17,19v2h-2v-2h2ZM13,23h38v2H13v-2ZM49,27v22h-2v-22h2ZM17,27v22h-2v-22h2ZM19,55h-6v-4h6v4ZM43,50v5h-22v-5c0-.55-.45-1-1-1h-1v-22h4v2h-1c-.55,0-1,.45-1,1v6c0,.55.45,1,1,1h4c.55,0,1-.45,1-1v-6c0-.55-.45-1-1-1h-1v-2h6v2h-1c-.55,0-1,.45-1,1v6c0,.55.45,1,1,1h4c.55,0,1-.45,1-1v-6c0-.55-.45-1-1-1h-1v-2h6v2h-1c-.55,0-1,.45-1,1v6c0,.55.45,1,1,1h4c.55,0,1-.45,1-1v-6c0-.55-.45-1-1-1h-1v-2h4v22h-1c-.55,0-1,.45-1,1ZM25,31v4h-2v-4h2ZM33,31v4h-2v-4h2ZM41,31v4h-2v-4h2ZM51,55h-6v-4h6v4Z"/>
</svg>