<?xml version="1.0" encoding="UTF-8"?>
<svg id="Outline" xmlns="http://www.w3.org/2000/svg" version="1.1" viewBox="0 0 64 64">
  <!-- Generator: Adobe Illustrator 29.3.1, SVG Export Plug-In . SVG Version: 2.1.0 Build 151)  -->
  <path d="M50,25h-3v-13c0-.33002-.16998-.65002-.45001-.83002l-6-4c-.02997-.02997-.07001-.03998-.10999-.06-.03003-.01001-.04999-.03003-.08002-.03998-.10999-.04004-.22998-.06-.33997-.07001h-16.04004c-.10999.01001-.22998.02997-.33997.07001-.03003.00995-.04999.02997-.08002.03998-.03998.02002-.08002.03003-.10999.06l-6,4c-.28003.17999-.45001.5-.45001.83002v13h-3c-1.65002,0-3,1.34998-3,3v26c0,1.64996,1.34998,3,3,3h36c1.65002,0,3-1.35004,3-3v-26c0-1.65002-1.34998-3-3-3ZM41,9.87l4,2.66998v12.46002h-4v-15.13ZM25,9h14v4h-14v-4ZM25,15h14v10h-14v-10ZM19,12.53998l4-2.66998v15.13h-4v-12.46002ZM51,54c0,.54999-.45001,1-1,1H14c-.54999,0-1-.45001-1-1v-1h38v1ZM51,51H13v-23c0-.54999.45001-1,1-1h36c.54999,0,1,.45001,1,1v23Z"/>
  <path d="M16,35h32c.55225,0,1-.44775,1-1v-4c0-.55225-.44775-1-1-1H16c-.55225,0-1,.44775-1,1v4c0,.55225.44775,1,1,1ZM17,31h30v2h-30v-2Z"/>
</svg>