<?xml version="1.0" encoding="UTF-8"?>
<svg id="Outline" xmlns="http://www.w3.org/2000/svg" version="1.1" viewBox="0 0 64 64">
  <!-- Generator: Adobe Illustrator 29.5.1, SVG Export Plug-In . SVG Version: 2.1.0 Build 141)  -->
  <circle cx="15.99975" cy="45" r="1"/>
  <circle cx="31.99975" cy="45" r="1"/>
  <circle cx="45.99975" cy="45" r="1"/>
  <path d="M56.93975,44.64996l-3-8c-.15002-.38995-.52002-.64996-.94-.64996h-2v-7c0-1.65002-1.34998-3-3-3h-2v-6h1c.54999,0,1-.45001,1-1v-4c0-.54999-.45001-1-1-1h-10c-.54999,0-1,.45001-1,1v4c0,.54999.45001,1,1,1h1v6h-9v-6h1c.54999,0,1-.45001,1-1v-4c0-.54999-.45001-1-1-1H7.99975c-.54999,0-1,.45001-1,1v4c0,.54999.45001,1,1,1h1v16h-1c-.54999,0-1,.45001-1,1v8c0,.54999.45001,1,1,1h3.09998c.47003,2.27997,2.49005,4,4.90002,4s4.42999-1.72003,4.90002-4h6.19995c.47003,2.27997,2.49005,4,4.90002,4s4.42999-1.72003,4.90002-4h4.19995c.47003,2.27997,2.49005,4,4.90002,4s4.42999-1.72003,4.90002-4h5.09998c.33002,0,.64001-.16003.82001-.42999.19-.27002.22998-.61005.12-.92004ZM37.99975,16h8v2h-8v-2ZM43.99975,20v6h-4v-6h4ZM47.99975,28c.54999,0,1,.45001,1,1v7h-20v-8h19ZM8.99975,16h20v2H8.99975v-2ZM26.99975,20v16H10.99975v-16h16ZM15.99975,48c-1.65002,0-3-1.35004-3-3s1.34998-3,3-3,3,1.34998,3,3-1.34998,3-3,3ZM31.99975,48c-1.65002,0-3-1.35004-3-3s1.34998-3,3-3,3,1.34998,3,3-1.34998,3-3,3ZM45.99975,48c-1.65002,0-3-1.35004-3-3s1.34998-3,3-3,3,1.34998,3,3-1.34998,3-3,3ZM50.89978,44c-.47003-2.28003-2.49005-4-4.90002-4s-4.42999,1.71997-4.90002,4h-4.19995c-.47003-2.28003-2.49005-4-4.90002-4s-4.42999,1.71997-4.90002,4h-6.19995c-.47003-2.28003-2.49005-4-4.90002-4s-4.42999,1.71997-4.90002,4h-2.09998v-6h43.31l2.25,6h-3.65997Z"/>
  <path d="M23.99975,22h-10c-.55225,0-1,.44775-1,1v8c0,.55225.44775,1,1,1h10c.55225,0,1-.44775,1-1v-8c0-.55225-.44775-1-1-1ZM22.99975,30h-8v-6h8v6Z"/>
</svg>