<?xml version="1.0" encoding="UTF-8"?>
<svg id="Outline" xmlns="http://www.w3.org/2000/svg" version="1.1" viewBox="0 0 64 64">
  <!-- Generator: Adobe Illustrator 29.5.1, SVG Export Plug-In . SVG Version: 2.1.0 Build 141)  -->
  <path d="M52.71002,27.29124L32.71002,7.29124c-.39001-.39001-1.03003-.39001-1.42004,0L11.28998,27.29124c-.27997.28998-.37.72003-.20996,1.09003.14996.38.51996.62.91998.62h3v12h-2c-.54999,0-1,.45001-1,1v14c0,.54999.45001,1,1,1h9c.54999,0,1-.45001,1-1,0-4.96002,4.03998-9,9-9s9,4.03998,9,9c0,.54999.45001,1,1,1h9c.54999,0,1-.45001,1-1v-14c0-.54999-.45001-1-1-1h-2v-12h3c.40002,0,.77002-.23999.91998-.62.16003-.37.07001-.80005-.20996-1.09003ZM50,43.00127v12h-7.03998c-.51001-5.60004-5.23004-10-10.96002-10s-10.45001,4.39996-10.96002,10h-7.03998v-12h36ZM32,32.00127c-5.17999,0-9.45001,3.95001-9.95001,9h-5.04999v-12h30v12h-5.04999c-.5-5.04999-4.77002-9-9.95001-9ZM39.92999,41.00127h-15.85999c.48999-3.94,3.85999-7,7.92999-7s7.44,3.06,7.92999,7ZM14.40997,27.00127l17.59003-17.59003,17.59003,17.59003H14.40997Z"/>
</svg>