<?xml version="1.0" encoding="UTF-8"?>
<svg id="Outline" xmlns="http://www.w3.org/2000/svg" version="1.1" viewBox="0 0 64 64">
  <!-- Generator: Adobe Illustrator 29.5.1, SVG Export Plug-In . SVG Version: 2.1.0 Build 141)  -->
  <circle cx="29" cy="16.047" r="1"/>
  <circle cx="35" cy="16.047" r="1"/>
  <path d="M53,43.047c.55,0,1-.45,1-1v-4c0-.55-.45-1-1-1h-9.45c.01-.11.03-.23.03-.34,0-.9-.26-1.74-.7-2.45.51.3,1.09.48,1.69.48,1.844,0,3.37-1.529,3.37-3.37,0-2.43-1.16-4.75-3.11-6.21l-3.74-2.8c.8-1.29,1.25-2.76,1.25-4.33,0-1.06-.22-2.08-.61-3.04,1.8-1.84,1.8-4.81-.04-6.65-1.85-1.85-4.85-1.84-6.69,0-.26.25-.47.54-.66.84-.75-.15-1.53-.24-2.34-.24s-1.59.09-2.34.24c-.19-.3-.4-.59-.66-.84-1.84-1.84-4.84-1.85-6.7,0-1.83,1.84-1.83,4.81-.03,6.65-.39.96-.61,1.98-.61,3.04,0,1.57.45,3.04,1.25,4.33l-3.74,2.8c-1.95,1.46-3.11,3.78-3.11,6.21,0,1.757,1.594,3.37,3.37,3.37.6,0,1.18-.18,1.69-.48-.44.71-.7,1.55-.7,2.45,0,.11.02.23.03.34h-9.45c-.55,0-1,.45-1,1v16c0,1.65,1.35,3,3,3h38c1.65,0,3-1.35,3-3v-4c0-.55-.45-1-1-1s-1,.45-1,1v4c0,.55-.45,1-1,1h-15v-16h16v3c0,.55.45,1,1,1ZM36.41,9.747c1.06-1.06,2.8-1.06,3.87,0,.91.91,1.04,2.31.4,3.36-1.05-1.43-2.55-2.58-4.31-3.31.01-.01.03-.03.04-.05ZM32,10.937c4.6,0,8.34,3.18,8.34,7.09,0,2.76-1.87,5.15-4.58,6.32.15-.41.24-.84.24-1.3,0-2.21-1.79-4-4-4s-4,1.79-4,4c0,.46.09.89.24,1.3-2.71-1.17-4.58-3.56-4.58-6.32,0-3.91,3.74-7.09,8.34-7.09ZM34,23.047c0,1.1-.9,2-2,2s-2-.9-2-2,.9-2,2-2,2,.9,2,2ZM23.72,9.747c1.07-1.06,2.8-1.06,3.87,0,.01.02.03.04.04.05-1.76.73-3.26,1.88-4.31,3.31-.64-1.05-.51-2.45.4-3.36ZM20.49,32.217c-.37.47-1.02.64-1.57.42-.52-.21-.86-.71-.86-1.27,0-1.8.86-3.52,2.31-4.6l2.1-1.59c-.76,1.82-1.07,3.78-.93,5.73l-1.05,1.31ZM28,55.047h-15c-.55,0-1-.45-1-1v-15h16v16ZM28.89,36.947h-6.23c-.13,0-.24-.11-.24-.24,0-1.51,1.22-2.74,2.73-2.74h1.25c1.51,0,2.73,1.23,2.73,2.74,0,.13-.11.24-.24.24ZM34,55.047h-4v-16h4v16ZM32.87,36.707c0,.11.01.23.03.34h-1.8c.02-.11.03-.23.03-.34,0-2.61-2.12-4.74-4.73-4.74h-1.25c-.49,0-.96.1-1.42.24-.07-.36-.13-.72-.17-1.09v-.01c-.25-2.22.23-4.48,1.39-6.44,1.85,1.52,4.33,2.46,7.05,2.46s5.2-.94,7.05-2.46c1.16,1.96,1.64,4.22,1.39,6.44v.01c-.04.37-.1.73-.17,1.09-.46-.14-.93-.24-1.42-.24h-1.25c-2.61,0-4.73,2.13-4.73,4.74ZM41.34,36.947h-6.23c-.13,0-.24-.11-.24-.24,0-1.51,1.22-2.74,2.73-2.74h1.25c1.51,0,2.73,1.23,2.73,2.74,0,.13-.11.24-.24.24ZM41.53,25.177l2.1,1.59c1.45,1.08,2.31,2.8,2.31,4.6,0,.56-.34,1.06-.86,1.27-.55.22-1.2.05-1.57-.42l-1.05-1.31c.14-1.95-.17-3.91-.93-5.73Z"/>
  <path d="M26.466,45.558c-.113-.349-.408-.607-.769-.674l-3.07-.57-1.491-2.744c-.35-.644-1.408-.644-1.758,0l-1.49,2.744-3.07.569c-.36.067-.655.326-.769.674s-.026.731.226.998l2.149,2.265-.407,3.096c-.077.584.404,1.13.991,1.13.146,0,.294-.032.431-.097l2.818-1.344,2.819,1.344c.334.158.724.122,1.019-.094.297-.216.451-.576.403-.939l-.407-3.096,2.149-2.265c.252-.266.339-.649.226-.998ZM22.312,47.79c-.207.219-.306.52-.266.819l.229,1.744-1.588-.757c-.137-.065-.283-.097-.431-.097s-.294.032-.431.097l-1.587.757.229-1.744c.04-.299-.059-.6-.266-.819l-1.211-1.275,1.729-.321c.296-.055.552-.241.696-.506l.839-1.545.84,1.546c.145.265.4.451.696.506l1.729.321-1.211,1.275Z"/>
  <path d="M49.951,45.558c-.113-.349-.408-.607-.769-.674l-3.07-.569-1.49-2.744c-.175-.322-.513-.523-.879-.523s-.704.201-.879.522l-1.491,2.744-3.07.57c-.36.067-.655.326-.769.674s-.026.731.226.998l2.149,2.265-.407,3.096c-.048.363.106.724.403.939s.686.251,1.019.094l2.819-1.344,2.818,1.344c.137.065.284.097.43.097.595,0,1.069-.543.992-1.13l-.407-3.096,2.149-2.265c.252-.266.339-.649.226-.998ZM45.797,47.79c-.207.219-.306.52-.266.819l.229,1.744-1.587-.757c-.273-.13-.588-.13-.861,0l-1.588.757.229-1.744c.04-.299-.059-.6-.266-.819l-1.211-1.275,1.729-.321c.296-.055.552-.241.696-.506l.84-1.546.839,1.545c.145.265.4.451.696.506l1.729.321-1.211,1.275Z"/>
  <circle cx="53" cy="46.047" r="1"/>
</svg>