<?xml version="1.0" encoding="UTF-8"?>
<svg id="Outline" xmlns="http://www.w3.org/2000/svg" version="1.1" viewBox="0 0 64 64">
  <!-- Generator: Adobe Illustrator 29.5.1, SVG Export Plug-In . SVG Version: 2.1.0 Build 141)  -->
  <path d="M55.221,31.77c-.12-1.55-1.43-2.77-2.99-2.77h-17.15c-.55,0-1,.45-1,1s.45,1,1,1h8.56l-8.21,13h-16.96l1.4-12.12c.06-.5.48-.88.99-.88h6.22c.55,0,1-.45,1-1s-.45-1-1-1h-6.22c-1.53,0-2.81,1.14-2.97,2.66l-2.54,21.99c-.1.85.17,1.71.73,2.35.57.63,1.39,1,2.24,1h35.6c.83,0,1.64-.35,2.2-.96s.85-1.44.79-2.27l-1.69-22ZM54.611,50h-7.03l-4.8-6.41,1.14-1.81,4.36,5.82c.19.25.49.4.8.4h5.38l.15,2ZM52.231,31c.53,0,.95.4.99.93l1.08,14.07h-4.72l-4.52-6.03,5.67-8.97h1.5ZM18.241,46h17.74c.34,0,.66-.18.85-.47l9.17-14.53h2.37l-5.38,8.51s0,.01-.01.01l-2.27,3.6c-.01.01-.01.02-.02.03l-3.06,4.85h-19.62l.23-2ZM54.651,54.68c-.19.21-.45.32-.73.32H18.321c-.29,0-.55-.12-.74-.33-.19-.22-.28-.5-.25-.79l.45-3.88h20.4c.34,0,.66-.18.85-.47l2.6-4.13,4.65,6.2c.19.25.49.4.8.4h7.68l.15,1.93c.02.28-.07.55-.26.75Z"/>
  <path d="M18.265,23c.414,1.161,1.514,2,2.816,2s2.402-.839,2.816-2h2.184c.553,0,1-.448,1-1v-8c0-.107-.018-.214-.052-.316l-2-6c-.136-.408-.518-.684-.948-.684h-6c-.553,0-1,.448-1,1v5h-9c-.553,0-1,.448-1,1v8c0,.552.447,1,1,1h2.184c.414,1.161,1.514,2,2.816,2s2.402-.839,2.816-2h2.369ZM21.081,23c-.552,0-1-.449-1-1s.448-1,1-1,1,.449,1,1-.448,1-1,1ZM9.081,15h9c.553,0,1-.448,1-1v-5h4.279l1.721,5.162v6.838h-1.184c-.414-1.161-1.514-2-2.816-2s-2.402.839-2.816,2h-2.369c-.414-1.161-1.514-2-2.816-2s-2.402.839-2.816,2h-1.184v-6ZM13.081,23c-.552,0-1-.449-1-1s.448-1,1-1,1,.449,1,1-.448,1-1,1Z"/>
  <path d="M30.081,18h2c.553,0,1-.448,1-1s-.447-1-1-1h-2c-.553,0-1,.448-1,1s.447,1,1,1Z"/>
  <path d="M45.363,18h.718c.552,0,1,.449,1,1v.567c0,.552.447,1,1,1s1-.448,1-1v-.567c0-1.654-1.346-3-3-3h-.718c-.553,0-1,.448-1,1s.447,1,1,1Z"/>
  <path d="M36.509,18h4.428c.553,0,1-.448,1-1s-.447-1-1-1h-4.428c-.553,0-1,.448-1,1s.447,1,1,1Z"/>
  <path d="M48.081,23c-.553,0-1,.448-1,1v2c0,.552.447,1,1,1s1-.448,1-1v-2c0-.552-.447-1-1-1Z"/>
  <circle cx="31.081" cy="30" r="1"/>
</svg>