<?xml version="1.0" encoding="UTF-8"?>
<svg id="Outline" xmlns="http://www.w3.org/2000/svg" version="1.1" viewBox="0 0 48 48">
  <!-- Generator: Adobe Illustrator 29.0.0, SVG Export Plug-In . SVG Version: 2.1.0 Build 186)  -->
  <path d="M33,31c.28418,0,.55469-.12109.74414-.33203.94727-1.05566,9.25586-10.46484,9.25586-15.66797,0-5.51367-4.48584-10-10-10s-10,4.48633-10,10c0,5.20312,8.30859,14.6123,9.25586,15.66797.18945.21094.45996.33203.74414.33203ZM33,7c4.41113,0,8,3.58887,8,8,0,3.42188-5.22607,10.23828-8,13.48047-2.77393-3.24219-8-10.05859-8-13.48047,0-4.41113,3.58887-8,8-8Z"/>
  <path d="M39,15c0-.7666-.14209-1.50879-.42285-2.2041-.20605-.51172-.78711-.75781-1.30127-.55371-.51221.20703-.75977.78906-.55322,1.30176.18408.45703.27734.94629.27734,1.45605,0,2.20605-1.79443,4-4,4s-4-1.79395-4-4,1.79443-4,4-4c.50928,0,.99951.09375,1.45654.27734.51367.2041,1.09521-.04199,1.30127-.55469.20605-.51172-.04199-1.09473-.5542-1.30078-.6958-.28027-1.4375-.42188-2.20361-.42188-3.30859,0-6,2.69141-6,6s2.69141,6,6,6,6-2.69141,6-6Z"/>
  <path d="M24,33c.54999,0,1-.45001,1-1v-6c0-.33002-.16998-.65002-.45001-.83002l-9-6c-.33002-.22998-.76996-.22998-1.09998,0l-9,6c-.28003.17999-.45001.5-.45001.83002v16c0,.54999.45001,1,1,1h18c.54999,0,1-.45001,1-1v-6c0-.54999-.45001-1-1-1s-1,.45001-1,1v5h-4v-7c0-.54999-.45001-1-1-1h-6c-.54999,0-1,.45001-1,1v7h-4v-14.46002l8-5.33997,8,5.33997v5.46002c0,.54999.45001,1,1,1ZM13,35h4v6h-4v-6Z"/>
  <path d="M13,25c-.55225,0-1,.44727-1,1v4c0,.55273.44775,1,1,1h4c.55225,0,1-.44727,1-1v-4c0-.55273-.44775-1-1-1h-4ZM16,29h-2v-2h2v2Z"/>
  <path d="M33,33c-.55225,0-1,.44727-1,1v3c0,.55176-.44873,1-1,1h-3c-.55225,0-1,.44727-1,1s.44775,1,1,1h3c1.6543,0,3-1.3457,3-3v-3c0-.55273-.44775-1-1-1Z"/>
</svg>