<?xml version="1.0" encoding="UTF-8"?>
<svg id="Outline" xmlns="http://www.w3.org/2000/svg" version="1.1" viewBox="0 0 64 64">
  <!-- Generator: Adobe Illustrator 29.5.1, SVG Export Plug-In . SVG Version: 2.1.0 Build 141)  -->
  <path d="M36,15c0-2.206-1.794-4-4-4s-4,1.794-4,4,1.794,4,4,4,4-1.794,4-4ZM30,15c0-1.103.897-2,2-2s2,.897,2,2-.897,2-2,2-2-.897-2-2Z"/>
  <path d="M32,29c.312,0,.604-.145.794-.392.737-.962,7.206-9.521,7.206-13.608,0-4.411-3.589-8-8-8s-8,3.589-8,8c0,4.087,6.469,12.646,7.206,13.608.189.247.482.392.794.392ZM32,9c3.309,0,6,2.691,6,6,0,2.545-3.802,8.302-6,11.326-2.198-3.023-6-8.78-6-11.326,0-3.309,2.691-6,6-6Z"/>
  <path d="M56.53,36.15l-8-5-.01.01c-.15-.09-.33-.16-.52-.16H16c-.19,0-.37.07-.52.16l-.01-.01-8,5c-.23.15-.39.38-.45.64-.05.26,0,.54.15.76l2,3c.19.29.51.45.83.45.17,0,.34-.04.5-.13l3.33-1.91-.82,4.88c-.05.29.04.58.23.81.19.22.47.35.76.35h1v9c0,1.65,1.35,3,3,3h28c1.65,0,3-1.35,3-3v-9h1c.29,0,.57-.13.76-.35.19-.23.28-.52.23-.81l-.82-4.88,3.33,1.91c.16.09.33.13.5.13.32,0,.64-.16.83-.45l2-3c.15-.22.2-.5.15-.76-.06-.26-.22-.49-.45-.64ZM14.25,36.42l-3.94,2.25-.91-1.37,5.25-3.28-.4,2.4ZM47,54c0,.55-.45,1-1,1h-28c-.55,0-1-.45-1-1v-9h30v9ZM15.18,43l1.67-10h30.3l1.67,10H15.18ZM53.69,38.67l-3.94-2.25-.4-2.4,5.25,3.28-.91,1.37Z"/>
</svg>