<?xml version="1.0" encoding="UTF-8"?>
<svg id="Outline" xmlns="http://www.w3.org/2000/svg" version="1.1" viewBox="0 0 64 64">
  <!-- Generator: Adobe Illustrator 29.3.1, SVG Export Plug-In . SVG Version: 2.1.0 Build 151)  -->
  <path d="M43.85449,46.84082c.43164-.34473.50195-.97363.15723-1.40527-.34473-.43066-.97266-.50293-1.40527-.15723-2.25098,1.79749-4.84027,2.96454-7.60645,3.45483v-3.23315c0-.82715.67285-1.5,1.5-1.5h2c1.92969,0,3.5-1.57031,3.5-3.5s-1.57031-3.5-3.5-3.5h-3.5c-.55176,0-1-.44824-1-1s.44824-1,1-1h5c1.6543,0,3-1.3457,3-3,0-.55176.44824-1,1-1h4.95667c.01935.33282.04333.6651.04333,1,0,3.89062-1.28711,7.55762-3.72168,10.60645-.34473.43164-.27441,1.06055.15723,1.40527.18457.14746.4043.21875.62305.21875.29395,0,.58496-.12891.78223-.37598,2.7207-3.40625,4.15918-7.50586,4.15918-11.85449,0-1.87976-.28961-3.73077-.82965-5.52374,3.96295-1.3299,6.82965-5.07147,6.82965-9.47626,0-5.51367-4.48633-10-10-10-1.87988,0-3.71973.53027-5.32031,1.53223-.46875.29297-.61035.91016-.31738,1.37793.29297.46973.91211.60938,1.37793.31738,1.2832-.80273,2.75586-1.22754,4.25977-1.22754,4.41113,0,8,3.58887,8,8s-3.58887,8-8,8-8-3.58887-8-8c0-1.50391.4248-2.97656,1.22754-4.25977.29297-.46777.15137-1.08496-.31738-1.37793-.4668-.29199-1.08496-.15234-1.37793.31738-.42444.67804-.74457,1.4054-.99524,2.15411-1.79712-.54266-3.65259-.8338-5.53699-.8338-10.47656,0-19,8.52344-19,19,0,1.87976.28961,3.73077.82965,5.52374-3.96289,1.3299-6.82965,5.07147-6.82965,9.47626,0,5.51367,4.48633,10,10,10,4.40479,0,8.14636-2.86676,9.47626-6.82965,1.79297.54004,3.64398.82965,5.52374.82965,4.34863,0,8.44824-1.43848,11.85449-4.15918ZM15,32c0-4.19446,1.53461-8.03198,4.06171-10.99988l3.43927.00085c.82715.00098,1.49902.67285,1.49902,1.49902,0,1.92969,1.56836,3.49902,3.49414,3.49902l3.00977.00098c.8252,0,1.49609.67285,1.49609,1.5s-.67285,1.5-1.5,1.5h-8c-1.92969,0-3.5,1.57031-3.5,3.5s1.57031,3.5,3.5,3.5h4c1.37891,0,2.5,1.12109,2.5,2.5s-1.12109,2.5-2.5,2.5h-1.51929c-1.82666-2.42334-4.71948-4-7.98071-4-.4118,0-.81543.03271-1.21436.08136-.51111-1.64758-.78564-3.35022-.78564-5.08136ZM17,55c-4.41113,0-8-3.58887-8-8s3.58887-8,8-8,8,3.58887,8,8-3.58887,8-8,8ZM26.15912,43h.34088c2.48145,0,4.5-2.01855,4.5-4.5s-2.01855-4.5-4.5-4.5h-4c-.82715,0-1.5-.67285-1.5-1.5s.67285-1.5,1.5-1.5h8c1.92969,0,3.5-1.57031,3.5-3.5s-1.56836-3.5-3.49609-3.5l-3.00879-.00098c-.82422,0-1.49512-.67285-1.49512-1.49902,0-1.92773-1.56934-3.49805-3.49805-3.49902l-1.43463-.00037c2.95831-2.492,6.77081-4.00061,10.93268-4.00061,1.73254,0,3.43658.2749,5.08539.78687-.04926.40167-.08539.80566-.08539,1.21313,0,5.51367,4.48633,10,10,10,.41187,0,.81549-.03271,1.21442-.08136.21265.68555.3963,1.37787.52112,2.08136h-4.73553c-1.6543,0-3,1.3457-3,3,0,.55176-.44824,1-1,1h-5c-1.6543,0-3,1.3457-3,3s1.3457,3,3,3h3.5c.82715,0,1.5.67285,1.5,1.5s-.67285,1.5-1.5,1.5h-2c-1.92969,0-3.5,1.57031-3.5,3.5v3.4585c-.33234.0191-.66406.0415-1,.0415-1.73114,0-3.43378-.27454-5.08136-.78564.04865-.39893.08136-.80255.08136-1.21436,0-1.42236-.30316-2.7738-.84088-4Z"/>
  <path d="M47,20c-.55176,0-1-.44824-1-1,0-.55273-.44727-1-1-1s-1,.44727-1,1c0,1.30194.8385,2.40155,2,2.81567v.18433c0,.55273.44727,1,1,1s1-.44727,1-1v-.18427c1.1615-.41412,2-1.51379,2-2.81573,0-1.6543-1.3457-3-3-3-.55176,0-1-.44824-1-1s.44824-1,1-1,1,.44824,1,1c0,.55273.44727,1,1,1s1-.44727,1-1c0-1.30194-.8385-2.40161-2-2.81573v-.18427c0-.55273-.44727-1-1-1s-1,.44727-1,1v.18427c-1.1615.41412-2,1.51379-2,2.81573,0,1.6543,1.3457,3,3,3,.55176,0,1,.44824,1,1s-.44824,1-1,1Z"/>
  <path d="M17,44c.55176,0,1,.44824,1,1,0,.55273.44727,1,1,1s1-.44727,1-1c0-1.30194-.8385-2.40161-2-2.81573v-.18427c0-.55273-.44727-1-1-1s-1,.44727-1,1v.18427c-1.1615.41412-2,1.51379-2,2.81573,0,1.6543,1.3457,3,3,3,.55176,0,1,.44824,1,1s-.44824,1-1,1-1-.44824-1-1c0-.55273-.44727-1-1-1s-1,.44727-1,1c0,1.30194.8385,2.40155,2,2.81567v.18433c0,.55273.44727,1,1,1s1-.44727,1-1v-.18427c1.1615-.41412,2-1.51379,2-2.81573,0-1.6543-1.3457-3-3-3-.55176,0-1-.44824-1-1s.44824-1,1-1Z"/>
  <path d="M9.33203,23.18164c.01074,0,.02246,0,.03418-.00098.4375-.01465.81445-.31152.92969-.7334.78613-2.85742,2.62402-5.2627,5.17383-6.77246l1.87695-1.11035.68359.88379c.22656.29199.5957.43262.95801.37402.36328-.06152.66406-.31836.78125-.66797l2.29492-6.83594c.10645-.31738.04688-.66602-.15723-.93066-.20508-.26367-.52441-.40527-.86133-.38477l-7.19238.50977c-.36816.02539-.69141.25195-.84277.58887-.15039.33594-.10352.72852.12207,1.01953l.6123.79199-2.11621,1.6377c-3.33203,2.5791-4.63379,6.98438-3.24023,10.96191.14062.40137.51953.66895.94336.66895ZM12.85352,13.13281l2.90625-2.25c.43652-.33789.5166-.96582.17871-1.40234l-.08105-.10547,3.83301-.27148-1.22266,3.64355-.08008-.10449c-.30859-.39844-.86719-.50684-1.2998-.24805l-2.63672,1.55957c-1.88868,1.11816-3.44434,2.65332-4.56836,4.47559.22461-2.04883,1.26172-3.97461,2.9707-5.29688Z"/>
  <path d="M54.63379,40.81934c-.4375.01465-.81445.31152-.92969.7334-.78613,2.85742-2.62402,5.2627-5.17383,6.77246l-1.87695,1.11035-.68359-.88379c-.22559-.29199-.59277-.42969-.95801-.37402-.36328.06152-.66406.31836-.78125.66797l-2.29492,6.83594c-.10645.31738-.04688.66602.15723.93066.19043.24512.4834.3877.79102.3877.02344,0,.04688-.00098.07031-.00293l7.19238-.50977c.36816-.02539.69141-.25195.84277-.58887.15039-.33594.10352-.72852-.12207-1.01953l-.6123-.79199,2.11621-1.6377c3.33203-2.5791,4.63379-6.98438,3.24023-10.96191-.14355-.41113-.49609-.69336-.97754-.66797ZM51.14648,50.86719l-2.90625,2.25c-.43652.33789-.5166.96582-.17871,1.40234l.08105.10547-3.83301.27148,1.22266-3.64355.08008.10449c.30957.40039.86914.50684,1.2998.24805l2.63672-1.55957c1.88866-1.11816,3.44434-2.65332,4.56836-4.47559-.22461,2.04883-1.26172,3.97461-2.9707,5.29688Z"/>
</svg>