<?xml version="1.0" encoding="UTF-8"?>
<svg id="Outline" xmlns="http://www.w3.org/2000/svg" version="1.1" viewBox="0 0 64 64">
  <!-- Generator: Adobe Illustrator 29.5.1, SVG Export Plug-In . SVG Version: 2.1.0 Build 141)  -->
  <path d="M55.999,55h-2.97c.14-3.44,1.01-6.85,2.55-9.92l1.31-2.63c.2-.4.12-.88-.21-1.18-.33-.31-.81-.36-1.19-.13l-3.14,1.89c-1.63.97-3.03,2.24-4.16,3.7-1.28-3.93-3.65-7.47-6.86-10.11l-1.69-1.39c-.35-.29-.84-.31-1.21-.05-.36.25-.52.71-.38,1.14,1.96,5.87,2.95,11.98,2.95,18.17v.51h-6v-22h12c.31,0,.61-.15.8-.4l9-12c.27-.36.27-.84,0-1.2l-9-12c-.19-.25-.49-.4-.8-.4H13.999c-.55,0-1,.45-1,1v24c0,.55.45,1,1,1h15v22h-6v-.51c0-6.19.99-12.3,2.95-18.17.14-.43-.02-.89-.38-1.14-.37-.26-.86-.24-1.21.05l-1.69,1.39c-3.21,2.64-5.58,6.18-6.86,10.11-1.13-1.46-2.53-2.73-4.16-3.7l-3.14-1.89c-.38-.23-.86-.18-1.19.13-.33.3-.41.78-.21,1.18l1.31,2.63c1.54,3.07,2.41,6.48,2.55,9.92h-2.97c-.55,0-1,.45-1,1s.45,1,1,1h48c.55,0,1-.45,1-1s-.45-1-1-1ZM12.969,55c-.14-3.58-1-7.14-2.55-10.38l.21.12c3.64,2.19,6,6.06,6.33,10.26h-3.99ZM20.999,55h-2.03c-.15-2.12-.74-4.16-1.71-6.01.88-3.85,2.92-7.38,5.81-10.06-1.37,5.07-2.07,10.29-2.07,15.56v.51ZM14.999,31V9h31.5l8.25,11-8.25,11H14.999ZM32.999,55h-2v-22h2v22ZM45.029,55h-2.03v-.51c0-5.27-.7-10.49-2.07-15.56,2.89,2.68,4.93,6.21,5.81,10.06-.97,1.85-1.56,3.89-1.71,6.01ZM47.039,55c.33-4.2,2.69-8.07,6.33-10.26l.21-.12c-1.55,3.24-2.41,6.8-2.55,10.38h-3.99Z"/>
  <path d="M36.956,26.29c.128-.422-.036-.878-.402-1.122-3.75-2.5-6.568-6.052-8.15-10.271l-.468-1.248c-.146-.391-.52-.649-.937-.649s-.79.259-.937.649l-.468,1.247c-1.583,4.22-4.401,7.771-8.15,10.271-.367.244-.53.7-.402,1.122.127.422.517.71.957.71h18c.44,0,.83-.288.957-.71ZM25.999,18.764v6.236h-5.044c2.038-1.773,3.734-3.878,5.044-6.236ZM27.999,25v-6.236c1.309,2.358,3.006,4.463,5.044,6.236h-5.044Z"/>
  <path d="M36.999,23h6v2c0,.785.942,1.272,1.581.814l7-5c.263-.188.419-.49.419-.813s-.156-.626-.419-.813l-7-5c-.304-.219-.705-.244-1.039-.076-.333.172-.542.515-.542.89v2h-6c-.552,0-1,.447-1,1v4c0,.553.448,1,1,1ZM37.999,19h6c.552,0,1-.447,1-1v-1.057l4.279,3.057-4.279,3.057v-1.057c0-.553-.448-1-1-1h-6v-2Z"/>
</svg>