<?xml version="1.0" encoding="UTF-8"?>
<svg id="Outline" xmlns="http://www.w3.org/2000/svg" version="1.1" viewBox="0 0 64 64">
  <!-- Generator: Adobe Illustrator 29.5.1, SVG Export Plug-In . SVG Version: 2.1.0 Build 141)  -->
  <path d="M50,7H14c-1.654,0-3,1.346-3,3v44c0,1.654,1.346,3,3,3h36c1.654,0,3-1.346,3-3v-23c0-.552-.447-1-1-1s-1,.448-1,1v23c0,.551-.448,1-1,1H14c-.552,0-1-.449-1-1V17h38v6c0,.552.447,1,1,1s1-.448,1-1v-13c0-1.654-1.346-3-3-3ZM13,15v-5c0-.551.448-1,1-1h36c.552,0,1,.449,1,1v5H13Z"/>
  <path d="M18,11h-2c-.553,0-1,.448-1,1s.447,1,1,1h2c.553,0,1-.448,1-1s-.447-1-1-1Z"/>
  <path d="M24,11h-2c-.553,0-1,.448-1,1s.447,1,1,1h2c.553,0,1-.448,1-1s-.447-1-1-1Z"/>
  <path d="M15.553,29.105c-.494.247-.694.847-.447,1.342.232.465.846.696,1.342.448l1.528-.764c.748-.374,1.424-.843,2.024-1.383.601.539,1.276,1.009,2.025,1.383.761.38,2.26,1.536,2.87.317.247-.494.047-1.095-.447-1.342l-1.528-.764c-.592-.296-1.127-.667-1.601-1.096.879-1.24,1.443-2.689,1.612-4.246h1.069c.553,0,1-.448,1-1s-.447-1-1-1h-3v-1c0-.552-.447-1-1-1s-1,.448-1,1v1h-3c-.553,0-1,.448-1,1s.447,1,1,1h1.069c.169,1.557.733,3.006,1.612,4.246-.474.428-1.009.8-1.601,1.096l-1.528.764ZM20.931,23c-.132.943-.455,1.833-.931,2.63-.475-.798-.799-1.687-.931-2.63h1.861Z"/>
  <path d="M48,53c.553,0,1-.448,1-1v-6c0-1.654-1.346-3-3-3s-3,1.346-3,3v6c0,.552.447,1,1,1s1-.448,1-1v-2h2v2c0,.552.447,1,1,1ZM45,48v-2c0-.551.448-1,1-1s1,.449,1,1v2h-2Z"/>
  <path d="M45.562,32.41c.373-.002.732-.212.902-.568l2.437-5.105c.175-.365.111-.799-.159-1.1-.271-.3-.697-.41-1.076-.274l-.943.333c-1.721-4.771-6.74-7.545-11.699-6.461-.417.092-.73.438-.779.862s.177.833.562,1.017c2.852,1.362,5.048,3.686,6.243,6.588l-.926.328c-.382.135-.645.486-.666.89-.021.404.203.781.568.955,0,0,5.102,2.436,5.105,2.438.139.066.286.097.431.097ZM42.986,29.073c.109-.091.198-.206.261-.336.114-.24.128-.515.039-.766l-.115-.32c-.92-2.605-2.518-4.847-4.621-6.533,2.832.484,5.301,2.456,6.31,5.305l.312.884c.088.25.272.455.512.569.13.062.271.095.412.098l-1.005,2.104-2.104-1.005Z"/>
  <path d="M16.333,46.637l.943-.333c1.47,4.076,5.346,6.696,9.536,6.695.715,0,1.44-.076,2.163-.234.417-.092.73-.438.779-.862s-.177-.833-.562-1.017c-2.852-1.362-5.048-3.686-6.243-6.588l.926-.328c.382-.135.645-.486.666-.89.021-.404-.203-.781-.568-.955l-5.104-2.438c-.238-.113-.515-.128-.764-.041-.25.088-.455.272-.569.512l-2.438,5.105c-.175.365-.111.799.159,1.1.271.3.696.408,1.076.274ZM18.909,41.922l2.104,1.005c-.109.091-.198.206-.261.336-.114.24-.128.515-.039.766l.115.32c.92,2.605,2.518,4.847,4.621,6.533-2.832-.484-5.301-2.456-6.31-5.305l-.312-.884c-.088-.25-.272-.455-.512-.569-.13-.062-.271-.095-.412-.098l1.005-2.104Z"/>
  <path d="M42,37c0-4.962-4.037-9-9-9s-9,4.038-9,9,4.037,9,9,9,9-4.038,9-9ZM31.026,38h3.947c-.188,3.903-1.438,6-1.974,6s-1.786-2.097-1.974-6ZM33,30c.536,0,1.786,2.097,1.974,6h-3.947c.188-3.903,1.438-6,1.974-6ZM35.904,43.361c.619-1.464.98-3.382,1.071-5.361h2.946c-.344,2.389-1.895,4.389-4.017,5.361ZM39.92,36h-2.946c-.091-1.98-.452-3.897-1.071-5.361,2.122.973,3.672,2.972,4.017,5.361ZM30.096,30.639c-.619,1.464-.98,3.382-1.071,5.361h-2.945c.344-2.389,1.895-4.389,4.016-5.361ZM26.08,38h2.945c.091,1.98.452,3.897,1.071,5.361-2.122-.973-3.672-2.972-4.016-5.361Z"/>
  <circle cx="52" cy="27" r="1"/>
</svg>