<?xml version="1.0" encoding="UTF-8"?>
<svg id="Outline" xmlns="http://www.w3.org/2000/svg" version="1.1" viewBox="0 0 64 64">
  <!-- Generator: Adobe Illustrator 29.3.1, SVG Export Plug-In . SVG Version: 2.1.0 Build 151)  -->
  <path d="M32,7c-13.78516,0-25,11.21484-25,25s11.21484,25,25,25,25-11.21484,25-25S45.78516,7,32,7ZM32,55c-12.68262,0-23-10.31787-23-23s10.31738-23,23-23,23,10.31787,23,23-10.31738,23-23,23Z"/>
  <path d="M51.79688,34.99951c-.54102-.1084-1.06934.24121-1.17773.7832-1.77441,8.81738-9.60547,15.21729-18.61914,15.21729-10.47656,0-19-8.52344-19-19s8.52344-19,19-19c9.01367,0,16.84473,6.3999,18.61914,15.21729.1084.5415.6377.89111,1.17773.7832.54102-.10889.8916-.63623.7832-1.17773-1.96191-9.74756-10.61719-16.82275-20.58008-16.82275-11.5791,0-21,9.42041-21,21s9.4209,21,21,21c9.96289,0,18.61816-7.0752,20.58008-16.82275.1084-.5415-.24219-1.06885-.7832-1.17773Z"/>
  <path d="M43,26c.55273,0,1-.44775,1-1v-4c0-.55225-.44727-1-1-1h-4c-.55273,0-1,.44775-1,1s.44727,1,1,1h1.58594l-3.14868,3.14868c-1.42883-1.32867-3.33691-2.14868-5.43726-2.14868s-4.00842.82001-5.43726,2.14868l-3.14868-3.14868h1.58594c.55273,0,1-.44775,1-1s-.44727-1-1-1h-4c-.55273,0-1,.44775-1,1v4c0,.55225.44727,1,1,1s1-.44775,1-1v-1.58594l3.27289,3.27289c-.80182,1.24609-1.27289,2.72437-1.27289,4.31305,0,4.07178,3.06006,7.43591,7,7.93054v4.06946h-2c-.55273,0-1,.44775-1,1s.44727,1,1,1h2v3c0,.55225.44727,1,1,1s1-.44775,1-1v-3h2c.55273,0,1-.44775,1-1s-.44727-1-1-1h-2v-4.06946c3.93994-.49463,7-3.85876,7-7.93054,0-1.58868-.47107-3.06696-1.27289-4.31305l3.27289-3.27289v1.58594c0,.55225.44727,1,1,1ZM32,37c-3.30859,0-6-2.69141-6-6s2.69141-6,6-6,6,2.69141,6,6-2.69141,6-6,6Z"/>
  <circle cx="52" cy="32" r="1"/>
</svg>