<?xml version="1.0" encoding="UTF-8"?>
<svg id="Outline" xmlns="http://www.w3.org/2000/svg" version="1.1" viewBox="0 0 64 64">
  <!-- Generator: Adobe Illustrator 29.5.1, SVG Export Plug-In . SVG Version: 2.1.0 Build 141)  -->
  <path d="M26,31h-4c-.552,0-1,.448-1,1v12c0,.552.448,1,1,1h4c.552,0,1-.448,1-1v-12c0-.552-.448-1-1-1ZM25,43h-2v-10h2v10Z"/>
  <path d="M34,31h-4c-.552,0-1,.448-1,1v12c0,.552.448,1,1,1h4c.552,0,1-.448,1-1v-12c0-.552-.448-1-1-1ZM33,43h-2v-10h2v10Z"/>
  <path d="M42,31h-4c-.552,0-1,.448-1,1v12c0,.552.448,1,1,1h4c.552,0,1-.448,1-1v-12c0-.552-.448-1-1-1ZM41,43h-2v-10h2v10Z"/>
  <path d="M56,18h-4c0-.55-.45-1-1-1h-1.18l-1.84-9.2c-.09-.46-.5-.8-.98-.8h-15c-.55,0-1,.45-1,1s.45,1,1,1h11v4h-22v-4h3c.55,0,1-.45,1-1s-.45-1-1-1h-7c-.48,0-.89.34-.98.8l-1.84,9.2h-1.18c-.55,0-1,.45-1,1h-4c-.55,0-1,.45-1,1v4c0,.55.45,1,1,1h4c0,.55.45,1,1,1h1.1l2.71,25.32c.17,1.53,1.45,2.68,2.99,2.68h1.2v3c0,.55.45,1,1,1h6c.55,0,1-.45,1-1v-3h6v3c0,.55.45,1,1,1h6c.55,0,1-.45,1-1v-3h1.2c1.54,0,2.82-1.15,2.99-2.68l2.71-25.32h1.1c.55,0,1-.45,1-1h4c.55,0,1-.45,1-1v-4c0-.55-.45-1-1-1ZM12,22h-3v-2h3v2ZM17.82,9h1.18v5c0,.55.45,1,1,1h24c.55,0,1-.45,1-1v-5h1.18l1.6,8h-31.56l1.6-8ZM27,55h-4v-2h4v2ZM41,55h-4v-2h4v2ZM45.2,50.11c-.06.51-.49.89-1,.89h-24.4c-.51,0-.94-.38-1-.89l-.12-1.11h26.64l-.12,1.11ZM45.53,47h-27.06l-1.93-18h30.92l-1.93,18ZM47.67,27h-31.34l-.22-2h31.78l-.22,2ZM50,23H14v-4h36v4ZM55,22h-3v-2h3v2Z"/>
  <circle cx="28" cy="8" r="1"/>
</svg>