<?xml version="1.0" encoding="UTF-8"?>
<svg id="Outline" xmlns="http://www.w3.org/2000/svg" version="1.1" viewBox="0 0 64 64">
  <!-- Generator: Adobe Illustrator 29.3.1, SVG Export Plug-In . SVG Version: 2.1.0 Build 151)  -->
  <path d="M42,19v-3h1c.54999,0,1-.45001,1-1v-7c0-.54999-.45001-1-1-1h-22c-.54999,0-1,.45001-1,1v7c0,.54999.45001,1,1,1h1v3c-1.65002,0-3,1.34998-3,3v28c0,1.64996,1.34998,3,3,3v1c0,1.64996,1.34998,3,3,3s3-1.35004,3-3v-1h8v1c0,1.64996,1.34998,3,3,3s3-1.35004,3-3v-1c1.65002,0,3-1.35004,3-3v-28c0-1.65002-1.34998-3-3-3ZM22,9h20v5h-2v-2c0-.54999-.45001-1-1-1h-14c-.54999,0-1,.45001-1,1v2h-2v-5ZM39,16h1v3h-16v-3h1c.54999,0,1-.45001,1-1v-2h12v2c0,.54999.45001,1,1,1ZM21,36h4v11h-4v-11ZM26,54c0,.54999-.45001,1-1,1s-1-.45001-1-1v-1h2v1ZM40,54c0,.54999-.45001,1-1,1s-1-.45001-1-1v-1h2v1ZM43,50c0,.54999-.45001,1-1,1h-20c-.54999,0-1-.45001-1-1v-1h22v1ZM27,47v-11h4v11h-4ZM33,47v-11h4v11h-4ZM43,47h-4v-11h4v11ZM43,34h-22v-12c0-.54999.45001-1,1-1h20c.54999,0,1,.45001,1,1v12Z"/>
</svg>