<?xml version="1.0" encoding="UTF-8"?>
<svg id="Outline" xmlns="http://www.w3.org/2000/svg" version="1.1" viewBox="0 0 64 64">
  <!-- Generator: Adobe Illustrator 29.5.1, SVG Export Plug-In . SVG Version: 2.1.0 Build 141)  -->
  <path d="M52.507,15.493c-2.563-2.564-7.706-1.698-12.862,2.041-.996-6.285-4.016-10.534-7.645-10.534s-6.648,4.249-7.645,10.534c-5.155-3.737-10.298-4.604-12.862-2.041-1.603,1.603-1.902,4.238-.842,7.42.982,2.951,3.039,6.091,5.792,8.843,3.019,3.021,6.494,5.173,9.637,6.014,1.405,5.907,1.069,12.14-1.02,17.887-.439,1.204,1.438,1.897,1.879.684,2.66-7.314,2.66-15.37,0-22.684-.188-.519-.76-.788-1.281-.598-.519.189-.787.763-.598,1.282.135.373.26.748.381,1.125-2.492-.938-5.218-2.757-7.584-5.124-2.537-2.537-4.422-5.399-5.309-8.061-.797-2.392-.666-4.35.358-5.375,1.976-1.976,6.957-.573,11.585,3.263.286.237.68.295,1.021.154.343-.142.579-.462.613-.832.553-5.981,3.079-10.492,5.874-10.492s5.321,4.511,5.874,10.492c.034.369.271.689.613.832.339.141.734.083,1.021-.154,4.63-3.836,9.61-5.238,11.585-3.263,1.024,1.024,1.155,2.983.358,5.375-.887,2.662-2.771,5.524-5.309,8.061-2.366,2.366-5.092,4.186-7.584,5.124.121-.377.246-.752.381-1.125.189-.519-.079-1.093-.598-1.282-.521-.189-1.093.08-1.281.598-2.66,7.314-2.66,15.37,0,22.684.147.406.531.658.939.659.684,0,1.174-.701.94-1.342-2.09-5.747-2.425-11.98-1.02-17.887,3.144-.841,6.618-2.994,9.637-6.014,2.753-2.752,4.81-5.893,5.792-8.843,1.061-3.183.761-5.818-.842-7.42Z"/>
  <path d="M35.447,31.105c-.494-.247-1.094-.047-1.342.447l-2.105,4.211-2.105-4.211c-.248-.494-.847-.694-1.342-.447-.494.247-.694.848-.447,1.342l3,6c.17.339.516.553.895.553s.725-.214.895-.553l3-6c.247-.494.047-1.095-.447-1.342Z"/>
</svg>