<?xml version="1.0" encoding="UTF-8"?>
<svg id="Outline" xmlns="http://www.w3.org/2000/svg" version="1.1" viewBox="0 0 64 64">
  <!-- Generator: Adobe Illustrator 29.5.1, SVG Export Plug-In . SVG Version: 2.1.0 Build 141)  -->
  <path d="M48.67,39.26l-8.72-7.93,5.94.66c.44.06.86-.19,1.03-.6.17-.41.06-.88-.29-1.16l-8.83-7.23h4.2c.4,0,.77-.24.92-.62.16-.37.07-.8-.21-1.09l-8.91-8.9c.72-.55,1.2-1.41,1.2-2.39,0-1.65-1.35-3-3-3s-3,1.35-3,3c0,.98.48,1.84,1.2,2.39l-8.91,8.9c-.28.29-.37.72-.21,1.09.15.38.52.62.92.62h4.2l-8.83,7.23c-.35.28-.46.75-.29,1.16.17.41.59.66,1.03.6l5.94-.66-8.72,7.93c-.31.28-.41.72-.26,1.1.15.39.52.64.93.64h12v15c0,.55.45,1,1,1h6c.55,0,1-.45,1-1v-3c0-.55-.45-1-1-1s-1,.45-1,1v2h-4v-14h4v4c0,.55.45,1,1,1s1-.45,1-1v-4h12c.41,0,.78-.25.93-.64.15-.38.05-.82-.26-1.1ZM32,9c.55,0,1,.45,1,1s-.45,1-1,1-1-.45-1-1,.45-1,1-1ZM18.59,39l9.08-8.26c.32-.29.42-.76.24-1.15-.18-.4-.59-.64-1.02-.58l-5.64.62,8.38-6.86c.33-.26.45-.71.31-1.11-.14-.39-.52-.66-.94-.66h-4.59l7.59-7.59,7.59,7.59h-4.59c-.42,0-.8.27-.94.66-.14.4-.02.85.31,1.11l8.38,6.86-5.64-.62c-.43-.06-.84.18-1.02.58-.18.39-.08.86.24,1.15l9.08,8.26h-26.82Z"/>
  <path d="M55,43h-16c-.55,0-1,.45-1,1v4c0,.55.45,1,1,1h1v7c0,.55.45,1,1,1h12c.55,0,1-.45,1-1v-7h1c.55,0,1-.45,1-1v-4c0-.55-.45-1-1-1ZM46,45h2v2h-2v-2ZM40,47v-2h4v2h-4ZM52,55h-10v-6h10v6ZM54,47h-4v-2h4v2Z"/>
  <path d="M25,43H9c-.55,0-1,.45-1,1v4c0,.55.45,1,1,1h1v7c0,.55.45,1,1,1h12c.55,0,1-.45,1-1v-7h1c.55,0,1-.45,1-1v-4c0-.55-.45-1-1-1ZM16,45h2v2h-2v-2ZM10,47v-2h4v2h-4ZM22,55h-10v-6h10v6ZM24,47h-4v-2h4v2Z"/>
  <circle cx="35" cy="49" r="1"/>
</svg>