<?xml version="1.0" encoding="UTF-8"?>
<svg id="Outline" xmlns="http://www.w3.org/2000/svg" version="1.1" viewBox="0 0 64 64">
  <!-- Generator: Adobe Illustrator 29.0.0, SVG Export Plug-In . SVG Version: 2.1.0 Build 186)  -->
  <path d="M8,21.99899h6c.55273,0,1-.44727,1-1h3c.08203,0,.16309-.00977.24219-.03027l3.88086-.96973h5.37695c1.90765,0,3.45813-1.53625,3.49347-3.43567l9.71746,3.6427c1.51521.56799,3.37861-.11972,4.10154-1.60639.804-1.65339.06874-3.74048-1.60642-4.49517l-14.06543-6.24902c-2.02441-.89844-4.30859-1.09473-6.45117-.55859l-6.8125,1.70215h-.87695c0-.55273-.44727-1-1-1h-6c-.55273,0-1,.44727-1,1v12c0,.55273.44727,1,1,1ZM16,10.99899c.08203,0,.16309-.00977.24219-.03027l6.93262-1.73242c1.71191-.42773,3.53613-.27051,5.1543.44727l14.06049,6.24704c1.48919.66164.55813,2.97398-.97943,2.40139l-11.30957-4.23926c-.02704-.01013-.05487-.00555-.08221-.01318-.63733-.66315-1.52832-1.08057-2.51837-1.08057h-5.5c-.55273,0-1,.44727-1,1s.44727,1,1,1h5.5c.82715,0,1.5.67285,1.5,1.5s-.67285,1.5-1.5,1.5h-5.5c-.08203,0-.16309.00977-.24219.03027l-3.88086.96973h-2.87695v-8h1ZM9,9.99899h4v10h-4v-10Z"/>
  <path d="M56,54.99899h-1c0-2.44-1.76001-4.48004-4.08002-4.92004-.44-2.31995-2.47998-4.07996-4.91998-4.07996-.83002,0-1.63.20996-2.34998.59998-.94-1.01001-2.26001-1.59998-3.65002-1.59998-1.72998,0-3.31.89996-4.21002,2.32996-.87-.32996-1.83997-.39996-2.75995-.20996.17999-3.42999,1.40997-6.71002,3.46997-9.40002,1.02002.83002,2.28003,1.28003,3.58002,1.28003.16998,0,.33997-.01001.51001-.02002,1.51996-.13,2.89996-.84998,3.87994-2.02002,1.91003-2.26996,1.15002-8.39996,1.05005-9.08997-.06-.51001-.52002-.91003-1.03003-.87-.69.02997-6.87.32996-8.77002,2.59998-1.59998,1.90002-1.72998,4.53003-.53998,6.56-1.20001,1.5-2.16998,3.17999-2.87,4.97003-.67999-2.85004-1.84998-5.55005-3.46997-7.98999.85999-.93005,1.39996-2.09003,1.50995-3.37006.14001-1.51996-.32996-3-1.31995-4.16998-1.90002-2.27002-8.08002-2.57001-8.78003-2.59998-.5-.04004-.96002.35999-1.03003.87-.08997.69-.84998,6.82001,1.06006,9.08997.97998,1.17004,2.35999,1.89001,3.87994,2.02002.17004.01001.34003.02002.51001.02002.90002,0,1.78003-.23004,2.57001-.64001,2.07001,3.15997,3.33002,6.78003,3.66003,10.58002-.82001-.59003-1.82001-.94-2.90002-.94-2.41998,0-4.44,1.71997-4.90002,4-1.15997-.03003-2.20996.33997-3.09998,1.01996-.85999-.65997-1.90997-1.01996-3-1.01996-2.10999,0-3.98999,1.35999-4.69,3.31-1.64001.58002-2.84003,2.01001-3.19,3.69h-1.12c-.54999,0-1,.45001-1,1s.45001,1,1,1h48c.54999,0,1-.45001,1-1s-.45001-1-1-1ZM37.25,30.88901c.88-1.06006,4.07001-1.64001,6.40002-1.83002.20996,2.40997.13995,5.60999-.71002,6.60999-.64001.76001-1.53003,1.22998-2.52002,1.32001-.95001.07001-1.87-.21002-2.60999-.78998.62-.64001,1.28003-1.23004,2.01001-1.77002l.83997-.63c.44-.33002.53003-.95001.21002-1.40002-.33002-.44-.96002-.52997-1.40002-.19995l-.84998.62994c-.71002.53003-1.38,1.11005-2,1.73004-.44-1.21002-.26001-2.62.63-3.66998ZM27.64001,31.48898c-.62-.78998-1.29004-1.54999-2-2.27002l-.92999-.92999c-.39001-.39001-1.03003-.39001-1.42004,0-.38995.39001-.38995,1.03003,0,1.41998l.92999.93005c.66003.64996,1.26001,1.34998,1.82001,2.06995-.52997.22003-1.10999.32001-1.70996.28003-.98999-.09003-1.88-.56-2.52002-1.32001-.89001-1.04999-.91998-4.28998-.71002-6.60999,2.42004.20001,5.56.82001,6.40002,1.83002.64001.75995.95001,1.71997.85999,2.70996-.06.70001-.32001,1.34003-.71997,1.89001ZM11.17999,54.99899c.33002-.94,1.14001-1.69,2.15002-1.91003.38-.08997.66998-.38.76001-.76001.29999-1.34998,1.51996-2.32996,2.90997-2.32996.84998,0,1.66998.38,2.25,1.03998.38.42999,1.12.42999,1.5,0,.58002-.65997,1.40002-1.03998,2.25-1.03998.22959,0,.46916.03984.73862.10963.641.16601,1.27138-.28945,1.27139-.95967,0-.06,0-.12-.01001-.14996,0-1.65002,1.34998-3,3-3,1.52002,0,2.79999,1.15997,2.96997,2.69.03003.33997.24005.63.55005.78998.29999.15002.65997.13.94995-.03998,1.04004-.63,2.29004-.56,3.20001.07001.26001.17999.58002.22998.88.13.29999-.10004.53003-.33002.64001-.62006.40997-1.20996,1.53998-2.01996,2.81-2.01996,1.03998,0,2.02002.56,2.56,1.46997.15002.25.40002.42999.69.48004.28998.04999.59003-.04004.81-.23004.40002-.32996,1.04999-.71997,1.94-.71997,1.65002,0,3,1.34998,3,3,0,.54999.45001,1,1,1,1.65002,0,3,1.34998,3,3H11.17999Z"/>
</svg>