<?xml version="1.0" encoding="UTF-8"?>
<svg id="Outline" xmlns="http://www.w3.org/2000/svg" version="1.1" viewBox="0 0 64 64">
  <!-- Generator: Adobe Illustrator 29.5.1, SVG Export Plug-In . SVG Version: 2.1.0 Build 141)  -->
  <path d="M21.105,30.447c.119.237.327.417.578.501,0,0,6,2,6,2,.385.129.807.013,1.072-.293.265-.306.319-.741.139-1.103l-1.94-3.88-.373-1.875c-.064-.489-.484-.862-.991-.862-.553,0-1,.453-1,1.005,0,.065.007.131.02.195l.41,2.06c.018.087.046.172.086.252l.921,1.841-3.317-1.106-.814-1.629c-.248-.495-.848-.695-1.342-.447-.494.247-.694.848-.447,1.342l1,2Z"/>
  <path d="M30.936,27.581l-.365-1.809c-.108-.541-.629-.891-1.179-.782-.541.109-.892.637-.782,1.178l.41,2.03c.029.146.091.283.181.402l3,4c.19.254.487.4.8.4.047,0,.095-.003.142-.01.361-.052.666-.296.795-.638l2.26-6.02c.193-.517-.068-1.094-.585-1.288-.519-.194-1.093.067-1.288.584l-1.618,4.312-1.77-2.359Z"/>
  <path d="M39.57,26.133c-.517-.194-1.093.069-1.287.586l-2.22,5.93c-.115.307-.072.651.115.92.187.27.493.43.821.43h5c.315,0,.612-.148.801-.401l2.05-2.74c.331-.442.24-1.069-.202-1.4s-1.069-.24-1.399.202l-1.75,2.339h-3.057l1.714-4.58c.193-.517-.068-1.094-.586-1.287Z"/>
  <path d="M56,55h-16.111l-.486-4.117c-.065-.549-.557-.937-1.11-.876-.549.065-.94.562-.876,1.11l.458,3.883h-14.714l1.328-8.852c.082-.546-.295-1.056-.841-1.137-.554-.082-1.056.295-1.138.84l-1.372,9.148h-13.138c-.553,0-1,.448-1,1s.447,1,1,1h48c.553,0,1-.448,1-1s-.447-1-1-1Z"/>
  <path d="M57,26c0,1.08-.43,2.09-1.18,2.83.12.38.18.77.18,1.17,0,2.05-1.55,3.74-3.54,3.97-.7,1.24-2.02,2.03-3.46,2.03-.88,0-1.71-.29-2.39-.81l-1.81,2.41c-.13.17-.32.3-.53.36l-6.18,1.77.84,7.15c.07.55-.32,1.05-.87,1.11-.04.01-.08.01-.12.01-.5,0-.93-.37-.99-.88l-.94-8c-.06-.49.24-.95.72-1.08l6.67-1.91,2.28-3.03q0-.01.01-.01l.51-.69c.33-.44.96-.53,1.4-.2.44.33.53.94.21,1.38.34.26.75.42,1.19.42.84,0,1.59-.54,1.88-1.35.16-.46.63-.74,1.11-.66h.01c1.11,0,2-.89,2-1.99,0-.34-.09-.66-.27-.98-.26-.46-.12-1.05.34-1.34.58-.36.93-.99.93-1.68,0-.9-.61-1.68-1.48-1.91-.27-.08-.5-.27-.63-.52-.13-.26-.14-.55-.04-.82.1-.25.15-.5.15-.75s-.05-.5-.15-.75c-.1-.27-.09-.56.04-.82.13-.25.36-.44.63-.52.87-.23,1.48-1.01,1.48-1.91,0-.84-.54-1.59-1.35-1.88-.46-.16-.73-.62-.66-1.1.01-1.12-.89-2.02-1.99-2.02-.03.01-.11.02-.19.02-.33,0-.64-.16-.82-.43-.19-.27-.23-.61-.12-.92.09-.23.13-.45.13-.67,0-1.1-.9-2-2-2-.84,0-1.59.54-1.88,1.35-.16.46-.63.74-1.11.66h-.01c-1.11,0-2,.89-2,1.99,0,.22.04.44.13.67.11.31.07.65-.12.92-.18.27-.49.43-.82.43-.05,0-.2-.01-.25-.02-.78,0-1.51.52-1.81,1.32-.13.33-.41.57-.75.63-.34.07-.7-.05-.93-.31-.25-.27-.56-.46-.92-.55-.28-.07-.51-.26-.64-.52-.13-.25-.14-.55-.04-.82.1-.25.15-.5.15-.75,0-1.1-.9-2-2-2-.55,0-1-.45-1-1,0-1.1-.9-2-2-2-.9,0-1.68.61-1.91,1.48-.08.27-.26.51-.52.63-.26.13-.56.14-.82.04-.5-.2-1-.2-1.5,0-.26.11-.56.09-.82-.04-.26-.12-.44-.36-.52-.63-.23-.87-1.01-1.48-1.91-1.48-.69,0-1.32.35-1.68.93-.29.46-.88.61-1.34.34-.32-.18-.64-.27-.98-.27-1.1,0-2,.9-2,2,0,.25.05.5.15.75.1.27.09.56-.04.82-.12.25-.36.44-.63.52-.62.16-1.13.62-1.35,1.23-.12.33-.41.57-.75.63-.34.07-.69-.05-.93-.3-.37-.41-.9-.65-1.45-.65-1.1,0-2,.9-2,2,0,.25.05.5.15.75.1.27.09.56-.04.82-.13.25-.36.44-.63.52-.87.23-1.48,1.01-1.48,1.91s.61,1.68,1.48,1.91c.27.08.5.27.63.52.13.26.14.55.04.82-.1.25-.15.5-.15.75s.05.5.15.75c.1.27.09.56-.04.82-.13.25-.36.44-.63.52-.87.23-1.48,1.01-1.48,1.91,0,1.1.9,2,2,2,.03-.01.11-.02.19-.02.33,0,.64.16.82.43.19.27.23.61.12.92-.09.23-.13.45-.13.67,0,1.1.9,2,2,2,.69,0,1.32-.35,1.68-.93.29-.46.88-.6,1.34-.34.51.29,1.06.32,1.56.18l-.03-.02c-.19-.09-.35-.25-.44-.44l-.46-.91c-.25-.49-.05-1.09.44-1.34.49-.25,1.09-.05,1.34.44l.31.61,5.71,2.86c.38.19.6.61.54,1.04l-.9,6c-.08.49-.5.85-.99.85-.05,0-.1,0-.15-.01-.54-.08-.92-.59-.84-1.14l.79-5.28-3.23-1.62c-1.02.92-2.51,1.29-3.84.87-.74.75-1.75,1.18-2.83,1.18-2.21,0-4-1.79-4-4v-.13c-1.72-.44-3-2.01-3-3.87,0-1.46.8-2.78,2.04-3.47-.03-.18-.04-.35-.04-.53s.01-.35.04-.53c-1.24-.69-2.04-2.01-2.04-3.47s.8-2.78,2.04-3.47c-.03-.18-.04-.35-.04-.53,0-2.21,1.79-4,4-4,.67,0,1.32.17,1.9.49.32-.39.7-.71,1.14-.96-.03-.17-.04-.35-.04-.53,0-2.21,1.79-4,4-4,.4,0,.79.06,1.17.18.74-.75,1.75-1.18,2.83-1.18,1.46,0,2.78.8,3.47,2.04.35-.05.71-.05,1.06,0,.69-1.24,2.01-2.04,3.47-2.04,1.9,0,3.49,1.33,3.9,3.1,1.77.41,3.1,2,3.1,3.9,0,.13-.01.26-.02.4.53-.62,1.24-1.06,2.02-1.27v-.13c0-2.05,1.55-3.74,3.54-3.97.7-1.24,2.02-2.03,3.46-2.03,2.21,0,4,1.79,4,4v.13c1.58.4,2.78,1.75,2.97,3.41,1.24.7,2.03,2.02,2.03,3.46,0,1.46-.8,2.78-2.04,3.47.03.18.04.35.04.53s-.01.35-.04.53c1.24.69,2.04,2.01,2.04,3.47Z"/>
  <path d="M16.994,25l.141.018c.408.052.801-.147.999-.501.183-.323.506-.517.866-.517.552,0,1,.449,1,1s.447,1,1,1,1-.448,1-1c0-1.654-1.346-3-3-3-.859,0-1.67.375-2.233,1.009-1.545.12-2.767,1.416-2.767,2.991,0,1.654,1.346,3,3,3,.553,0,1-.448,1-1s-.447-1-1-1-1-.449-1-1,.448-1,.994-1Z"/>
  <path d="M29,20c-.531,0-1.048.144-1.5.408-.452-.265-.969-.408-1.5-.408-1.654,0-3,1.346-3,3,0,.552.447,1,1,1s1-.448,1-1,.448-1,1-1c.386,0,.634.218.747.348.379.435,1.127.435,1.506,0,.113-.13.361-.348.747-.348.552,0,1,.449,1,1s.447,1,1,1,1-.448,1-1c0-1.654-1.346-3-3-3Z"/>
  <path d="M40.566,21.411c-.516-.125-1.051-.107-1.554.043-.377-.364-.845-.625-1.36-.751-.777-.188-1.584-.064-2.27.353-.685.417-1.165,1.075-1.354,1.854-.131.537.199,1.077.735,1.208.543.131,1.078-.199,1.208-.736.063-.259.224-.479.452-.618.228-.139.496-.18.756-.118.374.091.563.361.643.514.134.256.371.442.651.51.279.069.577.013.812-.154.142-.1.434-.254.809-.162.536.13.865.672.735,1.209-.303,1.243,1.637,1.734,1.943.472.391-1.607-.6-3.233-2.207-3.624Z"/>
</svg>