<?xml version="1.0" encoding="UTF-8"?>
<svg id="Outline" xmlns="http://www.w3.org/2000/svg" version="1.1" viewBox="0 0 64 64">
  <!-- Generator: Adobe Illustrator 29.5.1, SVG Export Plug-In . SVG Version: 2.1.0 Build 141)  -->
  <path d="M48,43h-3v-5c0-.553-.447-1-1-1s-1,.447-1,1v6c0,.553.447,1,1,1h4c.553,0,1-.447,1-1s-.447-1-1-1Z"/>
  <path d="M38,37c-1.654,0-3,1.346-3,3v4c0,.553.447,1,1,1s1-.447,1-1v-1h2v1c0,.553.447,1,1,1s1-.447,1-1v-4c0-1.654-1.346-3-3-3ZM37,41v-1c0-.552.448-1,1-1s1,.448,1,1v1h-2Z"/>
  <path d="M32,37c-.553,0-1,.447-1,1v6c0,.553.447,1,1,1s1-.447,1-1v-6c0-.553-.447-1-1-1Z"/>
  <path d="M20,37h-4c-.553,0-1,.447-1,1s.447,1,1,1h1v5c0,.553.447,1,1,1s1-.447,1-1v-5h1c.553,0,1-.447,1-1s-.447-1-1-1Z"/>
  <path d="M39,34c0-.553-.447-1-1-1h-3v-1h3c.553,0,1-.447,1-1s-.447-1-1-1h-3v-1h3c.553,0,1-.447,1-1s-.447-1-1-1h-4c-.553,0-1,.447-1,1v6c0,.553.447,1,1,1h4c.553,0,1-.447,1-1Z"/>
  <path d="M47,34c0-.553-.447-1-1-1h-3v-1h3c.553,0,1-.447,1-1s-.447-1-1-1h-3v-1h3c.553,0,1-.447,1-1s-.447-1-1-1h-4c-.553,0-1,.447-1,1v6c0,.553.447,1,1,1h4c.553,0,1-.447,1-1Z"/>
  <path d="M22,30h-3v-1h3c.553,0,1-.447,1-1s-.447-1-1-1h-4c-.553,0-1,.447-1,1v6c0,.553.447,1,1,1s1-.447,1-1v-2h3c.553,0,1-.447,1-1s-.447-1-1-1Z"/>
  <path d="M56,26c.55,0,1-.45,1-1v-11c0-1.65-1.35-3-3-3h-3v-1c0-1.65-1.35-3-3-3s-3,1.35-3,3v1h-10v-1c0-1.65-1.35-3-3-3s-3,1.35-3,3v1h-10v-1c0-1.65-1.35-3-3-3s-3,1.35-3,3v1h-3c-1.65,0-3,1.35-3,3v40c0,1.65,1.35,3,3,3h44c1.65,0,3-1.35,3-3v-25c0-.55-.45-1-1-1s-1,.45-1,1v25c0,.55-.45,1-1,1H10c-.55,0-1-.45-1-1V21h2v31c0,.55.45,1,1,1h40c.55,0,1-.45,1-1v-31h2v4c0,.55.45,1,1,1ZM47,10c0-.55.45-1,1-1s1,.45,1,1v1h-2v-1ZM31,10c0-.55.45-1,1-1s1,.45,1,1v1h-2v-1ZM15,10c0-.55.45-1,1-1s1,.45,1,1v1h-2v-1ZM51,51H13v-2.18c.31.11.65.18,1,.18h36c.35,0,.69-.07,1-.18v2.18ZM51,46c0,.55-.45,1-1,1H14c-.55,0-1-.45-1-1v-20c0-.55.45-1,1-1h36c.55,0,1,.45,1,1v20ZM40,19c-.55,0-1,.45-1,1s.45,1,1,1h11v2.18c-.31-.11-.65-.18-1-.18H14c-.35,0-.69.07-1,.18v-2.18h23c.55,0,1-.45,1-1s-.45-1-1-1H9v-5c0-.55.45-1,1-1h3v1c0,1.65,1.35,3,3,3,.55,0,1-.45,1-1s-.45-1-1-1-1-.45-1-1v-1h14v1c0,1.65,1.35,3,3,3,.55,0,1-.45,1-1s-.45-1-1-1-1-.45-1-1v-1h14v1c0,1.65,1.35,3,3,3,.55,0,1-.45,1-1s-.45-1-1-1-1-.45-1-1v-1h7c.55,0,1,.45,1,1v5h-15Z"/>
  <path d="M26.94,41.96c1.17-.21,2.06-1.23,2.06-2.46,0-1.38-1.12-2.5-2.5-2.5h-2.5c-.55,0-1,.45-1,1v6c0,.55.45,1,1,1s1-.45,1-1v-1l2.4,1.8c.18.13.39.2.6.2.94,0,1.35-1.24.6-1.8l-1.66-1.24ZM26.5,40h-1.5v-1h1.5c.28,0,.5.22.5.5s-.22.5-.5.5Z"/>
  <path d="M28.94,31.96c1.17-.21,2.06-1.23,2.06-2.46,0-1.38-1.12-2.5-2.5-2.5h-2.5c-.55,0-1,.45-1,1v6c0,.55.45,1,1,1s1-.45,1-1v-1l2.4,1.8c.18.13.39.2.6.2.938,0,1.355-1.236.6-1.8l-1.66-1.24ZM28.5,30h-1.5v-1h1.5c.28,0,.5.22.5.5s-.22.5-.5.5Z"/>
</svg>