<?xml version="1.0" encoding="UTF-8"?>
<svg id="Outline" xmlns="http://www.w3.org/2000/svg" version="1.1" viewBox="0 0 64 64">
  <!-- Generator: Adobe Illustrator 29.5.1, SVG Export Plug-In . SVG Version: 2.1.0 Build 141)  -->
  <circle cx="16" cy="44" r="1"/>
  <circle cx="48" cy="44" r="1"/>
  <path d="M53.4,24.15c-1.53-1.9-3.5-3.47-5.7-4.53-2.19-1.06-4.65-1.62-7.1-1.62h-2.6c-.55,0-1,.45-1,1v19h-2c0-.77-.3-1.47-.78-2,.48-.53.78-1.23.78-2v-16c0-1.65-1.35-3-3-3h-5c-.55,0-1,.45-1,1s.45,1,1,1h5c.55,0,1,.45,1,1v16c0,.55-.45,1-1,1H10c-.55,0-1-.45-1-1v-16c0-.55.45-1,1-1h9c.55,0,1-.45,1-1s-.45-1-1-1h-9c-1.65,0-3,1.35-3,3v16c0,.77.3,1.47.78,2-.48.53-.78,1.23-.78,2v3c0,1.65,1.35,3,3,3h1c0,2.76,2.24,5,5,5s5-2.24,5-5h22c0,2.76,2.24,5,5,5s5-2.24,5-5h3c.55,0,1-.45,1-1v-8.6c0-3.71-1.28-7.35-3.6-10.25ZM16,47c-1.65,0-3-1.35-3-3s1.35-3,3-3,3,1.35,3,3-1.35,3-3,3ZM33,42h-12.42c-.78-1.76-2.53-3-4.58-3s-3.8,1.24-4.58,3h-1.42c-.55,0-1-.45-1-1v-3c0-.55.45-1,1-1h22c.55,0,1,.45,1,1v4ZM37,42h-2v-2h2v2ZM51.84,25.41c1.74,2.17,2.81,4.83,3.08,7.59h-6.38l-1.71-2.55c-.18-.28-.5-.45-.83-.45h-3v-5.91h7.63c.43.41.84.85,1.21,1.32ZM48,47c-1.65,0-3-1.35-3-3s1.35-3,3-3,3,1.35,3,3-1.35,3-3,3ZM55,42h-2.42c-.78-1.76-2.53-3-4.58-3s-3.8,1.24-4.58,3h-4.42v-22h1.6c2.15,0,4.31.49,6.23,1.42.42.2.82.43,1.21.67h-6.04c-.55,0-1,.44-1,1v7.91c0,.55.45,1,1,1h3.46l1.71,2.55c.18.28.5.45.83.45h7v7Z"/>
  <path d="M44,34h-2c-.553,0-1,.448-1,1s.447,1,1,1h2c.553,0,1-.448,1-1s-.447-1-1-1Z"/>
  <path d="M12,21h6c.553,0,1-.448,1-1s-.447-1-1-1h-6c-.553,0-1,.448-1,1s.447,1,1,1Z"/>
  <path d="M14,24c0,.552.447,1,1,1h6c.553,0,1-.448,1-1s-.447-1-1-1h-6c-.553,0-1,.448-1,1Z"/>
  <path d="M12,29h6c.553,0,1-.448,1-1s-.447-1-1-1h-6c-.553,0-1,.448-1,1s.447,1,1,1Z"/>
  <circle cx="23" cy="16" r="1"/>
</svg>