<?xml version="1.0" encoding="UTF-8"?>
<svg id="Outline" xmlns="http://www.w3.org/2000/svg" version="1.1" viewBox="0 0 64 64">
  <!-- Generator: Adobe Illustrator 29.3.1, SVG Export Plug-In . SVG Version: 2.1.0 Build 151)  -->
  <path d="M56.75,33.33997l-8-9c-.19-.21997-.46002-.33997-.75-.33997h-7c-1.09998,0-2,.89996-2,2h-5v-10c0-1.10004-.90002-2-2-2h-12c-1.09998,0-2,.89996-2,2v10h-5c-1.09998,0-2,.89996-2,2v2c0,.54999.45001,1,1,1s1-.45001,1-1v-2h2v4c0,.32001.15002.62.41998.81.26001.19.59003.23999.90002.14001l2.67999-.90002,2.67999.90002c.10999.02997.21002.04999.32001.04999.21002,0,.40997-.06.58002-.19.26996-.19.41998-.48999.41998-.81v-4h2v10h-12v-4c0-.54999-.45001-1-1-1s-1,.45001-1,1v4h-1c-1.09998,0-2,.89996-2,2v2.27997c-.59003.35004-1,.98004-1,1.72003v2c0,1.09998.90002,2,2,2h2.56c.69,1.19,1.97003,2,3.44,2s2.75-.81,3.44-2h4.12c.69,1.19,1.97003,2,3.44,2s2.75-.81,3.44-2h8.56c.54999,0,1-.45001,1-1s-.45001-1-1-1h-8c0-.73004-.21002-1.41003-.56-2h16.12c-.34998.58997-.56,1.26996-.56,2h-3c-.54999,0-1,.45001-1,1s.45001,1,1,1h3.56c.69,1.19,1.97003,2,3.44,2s2.75-.81,3.44-2h2.56c1.09998,0,2-.90002,2-2v-12c0-.25-.09003-.48004-.25-.66003ZM35,28v2.60999l-1.67999-.56c-.10999-.03003-.21002-.04999-.32001-.04999s-.21002.01996-.32001.04999l-1.67999.56v-2.60999h4ZM24,16h4v2.60999l-1.67999-.56c-.10999-.03003-.21002-.04999-.32001-.04999s-.21002.01996-.32001.04999l-1.67999.56v-2.60999ZM21,30.60999l-1.67999-.56c-.10999-.03003-.21002-.04999-.32001-.04999s-.21002.01996-.32001.04999l-1.67999.56v-2.60999h4v2.60999ZM20,26v-10h2v4c0,.32001.15002.62.41998.81.26001.19.59003.23999.90002.14001l2.67999-.90002,2.67999.90002c.10999.02997.21002.04999.32001.04999.21002,0,.40997-.06.58002-.19.26996-.19.41998-.48999.41998-.81v-4h2v10h-12ZM11,46h-2v-2h2.56c-.34998.58997-.56,1.26996-.56,2ZM15,48c-1.09998,0-2-.90002-2-2,0-1.10004.90002-2,2-2s2,.89996,2,2c0,1.09998-.90002,2-2,2ZM22,46h-3c0-.73004-.21002-1.41003-.56-2h4.12c-.34998.58997-.56,1.26996-.56,2ZM26,48c-1.09998,0-2-.90002-2-2,0-1.10004.90002-2,2-2s2,.89996,2,2c0,1.09998-.90002,2-2,2ZM39,42H10v-2h29v2ZM39,38h-12v-10h2v4c0,.32001.15002.62.41998.81.26001.19.59003.23999.90002.14001l2.67999-.90002,2.67999.90002c.10999.02997.21002.04999.32001.04999.21002,0,.40997-.06.58002-.19.26996-.19.41998-.48999.41998-.81v-4h2v10ZM45,26h2.54999l6.22003,7h-8.77002v-7ZM49,48c-1.09998,0-2-.90002-2-2,0-1.10004.90002-2,2-2s2,.89996,2,2c0,1.09998-.90002,2-2,2ZM55,46h-2c0-.73004-.21002-1.41003-.56-2h2.56v2ZM55,42h-14v-16h2v8c0,.54999.45001,1,1,1h11v7Z"/>
  <path d="M46,37h-2c-.55273,0-1,.44775-1,1s.44727,1,1,1h2c.55273,0,1-.44775,1-1s-.44727-1-1-1Z"/>
</svg>