<?xml version="1.0" encoding="UTF-8"?>
<svg id="Outline" xmlns="http://www.w3.org/2000/svg" version="1.1" viewBox="0 0 64 64">
  <!-- Generator: Adobe Illustrator 29.5.1, SVG Export Plug-In . SVG Version: 2.1.0 Build 141)  -->
  <path d="M51,26v4c0,.55-.45,1-1,1s-1-.45-1-1v-3.41c-1.12-.68-2.07-1.62-2.77-2.73-.81-1.31-1.23-2.81-1.23-4.33v-10.53h-4v1c0,.55-.45,1-1,1s-1-.45-1-1v-2c0-.55.45-1,1-1h6c.55,0,1,.45,1,1v11.53c0,1.15.32,2.29.93,3.28.61.97,1.49,1.77,2.52,2.3.34.17.55.51.55.89Z"/>
  <path d="M50,33c-.552,0-1,.447-1,1v20c0,.552-.449,1-1,1H16c-.551,0-1-.448-1-1v-27.409c2.482-1.487,4-4.139,4-7.061v-10.53h4v5c0,2.396.934,4.656,2.635,6.37,1.709,1.696,3.969,2.63,6.365,2.63,4.962,0,9-4.037,9-9,0-.553-.448-1-1-1s-1,.447-1,1c0,3.859-3.14,7-7,7-1.864,0-3.624-.728-4.951-2.045-1.321-1.33-2.049-3.091-2.049-4.955v-6c0-.553-.448-1-1-1h-6c-.552,0-1,.447-1,1v11.53c0,2.371-1.321,4.508-3.449,5.576-.338.17-.551.516-.551.894v28c0,1.654,1.346,3,3,3h32c1.654,0,3-1.346,3-3v-20c0-.553-.448-1-1-1Z"/>
  <path d="M32,27.094c-3.661-2.985-9.077-2.772-12.487.639-3.638,3.638-3.638,9.557,0,13.194l11.78,11.78c.195.195.451.293.707.293s.512-.098.707-.293l11.78-11.78c3.638-3.638,3.638-9.557,0-13.194-3.411-3.411-8.827-3.624-12.487-.639ZM45.185,35h-26.369c-.061-.667-.029-1.34.092-2h26.186c.121.66.152,1.333.092,2ZM26.414,45h11.172l-2,2h-7.172l-2-2ZM24.414,43l-2-2h19.172l-2,2h-15.172ZM32,50.586l-1.586-1.586h3.172l-1.586,1.586ZM43.536,39h-23.073c-.507-.613-.898-1.289-1.175-2h25.424c-.277.711-.668,1.387-1.175,2ZM43.073,29.146c.558.558,1.003,1.186,1.343,1.854h-24.833c.34-.668.785-1.295,1.343-1.854,1.429-1.429,3.306-2.144,5.183-2.144s3.754.715,5.183,2.144c.391.391,1.023.391,1.414,0,2.858-2.857,7.508-2.857,10.366,0Z"/>
</svg>