<?xml version="1.0" encoding="UTF-8"?>
<svg id="Outline" xmlns="http://www.w3.org/2000/svg" version="1.1" viewBox="0 0 64 64">
  <!-- Generator: Adobe Illustrator 29.5.1, SVG Export Plug-In . SVG Version: 2.1.0 Build 141)  -->
  <path d="M32,11c-11.5791,0-21,9.42041-21,21s9.4209,21,21,21,21-9.42041,21-21c0-4.83447-1.68555-9.55176-4.74609-13.28418-.35059-.42578-.98047-.49072-1.40723-.13916-.42773.35059-.48926.98047-.13965,1.40771,2.76855,3.37549,4.29297,7.64258,4.29297,12.01562,0,10.47656-8.52344,19-19,19s-19-8.52344-19-19,8.52344-19,19-19c4.43652,0,8.5918,1.48438,12.0166,4.29297.42773.35156,1.05664.28711,1.40723-.13867.34961-.42725.28809-1.05713-.13965-1.40723-3.73145-3.06104-8.44922-4.74707-13.28418-4.74707Z"/>
  <path d="M54.82617,42.19629c1.44336-3.21045,2.17383-6.63525,2.17383-10.19629,0-13.78516-11.21484-25-25-25-3.56152,0-6.98633.73096-10.19727,2.17432-.11621-.18164-.25195-.35303-.40723-.51367-2.0166-2.00391-6.27441-.78467-9.90332,2.8335-3.61816,3.62891-4.83496,7.88525-2.81836,9.91357.1543.1499.32129.28174.5.396-1.44336,3.21045-2.17383,6.63525-2.17383,10.19629,0,5.90039,2.10156,11.63135,5.91699,16.13672.35547.41992.98535.47461,1.40918.1167.4209-.35693.47363-.98779.11621-1.40967-3.50977-4.14453-5.44238-9.41602-5.44238-14.84375,0-3.60889.81543-7.06494,2.42383-10.27197.14062-.2793.1416-.6084.00391-.88916s-.39844-.48047-.70605-.54053c-.26855-.05273-.4834-.15918-.64258-.31348-.99609-1.00244.00195-4.24268,2.82715-7.07666,2.83594-2.82764,6.07324-3.82568,7.06543-2.84277.16797.17334.27441.38818.32715.65625.05957.30664.25977.56787.54102.70557.2793.1377.60938.13721.88867-.00342,3.20703-1.6084,6.66309-2.42383,10.27148-2.42383,12.68262,0,23,10.31787,23,23,0,3.60889-.81543,7.06494-2.42383,10.27197-.14062.2793-.1416.6084-.00391.88916s.39844.48047.70605.54053c.26855.05273.4834.15918.64258.31348.99609,1.00244-.00195,4.24268-2.82715,7.07666-2.83691,2.82715-6.07617,3.82422-7.06543,2.84277-.16797-.17334-.27441-.38818-.32715-.65625-.05957-.30664-.25977-.56787-.54102-.70557-.2793-.13721-.60938-.13721-.88867.00342-3.20703,1.6084-6.66309,2.42383-10.27148,2.42383-5.42676,0-10.69824-1.93311-14.84375-5.44336-.42285-.35791-1.05371-.3042-1.40918.11719-.35742.42139-.30469,1.05225.11621,1.40918,4.50684,3.81543,10.2373,5.91699,16.13672,5.91699,3.56152,0,6.98633-.73096,10.19727-2.17432.11621.18164.25195.35303.40723.51367,2.0166,2.00342,6.27441.78564,9.90332-2.8335,3.61816-3.62891,4.83496-7.88525,2.81836-9.91357-.1543-.1499-.32129-.28174-.5-.396Z"/>
  <path d="M23,46h4c1.6543,0,3-1.3457,3-3s-1.3457-3-3-3h-4c-1.6543,0-3,1.3457-3,3s1.3457,3,3,3ZM23,42h4c.55176,0,1,.44873,1,1s-.44824,1-1,1h-4c-.55176,0-1-.44873-1-1s.44824-1,1-1Z"/>
  <path d="M34,48h4c1.6543,0,3-1.3457,3-3s-1.3457-3-3-3h-4c-1.6543,0-3,1.3457-3,3s1.3457,3,3,3ZM34,44h4c.55176,0,1,.44873,1,1s-.44824,1-1,1h-4c-.55176,0-1-.44873-1-1s.44824-1,1-1Z"/>
  <path d="M36,40c1.6543,0,3-1.3457,3-3s-1.3457-3-3-3h-4c-1.6543,0-3,1.3457-3,3s1.3457,3,3,3h4ZM31,37c0-.55127.44824-1,1-1h4c.55176,0,1,.44873,1,1s-.44824,1-1,1h-4c-.55176,0-1-.44873-1-1Z"/>
  <path d="M47,37c1.6543,0,3-1.3457,3-3s-1.3457-3-3-3h-4c-1.6543,0-3,1.3457-3,3s1.3457,3,3,3h4ZM42,34c0-.55127.44824-1,1-1h4c.55176,0,1,.44873,1,1s-.44824,1-1,1h-4c-.55176,0-1-.44873-1-1Z"/>
  <path d="M22,20c-4.20996,0-7,8.53906-7,12,0,3.58887,2.81348,6,7,6s7-2.41113,7-6c0-3.46094-2.79004-12-7-12ZM22,36c-2.41699,0-5-1.05078-5-4,0-3.39014,2.69922-10,5-10s5,6.60986,5,10c0,2.94922-2.58301,4-5,4Z"/>
  <path d="M19,31c0,1.6543,1.3457,3,3,3s3-1.3457,3-3-1.3457-3-3-3-3,1.3457-3,3ZM23,31c0,.55127-.44824,1-1,1s-1-.44873-1-1,.44824-1,1-1,1,.44873,1,1Z"/>
  <path d="M39,19h-1v-1c0-1.65002-1.34998-3-3-3h-4c-1.65002,0-3,1.34998-3,3v4c0,1.64996,1.34998,3,3,3h1v1c0,1.64996,1.34998,3,3,3h4c1.65002,0,3-1.35004,3-3v-4c0-1.65002-1.34998-3-3-3ZM31,23c-.54999,0-1-.45001-1-1v-4c0-.54999.45001-1,1-1h4c.54999,0,1,.45001,1,1v4c0,.54999-.45001,1-1,1h-4ZM40,26c0,.54999-.45001,1-1,1h-4c-.54999,0-1-.45001-1-1v-1h1c1.65002,0,3-1.35004,3-3v-1h1c.54999,0,1,.45001,1,1v4Z"/>
</svg>