<?xml version="1.0" encoding="UTF-8"?>
<svg id="Outline" xmlns="http://www.w3.org/2000/svg" version="1.1" viewBox="0 0 64 64">
  <!-- Generator: Adobe Illustrator 29.5.1, SVG Export Plug-In . SVG Version: 2.1.0 Build 141)  -->
  <path d="M50.01,39.44c-.29.01-7.49,0-12.03,4.54-1.36,1.36-2.31,2.97-2.98,4.55v-15.76c2.05-.37,3.87-1.27,4.96-3.32,3.25-3.31,5.04-7.68,5.04-12.32v-9.13c0-.55-.45-1-1-1h-.85c-2.63,0-5.28.55-7.7,1.58-1.05-.99-2.21-1.58-3.45-1.58s-2.4.59-3.45,1.58c-2.42-1.03-5.07-1.58-7.7-1.58h-.85c-.55,0-1,.45-1,1v9.13c0,4.64,1.79,9.01,5.04,12.32,1.09,2.05,2.91,2.95,4.96,3.32v15.76c-.67-1.58-1.62-3.19-2.98-4.55-4.54-4.54-11.72-4.54-12.03-4.54-.54.01-.99.45-.99,1,0,.3,0,7.48,4.54,12.02,4.43,4.44,11.4,4.54,11.99,4.54.01,0,.03-.04.05-.1.13.06.27.1.42.1h4c.15,0,.29-.04.42-.1.02.06.04.1.05.1.59,0,7.56-.1,11.99-4.54,4.54-4.54,4.54-11.72,4.54-12.02,0-.55-.45-.99-.99-1ZM18.95,51.05c-2.99-2.99-3.72-7.52-3.89-9.55,2.03.18,6.55.9,9.55,3.89,2.99,3,3.71,7.52,3.89,9.55-2.03-.17-6.56-.9-9.55-3.89ZM43,9v8.13c0,2.73-.71,5.34-2.02,7.65.01-.14.02-.27.02-.42,0-4.55-1.61-10.54-4.17-14.16,1.97-.76,4.07-1.18,6.17-1.2ZM23,24.36c0,.15.01.28.02.42-1.31-2.31-2.02-4.92-2.02-7.65v-8.13c2.1.02,4.2.44,6.17,1.2-2.56,3.62-4.17,9.61-4.17,14.16ZM33,55h-2v-22.02c.33.01.67.02,1,.02s.67-.01,1-.02v22.02ZM34,30.9h-.01c-.62.07-1.27.1-1.99.1s-1.37-.03-1.99-.1h-.01c-.99-.11-1.84-.32-2.54-.7-.71-.38-1.26-.92-1.67-1.68-.02-.06-.06-.11-.09-.17-.46-.96-.7-2.25-.7-3.99,0-6.42,3.53-15.36,7-15.36s7,8.94,7,15.36c0,1.74-.24,3.03-.7,3.99-.03.06-.07.11-.09.17-.81,1.52-2.23,2.16-4.21,2.38ZM45.05,51.05c-2.99,2.99-7.52,3.72-9.55,3.89.18-2.03.9-6.55,3.89-9.55,3-2.99,7.52-3.71,9.55-3.89-.17,2.03-.9,6.56-3.89,9.55Z"/>
</svg>