<?xml version="1.0" encoding="UTF-8"?>
<svg id="Outline" xmlns="http://www.w3.org/2000/svg" version="1.1" viewBox="0 0 64 64">
  <!-- Generator: Adobe Illustrator 29.5.1, SVG Export Plug-In . SVG Version: 2.1.0 Build 141)  -->
  <path d="M41.67436,11.81372c-1.13873-.65833-2.61871-.60614-4.29382.09167-1.3634-3.12384-3.22552-4.90564-5.20618-4.90564-1.9726,0-3.82953,1.77319-5.19373,4.88507-1.54016-.64905-3.04987-.79712-4.30676-.07062-3.69922,2.13916-2.06592,10.42285.68457,15.18604,2.24268,3.88135,4.75732,4.89355,6.77002,4.89355.14624,0,.28455-.01392.42523-.02393-.77856,2.21906-1.32098,4.49054-1.63013,6.78326-3.0437-2.12897-7.28589-3.26593-7.4953-3.32086-.34424-.09131-.70996.00928-.96094.25977-.25146.25146-.35059.61719-.26025.96094.06445.24609,1.61182,6.05566,4.50244,8.9458,1.55414,1.54602,2.95172,2.35712,4.24298,2.47266.40399,2.86395,1.16467,5.69061,2.29901,8.41309.15964.38373.53162.61565.92318.61572.70034.00011,1.19297-.73612.92252-1.38525-3.12695-7.50537-3.3125-15.84521-.521-23.48193l.16522-.45221c.46735.11292.9613.19928,1.49982.19928,2.05469,0,4.53564-1.04883,6.74561-4.87549,2.75195-4.76709,4.3877-13.05469.6875-15.19092ZM32.17436,8.99976c1.12531,0,2.43256,1.48853,3.43555,3.84119-.26001.16571-.52057.33356-.78662.52649-.9093.65991-1.80585,1.45111-2.64935,2.31714-1.03571-1.06519-2.21313-2.07385-3.42694-2.85413,1.00378-2.34705,2.30719-3.83069,3.42737-3.83069ZM25.09037,25.99976c-2.73877-4.74268-3.479-11.26074-1.41553-12.4541,1.37372-.79181,4.42566.78436,7.16229,3.6308-.74756.91089-1.42096,1.86816-1.97528,2.82819-1.42383,2.4668-1.92822,4.69971-1.49854,6.63623.26428,1.1908.8938,2.24774,1.83319,3.12891-1.49023-.37-2.8653-1.62213-4.10614-3.77002ZM26.12162,44.08276c-1.59961-1.59961-2.77393-4.41357-3.41748-6.25146,1.72528.6076,4.30487,1.69684,5.9798,3.18835-.10461,1.62457-.09088,3.25293.03729,4.87476-.72705-.21716-1.60529-.82239-2.59961-1.81165ZM39.25443,26.00464c-2.15625,3.73486-4.70605,4.78809-7.58008,3.12891-1.30078-.75098-2.09424-1.73535-2.3584-2.92578-.31787-1.43262.1123-3.18359,1.27832-5.20312,1.30469-2.26025,3.3252-4.51025,5.40381-6.01855,1.98975-1.44385,3.73779-1.98193,4.67627-1.44043,2.06348,1.19141,1.3208,7.71191-1.41992,12.45898Z"/>
</svg>