<?xml version="1.0" encoding="UTF-8"?>
<svg id="Outline" xmlns="http://www.w3.org/2000/svg" version="1.1" viewBox="0 0 64 64">
  <!-- Generator: Adobe Illustrator 29.5.1, SVG Export Plug-In . SVG Version: 2.1.0 Build 141)  -->
  <path d="M56,49c0-1.44-.79-2.76-2.03-3.46-.06-.53-.23-1.03-.48-1.48-.79-4.49-2.54-8.25-5.07-10.97l3.08-1.99c3.45-2.23,5.5-6,5.5-10.1,0-.34-.17-.66-.46-.84-.28-.18-.64-.21-.95-.07l-17.84,7.99c-.54-.05-1.13-.08-1.75-.08-9.82,0-20.43,6.47-24.32,14.76-.89.65-1.52,1.63-1.65,2.78-1.24.7-2.03,2.02-2.03,3.46-.55,0-1,.45-1,1,0,2.76,2.24,5,5,5h40c2.76,0,5-2.24,5-5,0-.55-.45-1-1-1ZM51.99,46.01c-.08.48.2.95.66,1.11.81.29,1.35,1.04,1.35,1.88h-14c0-1.36,1.41-2.39,2.75-1.85.26.1.56.09.82-.04.25-.12.44-.36.52-.63.32-1.2,1.72-1.87,2.89-1.21.46.26,1.05.11,1.34-.34.36-.58.99-.93,1.68-.93,1.1,0,2,.9,1.99,2.01ZM51.01,42.14c-.33-.08-.66-.14-1.01-.14-1.08,0-2.09.43-2.83,1.18-.21-.07-.42-.11-.64-.14l-4.41-5.87,4.59-2.97c1.96,2,3.42,4.7,4.3,7.94ZM34.01,30.1c-1.6,1.26-2.81,2.99-3.41,4.98-.83,2.78-.41,5.79,1.15,8.24l1.41,2.22c.19.3.509.46.839.46.778,0,1.256-.89.841-1.54l-1.41-2.21c-1.24-1.96-1.58-4.37-.91-6.6.67-2.22,2.27-4.05,4.39-5l17.96-8.05c-.44,2.78-2.04,5.26-4.45,6.82l-9.5,6.14-.12-.16c-.33-.44-.96-.53-1.4-.2-.44.33-.53.96-.2,1.4l5.1,6.79c-.74.36-1.36.92-1.77,1.65-.18-.03-.35-.04-.53-.04-2.21,0-4,1.79-4,4h-12c0-2.21-1.79-4-4-4-.18,0-.35.01-.53.04-.69-1.24-2.01-2.04-3.47-2.04-.4,0-.79.06-1.17.18-.66-.67-1.54-1.07-2.5-1.15,3.8-6.34,11.81-11.21,19.68-11.93ZM11.35,47.12c.46-.16.73-.64.65-1.12,0-1.1.9-2,2-2,.69,0,1.32.35,1.68.93.29.45.88.6,1.34.34,1.17-.66,2.58.01,2.89,1.21.08.27.27.51.52.63.26.13.56.14.82.04,1.34-.53,2.75.49,2.75,1.85h-14c0-.84.54-1.59,1.35-1.88ZM52,53H12c-1.3,0-2.42-.84-2.83-2h45.66c-.41,1.16-1.53,2-2.83,2Z"/>
  <path d="M13.45,32.778l-.388.775c-.247.494-.047,1.094.448,1.342.488.244,1.097.042,1.342-.447l.388-.775c1.154-2.31.982-5.079-.45-7.227-1.035-1.553-1.16-3.554-.325-5.223l.388-.775c.247-.494.047-1.094-.447-1.342-.493-.248-1.095-.047-1.342.447l-.388.775c-1.154,2.31-.982,5.079.45,7.227,1.035,1.553,1.16,3.554.325,5.223Z"/>
  <path d="M18.45,29.778l-.388.775c-.574,1.147,1.208,2.057,1.789.895l.388-.775c1.154-2.31.982-5.079-.45-7.227-1.035-1.553-1.16-3.554-.325-5.223l.388-.775c.247-.494.047-1.094-.447-1.342-.493-.248-1.095-.047-1.342.447l-.388.775c-1.154,2.31-.982,5.079.45,7.227,1.035,1.553,1.16,3.554.325,5.223Z"/>
  <path d="M34.45,23.778l-.388.775c-.323.645.174,1.447.894,1.447.367,0,.72-.202.896-.553l.388-.775c1.154-2.31.982-5.079-.45-7.227-1.035-1.553-1.16-3.554-.325-5.223l.388-.775c.247-.494.047-1.094-.447-1.342-.494-.246-1.095-.047-1.342.447l-.388.775c-1.154,2.31-.982,5.079.45,7.227,1.035,1.553,1.16,3.554.325,5.223Z"/>
  <path d="M39.45,22.778l-.388.775c-.316.632.185,1.447.894,1.447.367,0,.72-.202.896-.553l.388-.775c1.154-2.31.982-5.079-.45-7.227-1.035-1.553-1.16-3.554-.325-5.223l.388-.775c.247-.494.047-1.094-.447-1.342-.494-.247-1.095-.047-1.342.447l-.388.775c-1.154,2.31-.982,5.079.45,7.227,1.035,1.553,1.16,3.554.325,5.223Z"/>
</svg>