<?xml version="1.0" encoding="UTF-8"?>
<svg id="Outline" xmlns="http://www.w3.org/2000/svg" version="1.1" viewBox="0 0 64 64">
  <!-- Generator: Adobe Illustrator 29.5.1, SVG Export Plug-In . SVG Version: 2.1.0 Build 141)  -->
  <path d="M53.196,49.02l-4.65-1.03c-2.88-.64-5.83-.44-8.59.56-.59-.34-1.26-.55-1.98-.55-.28,0-.55.03-.81.08-.07-.01-.13-.03-.19-.04v-.93c3.34-1.95,5.82-5.22,6.67-9.11h1.33c1.65,0,3-1.35,3-3s-1.35-3-3-3h-1v-.19c.18-.06.36-.11.53-.17.41-.13.69-.52.69-.95v-4.45c3.45-2.25,5.25-6.28,4.6-10.45-.69-4.42-4.28-7.99-8.74-8.67-2.19-.33-4.36.03-6.32,1.02-1.44-.73-3.06-1.14-4.76-1.14s-3.32.41-4.76,1.14c-1.96-.99-4.14-1.35-6.32-1.02-4.46.68-8.05,4.25-8.74,8.68-.65,4.16,1.15,8.19,4.6,10.44v4.45c0,.43.28.82.69.95.17.06.35.11.53.17v.19h-1c-1.65,0-3,1.35-3,3s1.35,3,3,3h1.33c.85,3.89,3.33,7.16,6.67,9.11v.89c0,.02.01.03.01.05-.75.12-1.44.45-1.96.99-.68.66-1.05,1.55-1.05,2.51,0,1.24.66,2.41,1.72,3.05l.33.2c2.4,1.44,5.14,2.2,7.95,2.2,2.2,0,4.32-.48,6.33-1.38.51.24,1.07.38,1.67.38,1.59,0,2.96-.94,3.6-2.29,2.32-.38,4.7-.15,6.91.67l4.14,1.56c.11.04.23.06.35.06.55,0,1-.451,1-1v-5c0-.47-.33-.87-.78-.98ZM15.976,36h-1c-.55,0-1-.45-1-1s.45-1,1-1h1v2ZM41.976,35c0,.92-.11,1.8-.31,2.66-1.52-1.05-2.48-2.71-2.65-4.57.99-.19,1.98-.43,2.96-.7v2.61ZM44.976,34c.55,0,1,.45,1,1s-.45,1-1,1h-1v-2h1ZM16.256,24.81c-3.06-1.76-4.68-5.17-4.13-8.71.56-3.57,3.47-6.45,7.07-7,1.37-.21,2.74-.08,4.03.36-1.28,1.08-2.31,2.46-2.97,4.09-.2.51.04,1.09.55,1.3.51.2,1.1-.04,1.31-.55,1.3-3.22,4.39-5.3,7.86-5.3s6.56,2.08,7.86,5.3c.16.39.54.62.93.62.7,0,1.19-.73.93-1.37-.66-1.63-1.69-3.01-2.97-4.09,1.29-.44,2.66-.57,4.03-.36,3.6.55,6.51,3.43,7.07,7,.55,3.54-1.07,6.95-4.13,8.71-.31.18-.5.51-.5.86v4.3c-8.55,2.69-17.89,2.69-26.44,0v-4.3c0-.35-.19-.68-.5-.86ZM17.976,35v-2.61c.98.27,1.97.51,2.96.7-.17,1.86-1.13,3.52-2.65,4.57-.2-.86-.31-1.74-.31-2.66ZM18.896,39.61c2.26-1.32,3.73-3.59,4.02-6.17,2.33.36,4.7.54,7.06.54s4.73-.18,7.06-.54c.29,2.58,1.76,4.85,4.02,6.17-1.82,4.34-6.1,7.39-11.08,7.39s-9.26-3.05-11.08-7.39ZM29.976,55c-2.44,0-4.83-.66-6.91-1.92l-.34-.2c-.47-.28-.75-.78-.75-1.33,0-.42.16-.8.46-1.1.26-.27.6-.41.97-.44.78,1.76,2.53,2.99,4.57,2.99h4c.73,0,1.43-.17,2.06-.45.08.59.28,1.14.59,1.61-1.49.55-3.05.84-4.65.84ZM31.976,51h-4c-1.63,0-2.96-1.31-2.99-2.94,1.55.6,3.23.94,4.99.94s3.44-.34,4.99-.94c-.03,1.63-1.36,2.94-2.99,2.94ZM37.976,54c-1.1,0-2-.9-2-2s.9-2,2-2,2,.9,2,2-.9,2-2,2ZM51.976,53.56l-2.79-1.05c-2.3-.86-4.77-1.16-7.25-.87-.04-.53-.2-1.04-.44-1.49,2.15-.62,4.41-.7,6.61-.21l3.87.86v2.76Z"/>
</svg>