<?xml version="1.0" encoding="UTF-8"?>
<svg id="Outline" xmlns="http://www.w3.org/2000/svg" version="1.1" viewBox="0 0 64 64">
  <!-- Generator: Adobe Illustrator 29.3.1, SVG Export Plug-In . SVG Version: 2.1.0 Build 151)  -->
  <path d="M57,48v-30c0-1.65002-1.34998-3-3-3h-6.21997c-.70001-4.66003-2.99005-8-5.78003-8-.96002,0-1.85999.40997-2.65997,1.10999l-4.20001,1.90997c-2.90002,1.31-5.98004,1.98004-9.14001,1.98004h-3c-1.59998,0-3.09998.62-4.25,1.76001-.37.37-.69.78998-.94,1.23999h-7.81c-1.65002,0-3,1.34998-3,3v30c0,1.64996,1.34998,3,3,3h4.13l-2.66998,4h-3.46002c-.54999,0-1,.45001-1,1s.45001,1,1,1h48c.54999,0,1-.45001,1-1s-.45001-1-1-1h-3.46002l-2.66998-4h4.13c1.65002,0,3-1.35004,3-3ZM42,9c1.89001,0,4,3.70001,4,9s-2.10999,9-4,9-4-3.70001-4-9,2.10999-9,4-9ZM27,13.97998c3.09998-.13,6.10999-.84998,8.96002-2.14001l1.26996-.57001c-.76996,1.85004-1.22998,4.17004-1.22998,6.73004s.46002,4.88,1.22998,6.72998l-1.26996-.57001c-2.85004-1.28998-5.86005-2.01001-8.96002-2.14001v-8.03998ZM28.14001,24.10999l1.28998,7.59998c.10004.57001-.06,1.15002-.44,1.60004-.66998.78998-1.96997.89001-2.72998.23999-.16003-.14001-.29999-.31-.41003-.47003-.13-.20996-.22998-.45996-.26996-.70996l-1.40002-8.37h1.82001c.71997,0,1.42999.03998,2.14001.10999ZM20.15997,15.16998c.77002-.75,1.77002-1.16998,2.84003-1.16998h2v8h-2c-2.21002,0-4-1.79004-4-4,0-1.07001.41998-2.07001,1.15997-2.83002ZM16.46002,55h-2.59003l2.66998-4h2.59003l-2.66998,4ZM18.87,55l2.66998-4h20.92004l2.66998,4h-26.26001ZM50.13,55h-2.59003l-2.66998-4h2.59003l2.66998,4ZM10,49c-.54999,0-1-.45001-1-1v-30c0-.54999.45001-1,1-1h7.09003c-.06.32996-.09003.65997-.09003,1,0,.33997.03998.66998.09003,1h-3.09003c-1.65002,0-3,1.34998-3,3v18c0,1.64996,1.34998,3,3,3h3c.54999,0,1-.45001,1-1s-.45001-1-1-1h-3c-.54999,0-1-.45001-1-1v-18c0-.54999.45001-1,1-1h3.81c.90002,1.54999,2.47998,2.65997,4.33002,2.92999l1.46997,8.77997c.09003.51001.28003,1.01001.54999,1.45001.22003.33002.48004.63.79004.90002.70001.60999,1.60999.94,2.54999.94,1.16998,0,2.26001-.51001,3.02002-1.40002.75-.89001,1.07996-2.06.88995-3.21997l-1.19-6.97003c1.68005.33002,3.33002.85004,4.92004,1.57001l4.19,1.90002q.01001,0,.01001.01001c.79999.69995,1.69995,1.10999,2.65997,1.10999,2.78998,0,5.08002-3.34003,5.78003-8h2.21997c.54999,0,1,.45001,1,1v18c0,.54999-.45001,1-1,1h-25c-.54999,0-1,.45001-1,1s.45001,1,1,1h25c1.65002,0,3-1.35004,3-3v-18c0-1.65002-1.34998-3-3-3h-2.03003c.02002-.33002.03003-.66003.03003-1,0-.34003-.01001-.67004-.03003-1h6.03003c.54999,0,1,.45001,1,1v30c0,.54999-.45001,1-1,1H10Z"/>
  <path d="M30,47h4c.55273,0,1-.44775,1-1s-.44727-1-1-1h-4c-.55273,0-1,.44775-1,1s.44727,1,1,1Z"/>
  <path d="M40,16c0,.55225.44727,1,1,1,.55176,0,1,.44873,1,1s-.44824,1-1,1c-.55273,0-1,.44775-1,1s.44727,1,1,1c1.6543,0,3-1.3457,3-3s-1.3457-3-3-3c-.55273,0-1,.44775-1,1Z"/>
  <path d="M47.29297,35.29297l-2,2c-.39062.39062-.39062,1.02344,0,1.41406.19531.19531.45117.29297.70703.29297s.51172-.09766.70703-.29297l2-2c.39062-.39062.39062-1.02344,0-1.41406s-1.02344-.39062-1.41406,0Z"/>
  <path d="M41,39c.25586,0,.51172-.09766.70703-.29297l7-7c.39062-.39062.39062-1.02344,0-1.41406s-1.02344-.39062-1.41406,0l-7,7c-.39062.39062-.39062,1.02344,0,1.41406.19531.19531.45117.29297.70703.29297Z"/>
  <circle cx="21" cy="42" r="1"/>
</svg>