<?xml version="1.0" encoding="UTF-8"?>
<svg id="Outline" xmlns="http://www.w3.org/2000/svg" version="1.1" viewBox="0 0 64 64">
  <!-- Generator: Adobe Illustrator 29.3.1, SVG Export Plug-In . SVG Version: 2.1.0 Build 151)  -->
  <path d="M30.27197,38.0376l-5.54755-1.56744c-.42352-.65259-.89917-1.2793-1.43683-1.86713-.87109-.95312-2.11035-1.49951-3.3999-1.49951-2.54443,0-4.61426,2.05566-4.61426,4.58203,0,.28857.0249.55908.07324.80713.09833.57098.14734,1.13507.151,1.6795-2.69635-.27631-5.46411.1908-7.94348,1.4245-.3623.18018-.58008.56152-.55176.96582.02881.40381.29834.75049.68262.87842l4.29102,1.42432c.30615.10156.56982.29053.76318.54736l.66827.88751c-1.36804,1.76154-3.28271,3.02106-5.46173,3.56512l-.17676.04199c-.36475.08691-.65039.37012-.74023.73389-.08936.36426.03223.74756.31494.99365l3.67188,3.19434c1.61865,1.41406,3.68457,2.16992,5.79541,2.16992.70801,0,1.42139-.08496,2.12402-.25879,2.02979-.51025,3.81445-1.71973,5.0249-3.40576l.40479-.56299c2.01459-2.80804,2.88043-6.16553,2.64691-9.44684l3.68805-3.6098c.25488-.24951.35742-.61621.26953-.96191-.08838-.3457-.354-.61816-.69727-.71533ZM12.60596,42.9668l-1.57471-.52246c2.99561-.72754,6.21338-.33057,8.94922,1.15576l-1.87598,2.33496c-.60938.75977-1.91064.73828-2.49658-.03809l-1.27051-1.68701c-.43896-.58301-1.0376-1.0127-1.73145-1.24316ZM22.74023,51.60449l-.40479.56299c-.93506,1.30273-2.31592,2.23828-3.88379,2.63232-2.1626.53418-4.4502-.01855-6.12207-1.47803l-2.32812-2.02588c1.85394-.74524,3.48401-1.94324,4.7572-3.48291.60901.44586,1.34412.71191,2.11243.71191,1.0918,0,2.10938-.4873,2.79199-1.33691l2.59619-3.23096c.17969-.22314.25439-.51221.20654-.79443s-.21484-.52979-.45752-.68115l-.3501-.21777c-1.29834-.80774-2.70734-1.38947-4.1651-1.74701.00226-.09406.00739-.18317.00739-.28131,0-.67725-.06152-1.37744-.18652-2.10205-.0293-.15283-.04053-.30078-.04053-.44775,0-1.42383,1.17285-2.58203,2.61426-2.58203.72949,0,1.43066.30957,1.92432.84912,3.94775,4.31641,4.33789,10.89941.92822,15.65186ZM26.63116,40.89801c-.16498-.67596-.37653-1.34167-.63867-1.99103l2.0744.58618-1.43573,1.40485Z"/>
  <path d="M20.63733,37.45886c-.46527,0-.84247.37555-.84247.83887,0,.46326.3772.83881.84247.83881.46533,0,.84253-.37555.84253-.83881,0-.46332-.3772-.83887-.84253-.83887Z"/>
  <path d="M56.23096,49.90723l-.16553-.03906c-2.18921-.54675-4.10486-1.80658-5.47302-3.56818l.66882-.88788c.19287-.25635.45654-.44531.7627-.54688l4.29102-1.42432c.38428-.12793.65381-.47461.68262-.87842.02832-.4043-.18945-.78564-.55176-.96582-2.47913-1.23425-5.24701-1.70135-7.94348-1.42487.00366-.54419.05261-1.1076.14758-1.65961.05176-.26758.07666-.53809.07666-.82666,0-2.52637-2.06982-4.58203-4.61426-4.58203-1.28955,0-2.52881.54639-3.3999,1.49951-.53766.58783-1.01331,1.21454-1.43683,1.86713l-5.54755,1.56744c-.34326.09717-.60889.36963-.69727.71533-.08789.3457.01465.7124.26953.96191l3.68811,3.60986c-.23346,3.28143.63251,6.63922,2.64734,9.44775l.40381.56104c1.21094,1.68701,2.99561,2.89648,5.0293,3.40771.70117.17334,1.41309.2583,2.12012.2583,2.10938,0,4.17627-.75586,5.79395-2.16895l3.67334-3.1958c.28271-.24609.4043-.62939.31494-.99365-.08984-.36377-.37549-.64697-.74023-.73389ZM52.96826,42.44434l-1.57422.52246c-.69385.23047-1.29248.66016-1.73096,1.24268l-1.271,1.68701c-.58545.77686-1.88672.79785-2.49658.03857l-1.87598-2.33496c2.73535-1.48633,5.95312-1.8833,8.94873-1.15576ZM35.93311,39.49316l2.0744-.58618c-.26215.64935-.47375,1.31506-.63867,1.99109l-1.43573-1.40491ZM51.66895,53.32324c-1.6709,1.45898-3.95801,2.01074-6.1167,1.47754-1.57178-.39502-2.95264-1.33057-3.88818-2.63428l-.40381-.56104c-3.41016-4.75342-3.02002-11.33643.92773-15.65283.49365-.53955,1.19482-.84912,1.92432-.84912,1.44141,0,2.61426,1.1582,2.61426,2.58203,0,.14697-.01123.29492-.04395.46729-.12158.70508-.18311,1.40527-.18311,2.08252,0,.09808.00513.18713.00739.28113-1.45776.35767-2.86676.93945-4.1651,1.74719l-.3501.21777c-.24268.15137-.40967.39893-.45752.68115s.02686.57129.20654.79443l2.59619,3.23096c.68262.84961,1.7002,1.33691,2.79199,1.33691.76825,0,1.50336-.26593,2.11237-.71198,1.27216,1.53833,2.90131,2.73572,4.75824,3.48248l-2.33057,2.02783Z"/>
  <path d="M43.36267,39.13654c.46527,0,.84247-.37555.84247-.83881,0-.46332-.3772-.83887-.84247-.83887-.46533,0-.84253.37555-.84253.83887,0,.46326.3772.83881.84253.83881Z"/>
  <path d="M57,15c0-1.65002-1.34998-3-3-3h-8.22998c-.81-1.51001-1.97003-2.79999-3.41003-3.69-.46997-.29004-1.08997-.15002-1.38.32001-.28998.46997-.14996,1.08997.32001,1.38,2.28003,1.40997,3.70001,4.07996,3.70001,6.95996,0,7.34003-10.40002,15.78003-13,17.78003-2.59998-2-13-10.44-13-17.78003,0-4.39001,3.22998-7.96997,7.20001-7.96997,1.90997,0,3.70996.82001,5.06,2.29999.19.21002.45001.33002.73999.33002.28003,0,.53998-.12.72998-.32001.58002-.62,1.21002-1.12,1.87-1.48004.48004-.26996.66003-.87.40002-1.35999-.27002-.47998-.87-.65997-1.35999-.39996-.57001.31-1.12.69995-1.64001,1.15997-1.62-1.45001-3.65002-2.22998-5.79999-2.22998-3.40002,0-6.37,2.01996-7.96002,5h-8.23999c-1.65002,0-3,1.34998-3,3,0,1.38.95001,2.53998,2.21997,2.88-.13995.34998-.21997.72998-.21997,1.12,0,1.64996,1.34998,3,3,3h.17999c-.10999.31-.17999.64996-.17999,1,0,1.64996,1.34998,3,3,3h.17999c-.10999.31-.17999.64996-.17999,1,0,1.64996,1.34998,3,3,3h5.76001c3.59998,3.87,7.35999,6.59998,7.65997,6.81.17004.13.38.19.58002.19s.40997-.06.58002-.19c.29999-.21002,4.06-2.94,7.65997-6.81h5.76001c1.65002,0,3-1.35004,3-3,0-.35004-.07001-.69-.17999-1h.17999c1.65002,0,3-1.35004,3-3,0-.35004-.07001-.69-.17999-1h.17999c1.65002,0,3-1.35004,3-3,0-.39001-.08002-.77002-.21997-1.12,1.26996-.34003,2.21997-1.5,2.21997-2.88ZM9,15c0-.54999.45001-1,1-1h7.41998c-.19.64001-.31,1.31-.37,2h-7.04999c-.54999,0-1-.45001-1-1ZM12,20c-.54999,0-1-.45001-1-1s.45001-1,1-1h5.06c.07001.66998.20001,1.32996.39001,2h-5.45001ZM15,24c-.54999,0-1-.45001-1-1s.45001-1,1-1h3.17999c.28998.66998.63,1.33997,1.01001,2h-4.19ZM18,28c-.54999,0-1-.45001-1-1s.45001-1,1-1h2.47998c.48004.67999.98999,1.34998,1.52002,2h-4ZM46,28h-4c.53003-.65002,1.03998-1.32001,1.52002-2h2.47998c.54999,0,1,.45001,1,1s-.45001,1-1,1ZM49,24h-4.19c.38-.66003.72003-1.33002,1.01001-2h3.17999c.54999,0,1,.45001,1,1s-.45001,1-1,1ZM52,20h-5.45001c.19-.67004.32001-1.33002.39001-2h5.06c.54999,0,1,.45001,1,1s-.45001,1-1,1ZM54,16h-7.06c-.06-.67999-.19-1.35004-.38-2h7.44c.54999,0,1,.45001,1,1s-.45001,1-1,1Z"/>
  <circle cx="38" cy="8" r="1"/>
</svg>