<?xml version="1.0" encoding="UTF-8"?>
<svg id="Outline" xmlns="http://www.w3.org/2000/svg" version="1.1" viewBox="0 0 64 64">
  <!-- Generator: Adobe Illustrator 29.0.0, SVG Export Plug-In . SVG Version: 2.1.0 Build 186)  -->
  <path d="M22,42c2.75684,0,5-2.24316,5-5s-2.24316-5-5-5-5,2.24316-5,5,2.24316,5,5,5ZM22,34c1.6543,0,3,1.3457,3,3s-1.3457,3-3,3-3-1.3457-3-3,1.3457-3,3-3Z"/>
  <path d="M54,30c-1.65002,0-3,1.34998-3,3v5.58997l-4.40997,4.41003h-10.59003c-1.64001,0-3.09003.81-4,2.02997-.90997-1.21997-2.35999-2.02997-4-2.02997h-10.59003l-4.40997-4.41003v-5.58997c0-1.65002-1.34998-3-3-3s-3,1.34998-3,3v9c0,.26996.10999.51996.28998.70996l5.71002,5.70001v7.59003c0,.54999.45001,1,1,1h36c.54999,0,1-.45001,1-1v-7.59003l5.71002-5.70001c.17999-.19.28998-.44.28998-.70996v-9c0-1.65002-1.34998-3-3-3ZM31,55h-3v-6c0-.54999-.45001-1-1-1s-1,.45001-1,1v6h-11v-7c0-.27002-.10999-.52002-.28998-.71002l-5.71002-5.70001v-8.58997c0-.54999.45001-1,1-1s1,.45001,1,1v6c0,.26996.10999.51996.28998.70996l5,5c.19.18005.44.29004.71002.29004h11c1.65002,0,3,1.34998,3,3v7ZM55,41.58997l-5.71002,5.70001c-.17999.19-.28998.44-.28998.71002v7h-11v-6c0-.54999-.45001-1-1-1s-1,.45001-1,1v6h-3v-7c0-1.65002,1.34998-3,3-3h11c.27002,0,.52002-.10999.71002-.29004l5-5c.17999-.19.28998-.44.28998-.70996v-6c0-.54999.45001-1,1-1s1,.45001,1,1v8.58997Z"/>
  <path d="M37,37c0,2.75684,2.24316,5,5,5s5-2.24316,5-5-2.24316-5-5-5-5,2.24316-5,5ZM45,37c0,1.6543-1.3457,3-3,3s-3-1.3457-3-3,1.3457-3,3-3,3,1.3457,3,3Z"/>
  <path d="M32,33c7.16846,0,13-5.83154,13-13s-5.83154-13-13-13-13,5.83154-13,13,5.83154,13,13,13ZM32,9c6.06543,0,11,4.93457,11,11s-4.93457,11-11,11-11-4.93457-11-11,4.93457-11,11-11Z"/>
  <path d="M27,20c1.6543,0,3-1.3457,3-3s-1.3457-3-3-3-3,1.3457-3,3,1.3457,3,3,3ZM27,16c.55127,0,1,.44873,1,1s-.44873,1-1,1-1-.44873-1-1,.44873-1,1-1Z"/>
  <path d="M37,20c1.6543,0,3-1.3457,3-3s-1.3457-3-3-3-3,1.3457-3,3,1.3457,3,3,3ZM37,16c.55127,0,1,.44873,1,1s-.44873,1-1,1-1-.44873-1-1,.44873-1,1-1Z"/>
  <path d="M26.92285,23.61523c-.21191-.50879-.7959-.75195-1.30762-.53809-.50977.2124-.75098.79785-.53809,1.30762,1.16797,2.80371,3.88574,4.61523,6.92285,4.61523s5.75488-1.81152,6.92285-4.61523c.21289-.50977-.02832-1.09521-.53809-1.30762-.51123-.21436-1.0957.0293-1.30762.53809-.85693,2.05615-2.84961,3.38477-5.07715,3.38477s-4.22021-1.32861-5.07715-3.38477Z"/>
</svg>