<?xml version="1.0" encoding="UTF-8"?>
<svg id="Outline" xmlns="http://www.w3.org/2000/svg" version="1.1" viewBox="0 0 64 64">
  <!-- Generator: Adobe Illustrator 29.5.1, SVG Export Plug-In . SVG Version: 2.1.0 Build 141)  -->
  <path d="M36,11.324v-.324c0-2.206-1.794-4-4-4s-4,1.794-4,4v.334c-4.247.695-8.289,2.475-11.667,5.197-.43.346-.498.976-.151,1.405.347.432.976.498,1.406.151,2.477-1.996,5.265-3.414,8.239-4.241-3.924,3.909-6.595,11.487-6.811,20.473-3.122-1.454-6.83-1.495-9.95-.057.281-3.724,1.463-7.315,3.46-10.479.295-.468.155-1.085-.312-1.38-.466-.295-1.084-.155-1.379.312-2.508,3.974-3.834,8.567-3.834,13.284,0,.368.203.707.528.882.324.174.719.154,1.026-.049,3.253-2.164,7.64-2.164,10.893,0,.336.223.771.223,1.107,0,2.491-1.657,5.644-2.034,8.446-1.153v2.32c0,1.302.839,2.402,2,2.816v11.184c0,1.654-1.346,3-3,3s-3-1.346-3-3v-2c0-.553-.448-1-1-1s-1,.447-1,1v2c0,2.757,2.243,5,5,5s5-2.243,5-5v-11.184c1.161-.414,2-1.514,2-2.816v-2.32c2.803-.881,5.955-.504,8.446,1.153.336.223.771.223,1.107,0,3.253-2.164,7.64-2.164,10.893,0,.167.111.36.167.554.167.162,0,.324-.039.472-.118.325-.175.528-.514.528-.882,0-12.424-9.11-22.755-21-24.676ZM30,11c0-1.103.897-2,2-2s2,.897,2,2v.087c-.661-.053-1.326-.087-2-.087-.669,0-1.336.032-2,.086v-.086ZM21.017,34.313c.295-10.989,4.659-20.176,9.983-21.211v21.22c-.185-.086-.365-.178-.554-.254-.062-.031-.128-.049-.197-.067-2.968-1.128-6.341-1.022-9.233.312ZM33,38c0,.552-.449,1-1,1s-1-.448-1-1v-1.417c.147.087.303.155.446.25.336.223.771.223,1.107,0,.143-.095.299-.163.446-.25v1.417ZM33.751,34c-.069.018-.135.035-.197.067-.188.076-.369.168-.554.254V13.102c5.324,1.036,9.688,10.222,9.983,21.211-2.892-1.335-6.265-1.441-9.233-.312ZM44.985,34.32c-.216-8.976-2.881-16.547-6.798-20.46,9.147,2.56,16.015,10.634,16.748,20.403-3.12-1.437-6.828-1.397-9.95.058Z"/>
  <circle cx="14" cy="20" r="1"/>
</svg>