<?xml version="1.0" encoding="UTF-8"?>
<svg id="Outline" xmlns="http://www.w3.org/2000/svg" version="1.1" viewBox="0 0 64 64">
  <!-- Generator: Adobe Illustrator 29.0.0, SVG Export Plug-In . SVG Version: 2.1.0 Build 186)  -->
  <path d="M52,22.99097H12c-1.65002,0-3,1.34998-3,3v4c0,1.64996,1.34998,3,3,3h.15997l3.65002,21.32996c.15997,1.52002,1.44,2.67004,2.97998,2.67004h26.42004c1.53998,0,2.82001-1.15002,2.97998-2.60999l3.65002-21.39001h.15997c1.65002,0,3-1.35004,3-3v-4c0-1.65002-1.34998-3-3-3ZM53,29.99097c0,.54999-.45001,1-1,1h-25c-.54999,0-1,.45001-1,1s.45001,1,1,1h22.81l-3.59998,21.10999c-.06.51001-.49005.89001-1,.89001h-26.42004c-.50995,0-.94-.38-1-.95001l-3.59998-21.04999h4.81c.54999,0,1-.45001,1-1s-.45001-1-1-1h-7c-.54999,0-1-.45001-1-1v-4c0-.54999.45001-1,1-1h40c.54999,0,1,.45001,1,1v4Z"/>
  <path d="M32.29297,40.698c.19531.19531.45117.29297.70703.29297s.51172-.09766.70703-.29297c.39062-.39062.39062-1.02344,0-1.41406l-.0647-.0647c.51843.14679,1.01562.36224,1.47681.64478,1.3916.84961,2.36035,2.18945,2.72656,3.77246.10742.46191.51855.77441.97363.77441.0752,0,.15039-.00781.22656-.02539.53809-.125.87305-.66211.74902-1.2002-.48926-2.11133-1.7793-3.89648-3.63281-5.02734-.87585-.53723-1.85052-.88501-2.86438-1.05066l.4093-.4093c.39062-.39062.39062-1.02344,0-1.41406s-1.02344-.39062-1.41406,0l-2,2c-.39062.39062-.39062,1.02344,0,1.41406l2,2Z"/>
  <path d="M24,44.99097c0,.98444.18976,1.92993.52795,2.81903l-.56311-.15106c-.53125-.1416-1.08105.17285-1.22461.70703-.14355.5332.17383,1.08203.70703,1.22461l2.73145.73242c.08496.02246.17188.03418.25878.03418.17383,0,.34668-.0459.5-.13379.2295-.13281.39747-.35156.46583-.60742l.73242-2.73242c.14355-.5332-.17383-1.08203-.70703-1.22461-.53223-.14355-1.08105.17285-1.22461.70703l-.01392.05182c-.11316-.46204-.19019-.93561-.19019-1.42682v-.13477c.04102-1.63379.71973-3.14062,1.90918-4.24121.40625-.375.43066-1.00781.05566-1.41309-.37695-.4082-1.00879-.43066-1.41309-.05566-1.56738,1.44922-2.49707,3.5127-2.55176,5.68457v.16016Z"/>
  <path d="M29.67578,52.65015c.76367.22656,1.5459.34082,2.32422.34082,1.35352,0,2.64355-.32617,3.84277-.97363.90485-.49817,1.68463-1.1806,2.33228-1.97351l.15308.57214c.11914.44629.52344.74121.96484.74121.08594,0,.17285-.01074.25977-.03418.5332-.14258.84961-.69043.70703-1.22461l-.73145-2.73242c-.06836-.25586-.23633-.47461-.46583-.60742-.23046-.13184-.5039-.16699-.75878-.09961l-2.73242.73242c-.5332.14258-.85059.69141-.70703,1.22461.14355.53418.69141.85059,1.22461.70703l.0498-.01337c-.37891.36536-.79065.69678-1.25391.95184-1.41113.7627-3.05469.94043-4.64062.4707-.53125-.1582-1.08594.14648-1.24316.6748-.15625.5293.14551,1.08594.6748,1.24316Z"/>
  <path d="M27,14.99097h2v5c0,.55273.44727,1,1,1h4c.55273,0,1-.44727,1-1v-5h2c.3877,0,.74121-.22461.90527-.57617.16504-.35059.11133-.76562-.13672-1.06445l-5-6c-.38086-.45508-1.15625-.45508-1.53711,0l-5,6c-.24805.29883-.30176.71387-.13672,1.06445.16406.35156.51758.57617.90527.57617ZM32,9.55347l2.86523,3.4375h-.86523c-.55273,0-1,.44727-1,1v5h-2v-5c0-.55273-.44727-1-1-1h-.86523l2.86523-3.4375Z"/>
  <path d="M13,14.99097h2v5c0,.55273.44727,1,1,1h4c.55273,0,1-.44727,1-1v-5h2c.3877,0,.74121-.22461.90527-.57617.16504-.35059.11133-.76562-.13672-1.06445l-5-6c-.38086-.45508-1.15625-.45508-1.53711,0l-5,6c-.24805.29883-.30176.71387-.13672,1.06445.16406.35156.51758.57617.90527.57617ZM18,9.55347l2.86523,3.4375h-.86523c-.55273,0-1,.44727-1,1v5h-2v-5c0-.55273-.44727-1-1-1h-.86523l2.86523-3.4375Z"/>
  <path d="M41,14.99097h2v5c0,.55273.44727,1,1,1h4c.55273,0,1-.44727,1-1v-5h2c.3877,0,.74121-.22461.90527-.57617.16504-.35059.11133-.76562-.13672-1.06445l-5-6c-.38086-.45508-1.15625-.45508-1.53711,0l-5,6c-.24805.29883-.30176.71387-.13672,1.06445.16406.35156.51758.57617.90527.57617ZM46,9.55347l2.86523,3.4375h-.86523c-.55273,0-1,.44727-1,1v5h-2v-5c0-.55273-.44727-1-1-1h-.86523l2.86523-3.4375Z"/>
  <circle cx="23" cy="31.99097" r="1"/>
</svg>