<?xml version="1.0" encoding="UTF-8"?>
<svg id="Outline" xmlns="http://www.w3.org/2000/svg" version="1.1" viewBox="0 0 64 64">
  <!-- Generator: Adobe Illustrator 29.5.1, SVG Export Plug-In . SVG Version: 2.1.0 Build 141)  -->
  <path d="M50.37,15.035l1.73-1.73c.29-.28.37-.71.22-1.09-.16-.37-.52-.61-.93-.61h-4.95c-9.97-7.09-23.42-5.98-32.12,2.71-9.51,9.51-9.74,24.84-.69,34.64l-1.73,1.73c-.29.28-.37.71-.22,1.09.16.37.52.61.93.61h4.94c4.39,3.12,9.43,4.66,14.46,4.66,6.42,0,12.79-2.5,17.67-7.37,9.51-9.51,9.74-24.84.69-34.64ZM19.69,50.385h-4.67l.72-.71c.19-.19.29-.44.29-.71s-.1-.52-.29-.71c-8.97-8.97-8.97-23.55,0-32.52,7.31-7.31,18.27-8.78,27.11-4.01-.31.17-.54.49-.54.88v1.76c-7.95-4.69-18.09-3.47-24.75,3.19-7.97,7.96-7.97,20.92,0,28.88.37.38,1.03.38,1.41,0l.72-.71v4.66ZM19.98,42.605l-1.7,1.69c-6.49-7.22-6.26-18.38.69-25.33,6.3-6.3,16.03-7.19,23.34-2.22v3.94c0,.4.25.77.62.92.37.16.8.07,1.09-.22l1.7-1.69c6.49,7.22,6.26,18.38-.69,25.33-6.29,6.3-16.03,7.18-23.34,2.22v-3.94c0-.4-.25-.77-.62-.92-.37-.16-.8-.07-1.09.22ZM48.26,48.255c-7.31,7.32-18.27,8.78-27.11,4.01.31-.17.54-.49.54-.88v-1.76c7.96,4.69,18.1,3.47,24.75-3.19,7.97-7.96,7.97-20.92,0-28.88-.37-.38-1.03-.38-1.41,0l-.72.71v-4.66h4.67l-.72.71c-.19.19-.29.44-.29.71s.1.52.29.71c8.97,8.97,8.97,23.55,0,32.52Z"/>
  <path d="M39.05,28.165c-.66-.44-1.05-1.18-1.05-1.97v-1.2h1c.55,0,1-.45,1-1v-4c0-.55-.45-1-1-1h-5c-.55,0-1,.45-1,1s.45,1,1,1h4v2h-12v-2c.55,0,1-.45,1-1s-.45-1-1-1h-1c-.55,0-1,.45-1,1v4c0,.55.45,1,1,1h1v1.2c0,.79-.39,1.53-1.05,1.97-1.22.81-1.95,2.17-1.95,3.63v12.2c0,.38.21.72.55.89.34.17.75.14,1.05-.09l3.4-2.55,3.4,2.55c.36.27.84.27,1.2,0l3.4-2.55,3.4,2.55c.18.13.39.2.6.2.546,0,1-.454,1-1v-12.2c0-1.46-.73-2.82-1.95-3.63ZM39,41.995l-2.4-1.8c-.36-.27-.84-.27-1.2,0l-3.4,2.55-3.4-2.55c-.18-.13-.39-.2-.6-.2s-.42.07-.6.2l-2.4,1.8v-10.2c0-.79.39-1.53,1.05-1.97,1.22-.81,1.95-2.17,1.95-3.63v-1.2h8v1.2c0,1.46.73,2.82,1.95,3.63.66.44,1.05,1.18,1.05,1.97v10.2Z"/>
  <circle cx="30" cy="19.995" r="1"/>
</svg>