<?xml version="1.0" encoding="UTF-8"?>
<svg id="Outline" xmlns="http://www.w3.org/2000/svg" version="1.1" viewBox="0 0 64 64">
  <!-- Generator: Adobe Illustrator 29.0.0, SVG Export Plug-In . SVG Version: 2.1.0 Build 186)  -->
  <path d="M56,7H8c-.55273,0-1,.44775-1,1v48c0,.55225.44727,1,1,1h48c.55273,0,1-.44775,1-1V8c0-.55225-.44727-1-1-1ZM55,15h-25.38184l3-6h22.38184v6ZM24.61816,15l3-6h2.76367l-3,6h-2.76367ZM25.38184,9l-3,6h-13.38184v-6h16.38184ZM9,55V17h46v38H9Z"/>
  <circle cx="12" cy="12" r="1"/>
  <circle cx="16" cy="12" r="1"/>
  <circle cx="20" cy="12" r="1"/>
  <path d="M36,13h16c.55273,0,1-.44775,1-1s-.44727-1-1-1h-16c-.55273,0-1,.44775-1,1s.44727,1,1,1Z"/>
  <path d="M32,19c-8.82227,0-16,7.17773-16,16s7.17773,16,16,16,16-7.17773,16-16-7.17773-16-16-16ZM23,45.70844v-1.60834c0-1.90479,1.35059-3.55273,3.21484-3.91895l1.93054-.38458c1.08594.75366,2.41516,1.20343,3.85461,1.20343s2.76868-.44977,3.85461-1.20343l1.9325.38507c1.8623.36572,3.21289,2.01367,3.21289,3.91846v1.60834c-2.43579,2.05054-5.57422,3.29156-9,3.29156s-6.56421-1.24103-9-3.29156ZM38,30.99951l-.13672-.12988c-1.30566-1.24414-3.37695-1.35596-4.81738-.25684-.60645.46338-1.4873.46143-2.0918,0-1.44141-1.09863-3.51172-.98535-4.81738.25684l-.13672.12988v-1.66602c0-2.38965,2.06348-4.3335,4.59961-4.3335h2.80078c2.53613,0,4.59961,1.94385,4.59961,4.3335v1.66602ZM27.40039,32.42767l.11523-.1098c.5918-.56396,1.57031-.61426,2.22559-.11426,1.33008,1.0127,3.1875,1.0127,4.51758,0,.65625-.5,1.63281-.44971,2.22559.11426l.11523.1098v2.23883c0,2.38965-2.06348,4.3335-4.59961,4.3335s-4.59961-1.94385-4.59961-4.3335v-2.23883ZM42.96301,43.68115c-.18927-2.67548-2.13251-4.94-4.78723-5.46191l-.63379-.12628c.66626-.98895,1.05762-2.16376,1.05762-3.42645v-.42383c.12714.05603.26178.09082.40039.09082.13281,0,.2666-.02637.39355-.08105.36816-.15723.60645-.51904.60645-.91895v-4c0-3.49219-2.96094-6.3335-6.59961-6.3335h-2.80078c-3.63867,0-6.59961,2.84131-6.59961,6.3335v4c0,.3999.23828.76172.60645.91895.25873.11182.5451.10022.79395-.00928v.42334c0,1.26263.39136,2.43744,1.05762,3.42639l-.63184.12585c-2.65656.5224-4.59991,2.78693-4.78918,5.4624-1.89551-2.38873-3.03699-5.40179-3.03699-8.68115,0-7.71973,6.28027-14,14-14s14,6.28027,14,14c0,3.27936-1.14148,6.29242-3.03699,8.68115Z"/>
  <path d="M18,47h-6c-.55273,0-1,.44775-1,1v4c0,.55225.44727,1,1,1h6c.55273,0,1-.44775,1-1v-4c0-.55225-.44727-1-1-1ZM17,51h-4v-2h4v2Z"/>
  <path d="M52,47h-6c-.55273,0-1,.44775-1,1v4c0,.55225.44727,1,1,1h6c.55273,0,1-.44775,1-1v-4c0-.55225-.44727-1-1-1ZM51,51h-4v-2h4v2Z"/>
</svg>