<?xml version="1.0" encoding="UTF-8"?>
<svg id="Outline" xmlns="http://www.w3.org/2000/svg" version="1.1" viewBox="0 0 64 64">
  <!-- Generator: Adobe Illustrator 29.5.1, SVG Export Plug-In . SVG Version: 2.1.0 Build 141)  -->
  <path d="M32,7c-13.785,0-25,11.215-25,25s11.215,25,25,25,25-11.215,25-25S45.785,7,32,7ZM32,55c-12.682,0-23-10.318-23-23s10.318-23,23-23,23,10.318,23,23-10.318,23-23,23Z"/>
  <path d="M32,11c-11.58,0-21,9.42-21,21s9.42,21,21,21,21-9.42,21-21-9.42-21-21-21ZM32,13c10.477,0,19,8.523,19,19,0,4.427-1.534,8.495-4.082,11.728-.328-.139-.669-.247-1.02-.312l-7.058-1.28-.742-3.529c1.551-1.432,2.601-3.399,2.846-5.607h.055c.881,0,1.714-.385,2.286-1.057.571-.671.817-1.561.674-2.439-.109-.67-.464-1.257-.959-1.697v-4.806c0-2.206-1.794-4-4-4h-1.139c-.188-.667-.563-1.274-1.089-1.745-.78-.697-1.825-1.034-2.865-.914l-2.661.299c-2.013.226-4.012.026-5.94-.593-.304-.098-.637-.044-.895.144s-.411.489-.411.808v2.126c-1.723.445-3,2.013-3,3.874v4.806c-.496.44-.85,1.027-.959,1.697-.143.879.103,1.768.674,2.439.571.672,1.404,1.057,2.286,1.057h.055c.245,2.208,1.295,4.175,2.846,5.607l-.742,3.529-7.062,1.28c-.348.065-.688.173-1.015.312-2.548-3.234-4.082-7.302-4.082-11.728,0-10.477,8.523-19,19-19ZM41,27.009c-.036-.001-.071-.009-.107-.009h-.893c0-1.654-1.346-3-3-3h-10c-1.654,0-3,1.346-3,3h-.893c-.036,0-.071.008-.107.009v-4.009c0-1.103.897-2,2-2,.552,0,1-.448,1-1v-1.687c1.792.417,3.626.523,5.47.315l2.661-.299c.479-.057.946.093,1.308.417.362.323.561.769.561,1.253,0,.265.105.52.293.707s.442.293.707.293h2c1.103,0,2,.897,2,2v4.009ZM23.107,29h1.893c.552,0,1-.448,1-1v-1c0-.551.449-1,1-1h10c.551,0,1,.449,1,1v1c0,.552.448,1,1,1h1.893c.537,0,1.017.362,1.093.825.049.303-.03.595-.224.823-.19.224-.468.353-.762.353h-1c-.552,0-1,.448-1,1,0,3.86-3.14,7-7,7s-7-3.14-7-7c0-.552-.448-1-1-1h-1c-.294,0-.572-.128-.762-.353-.193-.228-.272-.52-.224-.823.076-.462.556-.825,1.093-.825ZM27.677,39.882c1.285.708,2.756,1.118,4.323,1.118s3.038-.411,4.323-1.118l.572,2.723c-2.932,1.938-6.859,1.938-9.791,0l.572-2.723ZM32,51c-5.266,0-10.035-2.156-13.48-5.628l7.194-1.304c1.858,1.319,4.07,1.987,6.286,1.987s4.427-.668,6.286-1.987l7.194,1.305c-3.445,3.472-8.214,5.627-13.48,5.627Z"/>
</svg>