<?xml version="1.0" encoding="UTF-8"?>
<svg id="Outline" xmlns="http://www.w3.org/2000/svg" version="1.1" viewBox="0 0 64 64">
  <!-- Generator: Adobe Illustrator 29.0.0, SVG Export Plug-In . SVG Version: 2.1.0 Build 186)  -->
  <path d="M45,33c-2.09998,0-4.06.53998-5.78003,1.48999-.09998-.03003-.19995-.04999-.31995-.07001l-7.06-1.27997-.74005-3.53003c1.55005-1.44,2.60004-3.40002,2.84003-5.60999h.06c1.83393,0,3.24508-1.70761,2.96002-3.5-.11005-.67004-.46002-1.25-.96002-1.69v-4.81c0-2.21002-1.78998-4-4-4h-1.13c-.44-1.72003-2.01001-3-3.87-3h-6c-3.85999,0-7,3.14001-7,7v4.81c-.49998.43998-.84994,1.01991-.96001,1.68991-.29502,1.79591,1.13969,3.50009,2.96001,3.50009h.06c.23999,2.20996,1.28998,4.16998,2.84003,5.60999l-.74005,3.53003-7.06,1.27997c-2.38.42999-4.09998,2.5-4.09998,4.91998v4.66003c0,.54999.45001,1,1,1h7c.54999,0,1-.45001,1-1s-.45001-1-1-1h-6v-3.66003c0-1.44995,1.03998-2.69,2.46002-2.95996l7.25-1.31c1.85999,1.32001,4.07001,1.97998,6.28998,1.97998s4.42999-.65997,6.28998-1.97998l5.69,1.02997c-1.96997,1.77002-3.33997,4.17999-3.79999,6.90002h-10.17999c-.54999,0-1,.45001-1,1s.45001,1,1,1h10c0,6.62,5.38,12,12,12s12-5.38,12-12-5.38-12-12-12ZM16,14c0-2.76001,2.23999-5,5-5h6c1.09998,0,2,.89996,2,2,0,.54999.45001,1,1,1h2c1.09998,0,2,.89996,2,2v4.01001c-.03998,0-.07001-.01001-.10999-.01001h-.89001c0-1.65002-1.34998-3-3-3h-10c-1.65002,0-3,1.34998-3,3h-.89001c-.03998,0-.07001.01001-.10999.01001v-4.01001ZM20.09998,33.59998l.58002-2.71997c1.28003.70996,2.75,1.12,4.32001,1.12s3.03998-.41003,4.32001-1.12l.58002,2.71997c-2.94,1.94-6.86005,1.94-9.80005,0ZM25,30c-3.85999,0-7-3.14001-7-7,0-.54999-.45001-1-1-1h-1c-.60023,0-1.09023-.55834-.98999-1.17999.08002-.46002.56-.82001,1.09998-.82001h1.89001c.54999,0,1-.45001,1-1v-1c0-.54999.45001-1,1-1h10c.54999,0,1,.45001,1,1v1c0,.54999.45001,1,1,1h1.89001c.53987,0,1.01977.35985,1.09993.81974.10585.60729-.37234,1.18026-.98994,1.18026h-1c-.54999,0-1,.45001-1,1,0,3.85999-3.14001,7-7,7ZM46,35.04999c4.71997.46997,8.47998,4.22998,8.95001,8.95001h-2.02002c-.45001-3.60999-3.32001-6.48004-6.92999-6.92999v-2.02002ZM51,45c0,3.31-2.69,6-6,6s-6-2.69-6-6,2.69-6,6-6,6,2.69,6,6ZM35,45c0-5.17999,3.95001-9.45001,9-9.95001v2.02002c-3.94.48999-7,3.85999-7,7.92999,0,1.84998.63,3.53998,1.69,4.89996l-1.42999,1.42004c-1.41003-1.72003-2.26001-3.92004-2.26001-6.32001ZM45,55c-2.40002,0-4.59998-.85004-6.32001-2.26001l1.41998-1.42999c1.36005,1.06,3.05005,1.69,4.90002,1.69,4.07001,0,7.44-3.06,7.92999-7h2.02002c-.5,5.04999-4.77002,9-9.95001,9Z"/>
  <circle cx="19" cy="44" r="1"/>
</svg>