<?xml version="1.0" encoding="UTF-8"?>
<svg id="Outline" xmlns="http://www.w3.org/2000/svg" version="1.1" viewBox="0 0 64 64">
  <!-- Generator: Adobe Illustrator 29.5.1, SVG Export Plug-In . SVG Version: 2.1.0 Build 141)  -->
  <path d="M26,17c.553,0,1-.448,1-1s-.447-1-1-1h-4c-.553,0-1,.448-1,1v8c0,.552.447,1,1,1s1-.448,1-1v-3h3c.553,0,1-.448,1-1s-.447-1-1-1h-3v-2h3Z"/>
  <path d="M34,17c.553,0,1-.448,1-1s-.447-1-1-1h-4c-.553,0-1,.448-1,1v8c0,.552.447,1,1,1h4c.553,0,1-.448,1-1s-.447-1-1-1h-3v-2h3c.553,0,1-.448,1-1s-.447-1-1-1h-3v-2h3Z"/>
  <path d="M43,18c0-1.65-1.35-3-3-3h-2c-.55,0-1,.45-1,1v8c0,.55.45,1,1,1h2c1.65,0,3-1.35,3-3,0-.77-.3-1.47-.78-2,.48-.53.78-1.23.78-2ZM40,23h-1v-2h1c.55,0,1,.45,1,1s-.45,1-1,1ZM40,19h-1v-2h1c.55,0,1,.45,1,1s-.45,1-1,1Z"/>
  <path d="M56,19c.553,0,1-.448,1-1v-4c0-1.654-1.346-3-3-3h-3v-1c0-1.654-1.346-3-3-3s-3,1.346-3,3v1h-26v-1c0-1.654-1.346-3-3-3s-3,1.346-3,3v1h-3c-1.654,0-3,1.346-3,3v40c0,1.654,1.346,3,3,3h44c1.654,0,3-1.346,3-3V22c0-.552-.447-1-1-1s-1,.448-1,1v5h-6c-.553,0-1,.448-1,1s.447,1,1,1h6v25c0,.551-.448,1-1,1H10c-.552,0-1-.449-1-1v-25h36c.553,0,1-.448,1-1s-.447-1-1-1H9v-13c0-.551.448-1,1-1h3v1c0,1.654,1.346,3,3,3,.553,0,1-.448,1-1s-.447-1-1-1-1-.449-1-1v-1h30v1c0,1.654,1.346,3,3,3,.553,0,1-.448,1-1s-.447-1-1-1-1-.449-1-1v-1h7c.552,0,1,.449,1,1v4c0,.552.447,1,1,1ZM15,10c0-.551.448-1,1-1s1,.449,1,1v1h-2v-1ZM47,10c0-.551.448-1,1-1s1,.449,1,1v1h-2v-1Z"/>
  <path d="M29,47c.553,0,1-.448,1-1v-8c0-.552-.447-1-1-1h-2c-.553,0-1,.448-1,1s.447,1,1,1h1v7c0,.552.447,1,1,1Z"/>
  <path d="M37,47c.553,0,1-.448,1-1v-8c0-.552-.447-1-1-1s-1,.448-1,1v3h-2v-3c0-.552-.447-1-1-1s-1,.448-1,1v4c0,.552.447,1,1,1h3v3c0,.552.447,1,1,1Z"/>
  <path d="M17.469,37.661c-.67-.431-1.45-.661-2.266-.661-1.122,0-2.178.438-2.972,1.231-1.639,1.639-1.639,4.306,0,5.945l4.53,4.531c.188.188.441.293.707.293s.52-.105.707-.293l4.531-4.531c1.639-1.639,1.639-4.306,0-5.945-.794-.794-1.85-1.231-2.973-1.231-.815,0-1.595.23-2.266.661ZM21.293,39.646c.859.859.859,2.257,0,3.117l-3.824,3.824-3.823-3.824c-.859-.859-.859-2.257,0-3.117.416-.417.97-.646,1.558-.646s1.143.229,1.559.646c.188.188.441.293.707.293s.52-.105.707-.293c.834-.834,2.285-.833,3.117,0Z"/>
  <path d="M41.293,38.231c-1.639,1.639-1.639,4.306,0,5.945l4.531,4.531c.188.188.441.293.707.293s.52-.105.707-.293l4.53-4.531c1.639-1.639,1.639-4.306,0-5.945-.794-.794-1.85-1.231-2.972-1.231-.815,0-1.596.23-2.266.661-1.596-1.025-3.868-.8-5.238.57ZM47.238,39.646c.832-.832,2.284-.833,3.116,0,.859.859.859,2.257,0,3.117l-3.823,3.824-3.824-3.824c-.859-.859-.859-2.257,0-3.117.416-.417.97-.646,1.559-.646s1.142.229,1.559.646c.376.375,1.04.375,1.414,0Z"/>
</svg>