<?xml version="1.0" encoding="UTF-8"?>
<svg id="Outline" xmlns="http://www.w3.org/2000/svg" version="1.1" viewBox="0 0 64 64">
  <!-- Generator: Adobe Illustrator 29.3.1, SVG Export Plug-In . SVG Version: 2.1.0 Build 151)  -->
  <path d="M49.78998,31.12c.13-.70001.21002-1.40002.21002-2.12,0-4.29004-2.47998-8.01001-6.07001-9.82001.03998-.38.07001-.77002.07001-1.17999,0-6.07001-4.92999-11-11-11-5.87,0-10.66998,4.62-10.96997,10.41998-4.63,1.29999-8.03003,5.53998-8.03003,10.58002,0,1.04999.15997,2.07001.44,3.04999-.59003.10999-1.13.40002-1.54999.82001-.57001.56-.89001,1.32001-.89001,2.13,0,1.64996,1.34998,3,3,3h.26001c1.32001,4.39001,4.34998,8.06,8.44,10.14996,2.97998,1.52002,4.90997,4.48004,5.22998,7.85004h-.92999c-.54999,0-1,.45001-1,1s.45001,1,1,1h8c.54999,0,1-.45001,1-1s-.45001-1-1-1h-.92999c.14001-1.48999.58997-2.92004,1.34998-4.19.92004-1.57001,2.26001-2.84003,3.87-3.66003,4.10004-2.08997,7.13-5.75995,8.45001-10.14996h.26001c.81,0,1.57001-.32001,2.10999-.87.57001-.56.89001-1.32001.89001-2.13,0-1.38-.94-2.53003-2.21002-2.88ZM48,29c0,.67999-.09998,1.34998-.25,2h-17.5c-.15002-.65002-.25-1.32001-.25-2,0-4.96002,4.03998-9,9-9s9,4.03998,9,9ZM33,9c4.96002,0,9,4.03998,9,9,0,.14996-.01001.27997-.02002.41998-.94995-.27002-1.94995-.41998-2.97998-.41998-2.39001,0-4.59003.76996-6.40002,2.07001-2.03998-1.96002-4.75995-3.07001-7.59998-3.07001-.32001,0-.64001.01996-.95001.04999.48004-4.52002,4.31-8.04999,8.95001-8.04999ZM25,18.9999c2.22936.00306,4.44811.87106,6.08444,2.38595-2.41719,2.50015-3.53107,6.19701-2.89747,9.61638-3.88573-.00021-7.77145-.00042-11.65718-.00063-.17826,0-.41756-1.68778-.43983-1.87568-.083-.70016-.08146-1.41001-.00086-2.11031.16122-1.4009.63975-2.76849,1.40545-3.9539,1.58862-2.45937,4.41236-4.00696,7.3367-4.06038.05625-.00103.11251-.0015.16876-.00142ZM49.69,34.70996c-.17999.19-.41998.29004-.69.29004h-19c-.54999,0-1,.45001-1,1s.45001,1,1,1h16.65997c-1.25,3.60999-3.84998,6.62-7.27997,8.37-1.95001,1-3.57001,2.52997-4.67999,4.41998-.94,1.58002-1.51001,3.35999-1.66003,5.21002h-2.07996c-.33002-4.13-2.70001-7.76001-6.35004-9.63-3.41998-1.75-6.01996-4.76001-7.26996-8.37h4.65997c.54999,0,1-.45001,1-1s-.45001-1-1-1h-7c-.54999,0-1-.45001-1-1,0-.27002.09998-.51001.31-.71002.17999-.19.41998-.28998.69-.28998h34c.54999,0,1,.45001,1,1,0,.26996-.09998.51001-.31.70996Z"/>
  <circle cx="26" cy="36" r="1"/>
</svg>