<?xml version="1.0" encoding="UTF-8"?>
<svg id="Outline" xmlns="http://www.w3.org/2000/svg" version="1.1" viewBox="0 0 64 64">
  <!-- Generator: Adobe Illustrator 29.5.1, SVG Export Plug-In . SVG Version: 2.1.0 Build 141)  -->
  <path d="M36,17c0-2.206-1.794-4-4-4s-4,1.794-4,4,1.794,4,4,4,4-1.794,4-4ZM30,17c0-1.103.897-2,2-2s2,.897,2,2-.897,2-2,2-2-.897-2-2Z"/>
  <path d="M43.41,38.37l-3.41-2.84v-3.53c0-1.65-1.35-3-3-3h-4v-2.08c2.24-.37,4.09-1.93,4.81-4.11,2.5-.83,4.19-3.14,4.19-5.81s-1.69-4.98-4.19-5.81c-.83-2.5-3.14-4.19-5.81-4.19s-4.98,1.69-5.81,4.19c-2.5.83-4.19,3.14-4.19,5.81s1.69,4.98,4.19,5.81c.72,2.18,2.57,3.74,4.81,4.11v2.08h-4c-1.65,0-3,1.35-3,3v3.53l-3.41,2.84c-1.67,1.39-2.25,3.68-1.44,5.7l4.92,12.3c.15.38.52.63.93.63h14c.41,0,.78-.25.93-.63l4.92-12.3c.81-2.02.23-4.31-1.44-5.7ZM27.97,21.78c-.08-.37-.38-.67-.75-.75-1.9-.43-3.22-2.09-3.22-4.03s1.32-3.6,3.22-4.03c.37-.08.67-.38.75-.75.43-1.9,2.09-3.22,4.03-3.22s3.6,1.32,4.03,3.22c.08.37.38.67.75.75,1.9.43,3.22,2.09,3.22,4.03s-1.32,3.6-3.22,4.03c-.37.08-.67.38-.75.75-.43,1.9-2.09,3.22-4.03,3.22s-3.6-1.32-4.03-3.22ZM26,32c0-.55.45-1,1-1h10c.55,0,1,.45,1,1v3h-12v-3ZM25.36,37h13.28l2.4,2h-18.08l2.4-2ZM38.32,55h-12.64l-4-10h20.64l-4,10ZM43.09,43h-22.18c-.19-.68-.13-1.38.14-2h21.9c.27.62.33,1.32.14,2Z"/>
</svg>