<?xml version="1.0" encoding="UTF-8"?>
<svg id="Outline" xmlns="http://www.w3.org/2000/svg" version="1.1" viewBox="0 0 64 64">
  <!-- Generator: Adobe Illustrator 29.5.1, SVG Export Plug-In . SVG Version: 2.1.0 Build 141)  -->
  <path d="M44.43,37.98l3.68-3.67c2.25-2.25,3.49-5.25,3.49-8.43-.01-3.14-1.23-6.1-3.4-8.3,1.29-4.11,2.14-8.61,2.28-9.4.06-.32-.04-.65-.27-.89-.24-.23-.57-.33-.89-.27-1.32.24-12.94,2.43-15.9,5.4-.58.58-1.05,1.22-1.42,1.9-.37-.68-.84-1.32-1.42-1.9-2.96-2.97-14.58-5.16-15.9-5.4-.32-.06-.65.04-.89.27-.23.24-.33.57-.27.89.14.79.99,5.29,2.28,9.4-2.18,2.23-3.39,5.17-3.4,8.3,0,3.18,1.24,6.18,3.49,8.43l3.68,3.67-4.94,13.31c-.11.3-.07.63.1.9.18.26.46.43.78.45l5.98.37,4.56,3.89c.18.16.41.24.65.24.08,0,.16-.01.24-.03.31-.07.57-.3.69-.6l3.01-7.45.65.65c.09.09.21.16.33.21.365.152.808.076,1.09-.21l.65-.65,3.01,7.45c.12.3.38.53.69.6.08.02.16.03.24.03.24,0,.47-.08.65-.24l4.56-3.89,5.98-.37c.32-.02.6-.19.78-.45.17-.27.21-.6.1-.9l-4.94-13.31ZM34.83,13.83c1.89-1.88,9.33-3.73,13.4-4.56-.46,2.24-1.22,5.5-2.13,8.29,0,.01-.01.01-.01.02-.74,2.28-1.58,4.24-2.42,5.09-1.18,1.18-2.75,1.83-4.42,1.83-.96,0-1.88-.22-2.72-.63,1.57-2.84,3.63-5.43,6.13-7.62.41-.36.46-.99.09-1.41-.36-.41-.99-.46-1.41-.09-2.62,2.29-4.79,5-6.46,7.97-.01-.02-.03-.03-.05-.05-2.44-2.44-2.44-6.4,0-8.84ZM15.77,9.27c4.07.83,11.51,2.68,13.4,4.56,2.44,2.44,2.44,6.4,0,8.84-.02.02-.04.03-.05.05-1.67-2.97-3.84-5.68-6.46-7.97-.42-.37-1.05-.32-1.41.09-.37.42-.32,1.05.09,1.41,2.5,2.19,4.56,4.78,6.13,7.62-.84.41-1.76.63-2.72.63-1.67,0-3.24-.65-4.42-1.83-.84-.85-1.68-2.81-2.42-5.09,0-.01-.01-.01-.01-.02-.91-2.79-1.67-6.05-2.13-8.29ZM26.29,54.48l-3.75-3.21c-.17-.14-.37-.23-.59-.24l-4.97-.3,4.15-11.19,7.98,7.98-2.82,6.96ZM31,46.59l-13.69-13.7c-1.88-1.87-2.91-4.36-2.91-7,.01-2.25.76-4.38,2.15-6.14.71,1.87,1.5,3.47,2.37,4.33,1.56,1.56,3.63,2.42,5.83,2.42,1.28,0,2.51-.3,3.63-.85,1.7,3.69,2.62,7.74,2.62,11.89v9.05ZM32,29.85c-.48-1.83-1.13-3.6-1.93-5.3.17-.15.35-.3.51-.47.58-.57,1.05-1.22,1.42-1.9.37.68.84,1.33,1.42,1.9.16.17.34.32.51.47-.8,1.7-1.45,3.47-1.93,5.3ZM42.05,51.03c-.22.01-.42.1-.59.24l-3.75,3.21-2.82-6.96.99-.98c.39-.39.39-1.03,0-1.42s-1.03-.39-1.42,0l-1.46,1.47v-9.05c0-4.15.92-8.2,2.62-11.89,1.12.55,2.35.85,3.63.85,2.2,0,4.27-.86,5.83-2.42.87-.86,1.66-2.46,2.37-4.33,1.39,1.74,2.14,3.88,2.15,6.14,0,2.64-1.03,5.13-2.91,7l-6.57,6.57c-.39.39-.39,1.03,0,1.42.376.376,1.02.38,1.42,0l1.33-1.34,4.15,11.19-4.97.3Z"/>
  <circle cx="38" cy="43" r="1"/>
</svg>