<?xml version="1.0" encoding="UTF-8"?>
<svg id="Outline" xmlns="http://www.w3.org/2000/svg" version="1.1" viewBox="0 0 64 64">
  <!-- Generator: Adobe Illustrator 29.5.1, SVG Export Plug-In . SVG Version: 2.1.0 Build 141)  -->
  <path d="M54.43,33h-1.58c.19-.57.28-1.17.28-1.78,0-.98-.26-1.95-.75-2.81,1.63-1.05,2.66-2.87,2.66-4.84,0-2.47-1.59-4.65-3.87-5.46-.33-2.87-2.78-5.11-5.74-5.11-2.49,0-4.6,1.59-5.41,3.81-.45-.45-.96-.82-1.55-1.07-.64-1.51-1.98-2.58-3.58-2.87.07-.33.11-.67.11-1.01,0-2.68-2.18-4.86-4.86-4.86-2.22,0-4.09,1.5-4.67,3.54-.53-.21-1.1-.32-1.68-.33-.89-.82-2.07-1.28-3.29-1.28-2.68,0-4.86,2.18-4.86,4.86,0,.13.01.25.02.38-.86.18-1.65.59-2.31,1.19-2.64.04-4.78,2.2-4.78,4.85,0,2.68,2.18,4.86,4.86,4.86.73,0,1.42-.16,2.06-.46.49.59,1.11,1.05,1.8,1.35l1.57,3.12c.62,1.24,1.14,2.56,1.54,3.92h-7.97c-.55,0-1,.45-1,1v6c0,.55.45,1,1,1h1.17l2.54,13.56c.27,1.41,1.51,2.44,2.95,2.44h28.68c1.44,0,2.68-1.03,2.95-2.45l2.54-13.55h1.17c.55,0,1-.45,1-1v-6c0-.55-.45-1-1-1ZM40.86,19.86c.46-.09.8-.5.8-.98,0-.04,0-.08-.01-.1,0-2.08,1.7-3.78,3.78-3.78s3.78,1.7,3.79,3.69c-.01.05-.02.14-.02.19,0,.48.34.89.8.98,1.76.35,3.04,1.91,3.04,3.71,0,1.57-1,2.99-2.49,3.53-.31.11-.55.37-.63.7-.08.32,0,.66.22.91.45.5.99,1.34.99,2.51,0,.63-.16,1.24-.46,1.78h-4.24v-1.06l2.19-.73c.52-.18.8-.74.63-1.27-.18-.52-.74-.8-1.27-.63l-1.55.52v-2.83l4.3-2.58c.47-.28.62-.9.34-1.37-.28-.47-.9-.63-1.37-.34l-3.27,1.96v-6.84c0-.55-.45-1-1-1s-1,.45-1,1v6.84l-3.27-1.96c-.47-.29-1.09-.13-1.37.34-.28.47-.13,1.09.34,1.37l4.3,2.58v2.83l-1.55-.52c-.53-.17-1.09.11-1.27.63-.17.53.11,1.09.63,1.27l2.19.73v1.06h-4.24c-.3-.54-.46-1.15-.46-1.78,0-1.17.54-2.01.99-2.51.22-.25.3-.59.22-.91-.08-.33-.32-.59-.63-.7-1.49-.54-2.49-1.96-2.49-3.53,0-1.8,1.28-3.36,3.04-3.71ZM38.01,33h-7.78c.29-1.13.63-2.24,1.07-3.31l2.11-5.05c.2-.09.4-.19.59-.31.61.38,1.29.62,2.01.7.37,1.39,1.25,2.6,2.47,3.38-.49.86-.75,1.83-.75,2.81,0,.61.09,1.21.28,1.78ZM16.68,22.8c-.14-.26-.38-.45-.68-.52-.29-.06-.59.01-.83.19-.5.39-1.1.6-1.74.6-1.58,0-2.86-1.28-2.86-2.86,0-1.57,1.28-2.85,2.86-2.85.08,0,.16,0,.24.01.31.03.62-.1.83-.33.56-.62,1.35-1,2.2-.97.42.03.77-.1.99-.41.18-.27.23-.6.12-.91-.11-.33-.17-.65-.17-.96,0-1.58,1.28-2.86,2.86-2.86.83,0,1.59.34,2.14.96.22.25.53.37.86.33.06,0,.14-.01.22-.01.7,0,1.38.27,1.92.75.32.29.78.34,1.15.14.37-.21.58-.63.51-1.04-.01-.07-.01-.13-.01-.2,0-1.58,1.28-2.86,2.85-2.86,1.58,0,2.86,1.28,2.86,2.86,0,.52-.14,1.01-.4,1.46-.2.34-.18.76.04,1.08.22.32.62.49.99.41.12-.02.25-.02.37-.02,1.25,0,2.37.83,2.73,2.02.1.32.35.57.67.67.58.17,1.07.54,1.44,1.02-1.65.9-2.77,2.57-2.97,4.47-.44-.11-.86-.32-1.2-.63-.38-.35-.96-.35-1.34,0-.52.47-1.19.73-1.9.73-.96,0-1.85-.48-2.38-1.29-.24-.36-.69-.53-1.1-.41-.42.11-.72.48-.74.91-.07,1.53-1.33,2.72-2.85,2.72-.84,0-1.63-.36-2.17-1-.34-.39-.93-.46-1.35-.16-.47.34-1.03.52-1.62.52-1.08,0-2.05-.6-2.54-1.56ZM26.08,26.67l-.8,2.01-.93-1.68h.01c.61,0,1.19-.12,1.72-.33ZM19.72,26.33c.54-.05,1.07-.2,1.56-.43.09.07.19.12.28.19l3,5.4c.17.31.51.51.87.51h.06c.39-.03.73-.27.87-.63l2.76-6.9c.6.32,1.28.51,1.96.55l-1.62,3.91c-.55,1.31-.98,2.68-1.32,4.07h-5.67c-.46-1.67-1.06-3.29-1.83-4.82l-.92-1.85ZM53.43,39h-25c-.55,0-1,.45-1,1s.45,1,1,1h22.8l-2.47,13.18c-.09.48-.51.82-.99.82h-28.68c-.48,0-.9-.34-.99-.81l-2.47-13.19h4.8c.55,0,1-.45,1-1s-.45-1-1-1h-7v-4h40v4Z"/>
  <path d="M22.43,43h-2c-.552,0-1,.447-1,1s.448,1,1,1h2c.552,0,1-.447,1-1s-.448-1-1-1Z"/>
  <path d="M25.43,44c0,.553.448,1,1,1h2c.552,0,1-.447,1-1s-.448-1-1-1h-2c-.552,0-1,.447-1,1Z"/>
  <path d="M44.43,45h2c.552,0,1-.447,1-1s-.448-1-1-1h-2c-.552,0-1,.447-1,1s.448,1,1,1Z"/>
  <path d="M38.43,45h2c.552,0,1-.447,1-1s-.448-1-1-1h-2c-.552,0-1,.447-1,1s.448,1,1,1Z"/>
  <path d="M32.43,45h2c.552,0,1-.447,1-1s-.448-1-1-1h-2c-.552,0-1,.447-1,1s.448,1,1,1Z"/>
  <path d="M22.43,47h-2c-.552,0-1,.447-1,1s.448,1,1,1h2c.552,0,1-.447,1-1s-.448-1-1-1Z"/>
  <path d="M28.43,47h-2c-.552,0-1,.447-1,1s.448,1,1,1h2c.552,0,1-.447,1-1s-.448-1-1-1Z"/>
  <path d="M44.43,49h2c.552,0,1-.447,1-1s-.448-1-1-1h-2c-.552,0-1,.447-1,1s.448,1,1,1Z"/>
  <path d="M38.43,49h2c.552,0,1-.447,1-1s-.448-1-1-1h-2c-.552,0-1,.447-1,1s.448,1,1,1Z"/>
  <path d="M32.43,49h2c.552,0,1-.447,1-1s-.448-1-1-1h-2c-.552,0-1,.447-1,1s.448,1,1,1Z"/>
  <path d="M22.43,51h-2c-.552,0-1,.447-1,1s.448,1,1,1h2c.552,0,1-.447,1-1s-.448-1-1-1Z"/>
  <path d="M28.43,51h-2c-.552,0-1,.447-1,1s.448,1,1,1h2c.552,0,1-.447,1-1s-.448-1-1-1Z"/>
  <path d="M44.43,53h2c.552,0,1-.447,1-1s-.448-1-1-1h-2c-.552,0-1,.447-1,1s.448,1,1,1Z"/>
  <path d="M38.43,53h2c.552,0,1-.447,1-1s-.448-1-1-1h-2c-.552,0-1,.447-1,1s.448,1,1,1Z"/>
  <path d="M32.43,53h2c.552,0,1-.447,1-1s-.448-1-1-1h-2c-.552,0-1,.447-1,1s.448,1,1,1Z"/>
  <circle cx="24.43" cy="40" r="1"/>
</svg>