<?xml version="1.0" encoding="UTF-8"?>
<svg id="Outline" xmlns="http://www.w3.org/2000/svg" version="1.1" viewBox="0 0 48 48">
  <!-- Generator: Adobe Illustrator 29.5.1, SVG Export Plug-In . SVG Version: 2.1.0 Build 141)  -->
  <path d="M12,37h-2c-.552,0-1,.447-1,1s.448,1,1,1h2c.552,0,1-.447,1-1s-.448-1-1-1Z"/>
  <path d="M38,37h-2c-.552,0-1,.447-1,1s.448,1,1,1h2c.552,0,1-.447,1-1s-.448-1-1-1Z"/>
  <path d="M43,28c0-1.01-.5-1.89-1.26-2.44.16-.5.26-1.03.26-1.56,0-1.09-.36-2.14-1.02-3,.66-.86,1.02-1.91,1.02-3,0-2.44-1.76-4.48-4.08-4.92-.44-2.32-2.48-4.08-4.92-4.08s-4.48,1.76-4.92,4.08c-.76.15-1.47.47-2.08.93,1.17-2.11,1.35-4.4.33-5.7-.42-.54-1.01-.86-1.69-.95-.57-.06-1.19.05-1.82.32-.58-1.68-1.6-2.68-2.82-2.68s-2.24,1-2.82,2.68c-.63-.27-1.25-.39-1.81-.32-.69.09-1.28.41-1.69.95-1.04,1.32-.85,3.64.36,5.76-.34-.04-.69-.07-1.04-.07-4.41,0-8,3.59-8,8,0,1.35.34,2.65.97,3.8-.59.55-.97,1.33-.97,2.2v4c0,.77.3,1.47.78,2-.48.53-.78,1.23-.78,2v4c0,1.65,1.35,3,3,3h32c1.65,0,3-1.35,3-3v-4c0-.77-.3-1.47-.78-2,.48-.53.78-1.23.78-2v-4ZM26.41,16.51c.53-.93,1.51-1.51,2.59-1.51.55,0,1-.45,1-1,0-1.65,1.35-3,3-3s3,1.35,3,3c0,.55.45,1,1,1,1.65,0,3,1.35,3,3,0,.85-.38,1.67-1.04,2.25-.21.19-.34.46-.34.75s.13.56.34.75c.66.58,1.04,1.4,1.04,2.25,0,.34-.08.68-.2,1h-5.8v-2.59l3.71-3.7c.39-.39.39-1.03,0-1.42-.39-.39-1.03-.39-1.42,0l-2.29,2.3v-5.59c0-.55-.45-1-1-1s-1,.45-1,1v5.59l-2.29-2.3c-.39-.39-1.03-.39-1.42,0-.39.39-.39,1.03,0,1.42l3.71,3.7v2.59h-5.7c.3-1.15.52-2.32.61-3.39.05-.34.07-.68.07-.92.02-.23.02-.47.02-.69,0-1.39-.2-2.53-.59-3.49ZM15.25,9.54c.09-.11.2-.17.35-.19.41-.05,1,.2,1.59.67.27.22.65.28.98.16.33-.13.57-.42.63-.77.3-1.72.97-2.41,1.2-2.41s.91.69,1.21,2.41c.06.35.3.64.63.77.33.12.7.06.98-.16.58-.47,1.18-.72,1.58-.67.16.02.26.08.36.2.52.67.21,2.55-.94,4.17-1.26-.6-2.67-.72-3.82-.72-.81,0-2.37.01-3.82.71-1.15-1.62-1.46-3.49-.93-4.17ZM20,15c2.41,0,3.73.58,4.42,1.92.38.76.58,1.79.58,3.08,0,.16,0,.32-.02.59,0,.25-.02.5-.06.8-.1,1.14-.34,2.37-.69,3.58v.03h-8.44c-.5-1.69-.79-3.47-.79-5,0-4.16,1.91-5,5-5ZM13,16c.27,0,.54.04.8.07-.49.97-.8,2.24-.8,3.93,0,1.57.25,3.3.71,5h-5.71c-.06,0-.11.01-.17.02-.53-.91-.83-1.93-.83-3.02,0-3.31,2.69-6,6-6ZM41,40c0,.55-.45,1-1,1H8c-.55,0-1-.45-1-1v-4c0-.55.45-1,1-1h32c.55,0,1,.45,1,1v4ZM41,32c0,.55-.45,1-1,1H8c-.55,0-1-.45-1-1v-4c0-.55.45-1,1-1h32c.55,0,1,.45,1,1v4Z"/>
  <path d="M12,29h-2c-.552,0-1,.447-1,1s.448,1,1,1h2c.552,0,1-.447,1-1s-.448-1-1-1Z"/>
  <path d="M38,29h-2c-.552,0-1,.447-1,1s.448,1,1,1h2c.552,0,1-.447,1-1s-.448-1-1-1Z"/>
</svg>