<?xml version="1.0" encoding="UTF-8"?>
<svg id="Outline" xmlns="http://www.w3.org/2000/svg" version="1.1" viewBox="0 0 48 48">
  <!-- Generator: Adobe Illustrator 29.5.1, SVG Export Plug-In . SVG Version: 2.1.0 Build 141)  -->
  <path d="M17,15.001V6.001c0-.553-.447-1-1-1s-1,.447-1,1v9c0,1.859-1.279,3.411-3,3.858V6.001c0-.553-.447-1-1-1s-1,.447-1,1v12.858c-1.721-.447-3-1.999-3-3.858V6.001c0-.553-.447-1-1-1s-1,.447-1,1v9c0,2.215,1.21,4.149,3,5.188v19.812c0,1.654,1.346,3,3,3s3-1.346,3-3v-19.812c1.79-1.039,3-2.973,3-5.188ZM12,40.001c0,.552-.448,1-1,1s-1-.448-1-1v-19.09c.326.055.659.09,1,.09s.674-.035,1-.09v19.09Z"/>
  <path d="M42,5.001c-3.37,0-6.14,2.53-6.45,5.89l-1.55,17.02c-.02.28.07.56.26.76.19.21.46.33.74.33h2v11c0,1.65,1.35,3,3,3s3-1.35,3-3V6.001c0-.55-.45-1-1-1ZM41,40.001c0,.55-.45,1-1,1s-1-.45-1-1v-11h2v11ZM41,27.001h-4.91l1.45-15.93c.18-1.98,1.6-3.54,3.46-3.96v19.89Z"/>
  <path d="M21.465,27.536c.944.944,2.199,1.465,3.535,1.465.996,0,1.946-.291,2.757-.829l.536.536c.367.367,1.025.389,1.414,0,.391-.391.391-1.023,0-1.414l-.536-.536c.538-.811.829-1.761.829-2.757,0-1.336-.521-2.592-1.465-3.535-1.696-1.697-7.805-2.885-9.013-3.105-.323-.063-.654.044-.887.276s-.336.563-.276.887c.221,1.208,1.408,7.316,3.105,9.013ZM27.121,21.88c.566.566.879,1.319.879,2.121,0,.454-.11.888-.3,1.286l-2.7-2.7c-.391-.391-1.023-.391-1.414,0s-.391,1.023,0,1.414l2.689,2.689c-1.111.501-2.51.318-3.396-.568-.772-.772-1.685-3.892-2.258-6.5,2.608.573,5.728,1.485,6.5,2.258Z"/>
  <path d="M32.82,5.017c-1.207.221-7.315,1.408-9.013,3.104-.944.944-1.465,2.2-1.465,3.535,0,.996.291,1.947.829,2.758l-.536.536c-.618.618-.166,1.707.707,1.707.256,0,.512-.098.707-.293l.536-.536c.833.551,1.795.826,2.758.826,1.28,0,2.561-.487,3.535-1.462,1.696-1.697,2.884-7.806,3.104-9.013.06-.323-.044-.654-.276-.887s-.563-.341-.887-.276ZM29.465,13.779c-.921.922-2.291,1.105-3.406.577l2.698-2.698c.391-.391.391-1.023,0-1.414s-1.023-.391-1.414,0l-2.7,2.7c-.19-.398-.3-.832-.3-1.286,0-.801.312-1.555.879-2.121.772-.771,3.892-1.684,6.5-2.257-.573,2.608-1.485,5.728-2.257,6.5Z"/>
  <path d="M31.481,30.777c-.21.038-4.864.894-7.489,2.12-2.477-1.163-6.512-1.947-7.47-2.122-.321-.064-.654.044-.887.276s-.336.563-.276.887c.221,1.208,1.408,7.315,3.105,9.012.944.944,2.199,1.465,3.535,1.465.704,0,1.381-.153,2.007-.427.64.28,1.318.423,1.994.423,1.293,0,2.574-.501,3.536-1.462,1.694-1.695,2.885-7.8,3.106-9.007.06-.323-.044-.654-.275-.887-.232-.233-.563-.341-.887-.277ZM19.879,39.536c-.772-.772-1.685-3.891-2.258-6.499,2.608.572,5.728,1.484,6.5,2.257.566.566.879,1.319.879,2.121,0,.454-.11.888-.3,1.286l-2.7-2.7c-.391-.391-1.023-.391-1.414,0s-.391,1.023,0,1.414l2.689,2.689c-1.111.501-2.51.318-3.396-.568ZM28.123,39.534c-.582.581-1.358.876-2.14.871.649-.86,1.017-1.893,1.017-2.991,0-1.158-.411-2.242-1.13-3.128,1.456-.53,3.266-.971,4.51-1.244-.574,2.605-1.486,5.72-2.257,6.491Z"/>
</svg>