<?xml version="1.0" encoding="UTF-8"?>
<svg id="Outline" xmlns="http://www.w3.org/2000/svg" version="1.1" viewBox="0 0 64 64">
  <!-- Generator: Adobe Illustrator 29.5.1, SVG Export Plug-In . SVG Version: 2.1.0 Build 141)  -->
  <path d="M54,16v-8c0-.553-.447-1-1-1h-8c-.553,0-1,.447-1,1v8c0,.553.447,1,1,1h.026c-.635.838-1.026,1.87-1.026,3s.391,2.162,1.026,3h-.026c-.553,0-1,.447-1,1v8c0,.553.447,1,1,1h.026c-.635.838-1.026,1.87-1.026,3,0,1.627.793,3.061,2,3.974v14.026c0,1.654,1.346,3,3,3s3-1.346,3-3v-14.026c1.207-.914,2-2.348,2-3.974,0-1.13-.391-2.162-1.026-3h.026c.553,0,1-.447,1-1v-8c0-.553-.447-1-1-1h-.026c.635-.838,1.026-1.87,1.026-3s-.391-2.162-1.026-3h.026c.553,0,1-.447,1-1ZM46,9h6v6h-6v-6ZM52,25v6h-6v-6h6ZM50,54c0,.552-.448,1-1,1s-1-.448-1-1v-13.101c.323.066.658.101,1,.101s.677-.035,1-.101v13.101ZM52,36c0,1.654-1.346,3-3,3s-3-1.346-3-3,1.346-3,3-3,3,1.346,3,3ZM52,20c0,1.654-1.346,3-3,3s-3-1.346-3-3,1.346-3,3-3,3,1.346,3,3Z"/>
  <path d="M19,7h-8c-.553,0-1,.447-1,1v8c0,.553.447,1,1,1h.026c-.635.838-1.026,1.87-1.026,3s.391,2.162,1.026,3h-.026c-.553,0-1,.447-1,1v8c0,.553.447,1,1,1h.026c-.635.838-1.026,1.87-1.026,3,0,1.627.793,3.061,2,3.974v14.026c0,1.654,1.346,3,3,3,.812,0,1.566-.316,2.107-.873.576-.561.893-1.315.893-2.127v-3c0-.553-.447-1-1-1s-1,.447-1,1v3c0,.267-.103.514-.307.713-.18.185-.427.287-.693.287-.552,0-1-.448-1-1v-13.101c.323.066.658.101,1,.101s.677-.035,1-.101v2.101c0,.553.447,1,1,1s1-.447,1-1v-3.026c1.207-.914,2-2.348,2-3.974,0-1.13-.391-2.162-1.026-3h.026c.553,0,1-.447,1-1v-8c0-.553-.447-1-1-1h-.026c.635-.838,1.026-1.87,1.026-3s-.391-2.162-1.026-3h.026c.553,0,1-.447,1-1v-8c0-.553-.447-1-1-1ZM12,9h6v6h-6v-6ZM18,25v6h-6v-6h6ZM18,36c0,1.654-1.346,3-3,3s-3-1.346-3-3,1.346-3,3-3,3,1.346,3,3ZM18,20c0,1.654-1.346,3-3,3s-3-1.346-3-3,1.346-3,3-3,3,1.346,3,3Z"/>
  <path d="M42,20c0-2.323-2.857-4.18-7-4.788v-5.212c0-1.654-1.346-3-3-3s-3,1.346-3,3v5.212c-4.143.608-7,2.464-7,4.788,0,2.189,2.541,3.961,6.301,4.667-.8.887-1.301,2.048-1.301,3.333s.501,2.447,1.301,3.333c-3.76.706-6.301,2.477-6.301,4.667,0,2.323,2.857,4.18,7,4.788v13.212c0,1.654,1.346,3,3,3s3-1.346,3-3v-13.212c4.143-.608,7-2.464,7-4.788,0-2.189-2.541-3.961-6.301-4.667.8-.887,1.301-2.048,1.301-3.333s-.501-2.447-1.301-3.333c3.76-.706,6.301-2.477,6.301-4.667ZM31,10c0-.552.448-1,1-1s1,.448,1,1v5.024c-.328-.015-.661-.024-1-.024s-.672.009-1,.024v-5.024ZM33,54c0,.552-.448,1-1,1s-1-.448-1-1v-13.024c.328.015.661.024,1,.024s.672-.009,1-.024v13.024ZM40,36c0,1.224-3.116,3-8,3s-8-1.776-8-3,3.116-3,8-3,8,1.776,8,3ZM35,28c0,1.654-1.346,3-3,3s-3-1.346-3-3,1.346-3,3-3,3,1.346,3,3ZM32,23c-4.884,0-8-1.776-8-3s3.116-3,8-3,8,1.776,8,3-3.116,3-8,3Z"/>
  <path d="M30.293,18.293l-2,2c-.898.898.491,2.337,1.414,1.414l2-2c.391-.391.391-1.023,0-1.414s-1.023-.391-1.414,0Z"/>
  <path d="M35.293,18.293l-2,2c-.614.614-.158,1.707.707,1.707.256,0,.512-.098.707-.293l2-2c.391-.391.391-1.023,0-1.414s-1.023-.391-1.414,0Z"/>
  <path d="M30.293,34.293l-2,2c-.614.614-.158,1.707.707,1.707.256,0,.512-.098.707-.293l2-2c.391-.391.391-1.023,0-1.414s-1.023-.391-1.414,0Z"/>
  <path d="M34,38c.256,0,.512-.098.707-.293l2-2c.391-.391.391-1.023,0-1.414s-1.023-.391-1.414,0l-2,2c-.614.614-.159,1.707.707,1.707Z"/>
  <circle cx="17" cy="47" r="1"/>
</svg>