<?xml version="1.0" encoding="UTF-8"?>
<svg id="Outline" xmlns="http://www.w3.org/2000/svg" version="1.1" viewBox="0 0 64 64">
  <!-- Generator: Adobe Illustrator 29.5.1, SVG Export Plug-In . SVG Version: 2.1.0 Build 141)  -->
  <path d="M45,24c0-7.168-5.832-13-13-13s-13,5.832-13,13,5.832,13,13,13,13-5.832,13-13ZM21,24c0-6.065,4.935-11,11-11s11,4.935,11,11-4.935,11-11,11-11-4.935-11-11Z"/>
  <path d="M38,51h-3.9c3.901-4.89,14.9-19.355,14.9-27,0-9.374-7.626-17-17-17S15,14.626,15,24c0,7.645,10.999,22.11,14.9,27h-3.9c-.552,0-1,.447-1,1s.448,1,1,1h12c.552,0,1-.447,1-1s-.448-1-1-1ZM32,9c8.271,0,15,6.729,15,15,0,7.293-11.838,22.488-15,26.417-3.162-3.929-15-19.124-15-26.417,0-8.271,6.729-15,15-15Z"/>
  <path d="M38,55h-12c-.552,0-1,.447-1,1s.448,1,1,1h12c.552,0,1-.447,1-1s-.448-1-1-1Z"/>
  <path d="M38.708,23.035c1.168-1.17,1.168-3.072,0-4.242-1.134-1.133-3.11-1.133-4.243,0l-4.465,4.465-.464-.465c-1.134-1.133-3.109-1.133-4.243,0-1.168,1.17-1.168,3.072,0,4.242l1.879,1.879c.755.756,1.76,1.172,2.828,1.172s2.073-.416,2.828-1.172l5.879-5.879ZM28.586,27.5l-1.878-1.879c-.39-.39-.39-1.024,0-1.414.365-.365,1.024-.391,1.414,0l1.172,1.172c.391.391,1.023.391,1.414,0l5.172-5.172c.377-.379,1.036-.379,1.413,0,.39.39.39,1.024,0,1.414l-5.879,5.879c-.756.756-2.072.756-2.828,0Z"/>
</svg>