<?xml version="1.0" encoding="UTF-8"?>
<svg id="Outline" xmlns="http://www.w3.org/2000/svg" version="1.1" viewBox="0 0 64 64">
  <!-- Generator: Adobe Illustrator 29.5.1, SVG Export Plug-In . SVG Version: 2.1.0 Build 141)  -->
  <path d="M26.983,17.35l-.525,4.515c-.042.359.113.712.405.925s.677.251,1.005.1l4.132-1.895s4.132,1.895,4.132,1.895c.7.322,1.499-.262,1.41-1.025l-.525-4.515,3.079-3.344c.245-.266.327-.643.216-.986-.111-.343-.4-.6-.754-.671l-4.457-.896-2.229-3.961c-.354-.63-1.389-.63-1.742,0l-2.229,3.961-4.457.896c-.354.071-.643.328-.754.671-.111.344-.029.721.216.986l3.079,3.344ZM29.743,13.323c.285-.058.531-.236.674-.49l1.583-2.812,1.583,2.812c.143.254.389.433.674.49l3.164.636-2.186,2.375c-.197.214-.292.503-.258.793l.373,3.205-2.934-1.345c-.133-.061-.274-.091-.417-.091s-.284.03-.417.091l-2.934,1.345.373-3.205c.034-.29-.061-.579-.258-.793l-2.186-2.375,3.164-.636Z"/>
  <path d="M56.951,18.02c-.111-.343-.4-.6-.754-.671l-4.457-.896-2.229-3.961c-.354-.63-1.389-.63-1.742,0l-2.229,3.961-4.457.896c-.354.071-.643.328-.754.671-.111.344-.029.721.216.986l3.079,3.344-.525,4.515c-.042.359.113.712.405.925.292.213.677.25,1.005.1l4.132-1.895,4.132,1.895c.133.061.275.091.417.091.59,0,1.062-.531.994-1.116l-.525-4.515,3.079-3.344c.245-.266.327-.643.216-.986ZM51.875,21.333c-.197.214-.292.503-.258.793l.373,3.205-2.934-1.345c-.133-.061-.274-.091-.417-.091s-.284.03-.417.091l-2.934,1.345.373-3.205c.034-.29-.061-.579-.258-.793l-2.186-2.375,3.164-.636c.285-.058.531-.236.674-.49l1.583-2.813,1.583,2.813c.143.254.389.433.674.49l3.164.636-2.186,2.375Z"/>
  <path d="M19.492,27.891c.33.151.71.114,1.005-.1.292-.212.447-.566.405-.925l-.525-4.515,3.079-3.344c.245-.266.327-.643.216-.986-.111-.343-.4-.6-.754-.671l-4.457-.896-2.229-3.961c-.354-.63-1.389-.63-1.742,0l-2.229,3.961-4.457.896c-.354.071-.643.328-.754.671-.111.344-.029.721.216.986l3.079,3.344-.525,4.515c-.042.359.113.712.405.925.293.213.677.25,1.005.1l4.132-1.895s4.132,1.895,4.132,1.895ZM12.01,25.331l.373-3.205c.034-.29-.061-.579-.258-.793l-2.186-2.375,3.164-.636c.285-.058.531-.236.674-.49l1.583-2.813,1.583,2.813c.143.254.389.433.674.49l3.164.636-2.186,2.375c-.197.214-.292.503-.258.793l.373,3.205-2.934-1.345c-.133-.061-.274-.091-.417-.091s-.284.03-.417.091l-2.934,1.345Z"/>
  <path d="M51.788,32.366c-.189-.243-.48-.385-.788-.385h-5.789c-2.98-4.391-7.873-7-13.211-7s-10.231,2.609-13.211,7h-5.789c-.308,0-.599.142-.788.385s-.257.559-.182.858l1.938,7.757-1.938,7.757c-.075.299-.008.615.182.858s.48.385.788.385h5.789c2.98,4.391,7.873,7,13.211,7,2.239,0,4.411-.459,6.455-1.366.505-.224.732-.814.509-1.319-.224-.504-.813-.734-1.319-.509-1.787.792-3.687,1.194-5.645,1.194-4.195,0-8.079-1.841-10.716-5h21.426c-.563.671-1.181,1.291-1.866,1.84-.432.345-.501.975-.155,1.406.343.428.978.498,1.405.155,1.207-.966,2.244-2.114,3.112-3.4h5.793c.308,0,.599-.142.788-.385s.257-.559.182-.858l-1.938-7.757,1.938-7.757c.075-.299.008-.615-.182-.858ZM48.03,41.224l1.688,6.757H14.281l1.688-6.757c.04-.159.04-.326,0-.485l-1.688-6.757h8.719c.553,0,1-.448,1-1s-.447-1-1-1h-1.716c2.636-3.159,6.52-5,10.716-5s8.079,1.841,10.716,5h-15.716c-.553,0-1,.448-1,1s.447,1,1,1h22.719l-1.688,6.757c-.04.159-.04.326,0,.485Z"/>
  <path d="M42,41.981c.553,0,1-.448,1-1s-.447-1-1-1h-20c-.553,0-1,.448-1,1s.447,1,1,1h20Z"/>
  <path d="M45,35.981h-26c-.553,0-1,.448-1,1s.447,1,1,1h26c.553,0,1-.448,1-1s-.447-1-1-1Z"/>
  <path d="M45,43.981h-26c-.553,0-1,.448-1,1s.447,1,1,1h26c.553,0,1-.448,1-1s-.447-1-1-1Z"/>
</svg>