<?xml version="1.0" encoding="UTF-8"?>
<svg id="Outline" xmlns="http://www.w3.org/2000/svg" version="1.1" viewBox="0 0 64 64">
  <!-- Generator: Adobe Illustrator 29.5.1, SVG Export Plug-In . SVG Version: 2.1.0 Build 141)  -->
  <path d="M33.61621,18.94336c.10833.03806.22056.05662.33279.05664.55199.00012,1.01328-.47549,1.00022-1.02441l-.04199-1.71387,1.04102-1.3623c.2002-.26074.25879-.60352.15723-.91602-.10156-.31348-.35059-.55566-.66602-.64941l-1.64355-.48926-.97266-1.41211c-.37305-.54102-1.27344-.54102-1.64648,0l-.97266,1.41211-1.64355.48926c-.31543.09375-.56445.33594-.66602.64941-.10156.3125-.04297.65527.15723.91602l1.04102,1.3623-.04199,1.71387c-.00781.32812.14648.64062.41211.83398.26758.19336.61133.24316.9209.13379l1.61621-.57031,1.61621.57031ZM31.08594,16.57422l.01562-.61621c.00488-.22754-.06738-.45117-.20605-.63184l-.37402-.48926.59082-.17676c.21875-.06445.40918-.20312.53809-.39062l.34961-.50684.34961.50684c.12891.1875.31934.32617.53809.39062l.59082.17676-.37402.48926c-.13867.18066-.21094.4043-.20605.63184l.01562.61621-.58105-.20508c-.1084-.03809-.2207-.05664-.33301-.05664s-.22461.01855-.33301.05664l-.58105.20508Z"/>
  <path d="M46.10547,13.9834c-.10156-.31348-.35059-.55566-.66602-.64941l-1.64355-.48926-.97266-1.41211c-.37305-.54102-1.27344-.54102-1.64648,0l-.97266,1.41211-1.64355.48926c-.31543.09375-.56445.33594-.66602.64941-.10156.3125-.04297.65527.15723.91602l1.04102,1.3623-.04199,1.71387c-.00781.32812.14648.64062.41211.83398.26855.19336.6123.24316.9209.13379l1.61621-.57031,1.61621.57031c.1084.03809.2207.05664.33303.05664.55402-.00002,1.01362-.46887.99997-1.02441l-.04199-1.71387,1.04102-1.3623c.2002-.26074.25879-.60352.15723-.91602ZM43.10449,15.32617c-.13867.18066-.21094.4043-.20605.63184l.01562.61621-.58105-.20508c-.1084-.03809-.2207-.05664-.33301-.05664s-.22461.01855-.33301.05664l-.58105.20508.01562-.61621c.00488-.22754-.06738-.45117-.20605-.63184l-.37402-.48926.59082-.17676c.21875-.06445.40918-.20312.53809-.39062l.34961-.50684.34961.50684c.12891.1875.31934.32617.53809.39062l.59082.17676-.37402.48926Z"/>
  <path d="M19.46289,18.80957c.26855.19336.6123.24316.9209.13379l1.61621-.57031,1.61621.57031c.10831.03805.22051.05661.33272.05664.55487.00016,1.01344-.47163,1.00029-1.02441l-.04199-1.71387,1.04102-1.3623c.2002-.26074.25879-.60352.15723-.91602-.10156-.31348-.35059-.55566-.66602-.64941l-1.64355-.48926-.97266-1.41211c-.37305-.54102-1.27344-.54102-1.64648,0l-.97266,1.41211-1.64355.48926c-.31543.09375-.56445.33594-.66602.64941-.10156.3125-.04297.65527.15723.91602l1.04102,1.3623-.04199,1.71387c-.00781.32812.14648.64062.41211.83398ZM21.1123,14.66016c.21875-.06445.40918-.20312.53809-.39062l.34961-.50684.34961.50684c.12891.1875.31934.32617.53809.39062l.59082.17676-.37402.48926c-.13867.18066-.21094.4043-.20605.63184l.01562.61621-.58105-.20508c-.1084-.03809-.2207-.05664-.33301-.05664s-.22461.01855-.33301.05664l-.58105.20508.01562-.61621c.00488-.22754-.06738-.45117-.20605-.63184l-.37402-.48926.59082-.17676Z"/>
  <path d="M41.10547,21.9834c-.10156-.31348-.35059-.55566-.66602-.64941l-1.64355-.48926-.97266-1.41211c-.37305-.54102-1.27344-.54102-1.64648,0l-.97266,1.41211-1.64355.48926c-.31543.09375-.56445.33594-.66602.64941-.10156.3125-.04297.65527.15723.91602l1.04102,1.3623-.04199,1.71387c-.00781.32812.14648.64062.41211.83398.26758.19336.61328.24316.9209.13379l1.61621-.57031,1.61621.57031c.10828.03804.22046.0566.33264.05664.55449.0002,1.01349-.47301,1.00036-1.02441l-.04199-1.71387,1.04102-1.3623c.2002-.26074.25879-.60352.15723-.91602ZM38.10449,23.32617c-.13867.18066-.21094.4043-.20605.63184l.01562.61621-.58105-.20508c-.1084-.03809-.2207-.05664-.33301-.05664s-.22461.01855-.33301.05664l-.58105.20508.01562-.61621c.00488-.22754-.06738-.45117-.20605-.63184l-.37402-.48926.59082-.17676c.21875-.06445.40918-.20312.53809-.39062l.34961-.50684.34961.50684c.12891.1875.31934.32617.53809.39062l.59082.17676-.37402.48926Z"/>
  <path d="M31.10547,21.9834c-.10156-.31348-.35059-.55566-.66602-.64941l-1.64355-.48926-.97266-1.41211c-.37305-.54102-1.27344-.54102-1.64648,0l-.97266,1.41211-1.64355.48926c-.31543.09375-.56445.33594-.66602.64941-.10156.3125-.04297.65527.15723.91602l1.04102,1.3623-.04199,1.71387c-.00781.32812.14648.64062.41211.83398.26758.19336.6123.24316.9209.13379l1.61621-.57031,1.61621.57031c.10836.03807.22062.05663.33289.05664.55526.00006,1.01331-.47012,1.00012-1.02441l-.04199-1.71387,1.04102-1.3623c.2002-.26074.25879-.60352.15723-.91602ZM28.10449,23.32617c-.13867.18066-.21094.4043-.20605.63184l.01562.61621-.58105-.20508c-.1084-.03809-.2207-.05664-.33301-.05664s-.22461.01855-.33301.05664l-.58105.20508.01562-.61621c.00488-.22754-.06738-.45117-.20605-.63184l-.37402-.48926.59082-.17676c.21875-.06445.40918-.20312.53809-.39062l.34961-.50684.34961.50684c.12891.1875.31934.32617.53809.39062l.59082.17676-.37402.48926Z"/>
  <path d="M50,20c.55273,0,1-.44727,1-1v-9c0-1.6543-1.3457-3-3-3H16c-1.6543,0-3,1.3457-3,3v18c0,1.6543,1.3457,3,3,3h10.80762l4.82129,1.92871c.11914.04785.24512.07129.37109.07129s.25195-.02344.37109-.07129l4.82129-1.92871h10.80762c1.6543,0,3-1.3457,3-3v-5c0-.55273-.44727-1-1-1s-1,.44727-1,1v5c0,.55176-.44824,1-1,1h-11c-.12695,0-.25293.02441-.37109.07129l-4.62891,1.85156-4.62891-1.85156c-.11816-.04688-.24414-.07129-.37109-.07129h-11c-.55176,0-1-.44824-1-1V10c0-.55176.44824-1,1-1h32c.55176,0,1,.44824,1,1v9c0,.55273.44727,1,1,1Z"/>
  <path d="M39.30469,39.12207c-.43555.33984-.5127.96777-.17285,1.40332,1.22168,1.56641,1.86816,3.45996,1.86816,5.47461,0,4.96289-4.03711,9-9,9s-9-4.03711-9-9,4.03711-9,9-9c1.56934,0,3.04785.38672,4.39746,1.15039.47949.27246,1.09082.10254,1.3623-.37793.27246-.48047.10352-1.09082-.37793-1.3623-1.65234-.93555-3.46289-1.41016-5.38184-1.41016-6.06543,0-11,4.93457-11,11s4.93457,11,11,11,11-4.93457,11-11c0-2.42969-.81348-4.81055-2.29199-6.70508-.33984-.43652-.96777-.51367-1.40332-.17285Z"/>
  <path d="M33.46484,41.79297l-2.46484,2.46484-.46484-.46484c-1.16992-1.16992-3.07227-1.16992-4.24219,0s-1.16992,3.07227,0,4.24219l1.87891,1.87891c.75488.75586,1.75977,1.17188,2.82812,1.17188s2.07324-.41602,2.82812-1.17188l3.87891-3.87891c.56641-.56641.87891-1.32031.87891-2.12109s-.3125-1.55469-.87891-2.12109c-1.16992-1.16992-3.07227-1.16992-4.24219,0ZM36.29297,44.62109l-3.87891,3.87891c-.75586.75586-2.07227.75586-2.82812,0l-1.87891-1.87891c-.38965-.38965-.38965-1.02441,0-1.41406.18945-.18848.44043-.29297.70703-.29297s.51758.10449.70703.29297l1.17188,1.17188c.39062.39062,1.02344.39062,1.41406,0l3.17188-3.17188c.39062-.39062,1.02344-.39062,1.41406,0,.38965.38965.38965,1.02441,0,1.41406Z"/>
</svg>