<?xml version="1.0" encoding="UTF-8"?>
<svg id="Outline" xmlns="http://www.w3.org/2000/svg" version="1.1" viewBox="0 0 64 64">
  <!-- Generator: Adobe Illustrator 29.0.0, SVG Export Plug-In . SVG Version: 2.1.0 Build 186)  -->
  <path d="M36.00118,31.00124c-4.41113,0-8,3.58887-8,8s3.58887,8,8,8,8-3.58887,8-8-3.58887-8-8-8ZM36.00118,45.00124c-1.7738,0-3.36536-.77814-4.46472-2.00568,1.12482-1.25958,2.74597-1.99432,4.46472-1.99432,1.60303,0,3.10986.62402,4.24316,1.75684.0799.0799.13531.16876.20905.25128-1.099,1.21954-2.68506,1.99188-4.45221,1.99188ZM35.00118,38.00124c0-.55176.44873-1,1-1s1,.44824,1,1-.44873,1-1,1-1-.44824-1-1ZM41.55868,41.25356c-.85126-.8233-1.85394-1.43225-2.94434-1.80829.23889-.43036.38684-.91791.38684-1.44403,0-1.6543-1.3457-3-3-3s-3,1.3457-3,3c0,.52795.14886,1.01715.38928,1.44855-1.1004.38019-2.10315.99835-2.94324,1.81342-.28564-.69879-.44604-1.46161-.44604-2.26196,0-3.30859,2.69141-6,6-6s6,2.69141,6,6c0,.79675-.1593,1.55609-.4425,2.25232Z"/>
  <path d="M56.00118,39.00124c.54999,0,1-.45001,1-1v-15c0-1.65002-1.34998-3-3-3h-23.73999c.08997-1.56-.59003-3.09003-1.90002-4.04004-.45996-.33997-.79999-.79999-.96997-1.32996-.63-1.92999-2.41003-3.23004-4.44-3.23004-.57001,0-1.10999-.17999-1.57001-.50995-1.64001-1.19-3.84003-1.19-5.47998,0-.46002.32996-1,.50995-1.57001.50995-2.03003,0-3.81,1.30005-4.44,3.23004-.17004.52997-.51001.98999-.97003,1.32996-1.63995,1.19-2.32001,3.29004-1.69,5.22003.17004.52997.17004,1.10999,0,1.64001-.63,1.92999.05005,4.02997,1.69,5.21997.46002.34003.79999.79999.97003,1.33002.63,1.92999,2.40997,3.22998,4.44,3.22998.22998,0,.45001.04004.66998.09003v18.31c0,1.64996,1.34998,3,3,3h36c1.65002,0,3-1.35004,3-3v-9c0-.54999-.45001-1-1-1s-1,.45001-1,1v9c0,.54999-.45001,1-1,1H18.00118c-.54999,0-1-.45001-1-1v-17.31c.53003.20001,1.08002.31,1.64001.31.95996,0,1.91998-.29004,2.73999-.89001.46002-.33002,1-.51001,1.57001-.51001,2.02997,0,3.81-1.29999,4.44-3.22998.16998-.53003.51001-.98999.96997-1.33002.73004-.52997,1.26001-1.23999,1.58002-2.03998h4.06c.54999,0,1-.45001,1-1s-.45001-1-1-1h-3.73999c-.02002-.39001-.08002-.79004-.21002-1.17999-.08002-.27002-.13-.54004-.13-.82001h24.08002c.54999,0,1,.45001,1,1v1h-4c-.27002,0-.52002.10999-.71002.28998l-1.69995,1.71002h-3.18005l-1.69995-1.71002c-.19-.17999-.44-.28998-.71002-.28998h-5c-.54999,0-1,.45001-1,1s.45001,1,1,1h4.59003l1.69995,1.70996c.19.18005.44.29004.71002.29004h4c.27002,0,.52002-.10999.71002-.29004l1.69995-1.70996h3.59003v12c0,.54999.45001,1,1,1ZM28.15121,23.44125c.35999,1.09998-.03003,2.29999-.97003,2.97998-.79999.59003-1.39001,1.39001-1.69,2.34003-.35999,1.09998-1.38,1.83997-2.53998,1.83997-.98999,0-1.94.31-2.73999.89001-.94.67999-2.20001.67999-3.14001,0-.21002-.15002-.42999-.28998-.66998-.40002-.01001-.01001-.02002-.01001-.03003-.01001-.63-.31-1.32001-.47998-2.03998-.47998-1.16003,0-2.17999-.73999-2.54004-1.83997-.29999-.95001-.88995-1.75-1.69-2.34003-.94-.67999-1.32996-1.88-.96997-2.97998.31-.94.31-1.94,0-2.88-.35999-1.10004.02997-2.29999.96997-2.98004.80005-.58997,1.39001-1.38995,1.69-2.33997.36005-1.09998,1.38-1.84003,2.54004-1.84003.98999,0,1.94-.31,2.73999-.88995.46997-.34003,1.02002-.51001,1.57001-.51001s1.09998.16998,1.57001.51001c.79999.57996,1.75.88995,2.73999.88995,1.15997,0,2.17999.74005,2.53998,1.84003.29999.95001.89001,1.75,1.69,2.33997.94.68005,1.33002,1.88.97003,2.98004,0,.01996-.01001.02997-.01001.04999v.02002c-.29004.91998-.29004,1.88995.01001,2.81Z"/>
  <path d="M20.10714,17.79421l-2.46484,2.46484-.46436-.46484c-1.1333-1.13281-3.10889-1.13281-4.24316,0-1.16846,1.16992-1.16846,3.07227.00049,4.24219l1.87891,1.87891c.75537.75586,1.75977,1.17188,2.82861,1.17188,1.06836,0,2.07275-.41602,2.82812-1.17188l3.87842-3.87891c1.16992-1.16992,1.16992-3.07227.00049-4.24219-1.13379-1.13281-3.10986-1.13281-4.24268,0ZM22.93526,20.62234l-3.87842,3.87891c-.75635.75684-2.07324.75488-2.82861,0l-1.87842-1.87891c-.38959-.38959-.38965-1.02421-.00068-1.41387.38265-.38333,1.03354-.38188,1.41425-.00019l1.17188,1.17188c.39062.39062,1.02344.39062,1.41406,0l3.17188-3.17188c.37793-.37695,1.03613-.37891,1.41406,0,.38965.38965.38965,1.02441,0,1.41406Z"/>
</svg>