<?xml version="1.0" encoding="UTF-8"?>
<svg id="Outline" xmlns="http://www.w3.org/2000/svg" version="1.1" viewBox="0 0 64 64">
  <!-- Generator: Adobe Illustrator 29.5.1, SVG Export Plug-In . SVG Version: 2.1.0 Build 141)  -->
  <path d="M31.99997,13.99585c4.26172,0,8,2.33643,8,5,0,.55225.44727,1,1,1s1-.44775,1-1c0-3.85986-4.48633-7-10-7s-10,3.14014-10,7c0,.55225.44727,1,1,1s1-.44775,1-1c0-2.66357,3.73828-5,8-5Z"/>
  <path d="M24.03805,49.01587c-2.21094,1.48975-6.23633-.30371-8.61914-3.83594-2.38281-3.53369-2.53613-7.93945-.32812-9.42822.45703-.30859.57812-.93018.26953-1.38818-.30957-.4585-.92969-.57861-1.38867-.27002-3.19922,2.15771-3.29395,7.63281-.21094,12.20459,2.2334,3.31055,5.53027,5.25293,8.39453,5.25293,1.09082,0,2.11914-.28174,3.00195-.87695.45703-.30859.57812-.93018.26953-1.38818-.30859-.4585-.92969-.57861-1.38867-.27002Z"/>
  <path d="M50.02829,34.09351c-.45898-.30859-1.0791-.18848-1.38867.27002-.30859.45801-.1875,1.07959.26953,1.38818,2.20801,1.48877,2.05469,5.89453-.32812,9.42822-2.38184,3.53271-6.41406,5.32617-8.61914,3.83594-.45898-.30859-1.0791-.18848-1.38867.27002-.30859.45801-.1875,1.07959.26953,1.38818.88281.59521,1.91113.87695,3.00195.87695,2.86426,0,6.16113-1.94238,8.39453-5.25293,3.08301-4.57178,2.98828-10.04688-.21094-12.20459Z"/>
  <path d="M52.17087,30.55005c-.4704-.27185-.99695-.4989-1.54645-.70435,1.4502-1.98657,1.84344-4.12921.97711-5.83276-.93646-1.84406-3.17279-2.79614-5.90393-2.6261.18457-.82056.30237-1.62769.30237-2.39099,0-6.06543-6.28027-11-14-11s-14,4.93457-14,11c0,.76324.11786,1.57037.30243,2.39093-2.72992-.16986-4.9668.78174-5.90399,2.62567-.86633,1.70392-.47314,3.84644.97693,5.83301-.54919.20544-1.07538.43243-1.54529.7041-5.25195,3.03271-6.38477,10.93994-2.52637,17.62646,1.8457,3.19775,4.55078,5.65576,7.61816,6.92188,1.46582.60449,2.93164.90625,4.3418.90625,1.62793,0,3.18066-.40234,4.56738-1.20312.65948-.3819,1.30273-.87115,1.91907-1.44055,1.10278,1.66412,2.62268,2.63538,4.24988,2.63538s3.14709-.97131,4.24988-2.63531c.61664.56964,1.26013,1.05927,1.92004,1.44147,1.38672.80029,2.93848,1.20215,4.56543,1.20215,1.41016,0,2.87695-.30176,4.34277-.90625,3.06738-1.26611,5.77246-3.72412,7.61816-6.92188,3.8584-6.68652,2.72559-14.59375-2.52539-17.62598ZM49.81833,24.91968c.58221,1.14417.07208,2.80884-1.28113,4.33905-2.19849-.44299-4.68604-.45874-7.07214-.00159,1.56726-1.72729,2.82227-3.75781,3.60919-5.79645,2.23877-.3349,4.11401.21826,4.74408,1.45898ZM31.99997,41.99585c-4.41113,0-8-3.58887-8-8s3.58887-8,8-8,8,3.58887,8,8-3.58887,8-8,8ZM31.99997,9.99585c6.61719,0,12,4.0376,12,9,0,2.76422-1.63232,6.30176-4.05145,8.95679-.68262-.89557-1.50653-1.67639-2.44757-2.29901l1.44727-4.34137c.1748-.52393-.1084-1.09033-.63184-1.26514-.52734-.17627-1.08984.10938-1.26465.63232l-1.34564,4.03656c-1.14758-.46002-2.39618-.72015-3.70612-.72015s-2.55853.26013-3.70612.72015l-1.34564-4.03656c-.1748-.52295-.73633-.80859-1.26465-.63232-.52344.1748-.80664.74121-.63184,1.26514l1.44727,4.34137c-.94104.62262-1.76495,1.40344-2.44757,2.29901-2.41913-2.65503-4.05145-6.19257-4.05145-8.95679,0-4.9624,5.38281-9,12-9ZM14.18161,24.91919c.63013-1.2403,2.50385-1.79346,4.74408-1.45844.7868,2.03839,2.04163,4.06854,3.60864,5.79578-2.38611-.45758-4.87396-.44141-7.07196.00177-1.35291-1.53015-1.86292-3.19458-1.28076-4.33911ZM24.83005,53.06958c-2.03809,1.17773-4.57617,1.23975-7.14453.17969-2.66211-1.09863-5.02344-3.25537-6.64941-6.07324-3.30762-5.73145-2.50293-12.41309,1.79492-14.89453,2.32129-1.34155,6.12262-1.71497,9.5556-1.00891-.24609.86713-.38666,1.77832-.38666,2.72327,0,.40961.03229.8111.08038,1.20789l-5.28058,1.08069c-.54102.11035-.89062.63867-.7793,1.18018.09668.47314.51367.79932.97852.79932.06641,0,.13379-.00635.20117-.02051l5.31934-1.08862c.58643,1.75476,1.64337,3.29376,3.02527,4.46558l-3.29285,3.71191c-.36614.413-.32912,1.04467.08374,1.41141.38642.34325,1.04355.33201,1.41235-.08426l3.45416-3.89374c1.11658.61334,2.36243,1.01715,3.68512,1.16443-.90393,3.81561-3.3844,7.59186-6.05725,9.13947ZM31.99997,53.99585c-1.0542,0-2.08783-.79175-2.84064-2.14288,1.14026-1.39581,2.12305-3.06531,2.84009-4.84833.71643,1.7818,1.69965,3.45184,2.841,4.84857-.75275,1.35107-1.78632,2.14264-2.84045,2.14264ZM52.96384,47.17603c-1.62598,2.81787-3.9873,4.97461-6.64941,6.07324-2.56934,1.05957-5.1084.99609-7.14355-.17871-2.67664-1.55023-5.15948-5.33289-6.05841-9.14044,1.32275-.14722,2.56866-.55109,3.6853-1.16443l3.45415,3.89373c.34561.38959.99542.45417,1.41212.08448.41309-.3667.4502-.99854.08398-1.41162l-3.29285-3.71191c1.3819-1.17181,2.4389-2.71075,3.02533-4.46552l5.31927,1.08856c.06738.01416.13477.02051.20117.02051.46484,0,.88184-.32617.97852-.79932.11133-.5415-.23828-1.06982-.7793-1.18018l-5.28058-1.08069c.0481-.39679.08038-.79828.08038-1.20789,0-.94501-.14062-1.8562-.38672-2.72339,3.43433-.70685,7.23431-.33252,9.55664,1.00952,4.29688,2.48096,5.10156,9.1626,1.79395,14.89404Z"/>
  <path d="M31.99997,27.99585c-3.30859,0-6,2.69141-6,6s2.69141,6,6,6,6-2.69141,6-6-2.69141-6-6-6ZM31.99997,37.99585c-2.20605,0-4-1.79443-4-4s1.79395-4,4-4,4,1.79443,4,4-1.79395,4-4,4Z"/>
</svg>