<?xml version="1.0" encoding="UTF-8"?>
<svg id="Outline" xmlns="http://www.w3.org/2000/svg" version="1.1" viewBox="0 0 64 64">
  <!-- Generator: Adobe Illustrator 29.5.1, SVG Export Plug-In . SVG Version: 2.1.0 Build 141)  -->
  <path d="M48,30.5H16c-1.65,0-3,1.35-3,3v20c0,1.65,1.35,3,3,3h32c1.65,0,3-1.35,3-3v-20c0-1.65-1.35-3-3-3ZM49,53.5c0,.55-.45,1-1,1H16c-.55,0-1-.45-1-1v-13h34v13ZM49,38.5H15v-2h34v2ZM49,34.5H15v-1c0-.55.45-1,1-1h32c.55,0,1,.45,1,1v1Z"/>
  <path d="M26.522,45.607l-2.286-.764-1.432-1.938c-.379-.51-1.23-.51-1.609,0l-1.432,1.938-2.286.764c-.301.101-.536.338-.635.64-.098.302-.047.632.138.89l1.401,1.962.019,2.409c.003.317.155.614.412.801.256.187.585.241.889.145l2.299-.726,2.299.726c.098.031.2.047.3.047.535,0,.996-.461,1.001-.992l.019-2.409,1.401-1.962c.185-.258.235-.588.138-.89-.099-.302-.334-.539-.635-.64ZM23.808,48.193c-.12.167-.185.367-.187.573l-.011,1.372-1.31-.413c-.098-.031-.199-.047-.301-.047s-.203.016-.301.047l-1.31.413-.011-1.372c-.002-.206-.066-.406-.187-.573l-.798-1.118,1.302-.435c.195-.064.365-.188.488-.354l.815-1.104.815,1.104c.123.165.293.289.488.354l1.302.435-.798,1.118Z"/>
  <path d="M34.242,42.53c-.537-.136-1.079.19-1.212.728l-1.03,4.119-1.03-4.119c-.134-.537-.679-.862-1.212-.728-.536.134-.862.677-.728,1.212l2,8c.111.445.511.758.97.758s.858-.312.97-.758l2-8c.135-.535-.191-1.078-.728-1.212Z"/>
  <path d="M38,42.5c-.553,0-1,.447-1,1v8c0,.553.447,1,1,1s1-.447,1-1v-8c0-.553-.447-1-1-1Z"/>
  <path d="M44,42.5h-2c-.55,0-1,.45-1,1v8c0,.55.45,1,1,1s1-.45,1-1v-3h1c1.65,0,3-1.35,3-3s-1.35-3-3-3ZM44,46.5h-1v-2h1c.55,0,1,.45,1,1s-.45,1-1,1Z"/>
  <path d="M20,13.5h2c.553,0,1-.447,1-1s-.447-1-1-1h-2c-1.654,0-3,1.346-3,3v4c0,1.654,1.346,3,3,3h2c.553,0,1-.447,1-1s-.447-1-1-1h-2c-.552,0-1-.448-1-1v-4c0-.552.448-1,1-1Z"/>
  <path d="M28,11.5c-1.654,0-3,1.346-3,3v6c0,.553.447,1,1,1s1-.447,1-1v-2h2v2c0,.553.447,1,1,1s1-.447,1-1v-6c0-1.654-1.346-3-3-3ZM27,16.5v-2c0-.552.448-1,1-1s1,.448,1,1v2h-2Z"/>
  <path d="M42,11.5c-.553,0-1,.447-1,1v8c0,.553.447,1,1,1,2.757,0,5-2.243,5-5s-2.243-5-5-5ZM43,19.329v-5.658c1.164.413,2,1.525,2,2.829s-.836,2.416-2,2.829Z"/>
  <path d="M48,7.5H16c-1.65,0-3,1.35-3,3v12c0,1.65,1.35,3,3,3h11.67l3.73,2.8c.18.13.39.2.6.2s.42-.07.6-.2l3.73-2.8h11.67c1.65,0,3-1.35,3-3v-12c0-1.65-1.35-3-3-3ZM49,22.5c0,.55-.45,1-1,1h-12c-.22,0-.43.07-.6.2l-3.4,2.55-3.4-2.55c-.17-.13-.38-.2-.6-.2h-12c-.55,0-1-.45-1-1v-12c0-.55.45-1,1-1h32c.55,0,1,.45,1,1v12Z"/>
  <path d="M36.38,17.46c1.47-.19,2.62-1.43,2.62-2.96,0-1.65-1.35-3-3-3h-2c-.55,0-1,.45-1,1v8c0,.55.45,1,1,1s1-.45,1-1v-1.59l2.29,2.3c.2.19.45.29.71.29.88,0,1.33-1.09.71-1.71l-2.33-2.33ZM35,15.5v-2h1c.55,0,1,.45,1,1s-.45,1-1,1h-1Z"/>
</svg>