<?xml version="1.0" encoding="UTF-8"?>
<svg id="Outline" xmlns="http://www.w3.org/2000/svg" version="1.1" viewBox="0 0 64 64">
  <!-- Generator: Adobe Illustrator 29.5.1, SVG Export Plug-In . SVG Version: 2.1.0 Build 141)  -->
  <path d="M47,26.18v-9.18c0-1.65-1.35-3-3-3H10c-1.65,0-3,1.35-3,3v20c0,1.65,1.35,3,3,3h23.18c.96,5.67,5.89,10,11.82,10,6.62,0,12-5.38,12-12,0-5.93-4.33-10.86-10-11.82ZM26,16h18c.55,0,1,.45,1,1v2h-14c0-.55-.45-1-1-1-1.38,0-2.73.26-4,.76v-2.76ZM45,21v4h-14v-4h14ZM9,17c0-.55.45-1,1-1h8v2.76c-1.27-.5-2.62-.76-4-.76-.55,0-1,.45-1,1h-4v-2ZM9,21h4v4h-4v-4ZM18,38h-8c-.55,0-1-.45-1-1v-10h4c0,.55.45,1,1,1,1.38,0,2.73-.26,4-.76v10.76ZM19.04,24.44l-.1.06c-1.19.8-2.53,1.29-3.94,1.44v-5.88c1.41.15,2.75.64,3.94,1.44l.1.06c-.02.15-.04.29-.04.44v2c0,.15.02.29.04.44ZM24,38h-4v-11.78c.53.48,1.23.78,2,.78s1.47-.3,2-.78v11.78ZM21,24v-2c0-.55.45-1,1-1s1,.45,1,1v2c0,.55-.45,1-1,1s-1-.45-1-1ZM24,19.78c-.53-.48-1.23-.78-2-.78s-1.47.3-2,.78v-3.78h4v3.78ZM24.96,24.44c.02-.15.04-.29.04-.44v-2c0-.15-.02-.29-.04-.44l.1-.06c1.19-.8,2.53-1.29,3.94-1.44v5.88c-1.41-.15-2.75-.64-3.94-1.44l-.1-.06ZM33,38h-7v-10.76c1.27.5,2.62.76,4,.76.55,0,1-.45,1-1h9.22c-4.24,1.85-7.22,6.08-7.22,11ZM45,48c-5.51,0-10-4.49-10-10s4.49-10,10-10,10,4.49,10,10-4.49,10-10,10Z"/>
  <path d="M52.26,36.275c-.113-.348-.407-.606-.767-.674l-3.773-.711-1.842-3.37c-.352-.643-1.404-.643-1.756,0l-1.842,3.37-3.773.711c-.359.067-.653.326-.767.674s-.027.729.224.995l2.636,2.792-.491,3.81c-.046.362.108.722.404.937.295.216.685.25,1.016.095l3.472-1.644,3.472,1.644c.136.064.282.097.428.097.593,0,1.069-.535.992-1.128l-.491-3.81,2.636-2.792c.251-.266.337-.647.224-.995ZM47.62,39.034c-.205.218-.303.517-.265.814l.318,2.465-2.246-1.063c-.135-.064-.281-.097-.428-.097s-.293.032-.428.097l-2.246,1.063.318-2.465c.038-.298-.06-.597-.265-.814l-1.705-1.806,2.44-.46c.295-.055.549-.24.693-.503l1.191-2.181,1.191,2.181c.145.263.398.448.693.503l2.44.46-1.705,1.806Z"/>
</svg>