<?xml version="1.0" encoding="UTF-8"?>
<svg id="Outline" xmlns="http://www.w3.org/2000/svg" version="1.1" viewBox="0 0 64 64">
  <!-- Generator: Adobe Illustrator 29.5.1, SVG Export Plug-In . SVG Version: 2.1.0 Build 141)  -->
  <path d="M56,51h-3v-6c0-.55-.45-1-1-1s-1,.45-1,1v6h-2v-16h2v6c0,.55.45,1,1,1s1-.45,1-1v-6h1c.55,0,1-.45,1-1v-4c0-.55-.45-1-1-1h-1v-3c0-.55-.45-1-1-1h-7v-3c0-.55-.45-1-1-1h-1v-1c0-5.73-4.4-10.44-10-10.95v-1.05c0-.55-.45-1-1-1s-1,.45-1,1v1.05c-5.6.51-10,5.22-10,10.95v1h-1c-.55,0-1,.45-1,1v3h-7c-.55,0-1,.45-1,1v3h-1c-.55,0-1,.45-1,1v4c0,.55.45,1,1,1h1v16h-3c-.55,0-1,.45-1,1v4c0,.55.45,1,1,1h48c.55,0,1-.45,1-1v-4c0-.55-.45-1-1-1ZM41,20v1h-3.02c-.12-3.75-.91-6.97-2.13-9.12,3.04,1.44,5.15,4.54,5.15,8.12ZM32,11c1.79,0,3.77,4.21,3.98,10h-7.96c.21-5.79,2.19-10,3.98-10ZM23,20c0-3.58,2.11-6.68,5.15-8.12-1.22,2.15-2.01,5.37-2.13,9.12h-3.02v-1ZM21,23h22v2h-22v-2ZM13,27h38v2H13v-2ZM11,31h42v2h-22c-.55,0-1,.45-1,1s.45,1,1,1h8v16h-14v-16h2c.55,0,1-.45,1-1s-.45-1-1-1H11v-2ZM47,35v16h-2v-16h2ZM43,35v16h-2v-16h2ZM23,35v16h-2v-16h2ZM19,35v16h-2v-16h2ZM15,35v16h-2v-16h2ZM55,55H9v-2h46v2Z"/>
</svg>