<?xml version="1.0" encoding="UTF-8"?>
<svg id="Outline" xmlns="http://www.w3.org/2000/svg" version="1.1" viewBox="0 0 64 64">
  <!-- Generator: Adobe Illustrator 29.3.1, SVG Export Plug-In . SVG Version: 2.1.0 Build 151)  -->
  <path d="M55.9988,18.86948h-2c-.54999,0-1,.45001-1,1s.45001,1,1,1h1c-.29999,18.60999-15.39001,33.70001-34,34V21.86948c0-.54999.45001-1,1-1h24c.54999,0,1-.45001,1-1s-.45001-1-1-1h-1.37c.19-3.54004-.14001-7.08002-.98999-10.56l-.10999-.42999c-.14001-.53003-.68005-.85004-1.21002-.72003L9.29879,15.18949c-.78998.19-1.45001.66998-1.85999,1.34998-.41998.69-.53998,1.48999-.34998,2.28003l8.02997,33.02997c.10999.45001.52002.76001.97003.76001.06995,0,.14996-.01001.22998-.03003l.44-.09998c.78998-.19,1.52002-.40002,2.23999-.63v4.02002c0,.54999.45001,1,1,1h.44c20.15997,0,36.56-16.40002,36.56-36.56v-.44c0-.54999-.45001-1-1-1ZM24.58883,18.86948l-.28003-1.16003,3.89001-.94.51001,2.10004h-4.12ZM38.60879,18.86948h-3.71997l-.85999-3.52002,4.52997-1.10999c.14001,1.52002.15002,3.07001.04999,4.63ZM18.9988,42.40946l-.40997-1.70001.40997-.09998v1.79999ZM18.9988,34.43949l-1.83002.44-.94-3.88,2.77002-.67999v4.12ZM18.9988,21.86948v2.27997l-4.19,1.02002-1.17999-4.85999,4.84998-1.17999.56,2.31c-.01996.13995-.03998.27997-.03998.42999ZM20.1888,17.67948c-.06-.25-.22003-.48004-.45001-.60999-.22998-.14001-.5-.18005-.76001-.12006l-6.79999,1.66003c-.52997.13-.85999.66998-.72998,1.21002l1.64996,6.79999c.06.25.22003.47998.45001.60999.16003.09998.34003.15002.52002.15002.08002,0,.15997-.01001.23999-.03003l4.69-1.15002v2.06006l-4.21997,1.02997c-.53003.13-.86005.66998-.73004,1.20001l1.41003,5.83997c.10999.45001.51996.76001.96997.76001.08002,0,.15002-.01001.22998-.02997l2.34003-.56v2.04999l-1.85999.46002c-.53003.12994-.85999.66998-.73004,1.20996l1.61005,6.60999c.07001.27002.25.51001.48999.64001.14996.08002.32001.12.47998.12h.01001v2.16003c-.70001.22998-1.40997.44995-2.16998.64996l-7.79999-32.04999c-.06006-.27002-.02002-.53998.12-.77002.13995-.22998.34998-.38995.62-.44995l32.06-7.79004c.70996,3.13.95996,6.33002.77997,9.53003h-2c.12-2.03003.07001-4.04004-.19-6-.03998-.28003-.19-.53003-.41998-.69-.23999-.16998-.53003-.22003-.81-.15002l-6.60999,1.60999c-.53003.13-.86005.67004-.73004,1.21002l.98004,4.02002h-2.06l-.87-3.54999c-.13-.53003-.67004-.86005-1.21002-.73004l-5.83002,1.42004c-.26001.06-.47998.21997-.60999.44995-.14001.23004-.17999.5-.12.76001l.40002,1.65002h-.53003c-.52002,0-1,.14996-1.42999.38l-.38-1.57001Z"/>
  <path d="M43.9988,23.86948v7c0,.55225.44727,1,1,1h5.17773c.42285,0,.7998-.26611.94238-.66455.83594-2.34814,1.39941-4.77881,1.6748-7.22363.03125-.28271-.05859-.56592-.24805-.77832-.19043-.21191-.46094-.3335-.74609-.3335h-6.80078c-.55273,0-1,.44775-1,1ZM45.9988,24.86948h4.66016c-.25488,1.6875-.65527,3.36279-1.19629,5h-3.46387v-5Z"/>
  <path d="M31.9988,34.86948c0-.55225-.44727-1-1-1h-7c-.55273,0-1,.44775-1,1v6c0,.55225.44727,1,1,1h7c.55273,0,1-.44775,1-1v-6ZM29.9988,39.86948h-5v-4h5v4Z"/>
  <path d="M41.9988,40.86948v-6c0-.55225-.44727-1-1-1h-6c-.55273,0-1,.44775-1,1v6c0,.55225.44727,1,1,1h6c.55273,0,1-.44775,1-1ZM39.9988,39.86948h-4v-4h4v4Z"/>
  <path d="M41.9988,23.86948c0-.55225-.44727-1-1-1h-6c-.55273,0-1,.44775-1,1v7c0,.55225.44727,1,1,1h6c.55273,0,1-.44775,1-1v-7ZM39.9988,29.86948h-4v-5h4v5Z"/>
  <path d="M31.9988,23.86948c0-.55225-.44727-1-1-1h-7c-.55273,0-1,.44775-1,1v7c0,.55225.44727,1,1,1h7c.55273,0,1-.44775,1-1v-7ZM29.9988,29.86948h-5v-5h5v5Z"/>
  <path d="M30.9988,43.86948h-7c-.55273,0-1,.44775-1,1v6.80078c0,.28467.12109.55615.33398.74561.18359.16455.42188.25439.66602.25439.03711,0,.07422-.00195.1123-.00635,2.44531-.27539,4.87598-.83887,7.22363-1.67529.39844-.1416.66406-.51904.66406-.94189v-5.17725c0-.55225-.44727-1-1-1ZM29.9988,49.33286c-1.63672.54102-3.31152.94238-5,1.19727v-4.66064h5v3.46338Z"/>
  <path d="M40.23025,43.86948h-5.23145c-.55273,0-1,.44775-1,1v3.43066c0,.34961.18262.67383.48145.85547.15918.09619.33887.14453.51855.14453.15918,0,.31738-.0376.46289-.11377,1.9043-.99463,3.7207-2.18555,5.39648-3.53906.33008-.26611.45605-.71143.31543-1.11084-.1416-.3999-.51953-.66699-.94336-.66699ZM35.9988,46.59751v-.72803h1.16504c-.38281.25146-.77148.49414-1.16504.72803Z"/>
  <path d="M48.42947,33.86948h-3.43066c-.55273,0-1,.44775-1,1v5.23096c0,.42383.26758.80176.66699.94287.10938.03857.22168.05713.33301.05713.2959,0,.58398-.13184.77832-.37158,1.35156-1.67432,2.54297-3.48975,3.53906-5.39648.16113-.31006.14941-.68213-.03125-.98096-.18164-.29932-.50586-.48193-.85547-.48193ZM45.9988,37.03403v-1.16455h.72754c-.2334.39355-.47656.78174-.72754,1.16455Z"/>
  <circle cx="49.9988" cy="19.86948" r="1"/>
</svg>