<?xml version="1.0" encoding="UTF-8"?>
<svg id="Outline" xmlns="http://www.w3.org/2000/svg" version="1.1" viewBox="0 0 64 64">
  <!-- Generator: Adobe Illustrator 29.5.1, SVG Export Plug-In . SVG Version: 2.1.0 Build 141)  -->
  <path d="M56.03689,33.00293c-.56152-.0332-1.03418.36523-1.0791.91504-.96875,11.82227-11.0332,21.08203-22.91309,21.08203-3.43359,0-6.73145-.73828-9.80176-2.19336-.5-.23438-1.09473-.02344-1.33203.47461-.2373.49902-.02441,1.0957.47461,1.33203,3.34082,1.58398,6.92676,2.38672,10.65918,2.38672,12.91309,0,23.85352-10.06738,24.90723-22.91797.04492-.55078-.36523-1.0332-.91504-1.0791Z"/>
  <path d="M9.0447,32c0-2.50977.4043-4.97168,1.20312-7.33398.63837.24817,1.33038.34949,2.01007.32068-.56152,1.58325-.93933,3.22675-1.1087,4.9137-.02832.28125.06445.56055.25391.77051s.45898.3291.74121.3291h17.90039c.55273,0,1-.44727,1-1V12.09961c0-.28027-.11816-.54883-.3252-.73828-.20605-.18848-.48633-.28223-.76367-.25781l-.00165.00018c-.1275-.69257-.3916-1.34967-.78448-1.92499.94434-.11914,1.90527-.17871,2.875-.17871,11.87988,0,21.94434,9.25977,22.91309,21.08203.04492.55078.51855.95996,1.0791.91504.5498-.0459.95996-.52832.91504-1.0791-1.05371-12.85059-11.99414-22.91797-24.90723-22.91797-1.78027,0-3.53711.18652-5.22266.55273-.4043.08887-.71191.41602-.77539.82422-.06348.40918.13184.81445.49023,1.02051.92969.53418,1.50781,1.53125,1.50781,2.60254l-.00879.17773c-.04395.8291-.44434,1.44824-.77246,1.82227-.18066.20605-.26953.47656-.24512.74902l.0166.14844c.00391.0332.00977.06543.00977.10254,0,1.6543-1.3457,3-3,3-.60547,0-1.18457-.17773-1.67383-.51465-.25586-.17676-.5791-.22168-.87891-.12598-.29688.09766-.53027.32812-.63281.62305-.41699,1.20703-1.54883,2.01758-2.81445,2.01758-.5293,0-1.04199-.14746-1.52539-.4375-.29004-.17578-.65137-.19043-.95801-.03906-.30469.15039-.5127.44629-.55078.78516-.11035.98926-.69043,1.85742-1.57324,2.33301-.93262.53516-2.22266.46094-3.14453-.21094-.25-.18164-.57129-.23828-.86816-.15039-.29688.08691-.53711.30566-.65039.59375-1.14746,2.91602-1.72949,5.98633-1.72949,9.12598,0,8.18555,4.01855,15.86035,10.75,20.53125.17383.12109.37305.17871.56934.17871.31641,0,.62793-.15039.82227-.42969.31543-.4541.20215-1.07715-.25098-1.3916-6.19336-4.29785-9.89062-11.3584-9.89062-18.88867ZM14.38443,25h2.66028v4h-3.7627c.21851-1.37372.59088-2.711,1.10242-4ZM19.0447,25h4v4h-4v-4ZM25.0447,29v-4h4v4h-4ZM29.0447,15v2h-.42383c.26935-.61359.42383-1.28821.42383-2ZM27.01376,19h2.03094v4h-4v-3.10107c.72986-.1488,1.39197-.46924,1.96906-.89893ZM22.25369,19.66895c.25555.09888.52142.16895.79102.22382v3.10724h-4v-1.11206c1.32446-.27417,2.48706-1.07227,3.20898-2.21899ZM16.68533,21.80566c.11804.03455.23944.05261.35938.078v1.11633h-1.04669c.27722-.36725.5188-.76166.68732-1.19434Z"/>
  <path d="M34.14468,11.10999c-.27997-.03003-.56.06-.76996.25-.21002.19-.33002.46002-.33002.73999v17.90002c0,.54999.45001,1,1,1h17.90002c.27997,0,.54999-.12.73999-.33002s.27997-.48999.25-.77002c-.98004-9.90997-8.88-17.81-18.79004-18.78998ZM41.0447,15.27997c.92999.5,1.79999,1.08002,2.63,1.72003h-2.63v-1.72003ZM39.0447,29h-4v-4h4v4ZM39.0447,23h-4v-4h4v4ZM39.0447,17h-4v-3.76001c1.39001.21997,2.72998.59998,4,1.10999v2.65002ZM45.0447,29h-4v-4h4v4ZM45.0447,23h-4v-4h4v4ZM47.0447,20.37c.64001.83002,1.21997,1.70001,1.71997,2.63h-1.71997v-2.63ZM47.0447,29v-4h2.65002c.50995,1.26996.88995,2.60999,1.10999,4h-3.76001Z"/>
  <path d="M30.0447,33H12.14529c-.28223,0-.55176.11914-.74121.3291-.18945.20898-.28223.48828-.25391.76953.98438,9.90723,8.88867,17.81152,18.7959,18.7959.0332.00293.06543.00488.09863.00488.24707,0,.48633-.0918.6709-.25879.20996-.18945.3291-.45898.3291-.74121v-17.89941c0-.55273-.44727-1-1-1ZM29.0447,39h-4v-4h4v4ZM19.0447,45v-4h4v4h-4ZM23.0447,47v1.71973c-.92676-.50067-1.80475-1.07751-2.63116-1.71973h2.63116ZM17.0447,43.63116c-.64221-.82642-1.21906-1.70441-1.71973-2.63116h1.71973v2.63116ZM19.0447,39v-4h4v4h-4ZM25.0447,41h4v4h-4v-4ZM17.0447,35v4h-2.6532c-.50641-1.2735-.88867-2.60944-1.1095-4h3.7627ZM25.0447,49.6532v-2.6532h4v3.7627c-1.39056-.22083-2.7265-.60309-4-1.1095Z"/>
  <path d="M51.94412,33h-17.89941c-.55273,0-1,.44727-1,1v17.89941c0,.28223.11914.55176.3291.74121.18457.16699.42383.25879.6709.25879.0332,0,.06543-.00195.09863-.00488,9.90723-.98438,17.81152-8.88867,18.7959-18.7959.02832-.28125-.06445-.56055-.25391-.76953-.18945-.20996-.45898-.3291-.74121-.3291ZM45.0447,45h-4v-4h4v4ZM47.0447,41h1.71973c-.50067.92676-1.07751,1.80475-1.71973,2.63116v-2.63116ZM43.67587,47c-.82642.64221-1.70435,1.21906-2.63116,1.71973v-1.71973h2.63116ZM39.0447,45h-4v-4h4v4ZM41.0447,39v-4h4v4h-4ZM39.0447,35v4h-4v-4h4ZM35.0447,47h4v2.6532c-1.2735.50641-2.60944.88867-4,1.1095v-3.7627ZM49.6979,39h-2.6532v-4h3.7627c-.22083,1.39056-.60309,2.7265-1.1095,4Z"/>
</svg>