<?xml version="1.0" encoding="UTF-8"?>
<svg id="Outline" xmlns="http://www.w3.org/2000/svg" version="1.1" viewBox="0 0 64 64">
  <!-- Generator: Adobe Illustrator 29.5.1, SVG Export Plug-In . SVG Version: 2.1.0 Build 141)  -->
  <path d="M54,28.975h-10.94v-4.07c1.94-.24,3.74-1.18,5.05-2.66,1.53-1.73,2.24-4.04,1.95-6.33l-1-8.06c-.07-.5-.49-.88-1-.88h-12c-.5,0-.93.38-.99.88l-1.01,8.06c-.28,2.29.43,4.6,1.96,6.33,1.31,1.48,3.11,2.42,5.04,2.66v4.07h-16v-4.07c1.94-.24,3.74-1.18,5.05-2.66,1.53-1.73,2.24-4.04,1.95-6.33l-1-8.06c-.07-.5-.49-.88-1-.88h-12c-.5,0-.93.38-.99.88l-1.01,8.06c-.28,2.29.43,4.6,1.96,6.33,1.31,1.48,3.11,2.42,5.04,2.66v4.07h-11.06c-1.65,0-3,1.35-3,3,0,1.43,1,2.62,2.34,2.92l1.77,3.53c.08.16.2.29.34.38-1.49.81-2.67,2.15-3.26,3.77l-3.13,8.6c-.19.52.08,1.09.6,1.28.11.04.23.06.34.06.41,0,.79-.25.94-.66l3.13-8.6c.47-1.27,1.44-2.31,2.67-2.86l3.2-1.42h3.86c.04.12.06.25.06.38,0,.41-.18.79-.5,1.06l-4,3.33c-.32.27-.44.71-.3,1.11.14.4.52.66.94.66h8c.19,0,.38-.05.54-.16l8.86-5.64c.31-.19.68-.25,1.03-.15.36.1.64.34.8.66.271.542.125,1.246-.39,1.62l-9.21,6.7-6.6.66c-2.29.23-4.27,1.77-5.04,3.93l-.93,2.55c-.19.52.08,1.09.601,1.28.515.187,1.094-.084,1.279-.6l.93-2.55c.52-1.44,1.84-2.46,3.36-2.61l6.87-.69c.18-.02.35-.09.49-.19l9.42-6.86c.85-.61,1.36-1.6,1.36-2.65,0-.51-.11-1-.34-1.47-.07-.13-.16-.25-.24-.37h13.21c.38,0,.72-.21.89-.55l1.77-3.53c1.34-.3,2.34-1.49,2.34-2.92,0-1.65-1.35-3-3-3ZM37.52,20.925c-1.15-1.3-1.69-3.04-1.47-4.76l.9-7.19h10.23l.9,7.19c.21,1.72-.32,3.46-1.47,4.76-1.15,1.3-2.81,2.05-4.55,2.05-1.73,0-3.39-.75-4.54-2.05ZM19.52,20.925c-1.15-1.3-1.69-3.04-1.47-4.76l.9-7.19h10.23l.9,7.19c.21,1.72-.32,3.46-1.47,4.76-1.15,1.3-2.81,2.05-4.55,2.05-1.73,0-3.39-.75-4.54-2.05ZM25.71,43.515h-4.95l1.88-1.56c.78-.66,1.22-1.6,1.22-2.6,0-.13-.02-.25-.03-.38h9.01l-7.13,4.54ZM51.38,36.975H14.62l-1-2h38.76l-1,2ZM54,32.975H12c-.55,0-1-.45-1-1s.45-1,1-1h42c.55,0,1,.45,1,1s-.45,1-1,1Z"/>
</svg>