<?xml version="1.0" encoding="UTF-8"?>
<svg id="Outline" xmlns="http://www.w3.org/2000/svg" version="1.1" viewBox="0 0 64 64">
  <!-- Generator: Adobe Illustrator 29.3.1, SVG Export Plug-In . SVG Version: 2.1.0 Build 151)  -->
  <path d="M27.96777,8.57146c-.99561-.80371-2.18555-1.3125-3.4458-1.47363-3.07227-.38086-6.18506.35645-8.76611,2.07031-3.604,2.39844-5.75586,6.41797-5.75586,10.83203,0,.55273.44775.95996,1,.95996s1-.4873,1-1.04004c0-3.66309,1.81836-7.05957,4.86328-9.08691,2.18262-1.44824,4.81543-2.07129,7.40967-1.75098.88818.11328,1.73145.47461,2.42822,1.03711.7002.58105,1.21875,1.33398,1.49951,2.17578,1.14355,3.44824,1.18604,7.09668.12402,10.54883-.96973,3.13184-1.6416,6.38867-2,9.69629h-14.32471v-4.54004c0-.55273-.44775-1-1-1s-1,.44727-1,1v5.54004c0,.55273.44775,1,1,1h16.22998c.51709,0,.94922-.39453.99609-.90918.31592-3.48047.99219-6.91113,2.00928-10.19727,1.18604-3.85352,1.13867-7.92285-.13672-11.76953-.39941-1.19824-1.13232-2.26465-2.13086-3.09277Z"/>
  <path d="M27.01367,36.54217H11c-.55225,0-1,.44727-1,1v2c0,4.96289,4.0376,9,9,9s9-4.03711,9-9v-1.25879c0-.13965.00342-.28027.00684-.41992l.00684-.30762c.00342-.26758-.1001-.52539-.28809-.71582s-.44434-.29785-.71191-.29785ZM26,39.54217c0,3.85938-3.14014,7-7,7s-7-3.14062-7-7v-1h14v1Z"/>
  <path d="M48.24561,17.62908c-2.5791-1.7207-5.69482-2.45605-8.771-2.07129-2.56592.32129-4.75244,2.11328-5.57031,4.56641-1.27832,3.83691-1.32568,7.90723-.13623,11.77148,1.01074,3.28516,1.68652,6.71582,2.00879,10.19629.04736.51465.479.9082.99561.9082h16.22754c.55225,0,1-.44727,1-1v-13.61914c0-4.33105-2.15137-8.35059-5.75439-10.75195ZM52,41.00017h-14.32373c-.36328-3.30664-1.03369-6.5625-1.99707-9.69238-1.06543-3.46387-1.02344-7.1123.12256-10.55078.57568-1.72656,2.11475-2.98828,3.9209-3.21484,2.59668-.32617,5.2334.29688,7.41357,1.75098,3.04541,2.03027,4.86377,5.42773,4.86377,9.08789v12.61914Z"/>
  <path d="M53,45.00017h-16.01367c-.26758,0-.52393.10742-.71191.29785s-.2915.44824-.28809.71582l.00684.30762c.00342.13965.00684.28027.00684.41992v1.25879c0,4.96289,4.0376,9,9,9s9-4.03711,9-9v-2c0-.55273-.44775-1-1-1ZM52,48.00017c0,3.85938-3.14014,7-7,7s-7-3.14062-7-7v-1h14v1Z"/>
  <circle cx="11" cy="24.00017" r="1"/>
</svg>