<?xml version="1.0" encoding="UTF-8"?>
<svg id="Outline" xmlns="http://www.w3.org/2000/svg" version="1.1" viewBox="0 0 64 64">
  <!-- Generator: Adobe Illustrator 29.5.1, SVG Export Plug-In . SVG Version: 2.1.0 Build 141)  -->
  <path d="M54,27h-6.84998v-.01001c5.44-.08002,9.84998-4.53003,9.84998-9.98999,0-5.51001-4.48999-10-10-10-4,0-7.59003,2.39001-9.16998,6.01001-1.82001.02997-3.51001.54999-4.97003,1.42999l-6.65997-6.66003c-.51001-.5-1.16998-.77997-1.88-.77997h-.01001c-.71002.01001-1.38.28998-1.87.77997l-5.41998,5.41003c-.39001.38995-.39001,1.02997,0,1.41998.38995.39001,1.02997.39001,1.41998,0l5.41998-5.41998c.12-.12.28003-.19.45001-.19.17999.02997.34998.07001.47003.20001l6.45996,6.44995c-.95001.87-1.71997,1.92004-2.27997,3.09003-.01001-.28998.07996-.59998.31-.82001.38995-.39001.38995-1.02997,0-1.41998l-2.77002-2.77002c-.39001-.39001-1.03003-.39001-1.41998,0-.42004.41998-1.10004.41998-1.52002,0-.39001-.39001-1.02997-.39001-1.41998,0l-8.38,8.38c-.17999.19-.29004.45001-.29004.71002,0,.26996.11005.51996.29004.70996.20996.20001.32001.47003.32001.76001,0,.28003-.11005.54999-.32001.75-.17999.19-.29004.44-.29004.71002,0,.26001.11005.51996.29004.70996l.54999.54004h-2.84003l-2.23999-2.25c-.26001-.25-.26001-.67004,0-.92999l6.38-6.38c.39001-.39001.39001-1.03003,0-1.42004-.39001-.38995-1.02997-.38995-1.41998,0l-6.38,6.38c-1.02997,1.04004-1.02997,2.73004,0,3.77002l1.06,1.04999c-1.08997.45001-1.87,1.53003-1.87,2.78003v9c0,.54999.45001,1,1,1s1-.45001,1-1v-9c0-.54999.45001-1,1-1h44c.54999,0,1,.45001,1,1v5h-5c-3.85999,0-7,3.14001-7,7s3.14001,7,7,7h5v5c0,.54999-.45001,1-1,1H10c-.54999,0-1-.45001-1-1v-11c0-.54999-.45001-1-1-1s-1,.45001-1,1v11c0,1.64996,1.34998,3,3,3h44c1.65002,0,3-1.35004,3-3v-24c0-1.65002-1.34998-3-3-3ZM22.96997,15.73999c.85004.40997,1.85004.40997,2.70001,0l1.59003,1.58997c-.41003.85004-.41003,1.85004,0,2.70001l-1.35004,1.35004c-.22998-.95001-.73999-1.90002-1.53998-2.70001-.82001-.82001-1.81-1.34003-2.78998-1.56l1.38995-1.38ZM20.29999,27h-3.16998l-1.35999-1.37c.19995-.41003.31-.87.31-1.34003,0-.47998-.11005-.94-.31-1.34998l1.38995-1.39001c.22003.97998.73004,1.96002,1.56,2.78998.79004.80005,1.74005,1.31,2.69,1.54004l-1.10999,1.12ZM20.13,22.91998c-1.15002-1.15002-1.47003-2.76001-.71002-3.52997.29004-.28003.67999-.42004,1.13-.42004.77002,0,1.67999.40002,2.41003,1.13,1.13995,1.14001,1.46997,2.76001.70996,3.52002l-.01001.02002c-.76996.75-2.37994.42999-3.52997-.72003ZM23.12,27l1.95001-1.95001h.01001q0-.01001.01001-.01001l2.95996-2.96002c-.02997.30005-.04999.61005-.04999.92004,0,1.39001.29999,2.75.84998,4h-5.72998ZM43.67999,14.77997c.72998-1.09998,1.96002-1.77997,3.32001-1.77997,2.21002,0,4,1.78998,4,4,0,1.92999-1.37,3.53998-3.22998,3.91998-.53003-2.48999-1.98999-4.67999-4.09003-6.14001ZM47,9c4.40997,0,8,3.58997,8,8,0,4.14996-3.16998,7.57001-7.21997,7.95996.12994-.63995.21997-1.28998.21997-1.95996,0-.03003-.01001-.06-.01001-.09003,2.84003-.47998,5.01001-2.94,5.01001-5.90997,0-3.31-2.69-6-6-6-2.09998,0-3.98999,1.07996-5.08002,2.82001-.63-.28003-1.28998-.47003-1.96997-.61005,1.38-2.56,4.08002-4.20996,7.04999-4.20996ZM38,27c-2.21002,0-4-1.79004-4-4s1.78998-4,4-4,4,1.78998,4,4-1.78998,4-4,4ZM44.90002,27h-2.44c.94995-1.06,1.53998-2.46002,1.53998-4,0-3.31-2.69-6-6-6s-6,2.69-6,6c0,1.53998.59003,2.94,1.53998,4h-2.44c-.70996-1.21002-1.09998-2.58002-1.09998-4,0-4.41003,3.59003-8,8-8,1.35999,0,2.70001.34998,3.88,1,2.27002,1.26001,3.78998,3.53998,4.07001,6.12.02997.28998.04999.58002.04999.88,0,1.41998-.39001,2.78998-1.09998,4ZM55,47h-5c-2.76001,0-5-2.23999-5-5s2.23999-5,5-5h5v10Z"/>
  <path d="M50,39c-1.6543,0-3,1.3457-3,3s1.3457,3,3,3,3-1.3457,3-3-1.3457-3-3-3ZM50,43c-.55176,0-1-.44824-1-1s.44824-1,1-1,1,.44824,1,1-.44824,1-1,1Z"/>
  <path d="M52,33c.55273,0,1-.44727,1-1s-.44727-1-1-1h-2c-.55273,0-1,.44727-1,1s.44727,1,1,1h2Z"/>
  <path d="M34,33h4c.55273,0,1-.44727,1-1s-.44727-1-1-1h-4c-.55273,0-1,.44727-1,1s.44727,1,1,1Z"/>
  <path d="M42,33h4c.55273,0,1-.44727,1-1s-.44727-1-1-1h-4c-.55273,0-1,.44727-1,1s.44727,1,1,1Z"/>
  <path d="M26,33h4c.55273,0,1-.44727,1-1s-.44727-1-1-1h-4c-.55273,0-1,.44727-1,1s.44727,1,1,1Z"/>
  <path d="M18,33h4c.55273,0,1-.44727,1-1s-.44727-1-1-1h-4c-.55273,0-1,.44727-1,1s.44727,1,1,1Z"/>
  <path d="M12,33h2c.55273,0,1-.44727,1-1s-.44727-1-1-1h-2c-.55273,0-1,.44727-1,1s.44727,1,1,1Z"/>
  <path d="M52,53c.55273,0,1-.44727,1-1s-.44727-1-1-1h-2c-.55273,0-1,.44727-1,1s.44727,1,1,1h2Z"/>
  <path d="M18,53h4c.55273,0,1-.44727,1-1s-.44727-1-1-1h-4c-.55273,0-1,.44727-1,1s.44727,1,1,1Z"/>
  <path d="M42,53h4c.55273,0,1-.44727,1-1s-.44727-1-1-1h-4c-.55273,0-1,.44727-1,1s.44727,1,1,1Z"/>
  <path d="M34,53h4c.55273,0,1-.44727,1-1s-.44727-1-1-1h-4c-.55273,0-1,.44727-1,1s.44727,1,1,1Z"/>
  <path d="M26,53h4c.55273,0,1-.44727,1-1s-.44727-1-1-1h-4c-.55273,0-1,.44727-1,1s.44727,1,1,1Z"/>
  <path d="M12,53h2c.55273,0,1-.44727,1-1s-.44727-1-1-1h-2c-.55273,0-1,.44727-1,1s.44727,1,1,1Z"/>
</svg>