<?xml version="1.0" encoding="UTF-8"?>
<svg id="Outline" xmlns="http://www.w3.org/2000/svg" version="1.1" viewBox="0 0 64 64">
  <!-- Generator: Adobe Illustrator 29.5.1, SVG Export Plug-In . SVG Version: 2.1.0 Build 141)  -->
  <path d="M53,33v-9c0-1.65-1.35-3-3-3h-2.49c.14-.35.21-.72.21-1.1,0-.8-.31-1.55-.87-2.12l-9.9-9.89c-.56-.57-1.31-.89-2.11-.89h-.01c-.8,0-1.56.31-2.13.88l-13.11,13.12h-7.59c-2.76,0-5,2.24-5,5v26c0,2.76,2.24,5,5,5h38c1.65,0,3-1.35,3-3v-5c2.21,0,4-1.79,4-4v-8c0-2.21-1.79-4-4-4ZM45.43,19.2c.19.19.29.44.29.7s-.1.51-.29.7l-4.39,4.4h-2.83l6.51-6.51.71.71ZM43.31,17.08l-7.92,7.92h-2.84l9.35-9.34,1.41,1.42ZM18.57,24.85l15.55-15.55c.19-.2.45-.26.71-.3.26,0,.51.1.7.3l4.95,4.95-10.75,10.75h-11.28c.04-.05.07-.11.12-.15ZM12,23h5.59l-.44.43c-.43.43-.69.99-.79,1.57h-4.36c-.55,0-1,.45-1,1s.45,1,1,1h36c.55,0,1-.45,1-1s-.45-1-1-1h-4.14l2-2h4.14c.55,0,1,.45,1,1v5.18c-.31-.11-.65-.18-1-.18H12c-.79,0-1.55-.31-2.12-.87-.57-.58-.88-1.33-.88-2.13,0-1.65,1.35-3,3-3ZM51,51h-1c-.55,0-1,.45-1,1s.45,1,1,1h1v1c0,.55-.45,1-1,1H12c-1.65,0-3-1.35-3-3v-22.03c.87.66,1.91,1.03,3,1.03h38c.55,0,1,.45,1,1v1h-1c-.55,0-1,.45-1,1s.45,1,1,1h1v4h-5c-1.65,0-3,1.35-3,3v4c0,1.65,1.35,3,3,3h5v2ZM55,45c0,1.1-.9,2-2,2h-7c-.55,0-1-.45-1-1v-4c0-.55.45-1,1-1h7c.73,0,1.41-.21,2-.56v4.56ZM53,39v-4c1.1,0,2,.9,2,2s-.9,2-2,2Z"/>
  <path d="M52,43h-4c-.553,0-1,.448-1,1s.447,1,1,1h4c.553,0,1-.448,1-1s-.447-1-1-1Z"/>
  <path d="M22,51h-4c-.553,0-1,.448-1,1s.447,1,1,1h4c.553,0,1-.448,1-1s-.447-1-1-1Z"/>
  <path d="M30,51h-4c-.553,0-1,.448-1,1s.447,1,1,1h4c.553,0,1-.448,1-1s-.447-1-1-1Z"/>
  <path d="M38,51h-4c-.553,0-1,.448-1,1s.447,1,1,1h4c.553,0,1-.448,1-1s-.447-1-1-1Z"/>
  <path d="M42,51c-.553,0-1,.448-1,1s.447,1,1,1h4c.553,0,1-.448,1-1s-.447-1-1-1h-4Z"/>
  <path d="M14,51h-1v-1c0-.552-.447-1-1-1s-1,.448-1,1v2c0,.552.447,1,1,1h2c.553,0,1-.448,1-1s-.447-1-1-1Z"/>
  <path d="M12,46.333c.553,0,1-.448,1-1v-4.667c0-.552-.447-1-1-1s-1,.448-1,1v4.667c0,.552.447,1,1,1Z"/>
  <path d="M14,33h-2c-.553,0-1,.448-1,1v2c0,.552.447,1,1,1s1-.448,1-1v-1h1c.553,0,1-.448,1-1s-.447-1-1-1Z"/>
  <path d="M38,33h-4c-.553,0-1,.448-1,1s.447,1,1,1h4c.553,0,1-.448,1-1s-.447-1-1-1Z"/>
  <path d="M22,33h-4c-.553,0-1,.448-1,1s.447,1,1,1h4c.553,0,1-.448,1-1s-.447-1-1-1Z"/>
  <path d="M42,35h4c.553,0,1-.448,1-1s-.447-1-1-1h-4c-.553,0-1,.448-1,1s.447,1,1,1Z"/>
  <path d="M30,33h-4c-.553,0-1,.448-1,1s.447,1,1,1h4c.553,0,1-.448,1-1s-.447-1-1-1Z"/>
</svg>