<?xml version="1.0" encoding="UTF-8"?>
<svg id="Outline" xmlns="http://www.w3.org/2000/svg" version="1.1" viewBox="0 0 64 64">
  <!-- Generator: Adobe Illustrator 29.5.1, SVG Export Plug-In . SVG Version: 2.1.0 Build 141)  -->
  <path d="M54,27.009h-11.61l.76-.76c.71-.71.99-1.69.83-2.61.9-.08,1.81-.14,2.71-.16l3.32-.08c.17,0,.32-.05.47-.13l3.81-2.11,1.48-.19c.55-.07.94-.57.87-1.11-.07-.55-.57-.95-1.11-.87l-1.68.21c-.13.01-.25.05-.37.12l-3.76,2.09-3.08.07c-1.36.04-2.72.15-4.08.32-.07-.01-.14.01-.21.02-1.6.2-3.19.49-4.75.86-.1.02-.19.03-.28.07-.31.08-.63.14-.94.22-.1-.37-.1-.75.01-1.11,0-.01.01-.02.01-.03.01-.01.01-.03.02-.05.25-.71.83-1.24,1.57-1.39l5.23-1.04c1.26-.23,2.18-1.35,2.18-2.64,0-.67-.25-1.32-.72-1.83-2.03-2.19-5.16-2.99-7.98-2.04l-2.04.69-1.81-1.81,6.44-2.17c2.69-.92,5.88-.63,8.41.82,2.09,1.19,4.55,1.68,6.93,1.37.55-.07.93-.57.86-1.12s-.57-.93-1.12-.86c-1.95.25-3.96-.15-5.67-1.13-3.03-1.73-6.84-2.08-10.05-.98l-7.28,2.46c-.03.01-.06.02-.09.04l-2.28-2.29c-1.17-1.16-3.07-1.16-4.25.01l-9.9,9.9c-1.16,1.17-1.16,3.07,0,4.24l5.01,5h-9.86c-1.65,0-3,1.35-3,3v5c0,.55.45,1,1,1s1-.45,1-1v-2h1c.55,0,1-.45,1-1s-.45-1-1-1h-1v-1c0-.55.45-1,1-1h44c.55,0,1,.45,1,1v1h-1c-.55,0-1,.45-1,1s.45,1,1,1h1v4h-3c-2.76,0-5,2.24-5,5s2.24,5,5,5h3v4h-1c-.55,0-1,.45-1,1s.45,1,1,1h1v1c0,.55-.45,1-1,1H10c-.55,0-1-.45-1-1v-1h1c.55,0,1-.45,1-1s-.45-1-1-1h-1v-8c0-.55-.45-1-1-1s-1,.45-1,1v11c0,1.65,1.35,3,3,3h44c1.65,0,3-1.35,3-3v-24c0-1.65-1.35-3-3-3ZM37.34,14.739c2.08-.7,4.38-.11,5.87,1.49.13.14.19.3.19.48,0,.28-.17.61-.55.68l-3.61.71-3-2.99,1.1-.37ZM26.16,9.279c.4-.4,1.03-.4,1.42,0l2.75,2.74,6.6,6.61c-.64.24-1.21.65-1.66,1.17l-9.81-9.81.7-.71ZM22.68,27.009l-6.41-6.42c-.4-.39-.4-1.02,0-1.41l4.95-4.95,12.78,12.78h-11.32ZM39.56,27.009h-2.74l-14.19-14.19,1.42-1.42,10.33,10.33c-.12.67-.08,1.34.12,1.94.153.611.669,1.076,1.25,1.27.306.102.692.086,1,0,.23-.06.45-.1.68-.16l2.18,2.18-.05.05ZM41.73,24.839l-.71.71-1.29-1.29c.75-.15,1.5-.28,2.25-.38.09.33.01.7-.25.96ZM55,45.009h-3c-1.65,0-3-1.35-3-3s1.35-3,3-3h3v6Z"/>
  <path d="M14,33.009h4c.552,0,1-.448,1-1s-.448-1-1-1h-4c-.552,0-1,.448-1,1s.448,1,1,1Z"/>
  <path d="M46,33.009h4c.552,0,1-.448,1-1s-.448-1-1-1h-4c-.552,0-1,.448-1,1s.448,1,1,1Z"/>
  <path d="M38,33.009h4c.552,0,1-.448,1-1s-.448-1-1-1h-4c-.552,0-1,.448-1,1s.448,1,1,1Z"/>
  <path d="M22,33.009h4c.552,0,1-.448,1-1s-.448-1-1-1h-4c-.552,0-1,.448-1,1s.448,1,1,1Z"/>
  <path d="M30,33.009h4c.552,0,1-.448,1-1s-.448-1-1-1h-4c-.552,0-1,.448-1,1s.448,1,1,1Z"/>
  <path d="M38,53.009h4c.552,0,1-.448,1-1s-.448-1-1-1h-4c-.552,0-1,.448-1,1s.448,1,1,1Z"/>
  <path d="M46,53.009h4c.552,0,1-.448,1-1s-.448-1-1-1h-4c-.552,0-1,.448-1,1s.448,1,1,1Z"/>
  <path d="M22,53.009h4c.552,0,1-.448,1-1s-.448-1-1-1h-4c-.552,0-1,.448-1,1s.448,1,1,1Z"/>
  <path d="M30,53.009h4c.552,0,1-.448,1-1s-.448-1-1-1h-4c-.552,0-1,.448-1,1s.448,1,1,1Z"/>
  <path d="M14,53.009h4c.552,0,1-.448,1-1s-.448-1-1-1h-4c-.552,0-1,.448-1,1s.448,1,1,1Z"/>
  <circle cx="52" cy="42.009" r="1"/>
  <circle cx="8" cy="39.009" r="1"/>
</svg>