<?xml version="1.0" encoding="UTF-8"?>
<svg id="Outline" xmlns="http://www.w3.org/2000/svg" version="1.1" viewBox="0 0 64 64">
  <!-- Generator: Adobe Illustrator 29.0.0, SVG Export Plug-In . SVG Version: 2.1.0 Build 186)  -->
  <circle cx="50" cy="35" r="1"/>
  <path d="M56,30h-1v-8c0-1.65002-1.34998-3-3-3h-5v-3c0-1.65002-1.34998-3-3-3H10c-1.65002,0-3,1.34998-3,3v32c0,1.64996,1.34998,3,3,3h42c1.65002,0,3-1.35004,3-3v-8h1c.54999,0,1-.45001,1-1v-8c0-.54999-.45001-1-1-1ZM9,16c0-.54999.45001-1,1-1h34c.54999,0,1,.45001,1,1v3H10c-.34998,0-.69.07001-1,.17999v-3.17999ZM53,45h-10c-.54999,0-1,.45001-1,1s.45001,1,1,1h10v1c0,.54999-.45001,1-1,1H10c-.54999,0-1-.45001-1-1v-1h30c.54999,0,1-.45001,1-1s-.45001-1-1-1H9v-20h7c.54999,0,1-.45001,1-1s-.45001-1-1-1h-7v-1c0-.54999.45001-1,1-1h42c.54999,0,1,.45001,1,1v1H20c-.54999,0-1,.45001-1,1s.45001,1,1,1h33v5h-3c-2.76001,0-5,2.23999-5,5s2.23999,5,5,5h3v5ZM55,38h-5c-1.65002,0-3-1.35004-3-3s1.34998-3,3-3h5v6Z"/>
</svg>