<?xml version="1.0" encoding="UTF-8"?>
<svg id="Outline" xmlns="http://www.w3.org/2000/svg" version="1.1" viewBox="0 0 64 64">
  <!-- Generator: Adobe Illustrator 29.5.1, SVG Export Plug-In . SVG Version: 2.1.0 Build 141)  -->
  <path d="M55,37h-1v-7c0-1.65-1.35-3-3-3h-5v-7c0-1.65-1.35-3-3-3h-6v-2h5c.55,0,1-.45,1-1v-3c0-2.21-1.79-4-4-4h-18c-2.21,0-4,1.79-4,4v6h-2.76c-1.71,0-3.37.71-4.56,1.95-1.08,1.11-1.66,2.53-1.67,4.01,0,.01-.01.03-.01.04v27c0,3.86,3.14,7,7,7h36c1.65,0,3-1.35,3-3v-7h1c.55,0,1-.45,1-1v-8c0-.55-.45-1-1-1ZM37,11c0-1.1.9-2,2-2s2,.9,2,2v2h-4v-2ZM19,11c0-1.1.9-2,2-2h14.56c-.35.59-.56,1.27-.56,2v10c0,.55.45,1,1,1s1-.45,1-1v-2h6c.55,0,1,.45,1,1v7h-7v-2c0-.55-.45-1-1-1s-1,.45-1,1v2h-2v-15c0-.55-.45-1-1-1h-10c-.55,0-1,.45-1,1v15h-2V11ZM27,25c-2.21,0-4-1.35-4-3s1.79-3,4-3,4,1.35,4,3-1.79,3-4,3ZM31,25.72v1.28h-8v-1.28c1.06.79,2.46,1.28,4,1.28s2.94-.49,4-1.28ZM27,17c-1.54,0-2.94.49-4,1.28v-5.28h8v5.28c-1.06-.79-2.46-1.28-4-1.28ZM11.12,20.34c.82-.85,1.95-1.34,3.12-1.34h2.76v8h-3c-1.07,0-2.07-.42-2.83-1.16-.72-.73-1.13-1.68-1.17-2.69-.03-1.03.36-2.03,1.12-2.81ZM52,51H16c-1.1,0-2-.9-2-2v-16h28c.55,0,1-.45,1-1s-.45-1-1-1H13c-.55,0-1,.45-1,1v17c0,2.21,1.79,4,4,4h36v1c0,.55-.45,1-1,1H15c-2.76,0-5-2.24-5-5v-22.53c1.11.98,2.51,1.53,4,1.53h37c.55,0,1,.45,1,1v1h-6c-.55,0-1,.45-1,1s.45,1,1,1h6v4h-1c-2.76,0-5,2.24-5,5s2.24,5,5,5h1v4ZM54,45h-3c-1.65,0-3-1.35-3-3s1.35-3,3-3h3v6Z"/>
  <circle cx="51" cy="42" r="1"/>
</svg>