<?xml version="1.0" encoding="UTF-8"?>
<svg id="Outline" xmlns="http://www.w3.org/2000/svg" version="1.1" viewBox="0 0 48 48">
  <!-- Generator: Adobe Illustrator 29.0.0, SVG Export Plug-In . SVG Version: 2.1.0 Build 186)  -->
  <path d="M40,18.86976h-3v-3c0-1.65002-1.34998-3-3-3h-2c0-1.65002-1.34998-3-3-3h-1.58002l-.31-2.16003c-.22998-1.63995-1.75-2.77997-3.39001-2.54999l-11.87994,1.69c-1.64001.22998-2.78003,1.75-2.55005,3.39001l.37,2.63h-1.65997c-1.65002,0-3,1.34998-3,3v24c0,1.64996,1.34998,3,3,3h7c.54999,0,1-.45001,1-1s-.45001-1-1-1h-7c-.54999,0-1-.45001-1-1v-18c0-.54999.45001-1,1-1h32c.54999,0,1,.45001,1,1v2h-5c-3.85999,0-7,3.14001-7,7s3.14001,7,7,7h5v2c0,.54999-.45001,1-1,1h-21c-.54999,0-1,.45001-1,1s.45001,1,1,1h21c1.65002,0,3-1.35004,3-3v-18c0-1.65002-1.34998-3-3-3ZM8,18.86976c-.34998,0-.69.07001-1,.17999v-3.17999c0-.54999.45001-1,1-1h1.95001l.57001,4h-2.52002ZM30,18.86976h-14v-6c0-.54999.45001-1,1-1h3c.54999,0,1-.45001,1-1s-.45001-1-1-1h-3c-1.65002,0-3,1.34998-3,3v6h-1.46002l-1.26996-8.91003c-.08002-.54999.31-1.04999.84998-1.13l11.88-1.69c.54999-.07996,1.04999.30005,1.13.85004l.27002,1.88h-1.40002c-.54999,0-1,.45001-1,1s.45001,1,1,1h5c.54999,0,1,.45001,1,1v6ZM35,18.86976h-3v-4h2c.54999,0,1,.45001,1,1v3ZM41,35.86976h-5c-2.76001,0-5-2.23999-5-5s2.23999-5,5-5h5v10Z"/>
  <path d="M36,27.86976c-1.6543,0-3,1.3457-3,3s1.3457,3,3,3,3-1.3457,3-3-1.3457-3-3-3ZM36,31.86976c-.55176,0-1-.44873-1-1s.44824-1,1-1,1,.44873,1,1-.44824,1-1,1Z"/>
</svg>