<?xml version="1.0" encoding="UTF-8"?>
<svg id="Outline" xmlns="http://www.w3.org/2000/svg" version="1.1" viewBox="0 0 64 64">
  <!-- Generator: Adobe Illustrator 29.5.1, SVG Export Plug-In . SVG Version: 2.1.0 Build 141)  -->
  <path d="M56,7H8c-.55,0-1,.45-1,1v4c0,.55.45,1,1,1h23v2H8c-.55,0-1,.45-1,1s.45,1,1,1h7.18c-.11.31-.18.65-.18,1,0,.55.45,1,1,1s1-.45,1-1,.45-1,1-1,1,.45,1,1c0,.32-.15.62-.41.81-1.01.74-1.59,1.81-1.59,2.93v.26h-6c-.35,0-.68.18-.86.49l-3,5c-.23.39-.17.89.15,1.22l3.71,3.7v5.59c0,.55.45,1,1,1h12c.55,0,1-.45,1-1v-5.59l3.71-3.7c.32-.33.38-.83.15-1.22l-3-5c-.18-.31-.51-.49-.86-.49h-6v-.26c0-.66.48-1.11.77-1.32.77-.56,1.23-1.47,1.23-2.42,0-.35-.07-.69-.18-1h10.18v24H8c-.55,0-1,.45-1,1v10c0,.55.45,1,1,1h2.44l2.18,3.53c.18.29.5.47.85.47h37.06c.35,0,.67-.18.85-.47l2.18-3.53h2.44c.55,0,1-.45,1-1V8c0-.55-.45-1-1-1ZM22.9,24h1.53l2.31,3.85-1.74,1.74v-1.59c0-.55-.45-1-1-1s-1,.45-1,1v9h-10v-9c0-.55-.45-1-1-1s-1,.45-1,1v1.59l-1.74-1.74,2.31-3.85h1.53c.47,2.28,2.49,4,4.9,4s4.43-1.72,4.9-4ZM20.82,24c-.42,1.16-1.52,2-2.82,2s-2.4-.84-2.82-2h5.64ZM33,9h10v34h-10V9ZM9,11v-2h22v2H9ZM12,45c-.55,0-1,.45-1,1v5h-2v-8h22v8h-2v-5c0-.55-.45-1-1-1H12ZM27,47v4h-14v-4h14ZM49.97,55H14.03l-1.24-2h38.42l-1.24,2ZM55,51h-22v-6h22v6ZM55,43h-10V9h10v34Z"/>
  <path d="M45,47h-2c-.552,0-1,.448-1,1s.448,1,1,1h2c.552,0,1-.448,1-1s-.448-1-1-1Z"/>
</svg>