<?xml version="1.0" encoding="UTF-8"?>
<svg id="Outline" xmlns="http://www.w3.org/2000/svg" version="1.1" viewBox="0 0 64 64">
  <!-- Generator: Adobe Illustrator 29.3.1, SVG Export Plug-In . SVG Version: 2.1.0 Build 151)  -->
  <path d="M56,26c.54999,0,1-.45001,1-1v-3.76001c0-1.15002-.64001-2.17999-1.65997-2.69l-22.89001-11.44c-.28003-.15002-.62-.15002-.90002,0l-22.89001,11.44c-1.01996.51001-1.65997,1.53998-1.65997,2.69v33.76001c0,1.09998.90002,2,2,2h4c1.09998,0,2-.90002,2-2v-1h34v1c0,1.09998.90002,2,2,2h4c1.09998,0,2-.90002,2-2v-26c0-.54999-.45001-1-1-1s-1,.45001-1,1v26h-4v-26c0-1.65002-1.34998-3-3-3H16c-1.65002,0-3,1.34998-3,3v10c0,.54999.45001,1,1,1s1-.45001,1-1v-3h34v16h-2v-10c0-1.10004-.90002-2-2-2h-26c-1.09998,0-2,.89996-2,2v10h-2v-9c0-.54999-.45001-1-1-1s-1,.45001-1,1v12h-4V21.23999c0-.39001.21002-.72998.54999-.90002l22.45001-11.21997,22.45001,11.21997c.33997.17004.54999.51001.54999.90002v3.76001c0,.54999.45001,1,1,1ZM15,29c0-.54999.45001-1,1-1h32c.54999,0,1,.45001,1,1v1H15v-1ZM15,34v-2h34v2H15ZM37,42h4v2.60999l-1.67999-.56c-.10999-.03003-.21002-.04999-.32001-.04999s-.21002.01996-.32001.04999l-1.67999.56v-2.60999ZM33,42h2v4c0,.32001.15002.62.41998.81.26001.19.59003.23999.90002.14001l2.67999-.90002,2.67999.90002c.10999.02997.21002.04999.32001.04999.21002,0,.40997-.06.58002-.19.26996-.19.41998-.48999.41998-.81v-4h2v10h-12v-10ZM23,42h4v2.60999l-1.67999-.56c-.10999-.03003-.21002-.04999-.32001-.04999s-.21002.01996-.32001.04999l-1.67999.56v-2.60999ZM19,42h2v4c0,.32001.15002.62.41998.81.26001.19.59003.23999.90002.14001l2.67999-.90002,2.67999.90002c.10999.02997.21002.04999.32001.04999.21002,0,.40997-.06.58002-.19.26996-.19.41998-.48999.41998-.81v-4h2v10h-12v-10Z"/>
  <path d="M20,18c-.55225,0-1,.44775-1,1v4c0,.55225.44775,1,1,1h24c.55225,0,1-.44775,1-1v-4c0-.55225-.44775-1-1-1h-24ZM33,20h4v2h-4v-2ZM31,22h-4v-2h4v2ZM21,20h4v2h-4v-2ZM43,22h-4v-2h4v2Z"/>
</svg>