<?xml version="1.0" encoding="UTF-8"?>
<svg id="Outline" xmlns="http://www.w3.org/2000/svg" version="1.1" viewBox="0 0 64 64">
  <!-- Generator: Adobe Illustrator 29.5.1, SVG Export Plug-In . SVG Version: 2.1.0 Build 141)  -->
  <path d="M56,30c.55,0,1-.45,1-1v-10c0-.4-.23-.75-.59-.91l-18-8c-.13-.06-.27-.09-.41-.09h-12c-.01,0-.03.01-.04.01-.13,0-.25.03-.36.07l-.01.01L7.59,18.09c-.36.16-.59.51-.59.91v34c0,.55.45,1,1,1h48c.55,0,1-.45,1-1v-16c0-.55-.45-1-1-1s-1,.45-1,1v15h-10V20h10v9c0,.55.45,1,1,1ZM33,52h-14v-10h2v5c0,.35.18.67.47.85.3.18.67.2.98.04l3.55-1.77,3.55,1.77c.14.07.3.11.449.11.54,0,1.001-.465,1.001-1v-5h2v10ZM23,45.38v-3.38h6v3.38l-2.55-1.27c-.14-.07-.3-.11-.45-.11s-.31.04-.45.11l-2.55,1.27ZM39,52h-4v-11c0-.55-.45-1-1-1h-16c-.55,0-1,.45-1,1v11h-4v-14h26v14ZM39,36H13v-2h26v2ZM39,32H13v-2h26v2ZM43,52h-2v-23c0-.55-.45-1-1-1H12c-.55,0-1,.45-1,1v23h-2V19.65l17-7.56,17,7.56v32.35ZM44.21,18l-13.5-6h7.08l13.5,6h-7.08Z"/>
  <path d="M12,26h28c.552,0,1-.447,1-1v-4c0-.553-.448-1-1-1H12c-.552,0-1,.447-1,1v4c0,.553.448,1,1,1ZM13,22h26v2H13v-2Z"/>
  <circle cx="56" cy="33" r="1"/>
</svg>