<?xml version="1.0" encoding="UTF-8"?>
<svg id="Outline" xmlns="http://www.w3.org/2000/svg" version="1.1" viewBox="0 0 64 64">
  <!-- Generator: Adobe Illustrator 29.5.1, SVG Export Plug-In . SVG Version: 2.1.0 Build 141)  -->
  <path d="M20,53.5h4c.553,0,1-.447,1-1s-.447-1-1-1h-4c-.553,0-1,.447-1,1s.447,1,1,1Z"/>
  <path d="M56.656,28.326l-9.768-19.541c-.551-1.102-1.658-1.785-2.889-1.785s-2.338.684-2.889,1.785l-4.111,8.225v-2.01c0-3.309-2.691-6-6-6H13c-3.309,0-6,2.691-6,6v36c0,3.309,2.691,6,6,6h18c3.309,0,6-2.691,6-6v-7c0-.553-.447-1-1-1s-1,.447-1,1v4H9V16h7.586l1.707,1.707c.188.188.441.293.707.293h6c.266,0,.52-.105.707-.293l1.707-1.707h7.586v5.011l-3.656,7.315c-.504,1.009-.451,2.183.142,3.143.593.959,1.62,1.531,2.747,1.531h.768v7c0,.553.447,1,1,1s1-.447,1-1v-7h7c.553,0,1-.447,1-1s-.447-1-1-1h-9.768c-.436,0-.816-.213-1.046-.583-.229-.371-.249-.807-.054-1.196l9.768-19.541c.213-.426.624-.68,1.1-.68s.887.254,1.1.68l9.768,19.541c.195.39.175.825-.054,1.196-.229.37-.61.583-1.046.583h-5.768c-.553,0-1,.447-1,1s.447,1,1,1h5.768c1.127,0,2.154-.572,2.747-1.531.593-.96.646-2.134.142-3.143ZM35,50v1c0,2.206-1.794,4-4,4H13c-2.206,0-4-1.794-4-4v-1h26ZM27,14c-.266,0-.52.105-.707.293l-1.707,1.707h-5.172l-1.707-1.707c-.188-.188-.441-.293-.707-.293h-7.858c.447-1.721,1.999-3,3.858-3h18c1.859,0,3.411,1.279,3.858,3h-7.858Z"/>
  <circle cx="44" cy="28" r="1"/>
  <path d="M44,14c-.553,0-1,.447-1,1v9c0,.553.447,1,1,1s1-.447,1-1v-9c0-.553-.447-1-1-1Z"/>
  <path d="M30,39h-.43l-.14-.23c-1.59-2.65-2.43-5.68-2.43-8.77,0-1.85-1.02-3.45-2.52-4.32.33-.48.52-1.06.52-1.68,0-1.65-1.35-3-3-3s-3,1.35-3,3c0,.62.19,1.2.52,1.68-1.5.87-2.52,2.47-2.52,4.32,0,3.09-.84,6.12-2.43,8.77l-.14.23h-.43c-.55,0-1,.45-1,1s.45,1,1,1h4c0,2.21,1.79,4,4,4s4-1.79,4-4h4c.55,0,1-.45,1-1s-.45-1-1-1ZM22,23c.55,0,1,.45,1,1s-.45,1-1,1-1-.45-1-1,.45-1,1-1ZM22,43c-1.1,0-2-.9-2-2h4c0,1.1-.9,2-2,2ZM16.74,39c1.48-2.76,2.26-5.86,2.26-9,0-1.65,1.35-3,3-3s3,1.35,3,3c0,3.14.78,6.24,2.26,9h-10.52Z"/>
</svg>