<?xml version="1.0" encoding="UTF-8"?>
<svg id="Outline" xmlns="http://www.w3.org/2000/svg" version="1.1" viewBox="0 0 64 64">
  <!-- Generator: Adobe Illustrator 29.0.0, SVG Export Plug-In . SVG Version: 2.1.0 Build 186)  -->
  <path d="M49,31.58997V11.5c0-1.65002-1.34998-3-3-3h-20c-.54999,0-1,.45001-1,1s.45001,1,1,1h20c.54999,0,1,.45001,1,1v9.38l-4.91998,2.46997c-.54004-.52997-1.27002-.84998-2.08002-.84998-.98999,0-1.87.48999-2.40997,1.22998l-4.61005-1.38c-.07996-1.58002-1.38-2.84998-2.97998-2.84998-1.65002,0-3,1.34998-3,3,0,.45996.10999.89001.29999,1.28998l-3.01001,3.01001c-.39996-.19-.82996-.29999-1.28998-.29999-1.65002,0-3,1.34998-3,3s1.34998,3,3,3,3-1.35004,3-3c0-.46002-.10999-.89001-.29999-1.29004l3.01001-3.00995c.39996.19.82996.29999,1.28998.29999.98999,0,1.87-.48999,2.40997-1.23004l4.61005,1.38c.07996,1.58002,1.38,2.85004,2.97998,2.85004,1.65002,0,3-1.35004,3-3,0-.12-.02002-.23999-.03998-.35999l4.03998-2.02002v8.38c-5.70001,0-10,2.14996-10,5H10c-.54999,0-1-.45001-1-1V11.5c0-.54999.45001-1,1-1h8c.54999,0,1-.45001,1-1s-.45001-1-1-1h-8c-1.65002,0-3,1.34998-3,3v24c0,1.64996,1.34998,3,3,3h27v12c0,2.84998,4.29999,5,10,5s10-2.15002,10-5v-14c0-2.51001-3.32001-4.47003-8-4.91003ZM23,30.5c-.54999,0-1-.45001-1-1s.45001-1,1-1,1,.45001,1,1-.45001,1-1,1ZM30,23.5c-.54999,0-1-.45001-1-1s.45001-1,1-1,1,.45001,1,1-.45001,1-1,1ZM40,26.5c-.54999,0-1-.45001-1-1s.45001-1,1-1,1,.45001,1,1-.45001,1-1,1ZM55,50.5c0,1.21997-3.12,3-8,3s-8-1.78003-8-3v-3.94c1.78998,1.19,4.65002,1.94,8,1.94s6.21002-.75,8-1.94v3.94ZM55,43.5c0,1.21997-3.12,3-8,3s-8-1.78003-8-3v-3.94c1.78998,1.19,4.65002,1.94,8,1.94s6.21002-.75,8-1.94v3.94ZM47,39.5c-4.88,0-8-1.78003-8-3,0-1.22003,3.12-3,8-3,.34003,0,.65997.01001.97998.02997h.03003c4.29999.22003,6.98999,1.83002,6.98999,2.97003,0,1.21997-3.12,3-8,3Z"/>
  <path d="M18.99023,15.74902c.06836-.83398-.2168-1.66504-.7832-2.28125-.56641-.61523-1.37109-.96777-2.20703-.96777h-1.65332c-.83594,0-1.64062.35254-2.20703.96777-.56641.61621-.85156,1.44727-.78223,2.28125l.66699,8.00098c.12891,1.54199,1.44238,2.75,2.98926,2.75h.31934c1.54883,0,2.8623-1.20898,2.98926-2.75098l.66797-8ZM16.3291,23.58301c-.04199.51465-.47949.91699-.99609.91699h-.31934c-.52441,0-.95312-.39453-.99707-.91699l-.66602-8c-.02344-.28223.06836-.55176.26074-.76074.19141-.20801.45215-.32227.73535-.32227h1.65332c.2832,0,.54395.11426.73535.32227.19238.20898.28418.47852.26172.76074l-.66797,8Z"/>
  <path d="M15.17383,28.5c-1.6543,0-3,1.3457-3,3s1.3457,3,3,3,3-1.3457,3-3-1.3457-3-3-3ZM15.17383,32.5c-.55176,0-1-.44824-1-1s.44824-1,1-1,1,.44824,1,1-.44824,1-1,1Z"/>
  <circle cx="22" cy="9.5" r="1"/>
</svg>