<?xml version="1.0" encoding="UTF-8"?>
<svg id="Outline" xmlns="http://www.w3.org/2000/svg" version="1.1" viewBox="0 0 64 64">
  <!-- Generator: Adobe Illustrator 29.5.1, SVG Export Plug-In . SVG Version: 2.1.0 Build 141)  -->
  <path d="M47.505,35.331c2.47-1.728,3.509-4.924,2.526-7.774-.347-1.006-.347-2.115,0-3.121.983-2.851-.056-6.047-2.526-7.774-.873-.61-1.525-1.508-1.835-2.526-.879-2.884-3.573-4.85-6.613-4.805-1.035.049-2.119-.323-2.97-.966-2.406-1.814-5.767-1.815-8.174,0-.851.642-1.921,1.012-2.969.965-3.016-.078-5.733,1.921-6.613,4.805-.311,1.019-.962,1.916-1.835,2.526-2.47,1.728-3.509,4.924-2.526,7.774.347,1.006.347,2.115,0,3.121-.983,2.851.056,6.047,2.526,7.774.873.61,1.525,1.508,1.835,2.526.042.136.107.26.156.392-2.888,3.706-4.487,8.292-4.487,12.999v4.748c0,.369.203.708.528.882.324.174.719.153,1.026-.05l2.445-1.63,2.445,1.63c.167.111.361.168.555.168.545,0,1-.452,1-1v-2.876c0-3.626.851-7.234,2.447-10.487.166.008.329.033.496.029,1.05-.029,2.119.324,2.97.966,1.203.907,2.645,1.36,4.087,1.36s2.884-.453,4.087-1.361c.851-.641,1.933-.996,2.969-.965.167.003.329-.023.495-.032,1.597,3.254,2.449,6.863,2.449,10.49v2.876c0,.369.203.708.528.882.324.174.719.153,1.026-.05l2.445-1.63,2.445,1.63c.167.111.361.168.554.168.546,0,1-.454,1-1v-4.748c0-4.707-1.599-9.293-4.486-12.998.05-.132.115-.256.156-.392.311-1.019.962-1.916,1.835-2.526ZM20,53.12v1.008l-1.445-.964c-.336-.225-.773-.225-1.109,0l-1.445.964v-2.88c0-3.988,1.264-7.88,3.568-11.115.759.932,1.746,1.65,2.861,2.077-1.587,3.406-2.429,7.15-2.429,10.91ZM34.883,42.031c-1.697,1.281-4.069,1.28-5.765,0-1.174-.886-2.622-1.37-4.09-1.37-.069,0-.139.003-.207.002-2.091,0-3.966-1.383-4.578-3.39-.44-1.444-1.365-2.716-2.602-3.581-1.743-1.219-2.475-3.474-1.782-5.483.492-1.427.492-2.999,0-4.426-.693-2.01.039-4.265,1.782-5.483,1.237-.865,2.162-2.137,2.602-3.581.612-2.007,2.486-3.39,4.578-3.39.028,0,.057,0,.086,0,1.537.037,3.005-.459,4.21-1.368,1.697-1.281,4.068-1.281,5.766,0,1.206.909,2.708,1.406,4.21,1.368,2.139-.07,4.044,1.354,4.664,3.389.44,1.444,1.365,2.716,2.602,3.581,1.743,1.219,2.475,3.474,1.782,5.483-.492,1.427-.492,2.999,0,4.426.693,2.01-.039,4.265-1.782,5.483-1.237.865-2.162,2.137-2.602,3.581-.621,2.034-2.509,3.423-4.664,3.389-1.521-.03-3.004.459-4.21,1.368ZM48,51.248v2.88l-1.445-.964c-.336-.225-.773-.225-1.109,0l-1.445.964v-1.008c0-3.762-.843-7.509-2.432-10.916,1.122-.426,2.108-1.14,2.865-2.07,2.303,3.234,3.567,7.127,3.567,11.114Z"/>
  <path d="M45.213,32.053c1.015-.708,1.441-2.021,1.037-3.191-.638-1.848-.638-3.883,0-5.73.404-1.171-.022-2.483-1.037-3.191-1.602-1.12-2.799-2.768-3.37-4.638-.36-1.18-1.443-1.973-2.707-1.973l-.167.002c-1.897,0-3.777-.63-5.291-1.772-.616-.465-1.252-.562-1.679-.562s-1.063.098-1.678.562c-1.515,1.143-3.394,1.772-5.283,1.772l-.22-.002c-1.233,0-2.304.793-2.663,1.973-.571,1.87-1.768,3.518-3.369,4.638-1.015.708-1.441,2.021-1.037,3.191.638,1.848.638,3.883,0,5.73-.404,1.171.022,2.483,1.037,3.191,1.602,1.12,2.799,2.768,3.37,4.638.36,1.18,1.443,1.973,2.707,1.973l.167-.002c1.897,0,3.777.63,5.291,1.772.616.465,1.252.562,1.679.562s1.063-.098,1.678-.562c1.515-1.143,3.394-1.772,5.282-1.772l.22.002c1.234,0,2.304-.793,2.664-1.973.571-1.87,1.768-3.518,3.369-4.638ZM39.931,36.108c-.103.338-.397.556-.741.556l-.22-.002c-2.33,0-4.637.772-6.497,2.177-.277.211-.668.209-.946,0-1.859-1.403-4.167-2.177-6.507-2.177l-.167.002c-.378,0-.678-.213-.783-.557-.701-2.296-2.17-4.317-4.137-5.692-.286-.2-.406-.57-.292-.9.783-2.269.783-4.767,0-7.035-.114-.33.006-.7.292-.9,1.966-1.375,3.436-3.396,4.136-5.693.103-.338.397-.556.741-.556l.22.002c2.33,0,4.637-.772,6.498-2.177.277-.211.668-.209.946,0,1.859,1.403,4.167,2.177,6.507,2.177l.167-.002c.378,0,.678.213.783.557.701,2.296,2.17,4.317,4.137,5.692.286.2.406.57.292.9-.783,2.269-.783,4.767,0,7.035.114.33-.006.7-.292.9-1.966,1.375-3.436,3.396-4.136,5.693Z"/>
  <path d="M39.142,20.006l-7-1c-.094-.014-.189-.014-.283,0l-7,1c-.493.07-.858.492-.858.99v3.72c0,4.73,3.177,8.942,7.725,10.242.09.025.183.038.275.038s.185-.013.275-.038c4.548-1.3,7.725-5.512,7.725-10.242v-3.72c0-.498-.366-.92-.858-.99ZM38,24.716c0,3.747-2.453,7.093-6,8.235-3.547-1.143-6-4.488-6-8.235v-2.853l6-.857,6,.857v2.853Z"/>
  <path d="M29.707,25.289c-.391-.391-1.023-.391-1.414,0s-.391,1.023,0,1.414l2,2c.195.195.451.293.707.293s.512-.098.707-.293l4-4c.391-.391.391-1.023,0-1.414s-1.023-.391-1.414,0l-3.293,3.293-1.293-1.293Z"/>
</svg>