<?xml version="1.0" encoding="UTF-8"?>
<svg id="Outline" xmlns="http://www.w3.org/2000/svg" version="1.1" viewBox="0 0 64 64">
  <!-- Generator: Adobe Illustrator 29.5.1, SVG Export Plug-In . SVG Version: 2.1.0 Build 141)  -->
  <path d="M55.79,50.66c-.4.79-.65,1.66-.74,2.54,1.13.43,1.95,1.52,1.95,2.8,0,.55-.45,1-1,1s-1-.45-1-1-.45-1-1-1h-5c-.55,0-1-.45-1-1s.45-1,1-1h4.06c.12-1.12.44-2.23.94-3.24l.21-.42c.52-1.03.79-2.19.79-3.34v-6c0-.55-.45-1-1-1s-1,.45-1,1v4c0,.55-.45,1-1,1s-1-.45-1-1v-5c0-.55-.45-1-1-1s-1,.45-1,1v5c0,.55-.45,1-1,1s-1-.45-1-1v-6c0-.55-.45-1-1-1s-1,.45-1,1v6c0,.55-.45,1-1,1s-1-.45-1-1v-12c0-.55-.45-1-1-1s-1,.45-1,1v12.17c0,.41-.24.77-.62.93-.37.15-.8.07-1.09-.22l-4.58-4.59c-.38-.38-1.04-.38-1.42,0-.39.39-.39,1.03,0,1.42l5.58,6.37c1.21,1.39,1.95,3.11,2.15,4.92h3.98c.55,0,1,.45,1,1s-.45,1-1,1h-5c-.55,0-1,.45-1,1s-.45,1-1,1-1-.45-1-1c0-1.31.85-2.42,2.03-2.83-.16-1.39-.74-2.71-1.67-3.77l-5.53-6.33c-1.12-1.12-1.12-3.02.05-4.19,1.13-1.13,3.11-1.13,4.24,0l2.88,2.88v-8.76H10c-1.65,0-3-1.35-3-3V10c0-1.65,1.35-3,3-3h36c1.65,0,3,1.35,3,3v2c0,.55-.45,1-1,1s-1-.45-1-1v-2c0-.55-.45-1-1-1H10c-.55,0-1,.45-1,1v20c0,.55.45,1,1,1h29.18c.42-1.16,1.52-2,2.82-2s2.4.84,2.82,2h1.18c.55,0,1-.45,1-1v-14c0-.55.45-1,1-1s1,.45,1,1v14c0,1.65-1.35,3-3,3h-1v2.18c.31-.11.65-.18,1-.18,1.07,0,2,.56,2.53,1.4.44-.25.93-.4,1.47-.4,1.07,0,2,.56,2.53,1.4.44-.25.93-.4,1.47-.4,1.65,0,3,1.35,3,3v6c0,1.46-.35,2.93-1,4.24l-.21.42Z"/>
  <path d="M24,20.997c.149.002.302-.03.447-.103l8-4c.339-.17.553-.516.553-.895s-.214-.725-.553-.895l-8-4c-.31-.155-.678-.14-.973.044-.294.183-.474.504-.474.851,0,0,0,8,0,8,0,.57.48.99,1,.997ZM25,13.618l4.764,2.382-4.764,2.382v-4.764Z"/>
  <path d="M18,23c-1.302,0-2.402.839-2.816,2h-3.184c-.552,0-1,.447-1,1s.448,1,1,1h3.184c.414,1.161,1.514,2,2.816,2s2.402-.839,2.816-2h23.184c.552,0,1-.447,1-1s-.448-1-1-1h-23.184c-.414-1.161-1.514-2-2.816-2ZM18,27c-.551,0-1-.448-1-1s.449-1,1-1,1,.448,1,1-.449,1-1,1Z"/>
</svg>