<?xml version="1.0" encoding="UTF-8"?>
<svg id="Outline" xmlns="http://www.w3.org/2000/svg" version="1.1" viewBox="0 0 64 64">
  <!-- Generator: Adobe Illustrator 29.5.1, SVG Export Plug-In . SVG Version: 2.1.0 Build 141)  -->
  <path d="M32,25c-.552,0-1,.447-1,1v5.586l-3.95,3.949c-.618.618-.165,1.707.707,1.707.256,0,.512-.098.707-.293l4.243-4.242c.188-.188.293-.441.293-.707v-6c0-.553-.448-1-1-1Z"/>
  <path d="M44,28h-1v-4c0-1.65-1.35-3-3-3v-3c0-.55-.45-1-1-1h-1v-2h1c.55,0,1-.45,1-1v-6c0-.55-.45-1-1-1h-2c-.55,0-1,.45-1,1s.45,1,1,1h1v4h-12v-4h3c.55,0,1-.45,1-1s-.45-1-1-1h-4c-.55,0-1,.45-1,1v6c0,.55.45,1,1,1h1v2h-1c-.55,0-1,.45-1,1v3c-1.65,0-3,1.35-3,3v4h-1c-1.65,0-3,1.35-3,3v2c0,1.65,1.35,3,3,3h1v4c0,1.65,1.35,3,3,3v3c0,.55.45,1,1,1h1v2h-1c-.55,0-1,.45-1,1v6c0,.55.45,1,1,1h14c.55,0,1-.45,1-1v-6c0-.55-.45-1-1-1h-1v-2h1c.55,0,1-.45,1-1v-3c1.65,0,3-1.35,3-3v-4h1c1.65,0,3-1.35,3-3v-2c0-1.65-1.35-3-3-3ZM21,34h-1c-.55,0-1-.45-1-1v-2c0-.55.45-1,1-1h1v4ZM28,15h8v2h-8v-2ZM26,19h12v2h-12v-2ZM38,55h-12v-4h12v4ZM28,49v-2h8v2h-8ZM38,45h-12v-2h12v2ZM41,40c0,.55-.45,1-1,1h-16c-.55,0-1-.45-1-1v-16c0-.55.45-1,1-1h16c.55,0,1,.45,1,1v16ZM45,33c0,.55-.45,1-1,1h-1v-4h1c.55,0,1,.45,1,1v2Z"/>
  <circle cx="33" cy="8" r="1"/>
</svg>