<?xml version="1.0" encoding="UTF-8"?>
<svg id="Outline" xmlns="http://www.w3.org/2000/svg" version="1.1" viewBox="0 0 64 64">
  <!-- Generator: Adobe Illustrator 29.0.0, SVG Export Plug-In . SVG Version: 2.1.0 Build 186)  -->
  <path d="M54,21h-2v-1c0-1.65002-1.34998-3-3-3v-5c0-2.76001-2.23999-5-5-5h-24c-2.76001,0-5,2.23999-5,5v5c-1.65002,0-3,1.34998-3,3v1h-2c-1.65002,0-3,1.34998-3,3v2c0,1.64996,1.34998,3,3,3v3c0,.54999.45001,1,1,1h1.08002l1.91998,23.07996c.04999.52002.47998.92004,1,.92004h10c.52002,0,.95001-.40002,1-.92004l1.91998-23.07996h1.08002c.54999,0,1-.45001,1-1v-3h4v3c0,.54999.45001,1,1,1h1.08002l1.91998,23.07996c.04999.52002.47998.92004,1,.92004h10c.52002,0,.95001-.40002,1-.92004l1.91998-23.07996h1.08002c.54999,0,1-.45001,1-1v-3c1.65002,0,3-1.35004,3-3v-2c0-1.65002-1.34998-3-3-3ZM49,19c.54999,0,1,.45001,1,1v1h-8v-1c0-.54999.45001-1,1-1h6ZM21,17v-4h22v4c-1.65002,0-3,1.34998-3,3v1h-16v-1c0-1.65002-1.34998-3-3-3ZM17,12c0-1.65002,1.34998-3,3-3h24c1.65002,0,3,1.34998,3,3v5h-2v-5c0-.54999-.45001-1-1-1h-24c-.54999,0-1,.45001-1,1v5h-2v-5ZM14,20c0-.54999.45001-1,1-1h6c.54999,0,1,.45001,1,1v1h-8v-1ZM24.08002,55h-8.16003l-1.82996-22h1.90997v3c0,.54999.45001,1,1,1h6c.54999,0,1-.45001,1-1v-3h1.90997l-1.82996,22ZM18,35v-2h4v2h-4ZM48.08002,55h-8.16003l-1.82996-22h1.90997v3c0,.54999.45001,1,1,1h6c.54999,0,1-.45001,1-1v-3h1.90997l-1.82996,22ZM42,35v-2h4v2h-4ZM52,31h-16v-2h16v2ZM55,26c0,.54999-.45001,1-1,1h-30c-.54999,0-1,.45001-1,1s.45001,1,1,1h4v2H12v-2h4c.54999,0,1-.45001,1-1s-.45001-1-1-1h-6c-.54999,0-1-.45001-1-1v-2c0-.54999.45001-1,1-1h44c.54999,0,1,.45001,1,1v2Z"/>
  <circle cx="20" cy="28" r="1"/>
</svg>