<?xml version="1.0" encoding="UTF-8"?>
<svg id="Outline" xmlns="http://www.w3.org/2000/svg" version="1.1" viewBox="0 0 64 64">
  <!-- Generator: Adobe Illustrator 29.0.0, SVG Export Plug-In . SVG Version: 2.1.0 Build 186)  -->
  <path d="M44,26v-2.88c0-1.63-.64001-3.16998-1.78998-4.33002-.78003-.77997-1.21002-1.81-1.21002-2.90997,0-1.59003-1.28998-2.88-2.88-2.88h-.12v-3c0-1.65002-1.34998-3-3-3h-6c-1.65002,0-3,1.34998-3,3v3h-.12c-1.59003,0-2.88,1.28998-2.88,2.88,0,1.09998-.42999,2.13-1.21002,2.90997-1.14996,1.16003-1.78998,2.70001-1.78998,4.33002v2.88c0,1.46997,1.06,2.69,2.46002,2.95001.45996.62994.70996,1.32996.70996,2.04999,0,.71997-.25,1.41998-.70996,2.04999-1.40002.26001-2.46002,1.47998-2.46002,2.95001v18c0,1.64996,1.34998,3,3,3h18c1.65002,0,3-1.35004,3-3v-18c0-1.47003-1.06-2.69-2.46002-2.95001-.45996-.63-.70996-1.33002-.70996-2.04999,0-.72003.25-1.42004.70996-2.04999,1.40002-.26001,2.46002-1.48004,2.46002-2.95001ZM28,10c0-.54999.45001-1,1-1h6c.54999,0,1,.45001,1,1v3h-8v-3ZM42,54c0,.54999-.45001,1-1,1h-18c-.54999,0-1-.45001-1-1v-2.23004c2.53998.78003,6.13,1.23004,10,1.23004s7.46002-.45001,10-1.23004v2.23004ZM42,49.66998c-2.31.82001-6.03998,1.33002-10,1.33002s-7.69-.51001-10-1.33002v-9.34003c2.31-.81995,6.03998-1.32996,10-1.32996s7.69.51001,10,1.32996v9.34003ZM41,35c.54999,0,1,.45001,1,1v2.22998c-2.53998-.77997-6.13-1.22998-10-1.22998s-7.46002.45001-10,1.22998v-2.22998c0-.54999.45001-1,1-1h18ZM35,27c-.54999,0-1,.45001-1,1s.45001,1,1,1h4.21997c-.25995.64001-.38995,1.31-.38995,2s.13,1.35999.38995,2h-14.43994c.25995-.64001.38995-1.31.38995-2s-.13-1.35999-.38995-2h2.21997c.54999,0,1-.45001,1-1s-.45001-1-1-1h-4c-.54999,0-1-.45001-1-1v-2.88c0-1.10004.42999-2.13,1.21002-2.91003,1.14996-1.15997,1.78998-2.69995,1.78998-4.32996,0-.48999.39001-.88.88-.88h12.23999c.48999,0,.88.39001.88.88,0,1.63.64001,3.16998,1.78998,4.32996.78003.78003,1.21002,1.81,1.21002,2.91003v2.88c0,.54999-.45001,1-1,1h-6Z"/>
  <path d="M35,46c0-1.27832-1.52246-3.62012-2.17676-4.56836-.375-.54102-1.27148-.54102-1.64648,0-.6543.94824-2.17676,3.29004-2.17676,4.56836,0,1.6543,1.3457,3,3,3s3-1.3457,3-3ZM31,46.00098c.00879-.30664.4248-1.17676,1-2.14746.57617.9707.99219,1.8418,1,2.14648,0,.55176-.44824,1-1,1-.55078,0-1-.44824-1-.99902Z"/>
  <circle cx="31" cy="28" r="1"/>
</svg>