<?xml version="1.0" encoding="UTF-8"?>
<svg id="Outline" xmlns="http://www.w3.org/2000/svg" version="1.1" viewBox="0 0 48 48">
  <!-- Generator: Adobe Illustrator 29.5.1, SVG Export Plug-In . SVG Version: 2.1.0 Build 141)  -->
  <path d="M21,18.001c0-.553-.447-1-1-1s-1,.447-1,1v4c0,.553.447,1,1,1s1-.447,1-1v-4Z"/>
  <path d="M25,21.001c0-.553-.447-1-1-1s-1,.447-1,1v4c0,.553.447,1,1,1s1-.447,1-1v-4Z"/>
  <path d="M28,18.001c-.553,0-1,.447-1,1v4c0,.553.447,1,1,1s1-.447,1-1v-4c0-.553-.447-1-1-1Z"/>
  <path d="M28,27.001c-.553,0-1,.447-1,1v4c0,.553.447,1,1,1s1-.447,1-1v-4c0-.553-.447-1-1-1Z"/>
  <path d="M22,29.001c-.553,0-1,.447-1,1v4c0,.553.447,1,1,1s1-.447,1-1v-4c0-.553-.447-1-1-1Z"/>
  <path d="M26,35.001c-.553,0-1,.447-1,1v4c0,.553.447,1,1,1s1-.447,1-1v-4c0-.553-.447-1-1-1Z"/>
  <path d="M42,30.001h-2c-.27,0-.52.11-.71.29l-2,2c-.18.19-.29.44-.29.71v3h-1c-.27,0-.52.11-.71.29l-1.7,1.71h-.59V15.001c0-1.65,1.35-3,3-3h6c.55,0,1-.45,1-1s-.45-1-1-1h-.72l.69-2.76c.09-.35-.02-.73-.29-.97-.27-.25-.65-.34-1-.22l-2.41.81-1.56-1.57c-.39-.39-1.03-.39-1.42,0l-1.56,1.57-2.41-.81c-.37-.12-.78-.02-1.05.26-.27.29-.34.7-.2,1.06l1.89,4.71c-.27.38-.49.79-.65,1.24-.4-.2-.84-.32-1.31-.32h-12c-.47,0-.91.12-1.31.32-.16-.45-.38-.86-.65-1.24l1.89-4.71c.14-.36.07-.77-.2-1.06-.27-.28-.68-.38-1.05-.26l-2.41.81-1.56-1.57c-.39-.39-1.03-.39-1.42,0l-1.56,1.57-2.41-.81c-.35-.12-.73-.03-1,.22-.27.24-.38.62-.29.97l.69,2.76h-.72c-.55,0-1,.45-1,1s.45,1,1,1h6c1.65,0,3,1.35,3,3v7h-3.38l-.62-1.24v-2.76c0-.27-.11-.52-.29-.71l-2-2c-.19-.18-.44-.29-.71-.29h-2c-.55,0-1,.45-1,1s.45,1,1,1h1.59l1.41,1.41v2.59c0,.16.04.31.11.45l1,2c.17.34.51.55.89.55h4v9.59l-1.29-1.3c-.19-.18-.44-.29-.71-.29h-2v-3c0-.27-.11-.52-.29-.71l-2-2c-.39-.39-1.03-.39-1.42,0-.39.39-.39,1.03,0,1.42l1.71,1.7v3.59c0,.55.45,1,1,1h2.59l2.41,2.41v5.59c0,.55.45,1,1,1s1-.45,1-1v-26c0-.55.45-1,1-1h12c.55,0,1,.45,1,1v26c0,.55.45,1,1,1s1-.45,1-1v-2h1c.27,0,.52-.11.71-.29l1.7-1.71h1.59c.55,0,1-.45,1-1v-3.59l1.41-1.41h1.59c.55,0,1-.45,1-1s-.45-1-1-1ZM14.45,10.671c-.72-.41-1.55-.67-2.45-.67h-3.22l-.37-1.48,1.27.43c.36.12.76.02,1.03-.24l1.29-1.3,1.29,1.3c.27.26.67.36,1.03.24l.95-.32-.82,2.04ZM32.73,8.631l.95.32c.36.12.76.02,1.03-.24l1.29-1.3,1.29,1.3c.27.26.67.36,1.03.24l1.27-.43-.37,1.48h-3.22c-.9,0-1.73.26-2.45.67l-.82-2.04Z"/>
  <path d="M42,16.001h-3c-.266,0-.52.105-.707.293l-3,3c-.188.188-.293.441-.293.707v3c0,.553.447,1,1,1s1-.447,1-1v-2.586l2.414-2.414h2.586c.553,0,1-.447,1-1s-.447-1-1-1Z"/>
</svg>