<?xml version="1.0" encoding="UTF-8"?>
<svg id="Outline" xmlns="http://www.w3.org/2000/svg" version="1.1" viewBox="0 0 64 64">
  <!-- Generator: Adobe Illustrator 29.0.0, SVG Export Plug-In . SVG Version: 2.1.0 Build 186)  -->
  <path d="M16,45.49538c2.35938,1.77734,5.64062,1.77734,8,0,2.35938,1.77734,5.64062,1.77734,8,0,2.35938,1.77734,5.64062,1.77734,8,0,2.35938,1.77734,5.64062,1.77734,8,0,1.17969.88867,2.58984,1.33203,4,1.33203,1.70508,0,3.40918-.64844,4.70703-1.94629.39062-.39062.39062-1.02344,0-1.41406s-1.02344-.39062-1.41406,0c-1.81641,1.81641-4.76953,1.81641-6.58594,0-.375-.375-1.03906-.375-1.41406,0-.87988.87988-2.04883,1.36426-3.29297,1.36426s-2.41309-.48438-3.29297-1.36426c-.39062-.39062-1.02344-.39062-1.41406,0-1.81641,1.81641-4.76953,1.81641-6.58594,0-.39062-.39062-1.02344-.39062-1.41406,0-1.81641,1.81641-4.76953,1.81641-6.58594,0-.39062-.39062-1.02344-.39062-1.41406,0-.87988.87988-2.04883,1.36426-3.29297,1.36426s-2.41309-.48438-3.29297-1.36426c-.375-.375-1.03906-.375-1.41406,0-1.81641,1.81641-4.76953,1.81641-6.58594,0-.39062-.39062-1.02344-.39062-1.41406,0s-.39062,1.02344,0,1.41406c2.37109,2.37207,6.10059,2.57715,8.70703.61426Z"/>
  <path d="M55.29297,48.46706c-1.81641,1.81641-4.76953,1.81641-6.58594,0-.375-.375-1.03906-.375-1.41406,0-.87988.87988-2.04883,1.36426-3.29297,1.36426s-2.41309-.48438-3.29297-1.36426c-.39062-.39062-1.02344-.39062-1.41406,0-1.81641,1.81641-4.76953,1.81641-6.58594,0-.39062-.39062-1.02344-.39062-1.41406,0-1.81641,1.81641-4.76953,1.81641-6.58594,0-.39062-.39062-1.02344-.39062-1.41406,0-.87988.87988-2.04883,1.36426-3.29297,1.36426s-2.41309-.48438-3.29297-1.36426c-.375-.375-1.03906-.375-1.41406,0-1.81641,1.81641-4.76953,1.81641-6.58594,0-.39062-.39062-1.02344-.39062-1.41406,0s-.39062,1.02344,0,1.41406c2.37109,2.37109,6.10059,2.57715,8.70703.61426,2.35938,1.77734,5.64062,1.77734,8,0,2.35938,1.77734,5.64062,1.77734,8,0,2.35938,1.77734,5.64062,1.77734,8,0,2.35938,1.77734,5.64062,1.77734,8,0,1.17969.88867,2.58984,1.33203,4,1.33203,1.70508,0,3.40918-.64844,4.70703-1.94629.39062-.39062.39062-1.02344,0-1.41406s-1.02344-.39062-1.41406,0Z"/>
  <path d="M55.29297,53.46706c-1.81641,1.81641-4.76953,1.81641-6.58594,0-.375-.375-1.03906-.375-1.41406,0-.87988.87988-2.04883,1.36426-3.29297,1.36426s-2.41309-.48438-3.29297-1.36426c-.39062-.39062-1.02344-.39062-1.41406,0-1.81641,1.81641-4.76953,1.81641-6.58594,0-.39062-.39062-1.02344-.39062-1.41406,0-1.81641,1.81641-4.76953,1.81641-6.58594,0-.39062-.39062-1.02344-.39062-1.41406,0-.87988.87988-2.04883,1.36426-3.29297,1.36426s-2.41309-.48438-3.29297-1.36426c-.375-.375-1.03906-.375-1.41406,0-1.81641,1.81641-4.76953,1.81641-6.58594,0-.39062-.39062-1.02344-.39062-1.41406,0s-.39062,1.02344,0,1.41406c2.37109,2.37109,6.10059,2.57812,8.70703.61426,2.35938,1.77734,5.64062,1.77734,8,0,2.35938,1.77734,5.64062,1.77734,8,0,2.35938,1.77734,5.64062,1.77734,8,0,2.35938,1.77734,5.64062,1.77734,8,0,1.17969.88867,2.58984,1.33203,4,1.33203,1.70508,0,3.40918-.64844,4.70703-1.94629.39062-.39062.39062-1.02344,0-1.41406s-1.02344-.39062-1.41406,0Z"/>
  <path d="M37.70001,7.46407c-.38-.39001-1.01001-.39001-1.41003,0-.13.13-3.08997,3.09003-5.95996,6.79999-1.42004-1.59998-2.48999-2.65997-2.62-2.79999-.40002-.39001-1.02002-.39001-1.42004,0-.45996.46002-11.28998,11.28998-11.28998,17.71002,0,6.62,5.38,12,12,12,3.58002,0,6.78003-1.58002,8.97998-4.07001.34003.02997.67004.07001,1.02002.07001,6.62,0,12-5.38,12-12,0-6.42004-10.83002-17.25-11.29999-17.71002ZM27,39.17409c-5.51001,0-10-4.48999-10-10,0-4.31,6.66998-12.10999,10-15.57001,3.33002,3.46002,10,11.26001,10,15.57001,0,5.51001-4.48999,10-10,10ZM37.39001,35.15407c1.01996-1.76001,1.60999-3.79999,1.60999-5.97998,0-3.92999-4.07001-9.52002-7.33002-13.37,2.06-2.69,4.23999-5.06,5.33002-6.20001,3.34003,3.46002,10,11.26001,10,15.57001,0,5.38-4.28003,9.76996-9.60999,9.97998Z"/>
</svg>