<?xml version="1.0" encoding="UTF-8"?>
<svg id="Outline" xmlns="http://www.w3.org/2000/svg" version="1.1" viewBox="0 0 64 64">
  <!-- Generator: Adobe Illustrator 29.0.0, SVG Export Plug-In . SVG Version: 2.1.0 Build 186)  -->
  <path d="M55,51.00012v-.17999c0-.99005.28998-1.95001.84003-2.78003.75995-1.14001,1.15997-2.46002,1.15997-3.83002,0-.94-.19-1.84998-.56-2.71997l-4.57-10.66002c-.72273-1.68584-2.84788-2.46616-4.47998-1.63996-1.51001.75-2.20001,2.51001-1.60999,4.07996l1.78998,4.77002c-1.45001.21002-2.57001,1.45001-2.57001,2.96002v3.76001l-1.89001,3.78998c-.07001.14001-.10999.28998-.10999.45001v2c-.54999,0-1,.45001-1,1v4c0,.54999.45001,1,1,1h12c.54999,0,1-.45001,1-1v-4c0-.54999-.45001-1-1-1ZM54,55.00012h-10v-2h10v2ZM54.17999,46.93011c-.77002,1.15997-1.17999,2.5-1.17999,3.89001v.17999h-8v-1.76001l1.89001-3.78998c.07001-.14001.10999-.29004.10999-.45001v-4c0-.54999.45001-1,1-1s1,.45001,1,1v4c0,.54999.45001,1,1,1s1-.45001,1-1v-4c0-.91003-.40997-1.71002-1.04999-2.26001-.01001-.03003,0-.06-.01001-.09003l-2.28003-6.07996c-.22997-.61002.04002-1.3.62-1.59.64738-.3237,1.46962-.02101,1.75006.63998l4.56995,10.65997c.27002.61005.40002,1.26001.40002,1.92999,0,.97003-.28003,1.91003-.82001,2.72003Z"/>
  <path d="M21,51.00012v-2c0-.15527-.03613-.30859-.10547-.44727l-1.89453-3.78857v-3.76416c0-1.50812-1.12207-2.74744-2.57312-2.95685l1.78796-4.76923c.59179-1.57665-.09765-3.33348-1.60447-4.0869-1.64312-.82157-3.74661-.07405-4.48195,1.64208l-4.57031,10.66309c-.37012.86475-.55811,1.77979-.55811,2.71973,0,1.36768.40088,2.69189,1.15967,3.83105.5498.82373.84033,1.7832.84033,2.77441v.18262c-.55225,0-1,.44775-1,1v4c0,.55225.44775,1,1,1h12c.55225,0,1-.44775,1-1v-4c0-.55225-.44775-1-1-1ZM9.82373,46.93323c-.53906-.80859-.82373-1.74951-.82373-2.72119,0-.66748.1333-1.31787.39648-1.93213l4.57031-10.66309c.27939-.65186,1.08629-.97072,1.74951-.64063.58789.29395.85742.97949.62598,1.59521l-2.27881,6.07764c-.01123.03003-.00641.06067-.01465.091-.63678.55054-1.04883,1.35413-1.04883,2.26007v4c0,.55225.44775,1,1,1s1-.44775,1-1v-4c0-.55127.44873-1,1-1s1,.44873,1,1v4c0,.15527.03613.30859.10547.44727l1.89453,3.78857v1.76416h-8v-.18262c0-1.3877-.40674-2.73096-1.17627-3.88428ZM20,55.00012h-10v-2h10v2Z"/>
  <path d="M32.68799,7.27454c-.38574-.36621-.99023-.36621-1.37598,0-.50244.47607-12.31201,11.74854-12.31201,18.72559,0,7.16846,5.83154,13,13,13s13-5.83154,13-13c0-6.97705-11.80957-18.24951-12.31201-18.72559ZM32,37.00012c-6.06543,0-11-4.93457-11-11,0-4.75342,7.38672-13.03662,11-16.60742,3.61328,3.56934,11,11.85059,11,16.60742,0,6.06543-4.93457,11-11,11Z"/>
  <path d="M32.29297,22.70715c.38222.38221,1.03369.38037,1.41406,0,.38428-.38428.38611-1.00073.01428-1.39258.42633.15643.83496.36133,1.20837.63281.80859.5918,1.44043,1.43994,1.77832,2.38818.14551.40967.53076.66504.94199.66504.68-.00006,1.16987-.69534.9418-1.33594-.47754-1.34131-1.33594-2.49316-2.4834-3.33301-.8468-.61584-1.80817-1.01459-2.82355-1.20233l.42218-.42218c.39062-.39062.39062-1.02344,0-1.41406s-1.02344-.39062-1.41406,0l-2,2c-.39062.39062-.39062,1.02344,0,1.41406,0,0,1.99523,1.99523,2,2Z"/>
  <path d="M28.29492,26.16809c-.52905-.1427-1.07343.17114-1.2204.69861-.04871-.28265-.07452-.5719-.07452-.86658,0-.17627.00781-.35254.02441-.5166.10547-1.0127.51221-1.95801,1.17529-2.73291.35889-.41992.31006-1.05127-.10986-1.41016-.41943-.35938-1.05127-.31006-1.40967.10938-.92822,1.08496-1.49707,2.4082-1.64551,3.83057-.02295.23242-.03467.47607-.03467.71973,0,.80579.13373,1.5849.39093,2.31824l-.56036-.15027c-.5332-.14453-1.08154.17383-1.22461.70703s.17334,1.08154.70703,1.22461l2.73193.73242c.08495.02295.17186.03418.25876.03418.43313.00001.84948-.30485.96585-.74121l.73242-2.73242c.14307-.5332-.17334-1.08154-.70703-1.22461Z"/>
  <path d="M38.66211,27.87512c-.06836-.25635-.23633-.47461-.46582-.60742-.23047-.13281-.50488-.16846-.75879-.09961l-2.73242.73242c-.53369.14307-.8501.69141-.70703,1.22461.138.51599.65778.82141,1.17346.71033-.34473.28638-.71332.54413-1.12415.72961-.65625.28857-1.34521.43506-2.04736.43506-.3335,0-.63721-.02686-.90332-.08057-.54297-.10693-1.06885.24219-1.17725.78369-.10889.5415.24219,1.06836.78369,1.17725.39551.07959.83154.11963,1.29688.11963.98145,0,1.94141-.20361,2.86133-.6084.9458-.42676,1.77747-1.06689,2.44617-1.84503l.15491.57843c.11961.44672.52333.74162.96515.7417.64805.00012,1.13395-.6346.96649-1.25928l-.73193-2.73242Z"/>
</svg>