<?xml version="1.0" encoding="UTF-8"?>
<svg id="Outline" xmlns="http://www.w3.org/2000/svg" version="1.1" viewBox="0 0 64 64">
  <!-- Generator: Adobe Illustrator 29.0.0, SVG Export Plug-In . SVG Version: 2.1.0 Build 186)  -->
  <path d="M44.08746,42.03009c1.20813-2.06897,1.91254-4.46625,1.91254-7.03009,0-1.16754-.21136-2.46021-.60815-3.84375,4.44824-1.75757,7.60815-6.09033,7.60815-11.15625,0-.55273-.44775-1-1-1h-.81177c.513-.88373.81177-1.90656.81177-3,0-4.36426-5.07666-9.49121-5.29297-9.70703-.39062-.39062-1.02344-.39062-1.41406,0-.21631.21582-5.29297,5.34277-5.29297,9.70703,0,1.48883.54828,2.84967,1.44922,3.8996-.49054.19946-.96088.43146-1.41364.68933-3.46484-5.11554-7.13995-9.09436-7.30267-9.26959-.37891-.40625-1.08691-.40625-1.46582,0-.16284.17535-3.84229,4.15887-7.30103,9.27057-.45325-.2583-.92413-.4906-1.41528-.69031.90094-1.04993,1.44922-2.41077,1.44922-3.8996,0-4.36426-5.07666-9.49121-5.29297-9.70703-.39062-.39062-1.02344-.39062-1.41406,0-.21631.21582-5.29297,5.34277-5.29297,9.70703,0,1.09344.29877,2.11627.81177,3h-.81177c-.55225,0-1,.44727-1,1,0,5.06598,3.15991,9.39868,7.60815,11.15625-.39679,1.38354-.60815,2.67621-.60815,3.84375,0,2.56384.70441,4.96112,1.91254,7.03009-4.47748.83295-11.91254,2.83643-11.91254,6.96991,0,5.19629,12.36523,8,24,8s24-2.80371,24-8c0-4.13348-7.43506-6.13696-11.91254-6.96991ZM32,41c3.48169,0,6.11584,1.51764,7.87982,3.02814-2.1106,1.8446-4.86316,2.97186-7.87982,2.97186s-5.76923-1.12726-7.87982-2.97186c1.76398-1.5105,4.39813-3.02814,7.87982-3.02814ZM32,49c2.40466,0,4.66907-.61023,6.64807-1.68268,4.70612.47302,6.67438,1.28351,7.22986,1.68756-.98633.75781-5.6665,1.99512-13.87793,1.99512s-12.8916-1.2373-13.87793-1.99512c.55548-.40405,2.52374-1.21454,7.22986-1.68756,1.979,1.07245,4.24341,1.68268,6.64807,1.68268ZM44,35c0,2.87988-1.02112,5.52472-2.71832,7.59503-1.86536-1.62561-4.6311-3.26123-8.26013-3.53229.11206-2.58167.99982-5.02966,2.47211-7.06274h5.50635c.85071,0,1.67987-.09198,2.48102-.26111.33917,1.19073.51898,2.28784.51898,3.26111ZM41,30h-3.72742c1.16888-1.06738,2.53705-1.93201,4.06042-2.51758l4.02588-1.54883c.51562-.19824.77295-.77734.57422-1.29297-.19824-.51562-.78027-.76855-1.29199-.57422l-4.02588,1.54883c-1.54395.59381-2.94604,1.44006-4.17975,2.4704.97455-3.22699,3.5321-5.79163,6.90131-6.71704.80371.40039,1.70593.63141,2.66321.63141,1.22278,0,2.36005-.36945,3.30957-1h1.64062c-.50342,5.0459-4.77393,9-9.9502,9ZM46,8.46387c1.54053,1.73828,4,5.04004,4,7.53613,0,2.20605-1.79443,4-4,4s-4-1.79395-4-4c0-2.49609,2.45947-5.79785,4-7.53613ZM32,13.49805c1.25024,1.42206,3.89789,4.55817,6.3833,8.22571-2.62042,2.14581-4.26428,5.35626-4.36823,8.91956-.83252,1.11371-1.5141,2.33698-2.01508,3.64026-.50098-1.30328-1.18256-2.52655-2.01508-3.64026-.10394-3.56238-1.74695-6.77203-4.36627-8.91791,2.48077-3.66595,5.13043-6.80396,6.38135-8.22736ZM18,8.46387c1.54053,1.73828,4,5.04004,4,7.53613,0,2.20605-1.79443,4-4,4s-4-1.79395-4-4c0-2.49609,2.45947-5.79785,4-7.53613ZM13.0498,21h1.64062c.94952.63055,2.08679,1,3.30957,1,.95728,0,1.8595-.23102,2.66321-.63141,3.3692.92542,5.92676,3.49005,6.90131,6.71704-1.2337-1.03033-2.6358-1.87659-4.17975-2.4704l-4.02588-1.54883c-.51465-.19434-1.09326.05859-1.29199.57422s.05859,1.09473.57422,1.29297l4.02588,1.54883c1.52338.58557,2.89154,1.4502,4.06042,2.51758h-3.72742c-5.17627,0-9.44678-3.9541-9.9502-9ZM23,32h5.50635c1.47229,2.03308,2.36005,4.48108,2.47211,7.06274-3.62903.27106-6.39478,1.90668-8.26013,3.53229-1.6972-2.07031-2.71832-4.71515-2.71832-7.59503,0-.97327.17981-2.07037.51898-3.26111.80115.16913,1.63031.26111,2.48102.26111ZM32,55c-13.63037,0-22-3.49414-22-6,0-1.61139,3.50525-3.88287,11.15869-5.15619.52203.63879,1.104,1.22479,1.72913,1.76263-6.86444,1.00269-6.88782,2.7691-6.88782,3.39355,0,3.8877,14.3623,4,16,4s16-.1123,16-4c0-.62445-.02338-2.39087-6.88782-3.39355.62512-.53784,1.20709-1.12384,1.72913-1.76263,7.65344,1.27332,11.15869,3.5448,11.15869,5.15619,0,2.50586-8.36963,6-22,6Z"/>
</svg>