<?xml version="1.0" encoding="UTF-8"?>
<svg id="Outline" xmlns="http://www.w3.org/2000/svg" version="1.1" viewBox="0 0 64 64">
  <!-- Generator: Adobe Illustrator 29.5.1, SVG Export Plug-In . SVG Version: 2.1.0 Build 141)  -->
  <path d="M56,26h-2.654c2.395-3.903,3.654-8.359,3.654-13,0-.552-.448-1-1-1H24c-.552,0-1,.448-1,1s.448,1,1,1h26.952c-.234,4.498-2.025,8.711-5.128,12h-7.357l-.568-1.372c-.211-.511-.797-.753-1.306-.542-.51.211-.753.796-.542,1.306l.251.607h-8.605l.251-.607c.211-.51-.031-1.095-.542-1.306-.511-.211-1.096.031-1.306.542l-.568,1.372h-7.357c-3.103-3.289-4.894-7.502-5.128-12h2.952c.552,0,1-.448,1-1s-.448-1-1-1h-8c-.552,0-1,.448-1,1,0,4.641,1.259,9.097,3.654,13h-2.654c-.552,0-1,.448-1,1,0,13.785,11.215,25,25,25s25-11.215,25-25c0-.552-.448-1-1-1ZM50.949,28c-.525,10.011-8.81,18-18.949,18s-18.424-7.989-18.949-18h37.899ZM52.952,14h2.027c-.184,4.328-1.575,8.444-4.032,12h-2.472c2.721-3.43,4.27-7.595,4.476-12ZM11.048,14c.207,4.405,1.755,8.57,4.476,12h-2.472c-2.457-3.556-3.848-7.672-4.032-12h2.027ZM32,50c-12.347,0-22.453-9.78-22.979-22h2.029c.527,11.114,9.707,20,20.949,20s20.422-8.886,20.949-20h2.029c-.525,12.22-10.631,22-22.979,22Z"/>
  <path d="M32,35c.552,0,1-.448,1-1v-2c0-.552-.448-1-1-1s-1,.448-1,1v2c0,.552.448,1,1,1Z"/>
  <path d="M36.243,32.657c.195.195.451.293.706.293.866,0,1.321-1.094.708-1.707l-1.414-1.414c-.391-.391-1.023-.391-1.414,0s-.391,1.023,0,1.414l1.414,1.414Z"/>
  <path d="M27.05,32.948c.256,0,.513-.097.707-.291l1.414-1.414c.391-.391.391-1.023,0-1.414s-1.023-.391-1.414,0l-1.414,1.414c-.616.616-.161,1.705.707,1.705Z"/>
  <path d="M32,43c.552,0,1-.448,1-1v-2c0-.552-.448-1-1-1s-1,.448-1,1v2c0,.552.448,1,1,1Z"/>
  <path d="M36.593,38.086c-.51.211-.753.796-.542,1.306l.765,1.848c.159.385.532.618.925.618.701,0,1.192-.733.923-1.383l-.765-1.848c-.211-.51-.797-.754-1.306-.542Z"/>
  <path d="M41.899,38.313c.195.195.451.293.707.293.875,0,1.326-1.089.707-1.707l-1.414-1.414c-.391-.391-1.023-.391-1.414,0s-.391,1.023,0,1.414l1.414,1.414Z"/>
  <path d="M43.628,32.899s1.848.765,1.848.765c.505.209,1.096-.035,1.306-.542.211-.51-.031-1.095-.542-1.306l-1.848-.765c-.511-.211-1.096.031-1.306.542-.211.51.031,1.095.542,1.306Z"/>
  <path d="M25.878,41.782c.505.209,1.096-.035,1.306-.542l.765-1.848c.211-.51-.031-1.095-.542-1.306-.511-.213-1.096.031-1.306.542l-.765,1.848c-.211.51.031,1.095.542,1.306Z"/>
  <path d="M20.687,38.314c.387.386,1.025.389,1.414,0l1.414-1.414c.391-.391.391-1.023,0-1.414s-1.023-.391-1.414,0l-1.414,1.414c-.391.391-.391,1.023,0,1.414Z"/>
  <path d="M20.914,31.593c-.211-.511-.797-.752-1.306-.542l-1.848.765c-.949.393-.716,1.924.383,1.924.127,0,.257-.025.382-.077l1.848-.765c.51-.211.753-.796.542-1.306Z"/>
  <path d="M33,20v-2c0-.552-.448-1-1-1s-1,.448-1,1v2c0,.552.448,1,1,1s1-.448,1-1Z"/>
  <path d="M36.95,18.95c.256,0,.512-.098.707-.293.391-.391.391-1.023,0-1.414l-1.414-1.414c-.391-.391-1.023-.391-1.414,0s-.391,1.023,0,1.414l1.414,1.414c.195.195.451.293.707.293Z"/>
  <path d="M27.05,18.95c.256,0,.512-.098.707-.293l1.414-1.414c.391-.391.391-1.023,0-1.414s-1.023-.391-1.414,0l-1.414,1.414c-.391.391-.391,1.023,0,1.414.195.195.451.293.707.293Z"/>
  <path d="M40.485,21.485c-.391.391-.391,1.023,0,1.414l1.414,1.414c.195.195.451.293.707.293s.512-.098.707-.293c.391-.391.391-1.023,0-1.414l-1.414-1.414c-.391-.391-1.023-.391-1.414,0Z"/>
  <path d="M45.476,19.664c.125.052.254.077.382.077.393,0,.765-.233.924-.618.211-.51-.031-1.095-.542-1.306l-1.848-.765c-.511-.211-1.096.031-1.306.542-.211.51.031,1.095.542,1.306l1.848.765Z"/>
  <path d="M20.701,24.299c.375.405,1.01.403,1.399.014l1.414-1.414c.391-.391.391-1.023,0-1.414s-1.023-.391-1.414,0l-1.414,1.414c-.4.4-.33,1.028.015,1.4Z"/>
  <path d="M18.142,19.741c.127,0,.257-.025.382-.077l1.848-.765c.51-.211.753-.796.542-1.306-.211-.511-.797-.753-1.306-.542l-1.848.765c-.964.399-.681,1.924.383,1.924Z"/>
  <circle cx="20" cy="13" r="1"/>
</svg>