<?xml version="1.0" encoding="UTF-8"?>
<svg id="Outline" xmlns="http://www.w3.org/2000/svg" version="1.1" viewBox="0 0 64 64">
  <!-- Generator: Adobe Illustrator 29.3.1, SVG Export Plug-In . SVG Version: 2.1.0 Build 151)  -->
  <path d="M56,55h-10v-1c0-1.65002-1.34998-3-3-3h-7v-2.92999l2.98999.21997h.02002l9.91998.71002h.07001c.22998,0,.46002-.08002.64001-.23004l6-5c.22998-.19.35999-.46997.35999-.76996s-.13-.58002-.35999-.77002l-6-5c-.20001-.15997-.45001-.23999-.71002-.22998l-12.92999.92999v-3.85999l2.98999.21997h.02002l9.91998.71002h.07001c.22998,0,.46002-.08002.64001-.23004l6-5c.22998-.19.35999-.46997.35999-.76996s-.13-.58002-.35999-.77002l-6-5c-.20001-.15997-.45001-.23999-.71002-.22998l-12.92999.92999v-3.85999l2.98999.21997h.02002l9.91998.71002h.07001c.22998,0,.46002-.08002.64001-.23004l6-5c.22998-.19.35999-.46997.35999-.76996s-.13-.58002-.35999-.77002l-6-5c-.20001-.15997-.45001-.23999-.71002-.22998l-12.94.92999c-.03998-1.62-1.35999-2.92999-2.98999-2.92999h-2c-1.65002,0-3,1.34998-3,3v6.92999l-12.92999-.92999c-.25-.01001-.51001.07001-.71002.22998l-6,5c-.22998.19-.35999.47003-.35999.77002s.13.57996.35999.76996l6,5c.17999.15002.41003.23004.64001.23004h.07001l9.91998-.71002h.02002l2.98999-.21997v3.85999l-12.92999-.92999c-.25-.01001-.51001.07001-.71002.22998l-6,5c-.22998.19-.35999.47003-.35999.77002s.13.57996.35999.76996l6,5c.17999.15002.41003.23004.64001.23004h.07001l9.91998-.71002h.02002l2.98999-.21997v9.92999h-7c-1.65002,0-3,1.34998-3,3v1h-10c-.54999,0-1,.45001-1,1s.45001,1,1,1h15c.54999,0,1-.45001,1-1s-.45001-1-1-1h-3v-1c0-.54999.45001-1,1-1h22c.54999,0,1,.45001,1,1v1h-13c-.54999,0-1,.45001-1,1s.45001,1,1,1h25c.54999,0,1-.45001,1-1s-.45001-1-1-1ZM40,39.64996l8.66998-.62,4.77002,3.97003-4.77002,3.96997-8.66998-.62v-6.70001ZM40,25.64996l8.66998-.62,4.77002,3.97003-4.77002,3.96997-8.66998-.62v-6.70001ZM40,11.64996l8.66998-.62,4.77002,3.97003-4.77002,3.96997-8.66998-.62v-6.70001ZM36,11.92999l2-.14001v6.41998l-2-.13995v-6.14001ZM36,25.92999l2-.14001v6.41998l-2-.13995v-6.14001ZM36,39.92999l2-.14001v6.41998l-2-.13995v-6.14001ZM24,25.34998l-8.66998.62-4.77002-3.96997,4.77002-3.97003,8.66998.62v6.70001ZM24,39.34998l-8.66998.62-4.77002-3.96997,4.77002-3.97003,8.66998.62v6.70001ZM28,39.07001l-2,.13995v-6.41998l2,.14001v6.14001ZM28,25.07001l-2,.13995v-6.41998l2,.14001v6.14001ZM34,51h-4V10c0-.54999.45001-1,1-1h2c.54999,0,1,.45001,1,1v41Z"/>
  <path d="M43,44h6c.55273,0,1-.44775,1-1s-.44727-1-1-1h-6c-.55273,0-1,.44775-1,1s.44727,1,1,1Z"/>
  <path d="M43,30h6c.55273,0,1-.44775,1-1s-.44727-1-1-1h-6c-.55273,0-1,.44775-1,1s.44727,1,1,1Z"/>
  <path d="M43,16h6c.55273,0,1-.44775,1-1s-.44727-1-1-1h-6c-.55273,0-1,.44775-1,1s.44727,1,1,1Z"/>
  <path d="M21,35h-6c-.55273,0-1,.44775-1,1s.44727,1,1,1h6c.55273,0,1-.44775,1-1s-.44727-1-1-1Z"/>
  <path d="M21,21h-6c-.55273,0-1,.44775-1,1s.44727,1,1,1h6c.55273,0,1-.44775,1-1s-.44727-1-1-1Z"/>
  <circle cx="27" cy="56" r="1"/>
</svg>