<?xml version="1.0" encoding="UTF-8"?>
<svg id="Outline" xmlns="http://www.w3.org/2000/svg" version="1.1" viewBox="0 0 64 64">
  <!-- Generator: Adobe Illustrator 29.3.1, SVG Export Plug-In . SVG Version: 2.1.0 Build 151)  -->
  <path d="M57.00244,22c0-4.00043-1.55743-7.76227-4.38464-10.59497-.00385-.00385-.00653-.00861-.01038-.01245-.00336-.00336-.00745-.00568-.0108-.00903-4.78156-4.7735-12.20813-5.76208-18.06439-2.40063-.479.2749-.64453.88574-.36963,1.36475.27441.47949.88672.64502,1.36475.36963,3.61987-2.07648,7.92719-2.22736,11.60577-.64856-.62427.10321-1.27167.25464-1.95001.48108-2.94775.9834-6.08691,3.04053-8.83887,5.79248-3.87317,3.87317-9.25403,11.30475-11.60022,16.68738l-.65887-.65887c.32104-6.53229,4.68408-15.36102,8.52618-19.35809.38232-.39795.37012-1.03125-.02832-1.41357-.39648-.38232-1.02979-.37061-1.41406.02783-3.79663,3.94977-8.06934,12.34845-8.9411,19.12189-.71741-.28217-1.56616-.13538-2.14484.44403l-2.83008,2.83008c-.77881.77881-.77881,2.04541,0,2.82422l.00311.00311-7.37714,7.44269c-.56689.56641-.87891,1.31982-.87891,2.12158,0,.45392.11029.8877.30017,1.28558l-.83582.83551c-.94434.94434-1.46436,2.19971-1.46436,3.53564,0,1.33545.52002,2.59082,1.46436,3.53516.97461.97461,2.25537,1.46191,3.53564,1.46191s2.56104-.4873,3.53564-1.46191l.83734-.83734c.40588.19226.8421.29974,1.28278.29974.76904,0,1.53906-.29297,2.12598-.87939l7.37451-7.43958c.38885.38763.89886.58118,1.40869.58118.51123,0,1.02295-.19434,1.41211-.58398l2.83008-2.83008c.57819-.57819.7251-1.42474.44476-2.14142,6.95984-.87592,15.4541-5.26727,19.35504-9.16864,2.83447-2.83398,4.39551-6.60107,4.39551-10.60693ZM28.56421,36.84985l23.18866-23.18866c.47223,1.10052.41437,2.68115-.20013,4.52289-.88672,2.65918-2.77246,5.521-5.30908,8.05762-3.92102,3.92102-11.75385,9.50085-16.80389,11.4837l-.87555-.87555ZM37.7583,17.75635c2.53662-2.53662,5.39844-4.42236,8.05762-5.30908,1.84204-.61566,3.42267-.67279,4.52307-.20032l-23.18884,23.18884-.87555-.87555c1.98285-5.05005,7.56268-12.88287,11.4837-16.80389ZM9.87842,54.19238c-1.16943-1.16992-1.16943-3.07275,0-4.24268l.7074-.70709,4.24261,4.24292-.70685.70685c-1.17041,1.16797-3.07373,1.16895-4.24316,0ZM28.56689,45.33301l-3.29004-3.29004c-.39062-.39062-1.02344-.39062-1.41406,0s-.39062,1.02344,0,1.41406l1.8786,1.8786-7.37714,7.4422c-.38965.39062-1.0249.39014-1.41455.00049l-5.65674-5.65674c-.38965-.39014-.38965-1.02441.00342-1.41748l7.37396-7.43951,2.37262,2.37262c.39062.39062,1.02344.39062,1.41406,0s.39062-1.02344,0-1.41406l-3.79004-3.78613,2.82617-2.83008,9.04028,9.03674c.00647.00647.01245.0127.01904.01898l.84058.84027-2.82617,2.83008ZM31.62903,39.91467l-.65869-.65869c5.38263-2.34619,12.81421-7.72705,16.68738-11.60022,2.75195-2.75195,4.80908-5.89111,5.79248-8.83887.22882-.6861.38184-1.34082.48474-1.97131.69507,1.60724,1.0675,3.35126,1.0675,5.15442,0,3.47168-1.35303,6.73633-3.80957,9.19287-3.92334,3.92383-13.01166,8.39941-19.56384,8.7218Z"/>
</svg>