<?xml version="1.0" encoding="UTF-8"?>
<svg id="Outline" xmlns="http://www.w3.org/2000/svg" version="1.1" viewBox="0 0 64 64">
  <!-- Generator: Adobe Illustrator 29.5.1, SVG Export Plug-In . SVG Version: 2.1.0 Build 141)  -->
  <path d="M42.462,22.944c-1.566-.479-2.969-1.473-3.949-2.799-.99-1.335-1.514-2.924-1.514-4.595v-7.55c0-.552-.447-1-1-1h-8c-.553,0-1,.448-1,1v7.55c0,3.417-2.196,6.388-5.463,7.394-4.043,1.238-6.867,5.061-6.867,9.296,0,.324.012.649.045.969l2.29,22.89c.051.511.481.9.995.9h19c.553,0,1-.448,1-1s-.447-1-1-1h-18.095l-2.201-21.994c-.026-.255-.034-.511-.034-.766,0-3.365,2.242-6.401,5.454-7.385,4.113-1.266,6.876-5.006,6.876-9.306v-6.55h6v6.55c0,2.103.659,4.104,1.906,5.785,1.233,1.667,2.998,2.917,4.97,3.521,3.502,1.076,5.781,4.506,5.419,8.154l-2.2,21.99h-4.095c-.553,0-1,.448-1,1s.447,1,1,1h5c.514,0,.944-.389.995-.9l2.29-22.891c.456-4.592-2.413-8.909-6.822-10.265Z"/>
  <path d="M44.819,33.33c-.19-.21-.46-.33-.74-.33h-17.08c-.55,0-1,.45-1,1s.45,1,1,1h15.98l-.38,4h-21.2l-.38-4h1.98c.55,0,1-.45,1-1s-.45-1-1-1h-3.08c-.28,0-.55.12-.74.33-.19.21-.28.48-.26.76l1.7,18c.05.52.48.91,1,.91h20.76c.52,0,.95-.39,1-.91l1.7-18c.02-.28-.07-.55-.26-.76ZM41.469,51h-18.94l-.38-4h19.7l-.38,4ZM42.039,45h-20.08l-.37-4h20.82l-.37,4Z"/>
</svg>