<?xml version="1.0" encoding="UTF-8"?>
<svg id="Outline" xmlns="http://www.w3.org/2000/svg" version="1.1" viewBox="0 0 64 64">
  <!-- Generator: Adobe Illustrator 29.5.1, SVG Export Plug-In . SVG Version: 2.1.0 Build 141)  -->
  <path d="M55.115,13.906c-1.16-1.05-2.71-1.56-4.26-1.41l-14.78,1.48-17.08-6.57c-3.3-.94-6.86-.02-9.29,2.41-1.79,1.78-2.77,4.16-2.77,6.69v2.99c0,2.52.98,4.9,2.77,6.69,1.79,1.79,4.19,2.76,6.68,2.76.9,0,1.8-.13,2.69-.38l17-6.55,14.78,1.48c.19.02.37.03.55.03,2.969,0,5.53-2.523,5.53-5.53,0-1.56-.66-3.05-1.82-4.09ZM34.935,20.316l-16.49,6.35c-2.61.75-5.41.02-7.33-1.9-.65-.64-1.15-1.39-1.52-2.2.35.1.71.17,1.09.17.12,0,.23-.01.35-.02l23.9-2.71v.31ZM34.935,18.016c-.04,0-.08-.02-.12-.01l-23.98,2.72c-.5.05-.97-.11-1.34-.44-.36-.34-.56-.79-.56-1.29v-2c0-.49.2-.95.56-1.28.37-.34.84-.49,1.31-.45l24.01,2.73h.12v.02ZM34.935,15.996l-23.92-2.72c-.48-.05-.96.02-1.42.15.37-.81.88-1.55,1.52-2.2,1.43-1.43,3.36-2.2,5.29-2.2.66,0,1.32.09,1.96.27l16.57,6.39v.31ZM53.761,20.601c-.714.645-1.684,1.008-2.706.905l-14.12-1.41v-4.19l14.12-1.41c1-.11,1.97.21,2.72.89s1.16,1.6,1.16,2.61c0,1.03-.459,1.959-1.174,2.605Z"/>
  <path d="M56.065,30.956H23.065c-.55,0-1,.45-1,1s.45,1,1,1h10v2h-4c-.55,0-1,.45-1,1s.45,1,1,1h4v13c0,1.65,1.35,3,3,3s3-1.35,3-3v-5c0-.55.45-1,1-1s1,.45,1,1v2c0,1.65,1.35,3,3,3s3-1.35,3-3v-5c0-.55.45-1,1-1,1.65,0,3-1.35,3-3v-1h4v2c0,8.82-7.18,16-16,16h-14c-4.27,0-8.29-1.67-11.31-4.69-3.02-3.02-4.69-7.04-4.69-11.31v-2h16c.55,0,1-.45,1-1s-.45-1-1-1H9.065v-2h10c.55,0,1-.45,1-1s-.45-1-1-1h-11c-.55,0-1,.45-1,1v7c0,4.81,1.87,9.33,5.27,12.73,3.4,3.4,7.92,5.27,12.73,5.27h14c9.92,0,18-8.08,18-18v-7c0-.55-.45-1-1-1ZM49.065,37.956c0,.55-.45,1-1,1-1.65,0-3,1.35-3,3v5c0,.55-.45,1-1,1s-1-.45-1-1v-2c0-1.65-1.35-3-3-3s-3,1.35-3,3v5c0,.55-.45,1-1,1s-1-.45-1-1v-17h14v5ZM55.065,34.956h-4v-2h4v2Z"/>
</svg>