<?xml version="1.0" encoding="UTF-8"?>
<svg id="Outline" xmlns="http://www.w3.org/2000/svg" version="1.1" viewBox="0 0 64 64">
  <!-- Generator: Adobe Illustrator 29.0.0, SVG Export Plug-In . SVG Version: 2.1.0 Build 186)  -->
  <circle cx="21.49847" cy="24" r="1"/>
  <path d="M56.55877,55h-.17999c.10999-.31.17999-.65002.17999-1v-10c0-1.29999-.84003-2.40002-2-2.82001v-3.17999c0-.54999-.45001-1-1-1h-4c-.54999,0-1,.45001-1,1v3h-6v-3c0-.54999-.45001-1-1-1h-4c-.54999,0-1,.45001-1,1v3.17999c-1.15997.41998-2,1.52002-2,2.82001v6h-1c-.54999,0-1-.45001-1-1,0-1.65002-1.34998-3-3-3h-3.04999l-1.73004-17.47003c2.18985,1.65992,4.75965,2.70988,7.51945,3.03997,1.46474.1752,3.06947.44894,3.93056-1.07995.48999-.87.42999-1.95001-.16998-2.76001l-.88-1.15997c-2.12-2.85004-5.19-4.90002-8.65002-5.76001l-1.53998-.38.04999-.19c.98004-3.41003.75-7.09998-.64996-10.38l-.58002-1.33002c-.40002-.92999-1.29999-1.52997-2.31-1.52997s-1.90997.59998-2.31,1.51996l-.58002,1.35004c-1.39996,3.27002-1.63,6.95996-.64996,10.35999l.04999.20001-1.54004.38c-3.45996.85999-6.52997,2.90997-8.64996,5.76001l-.89001,1.16998c-.58995.79996-.65002,1.87993-.15007,2.75992.8412,1.48065,2.49554,1.23825,3.92009,1.07009,2.76001-.33002,5.32996-1.38,7.51996-3.04004l-2.62994,26.47003H7.55877c-.54999,0-1,.45001-1,1s.45001,1,1,1h49c.54999,0,1-.45001,1-1s-.45001-1-1-1ZM26.34875,22.83997c2.89001.79004,5.45001,2.53003,7.23004,4.92999l.87,1.15002c.13.17999.14996.40002.04999.57001-.10999.19-.31.28998-.52002.27002l-1.44-.17004c-2.52997-.31-4.88-1.29999-6.84998-2.88.51001-.77997.81-1.70996.81-2.70996,0-.40002-.06-.79004-.15002-1.16003ZM10.4588,29.58997l-1.43005.17004c-.20996.02997-.41998-.07001-.51996-.25-.10999-.19-.09003-.41003.02997-.58002l.88-1.16003c1.78003-2.39996,4.34003-4.13995,7.23004-4.92999-.09003.37-.15002.76001-.15002,1.16003,0,1,.29999,1.92999.81,2.70996-1.96997,1.58002-4.32001,2.57001-6.84998,2.88ZM20.44879,10.65997l.57996-1.34998c.17004-.38.78003-.39001.94.01001l.58002,1.32996c1.16998,2.74005,1.39001,5.80005.66003,8.67004-.54004-.20001-1.11005-.32001-1.71002-.32001s-1.16998.12-1.71002.32001c-.72998-2.87-.51001-5.92999.66003-8.66003ZM21.49878,21c1.65002,0,3,1.34998,3,3,0,1.02997-.52002,1.94-1.32001,2.47998,0,0,0,.01001-.01001.01001-.47998.32001-1.04999.51001-1.66998.51001s-1.20001-.19-1.66998-.51001c-.01001,0-.01001-.01001-.01001-.01001-.79999-.53998-1.32001-1.45001-1.32001-2.47998,0-1.65002,1.34998-3,3-3ZM17.59875,55l2.60004-26.19c.41998.10999.84998.19,1.29999.19s.88-.08002,1.29999-.19l1.79004,18.04999c-.01001.04999-.03003.09003-.03003.14001,0,.14001.03003.26996.08002.39001l.75,7.60999h-7.79004ZM27.40875,55l-.69995-7h2.84998c.54999,0,1,.45001,1,1,0,1.64996,1.34998,3,3,3h1v2c0,.34998.07001.69.17999,1h-7.33002ZM50.55877,39h2v2h-2v-2ZM38.55877,39h2v2h-2v-2ZM54.55877,54c0,.54999-.45001,1-1,1h-16c-.54999,0-1-.45001-1-1v-10c0-.54999.45001-1,1-1h16c.54999,0,1,.45001,1,1v10Z"/>
  <path d="M46.55877,48h-1.13184l.96387-1.44531c.30664-.45947.18262-1.08057-.27734-1.38672-.46191-.30762-1.08105-.18311-1.38672.27734l-2,3c-.2041.30664-.22363.70117-.0498,1.02637s.5127.52832.88184.52832h1.13184l-.96387,1.44531c-.30657.45937-.18267,1.08029.27703,1.38651.42964.2862,1.07914.18546,1.38703-.27714l2-3c.2041-.30664.22363-.70117.0498-1.02637s-.5127-.52832-.88184-.52832Z"/>
  <path d="M30.55877,13h10c.55273,0,1-.44775,1-1s-.44727-1-1-1h-10c-.55176,0-1-.44873-1-1s.44824-1,1-1h2c.55273,0,1-.44775,1-1s-.44727-1-1-1h-2c-1.6543,0-3,1.3457-3,3s1.3457,3,3,3Z"/>
  <path d="M32.55877,18c0,1.6543,1.3457,3,3,3h2c.55273,0,1-.44775,1-1s-.44727-1-1-1h-2c-.55176,0-1-.44873-1-1s.44824-1,1-1h10c.55273,0,1-.44775,1-1s-.44727-1-1-1h-10c-1.6543,0-3,1.3457-3,3Z"/>
</svg>