<?xml version="1.0" encoding="UTF-8"?>
<svg id="Outline" xmlns="http://www.w3.org/2000/svg" version="1.1" viewBox="0 0 64 64">
  <!-- Generator: Adobe Illustrator 29.0.0, SVG Export Plug-In . SVG Version: 2.1.0 Build 186)  -->
  <path d="M39.19629,20.98047l3.67383-.73486-.86523,8.65479c-.04492.45117.21875.87598.64258,1.03564.11523.04297.23438.06396.35254.06396.31543,0,.62207-.1499.81348-.41895l10-14c.23535-.3291.24902-.76709.03516-1.11035-.21387-.34277-.61621-.5249-1.0127-.45703l-4.29102.71484,2.3916-6.37744c.12305-.32764.06543-.6958-.15137-.9707-.2168-.27441-.56348-.41895-.90918-.37256l-8,1c-.40234.05029-.73438.33789-.84082.729l-3,11c-.09082.33447-.00293.69238.2334.94531.2373.25391.58789.36572.92773.29834ZM42.78809,9.90918l5.69531-.71191-2.41992,6.45166c-.125.33447-.0625.71045.16406.98633.22852.27637.58789.4126.93652.35107l3.61914-.60303-6.41504,8.97998.62695-6.26367c.03125-.31543-.08887-.62744-.32324-.84033-.18555-.16846-.42578-.25928-.67188-.25928-.06543,0-.13086.00635-.19629.01953l-3.41309.68262,2.39746-8.79297Z"/>
  <path d="M17.18652,32.58105c.19141.26904.49805.41895.81348.41895.11816,0,.2373-.021.35254-.06396.42383-.15967.6875-.58447.64258-1.03564l-.86523-8.65479,3.67383.73486c.33887.06787.69043-.04492.92773-.29834.23633-.25293.32422-.61084.2334-.94531l-3-11c-.10645-.39111-.43848-.67871-.84082-.729l-8-1c-.34473-.04639-.69141.09814-.90918.37256-.2168.2749-.27441.64307-.15137.9707l2.3916,6.37744-4.29102-.71484c-.39258-.06689-.79883.11426-1.0127.45703-.21387.34326-.2002.78125.03516,1.11035l10,14ZM13.83594,19.98633c.34961.05957.70898-.0752.93652-.35107.22656-.27588.28906-.65186.16406-.98633l-2.41992-6.45166,5.69531.71191,2.39746,8.79297-3.41309-.68262c-.3125-.06201-.6338.02637-.86816.23975-.23438.21289-.35449.5249-.32324.84033l.62695,6.26367-6.41504-8.97998,3.61914.60303Z"/>
  <path d="M56,51h-19.28003l-.00995-.03003c-1.13-3.40997-1.71002-6.95001-1.71002-10.53998v-3.22998l16.28003,9.39996c.15997.09003.32996.13.5.13.08997,0,.17999-.01001.25995-.02997.26001-.07001.48004-.24005.61005-.47003l1.5-2.59998c.22998-.39001.15997-.88-.16003-1.20001l-10.98999-10.97003c-.37-.37-.96997-.38995-1.37-.03998l-1.83002,1.62-2.85999-1.64996c-.16998-1.37006-.89001-2.57001-1.94-3.36005V8c0-.54999-.45001-1-1-1h-3c-.45001,0-.84998.29999-.96997.73999l-4,15c-.13.51001.14996,1.03998.64996,1.21002l2.32001.76996v3.31c-1.04999.79004-1.77002,1.98999-1.94,3.36005l-17.34003,10.00995c-.47998.28003-.64996.89001-.37,1.37l1.5,2.60004c.18005.31.52002.5.87.5.08002,0,.17004-.02002.26001-.04004l14.98999-4.02997c.51001-.14001.82001-.65002.72003-1.16998l-.48999-2.39001,1.79999-1.03998v3.22998c0,3.58997-.58002,7.13-1.71002,10.53998l-.00995.03003H8c-.54999,0-1,.45001-1,1v4c0,.54999.45001,1,1,1h48c.54999,0,1-.45001,1-1v-4c0-.54999-.45001-1-1-1ZM36.71997,33.57001l2.71002,1.56c.37.21997.84003.16998,1.16003-.11005l1.65997-1.47998,9.78003,9.76001-.61005,1.07001-15.70001-9.07001c.45001-.5.79004-1.08002,1-1.72998ZM25.57001,36.87c-.37.20996-.56.64001-.47998,1.06l.44995,2.17999-13.33997,3.59003-.62-1.07001,15.70001-9.06c.20996.64996.54999,1.22998,1,1.72998l-2.71002,1.57001ZM28.21002,22.34998l3.56-13.34998h1.22998v18.09998c-.32001-.06-.65997-.09998-1-.09998s-.67999.03998-1,.09998v-3.09998c0-.42999-.28003-.81-.67999-.95001l-2.10999-.70001ZM32,29c1.65002,0,3,1.34998,3,3s-1.34998,3-3,3-3-1.35004-3-3,1.34998-3,3-3ZM34.62,51h-5.23999c1.08002-3.42004,1.62-6.98004,1.62-10.57001v-3.53003c.32001.06.65997.10004,1,.10004s.67999-.04004,1-.10004v3.53003c0,3.58997.53998,7.14996,1.62,10.57001ZM55,55H9v-2h46v2Z"/>
</svg>