<?xml version="1.0" encoding="UTF-8"?>
<svg id="Outline" xmlns="http://www.w3.org/2000/svg" version="1.1" viewBox="0 0 64 64">
  <!-- Generator: Adobe Illustrator 29.5.1, SVG Export Plug-In . SVG Version: 2.1.0 Build 141)  -->
  <path d="M30,24.13c-1.85-1.06-3-3.04-3-5.16v-5.97h1c.55,0,1-.45,1-1v-4c0-.55-.45-1-1-1h-12c-.55,0-1,.45-1,1v4c0,.55.45,1,1,1h1v5.97c0,2.12-1.15,4.1-3,5.16-2.47,1.42-4,4.06-4,6.9v.97c0,.55.45,1,1,1s1-.45,1-1v-.97c0-2.12,1.15-4.1,3-5.16,2.47-1.42,4-4.06,4-6.9v-5.97h6v5.97c0,2.84,1.53,5.48,4,6.9,1.85,1.06,3,3.04,3,5.16v22.97c0,.55-.45,1-1,1H13c-.55,0-1-.45-1-1v-14c0-.55-.45-1-1-1s-1,.45-1,1v14c0,1.65,1.35,3,3,3h18c1.65,0,3-1.35,3-3v-22.97c0-2.84-1.53-5.48-4-6.9ZM17,11v-2h10v2h-10Z"/>
  <path d="M53,7h-4c-.55,0-1,.45-1,1v.81c-1.45-.52-3.17-.81-5-.81s-3.55.29-5,.81v-.81c0-.55-.45-1-1-1h-4c-.55,0-1,.45-1,1v10c0,.55.45,1,1,1h4c.55,0,1-.45,1-1v-.81c1.18.43,2.55.7,4,.78v2.62l-2.71,2.7c-.39.39-.39,1.03,0,1.42l2.3,2.29-2.3,2.29c-.39.39-.39,1.03,0,1.42l2.3,2.29-2.3,2.29c-.39.39-.39,1.03,0,1.42l2.71,2.7v1.59c0,.55.45,1,1,1s1-.45,1-1v-2c0-.27-.11-.52-.29-.71l-2.3-2.29,2.3-2.29c.39-.39.39-1.03,0-1.42l-2.3-2.29,2.3-2.29c.39-.39.39-1.03,0-1.42l-2.3-2.29,2.3-2.29c.18-.19.29-.44.29-.71v-3.03c1.45-.08,2.82-.35,4-.78v.81c0,.55.45,1,1,1h4c.55,0,1-.45,1-1v-10c0-.55-.45-1-1-1ZM36,17h-2v-8h2v8ZM48,15.03c-1.33.62-3.12.97-5,.97s-3.67-.35-5-.97v-4.06c1.33-.62,3.12-.97,5-.97s3.67.35,5,.97v4.06ZM52,17h-2v-8h2v8Z"/>
  <path d="M30,41c0-6.729-3.514-12-8-12s-8,5.271-8,12,3.514,12,8,12,8-5.271,8-12ZM16,41c0-5.42,2.748-10,6-10s6,4.58,6,10-2.748,10-6,10-6-4.58-6-10Z"/>
  <circle cx="11" cy="36" r="1"/>
</svg>