<?xml version="1.0" encoding="UTF-8"?>
<svg id="Outline" xmlns="http://www.w3.org/2000/svg" version="1.1" viewBox="0 0 64 64">
  <!-- Generator: Adobe Illustrator 29.5.1, SVG Export Plug-In . SVG Version: 2.1.0 Build 141)  -->
  <path d="M38.03,30.16c-1.98,2.3-4.62,3.87-7.53,4.51v6.33c0,.55-.45,1-1,1s-1-.45-1-1v-6.05c-.33.02-.66.05-1,.05s-.67-.03-1-.05v16.55c0,.31-.15.61-.4.8l-3.6,2.7h10l-3.6-2.7c-.25-.19-.4-.49-.4-.8v-6.5c0-.55.45-1,1-1s1,.45,1,1v6l5.6,4.2c.34.26.48.71.35,1.12-.14.4-.52.68-.95.68h-16c-.43,0-.81-.28-.95-.68-.13-.41.01-.86.35-1.12l5.6-4.2v-16.33c-2.91-.64-5.55-2.21-7.53-4.51-2.64-3.07-3.79-7.14-3.18-11.14l1.72-11.17c.08-.49.5-.85.99-.85h13c.55,0,1,.45,1,1s-.45,1-1,1h-12.14l-1.59,10.32c-.53,3.43.46,6.91,2.72,9.54s5.54,4.14,9.01,4.14,6.75-1.51,9.01-4.14,3.25-6.11,2.72-9.54l-1.59-10.32h-4.14c-.55,0-1-.45-1-1s.45-1,1-1h5c.49,0,.91.36.99.85l1.72,11.17c.61,4-.54,8.07-3.18,11.14Z"/>
  <path d="M19,14.721c-.329.131-.563.426-.618.775l-.641,4.132c-.435,2.853.393,5.744,2.271,7.934,1.883,2.185,4.612,3.437,7.487,3.437s5.604-1.252,7.487-3.437c0,0,0,0,.001-.002,1.877-2.188,2.705-5.079,2.27-7.935l-.54-3.47c-.046-.297-.224-.557-.482-.709-.259-.151-.573-.179-.854-.075-.008.003-.097.037-.105.04-2.312.934-5.072.822-7.327-.306-2.791-1.402-6.053-1.542-8.949-.385ZM34.925,17.641l.356,2.29c.347,2.275-.312,4.581-1.809,6.327-1.503,1.743-3.68,2.743-5.973,2.743s-4.47-1-5.971-2.741c-1.497-1.746-2.157-4.053-1.811-6.326l.549-3.546c2.23-.729,4.671-.554,6.785.507,2.407,1.204,5.264,1.483,7.873.747Z"/>
  <path d="M21.624,39.992c.5-.062.876-.488.876-.992s-.375-.93-.876-.992c-1.639-.205-2.927-1.493-3.132-3.132-.062-.5-.488-.876-.992-.876s-.93.375-.992.876c-.205,1.639-1.493,2.927-3.132,3.132-.5.062-.876.488-.876.992s.375.93.876.992c1.639.205,2.927,1.493,3.132,3.132.062.5.488.876.992.876s.93-.375.992-.876c.205-1.639,1.493-2.927,3.132-3.132ZM17.5,40.322c-.364-.511-.811-.958-1.322-1.322.511-.364.958-.811,1.322-1.322.364.511.811.958,1.322,1.322-.511.364-.958.811-1.322,1.322Z"/>
  <path d="M50.624,11.008c-1.639-.205-2.927-1.493-3.132-3.132-.062-.5-.488-.876-.992-.876s-.93.375-.992.876c-.205,1.639-1.493,2.927-3.132,3.132-.5.062-.876.488-.876.992s.375.93.876.992c1.639.205,2.927,1.493,3.132,3.132.062.5.488.876.992.876s.93-.375.992-.876c.205-1.639,1.493-2.927,3.132-3.132.5-.062.876-.488.876-.992s-.375-.93-.876-.992ZM46.5,13.322c-.364-.511-.811-.958-1.322-1.322.511-.364.958-.811,1.322-1.322.364.511.811.958,1.322,1.322-.511.364-.958.811-1.322,1.322Z"/>
</svg>