<?xml version="1.0" encoding="UTF-8"?>
<svg id="Outline" xmlns="http://www.w3.org/2000/svg" version="1.1" viewBox="0 0 64 64">
  <!-- Generator: Adobe Illustrator 29.0.0, SVG Export Plug-In . SVG Version: 2.1.0 Build 186)  -->
  <path d="M26.98162,7.80371c-.09326-.46729-.50391-.80371-.98047-.80371h-14c-.47656,0-.88721.33643-.98047.80371l-3.13428,15.6709c-.604,3.02148.80762,6.04248,3.51221,7.51758l6.60254,3.60156v15.05481c-1.83191,2.3479-4.24646,4.17328-7.01416,5.28015l-.35742.14307c-.44482.17773-.70117.64697-.61035,1.11768.09082.47021.50244.81055.98193.81055h16c.47949,0,.89111-.34033.98193-.81055.09082-.4707-.16553-.93994-.61035-1.11768l-.35791-.14355c-2.76721-1.10645-5.18176-2.93176-7.01367-5.27966v-15.05481l6.60254-3.60156c2.70459-1.4751,4.11621-4.49609,3.51221-7.51807l-3.13428-15.67041ZM12.82098,9h12.36035l2.04132,10.20532-1.86066.62036c-2.06689.68896-4.33789.46436-6.23047-.61719-2.52527-1.44385-5.51215-1.66718-8.22491-.63757l1.91437-9.57092ZM22.8659,55h-7.72949c1.43506-.9502,2.73584-2.09521,3.86475-3.40527,1.12891,1.31006,2.42969,2.45508,3.86475,3.40527ZM25.64568,29.23633l-6.64453,3.62451-6.64453-3.62451c-1.93213-1.05371-2.94043-3.21143-2.50928-5.36963l.59308-2.96509,1.04559-.4187c2.18506-.87354,4.60986-.70557,6.65332.46191,1.4751.84326,3.13281,1.27344,4.80029,1.27344,1.02832,0,2.06055-.16357,3.05518-.49512l1.62323-.5412.53693,2.68427c.43115,2.15869-.57715,4.31641-2.50928,5.37012Z"/>
  <path d="M52.60113,30.98999c2.71002-1.47003,4.12-4.48999,3.51001-7.52002l-3.13-15.66998c-.08997-.46002-.5-.79999-.97998-.79999h-3c-.54999,0-1,.45001-1,1s.45001,1,1,1h2.17999l1.91003,9.57001c-2.71002-1.03003-5.70001-.81-8.22003.63995-1.89001,1.08002-4.15997,1.31-6.22998.62l-1.85999-.62,2.03998-10.20996h2.17999c.54999,0,1-.45001,1-1s-.45001-1-1-1h-3c-.47998,0-.89001.33997-.97998.79999l-3.13,15.66998c-.60999,3.03003.79999,6.04999,3.51001,7.52002l6.59998,3.59998v15.06c-1.83002,2.35004-4.25,4.17004-7.01001,5.28003l-.35999.14001c-.45001.17999-.70001.64996-.60999,1.12.08997.46997.5.81.97998.81h16c.47998,0,.89001-.34003.97998-.81.09003-.47003-.15997-.94-.60999-1.12l-.35999-.14001c-2.76001-1.10999-5.17999-2.92999-7.01001-5.28003v-15.06l6.59998-3.59998ZM48.86114,55h-7.71997c1.42999-.95001,2.72998-2.10004,3.85999-3.41003,1.13,1.31,2.42999,2.46002,3.85999,3.41003ZM45.00115,32.85999l-6.64001-3.63c-1.94-1.04999-2.94-3.20001-2.51001-5.35999l.54004-2.69,1.62.53998c.98999.33002,2.02002.5,3.04999.5,1.66998,0,3.33002-.42999,4.79999-1.27997,2.04999-1.16003,4.47003-1.33002,6.66003-.46002l1.03998.41998.59003,2.97003c.42999,2.15997-.57001,4.31-2.51001,5.35999l-6.64001,3.63Z"/>
  <circle cx="45.00115" cy="8" r="1"/>
</svg>