<?xml version="1.0" encoding="UTF-8"?>
<svg id="Outline" xmlns="http://www.w3.org/2000/svg" version="1.1" viewBox="0 0 64 64">
  <!-- Generator: Adobe Illustrator 29.5.1, SVG Export Plug-In . SVG Version: 2.1.0 Build 141)  -->
  <path d="M52,7h-26c-.55,0-1,.45-1,1s.45,1,1,1h25v2H13v-2h5c.55,0,1-.45,1-1s-.45-1-1-1h-6c-.55,0-1,.45-1,1v4c0,.55.45,1,1,1h7v4h-2c-.55,0-1,.45-1,1,0,1.1-.9,2-2,2-.55,0-1,.45-1,1v32c0,.55.45,1,1,1,1.1,0,2,.9,2,2,0,.55.45,1,1,1h30c.55,0,1-.45,1-1,0-1.1.9-2,2-2,.55,0,1-.45,1-1V21c0-.55-.45-1-1-1-1.1,0-2-.9-2-2,0-.55-.45-1-1-1h-2v-4h7c.55,0,1-.45,1-1v-4c0-.55-.45-1-1-1ZM41,13h2v4h-2v-4ZM25,13h14v4h-14v-4ZM21,13h2v4h-2v-4ZM46.13,19c.36,1.4,1.47,2.51,2.87,2.87v30.26c-1.4.36-2.51,1.47-2.87,2.87h-28.26c-.36-1.4-1.47-2.51-2.87-2.87v-30.26c1.4-.36,2.51-1.47,2.87-2.87h28.26Z"/>
  <path d="M18,23v28c0,.553.448,1,1,1h26c.552,0,1-.447,1-1v-28c0-.553-.448-1-1-1h-26c-.552,0-1,.447-1,1ZM20,24h24v26h-24v-26Z"/>
  <path d="M32,26c-5.701,0-10,2.149-10,5,0,5.363,2.947,9.914,7,11.447v3.553h-1c-.552,0-1,.447-1,1s.448,1,1,1h8c.552,0,1-.447,1-1s-.448-1-1-1h-1v-3.553c4.053-1.533,7-6.083,7-11.447,0-2.851-4.299-5-10-5ZM32,28c4.883,0,8,1.776,8,3s-3.117,3-8,3-8-1.776-8-3,3.117-3,8-3ZM33,46h-2v-3.061c.329.039.662.061,1,.061s.671-.021,1-.061v3.061ZM32,41c-3.469,0-6.421-2.779-7.527-6.646,1.804,1.02,4.459,1.646,7.527,1.646s5.723-.626,7.527-1.646c-1.106,3.867-4.058,6.646-7.527,6.646Z"/>
  <circle cx="22" cy="8" r="1"/>
</svg>