<?xml version="1.0" encoding="UTF-8"?>
<svg id="Outline" xmlns="http://www.w3.org/2000/svg" version="1.1" viewBox="0 0 64 64">
  <!-- Generator: Adobe Illustrator 29.3.1, SVG Export Plug-In . SVG Version: 2.1.0 Build 151)  -->
  <circle cx="28" cy="19" r="1"/>
  <circle cx="31" cy="29" r="1"/>
  <circle cx="34" cy="24" r="1"/>
  <circle cx="35" cy="19" r="1"/>
  <path d="M53.03418,51.68408l-5.03418-1.43823v-7.64075c5.16736-1.3374,9-6.02582,9-11.6051,0-2.11328-.39746-4.18555-1.18262-6.16211l-2.88867-7.20996c-.15234-.37939-.52051-.62793-.92871-.62793h-10.93878c-.16901-.3399-.35913-.67188-.57294-.99268-1.37585-2.06378-3.51837-3.42743-5.91199-3.85229l4.06433-3.38696c.42383-.35352.48145-.98389.12793-1.4082-.35352-.42383-.9834-.48193-1.40918-.12793l-4.35938,3.63293v-2.86487c0-.55225-.44727-1-1-1s-1,.44775-1,1v2.86487l-4.35938-3.63293c-.42578-.354-1.05566-.2959-1.40918.12793-.35352.42432-.2959,1.05469.12793,1.4082l4.06433,3.38696c-2.39362.42487-4.53613,1.78851-5.91199,3.85229-.21381.3208-.40393.65277-.57294.99268h-10.93878c-.4082,0-.77637.24854-.92871.62793l-2.89062,7.21289c-.7832,1.97363-1.18066,4.0459-1.18066,6.15918,0,5.57928,3.83264,10.2677,9,11.6051v7.64075l-5.03418,1.43823c-1.15723.33057-1.96582,1.40234-1.96582,2.60596,0,1.49414,1.21582,2.70996,2.70996,2.70996h14.58008c1.49414,0,2.70996-1.21582,2.70996-2.70996,0-1.20361-.80859-2.27539-1.96582-2.60596l-5.03418-1.43823v-7.63574c2.05737-.52716,3.94727-1.58313,5.4873-3.1228.67773-.67773,1.26282-1.4303,1.75775-2.24023.82068.47601,1.76093.75293,2.75494.75293s1.93427-.27692,2.75494-.75293c.495.80988,1.08002,1.56238,1.75775,2.23975,1.54004,1.54004,3.42993,2.59607,5.4873,3.12323v7.6358l-5.03418,1.43823c-1.15723.33057-1.96582,1.40234-1.96582,2.60596,0,1.49414,1.21582,2.70996,2.70996,2.70996h14.58008c1.49414,0,2.70996-1.21582,2.70996-2.70996,0-1.20361-.80859-2.27539-1.96582-2.60596ZM51.32324,19l2.63672,6.5791c.20105.50604.36438,1.02112.50739,1.54047-1.58655-.33624-3.14313-.37347-4.64703-.10345-1.37891.25146-2.35547.7002-3.2168,1.0957-.87305.40137-1.62695.74756-2.73535.89697-1.36127.18317-2.7533-.01422-4.22327-.55609l1.66272-3.99078c.73212-1.75726.87708-3.66339.46625-5.46191h9.54938ZM12.67676,19h9.54938c-.41083,1.79852-.26587,3.70465.46625,5.46191l1.66272,3.99084c-1.46954.54169-2.8634.73877-4.22131.55603-1.11035-.14941-1.86426-.49561-2.7373-.89697-.86133-.39551-1.83789-.84424-3.21973-1.09619-1.50067-.26935-3.0567-.23218-4.64423.10419.14282-.51868.30585-1.0329.50653-1.53778l2.6377-6.58203ZM27,54.29004c0,.3916-.31836.70996-.70996.70996h-14.58008c-.3916,0-.70996-.31836-.70996-.70996,0-.31543.21191-.59619.51465-.68311l5.625-1.60693h3.7207l5.625,1.60693c.30273.08691.51465.36768.51465.68311ZM20,50h-2v-7.05066c.33057.02747.66248.05066,1,.05066.33618,0,.6687-.02148,1-.04865v7.04865ZM26.07324,38.07275c-1.8877,1.8877-4.39941,2.92725-7.07324,2.92725-5.51367,0-10-4.48584-10-10,0-.57013.04425-1.13507.10974-1.69696,1.6275-.4668,3.21344-.58844,4.71057-.31915,1.13184.20605,1.91406.56543,2.74121.94531.93359.42871,1.89941.87256,3.30664,1.06201.42383.05664.85254.08496,1.28418.08496,1.2951,0,2.62567-.26642,3.97479-.77039l1.79572,4.30994c.20038.48053.46783.91681.78076,1.31012-.44434.78235-.98779,1.50433-1.63037,2.14691ZM28.76855,33.84619l-4.23047-10.15381c-.91504-2.19775-.68262-4.59424.6377-6.57568,1.32031-1.98047,3.44336-3.1167,5.82422-3.1167h2c2.38086,0,4.50391,1.13623,5.82422,3.1167,1.32031,1.98145,1.55273,4.37793.6377,6.57568l-4.23047,10.15381c-.5459,1.30811-1.81445,2.15381-3.23145,2.15381s-2.68555-.8457-3.23145-2.15381ZM36.29639,35.92584c.31293-.39331.58038-.82959.78076-1.31012l1.79572-4.30994c1.34912.50397,2.67969.77039,3.97479.77039.43262,0,.86133-.02832,1.28613-.08496,1.40527-.18945,2.37109-.6333,3.30469-1.06201.82715-.37988,1.60938-.73926,2.73828-.94482,1.49902-.27014,3.08478-.14819,4.71356.31879.06549.56189.10968,1.12683.10968,1.69684,0,5.51416-4.48633,10-10,10-2.67383,0-5.18555-1.03955-7.07324-2.92773-.64258-.64215-1.18604-1.36407-1.63037-2.14642ZM45,43c.33752,0,.66943-.02319,1-.05066v7.05066h-2v-7.04865c.3313.02716.66382.04865,1,.04865ZM52.29004,55h-14.58008c-.3916,0-.70996-.31836-.70996-.70996,0-.31543.21191-.59619.51465-.68311l5.625-1.60693h3.7207l5.625,1.60693c.30273.08691.51465.36768.51465.68311,0,.3916-.31836.70996-.70996.70996Z"/>
</svg>