<?xml version="1.0" encoding="UTF-8"?>
<svg id="Outline" xmlns="http://www.w3.org/2000/svg" version="1.1" viewBox="0 0 64 64">
  <!-- Generator: Adobe Illustrator 29.5.1, SVG Export Plug-In . SVG Version: 2.1.0 Build 141)  -->
  <path d="M54.04,11c-.99,0-1.87.5-2.41,1.25-5.66-2.12-12.25-3.25-19.13-3.25-7.23,0-14.09,1.24-19.94,3.57-.5-.93-1.47-1.57-2.6-1.57-1.63,0-2.96,1.33-2.96,2.96v30.08c0,1.63,1.33,2.96,2.96,2.96,1.12,0,2.09-.64,2.59-1.56,1.24.49,2.53.94,3.88,1.33l-1.41,7.03c-.06.3.02.6.21.83.19.24.47.37.77.37h5c.55,0,1-.45,1-1s-.45-1-1-1h-3.78l1.14-5.7c4.44,1.12,9.19,1.7,14.14,1.7,4.59,0,9.01-.51,13.18-1.49l1.1,5.49h-17.78c-.55,0-1,.45-1,1s.45,1,1,1h19c.3,0,.58-.13.77-.37.19-.23.27-.53.21-.83l-1.36-6.77c1.39-.38,2.73-.81,4.01-1.28.54.75,1.41,1.25,2.41,1.25,1.63,0,2.96-1.33,2.96-2.96V13.96c0-1.63-1.33-2.96-2.96-2.96ZM10.92,44.04c0,.53-.43.96-.96.96s-.96-.43-.96-.96V13.96c0-.53.43-.96.96-.96s.96.43.96.96v30.08ZM51.08,43.82c-1.54.58-3.16,1.11-4.87,1.53-4.3,1.1-8.92,1.65-13.71,1.65-5.16,0-10.08-.64-14.65-1.89-1.74-.48-3.38-1.06-4.93-1.69v-4.44c5.75,2.33,12.47,3.58,19.57,3.58,6.67,0,13.06-1.11,18.59-3.19v4.45ZM51.08,37.23c-5.46,2.17-11.87,3.33-18.59,3.33-7.16,0-13.91-1.3-19.57-3.74v-3.84c5.75,2.33,12.47,3.58,19.57,3.58,6.67,0,13.06-1.11,18.59-3.19v3.86ZM51.08,31.23c-5.46,2.17-11.87,3.33-18.59,3.33-7.16,0-13.91-1.3-19.57-3.74v-4.08c5.67-2.44,12.41-3.74,19.57-3.74,6.72,0,13.13,1.16,18.59,3.33v4.9ZM51.08,24.19c-5.53-2.08-11.92-3.19-18.59-3.19-7.1,0-13.82,1.24-19.57,3.58v-3.84c5.67-2.44,12.41-3.74,19.57-3.74,6.72,0,13.13,1.16,18.59,3.33v3.86ZM51.08,18.19c-5.53-2.08-11.92-3.19-18.59-3.19-7.1,0-13.82,1.24-19.57,3.58v-4c5.7-2.34,12.45-3.58,19.58-3.58,6.7,0,13.1,1.1,18.58,3.18v4.01ZM55,44.04c0,.53-.43.96-.96.96s-.96-.43-.96-.96V13.96c0-.53.43-.96.96-.96s.96.43.96.96v30.08Z"/>
  <circle cx="25" cy="54" r="1"/>
</svg>