<?xml version="1.0" encoding="UTF-8"?>
<svg id="Outline" xmlns="http://www.w3.org/2000/svg" version="1.1" viewBox="0 0 64 64">
  <!-- Generator: Adobe Illustrator 29.5.1, SVG Export Plug-In . SVG Version: 2.1.0 Build 141)  -->
  <path d="M21,40c.55,0,1-.45,1-1v-5.5l4.6-2.51c2.71-1.47,4.12-4.49,3.51-7.52l-3.13-15.67c-.09-.46-.5-.8-.98-.8h-14c-.48,0-.89.34-.98.8l-3.13,15.67c-.61,3.03.8,6.05,3.51,7.52l4.6,2.51v13.78c-3.62.67-6,2.51-6,4.72,0,2.85,3.87,5,9,5s9-2.15,9-5c0-2.21-2.38-4.05-6-4.72v-4.28c0-.55-.45-1-1-1s-1,.45-1,1v5.76c0,1.77.98,3.35,2.56,4.14.478.239,1.104.025,1.34-.454.157-.318.122-.721-.086-1.008-.202-.278-.531-.429-.808-.633-.466-.344-.797-.866-.909-1.434,1.115.171,2.183.631,3.074,1.323.436.339.86.806.829,1.357-.016.287-.158.553-.333.781-1.392,1.816-4.57,2.168-6.666,2.168-4.01,0-7-1.58-7-3,0-.95,1.45-2.11,3.92-2.66-.17.75-.65,1.41-1.37,1.77-.49.24-.69.84-.44,1.34.17.35.52.55.89.55.15,0,.3-.03.45-.11,1.57-.78,2.55-2.37,2.55-4.13v-14.17l.52.29c.15.08.31.12.48.12s.33-.04.48-.12l.52-.29v4.41c0,.55.45,1,1,1ZM12.82,9h12.36l2.04,10.21-1.86.62c-2.07.68-4.34.46-6.23-.62-2.52-1.45-5.51-1.67-8.22-.64l1.91-9.57ZM19,32.86l-6.64-3.62c-1.94-1.06-2.94-3.22-2.51-5.37l.59-2.97,1.04-.42c2.19-.87,4.61-.7,6.66.46,1.47.85,3.13,1.28,4.8,1.28,1.03,0,2.06-.17,3.05-.5l1.63-.54.53,2.69c.43,2.15-.57,4.31-2.51,5.37l-6.64,3.62Z"/>
  <path d="M52.596,30.989c2.712-1.468,4.125-4.488,3.514-7.515l-3.13-15.67c-.093-.468-.504-.804-.98-.804h-2c-.552,0-1,.448-1,1s.448,1,1,1h1.18l1.911,9.57c-2.712-1.029-5.698-.806-8.222.638-1.892,1.082-4.163,1.307-6.23.617l-1.858-.619,2.039-10.206h7.18c.552,0,1-.448,1-1s-.448-1-1-1h-8c-.477,0-.887.336-.98.804l-3.13,15.668c-.61,3.029.802,6.049,3.511,7.515l4.6,2.513v13.776c-3.623.674-6,2.513-6,4.723,0,2.851,3.869,5,9,5s9-2.149,9-5c0-2.21-2.377-4.049-6-4.723v-13.776l4.596-2.511ZM35.85,23.866l.536-2.683,1.62.54c.995.332,2.027.495,3.055.495,1.667,0,3.325-.43,4.8-1.273,2.043-1.167,4.47-1.336,6.653-.461l1.042.417.593,2.968c.436,2.161-.571,4.316-2.509,5.365l-6.641,3.628-6.644-3.63c-1.934-1.047-2.941-3.202-2.505-5.365ZM48.553,52.895c.469.235,1.094.048,1.342-.447.247-.494.047-1.095-.447-1.342-.716-.358-1.199-1.012-1.368-1.77,2.475.558,3.921,1.716,3.921,2.664,0,1.416-2.994,3-7,3s-7-1.584-7-3c0-.948,1.445-2.106,3.921-2.664-.169.758-.651,1.412-1.368,1.77-.494.247-.694.848-.447,1.342.175.351.528.553.896.553.15,0,.303-.034.446-.105,1.575-.788,2.553-2.37,2.553-4.13v-14.171l.521.284c.149.082.314.123.479.123s.33-.041.479-.123l.521-.284v14.171c0,1.76.978,3.343,2.553,4.13Z"/>
</svg>