<?xml version="1.0" encoding="UTF-8"?>
<svg id="Outline" xmlns="http://www.w3.org/2000/svg" version="1.1" viewBox="0 0 64 64">
  <!-- Generator: Adobe Illustrator 29.5.1, SVG Export Plug-In . SVG Version: 2.1.0 Build 141)  -->
  <path d="M56,36h-16.18c.11-.31.18-.65.18-1v-1h3c1.65,0,3-1.35,3-3v-8c0-1.65-1.35-3-3-3h-3v-1.52c1.19-.68,2-1.98,2-3.48,0-1.45-.77-2.76-1.95-3.46.02-.18.04-.36.04-.54,0-2.21-1.74-4-3.87-4-.88,0-1.72.31-2.39.86-.68-.55-1.51-.86-2.4-.86-1.41,0-2.68.8-3.35,2.03-.78-.1-1.58.06-2.27.44-.72-.91-1.81-1.47-2.98-1.47-2.14,0-3.87,1.79-3.87,4,0,.4.06.79.17,1.18-.72.74-1.13,1.75-1.13,2.82,0,1.5.81,2.8,2,3.48v3.52c0,.55.45,1,1,1s1-.45,1-1v-3.01c.83-.03,1.62-.33,2.26-.85.79.65,1.83.97,2.86.83.68,1.23,1.95,2.03,3.36,2.03,1.8,0,3.31-1.28,3.75-3,.7.03,1.38-.17,1.99-.53.54.32,1.15.5,1.78.52v16.01c0,.55-.45,1-1,1h-14c-.55,0-1-.45-1-1v-4c0-.55-.45-1-1-1s-1,.45-1,1v4c0,.35.07.69.18,1h-12.18c-.55,0-1,.45-1,1s.45,1,1,1h8.64c-.54.38-1.03.85-1.44,1.4-.17.23-.24.52-.18.8.06.28.23.53.48.67l6.24,3.56c4.91,2.81,8.84,6.96,11.37,12.02.16.34.51.55.89.55h11c.31,0,.61-.15.8-.4l.16-.22c1.97-2.61,2.6-6.06,1.7-9.2-.41-1.44-.43-2.96-.07-4.41l1.19-4.77h7.22c.55,0,1-.45,1-1s-.45-1-1-1ZM43,22c.55,0,1,.45,1,1v8c0,.55-.45,1-1,1h-3v-10h3ZM36.9,16.49c-.38-.36-.98-.36-1.37,0-.33.31-.99.71-1.84.39-.32-.13-.68-.08-.95.12-.28.21-.43.53-.41.87,0,.02.01.11.02.13,0,1.1-.84,2-1.87,2-.83,0-1.57-.6-1.79-1.47-.08-.28-.27-.52-.53-.65-.14-.06-.29-.1-.44-.1-.13,0-.26.03-.39.08-.83.35-1.75.01-2.23-.74-.36-.58-1.32-.58-1.68,0-.35.55-.93.88-1.55.88-.14,0-.27-.02-.41-.05-.08-.05-.17-.07-.27-.09-.69-.29-1.19-1.01-1.19-1.86,0-.69.33-1.33.89-1.7.43-.28.58-.85.33-1.31-.18-.32-.26-.65-.26-.99,0-1.1.84-2,1.87-2,.77,0,1.46.51,1.74,1.3.12.33.4.58.75.65.35.07.7-.05.94-.32.52-.59,1.3-.79,2.03-.49.27.12.57.1.83-.02.26-.13.45-.37.52-.65.23-.87.96-1.47,1.79-1.47.62,0,1.2.33,1.55.88.37.58,1.32.58,1.69,0,.35-.55.93-.88,1.55-.88,1.03,0,1.87.9,1.87,2,0,.25-.05.51-.15.76-.1.26-.08.55.04.8.13.25.35.44.62.52.83.23,1.4,1.02,1.4,1.92,0,1.1-.84,2-1.87,2-.57,0-.98-.28-1.23-.51ZM42.55,38c-1.28,1.15-2.18,2.72-2.49,4.53-.02.15-.06.3-.11.45-.4,1.21-1.53,2.02-2.8,2.02-.57,0-1.14-.15-1.63-.44l-11.15-6.56h18.18ZM45.74,47.73c.71,2.47.24,5.17-1.24,7.27h-9.89c-2.71-5.16-6.81-9.41-11.88-12.31l-5.12-2.92c1.45-1.17,3.52-1.36,5.19-.37l11.7,6.88c.8.47,1.72.72,2.65.72,2.13,0,4.02-1.36,4.7-3.39.08-.24.14-.5.19-.75.41-2.45,2.29-4.32,4.65-4.76l-1.04,4.18c-.45,1.79-.42,3.67.09,5.45Z"/>
  <circle cx="21" cy="27" r="1"/>
</svg>