<?xml version="1.0" encoding="UTF-8"?>
<svg id="Outline" xmlns="http://www.w3.org/2000/svg" version="1.1" viewBox="0 0 64 64">
  <!-- Generator: Adobe Illustrator 29.5.1, SVG Export Plug-In . SVG Version: 2.1.0 Build 141)  -->
  <path d="M50,13c.55,0,1-.45,1-1v-4c0-.55-.45-1-1-1h-4c-.55,0-1,.45-1,1v.87c-8.66-1.13-17.34-1.13-26,0v-.87c0-.55-.45-1-1-1h-4c-.55,0-1,.45-1,1v12c0,.55.45,1,1,1h4c.55,0,1-.45,1-1v-.87c3.99.53,7.99.81,12,.85v4.61l-2.71,2.7c-.39.39-.39,1.03,0,1.42l2.3,2.29-2.3,2.29c-.39.39-.39,1.03,0,1.42l2.3,2.29-2.3,2.29c-.39.39-.39,1.03,0,1.42l2.71,2.7v1.59h-4c-.55,0-1,.45-1,1v10c0,.55.45,1,1,1h10c.55,0,1-.45,1-1v-10c0-.55-.45-1-1-1h-4v-2c0-.27-.11-.52-.29-.71l-2.3-2.29,2.3-2.29c.39-.39.39-1.03,0-1.42l-2.3-2.29,2.3-2.29c.39-.39.39-1.03,0-1.42l-2.3-2.29,2.3-2.29c.18-.19.29-.44.29-.71v-5.02c4.01-.04,8.01-.32,12-.85v.87c0,.55.45,1,1,1h4c.55,0,1-.45,1-1v-4c0-.55-.45-1-1-1s-1,.45-1,1v3h-2v-10h2v3c0,.55.45,1,1,1ZM36,47v8h-8v-8h8ZM45,17.13c-8.63,1.16-17.37,1.16-26,0v-1.13c0-.55-.45-1-1-1s-1,.45-1,1v3h-2v-10h2v3c0,.55.45,1,1,1s1-.45,1-1v-1.13c8.67-1.16,17.33-1.16,26,0v6.26Z"/>
</svg>