<?xml version="1.0" encoding="UTF-8"?>
<svg id="Outline" xmlns="http://www.w3.org/2000/svg" version="1.1" viewBox="0 0 64 64">
  <!-- Generator: Adobe Illustrator 29.5.1, SVG Export Plug-In . SVG Version: 2.1.0 Build 141)  -->
  <path d="M11,18h-2c-.553,0-1,.447-1,1s.447,1,1,1h2c.553,0,1-.447,1-1s-.447-1-1-1Z"/>
  <path d="M45,37h-3v-1.519c1.186-.684,2-1.979,2-3.481,0-1.448-.768-2.76-1.949-3.46.024-.179.036-.359.036-.54,0-2.206-1.735-4-3.869-4-.882,0-1.72.308-2.392.855-.672-.548-1.51-.855-2.392-.855-1.409,0-2.682.8-3.355,2.03-.784-.104-1.582.058-2.271.437-.722-.909-1.811-1.467-2.982-1.467-2.134,0-3.87,1.794-3.87,4,0,.4.06.795.179,1.178-.722.741-1.135,1.748-1.135,2.822,0,1.502.814,2.797,2,3.481v2.519c0,.553.447,1,1,1s1-.447,1-1v-2.011c.833-.029,1.623-.324,2.261-.844.792.646,1.837.962,2.861.825.675,1.231,1.947,2.03,3.356,2.03,1.8,0,3.316-1.277,3.747-3.001.704.033,1.388-.171,1.992-.531.543.324,1.154.501,1.782.523v18.009c0,.552-.448,1-1,1h-14c-.552,0-1-.448-1-1v-7c0-.553-.447-1-1-1s-1,.447-1,1v7c0,1.654,1.346,3,3,3h14c1.654,0,3-1.346,3-3v-1h3c1.654,0,3-1.346,3-3v-10c0-1.654-1.346-3-3-3ZM40.131,34c-.57,0-.982-.275-1.228-.506-.384-.363-.983-.362-1.371,0-.33.312-.994.705-1.848.383-.317-.12-.674-.072-.948.129-.273.201-.426.528-.405.867,0,.024.014.104.017.128,0,1.103-.839,2-1.869,2-.83,0-1.567-.604-1.792-1.471-.072-.281-.264-.517-.524-.646-.14-.068-.291-.104-.443-.104-.132,0-.264.026-.388.078-.834.35-1.748.015-2.226-.739-.367-.578-1.322-.578-1.689,0-.35.552-.928.881-1.547.881-.139,0-.273-.019-.403-.05-.085-.046-.176-.072-.274-.091-.696-.292-1.192-1.013-1.192-1.859,0-.692.333-1.326.891-1.695.433-.286.574-.854.327-1.311-.174-.321-.262-.655-.262-.994,0-1.103.839-2,1.87-2,.779,0,1.463.51,1.74,1.299.118.334.403.581.751.649.353.069.704-.054.94-.317.521-.589,1.305-.794,2.03-.489.269.112.572.102.832-.025.26-.129.451-.365.523-.646.225-.865.961-1.47,1.791-1.47.619,0,1.197.329,1.547.881.367.578,1.322.578,1.689,0,.35-.552.928-.881,1.547-.881,1.03,0,1.869.897,1.869,2,0,.255-.048.509-.144.756-.101.263-.087.555.039.807.126.251.352.438.622.515.821.233,1.396,1.023,1.396,1.923,0,1.103-.839,2-1.869,2ZM46,50c0,.552-.448,1-1,1h-3v-12h3c.552,0,1,.448,1,1v10Z"/>
  <path d="M44,11c.553,0,1-.447,1-1v-2c0-.553-.447-1-1-1s-1,.447-1,1v2c0,.553.447,1,1,1Z"/>
  <path d="M40,13h2c.553,0,1-.447,1-1s-.447-1-1-1h-2c-.553,0-1,.447-1,1s.447,1,1,1Z"/>
  <path d="M44,13c-.553,0-1,.447-1,1v2c0,.553.447,1,1,1s1-.447,1-1v-2c0-.553-.447-1-1-1Z"/>
  <path d="M46,13h2c.553,0,1-.447,1-1s-.447-1-1-1h-2c-.553,0-1,.447-1,1s.447,1,1,1Z"/>
  <path d="M51,18c.553,0,1-.447,1-1v-2c0-.553-.447-1-1-1s-1,.447-1,1v2c0,.553.447,1,1,1Z"/>
  <path d="M49,18h-2c-.553,0-1,.447-1,1s.447,1,1,1h2c.553,0,1-.447,1-1s-.447-1-1-1Z"/>
  <path d="M51,20c-.553,0-1,.447-1,1v2c0,.553.447,1,1,1s1-.447,1-1v-2c0-.553-.447-1-1-1Z"/>
  <path d="M55,18h-2c-.553,0-1,.447-1,1s.447,1,1,1h2c.553,0,1-.447,1-1s-.447-1-1-1Z"/>
  <path d="M40.293,14.293l-.172.172c-2.013,2.013-3.121,4.688-3.121,7.535,0,.553.447,1,1,1s1-.447,1-1c0-2.312.9-4.486,2.535-6.121l.172-.172c.391-.391.391-1.023,0-1.414s-1.023-.391-1.414,0Z"/>
  <path d="M47.293,21.293l-.586.586c-1.085,1.085-1.707,2.587-1.707,4.121,0,.553.447,1,1,1s1-.447,1-1c0-1.008.408-1.994,1.121-2.707l.586-.586c.391-.391.391-1.023,0-1.414s-1.023-.391-1.414,0Z"/>
  <path d="M20,11c.553,0,1-.447,1-1v-2c0-.553-.447-1-1-1s-1,.447-1,1v2c0,.553.447,1,1,1Z"/>
  <path d="M22,13h2c.553,0,1-.447,1-1s-.447-1-1-1h-2c-.553,0-1,.447-1,1s.447,1,1,1Z"/>
  <path d="M21,16v-2c0-.553-.447-1-1-1s-1,.447-1,1v2c0,.553.447,1,1,1s1-.447,1-1Z"/>
  <path d="M16,13h2c.553,0,1-.447,1-1s-.447-1-1-1h-2c-.553,0-1,.447-1,1s.447,1,1,1Z"/>
  <path d="M13,18c.553,0,1-.447,1-1v-2c0-.553-.447-1-1-1s-1,.447-1,1v2c0,.553.447,1,1,1Z"/>
  <path d="M17,20c.553,0,1-.447,1-1s-.447-1-1-1h-2c-.553,0-1,.447-1,1s.447,1,1,1h2Z"/>
  <path d="M13,20c-.553,0-1,.447-1,1v2c0,.553.447,1,1,1s1-.447,1-1v-2c0-.553-.447-1-1-1Z"/>
  <path d="M23.707,14.293c-.391-.391-1.023-.391-1.414,0s-.391,1.023,0,1.414l.172.172c1.635,1.635,2.535,3.809,2.535,6.121,0,.553.447,1,1,1s1-.447,1-1c0-2.847-1.108-5.522-3.121-7.535l-.172-.172Z"/>
  <path d="M16.707,21.293c-.391-.391-1.023-.391-1.414,0s-.391,1.023,0,1.414l.586.586c.713.713,1.121,1.699,1.121,2.707,0,.553.447,1,1,1s1-.447,1-1c0-1.534-.622-3.036-1.707-4.121l-.586-.586Z"/>
  <path d="M34,20c.553,0,1-.447,1-1,0-2.312.9-4.486,2.535-6.121l.172-.172c.391-.391.391-1.023,0-1.414s-1.023-.391-1.414,0l-.172.172c-2.013,2.013-3.121,4.688-3.121,7.535,0,.553.447,1,1,1Z"/>
  <path d="M26.465,12.879c1.635,1.635,2.535,3.809,2.535,6.121,0,.553.447,1,1,1s1-.447,1-1c0-2.847-1.108-5.522-3.121-7.535l-.172-.172c-.391-.391-1.023-.391-1.414,0s-.391,1.023,0,1.414l.172.172Z"/>
  <circle cx="23" cy="43" r="1"/>
</svg>