<?xml version="1.0" encoding="UTF-8"?>
<svg id="Outline" xmlns="http://www.w3.org/2000/svg" version="1.1" viewBox="0 0 64 64">
  <!-- Generator: Adobe Illustrator 29.5.1, SVG Export Plug-In . SVG Version: 2.1.0 Build 141)  -->
  <path d="M52,43h-1V10c0-1.65-1.35-3-3-3h-20c-.55,0-1,.45-1,1s.45,1,1,1h20c.55,0,1,.45,1,1v33h-2V12c0-.55-.45-1-1-1h-28c-.55,0-1,.45-1,1v31h-2V10c0-.55.45-1,1-1h4c.55,0,1-.45,1-1s-.45-1-1-1h-4c-1.65,0-3,1.35-3,3v33h-1c-.55,0-1,.45-1,1v4c0,.55.45,1,1,1h1v7c0,.55.45,1,1,1h4c.55,0,1-.45,1-1v-7h26v7c0,.55.45,1,1,1h4c.55,0,1-.45,1-1v-7h1c.55,0,1-.45,1-1v-4c0-.55-.45-1-1-1ZM38,16v-3h7v30h-2v-23c0-.55-.45-1-1-1h-9v-2h4c.55,0,1-.45,1-1ZM23,39v-2h18v2h-18ZM41,41v2h-2v-2h2ZM37,41v2h-2v-2h2ZM33,41v2h-2v-2h2ZM29,41v2h-2v-2h2ZM25,41v2h-2v-2h2ZM23,35v-6h2v6h-2ZM27,35v-6h2v6h-2ZM31,35v-6h2v6h-2ZM35,35v-6h2v6h-2ZM39,35v-6h2v6h-2ZM23,27v-2h18v2h-18ZM23,23v-2h2v2h-2ZM27,23v-2h2v2h-2ZM31,23v-2h2v2h-2ZM35,23v-2h2v2h-2ZM39,23v-2h2v2h-2ZM28,13h8v2h-8v-2ZM19,13h7v3c0,.55.45,1,1,1h4v2h-9c-.55,0-1,.45-1,1v23h-2V13ZM17,55h-2v-6h2v6ZM49,55h-2v-6h2v6ZM51,47H13v-2h38v2Z"/>
  <circle cx="24" cy="8" r="1"/>
</svg>