<?xml version="1.0" encoding="UTF-8"?>
<svg id="Outline" xmlns="http://www.w3.org/2000/svg" version="1.1" viewBox="0 0 64 64">
  <!-- Generator: Adobe Illustrator 29.5.1, SVG Export Plug-In . SVG Version: 2.1.0 Build 141)  -->
  <path d="M56,7h-13.5c-1.32,0-2.51.89-2.88,2.16l-6.37,21.84h-2.5l-6.37-21.84c-.37-1.27-1.56-2.16-2.88-2.16h-13.5c-.55,0-1,.45-1,1v2c0,2.05,1.24,3.8,3,4.58v1.42c0,2.05,1.24,3.8,3,4.58v1.42c0,2.76,2.24,5,5,5h4.28l1.33,4h-7.61c-1.65,0-3,1.35-3,3v20c0,1.65,1.35,3,3,3h32c1.65,0,3-1.35,3-3v-20c0-1.65-1.35-3-3-3h-7.61l1.33-4h4.28c2.76,0,5-2.24,5-5v-1.42c1.76-.78,3-2.53,3-4.58v-1.42c1.76-.78,3-2.53,3-4.58v-2c0-.55-.45-1-1-1ZM39,33v7.72l-6.76-1.69c-.08-.02-.16-.03-.24-.03s-.16.01-.24.03l-6.76,1.69v-7.72h14ZM23,25h-5c-1.65,0-3-1.35-3-3v-1h6c.55,0,1-.45,1-1s-.45-1-1-1h-6c-1.65,0-3-1.35-3-3v-1h8c.55,0,1-.45,1-1s-.45-1-1-1h-8c-1.65,0-3-1.35-3-3v-1h12.5c.44,0,.84.3.96.72l6.21,21.28h-2.95l-1.77-5.32c-.14-.4-.52-.68-.95-.68ZM40.614,42.783c.233-.185.386-.47.386-.783v-9h7c.55,0,1,.45,1,1v20c0,.55-.45,1-1,1H16c-.55,0-1-.45-1-1v-20c0-.55.45-1,1-1h7v9c0,.31.14.6.38.79.25.19.56.25.86.18l7.76-1.94,7.76,1.94c.08.02.16.03.24.03.229,0,.444-.082.614-.217ZM55,10c0,1.65-1.35,3-3,3h-8c-.55,0-1,.45-1,1s.45,1,1,1h8v1c0,1.65-1.35,3-3,3h-6c-.55,0-1,.45-1,1s.45,1,1,1h6v1c0,1.65-1.35,3-3,3h-5c-.43,0-.81.28-.95.68l-1.77,5.32h-2.95l6.21-21.28c.12-.42.52-.72.96-.72h12.5v1Z"/>
  <path d="M26,47h-8c-.553,0-1,.448-1,1v4c0,.552.447,1,1,1h8c.553,0,1-.448,1-1v-4c0-.552-.447-1-1-1ZM25,51h-6v-2h6v2Z"/>
</svg>