<?xml version="1.0" encoding="UTF-8"?>
<svg id="Outline" xmlns="http://www.w3.org/2000/svg" version="1.1" viewBox="0 0 64 64">
  <!-- Generator: Adobe Illustrator 29.5.1, SVG Export Plug-In . SVG Version: 2.1.0 Build 141)  -->
  <circle cx="19.705" cy="12" r="1"/>
  <circle cx="17.705" cy="15" r="1"/>
  <circle cx="22.705" cy="16" r="1"/>
  <path d="M48.663,45.713c-.158-.529-.715-.829-1.245-.671-.529.159-.829.716-.671,1.245l2.562,8.54c-1.531-.385-2.862-1.393-3.646-2.815l-4.08-7.49c-.141-.258-.388-.441-.677-.501-.285-.059-.588.012-.819.193l-11.961,9.4c-1.134.894-2.559,1.386-4.011,1.386-2.806,0-5.285-1.787-6.172-4.446l-3.351-10.054c-.197-.584-.298-1.193-.298-1.81,0-3.137,2.562-5.69,5.71-5.69s5.7,2.557,5.7,5.7v8.3c0,.413.254.784.64.933.384.148.822.046,1.101-.26l7.99-8.791c1.085-1.196,2.635-1.882,4.25-1.882,2.562,0,4.772,1.646,5.503,4.099l.359,1.19c.159.529.716.828,1.246.668.528-.16.828-.718.668-1.247l-.357-1.186c-.983-3.305-3.965-5.525-7.419-5.525-2.179,0-4.268.925-5.73,2.537l-6.25,6.876v-5.713c0-2.295-1.014-4.352-2.612-5.764,1.553-.181,3.042-.783,4.27-1.75l11.029-8.669,3.517,6.456c1.368,2.484,3.973,4.027,6.796,4.027.316,0,.613-.149.803-.403.188-.253.246-.581.155-.884l-2.4-8c-.159-.529-.714-.827-1.245-.67-.529.159-.829.716-.671,1.246l1.963,6.54c-1.531-.385-2.862-1.393-3.646-2.815l-4.08-7.49c-.141-.258-.388-.441-.677-.501-.285-.059-.588.011-.819.193l-11.961,9.4c-1.134.894-2.559,1.386-4.011,1.386-2.806,0-5.285-1.787-6.172-4.446l-3.351-10.054c-.197-.584-.298-1.193-.298-1.81,0-3.137,2.562-5.69,5.71-5.69s5.7,2.557,5.7,5.7v8.3c0,.413.254.784.64.933.384.148.822.046,1.101-.26l7.99-8.791c1.085-1.196,2.635-1.882,4.25-1.882,2.562,0,4.772,1.646,5.502,4.098l.96,3.19c.159.528.715.829,1.246.669.529-.159.829-.717.67-1.246l-.959-3.187c-.983-3.305-3.965-5.525-7.419-5.525-2.179,0-4.268.925-5.73,2.537l-6.25,6.876v-5.713c0-4.246-3.454-7.7-7.7-7.7s-7.71,3.45-7.71,7.69c0,.835.136,1.66.402,2.446l3.35,10.05c.529,1.588,1.507,2.92,2.747,3.919-3.676.583-6.499,3.757-6.499,7.585,0,.835.136,1.66.402,2.446l3.35,10.05c1.158,3.478,4.4,5.814,8.068,5.814,1.899,0,3.764-.645,5.248-1.814l11.029-8.669,3.517,6.456c1.368,2.484,3.973,4.027,6.796,4.027.316,0,.613-.149.803-.403.188-.254.246-.582.155-.884l-3-10Z"/>
  <circle cx="19.705" cy="36" r="1"/>
  <circle cx="17.705" cy="39" r="1"/>
  <circle cx="22.705" cy="40" r="1"/>
  <path d="M20.412,45.536c.691-.691,1.895-.691,2.586,0,.195.195.451.293.707.293.872,0,1.325-1.089.707-1.707-1.445-1.446-3.969-1.446-5.414,0-.391.391-.391,1.024,0,1.414.391.391,1.023.391,1.414,0Z"/>
  <path d="M21.412,49.707c.713-.713,1.873-.713,2.586,0,.195.195.451.293.707.293.874,0,1.322-1.092.707-1.707-1.492-1.493-3.922-1.493-5.414,0-.391.391-.391,1.023,0,1.414s1.023.391,1.414,0Z"/>
  <path d="M19.412,21.536c.691-.691,1.895-.691,2.586,0,.195.195.451.293.707.293.873,0,1.325-1.089.707-1.707-1.445-1.446-3.969-1.446-5.414,0-.391.391-.391,1.024,0,1.414.391.391,1.023.391,1.414,0Z"/>
  <path d="M20.412,25.707c.713-.713,1.873-.713,2.586,0,.195.195.451.293.707.293.871,0,1.322-1.093.707-1.707-1.492-1.493-3.922-1.493-5.414,0-.391.391-.391,1.023,0,1.414s1.023.391,1.414,0Z"/>
</svg>