<?xml version="1.0" encoding="UTF-8"?>
<svg id="Outline" xmlns="http://www.w3.org/2000/svg" version="1.1" viewBox="0 0 64 64">
  <!-- Generator: Adobe Illustrator 29.5.1, SVG Export Plug-In . SVG Version: 2.1.0 Build 141)  -->
  <path d="M54,11h-5v-1c0-1.65-1.35-3-3-3s-3,1.35-3,3v1h-22v-1c0-1.65-1.35-3-3-3s-3,1.35-3,3v1h-5c-1.65,0-3,1.35-3,3v40c0,1.65,1.35,3,3,3h44c1.65,0,3-1.35,3-3V14c0-1.65-1.35-3-3-3ZM45,10c0-.55.45-1,1-1s1,.45,1,1v4c0,.55-.45,1-1,1s-1-.45-1-1v-4ZM21,14v-1h22v1c0,.35.07.69.18,1h-22.36c.11-.31.18-.65.18-1ZM17,10c0-.55.45-1,1-1s1,.45,1,1v4c0,.55-.45,1-1,1s-1-.45-1-1v-4ZM31.06,55l15.18-1.9.36,1.44c.04.16.1.31.16.46h-15.7ZM51,53.75c0,.69-.56,1.25-1.25,1.25-.57,0-1.07-.39-1.21-.94l-.57-2.3c-.12-.49-.59-.81-1.09-.75l-31.94,3.99h-.94c-.55,0-1-.45-1-1v-20c0-.55-.45-1-1-1s-1,.45-1,1v20c0,.35.07.69.18,1h-1.18c-.55,0-1-.45-1-1V21h2v5c0,.55.45,1,1,1s1-.45,1-1v-5h38v32.75ZM55,54c0,.55-.45,1-1,1h-1.25c.16-.38.25-.8.25-1.25V21h2v33ZM55,19H9v-5c0-.55.45-1,1-1h5v1c0,.35.07.69.18,1h-3.18c-.55,0-1,.45-1,1s.45,1,1,1h40c.55,0,1-.45,1-1s-.45-1-1-1h-3.18c.11-.31.18-.65.18-1v-1h5c.55,0,1,.45,1,1v5Z"/>
  <path d="M18.293,39.707c.387.387,1.025.389,1.414,0l1.707-1.707h6.728c.094.363.238.704.425,1.019l-4.759,4.759h-2.414c-.553,0-1,.447-1,1s.447,1,1,1h1.828v1.828c0,.553.447,1,1,1s1-.447,1-1v-2.414l4.759-4.759c.316.186.656.33,1.019.425v6.728l-1.707,1.707c-.391.391-.391,1.023,0,1.414s1.023.391,1.414,0l1.293-1.293,1.293,1.293c.195.195.451.293.706.293.865,0,1.32-1.095.708-1.707l-1.707-1.707v-6.728c.363-.094.704-.238,1.019-.425l4.759,4.759v2.414c0,.553.447,1,1,1s1-.447,1-1v-1.828h1.828c.553,0,1-.447,1-1s-.447-1-1-1h-2.414l-4.759-4.759c.186-.316.33-.656.425-1.019h6.728l1.707,1.707c.388.388,1.027.387,1.414,0,.391-.391.391-1.023,0-1.414l-1.293-1.293,1.293-1.293c.391-.391.391-1.023,0-1.414s-1.023-.391-1.414,0l-1.707,1.707h-6.728c-.094-.363-.238-.704-.425-1.019l4.759-4.759h2.414c.553,0,1-.447,1-1s-.447-1-1-1h-1.828v-1.828c0-.553-.447-1-1-1s-1,.447-1,1v2.414l-4.759,4.759c-.316-.186-.656-.33-1.019-.425v-6.728l1.707-1.707c.391-.391.391-1.023,0-1.414s-1.023-.391-1.414,0l-1.293,1.293-1.293-1.293c-.391-.391-1.023-.391-1.414,0s-.391,1.023,0,1.414l1.707,1.707v6.728c-.363.094-.704.238-1.019.425l-4.759-4.759v-2.414c0-.553-.447-1-1-1s-1,.447-1,1v1.828h-1.828c-.553,0-1,.447-1,1s.447,1,1,1h2.414l4.759,4.759c-.186.316-.33.656-.425,1.019h-6.728l-1.707-1.707c-.391-.391-1.023-.391-1.414,0s-.391,1.023,0,1.414l1.293,1.293-1.293,1.293c-.391.391-.391,1.023,0,1.414ZM32,35c1.103,0,2,.897,2,2s-.897,2-2,2-2-.897-2-2,.897-2,2-2Z"/>
  <circle cx="12" cy="30" r="1"/>
</svg>