<?xml version="1.0" encoding="UTF-8"?>
<svg id="Outline" xmlns="http://www.w3.org/2000/svg" version="1.1" viewBox="0 0 64 64">
  <!-- Generator: Adobe Illustrator 29.5.1, SVG Export Plug-In . SVG Version: 2.1.0 Build 141)  -->
  <path d="M54.426,18.01l-3.35-.68c-.3-1.33-1.5-2.33-2.92-2.33h-1v-4.53c0-.95-.39-1.82-1.02-2.45-.63-.63-1.5-1.02-2.45-1.02h-27.53c-1.65,0-3,1.35-3,3v19.84c-3.53,1.55-6,5.07-6,9.16s2.47,7.61,6,9.16v1.84c0,1.65,1.35,3,3,3h1v1c0,1.65,1.35,3,3,3h28c1.65,0,3-1.35,3-3v-4.43l5.63-28.03c.32-1.62-.73-3.21-2.36-3.53ZM9.156,39c0-4.41,3.59-8,8-8s8,3.59,8,8-3.59,8-8,8-8-3.59-8-8ZM16.156,51c-.55,0-1-.45-1-1v-1.2c.65.13,1.32.2,2,.2,5.51,0,10-4.49,10-10s-4.49-10-10-10c-.68,0-1.35.07-2,.2V10c0-.55.45-1,1-1h27.53c.81,0,1.47.66,1.47,1.47,0,.56-.31,1.07-.81,1.32l-2.64,1.32c-.41.2-.63.66-.53,1.11l3.98,17.89v17.89c0,.55-.45,1-1,1h-28ZM45.156,13.62v9.27l-1.85-8.34,1.85-.93ZM49.156,54c0,.55-.45,1-1,1h-28c-.55,0-1-.45-1-1v-1h25c1.65,0,3-1.35,3-3V17h1c.55,0,1,.45,1,1v36ZM51.156,39.41v-20.02l2.88.58c.54.11.89.63.79,1.18l-3.67,18.26Z"/>
  <path d="M17.863,43.707l3.625-3.625c1.39-1.389,1.39-3.65,0-5.04-1.173-1.172-2.968-1.355-4.332-.548-1.366-.807-3.16-.624-4.332.549-1.39,1.389-1.39,3.65,0,5.039l3.625,3.625c.195.195.451.293.707.293s.512-.098.707-.293ZM14.238,38.668c-.609-.609-.609-1.602,0-2.21.305-.305.705-.457,1.105-.457s.801.152,1.105.457c.391.39,1.023.39,1.414,0,.609-.61,1.602-.61,2.211,0s.609,1.602,0,2.211l-2.918,2.917-2.918-2.917Z"/>
  <path d="M18.156,17h4c.553,0,1-.448,1-1v-4c0-.552-.447-1-1-1h-4c-.553,0-1,.448-1,1v4c0,.552.447,1,1,1ZM19.156,13h2v2h-2v-2Z"/>
  <path d="M26.156,13h12c.553,0,1-.448,1-1s-.447-1-1-1h-12c-.553,0-1,.448-1,1s.447,1,1,1Z"/>
  <path d="M26.156,17h8c.553,0,1-.448,1-1s-.447-1-1-1h-8c-.553,0-1,.448-1,1s.447,1,1,1Z"/>
  <path d="M18.156,21h12c.553,0,1-.448,1-1s-.447-1-1-1h-12c-.553,0-1,.448-1,1s.447,1,1,1Z"/>
  <path d="M26.156,23h-8c-.553,0-1,.448-1,1s.447,1,1,1h8c.553,0,1-.448,1-1s-.447-1-1-1Z"/>
</svg>