<?xml version="1.0" encoding="UTF-8"?>
<svg id="Outline" xmlns="http://www.w3.org/2000/svg" version="1.1" viewBox="0 0 64 64">
  <!-- Generator: Adobe Illustrator 29.5.1, SVG Export Plug-In . SVG Version: 2.1.0 Build 141)  -->
  <path d="M38.424,53.82l-3.47-20.43c-.17-1.12-1.07-2.01-2.22-2.29,0,0,0-5.089,0-5.1,0-.254-.111-.531-.29-.71l-4-4c-.19-.18-.44-.29-.71-.29h-10c-.27,0-.52.11-.71.29,0,0-4,4-4,4.01-.092.092-.165.205-.207.328-.041.118-.083.246-.083.372v5.1c-1.15.28-2.05,1.16-2.22,2.27l-3.47,20.47c-.11.75.12,1.52.63,2.11.57.67,1.42,1.05,2.34,1.05h8.72c.55,0,1-.45,1-1s-.45-1-1-1h-8.72c-.33,0-.64-.13-.83-.35-.09-.11-.2-.28-.16-.49l3.47-20.47c.06-.39.49-.69.99-.69h18.5c.5,0,.93.3.99.71l3.47,20.43c.04.23-.07.4-.16.51-.19.22-.5.35-.83.35h-8.72c-.55,0-1,.45-1,1s.45,1,1,1h8.72c.92,0,1.77-.38,2.34-1.05.51-.59.74-1.36.63-2.13ZM18.144,23h9.18l2,2h-13.18l2-2ZM16.734,31h-2v-4h2v4ZM26.734,31h-8v-4h8v4ZM30.734,31h-2v-4h2v4Z"/>
  <path d="M16.971,50.646c.19.225.469.354.763.354h10c.294,0,.573-.129.763-.354s.271-.521.223-.811l-.617-3.703,3.003-1.205c.496-.199.748-.753.571-1.258l-1.57-4.488c-.359-1.285-1.544-2.182-2.883-2.182h-2.49c-.552,0-1,.447-1,1s-.449,1-1,1-1-.448-1-1-.448-1-1-1h-2.49c-1.339,0-2.524.896-2.864,2.12l-1.59,4.55c-.167.476.047,1,.498,1.225l3.031,1.512-.571,3.43c-.048.29.033.586.223.811ZM15.969,43.498l1.319-3.779c.118-.423.511-.719.957-.719h1.662c.413,1.164,1.525,2,2.829,2s2.416-.836,2.829-2h1.662c.445,0,.838.296.976.78l1.274,3.647-1.696.681-.065-.313c-.112-.532-.63-.878-1.164-.777-.535.101-.891.61-.802,1.146l.806,4.836h-7.639l.806-4.836c.091-.544-.277-1.06-.822-1.15-.546-.096-1.06.277-1.151.822l-.084.508-1.695-.846Z"/>
  <path d="M54.441,9.545c-1.641-1.642-3.823-2.545-6.144-2.545-2.001,0-3.9.672-5.437,1.91-1.537-1.238-3.436-1.91-5.437-1.91-2.321,0-4.503.903-6.144,2.545-3.387,3.388-3.387,8.9,0,12.288l10.874,10.874c.195.195.451.293.707.293s.512-.098.707-.293l10.874-10.874c3.388-3.388,3.388-8.9,0-12.288ZM53.027,20.419l-10.167,10.167-10.167-10.167c-2.607-2.608-2.607-6.852,0-9.46,1.304-1.304,3.017-1.956,4.73-1.956s3.426.652,4.73,1.956c.391.391,1.023.391,1.414,0,2.608-2.607,6.852-2.607,9.46,0,2.608,2.608,2.608,6.852,0,9.46Z"/>
  <path d="M44.86,18h-1v-1c0-.553-.448-1-1-1s-1,.447-1,1v1h-1c-.552,0-1,.447-1,1s.448,1,1,1h1v1c0,.553.448,1,1,1s1-.447,1-1v-1h1c.552,0,1-.447,1-1s-.448-1-1-1Z"/>
  <path d="M42.86,12.126c-3.791,0-6.874,3.084-6.874,6.874s3.083,6.874,6.874,6.874,6.874-3.084,6.874-6.874-3.083-6.874-6.874-6.874ZM42.86,23.874c-2.688,0-4.874-2.187-4.874-4.874s2.187-4.874,4.874-4.874,4.874,2.187,4.874,4.874-2.187,4.874-4.874,4.874Z"/>
  <circle cx="22.734" cy="56" r="1"/>
</svg>