<?xml version="1.0" encoding="UTF-8"?>
<svg id="Outline" xmlns="http://www.w3.org/2000/svg" version="1.1" viewBox="0 0 48 48">
  <!-- Generator: Adobe Illustrator 29.0.0, SVG Export Plug-In . SVG Version: 2.1.0 Build 186)  -->
  <path d="M38.42529,9.85596c-.92578-.92529-2.32129-1.09766-3.42529-.521-1.10107-.57764-2.49805-.40479-3.42529.52051-.55225.55225-.85596,1.28613-.85596,2.06689,0,.78027.30371,1.51416.85596,2.06641l2.71826,2.71826c.19531.19531.45117.29297.70703.29297s.51172-.09766.70703-.29297l2.71826-2.71826c.55225-.55225.85596-1.28613.85596-2.06641,0-.78076-.30371-1.51465-.85596-2.06641ZM37.01123,12.57471l-2.01123,2.01123-2.01123-2.01123c-.17429-.17429-.26999-.40618-.27002-.65223-.00006-.5056.4166-.92247.92236-.92247.24609,0,.47754.09619.65186.27002.39062.39062,1.02344.39062,1.41406,0,.34863-.34814.95557-.34766,1.3042.00049.17432.17383.27002.40527.27002.65186,0,.24609-.0957.47803-.27002.65234Z"/>
  <path d="M35,5c-.62,0-1.21002.07996-1.78998.20996-.39001-.13-.80005-.20996-1.21002-.20996H9c-2.21002,0-4,1.78998-4,4v8c0,.54999.45001,1,1,1s1-.45001,1-1v-8c0-1.10004.90002-2,2-2s2,.89996,2,2v13h-4v-1c0-.54999-.45001-1-1-1s-1,.45001-1,1v2c0,.54999.45001,1,1,1h5v16c0,1.64996,1.34998,3,3,3h19c1.65002,0,3-1.35004,3-3v-4c0-.54999-.45001-1-1-1s-1,.45001-1,1v4c0,.54999-.45001,1-1,1H14c-.54999,0-1-.45001-1-1V9c0-.73004-.21002-1.41003-.56-2h17.28998c-.64996.57001-1.20996,1.25-1.64996,2h-12.08002c-.54999,0-1,.45001-1,1v4c0,.54999.45001,1,1,1h11.26001c.19.70996.45996,1.38.82001,2h-4.08002c-.54999,0-1,.45001-1,1s.45001,1,1,1h5.72998c1.17004,1.02997,2.64001,1.72998,4.27002,1.92999v11.07001c0,.54999.45001,1,1,1s1-.45001,1-1v-11.07001c3.94-.48999,7-3.85999,7-7.92999,0-4.41003-3.59003-8-8-8ZM27,13h-10v-2h10.26001c-.16003.64001-.26001,1.31-.26001,2ZM35,19c-3.31,0-6-2.69-6-6s2.69-6,6-6,6,2.69,6,6-2.69,6-6,6Z"/>
  <path d="M18,33c-1.6543,0-3,1.3457-3,3s1.3457,3,3,3,3-1.3457,3-3-1.3457-3-3-3ZM18,37c-.55127,0-1-.44873-1-1s.44873-1,1-1,1,.44873,1,1-.44873,1-1,1Z"/>
  <path d="M31,37h-7c-.55225,0-1,.44775-1,1s.44775,1,1,1h7c.55225,0,1-.44775,1-1s-.44775-1-1-1Z"/>
  <path d="M31,33h-7c-.55225,0-1,.44775-1,1s.44775,1,1,1h7c.55225,0,1-.44775,1-1s-.44775-1-1-1Z"/>
  <path d="M18,25c-1.6543,0-3,1.3457-3,3s1.3457,3,3,3,3-1.3457,3-3-1.3457-3-3-3ZM18,29c-.55127,0-1-.44873-1-1s.44873-1,1-1,1,.44873,1,1-.44873,1-1,1Z"/>
  <path d="M31,29h-7c-.55225,0-1,.44775-1,1s.44775,1,1,1h7c.55225,0,1-.44775,1-1s-.44775-1-1-1Z"/>
  <path d="M31,25h-7c-.55225,0-1,.44775-1,1s.44775,1,1,1h7c.55225,0,1-.44775,1-1s-.44775-1-1-1Z"/>
  <path d="M18,17c-1.6543,0-3,1.3457-3,3s1.3457,3,3,3,3-1.3457,3-3-1.3457-3-3-3ZM18,21c-.55127,0-1-.44873-1-1s.44873-1,1-1,1,.44873,1,1-.44873,1-1,1Z"/>
  <path d="M31,21h-7c-.55225,0-1,.44775-1,1s.44775,1,1,1h7c.55225,0,1-.44775,1-1s-.44775-1-1-1Z"/>
</svg>