<?xml version="1.0" encoding="UTF-8"?>
<svg id="Outline" xmlns="http://www.w3.org/2000/svg" version="1.1" viewBox="0 0 64 64">
  <!-- Generator: Adobe Illustrator 29.3.1, SVG Export Plug-In . SVG Version: 2.1.0 Build 151)  -->
  <path d="M54,33h-13V11c0-2.21002-1.78998-4-4-4H11c-2.21002,0-4,1.78998-4,4v3c0,.54999.45001,1,1,1h5v25c0,1.64996,1.34998,3,3,3h6.09003l2.92999,13.21997c.10999.45001.51001.78003.97998.78003h24c.46997,0,.87-.33002.97998-.78003l3.85004-17.34998c1.25-.37,2.16998-1.51001,2.16998-2.87,0-1.65002-1.34998-3-3-3ZM13,13h-4v-2c0-1.10004.90002-2,2-2s2,.89996,2,2v2ZM16,41c-.54999,0-1-.45001-1-1V11c0-.73004-.21002-1.41003-.56-2h22.56c1.09998,0,2,.89996,2,2v22h-17c-1.65002,0-3,1.34998-3,3,0,1.35999.91998,2.5,2.16998,2.87l.47003,2.13h-5.64001ZM23.25,39h6.84998l.45001,4h-6.40997l-.89001-4ZM24.58002,45h6.19l.44995,4h-5.75l-.88995-4ZM26.79999,55l-.89001-4h5.53003l.37,3.32996c.02002.24005.09003.46002.15997.67004h-5.16998ZM37,55h-2.21002c-.50995,0-.94-.38-.98999-.89001l-.34998-3.10999h3.54999v4ZM37,49h-3.77002l-.44995-4h4.21997v4ZM37,43h-4.44l-.44-4h4.88v4ZM42.20001,54.10999c-.04999.51001-.48004.89001-.98999.89001h-2.21002v-4h3.54999l-.34998,3.10999ZM42.77002,49h-3.77002v-4h4.21997l-.44995,4ZM43.44,43h-4.44v-4h4.88l-.44,4ZM49.20001,55h-5.16998c.06995-.21002.13995-.42999.15997-.67004l.37-3.32996h5.53003l-.89001,4ZM50.53003,49h-5.75l.44995-4h6.19l-.88995,4ZM51.85999,43h-6.40997l.45001-4h6.84998l-.89001,4ZM54,37H22c-.54999,0-1-.45001-1-1s.45001-1,1-1h32c.54999,0,1,.45001,1,1s-.45001,1-1,1Z"/>
  <path d="M26.29297,23.70703c.19531.19531.45117.29297.70703.29297s.51172-.09766.70703-.29297l4.53125-4.53125c1.63867-1.63867,1.63867-4.30566,0-5.94434-1.42285-1.41992-3.61426-1.6084-5.23828-.56934-1.62598-1.03906-3.81836-.85059-5.23828.56934-1.63867,1.63867-1.63867,4.30566,0,5.94434l4.53125,4.53125ZM23.17578,14.64551c.42969-.42969.99414-.64453,1.55859-.64453s1.12891.21484,1.55859.64453c.39062.39062,1.02344.39062,1.41406,0,.85938-.85938,2.25781-.85938,3.11719,0s.85938,2.25684,0,3.11621l-3.82422,3.82422-3.82422-3.82422c-.85938-.85938-.85938-2.25684,0-3.11621Z"/>
  <path d="M18,28h18c.55273,0,1-.44727,1-1s-.44727-1-1-1h-18c-.55273,0-1,.44727-1,1s.44727,1,1,1Z"/>
  <path d="M29,31c0-.55273-.44727-1-1-1h-10c-.55273,0-1,.44727-1,1s.44727,1,1,1h10c.55273,0,1-.44727,1-1Z"/>
</svg>