<?xml version="1.0" encoding="UTF-8"?>
<svg id="Outline" xmlns="http://www.w3.org/2000/svg" version="1.1" viewBox="0 0 64 64">
  <!-- Generator: Adobe Illustrator 29.5.1, SVG Export Plug-In . SVG Version: 2.1.0 Build 141)  -->
  <path d="M56.77,35.369c-.19-.24-.47-.37-.77-.37H8c-.3,0-.58.13-.77.37-.19.23-.27.53-.21.83l.08.38c2.36,11.83,12.84,20.42,24.9,20.42s22.54-8.59,24.9-20.41l.08-.39c.06-.3-.02-.6-.21-.83ZM32,54.999c-9.4,0-17.74-5.66-21.41-14h42.82c-3.67,8.34-12.01,14-21.41,14ZM54.18,39.039c-.06-.02-.12-.04-.18-.04H10c-.06,0-.12.02-.18.04-.22-.67-.42-1.35-.58-2.04h45.52c-.16.69-.36,1.37-.58,2.04Z"/>
  <path d="M47.45,21.109c-.5-.25-1.1-.05-1.34.44l-.36.72c-.75,1.5-2.27,2.4-3.91,2.4-.42-.51-.94-.92-1.52-1.23.44-1.09.68-2.26.68-3.44,0-2.48-.86-4.92-2.41-6.85l-1.81-2.27c-.28-.36-.77-.48-1.19-.29-.41.18-.65.62-.58,1.07l.16.92c.03.17.04.34.04.51,0,.29-.04.58-.13.86-.46-1.31-.5-2.75-.08-4.12l.46-1.55c.11-.38-.01-.79-.32-1.05-.3-.25-.73-.3-1.09-.12l-1.12.56c-1.38.69-2.55,1.64-3.47,2.8-.93,1.16-1.62,2.54-1.98,3.99-.19.76-.3,1.54-.31,2.32-.16-.45-.24-.92-.24-1.41,0-.25.02-.48.06-.7.07-.45-.17-.9-.59-1.09-.42-.18-.91-.05-1.19.31l-.25.31c-1.26,1.57-1.96,3.55-1.96,5.67,0,3.09,1.55,5.9,3.94,7.56-2.63.4-4.72.41-4.92.41h-.02c-.26,0-.52.1-.71.29-.18.19-.29.44-.29.71,0,.2.07.94.91,1.73,1.72,1.62,5.5,2.43,11.27,2.43,1.49,0,3.12-.05,4.88-.16,2.82-.18,4.94-2.33,4.94-5,0-.43-.07-.84-.17-1.23,2-.31,3.76-1.56,4.7-3.44l.36-.72c.25-.5.05-1.1-.44-1.34ZM25,19.789c0-.74.12-1.47.35-2.17.38,1,1.01,1.89,1.85,2.6l.66.55c.32.26.76.3,1.13.1.36-.2.56-.6.5-1.01l-.24-1.67c-.15-1.1-.1-2.18.17-3.24.29-1.17.84-2.29,1.6-3.23.53-.67,1.16-1.24,1.87-1.72-.47,2.26-.02,4.61,1.28,6.56.16.24.43.41.73.44.31.03.6-.08.81-.29.64-.64,1.09-1.44,1.33-2.31,1.26,1.58,1.96,3.57,1.96,5.6,0,1-.22,1.98-.63,2.88-.13-.01-.24-.04-.37-.04-1.88,0-3.12.97-4.32,1.9-.98.76-2,1.54-3.5,2.01-3.01-.79-5.18-3.64-5.18-6.96ZM37.94,30.839c-8.24.52-11.97-.33-13.63-1.1,1.54-.12,3.7-.37,5.93-.93,2.16-.54,3.55-1.62,4.67-2.49,1.1-.86,1.9-1.48,3.09-1.48,1.65,0,3,1.35,3,3,0,1.6-1.32,2.89-3.06,3Z"/>
</svg>