<?xml version="1.0" encoding="UTF-8"?>
<svg id="Outline" xmlns="http://www.w3.org/2000/svg" version="1.1" viewBox="0 0 64 64">
  <!-- Generator: Adobe Illustrator 29.5.1, SVG Export Plug-In . SVG Version: 2.1.0 Build 141)  -->
  <path d="M36.001,16c0-.552-.448-1-1-1h-10c-.552,0-1,.448-1,1s.448,1,1,1h10c.552,0,1-.448,1-1Z"/>
  <path d="M29.001,13h6c.552,0,1-.448,1-1s-.448-1-1-1h-6c-.552,0-1,.448-1,1s.448,1,1,1Z"/>
  <path d="M54.551,41.17l-5.55-3.71v-6.92l5.55-3.71c.28-.18.45-.5.45-.83s-.17-.65-.45-.83l-6-4c-.33-.23-.77-.23-1.1,0l-5.75,3.83h-4.7v-1c0-.55-.45-1-1-1h-5v-2h6c1.65,0,3-1.35,3-3v-8c0-1.65-1.35-3-3-3h-14c-1.65,0-3,1.35-3,3v8c0,1.65,1.35,3,3,3h6v2h-5c-.55,0-1,.45-1,1v1h-9c-1.65,0-3,1.35-3,3v4.59l-.29-.3c-.39-.39-1.03-.39-1.42,0-.39.39-.39,1.03,0,1.42l1.71,1.7v4.59c0,1.65,1.35,3,3,3h3.59l-.3.29c-.39.39-.39,1.03,0,1.42.366.366,1.025.375,1.42,0l2-2c.39-.39.39-1.03,0-1.42l-2-2c-.39-.39-1.03-.39-1.42,0-.39.39-.39,1.03,0,1.42l.3.29h-3.59c-.55,0-1-.45-1-1v-4.59l1.71-1.7c.39-.39.39-1.03,0-1.42-.39-.39-1.03-.39-1.42,0l-.29.3v-4.59c0-.55.45-1,1-1h9v1c0,.55.45,1,1,1h5v10h-5c-.55,0-1,.45-1,1v4c0,.55.45,1,1,1h5v6h-3c-.55,0-1,.45-1,1v4c0,.55.45,1,1,1h8c.55,0,1-.45,1-1v-4c0-.55-.45-1-1-1h-3v-6h5c.55,0,1-.45,1-1v-1h4.7l5.75,3.83c.16.11.36.17.55.17s.39-.06.55-.17l6-4c.28-.18.45-.5.45-.83s-.17-.65-.45-.83ZM48.001,23.2l4.2,2.8-4.2,2.8-4.2-2.8,4.2-2.8ZM23.001,19c-.55,0-1-.45-1-1v-8c0-.55.45-1,1-1h14c.55,0,1,.45,1,1v8c0,.55-.45,1-1,1h-14ZM25.001,27v-2h10v2h-10ZM33.001,53v2h-6v-2h6ZM35.001,43h-10v-2h10v2ZM37.001,41v-1c0-.55-.45-1-1-1h-5v-10h5c.55,0,1-.45,1-1v-1h4.7l5.3,3.54v6.92l-5.3,3.54h-4.7ZM48.001,44.8l-4.2-2.8,4.2-2.8,4.2,2.8-4.2,2.8Z"/>
</svg>