<?xml version="1.0" encoding="UTF-8"?>
<svg id="Outline" xmlns="http://www.w3.org/2000/svg" version="1.1" viewBox="0 0 64 64">
  <!-- Generator: Adobe Illustrator 29.5.1, SVG Export Plug-In . SVG Version: 2.1.0 Build 141)  -->
  <path d="M30.151,13.66c.198,0,.398-.059.572-.181,4.186-2.931,9.122-4.479,14.276-4.479,3.707,0,7.265.789,10.574,2.346.501.233,1.095.02,1.331-.479.234-.5.02-1.096-.479-1.331-3.578-1.682-7.423-2.535-11.426-2.535-5.567,0-10.9,1.674-15.423,4.841-.746.523-.406,1.819.574,1.82Z"/>
  <path d="M56.789,24.73c-2.87-3.64-7.17-5.73-11.79-5.73-4.07,0-7.94,1.67-10.75,4.59-.59-.36-1.2-.68-1.83-.97,3.23-3.58,7.74-5.62,12.58-5.62,3.79,0,7.39,1.23,10.39,3.56.44.34,1.06.26,1.4-.18.34-.43.26-1.06-.18-1.4-3.35-2.6-7.37-3.98-11.61-3.98-5.67,0-10.94,2.49-14.58,6.84-.69-.22-1.41-.39-2.13-.52,3.96-5.24,10.1-8.32,16.71-8.32,3.68,0,7.31.98,10.5,2.83.48.27,1.09.11,1.37-.37.27-.48.11-1.09-.37-1.37-3.49-2.02-7.47-3.09-11.5-3.09-7.63,0-14.68,3.75-18.98,10.05-.34-.02-.68-.05-1.02-.05-.47,0-.93.04-1.39.07,1.14-1.88,2.51-3.61,4.12-5.14.4-.38.41-1.01.03-1.41-.38-.4-1.01-.41-1.41-.03-2.12,2.02-3.87,4.36-5.22,6.94-8.07,1.78-14.13,8.98-14.13,17.57,0,9.92,8.08,18,18,18,3.45,0,6.81-.98,9.69-2.84.47-.3.6-.92.3-1.38-.3-.46-.92-.6-1.38-.3-2.56,1.65-5.54,2.52-8.61,2.52-7.33,0-13.51-4.96-15.4-11.7l1.15-.23c.07-.02.14-.01.21.04l2.54,1.26c.33.16.68.24,1.03.24.77,0,1.51-.37,1.96-1.04l.91-1.36c.47-.7.53-1.61.14-2.36l-.15-.3c-.07-.14-.03-.32.11-.42l2.85-2.14c.28-.21.53-.5.68-.82l.43-.86c.45-.88.27-1.99-.43-2.7l-.93-.93c-.44-.44-1.03-.68-1.66-.68h-.93c-.24,0-.35-.2-.35-.34,0-.07.02-.13.06-.2.61-.92.49-2.16-.29-2.95l-1.39-1.38c1.51-1.11,3.21-1.97,5.05-2.5-.41.95-.33,2.06.25,2.93l.88,1.33c.43.64,1.07,1.09,1.82,1.27l1.04.27c.3.07.54.26.69.52.14.27.17.57.07.86l-.07.22c-.21.63-.21,1.31,0,1.94l.17.52c.51,1.52,2.12,2.4,3.67,2.01l1.21-.3c.87-.22,1.6-.8,2-1.61.18-.36.55-.59.96-.59h.22c.47,0,.88.29,1.02.73l.06.17c.42,1.26,1.59,2.1,2.92,2.1h3.21c.18.97.29,1.97.29,3,0,4.16-1.58,8.09-4.46,11.08-.38.39-.37,1.03.03,1.41.39.38,1.03.37,1.41-.03,3.24-3.35,5.02-7.78,5.02-12.46,0-5.82-2.78-10.98-7.08-14.27,2.42-2.38,5.67-3.73,9.08-3.73,4,0,7.73,1.81,10.21,4.97.319.407.979.519,1.41.16.43-.34.51-.96.17-1.4ZM15.559,29.36c-.27.39-.4.83-.4,1.3,0,1.29,1.05,2.34,2.35,2.34h.93c.09,0,.18.03.24.1l.93.93c.1.09.13.26.07.38l-.44.86c-.02.05-.06.09-.09.12l-2.85,2.14c-.91.68-1.2,1.91-.69,2.92l.15.3c.05.11.05.24-.02.34l-.91,1.37c-.1.15-.29.19-.44.11l-2.52-1.25c-.47-.24-1-.32-1.52-.21l-1.16.23c-.11-.76-.19-1.54-.19-2.34,0-4.56,1.93-8.67,5-11.59l1.51,1.52c.11.11.13.3.05.43ZM40.189,34h-2.69c-.47,0-.88-.29-1.02-.73l-.06-.17c-.42-1.26-1.59-2.1-2.92-2.1h-.22c-1.17,0-2.22.65-2.75,1.7-.14.28-.39.49-.7.56l-1.21.3c-.54.13-1.1-.17-1.28-.7l-.17-.52c-.08-.22-.08-.46,0-.68l.07-.22c.27-.81.19-1.7-.22-2.45-.41-.75-1.12-1.3-1.95-1.5l-1.05-.27c-.26-.06-.48-.22-.63-.44l-.89-1.33c-.21-.32-.24-.74-.07-1.08l.62-1.24c.64-.08,1.29-.13,1.95-.13,7.08,0,13.08,4.62,15.19,11Z"/>
</svg>