<?xml version="1.0" encoding="UTF-8"?>
<svg id="Outline" xmlns="http://www.w3.org/2000/svg" version="1.1" viewBox="0 0 64 64">
  <!-- Generator: Adobe Illustrator 29.5.1, SVG Export Plug-In . SVG Version: 2.1.0 Build 141)  -->
  <path d="M51,16c.55,0,1-.45,1-1v-5c0-1.65-1.35-3-3-3H15c-1.65,0-3,1.35-3,3v18c0,1.65,1.35,3,3,3h.89c-1.24,2.47-1.89,5.2-1.89,8,0,9.93,8.07,18,18,18s18-8.07,18-18c0-2.8-.65-5.53-1.89-8h.89c1.65,0,3-1.35,3-3v-9c0-.55-.45-1-1-1s-1,.45-1,1v9c0,.55-.45,1-1,1h-25c-.55,0-1,.45-1,1s.45,1,1,1h1.88l-.66,1.33c-.04.07-.07.1-.09.12l-1.25,1.25c-.62.63-.85,1.57-.57,2.41l.36,1.08c.39,1.12,1.54,1.78,2.7,1.56l3.28-.66c.09-.02.19,0,.27.05l1.15.77c.12.08.15.2.16.26.01.07,0,.19-.11.29l-.73.73c-.48.48-.72,1.15-.68,1.82.05.68.39,1.31.94,1.73l2.37,1.78c.4.31.91.48,1.43.48h3.99c.1,0,.18.04.25.11l.27.27c.1.09.11.2.11.25,0,.07-.02.23-.18.31-.37.18-.7.46-.92.8l-1.23,1.85c-.09.13-.25.19-.41.13l-1.39-.46c-.69-.22-1.43-.12-2.04.28l-1.67,1.1c-.82.56-1.21,1.58-.97,2.52l.44,1.77c-8.21-.66-14.7-7.55-14.7-15.93,0-2.83.75-5.58,2.16-8h1.84c.55,0,1-.45,1-1s-.45-1-1-1h-5c-.55,0-1-.45-1-1V10c0-.55.45-1,1-1h34c.55,0,1,.45,1,1v5c0,.55.45,1,1,1ZM45.84,31c.85,1.45,1.46,3.02,1.81,4.65l-3.25,1.95c-.15.08-.32.06-.44-.06l-.85-.85c-.07-.07-.11-.15-.11-.25v-.56c0-.77-.35-1.47-.97-1.91-.62-.45-1.4-.57-2.13-.33l-.85.29c-.05.02-.11.02-.19,0l-2.9-.72c-.11-.03-.2-.11-.24-.23l-.56-1.65c-.04-.12-.1-.22-.15-.33h10.83ZM32.34,52.3l1.66-1.09c.1-.07.21-.09.32-.05l1.37.46c1.01.34,2.12-.04,2.71-.92l1.24-1.85c.03-.05.07-.09.12-.11.81-.4,1.31-1.2,1.31-2.11,0-.63-.25-1.22-.69-1.67l-.27-.27c-.45-.44-1.04-.69-1.67-.69h-3.99c-.07,0-.15-.02-.21-.07l-2.39-1.79c-.11-.09-.14-.2-.14-.26-.01-.06,0-.18.1-.27l.73-.73c.5-.5.75-1.19.68-1.9-.07-.7-.44-1.33-1.04-1.73l-1.16-.77c-.51-.35-1.15-.47-1.77-.35l-3.27.66c-.18.03-.35-.07-.41-.24l-.36-1.08c-.04-.12-.01-.26.09-.35l1.25-1.25c.17-.17.3-.36.44-.62l1.13-2.25h2.72l2.21.74c.1.03.18.11.21.22l.56,1.65c.25.76.88,1.35,1.66,1.54l2.87.71c.44.13.9.11,1.34-.03l.84-.29c.16-.05.27.01.32.05.06.04.15.13.15.29v.56c0,.63.25,1.22.69,1.67l.85.85c.46.45,1.06.69,1.67.69.42,0,.84-.11,1.21-.33l2.53-1.52c.03.4.05.8.05,1.2,0,8.56-6.77,15.55-15.23,15.96l-.57-2.29c-.04-.13.03-.29.14-.37Z"/>
  <path d="M17,26c0,.552.448,1,1,1h8c.552,0,1-.448,1-1,0-2.757,2.243-5,5-5s5,2.243,5,5c0,.552.448,1,1,1h8c.552,0,1-.448,1-1,0-8.271-6.729-15-15-15s-15,6.729-15,15ZM32,19c-3.521,0-6.442,2.612-6.929,6h-2.012c.5-4.493,4.317-8,8.941-8s8.441,3.507,8.941,8h-2.012c-.487-3.388-3.408-6-6.929-6ZM44.962,25h-2.013c-.508-5.598-5.221-10-10.949-10s-10.442,4.402-10.949,10h-2.013c.512-6.703,6.13-12,12.962-12s12.45,5.297,12.962,12Z"/>
</svg>