<?xml version="1.0" encoding="UTF-8"?>
<svg id="Outline" xmlns="http://www.w3.org/2000/svg" version="1.1" viewBox="0 0 64 64">
  <!-- Generator: Adobe Illustrator 29.5.1, SVG Export Plug-In . SVG Version: 2.1.0 Build 141)  -->
  <path d="M21,19c5.997,0,9.625-2.386,9.971-3.722.041-.159.043-.325.005-.484-.326-1.362-3.939-3.794-9.976-3.794-5.997,0-9.625,2.386-9.971,3.722-.041.159-.043.325-.005.484.326,1.362,3.939,3.794,9.976,3.794ZM21,13c4.174,0,6.754,1.273,7.698,2.008-.909.691-3.373,1.992-7.698,1.992-4.174,0-6.754-1.273-7.698-2.008.909-.691,3.373-1.992,7.698-1.992Z"/>
  <path d="M53,7H21c-7.85,0-14,3.51-14,8v34c0,4.49,6.15,8,14,8,6.64,0,12.04-2.51,13.56-6h12.44v5c0,.55.45,1,1,1h5c2.21,0,4-1.79,4-4V11c0-2.21-1.79-4-4-4ZM33,49c0,3.25-5.5,6-12,6s-12-2.75-12-6v-29.84c.57.54,1.23,1.04,2,1.49v28.35c0,.08.01.16.03.24.33,1.35,3.94,3.76,9.97,3.76s9.66-2.44,9.97-3.8c.02-.08.03-.15.03-.23v-28.32c.77-.45,1.43-.95,2-1.49v29.84ZM13,48.73v-27.13c2.25.88,5,1.4,8,1.4s5.75-.52,8-1.4v27.12c-.54.62-3.23,2.28-8,2.28-4.73,0-7.44-1.65-8-2.27ZM21,21c-6.5,0-12-2.75-12-6s5.5-6,12-6,12,2.75,12,6-5.5,6-12,6ZM53,55h-4v-4h4c1.1,0,2,.9,2,2s-.9,2-2,2ZM55,49.56c-.59-.35-1.27-.56-2-.56h-14v-3c0-.55-.45-1-1-1s-1,.45-1,1v3h-2V15c0-2.42-1.8-4.54-4.67-6h6.67v1c0,.55.45,1,1,1s1-.45,1-1v-1h14c1.1,0,2,.9,2,2v38.56Z"/>
  <path d="M38,43c.553,0,1-.448,1-1v-4c0-.552-.447-1-1-1s-1,.448-1,1v4c0,.552.447,1,1,1Z"/>
  <path d="M38,27c.553,0,1-.448,1-1v-4c0-.552-.447-1-1-1s-1,.448-1,1v4c0,.552.447,1,1,1Z"/>
  <path d="M38,19c.553,0,1-.448,1-1v-4c0-.552-.447-1-1-1s-1,.448-1,1v4c0,.552.447,1,1,1Z"/>
  <path d="M38,35c.553,0,1-.448,1-1v-4c0-.552-.447-1-1-1s-1,.448-1,1v4c0,.552.447,1,1,1Z"/>
</svg>