<?xml version="1.0" encoding="UTF-8"?>
<svg id="Outline" xmlns="http://www.w3.org/2000/svg" version="1.1" viewBox="0 0 64 64">
  <!-- Generator: Adobe Illustrator 29.0.0, SVG Export Plug-In . SVG Version: 2.1.0 Build 186)  -->
  <path d="M20,46c0-2.20605-1.79443-4-4-4s-4,1.79395-4,4,1.79443,4,4,4,4-1.79395,4-4ZM14,46c0-1.10254.89697-2,2-2s2,.89746,2,2-.89697,2-2,2-2-.89746-2-2Z"/>
  <path d="M56,31h-1v-15c0-.54999-.45001-1-1-1h-29.06c-.5-4.48999-4.32001-8-8.94-8-4.96002,0-9,4.03998-9,9v30c0,4.95996,4.03998,9,9,9h15.82001l.19,1.15997c.08002.48999.5.84003.98999.84003h18c.48999,0,.90997-.35004.98999-.84003l2.85999-17.15997h1.15002c.54999,0,1-.45001,1-1v-6c0-.54999-.45001-1-1-1ZM9,16c0-3.85999,3.14001-7,7-7s7,3.14001,7,7v24.35999c-1.65002-2.04999-4.16998-3.35999-7-3.35999s-5.34998,1.31-7,3.35999v-24.35999ZM16,53c-3.85999,0-7-3.14001-7-7s3.14001-7,7-7,7,3.14001,7,7-3.14001,7-7,7ZM21.64001,53c2.04999-1.65002,3.35999-4.17004,3.35999-7v-29h28v14h-3.03003c.64001-.84003,1.03003-1.87,1.03003-3,0-2.76001-2.23999-5-5-5-1.64001,0-3.09003.81-4,2.02997-.90997-1.21997-2.35999-2.02997-4-2.02997-2.76001,0-5,2.23999-5,5,0,1.13.39001,2.15997,1.03003,3h-6.03003c-.54999,0-1,.45001-1,1v6c0,.54999.45001,1,1,1h1.15002l2.33997,14h-9.84998ZM35,28c0-1.65002,1.34998-3,3-3s3,1.34998,3,3v3h-3c-1.65002,0-3-1.35004-3-3ZM38,33v4h-9v-4h9ZM40,33h4v4h-4v-4ZM43,31v-3c0-1.65002,1.34998-3,3-3s3,1.34998,3,3-1.34998,3-3,3h-3ZM41,55h-7.15002l-2.66998-16h9.82001v16ZM50.15002,55h-7.15002v-16h9.82001l-2.66998,16ZM55,37h-9v-4h9v4Z"/>
</svg>