<?xml version="1.0" encoding="UTF-8"?>
<svg id="Outline" xmlns="http://www.w3.org/2000/svg" version="1.1" viewBox="0 0 64 64">
  <!-- Generator: Adobe Illustrator 29.5.1, SVG Export Plug-In . SVG Version: 2.1.0 Build 141)  -->
  <path d="M51.142,28.01l-3.741-.537c-1-3.841-3.228-7.183-6.253-9.579l-2.17-10.104c-.099-.461-.506-.79-.978-.79h-2c-.552,0-1,.448-1,1s.448,1,1,1h1.192l1.566,7.288c-2.595-1.452-5.579-2.288-8.757-2.288s-6.163.836-8.757,2.288l1.566-7.288h9.192c.552,0,1-.448,1-1s-.448-1-1-1h-10c-.471,0-.879.329-.978.79l-2.17,10.104c-4.166,3.3-6.852,8.39-6.852,14.106s2.686,10.806,6.852,14.106l2.17,10.104c.099.461.506.79.978.79h2c.552,0,1-.448,1-1s-.448-1-1-1h-1.192l-1.566-7.288c2.595,1.452,5.579,2.288,8.757,2.288s6.163-.836,8.757-2.288l-1.566,7.288h-9.192c-.552,0-1,.448-1,1s.448,1,1,1h10c.471,0,.879-.329.978-.79l2.17-10.104c3.025-2.396,5.253-5.738,6.253-9.579l3.741-.537c.492-.07.858-.492.858-.99v-6c0-.498-.366-.919-.858-.99ZM30,48c-8.822,0-16-7.178-16-16s7.178-16,16-16,16,7.178,16,16-7.178,16-16,16ZM50,34.133l-2.186.314c.11-.802.186-1.615.186-2.447s-.077-1.645-.186-2.447l2.186.314v4.267Z"/>
  <path d="M16.975,31.412c.041.005.082.007.122.007.498,0,.93-.372.991-.879.118-.972.355-1.926.704-2.837.198-.516-.06-1.094-.576-1.292-.516-.199-1.094.06-1.292.576-.408,1.064-.685,2.178-.822,3.312-.066.548.324,1.047.872,1.113Z"/>
  <path d="M18.794,36.302c-.35-.911-.587-1.865-.705-2.836-.066-.548-.565-.933-1.113-.872-.548.066-.938.565-.872,1.113.138,1.133.415,2.247.823,3.311.196.511.784.771,1.292.575.516-.198.773-.777.575-1.292Z"/>
  <path d="M43.025,32.588c-.548-.065-1.047.324-1.113.872-.118.972-.355,1.926-.704,2.837-.198.516.06,1.094.576,1.292.512.197,1.095-.063,1.291-.576.408-1.064.685-2.178.822-3.312.066-.548-.324-1.047-.872-1.113Z"/>
  <path d="M41.206,27.698c.35.911.587,1.865.705,2.836.062.507.493.879.991.879.041,0,.081-.002.122-.007.548-.066.938-.565.872-1.113-.138-1.133-.415-2.248-.823-3.312-.198-.517-.779-.772-1.292-.575-.516.198-.773.777-.575,1.292Z"/>
  <path d="M39.832,38.882c-.353.502-.748.982-1.173,1.425-2.285,2.381-5.36,3.692-8.659,3.692s-6.374-1.312-8.659-3.692c-.425-.443-.82-.923-1.173-1.425-.316-.452-.942-.562-1.393-.244-.452.317-.562.941-.244,1.393.411.586.871,1.145,1.366,1.662,2.667,2.778,6.254,4.308,10.103,4.308s7.436-1.53,10.103-4.308c.496-.517.956-1.076,1.366-1.662.317-.452.208-1.076-.244-1.393-.451-.318-1.076-.208-1.393.244Z"/>
  <path d="M30,18c-3.849,0-7.436,1.53-10.103,4.308-.496.517-.956,1.076-1.366,1.662-.726,1.033.933,2.153,1.637,1.148.353-.502.748-.982,1.173-1.425,2.285-2.381,5.36-3.692,8.659-3.692s6.374,1.312,8.659,3.692c.425.443.82.923,1.173,1.425.315.448.945.56,1.393.244.452-.317.562-.941.244-1.393-.411-.586-.871-1.145-1.366-1.662-2.667-2.778-6.254-4.308-10.103-4.308Z"/>
  <path d="M30,22c-.552,0-1,.448-1,1v6.184c-1.161.414-2,1.514-2,2.816,0,1.654,1.346,3,3,3s3-1.346,3-3c0-1.302-.839-2.402-2-2.816v-6.184c0-.552-.448-1-1-1ZM30,33c-.551,0-1-.449-1-1s.449-1,1-1,1,.449,1,1-.449,1-1,1Z"/>
</svg>