<?xml version="1.0" encoding="UTF-8"?>
<svg id="Outline" xmlns="http://www.w3.org/2000/svg" version="1.1" viewBox="0 0 64 64">
  <!-- Generator: Adobe Illustrator 29.0.0, SVG Export Plug-In . SVG Version: 2.1.0 Build 186)  -->
  <path d="M56,42h-12v-5c0-1.65002-1.34998-3-3-3h-4c-.53998,0-1.03003.14996-1.46997.39996-.53003-.83997-1.46002-1.39996-2.53003-1.39996s-2,.56-2.53003,1.39996c-.43994-.25-.92999-.39996-1.46997-.39996h-4c-.53998,0-1.03003.14996-1.46997.39996-.53003-.83997-1.46002-1.39996-2.53003-1.39996s-2,.56-2.53003,1.39996c-.43994-.25-.92999-.39996-1.46997-.39996h-4c-1.65002,0-3,1.34998-3,3v5h-2c-.54999,0-1,.45001-1,1s.45001,1,1,1h2v5c0,1.64996,1.34998,3,3,3h4c.53998,0,1.03003-.15002,1.46997-.40002.53003.84003,1.46002,1.40002,2.53003,1.40002s2-.56,2.53003-1.40002c.43994.25.92999.40002,1.46997.40002h4c.53998,0,1.03003-.15002,1.46997-.40002.53003.84003,1.46002,1.40002,2.53003,1.40002s2-.56,2.53003-1.40002c.43994.25.92999.40002,1.46997.40002h4c1.65002,0,3-1.35004,3-3v-5h12c.54999,0,1-.45001,1-1s-.45001-1-1-1ZM18,49c0,.54999-.45001,1-1,1h-1v-3c0-.54999-.45001-1-1-1s-1,.45001-1,1v3h-1c-.54999,0-1-.45001-1-1v-12c0-.54999.45001-1,1-1h4c.54999,0,1,.45001,1,1v12ZM22,50c0,.54999-.45001,1-1,1s-1-.45001-1-1v-14c0-.54999.45001-1,1-1s1,.45001,1,1v14ZM30,49c0,.54999-.45001,1-1,1h-4c-.54999,0-1-.45001-1-1v-12c0-.54999.45001-1,1-1h1v3c0,.54999.45001,1,1,1s1-.45001,1-1v-3h1c.54999,0,1,.45001,1,1v12ZM34,50c0,.54999-.45001,1-1,1s-1-.45001-1-1v-14c0-.54999.45001-1,1-1s1,.45001,1,1v14ZM42,49c0,.54999-.45001,1-1,1h-1v-3c0-.54999-.45001-1-1-1s-1,.45001-1,1v3h-1c-.54999,0-1-.45001-1-1v-12c0-.54999.45001-1,1-1h4c.54999,0,1,.45001,1,1v12Z"/>
  <path d="M56,20h-12v-5c0-1.65002-1.34998-3-3-3h-4c-.53998,0-1.03003.14996-1.46997.39996-.53003-.83997-1.46002-1.39996-2.53003-1.39996s-2,.56-2.53003,1.39996c-.43994-.25-.92999-.39996-1.46997-.39996h-4c-.53998,0-1.03003.14996-1.46997.39996-.11005-.17999-.25-.35999-.40002-.50995-.56-.57001-1.32001-.89001-2.13-.89001-1.07001,0-2,.56-2.53003,1.39996-.43994-.25-.92999-.39996-1.46997-.39996h-4c-1.65002,0-3,1.34998-3,3v5h-2c-.54999,0-1,.45001-1,1s.45001,1,1,1h2v5c0,1.64996,1.34998,3,3,3h4c.53998,0,1.03003-.15002,1.46997-.40002.11005.17999.25.35999.40002.51001.56.57001,1.32001.89001,2.13.89001,1.07001,0,2-.56,2.53003-1.40002.43994.25.92999.40002,1.46997.40002h4c.53998,0,1.03003-.15002,1.46997-.40002.53003.84003,1.46002,1.40002,2.53003,1.40002s2-.56,2.53003-1.40002c.43994.25.92999.40002,1.46997.40002h4c1.65002,0,3-1.35004,3-3v-5h12c.54999,0,1-.45001,1-1s-.45001-1-1-1ZM18,27c0,.54999-.45001,1-1,1h-1v-3c0-.54999-.45001-1-1-1s-1,.45001-1,1v3h-1c-.54999,0-1-.45001-1-1v-12c0-.54999.45001-1,1-1h4c.54999,0,1,.45001,1,1v12ZM30,27c0,.54999-.45001,1-1,1h-4c-.54999,0-1-.45001-1-1v-2c0-.54999-.45001-1-1-1s-1,.45001-1,1v3c0,.54999-.45001,1-1,1-.27002,0-.51001-.10004-.71002-.31-.19-.17999-.28998-.42004-.28998-.69v-14c0-.54999.45001-1,1-1,.27002,0,.51001.09998.71002.31.19.17999.28998.41998.28998.69v3c0,.54999.45001,1,1,1s1-.45001,1-1v-2c0-.54999.45001-1,1-1h1v3c0,.54999.45001,1,1,1s1-.45001,1-1v-3h1c.54999,0,1,.45001,1,1v12ZM34,28c0,.54999-.45001,1-1,1s-1-.45001-1-1v-14c0-.54999.45001-1,1-1s1,.45001,1,1v14ZM42,27c0,.54999-.45001,1-1,1h-1v-3c0-.54999-.45001-1-1-1s-1,.45001-1,1v3h-1c-.54999,0-1-.45001-1-1v-12c0-.54999.45001-1,1-1h4c.54999,0,1,.45001,1,1v12Z"/>
  <circle cx="23" cy="21" r="1"/>
</svg>