<?xml version="1.0" encoding="UTF-8"?>
<svg id="Outline" xmlns="http://www.w3.org/2000/svg" version="1.1" viewBox="0 0 64 64">
  <!-- Generator: Adobe Illustrator 29.5.1, SVG Export Plug-In . SVG Version: 2.1.0 Build 141)  -->
  <path d="M36.5,23h-1v-12c0-1.10004.90002-2,2-2s2,.89996,2,2v6c0,2.20996,1.78998,4,4,4s4-1.79004,4-4v-4.17999c1.15997-.42004,2-1.52002,2-2.82001,0-1.65002-1.34998-3-3-3s-3,1.34998-3,3c0,1.29999.84003,2.39996,2,2.82001v4.17999c0,1.09998-.90002,2-2,2s-2-.90002-2-2v-6c0-2.21002-1.78998-4-4-4s-4,1.78998-4,4v12h-6c-9.37,0-17,7.63-17,17s7.63,17,17,17h9c9.37,0,17-7.63,17-17s-7.63-17-17-17ZM46.5,9c.54999,0,1,.45001,1,1s-.45001,1-1,1-1-.45001-1-1,.45001-1,1-1ZM12.5,40c0-6.09003,3.65997-11.34003,8.89001-13.67999-4.22003,3.09998-6.89001,8.08997-6.89001,13.67999s2.66998,10.57996,6.89001,13.67999c-5.23004-2.34003-8.89001-7.59003-8.89001-13.67999ZM16.5,40c0-6.92999,4.63-12.82001,11.20001-14.51001-4.91003,2.97998-8.20001,8.35999-8.20001,14.51001s3.28998,11.52997,8.20001,14.51001c-6.57001-1.69-11.20001-7.58002-11.20001-14.51001ZM36.5,55c-8.27002,0-15-6.73004-15-15s6.72998-15,15-15,15,6.72998,15,15-6.72998,15-15,15Z"/>
  <path d="M36.5,27c-7.16846,0-13,5.83203-13,13s5.83154,13,13,13,13-5.83203,13-13-5.83154-13-13-13ZM36.5,51c-6.06543,0-11-4.93457-11-11s4.93457-11,11-11,11,4.93457,11,11-4.93457,11-11,11Z"/>
</svg>