<?xml version="1.0" encoding="UTF-8"?>
<svg id="Outline" xmlns="http://www.w3.org/2000/svg" version="1.1" viewBox="0 0 64 64">
  <!-- Generator: Adobe Illustrator 29.5.1, SVG Export Plug-In . SVG Version: 2.1.0 Build 141)  -->
  <path d="M56,55h-18.72c1.01-4.38.88-8.94-.41-13.26l-.44-1.47c1.94-.03,3.87-.6,5.51-1.7l3.18-2.12c1.8-1.19,2.88-3.2,2.88-5.37,0-1.11-.29-2.21-.83-3.18-.57-.98-1.36-1.79-2.3-2.35-1.46-.87-2.75-1.99-3.84-3.31l-5.3-6.48c-.59-.73-1.38-1.26-2.24-1.6.32-.66.51-1.38.51-2.16,0-2.76-2.24-5-5-5s-5,2.24-5,5c0,.04.01.08.01.12l-2.84-1.88c-1.36-.9-3.17-.57-4.11.77-.47.67-.64,1.48-.49,2.28.15.81.61,1.5,1.29,1.95l8.14,5.39v.28c0,2.26,1.3,4.36,3.31,5.36l6.24,3.12c.28.14.45.42.45.73,0,.24-.12.48-.31.63l-6.59,5.13c-1.37,1.06-1.9,2.87-1.31,4.5l3.79,10.62h-.58c-2.41,0-4.43,1.72-4.9,4H8c-.55,0-1,.45-1,1s.45,1,1,1h48c.55,0,1-.45,1-1s-.45-1-1-1ZM29,9c1.65,0,3,1.35,3,3s-1.35,3-3,3c-.28,0-.55-.05-.82-.12l-1.49-.99c-.45-.54-.69-1.19-.69-1.89,0-1.65,1.35-3,3-3ZM35.22,55h-7.05c.41-1.16,1.53-2,2.83-2h2c.33,0,.63-.16.82-.42.18-.27.23-.61.12-.92l-1.31-3.66h3.28c.12,2.35-.11,4.7-.69,7ZM34.24,38.03c-.54-.13-1.06.2-1.19.74-.13.53.21,1.08.75,1.21.16.04.32.06.48.09l.67,2.24c.36,1.22.62,2.45.79,3.69h-3.74c-.03,0-.05.01-.07.02l-2.26-6.32c-.29-.81-.03-1.71.65-2.24l6.59-5.13c.68-.52,1.09-1.35,1.09-2.21,0-1.06-.59-2.03-1.55-2.51l-6.25-3.13c-.98-.49-1.71-1.38-2.02-2.41l2.11,1.4c.17.11.37.16.56.16.32,0,.64-.15.83-.44.31-.46.18-1.09-.28-1.39l-12.44-8.23c-.22-.15-.38-.38-.43-.65-.05-.27.01-.54.17-.76.31-.44.91-.56,1.37-.26l12.53,8.3c.46.3,1.08.18,1.39-.28.3-.46.18-1.08-.28-1.39l-2.87-1.89c.49-.2.93-.47,1.33-.8.78.15,1.51.56,2.02,1.18l5.29,6.48c1.23,1.51,2.7,2.78,4.37,3.77.64.38,1.19.95,1.58,1.62.37.67.57,1.42.57,2.19,0,1.5-.74,2.88-1.98,3.71l-3.18,2.12c-1.92,1.28-4.31,1.69-6.6,1.12Z"/>
</svg>