<?xml version="1.0" encoding="UTF-8"?>
<svg id="Outline" xmlns="http://www.w3.org/2000/svg" version="1.1" viewBox="0 0 64 64">
  <!-- Generator: Adobe Illustrator 29.5.1, SVG Export Plug-In . SVG Version: 2.1.0 Build 141)  -->
  <path d="M30.999,21c0-2.757-2.243-5-5-5s-5,2.243-5,5,2.243,5,5,5,5-2.243,5-5ZM22.999,21c0-1.654,1.346-3,3-3s3,1.346,3,3-1.346,3-3,3-3-1.346-3-3Z"/>
  <circle cx="25.999" cy="21" r="1"/>
  <path d="M42.999,21c0-2.757-2.243-5-5-5s-5,2.243-5,5,2.243,5,5,5,5-2.243,5-5ZM34.999,21c0-1.654,1.346-3,3-3s3,1.346,3,3-1.346,3-3,3-3-1.346-3-3Z"/>
  <circle cx="37.999" cy="21" r="1"/>
  <path d="M55.599,48.47c-1.07-5.74-4.9-10.59-10.24-12.96l-.36-.16v-4.9c.3-.18.58-.37.83-.62.75-.76,1.17-1.76,1.17-2.83v-5c0-8.27-6.73-15-15-15-4,0-7.76,1.56-10.61,4.39-2.31,2.33-3.78,5.26-4.24,8.48-.08.54.3,1.05.85,1.13.55.08,1.05-.3,1.13-.85.4-2.79,1.67-5.33,3.68-7.34,2.46-2.46,5.73-3.81,9.19-3.81,7.17,0,13,5.83,13,13v5c0,.53-.21,1.03-.59,1.41-.38.38-.88.59-1.41.59-2.21,0-4,1.79-4,4v2.21c-4.54,1.02-9.46,1.02-14,0v-2.21c0-1.07-.42-2.07-1.17-2.83-.76-.75-1.76-1.17-2.83-1.17-.85,0-1.6-.54-1.87-1.33-.18-.53-.75-.81-1.27-.63-.53.18-.81.75-.63,1.27.32.93.96,1.67,1.77,2.14v4.9l-.36.16c-5.34,2.37-9.17,7.22-10.24,12.96l-1.38,7.35c-.1.54.25,1.06.8,1.16.54.09,1.059-.25,1.16-.8l1.38-7.34c.93-4.94,4.15-9.12,8.66-11.29.08,1.94,1.26,3.61,2.99,4.36,0,.03-.01.06-.01.09,0,2.37,2.97,4.25,7.25,4.82l.87,2.18h-1.12c-.55,0-1,.45-1,1s.45,1,1,1h1.92l.8,2h-.72c-.55,0-1,.45-1,1s.45,1,1,1h1.52l.55,1.37c.484,1.205,2.33.46,1.86-.74l-.25-.63h.32c.55,0,1-.45,1-1s-.45-1-1-1h-1.12l-.81-2.01c.52-.04.93-.46.93-.99,0-.55-.45-1-1-1h-.72l-.81-2.01c.18,0,.35.01.53.01,5.7,0,10-2.15,10-5,0-.03-.01-.06-.01-.09,1.73-.75,2.91-2.42,2.99-4.36,4.51,2.17,7.73,6.35,8.66,11.29,0,0,1.373,7.305,1.38,7.34.236,1.253,2.196.913,1.96-.36l-1.38-7.35ZM31.999,45c-4.37,0-7.31-1.42-7.89-2.59,2.62.39,5.26.59,7.89.59s5.27-.2,7.89-.59c-.58,1.17-3.52,2.59-7.89,2.59ZM42.999,37.34c0,1.47-1.05,2.72-2.51,2.96-5.63.94-11.35.94-16.98,0-1.46-.24-2.51-1.49-2.51-2.96v-6.34c.53,0,1.03.21,1.41.59.38.38.59.88.59,1.41v3c0,.46.31.86.76.97,2.66.67,5.43,1.01,8.24,1.01s5.58-.34,8.24-1.01c.45-.11.76-.51.76-.97v-3c0-1.1.9-2,2-2v6.34Z"/>
  <path d="M16.551,46.105c-.494.247-.694.848-.447,1.342,1.239,2.478,1.895,5.253,1.895,8.025v.528c0,.552.447,1,1,1s1-.448,1-1v-.528c0-3.081-.729-6.165-2.105-8.919-.248-.494-.848-.694-1.342-.447Z"/>
  <path d="M47.446,46.105c-.493-.247-1.094-.047-1.342.447-1.377,2.754-2.105,5.839-2.105,8.919v.528c0,.552.447,1,1,1s1-.448,1-1v-.528c0-2.772.655-5.547,1.895-8.025.247-.494.047-1.095-.447-1.342Z"/>
  <circle cx="17.999" cy="24" r="1"/>
</svg>