<?xml version="1.0" encoding="UTF-8"?>
<svg id="Outline" xmlns="http://www.w3.org/2000/svg" version="1.1" viewBox="0 0 64 64">
  <!-- Generator: Adobe Illustrator 29.5.1, SVG Export Plug-In . SVG Version: 2.1.0 Build 141)  -->
  <path d="M56,16h-.03c.64-.84,1.03-1.87,1.03-3,0-2.76-2.24-5-5-5s-5,2.24-5,5c0,1.13.39,2.16,1.03,3h-.03c-.55,0-1,.45-1,1v12.96c-5.21-.23-10.21-2.17-14.18-5.58l-.17-.14c-.38-.32-.92-.32-1.3,0l-.17.14c-3.97,3.41-8.97,5.35-14.18,5.58v-3.96c0-.55-.45-1-1-1s-1,.45-1,1v28h-6v-2h3c.55,0,1-.45,1-1v-30c0-.55-.45-1-1-1h-3v-2h6v4c0,.55.45,1,1,1s1-.45,1-1v-5c0-.55-.45-1-1-1h-.03c.64-.84,1.03-1.87,1.03-3,0-2.76-2.24-5-5-5s-5,2.24-5,5c0,1.13.39,2.16,1.03,3h-.03c-.55,0-1,.45-1,1v38c0,.55.45,1,1,1h48c.55,0,1-.45,1-1v-27c0-.55-.45-1-1-1s-1,.45-1,1v22h-2v-28h2v2c0,.55.45,1,1,1s1-.45,1-1v-7c0-.55-.45-1-1-1ZM12,10c1.65,0,3,1.35,3,3s-1.35,3-3,3-3-1.35-3-3,1.35-3,3-3ZM9,22h2v28h-2v-28ZM20,54h-3v-4h3v4ZM20,48h-3v-4h3v4ZM20,42h-3v-4h3v4ZM20,36h-3v-4.04c1.01-.04,2.01-.13,3-.29v4.33ZM25,54h-3v-4h3v4ZM25,48h-3v-4h3v4ZM25,42h-3v-4h3v4ZM25,36h-3v-4.74c1.02-.25,2.02-.56,3-.93v5.67ZM31,54h-4v-4h4v4ZM31,48h-4v-4h4v4ZM31,42h-4v-4h4v4ZM31,36h-4v-6.53c1.4-.68,2.74-1.49,4-2.42v8.95ZM37,54h-4v-4h4v4ZM37,48h-4v-4h4v4ZM37,42h-4v-4h4v4ZM37,36h-4v-8.95c1.26.93,2.6,1.74,4,2.42v6.53ZM42,54h-3v-4h3v4ZM42,48h-3v-4h3v4ZM42,42h-3v-4h3v4ZM42,36h-3v-5.67c.98.37,1.98.68,3,.93v4.74ZM47,54h-3v-4h3v4ZM47,48h-3v-4h3v4ZM47,42h-3v-4h3v4ZM47,36h-3v-4.33c.99.16,1.99.25,3,.29v4.04ZM55,20h-3c-.55,0-1,.45-1,1v30c0,.55.45,1,1,1h3v2h-6V18h6v2ZM52,16c-1.65,0-3-1.35-3-3s1.35-3,3-3,3,1.35,3,3-1.35,3-3,3Z"/>
</svg>